<svg xmlns="http://www.w3.org/2000/svg" xmlns:xlink="http://www.w3.org/1999/xlink" viewBox="0 0 800 500"><path fill="none" d="M0 0h800v500H0z"/><defs><use xlink:href="#a" id="f" fill="currentColor" stroke="none"/><use xlink:href="#a" id="b" stroke="currentColor" transform="rotate(180)"/><use xlink:href="#b" id="e" fill="currentColor" stroke="none"/><use xlink:href="#c" id="d" stroke="currentColor" transform="rotate(45)"/><use xlink:href="#d" id="g" fill="currentColor" stroke="none"/><path id="c" stroke="currentColor" stroke-width=".222" d="M-1-1h2v2h-2z"/><path id="a" stroke="currentColor" stroke-width=".222" d="m0-1.33-1.33 2h2.66z"/><path id="h" stroke="currentColor" stroke-width=".222" d="M0 1.33 1.265.411.782-1.067l-1.564-.009-.483 1.487z"/></defs><path fill="none" stroke="#EEE" stroke-linecap="round" stroke-linejoin="round" d="M16.11 410V180.01" class="gridline" color="#000"/><g fill="none" stroke-linecap="round" stroke-linejoin="round" stroke-width="0" color="#000"><path d="M16.11 410v-9m0-220.99v9"/><text fill="#000" font-family="Arial" font-size="16" text-anchor="middle" transform="translate(16.11 442.2)"><tspan> 1</tspan></text></g><path fill="none" stroke="#EEE" stroke-linecap="round" stroke-linejoin="round" d="M96.69 410V180.01" class="gridline" color="#000"/><g fill="none" stroke-linecap="round" stroke-linejoin="round" stroke-width="0" color="#000"><path d="M96.69 410v-9m0-220.99v9"/><text fill="#000" font-family="Arial" font-size="16" text-anchor="middle" transform="translate(96.69 442.2)"><tspan> 2</tspan></text></g><path fill="none" stroke="#EEE" stroke-linecap="round" stroke-linejoin="round" d="M177.26 410V180.01" class="gridline" color="#000"/><g fill="none" stroke-linecap="round" stroke-linejoin="round" stroke-width="0" color="#000"><path d="M177.26 410v-9m0-220.99v9"/><text fill="#000" font-family="Arial" font-size="16" text-anchor="middle" transform="translate(177.26 442.2)"><tspan> 3</tspan></text></g><path fill="none" stroke="#EEE" stroke-linecap="round" stroke-linejoin="round" d="M257.83 410V180.01" class="gridline" color="#000"/><g fill="none" stroke-linecap="round" stroke-linejoin="round" stroke-width="0" color="#000"><path d="M257.83 410v-9m0-220.99v9"/><text fill="#000" font-family="Arial" font-size="16" text-anchor="middle" transform="translate(257.83 442.2)"><tspan> 4</tspan></text></g><path fill="none" stroke="#EEE" stroke-linecap="round" stroke-linejoin="round" d="M338.4 410V180.01" class="gridline" color="#000"/><g fill="none" stroke-linecap="round" stroke-linejoin="round" stroke-width="0" color="#000"><path d="M338.4 410v-9m0-220.99v9"/><text fill="#000" font-family="Arial" font-size="16" text-anchor="middle" transform="translate(338.4 442.2)"><tspan> 5</tspan></text></g><path fill="none" stroke="#EEE" stroke-linecap="round" stroke-linejoin="round" d="M418.97 410V180.01" class="gridline" color="#000"/><g fill="none" stroke-linecap="round" stroke-linejoin="round" stroke-width="0" color="#000"><path d="M418.97 410v-9m0-220.99v9"/><text fill="#000" font-family="Arial" font-size="16" text-anchor="middle" transform="translate(418.97 442.2)"><tspan> 6</tspan></text></g><path fill="none" stroke="#EEE" stroke-linecap="round" stroke-linejoin="round" d="M499.54 410V180.01" class="gridline" color="#000"/><g fill="none" stroke-linecap="round" stroke-linejoin="round" stroke-width="0" color="#000"><path d="M499.54 410v-9m0-220.99v9"/><text fill="#000" font-family="Arial" font-size="16" text-anchor="middle" transform="translate(499.54 442.2)"><tspan> 7</tspan></text></g><path fill="none" stroke="#EEE" stroke-linecap="round" stroke-linejoin="round" d="M580.12 410V180.01" class="gridline" color="#000"/><g fill="none" stroke-linecap="round" stroke-linejoin="round" stroke-width="0" color="#000"><path d="M580.12 410v-9m0-220.99v9"/><text fill="#000" font-family="Arial" font-size="16" text-anchor="middle" transform="translate(580.12 442.2)"><tspan> 8</tspan></text></g><path fill="none" stroke="#EEE" stroke-linecap="round" stroke-linejoin="round" d="M660.69 410V180.01" class="gridline" color="#000"/><g fill="none" stroke-linecap="round" stroke-linejoin="round" stroke-width="0" color="#000"><path d="M660.69 410v-9m0-220.99v9"/><text fill="#000" font-family="Arial" font-size="16" text-anchor="middle" transform="translate(660.69 442.2)"><tspan> 9</tspan></text></g><path fill="none" stroke="#EEE" stroke-linecap="round" stroke-linejoin="round" d="M741.26 410V180.01" class="gridline" color="#000"/><g fill="none" stroke-linecap="round" stroke-linejoin="round" stroke-width="0" color="#000"><path d="M741.26 410v-9m0-220.99v9"/><text fill="#000" font-family="Arial" font-size="16" text-anchor="middle" transform="translate(741.26 442.2)"><tspan> 10</tspan></text></g><path fill="none" stroke="#EEE" stroke-linecap="round" stroke-linejoin="round" d="M0 390.86h741.26" class="gridline" color="#000"/><g fill="none" stroke-linecap="round" stroke-linejoin="round" stroke-width="0" color="#000"><path d="M741.26 390.86h-9"/><text fill="#000" font-family="Arial" font-size="16" transform="translate(758.04 396.06)"><tspan>28</tspan></text></g><path fill="none" stroke="#EEE" stroke-linecap="round" stroke-linejoin="round" d="M0 365.75h741.26" class="gridline" color="#000"/><g fill="none" stroke-linecap="round" stroke-linejoin="round" stroke-width="0" color="#000"><path d="M741.26 365.75h-9"/><text fill="#000" font-family="Arial" font-size="16" transform="translate(758.04 370.95)"><tspan>29</tspan></text></g><path fill="none" stroke="#EEE" stroke-linecap="round" stroke-linejoin="round" d="M0 340.64h741.26" class="gridline" color="#000"/><g fill="none" stroke-linecap="round" stroke-linejoin="round" stroke-width="0" color="#000"><path d="M741.26 340.64h-9"/><text fill="#000" font-family="Arial" font-size="16" transform="translate(758.04 345.84)"><tspan>30</tspan></text></g><path fill="none" stroke="#EEE" stroke-linecap="round" stroke-linejoin="round" d="M0 315.54h741.26" class="gridline" color="#000"/><g fill="none" stroke-linecap="round" stroke-linejoin="round" stroke-width="0" color="#000"><path d="M741.26 315.54h-9"/><text fill="#000" font-family="Arial" font-size="16" transform="translate(758.04 320.74)"><tspan>31</tspan></text></g><path fill="none" stroke="#EEE" stroke-linecap="round" stroke-linejoin="round" d="M0 290.43h741.26" class="gridline" color="#000"/><g fill="none" stroke-linecap="round" stroke-linejoin="round" stroke-width="0" color="#000"><path d="M741.26 290.43h-9"/><text fill="#000" font-family="Arial" font-size="16" transform="translate(758.04 295.63)"><tspan>32</tspan></text></g><path fill="none" stroke="#EEE" stroke-linecap="round" stroke-linejoin="round" d="M0 265.33h741.26" class="gridline" color="#000"/><g fill="none" stroke-linecap="round" stroke-linejoin="round" stroke-width="0" color="#000"><path d="M741.26 265.33h-9"/><text fill="#000" font-family="Arial" font-size="16" transform="translate(758.04 270.53)"><tspan>33</tspan></text></g><path fill="none" stroke="#EEE" stroke-linecap="round" stroke-linejoin="round" d="M0 240.22h741.26" class="gridline" color="#000"/><g fill="none" stroke-linecap="round" stroke-linejoin="round" stroke-width="0" color="#000"><path d="M741.26 240.22h-9"/><text fill="#000" font-family="Arial" font-size="16" transform="translate(758.04 245.42)"><tspan>34</tspan></text></g><path fill="none" stroke="#EEE" stroke-linecap="round" stroke-linejoin="round" d="M0 215.11h741.26" class="gridline" color="#000"/><g fill="none" stroke-linecap="round" stroke-linejoin="round" stroke-width="0" color="#000"><path d="M741.26 215.11h-9"/><text fill="#000" font-family="Arial" font-size="16" transform="translate(758.04 220.31)"><tspan>35</tspan></text></g><path fill="none" stroke="#EEE" stroke-linecap="round" stroke-linejoin="round" d="M0 190.01h741.26" class="gridline" color="#000"/><g fill="none" stroke-linecap="round" stroke-linejoin="round" stroke-width="0" color="#000"><path d="M741.26 190.01h-9"/><text fill="#000" font-family="Arial" font-size="16" transform="translate(758.04 195.21)"><tspan>36</tspan></text></g><path fill="none" d="M0 180.01V410m741.26-229.99H0" color="#000"/><text stroke-linecap="round" stroke-linejoin="round" stroke-width="0" color="#000" font-family="Arial" font-size="16" text-anchor="middle" transform="translate(370.63 478.2)"><tspan>Size × 10</tspan><tspan dy="-8" font-size="12.8">5</tspan></text><text stroke-linecap="round" stroke-linejoin="round" stroke-width="2" color="#000" font-family="Arial" font-size="16" transform="translate(70.43 93.21)"><tspan>Median</tspan></text><g fill="none" stroke="currentColor" stroke-linecap="round" stroke-linejoin="round" stroke-width="2" color="#000"><path stroke="#000" d="M5.43 88.01h53.8M0 393.61l8.06 10.16 8.05-5.52 8.06-30.53 8.06-18.59 8.06-25.95 8.05 1.41 8.06 6.6 8.06 3.12 8.05 17.83 8.06 1.14 8.06-2.32 8.06-7.31 8.05-16.28 8.06-18.26 8.06-9.89 8.05-9.4 8.06-11.38 8.06-14.76 8.06 9.08 8.05 7 8.06 1.73 8.06 4.7 8.06 3.32 8.05-.31 8.06 3.28 8.06 5.27 8.05.28 8.06 2.15 8.06.96 8.06-.32 8.05-4.19 8.06-1.49 8.06-1.97 8.05-13.69 8.06-5.75 8.06-9.43 8.06-10.69 8.05-.03 8.06-4.26 8.06-3.92 8.05-6.15 8.06-5.75 8.06-9.04 8.06-5.28 8.05 4.89 8.06 4.19 8.06 2.91 8.05 3.44 8.06 2.81 8.06-.89 8.06 2.1 8.05 2.26 8.06 2.54 8.06.98 8.05 1.62 8.06-1.41 8.06.68 8.06 2.35 8.05-.56 8.06 4.48 8.06 3.86 8.05-2.19 8.06-1.23 8.06 2.69 8.06-.3 8.05.33 8.06.61 8.06.55 8.06-3.98 8.05-.15 8.06.03 8.06-2.36 8.05-1.96 8.06-1.09 8.06-6.36 8.06-6.88 8.05-3.35 8.06-1.69 8.06-4.72 8.05-4.73 8.06-7.49 8.06-2.76 8.06-1.68 8.05 1.78 8.06-5 8.06-.07 8.05-1 8.06-2.63 8.06-5.99 8.06-1.31 8.05.45 8.06-5.98"/><use xlink:href="#e" transform="matrix(9 0 0 9 684.86 203.5)"/><use xlink:href="#e" transform="matrix(9 0 0 9 32.33 88.01)"/></g><text stroke-linecap="round" stroke-linejoin="round" stroke-width="2" color="#000" font-family="Arial" font-size="16" transform="translate(70.43 129.21)"><tspan>Height</tspan></text><g fill="none" stroke="currentColor" stroke-linecap="round" stroke-linejoin="round" stroke-width="2" color="#000"><path stroke="#9F650D" stroke-dasharray="8,4,2,4" d="M5.43 124.01h53.8M0 382.24l8.06 7.83 8.05-7.63 8.06-30.22 8.06-18.27 8.06-27 8.05 15.04 8.06 7.17 8.06 1.87 8.05 8.22 8.06 2.96 8.06.99 8.06-7.16 8.05-14.98 8.06-16.85 8.06-7.98 8.05-8.67 8.06-11.25 8.06-15.47 8.06 8.03 8.05 6.02 8.06 2.19 8.06 4.69 8.06 3.55 8.05.33 8.06 2.96 8.06 4.14 8.05 2.66 8.06.22 8.06 1.57 8.06.17 8.05-3.92 8.06-3.64 8.06-.54 8.05-13.55 8.06-8.2 8.06-7.62 8.06-8.73 8.05-.48 8.06-4.52 8.06-3.84 8.05-5.88 8.06-7.15 8.06-8.6 8.06-5.93 8.05 4.32 8.06 3.74 8.06 3.69 8.05 3.17 8.06 2.42 8.06.13 8.06.68 8.05 3.5 8.06 2.97 8.06.75 8.05 1.56 8.06-2.47 8.06 2.84 8.06 1.18 8.05-1.53 8.06 5.77 8.06 3.74 8.05-.41 8.06-3.06 8.06 2.48 8.06.51 8.05 1.21 8.06-.47 8.06.57 8.06-4.72 8.05.15 8.06 1.73 8.06-4.33 8.05-2.49 8.06.3 8.06-5.99 8.06-6.78 8.05-3.21 8.06-3.1 8.06-4.84 8.05-4.3 8.06-6.08 8.06-3.2 8.06-1.9 8.05 1.69 8.06-4.12 8.06-.37 8.05-1.12 8.06-3.64 8.06-3.78 8.06-1.89 8.05-1.91 8.06-8.15"/><use xlink:href="#b" color="#9F650D" transform="matrix(9 0 0 9 72.51 339.25)"/><use xlink:href="#b" color="#9F650D" transform="matrix(9 0 0 9 32.33 124.01)"/></g><text stroke-linecap="round" stroke-linejoin="round" stroke-width="2" color="#000" font-family="Arial" font-size="16" transform="translate(258.63 93.21)"><tspan>HalfSize</tspan></text><g fill="none" stroke="currentColor" stroke-linecap="round" stroke-linejoin="round" stroke-width="2" color="#000"><path stroke="#F44336" d="M193.63 88.01h53.8M0 373.59l8.06 11.14 8.05-6.37 8.06-31.39 8.06-17.79 8.06-25.04 8.05 12.71 8.06 7.25 8.06 4.24 8.05 7.93 8.06 2.49 8.06.3 8.06-5.84 8.05-17.72 8.06-15.22 8.06-7.5 8.05-9.85 8.06-11.08 8.06-13.96 8.06 9.43 8.05 3.51 8.06 2.21 8.06 4.55 8.06 5.21 8.05-1.2 8.06 3.42 8.06 4.45 8.05 2.72 8.06.2 8.06 1 8.06.8 8.05-4.43 8.06-2.93 8.06-2.04 8.05-13.75 8.06-5.36 8.06-9.95 8.06-8.65 8.05-.3 8.06-5.29 8.06-1.12 8.05-4.18 8.06-5.06 8.06-8.58 8.06-5.19 8.05 4.81 8.06 1.84 8.06 4.92 8.05 1.1 8.06 3.18 8.06-1 8.06 1.12 8.05 1.79 8.06 4.01 8.06 2.3 8.05 1.31 8.06-2.32 8.06 2.3 8.06 1.44 8.05-.54 8.06 4.53 8.06 3.98 8.05-1.61 8.06-2.35 8.06.48 8.06 2.15 8.05.6 8.06.09 8.06.44 8.06-3.71 8.05.26 8.06.66 8.06-4.2 8.05-.85 8.06-.88 8.06-5.86 8.06-8.07 8.05-2.41 8.06-2.99 8.06-4.46 8.05-4.69 8.06-6.27 8.06-2.23 8.06-1.81 8.05.93 8.06-3.17 8.06-1.92 8.05-.82 8.06-2.73 8.06-5.09 8.06-.74 8.05-.94 8.06-4.53"/><use xlink:href="#f" color="#F44336" transform="matrix(9 0 0 9 201.43 285.02)"/><use xlink:href="#f" color="#F44336" transform="matrix(9 0 0 9 220.53 88.01)"/></g><text stroke-linecap="round" stroke-linejoin="round" stroke-width="2" color="#000" font-family="Arial" font-size="16" transform="translate(258.63 129.21)"><tspan>LogSize</tspan></text><g fill="none" stroke="currentColor" stroke-linecap="round" stroke-linejoin="round" stroke-width="2" color="#000"><path stroke="#FFAB00" d="M193.63 124.01h53.8M0 375.88l8.06 12.05 8.05-7.74 8.06-29.54 8.06-18.56 8.06-24.79 8.05 11.68 8.06 7.96 8.06 3.57 8.05 8.69 8.06 4.38 8.06-.25 8.06-8.1 8.05-15.18 8.06-15.9 8.06-8.14 8.05-9.68 8.06-11.39 8.06-14.54 8.06 8.42 8.05 4.06 8.06 4.55 8.06 4.15 8.06 5.14 8.05-2.13 8.06 4.57 8.06 3.96 8.05 1.68 8.06 1.52 8.06.84 8.06.81 8.05-3.49 8.06-4.63 8.06-1.15 8.05-14.2 8.06-5.18 8.06-9.24 8.06-8.09 8.05-.93 8.06-5.58 8.06-3.68 8.05-5.11 8.06-6.4 8.06-9.06 8.06-6.89 8.05 5.62 8.06 3.56 8.06 2.27 8.05-3.02 8.06 5.45 8.06-1.23 8.06 2.18 8.05 2.55 8.06 3.54 8.06 1.35 8.05 1.12 8.06-2.5 8.06 2.75 8.06 1.3 8.05-1.23 8.06 5.2 8.06 3.94 8.05-1.06 8.06-2.24 8.06 3.13 8.06-.28 8.05 1.07 8.06-.82 8.06.65 8.06-4.18 8.05.22 8.06 1.66 8.06-4.3 8.05-1.93 8.06.83 8.06-7.78 8.06-6.89 8.05-2.81 8.06-2.76 8.06-4.69 8.05-4.9 8.06-5.86 8.06-2.95 8.06-1.72 8.05 1.24 8.06-2.99 8.06-2.2 8.05-1.38 8.06-2.48 8.06-4.97 8.06-.69 8.05-1.15 8.06-4.61"/><use xlink:href="#a" color="#FFAB00" transform="matrix(9 0 0 9 330.34 236.69)"/><use xlink:href="#a" color="#FFAB00" transform="matrix(9 0 0 9 220.53 124.01)"/></g><text stroke-linecap="round" stroke-linejoin="round" stroke-width="2" color="#000" font-family="Arial" font-size="16" transform="translate(446.83 93.21)"><tspan>HalfWeight</tspan></text><g fill="none" stroke="currentColor" stroke-linecap="round" stroke-linejoin="round" stroke-width="2" color="#000"><path stroke="#304FFE" d="M381.83 88.01h53.8M0 379.72l8.06 5.27 8.05-3.3 8.06-13.52 8.06-.74 8.06-12.34 8.05-2.54 8.06-9.39 8.06-9.47 8.05 2.48 8.06 4.79 8.06-1.53 8.06-3.83 8.05-5.21 8.06-7.2 8.06-.67 8.05-1.77 8.06-2.98 8.06-9.48 8.06 2.73 8.05-4.39 8.06-9.36 8.06.67 8.06-2.26 8.05-8.21 8.06-2.93 8.06 5.72 8.05 3.47 8.06-.09 8.06 1.23 8.06-.07 8.05-5.07 8.06 1.49 8.06 2.65 8.05-9.75 8.06-1.36 8.06-4.72 8.06-4.32 8.05 3.23 8.06-1.99 8.06.21 8.05-2.41 8.06-1.03 8.06-6.25 8.06-3.55 8.05 1.7 8.06 1.8 8.06-4.49 8.05-.9 8.06-5 8.06-4.29 8.06 1.88 8.05.39 8.06-1.62 8.06-1.53 8.05-.93 8.06-6.42 8.06 1.87 8.06 1.09 8.05-.53 8.06 4.72 8.06 3.58 8.05-.6 8.06-3.28 8.06 1.96 8.06.7 8.05 1.06 8.06.26 8.06-.5 8.06-4.36 8.05.1 8.06 1.56 8.06-.66 8.05 1.31 8.06 2.02 8.06-3.97 8.06-5.37 8.05-.22 8.06-.59 8.06-2.43 8.05-2.01 8.06-4.65 8.06-.64 8.06.08 8.05 3.16 8.06-2.69 8.06 1.36 8.05 1.13 8.06-1.45 8.06-2.96 8.06.69 8.05 1.25 8.06-3.42"/><use xlink:href="#g" color="#304FFE" transform="matrix(9 0 0 9 459.26 244.39)"/><use xlink:href="#g" color="#304FFE" transform="matrix(9 0 0 9 408.73 88.01)"/></g><text stroke-linecap="round" stroke-linejoin="round" stroke-width="2" color="#000" font-family="Arial" font-size="16" transform="translate(446.83 129.21)"><tspan>LogWeight</tspan></text><g fill="none" stroke="currentColor" stroke-linecap="round" stroke-linejoin="round" stroke-width="2" color="#000"><path stroke="#29C3F6" d="M381.83 124.01h53.8M0 381.22l8.06 5.33 8.05-2.73 8.06-11.18 8.06-1.23 8.06-12.79 8.05-1.62 8.06-9.07 8.06-11.26 8.05 3.16 8.06 3.61 8.06-2.03 8.06-2.51 8.05-4.24 8.06-6.64 8.06-1.18 8.05-2.03 8.06-3.41 8.06-8.08 8.06 2.33 8.05-3.66 8.06-10.14 8.06-.14 8.06-2.54 8.05-8.67 8.06-.92 8.06 2.69 8.05 3.13 8.06.77 8.06 1.56 8.06-.6 8.05-3.75 8.06-.05 8.06 4.42 8.05-8.75 8.06-2.84 8.06-6.01 8.06-3.1 8.05 3.55 8.06-1.4 8.06-.1 8.05-2.64 8.06-1.9 8.06-5.72 8.06-2.76 8.05 1.5 8.06 1.33 8.06-4.64 8.05.84 8.06-6.03 8.06-4.2 8.06 2.76 8.05-2.31 8.06-.29 8.06-1.77 8.05-1.59 8.06-6.61 8.06-.99 8.06-.28 8.05-.04 8.06 3.44 8.06 4.56 8.05-1.19 8.06-2.79 8.06 3.36 8.06-.1 8.05 1.31 8.06-.89 8.06.14 8.06-3.42 8.05.52 8.06 1.5 8.06-2.04 8.05 1.49 8.06 2.7 8.06-4.38 8.06-5.1 8.05-.13 8.06-1.38 8.06-1.88 8.05-2.46 8.06-4.31 8.06-.88 8.06.56 8.05 2.88 8.06-1.31 8.06.06 8.05 1.04 8.06-1.61 8.06-3.01 8.06.12 8.05 2.54 8.06-3.47"/><use xlink:href="#d" color="#29C3F6" transform="matrix(9 0 0 9 588.17 249.65)"/><use xlink:href="#d" color="#29C3F6" transform="matrix(9 0 0 9 408.73 124.01)"/></g><text stroke-linecap="round" stroke-linejoin="round" stroke-width="2" color="#000" font-family="Arial" font-size="16" transform="translate(635.03 93.21)"><tspan>Cost</tspan></text><g fill="none" stroke="currentColor" stroke-linecap="round" stroke-linejoin="round" stroke-width="2" color="#000"><path stroke="#4CAF50" d="M570.03 88.01h53.8M0 401l8.06 9 8.05-6.68 8.06-26.57 8.06-16.77 8.06-21.85 8.05 12.36 8.06 3.38 8.06 4.14 8.05 6.19 8.06 1 8.06-.7 8.06-7.74 8.05-13.85 8.06-11.74 8.06-7.94 8.05-9.21 8.06-9.91 8.06-13.81 8.06 9.46 8.05 5.13 8.06 1.97 8.06 3.54 8.06 3.1 8.05-.81 8.06 2.71 8.06 3.79 8.05 1.85 8.06-.57 8.06.14 8.06-.09 8.05-4.93 8.06-2.29 8.06-1.62 8.05-12.71 8.06-6.23 8.06-6.51 8.06-9.66 8.05 1.05 8.06-5.38 8.06-4.03 8.05-5.82 8.06-3.24 8.06-7.89 8.06-5.25 8.05 4.9 8.06 3.59 8.06 2.7 8.05 2.63 8.06 2.32 8.06-1.19 8.06 1.41 8.05 2.03 8.06 3.2 8.06.58 8.05 1.56 8.06-2.28 8.06 1.48 8.06.65 8.05-.54 8.06 4.54 8.06 4.04 8.05-1.85 8.06-2.85 8.06 3.1 8.06-1.03 8.05 1.53 8.06-1.34 8.06-.09 8.06-4.17 8.05-.23 8.06-.68 8.06-2.31 8.05-1.21 8.06-.14 8.06-7.86 8.06-4.8 8.05-3.56 8.06-2.6 8.06-3.65 8.05-3.39 8.06-6.99 8.06-1.82 8.06-.42 8.05 1.43 8.06-3.09 8.06-2.7 8.05-1.34 8.06-3.01 8.06-4.95 8.06-1.29 8.05.51 8.06-3.36"/><use xlink:href="#h" color="#4CAF50" transform="matrix(9 0 0 9 717.09 217.61)"/><use xlink:href="#h" color="#4CAF50" transform="matrix(9 0 0 9 596.93 88.01)"/></g><path fill="none" d="M0 180.01V410m741.26-229.99H0" color="#000"/><text stroke-linecap="round" stroke-linejoin="round" stroke-width="0" color="#000" font-family="Arial" font-size="24" text-anchor="middle" transform="translate(370.63 34.81)"><tspan font-weight="bold">Duration </tspan><tspan> / Size</tspan></text></svg>