<svg xmlns="http://www.w3.org/2000/svg" xmlns:xlink="http://www.w3.org/1999/xlink" viewBox="0 0 400 250"><path fill="none" d="M0 0h400v250H0z"/><defs><use xlink:href="#b" id="h" fill="currentColor" stroke="none"/><use xlink:href="#b" id="c" stroke="currentColor" transform="rotate(180)"/><use xlink:href="#d" id="e" stroke="currentColor" transform="rotate(45)"/><use xlink:href="#e" id="g" fill="currentColor" stroke="none"/><path id="d" stroke="currentColor" stroke-width=".267" d="M-1-1h2v2h-2z"/><path id="b" stroke="currentColor" stroke-width=".267" d="m0-1.33-1.33 2h2.66z"/><path id="f" stroke="currentColor" stroke-width=".267" d="M0 1.33 1.265.411.782-1.067l-1.564-.009-.483 1.487z"/><circle id="a" cx="0" cy="0" r="1" stroke="currentColor" stroke-width=".267"/></defs><path fill="none" stroke="#000" stroke-linecap="round" stroke-linejoin="round" stroke-width=".1" d="M35.48 205V45.01" class="gridline" color="#000"/><g fill="none" stroke="none" stroke-linecap="round" stroke-linejoin="round" stroke-width="0" color="#000"><path d="M35.48 205v-7.5m0-152.49v7.5"/><text fill="#000" font-family="KaTeX_Main" font-size="10" text-anchor="middle" transform="translate(35.48 215.75)"><tspan> 1</tspan></text></g><path fill="none" stroke="#000" stroke-linecap="round" stroke-linejoin="round" stroke-width=".1" d="M72.87 205V45.01" class="gridline" color="#000"/><g fill="none" stroke="none" stroke-linecap="round" stroke-linejoin="round" stroke-width="0" color="#000"><path d="M72.87 205v-7.5m0-152.49v7.5"/><text fill="#000" font-family="KaTeX_Main" font-size="10" text-anchor="middle" transform="translate(72.87 215.75)"><tspan> 2</tspan></text></g><path fill="none" stroke="#000" stroke-linecap="round" stroke-linejoin="round" stroke-width=".1" d="M110.26 205V45.01" class="gridline" color="#000"/><g fill="none" stroke="none" stroke-linecap="round" stroke-linejoin="round" stroke-width="0" color="#000"><path d="M110.26 205v-7.5m0-152.49v7.5"/><text fill="#000" font-family="KaTeX_Main" font-size="10" text-anchor="middle" transform="translate(110.26 215.75)"><tspan> 3</tspan></text></g><path fill="none" stroke="#000" stroke-linecap="round" stroke-linejoin="round" stroke-width=".1" d="M147.65 205V45.01" class="gridline" color="#000"/><g fill="none" stroke="none" stroke-linecap="round" stroke-linejoin="round" stroke-width="0" color="#000"><path d="M147.65 205v-7.5m0-152.49v7.5"/><text fill="#000" font-family="KaTeX_Main" font-size="10" text-anchor="middle" transform="translate(147.65 215.75)"><tspan> 4</tspan></text></g><path fill="none" stroke="#000" stroke-linecap="round" stroke-linejoin="round" stroke-width=".1" d="M185.04 205V45.01" class="gridline" color="#000"/><g fill="none" stroke="none" stroke-linecap="round" stroke-linejoin="round" stroke-width="0" color="#000"><path d="M185.04 205v-7.5m0-152.49v7.5"/><text fill="#000" font-family="KaTeX_Main" font-size="10" text-anchor="middle" transform="translate(185.04 215.75)"><tspan> 5</tspan></text></g><path fill="none" stroke="#000" stroke-linecap="round" stroke-linejoin="round" stroke-width=".1" d="M222.43 205V45.01" class="gridline" color="#000"/><g fill="none" stroke="none" stroke-linecap="round" stroke-linejoin="round" stroke-width="0" color="#000"><path d="M222.43 205v-7.5m0-152.49v7.5"/><text fill="#000" font-family="KaTeX_Main" font-size="10" text-anchor="middle" transform="translate(222.43 215.75)"><tspan> 6</tspan></text></g><path fill="none" stroke="#000" stroke-linecap="round" stroke-linejoin="round" stroke-width=".1" d="M259.82 205V45.01" class="gridline" color="#000"/><g fill="none" stroke="none" stroke-linecap="round" stroke-linejoin="round" stroke-width="0" color="#000"><path d="M259.82 205v-7.5m0-152.49v7.5"/><text fill="#000" font-family="KaTeX_Main" font-size="10" text-anchor="middle" transform="translate(259.82 215.75)"><tspan> 7</tspan></text></g><path fill="none" stroke="#000" stroke-linecap="round" stroke-linejoin="round" stroke-width=".1" d="M297.21 205V45.01" class="gridline" color="#000"/><g fill="none" stroke="none" stroke-linecap="round" stroke-linejoin="round" stroke-width="0" color="#000"><path d="M297.21 205v-7.5m0-152.49v7.5"/><text fill="#000" font-family="KaTeX_Main" font-size="10" text-anchor="middle" transform="translate(297.21 215.75)"><tspan> 8</tspan></text></g><path fill="none" stroke="#000" stroke-linecap="round" stroke-linejoin="round" stroke-width=".1" d="M334.6 205V45.01" class="gridline" color="#000"/><g fill="none" stroke="none" stroke-linecap="round" stroke-linejoin="round" stroke-width="0" color="#000"><path d="M334.6 205v-7.5m0-152.49v7.5"/><text fill="#000" font-family="KaTeX_Main" font-size="10" text-anchor="middle" transform="translate(334.6 215.75)"><tspan> 9</tspan></text></g><path fill="none" stroke="#000" stroke-linecap="round" stroke-linejoin="round" stroke-width=".1" d="M371.99 205V45.01" class="gridline" color="#000"/><g fill="none" stroke="none" stroke-linecap="round" stroke-linejoin="round" stroke-width="0" color="#000"><path d="M371.99 205v-7.5m0-152.49v7.5"/><text fill="#000" font-family="KaTeX_Main" font-size="10" text-anchor="middle" transform="translate(371.99 215.75)"><tspan> 10</tspan></text></g><g fill="none" stroke="none" stroke-linecap="round" stroke-linejoin="round" stroke-width="0" color="#000"><path d="M371.99 205h-7.5"/><text fill="#000" font-family="KaTeX_Main" font-size="10" transform="translate(378.99 208.25)"><tspan>0.50</tspan></text></g><g fill="none" stroke="none" stroke-linecap="round" stroke-linejoin="round" stroke-width="0" color="#000"><path d="M371.99 189h-7.5"/><text fill="#000" font-family="KaTeX_Main" font-size="10" transform="translate(378.99 192.25)"><tspan>0.60</tspan></text></g><g fill="none" stroke="none" stroke-linecap="round" stroke-linejoin="round" stroke-width="0" color="#000"><path d="M371.99 173h-7.5"/><text fill="#000" font-family="KaTeX_Main" font-size="10" transform="translate(378.99 176.25)"><tspan>0.70</tspan></text></g><g fill="none" stroke="none" stroke-linecap="round" stroke-linejoin="round" stroke-width="0" color="#000"><path d="M371.99 157h-7.5"/><text fill="#000" font-family="KaTeX_Main" font-size="10" transform="translate(378.99 160.25)"><tspan>0.80</tspan></text></g><g fill="none" stroke="none" stroke-linecap="round" stroke-linejoin="round" stroke-width="0" color="#000"><path d="M371.99 141h-7.5"/><text fill="#000" font-family="KaTeX_Main" font-size="10" transform="translate(378.99 144.25)"><tspan>0.90</tspan></text></g><g fill="none" stroke="none" stroke-linecap="round" stroke-linejoin="round" stroke-width="0" color="#000"><path d="M371.99 125.01h-7.5"/><text fill="#000" font-family="KaTeX_Main" font-size="10" transform="translate(378.99 128.26)"><tspan>1.00</tspan></text></g><g fill="none" stroke="none" stroke-linecap="round" stroke-linejoin="round" stroke-width="0" color="#000"><path d="M371.99 109.01h-7.5"/><text fill="#000" font-family="KaTeX_Main" font-size="10" transform="translate(378.99 112.26)"><tspan>1.10</tspan></text></g><g fill="none" stroke="none" stroke-linecap="round" stroke-linejoin="round" stroke-width="0" color="#000"><path d="M371.99 93.01h-7.5"/><text fill="#000" font-family="KaTeX_Main" font-size="10" transform="translate(378.99 96.26)"><tspan>1.20</tspan></text></g><g fill="none" stroke="none" stroke-linecap="round" stroke-linejoin="round" stroke-width="0" color="#000"><path d="M371.99 77.01h-7.5"/><text fill="#000" font-family="KaTeX_Main" font-size="10" transform="translate(378.99 80.26)"><tspan>1.30</tspan></text></g><g fill="none" stroke="none" stroke-linecap="round" stroke-linejoin="round" stroke-width="0" color="#000"><path d="M371.99 61.01h-7.5"/><text fill="#000" font-family="KaTeX_Main" font-size="10" transform="translate(378.99 64.26)"><tspan>1.40</tspan></text></g><g fill="none" stroke="none" stroke-linecap="round" stroke-linejoin="round" stroke-width="0" color="#000"><path d="M371.99 45.01h-7.5"/><text fill="#000" font-family="KaTeX_Main" font-size="10" transform="translate(378.99 48.26)"><tspan>1.50</tspan></text></g><path fill="none" stroke="none" stroke-linecap="round" stroke-linejoin="round" stroke-width="0" d="M28 45.01V205M371.99 45.01H28" color="#000"/><text fill="#000" stroke="none" stroke-linecap="round" stroke-linejoin="round" stroke-width="0" color="#000" font-family="KaTeX_Main" font-size="10" text-anchor="middle" transform="rotate(-90 68.255 56.755)"><tspan font-weight="bold">Allocations </tspan><tspan> / log</tspan><tspan dy="3" font-size="8">2</tspan><tspan dy="-3">(Size)</tspan></text><text fill="#000" stroke="none" stroke-linecap="round" stroke-linejoin="round" stroke-width="0" color="#000" font-family="KaTeX_Main" font-size="10" text-anchor="middle" transform="translate(199.99 238.25)"><tspan>Operations × 10</tspan><tspan dy="-5" font-size="8">5</tspan></text><text fill="#000" stroke="none" stroke-linecap="round" stroke-linejoin="round" color="#000" font-family="KaTeX_Main" font-size="8" transform="translate(132.8 10.11)"><tspan>LBSTBottomUp</tspan></text><g fill="none" stroke="currentColor" stroke-linecap="round" stroke-linejoin="round" color="#000"><path stroke="#3B75EA" d="M97.3 7.51h29.9M28 95.08l.37.15.38.24.37.34.38.46.37.58.37.69.38.83.37.97.38 1.1.37 1.24.37 1.38.38 1.51.37 1.64.37 1.77.38 1.87.37 1.98.38 2.06.37 2.13.37 2.18.38 2.21.37 2.21.38 2.21.37 2.17.37 2.12.38 2.05.37 1.97.38 1.87.37 1.77.37 1.64.38 1.52.37 1.4.37 1.26.38 1.14.37 1.01.38.89.37.78.37.66.38.55.37.46.38.37.37.27.37.2.38.12.37.05.38-.01.37-.08.37-.13.38-.19.37-.25.38-.31.37-.36.37-.42.38-.48.37-.53.37-.61.38-.66.37-.74.38-.8.37-.87.37-.95.38-1.02.37-1.09.38-1.16.37-1.23.37-1.29.38-1.35.37-1.4.38-1.45.37-1.49.37-1.52.38-1.54.37-1.56.37-1.56.38-1.55.37-1.54.38-1.52.37-1.48.37-1.45.38-1.41.37-1.35.38-1.29.37-1.24.37-1.17.38-1.11.37-1.04.38-.97.37-.9.37-.82.38-.76.37-.68.38-.62.37-.54.37-.47.38-.41.37-.33.37-.26.38-.19.37-.12.38-.04.37.03.37.11.38.18.37.27.38.35.37.43.37.52.38.61.37.69.38.78.37.87.37.95.38 1.03.37 1.12.37 1.19.38 1.26.37 1.33.38 1.39.37 1.43.37 1.48.38 1.52.37 1.54.38 1.55.37 1.57.37 1.56.38 1.55.37 1.53.38 1.5.37 1.47.37 1.43.38 1.37.37 1.32.38 1.26.37 1.19.37 1.12.38 1.05.37.98.37.89.38.81.37.74.38.65.37.57.37.48.38.4.37.31.38.23.37.15.37.06.38-.01.37-.11.38-.18.37-.26.37-.35.38-.42.37-.5.37-.58.38-.65.37-.73.38-.8.37-.86.37-.93.38-.99.37-1.05.38-1.11.37-1.15.37-1.2.38-1.24.37-1.27.38-1.3.37-1.33.37-1.34.38-1.35.37-1.35.38-1.35.37-1.34.37-1.33.38-1.31.37-1.28.37-1.25.38-1.22.37-1.17.38-1.13.37-1.08.37-1.02.38-.97.37-.91.38-.85.37-.79.37-.72.38-.66.37-.58.38-.52.37-.44.37-.38.38-.3.37-.23.37-.16.38-.08h.37l.38.07.37.14.37.22.38.29.37.37.38.44.37.51.37.59.38.65.37.72.38.79.37.84.37.91.38.96.37 1.02.38 1.06.37 1.1.37 1.14.38 1.17.37 1.19.37 1.22.38 1.23.37 1.24.38 1.24.37 1.24.37 1.23.38 1.21.37 1.2.38 1.17.37 1.13.37 1.11.38 1.07.37 1.02.38.98.37.93.37.88.38.82.37.77.37.71.38.65.37.59.38.52.37.46.37.39.38.33.37.26.38.19.37.13.37.05.38-.01.37-.09.38-.15.37-.23.37-.29.38-.37.37-.43.38-.51.37-.57.37-.63.38-.7.37-.76.37-.82.38-.88.37-.93.38-.98.37-1.03.37-1.06.38-1.11.37-1.14.38-1.16.37-1.19.37-1.2.38-1.22.37-1.22.38-1.22.37-1.21.37-1.21.38-1.19.37-1.17.37-1.14.38-1.12.37-1.08.38-1.04.37-1 .37-.95.38-.9.37-.85.38-.79.37-.73.37-.68.38-.6.37-.55.38-.47.37-.41.37-.33.38-.26.37-.19.38-.11.37-.03.37.04.38.12.37.2.37.27.38.35.37.43.38.51.37.58.37.65.38.73.37.79.38.86.37.92.37.98.38 1.03.37 1.08.38 1.13.37 1.16.37 1.2.38 1.22.37 1.25.37 1.26.38 1.27.37 1.26.38 1.27.37 1.26.37 1.23.38 1.22.37 1.19.38 1.16.37 1.12.37 1.07.38 1.03.37.99.38.93.37.87.37.82.38.76.37.69.38.64.37.57.37.51.38.44.37.38.37.31.38.25.37.19.38.12.37.06h.37l.38-.07.37-.13.38-.18.37-.25.37-.3.38-.37.37-.42.38-.47.37-.53.37-.58.38-.64.37-.68.37-.73.38-.77.37-.82.38-.86.37-.89.37-.93.38-.96.37-.98.38-1.01.37-1.03.37-1.04.38-1.06.37-1.06.38-1.06.37-1.06.37-1.06.38-1.04.37-1.03.38-1.02.37-.98.37-.97.38-.93.37-.89.37-.86.38-.82.37-.77.38-.73.37-.68.37-.62.38-.58.37-.51.38-.46.37-.39.37-.34.38-.27.37-.21.38-.14.37-.08.37-.01.38.05.37.13.37.19.38.26.37.33.38.4.37.46.37.53.38.59.37.66.38.72.37.77.37.83.38.89.37.93.38.98.37 1.02.37 1.05.38 1.09.37 1.11.38 1.14.37 1.15.37 1.16.38 1.17.37 1.16.37 1.16.38 1.14.37 1.13.38 1.1.37 1.07.37 1.04.38 1 .37.96.38.91.37.85.37.81.38.74.37.69.38.62.37.56.37.5.38.42.37.36.37.29.38.22.37.14.38.08.37.01.37-.06.38-.14.37-.2.38-.27.37-.33.37-.41.38-.47.37-.53.38-.59.37-.66.37-.71.38-.77.37-.83.38-.87.37-.92.37-.97.38-1.01.37-1.05.37-1.08.38-1.11.37-1.14.38-1.15.37-1.18.37-1.18.38-1.19.37-1.19.38-1.19.37-1.18.37-1.17.38-1.15.37-1.12.38-1.1.37-1.07.37-1.03.38-.99.37-.95.37-.91.38-.85.37-.81.38-.75.37-.69.37-.64.38-.57.37-.52.38-.45.37-.39.37-.32.38-.26.37-.19.38-.12.37-.06.37.01.38.07.37.15.37.21.38.28.37.35.38.42.37.48.37.55.38.61.37.68.38.73.37.79.37.85.38.91.37.95.38 1 .37 1.05.37 1.08.38 1.11.37 1.15.38 1.17.37 1.19.37 1.2.38 1.2.37 1.21.37 1.21.38 1.2.37 1.18.38 1.16.37 1.14.37 1.1.38 1.07.37 1.03.38.98.37.94.37.88.38.83.37.77.38.71.37.64.37.58.38.51.37.45.37.37.38.3.37.23.38.16.37.09.37.02.38-.06.37-.13.38-.2.37-.27.37-.34.38-.41.37-.48.38-.54.37-.61.37-.68.38-.73.37-.8.38-.85.37-.9.37-.96.38-1 .37-1.05.37-1.09.38-1.12.37-1.15.38-1.18.37-1.2.37-1.22.38-1.23.37-1.23.38-1.24.37-1.23.37-1.22.38-1.2.37-1.19.38-1.16.37-1.14.37-1.1.38-1.07.37-1.02.37-.98.38-.92.37-.88.38-.83.37-.76.37-.71.38-.64.37-.58.38-.52.37-.44.37-.38.38-.3.37-.23.38-.15.37-.08h.37l.38.08.37.16.38.24.37.33.37.4.38.49.37.57.37.65.38.73.37.8.38.88.37.95.37 1.02.38 1.09.37 1.14.38 1.2.37 1.24.37 1.29.38 1.33.37 1.35.38 1.38.37 1.39.37 1.4.38 1.4.37 1.39.37 1.37.38 1.35.37 1.33.38 1.28.37 1.25.37 1.2.38 1.15.37 1.09.38 1.04.37.97.37.91.38.84.37.77.38.69.37.63.37.56.38.49.37.41.38.34.37.27.37.21.38.13.37.06.37-.01.38-.08.37-.14.38-.22.37-.28.37-.35.38-.42.37-.49.38-.55.37-.62.37-.69.38-.75.37-.82.38-.88.37-.94.37-1 .38-1.06.37-1.1.37-1.16.38-1.2.37-1.24.38-1.27.37-1.3.37-1.33.38-1.34.37-1.35.38-1.35.37-1.35.37-1.34.38-1.32.37-1.3.38-1.27.37-1.23.37-1.2.38-1.15.37-1.09.38-1.05.37-.98.37-.93.38-.86.37-.8.37-.73.38-.66.37-.59.38-.52.37-.45.37-.38.38-.31.37-.24.38-.16.37-.1.37-.02.38.06.37.13.38.2.37.28.37.35.38.44.37.51.37.59.38.67.37.75.38.83.37.91.37.98.38 1.05.37 1.13.38 1.19.37 1.25.37 1.31.38 1.36.37 1.4.38 1.44.37 1.46.37 1.49.38 1.49.37 1.49.38 1.49.37 1.47.37 1.45.38 1.42.37 1.38.37 1.33.38 1.28.37 1.22.38 1.16.37 1.09.37 1.02.38.95.37.88.38.8.37.73.37.65.38.57.37.49.38.42.37.35.37.27.38.19.37.12.37.04.38-.03.37-.1.38-.18.37-.26.37-.33.38-.41.37-.5.38-.57.37-.66.37-.74.38-.82.37-.91.38-.99.37-1.08.37-1.16.38-1.23.37-1.32.38-1.38.37-1.45.37-1.5.38-1.56.37-1.59.37-1.63.38-1.65.37-1.67.38-1.66.37-1.65.37-1.63.38-1.6.37-1.55.38-1.51.37-1.44.37-1.38.38-1.3.37-1.22.38-1.14.37-1.06.37-.97.38-.88.37-.79.37-.71.38-.62.37-.54.38-.46.37-.37.37-.3.38-.23.37-.14.38-.07.37.01.37.09.38.18.37.26.38.36.37.44.37.55.38.65.37.76.38.87.37.99.37 1.1.38 1.22.37 1.34.37 1.46.38 1.56.37 1.67.38 1.76.37 1.85.37 1.92.38 1.97.37 2 .38 2.03.37 2.03.37 2 .38 1.97.37 1.9.38 1.83.37 1.74.37 1.62.38 1.51.37 1.38.37 1.25.38 1.11.37.98.38.84.37.72.37.6.38.49.37.39.38.31.37.24.37.19.38.14.37.12.38.1.37.09.37.08.38.1.37.1.38.11.37.11.37.1.38.1.37.07.37.04h.38l.37-.06.38-.14.37-.22.37-.31.38-.42.37-.54.38-.65.37-.79.37-.92.38-1.06.37-1.19.38-1.33.37-1.46.37-1.58.38-1.68.37-1.77.37-1.83.38-1.87.37-1.88.38-1.85.37-1.82.37-1.74.38-1.66.37-1.56.38-1.47.37-1.36.37-1.28.38-1.2.37-1.14.38-1.11.37-1.08.37-1.07.38-1.06.37-1.06.38-1.05.37-1.04.37-.99.38-.94.37-.84.37-.73.38-.57.37-.4.38-.2.37.01.37.21.38.39.37.53.38.6.37.6.37.52.38.38.37.17.38-.04.37-.25.37-.44.38-.56.37-.65.37-.69.38-.71.37-.73.38-.78.37-.86.37-1 .38-1.17.37-1.36.38-1.44.37-1.13"/><use xlink:href="#a" color="#3B75EA" transform="matrix(3.75 0 0 3.75 342.45 145.71)"/><use xlink:href="#a" color="#3B75EA" transform="matrix(3.75 0 0 3.75 112.25 7.51)"/></g><text fill="#000" stroke="none" stroke-linecap="round" stroke-linejoin="round" color="#000" font-family="KaTeX_Main" font-size="8" transform="translate(132.8 25.11)"><tspan>LBSTRelaxed</tspan></text><g fill="none" stroke="currentColor" stroke-linecap="round" stroke-linejoin="round" color="#000"><path stroke="violet" stroke-dasharray="4.5,2.0,0.5,2.0,0.5,2.0" d="M97.3 22.51h29.9M28 83.14l.37.01.38.19.37.41.38.66.37.94.37 1.25.38 1.57.37 1.92.38 2.26.37 2.62.37 2.97.38 3.31.37 3.64.37 3.94.38 4.21.37 4.45.38 4.64.37 4.8.37 4.91.38 4.95.37 4.97.38 4.92.37 4.83.37 4.7.38 4.53.37 4.33.38 4.09.37 3.84.37 3.57.38 3.29.37 3.01.37 2.73.38 2.46.37 2.19.38 1.93.37 1.7.37 1.48.38 1.26.37 1.07.38.89.37.72.37.57.38.42.37.27.38.14.37.01.37-.13.38-.27.37-.41.38-.55.37-.7.37-.87.38-1.05.37-1.22.37-1.42.38-1.61.37-1.83.38-2.05.37-2.27.37-2.51.38-2.73.37-2.95.38-3.18.37-3.39.37-3.59.38-3.78.37-3.94.38-4.09.37-4.2.37-4.3.38-4.36.37-4.4.37-4.4.38-4.37.37-4.32.38-4.24.37-4.13.37-4 .38-3.84.37-3.67.38-3.47.37-3.28.37-3.06.38-2.83.37-2.61.38-2.38.37-2.15.37-1.91.38-1.69.37-1.45.38-1.24.37-1.01.37-.8.38-.58.37-.37.37-.16.38.05.37.26.38.47.37.68.37.9.38 1.12.37 1.33.38 1.56.37 1.78.37 2 .38 2.22.37 2.43.38 2.65.37 2.85.37 3.03.38 3.22.37 3.39.37 3.53.38 3.66.37 3.77.38 3.85.37 3.91.37 3.94.38 3.96.37 3.94.38 3.9.37 3.84.37 3.76.38 3.65.37 3.52.38 3.39.37 3.24.37 3.07.38 2.9.37 2.71.38 2.53.37 2.34.37 2.15.38 1.97.37 1.77.37 1.59.38 1.41.37 1.23.38 1.06.37.89.37.72.38.56.37.39.38.24.37.07.37-.09.38-.25.37-.41.38-.59.37-.76.37-.93.38-1.11.37-1.3.37-1.49.38-1.67.37-1.87.38-2.05.37-2.25.37-2.43.38-2.62.37-2.8.38-2.96.37-3.12.37-3.26.38-3.4.37-3.51.38-3.61.37-3.7.37-3.75.38-3.78.37-3.81.38-3.8.37-3.77.37-3.72.38-3.65.37-3.57.37-3.45.38-3.32.37-3.17.38-3.01.37-2.84.37-2.65.38-2.45.37-2.25.38-2.03.37-1.81.37-1.59.38-1.37.37-1.14.38-.92.37-.69.37-.48.38-.25.37-.05.37.17.38.36.37.57.38.76.37.95.37 1.13.38 1.31.37 1.48.38 1.65.37 1.81.37 1.96.38 2.11.37 2.26.38 2.38.37 2.51.37 2.63.38 2.74.37 2.84.38 2.92.37 3 .37 3.07.38 3.12.37 3.16.37 3.18.38 3.2.37 3.2.38 3.18.37 3.15.37 3.11.38 3.06.37 2.99.38 2.91.37 2.82.37 2.72.38 2.61.37 2.5.38 2.37.37 2.24.37 2.1.38 1.96.37 1.82.37 1.67.38 1.52.37 1.36.38 1.21.37 1.06.37.9.38.74.37.58.38.42.37.27.37.1.38-.06.37-.23.38-.39.37-.56.37-.72.38-.89.37-1.05.38-1.23.37-1.39.37-1.55.38-1.71.37-1.88.37-2.02.38-2.18.37-2.31.38-2.46.37-2.57.37-2.7.38-2.8.37-2.89.38-2.97.37-3.05.37-3.09.38-3.14.37-3.16.38-3.17.37-3.16.37-3.14.38-3.11.37-3.05.37-2.99.38-2.9.37-2.82.38-2.71.37-2.59.37-2.46.38-2.33.37-2.18.38-2.02.37-1.85.37-1.69.38-1.51.37-1.32.38-1.14.37-.94.37-.75.38-.54.37-.35.38-.14.37.06.37.26.38.48.37.67.37.88.38 1.08.37 1.28.38 1.47.37 1.66.37 1.84.38 2.02.37 2.18.38 2.34.37 2.5.37 2.62.38 2.76.37 2.86.38 2.97.37 3.05.37 3.12.38 3.18.37 3.22.37 3.24.38 3.25.37 3.24.38 3.22.37 3.18.37 3.12.38 3.06.37 2.98.38 2.89.37 2.78.37 2.67.38 2.54.37 2.41.38 2.27.37 2.12.37 1.97.38 1.81.37 1.65.38 1.48.37 1.31.37 1.15.38.97.37.8.37.63.38.46.37.29.38.11.37-.05.37-.23.38-.39.37-.56.38-.73.37-.9.37-1.05.38-1.22.37-1.38.38-1.54.37-1.69.37-1.84.38-1.98.37-2.13.37-2.26.38-2.39.37-2.52.38-2.63.37-2.74.37-2.83.38-2.91.37-3 .38-3.05.37-3.11.37-3.14.38-3.16.37-3.18.38-3.16.37-3.15.37-3.12.38-3.06.37-3 .38-2.93.37-2.83.37-2.73.38-2.62.37-2.49.37-2.35.38-2.2.37-2.05.38-1.89.37-1.72.37-1.54.38-1.37.37-1.18.38-.99.37-.8.37-.62.38-.42.37-.23.38-.05.37.15.37.33.38.52.37.7.37.88.38 1.06.37 1.22.38 1.39.37 1.56.37 1.71.38 1.86.37 2.01.38 2.14.37 2.28.37 2.39.38 2.51.37 2.61.38 2.7.37 2.79.37 2.86.38 2.92.37 2.97.38 3 .37 3.03.37 3.04.38 3.03.37 3.03.37 2.99.38 2.95.37 2.9.38 2.83.37 2.76.37 2.67.38 2.57.37 2.47.38 2.35.37 2.22.37 2.09.38 1.95.37 1.8.38 1.65.37 1.5.37 1.34.38 1.17.37 1 .37.84.38.66.37.49.38.31.37.14.37-.04.38-.22.37-.39.38-.57.37-.74.37-.92.38-1.09.37-1.26.38-1.42.37-1.59.37-1.75.38-1.89.37-2.05.38-2.18.37-2.32.37-2.44.38-2.56.37-2.66.37-2.75.38-2.84.37-2.91.38-2.96.37-3.01.37-3.04.38-3.06.37-3.06.38-3.04.37-3.03.37-2.98.38-2.93.37-2.87.38-2.78.37-2.7.37-2.59.38-2.49.37-2.36.37-2.23.38-2.09.37-1.94.38-1.8.37-1.63.37-1.47.38-1.3.37-1.13.38-.96.37-.78.37-.6.38-.41.37-.24.38-.05.37.13.37.32.38.5.37.68.37.86.38 1.04.37 1.22.38 1.4.37 1.56.37 1.73.38 1.89.37 2.04.38 2.2.37 2.33.37 2.47.38 2.58.37 2.71.38 2.8.37 2.9.37 2.97.38 3.04.37 3.09.38 3.12.37 3.16.37 3.16.38 3.16.37 3.13.37 3.11.38 3.06.37 3.01.38 2.93.37 2.84.37 2.76.38 2.65.37 2.53.38 2.41.37 2.28.37 2.14.38 2 .37 1.85.38 1.69.37 1.53.37 1.37.38 1.21.37 1.03.37.87.38.7.37.52.38.34.37.17h.37l.38-.19.37-.36.38-.54.37-.72.37-.9.38-1.08.37-1.25.38-1.43.37-1.6.37-1.78.38-1.94.37-2.11.38-2.26.37-2.42.37-2.56.38-2.7.37-2.83.37-2.95.38-3.06.37-3.15.38-3.24.37-3.31.37-3.36.38-3.41.37-3.43.38-3.45.37-3.44.37-3.41.38-3.38.37-3.33.38-3.26.37-3.18.37-3.08.38-2.98.37-2.85.37-2.71.38-2.57.37-2.42.38-2.26.37-2.08.37-1.9.38-1.72.37-1.53.38-1.34.37-1.13.37-.94.38-.74.37-.52.38-.32.37-.12.37.1.38.3.37.51.38.72.37.92.37 1.13.38 1.33.37 1.53.37 1.73.38 1.92.37 2.11.38 2.28.37 2.46.37 2.63.38 2.78.37 2.92.38 3.06.37 3.17.37 3.28.38 3.37.37 3.44.38 3.5.37 3.54.37 3.55.38 3.56.37 3.54.37 3.5.38 3.45.37 3.39.38 3.29.37 3.2.37 3.08.38 2.96.37 2.81.38 2.68.37 2.51.37 2.36.38 2.19.37 2.03.38 1.85.37 1.68.37 1.51.38 1.33.37 1.16.38.99.37.83.37.65.38.48.37.32.37.15.38-.02.37-.18.38-.36.37-.53.37-.7.38-.88.37-1.05.38-1.24.37-1.42.37-1.6.38-1.79.37-1.98.38-2.16.37-2.33.37-2.52.38-2.69.37-2.86.37-3.01.38-3.16.37-3.3.38-3.42.37-3.53.37-3.62.38-3.7.37-3.75.38-3.79.37-3.8.37-3.81.38-3.78.37-3.73.38-3.67.37-3.59.37-3.48.38-3.36.37-3.22.38-3.06.37-2.9.37-2.7.38-2.51.37-2.29.37-2.08.38-1.85.37-1.61.38-1.38.37-1.13.37-.89.38-.64.37-.39.38-.15.37.1.37.34.38.58.37.81.38 1.04.37 1.26.37 1.48.38 1.69.37 1.89.37 2.1.38 2.28.37 2.46.38 2.64.37 2.8.37 2.96.38 3.09.37 3.23.38 3.35.37 3.45.37 3.53.38 3.61.37 3.66.38 3.7.37 3.72.37 3.71.38 3.69.37 3.65.38 3.59.37 3.5.37 3.41.38 3.3.37 3.16.37 3.03.38 2.87.37 2.71.38 2.54.37 2.37.37 2.19.38 2.01.37 1.84.38 1.66.37 1.5.37 1.33.38 1.17.37 1.01.38.86.37.72.37.56.38.43.37.29.37.14.38-.01.37-.15.38-.32.37-.47.37-.65.38-.82.37-1.02.38-1.21.37-1.42.37-1.63.38-1.86.37-2.09.38-2.32.37-2.55.37-2.78.38-3.01.37-3.23.38-3.44.37-3.64.37-3.81.38-3.98.37-4.11.37-4.23.38-4.32.37-4.38.38-4.42.37-4.42.37-4.41.38-4.35.37-4.28.38-4.18.37-4.06.37-3.91.38-3.75.37-3.56.38-3.37.37-3.15.37-2.93.38-2.7.37-2.45.37-2.2.38-1.95.37-1.69.38-1.43.37-1.17.37-.92.38-.65.37-.41.38-.15.37.08.37.32.38.55.37.77.38.98.37 1.19.37 1.4.38 1.6.37 1.81.38 2.02.37 2.23.37 2.45.38 2.67.37 2.91.37 3.16.38 3.41.37 3.66.38 3.91.37 4.16.37 4.39.38 4.61.37 4.79.38 4.94.37 5.05.37 5.12.38 5.12.37 5.09.38 4.98.37 4.84.37 4.63.38 4.39.37 4.11.37 3.79.38 3.47.37 3.11.38 2.77.37 2.44.37 2.11.38 1.81.37 1.53.38 1.3.37 1.08.37.91.38.76.37.65.38.56.37.5.37.44.38.4.37.36.38.32.37.27.37.21.38.13.37.02.37-.11.38-.27.37-.45.38-.67.37-.91.37-1.19.38-1.49.37-1.82.38-2.18.37-2.56.37-2.96.38-3.38.37-3.81.38-4.25.37-4.68.37-5.09.38-5.47.37-5.81.37-6.08.38-6.28.37-6.38.38-6.4.37-6.32.37-6.15.38-5.9.37-5.58.38-5.23.37-4.85.37-4.48.38-4.13.37-3.8.38-3.53.37-3.27.37-3.07.38-2.86.37-2.64.38-2.38.37-2.03.37-1.58.38-.99.37-.27.37.57.38 1.49.37 2.42.38 3.25.37 3.87.37 4.23.38 4.21.37 3.83.38 3.14.37 2.23.37 1.22.38.26.37-.56.38-1.18.37-1.61.37-1.85.38-1.97.37-2.03.37-2.03.38-2 .37-1.97.38-1.91.37-1.83.37-1.77.38-1.74.37-1.88.38-2.22.37-2.47"/><use xlink:href="#g" color="violet" transform="matrix(3.75 0 0 3.75 56.04 125.82)"/><use xlink:href="#g" color="violet" transform="matrix(3.75 0 0 3.75 112.25 22.51)"/></g><text fill="#000" stroke="none" stroke-linecap="round" stroke-linejoin="round" color="#000" font-family="KaTeX_Main" font-size="8" transform="translate(241.1 10.11)"><tspan>WBSTBottomUp</tspan></text><g fill="none" stroke="currentColor" stroke-linecap="round" stroke-linejoin="round" color="#000"><path stroke="#000" d="M205.6 7.51h29.9M28 90.03l.37.59.38.7.37.82.38.95.37 1.07.37 1.19.38 1.33.37 1.45.38 1.58.37 1.7.37 1.83.38 1.95.37 2.05.37 2.15.38 2.24.37 2.3.38 2.36.37 2.4.37 2.4.38 2.4.37 2.38.38 2.32.37 2.26.37 2.17.38 2.06.37 1.96.38 1.83.37 1.7.37 1.57.38 1.43.37 1.29.37 1.16.38 1.04.37.91.38.81.37.69.37.6.38.51.37.42.38.34.37.27.37.2.38.13.37.06h.38l.37-.07.37-.14.38-.21.37-.28.38-.36.37-.43.37-.52.38-.6.37-.69.37-.77.38-.86.37-.95.38-1.04.37-1.12.37-1.21.38-1.29.37-1.36.38-1.44.37-1.5.37-1.56.38-1.61.37-1.65.38-1.68.37-1.7.37-1.72.38-1.72.37-1.71.37-1.69.38-1.68.37-1.63.38-1.6.37-1.55.37-1.49.38-1.43.37-1.38.38-1.3.37-1.23.37-1.17.38-1.09.37-1.01.38-.94.37-.87.37-.79.38-.72.37-.65.38-.57.37-.49.37-.42.38-.35.37-.26.37-.19.38-.11.37-.02.38.07.37.15.37.25.38.35.37.44.38.55.37.65.37.75.38.86.37.96.38 1.06.37 1.16.37 1.26.38 1.35.37 1.43.37 1.5.38 1.56.37 1.62.38 1.67.37 1.69.37 1.71.38 1.72.37 1.71.38 1.69.37 1.66.37 1.61.38 1.57.37 1.5.38 1.43.37 1.35.37 1.27.38 1.18.37 1.09.38 1 .37.9.37.82.38.73.37.63.37.56.38.47.37.4.38.32.37.25.37.18.38.12.37.06.38-.01.37-.06.37-.12.38-.18.37-.24.38-.3.37-.36.37-.42.38-.49.37-.55.37-.62.38-.69.37-.76.38-.83.37-.91.37-.97.38-1.04.37-1.11.38-1.17.37-1.24.37-1.29.38-1.35.37-1.39.38-1.43.37-1.46.37-1.49.38-1.51.37-1.52.38-1.52.37-1.52.37-1.51.38-1.48.37-1.46.37-1.43.38-1.38.37-1.35.38-1.29.37-1.23.37-1.17.38-1.11.37-1.04.38-.97.37-.9.37-.82.38-.74.37-.67.38-.58.37-.5.37-.42.38-.33.37-.25.37-.15.38-.07.37.01.38.12.37.2.37.29.38.39.37.47.38.57.37.66.37.75.38.84.37.92.38 1.01.37 1.09.37 1.16.38 1.23.37 1.3.38 1.36.37 1.41.37 1.45.38 1.49.37 1.52.37 1.55.38 1.55.37 1.57.38 1.55.37 1.55.37 1.53.38 1.49.37 1.47.38 1.41.37 1.37.37 1.32.38 1.25.37 1.18.38 1.12.37 1.04.37.96.38.89.37.8.37.72.38.63.37.55.38.46.37.38.37.3.38.21.37.13.38.04.37-.03.37-.12.38-.2.37-.27.38-.35.37-.42.37-.5.38-.57.37-.64.38-.71.37-.77.37-.84.38-.9.37-.96.37-1.01.38-1.06.37-1.11.38-1.15.37-1.19.37-1.22.38-1.25.37-1.27.38-1.29.37-1.31.37-1.3.38-1.31.37-1.3.38-1.28.37-1.27.37-1.24.38-1.22.37-1.18.37-1.14.38-1.1.37-1.05.38-1 .37-.94.37-.89.38-.82.37-.77.38-.7.37-.64.37-.57.38-.5.37-.44.38-.36.37-.3.37-.22.38-.16.37-.08.38-.02.37.06.37.12.38.2.37.27.37.34.38.41.37.47.38.55.37.62.37.68.38.74.37.81.38.88.37.92.37.99.38 1.03.37 1.09.38 1.12.37 1.17.37 1.19.38 1.23.37 1.25.37 1.26.38 1.27.37 1.28.38 1.28.37 1.27.37 1.25.38 1.23.37 1.21.38 1.18.37 1.14.37 1.1.38 1.06.37 1 .38.96.37.9.37.84.38.78.37.71.38.66.37.58.37.52.38.45.37.38.37.32.38.24.37.17.38.1.37.03.37-.05.38-.11.37-.19.38-.26.37-.34.37-.4.38-.48.37-.56.38-.62.37-.7.37-.76.38-.84.37-.9.37-.97.38-1.03.37-1.08.38-1.15.37-1.2.37-1.24.38-1.29.37-1.33.38-1.36.37-1.39.37-1.41.38-1.42.37-1.43.38-1.44.37-1.42.37-1.42.38-1.39.37-1.37.38-1.34.37-1.3.37-1.25.38-1.2.37-1.15.37-1.09.38-1.02.37-.95.38-.88.37-.8.37-.72.38-.64.37-.55.38-.46.37-.38.37-.29.38-.2.37-.1.38-.02.37.08.37.16.38.26.37.35.37.43.38.52.37.61.38.69.37.76.37.85.38.92.37 1 .38 1.06.37 1.12.37 1.19.38 1.24.37 1.29.38 1.33.37 1.37.37 1.41.38 1.43.37 1.46.38 1.47.37 1.47.37 1.48.38 1.48.37 1.46.37 1.45.38 1.42.37 1.4.38 1.36.37 1.32.37 1.27.38 1.23.37 1.17.38 1.11.37 1.05.37.98.38.92.37.85.38.77.37.71.37.62.38.55.37.47.37.39.38.32.37.24.38.15.37.08.37.01.38-.08.37-.15.38-.23.37-.3.37-.37.38-.45.37-.51.38-.59.37-.65.37-.71.38-.78.37-.83.38-.89.37-.95.37-.99.38-1.04.37-1.07.37-1.12.38-1.15.37-1.17.38-1.2.37-1.22.37-1.23.38-1.23.37-1.24.38-1.23.37-1.22.37-1.21.38-1.19.37-1.16.38-1.14.37-1.1.37-1.05.38-1.02.37-.97.37-.91.38-.87.37-.8.38-.74.37-.69.37-.61.38-.55.37-.48.38-.42.37-.34.37-.27.38-.2.37-.13.38-.05.37.02.37.08.38.16.37.24.37.29.38.37.37.44.38.5.37.57.37.63.38.69.37.75.38.8.37.85.37.91.38.94.37.99.38 1.02.37 1.05.37 1.08.38 1.11.37 1.12.38 1.13.37 1.13.37 1.14.38 1.13.37 1.13.37 1.1.38 1.09.37 1.06.38 1.04.37 1 .37.97.38.92.37.88.38.84.37.78.37.74.38.68.37.63.38.57.37.51.37.45.38.4.37.34.37.27.38.22.37.15.38.09.37.02.37-.04.38-.1.37-.17.38-.23.37-.3.37-.37.38-.44.37-.5.38-.57.37-.63.37-.71.38-.77.37-.83.38-.89.37-.96.37-1.01.38-1.07.37-1.12.37-1.17.38-1.21.37-1.25.38-1.28.37-1.3.37-1.33.38-1.35.37-1.35.38-1.35.37-1.35.37-1.34.38-1.33.37-1.3.38-1.27.37-1.23.37-1.2.38-1.16.37-1.1.37-1.05.38-.99.37-.92.38-.87.37-.79.37-.73.38-.65.37-.58.38-.5.37-.42.37-.35.38-.26.37-.18.38-.1.37-.01.37.08.38.16.37.25.38.34.37.43.37.52.38.61.37.69.37.79.38.87.37.96.38 1.04.37 1.11.37 1.2.38 1.26.37 1.33.38 1.39.37 1.45.37 1.49.38 1.52.37 1.56.38 1.59.37 1.59.37 1.6.38 1.59.37 1.58.37 1.56.38 1.52.37 1.49.38 1.43.37 1.39.37 1.32.38 1.25.37 1.18.38 1.1.37 1.02.37.94.38.85.37.77.38.68.37.59.37.5.38.42.37.33.38.25.37.17.37.1.38.01.37-.06.37-.13.38-.21.37-.27.38-.35.37-.41.37-.47.38-.54.37-.61.38-.67.37-.74.37-.8.38-.86.37-.92.38-.99.37-1.04.37-1.1.38-1.16.37-1.21.37-1.26.38-1.31.37-1.35.38-1.39.37-1.42.37-1.45.38-1.47.37-1.48.38-1.49.37-1.49.37-1.49.38-1.47.37-1.46.38-1.43.37-1.4.37-1.36.38-1.32.37-1.27.38-1.22.37-1.16.37-1.09.38-1.04.37-.96.37-.9.38-.82.37-.74.38-.66.37-.59.37-.49.38-.41.37-.32.38-.22.37-.13.37-.03.38.07.37.17.38.28.37.39.37.5.38.62.37.73.37.84.38.95.37 1.07.38 1.17.37 1.28.37 1.38.38 1.48.37 1.56.38 1.65.37 1.71.37 1.77.38 1.82.37 1.86.38 1.88.37 1.9.37 1.89.38 1.88.37 1.86.38 1.82.37 1.77.37 1.71.38 1.64.37 1.57.37 1.49.38 1.4.37 1.31.38 1.22.37 1.12.37 1.02.38.93.37.84.38.74.37.66.37.56.38.49.37.41.38.33.37.25.37.19.38.11.37.05.37-.03.38-.09.37-.17.38-.24.37-.31.37-.4.38-.48.37-.57.38-.66.37-.75.37-.86.38-.95.37-1.06.38-1.16.37-1.27.37-1.37.38-1.47.37-1.56.38-1.65.37-1.73.37-1.81.38-1.86.37-1.91.37-1.94.38-1.96.37-1.97.38-1.96.37-1.93.37-1.89.38-1.83.37-1.77.38-1.69.37-1.6.37-1.51.38-1.4.37-1.29.38-1.18.37-1.07.37-.96.38-.85.37-.75.37-.65.38-.56.37-.47.38-.39.37-.33.37-.26.38-.19.37-.15.38-.09.37-.05.37.01.38.05.37.11.38.17.37.22.37.31.38.38.37.47.38.58.37.69.37.82.38.95.37 1.09.37 1.24.38 1.4.37 1.55.38 1.69.37 1.85.37 1.97.38 2.1.37 2.2.38 2.28.37 2.34.37 2.37.38 2.37.37 2.35.38 2.3.37 2.22.37 2.12.38 2 .37 1.86.37 1.71.38 1.55.37 1.4.38 1.23.37 1.08.37.94.38.81.37.68.38.58.37.5.37.42.38.36.37.31.38.28.37.25.37.24.38.22.37.21.38.19.37.17.37.15.38.11.37.07.37.01.38-.06.37-.14.38-.25.37-.36.37-.5.38-.65.37-.82.38-.99.37-1.18.37-1.39.38-1.59.37-1.8.38-2.01.37-2.21.37-2.39.38-2.55.37-2.69.37-2.78.38-2.83.37-2.84.38-2.79.37-2.7.37-2.57.38-2.4.37-2.19.38-1.98.37-1.76.37-1.54.38-1.34.37-1.14.38-.99.37-.83.37-.72.38-.6.37-.5.38-.4.37-.3.37-.2.38-.1h.37l.37.12.38.21.37.32.38.38.37.44.37.47.38.45.37.41.38.33.37.22.37.1.38-.01.37-.13.38-.21.37-.27.37-.32.38-.36.37-.4.37-.47.38-.53.37-.6.38-.68.37-.74.37-.8.38-.86.37-.94.38-1.05.37-1.3"/><use xlink:href="#b" transform="matrix(3.75 0 0 3.75 113.62 131.24)"/><use xlink:href="#b" transform="matrix(3.75 0 0 3.75 220.55 7.51)"/></g><text fill="#000" stroke="none" stroke-linecap="round" stroke-linejoin="round" color="#000" font-family="KaTeX_Main" font-size="8" transform="translate(241.1 25.11)"><tspan>WBSTRelaxed</tspan></text><g fill="none" stroke="currentColor" stroke-linecap="round" stroke-linejoin="round" color="#000"><path stroke="#FFAB00" stroke-dasharray="4.0,2.0,1.0,2.0" d="M205.6 22.51h29.9M28 74.94l.37.07.38.31.37.6.38.89.37 1.21.37 1.54.38 1.89.37 2.23.38 2.59.37 2.94.37 3.28.38 3.61.37 3.93.37 4.21.38 4.48.37 4.71.38 4.89.37 5.03.37 5.13.38 5.16.37 5.16.38 5.11.37 4.99.37 4.85.38 4.66.37 4.44.38 4.18.37 3.91.37 3.63.38 3.32.37 3.03.37 2.72.38 2.44.37 2.15.38 1.88.37 1.62.37 1.39.38 1.16.37.94.38.76.37.57.37.41.38.25.37.11.38-.04.37-.17.37-.3.38-.42.37-.56.38-.69.37-.82.37-.96.38-1.12.37-1.27.37-1.43.38-1.61.37-1.79.38-1.98.37-2.18.37-2.38.38-2.59.37-2.8.38-2.99.37-3.2.37-3.37.38-3.56.37-3.7.38-3.85.37-3.95.37-4.05.38-4.1.37-4.13.37-4.14.38-4.11.37-4.05.38-3.96.37-3.85.37-3.72.38-3.56.37-3.39.38-3.19.37-2.99.37-2.78.38-2.56.37-2.35.38-2.13.37-1.91.37-1.71.38-1.5.37-1.31.38-1.12.37-.95.37-.77.38-.61.37-.45.37-.3.38-.15h.37l.38.16.37.32.37.48.38.64.37.83.38 1 .37 1.2.37 1.41.38 1.6.37 1.82.38 2.03.37 2.25.37 2.47.38 2.67.37 2.88.37 3.06.38 3.25.37 3.4.38 3.54.37 3.67.37 3.76.38 3.83.37 3.87.38 3.9.37 3.88.37 3.86.38 3.79.37 3.72.38 3.61.37 3.49.37 3.35.38 3.19.37 3.03.38 2.85.37 2.67.37 2.48.38 2.29.37 2.09.37 1.89.38 1.7.37 1.49.38 1.31.37 1.11.37.92.38.74.37.54.38.36.37.18.37-.01.38-.19.37-.38.38-.56.37-.75.37-.92.38-1.12.37-1.29.37-1.48.38-1.66.37-1.84.38-2.02.37-2.18.37-2.35.38-2.51.37-2.66.38-2.79.37-2.92.37-3.04.38-3.14.37-3.22.38-3.29.37-3.34.37-3.38.38-3.39.37-3.4.38-3.36.37-3.33.37-3.27.38-3.2.37-3.1.37-2.99.38-2.87.37-2.74.38-2.58.37-2.42.37-2.26.38-2.07.37-1.89.38-1.7.37-1.51.37-1.32.38-1.11.37-.92.38-.73.37-.53.37-.34.38-.16.37.04.37.21.38.39.37.57.38.74.37.9.37 1.07.38 1.22.37 1.38.38 1.53.37 1.68.37 1.81.38 1.96.37 2.09.38 2.21.37 2.34.37 2.45.38 2.55.37 2.65.38 2.73.37 2.82.37 2.88.38 2.93.37 2.98.37 3 .38 3.02.37 3.03.38 3.01.37 2.99.37 2.95.38 2.9.37 2.83.38 2.77.37 2.67.37 2.58.38 2.48.37 2.36.38 2.24.37 2.11.37 1.98.38 1.84.37 1.7.37 1.55.38 1.41.37 1.25.38 1.11.37.95.37.79.38.64.37.49.38.33.37.17.37.01.38-.14.37-.31.38-.46.37-.62.37-.77.38-.94.37-1.09.38-1.24.37-1.4.37-1.54.38-1.69.37-1.83.37-1.97.38-2.09.37-2.22.38-2.32.37-2.43.37-2.53.38-2.61.37-2.68.38-2.73.37-2.79.37-2.82.38-2.84.37-2.85.38-2.85.37-2.82.37-2.8.38-2.75.37-2.7.37-2.64.38-2.56.37-2.47.38-2.39.37-2.28.37-2.17.38-2.05.37-1.94.38-1.81.37-1.67.37-1.54.38-1.4.37-1.26.38-1.11.37-.96.37-.81.38-.65.37-.51.38-.34.37-.18.37-.02.38.14.37.31.37.46.38.63.37.8.38.95.37 1.11.37 1.26.38 1.42.37 1.56.38 1.7.37 1.83.37 1.96.38 2.07.37 2.18.38 2.28.37 2.36.37 2.44.38 2.5.37 2.55.37 2.58.38 2.61.37 2.62.38 2.62.37 2.61.37 2.58.38 2.55.37 2.5.38 2.44.37 2.38.37 2.3.38 2.22.37 2.14.38 2.04.37 1.93.37 1.84.38 1.72.37 1.61.38 1.49.37 1.37.37 1.24.38 1.12.37.99.37.85.38.71.37.57.38.43.37.28.37.13.38-.03.37-.18.38-.34.37-.5.37-.67.38-.84.37-1 .38-1.18.37-1.34.37-1.5.38-1.67.37-1.84.37-1.99.38-2.14.37-2.28.38-2.42.37-2.56.37-2.67.38-2.77.37-2.88.38-2.95.37-3.03.37-3.07.38-3.12.37-3.15.38-3.15.37-3.15.37-3.13.38-3.1.37-3.04.38-2.98.37-2.9.37-2.81.38-2.7.37-2.59.37-2.47.38-2.32.37-2.19.38-2.02.37-1.87.37-1.7.38-1.52.37-1.35.38-1.16.37-.98.37-.78.38-.59.37-.4.38-.21h.37l.37.19.38.39.37.59.37.78.38.97.37 1.17.38 1.35.37 1.54.37 1.72.38 1.89.37 2.06.38 2.22.37 2.37.37 2.52.38 2.65.37 2.77.38 2.88.37 2.97.37 3.06.38 3.13.37 3.18.38 3.23.37 3.24.37 3.26.38 3.24.37 3.23.37 3.18.38 3.14.37 3.06.38 2.99.37 2.89.37 2.78.38 2.66.37 2.54.38 2.4.37 2.26.37 2.1.38 1.95.37 1.78.38 1.62.37 1.44.37 1.27.38 1.09.37.92.37.74.38.56.37.38.38.2.37.03.37-.15.38-.32.37-.5.38-.66.37-.84.37-1 .38-1.17.37-1.33.38-1.49.37-1.64.37-1.8.38-1.93.37-2.08.38-2.21.37-2.33.37-2.45.38-2.56.37-2.65.37-2.75.38-2.82.37-2.88.38-2.94.37-2.98.37-3 .38-3.02.37-3.02.38-3 .37-2.97.37-2.94.38-2.88.37-2.81.38-2.73.37-2.64.37-2.53.38-2.43.37-2.3.37-2.17.38-2.03.37-1.88.38-1.73.37-1.58.37-1.41.38-1.24.37-1.07.38-.89.37-.72.37-.54.38-.36.37-.18h.38l.37.19.37.37.38.56.37.73.37.91.38 1.1.37 1.26.38 1.44.37 1.61.37 1.77.38 1.93.37 2.08.38 2.22.37 2.36.37 2.49.38 2.61.37 2.71.38 2.81.37 2.89.37 2.97.38 3.03.37 3.07.38 3.1.37 3.12.37 3.13.38 3.11.37 3.09.37 3.05.38 3 .37 2.94.38 2.87.37 2.77.37 2.69.38 2.57.37 2.46.38 2.33.37 2.2.37 2.07.38 1.92.37 1.77.38 1.62.37 1.46.37 1.3.38 1.14.37.97.37.81.38.63.37.47.38.29.37.12.37-.06.38-.24.37-.41.38-.59.37-.76.37-.94.38-1.12.37-1.3.38-1.47.37-1.65.37-1.81.38-1.98.37-2.14.38-2.3.37-2.45.37-2.59.38-2.73.37-2.85.37-2.97.38-3.07.37-3.15.38-3.24.37-3.29.37-3.35.38-3.37.37-3.38.38-3.39.37-3.36.37-3.33.38-3.28.37-3.2.38-3.13.37-3.02.37-2.9.38-2.78.37-2.64.37-2.49.38-2.33.37-2.15.38-1.98.37-1.79.37-1.6.38-1.41.37-1.21.38-1.01.37-.81.37-.6.38-.4.37-.2h.38l.37.2.37.39.38.6.37.78.38.98.37 1.16.37 1.34.38 1.53.37 1.7.37 1.88.38 2.04.37 2.21.38 2.35.37 2.51.37 2.65.38 2.77.37 2.9.38 3 .37 3.1.37 3.18.38 3.25.37 3.3.38 3.34.37 3.36.37 3.36.38 3.35.37 3.32.37 3.27.38 3.21.37 3.14.38 3.04.37 2.93.37 2.82.38 2.69.37 2.55.38 2.41.37 2.26.37 2.1.38 1.94.37 1.78.38 1.61.37 1.45.37 1.29.38 1.12.37.96.38.8.37.64.37.48.38.33.37.16.37.01.38-.15.37-.32.38-.47.37-.65.37-.81.38-.99.37-1.16.38-1.34.37-1.52.37-1.71.38-1.89.37-2.08.38-2.26.37-2.45.37-2.62.38-2.8.37-2.96.37-3.11.38-3.26.37-3.38.38-3.5.37-3.59.37-3.67.38-3.73.37-3.76.38-3.77.37-3.77.37-3.73.38-3.68.37-3.6.38-3.5.37-3.38.37-3.24.38-3.09.37-2.91.38-2.73.37-2.52.37-2.32.38-2.1.37-1.88.37-1.65.38-1.43.37-1.2.38-.97.37-.75.37-.54.38-.32.37-.11.38.09.37.29.37.47.38.66.37.84.38 1.02.37 1.18.37 1.36.38 1.52.37 1.68.37 1.86.38 2.01.37 2.17.38 2.33.37 2.49.37 2.64.38 2.78.37 2.93.38 3.07.37 3.18.37 3.3.38 3.4.37 3.48.38 3.54.37 3.6.37 3.62.38 3.62.37 3.62.38 3.58.37 3.52.37 3.44.38 3.35.37 3.24.37 3.11.38 2.97.37 2.82.38 2.65.37 2.49.37 2.31.38 2.14.37 1.96.38 1.79.37 1.62.37 1.44.38 1.29.37 1.12.38.96.37.81.37.66.38.51.37.36.37.2.38.05.37-.11.38-.28.37-.45.37-.63.38-.83.37-1.02.38-1.22.37-1.45.37-1.67.38-1.9.37-2.15.38-2.38.37-2.62.37-2.87.38-3.11.37-3.33.38-3.56.37-3.76.37-3.96.38-4.13.37-4.28.37-4.41.38-4.51.37-4.58.38-4.62.37-4.64.37-4.62.38-4.57.37-4.5.38-4.39.37-4.26.37-4.1.38-3.93.37-3.72.38-3.49.37-3.26.37-3 .38-2.74.37-2.47.37-2.18.38-1.89.37-1.6.38-1.3.37-1.02.37-.73.38-.44.37-.18.38.1.37.34.37.59.38.81.37 1.04.38 1.24.37 1.43.37 1.62.38 1.8.37 1.98.38 2.15.37 2.33.37 2.51.38 2.71.37 2.9.37 3.12.38 3.33.37 3.56.38 3.78.37 4.01.37 4.23.38 4.43.37 4.62.38 4.77.37 4.89.37 4.97.38 5.01.37 4.99.38 4.92.37 4.79.37 4.63.38 4.41.37 4.15.37 3.86.38 3.55.37 3.22.38 2.87.37 2.54.37 2.22.38 1.9.37 1.62.38 1.36.37 1.14.37.94.38.78.37.66.38.56.37.49.37.43.38.41.37.37.38.36.37.32.37.28.38.23.37.15.37.04.38-.09.37-.26.38-.45.37-.69.37-.95.38-1.24.37-1.58.38-1.94.37-2.32.37-2.73.38-3.15.37-3.59.38-4.04.37-4.46.37-4.88.38-5.25.37-5.58.37-5.84.38-6.02.37-6.12.38-6.11.37-6.02.37-5.84.38-5.58.37-5.25.38-4.9.37-4.52.37-4.14.38-3.79.37-3.48.38-3.22.37-3.01.37-2.85.38-2.74.37-2.66.38-2.6.37-2.53.37-2.44.38-2.27.37-2.02.37-1.63.38-1.07.37-.36.38.52.37 1.51.37 2.51.38 3.44.37 4.13.38 4.48.37 4.42.37 3.93.38 3.07.37 2.01.38.91.37-.1.37-.87.38-1.4.37-1.71.37-1.86.38-1.9.37-1.88.38-1.83.37-1.76.37-1.71.38-1.75.37-1.91.38-2.12.37-1.88"/><use xlink:href="#h" color="#FFAB00" transform="matrix(3.75 0 0 3.75 171.2 100.64)"/><use xlink:href="#h" color="#FFAB00" transform="matrix(3.75 0 0 3.75 220.55 22.51)"/></g><path fill="none" stroke="none" stroke-linecap="round" stroke-linejoin="round" stroke-width="0" d="M28 45.01V205M371.99 45.01H28" color="#000"/></svg>