<svg xmlns="http://www.w3.org/2000/svg" xmlns:xlink="http://www.w3.org/1999/xlink" viewBox="0 0 400 200"><path fill="none" d="M0 0h400v200H0z"/><defs><path id="c" stroke="currentColor" stroke-width=".333" d="M-1-1h2v2h-2z"/><path id="b" stroke="currentColor" stroke-width=".333" d="m0-1.33-1.33 2h2.66z"/><use xlink:href="#a" id="d" fill="currentColor" stroke="none"/><use xlink:href="#b" id="e" fill="currentColor" stroke="none"/><circle id="a" cx="0" cy="0" r="1" stroke="currentColor" stroke-width=".333"/></defs><path fill="none" stroke="#000" stroke-dasharray="0.1,0.2" stroke-linecap="round" stroke-linejoin="round" stroke-width=".1" d="M54.18 164V60.01" class="gridline" color="#000"/><g fill="none" stroke-linecap="round" stroke-linejoin="round" stroke-width="0" color="#000"><path d="M54.18 164v-6m0-97.99v6"/><text fill="#000" font-family="KaTeX_Main" font-size="8" text-anchor="middle" transform="translate(54.18 172.6)"><tspan> 1</tspan></text></g><path fill="none" stroke="#000" stroke-dasharray="0.1,0.2" stroke-linecap="round" stroke-linejoin="round" stroke-width=".1" d="M89.49 164v-8.99" class="gridline" color="#000"/><g fill="none" stroke-linecap="round" stroke-linejoin="round" stroke-width="0" color="#000"><path d="M89.49 164v-6m0-97.99v6"/><text fill="#000" font-family="KaTeX_Main" font-size="8" text-anchor="middle" transform="translate(89.49 172.6)"><tspan> 2</tspan></text></g><path fill="none" stroke="#000" stroke-dasharray="0.1,0.2" stroke-linecap="round" stroke-linejoin="round" stroke-width=".1" d="M124.81 164v-8.99" class="gridline" color="#000"/><g fill="none" stroke-linecap="round" stroke-linejoin="round" stroke-width="0" color="#000"><path d="M124.81 164v-6m0-97.99v6"/><text fill="#000" font-family="KaTeX_Main" font-size="8" text-anchor="middle" transform="translate(124.81 172.6)"><tspan> 3</tspan></text></g><path fill="none" stroke="#000" stroke-dasharray="0.1,0.2" stroke-linecap="round" stroke-linejoin="round" stroke-width=".1" d="M160.12 164v-8.99" class="gridline" color="#000"/><g fill="none" stroke-linecap="round" stroke-linejoin="round" stroke-width="0" color="#000"><path d="M160.12 164v-6m0-97.99v6"/><text fill="#000" font-family="KaTeX_Main" font-size="8" text-anchor="middle" transform="translate(160.12 172.6)"><tspan> 4</tspan></text></g><path fill="none" stroke="#000" stroke-dasharray="0.1,0.2" stroke-linecap="round" stroke-linejoin="round" stroke-width=".1" d="M195.43 164v-8.99" class="gridline" color="#000"/><g fill="none" stroke-linecap="round" stroke-linejoin="round" stroke-width="0" color="#000"><path d="M195.43 164v-6m0-97.99v6"/><text fill="#000" font-family="KaTeX_Main" font-size="8" text-anchor="middle" transform="translate(195.43 172.6)"><tspan> 5</tspan></text></g><path fill="none" stroke="#000" stroke-dasharray="0.1,0.2" stroke-linecap="round" stroke-linejoin="round" stroke-width=".1" d="M230.74 164v-8.99" class="gridline" color="#000"/><g fill="none" stroke-linecap="round" stroke-linejoin="round" stroke-width="0" color="#000"><path d="M230.74 164v-6m0-97.99v6"/><text fill="#000" font-family="KaTeX_Main" font-size="8" text-anchor="middle" transform="translate(230.74 172.6)"><tspan> 6</tspan></text></g><path fill="none" stroke="#000" stroke-dasharray="0.1,0.2" stroke-linecap="round" stroke-linejoin="round" stroke-width=".1" d="M266.05 164v-8.99" class="gridline" color="#000"/><g fill="none" stroke-linecap="round" stroke-linejoin="round" stroke-width="0" color="#000"><path d="M266.05 164v-6m0-97.99v6"/><text fill="#000" font-family="KaTeX_Main" font-size="8" text-anchor="middle" transform="translate(266.05 172.6)"><tspan> 7</tspan></text></g><path fill="none" stroke="#000" stroke-dasharray="0.1,0.2" stroke-linecap="round" stroke-linejoin="round" stroke-width=".1" d="M301.37 164v-8.99" class="gridline" color="#000"/><g fill="none" stroke-linecap="round" stroke-linejoin="round" stroke-width="0" color="#000"><path d="M301.37 164v-6m0-97.99v6"/><text fill="#000" font-family="KaTeX_Main" font-size="8" text-anchor="middle" transform="translate(301.37 172.6)"><tspan> 8</tspan></text></g><path fill="none" stroke="#000" stroke-dasharray="0.1,0.2" stroke-linecap="round" stroke-linejoin="round" stroke-width=".1" d="M336.68 164V60.01" class="gridline" color="#000"/><g fill="none" stroke-linecap="round" stroke-linejoin="round" stroke-width="0" color="#000"><path d="M336.68 164v-6m0-97.99v6"/><text fill="#000" font-family="KaTeX_Main" font-size="8" text-anchor="middle" transform="translate(336.68 172.6)"><tspan> 9</tspan></text></g><path fill="none" stroke="#000" stroke-dasharray="0.1,0.2" stroke-linecap="round" stroke-linejoin="round" stroke-width=".1" d="M371.99 164V60.01" class="gridline" color="#000"/><g fill="none" stroke-linecap="round" stroke-linejoin="round" stroke-width="0" color="#000"><path d="M371.99 164v-6m0-97.99v6"/><text fill="#000" font-family="KaTeX_Main" font-size="8" text-anchor="middle" transform="translate(371.99 172.6)"><tspan> 10</tspan></text></g><g fill="none" stroke-linecap="round" stroke-linejoin="round" stroke-width="0" color="#000"><path d="M371.99 164h-6"/><text fill="#000" font-family="KaTeX_Main" font-size="8" transform="translate(377.59 166.6)"><tspan>0.87</tspan></text></g><g fill="none" stroke-linecap="round" stroke-linejoin="round" stroke-width="0" color="#000"><path d="M371.99 151h-6"/><text fill="#000" font-family="KaTeX_Main" font-size="8" transform="translate(377.59 153.6)"><tspan>0.88</tspan></text></g><g fill="none" stroke-linecap="round" stroke-linejoin="round" stroke-width="0" color="#000"><path d="M371.99 138h-6"/><text fill="#000" font-family="KaTeX_Main" font-size="8" transform="translate(377.59 140.6)"><tspan>0.89</tspan></text></g><g fill="none" stroke-linecap="round" stroke-linejoin="round" stroke-width="0" color="#000"><path d="M371.99 125h-6"/><text fill="#000" font-family="KaTeX_Main" font-size="8" transform="translate(377.59 127.6)"><tspan>0.90</tspan></text></g><g fill="none" stroke-linecap="round" stroke-linejoin="round" stroke-width="0" color="#000"><path d="M371.99 112h-6"/><text fill="#000" font-family="KaTeX_Main" font-size="8" transform="translate(377.59 114.6)"><tspan>0.91</tspan></text></g><g fill="none" stroke-linecap="round" stroke-linejoin="round" stroke-width="0" color="#000"><path d="M371.99 99.01h-6"/><text fill="#000" font-family="KaTeX_Main" font-size="8" transform="translate(377.59 101.61)"><tspan>0.92</tspan></text></g><g fill="none" stroke-linecap="round" stroke-linejoin="round" stroke-width="0" color="#000"><path d="M371.99 86.01h-6"/><text fill="#000" font-family="KaTeX_Main" font-size="8" transform="translate(377.59 88.61)"><tspan>0.93</tspan></text></g><g fill="none" stroke-linecap="round" stroke-linejoin="round" stroke-width="0" color="#000"><path d="M371.99 73.01h-6"/><text fill="#000" font-family="KaTeX_Main" font-size="8" transform="translate(377.59 75.61)"><tspan>0.94</tspan></text></g><g fill="none" stroke-linecap="round" stroke-linejoin="round" stroke-width="0" color="#000"><path d="M371.99 60.01h-6"/><text fill="#000" font-family="KaTeX_Main" font-size="8" transform="translate(377.59 62.61)"><tspan>0.95</tspan></text></g><path fill="none" d="M22.4 60.01V164M371.99 60.01H22.4" color="#000"/><text stroke-linecap="round" stroke-linejoin="round" stroke-width="0" color="#000" font-family="KaTeX_Main" font-size="8" text-anchor="middle" transform="rotate(-90 60.605 51.405)"><tspan font-weight="bold">AveragePathLength </tspan><tspan> / log</tspan><tspan dy="2.4" font-size="6.4">2</tspan><tspan dy="-2.4">Size</tspan></text><text stroke-linecap="round" stroke-linejoin="round" stroke-width="0" color="#000" font-family="KaTeX_Main" font-size="8" text-anchor="middle" transform="translate(197.19 190.6)"><tspan>Operations × 10</tspan><tspan dy="-4" font-size="6.4">5</tspan></text><text stroke-linecap="round" stroke-linejoin="round" color="#000" font-family="KaTeX_SansSerif" font-size="18" transform="translate(162.4 42.74)"><tspan>LBSTBottomUp</tspan></text><g fill="none" stroke="currentColor" stroke-linecap="round" stroke-linejoin="round" color="#000"><path stroke="#3B75EA" d="M93.4 36.89h56.4M22.4 145.38l.35 7.7.36 2.13.35-10.05.35 3.36.36-6.69.35-7 .35 4.89.35-7.93.36-6.55.35-7.3.35-10.74.36 12.47.35 21.75.35-4.21.36-3.7.35-1.33.35-.82.36-2.2.35-3.06.35-3.6.36-4.07.35 11.4.35-3.27.35-2.22.36-2.67.35 4.13.35-.99.36-1.4.35-1.84.35-2.47.36-.91.35-2.36.35-2.52.36 17.73.35-2.3.35-1.49.36 3.8.35-.86.35-1.11.35-1.36.36-1.6.35-1.62.35-2.01.36-2.09.35-2.42.35 5.24.36-1.51.35.44.35-1.34.36-1.49.35-1.6.35-1.86.36-2.27.35-2.33.35.08.35-1.89.36 9.83.35-.97.35-1.15.36-1.25.35-1.37.35-1.39.36-1.59.35-1.71.35-1.8.36-1.86.35-.29.35-1.86.36-2.05.35-1.71.35-2.03.35-.57.36-1.87.35-1.93.35-1.99.36-2.06.35 8.86.35 20.53.36-.81.35-.91.35-.95.36-.96.35-1.1.35-1.15.36-1.21.35-1.29.35-1.28.35-.86.36.38.35-.92.35-.32.36-.43.35-.51.35-.61.36-.72.35-.39.35-.8.36-.9.35-1.04.35-1.08.36-.85.35-1.27.35 11.18.35-.23.36 1.19.35-.26.35-.33.36-.43.35-.53.35-.23.36 1.46.35-.28.35-.47.36-.51.35 4.63.35.02.36-.03.35 1.24.35.04.35-.08.36-.23.35 2.78.35.23.36.08.35-.05.35-.18.36-.31.35-.42.35-.53.36-.59.35.61.35-.14.36.5.35-.36.35-.59.35-.82.36-.81.35 2.7.35 3.52.36.07.35.95.35.86.36 1.15.35.45.35.16.36-.09.35-.21.35.39.36-.46.35-.56.35-.91.35-1.01.36-.45.35-1.21.35-1.14.36-1.63.35 2.5.35-1.12.36-1.32.35-1.53.35-1.55.36-1.74.35-1.88.35-2.04.35-2.11.36-2.26.35 10.87.35-1.68.36-1.89.35-1.24.35-1.01.36 2.96.35-1.39.35-1.39.36-1.02.35-1.15.35-1.25.36-.43.35-1.12.35-1.19.35-1.33.36-1.36.35 7.6.35-1.3.36-1.38.35-.73.35 10.18.36-.75.35-.84.35-.97.36-.08.35-.22.35-.25.36-.41.35-.42.35-.54.35-.7.36-.64.35.99.35-.14.36-.74.35-.89.35 6 .36-.44.35-.01.35-.43.36-.55.35-.58.35-.69.36 1.4.35-.33.35-.5.35-.66.36-.66.35-.8.35-.9.36-1.04.35-1.11.35-1.2.36 6.57.35.76.35-.5.36-.48.35.86.35-.59.36-.7.35-.1.35.08.35 8.79.36-.28.35-.51.35-.67.36-.9.35-1.05.35 3.11.36-.56.35-.34.35 4.48.36-.6.35-.87.35.92.36 1.21.35.34.35.15.35-.22.36-.6.35-.93.35-1.13.36.29.35-1.37.35 1.16.36-.87.35-1.16.35-1.21.36-1.47.35 1.43.35-.92.36-1.12.35-1.24.35-1.36.35-1.35.36-1.43.35-1.61.35-1.65.36 10.67.35-1.03.35-1.19.36-1.31.35-1.35.35-1.53.36-1.6.35-.71.35-1.59.36-1.68.35.04.35-1.38.35-1.48.36-1.52.35-1.58.35-1.62.36-1.73.35-1.74.35 9.29.36 1.36.35-.76.35 11.59.36-.2.35-.28.35-.34.36-.46.35-.04.35-.14.35-.17.36-.33h.35l.35-.43.36-.39.35-.56.35 1.52.36-.52.35-.1.35-.64.36.36.35-.64.35-.86.36 6.31.35-.2.35-.38.35-.28.36-.42.35-.56.35-.6.36-.3.35-.62.35-.45.36-.8.35-.82.35-1 .36-.97.35-.28.35.76.36.73.35-.57.35-.65.35.82.36-.54.35-.72.35-.76.36 8.28.35-.52.35-.42.36-.77.35-.86.35.22.36-.12.35-1.02.35-1.08.35 3.86.36 6.52.35.61.35 1.23.36-.01.35-.39.35 2.18.36-.26.35-.62.35-.73.36-.76.35-1.36.35-1.67.36-1.95.35-2.28.35-2.52.35 8.02.36-1.13.35-1.2.35-1.46.36-1.57.35-1.76.35-.15.36-1.3.35-1.64.35-1.81.36-1.89.35 8.36.35-1.08.36-1.31.35-1.39.35-1.56.35-1.68.36-1.72.35.57.35-1.2.36-1.32.35-1.4.35-1.45.36-1.43.35-.6.35-1.53.36-1.6.35 4.99.35-.91.36-.98.35-1.03.35 1.16.35 15.65.36-.11.35-.32.35-.35.36-.44.35-.06.35-.13.36-.17.35-.27.35-.38.36-.43.35 1.22.35-.25.36-.48.35-.57.35-.59.35 1.22.36-.22.35-.05.35-.47.36-.56.35-.65.35-.69.36-.6.35-.98.35-1.1.36-1.2.35 7 .35-.56.36.39.35-.54.35-.36.35-.74.36-.89.35-.89.35-.42.36-1.06.35-1.16.35-.63.36-1.04.35-1.26.35-1.35.36-1.56.35 1.14.35 8.15.36-.91.35-1.18.35-.83.35-1.06.36-1.52.35 7.83.35-.45.36-.53.35.1.35 2.3.36.15.35.04.35.01.36-.29.35 1.51.35.62.36-.08.35 3.6.35.09.35-.21.36-.32.35-.53.35-.7.36-.86.35-.48.35-.56.36-1.24.35-1.33.35 4.44.36-.73.35-.63.35-.84.36-.99.35-1.06.35-1.21.35-1.04.36-1.42.35-1.48.35-1.56.36-1.64.35 12.31.35.31.36-.37.35-.45.35-.55.36-.66.35-.7.35-.87.36-1 .35.71.35-.74.35-.77.36-.87.35-1 .35-1.02.36-1.17.35.01.35-.96.36-.94.35-.72.35-.09.36-.17.35-.25.35-.33.36-.31.35-.46.35-.52.35-.64.36-.54.35.45.35-.66.36-.7.35-.62.35.2.36 8.55.35.25.35-.24.36.06.35-.35.35-.37.35-.54.36 1.79.35-.28.35-.45.36.4.35-.42.35-.57.36-.54.35-.73.35-.81.36-.55.35 2.64.35-.11.36-.35.35-.44.35-.59.35 8.02.36-.41.35-.51.35-.64.36-.27.35-.86.35 2.25.36-.09.35-.43.35-.53.36-.77.35 7.73.35-.77.36 3.05.35.7.35.12.35-.31.36-.55.35-.85.35-1.15.36-1.56.35.65.35-1.5.36-.19.35-1.09.35-1.29.36-1.57.35 1.48.35-1.14.36-1.48.35-1.01.35-1.32.35-1.55.36-1.19.35-1.75.35-1.92.36 5.87.35-1.48.35-1.43.36-1.61.35-1.81.35 3.8.36-1.26.35-1.3.35-1.37.36-.77.35-1.25.35-1.24.35-1.35.36-1.54.35-1.6.35-1.71.36-1.82.35 6.05.35-.96.36-.72.35-1.09.35 16.29.36 2.14.35-.03.35-.15.36-.22.35-.31.35-.4.35-.53.36 1.03.35-.57.35-.56.36-.64.35-.73.35-.8.36-.84.35-.76.35-.98.36 6.21.35-.38.35-.3.36-.5.35-.54.35-.63.35.81.36-.31.35-.43.35.1.36-.53.35-.61.35-.7.36-.71.35-.81.35-1 .36-1.01.35-1.15.35-.56.36-1.06.35.2.35-1.13.35-1.07.36-1.45.35 4.82.35-1.01.36-1.05.35 7.76.35-.79.36.55.35-.55.35-1.04.36-1.11.35-1.42.35 2.44.36-.46.35-1.01.35-1.3.35 13.69.36-.61.35.21.35.11.36-.2.35-.4.35-.58.36-.76.35-1.01.35-.76.36-1.28.35-1.44.35-1.62.36 1.88.35-1.05.35-1.09.35-1.32.36-1.57.35-1.37.35-1.88.36-.32.35 7.22.35-.8.36-.85.35-1.05.35-1.21.36-1.37.35-1.51.35-1.11.35-1.67.36-1.71.35.5.35-1.39.36-1.48.35-1.55.35-1.73.36-1.79.35-1.83.35-1.89.36-2.03.35 1.1.35 7.03.36 19.31.35-.64.35-.64.35-.77.36-.82.35-.9.35-.1.36-.76.35-.83.35-.82.36.14.35.06.35.15.36-.1.35-.01.35-.11.36-.29.35-.44.35-.53.35-.64.36-.74.35-.84.35-.92.36-1 .35-1.07.35-1.19.36 6.62.35-.57.35-.64.36-.54.35.75.35-.71.36-.67.35-.77.35-.92.35-.88.36-.82.35.4.35-.75.36-.94.35-.74.35 6.94.36-.08.35-.5.35.87.36-.48.35-.55.35-.74.36 8.55.35-.47.35-.51.35-.57.36-.86.35.83.35-.26.36-.32.35-.85.35 1.93.36-.83.35 1.14.35 1.61.36 1.24.35.92.35.53.36.5.35-.02.35-.22.35-.59.36-.89.35-1.24.35-1.48.36 1.48.35-.96.35-1.2.36-.2.35-1.59.35 4.06.36-.88.35-1.1.35-.42.36-1.11.35-.22.35-1 .35-1.1.36-1.13.35-1.22.35 3.44.36-1.29.35-1.43.35-1.47.36.54.35-1.67.35-1.77.36 3.82.35-1.18.35-1.24.36-1.32.35-1.44.35-1.48.35-1.04.36-1.39.35.32.35-1.24.36-1.21.35 6.35.35-.15.36-.66.35 12.46.35-.12.36-.17.35-.31.35-.5.36-.59.35 2.48.35-.03.35-.2.36-.29.35-.39.35-.47.36-.55.35-.6h.35l.36-.74.35-.86.35 6.61.36-.36.35-.51.35-.6.36-.61.35-.76.35-.77.35 2.07.36-.61.35-.17.35-.76.36-.84.35-.87.35-.74.36-.93.35-1.04.35.32.36-1.09.35.7.35-1.06.36-1.2.35-.93.35-1.6.35-1.63.36 10.53.35-.61.35-.66.36-.78.35-.79.35 1.12.36-.49.35-.15.35-.71.36-1.05.35 12.16.35-.44.35.73.36-.08.35-.62.35-1.01.36-1.26.35-1.69.35-1.83.36-1.83.35-2.27.35-2.09.36.02.35 4.71.35-1.27.36-1.56.35-1.83.35-1.93.35-2.1.36-2.35.35-2.23.35-2.66.36 7.45.35.96.35-1.56.36-1.65.35-1.72.35-1.89.36 2.66.35-1.57.35-1.33.36-1.52.35-1.64.35-1.62.35-1.03.36-1.17.35-1.29.35-1.21.36.8.35 2.89.35-.48.36-.51.35-.53.35 19.56.36-.01.35-.12.35-.19.36-.28.35-.31.35-.33.35-.42.36-.52.35-.08.35-.12.36-.25.35-.35.35.87.36-.19.35-.24.35-.07.36-.35.35-.39.35-.43.36-.52.35.73.35.79.35-.18.36-.07.35-.46.35-.6.36-.49.35-.81.35-.95.36-1.04.35 6.76.35-.22.36.03.35.03.35-.56.36-.74.35-.88.35-.97.35-1.08.36-1.11.35.99.35.72.36-.59.35-.54.35-.65.36-.42.35-.9.35 8.41.36-.51.35-.51.35-.63.36-.71.35-.87.35-.39.35 2.52.36-.21.35.97.35.96.36.5.35 2.39.35.87.36.67.35.81.35.41.36.21.35-.04.35-.27.36-.32.35-.54.35-.91.35-.98.36-1.14.35-1.34.35-1.03.36-1.6.35 4.18.35-1.6.36-1.69.35.28.35-1.6.36-1.62.35-1.85.35-1.83.36-2.04.35 3.57.35-1.75.35-1.84.36 11.91.35-.9.35-1.04.36-.7.35.2.35-.9.36-.89.35-1.05.35-1.11.36-1.18.35.28.35-.72.36-.8.35-.87.35-.88.35-1.02.36-.97.35-1.04.35-1.15.36 3.1.35-1.17"/><use xlink:href="#a" color="#3B75EA" transform="matrix(3 0 0 3 368.81 111.92)"/><use xlink:href="#a" color="#3B75EA" transform="matrix(3 0 0 3 121.6 36.89)"/></g><text stroke-linecap="round" stroke-linejoin="round" color="#000" font-family="KaTeX_SansSerif" font-size="18" transform="translate(162.4 76.49)"><tspan>LBSTTopDown</tspan></text><g fill="none" stroke="currentColor" stroke-linecap="round" stroke-linejoin="round" color="#000"><path stroke="#29C3F6" stroke-dasharray="4.5,2.0,0.5,2.0,0.5,2.0" d="M93.4 70.64h56.4M22.4 120.76l.35 8.87.36 4.38.35-5.51.35-1.54.36-3.32.35-5.9.35 3.64.35-4.84.36-8.11.35-6.53.35 5.17.36-6.99.35 22.13.35-5.73.36-6.63.35 8.8.35-3.56.36-4.68.35-3.97.35-5.47.36 18.06.35-.56.35-1.88.35-2.2.36-3.68.35-1.51.35-2.95.36-3.42.35-1.21.35-2.72.36-1.36.35-3.27.35 17.71.36 4.9.35-2.88.35-3.21.36 9.22.35-.52.35-.91.35-1.26.36-1.52.35.55.35-1.54.36-1.51.35-2.04.35-2.14.36-2.3.35 5.61.35 1.68.36-.9.35-1.41.35-1.54.36-1.76.35-2.02.35-2.15.35-2.47.36.88.35-1.96.35 7.72.36-1.26.35-1.43.35-1.61.36-.32.35-1.54.35-1.71.36-1.68.35-1.91.35-1.99.36-.09.35-.88.35-1.98.35-2.03.36.89.35-1.78.35-1.9.36-2.02.35-2.09.35 28.64.36-.56.35-.89.35-.97.36-1.05.35-.07.35-.86.36-.92.35-.96.35-.98.35-1.11.36-1.08.35-1.2.35-.32.36-.44.35-.52.35-.59.36-.71.35-.55.35-.82.36-1 .35-1.1.35-.83.36-1.08.35-1.3.35 10.05.35-.25.36 1.62.35-.21.35-.31.36-.36.35-.4.35-.27.36.35.35-.27.35-.35.36-.04.35-.12.35-.45.36-.54.35 5.05.35.49.35.37.36.29.35.12.35.65h.36l.35 1.36.35.39.36.64.35.02.35-.1.36-.19.35-.48.35-.68.36-.84.35-1.06.35-1.13.35-1.28.36-.35.35 6.24.35 6.65.36.66.35 1.15.35.93.36.42.35.17.35.23.36-.38.35-.71.35-1.01.36-1.28.35-1.4.35.8.35-1.18.36-1.45.35-1.44.35-1.75.36 5.08.35-1.04.35-1.31.36-1.53.35-1.57.35-1.82.36-.92.35-1.67.35-1.74.35-1.93.36 7.01.35-.09.35-1.24.36-1.49.35-1.55.35-1.64.36-1.84.35-1.92.35 2.54.36-1.32.35-.32.35-.96.36-1 .35-1.13.35-1.14.35-1.24.36-1.22.35 5.81.35-.67.36 12.77.35-.18.35-.26.36-.36.35-.23.35-.48h.36l.35-.07.35-.2.36-.29.35.28.35-.03.35-.47.36-.47.35-.6.35-.67.36 1.95.35-.5.35-.61.36.56.35-.7.35-.84.36-.74.35-.99.35-1.09.36.9.35-1.14.35 7.03.35-.56.36.02.35-.67.35-.8.36.15.35-.84.35-1.02.36-1.09.35-1.17.35-1.3.36-.38.35-1.27.35-1.32.36 1.84.35-1.25.35-1.38.35-1.48.36 6.64.35-1.22.35-1.33.36-1.24.35 7.64.35.07.36-.04.35-.68.35-.38.36 5.6.35-.08.35 1.44.36 1.27.35 1.03.35.5.35.23.36-.09.35-.3.35-.57.36-.9.35-1.05.35-1.32.36-1.3.35-1.68.35-1.82.36-.49.35 5.9.35-1.29.36-1.41.35-1.68.35-1.89.35.8.36-1.56.35-1.59.35-1.72.36-1.83.35-2.02.35 12.78.36-.36.35-.54.35-.69.36-.73.35-.91.35-.62.36-.46.35-1.05.35-1.19.35-1.3.36-1.42.35-1.57.35 1.81.36-.77.35-.33.35-.87.36-.9.35-1.01.35 9.52.36-.42.35-.48.35-.53.36 4.09.35.02.35-.09.35-.16.36-.22.35-.07.35-.36.36-.36.35-.59.35 1.86.36-.26.35-.31.35-.46.36-.53.35-.54.35-.69.36-.84.35-.61.35-.81.35-1.04.36 6.86.35.08.35-.55.36-.43.35-.33.35-.78.36-.88.35-1.07.35.2.36-.51.35-1.19.35-1.32.36.1.35-1.26.35.27.35-1.21.36-.7.35-1.67.35-1.78.36 9.44.35-.88.35-.99.36-1.23.35-1.07.35-1.35.36-1.78.35-.89.35-1.52.35 7.71.36 9.05.35-.12.35-.26.36-.6.35-.83.35-1.09.36-1.18.35-1.68.35-1.88.36-1.97.35-2.43.35 2.1.36 3.08.35-1 .35-1.28.35-1.49.36-1.59.35-1.75.35-1.88.36-2.03.35.85.35 7.07.36-.6.35-.6.35-.53.36-.82.35-1.02.35.66.36-.7.35-.85h.35l.35-.76.36-.78.35.23.35-.58.36-.62.35-.78.35-.79.36-.96.35 8.95.35-.36.36-.45.35-.54.35-.64.36 3.12.35-.1.35-.15.35-.22.36-.34.35-.38.35-.48.36-.55.35.08.35-.03.36-.09.35-.16.35-.29.36 1.37h.35l.35-.04.36-.16.35-.16.35.47.35-.08.36 1.24.35-.09h.35l.36-.17.35-.42.35-.56.36 1.07.35-.44.35-.76.36-.95.35-.81.35-.92.36-1.26.35 7.63.35-.14.35-.73.36-.76.35-.94.35-1 .36-1.11.35-1.23.35-1.14.36-1.29.35.96.35.68.36-.77.35-.83.35 7.93.36.51.35.18.35-.05.35-.16.36-.42.35.28.35-.32.36-.54.35 6.78.35-.65.36 1.4.35.48.35-.72.36-1.13.35-1.22.35-.55.36-1.44.35-1.52.35-1.79.35 3.57.36-.95.35-1.13.35-1.25.36-1.51.35-1.05.35-1.87.36-2.06.35.98.35-1.66.36 5.54.35-.76.35-1.03.36-1.18.35-1.28.35-1.43.35-1.44.36-1.64.35-1.67.35-1.81.36-1.84.35-1.85.35 2.69.36-1.2.35-1.12.35-1.31.36-1.3.35-1.45.35-1.4.36 19.74.35 4.22.35-.17.35-.38.36-.37.35-.46.35-.5.36-.64.35-.71.35-.71.36-.83.35-.86.35-.16.36-.29.35-.4.35-.53.36-.65.35-.71.35-.86.35-1.04.36 1.38.35-.97.35-1.04.36-.03.35-.83.35 7.11.36.15.35-.33.35-.51.36-.09.35-.77.35-.78.35-.99.36-.92.35-.44.35.77.36-.32.35-.58.35.24.36-.59.35-.68.35 3.64.36-.16.35-.22.35-.45.36-.63.35-.71.35-.47.35-.88.36 7.34.35-.21.35-.05.36-.48.35 1.84.35-.54.36-.68.35-.05.35-.68.36-.82.35 8.68.35-.28.36 3.36.35 3.68.35.57.35.39.36.21.35-.16.35-.2.36-.38.35-.45.35-.61.36-.92.35-1.09.35-1.14.36-1.33.35-1.61.35-1.69.36-1.87.35 3.18.35-1.17.35-1.38.36-.87.35-1.52.35-.3.36-1.64.35-1.87.35 4.74.36-1.17.35-1.33.35-1.35.36-1.57.35-1.63.35-1.47.36-1.84.35 2.61.35-1.01.35.52.36-1.02.35-1.03.35-1.06.36-1.21.35-1.2.35-1.3.36-1.42.35-1.23.35 13.62.36-.82.35-.99.35-1.04.36-.6.35-.92.35-1.01.35-.59.36-.77.35-.87.35-.74.36 5.38.35-.48.35-.56.36-.66.35-.77.35-.81.36-.38.35 1.56.35-.69.36-.76.35-.85.35.29.35 5.3.36-.14.35-.27.35-.28.36-.38.35-.47.35-.47.36-.59.35.88.35-.16.36 1.34.35-.12.35-.19.36 1.83.35-.07.35-.19.35-.38.36-.15.35-.69.35-.85.36-1.1.35 6.84.35-.79.36-.87.35-.76.35-1.24.36-1.22.35-.96.35 6.65.36.64.35-.47.35 6.72.35.71.36.48.35 1.37.35.89.36.62.35.21.35-.1.36-.36.35-.79.35-1 .36.87.35-.95.35-1.26.36-1.43.35-1.71.35-1.91.35-2.11.36 7.97.35-1.23.35-1.45.36-1.64.35-1.81.35-1.97.36.93.35-1.58.35-1.66.36-.75.35-1.57.35-1.8.35 7.78.36-1.04.35 1.32.35-.92.36-1.07.35.64.35-.74.36-.91.35-.94.35-1.12.36-1.2.35-1.26.35-.78.36-1.32.35 2.01.35-1.02.35.17.36 2.87.35-.52.35-.62.36-.63.35-.74.35 2.95.36 2.69.35.43.35.56.36.2.35.2.35.14.36.13.35 2.18.35.3.35.45.36.17.35.09.35-.05.36-.02.35-.19.35-.28.36-.35.35-.34.35-.5.36-.64.35-.72.35-.87.36-.35.35 3.45.35-.64.35-.78.36-.92.35-1.08.35 1.26.36-.81.35-1.04.35-1.3.36 9.63.35-.25.35-.35.36-.6.35-.69.35-.9.36-1 .35-1.09.35-1.2.35-1.22.36-1.4.35 7.27.35-.46.36-.62.35-.66.35-.63.36-.07.35 3.07.35.64.36-.14.35-.55.35-.65.36-.87.35-1.09.35-.08.35-1.36.36-1.46.35-1.79.35-1.9.36-1.99.35 5.73.35-.35.36-.77.35-.9.35-.87.36-1.14.35-1.21.35-1.34.36-1.45.35-1.55.35-1.63.35-1.65.36-1.83.35-1.79.35-1.98.36-2.05.35-2.2.35-2.15.36-1.22.35-2.26.35 1.76.36-1.79.35 10.75.35-1.21.36-1.28.35-1.27.35 21.61.35-.66.36-.69.35 1.82.35-.48.36-.62.35-.66.35-.75.36-.72.35-.82.35-.84.36-.92.35-.14.35-.39.36-.26.35-.56.35-.54.35-.47.36-.8.35-.78.35-.9.36-.52.35-.57.35-.92.36-.52.35 6.81.35-.47.36-.54.35-.64.35 2.79.36-.33.35-.4.35-.56.35-.51.36-.42.35.01.35-.61.36-.33.35-.74.35.56.36-.95.35-1.04.35-.44.36-1.11.35 6.12.35-.12.36-.23.35 7.29.35.01.35.31.36-.31.35-.51.35-.49.36-.82.35-.2.35 1.18.36.04.35-.49.35.02.36 2.18.35-.18.35 3.8.35-.27.36 2.2.35.3.35-.02.36-.38.35-.38.35-.72.36 2.08.35-.05.35.3.36-.31.35.2.35.52.36-.16.35-.17.35-.39.35-.55.36-.65.35-.68.35-.85.36-1.04.35-1.11.35-1.16.36-1.36.35-1.45.35-1.58.36-1.67.35-1.71.35-.99.36-1.66.35 10.39.35-.58.35-.76.36-.9.35-.98.35-1.07.36.82.35-1.26.35-1.25.36-1.39.35-1.59.35 3.21.36-.97.35-1.03.35-1.14.36-.4.35-1.13.35-.91.35 8.29.36-.53.35-.04.35 1.29.36-.15.35-.23.35-.29.36-.41.35-.45.35-.53.36.94.35-.4.35-.57.36.92.35-.3.35-.3.35-.57.36-.64.35-.71.35-.79.36-.91.35-1.03.35-1.13.36 6.96.35 1.24.35-.44.36-.5.35-.64.35-.52.36-.69.35-.84.35-.96.35-.97.36-.99.35 3.79.35-.45.36-.53.35-.57.35-.68.36-.84.35-.9.35 7.3.36-.41.35-.42.35 1.26.36.11.35-.08.35.41.35.6.36-.01.35 5.58.35-.66.36-.23.35-.88.35-1.48.36-1.56.35-1.86.35 2.29.36-.97.35-1.46.35-1.56.36-1.73.35-1.84.35 5.83.35-1.08.36-1.22.35-1.53.35-.68.36-1.61.35-.83.35-1.69.36-1.76.35.63.35-1.77.36-1.86.35-1.95.35-2.12.36-2.2.35-2.28.35-.93.35-2.01.36-2.08.35-2.25.35-2.23.36-.14.35 9.82.35-1.6.36-1.79.35-.03.35-1.75.36-1.79.35 21.5.35-1.35.36 1.35.35-.95.35-.48.35-1.06.36-1.04.35-1.08.35-1.19.36-1.12.35-1.27"/><use xlink:href="#d" color="#29C3F6" transform="matrix(3 0 0 3 77.49 115.35)"/><use xlink:href="#d" color="#29C3F6" transform="matrix(3 0 0 3 121.6 70.64)"/></g><text stroke-linecap="round" stroke-linejoin="round" color="#000" font-family="KaTeX_SansSerif" font-size="18" transform="translate(162.4 110.24)"><tspan>WBSTBottomUp</tspan></text><g fill="none" stroke="currentColor" stroke-linecap="round" stroke-linejoin="round" color="#000"><path stroke="#D336C8" d="M93.4 104.39h56.4M22.4 125.34l.35-14.68.36 25.41.35-5.46.35-10.5.36-11.4.35 15.42.35-6.59.35-7.32.36-8.91.35-10.37.35 13.17.36-6.02.35 20.97.35-5.76.36-2.02.35 4.49.35-2.17.36-2.72.35-3.73.35-4.06.36-4.29.35-4.55.35-4.89.35 13.83.36.03.35-3.11.35-3.76.36 3.02.35-2.69.35-2.87.36 14.65.35-2 .35-1.94.36-2.41.35-3 .35 11.93.36-1.61.35-2.06.35-2.22.35 1.42.36-2.37.35-2.67.35-2.96.36 4.14.35-2.34.35-2.59.36 3.75.35-1.91.35-2.2.36-2.59.35-1.08.35.44.36-1.69.35-2.17.35-1.07.35-2.45.36-2.71.35-2.82.35 12.66.36-2.15.35-2.39.35 2.11.36-1.91.35-1.99.35-2.05.36-2.2.35-2.46.35-2.53.36-2.68.35-2.78.35-2.62.35 4.09.36 1.74.35-1.72.35 3.39.36-1.02.35.46.35.12.36-.99.35 23.92.35-.56.36-.77.35-.83.35-.98.36-1.08.35 5.47.35-.55.35-.62.36-.73.35-.84.35.3.36.13.35.1.35-.03.36-.06.35-.12.35-.15.36-.27.35-.36.35-.39.36-.38.35 2.75.35-.36.35-.48.36-.52.35-.59.35-.69.36-.7.35-.64.35-.94.36-.89.35-.88.35 2.09.36.1.35-.32.35.51.36-.59.35-.65.35 1.08.35 3.93.36.24.35.17.35.14.36.1.35.4.35.15h.36l.35-.31.35-.35.36-.43.35-.66.35 2.47.36.6.35-.45.35-.66.35-.78.36 2.42.35-.3.35-.35.36 1.46.35-.22.35-.62.36-.91.35-1.27.35-1.36.36-1.55.35-2.02.35-2.12.36 3.42.35-1.42.35-1.75.35-1.91.36-2.24.35 14.17.35-1.54.36-1.71.35.08.35-1.62.36-1.89.35-2.07.35-1.94.36 7.1.35-1.43.35-1.72.35.41.36-1.34.35-1.38.35-.72.36-1.73.35-1.78.35-2.02.36 10.83.35-1.38.35-.52.36-1.36.35-1.43.35-1.22.36-1.5.35-1.61.35.28.35 1.29.36-.91.35-.94.35-.97.36-1 .35-1.06.35-1.16.36-1.24.35 3.17.35-.94.36.02.35-.08.35-.14.36-.24.35-.3.35-.35.35-.43.36-.46.35-.49.35-.57.36-.65.35-.42.35 6.1.36.04.35 1.26.35-.1.36-.2.35-.23.35-.2.36-.39.35 2.51.35.49.35-.09.36-.19.35-.22.35-.23.36.46.35-.35.35-.44.36.67.35-.67.35-.83.36 1.25.35 5.54.35-.16.36-.29.35-.41.35-.7.35-.78.36-.97.35-1.05.35 2.11.36-.38.35-.49.35-.37.36 3.05.35.83.35.52.36.59.35.66.35-.71.36.76.35.77.35-.82.35-1.1.36-1.37.35-1.55.35-1.89.36 1.65.35-1.36.35-1.49.36-1.61.35 13.79.35-1.03.36-1.15.35-1.3.35.25.36-1.45.35-1.7.35-1.99.35-1.52.36-1.19.35 3.91.35-1.17.36-1.3.35-1.4.35-1.5.36 10.81.35-.77.35-.88.36-1.06.35-1.14.35-1.23.36-1.15.35-1.37.35 3.79.35-.68.36-.84.35 1.3.35-.65.36-.78.35-.93.35-1 .36-1.12.35-1.24.35-.97.36-1.39.35-1.46.35-1.23.36 2.3.35-.07.35-.22.35-.16.36-.14.35.52.35-.49.36-.52.35-.64.35-.64.36-.78.35-.8.35 1.79.36-.63.35-.72.35 1.94.36.48.35-.63.35 7.35.35-.08.36-.19.35-.23.35-.44.36-.41.35-.4.35-.62.36.17.35-.6.35-.64.36 2.25.35-.55.35-.61.36 1.15.35-.78.35 5.05.35-.5.36-.65.35-.93.35 1.65.36-.3.35-.31.35.13.36 4.14.35.11.35 1.14.36-.26.35.77.35.01.35-.27.36-.34.35-.4.35-1.8.36-2.25.35-2.23.35.16.36-2.33.35-2.85.35-3.01.36-3.36.35-2.66.35 2.5.36-2.74.35-2.97.35 19.82.35-1.76.36-2.1.35 6.56.35-1.52.36-1.66.35-1.84.35 2.78.36-1.11.35 8.31.35-.86.36-.94.35-.96.35-1.15.36-1.12.35-1.35.35-1.42.35-1.54.36-1.67.35 4.16.35-1.62.36-1.62.35-1.75.35-1.87.36-1.99.35.93.35-.98.36-.97.35 1.48.35-.81.36-.55.35-.89.35-.88.35-.97.36 2.71.35-.35.35-.42.36-.54.35-.02.35-.3.36-.33.35-.52.35-.59.36-.73.35-.75.35-.92.36-1.07.35-1.05.35-1.17.35 3.04.36-1.01.35 11.15.35-.43.36-.53.35-.6.35-.6.36.81.35-.7.35-.72.36-.71.35-.58.35 2.9.36-.82.35-.94.35 6.09.35-.5.36-.55.35-.72.35-1.03.36-1.1.35-.92.35 5.03.36-.86.35-1.02.35 1.55.36-.57.35-.63.35-.86.36-.8.35 1.77.35-1.02.35-1.31.36-1.55.35.42.35.83.36-.51.35-.57.35-.91.36-1.68.35-1.79.35-1.93.36.74.35-1.2.35-1.49.36-1.72.35 10.79.35-2.23.35-2.4.36 3.87.35-1.1.35 13.78.36-.65.35-.74.35-.84.36-1.21.35-1.19.35-1.37.36-1.55.35-1.71.35-1.92.36-2.08.35-2.16.35 6.94.35-1.41.36-1.4.35 7.74.35 2.99.36-.62.35-.67.35-.67.36-.84.35-.84.35-.86.36-1.12.35-1.16.35-1.32.36 5.56.35-.64.35-.83.35-.96.36-.93.35-1.07.35-1.16.36-1.33.35-1.34.35-.75.36-1.38.35-1.5.35.05.36-.06.35-.13.35.49.36-.22.35-.31.35-.35.35-.53.36-.52.35-.63.35-.68.36-.73.35 8.97.35-.27.36-.19.35-.38.35-.34.36-.45.35 1.29.35-.54.35-.4.36-.79.35-.84.35-.9.36-1.07.35 1.17.35 6.42.36-.46.35-.48.35-.56.36-.77.35-.74.35-.81.36 5.01.35-.44.35-.75.35 1.92.36-.11.35.14.35-.27.36-.48.35 2.11.35-.32.36-.58.35-.12.35.22.36-.74.35-1.04.35-1.33.36-1.53.35-1.68.35-2.11.35-2.36.36-1.03.35-1.97.35-.63.36-2.93.35 13.93.35-2.35.36-2.47.35-1.17.35-2.7.36 14.68.35-2.3.35 1.77.36-1.99.35 2.29.35 2.94.35-1.48.36-1.73.35-1.57.35-2.08.36-1.91.35.16.35-2.13.36 9.68.35-1.4.35-1.3.36 5.59.35-.92.35-.62.36-.88.35-.91.35-1.1.35-1.19.36-1.21.35-.45.35-.67.36-.6.35-.74.35-1.23.36-1.42.35-1.48.35-1.52.36.7.35-1.38.35-1.44.36-1.49.35-1.46.35 7.13.35.07.36.01.35-.11.35-.11.36-.18.35-.22.35-.27.36-.31.35-.48.35-.44.36-.53.35-.45.35-.52.36-.51.35.56.35.25.35-.07.36-.22.35-.21.35-.11.36 1.32.35-.29.35 1.1.36-.46.35-.56.35 6.75.36-.13.35-.22.35-.21.36-.46.35-.63.35-.81.35-.9.36 8.37.35-.09.35-.23.36-.35.35-.42.35-.64.36-.73.35-.93.35-1.12.36-.65.35-1.09.35-.5.36.99.35 1.26.35.43.35.24.36.28.35-1.37.35-1.82.36-1.95.35-1.5.35-2.48.36-2.56.35-2.87.35-2.88.36 4.2.35-2.14.35-2.43.36-2.59.35 20.94.35-1.78.35-.91.36-2.13.35-2.34.35 1.94.36-1.89.35-1.1.35 11.84.36-1.24.35 2.27.35-.82.36-.95.35-1.2.35-1.28.35-1.33.36-1.44.35-1.63.35-1.68.36-1.77.35-1.83.35-1.86.36-1.91.35 2.48.35-1.65.36-1.78.35.31.35 2.14.36-1.06.35-1.31.35-1.42.35-1.48.36 1.66.35 1.2.35-1.05.36-1.19.35-1.32.35-1.29.36-.45.35.92.35.01.36-.19.35-.22.35-.33.36-.35.35 3.81.35-.14.35-.31.36 2.04.35-.3.35-.41.36-.52.35-.5.35-.68.36-.71.35-.75.35-.89.36-.97.35-.98.35-.23.36-.74.35-1.17.35-1.44.35-1.43.36 14.83.35-.01.35-.56.36 2.21.35-.6.35-.65.36-.8.35 5.18.35-.46.36.41.35-.76.35.27.36.39.35-.14.35 5.17.35.3.36.12.35-.18.35.09.36.73.35.06.35-.11.36 3.3.35-.14.35-1.68.36-2.09.35-2.2.35-2.4.36-2.6.35-2.82.35-.51.35-2.99.36 1.03.35-1.65.35-2.53.36-2.73.35 21.24.35-2.2.36-2.29.35-2.52.35-2.62.36-2.7.35 6.59.35-1.92.36-1.37.35-2.27.35 10.76.35-1.43.36-.07.35-1.58.35-1.84.36-1.99.35 3.37.35-1.58.36-1.82.35-1.1.35-1.86.36-2.01.35-2.09.35-2.12.36-2.24.35-2.22.35-2.37.35-2.32.36 10.76.35-1.47.35 2.63.36.21.35-1.23.35-1.35.36-.89.35-1.24.35-1.43.36-1.55.35.64.35.23.36.27.35.09.35-.05.35-.16.36-.2.35-.24.35-.42.36-.47.35-.55.35 7.6.36.14.35.07.35-.07.36.3.35-.18.35-.28.36-.34.35-.26.35 1.31.35-.19.36 3.64.35-.03.35-.15.36-.15.35-.38.35-.55.36-.67.35-.67.35-.91.36-1.07.35-1.04.35 5.03.36.61.35 9.05.35.29.35.06.36-.07.35.15.35-.29.36-.58.35-.66.35 1.05.36-.51.35.44.35-.6.36-.94.35-.76.35 3.09.35-.52.36-1.1.35-.35.35-1.46.36-1.76.35-1.97.35 1.1.36.08.35-1.63.35-1.77.36-1.87.35-2.3.35 16.46.36-1.7.35-1.89.35 2.52.35.05.36-1.11.35-1.32.35-1.38.36-1.26.35-1.65.35-1.82.36-1.85.35 10.28.35-1.2.36-1.33.35-.09.35-1.09.36-1.2.35-1.25.35-1.35.35-1.46.36-1.57.35-1.71.35-1.66.36-1.63.35-1.76.35-1.76.36 5.97.35-.19.35-1.1.36-1.23.35-1.24.35-1.41.36-1.38.35-1.47.35.85.35-1.29.36 1.42.35-.22.35-.26.36-.35.35-.5.35 1.78.36-.16.35-.47.35-.39.36.67.35-.62.35-.64.36.4.35 1.39.35-.31.35-.29.36-.17.35-.52.35-.02.36-.51.35 10.09.35.09.36-.04.35-.2.35-.32.36.94.35-.34.35-.55.36-.28.35-.59.35.85.35-.24.36-.32.35-.43.35 5.54.36-.25.35-.35.35-.44.36-.6.35-.35.35.54.36.63.35.16.35-.34.36 1.64.35.16.35 1.15.35.36.36 2.27.35.85.35.7.36-.25.35-.53.35-.9.36-.97.35-1.62.35-1.91.36-2.1.35 1.86.35.35.36-1.32.35-1.45.35-1.67.35 14.36.36-1.13.35-1.46.35-1.68.36 2.86.35-.64.35-.79.36-.97.35-1 .35-1.18.36-1.36.35-1.4.35-.73.36-1.82.35 11.3.35-1.1.35-1.08.36-1.35.35-1.13.35-1.24.36-1.34.35-1.42.35-1.41.36-1.49.35-1.66.35-.71.36-1.42.35 1.84.35 2.72.36-.45.35-.56.35-.65.35-.65.36-.67.35-.76.35-.8.36-.79.35-.91"/><use xlink:href="#b" color="#D336C8" transform="matrix(3 0 0 3 135.75 93.22)"/><use xlink:href="#b" color="#D336C8" transform="matrix(3 0 0 3 121.6 104.39)"/></g><text stroke-linecap="round" stroke-linejoin="round" color="#000" font-family="KaTeX_SansSerif" font-size="18" transform="translate(162.4 143.99)"><tspan>WBSTTopDown</tspan></text><g fill="none" stroke="currentColor" stroke-linecap="round" stroke-linejoin="round" color="#000"><path stroke="violet" stroke-dasharray="4.5,2.0,0.5,2.0,0.5,2.0" d="M93.4 138.14h56.4m-127.4 3.51.35-7.5.36-14.93.35-3.93.35-7.65.36 6.05.35-8.24.35-10.55.35 25.32.36-.14.35-6.53.35 1.75.36-6.51.35.67.35-5.35.36 3.68.35-4.43.35-3.71.36-4.13.35-4.97.35-5.1.36-3.88.35 15.08.35-3.33.35 5.99.36 1.66.35-1.35.35-1.81.36 5.11.35-.63.35-.99.36-1.34.35-1.72.35-2.28.36-1.32.35-2.8.35 12.17.36-1.4.35-1.86.35-2.01.35 1.56.36-2.21.35-2.52.35-2.84.36 4.22.35-2.28.35-2.5.36 3.82.35-1.81.35-2.09.36-2.49.35-1.01.35.52.36-1.62.35-2.08.35-.99.35-2.43.36-2.64.35-2.75.35 12.71.36-2.09.35-2.35.35 2.18.36-1.85.35-1.93.35-1.97.36-2.14.35-2.39.35-2.46.36-2.63.35-2.73.35-2.56.35 4.15.36 1.78.35-1.66.35 3.42.36-.98.35.5.35.16.36-.94.35 23.99.35-.56.36-.71.35-.79.35-.93.36-1.04.35 5.51.35-.5.35-.55.36-.69.35-.82.35.26.36.09.35.07.35-.09.36-.1.35-.19.35-.21.36-.32.35-.4.35-.43.36-.42.35 2.72.35-.39.35-.53.36-.54.35-.64.35-.69.36-.73.35-.66.35-.94.36-.88.35-.87.35.47.36.12.35-.26.35.54.36-.52.35 4.67.35-.2.35 3.9.36.23.35.15.35.11.36.08.35.37.35.08.36-.07.35-.31.35-.37.36-.45.35-.68.35 2.41.36.56.35-.48.35-.7.35-.81.36 5.62.35.14.35.08.36-.1.35-.22.35-.58.36-.92.35-1.31.35-1.36.36-1.58.35-2.04.35-2.11.36 3.45.35-1.44.35-1.76.35-1.93.36-2.26.35 14.15.35-1.53.36-1.75.35.06.35-1.62.36-1.92.35-2.08.35-1.96.36 7.1.35-1.45.35-1.75.35.41.36-1.36.35-1.38.35-.73.36-1.73.35-1.79.35-2.03.36 10.81.35-1.37.35-.52.36-1.37.35-1.46.35-1.21.36-1.51.35-1.61.35.26.35 1.28.36-.93.35-.95.35-.98.36-1.02.35-1.07.35-1.16.36-1.24.35 3.2.35-.94.36.03.35-.06.35-.14.36-.23.35-.28.35-.34.35-.42.36-.44.35-.48.35-.55.36-.61.35-.41.35 6.1.36.05.35 1.28.35-.08.36-.19.35-.22.35-.19.36-.38.35 2.55.35.49.35-.06.36-.18.35-.2.35-.23.36.5.35-.35.35-.45.36.69.35-.68.35-.81.36 1.28.35 3.62.35-.14.36-.3.35-.48.35-.69.35-.8.36-.99.35-1.04.35 2.05.36 2.12.35-.08.35.04.36 2.06.35.83.35.54.36.62.35.68.35-.75.36.77.35.72.35-.84.35-1.14.36-1.37.35-1.56.35-1.92.36 1.64.35-1.34.35-1.5.36-1.59.35 13.76.35-1.03.36-1.21.35-1.3.35.28.36-1.49.35-1.72.35-2.01.35-1.53.36-1.17.35 3.86.35-1.2.36-1.32.35-1.4.35-1.49.36 10.81.35-.79.35-.92.36-1.07.35-1.14.35-1.26.36-1.13.35-1.39.35 3.82.35-.67.36-.86.35 1.28.35-.64.36-.78.35-.93.35-1.01.36-1.12.35-1.25.35-.96.36-1.41.35-1.49.35-1.23.36 2.32.35-.08.35-.21.35-.16.36-.13.35.53.35-.49.36-.51.35-.64.35-.63.36-.76.35-.79.35 1.79.36-.57.35-.69.35 1.97.36.47.35-.63.35 7.35.35-.08.36-.19.35-.2.35-.46.36-.4.35-.37.35-.6.36.19.35-.59.35-.62.36 2.25.35-.54.35-.61.36 1.17.35-.76.35 3.13.35-.5.36-.68.35-.96.35 1.63.36-.32.35-.35.35.1.36 4.14.35.08.35 3.95.36.09.35-.04.35.02.35-.27.36-.32.35-.34.35-1.82.36-2.24.35-2.25.35.16.36-2.34.35-2.9.35-3.03.36-3.43.35-2.66.35 2.45.36-2.75.35-2.94.35 19.78.35-1.75.36-2.11.35 6.52.35-1.59.36-1.65.35-1.86.35 2.75.36-1.14.35 8.29.35-.8.36-.96.35-.98.35-1.18.36-1.16.35-1.35.35-1.43.35-1.55.36-1.68.35 4.11.35-1.6.36-1.65.35-1.57.35-1.87.36-1.98.35.9.35-.98.36-.98.35 1.49.35-.8.36-.57.35-.88.35-.86.35-.98.36 2.69.35-.32.35-.41.36-.53.35-.01.35-.31.36-.33.35-.5.35-.59.36-.72.35-.75.35-.92.36-1.06.35-1.06.35-1.15.35 3.05.36-1 .35 11.18.35-.44.36-.51.35-.57.35-.59.36.83.35-.68.35-.7.36-.71.35-.57.35 2.92.36-.81.35-.95.35 6.12.35-.48.36-.54.35-.7.35-.99.36-1.07.35-.9.35 3.07.36-.85.35-1.02.35 1.52.36-.55.35-.65.35-.87.36-.9.35 1.78.35-1.02.35 1.47.36-1.17.35-.36.35.87.36-.5.35-.55.35-.83.36-1.69.35-1.85.35-1.95.36.72.35-1.23.35-1.44.36-1.78.35 10.79.35-2.32.35-2.41.36 3.88.35-1.11.35 13.72.36-.87.35-.87.35-.89.36-1.25.35-1.22.35-1.44.36-1.58.35-1.7.35-1.95.36-2.1.35-2.2.35 6.95.35-1.42.36-1.42.35 7.75.35 2.97.36-.63.35-.64.35-.72.36-.84.35-.86.35-.87.36-1.11.35-1.16.35-1.33.36 5.54.35-.65.35-.82.35-.97.36-.94.35-1.12.35-1.15.36-1.34.35-1.36.35-.76.36-1.41.35-1.5.35.06.36-.07.35-.12.35.46.36-.21.35-.28.35-.34.35-.5.36-.51.35-.62.35-.67.36-.68.35 8.97.35-.26.36-.16.35-.36.35-.33.36-.4.35 1.28.35-.51.35-.39.36-.77.35-.72.35-.93.36-1.08.35 1.19.35 6.4.36-.45.35-.48.35-.57.36-.79.35-.72.35-.8.36 3.05.35-.46.35-.79.35 1.88.36-.14.35.11.35-.31.36-.48.35 1.98.35-.36.36 2.17.35.29.35-.59.36-.71.35-1.01.35-1.23.36-1.42.35-1.71.35-2.19.35-2.42.36-1.11.35-1.99.35-.72.36-2.96.35 13.93.35-2.37.36-2.47.35-1.15.35-2.73.36 14.71.35-2.32.35 1.76.36-1.97.35 2.3.35 2.79.35-1.5.36-1.73.35-1.6.35-2.12.36-1.92.35.13.35-2.13.36 9.65.35-1.41.35-1.33.36 5.57.35-.93.35-.66.36-.88.35-.96.35-1.1.35-1.18.36-1.22.35-.46.35-.69.36-.6.35-.75.35-1.23.36-1.38.35-1.47.35-1.53.36.7.35-1.38.35-1.47.36-1.48.35-1.54.35 7.03.35.11.36.03.35-.09.35-.1.36-.19.35-.2.35-.27.36-.29.35-.49.35-.46.36-.5.35-.46.35-.51.36-.5.35.56.35.28.35-.04.36-.21.35-.2.35-.14.36 1.31.35-.24.35 1.11.36-.46.35-.57.35 6.76.36-.12.35-.19.35-.2.36-.46.35-.62.35-.79.35-.88.36 6.43.35-.09.35-.24.36-.38.35-.45.35-.74.36-.77.35-.95.35-1.11.36-.67.35 1.59.35-.07.36.33.35 1.31.35.49.35.29.36.38.35-1.39.35-1.83.36-2.01.35-1.53.35-2.53.36-2.62.35-2.93.35-2.96.36 4.15.35-2.17.35-2.51.36-2.62.35 20.91.35-1.84.35-1.01.36-2.14.35-2.4.35 1.91.36-1.92.35-1.15.35 11.79.36-1.26.35 2.27.35-.86.36-.4.35-1.22.35-1.31.35-1.36.36-1.31.35-1.62.35-1.72.36-1.77.35-1.83.35-1.87.36-1.93.35 2.48.35-1.65.36-1.78.35.29.35 2.14.36-1.07.35-1.3.35-1.42.35-1.51.36 1.63.35 1.17.35-1.1.36-1.23.35-1.36.35-1.31.36-.43.35.93.35.02.36-.17.35-.2.35-.33.36-.37.35 3.82.35-.13.35-.3.36 2.03.35-.28.35-.38.36-.51.35-.52.35-.67.36-.69.35-.74.35-.87.36-.94.35-.98.35-.24.36-.75.35-1.15.35-1.44.35-1.36.36 14.82.35.01.35-.6.36 2.17.35-.61.35-.68.36-.72.35 3.26.35-.52.36.39.35-.75.35.29.36.37.35-.17.35 5.18.35.25.36.11.35 2.53.35.51.36.02.35.05.35-.04.36 3.34.35-.07.35-1.7.36-2.1.35-2.24.35-2.43.36-2.65.35-2.85.35-.5.35-2.99.36.99.35-1.66.35-2.6.36-2.74.35 21.23.35-2.2.36-2.32.35-2.5.35-2.67.36-2.74.35 6.57.35-1.93.36-1.38.35-2.28.35 10.76.35-1.38.36-.08.35-1.59.35-1.9.36-1.99.35 3.38.35-1.61.36-1.84.35-1.08.35-1.88.36-2.02.35-2.05.35-2.16.36-2.23.35-2.22.35-2.38.35-2.3.36 10.8.35-1.45.35 2.66.36.22.35-1.22.35-1.3.36-1.27.35-1.26.35-1.42.36-1.56.35.63.35.26.36.27.35.11.35-.04.35-.16.36-.19.35-.23.35-.4.36-.48.35-.52.35 7.61.36.14.35.07.35-.06.36.31.35-.18.35-.25.36-.33.35-.25.35 1.33.35-.18.36 3.65.35-.01.35-.13.36-.13.35-.38.35-.52.36-.67.35-.64.35-.9.36-1.06.35-1.01.35 3.08.36.6.35 9.03.35.26.35.05.36-.13.35.15.35-.31.36-.57.35-.68.35 3.62.36-.1.35-.17.35-.55.36-.91.35-.69.35 3.13.35-.56.36-1.15.35-.36.35-1.52.36-1.78.35-1.99.35 1.04.36.05.35-1.64.35-1.8.36-1.9.35-2.35.35 16.43.36-1.73.35-1.98.35 2.51.35.04.36-1.13.35-1.33.35-1.4.36-1.32.35-1.64.35-1.71.36-1.88.35 10.23.35-1.22.36-1.35.35-.11.35-1.1.36-1.23.35-1.26.35-1.35.35-1.45.36-1.55.35-1.7.35-1.68.36-1.66.35-1.77.35-1.8.36 5.96.35-.19.35-1.08.36-1.25.35-1.24.35-1.39.36-1.38.35-1.47.35.86.35-1.31.36 1.41.35-.18.35-.25.36-.33.35-.48.35 1.78.36-.12.35-.48.35-.35.36.68.35-.61.35-.64.36.41.35 1.4.35-.27.35-.28.36-.15.35-.52.35.01.36-.58.35 10.09.35.16.36-.02.35-.2.35-.33.36.97.35-.31.35-.55.36-.27.35-.57.35.87.35-.25.36-.29.35-.41.35 3.6.36-.2.35-.36.35-.44.36-.64.35-.26.35.53.36.6.35.21.35-.38.36 4.14.35.56.35.63.35.37.36 2.29.35.87.35.71.36-.3.35-.56.35-.95.36-.99.35-1.65.35-1.97.36-2.12.35 1.84.35.31.36-1.39.35-1.47.35-1.68.35 14.32.36-1.12.35-1.48.35-1.68.36 2.82.35-.66.35-.84.36-.99.35-1.02.35-1.24.36-1.37.35-1.46.35-.77.36-1.83.35 11.27.35-1.04.35-1.01.36-1.2.35-1.31.35-1.27.36-1.35.35-1.43.35-1.44.36-1.51.35-1.66.35-.7.36-1.44.35 1.82.35 2.7.36-.47.35-.55.35-.66.35-.68.36-.67.35-.77.35-.79.36-.87.35-.9"/><use xlink:href="#e" color="violet" transform="matrix(3 0 0 3 194.02 95.96)"/><use xlink:href="#e" color="violet" transform="matrix(3 0 0 3 121.6 138.14)"/></g><path fill="none" d="M22.4 60.01V164M371.99 60.01H22.4" color="#000"/><text stroke-linecap="round" stroke-linejoin="round" stroke-width="0" color="#000" font-family="KaTeX_Main" font-size="8" text-anchor="middle" transform="translate(197.19 8.61)"><tspan>InsertDeleteCyclesPersistent - Skewed</tspan></text></svg>