<svg xmlns="http://www.w3.org/2000/svg" xmlns:xlink="http://www.w3.org/1999/xlink" viewBox="0 0 400 250"><path fill="none" d="M0 0h400v250H0z"/><defs><use xlink:href="#a" id="g" fill="currentColor" stroke="none"/><use xlink:href="#b" id="h" fill="currentColor" stroke="none"/><use xlink:href="#b" id="c" stroke="currentColor" transform="rotate(180)"/><use xlink:href="#d" id="e" stroke="currentColor" transform="rotate(45)"/><path id="d" stroke="currentColor" stroke-width=".267" d="M-1-1h2v2h-2z"/><path id="b" stroke="currentColor" stroke-width=".267" d="m0-1.33-1.33 2h2.66z"/><path id="f" stroke="currentColor" stroke-width=".267" d="M0 1.33 1.265.411.782-1.067l-1.564-.009-.483 1.487z"/><circle id="a" cx="0" cy="0" r="1" stroke="currentColor" stroke-width=".267"/></defs><path fill="none" stroke="#000" stroke-linecap="round" stroke-linejoin="round" stroke-width=".1" d="M35.48 205V45.01" class="gridline" color="#000"/><g fill="none" stroke="none" stroke-linecap="round" stroke-linejoin="round" stroke-width="0" color="#000"><path d="M35.48 205v-7.5m0-152.49v7.5"/><text fill="#000" font-family="KaTeX_Main" font-size="10" text-anchor="middle" transform="translate(35.48 215.75)"><tspan> 1</tspan></text></g><path fill="none" stroke="#000" stroke-linecap="round" stroke-linejoin="round" stroke-width=".1" d="M72.87 205V45.01" class="gridline" color="#000"/><g fill="none" stroke="none" stroke-linecap="round" stroke-linejoin="round" stroke-width="0" color="#000"><path d="M72.87 205v-7.5m0-152.49v7.5"/><text fill="#000" font-family="KaTeX_Main" font-size="10" text-anchor="middle" transform="translate(72.87 215.75)"><tspan> 2</tspan></text></g><path fill="none" stroke="#000" stroke-linecap="round" stroke-linejoin="round" stroke-width=".1" d="M110.26 205V45.01" class="gridline" color="#000"/><g fill="none" stroke="none" stroke-linecap="round" stroke-linejoin="round" stroke-width="0" color="#000"><path d="M110.26 205v-7.5m0-152.49v7.5"/><text fill="#000" font-family="KaTeX_Main" font-size="10" text-anchor="middle" transform="translate(110.26 215.75)"><tspan> 3</tspan></text></g><path fill="none" stroke="#000" stroke-linecap="round" stroke-linejoin="round" stroke-width=".1" d="M147.65 205V45.01" class="gridline" color="#000"/><g fill="none" stroke="none" stroke-linecap="round" stroke-linejoin="round" stroke-width="0" color="#000"><path d="M147.65 205v-7.5m0-152.49v7.5"/><text fill="#000" font-family="KaTeX_Main" font-size="10" text-anchor="middle" transform="translate(147.65 215.75)"><tspan> 4</tspan></text></g><path fill="none" stroke="#000" stroke-linecap="round" stroke-linejoin="round" stroke-width=".1" d="M185.04 205V45.01" class="gridline" color="#000"/><g fill="none" stroke="none" stroke-linecap="round" stroke-linejoin="round" stroke-width="0" color="#000"><path d="M185.04 205v-7.5m0-152.49v7.5"/><text fill="#000" font-family="KaTeX_Main" font-size="10" text-anchor="middle" transform="translate(185.04 215.75)"><tspan> 5</tspan></text></g><path fill="none" stroke="#000" stroke-linecap="round" stroke-linejoin="round" stroke-width=".1" d="M222.43 205V45.01" class="gridline" color="#000"/><g fill="none" stroke="none" stroke-linecap="round" stroke-linejoin="round" stroke-width="0" color="#000"><path d="M222.43 205v-7.5m0-152.49v7.5"/><text fill="#000" font-family="KaTeX_Main" font-size="10" text-anchor="middle" transform="translate(222.43 215.75)"><tspan> 6</tspan></text></g><path fill="none" stroke="#000" stroke-linecap="round" stroke-linejoin="round" stroke-width=".1" d="M259.82 205V45.01" class="gridline" color="#000"/><g fill="none" stroke="none" stroke-linecap="round" stroke-linejoin="round" stroke-width="0" color="#000"><path d="M259.82 205v-7.5m0-152.49v7.5"/><text fill="#000" font-family="KaTeX_Main" font-size="10" text-anchor="middle" transform="translate(259.82 215.75)"><tspan> 7</tspan></text></g><path fill="none" stroke="#000" stroke-linecap="round" stroke-linejoin="round" stroke-width=".1" d="M297.21 205V45.01" class="gridline" color="#000"/><g fill="none" stroke="none" stroke-linecap="round" stroke-linejoin="round" stroke-width="0" color="#000"><path d="M297.21 205v-7.5m0-152.49v7.5"/><text fill="#000" font-family="KaTeX_Main" font-size="10" text-anchor="middle" transform="translate(297.21 215.75)"><tspan> 8</tspan></text></g><path fill="none" stroke="#000" stroke-linecap="round" stroke-linejoin="round" stroke-width=".1" d="M334.6 205V45.01" class="gridline" color="#000"/><g fill="none" stroke="none" stroke-linecap="round" stroke-linejoin="round" stroke-width="0" color="#000"><path d="M334.6 205v-7.5m0-152.49v7.5"/><text fill="#000" font-family="KaTeX_Main" font-size="10" text-anchor="middle" transform="translate(334.6 215.75)"><tspan> 9</tspan></text></g><path fill="none" stroke="#000" stroke-linecap="round" stroke-linejoin="round" stroke-width=".1" d="M371.99 205V45.01" class="gridline" color="#000"/><g fill="none" stroke="none" stroke-linecap="round" stroke-linejoin="round" stroke-width="0" color="#000"><path d="M371.99 205v-7.5m0-152.49v7.5"/><text fill="#000" font-family="KaTeX_Main" font-size="10" text-anchor="middle" transform="translate(371.99 215.75)"><tspan> 10</tspan></text></g><g fill="none" stroke="none" stroke-linecap="round" stroke-linejoin="round" stroke-width="0" color="#000"><path d="M371.99 205h-7.5"/><text fill="#000" font-family="KaTeX_Main" font-size="10" transform="translate(378.99 208.25)"><tspan>0.88</tspan></text></g><g fill="none" stroke="none" stroke-linecap="round" stroke-linejoin="round" stroke-width="0" color="#000"><path d="M371.99 187.22h-7.5"/><text fill="#000" font-family="KaTeX_Main" font-size="10" transform="translate(378.99 190.47)"><tspan>0.88</tspan></text></g><g fill="none" stroke="none" stroke-linecap="round" stroke-linejoin="round" stroke-width="0" color="#000"><path d="M371.99 169.45h-7.5"/><text fill="#000" font-family="KaTeX_Main" font-size="10" transform="translate(378.99 172.7)"><tspan>0.89</tspan></text></g><g fill="none" stroke="none" stroke-linecap="round" stroke-linejoin="round" stroke-width="0" color="#000"><path d="M371.99 151.67h-7.5"/><text fill="#000" font-family="KaTeX_Main" font-size="10" transform="translate(378.99 154.92)"><tspan>0.89</tspan></text></g><g fill="none" stroke="none" stroke-linecap="round" stroke-linejoin="round" stroke-width="0" color="#000"><path d="M371.99 133.89h-7.5"/><text fill="#000" font-family="KaTeX_Main" font-size="10" transform="translate(378.99 137.14)"><tspan>0.90</tspan></text></g><g fill="none" stroke="none" stroke-linecap="round" stroke-linejoin="round" stroke-width="0" color="#000"><path d="M371.99 116.12h-7.5"/><text fill="#000" font-family="KaTeX_Main" font-size="10" transform="translate(378.99 119.37)"><tspan>0.90</tspan></text></g><g fill="none" stroke="none" stroke-linecap="round" stroke-linejoin="round" stroke-width="0" color="#000"><path d="M371.99 98.34h-7.5"/><text fill="#000" font-family="KaTeX_Main" font-size="10" transform="translate(378.99 101.59)"><tspan>0.91</tspan></text></g><g fill="none" stroke="none" stroke-linecap="round" stroke-linejoin="round" stroke-width="0" color="#000"><path d="M371.99 80.56h-7.5"/><text fill="#000" font-family="KaTeX_Main" font-size="10" transform="translate(378.99 83.81)"><tspan>0.91</tspan></text></g><g fill="none" stroke="none" stroke-linecap="round" stroke-linejoin="round" stroke-width="0" color="#000"><path d="M371.99 62.79h-7.5"/><text fill="#000" font-family="KaTeX_Main" font-size="10" transform="translate(378.99 66.04)"><tspan>0.92</tspan></text></g><g fill="none" stroke="none" stroke-linecap="round" stroke-linejoin="round" stroke-width="0" color="#000"><path d="M371.99 45.01h-7.5"/><text fill="#000" font-family="KaTeX_Main" font-size="10" transform="translate(378.99 48.26)"><tspan>0.92</tspan></text></g><path fill="none" stroke="none" stroke-linecap="round" stroke-linejoin="round" stroke-width="0" d="M28 45.01V205M371.99 45.01H28" color="#000"/><text fill="#000" stroke="none" stroke-linecap="round" stroke-linejoin="round" stroke-width="0" color="#000" font-family="KaTeX_Main" font-size="10" text-anchor="middle" transform="rotate(-90 68.255 56.755)"><tspan font-weight="bold">AveragePathLength </tspan><tspan> / log</tspan><tspan dy="3" font-size="8">2</tspan><tspan dy="-3">(Size)</tspan></text><text fill="#000" stroke="none" stroke-linecap="round" stroke-linejoin="round" stroke-width="0" color="#000" font-family="KaTeX_Main" font-size="10" text-anchor="middle" transform="translate(199.99 238.25)"><tspan>Operations × 10</tspan><tspan dy="-5" font-size="8">5</tspan></text><text fill="#000" stroke="none" stroke-linecap="round" stroke-linejoin="round" color="#000" font-family="KaTeX_Main" font-size="8" transform="translate(132.8 10.11)"><tspan>LBSTBottomUp</tspan></text><g fill="none" stroke="currentColor" stroke-linecap="round" stroke-linejoin="round" color="#000"><path stroke="#3B75EA" d="M97.3 7.51h29.9M28 180.97l.37-.96.38-.9.37-.83.38-.77.37-.71.37-.66.38-.61.37-.55.38-.5.37-.46.37-.41.38-.37.37-.33.37-.3.38-.25.37-.21.38-.19.37-.15.37-.12.38-.09.37.07.38.11.37-2.05.37 2.34.38-1.77.37-2.3.38 2.66.37 2.42.37-1.5.38-1.94.37-4.43.37-.15.38 8.18.37-1.98.38 3.39.37 2.53.37-.81.38-1.81.37-3.28.38-.26.37-3.24.37-6.07.38 2.36.37-1.77.38 23.24.37-2.64.37-1.8.38-1.4.37 12.32.38-2.18.37 6.3.37 2.24.38 2.26.37-1.74.37-1.06.38-.79.37-.76.38-4.86.37 3.26.37-.62.38-.67.37-4.58.38-4.58.37-8.73.37-.87.38 12.06.37-4.57.38 4.28.37 3.28.37 7.77.38-.14.37-.02.37.08.38.19.37.26.38.35.37.43.37.5.38.56.37.62.38.67.37.73.37.78.38.81.37-.21.38-2.45.37-2.31.37-2.17.38-2.05.37-1.92.38-1.81.37-1.7.37-1.6.38-1.5.37-1.4.37-1.31.38-1.23.37-1.15.38-1.08.37-.99.37-.93.38-.87.37-.8.38-.74.37-.68.37-.62.38-.58.37-.52.38-.48.37-.43.37-.38.38-.35.37-.3.37-.27.38-.22.37-.2.38-.16.37 1.73.37-.12.38-.08.37.17.38-1.58.37 1.95.37-2.02.38-2.07.37 2.71.38 1.84.37-1.08.37-1.93.38-3.43.37-.56.38 8.09.37-1.9.37 3.26.38.68.37.74.37-3.13.38-1.76.37-1.77.38-2.13.37-5.63.37 2.06.38-1.82.37 22.65.38-2.27.37-1.51.37-1.54.38 11.44.37-1.77.38 5.65.37 2.02.37 2.14.38-1.23.37-.98.37-.96.38-.97.37-4.53.38-4.5.37 2.65.37 2.71.38-4.56.37-4.59.38-8.03.37-1.42.37 11.94.38-4.63.37 2.91.38 2.93.37 11.04.37.34.38-.12.37-.02.38.1.37.18.37.28.38.36.37.43.37.51.38.56.37.63.38.68.37.74.37.78.38.26.37-2.55.38-2.4.37-2.26.37-2.12.38-2 .37-1.87.38-1.77.37-1.65.37-1.55.38-1.46.37-1.36.37-1.28.38-1.19.37-1.11.38-1.04.37-.96.37-.89.38-.83.37-.77.38-.71.37-.65.37-.59.38-.55.37-.49.38-.45.37-.4.37-.36.38-.32.37-.28.38-.24.37-.2.37-.17.38 3.62.37-.15.37-.12.38-.08.37-1.21.38 1.59.37-1.18.37-1.97.38 2.58.37 1.58.38-.84.37-3.15.37-2.02.38-2.12.37 8.98.38-2.86.37 3.79.37.69.38.8.37-2.57.37-1.77.38-1.83.37-1.93.38-5.12.37 1.32.37-1.79.38 21.8.37-1.9.38-1.57.37-1.53.37 10.88.38-1.43.37-1.44.38 5.04.37 4.93.37-.86.38-1.05.37-4.43.38 1.88.37-3.78.37-4.56.38 2.8.37 1.03.37-3.57.38-4.66.37-7.53.38-2.06.37 11.67.37-4.71.38 3.77.37 2.17.38 14.53.37.14.37-2.08.38-.1.37.02.38.11.37.22.37.3.38.38.37.46.37.53.38.59.37.65.38.7.37.75.37.77.38-2.64.37-2.48.38-2.33.37-2.2.37-2.06.38-1.94.37-1.82.38-1.71.37-1.6.37-1.5.38-1.4.37-1.31.38-1.23.37-1.15.37-1.06.38-.99.37-.92.37-.85.38-.79.37-.73.38-.67.37-.61.37-.56.38-.51.37-.46.38-.41.37-.37.37-.32.38-.29.37-.25.38-.2.37-.18.37 5.56.38-.18.37-.13.37-.11.38-.08.37.08.38.21.37-3.12.37 3.5.38.03.37.35.38-2.76.37-1.93.37-1.97.38 8.47.37-2.56.38 3.59.37.51.37.71.38-2.19.37-1.83.38-1.93.37-1.81.37-4.76.38.99.37-4.73.37.84.38 21.29.37-1.77.38-4.28.37 1.11.37 10.36.38-1.42.37 5.03.38 4.5.37-.45.37-1.95.38-3.61.37 1.4.38-3.54.37-4.44.37 2.67.38 1.29.37-3.09.37-4.61.38-6.77.37-2.78.38 11.12.37-6.71.37 5.2.38-.45.37 19.43.38-2.13.37.09.37.43.38-.11h.37l.38.11.37.21.37.29.38.38.37.44.38.52.37.59.37.64.38.69.37.75.37-2.24.38-2.6.37-2.44.38-2.29.37-2.15.37-2.03.38-1.9.37-1.78.38-1.67.37-1.57.37-1.47.38-1.37.37-1.28.38-1.19.37-1.12.37-1.03.38-.97.37-.89.37-.83.38-.76.37-.7.38-.64.37-.59.37-.54.38-.48.37-.44.38-.39.37-.34.37-.31.38-.26.37-.23.38-.19.37 7.52.37-.21.38-.17.37-.14.38-.11.37-.08.37.17.38-2.61.37 3.07.37.23.38.25.37-2.54.38-1.95.37-1.96.37 7.9.38-2.2.37 3.2.38.56.37.61.37-1.91.38-2 .37-4.36.38.41.37-4.3.37-4.99.38.87.37.4.37 21.06.38-1.62.37-3.84.38-.18.37 10.51.37-1.56.38 4.9.37 3.94.38-.02.37-1.27.37-2.97.38.7.37-2.87.38-6.3.37 4.13.37-1.09.38-1.17.37-6.16.38-4.68.37-5.3.37 12.25.38-5.92.37 4.63.37-.58.38 21.75.37-1.2.38.11.37-.09.37.38.38-.13.37-.02.38.09.37.19.37.27.38.36.37.43.38.5.37.57.37.62.38.68.37-1.81.37-2.72.38-2.55.37-2.4.38-2.26.37-2.12.37-1.99.38-1.87.37-1.75.38-1.64.37-1.54.37-1.44.38-1.34.37-1.26.38-1.17.37-1.08.37-1.02.38-.94.37-.86.37-.81.38-.74.37-.68.38-.62.37-.57.37-.51.38-.46.37-.42.38-.37.37-.33.37-.29.38-.25.37-.21.38-.17.37 9.46.37-.21.38-.18.37-.15.38-.11.37-.09.37-2.3.38 2.64.37.18.37.25.38-2.1.37-2.01.38-4.41.37.2.37 7.5.38-1.95.37 3 .38 2.45.37-1.59.37-1.82.38-3.99.37.18.38-4.58.37-4.62.37.79.38-.15.37 20.75.37-1.59.38-3.43.37.06.38 10.38.37-1.49.37 4.7.38 1.72.37 1.72.38-2.66.37-1.41.37-1.13.38-1.56.37-5.74.38 3.51.37-1.02.37-1.02.38-5.6.37-4.81.38-4.91.37 11.15.37-5.4.38 3.83.37-.75.37 23.9.38-.43.37-.11.38.06.37.1.37-4.37.38-.05.37.06.38.17.37.25.37.35.38.42.37.49.38.57.37.62.37.69.38-1.3.37-2.78.37-2.61.38-2.46.37-2.3.38-2.16.37-2.03.37-1.9.38-1.78.37-1.67.38-1.56.37-1.46.37-1.36.38-1.27.37-1.18.38-1.1.37-1.02.37-.95.38-.87.37-.81.38-.74.37-.68.37-.62.38-.57.37-.51.37-.46.38-.41.37-.36.38-.32.37-.29.37-.23.38-.2.37-.17.38 11.52.37-.22.37-.2.38-.15.37-.13.38-.09.37-.07.37-2.12.38 2.28.37 2.27.37-1.77.38-2.32.37-4 .38-.07.37 7.53.37-1.96.38 2.32.37 2.25.38-1.11.37-2.03.37-3.49.38-.23.37-3.52.38-4.61.37.79.37-.49.38 20.38.37-3.13.38-1.73.37-1.82.37 11.38.38-2.67.37 5.33.37 1.59.38 1.84.37-2.25.38-1.21.37-1.23.37-1.27.38-5.32.37 2.69.38-1.12.37-1.09.37-5.17.38-4.81.37-4.82.38 10.43.37-4.92.37-4.95.38 2.89.37 3.04.37 26.77.38-.13.37-4.41.38 3.81.37-3.65.37-4.35.38.04.37.14.38.25.37.33.37.42.38.49.37.57.38.63.37.68.37-.75.38-2.84.37-2.67.38-2.51.37-2.34.37-2.21.38-2.06.37-1.93.37-1.81.38-1.7.37-1.57.38-1.48.37-1.38.37-1.28.38-1.19.37-1.11.38-1.02.37-.95.37-.88.38-.81.37-.74.38-.67.37-.62.37-.56.38-.51.37-.45.37-.4.38-.36.37-.31.38-.27.37-.23.37-.19.38-.15.37 13.63.38-.24.37-.2.37-.17.38-.14.37-.1.38-.07.37-.05.37 2.37.38 1.88.37-2.03.38-2.04.37-3.71.37-.42.38 7.46.37-1.96.37 2.81.38 1.95.37-.85.38-1.9.37-3.2.37-1.95.38-1.99.37-5.85.38 1.84.37-1.94.37 20.71.38-2.66.37-1.62.38-1.67.37 10.74.37-2.3.38 4.99.37 1.58.37 1.46.38-1.78.37-1.3.38-1.34.37-1.34.37-4.77.38 2.21.37-1.26.38-1.35.37-4.72.37-5.01.38-8.23.37-1.65.38 9.73.37-5.01.37 3 .38 2.22.37 29.85.38-1.3.37-3.26.37 2.96.38-3.17.37-4.3.37 4.96.38-.07.37.04.38.14.37.24.37.33.38.4.37.48.38.55.37-.34.37-3.05.38-2.86.37-2.69.38-2.52.37-2.37.37-2.22.38-2.08.37-1.94.37-1.83.38-1.7.37-1.6.38-1.49.37-1.39.37-1.29.38-1.2.37-1.12.38-1.04.37-.96.37-.89.38-.81.37-.75.38-.69.37-.63.37-.57.38-.51.37-.47.38-.41.37-.36.37-.32.38-.28.37-.24.37-.2.38 15.74.37-.3.38-.27.37-.24.37-.2.38-.16.37-.13.38-.1.37-.07.37 1.49.38-1.15.37-1.98.38-3.26.37-.85.37 7.27.38-3.19.37 3.89.37.31.38.53.37-3.15.38-1.9.37-1.92.37-1.9.38-5.26.37 1.39.38-2.03.37 20.27.37-2.41.38-1.69.37-1.68.38 10.06.37-1.98.37 4.57.38 1.39.37 1.54.38-1.48.37-1.46.37-4.5.38 1.44.37-4.31.37-4.65.38 1.59.37 1.55.38-4.06.37-4.79.37-7.64.38-3.16.37 9.82.38-4.85.37 2.56.37 1.63.38 32.51.37-.34.38-2.68.37 2.26.37-2.36.38-4.38.37 4.52.37.17.38-.1.37.02.38.12.37.21.37.3.38.38.37.46.38.15.37-3.21.37-3.01.38-2.83.37-2.65.38-2.48.37-2.34.37-2.18.38-2.05.37-1.92.38-1.79.37-1.68.37-1.56.38-1.47.37-1.36.37-1.27.38-1.18.37-1.09.38-1.01.37-.94.37-.87.38-.79.37-.73.38-.67.37-.61.37-.55.38-.49.37-.44.38-.4.37-.35.37-.3.38-.26.37-.22.37 17.92.38-.36.37-.32.38-.27.37-.25.37-.2.38-.17.37-.14.38-.11.37-.08"/><use xlink:href="#a" color="#3B75EA" transform="matrix(3.75 0 0 3.75 342.45 172.74)"/><use xlink:href="#a" color="#3B75EA" transform="matrix(3.75 0 0 3.75 112.25 7.51)"/></g><text fill="#000" stroke="none" stroke-linecap="round" stroke-linejoin="round" color="#000" font-family="KaTeX_Main" font-size="8" transform="translate(132.8 25.11)"><tspan>LBSTTopDown</tspan></text><g fill="none" stroke="currentColor" stroke-linecap="round" stroke-linejoin="round" color="#000"><path stroke="#F44336" stroke-dasharray="4.5,2.0,0.5,2.0,0.5,2.0" d="M97.3 22.51h29.9M28 67.08l.37-7.75.38 74.66.37-8 .38-2.17.37-7.42.37-12.16.38 8.38.37-6.78.38-1.87.37-6.52.37 27.18.38-6.47.37-1.65.37-6.38.38 7.81.37-5.97.38-2.38.37-5.76.37-11.72.38-7.46.37 38.26.38-.42.37-.4.37-.38.38-.36.37-.34.38-.31.37-.29.37-.26.38-.24.37-.2.37-.17.38-.14.37-.11.38-.07.37-.04.37-1.6.38-2.63.37-2.66.38-2.69.37-2.71.37-2.75.38-2.77.37-2.81.38-2.83.37-2.88.37-2.9.38-2.93.37-2.97.38-3 .37-3.04.37-3.07.38 56.74.37-2.16.37-2.16.38-2.17.37-2.17.38-2.17.37-2.17.37-2.18.38-2.17.37-2.17.38-2.16.37-2.15.37-2.15.38-2.13.37-2.12.38-2.1.37-2.08.37 43 .38 1.77.37-7.91.37 19.54.38-6.68.37 1.64.38-6.26.37-19.86.37-9.11.38-1.08.37-8.78.38 14.32.37-8.08.37-1.31.38-7.61.37 41.5.38-7.67.37-.74.37-8.72.38 12.69.37-6.88.38-.6.37-6.55.37-13.46.38-8.83.37-2.67.37-8.59.38 9.32.37-7.99.38-13.35.37-1.9.37-7.52.38 31.09.37-7.39.38-2.31.37-6.99.37 8.83.38-6.92.37-1.49.38-7.51.37 50 .37-6.71.38-1.83.37-6.39.37 7.97.38-6.63.37-1.4.38-6.05.37 25.72.37-5.93.38-3.42.37-.46.38-.44.37-.43.37-.4.38-.38.37-.36.38-.34.37-1.85.37-2.67.38-2.7.37-2.74.38-2.77.37-2.8.37-2.83.38-2.87.37-2.9.37-2.94.38-2.98.37-3.01.38-3.04.37-3.09.37-3.13.38-3.17.37 75.05.38-2.12.37-2.13.37-2.13.38-2.15.37-2.16.38-2.17.37-2.18.37-2.18.38-2.2.37-2.2.37-2.21.38-2.22.37-2.22.38-2.23.37-2.22.37-2.23.38 38.59.37-1.46.38-1.43.37-1.39.37-1.36.38-1.31.37-1.26.38-1.21.37-1.15.37-1.09.38-7.37.37 20.08.38-7.38.37 1.93.37-7.31.38-15.63.37-9.6.37-1.4.38-8.87.37 14.65.38-10.14.37-.66.37-8.09.38 42.53.37-8.04.38-1.41.37-7.5.37 12.98.38-7.43.37-.42.38-12.93.37-6.26.37-15.27.38-8.91.37-2.47.37-8.11.38 8.95.37-7.89.38-2.19.37-7.37.37 31.34.38-8.68.37-1.9.38-6.99.37 8.63.37-6.83.38-2.05.37-6.41.38 52.53.37-6.97.37-1.79.38-6.41.37 5.67.38-6.26.37-1.63.37-5.89.38 25.87.37-6.41.37-1.44.38-5.66.37-.5.38-.49.37-.47.37-.45.38-.43.37-.41.38-1.55.37-2.72.37-2.76.38-2.78.37-2.82.38-2.85.37-2.88.37-2.92.38-2.96.37-3 .37-3.02.38-3.08.37-3.1.38-3.15.37-3.2.37-3.23.38 76.28.37-2.18.38-2.19.37-2.21.37-2.22.38-2.24.37-2.25.38-2.26.37-2.27.37-2.29.38-2.29.37-2.31.38-2.32.37-2.32.37-2.34.38-2.34.37-2.35.37 40.89.38-1.56.37-1.54.38-1.5.37-1.48.37-1.44.38-1.4.37-1.35.38-1.31.37-1.25.37-1.19.38 19.84.37-7.35.38-.16.37-6.56.37-15.63.38-10.09.37-1.34.37-8.95.38 13.92.37-8.67.38-1.06.37-7.92.37 43 .38-15.12.37-7.81.38-.44.37-7.5.37 13.07.38-7.64.37-.13.38-6.58.37-15.23.37-8.96.38-2.42.37-9.75.38 9.66.37-8.28.37-1.94.38-7.63.37 31.25.37-7.66.38-1.85.37-7.41.38 8.91.37-9.45.37-1.47.38-6.62.37 55.14.38-6.97.37-1.75.37-7.09.38 8 .37-6.57.38-1.44.37-6.13.37 25.16.38-6.14.37-1.39.37-6 .38 7.48.37-.42.38-.39.37-.38.37-.35.38-.33.37-1.12.38-2.6.37-2.64.37-2.67.38-2.69.37-2.73.38-2.76.37-2.79.37-2.83.38-2.86.37-2.89.38-2.93.37-2.96.37-3 .38-3.04.37-3.08.37-3.11.38 78.81.37-2.02.38-2.03.37-2.05.37-2.04.38-2.06.37-2.07.38-2.07.37-2.08.37-2.08.38-2.09.37-2.1.38-2.1.37-2.1.37-2.1.38-2.1.37 43.49.37-1.27.38-1.24.37-1.19.38-1.16.37-1.11.37-1.06.38-1.01.37-.94.38-.88.37-.81.37-.73.38-8.58.37 1.88.38-7.05.37-15.65.37-10.24.38-1.3.37-17.27.38-8.79.37 14.69.37-8.29.38-.58.37-8.49.37 43.25.38-7.87.37-.91.38-7.44.37 11.67.37-7.03.38-.34.37-6.89.38-14.9.37-9 .37-3.23.38-8.54.37 9.5.38-8.12.37-2.15.37-10.44.38 32.16.37-7.65.37-2.19.38-7.31.37 8.48.38-6.98.37-1.65.37-6.85.38 58.02.37-7 .38-3.03.37-6.73.37 7.86.38-6.44.37-1.62.38-6.64.37 26.38.37-6.15.38-1.7.37-5.94.38-10.11.37 7.63.37-.5.38-.49.37-.47.37-.45.38-.88.37-2.71.38-2.73.37-2.77.37-2.8.38-2.83.37-2.87.38-2.9.37-2.94.37-2.97.38-3.01.37-3.05.38-3.09.37-3.13.37-3.17.38-3.21.37-3.26.37 79.91.38-2.17.37-2.18.38-2.19.37-2.21.37-2.22.38-2.24.37-2.25.38-2.26.37-2.27.37-2.29.38-2.29.37-2.31.38-2.32.37-2.32.37-2.34.38 45.49.37-1.49.38-1.47.37-1.45.37-1.41.38-1.38.37-1.34.37-1.31.38-1.26.37-1.21.38-1.15.37-1.09.37-1.03.38-7.42.37 1.72.38-6.79.37-18.54.37-10.72.38-1.12.37-9.39.38 15.3.37-8.74.37-2.3.38-8.06.37 44.1.37-8.48.38-.72.37-8.35.38 13.48.37-7.39.37-.58.38-6.91.37-14.56.38-12.34.37-2.66.37-8.94.38 9.96.37-8.4.38-2.71.37-7.91.37 32.7.38-8.11.37-2.05.37-8.71.38 9.21.37-7.23.38-1.82.37-6.85.37 61 .38-7.75.37-1.98.38-7.06.37 8.16.37-6.69.38-11.11.37-1.51.38-6.03.37 26.34.37-6.13.38-1.89.37-5.77.38 7.57.37-5.82.37-.55.38-.53.37-.52.37-.61.38-2.75.37-2.78.38-2.81.37-2.84.37-2.88.38-2.92.37-2.95.38-2.99.37-3.02.37-3.07.38-3.1.37-3.14.38-3.19.37-3.23.37-3.27.38-3.31.37 81.04.37-2.23.38-2.25.37-2.26.38-2.28.37-2.29.37-2.31.38-2.33.37-2.34.38-2.36.37-2.37.37-2.39.38-2.4.37-2.42.38-2.43.37-2.44.37 47.55.38-1.59.37-1.56.38-1.55.37-1.53.37-1.49.38-1.47.37-1.43.37-1.4.38-1.35.37-1.31.38-1.25.37-1.21.37-1.13.38 1.81.37-6.88.38-20.55.37-10.16.37-1.58.38-9.22.37 15.29.38-9.67.37-.78.37-8.13.38 44.39.37-8.44.37-4.28.38-7.69.37 13.5.38-7.71.37-.46.37-6.9.38-15.11.37-9.47.38-3.02.37-8.79.37 9.91.38-9.87.37-2.27.38-7.92.37 32.81.37-8.04.38-2.69.37-7.5.38 9.16.37-7.5.37-1.75.38-6.85.37-11.83.37 63.21.38-7.31.37-1.78.38-6.79.37 7.73.37-6.58.38-1.47.37-6.41.38 26.78.37-7.31.37-1.41.38-5.98.37 7.51.38-5.82.37-1.17.37-.56.38-.54.37-.52.37-2.51.38-2.77.37-2.81.38-2.83.37-2.87.37-2.91.38-2.94.37-2.98.38-3.02.37-3.05.37-3.1.38-3.13.37-3.18.38-3.22.37-3.26.37-3.3.38 82.22.37-2.22.38-2.24.37-2.25.37-2.26.38-2.29.37-2.29.37-2.32.38-2.33.37-2.35.38-2.36.37-2.38.37-2.39.38-2.41.37-2.42.38-2.44.37 49.66.37-1.56.38-1.54.37-1.52.38-1.51.37-1.47.37-1.44.38-1.41.37-1.38.37-1.33.38-1.3.37-1.24.38-1.19.37-1.13.37-1.07.38-8.24.37-18.41.38-10.86.37-1.28.37-9.74.38 11.67.37-9.21.38-.66.37-8.76.37 45.46.38-9.42.37-.76.38-8.08.37 13.47.37-7.76.38-.39.37-8.73.37-14.23.38-9.94.37-2.76.38-9.12.37 9.47.37-8.76.38-2.21.37-8.42.38 33.46.37-13.89.37-7.77.38-1.97.37-7.59.38 9.32.37-7.06.37-2.11.38-6.77.37 65.95.37-7.19.38-1.99.37-8 .38 8.2.37-6.59.37-1.81.38-6.34.37 26.56.38-6.29.37-1.59.37-6.21.38 7.65.37-5.82.38-3.41.37-5.62.37-.62.38-.61.37-2.24.38-2.83.37-2.86.37-2.91.38-2.94.37-2.97.37-3.01.38-3.05.37-3.09.38-3.13.37-3.17.37-3.21.38-3.25.37-3.3.38-3.35.37-3.39.37 83.26.38-2.3.37-2.33.38-2.35.37-2.36.37-2.39.38-2.4.37-2.43.37-2.44.38-2.46.37-2.49.38-2.5.37-2.52.37-2.55.38-2.56.37-2.58.38-2.6.37 52.44.37-1.68.38-1.67.37-1.65.38-1.64.37-1.61.37-1.59.38-1.57.37-1.53.38-1.5.37-1.46.37-1.43.38-1.37.37-1.33.37-1.26.38-18.57.37-10.69.38-1.59.37-10.74.37 15.72.38-9.32.37-1.24.38-8.72.37 44.43.37-8.76.38-1.05.37-8.48.38 13.81.37-7.8.37-1.29.38-7.37.37-14.3.37-9.81.38-3.02.37-15.55.38-8.9.37 10.38.37-8.74.38-2.1.37-8.6.38 33.76.37-8.06.37-2.18.38-7.61.37 9.55.38-8.55.37-1.6.37-7.1.38 69.26.37-7.46.38-2.52.37-7.08.37 8.36.38-7 .37-1.69.37-8.79.38 27.41.37-6.51.38-1.75.37-6.21.37 7.82.38-6.45.37-1.34.38-5.9.37-10.49.37-.73.38 35.77.37-.28.38-.27.37-.24.37-.22.38-.19.37-.16.37-.13.38-.1.37-.07.38-.04h.37l.37.04.38.08.37.12.38.16.37-.34.37-2.44.38-2.47.37-2.49.38-2.51.37-2.54.37-2.56.38-2.58.37-2.61.38-2.64.37-2.66.37-2.68.38-2.72.37-2.74.37-2.76.38-2.79.37-2.81.38 54.19.37-1.9.37-1.89.38-1.88.37-1.88.38-1.87.37-1.85.37-1.84.38-1.82.37-1.79.38-1.78.37-1.76.37-1.71.38-1.69.37-1.65.37-1.6.38-11.31.37-3.67.38-10.31.37 16.13.37-10.09.38-1.03.37-9.81.38 47.12.37-9.23.37-1.36.38-8.55.37 14.13.38-15.23.37-7.68.37-.62.38-7.05.37-16.68.38-10.3.37-2.79.37-8.95.38 10.13.37-8.68.37-3.59.38-8.04.37 34.07.38-8.35.37-2.12.37-7.61.38 8.98.37-7.42.38-1.88.37-6.93.37 72.23.38-10.08.37-2.14.38-7.09.37 8.15.37-6.93.38-2.26.37-6.51.37 27.57.38-6.76.37-1.71.38-6.22.37 6.73.37-6.1.38-1.57.37-5.75.38-10.43.37-8.01"/><use xlink:href="#g" color="#F44336" transform="matrix(3.75 0 0 3.75 56.04 148.63)"/><use xlink:href="#g" color="#F44336" transform="matrix(3.75 0 0 3.75 112.25 22.51)"/></g><text fill="#000" stroke="none" stroke-linecap="round" stroke-linejoin="round" color="#000" font-family="KaTeX_Main" font-size="8" transform="translate(241.1 10.11)"><tspan>WBSTBottomUp</tspan></text><g fill="none" stroke="currentColor" stroke-linecap="round" stroke-linejoin="round" color="#000"><path stroke="#000" d="M205.6 7.51h29.9M28 157.56l.37-9.14.38 30.43.37-3.65.38-3.17.37-5.77.37-10.4.38 2.54.37-7.37.38-4.85.37-9.32.37 11.7.38-6.54.37-4.38.37-8.53.38.07.37-8.03.38-6.49.37-9.66.37 64.59.38-3.48.37-2.15.38-2.17.37-2.14.37-2.27.38-4.2.37-.17.38-2.26.37-2.43.37-4.17.38-4.67.37 32.89.37.48.38-1.27.37 2.37.38-1.52.37 2.5.37-.84.38-1.83.37-3.31.38-.3.37-3.27.37 15.3.38-.19.37 2.58.38-.07.37-1.49.37-2.66.38 10.04.37.43.38-2.22.37 6.26.37 2.19.38 2.21.37-1.78.37-.91.38-1.05.37-.8.38-4.92.37 3.29.37-.75.38-.74.37-4.65.38-4.64.37 7.44.37-.59.38-4.39.37 3.46.38-.2.37-.25.37-4.37.38-3.94.37-11.21.37 3.82.38-9.82.37-7.06.38-12.86.37 16.27.37-7.93.38-5.75.37-11.02.38.19.37-10.06.37 46.54.38-10.02.37 43.7.38-3.23.37-2.13.37-6.76.38 2.36.37-5.49.38-4.73.37-8.04.37 11.68.38-4.58.37-4.13.37-7.16.38-.75.37-6.57.38-11.56.37-5.73.37-10.99.38 37.56.37-5.55.38-3.17.37-7.63.37 2.09.38-7.28.37-4.97.38-9.7.37 11.4.37-6.37.38-4.52.37-8.26.37-.31.38-7.99.37-6.16.38-9.62.37 64.01.37-3.32.38-2.99.37-2.09.38-2.15.37-2.16.37-3.9.38-.58.37-2.28.38-2.8.37-3.74.37-4.64.38 25.92.37 8.3.38-.82.37 1.96.37-.66.38 1.9.37-.54.37-1.86.38-3.09.37-.75.38-2.91.37 14.19.37-.01.38 1.25.37 1.38.38-2.3.37-1.56.37 8.28.38 1.69.37-1.97.38 5.62.37 1.96.37 2.1.38-1.27.37-1.04.37-1 .38-1.03.37-4.5.38 2.5.37-1.12.37-.79.38-4.17.37-4.74.38 6.25.37-.56.37-3.78.38 2.81.37-.51.38-.42.37-3.33.37-5.69.38-10.29.37 3.33.38-9.49.37-7.04.37-12.86.38 17.46.37-7.75.37-6.12.38 39.63.37 2.33.38-7.77.37-5.72.37-9.92.38 42.96.37-2.93.38-2.5.37-5.75.37 1.75.38-5.35.37-4.88.38-10.87.37-10.19.37 17.51.38-6.96.37-3.84.37-9.21.38 1.79.37-8.62.38-6.06.37-10.7.37 36.64.38-5.84.37-3.01.38-7.37.37 1.59.37-6.97.38-5.33.37-8.86.38 10.63.37-6.23.37-4.63.38-8.08.37-1.72.38-7.49.37-6.31.37-9.24.38 63.35.37-3.16.37-2.02.38-4.82.37-3.54.38-.79.37-3.55.37-.92.38-3.54.37-1.02.38-3.51.37-4.75.37 27.49.38 7.4.37-.64.38 1.5.37-.42.37.38.38.75.37-2.63.37-1.83.38-1.89.37-1.92.38-5.25.37 18.71.37 1.19.38 1.23.37-1.97.38-1.65.37 7.66.37 1.53.38-1.5.37 4.77.38 1.75.37 1.93.37-1.12.38-1.15.37-1.17.38-1.18.37-4.27.37 1.83.38-.98.37-.99.37-3.76.38-4.85.37 5.71.38-1.57.37-3.21.37 1.88.38-3.11.37 2.03.38-2.81.37-4.85.37-7.29.38 2.36.37-9.07.38-8.31.37-11.94.37 16.39.38 40.63.37-3.16.37-7.41.38 1.39.37-6.69.38-6.18.37-9.51.37 41.81.38-5.82.37-5.45.38-1.79.37-8.31.37 4.86.38-8 .37-4.4.38-10.1.37 16.61.37-6.69.38-4 .37-9.57.38 1.58.37-8.49.37-6.04.38-10.55.37 35.63.37-4.98.38-3.14.37-7.27.38 1.17.37-7.97.37-5.02.38-8.62.37 9.97.38-5.85.37-4.63.37-7.97.38-1.06.37-7.42.38-6.34.37-9.15.37 62.2.38-2.66.37-2.05.37-4.65.38.63.37-1.18.38-3.24.37-1.41.37-3.13.38-1.39.37-3.15.38 26.28.37-1.93.37 5.98.38.51.37-2.56.38 3.58.37.64.37.57.38-2.19.37-1.84.38-1.87.37-1.88.37-4.78.38 17.8.37 1.08.37 1.1.38-1.6.37-1.64.38 6.96.37 1.5.37-1.12.38 3.99.37 1.86.38 1.92.37-.45.37-1.19.38-1.18.37-1.17.38-4.2.37 1.4.37-3.18.38 1.27.37-3.09.37-4.63.38-6.78.37 11.09.38-2.78.37 1.14.37-2.44.38 1.05.37-2.13.38-4.83.37-6.51.37-5.28.38-9.14.37 34.61.38-8.44.37 18.41.37-3.88.38-3.43.37-10.75.38-10.24.37 5.24.37-9.43.38-5.65.37-12.53.37 51.35.38-5.18.37-2.16.38-8.04.37 3.51.37-7.27.38-4.65.37-9.96.38 15.9.37-6.37.37-4.38.38-8.75.37.87.38-8.15.37-6.34.37-11.62.38 35.14.37-4.59.37-3.27.38-6.88.37.54.38-6.35.37-5.27.37-8.53.38 9.28.37-5.63.38-5.24.37-7.53.37-1.58.38-7.06.37-6.51.38-9.12.37 61.96.37-2.42.38-2.24.37-4.4.38-8.51.37 2.75.37-2.24.38-5.06.37.55.37-2.34.38-2.38.37 28.04.38-2.12.37 5.49.37.35.38-2.26.37 3.15.38.51.37.55.37-1.97.38-1.99.37-2 .38-2.14.37-4.37.37 16.6.38.9.37.74.37-1.16.38-1.7.37 6.43.38 1.26.37-.8.37 3.64.38-1.09.37 3.86.38-.11.37-1.29.37-3.14.38.6.37-2.97.38.55.37-2.93.37.42.38-2.73.37-4.95.38-6.3.37 9.39.37-2.7.38-6.05.37 4.48.37-.72.38-.72.37-5.99.38-5.09.37-5.41.37 37.33.38-8.3.37-3.65.38-11.64.37 26.14.37-7.3.38-2.99.37-10.27.38 4.72.37-9.38.37-6.7.38-11.97.37 50.5.37-4.98.38-2.21.37-8.12.38 3.82.37-7.17.37-4.99.38-9.74.37 15.04.38-7.45.37-4.17.37-8.55.38.6.37-7.89.38-6.65.37-10.06.37 34.22.38-4.47.37-3.38.37-7.29.38.45.37-6.16.38-5.46.37-8.25.37 8.6.38-5.57.37-4.87.38-7.46.37-1.94.37-6.95.38-11.23.37-6.19.38-10.56.37 69.86.37-4.16.38-2.2.37-5.98.38 2.3.37-5.79.37-4.78.38.12.37-2.41.37-2.39.38 29.55.37-2.09.38 4.88.37.23.37-1.94.38 2.51.37.43.38.43.37-1.67.37-2.21.38-2.01.37-1.99.38-4.04.37 15.45.37.77.38.87.37-1.4.37-1.71.38-3.56.37 10.52.38-.32.37 3.04.37-.09.38 3.09.37.14.38-1.47.37-2.97.37.01.38-2.62.37-.17.38-2.79.37-1.21.37-1.2.38-5.78.37-5.01.38 7.14.37-1.1.37-5.83.38 3.61.37-.99.37-.97.38-5.47.37-5.25.38-5.3.37 39.2.37-4.66.38-3.86.37-11.4.38 24.39.37-6.51.37-3.31.38-9.71.37 4.02.38-9.32.37-6.09.37-11.76.38 49.44.37-4.57.37-4.06.38-7.19.37 3.31.38-6.8.37-4.96.37-9.32.38 14.09.37-5.68.38-4.49.37-8.15.37-.05.38-8.22.37-6.5.38-9.77.37 33.27.37-4.05.38-3.73.37-6.28.38-.12.37-5.99.37-5.57.38-8.02.37-12.6.37 13.24.38-7.28.37-4.54.38-9.16.37.16.37-8.64.38-6.33.37-10.49.38 69.25.37-4.44.37-1.93.38-5.78.37 1.92.38-5.49.37-3.85.37-.33.38-2.44.37-2.55.37 31.06.38-2.18.37 4.25.38.29.37-1.58.37 2.2.38.33.37.36.38-1.33.37-2.61.37-3.6.38-.34.37-3.63.38 14.44.37-.69.37 2.32.38-.5.37-1.9.38-3.21.37 9.44.37-.16.38 2.47.37.23.37 2.48.38.3.37-2.41.38-1.37.37-1.41.37-1.45.38-5.51.37 2.67.38-1.48.37-1.29.37-5.38.38-5.03.37 6.43.38-1.27.37-5.15.37 2.66.38-1.25.37-1.21.37-5.2.38-5.25.37-5.42.38 41.16.37-4.39.37 3.69.38-11.59.37 24.16.38-6.53.37-3.48.37-9.72.38 1.43.37-8.6.38-6.25.37-11.62.37 48.65.38-4.53.37-2.36.38-7.13.37 2.49.37-6.56.38-5.24.37-9.8.37 13.48.38-5.55.37-4.49.38-8.02.37-.86.37-7.37.38-6.75.37-9.75.38 32.32.37-6.61.37-6.1.38-3.16.37-8.49.38 2.42.37-7.93.37-5.48.38-9.94.37 12.38.37-7 .38-4.8.37-9.5.38-.05.37-8.43.37-6.56.38-10.27.37 68.35.38-3.6.37-2.13.37-5.68.38 1.53.37-5.3.38-4.9.37-6.96.37-2.48.38-2.51.37 32.42.38-2.24.37 4.01.37-.34.38-1.26.37 1.74.37-1.16.38 1.73.37-1.02.38-2.07.37-3.38.37-.92.38-3.39.37 13.33.38-.56.37 1.77.37-.3.38-3.15.37-1.84.38 7.53.37 1.08.37-2.53.38 4.82.37 1.25.37 1.21.38-2.05.37-1.57.38-1.61.37-1.64.37-5.07.38 1.91.37-1.59.38-1.67.37-5.06.37-5.16.38 5.27.37-1.5.38-4.82.37 1.74.37-1.76.38-1.43.37-4.49.38-5.51.37-5.72.37 42.92.38-3.56.37 1.71.37-3.14.38 23.15.37-5.72.38-3.64.37-9.56.37 2.71.38-8.31.37-6.71.38-11.33.37 46.79.37-3.57.38-2.58.37-6.85.38 2.02.37-6.16.37-5.66.38-8.83.37 12.4.37-5.07.38-4.78.37-10.7.38-10.2.37 2.47.37-9.65.38-6.41.37-12.08.38 40.18.37-5.94.37-3.39.38-8.23.37 1.96.38-8.21.37-5.35.37-9.81.38 11.86.37-6.78.38-5.08.37-8.75.37-.49.38-8.32.37-6.67.37-11.22.38 68.11.37-3.31.38-2.18.37-5.29.37 1.27.38-5.15.37-3.99.38-6.86.37 8.52.37-1.04.38 34.05.37-2 .38-3.27.37 7.28.37-.87.38 1.42.37-.73.37 1.29.38-.48.37-1.95.38-2.87.37-2.18.37-1.9.38-5.27.37 17.94.38.79.37.86.37-2.27.38-1.85.37 7.17.38 1.18.37-1.92.37 4.48.38 1.39.37 1.52.38-1.49.37-1.48.37-1.5.38-1.44.37-4.47.37 1.58.38-1.44.37-1.71.38-4.07.37-4.81.37 5.09.38-1.29.37-3.96.38 1.41.37-4.63.37 1.6.38-3.49.37-5.08.38-7.62.37 47.85.37-2.39.38 2.29.37-2.21.37 2.25.38-5.64.37-4.89.38-8.91.37 1.94.37-8.2.38-6.94.37-11.53.38 46.73.37-3.42.37-2.98.38-6.58.37 1.29.38-9.16.37-8.76.37-5.15.38-11.31.37 18.5.38-7.9.37-4.4.37-10.06.38 1.71.37-9.45.37-7.36.38-11.5.37 39.24.38-5.75.37-3.47.37-7.98.38 1.26.37-7.46.38-5.7.37-9.52.37 11 .38-7.72.37-4.9.38-8.45.37-.97.37-8 .38-6.98.37-9.78.37 67.29.38-3.16.37-2.27.38-5.1.37.41.37-4.71.38-4.18.37-6.53.38 7.85.37-4.36"/><use xlink:href="#b" transform="matrix(3.75 0 0 3.75 113.62 162.46)"/><use xlink:href="#b" transform="matrix(3.75 0 0 3.75 220.55 7.51)"/></g><text fill="#000" stroke="none" stroke-linecap="round" stroke-linejoin="round" color="#000" font-family="KaTeX_Main" font-size="8" transform="translate(241.1 25.11)"><tspan>WBSTTopDown</tspan></text><g fill="none" stroke="currentColor" stroke-linecap="round" stroke-linejoin="round" color="#000"><path stroke="#29C3F6" stroke-dasharray="4.0,2.0,1.0,2.0" d="M205.6 22.51h29.9M28 157.56l.37-9.14.38 30.43.37-3.65.38-3.17.37-5.77.37-10.4.38 2.54.37-7.37.38-4.85.37-9.32.37 11.7.38-6.54.37-4.38.37-8.53.38.07.37-8.03.38-6.49.37-9.66.37 64.59.38-3.48.37-2.15.38-2.17.37-2.14.37-2.27.38-4.2.37-.17.38-2.26.37-2.43.37-4.17.38-4.67.37 32.89.37.48.38-1.27.37 2.37.38-1.52.37 2.5.37-.84.38-1.83.37-3.31.38-.3.37-3.27.37 15.3.38-.19.37 2.58.38-.07.37-1.49.37-2.66.38 10.04.37.43.38-2.22.37 6.26.37 2.19.38 2.21.37-1.78.37-.91.38-1.05.37-.8.38-4.92.37 3.29.37-.75.38-.74.37-4.65.38-4.64.37 7.44.37-.59.38-4.39.37 3.46.38-.2.37-.25.37-4.37.38-3.94.37-11.21.37 3.82.38-9.82.37-7.06.38-12.86.37 16.27.37-7.93.38-5.75.37-11.02.38.19.37-10.06.37 46.54.38-10.02.37 43.7.38-3.23.37-2.13.37-6.76.38 2.36.37-5.49.38-4.73.37-8.04.37 11.68.38-4.58.37-4.13.37-7.16.38-.75.37-6.57.38-11.56.37-5.73.37-10.99.38 37.56.37-5.55.38-3.17.37-7.63.37 2.09.38-7.28.37-4.97.38-9.7.37 11.4.37-6.37.38-4.52.37-8.26.37-.31.38-7.99.37-6.16.38-9.62.37 64.01.37-3.32.38-2.99.37-2.09.38-2.15.37-2.16.37-3.9.38-.58.37-2.28.38-2.8.37-3.74.37-4.64.38 25.92.37 8.3.38-.82.37 1.96.37-.66.38 1.9.37-.54.37-1.86.38-3.09.37-.75.38-2.91.37 14.19.37-.01.38 1.25.37 1.38.38-2.3.37-1.56.37 8.28.38 1.69.37-1.97.38 5.62.37 1.96.37 2.1.38-1.27.37-1.04.37-1 .38-1.03.37-4.5.38 2.5.37-1.12.37-.79.38-4.17.37-4.74.38 6.25.37-.56.37-3.78.38 2.81.37-.51.38-.42.37-3.33.37-5.69.38-10.29.37 3.33.38-9.49.37-7.04.37-12.86.38 17.46.37-7.75.37-6.12.38 39.63.37 2.33.38-7.77.37-5.72.37-9.92.38 42.96.37-2.93.38-2.5.37-5.75.37 1.75.38-5.35.37-4.88.38-10.87.37-10.19.37 17.51.38-6.96.37-3.84.37-9.21.38 1.79.37-8.62.38-6.06.37-10.7.37 36.64.38-5.84.37-3.01.38-7.37.37 1.59.37-6.97.38-5.33.37-8.86.38 10.63.37-6.23.37-4.63.38-8.08.37-1.72.38-7.49.37-6.31.37-9.24.38 63.35.37-3.16.37-2.02.38-4.82.37-3.54.38-.79.37-3.55.37-.92.38-3.54.37-1.02.38-3.51.37-4.75.37 27.49.38 7.4.37-.64.38 1.5.37-.42.37.38.38.75.37-2.63.37-1.83.38-1.89.37-1.92.38-5.25.37 18.71.37 1.19.38 1.23.37-1.97.38-1.65.37 7.66.37 1.53.38-1.5.37 4.77.38 1.75.37 1.93.37-1.12.38-1.15.37-1.17.38-1.18.37-4.27.37 1.83.38-.98.37-.99.37-3.76.38-4.85.37 5.71.38-1.57.37-3.21.37 1.88.38-3.11.37 2.03.38-2.81.37-4.85.37-7.29.38 2.36.37-9.07.38-8.31.37-11.94.37 16.39.38 40.63.37-3.16.37-7.41.38 1.39.37-6.69.38-6.18.37-9.51.37 41.81.38-5.82.37-5.45.38-1.79.37-8.31.37 4.86.38-8 .37-4.4.38-10.1.37 16.61.37-6.69.38-4 .37-9.57.38 1.58.37-8.49.37-6.04.38-10.55.37 35.63.37-4.98.38-3.14.37-7.27.38 1.17.37-7.97.37-5.02.38-8.62.37 9.97.38-5.85.37-4.63.37-7.97.38-1.06.37-7.42.38-6.34.37-9.15.37 62.2.38-2.66.37-2.05.37-4.65.38.63.37-1.18.38-3.24.37-1.41.37-3.13.38-1.39.37-3.15.38 26.28.37-1.93.37 5.98.38.51.37-2.56.38 3.58.37.64.37.57.38-2.19.37-1.84.38-1.87.37-1.88.37-4.78.38 17.8.37 1.08.37 1.1.38-1.6.37-1.64.38 6.96.37 1.5.37-1.12.38 3.99.37 1.86.38 1.92.37-.45.37-1.19.38-1.18.37-1.17.38-4.2.37 1.4.37-3.18.38 1.27.37-3.09.37-4.63.38-6.78.37 11.09.38-2.78.37 1.14.37-2.44.38 1.05.37-2.13.38-4.83.37-6.51.37-5.28.38-9.14.37 34.61.38-8.44.37 18.41.37-3.88.38-3.43.37-10.75.38-10.24.37 5.24.37-9.43.38-5.65.37-12.53.37 51.35.38-5.18.37-2.16.38-8.04.37 3.51.37-7.27.38-4.65.37-9.96.38 15.9.37-6.37.37-4.38.38-8.75.37.87.38-8.15.37-6.34.37-11.62.38 35.14.37-4.59.37-3.27.38-6.88.37.54.38-6.35.37-5.27.37-8.53.38 9.28.37-5.63.38-5.24.37-7.53.37-1.58.38-7.06.37-6.51.38-9.12.37 61.96.37-2.42.38-2.24.37-4.4.38-8.51.37 2.75.37-2.24.38-5.06.37.55.37-2.34.38-2.38.37 28.04.38-2.12.37 5.49.37.35.38-2.26.37 3.15.38.51.37.55.37-1.97.38-1.99.37-2 .38-2.14.37-4.37.37 16.6.38.9.37.74.37-1.16.38-1.7.37 6.43.38 1.26.37-.8.37 3.64.38-1.09.37 3.86.38-.11.37-1.29.37-3.14.38.6.37-2.97.38.55.37-2.93.37.42.38-2.73.37-4.95.38-6.3.37 9.39.37-2.7.38-6.05.37 4.48.37-.72.38-.72.37-5.99.38-5.09.37-5.41.37 37.33.38-8.3.37-3.65.38-11.64.37 26.14.37-7.3.38-2.99.37-10.27.38 4.72.37-9.38.37-6.7.38-11.97.37 50.5.37-4.98.38-2.21.37-8.12.38 3.82.37-7.17.37-4.99.38-9.74.37 15.04.38-7.45.37-4.17.37-8.55.38.6.37-7.89.38-6.65.37-10.06.37 34.22.38-4.47.37-3.38.37-7.29.38.45.37-6.16.38-5.46.37-8.25.37 8.6.38-5.57.37-4.87.38-7.46.37-1.94.37-6.95.38-11.23.37-6.19.38-10.56.37 69.86.37-4.16.38-2.2.37-5.98.38 2.3.37-5.79.37-4.78.38.12.37-2.41.37-2.39.38 29.55.37-2.09.38 4.88.37.23.37-1.94.38 2.51.37.43.38.43.37-1.67.37-2.21.38-2.01.37-1.99.38-4.04.37 15.45.37.77.38.87.37-1.4.37-1.71.38-3.56.37 10.52.38-.32.37 3.04.37-.09.38 3.09.37.14.38-1.47.37-2.97.37.01.38-2.62.37-.17.38-2.79.37-1.21.37-1.2.38-5.78.37-5.01.38 7.14.37-1.1.37-5.83.38 3.61.37-.99.37-.97.38-5.47.37-5.25.38-5.3.37 39.2.37-4.66.38-3.86.37-11.4.38 24.39.37-6.51.37-3.31.38-9.71.37 4.02.38-9.32.37-6.09.37-11.76.38 49.44.37-4.57.37-4.06.38-7.19.37 3.31.38-6.8.37-4.96.37-9.32.38 14.09.37-5.68.38-4.49.37-8.15.37-.05.38-8.22.37-6.5.38-9.77.37 33.27.37-4.05.38-3.73.37-6.28.38-.12.37-5.99.37-5.57.38-8.02.37-12.6.37 13.24.38-7.28.37-4.54.38-9.16.37.16.37-8.64.38-6.33.37-10.49.38 69.25.37-4.44.37-1.93.38-5.78.37 1.92.38-5.49.37-3.85.37-.33.38-2.44.37-2.55.37 31.06.38-2.18.37 4.25.38.29.37-1.58.37 2.2.38.33.37.36.38-1.33.37-2.61.37-3.6.38-.34.37-3.63.38 14.44.37-.69.37 2.32.38-.5.37-1.9.38-3.21.37 9.44.37-.16.38 2.47.37.23.37 2.48.38.3.37-2.41.38-1.37.37-1.41.37-1.45.38-5.51.37 2.67.38-1.48.37-1.29.37-5.38.38-5.03.37 6.43.38-1.27.37-5.15.37 2.66.38-1.25.37-1.21.37-5.2.38-5.25.37-5.42.38 41.16.37-4.39.37 3.69.38-11.59.37 24.16.38-6.53.37-3.48.37-9.72.38 1.43.37-8.6.38-6.25.37-11.62.37 48.65.38-4.53.37-2.36.38-7.13.37 2.49.37-6.56.38-5.24.37-9.8.37 13.48.38-5.55.37-4.49.38-8.02.37-.86.37-7.37.38-6.75.37-9.75.38 32.32.37-6.61.37-6.1.38-3.16.37-8.49.38 2.42.37-7.93.37-5.48.38-9.94.37 12.38.37-7 .38-4.8.37-9.5.38-.05.37-8.43.37-6.56.38-10.27.37 68.35.38-3.6.37-2.13.37-5.68.38 1.53.37-5.3.38-4.9.37-6.96.37-2.48.38-2.51.37 32.42.38-2.24.37 4.01.37-.34.38-1.26.37 1.74.37-1.16.38 1.73.37-1.02.38-2.07.37-3.38.37-.92.38-3.39.37 13.33.38-.56.37 1.77.37-.3.38-3.15.37-1.84.38 7.53.37 1.08.37-2.53.38 4.82.37 1.25.37 1.21.38-2.05.37-1.57.38-1.61.37-1.64.37-5.07.38 1.91.37-1.59.38-1.67.37-5.06.37-5.16.38 5.27.37-1.5.38-4.82.37 1.74.37-1.76.38-1.43.37-4.49.38-5.51.37-5.72.37 42.92.38-3.56.37 1.71.37-3.14.38 23.15.37-5.72.38-3.64.37-9.56.37 2.71.38-8.31.37-6.71.38-11.33.37 46.79.37-3.57.38-2.58.37-6.85.38 2.02.37-6.16.37-5.66.38-8.83.37 12.4.37-5.07.38-4.78.37-10.7.38-10.2.37 2.47.37-9.65.38-6.41.37-12.08.38 40.18.37-5.94.37-3.39.38-8.23.37 1.96.38-8.21.37-5.35.37-9.81.38 11.86.37-6.78.38-5.08.37-8.75.37-.49.38-8.32.37-6.67.37-11.22.38 68.11.37-3.31.38-2.18.37-5.29.37 1.27.38-5.15.37-3.99.38-6.86.37 8.52.37-1.04.38 34.05.37-2 .38-3.27.37 7.28.37-.87.38 1.42.37-.73.37 1.29.38-.48.37-1.95.38-2.87.37-2.18.37-1.9.38-5.27.37 17.94.38.79.37.86.37-2.27.38-1.85.37 7.17.38 1.18.37-1.92.37 4.48.38 1.39.37 1.52.38-1.49.37-1.48.37-1.5.38-1.44.37-4.47.37 1.58.38-1.44.37-1.71.38-4.07.37-4.81.37 5.09.38-1.29.37-3.96.38 1.41.37-4.63.37 1.6.38-3.49.37-5.08.38-7.62.37 47.85.37-2.39.38 2.29.37-2.21.37 2.25.38-5.64.37-4.89.38-8.91.37 1.94.37-8.2.38-6.94.37-11.53.38 46.73.37-3.42.37-2.98.38-6.58.37 1.29.38-9.16.37-8.76.37-5.15.38-11.31.37 18.5.38-7.9.37-4.4.37-10.06.38 1.71.37-9.45.37-7.36.38-11.5.37 39.24.38-5.75.37-3.47.37-7.98.38 1.26.37-7.46.38-5.7.37-9.52.37 11 .38-7.72.37-4.9.38-8.45.37-.97.37-8 .38-6.98.37-9.78.37 67.29.38-3.16.37-2.27.38-5.1.37.41.37-4.71.38-4.18.37-6.53.38 7.85.37-4.36"/><use xlink:href="#h" color="#29C3F6" transform="matrix(3.75 0 0 3.75 171.2 196.76)"/><use xlink:href="#h" color="#29C3F6" transform="matrix(3.75 0 0 3.75 220.55 22.51)"/></g><path fill="none" stroke="none" stroke-linecap="round" stroke-linejoin="round" stroke-width="0" d="M28 45.01V205M371.99 45.01H28" color="#000"/></svg>