<svg xmlns="http://www.w3.org/2000/svg" xmlns:xlink="http://www.w3.org/1999/xlink" viewBox="0 0 400 250"><path fill="none" d="M0 0h400v250H0z"/><defs><path id="g" stroke="currentColor" stroke-width=".267" d="M-1 0h2M0-1v2"/><path id="h" stroke="currentColor" stroke-width=".267" d="m-1-1 2 2m0-2-2 2"/><path id="d" stroke="currentColor" stroke-width=".267" d="M-1-1h2v2h-2z"/><path id="b" stroke="currentColor" stroke-width=".267" d="m0-1.33-1.33 2h2.66z"/><path id="f" stroke="currentColor" stroke-width=".267" d="M0 1.33 1.265.411.782-1.067l-1.564-.009-.483 1.487z"/><use xlink:href="#a" id="i" fill="currentColor" stroke="none"/><use xlink:href="#b" id="c" stroke="currentColor" transform="rotate(180)"/><use xlink:href="#d" id="e" stroke="currentColor" transform="rotate(45)"/><circle id="a" cx="0" cy="0" r="1" stroke="currentColor" stroke-width=".267"/></defs><path fill="none" stroke="#333" stroke-linecap="round" stroke-linejoin="round" stroke-width=".1" d="M46.1 205V45.01" class="gridline" color="#000"/><g fill="none" stroke="none" stroke-linecap="round" stroke-linejoin="round" stroke-width="0" color="#000"><path d="M46.1 205v-7.5m0-152.49v7.5"/><text fill="#000" font-family="KaTeX_Main" font-size="8" text-anchor="middle" transform="translate(46.1 215.1)"><tspan> 1</tspan></text></g><path fill="none" stroke="#333" stroke-linecap="round" stroke-linejoin="round" stroke-width=".1" d="M82.31 205V45.01" class="gridline" color="#000"/><g fill="none" stroke="none" stroke-linecap="round" stroke-linejoin="round" stroke-width="0" color="#000"><path d="M82.31 205v-7.5m0-152.49v7.5"/><text fill="#000" font-family="KaTeX_Main" font-size="8" text-anchor="middle" transform="translate(82.31 215.1)"><tspan> 2</tspan></text></g><path fill="none" stroke="#333" stroke-linecap="round" stroke-linejoin="round" stroke-width=".1" d="M118.52 205V45.01" class="gridline" color="#000"/><g fill="none" stroke="none" stroke-linecap="round" stroke-linejoin="round" stroke-width="0" color="#000"><path d="M118.52 205v-7.5m0-152.49v7.5"/><text fill="#000" font-family="KaTeX_Main" font-size="8" text-anchor="middle" transform="translate(118.52 215.1)"><tspan> 3</tspan></text></g><path fill="none" stroke="#333" stroke-linecap="round" stroke-linejoin="round" stroke-width=".1" d="M154.73 205V45.01" class="gridline" color="#000"/><g fill="none" stroke="none" stroke-linecap="round" stroke-linejoin="round" stroke-width="0" color="#000"><path d="M154.73 205v-7.5m0-152.49v7.5"/><text fill="#000" font-family="KaTeX_Main" font-size="8" text-anchor="middle" transform="translate(154.73 215.1)"><tspan> 4</tspan></text></g><path fill="none" stroke="#333" stroke-linecap="round" stroke-linejoin="round" stroke-width=".1" d="M190.94 205V45.01" class="gridline" color="#000"/><g fill="none" stroke="none" stroke-linecap="round" stroke-linejoin="round" stroke-width="0" color="#000"><path d="M190.94 205v-7.5m0-152.49v7.5"/><text fill="#000" font-family="KaTeX_Main" font-size="8" text-anchor="middle" transform="translate(190.94 215.1)"><tspan> 5</tspan></text></g><path fill="none" stroke="#333" stroke-linecap="round" stroke-linejoin="round" stroke-width=".1" d="M227.15 205V45.01" class="gridline" color="#000"/><g fill="none" stroke="none" stroke-linecap="round" stroke-linejoin="round" stroke-width="0" color="#000"><path d="M227.15 205v-7.5m0-152.49v7.5"/><text fill="#000" font-family="KaTeX_Main" font-size="8" text-anchor="middle" transform="translate(227.15 215.1)"><tspan> 6</tspan></text></g><path fill="none" stroke="#333" stroke-linecap="round" stroke-linejoin="round" stroke-width=".1" d="M263.36 205V45.01" class="gridline" color="#000"/><g fill="none" stroke="none" stroke-linecap="round" stroke-linejoin="round" stroke-width="0" color="#000"><path d="M263.36 205v-7.5m0-152.49v7.5"/><text fill="#000" font-family="KaTeX_Main" font-size="8" text-anchor="middle" transform="translate(263.36 215.1)"><tspan> 7</tspan></text></g><path fill="none" stroke="#333" stroke-linecap="round" stroke-linejoin="round" stroke-width=".1" d="M299.57 205V45.01" class="gridline" color="#000"/><g fill="none" stroke="none" stroke-linecap="round" stroke-linejoin="round" stroke-width="0" color="#000"><path d="M299.57 205v-7.5m0-152.49v7.5"/><text fill="#000" font-family="KaTeX_Main" font-size="8" text-anchor="middle" transform="translate(299.57 215.1)"><tspan> 8</tspan></text></g><path fill="none" stroke="#333" stroke-linecap="round" stroke-linejoin="round" stroke-width=".1" d="M335.78 205V45.01" class="gridline" color="#000"/><g fill="none" stroke="none" stroke-linecap="round" stroke-linejoin="round" stroke-width="0" color="#000"><path d="M335.78 205v-7.5m0-152.49v7.5"/><text fill="#000" font-family="KaTeX_Main" font-size="8" text-anchor="middle" transform="translate(335.78 215.1)"><tspan> 9</tspan></text></g><path fill="none" stroke="#333" stroke-linecap="round" stroke-linejoin="round" stroke-width=".1" d="M371.99 205V45.01" class="gridline" color="#000"/><g fill="none" stroke="none" stroke-linecap="round" stroke-linejoin="round" stroke-width="0" color="#000"><path d="M371.99 205v-7.5m0-152.49v7.5"/><text fill="#000" font-family="KaTeX_Main" font-size="8" text-anchor="middle" transform="translate(371.99 215.1)"><tspan> 10</tspan></text></g><g fill="none" stroke="none" stroke-linecap="round" stroke-linejoin="round" stroke-width="0" color="#000"><path d="M371.99 205h-7.5"/><text fill="#000" font-family="KaTeX_Main" font-size="8" transform="translate(378.99 207.6)"><tspan>0.10</tspan></text></g><g fill="none" stroke="none" stroke-linecap="round" stroke-linejoin="round" stroke-width="0" color="#000"><path d="M371.99 182.14h-7.5"/><text fill="#000" font-family="KaTeX_Main" font-size="8" transform="translate(378.99 184.74)"><tspan>0.12</tspan></text></g><g fill="none" stroke="none" stroke-linecap="round" stroke-linejoin="round" stroke-width="0" color="#000"><path d="M371.99 159.29h-7.5"/><text fill="#000" font-family="KaTeX_Main" font-size="8" transform="translate(378.99 161.89)"><tspan>0.14</tspan></text></g><g fill="none" stroke="none" stroke-linecap="round" stroke-linejoin="round" stroke-width="0" color="#000"><path d="M371.99 136.43h-7.5"/><text fill="#000" font-family="KaTeX_Main" font-size="8" transform="translate(378.99 139.03)"><tspan>0.16</tspan></text></g><g fill="none" stroke="none" stroke-linecap="round" stroke-linejoin="round" stroke-width="0" color="#000"><path d="M371.99 113.58h-7.5"/><text fill="#000" font-family="KaTeX_Main" font-size="8" transform="translate(378.99 116.18)"><tspan>0.18</tspan></text></g><g fill="none" stroke="none" stroke-linecap="round" stroke-linejoin="round" stroke-width="0" color="#000"><path d="M371.99 90.72h-7.5"/><text fill="#000" font-family="KaTeX_Main" font-size="8" transform="translate(378.99 93.32)"><tspan>0.20</tspan></text></g><g fill="none" stroke="none" stroke-linecap="round" stroke-linejoin="round" stroke-width="0" color="#000"><path d="M371.99 67.87h-7.5"/><text fill="#000" font-family="KaTeX_Main" font-size="8" transform="translate(378.99 70.47)"><tspan>0.22</tspan></text></g><g fill="none" stroke="none" stroke-linecap="round" stroke-linejoin="round" stroke-width="0" color="#000"><path d="M371.99 45.01h-7.5"/><text fill="#000" font-family="KaTeX_Main" font-size="8" transform="translate(378.99 47.61)"><tspan>0.24</tspan></text></g><path fill="none" stroke="none" stroke-linecap="round" stroke-linejoin="round" stroke-width="0" d="M28 45.01V205M371.99 45.01H28" color="#000"/><text fill="#000" stroke="none" stroke-linecap="round" stroke-linejoin="round" stroke-width="0" color="#000" font-family="KaTeX_Main" font-size="10" text-anchor="middle" transform="rotate(-90 68.255 56.755)"><tspan font-weight="bold">Duration </tspan><tspan> in milliseconds</tspan></text><text fill="#000" stroke="none" stroke-linecap="round" stroke-linejoin="round" stroke-width="0" color="#000" font-family="KaTeX_Main" font-size="10" text-anchor="middle" transform="translate(199.99 238.25)"><tspan>Operations / 10</tspan><tspan dy="-5" font-size="8">5</tspan></text><text fill="#000" stroke="none" stroke-linecap="round" stroke-linejoin="round" color="#000" font-family="KaTeX_Main" font-size="8" transform="translate(99.2 10.11)"><tspan>AVLBottomUp</tspan></text><g fill="none" stroke="currentColor" stroke-linecap="round" stroke-linejoin="round" color="#000"><path stroke="#000" d="M63.7 7.51h29.9M28 112.49l.36-.26.36-2.06.37-4.2.36 2.86.36.91.36-.18.36-.66.37-3.84.36-.73.36 3.15.36-.65.37-1.68.36-2.05.36-.44.36 3.04.36-1.17.37-.82.36-2.17.36-2.53.36 1.3.36 1.51.37-1.6.36-.62.36-2.29.36 2.86.36-.34.37-.2.36-2.02.36-2.29.36 1.17.36 1.15.37-1.7.36 1.07.36-5.41.36 2.99.37 1.62.36-.49.36-.23.36-3.87.36-.47.37 2.8.36-1.43.36 1.28.36-3.95.36-.56.37 3.24.36.03.36-.36.36-1.86.36-2.19.37-11.07.36 8.37.36 2.55.36 1.19.37.65.36.71.36.26.36.4.36.08.37.92.36.15.36.24.36-.89.36.69.37.22.36-.08.36.03.36.92.36.03.37.83.36-.39.36 1.4.36-.18.37.25.36-.68.36.54.36.92.36.6.37-.44.36.37.36.49.36.25h.36l.37 1.37.36.66.36.83.36-.35.36.95.37 1.12.36-.26.36-.81.36 1.25.36 1.16.37.93.36-.33.36-.63.36 1.18.37-.2.36-.14.36.26.36-5.46.36 3.32.37 2.63.36-3.49.36-.33.36 2.93.36-.12.37-.27.36-2.16.36-2.22.36 1.3.36-.55.37 1.44.36-2.22.36-2.65.36.86.37 1.49.36-.31.36-.46.36-3.77.36-.53.37 1.35.36 1.65.36-.71.36-5.34.36 2.89.37 1.4.36-.02.36-.28.36-3.73.36-.7.37 1.26.36 1.62.36-.35.36-3.52.36-.53.37 3.17.36-.55.36.2.36-2.14.37-4.06.36 3.3.36 1.44.36-.19.36-1.99.37-2.19.36 1.56.36 1.25.36.06.36-.81.37-13.76.36 7.29.36 2.21.36.67.36 1.56.37-.06.36.98.36-.29.36 1.05.37.22.36.97.36-.83.36.81.36-.39.37.81.36-.32.36 1.03.36.35.36.68.37.26.36 1.01.36.32.36.3.36-.7.37.6.36.33.36.79.36.04.36.02.37.79h.36l.36.11.36 1.08.37.89.36.4.36-.08.36.76.36 1.37.37-.5.36.11.36.62.36 1.36.36.9.37.24.36-1.09.36 1.65.36-.91.36.61.37.15.36.66.36-11.43.36 10.36.37-1.1.36 2 .36-1.8.36-1.92.36 1.09.37 1.36.36-.25.36-.29.36-5.93.36 3.19.37-.4.36 1.38.36-.99.36-3.79.36-.53.37 3.11.36-.21.36-.28.36-4.02.37-.51.36 1.43.36 1.37.36.01.36-3.84.37-.16.36 2.9.36-.49.36-.1.36-3.55.37-.47.36 1.08.36 1.35.36-.01.36-1.76.37-2.31.36 1.47.36 1.29.36-.06.36-1.98.37-2.26.36-.22.36 3.23.36-.26.37-.23.36-3.74.36-.35.36 3.13.36-.34.37-14.29.36 7.41.36 1.9.36 2.25.36-.45.37.37.36.64.36 1.13.36.57.36.95.37-.65.36.45.36.36.36.03.37-.29.36 1.22.36.36.36.58.36-.13.37 1.23.36.41.36.07.36-.03.36.3.37.27.36.84.36.14.36-.3.36.95.37-.01.36.59.36.81.36.41.36.64.37.52.36.37.36 1.55.36-.55.37.28.36-.18.36 1.87.36.3.36 1.21.37-1.35.36 1.19.36-.5.36.84.36-.74.37 1.28.36-1.36.36-5.95.36 3.33.36.78.37 3.65.36-.11.36-.14.36-3.76.37-.41.36 2.87.36-.27.36-1.9.36-.45.37-4.05.36 3.98.36-.41.36-.27.36-2.03.37-2.09.36 1.15.36 1.38.36-.16.36-1.9.37-3.89.36 2.92.36 1.32.36-.17.36-1.87.37-2.28.36 1.46.36 1.14.36.05.37-1.97.36-3.96.36 3 .36 1.7.36-.26.37-.34.36-3.93.36-.06.36 2.77.36.05.37-1.76.36-2.51.36-.1.36 3.32.36-.36.37-.15.36-2.25.36-1.84.36 3.03.37-13.92.36 6.79.36 2.46.36 1.57.36.6.37-.04.36 1.21.36.42.36.89.36-.22.37.08.36.51.36-.18.36-.16.36.89.37.49.36 1.26.36-.63.36.69.37 1.35.36-.53.36-.1.36.17.36.61.37.43.36.43.36-.21.36.88.36.03.37.94.36-.02.36 1.19.36.39.36.56.37-.13.36 2.01.36-.16.36.17.36-.35.37 1.81.36.31.36 1.64.36-1.58.37.96.36-.09.36.12.36.08.36.48.37.81.36 1.23.36-6.99.36 3.63.36-.84.37-.26.36 3.39.36-.33.36-.07.36-2.64.37-1.74.36 1.25.36 1.34.36-1.8.37.42.36-5.51.36 3.03.36 1.14.36-.22.37-.37.36-4.12.36-.2.36 3.23.36-1.93.37 1.27.36-3.62.36 1.14.36 1.48.36-.07.37-.38.36-3.81.36-.31.36 3 .36-1.86.37 1.39.36-3.8.36-.13.36 3 .37-.42.36.02.36-2.05.36-2.5.36 1.65.37-.29.36 1.6.36-2.06.36-2.2.36 1.35.37 1.63.36.02.36-.52.36-4.36.36-10.21.37 7.86.36 2.52.36 1.01.36-.16.37 1.21.36.68.36.87.36-.27.36.29.37.34.36.35.36-.1.36.68.36.74.37.56.36-.08.36.61.36 1.18.36-.67.37.37.36-.28.36.26.36.85.37-3 .36 1.72.36 2.13.36-.09.36.52.37.39.36 1.07.36.59.36 1.07.36-.35.37 1.52.36-.17.36.58.36-.35.36 1.41.37.7.36 1.23.36-.98.36.2.36.37.37.08.36-.13.36 1.01.36.35.37.99.36.32.36-8.26.36 4.86.36 3.08.37-1.81.36-2 .36 1.46.36 1.35.36-.25.37-.19.36-3.89.36-.4.36.48.36 1.32.37-.37.36-4.15.36-.29.36 3.14.37-.23.36-.33.36-2.02.36-3.81.36 2.95.37 1.52.36-.37.36-2.22.36-2.59.36 3.43.37-.23.36-.22.36-1.72.36-4.16.36 4.96.37-2.15.36 1.49.36-1.81.36-2.2.36 1.42.37 1.26.36-.05.36-.21.36-5.71.37 3.59.36-.48.36 1.43.36-.36.36-3.77.37-.2.36 2.73.36.33.36-.41.36-13.72.37 7.29.36 2.36.36.63.36 1.38.36.56.37.72.36.55.36-.21.36.55.37-.15.36.2.36.44.36 1.2.36.15.37.64.36-.4.36 1.49.36-.41.36.36.37-.62.36.71.36.45.36 1.06.36-.37.37.72.36.05.36.55.36-.12.36 1.01.37.37.36 1.01.36.27.36.29.37.88.36.21.36-.12.36 1.46.36.92.37 1.4.36-.71.36-.32.36.59.36-.4.37-.27.36 1 .36.54.36.65.36.65.37.16.36-11.45.36 8.63.36.65.37 2.13.36-.29.36-3.54.36-.63.36 3 .37-.11.36-.48.36-4.99.36-.13.36 1.31.37 1.38.36-.26.36-2.02.36-2.49.36 1.41.37 1.52.36-.12.36-1.93.36-2.59.37-.19.36 3.09.36-.26.36-1.73.36-2.32.37 1.2.36 1.67.36-.33.36-2.23.36-1.89.37-.33.36 2.48.36.36.36-.16.36-3.97.37-.19.36 3.08.36-.11.36-1.99.36-.53.37-3.73.36 4.79.36-.11.36-.1.37-2.21.36-2.21.36 1.57.36-.55.36-12.11.37 7.65.36 2.18.36 1.17.36 1.21.36.86.37.37.36-.69.36.99.36.01.36.19.37-.12.36.52.36.87.36 1.01.37-.41.36 1.68.36-.42.36.48.36-.94.37.83.36.25.36 1.06.36-.15.36.52.37-.13.36.27.36.3.36 1.29.36.75.37.71.36-.06.36 1.42.36.61.36-.27.37-.44.36.94.36 1.22.36 1.39.37-.72.36-.39.36 1.48.36-.75.36-.05.37.26.36.66.36.85.36.33.36.72.37 1.24.36-7.39.36 2.01.36-.99.36 5.15.37-.21.36-.05.36-2.14.36-2.17.37 1.33.36.79.36-.57.36-2.14.36-3.9.37 3.12.36 1.32.36-.33.36-.49.36-3.76.37-.48.36 3.04.36-.24.36-1.87.36-2 .37 1.01.36 1.5.36-.15.36-.31.36-3.74.37-.51.36 3.2.36-.36.36-1.7.37-2.08.36-.64.36 3.07.36-.29.36-.02.37-1.94.36-2.49.36 1.56.36 1.56.36-1.97.37 1.42.36-5.47.36 2.79.36 1.92.36-.13.37-.09.36-3.99.36 1.27.36-12.57.37 7.7.36 2.24.36 2.01.36.87.36.82.37-.47.36.56.36.11.36.22.36.16.37.95.36.16.36 1.04.36-.43.36 1.46.37.03.36.38.36-.57.36.44.37.27.36.71.36-.06h.36l.36.75.37.25.36.21.36 1.18.36.61.36.68.37-.22.36 1.12.36.89.36-.46.36.14.37.73.36 1.31.36.94.36.07.36-.66.37 1.38.36-.58.36.24.36.13.37.77.36.39.36.67.36.02.36 1.64.37-.51.36-7.04.36 3.68.36 2.49.36-4.91.37 3.25.36 1.33.36-.21.36-.24.36-4.26.37-.76.36 2.9.36-1.81.36 1.06.37-3.74.36-.64.36 3.21.36-.11.36-.17.37-2.36.36-2.14.36 1.06.36-.08.36 1.45.37-3.8.36-.52.36 3.21.36-.33.36.15.37-2.05.36-2.1.36 1.39.36-.76.36 1.7.37-1.8.36-2.31.36 1.45.36 1.48.37-.21.36-.43.36-3.76.36-.54.36 1.68.37 1.49.36-.02.36-4.33.36-.05.36 3.17.37-.09.36-.58.36-1.79.36-12.48.36 7.45.37 3.29.36.72.36 1.97.36-.58.37.55.36-.1.36.43.36-.07.36.74.37.79.36.69.36-.07.36.78.36.57.37.03.36-.24.36.18.36.2.36.96.37-.13.36.12.36.72.36.09.36.18.37.71.36.9.36.84.36.25.37.75.36 1.39.36-.52.36.13.36.33.37 1.65.36.43.36.6.36-.93.36 1.08.37-.22.36.15.36-.39.36.85.36.36.37 1.1.36-.2.36 1.48.36.09.37.37.36-10.94.36 6.94.36 2.75.36.5.37-3.88.36-.26.36 3.14.36-.53.36-.96.37-2.2.36-4.04.36 5.04.36-2.36.36 1.94.37-2.39.36-2.24.36 1.57.36 1.44.37-.16.36-.35.36-6.1.36 3.3.36-.47.37 1.73.36-1.95.36-2.16.36 1.37.36 1.47.37-.26.36-.18.36-7.1.36 3.41.36-.04.37 2.13.36-.02.36-3.84.36-.38.36 3.1.37-.15.36-.03.36-3.9.36-.73.37 1.76.36 1.43.36-.1.36-2.11.36-2.17.37.72.36 1.71.36.15"/><use xlink:href="#g" transform="matrix(3.75 0 0 3.75 354.25 91.21)"/><use xlink:href="#g" transform="matrix(3.75 0 0 3.75 78.65 7.51)"/></g><text fill="#000" stroke="none" stroke-linecap="round" stroke-linejoin="round" color="#000" font-family="KaTeX_Main" font-size="8" transform="translate(99.2 25.11)"><tspan>AVLTopDown</tspan></text><g fill="none" stroke="currentColor" stroke-linecap="round" stroke-linejoin="round" color="#000"><path stroke="#29C3F6" stroke-dasharray="1.0,2.0" d="M63.7 22.51h29.9M28 108.28l.36.34.36-1.89.37 3.76.36-1.23.36-1.98.36-.42.36-2.97.37 3.73.36.45.36-.67.36-1.82.37-2.15.36 1.75.36 1.31.36-2.8.36-1.03.37-7.25.36 4.87.36 3.22.36-.76.36.31.37-3.75.36-.46.36 1.94.36-1.15.36 1.14.37-6.71.36 3.49.36 1.84.36.31.36.17.37-4.12.36-.46.36 3.51.36-1.73.37 1.06.36-3.66.36-1.31.36 4.31.36-.09.37-.72.36-.85.36-2.07.36 1.26.36-.6.37 1.94.36-3.82.36-3.03.36 1.52.36.66.37-15.27.36 9.44.36 2 .36 1.07.37.33.36 1.14.36-.11.36.47.36.32.37.56.36.32.36-.01.36-.42.36.38.37.18.36.15.36-.38.36 1.34.36.02.37.68.36-.26.36 1.37.36-.38.37.29.36-.46.36.51.36.56.36.48.37-.07.36.1.36.54.36.65h.36l.37 1.17.36.66.36.77.36-.12.36.75.37 1.09.36-.32.36-.25.36.8.36 1.15.37.89.36-.3.36-.51.36.98.37-.35.36.35.36.33.36-2.93.36 5.56.37-1.96.36.79.36-1.06.36 1.83.36-2.95.37-1.99.36 1.08.36.26.36.07.36.13.37-3.72.36-1.15.36-.33.36-.82.37 1.09.36-.85.36-1.45.36 3.74.36-.05.37-.11.36-2.67.36-3.32.36 4.88.36-3.29.37 1.63.36-3.13.36.47.36 3.07.36-.59.37-.34.36-1.17.36-3.8.36 4.49.36-1.81.37.26.36-.59.36-1.83.36.43.37 2.59.36-.23.36-.02.36-5.99.36 3.87.37-2.23.36.34.36.33.36-4.61.36.88.37-13.54.36 7.8.36 2.25.36.94.36 1.44.37-.43.36.88.36-.16.36 1.08.37.17.36.74.36-.74.36.93.36-.59.37.94.36-.47.36.72.36.67.36.78.37-.14.36 1.25.36.51.36-.04.36-.37.37.44.36.53.36.43.36.3.36-.01.37 1.1.36-.21.36.16.36.79.37.64.36.65.36.51.36.46.36 1.18.37-.45.36.28.36.46.36 1.23.36.89.37.43.36-.95.36 1.23.36-.76.36.76.37.01.36.6.36-2.01.36 6.14.37.31.36-6.17.36 3.55.36-1.42.36 1.53.37-.37.36-4.86.36-.16.36 2.95.36-.01.37-.65.36-5.77.36-2.97.36 2.08.36 4.71.37-.29.36-2.48.36-1.53.36 1.37.37 1.36.36-.31.36-1.24.36-3.21.36 1.06.37 2.05.36.57.36-1.92.36-1.89.36.47.37 2.29.36-.15.36-1.58.36-2.35.36-1.43.37 4.26.36.34.36-1.38.36-2.11.36-.6.37 3.03.36-.52.36.42.36-4.83.37-3.55.36 4.9.36-1.53.36 1.71.36.29.37-17.91.36 7.83.36 1.84.36 2.28.36.16.37.67.36-.67.36 1.43.36.27.36.71.37-.43.36.31.36.64.36.07.37-.29.36 1.06.36.77.36.35.36-.3.37 1.08.36.69.36-.18.36-.06.36.37.37.38.36.68.36.26.36-.11.36.64.37.1.36.48.36.54.36 1.15.36.35.37.49.36.39.36 1.18.36-.33.37.19.36.08.36 1.26.36.72.36 1.15.37-1.27.36.93.36-.27.36.43.36-.22.37 1.06.36.59.36-5.8.36 10.38.36-1.05.37.93.36-4.19.36-2.48.36 4.51.37-1 .36-.41.36-2.14.36-1.79.36 1.12.37-.93.36-2.51.36-2.19.36-.05.36 3.03.37.86.36.49.36-.18.36-3.66.36-.99.37 3.46.36-.38.36-3.14.36-1.11.36 1.9.37 1.41.36.18.36-1.24.36-2.64.37-.04.36 2.99.36-.49.36-2.49.36.52.37-3.05.36 3.44.36.94.36-.08.36-2 .37-2.3.36 1.8.36.74.36-3.42.36 1.48.37-6.65.36 3.56.36 4.28.36-.43.37-18.45.36 7.05.36 2.67.36 1.6.36.56.37-.02.36.62.36.63.36.72.36-.24.37.07.36-.06.36.54.36-.18.36.94.37.53.36.85.36-.12.36-.09.37 1.75.36-.44.36.07.36-.13.36.87.37.16.36.64.36-.35.36 1.22.36.13.37.14.36.4.36 1.41.36.18.36.92.37-.21.36 1.47.36-.1.36.14.36-.2.37 1.68.36.62.36 1.41.36-1.71.37 1.22.36-.35.36.07.36.33.36.84.37.57.36.87.36-4.58.36 4.07.36 2.35.37 1.33.36-2.31.36 1.5.36-6 .36 2.78.37.74.36.21.36-.48.36-6.18.37-2.27.36 2.4.36 1.1.36 2.14.36-4.42.37.55.36 2.91.36-.03.36-1.15.36-.86.37-2.13.36-.86.36.99.36 2.46.36-3.44.37.08.36 1.54.36.8.36-.08.36-1.48.37-2.54.36.73.36.23.36 2.05.37-2.87.36-.99.36 1.05.36 2 .36-.75.37.39.36-3.99.36-2.71.36 1.61.36.68.37.38.36-.25.36-.7.36 2.69.36-18.96.37 8.12.36 2.61.36.66.36.33.37 1.04.36.62.36.59.36.04.36-.25.37.99.36-.15.36-.07.36.78.36.66.37.3.36.31.36.21.36 1.36.36-.93.37.48.36.15.36.39.36.33.37.63.36-.15.36.99.36-.19.36.59.37.25.36 1.64.36-.11.36.9.36-.38.37 1.64.36-.03h.36l.36.15.36 1.26.37.55.36 1.42.36-1.01.36.2.36.49.37.12.36.12.36.42.36.77.37.65.36.3.36-3.29.36 7.25.36-2.74.37-1.02.36 3.25.36-2.94.36 1.69.36-4.44.37.05.36 2.62.36-2.2.36-2.39.36-3.17.37-.98.36 5.76.36-2.76.36 2.54.37-2.07.36-1.75.36.24.36 2.32.36.2.37-2.53.36-4.27.36 3.78.36-.36.36 1.74.37-2.99.36-.84.36 1.3.36 1.29.36-.43.37-.28.36-5.76.36 3.99.36-.95.36 1.98.37.21.36-3.51.36-.56.36 3.34.37-.16.36-2.64.36-3.96.36-.62.36 1.09.37 5.23.36-.05.36-2.66.36-1.48.36-15.73.37 8.21.36 1.82.36.94.36 1.26.36.74.37.31.36.56.36-.26.36.62.37-.11.36.09.36.12.36.89.36.64.37.31.36.07.36 1.11.36-.44.36.32.37-.4.36 1.08h.36l.36 1.1.36-.46.37 1.04.36-.03.36.52.36-.27.36 1.06.37.6.36.77.36.64.36.73.37.59.36.17.36-.42.36.94.36 1.26.37 1.38.36-.9.36-.15.36.46.36-.04.37-.1.36.65.36.64.36.41.36.85.37.33.36-2.46.36 6.74.36-.45.37-2.98.36-1.17.36 1.02.36.62.36.34.37-2.5.36-3.43.36-1.08.36-.25.36 2.03.37-.39.36-2.89.36.59.36 2.81.36.29.37-1.57.36-2.48.36-.44.36 1.02.37.84.36.88.36-3.88.36.11.36 2.16.37.54.36.34.36-3.79.36-.23.36 2.71.37-.9.36.66.36-3.99.36-2.09.36 5.47.37-.19.36-.43.36-1.61.36-2 .36-1.14.37.97.36-.14.36-1.98.36-.72.37 3.56.36.48.36 1 .36-.34.36-19.03.37 7.45.36 1.98.36 1.38.36 1.29.36.32.37.46.36-.35.36.79.36-.34.36.37.37.29.36 1.2.36-.11.36 1.28.37-.76.36 1.39.36-.25.36.39.36-.63.37.63.36.36.36 1.11.36-.55.36.6.37.19.36.39.36.33.36 1.08.36.79.37.84.36-.11.36 1.14.36.63.36-.25.37-.32.36.88.36.99.36 1.43.37-.65.36.02.36.85.36-.7.36.08.37.26.36.97.36.33.36.58.36.65.37 1.13.36-6.34.36 7.49.36 2.2.36-.44.37-2.31.36-4.16.36 3.35.36 1.05.37-1.65.36-2.45.36-5.98.36 1.18.36 5.46.37-.84.36-.89.36-2.32.36-.3.36 2.17.37.36.36-.06.36-3.17.36-1.77.36 1.67.37 1.45.36-1.07.36-.7.36-4.12.36 5.52.37-.37.36.15.36-1.82.36-3.4.37 2.67.36 1.58.36-2.37.36 2.43.36-5.67.37 2.84.36 1.14.36.44.36-2.52.36-4.02.37-.42.36 2.48.36.4.36 3.03.36-4.51.37.47.36 3.07.36-.08.36-19.25.37 7.72.36 2.16.36 2.29.36.55.36.74.37-.19.36.33.36-.44.36.55.36-.03.37.91.36.69.36.74.36-.31.36 1.47.37.25.36-.15.36-.41.36.43.37.22.36.67.36.06.36.18.36.58.37.3.36.11.36.96.36.72.36.84.37.05.36.75.36 1.09.36-.46h.36l.37.67.36 1.01.36 1.43.36-.13.36-.72.37 1.07.36-.08.36.21.36-.12.37 1.04.36.11.36.6.36.11.36 1.66.37-.43.36-3.27.36 3.58.36.76.36 2.11.37-2.22.36 1.84.36-4.22.36-1.2.36.76.37-2.94.36.9.36.63.36-2.67.37 1.4.36-.08.36 1.82.36-2.08.36-2.4.37 1.79.36.45.36-.13.36.1.36-2.86.37-.42.36 1.16.36.94.36-.81.36-2.1.37 1.32.36.9.36-.81.36.84.36-3.47.37-.87.36 2.18.36 1.61.36.17.37-4.31.36.17.36 1.29.36-1.4.36-.09.37-2.68.36-1.97.36 6.83.36-3.14.36 3.09.37-2.11.36-2.08.36.24.36-16.73.36 7.99.37 3.24.36 1.08.36 1.4.36-.46.37.65.36-.13.36.37.36-.11.36.72.37.71.36.36.36-.19.36.91.36.64.37-.14.36-.07.36.08.36.73.36.72.37-.17.36.04.36.97.36-.01.36-.06.37.9.36 1.04.36.54.36.41.37.59.36 1.32.36-.36.36.03.36.33.37 1.44.36.84.36.26.36-.88.36 1.21.37-.48.36.44.36-.38.36.86.36.2.37.96.36-.25.36 1.3.36.07.37.59.36-3.23.36 6.99.36-1.88.36-3.69.37 4.67.36-2.58.36 1.38.36-4.25.36-5.4.37 1.54.36 4.85.36-.68.36-.51.36-5 .37 3.11.36-.55.36 1.5.36.49.37-4.19.36-1.76.36 4.22.36.43.36-.1.37-3.13.36-.28.36.62.36 1.73.36-.04.37-4.08.36-1.4.36 4.18.36-.13.36-.84.37-2.29.36-.58.36.3.36 2.32.36.14.37-3.21.36-4.34.36 2.11.36.45.37 1.4.36.76.36-2.72.36.34.36 3.11.37-.15.36-.62.36-3.43"/><use xlink:href="#h" color="#29C3F6" transform="matrix(3.75 0 0 3.75 67.83 102.93)"/><use xlink:href="#h" color="#29C3F6" transform="matrix(3.75 0 0 3.75 78.65 22.51)"/></g><text fill="#000" stroke="none" stroke-linecap="round" stroke-linejoin="round" color="#000" font-family="KaTeX_Main" font-size="8" transform="translate(241.1 10.11)"><tspan>AVLRelaxedBottomUp</tspan></text><g fill="none" stroke="currentColor" stroke-linecap="round" stroke-linejoin="round" color="#000"><path stroke="#D336C8" d="M205.6 7.51h29.9M28 108.87l.36 1.18.36.91.37-.28.36-2.18.36-2.52.36 1.37.36 1.23.37-2.35.36-.1.36-2.74.36 1.31.37 1.47.36-.26.36-.45.36-3.69.36-1.28.37 2.61.36-1.97.36.78.36-3.41.36-.47.37 2.84.36-.37.36-.56.36-1.99.36-3.92.37 4.63.36-1.92.36 1.41.36-3.92.36-.27.37 3.01.36-.63.36-.13.36-2 .37-3.97.36 4.74.36-1.86.36 1.29.36-2.02.37-2.06.36 1.5.36 1.44.36-.62.36-.23.37-3.61.36-.22.36 1.15.36 1.21h.36l.37 83.65.36 5.39.36 2.9.36 1.3.37.04.36.95.36.1.36.46.36-.4.37.4.36.17.36.23.36.07.36.26.37.34.36.44.36-.79.36.1.36.2.37.39.36.1.36.26.36.34.37.18.36-.13.36.22.36.34.36.17.37.1.36.18.36.2.36.36.36.07.37-.73.36.28.36.45.36.69.36-.18.37.66.36.33.36.41.36-.32.36.48.37.22.36.57.36-.18.36.45.37.55.36.47.36-.74.36-98.55.36 2.99.37 5.71.36-.16.36.08.36-3.9.36-.51.37.94.36 1.46.36-.56.36-3.53.36-.93.37 2.94.36-.38.36-.34.36-2.22.37-3.83.36 3.08.36 1.22.36-.51.36-1.85.37-2.58.36 1.64.36 1.3.36-.32.36-.39.37-5.52.36 3.06.36 1.2.36.08.36-2.49.37-1.91.36 1.28.36 1.46.36-.28.36-.36.37-5.42.36 1.33.36 3.14.36-.12.37-.37.36-3.67.36-.69.36 3.34.36-.51.37-.02.36-3.57.36-.48.36 1.46.36 1.22.37 84.44.36 5.18.36 2.86.36.95.36.72.37.62.36.48.36-.16.36.31.37.23.36.54.36-.09.36.28.36.13.37.39.36-.31.36-.4.36.29.36.52.37.25.36.07.36.44.36.4.36.03.37-.11.36.49.36.23.36.4.36-.04.37.47.36.19.36.59.36-.63.37.55.36.29.36.54.36-.02.36.53.37.53.36.39.36-.01.36.42.36.12.37.73.36-.05.36.74.36.17.36.71.37-1.1.36.15.36-94.87.36 2.49.37-.2.36 3.59.36-.29.36-.26.36-4.05.37-.57.36 1.31.36 1.12.36-.51.36-2 .37-2.37.36 1.29.36.34h.36l.36-2.52.37-1.94.36-.49.36 3.09.36-.46.37-.23.36-3.76.36-.51.36 3.12.36-.46.37-1.72.36-.15.36-2.22.36 2.86.36-.02.37-.33.36-3.79.36-.69.36 3.3.36-.41.37-1.69.36-.44.36-3.89.36 5.07.36-.4.37-.05.36-2.35.36-1.61.36 1.33.37 1.43.36-1.91.36 1.45.36-5.49.36 3.1.37 86.11.36 4.73.36 2.73.36 1.37.36.45.37.78.36-.04.36.22.36.39.36.3.37.29.36.27.36.32.36.27.37.1.36-.33.36.22.36.43.36.21.37.2.36.44.36.28.36.49.36-.42.37.92.36.06.36.32.36-.02.36.51.37.05.36.9.36-1.14.36.42.36.28.37.73.36-.23.36.68.36.37.37.5.36-.03.36.33.36.23.36.73.37-.13.36.71.36.33.36.5.36-.45.37.27.36.48.36-96.16.36 4.18.36.17.37-1.3.36 1.43.36 1.1.36-2.19.37 1.08.36-5.44.36 2.64.36 1.3.36-.35.37-.44.36-3.91.36-.28.36 3.07.36-.48.37-2.19.36-2.03.36-.51.36 2.73.36-.02.37-.4.36-2.01.36-2.08.36 1.22.36 1.35.37-1.74.36-2.06.36-.25.36 2.8.37-.22.36-.25.36-1.98.36-2.26.36 1.43.37 1.3.36-1.88.36-.02.36-2.14.36 1.49.37 1.44.36-.43.36-.4.36-3.36.36-.42.37 3.01.36-2.26.36 1.71.36-3.45.37 88.02.36 4.99.36 2.78.36 1.29.36.78.37.22.36.11.36.61.36.23.36.24.37.2.36.42.36.52.36-.24.36-.7.37.53.36.11.36.67.36-.3.37.57.36.35.36.45.36-.34.36.74.37-.04.36.51.36-.03.36.62.36.14.37.47.36-.45.36.41.36.17.36.62.37.29.36.3.36.39.36.51.36-.09.37.27.36.66.36.35.36.07.37.32.36.68.36.22.36.01.36-.77.37.64.36.44.36-99.06.36 7.84.36 1.55.37.49.36-3.67.36-.53.36 2.84.36-2.1.37 1.07.36-3.78.36-.76.36 2.89.37-1.13.36-.44.36-2.27.36-3.9.36 4.76.37-2 .36.85.36-1.8.36-2.21.36 1.45.37 1.36.36-.56h.36l.36-5.48.36 2.83.37-.37.36 1.69.36-2.33.36-1.92.36 1.26.37 1.28.36-.22h.36l.36-3.65.37-.72.36 1.7.36 1.4.36-.37.36-3.81.37-.07.36 2.85.36-.18.36-.16.36-2.13.37-3.48.36 3.32.36 1.1.36-.54.36 85.59.37 4.83.36 2.74.36 1.19.36.84.37.05.36.55.36.13.36.43.36.13.37.63.36.19.36.41.36-.78.36.68.37.26.36.26.36-.17.36.7.36.36.37.46.36-.38.36.3.36.33.37.33.36.1.36.44.36.22.36.58.37-.54.36-.22.36.5.36.75.36.12.37.32.36.35.36.65.36-.21.36.16.37.72.36.37.36.14.36.58.36.6.37.12.36.31.36-.46.36.69.37.55.36.52.36-99.19.36 2.3.36 5.09.37.28.36-.45.36-2.06.36-3.64.36 2.86.37 1.04.36-.38.36-2.15.36-2.38.36 1.26.37 1.28.36-.12.36-.49.36-5.44.37 1.39.36 2.91.36-.23.36-.4.36-3.68.37-.47.36 3.04.36-.47.36-.35.36-3.8.37 1.4.36-.3.36 1.35.36-.17.36-3.91.37-.21.36 3.04.36-.59.36.1.36-3.87.37-.27.36 1.52.36 1.44.36-.36.37-1.98.36-1.95.36 1.44.36 1.53.36-.42.37-1.92.36-1.99.36-.12.36 3.24.36 85.39.37 5.31.36 2.73.36 1.37.36.04.36.79.37.21.36.71.36.01.36.46.37.23.36.55.36-1.08.36.2.36.42.37.38.36-.18.36.68.36.05.36.6.37-.31.36.37.36.22.36.51.36.11.37.42.36.32.36.45.36-.27.36-.03.37.25.36.42.36.44.36.44.37.13.36.59.36.03.36.01.36.6.37.39.36.34.36.36.36.41.36.67.37.14.36-1.07.36.63.36.14.36.92.37-.13.36-96.5.36 4.61.36-1.6.37 1.88.36 1.33.36-.33.36-1.88.36-2.36.37-.48.36 2.78.36-.88.36-.79.36-3.92.37-.56.36 2.99.36-.54.36-2.04.36-.22.37-3.53.36 4.21.36-.07.36-.66.37-1.67.36-2.35.36 1.33.36 1.4.36-1.91.37-.5.36-3.59.36 4.81.36-.49.36-.38.37-1.67.36-2.4.36 1.31.36 1.78.36-1.89.37 1.08.36-5.26.36 3.26.36 1.16.36-.19.37-.22.36-3.53.36-.14.36 2.89.37-.02.36-2.11.36-1.87.36-.27.36 88.22.37 5.25.36 3.06.36.5.36.69.36.57.37.86.36-.07.36.5.36.65.36.11.37-.47.36-.07.36.4.36.59.37.01.36.41.36.3.36.55.36-.25.37.19.36.43.36.28.36.18.36.46.37.31.36.38.36-.02.36-.33.36.26.37.14.36.56.36.12.36.58.36.26.37.27.36-.19.36.63.36.39.37.46.36.09.36.8.36-.03.36.84.37-.45.36.37.36.26.36.53.36.11.37.1.36-97.31.36 4.55.36 1.75.36-3.33.37-.16.36 2.61.36-.3.36-2.17.37-1.99.36-.94.36 3.11.36-.44.36-.42.37-2.09.36-2.03.36 1.24.36 1.38.36-2.07.37-.43.36-2.29.36 1.45.36 1.26.36-.35.37-.28.36-3.77.36-.4.36 3.12.36-2.02.37-.41.36-2.24.36 1.62.36 1.41.37.09.36-.53.36-3.98.36-.61.36 3.5.37-1.83.36 1.43.36-4.04.36.08.36 3.26.37-.33.36-.38.36-2 .36-3.56.36 4.53.37-1.64.36 1.43.36-1.74.36 86.98.37 5.46.36 2.15.36 1.69.36.62.36.6.37.45.36.33.36.23.36.4.36-.36.37-.36.36.34.36.41.36.23.36.13.37.57.36.3.36-.15.36-.14.37.28.36.54.36.15.36.56.36.42.37.36.36.06.36-.34.36.63.36.29.37.2.36.18.36.48.36.37.36.32.37-.09.36.41.36.34.36.52.36.34.37.5.36.29.36.61.36-.87.37-.02.36.35.36.62.36.06.36.47.37.37.36-100.44.36 6.31.36 3.43.36.2.37-1.7.36-3.93.36 4.48.36-2.17.36 1.01.37-2.7.36-2.25.36.99.36 1.53.37-.51.36-.29.36-4.27.36.07.36 1.18.37 1.34.36-.67.36-3.79.36-.6.36 3.11.37-.32.36-.07.36-1.91.36-2.4.36 1.59.37 1.64.36-.51.36-3.62.36-.88.36 3.28.37-.22.36-.04.36-2.17.36-3.78.37 2.94.36 1.67.36-.26.36-1.92.36-2.09.37 1.49.36 1.52.36-.34.36-.07.36-5.36.37 1.16.36 3.37.36-.33.36 85.9.36 4.74.37 2.79.36 1.22.36.61.36.52.37.41.36.43.36.57.36-.41.36-.11.37.38.36.36.36.5.36-.15.36.52.37.5.36.1.36-.15.36.5.36.34.37.51.36-.02.36.41.36.28.36.27.37-.75.36.44.36.11.36.78.37-.27.36.73.36.4.36.34.36-.4.37.66.36.29.36.59.36.26.36.44.37.26.36.59.36-.62.36.25.36.63.37.51h.36l.36.71.36.26.37.51.36-99.11.36 1.21.36 3.24.36 1.94.37-.02.36-.52.36-5.78.36 2.99.36-.51.37 1.29.36-.18.36-4.03.36-.72.36 3.18.37-.43.36-.26.36-3.9.36-.59.37 1.52.36 1.17.36-.19.36-2.04.36-2.53.37 1.45.36 1.64.36-.57.36-2.11.36-2.16.37 1.7.36.5.36-.34.36-2.31.36-1.55.37 1.38.36 1.25.36.43.36-1.8.36-2.13.37-.21.36 3.28.36-.36.36-.34.37-3.53.36-.33.36 3.36.36-.37.36-1.93.37-.25.36-3.83.36 4.84"/><use xlink:href="#i" color="#D336C8" transform="matrix(3.75 0 0 3.75 125.4 181.42)"/><use xlink:href="#i" color="#D336C8" transform="matrix(3.75 0 0 3.75 220.55 7.51)"/></g><text fill="#000" stroke="none" stroke-linecap="round" stroke-linejoin="round" color="#000" font-family="KaTeX_Main" font-size="8" transform="translate(241.1 25.11)"><tspan>AVLRelaxedTopDown</tspan></text><g fill="none" stroke="currentColor" stroke-linecap="round" stroke-linejoin="round" color="#000"><path stroke="#3B75EA" stroke-dasharray="4.5,2.0,0.5,2.0,0.5,2.0" d="M205.6 22.51h29.9M28 87.98l.36-.62.36-3.06.37 3.52.36-.32.36-1.3.36-1.53.36-.17.37.81.36.28.36-.43.36-.51.37-4.21.36 1.35.36 1.04.36-1.49.36-.98.37-4.77.36 4.74.36.7.36-.42.36-1.86.37-1.27.36-1.72.36 3.15.36-2.75.36 1.24.37-3.16.36 1.72.36 1.21.36.04.36-.84.37-3.3.36-2.59.36 4 .36-2.17.37 1.5.36-4.59.36 2.08.36 4.33.36-.75.37-2.15.36-1.36.36-2.91.36 6.37.36-4.55.37 2.79.36-2.88.36-.93.36-.97.36.84.37 106.25.36 5.81.36 2.04.36 1.29.37.24.36.55.36.02.36.63.36-.47.37.48.36.14.36.22.36-.24.36.25.37.46.36.3.36-.59.36.05.36.22.37.18.36.12.36.13.36.53.37.25.36-.24.36-.01.36.5.36.25.37.11.36.17.36.33.36.08.36.33.37-.78.36.59.36.2.36.6.36-.06.37.52.36.4.36.26.36-.44.36.73.37.03.36.76.36-.12.36.52.37.24.36.31.36-.46.36-117.2.36 8.76.37-3.54.36 5.47.36-.52.36 1.92.36-2.93.37-3.24.36 1.27.36 3.33.36-.35.36-2.22.37-3.7.36 1.63.36.35.36-1.9.37 2.5.36-4.35.36-.59.36 1.85.36 1.66.37-1.32.36-1.57.36-6.82.36 4.81.36 2.36.37-.31.36-6.81.36 2.48.36 1.3.36 1.04.37-4.2.36-2.72.36-2.95.36 6.25.36.99.37-.07.36-2.02.36-1.8.36-.18.37 1.24.36-.32.36 1.98.36-6.24.36 1.01.37 3.59.36-.38.36-.78.36-4.63.36-.91.37 106.74.36 5.24.36 2.91.36.69.36.62.37.55.36.37.36.19.36.3.37.26.36.26.36.13.36.4.36.34.37.3.36-.44.36-.93.36.55.36.29.37.14.36.13.36.26.36.27.36.17h.37l.36.48.36.32.36.3.36.17.37.39.36.25.36.66.36-.84.37.64.36.14.36.48.36.01.36.73.37.13.36.42.36.28.36.38.36.25.37.56.36.05.36.48.36.4.36.66.37-.81.36-.24.36-115.2.36 8.35.37 1.76.36-3.09.36 1.86.36 2.95.36-1.72.37.44.36-3.72.36.6.36.88.36 1.3.37-1.66.36-3.26.36-3.61.36 3.44.36 1.64.37-.22.36-2.88.36-1.38.36 1.02.37 1.99.36-1.5.36-2.61.36-2.01.36 1.77.37 2.09.36-.74.36-2.09.36-1.92.36.08.37 1.73.36-1.24.36-.9.36-3.21.36 1.09.37 5.29.36-.32.36-2.18.36-2.76.36-.04.37 3.54.36-1.49.36-2.1.36.47.37-4.54.36 4.51.36-3.79.36 3.53.36-2.12.37 101.13.36 4.56.36 2.39.36 1.29.36.46.37.69.36.25.36-.04.36.56.36.18.37.33.36.21.36.21.36.32.37-.08.36-.24.36.41.36.31.36.41.37-.12.36.48.36.49.36.21.36-.23.37.56.36.12.36.57.36.08.36.39.37.22.36.56.36-.98.36.47.36.29.37.54.36-.06.36.65.36.29.37.77.36-.45.36.65.36.34.36.49.37.04.36.65.36.16.36.63.36-.39.37.26.36.52.36-119.37.36 8.8.36 5.41.37-.8.36.01.36-5.06.36 4.44.37.9.36 1.04.36-4.43.36.53.36-.63.37 2.12.36-4.96.36 2.87.36-5.16.36 3.32.37.49.36 1.26.36-2.22.36-1.56.36-3.62.37 3.27.36-.76.36 2.65.36-6.53.36 1.29.37 1.69.36 1.05.36-2.09.36-5.75.37-.81.36 6.67.36-.39.36-2.51.36-1.05.37-1.07.36 2.57.36-1.15.36-.11.36-.92.37-1.5.36.42.36 2.34.36-2.75.36.01.37-2.98.36 1.06.36 1.09h.36l.37 102.31.36 4.51.36 2.91.36 1.06.36.71.37.34.36.2.36.16.36.56.36.28h.37l.36.6.36.42.36-.09.36-1.28.37.45.36.29.36.61.36-.39.37.82.36.18.36.48.36-.52.36.67h.37l.36.66h.36l.36.27.36.49.37.29.36-.27.36.33.36.44.36.29.37.09.36.41.36.53.36.56.36-.12.37.35.36.4.36.5.36.09.37.36.36.63.36.37.36-.06.36-.81.37.64.36.71.36-117.85.36 7.81.36 3.78.37 2.44.36-3.35.36 1.24.36-2.35.36 2.41.37-.8.36 1.55.36-2.27.36-2.37.37-3.19.36 3.18.36-.46.36 1.7.36-4.69.37-.4.36 3.39.36.03.36-.91.36-3.1.37-4.64.36 7.09.36-2.76.36 1.07.36-2.14.37-2.04.36 2.3.36-.59.36-.81.36-1.27.37-3.74.36 4.45.36 2.31.36-.04.37-1.83.36-3.89.36 2.14.36 1.75.36.76.37-2.58.36-3.25.36 1.05.36.35.36-2.11.37 2.43.36-3.69.36-.36.36 1.77.36 101.86.37 4.7.36 2.3.36 1.14.36.73.37-.14.36.44.36.43.36.46.36-.07.37.53.36.19.36.53.36-.87.36.33.37.44.36.5.36-.24.36.49.36.26.37.6.36-.44.36.27.36.41.37.47.36.14.36.51.36-.02.36.53.37-.49.36-.01.36.33.36.75.36.16.37.47.36.33.36.35.36-.13.36.25.37.77.36.35.36.16.36.63.36.32.37.39.36.34.36-.57.36.76.37.37.36.24.36-116.59.36 8.35.36-1.05.37-.28.36 1.35.36 1.86.36 2.36.36-5.79.37.91.36 2.21.36.57.36-3.04.36-2.07.37-2.43.36 3.25.36 1.09.36-.42.37-1.69.36-1.36.36-.09.36-1.33.36 2.36.37-.12.36-4.94.36-1.79.36 5.76.36-1.52.37-.57.36-6.68.36 2.15.36 2.46.36 1.81.37-1.46.36-4.39.36.65.36 3.05.36-.6.37-.36.36-3.7.36.89.36 2.36.37.14.36-1.12.36-3.36.36-3.37.36 4.96.37-.68.36.13.36-2.37.36-1.21.36 105.14.37 5.12.36 2.52.36 1.42.36-.24.36.74.37.32.36.88.36-.17.36.66.37.22.36.43.36-1.68.36.02.36.27.37.3.36-.03.36.4.36.32.36.56.37-.19.36.28.36.48.36.03.36.14.37.37.36.35.36.39.36-.32.36.12.37.37.36.41.36.52.36.03.37.65.36.57.36-.07.36.12.36.74.37.25.36.43.36.32.36.45.36.5.37.19.36-.85.36.64.36.41.36.63.37-.35.36-117.44.36 11.69.36-.44.37-1.07.36-.4.36 3.03.36-.16.36 1.18.37-3.66.36-.96.36-.29.36-.91.36 2.35.37-2.17.36-2.22.36-1.31.36 4.43.36-.38.37-1.04.36-4.73.36-.64.36 3.95.37.32.36-3.06.36.28.36-3.75.36 4.51.37-2 .36-.03.36-3.62.36.12.36 1.75.37 2.5.36-1.49.36-.44.36-6.2.36 6.34.37-.66.36 1.06.36-4.38.36.78.36-.56.37 2.29.36-4.65.36 1.75.36-4.11.37 3.6.36.56.36-.35.36.46.36 99.43.37 4.84.36 2.95.36.44.36.75.36.59.37.64.36-.15.36.53.36.38.36.16.37-.25.36.12.36.29.36.66.37-.17.36.31.36.44.36.32.36-.08.37.29.36.36.36.44.36.05.36.53.37.27.36.14.36.01.36-.72.36.88.37.12.36.6.36.01.36.53.36.43.37.24.36-.26.36.84.36.28.37.52.36.12.36.53.36.22.36.94.37-.9.36.48.36.37.36.59.36.22.37.29.36-119.87.36 9.01.36 3.51.36-1.04.37 4.06.36-6.37.36 3.39.36 1.95.37-.62.36-.63.36-6.92.36 2.65.36 2.72.37-1.61.36.12.36-1.84.36-2.3.36 4.07.37-4.23.36 1.93.36-1.26.36-1.24.36-2.75.37 4.41.36-3.66.36.81.36-4.91.36 2.75.37.39.36 2.19.36-3.01.36-1.6.37 1.09.36 1.83.36-2.9.36-.45.36-1.72.37 3.2.36-.13.36-.16.36-.1.36-3.76.37-1.23.36 2.69.36-2.49.36 2.19.36-3.71.37-.79.36 4.91.36-.34.36 100.82.37 5.53.36 1.86.36 1.48.36.65.36.76.37.09.36.58.36.12.36.72.36-.7.37-.77.36.37.36.13.36.1.36.34.37.37.36.17.36.29.36-.16.37.44.36.19.36.6.36.16.36.12.37.51.36.27.36-.52.36.37.36.51.37.32.36.01.36.7.36.34.36.54.37-.45.36.51.36.57.36.53.36-.07.37.55.36.48.36.59.36-.81.37.32.36.26.36.71.36.13.36.54.37.27.36-117.32.36 6.52.36.82.36 4.93.37-1.12.36.27.36-2.26.36-1.81.36 3.93.37-4.8.36 2.87.36-2.01.36-3.49.37 3.61.36-1.11.36 1.79.36-2.11.36-3.42.37.81.36 1.69.36.89.36-1.7.36-4.65.37 2.33.36-.59.36.48.36-1.25.36-2.51.37 2.11.36 1.21.36.58.36 1.22.36-5.88.37 1.7.36.55.36 1.09.36 1.03.37-5.21.36.16.36 2.53.36.22.36-1.03.37-5.05.36-.34.36 2.85.36 1.33.36-1.12.37-.83.36-2.32.36 1.56.36 101.83.36 4.91.37 2.43.36 1.2.36.56.36.57.37.34.36.41.36.49.36-.29.36-.14.37.29.36.38.36.44.36-.1.36.48.37.53.36.12.36-.24.36.52.36.51.37.14.36.06.36.43.36-.03.36.82.37-.95.36.23.36.48.36.52.37-.08.36.5.36.39.36.37.36-.17.37.63.36.35.36.53.36.05.36.52.37.29.36.5.36-.13.36-.04.36.73.37.11.36.35.36.42.36.45.37.54.36-119.87.36 9.24.36 1.74.36-1.6.37 1.69.36 3.6.36-2.04.36-.45.36-6.79.37 4.17.36 1.38.36.19.36-1.27.36-4.07.37.29.36 4.31.36-3.5.36.22.37-2.1.36.75.36-.15.36.47.36-.51.37-2.38.36-4.42.36 2.94.36.03.36 3.61.37-3.69.36-.8.36 3.12.36-.08.36-1.45.37-4.2.36-.89.36 1.88.36 2.29.36-1.45.37-.97.36-3.09.36 1.49.36.87.37.08.36-2.52.36-1.57.36-.87.36 5.62.37-.23.36-.27.36-4.76"/><use xlink:href="#a" color="#3B75EA" transform="matrix(3.75 0 0 3.75 182.98 71.56)"/><use xlink:href="#a" color="#3B75EA" transform="matrix(3.75 0 0 3.75 220.55 22.51)"/></g><path fill="none" stroke="none" stroke-linecap="round" stroke-linejoin="round" stroke-width="0" d="M28 45.01V205M371.99 45.01H28" color="#000"/></svg>