<svg xmlns="http://www.w3.org/2000/svg" xmlns:xlink="http://www.w3.org/1999/xlink" viewBox="0 0 400 250"><path fill="none" d="M0 0h400v250H0z"/><defs><path id="c" stroke="currentColor" stroke-width=".267" d="M-1 0h2M0-1v2"/><path id="b" stroke="currentColor" stroke-width=".267" d="M-1-1h2v2h-2z"/><path id="a" stroke="currentColor" stroke-width=".267" d="m0-1.33-1.33 2h2.66z"/><path id="e" stroke="currentColor" stroke-width=".267" d="M0 1.33 1.265.411.782-1.067l-1.564-.009-.483 1.487z"/><circle id="d" cx="0" cy="0" r="1" stroke="currentColor" stroke-width=".267"/></defs><path fill="none" stroke="#333" stroke-linecap="round" stroke-linejoin="round" stroke-width=".1" d="M46.1 205V45.01" class="gridline" color="#000"/><g fill="none" stroke-linecap="round" stroke-linejoin="round" stroke-width="0" color="#000"><path d="M46.1 205v-7.5m0-152.49v7.5"/><text fill="#000" font-family="KaTeX_Main" font-size="8" text-anchor="middle" transform="translate(46.1 215.1)"><tspan> 1</tspan></text></g><path fill="none" stroke="#333" stroke-linecap="round" stroke-linejoin="round" stroke-width=".1" d="M82.31 205V45.01" class="gridline" color="#000"/><g fill="none" stroke-linecap="round" stroke-linejoin="round" stroke-width="0" color="#000"><path d="M82.31 205v-7.5m0-152.49v7.5"/><text fill="#000" font-family="KaTeX_Main" font-size="8" text-anchor="middle" transform="translate(82.31 215.1)"><tspan> 2</tspan></text></g><path fill="none" stroke="#333" stroke-linecap="round" stroke-linejoin="round" stroke-width=".1" d="M118.52 205V45.01" class="gridline" color="#000"/><g fill="none" stroke-linecap="round" stroke-linejoin="round" stroke-width="0" color="#000"><path d="M118.52 205v-7.5m0-152.49v7.5"/><text fill="#000" font-family="KaTeX_Main" font-size="8" text-anchor="middle" transform="translate(118.52 215.1)"><tspan> 3</tspan></text></g><path fill="none" stroke="#333" stroke-linecap="round" stroke-linejoin="round" stroke-width=".1" d="M154.73 205V45.01" class="gridline" color="#000"/><g fill="none" stroke-linecap="round" stroke-linejoin="round" stroke-width="0" color="#000"><path d="M154.73 205v-7.5m0-152.49v7.5"/><text fill="#000" font-family="KaTeX_Main" font-size="8" text-anchor="middle" transform="translate(154.73 215.1)"><tspan> 4</tspan></text></g><path fill="none" stroke="#333" stroke-linecap="round" stroke-linejoin="round" stroke-width=".1" d="M190.94 205V45.01" class="gridline" color="#000"/><g fill="none" stroke-linecap="round" stroke-linejoin="round" stroke-width="0" color="#000"><path d="M190.94 205v-7.5m0-152.49v7.5"/><text fill="#000" font-family="KaTeX_Main" font-size="8" text-anchor="middle" transform="translate(190.94 215.1)"><tspan> 5</tspan></text></g><path fill="none" stroke="#333" stroke-linecap="round" stroke-linejoin="round" stroke-width=".1" d="M227.15 205V45.01" class="gridline" color="#000"/><g fill="none" stroke-linecap="round" stroke-linejoin="round" stroke-width="0" color="#000"><path d="M227.15 205v-7.5m0-152.49v7.5"/><text fill="#000" font-family="KaTeX_Main" font-size="8" text-anchor="middle" transform="translate(227.15 215.1)"><tspan> 6</tspan></text></g><path fill="none" stroke="#333" stroke-linecap="round" stroke-linejoin="round" stroke-width=".1" d="M263.36 205V45.01" class="gridline" color="#000"/><g fill="none" stroke-linecap="round" stroke-linejoin="round" stroke-width="0" color="#000"><path d="M263.36 205v-7.5m0-152.49v7.5"/><text fill="#000" font-family="KaTeX_Main" font-size="8" text-anchor="middle" transform="translate(263.36 215.1)"><tspan> 7</tspan></text></g><path fill="none" stroke="#333" stroke-linecap="round" stroke-linejoin="round" stroke-width=".1" d="M299.57 205V45.01" class="gridline" color="#000"/><g fill="none" stroke-linecap="round" stroke-linejoin="round" stroke-width="0" color="#000"><path d="M299.57 205v-7.5m0-152.49v7.5"/><text fill="#000" font-family="KaTeX_Main" font-size="8" text-anchor="middle" transform="translate(299.57 215.1)"><tspan> 8</tspan></text></g><path fill="none" stroke="#333" stroke-linecap="round" stroke-linejoin="round" stroke-width=".1" d="M335.78 205V45.01" class="gridline" color="#000"/><g fill="none" stroke-linecap="round" stroke-linejoin="round" stroke-width="0" color="#000"><path d="M335.78 205v-7.5m0-152.49v7.5"/><text fill="#000" font-family="KaTeX_Main" font-size="8" text-anchor="middle" transform="translate(335.78 215.1)"><tspan> 9</tspan></text></g><path fill="none" stroke="#333" stroke-linecap="round" stroke-linejoin="round" stroke-width=".1" d="M371.99 205V45.01" class="gridline" color="#000"/><g fill="none" stroke-linecap="round" stroke-linejoin="round" stroke-width="0" color="#000"><path d="M371.99 205v-7.5m0-152.49v7.5"/><text fill="#000" font-family="KaTeX_Main" font-size="8" text-anchor="middle" transform="translate(371.99 215.1)"><tspan> 10</tspan></text></g><g fill="none" stroke-linecap="round" stroke-linejoin="round" stroke-width="0" color="#000"><path d="M371.99 205h-7.5"/><text fill="#000" font-family="KaTeX_Main" font-size="8" transform="translate(378.99 207.6)"><tspan>0.10</tspan></text></g><g fill="none" stroke-linecap="round" stroke-linejoin="round" stroke-width="0" color="#000"><path d="M371.99 182.14h-7.5"/><text fill="#000" font-family="KaTeX_Main" font-size="8" transform="translate(378.99 184.74)"><tspan>0.15</tspan></text></g><g fill="none" stroke-linecap="round" stroke-linejoin="round" stroke-width="0" color="#000"><path d="M371.99 159.29h-7.5"/><text fill="#000" font-family="KaTeX_Main" font-size="8" transform="translate(378.99 161.89)"><tspan>0.20</tspan></text></g><g fill="none" stroke-linecap="round" stroke-linejoin="round" stroke-width="0" color="#000"><path d="M371.99 136.43h-7.5"/><text fill="#000" font-family="KaTeX_Main" font-size="8" transform="translate(378.99 139.03)"><tspan>0.25</tspan></text></g><g fill="none" stroke-linecap="round" stroke-linejoin="round" stroke-width="0" color="#000"><path d="M371.99 113.58h-7.5"/><text fill="#000" font-family="KaTeX_Main" font-size="8" transform="translate(378.99 116.18)"><tspan>0.30</tspan></text></g><g fill="none" stroke-linecap="round" stroke-linejoin="round" stroke-width="0" color="#000"><path d="M371.99 90.72h-7.5"/><text fill="#000" font-family="KaTeX_Main" font-size="8" transform="translate(378.99 93.32)"><tspan>0.35</tspan></text></g><g fill="none" stroke-linecap="round" stroke-linejoin="round" stroke-width="0" color="#000"><path d="M371.99 67.87h-7.5"/><text fill="#000" font-family="KaTeX_Main" font-size="8" transform="translate(378.99 70.47)"><tspan>0.40</tspan></text></g><g fill="none" stroke-linecap="round" stroke-linejoin="round" stroke-width="0" color="#000"><path d="M371.99 45.01h-7.5"/><text fill="#000" font-family="KaTeX_Main" font-size="8" transform="translate(378.99 47.61)"><tspan>0.45</tspan></text></g><path fill="none" d="M28 45.01V205M371.99 45.01H28" color="#000"/><text stroke-linecap="round" stroke-linejoin="round" stroke-width="0" color="#000" font-family="KaTeX_Main" font-size="10" text-anchor="middle" transform="rotate(-90 68.255 56.755)"><tspan font-weight="bold">Duration </tspan><tspan> in milliseconds</tspan></text><text stroke-linecap="round" stroke-linejoin="round" stroke-width="0" color="#000" font-family="KaTeX_Main" font-size="10" text-anchor="middle" transform="translate(199.99 238.25)"><tspan>Operations / 10</tspan><tspan dy="-5" font-size="8">5</tspan></text><text stroke-linecap="round" stroke-linejoin="round" color="#000" font-family="KaTeX_Main" font-size="8" transform="translate(132.8 10.11)"><tspan>Splay</tspan></text><g fill="none" stroke="currentColor" stroke-linecap="round" stroke-linejoin="round" color="#000"><path stroke="violet" d="M97.3 7.51h29.9M28 159.07l.36.4.36 2.98.37.49.36-4.69.36 4.03.36-4.26.36 3.41.37-4.49.36-.53.36.75.36 3.02.37.05.36-4.26.36 3.61.36-4.03.36 3.08.37-4.12.36.05.36-.44.36-.46.36 3.76.37-3.82.36 3.73.36-3.84.36 3.06.36-.33.37-3.93.36-.03.36-.68.36 3.63.36-4.19.37 3.68.36-3.61.36 3.23.36-.27.37-4.07.36-.05.36-.35.36 3.44.36-3.92.37 3.35.36-3.74.36 3.35.36-.32.36-4.01.37.09.36-.59.36 3.64.36-4.49.36 3.78.37-3.62.36 2.82.36-.12.36-3.6.37.1.36-.67.36 3.58.36-3.69.36-.55.37-.35.36 3.05.36.34.36-4.19.36 3.7.37-3.5.36 3.17.36-3.71.36-.21.36-.35.37 3.12.36.39.36-4.25.36 3.58.37-3.52.36 3.19.36-4.3.36-.06.36.1.37 2.99.36-.01.36-3.67.36 3.56.36-3.79.37 3.13.36-3.78.36-.14.36-.05.36-.22.37 3.18.36-3.36.36 3.18.36-3.75.36 3.03.37.17.36-3.57.36.09.36-.74.37 3.65.36-3.57.36 3.12.36-3.66.36 3.13.37-.28.36-3.03.36 2.68.36-6.58.36 6.7.37-3.6.36 3.45.36-3.63.36 2.92.36-.46.37-3.11.36 3.15.36-6.99.36 6.59.37-3.45.36 3.26.36-3.48.36 3.45.36-.5.37-3.34.36 3.39.36-7.16.36 6.7.36-3.65.37-.14.36-.46.36 3.85.36-.24.36-3.47.37 3.12.36-3.43.36 2.83.36-3.13.36-.09.37-.21.36 3.16.36-.13.36-3.23.37 2.58.36-3.23.36 3.49.36-3.22.36-.24.37 2.73.36-3.6.36 3.63.36-3.51.36 3.18.37-3.27.36 2.86.36-3.49.36-.16.36 3.08.37-6.83.36 6.76.36-3.33.36 3.36.37-3.72.36 3.43.36.09.36-3.62.36 2.75.37-6.58.36 6.59.36-3.15.36 3.22.36-3.68.37 3.11.36-.23.36-3.33.36 3.19.36-6.79.37 6.56.36-3.41.36 3.07.36-3.33.36 3.05.37.31.36-3.35.36 2.91.36-7.08.37 6.7.36-3.23.36 3.42.36-3.3.36 2.87.37.34.36-3.81.36 3.3.36-7.1.36 6.91.37-3.97.36.23.36 3.5.36-3.73.36 3.02.37-3.14.36 3.33.36-3.44.36 2.96.37-3.14.36-.6.36 3.67.36-3.13.36 2.93.37-3.38.36 2.85.36-2.97.36 3.14.36-3.67.37.23.36 3.19.36-3.6.36 3.02.36-3.22.37 3.17.36-3.35.36 3.26.36-3.72.37.12.36 3.11.36-3.47.36 3.47.36-3.32.37 3.13.36-3.4.36 3.18.36-3.24.36-.37.37 2.97.36-6.64.36 6.81.36-3.82.36 3.78.37-.56.36-3.22.36 3.29.36-3.3.36 3.3.37-6.9.36 6.6.36-3.5.36 2.98.37.36.36-3.67.36 3.18.36-3.37.36 3.13.37-6.82.36 6.64.36-3.45.36 3.72.36-.18.37-3.83.36 3.78.36-3.55.36 2.98.36-6.83.37 6.26.36-3.21.36-.17.36 3.39.37-3.66.36 3.57.36-3.69.36 3.44.36-3.18.37 3.06.36-3.28.36-.32.36 3.4.36-3.69.37 3.34.36-3.53.36 2.96.36.37.36-3.55.37-.13.36.03.36 3.04.36-3.12.36 2.81.37-3.36.36 3.76.36-.22.36-3.65.37-.41.36-.24.36 3.36.36-3.43.36 3.47.37-3.44.36 3.11.36-.32.36-2.91.36-.31.37-.41.36 3.89.36-7.28.36 6.12.36-2.98.37 3.6.36-.57.36-3.43.36 3.66.37-3.43.36 3.03.36-6.57.36 6.01.36-2.87.37 2.88.36.43.36-3.87.36 3.58.36-3.4.37 3.37.36-3.7.36-.3.36-.04.36 3.63.37-.18.36-3.68.36 3.81.36-3.82.36 2.93.37-3.37.36-.22.36.34.36-.31.37 3.31.36-3.14.36 3.33.36-3.67.36 3.43.37.17.36-3.78.36.36.36-.62.36 3.22.37-3.02.36 3.2.36-3.7.36 3.47.36.31.37-3.97.36-.11.36.01.36 3.07.37-3.18.36 3.09.36-3.56.36 3.71.36-.43.37-3.45h.36l.36-.15.36 3.35.36-3.41.37 3.79.36-3.56.36 2.86.36-.25.36-3.47.37.24.36.15.36 2.62.36-3.39.37.01.36.06.36 3.52.36-.04.36-3.64.37 3.43.36-3.7.36 3.19.36-3.38.36-.14.37.37.36 3.17.36.13.36-4.03.36 4.03.37-3.84.36 3.3.36-3.7.36-.11.36.21.37 3.27.36.46.36-3.92.36 3.23.37-2.74.36 3.18.36-4.19.36.04.36-.15.37 3.6.36.15.36-3.79.36 3.22.36-3.32.37 3.36.36-3.51.36-.44.36.04.36-.37.37 3.36.36-3.35.36 3.44.36-3.59.37 3.67.36-.12.36-3.6.36-.03.36-.62.37 3.78.36-3.8.36 3.92.36-3.54.36 3.05.37.12.36-3.34.36-.22.36-.51.36 3.29.37-3.25.36 3.38.36-3.39.36 3.14.36.39.37-3.77.36 3.61.36-7.41.36 6.87.37-3.6.36-.38.36.45.36 3.09.36.39.37-4.25.36 3.59.36-3.62.36 3.72.36-3.73.37.13.36.09.36 3.21.36.37.36-4.09.37 3.83.36-3.77.36 2.95.36-3.35.37-.57.36.33.36 3.51.36.02.36-3.77.37 3.68.36-3.34.36 3.38.36-4.08.36-.13.37.22.36 3.38.36.51.36-3.52.36 3.42.37-3.57.36 3.07.36-3.69.36-.36.37 3.73.36-8.13.36 7.61.36-3.7.36 3.54.37-3.18.36 2.91.36-.09.36-3.92.36 4.32.37-7.47.36 6.64.36-3.07.36 3.07.36-3.3.37 3.31.36-.06.36-3.63.36 3.57.36-7.86.37 7.27.36-3.83.36 4.04.36-3.72.37 3.27.36.21.36-3.86.36 3.63.36-7.46.37 6.64.36-3.12.36-.68.36.93.36 2.88.37.04.36-3.64.36 3.38.36-2.85.36 2.72.37-3.58.36-.52.36 3.74.36-3.61.37 3.19.36-3.12.36 3.53.36-3.08.36 2.84.37-3.56.36-.69.36 3.81.36-3.52.36 3.57.37-4.02.36 3.77.36-3.31.36 2.87.36-3.91.37-.13.36 3.69.36-4.05.36 4.22.36-4.05.37 3.95.36-3.63.36 3.22.36-3.71.37-.39.36 3.84.36-7.93.36 7.49.36-3.86.37 3.33.36-3.14.36 3.29.36-.1.36-3.61.37 3.04.36-7.36.36 7.28.36-3.86.36 3.66.37-.03.36-4 .36 3.86.36-4.12.37 3.91.36-7.85.36 6.75.36-3.27.36 3.54.37.17.36-3.92.36 4.04.36-3.7.36 3.02.37-7.38.36 6.78.36-3.49.36 3.23.36.34.37-3.74.36 3.83.36-3.89.36 3.53.36-7.25.37 6.89.36-3.39.36-.47.36 3.7.37-4.54.36 4.77.36-4.65.36 3.88.36-3.31.37 2.71.36-3.12.36-.38.36 3.35.36-4.08.37 4.05.36-3.52.36 2.93.36.39.36-4.12.37.48.36-.86.36 3.33.36-4.11.37 4.71.36-4.27.36 3.5.36.4.36-3.88.37-.35.36-.6.36 3.75.36-7.79.36 7.28.37-3.21.36 3.27.36.24.36-4.5.36 4.38.37-4.57.36 3.9.36-7.6.36 6.36.37-2.57.36 2.96.36.46.36-4.2.36 3.49.37-3.24.36 3.21.36-7.57.36 6.57.36-3.29.37 3.35.36-.21.36-3.13.36 3.44.36-4.1.37 3.34.36-3.41.36-.04.36-.82.36 3.75.37.66.36-4.35.36 3.74.36-3.44.37 2.64.36-3.29.36-.25.36-.3.36-.25.37 4.01.36-4.66.36 3.95.36-3.41.36 3.23.37.21.36-4.16.36.26.36-.39.36 3.59.37-3.49.36 3.3.36-3.33.36 3.01.37.07.36-3.64.36.56.36-1.04.36 3.47.37-4.31.36 4.26.36-3.8.36 3.57.36.07.37-3.7.36-.79.36.5.36 2.63.36-3.89.37.24.36.12.36 3.09.36.67.36-4.81.37 4.26.36-4.24.36 4.17.36-4.15.37-.32.36.04.36 3.34.36-.02.36-4.05.37 3.85.36-3.38.36 3.27.36-3.59.36-.57.37-.09.36 3.32.36-.05.36-3.81.36 3.79.37-3.66.36 3.51.36-3.78.36-.44.37-.44.36 3.79.36.03.36-4.08.36 3.31.37-2.96.36 2.92.36-3.36.36-.72.36-.04.37.08.36 3 .36-3.6.36 3.82.36-3.72.37 3.06.36.46.36-3.57.36.24.36-1.17.37 3.6.36-3.31.36 3.2.36-3.44.37 3.11.36.52.36-3.55.36-.99.36-.39.37 3.77.36-3.35.36 2.8.36-3.23.36 3.95.37-.24.36-3.7.36-.24.36-.31.36 3.64.37-4.14.36 3.14.36-3.04.36 2.68.37.25.36-3.87.36 3.63.36-6.98.36 6.97.37-3.79.36-.78.36.04.36 3.44.36.27.37-4.21.36 3.68.36-3.53.36 2.91.36-3.58.37-.61.36.18.36 3.25.36.25.37-3.55.36 3.24.36-3.81.36 3.92.36-3.86.37-.44.36.24.36 3.25.36.25.36-4.64.37 3.78.36-2.68.36 2.84.36-4.15.36-.13.37.15.36-.93.36 4.06.36-3.66.36 3.66.37-4.28.36 3.99.36.05.36-3.36.37 3.51.36-8.14.36 7.3.36-3.68.36 3.32.37-3.63.36 3.21.36.34.36-3.42.36 3.69.37-8.05.36 7.11.36-3.59.36 3.72.36-3.2.37 2.9.36.34.36-3.57.36 3.15.37-8.81.36 8.09.36-3.84.36 4.16.36-4.27.37 3.5.36.33.36-4.1.36 4.04.36-8.48.37 7.14.36-3.52.36-.15.36-.01.36 3.15.37.33.36-3.85.36 4.33.36-4.49.36 3.43.37-3.9.36.49.36 3.17.36-3.97.37 3.76.36-3.69.36 4.03.36-3.65.36 2.67.37-3.57.36-.16.36 3.67.36-4.53.36 4.03.37-3.18.36 3.4.36-3.42.36 3.39.36-4.04.37-.43.36 4.39.36-8.39.36 7.51.37-4.02.36 3.89.36-2.93.36 2.92.36.34.37-4.1.36 3.73.36-7.98.36 7.97.36-3.26.37 2.26.36-2.68.36 3.5.36.26.36-4.22.37 3.71.36-7.59.36 6.3.36-2.6.36 3.29.37.23.36-3.78.36 3.01.36-2.54.37 3.33.36-8.27.36 7.41.36-4.37.36 3.41.37 1.34.36-4.26.36 3.9.36-4.59.36 4.55.37-8.12.36 6.93.36-4.16.36-.05.36 4.63.37-4.17.36 3.14.36-2.6.36 2.71.37-3.29.36 3.63.36-4.22.36-.17.36 3.97.37-3.09.36 3.71.36-3.96.36 3.24.36-3.69.37 3.91.36-4.4.36-.02.36 4.62.36-4.79.37 3.84.36-3.13.36 3.61.36.18.37-3.5.36-.5.36-.07.36 3.98.36-3.13.37 3.11.36-3.11.36 2.9.36-.29.36-3.57.37.48.36-1.1.36 3.77.36-6.83.36 6.3.37-3.41.36 3.94.36-.18.36-4.07.36 4.05.37-3.96.36 4.35.36-7.51.36 7.31.37-5.28.36 4.69.36.43.36-3.51.36 3.82.37-4.58.36 4.11.36-7.16"/><use xlink:href="#b" color="violet" transform="matrix(3.75 0 0 3.75 354.25 54.26)"/><use xlink:href="#b" color="violet" transform="matrix(3.75 0 0 3.75 112.25 7.51)"/></g><text stroke-linecap="round" stroke-linejoin="round" color="#000" font-family="KaTeX_Main" font-size="8" transform="translate(132.8 25.11)"><tspan>AVLBottomUp</tspan></text><g fill="none" stroke="currentColor" stroke-linecap="round" stroke-linejoin="round" color="#000"><path stroke="#000" d="M97.3 22.51h29.9M28 159.49l.36 3.98.36-8.63.37 7.69.36-4.05.36 3.51.36-3.74.36 3.01.37-.01.36-4.31.36 3.43.36-8.12.37 7.31.36-4.14.36 3.83.36-3.97.36 3.08.37-.03.36-4.23.36 3.49.36-7.55.36 6.81.37-3.95.36 3.3.36-3.73.36 2.84.36-.16.37-4.03.36 3.35.36-7.5.36 6.74.36-3.49.37-.74.36-.02.36 3.03h.36l.37-4.12.36 3.37.36-3.7.36 3.14.36-3.48.37-.31h.36l.36 2.94.36-.06.36-3.84.37 3.39.36-3.39.36 2.88.36-3.26.36-.51.37 3.25.36-3.64.36 3.31.36-3.52.37 3.11.36-3.25.36 2.81.36-3.37.36-.39.37 3.21.36-3.8.36 3.3.36-3.32.36 3.07.37-3.45.36 2.65.36-3.03.36-.56.36 3.42.37-7.2.36 6.88.36-3.7.36 3.22.37-3.29.36 2.85.36.1.36-3.71.36 3.15.37-6.95.36 6.32.36-3.41.36 3.29.36-3.29.37 2.78.36.09.36-3.45.36 3.07.36-6.4.37 6.05.36-3.4.36 3.13.36-.3.36-3.51.37 3.12.36-3.47.36 3.04.36-6.68.37 6.58.36-3.38.36-.48.36 3.36.36-3.45.37 3.08.36-3.32.36 3.12.36-3.12.36 2.9.37-3.44.36-.2.36 3.12.36-3.33.36 3.27.37-3.4.36 3.17.36-3.41.36 3.15.37-3.35.36-.21.36 3.21.36-3.45.36 3.24.37-3.59.36 3.37.36-3.4.36 3.09.36-3.38.37-.27.36 3.27.36-3.2.36 3.18.36-3.33.37 3.15.36-.36.36-3.41.36.09.36-.26.37 3.34.36-6.83.36 6.56.36-3.36.37 3.16.36.08.36-3.54.36 3.4.36-3.34.37 3.09.36-6.97.36 6.71.36-3.77.36 3.5.37.04.36-3.64.36 3.51.36-3.45.36 3.11.37-6.78.36 6.49.36-3.22.36 3.13.37-.04.36-3.43.36 3.35.36-3.8.36 3.21.37-6.76.36 6.63.36-3.28.36 3.19h.36l.37-3.59.36 3.3.36-3.53.36 3.38.36-3.64.37.01.36.06.36-.39.36 3.52.36-3.52.37 3.2.36-3.53.36 3.43.36-.13.37-3.3.36-.15.36-.3.36 3.29.36-3.47.37 3.53.36-3.49.36 3.2.36.01.36-3.37.37-.16.36-.38.36 3.52.36-3.78.36 3.4.37-3.38.36 3.27.36.06.36-3.62.37.11.36-.35.36 3.49.36-6.84.36 6.51.37-3.19.36 3.18.36.01.36-3.79.36 3.52.37-3.69.36 3.43.36-3.47.36-.07.36-.23.37 3.63.36-.04.36-3.75.36 3.35.37-3.36.36 3.33.36-3.4.36-.34.36.02.37 3.31.36-.02.36-3.51.36 3.28.36-3.28.37 3.14.36-3.34.36-.39.36.2.36 3.21.37.11.36-3.53.36 3.44.36-3.67.36 3.31.37-3.45.36-.23.36.09.36-.23.37 3.44.36-3.59.36 3.54.36-3.45.36 3.33.37-.09.36-3.44.36.07.36-.44.36 3.61.37-3.72.36 3.51.36-3.28.36 3.23.36-.13.37-3.52.36.28.36-.43.36 3.47.37-3.56.36 3.59.36-3.63.36 3.38.36.2.37-3.78.36.04.36-.25.36 3.5.36-3.52.37-.34.36-.19.36 3.61.36.07.36-3.6.37 3.54.36-3.51.36 3.45.36-3.49.36-.4.37.12.36 3.26.36.28.36-3.64.37 3.47.36-3.77.36 3.69.36-3.43.36-.42.37.04.36 3.43.36.18.36-3.82.36 3.69.37-3.65.36 3.46.36-3.54.36-.12.36.05.37 3.35.36-.01.36-3.53.36 3.51.37-3.5.36 3.23.36-3.39.36-.07.36-.04.37-.31.36 3.54.36-3.59.36 3.44.36-3.27.37 3.2.36.08.36-3.76.36.28.36-.42.37 3.35.36-3.65.36 3.77.36-3.34.36 3.15h.37l.36-3.67.36 3.65.36-7.14.37 6.82.36-3.4.36 3.29.36-3.19.36 3.11.37-.03.36-3.71.36 3.76.36-7.4.36 6.83.37-3.63.36 3.58.36-3.27.36 3.11.36.16.37-3.6.36 3.47.36-7.2.36 6.87.37-3.8.36-.03.36.01.36 3.27.36.21.37-3.65.36 3.5.36-3.34.36 3.27.36-3.5.37-.48.36.21.36 3.25.36.16.36-3.82.37 3.52.36-3.35.36 3.29.36-3.52.37-.27.36 3.49.36-3.75.36 3.79.36-3.77.37 3.61.36-3.34.36 3.11.36-3.44.36-.56.37 3.88.36-7.46.36 6.85.36-3.6.36 3.55.37-3.28.36 3.06.36.27.36-3.63.36 3.43.37-7.44.36 6.76.36-3.39.36 3.45.37-3.34.36 3.26.36.16.36-3.65.36 3.33.37-7.25.36 6.77.36-3.55.36 3.69.36-3.37.37 3.26.36.26.36-4.16.36 3.67.36-6.92.37 6.77.36-3.48.36 3.36.36.14.37-3.85.36 3.62.36-3.58.36 3.5.36-7.51.37 6.81.36-3.51.36-.23.36 3.81.36-4.07.37 3.77.36-3.72.36 3.5.36-3.61.36 3.31.37-3.48.36-.69.36 3.7.36-4.28.36 4.18.37-3.95.36 3.75.36-3.36.36 2.96.37-3.28.36-.52.36 3.59.36-3.66.36 3.75.37-3.68.36 3.46.36-3.42.36 3.12.36-3.45.37-.71.36 3.91.36-7.86.36 7.35.36-3.83.37 3.74.36.26.36-4.13.36 3.75.37-4.07.36 4.03.36-7.71.36 7.15.36-3.7.37 3.65.36.23.36-3.71.36 3.64.36-3.92.37 3.84.36-7.73.36 6.91.36-3.64.36 3.67.37.18.36-4.54.36 4.02.36-3.48.37 3.43.36-7.71.36 6.9.36-3.83.36 3.62.37.23.36-4.17.36 3.82.36-3.75.36 3.61.37-7.26.36 6.51.36-3.44.36-.57.36 3.75.37-3.93.36 3.59.36-3.6.36 3.48.36.1.37-4.17.36.04.36-.7.36 3.63.37-3.94.36 4.08.36-3.91.36 3.49.36.24.37-4.17.36.21.36-.62.36 3.72.36-3.94.37 3.65.36-3.51.36 3.17.36.26.36-4.05.37.03.36-.48.36 3.64.36-3.9.37 3.66.36-3.6.36 3.09.36.44.36-3.98.37-.18.36-.38.36 3.62.36-7.61.36 6.85.37-3.47.36 3.24.36.1.36-3.89.36 3.71.37-3.68.36 3.43.36-3.85.36-.65.36.01.37 3.51.36-.02.36-3.97.36 3.73.37-3.89.36 3.5.36-3.73.36-.6.36.11.37 3.13.36.15.36-3.3.36 3.27.36-3.64.37 3.2.36-3.45.36-.86.36.32.36-.57.37 3.57.36-3.9.36 3.67.36-3.86.37 3.24.36.47.36-4.15.36.07.36-.29.37 3.26.36-3.9.36 3.91.36-3.83.36 3.55.37.06.36-4.2.36-.24.36-.68.36 3.67.37-3.71.36 3.46.36-3.59.36 3.56.36-.14.37-3.72.36-.17.36-.73.36 3.81.37-4.01.36 3.48.36-3.7.36 3.32.36.18.37-4.46.36.37.36-.53.36 3.31.36-3.83.37-1 .36.39.36 3.27.36.23.36-3.74.37 3.83.36-3.89.36 3.61.36-3.6.37-.28.36-.02.36 3.42.36.22.36-3.6.37 3.43.36-3.43.36 3.22.36-3.64.36-.59.37.41.36 3.42.36.25.36-3.88.36 3.7.37-3.63.36 3.45.36-4.11.36-.19.37-.02.36-.24.36 3.57.36-4.03.36 3.88.37-3.71.36 3.47.36.12.36-3.96.36.14.37-.71.36 3.47.36-4.04.36 4.33.36-3.7.37 3.43.36.16.36-4.1.36.16.36-.64.37 3.32.36-3.79.36 3.7.36-3.53.37 3.27.36.16.36-3.96.36 3.52.36-7.74.37 7.16.36-4.02.36 3.92.36-3.48.36 3.1.37.23.36-4.03.36 3.72.36-7.76.36 6.92.37-3.45.36-.6.36.12.36 3.91.37.02.36-3.7.36 3.63.36-3.91.36 3.75.37-3.75.36-.21.36-.34.36 3.61.36.2.37-3.68.36 3.89.36-3.54.36 3.07.36-3.09.37-.47.36.41.36 2.8.36.39.36-3.69.37 3.49.36-4.1.36 3.88.36-3.58.37-.43.36 4.36.36-4.28.36 3.56.36-3.45.37 3.64.36-3.37.36 3.16.36-3.82.36-.22.37 4.24.36-8.03.36 7.19.36-3.74.36 3.82.37-4.11.36 4.11.36.19.36-3.99.37 4.06.36-7.51.36 7.01.36-3.6.36 3.67.37-3.5.36 2.86.36.71.36-3.92.36 3.67.37-7.74.36 7 .36-3.71.36 4.05.36-3.47.37 3.14.36.42.36-3.89.36 3.83.36-7.76.37 7.4.36-3.7.36-.33.36 3.96.37-4.4.36 4.26.36-3.7.36 3.47.36-3.64.37 3.8.36-4.25.36-.51.36 4.02.36-3.61.37 3.77.36-3.65.36 3.35.36-3.43.36 3.56.37-3.52.36-.9.36 4.32.36-3.75.37 3.62.36-4.04.36 3.79.36-3.36.36 3.45.37-3.5.36-.72.36 4.14.36-3.88.36 3.71.37-3.72.36 3.47.36-3.39.36 3.3.36-3.67.37-.47.36 4.04.36-7.63.36 6.87.37-3.75.36 4.02.36-.25.36-3.73.36 3.54.37-3.27.36 3.52.36-7.74.36 7.21.36-3.94.37 3.52.36.85.36-4.33.36 3.69.36-3.75.37 4.06.36-7.82.36 7.06.36-3.42.36 3.55.37.02.36-3.82.36 3.36.36-3.68.37 3.79.36-7.92.36 7.33.36-3.7.36-.06.37 4 .36-4.29.36 3.68.36-3.38.36 3.12.37-3.68.36 3.26.36-3.55.36-.41.36 3.92.37-3.85.36 3.55.36-3.56.36 3.32.37-.04.36-4.21.36.63.36-.3.36 3.62.37-3.92.36 3.69.36-4.24.36 3.55.36.29.37-3.74.36-.27.36-.18.36 3.57.36-3.97.37 3.71.36-3.75.36 3.59.36-.41.36-3.84.37-.07.36-.3.36 4.1.36-7.9.37 7.15.36-3.59.36 3.69.36.49.36-4.7.37 4.03.36-3.9.36 3.64.36-7.45.36 7.19.37-3.67.36 3.48.36.21.36-3.98.36 3.49.37-3.31.36 3.32.36-3.82.36-.24.37-.01.36 3.76.36.13.36-4.31.36 3.65.37-3.9.36 4 .36-4.61.36.16.36.12.37 3.83.36-.04.36-4.12.36 3.91.36-3.93.37 3.67.36-3.93.36-.6.36.75.36-.76.37 3.57.36-4.14.36 4.07.36-3.46.37 3.47.36.13.36-4.11.36-.16.36-.23.37 3.9.36-4.46.36 4.24.36-3.53.36 3.56.37-.32.36-4.04.36.26.36-1.06.36 4.2.37-3.88.36 3.52.36-3.83.36 3.81.37-.06.36-3.67h.36l.36-.49.36 3.63.37-3.86.36-.26.36-.07.36 3.74.36.06.37-3.9.36 3.52.36-3.95.36 3.49.36-3.53.37-1.01.36.6.36 3.73.36.03.37-3.72.36 3.03.36-3.04.36 3.2.36-3.59.37-.62.36.31.36 3.42.36-.03.36-4.07.37 3.64.36-3.67.36 3.52.36-3.58.36-.59h.37l.36 3.68.36.19.36-3.73.36 3.54.37-3.96.36 3.92.36-3.8.36-.33.37.09.36-.44.36 3.85.36-3.94.36 4.19.37-4.09.36 3.37.36.66"/><use xlink:href="#c" transform="matrix(3.75 0 0 3.75 67.83 138.44)"/><use xlink:href="#c" transform="matrix(3.75 0 0 3.75 112.25 22.51)"/></g><text stroke-linecap="round" stroke-linejoin="round" color="#000" font-family="KaTeX_Main" font-size="8" transform="translate(241.1 10.11)"><tspan>LBSTBottomUp</tspan></text><g fill="none" stroke="currentColor" stroke-linecap="round" stroke-linejoin="round" color="#000"><path stroke="#3B75EA" d="M205.6 7.51h29.9M28 163.5l.36.45.36 2.79.37.37.36-4.24.36 3.32.36-3.69.36 2.96.37-4.21.36-.54.36.07.36-.79.37 3.56.36-3.78.36 3.51.36-3.59.36 3.14.37-.1.36-3.94.36-.13.36-.76.36 3.4.37-3.76.36 3.47.36-3.61.36 2.91.36-.04.37-3.85.36.2.36-.82.36 3.34.36-3.65.37 3.3.36-3.46.36 2.86.36.01.37-3.82.36 3.25.36-6.98.36 6.44.36-3.43.37-.31.36.05.36 2.95.36.04.36-3.78.37 3.34.36-3.49.36 3.01.36-3.7.36-.15.37.13.36 2.79.36.05.36-3.56.37 3.07.36-3.29.36 2.83.36-3.45.36-.42.37.19.36 2.67.36.02.36-3.4.36 3 .37-3.08.36 2.65.36-3.26.36-.32.36-.01.37 2.69.36.12.36-3.37.36 2.98.37-3.12.36 2.67.36-3.16.36-.53.36 3.11.37-6.28.36 5.96.36-3.04.36 2.84.36-3.04.37 2.69.36.07.36-3.22.36 2.86.36-6.49.37 6.02.36-2.91.36 2.87.36-3.06.36 2.61.37-.06.36-3.04.36 2.97.36-6.5.37 6.14.36-3.17.36 2.92.36-3.12.36 2.76.37.08.36-3.38.36 3.06.36-5.93.36 5.53.37-2.94.36 2.76.36-2.92.36 2.62.36-.03.37-2.99.36 2.93.36-6.14.36 5.7.37-3.07.36-.14.36 2.94.36-2.97.36 2.78.37-3.38.36 3.17.36-2.96.36 2.63.36-3.03.37-.25.36 2.95.36-2.99.36 2.98.36-3.15.37 2.98.36-3.08.36 2.81.36-3.06.36-.16.37 3.02.36-3.33.36 3.14.36-2.98.37 2.79.36-3.11.36 2.84.36-3.03.36-.2.37 2.92.36-6.09.36 5.93.36-3.12.36 2.91.37-3.1.36 2.85.36.09.36-3.48.36 3.25.37-6.17.36 5.88.36-3.08.36 2.99.37-.18.36-3.27.36 3.03.36-2.92.36 2.77.37-6.09.36 5.88.36-3.12.36 2.77.36.14.37-3.15.36 2.97.36-3.16.36 2.99.36-6.49.37 6.22.36-3.14.36 2.84h.36l.36-3.18.37 3.13.36-3.08.36 2.81.36-6.05.37 5.66.36-3 .36-.14.36 2.94.36-2.98.37 3.06.36-3.19.36 2.77.36-2.76.36 2.59.37-2.95.36-.29.36 3.17.36-3.29.36 3.12.37-3.21.36 2.95.36.05.36-3.16h.37l.36-.28.36 3.2.36-3.39.36 3.04.37-2.94.36 2.8.36.08.36-3.32.36.06.37-.22.36 3.12.36-6.37.36 6.06.36-3.12.37 3.1.36.06.36-3.44.36 3.19.37-3.08.36 2.95.36-6.21.36 6.04.36-3.08.37 2.93.36-.06.36-3.24.36 3.24.36-3.27.37 3.02.36-6.44.36 6.29.36-3.11.36 2.9.37.04.36-3.28.36 1.98.36-1.99.36 2.95.37-3.11.36-.28.36-1.01.36 4.25.37-.26.36-3.45.36 3.29.36-3.2.36 3.16.37-3.22.36-.48.36.44.36-.31.36 3.09.37-3.32.36 3.22.36-3.41.36 3.28.36-.15.37-3.2.36-.02.36-.46.36 3.54.37-3.33.36 3.2.36-3.16.36 2.92.36.16.37-3.38.36-.17.36-.14.36 3.2.36-3.17.37 3.22.36-3.3.36 3.07.36-.13.36-3.24.37-.14.36-.13.36 3.15.36-3.32.36 3.21.37-3.04.36 2.97.36.15.36-3.44.37-.07.36-.21.36 3.36.36-3.39.36-.24.37.07.36 3.22.36-.09.36-3.58.36 3.53.37-3.41.36 3.13.36-3.46.36.02.36-.01.37 3.32.36-.15.36-3.2.36 3.28.37-3.42.36 3.29.36-3.43.36-.31.36.19.37 3.06.36.14.36-3.55.36 3.19.36-3.16.37 3.12.36-3.36.36-.16.36.12.36-.33.37 3.06.36-3.16.36 3.3.36-3.25.36 3 .37.17.36-3.82.36.37.36-.31.37 3.46.36-3.38.36 3.21.36-3.35.36 3.47.37-.15.36-3.5.36.2.36-.68.36 3.44.37-3.36.36 3.39.36-3.29.36 3.54.36-.37.37-3.34.36.09.36-.66.36 3.55.37-3.46.36 3.44.36-3.41.36 3.27.36-.02.37-3.65.36 3.69.36-7.45.36 6.79.36-3.3.37-.57.36.38.36 3.05.36.27.36-3.47.37 3.22.36-3.42.36 3.49.36-3.56.37-.34.36.07.36 3.26.36.21.36-3.65.37 3.25.36-3.1.36 3.24.36-3.86.36-.07.37.21.36 3.03.36.19.36-3.54.36 3.4.37-3.44.36 3.37.36-3.51.36-.43.36.23.37-.54.36 3.5.36-3.66.36 3.75.37-3.79.36 3.47.36.34.36-3.88.36 3.64.37-7.29.36 6.75.36-3.29.36 3.37.36-3.19.37 2.93.36.34.36-3.89.36 3.65.36-7.22.37 6.87.36-3.77.36 3.6.36-3.37.37 3.13.36.07.36-3.63.36 3.57.36-7.27.37 6.85.36-3.47.36 3.46.36-3.31.36 3.01.37.37.36-3.78.36 3.65.36-7.6.36 6.95.37-3.44.36-.44.36.21.36 3.21.36.36.37-3.89.36 3.69.36-3.53.36 3.29.37-3.65.36-.45.36 3.82.36-3.94.36 3.98.37-3.77.36 3.4.36-3.46.36 3.38.36-3.53.37-.62.36 3.93.36-3.79.36 3.78.36-3.7.37 3.35.36-3.37.36 3.11.36-3.49.37-.5.36 3.48.36-3.58.36 3.68.36-3.43.37 3.38.36-3.33.36 3 .36-3.34.36-.5.37 3.68.36-7.4.36 6.85.36-3.71.36 3.83.37-3.74.36 3.18.36.29.36-3.77.37 3.61.36-7.48.36 6.84.36-3.44.36 3.39.37.4.36-4.18.36 3.72.36-3.61.36 3.37.37-7.32.36 6.85.36-3.49.36 3.18.36.29.37-3.8.36 3.68.36-3.86.36 3.71.36-7.25.37 6.46.36-3.45.36-.36.36 3.38.37-3.66.36 3.52.36-3.53.36 3.49.36-3.54.37 3.17.36-3.5.36-.5.36 4 .36-3.97.37 3.67.36-3.71.36 3.46.36-3.16.36 2.82.37-3.59.36-.45.36 3.52.36-3.93.37 3.96.36-3.77.36 3.35.36-3.29.36 3.05.37-3.56.36-.39.36 3.29.36-3.48.36 3.48.37-3.68.36 3.27.36.29.36-3.79.36-.2.37-.51.36 3.56.36-7.38.36 6.8.36-3.5.37 3.54.36-.17.36-3.63.36 3.55.37-3.91.36 3.65.36-7.09.36 6.58.36-3.52.37 3.08.36-.03.36-3.22.36 3.49.36-3.61.37 2.84.36-7.01.36 6.27.36-3.12.36 3.27.37.11.36-3.87.36 3.75.36-3.57.37 3.1.36-6.97.36 6.16.36-3.04.36-.46.37 3.08.36-3.28.36 3.48.36-3.77.36 3.5.37.16.36-3.93.36-.2.36-.47.36 3.52.37-3.4.36 3.28.36-3.55.36 3.08.36.21.37-4.78.36 1.03.36-.7.36 3.52.37-3.45.36 3.45.36-3.64.36 3.28.36.31.37-4.17.36.31.36-.71.36 3.28.36-3.41.37 3.5.36-4.09.36 3.62.36.14.36-3.49.37-.3.36-.71.36 4.17.36-7.18.37 6.54.36-3.75.36 3.59.36.14.36-3.61.37 3.48.36-3.41.36 3.09.36-3.49.36-.52.37.16.36 3.5.36.19.36-3.91.36 3.94.37-3.93.36 3.39.36-3.74.36-.4.37.13.36 3.4.36.12.36-3.51.36 3.54.37-3.76.36 3.41.36-3.67.36-.55.36.27.37 3.2.36.11.36-3.94.36 3.91.36-3.74.37 3.35.36-3.83.36-.27.36.11.36-.64.37 3.63.36-3.8.36 3.95.36-4.24.37 3.55.36.39.36-3.96.36.27.36-.81.37 3.89.36-3.7.36 3.29.36-3.19.36 3.23.37.1.36-3.74.36-.1.36-.33.36 3.34.37-3.68.36 3.58.36-3.53.36 3.31.37-.01.36-3.69.36-.05.36-.76.36 3.69.37-3.88.36.1.36-.25.36 3.48.36.15.37-4.05.36 3.51.36-3.91.36 3.96.36-3.61.37-.5.36.35.36 3.32.36-.08.36-3.86.37 3.63.36-3.89.36 3.7.36-3.68.37-.66.36.48.36 3.03.36.18.36-3.74.37 3.3.36-3.49.36 3.26.36-3.29.36-.34.37-.2.36 3.09.36.39.36-3.34.36 2.69.37-3.13.36 3.43.36-3.75.36-.54.37.24.36-.29.36 3.52.36-3.75.36 3.57.37-3.4.36 3.4.36.21.36-4.02.36 4.02.37-7.52.36 6.58.36-3.53.36 3.91.36-3.43.37 2.94.36.58.36-3.83.36 3.53.36-6.96.37 7.04.36-3.67.36 3.15.36-2.96.37 3.1.36.51.36-3.78.36 3.39.36-7.41.37 7.31.36-3.46.36-.45.36.43.36 3.22.37.24.36-3.82.36 3.53.36-3.38.36 3.53.37-3.46.36-.48.36.3.36 3.34.37.24.36-3.57.36 3.36.36-3.31.36 3.07.37-3.29.36-.34.36.21.36 3.45.36-.05.37-3.39.36 2.39.36-2.6.36 3.29.36-3.34.37-.31.36 3.76.36-3.59.36 3.65.37-3.41.36 3.21.36-3.34.36 3.11.36-3.59.37-.03.36 3.83.36-7.43.36 7.32.36-3.51.37 3.38.36-3.01.36 3.04.36-.16.36-3.3.37 4.03.36-8.11.36 7.08.36-3.47.36 3.82.37-3.51.36 3.55.36-.11.36-3.56.37 3.89.36-8.1.36 7.39.36-3.32.36 3.48.37-3.3.36 3.18.36-.01.36-3.03.36 3.23.37-7.2.36 6.91.36-3.6.36 3.68.36.18.37-4.01.36 3.72.36-3.9.36 3.35.37-7.39.36 7.46.36-3.81.36.05.36 3.7.37-3.9.36 3.6.36-3.81.36 3.93.36-3.5.37 3.45.36-3.68.36-.33.36 3.68.36-3.55.37 3.56.36-3.58.36 3.31.36-3.56.36 3.39.37-3.62.36-.22.36 3.75.36-3.95.37 3.8.36-3.29.36 3.55.36-3.53.36 3.32.37-3.89.36-.14.36 3.7.36-7.18.36 6.87.37-3.58.36 3.57.36.38.36-4 .36 3.7.37-3.53.36 3.56.36-7.41.36 7.05.37-3.78.36 3.72.36-.09.36-3.53.36 3.69.37-3.55.36 3.56.36-7.4.36 6.86.36-3.42.37 3.43.36.37.36-3.95.36 3.72.36-3.62.37 3.34.36-7.56.36 6.81.36-3.09.36 3.72.37-.05.36-3.92.36 3.57.36-3.42.37 3.45.36-7.23.36 6.81.36-3.74.36.08.37 3.81.36-4.14.36 3.75.36-3.36.36 3.17.37.26.36-3.71.36-.09.36-.55.36 3.96.37-4.04.36 3.77.36-3.67.36 3.39.37.44.36-4.01.36.37.36-.63.36 3.87.37-3.96.36 3.92.36-3.85.36 3.55.36.11.37-3.86.36.11.36-.41.36 3.79.36-7.34.37 6.26.36-2.98.36 3.31.36.4.37-3.93.36 3.67.36-3.32.36 3.18.36-7.44.37 6.8.36-3.19.36 3.47.36.07.36-3.67.37 3.65.36-3.6.36 3.66.36-4.13.36-.15.37-.17.36 3.63.36.43.36-4.15.36 3.55.37-3.68.36 3.72.36-3.71.36-.62.37.48.36 3.15.36.38.36-3.81.36 3.64.37-3.63.36 3.51.36-3.68"/><use xlink:href="#d" color="#3B75EA" transform="matrix(3.75 0 0 3.75 125.4 132.12)"/><use xlink:href="#d" color="#3B75EA" transform="matrix(3.75 0 0 3.75 220.55 7.51)"/></g><text stroke-linecap="round" stroke-linejoin="round" color="#000" font-family="KaTeX_Main" font-size="8" transform="translate(241.1 25.11)"><tspan>TreapTopDown</tspan></text><g fill="none" stroke="currentColor" stroke-linecap="round" stroke-linejoin="round" color="#000"><path stroke="#F44336" stroke-dasharray="4.5,2.0,0.5,2.0,0.5,2.0" d="M205.6 22.51h29.9M28 180.62l.36 3.19.36-3.9.37-.68.36.4.36-1.24.36 3.83.36-4.27.37 3.79.36-3.91.36 3.13.36.29.37-4.44.36.17.36-1 .36 3.65.36-3.96.37 3.67.36-3.66.36 2.97.36-.03.36-3.97.37 3.6.36-7.86.36 6.96.36-3.74.36 3.35.37-3.65.36 3.09h.36l.36-3.99.36 3.59.37-7.73.36 6.85.36-3.78.36 3.49.37-3.45.36 2.87.36-.07.36-3.8.36 3.07.37-7.24.36 6.81.36-3.83.36-.45.36.46.37 2.65.36.3.36-3.85.36 3.45.36-3.56.37 2.84.36-4.02.36.34.36.05.37 2.86.36.04.36-3.58.36 3.52.36-3.77.37 2.99.36-3.51.36-.36.36 3.14.36-3.56.37 3.11.36-3.72.36 3.64.36-3.58.36 2.96.37-3.35.36-.28.36 3.42.36-3.68.37 3.52.36-3.72.36 3.15.36-3.27.36 2.51.37-3.56.36.02.36 3.15.36-6.69.36 6.34.37-3.45.36 3.23.36-3.32.36 2.92.36-.1.37-3.53.36 3.29.36-7.04.36 6.28.36-3.6.37 3.51.36-3.19.36 2.49.36.38.37-3.51.36 3.03.36-6.68.36 6.18.36-2.98.37 3.06.36-.33.36-3.54.36 3.35.36-3.58.37 3.4.36-6.81.36 6.06.36-3.23.36.04.37 2.86.36-3.69.36 3.65.36-3.61.37 3.41.36-3.68.36 3.13.36-3.43.36-.15.37 3.38.36-3.97.36 3.6.36-3.28.36 2.95.37-2.95.36 2.64.36-3.1.36-.27.36 3.06.37-3.55.36 3.31.36-3.48.36 3.49.36-3.44.37 3.18.36-3.42.36-.14.36 3.04.37-3.08.36 2.62.36-2.99.36 3.09.36-.02.37-3.19.36-.39.36.16.36 3 .36-6.46.37 6.48.36-3.6.36 3.28.36.01.36-3.53.37 3.03.36-3.2.36 3.05.36-6.09.37 5.81.36-3.08.36 3.21.36-.06.36-3.77.37 3.35.36-3.36.36 3.25.36-6.34.36 5.84.37-3.02.36 3.11.36-.14.36-3.47.36 3.09.37-3.06.36 2.98.36-6.43.36 6.26.36-3.28.37.04.36 3.18.36-3.44.36 3.01.37-3.44.36 3.28.36-3.04.36 2.68.36-2.86.37-.28.36 3.02.36-3.22.36 2.98.36-3.5.37 3.38.36-.1.36-3.39.36.06.36-.21.37 3.44.36-3.7.36 3.15.36-3.3.37 3.18.36-.16.36-3.02.36-.08.36-.17.37 3.01.36-3.25.36 3.31.36-3.44.36 2.97.37.31.36-3.58.36.34.36-.34.36 2.93.37-6.53.36 6.44.36-3.3.36 3.13.37.22.36-3.34.36 3.08.36-3.25.36 3.25.37-6.85.36 6.44.36-3.36.36 3.29.36-.06.37-3.27.36 3.08.36-3.31.36 3.27.36-3.11.37-.35.36-.12.36 3.07.36-.11.36-3.13.37 3.08.36-3.3.36 3.26.36-3.48.37-.1.36.07.36 3.21.36-.12.36-3.36.37 3.22.36-3.41.36 3.16.36-3.24.36-.08.37.09.36-1.15.36 4.24.36-3.5.36 3.22.37-3.2.36 3.03.36-.01.36-3.38.37-.19.36-.08.36 3.33.36-3.35.36 3.3.37-3.57.36 3.43.36.21.36-3.81.36.01.37-.28.36 3.58.36-3.75.36 3.55.36-3.09.37 2.72.36.03.36-3.26.36-.07.36-.17.37 3.37.36-3.32.36-.19.36-.09.37 3.21.36-.04.36-3.31.36 3.26.36-3.46.37 3.08.36-3.07.36-.39.36-.21.36 3.51.37.3.36-3.49.36 3.21.36-3.54.36 3.46.37-3.56.36-.27.36.24.36 3.24.37.08.36-3.89.36 3.75.36-3.78.36 3.55.37-3.39.36-.29.36.15.36 3.16.36.25.37-3.52.36 3.31.36-3.63.36 3.44.36-3.71.37-.13.36.1.36-.13.36 3.35.36-3.44.37 3.15.36-2.99.36 2.98.36.18.37-3.43.36-.11.36-.23.36 3.33.36-3.39.37 3.27.36-3.59.36 3.55.36.19.36-3.42.37 2.87.36-6.67.36 6.55.36-3.12.36 3.25.37-3.49.36 3.09.36.12.36-3.45.37 3.38.36-7.09.36 6.84.36-3.63.36-.3.37.25.36 3.29.36.06.36-4 .36 3.77.37-3.5.36 3.54.36-3.59.36-.64.36.33.37 3.08.36.45.36-3.51.36 3.17.37-3.2.36 3.12.36-3.44.36-.45.36.14.37 3.02.36.51.36-3.92.36 3.61.36-3.68.37 3.48.36-3.53.36-.04.36 3.3.36-3.64.37 3.56.36-3.68.36 3.65.36-3.79.36 3.45.37-3.5.36-.55.36 4.12.36-7.35.37 6.62.36-3.34.36 3.52.36-3.4.36 3.23.37.19.36-3.71.36 3.54.36-7.73.36 7.4.37-3.8.36 3.87.36-3.22.36 2.77.36.31.37-3.73.36 3.5.36-7.26.36 6.91.37-3.41.36 3.34.36-3.12.36 2.97.36.06.37-3.56.36 3.48.36-7.27.36 7.1.36-3.58.37 3.33.36-3.15.36 2.86.36.28.36-3.56.37 3.55.36-7.41.36 6.8.36-3.46.36-.62.37 3.9.36-3.66.36 3.67.36-3.52.37 3.51.36-3.62.36 3.19.36-3.22.36-1.43.37 4.58.36-3.51.36 3.38.36-3.91.36 3.69.37-3.17.36 2.97.36-3.18.36-.75.36 3.87.37-3.95.36 3.91.36-3.56.36 3.27.37-3.23.36 3.01.36-3.35.36-.39.36 3.52.37-7.56.36 6.78.36-3.26.36 3.67.36-3.62.37 3.32.36.24.36-3.54.36 3.43.36-7.33.37 6.54.36-3.26.36 3.34.36.33.37-3.89.36 3.78.36-3.71.36 3.48.36-7.47.37 6.9.36-3.7.36 3.44.36.33.36-4.24.37 4.28.36-3.79.36 3.64.36-7.19.36 6.19.37-3.2.36 3.54h.36l.36-4.06.36 3.91.37-3.78.36 3.35.36-7.15.36 6.56.37-3.29.36-.91.36 3.69.36-3.54.36 3.58.37-3.53.36 3.5.36-3.05.36 2.82.36-3.24.37-1.09.36 4.01.36-3.82.36 3.78.36-3.76.37 3.63.36.08.36-3.94.36.04.37-.32.36 3.21.36-3.4.36 3.54.36-3.41.37 3.38.36.06.36-3.88.36.01.36-.81.37 3.87.36-7.21.36 6.26.36-2.92.36 3.02.37.07.36-3.45.36 3.45.36-3.44.36 3.49.37-7.28.36 6.24.36-3.35.36 3.36.37.08.36-3.4.36 3.36.36-3.56.36 3.18.37-6.73.36 5.6.36-2.45.36 3.33.36-.32.37-4.12.36 4.01.36-3.97.36 3.89.36-4.28.37-.39.36.47.36 3.38.36.39.37-4.34.36 3.57.36-3.46.36 3.28.36-3.41.37-.9.36.28.36-.37.36 3.36.36-3.84.37 3.38.36-3.09.36 3.02.36.44.36-4.01.37.14.36-.94.36 3.87.36-3.81.36 3.45.37-3.44.36 3.07.36.76.36-4.22.37-.32.36-.37.36 3.39.36-3.52.36 3.64.37-3.96.36 3.64.36.38.36-4.2.36.27.37-.79.36 3.31.36-3.36.36 3.4.36-3.58.37 2.97.36.13.36-3.84.36-.19.37.01.36 3.3.36-3.75.36-.7.36.46.37 2.91.36.92.36-4.06.36 3.43.36-3.36.37 3.36.36-3.64.36-.93.36.35.36 3.14.37.35.36-4.21.36 3.4.36-3.04.37 3.14.36-3.52.36-.85.36.54.36 2.96.37.26.36-3.79.36 3.37.36-3.7.36 3.03.37-3.66.36-.17.36-.14.36.13.36 3.01.37-3.57.36 3.84.36-3.36.36 3.07.36.11.37-4.05.36.4.36-.72.36 3.79.37-4.71.36 4.3.36-3.41.36 3.06.36.1.37-3.81.36-.05.36-.65.36 3.97.36-4.16.37 4.2.36-3.62.36 2.95.36.29.36-3.9.37-.03.36.03.36 3.13.36-3.65.37 3.31.36-2.51.36 3.06.36-.57.36-3.32.37 3.8.36-7.64.36 7.11.36-3.97.36-.21.37.62.36 2.76.36.53.36-3.6.36 3.98.37-3.64.36 3.38.36-3.81.36-.46.36.64.37 3.12.36.09.36-3.39.36 3.89.37-4.11.36 3.83.36-2.92.36-.67.36-.53.37 3.72.36.83.36-3.85.36 3.43.36-3.67.37 3.31.36-3.33.36-.36.36-.17.36-.16.37 3.52.36-3.08.36 3.17.36-4.12.37 4.34.36.65.36-4.14.36 3.9.36-7.49.37 6.69.36-3.84.36 3.7.36-3.19.36 3.12.37.95.36-4.32.36 3.48.36-7.47.36 7.31.37-3.74.36 3.5.36-3.36.36 3.69.36-.1.37-3.44.36 3.37.36-7.91.36 7.36.37-3.53.36 3.74.36-3.14.36 2.83.36.11.37-3.9.36 3.55.36-7.8.36 7.35.36-3.28.37-.51.36.2.36 3.32.36.49.36-3.64.37 3.22.36-3.54.36 2.32.36-2.6.37-.33.36 3.4.36-3.68.36 3.89.36-3.27.37 3.57.36-3.59.36 2.99.36-3.7.36-.4.37 3.89.36-4.02.36 4.06.36-3.88.36 3.39.37-3.03.36 3.63.36-4.48.36-.39.37 4.12.36-3.9.36 3.83.36-3.9.36 3.67.37-3.42.36 3.41.36-3.96.36-.26.36 3.97.37-7.8.36 7.36.36-3.59.36 2.98.36-3.34.37 3.34.36.19.36-3.84.36 3.78.36-7.64.37 6.64.36-3.48.36 3.76.36.08.37-4.24.36 3.85.36-3.82.36 3.91.36-7.51.37 6.98.36-3.51.36 2.94.36 1.04.36-4.45.37 3.8.36-4 .36 4.06.36-8.01.36 7.67.37-3.99.36-.44.36 3.78.36-4.01.37 3.8.36-3.87.36 3.51.36-2.82.36 2.57.37-3.91.36.16.36 3.6.36-4.04.36 3.56.37-3.38.36 3.42.36-3.31.36 2.89.36-3.28.37-.61.36 3.45.36-3.92.36 3.84.36-3.64.37 2.99.36.45.36-3.86.36-.04.37-1.05.36 3.76.36-3.51.36 3.57.36-3.51.37 3.12.36.62.36-4.03.36.05.36-.89.37 3.89.36-7.7.36 7.53.36-3.79.36 3.68.37.34.36-4 .36 3.78.36-3.67.37 3 .36-7.06.36 6.52.36-3.24.36 3.23.37.44.36-4.36.36 4.03.36-3.88.36 3.91.37-8.16.36 7.48.36-3.71.36 3.69.36.12.37-3.91.36 3.59.36-3.86.36 3.58.36-3.39.37-.51h.36l.36-.53.36 3.89.37-3.69.36 3.67.36-4.25.36 4 .36-.09.37-4.05.36.44.36-.63.36 3.96.36-4.36.37 3.71.36-3.53.36 3.18.36.39.36-3.52.37-.27.36-.33.36 3.07.36-3.15.37 3.57.36-4.04.36 3.96.36-.03.36-3.38.37-.35.36-.5.36 3.38.36-4.57.36 4.3.37-3.67.36 3.67.36.13.36-3.64.36.06.37-1.23.36 3.99.36-4.01.36-.29.37.77.36 3.05.36.48.36-3.92.36 3.35.37-3.49.36 3.68.36-4.01.36-.58.36.62.37 3.4.36-.14.36-3.76.36 3.92.36-4.31.37 3.29.36-2.96.36-.98.36.5.36 3.19.37.18.36-4.03.36 3.51.36-3.46.37 3.25.36-3.35.36-.48.36.06.36 3.36.37-.07.36-3.5.36 3.4"/><use xlink:href="#e" color="#F44336" transform="matrix(3.75 0 0 3.75 182.98 135.68)"/><use xlink:href="#e" color="#F44336" transform="matrix(3.75 0 0 3.75 220.55 22.51)"/></g><path fill="none" d="M28 45.01V205M371.99 45.01H28" color="#000"/></svg>