<svg xmlns="http://www.w3.org/2000/svg" xmlns:xlink="http://www.w3.org/1999/xlink" width="800" height="500"><path fill="none" d="M0 0h800v500H0z"/><defs><path id="d" stroke="currentColor" stroke-width=".222" d="M-1-1h2v2h-2z"/><path id="b" stroke="currentColor" stroke-width=".222" d="m0-1.33-1.33 2h2.66z"/><path id="f" stroke="currentColor" stroke-width=".222" d="M0 1.33 1.265.411.782-1.067l-1.564-.009-.483 1.487z"/><use xlink:href="#b" id="c" stroke="currentColor" transform="rotate(180)"/><use xlink:href="#c" id="g" fill="currentColor" stroke="none"/><use xlink:href="#d" id="e" stroke="currentColor" transform="rotate(45)"/><circle id="a" cx="0" cy="0" r="1" stroke="currentColor" stroke-width=".222"/></defs><path fill="none" stroke="#EEE" d="M38.13 410V180.01" class="gridline" color="#000"/><g fill="none" stroke="none" stroke-width="0" color="#000"><path d="M38.13 410v-9m0-220.99v9"/><text fill="#000" font-family="Arial" font-size="16" text-anchor="middle" transform="translate(38.13 442.2)"><tspan> 1</tspan></text></g><path fill="none" stroke="#EEE" d="M114.39 410V180.01" class="gridline" color="#000"/><g fill="none" stroke="none" stroke-width="0" color="#000"><path d="M114.39 410v-9m0-220.99v9"/><text fill="#000" font-family="Arial" font-size="16" text-anchor="middle" transform="translate(114.39 442.2)"><tspan> 2</tspan></text></g><path fill="none" stroke="#EEE" d="M190.65 410V180.01" class="gridline" color="#000"/><g fill="none" stroke="none" stroke-width="0" color="#000"><path d="M190.65 410v-9m0-220.99v9"/><text fill="#000" font-family="Arial" font-size="16" text-anchor="middle" transform="translate(190.65 442.2)"><tspan> 3</tspan></text></g><path fill="none" stroke="#EEE" d="M266.91 410V180.01" class="gridline" color="#000"/><g fill="none" stroke="none" stroke-width="0" color="#000"><path d="M266.91 410v-9m0-220.99v9"/><text fill="#000" font-family="Arial" font-size="16" text-anchor="middle" transform="translate(266.91 442.2)"><tspan> 4</tspan></text></g><path fill="none" stroke="#EEE" d="M343.17 410V180.01" class="gridline" color="#000"/><g fill="none" stroke="none" stroke-width="0" color="#000"><path d="M343.17 410v-9m0-220.99v9"/><text fill="#000" font-family="Arial" font-size="16" text-anchor="middle" transform="translate(343.17 442.2)"><tspan> 5</tspan></text></g><path fill="none" stroke="#EEE" d="M419.44 410V180.01" class="gridline" color="#000"/><g fill="none" stroke="none" stroke-width="0" color="#000"><path d="M419.44 410v-9m0-220.99v9"/><text fill="#000" font-family="Arial" font-size="16" text-anchor="middle" transform="translate(419.44 442.2)"><tspan> 6</tspan></text></g><path fill="none" stroke="#EEE" d="M495.7 410V180.01" class="gridline" color="#000"/><g fill="none" stroke="none" stroke-width="0" color="#000"><path d="M495.7 410v-9m0-220.99v9"/><text fill="#000" font-family="Arial" font-size="16" text-anchor="middle" transform="translate(495.7 442.2)"><tspan> 7</tspan></text></g><path fill="none" stroke="#EEE" d="M571.96 410V180.01" class="gridline" color="#000"/><g fill="none" stroke="none" stroke-width="0" color="#000"><path d="M571.96 410v-9m0-220.99v9"/><text fill="#000" font-family="Arial" font-size="16" text-anchor="middle" transform="translate(571.96 442.2)"><tspan> 8</tspan></text></g><path fill="none" stroke="#EEE" d="M648.22 410V180.01" class="gridline" color="#000"/><g fill="none" stroke="none" stroke-width="0" color="#000"><path d="M648.22 410v-9m0-220.99v9"/><text fill="#000" font-family="Arial" font-size="16" text-anchor="middle" transform="translate(648.22 442.2)"><tspan> 9</tspan></text></g><path fill="none" stroke="#EEE" d="M724.48 410V180.01" class="gridline" color="#000"/><g fill="none" stroke="none" stroke-width="0" color="#000"><path d="M724.48 410v-9m0-220.99v9"/><text fill="#000" font-family="Arial" font-size="16" text-anchor="middle" transform="translate(724.48 442.2)"><tspan> 10</tspan></text></g><path fill="none" stroke="#EEE" d="M0 410h724.48" class="gridline" color="#000"/><g fill="none" stroke="none" stroke-width="0" color="#000"><path d="M724.48 410h-9"/><text fill="#000" font-family="Arial" font-size="16" transform="translate(741.26 415.2)"><tspan>0.93</tspan></text></g><path fill="none" stroke="#EEE" d="M0 377.14h724.48" class="gridline" color="#000"/><g fill="none" stroke="none" stroke-width="0" color="#000"><path d="M724.48 377.14h-9"/><text fill="#000" font-family="Arial" font-size="16" transform="translate(741.26 382.34)"><tspan>0.94</tspan></text></g><path fill="none" stroke="#EEE" d="M0 344.29h724.48" class="gridline" color="#000"/><g fill="none" stroke="none" stroke-width="0" color="#000"><path d="M724.48 344.29h-9"/><text fill="#000" font-family="Arial" font-size="16" transform="translate(741.26 349.49)"><tspan>0.95</tspan></text></g><path fill="none" stroke="#EEE" d="M0 311.43h724.48" class="gridline" color="#000"/><g fill="none" stroke="none" stroke-width="0" color="#000"><path d="M724.48 311.43h-9"/><text fill="#000" font-family="Arial" font-size="16" transform="translate(741.26 316.63)"><tspan>0.96</tspan></text></g><path fill="none" stroke="#EEE" d="M0 278.58h724.48" class="gridline" color="#000"/><g fill="none" stroke="none" stroke-width="0" color="#000"><path d="M724.48 278.58h-9"/><text fill="#000" font-family="Arial" font-size="16" transform="translate(741.26 283.78)"><tspan>0.97</tspan></text></g><path fill="none" stroke="#EEE" d="M0 245.72h724.48" class="gridline" color="#000"/><g fill="none" stroke="none" stroke-width="0" color="#000"><path d="M724.48 245.72h-9"/><text fill="#000" font-family="Arial" font-size="16" transform="translate(741.26 250.92)"><tspan>0.98</tspan></text></g><path fill="none" stroke="#EEE" d="M0 212.87h724.48" class="gridline" color="#000"/><g fill="none" stroke="none" stroke-width="0" color="#000"><path d="M724.48 212.87h-9"/><text fill="#000" font-family="Arial" font-size="16" transform="translate(741.26 218.07)"><tspan>0.99</tspan></text></g><path fill="none" stroke="#EEE" d="M0 180.01h724.48" class="gridline" color="#000"/><g fill="none" stroke="none" stroke-width="0" color="#000"><path d="M724.48 180.01h-9"/><text fill="#000" font-family="Arial" font-size="16" transform="translate(741.26 185.21)"><tspan>1.00</tspan></text></g><path fill="none" stroke="none" stroke-width="0" d="M0 180.01V410m724.48-229.99H0" color="#000"/><text fill="#000" stroke="none" stroke-width="0" color="#000" font-family="Arial" font-size="16" text-anchor="middle" transform="translate(362.24 478.2)"><tspan>Size × 10</tspan><tspan dy="-8" font-size="12.8">4</tspan></text><text fill="#000" stroke="none" stroke-width="2" color="#000" font-family="Arial" font-size="16" transform="translate(223.34 93.21)"><tspan>Median</tspan></text><g fill="none" stroke="currentColor" stroke-width="2" color="#000"><path stroke="#000" d="M158.34 88.01h53.8M0 307.99l.11.86.76 5.76.77 5.63.76 5.5.76 5.38.77 5.27.76 5.14.76 5.01.77 4.79.76 4.27.76 2.98.77.16.76-4.93.76-12.28.77-20.41.76-26.64.76-28.5.77-25.28.76-18.52.76-10.84.77-4.41.76-.11.76 2.26.77 3.32.76 3.73.76 3.82.77 3.8.76 3.76.76 3.71.77 3.65.76 3.6.76 3.54.77 3.5.76 3.44.76 3.4.77 3.34.76 3.31.76 3.25.77 3.22.76 3.17.76 3.13.77 3.09.76 3.05.76 3.01.77 2.97.76 2.94.76 2.9.77 2.86.76 2.83.76 2.8.77 2.76.76 2.73.76 2.7.77 2.67.76 2.64.76 2.61.77 2.58.76 2.55.76 2.52.77 2.5.76 2.47.76 2.44.77 2.42.76 2.4.76 2.36.76 2.35.77 2.32.76 2.29.76 2.27.77 2.23.76 2.17.76 2.03.77 1.74.76 1.16.76.08.77-1.71.76-4.4.76-7.92.77-12 .76-15.98.76-19.11.77-20.64.76-20.24.76-18.04.77-14.56.76-10.59.76-6.8.77-3.66.76-1.37.76.14.77 1.04.76 1.53.76 1.75.77 1.85.76 1.89.76 1.88.77 1.88.76 1.87.76 1.85.77 1.84.76 1.82.76 1.81.77 1.8.76 1.78.76 1.77.77 1.75.76 1.74.76 1.73.77 1.72.76 1.7.76 1.69.77 1.68.76 1.66.76 1.66.77 1.64.76 1.63.76 1.62.77 1.61.76 1.59.76 1.59.77 1.58.76 1.56.76 1.55.77 1.55.76 1.53.76 1.52.77 1.51.76 1.51.76 1.49.77 1.48.76 1.47.76 1.47.77 1.45.76 1.45.76 1.43.77 1.43.76 1.42.76 1.4.77 1.4.76 1.4.76 1.38.77 1.37.76 1.37.76 1.36.77 1.35.76 1.34.76 1.33.77 1.33.76 1.32.76 1.31.77 1.3.76 1.29.76 1.29.77 1.28.76 1.27.76 1.27.77 1.26.76 1.25.76 1.24.76 1.24.77 1.23.76 1.23.76 1.21.77 1.21.76 1.21.76 1.19.77 1.19.76 1.19.76 1.18.77 1.17.76 1.16.76 1.16.77 1.16.76 1.14.76 1.15.77 1.13.76 1.13.76 1.12.77 1.12.76 1.12.76 1.1.77 1.1.76 1.1.76 1.09.77 1.08.76 1.08.76 1.08.77 1.07.76 1.06.76 1.06.77 1.05.76 1.05.76 1.04.77 1.04.76 1.03.76 1.02.77 1.01.76.99.76.94.77.85.76.69.76.42.77-.03.76-.73.76-1.76.77-3.14.76-4.92.76-7 .77-9.28.76-11.51.76-13.47.77-14.86.76-15.53.76-15.35.77-14.36.76-12.72.76-10.65.77-8.39.76-6.22.76-4.27.77-2.67.76-1.43.76-.55.77.06.76.44.76.67.77.81.76.87.76.91.77.92.76.92.76.93.77.92.76.92.76.92.77.91.76.91.76.91.77.9.76.9.76.9.77.89.76.89.76.88.77.88.76.88.76.87.77.87.76.87.76.86.77.86.76.86.76.86.76.85.77.84.76.85.76.84.77.84.76.83.76.83.77.83.76.83.76.82.77.82.76.81.76.82.77.81.76.8.76.81.77.8.76.8.76.79.77.8.76.79.76.78.77.79.76.78.76.78.77.77.76.78.76.77.77.77.76.76.76.76.77.76.76.76.76.75.77.76.76.75.76.74.77.75.76.74.76.74.77.73.76.74.76.73.77.73.76.73.76.72.77.72.76.72.76.72.77.72.76.71.76.71.77.71.76.7.76.71.77.7.76.69.76.7.77.7.76.69.76.69.77.69.76.68.76.68.77.69.76.67.76.68.77.68.76.67.76.67.77.67.76.67.76.66.77.66.76.66.76.66.77.66.76.65.76.65.77.65.76.65.76.65.77.64.76.65.76.64.77.64.76.63.76.64.77.63.76.63.76.63.76.63.77.62.76.63.76.62.77.62.76.62.76.62.77.61.76.61.76.61.77.61.76.61.76.61.77.6.76.61.76.6.77.6.76.59.76.6.77.59.76.6.76.59.77.59.76.58.76.59.77.58.76.59.76.58.77.58.76.58.76.57.77.58.76.57.76.57.77.57.76.57.76.57.77.56.76.57.76.56.77.56.76.56.76.56.77.56.76.55.76.56.77.55.76.55.76.55.77.55.76.54.76.55.77.54.76.54.76.55.77.53.76.54.76.54.77.54.76.53.76.53.77.53.76.53.76.53.77.53.76.53.76.52.77.52.76.53.76.52.77.52.76.51.76.52.77.52.76.51.76.51.77.52.76.51.76.51.77.5.76.51.76.51.77.5.76.5.76.51.77.5.76.5.76.49.77.5.76.5.76.49.77.5.76.49.76.49.76.49.77.49.76.49.76.48.77.49.76.48.76.49.77.48.76.48.76.48.77.48.76.48.76.47.77.48.76.47.76.47.77.47.76.46.76.45.77.43.76.4.76.33.77.22.76.03.76-.24.77-.68.76-1.27.76-2.1.77-3.16.76-4.46.76-5.97.77-7.61.76-9.27.76-10.81.77-12.09.76-12.96.76-13.34.77-13.15.76-12.45.76-11.31.77-9.84.76-8.2.76-6.54.77-4.97.76-3.59.76-2.44.77-1.53.76-.85.76-.38.77-.05.76.17.76.29.77.37.76.41.76.44.77.44.76.45.76.46.77.45.76.45.76.46.77.45.76.45.76.45.77.45.76.44.76.45.77.45.76.44.76.45.77.44.76.44.76.44.77.44.76.44.76.44.77.44.76.44.76.43.77.44.76.43.76.44.77.43.76.43.76.43.77.43.76.43.76.43.77.42.76.43.76.43.77.42.76.43.76.42.76.42.77.42.76.42.76.42.77.42.76.42.76.42.77.41.76.42.76.41.77.42.76.41.76.41.77.42.76.41.76.41.77.41.76.4.76.41.77.41.76.41.76.4.77.41.76.4.76.4.77.4.76.41.76.4.77.4.76.4.76.39.77.4.76.4.76.4.77.39.76.4.76.39.77.39.76.4.76.39.77.39.76.39.76.39.77.39.76.39.76.38.77.39.76.39.76.38.77.39.76.38.76.38.77.39.76.38.76.38.77.38.76.38.76.38.77.38.76.38.76.37.77.38.76.38.76.37.77.38.76.37.76.37.77.37.76.38.76.37.77.37.76.37.76.37.77.37.76.36.76.37.77.37.76.36.76.37.77.36.76.37.76.36.77.36.76.37.76.36.77.36.76.36.76.36.77.36.76.36.76.35.76.36.77.36.76.35.76.36.77.35.76.36.76.35.77.36.76.35.76.35.77.35.76.35.76.35.77.35.76.35.76.35.77.35.76.34.76.35.77.35.76.34.76.35.77.34.76.34.76.35.77.34.76.34.76.34.77.34.76.34.76.34.77.34.76.34.76.34.77.34.76.34.76.33.77.34.76.33.76.34.77.33.76.34.76.33.77.33.76.33.76.34.77.33.76.33.76.33.77.33.76.33.76.32.77.33.76.33.76.33.77.32.76.33.76.32.77.33.76.32.76.33.77.32.76.32.76.33.77.32.76.32.76.32.77.32.76.32.76.32.77.32.76.32.76.31.77.32.76.32.76.32.77.31.76.32.76.31.77.32.76.31.76.31.77.32.76.31.76.31.77.31.76.31.76.31.77.32.76.3.76.31.77.31.76.31.76.31.76.31.77.3.76.31.76.31.77.3.76.31.76.3.77.31.76.3.76.3.77.31.76.3.76.3.77.3.76.3.76.3.77.3.76.3.76.3.77.3.76.3.76.3.77.3.76.29.76.3.77.3.76.29.76.3.77.29.76.3.76.29.77.3.76.29.76.29.77.29.76.3.76.29.77.29.76.29.76.29.77.29.76.29.76.29.77.29.76.29.76.28.77.29.76.29.76.29.77.28.76.29.76.28.77.29.76.28.76.29.77.28.76.28.76.29.77.28.76.28.76.28.77.29.76.28.76.28.77.28.76.28.76.28.77.28.76.28.76.28.77.27.76.28.76.28.77.28.76.27.76.28.77.27.76.28.76.27.77.28.76.27.76.28.77.27.76.27.76.28.77.27.76.27.76.27.77.27.76.28.76.27.77.27.76.27.76.27.76.27.77.26.76.27.76.27.77.27.76.27.76.26.77.27.76.27.76.26.77.27.76.26.76.27.77.26.76.27.76.26.77.27.76.26.76.26.77.26.76.27.76.26.77.26.76.26.76.26.77.26.76.26.76.26.77.26.76.26.76.26.77.26.76.26.76.25.77.26.76.26.76.26.77.25.76.26.76.25.77.26.76.26.76.25.77.25.76.26.76.25.77.26.76.25.76.25.77.26.76.25.76.25.77.25.76.25.76.25.77.26.76.25.76.25.77.25.76.24.76.25.77.25.76.25.76.25.77.25.76.25.76.24.77.25.76.25.76.24.77.25.76.25.76.24.77.25.76.24.76.25.77.24.76.24.76.25.77.24.76.24.76.25.77.24.76.24.76.24.77.25.76.24.76.24.77.24.76.24.76.24.77.24.76.24.76.24.76.24.77.24.76.24.76.23.77.24.76.24.76.24.77.23.76.24.76.24.77.23.76.24.76.23.77.24.76.23.76.24.77.23.76.24.76.23.77.24.76.23.76.23.77.24.76.23.76.23.77.23.76.23.76.24.77.23.76.23.76.23.77.23.76.23.76.23.77.23.76.23.76.23.77.23.76.23.76.22.77.23.76.23.76.23.77.22.76.23"/><use xlink:href="#g" transform="matrix(9 0 0 9 686.32 321.89)"/><use xlink:href="#g" transform="matrix(9 0 0 9 185.24 88.01)"/></g><text fill="#000" stroke="none" stroke-width="2" color="#000" font-family="Arial" font-size="16" transform="translate(366.74 93.21)"><tspan>Height</tspan></text><g fill="none" stroke="currentColor" stroke-width="2" color="#000"><path stroke="#9F650D" stroke-dasharray="8,4,2,4" d="M301.74 88.01h53.8M0 307.99l.11.86.76 5.76.77 5.63.76 5.5.76 5.38.77 5.27.76 5.14.76 5.01.77 4.79.76 4.27.76 2.98.77.16.76-4.93.76-12.28.77-20.41.76-26.64.76-28.5.77-25.28.76-18.52.76-10.84.77-4.41.76-.11.76 2.26.77 3.32.76 3.73.76 3.82.77 3.8.76 3.76.76 3.71.77 3.65.76 3.6.76 3.54.77 3.5.76 3.44.76 3.4.77 3.34.76 3.31.76 3.25.77 3.22.76 3.17.76 3.13.77 3.09.76 3.05.76 3.01.77 2.97.76 2.94.76 2.9.77 2.86.76 2.83.76 2.8.77 2.76.76 2.73.76 2.7.77 2.67.76 2.64.76 2.61.77 2.58.76 2.55.76 2.52.77 2.5.76 2.47.76 2.44.77 2.42.76 2.4.76 2.36.76 2.35.77 2.32.76 2.29.76 2.27.77 2.23.76 2.17.76 2.03.77 1.74.76 1.16.76.08.77-1.71.76-4.4.76-7.92.77-12 .76-15.98.76-19.11.77-20.64.76-20.24.76-18.04.77-14.56.76-10.59.76-6.8.77-3.66.76-1.37.76.14.77 1.04.76 1.53.76 1.75.77 1.85.76 1.89.76 1.88.77 1.88.76 1.87.76 1.85.77 1.84.76 1.82.76 1.81.77 1.8.76 1.78.76 1.77.77 1.75.76 1.74.76 1.73.77 1.72.76 1.7.76 1.69.77 1.68.76 1.66.76 1.66.77 1.64.76 1.63.76 1.62.77 1.61.76 1.59.76 1.59.77 1.58.76 1.56.76 1.55.77 1.55.76 1.53.76 1.52.77 1.51.76 1.51.76 1.49.77 1.48.76 1.47.76 1.47.77 1.45.76 1.45.76 1.43.77 1.43.76 1.42.76 1.4.77 1.4.76 1.4.76 1.38.77 1.37.76 1.37.76 1.36.77 1.35.76 1.34.76 1.33.77 1.33.76 1.32.76 1.31.77 1.3.76 1.29.76 1.29.77 1.28.76 1.27.76 1.27.77 1.26.76 1.25.76 1.24.76 1.24.77 1.23.76 1.23.76 1.21.77 1.21.76 1.21.76 1.19.77 1.19.76 1.19.76 1.18.77 1.17.76 1.16.76 1.16.77 1.16.76 1.14.76 1.15.77 1.13.76 1.13.76 1.12.77 1.12.76 1.12.76 1.1.77 1.1.76 1.1.76 1.09.77 1.08.76 1.08.76 1.08.77 1.07.76 1.06.76 1.06.77 1.05.76 1.05.76 1.04.77 1.04.76 1.03.76 1.02.77 1.01.76.99.76.94.77.85.76.69.76.42.77-.03.76-.73.76-1.76.77-3.14.76-4.92.76-7 .77-9.28.76-11.51.76-13.47.77-14.86.76-15.53.76-15.35.77-14.36.76-12.72.76-10.65.77-8.39.76-6.22.76-4.27.77-2.67.76-1.43.76-.55.77.06.76.44.76.67.77.81.76.87.76.91.77.92.76.92.76.93.77.92.76.92.76.92.77.91.76.91.76.91.77.9.76.9.76.9.77.89.76.89.76.88.77.88.76.88.76.87.77.87.76.87.76.86.77.86.76.86.76.86.76.85.77.84.76.85.76.84.77.84.76.83.76.83.77.83.76.83.76.82.77.82.76.81.76.82.77.81.76.8.76.81.77.8.76.8.76.79.77.8.76.79.76.78.77.79.76.78.76.78.77.77.76.78.76.77.77.77.76.76.76.76.77.76.76.76.76.75.77.76.76.75.76.74.77.75.76.74.76.74.77.73.76.74.76.73.77.73.76.73.76.72.77.72.76.72.76.72.77.72.76.71.76.71.77.71.76.7.76.71.77.7.76.69.76.7.77.7.76.69.76.69.77.69.76.68.76.68.77.69.76.67.76.68.77.68.76.67.76.67.77.67.76.67.76.66.77.66.76.66.76.66.77.66.76.65.76.65.77.65.76.65.76.65.77.64.76.65.76.64.77.64.76.63.76.64.77.63.76.63.76.63.76.63.77.62.76.63.76.62.77.62.76.62.76.62.77.61.76.61.76.61.77.61.76.61.76.61.77.6.76.61.76.6.77.6.76.59.76.6.77.59.76.6.76.59.77.59.76.58.76.59.77.58.76.59.76.58.77.58.76.58.76.57.77.58.76.57.76.57.77.57.76.57.76.57.77.56.76.57.76.56.77.56.76.56.76.56.77.56.76.55.76.56.77.55.76.55.76.55.77.55.76.54.76.55.77.54.76.54.76.55.77.53.76.54.76.54.77.54.76.53.76.53.77.53.76.53.76.53.77.53.76.53.76.52.77.52.76.53.76.52.77.52.76.51.76.52.77.52.76.51.76.51.77.52.76.51.76.51.77.5.76.51.76.51.77.5.76.5.76.51.77.5.76.5.76.49.77.5.76.5.76.49.77.5.76.49.76.49.76.49.77.49.76.49.76.48.77.49.76.48.76.49.77.48.76.48.76.48.77.48.76.48.76.47.77.48.76.47.76.47.77.47.76.46.76.45.77.43.76.4.76.33.77.22.76.03.76-.24.77-.68.76-1.27.76-2.1.77-3.16.76-4.46.76-5.97.77-7.61.76-9.27.76-10.81.77-12.09.76-12.96.76-13.34.77-13.15.76-12.45.76-11.31.77-9.84.76-8.2.76-6.54.77-4.97.76-3.59.76-2.44.77-1.53.76-.85.76-.38.77-.05.76.17.76.29.77.37.76.41.76.44.77.44.76.45.76.46.77.45.76.45.76.46.77.45.76.45.76.45.77.45.76.44.76.45.77.45.76.44.76.45.77.44.76.44.76.44.77.44.76.44.76.44.77.44.76.44.76.43.77.44.76.43.76.44.77.43.76.43.76.43.77.43.76.43.76.43.77.42.76.43.76.43.77.42.76.43.76.42.76.42.77.42.76.42.76.42.77.42.76.42.76.42.77.41.76.42.76.41.77.42.76.41.76.41.77.42.76.41.76.41.77.41.76.4.76.41.77.41.76.41.76.4.77.41.76.4.76.4.77.4.76.41.76.4.77.4.76.4.76.39.77.4.76.4.76.4.77.39.76.4.76.39.77.39.76.4.76.39.77.39.76.39.76.39.77.39.76.39.76.38.77.39.76.39.76.38.77.39.76.38.76.38.77.39.76.38.76.38.77.38.76.38.76.38.77.38.76.38.76.37.77.38.76.38.76.37.77.38.76.37.76.37.77.37.76.38.76.37.77.37.76.37.76.37.77.37.76.36.76.37.77.37.76.36.76.37.77.36.76.37.76.36.77.36.76.37.76.36.77.36.76.36.76.36.77.36.76.36.76.35.76.36.77.36.76.35.76.36.77.35.76.36.76.35.77.36.76.35.76.35.77.35.76.35.76.35.77.35.76.35.76.35.77.35.76.34.76.35.77.35.76.34.76.35.77.34.76.34.76.35.77.34.76.34.76.34.77.34.76.34.76.34.77.34.76.34.76.34.77.34.76.34.76.33.77.34.76.33.76.34.77.33.76.34.76.33.77.33.76.33.76.34.77.33.76.33.76.33.77.33.76.33.76.32.77.33.76.33.76.33.77.32.76.33.76.32.77.33.76.32.76.33.77.32.76.32.76.33.77.32.76.32.76.32.77.32.76.32.76.32.77.32.76.32.76.31.77.32.76.32.76.32.77.31.76.32.76.31.77.32.76.31.76.31.77.32.76.31.76.31.77.31.76.31.76.31.77.32.76.3.76.31.77.31.76.31.76.31.76.31.77.3.76.31.76.31.77.3.76.31.76.3.77.31.76.3.76.3.77.31.76.3.76.3.77.3.76.3.76.3.77.3.76.3.76.3.77.3.76.3.76.3.77.3.76.29.76.3.77.3.76.29.76.3.77.29.76.3.76.29.77.3.76.29.76.29.77.29.76.3.76.29.77.29.76.29.76.29.77.29.76.29.76.29.77.29.76.29.76.28.77.29.76.29.76.29.77.28.76.29.76.28.77.29.76.28.76.29.77.28.76.28.76.29.77.28.76.28.76.28.77.29.76.28.76.28.77.28.76.28.76.28.77.28.76.28.76.28.77.27.76.28.76.28.77.28.76.27.76.28.77.27.76.28.76.27.77.28.76.27.76.28.77.27.76.27.76.28.77.27.76.27.76.27.77.27.76.28.76.27.77.27.76.27.76.27.76.27.77.26.76.27.76.27.77.27.76.27.76.26.77.27.76.27.76.26.77.27.76.26.76.27.77.26.76.27.76.26.77.27.76.26.76.26.77.26.76.27.76.26.77.26.76.26.76.26.77.26.76.26.76.26.77.26.76.26.76.26.77.26.76.26.76.25.77.26.76.26.76.26.77.25.76.26.76.25.77.26.76.26.76.25.77.25.76.26.76.25.77.26.76.25.76.25.77.26.76.25.76.25.77.25.76.25.76.25.77.26.76.25.76.25.77.25.76.24.76.25.77.25.76.25.76.25.77.25.76.25.76.24.77.25.76.25.76.24.77.25.76.25.76.24.77.25.76.24.76.25.77.24.76.24.76.25.77.24.76.24.76.25.77.24.76.24.76.24.77.25.76.24.76.24.77.24.76.24.76.24.77.24.76.24.76.24.76.24.77.24.76.24.76.23.77.24.76.24.76.24.77.23.76.24.76.24.77.23.76.24.76.23.77.24.76.23.76.24.77.23.76.24.76.23.77.24.76.23.76.23.77.24.76.23.76.23.77.23.76.23.76.24.77.23.76.23.76.23.77.23.76.23.76.23.77.23.76.23.76.23.77.23.76.23.76.22.77.23.76.23.76.23.77.22.76.23"/><use xlink:href="#c" color="#9F650D" transform="matrix(9 0 0 9 83.31 233.33)"/><use xlink:href="#c" color="#9F650D" transform="matrix(9 0 0 9 328.64 88.01)"/></g><text fill="#000" stroke="none" stroke-width="2" color="#000" font-family="Arial" font-size="16" transform="translate(510.14 93.21)"><tspan>DSW</tspan></text><g fill="none" stroke="currentColor" stroke-width="2" color="#000"><path stroke="violet" d="M445.14 88.01h53.8M0 307.99l.11.86.76 5.76.77 5.63.76 5.5.76 5.38.77 5.27.76 5.14.76 5.01.77 4.79.76 4.27.76 2.98.77.16.76-4.93.76-12.28.77-20.41.76-26.64.76-28.5.77-25.28.76-18.52.76-10.84.77-4.41.76-.11.76 2.26.77 3.32.76 3.73.76 3.82.77 3.8.76 3.76.76 3.71.77 3.65.76 3.6.76 3.54.77 3.5.76 3.44.76 3.4.77 3.34.76 3.31.76 3.25.77 3.22.76 3.17.76 3.13.77 3.09.76 3.05.76 3.01.77 2.97.76 2.94.76 2.9.77 2.86.76 2.83.76 2.8.77 2.76.76 2.73.76 2.7.77 2.67.76 2.64.76 2.61.77 2.58.76 2.55.76 2.52.77 2.5.76 2.47.76 2.44.77 2.42.76 2.4.76 2.36.76 2.35.77 2.32.76 2.29.76 2.27.77 2.23.76 2.17.76 2.03.77 1.74.76 1.16.76.08.77-1.71.76-4.4.76-7.92.77-12 .76-15.98.76-19.11.77-20.64.76-20.24.76-18.04.77-14.56.76-10.59.76-6.8.77-3.66.76-1.37.76.14.77 1.04.76 1.53.76 1.75.77 1.85.76 1.89.76 1.88.77 1.88.76 1.87.76 1.85.77 1.84.76 1.82.76 1.81.77 1.8.76 1.78.76 1.77.77 1.75.76 1.74.76 1.73.77 1.72.76 1.7.76 1.69.77 1.68.76 1.66.76 1.66.77 1.64.76 1.63.76 1.62.77 1.61.76 1.59.76 1.59.77 1.58.76 1.56.76 1.55.77 1.55.76 1.53.76 1.52.77 1.51.76 1.51.76 1.49.77 1.48.76 1.47.76 1.47.77 1.45.76 1.45.76 1.43.77 1.43.76 1.42.76 1.4.77 1.4.76 1.4.76 1.38.77 1.37.76 1.37.76 1.36.77 1.35.76 1.34.76 1.33.77 1.33.76 1.32.76 1.31.77 1.3.76 1.29.76 1.29.77 1.28.76 1.27.76 1.27.77 1.26.76 1.25.76 1.24.76 1.24.77 1.23.76 1.23.76 1.21.77 1.21.76 1.21.76 1.19.77 1.19.76 1.19.76 1.18.77 1.17.76 1.16.76 1.16.77 1.16.76 1.14.76 1.15.77 1.13.76 1.13.76 1.12.77 1.12.76 1.12.76 1.1.77 1.1.76 1.1.76 1.09.77 1.08.76 1.08.76 1.08.77 1.07.76 1.06.76 1.06.77 1.05.76 1.05.76 1.04.77 1.04.76 1.03.76 1.02.77 1.01.76.99.76.94.77.85.76.69.76.42.77-.03.76-.73.76-1.76.77-3.14.76-4.92.76-7 .77-9.28.76-11.51.76-13.47.77-14.86.76-15.53.76-15.35.77-14.36.76-12.72.76-10.65.77-8.39.76-6.22.76-4.27.77-2.67.76-1.43.76-.55.77.06.76.44.76.67.77.81.76.87.76.91.77.92.76.92.76.93.77.92.76.92.76.92.77.91.76.91.76.91.77.9.76.9.76.9.77.89.76.89.76.88.77.88.76.88.76.87.77.87.76.87.76.86.77.86.76.86.76.86.76.85.77.84.76.85.76.84.77.84.76.83.76.83.77.83.76.83.76.82.77.82.76.81.76.82.77.81.76.8.76.81.77.8.76.8.76.79.77.8.76.79.76.78.77.79.76.78.76.78.77.77.76.78.76.77.77.77.76.76.76.76.77.76.76.76.76.75.77.76.76.75.76.74.77.75.76.74.76.74.77.73.76.74.76.73.77.73.76.73.76.72.77.72.76.72.76.72.77.72.76.71.76.71.77.71.76.7.76.71.77.7.76.69.76.7.77.7.76.69.76.69.77.69.76.68.76.68.77.69.76.67.76.68.77.68.76.67.76.67.77.67.76.67.76.66.77.66.76.66.76.66.77.66.76.65.76.65.77.65.76.65.76.65.77.64.76.65.76.64.77.64.76.63.76.64.77.63.76.63.76.63.76.63.77.62.76.63.76.62.77.62.76.62.76.62.77.61.76.61.76.61.77.61.76.61.76.61.77.6.76.61.76.6.77.6.76.59.76.6.77.59.76.6.76.59.77.59.76.58.76.59.77.58.76.59.76.58.77.58.76.58.76.57.77.58.76.57.76.57.77.57.76.57.76.57.77.56.76.57.76.56.77.56.76.56.76.56.77.56.76.55.76.56.77.55.76.55.76.55.77.55.76.54.76.55.77.54.76.54.76.55.77.53.76.54.76.54.77.54.76.53.76.53.77.53.76.53.76.53.77.53.76.53.76.52.77.52.76.53.76.52.77.52.76.51.76.52.77.52.76.51.76.51.77.52.76.51.76.51.77.5.76.51.76.51.77.5.76.5.76.51.77.5.76.5.76.49.77.5.76.5.76.49.77.5.76.49.76.49.76.49.77.49.76.49.76.48.77.49.76.48.76.49.77.48.76.48.76.48.77.48.76.48.76.47.77.48.76.47.76.47.77.47.76.46.76.45.77.43.76.4.76.33.77.22.76.03.76-.24.77-.68.76-1.27.76-2.1.77-3.16.76-4.46.76-5.97.77-7.61.76-9.27.76-10.81.77-12.09.76-12.96.76-13.34.77-13.15.76-12.45.76-11.31.77-9.84.76-8.2.76-6.54.77-4.97.76-3.59.76-2.44.77-1.53.76-.85.76-.38.77-.05.76.17.76.29.77.37.76.41.76.44.77.44.76.45.76.46.77.45.76.45.76.46.77.45.76.45.76.45.77.45.76.44.76.45.77.45.76.44.76.45.77.44.76.44.76.44.77.44.76.44.76.44.77.44.76.44.76.43.77.44.76.43.76.44.77.43.76.43.76.43.77.43.76.43.76.43.77.42.76.43.76.43.77.42.76.43.76.42.76.42.77.42.76.42.76.42.77.42.76.42.76.42.77.41.76.42.76.41.77.42.76.41.76.41.77.42.76.41.76.41.77.41.76.4.76.41.77.41.76.41.76.4.77.41.76.4.76.4.77.4.76.41.76.4.77.4.76.4.76.39.77.4.76.4.76.4.77.39.76.4.76.39.77.39.76.4.76.39.77.39.76.39.76.39.77.39.76.39.76.38.77.39.76.39.76.38.77.39.76.38.76.38.77.39.76.38.76.38.77.38.76.38.76.38.77.38.76.38.76.37.77.38.76.38.76.37.77.38.76.37.76.37.77.37.76.38.76.37.77.37.76.37.76.37.77.37.76.36.76.37.77.37.76.36.76.37.77.36.76.37.76.36.77.36.76.37.76.36.77.36.76.36.76.36.77.36.76.36.76.35.76.36.77.36.76.35.76.36.77.35.76.36.76.35.77.36.76.35.76.35.77.35.76.35.76.35.77.35.76.35.76.35.77.35.76.34.76.35.77.35.76.34.76.35.77.34.76.34.76.35.77.34.76.34.76.34.77.34.76.34.76.34.77.34.76.34.76.34.77.34.76.34.76.33.77.34.76.33.76.34.77.33.76.34.76.33.77.33.76.33.76.34.77.33.76.33.76.33.77.33.76.33.76.32.77.33.76.33.76.33.77.32.76.33.76.32.77.33.76.32.76.33.77.32.76.32.76.33.77.32.76.32.76.32.77.32.76.32.76.32.77.32.76.32.76.31.77.32.76.32.76.32.77.31.76.32.76.31.77.32.76.31.76.31.77.32.76.31.76.31.77.31.76.31.76.31.77.32.76.3.76.31.77.31.76.31.76.31.76.31.77.3.76.31.76.31.77.3.76.31.76.3.77.31.76.3.76.3.77.31.76.3.76.3.77.3.76.3.76.3.77.3.76.3.76.3.77.3.76.3.76.3.77.3.76.29.76.3.77.3.76.29.76.3.77.29.76.3.76.29.77.3.76.29.76.29.77.29.76.3.76.29.77.29.76.29.76.29.77.29.76.29.76.29.77.29.76.29.76.28.77.29.76.29.76.29.77.28.76.29.76.28.77.29.76.28.76.29.77.28.76.28.76.29.77.28.76.28.76.28.77.29.76.28.76.28.77.28.76.28.76.28.77.28.76.28.76.28.77.27.76.28.76.28.77.28.76.27.76.28.77.27.76.28.76.27.77.28.76.27.76.28.77.27.76.27.76.28.77.27.76.27.76.27.77.27.76.28.76.27.77.27.76.27.76.27.76.27.77.26.76.27.76.27.77.27.76.27.76.26.77.27.76.27.76.26.77.27.76.26.76.27.77.26.76.27.76.26.77.27.76.26.76.26.77.26.76.27.76.26.77.26.76.26.76.26.77.26.76.26.76.26.77.26.76.26.76.26.77.26.76.26.76.25.77.26.76.26.76.26.77.25.76.26.76.25.77.26.76.26.76.25.77.25.76.26.76.25.77.26.76.25.76.25.77.26.76.25.76.25.77.25.76.25.76.25.77.26.76.25.76.25.77.25.76.24.76.25.77.25.76.25.76.25.77.25.76.25.76.24.77.25.76.25.76.24.77.25.76.25.76.24.77.25.76.24.76.25.77.24.76.24.76.25.77.24.76.24.76.25.77.24.76.24.76.24.77.25.76.24.76.24.77.24.76.24.76.24.77.24.76.24.76.24.76.24.77.24.76.24.76.23.77.24.76.24.76.24.77.23.76.24.76.24.77.23.76.24.76.23.77.24.76.23.76.24.77.23.76.24.76.23.77.24.76.23.76.23.77.24.76.23.76.23.77.23.76.23.76.24.77.23.76.23.76.23.77.23.76.23.76.23.77.23.76.23.76.23.77.23.76.23.76.22.77.23.76.23.76.23.77.22.76.23"/><use xlink:href="#a" color="violet" transform="matrix(9 0 0 9 204.67 230.38)"/><use xlink:href="#a" color="violet" transform="matrix(9 0 0 9 472.04 88.01)"/></g><path fill="none" stroke="none" stroke-width="0" d="M0 180.01V410m724.48-229.99H0" color="#000"/><text fill="#000" stroke="none" stroke-width="0" color="#000" font-family="Arial" font-size="20" text-anchor="middle" transform="translate(362.24 39.51)"><tspan font-weight="bold">Maximum Path Length </tspan><tspan> / log</tspan><tspan dy="6" font-size="16">2</tspan><tspan dy="-6">Size</tspan></text></svg>