<svg xmlns="http://www.w3.org/2000/svg" xmlns:xlink="http://www.w3.org/1999/xlink" viewBox="0 0 400 200"><path fill="none" d="M0 0h400v200H0z"/><defs><path id="g" stroke="currentColor" stroke-width=".222" d="M-1 0h2M0-1v2"/><path id="h" stroke="currentColor" stroke-width=".222" d="m-1-1 2 2m0-2-2 2"/><path id="i" stroke="currentColor" stroke-width=".222" d="M-1 0h2M0-1v2m-1-2 2 2m-2 0 2-2"/><path id="d" stroke="currentColor" stroke-width=".222" d="M-1-1h2v2h-2z"/><path id="b" stroke="currentColor" stroke-width=".222" d="m0-1.33-1.33 2h2.66z"/><path id="f" stroke="currentColor" stroke-width=".222" d="M0 1.33 1.265.411.782-1.067l-1.564-.009-.483 1.487z"/><use xlink:href="#b" id="c" stroke="currentColor" transform="rotate(180)"/><use xlink:href="#d" id="e" stroke="currentColor" transform="rotate(45)"/><circle id="a" cx="0" cy="0" r="1" stroke="currentColor" stroke-width=".222"/></defs><g fill="none" stroke="none" stroke-linecap="round" stroke-linejoin="round" stroke-width="0" color="#000"><path d="M63.06 182v-9m0-100.99v9"/><text fill="#000" font-family="Arial" font-size="8" text-anchor="middle" transform="translate(63.06 193.6)"><tspan> 1</tspan></text></g><g fill="none" stroke="none" stroke-linecap="round" stroke-linejoin="round" stroke-width="0" color="#000"><path d="M95.83 182v-9m0-100.99v9"/><text fill="#000" font-family="Arial" font-size="8" text-anchor="middle" transform="translate(95.83 193.6)"><tspan> 2</tspan></text></g><g fill="none" stroke="none" stroke-linecap="round" stroke-linejoin="round" stroke-width="0" color="#000"><path d="M128.61 182v-9m0-100.99v9"/><text fill="#000" font-family="Arial" font-size="8" text-anchor="middle" transform="translate(128.61 193.6)"><tspan> 3</tspan></text></g><g fill="none" stroke="none" stroke-linecap="round" stroke-linejoin="round" stroke-width="0" color="#000"><path d="M161.39 182v-9m0-100.99v9"/><text fill="#000" font-family="Arial" font-size="8" text-anchor="middle" transform="translate(161.39 193.6)"><tspan> 4</tspan></text></g><g fill="none" stroke="none" stroke-linecap="round" stroke-linejoin="round" stroke-width="0" color="#000"><path d="M194.16 182v-9m0-100.99v9"/><text fill="#000" font-family="Arial" font-size="8" text-anchor="middle" transform="translate(194.16 193.6)"><tspan> 5</tspan></text></g><g fill="none" stroke="none" stroke-linecap="round" stroke-linejoin="round" stroke-width="0" color="#000"><path d="M226.94 182v-9m0-100.99v9"/><text fill="#000" font-family="Arial" font-size="8" text-anchor="middle" transform="translate(226.94 193.6)"><tspan> 6</tspan></text></g><g fill="none" stroke="none" stroke-linecap="round" stroke-linejoin="round" stroke-width="0" color="#000"><path d="M259.71 182v-9m0-100.99v9"/><text fill="#000" font-family="Arial" font-size="8" text-anchor="middle" transform="translate(259.71 193.6)"><tspan> 7</tspan></text></g><g fill="none" stroke="none" stroke-linecap="round" stroke-linejoin="round" stroke-width="0" color="#000"><path d="M292.49 182v-9m0-100.99v9"/><text fill="#000" font-family="Arial" font-size="8" text-anchor="middle" transform="translate(292.49 193.6)"><tspan> 8</tspan></text></g><g fill="none" stroke="none" stroke-linecap="round" stroke-linejoin="round" stroke-width="0" color="#000"><path d="M325.26 182v-9m0-100.99v9"/><text fill="#000" font-family="Arial" font-size="8" text-anchor="middle" transform="translate(325.26 193.6)"><tspan> 9</tspan></text></g><g fill="none" stroke="none" stroke-linecap="round" stroke-linejoin="round" stroke-width="0" color="#000"><path d="M358.04 182v-9m0-100.99v9"/><text fill="#000" font-family="Arial" font-size="8" text-anchor="middle" transform="translate(358.04 193.6)"><tspan> 10</tspan></text></g><g fill="none" stroke="none" stroke-linecap="round" stroke-linejoin="round" stroke-width="0" color="#000"><path d="M358.04 182h-9"/><text fill="#000" font-family="Arial" font-size="8" transform="translate(366.43 184.6)"><tspan>0.80</tspan></text></g><g fill="none" stroke="none" stroke-linecap="round" stroke-linejoin="round" stroke-width="0" color="#000"><path d="M358.04 171h-9"/><text fill="#000" font-family="Arial" font-size="8" transform="translate(366.43 173.6)"><tspan>0.85</tspan></text></g><g fill="none" stroke="none" stroke-linecap="round" stroke-linejoin="round" stroke-width="0" color="#000"><path d="M358.04 160h-9"/><text fill="#000" font-family="Arial" font-size="8" transform="translate(366.43 162.6)"><tspan>0.90</tspan></text></g><g fill="none" stroke="none" stroke-linecap="round" stroke-linejoin="round" stroke-width="0" color="#000"><path d="M358.04 149h-9"/><text fill="#000" font-family="Arial" font-size="8" transform="translate(366.43 151.6)"><tspan>0.95</tspan></text></g><g fill="none" stroke="none" stroke-linecap="round" stroke-linejoin="round" stroke-width="0" color="#000"><path d="M358.04 138h-9"/><text fill="#000" font-family="Arial" font-size="8" transform="translate(366.43 140.6)"><tspan>1.00</tspan></text></g><g fill="none" stroke="none" stroke-linecap="round" stroke-linejoin="round" stroke-width="0" color="#000"><path d="M358.04 127h-9"/><text fill="#000" font-family="Arial" font-size="8" transform="translate(366.43 129.6)"><tspan>1.05</tspan></text></g><g fill="none" stroke="none" stroke-linecap="round" stroke-linejoin="round" stroke-width="0" color="#000"><path d="M358.04 116.01h-9"/><text fill="#000" font-family="Arial" font-size="8" transform="translate(366.43 118.61)"><tspan>1.10</tspan></text></g><g fill="none" stroke="none" stroke-linecap="round" stroke-linejoin="round" stroke-width="0" color="#000"><path d="M358.04 105.01h-9"/><text fill="#000" font-family="Arial" font-size="8" transform="translate(366.43 107.61)"><tspan>1.15</tspan></text></g><g fill="none" stroke="none" stroke-linecap="round" stroke-linejoin="round" stroke-width="0" color="#000"><path d="M358.04 94.01h-9"/><text fill="#000" font-family="Arial" font-size="8" transform="translate(366.43 96.61)"><tspan>1.20</tspan></text></g><g fill="none" stroke="none" stroke-linecap="round" stroke-linejoin="round" stroke-width="0" color="#000"><path d="M358.04 83.01h-9"/><text fill="#000" font-family="Arial" font-size="8" transform="translate(366.43 85.61)"><tspan>1.25</tspan></text></g><g fill="none" stroke="none" stroke-linecap="round" stroke-linejoin="round" stroke-width="0" color="#000"><path d="M358.04 72.01h-9"/><text fill="#000" font-family="Arial" font-size="8" transform="translate(366.43 74.61)"><tspan>1.30</tspan></text></g><path fill="none" stroke="none" stroke-linecap="round" stroke-linejoin="round" stroke-width="0" d="M33.56 72.01V182M358.04 72.01H33.56" color="#000"/><text fill="#000" stroke="none" stroke-linecap="round" stroke-linejoin="round" stroke-width="0" color="#000" font-family="Arial" font-size="8" text-anchor="middle" transform="rotate(-90 69.74 57.27)"><tspan font-weight="bold">Maximum Path Length </tspan><tspan> / log</tspan><tspan dy="2.4" font-size="6.4">2</tspan><tspan dy="-2.4">Size</tspan></text><text fill="#000" stroke="none" stroke-linecap="round" stroke-linejoin="round" color="#000" font-family="Arial" font-size="8" transform="translate(111.8 30.11)"><tspan>AVLBottomUp</tspan></text><g fill="none" stroke="currentColor" stroke-linecap="round" stroke-linejoin="round" color="#000"><path stroke="#000" d="M74.8 27.51h31.4m-72.64 82.15.33 2.54.33 2.28.32-14.04.33 2 .33 1.83.33 1.69.32 1.57.33 1.46.33 1.37.33-14.11.33 1.28.32 1.21.33 1.15.33 1.09.33 1.03.32.99.33.94.33.9.33.87.33.83.32.8.33.76.33.74.33.72.32.68.33.67.33.64.33.63.32-13.83.33.63.33.6.33.58.33.57.32.55.33.54.33.53.33.51.32.5.33.48.33.48.33.46.33.45.32.45.33.43.33.42.33.42.32.4.33.4.33.39.33.38.33.38.32.36.33.36.33.36.33.34.32.34.33.34.33.33.33.32.33-13.35.32.33.33.33.33.31.33.32.32.31.33.3.33.3.33.29.33.3.32.28.33.28.33.28.33.28.32.27.33.26.33.27.33.25.33.26.32.25.33.25.33.25.33.24.32.24.33.24.33.23.33.23.32.23.33.22.33.23.33.22.33.21.32.22.33.21.33.21.33.21.32.2.33.21.33.2.33.19.33.2.32.2.33.19.33.19.33.19.32.18.33.19.33.18.33.18.33.18.32.18.33.17.33.18.33.17.32.17.33.17.33.17.33.16.33.17.32.16.33-12.79.33.17.33.17.32.17.33.16.33.16.33.16.33.16.32.16.33.16.33.15.33.16.32.15.33.15.33.15.33.15.33.15.32.15.33.14.33.15.33.14.32.15.33.14.33.14.33.14.32.14.33.13.33.14.33.13.33.14.32.13.33.13.33.14.33.13.32.12.33.13.33.13.33.13.33.12.32.13.33.12.33.12.33.13.32.12.33.12.33.12.33.12.33.12.32.12.33.11.33.12.33.11.32.12.33.11.33.12.33.11.33.11.32.11.33.11.33.11.33.11.32.11.33.11.33.1.33.11.33.1.32.11.33.1.33.11.33.1.32.1.33.11.33.1.33.1.32.1.33.1.33.1.33.1.33.09.32-12.35.33.11.33.1.33.1.32.1.33.1.33.1.33.09.33.1.32.1.33.1.33.09.33.1.32.1.33.09.33.09.33.1.33.09.32.1.33.09.33.09.33.09.32.09.33.09.33.09.33.09.33.09.32.09.33.09.33.09.33.09.32.08.33.09.33.09.33.08.33.09.32.08.33.09.33.08.33.08.32.09.33.08.33.08.33.09.33.08.32.08.33.08.33.08.33.08.32.08.33.08.33.08.33.08.32.08.33.08.33.08.33.07.33.08.32.08.33.08.33.07.33.08.32.07.33.08.33.07.33.08.33.07.32.08.33.07.33.07.33.08.32.07.33.07.33.07.33.08.33.07.32.07.33.07.33.07.33.07.32.07.33.07.33.07.33.07.33.07.32.07.33.07.33.06.33.07.32.07.33.07.33.07.33.06.33.07.32.07.33.06.33.07.33.06.32.07.33.07.33.06.33.06.33.07.32.06.33.07.33.06.33.06.32.07.33.06.33.06.33.06.32.07.33.06.33.06.33.06.33.07.32.06.33.06.33.06.33.06.32.06.33.06.33.06.33.06.33.06.32.06.33.06.33.06.33.06.32.05.33.06.33.06.33.06.33.06.32.05.33.06.33.06.33.06.32.05.33.06.33.05.33.06.33.06.32.05.33.06.33.05.33.06.32.06.33.05.33.05.33.06.33.05.32.06.33.05.33.06.33.05.32.05.33.06.33.05.33.05.32.06.33.05.33.05.33.05.33.06.32.05.33.05.33.05.33.05.32.05.33.06.33.05.33.05.33-11.81.32.05.33.05.33.05.33.06.32.05.33.05.33.05.33.06.33.05.32.05.33.05.33.05.33.05.32.06.33.05.33.05.33.05.33.05.32.05.33.05.33.05.33.05.32.05.33.05.33.05.33.05.33.04.32.06.33.04.33.05.33.05.32.05.33.05.33.05.33.04.33.05.32.05.33.05.33.05.33.04.32.05.33.05.33.04.33.05.32.05.33.05.33.04.33.05.33.04.32.05.33.05.33.04.33.05.32.04.33.05.33.05.33.04.33.05.32.04.33.05.33.04.33.04.32.05.33.04.33.05.33.04.33.05.32.04.33.04.33.05.33.04.32.05.33.04.33.04.33.05.33.04.32.04.33.05.33.04.33.04.32.04.33.04.33.05.33.04.33.04.32.04.33.05.33.04.33.04.32.04.33.04.33.04.33.05.33.04.32.04.33.04.33.04.33.04.32.04.33.04.33.04.33.04.32.05.33.04.33.03.33.04.33.05.32.04.33.04.33.04.33.03.32.04.33.04.33.04.33.04.33.04.32.04.33.04.33.04.33.04.32.04.33.04.33.03.33.04.33.04.32.04.33.04.33.03.33.04.32.04.33.04.33.04.33.03.33.04.32.04.33.04.33.03.33.04.32.04.33.04.33.03.33.04.33.04.32.03.33.04.33.04.33.03.32.04.33.04.33.03.33.04.32.04.33.03.33.04.33.03.33.04.32.03.33.04.33.04.33.03.32.04.33.03.33.04.33.03.33.04.32.03.33.04.33.03.33.04.32.03.33.04.33.03.33.04.33.03.32.04.33.03.33.03.33.04.32.03.33.04.33.03.33.03.33.04.32.03.33.04.33.03.33.03.32.04.33.03.33.03.33.04.33.03.32.03.33.04.33.03.33.03.32.04.33.03.33.03.33.03.33.04.32.03.33.03.33.04.33.03.32.03.33.03.33.03.33.04.32.03.33.03.33.03.33.03.33.04.32.03.33.03.33.03.33.03.32.03.33.04.33.03.33.03.33.03.32.03.33.03.33.03.33.04.32.03.33.03.33.03.33.03.33.03.32.03.33.03.33.03.33.03.32.03.33.03.33.03.33.03.33.03.32.03.33.03.33.03.33.03.32.03.33.03.33.03.33.03.33.03.32.03.33.03.33.03.33.03.32.03.33.03.33.03.33.03.33.03.32.03.33.03.33.03.33-11.37.32.03.33.03.33.03.33.03.32.03.33.03.33.03.33.03.33.03.32.03.33.03.33.03.33.03.32.03.33.03.33.03.33.03.33.03.32.03.33.02.33.03.33.03.32.03.33.03.33.03.33.03.33.03.32.03.33.03.33.02.33.03.32.03.33.03.33.03.33.03.33.03.32.03.33.02.33.03.33.03.32.03.33.03.33.03.33.03.33.02.32.03.33.03.33.03.33.02.32.03.33.03.33.03.33.03.32.02.33.03.33.03.33.03.33.02.32.03.33.03.33.03.33.02.32.03.33.03.33.03.33.02.33.03.32.03.33.02.33.03.33.03.32.03.33.02.33.03.33.02.33.03.32.03.33.03.33.02.33.03.32.03.33.02.33.03.33.02.33.03.32.03.33.02.33.03.33.03.32.02.33.03.33.03.33.02.33.03.32.02.33.03.33.03.33.02.32.03.33.02.33.03.33.02.33.03.32.03.33.02.33.03.33.02.32.03.33.02.33.03.33.02.32.03.33.02.33.03.33.02.33.03.32.02.33.03.33.02.33.03.32.02.33.03.33.02.33.03.33.02.32.03.33.02.33.03.33.02.32.03.33.02.33.03.33.02.33.03.32.02.33.02.33.03.33.02.32.03.33.02.33.03.33.02.33.02.32.03.33.02.33.03.33.02.32.02.33.03.33.02.33.02.33.03.32.02.33.03.33.02.33.03.32.02.33.02.33.03.33.02.33.02.32.03.33.02.33.02.33.03.32.02.33.02.33.03.33.02.32.02.33.03.33.02.33.02.33.03.32.02.33.02.33.02.33.03.32.02.33.02.33.03.33.02.33.02.32.02.33.03.33.02.33.02.32.03.33.02.33.02.33.02.33.03.32.02.33.02.33.02.33.03.32.02.33.02.33.02.33.03.33.02.32.02.33.02.33.02.33.03.32.02.33.02.33.02.33.03.33.02.32.02.33.02.33.02.33.03.32.02.33.02.33.02.33.02.32.02.33.03.33.02.33.02.33.02.32.02.33.02.33.03.33.02.32.02.33.02.33.02.33.02.33.02.32.02.33.03.33.02.33.02.32.02.33.02.33.02.33.02.33.02.32.03.33.02.33.02.33.02.32.02.33.02.33.02.33.02.33.02.32.03.33.02.33.02.33.02.32.02.33.02.33.02.33.02.33.02.32.02.33.02.33.02.33.02.32.02.33.02.33.02.33.03.33.02.32.02.33.01.33.03.33.02.32.02.33.02.33.02.33.02.32.02.33.02.33.02.33.02.33.02.32.02.33.02.33.02.33.02.32.02.33.02.33.02.33.02.33.02.32.02.33.02.33.02.33.02.32.02.33.02.33.02.33.02.33.02.32.02.33.02.33.01.33.02.32.02.33.02.33.02.33.02.33.02.32.02.33.02.33.02.33.02.32.02.33.02.33.02.33.02.33.02.32.01.33.02.33.02.33.02.32.02.33.02.33.02.33.02.33.02.32.01.33.02.33.02.33.02.32.02.33.02.33.02.33.02.32.02.33.02.33.01.33.02.33.02.32.02.33.02.33.02.33.02.32.02.33.01.33.02.33.02.33.02.32.02.33.02.33.02.33.01.32.02.33.02.33.02"/><use xlink:href="#g" transform="matrix(4.5 0 0 4.5 355.09 103.97)"/><use xlink:href="#g" transform="matrix(4.5 0 0 4.5 90.5 27.51)"/></g><text fill="#000" stroke="none" stroke-linecap="round" stroke-linejoin="round" color="#000" font-family="Arial" font-size="8" transform="translate(111.8 45.11)"><tspan>AVLTopDown</tspan></text><g fill="none" stroke="currentColor" stroke-linecap="round" stroke-linejoin="round" color="#000"><path stroke="#29C3F6" stroke-dasharray="1.0,2.0" d="M74.8 42.51h31.4m-72.64 67.15.33 2.54.33 2.28.32-14.04.33 2 .33 1.83.33 1.69.32 1.57.33 1.46.33 1.37.33-14.11.33 1.28.32 1.21.33 1.15.33 1.09.33 1.03.32.99.33.94.33.9.33.87.33.83.32.8.33.76.33.74.33.72.32.68.33.67.33.64.33.63.32-13.83.33.63.33.6.33.58.33.57.32.55.33.54.33.53.33.51.32.5.33.48.33.48.33.46.33.45.32.45.33.43.33.42.33.42.32.4.33.4.33.39.33.38.33.38.32.36.33.36.33.36.33.34.32.34.33.34.33.33.33.32.33-13.35.32.33.33.33.33.31.33.32.32.31.33.3.33.3.33.29.33.3.32.28.33.28.33.28.33.28.32.27.33.26.33.27.33.25.33.26.32.25.33.25.33.25.33.24.32.24.33.24.33.23.33.23.32.23.33.22.33.23.33.22.33.21.32.22.33.21.33.21.33.21.32.2.33.21.33.2.33.19.33.2.32.2.33.19.33.19.33.19.32.18.33.19.33.18.33.18.33.18.32.18.33.17.33.18.33.17.32.17.33.17.33.17.33.16.33.17.32.16.33-12.79.33.17.33.17.32.17.33.16.33.16.33.16.33.16.32.16.33.16.33.15.33.16.32.15.33.15.33.15.33.15.33.15.32.15.33.14.33.15.33.14.32.15.33.14.33.14.33.14.32.14.33.13.33.14.33.13.33.14.32.13.33.13.33.14.33.13.32.12.33.13.33.13.33.13.33.12.32.13.33.12.33.12.33.13.32.12.33.12.33.12.33.12.33.12.32.12.33.11.33.12.33.11.32.12.33.11.33.12.33.11.33.11.32.11.33.11.33.11.33.11.32.11.33.11.33.1.33.11.33.1.32.11.33.1.33.11.33.1.32.1.33.11.33.1.33.1.32.1.33.1.33.1.33.1.33.09.32-12.35.33.11.33.1.33.1.32.1.33.1.33.1.33.09.33.1.32.1.33.1.33.09.33.1.32.1.33.09.33.09.33.1.33.09.32.1.33.09.33.09.33.09.32.09.33.09.33.09.33.09.33.09.32.09.33.09.33.09.33.09.32.08.33.09.33.09.33.08.33.09.32.08.33.09.33.08.33.08.32.09.33.08.33.08.33.09.33.08.32.08.33.08.33.08.33.08.32.08.33.08.33.08.33.08.32.08.33.08.33.08.33.07.33.08.32.08.33.08.33.07.33.08.32.07.33.08.33.07.33.08.33.07.32.08.33.07.33.07.33.08.32.07.33.07.33.07.33.08.33.07.32.07.33.07.33.07.33.07.32.07.33.07.33.07.33.07.33.07.32.07.33.07.33.06.33.07.32.07.33.07.33.07.33.06.33.07.32.07.33.06.33.07.33.06.32.07.33.07.33.06.33.06.33.07.32.06.33.07.33.06.33.06.32.07.33.06.33.06.33.06.32.07.33.06.33.06.33.06.33.07.32.06.33.06.33.06.33.06.32.06.33.06.33.06.33.06.33.06.32.06.33.06.33.06.33.06.32.05.33.06.33.06.33.06.33.06.32.05.33.06.33.06.33.06.32.05.33.06.33.05.33.06.33.06.32.05.33.06.33.05.33.06.32.06.33.05.33.05.33.06.33.05.32.06.33.05.33.06.33.05.32.05.33.06.33.05.33.05.32.06.33.05.33.05.33.05.33.06.32.05.33.05.33.05.33.05.32.05.33.06.33.05.33.05.33-11.81.32.05.33.05.33.05.33.06.32.05.33.05.33.05.33.06.33.05.32.05.33.05.33.05.33.05.32.06.33.05.33.05.33.05.33.05.32.05.33.05.33.05.33.05.32.05.33.05.33.05.33.05.33.04.32.06.33.04.33.05.33.05.32.05.33.05.33.05.33.04.33.05.32.05.33.05.33.05.33.04.32.05.33.05.33.04.33.05.32.05.33.05.33.04.33.05.33.04.32.05.33.05.33.04.33.05.32.04.33.05.33.05.33.04.33.05.32.04.33.05.33.04.33.04.32.05.33.04.33.05.33.04.33.05.32.04.33.04.33.05.33.04.32.05.33.04.33.04.33.05.33.04.32.04.33.05.33.04.33.04.32.04.33.04.33.05.33.04.33.04.32.04.33.05.33.04.33.04.32.04.33.04.33.04.33.05.33.04.32.04.33.04.33.04.33.04.32.04.33.04.33.04.33.04.32.05.33.04.33.03.33.04.33.05.32.04.33.04.33.04.33.03.32.04.33.04.33.04.33.04.33.04.32.04.33.04.33.04.33.04.32.04.33.04.33.03.33.04.33.04.32.04.33.04.33.03.33.04.32.04.33.04.33.04.33.03.33.04.32.04.33.04.33.03.33.04.32.04.33.04.33.03.33.04.33.04.32.03.33.04.33.04.33.03.32.04.33.04.33.03.33.04.32.04.33.03.33.04.33.03.33.04.32.03.33.04.33.04.33.03.32.04.33.03.33.04.33.03.33.04.32.03.33.04.33.03.33.04.32.03.33.04.33.03.33.04.33.03.32.04.33.03.33.03.33.04.32.03.33.04.33.03.33.03.33.04.32.03.33.04.33.03.33.03.32.04.33.03.33.03.33.04.33.03.32.03.33.04.33.03.33.03.32.04.33.03.33.03.33.03.33.04.32.03.33.03.33.04.33.03.32.03.33.03.33.03.33.04.32.03.33.03.33.03.33.03.33.04.32.03.33.03.33.03.33.03.32.03.33.04.33.03.33.03.33.03.32.03.33.03.33.03.33.04.32.03.33.03.33.03.33.03.33.03.32.03.33.03.33.03.33.03.32.03.33.03.33.03.33.03.33.03.32.03.33.03.33.03.33.03.32.03.33.03.33.03.33.03.33.03.32.03.33.03.33.03.33.03.32.03.33.03.33.03.33.03.33.03.32.03.33.03.33.03.33-11.37.32.03.33.03.33.03.33.03.32.03.33.03.33.03.33.03.33.03.32.03.33.03.33.03.33.03.32.03.33.03.33.03.33.03.33.03.32.03.33.02.33.03.33.03.32.03.33.03.33.03.33.03.33.03.32.03.33.03.33.02.33.03.32.03.33.03.33.03.33.03.33.03.32.03.33.02.33.03.33.03.32.03.33.03.33.03.33.03.33.02.32.03.33.03.33.03.33.02.32.03.33.03.33.03.33.03.32.02.33.03.33.03.33.03.33.02.32.03.33.03.33.03.33.02.32.03.33.03.33.03.33.02.33.03.32.03.33.02.33.03.33.03.32.03.33.02.33.03.33.02.33.03.32.03.33.03.33.02.33.03.32.03.33.02.33.03.33.02.33.03.32.03.33.02.33.03.33.03.32.02.33.03.33.03.33.02.33.03.32.02.33.03.33.03.33.02.32.03.33.02.33.03.33.02.33.03.32.03.33.02.33.03.33.02.32.03.33.02.33.03.33.02.32.03.33.02.33.03.33.02.33.03.32.02.33.03.33.02.33.03.32.02.33.03.33.02.33.03.33.02.32.03.33.02.33.03.33.02.32.03.33.02.33.03.33.02.33.03.32.02.33.02.33.03.33.02.32.03.33.02.33.03.33.02.33.02.32.03.33.02.33.03.33.02.32.02.33.03.33.02.33.02.33.03.32.02.33.03.33.02.33.03.32.02.33.02.33.03.33.02.33.02.32.03.33.02.33.02.33.03.32.02.33.02.33.03.33.02.32.02.33.03.33.02.33.02.33.03.32.02.33.02.33.02.33.03.32.02.33.02.33.03.33.02.33.02.32.02.33.03.33.02.33.02.32.03.33.02.33.02.33.02.33.03.32.02.33.02.33.02.33.03.32.02.33.02.33.02.33.03.33.02.32.02.33.02.33.02.33.03.32.02.33.02.33.02.33.03.33.02.32.02.33.02.33.02.33.03.32.02.33.02.33.02.33.02.32.02.33.03.33.02.33.02.33.02.32.02.33.02.33.03.33.02.32.02.33.02.33.02.33.02.33.02.32.02.33.03.33.02.33.02.32.02.33.02.33.02.33.02.33.02.32.03.33.02.33.02.33.02.32.02.33.02.33.02.33.02.33.02.32.03.33.02.33.02.33.02.32.02.33.02.33.02.33.02.33.02.32.02.33.02.33.02.33.02.32.02.33.02.33.02.33.03.33.02.32.02.33.01.33.03.33.02.32.02.33.02.33.02.33.02.32.02.33.02.33.02.33.02.33.02.32.02.33.02.33.02.33.02.32.02.33.02.33.02.33.02.33.02.32.02.33.02.33.02.33.02.32.02.33.02.33.02.33.02.33.02.32.02.33.02.33.01.33.02.32.02.33.02.33.02.33.02.33.02.32.02.33.02.33.02.33.02.32.02.33.02.33.02.33.02.33.02.32.01.33.02.33.02.33.02.32.02.33.02.33.02.33.02.33.02.32.01.33.02.33.02.33.02.32.02.33.02.33.02.33.02.32.02.33.02.33.01.33.02.33.02.32.02.33.02.33.02.33.02.32.02.33.01.33.02.33.02.33.02.32.02.33.02.33.02.33.01.32.02.33.02.33.02"/><use xlink:href="#h" color="#29C3F6" transform="matrix(4.5 0 0 4.5 84.69 104.27)"/><use xlink:href="#h" color="#29C3F6" transform="matrix(4.5 0 0 4.5 90.5 42.51)"/></g><text fill="#000" stroke="none" stroke-linecap="round" stroke-linejoin="round" color="#000" font-family="Arial" font-size="8" transform="translate(238.4 30.11)"><tspan>AVLWeakBottomUp</tspan></text><g fill="none" stroke="currentColor" stroke-linecap="round" stroke-linejoin="round" color="#000"><path stroke="#3B75EA" d="M201.4 27.51h31.4M33.56 159.32l.33 7.9.33 6.68.32-53.7.33 6.67.33 5.89.33 5.24.32 4.71.33 4.26.33 3.87.33 3.55.33 3.26.32 3.02.33 2.79.33 2.61.33 2.43.32 2.28.33-44.12.33 2.53.33 2.38.33 2.26.32 2.14.33 2.03.33 1.94.33 1.85.32 1.76.33 1.68.33 1.62.33 1.55.32 1.48.33-39.9.33 1.65.33 1.58.33 1.54.32 1.47.33 1.43.33 1.38.33 1.33.32 1.3.33 1.25.33 1.21.33 1.18.33 1.14.32 1.11.33 1.09.33 1.04.33 1.03.32.99.33.97.33.95.33.92.33.89.32.88.33.86.33.83.33.82.32.8.33-35.48.33.89.33.87.33.85.32.84.33.82.33.8.33.79.32.77.33.76.33.74.33.72.33.72.32.7.33.69.33.68.33.66.32.65.33.64.33.63.33.62.33.61.32.6.33.6.33.58.33.57.32.56.33.56.33.54.33.54.32.53.33.52.33.51.33.51.33.5.32.5.33.48.33.48.33.47.32.47.33.46.33.45.33.45.33.44.32.44.33.43.33.42.33.42.32.42.33.41.33.4.33.4.33.4.32.39.33.38.33.39.33.37.32.37.33.37.33-31.16.33.41.33.41.32.4.33.4.33.39.33.39.32.39.33.38.33.38.33.37.33.37.32.37.33.36.33.36.33.35.32.35.33.35.33.35.33.34.33.34.32.33.33.33.33.33.33.33.32.32.33.32.33.32.33.31.32.31.33.31.33.3.33.31.33.29.32.3.33.3.33.29.33.29.32.29.33.28.33.28.33.28.33.28.32.28.33.27.33.27.33.27.32.26.33.27.33.26.33.26.33.26.32.26.33.25.33.25.33.25.32.25.33.25.33.24.33.25.33.24.32.24.33.23.33.24.33.23.32.24.33.23.33.23.33.22.33.23.32.22.33.23.33.22.33.22.32.22.33.21.33.22.33.21.32.21.33.21.33.21.33.21.33.21.32.2.33.21.33.2.33.2.32.2.33.2.33.19.33.2.33.2.32.19.33.19.33.19.33.19.32.19.33.19.33.19.33.18.33.19.32.18.33.18.33.18.33.18.32.18.33.18.33.17.33.18.33.17.32.18.33.17.33.17.33.17.32.17.33.17.33.17.33.17.33.16.32.17.33.16.33.16.33.17.32.16.33.16.33-27.44.33.18.33.18.32.18.33.17.33.18.33.17.32.17.33.18.33.17.33.17.32.17.33.17.33.16.33.17.33.16.32.17.33.16.33.17.33.16.32.16.33.16.33.16.33.16.33.16.32.16.33.16.33.15.33.16.32.15.33.16.33.15.33.15.33.15.32.16.33.14.33.15.33.15.32.15.33.15.33.15.33.14.33.15.32.14.33.15.33.14.33.14.32.15.33.14.33.14.33.14.33.14.32.14.33.14.33.13.33.14.32.14.33.13.33.14.33.13.33.14.32.13.33.13.33.14.33.13.32.13.33.13.33.13.33.13.32.13.33.13.33.13.33.12.33.13.32.13.33.12.33.13.33.12.32.13.33.12.33.13.33.12.33.12.32.12.33.12.33.13.33.12.32.12.33.12.33.11.33.12.33.12.32.12.33.12.33.11.33.12.32.12.33.11.33.11.33.12.33.11.32.12.33.11.33.11.33.12.32.11.33.11.33.11.33.11.33.11.32.11.33.11.33.11.33.11.32.11.33.1.33.11.33.11.32.1.33.11.33.11.33.1.33.11.32.1.33.11.33.1.33.1.32.11.33.1.33.1.33.1.33.11.32.1.33.1.33.1.33.1.32.1.33.1.33.1.33.1.33.1.32.1.33.09.33.1.33.1.32.1.33.09.33.1.33.09.33.1.32.1.33.09.33.09.33.1.32.09.33.1.33.09.33.1.33.09.32.09.33.09.33.09.33.1.32.09.33.09.33.09.33.09.33.09.32.09.33.09.33.09.33.09.32.09.33.09.33.09.33.08.32.09.33.09.33-25.07.33.1.33.09.32.1.33.1.33.09.33.09.32.1.33.09.33.1.33.09.33.1.32.09.33.09.33.09.33.1.32.09.33.09.33.09.33.1.33.09.32.09.33.09.33.09.33.09.32.09.33.09.33.09.33.09.33.09.32.08.33.09.33.09.33.09.32.09.33.08.33.09.33.09.33.08.32.09.33.09.33.08.33.09.32.08.33.09.33.08.33.09.33.08.32.09.33.08.33.08.33.09.32.08.33.08.33.09.33.08.32.08.33.08.33.08.33.09.33.08.32.08.33.08.33.08.33.08.32.08.33.08.33.08.33.08.33.08.32.08.33.08.33.08.33.08.32.07.33.08.33.08.33.08.33.08.32.07.33.08.33.08.33.08.32.07.33.08.33.07.33.08.33.08.32.07.33.08.33.07.33.08.32.07.33.08.33.07.33.08.33.07.32.07.33.08.33.07.33.08.32.07.33.07.33.07.33.08.32.07.33.07.33.07.33.08.33.07.32.07.33.07.33.07.33.07.32.07.33.07.33.07.33.07.33.07.32.08.33.07.33.07.33.06.32.07.33.07.33.07.33.07.33.07.32.07.33.07.33.06.33.07.32.07.33.07.33.07.33.06.33.07.32.07.33.07.33.06.33.07.32.07.33.06.33.07.33.06.33.07.32.07.33.06.33.07.33.06.32.07.33.06.33.07.33.06.33.07.32.06.33.06.33.07.33.06.32.07.33.06.33.06.33.07.32.06.33.06.33.07.33.06.33.06.32.07.33.06.33.06.33.06.32.06.33.07.33.06.33.06.33.06.32.06.33.06.33.07.33.05.32.07.33.06.33.06.33.06.33.06.32.06.33.06.33.06.33.06.32.06.33.06.33.06.33.06.33.05.32.06.33.06.33.06.33.06.32.06.33.06.33.06.33.05.33.06.32.06.33.06.33.06.33.05.32.06.33.06.33.06.33.05.33.06.32.06.33.05.33.06.33.06.32.05.33.06.33.06.33.05.32.06.33.05.33.06.33.06.33.05.32.06.33.05.33.06.33.05.32.06.33.05.33.06.33.05.33.06.32.05.33.05.33.06.33.05.32.06.33.05.33.05.33.06.33.05.32.05.33.06.33.05.33.05.32.06.33.05.33.05.33.06.33.05.32.05.33.05.33.06.33.05.32.05.33.05.33.05.33.06.33.05.32.05.33.05.33.05.33.05.32.06.33.05.33.05.33.05.32.05.33.05.33.05.33.05.33.05.32.05.33.05.33.05.33.05.32.05.33.05.33.05.33.05.33.05.32.05.33.05.33.05.33.05.32.05.33.05.33.05.33.05.33.05.32.05.33.04.33.05.33.05.32.05.33.05.33.05.33.04.33.05.32.05.33.05.33-23.07.33.05.32.06.33.05.33.05.33.05.33.06.32.05.33.05.33.05.33.05.32.06.33.05.33.05.33.05.33.05.32.05.33.05.33.05.33.06.32.05.33.05.33.05.33.05.32.05.33.05.33.05.33.05.33.05.32.05.33.05.33.05.33.05.32.05.33.05.33.05.33.05.33.05.32.05.33.05.33.04.33.05.32.05.33.05.33.05.33.05.33.05.32.05.33.04.33.05.33.05.32.05.33.05.33.05.33.04.33.05.32.05.33.05.33.04.33.05.32.05.33.05.33.05.33.04.33.05.32.05.33.04.33.05.33.05.32.04.33.05.33.05.33.04.33.05.32.05.33.04.33.05.33.04.32.05.33.05.33.04.33.05.32.05.33.04.33.05.33.04.33.05.32.04.33.05.33.04.33.05.32.04.33.05.33.04.33.05.33.05.32.04.33.04.33.05.33.04.32.05.33.04.33.05.33.04.33.05.32.04.33.04.33.05.33.04.32.05.33.04.33.04.33.05.33.04.32.05.33.04.33.04.33.05.32.04.33.04.33.04.33.05.33.04.32.04.33.05.33.04.33.04.32.05.33.04.33.04.33.04.32.05.33.04.33.04.33.04.33.05.32.04.33.04.33.04.33.04.32.05.33.04.33.04.33.04.33.04.32.04.33.04.33.05.33.04.32.04.33.04.33.04.33.04.33.05.32.03.33.05.33.04.33.04.32.04.33.04.33.04.33.04.33.04.32.04.33.04.33.04.33.04.32.05.33.03.33.04.33.05.33.04.32.04.33.03.33.04.33.04.32.04.33.05.33.03.33.04.33.04.32.04.33.04.33.04.33.04.32.04.33.04.33.04.33.04.32.04.33.04.33.04.33.03.33.04.32.04.33.04.33.04.33.04.32.04.33.03.33.04.33.04.33.04.32.04.33.04.33.03.33.04.32.04.33.04.33.04.33.04.33.03.32.04.33.04.33.04.33.03.32.04.33.04.33.04.33.03.33.04.32.04.33.04.33.03.33.04.32.04.33.03.33.04.33.04.33.04.32.03.33.04.33.04.33.03.32.04.33.04.33.03.33.04.33.04.32.03.33.04.33.04.33.03.32.04.33.03.33.04.33.04.32.03.33.04.33.03.33.04.33.04.32.03.33.04.33.03.33.04.32.04.33.03.33.04.33.03.33.04.32.03.33.04.33.03.33.04.32.03.33.04.33.03"/><use xlink:href="#d" color="#3B75EA" transform="matrix(4.5 0 0 4.5 139.1 121.59)"/><use xlink:href="#d" color="#3B75EA" transform="matrix(4.5 0 0 4.5 217.1 27.51)"/></g><text fill="#000" stroke="none" stroke-linecap="round" stroke-linejoin="round" color="#000" font-family="Arial" font-size="8" transform="translate(238.4 45.11)"><tspan>AVLWeakTopDown</tspan></text><g fill="none" stroke="currentColor" stroke-linecap="round" stroke-linejoin="round" color="#000"><path stroke="#00C853" stroke-dasharray="4.5,2.0,0.5,2.0,0.5,2.0" d="M201.4 42.51h31.4M33.56 159.32l.33 7.9.33 6.68.32-53.7.33 6.67.33 5.89.33 5.24.32 4.71.33 4.26.33 3.87.33 3.55.33 3.26.32-46.31.33 3.5.33 3.25.33 3.04.32 2.85.33 2.68.33 2.53.33 2.38.33 2.26.32 2.14.33 2.03.33 1.94.33 1.85.32 1.76.33 1.68.33 1.62.33-40.37.32 1.78.33 1.72.33 1.65.33 1.58.33 1.54.32 1.47.33 1.43.33 1.38.33 1.33.32 1.3.33 1.25.33 1.21.33 1.18.33 1.14.32 1.11.33 1.09.33 1.04.33 1.03.32-36.72.33 1.13.33 1.1.33 1.07.33 1.05.32 1.03.33 1 .33.97.33.95.32.94.33.91.33.89.33 36.88.33.73.32.72.33.7.33.69.33.67.32.66.33.65.33.64.33-34.38.33.72.32.7.33.69.33.68.33.66.32.65.33.64.33.63.33.62.33.61.32.6.33.6.33.58.33.57.32.56.33.56.33-32.94.33.61.32.61.33.59.33.59.33.58.33.57.32.57.33.55.33.55.33.54.32.53.33.53.33.52.33 33.01.33.44.32.44.33.43.33.42.33.42.32.42.33.41.33.4.33.4.33.4.32.39.33-31.41.33.44.33.43.32.42.33.42.33.42.33.41.33.41.32.4.33.4.33.39.33.39.32.39.33.38.33.38.33.37.33.37.32.37.33.36.33.36.33.35.32.35.33.35.33.35.33.34.33.34.32.33.33.33.33.33.33.33.32.32.33.32.33.32.33.31.32.31.33.31.33.3.33.31.33.29.32.3.33.3.33.29.33.29.32.29.33.28.33.28.33.28.33.28.32.28.33.27.33-29.39.33.31.32.3.33.29.33.3.33.29.33.29.32.29.33.29.33.28.33.28.32 29.58.33.25.33.24.33.25.33.24.32-28.91.33.27.33.26.33.26.32.26.33.26.33.26.33.26.33.25.32.26.33.25.33.24.33.25.32.25.33.24.33.24.33.24.32.24.33.24.33.23.33.24.33.23.32.23.33.23.33.23.33.22.32.23.33.22.33.22.33.22.33.22.32.22.33.22.33.21.33.22.32.21.33.21.33.21.33.21.33.21.32.2.33.21.33.2.33.2.32.2.33.2.33.2.33.2.33.2.32.19.33.2.33.19.33.19.32.19.33.19.33.19.33.19.33.18.32.19.33.19.33.18.33.18.32.18.33.18.33.18.33.18.33.18.32.18.33.17.33.18.33.17.32.17.33.18.33.17.33.17.32.17.33.17.33.16.33.17.33.16.32.17.33.16.33.17.33.16.32.16.33.16.33.16.33-27 .33.17.32.18.33.17.33.18.33.17.32.17.33.17.33.17.33.17.33.17.32 27.15.33.14.33.15.33.15.32.15.33.15.33-26.73.33.16.33.16.32.17.33.16.33.15.33.16.32.16.33.16.33.16.33.15.33.16.32.15.33.15.33.16.33.15.32.15.33.15.33.15.33.15.33.15.32.15.33.15.33.15.33.14.32.15.33.14.33.15.33.14.32.15.33.14.33.14.33.14.33.14.32.15.33.13.33.14.33.14.32.14.33.14.33.13.33.14.33.14.32.13.33.14.33.13.33.14.32.13.33.13.33.13.33.14.33.13.32.13.33.13.33.13.33.13.32.13.33.13.33.12.33.13.33.13.32.12.33.13.33.12.33.13.32.12.33.13.33.12.33.12.33.13.32.12.33.12.33.12.33.12.32.12.33.12.33.12.33.12.32.12.33.12.33.11.33.12.33.12.32.11.33.12.33.12.33.11.32.11.33.12.33.11.33.12.33.11.32.11.33.11.33.12.33.11.32.11.33.11.33.11.33.11.33.11.32.11.33.11.33.11.33.1.32.11.33.11.33.11.33.11.33.1.32.11.33.1.33.11.33.1.32.11.33.1.33.11.33.1.33.1.32.11.33.1.33.1.33.1.32.1.33.1.33.11.33.1.33.1.32.1.33.1.33.1.33.1.32.09.33.1.33.1.33.1.32.1.33.09.33.1.33.1.33.09.32.1.33.1.33.09.33.09.32.1.33.09.33.1.33.09.33.1.32.09.33.09.33.09.33.1.32.09.33.09.33.09.33.1.33.09.32.09.33.09.33.09.33.09.32.09.33.09.33.09.33.09.33.09.32.08.33.09.33.09.33.09.32.09.33.08.33.09.33.09.33.08.32.09.33.09.33.08.33.09.32.08.33.09.33.08.33.09.33.08.32.09.33.08.33.08.33.09.32.08.33.08.33.09.33.08.32.08.33.08.33.08.33.09.33.08.32.08.33.08.33.08.33.08.32.08.33.08.33.08.33.08.33.08.32.08.33.08.33.08.33.08.32.07.33.08.33.08.33.08.33.08.32.07.33.08.33.08.33.08.32.07.33.08.33.07.33.08.33.08.32.07.33.08.33.07.33.08.32.07.33.08.33.07.33.08.33.07.32.07.33.08.33.07.33.08.32.07.33.07.33.07.33.08.32.07.33.07.33.07.33.08.33.07.32.07.33.07.33.07.33.07.32.07.33.07.33.07.33.07.33.07.32.08.33.07.33.07.33.06.32-24.08.33.08.33.07.33.08.33.08.32.07.33.08.33.07.33.08.32.07.33.08.33.07.33.07.33.08.32.07.33.08.33.07.33.07.32.08.33.07.33.07.33.07.33.08.32.07.33.07.33.07.33.08.32.07.33.07.33.07.33.07.33.07.32.07.33.07.33.08.33.07.32.07.33.06.33.07.33.08.32.07.33.06.33.07.33.07.33.07.32.07.33.07.33.07.33.07.32.06.33.07.33.07.33.07.33.07.32.06.33.07.33.07.33.06.32.07.33.07.33.06.33.07.33.07.32.06.33.07.33.06.33.07.32.07.33.06.33.07.33.06.33.07.32.06.33.07.33.06.33.07.32.06.33.07.33.06.33.06.33.07.32.06.33.06.33.07.33.06.32.07.33.06.33.06.33.07.33.06.32.06.33.06.33.06.33.07.32.06.33.06.33.06.33.06.32.07.33.06.33.06.33.06.33.06.32.06.33.06.33.06.33.06.32.07.33.06.33.05.33.07.33.06.32.05.33.06.33.06.33.06.32.06.33.06.33.06.33.06.33.06.32.06.33.06.33.06.33.06.32.05.33.06.33.06.33.06.33.06.32.05.33.06.33.06.33.06.32.05.33.06.33.06.33.06.33.05.32.06.33.05.33.06.33.06.32.05.33.06.33.06.33.05.32.06.33.06.33.05.33.06.33.05.32.06.33.05.33.06.33.05.32.06.33.05.33.06.33.05.33.06.32.05.33.06.33.05.33.06.32.05.33.05.33.06.33.05.33.06.32.05.33.05.33.06.33.05.32.05.33.06.33.05.33.05.33.06.32.05.33-23.07.33.06.33.06.32.06.33.05.33.06.33.06.33.05.32.06.33.06.33.05.33.06.32.06.33.05.33.06.33.05.33.06.32.06.33.05.33.06.33.05.32.06.33.05.33.06.33.05.32.06.33.05.33.06.33.05.33.06.32.05.33.06.33.05.33.06.32.05.33.05.33.06.33.05.33.06.32.05.33.05.33.06.33.05.32.05.33.06.33.05.33.05.33.06.32.05.33.05.33.05.33.06.32.05.33.05.33.05.33.06.33.05.32.05.33.05.33.05.33.06.32.05.33.05.33.05.33.05.33.05.32.06.33.05.33.05.33.05.32.05.33.05.33.05.33.05.33.05.32.05.33.06.33.05.33.05.32.05.33.05.33.05.33.05.32.05.33.05.33.05.33.05.33.05.32.05.33.05.33.04.33.06.32.04.33.05.33.05.33.05.33.05.32.05.33.05.33.05.33.05.32.04.33.05.33.05.33.05.33.05.32.05.33.04.33.05.33.05.32.05.33.05.33.04.33.05.33.05.32.05.33.05.33.04.33.05.32.05.33.04.33.05.33.05.33.05.32.04.33.05.33.05.33.04.32.05.33.04.33.05.33.05.32.05.33.04.33.05.33.04.33.05.32.05.33.04.33.05.33.04.32.05.33.05.33.04.33.05.33.04.32.05.33.04.33.05.33.04.32.05.33.04.33.05.33.04.33.05.32.04.33.05.33.04.33.05.32.04.33.04.33.05.33.05.33.04.32.04.33.05.33.04.33.05.32.04.33.04.33.05.33.04.33.05.32.04.33.04.33.04.33.05.32.04.33.04.33.05.33.04.33.04.32.05.33.04.33.04.33.05.32.04.33.04.33.05.33.04.32.04.33.04.33.05.33.04.33.04.32.04.33.04.33.05.33.04.32.04.33.04.33.05.33.04.33.04.32.04.33.04.33.04.33.05.32.04.33.04.33.04.33.04.33.04.32.05.33.03.33.05.33.04.32.04.33.04.33.04.33.04.33.04.32.04.33.04.33.04.33.05.32.04.33.04.33.04.33.04.33.04.32.04.33.04.33.04.33.04.32.04.33.04.33.04.33.04.33.04.32.04.33.04.33.04.33.04.32.04.33.04.33.04.33.04.32.04.33.03.33.04.33.04.33.04.32.04.33.04.33.04.33.04.32.04.33.04.33.03.33.04.33.04.32.04.33.04.33.04.33.04.32.03.33.04.33.04"/><use xlink:href="#i" color="#00C853" transform="matrix(4.5 0 0 4.5 193.18 112.39)"/><use xlink:href="#i" color="#00C853" transform="matrix(4.5 0 0 4.5 217.1 42.51)"/></g><path fill="none" stroke="none" stroke-linecap="round" stroke-linejoin="round" stroke-width="0" d="M33.56 72.01V182M358.04 72.01H33.56" color="#000"/><text fill="#000" stroke="none" stroke-linecap="round" stroke-linejoin="round" stroke-width="0" color="#000" font-family="Arial" font-size="8" text-anchor="middle" transform="translate(195.8 8.61)"><tspan>InsertPersistent - Normal</tspan></text></svg>