<svg xmlns="http://www.w3.org/2000/svg" xmlns:xlink="http://www.w3.org/1999/xlink" viewBox="0 0 400 250"><path fill="none" d="M0 0h400v250H0z"/><defs><path id="c" stroke="currentColor" stroke-width=".267" d="M-1-1h2v2h-2z"/><path id="b" stroke="currentColor" stroke-width=".267" d="m0-1.33-1.33 2h2.66z"/><use xlink:href="#a" id="d" fill="currentColor" stroke="none"/><use xlink:href="#b" id="e" fill="currentColor" stroke="none"/><circle id="a" cx="0" cy="0" r="1" stroke="currentColor" stroke-width=".267"/></defs><path fill="none" stroke="#333" stroke-linecap="round" stroke-linejoin="round" stroke-width=".1" d="M46.1 205V45.01" class="gridline" color="#000"/><g fill="none" stroke-linecap="round" stroke-linejoin="round" stroke-width="0" color="#000"><path d="M46.1 205v-7.5m0-152.49v7.5"/><text fill="#000" font-family="KaTeX_Main" font-size="10" text-anchor="middle" transform="translate(46.1 215.75)"><tspan> 1</tspan></text></g><path fill="none" stroke="#333" stroke-linecap="round" stroke-linejoin="round" stroke-width=".1" d="M82.31 205V45.01" class="gridline" color="#000"/><g fill="none" stroke-linecap="round" stroke-linejoin="round" stroke-width="0" color="#000"><path d="M82.31 205v-7.5m0-152.49v7.5"/><text fill="#000" font-family="KaTeX_Main" font-size="10" text-anchor="middle" transform="translate(82.31 215.75)"><tspan> 2</tspan></text></g><path fill="none" stroke="#333" stroke-linecap="round" stroke-linejoin="round" stroke-width=".1" d="M118.52 205V45.01" class="gridline" color="#000"/><g fill="none" stroke-linecap="round" stroke-linejoin="round" stroke-width="0" color="#000"><path d="M118.52 205v-7.5m0-152.49v7.5"/><text fill="#000" font-family="KaTeX_Main" font-size="10" text-anchor="middle" transform="translate(118.52 215.75)"><tspan> 3</tspan></text></g><path fill="none" stroke="#333" stroke-linecap="round" stroke-linejoin="round" stroke-width=".1" d="M154.73 205V45.01" class="gridline" color="#000"/><g fill="none" stroke-linecap="round" stroke-linejoin="round" stroke-width="0" color="#000"><path d="M154.73 205v-7.5m0-152.49v7.5"/><text fill="#000" font-family="KaTeX_Main" font-size="10" text-anchor="middle" transform="translate(154.73 215.75)"><tspan> 4</tspan></text></g><path fill="none" stroke="#333" stroke-linecap="round" stroke-linejoin="round" stroke-width=".1" d="M190.94 205V45.01" class="gridline" color="#000"/><g fill="none" stroke-linecap="round" stroke-linejoin="round" stroke-width="0" color="#000"><path d="M190.94 205v-7.5m0-152.49v7.5"/><text fill="#000" font-family="KaTeX_Main" font-size="10" text-anchor="middle" transform="translate(190.94 215.75)"><tspan> 5</tspan></text></g><path fill="none" stroke="#333" stroke-linecap="round" stroke-linejoin="round" stroke-width=".1" d="M227.15 205V45.01" class="gridline" color="#000"/><g fill="none" stroke-linecap="round" stroke-linejoin="round" stroke-width="0" color="#000"><path d="M227.15 205v-7.5m0-152.49v7.5"/><text fill="#000" font-family="KaTeX_Main" font-size="10" text-anchor="middle" transform="translate(227.15 215.75)"><tspan> 6</tspan></text></g><path fill="none" stroke="#333" stroke-linecap="round" stroke-linejoin="round" stroke-width=".1" d="M263.36 205V45.01" class="gridline" color="#000"/><g fill="none" stroke-linecap="round" stroke-linejoin="round" stroke-width="0" color="#000"><path d="M263.36 205v-7.5m0-152.49v7.5"/><text fill="#000" font-family="KaTeX_Main" font-size="10" text-anchor="middle" transform="translate(263.36 215.75)"><tspan> 7</tspan></text></g><path fill="none" stroke="#333" stroke-linecap="round" stroke-linejoin="round" stroke-width=".1" d="M299.57 205V45.01" class="gridline" color="#000"/><g fill="none" stroke-linecap="round" stroke-linejoin="round" stroke-width="0" color="#000"><path d="M299.57 205v-7.5m0-152.49v7.5"/><text fill="#000" font-family="KaTeX_Main" font-size="10" text-anchor="middle" transform="translate(299.57 215.75)"><tspan> 8</tspan></text></g><path fill="none" stroke="#333" stroke-linecap="round" stroke-linejoin="round" stroke-width=".1" d="M335.78 205V45.01" class="gridline" color="#000"/><g fill="none" stroke-linecap="round" stroke-linejoin="round" stroke-width="0" color="#000"><path d="M335.78 205v-7.5m0-152.49v7.5"/><text fill="#000" font-family="KaTeX_Main" font-size="10" text-anchor="middle" transform="translate(335.78 215.75)"><tspan> 9</tspan></text></g><path fill="none" stroke="#333" stroke-linecap="round" stroke-linejoin="round" stroke-width=".1" d="M371.99 205V45.01" class="gridline" color="#000"/><g fill="none" stroke-linecap="round" stroke-linejoin="round" stroke-width="0" color="#000"><path d="M371.99 205v-7.5m0-152.49v7.5"/><text fill="#000" font-family="KaTeX_Main" font-size="10" text-anchor="middle" transform="translate(371.99 215.75)"><tspan> 10</tspan></text></g><g fill="none" stroke-linecap="round" stroke-linejoin="round" stroke-width="0" color="#000"><path d="M371.99 205h-7.5"/><text fill="#000" font-family="KaTeX_Main" font-size="10" transform="translate(378.99 208.25)"><tspan>0.89</tspan></text></g><g fill="none" stroke-linecap="round" stroke-linejoin="round" stroke-width="0" color="#000"><path d="M371.99 189h-7.5"/><text fill="#000" font-family="KaTeX_Main" font-size="10" transform="translate(378.99 192.25)"><tspan>0.89</tspan></text></g><g fill="none" stroke-linecap="round" stroke-linejoin="round" stroke-width="0" color="#000"><path d="M371.99 173h-7.5"/><text fill="#000" font-family="KaTeX_Main" font-size="10" transform="translate(378.99 176.25)"><tspan>0.90</tspan></text></g><g fill="none" stroke-linecap="round" stroke-linejoin="round" stroke-width="0" color="#000"><path d="M371.99 157h-7.5"/><text fill="#000" font-family="KaTeX_Main" font-size="10" transform="translate(378.99 160.25)"><tspan>0.90</tspan></text></g><g fill="none" stroke-linecap="round" stroke-linejoin="round" stroke-width="0" color="#000"><path d="M371.99 141h-7.5"/><text fill="#000" font-family="KaTeX_Main" font-size="10" transform="translate(378.99 144.25)"><tspan>0.91</tspan></text></g><g fill="none" stroke-linecap="round" stroke-linejoin="round" stroke-width="0" color="#000"><path d="M371.99 125h-7.5"/><text fill="#000" font-family="KaTeX_Main" font-size="10" transform="translate(378.99 128.25)"><tspan>0.91</tspan></text></g><g fill="none" stroke-linecap="round" stroke-linejoin="round" stroke-width="0" color="#000"><path d="M371.99 109.01h-7.5"/><text fill="#000" font-family="KaTeX_Main" font-size="10" transform="translate(378.99 112.26)"><tspan>0.92</tspan></text></g><g fill="none" stroke-linecap="round" stroke-linejoin="round" stroke-width="0" color="#000"><path d="M371.99 93.01h-7.5"/><text fill="#000" font-family="KaTeX_Main" font-size="10" transform="translate(378.99 96.26)"><tspan>0.92</tspan></text></g><g fill="none" stroke-linecap="round" stroke-linejoin="round" stroke-width="0" color="#000"><path d="M371.99 77.01h-7.5"/><text fill="#000" font-family="KaTeX_Main" font-size="10" transform="translate(378.99 80.26)"><tspan>0.93</tspan></text></g><g fill="none" stroke-linecap="round" stroke-linejoin="round" stroke-width="0" color="#000"><path d="M371.99 61.01h-7.5"/><text fill="#000" font-family="KaTeX_Main" font-size="10" transform="translate(378.99 64.26)"><tspan>0.93</tspan></text></g><g fill="none" stroke-linecap="round" stroke-linejoin="round" stroke-width="0" color="#000"><path d="M371.99 45.01h-7.5"/><text fill="#000" font-family="KaTeX_Main" font-size="10" transform="translate(378.99 48.26)"><tspan>0.94</tspan></text></g><path fill="none" d="M28 45.01V205M371.99 45.01H28" color="#000"/><text stroke-linecap="round" stroke-linejoin="round" stroke-width="0" color="#000" font-family="KaTeX_Main" font-size="10" text-anchor="middle" transform="rotate(-90 68.255 56.755)"><tspan font-weight="bold">AveragePathLength </tspan><tspan> / log</tspan><tspan dy="3" font-size="8">2</tspan><tspan dy="-3">(Size)</tspan></text><text stroke-linecap="round" stroke-linejoin="round" stroke-width="0" color="#000" font-family="KaTeX_Main" font-size="10" text-anchor="middle" transform="translate(199.99 238.25)"><tspan>Operations × 10</tspan><tspan dy="-5" font-size="8">5</tspan></text><text stroke-linecap="round" stroke-linejoin="round" color="#000" font-family="KaTeX_Main" font-size="8" transform="translate(132.8 10.11)"><tspan>LBSTBottomUp</tspan></text><g fill="none" stroke="currentColor" stroke-linecap="round" stroke-linejoin="round" color="#000"><path stroke="#3B75EA" d="M97.3 7.51h29.9M28 177.19l.36-7.63.36-.51.37-6.48.36-8.39.36 5.02.36 9.16.36-3.74.37-4.54.36-4.37.36-.2.36-4.96.37-5.15.36-5.97.36 4.61.36 9.1.36-3.36.37-2.19.36-4.24.36-3.9.36 7.19.36 7.11.37-1.6.36-3 .36-1.7.36-3.55.36-3.33.37-3.17.36 4.26.36-3.21.36-3.91.36-2.98.37-4.42.36-4.72.36 38.04.36 15.86.37-1.37.36-1.27.36-1.59.36-2.42.36-2.7.37-2.43.36 4.23.36-2.39.36-3.08.36-1.93.37 7.78.36-2.27.36-1.83.36 3.67.36 8.83.37.88.36-.37.36-1.43.36-1.47.37-.68.36-1.19.36-2.34.36 1.09.36-.46.37-.81.36-1 .36-1.71.36-3.18.36-3.18.37-4.59.36 14.97.36.12.36-2.67.36-3.34.37 6.42.36-2.36.36 1.86.36.84.37-2.1.36-3.16.36-1.82.36-4.21.36-.46.37-3.08.36-3.17.36-5.81.36-5.12.36 6.11.37-6.32.36 8.62.36 1.42.36-1.29.36-2.07.37-2.22.36-2.57.36-6.64.36 2.16.36 26.75.37.2.36-2.03.36-3.97.36 18.11.37-1.2.36 7.66.36 3.63.36-1.99.36-3.9.37-3.95.36-3.94.36-4.93.36-5.94.36-7.34.37-7.69.36 8.45.36-4.05.36-5.73.36-5.4.37-7.32.36-7.1.36-8.11.36 16.69.37 2.67.36-4.78.36-4.41.36-5.58.36-6.47.37-5.43.36-7.26.36 4.76.36-3.81.36-5.06.37-4.83.36-5.89.36 27.86.36-4.29.36 4.29.37-3 .36-3.52.36-4.4.36-4.61.36 63.62.37 4.13.36-2.85.36-2.5.36-3.28.37-4.11.36-4.54.36-3.47.36 15.93.36-2.57.37-2.41.36-2.99.36-3.56.36-4.09.36-2.89.37 4.7.36 4.75.36 3.97.36 2.93.36 2.33.37 1.39.36.76.36.35.36 2.01.37 1.16.36-.44.36 1.52.36 1.31.36 1.98.37 1.91.36 1.39.36-.38.36-.31.36-.68.37.46.36-2.02.36-3.1.36 9.35.36-1.45.37 2.32.36-.05.36-.34.36-2.23.36-1.87.37-2.87.36-5 .36 2.73.36 4.99.37-1.21.36.96.36-2.66.36-2.12.36 3.54.37-.81.36 2.89.36 2.63.36-1.15.36-2.36.37-2.04.36-4.11.36-1.46.36 12.85.36-.35.37.6.36 2.4.36-2.11.36-1.95.37-.54.36-3.73.36-.39.36-2.87.36-2.25.37-3.66.36-4.6.36-3.97.36 12.42.36-3.02.37-5.49.36-4.76.36-4.91.36-3.48.36 5.56.37-4.59.36-4.39.36-5.26.36-4.56.37-6.1.36-5.59.36 20.05.36-3.67.36-3.44.37-4.17.36-3.6.36-4.73.36-5.26.36-4.8.37 2.11.36-4.7.36-4.66.36-4.97.36-5.7.37 70.25.36-2.51.36 14.6.36-1.32.36-1.24.37-1.51.36-2.29.36-2.6.36-2.23.37 3.66.36-2.38.36-1.93.36-2.6.36-3.29.37 4.12.36 3.42.36 2.39.36 2.15.36.45.37.88.36 1.63.36.94.36.3.36-1.07.37-.54.36-2.48.36.56.36.29.37-2.79.36 3.93.36-.21.36.21.36.2.37-.73.36-2.65.36-2.41.36-2.35.36-5.44.37 13.45.36 1.25.36-1.02.36-2.12.36-2.25.37 2.67.36-2.22.36 2.62.36 2.48.36-1.32.37-2.4.36-3.04.36-2.28.36-4.4.37-2.8.36-3.55.36.28.36 14.27.36 4.22.37 2.21.36 3.28.36-.57.36-1.52.36-1.45.37-1.94.36-4.81.36 2.22.36 1.89.36-.17.37-.66.36 5.13.36.6.36-1.41.37-1.46.36-2.58.36-4.2.36-4.55.36.17.37 6.6.36-2.77.36-3.76.36-2.45.36-4.32.37-4.28.36 2.8.36 6.79.36-2.12.36-3.47.37-1.78.36-3.84.36-3.54.36-3.32.36 4.3.37-3.16.36-4 .36-3.69.36-4.48.37-4.81.36-4.61.36 14.72.36-2.99.36-3.46.37-2.57.36-3.75.36 39.02.36-2.52.36 3.62.37-2.72.36-2.92.36-2.18.36 5.87.36-2.38.37-2.06.36 13.37.36-.86.36-1.34.37 1.65.36.02.36-.18.36-1.54.36-1.82.37-.7.36-1.13.36-3.13.36 2.64.36-1.76.37.45.36-.79.36-2.58.36-3.69.36-1.91.37 12.33.36.65.36.97.36-3.01.37-3.56.36 7.34.36-2.9.36 1.93.36 1.19.37-1.85.36-3.04.36-2 .36-4.07.36-.44.37-2.89.36-3.27.36-5.39.36-5.48.36 10.88.37-6.15.36 2.04.36 19.98.36-.37.36-3.36.37-.53.36 3.73.36-1.25.36-4.25.37-2.19.36 11.59.36-.12.36-.71.36-3.83.37 12.65.36.08.36-1.14.36-2.04.36-3.51.37-.2.36-4.44.36-4.16.36-3.84.36 1.61.37-1.65.36-2.11.36-1.63.36 1.37.37-4.32.36-2.93.36-5.09.36-4.76.36-4.57.37 4.87.36 14.83.36-3.23.36-2.61.36-3.61.37-4.64.36 18.95.36-1.7.36-1.88.36-2.22.37-2.02.36-3.06.36-3.81.36-3.1.36 4.46.37-3.1.36-3.09.36-3.59.36-4.13.37-4.64.36-3.92.36 14.34.36-2.71.36 23.58.37-1.39.36-2.2.36-2.62.36-1.7.36 3.73.37-2.18.36-1.94.36-2.49.36-3.2.36 4.11.37 3.05.36 2.33.36 2.08.36.6.37.75.36 1.53.36.67.36.17.36-1.48.37-.42.36-.47.36-.23.36-.92.36-3.05.37 2.52.36-.51.36-3.29.36 1.33.36.9.37-3.12.36-3.84.36-1.23.36-5.58.37-.82.36-2.48.36-4.51.36-5.88.36.38.37 24.21.36 1.69.36.16.36.06.36-2.38.37-2.45.36-2.67.36-6.35.36 32.61.36.59.37-1.47.36-.79.36.81.36-1.13.36 1.29.37-.21.36-.03.36 12.45.36 1.67.37-.27.36-.53.36.69.36.51.36-1.33.37-1.36.36-3.99.36-3.71.36 2.26.36-3.17.37-3.58.36.93.36-1.71.36-2.85.36-4.32.37-2.65.36-4.87.36-4.81.36-5.73.37 5.26.36-4.31.36-4.98.36-4.21.36-5.57.37 23.05.36-4.49.36 4.99.36-4.27.36-3.62.37-3.12.36-4.3.36-5.05.36-5.03.36 13.82.37-2.96.36-3.49.36-2.9.36-3.88.36-4.42.37-4.11.36 2.49.36-3.92.36-4.21.37-3.95.36 18.47.36 27.48.36-2.01.36-2.48.37 14.42.36-1.03.36-.64.36-1.54.36 1.62.37 1.61.36.2.36-.15.36-1.34.36-1.79.37-.35.36-1.3.36-2.44.36 2.6.37-1.17.36-.43.36-.72.36-1.54.36-2.83.37-3.62.36-3.76.36 1.71.36-.1.36-1.82.37-2.81.36 4.21.36-.76.36.83.36.03.37-.41.36-2.64.36-4.24.36-1.59.36-5.04.37-.91.36 31.79.36-.76.36-1.91.37-2.23.36 2.31.36-2.24.36.23.36-1.42.37 15.5.36-.09.36 2.74.36-1.76.36-3.36.37 5.02.36-.97.36 2.56.36 2.6.36-1.68.37-2.6.36 1.17.36-.92.36 4.06.37-1.51.36-1.6.36-1.48.36.04.36-3.07.37-4.36.36-3.7.36 4.14.36-3.31.36-2.84.37-1.18.36-3.18.36-4.94.36 8.53.36 6.07.37-2.1.36-1.94.36-3.79.36-1.86.37-4.28.36-3.88.36-3.5.36 4.07.36-3.48.37-4.24.36 6.92.36-2.86.36-3.26.36-2.94.37 15.95.36-1.5.36-1.35.36-1.8.36-2.68.37-3.06.36-2.3.36 3.91.36-2.7.36-2.38.37-3.04.36-3.84.36-4.1.36 6.65.37 14.3.36-.83.36-.36.36-1.19.36 1.55.37 1.32.36-.09.36-.51.36-1.8.36-1.96.37-.62.36-1.22.36-3.15.36 2.68.36-2.11.37.11.36-.97.36-2.63.36-4.19.37-2.21.36-3.54.36-2.52.36-3.34.36-5.62.37-.04.36-2.09.36 31.79.36 1.51.36 1.54.37-2.53.36-3.05.36-1.87.36-4.46.36-.43.37 23.23.36.13.36-2.21.36-4.24.36 8.94.37-1.75.36 7.37.36 1.51.36.91.37.09.36.11.36-3.01.36.17.36-6.27.37 4.8.36.41.36 2.66.36-1.61.36-1.77.37-1.66.36 1.8.36 1.78.36-3.13.36-3.53.37 1.5.36-2.98.36-3.55.36 2.67.37-1.63.36-3.59.36-3.3.36-4.71.36-6.03.37 5.92.36.6.36 8.19.36-2.19.36-1.26.37-2.12.36-4.3.36-3.7.36-4.77.36 4.69.37-3.65.36 18.95.36-1.64.36-3.66.36-3.09.37-3.36.36 17.57.36-1.59.36-2.37.37-1.3.36-2.72.36-3.09.36-2.65.36 3.74.37-2.88.36-2.53.36-3.16.36-3.8.36-4.27.37-3.53.36 12.61.36-2.51.36-2.27.36-2.59.37-3.56.36-3.77.36-2.99.36 4.23.37 4.53.36 3.51.36 2.83.36 2.35.36.93.37.58.36 1.37.36 1.02.36.85.36-1.18.37 5.07.36.76.36 2.94.36 1.68.36.55.37-.33.36-.28.36-1.8.36 1.45.37-.69.36-1.24.36-2.44.36 3.92.36-.52.37 2.02.36-.07.36-.41.36-2.8.36-2.35.37-2.2.36-5.81.36 6.64.36 1.74.36-.93.37-2.36.36 12.74.36.11.36.37.36-.63.37-.81.36 6.14.36 1.53.36-3.16.37.45.36.03.36-5.62.36 1.1.36.44.37-2.67.36 2.18.36-.06.36-.09.36 3.86.37.59.36-.75.36 2.04.36 1.39.36.41.37.62.36-1.18.36-1.12.36-.68.37-2.32.36-2.69.36-3.58.36 4.3.36-2.12.37-3.46.36-2.03.36-3.99.36-4.13.36-4.45.37 4.96.36-3.25.36-4.63.36-3.31.36-4.51.37-5.15.36-4.86.36 40.89.36-1.57.36-2.19.37-1.28.36-2.55.36-2.78.36-2.76.37 3.81.36-2.71.36-3.33.36-2.35.36-3.63.37-3.84.36-3.82.36 5.54.36 4.01.36-2.81.37-1.92.36-3.4.36-3.46.36 4.81.36 2.66.37 3.46.36 2.18.36 1.43.36.52.37.12.36 1.85.36 1.04.36-.59.36 4.85.37.89.36 2.49.36 1.28.36 1.02.36-.77.37-.2.36-1.55.36 1.17.36-.6.36-1.1.37-2.42.36 7.45.36-.3.36.75.36.22.37-.08.36-2.51.36-4.16.36-.86.37-5.26.36 2.94.36 12.96.36-1.24.36 1.15.37-2.26.36-2.46.36 1.39.36-1.11.36.57.37-.46.36-2.09.36-4.03.36-3.77.36-4.12.37-4.05.36 20.48.36-1.24.36 4.81.37 4.87.36-2.08.36-1.24.36-4.13.36-1.62.37-1.31.36-3.36.36-.98.36-4.48.36-4.02.37-5.88.36-5.73.36 16.81.36-4.02.36-2.5.37-1.17.36-3.34.36-4.23.36-5.38.37 2.99.36-5.23.36-5.34.36 19.21.36-2.28.37-3.39.36-4.57.36 19.14.36-1.83.36-1.53.37-1.53.36-2.16.36-3 .36-3.52.36-2.97.37 4.6.36-3.07.36-2.72.36-3.34.36-4.21.37-4.65.36-3.64.36 13.6.36-2.61.37-2.37.36-3.01.36 18.07.36-2.55.36-1.61.37 3.88.36-2.17.36-1.77"/><use xlink:href="#a" color="#3B75EA" transform="matrix(3.75 0 0 3.75 354.25 185.31)"/><use xlink:href="#a" color="#3B75EA" transform="matrix(3.75 0 0 3.75 112.25 7.51)"/></g><text stroke-linecap="round" stroke-linejoin="round" color="#000" font-family="KaTeX_Main" font-size="8" transform="translate(132.8 25.11)"><tspan>LBSTTopDown</tspan></text><g fill="none" stroke="currentColor" stroke-linecap="round" stroke-linejoin="round" color="#000"><path stroke="#F44336" stroke-dasharray="4.5,2.0,0.5,2.0,0.5,2.0" d="M97.3 22.51h29.9M28 154.86l.36-7.73.36.08.37-5.87.36-8.35.36 4.87.36 8.83.36-3.87.37-4.16.36-3.94.36-.19.36-5.24.37-5.54.36-6.03.36 4.77.36 9.5.36-3.52.37-2.31.36-4.48.36-3.72.36 7.67.36 6.96.37-1.39.36-3.04.36-1.9.36-3.53.36-3.02.37-3.18.36 3.93.36-3.05.36-4.44.36-2.34.37-4.09.36-5.4.36 38.26.36 15.48.37-1.12.36-1.22.36-1.46.36-1.93.36-3.13.37-2.24.36 3.84.36-2.12.36-3.28.36-1.51.37 7.44.36-2.29.36-1.52.36 3.56.36 9.04.37 1.45.36-.46.36-1.46.36-1.51.37-.75.36-1.23.36-2.44.36 1.14.36-.48.37-.85.36-1.02.36-1.77.36-3.23.36-3.22.37-4.6.36 14.79.36.27.36-2.68.36-3.34.37 6.3.36-2.4.36 1.8.36.83.37-2.14.36-3.12.36-2.06.36-4.27.36-.49.37-3.22.36-3.14.36-5.81.36-5.06.36 5.96.37-6.2.36 8.61.36 1.33.36-1.26.36-2.11.37-2.16.36-2.53.36-6.74.36 1.87.36 26.83.37.21.36-2.07.36-4.06.36 17.88.37-1.08.36 7.66.36 3.67.36-2.29.36-4.22.37-4.16.36-3.61.36-5.06.36-6.34.36-6.32.37-8.25.36 5.35.36-5.06.36-4.07.36-7.23.37-9.03.36-8.6.36 6.6.36 14.43.37-4.32.36-6.22.36-2.32.36-6.42.36-5.09.37-5.62.36-1.39.36-2.52.36-4.58.36-3.73.37-4.95.36-5.97.36 36.71.36-3.13.36-2.81.37-3.41.36-2.64.36-3.77.36-4.91.36 63.59.37 3.78.36-2.64.36-2.55.36-2.77.37-3.86.36-4.79.36-3.42.36 15.41.36-2.34.37-2.82.36-2.7.36-3.27.36-4.41.36-2.4.37 4.85.36 4.6.36 3.95.36 2.64.36 2.36.37.91.36.77.36.07.36 2.07.37 1.36.36-.86.36 1.91.36.97.36 2.4.37 1.6.36.9.36-.31.36-.97.36-.68.37.76.36-2.96.36-3.23.36 11.54.36-2.43.37 1.91.36-2.33.36-2.2.36 6.46.36-3.09.37-2.68.36-.55.36-4.59.36 3.83.37.51.36.43.36-1.8.36-4.13.36 4.31.37.11.36 2.23.36 3.25.36-1.39.36-2.38.37-2.11.36-4.33.36-1.35.36 12.6.36-.4.37.59.36 2.4.36-2.19.36-1.94.37-.41.36-3.48.36-.62.36-3.15.36-1.96.37-3.33.36-4.63.36-3.75.36 12.31.36-3.16.37-5.34.36-4.06.36-5.22.36-5.66.36 7.62.37-4.69.36-4.54.36-4.96.36-4.43.37-6.31.36-5.1.36 19.8.36-3.54.36-3.49.37-4.06.36-3.96.36-4.83.36-4.67.36-4.68.37 1.46.36-4.21.36-4.72.36-4.65.36-5.95.37 70.37.36-2.29.36 14.02.36-.98.36-1.59.37-.87.36-2.5.36-2.3.36-2.05.37 3.23.36-2.03.36-3.12.36-1.46.36-3.13.37 4.41.36 3.35.36 2.39.36 2.08.36.35.37.82.36 1.52.36.95.36.17.36-1.1.37-.43.36-.86.36-.4.36-.52.37-2.94.36 4.11.36-.49.36.65.36-.18.37-.88.36-2.83.36-2.34.36-2.58.36-5.6.37 13.79.36 1.94.36-1.59.36-2.38.36-2.39.37 2.74.36-2.49.36 3.06.36 2.81.36-1.75.37-2.69.36-1.73.36-3.23.36-4.26.37-3.05.36-3.61.36.52.36 14.17.36 4.16.37 1.72.36 3.35.36-.28.36-1.7.36-1.63.37-1.95.36-5.03.36 2.17.36.77.36.16.37-.56.36 5.23.36.29.36-1.53.37-1.45.36-2.15.36-4.13.36-5.09.36.27.37 6.93.36-2.24.36-3.66.36-2.69.36-4.68.37-4.19.36 3.63.36 6.9.36-2.12.36-3.79.37-1.75.36-4.26.36-3.17.36-3.29.36 4.39.37-3.21.36-4.63.36-3.21.36-4.44.37-4.52.36-5.04.36 15.12.36-2.96.36-3.87.37-2.32.36-4.03.36 39.42.36-2.32.36 2.95.37-2.39.36-3.39.36-1.55.36 5.7.36-2.24.37-1.98.36 13.01.36-.19.36-1.81.37 2.69.36-.11.36-.13.36-1.66.36-1.83.37-.84.36-1.14.36-3.03.36 2.57.36-1.68.37.42.36-.8.36-2.46.36-3.62.36-2.1.37-5.06.36 17.92.36.75.36-2.79.37-3.46.36 7.01.36-2.71.36 1.79.36 1.17.37-1.93.36-2.85.36-2.25.36-4.38.36-.23.37-2.66.36-3.27.36-6.07.36-5.04.36 11.1.37-5.95.36 1.53.36 19.95.36-.34.36-3.03.37-.89.36 3.96.36-1.41.36-4.03.37-2.44.36 11.84.36-.16.36-.72.36-3.96.37 12.55.36.02.36-1.24.36-3.4.36-1.99.37-.1.36-4.71.36-3.78.36-5.32.36-.45.37 2.2.36-3.24.36-3.31.36 4.57.37-1.15.36-2.96.36-4.07.36-3.05.36-5.09.37-3.77.36 23.49.36-1.97.36-2.29.36-2.8.37-1.8.36-3.43.36-4.17.36 13.43.36-1.66.37-1.53.36-1.97.36-2.07.36-2.72.36-3.79.37-2.84.36 4.11.36-2.35.36-3.36.37-2.99.36-4.04.36-4.86.36-3.32.36 39.18.37-.62.36-.28.36-2.2.36-1.88.36-2.7.37-1.13.36 3.37.36-1.86.36-2.34.36 3.86.37 1.79.36 2.02.36.01.36.33.37 1.24.36.83.36-.85.36-.95.36-2.04.37.64.36-.74.36-2.1.36-3.64.36 5.1.37-2.5.36.7.36.15.36-2.24.36-3.22.37-2.42.36-4.56.36-1.43.36-2.51.37-4.42.36-5.54.36 5.6.36-3.66.36-2.11.37 25.02.36-.16.36-3.58.36-3.04.36-1.42.37-4.95.36 2.85.36-5.53.36 31.01.36 1.78.37-1.65.36-.49.36.3.36-1.04.36 1.14.37-.4.36-.01.36 12.44.36 1.53.37-.24.36-.74.36.08.36-.25.36-1.81.37-1.8.36-.83.36-3.31.36-.36.36-3.91.37-3.62.36-1.73.36-4.57.36-.1.36-5.43.37-4.86.36-6.15.36 6.53.36-4.53.37-5.65.36-4.58.36-5.75.36-5.74.36-6.91.37 46.05.36-2.68.36-1.67.36-2.01.36-3.38.37-3.32.36-3.94.36 4.62.36-2.81.36-4.14.37-3.01.36-4.32.36-4.33.36-4.69.36 13.59.37-2.52.36-3.87.36-1.88.36-3.63.37-3.75.36-3.23.36 33.07.36-2.2.36-2.81.37-1.61.36-3.46.36 10.46.36-2.31.36 3.69.37 2.11.36 1.97.36.25.36.31.36-1.42.37-1.21.36-.97.36-1.1.36-1.42.37-3.27.36-3.68.36-3.85.36 12.66.36-.55.37-2.08.36-3.49.36 5.3.36-2.18.36 1.49.37.22.36-1.39.36-3.03.36-3.29.36-3.46.37-.81.36-2.81.36-3.41.36-5.92.36-7.52.37 7.26.36 27.83.36 2.67.36 1.32.37-1.22.36-2.04.36-2.62.36-2.64.36 3.69.37 14.93.36.64.36 2.65.36-1.69.36-3.35.37 4.71.36-1.29.36 2.46.36 2.7.36-1.53.37-3.27.36 2.34.36 1.04.36 1.21.37-1.61.36-1.37.36-.97.36-.48.36-2.77.37-4.67.36-3.77.36 4.34.36-2.75.36-2.37.37-1.57.36-3.49.36-4.73.36 8.99.36 5.95.37-1.99.36-2.01.36-3.84.36-1.86.37-4.17.36-3.51.36-3.58.36 4.14.36-3.5.37-4.58.36 7.24.36-2.94.36-2.66.36-2.99.37 15.41.36-1.36.36-1.64.36-1.31.36-2.59.37-3.4.36-1.75.36 3.57.36-2.52.36-1.82.37-3.75.36-3.61.36-3.99.36 6.81.37 14.48.36-1.46h.36l.36-1.65.36 2.47.37 1.23.36-.22.36-.54.36-1.91.36-1.93.37-.61.36-1.35.36-3.29.36 2.76.36-2.22.37.09.36-1.04.36-2.74.36-4.31.37-2.16.36-3.04.36-2.99.36-3.42.36-5.65.37 1.39.36-3.48.36 31.74.36 1.48.36 1.72.37-2.68.36-3.08.36-2.05.36-4.74.36-.22.37 23.15.36.1.36-2.57.36-3.61.36 8.9.37-2.1.36 6.92.36 1.86.36 1.52.37-1.13.36.9.36-3.38.36.19.36-5.86.37 3.53.36.78.36 2.67.36-1.71.36-1.77.37-1.58.36 1.46.36 1.15.36-2.35.36-5.27.37 2.37.36-4.05.36-3.45.36 4.15.37-2.28.36-3.01.36-4.96.36-5.07.36 11.62.37-3.69.36-2.57.36-1.1.36 7.57.36-1.74.37-3.23.36-3.99.36-5.1.36-3.49.36-3.06.37 5.38.36 22.07.36-1.9.36-1.87.36-2.54.37-1.16.36-3.43.36 7.06.36-1.63.37 2.09.36-1.36.36-1.44.36-1.55.36-2.35.37-3.9.36-1.95.36 3.21.36-1.99.36-2.2.37-3.59.36-3.48.36-4.47.36-2.63.36 9 .37-2.07.36-1.85.36-3.21.36 3.96.37 2.96.36 1.67.36 1.16.36.23.36 1.08.37.43.36.5.36-1.49.36 8.74.36-.24.37 2.55.36 2.1.36-.66.36-1.5.36.59.37-3.28.36 4.98.36.78.36-2.89.37 1.23.36-2.9.36 6.99.36-.71.36 1.63.37-.09.36-.54.36-2.63.36-2.34.36-2.68.37-6.26.36 3.04.36 5.29.36-1.01.36.68.37-2.65.36 11.58.36.55.36.77.36-.74.37-.6.36 5.99.36 1.42.36-3.19.37.59.36-.2.36-5.56.36 1.19.36-.1.37-2.25.36.59.36 1.26.36-.9.36 3.21.37 1.72.36-.42.36 3.55.36-.16.36.72.37-.87.36-1.24.36-2.31.36-3.53.37-2.86.36-1.61.36 8.1.36-2.25.36-3.77.37-2.36.36-4.33.36-3.8.36-4.5.36 5.15.37-3.42.36-5 .36-3.59.36-5.23.36-4.56.37-4.48.36 14.58.36 25.81.36-2.8.36-1.12.37-2.76.36-2.83.36-3.05.36 4.43.37-2.64.36-3.88.36-1.87.36-3.98.36-3.61.37-3.34.36 11.6.36-2.13.36-3.39.36-1.79.37-2.93.36-4.45.36-2.7.36 4.7.36 4.3.37 3.89.36 2.39.36 2.33.36.91.37.57.36-.25.36 2.33.36 1.45.36-.95.37 5.21.36.87.36 2.47.36 1.53.36.64.37-.46.36-.25.36-1.51.36 1.01.36.12.37-1.45.36-2.55.36 5.05.36-.71.36.98.37.35.36.16.36-3.23.36-3.31.37-.65.36-5.18.36.1.36 14.89.36-.85.37-1.7.36-2.88.36 2.36.36-1.72.36.96.37-.33.36-2.12.36-4.32.36-3.86.36-3.71.37-4.23.36 20.17.36.09.36 4.61.37 3.58.36-2.22.36-2.97.36-3.87.36.28.37-2.63.36-4.05.36 1.42.36-2.75.36-4.55.37-4.79.36.08.36 2.99.36-3.01.36-3.18.37 7.16.36-2.48.36-2.61.36-3.23.37-2.97.36-4.05.36-3.97.36 18.91.36-1.78.37-2.02.36-2.18.36-1.87.36-2.88.36-4.3.37 8.63.36 5.82.36-1.26.36-1.57.36-1.84.37-2.62.36-3.87.36-2.02.36 4.4.36-2.53.37-2.13.36-4.12.36-3.21.36-4.86.37-2.67.36 12.48.36 15.01.36-.3.36-1.93.37-1.43.36-2.55.36-1.15"/><use xlink:href="#d" color="#F44336" transform="matrix(3.75 0 0 3.75 67.83 128.62)"/><use xlink:href="#d" color="#F44336" transform="matrix(3.75 0 0 3.75 112.25 22.51)"/></g><text stroke-linecap="round" stroke-linejoin="round" color="#000" font-family="KaTeX_Main" font-size="8" transform="translate(241.1 10.11)"><tspan>WBSTBottomUp</tspan></text><g fill="none" stroke="currentColor" stroke-linecap="round" stroke-linejoin="round" color="#000"><path stroke="#000" d="M205.6 7.51h29.9M28 140.98l.36.74.36-5.35.37-7.49.36-7.35.36-5.22.36-7.36.36 4.25.37-6.37.36-2.42.36-8.07.36 20.86.37-3.16.36-5.33.36 45.15.36-7.13.36-1.42.37 8.52.36-5.27.36-2.77.36-5.08.36 3.5.37-1.69.36-5.08.36 14.5.36-5 .36-1.12.37-5.08.36 3.32.36-5.35.36-.22.36-4.68.37-3.41.36-4.83.36.86.36-4.97.37-2.02.36-5.47.36 10.33.36-2.71.36-4.07.37.78.36-3.77.36-1.64.36-4.82.36 28.84.37-2.33.36-3.75.36-3.7.36 2.77.36-3.13.37 4.47.36 3.18.36 1.97.36 2.51.37 3.04.36 2.41.36 1.95.36.19.36 1.69.37 1.2.36 1.27.36.23.36-.76.36-.76.37-2.42.36.73.36.27.36-3.14.36 2.97.37.53.36.12.36-1.02.36 1.08.37-2.63.36-3.25.36-1.98.36 12.71.36 2.46.37.07.36.01.36-2.36.36 6.84.36.48.37 4.05.36-.75.36 2.89.36-.83.36-1.83.37-.82.36.06.36-4.12.36 1.56.36-1.51.37-1.76.36-6.41.36 5.84.36.59.37-3.48.36 1.73.36-.6.36.99.36-.22.37-.8.36-3.32.36-4.11.36 5.9.36-1.65.37-4.37.36 1.94.36-4.59.36 9.69.36 2.76.37-3.35.36-2.58.36-5.33.36 1.44.37-4.2.36-5.97.36-.86.36-6.67.36 3.86.37 16.41.36 1.03.36 7.03.36-.5.36-2.03.37 5.01.36-2.96.36.99.36-3.23.36-2.41.37-1.96.36-2.77.36 2.9.36-3.84.36-.58.37-4.32.36-3.99.36-2.36.36-4.06.37-5.19.36 1.1.36-1.85.36-5.53.36 10.34.37-1.6.36-4.44.36 1.27.36-4.54.36-1.5.37 5.28.36 3.14.36 2.66.36 2 .36 1.05.37 4.36.36 1.85.36.39.36 1.07.37 1.99.36 1.02.36.42.36-.98.36 6.43.37.31.36 3.04.36 2.35.36.75.36-.67.37.19.36-1.97.36 1.62.36.65.36-1.49.37-2.37.36.7.36-.49.36 2.17.36.74.37.19.36-2.26.36-3.32.36-.95.37-3.97.36 3.6.36.51.36.78.36-3.06.37 3.18.36 2.99.36 1.26.36.9.36-1.77.37-4.07.36-.42.36-6.15.36-1.59.36-2.19.37-6.93.36-1.6.36 2.08.36.37.37.03.36.66.36 3.62.36.56.36-.77.37-3.91.36 12.86.36 1.75.36-1.16.36 4.15.37.99.36-.83.36-3.7.36-2.4.36-.09.37 8.79.36-1.8.36-3.55.36.82.37-3.82.36 6 .36-2.62.36-.17.36-2.95.37-5.14.36-.2.36-5.16.36 2.71.36-.49.37-4.64.36-4.21.36-3.11.36-4.32.36.42.37-3.81.36-2 .36-5.29.36-5.07.36 12.22.37 28.27.36-3.91.36 3.82.36-.5.37-3.25.36-3.1.36-2.36.36-2.98.36-4.01.37 5.8.36 3.93.36 3.86.36 2.11.36 2.53.37.72.36.63.36.08.36 2 .36 1.82.37-1 .36-.68.36-1.37.36-.1.37-.77.36-1.24.36 3.11.36-.91.36-1.55.37 1.73.36.67.36-1.79.36-2.2.36-2.4.37-3.13.36-1.37.36-2.62.36 14.35.36-2.19.37-2.82.36-1.16.36 1.64.36-.15.36.84.37 1.06.36-2.72.36-2.41.36-3.94.37-4.36.36-3.38.36-1.97.36.65.36-4.47.37 1.05.36-2.34.36 23.66.36-1.92.36-2.08.37.12.36-3.83.36 2.53.36.72.36 1.12.37 1.12.36-2.39.36-1.79.36-3.94.37.77.36-3.27.36-.1.36 1.22.36.85.37-1.13.36-2.85.36-4.52.36.62.36-5.34.37-3.67.36-3.03.36-4.57.36 3.56.36-2.38.37-3.76.36-5.27.36-6.87.36 17.86.36-5.09.37 3.66.36-.89.36-3.82.36-4.29.37-5.6.36-5.38.36 45.49.36-2.75.36-3.01.37 13.46.36-2.34.36-1.06.36-2.25.36-4.09.37 3.16.36-.91.36-2.5.36-3.08.36-4.73.37-1.16.36.56.36-3.24.36-1.2.37 4.3.36 3.12.36 2.27.36 2.18.36 2.88.37 2.41.36 1.65.36.05.36 1.59.36 1.49.37 1.34.36.35.36-1.06.36-.32.36-2.83.37.94.36.79.36-2.55.36 2.13.37.37.36-2.33.36 1.71.36.48.36-1.57.37-3.15.36-2.05.36-4.35.36-.53.36-2.63.37-3.57.36 3.12.36-2.71.36-2.51.36-3.08.37-.09.36 1.4.36-.97.36-3.05.36 17.21.37-.92.36-3.72.36-.36.36.1.37.04.36-.43.36 12.92.36.1.36-1.08.37-.35.36 10.44.36-1.71.36-3.15.36-3.92.37-5.75.36-6.18.36-3.9.36-1.27.36-7.47.37.11.36-1.24.36-4.14.36-5.05.37 17.42.36-3.04.36-5.92.36-4.98.36-1.11.37 2.11.36-4.35.36-.9.36-5.84.36-5.61.37-7.53.36 24.94.36 4.21.36-4.88.36-.69.37-4.77.36-4.67.36-3.66.36-4.39.36-5.42.37 24.13.36-.58.36-4.52.36-3.83.37-2.66.36-4.17.36-4.7.36 3.67.36-3.85.37 44.71.36-2.36.36-.11.36-3.05.36-2.59.37 4.66.36-2.03.36-3.45.36-2.61.36 5.23.37 2.84.36 1.7.36 1.05.36.35.37-.75.36 1.84.36 1.12.36-1.64.36-.53.37-2.43.36.5.36-.18.36-2.86.36 1.25.37.17.36-2.71.36 1.29.36.15.36-2.35.37-3.75.36-1.77.36-5.1.36-1.31.37-2.49.36-4.88.36 3.65.36-3.32.36 11.43.37 1.18.36-.03.36-.17.36-2.71.36-4.2.37-1.31.36-3.23.36 10.47.36 3.67.36 1.97.37.54.36-1.32.36 8.58.36 1.99.36 5.1.37 1.15.36 7.85.36 3.34.36 1.79.37 1.13.36-2.71.36 1.42.36.05.36-.66.37-.69.36-2.65.36-2.53.36-4.52.36-4.23.37-5.89.36-7.42.36 8.12.36-5.54.36-5.52.37-1.63.36-7.1.36-6.44.36-5.14.37-6.45.36.5.36 12.57.36-1.2.36-5.72.37-5.22.36-7.36.36-2.21.36 1.69.36-6.13.37 20.43.36-4.89.36-4.22.36-3.37.36-4.31.37-5.65.36 1.26.36-1.57.36 32.51.36-2.23.37-3.64.36.03.36 3.08.36-3.1.37.01.36-3.72.36-2.75.36-1.47.36-3.98.37 1.9.36-4.35.36-.97.36-4.6.36 5.94.37 3.28.36 3.74.36 1.79.36 1.88.36 2.67.37 2.56.36 1.21.36-.29.36 1.36.37 1.6.36.58.36.19.36-1.09.36-.93.37-2.37.36.73.36-.62.36-2.5.36-3.86.37 5.26.36-2.06.36 1.26.36-.2.36-1.86.37 7.36.36-.25.36-.75.36.33.36.09.37 9.55.36.17.36.32.36 8.1.37 1.87.36.88.36 4.52.36 3.78.36-.59.37 1.52.36-1.31.36 4.12.36 2.12.36-.94.37-2.04.36 2.48.36-.75.36 2.73.36 2.06.37-.74.36.31.36-.16.36-.04.37-3.05.36-2.2.36-2.89.36-6.01.36-5.35.37 4.49.36-4.14.36-.61.36 2.88.36-2.91.37-5.04.36 7.76.36-2.95.36-2.91.36.75.37-3.84.36 6.07.36-3.37.36.14.37-4.3.36-3.89.36-.84.36-5.11.36 3.44.37-1.79.36-3.32.36-4.35.36-5.8.36-2.26.37-6.61.36 2.52.36-2.24.36-5.44.36 10.77.37-2.16.36-4.42.36 1.23.36-4.73.36-1.46.37-5.35.36-4.45.36-3.63.36-4.99.37.46.36-3.55.36-4.66.36-5.23.36 7.68.37 5 .36 5.17.36 3.28.36 3.75.36 4.47.37 4.13.36 2.8.36 2.57.36 2.2.36 3.72.37 2.84.36 1.79.36.2.36 1.86.37.96.36 2.15.36 1.28.36-.69.36 5.87.37 1.82.36 2.48.36 2.39.36 2.13.36-.65.37-.52.36.82.36-2.05.36 2 .36.69.37-.94.36.09.36.53.36 2.67.36-.09.37 6.88.36 4.55.36 2.25.36 2.28.37-.03.36 1.43.36-1.09.36-.5.36.33.37-3.6.36-4.37.36-.31.36-.28.36 7.48.37-3.2.36 2.2.36 1.75h.36l.36-2.15.37-1.79.36-4.34.36.52.36-.15.37-1.94.36-5.29.36.28.36-3.7.36-6.17.37-4.54.36-2.19.36 16.61.36 9.67.36-.39.37-2.57.36 5.07.36-3.71.36.73.36-4.25.37-3.4.36-2.25.36 2.99.36-3.4.36-2.15.37-3.61.36-3.71.36-5.69.36-2.63.37-5.78.36 1.71.36-2.37.36-4.63.36-5.42.37 10.28.36-1.62.36-5.49.36 1.94.36-1.76.37 12.35.36-2.99.36-2.38.36-3.49.36-4.29.37 2.26.36-1.43.36-4.12.36 5.41.37 3.24.36 3.24.36 1.19.36 1.99.36 3.01.37 2.58.36.31.36.48.36-.38.36 2.24.37 1.59.36-1.01.36-.89.36-1.22.36-.45.37 7.01.36 1.35.36-.63.36 6.32.37 1.74.36 2.71.36 2.1.36 2.3.36-.14.37-1.58.36 1.56.36.61.36-.55.36 1.93.37-1.87.36-2.5.36-2.88.36 3.23.36-2.54.37-.35.36 1.76.36-2.43.36-3.89.36 4.66.37.02.36.42.36-.88.36 4.13.37 2.09.36 3.4.36 3.49.36.94.36.52.37-1.93.36 1.53.36-.71.36 3.01.36-1.59.37-1.61.36-3.78.36.62.36-4.56.36-3.21.37-5.05.36-3.15.36 3.61.36-5.84.37-4.69.36-2.91.36 6.33.36-4.58.36-2.46.37 6.35.36-4.67.36 6.74.36.92.36-3.58.37-3.39.36-5.23.36-.66.36 3.75.36 10.76.37 1.14.36-3.14.36-2.78.36-.13.36-3.81.37 3.07.36-4 .36.05.36-4.27.37 12.8.36.12.36-3.62.36 3.14.36-3.34.37.18.36-3.68.36-3.37.36-.99.36-4.63.37 1.68.36-2.64.36-2.78.36 4.92.36 3.1.37 2.41.36 1.98.36 1.14.36 4.1.37 2.01.36.55.36.69.36 1.03.36 1.58.37.69.36-.94.36-1.23.36-1.56.36.4.37-.48.36-1.9.36-2.93.36 3.88.36-1.43.37 1.02.36-.67.36-.74.36-3.2.36-2.91.37 2.83.36.94.36-.41.36.35.37 1.55.36-.86.36 1.83.36 4.9.36 4.54.37 2.79.36 3.6.36.31.36.18.36 1.54.37-2.76.36 1.69.36.81.36-3.08.36-3.59.37-.54.36.54.36-.55.36-3.99.37-5.75.36 3.11.36 2.13.36 1.37.36 5.84.37 1.34.36-1.61.36-.63.36-3.66.36-3.09.37 8.17.36-1.21.36 2.59.36-3.27.36-2.93.37.59.36-4.02.36 7.18.36-2.42.37.82.36-4.62.36 6.73.36.17.36-3.5.37-3.55.36-1.23.36-4.7.36 3.62.36-4.58.37-.76.36-4.69.36-4.36.36-3.33.36-4.49.37 1.84.36-5.52.36-1.67.36-5.56.36 10.87.37-1.84.36-4.96.36 1.58.36-4.71.37-1.36.36-4.96.36-4.57.36-2.79.36 32.15.37 1.51.36-4.31.36-1.25"/><use xlink:href="#b" transform="matrix(3.75 0 0 3.75 125.4 149.53)"/><use xlink:href="#b" transform="matrix(3.75 0 0 3.75 220.55 7.51)"/></g><text stroke-linecap="round" stroke-linejoin="round" color="#000" font-family="KaTeX_Main" font-size="8" transform="translate(241.1 25.11)"><tspan>WBSTTopDown</tspan></text><g fill="none" stroke="currentColor" stroke-linecap="round" stroke-linejoin="round" color="#000"><path stroke="#29C3F6" stroke-dasharray="4.0,2.0,1.0,2.0" d="M205.6 22.51h29.9M28 140.42l.36.76.36-5.28.37-7.51.36-7.34.36-5.21.36-7.35.36 4.27.37-6.37.36-2.45.36-8.07.36 20.88.37-3.19.36-5.32.36 45.14.36-7.14.36-1.42.37 8.5.36-5.28.36-2.79.36-5.07.36 3.51.37-1.7.36-5.09.36 14.51.36-4.99.36-1.09.37-5.08.36 3.33.36-5.35.36-.19.36-4.66.37-3.42.36-4.85.36.87.36-4.99.37-2.03.36-5.46.36 10.32.36-2.72.36-4.07.37.77.36-3.77.36-1.65.36-4.83.36 28.85.37-2.33.36-3.75.36-3.7.36 2.77.36-3.13.37 4.46.36 3.18.36 1.97.36 2.51.37 3.05.36 2.41.36 1.93.36.2.36 1.69.37 1.19.36 1.27.36.22.36-.76.36-.76.37-2.41.36.75.36.27.36-3.16.36 2.97.37.54.36.12.36-1.03.36 1.08.37-2.66.36-3.24.36-1.99.36 12.72.36 2.45.37.05.36.01.36-2.36.36 6.84.36.48.37 4.04.36-.76.36 2.91.36-.83.36-1.84.37-.82.36.04.36-4.13.36 1.56.36-1.53.37-1.73.36-6.43.36 5.82.36.63.37-3.5.36 1.73.36-.61.36 1.04.36-.24.37-.79.36-3.29.36-4.11.36 5.84.36-1.65.37-4.36.36 1.97.36-4.6.36 9.65.36 2.77.37-3.34.36-2.57.36-5.28.36 1.45.37-4.21.36-5.98.36-.86.36-6.69.36 3.84.37 16.4.36 1.04.36 7.05.36-.5.36-2.07.37 5.01.36-2.96.36.97.36-3.26.36-2.42.37-1.95.36-2.77.36 2.92.36-3.82.36-.57.37-4.32.36-3.99.36-2.36.36-4.07.37-5.15.36 1.09.36-1.88.36-5.52.36 10.35.37-1.59.36-4.43.36 1.31.36-4.55.36-1.52.37 5.27.36 3.15.36 2.65.36 2 .36 1.05.37 4.36.36 1.85.36.38.36 1.05.37 1.98.36 1.01.36.42.36-.98.36 6.43.37.32.36 3.03.36 2.35.36.75.36-.66.37.19.36-1.96.36 1.61.36.66.36-1.5.37-2.36.36.69.36-.48.36 2.16.36.72.37.2.36-2.27.36-3.31.36-.95.37-3.98.36 3.61.36.5.36.79.36-3.08.37 3.18.36 2.97.36 1.22.36.95.36-1.8.37-4.08.36-.44.36-6.19.36-1.58.36-2.13.37-6.95.36-1.6.36 2.14.36.38.37.03.36.64.36 3.66.36.52.36-.76.37-3.89.36 12.85.36 1.76.36-1.17.36 4.17.37.97.36-.76.36-3.72.36-2.39.36-.1.37 8.87.36-1.77.36-3.55.36.79.37-3.82.36 5.99.36-2.63.36-.17.36-2.98.37-5.16.36-.2.36-5.19.36 2.73.36-.49.37-4.61.36-4.18.36-3.12.36-4.33.36.38.37-3.8.36-2.02.36-5.28.36-5.07.36 12.19.37 28.26.36-3.9.36 3.83.36-.5.37-3.22.36-3.09.36-2.38.36-2.99.36-4.02.37 5.8.36 3.93.36 3.85.36 2.12.36 2.52.37.72.36.62.36.08.36 2 .36 1.84.37-1.01.36-.67.36-1.37.36-.11.37-.77.36-1.24.36 3.12.36-.92.36-1.55.37 1.71.36.66.36-1.79.36-2.19.36-2.4.37-3.11.36-1.36.36-2.61.36 14.35.36-2.18.37-2.82.36-1.18.36 1.64.36-.17.36.84.37 1.04.36-2.72.36-2.41.36-3.94.37-4.38.36-3.36.36-1.96.36.64.36-4.48.37 1.06.36-2.33.36 23.68.36-1.93.36-2.05.37.1.36-3.83.36 2.48.36.75.36 1.14.37 1.23.36-2.39.36-1.83.36-3.96.37.77.36-3.29.36-.12.36 1.25.36.91.37-1.15.36-2.86.36-4.52.36.62.36-5.32.37-3.65.36-3 .36-4.57.36 3.56.36-2.36.37-3.79.36-5.25.36-6.89.36 17.86.36-5.08.37 3.67.36-.89.36-3.86.36-4.29.37-5.61.36-5.36.36 45.49.36-2.74.36-3.01.37 13.5.36-2.35.36-1.05.36-2.27.36-4.1.37 3.16.36-.91.36-2.49.36-3.07.36-4.72.37-1.15.36.55.36-3.25.36-1.16.37 4.3.36 3.11.36 2.27.36 2.18.36 2.89.37 2.4.36 1.65.36.04.36 1.59.36 1.48.37 1.36.36.36.36-1.07.36-.32.36-2.83.37.93.36.78.36-2.54.36 2.12.37.37.36-2.34.36 1.7.36.49.36-1.56.37-3.17.36-2.07.36-4.36.36-.54.36-2.62.37-3.57.36 3.1.36-2.71.36-2.51.36-3.08.37-.09.36 1.41.36-.97.36-3.07.36 17.19.37-.92.36-3.69.36-.38.36.09.37.04.36-.44.36 12.96.36.07.36-1.05.37-.37.36 10.39.36-1.78.36-3.13.36-3.86.37-5.71.36-6.18.36-3.93.36-1.21.36-7.52.37.09.36-1.26.36-4.09.36-5.08.37 17.46.36-3.01.36-5.96.36-4.95.36-1.13.37 2.12.36-4.36.36-.91.36-5.83.36-5.61.37-7.52.36 24.96.36 4.18.36-4.84.36-.67.37-4.78.36-4.68.36-3.68.36-4.36.36-5.46.37 24.14.36-.56.36-4.52.36-3.85.37-2.68.36-4.17.36-4.7.36 3.68.36-3.84.37 44.73.36-2.36.36-.12.36-3.04.36-2.6.37 4.66.36-2.02.36-3.49.36-2.6.36 5.23.37 2.83.36 1.71.36 1.04.36.35.37-.75.36 1.84.36 1.13.36-1.64.36-.53.37-2.43.36.5.36-.18.36-2.85.36 1.25.37.17.36-2.72.36 1.29.36.15.36-2.35.37-3.75.36-1.79.36-5.1.36-1.31.37-2.48.36-4.88.36 3.66.36-3.34.36 11.45.37 1.17.36-.04.36-.18.36-2.72.36-4.22.37-1.3.36-3.24.36 10.47.36 3.66.36 1.96.37.54.36-1.32.36 8.64.36 2 .36 5.08.37 1.12.36 7.86.36 3.35.36 1.78.37 1.07.36-2.73.36 1.37.36.04.36-.64.37-.81.36-2.7.36-2.32.36-4.72.36-4.22.37-5.96.36-3.09.36 3.97.36-5.62.36-5.54.37-1.62.36-7.12.36-6.42.36-5.22.37-6.47.36.66.36 12.6.36-2.49.36-4.46.37-5.18.36-7.46.36-2.15.36 1.75.36-6.31.37 20.58.36-4.99.36-4.2.36-3.38.36-4.32.37-5.7.36 3.86.36-4.05.36 32.55.36-2.28.37-3.62.36.15.36 2.97.36-3.16.37.17.36-3.85.36-2.74.36-1.33.36-3.95.37 1.8.36-4.11.36-1.17.36-4.63.36 6.01.37 3.31.36 3.69.36 1.77.36 1.97.36 2.65.37 2.51.36 1.28.36-.25.36 1.35.37 1.53.36.63.36.34.36-1.15.36-.88.37-2.3.36.66.36-.58.36-2.64.36-3.86.37 5.24.36-1.98.36 1.16.36-1.04.36-.94.37 7.36.36-.23.36-.76.36.17.36.2.37 9.54.36.27.36.38.36.55.37 9.39.36.67.36 4.7.36 3.62.36-.67.37 1.48.36-1.25.36 4.11.36 2.09.36-.95.37-2.05.36 2.48.36-.79.36 2.72.36 2.08.37-.77.36.31.36-.13.36-.05.37-3.1.36-2.13.36-2.9.36-6 .36-5.31.37 4.41.36-4.14.36-.52.36 2.88.36-2.9.37-5.05.36 7.78.36-2.96.36-2.93.36.74.37-3.86.36 6.05.36-3.35.36.12.37-4.29.36-3.87.36-.82.36-5.06.36 3.42.37-1.8.36-3.33.36-4.36.36-5.8.36-2.24.37-6.63.36 2.54.36-2.23.36-5.45.36 10.76.37-2.14.36-4.42.36 1.27.36-4.69.36-1.47.37-5.37.36-4.44.36-3.63.36-4.98.37.45.36-3.56.36-4.67.36-5.25.36 7.68.37 5 .36 5.16.36 3.28.36 3.76.36 4.46.37 4.13.36 2.8.36 2.57.36 2.19.36 3.71.37 2.84.36 1.79.36.21.36 1.82.37.96.36 2.14.36 1.27.36-.69.36 5.86.37 1.8.36 2.48.36 2.37.36 2.13.36-.66.37-.54.36.82.36-2.08.36 2.01.36.68.37-.95.36.09.36.53.36 2.69.36-.11.37 6.87.36 4.55.36 2.24.36 2.27.37-.01.36 1.37.36-1.09.36-.51.36.32.37-3.61.36-4.37.36-.3.36-.31.36 7.53.37-3.22.36 2.23.36 1.66.36.11.36-2.14.37-1.75.36-4.33.36.53.36-.13.37-1.98.36-5.26.36.24.36-3.68.36-6.18.37-4.55.36-2.21.36 16.63.36 9.74.36-.37.37-2.59.36 5.07.36-3.72.36.75.36-4.25.37-3.37.36-2.24.36 2.98.36-3.39.36-2.14.37-3.6.36-3.74.36-5.68.36-2.62.37-5.77.36 1.72.36-2.36.36-4.64.36-5.4.37 10.27.36-1.63.36-5.49.36 1.97.36-1.8.37 12.36.36-2.99.36-2.37.36-3.48.36-4.29.37 2.29.36-1.44.36-4.11.36 5.41.37 3.23.36 3.23.36 1.18.36 2 .36 3 .37 2.57.36.31.36.49.36-.39.36 2.24.37 1.59.36-1 .36-.9.36-1.23.36-.46.37 7.01.36 1.35.36-.63.36 6.31.37 1.73.36 2.7.36 2.08.36 2.29.36-.14.37-1.57.36 1.54.36.59.36-.55.36 1.92.37-1.89.36-2.53.36-2.89.36 3.23.36-2.56.37-.36.36 1.75.36-2.45.36-3.88.36 4.63.37.06.36.51.36-.92.36 4.15.37 2.09.36 3.39.36 3.54.36.94.36.57.37-1.83.36 1.51.36-.69.36 2.96.36-1.55.37-1.61.36-3.81.36.63.36-4.55.36-3.22.37-5.1.36-3.14.36 3.62.36-5.87.37-4.76.36-2.87.36 6.36.36-4.58.36-2.49.37 6.3.36-4.66.36 6.77.36.94.36-3.58.37-3.34.36-5.23.36-.65.36 3.76.36 10.77.37 1.1.36-3.15.36-2.78.36-.14.36-3.82.37 3.07.36-4 .36.07.36-4.27.37 12.83.36.1.36-3.61.36 3.16.36-3.33.37.17.36-3.67.36-3.4.36-.99.36-4.63.37 1.68.36-2.61.36-2.79.36 4.91.36 3.11.37 2.41.36 1.97.36 1.15.36 4.1.37 1.99.36.54.36.69.36 1.02.36 1.57.37.7.36-.95.36-1.23.36-1.56.36.4.37-.47.36-1.91.36-2.93.36 3.86.36-1.43.37 1.02.36-.67.36-.73.36-3.21.36-2.9.37 2.82.36.94.36-.39.36.35.37 1.55.36-.86.36 1.82.36 4.9.36 4.53.37 2.77.36 3.59.36.3.36.18.36 1.63.37-2.83.36 1.7.36.8.36-3.1.36-3.58.37-.56.36.55.36-.57.36-4 .37-5.73.36 3.14.36 2.13.36 1.41.36 5.84.37 1.25.36-1.57.36-.59.36-3.55.36-3.07.37 8.07.36-1.29.36 2.48.36-3.26.36-3.04.37.73.36-4 .36 7.18.36-2.75.37 1.22.36-4.51.36 6.7.36.09.36-3.48.37-3.61.36-1.1.36-4.62.36-3.74.36 2.6.37-1.92.36-3.48.36-4.41.36-3.37.36-4.45.37 1.79.36-5.44.36-1.63.36-5.61.36 10.32.37-1.2.36-5.01.36 1.46.36-4.67.37-1.3.36-5 .36-4.56.36-2.76.36 32.1.37 1.57.36-4.38.36-1.3"/><use xlink:href="#e" color="#29C3F6" transform="matrix(3.75 0 0 3.75 182.98 110.53)"/><use xlink:href="#e" color="#29C3F6" transform="matrix(3.75 0 0 3.75 220.55 22.51)"/></g><path fill="none" d="M28 45.01V205M371.99 45.01H28" color="#000"/></svg>