<svg xmlns="http://www.w3.org/2000/svg" xmlns:xlink="http://www.w3.org/1999/xlink" viewBox="0 0 400 200"><path fill="none" d="M0 0h400v200H0z"/><defs><use xlink:href="#a" id="g" fill="currentColor" stroke="none"/><use xlink:href="#b" id="h" fill="currentColor" stroke="none"/><use xlink:href="#b" id="c" stroke="currentColor" transform="rotate(180)"/><use xlink:href="#d" id="e" stroke="currentColor" transform="rotate(45)"/><path id="d" stroke="currentColor" stroke-width=".222" d="M-1-1h2v2h-2z"/><path id="b" stroke="currentColor" stroke-width=".222" d="m0-1.33-1.33 2h2.66z"/><path id="f" stroke="currentColor" stroke-width=".222" d="M0 1.33 1.265.411.782-1.067l-1.564-.009-.483 1.487z"/><circle id="a" cx="0" cy="0" r="1" stroke="currentColor" stroke-width=".222"/></defs><path fill="none" stroke="#000" stroke-dasharray="0.1,0.2" stroke-linecap="round" stroke-linejoin="round" stroke-width=".1" d="M63.06 182V72.01" class="gridline" color="#000"/><g fill="none" stroke="none" stroke-linecap="round" stroke-linejoin="round" stroke-width="0" color="#000"><path d="M63.06 182v-9m0-100.99v9"/><text fill="#000" font-family="KaTeX_Main" font-size="8" text-anchor="middle" transform="translate(63.06 193.6)"><tspan> 1</tspan></text></g><path fill="none" stroke="#000" stroke-dasharray="0.1,0.2" stroke-linecap="round" stroke-linejoin="round" stroke-width=".1" d="M95.83 182V72.01" class="gridline" color="#000"/><g fill="none" stroke="none" stroke-linecap="round" stroke-linejoin="round" stroke-width="0" color="#000"><path d="M95.83 182v-9m0-100.99v9"/><text fill="#000" font-family="KaTeX_Main" font-size="8" text-anchor="middle" transform="translate(95.83 193.6)"><tspan> 2</tspan></text></g><path fill="none" stroke="#000" stroke-dasharray="0.1,0.2" stroke-linecap="round" stroke-linejoin="round" stroke-width=".1" d="M128.61 182V72.01" class="gridline" color="#000"/><g fill="none" stroke="none" stroke-linecap="round" stroke-linejoin="round" stroke-width="0" color="#000"><path d="M128.61 182v-9m0-100.99v9"/><text fill="#000" font-family="KaTeX_Main" font-size="8" text-anchor="middle" transform="translate(128.61 193.6)"><tspan> 3</tspan></text></g><path fill="none" stroke="#000" stroke-dasharray="0.1,0.2" stroke-linecap="round" stroke-linejoin="round" stroke-width=".1" d="M161.39 182V72.01" class="gridline" color="#000"/><g fill="none" stroke="none" stroke-linecap="round" stroke-linejoin="round" stroke-width="0" color="#000"><path d="M161.39 182v-9m0-100.99v9"/><text fill="#000" font-family="KaTeX_Main" font-size="8" text-anchor="middle" transform="translate(161.39 193.6)"><tspan> 4</tspan></text></g><path fill="none" stroke="#000" stroke-dasharray="0.1,0.2" stroke-linecap="round" stroke-linejoin="round" stroke-width=".1" d="M194.16 182V72.01" class="gridline" color="#000"/><g fill="none" stroke="none" stroke-linecap="round" stroke-linejoin="round" stroke-width="0" color="#000"><path d="M194.16 182v-9m0-100.99v9"/><text fill="#000" font-family="KaTeX_Main" font-size="8" text-anchor="middle" transform="translate(194.16 193.6)"><tspan> 5</tspan></text></g><path fill="none" stroke="#000" stroke-dasharray="0.1,0.2" stroke-linecap="round" stroke-linejoin="round" stroke-width=".1" d="M226.94 182V72.01" class="gridline" color="#000"/><g fill="none" stroke="none" stroke-linecap="round" stroke-linejoin="round" stroke-width="0" color="#000"><path d="M226.94 182v-9m0-100.99v9"/><text fill="#000" font-family="KaTeX_Main" font-size="8" text-anchor="middle" transform="translate(226.94 193.6)"><tspan> 6</tspan></text></g><path fill="none" stroke="#000" stroke-dasharray="0.1,0.2" stroke-linecap="round" stroke-linejoin="round" stroke-width=".1" d="M259.71 182V72.01" class="gridline" color="#000"/><g fill="none" stroke="none" stroke-linecap="round" stroke-linejoin="round" stroke-width="0" color="#000"><path d="M259.71 182v-9m0-100.99v9"/><text fill="#000" font-family="KaTeX_Main" font-size="8" text-anchor="middle" transform="translate(259.71 193.6)"><tspan> 7</tspan></text></g><path fill="none" stroke="#000" stroke-dasharray="0.1,0.2" stroke-linecap="round" stroke-linejoin="round" stroke-width=".1" d="M292.49 182V72.01" class="gridline" color="#000"/><g fill="none" stroke="none" stroke-linecap="round" stroke-linejoin="round" stroke-width="0" color="#000"><path d="M292.49 182v-9m0-100.99v9"/><text fill="#000" font-family="KaTeX_Main" font-size="8" text-anchor="middle" transform="translate(292.49 193.6)"><tspan> 8</tspan></text></g><path fill="none" stroke="#000" stroke-dasharray="0.1,0.2" stroke-linecap="round" stroke-linejoin="round" stroke-width=".1" d="M325.26 182V72.01" class="gridline" color="#000"/><g fill="none" stroke="none" stroke-linecap="round" stroke-linejoin="round" stroke-width="0" color="#000"><path d="M325.26 182v-9m0-100.99v9"/><text fill="#000" font-family="KaTeX_Main" font-size="8" text-anchor="middle" transform="translate(325.26 193.6)"><tspan> 9</tspan></text></g><path fill="none" stroke="#000" stroke-dasharray="0.1,0.2" stroke-linecap="round" stroke-linejoin="round" stroke-width=".1" d="M358.04 182V72.01" class="gridline" color="#000"/><g fill="none" stroke="none" stroke-linecap="round" stroke-linejoin="round" stroke-width="0" color="#000"><path d="M358.04 182v-9m0-100.99v9"/><text fill="#000" font-family="KaTeX_Main" font-size="8" text-anchor="middle" transform="translate(358.04 193.6)"><tspan> 10</tspan></text></g><g fill="none" stroke="none" stroke-linecap="round" stroke-linejoin="round" stroke-width="0" color="#000"><path d="M358.04 182h-9"/><text fill="#000" font-family="KaTeX_Main" font-size="8" transform="translate(366.43 184.6)"><tspan>0.87</tspan></text></g><g fill="none" stroke="none" stroke-linecap="round" stroke-linejoin="round" stroke-width="0" color="#000"><path d="M358.04 169.78h-9"/><text fill="#000" font-family="KaTeX_Main" font-size="8" transform="translate(366.43 172.38)"><tspan>0.88</tspan></text></g><g fill="none" stroke="none" stroke-linecap="round" stroke-linejoin="round" stroke-width="0" color="#000"><path d="M358.04 157.56h-9"/><text fill="#000" font-family="KaTeX_Main" font-size="8" transform="translate(366.43 160.16)"><tspan>0.89</tspan></text></g><g fill="none" stroke="none" stroke-linecap="round" stroke-linejoin="round" stroke-width="0" color="#000"><path d="M358.04 145.34h-9"/><text fill="#000" font-family="KaTeX_Main" font-size="8" transform="translate(366.43 147.94)"><tspan>0.90</tspan></text></g><g fill="none" stroke="none" stroke-linecap="round" stroke-linejoin="round" stroke-width="0" color="#000"><path d="M358.04 133.12h-9"/><text fill="#000" font-family="KaTeX_Main" font-size="8" transform="translate(366.43 135.72)"><tspan>0.91</tspan></text></g><g fill="none" stroke="none" stroke-linecap="round" stroke-linejoin="round" stroke-width="0" color="#000"><path d="M358.04 120.89h-9"/><text fill="#000" font-family="KaTeX_Main" font-size="8" transform="translate(366.43 123.49)"><tspan>0.92</tspan></text></g><g fill="none" stroke="none" stroke-linecap="round" stroke-linejoin="round" stroke-width="0" color="#000"><path d="M358.04 108.67h-9"/><text fill="#000" font-family="KaTeX_Main" font-size="8" transform="translate(366.43 111.27)"><tspan>0.93</tspan></text></g><g fill="none" stroke="none" stroke-linecap="round" stroke-linejoin="round" stroke-width="0" color="#000"><path d="M358.04 96.45h-9"/><text fill="#000" font-family="KaTeX_Main" font-size="8" transform="translate(366.43 99.05)"><tspan>0.94</tspan></text></g><g fill="none" stroke="none" stroke-linecap="round" stroke-linejoin="round" stroke-width="0" color="#000"><path d="M358.04 84.23h-9"/><text fill="#000" font-family="KaTeX_Main" font-size="8" transform="translate(366.43 86.83)"><tspan>0.95</tspan></text></g><g fill="none" stroke="none" stroke-linecap="round" stroke-linejoin="round" stroke-width="0" color="#000"><path d="M358.04 72.01h-9"/><text fill="#000" font-family="KaTeX_Main" font-size="8" transform="translate(366.43 74.61)"><tspan>0.96</tspan></text></g><path fill="none" stroke="none" stroke-linecap="round" stroke-linejoin="round" stroke-width="0" d="M33.56 72.01V182M358.04 72.01H33.56" color="#000"/><text fill="#000" stroke="none" stroke-linecap="round" stroke-linejoin="round" stroke-width="0" color="#000" font-family="KaTeX_Main" font-size="8" text-anchor="middle" transform="rotate(-90 69.74 57.27)"><tspan font-weight="bold">AveragePathLength </tspan><tspan> / log</tspan><tspan dy="2.4" font-size="6.4">2</tspan><tspan dy="-2.4">Size</tspan></text><text fill="#000" stroke="none" stroke-linecap="round" stroke-linejoin="round" color="#000" font-family="KaTeX_SansSerif" font-size="8" transform="translate(128.6 30.11)"><tspan>LBSTBottomUp</tspan></text><g fill="none" stroke="currentColor" stroke-linecap="round" stroke-linejoin="round" color="#000"><path stroke="#3B75EA" d="M91.6 27.51H123M33.56 152.1l.33 18.62.33 1.92.32-2.14.33-3.72.33-4.13.33.22.32-3.2.33-3.18.33 2.37.33-.86.33-3.06.32-2.47.33-2.84.33-3.34.33-1.92.32 4.57.33-2.24.33-1.57.33-1.75.33-2.24.32-2.21.33 5.64.33-1.84.33-1.69.32-1.88.33-1.83.33-1.86.33-1.78.32-1.76.33-1.83.33-1.95.33-1.93.33 23.33.32-.7.33-.92.33-.96.33-.98.32-1.01.33-.95.33-1.08.33-1.08.33-1.12.32-1.18.33-1.13.33-1.17.33-1.13.32-1.14.33-1.14.33-1.16.33-1.17.33-1.19.32 1.39.33-1.08.33-1 .33 13.78.32-.54.33-.62.33-.58.33-.56.33-.57.32-.57.33-.6.33-.66.33-.63.32-.69.33-.65.33-.57.33-.6.33-.71.32-.62.33-.71.33-.07.33-.68.32-.71.33-.69.33-.7.33-.61.33-.72.32-.71.33 15.5.33-.24.33-.29.32-.24.33-.33.33-.25.33-.27.32-.28.33-.31.33-.32.33-.33.33-.32.32-.39.33-.39.33-.35.33-.35.32-.38.33-.35.33-.36.33-.18.33-.34.32-.35.33-.42.33-.35.33-.41.32-.28.33-.43.33-.43.33-.45.33-.44.32 4.36.33-.21.33-.24.33-.26.32-.22.33-.22.33-.3.33-.22.33-.29.32-.26.33-.26.33-.31.33-.32.32-.26.33-.27.33-.28.33-.29.33-.3.32-.31.33-.33.33-.29.33-.29.32-.36.33-.3.33-.31.33-.31.33-.29.32-.35.33 5.38.33-.09.33-.09.32-.08.33-.1.33-.12.33.05.32-.11.33-.1.33-.11.33-.15.33-.14.32-.13.33-.1.33-.15.33-.13.32-.14.33-.15.33-.18.33-.17.33-.15.32-.12.33-.17.33-.16.33-.15.32-.17.33-.16.33-.15.33-.13.33-.17.32-.15.33-.16.33-.15.33-.17.32-.16.33-.19.33-.2.33-.18.33-.16.32-.17.33-.18.33-.18.33-.19.32-.18.33-.19.33-.18.33-.2.33-.18.32-.17.33-.24.33-.2.33-.21.32-.16.33-.2.33-.21.33-.2.32-.22.33-.2.33-.18.33-.2.33-.2.32-.23.33-.2.33-.23.33-.22.32-.22.33-.21.33-.21.33-.22.33-.22.32-.22.33-.22.33-.23.33-.23.32-.21.33-.22.33-.2.33-.23.33-.22.32-.23.33-.19.33-.22.33-.23.32-.2.33-.23.33-.25.33-.22.33-.22.32-.24.33-.23.33-.2.33-.24.32.06.33-.23.33-.24.33-.23.33-.24.32.8.33-.24.33-.22.33-.24.32.14.33-.22.33-.25.33-.23.33-.2.32-.26.33-.22.33-.21.33-.23.32.02.33.29.33-.21.33-.22.32-.22.33-.22.33-.25.33-.22.33-.23.32-.22.33-.24.33-.24.33-.22.32-.23.33-.21.33-.23.33-.23.33-.24.32-.24.33-.22.33-.23.33-.19.32-.23.33-.22.33-.24.33-.24.33-.24.32-.22.33-.23.33-.24.33-.25.32-.23.33 2.56.33-.21.33-.2.33-.19.32-.2.33-.19.33-.18.33-.19.32-.18.33-.19.33-.19.33-.2.33-.21.32-.2.33-.2.33-.19.33-.2.32-.19.33-.16.33-.2.33-.21.33-.19.32-.18.33-.21.33-.18.33-.2.32-.18.33-.2.33-.18.33-.2.32-.19.33-.2.33-.18.33-.19.33-.21.32-.18.33-.2.33-.19.33-.2.32-.19.33-.2.33-.2.33-.19.33-.18.32-.19.33-.2.33-.2.33-.19.32-.18.33-.2.33 1.45.33-.17.33 22.04.32-.07.33-.08.33-.07.33-.06.32-.07.33-.08.33-.07.33.05.33-.08.32-.08.33-.07.33-.09.33-.08.32-.08.33-.09.33-.08.33-.08.33-.08.32-.08.33-.02.33-.07.33-.08.32-.1.33-.08.33-.08.33-.08.32-.08.33-.08.33-.09.33-.09.33-.09.32-.08.33-.08.33-.08.33-.09.32-.08.33-.08.33-.09.33-.08.33-.09.32.8.33-.09.33-.07.33-.09.32-.08.33-.09.33-.08.33-.08.33-.08.32-.08.33-.09.33-.09.33-.09.32-.09.33-.09.33-.08.33-.09.33-.09.32-.07.33-.09.33-.1.33-.08.32-.1.33-.08.33-.08.33-.08.33-.09.32-.09.33-.09.33-.08.33-.09.32-.09.33-.09.33-.09.33-.1.33-.09.32-.11.33-.09.33-.09.33-.08.32-.1.33-.09.33-.07.33-.09.32-.08.33-.1.33-.1.33-.09.33-.1.32-.09.33-.09.33-.1.33-.11.32-.1.33-.09.33-.09.33-.08.33-.09.32-.1.33-.1.33-.1.33-.09.32-.1.33-.09.33-.1.33-.09.33-.1.32-.1.33-.1.33-.1.33-.09.32-.11.33-.1.33-.1.33-.1.33-.09.32-.09.33-.1.33-.1.33-.1.32-.1.33-.1.33-.1.33-.11.33-.08.32-.09.33-.03.33-.1.33-.11.32-.09.33-.1.33-.09.33-.1.33-.1.32-.1.33-.1.33-.1.33-.1.32-.06.33-.11.33-.1.33-.1.32-.09.33-.11.33-.11.33-.11.33-.1.32-.09.33-.11.33-.1.33-.1.32-.09.33-.12.33-.09.33-.11.33-.1.32-.1.33-.09.33-.11.33-.1.32-.1.33-.1.33-.11.33-.1.33-.1.32-.1.33-.1.33-.09.33-.09.32-.11.33-.1.33-.1.33-.09.33-.1.32-.11.33-.09.33-.1.33-.1.32-.11.33-.11.33-.11.33-.1.33-.11.32-.1.33-.11.33-.1.33-.11.32-.11.33-.12.33-.09.33-.1.32 12.75.33-.04.33-.05.33-.06.33-.05.32-.05.33-.04.33-.05.33-.05.32-.05.33-.05.33-.04.33-.05.33-.05.32-.04.33-.05.33-.05.33-.05.32-.04.33-.06.33-.05.33-.04.33-.06.32-.05.33-.04.33-.05.33-.06.32-.05.33-.05.33-.05.33-.05.33-.06.32-.05.33-.05.33-.06.33-.04.32-.06.33-.05.33-.06.33-.05.33-.06.32-.05.33-.05.33-.05.33-.05.32-.05.33-.06.33-.06.33-.05.33-.05.32-.06.33-.05.33-.06.33-.04.32-.05.33-.05.33-.06.33-.06.32-.06.33-.06.33-.06.33-.07.33-.06.32-.05.33-.04.33-.06.33-.06.32-.05.33-.06.33-.05.33-.06.33-.05.32-.05.33-.07.33-.05.33-.06.32-.05.33-.05.33-.05.33-.06.33-.06.32-.06.33-.05.33-.06.33-.05.32-.06.33-.05.33-.07.33-.05.33-.06.32-.06.33-.05.33-.05.33-.06.32-.06.33-.05.33-.05.33-.06.33-.06.32-.06.33-.07.33-.05.33-.07.32-.06.33-.05.33-.06.33-.07.33-.06.32-.06.33-.06.33-.05.33-.06.32-.07.33-.06.33-.07.33-.06.32-.06.33-.06.33-.06.33-.06.33-.07.32-.06.33-.06.33-.06.33-.06.32-.06.33-.06.33-.07.33-.06.33-.06.32-.06.33-.06.33-.07.33-.06.32-.05.33-.07.33-.07.33-.06.33-.06.32-.06.33-.07.33-.06.33-.07.32-.06.33-.07.33-.05.33-.07.33-.05.32-.07.33-.07.33-.06.33-.06.32-.07.33-.07.33.55.33-.06.33-.07.32-.06.33-.06.33-.06.33-.07.32-.07.33-.06.33-.06.33-.07.32-.05.33-.06.33-.07.33-.06.33-.07.32-.06.33-.07.33-.07.33-.06.32-.06.33-.06.33-.06.33-.07.33-.07.32-.07.33-.05.33-.06.33-.06.32-.07.33-.06.33-.07.33-.06.33-.07.32-.06.33-.07.33-.07.33-.07.32-.06.33-.06.33-.07.33-.07.33-.06.32-.07.33-.06.33-.07.33-.05.32-.07.33-.07.33-.07.33-.07.33-.07.32-.06.33-.07.33-.07.33-.06.32-.06.33-.07.33-.07.33-.07.33-.06.32-.07.33-.07.33-.07.33-.06.32-.07.33-.06.33-.06.33-.07.32-.07.33 10.14.33-.02.33-.01.33-.02.32-.02.33-.02.33-.01.33-.02.32-.02.33-.02.33-.02.33-.03.33-.02.32-.02.33-.02.33-.03.33-.01.32-.02.33-.01.33-.02.33-.02.33-.02.32-.02.33-.02.33-.02.33-.02.32-.02.33-.02.33-.02.33-.02.33-.02.32-.02.33-.03.33-.02.33-.03.32-.02.33-.03.33-.02.33-.03.33-.02.32-.02.33-.02.33-.02.33-.02.32-.03.33-.02.33-.01.33-.03.33-.02.32-.03.33-.02.33-.02.33-.03.32-.02.33-.02.33-.03.33-.02.32-.03.33-.02.33-.02.33-.03.33-.02.32-.03.33-.02.33-.03.33-.02.32-.03.33-.02.33-.02.33-.03.33-.02.32-.03.33-.03.33-.03.33-.02.32-.03.33-.02.33-.03.33-.03.33-.03.32-.02.33-.03.33-.03.33-.03.32-.02.33-.03.33-.03.33-.03.33-.02.32-.03.33-.03.33-.02.33-.03.32-.02.33-.03.33-.03.33-.03.33-.02.32-.03.33-.03.33-.03.33-.03.32-.02.33-.03.33-.02.33-.03.32-.02.33-.03.33-.02.33-.03.33-.03.32-.03.33-.03.33-.03.33-.03.32-.03.33-.03.33-.03.33-.03.33-.03.32-.02.33-.04.33-.03.33-.03.32-.03.33-.03.33-.03.33-.03.33-.03.32-.03.33-.03.33-.03.33-.03.32-.03.33-.03.33-.03.33-.03.33-.04.32-.03.33-.03.33-.03.33-.04.32-.02.33-.03.33-.03.33-.04.33-.03.32-.02.33-.04.33-.02.33-.03.32-.03.33-.04.33-.03.33-.03.33-.03.32-.03.33-.03.33-.04.33-.03.32-.03.33-.04.33-.03.33-.03.32-.04.33-.03.33-.03.33-.04.33-.03.32-.04.33-.03.33-.04.33-.03.32-.04.33-.03.33-.05.33-.03.33-.04.32-.03.33-.03.33-.04.33-.03.32-.03.33-.04.33-.03.33-.03.33-.04.32-.03.33-.04.33-.03.33-.04.32-.03.33-.04.33-.03.33-.04.33-.03.32-.03.33-.04.33-.03.33-.03.32-.04.33-.04.33-.03.33-.03.33-.04.32-.03.33-.04.33-.04.33-.03.32-.04.33-.03.33-.04.33-.03.33-.04.32-.04.33-.04.33-.03.33-.04.32-.04.33-.03.33-.04.33-.03.32-.04.33-.03.33-.04.33-.04.33-.03.32-.04.33-.04.33-.03.33-.03.32-.03.33-.04.33-.04.33-.03.33-.03.32-.04.33-.03.33-.04.33-.04.32-.03.33-.04.33-.04"/><use xlink:href="#a" color="#3B75EA" transform="matrix(4.5 0 0 4.5 355.09 114.65)"/><use xlink:href="#a" color="#3B75EA" transform="matrix(4.5 0 0 4.5 107.3 27.51)"/></g><text fill="#000" stroke="none" stroke-linecap="round" stroke-linejoin="round" color="#000" font-family="KaTeX_SansSerif" font-size="8" transform="translate(128.6 45.11)"><tspan>LBSTTopDown</tspan></text><g fill="none" stroke="currentColor" stroke-linecap="round" stroke-linejoin="round" color="#000"><path stroke="#29C3F6" stroke-dasharray="4.5,2.0,0.5,2.0,0.5,2.0" d="M91.6 42.51H123m-89.44 107.4.33 22.45.33-1.85.32-2.59.33-2.17.33-3.5.33-1.06.32-3.94.33 6.75.33-1.04.33-1.65.33-1.88.32-1.9.33-1.97.33-2.2.33-1.88.32-2.32.33-2.28.33-2.36.33-2.25.33-2.29.32-2.24.33-2.45.33 4.93.33-1.11.32-1.19.33-1.25.33-1.29.33-1.35.32-1.3.33-1.28.33-1.26.33-1.31.33 11.63.32-1.51.33-1.39.33-1.46.33-1.4.32-1.4.33-.81.33-1.53.33-1.47.33 8.22.32-.68.33-.91.33-1.02.33-.94.32-.98.33-1.11.33-.98.33-.91.33-1.12.32-1.06.33 9.81.33-.5.33-.37.32-.46.33-.32.33-.53.33-.4.33-.53.32-.45.33-.43.33-.44.33-.48.32-.56.33-.46.33-.54.33-.44.33-.47.32-.55.33-.58.33-.51.33-.55.32-.54.33-.55.33-.54.33-.58.33 13.01.32-.06.33-.08.33-.13.33-.1.32-.13.33-.09.33-.08.33-.12.32-.11.33-.14.33-.12.33.3.33-.13.32-.16.33-.16.33-.17.33-.19.32-.17.33-.19.33-.17.33-.17.33-.21.32-.19.33-.19.33-.21.33-.21.32-.17.33-.23.33-.25.33-.18.33-.25.32-.25.33-.21.33-.23.33-.24.32-.26.33-.24.33-.27.33-.18.33-.27.32-.25.33-.27.33-.33.33-.3.32-.12.33-.27.33.29.33-.29.33-.29.32-.3.33-.33.33-.29.33-.29.32-.33.33-.27.33-.3.33-.31.33-.32.32-.31.33-.3.33-.3.33-.3.32-.3.33 2.79.33-.07.33-.03.32-.06.33-.06.33-.01.33-.09.33-.11.32-.13.33-.12.33-.12.33-.08.32-.12.33-.08.33-.08.33-.12.33-.14.32-.1.33-.14.33-.09.33-.15.32-.13.33-.15.33-.14.33-.11.33-.12.32-.12.33-.13.33-.14.33-.14.32-.13.33-.13.33-.14.33-.15.33-.15.32-.13.33-.14.33-.13.33 2.96.32-.14.33-.01.33-.18.33-.14.33-.14.32-.16.33-.16.33-.17.33-.17.32-.13.33-.18.33-.19.33-.16.32-.18.33-.16.33-.17.33-.17.33-.16.32-.17.33-.19.33-.2.33-.17.32-.17.33-.2.33-.2.33-.18.33-.19.32-.15.33-.17.33-.2.33-.19.32-.17.33-.19.33-.2.33-.19.33-.18.32-.19.33-.21.33-.18.33-.18.32-.16.33-.21.33-.21.33-.19.33-.19.32-.21.33-.22.33-.18.33-.19.32-.21.33-.19.33-.22.33-.2.33-.2.32-.21.33.18.33-.19.33-.2.32-.21.33-.21.33-.22.33-.19.33-.22.32-.21.33-.22.33-.21.33-.2.32-.2.33-.19.33-.21.33-.22.32-.21.33-.21.33-.2.33-.21.33-.21.32-.21.33-.2.33-.22.33-.2.32 1.18.33-.1.33-.14.33-.13.33-.13.32-.13.33-.11.33-.13.33-.11.32-.12.33-.14.33-.13.33-.15.33-.13.32-.12.33-.13.33-.14.33-.14.32-.13.33-.15.33-.14.33-.14.33-.14.32-.13.33-.14.33-.11.33-.13.32-.13.33-.14.33-.15.33-.14.33-.16.32-.13.33-.14.33-.14.33-.14.32-.14.33-.13.33-.14.33-.15.33-.14.32-.13.33-.16.33-.15.33-.14.32-.15.33-.15.33-.15.33-.17.32-.16.33-.16.33-.15.33-.14.33-.15.32-.14.33-.16.33-.15.33-.15.32-.15.33-.15.33-.14.33-.14.33-.12.32-.16.33-.17.33 3.1.33-.17.32-.16.33-.15.33-.17.33-.18.33 17.66.32-.06.33-.08.33-.04.33-.05.32.39.33-.07.33-.07.33-.03.33-.07.32-.06.33-.06.33-.06.33-.07.32-.06.33-.07.33-.07.33-.08.33-.08.32-.08.33-.07.33-.06.33-.08.32-.09.33-.06.33-.09.33-.07.32-.06.33-.07.33-.09.33-.07.33-.08.32-.08.33-.07.33-.08.33-.07.32-.09.33-.08.33-.09.33-.07.33-.09.32-.08.33-.07.33-.09.33-.08.32-.09.33-.08.33-.09.33-.09.33-.09.32 1.51.33-.07.33-.07.33-.07.32-.06.33-.07.33-.07.33-.07.33-.05.32-.05.33-.06.33-.07.33-.08.32-.06.33-.07.33-.08.33-.07.33-.09.32-.07.33-.07.33-.07.33-.07.32-.08.33-.07.33-.08.33-.08.33-.07.32-.08.33-.08.33-.08.33-.08.32-.07.33-.09.33-.07.33-.06.32-.07.33-.07.33-.08.33-.08.33-.08.32-.07.33-.07.33-.08.33-.08.32-.07.33-.07.33-.08.33-.09.33-.08.32-.06.33-.07.33-.08.33-.08.32-.06.33-.09.33-.07.33-.09.33-.09.32-.09.33-.08.33-.08.33-.1.32-.07.33-.09.33-.1.33-.09.33-.08.32-.08.33-.08.33-.07.33-.08.32-.08.33-.08.33-.08.33-.09.33-.09.32-.09.33-.09.33-.08.33-.09.32-.09.33-.09.33-.09.33-.08.33-.09.32-.08.33-.09.33-.09.33-.08.32-.07.33-.09.33-.09.33-.08.32-.08.33-.1.33-.08.33-.09.33-.08.32 5.5.33-.05.33-.05.33-.05.32-.06.33-.05.33-.05.33-.05.33-.04.32-.05.33-.06.33-.05.33-.04.32-.07.33-.04.33-.07.33-.05.33-.06.32-.07.33-.05.33-.05.33-.06.32-.05.33-.05.33-.06.33-.06.33-.05.32-.06.33-.06.33-.04.33-.06.32-.06.33-.05.33-.06.33-.07.33-.06.32-.05.33-.06.33-.05.33-.07.32-.06.33-.05.33-.06.33-.06.32-.05.33-.06.33-.05.33-.07.33-.06.32-.06.33-.06.33-.06.33-.05.32-.06.33-.06.33-.06.33-.06.33-.07.32-.05.33-.06.33-.06.33-.07.32-.06.33-.07.33-.06.33-.06.33-.07.32-.06.33-.06.33-.06.33-.07.32-.06.33-.06.33-.07.33-.06.33-.06.32-.06.33-.06.33-.06.33-.06.32-.07.33-.06.33-.06.33-.06.33-.07.32-.06.33-.07.33-.06.33-.07.32-.06.33-.06.33-.07.33-.06.33-.07.32-.07.33-.07.33-.07.33-.06.32-.06.33-.07.33-.07.33-.07.32-.07.33-.06.33-.07.33-.07.33-.06.32-.06.33-.07.33-.07.33-.06.32-.07.33-.07.33-.06.33-.07.33-.07.32-.06.33-.08.33-.06.33-.08.32-.06.33-.06.33-.06.33-.07.33-.06.32-.07.33-.08.33-.06.33-.07.32-.07.33-.06.33-.07.33-.07.33-.06.32-.07.33-.07.33-.07.33-.07.32-.07.33-.06.33-.07.33-.07.33-.08.32-.06.33-.07.33-.07.33-.07.32-.08.33-.07.33-.07.33-.08.33-.07.32-.07.33-.07.33-.07.33 6.97.32-.03.33-.04.33-.04.33-.04.32-.03.33-.04.33-.03.33-.03.33-.04.32-.04.33-.03.33-.04.33-.03.32-.04.33-.04.33-.04.33-.05.33-.03.32-.04.33-.03.33-.04.33-.03.32-.04.33-.03.33-.04.33-.03.33-.05.32-.03.33-.03.33-.04.33-.04.32-.04.33-.03.33-.04.33-.03.33-.03.32-.04.33-.04.33-.04.33-.03.32-.04.33-.04.33-.04.33-.03.33-.05.32-.03.33-.04.33-.04.33-.03.32-.05.33-.04.33-.04.33-.03.32-.04.33-.04.33-.04.33-.04.33-.04.32-.04.33-.04.33-.04.33-.04.32-.04.33-.03.33-.04.33-.04.33-.04.32-.04.33-.04.33-.04.33-.04.32-.03.33-.04.33-.04.33-.03.33-.05.32-.04.33-.04.33-.03.33-.05.32-.04.33-.04.33-.04.33-.04.33-.04.32-.05.33-.04.33-.04.33-.05.32-.04.33-.05.33-.05.33-.04.33-.04.32-.04.33-.04.33-.04.33-.04.32-.05.33-.04.33-.05.33-.04.33-.05.32-.04.33-.04.33-.04.33-.05.32-.04.33-.04.33-.05.33-.04.32-.04.33-.05.33-.04.33-.04.33-.05.32-.04.33-.04.33-.04.33-.05.32-.04.33-.05.33-.04.33-.05.33-.04.32-.05.33-.04.33-.05.33-.04.32-.04.33-.04.33-.05.33-.04.33-.05.32-.04.33-.04.33-.05.33-.05.32-.04.33-.04.33-.05.33-.05.33-.05.32-.04.33-.05.33-.04.33-.05.32-.05.33-.05.33-.05.33-.04.33-.05.32-.05.33-.05.33-.04.33-.04.32-.04.33-.05.33-.05.33-.05.33-.05.32-.05.33-.05.33-.04.33-.05.32-.04.33-.05.33-.05.33-.05.32-.04.33 5.28.33-.04.33-.03.33-.03.32-.04.33-.03.33-.03.33-.03.32-.02.33-.04.33-.03.33-.03.33-.03.32-.04.33-.03.33.36.33-.02.32-.04.33-.03.33-.02.33-.04.33-.03.32-.03.33-.03.33-.03.33-.03.32-.04.33-.04.33-.03.33-.03.33-.03.32-.04.33-.03.33-.04.33-.03.32-.03.33-.03.33-.04.33-.03.33-.03.32-.04.33-.03.33-.04.33-.03.32-.04.33-.04.33-.03.33-.03.32-.03.33-.04.33-.03.33-.03.33-.04.32-.04.33-.04.33-.03.33-.04.32-.03.33-.04.33-.02.33-.04.33-.04.32-.03.33-.04.33-.04.33-.04.32-.04.33-.02.33 1.47.33-.03.33-.02.32-.03.33-.03.33-.03.33-.03.32-.03.33-.03.33-.03.33-.03.33-.02.32-.03.33-.03.33-.02.33-.03.32-.02.33-.04.33-.02.33-.04.33-.02.32-.03.33-.03.33-.03.33-.03.32-.03.33-.03.33-.04.33-.03.33-.03.32-.03.33-.03.33-.03.33-.03.32-.03.33-.02.33-.03.33-.03.32-.04.33-.03.33-.03.33-.03.33-.04.32-.03.33-.04.33-.03.33-.03.32-.03.33-.03.33-.04.33-.03.33-.03.32-.04.33-.02.33-.03.33-.03.32-.04.33-.03.33-.02.33-.03.33-.03.32-.04.33-.03.33-.03.33-.04.32-.04.33-.03.33-.03.33-.04.33-.03.32-.03.33-.04.33-.03.33-.03.32-.03.33-.03.33-.03.33-.04.33-.03.32-.03.33-.04.33-.03.33-.03.32-.03.33-.03.33-.04.33-.04.33-.04.32-.03.33-.03.33-.03.33-.04.32-.03.33-.04.33-.03.33-.03.32-.03.33-.03.33-.04.33-.03.33-.03.32-.04.33-.04.33-.03.33-.03.32-.03.33-.04.33-.03.33-.04.33-.03.32-.03.33-.04.33-.04.33-.03.32-.04.33-.04.33-.03"/><use xlink:href="#g" color="#29C3F6" transform="matrix(4.5 0 0 4.5 84.69 128.03)"/><use xlink:href="#g" color="#29C3F6" transform="matrix(4.5 0 0 4.5 107.3 42.51)"/></g><text fill="#000" stroke="none" stroke-linecap="round" stroke-linejoin="round" color="#000" font-family="KaTeX_SansSerif" font-size="8" transform="translate(238.4 30.11)"><tspan>WBSTBottomUp</tspan></text><g fill="none" stroke="currentColor" stroke-linecap="round" stroke-linejoin="round" color="#000"><path stroke="#D336C8" d="M201.4 27.51h31.4M33.56 148.27l.33 14.03.33-.44.32-4.25.33-4.61.33-4.54.33-4.81.32-4.71.33-4.4.33 7.88.33 6.57.33-2.48.32-2.54.33-2.44.33-2.6.33-2.47.32-2.91.33-2.78.33-2.44.33 4.18.33-2.32.32-2.14.33-2.23.33-2.53.33-2.33.32-2.27.33-2.44.33-2.37.33 23.36.32-1.16.33-.97.33-1.12.33-1.43.33-1.23.32-1.36.33-1.24.33-1.27.33-1.18.32-1.31.33-1.29.33 9.48.33-.72.33-.7.32-.76.33-.7.33 1.99.33-.58.32-.59.33-.58.33-.65.33-.7.33-.52.32-.65.33-.75.33-.75.33-.67.32-.76.33-.8.33-.74.33-.73.33-.67.32.43.33-.59.33-.69.33-.58.32-.73.33-.75.33-.78.33-.64.33-.62.32-.61.33-.73.33-.65.33-.13.32-.63.33-.56.33-.55.33-.6.33-.65.32-.49.33-.52.33-.57.33-.59.32-.56.33-.56.33-.55.33-.56.32 6.88.33-.29.33-.18.33-.18.33-.24.32-.2.33-.27.33-.21.33-.28.32-.25.33-.28.33-.25.33-.17.33-.25.32-.2.33-.24.33-.2.33-.31.32-.27.33-.34.33-.29.33-.25.33-.24.32-.35.33-.24.33-.25.33-.26.32-.33.33 9.76.33-.3.33-.24.33-.27.32-.3.33-.32.33-.26.33-.17.32-.29.33-.27.33-.24.33-.29.33-.33.32-.26.33-.25.33-.27.33-.32.32-.27.33-.31.33-.29.33-.31.33-.31.32-.31.33-.31.33-.31.33-.32.32-.31.33-.32.33-.34.33-.31.32-.3.33-.32.33-.33.33-.34.33-.34.32-.34.33-.33.33-.35.33-.32.32-.31.33-.33.33-.29.33-.36.33-.33.32-.34.33-.31.33-.32.33-.34.32-.35.33-.38.33-.33.33-.34.33-.34.32-.35.33-.34.33-.34.33-.34.32-.37.33-.33.33-.37.33-.33.33-.33.32-.35.33-.35.33-.35.33 11.21.32-.15.33-.16.33-.19.33-.16.33-.15.32-.17.33-.19.33-.17.33-.15.32-.14.33-.2.33-.18.33-.15.32-.17.33-.16.33-.18.33-.16.33-.18.32-.13.33-.16.33-.21.33-.19.32-.16.33-.21.33-.18.33-.2.33-.21.32-.2.33-.17.33-.19.33-.19.32-.18.33-.17.33-.17.33-.19.33-.18.32-.19.33-.16.33-.18.33-.19.32-.17.33-.19.33-.21.33-.2.33-.22.32-.21.33-.21.33-.19.33-.2.32-.2.33-.22.33-.21.33-.22.33-.15.32-.21.33-.21.33-.2.33-.21.32-.19.33-.19.33-.2.33 2.95.33-.23.32-.22.33-.19.33-.19.33-.19.32-.21.33-.2.33-.18.33-.22.32-.2.33-.22.33-.23.33-.22.33-.21.32-.23.33-.21.33-.22.33-.2.32-.2.33-.19.33-.22.33-.21.33-.22.32-.23.33-.22.33-.22.33-.2.32-.21.33 2.37.33-.15.33-.18.33-.17.32-.15.33-.16.33-.16.33-.16.32-.15.33-.18.33-.17.33-.16.33-.16.32-.18.33-.16.33-.14.33-.17.32-.17.33-.14.33-.17.33-.17.33-.18.32-.16.33-.18.33-.16.33-.17.32-.18.33-.15.33-.18.33-.17.33-.15.32-.16.33-.17.33 19.45.33-.04.32-.06.33-.04.33-.04.33-.07.32-.04.33-.04.33-.06.33-.07.33-.06.32-.04.33-.02.33-.06.33-.05.32-.04.33-.05.33-.04.33-.06.33-.07.32-.07.33-.06.33-.05.33-.05.32-.06.33-.06.33-.07.33-.05.33-.03.32-.06.33-.06.33-.06.33-.07.32-.08.33-.05.33-.05.33-.06.33-.07.32-.06.33-.06.33-.07.33-.07.32-.08.33-.07.33-.08.33-.06.33-.08.32-.07.33-.05.33-.06.33-.07.32-.07.33-.07.33-.07.33-.06.32-.07.33-.08.33-.07.33-.07.33-.07.32-.06.33-.09.33-.07.33-.08.32-.03.33-.06.33-.07.33-.08.33-.07.32-.06.33-.09.33-.07.33-.08.32.11.33-.06.33-.09.33-.07.33-.07.32-.08.33-.07.33-.07.33-.09.32-.08.33-.08.33-.08.33-.07.33-.07.32-.08.33-.08.33-.09.33-.08.32-.08.33-.09.33-.08.33-.08.33-.07.32-.1.33-.08.33-.09.33-.09.32-.08.33-.07.33-.09.33-.09.33-.09.32-.09.33-.09.33-.09.33-.06.32-.09.33-.09.33-.07.33-.09.32-.09.33-.08.33-.09.33-.08.33-.08.32-.09.33-.08.33-.09.33-.09.32-.09.33-.08.33-.09.33-.08.33-.08.32-.09.33-.09.33-.09.33-.08.32-.08.33-.07.33-.1.33-.08.33-.1.32 5.81.33-.03.33-.01.33-.03.32-.02.33-.02.33-.02h.33l.33-.02.32-.02.33-.03.33-.02.33-.04.32-.02.33-.02.33-.03.33-.01.33-.02.32-.03.33-.04.33-.02.33-.02.32-.02.33-.03.33-.03.33-.03.33-.04.32-.03.33-.02.33-.04.33-.02.32-.03.33-.03.33-.03.33-.03.32-.02.33-.04.33-.02.33-.05.33-.02.32-.03.33-.03.33-.03.33-.04.32-.03.33-.04.33-.03.33-.04.33-.02.32-.04.33-.02.33-.04.33-.02.32-.05.33-.03.33-.04.33-.04.33-.03.32-.04.33-.03.33-.02.33-.04.32-.04.33-.03.33-.04.33-.04.33-.03.32-.04.33-.02.33-.04.33-.04.32-.04.33-.03.33-.04.33-.03.33-.05.32-.02.33-.04.33-.03.33-.05.32-.06.33-.03.33-.03.33-.04.32-.04.33-.05.33-.04.33-.02.33-.04.32-.04.33-.04.33-.03.33-.04.32-.05.33-.04.33-.04.33-.04.33-.04.32-.04.33-.03.33-.06.33-.04.32-.05.33-.06.33-.04.33-.05.33-.03.32-.05.33-.04.33-.04.33-.04.32-.04.33-.04.33-.05.33-.05.33-.04.32-.04.33-.05.33-.05.33-.04.32-.03.33-.05.33-.05.33-.05.33-.05.32-.04.33-.06.33-.04.33-.05.32-.04.33-.05.33-.05.33-.05.33-.05.32-.04.33-.05.33-.05.33-.05.32-.05.33-.04.33-.04.33-.04.32-.04.33-.05.33-.05.33-.06.33.01.32-.05.33-.06.33-.05.33-.04.32-.06.33-.05.33-.05.33-.04.33-.04.32-.04.33-.06.33-.05.33-.05.32-.05.33-.05.33.57.33-.05.33-.06.32-.05.33-.05.33-.05.33-.05.32-.06.33-.05.33-.05.33-.05.33-.05.32-.06.33-.05.33-.05.33-.06.32-.06.33-.05.33-.05.33-.06.33-.06.32-.05.33-.05.33-.06.33-.06.32-.06.33-.05.33-.06.33-.06.33-.06.32-.06.33-.06.33-.05.33-.05.32-.06.33-.05.33-.05.33-.06.32-.06.33-.04.33-.06.33-.07.33-.06.32-.06.33-.05.33-.06.33-.06.32-.05.33-.06.33-.06.33-.06.33-.05.32-.04.33-.06.33-.05.33-.06.32-.06.33-.05.33-.06.33-.06.33-.06.32-.06.33-.06.33-.06.33-.06.32-.05.33-.06.33-.06.33-.05.33-.06.32-.06.33-.06.33-.06.33-.06.32-.05.33-.07.33-.06.33-.07.33-.06.32-.05.33-.07.33-.06.33-.05.32-.06.33-.06.33-.06.33-.06.32-.06.33-.06.33-.06.33-.06.33-.06.32-.06.33-.06.33-.06.33-.06.32-.06.33-.06.33-.06.33-.07.33-.05.32-.06.33-.07.33-.06.33-.06.32-.06.33-.05.33-.07.33-.05.33-.06.32-.06.33-.06.33-.06.33-.07.32-.06.33-.07.33-.06.33-.06.33-.07.32-.06.33-.06.33-.06.33-.07.32-.06.33-.07.33-.06.33-.06.33-.07.32-.06.33-.07.33-.06.33-.06.32-.07.33-.07.33-.08.33-.06.33-.07.32-.06.33-.06.33-.07.33-.06.32-.07.33-.05.33-.06.33-.06.32-.06.33-.06.33-.06.33-.06.33-.06.32-.07.33-.06.33-.07.33-.06.32-.06.33-.07.33-.05.33-.08.33-.06.32-.06.33-.07.33-.06.33-.07.32-.06.33-.06.33-.06.33-.08.33-.06.32-.06.33-.07.33-.06.33-.07.32-.06.33-.07.33-.07.33-.06.33-.07.32-.07.33-.06.33-.05.33-.07.32-.07.33-.07.33-.07.33-.06.33-.07.32-.06.33-.06.33-.07.33-.07.32-.06.33-.06.33-.07.33-.08.33-.07.32-.06.33-.06.33-.07.33-.06.32-.07.33-.06.33-.07.33-.07.32-.06.33-.06.33-.07.33-.08.33-.07.32-.07.33-.07.33-.06.33-.07.32-.07.33-.06.33-.07.33-.06.33-.07.32-.06.33-.07.33 1.44.33-.07.32-.06.33-.07.33-.07.33-.06.33-.06.32-.07.33-.06.33-.07.33-.06.32-.07.33-.07.33-.07.33-.07.33-.06.32-.07.33-.07.33-.06.33-.06.32-.07.33-.07.33-.07.33-.06.33-.07.32-.07.33-.06.33-.07.33-.07.32-.06.33-.06.33-.08.33-.06.32-.06.33-.07.33-.07.33-.07.33-.06.32-.07.33-.07.33-.08.33-.07.32-.06.33-.07.33-.07.33-.07.33-.07.32-.07.33-.08.33-.07.33-.07.32-.06.33-.07.33-.06.33-.07.33-.07.32-.07.33-.07.33-.07.33-.08.32-.06.33-.07.33-.07.33-.08.33-.06.32-.08.33-.06.33-.07.33-.07.32-.07.33-.07.33-.07.33-.07.33-.06.32-.07.33-.06.33-.07.33-.08.32-.07.33-.06.33-.08.33-.06.33-.07.32-.07.33-.07.33-.07.33-.07.32-.07.33-.07.33-.06.33-.07.32-.06.33-.07.33-.07.33-.07.33-.06.32-.07.33-.07.33-.06.33-.07.32-.06.33-.08.33-.06.33-.07.33-.07.32-.06.33-.07.33-.07.33-.08.32-.06.33-.07.33-.07.33-.07.33-.07.32-.06.33-.07.33-.06.33-.07.32-.07.33-.08.33-.07.33-.07.33-.08.32-.07.33-.08.33-.06.33-.07.32-.08.33-.07.33-.06.33-.08.33-.07.32-.07.33-.06.33-.08.33-.06.32-.07.33-.07.33-.07.33-.07.33-.08.32-.07.33-.07.33-.07.33-.07.32-.08.33-.06.33-.07.33-.07.32-.06.33-.06.33-.08.33-.08.33-.06.32-.07.33-.07.33-.07.33-.06.32-.07.33-.07.33-.06.33-.07.33-.07.32-.07.33-.07.33-.07.33-.07.32-.06.33-.07.33-.07"/><use xlink:href="#b" color="#D336C8" transform="matrix(4.5 0 0 4.5 138.77 110.08)"/><use xlink:href="#b" color="#D336C8" transform="matrix(4.5 0 0 4.5 217.1 27.51)"/></g><text fill="#000" stroke="none" stroke-linecap="round" stroke-linejoin="round" color="#000" font-family="KaTeX_SansSerif" font-size="8" transform="translate(238.4 45.11)"><tspan>WBSTTopDown</tspan></text><g fill="none" stroke="currentColor" stroke-linecap="round" stroke-linejoin="round" color="#000"><path stroke="violet" stroke-dasharray="4.5,2.0,0.5,2.0,0.5,2.0" d="M201.4 42.51h31.4M33.56 147.42l.33 14.16.33-1.85.32-4.25.33-4.7.33-4.36.33-4.75.32-4.6.33-4.33.33 7.88.33 6.87.33-2.29.32-2.48.33-2.31.33-2.51.33-2.46.32-2.75.33-2.92.33-2.65.33 4.19.33-2.39.32-2.03.33-2.2.33-2.55.33-2.41.32-2.25.33-2.32.33-2.28.33 23.3.32-1.2.33-.91.33-1.14.33-1.34.33-1.12.32-1.33.33-1.21.33-1.37.33-1.13.32-1.34.33-1.26.33 9.52.33-.65.33-.7.32-.81.33-.73.33 2 .33-.55.32-.59.33-.62.33-.61.33-.68.33-.55.32-.57.33-.77.33-.78.33-.7.32-.74.33-.79.33-.64.33-.75.33-.65.32.41.33-.63.33-.67.33-.64.32-.81.33-.78.33-.76.33-.64.33-.63.32-.67.33-.75.33-.65.33-.09.32-.65.33-.59.33-.56.33-.58.33-.63.32-.52.33-.58.33-.58.33-.61.32-.59.33-.61.33-.64.33-.56.32 6.83.33-.3.33-.21.33-.19.33-.24.32-.21.33-.29.33-.2.33-.3.32-.25.33-.31.33-.29.33-.22.33-.28.32-.24.33-.24.33-.23.33-.32.32-.28.33-.35.33-.32.33-.25.33-.26.32-.31.33-.28.33-.27.33-.27.32-.35.33 9.75.33-.29.33-.27.33-.3.32-.3.33-.33.33.07.33-.21.32-.29.33-.28.33-.27.33-.31.33-.31.32-.29.33-.29.33-.27.33-.32.32-.29.33-.33.33-.31.33-.31.33-.29.32-.34.33-.32.33-.32.33-.33.32-.26.33-.31.33-.35.33-.31.32-.3.33-.33.33-.34.33-.35.33-.34.32-.37.33-.33.33-.34.33-.33.32-.31.33-.34.33-.33.33-.35.33-.33.32-.35.33-.31.33-.34.33-.34.32-.37.33-.37.33-.34.33-.35.33-.34.32-.36.33-.33.33-.35.33-.33.32-.37.33-.35.33-.35.33-.32.33-.33.32-.36.33-.38.33-.34.33 11.19.32-.14.33-.16.33-.18.33-.16.33-.15.32-.17.33-.18.33-.17.33-.14.32-.15.33-.17.33-.19.33-.14.32-.18.33-.16.33-.19.33-.16.33-.18.32-.13.33-.18.33-.18.33-.2.32-.16.33-.2.33-.18.33-.19.33-.21.32-.19.33-.16.33-.18.33-.19.32-.18.33-.16.33-.17.33-.18.33-.17.32-.18.33-.18.33-.18.33-.18.32-.18.33-.19.33-.22.33-.19.33-.21.32-.2.33-.21.33-.19.33-.2.32-.2.33-.22.33-.21.33-.21.33-.15.32-.2.33-.2.33-.2.33-.19.32-.18.33-.19.33-.19.33 2.94.33-.22.32-.21.33-.2.33-.19.33-.19.32-.21.33-.21.33-.18.33-.22.32-.21.33-.2.33-.23.33-.2.33-.22.32-.21.33-.22.33-.23.33-.2.32-.19.33-.19.33-.23.33-.21.33-.22.32-.23.33-.21.33-.23.33-.21.32-.2.33 2.37.33-.15.33-.18.33-.17.32-.16.33-.15.33-.16.33-.16.32-.15.33-.17.33-.15.33-.16.33 1.56.32-.17.33-.16.33-.14.33-.18.32-.18.33-.14.33-.16.33-.18.33-.18.32-.16.33-.17.33-.16.33-.16.32-.17.33-.14.33-.17.33-.16.33-.16.32-.16.33-.17.33 19.45.33-.05.32-.06.33-.04.33-.04.33-.06.32-.06.33-.03.33-.04.33-.04.33-.05.32-.02.33-.05.33-.06.33-.06.32-.03.33-.05.33-.05.33-.05.33-.06.32-.08.33-.06.33-.04.33-.05.32-.06.33-.05.33-.06.33-.06.33-.04.32-.06.33-.07.33-.05.33-.06.32-.07.33-.05.33-.06.33-.06.33-.06.32-.07.33-.05.33-.07.33-.08.32-.08.33-.06.33-.07.33-.07.33-.07.32-.07.33-.07.33-.06.33-.07.32-.07.33-.08.33-.06.33-.06.32-.08.33-.07.33-.07.33-.06.33-.08.32-.06.33-.08.33-.08.33-.08.32-.03.33-.06.33-.07.33-.08.33-.07.32-.05.33-.09.33-.08.33-.08.32-.06.33-.06.33-.09.33-.07.33-.07.32-.08.33-.08.33-.07.33-.09.32-.07.33-.08.33-.08.33-.08.33-.06.32-.08.33-.08.33-.1.33-.08.32-.07.33-.08.33-.08.33-.09.33-.08.32-.1.33-.08.33-.09.33-.08.32-.09.33-.08.33-.08.33-.09.33-.1.32-.08.33-.09.33-.09.33-.05.32-.09.33-.09.33-.08.33-.09.32-.09.33-.08.33-.08.33-.09.33-.08.32-.09.33-.09.33-.09.33-.09.32-.09.33-.07.33-.1.33-.08.33-.08.32-.09.33-.09.33-.08.33-.08.32-.07.33-.08.33-.1.33-.09.33-.09.32 5.81.33-.03.33-.02.33-.02.32-.03.33-.03.33-.02h.33l.33-.02.32-.02.33-.02.33-.02.33-.04.32-.02.33-.03.33-.02.33-.02.33-.03.32-.02.33-.04.33-.02.33-.03.32-.02.33-.02.33-.04.33-.03.33-.03.32-.04.33-.02.33-.03.33-.03.32-.03.33-.03.33-.04.33-.03.32-.03.33-.03.33-.03.33-.04.33-.03.32-.03.33-.03.33-.04.33-.04.32-.02.33-.03.33-.04.33-.04.33-.03.32-.03.33-.03.33-.04.33-.02.32-.05.33-.03.33-.04.33-.04.33-.03.32-.02.33-.05.33-.02.33-.04.32-.03.33-.04.33-.05.33-.04.33-.03.32-.04.33-.02.33-.04.33-.04.32-.04.33-.04.33-.04.33-.03.33-.05.32-.03.33-.03.33-.04.33-.06.32-.05.33-.04.33-.02.33-.04.32-.05.33-.05.33-.03.33-.02.33-.05.32-.04.33-.04.33-.03.33-.05.32-.05.33-.04.33-.04.33-.05.33-.04.32-.04.33-.03.33-.06.33-.05.32-.04.33-.06.33-.05.33-.05.33-.04.32-.05.33-.05.33-.04.33-.04.32-.04.33-.04.33-.04.33-.05.33-.05.32-.04.33-.05.33-.04.33-.05.32-.03.33-.05.33-.05.33-.04.33-.06.32-.04.33-.05.33-.05.33-.04.32-.05.33-.05.33-.06.33-.05.33-.05.32-.03.33-.06.33-.04.33-.05.32-.05.33-.05.33-.05.33-.04.32-.04.33-.05.33-.05.33-.07.33.02.32-.05.33-.06.33-.05.33-.05.32-.06.33-.05.33-.05.33-.04.33-.05.32-.03.33-.06.33-.06.33-.04.32-.05.33-.05.33.57.33-.05.33-.06.32-.05.33-.06.33-.05.33-.05.32-.05.33-.06.33-.05.33-.05.33-.05.32-.05.33-.05.33-.06.33-.06.32-.06.33-.05.33-.06.33-.06.33-.06.32-.05.33-.06.33-.06.33-.06.32-.06.33-.05.33-.06.33-.05.33-.06.32-.07.33-.06.33-.05.33-.06.32-.06.33-.04.33-.06.33-.06.32-.06.33-.05.33-.05.33-.06.33-.06.32-.06.33-.06.33-.07.33-.05.32-.06.33-.06.33-.05.33-.06.33-.05.32-.05.33-.06.33-.05.33-.06.32-.05.33-.06.33-.06.33-.07.33-.06.32-.06.33-.05.33-.06.33-.06.32-.06.33-.05.33-.06.33-.05.33-.06.32-.06.33-.06.33-.05.33-.07.32-.06.33-.06.33-.06.33-.06.33-.06.32-.05.33-.06.33-.07.33-.06.32-.06.33-.06.33-.06.33-.06.32-.05.33-.07.33-.05.33-.07.33-.05.32-.06.33-.07.33-.06.33-.07.32-.06.33-.06.33-.05.33-.07.33-.06.32-.06.33-.07.33-.06.33-.07.32-.06.33-.07.33-.06.33-.06.33-.06.32-.06.33-.06.33-.06.33-.06.32-.06.33-.07.33-.07.33-.06.33-.06.32-.07.33-.06.33-.06.33-.07.32-.07.33-.07.33-.06.33-.06.33-.07.32-.06.33-.07.33-.07.33-.06.32-.07.33-.06.33-.08.33-.06.33-.07.32-.06.33-.05.33-.07.33-.06.32-.08.33-.05.33-.06.33-.07.32-.06.33-.06.33-.06.33-.06.33-.06.32-.07.33-.06.33-.07.33-.06.32-.06.33-.07.33-.06.33-.07.33-.07.32-.06.33-.07.33-.07.33-.06.32-.06.33-.05.33-.07.33-.07.33-.07.32-.06.33-.07.33-.06.33-.07.32-.07.33-.06.33-.07.33-.07.33-.06.32-.07.33-.06.33-.06.33-.06.32-.07.33-.07.33-.07.33-.07.33-.07.32-.06.33-.06.33-.07.33-.06.32-.07.33-.06.33-.07.33-.07.33-.07.32-.07.33-.06.33-.07.33-.07.32-.07.33-.07.33-.06.33-.07.32-.06.33-.07.33-.07.33-.07.33-.08.32-.07.33-.07.33-.07.33-.06.32-.07.33-.07.33-.06.33-.06.33-.07.32-.07.33-.07.33 1.44.33-.06.32-.06.33-.07.33-.07.33-.07.33-.06.32-.06.33-.06.33-.07.33-.07.32-.07.33-.07.33-.07.33-.06.33-.06.32-.07.33-.07.33-.06.33-.07.32-.06.33-.07.33-.07.33-.07.33-.06.32-.07.33-.06.33-.07.33-.07.32-.07.33-.06.33-.07.33-.06.32-.07.33-.07.33-.07.33-.07.33-.07.32-.07.33-.07.33-.07.33-.07.32-.07.33-.06.33-.07.33-.07.33-.07.32-.07.33-.08.33-.07.33-.07.32-.06.33-.07.33-.06.33-.07.33-.07.32-.07.33-.07.33-.07.33-.07.32-.07.33-.07.33-.07.33-.07.33-.07.32-.07.33-.07.33-.07.33-.07.32-.07.33-.07.33-.07.33-.07.33-.07.32-.07.33-.06.33-.07.33-.07.32-.07.33-.07.33-.07.33-.07.33-.06.32-.07.33-.07.33-.08.33-.06.32-.08.33-.07.33-.06.33-.07.32-.07.33-.07.33-.06.33-.07.33-.07.32-.07.33-.07.33-.06.33-.06.32-.07.33-.08.33-.07.33-.07.33-.06.32-.07.33-.07.33-.07.33-.08.32-.07.33-.06.33-.07.33-.07.33-.07.32-.06.33-.07.33-.07.33-.07.32-.07.33-.08.33-.07.33-.08.33-.07.32-.08.33-.07.33-.07.33-.07.32-.07.33-.08.33-.06.33-.08.33-.07.32-.07.33-.07.33-.07.33-.07.32-.06.33-.08.33-.06.33-.08.33-.07.32-.08.33-.07.33-.07.33-.07.32-.07.33-.07.33-.06.33-.08.32-.06.33-.07.33-.07.33-.07.33-.07.32-.07.33-.07.33-.07.33-.06.32-.07.33-.07.33-.07.33-.07.33-.07.32-.07.33-.07.33-.07.33-.07.32-.06.33-.07.33-.07"/><use xlink:href="#h" color="violet" transform="matrix(4.5 0 0 4.5 192.85 106.02)"/><use xlink:href="#h" color="violet" transform="matrix(4.5 0 0 4.5 217.1 42.51)"/></g><path fill="none" stroke="none" stroke-linecap="round" stroke-linejoin="round" stroke-width="0" d="M33.56 72.01V182M358.04 72.01H33.56" color="#000"/></svg>