<svg xmlns="http://www.w3.org/2000/svg" xmlns:xlink="http://www.w3.org/1999/xlink" viewBox="0 0 400 250"><path fill="none" d="M0 0h400v250H0z"/><defs><use xlink:href="#a" id="f" fill="currentColor" stroke="none"/><use xlink:href="#b" id="c" stroke="currentColor" transform="rotate(45)"/><use xlink:href="#c" id="e" fill="currentColor" stroke="none"/><path id="b" stroke="currentColor" stroke-width=".267" d="M-1-1h2v2h-2z"/><path id="a" stroke="currentColor" stroke-width=".267" d="m0-1.33-1.33 2h2.66z"/><circle id="d" cx="0" cy="0" r="1" stroke="currentColor" stroke-width=".267"/></defs><path fill="none" stroke="#333" stroke-linecap="round" stroke-linejoin="round" stroke-width=".1" d="M46.1 205V45.01" class="gridline" color="#000"/><g fill="none" stroke-linecap="round" stroke-linejoin="round" stroke-width="0" color="#000"><path d="M46.1 205v-7.5m0-152.49v7.5"/><text fill="#000" font-family="KaTeX_Main" font-size="8" text-anchor="middle" transform="translate(46.1 215.1)"><tspan> 1</tspan></text></g><path fill="none" stroke="#333" stroke-linecap="round" stroke-linejoin="round" stroke-width=".1" d="M82.31 205V45.01" class="gridline" color="#000"/><g fill="none" stroke-linecap="round" stroke-linejoin="round" stroke-width="0" color="#000"><path d="M82.31 205v-7.5m0-152.49v7.5"/><text fill="#000" font-family="KaTeX_Main" font-size="8" text-anchor="middle" transform="translate(82.31 215.1)"><tspan> 2</tspan></text></g><path fill="none" stroke="#333" stroke-linecap="round" stroke-linejoin="round" stroke-width=".1" d="M118.52 205V45.01" class="gridline" color="#000"/><g fill="none" stroke-linecap="round" stroke-linejoin="round" stroke-width="0" color="#000"><path d="M118.52 205v-7.5m0-152.49v7.5"/><text fill="#000" font-family="KaTeX_Main" font-size="8" text-anchor="middle" transform="translate(118.52 215.1)"><tspan> 3</tspan></text></g><path fill="none" stroke="#333" stroke-linecap="round" stroke-linejoin="round" stroke-width=".1" d="M154.73 205V45.01" class="gridline" color="#000"/><g fill="none" stroke-linecap="round" stroke-linejoin="round" stroke-width="0" color="#000"><path d="M154.73 205v-7.5m0-152.49v7.5"/><text fill="#000" font-family="KaTeX_Main" font-size="8" text-anchor="middle" transform="translate(154.73 215.1)"><tspan> 4</tspan></text></g><path fill="none" stroke="#333" stroke-linecap="round" stroke-linejoin="round" stroke-width=".1" d="M190.94 205V45.01" class="gridline" color="#000"/><g fill="none" stroke-linecap="round" stroke-linejoin="round" stroke-width="0" color="#000"><path d="M190.94 205v-7.5m0-152.49v7.5"/><text fill="#000" font-family="KaTeX_Main" font-size="8" text-anchor="middle" transform="translate(190.94 215.1)"><tspan> 5</tspan></text></g><path fill="none" stroke="#333" stroke-linecap="round" stroke-linejoin="round" stroke-width=".1" d="M227.15 205V45.01" class="gridline" color="#000"/><g fill="none" stroke-linecap="round" stroke-linejoin="round" stroke-width="0" color="#000"><path d="M227.15 205v-7.5m0-152.49v7.5"/><text fill="#000" font-family="KaTeX_Main" font-size="8" text-anchor="middle" transform="translate(227.15 215.1)"><tspan> 6</tspan></text></g><path fill="none" stroke="#333" stroke-linecap="round" stroke-linejoin="round" stroke-width=".1" d="M263.36 205V45.01" class="gridline" color="#000"/><g fill="none" stroke-linecap="round" stroke-linejoin="round" stroke-width="0" color="#000"><path d="M263.36 205v-7.5m0-152.49v7.5"/><text fill="#000" font-family="KaTeX_Main" font-size="8" text-anchor="middle" transform="translate(263.36 215.1)"><tspan> 7</tspan></text></g><path fill="none" stroke="#333" stroke-linecap="round" stroke-linejoin="round" stroke-width=".1" d="M299.57 205V45.01" class="gridline" color="#000"/><g fill="none" stroke-linecap="round" stroke-linejoin="round" stroke-width="0" color="#000"><path d="M299.57 205v-7.5m0-152.49v7.5"/><text fill="#000" font-family="KaTeX_Main" font-size="8" text-anchor="middle" transform="translate(299.57 215.1)"><tspan> 8</tspan></text></g><path fill="none" stroke="#333" stroke-linecap="round" stroke-linejoin="round" stroke-width=".1" d="M335.78 205V45.01" class="gridline" color="#000"/><g fill="none" stroke-linecap="round" stroke-linejoin="round" stroke-width="0" color="#000"><path d="M335.78 205v-7.5m0-152.49v7.5"/><text fill="#000" font-family="KaTeX_Main" font-size="8" text-anchor="middle" transform="translate(335.78 215.1)"><tspan> 9</tspan></text></g><path fill="none" stroke="#333" stroke-linecap="round" stroke-linejoin="round" stroke-width=".1" d="M371.99 205V45.01" class="gridline" color="#000"/><g fill="none" stroke-linecap="round" stroke-linejoin="round" stroke-width="0" color="#000"><path d="M371.99 205v-7.5m0-152.49v7.5"/><text fill="#000" font-family="KaTeX_Main" font-size="8" text-anchor="middle" transform="translate(371.99 215.1)"><tspan> 10</tspan></text></g><g fill="none" stroke-linecap="round" stroke-linejoin="round" stroke-width="0" color="#000"><path d="M371.99 205h-7.5"/><text fill="#000" font-family="KaTeX_Main" font-size="8" transform="translate(378.99 207.6)"><tspan>0.00</tspan></text></g><g fill="none" stroke-linecap="round" stroke-linejoin="round" stroke-width="0" color="#000"><path d="M371.99 182.14h-7.5"/><text fill="#000" font-family="KaTeX_Main" font-size="8" transform="translate(378.99 184.74)"><tspan>0.10</tspan></text></g><g fill="none" stroke-linecap="round" stroke-linejoin="round" stroke-width="0" color="#000"><path d="M371.99 159.29h-7.5"/><text fill="#000" font-family="KaTeX_Main" font-size="8" transform="translate(378.99 161.89)"><tspan>0.20</tspan></text></g><g fill="none" stroke-linecap="round" stroke-linejoin="round" stroke-width="0" color="#000"><path d="M371.99 136.43h-7.5"/><text fill="#000" font-family="KaTeX_Main" font-size="8" transform="translate(378.99 139.03)"><tspan>0.30</tspan></text></g><g fill="none" stroke-linecap="round" stroke-linejoin="round" stroke-width="0" color="#000"><path d="M371.99 113.58h-7.5"/><text fill="#000" font-family="KaTeX_Main" font-size="8" transform="translate(378.99 116.18)"><tspan>0.40</tspan></text></g><g fill="none" stroke-linecap="round" stroke-linejoin="round" stroke-width="0" color="#000"><path d="M371.99 90.72h-7.5"/><text fill="#000" font-family="KaTeX_Main" font-size="8" transform="translate(378.99 93.32)"><tspan>0.50</tspan></text></g><g fill="none" stroke-linecap="round" stroke-linejoin="round" stroke-width="0" color="#000"><path d="M371.99 67.87h-7.5"/><text fill="#000" font-family="KaTeX_Main" font-size="8" transform="translate(378.99 70.47)"><tspan>0.60</tspan></text></g><g fill="none" stroke-linecap="round" stroke-linejoin="round" stroke-width="0" color="#000"><path d="M371.99 45.01h-7.5"/><text fill="#000" font-family="KaTeX_Main" font-size="8" transform="translate(378.99 47.61)"><tspan>0.70</tspan></text></g><path fill="none" d="M28 45.01V205M371.99 45.01H28" color="#000"/><text stroke-linecap="round" stroke-linejoin="round" stroke-width="0" color="#000" font-family="KaTeX_Main" font-size="10" text-anchor="middle" transform="rotate(-90 68.255 56.755)"><tspan font-weight="bold">Duration </tspan><tspan> in milliseconds</tspan></text><text stroke-linecap="round" stroke-linejoin="round" stroke-width="0" color="#000" font-family="KaTeX_Main" font-size="10" text-anchor="middle" transform="translate(199.99 238.25)"><tspan>Operations / 10</tspan><tspan dy="-5" font-size="8">5</tspan></text><text stroke-linecap="round" stroke-linejoin="round" color="#000" font-family="KaTeX_Main" font-size="8" transform="translate(132.8 10.11)"><tspan>LBSTBottomUp</tspan></text><g fill="none" stroke="currentColor" stroke-linecap="round" stroke-linejoin="round" color="#000"><path stroke="#3B75EA" d="M97.3 7.51h29.9M28 184.53l.36-1.69.36-.16.37 1.94.36-1.74.36 1.55.36-1.61.36.11.37-.07.36 1.69.36.02.36-1.66.37-.06.36 1.71.36-1.63.36 1.68.36-.56.37-2.04.36-.08.36 1.81.36-.02.36-1.66.37-.07.36.08.36.05.36 1.58.36-.01.37-1.8.36.12.36 1.64.36-.01.36-1.7.37-.1.36.1.36.05.36 1.74.37-.1.36-1.64.36.06.36 1.66.36-.05.37-1.55.36-.19.36.13.36-.14.36 1.75.37.16.36-1.85.36-.02.36 1.67.36.18.37 5.13.36.87.36.54.36-.43.37.29.36.59.36-.44.36-.39.36.13.37.74.36.14.36.03.36-.73.36.52.37-.48.36-.17.36-.26.36.91.36.07.37.37.36-.45.36.86.36-.37.37-.01.36-.97.36.36.36.18.36.42.37-.79.36.24.36-.18.36-.21.36-.51.37.72.36.26.36.45.36-.41.36.56.37.26.36-.31.36-.49.36.48.36.45.37.3.36-.32.36-.51.36.49.37-.5.36-.32.36-.55.36-7.51.36 1.78.37-1.56.36-.06.36 1.54h.36l.36-1.64.37.05.36 1.5.36.1.36-1.82.36 1.89.37-1.69.36.03.36 1.3.36-.52.37-1.76.36.08.36-.04.36 1.59.36-1.61.37 1.71.36-1.6.36-.03.36 1.64.36-.16.37-1.56.36-.05.36.03.36 1.62.36-1.46.37 1.57.36-1.63.36-.01.36 1.56.36-.03.37-1.54.36-.02.36-.14.36 1.77.37-1.64.36 1.69.36-1.64.36 1.59.36-1.57.37 1.67.36-1.69.36 1.64.36-1.66.36 1.52.37 6.1.36.51.36-.02.36.04.36.75.37-.58.36-.22.36-.16.36.76.37.09.36.31.36-.87.36.46.36-.41.37-.06.36-.51.36.99.36.03.36.43.37-.45.36.81.36-.13.36-.22.36-.68.37.04.36.18.36.5.36-.65.36-.09.37.17.36-.44.36-.47.36.59.37.44.36.48.36-.5.36.45.36.46.37-.44.36-.35.36.22.36.52.36.27.37-.04.36-.68.36.48.36-.48.36-.2.37-.72.36.47.36-7.81.36 1.69.37-1.79.36 1.83.36-1.74.36 1.64.36-1.7.37 1.58.36-1.63.36 1.66.36-1.65.36 1.68.37-1.6.36 1.4.36-3.98.36 3.39.36-1.59.37 1.57.36-1.67.36 1.76.36-1.82.37 1.78.36-1.78.36 1.81.36-3.36.36 3.26.37-1.72.36 1.71.36-1.55.36 1.62.36-1.65.37 1.66.36-1.75.36 1.61.36-3.3.36 3.32.37-1.65.36 1.63.36-1.54.36 1.65.36-1.61.37 1.52.36-1.58.36 1.58.36-1.59.37 1.63.36-1.73.36 1.68.36-1.53.36 1.62.37 6.09.36.48.36-.22.36.9.36-.49.37-.08.36-.53.36.89.36.08.36.35.37-.86.36.4.36-.26.36-.17.37-.42.36.73.36.2.36.51.36-.56.37.66.36.1.36-.19.36-.6.36-.31.37.43.36.44.36-.47.36-.46.36.46.37-.52.36-.35.36.27.36.61.36.31.37-.28.36.22.36.61.36-.32.37-.35.36-.02.36.62.36.18.36.23.37-.72.36.31.36-.34.36-.03.36-.94.37.52.36.03.36-8.01.36.17.36.07.37 1.64.36-1.65.36 1.52.36-1.58.37 1.57.36-1.65.36 1.53.36-1.69.36.02.37-.14.36 1.1.36-1.58.36 1.61.36-1.69.37 1.6.36-1.68.36 1.77.36-1.65h.36l.37-.11.36 1.7.36-1.63.36 1.42.36-1.64.37 1.86.36-1.68.36 1.69.36-1.74.37.05.36-.06.36 1.64.36-1.6.36 1.72.37-1.75.36 1.67.36-1.76.36 1.73.36-.03.37-1.69.36-.02.36 1.73.36-1.53.36 1.6.37-1.66.36-.11.36.1.36 1.54.37 6.62.36-.3.36.99.36-.29.36-.09.37-.59.36.73.36.14.36.47.36-.73.37.05.36-.02.36-.22.36-.58.36.77.37.3.36.5.36-.44.36.45.37.43.36-.45.36-.46.36-.55.36.57.37.33.36-.32.36-.48.36.43.36-.46.37-.31.36.02.36.78.36.21.36.02.37-.14.36.81.36-.45.36-.13.36-.36.37.94.36-.09.36.43.36-.86.37.42.36-.34.36-.1.36-.82.36.36h.37l.36.62.36-6.79.36-1.54.36-.12.37 1.71.36-1.78.36 1.74.36-1.83.36-.02.37.15.36 1.55.36.16.36-1.77.37-.71.36 1.68.36-1.61.36 1.56.36-1.64.37-.04.36-.05.36 1.72.36.04.36-1.98.37.13.36 1.77.36-1.71.36 1.72.36.01.37-1.65.36-.13.36 1.76.36-.09.36-1.58.37-.04.36 1.72.36-1.64.36 1.59.37-.04.36-1.59.36.09.36 1.58.36-.09.37-1.69.36-.09.36.23.36-.12.36 1.77.37-.14.36-1.49.36-.08.36 1.6.36 6.14.37 1 .36.03.36-.25.36-.55.37.66.36.27.36.35.36-.54.36-.29.37.39.36-.43.36-.55.36.53.36.47.37.38.36-.36.36.34.36.51.36-.54.37-.29.36-.55.36.45.36.26.37.08.36-.87.36.55.36-.5.36-.19.37-.14.36.85.36.06.36.3.36-.34.37.91.36-.45.36-.03.36-.57.36.91.37.02.36.53.36-.74.36.14.36-.11.37-.18.36-.66.36-.09.36.23.37.49.36-.42.36-6.25.36-1.61.36-.07.37.15.36-.06.36 1.64.36-.01.36-1.79.37.1.36 1.7.36-.05.36-2.34.36-.04.37.06.36-.18.36 1.72.36-.15.37-1.56.36-.01.36 1.74.36-.11.36-1.59.37 1.65.36-1.79.36.11.36 1.68.36-.06.37-1.76.36.02.36 1.83.36-.1.36-1.81.37 1.8.36-1.65.36.02.36 1.72.36-.03.37-1.7.36-.18.36.16.36 1.57.37-1.62.36 1.72.36-1.67.36.03.36 1.69.37-.06.36-1.71.36-.04.36.17.36 8.24.37.52.36-.36.36-.44.36.47.36.4.37.41.36-.54.36-.37.36.34.37-.4.36-.39.36.16.36.76.36.15.37-.02.36.05.36.65.36-.53.36-.1.37-.75.36.5.36.06.36.29.36-.85.37.46.36-.48.36.04.36-.51.36.91.37-.03.36.58.36-.53.36.72.37-.13.36-.13.36-.49.36.78.36.13.37.48.36-.64.36-.15.36.26.36-.32.37-.62.36-.34.36.47.36.45.36-.45.37.43.36-6.61.36-1.68.36 1.77.37-1.76.36.1.36 1.57.36-.16.36-1.59.37.12.36-.08.36 1.1.36-1.82.36 1.62.37-1.69h.36l.36 1.58.36-.13.36-1.56.37 1.68.36-1.61.36 1.63.36-1.6.37 1.61.36-1.64.36.12.36-.17.36 1.7.37-1.74.36 1.66.36-1.5.36 1.58.36-1.77.37 1.66.36-1.67.36.05.36-.09.36 1.74.37-1.65.36 1.67.36-1.63.36 1.56.36-1.64.37 1.59.36-1.47.36-.05.36.04.37 1.64.36-1.74.36 1.72.36-1.62.36 8.61.37-.21.36-.35.36.23.36.63.36.28.37-.28.36-.67.36.49.36-.51.36-.19.37-.07.36.77.36.18.36.18.37-.2.36.71.36-.38.36-.09.36-.83.37.4.36.02.36.41.36-.88.36.34.37-.28.36-.07.36-.48.36.77.36.18.37.49.36-.49.36.67.36.08.36-.24.37-.49.36.58.36.36.36.47.37-.56.36-.35.36.47.36-.57.36-.4.37-.48.36.45.36.38.36-.28.36.22.37.69.36-7.19.36-1.74.36 1.83.36-1.69.37.03.36-.06.36 1.6.36-1.72.37 1.61.36-1.92.36 1.22.36-1.64.36 1.62.37-1.62.36 1.61.36-1.6.36 1.52.36-1.81.37 1.92.36-1.7.36 1.78.36-3.36.36 3.24.37-1.66.36 1.68.36-1.69.36 1.68.36-1.72.37 1.73.36-1.71.36 1.65.36-3.37.37 3.33.36-1.61.36 1.5.36-1.5.36 1.67.37-1.67.36 1.73.36-1.68.36 1.52.36-3.15.37 3.23.36-1.61.36 1.68.36-1.75.36 1.64.37-1.59.36 1.63.36-1.55.36 8.02.37.09.36-.01.36.71.36.18.36.08.37-.84.36.5.36-.58.36-.04.36-.43.37 1.01.36.01.36.46.36-.57.36.85.37-.24.36-.14.36-.76.36.2.37.22.36.41.36-.67.36.03.36-.01.37-.27.36-.58.36.72.36.32.36.43.37-.44.36.59.36.33.36-.47.36-.42.37.4.36.52.36.29.36-.24.36-.56.37.51.36-.47.36-.26.36-.74.37.54.36.14.36.06.36-.08.36.76.37-.41.36-6.65.36-1.66.36 1.63.36-1.53.37 1.55.36-1.63.36 1.54.36-1.67.36 1.45.37-2.11.36 1.48.36.07.36-1.72.37.13.36 1.62.36-1.8.36 1.69.36-1.64.37.05.36-.09.36 1.69.36.06.36-1.67.37-.13.36 1.76.36-1.62.36 1.73.36-1.86.37.13.36-.07.36 1.74.36-.12.36-1.55.37.03.36 1.55.36-1.5.36 1.48.37-1.66.36.06.36-.04.36 1.63.36.12.37-1.79.36.17.36 1.59.36-1.61.36 1.6h.37l.36-1.65.36-.12.36 8.18.36-.08.37.93.36.06.36.39.36-.97.37.38.36-.47.36-.06.36-.5.36.91.37.07.36.46.36-.4.36.68.36-.02.37-.18.36-.73.36-.05.36.23.36.53.37-.56.36-.33.36.38.36-.44.36-.5.37.5.36.47.36.36.36-.37.37.33.36.58.36-.5.36-.27.36.12.37.65.36.21.36-.07.36-.63.36.44.37-.42.36-.11.36-.87.36.47.36.09.37.41.36-.41.36.88.36-.4.37-.07.36-6.69.36.1.36-1.83.36.12.37 1.79.36-1.84.36 1.53.36-.03.36-2.32.37.1.36 1.54.36-.04.36-1.64.36.04.37-.04.36-.04.36 1.76.36-.09.37-1.72.36.07.36 1.67.36-.06.36-1.66.37.06.36.07.36-.18.36 1.79.36-.02.37-1.59.36-.11.36 1.68.36.05.36-1.8h.37l.36-.02.36.09.36 1.67.36.13.37-1.78.36-.04.36 1.7.36.14.37-1.86.36 1.71.36-1.81.36.26.36 1.66.37-.01.36-1.77.36.02"/><use xlink:href="#d" color="#3B75EA" transform="matrix(3.75 0 0 3.75 354.25 184.57)"/><use xlink:href="#d" color="#3B75EA" transform="matrix(3.75 0 0 3.75 112.25 7.51)"/></g><text stroke-linecap="round" stroke-linejoin="round" color="#000" font-family="KaTeX_Main" font-size="8" transform="translate(132.8 25.11)"><tspan>LBSTRelaxed</tspan></text><g fill="none" stroke="currentColor" stroke-linecap="round" stroke-linejoin="round" color="#000"><path stroke="violet" stroke-dasharray="4.5,2.0,0.5,2.0,0.5,2.0" d="M97.3 22.51h29.9M28 165.71l.36 7.35.36-2.96.37 2.72.36-1.51.36-9.58.36 10.64.36.96.37-4.47.36 2.7.36.79.36-4.89.37 6.3.36-5.65.36 4.76.36-.87.36-35.74.37 33.65.36 1.69.36-4.44.36 4.12.36 1.36.37-8.61.36 6.44.36-3.43.36 5.94.36-1.9.37-17.99.36 18.54.36-.16.36-4.63.36 4.99.37-8.53.36 8.1.36-1.9.36-.05.37 3.35.36-3.02.36-82.92.36 82.95.36 3.3.37-5.57.36 5.16.36-10.88.36 10.08.36-1.77.37-.93.36.36.36 3.78.36-20.08.36 18.41.37 22.18.36.54.36.33.36.21.37.27.36-.09.36-.09.36.34.36-.04.37.39.36.5.36-1.46.36.5.36.87.37.82.36.27.36-.18.36.04.36.21.37-.12.36.64.36-.73.36-2.36.37.46.36.93.36.64.36.41.36-1.23.37-.17.36.69.36.6.36.16.36-.11.37-1.51.36.45.36.75.36.58.36-.07.37.16.36-.07.36.36.36-.26.36.39.37-1.28.36-1.54.36.15.36 1.21.37.39.36.4.36-1.5.36-54.96.36 29.3.37 1.14.36-5.77.36 7.15.36.15.36-4.08.37 4.21.36-.62.36-18 .36 17.09.36-1.89.37 3.75.36-1.35.36-9.31.36 11.02.37-4.31.36-.49.36 1.29.36 3.06.36-55.4.37 54.18.36-5.58.36 7.5.36-3.99.36-3.61.37 6.12.36-.62.36-3.48.36 2.84.36.03.37-13.24.36 13.15.36-1.39.36 2.08.36-.73.37-7.36.36 7.87.36-.21.36-2.64.37-62.8.36 66.41.36.02.36-2.43.36 1.56.37-6.46.36 7.28.36-.26.36-3.76.36 5.53.37 20.65.36.13.36 2.1.36.09.36-.99.37-1.19.36.17.36 1.4.36.61.37.18.36-2.11.36.22.36.75.36 1.2h.37l.36-1.09.36-.64.36.24.36 1.26.37.5.36-.11.36-.19.36.19.36-.07.37.34.36-.72.36.19.36.08.36.01.37-.05.36.33.36-.23.36-.06.37.2.36.07.36.05.36.11.36-.93.37-.69.36.28.36 1.05.36.17.36-.1.37.51.36.48.36-.79.36-.42.36-.12.37.17.36.16.36-29.18.36-11.48.37 14.69.36-1.32.36 3.12.36-.3.36-9.19.37 10.74.36-3.68.36-.38.36-1.45.36-27.81.37 31.72.36.41.36-4.29.36 4.66.36-3.7.37-4.18.36 4.32.36 3.61.36-7.02.37 5.21.36-17.09.36 19.04.36-3.64.36.71.37-.63.36 1.88.36-8.2.36 7.27.36.12.37-2.54.36 1.84.36-103.42.36 105.01.36-.52.37-4.21.36 2.86.36 1.36.36-8.51.36 6.94.37 3.04.36-6.46.36 5.22.36-24.77.37 26.7.36-3.65.36-1.94.36 1.51.36 3.32.37 23.59.36.18.36.19.36-.05.36.22.37.05.36-.15.36-.07.36.19.36-.15.37.07.36.33.36-.29.36.09.37.06h.36l.36.14.36.2.36-.79.37.23.36.19.36-.02.36.01.36.08.37-.16.36.11.36-.11.36.23.36.05.37.1.36-.27.36-.15.36.1.36-.03.37.44.36-.07.36-.36.36.05.37.37.36.09.36-.15.36.23.36-.77.37.02.36.23.36-.12.36-.08.36.4.37-.27.36.47.36-70.5.36 45.64.36.21.37-3.16.36 1.3.36-21.23.36 22.62.37-1.72.36-1.73.36 4.06.36-.68.36-5.71.37 4.5.36-1.66.36 2.82.36.59.36-48.61.37 47.61.36-1.63.36-.35.36.15.36 3.1.37-10.1.36 8.02.36-3.58.36 5.7.36-2.22.37-18.03.36 19.24.36-.75.36-3.26.37 3.23.36-.27.36-6.68.36 5.57.36-1.48.37 4.5.36-3.26.36-42.97.36 44.64.36-60.29.37 58.15.36 2.16.36-.3.36-6.97.36 8.24.37-3.91.36 2.98.36-2.05.36-15.55.37 42.44.36.18.36.15.36-.03.36.06.37.21.36-.19.36.08.36.04.36-.04.37.18.36.01.36.33.36-.61.36.12.37.12.36.06.36-.1.36.1.37-.1.36.08.36-.07.36.28.36.25.37-.12.36-.49.36.09.36.02.36-.03.37.09.36.18.36-.15h.36l.36.49.37-.5.36-.03.36.16.36-.12.36.36.37.33.36-.72.36.35.36-.15.37.17.36.42.36-.35.36-.71.36.16.37-.03.36.08.36-26.51.36 3.76.36-4.43.37 1.13.36-8.75.36 12.58.36-1.24.36-5.61.37 4.57.36-.46.36-46.74.36 46.57.37 2.4.36-5.99.36 2.83.36-8.39.36 10.86.37-2.01.36-3.6.36 3.48.36-2.09.36-19.29.37 21.43.36.14.36-4.75.36 5 .36-8.72.37 8.56.36-2.13.36-1.87.36 4.02.36-.97.37-46.87.36-7.43.36 55.18.36-1.45.37 2.15.36-9.97.36 9.87.36-2.09.36-1.92.37 3.18.36 1.63.36-25.06.36 21.58.36 3.34.37-2.52.36-.15.36-5.5.36 6.56.36 25.3.37.07.36.12.36-.05.36.23.37.11.36-.04.36-.09.36-.01.36-.04.37.04.36.18.36-.18.36.09.36.29.37-.19.36.24.36.11.36-.71.36.19.37-.03.36.17.36-.08.36.42.37-.44.36-.02.36.18.36-.07.36.2.37.02.36-.39.36.1.36.24.36.01.37.02.36.12.36-.31.36.09.36.36.37-.05.36.16.36.15.36-.66.36.18.37-.31.36.06.36.27.36-.27.37.31.36-.3.36-64.21.36 37.97.36 1.62.37.02.36-9.91.36 9.83.36 2.26.36-7.45.37 5.74.36-13.82.36-1.01.36 13.81.36-1.15.37.73.36 1.05.36-11.08.36 10.17.37-3.5.36 4.22.36-2.59.36-29.34.36 32.05.37-2.69.36 3.05.36-2.59.36-7.36.36 10.96.37-3.66.36-.38.36-.19.36 1.41.36-12.95.37 14.01.36-5.01.36 4.45.36-2 .36-4.49.37 4.8.36 3.14.36-6.07.36-62.01.37 67.55.36 1.3.36-5.49.36 4.73.36-9.76.37 10.8.36-3.77.36-.24.36 2.09.36 24.46.37.04.36.05.36.09.36.09.36-.08.37.03.36.13.36-.07.36.23.37-.01.36-.4.36.08.36.19.36.03.37.07.36-.13.36.17.36-.23.36.08.37.07.36.09.36.03.36.22.36.34.37-.99.36.24.36-.08.36.11.36-.06.37.04.36.19.36.03.36.07.37.03.36-.03.36.48.36-.45.36-.03.37.1.36.08.36.41.36-.37.36.03.37.36.36-.38.36-.62.36.06.36.14.37-.01.36-27.25.36-14.76.36 17.84.37-4.66.36 6.44.36-3.6.36-5.75.36 7.28.37-.27.36-3.73.36 2.01.36.93.36-29.24.37 29.15.36-.91.36 1.63.36-.67.36-7.4.37 7.52.36.2.36-5.23.36 3.59.37-13.56.36 15.34.36-.25.36-2.57.36 2.54.37.32.36-6.51.36 3.86.36 1.97.36-4.56.37 5.35.36-107.28.36 108.97.36-3.81.36-1.05.37 1.16.36 3.05.36-11.82.36 10.22.36-.23.37-3.12.36 1.85.36-21.37.36 23.44.37-.54.36-5.18.36 4.71.36.1.36 25.32.37.24.36.11.36-.05.36.21.36.08.37.01.36-.21.36.07.36-.03.36.04.37.04.36.11.36-.06.36.04.37.1.36.35.36.05.36-.87.36.21.37.13.36-.2.36.05.36.13.36-.1.37-.02.36.22.36.06.36-.04.36.38.37-.52.36.07.36-.02.36.04.36.24.37.03.36-.28.36.1.36.07.37.53.36-.35.36.04.36-.62.36-.01.37.22.36-.18.36.13.36.2.36-.1.37.39.36-68.88.36 42.32.36 3.58.36-6.55.37 4.74.36-24.24.36 25.62.36-5 .37 1.42.36.82.36 2.77.36-9.06.36 7.64.37-4.85.36 6.11.36-2.76.36-46.76.36 47.6.37-1.83.36-2 .36 3.43.36-.16.36-6.8.37 6.3.36-1.84.36 2.38.36-.61.36-16.31.37 17.53.36-2.38.36.06.36-.18.37 3.19.36-8.39.36 7.21.36-4.78.36 6.2.37-1.63.36-44.7.36 43 .36-57.95.36 55.88.37 5.45.36-1.87.36-7.05.36 6.52.36-2.11.37 4.45.36-3.32.36-17.88.36 44.53.37.16.36.18.36-.11.36.15.36.02.37.02.36-.03.36.12.36-.06.36.16.37.01.36.13.36-.35.36.12.36-.07.37.19.36.03.36.05.36-.16.37.13.36.12.36.01.36.21.36.16.37-.67.36.19.36-.11.36-.02.36.16.37.04.36-.03.36-.16.36.58.36-.58.37.03.36.13.36-.13.36.4.36.27.37-.65.36.33.36.02.36-.06.37.5.36-.36.36-.69.36.26.36-.14.37.21.36-24.96.36.42.36-2.77.36 1.22.37-8.91.36 11.1.36.29.36-3.86.36 2.87.37-2.18.36-42.9.36 42.86.36 3.97.37-6.01.36 2.9.36-10.1.36 12.6.36-.48.37-5.35.36 3.69.36-.57.36-22.39.36 23.04.37 1.73.36-6.36.36 3.24.36-7.02.36 10.24.37-3.93.36-1.81.36 5.74.36-4.34.36-45.04.37-5.76.36 53.46.36-3.28.36 3.85.37-8.37.36 8.31.36-2.19.36-1.86.36 1.52.37 3.31.36-23.13.36 19.67.36 1.77.36-1.07.37 1.66.36-8.91.36 8.17.36 25.39.36.15.37.07.36-.06.36.3.36.08.37-.04.36-.14.36.03.36-.13.36.17.37.1.36-.09.36-.06.36.28.36-.17.37.17.36.22.36-.69.36.12.36.09.37.03.36.03.36.3.36-.27.36-.05.37.02.36-.05.36.21.36.12.37-.37.36.04.36.22.36.01.36.02.37.04.36-.2.36.15.36.26.36-.05.37.15.36.1.36-.51.36.24.36-.37.37.08.36.03.36-.11.36.23.37-.3.36-63.64.36 35.69.36 3.28.36 1.84.37-11.73.36 8.97.36 2.64.36-5.17.36 2.45.37-12.26.36-.89.36 12.03.36.46.36 2.59.37-.67.36-10.99.36 10.02.36-1.76.37.99.36.72.36-31.17.36 30.4.36-.94.37 4.66.36-4.1.36-7.4.36 9.12.36-.19.37-3.78.36 3.25.36-.34.36-14.61.36 15.62.37-3.37.36 2.85.36-2.08.36-6.16.36 8.25.37-.25.36-2.79.36-63.14.36 65.36.37 3.05.36-3.77.36 1.28.36-8.02.36 9.06.37-.35.36-3.7.36 5.57"/><use xlink:href="#e" color="violet" transform="matrix(3.75 0 0 3.75 67.83 154.22)"/><use xlink:href="#e" color="violet" transform="matrix(3.75 0 0 3.75 112.25 22.51)"/></g><text stroke-linecap="round" stroke-linejoin="round" color="#000" font-family="KaTeX_Main" font-size="8" transform="translate(241.1 10.11)"><tspan>WBSTBottomUp</tspan></text><g fill="none" stroke="currentColor" stroke-linecap="round" stroke-linejoin="round" color="#000"><path stroke="#000" d="M205.6 7.51h29.9M28 174.61l.36-.39.36-.09.37-.97.36 2.36.36-.47.36-1.96.36-.69.37 2.6.36.05.36-1.97.36-.65.37.12.36-.1.36 1.17.36-.51.36-.25.37 2.06.36.74.36-.21.36-2.05.36 2.15.37-2.64.36 1.59.36-2.05.36 3.1.36-2.56.37-.35.36-.57.36 2.4.36-2.63.36 1.81.37-2.49.36 4.46.36-2.92.36 2.1.37-2.81.36.95.36-1 .36 1.97.36-2.87.37 3.58.36-2.4.36 1.54.36-2.75.36 2.53.37-2.44.36-.29.36-.77.36 4.36.36-.9.37 15.49.36.43.36.34.36-.31.37.67.36-.21.36-.06.36-.31.36.44.37.54.36-.4.36-1.65.36.42.36.25.37-.26.36-.29.36.24.36.74.36.26.37-.21.36.14.36.47.36-1.61.37.05.36-.03.36.99.36-.03.36-.42.37-.58.36.95.36-.95.36.33.36-.36.37.9.36.17.36.21.36-.2.36.84.37-.78.36.2.36-.28.36.75.36.22.37-.11.36-.97.36.67.36-.23.37-.13.36-.23.36.46.36-14.43.36-1.81.37 1.89.36-1.91.36 1.24.36-2.55.36.43.37.77.36 1.04.36-1.91.36 1.19.36-1.42.37 1.99.36-2 .36 1.88.36.37.37 1.01.36-1.91.36 1.15.36-.93.36.65.37-1.79.36.79.36-1.38.36 2.23.36-1.67.37.65.36-.64.36.84.36-1.61.36.43.37 1.35.36.79.36-3.29.36 2.43.36-1.04.37 1.02.36-1.94.36 1.04.36-.44.37 1.37.36-1.83.36.78.36-3.22.36 3.16.37-1.94.36 1.1.36-.09.36 3.29.36-2.08.37 16.26.36.38.36-.32.36.43.36.14.37-.18.36-.27.36.41.36.59.37-.62.36-1.33.36.27.36.54.36-.62.37-.07.36.01.36.94.36.02.36.18.37-.3.36.9.36-1.99.36.43.36-.32.37.95h.36l.36-.23.36-.79.36.84.37-.63.36.16.36-.25.36.75.37.18.36.38.36-.27.36.5.36-.3.37-.01.36-.3.36.54.36.42.36.19.37-1.21.36.5.36.01.36-.09.36-.4.37.41.36.58.36-15.23.36-2.1.37 2.52.36-2.35.36 1.32.36-1.91.36 2.69.37-2.43.36 1.61.36-1.65.36 2.75.36-2.49.37 1.49.36-2.16.36 4.09.36-2.61.36 1.64.37-2.66.36 2.77.36-2.8h.36l.37-.88.36 3.74.36-2.67.36 1.83.36-3.01.37 2.54.36-2.4.36 1.6.36-2.68.36 2.15.37.09.36 1.54.36-2.4.36 1.8.36-1.78.37 1.28.36-2.34.36 2.48.36-1.45.36-.39.37-.49.36 1.34.36-1.39.36 1.04.37-1.95.36 2.59.36.61.36.93.36-.29.37 15.24.36-.23.36.21.36.45.36-.45.37-.01.36.07.36.75.36-.71.36-.8.37-.32.36.92.36-.97.36.29.37-.27.36 1.01.36-.07.36.32.36-.33.37.85.36-1.63.36.08.36-.24.36.7.37.34.36-.07.36-.99.36.68.36-.35.37.04.36-.33.36.6.36.35.36.35.37-.36.36.53.36-.05.36-.15.37-.36.36.43.36.56.36.31.36-1.24.37.32.36.26.36-.27.36-.21.36.1.37.82.36.07.36-17.28.36.68.36 1.06.37-1.94.36 1.06.36.45.36.99.37-1.78.36.87.36.93.36-2.6.36-.13.37.67.36 1.55.36.87.36-1.86.36-1.02.37.99.36.61.36.09.36-2.85.36 1.77.37 1.32.36-1.87.36.69.36-1.07.36-.54.37-.46.36 1.1.36 1.8.36-1.29.37-.45.36 1.25.36-1.7.36 1.63.36-2.06.37-.42.36.17.36 2.47.36-.87.36-1.92.37-.23.36 1.94.36-2.33.36 1.31.36.02.37 1.76.36-.98.36 1.46.36-.85.37 15.87.36-.02.36.75.36-.83.36.24.37-.19.36.89.36-.84.36-.28.36-.65.37.86.36-.75.36.18.36-.37.36.87.37.2.36.2.36-.26.36.77.37-1.22.36-.18.36-.31.36.63.36.38.37.04.36-1.1.36.56.36-.13.36-.02.37-.39.36.46.36.51.36.39.36-.38.37.35.36.32.36-.29.36-.39.36.3.37.71.36.16.36-.85.36-.1.37.68.36-.83.36.14.36-.12.36.92.37-.02.36.24.36-16.74.36-.74.36 1.14.37-1 .36 3.46.36-.98.36-1.55.36-1.22.37 2.7.36-.96.36-1.79.36-1.08.37 2.66.36-.37.36 1.6.36-.93.36-.95.37-.54.36 1.3.36-.77.36-.57.36-.11.37-.11.36-.74.36 1.8.36-.05.36-2.14.37-.64.36 2.57.36 1.32.36-2.33.36-.41.37-.06.36.28.36.87.36-.34.37-1.88.36 1.16.36 1.06.36-.08.36-2.46.37 2.34.36-2.69.36-.04.36.84.36 4.07.37-2.65.36.02.36-.97.36 2.91.36 14.35.37 1.06.36-.87.36.17.36-.28.37.75.36-.64.36-.15.36-.79.36.74.37-.52.36.05.36-.2.36.6.36.31.37.23.36-.24.36.64.36-.78.36-.52.37-.4.36.64.36.39.36.29.37-1.19.36.34.36.18.36-.26.36-.25.37.3.36.64.36.22.36-.06.36.05.37.61.36-.7.36.03.36-.07.36.9.37-.07.36-.42.36-.53.36 1 .36-.94.37.35.36-.32.36.79.36.04.37.34.36-.76.36-15.97.36 2.19.36-2.62.37 1.64.36 1.02.36-.3.36-2.72.36.78.37-.68.36 1.55.36-2.66.36 3.47.36-1.17.37-.38.36.95.36-.25.36-1.25.37-.67.36-.53.36 2.28.36-.97.36.86.37-1.8.36-.55.36 2.16.36-.77.36-1.94.37 1.91.36.31.36.69.36-1.75.36 1.12.37-1.11.36-1.1.36 1.8.36-.75.36.07.37.7.36-1.86.36.79.36-.52.37.57.36-1.59.36-1.44.36 4.5.36.76.37-1.62.36.6.36-.96.36 1.13.36 16.21.37-.63.36.19.36-.3.36.44.36-.38.37.03.36-.95.36.61.36-.21.37-.06.36-.34.36.45.36.51.36.37.37-.39.36.49.36-.33.36-.77.36-.38.37.39.36.74.36.22.36-1.2.36.13.37.52.36-.53h.36l.36-.03.36.76.37.17.36.14.36-.25.36.9.37-.92.36.35.36-.32.36.88.36.01.37-.16.36-.75.36.73.36-.58.36.16.37-.27.36.58.36.36.36.4.36-.97.37.23.36-16.08.36 1.07.36-.2.37-.19.36-.29.36.73.36-1.54.36 1.53.37-2.04.36.93.36-.44.36 2.62.36-2.25.37 1.35.36-3.45.36 3.5.36-2.29.36 1.07.37-1.35.36 2.72.36-2.55.36 1.49.37-2.41.36 2.41.36-2.43.36 1.46.36-2.02.37 3.98.36-2.47.36 1.75.36-3 .36 2.9.37-2.91.36 2 .36-2.92.36 3.92.36-2.98.37 1.98.36-2.76.36 2.66.36-2.68.36-.01.37-1.08.36 4.97.36-1.47.36 1.36.37-2.56.36 2.21.36-2.07.36 1.25.36 16.05.37.08.36-.41.36.24.36-.12.36.16.37-1.2.36.58.36.18.36-.31.36-.33.37.39.36.58.36.38.36-.29.37.21.36.13.36-1.21.36-.08.36.18.37.67.36.22.36-.7.36-.35.36.83.37-.89.36.27.36-.28.36.92.36.07.37.32.36-.38.36.84.36-.62.36.06.37-.21.36.77.36.2.36-.02.37-.99.36.68.36-.37.36.02.36-.37.37.63.36.41.36.18.36-.96.36.32.37-.05.36-16.42.36.9.36.47.36 1.09.37-2.27.36 1.44.36-1.38.36.9.37-2.03.36 2.06.36-.06.36-.61.36-.12.37.77.36-.98.36.92.36-1.65.36.91.37.01.36.87.36-.43.36-2.51.36 1.17.37.53.36-1.48.36.46.36 1.34.36-.61.37-.07.36.45.36 1.13.36-2.73.37.05.36.45.36.15.36 1.05.36-1.84.37-.75.36.48.36 1.14.36-.11.36-2.61.37 2.24.36 2.72.36-2.1.36 1.06.36-1.51.37-.01.36-.47.36 1.02.36 16.63.37-.33.36-.13.36.2.36.28.36-1.37.37.54.36.29.36-.38.36-.16.36.23.37.71.36.26.36-.22.36.04.36.66.37-1.76.36.21.36-.2.36.96.37.06.36-.35.36-.74.36.98.36-.89.37.22.36-.27.36.86.36.18.36.17.37-.17.36.63.36-.47.36.19.36-.35.37.64.36.32.36-.01.36-1.05.36.51.37-.02.36-.11.36-.29.36.41.37.48.36.38.36-1.22.36.28.36.27.37-.32.36-14.25.36-.57.36-.59.36 1.33.37-2.11.36 1.97.36-2.52.36-.29.36-.28.37 4.05.36-.83.36-1.86.36-.88.37 2.64.36-2.45.36 1.52.36-1.06.36.42.37-1.16.36 1.95.36-1.02.36-.82.36-.87.37-.05.36-1.23.36 4.61.36-.65.36-1.62.37-.96.36 2.27.36-.57.36-1.83.36-.9.37 1.34.36-.2.36 1.19.36-.71.37-1.46.36-.04.36 1.39.36-.77.36-.25.37 1.97.36-.74.36-.25.36 1.23.36.51.37-2.46.36-.27.36 1.45.36 16.21.36-.34.37.46.36.12.36-.92.36-.08.37.74.36-.73.36.16.36-.2.36.92.37.09.36.22.36-.25.36.92.36-1.87.37.21.36-.24.36.9.36.03.36-.13.37-.88.36.8.36-.51.36.1.36-.33.37.72.36.31.36.24.36-.29.37.5.36-.18.36.03.36-.4.36.54.37.4.36.27.36-1.25.36.52.36.1.37-.17.36-.31.36.29.36.55.36.28.37-1.07.36.18.36.47.36-.61.37.02.36-13.33.36-2.1.36 1.68.36-2.41.37.71.36.6.36-.26.36-2.41.36 2.61.37.9.36-.05.36-2.72.36 2.95.36-2.55.37-.31.36.86.36 1.83.36-2.59.37.07.36-1.04.36 2.42.36-2.35.36 1.59.37-2.59.36 2.05.36 1.63.36-.14.36-2.49.37.32.36-.25.36 1.43.36-2.34.36 2.17.37-1.08.36-.58.36 1.24.36-.25.36-1.36.37-.78.36-.43.36 2.28.36 1.15.37.79.36-1.84.36-.56.36 2.35.36-.91.37-1.98.36 1.02.36.1"/><use xlink:href="#a" transform="matrix(3.75 0 0 3.75 125.4 189.55)"/><use xlink:href="#a" transform="matrix(3.75 0 0 3.75 220.55 7.51)"/></g><text stroke-linecap="round" stroke-linejoin="round" color="#000" font-family="KaTeX_Main" font-size="8" transform="translate(241.1 25.11)"><tspan>WBSTRelaxed</tspan></text><g fill="none" stroke="currentColor" stroke-linecap="round" stroke-linejoin="round" color="#000"><path stroke="#FFAB00" stroke-dasharray="4.0,2.0,1.0,2.0" d="M205.6 22.51h29.9M28 166.68l.36 6.83.36-4.56.37-12.08.36 11.73.36 2.75.36-.46.36-3.26.37 3.92.36-1.38.36.07.36-49.67.37 50.83.36-1.23.36 1.61.36-4.35.36 4.2.37-.78.36-.12.36-11.1.36 8.44.36 4.58.37-6.96.36 5.31.36-2.55.36 3.36.36-24.38.37 25.76.36-4.63.36 3.22.36-5.95.36 6.69.37-3.81.36 1.72.36-15.22.36 17.33.37-3.25.36-4.25.36 5.57.36-.64.36-.08.37-65.89.36 67.3.36-.64.36.5.36-4.34.37 3.69.36.11.36-.36.36-9.86.36 8.03.37 28.15.36.26.36.13.36.13.37-.1.36.23.36.03.36.02.36-.2.37.15.36.06.36-.1.36.27.36.04.37.67.36-.97.36.07.36-.05.36.24.37-.1.36.24.36.15.36-.36.37-.16.36.36.36.28.36-.18.36-.02.37.37.36.31.36-.99.36-.33.36-.02.37.3.36-.26.36.08.36.07.36.18.37-.35.36.17.36.14.36.12.36-.15.37.36.36.02.36-.33.36-.18.37.12.36.3.36-.08.36-71.11.36 42.76.37 1.86.36.79.36-1.59.36-4.39.36 2.66.37-5.14.36 8.81.36-2.67.36-1.22.36-.03.37 4.05.36-20.26.36 21.1.36-4.24.37-2.86.36 5.3.36-.31.36-2.58.36-8.33.37 8.3.36 3.15.36-5.01.36 3.28.36-35.09.37 36.1.36-3.17.36 5.87.36-3.88.36-1.53.37-7.74.36 13.43.36-6.04.36 2.75.36-5.6.37 5.74.36-18.36.36 17.53.36.87.37-.96.36-.14.36-4.77.36-3.08.36 8.76.37-1.56.36-1.52.36-2.32.36 6.78.36-4.1.37 29.05.36.41.36.04.36-.31.36.17.37.19.36.04.36.02.36.2.37.14.36-.37.36-.34.36.15.36.25.37-.06.36.12.36.14.36.63.36-.92.37.32.36-.07.36.43.36-.09.36.29.37.29.36-1.74.36.3.36-.06.36.05.37.1.36.21.36-.06.36.21.37-.34.36.17.36.27.36.16.36-.2.37-.45.36.1.36.12.36-.07.36.29.37.26.36-.43.36.2.36.09.36.2.37.19.36.13.36-72.39.36 44.98.37.37.36-3.24.36 1.34.36-.03.36-5.91.37 6.12.36-2.59.36 1.79.36 3.46.36-4.13.37-15.56.36 18.31.36-.85.36.31.36 1.37.37-4.92.36-2.71.36 3.28.36.21.37 3.12.36 2.91.36-5.43.36 2.84.36-35.92.37 34.26.36 2.39.36-3.68.36 2.49.36 1.85.37-13.2.36 11.29.36.89.36-2.91.36 1.53.37.91.36-26.91.36 28.73.36-3.9.36-.79.37 3.07.36-1.33.36-11.9.36 15.14.37-2.31.36-6.19.36 6.7.36-1.61.36-.76.37 27.93.36.18.36.12.36.06.36.07.37.27.36-.26.36.11.36.19.36-.03.37.05.36.23.36-.25.36-.3.37.3.36.05.36-.02.36.26.36-.22.37.02.36.25.36.04.36.08.36.22.37.77.36-2.06.36.23.36.15.36-.16.37.33.36.03.36-.25.36.13.36.16.37-.07.36.26.36-.02h.36l.37-.38.36.09.36.21.36.03.36.15.37-.23.36.1.36.25.36.27.36-.31.37.68.36.07.36-78.24.36 50.62.36 1.5.37-5.76.36 5.4.36 1.2.36-10.74.37 6.8.36 4.14.36-8.07.36 5.2.36-.54.37-24.51.36 27.12.36-2.45.36-.95.36 1.99.37-2.75.36-5 .36 8.34.36.18.36-5.84.37 5.14.36-2.98.36-10.21.36-36.89.36 48.42.37 1.07.36-4.5.36 3.64.36 2.53.37-9.22.36 5.61.36 2.62.36-3.19.36 1.76.37.96.36-16.97.36 14.01.36 3.41.36-3.51.37 4.06.36-4.23.36-5.99.36 11.13.36-3.37.37-3.52.36 3.93.36-1.47.36-21.04.37 49.3.36.24.36.15.36-.08.36.11.37.4.36-.33.36-.02.36.27.36-.12.37.3.36.22.36-.37.36-.12.36.13.37-.02.36.12.36.31.36-.08.37-.18.36.03.36.16.36.12.36.17.37.58.36-1.85.36.25.36.19.36-.11.37.05.36.42.36-.26.36-.05.36.1.37-.01.36.19.36.02.36.06.36-.36.37.03.36.04.36.22.36-.01.37.17.36-.26.36.32.36.3.36-.26.37.23.36.27.36-70.72.36 43.67.36-4.19.37 4.61.36-.8.36 1.66.36-11.54.36 9.24.37.74.36-5.62.36 6.24.36.21.37-20.82.36 18.06.36 3.7.36-3.8.36.23.37 3.61.36-13.21.36 12.64.36-1.64.36-2.83.37 2.87.36-1.95.36-36.22.36 40.91.36-4.1.37-.92.36.7.36 1.08.36-7.2.36 9.59.37-7.93.36 5.8.36-2.87.36 3.64.37-20.93.36 20.98.36-3.6.36 2.29.36 3.24.37-13.1.36 10.13.36-2 .36.37.36-2.78.37 3.68.36-.79.36.29.36-46.48.36 74.15.37.31.36.17.36-.11.36.25.37.05.36-.14.36.02.36.28.36-.13.37.4.36.07.36-.11.36-.47.36.1.37.23.36-.04.36-.02.36.1.36-.22.37.29.36.05.36.1.36.45.37-.19.36-1.18.36.2.36.03.36.03.37.17.36.06.36-.23.36.2.36.2.37-.14.36.16.36.3.36-.35.36-.06.37-.06.36.07.36.11.36.11.36.08.37-.14.36.35.36-.04.36-.05.37.2.36-.06.36-26.46.36-1.51.36.03.37-2.63.36 2.36.36 1.99.36-2.16.36-28.66.37 30.14.36-2 .36 3.75.36-7.71.36 5.44.37.13.36-.55.36-9.69.36 10.41.37-.94.36.56.36-3.94.36 2.23.36.01.37.87.36-25.13.36 26.53.36 2.94.36-5.12.37 3.14.36-6.98.36 6.87.36-5.38.36 4.39.37-15.73.36 17.06.36-5.05.36 4.03.36-6.66.37 6.54.36-4.22.36 2.91.36-54.81.37 58.17.36-5.85.36 4.89.36-6.54.36 6.71.37-4.72.36 4.1.36-72.28.36 71.95.36 25.14.37.18.36.11.36-.04.36.06.36.41.37-.46.36.19.36.15.36-.11.37.13.36.25.36-.45.36.07.36.06.37-.06.36.16.36.3.36-.29.36.02.37.11.36.09.36.24.36-.04.36-.25.37-.52.36.15.36.12.36.01.36.04.37.02.36.17.36.04.36-.3.37.03.36.14.36.25.36-.12.36.09.37.01.36.32.36-.61.36.47.36.04.37.4.36-.31.36.29.36.19.36-.01.37-1.06.36-25 .36-2.89.36.25.37 2.04.36-10.93.36 12.78.36-3.49.36-2.24.37 2.71.36-.54.36-17.05.36 21.34.36-4.69.37-2.04.36 3.97.36-.82.36-9.15.36 10.44.37-2.52.36-3.64.36 5.78.36-.98.37-48.14.36 46.66.36 1.01.36 2.43.36-5.91.37 4.27.36-2.16.36-9.42.36 11.54.36.62.37-7.11.36 8.73.36-4.61.36-12.27.36 14.24.37-1.88.36-1.46.36 1.73.36 1.19.36-6.22.37 5.19.36 1.44.36-4.56.36-60.98.37 65.72.36-2.66.36-1.85.36 6.9.36 23.69.37.15.36.1.36.02.36.15.36.03.37.32.36-.37.36-.2.36.09.36.1.37-.02.36.09h.36l.36.19.37-.01.36-.2.36.09.36.09.36.16.37-.11.36.22.36.05.36-.14.36-.54.37.17.36.12.36.03h.36l.36.41.37-.38.36.49.36-.38.36.18.36.05.37.23.36-.64.36.14h.36l.37.36.36-.21.36.21.36-.22.36.04.37.22.36.17.36.27.36-.56.36-.75.37.12.36-30.59.36 6.32.36-11.75.36 10.87.37-2.15.36.57.36.73.36-30.69.37 31.64.36-1.17.36.3.36-4.07.36 2.66.37.63.36-10.38.36 10.08.36 2.59.36-5.91.37-28.32.36 32.57.36-18.02.36 19 .36-1.91.37-4.59.36 5.19.36.93.36-9.33.36 9.36.37-1.79.36 2.8.36-6.73.36 5.39.37-1.5.36-20.47.36 19.65.36-54.94.36 54.62.37 2.12.36-1.7.36-7.69.36-6.11.36 16.31.37-2.46.36 2.52.36-1.7.36 2.24.36-9.08.37 5.89.36 1.05.36-3.31.36 29.98.37.09.36.18.36.01h.36l.36.08.37.14.36-.06.36.1.36.03.36-.36.37.17.36.01.36.16.36.02.36-.03.37.01.36.21.36.06.36-.01.37-.04.36-.08.36-.12.36-.34.36.08.37.19.36.12.36.07.36.11.36-.17.37.23.36-.02.36.5.36-.61.36-.25.37.23.36-.15.36.45.36.12.36.04.37.28.36.21.36-.27.36-1.02.37.21.36.04.36-.17.36.45.36-.51.37.32.36-29.31.36-14.09.36 18.27.36-1.82.37-7.47.36 10.83.36-42.51.36 39.62.36-7.49.37 6.47.36 2.19.36-3.12.36 1.96.37-.65.36-22.25.36 22.33.36 3.18.36-5.68.37 1.66.36 2.3.36-10.38.36 8.91.36 2.35.37-37.37.36 37.28.36-1.63.36-2.42.36-4.34.37 6.86.36-.78.36 1.25.36-2.96.36-.52.37 1.39.36-2.65.36-9.1.36 6.78.37 7.26.36-10.05.36 8.97.36-2.49.36 3.9.37-5.99.36 3.78.36-1.78.36-12.79.36-12.8.37 26.1.36-5.39.36 7.72.36 25.77.36.18.37.09.36-.03.36.12.36.03.37.34.36-.41.36.25.36-.03.36.3.37-.05.36.06.36.49.36-1.09.36.12.37.14.36.03.36.23.36.02.36.36.37-.61.36.26h.36l.36.42.36-.35.37.36.36.36.36-1.25.36.17.37-.11.36.11.36.13.36-.2.36.14.37.06.36.07.36.12.36.35.36-.71.37.11.36.04.36.14.36.16.36-.02.37.27.36-.41.36.28.36.21.37-.23.36-65.44.36 40.9.36-5.14.36 2.91.37-10.42.36 11.5.36-.55.36-.68.36-3.46.37 1.92.36 1.36.36-22.55.36 25.12.36-3.89.37-1.13.36-25.54.36 30.13.36-2.25.37-.16.36.75.36-4.39.36.29.36 3.9.37-4.81.36 7.01.36-5.06.36-11.1.36 12.96.37-.59.36 1.93.36-1.47.36-4.96.36 6.47.37-5.82.36 7.3.36-4.53.36-26.59.36 27.48.37 3.95.36-5.32.36.78.36-5.79.37 8.51.36-1.44.36-.94.36-.09.36-13.81.37 16.09.36-.51.36-3.37"/><use xlink:href="#f" color="#FFAB00" transform="matrix(3.75 0 0 3.75 182.98 168.35)"/><use xlink:href="#f" color="#FFAB00" transform="matrix(3.75 0 0 3.75 220.55 22.51)"/></g><path fill="none" d="M28 45.01V205M371.99 45.01H28" color="#000"/></svg>