<svg xmlns="http://www.w3.org/2000/svg" xmlns:xlink="http://www.w3.org/1999/xlink" viewBox="0 0 400 250"><path fill="none" d="M0 0h400v250H0z"/><defs><path id="g" stroke="currentColor" stroke-width=".267" d="M-1 0h2M0-1v2"/><path id="d" stroke="currentColor" stroke-width=".267" d="M-1-1h2v2h-2z"/><path id="b" stroke="currentColor" stroke-width=".267" d="m0-1.33-1.33 2h2.66z"/><path id="f" stroke="currentColor" stroke-width=".267" d="M0 1.33 1.265.411.782-1.067l-1.564-.009-.483 1.487z"/><use xlink:href="#b" id="c" stroke="currentColor" transform="rotate(180)"/><use xlink:href="#d" id="e" stroke="currentColor" transform="rotate(45)"/><circle id="a" cx="0" cy="0" r="1" stroke="currentColor" stroke-width=".267"/></defs><path fill="none" stroke="#333" stroke-linecap="round" stroke-linejoin="round" stroke-width=".1" d="M46.1 205V45.01" class="gridline" color="#000"/><g fill="none" stroke="none" stroke-linecap="round" stroke-linejoin="round" stroke-width="0" color="#000"><path d="M46.1 205v-7.5m0-152.49v7.5"/><text fill="#000" font-family="KaTeX_Main" font-size="8" text-anchor="middle" transform="translate(46.1 215.1)"><tspan> 1</tspan></text></g><path fill="none" stroke="#333" stroke-linecap="round" stroke-linejoin="round" stroke-width=".1" d="M82.31 205V45.01" class="gridline" color="#000"/><g fill="none" stroke="none" stroke-linecap="round" stroke-linejoin="round" stroke-width="0" color="#000"><path d="M82.31 205v-7.5m0-152.49v7.5"/><text fill="#000" font-family="KaTeX_Main" font-size="8" text-anchor="middle" transform="translate(82.31 215.1)"><tspan> 2</tspan></text></g><path fill="none" stroke="#333" stroke-linecap="round" stroke-linejoin="round" stroke-width=".1" d="M118.52 205V45.01" class="gridline" color="#000"/><g fill="none" stroke="none" stroke-linecap="round" stroke-linejoin="round" stroke-width="0" color="#000"><path d="M118.52 205v-7.5m0-152.49v7.5"/><text fill="#000" font-family="KaTeX_Main" font-size="8" text-anchor="middle" transform="translate(118.52 215.1)"><tspan> 3</tspan></text></g><path fill="none" stroke="#333" stroke-linecap="round" stroke-linejoin="round" stroke-width=".1" d="M154.73 205V45.01" class="gridline" color="#000"/><g fill="none" stroke="none" stroke-linecap="round" stroke-linejoin="round" stroke-width="0" color="#000"><path d="M154.73 205v-7.5m0-152.49v7.5"/><text fill="#000" font-family="KaTeX_Main" font-size="8" text-anchor="middle" transform="translate(154.73 215.1)"><tspan> 4</tspan></text></g><path fill="none" stroke="#333" stroke-linecap="round" stroke-linejoin="round" stroke-width=".1" d="M190.94 205V45.01" class="gridline" color="#000"/><g fill="none" stroke="none" stroke-linecap="round" stroke-linejoin="round" stroke-width="0" color="#000"><path d="M190.94 205v-7.5m0-152.49v7.5"/><text fill="#000" font-family="KaTeX_Main" font-size="8" text-anchor="middle" transform="translate(190.94 215.1)"><tspan> 5</tspan></text></g><path fill="none" stroke="#333" stroke-linecap="round" stroke-linejoin="round" stroke-width=".1" d="M227.15 205V45.01" class="gridline" color="#000"/><g fill="none" stroke="none" stroke-linecap="round" stroke-linejoin="round" stroke-width="0" color="#000"><path d="M227.15 205v-7.5m0-152.49v7.5"/><text fill="#000" font-family="KaTeX_Main" font-size="8" text-anchor="middle" transform="translate(227.15 215.1)"><tspan> 6</tspan></text></g><path fill="none" stroke="#333" stroke-linecap="round" stroke-linejoin="round" stroke-width=".1" d="M263.36 205V45.01" class="gridline" color="#000"/><g fill="none" stroke="none" stroke-linecap="round" stroke-linejoin="round" stroke-width="0" color="#000"><path d="M263.36 205v-7.5m0-152.49v7.5"/><text fill="#000" font-family="KaTeX_Main" font-size="8" text-anchor="middle" transform="translate(263.36 215.1)"><tspan> 7</tspan></text></g><path fill="none" stroke="#333" stroke-linecap="round" stroke-linejoin="round" stroke-width=".1" d="M299.57 205V45.01" class="gridline" color="#000"/><g fill="none" stroke="none" stroke-linecap="round" stroke-linejoin="round" stroke-width="0" color="#000"><path d="M299.57 205v-7.5m0-152.49v7.5"/><text fill="#000" font-family="KaTeX_Main" font-size="8" text-anchor="middle" transform="translate(299.57 215.1)"><tspan> 8</tspan></text></g><path fill="none" stroke="#333" stroke-linecap="round" stroke-linejoin="round" stroke-width=".1" d="M335.78 205V45.01" class="gridline" color="#000"/><g fill="none" stroke="none" stroke-linecap="round" stroke-linejoin="round" stroke-width="0" color="#000"><path d="M335.78 205v-7.5m0-152.49v7.5"/><text fill="#000" font-family="KaTeX_Main" font-size="8" text-anchor="middle" transform="translate(335.78 215.1)"><tspan> 9</tspan></text></g><path fill="none" stroke="#333" stroke-linecap="round" stroke-linejoin="round" stroke-width=".1" d="M371.99 205V45.01" class="gridline" color="#000"/><g fill="none" stroke="none" stroke-linecap="round" stroke-linejoin="round" stroke-width="0" color="#000"><path d="M371.99 205v-7.5m0-152.49v7.5"/><text fill="#000" font-family="KaTeX_Main" font-size="8" text-anchor="middle" transform="translate(371.99 215.1)"><tspan> 10</tspan></text></g><g fill="none" stroke="none" stroke-linecap="round" stroke-linejoin="round" stroke-width="0" color="#000"><path d="M371.99 205h-7.5"/><text fill="#000" font-family="KaTeX_Main" font-size="8" transform="translate(378.99 207.6)"><tspan>0.00</tspan></text></g><g fill="none" stroke="none" stroke-linecap="round" stroke-linejoin="round" stroke-width="0" color="#000"><path d="M371.99 189h-7.5"/><text fill="#000" font-family="KaTeX_Main" font-size="8" transform="translate(378.99 191.6)"><tspan>1.00</tspan></text></g><g fill="none" stroke="none" stroke-linecap="round" stroke-linejoin="round" stroke-width="0" color="#000"><path d="M371.99 173h-7.5"/><text fill="#000" font-family="KaTeX_Main" font-size="8" transform="translate(378.99 175.6)"><tspan>2.00</tspan></text></g><g fill="none" stroke="none" stroke-linecap="round" stroke-linejoin="round" stroke-width="0" color="#000"><path d="M371.99 157h-7.5"/><text fill="#000" font-family="KaTeX_Main" font-size="8" transform="translate(378.99 159.6)"><tspan>3.00</tspan></text></g><g fill="none" stroke="none" stroke-linecap="round" stroke-linejoin="round" stroke-width="0" color="#000"><path d="M371.99 141h-7.5"/><text fill="#000" font-family="KaTeX_Main" font-size="8" transform="translate(378.99 143.6)"><tspan>4.00</tspan></text></g><g fill="none" stroke="none" stroke-linecap="round" stroke-linejoin="round" stroke-width="0" color="#000"><path d="M371.99 125h-7.5"/><text fill="#000" font-family="KaTeX_Main" font-size="8" transform="translate(378.99 127.6)"><tspan>5.00</tspan></text></g><g fill="none" stroke="none" stroke-linecap="round" stroke-linejoin="round" stroke-width="0" color="#000"><path d="M371.99 109.01h-7.5"/><text fill="#000" font-family="KaTeX_Main" font-size="8" transform="translate(378.99 111.61)"><tspan>6.00</tspan></text></g><g fill="none" stroke="none" stroke-linecap="round" stroke-linejoin="round" stroke-width="0" color="#000"><path d="M371.99 93.01h-7.5"/><text fill="#000" font-family="KaTeX_Main" font-size="8" transform="translate(378.99 95.61)"><tspan>7.00</tspan></text></g><g fill="none" stroke="none" stroke-linecap="round" stroke-linejoin="round" stroke-width="0" color="#000"><path d="M371.99 77.01h-7.5"/><text fill="#000" font-family="KaTeX_Main" font-size="8" transform="translate(378.99 79.61)"><tspan>8.00</tspan></text></g><g fill="none" stroke="none" stroke-linecap="round" stroke-linejoin="round" stroke-width="0" color="#000"><path d="M371.99 61.01h-7.5"/><text fill="#000" font-family="KaTeX_Main" font-size="8" transform="translate(378.99 63.61)"><tspan>9.00</tspan></text></g><g fill="none" stroke="none" stroke-linecap="round" stroke-linejoin="round" stroke-width="0" color="#000"><path d="M371.99 45.01h-7.5"/><text fill="#000" font-family="KaTeX_Main" font-size="8" transform="translate(378.99 47.61)"><tspan>10.00</tspan></text></g><path fill="none" stroke="none" stroke-linecap="round" stroke-linejoin="round" stroke-width="0" d="M28 45.01V205M371.99 45.01H28" color="#000"/><text fill="#000" stroke="none" stroke-linecap="round" stroke-linejoin="round" stroke-width="0" color="#000" font-family="KaTeX_Main" font-size="10" text-anchor="middle" transform="rotate(-90 68.255 56.755)"><tspan font-weight="bold">Rotations</tspan><tspan> / Operation</tspan></text><text fill="#000" stroke="none" stroke-linecap="round" stroke-linejoin="round" stroke-width="0" color="#000" font-family="KaTeX_Main" font-size="10" text-anchor="middle" transform="translate(199.99 238.25)"><tspan>Operations × 10</tspan><tspan dy="-5" font-size="8">5</tspan></text><text fill="#000" stroke="none" stroke-linecap="round" stroke-linejoin="round" color="#000" font-family="KaTeX_Main" font-size="8" transform="translate(132.8 10.11)"><tspan>Splay</tspan></text><g fill="none" stroke="currentColor" stroke-linecap="round" stroke-linejoin="round" color="#000"><path stroke="violet" d="M97.3 7.51h29.9M28 93.2l.36-1.41.36-3.66.37-.03.36 2.25.36 2.02.36-1.23.36-1.65.37-.72.36-.29.36-.83.36 1.23.37-.5.36 1.33.36-2.29.36 1 .36-1.04.37-.44.36.29.36.42.36-1.06.36.1.37-.08.36 1.34.36-.49.36-1.7.36-1.14.37 1.65.36-.49.36-2 .36 2.92.36-3.42.37 3.5.36-1.5h.36l.36-1.92.37.58.36.48.36-.31.36 1.04.36-2.85.37 1.41.36.24.36 1.11.36-3.91.36 2.83.37-2.7.36.06.36 1.14.36.1.36.25.37-1.31.36 2.43.36-1.05.36-.8.37-.93.36 1.45.36-1.31.36-.41.36.04.37 2.9.36-2.13.36-1.52.36 1.47.36-2.59.37 2.27.36-.17.36.43.36-1.66.36 1.12.37-2.31.36 3.07.36-2.59.36 1.11.37-.47.36-.96.36 2.32.36-.48.36-1.79.37.78.36-1.02.36 2.08.36-.62.36-1.46.37.45.36-.24.36-.63.36-.25.36-.21.37.22.36 1.19.36-2.1.36 1.11.36 1.12.37-1.62.36 1.57.36-4.18.36 3.38.37.64.36-1.75.36 2.45.36-1.87.36.11.37-1.71.36 1.62.36-2.29.36 1.12.36-2.21.37-.29.36 3.86.36-2.34.36.11.36 1.54.37-.98.36 1.2.36-.06.36-.75.37-2.59.36 1.21.36.53.36.78.36-1.29.37-2.1.36 2.34.36-.4.36.19.36-.66.37.64.36-.16.36.53.36-2.33.36 2.56.37-2.02.36-.5.36 2.95.36-3.44.36.69.37.33.36 1.99.36-.36.36-2.92.37 1.98.36-.77.36 2.55.36-1.43.36-.29.37-.94.36 1.42.36-.41.36-2.39.36.79.37-1.03.36 3.36.36-1.45.36-1.52.36.99.37-.13.36.69.36.34.36-1.62.37.56.36-1.36.36 1.44.36-.9.36 1.92.37-2.56.36 1.88.36-.66.36-.9.36 2.21.37-.59.36.22.36.47.36.17.36-2.54.37-.51.36.81.36.1.36.4.36-.3.37 1.05.36-3.36.36 2.48.36-1.26.37-.77.36-.11.36 2.22.36-.45.36-2.12.37-.29.36.83.36-.38.36-.48.36.12.37 2.07.36.93.36-1.24.36-1.07.36 1.75.37-2.8.36-1.25.36 3.49.36-.16.37-1.8.36 1.08.36-2.36.36 1.88.36-2.05.37 1.02.36-.65.36-.28.36.5.36-1.02.37 3.24.36-2.75.36 2.34.36-.9.36-.86.37-.21.36 1.86.36-1.12.36-1.06.37 2.75.36-1.71.36 1.22.36-2.31.36.16.37.19.36-1.63.36 3.7.36-4.51.36.86.37 3.07.36-.54.36.3.36-3.69.36 2.17.37.77.36.26.36 2.25.36-2.73.36.46.37-.94.36 1.21.36-2.77.36 2.18.37-2.4.36 1.47.36.83.36-1.68.36 2.02.37-2.02.36-.2.36 2.12.36.87.36-3.6.37 2.29.36-.74.36-1.49.36 2.67.36-.81.37-1.62.36.79.36 2.12.36-.78.37-2.59.36 1.5.36 1.09.36-2.9.36 1.16.37.33.36 1.91.36-.72.36-1.38.36-.37.37-.56.36 2.13.36-1.66.36-3.88.36 3.7.37.48.36-.59.36.29.36 1.42.36-.24.37.32.36-.48.36-.78.36.01.37-1.26.36.77.36.46.36.9.36-3.46.37 6.86.36-7.13.36 2.16.36-1.41.36.8.37 2.94.36-2.36.36-.61.36-.11.36-.66.37 1.2.36.96.36-.35.36-1.06.37.66.36.59.36-1.12.36 2.14.36-.12.37-.44.36.02.36-1.23.36-2.32.36 2.13.37.64.36-.4.36-1.44.36.97.36 1.09.37-2.21.36 1.83.36-1.62.36-.26.36-.52.37-1.09.36 1.5.36 1.75.36-.28.37-.62.36-1.09.36-.09.36-.16.36.96.37-2.23.36 3.33.36-1.01.36.1.36 1.09.37-.28.36-1.02.36-.46.36 1.05.36-2.83.37.58.36 1.31.36-1.22.36 2.51.37-.06.36-1.52.36 1.54.36-.31.36-.57.37-2.42.36 2.69.36-1.79.36-1.81.36 2.62.37-.49.36-.8.36 2.57.36-1.1.36 1.13.37-3.44.36 1.68.36 1.3.36.34.37-1.11.36-1.42.36 1.15.36-1.06.36 1.75.37-.48.36.48.36-2.5.36-.01.36.28.37 1.52.36-2.16.36.56.36 1.3.36.59.37-1.21.36 1.24.36-.57.36.03.36 1.15.37-1.95.36 1.76.36-2.3.36 1.58.37-1.86.36 1.16.36-.88.36.7.36.8.37-3.23.36 1.82.36-2.49.36 5.87.36-6.08.37 3.57.36.88.36-2.23.36 2.18.36.88.37-3.55.36-.85.36 1.45.36-.24.37 2.34.36-.11.36-2.37.36 2.5.36-1.3.37-.13.36-1.63.36-.74.36 1.89.36-2.01.37.78.36-.21.36 2.74.36-1.06.36-.86.37-.03.36 1.34.36 1.3.36-2.29.36.27.37.7.36.16.36-.92.36.17.37-2.16.36 1.76.36-.32.36-1.69.36.92.37.2.36 1.56.36 1.27.36-2.1.36-2.12.37 4.38.36-2.02.36 2.19.36-2.8.36.85.37.24.36-1.9.36.4.36 2 .37-2.67.36 2.67.36-2.27.36-.91.36 1.95.37-.63.36.51.36 2.08.36-1.13.36-2.83.37.41.36 2.07.36.49.36.5.36-3.33.37 2.51.36-2.38.36 1.36.36 1.28.37-.79.36-3.43.36 2.92.36-2.84.36 1.93.37-2.46.36 3.02.36-.5.36.24.36.5.37-.66.36 2.16.36 1 .36-3.19.36-1.84.37 2.11.36-1.16.36 2.25.36.16.36-2.04.37 2.15.36-3.27.36-.56.36 2.87.37-.83.36 1.78.36-1.07.36.52.36-1.77.37.19.36-.14.36.13.36.35.36.27.37-.23.36-1.07.36 1.28.36-1.58.36.94.37-.38.36 2.61.36-3.25.36.03.37.5.36-.98.36.77.36 1.73.36-3.07.37.96.36.22.36-.56.36 1.52.36.43.37-1.28.36 2.66.36.49.36-3.63.36 1.58.37.56.36-1.48.36.01.36.04.36 1 .37-2.19.36 1.87.36-.68.36.3.37-3.09.36 3.73.36.17.36-2.36.36 2.01.37-2.4.36 3.46.36-3.55.36 3.13.36-1.04.37.96.36-2.44.36 1.07.36.06.36-.78.37 4.22.36-3.2.36-2.25.36 2.4.37-1.44.36 1.1.36 2.21.36-4.15.36 1.52.37-.64.36 1.3.36-3.38.36 3.48.36-1.51.37.27.36.07.36-.05.36-.19.36 2.01.37-.3.36.05.36-3.31.36 3.95.36-1.47.37-1.36.36.73.36.27.36 1.44.37-2.43.36-1.18.36 2.88.36-3.41.36 3.17.37-1.11.36 1.19.36-.79.36.74.36.26.37-2.6.36-.01.36 1.33.36-.82.36 2.48.37-.53.36-.65.36.27.36-2.39.37 1.41.36-1.52.36 2.9.36-2.15.36 1 .37.32.36-1.4.36-2.65.36 4.37.36-.74.37.48.36.37.36-.85.36-.61.36-.06.37 2.43.36-1.55.36-.79.36.5.37-.7.36 1.18.36-.88.36.61.36-1.97.37 1.47.36-1.87.36 3.17.36-.75.36 1.1.37-4.34.36 5.01.36-1.93.36-.28.36.02.37-2.1.36 3.86.36-4.7.36 3.37.36-.83.37.32.36.27.36-1.57.36.88.37-.48.36 1.76.36-.84.36-1.06.36-.54.37-2.98.36 3.55.36.43.36.68.36.88.37.89.36-.14.36-4.96.36 5.32.36-1.8.37-2.23.36-1.64.36 3.13.36-2.77.37 5.51.36-2.15.36.08.36-.25.36-.13.37-2.4.36.05.36 2.06.36.4.36-.75.37 1.55.36-3.37.36.62.36 1.49.36.21.37-1.83.36-.48.36 2.75.36-.62.36-.16.37-2.14.36-1.12.36 3.84.36-2.39.37-.08.36.72.36-1.07.36.51.36 1.76.37-1.92.36 1.39.36-.96.36.52.36 2.33.37-2 .36-.21.36-.68.36 1.68.36-1.88.37.74.36-.88.36.37.36-.13.37.67.36-.85.36 1.99.36-.42.36-1.93.37-.07.36-.85.36 2.42.36.9.36 1.02.37-2.66.36-2.04.36 2.25.36.61.36-1.44.37.3.36.64.36-.11.36 1.14.36-2.79.37 1.89.36-.56.36 1.49.36-.51.37-1.55.36 1.47.36-.63.36 1.81.36.19.37-1.1.36-1.39.36 2.78.36-3.58.36 1.53.37 1.8.36-2.5.36-1.17.36 1.33.36.46.37-1.53.36 1.76.36.4.36-.75.37-.79.36.69.36.26.36.01.36.43.37-2.78.36 1.54.36 1.18.36-.06.36.59.37-1.76.36.09.36 1.78.36-1.66.36-1.27.37 1.97.36-.32.36-.69.36.69.37.27.36-.75.36-2.06.36 2.33.36.59.37-1.52.36-.72.36 3.01.36-2.01.36 1.88.37-1.58.36.22.36.56.36 2.76.36-3.36.37.56.36-4.5.36 3.7.36-1.48.36 1.51.37-1.7.36 2.15.36.24.36-.13.37-.87.36 1.19.36-1.44.36-.16.36-2.39.37 3.56.36-.05.36-3.47.36 1.56.36 2.21.37-1.61.36 1 .36-1.07.36 1.94.36-3.15.37 4.08.36-2.15.36.85.36-1.73.37-2.46.36 1.95.36-.38.36 2.2.36.32.37-1.9.36 1.33.36-3.09.36 2.94.36-.57.37.06.36 2.55.36-1.33.36-.47.36-1.12.37.69.36-.06.36-2.45.36.88.36.14.37.85.36 4.43.36-5.34.36 1.23.37 2.21.36-3.01.36.24.36-.16.36-.54.37 1.1.36-1.5.36.22.36 1.44.36-.67.37-.99.36.08.36 3.2.36-2.08.36-.29.37 2.19.36-1.77.36.36.36.56.37-.41.36-2.18.36 4.08.36-4.86.36 2.4.37-1.17.36.02.36 1.6.36 2.08.36-2.64.37 1.13.36-1.41.36 1.28.36-1.64.36.72.37-.88.36-.76.36 1.3.36 2.69.36-2.5.37-.54.36.57.36-.11.36-.3.37 1.81.36-.76.36.15.36-1.81.36-.14.37.49.36.9.36-2.03.36 3.1.36-.83.37-1.47.36.75.36.29.36-1.11.36.34.37.08.36.22.36-2.86.36 2.53.37-.29.36.27.36 1.66.36-2.59.36.77.37-.93.36.91.36.29.36.91.36.39.37-.61.36-1.34.36.67.36.41.36 3.16.37-2.29.36-2.91.36 1.05.36 1.76.37-.97.36.33.36-.08.36-.51.36 1.65.37-1.73.36-.32.36 1.82.36-2.32.36-.52.37 1.76.36-1.19.36 4.05.36-4.62.36-.31.37 2.02.36-3.11.36 3.04.36-.17.36-.83.37 1.48.36-1.88.36 1.2.36 1.13.37-2.24.36.55.36 1.08.36-2.46.36 1.38.37-2.04.36 2.4.36.6"/><use xlink:href="#d" color="violet" transform="matrix(3.75 0 0 3.75 354.25 54.37)"/><use xlink:href="#d" color="violet" transform="matrix(3.75 0 0 3.75 112.25 7.51)"/></g><text fill="#000" stroke="none" stroke-linecap="round" stroke-linejoin="round" color="#000" font-family="KaTeX_Main" font-size="8" transform="translate(132.8 25.11)"><tspan>AVLBottomUp</tspan></text><g fill="none" stroke="currentColor" stroke-linecap="round" stroke-linejoin="round" color="#000"><path stroke="#000" d="M97.3 22.51h29.9M28 193.62l.36.34.36-.03.37.67.36-.13.36-.88.36.4.36-.19.37.32.36-.24.36.11.36-.05.37.04.36.28.36-1.18.36.78.36.42.37-.62.36.17.36-.09.36.94.36-1.07.37 1.09.36-.5.36-.94.36.51.36-.29.37 1.09.36-.87.36-.86.36 1.58.36-.48.37-.35.36.32.36-.16.36.05.37.62.36.05.36-.46.36.03.36-.53.37.1.36 1.01.36-1.57.36.69.36-.98.37 1.3.36.01.36-.08.36-.22.36.09.37.47.36-.42.36-.57.36.72.37.19.36-1.11.36-.17.36.59.36.42.37-.42.36.86h.36l.36-.81.36.77h.37l.36-.71.36.26.36-.47.36.08.37.04.36.19.36.08.36.01.37-.73.36.77.36.06.36-.21.36.23.37-.31.36-.17.36.22h.36l.36-.13.37.29.36-.67.36 1.05.36.61.36-.43.37-.4.36-.72.36.82.36-.29.36.19.37-.35.36.72.36.21.36-.08.37-.98.36.11.36.45.36.02.36-.52.37.34.36-.46.36.27.36-.27.36.49.37-.61.36.36.36.73.36-.27.36.19.37-.81.36.73.36.19.36-.81.37.14.36-.89.36.51.36.33.36.5.37-.22.36-1.27.36 1.39.36-.4.36.05.37.23.36-1 .36 1.04.36-.03.36-.48.37.32.36.1.36-.35.36-.12.36.92.37-.61.36.16.36-.16.36.38.37-.11.36-.16.36.26.36-.76.36-.04.37-.44.36.64.36.08.36.9.36-.86.37.94.36-1.17.36.26.36-.02.36.59.37-.44.36-.45.36-.19.36 1.53.37-.86.36.08.36-.75.36.33.36-.43.37.45.36.46.36.18.36-.31.36-1.23.37.47.36.94.36-.66.36.15.36.77.37.12.36-.73.36-.26.36.72.36-.8.37-.3.36.45.36-.2.36.87.37-1.41.36 1.68.36-.24.36-.94.36.86.37-.67.36.59.36-.38.36-.07.36-.33.37.6.36.42.36-.58.36-.14.36.75.37-.65.36-.31.36.77.36-1.42.37.81.36.66.36-.02.36.11.36-1.31.37.85.36.53.36-.07.36-1.07.36.83.37-.09.36.05.36-.32.36.19.36.17.37.05.36-.51.36-.16.36 1.02.37-.14.36-.38.36-.42.36.18.36.19.37-.23.36.08.36.34.36-.29.36-.3.37.94.36-.96.36.74.36-.42.36-.3.37.45.36-.48.36-.4.36 1.2.36.09.37-1.34.36.51.36-.3.36.65.37.21.36.06.36-.27.36.43.36-.46.37-.26.36-.28.36.83.36-.45.36-.21.37.24.36.56.36-.32.36-.77.36.28.37.2.36.85.36-1.07.36-.13.37.75.36-.12.36-.28.36-.46.36.5.37.62.36-.85.36.16.36.64.36-1.26.37 1.41.36-1.03.36.26.36.8.36-.32.37-.59.36.16.36.27.36-.03.36-.36.37-.16.36.32.36-.04.36.32.37.36.36-.38.36-1.26.36 1.69.36-.49.37.25.36-.38.36-.47.36.02.36.32.37.08.36-.85.36.96.36-.49.36.2.37.45.36-.27.36.32.36.03.37.71.36-.87.36-.94.36 1.21.36-.32.37-.86.36.08.36 1.25.36-.83.36-.16.37.3.36.82.36-.72.36.7.36-.51.37-.21.36-.58.36.47.36.14.36-.51.37.51.36.72.36-1.66.36 1.37.37-.38.36-.69.36-.24.36 1.15.36.4.37-.75.36.18.36.41.36-.59.36-.03.37.19.36-.27.36-.32.36.24h.36l.37.94.36-.06.36-.48.36.02.37-.61.36.4h.36l.36-.07.36.79.37-.79.36.13.36.66.36-.91.36.65.37-.77.36.07.36.59.36.08.36-.38.37 1.36.36-.48.36-1.08.36-.41.37.49.36.52.36-.37.36.09.36.36.37-.64.36-.52.36.34.36.53.36.32.37-.23.36-.04h.36l.36-.23.36.31.37-.45.36.29.36-.4.36.03.36-.16.37.53.36.27.36-.35.36.14.37.05.36.4.36-1.14.36.83.36-.64.37-.4.36.21.36.29.36.18.36.24.37.25.36-.56.36.11.36-.36.36.65.37-.43.36.06.36.02.36-1.49.37 1.44.36-.4.36-.16.36.87.36-.37.37-.34.36.83.36-.43.36.18.36.25.37-.32.36.1.36.72.36-1.42.36.54.37.74.36-.13.36-.93.36.78.36-.52.37-1.03.36 1.25.36-.11.36.85.37-.48.36-.29.36-.67.36.41.36.16.37.19.36-.59.36.42.36.13.36.72.37-1.06.36.19.36-.08.36-.27h.36l.37.56.36-.72.36.11.36.95.37-.44.36.87.36-.61.36-.35.36-.5.37.21.36-.53.36.08.36 1.49.36-.56.37-.29.36-.32.36.4.36-.75.36 1.74.37-1.5.36.54.36.18.36-.1.37-.17.36-.07.36.61.36-.25.36-.13.37-.15.36.1.36-.58.36.77.36-.35.37-.06.36.27.36-.35.36.4.36.36.37-.19.36-.33.36.48.36-1.3.36.96.37-.18.36.42.36-.62.36.49.37-.27.36-.24.36-.08.36.61.36-1.06.37.48.36.32.36-.19.36.11.36.11.37-.32.36.18.36.03.36.05.36.19.37.23.36-.4.36-.39.36.31.37.54.36.1.36-.42.36.38.36-.16.37-.8.36.58.36-.03.36.16.36-.98.37.88.36-.77.36.24.36.31.36-.27.37.8.36-1.04.36.12.36.34.36-.99.37.97.36-.09.36.35.36.22.37.15.36-.37.36-1.06.36.56.36.56.37.58.36-.9.36.66.36-.9.36.53.37-.24.36.98.36-1.31.36-.31.36 1.15.37-.54.36-.72.36.46.36.4.37.1.36-.56.36.5.36.7.36-.21.37-1.01.36.5.36.4.36-.56.36-.19.37.32.36-.08.36-.55.36.04.36.04.37.15.36-.43.36 1.39.36-1.75.36.84.37.4.36.28h.36l.36-.25.37.16.36-.24.36-.15.36.4.36.08.37-.64.36.1.36-.4.36.82.36-.42.37.08.36-.48.36.61.36.09.36-.6.37-.26.36.7.36-.01.36 1.1.37-1.09.36-.24.36-.2.36-.2.36.77.37.16.36-.21.36-.7.36 1.09.36.01.37-.81.36.46.36.05h.36l.36-.77.37.56.36.61.36-.35.36.4.37-.77.36.35.36-.29.36.32.36-.09.37-.72.36.27.36.94.36.15.36-.64.37 1.29.36-1.61.36.67.36-.32.36-.75.37.37.36.25.36-.22.36.19.36-.21.37.19.36-.35.36 1.04.36-.46.37.06.36-.94.36.4.36.32.36.13.37.4.36.08.36-.74.36-.48.36.8.37.22.36-.25.36-.21.36.56.36-.67.37.54.36-.41.36.08.36.49.37-.11.36-.96.36.62.36-.33.36-.24.37-.24.36.49.36.84.36-.88.36.65.37-1.65.36 1.33.36-.13.36-.08.36.71.37-.42.36-.29.36-.17.36.53.36-.63.37.31.36.52.36-1.05.36.85.37.86.36-.69.36.11.36.13.36-.41.37-.15.36.31.36-.56.36-.12.36-.03h.37l.36-.29.36 1 .36-.07.36-.32.37-.81.36.97.36-.96.36.88.37 1.33.36-1.68h.36l.36.45.36.4.37-.66.36.34.36-.31.36.92.36-1.08.37.85.36.02.36-.19.36-.66.36.4.37-.83.36.88.36.09.36-.08.36.1.37.54.36-.24.36-.24.36-.28.37.36.36-.32.36-.67.36-.13.36.82.37.02.36.33.36-.56.36.1.36-.83.37.89.36-.14.36.19.36-.22.36.01.37.08.36.48.36.03.36-.17.37.57.36-1.39.36.87.36-.53.36-.42.37 1.09.36-.9.36.84.36-.96.36-.07.37.05.36-.45.36 1.2.36-.45.36.4.37.08.36-.54.36.05.36.09.37-.12.36-.02.36-.29.36.16.36.34.37.46.36-.03.36-.02.36.05.36-.97.37.08.36 1.07.36-.79h.36l.36.66.37-.54.36.8.36-1.16.36.79.36.05.37-.44.36.48.36-.67.36-.48.37.32.36.42.36-.19.36-.13.36-.27.37.67.36.01.36.28.36-.48.36-.31.37-.62.36.96.36-.27.36.2.36.37.37-.22.36-.07.36.37.36-.54.37.48.36-.05.36.18.36-.52.36.15.37-.35.36.38.36.67.36-1.6.36.87.37.06.36-1.36.36 1.17.36.78.36-.45.37-.08.36.08.36.05.36-.72.36.02.37.96.36-.48.36.38h.36l.37-.08.36-.7.36-.03.36.57.36.29.37.05.36-.69.36-.05.36-.59.36.88.37-.32.36-.08.36-.82.36.95.36.38.37-1.61.36 1.98.36-.21.36-.45.37.13.36.07.36-.58.36.46.36.6.37-.37.36.56.36-.91.36-.12.36.55.37-.61.36.62.36.32.36-.76.36.22.37.02.36.65.36-1.04.36-.03.36.53.37-.74.36.91.36-.54.36-.05.37-.05.36.69.36-.13.36.16.36-.22.37-.18.36-.35.36.98.36-1.22.36.18.37 1.05.36-.92.36-.1.36.26.36-.29.37-.39.36.82.36.05.36.08.37-.35.36.04.36.42.36-.24.36-.42.37.39.36.14.36-.56.36.63.36-.36.37.15.36.46.36-.61.36.29.36-.41.37.54.36-.59.36-.07.36-.78.37 1.07.36.11.36-.25.36.21.36-.04.37-.49.36.43.36.34.36-.12.36-.52.37.2.36-.35.36.13.36-.11.36 1.04.37-.79.36.42.36-.4.36.18.36.43.37.08.36-.37.36.06.36-.01.37-.21.36-.98.36 1.22.36.29.36-1.19.37.72.36-.36.36.3"/><use xlink:href="#g" transform="matrix(3.75 0 0 3.75 67.83 194.47)"/><use xlink:href="#g" transform="matrix(3.75 0 0 3.75 112.25 22.51)"/></g><text fill="#000" stroke="none" stroke-linecap="round" stroke-linejoin="round" color="#000" font-family="KaTeX_Main" font-size="8" transform="translate(241.1 10.11)"><tspan>LBSTBottomUp</tspan></text><g fill="none" stroke="currentColor" stroke-linecap="round" stroke-linejoin="round" color="#000"><path stroke="#3B75EA" d="M205.6 7.51h29.9M28 194.39l.36.05.36.64.37-.59.36.16.36-.31.36.32.36-.11.37.51.36-.36.36-.02.36-.67.37 1.01.36.2.36-.7.36.48.36-.24.37-.85.36.4.36-.22.36 1.34.36-.81.37.59.36-.69.36-.67.36.85.36-.47.37.72.36-.43.36-.85.36.88.36-.27.37.14.36-.27.36.61.36-.9.37.82.36.54.36-.09.36-.8.36-.07.37.08.36.4.36-1 .36.81.36-1.04.37 1.22.36-.32.36.25.36.23.36.43.37-.5.36-.19.36-.38.36.27.37.5.36-1.2.36.2.36.39.36.3.37-.41.36.92.36.16.36-1.07.36 1.35.37-.85.36-.43.36-.18.36.21.36.19.37-.45.36-.14.36.19.36.93.37-.74.36.31.36-.16.36.01.36-.06.37-.07.36-.49.36.05.36.65.36-.49.37.43.36-.53.36 1.17.36-.11.36.08.37-.63.36-.43.36.34.36-.28.36.13.37-.06.36.35.36.62.36-.22.37-.53.36.03.36-.17.36.61.36-1.03.37.99.36-.73.36.37.36-.31.36.13.37-.1.36-.28.36.76.36.26.36-.05.37-.62.36.09.36.39.36-.19.37-.36.36-.35.36.1.36.53.36.27.37-.35.36-.92.36 1.2.36-.24.36-.11.37.23.36-.68.36.85.36-.16.36-.24.37.45.36-.51.36-.13.36.37.36.49.37-.88.36.07.36.4.36.27.37-.3.36-.24.36 1 .36-.89.36-.43.37-.26.36.37.36.06.36.99.36-.7.37.78.36-.99.36.23.36.35.36-.24.37-.08.36.41.36-1.1.36 1.44.37-.51.36.33.36-.8.36.13.36-.14.37-.29.36.7.36.31.36-.75.36-.87.37.32.36 1.65.36-.54.36-.45.36-.02.37.59.36-.92.36.6.36.37.36-1.04.37-.03.36.66.36-.34.36.75.37-.83.36 1.49.36-.59.36-1.3.36 1.06.37-1 .36 1.19.36-.48.36-.08.36-.31.37-.12.36.51.36-.02.36-.69.36 1.59.37-.87.36-.17.36.45.36-1.48.37 1.08.36.27.36.24.36.72.36-1.41.37.03.36.71.36.27.36-.66.36.03.37.39.36-.85.36.72.36.02.36-.05.37-.34.36.13.36-.48.36.9.37.06h.36l.36-.86.36-.02.36.02.37.51.36-.55.36.15.36.54.36-.43.37.5.36-.61.36.35.36-.48.36-.27.37.16.36.72.36-.79.36.92.36-.42.37-.58.36-.33.36.83.36.48.37-.4.36.16.36.14.36-.65.36.67.37-.3.36-.28.36.23.36.11.36-.51.37-.08.36.62.36-.24.36-.54.36.48.37.16.36.37.36-.68.36-.33.37.93.36-.55.36-.17.36-.39.36.72.37.66.36-1.31.36.8.36.28.36-.84.37.94.36-.53.36-.32.36.61.36-.27.37.49.36-.08.36-.12.36-.76.36.66.37-.06.36.14.36-.38.36.11.37.43.36-.14.36-1.12.36 1.02.36.27.37-.72.36-.38.36.05h.36l.36.41.37.42.36-1.49.36 1.23.36.05.36-.08.37.64.36-.29.36.03.36.23.37-.05.36-.62.36-.16.36.35.36.09.37-.65.36-.18.36 1.03.36-.42.36-.61.37.63.36.72.36-.92.36.42.36-.46.37.28.36-.64.36.92.36-.82.36-.19.37.48.36 1.44.36-1.7.36.59.37.21.36-1.05.36-.55.36 1.51.36.01.37.13.36.03.36.08.36-.78.36.62.37-.24.36-.16.36.05.36-.34.36.12.37.86.36-.19.36-.02.36.03.37-.56h.36l.36.23.36-.39.36.45.37.35.36-.6.36 1.23.36-1.83.36.66.37-.1.36-.09.36.77.36-.12.36-.28.37 1.16.36-.38.36-.88.36-.19.37-.08.36.77.36-1 .36.55.36.67.37-1.46.36-.4.36.95.36.59.36-.3.37.43.36-.79.36.77.36-.41.36.03.37.08.36-.47.36.16.36-.01.36-.39.37.47.36-.21.36.45.36-.11.37-.34.36.53.36-.51.36.3.36-.48.37.03.36.11.36.05.36-.08.36 1.04.37-.16.36-.62.36-.08.36-.26.36.56.37-.49.36.08.36.11.36-.55.37.32.36-.27.36-.11.36 1.39.36-.96.37-.06.36 1.15.36-.82.36-.19.36.31.37-.2.36.31.36.16.36-1.09.36.86.37.69.36-.22.36-1.33.36 1.02.36-.43.37-.78.36.65.36-.01.36.21.37.36.36-.38.36.18.36-.29.36.03.37.22.36-1.16.36 1.42.36-.1.36.6.37-.74.36.48.36-.61.36-.43.36.42.37.12.36-.68.36.04.36 1.4.37-.95.36.91.36-.33.36-.32.36-.32.37.14.36-.54.36.05.36.97.36-.41.37-.02.36-.05.36.45.36-.86.36 1.12.37-1.01.36.67.36-.24.36-.13.37-.01.36.44.36.16.36.07.36-.75.37.09.36.08.36-.22.36.62.36-.3.37-.11.36-.1.36-.19.36.61.36-.26.37.08.36-.29.36.66.36-1.11.36.53.37.29.36.14.36-.73.36.72.37.09.36-.64.36.47.36.05.36-.88.37-.04.36.31.36-.37.36.77.36-.4.37.27.36-.37.36.27.36-.01.36-.03.37.25.36.08.36-.46.36.05.37.83.36.03.36-.3.36-.07.36-.38.37-.23.36.32.36-.03.36.4.36-1.01.37.71.36-.96.36.73.36.1.36-.16.37.72.36-.85.36-.06.36.51.36-1.09.37.43.36.4.36.48.36-.12.37.35.36-.61.36-.32.36.45.36.41.37.31.36-.67.36.64.36-1.08.36.58.37-.24.36.88.36-1.78.36.13.36 1.39.37-.91.36-.17.36.36.36.21.37-.4.36.05.36.4.36.59.36-.48.37-.69.36.68.36.36.36-.59.36-.13.37.1.36.19.36-.8.36-.37.36.96.37-.59.36-.22.36 1.18.36-1.18.36.8.37-.08.36.41.36.42.36-.4.37-.24.36-.42.36.61.36-.33.36.01.37-.01.36.25.36-.51.36.74.36-1.36.37.44.36-.3.36.9.36.01.36-.56.37-.16.36.35.36.21.36 1.11.37-1.27.36-.14.36.21.36-.18.36.69.37-.13h.36l.36-1.25.36.79.36.48.37-.64.36.22.36-.06.36.32.36-.88.37.52.36.58.36.02.36-.02.37-.48.36.3.36.07.36-.16.36.3.37-.48.36-.05.36.63.36-.34.36-.21.37 1.43.36-1.62.36.59.36-.22.36-1.01.37.99h.36l.36-.6.36 1.04.36-1.19.37.42.36-.07.36.61.36-.21.37-.4.36-.48.36.84.36-.42.36.13.37.27.36.45.36-.1.36-.61.36.31.37.16.36-.21.36.13.36.13.36-.29.37.69.36-.77.36-.19.36.73.37.11.36-1.29.36.77.36-.37.36.45.37-1.03.36.99.36.63.36-.9.36.5.37-1.51.36 1.65.36-.25.36.22.36-.43.37.57.36-.86.36.19.36-.05.36.21.37-.69.36 1.32.36-1.03.36.27.37.79.36-.96.36.81.36.42.36-.58.37-.22.36.37.36-.56.36-.64.36.54.37-.29.36-.08.36.56.36.12.36-.08.37-.15.36.11.36-.86.36 1.36.37.82.36-1.28.36-.69.36.32.36.4.37.45.36-.88.36-.05.36 1.28.36-1.11.37.77.36-.53.36.24.36-.46.36.74.37-1.19.36.61.36.42.36-.26.36-.16.37.24.36.66.36-.29.36-.45.37.34.36-.1.36-.64.36.32.36-.05.37.64.36-.24.36-.48.36-.08.36-.72.37.72.36-.22.36.45.36.36.36-.19.37-.17h.36l.36.35.36.22.37.23.36-1.3.36 1.06.36-.88.36-.42.37 1.14.36-.71.36.66.36-.72.36.03.37.24.36-.3.36.09.36.26.36.05.37-.53.36.41.36-.57.36.67.37-.42.36.1.36.14.36.23.36.57.37-.64.36.69.36-.06.36-.51.36-.52.37-.03.36.77.36-.64.36-.19.36 1.2.37-1.19.36 1.11.36-.85.36.69.36-.07.37-.2.36-.04.36-.25.36-.79.37.84h.36l.36-.32.36.03.36-.35.37.33.36.67.36-.14.36-.13.36-.45.37-.38.36.72.36.03.36-.3.36.65.37-.41.36-.08.36.54.36-.43.37.51.36-.54.36.43.36-.24.36-.62.37.46.36.43.36.08.36-1.04.36.39.37.17.36-1.76.36 1.6.36.96.36-.61.37-.52.36.35.36-.18.36-.56.36.72.37.05.36-.22.36.64.36.17.37-.65.36.24.36-.53.36.65.36-.11.37.37.36-.66.36-.3.36-.32.36.34.37.03.36-.18.36-.67.36.32.36.46.37-.25.36.93.36.52.36-1.02.37-.06.36.24.36-.4.36.44.36.55.37-.59.36.6.36-.56.36-.4.36.31.37-.67.36.6.36.48.36-.38.36-.24.37.58.36.64.36-1.52.36.25.36.24.37-.51.36.43.36.43.36-.3.37-.83.36 1.49.36-.96.36.91.36-.58.37.24.36-.43.36.77.36-1.04.36.09.37 1.03.36-.69.36.1.36.19.36-.72.37.14.36.64.36-.33.36.01.37-.21.36-.14.36.22.36.31.36-.37.37.51.36.13.36-.27.36.22.36-.83.37.45.36.14.36-.49h.36l.36.41.37-.17.36-.21.36.38.36-.83.37.59.36.03.36-.56.36.71.36.03.37-.06.36.08.36.06.36-.29.36-.14.37.27.36-.58.36.61.36-.56.36.64.37.08.36-.22.36-.48.36.03.36.59h.37l.36.18.36-.07.36-.51.37.23.36-1.35.36 1.54.36.03.36-.19.37.08.36-.21.36.06"/><use xlink:href="#a" color="#3B75EA" transform="matrix(3.75 0 0 3.75 125.4 194.47)"/><use xlink:href="#a" color="#3B75EA" transform="matrix(3.75 0 0 3.75 220.55 7.51)"/></g><text fill="#000" stroke="none" stroke-linecap="round" stroke-linejoin="round" color="#000" font-family="KaTeX_Main" font-size="8" transform="translate(241.1 25.11)"><tspan>TreapTopDown</tspan></text><g fill="none" stroke="currentColor" stroke-linecap="round" stroke-linejoin="round" color="#000"><path stroke="#F44336" stroke-dasharray="4.5,2.0,0.5,2.0,0.5,2.0" d="M205.6 22.51h29.9M28 205H371.99"/><use xlink:href="#f" color="#F44336" transform="matrix(3.75 0 0 3.75 182.98 205)"/><use xlink:href="#f" color="#F44336" transform="matrix(3.75 0 0 3.75 220.55 22.51)"/></g><path fill="none" stroke="none" stroke-linecap="round" stroke-linejoin="round" stroke-width="0" d="M28 45.01V205M371.99 45.01H28" color="#000"/></svg>