<svg xmlns="http://www.w3.org/2000/svg" xmlns:xlink="http://www.w3.org/1999/xlink" viewBox="0 0 400 250"><path fill="none" d="M0 0h400v250H0z"/><defs><path id="g" stroke="currentColor" stroke-width=".267" d="M-1 0h2M0-1v2"/><path id="h" stroke="currentColor" stroke-width=".267" d="M-1 0h2M0-1v2m-1-2 2 2m-2 0 2-2"/><path id="d" stroke="currentColor" stroke-width=".267" d="M-1-1h2v2h-2z"/><path id="i" fill="currentColor" stroke="currentColor" stroke-width=".267" d="M-1-1h2v2h-2z"/><path id="b" stroke="currentColor" stroke-width=".267" d="m0-1.33-1.33 2h2.66z"/><path id="f" stroke="currentColor" stroke-width=".267" d="M0 1.33 1.265.411.782-1.067l-1.564-.009-.483 1.487z"/><use xlink:href="#b" id="c" stroke="currentColor" transform="rotate(180)"/><use xlink:href="#d" id="e" stroke="currentColor" transform="rotate(45)"/><circle id="a" cx="0" cy="0" r="1" stroke="currentColor" stroke-width=".267"/></defs><path fill="none" stroke="#000" stroke-linecap="round" stroke-linejoin="round" stroke-width=".1" d="M35.48 205V45.01" class="gridline" color="#000"/><g fill="none" stroke="none" stroke-linecap="round" stroke-linejoin="round" stroke-width="0" color="#000"><path d="M35.48 205v-7.5m0-152.49v7.5"/><text fill="#000" font-family="KaTeX_Main" font-size="10" text-anchor="middle" transform="translate(35.48 215.75)"><tspan> 1</tspan></text></g><path fill="none" stroke="#000" stroke-linecap="round" stroke-linejoin="round" stroke-width=".1" d="M72.87 205V45.01" class="gridline" color="#000"/><g fill="none" stroke="none" stroke-linecap="round" stroke-linejoin="round" stroke-width="0" color="#000"><path d="M72.87 205v-7.5m0-152.49v7.5"/><text fill="#000" font-family="KaTeX_Main" font-size="10" text-anchor="middle" transform="translate(72.87 215.75)"><tspan> 2</tspan></text></g><path fill="none" stroke="#000" stroke-linecap="round" stroke-linejoin="round" stroke-width=".1" d="M110.26 205V45.01" class="gridline" color="#000"/><g fill="none" stroke="none" stroke-linecap="round" stroke-linejoin="round" stroke-width="0" color="#000"><path d="M110.26 205v-7.5m0-152.49v7.5"/><text fill="#000" font-family="KaTeX_Main" font-size="10" text-anchor="middle" transform="translate(110.26 215.75)"><tspan> 3</tspan></text></g><path fill="none" stroke="#000" stroke-linecap="round" stroke-linejoin="round" stroke-width=".1" d="M147.65 205V45.01" class="gridline" color="#000"/><g fill="none" stroke="none" stroke-linecap="round" stroke-linejoin="round" stroke-width="0" color="#000"><path d="M147.65 205v-7.5m0-152.49v7.5"/><text fill="#000" font-family="KaTeX_Main" font-size="10" text-anchor="middle" transform="translate(147.65 215.75)"><tspan> 4</tspan></text></g><path fill="none" stroke="#000" stroke-linecap="round" stroke-linejoin="round" stroke-width=".1" d="M185.04 205V45.01" class="gridline" color="#000"/><g fill="none" stroke="none" stroke-linecap="round" stroke-linejoin="round" stroke-width="0" color="#000"><path d="M185.04 205v-7.5m0-152.49v7.5"/><text fill="#000" font-family="KaTeX_Main" font-size="10" text-anchor="middle" transform="translate(185.04 215.75)"><tspan> 5</tspan></text></g><path fill="none" stroke="#000" stroke-linecap="round" stroke-linejoin="round" stroke-width=".1" d="M222.43 205V45.01" class="gridline" color="#000"/><g fill="none" stroke="none" stroke-linecap="round" stroke-linejoin="round" stroke-width="0" color="#000"><path d="M222.43 205v-7.5m0-152.49v7.5"/><text fill="#000" font-family="KaTeX_Main" font-size="10" text-anchor="middle" transform="translate(222.43 215.75)"><tspan> 6</tspan></text></g><path fill="none" stroke="#000" stroke-linecap="round" stroke-linejoin="round" stroke-width=".1" d="M259.82 205V45.01" class="gridline" color="#000"/><g fill="none" stroke="none" stroke-linecap="round" stroke-linejoin="round" stroke-width="0" color="#000"><path d="M259.82 205v-7.5m0-152.49v7.5"/><text fill="#000" font-family="KaTeX_Main" font-size="10" text-anchor="middle" transform="translate(259.82 215.75)"><tspan> 7</tspan></text></g><path fill="none" stroke="#000" stroke-linecap="round" stroke-linejoin="round" stroke-width=".1" d="M297.21 205V45.01" class="gridline" color="#000"/><g fill="none" stroke="none" stroke-linecap="round" stroke-linejoin="round" stroke-width="0" color="#000"><path d="M297.21 205v-7.5m0-152.49v7.5"/><text fill="#000" font-family="KaTeX_Main" font-size="10" text-anchor="middle" transform="translate(297.21 215.75)"><tspan> 8</tspan></text></g><path fill="none" stroke="#000" stroke-linecap="round" stroke-linejoin="round" stroke-width=".1" d="M334.6 205V45.01" class="gridline" color="#000"/><g fill="none" stroke="none" stroke-linecap="round" stroke-linejoin="round" stroke-width="0" color="#000"><path d="M334.6 205v-7.5m0-152.49v7.5"/><text fill="#000" font-family="KaTeX_Main" font-size="10" text-anchor="middle" transform="translate(334.6 215.75)"><tspan> 9</tspan></text></g><path fill="none" stroke="#000" stroke-linecap="round" stroke-linejoin="round" stroke-width=".1" d="M371.99 205V45.01" class="gridline" color="#000"/><g fill="none" stroke="none" stroke-linecap="round" stroke-linejoin="round" stroke-width="0" color="#000"><path d="M371.99 205v-7.5m0-152.49v7.5"/><text fill="#000" font-family="KaTeX_Main" font-size="10" text-anchor="middle" transform="translate(371.99 215.75)"><tspan> 10</tspan></text></g><g fill="none" stroke="none" stroke-linecap="round" stroke-linejoin="round" stroke-width="0" color="#000"><path d="M371.99 205h-7.5"/><text fill="#000" font-family="KaTeX_Main" font-size="10" transform="translate(378.99 208.25)"><tspan>1.05</tspan></text></g><g fill="none" stroke="none" stroke-linecap="round" stroke-linejoin="round" stroke-width="0" color="#000"><path d="M371.99 185h-7.5"/><text fill="#000" font-family="KaTeX_Main" font-size="10" transform="translate(378.99 188.25)"><tspan>1.10</tspan></text></g><g fill="none" stroke="none" stroke-linecap="round" stroke-linejoin="round" stroke-width="0" color="#000"><path d="M371.99 165h-7.5"/><text fill="#000" font-family="KaTeX_Main" font-size="10" transform="translate(378.99 168.25)"><tspan>1.15</tspan></text></g><g fill="none" stroke="none" stroke-linecap="round" stroke-linejoin="round" stroke-width="0" color="#000"><path d="M371.99 145h-7.5"/><text fill="#000" font-family="KaTeX_Main" font-size="10" transform="translate(378.99 148.25)"><tspan>1.20</tspan></text></g><g fill="none" stroke="none" stroke-linecap="round" stroke-linejoin="round" stroke-width="0" color="#000"><path d="M371.99 125h-7.5"/><text fill="#000" font-family="KaTeX_Main" font-size="10" transform="translate(378.99 128.25)"><tspan>1.25</tspan></text></g><g fill="none" stroke="none" stroke-linecap="round" stroke-linejoin="round" stroke-width="0" color="#000"><path d="M371.99 105.01h-7.5"/><text fill="#000" font-family="KaTeX_Main" font-size="10" transform="translate(378.99 108.26)"><tspan>1.30</tspan></text></g><g fill="none" stroke="none" stroke-linecap="round" stroke-linejoin="round" stroke-width="0" color="#000"><path d="M371.99 85.01h-7.5"/><text fill="#000" font-family="KaTeX_Main" font-size="10" transform="translate(378.99 88.26)"><tspan>1.35</tspan></text></g><g fill="none" stroke="none" stroke-linecap="round" stroke-linejoin="round" stroke-width="0" color="#000"><path d="M371.99 65.01h-7.5"/><text fill="#000" font-family="KaTeX_Main" font-size="10" transform="translate(378.99 68.26)"><tspan>1.40</tspan></text></g><g fill="none" stroke="none" stroke-linecap="round" stroke-linejoin="round" stroke-width="0" color="#000"><path d="M371.99 45.01h-7.5"/><text fill="#000" font-family="KaTeX_Main" font-size="10" transform="translate(378.99 48.26)"><tspan>1.45</tspan></text></g><path fill="none" stroke="none" stroke-linecap="round" stroke-linejoin="round" stroke-width="0" d="M28 45.01V205M371.99 45.01H28" color="#000"/><text fill="#000" stroke="none" stroke-linecap="round" stroke-linejoin="round" stroke-width="0" color="#000" font-family="KaTeX_Main" font-size="10" text-anchor="middle" transform="rotate(-90 68.255 56.755)"><tspan font-weight="bold">Maximum Path Length </tspan><tspan> / log</tspan><tspan dy="3" font-size="8">2</tspan><tspan dy="-3">(Size)</tspan></text><text fill="#000" stroke="none" stroke-linecap="round" stroke-linejoin="round" stroke-width="0" color="#000" font-family="KaTeX_Main" font-size="10" text-anchor="middle" transform="translate(199.99 238.25)"><tspan>Operations × 10</tspan><tspan dy="-5" font-size="8">5</tspan></text><text fill="#000" stroke="none" stroke-linecap="round" stroke-linejoin="round" color="#000" font-family="KaTeX_Main" font-size="8" transform="translate(76.8 10.11)"><tspan>AVLBottomUp</tspan></text><g fill="none" stroke="currentColor" stroke-linecap="round" stroke-linejoin="round" color="#000"><path stroke="#000" d="M41.3 7.51h29.9M28 158.39l.37.52.38.5.37.5.38.49.37.49.37.47.38.47.37.47.38.46.37.45.37.45.38.44.37.43.37.43.38.43.37.42.38.41.37.41.37.41.38.4.37-.4.38-.41.37-.41.37-.41.38-.42.37-.43.38-.43.37-.43.37-.44.38-.45.37-.45.37-.46.38-.47.37-.47.38-.47.37-.49.37-.49.38-.5.37-.5.38-.52.37-.52.37-.53.38-.53.37-.55.38-.55.37-.56.37-.57.38-.58.37-.59.38 24.25.37-.58.37-.59.38-.59.37-.61.37-.62.38-.63.37-.65.38-.65.37-.67.37-.68.38-.69.37-.71.38-.72.37-.74.37-.75.38-.77.37-.79.38-.81.37-.82.37-.84.38.84.37.82.37.81.38.79.37.77.38.75.37.74.37.72.38.71.37.69.38.68.37.67.37.65.38.65.37.63.38.62.37.61.37.59.38.59.37.58.38.57.37.56.37.55.38.54.37-24.17.37.55.38.55.37.53.38.53.37.52.37.52.38.5.37.5.38.49.37.49.37.47.38.47.37.47.38.46.37.45.37.45.38.44.37.43.37.43.38.43.37.42.38.41.37.41.37.41.38.4.37-.4.38-.41.37-.41.37-.41.38-.42.37-.43.38-.43.37-.43.37-.44.38-.45.37-.45.38-.46.37-.47.37-.47.38-.47.37-.49.37-.49.38-.5.37-.5.38-.52.37-.52.37-.53.38-.53.37 24.12.38-.52.37-.53.37-.54.38-.55.37-.56.38-.57.37-.58.37-.59.38-.59.37-.61.37-.62.38-.63.37-.65.38-.65.37-.67.37-.68.38-.69.37-.71.38-.72.37-.74.37-.75.38-.77.37-.79.38-.81.37-.82.37-.84.38.84.37.82.38.81.37.79.37.77.38.75.37.74.37.72.38.71.37.69.38.68.37.67.37.65.38.65.37.63.38.62.37.61.37-24.32.38.62.37.61.38.6.37.59.37.58.38.57.37.56.37.55.38.55.37.53.38.53.37.52.37.52.38.5.37.5.38.49.37.49.37.47.38.47.37.47.38.46.37.45.37.45.38.44.37.43.38.43.37.43.37.42.38.41.37.41.37.41.38.4.37-.4.38-.41.37-.41.37-.41.38-.42.37-.43.38-.43.37-.43.37-.44.38-.45.37-.45.38-.46.37-.47.37-.47.38-.47.37-.49.37-.49.38-.5.37-.5.38-.52.37-.52.37-.53.38-.53.37-.55.38-.55.37-.56.37-.57.38-.58.37-.59.38-.6.37-.61.37-.62.38-.63.37-.65.38-.65.37-.66.37 24.4.38-.65.37-.67.37-.68.38-.69.37-.71.38-.72.37-.74.37-.75.38-.77.37-.79.38-.81.37-.82.37-.84.38.84.37.82.38.81.37.79.37.77.38.75.37.74.37.72.38.71.37.69.38.68.37.67.37.65.38.65.37.63.38.62.37-24.34.37.63.38.62.37.61.38.6.37.59.37.58.38.57.37.56.38.55.37.55.37.53.38.53.37.52.37.52.38.5.37.5.38.49.37.49.37.47.38.47.37.47.38.46.37.45.37.45.38.44.37.43.38.43.37.43.37.42.38.41.37.41.37.41.38.4.37-.4.38-.41.37-.41.37-.41.38-.42.37-.43.38-.43.37-.43.37-.44.38-.45.37-.45.38-.46.37-.47.37-.47.38-.47.37-.49.38-.49.37-.5.37-.5.38-.52.37-.52.37-.53.38-.53.37-.55.38-.55.37-.56.37-.57.38-.58.37-.59.38-.6.37-.61.37-.62.38-.63.37-.65.38-.65.37 24.39.37-.65.38-.65.37-.67.37-.68.38-.69.37-.71.38-.72.37-.74.37-.75.38-.77.37-.79.38-.81.37-.82.37-.84.38.84.37.82.38.81.37.79.37.77.38.75.37.74.38.72.37.71.37.69.38.68.37.67.37.65.38.65.37.63.38-24.37.37.65.37.63.38.62.37.61.38.6.37.59.37.58.38.57.37.56.38.55.37.55.37.53.38.53.37.52.37.52.38.5.37.5.38.49.37.49.37.47.38.47.37.47.38.46.37.45.37.45.38.44.37.43.38.43.37.43.37.42.38.41.37.41.38.41.37.4.37-.4.38-.41.37-.41.37-.41.38-.42.37-.43.38-.43.37-.43.37-.44.38-.45.37-.45.38-.46.37-.47.37-.47.38-.47.37-.49.38-.49.37-.5.37-.5.38-.52.37-.52.37-.53.38-.53.37-.55.38-.55.37-.56.37-.57.38-.58.37-.59.38-.6.37-.61.37-.62.38-.63.37-.65.38-.65.37 24.39.37-.65.38-.65.37-.67.38-.68.37-.69.37-.71.38-.72.37-.74.37-.75.38-.77.37-.79.38-.81.37-.82.37-.84.38.84.37.82.38.81.37.79.37.77.38.75.37.74.38.72.37.71.37.69.38.68.37.67.37.65.38-24.4.37.66.38.65.37.65.37.63.38.62.37.61.38.6.37.59.37.58.38.57.37.56.38.55.37.55.37.53.38.53.37.52.37.52.38.5.37.5.38.49.37.49.37.47.38.47.37.47.38.46.37.45.37.45.38.44.37.43.38.43.37.43.37.42.38.41.37.41.38.41.37.4.37-.4.38-.41.37-.41.37-.41.38-.42.37-.43.38-.43.37-.43.37 23.84.38-.43.37-.42.38-.44.37-.44.37-.44.38-.46.37-.46.38-.46.37-.48.37-.47.38-.49.37-.49.37-.5.38-.51.37-.52.38-.52.37-.53.37-.54.38-.55.37-.56.38-.57.37-.58.37-.59.38-.59.37-.61.38-.62.37-.63.37-.65.38-.65.37-.67.38-.68.37-.69.37-.71.38-.72.37-.74.37-.75.38-.77.37-.79.38-.81.37-.82.37-.84.38.84.37.82.38.81.37.79.37.77.38.75.37.74.38.72.37.71.37.69.38.68.37.67.37.65.38.65.37.63.38.62.37.61.37.59.38.59.37.58.38.57.37.56.37-24.21.38.57.37.56.38.55.37.55.37.53.38.53.37.52.38.52.37.5.37.5.38.49.37.49.37.47.38.47.37.47.38.46.37.45.37.45.38.44.37.43.38.43.37.43.37.42.38.41.37.41.38.41.37.4.37-.4.38-.41.37-.41.37-.41.38-.42.37-.43.38-.43.37-.43.37-.44.38-.45.37-.45.38-.46.37-.47.37-.47.38-.47.37-.49.38-.49.37-.5.37-.5.38-.52.37-.52.38-.53.37-.53.37-.55.38-.55.37-.56.37-.57.38-.58.37-.59.38-.6.37-.61.37-.62.38 24.32.37-.61.38-.62.37-.63.37-.65.38-.65.37-.67.38-.68.37-.69.37-.71.38-.72.37-.74.37-.75.38-.77.37-.79.38-.81.37-.82.37-.84.38.84.37.82.38.81.37.79.37.77.38.75.37.74.38.72.37.71.37.69.38.68.37.67.38.65.37.65.37.63.38.62.37.61.37.59.38.59.37.58.38.57.37.56.37.55.38.54.37.53.38.52.37.52.37.51.38.5.37.49.38.49.37.47.37.48.38.46.37.46.37.46.38.44.37-23.91.38.46.37.45.37.45.38.44.37.43.38.43.37.43.37.42.38.41.37.41.38.41.37.4.37-.4.38-.41.37-.41.38-.41.37-.42.37-.43.38-.43.37-.43.37-.44.38-.45.37-.45.38-.46.37-.47.37-.47.38-.47.37-.49.38 23.99.37-.48.37-.47.38-.49.37-.49.38-.5.37-.51.37-.52.38-.52.37-.53.37-.54.38-.55.37-.56.38-.57.37-.58.37-.59.38-.59.37-.61.38-.62.37-.63.37-.65.38-.65.37-.67.38-.68.37-.69.37-.71.38-.72.37-.74.38-.75.37-.77.37-.79.38-.81.37-.82.37-.84.38.84.37.82.38.81.37.79.37.77.38.75.37.74.38.72.37-24.53.37.73.38.72.37.71.38.69.37.68.37.66.38.65.37.65.37.63.38.62.37.61.38.6.37.59.37.58.38.57.37.56.38.55.37.55.37.53.38.53.37.52.38.52.37.5.37.5.38.49.37.49.38.47.37.47.37.47.38.46.37.45.37.45.38.44.37.43.38.43.37.43.37.42.38.41.37.41.38.41.37.4.37-.4.38-.41.37-.41.38-.41.37-.42.37-.43.38-.43.37-.43.37-.44.38-.45.37-.45.38-.46.37-.47.37-.47.38-.47.37-.49.38-.49.37-.5.37-.5.38-.52.37-.52.38 24.09.37-.51.37-.52.38-.52.37-.53.38-.54.37-.55.37-.56.38-.57.37-.58.37-.59.38-.59.37-.61.38-.62.37-.63.37-.65.38-.65.37-.67.38-.68.37-.69.37-.71.38-.72.37-.74.38-.75.37-.77.37-.79.38-.81.37-.82.37-.84.38.84.37.82.38.81.37.79.37.77.38.75.37.74.38.72.37.71.37.69.38.68.37.67.38.65.37.65.37.63.38.62.37.61.38.59.37.59.37.58.38.57.37.56.37.55.38.54.37.53.38-24.15.37.55.37.53.38.53.37.52.38.52.37.5.37.5.38.49.37.49.38.47.37.47.37.47.38.46.37.45.37.45.38.44.37.43.38.43.37.43.37.42.38.41.37.41.38.41.37.4"/><use xlink:href="#g" transform="matrix(3.75 0 0 3.75 342.45 157.87)"/><use xlink:href="#g" transform="matrix(3.75 0 0 3.75 56.25 7.51)"/></g><text fill="#000" stroke="none" stroke-linecap="round" stroke-linejoin="round" color="#000" font-family="KaTeX_Main" font-size="8" transform="translate(76.8 25.11)"><tspan>AVLWeakTopDown</tspan></text><g fill="none" stroke="currentColor" stroke-linecap="round" stroke-linejoin="round" color="#000"><path stroke="#00C853" stroke-dasharray="4.5,2.0,0.5,2.0,0.5,2.0" d="M41.3 22.51h29.9M28 133.84l.37.54.38.53.37.52.38.52.37.51.37.5.38.5.37.49.38-23.84.37 24.8.37.47.38.46.37.46.37.45.38.45.37-23.72.38.45.37.46.37 24.55.38.42.37-.42.38-.43.37-.43.37-.44.38-.44.37-.45.38-.45.37-.46.37-.46.38-24.77.37 23.82.37-.48.38-.49.37-.5.38-.5.37-.51.37-.52.38-.52.37-.53.38-.54.37-.55.37-.56.38-.56.37-.57.38-.59.37 24.14.37-.57.38-25.37.37 24.2.38-.6.37-.61.37-25.54.38 24.29.37-.65.37-25.67.38-25.75.37 24.34.38 24.4.37-.71.37-.72.38-.73.37-26.02.38 24.51.37-.78.37-.79.38-.82.37-.83.38-.85.37-.86.37-.9.38.9.37.86.37.85.38.83.37.82.38.79.37.78.37.76.38.75.37.73.38.72.37.71.37.69.38.68.37.66.38.65.37-24.3.37.66.38 25.54.37.61.38.6.37.59.37.58.38-24.16.37.59.37.59.38.57.37-24.05.38 25.17.37-48.57.37 49.66.38.53.37.52.38.52.37.51.37.5.38.5.37.49.38.48.37.48.37.47.38.46.37.46.37.45.38.45.37.44.38.44.37.43.37.43.38.42.37-.42.38-.43.37-.43.37-.44.38-.44.37-.45.38-.45.37-.46.37-.46.38-.47.37-.48.38 23.87.37-.47.37-.47.38-73.75.37 23.89.37-.54.38-.55.37-.56.38-.57.37-.57.37-.59.38-.59.37-.6.38 24.08.37-25.32.37-.63.38-.64.37-.65.38 24.19.37-.64.37-25.57.38 49.2.37-75.59.37 49.27.38-.7.37 24.38.38-.69.37-25.87.37 24.44.38-25.96.37 24.48.38-.76.37-.78.37-.79.38-.82.37-.83.38-.85.37-52.02.37 24.64.38.94.37.91.38.9.37.87.37.86.38.83.37.82.37.81.38.79.37.76.38.76.37.74.37.73.38.71.37.7.38-24.29.37.71.37.7.38.68.37.68.38.66.37.65.37.64.38.63.37.62.37.62.38.6.37.59.38.59.37.57.37.57.38.56.37.55.38.54.37.53.37.53.38.52.37.52.38.51.37.5.37.49.38.49.37.48.38.47.37.47.37.47.38.45.37.46.37.44.38.44.37-.44.38 23.68.37-.43.37-.44.38-.44.37-.45.38-48.91.37 23.75.37 23.79.38-24.77.37 23.82.38-.48.37-24.87.37-.52.38 23.9.37-.51.37-.52.38-.52.37-.53.38-.54.37 24.03.37-25.14.38 24.08.37-25.21.38-.59.37-.59.37 24.16.38-.58.37-.59.38-.6.37-.61.37-.62.38-.63.37-.65.38-.65.37-50.77.37 24.34.38 24.4.37-.71.37-.72.38-.73.37-.75.38-.76.37-.78.37-51.59.38 24.54.37-.87.38-.9.37-.91.37 24.68.38.9.37.86.38.85.37.83.37.82.38.79.37.78.37.76.38.75.37.73.38-24.44.37.74.37.73.38 25.77.37-24.36.38.69.37.68.37.66.38-24.23.37.68.38 25.48.37.62.37.61.38.6.37.59.38.59.37.57.37.56.38.56.37.55.37.54.38.53.37.52.38.52.37.51.37.5.38.5.37.49.38.48.37.48.37.47.38.46.37.46.38.45.37.45.37.44.38.44.37.43.37.43.38.42.37-24.53.38 23.68.37-.43.37-.44.38-.44.37-.45.38-.45.37-.46.37-.46.38-.47.37-.48.38-24.83.37 23.86.37-24.9.38 23.9.37-.51.38-.52.37-.52.37-.53.38-.54.37-.55.37-.56.38-.56.37-.57.38-.59.37 24.14.37-.57.38-.58.37-.59.38-.6.37-.61.37-.62.38-.63.37-.65.38-.65.37-.66.37-.68.38-.69.37-.71.37-.72.38-.73.37-.75.38-51.4.37 24.5.37-.83.38-.86.37 24.61.38-.85.37-26.44.37 24.68.38.9.37.86.38.85.37.83.37-24.58.38.83.37.82.38.81.37.79.37.76.38.76.37.74.37.73.38.71.37-24.31.38.72.37.71.37.7.38 25.57.37.64.38.63.37.62.37.61.38.6.37.59.38-24.08.37 25.24.37.56.38.56.37.55.37.54.38.53.37.52.38.52.37.51.37.5.38.5.37.49.38.48.37.48.37.47.38.46.37.46.38.45.37.45.37.44.38.44.37.43.38-23.68.37 24.53.37-24.53.38-.44.37 23.69.37-24.6.38 23.72.37-.45.38-.45.37-.46.37-.46.38-.47.37-.48.38-.48.37-.49.37-.5.38-.5.37-24.96.38 23.93.37-.52.37-.53.38-.54.37-.55.37-.56.38-.56.37-25.24.38 24.08.37-.59.37 24.16.38-25.37.37 24.2.38-50.3.37 24.21.37 24.26.38-.63.37-25.63.38 24.33.37-25.72.37-.71.38-.73.37-.74.38-.76.37-26 .37 24.45.38-.81.37-.82.37-.83.38-.86.37-.87.38-.9.37 24.67.37-.9.38.9.37.86.38.85.37.83.37.82.38.79.37.78.38.76.37.75.37.73.38.72.37.71.37.69.38.68.37.66.38-24.33.37.68.37.66.38.66.37.64.38.63.37.62.37.61.38.6.37.59.38.59.37.57.37.56.38.56.37.55.37.54.38.53.37.52.38.52.37.51.37-23.9.38 24.9.37.49.38-23.84.37 24.8.37.47.38.46.37.46.38.45.37.45.37.44.38.44.37.43.38.43.37.42.37-.42.38-.43.37-.43.37-.44.38-.44.37-.45.38-48.91.37 23.75.37 23.79.38-.47.37-24.8.38 23.84.37-.49.37-.5.38-.5.37-.51.38-49.47.37 48.43.37 24 .38-25.07.37 24.03.37-25.14.38 24.08.37-.55.38-.55.37-.56.37-.57.38-.58.37-.59.38-.6.37-.61.37-.62.38-.63.37-.65.38-.65.37-50.77.37 24.34.38-.73.37-.74.38-.76.37-.76.37 24.48.38-.76.37-.78.37-.79.38-26.26.37-26.36.38 24.59.37-.91.37 24.68.38.9.37.86.38.85.37-24.61.37 26.26.38-24.57.37.82.38.81.37 26.02.37.73.38.72.37.71.37.69.38-24.38.37.7.38.69.37.68.37.66.38.66.37.64.38.63.37.62.37.61.38.6.37.59.38.59.37.57.37.56.38.56.37.55.38.54.37.53.37.52.38.52.37.51.37.5.38.5.37.49.38.48.37.48.37.47.38.46.37.46.38.45.37.45.37.44.38.44.37.43.38.43.37.42.37-.42.38-.43.37-.43.37-.44.38-24.63.37 23.74.38-.45.37-.46.37-.46.38-.47.37-.48.38-49.18.37 23.83.37 23.88.38-24.93.37-.53.38 23.93.37-.52.37-25.06.38 48.54.37-25.1.38 24.05.37-25.17.37-.57.38 24.11.37-.56.37-.57.38-.58.37-.59.38-.6.37-.61.37-.62.38-.63.37-.65.38-.65.37-.66.37-.68.38-.69.37-51.03.38 24.4.37 24.47.37-26.02.38 24.51.37-51.49.37 24.52.38-.86.37 24.61.38-.85.37-.86.37-.9.38.9.37.86.38.85.37.83.37.82.38.79.37.78.38.76.37.75.37.73.38.72.37.71.38.69.37.68.37.66.38.65.37.65.37-24.29.38.66.37.64.38.63.37.62.37.61.38.6.37.59.38.59.37.57.37.56.38.56.37.55.38.54.37-23.97.37 25.02.38-23.93.37.53.37 24.93.38.5.37.49.38.48.37.48.37.47.38.46.37.46.38.45.37.45.37-23.72.38.45.37.46.38.44.37.44.37-.44.38-.44.37-.46.38-.45.37-.47.37-.47.38-.47.37-.48.37 23.79.38-.47.37-.48.38-.48.37-24.87.37 23.88.38-24.93.37 23.92.38-24.99.37 23.95.37-.53.38-.54.37-.55.38-.56.37-.56.37-25.24.38 24.08.37-.59.37-.6.38-.61.37-.62.38-.63.37-.64.37-.66.38-.66.37-.68.38-.69.37-.7.37-.71.38-.73.37-.74.38-.76.37-.76.37-.79.38-.81.37-.82.38-.83.37-.86.37-.87.38-.9.37-.91.37 24.68.38.9.37.86.38.85.37.83.37.82.38.79.37.78.38.76.37.75.37.73.38.72.37.71.38.69.37.68.37.66.38.65.37.65.37.63.38.62.37.61.38.6.37.59.37.58.38-24.16.37.59.38.59.37.57.37.56.38.56.37.55.38.54.37.53.37.52.38.52.37.51.38.5.37.5.37.49.38.48.37.48.37.47.38.46.37.46.38.45.37.45.37.44.38.44.37.43.38.43.37.42.37-24.53.38-.44.37-.46.38-.45.37-.47.37-.47.38-.47.37 23.77.37-.46.38-.47.37-24.8.38 23.84.37-.49.37-.5.38-.5.37-24.96.38 23.93.37-.52.37-.53.38-.54.37-.55.38-.56.37-.56.37-25.24.38-.62.37 24.11.38-.6.37-25.4.37 48.99.38-.6.37-25.49.37 24.26.38-.63.37-.65.38-.65.37-25.72.37 24.38.38-.69.37-.71.38-.72.37-.73.37-51.3.38 24.47.37-.82.38 24.57.37-.82.37-.83.38-.85.37-.86.37-.9.38.9.37.86.38.85.37.83.37.82.38.79.37.78.38.76.37.75.37.73.38.72.37.71.38-24.4.37.71.37.7.38.69.37.68.38.66.37.66.37.64.38.63.37.62.37.61.38.6.37.59.38.59.37.57.37.56.38.56.37.55.38.54.37.53.37.52.38.52.37.51.38.5.37.5.37.49.38.48.37.48.37.47.38.46.37.46.38.45.37.45.37.44.38.44.37.43.38.43.37.42"/><use xlink:href="#h" color="#00C853" transform="matrix(3.75 0 0 3.75 56.04 142.38)"/><use xlink:href="#h" color="#00C853" transform="matrix(3.75 0 0 3.75 56.25 22.51)"/></g><text fill="#000" stroke="none" stroke-linecap="round" stroke-linejoin="round" color="#000" font-family="KaTeX_Main" font-size="8" transform="translate(241.1 10.11)"><tspan>AVLRelaxedTopDown</tspan></text><g fill="none" stroke="currentColor" stroke-linecap="round" stroke-linejoin="round" color="#000"><path stroke="#3B75EA" stroke-dasharray="4.5,2.0,0.5,2.0,0.5,2.0" d="M205.6 7.51h29.9M28 133.84l.37.54.38.53.37.52.38.52.37.51.37.5.38.5.37.49.38-23.84.37 24.8.37.47.38.46.37.46.37.45.38.45.37-23.72.38.45.37.46.37 24.55.38.42.37-.42.38-.43.37-.43.37-.44.38-.44.37-.45.38-.45.37-.46.37-.46.38-.47.37-.48.37-.48.38-.49.37-.5.38-.5.37-.51.37-.52.38-.52.37-.53.38-.54.37-.55.37-.56.38-.56.37-.57.38-.59.37-.59.37-.6.38-.61.37-.62.38-.63.37-.64.37-.66.38-.66.37-.68.37-.69.38-.7.37-.71.38-.73.37-.74.37 24.44.38-.73.37-.75.38-.76.37-.78.37-.79.38-.82.37-.83.38-.85.37-.86.37-.9.38-24.68.37.91.37.9.38.87.37.86.38 26.19.37.78.37.76.38.75.37.73.38.72.37.71.37.69.38.68.37.66.38.65.37-24.3.37.66.38 25.54.37.61.38.6.37.59.37.58.38-24.16.37.59.37.59.38.57.37-24.05.38 25.17.37-48.57.37 49.66.38.53.37.52.38.52.37.51.37.5.38.5.37.49.38.48.37.48.37.47.38.46.37.46.37.45.38.45.37.44.38.44.37.43.37.43.38.42.37-.42.38-.43.37-.43.37-.44.38-.44.37-.45.38-.45.37-.46.37-.46.38-.47.37-.48.38-.48.37-.49.37-.5.38-.5.37-.51.37-.52.38-.52.37-.53.38-.54.37-.55.37-.56.38-.56.37-.57.38-.59.37-.59.37-.6.38-.61.37-.62.38-.63.37-.64.37-.66.38-.66.37-.68.37-.69.38 24.36.37-.68.38-.69.37-.71.37-.72.38-.73.37-.75.38-.76.37-.78.37-.79.38-.82.37-.83.38-.85.37-.86.37-.9.38.9.37.86.38.85.37.83.37.82.38.79.37.78.37.76.38.75.37.73.38.72.37.71.37.69.38.68.37.66.38-24.33.37.68.37.66.38.66.37.64.38.63.37.62.37.61.38.6.37.59.37.59.38-24.07.37.59.38.59.37.57.37.57.38.56.37.55.38-23.91.37 24.98.37 24.93.38.5.37.49.38.48.37.48.37.47.38.46.37.46.38.45.37.45.37.44.38.44.37.43.37.43.38.42.37-.42.38-.43.37-.43.37-.44.38-.44.37-.45.38-.45.37-.46.37-.46.38-.47.37-.48.38-.48.37-.49.37-.5.38-.5.37-.51.37-.52.38-.52.37-.53.38-.54.37-.55.37-.56.38-.56.37-.57.38-.59.37-.59.37-.6.38-.61.37-.62.38-.63.37-.64.37-.66.38-.66.37-.68.38-.69.37-.7.37-.71.38-.73.37-.74.37-.76.38 24.47.37-.75.38-.76.37-.78.37-.79.38-.82.37-.83.38-.85.37-.86.37-.9.38.9.37.86.38.85.37.83.37.82.38.79.37.78.37.76.38.75.37.73.38-24.44.37.74.37.73.38 25.77.37-24.36.38.69.37.68.37.66.38-24.23.37.68.38 25.48.37.62.37-24.15.38 25.36.37.59.38.59.37-24.07.37.59.38.59.37.57.37.57.38 25.06.37.52.38.52.37.51.37.5.38.5.37.49.38.48.37.48.37.47.38.46.37.46.38.45.37.45.37.44.38.44.37.43.37.43.38.42.37-.42.38-.43.37-.43.37-.44.38-.44.37-.45.38-.45.37-.46.37-.46.38-.47.37-.48.38-.48.37-.49.37-.5.38-.5.37-.51.38-.52.37-.52.37-.53.38-.54.37-.55.37-.56.38-.56.37-.57.38-.59.37-.59.37-.6.38-.61.37-.62.38-.63.37-.64.37-.66.38-.66.37-.68.38-.69.37-.7.37-.71.38-.73.37-.74.37-.76.38-.76.37-.79.38-.81.37-.82.37-.83.38-.86.37-.87.38-.9.37-.91.37-.94.38.94.37.91.38.9.37.87.37.86.38.83.37-24.5.38-24.43.37 51.35.37.76.38.76.37.74.37.73.38.71.37-24.31.38.72.37.71.37.7.38 25.57.37.64.38.63.37.62.37.61.38.6.37.59.38.59.37.57.37.56.38-24.02.37.57.37.57.38.56.37.55.38.54.37.53.37.53.38.52.37.52.38.51.37.5.37-23.79.38.51.37.51.38 48.91.37.45.37.44.38.44.37.43.38.43.37.42.37-.42.38-.43.37-.43.37-.44.38-.44.37-.45.38-.45.37-.46.37-.46.38-.47.37-.48.38-.48.37-.49.37-.5.38-.5.37-.51.38-.52.37-.52.37-.53.38-.54.37-.55.37-.56.38-.56.37-.57.38-.59.37-.59.37-.6.38-.61.37-.62.38-.63.37-.64.37-.66.38-.66.37-.68.38 24.33.37-.66.37-.68.38-.69.37-.71.38-.72.37-.73.37-.75.38-.76.37-.78.37-.79.38-.82.37-.83.38-.85.37-.86.37-.9.38.9.37.86.38-24.63.37 26.31.37-24.58.38.83.37.82.38.81.37.79.37.76.38.76.37.74.37.73.38.71.37.7.38-24.29.37.71.37.7.38 25.57.37.64.38.63.37.62.37.61.38.6.37.59.38.59.37.57.37.56.38.56.37.55.37.54.38.53.37.52.38.52.37.51.37-23.9.38 24.9.37.49.38-23.84.37 24.8.37.47.38.46.37.46.38.45.37.45.37.44.38.44.37.43.38.43.37.42.37-.42.38-.43.37-.43.37-.44.38-.44.37-.45.38-.45.37-.46.37-.46.38-.47.37-.48.38-.48.37-.49.37-.5.38-.5.37-.51.38-.52.37-.52.37-.53.38-.54.37-.55.37-.56.38-.56.37-.57.38-.59.37-.59.37-.6.38-.61.37-.62.38-.63.37-.64.37-.66.38-.66.37-.68.38-.69.37-.7.37-.71.38-.73.37-.74.38-.76.37-.76.37-.79.38-.81.37-.82.37-.83.38 24.58.37-.83.38-.85.37-.86.37-.9.38.9.37.86.38.85.37-24.61.37 26.26.38-24.57.37.82.38.81.37 26.02.37.73.38.72.37.71.37.69.38.68.37.66.38.65.37.65.37-24.29.38.66.37-24.21.38.66.37 50.23.37.58.38.57.37.56.38.55.37.55.37.53.38.53.37.52.38.52.37.5.37-23.98.38.52.37 24.94.37.47.38-23.9.37.49.38.48.37.48.37.47.38.46.37.46.38.45.37.45.37.44.38-23.71.37 24.58.38-23.68.37.44.37-.44.38-.44.37-.46.37-.45.38-.47.37-.47.38-.47.37-.48.37-.49.38-.49.37-.5.38-.51.37-.52.37-.52.38-.53.37-.53.38-.54.37-.55.37-.56.38-.57.37-.57.38-.59.37-.59.37-.6.38-.62.37-.62.37-.63.38-.64.37-.65.38-.66.37-.68.37-.68.38-.7.37-.71.38-.72.37-.74.37-.75.38-.76.37-.78.38-.8.37-.8.37-.83.38 24.47.37-.82.37-.83.38-.86.37-.87.38-.9.37-.91.37-.94.38.94.37.91.38 26.38.37.83.37.82.38.79.37.78.38.76.37.75.37.73.38.72.37.71.38.69.37.68.37.66.38.65.37.65.37.63.38.62.37.61.38-24.22.37.62.37.61.38.6.37.59.38.59.37.57.37 25.17.38-24.05.37.55.38.54.37.53.37 25 .38-23.96.37.51.37.5.38.5.37.49.38.48.37.48.37.47.38.46.37.46.38.45.37.45.37.44.38.44.37.43.38.43.37.42.37-.42.38-.43.37-.43.38-.44.37-.44.37-.45.38-.45.37-.46.37-.46.38-.47.37-.48.38-.48.37-.49.37-.5.38-.5.37-.51.38-.52.37-.52.37-.53.38-.54.37-.55.38-.56.37-.56.37-.57.38-.59.37-.59.37-.6.38-.61.37-.62.38 24.22.37-.61.37-.62.38-.63.37-.65.38-.65.37-.66.37-.68.38-.69.37-.71.38-.72.37-.73.37-.75.38-.76.37-.78.38-.79.37-.82.37-.83.38-.85.37-.86.37-.9.38.9.37.86.38.85.37.83.37.82.38.79.37-24.54.38.81.37.79.37.76.38.76.37.74.38.73.37.71.37.7.38.69.37.68.37.66.38.66.37.64.38.63.37.62.37.61.38-24.13.37.62.38 25.29.37.57.37.56.38.56.37.55.38.54.37.53.37.52.38.52.37.51.38.5.37.5.37.49.38-23.84.37.5.37.49.38 24.74.37.46.38-23.76.37.47.37.47.38 24.6.37.43.38.43.37-23.67.37-.44.38-.44.37-.46.38-.45.37-.47.37-.47.38-.47.37-.48.37-.49.38-.49.37 23.82.38-.48.37-.49.37-.5.38-.5.37-.51.38-.52.37-.52.37-.53.38-.54.37-.55.38-.56.37-.56.37-.57.38-.59.37-.59.38-.6.37-.61.37-.62.38-.63.37-.64.37-.66.38-.66.37-.68.38-.69.37-.7.37-.71.38-.73.37-.74.38-.76.37-.76.37-.79.38-.81.37-.82.38-.83.37-.86.37-.87.38-.9.37-.91.37-.94.38.94.37.91.38.9.37.87.37.86.38.83.37.82.38.81.37.79.37.76.38.76.37.74.38-24.36.37.75.37.74.38.72.37.71.38.7.37.68.37.68.38.66.37.65.37.64.38 25.36.37.59.38.59.37.57.37.56.38.56.37.55.38.54.37.53.37-23.95.38.54.37.53.38.53.37 24.9.37.49.38.48.37.48.37.47.38.46.37.46.38.45.37.45.37.44.38.44.37.43.38.43.37.42"/><use xlink:href="#a" color="#3B75EA" transform="matrix(3.75 0 0 3.75 113.62 139.38)"/><use xlink:href="#a" color="#3B75EA" transform="matrix(3.75 0 0 3.75 220.55 7.51)"/></g><text fill="#000" stroke="none" stroke-linecap="round" stroke-linejoin="round" color="#000" font-family="KaTeX_Main" font-size="8" transform="translate(241.1 25.11)"><tspan>RedBlackRelaxedTopDown</tspan></text><g fill="none" stroke="currentColor" stroke-linecap="round" stroke-linejoin="round" color="#000"><path stroke="#FFAB00" stroke-dasharray="4.5,2.0,0.5,2.0,0.5,2.0" d="M205.6 22.51h29.9M28 109.28l.37.57.38.56.37.55.38.54.37.53.37.53.38.52.37.52.38-23.82.37 24.83.37.49.38.49.37.48.37.47.38.47.37.47.38.45.37.46.37.44.38-23.64.37-.46.38-.47.37-.47.37-.48.38-.49.37-.49.38-.49.37-.51.37-.51.38-.52.37-.52.37-.53.38-.54.37-.55.38-.55.37-.56.37 23.91.38-.55.37-.56.38-.57.37-.57.37-.59.38-.59.37-.6.38-.62.37-.62.37-.63.38-.64.37-.65.38-.66.37-.68.37-.68.38-.7.37-.71.37-.72.38-.74.37-.75.38-.76.37-.78.37-.8.38-.8.37-.83.38-.85.37-.85.37-.88.38-.9.37-.92.38-.94.37 24.62.37-.94.38.94.37.91.37.9.38.87.37.86.38.83.37.82.37.81.38.79.37.76.38.76.37.74.37.73.38.71.37.7.38.69.37.68.37.66.38.66.37.64.38.63.37.62.37.61.38.6.37.59.37.59.38.57.37.56.38.56.37.55.37-23.99.38.56.37 25.02.38.52.37.51.37.5.38.5.37.49.38.48.37.48.37.47.38.46.37.46.37-23.76.38.47.37.47.38.45.37.46.37.44.38.44.37-.44.38-.44.37-.46.37-.45.38-.47.37-.47.38-.47.37-.48.37-.49.38-.49.37-.5.38-.51.37-.52.37-.52.38-.53.37-.53.37-.54.38-.55.37-.56.38-.57.37-.57.37-.59.38-.59.37-.6.38-.62.37-.62.37-.63.38-.64.37-.65.38-.66.37-.68.37-.68.38-.7.37-.71.37-.72.38 24.31.37-.71.38-.73.37-.74.37-.76.38-.76.37-.79.38-.81.37-.82.37-.83.38-.86.37-.87.38 24.63.37-.86.37-.9.38.9.37.86.38.85.37.83.37-24.58.38.83.37.82.37.81.38.79.37.76.38.76.37.74.37.73.38.71.37.7.38.69.37-24.27.37.7.38.68.37.68.38.66.37.65.37.64.38 25.36.37.59.37.59.38.57.37.56.38.56.37.55.37.54.38-23.97.37.55.38.54.37.53.37.53.38.52.37.52.38.51.37.5.37.49.38.49.37.48.38.47.37.47.37.47.38.45.37 24.58.37.43.38.42.37-.42.38-.43.37-.43.37-.44.38-.44.37-.45.38-.45.37-.46.37-.46.38-.47.37-.48.38-.48.37-.49.37-.5.38-.5.37-.51.37-.52.38-.52.37-.53.38-.54.37-.55.37-.56.38-.56.37-.57.38-.59.37-.59.37-.6.38-.61.37-.62.38-.63.37-.64.37-.66.38-.66.37-.68.38-.69.37-.7.37-.71.38-.73.37-.74.37-.76.38-.76.37-.79.38-.81.37-.82.37-.83.38-.86.37-.87.38-.9.37-.91.37-.94.38.94.37.91.38.9.37.87.37.86.38.83.37-24.5.37.85.38.83.37-24.39.38.83.37 25.94.37.76.38.75.37 25.75.38-24.29.37.71.37.7.38.68.37.68.38.66.37-24.14.37.67.38 25.39.37.62.38-24.05.37.63.37.62.38.61.37-23.95.37 49.68.38.56.37.55.38.54.37-23.89.37 24.95.38-23.85.37 24.89.38.51.37.5.37.49.38.49.37.48.38.47.37.47.37.47.38.45.37.46.37.44.38.44.37-.44.38-.44.37-.46.37 23.71.38-.44.37-.45.38-.45.37-.46.37-.46.38-.47.37-.48.38-.48.37-.49.37-.5.38-.5.37-.51.38-.52.37-.52.37-.53.38-.54.37-.55.37-.56.38-.56.37-.57.38-.59.37-.59.37-.6.38-.61.37 24.2.38-.6.37-.61.37-.62.38-.63.37-.65.38-.65.37-.66.37-.68.38-.69.37-.71.37-.72.38-.73.37-.75.38-.76.37-.78.37-.79.38-.82.37-.83.38-.85.37 24.71.37-.84.38.84.37-24.71.38.85.37.83.37-24.58.38.83.37.82.38.81.37.79.37.76.38.76.37.74.37.73.38.71.37.7.38.69.37.68.37-24.25.38.68.37.68.38.66.37.65.37.64.38 25.36.37.59.38.59.37.57.37-24.05.38.59.37 25.13.37-23.99.38.56.37.55.38.54.37.53.37.53.38.52.37.52.38.51.37.5.37-23.79.38.51.37.51.38.49.37 48.87.37.44.38.44.37.43.38.43.37.42.37-.42.38-.43.37-.43.37-.44.38-.44.37-.45.38-.45.37-.46.37-.46.38-.47.37-.48.38-.48.37-.49.37-.5.38-.5.37-.51.38-.52.37-.52.37-.53.38-.54.37-.55.37-.56.38-.56.37-.57.38-.59.37-.59.37-.6.38-.61.37-.62.38-.63.37-.64.37-.66.38-.66.37-.68.38-.69.37-.7.37-.71.38-.73.37-.74.38-.76.37-.76.37-.79.38-.81.37-.82.37-.83.38-.86.37-.87.38-.9.37-.91.37-.94.38.94.37.91.38.9.37.87.37-24.54.38.88.37.85.38.85.37.83.37.8.38-24.36.37.81.37 25.89.38.75.37.74.38 25.7.37.68.37-24.25.38.68.37.68.38.66.37.65.37-24.12.38.67.37.65.38.64.37 25.27.37.59.38.59.37.57.37.57.38.56.37.55.38-23.91.37.56.37 24.95.38.52.37.52.38.51.37.5.37.49.38.49.37.48.38.47.37-23.72.37.49.38.48.37-23.65.38.49.37 48.64.37 23.67.38-.43.37-.43.37-.44.38-.44.37-.45.38-.45.37-.46.37-.46.38-.47.37-.48.38-.48.37-.49.37-.5.38-.5.37-.51.38-.52.37-.52.37-.53.38-.54.37-.55.37-.56.38-.56.37-.57.38-.59.37-.59.37-.6.38-.61.37-.62.38 24.22.37-.61.37-.62.38-.63.37-.65.38-.65.37-.66.37-.68.38-.69.37-.71.38-.72.37-.73.37-.75.38-.76.37-.78.37-.79.38-.82.37-.83.38-.85.37-.86.37-.9.38.9.37.86.38-24.63.37.87.37.86.38.83.37-24.5.38.85.37.83.37.8.38.8.37.78.37.76.38.75.37.74.38.72.37.71.37.7.38.68.37.68.38.66.37.65.37.64.38.63.37-24.07.38-24.03.37.66.37.65.38.64.37.63.38.62.37 25.11.37.58.38.57.37.56.37.55.38.55.37.54.38.53.37.52.37.52.38.51.37.51.38.49.37.49.37-23.68.38.5.37 24.62.38-23.63.37 24.56.37-.46.38-.47.37-.47.37-.48.38-.49.37-.49.38-.49.37-.51.37 23.77.38-.49.37-.5.38-.51.37-.52.37-.52.38-.53.37-.53.38-.54.37-.55.37-.56.38-.57.37-.57.38-.59.37-.59.37-.6.38-.62.37-.62.37-.63.38-.64.37-.65.38 24.19.37-.64.37-.66.38-.66.37-.68.38-.69.37-.7.37-.71.38-.73.37-.74.38-.76.37-.76.37-.79.38-.81.37-.82.37-.83.38-.86.37-.87.38-.9.37-.91.37-.94.38 26.52.37.86.38.85.37.83.37-24.58.38.83.37 26.14.38-24.51.37.79.37-24.44.38 25.96.37.74.38.73.37.71.37.7.38.69.37.68.37.66.38.66.37-24.21.38.66.37.65.37.64.38 25.36.37.59.38.59.37.57.37.56.38.56.37.55.38.54.37.53.37.52.38.52.37.51.37.5.38.5.37.49.38.48.37.48.37.47.38.46.37.46.38.45.37.45.37-23.72.38.45.37.46.38.44.37.44.37-.44.38-.44.37-.46.38-.45.37-.47.37-.47.38-.47.37-.48.37-.49.38-.49.37-.5.38-.51.37-.52.37-.52.38-.53.37-.53.38-.54.37-.55.37-.56.38-.57.37-.57.38-.59.37-.59.37-.6.38-.62.37-.62.37 24.13.38-.61.37-.62.38-.63.37-.64.37-.66.38-.66.37-.68.38-.69.37-.7.37-.71.38-.73.37-.74.38-.76.37-.76.37-.79.38-.81.37-.82.38-.83.37-.86.37-.87.38-.9.37-.91.37-.94.38.94.37.91.38.9.37.87.37.86.38.83.37.82.38.81.37.79.37.76.38-24.4.37.78.38.76.37.75.37 25.75.38.69.37.68.37-24.25.38 25.57.37.64.38.63.37.62.37.61.38.6.37-24.11.38.62.37.6.37.59.38 25.17.37.55.38-23.99.37.56.37.55.38.54.37 24.96.38.5.37.5.37-23.86.38.51.37.5.37.49.38.49.37.48.38 24.68.37.45.37.44.38.44.37.43.38.43.37.42.37-.42.38-.43.37-.43.38-.44.37-.44.37-.45.38-.45.37-.46.37-.46.38-.47.37-.48.38-.48.37-.49.37-.5.38-.5.37-.51.38-.52.37-.52.37-.53.38-.54.37-.55.38-.56.37-.56.37-.57.38-.59.37-.59.38-.6.37-.61.37-.62.38-.63.37-.64.37-.66.38-.66.37-.68.38-.69.37-.7.37-.71.38-.73.37-.74.38-.76.37-.76.37-.79.38-.81.37-.82.38-.83.37-.86.37-.87.38-.9.37 24.67.37-.9.38.9.37.86.38.85.37.83.37.82.38-24.57.37.82.38 26.08.37.75.37.73.38-24.44.37.74.38.73.37 25.77.37.66.38.65.37.65.38.63.37-24.26.37.64.38.63.37-24.17.37.64.38.63.37-24.07.38.64.37.63.37.62.38.61.37.6.38.6.37 25.09.37.55.38.54.37.53.38.53.37.52.37.52.38.51.37.5.37.49.38.49.37.48.38.47.37.47.37-23.7.38.48.37 24.6.38.44.37.44"/><use xlink:href="#i" color="#FFAB00" transform="matrix(3.75 0 0 3.75 171.2 123.22)"/><use xlink:href="#i" color="#FFAB00" transform="matrix(3.75 0 0 3.75 220.55 22.51)"/></g><path fill="none" stroke="none" stroke-linecap="round" stroke-linejoin="round" stroke-width="0" d="M28 45.01V205M371.99 45.01H28" color="#000"/></svg>