<svg xmlns="http://www.w3.org/2000/svg" xmlns:xlink="http://www.w3.org/1999/xlink" viewBox="0 0 400 250"><path fill="none" d="M0 0h400v250H0z"/><defs><use xlink:href="#a" id="f" fill="currentColor" stroke="none"/><use xlink:href="#b" id="c" stroke="currentColor" transform="rotate(45)"/><use xlink:href="#c" id="e" fill="currentColor" stroke="none"/><path id="b" stroke="currentColor" stroke-width=".267" d="M-1-1h2v2h-2z"/><path id="a" stroke="currentColor" stroke-width=".267" d="m0-1.33-1.33 2h2.66z"/><circle id="d" cx="0" cy="0" r="1" stroke="currentColor" stroke-width=".267"/></defs><path fill="none" stroke="#333" stroke-linecap="round" stroke-linejoin="round" stroke-width=".1" d="M46.1 205V45.01" class="gridline" color="#000"/><g fill="none" stroke-linecap="round" stroke-linejoin="round" stroke-width="0" color="#000"><path d="M46.1 205v-7.5m0-152.49v7.5"/><text fill="#000" font-family="KaTeX_Main" font-size="8" text-anchor="middle" transform="translate(46.1 215.1)"><tspan> 1</tspan></text></g><path fill="none" stroke="#333" stroke-linecap="round" stroke-linejoin="round" stroke-width=".1" d="M82.31 205V45.01" class="gridline" color="#000"/><g fill="none" stroke-linecap="round" stroke-linejoin="round" stroke-width="0" color="#000"><path d="M82.31 205v-7.5m0-152.49v7.5"/><text fill="#000" font-family="KaTeX_Main" font-size="8" text-anchor="middle" transform="translate(82.31 215.1)"><tspan> 2</tspan></text></g><path fill="none" stroke="#333" stroke-linecap="round" stroke-linejoin="round" stroke-width=".1" d="M118.52 205V45.01" class="gridline" color="#000"/><g fill="none" stroke-linecap="round" stroke-linejoin="round" stroke-width="0" color="#000"><path d="M118.52 205v-7.5m0-152.49v7.5"/><text fill="#000" font-family="KaTeX_Main" font-size="8" text-anchor="middle" transform="translate(118.52 215.1)"><tspan> 3</tspan></text></g><path fill="none" stroke="#333" stroke-linecap="round" stroke-linejoin="round" stroke-width=".1" d="M154.73 205V45.01" class="gridline" color="#000"/><g fill="none" stroke-linecap="round" stroke-linejoin="round" stroke-width="0" color="#000"><path d="M154.73 205v-7.5m0-152.49v7.5"/><text fill="#000" font-family="KaTeX_Main" font-size="8" text-anchor="middle" transform="translate(154.73 215.1)"><tspan> 4</tspan></text></g><path fill="none" stroke="#333" stroke-linecap="round" stroke-linejoin="round" stroke-width=".1" d="M190.94 205V45.01" class="gridline" color="#000"/><g fill="none" stroke-linecap="round" stroke-linejoin="round" stroke-width="0" color="#000"><path d="M190.94 205v-7.5m0-152.49v7.5"/><text fill="#000" font-family="KaTeX_Main" font-size="8" text-anchor="middle" transform="translate(190.94 215.1)"><tspan> 5</tspan></text></g><path fill="none" stroke="#333" stroke-linecap="round" stroke-linejoin="round" stroke-width=".1" d="M227.15 205V45.01" class="gridline" color="#000"/><g fill="none" stroke-linecap="round" stroke-linejoin="round" stroke-width="0" color="#000"><path d="M227.15 205v-7.5m0-152.49v7.5"/><text fill="#000" font-family="KaTeX_Main" font-size="8" text-anchor="middle" transform="translate(227.15 215.1)"><tspan> 6</tspan></text></g><path fill="none" stroke="#333" stroke-linecap="round" stroke-linejoin="round" stroke-width=".1" d="M263.36 205V45.01" class="gridline" color="#000"/><g fill="none" stroke-linecap="round" stroke-linejoin="round" stroke-width="0" color="#000"><path d="M263.36 205v-7.5m0-152.49v7.5"/><text fill="#000" font-family="KaTeX_Main" font-size="8" text-anchor="middle" transform="translate(263.36 215.1)"><tspan> 7</tspan></text></g><path fill="none" stroke="#333" stroke-linecap="round" stroke-linejoin="round" stroke-width=".1" d="M299.57 205V45.01" class="gridline" color="#000"/><g fill="none" stroke-linecap="round" stroke-linejoin="round" stroke-width="0" color="#000"><path d="M299.57 205v-7.5m0-152.49v7.5"/><text fill="#000" font-family="KaTeX_Main" font-size="8" text-anchor="middle" transform="translate(299.57 215.1)"><tspan> 8</tspan></text></g><path fill="none" stroke="#333" stroke-linecap="round" stroke-linejoin="round" stroke-width=".1" d="M335.78 205V45.01" class="gridline" color="#000"/><g fill="none" stroke-linecap="round" stroke-linejoin="round" stroke-width="0" color="#000"><path d="M335.78 205v-7.5m0-152.49v7.5"/><text fill="#000" font-family="KaTeX_Main" font-size="8" text-anchor="middle" transform="translate(335.78 215.1)"><tspan> 9</tspan></text></g><path fill="none" stroke="#333" stroke-linecap="round" stroke-linejoin="round" stroke-width=".1" d="M371.99 205V45.01" class="gridline" color="#000"/><g fill="none" stroke-linecap="round" stroke-linejoin="round" stroke-width="0" color="#000"><path d="M371.99 205v-7.5m0-152.49v7.5"/><text fill="#000" font-family="KaTeX_Main" font-size="8" text-anchor="middle" transform="translate(371.99 215.1)"><tspan> 10</tspan></text></g><g fill="none" stroke-linecap="round" stroke-linejoin="round" stroke-width="0" color="#000"><path d="M371.99 205h-7.5"/><text fill="#000" font-family="KaTeX_Main" font-size="8" transform="translate(378.99 207.6)"><tspan>0.15</tspan></text></g><g fill="none" stroke-linecap="round" stroke-linejoin="round" stroke-width="0" color="#000"><path d="M371.99 182.14h-7.5"/><text fill="#000" font-family="KaTeX_Main" font-size="8" transform="translate(378.99 184.74)"><tspan>0.20</tspan></text></g><g fill="none" stroke-linecap="round" stroke-linejoin="round" stroke-width="0" color="#000"><path d="M371.99 159.29h-7.5"/><text fill="#000" font-family="KaTeX_Main" font-size="8" transform="translate(378.99 161.89)"><tspan>0.25</tspan></text></g><g fill="none" stroke-linecap="round" stroke-linejoin="round" stroke-width="0" color="#000"><path d="M371.99 136.43h-7.5"/><text fill="#000" font-family="KaTeX_Main" font-size="8" transform="translate(378.99 139.03)"><tspan>0.30</tspan></text></g><g fill="none" stroke-linecap="round" stroke-linejoin="round" stroke-width="0" color="#000"><path d="M371.99 113.58h-7.5"/><text fill="#000" font-family="KaTeX_Main" font-size="8" transform="translate(378.99 116.18)"><tspan>0.35</tspan></text></g><g fill="none" stroke-linecap="round" stroke-linejoin="round" stroke-width="0" color="#000"><path d="M371.99 90.72h-7.5"/><text fill="#000" font-family="KaTeX_Main" font-size="8" transform="translate(378.99 93.32)"><tspan>0.40</tspan></text></g><g fill="none" stroke-linecap="round" stroke-linejoin="round" stroke-width="0" color="#000"><path d="M371.99 67.87h-7.5"/><text fill="#000" font-family="KaTeX_Main" font-size="8" transform="translate(378.99 70.47)"><tspan>0.45</tspan></text></g><g fill="none" stroke-linecap="round" stroke-linejoin="round" stroke-width="0" color="#000"><path d="M371.99 45.01h-7.5"/><text fill="#000" font-family="KaTeX_Main" font-size="8" transform="translate(378.99 47.61)"><tspan>0.50</tspan></text></g><path fill="none" d="M28 45.01V205M371.99 45.01H28" color="#000"/><text stroke-linecap="round" stroke-linejoin="round" stroke-width="0" color="#000" font-family="KaTeX_Main" font-size="10" text-anchor="middle" transform="rotate(-90 68.255 56.755)"><tspan font-weight="bold">Duration </tspan><tspan> in milliseconds</tspan></text><text stroke-linecap="round" stroke-linejoin="round" stroke-width="0" color="#000" font-family="KaTeX_Main" font-size="10" text-anchor="middle" transform="translate(199.99 238.25)"><tspan>Operations / 10</tspan><tspan dy="-5" font-size="8">5</tspan></text><text stroke-linecap="round" stroke-linejoin="round" color="#000" font-family="KaTeX_Main" font-size="8" transform="translate(132.8 10.11)"><tspan>LBSTBottomUp</tspan></text><g fill="none" stroke="currentColor" stroke-linecap="round" stroke-linejoin="round" color="#000"><path stroke="#3B75EA" d="M97.3 7.51h29.9M28 187.41l.36-.49.36 3.03.37-3.76.36 3.1.36-3.84.36 3 .36-.22.37-4.22.36.09.36-.47.36 3.18.37-3.97.36 3.3.36-3.74.36 3.04.36-.15.37-3.93.36-.12.36-.53.36 3.27.36-3.7.37 3.2.36-3.57.36 2.82h.36l.36-3.83.37 3.3.36-7.46.36 6.76.36-3.53.36-.5.37.05.36 2.99.36-.02.36-3.75.37 3.43.36-3.78.36 3.11.36-3.75.36-.18.37-.08.36 3.16.36-.11.36-3.21.36 2.68.37-3.52.36 2.98.36-3.68.36-.15.36.05.37 2.98.36-.07.36-3.71.36 3.26.37-3.52.36 3.23.36-4.79.36.88.36-.02.37 3.2.36-.04.36-3.76.36 3.35.36-3.53.37 3.08.36-3.58.36-.23.36 3.41.36-7.11.37 6.54.36-3.4.36 3.42.36-3.68.37 3.27.36-.14.36-3.57.36 2.22.36-6.21.37 6.99.36-3.64.36 3.22.36-5.08.36 3.64.37.87.36-3.7.36 3.51.36-7.11.36 6.8.37-3.52.36 3.29.36-3.46.36 3.36.36-.17.37-3.53.36 3.32.36-6.96.36 6.66.37-3.47.36-.24.36-.06.36 3.28.36-.09.37-3.62.36 3.38.36-3.72.36 3.47.36-3.44.37-.48.36 3.56.36-3.53.36 3.35.36-3.42.37 3.26.36-3.54.36 3.17.36-3.28.37-.52.36 3.43.36-3.55.36 3.35.36-3.35.37 2.95.36-3.22.36 2.91.36-3.34.36.14.37 3.41.36-3.68.36 3.31.36-3.77.36 3.34.37-3.24.36 3.14.36-3.36.36-.15.36 3.44.37-7.17.36 6.75.36-3.34.36 3.25.37-3.52.36 3.24.36.06.36-3.41.36 3.21.37-6.95.36 6.75.36-3.56.36 3.21.36.28.37-3.72.36 3.28.36-3.49.36 3.36.36-7.19.37 7.08.36-3.5.36 3.32.36-.17.37-3.61.36 3.47.36-3.68.36 3.34.36-6.71.37 6.49.36-3.3.36-.36.36 3.55.36-3.7.37 3.49.36-3.45.36 3.23.36-3.65.36 3.55.37-3.68.36-.02.36 3.34.36-3.4.36 3.14.37-3.34.36 3.27.36-3.48.36 3.36.37-3.28.36-.44.36 3.51.36-3.57.36 3.24.37-3.6.36 3.52.36.06.36-3.59.36-.1.37-.07.36 3.36.36-3.49.36 3.2.36-3.2.37 3.19.36-.04.36-3.57.36.08.37-.54.36 3.77.36-7.05.36 6.78.36-3.42.37 3.47.36-.24.36-3.56.36 3.46.36-3.5.37 3.28.36-7.04.36 6.82.36-3.46.36 3.34.37-.01.36-3.23.36 2.92.36-3.21.37 3.21.36-6.79.36 6.87.36-3.54.36 3.29.37-.24.36-3.52.36 3.75.36-3.46.36 3.2.37-6.71.36 6.45.36-3.12.36 2.97.36.02.37-3.58.36 3.59.36-3.67.36 3.2.36-3.23.37-.15.36-.15.36-.21.36 3.58.37-3.23.36 3.02.36-3.36.36 3.29.36-.08.37-3.38.36-.46.36.38.36 3.09.36-3.21.37 3.19.36-3.26.36 3.41.36-.05.36-3.55h.37l.36-.49.36 3.78.36-3.6.37 3.45.36-3.56.36 3.44.36.07.36-3.59.37.09.36-.22.36 3.53.36-6.88.36 6.52.37-3.52.36 3.43.36.14.36-3.53.36 3.22.37-3.4.36 3.43.36-3.53.36.07.36-.03.37 3.27.36.07.36-3.78.36 3.52.37-3.47.36 3.58.36-3.67.36-.15.36.16.37 3.07.36.22.36-3.51.36 3.41.36-3.46.37 3.41.36-3.61.36-.09.36.02.36 3.31.37.1.36-3.64.36 3.4.36-3.3.37 3.08.36-3.32.36-.38.36.21.36-.38.37 3.51.36-3.55.36 3.57.36-3.51.36 3.34.37.05.36-3.65.36.22.36-.42.36 3.5.37-3.42.36 3.33.36-3.28.36 3.24.36-.01.37-3.6.36.06.36-.35.36 3.45.37-3.28.36 3.22.36-3.4.36 3.47.36-.18.37-3.73.36.41.36-.56.36 3.6.36-3.63.37.02.36.14.36 3.2.36.03.36-3.59.37 3.36.36-3.43.36 3.42.36-3.47.37-.23.36-.16.36 3.39.36.03.36-3.35.37 3.35.36-3.65.36 3.54.36-3.76.36-.51.37.39.36 3.21.36.19.36-3.6.36 3.35.37-3.2.36 3 .36-3.5.36-.35.37.15.36 3.42.36.06.36-3.51.36 3.34.37-3.54.36 3.4.36-3.61.36-.44.36.36.37-.57.36 3.57.36-3.42.36 3.36.36-3.29.37 3.26.36.14.36-3.68.36 3.2.36-7.27.37 7.02.36-3.52.36 3.46.36-3.8.37 3.46.36.11.36-3.5.36 3.37.36-7.06.37 6.68.36-3.45.36 3.43.36-3.28.36 3 .37.17.36-3.82.36 3.68.36-7.39.36 6.84.37-3.49.36 3.36.36-3.31.36 3.17.37.22.36-3.73.36 3.48.36-7.33.36 6.8.37-3.73.36-.23.36.11.36 3.24.36.24.37-3.64.36 3.49.36-3.72.36 3.43.36-3.8.37.08.36 3.34.36-3.65.36 3.69.36-3.57.37 3.33.36-3.46.36 3.01.36-3.56.37-.43.36 3.55.36-4 .36 3.64.36-3.5.37 3.33.36-3.54.36 3.29.36-3.5.36-.3.37 3.3.36-7.36.36 6.96.36-4.7.36 4.42.37-3.35.36 3.32.36.02.36-3.74.37 3.48.36-7.59.36 7.15.36-3.57.36 3.42.37-3.4.36 3.08.36.23.36-3.74.36 3.41.37-7.62.36 7.1.36-3.87.36 3.54.36-3.15.37 3.03.36.06.36-3.95.36 3.64.37-7.32.36 6.66.36-3.52.36 3.55.36.07.37-3.85.36 3.56.36-3.79.36 3.36.36-7.46.37 6.63.36-3.63.36-.25.36 3.46.36-3.77.37 3.63.36-3.8.36 3.7.36-3.53.36 3.03.37-3.64.36-.47.36 3.55.36-3.8.37 3.55.36-3.8.36 3.46.36-3.58.36 3.07.37-3.29.36-.72.36 3.77.36-3.81.36 3.43.37-3.52.36 3.24.36-3.66.36 3.38.36-3.6.37-.43.36 3.43.36-7.27.36 6.69.37-3.7.36 3.53.36.15.36-4.05.36 3.68.37-4.1.36 3.72.36-7.25.36 6.62.36-3.63.37 3.38.36.11.36-3.97.36 3.93.36-3.93.37 3.53.36-7.28.36 6.44.36-3.36.36 3.41.37-.22.36-3.92.36 3.84.36-3.89.37 3.58.36-7.26.36 6.25.36-2.99.36 2.92.37.18.36-3.65.36 3.46.36-3.52.36 3.15.37-7.19.36 6.45.36-3.15.36-.42.36 3.56.37-3.95.36 3.76.36-3.58.36 3.31.37-.02.36-3.76.36.04.36-.74.36 3.84.37-3.46.36 3.27.36-3.75.36 3.67.36.01.37-3.74.36.06.36-.53.36 3.64.36-3.88.37 3.52.36-3.47.36 3.44.36-.01.36-3.78.37.26.36-.67.36 3.54.36-3.85.37 3.56.36-3.74.36 3.41.36.16.36-4.02.37.16.36-.58.36 3.65.36-9.77.36 6.09.37-2.21.36 4.57.36.14.36-3.88.36 3.74.37-3.98.36 3.63.36-3.8.36-.33.37.34.36 3.28.36-.25.36-3.39.36 3.39.37-3.37.36 2.83.36-3.35.36-.12.36-.32.37 3.51.36.19.36-3.94.36 3.77.36-3.69.37 3.62.36-3.96.36-.28.36-.16.37-.21.36 3.7.36-3.87.36 3.52.36-3.38.37 3.27.36-.07.36-3.97.36.16.36-.62.37 3.44.36-3.68.36 2.73.36-2.44.36 3.37.37-.05.36-3.89.36-.09.36-.29.36 3.57.37-4.01.36 4.06.36-3.55.36 3.24.37-.03.36-3.77.36.01.36-.62.36 3.68.37-3.6.36 3.28.36-3.26.36 3.33.36-.04.37-3.83.36.1.36-.4.36 3.53.36-3.7.37-.38.36.31.36 2.98.36.44.37-3.83.36 3.07.36-3.47.36 3.75.36-3.72.37-.25.36-.34.36 3.91.36.06.36-3.53.37 3.34.36-3.27.36 3.08.36-3.45.36-.1.37-.11.36 3.44.36.07.36-3.56.36 3.67.37-4 .36 3.57.36-3.13.36-.38.37.05.36-.48.36 3.35.36-3.44.36 3.67.37-3.47.36 3.52.36.17.36-4.01.36-.28h.37l.36 3.36.36-3.55.36 3.79.36-3.86.37 3.73.36-.24.36-3.59.36.15.37-.78.36 3.48.36-3.43.36 3.44.36-3.37.37 3.32.36-.04.36-3.55.36 3.41.36-7.16.37 6.72.36-3.72.36 3.7.36-3.3.36 2.99.37.12.36-3.96.36 4.08.36-7.8.36 7.17.37-3.61.36-.46.36.4.36 3.09.37.19.36-3.68.36 3.72.36-3.78.36 3.57.37-3.69.36-.48.36.05.36 3.51.36.1.37-4.35.36 4.15.36-3.67.36 3.13.36-3.34.37-.41.36.33.36 3.28.36.11.37-3.59.36 3.5.36-3.56.36 3.44.36-3.85.37-.48.36 3.58.36-3.61.36 3.72.36-3.76.37 3.58.36-3.47.36 3.55.36-3.78.36-.43.37 3.16.36-6.94.36 6.67.36-3.12.37 3.34.36-3.91.36 3.45.36.37.36-3.94.37 3.78.36-8.05.36 7.43.36-3.77.36 3.66.37-3.36.36 2.96.36.26.36-3.76.36 3.51.37-7.51.36 7.04.36-3.45.36 3.23.36-3.23.37 3.08.36.11.36-3.79.36 3.71.37-7.44.36 7.05.36-3.92.36-.03.36 3.77.37-3.99.36 3.83.36-3.94.36 3.78.36-3.65.37 3.2.36-3.51.36-.38.36 3.56.36-3.57.37 3.72.36-3.73.36 3.46.36-3.54.37 3.39.36-3.87.36-.25.36 3.56.36-3.53.37 3.15.36-3.14.36 3.3.36-3.43.36 3.04.37-3.1.36-.81.36 4.15.36-4.06.36 3.78.37-4.07.36 3.88.36-3.52.36 2.99.36-3.21.37-.69.36 3.92.36-7.56.36 6.79.37-3.31.36 3.5.36.03.36-3.81.36 3.48.37-3.65.36 3.71.36-7.62.36 7.03.36-3.77.37 3.61.36.22.36-3.7.36 3.45.36-3.53.37 3.42.36-7.6.36 7.23.36-3.77.37 3.4.36.02.36-3.44.36 3.33.36-3.88.37 3.97.36-7.39.36 7.02.36-3.7.36-.5.37 3.51.36-3.5.36 3.59.36-3.41.36 3.27.37-3.41.36 3.21.36-3.8.36-.32.36 3.98.37-3.66.36 3.26.36-3.48.36 3.29.37.46.36-3.88.36-.15.36-.4.36 3.73.37-3.63.36 3.29.36-3.77.36 3.74.36.26.37-4.19.36.1h.36l.36 3.61.36-3.85.37 2.49.36-2.86.36 3.87.36-.09.37-3.73.36.11.36-.81.36 3.6.36-7.13.37 6.89.36-3.48.36 3.12.36.79.36-3.97.37 3.59.36-3.82.36 3.31.36-7.41.36 7.3.37-3.52.36 3.47.36.03.36-3.98.37 3.7.36-3.53.36 3.27.36-3.98.36.07.37.11.36 3.53.36.17.36-4.01.36 3.29.37-3.45.36 3.7.36-3.66.36-.4.36.07.37 3.49.36.18.36-3.81.36 3.63.36-3.73.37 3.41.36-4.11.36.25.36-.21.37-.16.36 3.55.36-3.82.36 3.76.36-4.16.37 4 .36.02.36-3.9"/><use xlink:href="#d" color="#3B75EA" transform="matrix(3.75 0 0 3.75 354.25 88.19)"/><use xlink:href="#d" color="#3B75EA" transform="matrix(3.75 0 0 3.75 112.25 7.51)"/></g><text stroke-linecap="round" stroke-linejoin="round" color="#000" font-family="KaTeX_Main" font-size="8" transform="translate(132.8 25.11)"><tspan>LBSTRelaxed</tspan></text><g fill="none" stroke="currentColor" stroke-linecap="round" stroke-linejoin="round" color="#000"><path stroke="violet" stroke-dasharray="4.5,2.0,0.5,2.0,0.5,2.0" d="M97.3 22.51h29.9M28 197.88l.36 5.37.36-4.13.37 3.43.36-.16.36-4.06.36 2.45.36-8.29.37 8.19.36-4.49.36 2.79.36-.78.37-2.8.36 2.93.36-3.31.36 3.66.36-7.41.37 6.99.36-3.8.36-.4.36 3.56.36-4.02.37 3.4.36-3.67.36 3.03.36-3.46.36 2.86.37-3.57.36-.52.36 3.76.36-3.78.36 3.33.37-3.84.36 2.05.36-2.52.36 2.64.37-3.17.36-.33.36 3.19.36-3.85.36 3.63.37-3.74.36 3.37.36-4.65.36 3.25.36-3.61.37.44.36 3.4.36-3.6.36 2.38.36-3.32.37 3.02.36-.87.36-2.67.36-3.57.37 3.23.36 3.63.36-7.94.36 6.88.36-9.41.37 8.98.36.31.36-3.85.36 1.98.36-3.1.37 3.34.36-6.82.36 6.8.36-3.62.36 3.22.37-2.1.36-1.64.36 2.42.36-3.52.37 4.29.36-7.34.36 5.98.36-2.75.36 1.35.37 2.31.36-5.57.36 3.05.36-1.1.36 3.27.37-6.91.36 6.59.36-3.5.36-.15.36 3.42.37-3.41.36 3.21.36-3.58.36 3.29.36-3.57.37 3.22.36-3.38.36-.2.36 3.38.37-3.85.36 3.48.36-3.42.36 3.01.36.08.37-4.02.36.29.36-.27.36 3.47.36-3.57.37 3.56.36-3.78.36 3.36.36.02.36-3.76.37.14.36-.25.36 3.3.36-3.51.37 2.5.36-2.99.36 3.31.36.06.36-4.3.37.37.36-.17.36 3.44.36-6.74.36 6.72.37-8.26.36 7.79.36.02.36-3.73.36 3.64.37-5.1.36 4.54.36-7.8.36 7.81.36-3.45.37 3.01.36-1.22.36-5.09.36 6.07.37-3.14.36 2.88.36-4.47.36-4.52.36 3.18.37 5.67.36-1.08.36-2.82.36.9.36-.85.37 3.14.36-3.47.36-.22.36.27.36.06.37-2.67.36 1.29.36 4.26.36-12.73.37 10.7.36 1.29.36-3.59.36-.73.36.86.37 2.23.36-3.69.36 2.21.36-2.41.36 4.77.37-.67.36-3.42.36-.7.36.22.36 3.99.37-3.43.36 2.31.36-3.78.36-1.25.36 5.83.37-7.62.36 3.51.36-.72.36-1.77.37.85.36 3.65.36-1.83.36 3.02.36.22.37-5.78.36 1.55.36-.42.36 3.51.36-2.89.37-.24.36-.38.36 3.77.36-.3.36-3.06.37 2.67.36-5.41.36 5.36.36-3.99.37.23.36-3.1.36 5.74.36.72.36-3.9.37 4.16.36-3.81.36 2.88.36-3.05.36.39.37.24.36 3.25.36.17.36-3.58.36 3.47.37-3.72.36 3.28.36-3.19.36-.26.37-.03.36 3.31.36.03.36-3.48.36 3.34.37-3.57.36 3.42.36-3.46.36-.14.36-1.1.37.98.36 3.16.36-3.23.36 3.17.36-3.05.37 3.16.36.02.36-3.62.36.18.36-.37.37 3.42.36-3.64.36-1.78.36 1.24.37 3.87.36-.07.36-3.66.36 3.42.36-6.75.37 6.64.36-3.48.36 3.3.36-3.26.36 3.02.37.14.36-3.23.36 3.19.36-7.15.36 6.96.37-3.51.36-.17.36-.03.36 3.33.37.05.36-3.99.36 3.8.36-3.28.36 3.12.37-3.4.36-.11.36.15.36 2.03.36.85.37-3.07.36 2.59.36-2.79.36 3.07.36-3.61.37.04.36.19.36 3.09.36.11.36-3.78.37 3.77.36-3.42.36 2.3.36-2.69.37-.23.36 3.42.36-3.49.36 3.13.36-3.55.37 3.59.36-3.13.36 2.8.36-3.1.36-.29.37 2.47.36-6.28.36 7.23.36-3.67.36 3.5.37-3.17.36 3.03.36.11.36-3.64.37 3.46.36-6.97.36 6.78.36-3.56.36 3.48.37-3.87.36 3.4.36-.02.36-3.74.36 3.73.37-7.24.36 5.95.36-4.06.36 5.05.36-3.57.37 3.51.36-.04.36-3.48.36 3.29.36-7.01.37 5.33.36-2.76.36.01.36.25.37 2.72.36-1.12.36-1.58.36 2.19.36-2.05.37 3.1.36-2.92.36-.59.36 3.36.36-3.88.37-.65.36.18.36 4.17.36-3.43.36 3.18.37-3.35.36-.22.36 3.44.36-3.38.37 2.91.36-3.05.36 3.27.36-3.75.36-.36.37-7.47.36 6.52.36 3.03.36-2.56.36 3.36.37-5.82.36 6.02.36-3.43.36 3.47.36-3.85.37-.64.36 1.54.36-4.28.36 5.34.37-2.29.36 1.18.36-1.25.36 3.37.36-.1.37-9.42.36 8.84.36-12.73.36 12.75.36-5.88.37 5.62.36.19.36-4.02.36 3.13.36-2.63.37.11.36-4.08.36 6.91.36-3.82.36 1.6.37 1.73.36-3.83.36 2.12.36-1.89.37.65.36-6.76.36 7.32.36-1.45.36 3 .37.62.36-3.87.36-3.11.36 1.57.36.88.37-4.49.36 7.71.36-3.35.36.02.36 2.52.37-2.77.36 3.39.36-3.45.36 1.89.37-2.76.36 4.14.36-7.19.36 2.26.36 2.82.37-7.85.36 8.94.36-2.93.36 2.33.36-.67.37-1.66.36-2.31.36 1.73.36 3 .36-5.11.37 5.36.36-3.63.36 2.89.36.88.36-5.26.37-.37.36 1.36.36 2.11.36-6.05.37 6.7.36-3.24.36 2.22.36.69.36-4.18.37 4.73.36-3.99.36 1.09.36-4.85.36 5.55.37-3.18.36 2.8.36.59.36-3.16.36 4.21.37-4.24.36 3.39.36-6.97.36 6.83.37-3.01.36 3.14.36.08.36-9.06.36 5.41.37-.83.36 1.66.36-3.28.36-1.07.36.79.37 3.17.36 2.03.36-8.75.36-2.97.36 7.21.37 2.99.36-2.63.36-2.28.36 1.86.37-1.23.36 4.58.36-3.97.36 3.49.36-3.37.37 3.32.36.01.36-3.75.36-.14.36-.7.37 3.77.36-3.93.36 3.71.36-3.47.36 3.22.37.22.36-3.98.36.25.36-.72.36 3.29.37-3.61.36.49.36-.32.36 3.22.37-.18.36-3.8.36.34.36-.44.36 3.05.37-3.57.36-.47.36.04.36 3.47.36-1.33.37-2.53.36 3.39.36-3.65.36 3.16.36-3.52.37-.19.36-.19.36 3.27.36.28.37-4.06.36 3.63.36-3.48.36 3.04.36-3.54.37-.63.36-.01.36 3.52.36-.72.36-2.92.37 3.29.36-3.7.36 3.48.36-3.44.36-.73.37.06.36 3.23.36-.49.36-3.13.36 2.35.37-2.75.36 3.28.36-3.51.36-.6.37.19.36-.32.36 3.44.36-3.77.36 3.23.37-3.29.36 3.45.36-.22.36-4.94.36 1.12.37-.35.36 3.28.36-3.55.36 3.38.36-3.51.37 2.91.36.42.36-3.93.36.32.37-.81.36 3.41.36-3.44.36 2.93.36-3.24.37 3.46.36.25.36-4.15.36.34.36-.72.37 3.44.36-3.32.36 3.66.36-3.75.36 3.42.37-5.73.36 1.97.36 3.67.36-7.87.36 7.15.37-3.5.36-.35.36.12.36 2.82.37.36.36-3.69.36 3.82.36-3.59.36 3.14.37-8.03.36 4.16.36.05.36 3.31.36.06.37-3.65.36 3.55.36-3.88.36 3.53.36-3.58.37-.57.36.07.36 3.42.36.04.37-3.51.36 3.36.36-3.64.36 3.21.36-3.25.37-.67.36-.07.36-.45.36-12.08.36 11.84.37 3.67.36-4.91.36 4.7.36.25.36-4.91.37 4.46.36-7.31.36 7.04.36-41.43.37 40.85.36-3.05.36 2.91.36.31.36-3.9.37 3.68.36-7.38.36 4.66.36-1.48.36 2.88.37-3.57.36 3.45.36.57.36-3.56.36 3.33.37-10.45.36 9.91.36-3.59.36 3.31.36-3.15.37 3.17.36-.29.36-3.35.36 3.56.37-7.63.36 7.23.36-3.26.36-.73.36-.28.37 3.18.36.56.36-3.47.36 3.49.36-3.67.37 1.95.36-2.38.36-.49.36 3.96.36-3.98.37 3.54.36-3.5.36 3.55.36-3.31.37 3.04.36-4.19.36.23.36 4.01.36-3.4.37 3.17.36-7.83.36 7.78.36-4.1.36 3.59.37-3.02.36-1.82.36 4.93.36-7.96.36 7.68.37-4 .36 3.64.36-3.27.36 3.33.36.3.37-4.03.36 3.7.36-7.29.36 6.57.37-3.84.36 3.62.36-3.09.36-.14.36-4.77.37 3.6.36 4.28.36-7.13.36 4.09.36-.93.37 1.56.36 1.56.36-4.61.36 4.72.36-3.78.37 3.3.36-7.35.36 7.27.36-3.91.37-13.13.36 16.63.36-3.67.36 3.34.36-4.03.37 4.35.36-7.96.36 7.19.36-3.37.36-.35.37 3.95.36-4.12.36 3.82.36-3.88.36-29.82.37-8.13.36 40.58.36-3.42.36-1.77.36 5.35.37-7.74.36 6.58.36-73.02.36 73.76.37-3.33.36 2.82.36-2.84.36-.69.36-2.61.37-1.17.36 6.86.36-5.69.36 6.31.36-.24.37-4.1.36.33.36-.57.36-24.13.36 23.54.37 4.09.36-3.98.36 3.67.36.22.37-4.54.36-.52.36.14.36 4.2.36-7.03.37 5.33.36-2.5.36 2.81.36.96.36-3.52.37 2.56.36-3.63.36 4.34.36-8.9.36 8.2.37-3.33.36 3.56.36-.22.36-4.06.37 3.86.36-5.11.36 1.21.36-3.66.36 6.74.37-5.81.36 5.23.36.64.36-12.83.36 12.81.37-3.89.36 3.81.36-6.19.36 1.93.36-2.22.37.45.36 4.73.36-3.69.36-1.16.36 1.39.37 3.07.36.56.36-4.15.36-1.26.37.97.36 2.72.36-2.52.36 3.19.36-5.84.37 4.78.36-10.7.36 6.69.36-.49.36 1.14.37 2.81.36-22.6.36 23.49.36-3.46.36 3.38.37-.99.36-3.94.36-3.66.36 4.25.37 2.69.36-3.12.36 3.88.36-3.2.36 1.62.37-.46.36-2.97.36.73.36-.28.36 2.72.37-11.83.36 8.86.36-1.4.36 4.89.36.12.37-16.89.36 16.52.36-3.51.36-1.03.36 1.03.37-.82.36.23.36 1.83.36-.52.37-7.05.36 7.83.36-4.57.36 2.95.36-3.5.37 2.21.36-.56.36-6.69.36 8.03.36-7.77.37 9.92.36-2.85.36 1.72.36-4.39.36-.81.37 2.64.36-19.4.36-.83.36 18.72.37 2.89.36-4.65.36 6.09.36-.47.36-4.07.37-1.12.36.69.36 3.87.36-3.6.36 3.44.37-3.46.36 1.54.36-11.7.36 10.53.36-.14.37-1.61.36 1.48.36-1.16.36 4.38.36-3.48.37.99.36 2.08.36-24.09.36 20.21.37-4.83.36 8.06.36-3.5.36 3.44.36-3.47.37 3.63.36.17.36-9.01.36 4.82.36.18.37 2.77.36-9.6.36 1.7.36 4.59.36 2.41.37.18.36-6.92.36 7.4.36-4.48.37 3.28.36-3.75.36-1.02.36-2.72.36 6.66.37-.45.36-3.17.36 4.56.36-3.42.36 1.81.37-14.61.36 12.13.36-2.54.36 5.42.36.57.37-9 .36 8.04.36-5.99.36 6.53.37-8.68.36-1.42.36-.49.36-1.03.36 9.65.37-5.12.36 6.28.36-3.1.36 2.79.36-3.88.37-3.53.36 2.67.36.36.36-3.9.36-3.08.37 10.72.36-6.53.36.68.36 5.44.36-3.37.37 3.19.36-7.08.36 6.71.36-6.37.37 6.72.36-3.69.36 3.06.36-3.96.36-1.71.37-4.52.36 2.94.36-4.22"/><use xlink:href="#e" color="violet" transform="matrix(3.75 0 0 3.75 67.83 181.64)"/><use xlink:href="#e" color="violet" transform="matrix(3.75 0 0 3.75 112.25 22.51)"/></g><text stroke-linecap="round" stroke-linejoin="round" color="#000" font-family="KaTeX_Main" font-size="8" transform="translate(241.1 10.11)"><tspan>WBSTBottomUp</tspan></text><g fill="none" stroke="currentColor" stroke-linecap="round" stroke-linejoin="round" color="#000"><path stroke="#000" d="M205.6 7.51h29.9M28 190.44l.36-7.37.36 6.51.37-3.77.36 2.96.36-.22.36-3.91.36 3.18.37-3.84.36 3.18.36-7.38.36 6.47.37-3.72.36-.56.36 3.4.36-3.77.36 3.3.37-4.88.36 4.2.36-3.62.36 2.69.36-3.26.37-.46.36 3.36.36-4.01.36 3.38.36-3.76.37 3.29.36-.18.36-3.8.36-.23.36-.26.37 3.12.36-3.7.36 3.28.36-3.6.37 3.23.36-.15.36-3.84.36-.19.36-.26.37 3.28.36-3.75.36 3.27.36-3.6.36 3.14.37-.12.36-3.74.36-.14.36-.29.36 3.36.37-6.98.36 6.53.36-3.53.36 3.15.37-.01.36-3.68.36 3.47.36-3.8.36 3.2.37-6.95.36 6.48.36-4.41.36 4.12.36-.26.37-3.61.36 3.48.36-3.63.36 3.19.36-3.41.37-.4.36.1.36 3.21.36-.14.37-3.59.36 3.22.36-3.6.36 3.31.36-3.68.37-.11.36.05.36-.57.36 3.5.36-3.55.37 3.16.36-3.48.36 3.44.36-.03.36-3.72.37-.32.36.04.36 3.35.36-3.6.36 3.36.37-3.6.36 3.26.36-.04.36-3.78.37.01.36-.13.36 3.28.36-3.57.36 3.4.37-3.43.36 3.1.36.01.36-3.69.36.1.37-.14.36 3.25.36-3.43.36 3.08.36-3.32.37 3.01.36.19.36-3.59.36-.16.37-.28.36 3.25.36-3.61.36-.05.36-.01.37 3.5.36-.1.36-3.89.36 3.64.36-3.74.37 3.48.36-3.69.36-.29.36.08.36 3.5.37-.04.36-3.84.36 3.49.36-3.7.36 3.38.37-3.42.36-.25.36.08.36 3.3.37.11.36-3.62.36 3.39.36-3.47.36 3.08.37-3.61.36-.06.36-.03.36-.17.36 3.38.37-3.42.36 3.16.36-3.49.36 3.32.36.07.37-3.55.36.01.36-.48.36 3.54.37-3.45.36 3.36.36-3.39.36 2.86.36.22.37-3.62.36-.13h.36l.36 3.27.36-3.39.37 3.4.36-3.6.36 3.25.36-.14.36-3.59.37.13.36-.31.36 3.51.36-3.56.36 3.3.37-3.68.36 3.44.36-.03.36-3.36.37 3.17.36-6.71.36 6.65.36-3.29.36-.33.37-.01.36 3.34h.36l.36-3.76.36 3.67.37-3.49.36 3.09.36-3.39.36-.14.36.08.37 3.08.36.18.36-3.59.36 3.31.37-3.47.36 3.44.36-3.67.36-.07.36-.07.37 3.16.36.22.36-3.66.36 3.39.36-3.36.37 3.21.36-3.59.36.12.36-.14.36 3.36.37-.11.36-3.45.36 3.51.36-3.78.37 3.54.36-3.49.36-.19.36 3.52.36-7.07.37 6.76.36-3.51.36 3.7.36-3.58.36 3.19.37.2.36-3.67.36 3.52.36-6.94.36 6.79.37-3.47.36 3.25.36-3.7.36 3.74.36-.09.37-3.52.36 3.35.36-7.06.36 6.81.37-3.38.36 3.39.36-3.33.36 3.2.36-.02.37-3.36.36 3.39.36-7.01.36 6.77.36-3.7.37.2.36-.11.36 3.42.36-.01.36-3.46.37 3.41.36-3.37.36 3.14.36-3.8.37.22.36 3.6.36-3.77.36 3.6.36-3.71.37 3.51.36-3.25.36 3.21.36-3.51.36-.36.37 3.57.36-3.45.36 3.2.36-3.25.36 3.27.37-3.34.36 3.18.36-3.4.36-.13.36 3.39.37-3.3.36 3.21.36-3.43.36 3.43.37-3.33.36 3.04.36-3.37.36-.05.36 3.22.37-6.92.36 6.68.36-3.26.36 3.46.36-3.52.37 3.41.36-.12.36-3.37.36 3.3.36-7.01.37 6.94.36-3.49.36 3.27.36.17.37-3.62.36 3.49.36-3.6.36 3.34.36-6.67.37 6.49.36-3.4.36 3.31.36.04.36-3.43.37 3.18.36-3.38.36 3.25.36-7.16.36 6.91.37-3.32.36-.14.36 3.34.36-3.52.36 3.57.37-3.62.36 3.52.36-3.61.36 3.34.37-3.39.36-.41.36 3.73.36-3.73.36 3.55.37-3.59.36 3.49.36-3.32.36 3.11.36-3.33.37-.37.36 3.62.36-3.63.36 3.53.36-3.5.37 3.28.36.03.36-3.7.36.16.37-.3.36 3.42.36-3.58.36 3.52.36-3.59.37 3.46.36.09.36-3.58.36-.05.36-.11.37 3.37.36-7.2.36 6.75.36-3.31.36 3.22.37.17.36-3.66.36 3.5.36-3.72.37 3.57.36-7.04.36 6.51.36-3.4.36 3.41.37.16.36-3.86.36 3.4.36-3.7.36 3.78.37-7.33.36 6.91.36-3.69.36 3.43.36.22.37-3.75.36 3.62.36-3.55.36 3.42.36-3.55.37-.41.36.04.36 3.11.36.26.37-3.6.36 3.55.36-3.68.36 3.48.36-3.62.37-.33.36.13.36-.39.36 3.48.36-3.87.37 3.65.36-3.49.36 3.37.36-.06.36-3.56.37.19.36-.54.36 3.35.36-3.46.37 3.54.36-3.53.36 3.24.36.09.36-3.58.37-.03.36-.38.36 3.33.36-3.7.36 3.64.37-3.33.36 3.06.36.39.36-4.06.36.21.37-.51.36 3.32.36-3.51.36-.49.36.12.37 3.27h.36l.36-3.63.36 3.43.37-3.54.36 3.44.36-3.69.36-.75.36.24.37 3.31.36-.11.36-3.27.36 3.07.36-3.35.37 3.51.36-3.69.36-.25.36-.34.36 3.38.37.21.36-3.83.36 3.74.36-3.68.37 3.17.36-3.42.36-.44.36-.02.36 3.27.37.31.36-3.81.36 3.54.36-3.72.36 2.25.37-2.5.36-.41.36.1.36-.76.36 3.68.37-3.69.36 3.59.36-3.44.36 3.2.37-.08.36-3.78h.36l.36-.44.36 3.37.37-3.67.36 3.53.36-3.35.36 3.29.36.15.37-3.88.36.01.36-.65.36 3.77.36-3.97.37 3.53.36-3.59.36 3.56.36-.07.36-3.82.37-.14.36-.52.36 3.58.36-3.64.37-.25.36-.09.36 3.38.36-.16.36-3.88.37 3.65.36-3.46.36 3.13.36-3.59.36-.44.37.09.36 2.92.36.13.36-3.78.36 3.6.37-3.53.36 3.26.36-3.48.36-1.54.37 1.06.36 3.12.36.15.36-3.55.36 3.3.37-3.7.36 3.29.36-3.69.36-.25.36.02.37 3.07.36-.02.36-3.61.36 3.33.36-3.28.37 3.03.36-3.63.36-.55.36.17.36-.48.37 3.37.36-3.68.36 3.52.36-3.42.37 3.22.36-.23.36-3.51.36 3.37.36-7.32.37 6.86.36-3.35.36 3.33.36-3.5.36 2.98.37.31.36-3.78.36 3.45.36-7.32.36 6.84.37-3.81.36 3.52.36-3.26.36 2.95.37.05.36-3.83.36 3.66.36-7.47.36 6.96.37-3.72.36 3.49.36-3.54.36 3.49.36-.17.37-3.49.36 3.34.36-7.17.36 6.57.36-3.17.37-.56.36.2.36 3.07.36.03.36-3.66.37 3.85.36-3.68.36 3.11.36-3.83.37.06.36 3.57.36-3.84.36 3.66.36-3.61.37 3.43.36-3.62.36 3.4.36-3.51.36-.41.37 3.4.36-3.49.36 3.43.36-3.35.36 3.11.37-3.58.36 3.15.36-3.55.36-.23.37 3.7.36-7.36.36 6.94.36-3.76.36 3.44.37-3.32.36 3.13.36.01.36-3.49.36 3.28.37-7.54.36 7.1.36-3.36.36 3.27.36-3.24.37 2.95.36.09.36-3.52.36 3.24.37-7.55.36 7.21.36-3.66.36 3.47.36.06.37-4.23.36 3.6.36-3.37.36 3.61.36-7.62.37 6.95.36-3.74.36 3.68h.36l.36-3.78.37 3.62.36-3.71.36 3.57.36-7.37.36 6.68.37-3.42.36-.3.36 3.23.36-3.38.37 3.45.36-3.56.36 3.47.36-3.76.36 3.23.37-3.45.36-.66.36 4 .36-3.96.36 3.62.37-3.72.36 3.42.36-3.27.36 3.21.36-3.72.37-.43.36 3.76.36-4.05.36 3.83.37-3.55.36 3.24.36-.02.36-3.83.36-.28h.37l.36 3.19.36-6.94.36 6.9.36-3.61.37 3.33.36.19.36-3.8.36 3.48.36-3.64.37 3.08.36-7.04.36 7.1.36-3.78.36 3.55.37-.14.36-3.57.36 3.39.36-3.33.37 2.86.36-6.75.36 6.99.36-3.54.36 3.4.37.1.36-4 .36 3.88.36-3.6.36 3.16.37-6.84.36 6.56.36-3.44.36 3.48.36-.24.37-3.73.36 3.78.36-3.51.36 3.74.37-7.78.36 6.8.36-3.14.36-.5.36 3.85.37-3.67.36 3.68.36-3.7.36 3.54.36.14.37-3.87.36-.02.36-.41.36 3.54.36-3.77.37 3.92.36-3.73.36 3.53.36-.14.36-3.8.37.17.36-.21.36 3.35.36-3.79.37 3.68.36-3.67.36 3.65.36-.21.36-3.75.37-.06.36-.44.36 3.85.36-3.67.36 3.41.37-3.45.36 3.58.36.05.36-4 .36-.1.37-.18.36 3.48.36-7.3.36 6.91.37-3.18.36 3.4.36.03.36-3.84.36 3.68.37-4.11.36 3.31.36-3.35.36-.28.36.09.37 3.36.36-.1.36-3.25.36 3.44.36-3.95.37 3.72.36-3.93.36-.08.36-.18.37 3.56.36.1.36-3.97.36 3.8.36-3.49.37 3.48.36-4.19.36-.02.36.15.36-.55.37 3.87.36-3.85.36 3.52.36-3.48.36 3.5.37-.08.36-3.89.36-1.25.36.77.36 3.74.37-4.16.36 4.09.36-3.54.36 3.09.37.32.36-3.65.36.15.36-.81.36 3.86.37-4 .36 3.83.36-3.98.36 3.87.36-.13.37-3.84.36-.19.36.13.36 3.7.36-4.07.37 3.62.36-3.56.36 3.31.36.11.37-3.86.36.01.36-.19.36 3.46.36-3.79.37-.34.36.39.36 3.13.36.23.36-3.98.37 4.01.36-3.65.36 3.05.36-3.68.36-.08.37.05.36 3.33.36-.15.36-3.85.36 3.75.37-3.72.36 3.74.36-3.93.36-.39.37.48.36 3.37.36-.11.36-3.86.36 3.65.37-3.47.36 2.14.36-2.83.36.18.36-.19.37-.47.36 3.96.36-3.66.36 3.34.36-3.44.37 3.41.36-.29.36-3.31.36-.03.37-.23.36 3.33.36-3.62.36 3.53.36-3.71.37 3.58.36.07.36-3.92.36 3.59.36-7.25.37 6.96.36-3.55.36 3.54.36-3.55.36 3.14.37.11.36-3.47.36 3.06.36-7.13.36 6.89.37-3.36.36 3.05.36-3.37.36 3.56.37.1.36-3.6.36 3.55.36-7.88.36 7.41.37-3.48.36-.15.36-.42.36 3.53.36.5.37-4.35.36 2.71.36-2.25.36 3.43.36-3.8.37-.65.36.28.36 3.33.36.43.37-4.04.36 3.48.36-3.15.36 3.07.36-3.61.37.01.36 3.22.36-3.62.36 3.83.36-3.87.37 3.23.36-3.46.36 3.6.36-3.73.36-.3.37 3.32.36-3.47.36 3.74.36-3.81.37 3.62.36-3.76.36 3.27.36-3.46.36-.55.37 3.81.36-6.93.36 6.57.36-3.45.36 3.53.37-3.47.36 3.09.36.27.36-3.73.36 3.21.37-6.99.36 6.92.36-3.82.36 3.94.36-3.6.37 3.32.36-.17.36-3.51.36 2.29.37-5.89.36 6.72.36-3.81.36 3.48.36-3.31.37 3 .36.56.36-4.12"/><use xlink:href="#a" transform="matrix(3.75 0 0 3.75 125.4 151.5)"/><use xlink:href="#a" transform="matrix(3.75 0 0 3.75 220.55 7.51)"/></g><text stroke-linecap="round" stroke-linejoin="round" color="#000" font-family="KaTeX_Main" font-size="8" transform="translate(241.1 25.11)"><tspan>WBSTRelaxed</tspan></text><g fill="none" stroke="currentColor" stroke-linecap="round" stroke-linejoin="round" color="#000"><path stroke="#FFAB00" stroke-dasharray="4.0,2.0,1.0,2.0" d="M205.6 22.51h29.9M28 199.28l.36-2.38.36 4.87.37-3.3.36 3.3.36-3.68.36 2.14.36.23.37-3.43.36-.92.36.05.36 3.49.37-6.05.36 4.74.36-3.69.36 3.9.36-.18.37-3.61.36-.28.36-.54.36 3.5.36-3.77.37 3.18.36-3.6.36 2.98.36.1.36-4.11.37.11.36-.95.36 3.88.36-3.76.36 3.37.37-3.67.36 2.96.36-.3.36-3.95.37.44.36-.32.36 3.29.36-3.91.36-.27.37.01.36 3.22.36-.74.36-4.22.36 3.44.37-2.91.36 3.43.36-3.75.36-.99.36.5.37 1.81.36.42.36-2.75.36 2.19.37-2.3.36 3.32.36-3.95.36-.66.36-.69.37 3.51.36.68.36-4.51.36 3.96.36-3.67.37 2.95.36-3.43.36.04.36-.52.36-.92.37 4.5.36-4.12.36 3.85.36-4.73.37 3.84.36-.44.36-3.84.36-.64.36.31.37 4.63.36-5.34.36 4.85.36-3.14.36 3.34.37-.22.36-3.56.36 3.28.36-7.14.36 6.95.37-3.5.36 3.12.36-3.37.36 3.18.36-.16.37-3.27.36 3.18.36-7.12.36 6.7.37-3.46.36 3.28.36-3.54.36 3.37.36-.15.37-3.86.36 3.71.36-7.19.36 6.8.36-3.4.37.01.36-.33.36 3.28.36-.04.36-3.43.37 3.21.36-3.45.36 3.21.36-3.48.37-.91.36.63.36 3.1.36-.16.36-3.38.37 3.41.36-3.5.36 3.21.36-3.43.36-.13.37 2.99.36-3.41.36 3.48.36-3.74.36 3.69.37-5.35.36 4.61.36-4.34.36.84.36 3.58.37-7.36.36 5.82.36-4.6.36 5.51.37-3.08.36 2.73.36-.92.36-2.76.36 2.96.37-6.51.36 6.46.36-3.04.36 2.96.36-3.08.37 2.92.36.31.36-4.11.36 3.87.36-6.58.37 5.24.36-2.46.36 3.71.36-4.84.37 3.69.36.42.36-3.49.36 3.84.36-7.02.37 5.48.36-3.31.36 3.21.36-.24.36-2.64.37 3.33.36-4.18.36 3.61.36-7.76.36 8.45.37-3.64.36-.13.36 2.13.36-2.22.36 3.2.37-3.73.36 3.37.36-3.46.36 2.24.37-4.69.36 1.21.36 4.85.36-3.47.36 2.31.37-5.17.36 4.65.36-2.16.36 1.99.36-2.24.37-1.59.36 2.05.36-2.22.36 5.05.36-3.52.37 2.19.36-4.92.36 5.21.36-4.33.37.85.36-2.16.36 1.47.36 3.85.36-3.86.37 3.13.36.16.36-3.16.36-1.85.36 1.9.37 3.98.36-6.65.36 6.47.36-3.46.36 3.1.37.34.36-3.52.36 3.34.36-3.48.37 3.31.36-6.76.36 6.36.36-3.44.36 3.53h.37l.36-3.59.36 3.53.36-3.56.36 3.39.37-6.68.36 6.34.36-3.19.36 3.07.36.18.37-3.42.36 3.14.36-3.36.36 3.24.36-6.72.37 6.52.36-3.29.36-.37.36 2.94.37-2.9.36 3.32.36-3.24.36 3.06.36.1.37-3.51.36.13.36-.47.36 3.49.36-3.35.37 3.31.36-3.22.36 3.19.36-.16.36-3.58.37.22.36-.15.36 3.16.36-3.31.37 3.46.36-3.93.36 3.68.36.1.36-3.84.37.19.36-.24.36 3.28.36-3.23.36 3.14.37-3.42.36 2.91.36.33.36-3.44.36-.26.37.03.36 3.37.36-7.77.36 7.52.36-3.53.37 3.65.36-.14.36-4.3.36 3.03.37-2.46.36 2.27.36-2.33.36-.38.36-.12.37 3.72.36-.01.36-3.42.36 2.84.36-2.94.37 2.32.36-3.15.36.5.36-.04.36 3.41.37.05.36-3.61.36 3.38.36-3.74.37 3.59.36-3.39.36-.15.36.14.36-.23.37 1.09.36-1.57.36 3.31.36-3.43.36 2.92.37.33.36-3.71.36-.12h.36l.36 3.48.37-3.18.36 3.44.36-3.82.36 3.53.36.26.37-3.73.36-.34.36-1.15.36 4.43.37-4.08.36 2.13.36-1.35.36 3.31.36.11.37-3.74.36.25.36-1.42.36 4.54.36-8.35.37 7.32.36-2.76.36 3.69.36-1.62.36-2.03.37-.03.36-.27.36 2.81.36-3.33.37-.28.36.73.36 2.93.36.32.36-7.69.37 2.9.36.71.36 3.69.36-3.39.36-1.02.37-2.24.36 5.9.36.09.36-3.15.36 2.16.37-3.09.36 3.22.36-2.68.36-1.26.37 1.02.36 1.58.36 1.4.36-3.36.36 3.43.37-4.23.36 4.22.36-4.97.36 1.12.36-1.45.37 4.59.36-.78.36-3.08.36 3.02.36-3.64.37 3.6.36-2.81.36-.47.36.41.36-2.94.37 4.73.36-3.3.36 2.4.36-1.65.37 2.71.36-1.05.36-3.69.36 1.16.36-1.14.37 4.9.36-5.06.36.46.36-1.51.36 5.99.37-2.54.36-1.24.36 2.68.36-6.5.36 6.05.37-2.36.36 3.41.36-3.56.36 1.76.37.64.36-3.69.36.55.36-5.55.36 7.39.37-5.23.36 2.71.36.55.36 2.73.36-1.22.37-3.03.36 2.89.36-1.85.36 2.76.36-7.25.37 3.99.36-1.98.36 4.51.36-.09.36-4.03.37 2.77.36-1.34.36 1.63.36-2.35.37-.14.36-1.03.36 2.91.36 1.26.36-3.9.37 3.49.36-3.82.36 2.13.36-4.68.36 2.45.37 3.85.36-8.49.36 7.15.36-3.25.36 4.17.37-6.37.36 6.27.36-5.05.36.74.37 3.27.36-6.73.36 6.74.36-4.09.36.68.37-.67.36.9.36.52.36-1.08.36 1.59.37-8.74.36 9.68.36-5.92.36-1.78.36-.85.37 7.2.36-.33.36-3.79.36 2.09.37-5.29.36 7.63.36-3.67.36 3.2.36-3.08.37 2.8.36.24.36-3.92.36 3.75.36-7.9.37 7.05.36-3.57.36-.59.36 3.82.36-3.93.37 3.63.36-3.53.36 3.17.36-3.34.36 3.07.37-3.77.36-.22.36 3.48.36-3.88.37 3.37.36-3.57.36 3.7.36-3.5.36 2.94.37-3.31.36-.69.36 3.53.36-3.5.36 3.14.37-3.3.36 3.08.36-3.42.36 3.06.36-3.17.37-.68.36 3.35.36-3.72.36 3.56.37-3.74.36 3.3.36-3.21.36 2.97.36-3.48.37-.6.36 3.26.36-7.55.36 7.24.36-3.48.37 3.08.36.11.36-3.93.36 3.79.36-3.9.37 3.57.36-7.44.36 5.81.36-2.63.36 2.86.37.24.36-3.75.36 3.79.36-4.07.37 3.72.36-7.26.36 6.23.36-3.17.36 3.16.37.47.36-3.78.36 3.23.36-4.04.36 3.71.37-6.78.36 6.31.36-3.46.36 3.33.36.24.37-4.24.36 3.56.36-3.51.36 3.34.37-7.47.36 6.87.36-4.79.36.74.36 3.33.37-3.6.36 3.85.36-3.81.36 3.34.36-3.15.37 1.5.36-2.04.36-.22.36 2.36.36-2.54.37-2.25.36 1.96.36 3.28.36.17.36-3.8.37.29.36-.52.36 3.61.36-3.83.37 3.4.36-3.75.36 3.65.36-.1.36-3.69.37-4.56.36 4.31.36 3.5.36-7.06.36 6.33.37-3.27.36 3.65.36.01.36-3.75.36 3.29.37-3.98.36 3.78.36-7.17.36 6.52.37-3.23.36 3.52.36-.25.36-3.72.36 3.68.37-3.87.36 3.39.36-7.2.36 6.87.36-3.77.37 3.72.36-.45.36-3.12.36-9.81.36 8.94.37 3.48.36-3.42.36-1.04.36-.81.37 4.62.36.41.36-3.79.36 3.22.36-3.09.37 3.18.36-3.83.36-2.4.36 2.28.36-.63.37 3.52.36-4.25.36 4.37.36-3.44.36 3.32.37-2.82.36-1.07.36-2.1.36 1.69.36 3.48.37-4.03.36 3.5.36-3.18.36 3.68.37-.38.36-4.05.36.33.36-.46.36 3.37.37-9.26.36 8.76.36-2.94.36 3.25.36-.76.37-3.21.36-.51.36-.06.36 3.63.36-4.61.37.67.36.33.36 3.44.36.04.37-3.84.36 2.88.36-3.03.36 3.4.36-3.45.37-.74.36.28.36 3.42.36.44.36-4.03.37 3.79.36-6.01.36 5.82.36-4.16.36-.55.37.47.36 3.57.36.56.36-4.06.36 3.81.37-3.75.36 3.48.36-3.53.36-.27.37-.61.36 3.89.36.38.36-10.93.36 9.28.37-3.39.36 4.31.36-3.4.36-3.42.36 3.17.37-.89.36 3.66.36-3.74.36 3.97.36-3.44.37 3.02.36-4.1.36.54.36-.1.37-2.37.36 5.31.36-3.36.36 3.42.36-8.61.37 8.41.36-2.61.36-1.29.36.31.36-.42.37 3.58.36-3.71.36 3.74.36-3.68.36-1.59.37 1.23.36-.5.36 4.11.36-8.88.36 8.24.37-3.58.36 2.55.36-5.79.36 6.4.37.11.36-4.19.36 3.93.36-7.25.36 5.52.37-5.78.36 2.44.36-.09.36 3.56.36-.74.37-2.31.36 3.71.36-3.48.36-.71h.36l.37-3.04.36.82.36 5.29.36.3.37-3.94.36 2.53.36-2.61.36 3.69.36-4.46.37-4.37.36 4.37.36 2.92.36-.59.36-2.04.37-7.6.36 5.64.36 1.1.36-.67.36.41.37 3.46.36-6.99.36 5.92.36-3.78.37 4.73.36-5 .36 3.66.36 1.08.36-3.76.37 3.49.36-7.85.36 7.37.36-9.91.36 8.33.37-1.91.36 2.09.36-.7.36-1.73.36 3.33.37-8.84.36 8.59.36-3.67.36-1.09.36-5.54.37 9.58.36-1.58.36-2.43.36 2.87.37-6.01.36 5.87.36-2.29.36-3.21.36 2.64.37 2.8.36.51.36-3.45.36.55.36-4.32.37 6.06.36-4.04.36 1.02.36.4.36 3.09.37-.24.36-3.61.36-.41.36.67.37 3.12.36-3.83.36.02.36 2.72.36-3.99.37 4.74.36-4.9.36 4.36.36-3.48.36 3.58.37-3.95.36.11.36.15.36-.26.36 3.73.37-13.49.36 10.96.36-1.42.36-1.49.36 1.16.37-.53.36 3.68.36-9.07.36 4 .37-4.82.36 7.52.36-6.07.36 7.83.36-.86.37-2.5.36 2.31.36-7.25.36 4.67.36-7.13.37 5.2.36 1.5.36 1.39.36.07.36-2.45.37 3.99.36-7.32.36 5.55.36-3.16.37 2.08.36.4.36-3.32.36 5.11.36-8.39.37 6.86.36-7.24.36 7.75.36-2.94.36 3.41.37-2.3.36-4.19.36.22.36 1.73.36 4.05.37-8.46.36 7.17.36-5.55.36 1.54.36 4.52.37-3.8.36 2.16.36-3.26.36 1.53.37-6.33.36 9.03.36-3.73.36-.23.36 3.48.37-3.88.36 4.14.36-4.28.36 3.55.36-3.45.37 2.74.36-7.71.36-1.96.36 7.37.36-1.2.37 3.81.36-7.2.36 5.71.36.22.37-4.5.36 1.86.36-1.37.36 1.36.36-.29.37-.02.36-3.19.36 4.82.36 2.08.36-14.2.37 4.41.36 5.23.36-.05.36-4.11.36 7.4.37-8.95.36 7.82.36-2.18.36-.69.37 1.95.36-7.04.36-.1.36.48.36 7.77.37-6.95.36 3.32.36 3.6.36-4.08.36 3.4.37-5.33.36 5.35.36-9.55.36 7.41.36-5.76.37 4.14.36 1.55.36-8.26.36 10.21.36-3.6.37-1.64.36-1.26.36 1.88.36-1.4.37 1.86.36 3.56.36-3.53.36.27.36-4.41.37 6.26.36.82.36-13.7"/><use xlink:href="#f" color="#FFAB00" transform="matrix(3.75 0 0 3.75 182.98 154)"/><use xlink:href="#f" color="#FFAB00" transform="matrix(3.75 0 0 3.75 220.55 22.51)"/></g><path fill="none" d="M28 45.01V205M371.99 45.01H28" color="#000"/></svg>