<svg xmlns="http://www.w3.org/2000/svg" xmlns:xlink="http://www.w3.org/1999/xlink" viewBox="0 0 400 250"><path fill="none" d="M0 0h400v250H0z"/><defs><path id="g" stroke="currentColor" stroke-width=".267" d="M-1 0h2M0-1v2"/><path id="h" stroke="currentColor" stroke-width=".267" d="m-1-1 2 2m0-2-2 2"/><path id="d" stroke="currentColor" stroke-width=".267" d="M-1-1h2v2h-2z"/><path id="b" stroke="currentColor" stroke-width=".267" d="m0-1.33-1.33 2h2.66z"/><path id="f" stroke="currentColor" stroke-width=".267" d="M0 1.33 1.265.411.782-1.067l-1.564-.009-.483 1.487z"/><use xlink:href="#a" id="i" fill="currentColor" stroke="none"/><use xlink:href="#b" id="c" stroke="currentColor" transform="rotate(180)"/><use xlink:href="#d" id="e" stroke="currentColor" transform="rotate(45)"/><circle id="a" cx="0" cy="0" r="1" stroke="currentColor" stroke-width=".267"/></defs><path fill="none" stroke="#000" stroke-linecap="round" stroke-linejoin="round" stroke-width=".1" d="M35.48 205V45.01" class="gridline" color="#000"/><g fill="none" stroke="none" stroke-linecap="round" stroke-linejoin="round" stroke-width="0" color="#000"><path d="M35.48 205v-7.5m0-152.49v7.5"/><text fill="#000" font-family="KaTeX_Main" font-size="10" text-anchor="middle" transform="translate(35.48 215.75)"><tspan> 1</tspan></text></g><path fill="none" stroke="#000" stroke-linecap="round" stroke-linejoin="round" stroke-width=".1" d="M72.87 205V45.01" class="gridline" color="#000"/><g fill="none" stroke="none" stroke-linecap="round" stroke-linejoin="round" stroke-width="0" color="#000"><path d="M72.87 205v-7.5m0-152.49v7.5"/><text fill="#000" font-family="KaTeX_Main" font-size="10" text-anchor="middle" transform="translate(72.87 215.75)"><tspan> 2</tspan></text></g><path fill="none" stroke="#000" stroke-linecap="round" stroke-linejoin="round" stroke-width=".1" d="M110.26 205V45.01" class="gridline" color="#000"/><g fill="none" stroke="none" stroke-linecap="round" stroke-linejoin="round" stroke-width="0" color="#000"><path d="M110.26 205v-7.5m0-152.49v7.5"/><text fill="#000" font-family="KaTeX_Main" font-size="10" text-anchor="middle" transform="translate(110.26 215.75)"><tspan> 3</tspan></text></g><path fill="none" stroke="#000" stroke-linecap="round" stroke-linejoin="round" stroke-width=".1" d="M147.65 205V45.01" class="gridline" color="#000"/><g fill="none" stroke="none" stroke-linecap="round" stroke-linejoin="round" stroke-width="0" color="#000"><path d="M147.65 205v-7.5m0-152.49v7.5"/><text fill="#000" font-family="KaTeX_Main" font-size="10" text-anchor="middle" transform="translate(147.65 215.75)"><tspan> 4</tspan></text></g><path fill="none" stroke="#000" stroke-linecap="round" stroke-linejoin="round" stroke-width=".1" d="M185.04 205V45.01" class="gridline" color="#000"/><g fill="none" stroke="none" stroke-linecap="round" stroke-linejoin="round" stroke-width="0" color="#000"><path d="M185.04 205v-7.5m0-152.49v7.5"/><text fill="#000" font-family="KaTeX_Main" font-size="10" text-anchor="middle" transform="translate(185.04 215.75)"><tspan> 5</tspan></text></g><path fill="none" stroke="#000" stroke-linecap="round" stroke-linejoin="round" stroke-width=".1" d="M222.43 205V45.01" class="gridline" color="#000"/><g fill="none" stroke="none" stroke-linecap="round" stroke-linejoin="round" stroke-width="0" color="#000"><path d="M222.43 205v-7.5m0-152.49v7.5"/><text fill="#000" font-family="KaTeX_Main" font-size="10" text-anchor="middle" transform="translate(222.43 215.75)"><tspan> 6</tspan></text></g><path fill="none" stroke="#000" stroke-linecap="round" stroke-linejoin="round" stroke-width=".1" d="M259.82 205V45.01" class="gridline" color="#000"/><g fill="none" stroke="none" stroke-linecap="round" stroke-linejoin="round" stroke-width="0" color="#000"><path d="M259.82 205v-7.5m0-152.49v7.5"/><text fill="#000" font-family="KaTeX_Main" font-size="10" text-anchor="middle" transform="translate(259.82 215.75)"><tspan> 7</tspan></text></g><path fill="none" stroke="#000" stroke-linecap="round" stroke-linejoin="round" stroke-width=".1" d="M297.21 205V45.01" class="gridline" color="#000"/><g fill="none" stroke="none" stroke-linecap="round" stroke-linejoin="round" stroke-width="0" color="#000"><path d="M297.21 205v-7.5m0-152.49v7.5"/><text fill="#000" font-family="KaTeX_Main" font-size="10" text-anchor="middle" transform="translate(297.21 215.75)"><tspan> 8</tspan></text></g><path fill="none" stroke="#000" stroke-linecap="round" stroke-linejoin="round" stroke-width=".1" d="M334.6 205V45.01" class="gridline" color="#000"/><g fill="none" stroke="none" stroke-linecap="round" stroke-linejoin="round" stroke-width="0" color="#000"><path d="M334.6 205v-7.5m0-152.49v7.5"/><text fill="#000" font-family="KaTeX_Main" font-size="10" text-anchor="middle" transform="translate(334.6 215.75)"><tspan> 9</tspan></text></g><path fill="none" stroke="#000" stroke-linecap="round" stroke-linejoin="round" stroke-width=".1" d="M371.99 205V45.01" class="gridline" color="#000"/><g fill="none" stroke="none" stroke-linecap="round" stroke-linejoin="round" stroke-width="0" color="#000"><path d="M371.99 205v-7.5m0-152.49v7.5"/><text fill="#000" font-family="KaTeX_Main" font-size="10" text-anchor="middle" transform="translate(371.99 215.75)"><tspan> 10</tspan></text></g><g fill="none" stroke="none" stroke-linecap="round" stroke-linejoin="round" stroke-width="0" color="#000"><path d="M371.99 205h-7.5"/><text fill="#000" font-family="KaTeX_Main" font-size="10" transform="translate(378.99 208.25)"><tspan>0.74</tspan></text></g><g fill="none" stroke="none" stroke-linecap="round" stroke-linejoin="round" stroke-width="0" color="#000"><path d="M371.99 189h-7.5"/><text fill="#000" font-family="KaTeX_Main" font-size="10" transform="translate(378.99 192.25)"><tspan>0.75</tspan></text></g><g fill="none" stroke="none" stroke-linecap="round" stroke-linejoin="round" stroke-width="0" color="#000"><path d="M371.99 173h-7.5"/><text fill="#000" font-family="KaTeX_Main" font-size="10" transform="translate(378.99 176.25)"><tspan>0.76</tspan></text></g><g fill="none" stroke="none" stroke-linecap="round" stroke-linejoin="round" stroke-width="0" color="#000"><path d="M371.99 157h-7.5"/><text fill="#000" font-family="KaTeX_Main" font-size="10" transform="translate(378.99 160.25)"><tspan>0.77</tspan></text></g><g fill="none" stroke="none" stroke-linecap="round" stroke-linejoin="round" stroke-width="0" color="#000"><path d="M371.99 141h-7.5"/><text fill="#000" font-family="KaTeX_Main" font-size="10" transform="translate(378.99 144.25)"><tspan>0.78</tspan></text></g><g fill="none" stroke="none" stroke-linecap="round" stroke-linejoin="round" stroke-width="0" color="#000"><path d="M371.99 125h-7.5"/><text fill="#000" font-family="KaTeX_Main" font-size="10" transform="translate(378.99 128.25)"><tspan>0.79</tspan></text></g><g fill="none" stroke="none" stroke-linecap="round" stroke-linejoin="round" stroke-width="0" color="#000"><path d="M371.99 109.01h-7.5"/><text fill="#000" font-family="KaTeX_Main" font-size="10" transform="translate(378.99 112.26)"><tspan>0.80</tspan></text></g><g fill="none" stroke="none" stroke-linecap="round" stroke-linejoin="round" stroke-width="0" color="#000"><path d="M371.99 93.01h-7.5"/><text fill="#000" font-family="KaTeX_Main" font-size="10" transform="translate(378.99 96.26)"><tspan>0.81</tspan></text></g><g fill="none" stroke="none" stroke-linecap="round" stroke-linejoin="round" stroke-width="0" color="#000"><path d="M371.99 77.01h-7.5"/><text fill="#000" font-family="KaTeX_Main" font-size="10" transform="translate(378.99 80.26)"><tspan>0.82</tspan></text></g><g fill="none" stroke="none" stroke-linecap="round" stroke-linejoin="round" stroke-width="0" color="#000"><path d="M371.99 61.01h-7.5"/><text fill="#000" font-family="KaTeX_Main" font-size="10" transform="translate(378.99 64.26)"><tspan>0.83</tspan></text></g><g fill="none" stroke="none" stroke-linecap="round" stroke-linejoin="round" stroke-width="0" color="#000"><path d="M371.99 45.01h-7.5"/><text fill="#000" font-family="KaTeX_Main" font-size="10" transform="translate(378.99 48.26)"><tspan>0.84</tspan></text></g><path fill="none" stroke="none" stroke-linecap="round" stroke-linejoin="round" stroke-width="0" d="M28 45.01V205M371.99 45.01H28" color="#000"/><text fill="#000" stroke="none" stroke-linecap="round" stroke-linejoin="round" stroke-width="0" color="#000" font-family="KaTeX_Main" font-size="10" text-anchor="middle" transform="rotate(-90 68.255 56.755)"><tspan font-weight="bold">Rotations</tspan><tspan> / Operation</tspan></text><text fill="#000" stroke="none" stroke-linecap="round" stroke-linejoin="round" stroke-width="0" color="#000" font-family="KaTeX_Main" font-size="10" text-anchor="middle" transform="translate(199.99 238.25)"><tspan>Operations × 10</tspan><tspan dy="-5" font-size="8">5</tspan></text><text fill="#000" stroke="none" stroke-linecap="round" stroke-linejoin="round" color="#000" font-family="KaTeX_Main" font-size="8" transform="translate(99.2 10.11)"><tspan>AVLBottomUp</tspan></text><g fill="none" stroke="currentColor" stroke-linecap="round" stroke-linejoin="round" color="#000"><path stroke="#000" d="M63.7 7.51h29.9M28 137.48l.37 18.56.38-17.92.37-4.16.38-3.2.37 10.56.37 27.84.38-20.48.37-1.92.38-6.08.37-27.51.37 33.59.38-5.76.37-19.51.37 50.23.38-63.35.37 47.99.38-31.04.37 18.24.37-4.8.38 11.52.37 18.56.38-17.92.37 15.04.37 1.28.38 2.24.37-38.72.38-8.95.37 22.39.37-9.92.38 2.88.37 13.44.37 8.64.38-13.12.37.32.38 13.44.37-37.11.37 15.03.38.64.37 9.28.38-10.24.37 28.16.37-14.72.38 2.56.37-12.8.38 16 .37-9.6.37 1.6.38-8 .37 8 .38 8 .37-14.72.37 35.84.38-30.4.37-9.92.37-15.03.38 34.87.37-17.28.38 21.12.37 18.88.37-49.6.38 29.76.37-14.08.38 24.32.37-34.24.37 43.2.38-21.12.37 6.4.38-21.76.37 19.84.37-6.08.38-5.76.37-13.12.37 20.16.38-32 .37 17.6.38-17.92.37 33.6.37-26.56.38 22.08.37 6.72.38-13.12.37 31.68.37-42.88.38 23.68.37-29.12.38 1.92.37 18.56.37-39.67.38 45.43.37-39.67.38 37.11.37-.64.37-39.67.38 34.87.37-17.92.37 21.44.38-23.04.37.96.38 10.88.37 36.48.37-35.52.38-5.12.37 18.56.38-5.12.37 6.72.37 2.24.38-12.8.37 2.88.38 2.56.37-5.44.37-15.04.38 22.08.37 17.92.37-14.4.38-28.16.37 1.28.38 20.48.37-10.88.37 3.2.38 3.2.37 16.64.38-9.28.37-11.84.37 7.04.38-4.16.37-9.28.38-2.56.37-2.24.37 43.52.38-52.79.37 51.19.38-27.52.37-24.95.37 16.63.38 13.76.37 5.76.37-14.72.38 9.6.37-29.75.38 3.19.37 44.48.37-41.92.38 3.84.37 27.84.38-3.52.37.64.37-16.96.38 13.76.37-17.28.38-3.52.37-15.03.37 27.19.38-9.28.37 1.28.37 32.96.38-29.76.37-16.31.38 12.47.37 13.76.37-16.96.38 3.52.37 9.28.38-33.59.37 34.55.37-3.52.38 4.48.37-23.99.38 40.63.37-7.36.37-22.72.38 1.92.37-4.16.38.96.37 15.36.37 14.4.38 2.24.37-60.47.37 19.2.38 33.91.37-.32.38-3.52.37.32.37-16 .38 13.44.37 1.28.38 2.88.37 12.48.37-25.28.38-7.68.37 11.2.38 25.28.37-8.96.37-24.96.38-26.23.37 19.19.37 25.28.38-23.36.37 32.64.38-8 .37-17.92.37-17.27.38 23.67.37-22.07.38 46.07.37-28.16.37-18.87.38 31.03.37-7.68h.38l.37 4.48.37 13.76.38-64.63.37 45.11.38-17.28.37 16.32.37 3.84.38 6.08.37 6.08.37-1.6.38-3.84.37-18.24.38-8.32.37 28.8.37 3.52.38-8.96.37-27.51.38 13.43.37-10.56.37 14.4.38 1.92.37-11.52.38 30.08.37-13.76.37-20.48.38 19.84.37-19.52.37 9.92.38-8.96.37 6.72.38 20.8.37-22.72.37 1.92.38-6.08.37 5.76.38 27.84.37-21.44.37 5.12.38 16.32.37-23.36.38 5.44.37-.64.37-23.35.38 18.23.37 12.16.38-24.64.37 31.68.37-21.44.38 6.72.37-10.24.37 33.92.38-21.44.37 16.96.38.32.37 6.08.37-33.92.38 3.2.37-11.2.38-20.15.37 36.79.37 4.8.38-4.8.37 23.36.38-29.76.37-1.6.37 8.64.38 9.28.37-22.72.37 14.4.38 18.24.37-22.4.38-.64.37 10.88.37-6.4.38 5.76.37 7.04.38-38.71.37 45.11.37-15.04.38 18.24.37-33.6.38 44.48.37-13.12.37-16 .38-18.56.37 37.44.38-16.96.37-27.51.37 10.55.38 13.44.37-30.39.37 67.19.38-30.08.37-22.72.38-8.31.37 18.55.37 20.8.38-3.2.37-5.12.38-31.35.37 13.43.37-15.99.38 26.87.37-22.4.38 6.4.37 19.84.37-16 .38 30.72.37-9.6.37-1.28.38-7.36.37-21.76.38 49.6.37-25.6.37-3.84.38 14.72.37-2.88.38-22.08.37 5.12.37 16.96.38 2.56.37-26.56.38 5.44.37 31.68.37-21.12.38-4.16.37 38.4.38-22.08.37-41.91.37.64.38 16.95.37 2.56.37 15.04.38-5.76.37-7.36.38 8.96.37-4.16.37-17.6.38 8.64.37 17.92.38-8.32.37-15.04.37.64.38 21.12.37-18.56.38-1.6.37 32.96.37-52.15.38 16.95.37 14.4.37 18.56.38-14.08.37.32.38 1.6.37-11.2.37.64.38 1.92.37 3.2.38-.64.37-53.11.37 40.63.38-4.16.37 13.44.38 5.76.37 8.32.37-26.24.38 20.48.37-40.31.38 51.19.37-49.91.37 57.91.38-30.72.37-47.99.37 44.47.38-18.23.37 14.39.38 10.24.37 4.8.37 6.4.38 30.72.37-31.04.38-8.64.37 5.76.37 1.6.38-15.04.37 61.44.38-72.64.37 44.8.37-2.88.38-4.16.37-47.03.37 50.23.38-15.04.37-62.07.38 46.71.37 15.68.37 24.96.38-12.48.37-13.12.38-38.71.37 41.59.37-4.16.38 17.6.37-76.15.38 31.04.37 61.75.37-29.76.38-1.92.37-6.4.38-9.28.37-1.92.37-7.68.38 13.12.37-18.87.37-8.32.38 43.51.37-43.83.38 81.27.37-52.16.37 8.96.38-43.51.37 32.63h.38l.37 3.52.37 16.64.38-11.84.37 2.88.38-5.12.37.96.37-9.92.38 13.44.37-17.28.37 8.32.38-13.44.37 8 .38 6.08.37-12.8.37 7.36.38-20.79.37 37.75.38 10.56.37-22.4.37 11.52.38 5.12.37-6.72.38 15.04.37-10.88.37-20.16.38 20.8.37-5.44.38-24.96.37 27.84.37-4.16.38-15.36.37 12.48.37-3.84.38 15.36.37-29.12.38 18.88.37-7.68.37 3.2.38 14.4.37 7.04.38-48.95.37 29.75.37 5.76.38-4.16.37-7.36.38 21.12.37-15.68.37 6.72.38 1.6.37-.96.37-14.08.38 29.76.37-43.52.38 31.04.37-32.63.37 28.15.38-1.92.37 1.28.38 7.36.37 14.4.37-42.56.38 29.44.37.96.38-18.24.37.32.37-5.44.38-12.8.37 40.64.37-24.64.38-23.67.37 69.11.38-69.11.37 15.67.37 54.72.38-71.67.37 63.99.38-48.32.37 31.04.37-7.68.38 12.8.37-1.28.38-36.8.37 2.56.37 24 .38 21.12.37-13.12.38 3.84.37-40 .37 17.92.38-21.44.37 34.24.37-25.6.38 4.48.37-.96.38 39.04.37-58.87.37-8.32.38 62.39.37.32.38-52.15.37 16.63.37 35.2.38 2.56.37-45.76.38 10.24.37 30.72.37-12.16.38-18.88.37-25.27.37 45.75h.38l.37-35.51.38 9.27.37 16.96.37-22.72.38 36.8.37-53.11.38 44.15.37-14.4.37 11.2.38 21.12.37-38.4.38 14.4.37 14.4.37-36.48.38 64.32.37-56.32.38 7.68.37 24.96.37-28.8.38 6.72.37 7.68.37-22.08.38-8.31.37 30.39.38-11.84.37-31.67.37 28.15.38 8 .37-21.75.38 45.75.37-31.36.37 10.88.38 1.6.37-21.76.38 18.56.37-20.48.37 17.92.38-10.88.37 5.44.37 16.96.38-1.6.37-51.51.38 50.23.37 3.2.37-13.44.38 15.36.37-9.6.38 7.04.37.32.37-26.24.38 25.28.37-20.16.38-18.55.37 33.91.37-3.2.38-10.56.37 42.24.38-13.44.37-12.16.37 43.84.38-45.76.37 8.64.37-35.51.38 5.11.37 24.32.38-8 .37-9.92.37-20.47.38 16.95.37 2.24.38 7.68.37 9.28.37-38.39.38 43.83.37-70.71.38 50.87.37 17.28.37 19.2.38 3.2.37-28.8.37-17.92.38-12.79.37 28.15.38 4.8.37 7.68.37-18.56.38 38.4.37-40.32.38 25.6.37-24 .37 6.08.38 10.56.37-21.44.38-7.04.37 15.36.37-2.56.38 3.84.37.96.38-21.75.37 28.15.37-27.51.38 28.15.37-32.95.37 28.79.38-24.31.37 28.47.38 18.88.37-6.08.37-16.96.38-39.99.37 53.11.38-30.72.37 24 .37 6.72.38-19.84.37 24 .38-13.44.37-3.84.37-17.6.38 49.92.37-44.16.37 32 .38-11.2.37-1.6.38-18.88.37 15.36.37-12.8h.38l.37 13.12.38-8 .37-3.84.37-27.51.38 51.83.37-23.04.38-18.55.37 40.95.37-42.55.38 19.51.37 10.56.38-12.8.37 8.32.37-11.52.38 8 .37 19.84.37-34.88.38 30.72.37 15.36.38-20.16.37-19.2.37 17.92.38-7.36.37-8 .38 21.12.37-6.08.37 6.72.38-6.72.37-14.4.38 22.08.37-24.32.37 37.76.38-38.72h.37l.37-32.95.38 26.55.37 36.48.38-5.12.37 8 .37-24 .38.32.37 21.12.38-13.76.37-12.8.37-4.48.38 12.48.37 10.88.38-1.6.37-4.16.37 23.04.38-7.04.37-.96.38-16.64.37-11.84.37-2.56.38 15.68.37-24.96.37 41.6.38-19.2.37-19.84.38 5.12.37-4.8.37 18.88.38-7.68.37 3.52.38-8.96.37 18.88.37-19.52.38 5.12.37-17.91.38 17.91.37-10.24.37 9.6.38 39.68.37-29.76.37-1.6.38.96.37 3.2.38-16.64.37-4.16.37 3.52.38 37.12.37-27.84.38-5.12.37-4.48.37 31.04.38-31.68.37 10.56.38 2.88.37-14.4.37 30.4.38-15.36.37-6.08.38-19.51.37 20.79.37 12.48.38-22.72.37 5.44.37 13.12.38-15.68.37 39.36.38-33.6.37 6.4.37-26.87.38 44.79.37-33.6.38 23.68.37-15.04.37 19.2.38 12.8.37-28.8.38 8.64.37-11.52.37 15.04.38-21.12.37-23.67.37 41.27.38-20.8.37 47.04.38-11.52.37-24.64.37 11.52.38-8 .37-36.15.38 18.87.37 39.36.37-.64.38-32.32.37 23.68.38-28.8.37-8.31.37 30.71.38 14.08.37 8 .38-27.52.37 16.64.37 6.4.38-41.6.37-3.2.37 22.08.38 13.44.37.32.38-45.11.37 46.39.37-36.48.38 51.84.37-22.4.38-24.96.37-16.95.37 28.47.38-4.8.37-36.15.38 39.03.37 4.8.37-2.24.38-9.28.37 31.36.37-11.84.38 5.12.37 9.6.38-4.48.37-13.12.37-33.27.38 16.31.37 33.28.38-16.64.37 7.04.37-15.68.38-7.04.37-2.24.38 52.8.37-44.8.37-14.4.38 8.96.37-5.44.38 9.92.37-13.76.37 35.84.38 8.96.37-21.12.37 33.92.38-33.6.37 26.88.38-16 .37-43.83.37 31.67.38 4.8.37-2.88.38-3.2.37-10.56.37 4.16.38 26.88.37-23.36.38 32.64.37-27.2.37-5.12.38 32 .37 9.28.37-51.2.38-14.07.37 16.95.38-4.16.37-24.63.37 57.59.38-30.08.37 2.24.38-2.24.37 46.08.37-24.32.38 7.36.37-32.64.38 8.96.37-20.47.37 50.23.38-52.79.37 4.8.38-4.48.37 19.83.37 20.16.38-17.28.37-1.92.37 15.04.38-7.04.37 2.56.38 8.96.37-9.92.37-7.36.38 20.8.37.64.38-18.24.37-9.28.37 27.2.38-11.52.37-16.32.38-3.84.37 15.04.37-.64.38 12.48.37-17.28.37 27.52.38-20.48.37-11.2.38 11.84.37 12.16.37-7.36.38-26.24.37 9.92.38-1.28.37 30.08"/><use xlink:href="#g" transform="matrix(3.75 0 0 3.75 342.45 131.72)"/><use xlink:href="#g" transform="matrix(3.75 0 0 3.75 78.65 7.51)"/></g><text fill="#000" stroke="none" stroke-linecap="round" stroke-linejoin="round" color="#000" font-family="KaTeX_Main" font-size="8" transform="translate(99.2 25.11)"><tspan>AVLTopDown</tspan></text><g fill="none" stroke="currentColor" stroke-linecap="round" stroke-linejoin="round" color="#000"><path stroke="#29C3F6" stroke-dasharray="1.0,2.0" d="M63.7 22.51h29.9M28 137.48l.37 18.56.38-17.92.37-4.16.38-3.2.37 10.56.37 27.84.38-20.48.37-1.92.38-6.08.37-27.51.37 33.59.38-5.76.37-19.51.37 50.23.38-63.35.37 47.99.38-31.04.37 18.24.37-4.8.38 11.52.37 18.56.38-17.92.37 15.04.37 1.28.38 2.24.37-38.72.38-8.95.37 22.39.37-9.92.38 2.88.37 13.44.37 8.64.38-13.12.37.32.38 13.44.37-37.11.37 15.03.38.64.37 9.28.38-10.24.37 28.16.37-14.72.38 2.56.37-12.8.38 16 .37-9.6.37 1.6.38-8 .37 8 .38 8 .37-14.72.37 35.84.38-30.4.37-9.92.37-15.03.38 34.87.37-17.28.38 21.12.37 18.88.37-49.6.38 29.76.37-14.08.38 24.32.37-34.24.37 43.2.38-21.12.37 6.4.38-21.76.37 19.84.37-6.08.38-5.76.37-13.12.37 20.16.38-32 .37 17.6.38-17.92.37 33.6.37-26.56.38 22.08.37 6.72.38-13.12.37 31.68.37-42.88.38 23.68.37-29.12.38 1.92.37 18.56.37-39.67.38 45.43.37-39.67.38 37.11.37-.64.37-39.67.38 34.87.37-17.92.37 21.44.38-23.04.37.96.38 10.88.37 36.48.37-35.52.38-5.12.37 18.56.38-5.12.37 6.72.37 2.24.38-12.8.37 2.88.38 2.56.37-5.44.37-15.04.38 22.08.37 17.92.37-14.4.38-28.16.37 1.28.38 20.48.37-10.88.37 3.2.38 3.2.37 16.64.38-9.28.37-11.84.37 7.04.38-4.16.37-9.28.38-2.56.37-2.24.37 43.52.38-52.79.37 51.19.38-27.52.37-24.95.37 16.63.38 13.76.37 5.76.37-14.72.38 9.6.37-29.75.38 3.19.37 44.48.37-41.92.38 3.84.37 27.84.38-3.52.37.64.37-16.96.38 13.76.37-17.28.38-3.52.37-15.03.37 27.19.38-9.28.37 1.28.37 32.96.38-29.76.37-16.31.38 12.47.37 13.76.37-16.96.38 3.52.37 9.28.38-33.59.37 34.55.37-3.52.38 4.48.37-23.99.38 40.63.37-7.36.37-22.72.38 1.92.37-4.16.38.96.37 15.36.37 14.4.38 2.24.37-60.47.37 19.2.38 33.91.37-.32.38-3.52.37.32.37-16 .38 13.44.37 1.28.38 2.88.37 12.48.37-25.28.38-7.68.37 11.2.38 25.28.37-8.96.37-24.96.38-26.23.37 19.19.37 25.28.38-23.36.37 32.64.38-8 .37-17.92.37-17.27.38 23.67.37-22.07.38 46.07.37-28.16.37-18.87.38 31.03.37-7.68h.38l.37 4.48.37 13.76.38-64.63.37 45.11.38-17.28.37 16.32.37 3.84.38 6.08.37 6.08.37-1.6.38-3.84.37-18.24.38-8.32.37 28.8.37 3.52.38-8.96.37-27.51.38 13.43.37-10.56.37 14.4.38 1.92.37-11.52.38 30.08.37-13.76.37-20.48.38 19.84.37-19.52.37 9.92.38-8.96.37 6.72.38 20.8.37-22.72.37 1.92.38-6.08.37 5.76.38 27.84.37-21.44.37 5.12.38 16.32.37-23.36.38 5.44.37-.64.37-23.35.38 18.23.37 12.16.38-24.64.37 31.68.37-21.44.38 6.72.37-10.24.37 33.92.38-21.44.37 16.96.38.32.37 6.08.37-33.92.38 3.2.37-11.2.38-20.15.37 36.79.37 4.8.38-4.8.37 23.36.38-29.76.37-1.6.37 8.64.38 9.28.37-22.72.37 14.4.38 18.24.37-22.4.38-.64.37 10.88.37-6.4.38 5.76.37 7.04.38-38.71.37 45.11.37-15.04.38 18.24.37-33.6.38 44.48.37-13.12.37-16 .38-18.56.37 37.44.38-16.96.37-27.51.37 10.55.38 13.44.37-30.39.37 67.19.38-30.08.37-22.72.38-8.31.37 18.55.37 20.8.38-3.2.37-5.12.38-31.35.37 13.43.37-15.99.38 26.87.37-22.4.38 6.4.37 19.84.37-16 .38 30.72.37-9.6.37-1.28.38-7.36.37-21.76.38 49.6.37-25.6.37-3.84.38 14.72.37-2.88.38-22.08.37 5.12.37 16.96.38 2.56.37-26.56.38 5.44.37 31.68.37-21.12.38-4.16.37 38.4.38-22.08.37-41.91.37.64.38 16.95.37 2.56.37 15.04.38-5.76.37-7.36.38 8.96.37-4.16.37-17.6.38 8.64.37 17.92.38-8.32.37-15.04.37.64.38 21.12.37-18.56.38-1.6.37 32.96.37-52.15.38 16.95.37 14.4.37 18.56.38-14.08.37.32.38 1.6.37-11.2.37.64.38 1.92.37 3.2.38-.64.37-53.11.37 40.63.38-4.16.37 13.44.38 5.76.37 8.32.37-26.24.38 20.48.37-40.31.38 51.19.37-49.91.37 57.91.38-30.72.37-47.99.37 44.47.38-18.23.37 14.39.38 10.24.37 4.8.37 6.4.38 30.72.37-31.04.38-8.64.37 5.76.37 1.6.38-15.04.37 61.44.38-72.64.37 44.8.37-2.88.38-4.16.37-47.03.37 50.23.38-15.04.37-62.07.38 46.71.37 15.68.37 24.96.38-12.48.37-13.12.38-38.71.37 41.59.37-4.16.38 17.6.37-76.15.38 31.04.37 61.75.37-29.76.38-1.92.37-6.4.38-9.28.37-1.92.37-7.68.38 13.12.37-18.87.37-8.32.38 43.51.37-43.83.38 81.27.37-52.16.37 8.96.38-43.51.37 32.63h.38l.37 3.52.37 16.64.38-11.84.37 2.88.38-5.12.37.96.37-9.92.38 13.44.37-17.28.37 8.32.38-13.44.37 8 .38 6.08.37-12.8.37 7.36.38-20.79.37 37.75.38 10.56.37-22.4.37 11.52.38 5.12.37-6.72.38 15.04.37-10.88.37-20.16.38 20.8.37-5.44.38-24.96.37 27.84.37-4.16.38-15.36.37 12.48.37-3.84.38 15.36.37-29.12.38 18.88.37-7.68.37 3.2.38 14.4.37 7.04.38-48.95.37 29.75.37 5.76.38-4.16.37-7.36.38 21.12.37-15.68.37 6.72.38 1.6.37-.96.37-14.08.38 29.76.37-43.52.38 31.04.37-32.63.37 28.15.38-1.92.37 1.28.38 7.36.37 14.4.37-42.56.38 29.44.37.96.38-18.24.37.32.37-5.44.38-12.8.37 40.64.37-24.64.38-23.67.37 69.11.38-69.11.37 15.67.37 54.72.38-71.67.37 63.99.38-48.32.37 31.04.37-7.68.38 12.8.37-1.28.38-36.8.37 2.56.37 24 .38 21.12.37-13.12.38 3.84.37-40 .37 17.92.38-21.44.37 34.24.37-25.6.38 4.48.37-.96.38 39.04.37-58.87.37-8.32.38 62.39.37.32.38-52.15.37 16.63.37 35.2.38 2.56.37-45.76.38 10.24.37 30.72.37-12.16.38-18.88.37-25.27.37 45.75h.38l.37-35.51.38 9.27.37 16.96.37-22.72.38 36.8.37-53.11.38 44.15.37-14.4.37 11.2.38 21.12.37-38.4.38 14.4.37 14.4.37-36.48.38 64.32.37-56.32.38 7.68.37 24.96.37-28.8.38 6.72.37 7.68.37-22.08.38-8.31.37 30.39.38-11.84.37-31.67.37 28.15.38 8 .37-21.75.38 45.75.37-31.36.37 10.88.38 1.6.37-21.76.38 18.56.37-20.48.37 17.92.38-10.88.37 5.44.37 16.96.38-1.6.37-51.51.38 50.23.37 3.2.37-13.44.38 15.36.37-9.6.38 7.04.37.32.37-26.24.38 25.28.37-20.16.38-18.55.37 33.91.37-3.2.38-10.56.37 42.24.38-13.44.37-12.16.37 43.84.38-45.76.37 8.64.37-35.51.38 5.11.37 24.32.38-8 .37-9.92.37-20.47.38 16.95.37 2.24.38 7.68.37 9.28.37-38.39.38 43.83.37-70.71.38 50.87.37 17.28.37 19.2.38 3.2.37-28.8.37-17.92.38-12.79.37 28.15.38 4.8.37 7.68.37-18.56.38 38.4.37-40.32.38 25.6.37-24 .37 6.08.38 10.56.37-21.44.38-7.04.37 15.36.37-2.56.38 3.84.37.96.38-21.75.37 28.15.37-27.51.38 28.15.37-32.95.37 28.79.38-24.31.37 28.47.38 18.88.37-6.08.37-16.96.38-39.99.37 53.11.38-30.72.37 24 .37 6.72.38-19.84.37 24 .38-13.44.37-3.84.37-17.6.38 49.92.37-44.16.37 32 .38-11.2.37-1.6.38-18.88.37 15.36.37-12.8h.38l.37 13.12.38-8 .37-3.84.37-27.51.38 51.83.37-23.04.38-18.55.37 40.95.37-42.55.38 19.51.37 10.56.38-12.8.37 8.32.37-11.52.38 8 .37 19.84.37-34.88.38 30.72.37 15.36.38-20.16.37-19.2.37 17.92.38-7.36.37-8 .38 21.12.37-6.08.37 6.72.38-6.72.37-14.4.38 22.08.37-24.32.37 37.76.38-38.72h.37l.37-32.95.38 26.55.37 36.48.38-5.12.37 8 .37-24 .38.32.37 21.12.38-13.76.37-12.8.37-4.48.38 12.48.37 10.88.38-1.6.37-4.16.37 23.04.38-7.04.37-.96.38-16.64.37-11.84.37-2.56.38 15.68.37-24.96.37 41.6.38-19.2.37-19.84.38 5.12.37-4.8.37 18.88.38-7.68.37 3.52.38-8.96.37 18.88.37-19.52.38 5.12.37-17.91.38 17.91.37-10.24.37 9.6.38 39.68.37-29.76.37-1.6.38.96.37 3.2.38-16.64.37-4.16.37 3.52.38 37.12.37-27.84.38-5.12.37-4.48.37 31.04.38-31.68.37 10.56.38 2.88.37-14.4.37 30.4.38-15.36.37-6.08.38-19.51.37 20.79.37 12.48.38-22.72.37 5.44.37 13.12.38-15.68.37 39.36.38-33.6.37 6.4.37-26.87.38 44.79.37-33.6.38 23.68.37-15.04.37 19.2.38 12.8.37-28.8.38 8.64.37-11.52.37 15.04.38-21.12.37-23.67.37 41.27.38-20.8.37 47.04.38-11.52.37-24.64.37 11.52.38-8 .37-36.15.38 18.87.37 39.36.37-.64.38-32.32.37 23.68.38-28.8.37-8.31.37 30.71.38 14.08.37 8 .38-27.52.37 16.64.37 6.4.38-41.6.37-3.2.37 22.08.38 13.44.37.32.38-45.11.37 46.39.37-36.48.38 51.84.37-22.4.38-24.96.37-16.95.37 28.47.38-4.8.37-36.15.38 39.03.37 4.8.37-2.24.38-9.28.37 31.36.37-11.84.38 5.12.37 9.6.38-4.48.37-13.12.37-33.27.38 16.31.37 33.28.38-16.64.37 7.04.37-15.68.38-7.04.37-2.24.38 52.8.37-44.8.37-14.4.38 8.96.37-5.44.38 9.92.37-13.76.37 35.84.38 8.96.37-21.12.37 33.92.38-33.6.37 26.88.38-16 .37-43.83.37 31.67.38 4.8.37-2.88.38-3.2.37-10.56.37 4.16.38 26.88.37-23.36.38 32.64.37-27.2.37-5.12.38 32 .37 9.28.37-51.2.38-14.07.37 16.95.38-4.16.37-24.63.37 57.59.38-30.08.37 2.24.38-2.24.37 46.08.37-24.32.38 7.36.37-32.64.38 8.96.37-20.47.37 50.23.38-52.79.37 4.8.38-4.48.37 19.83.37 20.16.38-17.28.37-1.92.37 15.04.38-7.04.37 2.56.38 8.96.37-9.92.37-7.36.38 20.8.37.64.38-18.24.37-9.28.37 27.2.38-11.52.37-16.32.38-3.84.37 15.04.37-.64.38 12.48.37-17.28.37 27.52.38-20.48.37-11.2.38 11.84.37 12.16.37-7.36.38-26.24.37 9.92.38-1.28.37 30.08"/><use xlink:href="#h" color="#29C3F6" transform="matrix(3.75 0 0 3.75 56.04 143.56)"/><use xlink:href="#h" color="#29C3F6" transform="matrix(3.75 0 0 3.75 78.65 22.51)"/></g><text fill="#000" stroke="none" stroke-linecap="round" stroke-linejoin="round" color="#000" font-family="KaTeX_Main" font-size="8" transform="translate(241.1 10.11)"><tspan>AVLRelaxedBottomUp</tspan></text><g fill="none" stroke="currentColor" stroke-linecap="round" stroke-linejoin="round" color="#000"><path stroke="#FFAB00" d="M205.6 7.51h29.9M28 137.48l.37 18.56.38-17.92.37-4.16.38-3.2.37 10.56.37 27.84.38-20.48.37-1.92.38-6.08.37-27.51.37 33.59.38-5.76.37-19.51.37 50.23.38-63.35.37 47.99.38-31.04.37 18.24.37-4.8.38 11.52.37 18.56.38-17.92.37 15.04.37 1.28.38 2.24.37-38.72.38-8.95.37 22.39.37-9.92.38 2.88.37 13.44.37 8.64.38-13.12.37.32.38 13.44.37-37.11.37 15.03.38.64.37 9.28.38-10.24.37 28.16.37-14.72.38 2.56.37-12.8.38 16 .37-9.6.37 1.6.38-8 .37 8 .38 8 .37-14.72.37 35.84.38-30.4.37-9.92.37-15.03.38 34.87.37-17.28.38 21.12.37 18.88.37-49.6.38 29.76.37-14.08.38 24.32.37-34.24.37 43.2.38-21.12.37 6.4.38-21.76.37 19.84.37-6.08.38-5.76.37-13.12.37 20.16.38-32 .37 17.6.38-17.92.37 33.6.37-26.56.38 22.08.37 6.72.38-13.12.37 31.68.37-42.88.38 23.68.37-29.12.38 1.92.37 18.56.37-39.67.38 45.43.37-39.67.38 37.11.37-.64.37-39.67.38 34.87.37-17.92.37 21.44.38-23.04.37.96.38 10.88.37 36.48.37-35.52.38-5.12.37 18.56.38-5.12.37 6.72.37 2.24.38-12.8.37 2.88.38 2.56.37-5.44.37-15.04.38 22.08.37 17.92.37-14.4.38-28.16.37 1.28.38 20.48.37-10.88.37 3.2.38 3.2.37 16.64.38-9.28.37-11.84.37 7.04.38-4.16.37-9.28.38-2.56.37-2.24.37 43.52.38-52.79.37 51.19.38-27.52.37-24.95.37 16.63.38 13.76.37 5.76.37-14.72.38 9.6.37-29.75.38 3.19.37 44.48.37-41.92.38 3.84.37 27.84.38-3.52.37.64.37-16.96.38 13.76.37-17.28.38-3.52.37-15.03.37 27.19.38-9.28.37 1.28.37 32.96.38-29.76.37-16.31.38 12.47.37 13.76.37-16.96.38 3.52.37 9.28.38-33.59.37 34.55.37-3.52.38 4.48.37-23.99.38 40.63.37-7.36.37-22.72.38 1.92.37-4.16.38.96.37 15.36.37 14.4.38 2.24.37-60.47.37 19.2.38 33.91.37-.32.38-3.52.37.32.37-16 .38 13.44.37 1.28.38 2.88.37 12.48.37-25.28.38-7.68.37 11.2.38 25.28.37-8.96.37-24.96.38-26.23.37 19.19.37 25.28.38-23.36.37 32.64.38-8 .37-17.92.37-17.27.38 23.67.37-22.07.38 46.07.37-28.16.37-18.87.38 31.03.37-7.68h.38l.37 4.48.37 13.76.38-64.63.37 45.11.38-17.28.37 16.32.37 3.84.38 6.08.37 6.08.37-1.6.38-3.84.37-18.24.38-8.32.37 28.8.37 3.52.38-8.96.37-27.51.38 13.43.37-10.56.37 14.4.38 1.92.37-11.52.38 30.08.37-13.76.37-20.48.38 19.84.37-19.52.37 9.92.38-8.96.37 6.72.38 20.8.37-22.72.37 1.92.38-6.08.37 5.76.38 27.84.37-21.44.37 5.12.38 16.32.37-23.36.38 5.44.37-.64.37-23.35.38 18.23.37 12.16.38-24.64.37 31.68.37-21.44.38 6.72.37-10.24.37 33.92.38-21.44.37 16.96.38.32.37 6.08.37-33.92.38 3.2.37-11.2.38-20.15.37 36.79.37 4.8.38-4.8.37 23.36.38-29.76.37-1.6.37 8.64.38 9.28.37-22.72.37 14.4.38 18.24.37-22.4.38-.64.37 10.88.37-6.4.38 5.76.37 7.04.38-38.71.37 45.11.37-15.04.38 18.24.37-33.6.38 44.48.37-13.12.37-16 .38-18.56.37 37.44.38-16.96.37-27.51.37 10.55.38 13.44.37-30.39.37 67.19.38-30.08.37-22.72.38-8.31.37 18.55.37 20.8.38-3.2.37-5.12.38-31.35.37 13.43.37-15.99.38 26.87.37-22.4.38 6.4.37 19.84.37-16 .38 30.72.37-9.6.37-1.28.38-7.36.37-21.76.38 49.6.37-25.6.37-3.84.38 14.72.37-2.88.38-22.08.37 5.12.37 16.96.38 2.56.37-26.56.38 5.44.37 31.68.37-21.12.38-4.16.37 38.4.38-22.08.37-41.91.37.64.38 16.95.37 2.56.37 15.04.38-5.76.37-7.36.38 8.96.37-4.16.37-17.6.38 8.64.37 17.92.38-8.32.37-15.04.37.64.38 21.12.37-18.56.38-1.6.37 32.96.37-52.15.38 16.95.37 14.4.37 18.56.38-14.08.37.32.38 1.6.37-11.2.37.64.38 1.92.37 3.2.38-.64.37-53.11.37 40.63.38-4.16.37 13.44.38 5.76.37 8.32.37-26.24.38 20.48.37-40.31.38 51.19.37-49.91.37 57.91.38-30.72.37-47.99.37 44.47.38-18.23.37 14.39.38 10.24.37 4.8.37 6.4.38 30.72.37-31.04.38-8.64.37 5.76.37 1.6.38-15.04.37 61.44.38-72.64.37 44.8.37-2.88.38-4.16.37-47.03.37 50.23.38-15.04.37-62.07.38 46.71.37 15.68.37 24.96.38-12.48.37-13.12.38-38.71.37 41.59.37-4.16.38 17.6.37-76.15.38 31.04.37 61.75.37-29.76.38-1.92.37-6.4.38-9.28.37-1.92.37-7.68.38 13.12.37-18.87.37-8.32.38 43.51.37-43.83.38 81.27.37-52.16.37 8.96.38-43.51.37 32.63h.38l.37 3.52.37 16.64.38-11.84.37 2.88.38-5.12.37.96.37-9.92.38 13.44.37-17.28.37 8.32.38-13.44.37 8 .38 6.08.37-12.8.37 7.36.38-20.79.37 37.75.38 10.56.37-22.4.37 11.52.38 5.12.37-6.72.38 15.04.37-10.88.37-20.16.38 20.8.37-5.44.38-24.96.37 27.84.37-4.16.38-15.36.37 12.48.37-3.84.38 15.36.37-29.12.38 18.88.37-7.68.37 3.2.38 14.4.37 7.04.38-48.95.37 29.75.37 5.76.38-4.16.37-7.36.38 21.12.37-15.68.37 6.72.38 1.6.37-.96.37-14.08.38 29.76.37-43.52.38 31.04.37-32.63.37 28.15.38-1.92.37 1.28.38 7.36.37 14.4.37-42.56.38 29.44.37.96.38-18.24.37.32.37-5.44.38-12.8.37 40.64.37-24.64.38-23.67.37 69.11.38-69.11.37 15.67.37 54.72.38-71.67.37 63.99.38-48.32.37 31.04.37-7.68.38 12.8.37-1.28.38-36.8.37 2.56.37 24 .38 21.12.37-13.12.38 3.84.37-40 .37 17.92.38-21.44.37 34.24.37-25.6.38 4.48.37-.96.38 39.04.37-58.87.37-8.32.38 62.39.37.32.38-52.15.37 16.63.37 35.2.38 2.56.37-45.76.38 10.24.37 30.72.37-12.16.38-18.88.37-25.27.37 45.75h.38l.37-35.51.38 9.27.37 16.96.37-22.72.38 36.8.37-53.11.38 44.15.37-14.4.37 11.2.38 21.12.37-38.4.38 14.4.37 14.4.37-36.48.38 64.32.37-56.32.38 7.68.37 24.96.37-28.8.38 6.72.37 7.68.37-22.08.38-8.31.37 30.39.38-11.84.37-31.67.37 28.15.38 8 .37-21.75.38 45.75.37-31.36.37 10.88.38 1.6.37-21.76.38 18.56.37-20.48.37 17.92.38-10.88.37 5.44.37 16.96.38-1.6.37-51.51.38 50.23.37 3.2.37-13.44.38 15.36.37-9.6.38 7.04.37.32.37-26.24.38 25.28.37-20.16.38-18.55.37 33.91.37-3.2.38-10.56.37 42.24.38-13.44.37-12.16.37 43.84.38-45.76.37 8.64.37-35.51.38 5.11.37 24.32.38-8 .37-9.92.37-20.47.38 16.95.37 2.24.38 7.68.37 9.28.37-38.39.38 43.83.37-70.71.38 50.87.37 17.28.37 19.2.38 3.2.37-28.8.37-17.92.38-12.79.37 28.15.38 4.8.37 7.68.37-18.56.38 38.4.37-40.32.38 25.6.37-24 .37 6.08.38 10.56.37-21.44.38-7.04.37 15.36.37-2.56.38 3.84.37.96.38-21.75.37 28.15.37-27.51.38 28.15.37-32.95.37 28.79.38-24.31.37 28.47.38 18.88.37-6.08.37-16.96.38-39.99.37 53.11.38-30.72.37 24 .37 6.72.38-19.84.37 24 .38-13.44.37-3.84.37-17.6.38 49.92.37-44.16.37 32 .38-11.2.37-1.6.38-18.88.37 15.36.37-12.8h.38l.37 13.12.38-8 .37-3.84.37-27.51.38 51.83.37-23.04.38-18.55.37 40.95.37-42.55.38 19.51.37 10.56.38-12.8.37 8.32.37-11.52.38 8 .37 19.84.37-34.88.38 30.72.37 15.36.38-20.16.37-19.2.37 17.92.38-7.36.37-8 .38 21.12.37-6.08.37 6.72.38-6.72.37-14.4.38 22.08.37-24.32.37 37.76.38-38.72h.37l.37-32.95.38 26.55.37 36.48.38-5.12.37 8 .37-24 .38.32.37 21.12.38-13.76.37-12.8.37-4.48.38 12.48.37 10.88.38-1.6.37-4.16.37 23.04.38-7.04.37-.96.38-16.64.37-11.84.37-2.56.38 15.68.37-24.96.37 41.6.38-19.2.37-19.84.38 5.12.37-4.8.37 18.88.38-7.68.37 3.52.38-8.96.37 18.88.37-19.52.38 5.12.37-17.91.38 17.91.37-10.24.37 9.6.38 39.68.37-29.76.37-1.6.38.96.37 3.2.38-16.64.37-4.16.37 3.52.38 37.12.37-27.84.38-5.12.37-4.48.37 31.04.38-31.68.37 10.56.38 2.88.37-14.4.37 30.4.38-15.36.37-6.08.38-19.51.37 20.79.37 12.48.38-22.72.37 5.44.37 13.12.38-15.68.37 39.36.38-33.6.37 6.4.37-26.87.38 44.79.37-33.6.38 23.68.37-15.04.37 19.2.38 12.8.37-28.8.38 8.64.37-11.52.37 15.04.38-21.12.37-23.67.37 41.27.38-20.8.37 47.04.38-11.52.37-24.64.37 11.52.38-8 .37-36.15.38 18.87.37 39.36.37-.64.38-32.32.37 23.68.38-28.8.37-8.31.37 30.71.38 14.08.37 8 .38-27.52.37 16.64.37 6.4.38-41.6.37-3.2.37 22.08.38 13.44.37.32.38-45.11.37 46.39.37-36.48.38 51.84.37-22.4.38-24.96.37-16.95.37 28.47.38-4.8.37-36.15.38 39.03.37 4.8.37-2.24.38-9.28.37 31.36.37-11.84.38 5.12.37 9.6.38-4.48.37-13.12.37-33.27.38 16.31.37 33.28.38-16.64.37 7.04.37-15.68.38-7.04.37-2.24.38 52.8.37-44.8.37-14.4.38 8.96.37-5.44.38 9.92.37-13.76.37 35.84.38 8.96.37-21.12.37 33.92.38-33.6.37 26.88.38-16 .37-43.83.37 31.67.38 4.8.37-2.88.38-3.2.37-10.56.37 4.16.38 26.88.37-23.36.38 32.64.37-27.2.37-5.12.38 32 .37 9.28.37-51.2.38-14.07.37 16.95.38-4.16.37-24.63.37 57.59.38-30.08.37 2.24.38-2.24.37 46.08.37-24.32.38 7.36.37-32.64.38 8.96.37-20.47.37 50.23.38-52.79.37 4.8.38-4.48.37 19.83.37 20.16.38-17.28.37-1.92.37 15.04.38-7.04.37 2.56.38 8.96.37-9.92.37-7.36.38 20.8.37.64.38-18.24.37-9.28.37 27.2.38-11.52.37-16.32.38-3.84.37 15.04.37-.64.38 12.48.37-17.28.37 27.52.38-20.48.37-11.2.38 11.84.37 12.16.37-7.36.38-26.24.37 9.92.38-1.28.37 30.08"/><use xlink:href="#i" color="#FFAB00" transform="matrix(3.75 0 0 3.75 113.62 141.32)"/><use xlink:href="#i" color="#FFAB00" transform="matrix(3.75 0 0 3.75 220.55 7.51)"/></g><text fill="#000" stroke="none" stroke-linecap="round" stroke-linejoin="round" color="#000" font-family="KaTeX_Main" font-size="8" transform="translate(241.1 25.11)"><tspan>AVLRelaxedTopDown</tspan></text><g fill="none" stroke="currentColor" stroke-linecap="round" stroke-linejoin="round" color="#000"><path stroke="#3B75EA" stroke-dasharray="4.5,2.0,0.5,2.0,0.5,2.0" d="M205.6 22.51h29.9M28 113.81l.37 5.12.38-6.72.37-.64.38.96.37 6.4.37 9.91.38-2.56.37 4.48.38 1.6.37-56.31.37 55.35.38-30.07.37 6.4.37 48.95.38-65.91.37 49.91.38-18.87.37.32h.37l.38 15.03.37-10.24.38 3.2.37 1.28.37 12.8.38 11.52.37-39.03.38-.64.37-5.12.37 4.16.38 6.4.37 17.27h.37l.38-5.76.37-16.95.38 19.83.37-42.87.37 26.88.38-7.04.37 9.92.38-16.64.37 35.51.37-13.76.38-5.43.37 11.19.38 15.68.37-44.79.37 9.6.38 13.43.37 5.76.38-10.87.37-8.64.37 42.87.38-44.15.37-16.64.37-7.68.38 52.47.37-27.19.38 34.23.37 15.04.37-64.31.38 22.4.37-8.64.38 24.95.37-17.27.37 27.19.38-13.12.37-5.76.38-5.11.37 22.07.37-3.2.38-9.28.37-13.11.37 9.27.38-23.03.37 28.15.38-31.99.37 37.43.37-17.27.38-8.32.37 24.31.38-21.11.37 32.95.37-38.71.38 26.87.37-44.47.38 27.2.37 2.24.37-15.04.38 28.79.37-34.23.38 31.99.37-11.83.37-32.96.38 66.55.37-52.79.37 28.47.38-26.55.37-3.2.38 42.55.37-.96.37-4.16.38-30.07.37 14.72.38 19.19.37-9.28.37 30.08.38-49.59.37-2.88.38 6.72.37 23.03.37-25.59.38 14.39.37 28.48.37-35.51.38-27.84.37 9.6.38 33.91.37-23.35.37-3.84.38 14.71.37 40 .38-32 .37 2.24.37-6.72.38-13.11.37 1.92.38-3.84.37 11.51.37 22.72.38-56.31.37 46.07.38-30.39.37 2.24.37 16.63.38 12.16.37-7.36.37-20.79.38 17.59.37-43.19.38 7.04.37 55.99.37-41.59.38 15.36.37 18.23.38-18.23.37 4.47.37-1.92.38 12.16.37-28.47.38-11.84.37 8.32.37 32.95.38-22.39.37 1.92.37 31.35.38-52.47.37 15.04.38 8 .37-18.56.37-2.24.38 18.56.37 9.91.38-26.23.37 26.87.37 11.84.38-6.08.37-37.75.38 45.43.37-28.47.37.64.38-17.6.37 11.84.38 5.76.37 37.75.37-12.8.38 12.16.37-61.43.37 30.08.38 20.47.37-5.44.38-8.64.37 3.84.37-3.52.38 3.84.37 19.52.38-7.68.37-7.68.37-27.51.38 18.87.37-1.59.38 31.67.37-27.2.37-16.63.38-8.64.37 1.6.37 21.43.38-22.39.37 30.07.38-19.19.37-1.28.37-16.32.38 26.56.37-16 .38 37.11.37-37.11.37-.32.38 28.15.37-13.75.38 1.28.37 9.27.37-5.44.38-47.35.37 41.28.38-.64.37 15.67.37-16.63.38 7.35.37-2.87.37 20.47.38-30.07.37 10.87.38-10.87.37 16.31.37 1.28.38-18.23.37 13.43.38-28.15.37-.32.37 16.32.38 14.07.37-21.75.38 11.2.37-13.12.37 24.63.38-.96.37-27.19.37 12.8.38 3.2.37 9.59.38 20.16.37-40.63.37 19.51h.38l.37-4.15.38 23.03.37-22.07.37 6.39.38 6.08.37-17.59.38 16.31.37-24.31.37-7.36h.38l.37 18.88.38-8.32.37 23.35.37-28.79.38 4.8.37.32.37 18.23.38-5.76.37-4.47.38 20.47.37 3.52.37-27.19.38-3.2.37 5.76.38-23.36.37 20.16.37-13.76.38 9.92.37 24.95.38-7.68.37-14.07.37-11.52.38 30.07.37-17.27.37-1.6.38 14.39.37-6.71h.38l.37 20.47.37-22.07h.38l.37 28.79.38-44.79.37 32.31.37-10.56.38 12.16.37-34.55.38 44.79.37-.96.37-22.72.38-2.23.37 9.91.38-20.15.37-13.44.37 19.84.38 9.91.37-37.75.37 75.83.38-52.79.37-24.64.38 24 .37 7.36.37 21.43.38-18.56.37 20.16.38-35.19.37-1.92.37-11.84.38 34.87.37-37.11.38 15.36.37 18.23.37-26.87.38 37.11.37 9.28.37-8 .38-12.16.37-6.71.38 19.51.37-4.8.37-13.43.38 7.67.37-9.27.38-19.84.37 23.68.37 5.43.38 8.96.37-18.87.38-36.8.37 59.19.37-14.72.38 17.28.37 20.8.38-17.28.37-60.79.37 14.4.38 20.8.37 5.75.37 9.6.38-7.36.37-12.47.38 3.84.37 9.27.37-22.71.38 23.35.37 5.12.38-7.04.37-11.51.37-4.48.38 25.91.37-14.08.38-12.79.37 15.99.37-59.51.38 49.28.37-5.12.37 31.03.38-22.07.37 8.31.38-10.55.37-7.04.37 4.16.38-4.48.37 24.95.38-22.71.37-24 .37 19.84.38-12.8.37 8.32.38 32.95.37-7.04.37-41.91.38 32 .37-35.52.38 51.51.37-50.55.37 48.95.38-12.79.37-39.36.37 20.8.38 2.56.37 26.87.38 7.68.37-22.07.37-4.48.38 48.95.37-21.44.38-15.68.37 2.88.37-6.39.38-13.76.37 50.55.38-54.39.37 38.71.37.32.38-9.28.37-12.79.37 24.63.38-32.95.37-55.36.38 54.72.37 18.87.37-.64.38-4.16.37-5.43.38-23.04.37 40.95.37-15.04.38 27.52.37-76.15.38 33.92.37 23.03.37.32.38-17.27.37 23.03.38-7.68.37-9.59.37-16.64.38 13.12.37-9.28.37-19.84.38 32.32.37-33.6.38 72.95.37-33.28.37-9.59.38-29.12.37 24.64.38-13.44.37 3.2.37 35.19.38-13.44.37 15.04.38-7.68.37 2.56.37-24.95.38-1.6.37 16.31.37 8.96.38-19.83.37 22.39.38-15.35h.37l.37-.32.38-24 .37 24.96.38 2.87.37 6.72.37-18.87.38 19.51.37-4.16.38 12.16.37-30.39.37 23.67.38-10.87.37 11.83.38-28.15.37 26.87.37-20.79.38 8.96.37-4.8.37-5.12.38 27.19.37-36.15.38 4.16.37-.64.37 21.11.38 5.44.37.32.38-29.75.37 26.55.37 8 .38-1.28.37 7.04.38-1.92.37-21.11.37-.64.38 14.71.37-13.43.37 13.11.38 10.24.37-45.43.38 43.83.37-38.71.37 44.47.38-22.08.37 3.52.38-10.55.37 42.23.37-52.15.38 35.83.37-19.84.38-1.91.37-7.36.37.32.38 5.76.37 20.79.37-12.8.38-22.07.37 24.95.38-29.43.37 10.56.37 41.91.38-54.07.37 51.51.38-36.47.37 24.31.37-9.28.38 12.48.37-.32.38-31.03.37-.64.37 12.79.38 43.2.37-23.04.38-20.48.37 2.56.37-1.28.38-9.91.37 12.47.37-34.87.38 14.4.37 8.32.38 26.55.37-58.23.37 11.52.38 43.51.37 7.68.38-47.03.37 21.12.37 17.59.38 2.24.37-14.72.38 3.52.37 1.28.37 6.08.38-41.27.37-21.12.37 71.03.38-12.16.37-17.91.38-12.48.37 30.39.37-15.67.38 31.35.37-57.91.38 34.87.37-13.43.37 1.6.38 32.31.37-54.71.38 31.35.37 20.48.37-23.35.38 46.07.37-61.11.38 24.63.37 16.96.37-26.87.38-25.28.37 42.23.37-28.15.38-6.4.37 20.16.38 2.55.37-47.35.37 41.28.38 8.95.37-15.67.38 29.43.37-18.56.37-25.59.38 3.84.37 11.2.38 19.19.37-6.08.37-4.15.38-31.68.37 20.8.37 23.03.38-14.07.37-44.8.38 40 .37-1.92.37-1.28.38 19.51.37-10.23.38 13.75.37-13.75.37-8.96.38 20.15.37-17.59.38-12.8.37.64.37 17.6.38-7.04.37 44.47.38-28.48.37-13.43.37 50.55.38-42.24.37 6.08.37-5.12.38-15.67.37 29.11.38-18.23.37-16 .37-.32.38 9.28.37 4.8.38 7.03.37-7.99.37-36.16.38 59.51.37-74.87.38 48.64.37 22.07.37 2.24.38-9.6.37-2.88.37-21.11.38 10.88.37 13.43.38-29.11.37 45.43.37-34.87.38 39.03.37-36.47.38 40.31.37-30.71.37 9.91.38 15.04.37-29.11.38-6.72.37-.64.37 13.43.38-.64.37-10.87.38-9.6.37-3.84.37-2.24.38 29.43.37-34.55.37 34.23.38-28.47.37 26.87.38 4.8.37 9.6.37-11.84.38-37.75.37 38.07.38 4.16.37 7.04.37-5.44.38-12.79.37 3.19.38-7.67.37 22.71.37-31.35.38 40.31.37-22.08.37 28.48.38-11.52.37-17.92.38-1.92.37-10.55.37 20.15.38-22.39.37 24.63.38-12.79.37 16.63.37-47.67.38 66.55.37-19.52.38-39.67.37 37.43.37-31.67.38 16.32.37 20.15.38-23.03.37 7.35.37-12.47.38-6.72.37 23.03.37-19.83.38 13.76.37 15.99.38-17.27.37 1.59.37 13.44.38-11.2.37-12.79.38 32.31.37-29.75.37 18.23.38-15.67.37 23.67.38-.96.37-39.03.37 45.43.38-35.51.37-3.2.37 10.24.38-15.04.37 40.95.38-5.44.37 4.48.37-1.28.38-18.88.37 24.64.38-22.4.37-13.43.37 6.08.38 5.43.37 7.68.38-10.55.37 21.75.37-7.04.38 7.68.37-6.08.38 3.2.37-19.83.37-14.72.38 16.64.37-38.4.37 51.83.38-4.16.37-31.35.38 8.64.37-6.72.37 23.03.38-15.03.37 9.92.38-24 .37 31.03.37-20.79.38 23.99.37-26.87.38 14.4.37-4.16.37 4.8.38 21.43.37-22.07.37 7.03.38-13.43.37 12.47.38-5.75.37-9.6.37 2.56.38 10.88.37 3.19.38-20.15.37-.96.37 39.35.38-37.43.37 31.99.38-25.91.37 17.91.37 4.8.38 10.88.37-10.24.38-32.31.37 22.07.37 9.92.38-10.88.37-16.31.37 14.08.38-24.32.37 47.03.38-2.56.37-17.28.37-14.39.38 30.71.37-25.27.38 7.04.37-9.92.37 17.59.38 3.2.37-15.99.38 5.12.37 1.27.37-7.99.38-7.68.37-16.32.37 29.44.38-1.92.37 39.35.38-18.24.37-.64.37-9.92.38-17.91.37-42.24.38 18.24.37 37.11.37 24.32.38-26.24.37 5.76.38-33.27.37 13.44.37 12.16h.38l.37 11.51.38-8.32.37-2.55.37 4.47.38-13.75.37-6.08.37 29.75.38 16.96.37-37.11.38-13.12.37 35.83.37-52.47.38 51.51.37.64.38-18.23.37-42.56.37 42.24.38-3.2.37-24 .38 24.32.37-.96.37 7.03.38-16.95.37 31.99.37-5.44.38 1.28.37 9.28.38 4.8.37-14.08.37-39.67.38 16.64.37 26.55.38-20.47.37 19.19.37-9.92.38-9.59.37-8 .38 41.59.37-49.91.37-5.12.38 25.92.37-6.72.38 12.47.37-31.03.37 35.19.38 12.8.37-21.75.37 39.67.38-50.55.37 45.75.38-21.12.37-44.79.37 29.12.38-.32.37 9.59.38-11.51.37-7.36.37 10.24.38 13.43.37-8 .38 25.6.37-16.64.37-10.88.38 20.8.37 1.6.37-31.03.38-13.12.37 18.24.38-3.52.37-22.72.37 56.31.38-40.95.37 33.91.38-44.79.37 33.91.37 16.64.38-.64.37-41.91.38 18.87.37-23.99.37 33.27.38-36.15.37 12.16.38-25.92.37 38.39.37.32.38-7.99.37 17.91.37-20.79.38 24.95.37-18.23.38.32.37 6.71.37 4.48.38-3.52.37-5.43.38-15.68.37 4.48.37 18.55.38-4.16.37-26.23.38-4.16.37 48.31.37-31.67.38 25.59.37-35.19.37 29.11.38-9.27.37 5.11.38-11.83.37 15.67.37 6.4.38-19.83.37-5.44.38-.96.37 34.23"/><use xlink:href="#a" color="#3B75EA" transform="matrix(3.75 0 0 3.75 171.2 105.49)"/><use xlink:href="#a" color="#3B75EA" transform="matrix(3.75 0 0 3.75 220.55 22.51)"/></g><path fill="none" stroke="none" stroke-linecap="round" stroke-linejoin="round" stroke-width="0" d="M28 45.01V205M371.99 45.01H28" color="#000"/></svg>