<svg xmlns="http://www.w3.org/2000/svg" xmlns:xlink="http://www.w3.org/1999/xlink" viewBox="0 0 400 250"><path fill="none" d="M0 0h400v250H0z"/><defs><path id="g" stroke="currentColor" stroke-width=".267" d="M-1 0h2M0-1v2"/><path id="h" stroke="currentColor" stroke-width=".267" d="M-1 0h2M0-1v2m-1-2 2 2m-2 0 2-2"/><path id="d" stroke="currentColor" stroke-width=".267" d="M-1-1h2v2h-2z"/><path id="j" fill="currentColor" stroke="currentColor" stroke-width=".267" d="M-1-1h2v2h-2z"/><path id="b" stroke="currentColor" stroke-width=".267" d="m0-1.33-1.33 2h2.66z"/><path id="f" stroke="currentColor" stroke-width=".267" d="M0 1.33 1.265.411.782-1.067l-1.564-.009-.483 1.487z"/><use xlink:href="#a" id="i" fill="currentColor" stroke="none"/><use xlink:href="#b" id="c" stroke="currentColor" transform="rotate(180)"/><use xlink:href="#d" id="e" stroke="currentColor" transform="rotate(45)"/><circle id="a" cx="0" cy="0" r="1" stroke="currentColor" stroke-width=".267"/></defs><path fill="none" stroke="#333" stroke-linecap="round" stroke-linejoin="round" stroke-width=".1" d="M46.1 205V45.01" class="gridline" color="#000"/><g fill="none" stroke="none" stroke-linecap="round" stroke-linejoin="round" stroke-width="0" color="#000"><path d="M46.1 205v-7.5m0-152.49v7.5"/><text fill="#000" font-family="KaTeX_Main" font-size="8" text-anchor="middle" transform="translate(46.1 215.1)"><tspan> 1</tspan></text></g><path fill="none" stroke="#333" stroke-linecap="round" stroke-linejoin="round" stroke-width=".1" d="M82.31 205V45.01" class="gridline" color="#000"/><g fill="none" stroke="none" stroke-linecap="round" stroke-linejoin="round" stroke-width="0" color="#000"><path d="M82.31 205v-7.5m0-152.49v7.5"/><text fill="#000" font-family="KaTeX_Main" font-size="8" text-anchor="middle" transform="translate(82.31 215.1)"><tspan> 2</tspan></text></g><path fill="none" stroke="#333" stroke-linecap="round" stroke-linejoin="round" stroke-width=".1" d="M118.52 205V45.01" class="gridline" color="#000"/><g fill="none" stroke="none" stroke-linecap="round" stroke-linejoin="round" stroke-width="0" color="#000"><path d="M118.52 205v-7.5m0-152.49v7.5"/><text fill="#000" font-family="KaTeX_Main" font-size="8" text-anchor="middle" transform="translate(118.52 215.1)"><tspan> 3</tspan></text></g><path fill="none" stroke="#333" stroke-linecap="round" stroke-linejoin="round" stroke-width=".1" d="M154.73 205V45.01" class="gridline" color="#000"/><g fill="none" stroke="none" stroke-linecap="round" stroke-linejoin="round" stroke-width="0" color="#000"><path d="M154.73 205v-7.5m0-152.49v7.5"/><text fill="#000" font-family="KaTeX_Main" font-size="8" text-anchor="middle" transform="translate(154.73 215.1)"><tspan> 4</tspan></text></g><path fill="none" stroke="#333" stroke-linecap="round" stroke-linejoin="round" stroke-width=".1" d="M190.94 205V45.01" class="gridline" color="#000"/><g fill="none" stroke="none" stroke-linecap="round" stroke-linejoin="round" stroke-width="0" color="#000"><path d="M190.94 205v-7.5m0-152.49v7.5"/><text fill="#000" font-family="KaTeX_Main" font-size="8" text-anchor="middle" transform="translate(190.94 215.1)"><tspan> 5</tspan></text></g><path fill="none" stroke="#333" stroke-linecap="round" stroke-linejoin="round" stroke-width=".1" d="M227.15 205V45.01" class="gridline" color="#000"/><g fill="none" stroke="none" stroke-linecap="round" stroke-linejoin="round" stroke-width="0" color="#000"><path d="M227.15 205v-7.5m0-152.49v7.5"/><text fill="#000" font-family="KaTeX_Main" font-size="8" text-anchor="middle" transform="translate(227.15 215.1)"><tspan> 6</tspan></text></g><path fill="none" stroke="#333" stroke-linecap="round" stroke-linejoin="round" stroke-width=".1" d="M263.36 205V45.01" class="gridline" color="#000"/><g fill="none" stroke="none" stroke-linecap="round" stroke-linejoin="round" stroke-width="0" color="#000"><path d="M263.36 205v-7.5m0-152.49v7.5"/><text fill="#000" font-family="KaTeX_Main" font-size="8" text-anchor="middle" transform="translate(263.36 215.1)"><tspan> 7</tspan></text></g><path fill="none" stroke="#333" stroke-linecap="round" stroke-linejoin="round" stroke-width=".1" d="M299.57 205V45.01" class="gridline" color="#000"/><g fill="none" stroke="none" stroke-linecap="round" stroke-linejoin="round" stroke-width="0" color="#000"><path d="M299.57 205v-7.5m0-152.49v7.5"/><text fill="#000" font-family="KaTeX_Main" font-size="8" text-anchor="middle" transform="translate(299.57 215.1)"><tspan> 8</tspan></text></g><path fill="none" stroke="#333" stroke-linecap="round" stroke-linejoin="round" stroke-width=".1" d="M335.78 205V45.01" class="gridline" color="#000"/><g fill="none" stroke="none" stroke-linecap="round" stroke-linejoin="round" stroke-width="0" color="#000"><path d="M335.78 205v-7.5m0-152.49v7.5"/><text fill="#000" font-family="KaTeX_Main" font-size="8" text-anchor="middle" transform="translate(335.78 215.1)"><tspan> 9</tspan></text></g><path fill="none" stroke="#333" stroke-linecap="round" stroke-linejoin="round" stroke-width=".1" d="M371.99 205V45.01" class="gridline" color="#000"/><g fill="none" stroke="none" stroke-linecap="round" stroke-linejoin="round" stroke-width="0" color="#000"><path d="M371.99 205v-7.5m0-152.49v7.5"/><text fill="#000" font-family="KaTeX_Main" font-size="8" text-anchor="middle" transform="translate(371.99 215.1)"><tspan> 10</tspan></text></g><g fill="none" stroke="none" stroke-linecap="round" stroke-linejoin="round" stroke-width="0" color="#000"><path d="M371.99 205h-7.5"/><text fill="#000" font-family="KaTeX_Main" font-size="8" transform="translate(378.99 207.6)"><tspan>0.08</tspan></text></g><g fill="none" stroke="none" stroke-linecap="round" stroke-linejoin="round" stroke-width="0" color="#000"><path d="M371.99 187.22h-7.5"/><text fill="#000" font-family="KaTeX_Main" font-size="8" transform="translate(378.99 189.82)"><tspan>0.10</tspan></text></g><g fill="none" stroke="none" stroke-linecap="round" stroke-linejoin="round" stroke-width="0" color="#000"><path d="M371.99 169.45h-7.5"/><text fill="#000" font-family="KaTeX_Main" font-size="8" transform="translate(378.99 172.05)"><tspan>0.12</tspan></text></g><g fill="none" stroke="none" stroke-linecap="round" stroke-linejoin="round" stroke-width="0" color="#000"><path d="M371.99 151.67h-7.5"/><text fill="#000" font-family="KaTeX_Main" font-size="8" transform="translate(378.99 154.27)"><tspan>0.14</tspan></text></g><g fill="none" stroke="none" stroke-linecap="round" stroke-linejoin="round" stroke-width="0" color="#000"><path d="M371.99 133.89h-7.5"/><text fill="#000" font-family="KaTeX_Main" font-size="8" transform="translate(378.99 136.49)"><tspan>0.16</tspan></text></g><g fill="none" stroke="none" stroke-linecap="round" stroke-linejoin="round" stroke-width="0" color="#000"><path d="M371.99 116.12h-7.5"/><text fill="#000" font-family="KaTeX_Main" font-size="8" transform="translate(378.99 118.72)"><tspan>0.18</tspan></text></g><g fill="none" stroke="none" stroke-linecap="round" stroke-linejoin="round" stroke-width="0" color="#000"><path d="M371.99 98.34h-7.5"/><text fill="#000" font-family="KaTeX_Main" font-size="8" transform="translate(378.99 100.94)"><tspan>0.20</tspan></text></g><g fill="none" stroke="none" stroke-linecap="round" stroke-linejoin="round" stroke-width="0" color="#000"><path d="M371.99 80.56h-7.5"/><text fill="#000" font-family="KaTeX_Main" font-size="8" transform="translate(378.99 83.16)"><tspan>0.22</tspan></text></g><g fill="none" stroke="none" stroke-linecap="round" stroke-linejoin="round" stroke-width="0" color="#000"><path d="M371.99 62.79h-7.5"/><text fill="#000" font-family="KaTeX_Main" font-size="8" transform="translate(378.99 65.39)"><tspan>0.24</tspan></text></g><g fill="none" stroke="none" stroke-linecap="round" stroke-linejoin="round" stroke-width="0" color="#000"><path d="M371.99 45.01h-7.5"/><text fill="#000" font-family="KaTeX_Main" font-size="8" transform="translate(378.99 47.61)"><tspan>0.26</tspan></text></g><path fill="none" stroke="none" stroke-linecap="round" stroke-linejoin="round" stroke-width="0" d="M28 45.01V205M371.99 45.01H28" color="#000"/><text fill="#000" stroke="none" stroke-linecap="round" stroke-linejoin="round" stroke-width="0" color="#000" font-family="KaTeX_Main" font-size="10" text-anchor="middle" transform="rotate(-90 68.255 56.755)"><tspan font-weight="bold">Duration </tspan><tspan> in milliseconds</tspan></text><text fill="#000" stroke="none" stroke-linecap="round" stroke-linejoin="round" stroke-width="0" color="#000" font-family="KaTeX_Main" font-size="10" text-anchor="middle" transform="translate(199.99 238.25)"><tspan>Operations / 10</tspan><tspan dy="-5" font-size="8">5</tspan></text><text fill="#000" stroke="none" stroke-linecap="round" stroke-linejoin="round" color="#000" font-family="KaTeX_Main" font-size="8" transform="translate(76.8 10.11)"><tspan>AVLBottomUp</tspan></text><g fill="none" stroke="currentColor" stroke-linecap="round" stroke-linejoin="round" color="#000"><path stroke="#000" d="M41.3 7.51h29.9M28 183.2l.36-.06.36-.06.37-.06.36-.06.36-.07.36-.08.36-.1.37-.11.36-.12.36-.14.36-.15.37-.17.36-.18.36-.18.36-.19.36-.2.37-.19.36-.18.36-.18.36-.17.36-.16.37-.14.36-.13.36-.12.36-.11.36-.09.37-.08.36-.08.36-.06.36-.05.36-.05.37-.04.36-.04.36-.03.36-.02.37-.02.36-.02.36-.01.36-.01.36-.01h.37l.36-.01h.36l.36.01H45.02l.36.01H47.19l.36-.01h.37l.36-.01.36-.01.36-.01.36-.02.37-.02.36-.02.36-.03.36-.03.36-.03.37-.05.36-.04.36-.06.36-.06.36-.07.37-.07.36-.09.36-.09.36-.1.37-.11.36-.11.36-.12.36-.13.36-.14.37-.14.36-.14.36-.14.36-.15.36-.14.37-.15.36-.14.36-.14.36-.13.36-.13.37-.12.36-.11.36-.11.36-.1.36-.09.37-.09.36-.08.36-.07.36-.06.37-.05.36-.05.36-.05.36-.04.36-.03.37-.03.36-.02.36-.02.36-.01.36-.01.37-.01.36-.01H68.92l.36.01h.36l.36.01h.37l.36.01.36.01h.36l.36.01h.37l.36.01h.36l.36.01H74.35l.36.01H78.69l.37.01h1.08l.36.01h.37l.36.01h.36l.36.01h.73l.36.01h.36l.36.01H84.85l.36.01H86.66l.36-.01H88.11l.36-.01H89.56l.36-.01H91l.37-.01h1.44l.37-.01h.72l.36-.01.37-.01.36-.01.36-.01.36-.02.36-.01.37-.03.36-.02.36-.04.36-.03.36-.04.37-.05.36-.06.36-.06.36-.06.36-.08.37-.07.36-.09.36-.09.36-.1.37-.1.36-.11.36-.12.36-.11.36-.13.37-.12.36-.13.36-.13.36-.13.36-.13.37-.13.36-.13.36-.13.36-.13.36-.12.37-.13.36-.11.36-.12.36-.1.37-.11.36-.1.36-.09.36-.09.36-.08.37-.07.36-.07.36-.07.36-.06.36-.06.37-.05.36-.04.36-.04.36-.04.36-.04.37-.02.36-.03.36-.02.36-.02.36-.02.37-.02.36-.01.36-.01.36-.01.37-.01h.36l.36-.01h.36l.36-.01H120.7l.36-.01h2.53l.37-.01h1.08l.36-.01h.73l.36-.01h.72l.37-.01h1.44l.37-.01h1.08l.36.01H132.28l.37.01h1.08l.36.01h.73l.36.01H139.89l.36-.01H141.34l.36-.01H143.15l.36-.01H146.4l.37.01h2.17l.36.01H151.47l.37.01h1.81l.36.01H155.46l.36.01H156.91l.36.01h.72l.36.01H159.44l.36.01H161.98l.36.01h.36l.36-.01H165.6l.36-.01h1.08l.37-.01h1.08l.36-.01H169.94l.36-.01H171.39l.36-.01H172.84l.36-.01H174.65l.36-.01H176.46l.36-.01H185.15l.36-.01h.73l.36-.01.36-.01.36-.01.36-.01.37-.01.36-.02.36-.01.36-.02.36-.02.37-.03.36-.02.36-.03.36-.03.36-.04.37-.04.36-.04.36-.04.36-.05.37-.05.36-.06.36-.06.36-.06.36-.07.37-.07.36-.08.36-.08.36-.08.36-.09.37-.09.36-.09.36-.1.36-.1.36-.1.37-.1.36-.11.36-.11.36-.11.37-.11.36-.1.36-.11.36-.11.36-.11.37-.11.36-.1.36-.1.36-.1.36-.1.37-.09.36-.09.36-.09.36-.08.36-.07.37-.08.36-.06.36-.07.36-.06.36-.05.37-.05.36-.05.36-.04.36-.04.37-.03.36-.03.36-.03.36-.02.36-.02.37-.02.36-.01.36-.02.36-.01h.36l.37-.01h.36l.36-.01H215.2l.37.01h.72l.36.01h.73l.36.01h.36l.36.01h.36l.37.01h.36l.36.01h.36l.36.01h.37l.36.01h.72l.36.01h.37l.36.01h.72l.37.01h.72l.36.01H227.15l.36.01H234.03l.36-.01H237.65l.36-.01H242l.36.01H243.45l.36.01h.72l.36.01h.37l.36.01h.36l.36.01h.37l.36.01h.36l.36.01h.73l.36.01H250.33l.36.01h1.08l.37-.01h1.81l.36-.01H255.4l.36-.01h3.26l.36.01H260.83l.36.01H263.36l.36.01H264.81l.36-.01H271.33l.36.01h.72l.37.01h.72l.36.01h.73l.36.01h1.08l.37.01h2.17l.36.01H280.74l.36.01H282.19l.36.01h.73l.36.01h.36l.36.01h.73l.36.01H287.62l.36-.01h.37l.36-.01.36-.01.36-.01.36-.01.37-.01.36-.01.36-.02.36-.01.36-.02.37-.01.36-.02.36-.02.36-.01.37-.02.36-.02.36-.01.36-.02.36-.02.37-.01.36-.01.36-.02.36-.01.36-.01.37-.01.36-.01h.36l.36-.01.36-.01h.73l.36-.01h.73l.36-.01h1.08l.37-.01h1.44l.37-.01H305l.36.01H306.45l.36.01h.37l.36.01.36.01h.36l.36.01.37.01.36.01.36.01.36.01.36.01h.37l.36.01.36.01.36.01h.36l.37.01h.72l.36.01h.73l.36-.01h.72l.37-.01.36-.01h.36l.36-.01.36-.01h.37l.36-.01.36-.01h.36l.36-.01h.37l.36-.01h.72l.36.01h.73l.36.01h.36l.37.01.36.01.36.01.36.01.36.01.37.01.36.01h.36l.36.01.36.01h.37l.36.01h1.81l.36-.01h.36l.36-.01.37-.01.36-.01h.36l.36-.01.37-.01.36-.01.36-.01.36-.01h.36l.37-.01h.36l.36-.01h.36l.36.01h.37l.36.01h.36l.36.01.36.01.37.01.36.02.36.01.36.01.37.01.36.01.36.01.36.01h.36l.37.01h.72l.36-.01h.36l.37-.01h.36l.36-.01h.36l.36-.01H344.47l.36.01h.36l.37.01.36.02.36.01.36.02.37.02.36.01.36.02.36.02.36.02.37.01.36.02.36.01.36.01.36.01.37.01h.36l.36.01H353.16l.36-.01.37-.01.36-.01.36-.02.36-.02.36-.03.37-.03.36-.03.36-.04.36-.04.36-.04.37-.04.36-.03.36-.03.36-.01.36-.01.37.01.36.02.36.02.36.04.37.04.36.03.36.04.36.03.36.03.37.03.36.02.36.02.36.02.36.01h.37l.36.01h.36l.36.01.36.02.37.02.36.03.36.01.36-.03.36-.1.37-.16.36-.22.36-.23.36-.2.37-.09.36.07.36.28.36.52.36.66.37.46.36.1.36 2.49"/><use xlink:href="#g" transform="matrix(3.75 0 0 3.75 353.89 166.99)"/><use xlink:href="#g" transform="matrix(3.75 0 0 3.75 56.25 7.51)"/></g><text fill="#000" stroke="none" stroke-linecap="round" stroke-linejoin="round" color="#000" font-family="KaTeX_Main" font-size="8" transform="translate(76.8 25.11)"><tspan>AVLWeakTopDown</tspan></text><g fill="none" stroke="currentColor" stroke-linecap="round" stroke-linejoin="round" color="#000"><path stroke="#00C853" stroke-dasharray="4.5,2.0,0.5,2.0,0.5,2.0" d="M41.3 22.51h29.9M28 176.28l.36-.03.36-.05.37-.08.36-.09.36-.12.36-.13.36-.15.37-.18.36-.19.36-.2.36-.22.37-.23.36-.24.36-.24.36-.24.36-.23.37-.23.36-.21.36-.2.36-.19.36-.16.37-.15.36-.12.36-.11.36-.08.36-.06.37-.04.36-.02h.36l.36.02.36.04.37.05.36.06.36.08.36.08.37.08.36.08.36.08.36.07.36.06.37.05.36.03.36.03.36.01.36-.01.37-.02.36-.03.36-.04.36-.05.36-.06.37-.06.36-.06.36-.07.36-.06.37-.06.36-.07.36-.05.36-.06.36-.06.37-.06.36-.05.36-.06.36-.07.36-.07.37-.08.36-.08.36-.1.36-.1.36-.12.37-.12.36-.13.36-.15.36-.14.37-.16.36-.16.36-.16.36-.16.36-.16.37-.15.36-.15.36-.15.36-.14.36-.12.37-.12.36-.11.36-.1.36-.09.36-.08.37-.07.36-.06.36-.05.36-.05.36-.04.37-.03.36-.03.36-.03.36-.02.37-.02.36-.02.36-.01.36-.01.36-.02.37-.01h.36l.36-.01H67.11l.36.01.36.01.36.03.36.02.37.04.36.04.36.05.36.06.37.06.36.07.36.08.36.09.36.09.37.09.36.1.36.1.36.09.36.1.37.09.36.08.36.08.36.07.36.06.37.05.36.04.36.03.36.01.36.01.37-.01.36-.01.36-.03.36-.03.37-.05.36-.05.36-.05.36-.06.36-.07.37-.07.36-.06.36-.07.36-.07.36-.07.37-.06.36-.06.36-.06.36-.06.36-.05.37-.05.36-.04.36-.04.36-.04.37-.03.36-.03.36-.03.36-.02.36-.02.37-.02.36-.02.36-.01.36-.02.36-.01.37-.02.36-.01.36-.02.36-.02.36-.01.37-.02.36-.03.36-.02.36-.03.36-.03.37-.04.36-.04.36-.05.36-.05.37-.06.36-.06.36-.07.36-.07.36-.08.37-.09.36-.1.36-.1.36-.1.36-.12.37-.11.36-.13.36-.12.36-.13.36-.14.37-.13.36-.14.36-.13.36-.13.37-.13.36-.13.36-.12.36-.12.36-.11.37-.1.36-.09.36-.08.36-.08.36-.06.37-.05.36-.05.36-.03.36-.02.36-.01.37-.01.36.01.36.01.36.02.37.02.36.03.36.03.36.03.36.04.37.04.36.03.36.04.36.03.36.03.37.03.36.03.36.02.36.01.36.02h.37l.36.01h.72l.36-.01.37-.01.36-.01.36-.01.36-.02.37-.01.36-.02.36-.02.36-.02.36-.03.37-.02.36-.02.36-.03.36-.02.36-.03.37-.02.36-.03.36-.03.36-.03.36-.03.37-.03.36-.04.36-.03.36-.04.37-.03.36-.04.36-.04.36-.04.36-.03.37-.04.36-.04.36-.03.36-.03.36-.03.37-.03.36-.02.36-.01.36-.01h.73l.36.01.36.02.36.03.36.03.37.05.36.05.36.06.36.07.37.08.36.08.36.1.36.09.36.11.37.11.36.11.36.12.36.12.36.12.37.13.36.12.36.12.36.12.36.12.37.12.36.1.36.11.36.1.37.09.36.08.36.07.36.07.36.05.37.05.36.03.36.03.36.02h.73l.36-.02.36-.02.36-.04.36-.04.37-.06.36-.06.36-.07.36-.07.36-.08.37-.09.36-.09.36-.1.36-.09.37-.1.36-.1.36-.1.36-.1.36-.09.37-.1.36-.08.36-.09.36-.07.36-.08.37-.06.36-.06.36-.05.36-.05.36-.03.37-.03.36-.03.36-.02.36-.01H155.82l.36.01.36.01.37.01.36.02.36.01.36.02.36.02.37.01.36.02.36.01.36.01.36.01.37.01h.36l.36.01h.36l.37-.01h.36l.36-.01h.36l.36-.01.37-.01.36-.02.36-.01.36-.01.36-.02.37-.01.36-.02.36-.01.36-.02.36-.01.37-.02.36-.01.36-.01.36-.02.36-.01.37-.02.36-.01.36-.02.36-.02.37-.01.36-.02.36-.01.36-.02.36-.02.37-.01.36-.02.36-.02.36-.01.36-.02.37-.01.36-.01.36-.02.36-.01h.36l.37-.01.36-.01h.36l.36-.01H179.72l.36-.01h.36l.36-.01.37-.01.36-.01.36-.01.36-.02.36-.02.37-.03.36-.03.36-.03.36-.04.36-.05.37-.05.36-.05.36-.06.36-.07.37-.07.36-.07.36-.08.36-.09.36-.08.37-.1.36-.09.36-.1.36-.11.36-.11.37-.11.36-.12.36-.12.36-.12.36-.13.37-.13.36-.13.36-.14.36-.13.37-.14.36-.14.36-.14.36-.14.36-.14.37-.14.36-.13.36-.13.36-.13.36-.12.37-.12.36-.11.36-.1.36-.09.36-.08.37-.08.36-.06.36-.05.36-.03.37-.03.36-.01h.36l.36.01.36.03.37.04.36.05.36.07.36.07.36.09.37.09.36.11.36.11.36.11.36.13.37.12.36.13.36.13.36.13.36.13.37.13.36.13.36.12.36.12.37.11.36.11.36.1.36.09.36.09.37.08.36.07.36.07.36.05.36.05.37.05.36.03.36.03.36.02.36.02.37.01h.72l.36-.01.37-.02.36-.02.36-.02.36-.04.36-.03.37-.04.36-.05.36-.05.36-.06.36-.06.37-.06.36-.07.36-.07.36-.07.36-.07.37-.08.36-.07.36-.08.36-.08.36-.07.37-.07.36-.07.36-.07.36-.06.37-.06.36-.05.36-.05.36-.04.36-.03.37-.03.36-.02.36-.01.36-.01h.36l.37.01.36.01.36.02.36.03.36.03.37.04.36.04.36.04.36.05.37.05.36.05.36.05.36.05.36.05.37.05.36.04.36.05.36.04.36.03.37.03.36.03.36.02.36.02.36.01h.73l.36-.01.36-.01.36-.02.37-.03.36-.03.36-.04.36-.05.37-.05.36-.05.36-.06.36-.07.36-.07.37-.07.36-.08.36-.08.36-.09.36-.08.37-.09.36-.09.36-.09.36-.09.36-.09.37-.09.36-.09.36-.08.36-.08.37-.08.36-.08.36-.06.36-.07.36-.06.37-.05.36-.04.36-.04.36-.03.36-.03.37-.02h.36l.36-.01.36.01.36.02.37.02.36.03.36.03.36.05.37.05.36.06.36.06.36.07.36.08.37.08.36.09.36.1.36.1.36.1.37.11.36.11.36.12.36.12.36.13.37.13.36.13.36.13.36.14.36.14.37.14.36.13.36.14.36.14.37.14.36.14.36.13.36.13.36.12.37.13.36.11.36.11.36.1.36.1.37.09.36.08.36.08.36.07.36.06.37.05.36.05.36.04.36.04.37.03.36.03.36.03.36.02.36.02.37.02.36.01.36.02.36.02.36.01.37.02.36.02.36.02.36.01.36.02.37.01.36.02.36.01.36.01.36.01H277.12l.36-.01.37-.01.36-.02.36-.03.36-.03.36-.04.37-.04.36-.05.36-.06.36-.06.36-.07.37-.07.36-.08.36-.09.36-.08.36-.1.37-.1.36-.1.36-.11.36-.11.37-.12.36-.12.36-.13.36-.14.36-.14.37-.14.36-.15.36-.16.36-.16.36-.16.37-.17.36-.17.36-.18.36-.18.36-.18.37-.18.36-.18.36-.18.36-.18.36-.17.37-.16.36-.16.36-.14.36-.13.37-.12.36-.1.36-.08.36-.07.36-.04.37-.03h.36l.36.02.36.04.36.06.37.08.36.11.36.12.36.14.36.16.37.17.36.18.36.19.36.2.37.2.36.21.36.2.36.2.36.19.37.19.36.17.36.17.36.15.36.15.37.13.36.11.36.11.36.09.36.08.37.07.36.05.36.05.36.04.37.03.36.03.36.02.36.01.36.01H309.71l.36-.01.36-.02.37-.02.36-.02.36-.04.36-.04.36-.05.37-.05.36-.07.36-.07.36-.08.36-.09.37-.1.36-.11.36-.12.36-.12.37-.12.36-.14.36-.13.36-.14.36-.13.37-.14.36-.13.36-.12.36-.12.36-.12.37-.1.36-.09.36-.07.36-.07.36-.05.37-.03.36-.02h.36l.36.02.37.03.36.04.36.06.36.08.36.08.37.09.36.11.36.11.36.11.36.12.37.12.36.12.36.12.36.11.36.11.37.11.36.11.36.1.36.09.36.09.37.08.36.08.36.07.36.07.37.06.36.04.36.04.36.03.36.02h.37l.36-.02.36-.04.36-.05.36-.08.37-.09.36-.12.36-.14.36-.17.36-.18.37-.2.36-.22.36-.24.36-.25.37-.27.36-.27.36-.29.36-.29.36-.29.37-.29.36-.29.36-.28.36-.27.36-.24.37-.22.36-.19.36-.14.36-.09.36-.05.37.02.36.09.36.15.36.21.36.28.37.33.36.39.36.42.36.45.37.47.36.47.36.46.36.44.36.41.37.36.36.33.36.27.36.22.36.16.37.12.36.06.36.01.36-.02.36-.07.37-.09.36-.12.36-.13.36-.13.37-.14.36-.12.36-.1.36-.08.36-.05.37-.02h.36l.36.04.36.04.36.05.37.05.36.02.36-.02.36-.06.36-.1.37-.16.36-.19.36-.23.36-.23.37-.23.36-.2.36-.16.36-.11.36-.07.37-.05.36-.05.36-.09.36-.17.36-.29.37-.43.36-.59.36-.76.36-.94.36-1.08.37-1.17.36-1.2.36-1.14.36-.98.36-.73.37-.37.36.06.36.57.36 1.16.37 1.88.36 2.6.36 3.15.36 3.18.36 2.44.37 1.18.36-.3.36-4.04"/><use xlink:href="#h" color="#00C853" transform="matrix(3.75 0 0 3.75 67.83 168.35)"/><use xlink:href="#h" color="#00C853" transform="matrix(3.75 0 0 3.75 56.25 22.51)"/></g><text fill="#000" stroke="none" stroke-linecap="round" stroke-linejoin="round" color="#000" font-family="KaTeX_Main" font-size="8" transform="translate(241.1 10.11)"><tspan>AVLRelaxedBottomUp</tspan></text><g fill="none" stroke="currentColor" stroke-linecap="round" stroke-linejoin="round" color="#000"><path stroke="#D336C8" d="M205.6 7.51h29.9M28 183.79l.36-.06.36-.08.37-.08.36-.1.36-.11.36-.12.36-.13.37-.15.36-.16.36-.17.36-.18.37-.18.36-.2.36-.19.36-.2.36-.2.37-.19.36-.18.36-.18.36-.16.36-.15.37-.14.36-.12.36-.11.36-.1.36-.08.37-.07.36-.06.36-.06.36-.04.36-.04.37-.03.36-.03.36-.02.36-.02.37-.01.36-.01h.36l.36-.01h.73l.36.01h.36l.36.01.36.01.37.01.36.01.36.01.36.01.36.01.37.01.36.01.36.01h.36l.37.01h.72l.36-.01h.36l.37-.02.36-.02.36-.02.36-.03.36-.04.37-.04.36-.05.36-.06.36-.07.36-.07.37-.09.36-.09.36-.11.36-.11.37-.11.36-.13.36-.13.36-.13.36-.14.37-.14.36-.14.36-.14.36-.15.36-.14.37-.13.36-.14.36-.12.36-.13.36-.11.37-.12.36-.1.36-.1.36-.09.36-.08.37-.08.36-.07.36-.06.36-.06.37-.05.36-.04.36-.05.36-.03.36-.04.37-.03.36-.02.36-.03.36-.02.36-.01.37-.02.36-.01.36-.01.36-.01.36-.01.37-.01h2.53l.36.01h.73l.36.01h.36l.36.01h.37l.36.01h1.08l.37.01H81.95l.36.01h.73l.36.01h.72l.37.01H85.94l.36.01h.72l.36-.01H88.47l.36-.01h.36l.37-.01.36-.01h.36l.36-.01.36-.01.37-.01.36-.01.36-.01.36-.01.36-.01.37-.01.36-.01.36-.02.36-.01.37-.02.36-.02.36-.02.36-.02.36-.03.37-.03.36-.03.36-.04.36-.04.36-.04.37-.05.36-.06.36-.06.36-.06.36-.07.37-.08.36-.08.36-.09.36-.09.37-.1.36-.11.36-.1.36-.12.36-.11.37-.12.36-.12.36-.13.36-.12.36-.13.37-.12.36-.13.36-.12.36-.12.36-.12.37-.11.36-.11.36-.11.36-.1.37-.1.36-.09.36-.09.36-.08.36-.07.37-.08.36-.06.36-.06.36-.06.36-.05.37-.04.36-.04.36-.04.36-.03.36-.03.37-.03.36-.03.36-.02.36-.02.36-.01.37-.02.36-.01.36-.01.36-.01.37-.01h.36l.36-.01h.36l.36-.01H122.51l.36.01H123.96l.36.01h4.34l.36-.01h.73l.36-.01H131.2l.36-.01h.72l.37-.01h1.44l.37-.01H138.44l.36.01H141.7l.36.01H144.23l.36.01H146.77l.36.01H150.03l.36-.01h1.08l.37-.01h.72l.36-.01h.73l.36-.01h.36l.36-.01h.73l.36-.01h.36l.36-.01h.73l.36-.01H159.08l.36-.01H161.98l.36.01h1.81l.36.01h.72l.37.01h.72l.36.01h.73l.36.01h.36l.36.01h.36l.37.01h.72l.36.01h.37l.36.01h.72l.36.01H173.2l.36.01H176.1l.36-.01H177.91l.36-.01H179.36l.36-.01H181.17l.36-.01H184.42l.37.01h.36l.36-.01H186.96l.36-.01.36-.01h.37l.36-.01.36-.02.36-.01.36-.02.37-.02.36-.02.36-.02.36-.03.36-.03.37-.04.36-.04.36-.04.36-.05.37-.05.36-.06.36-.06.36-.06.36-.07.37-.07.36-.07.36-.08.36-.09.36-.08.37-.09.36-.09.36-.1.36-.09.36-.1.37-.1.36-.11.36-.1.36-.1.37-.11.36-.1.36-.1.36-.11.36-.1.37-.1.36-.09.36-.1.36-.09.36-.09.37-.09.36-.08.36-.08.36-.07.36-.08.37-.06.36-.07.36-.06.36-.05.36-.06.37-.04.36-.05.36-.04.36-.04.37-.03.36-.03.36-.03.36-.02.36-.02.37-.02.36-.02.36-.01.36-.01.36-.02.37-.01h.36l.36-.01.36-.01h.36l.37-.01h.72l.36-.01H216.29l.36-.01H218.1l.36-.01H219.91l.36-.01H221.72l.36-.01H223.53l.36-.01H225.34l.36-.01H227.51l.37-.01H233.31l.36.01h.72l.37.01h.72l.36.01h.73l.36.01h.72l.36.01h.73l.36.01H240.55l.36.01H252.14l.36-.01H254.31l.36-.01H256.48l.36-.01H259.38l.36.01H260.83l.36.01h.72l.37.01h.72l.36.01h.36l.37.01h.72l.36.01h.36l.37.01h.72l.36.01h.36l.37.01h.72l.36.01h.37l.36.01h.36l.36.01h.36l.37.01h.36l.36.01h.36l.36.01h.37l.36.01.36.01h.36l.36.01h.37l.36.01h.72l.36.01H278.21l.36-.01h.72l.37-.01h.36l.36-.01h.36l.36-.01.37-.01h.36l.36-.01.36-.01h.36l.37-.01h.72l.36-.01h.73l.36-.01h5.79l.36-.01h.37l.36-.01h.36l.36-.01h.37l.36-.01h.36l.36-.01h.36l.37-.01h.36l.36-.01h.72l.37-.01h1.44l.37-.01h2.53l.36-.01H302.83l.36-.01h.36l.37-.01h.36l.36-.01.36-.01h.36l.37-.01.36-.01h.36l.36-.01.37-.01h.36l.36-.01h.72l.37-.01h1.08l.36.01h.73l.36.01h.36l.36.01.37.01.36.01.36.01.36.01h.36l.37.01.36.01.36.01h.36l.37.01h.36l.36.01H318.4l.36-.01h.36l.37-.01.36-.01h.36l.36-.01.36-.01h.37l.36-.01.36-.01h.36l.37-.01h1.44l.37.01h.72l.36.01.36.01h.37l.36.01h.36l.36.01H329.99l.36-.01.36-.01h.36l.37-.01.36-.01.36-.01h.36l.36-.01h.73l.36-.01.36.01h.36l.37.01h.36l.36.01.36.02.36.01.37.01.36.02.36.01.36.02.37.01.36.02.36.01.36.01.36.01.37.01h.36l.36.01H341.94l.36-.01h.36l.36-.01h.36l.37-.01.36-.01.36-.01.36-.01.36-.01.37-.02h.36l.36-.01.36-.01H347.73l.36.01h.36l.37.02.36.01.36.02.36.02.36.01.37.02.36.02.36.01.36.01.36.01.37.01h.36l.36-.01h.36l.37-.02.36-.01.36-.02.36-.03.36-.02.37-.03.36-.04.36-.03.36-.03.36-.04.37-.02.36-.03.36-.01h.36l.36.01.37.01.36.03.36.04.36.05.37.04.36.05.36.04.36.04.36.04.37.02.36.02.36.01h.72l.37-.02.36-.02.36-.01.36-.01.36.01.37.03.36.04.36.04.36.01.36-.02.37-.06.36-.08.36-.07.36.02.37.13.36.25.36.31.36.28.36.05.37-.52.36-1.55.36-1.61"/><use xlink:href="#i" color="#D336C8" transform="matrix(3.75 0 0 3.75 125.4 171.54)"/><use xlink:href="#i" color="#D336C8" transform="matrix(3.75 0 0 3.75 220.55 7.51)"/></g><text fill="#000" stroke="none" stroke-linecap="round" stroke-linejoin="round" color="#000" font-family="KaTeX_Main" font-size="8" transform="translate(241.1 25.11)"><tspan>RedBlackRelaxedTopDown</tspan></text><g fill="none" stroke="currentColor" stroke-linecap="round" stroke-linejoin="round" color="#000"><path stroke="#FFAB00" stroke-dasharray="4.5,2.0,0.5,2.0,0.5,2.0" d="M205.6 22.51h29.9M28 117.95l.36-.39.36-.39.37-.4.36-.39.36-.39.36-.38.36-.35.37-.33.36-.3.36-.27.36-.23.37-.18.36-.14.36-.1.36-.05.36-.02.37.02.36.05.36.07.36.09.36.1.37.11.36.1.36.09.36.08.36.07.37.04.36.01.36-.01.36-.05.36-.06.37-.1.36-.13.36-.14.36-.17.37-.19.36-.2.36-.22.36-.22.36-.23.37-.24.36-.23.36-.23.36-.23.36-.22.37-.22.36-.21.36-.21.36-.21.36-.2.37-.2.36-.2.36-.19.36-.2.37-.2.36-.21.36-.2.36-.2.36-.21.37-.21.36-.21.36-.2.36-.2.36-.2.37-.19.36-.18.36-.18.36-.16.36-.15.37-.13.36-.12.36-.11.36-.08.37-.07.36-.05.36-.03.36-.01h.36l.37.02.36.04.36.05.36.07.36.07.37.09.36.09.36.11.36.11.36.11.37.11.36.12.36.12.36.12.36.11.37.11.36.1.36.1.36.09.37.08.36.08.36.06.36.05.36.04.37.03.36.02.36.01.36-.01.36-.02.37-.03.36-.04.36-.05.36-.06.36-.07.37-.08.36-.1.36-.1.36-.11.37-.12.36-.13.36-.14.36-.14.36-.16.37-.16.36-.16.36-.17.36-.17.36-.18.37-.18.36-.18.36-.17.36-.18.36-.17.37-.16.36-.16.36-.16.36-.14.36-.13.37-.13.36-.11.36-.11.36-.09.37-.09.36-.07.36-.07.36-.05.36-.06.37-.04.36-.04.36-.04.36-.04.36-.04.37-.04.36-.04.36-.05.36-.05.36-.06.37-.07.36-.07.36-.08.36-.09.37-.1.36-.1.36-.11.36-.12.36-.13.37-.13.36-.13.36-.14.36-.14.36-.14.37-.15.36-.14.36-.15.36-.14.36-.14.37-.15.36-.14.36-.14.36-.14.36-.13.37-.13.36-.14.36-.12.36-.13.37-.12.36-.13.36-.11.36-.12.36-.11.37-.1.36-.1.36-.1.36-.08.36-.09.37-.07.36-.06.36-.06.36-.04.36-.04.37-.02.36-.01h.36l.36.01.37.02.36.03.36.04.36.06.36.06.37.07.36.08.36.08.36.09.36.09.37.1.36.1.36.1.36.09.36.1.37.1.36.09.36.09.36.09.37.08.36.08.36.08.36.07.36.08.37.07.36.06.36.07.36.07.36.07.37.06.36.07.36.07.36.08.36.07.37.08.36.08.36.08.36.08.36.08.37.08.36.08.36.07.36.08.37.06.36.07.36.06.36.05.36.04.37.04.36.02.36.02.36.01h.36l.37-.01.36-.02.36-.02.36-.04.36-.04.37-.04.36-.06.36-.05.36-.06.37-.06.36-.06.36-.06.36-.07.36-.06.37-.05.36-.06.36-.05.36-.05.36-.05.37-.05.36-.04.36-.04.36-.04.36-.04.37-.03.36-.04.36-.04.36-.04.36-.04.37-.04.36-.05.36-.05.36-.06.37-.06.36-.07.36-.08.36-.08.36-.08.37-.1.36-.1.36-.1.36-.11.36-.12.37-.13.36-.12.36-.14.36-.13.36-.14.37-.15.36-.15.36-.15.36-.15.37-.15.36-.16.36-.15.36-.16.36-.15.37-.16.36-.15.36-.15.36-.15.36-.15.37-.15.36-.14.36-.13.36-.13.36-.12.37-.12.36-.11.36-.1.36-.09.36-.08.37-.08.36-.06.36-.05.36-.04.37-.03.36-.01.36-.01.36.01.36.02.37.03.36.04.36.05.36.05.36.07.37.07.36.08.36.08.36.09.36.08.37.09.36.09.36.08.36.08.37.08.36.07.36.07.36.05.36.05.37.04.36.03.36.02.36.01h.36l.37-.01.36-.02.36-.03.36-.04.36-.05.37-.06.36-.07.36-.08.36-.08.37-.1.36-.1.36-.1.36-.11.36-.12.37-.12.36-.13.36-.12.36-.14.36-.13.37-.13.36-.14.36-.14.36-.13.36-.14.37-.13.36-.13.36-.13.36-.13.36-.12.37-.12.36-.11.36-.11.36-.1.37-.1.36-.09.36-.08.36-.08.36-.07.37-.06.36-.06.36-.05.36-.04.36-.04.37-.03.36-.03.36-.02.36-.02.36-.01.37-.02.36-.01.36-.01.36-.02.37-.01.36-.02.36-.02.36-.02.36-.03.37-.03.36-.04.36-.04.36-.05.36-.06.37-.06.36-.07.36-.07.36-.08.36-.09.37-.09.36-.1.36-.1.36-.11.36-.11.37-.12.36-.12.36-.12.36-.13.37-.12.36-.13.36-.12.36-.13.36-.13.37-.12.36-.12.36-.12.36-.11.36-.11.37-.11.36-.1.36-.09.36-.09.36-.07.37-.07.36-.06.36-.05.36-.03.37-.03.36-.01h.36l.36.02.36.03.37.04.36.06.36.08.36.09.36.11.37.12.36.13.36.15.36.16.36.17.37.19.36.19.36.2.36.21.37.21.36.21.36.22.36.21.36.22.37.21.36.2.36.2.36.19.36.18.37.17.36.16.36.15.36.13.36.12.37.1.36.09.36.08.36.06.36.05.37.03.36.02.36.01.36-.01.37-.01.36-.03.36-.04.36-.04.36-.06.37-.06.36-.07.36-.07.36-.07.36-.08.37-.08.36-.08.36-.08.36-.08.36-.08.37-.07.36-.07.36-.06.36-.05.37-.05.36-.04.36-.03.36-.01.36-.01.37.01.36.02.36.03.36.04.36.06.37.08.36.09.36.1.36.11.36.13.37.14.36.15.36.16.36.16.36.18.37.17.36.19.36.18.36.18.37.19.36.17.36.18.36.16.36.16.37.15.36.13.36.12.36.11.36.1.37.08.36.06.36.05.36.03.36.01h.37l.36-.02.36-.03.36-.05.37-.06.36-.08.36-.09.36-.1.36-.11.37-.12.36-.13.36-.14.36-.15.36-.15.37-.16.36-.16.36-.17.36-.17.36-.17.37-.18.36-.17.36-.18.36-.17.36-.18.37-.17.36-.16.36-.16.36-.16.37-.15.36-.14.36-.14.36-.12.36-.12.37-.1.36-.1.36-.08.36-.06.36-.06.37-.03.36-.03.36-.01.36.01.36.02.37.04.36.05.36.06.36.08.37.09.36.1.36.11.36.12.36.12.37.13.36.13.36.14.36.13.36.14.37.13.36.12.36.12.36.12.36.1.37.1.36.08.36.08.36.06.37.05.36.03.36.03.36.01h.36l.37-.02.36-.02.36-.04.36-.05.36-.06.37-.07.36-.08.36-.09.36-.1.36-.11.37-.12.36-.12.36-.13.36-.13.36-.14.37-.14.36-.15.36-.15.36-.15.37-.15.36-.15.36-.16.36-.15.36-.15.37-.15.36-.15.36-.14.36-.13.36-.14.37-.12.36-.12.36-.11.36-.1.36-.09.37-.09.36-.07.36-.07.36-.06.37-.05.36-.05.36-.03.36-.03.36-.03.37-.02.36-.01.36-.02.36-.01.36-.01.37-.02.36-.02.36-.02.36-.02.36-.03.37-.04.36-.05.36-.05.36-.06.36-.07.37-.08.36-.09.36-.09.36-.1.37-.12.36-.12.36-.12.36-.13.36-.14.37-.14.36-.15.36-.15.36-.15.36-.16.37-.16.36-.16.36-.16.36-.16.36-.17.37-.16.36-.16.36-.17.36-.16.37-.16.36-.16.36-.16.36-.15.36-.15.37-.14.36-.14.36-.13.36-.11.36-.11.37-.1.36-.08.36-.06.36-.05.36-.02h.37l.36.02.36.04.36.07.36.1.37.12.36.15.36.18.36.2.37.23.36.25.36.28.36.29.36.31.37.32.36.33.36.34.36.35.36.34.37.34.36.33.36.32.36.31.36.29.37.27.36.25.36.24.36.21.37.18.36.16.36.14.36.12.36.1.37.07.36.05.36.04.36.01.36.01.37-.02.36-.02.36-.04.36-.05.36-.06.37-.07.36-.07.36-.09.36-.09.37-.1.36-.11.36-.12.36-.13.36-.14.37-.14.36-.15.36-.16.36-.16.36-.18.37-.18.36-.18.36-.18.36-.19.36-.18.37-.19.36-.17.36-.17.36-.16.36-.16.37-.13.36-.12.36-.11.36-.09.37-.07.36-.05.36-.03.36-.02h.36l.37.02.36.03.36.04.36.05.36.06.37.05.36.06.36.05.36.04.36.03.37.02h.36l.36-.01.36-.04.37-.05.36-.08.36-.1.36-.11.36-.13.37-.15.36-.16.36-.18.36-.18.36-.18.37-.19.36-.19.36-.18.36-.18.36-.18.37-.16.36-.16.36-.15.36-.13.36-.14.37-.12.36-.12.36-.12.36-.12.37-.13.36-.13.36-.14.36-.15.36-.16.37-.18.36-.2.36-.21.36-.22.36-.24.37-.26.36-.26.36-.26.36-.26.36-.26.37-.25.36-.23.36-.21.36-.18.37-.13.36-.09.36-.04.36.02.36.09.37.15.36.22.36.28.36.36.36.41.37.47.36.51.36.55.36.56.36.58.37.57.36.56.36.52.36.48.36.44.37.37.36.32.36.25.36.19.37.12.36.06.36.01.36-.04.36-.09.37-.12.36-.16.36-.18.36-.2.36-.21.37-.21.36-.21.36-.21.36-.18.36-.17.37-.15.36-.12.36-.09.36-.07.37-.04.36-.04.36-.02.36-.04.36-.05.37-.07.36-.12.36-.15.36-.21.36-.25.37-.29.36-.33.36-.37.36-.38.36-.41.37-.41.36-.42.36-.43.36-.44.37-.46.36-.48.36-.52.36-.53.36-.55.37-.56.36-.52.36-.46.36-.34.36-.19.37.01.36.25.36.51.36.77.36.98.37 1.13.36 1.18.36 1.11.36.95.36.71.37.45.36.23.36.07.36-.07.37-.23.36-.54.36-.99.36-1.45.36-1.64.37-1.26.36-.54.36-1.52"/><use xlink:href="#j" color="#FFAB00" transform="matrix(3.75 0 0 3.75 182.98 91.91)"/><use xlink:href="#j" color="#FFAB00" transform="matrix(3.75 0 0 3.75 220.55 22.51)"/></g><path fill="none" stroke="none" stroke-linecap="round" stroke-linejoin="round" stroke-width="0" d="M28 45.01V205M371.99 45.01H28" color="#000"/></svg>