<svg xmlns="http://www.w3.org/2000/svg" xmlns:xlink="http://www.w3.org/1999/xlink" viewBox="0 0 400 250"><path fill="none" d="M0 0h400v250H0z"/><defs><path id="d" stroke="currentColor" stroke-width=".267" d="M-1-1h2v2h-2z"/><path id="g" fill="currentColor" stroke="currentColor" stroke-width=".267" d="M-1-1h2v2h-2z"/><path id="b" stroke="currentColor" stroke-width=".267" d="m0-1.33-1.33 2h2.66z"/><path id="f" stroke="currentColor" stroke-width=".267" d="M0 1.33 1.265.411.782-1.067l-1.564-.009-.483 1.487z"/><use xlink:href="#b" id="c" stroke="currentColor" transform="rotate(180)"/><use xlink:href="#d" id="e" stroke="currentColor" transform="rotate(45)"/><circle id="a" cx="0" cy="0" r="1" stroke="currentColor" stroke-width=".267"/></defs><path fill="none" stroke="#000" stroke-linecap="round" stroke-linejoin="round" stroke-width=".1" d="M35.48 205V45.01" class="gridline" color="#000"/><g fill="none" stroke="none" stroke-linecap="round" stroke-linejoin="round" stroke-width="0" color="#000"><path d="M35.48 205v-7.5m0-152.49v7.5"/><text fill="#000" font-family="KaTeX_Main" font-size="10" text-anchor="middle" transform="translate(35.48 215.75)"><tspan> 1</tspan></text></g><path fill="none" stroke="#000" stroke-linecap="round" stroke-linejoin="round" stroke-width=".1" d="M72.87 205V45.01" class="gridline" color="#000"/><g fill="none" stroke="none" stroke-linecap="round" stroke-linejoin="round" stroke-width="0" color="#000"><path d="M72.87 205v-7.5m0-152.49v7.5"/><text fill="#000" font-family="KaTeX_Main" font-size="10" text-anchor="middle" transform="translate(72.87 215.75)"><tspan> 2</tspan></text></g><path fill="none" stroke="#000" stroke-linecap="round" stroke-linejoin="round" stroke-width=".1" d="M110.26 205V45.01" class="gridline" color="#000"/><g fill="none" stroke="none" stroke-linecap="round" stroke-linejoin="round" stroke-width="0" color="#000"><path d="M110.26 205v-7.5m0-152.49v7.5"/><text fill="#000" font-family="KaTeX_Main" font-size="10" text-anchor="middle" transform="translate(110.26 215.75)"><tspan> 3</tspan></text></g><path fill="none" stroke="#000" stroke-linecap="round" stroke-linejoin="round" stroke-width=".1" d="M147.65 205V45.01" class="gridline" color="#000"/><g fill="none" stroke="none" stroke-linecap="round" stroke-linejoin="round" stroke-width="0" color="#000"><path d="M147.65 205v-7.5m0-152.49v7.5"/><text fill="#000" font-family="KaTeX_Main" font-size="10" text-anchor="middle" transform="translate(147.65 215.75)"><tspan> 4</tspan></text></g><path fill="none" stroke="#000" stroke-linecap="round" stroke-linejoin="round" stroke-width=".1" d="M185.04 205V45.01" class="gridline" color="#000"/><g fill="none" stroke="none" stroke-linecap="round" stroke-linejoin="round" stroke-width="0" color="#000"><path d="M185.04 205v-7.5m0-152.49v7.5"/><text fill="#000" font-family="KaTeX_Main" font-size="10" text-anchor="middle" transform="translate(185.04 215.75)"><tspan> 5</tspan></text></g><path fill="none" stroke="#000" stroke-linecap="round" stroke-linejoin="round" stroke-width=".1" d="M222.43 205V45.01" class="gridline" color="#000"/><g fill="none" stroke="none" stroke-linecap="round" stroke-linejoin="round" stroke-width="0" color="#000"><path d="M222.43 205v-7.5m0-152.49v7.5"/><text fill="#000" font-family="KaTeX_Main" font-size="10" text-anchor="middle" transform="translate(222.43 215.75)"><tspan> 6</tspan></text></g><path fill="none" stroke="#000" stroke-linecap="round" stroke-linejoin="round" stroke-width=".1" d="M259.82 205V45.01" class="gridline" color="#000"/><g fill="none" stroke="none" stroke-linecap="round" stroke-linejoin="round" stroke-width="0" color="#000"><path d="M259.82 205v-7.5m0-152.49v7.5"/><text fill="#000" font-family="KaTeX_Main" font-size="10" text-anchor="middle" transform="translate(259.82 215.75)"><tspan> 7</tspan></text></g><path fill="none" stroke="#000" stroke-linecap="round" stroke-linejoin="round" stroke-width=".1" d="M297.21 205V45.01" class="gridline" color="#000"/><g fill="none" stroke="none" stroke-linecap="round" stroke-linejoin="round" stroke-width="0" color="#000"><path d="M297.21 205v-7.5m0-152.49v7.5"/><text fill="#000" font-family="KaTeX_Main" font-size="10" text-anchor="middle" transform="translate(297.21 215.75)"><tspan> 8</tspan></text></g><path fill="none" stroke="#000" stroke-linecap="round" stroke-linejoin="round" stroke-width=".1" d="M334.6 205V45.01" class="gridline" color="#000"/><g fill="none" stroke="none" stroke-linecap="round" stroke-linejoin="round" stroke-width="0" color="#000"><path d="M334.6 205v-7.5m0-152.49v7.5"/><text fill="#000" font-family="KaTeX_Main" font-size="10" text-anchor="middle" transform="translate(334.6 215.75)"><tspan> 9</tspan></text></g><path fill="none" stroke="#000" stroke-linecap="round" stroke-linejoin="round" stroke-width=".1" d="M371.99 205V45.01" class="gridline" color="#000"/><g fill="none" stroke="none" stroke-linecap="round" stroke-linejoin="round" stroke-width="0" color="#000"><path d="M371.99 205v-7.5m0-152.49v7.5"/><text fill="#000" font-family="KaTeX_Main" font-size="10" text-anchor="middle" transform="translate(371.99 215.75)"><tspan> 10</tspan></text></g><g fill="none" stroke="none" stroke-linecap="round" stroke-linejoin="round" stroke-width="0" color="#000"><path d="M371.99 205h-7.5"/><text fill="#000" font-family="KaTeX_Main" font-size="10" transform="translate(378.99 208.25)"><tspan>0.88</tspan></text></g><g fill="none" stroke="none" stroke-linecap="round" stroke-linejoin="round" stroke-width="0" color="#000"><path d="M371.99 178.33h-7.5"/><text fill="#000" font-family="KaTeX_Main" font-size="10" transform="translate(378.99 181.58)"><tspan>0.89</tspan></text></g><g fill="none" stroke="none" stroke-linecap="round" stroke-linejoin="round" stroke-width="0" color="#000"><path d="M371.99 151.67h-7.5"/><text fill="#000" font-family="KaTeX_Main" font-size="10" transform="translate(378.99 154.92)"><tspan>0.90</tspan></text></g><g fill="none" stroke="none" stroke-linecap="round" stroke-linejoin="round" stroke-width="0" color="#000"><path d="M371.99 125h-7.5"/><text fill="#000" font-family="KaTeX_Main" font-size="10" transform="translate(378.99 128.25)"><tspan>0.91</tspan></text></g><g fill="none" stroke="none" stroke-linecap="round" stroke-linejoin="round" stroke-width="0" color="#000"><path d="M371.99 98.34h-7.5"/><text fill="#000" font-family="KaTeX_Main" font-size="10" transform="translate(378.99 101.59)"><tspan>0.92</tspan></text></g><g fill="none" stroke="none" stroke-linecap="round" stroke-linejoin="round" stroke-width="0" color="#000"><path d="M371.99 71.67h-7.5"/><text fill="#000" font-family="KaTeX_Main" font-size="10" transform="translate(378.99 74.92)"><tspan>0.93</tspan></text></g><g fill="none" stroke="none" stroke-linecap="round" stroke-linejoin="round" stroke-width="0" color="#000"><path d="M371.99 45.01h-7.5"/><text fill="#000" font-family="KaTeX_Main" font-size="10" transform="translate(378.99 48.26)"><tspan>0.94</tspan></text></g><path fill="none" stroke="none" stroke-linecap="round" stroke-linejoin="round" stroke-width="0" d="M28 45.01V205M371.99 45.01H28" color="#000"/><text fill="#000" stroke="none" stroke-linecap="round" stroke-linejoin="round" stroke-width="0" color="#000" font-family="KaTeX_Main" font-size="10" text-anchor="middle" transform="rotate(-90 68.255 56.755)"><tspan font-weight="bold">AveragePathLength </tspan><tspan> / log</tspan><tspan dy="3" font-size="8">2</tspan><tspan dy="-3">(Size)</tspan></text><text fill="#000" stroke="none" stroke-linecap="round" stroke-linejoin="round" stroke-width="0" color="#000" font-family="KaTeX_Main" font-size="10" text-anchor="middle" transform="translate(199.99 238.25)"><tspan>Operations × 10</tspan><tspan dy="-5" font-size="8">5</tspan></text><text fill="#000" stroke="none" stroke-linecap="round" stroke-linejoin="round" color="#000" font-family="KaTeX_Main" font-size="8" transform="translate(71.2 10.11)"><tspan>RedBlackBottomUp</tspan></text><g fill="none" stroke="currentColor" stroke-linecap="round" stroke-linejoin="round" color="#000"><path stroke="#F44336" d="M35.7 7.51h29.9M28 114.9l.37-5.81.38 55.99.37-6 .38-1.62.37-5.57.37-9.12.38 6.29.37-5.09.38-1.41.37-4.89.37 20.39.38-4.85.37-1.24.37-4.79.38 5.87.37-4.49.38-1.78.37-4.32.37-8.79.38-5.59.37-2.28.38-5.71.37 4.27.37-5.19.38-2.11.37-5.02.38 15.04.37-4.93.37-1.9.38-4.87.37 4.12.37-4.6.38-1.95.37-4.46.38 37.9.37-4.62.37-1.8.38-5.09.37 3.76.38-4.32.37-1.7.37-4.2.38 14 .37-4.15.38-1.54.37-4.12.37 3.63.38-3.9.37-6.3.38-1.3.37-3.81.37-7.13.38-4.74.37-2.46.37-4.58.38 2.62.37-4.54.38-2.05.37-4.83.37 11.78.38-4.29.37-2.03.38-4.16.37 2.61.37-4.27.38-1.8.37-4.01.38 28.4.37-4.04.37-2.84.38-3.92.37 2.46.37-3.9.38-1.69.37-3.92.38 10.59.37-3.7.37-1.69.38-3.6.37 2.43.38-3.96.37-1.5.37-3.49.38 56.26.37-3.72.38-1.92.37-3.62.37 2.1.38-3.6.37-1.63.38-5.23.37-3.35.37 9.36.38-3.42.37-1.53.37-3.25.38 1.9.37-3.21.38-1.49.37-3.11.37 22.81.38-3.58.37-1.46.38-3.1.37 1.92.37-3.07.38-1.53.37-2.97.38 8.57.37-3.03.37-1.33.38-2.88.37 1.19.37-2.86.38-1.29.37-2.77.38-4.65.37-3.63.37-1.89.38-3.38.37 1.21.38-3.34.37-2.13.37-3.25.38 7.33.37-3.29.38-1.73.37-3.16.37 1.15.38-3.13.37-1.68.38-3.04.37 18.69.37-4.5.38-3.06.37-1.58.37-3.05.38 1.28.37-3.09.38-1.5.37-2.9.37 6.8.38-2.89.37-1.44.38-3.13.37 1.29.37-2.82.38-1.38.37-2.73.38 38.51.37-2.86.37-1.48.38-2.86.37 1.16.37-3.38.38-1.41.37-2.72.38 6.28.37-2.7.37-1.37.38-2.77.37 1.17.38-2.65.37-1.31.37-2.56.38 15.79.37-2.59.38-1.32.37-2.58.37 1.14.38-2.63.37-1.25.38-2.48.37 5.91.37-2.45.38-1.23.37-3.56.37-2.37.38 1.11.37-2.33.38-1.17.37-2.42.37-3.93.38-2.8.37-1.7.38-2.77.37.4.37-2.72.38-1.59.37-2.72.38 5.14.37-2.66.37-1.65.38-2.63.37.65.37-2.59.38-1.49.37-3.06.38 13.69.37-2.55.37-1.52.38-2.53.37.58.38-2.49.37-1.43.37-2.49.38 4.9.37-2.44.38-1.62.37-2.4.37.67.38-2.37.37-1.34.38-2.44.37 29.25.37-2.4.38-1.43.37-2.39.37-3.34.38.67.37-2.34.38-1.36.37-2.3.37 4.63.38-2.39.37-1.29.38-2.29.37.7.37-2.24.38-1.46.37-2.21.38 12.22.37-2.25.37-1.24.38-2.28.37.69.37-2.16.38-1.23.37-2.14.38 4.44.37-2.57.37-1.17.38-2.12.37.7.38-2.07.37-1.22.37-2.04.38 55.24.37-2.23.38-1.28.37-2.37.37.56.38-2.15.37-1.26.38-2.12.37 4.11.37-2.19.38-1.21.37-2.11.37.57.38-2.06.37-2.88.38-1.16.37-2 .37 10.88.38-2.02.37-1.24.38-1.99.37.56.37-2 .38-1.13.37-1.94.38 3.75.37-1.94.37-1.13.38-1.91.37.58.37-1.98.38-1.07.37-1.86.38 23.5.37-1.92.37-1.49.38-1.89.37.53.38-1.91.37-1.07.37-1.85.38 3.67.37-1.86.38-1.07.37-1.82.37.55.38-1.99.37-1.02.38-1.79.37 9.92.37-1.8.38-1.1.37-1.77.37.55.38-1.79.37-1 .38-1.73.37-2.48.37 3.61.38-1.75.37-.95.38-1.71.37.49.37-1.69.38-.92.37-1.7.38-2.7.37-2.18.37-1.24.38-2 .37.21.37-1.97.38-1.22.37-2.02.38 3.17.37-1.97.37-1.19.38-1.93.37-.08.38-1.9.37-1.16.37-1.91.38 8.84.37-1.95.38-1.16.37-1.87.37.24.38-1.85.37-1.13.38-1.99.37 3.08.37-1.85.38-1.11.37-1.81.37.22.38-1.79.37-1.08.38-1.79.37 19.49.37-2.47.38-1.78.37-1.11.38-1.8.37.27.37-1.75.38-1.15.37-1.73.38 2.93.37-1.72.37-1.06.38-1.87.37.28.37-1.69.38-1.05.37-1.69.38 8.12.37-1.68.37-1.03.38-1.7.37.29.38-1.65.37-1.32.37-1.64.38 2.86.37-1.63.38-.99.37-1.68.37.3.38-1.6.37-.99.38-1.59.37 38.12.37-1.66.38-1.03.37-1.67.37.23.38-1.63.37-1.07.38-1.63.37 2.71.37-1.61.38-.99.37-2.2.38-1.6.37.26.37-1.6.38-.97.37-1.62.38 7.57.37-1.57.37-.98.38-1.56.37.27.37-1.68.38-.94.37-1.55.38 2.66.37-1.53.37-.97.38-1.52.37.28.38-1.52.37-.91.37-1.76.38 16.73.37-1.52.38-.94.37-1.5.37.26.38-1.54.37-.9.38-1.5.37 2.58.37-1.47.38-1.01.37-1.47.37.28.38-1.47.37-.86.38-1.49.37 7.09.37-1.45.38-.88.37-1.43.38.28.37-1.96.37-1.41.38-.87.37-1.38.38 2.5.37-1.44.37-.84.38-1.37.37.27.37-1.37.38-.94.37-1.35.38-2.09.37-1.63.37-1.06.38-1.59.37-.02.38-1.58.37-1.06.37-1.57.38 2.2.37-1.81.38-1.03.37-1.54.37.03.38-1.54.37-1.06.38-1.52.37 6.42.37-1.55.38-1 .37-1.51.37-.06.38-1.5.37-1 .38-1.49.37 2.15.37-1.54.38-.97.37-1.47.38.06.37-1.47.37-1.97.38-.93.37-1.45.38 14.43.37-1.48.37-.94.38-1.51.37.07.37-1.47.38-.92.37-1.44.38 1.99.37-1.44.37-.91.38-1.44.37.08.38-1.46.37-.9.37-1.4.38 6.05.37-1.41.38-.89.37-1.63.37.1.38-1.41.37-.87.37-1.38.38 2.02.37-1.38.38-.86.37-1.38.37.11.38-1.46.37-.85.38-1.35.37 29.07.37-1.39.38-.88.37-1.42.38.06.37-1.38.37-.87.38-1.36.37-1.81.38 1.98.37-1.34.37-.88.38-1.34.37.04.37-1.32.38-.85.37-1.33.38 5.7.37-1.31.37-.95.38-1.31.37.08.38-1.3.37-.83.37-1.34.38 1.94.37-1.28.38-.84.37-1.28.37-.11.38-1.27.37-.81.37-1.28.38 12.86.37-1.27.38-.86.37-1.27.37.08.38-1.25.37-.81.38-1.35.37 1.89.37-1.24.38-.81.37-1.24.38.06.37-1.22.37-.79.38-1.23.37 5.42.38-1.22.37-1.65.37-.77.38-1.23.37.12.37-1.21.38-.8.37-1.2.38 1.87.37-1.21.37-.75.38-1.29.37.13.38-1.18.37-.75.37-1.18.38 53.56.37-1.3.38-.81.37-1.26.37.05.38-1.24.37-1 .37-1.23.38 1.76.37-1.24.38-.8.37-1.25.37.06.38-1.21.37-.8.38-1.2.37 5.1.37-1.29.38-.78.37-1.22.38.07.37-1.19.37-.8.38-1.19.37 1.73.38-1.19.37-.76.37-1.57.38-1.16.37.07.37-1.17.38-.74.37-1.15.38 11.48.37-1.16.37-.77.38-1.15.37.07.38-1.24.37-.74.37-1.14.38 1.67.37-1.14.38-.77.37-1.12.37.07.38-1.14.37-.72.37-1.12.38 4.68.37-1.12.38-.73.37-1.11.37.08.38-1.15.37-.71.38-1.09.37 1.64.37-1.09.38-.79.37-1.09.38.09.37-1.1.37-.69.38-1.08.37 23.41.38-1.11.37-.73.37-1.09.38.06.37-1.47.37-1.09.38-.7.37-1.1.38 1.61.37-1.12.37-.69.38-1.08.37.06.38-1.07.37-.68.37-1.15.38 4.64.37-1.08.38-.68.37-1.06.37.04.38-1.06.37-.67.37-1.06.38 1.59.37-1.23.38-.66.37-1.04.37.08.38-1.04.37-.65.38-1.07.37 10.48.37-1.05.38-.66.37-1.03h.38l.37-1.03.37-.65.38-1.03.37 1.55.38-1.06.37-.64.37-1.01.38.07.37-1.01.37-.63.38-1.36.37-1 .38 4.43.37-.99.37-.64.38-1.03.37.09.38-.98.37-.64.37-.98.38 1.44.37-.97.38-.63.37-.98.37.09.38-.96.37-.65.37-.96.38-1.43.37-1.13.38-.77.37-1.29.37-.07.38-1.11.37-.78.38-1.11.37 1.3.37-1.1.38-.76.37-1.12.38-.05.37-1.1.37-.82.38-1.1.37 4.1.38-1.08.37-.75.37-1.12.38-.05.37-1.08.37-.75.38-1.07.37-1.41.38 1.33.37-1.07.37-.74.38-1.06.37-.03.38-1.1.37-.72.37-1.06.38 9.46.37-1.06.38-.79.37-1.06.37-.04.38-1.06.37-.71.37-1.08.38 1.31.37-1.05.38-.71.37-1.04.37-.03.38-1.19.37-.69.38-1.04.37 3.96.37-1.03.38-.73.37-1.02.38-.02.37-1.03.37-.69.38-1.08.37 1.29.38-1.01.37-.69.37-1 .38-.02.37-1.03.37-.67.38-1.01.37 19.51.38-1.02.37-1.32.37-.69.38-1 .37-.05.38-1 .37-.71.37-.99.38 1.25.37-1 .38-.67.37-.99.37-.1.38-.98.37-.68.37-.97.38 3.8.37-1.01.38-.67.37-.97.37-.03.38-.97.37-.81.38-.96.37 1.24.37-.97.38-.65.37-.95.38-.05.37-.96.37-.65.38-.94.37 8.73.38-1.03.37-.64.37-.95.38-.03.37-.95.37-.66.38-.94.37 1.22.38-.95.37-.64.37-.93.38-1.23.37-.01.38-.94.37-.62.37-.93.38 3.64.37-.93.38-.61.37-.93.37-.01.38-.99.37-.6.37-.92.38 1.2.37-.91.38-.6.37-.94h.37l.38-.92.37-.59.38-.9.37 37.1.37-.94.38-.63.37-.95.38-.03.37-.96.37-.63.38-.93.37 1.15.38-.92.37-.62.37-.99.38-.03.37-.93.37-.61.38-.91.37 3.48.38-.91.37-.61.37-.92.38-.03.37-1.19.38-.9.37-.6.37-.91.38 1.14.37-.89.38-.63.37-.89.37-.03.38-.88.37-.6.37-.95.38 8.08.37-.88.38-.61.37-.88.37-.05.38-.88.37-.59.38-.89.37 1.13.37-.87.38-.73.37-.87.38-.03.37-.86.37-.58.38-.89.37 3.39.38-.86.37-.59.37-.86.38-.07.37-.86.37-.57.38-.86.37 1.11.38-.84.37-.6.37-.85.38-.02.37-.84.38-.56.37-1.11.37-.84.38 16.73.37-.87.38-.57.37-.88.37-.01.38-.85.37-.57.37-.85.38 1.1.37-.91.38-.56.37-.85h.37l.38-.84.37-.58.38-.84.37 3.29"/><use xlink:href="#e" color="#F44336" transform="matrix(3.75 0 0 3.75 342.45 105.89)"/><use xlink:href="#e" color="#F44336" transform="matrix(3.75 0 0 3.75 50.65 7.51)"/></g><text fill="#000" stroke="none" stroke-linecap="round" stroke-linejoin="round" color="#000" font-family="KaTeX_Main" font-size="8" transform="translate(71.2 25.11)"><tspan>RedBlackTopDown</tspan></text><g fill="none" stroke="currentColor" stroke-linecap="round" stroke-linejoin="round" color="#000"><path stroke="#3B75EA" stroke-dasharray="1.0,2.0" d="M35.7 22.51h29.9M28 182.49l.37-6.6.38 22.8.37-2.71.38-2.43.37-4.28.37-7.82.38 1.92.37-5.63.38-3.54.37-7 .37 8.79.38-4.95.37-3.23.37-6.42.38.07.37-6.45.38-4.44.37-7.26.37 48.45.38-2.64.37-1.44.38-4.15.37 1.24.37-3.86.38-2.73.37-5.08.38 5.86.37-3.32.37-2.47.38-4.61.37-.27.37-4.51.38-3.6.37-5.48.38 16.16.37-2.67.37-2.16.38-4.1.37-.34.38-3.66.37-3.21.37-4.71.38 3.68.37-3.25.38-3.01.37-4.36.37-1.58.38-5.38.37-5.08.38-3.81.37-6.14.37 76.06.38-1.77.37-.79.37-2.82.38 1.48.37-2.68.38-1.73.37-3.95.37 5.76.38-2.43.37-1.64.38-3.42.37.16.37-3.24.38-2.54.37-4.22.38 13.25.37-2.04.37-1.92.38-2.89.37.13.37-2.76.38-2.31.37-3.76.38 3.58.37-2.55.37-2.22.38-3.42.37-1.1.38-3.22.37-2.98.37-4.1.38 25.6.37-1.3.38-1.24.37-2.14.37-.13.38-2.03.37-1.99.38-3.73.37-3.61.37 4.51.38-2.69.37-1.76.37-3.53.38-.01.37-3.31.38-2.54.37-4.04.37 10.78.38-2.48.37-1.59.38-3.06.37-.11.37-2.93.38-2.41.37-3.62.38 2.84.37-2.77.37-2.23.38-3.83.37-.9.37-3.28.38-2.89.37-3.95.38 46.82.37-1.11.37-.71.38-1.77.37.34.38-1.68.37-1.58.37-2.32.38 2.74.37-1.55.38-1.36.37-2.27.37-.46.38-2.11.37-2.03.38-2.75.37-3.39.37 8.93.38-1.9.37-1.21.37-2.51.38.19.37-2.53.38-1.81.37-3.04.37 2.79.38-2.32.37-1.92.38-2.87.37-.52.37-2.83.38-2.33.37-3.38.38 18.64.37-1.44.37-1.06.38-2.02.37-.01.37-2.28.38-1.59.37-2.49.38 2.19.37-1.83.37-1.62.38-2.35.37-.66.38-2.34.37-2.1.37-2.85.38 6.33.37-1.59.38-1.47.37-2.12.37-.71.38-2.14.37-1.97.38-2.59.37 1.11.37-1.97.38-3.1.37-1.82.37-2.98.38-.67.37-2.91.38-2.34.37-3.45.37 72.69.38-.84.37-.33.38-1.35.37.56.37-1.29.38-.84.37-1.81.38 2.69.37-1.28.37-.82.38-1.7.37.03.37-1.66.38-1.34.37-2.38.38 6.51.37-1.06.37-.76.38-1.52.37-.08.38-1.47.37-1.26.37-1.96.38 1.68.37-1.52.38-1.2.37-1.85.37-.59.38-1.8.37-1.69.38-2.29.37 13.31.37-.78.38-.7.37-1.22.37-2.16.38.36.37-1.6.38-1.13.37-2.05.37 2.19.38-1.51.37-1.1.38-1.97.37-.2.37-1.92.38-1.63.37-2.32.38 5.71.37-1.35.37-1.05.38-1.84.37-.25.37-1.74.38-1.48.37-2.17.38 1.14.37-1.63.37-1.42.38-2.07.37-.74.38-2.01.37-1.86.37-2.41.38 26.63.37-.68.38-.55.37-1.19.37.03.38-1.04.37-.98.38-1.45.37 1.34.37-.98.38-.93.37-1.41.37-.46.38-1.36.37-2.16.38-1.28.37-2.14.37 5.54.38-1.26.37-.9.38-1.64.37-.04.37-1.62.38-1.24.37-2.08.38 1.52.37-1.53.37-1.22.38-1.9.37-.5.37-1.9.38-1.58.37-2.24.38 11.23.37-1.02.37-.98.38-1.36.37-.16.38-1.34.37-1.15.37-1.74.38 1.18.37-1.27.38-1.14.37-1.63.37-.6.38-1.68.37-1.47.38-1.94.37 3.84.37-1.16.38-1.11.37-1.49.37-.64.38-1.47.37-1.43.38-2.19.37-2.11.37 1.27.38-1.74.37-1.36.38-2.06.37-.67.37-2.02.38-1.71.37-2.34.38 46.64.37-.7.37-.34.38-.95.37.28.37-.93.38-.73.37-1.25.38 1.57.37-.9.37-.68.38-1.21.37-.29.38-1.17.37-1.01.37-1.49.38 4.09.37-.83.38-.64.37-1.09.37-.19.38-1.08.37-1.06.38-1.38.37.95.37-1.04.38-.95.37-1.34.37-.58.38-1.3.37-1.29.38-1.61.37 8.71.37-.94.38-.91.37-.56.38-1.23.37.09.37-1.24.38-.87.37-1.5.38 1.34.37-1.15.37-.87.38-1.52.37-.27.37-1.43.38-1.17.37-1.71.38 3.7.37-1.05.37-.84.38-1.35.37-.33.38-1.48.37-1.12.37-1.6.38.77.37-1.25.38-1.11.37-1.58.37-.66.38-1.53.37-1.39.38-1.81.37 18.23.37-.57.38-.49.37-.87.37-.13.38-.88.37-.78.38-1.12.37.8.37-.81.38-1.09.37-1.05.38-1.35.37-.16.37-1.31.38-1.04.37-1.63.38 3.7.37-.98.37-.74.38-1.27.37-.26.37-1.23.38-1 .37-1.52.38.9.37-1.19.37-1.02.38-1.46.37-.53.38-1.42.37-1.27.37-1.83.38 7.83.37-.81.38-.69.37-1.09.37-.3.38-1.05.37-.96.38-1.33.37.67.37-1.02.38-1 .37-1.28.37-.59.38-1.25.37-1.2.38-1.53.37 2.58.37-.93.38-.92.37-1.2.38-1.74.37-.3.37-1.41.38-1.15.37-1.67.38.76.37-1.4.37-1.12.38-1.63.37-.61.37-1.6.38-1.44.37-1.83.38 69.24.37-.37.37-.16.38-.64.37.29.38-.59.37-.43.37-.84.38 1.21.37-.68.38-.41.37-.81.37-.01.38-.78.37-.69.38-1.02.37 3.05.37-.5.38-.41.37-.8.37-.05.38-.71.37-.66.38-.95.37.73.37-.7.38-.65.37-.93.38-.35.37-.91.37-1.39.38-.85.37-1.36.38 7.53.37-.6.37-.4.38-.83.37.11.37-.83.38-.61.37-1.05.38.98.37-.78.37-.61.38-1.01.37-.17.38-1.03.37-.83.37-1.22.38 2.81.37-.72.38-.71.37-.93.37-.21.38-.93.37-.81.37-1.15.38.58.37-.89.38-.81.37-1.1.37-.49.38-1.15.37-1.02.38-1.3.37 13.92.37-.38.38-.36.37-.59.38-.06.37-.59.37-.57.38-.8.37-1.24.38 1.12.37-.78.37-.53.38-.98.37-.1.37-.97.38-.75.37-1.19.38 2.85.37-.77.37-.51.38-.92.37-.13.38-.9.37-.74.37-1.13.38.69.37-.88.38-.73.37-1.08.37-.49.38-1.05.37-.93.37-1.27.38 6.04.37-.62.38-.49.37-.79.37-.2.38-.79.37-.7.38-1.04.37.53.37-.76.38-.7.37-.95.38-.47.37-.93.37-.91.38-1.15.37 2 .38-.92.37-.87.37-.67.38-1.09.37-.24.37-1.07.38-.9.37-1.27.38.58.37-1.04.37-.86.38-1.29.37-.48.38-1.21.37-1.07.37-1.41.38 26.66.37-.38.38-.26.37-.59.37.07.38-.57.37-.56.37-.76.38.8.37-.54.38-.45.37-.76.37-.15.38-.72.37-.66.38-.92.37 2.19.37-.48.38-.44.37-.69.38-.2.37-.67.37-.66.38-.86.37.43.38-.65.37-.63.37-1.04.38-1.02.37-.2.37-1.01.38-.8.37-1.21.38 5.83.37-.59.37-.42.38-.77.37-.04.38-.81.37-.59.37-.95.38.69.37-.74.38-.61.37-.92.37-.27.38-.9.37-.79.37-1.18.38 2.11.37-.67.38-.59.37-.86.37-.29.38-.86.37-.77.38-1.03.37.35.37-.82.38-.81.37-.99.38-.51.37-.99.37-.93.38-1.18.37 11.05.38-.4.37-.39.37-.58.38-.76.37-.16.37-.74.38-.55.37-.91.38.76.37-.73.37-.54.38-.89.37-.2.38-.87.37-.78.37-1.03.38 2.15.37-.67.38-.53.37-.84.37-.24.38-.82.37-.72.37-.99.38.42.37-.88.38-.7.37-.96.37-.43.38-.95.37-.9.38-1.12.37 4.76.37-.57.38-.52.37-.73.38-.32.37-.72.37-.7.38-.88.37.29.38-.73.37-.67.37-.87.38-.48.37-.86.37-1.22.38-.82.37-1.18.38 2.03.37-.82.37-.65.38-1 .37-.31.38-.98.37-.81.37-1.14.38.31.37-.94.38-.81.37-1.11.37-.5.38-1.12.37-.97.37-1.25.38 44.54.37-.27.38-.17.37-.5.37.1.38-.41.37-.33.38-.58.37.67.37-.39.38-.33.37-.56.38-.1.37-.59.37-.49.38-.7.37 1.86.38-.36.37-.32.37-.53.38-.13.37-.51.37-.49.38-.66.37-.99.38.72.37-.63.37-.48.38-.79.37-.17.38-.77.37-.63.37-.95.38 4.82.37-.43.38-.35.37-.58.37-.02.38-.58.37-.46.37-.75.38.58.37-.56.38-.47.37-.71.37-.29.38-.69.37-.61.38-.86.37 1.75.37-.51.38-.47.37-.66.38-.24.37-.65.37-.62.38-.84.37.3.38-.64.37-.6.37-.79.38-.43.37-.77.37-.76.38-.93.37 9.2.38-.29.37-.59.37-.27.38-.59.37.04.38-.57.37-.45.37-.72.38.65.37-.56.38-.43.37-.74.37-.14.38-.69.37-.58.37-.84.38 1.81.37-.54.38-.42.37-.67.37-.16.38-.67.37-.64.38-.79.37.37.37-.63.38-.56.37-.8.38-.33.37-.77.37-.71.38-.91.37 3.99.38-.48.37-.4.37-.6.38-.21.37-.58.37-.56.38-.72.37.25.38-.57.37-.54.37-.86.38-.83.37-.23.38-.83.37-.68.37-.96.38 1.69.37-.65.38-.54.37-.79.37-.26.38-.82.37-.67.37-.92.38.29.37-.77.38-.68.37-.9.37-.42.38-.9.37-.81.38-1.03.37 18.34.37-.3.38-.24.37-.44.38-.02.37-.46.37-.37.38-.57.37.45.38-.42.37-.41.37-.55.38-.19.37-.55.37-.52.38-.68.37 1.44.38-.38.37-.38.37-.52.38-.21.37-.66.38-.64.37-.5.37-.78.38.5.37-.64.38-.49.37-.76.37-.23.38-.76.37-.63.37-.91.38 3.98.37-.46.38-.35.37-.58.37-.13.38-.58.37-.48.38-.72.37.39.37-.64.38-.47.37-.69.38-.27.37-.68.37-.62.38-.82.37 1.38.38-.53.37-.47.37-.65.38-.33.37-.64.37-.6.38-.78.37.14.38-.64.37-.6.37-.75.38-.46.37-.75.38-.87.37-.87.37-.99.38 8.43.37-.44.38-.33.37-.59.37-.06.38-.57.37-.46.37-.7.38.42.37-.55.38-.45.37-.69.37-.22.38-.66.37-.6.38-.8.37 1.44"/><use xlink:href="#g" color="#3B75EA" transform="matrix(3.75 0 0 3.75 56.04 171.01)"/><use xlink:href="#g" color="#3B75EA" transform="matrix(3.75 0 0 3.75 50.65 22.51)"/></g><text fill="#000" stroke="none" stroke-linecap="round" stroke-linejoin="round" color="#000" font-family="KaTeX_Main" font-size="8" transform="translate(241.1 10.11)"><tspan>RedBlackRelaxedBottomUp</tspan></text><g fill="none" stroke="currentColor" stroke-linecap="round" stroke-linejoin="round" color="#000"><path stroke="#00C853" d="M205.6 7.51h29.9M28 114.9l.37-5.81.38 55.99.37-6 .38-1.62.37-5.57.37-9.12.38 6.29.37-5.09.38-1.41.37-4.89.37 20.39.38-4.85.37-1.24.37-4.79.38 5.87.37-4.49.38-1.78.37-4.32.37-8.79.38-5.59.37-2.28.38-5.71.37 4.27.37-5.19.38-2.11.37-5.02.38 15.04.37-4.93.37-1.9.38-4.87.37 4.12.37-4.6.38-1.95.37-4.46.38 37.9.37-4.62.37-1.8.38-5.09.37 3.76.38-4.32.37-1.7.37-4.2.38 14 .37-4.15.38-1.54.37-4.12.37 3.63.38-3.9.37-6.3.38-1.3.37-3.81.37-7.13.38-4.74.37-2.46.37-4.58.38 2.62.37-4.54.38-2.05.37-4.83.37 11.78.38-4.29.37-2.03.38-4.16.37 2.61.37-4.27.38-1.8.37-4.01.38 28.4.37-4.04.37-2.84.38-3.92.37 2.46.37-3.9.38-1.69.37-3.92.38 10.59.37-3.7.37-1.69.38-3.6.37 2.43.38-3.96.37-1.5.37-3.49.38 56.26.37-3.72.38-1.92.37-3.62.37 2.1.38-3.6.37-1.63.38-5.23.37-3.35.37 9.36.38-3.42.37-1.53.37-3.25.38 1.9.37-3.21.38-1.49.37-3.11.37 22.81.38-3.58.37-1.46.38-3.1.37 1.92.37-3.07.38-1.53.37-2.97.38 8.57.37-3.03.37-1.33.38-2.88.37 1.19.37-2.86.38-1.29.37-2.77.38-4.65.37-3.63.37-1.89.38-3.38.37 1.21.38-3.34.37-2.13.37-3.25.38 7.33.37-3.29.38-1.73.37-3.16.37 1.15.38-3.13.37-1.68.38-3.04.37 18.69.37-4.5.38-3.06.37-1.58.37-3.05.38 1.28.37-3.09.38-1.5.37-2.9.37 6.8.38-2.89.37-1.44.38-3.13.37 1.29.37-2.82.38-1.38.37-2.73.38 38.51.37-2.86.37-1.48.38-2.86.37 1.16.37-3.38.38-1.41.37-2.72.38 6.28.37-2.7.37-1.37.38-2.77.37 1.17.38-2.65.37-1.31.37-2.56.38 15.79.37-2.59.38-1.32.37-2.58.37 1.14.38-2.63.37-1.25.38-2.48.37 5.91.37-2.45.38-1.23.37-3.56.37-2.37.38 1.11.37-2.33.38-1.17.37-2.42.37-3.93.38-2.8.37-1.7.38-2.77.37.4.37-2.72.38-1.59.37-2.72.38 5.14.37-2.66.37-1.65.38-2.63.37.65.37-2.59.38-1.49.37-3.06.38 13.69.37-2.55.37-1.52.38-2.53.37.58.38-2.49.37-1.43.37-2.49.38 4.9.37-2.44.38-1.62.37-2.4.37.67.38-2.37.37-1.34.38-2.44.37 29.25.37-2.4.38-1.43.37-2.39.37-3.34.38.67.37-2.34.38-1.36.37-2.3.37 4.63.38-2.39.37-1.29.38-2.29.37.7.37-2.24.38-1.46.37-2.21.38 12.22.37-2.25.37-1.24.38-2.28.37.69.37-2.16.38-1.23.37-2.14.38 4.44.37-2.57.37-1.17.38-2.12.37.7.38-2.07.37-1.22.37-2.04.38 55.24.37-2.23.38-1.28.37-2.37.37.56.38-2.15.37-1.26.38-2.12.37 4.11.37-2.19.38-1.21.37-2.11.37.57.38-2.06.37-2.88.38-1.16.37-2 .37 10.88.38-2.02.37-1.24.38-1.99.37.56.37-2 .38-1.13.37-1.94.38 3.75.37-1.94.37-1.13.38-1.91.37.58.37-1.98.38-1.07.37-1.86.38 23.5.37-1.92.37-1.49.38-1.89.37.53.38-1.91.37-1.07.37-1.85.38 3.67.37-1.86.38-1.07.37-1.82.37.55.38-1.99.37-1.02.38-1.79.37 9.92.37-1.8.38-1.1.37-1.77.37.55.38-1.79.37-1 .38-1.73.37-2.48.37 3.61.38-1.75.37-.95.38-1.71.37.49.37-1.69.38-.92.37-1.7.38-2.7.37-2.18.37-1.24.38-2 .37.21.37-1.97.38-1.22.37-2.02.38 3.17.37-1.97.37-1.19.38-1.93.37-.08.38-1.9.37-1.16.37-1.91.38 8.84.37-1.95.38-1.16.37-1.87.37.24.38-1.85.37-1.13.38-1.99.37 3.08.37-1.85.38-1.11.37-1.81.37.22.38-1.79.37-1.08.38-1.79.37 19.49.37-2.47.38-1.78.37-1.11.38-1.8.37.27.37-1.75.38-1.15.37-1.73.38 2.93.37-1.72.37-1.06.38-1.87.37.28.37-1.69.38-1.05.37-1.69.38 8.12.37-1.68.37-1.03.38-1.7.37.29.38-1.65.37-1.32.37-1.64.38 2.86.37-1.63.38-.99.37-1.68.37.3.38-1.6.37-.99.38-1.59.37 38.12.37-1.66.38-1.03.37-1.67.37.23.38-1.63.37-1.07.38-1.63.37 2.71.37-1.61.38-.99.37-2.2.38-1.6.37.26.37-1.6.38-.97.37-1.62.38 7.57.37-1.57.37-.98.38-1.56.37.27.37-1.68.38-.94.37-1.55.38 2.66.37-1.53.37-.97.38-1.52.37.28.38-1.52.37-.91.37-1.76.38 16.73.37-1.52.38-.94.37-1.5.37.26.38-1.54.37-.9.38-1.5.37 2.58.37-1.47.38-1.01.37-1.47.37.28.38-1.47.37-.86.38-1.49.37 7.09.37-1.45.38-.88.37-1.43.38.28.37-1.96.37-1.41.38-.87.37-1.38.38 2.5.37-1.44.37-.84.38-1.37.37.27.37-1.37.38-.94.37-1.35.38-2.09.37-1.63.37-1.06.38-1.59.37-.02.38-1.58.37-1.06.37-1.57.38 2.2.37-1.81.38-1.03.37-1.54.37.03.38-1.54.37-1.06.38-1.52.37 6.42.37-1.55.38-1 .37-1.51.37-.06.38-1.5.37-1 .38-1.49.37 2.15.37-1.54.38-.97.37-1.47.38.06.37-1.47.37-1.97.38-.93.37-1.45.38 14.43.37-1.48.37-.94.38-1.51.37.07.37-1.47.38-.92.37-1.44.38 1.99.37-1.44.37-.91.38-1.44.37.08.38-1.46.37-.9.37-1.4.38 6.05.37-1.41.38-.89.37-1.63.37.1.38-1.41.37-.87.37-1.38.38 2.02.37-1.38.38-.86.37-1.38.37.11.38-1.46.37-.85.38-1.35.37 29.07.37-1.39.38-.88.37-1.42.38.06.37-1.38.37-.87.38-1.36.37-1.81.38 1.98.37-1.34.37-.88.38-1.34.37.04.37-1.32.38-.85.37-1.33.38 5.7.37-1.31.37-.95.38-1.31.37.08.38-1.3.37-.83.37-1.34.38 1.94.37-1.28.38-.84.37-1.28.37-.11.38-1.27.37-.81.37-1.28.38 12.86.37-1.27.38-.86.37-1.27.37.08.38-1.25.37-.81.38-1.35.37 1.89.37-1.24.38-.81.37-1.24.38.06.37-1.22.37-.79.38-1.23.37 5.42.38-1.22.37-1.65.37-.77.38-1.23.37.12.37-1.21.38-.8.37-1.2.38 1.87.37-1.21.37-.75.38-1.29.37.13.38-1.18.37-.75.37-1.18.38 53.56.37-1.3.38-.81.37-1.26.37.05.38-1.24.37-1 .37-1.23.38 1.76.37-1.24.38-.8.37-1.25.37.06.38-1.21.37-.8.38-1.2.37 5.1.37-1.29.38-.78.37-1.22.38.07.37-1.19.37-.8.38-1.19.37 1.73.38-1.19.37-.76.37-1.57.38-1.16.37.07.37-1.17.38-.74.37-1.15.38 11.48.37-1.16.37-.77.38-1.15.37.07.38-1.24.37-.74.37-1.14.38 1.67.37-1.14.38-.77.37-1.12.37.07.38-1.14.37-.72.37-1.12.38 4.68.37-1.12.38-.73.37-1.11.37.08.38-1.15.37-.71.38-1.09.37 1.64.37-1.09.38-.79.37-1.09.38.09.37-1.1.37-.69.38-1.08.37 23.41.38-1.11.37-.73.37-1.09.38.06.37-1.47.37-1.09.38-.7.37-1.1.38 1.61.37-1.12.37-.69.38-1.08.37.06.38-1.07.37-.68.37-1.15.38 4.64.37-1.08.38-.68.37-1.06.37.04.38-1.06.37-.67.37-1.06.38 1.59.37-1.23.38-.66.37-1.04.37.08.38-1.04.37-.65.38-1.07.37 10.48.37-1.05.38-.66.37-1.03h.38l.37-1.03.37-.65.38-1.03.37 1.55.38-1.06.37-.64.37-1.01.38.07.37-1.01.37-.63.38-1.36.37-1 .38 4.43.37-.99.37-.64.38-1.03.37.09.38-.98.37-.64.37-.98.38 1.44.37-.97.38-.63.37-.98.37.09.38-.96.37-.65.37-.96.38-1.43.37-1.13.38-.77.37-1.29.37-.07.38-1.11.37-.78.38-1.11.37 1.3.37-1.1.38-.76.37-1.12.38-.05.37-1.1.37-.82.38-1.1.37 4.1.38-1.08.37-.75.37-1.12.38-.05.37-1.08.37-.75.38-1.07.37-1.41.38 1.33.37-1.07.37-.74.38-1.06.37-.03.38-1.1.37-.72.37-1.06.38 9.46.37-1.06.38-.79.37-1.06.37-.04.38-1.06.37-.71.37-1.08.38 1.31.37-1.05.38-.71.37-1.04.37-.03.38-1.19.37-.69.38-1.04.37 3.96.37-1.03.38-.73.37-1.02.38-.02.37-1.03.37-.69.38-1.08.37 1.29.38-1.01.37-.69.37-1 .38-.02.37-1.03.37-.67.38-1.01.37 19.51.38-1.02.37-1.32.37-.69.38-1 .37-.05.38-1 .37-.71.37-.99.38 1.25.37-1 .38-.67.37-.99.37-.1.38-.98.37-.68.37-.97.38 3.8.37-1.01.38-.67.37-.97.37-.03.38-.97.37-.81.38-.96.37 1.24.37-.97.38-.65.37-.95.38-.05.37-.96.37-.65.38-.94.37 8.73.38-1.03.37-.64.37-.95.38-.03.37-.95.37-.66.38-.94.37 1.22.38-.95.37-.64.37-.93.38-1.23.37-.01.38-.94.37-.62.37-.93.38 3.64.37-.93.38-.61.37-.93.37-.01.38-.99.37-.6.37-.92.38 1.2.37-.91.38-.6.37-.94h.37l.38-.92.37-.59.38-.9.37 37.1.37-.94.38-.63.37-.95.38-.03.37-.96.37-.63.38-.93.37 1.15.38-.92.37-.62.37-.99.38-.03.37-.93.37-.61.38-.91.37 3.48.38-.91.37-.61.37-.92.38-.03.37-1.19.38-.9.37-.6.37-.91.38 1.14.37-.89.38-.63.37-.89.37-.03.38-.88.37-.6.37-.95.38 8.08.37-.88.38-.61.37-.88.37-.05.38-.88.37-.59.38-.89.37 1.13.37-.87.38-.73.37-.87.38-.03.37-.86.37-.58.38-.89.37 3.39.38-.86.37-.59.37-.86.38-.07.37-.86.37-.57.38-.86.37 1.11.38-.84.37-.6.37-.85.38-.02.37-.84.38-.56.37-1.11.37-.84.38 16.73.37-.87.38-.57.37-.88.37-.01.38-.85.37-.57.37-.85.38 1.1.37-.91.38-.56.37-.85h.37l.38-.84.37-.58.38-.84.37 3.29"/><use xlink:href="#b" color="#00C853" transform="matrix(3.75 0 0 3.75 113.62 87.42)"/><use xlink:href="#b" color="#00C853" transform="matrix(3.75 0 0 3.75 220.55 7.51)"/></g><text fill="#000" stroke="none" stroke-linecap="round" stroke-linejoin="round" color="#000" font-family="KaTeX_Main" font-size="8" transform="translate(241.1 25.11)"><tspan>RedBlackRelaxedTopDown</tspan></text><g fill="none" stroke="currentColor" stroke-linecap="round" stroke-linejoin="round" color="#000"><path stroke="#FFAB00" stroke-dasharray="4.5,2.0,0.5,2.0,0.5,2.0" d="M205.6 22.51h29.9M28 182.49l.37-6.6.38 22.8.37-2.71.38-2.43.37-4.28.37-7.82.38 1.92.37-5.63.38-3.54.37-7 .37 8.79.38-4.95.37-3.23.37-6.42.38.07.37-6.45.38-4.44.37-7.26.37 48.45.38-2.64.37-1.44.38-4.15.37 1.24.37-3.86.38-2.73.37-5.08.38 5.86.37-3.32.37-2.47.38-4.61.37-.27.37-4.51.38-3.6.37-5.48.38 16.16.37-2.67.37-2.16.38-4.1.37-.34.38-3.66.37-3.21.37-4.71.38 3.68.37-3.25.38-3.01.37-4.36.37-1.58.38-5.38.37-5.08.38-3.81.37-6.14.37 76.06.38-1.77.37-.79.37-2.82.38 1.48.37-2.68.38-1.73.37-3.95.37 5.76.38-2.43.37-1.64.38-3.42.37.16.37-3.24.38-2.54.37-4.22.38 13.25.37-2.04.37-1.92.38-2.89.37.13.37-2.76.38-2.31.37-3.76.38 3.58.37-2.55.37-2.22.38-3.42.37-1.1.38-3.22.37-2.98.37-4.1.38 25.6.37-1.3.38-1.24.37-2.14.37-.13.38-2.03.37-1.99.38-3.73.37-3.61.37 4.51.38-2.69.37-1.76.37-3.53.38-.01.37-3.31.38-2.54.37-4.04.37 10.78.38-2.48.37-1.59.38-3.06.37-.11.37-2.93.38-2.41.37-3.62.38 2.84.37-2.77.37-2.23.38-3.83.37-.9.37-3.28.38-2.89.37-3.95.38 46.82.37-1.11.37-.71.38-1.77.37.34.38-1.68.37-1.58.37-2.32.38 2.74.37-1.55.38-1.36.37-2.27.37-.46.38-2.11.37-2.03.38-2.75.37-3.39.37 8.93.38-1.9.37-1.21.37-2.51.38.19.37-2.53.38-1.81.37-3.04.37 2.79.38-2.32.37-1.92.38-2.87.37-.52.37-2.83.38-2.33.37-3.38.38 18.64.37-1.44.37-1.06.38-2.02.37-.01.37-2.28.38-1.59.37-2.49.38 2.19.37-1.83.37-1.62.38-2.35.37-.66.38-2.34.37-2.1.37-2.85.38 6.33.37-1.59.38-1.47.37-2.12.37-.71.38-2.14.37-1.97.38-2.59.37 1.11.37-1.97.38-3.1.37-1.82.37-2.98.38-.67.37-2.91.38-2.34.37-3.45.37 72.69.38-.84.37-.33.38-1.35.37.56.37-1.29.38-.84.37-1.81.38 2.69.37-1.28.37-.82.38-1.7.37.03.37-1.66.38-1.34.37-2.38.38 6.51.37-1.06.37-.76.38-1.52.37-.08.38-1.47.37-1.26.37-1.96.38 1.68.37-1.52.38-1.2.37-1.85.37-.59.38-1.8.37-1.69.38-2.29.37 13.31.37-.78.38-.7.37-1.22.37-2.16.38.36.37-1.6.38-1.13.37-2.05.37 2.19.38-1.51.37-1.1.38-1.97.37-.2.37-1.92.38-1.63.37-2.32.38 5.71.37-1.35.37-1.05.38-1.84.37-.25.37-1.74.38-1.48.37-2.17.38 1.14.37-1.63.37-1.42.38-2.07.37-.74.38-2.01.37-1.86.37-2.41.38 26.63.37-.68.38-.55.37-1.19.37.03.38-1.04.37-.98.38-1.45.37 1.34.37-.98.38-.93.37-1.41.37-.46.38-1.36.37-2.16.38-1.28.37-2.14.37 5.54.38-1.26.37-.9.38-1.64.37-.04.37-1.62.38-1.24.37-2.08.38 1.52.37-1.53.37-1.22.38-1.9.37-.5.37-1.9.38-1.58.37-2.24.38 11.23.37-1.02.37-.98.38-1.36.37-.16.38-1.34.37-1.15.37-1.74.38 1.18.37-1.27.38-1.14.37-1.63.37-.6.38-1.68.37-1.47.38-1.94.37 3.84.37-1.16.38-1.11.37-1.49.37-.64.38-1.47.37-1.43.38-2.19.37-2.11.37 1.27.38-1.74.37-1.36.38-2.06.37-.67.37-2.02.38-1.71.37-2.34.38 46.64.37-.7.37-.34.38-.95.37.28.37-.93.38-.73.37-1.25.38 1.57.37-.9.37-.68.38-1.21.37-.29.38-1.17.37-1.01.37-1.49.38 4.09.37-.83.38-.64.37-1.09.37-.19.38-1.08.37-1.06.38-1.38.37.95.37-1.04.38-.95.37-1.34.37-.58.38-1.3.37-1.29.38-1.61.37 8.71.37-.94.38-.91.37-.56.38-1.23.37.09.37-1.24.38-.87.37-1.5.38 1.34.37-1.15.37-.87.38-1.52.37-.27.37-1.43.38-1.17.37-1.71.38 3.7.37-1.05.37-.84.38-1.35.37-.33.38-1.48.37-1.12.37-1.6.38.77.37-1.25.38-1.11.37-1.58.37-.66.38-1.53.37-1.39.38-1.81.37 18.23.37-.57.38-.49.37-.87.37-.13.38-.88.37-.78.38-1.12.37.8.37-.81.38-1.09.37-1.05.38-1.35.37-.16.37-1.31.38-1.04.37-1.63.38 3.7.37-.98.37-.74.38-1.27.37-.26.37-1.23.38-1 .37-1.52.38.9.37-1.19.37-1.02.38-1.46.37-.53.38-1.42.37-1.27.37-1.83.38 7.83.37-.81.38-.69.37-1.09.37-.3.38-1.05.37-.96.38-1.33.37.67.37-1.02.38-1 .37-1.28.37-.59.38-1.25.37-1.2.38-1.53.37 2.58.37-.93.38-.92.37-1.2.38-1.74.37-.3.37-1.41.38-1.15.37-1.67.38.76.37-1.4.37-1.12.38-1.63.37-.61.37-1.6.38-1.44.37-1.83.38 69.24.37-.37.37-.16.38-.64.37.29.38-.59.37-.43.37-.84.38 1.21.37-.68.38-.41.37-.81.37-.01.38-.78.37-.69.38-1.02.37 3.05.37-.5.38-.41.37-.8.37-.05.38-.71.37-.66.38-.95.37.73.37-.7.38-.65.37-.93.38-.35.37-.91.37-1.39.38-.85.37-1.36.38 7.53.37-.6.37-.4.38-.83.37.11.37-.83.38-.61.37-1.05.38.98.37-.78.37-.61.38-1.01.37-.17.38-1.03.37-.83.37-1.22.38 2.81.37-.72.38-.71.37-.93.37-.21.38-.93.37-.81.37-1.15.38.58.37-.89.38-.81.37-1.1.37-.49.38-1.15.37-1.02.38-1.3.37 13.92.37-.38.38-.36.37-.59.38-.06.37-.59.37-.57.38-.8.37-1.24.38 1.12.37-.78.37-.53.38-.98.37-.1.37-.97.38-.75.37-1.19.38 2.85.37-.77.37-.51.38-.92.37-.13.38-.9.37-.74.37-1.13.38.69.37-.88.38-.73.37-1.08.37-.49.38-1.05.37-.93.37-1.27.38 6.04.37-.62.38-.49.37-.79.37-.2.38-.79.37-.7.38-1.04.37.53.37-.76.38-.7.37-.95.38-.47.37-.93.37-.91.38-1.15.37 2 .38-.92.37-.87.37-.67.38-1.09.37-.24.37-1.07.38-.9.37-1.27.38.58.37-1.04.37-.86.38-1.29.37-.48.38-1.21.37-1.07.37-1.41.38 26.66.37-.38.38-.26.37-.59.37.07.38-.57.37-.56.37-.76.38.8.37-.54.38-.45.37-.76.37-.15.38-.72.37-.66.38-.92.37 2.19.37-.48.38-.44.37-.69.38-.2.37-.67.37-.66.38-.86.37.43.38-.65.37-.63.37-1.04.38-1.02.37-.2.37-1.01.38-.8.37-1.21.38 5.83.37-.59.37-.42.38-.77.37-.04.38-.81.37-.59.37-.95.38.69.37-.74.38-.61.37-.92.37-.27.38-.9.37-.79.37-1.18.38 2.11.37-.67.38-.59.37-.86.37-.29.38-.86.37-.77.38-1.03.37.35.37-.82.38-.81.37-.99.38-.51.37-.99.37-.93.38-1.18.37 11.05.38-.4.37-.39.37-.58.38-.76.37-.16.37-.74.38-.55.37-.91.38.76.37-.73.37-.54.38-.89.37-.2.38-.87.37-.78.37-1.03.38 2.15.37-.67.38-.53.37-.84.37-.24.38-.82.37-.72.37-.99.38.42.37-.88.38-.7.37-.96.37-.43.38-.95.37-.9.38-1.12.37 4.76.37-.57.38-.52.37-.73.38-.32.37-.72.37-.7.38-.88.37.29.38-.73.37-.67.37-.87.38-.48.37-.86.37-1.22.38-.82.37-1.18.38 2.03.37-.82.37-.65.38-1 .37-.31.38-.98.37-.81.37-1.14.38.31.37-.94.38-.81.37-1.11.37-.5.38-1.12.37-.97.37-1.25.38 44.54.37-.27.38-.17.37-.5.37.1.38-.41.37-.33.38-.58.37.67.37-.39.38-.33.37-.56.38-.1.37-.59.37-.49.38-.7.37 1.86.38-.36.37-.32.37-.53.38-.13.37-.51.37-.49.38-.66.37-.99.38.72.37-.63.37-.48.38-.79.37-.17.38-.77.37-.63.37-.95.38 4.82.37-.43.38-.35.37-.58.37-.02.38-.58.37-.46.37-.75.38.58.37-.56.38-.47.37-.71.37-.29.38-.69.37-.61.38-.86.37 1.75.37-.51.38-.47.37-.66.38-.24.37-.65.37-.62.38-.84.37.3.38-.64.37-.6.37-.79.38-.43.37-.77.37-.76.38-.93.37 9.2.38-.29.37-.59.37-.27.38-.59.37.04.38-.57.37-.45.37-.72.38.65.37-.56.38-.43.37-.74.37-.14.38-.69.37-.58.37-.84.38 1.81.37-.54.38-.42.37-.67.37-.16.38-.67.37-.64.38-.79.37.37.37-.63.38-.56.37-.8.38-.33.37-.77.37-.71.38-.91.37 3.99.38-.48.37-.4.37-.6.38-.21.37-.58.37-.56.38-.72.37.25.38-.57.37-.54.37-.86.38-.83.37-.23.38-.83.37-.68.37-.96.38 1.69.37-.65.38-.54.37-.79.37-.26.38-.82.37-.67.37-.92.38.29.37-.77.38-.68.37-.9.37-.42.38-.9.37-.81.38-1.03.37 18.34.37-.3.38-.24.37-.44.38-.02.37-.46.37-.37.38-.57.37.45.38-.42.37-.41.37-.55.38-.19.37-.55.37-.52.38-.68.37 1.44.38-.38.37-.38.37-.52.38-.21.37-.66.38-.64.37-.5.37-.78.38.5.37-.64.38-.49.37-.76.37-.23.38-.76.37-.63.37-.91.38 3.98.37-.46.38-.35.37-.58.37-.13.38-.58.37-.48.38-.72.37.39.37-.64.38-.47.37-.69.38-.27.37-.68.37-.62.38-.82.37 1.38.38-.53.37-.47.37-.65.38-.33.37-.64.37-.6.38-.78.37.14.38-.64.37-.6.37-.75.38-.46.37-.75.38-.87.37-.87.37-.99.38 8.43.37-.44.38-.33.37-.59.37-.06.38-.57.37-.46.37-.7.38.42.37-.55.38-.45.37-.69.37-.22.38-.66.37-.6.38-.8.37 1.44"/><use xlink:href="#g" color="#FFAB00" transform="matrix(3.75 0 0 3.75 171.2 139)"/><use xlink:href="#g" color="#FFAB00" transform="matrix(3.75 0 0 3.75 220.55 22.51)"/></g><path fill="none" stroke="none" stroke-linecap="round" stroke-linejoin="round" stroke-width="0" d="M28 45.01V205M371.99 45.01H28" color="#000"/></svg>