<svg xmlns="http://www.w3.org/2000/svg" xmlns:xlink="http://www.w3.org/1999/xlink" viewBox="0 0 400 250"><path fill="none" d="M0 0h400v250H0z"/><defs><path id="g" stroke="currentColor" stroke-width=".267" d="M-1 0h2M0-1v2"/><path id="h" stroke="currentColor" stroke-width=".267" d="m-1-1 2 2m0-2-2 2"/><path id="i" stroke="currentColor" stroke-width=".267" d="M-1 0h2M0-1v2m-1-2 2 2m-2 0 2-2"/><path id="d" stroke="currentColor" stroke-width=".267" d="M-1-1h2v2h-2z"/><path id="b" stroke="currentColor" stroke-width=".267" d="m0-1.33-1.33 2h2.66z"/><path id="f" stroke="currentColor" stroke-width=".267" d="M0 1.33 1.265.411.782-1.067l-1.564-.009-.483 1.487z"/><use xlink:href="#b" id="c" stroke="currentColor" transform="rotate(180)"/><use xlink:href="#d" id="e" stroke="currentColor" transform="rotate(45)"/><circle id="a" cx="0" cy="0" r="1" stroke="currentColor" stroke-width=".267"/></defs><path fill="none" stroke="#000" stroke-linecap="round" stroke-linejoin="round" stroke-width=".1" d="M35.48 205V45.01" class="gridline" color="#000"/><g fill="none" stroke="none" stroke-linecap="round" stroke-linejoin="round" stroke-width="0" color="#000"><path d="M35.48 205v-7.5m0-152.49v7.5"/><text fill="#000" font-family="KaTeX_Main" font-size="10" text-anchor="middle" transform="translate(35.48 215.75)"><tspan> 1</tspan></text></g><path fill="none" stroke="#000" stroke-linecap="round" stroke-linejoin="round" stroke-width=".1" d="M72.87 205V45.01" class="gridline" color="#000"/><g fill="none" stroke="none" stroke-linecap="round" stroke-linejoin="round" stroke-width="0" color="#000"><path d="M72.87 205v-7.5m0-152.49v7.5"/><text fill="#000" font-family="KaTeX_Main" font-size="10" text-anchor="middle" transform="translate(72.87 215.75)"><tspan> 2</tspan></text></g><path fill="none" stroke="#000" stroke-linecap="round" stroke-linejoin="round" stroke-width=".1" d="M110.26 205V45.01" class="gridline" color="#000"/><g fill="none" stroke="none" stroke-linecap="round" stroke-linejoin="round" stroke-width="0" color="#000"><path d="M110.26 205v-7.5m0-152.49v7.5"/><text fill="#000" font-family="KaTeX_Main" font-size="10" text-anchor="middle" transform="translate(110.26 215.75)"><tspan> 3</tspan></text></g><path fill="none" stroke="#000" stroke-linecap="round" stroke-linejoin="round" stroke-width=".1" d="M147.65 205V45.01" class="gridline" color="#000"/><g fill="none" stroke="none" stroke-linecap="round" stroke-linejoin="round" stroke-width="0" color="#000"><path d="M147.65 205v-7.5m0-152.49v7.5"/><text fill="#000" font-family="KaTeX_Main" font-size="10" text-anchor="middle" transform="translate(147.65 215.75)"><tspan> 4</tspan></text></g><path fill="none" stroke="#000" stroke-linecap="round" stroke-linejoin="round" stroke-width=".1" d="M185.04 205V45.01" class="gridline" color="#000"/><g fill="none" stroke="none" stroke-linecap="round" stroke-linejoin="round" stroke-width="0" color="#000"><path d="M185.04 205v-7.5m0-152.49v7.5"/><text fill="#000" font-family="KaTeX_Main" font-size="10" text-anchor="middle" transform="translate(185.04 215.75)"><tspan> 5</tspan></text></g><path fill="none" stroke="#000" stroke-linecap="round" stroke-linejoin="round" stroke-width=".1" d="M222.43 205V45.01" class="gridline" color="#000"/><g fill="none" stroke="none" stroke-linecap="round" stroke-linejoin="round" stroke-width="0" color="#000"><path d="M222.43 205v-7.5m0-152.49v7.5"/><text fill="#000" font-family="KaTeX_Main" font-size="10" text-anchor="middle" transform="translate(222.43 215.75)"><tspan> 6</tspan></text></g><path fill="none" stroke="#000" stroke-linecap="round" stroke-linejoin="round" stroke-width=".1" d="M259.82 205V45.01" class="gridline" color="#000"/><g fill="none" stroke="none" stroke-linecap="round" stroke-linejoin="round" stroke-width="0" color="#000"><path d="M259.82 205v-7.5m0-152.49v7.5"/><text fill="#000" font-family="KaTeX_Main" font-size="10" text-anchor="middle" transform="translate(259.82 215.75)"><tspan> 7</tspan></text></g><path fill="none" stroke="#000" stroke-linecap="round" stroke-linejoin="round" stroke-width=".1" d="M297.21 205V45.01" class="gridline" color="#000"/><g fill="none" stroke="none" stroke-linecap="round" stroke-linejoin="round" stroke-width="0" color="#000"><path d="M297.21 205v-7.5m0-152.49v7.5"/><text fill="#000" font-family="KaTeX_Main" font-size="10" text-anchor="middle" transform="translate(297.21 215.75)"><tspan> 8</tspan></text></g><path fill="none" stroke="#000" stroke-linecap="round" stroke-linejoin="round" stroke-width=".1" d="M334.6 205V45.01" class="gridline" color="#000"/><g fill="none" stroke="none" stroke-linecap="round" stroke-linejoin="round" stroke-width="0" color="#000"><path d="M334.6 205v-7.5m0-152.49v7.5"/><text fill="#000" font-family="KaTeX_Main" font-size="10" text-anchor="middle" transform="translate(334.6 215.75)"><tspan> 9</tspan></text></g><path fill="none" stroke="#000" stroke-linecap="round" stroke-linejoin="round" stroke-width=".1" d="M371.99 205V45.01" class="gridline" color="#000"/><g fill="none" stroke="none" stroke-linecap="round" stroke-linejoin="round" stroke-width="0" color="#000"><path d="M371.99 205v-7.5m0-152.49v7.5"/><text fill="#000" font-family="KaTeX_Main" font-size="10" text-anchor="middle" transform="translate(371.99 215.75)"><tspan> 10</tspan></text></g><g fill="none" stroke="none" stroke-linecap="round" stroke-linejoin="round" stroke-width="0" color="#000"><path d="M371.99 205h-7.5"/><text fill="#000" font-family="KaTeX_Main" font-size="10" transform="translate(378.99 208.25)"><tspan>0.00</tspan></text></g><g fill="none" stroke="none" stroke-linecap="round" stroke-linejoin="round" stroke-width="0" color="#000"><path d="M371.99 178.33h-7.5"/><text fill="#000" font-family="KaTeX_Main" font-size="10" transform="translate(378.99 181.58)"><tspan>0.50</tspan></text></g><g fill="none" stroke="none" stroke-linecap="round" stroke-linejoin="round" stroke-width="0" color="#000"><path d="M371.99 151.67h-7.5"/><text fill="#000" font-family="KaTeX_Main" font-size="10" transform="translate(378.99 154.92)"><tspan>1.00</tspan></text></g><g fill="none" stroke="none" stroke-linecap="round" stroke-linejoin="round" stroke-width="0" color="#000"><path d="M371.99 125h-7.5"/><text fill="#000" font-family="KaTeX_Main" font-size="10" transform="translate(378.99 128.25)"><tspan>1.50</tspan></text></g><g fill="none" stroke="none" stroke-linecap="round" stroke-linejoin="round" stroke-width="0" color="#000"><path d="M371.99 98.34h-7.5"/><text fill="#000" font-family="KaTeX_Main" font-size="10" transform="translate(378.99 101.59)"><tspan>2.00</tspan></text></g><g fill="none" stroke="none" stroke-linecap="round" stroke-linejoin="round" stroke-width="0" color="#000"><path d="M371.99 71.67h-7.5"/><text fill="#000" font-family="KaTeX_Main" font-size="10" transform="translate(378.99 74.92)"><tspan>2.50</tspan></text></g><g fill="none" stroke="none" stroke-linecap="round" stroke-linejoin="round" stroke-width="0" color="#000"><path d="M371.99 45.01h-7.5"/><text fill="#000" font-family="KaTeX_Main" font-size="10" transform="translate(378.99 48.26)"><tspan>3.00</tspan></text></g><path fill="none" stroke="none" stroke-linecap="round" stroke-linejoin="round" stroke-width="0" d="M28 45.01V205M371.99 45.01H28" color="#000"/><text fill="#000" stroke="none" stroke-linecap="round" stroke-linejoin="round" stroke-width="0" color="#000" font-family="KaTeX_Main" font-size="10" text-anchor="middle" transform="rotate(-90 68.255 56.755)"><tspan font-weight="bold">Duration </tspan><tspan> in milliseconds</tspan></text><text fill="#000" stroke="none" stroke-linecap="round" stroke-linejoin="round" stroke-width="0" color="#000" font-family="KaTeX_Main" font-size="10" text-anchor="middle" transform="translate(199.99 238.25)"><tspan>Operations / 10</tspan><tspan dy="-5" font-size="8">6</tspan></text><text fill="#000" stroke="none" stroke-linecap="round" stroke-linejoin="round" color="#000" font-family="KaTeX_Main" font-size="8" transform="translate(116 10.11)"><tspan>AVLBottomUp</tspan></text><g fill="none" stroke="currentColor" stroke-linecap="round" stroke-linejoin="round" color="#000"><path stroke="#000" d="M80.5 7.51h29.9M28 159.13l.37-5.16.38 10.02.37-4.95.38 5.07.37-9.96.37 4.6.38.03.37 4.98.38-14.99.37 9.71.37-.13.38 5.11.37-4.94.37.16.38-.63.37.13.38-.29.37.59.37-5.47.38 5.06.37 8.89.38 5.29.37-4.78.37.02.38 4.93.37-10.38.38 5.31.37 5.05.37-5.36.38.58.37-5.32.37 5.43.38 4.42.37-4.96.38 5.01.37-4.67.37-5.35.38 9.59.37-4.52.38 5.06.37-9.17.37-.75.38 10.43.37-5.38.38 5.65.37-4.91.37.69.38-.97.37.28.38-.03.37 4.8.37-4.68.38.49.37-4.95.37 9.54.38-5.17.37 5.25.38-5.07.37.28.37.08.38-.03.37 5.27.38-5 .37.01.37-4.34.38 4.27.37.14.38 5.05.37-5.06.37 5.03.38-23.81.37 4.31.37 1.8.38 1.07.37.91.38-4.65.37 4.84.37.54.38 5.65.37-4.96.38.29.37-.21.37.09.38.38h.37l.38-5.03.37 4.78.37.17.38 5.14.37-5.23.38.27.37-.83.37.38.38-.05.37 5.03.37-15.23.38 4.56.37 10.24.38-4.78.37 4.59.37-4.9.38-.39.37.18.38-.05.37-.33.37-4.76.38-.58.37 10.26.38-5.05.37 5.07.37-10.25.38 9.99.37-10.3.37 10.33.38-5.05.37-10.23.38 9.71.37 5.35.37-5.33.38.31.37 8.47.38 5.36.37-10.28.37 10.38.38-5.2.37-.02.38-9.84.37 15.52.37-.14.38-5.3.37 5.3.38-4.7.37-.26.37-.22.38-.35.37 5.85.37-5.35.38-10.08.37 9.77.38 5 .37-4.9.37 5.25.38-4.78.37-.53.38 5.1.37-9.65.37 10.05.38-4.88.37-4.66.38-.09.37 10.39.37-.6.38-4.79.37.3.37 4.75.38-5.33.37.16.38.43.37 5.09.37-4.92.38-5.05.37.05.38 10.01.37.3.37-5.21.38.45.37 4.84.38-5.18.37.08.37.33.38-14.42.37-5.03.38 1.91.37 5.59.37 1.18.38 5.57.37-4.56.37 5.18.38-4.86.37.16.38-.18.37-4.74.37.44.38 4.67.37.24.38 4.95.37-4.9.37 4.8.38-4.79.37-.24.38.04.37-5.17.37.24.38 4.49.37-.02.37 4.96.38-4.74.37-.38.38 5.12.37-5.03.37-.17.38-5.32.37-.06.38 4.71.37.03.37 5.1.38-5.02.37-.26.38.07.37.04.37 4.88.38-10.46.37-4.76.38 14.5.37-4.65.37.24.38 4.89.37-5.24.37-.11.38-.02.37 13.98.38-9.88.37-5.25.37 15.39.38-5.12.37 5.18.38-4.68.37-.71.37 5.63.38-5.01.37.21.38 5.19.37-5.9.37-5 .38.6.37 9.91.37-5.62.38.85.37 4.9.38-5.22.37 5.36.37-10.45.38 10.32.37.06.38-10.3.37.16.37 4.65.38.12.37 5.6.38-4.97.37 5.12.37-5.2.38-.42.37.14.38 5.63.37-5.17.37.13.38-10 .37 14.79.37-4.83.38 5.35.37-4.48.38-.29.37 4.59.37-5.03.38.22.37 5.51.38-5.23.37-.18.37-9.95.38-3.85.37.53.38 1.78.37.68.37 5.77.38-4.82.37.23.37 5.46.38-4.82.37-14.6.38 19.46.37-4.51.37.08.38 5.1.37-5.2.38.2.37.16.37 5.02.38-5.1.37-10.13.38 4.86.37 9.89.37-5.03.38-.12.37 4.98.38-5.2.37-.14.37 5.1.38-10.04.37-5.34.37 10.06.38 4.76.37-4.89.38.1.37 4.88.37-10.43.38 10.38.37.2.38-10.47.37-5.54.37 10.3.38.18.37 4.86.38-5.25.37.19.37-.43.38 5.25.37-10.11.37.01.38 4.71.37 8.44.38.74.37 5.44.37-5.17.38 4.69.37-5.16.38.37.37 5.06.37-4.98.38-5.26.37-.09.38 5.25.37 5.22.37-5.09.38-.08.37 5.09.38-4.69.37 4.94.37-5.13.38.04.37-.09.37-4.42.38-.28.37 10.06.38.13.37-9.88.37 10.45.38-.31.37-5.03.38-.02.37 4.63.37-4.65.38-.14.37-4.86.38.1.37 10.08.37-9.46.38 9.77.37.04.37-4.94.38 5.28.37-5.24.38 5.23.37-.05.37-10.61.38.28.37-.04.38 10.35.37-9.81.37 9.93.38-19.29.37.42.38 6.47.37-4.23.37 6.17.38-9.93.37.66.38.02.37 10.51.37-9.83.38 10.01.37-5.12.37 5.13.38-4.82.37 4.9.38-10.06.37-.02.37-.15.38 10.07.37-9.82.38 9.75.37-5.1.37 5 .38-4.89.37-.1.38-.35.37-5.05.37-.58.38 5.54.37-.58.37 5.38.38-5.3.37-.01.38 4.94.37-5.42.37-9.81.38 10.17.37-.45.38-4.67.37 9.84.37-5.19.38 4.86.37-4.92.38 5.25.37-5.48.37-10.42.38 5.33.37 5.36.38-.74.37 5.63.37 3.75.38-.38.37 5.15.37.35.38-4.93.37.38.38-4.95.37-.1.37 4.98.38.26.37 5.16.38-5.08.37 5.44.37-5.31.38 4.87.37-5.08.38 4.71.37-14.96.37 10.1.38.13.37.4.37-.14.38 4.9.37-4.97.38.56.37 5.25.37-.45.38-5.52.37 5.41.38-15.11.37 10.62.37-5.48.38 10.03.37-5.51.38.51.37 5.02.37-5.04.38 5.03.37.12.38-5.07.37-4.97.37 5.17.38-5.33.37 5.64h.37l.38 5.32.37-5.46.38 5.69.37-5.46.37 5.35.38-19.29.37.29.38-8.91.37 11.15.37-4.2.38 5.4.37 5.72.38-4.79.37.35.37 5.11.38.13.37-4.88.37-4.7.38-.41.37.12.38 4.94.37 4.9.37-5.11.38-.18.37 5.29.38.18.37-10.18.37-.34.38 4.85.37-4.83.38 4.42.37 5.16.37-5.04h.38l.37 4.89.37-.08.38-10.08.37-.11.38 4.49.37-5.04.37 5.15.38 4.93.37-4.96.38-.07.37 5.09.37-5.33.38.18.37-5.2.38-5.15.37 15.15.37-5.21h.38l.37.02.38 5.09.37.15.37-.78.38 9.92.37-10.28.37.53.38 5.24.37.13.38 4.93.37-5.13.37-.3.38 5.16.37-.12.38-4.92.37-.41.37 4.61.38-14.98.37 10.34.38.28.37-.31.37 5.54.38-10.49.37 10.71.37-.13.38-.09.37-9.84.38 10.17.37-9.91.37 4.14.38-4.34.37 4.98.38 5.04.37-4.87.37.19.38 4.83.37.21.38-4.78.37-.08.37-.03.38.01.37-4.75.38 4.96.37-.68.37 5.44.38-5.1.37.32.37 5.27.38.04.37-4.93.38.24.37-.23.37-.47.38-24.14.37 5.47.38 11.91.37-4.14.37.39.38 5.94.37.38.38-9.69.37 10 .37-4.92.38-10.36.37 5.51.37 10.26.38.14.37-10.22.38 10.19.37.05.37-9.98.38 9.8.37-4.95.38-10.37.37 4.97.37 10.17.38-4.84.37-.51.38 5.14.37.04.37-10.12.38 9.75.37-15.14.38 9.4.37-4.91.37 10.47.38-5.66.37.05.37 5.32.38.01.37-10.28.38 4.58.37-10.41.37 10.24.38-.08.37 5.12.38-5.08.37-.05.37 5.33.38-9.98.37 9.74.38-5.26.37-10.44.37 13.96.38 10.21.37.5.37-4.85.38.37.37 5.13.38-.48.37-10.19.37 10.47.38-5 .37-10.22.38 5.03.37 10.14.37.39.38-5.18.37 4.86.38-4.99.37 5 .37.56.38-10.23.37 4.88.38-.15.37-5.06.37.15.38 9.83.37-4.79.37 4.89.38-5.14.37 5.35h.38l.37-5.34.37.72.38.23h.37l.38-15.16.37 20.36.37-.55.38-5.19.37 5.38.38-5.17.37 5.06.37.6.38-9.88.37 9.82.37-9.78.38 10.18.37-20.4.38 20.31.37.19.37-5.17.38-14.32.37.2.38 6.58.37-3.87.37.96.38-4.59.37 5.09.38-9.91.37 15.36.37-4.63.38 5.07.37-4.96.38 5.24.37-4.96.37.1.38-5.12.37 4.64.37-9.87.38 14.96.37-4.58.38 4.75.37-5.15.37 5.03.38-9.92.37 9.73.38-10.02.37 4.51.37-10.33.38 15.39.37-5.08.38 5.14.37-5.31.37 5.14.38-10.21.37 9.9.37-10.12.38-.47.37.37.38 10.07.37-5.28.37 4.92.38-5.29.37 5.26.38-10.07.37-.17.37 9.78.38-15.4.37 10.24.38 5.15.37-5.01.37 13.7.38-5.06.37 5.88.38-10.17.37-.24.37 9.76.38.69.37-20.3.37 19.76.38.32.37-5.42.38 5.24.37-4.45.37 5.23.38-5.15.37-5.6.38 5.49.37 5.1.37-4.99.38-10.23.37 14.38.38-4.35.37 5.07.37.2.38-5.04.37.25.37.1.38-5.6.37 10.61.38-.24.37-15.61.37 10.81.38 5.16.37-5.15.38 4.81.37-4.85.37 5.24.38-4.84.37-5.57.38 5.43.37 4.86.37.41.38-20.28.37 20.42.38.48.37-5.54.37 5.25.38-4.88.37 4.52.37-4.59.38-24.38.37 9.97.38 7.4.37-14.28.37 10.05.38 1 .37 5.48.38-4.95.37 5.01.37-4.63.38-5.09.37 5.04.38 5.59.37-4.85.37-10.58.38 15.39.37-4.88.37.04.38 4.92.37-5.19.38-5.12.37 4.87.37 5.31.38-4.9.37-11.72.38 16.34.37-5.08.37-.11.38.07.37 4.74.38-10.42.37 5.16.37 5.38.38-10.4.37-.63.38 5.49.37 4.87.37-5.31.38.08.37 4.92.37-15.52.38 15.52.37-.15.38-15.37.37 9.68.37.53.38-.24.37 4.92.38-4.73.37-.04.37 3.74.38 10.14.37.09.38-15.23.37 10.53.37 4.91.38-5.06.37-.11.37 5.89.38-4.85.37 4.05.38-15.43.37 15.93.37-.04.38-.33.37-20 .38 20.02.37-4.84.37-.36.38 5.54.37-.53.38-4.67.37 5.27.37-15.53.38 15.86.37.25.38-.39.37-20.97.37 20.77.38-5.33.37.44.37 5.05.38-5.05.37 5.23.38-9.83.37 4.64.37 5.25.38.13.37-10.19.38-.08.37 10.38.37-10.72.38 10.32.37-4.64.38 5.2.37.28.37-15.33.38 15.38.37.29.37.14.38-30.01.37 4.57.38 7.3.37 1.09.37.92.38 5.4.37.4.38-15.36.37 15.53.37.46.38-5.34.37-10.14.38 10.76.37-.17.37.59.38 4.62.37.17.38-15.36.37 15.17.37.19.38-5.43.37-21.32.37 10.34.38-.08.37.6.38 4.82.37-1.02.37-18.22.38 12.65.37 4.14.38-76.47.37 73.72.37-.01.38 10.34.37-4.65.38 4.96.37-.09.37-14.25.38 15.43.37-.1.37-12.55.38 4.91.37 4.93.38 5.21.37-4.91.37 5.13.38-15.47.37 15.1.38.18.37-10.16"/><use xlink:href="#g" transform="matrix(3.75 0 0 3.75 342.45 172.21)"/><use xlink:href="#g" transform="matrix(3.75 0 0 3.75 95.45 7.51)"/></g><text fill="#000" stroke="none" stroke-linecap="round" stroke-linejoin="round" color="#000" font-family="KaTeX_Main" font-size="8" transform="translate(116 25.11)"><tspan>AVLTopDown</tspan></text><g fill="none" stroke="currentColor" stroke-linecap="round" stroke-linejoin="round" color="#000"><path stroke="#29C3F6" stroke-dasharray="1.0,2.0" d="M80.5 22.51h29.9M28 160.07l.37-.17.38 4.94.37-15.29.38 10.1.37-.17.37.14.38 4.71.37-4.86.38-4.99.37 4.65.37 5 .38-9.98.37 4.95.37.05.38-.18.37.09.38 4.81.37-10.02.37 4.62.38-.06.37 12.93.38-9.34.37 5.41.37-.31.38.11.37 4.58.38-4.82.37.31.37 4.36.38-9.12.37 4.64.37 5.2.38-5.39.37.08.38-5.21.37 5.3.37 4.8.38-5.12.37 5.1.38-4.85.37-4.13.37 9.09.38-4.36.37 4.68.38-9.57.37.34.37 10.17.38-5.4.37 5.03.38-4.86.37 4.57.37-9.28.38 9.89.37-4.54.37-.59.38 4.95.37-9.89.38.17.37 9.77.37-4.33.38-.17.37 4.93.38.44.37-10.15.37 5.52.38 4.34.37-4.74.38-.14.37 5.15.37-14.79.38-3.39.37.13.37 1.53.38 5.82.37-9.23.38 10.24.37-9.61.37 10.14.38-4.74.37-9.59.38 10.02.37 4.9.37-4.72.38 5 .37-9.52.38 4.67.37.03.37 4.95.38-5.21.37-9.39.38 9.7.37 4.74.37-4.78.38 4.7.37-9.93.37 4.73.38-.07.37 4.8.38-4.88.37-9.69.37 9.18.38 5.27.37-5 .38 4.82.37-9.85.37 4.87.38-.19.37 4.95.38-10.13.37-4.88.37 14.52.38-4.68.37 4.57.37-9.61.38 9.6.37-9.66.38 9.4.37.12.37-15 .38 4.78.37 17.99.38-4.8.37 4.9.37-4.75.38.07.37 4.92.38-9.68.37 10.01.37-5.12.38-4.82.37.12.38 9.96.37-.11.37-5.09.38 4.66.37-4.26.37-.06.38-.42.37-.07.38 4.71.37-4.88.37-9.24.38 9.75.37 4.42.38-4.62.37 5.08.37-4.8.38.21.37 5.11.38-9.36.37 9.79.37-5.77.38-4.28.37 5.05.37-.14.38 4.62.37-4.83.38.33.37 4.78.37-4.43.38-.13.37.11.38 4.91.37-4.82.37-4.84.38 5.09.37.03.38-.1.37 4.81.37.47.38-22.77.37 4.95.38 1.12.37.96.37.62.38-4.33.37.39.37 9.97.38-4.62.37 5.08.38-4.65.37.28.37-.01.38-.18.37-4.48.38 9.44.37-9.51.37 4.83.38-.21.37 4.93.38-4.77.37-.34h.37l.38-.07.37-.09.37-.11.38-9.76.37 14.21.38-4.48.37.1.37 4.46.38-4.91.37-.02.38-.14.37-.2.37-.33.38-9.74.37 13.63.38-3.71.37-.01.37-.13.38 4.74.37-5.06.38.2.37-5.15.37.16.38 4.26.37.31.37 4.93.38-5.11.37 8.15.38 5.1.37-5.09.37.17.38 4.68.37-9.52.38-4.72.37 14.42.37-4.7.38 5.12.37-4.55.38.19.37 3.87.37-4.69.38.33.37 4.81.37-5.4.38-4.61.37.29.38 9.61.37-4.57.37-.11.38 4.82.37-4.8.38-.21.37.05.37 4.6.38.37.37-9.51.38.23.37 4.74.37.04.38 4.58.37-4.79.38 5.26.37-4.79.37-.06.38.31.37 4.46.37.36.38-9.61.37-4.44.38 14.41.37-5.06.37 4.77.38-4.64.37.43.38 4.51.37-4.91.37.01.38-12.61.37.36.38-3.88.37.95.37 5.66.38 5.51.37-4.94.37.42.38.37.37.13.38 4.83.37-4.43.37-.42.38-9.63.37 9.8.38.3.37 4.74.37-4.79.38.03.37-.19.38 4.92.37-4.86.37-.65.38-9.59.37 9.86.38-.17.37 4.82.37-5.01.38.2.37-.19.37 4.82.38-10.19.37.05.38 4.87.37.03.37.09.38-.09.37 4.57.38-4.95.37-.01.37 4.94.38-10.1.37-4.7.38 9.38.37 4.92.37-4.91.38.14.37 4.89.37-9.55.38 9.08.37 7.91.38-9.86.37.89.37 4.8.38-.27.37-.34.38.64.37 4.79.37.11.38-4.97.37-.34.38 5.11.37-9.8.37 5.17.38-4.88.37 4.89.38 5 .37-9.61.37 9.74.38-.27.37-4.89.37 5.44.38-5.05.37-.07.38-.19.37-4.26.37.27.38 9.43.37.07.38-9.66.37 9.11.37.5.38-4.83.37-.21.38 5.22.37-.04.37-9.61.38-.01.37.26.37 9.73.38-4.48.37-.27.38 4.99.37-4.81.37 4.3.38-.04.37-4.41.38 4.94.37-9.76.37.41.38-18.3.37 15.15.38-8.28.37 10.68.37.83.38-4.66.37.27.38 5.15.37-9.47.37.21.38-.24.37 9.77.37-9.34.38 9.59.37.09.38-4.82.37.1.37 4.74.38-9.82.37-.04.38-.17.37 9.7.37-9.79.38 9.45.37-4.51.38 4.75.37-4.95.37 4.74.38-10.15.37-.17.37-.07.38 9.69.37-9.78.38 9.73.37-4.94.37.01.38 4.83.37-4.86.38-4.73.37 4.23.37-4.62.38 4.8.37-.35.38.01.37 4.96.37-4.95.38 5.07.37-4.88.38-9.92.37 5.11.37 17.57.38-5.15.37.13.37 5.03.38-4.77.37.21.38 5.1h.37l.37-5.21.38.6.37-4.96.38.06.37 5.15.37-.08.38 4.49.37-4.91.38 4.63.37-5.07.37 5.25.38-4.7.37 4.89.37-14.3.38 9.66.37-.09.38.55.37.27.37 4.5.38-5.23.37.16.38 4.74.37.63.37-5.53.38 5.11.37-14.94.38 9.98.37.14.37.02.38-.21.37.22.38 4.76.37-5.07.37 5.41.38-.09.37-4.59.37-4.87.38 5.22.37-.23.38-4.41.37 4.75.37 4.84.38-23.2.37 5.27.38 6.28.37 1.3.37.67.38-9.75.37.8.38.07.37 5.32.37.16.38.1.37 4.83.37-4.89.38 4.97.37.2.38-9.96.37.08.37.03.38 4.7.37-.07.38.27.37 4.49.37-4.91.38 4.94.37-5.17.38-.02.37-4.77.37-5.46.38 14.72.37-4.82.37.11.38-.23.37 4.62.38.19.37-5.12.37-9.64.38 9.35.37-5.22.38 5.15.37 4.79.37-5.18.38.24.37 4.76.38-4.7.37-.07.37-4.93.38-.49.37 4.99.38-.01.37.22.37 13.25.38-4.86.37 4.59.37.3.38-9.62.37 10.3.38-10.03.37-.03.37 4.46.38.57.37 4.54.38-4.79.37-.56.37 4.45.38.25.37-9.56.38 10.16.37-5.14.37-4.47.38-.36.37 5.48.37 4.7.38-.1.37-9.61.38 9.8.37.3.37-.8.38-9.48.37 10.25.38-9.76.37.33.37 4.47.38.05.37 5.06.38-4.45.37-.19.37 4.74.38.15.37-4.79.38-.1.37-.33.37 5.1.38-14.37.37 9.68.37.4.38 4.85.37-4.93.38.12.37 4.85.37-.33.38-22.3.37 4.69.38 1.52.37-8.66.37 9.94.38.94.37 5.27.38-4.48.37.03.37 5.31.38-4.81h.37l.37.13.38-9.92.37 9.89.38-.05.37 5.06.37-4.95.38-.07.37 5.02.38-5.25.37.18.37-.14.38-9.81.37 9.66.38-.25.37 4.99.37-5.11.38-.01.37 4.87.38-9.72.37 9.39.37-4.79.38-9.91.37 4.6.37 9.84.38-4.88.37-.13.38 4.7.37.15.37-9.9.38 9.56.37-9.6.38-5.34.37 9.82.37 4.93.38-4.8.37-.02.38 4.87.37.01.37-2.62.38 10.12.37-9.33.37.06.38.19.37 10.06.38-.52.37-4.99.37.4.38 5.01.37-.01.38-5.16.37.39.37-4.73.38 4.96.37-10.07.38 14.79.37-.3.37-4.24.38 4.53.37-4.77.38 4.94.37-.01.37-10.24.38 5.13.37.18.37-5.04h.38l.37 9.77.38-4.66.37 4.5.37-4.29.38 5.31.37.06.38-5.02.37.44.37-.75.38.03.37-14.15.38 19.21.37-.16.37-4.15.38 4.93.37-5.02.37 5.23.38-.18.37-5.24.38.56.37-4.75.37 9.63.38-37.87.37 24.5.38 2.16.37-4.17.37 5.71.38-4.45.37 5.16.38-10 .37 10.2.37-9.48.38-4.95.37 9.87.38 5.02.37-4.45.37 4.9.38-5.09.37 4.99.37-10.06.38 10.03.37-10.02.38-4.82.37 9.43.37 5 .38-4.98.37 4.99.38-4.98.37 4.88.37-10.08.38.2.37 9.31.38-14.3.37 9.13.37 5.04.38-5.05.37 4.92.37-5.05.38.23.37-.51.38-4.67.37 4.93.37-10.13.38 14.46.37-4.82.38 4.83.37-4.62.37 4.66.38-9.97.37 4.85.38-.56.37-4.68.37 8.21.38 9.67.37.69.38-5.01.37 4.71.37-5.06.38 5.55.37-9.99.37-.46.38 10.18.37-.27.38-14.5.37 10.34.37 4.92.38-5.13.37 4.69.38-4.43.37 4.86.37-4.69.38-5.57.37 4.68.38 5.3.37-9.63.37.09.38 9.65.37-4.43.37 4.94.38-.55.37-4.29.38-.13.37-.36.37-4.4.38 9.83.37.07.38-19.69.37 19.28.37.44.38-4.98.37 4.77.38-4.58.37 4.67.37-4.45.38-5.13.37 5.31.38 5.15.37-.21.37-14.24.38 9.48.37 4.51.37-4.52.38-12.77.37-.02.38 6.48.37-3.78.37-10.12.38 15.64.37.74.38-19.62.37 19.39.37-4.51.38 5.2.37-4.61.38.13.37 4.89.37-14.81.38 14.94.37.05.37-19.83.38 19.39.37-4.78.38 4.95.37-4.97.37.14.38-.11.37-5.43.38 10.14.37.08.37-19.62.38 18.95.37-4.67.38 4.82.37-4.96.37-.06.38.13.37-5.5.38 9.99.37.09.37-19.92.38 19.51.37-4.77.37-.03.38-.12.37 4.64.38-9.82.37 4.57.37 5.29.38-9.72.37-.93.38 10.39.37-5.02.37 8 .38-.03.37 4.89.38-4.63.37-4.66.37 9.71.38.19.37-14.7.37 10.3.38 4.91.37-5.89.38.04.37 5.44.37-4.94.38 4.69.37-14.45.38 14.62.37.26.37-.49.38-19.13.37 18.95.38-4.78.37.49.37 4.88.38-4.45.37 5.09.38-.46.37-15.04.37 14.92.38-.27.37.65.37-19.6.38 19.28.37-4.56.38.28.37 4.62.37-4.89.38 5.06.37-9.93.38 5.08.37 5 .37-.42.38-4.71.37-9.62.38 14.87.37-4.51.37-.13.38.28.37 4.9.37.43.38-33.62.37 19.87.38 1.94.37.85.37-19.17.38 19.99.37-9.18.38 9.76.37-4.5.37 4.94.38-14.42.37 14.62.38.13.37.38.37-19.46.38 19.09.37-9.44.38 9.4.37-4.81.37 5.05.38-14.84.37 14.46.37.01.38.04.37-19.52.38 14.21.37-.15.37 4.94.38-4.82.37 4.73.38-14.77.37 14.45.37.12.38-4.87.37-10.18.38 4.93.37 9.61.37-4.58.38 4.5.37.02.37-108.86.38 96.15.37 4.24.38-10.73.37 9.28.37-2.35.38 10.13.37-4.91.38 5.04.37-14.83"/><use xlink:href="#h" color="#29C3F6" transform="matrix(3.75 0 0 3.75 56.04 154.03)"/><use xlink:href="#h" color="#29C3F6" transform="matrix(3.75 0 0 3.75 95.45 22.51)"/></g><text fill="#000" stroke="none" stroke-linecap="round" stroke-linejoin="round" color="#000" font-family="KaTeX_Main" font-size="8" transform="translate(241.1 10.11)"><tspan>AVLWeakBottomUp</tspan></text><g fill="none" stroke="currentColor" stroke-linecap="round" stroke-linejoin="round" color="#000"><path stroke="#3B75EA" d="M205.6 7.51h29.9M28 159.63l.37-.24.38-9.83.37 9.39.38 5.28.37-4.99.37 4.28.38.41.37-10.19.38 5.29.37-4.86.37 9.44.38-14.7.37 9.56.37 4.88.38-4.72.37 4.48.38-9.35.37 4.68.37-.23.38-.07.37 15.95.38-13.38.37 9.9.37 4.98.38.64.37-5.35.38 4.84.37.15.37-9.78.38 9.67.37-9.63.37 9.9.38-4.59.37-.18.38-4.78.37 5.03.37 4.98.38-.29.37-4.69.38 4.18.37-4.59.37 5.43.38-4.96.37-5.32.38 10.4.37-5.29.37 5.65.38-14.76.37 9.83.38 4.96.37-.24.37-4.62.38 4.82.37-4.85.37 4.97.38.12.37-4.7.38-4.99.37 9.1.37-4.19.38-5.04.37 4.76.38.44.37 4.73.37.21.38-5.24.37.88.38 4.71.37.23.37.2.38-32.68.37 9.2.37 1.94.38-8.86.37 10.35.38 5.59.37-4.79.37.22.38 4.82.37.47.38-9.52.37-.05.37 9.67.38-14.65.37 9.9.38 4.81.37-5.08.37.01.38 4.9.37.12.38-10.03.37-.12.37.24.38 4.53.37.06.37 4.65.38-9.57.37 9.29.38.29.37-10.01.37 4.67.38-.14.37-5.42.38.6.37 9.82.37.31.38-10.48.37 9.98.38.13.37-10.21.37.34.38 4.74.37-5.07.37 5.24.38 4.75.37-9.7.38 9.65.37-.3.37-9.56.38 4.6.37 12.45.38.03.37-5 .37 10.15.38-4.49.37 4.84.38-.33.37-9.16.37 9.94.38-.2.37-.01.38-4.68.37-4.83.37 4.9.38-.13.37-4.45.37 9.59.38-5.48.37 4.94.38.03.37-9.79.37 10.19.38-.22.37-.3.38-4.35.37-4.92.37 4.61.38.61.37-.26.38.38.37.27.37 4.77.38.03.37.07.37-10 .38 9.62.37-.13.38.11.37-9.27.37 4.87.38-4.92.37 10.27.38-4.99.37-.3.37-.1.38 5.25.37.01.38-5.01.37-.49.37 5.65.38-26.61.37 4.32.38-3.2.37 5.57.37.79.38.62.37.3.37 5.08.38-9.41.37 9.56.38-4.56.37-.11.37-4.5.38 4.56.37.24.38-.37.37.3.37 4.92.38-9.7.37 9.56.38-4.97.37-.42.37-4.68.38 4.68.37-.02.37.11.38-.53.37 4.94.38-9.87.37 9.88.37-9.98.38 9.53.37-9.65.38-.22.37 4.78.37.08.38 4.92.37-9.59.38 9.29.37.13.37-10.13.38 9.96.37-14.84.38 9.68.37-.12.37.37.38 4.93.37-10.16.37 9.81.38-9.75.37 22.03.38.3.37-9.92.37.59.38 9.72.37-4.87.38-.21.37 5.13.37-.19.38-9.58.37 9.81.38-.08.37-10.15.37 9.79.38.61.37-5.02.37-9.85.38 14.85.37-9.4.38 9.74.37.02.37.09.38-4.92.37-.38.38 5.19.37-5.08.37-.19.38 4.68.37-4.55.38-9.66.37 14.59.37-4.09.38-.19.37 4.42.38.09.37-4.57.37-.04.38 4.85.37.38.37-9.87.38 9.72.37.64.38-9.87.37-.65.37 10.25.38-9.76.37 9.69.38.01.37-5.11.37 4.76.38-26.34.37 10.31.38-8.62.37 10.57.37-19.1.38 19.97.37-4.77.37-.02.38 5.35.37-4.75.38-.03.37 5.03.37-9.78.38 5.09.37-9.83.38 14.42.37-4.61.37.01.38 4.71.37-9.78.38 9.4.37-4.8.37-.3.38-.06.37-10.03.38 10.13.37 4.8.37-4.95.38.26.37-.44.37 5.18.38-10.23.37 10.14.38-14.74.37 9.61.37-.11.38.16.37 4.67.38-9.69.37 9.8.37-4.58.38-.33.37-.13.38-5.38.37.55.37 9.62.38-4.83.37 4.7.37-9.8.38 9.91.37 7.35.38.12.37 5.27.37-4.87.38-5.17.37-.2.38 10.08.37-.19.37-4.71.38 5.32.37-.02.38-9.98.37 10.13.37-4.99.38.4.37-.22.38 4.69.37-9.45.37 4.87.38-.26.37 5.05.37-4.88.38 4.93.37-.23.38-9.63.37 9.88.37-4.75.38 5 .37-9.36.38 9.61.37-10.34.37 4.98.38 5.13.37-5.05.38.18.37 4.89.37.49.38.45.37-10.2.37 9.77.38-4.96.37-.15.38.06.37.01.37.1.38-.22.37.27.38 5.17.37-4.69.37 4.83.38-21.88.37-5.67.38 11.21.37-8.66.37 5.75.38-4.61.37 5.22.38.33.37.36.37 4.75.38.25.37-10.19.37 10.16.38-9.77.37 4.8.38-4.94.37 4.76.37.3.38-.22.37 4.7.38.38.37-10.07.37 9.8.38-9.9.37 4.91.38-5.09.37-.14.37 9.74.38-5.14.37 5.04.37-5.16.38-.01.37 4.7.38-9.66.37-.16.37 5 .38-5.16.37 9.79.38-4.94.37 5.07.37-10.29.38 9.91.37-4.49.38-5.41.37-.02.37 4.61.38.14h.37l.38 4.96.37-4.42.37 12.15.38 4.87.37.04.37-14.14.38 14.72.37-10.1.38 10.01.37-9.85.37 9.3.38-4.47.37 5.18.38.35.37-4.63.37.01.38 4.47h.37l.38-10.07.37 4.9.37-4.79.38 10.25.37-9.48.37 9.57.38-.38.37-4.98.38 5.39.37-4.64.37 4.72.38-5.19.37 4.99.38-4.73.37-4.9.37.09.38 10.01.37-.29.38-9.71.37 9.91.37-4.86.38 5.06.37-5.18.38 5 .37-4.9.37 4.82.38-.11.37-9.49.37-.35.38 5.25.37 4.99.38-4.96.37.1.37 5.17.38-26.83.37 4.42.38 6.72.37-3.72.37 5.43.38-14.93.37 5.41.38 10.28.37-9.37.37 9.54.38-4.53.37.18.37 5.01.38-5 .37 4.78.38-14.9.37 4.94.37 9.7.38-9.67.37 9.7.38-4.74.37-.28.37.29.38 4.66.37-4.72.38-5.55.37-.14.37.25.38 9.42.37.03.37-5.16.38.22.37-.6.38 5.66.37-9.91.37 4.52.38-5.01.37-.23.38 9.82.37-4.97.37.15.38.01.37 4.79.38.55.37-10.31.37-.02.38-.63.37 5.13.38 4.91.37-4.87.37 12.64.38.33.37 4.9.37.09.38-4.83.37.03.38-.19.37-4.63.37 5.04.38-.07.37 5.07.38.11.37-10.24.37 9.67.38-.03.37-4.55.38 5.35.37-4.85.37-.05.38 4.65.37-4.97.37-9.5.38 9.72.37 4.44.38.06.37-4.62.37-.25.38 5.05.37-4.76.38 5.05.37-4.93.37.11.38 4.92.37-5.09.38-14.16.37 18.87.37.86.38-.35.37.09.38-9.24.37 9.3.37-4.5.38 4.88h.37l.37-9.87.38 10.24.37-.03.38-.25.37-24.45.37 24.59.38-21.96.37 5.1.38-8.75.37 10.91.37-4.48.38 5.55.37-9.94.38 10.53.37-14.69.37 5 .38 9.96.37-4.87.37.11.38 5.06.37-4.97.38.05.37-.34.37 4.61.38-13.97.37 4.2.38 9.79.37-4.62.37-.26.38 5.3.37-5.37.38-.09.37-.2.37 5.27.38-24.66.37 23.49.38.64.37-4.97.37.11.38-.12.37 4.62.37-9.6.38 9.75.37-.05.38-25.08.37 24.46.37-4.76.38-.22.37 4.82.38-4.53.37 4.98.37-10.02.38 9.9.37-19.58.38 13.67.37 5.11.37 8.24.38-.16.37 5.23.37-.18.38-4.63.37 5.11.38-4.83.37-.17.37 5.23.38-14.45.37 4.8.38 9.41.37.11.37.5.38-9.97.37 9.41.38.54.37-5.1.37 5.15.38.2.37-9.59.38 9.38.37-9.67.37 5.06.38-5.06.37 9.63.37-5.26.38 4.7.37-4.46.38 5.05.37-.45.37-5.01.38 5.67.37-4.74.38-.02.37-4.62.37 4.6.38-4.77.37 9.62.38-.13.37-5.2.37 5.43.38-4.5.37 4.72.37-4.62.38 5 .37-4.92.38 4.87.37-4.58.37-4.88.38-17.62.37-.48.38 11.84.37-4.06.37.8.38 5.24.37-4.52.38.18.37-.17.37-4.57.38 5.15.37-4.9.38 10.04.37-4.75.37-.24.38 4.93.37-5.08.37-.05.38-.07.37-4.6.38-.38.37 4.72.37.3.38 4.46.37-4.88.38 5.09.37-5.26.37-.12.38-4.69.37 4.22.38-4.62.37 4.38.37.37.38 4.59.37-4.6.37.06.38-.56.37 5.07.38-14.4.37 14.43.37-15.01.38 14.74.37-4.93.38 4.99.37-5.06.37-.14.38-.02.37.55.38-5.46.37-.22.37 18.09.38 4.43.37-4.25.38 5.29.37-.23.37-5.18.38 5.25.37-4.77.37-.46.38 4.97.37-13.97.38 13.91.37-4.39.37-5.32.38 9.73.37-5.09.38 5.19.37-4.2.37 4.74.38.2.37-4.76.38.03.37 4.2.37-4.16.38-5.01.37 4.96.37-4.79.38 9.83.37.09.38-5.03.37 4.12.37-4.84.38 5.44.37-.05.38-4.89.37.12.37.22.38-5.3.37 9.79.38-9.16.37 3.99.37 5.15.38-4.68.37 4.98.38-4.72.37 4.84.37.3.38.23.37-10.26.37 10.13.38-36.67.37 19.8.38-8.61.37 5.76.37.84.38 5.34.37-4.78.38 5.08.37-4.81.37.1.38-9.42.37 14.36.38-9.57.37 5 .37-.02.38-.07.37 5.09.37-.2.38-4.85.37-.08.38-9.78.37 14.31.37-9.58.38 4.83.37-.18.38-.22.37 4.9.37.02.38-4.93.37-4.95.38-.45.37-.13.37 4.65.38 5.42.37-5.39.38.07.37 5.04.37.16.38-4.84.37-10.48.37 9.8.38-4.9.37 4.81.38-.28.37.04.37 5.18.38.34.37-.23.38-14.98.37 4.3.37 22.7.38-9 .37 4.73.38 5.15.37-5.08.37-.24.38 5.49.37-.06.37.55.38-.21.37-10.03.38 4.86.37-4.2.37 9.8.38-9.71.37 9.95.38-5.07.37 4.65.37-4.9.38.17.37 4.24.38.07.37.37.37-5.15.38-4.5.37 5.21.38-.26.37-.1.37.01.38-.4.37 5.28.37-5.09.38.26.37 4.72.38.25.37-.26.37.47.38-14.65.37 14.47.38-9.8.37 10.05.37-9.81.38 9.51.37-5.26.38.02.37 5.54.37-4.96.38 5.21.37.24.37.42.38-31.94.37 8.72.38-2.89.37 5.85.37.48.38.63.37.11.38.41.37 5.06.37.14.38-9.42.37 4.15.38-4.36.37 4.77.37.35.38-.4.37-.1.38.11.37 5.04.37.05.38-10.12.37-.11.37 4.81.38-.01.37-4.9.38 4.93.37-.19.37 4.66.38.28.37-.19.38-14.49.37 9.31.37.24.38-4.83.37 4.17.38.35.37.23.37 4.87.38-.31.37-4.63.37-10.28.38 14.5.37-9.58.38 4.58.37-4.66.37 4.55.38 5.14.37.09.38-.11.37-9.75"/><use xlink:href="#d" color="#3B75EA" transform="matrix(3.75 0 0 3.75 113.62 175.86)"/><use xlink:href="#d" color="#3B75EA" transform="matrix(3.75 0 0 3.75 220.55 7.51)"/></g><text fill="#000" stroke="none" stroke-linecap="round" stroke-linejoin="round" color="#000" font-family="KaTeX_Main" font-size="8" transform="translate(241.1 25.11)"><tspan>AVLWeakTopDown</tspan></text><g fill="none" stroke="currentColor" stroke-linecap="round" stroke-linejoin="round" color="#000"><path stroke="#00C853" stroke-dasharray="4.5,2.0,0.5,2.0,0.5,2.0" d="M205.6 22.51h29.9M28 155.9l.37-.04.38 4.51.37-9.38.38 4.53.37-5.1.37-.37.38 4.84.37 4.91.38.41.37-4.99.37-.47.38.5.37-.62.37.15.38-4.92.37-.68.38 4.8.37 5.22.37-5.24.38.25.37 8.9.38-4.31.37-5.27.37 4.86.38-9.09.37 10.05.38 5.19.37-5.22.37 5.02.38-4.5.37 4.71.37-9.58.38 4.76.37-9.61.38 5.05.37 9.24.37-.46.38-4.25.37 5.26.38-5.33.37-4.14.37 4.72.38-4.52.37-.26.38 4.87.37 5.14.37-.07.38-4.61.37.17.38 5.11.37-14.88.37 9.44.38-.17.37-4.71.37 4.94.38 4.52.37-4.62.38 4.76.37-4.63.37 4.71.38-13.93.37 9.12.38-4.74.37-.03.37 10.14.38-.02.37-4.73.38 5.01.37-4.76.37-.03.38-19.22.37 10.22.37-3.54.38.94.37 10.43.38.16.37.47.37-4.55.38-.15.37.62.38-5.23.37 5.05.37-.22.38-9.35.37 14.02.38.3.37.33.37-4.95.38-.22.37-.25.38-4.85.37.09.37 9.06.38-14.25.37 14.42.37.4.38.09.37-5.12.38-.17.37.01.37-5.3.38.15.37 4.47.38-4.7.37 9.9.37-.75.38.5.37-5.5.38.16.37.11.37-5.13.38-.28.37 4.99.37-5.38.38 10.06.37.12.38-4.83.37 5.01.37-5.1.38-10.04.37 14.27.38-4.3.37 5.58.37-.19.38 4.15.37-4.67.38 5.33.37-5.22.37.15.38-4.99.37-.33.38.29.37 4.77.37 4.88.38.1.37-4.23.37 4.19.38-4.08.37-10.02.38 5.19.37 9.98.37-9.73.38 4.63.37 5.04.38-.29.37-4.94.37.27.38.28.37-4.79.38.25.37-.12.37 4.86.38 4.91.37.43.37-5.42.38 5.13.37-5.05.38-4.73.37.07.37 4.71.38-4.82.37 4.89.38 5.3.37-.63.37-4.32.38 5.38.37-10.12.38 5.06.37-4.94.37 5.3.38-20.12.37 9.83.38 7.14.37.76.37-4.41.38 4.99.37-9.02.37 9.93.38-9.4.37.03.38-.28.37 4.96.37 5.08.38.05.37-5.34.38 5.3.37-9.83.37 9.73.38-9.95.37-.57.38.61.37 4.55.37 5.15.38-.14.37-4.66.37 4.7.38-9.87.37 9.57.38-9.86.37.04.37-4.97.38 14.09.37.42.38-.18.37-4.91.37 5.1.38-10.37.37 5.16.38-4.98.37 4.28.37-9.67.38 14.96.37-.48.38.42.37-5.24.37.44.38-.37.37-5.24.37 4.45.38-4.88.37 5.07.38 9.63.37.25.37-4.92.38.54.37-.2.38.01.37-4.99.37 4.98.38-9.74.37 14.52.38.3.37.07.37-4.56.38-4.72.37 9.87.37-5.07.38-9.51.37-.09.38 15.11.37.05.37.26.38-5.48.37 4.19.38-9.29.37 5.25.37.25.38-4.92.37-5.43.38 14.89.37.34.37.3.38-4.54.37-.46.38.19.37.33.37-4.93.38-.63.37.26.37 10.3.38-.35.37.39.38-5.04.37-.01.37-4.95.38 9.73.37-9.43.38-.31.37.04.37 10.37.38-15.42.37 5.28.38-3.36.37 1.11.37-4.42.38 10.35.37-9.26.37-5.06.38 9.91.37 5.42.38-.16.37.29.37-4.86.38 4.62.37-9.71.38 5.12.37.02.37-19.79.38 24.37.37.01.38-.08.37.14.37-4.99.38.01.37-5.13.38 9.3.37-9.71.37-10.26.38 19.46.37.73.37-.1.38-.12.37-5.14.38.12.37-5.37.37 9.88.38-10.18.37-10.27.38 20 .37.35.37-.22.38-4.63.37 4.34.38-4.92.37-4.88.37 9.7.38-19.89.37 8.97.37 10.89.38-.03.37 5.46.38-5.45.37 4.62.37-14.25.38 14.66.37-14.91.38 5.45.37 4.71.37 5.3.38-1.03.37-4.4.38 4.85.37-4.42.37-5.12.38 5.18.37-14.6.38 14.43.37 5.03.37.04.38-4.71.37 4.87.37-5.04.38-3.9.37 9.13.38-14.44.37-.3.37 14.75.38.27.37.17.38-4.28.37 4.42.37-5.07.38-4.45.37 9.92.38-15.34.37.49.37 14.48.38.09.37.12.37-4.37.38 4.27.37-5.01.38-4.69.37 5 .37-4.77.38-4.58.37 14.49.38-.17.37.09.37-4.19.38-10.01.37.07.38-3.83.37 6.22.37-4.37.38-4.89.37 15.29.38.49.37.18.37-5.03.38 5.19.37-4.97.37-4.88.38 5.02.37-5.07.38-4.79.37 14.49.37.44.38-.27.37-4.52.38 4.52.37-5.01.37-4.85.38 4.75.37-5.24.38-4.91.37 14.8.37-.18.38-.01.37-4.87.37 4.84.38-4.94.37-5.58.38 5.17.37-10.01.37 4.24.38 10.21.37-.3.38.34.37-5.23.37 5.18.38-14.68.37 9.38.38 4.92.37-25.2.37 24.58.38.44.37.41.38-.39.37-4.74.37 4.95.38-4.38.37 4.49.37-4.78.38-5.6.37 14.73.38-.11.37.46.37-4.84.38 4.89.37-14.05.38 9.48.37-5.53.37.43.38 4.1.37 5.69.38.03.37-4.74.37 5.05.38-4.27.37-10.15.37 14.36.38-9.67.37-4.51.38 14.44.37-.32.37.42.38-5.02.37-.02.38-4.74.37 5.59.37-4.83.38-.55.37 5.55.38 4.91.37.35.37-.21.38-5.15.37-.02.38-9.02.37 13.49.37-9.73.38.81.37 4.81.37 4.96.38-.53.37.39.38-4.87.37.69.37-10.04.38-.1.37-4.56.38 1.32.37 10.94.37-4.49.38 5.23.37.61.38-4.76.37.41.37-10.16.38 14.93.37-9.51.37-.12.38 9.81.37-4.71.38 4.64.37.43.37-5.19.38-.16.37-9.8.38 14.78.37-10 .37-.56.38 5.17.37 4.89.38.16.37.2.37-5.43.38.17.37-9.87.37 14.3.38-9.87.37-.23.38 4.74.37 4.87.37.57.38-.12.37-4.97h.38l.37-10.42.37 9.66.38-4.49.37 3.97.38.26.37 4.88.37.29.38.29.37-5.07.38-15.29.37 19.66.37-.47.38-8.86.37 9.79.37 4.74.38.06.37.17.38-4.55.37 4.41.37-19.57.38 15.13.37-.35.38-5.59.37 5.19.37 4.6.38.35.37-4.26.38 4.72.37-19.38.37 19.52.38-9.62.37.18.37 5.3.38 4.63.37-.89.38-4.17.37 5.07.37-9.63.38-.47.37 5.76.38-5.04.37 4.84.37.09.38 5.04.37.49.38-4.82.37 4.82.37-14.8.38 9.89.37-.64.38-4.11.37 4.28.37-.52.38 5.45.37.3.37-5.2.38 4.94.37-9.67.38.41.37 5.07.37-4.82.38-10.81.37 6.3.38 5.99.37 1.33.37-4.67.38 5.35.37-9.71.38.65.37 4.53.37-4.28.38 4.59.37.25.37 4.56.38-.08.37-4.28.38 4.7.37-9.89.37-.17.38 5.11.37-5.27.38 4.7.37.18.37 5.06.38.06.37-4.68.38 4.58.37-9.86.37.08.38 4.36.37-4.69.38 4.85.37-.25.37 5.23.38-.24.37-5.3.37 5.34.38-15.2.37 9.77.38-4.93.37 4.37.37.34.38-.19.37 4.59.38-4.62.37 4.89.37.39.38-20.04.37 19.25.38-9.71.37-.54.37 14.88.38-4.82.37 4.67.37-4.72.38 4.76.37-9.92.38.93.37 5.22.37-9.93.38 14.3.37-5.65.38 5.45.37-4.55.37 5.39.38-5.61.37-9.5.38 14.76.37-14.63.37 9.55.38.39.37 4.84.38-.16.37-4.73.37 4.82.38-9.2.37-.24.37.22.38-.05.37 10.08.38-5.24.37 5.14.37-4.37.38 4.24.37-4.95.38-4.85.37 5.33.37-4.89.38.31.37 9.61.38-5.37.37 5.08.37-4.67.38 5.51.37-9.6.37 4.35.38-.42.37-10.22.38 10.21.37 5.49.37-4.68.38-9.8.37.36.38 6.75.37-8.94.37 5.26.38.11.37-9.36.38 10.05.37 4.92.37-4.62.38 5.06.37-5.2.38 5.33.37-9.72.37 4.88.38-.03.37-5.04.37.01.38 9.64.37-4.71.38-.18.37 4.62.37.41.38-10.08.37 4.67.38.04.37-4.93.37-.75.38 9.76.37-4.82.38.54.37 4.3.37.41.38-10.14.37 4.56.37-4.58.38 4.43.37-5.13.38 10.08.37-4.97.37-.48.38 5.33.37-10.2.38 5.1.37-.18.37-4.97.38-.02.37 9.9.38-5 .37-.11.37 9.32.38.1.37-9.17.38 4.63.37-4.76.37 4.76.38-4.66.37 9.77.37-5.23.38.07.37 5.29.38-9.64.37 4.52.37.55.38-5.15.37.27.38 10.24.37-5.06.37.33.38 4.74.37-5.05.38-4.79.37 9.89.37-14.54.38 14.49.37-9.85.37 5.25.38 5.42.37-5.04.38 4.62.37-9.05.37 4.65.38 5 .37-14.83.38 14.86.37-9.92.37 4.69.38.19.37 5.22.38-.45.37-9.72.37 5.31.38-.42.37-4.79.38.09.37 9.63.37-4.48.38.06.37 5.17.37.56.38-30.52.37 19.96.38-2.57.37-4.16.37 5.34.38-.04.37 5.64.38-9.41.37 9.52.37.08.38-9.64.37 4.94.38.06.37-4.67.37 9.46.38-10.21.37 10.5.37-9.69.38 8.96.37.3.38-14.49.37 14.5.37-4.36.38-5.25.37 4.77.38-.32.37 5.18.37-10.26.38 9.84.37-4.65.38-5.3.37 9.28.37-4.71.38-5 .37.13.38 9.76.37.09.37-10.13.38 9.73.37-4.66.37-5.28.38 9.85.37-4.83.38-5.13.37-.14.37 9.84.38-10.03.37 9.47.38-4.48.37 4.64.37-4.18.38 4.43.37-5.14.38-.89.37 10.83.37.2.38-9.88.37 9.72.37-4.81.38-4.2.37 4.57.38 4.86.37-15.04.37 9.67.38 4.96.37-9.57.38 10.37.37-4.69.37-.5.38.28.37-.15.38-4.2.37 4.3.37.67.38 4.84.37-9.81.38 4.66.37 5.1.37-9.24.38 5.12.37-1.02.37.3.38-5.06.37 9.63.38.29.37-9.32.37 4.98.38 4.56.37-9.81.38 4.85.37.33.37-.06.38-5.09.37 10.47.38-5.1.37.16.37.26.38 4.7.37-9.58.37 4.63.38-15.09.37 5.64.38-3.43.37 10.74.37-4.5.38.53.37.75.38 5.1.37-10.04.37 10.26.38-9.97.37 4.69.38-5.11.37 10.47.37-4.74.38-.22.37-.01.38 4.63.37-9.62.37 9.13.38-9.01.37 4.65.37-5.14.38 9.69.37-4.78.38-.6.37.13.37 4.89.38-9.77.37 9.51.38-9.9.37 5.09.37-5.61.38 10.52.37-4.85.38-.47.37.09.37-4.61.38 9.14.37-4.84.37-5 .38 4.84.37-.58.38.21.37 4.99.37-4.75.38-.24.37-4.92.38 9.98.37-5.16"/><use xlink:href="#i" color="#00C853" transform="matrix(3.75 0 0 3.75 171.2 151.5)"/><use xlink:href="#i" color="#00C853" transform="matrix(3.75 0 0 3.75 220.55 22.51)"/></g><path fill="none" stroke="none" stroke-linecap="round" stroke-linejoin="round" stroke-width="0" d="M28 45.01V205M371.99 45.01H28" color="#000"/></svg>