<svg xmlns="http://www.w3.org/2000/svg" xmlns:xlink="http://www.w3.org/1999/xlink" viewBox="0 0 400 250"><path fill="none" d="M0 0h400v250H0z"/><defs><path id="c" stroke="currentColor" stroke-width=".267" d="M-1 0h2M0-1v2"/><path id="d" stroke="currentColor" stroke-width=".267" d="m-1-1 2 2m0-2-2 2"/><path id="e" stroke="currentColor" stroke-width=".267" d="M-1 0h2M0-1v2m-1-2 2 2m-2 0 2-2"/><path id="b" stroke="currentColor" stroke-width=".267" d="M-1-1h2v2h-2z"/><path id="a" stroke="currentColor" stroke-width=".267" d="m0-1.33-1.33 2h2.66z"/></defs><path fill="none" stroke="#333" stroke-linecap="round" stroke-linejoin="round" stroke-width=".1" d="M46.1 205V45.01" class="gridline" color="#000"/><g fill="none" stroke-linecap="round" stroke-linejoin="round" stroke-width="0" color="#000"><path d="M46.1 205v-7.5m0-152.49v7.5"/><text fill="#000" font-family="KaTeX_Main" font-size="10" text-anchor="middle" transform="translate(46.1 215.75)"><tspan> 1</tspan></text></g><path fill="none" stroke="#333" stroke-linecap="round" stroke-linejoin="round" stroke-width=".1" d="M82.31 205V45.01" class="gridline" color="#000"/><g fill="none" stroke-linecap="round" stroke-linejoin="round" stroke-width="0" color="#000"><path d="M82.31 205v-7.5m0-152.49v7.5"/><text fill="#000" font-family="KaTeX_Main" font-size="10" text-anchor="middle" transform="translate(82.31 215.75)"><tspan> 2</tspan></text></g><path fill="none" stroke="#333" stroke-linecap="round" stroke-linejoin="round" stroke-width=".1" d="M118.52 205V45.01" class="gridline" color="#000"/><g fill="none" stroke-linecap="round" stroke-linejoin="round" stroke-width="0" color="#000"><path d="M118.52 205v-7.5m0-152.49v7.5"/><text fill="#000" font-family="KaTeX_Main" font-size="10" text-anchor="middle" transform="translate(118.52 215.75)"><tspan> 3</tspan></text></g><path fill="none" stroke="#333" stroke-linecap="round" stroke-linejoin="round" stroke-width=".1" d="M154.73 205V45.01" class="gridline" color="#000"/><g fill="none" stroke-linecap="round" stroke-linejoin="round" stroke-width="0" color="#000"><path d="M154.73 205v-7.5m0-152.49v7.5"/><text fill="#000" font-family="KaTeX_Main" font-size="10" text-anchor="middle" transform="translate(154.73 215.75)"><tspan> 4</tspan></text></g><path fill="none" stroke="#333" stroke-linecap="round" stroke-linejoin="round" stroke-width=".1" d="M190.94 205V45.01" class="gridline" color="#000"/><g fill="none" stroke-linecap="round" stroke-linejoin="round" stroke-width="0" color="#000"><path d="M190.94 205v-7.5m0-152.49v7.5"/><text fill="#000" font-family="KaTeX_Main" font-size="10" text-anchor="middle" transform="translate(190.94 215.75)"><tspan> 5</tspan></text></g><path fill="none" stroke="#333" stroke-linecap="round" stroke-linejoin="round" stroke-width=".1" d="M227.15 205V45.01" class="gridline" color="#000"/><g fill="none" stroke-linecap="round" stroke-linejoin="round" stroke-width="0" color="#000"><path d="M227.15 205v-7.5m0-152.49v7.5"/><text fill="#000" font-family="KaTeX_Main" font-size="10" text-anchor="middle" transform="translate(227.15 215.75)"><tspan> 6</tspan></text></g><path fill="none" stroke="#333" stroke-linecap="round" stroke-linejoin="round" stroke-width=".1" d="M263.36 205V45.01" class="gridline" color="#000"/><g fill="none" stroke-linecap="round" stroke-linejoin="round" stroke-width="0" color="#000"><path d="M263.36 205v-7.5m0-152.49v7.5"/><text fill="#000" font-family="KaTeX_Main" font-size="10" text-anchor="middle" transform="translate(263.36 215.75)"><tspan> 7</tspan></text></g><path fill="none" stroke="#333" stroke-linecap="round" stroke-linejoin="round" stroke-width=".1" d="M299.57 205V45.01" class="gridline" color="#000"/><g fill="none" stroke-linecap="round" stroke-linejoin="round" stroke-width="0" color="#000"><path d="M299.57 205v-7.5m0-152.49v7.5"/><text fill="#000" font-family="KaTeX_Main" font-size="10" text-anchor="middle" transform="translate(299.57 215.75)"><tspan> 8</tspan></text></g><path fill="none" stroke="#333" stroke-linecap="round" stroke-linejoin="round" stroke-width=".1" d="M335.78 205V45.01" class="gridline" color="#000"/><g fill="none" stroke-linecap="round" stroke-linejoin="round" stroke-width="0" color="#000"><path d="M335.78 205v-7.5m0-152.49v7.5"/><text fill="#000" font-family="KaTeX_Main" font-size="10" text-anchor="middle" transform="translate(335.78 215.75)"><tspan> 9</tspan></text></g><path fill="none" stroke="#333" stroke-linecap="round" stroke-linejoin="round" stroke-width=".1" d="M371.99 205V45.01" class="gridline" color="#000"/><g fill="none" stroke-linecap="round" stroke-linejoin="round" stroke-width="0" color="#000"><path d="M371.99 205v-7.5m0-152.49v7.5"/><text fill="#000" font-family="KaTeX_Main" font-size="10" text-anchor="middle" transform="translate(371.99 215.75)"><tspan> 10</tspan></text></g><g fill="none" stroke-linecap="round" stroke-linejoin="round" stroke-width="0" color="#000"><path d="M371.99 205h-7.5"/><text fill="#000" font-family="KaTeX_Main" font-size="10" transform="translate(378.99 208.25)"><tspan>0.75</tspan></text></g><g fill="none" stroke-linecap="round" stroke-linejoin="round" stroke-width="0" color="#000"><path d="M371.99 185h-7.5"/><text fill="#000" font-family="KaTeX_Main" font-size="10" transform="translate(378.99 188.25)"><tspan>0.80</tspan></text></g><g fill="none" stroke-linecap="round" stroke-linejoin="round" stroke-width="0" color="#000"><path d="M371.99 165h-7.5"/><text fill="#000" font-family="KaTeX_Main" font-size="10" transform="translate(378.99 168.25)"><tspan>0.85</tspan></text></g><g fill="none" stroke-linecap="round" stroke-linejoin="round" stroke-width="0" color="#000"><path d="M371.99 145h-7.5"/><text fill="#000" font-family="KaTeX_Main" font-size="10" transform="translate(378.99 148.25)"><tspan>0.90</tspan></text></g><g fill="none" stroke-linecap="round" stroke-linejoin="round" stroke-width="0" color="#000"><path d="M371.99 125h-7.5"/><text fill="#000" font-family="KaTeX_Main" font-size="10" transform="translate(378.99 128.25)"><tspan>0.95</tspan></text></g><g fill="none" stroke-linecap="round" stroke-linejoin="round" stroke-width="0" color="#000"><path d="M371.99 105.01h-7.5"/><text fill="#000" font-family="KaTeX_Main" font-size="10" transform="translate(378.99 108.26)"><tspan>1.00</tspan></text></g><g fill="none" stroke-linecap="round" stroke-linejoin="round" stroke-width="0" color="#000"><path d="M371.99 85.01h-7.5"/><text fill="#000" font-family="KaTeX_Main" font-size="10" transform="translate(378.99 88.26)"><tspan>1.05</tspan></text></g><g fill="none" stroke-linecap="round" stroke-linejoin="round" stroke-width="0" color="#000"><path d="M371.99 65.01h-7.5"/><text fill="#000" font-family="KaTeX_Main" font-size="10" transform="translate(378.99 68.26)"><tspan>1.10</tspan></text></g><g fill="none" stroke-linecap="round" stroke-linejoin="round" stroke-width="0" color="#000"><path d="M371.99 45.01h-7.5"/><text fill="#000" font-family="KaTeX_Main" font-size="10" transform="translate(378.99 48.26)"><tspan>1.15</tspan></text></g><path fill="none" d="M28 45.01V205M371.99 45.01H28" color="#000"/><text stroke-linecap="round" stroke-linejoin="round" stroke-width="0" color="#000" font-family="KaTeX_Main" font-size="10" text-anchor="middle" transform="rotate(-90 68.255 56.755)"><tspan font-weight="bold">Allocations </tspan><tspan> / log</tspan><tspan dy="3" font-size="8">2</tspan><tspan dy="-3">(Size)</tspan></text><text stroke-linecap="round" stroke-linejoin="round" stroke-width="0" color="#000" font-family="KaTeX_Main" font-size="10" text-anchor="middle" transform="translate(199.99 238.25)"><tspan>Operations × 10</tspan><tspan dy="-5" font-size="8">5</tspan></text><text stroke-linecap="round" stroke-linejoin="round" color="#000" font-family="KaTeX_Main" font-size="8" transform="translate(116 10.11)"><tspan>AVLBottomUp</tspan></text><g fill="none" stroke="currentColor" stroke-linecap="round" stroke-linejoin="round" color="#000"><path stroke="#000" d="M80.5 7.51h29.9M28 62l.36 1.26.36-.84.37-.99.36 1.73.36.72.36-1.01.36-1.72.37.75.36 5.12.36-1.83.36-1.32.37-.69.36-.42.36.13.36 2.97.36-5.03.37-3.93.36-.67.36.61.36 1.86.36-1.86.37 1.24.36-1.51.36-.79.36 1.91.36-1.52.37-.01.36 1.94.36-.01.36-1.04.36 3.64.37.75.36-.91.36-.38.36 1.15.37.82.36.79.36.48.36-.7.36-1.2.37 1.36.36-.82.36-.79.36-.45.36.71.37 4.24.36-1.2.36.04.36-.63.36.51.37 48.07.36 9.65.36 3.65.36-4.97.37 3.2.36 6.15.36-3.04.36 1.05.36 4.1.37.48.36 4.76.36 5.01.36-10.16.36-1.21.37-1.09.36 1.06.36-7.3.36 7.91.36-4.36.37 5.48.36-6.03.36 3.8.36-.78.37 3.1.36-1.33.36 4.78.36 5.08.36.22.37.35.36-13.17.36-3.83.36 1.07.36-1.84.37 8.53.36 3.24.36 4.02.36-4.56.36-4.32.37 1.87.36 3.22.36-8.49.36 8.28.36-4.8.37-2.65.36 1.8.36 4.72.36-.46.37-1.45.36 7.68.36-12.15.36-61.03.36-2.92.37-.67.36-.12.36.23.36-1.25.36 1.73.37-.13.36-.23.36 2.22.36 1.33.36-1.69.37-1.37.36-1.18.36 1.34.36-2.96.37-.69.36 2.95.36.3.36-1.15.36 1.9.37.88.36 2.21.36-1.8.36-2.35.36-.69.37-.34.36-.83.36.91.36-1.09.36 2.38.37.65.36-.93.36 1.68.36 1.95.36-2.21.37-.55.36 1.4.36-1.81.36-.58.37 2.61.36-.73.36-.44.36.29.36-1.31.37-.11.36-.7.36.26.36-.63.36 2.69.37 57.59.36 3.61.36 6.33.36-7.42.36 8.16.37-2.89.36 1.53.36 3.23.36 12.56.37-6.58.36 1.91.36-6.41.36.77.36-2.03.37-7.31.36-5.32.36 6.27.36 2.13.36-.78.37-4.06.36 2.04.36 7.38.36-5.18.36-11.79.37 4.36.36 6.77.36-1.94.36 2.53.36-3.59.37 4.22.36 4.23.36-8.83.36 6.88.37-2.93.36 3.6.36 2.74.36 6.13.36-7.94.37-2.91.36 2.59.36-2.15.36 2.48.36-.74.37-1.9.36 3.8.36 2.54.36-6 .36 5.16.37-.26.36-9.4.36-56.16.36-1.85.37-4.13.36-1.1.36-2.31.36-2.32.36-1.17.37 1.34.36 2.16.36-.76.36-1.17.36-.77.37 1.93.36 3.02.36-4.16.36-.53.36-.3.37-.82.36-.9.36.05.36-.3.37-1.45.36 2.97.36-1.21.36-.48.36.19.37.27.36.92.36.88.36 1.22.36 2 .37-1.28.36-1.45.36-.38.36-2.12.36.59.37.91.36-1.39.36-.42.36 4.09.36 1.09.37-.95.36-.71.36-.13.36-1.53.37.52.36-1.11.36 2.04.36.87.36.38.37 57.54.36 7.49.36-7.3.36 14.74.36-13.39.37-1.35.36-.75.36 1.24.36 7.23.36 3.21.37 1.54.36-1.38.36-4.52.36-2.73.37 3.41.36 4.8.36-1.11.36 2.79.36 3.02.37 3.44.36 2.24.36-6.57.36 4.75.36-10.05.37-6.86.36 3.33.36-6.37.36-1.19.36 6.61.37.56.36-5.1.36 7.51.36 1.76.36 5.61.37-2.81.36-2.86.36 7.13.36-2.11.37-11.2.36 1.9.36 5.83.36 4.02.36-7.66.37-4.18.36 10.06.36-2.1.36 3.01.36-3.39.37 2.94.36-9.55.36-53.86.36-1.9.36-2.62.37 2.12.36-.67.36-.79.36-.12.37-2.04.36-1.12.36-.82.36-.18.36-.18.37-.47.36-4.06.36-1.28.36-.83.36-1.53.37.09.36-.54.36-2.38.36 1.11.36 1.78.37-.66.36-1.5.36 1.56.36-.05.36-.17.37-.92.36 5.61.36.4.36-.64.37.15.36.2.36.24.36-.09.36 3.62.37-1.16.36.06.36-.66.36-.37.36-1.92.37-.16.36.93.36-1.19.36.72.36-1.23.37.64.36.21.36 1.03.36.24.37 57.98.36 6.1.36 7.41.36-6.84.36.33.37 4.05.36 3.23.36 1.05.36 7.96.36-9.5.37-4.86.36 1.49.36-2.32.36-1.56.36 5.02.37 5.71.36 2.78.36-14.06.36 11.42.37 5.87.36-3.11.36 1.9.36-17.5.36 2.83.37 5.09.36-1.84.36-2.03.36.9.36-3.93.37 5.32.36-7.65.36 8.1.36 7.7.36-10.47.37-.03.36 2.1.36.71.36-1.94.36.35.37.94.36 1.86.36 4.01.36-.6.37-.23.36-6.5.36 3.05.36-2 .36 3.75.37.56.36 8.65.36-71.91.36-2.8.36-2.09.37-.67.36 4.42.36-.79.36-2.65.36 2.85.37-.09.36.01.36-1.15.36-.28.37-5.08.36-.82.36-.48.36-.93.36-2.03.37-.89.36-.64.36 3.33.36 1.03.36-2.48.37-.25.36 1.75.36 1.98.36-2.18.36.28.37-.3.36-.75.36-.59.36 1.25.36-.7.37-.07.36 3.15.36 2.43.36-.48.37-.37.36.22.36-.76.36-.39.36.89.37-.7.36 6.59.36 1.52.36-1.28.36-.67.37-1.48.36 1.46.36-.57.36-.1.36 55.52.37-3.17.36 6.72.36-1.52.36 1.48.37 1.24.36 2.62.36 6.04.36-6.12.36-8.48.37 4.97.36-2.58.36 2.79.36 5.7.36 2.02.37 2.08.36-2.2.36-6.58.36 2.53.36-4.98.37 3.02.36-1.51.36 2.38.36 1.52.37 5.17.36-2.09.36-2.73.36 1.34.36-2.03.37 2.19.36-2.08.36 2.54.36 6.38.36-5.97.37 4.08.36 2.89.36-9.71.36-2.65.36 6.68.37-1.17.36 6.82.36-1.13.36-1.37.36 2.84.37-1.58.36-11.23.36.17.36 4.8.37 4.66.36-8.37.36-61.14.36-.89.36-1.66.37-.36.36-.76.36-2.42.36-1.51.36 2.28.37-.47.36.5.36-1.09.36-3.49.36-2.41.37-.17.36-.45.36-.84.36.02.37-.4.36.56.36 4.11.36-1.14.36.19.37-1.84.36-.26.36-1.14.36-1.16.36 3.93.37.68.36 2.66.36-1.39.36-.35.36-1.86.37.03.36 1.09.36 1.29.36-1.02.36-.41.37.38.36-1.26.36 2.63.36 1.61.37 4.43.36-.86.36 1.62.36-.83.36-1.61.37.22.36.58.36-1.6.36-1.97.36 64.22.37-1.12.36-.6.36.84.36 1.88.36 2.75.37 5.37.36-3.15.36-4.42.36-3.01.37 7.31.36-4.08.36 3.96.36-3.82.36 1.3.37 10.69.36-1.21.36-1.16.36 1.15.36-6.35.37.87.36 3.02.36-8.15.36 7.16.36-6.53.37 3.85.36-2.03.36.5.36-6.21.36 3.67.37 5.71.36 5.77.36-1.2.36 4.2.37-.42.36-4.43.36 2.37.36.91.36 7.53.37 2.39.36-16.03.36-5.11.36 4.37.36 1.85.37 4.08.36-13.89.36 3.16.36 7.49.36-5.34.37-12.59.36-57.03.36-2.03.36 1.18.37-.13.36-2.31.36 2.47.36.19.36-.75.37-.58.36 3.01.36-4.79.36-3.22.36.35.37.74.36 4.79.36-.43.36-1.34.36 2.74.37.62.36.05.36-1.77.36 2.41.37-1.08.36-.59.36-.47.36-1.31.36-.1.37.21.36-.36.36-.7.36 2.03.36 1.77.37-.62.36-1.02.36 3.63.36.04.36.34.37-.71.36-.37.36-.05.36.26.36.23.37.7.36-.83.36-.53.36.36.37-.18.36 3.76.36-1.68.36 2.23.36 61.05.37-2.38.36-2.65.36 4.37.36 9.17.36-2.23.37-2.42.36-10.43.36 7.22.36 4.8.36-1.52.37-7.42.36 6.18.36 1.18.36-1.47.37-4.8.36 12.03.36.97.36 3.62.36-16.11.37 5.05.36-2.31.36 9.27.36-11.09.36-2.57.37 2.9.36-5.68.36 6.75.36 4.37.36 1.02.37 8.82.36-6.02.36-1.53.36-3.32.36 4.69.37-4.77.36.75.36 3.65.36 3.27.37-9.75.36-.36.36 9.48.36-7.75.36-6.25.37 5.03.36 1.68.36 1.56.36-9.77.36 6.06.37 5.94.36-72.85.36-.4.36-.56.36 1.46.37.47.36.89.36-2.82.36-1.73.37.83.36-.38.36-4.99.36-.38.36.48.37 1.8.36 2.59.36 6.21.36-1.79.36-2.37.37-1.42.36-1.55.36 4.09.36.47.36-.74.37-1.72.36.28.36 1.6.36 1.39.36-.48.37 1.33.36-2.12.36-.46.36-.87.37 1.53.36-1.66.36-.05.36-.07.36-.88.37 2.01.36.65.36-.39.36-2.04.36-1.73.37.39.36-.51.36 1.66.36-1.86.36.97.37-.85.36 1.47.36 2.71.36 51.7.37 6.75.36 5.06.36.24.36 4.78.36-3.99.37 1.78.36 6.51.36-.24.36-8.07.36.7.37 5.79.36 5.28.36-6.77.36-5.15.36 8.84.37-1.09.36-3.73.36-9.44.36 1.67.37.44.36 9.69.36-4.57.36-6.44.36 4.95.37.44.36-4.93.36 3.74.36 4.91.36 6.13.37-1.92.36-6.78.36 3.5.36 4.51.36-5.79.37 6.68.36-1.92.36-.94.36 3.99.36-8.73.37 5.38.36-6.44.36 4.43.36-4.96.37 7.08.36 1.87.36-3.3.36 1.55.36 8.75.37-5.73.36-68.88.36-1.44.36-3.64.36.43.37-1.84.36 2.9.36-3.05.36-.9.36-1.26.37-5.36.36-.17.36-1.51.36 1.79.37 1.81.36-.46.36-.28.36 1.23.36-1.4.37-.81.36-.64.36.5.36 3.16.36-.18.37-.08.36-1.74.36 1.07.36-.06.36.22.37-.3.36 2.23.36.32.36-.76.36-1.02.37 1.69.36-1.33.36 2.73.36 1.47.37-1.42.36-.86.36-.8.36 1.57.36-.63.37.68.36.84.36.02.36-1.46.36.63.37-1.58.36-1.48.36 2.22.36 57.88.36 4.65.37 3.72.36 3.07.36-5.41.36 1.66.37-1.99.36 2.81.36 1.4.36-2.56.36 8.79.37-13.17.36 7.13.36-.05.36 4.11.36 3.75.37-1.27.36-.4.36-11.89.36.78.36 9.19.37-4.46.36-2.43.36 5.06.36-3.24.36 1.13.37.74.36-3.1.36 8.25.36-3.82.37 5.58.36.98.36-14.38.36 2.36.36 4.42.37 2.75.36.63.36 4.68.36-4.35.36-.23.37.46.36-2.6.36-.32.36-.8.36 1.52.37-8.59.36.59.36 5.48.36-1.12.37 5.12.36-63.76.36-2.97.36-2.84.36-1.57.37-1.4.36-.68.36-1.79.36-1.34.36-.62.37.74.36-.69.36 3.67.36-.18.36-.78.37-1.02.36 1.32.36 2.78.36-.04.37-.44.36-.34.36.28.36-1.06.36-.74.37-.9.36-2.72.36-.53.36-.23.36-.21.37-.49.36 1.89.36-2.16.36 1.38.36 1.14.37.75.36-.52.36-.75.36 1.42.36.6.37-1.68.36-.96.36.55.36 1.39.37 2.41.36-.94.36 1.21.36-1.93.36.24.37.15.36 2.26.36.65"/><use xlink:href="#c" transform="matrix(3.75 0 0 3.75 354.25 71.91)"/><use xlink:href="#c" transform="matrix(3.75 0 0 3.75 95.45 7.51)"/></g><text stroke-linecap="round" stroke-linejoin="round" color="#000" font-family="KaTeX_Main" font-size="8" transform="translate(116 25.11)"><tspan>AVLTopDown</tspan></text><g fill="none" stroke="currentColor" stroke-linecap="round" stroke-linejoin="round" color="#000"><path stroke="#29C3F6" stroke-dasharray="1.0,2.0" d="M80.5 22.51h29.9M28 62l.36 1.26.36-.84.37-.99.36 1.73.36.72.36-1.01.36-1.72.37.75.36 5.12.36-1.83.36-1.32.37-.69.36-.42.36.13.36 2.97.36-5.03.37-3.93.36-.67.36.61.36 1.86.36-1.86.37 1.24.36-1.51.36-.79.36 1.91.36-1.52.37-.01.36 1.94.36-.01.36-1.04.36 3.64.37.75.36-.91.36-.38.36 1.15.37.82.36.79.36.48.36-.7.36-1.2.37 1.36.36-.82.36-.79.36-.45.36.71.37 4.24.36-1.2.36.04.36-.63.36.51.37 59.74.36 10.61.36-.7.36-2.14.37 1.49.36 9.32.36-.54.36-4.28.36 3.85.37 2.72.36 3.11.36 8.86.36-7.56.36-4.08.37-1.65.36-2.54.36-7.89.36 10.15.36-1.17.37 3.55.36-4.87.36 5.95.36-4.49.37 5.42.36-4.44.36 2.67.36 3.02.36 5.87.37 1.14.36-10.7.36-5.82.36-7.37.36.73.37 7.92.36 5.47.36 5.14.36-3.84.36-1.02.37-3.07.36 3.99.36-9.13.36 8.81.36-1.31.37-1.97.36 2.79.36.69.36-2.83.37.71.36 8.07.36-15.21.36-70.79.36-2.5.37-1.08.36-.03.36.14.36-1.09.36 1.84.37-.24.36-.52.36 2.08.36 1.45.36-1.51.37-1.3.36-1.45.36 1.45.36-2.9.37-1.04.36 3.3.36.44.36-.87.36 1.4.37 1.21.36 1.94.36-1.7.36-2.48.36-.33.37-.73.36-.48.36.95.36-1.41.36 2.28.37 1.24.36-1.39.36 2.22.36 1.79.36-2.4.37-.42.36 1.26.36-1.54.36-1.01.37 2.61.36-.78.36-.05.36.05.36-1.14.37.05.36-.94.36.58.36-.69.36 2.66.37 67.95.36 6.66.36 3.2.36-7.98.36 7 .37-1.31.36 3.96.36 2.72.36 13.9.37-6.86.36 5.05.36-6.27.36-.93.36-4.74.37-6.68.36-2.96.36 8.51.36 2.81.36-.49.37-13.86.36 3.37.36 9.46.36-6.44.36-10.7.37 5.07.36 5.52.36-.87.36 4.69.36-2.39.37.6.36 3.55.36-4.88.36 5.78.37-.85.36 5.7.36-.34.36 1.19.36-5.16.37-2.97.36 4.49.36-6.48.36 2.95.36-1.43.37-2.51.36 5.68.36 5.16.36-5.41.36 4.96.37-.93.36-6.56.36-74.16.36-1.55.37-3.8.36-1.6.36-2.04.36-2.4.36-1.03.37.85.36 2.03.36-.56.36-1.32.36-.22.37 2.42.36 2.4.36-3.92.36-.61.36-.24.37-.32.36-.64.36.1.36-.2.37-1.34.36 2.81.36-.76.36-1.18.36.55.37.29.36.64.36 1.02.36 1.14.36 2.19.37-1.68.36-.98.36-.58.36-1.95.36.52.37.7.36-.94.36-.32.36 3.59.36.9.37-.72.36-.74.36.01.36-1.26.37.57.36-1.22.36 1.76.36.99.36-.05.37 68.04.36 4.68.36-2.48.36 13.85.36-9.65.37-3.21.36-.49.36-.58.36 10.53.36 5.39.37-.58.36-4.64.36-2.51.36-4.08.37 1.32.36 9.75.36.71.36.25.36 7.42.37 1.41.36.38.36-10.01.36 6.15.36-7.1.37-10.91.36 3.43.36-4.3.36-5.4.36 4.97.37 1.28.36-3.8.36 7.93.36 3.06.36 6.7.37-.83.36-8.38.36 10.54.36-5.51.37-12.32.36 2.44.36 9.93.36 4.1.36-7.08.37-2.17.36 8.73.36-7.09.36 5.28.36-1.93.37 1.3.36-5.96.36-70.27.36-1.65.36-2.59.37 2.25.36-.58.36-.58.36-.7.37-1.66.36-.9.36-.97.36-.01.36.13.37-.81.36-4.14.36-1.26.36-.57.36-1.27.37-.18.36-.85.36-1.99.36.82.36 1.74.37-.39.36-1.24.36 1.3.36-.04.36-.26.37-.93.36 5.6.36.6.36-1 .37.39.36.04.36.49.36-.5.36 3.38.37-.73.36.04.36-.66.36-.44.36-1.79.37.08.36.81.36-1.5.36.78.36-.79.37.35.36.3.36.9.36.29.37 67.79.36 10.25.36 9.62.36-9.38.36-1.25.37 4.69.36 6.3.36 2.16.36 5.04.36-8.56.37-7.11.36 3.96.36-.47.36.57.36-2.74.37 4.23.36 4.77.36-12.5.36 11.32.37 5.76.36-2.1.36 4.84.36-21.51.36 1.44.37 7.72.36-.13.36-.99.36-1.98.36-4.24.37 6.97.36-9.43.36 4.49.36 10.48.36-8.61.37-.56.36 2.69.36 2.82.36-1.18.36 2.82.37-3.09.36 2.15.36-.3.36-.74.37 1.65.36-8.12.36 5.13.36-.65.36 3.13.37-4.23.36 8.14.36-81.98.36-2.36.36-2.23.37-.73.36 4.42.36-1.03.36-2.67.36 3.1.37-.15.36.42.36-1.3.36-.25.37-5.06.36-.69.36-.58.36-.95.36-1.93.37-1.28.36.09.36 2.67.36 1.17.36-2.61.37-.12.36 1.59.36 2.02.36-1.85.36.21.37-.61.36-1.13.36-.15.36 1.07.36-.45.37.27.36 2.93.36 2.05.36-.3.37-.32.36.28.36-.7.36-.98.36 1.39.37-.79.36 7.14.36.95.36-1.33.36-.78.37-.84.36 1.13.36-.46.36-.28.36 65.01.37-.28.36 10.03.36-4.02.36 1.03.37-2.17.36 3.79.36 4.92.36-6.01.36-10.21.37 7.65.36.55.36 3.81.36 3.5.36.54.37 5.48.36-.05.36-7.03.36-1.18.36-2.51.37 2.37.36.54.36-.35.36 5.91.37.57.36-6.23.36-1.37.36 2.2.36-1.79.37 1.04.36-3.92.36 3.39.36 10.48.36-5.52.37 1.88.36 4.22.36-12.84.36-.88.36 8.42.37-.97.36 8.57.36-.61.36-4.62.36 1.19.37.63.36-13.66.36 1.34.36 4.3.37 9.32.36-10.39.36-75.44.36-.96.36-1.3.37-.64.36-.68.36-2.11.36-2.16.36 2.48.37-.06.36-.26.36-.52.36-3.88.36-2.58.37-.03.36-.35.36-.25.36-.04.37-.95.36.63.36 4.07.36-.73.36-.29.37-1.55.36-.44.36-1.03.36-.87.36 3.68.37.61.36 3.37.36-1.95.36-.58.36-1.82.37.5.36.93.36 1.01.36-1.16.36.28.37-.03.36-1.22.36 2.64.36 1.52.37 4.6.36-.79.36 1.79.36-1.14.36-1.77.37.1.36.94.36-1.81.36-1.62.36 76.8.37 1.06.36-2.49.36 3.32.36 3.83.36 3.86.37 5.24.36-4.14.36-8.27.36-1.56.37 8.84.36-3.7.36-1.76.36-.55.36-.66.37 10.23.36-4.57.36-4.12.36 5.13.36-4.66.37 3.36.36.95.36-8.08.36 9.57.36-7.27.37 1.97.36-.23.36-2.93.36-5.13.36 6 .37 6.5.36 6.59.36 1.17.36 2.35.37-4.41.36-3.35.36 2.08.36-.68.36 8.66.37-.19.36-16.2.36-1.4.36 5.39.36 2.32.37 4.55.36-14.86.36.28.36 11.11.36-2.13.37-13.1.36-75.38.36-2.39.36 1.4.37-.08.36-1.53.36 2.19.36.34.36-.92.37-.66.36 3.12.36-4.24.36-4.12.36.74.37.68.36 4.78.36-.31.36-1.05.36 2.62.37.94.36-.59.36-1.39.36 2.19.37-.85.36-.89.36.09.36-1.43.36-.34.37.36.36-.43.36-.84.36 1.88.36 2.38.37-1.32.36-.62.36 3.59.36-.05.36.43.37-.69.36-.25.36-.31.36.43.36.17.37 1.1.36-.99.36-.68.36.11.37-.05.36 3.93.36-1.39.36 1.74.36 71.27.37-4.33.36.8.36 5.11.36 6.05.36-1.69.37.81.36-10.19.36 8.37.36-1.52.36 1.63.37-6.08.36 8.68.36-2.04.36-1.05.37-7.06.36 13.9.36 4.9.36 4.19.36-23.12.37 4.82.36-3.6.36 13.14.36-10.33.36-8.06.37 5.01.36-3.81.36 4.87.36 5 .36 4.37.37 9.61.36-4.21.36-5.81.36-1.22.36 1.59.37-3.33.36 3.92.36 1.64.36 5.02.37-8.57.36-2.06.36 4.65.36-5.2.36-5.31.37 5.29.36 3.41.36 1.38.36-12.28.36 9.78.37 6.79.36-90.23.36-.41.36-.67.36 1.23.37.73.36 1.12.36-2.97.36-2 .37 1.03.36-.57.36-4.15.36-.24.36.21.37 2.07.36 2.39.36 6.55.36-2.03.36-2.55.37-1.42.36-1.48.36 4.41.36.39.36-.94.37-1.6.36.31.36 1.41.36 1.51.36-.35.37 1.29.36-2.28.36-.4.36-.98.37 1.54.36-1.55.36.31.36-.23.36-.93.37 1.78.36.95.36-.7.36-1.79.36-1.37.37-.22.36-.4.36 1.76.36-1.96.36.74.37-.41.36 1.09.36 3.01.36 57.66.37 9.86.36 6.72.36 2.63.36 2.45.36-6.93.37 4.49.36 2.56.36 2.95.36-6.45.36 2.21.37 7.04.36 4.19.36-5.78.36-2.62.36 4.68.37-1 .36-4.14.36-7.5.36 3.81.37-.04.36 11.25.36-10.11.36-4.07.36 6.77.37-4.5.36-3.57.36-1.63.36 8.58.36 5.91.37 1.23.36-10.5.36 3.47.36 7.26.36-3 .37 2.77.36-.77.36.62.36 4.52.36-6.97.37 4.45.36-8.43.36.22.36-2.44.37 8.83.36-.85.36-5.67.36 4.28.36 6.41.37-6.67.36-77.39.36-1.57.36-3.68.36.91.37-1.72.36 2.81.36-3.22.36-.75.36-1.33.37-5.44.36.03.36-1.71.36 1.76.37 2.13.36-.66.36-.15.36 1.02.36-1.15.37-.88.36-.55.36.56.36 2.99.36-.43.37.54.36-1.91.36.63.36.09.36.52.37-.63.36 2.2.36.35.36-.39.36-.82.37.85.36-.96.36 2.89.36 1.03.37-1.22.36-.86.36-.37.36 1.31.36-.65.37.61.36.89.36-.11.36-.84.36.18.37-1.45.36-1.46.36 2.18.36 70.28.36 4.4.37 4.56.36 1.29.36-8.2.36 6.22.37-3.47.36 6.77.36-1.7.36-1.21.36 11.22.37-14.81.36 6.75.36-1.48.36 4.02.36 6.46.37-.4.36.51.36-9.38.36-11.65.36 11.61.37-2.58.36-2.1.36 7.78.36-1.25.36-3.66.37 1.43.36-3.92.36 4.89.36-3.58.37 7.84.36 1.27.36-14.37.36-.57.36 5.48.37 5.57.36 2.91.36 4.09.36-5.94.36 2.71.37-3.38.36-1.87.36.79.36-3.78.36 1.99.37-9.48.36 2.55.36 7.52.36 1.2.37 2.43.36-77.31.36-3.27.36-2.81.36-1.24.37-1.29.36-.83.36-1.64.36-1.51.36-.7.37.72.36-.72.36 3.86.36-.45.36-.71.37-.74.36 1.4.36 2.79.36-.05.37-.51.36-.3.36.24.36-.98.36-1.06.37-.89.36-2.38.36-.56.36-.34.36-.24.37-.55.36 2.17.36-2.05.36 1.07.36 1.33.37.54.36-.52.36-.55.36 1.2.36.62.37-1.49.36-1.17.36.52.36 1.69.37 2.25.36-1.23.36 1.28.36-2.07.36.71.37-.03.36 1.96.36 1.21"/><use xlink:href="#d" color="#29C3F6" transform="matrix(3.75 0 0 3.75 67.83 65.44)"/><use xlink:href="#d" color="#29C3F6" transform="matrix(3.75 0 0 3.75 95.45 22.51)"/></g><text stroke-linecap="round" stroke-linejoin="round" color="#000" font-family="KaTeX_Main" font-size="8" transform="translate(241.1 10.11)"><tspan>AVLWeakBottomUp</tspan></text><g fill="none" stroke="currentColor" stroke-linecap="round" stroke-linejoin="round" color="#000"><path stroke="#3B75EA" d="M205.6 7.51h29.9M28 62l.36 1.26.36-.84.37-.99.36 1.73.36.72.36-1.01.36-1.72.37.75.36 5.12.36-1.83.36-1.32.37-.69.36-.42.36.13.36 2.97.36-5.03.37-3.93.36-.67.36.61.36 1.86.36-1.86.37 1.24.36-1.51.36-.79.36 1.91.36-1.52.37-.01.36 1.94.36-.01.36-1.04.36 3.64.37.75.36-.91.36-.38.36 1.15.37.82.36.79.36.48.36-.7.36-1.2.37 1.36.36-.82.36-.79.36-.45.36.71.37 4.24.36-1.2.36.04.36-.63.36.51.37 83.13.36 14.17.36 4.33.36 7.35.37-2.28.36 10.48.36-6.92.36 4.64.36-2.89.37 5.23.36 1.71.36 1.37.36 8.11.36 3.57.37-5.45.36 2.14.36-12.09.36 7.78.36-.17.37-.57.36-12.01.36 4.13.36-2.06.37 6.2.36-1.25.36-3.64.36 3.16.36 7.85.37-.57.36-.06.36 9.17.36-8.65.36-5.7.37 1.92.36 8.83.36-3.39.36-.98.36-1.35.37-2.47.36 2.74.36-6.37.36-2.41.36.79.37 1.74.36-.71.36 4.53.36-3.19.37-3.8.36 5.75.36.54.36-122.17.36-2.17.37-3.58.36-.95.36-1.64.36.63.36 1.89.37-.45.36-2.2.36-.72.36-.1.36-.27.37-1.44.36-1.36.36.54.36-.66.37.6.36 4.58.36-2.22.36-1.08.36-.46.37-.08.36 1.72.36.06.36-1.05.36 1.09.37-.27.36.21.36.8.36-1.26.36 1.89.37 1.29.36-.93.36 2.18.36 1.75.36-2.44.37-.3.36 1.58.36-.18.36-.76.37 2.57.36-.58.36.21.36 2.58.36-.89.37.48.36-.04.36.48.36-.33.36 3.63.37 102.56.36 2.1.36 13.18.36-8.54.36 5.43.37.94.36.48.36-2.38.36 13.02.37.93.36.39.36-5.42.36 9.61.36-5.11.37-8.22.36-4.18.36 7.97.36 4.39.36 6.31.37-12.24.36 5.76.36 7.15.36-6.49.36-4.57.37.06.36 2.74.36 1.79.36-2.06.36-1.38.37-7.41.36 5.13.36-1.63.36-1.55.37 2.82.36 2.04.36-2.34.36-.12.36 7.24.37 3.13.36-7.47.36-.97.36 3.34.36-9.57.37-10.65.36 9.21.36 4.57.36-11.56.36 8.23.37-3.01.36 6.81.36-118.13.36-1.48.37-5.4.36 1.82.36-1.75.36-2.4.36-1.03.37.85.36 2.03.36-.57.36-1.33.36-.19.37 2.18.36.15.36-5.39.36-.44.36-.63.37-.86.36-.55.36.33.36-.52.37-1.4.36 2.66.36-.73.36-.89.36.39.37-.01.36.71.36 1.16.36.73.36 2.59.37-1.69.36-1.16.36-.58.36-2.07.36.66.37.53.36-.88.36-.6.36 3.49.36 1.49.37-.79.36-1.09.36.2.36-1.49.37 1.81.36-.83.36.1.36.71.36.18.37 113.02.36 12.23.36-4.16.36 9 .36 2.21.37-2.93.36-3.33.36-2.21.36 5.77.36-3.4.37-2.82.36.81.36.2.36-1.56.37-10.73.36 8.56.36 4.75.36-1.4.36.87.37 3.73.36 4.28.36-3.81.36-.31.36 6.53.37-3.34.36-2.85.36-4.1.36-4.71.36 2.25.37 2.37.36-4.92.36 4.28.36 4.28.36.12.37 1.99.36-8.63.36 3.12.36 5.21.37-6.58.36-1.63.36 8.53.36 3.66.36-10.04.37-6.35.36 13.73.36-7.04.36 2.16.36.41.37 4.22.36-3.96.36-119.4.36-.66.36-2.41.37 2.19.36-2.89.36-.56.36-.99.37-1.86.36-.84.36-.62.36.16.36.23.37-.81.36.71.36-1.23.36-.66.36-1.27.37-.24.36-.38.36-2.05.36.51.36 1.89.37-.39.36-1.1.36 1.22.36-.21.36-.05.37-.99.36 5.62.36.78.36-.86.37.14.36 1.16.36 1.81.36-.57.36 3.34.37-.75.36.21.36-.68.36-.59.36-1.8.37.17.36.64.36-1.34.36.78.36-.82.37.28.36-.53.36.15.36.27.37 114.11.36-1.16.36 12.9.36-7.09.36.09.37-3.09.36 10.93.36-2.47.36 8.64.36-5.04.37 4.03.36-5.01.36 2.51.36-12.02.36 10.71.37-1.21.36 2.35.36-2.85.36 3.17.37 2.2.36 1.09.36.64.36-4.84.36.68.37.39.36 1.98.36 1.81.36 9.15.36-8.43.37-1.21.36-6.87.36 3.75.36 4.42.36-.84.37-3.66.36 2.56.36-1.54.36-3.02.36-5.71.37 4.69.36-1.52.36-8.22.36-2.35.37 11.71.36-4.2.36-3.98.36-5.7.36 6.57.37 4.32.36 4.37.36-115.22.36-1.97.36-3.96.37-.91.36 3.2.36-1.52.36-2.67.36 3.57.37.06.36-.44.36-.87.36.48.37-5.65.36-.79.36-2.7.36-.51.36-.49.37-.96.36.02.36 2.5.36-.14.36-.12.37-.84.36.95.36 4.47.36.2.36-.28.37-.35.36-1.97.36-1.48.36-.44.36.51.37-.87.36 3.03.36 2.72.36-.54.37-.99.36-.06.36-.57.36-.88.36-1.07.37-1.01.36 6.92.36.48.36-1.32.36-5.21.37-1.1.36 1.58.36-.66.36-.34.36 104.87.37 6.65.36 7.79.36-4.53.36-1.44.37 3.04.36 4.59.36-2.73.36 2.18.36-1.19.37.51.36-2.24.36 1.82.36-3.87.36 2.27.37-.82.36 3.59.36 4.31.36.72.36.13.37-4.58.36-5.07.36 1.18.36 2.58.37 8 .36-1.06.36 4.08.36-2.96.36-5.99.37 4.02.36-3.73.36-.4.36 15.33.36-3.31.37-4.46.36 4.52.36-3.08.36-5.38.36 1.2.37 3.39.36 2.21.36 5.85.36 1.53.36-1.07.37-3.22.36-6.91.36-1.63.36 2.54.37 7.44.36-1.68.36-130.16.36-1.78.36-1.47.37-.55.36-.6.36-2.15.36-2.19.36 2.54.37-.05.36-.26.36-.5.36-.35.36-1.08.37-.03.36-.36.36-.25.36-.04.37-.95.36.63.36 4.07.36-.73.36-.29.37-1.55.36-.44.36-1.03.36-.87.36 3.68.37.61.36 3.37.36-1.95.36-.58.36-1.82.37.5.36.93.36 1.01.36-1.16.36.28.37-.03.36-1.22.36 2.64.36 1.52.37 4.6.36-.79.36 1.79.36-1.14.36-1.77.37.1.36.94.36-1.81.36-1.62.36 108.6.37 9.82.36 8.4.36-4.91.36.69.36 6.86.37 2.26.36-2.03.36-2.76.36-1.06.37.03.36-5.61.36.04.36 3.6.36-8.09.37 7.33.36-6.14.36 3.45.36 9.54.36-3.32.37.01.36 6.16.36.12.36.93.36-3.91.37 2.58.36-7.35.36-5.18.36-6.51.36 4.31.37 4.21.36 11.59.36-6.08.36 9.66.37-3.58.36-5.36.36-.88.36-3.44.36 8.37.37-.48.36-7.79.36 2.34.36-.36.36 1.06.37 1.17.36.06.36-9.4.36 7.06.36.66.37-4.89.36-118.38.36-3.74.36.95.37-3.05.36.39.36 1.24.36.93.36-1.47.37-.32.36 2.95.36-4.32.36-4.22.36 1.19.37.98.36.64.36-.16.36-1.24.36 3.36.37 1.68.36-.77.36-1.75.36.88.37-.78.36-.94.36.13.36-.96.36-.31.37.38.36-.8.36-.77.36 4.51.36 2.99.37 1.05.36.62.36 3.87.36-.4.36-.13.37-.97.36-.05.36-2.11.36-1 .36.35.37.95.36-4.76.36-1.8.36-2.13.37-.52.36 3.68.36-1.41.36 1.99.36 113.46.37.91.36-.94.36-.35.36 13.32.36-6.95.37 5.2.36-4.87.36 1.89.36 5.79.36-.9.37-2.86.36-2.88.36 4.9.36 2.88.37-14.9.36 13.23.36 3.75.36 4.78.36-10.49.37 5.52.36-3.53.36 6.7.36-2.98.36-5.43.37-2.63.36-4.98.36-8.12.36 2.33.36 7.99.37 2.09.36.26.36 4.58.36 1.23.36 2.27.37-5.91.36-.72.36 2.11.36 6.66.37 2.55.36.72.36 1.93.36-1.12.36-8.45.37 3.18.36-1.61.36 1.92.36-3.42.36-.09.37 6.01.36-128.9.36-.31.36-.41.36-.5.37-.22.36 1.12.36-2.97.36-2 .37 1.03.36-.57.36-4.8.36-.25.36.15.37 2.41.36-1.46.36 1.5.36-1.73.36-3.14.37-1.3.36-1.64.36 4.62.36.15.36-1.07.37-1.26.36-.04.36 1.66.36 1.52.36-.61.37 1.11.36-2.02.36-.32.36-1.19.37 1.74.36-1.76.36 3.03.36-.1.36-1.29.37 2.47.36 4.69.36-.21.36-1.64.36-1.58.37-3.18.36-2.12.36 1.5.36 1.36.36 1.45.37-.73.36 1.97.36 2.69.36 118.11.37 1.35.36 1.91.36 3.18.36-3.18.36-4.17.37.8.36 2.76.36 3.61.36-2.93.36 1.7.37 3.59.36 4.47.36-2.92.36-6.54.36 3.67.37 3.73.36.01.36-14.98.36 7.94.37 2.25.36 2.83.36-4.86.36 4.14.36-.39.37-3.76.36-5.55.36-2.87.36 3.38.36 4.61.37 2.97.36 1.57.36-.12.36-.41.36-5.94.37 6.16.36.95.36-6.73.36 10.3.36-2.33.37 5.56.36-10.2.36 1.5.36-4.6.37 9.68.36-2.56.36 2.59.36-3.79.36 7.13.37-6.87.36-116.02.36-1.85.36-4.19.36.92.37-1.72.36 2.78.36-3.21.36-.75.36-1.32.37-5.43.36.04.36-1.72.36 1.76.37 2.12.36-.68.36-.14.36 1.04.36-1.18.37-.86.36-.56.36.57.36 2.99.36-.42.37.53.36-1.91.36.64.36.09.36.58.37-.85.36 2.59.36.3.36-.54.36-.87.37.72.36-.87.36 3.02.36.94.37-1.14.36-.89.36-.33.36 1.24.36-2.97.37-1.74.36.81.36-.18.36-.83.36.16.37-1.42.36-1.4.36 2.19.36 112.19.36 6.72.37 2.89.36 7.1.36-4.1.36 2.88.37 1.66.36-3.16.36 2.37.36-10.77.36 8.41.37-4.03.36 5.65.36-2.77.36 1.84.36 4.56.37 1.58.36-4.12.36 7.04.36-.28.36-1.9.37-1.36.36-6.11.36 2.84.36-7.87.36 1 .37 2.06.36-4.05.36 5.9.36 3.07.37 2.73.36.56.36-3.48.36-3.88.36-4.17.37 5.47.36-4.15.36 14.65.36-7.5.36 4.59.37 1.82.36-1.11.36-2.27.36.5.36-.43.37-6.46.36-6.79.36 4.79.36 1.13.37 6.06.36-113.14.36-4.39.36-2.66.36-1.27.37-1.29.36-.71.36-1.88.36-1.52.36-7.32.37-.22.36-.74.36-.93.36-1.03.36-.69.37-.91.36 1.48.36 2.73.36.04.37-.76.36-.25.36.27.36-.96.36-1.07.37-.45.36-.5.36.96.36 4.54.36-.36.37-.82.36 3.27.36-1.79.36 1 .36 1.21.37.43.36-.67.36-.58.36 1.19.36.6.37-1.54.36-1.08.36-1.23.36-1.46.37 2.39.36-1.26.36 1.27.36-2.09.36.77.37-.05.36 1.71.36 2.34"/><use xlink:href="#b" color="#3B75EA" transform="matrix(3.75 0 0 3.75 125.4 182.25)"/><use xlink:href="#b" color="#3B75EA" transform="matrix(3.75 0 0 3.75 220.55 7.51)"/></g><text stroke-linecap="round" stroke-linejoin="round" color="#000" font-family="KaTeX_Main" font-size="8" transform="translate(241.1 25.11)"><tspan>AVLWeakTopDown</tspan></text><g fill="none" stroke="currentColor" stroke-linecap="round" stroke-linejoin="round" color="#000"><path stroke="#00C853" stroke-dasharray="4.5,2.0,0.5,2.0,0.5,2.0" d="M205.6 22.51h29.9M28 65.98l.36 2.4.36-5.14.37 3.27.36-2.52.36 1.69.36 1.4.36 4.29.37-5.73.36-.88.36-.13.36 2.31.37.72.36 1.86.36-3.06.36.25.36-7.97.37 2.38.36 5.14.36 2.1.36-5.19.36-3.44.37 6.55.36 2.47.36-1.32.36-.96.36 6.01.37.44.36-.18.36-4.06.36-1.07.36.97.37-4.05.36-2.24.36 1.15.36-3.73.37 1.63.36-1.56.36 8.23.36-.2.36-2.79.37 7.93.36-.15.36-1.94.36 1.2.36-6.61.37-.95.36 2.66.36 2.04.36-4.05.36 3.09.37 22.82.36-11.53.36-2.83.36 1.06.37.98.36 2.68.36.67.36-2.63.36 2.07.37.38.36 12.23.36-6.84.36-13.58.36 2.23.37 8.56.36-12.31.36.31.36 4.35.36 4.37.37 8.81.36-6.74.36 4.74.36-6.73.37-.89.36-2.73.36 2.24.36 4.5.36 4.61.37-11.87.36 7.02.36 5.15.36-21.61.36 4.04.37 13.16.36-6.92.36-5.3.36-3.08.36 11.98.37.61.36 6.06.36 5.78.36-23.87.36 4.94.37 10.37.36-5.99.36 3.04.36 7.59.37-14.63.36-8.67.36 5.62.36-2.34.36 4.24.37-5.32.36 3.21.36.69.36 2.88.36-1.09.37.05.36-2.88.36 1.22.36-2.5.36 5.44.37-2.28.36-3.52.36-4.92.36-4.55.37 1.77.36-1.36.36 3.06.36 2.5.36 6.56.37-4.58.36-4.36.36-1.6.36 3.07.36.14.37 3.35.36-3.98.36.22.36-2.31.36 5.65.37.48.36 4.14.36-.7.36 2.45.36-7.07.37 4.18.36 6.2.36-2.28.36-2.3.37 1.5.36-2.67.36 2.76.36-1.33.36.82.37-1.05.36-1.39.36-4.08.36-.82.36-1.85.37 10.51.36-1.75.36 1.74.36 7.29.36-1.07.37-3.94.36-5.4.36 7.31.36 5.17.37-7.49.36-8.5.36 5.5.36 1.26.36 2.39.37-10.65.36-1.2.36-6.92.36 14.39.36 10.52.37-4.86.36 5.59.36-2.56.36 6.22.36-1.5.37-4.14.36-19.1.36 9.86.36 3.71.36-6.15.37-1.37.36 2.17.36.69.36 1.15.37 9.34.36-9.47.36 4.51.36-3.03.36 11.53.37-13.89.36-4.65.36 5.14.36-.13.36 13.93.37-3.89.36-7.43.36 3.39.36-4.24.36-1.03.37-1.28.36-7.14.36 8.84.36-3.74.37-1.99.36 3.17.36-3.06.36-2.77.36-1.54.37.61.36-2.39.36 9.31.36-.11.36.61.37-2.94.36-4.23.36-3.05.36 4.06.36 1.9.37-1.62.36-4.26.36 4.82.36-1.28.37-1.21.36 3.86.36 2.09.36-2.18.36 5.69.37-5.61.36 5.04.36.51.36-2.22.36-5.38.37.55.36-3.72.36 4.82.36-6.81.36 6.73.37 5.56.36-2.87.36-4.56.36.15.36 2.27.37 1.75.36-3.24.36 7.65.36-1.45.37-2.51.36-6.38.36-3.13.36 2.7.36.2.37 2.74.36-4.3.36 4.16.36 4.24.36 5.54.37 1.83.36-8.91.36.26.36 5.62.36 9.97.37-16.06.36 9.55.36.12.36-.42.37-11.24.36 10.3.36-5.81.36 13.67.36-1.37.37.91.36 10.39.36-2.49.36-3.44.36-3.13.37-8.12.36 1.45.36-5.73.36 3.73.36 3.52.37-.56.36 6.67.36-.7.36 8.64.36-4.19.37-2.2.36 3.34.36-11.32.36.46.37-1.22.36 5.03.36 4.77.36-5.19.36-4.08.37-4.99.36-8.68.36 4.82.36-5.48.36 5.74.37 4.49.36 5.31.36-12.27.36.41.36 5.71.37-1.57.36-6.26.36-2.9.36 2.04.37-3.12.36 1.99.36-2.9.36-1.57.36-2.68.37.08.36 6.44.36.71.36.08.36-1.96.37-2.68.36 3.82.36-3.06.36 3.51.36 1.36.37-1.89.36-4.22.36 10.23.36-3.05.36 3.3.37.09.36.41.36-8.03.36 2.96.37 1.28.36.85.36-2.55.36 1.64.36 8.26.37.12.36-4.85.36-1.08.36-.47.36-.01.37-5.01.36.14.36 4.14.36.73.36.47.37-4.92.36 5.89.36.05.36-.58.37 11.76.36-.66.36-4.51.36 7.36.36-10.61.37-5.35.36 1.96.36 9.29.36 4.23.36-6.1.37-12.63.36 2.82.36 5.39.36 1.71.36-5.37.37 11.11.36-8.25.36 3.35.36-4.76.37 8.08.36 6.98.36-4.15.36-2.73.36 4.89.37-7.22.36 3.8.36-7.85.36 3.17.36 2.84.37 1.27.36 3.65.36-3.99.36-.58.36 12.49.37 5.82.36 2.24.36-7.69.36-12.84.36-.74.37-.64.36 1.66.36-4.58.36-3.63.37.44.36 6.35.36 3.48.36-13.95.36 4.79.37 3.27.36 8.51.36-15.46.36 2.32.36-1.82.37-2.29.36-.1.36 4.74.36-3.56.36-.47.37-.05.36-.61.36-3.13.36-.69.37-3.87.36.71.36-3.47.36 2.23.36-2.46.37 3.29.36 1.55.36 1.38.36-1.54.36 5.21.37-2.46.36 5.91.36-6.16.36 6.32.36 2.51.37-.53.36-5.87.36-.67.36.81.36.18.37.64.36-2.2.36 8.21.36-1.54.37-5.7.36-1 .36.1.36 5.14.36 4.2.37-2.58.36.09.36-1.25.36-2.9.36-3.04.37 7.33.36 2.86.36-.41.36-4.92.36-.77.37 9.75.36 4.73.36 3.3.36-14.93.37 3.84.36.12.36 7.95.36-10.16.36-.18.37 6.25.36 1.73.36-21.62.36 5.59.36 5.7.37-10.19.36 4.47.36 1.06.36 12.65.36-3.6.37-2.09.36 4.8.36-9.93.36 3.59.37-.09.36-2.27.36 9.33.36-6.19.36 2.95.37 3.35.36-6.05.36 6.91.36 2.31.36.11.37 3 .36 3.06.36-12.42.36-4.2.36 15.1.37-9.13.36 1.62.36-15.01.36 2.38.36 7.04.37-1.45.36-2.64.36 6.61.36 1.33.37-2.36.36 4.57.36-1.21.36-2.07.36-4.28.37-4.48.36-.07.36-2.15.36.76.36-1.98.37 2.65.36-2.39.36-2.39.36-3.68.36-1.44.37-3.74.36 9.29.36-3.07.36.77.37 3.04.36 9.55.36-5 .36-1.31.36 5.56.37 6.7.36-3.52.36-3.1.36-.96.36-3.54.37-2.45.36-1.34.36 1.15.36 2.22.36-2.14.37-3.86.36 10.72.36.15.36-3.79.36-2.78.37-2.23.36-.61.36 6.2.36-1.39.37 6.11.36.56.36-.76.36-6.73.36.31.37-2.94.36 1.07.36-3.61.36 1.47.36 10.85.37 3.68.36-8.63.36-9.72.36 10.31.36 2.98.37-6.79.36-7.1.36 2.39.36 13.25.37-10.45.36 4.65.36 8.12.36-4.45.36 3.57.37 9.11.36.3.36-4.21.36-8.36.36 1.82.37 2.43.36 4.93.36 1.81.36 2.73.36 1.84.37-14.78.36 1.05.36 2.38.36 4.67.36.77.37 5.52.36-13.92.36 7.7.36 5.08.37-6.2.36 1.44.36-4.88.36 1.25.36-2.85.37 3.39.36 3.69.36-3.5.36 2.95.36 2.89.37 2.58.36-12.19.36-3.26.36-.62.36-1.19.37 8.04.36-8.42.36-1.97.36-5.14.37-1.35.36-1.84.36 6.02.36-5.35.36 5.52.37 2.55.36.15.36-5.45.36-1.26.36-.64.37 2.44.36-.56.36.92.36 2.42.36-2.67.37-2.55.36.17.36-.13.36 5.66.37-.66.36-4.91.36 3.52.36-.37.36 4.6.37.2.36 1.01.36-.57.36-1 .36-6.41.37 9.49.36 4.59.36-1.93.36-4.88.36-1.73.37 2.49.36.88.36-4.34.36.44.36-.22.37.31.36-5.19.36 10 .36-4.55.37 2.81.36-6.55.36 2.05.36.87.36 3.39.37 5.87.36.46.36 7.3.36-.68.36-6.01.37 7.68.36 5.37.36-11.4.36-8.66.36 4.7.37-2.32.36-3.45.36 10.57.36-6.03.37-11.16.36 15.28.36-.78.36.37.36 2.03.37-1.94.36-2.38.36-.87.36-3.28.36 3.46.37 1.23.36-2.53.36 2.85.36 2.3.36 7 .37-16.01.36 8.25.36 1.9.36 6.63.36 4.39.37-16.09.36 11.21.36-1.72.36-6.63.37 1.34.36 3.14.36 5.97.36-3.08.36 3.93.37-9.18.36-11.2.36-2.33.36-2.4.36 8.26.37.1.36 2.74.36-6.46.36 3.94.36-3.33.37 1.4.36-3.15.36-2.52.36-3.44.37 3.75.36-3.53.36 2.4.36-.03.36-.23.37-3.91.36-3.11.36 6.32.36-1.62.36-3.82.37 4.04.36 9.42.36 3.18.36.46.36-1.46.37 2.04.36-4.16.36-3.86.36-2.88.36-.03.37-2.56.36 5.48.36-3.97.36 3.52.37 3.76.36-3.04.36-6.23.36 8.51.36 3.52.37 3.93.36-5.57.36 1.49.36-5.1.36-2.5.37-.01.36.04.36-.86.36 2.52.36.82.37-1.54.36 2.32.36 8.62.36 5.24.37-3.46.36-4.33.36 4.7.36-7.59.36 8.75.37-12.13.36 9.77.36-5.91.36 2.97.36.44.37 14.85.36-7.04.36-9.95.36 4.32.36 2.99.37-6.46.36 3.18.36 1.63.36.49.37 10.45.36-3.39.36-11.72.36 10.62.36-10.36.37 1.81.36-3.68.36 5.67.36 5.09.36 3.33.37-2.42.36 3.16.36 6.44.36-9.68.36-1.88.37 1.84.36 12.13.36-5.52.36-7.62.36-4.95.37-2.64.36 4.25.36-2.87.36-3.92.37-4.89.36 1.9.36-3.17.36 9.34.36 11.93.37-1.94.36-16.04.36.32.36.04.36.42.37-4.04.36-2.59.36 3.82.36 3.82.36-4.06.37-3.52.36.43.36-2.59.36-1.6.37-2.44.36 1.74.36.68.36-3.37.36-5.59.37 1.85.36 3.5.36 11.83.36-1.02.36 5.08.37-3.99.36-2.72.36-3.37.36 10.98.36-3.56.37 2.94.36-1.11.36 1.75.36 2.52.36 1.99.37-3.61.36 4.23.36-2.88.36 2 .37-6.93.36-1.02.36 1.28.36-2.54.36-2.34.37-3.97.36 2.27.36-.02.36-2.42.36-2.02.37 6.92.36-.71.36-.07.36 6.15.36 1.2.37 7.05.36 2.5.36-.57.36-7.11.37 3.42.36 1.34.36 5.8.36-10.1.36 5.45.37-11.92.36 5.6.36-3.65.36 10.11.36 4.72.37-3.43.36-4.54.36.1.36-1.03.36 8.96.37-10.97.36-3.24.36 3.9.36 6.82.36 1.2.37 4.01.36-5.86.36 9.08.36-.89.37-15.69.36-3.25.36 3.88h.36l.36 13.2.37-3.97.36 8.24.36 1.23.36-2.17.36-6.61.37-2.06.36-7.4.36-5.84.36 11.46.36-10.17.37 7.84.36.65.36 1.5.36-3.75.37-5.85.36-1.86.36-2.49.36-.66.36-3.51.37-5.28.36 9.1.36 1.66.36-3.72.36-4.61.37-.62.36-.72.36 5.53.36.04.36 4.45.37-.13.36-2.79.36-4.82.36.69.37-2.44.36 5.79.36-6.94.36-.05.36-1.79.37 16.65.36-.35.36.01.36-2.15.36 5.85.37-6.25.36 2.56.36 6.83.36-1.39.36-4.69.37-1.86.36-.1.36 8.4.36-5.17.36 1.27.37.45.36-4.86.36-1.29.36-2.13.37 4.47.36-2.2.36-2.85.36-3.22.36 4.51.37 2.85.36-6.18.36-3.11"/><use xlink:href="#e" color="#00C853" transform="matrix(3.75 0 0 3.75 182.98 73.18)"/><use xlink:href="#e" color="#00C853" transform="matrix(3.75 0 0 3.75 220.55 22.51)"/></g><path fill="none" d="M28 45.01V205M371.99 45.01H28" color="#000"/></svg>