<svg xmlns="http://www.w3.org/2000/svg" xmlns:xlink="http://www.w3.org/1999/xlink" viewBox="0 0 400 250"><path fill="none" d="M0 0h400v250H0z"/><defs><path id="d" stroke="currentColor" stroke-width=".267" d="M-1-1h2v2h-2z"/><path id="g" fill="currentColor" stroke="currentColor" stroke-width=".267" d="M-1-1h2v2h-2z"/><path id="b" stroke="currentColor" stroke-width=".267" d="m0-1.33-1.33 2h2.66z"/><path id="f" stroke="currentColor" stroke-width=".267" d="M0 1.33 1.265.411.782-1.067l-1.564-.009-.483 1.487z"/><use xlink:href="#b" id="c" stroke="currentColor" transform="rotate(180)"/><use xlink:href="#d" id="e" stroke="currentColor" transform="rotate(45)"/><circle id="a" cx="0" cy="0" r="1" stroke="currentColor" stroke-width=".267"/></defs><path fill="none" stroke="#000" stroke-linecap="round" stroke-linejoin="round" stroke-width=".1" d="M35.48 205V45.01" class="gridline" color="#000"/><g fill="none" stroke="none" stroke-linecap="round" stroke-linejoin="round" stroke-width="0" color="#000"><path d="M35.48 205v-7.5m0-152.49v7.5"/><text fill="#000" font-family="KaTeX_Main" font-size="10" text-anchor="middle" transform="translate(35.48 215.75)"><tspan> 1</tspan></text></g><path fill="none" stroke="#000" stroke-linecap="round" stroke-linejoin="round" stroke-width=".1" d="M72.87 205V45.01" class="gridline" color="#000"/><g fill="none" stroke="none" stroke-linecap="round" stroke-linejoin="round" stroke-width="0" color="#000"><path d="M72.87 205v-7.5m0-152.49v7.5"/><text fill="#000" font-family="KaTeX_Main" font-size="10" text-anchor="middle" transform="translate(72.87 215.75)"><tspan> 2</tspan></text></g><path fill="none" stroke="#000" stroke-linecap="round" stroke-linejoin="round" stroke-width=".1" d="M110.26 205V45.01" class="gridline" color="#000"/><g fill="none" stroke="none" stroke-linecap="round" stroke-linejoin="round" stroke-width="0" color="#000"><path d="M110.26 205v-7.5m0-152.49v7.5"/><text fill="#000" font-family="KaTeX_Main" font-size="10" text-anchor="middle" transform="translate(110.26 215.75)"><tspan> 3</tspan></text></g><path fill="none" stroke="#000" stroke-linecap="round" stroke-linejoin="round" stroke-width=".1" d="M147.65 205V45.01" class="gridline" color="#000"/><g fill="none" stroke="none" stroke-linecap="round" stroke-linejoin="round" stroke-width="0" color="#000"><path d="M147.65 205v-7.5m0-152.49v7.5"/><text fill="#000" font-family="KaTeX_Main" font-size="10" text-anchor="middle" transform="translate(147.65 215.75)"><tspan> 4</tspan></text></g><path fill="none" stroke="#000" stroke-linecap="round" stroke-linejoin="round" stroke-width=".1" d="M185.04 205V45.01" class="gridline" color="#000"/><g fill="none" stroke="none" stroke-linecap="round" stroke-linejoin="round" stroke-width="0" color="#000"><path d="M185.04 205v-7.5m0-152.49v7.5"/><text fill="#000" font-family="KaTeX_Main" font-size="10" text-anchor="middle" transform="translate(185.04 215.75)"><tspan> 5</tspan></text></g><path fill="none" stroke="#000" stroke-linecap="round" stroke-linejoin="round" stroke-width=".1" d="M222.43 205V45.01" class="gridline" color="#000"/><g fill="none" stroke="none" stroke-linecap="round" stroke-linejoin="round" stroke-width="0" color="#000"><path d="M222.43 205v-7.5m0-152.49v7.5"/><text fill="#000" font-family="KaTeX_Main" font-size="10" text-anchor="middle" transform="translate(222.43 215.75)"><tspan> 6</tspan></text></g><path fill="none" stroke="#000" stroke-linecap="round" stroke-linejoin="round" stroke-width=".1" d="M259.82 205V45.01" class="gridline" color="#000"/><g fill="none" stroke="none" stroke-linecap="round" stroke-linejoin="round" stroke-width="0" color="#000"><path d="M259.82 205v-7.5m0-152.49v7.5"/><text fill="#000" font-family="KaTeX_Main" font-size="10" text-anchor="middle" transform="translate(259.82 215.75)"><tspan> 7</tspan></text></g><path fill="none" stroke="#000" stroke-linecap="round" stroke-linejoin="round" stroke-width=".1" d="M297.21 205V45.01" class="gridline" color="#000"/><g fill="none" stroke="none" stroke-linecap="round" stroke-linejoin="round" stroke-width="0" color="#000"><path d="M297.21 205v-7.5m0-152.49v7.5"/><text fill="#000" font-family="KaTeX_Main" font-size="10" text-anchor="middle" transform="translate(297.21 215.75)"><tspan> 8</tspan></text></g><path fill="none" stroke="#000" stroke-linecap="round" stroke-linejoin="round" stroke-width=".1" d="M334.6 205V45.01" class="gridline" color="#000"/><g fill="none" stroke="none" stroke-linecap="round" stroke-linejoin="round" stroke-width="0" color="#000"><path d="M334.6 205v-7.5m0-152.49v7.5"/><text fill="#000" font-family="KaTeX_Main" font-size="10" text-anchor="middle" transform="translate(334.6 215.75)"><tspan> 9</tspan></text></g><path fill="none" stroke="#000" stroke-linecap="round" stroke-linejoin="round" stroke-width=".1" d="M371.99 205V45.01" class="gridline" color="#000"/><g fill="none" stroke="none" stroke-linecap="round" stroke-linejoin="round" stroke-width="0" color="#000"><path d="M371.99 205v-7.5m0-152.49v7.5"/><text fill="#000" font-family="KaTeX_Main" font-size="10" text-anchor="middle" transform="translate(371.99 215.75)"><tspan> 10</tspan></text></g><g fill="none" stroke="none" stroke-linecap="round" stroke-linejoin="round" stroke-width="0" color="#000"><path d="M371.99 205h-7.5"/><text fill="#000" font-family="KaTeX_Main" font-size="10" transform="translate(378.99 208.25)"><tspan>0.89</tspan></text></g><g fill="none" stroke="none" stroke-linecap="round" stroke-linejoin="round" stroke-width="0" color="#000"><path d="M371.99 187.22h-7.5"/><text fill="#000" font-family="KaTeX_Main" font-size="10" transform="translate(378.99 190.47)"><tspan>0.90</tspan></text></g><g fill="none" stroke="none" stroke-linecap="round" stroke-linejoin="round" stroke-width="0" color="#000"><path d="M371.99 169.45h-7.5"/><text fill="#000" font-family="KaTeX_Main" font-size="10" transform="translate(378.99 172.7)"><tspan>0.90</tspan></text></g><g fill="none" stroke="none" stroke-linecap="round" stroke-linejoin="round" stroke-width="0" color="#000"><path d="M371.99 151.67h-7.5"/><text fill="#000" font-family="KaTeX_Main" font-size="10" transform="translate(378.99 154.92)"><tspan>0.91</tspan></text></g><g fill="none" stroke="none" stroke-linecap="round" stroke-linejoin="round" stroke-width="0" color="#000"><path d="M371.99 133.89h-7.5"/><text fill="#000" font-family="KaTeX_Main" font-size="10" transform="translate(378.99 137.14)"><tspan>0.91</tspan></text></g><g fill="none" stroke="none" stroke-linecap="round" stroke-linejoin="round" stroke-width="0" color="#000"><path d="M371.99 116.12h-7.5"/><text fill="#000" font-family="KaTeX_Main" font-size="10" transform="translate(378.99 119.37)"><tspan>0.92</tspan></text></g><g fill="none" stroke="none" stroke-linecap="round" stroke-linejoin="round" stroke-width="0" color="#000"><path d="M371.99 98.34h-7.5"/><text fill="#000" font-family="KaTeX_Main" font-size="10" transform="translate(378.99 101.59)"><tspan>0.92</tspan></text></g><g fill="none" stroke="none" stroke-linecap="round" stroke-linejoin="round" stroke-width="0" color="#000"><path d="M371.99 80.56h-7.5"/><text fill="#000" font-family="KaTeX_Main" font-size="10" transform="translate(378.99 83.81)"><tspan>0.93</tspan></text></g><g fill="none" stroke="none" stroke-linecap="round" stroke-linejoin="round" stroke-width="0" color="#000"><path d="M371.99 62.79h-7.5"/><text fill="#000" font-family="KaTeX_Main" font-size="10" transform="translate(378.99 66.04)"><tspan>0.93</tspan></text></g><g fill="none" stroke="none" stroke-linecap="round" stroke-linejoin="round" stroke-width="0" color="#000"><path d="M371.99 45.01h-7.5"/><text fill="#000" font-family="KaTeX_Main" font-size="10" transform="translate(378.99 48.26)"><tspan>0.94</tspan></text></g><path fill="none" stroke="none" stroke-linecap="round" stroke-linejoin="round" stroke-width="0" d="M28 45.01V205M371.99 45.01H28" color="#000"/><text fill="#000" stroke="none" stroke-linecap="round" stroke-linejoin="round" stroke-width="0" color="#000" font-family="KaTeX_Main" font-size="10" text-anchor="middle" transform="rotate(-90 68.255 56.755)"><tspan font-weight="bold">AveragePathLength </tspan><tspan> / log</tspan><tspan dy="3" font-size="8">2</tspan><tspan dy="-3">(Size)</tspan></text><text fill="#000" stroke="none" stroke-linecap="round" stroke-linejoin="round" stroke-width="0" color="#000" font-family="KaTeX_Main" font-size="10" text-anchor="middle" transform="translate(199.99 238.25)"><tspan>Operations × 10</tspan><tspan dy="-5" font-size="8">5</tspan></text><text fill="#000" stroke="none" stroke-linecap="round" stroke-linejoin="round" color="#000" font-family="KaTeX_Main" font-size="8" transform="translate(71.2 10.11)"><tspan>RedBlackBottomUp</tspan></text><g fill="none" stroke="currentColor" stroke-linecap="round" stroke-linejoin="round" color="#000"><path stroke="#F44336" d="M35.7 7.51h29.9M28 118.21l.37.97.38.9.37.84.38.74.37.66.37.57.38.48.37.39.38.3.37.23.37.15.38.09.37.03.37-.02.38-.06.37-.1.38-.13.37-.15.37-.18.38-.19.37-.22.38-.22.37-.23.37-.23.38-.24.37-.23.38-.22.37-.2.37-.18.38-.16.37-.12.37-.08.38-.04.37.01.38.07.37.12.37.19.38.24.37.31.38.36.37.42.37.47.38.53.37.57.38.6.37.64.37.67.38.68.37.71.38.71.37.73.37.72.38.71.37.72.37.7.38.68.37.67.38.66.37.62.37.61.38.58.37.55.38.51.37.47.37.43.38.39.37.34.38.29.37.23.37.17.38.11.37.05.37-.01.38-.08.37-.14.38-.19.37-.26.37-.31.38-.36.37-.4.38-.44.37-.48.37-.49.38-.52.37-.52.38-.53.37-.53.37-.51.38-.5.37-.48.38-.44.37-.42.37-.37.38-.33.37-.29.37-.24.38-.18.37-.14.38-.08.37-.04.37.03.38.07.37.12.38.17.37.21.37.26.38.3.37.34.38.36.37.4.37.42.38.43.37.45.37.46.38.46.37.46.38.45.37.44.37.43.38.41.37.38.38.35.37.33.37.29.38.26.37.22.38.19.37.16.37.12.38.08.37.06.38.03h.37l.37-.02.38-.04.37-.06.37-.06.38-.07.37-.07.38-.07.37-.06.37-.06.38-.04.37-.02h.38l.37.02.37.04.38.07.37.09.38.11.37.14.37.16.38.19.37.19.37.21.38.21.37.23.38.21.37.22.37.19.38.18.37.16.38.12.37.1.37.05.38.01.37-.04.38-.08.37-.14.37-.2.38-.24.37-.31.38-.36.37-.41.37-.46.38-.52.37-.56.37-.61.38-.64.37-.67.38-.71.37-.73.37-.76.38-.76.37-.78.38-.78.37-.77.37-.77.38-.75.37-.74.38-.71.37-.69.37-.65.38-.62.37-.58.37-.54.38-.49.37-.45.38-.4.37-.34.37-.3.38-.25.37-.2.38-.15.37-.1.37-.06.38-.02.37.02.38.06.37.09.37.12.38.15.37.16.38.19.37.2.37.2.38.22.37.22.37.22.38.22.37.22.38.21.37.21.37.2.38.2.37.2.38.19.37.18.37.19.38.19.37.18.38.2.37.19.37.21.38.22.37.23.37.24.38.26.37.27.38.3.37.31.37.33.38.34.37.37.38.38.37.39.37.41.38.42.37.43.38.44.37.44.37.45.38.44.37.43.38.42.37.42.37.39.38.38.37.36.37.32.38.3.37.27.38.23.37.19.37.15.38.11.37.07.38.02.37-.02.37-.07.38-.12.37-.15.38-.21.37-.25.37-.29.38-.33.37-.37.37-.41.38-.44.37-.48.38-.5.37-.54.37-.55.38-.58.37-.59.38-.61.37-.62.37-.63.38-.63.37-.63.38-.64.37-.63.37-.63.38-.61.37-.61.38-.6.37-.58.37-.57.38-.55.37-.53.37-.51.38-.5.37-.47.38-.46.37-.43.37-.41.38-.4.37-.37.38-.35.37-.34.37-.31.38-.3.37-.27.38-.26.37-.24.37-.22.38-.2.37-.18.37-.15.38-.14.37-.11.38-.09.37-.06.37-.04h.38l.37.02.38.06.37.09.37.13.38.17.37.2.38.25.37.29.37.33.38.37.37.42.38.46.37.5.37.54.38.59.37.62.37.65.38.68.37.71.38.73.37.76.37.76.38.77.37.78.38.78.37.76.37.75.38.74.37.7.38.68.37.64.37.6.38.55.37.51.37.45.38.4.37.34.38.27.37.22.37.15.38.09.37.03.38-.03.37-.09.37-.15.38-.21.37-.25.38-.3.37-.34.37-.39.38-.41.37-.45.38-.48.37-.49.37-.52.38-.52.37-.53.37-.55.38-.53.37-.54.38-.53.37-.52.37-.52.38-.49.37-.49.38-.47.37-.46.37-.43.38-.42.37-.41.38-.39.37-.37.37-.36.38-.34.37-.33.37-.32.38-.31.37-.3.38-.29.37-.29.37-.28.38-.27.37-.27.38-.27.37-.26.37-.26.38-.26.37-.25.38-.25.37-.24.37-.24.38-.24.37-.22.38-.21.37-.21.37-.19.38-.17.37-.16.37-.14.38-.12.37-.09.38-.07.37-.04.37-.01.38.03.37.05.38.1.37.12.37.17.38.21.37.25.38.28.37.33.37.37.38.41.37.45.37.48.38.52.37.55.38.59.37.61.37.64.38.66.37.68.38.69.37.7.37.71.38.71.37.71.38.7.37.69.37.68.38.66.37.63.38.61.37.58.37.55.38.51.37.47.37.43.38.39.37.35.38.3.37.26.37.21.38.16.37.12.38.08.37.03.37-.01.38-.05.37-.09.38-.13.37-.17.37-.2.38-.23.37-.26.37-.29.38-.31.37-.34.38-.37.37-.38.37-.39.38-.42.37-.42.38-.44.37-.46.37-.45.38-.47.37-.47.38-.48.37-.48.37-.48.38-.49.37-.48.37-.48.38-.48.37-.47.38-.47.37-.46.37-.46.38-.44.37-.44.38-.42.37-.42.37-.39.38-.38.37-.37.38-.35.37-.32.37-.3.38-.28.37-.25.38-.22.37-.19.37-.16.38-.13.37-.09.37-.05.38-.01.37.03.38.08.37.12.37.16.38.21.37.26.38.3.37.35.37.39.38.44.37.48.38.52.37.56.37.59.38.63.37.65.37.67.38.7.37.71.38.72.37.72.37.72.38.72.37.7.38.68.37.66.37.64.38.6.37.56.38.52.37.47.37.42.38.37.37.32.38.25.37.19.37.14.38.06.37.01.37-.05.38-.12.37-.17.38-.24.37-.28.37-.35.38-.39.37-.44.38-.49.37-.53.37-.56.38-.6.37-.64.38-.65.37-.69.37-.7.38-.72.37-.73.37-.74.38-.75.37-.76.38-.75.37-.76.37-.75.38-.75.37-.74.38-.73.37-.72.37-.7.38-.7.37-.68.38-.66.37-.64.37-.63.38-.6.37-.59.38-.57.37-.55.37-.53.38-.52.37-.49.37-.47.38-.45.37-.43.38-.41.37-.38.37-.37.38-.34.37-.32.38-.3.37-.27.37-.25.38-.21.37-.18.38-.16.37-.11.37-.09.38-.03h.37l.37.04.38.1.37.14.38.2.37.24.37.31.38.35.37.41.38.47.37.53.37.58.38.62.37.68.38.73.37.76.37.81.38.83.37.86.38.88.37.9.37.9.38.9.37.89.37.87.38.86.37.82.38.79.37.75.37.69.38.65.37.58.38.53.37.46.37.39.38.32.37.26.38.18.37.11.37.05.38-.01.37-.08.37-.14.38-.19.37-.24.38-.28.37-.32.37-.37.38-.38.37-.42.38-.43.37-.46.37-.45.38-.47.37-.47.38-.47.37-.45.37-.46.38-.43.37-.43.38-.41.37-.38.37-.37.38-.35.37-.32.37-.3.38-.26.37-.24.38-.22.37-.18.37-.15.38-.12.37-.08.38-.05.37-.02.37.01.38.05.37.08.38.11.37.15.37.17.38.2.37.22.37.24.38.26.37.27.38.29.37.28.37.29.38.29.37.28.38.27.37.26.37.24.38.22.37.2.38.17.37.15.37.13.38.1.37.08.38.05.37.04.37.03.38.01.37.01h1.12l.38.02.37.03.37.04.38.06.37.09.38.11.37.14.37.16.38.19.37.22.38.25.37.28.37.3.38.32.37.35.37.36.38.38.37.39.38.4.37.4.37.42.38.4.37.41.38.39.37.39.37.37.38.35.37.32.38.3.37.27.37.23.38.19.37.15.38.11.37.06.37.01.38-.04.37-.08.37-.13.38-.18.37-.23.38-.27.37-.31.37-.34.38-.38.37-.4.38-.43.37-.44.37-.46.38-.47.37-.46.38-.47.37-.46.37-.46.38-.44.37-.42.37-.42.38-.39.37-.37.38-.36.37-.34.37-.32.38-.3.37-.28.38-.26.37-.25.37-.23.38-.22.37-.2.38-.18.37-.17.37-.15.38-.15.37-.12.38-.11.37-.1.37-.08.38-.07.37-.05.37-.05.38-.03.37-.03.38-.02.37-.01.37-.01.38-.01.37-.01.38-.02.37-.01.37-.02.38-.03.37-.03.38-.04.37-.04.37-.04.38-.05.37-.06.37-.05.38-.06.37-.06.38-.07.37-.07.37-.07.38-.09.37-.09.38-.1.37-.1.37-.11.38-.12.37-.11.38-.1.37-.09.37-.07.38-.02.37.02.38.08.37.14.37.24.38.32.37.42.37.53.38.62.37.72.38.81.37.88.37.94.38.97.37.98.38.97.37.92.37.85.38.75.37.64.38.5.37.34.37.17h.38l.37-.17.37-.35.38-.5.37-.65.38-.78.37-.88.37-.98.38-1.04.37-1.09.38-1.13.37-1.13.37-1.14.38-1.12.37-1.09.38-1.04.37-.98.37-.89.38-.78.37-.65.38-.51.37-.35.37-.21.38-.06.37.04.37.13.38.18.37.2.38.18.37.15.37.09.38.04h.37l.38-.05.37-.1.37-.16.38-.21.37-.31.38-.41.37-.51.37-.61.38-.65.37-.68.37-.69.38-.7.37-.75.38-.82.37-.89.37-.88.38-.73.37-.37.38.14.37-.68"/><use xlink:href="#e" color="#F44336" transform="matrix(3.75 0 0 3.75 342.45 119.22)"/><use xlink:href="#e" color="#F44336" transform="matrix(3.75 0 0 3.75 50.65 7.51)"/></g><text fill="#000" stroke="none" stroke-linecap="round" stroke-linejoin="round" color="#000" font-family="KaTeX_Main" font-size="8" transform="translate(71.2 25.11)"><tspan>RedBlackTopDown</tspan></text><g fill="none" stroke="currentColor" stroke-linecap="round" stroke-linejoin="round" color="#000"><path stroke="#3B75EA" stroke-dasharray="1.0,2.0" d="M35.7 22.51h29.9M28 166.31l.37-1.02.38-1.04.37-1.03.38-1.02.37-.99.37-.94.38-.89.37-.83.38-.75.37-.67.37-.57.38-.47.37-.38.37-.27.38-.16.37-.06.38.04.37.14.37.22.38.32.37.39.38.47.37.52.37.59.38.63.37.68.38.72.37.75.37.78.38.81.37.84.37.86.38.88.37.9.38.92.37.94.37.96.38.98.37.99.38.99.37 1.01.37 1.01.38 1 .37 1.01.38.98.37.98.37.95.38.93.37.9.38.86.37.82.37.78.38.73.37.68.37.63.38.56.37.52.38.46.37.4.37.35.38.29.37.23.38.18.37.13.37.08.38.02.37-.01.38-.06.37-.11.37-.14.38-.18.37-.21.37-.25.38-.27.37-.29.38-.33.37-.34.37-.37.38-.38.37-.39.38-.41.37-.42.37-.43.38-.43.37-.45.38-.45.37-.45.37-.46.38-.46.37-.46.38-.46.37-.46.37-.47.38-.46.37-.46.37-.46.38-.46.37-.45.38-.46.37-.45.37-.46.38-.44.37-.45.38-.45.37-.44.37-.44.38-.43.37-.43.38-.43.37-.41.37-.41.38-.4.37-.38.37-.37.38-.35.37-.33.38-.32.37-.28.37-.26.38-.23.37-.2.38-.16.37-.13.37-.1.38-.05.37-.02.38.03.37.06.37.11.38.15.37.18.38.22.37.27.37.29.38.33.37.37.37.39.38.42.37.44.38.46.37.49.37.49.38.51.37.52.38.53.37.52.37.53.38.53.37.51.38.51.37.49.37.48.38.47.37.44.37.42.38.39.37.36.38.34.37.3.37.27.38.24.37.19.38.17.37.12.37.09.38.06.37.01.38-.03.37-.05.37-.09.38-.13.37-.15.38-.19.37-.21.37-.24.38-.25.37-.29.37-.29.38-.32.37-.33.38-.34.37-.35.37-.36.38-.37.37-.37.38-.38.37-.37.37-.38.38-.38.37-.37.38-.37.37-.37.37-.37.38-.36.37-.35.37-.35.38-.34.37-.34.38-.32.37-.31.37-.3.38-.29.37-.28.38-.26.37-.25.37-.22.38-.21.37-.2.38-.17.37-.15.37-.13.38-.11.37-.08.38-.06.37-.05.37-.01h.38l.37.03.37.05.38.07.37.09.38.11.37.13.37.14.38.16.37.18.38.18.37.2.37.22.38.22.37.23.38.24.37.26.37.26.38.26.37.28.37.29.38.29.37.3.38.31.37.33.37.33.38.34.37.35.38.36.37.37.37.38.38.4.37.39.38.41.37.41.37.42.38.42.37.43.38.42.37.42.37.41.38.4.37.4.37.38.38.36.37.34.38.32.37.29.37.26.38.23.37.2.38.17.37.13.37.08.38.05.37.01.38-.03.37-.07.37-.11.38-.15.37-.18.37-.22.38-.26.37-.28.38-.31.37-.34.37-.36.38-.38.37-.4.38-.41.37-.43.37-.43.38-.44.37-.44.38-.44.37-.44.37-.43.38-.44.37-.42.38-.42.37-.4.37-.4.38-.38.37-.37.37-.36.38-.35.37-.34.38-.32.37-.31.37-.3.38-.28.37-.27.38-.26.37-.25.37-.23.38-.22.37-.21.38-.19.37-.18.37-.16.38-.15.37-.13.37-.12.38-.1.37-.09.38-.06.37-.04.37-.03h.38l.37.01.38.04.37.06.37.09.38.1.37.13.38.16.37.17.37.21.38.22.37.25.38.28.37.3.37.32.38.34.37.36.37.39.38.4.37.43.38.43.37.46.37.46.38.48.37.49.38.49.37.5.37.5.38.5.37.5.38.49.37.48.37.46.38.45.37.43.37.41.38.39.37.35.38.33.37.29.37.26.38.22.37.18.38.14.37.09.37.06.38.01.37-.03.38-.08.37-.12.37-.16.38-.21.37-.24.38-.28.37-.32.37-.35.38-.38.37-.41.37-.43.38-.46.37-.47.38-.49.37-.5.37-.51.38-.51.37-.52.38-.51.37-.51.37-.51.38-.49.37-.47.38-.47.37-.44.37-.43.38-.39.37-.38.37-.35.38-.33.37-.29.38-.26.37-.24.37-.2.38-.18.37-.14.38-.12.37-.08.37-.05.38-.02h.37l.38.03.37.06.37.09.38.11.37.13.38.15.37.18.37.19.38.21.37.22.37.24.38.25.37.27.38.28.37.28.37.3.38.3.37.32.38.31.37.33.37.33.38.33.37.34.38.34.37.34.37.35.38.35.37.35.37.35.38.36.37.35.38.36.37.35.37.36.38.35.37.34.38.35.37.34.37.33.38.32.37.32.38.31.37.29.37.28.38.27.37.24.38.23.37.21.37.18.38.16.37.13.37.11.38.08.37.05.38.01.37-.02.37-.05.38-.09.37-.12.38-.16.37-.19.37-.23.38-.26.37-.3.38-.33.37-.35.37-.4.38-.42.37-.44.37-.47.38-.49.37-.52.38-.52.37-.55.37-.56.38-.57.37-.57.38-.59.37-.58.37-.58.38-.58.37-.57.38-.57.37-.55.37-.55.38-.53.37-.51.37-.5.38-.47.37-.46.38-.43.37-.41.37-.38.38-.36.37-.33.38-.3.37-.27.37-.25.38-.21.37-.19.38-.15.37-.12.37-.1.38-.06.37-.03.38.01.37.03.37.07.38.09.37.13.37.15.38.19.37.21.38.24.37.27.37.3.38.32.37.34.38.37.37.38.37.41.38.42.37.44.38.45.37.47.37.47.38.48.37.48.37.49.38.49.37.49.38.48.37.47.37.46.38.45.37.44.38.42.37.4.37.38.38.36.37.34.38.31.37.28.37.25.38.23.37.2.38.16.37.14.37.11.38.08.37.04.37.02.38-.01.37-.03.38-.07.37-.09.37-.12.38-.14.37-.16.38-.19.37-.2.37-.23.38-.24.37-.25.38-.28.37-.28.37-.31.38-.31.37-.33.37-.34.38-.35.37-.36.38-.37.37-.39.37-.39.38-.4.37-.41.38-.42.37-.43.37-.44.38-.45.37-.46.38-.46.37-.48.37-.48.38-.5.37-.49.38-.5.37-.51.37-.51.38-.51.37-.51.37-.51.38-.5.37-.49.38-.49.37-.46.37-.46.38-.43.37-.42.38-.38.37-.36.37-.32.38-.29.37-.25.38-.21.37-.17.37-.12.38-.08.37-.02.37.02.38.08.37.13.38.17.37.24.37.28.38.33.37.38.38.42.37.47.37.5.38.55.37.57.38.61.37.64.37.66.38.68.37.69.38.71.37.71.37.71.38.72.37.7.37.71.38.68.37.68.38.65.37.63.37.61.38.58.37.55.38.52.37.48.37.45.38.41.37.37.38.33.37.29.37.26.38.21.37.17.37.14.38.09.37.05.38.03.37-.02.37-.04.38-.08.37-.11.38-.13.37-.16.37-.18.38-.2.37-.21.38-.23.37-.24.37-.26.38-.26.37-.27.38-.27.37-.28.37-.29.38-.28.37-.29.37-.29.38-.3.37-.3.38-.31.37-.31.37-.31.38-.33.37-.33.38-.34.37-.36.37-.36.38-.38.37-.39.38-.4.37-.41.37-.42.38-.43.37-.44.37-.44.38-.45.37-.44.38-.44.37-.44.37-.42.38-.4.37-.4.38-.36.37-.35.37-.31.38-.28.37-.25.38-.21.37-.17.37-.13.38-.08.37-.05h.38l.37.04.37.09.38.12.37.16.37.19.38.23.37.25.38.28.37.31.37.33.38.34.37.36.38.37.37.37.37.38.38.38.37.38.38.38.37.38.37.37.38.37.37.35.37.35.38.34.37.32.38.32.37.3.37.29.38.28.37.26.38.26.37.23.37.23.38.21.37.2.38.19.37.18.37.16.38.15.37.14.38.12.37.11.37.1.38.08.37.07.37.05.38.04.37.02.38.01.37-.02.37-.03.38-.06.37-.07.38-.1.37-.11.37-.12.38-.15.37-.16.38-.18.37-.19.37-.19.38-.21.37-.21.37-.22.38-.22.37-.22.38-.22.37-.22.37-.23.38-.22.37-.23.38-.24.37-.24.37-.26.38-.28.37-.3.38-.33.37-.36.37-.4.38-.44.37-.48.38-.52.37-.57.37-.62.38-.66.37-.7.37-.74.38-.77.37-.8.38-.81.37-.81.37-.81.38-.8.37-.76.38-.73.37-.67.37-.62.38-.54.37-.46.38-.37.37-.27.37-.18.38-.08.37.03.37.12.38.21.37.31.38.38.37.45.37.51.38.56.37.61.38.63.37.66.37.66.38.68.37.67.38.68.37.67.37.66.38.66.37.66.38.65.37.66.37.66.38.68.37.68.37.7.38.72.37.73.38.74.37.75.37.76.38.76.37.75.38.74.37.7.37.67.38.61.37.56.38.48.37.39.37.31.38.22.37.11.37.02.38-.08.37-.17.38-.25.37-.33.37-.4.38-.46.37-.52.38-.57.37-.63.37-.66.38-.72.37-.76.38-.81.37-.86.37-.89.38-.92.37-.94.38-.93.37-.91.37-.86.38-.78.37-.68.37-.56.38-.42.37-.28.38-.15.37-.01.37.09.38.17.37.23.38.24.37.22.37.16.38.03.37-.1.38-.25.37-.41.37-.53.38-.59.37-.6.37-.61.38-.62.37-.69.38-.86.37-1.1.37-1.35.38-1.55.37-1.6.38-1.59.37-2.39"/><use xlink:href="#g" color="#3B75EA" transform="matrix(3.75 0 0 3.75 56.04 186.51)"/><use xlink:href="#g" color="#3B75EA" transform="matrix(3.75 0 0 3.75 50.65 22.51)"/></g><text fill="#000" stroke="none" stroke-linecap="round" stroke-linejoin="round" color="#000" font-family="KaTeX_Main" font-size="8" transform="translate(241.1 10.11)"><tspan>RedBlackRelaxedBottomUp</tspan></text><g fill="none" stroke="currentColor" stroke-linecap="round" stroke-linejoin="round" color="#000"><path stroke="#00C853" d="M205.6 7.51h29.9M28 118.03l.37.9.38.81.37.71.38.6.37.47.37.34.38.2.37.05.38-.09.37-.24.37-.38.38-.51.37-.65.37-.77.38-.89.37-.99.38-1.11.37-1.19.37-1.29.38-1.36.37-1.43.38-1.5.37-1.56.37-1.62.38-1.67.37-1.72.38-1.75.37-1.8.37-1.82.38-1.85.37-1.87.37-1.88.38-1.88.37-1.87.38-1.84.37-1.81.37-1.76.38-1.7.37-1.61.38-1.53.37-1.41.37-1.29.38-1.15.37-1.02.38-.86.37-.7.37-.53.38-.37.37-.2.38-.02.37.14.37.31.38.47.37.63.37.78.38.93.37 1.08.38 1.2.37 1.34.37 1.45.38 1.56.37 1.65.38 1.74.37 1.81.37 1.87.38 1.91.37 1.94.38 1.95.37 1.94.37 1.92.38 1.88.37 1.83.37 1.76.38 1.68.37 1.6.38 1.49.37 1.39.37 1.28.38 1.18.37 1.06.38.95.37.85.37.75.38.65.37.57.38.49.37.42.37.36.38.29.37.25.38.21.37.17.37.14.38.1.37.09.37.05.38.03.37.01.38-.01.37-.04.37-.06.38-.1.37-.12.38-.15.37-.18.37-.21.38-.25.37-.28.38-.32.37-.35.37-.39.38-.43.37-.47.37-.5.38-.54.37-.57.38-.61.37-.64.37-.67.38-.72.37-.74.38-.78.37-.8.37-.84.38-.87.37-.9.38-.93.37-.96.37-.97.38-1.01.37-1.02.38-1.04.37-1.06.37-1.08.38-1.08.37-1.09.37-1.09.38-1.09.37-1.08.38-1.07.37-1.06.37-1.02.38-1.01.37-.96.38-.93.37-.88.37-.84.38-.77.37-.73.38-.65.37-.59.37-.52.38-.45.37-.38.37-.3.38-.24.37-.16.38-.09.37-.03.37.04.38.09.37.15.38.19.37.24.37.27.38.29.37.32.38.33.37.33.37.34.38.33.37.31.38.3.37.27.37.25.38.22.37.19.37.16.38.12.37.09.38.06.37.04h.37l.38-.02.37-.04.38-.06.37-.07.37-.08.38-.08.37-.07.38-.07.37-.05.37-.04.38-.02.37.01.37.03.38.07.37.1.38.14.37.18.37.21.38.26.37.3.38.34.37.37.37.42.38.44.37.47.38.51.37.51.37.54.38.56.37.55.38.56.37.55.37.53.38.52.37.49.37.46.38.41.37.37.38.32.37.26.37.2.38.13.37.06.38-.01.37-.09.37-.18.38-.25.37-.33.38-.42.37-.49.37-.58.38-.65.37-.72.37-.79.38-.86.37-.92.38-.98.37-1.02.37-1.07.38-1.11.37-1.14.38-1.17.37-1.19.37-1.19.38-1.2.37-1.2.38-1.19.37-1.17.37-1.15.38-1.11.37-1.09.38-1.03.37-.99.37-.93.38-.87.37-.82.37-.73.38-.68.37-.59.38-.52.37-.44.37-.37.38-.28.37-.21.38-.14.37-.06.37.01.38.08.37.14.38.2.37.25.37.3.38.35.37.38.37.41.38.44.37.45.38.48.37.47.37.49.38.48.37.47.38.46.37.45.37.43.38.41.37.39.38.36.37.34.37.31.38.28.37.26.38.23.37.2.37.18.38.16.37.12.37.11.38.08.37.07.38.04.37.03.37.01.38-.01.37-.02.38-.04.37-.06.37-.06.38-.09.37-.1.38-.12.37-.14.37-.16.38-.17.37-.21.37-.22.38-.25.37-.27.38-.3.37-.33.37-.36.38-.38.37-.41.38-.44.37-.46.37-.49.38-.5.37-.53.38-.53.37-.54.37-.55.38-.54.37-.53.38-.52.37-.49.37-.46.38-.43.37-.37.37-.33.38-.26.37-.19.38-.12.37-.04.37.04.38.14.37.23.38.32.37.43.37.52.38.62.37.72.38.81.37.91.37.98.38 1.07.37 1.14.37 1.21.38 1.27.37 1.31.38 1.36.37 1.38.37 1.42.38 1.42.37 1.43.38 1.42.37 1.41.37 1.38.38 1.36.37 1.32.38 1.27.37 1.23.37 1.17.38 1.12.37 1.05.38.99.37.92.37.85.38.78.37.72.37.64.38.58.37.52.38.44.37.38.37.32.38.25.37.2.38.13.37.08.37.03.38-.04.37-.08.38-.15.37-.2.37-.25.38-.3.37-.36.37-.42.38-.47.37-.53.38-.59.37-.64.37-.71.38-.76.37-.82.38-.88.37-.94.37-1.01.38-1.06.37-1.12.38-1.17.37-1.24.37-1.28.38-1.34.37-1.38.38-1.43.37-1.46.37-1.5.38-1.53.37-1.55.37-1.57.38-1.58.37-1.58.38-1.58.37-1.56.37-1.54.38-1.51.37-1.47.38-1.42.37-1.35.37-1.29.38-1.21.37-1.11.38-1.02.37-.9.37-.79.38-.66.37-.53.37-.39.38-.25.37-.09.38.06.37.21.37.37.38.53.37.68.38.84.37.98.37 1.13.38 1.26.37 1.39.38 1.51.37 1.62.37 1.72.38 1.81.37 1.88.38 1.95.37 1.99.37 2.04.38 2.06.37 2.08.37 2.08.38 2.06.37 2.05.38 2.01.37 1.97.37 1.93.38 1.86.37 1.8.38 1.73.37 1.65.37 1.57.38 1.49.37 1.4.38 1.31.37 1.22.37 1.13.38 1.05.37.96.37.87.38.79.37.71.38.63.37.55.37.47.38.41.37.33.38.27.37.2.37.14.38.08.37.02.38-.04.37-.09.37-.15.38-.21.37-.25.37-.31.38-.37.37-.41.38-.47.37-.52.37-.57.38-.62.37-.67.38-.72.37-.77.37-.81.38-.87.37-.91.38-.95.37-1 .37-1.04.38-1.07.37-1.12.38-1.15.37-1.18.37-1.21.38-1.24.37-1.25.37-1.28.38-1.29.37-1.3.38-1.31.37-1.3.37-1.3.38-1.3.37-1.27.38-1.26.37-1.22.37-1.2.38-1.15.37-1.11.38-1.06.37-1 .37-.94.38-.87.37-.79.37-.71.38-.63.37-.53.38-.44.37-.35.37-.24.38-.14.37-.03.38.07.37.18.37.29.38.39.37.49.38.59.37.69.37.78.38.86.37.94.38 1.02.37 1.08.37 1.13.38 1.18.37 1.22.37 1.26.38 1.27.37 1.29.38 1.3.37 1.29.37 1.27.38 1.26.37 1.23.38 1.2.37 1.15.37 1.11.38 1.05.37 1 .38.94.37.88.37.82.38.75.37.68.37.61.38.54.37.48.38.42.37.34.37.28.38.22.37.16.38.1.37.04.37-.02.38-.07.37-.13.38-.17.37-.24.37-.28.38-.33.37-.39.38-.44.37-.48.37-.54.38-.6.37-.64.37-.7.38-.76.37-.8.38-.87.37-.91.37-.98.38-1.03.37-1.09.38-1.15.37-1.2.37-1.26.38-1.31.37-1.36.38-1.41.37-1.46.37-1.5.38-1.54.37-1.57.37-1.6.38-1.62.37-1.64.38-1.64.37-1.64.37-1.63.38-1.62.37-1.58.38-1.54.37-1.49.37-1.43.38-1.35.37-1.26.38-1.16.37-1.06.37-.95.38-.81.37-.67.38-.53.37-.38.37-.22.38-.06.37.11.37.27.38.43.37.6.38.75.37.9.37 1.05.38 1.18.37 1.31.38 1.42.37 1.52.37 1.61.38 1.69.37 1.75.38 1.8.37 1.83.37 1.85.38 1.86.37 1.85.37 1.84.38 1.8.37 1.78.38 1.72.37 1.68.37 1.61.38 1.55.37 1.48.38 1.41.37 1.34.37 1.27.38 1.2.37 1.12.38 1.06.37.98.37.93.38.86.37.8.38.75.37.7.37.66.38.61.37.57.37.54.38.5.37.48.38.45.37.42.37.4.38.37.37.36.38.33.37.31.37.29.38.27.37.24.38.22.37.19.37.16.38.13.37.09.37.06.38.01.37-.04.38-.08.37-.14.37-.2.38-.25.37-.33.38-.39.37-.47.37-.54.38-.63.37-.7.38-.79.37-.88.37-.96.38-1.05.37-1.14.38-1.22.37-1.29.37-1.38.38-1.44.37-1.51.37-1.56.38-1.62.37-1.65.38-1.69.37-1.71.37-1.72.38-1.72.37-1.72.38-1.69.37-1.67.37-1.64.38-1.59.37-1.54.38-1.48.37-1.41.37-1.35.38-1.28.37-1.2.37-1.12.38-1.05.37-.96.38-.89.37-.8.37-.72.38-.63.37-.55.38-.47.37-.37.37-.28.38-.19.37-.1h.38l.37.1.37.2.38.29.37.4.38.49.37.58.37.68.38.75.37.84.37.91.38.97.37 1.02.38 1.06.37 1.1.37 1.14.38 1.15.37 1.16.38 1.18.37 1.17.37 1.18.38 1.18.37 1.17.38 1.17.37 1.18.37 1.16.38 1.17.37 1.17.37 1.16.38 1.16.37 1.15.38 1.13.37 1.12.37 1.1.38 1.06.37 1.02.38.97.37.91.37.84.38.77.37.69.38.6.37.51.37.43.38.34.37.25.38.17.37.08.37.02.38-.05.37-.11.37-.16.38-.22.37-.26.38-.31.37-.36.37-.4.38-.45.37-.5.38-.56.37-.61.37-.69.38-.75.37-.83.38-.91.37-.98.37-1.06.38-1.12.37-1.19.37-1.24.38-1.29.37-1.31.38-1.34.37-1.34.37-1.33.38-1.31.37-1.26.38-1.21.37-1.15.37-1.07.38-.99.37-.89.38-.79.37-.69.37-.58.38-.46.37-.33.38-.22.37-.09.37.05.38.19.37.33.37.48.38.62.37.77.38.91.37 1.03.37 1.15.38 1.25.37 1.31.38 1.34.37 1.33.37 1.27.38 1.17.37 1.02.38.82.37.58.37.31.38.02.37-.29.37-.57.38-.86.37-1.1.38-1.31.37-1.47.37-1.58.38-1.64.37-1.66.38-1.62.37-1.54.37-1.43.38-1.29.37-1.09.38-.9.37-.65.37-.39.38-.12.37.17.38.46.37.75.37 1 .38 1.23.37 1.39.37 1.5.38 1.54.37 1.48.38 1.34.37 1.15.37.88.38.58.37.27.38-.05.37-.34.37-.59.38-.81.37-.99.38-1.15.37-1.31.37-1.44.38-1.58.37-1.68.37-1.75.38-1.77.37-1.7.38-1.54.37-1.28.37-.86.38-.17.37.98.38 2.41.37 1.29"/><use xlink:href="#b" color="#00C853" transform="matrix(3.75 0 0 3.75 113.62 94.97)"/><use xlink:href="#b" color="#00C853" transform="matrix(3.75 0 0 3.75 220.55 7.51)"/></g><text fill="#000" stroke="none" stroke-linecap="round" stroke-linejoin="round" color="#000" font-family="KaTeX_Main" font-size="8" transform="translate(241.1 25.11)"><tspan>RedBlackRelaxedTopDown</tspan></text><g fill="none" stroke="currentColor" stroke-linecap="round" stroke-linejoin="round" color="#000"><path stroke="#FFAB00" stroke-dasharray="4.5,2.0,0.5,2.0,0.5,2.0" d="M205.6 22.51h29.9M28 166.08l.37-1.12.38-1.16.37-1.19.38-1.22.37-1.24.37-1.26.38-1.28.37-1.3.38-1.31.37-1.32.37-1.34.38-1.36.37-1.37.37-1.4.38-1.41.37-1.43.38-1.45.37-1.46.37-1.47.38-1.48.37-1.48.38-1.46.37-1.45.37-1.42.38-1.39.37-1.33.38-1.28.37-1.22.37-1.14.38-1.07.37-.99.37-.9.38-.83.37-.74.38-.67.37-.61.37-.53.38-.48.37-.42.38-.39.37-.35.37-.32.38-.3.37-.27.38-.26.37-.23.37-.22.38-.2.37-.18.38-.15.37-.12.37-.09.38-.04.37.01.37.07.38.12.37.19.38.26.37.34.37.41.38.48.37.56.38.64.37.7.37.76.38.81.37.86.38.89.37.92.37.92.38.93.37.91.37.88.38.85.37.81.38.75.37.69.37.61.38.55.37.48.38.4.37.32.37.26.38.18.37.12.38.07.37.01.37-.03.38-.06.37-.1.38-.11.37-.12.37-.13.38-.13.37-.13.37-.11.38-.11.37-.09.38-.06.37-.06.37-.03.38-.02.37-.01h.38l.37.01.37.01.38.01h.37l.38-.01.37-.02.37-.05.38-.07.37-.1.37-.12.38-.17.37-.2.38-.23.37-.27.37-.31.38-.35.37-.39.38-.42.37-.46.37-.48.38-.53.37-.54.38-.58.37-.59.37-.62.38-.64.37-.65.38-.66.37-.68.37-.67.38-.68.37-.67.37-.67.38-.65.37-.63.38-.6.37-.58.37-.53.38-.49.37-.43.38-.38.37-.31.37-.23.38-.16.37-.06.38.02.37.11.37.23.38.32.37.42.37.52.38.63.37.73.38.82.37.91.37 1 .38 1.07.37 1.14.38 1.2.37 1.25.37 1.28.38 1.32.37 1.33.38 1.34.37 1.33.37 1.33.38 1.29.37 1.27.38 1.22.37 1.18.37 1.11.38 1.06.37.99.37.92.38.84.37.77.38.69.37.6.37.53.38.44.37.37.38.29.37.21.37.14.38.06h.37l.38-.06.37-.13.37-.19.38-.24.37-.29.37-.34.38-.39.37-.42.38-.46.37-.5.37-.52.38-.55.37-.57.38-.6.37-.61.37-.62.38-.64.37-.65.38-.65.37-.65.37-.66.38-.65.37-.65.38-.65.37-.63.37-.63.38-.62.37-.59.37-.59.38-.55.37-.54.38-.52.37-.49.37-.46.38-.44.37-.4.38-.37.37-.34.37-.3.38-.28.37-.23.38-.21.37-.17.37-.15.38-.11.37-.1.37-.07.38-.05.37-.04.38-.03.37-.03.37-.02.38-.04.37-.04.38-.06.37-.09.37-.11.38-.14.37-.19.38-.22.37-.27.37-.32.38-.38.37-.43.38-.48.37-.54.37-.61.38-.66.37-.71.37-.78.38-.82.37-.88.38-.92.37-.97.37-1.01.38-1.05.37-1.08.38-1.11.37-1.12.37-1.15.38-1.15.37-1.17.38-1.16.37-1.16.37-1.16.38-1.14.37-1.12.37-1.11.38-1.07.37-1.05.38-1.02.37-.98.37-.94.38-.9.37-.86.38-.81.37-.76.37-.71.38-.66.37-.61.38-.56.37-.5.37-.45.38-.39.37-.34.38-.28.37-.23.37-.17.38-.12.37-.07.37-.01.38.04.37.08.38.14.37.18.37.22.38.27.37.3.38.35.37.38.37.42.38.44.37.47.38.5.37.52.37.54.38.56.37.57.37.58.38.59.37.6.38.6.37.6.37.6.38.6.37.59.38.59.37.58.37.58.38.56.37.56.38.56.37.54.37.54.38.53.37.54.38.53.37.53.37.53.38.54.37.55.37.55.38.58.37.59.38.61.37.62.37.66.38.68.37.71.38.74.37.78.37.8.38.85.37.88.38.91.37.94.37.99.38 1.01.37 1.04.37 1.07.38 1.1.37 1.12.38 1.13.37 1.14.37 1.16.38 1.16.37 1.15.38 1.15.37 1.14.37 1.12.38 1.1.37 1.06.38 1.04.37.99.37.96.38.9.37.86.38.79.37.74.37.69.38.62.37.55.37.5.38.43.37.37.38.3.37.25.37.18.38.13.37.07.38.02.37-.03.37-.08.38-.11.37-.16.38-.19.37-.22.37-.25.38-.27.37-.3.37-.31.38-.32.37-.34.38-.34.37-.35.37-.35.38-.35.37-.35.38-.35.37-.34.37-.34.38-.32.37-.32.38-.31.37-.29.37-.28.38-.28.37-.25.38-.25.37-.23.37-.22.38-.21.37-.19.37-.18.38-.17.37-.15.38-.15.37-.14.37-.12.38-.11.37-.11.38-.1.37-.1.37-.1.38-.09.37-.1.38-.1.37-.1.37-.12.38-.13.37-.14.37-.16.38-.18.37-.2.38-.23.37-.25.37-.29.38-.33.37-.36.38-.4.37-.43.37-.49.38-.52.37-.57.38-.61.37-.66.37-.7.38-.75.37-.79.38-.83.37-.87.37-.91.38-.95.37-.98.37-1.01.38-1.04.37-1.06.38-1.09.37-1.1.37-1.13.38-1.13.37-1.14.38-1.15.37-1.15.37-1.15.38-1.15.37-1.14.38-1.14.37-1.13.37-1.11.38-1.09.37-1.08.37-1.06.38-1.04.37-1.02.38-.99.37-.97.37-.94.38-.91.37-.88.38-.85.37-.82.37-.78.38-.74.37-.71.38-.67.37-.63.37-.59.38-.54.37-.5.37-.45.38-.4.37-.35.38-.3.37-.24.37-.19.38-.13.37-.07h.38l.37.05.37.13.38.19.37.25.38.33.37.39.37.47.38.53.37.6.38.67.37.74.37.8.38.87.37.93.37.99.38 1.04.37 1.1.38 1.15.37 1.18.37 1.23.38 1.27.37 1.29.38 1.33.37 1.34.37 1.35.38 1.36.37 1.37.38 1.37.37 1.36.37 1.34.38 1.34.37 1.31.37 1.29.38 1.26.37 1.23.38 1.2.37 1.16.37 1.13.38 1.08.37 1.05.38 1 .37.97.37.92.38.88.37.84.38.79.37.76.37.71.38.67.37.63.38.59.37.55.37.5.38.47.37.42.37.39.38.34.37.3.38.25.37.22.37.16.38.12.37.08.38.04.37-.02.37-.06.38-.11.37-.16.38-.2.37-.25.37-.3.38-.35.37-.39.37-.44.38-.48.37-.53.38-.57.37-.6.37-.65.38-.69.37-.72.38-.75.37-.79.37-.82.38-.84.37-.87.38-.9.37-.91.37-.93.38-.96.37-.96.38-.97.37-.99.37-.99.38-.99.37-1 .37-.99.38-.99.37-.99.38-.97.37-.96.37-.95.38-.92.37-.9.38-.88.37-.85.37-.82.38-.77.37-.74.38-.69.37-.64.37-.58.38-.53.37-.46.37-.4.38-.32.37-.25.38-.16.37-.08.37.01.38.1.37.19.38.29.37.4.37.49.38.6.37.7.38.8.37.9.37 1 .38 1.09.37 1.19.38 1.27.37 1.34.37 1.43.38 1.48.37 1.55.37 1.59.38 1.63.37 1.66.38 1.68.37 1.69.37 1.68.38 1.67.37 1.65.38 1.61.37 1.57.37 1.52.38 1.46.37 1.39.38 1.31.37 1.23.37 1.14.38 1.05.37.95.37.85.38.76.37.65.38.55.37.46.37.35.38.26.37.17.38.08.37-.01.37-.09.38-.16.37-.23.38-.3.37-.36.37-.41.38-.46.37-.5.38-.55.37-.57.37-.61.38-.63.37-.65.37-.67.38-.69.37-.71.38-.71.37-.73.37-.74.38-.76.37-.77.38-.78.37-.81.37-.82.38-.84.37-.86.38-.9.37-.92.37-.95.38-.99.37-1.02.37-1.05.38-1.1.37-1.13.38-1.17.37-1.2.37-1.25.38-1.26.37-1.3.38-1.33.37-1.34.37-1.35.38-1.36.37-1.36.38-1.35.37-1.34.37-1.31.38-1.27.37-1.23.38-1.18.37-1.11.37-1.04.38-.95.37-.86.37-.75.38-.64.37-.53.38-.39.37-.26.37-.13.38.03.37.16.38.32.37.46.37.6.38.75.37.87.38 1.01.37 1.12.37 1.23.38 1.33.37 1.41.37 1.47.38 1.53.37 1.57.38 1.59.37 1.59.37 1.59.38 1.57.37 1.52.38 1.48.37 1.43.37 1.35.38 1.27.37 1.19.38 1.1.37 1.02.37.91.38.83.37.73.38.65.37.56.37.48.38.39.37.33.37.26.38.2.37.14.38.08.37.04.37-.01.38-.05.37-.09.38-.13.37-.17.37-.19.38-.24.37-.27.38-.3.37-.34.37-.37.38-.4.37-.44.37-.46.38-.49.37-.53.38-.54.37-.56.37-.57.38-.58.37-.59.38-.57.37-.57.37-.54.38-.52.37-.48.38-.44.37-.39.37-.34.38-.28.37-.22.38-.16.37-.1.37-.03h.38l.37.06.37.08.38.12.37.12.38.13.37.11.37.08.38.05.37-.01.38-.06.37-.13.37-.19.38-.25.37-.32.38-.36.37-.4.37-.42.38-.42.37-.41.37-.36.38-.3.37-.22.38-.13.37-.01.37.11.38.22.37.35.38.46.37.57.37.63.38.69.37.71.38.71.37.67.37.6.38.5.37.38.38.23.37.07.37-.1.38-.27.37-.42.37-.58.38-.7.37-.79.38-.87.37-.9.37-.9.38-.86.37-.79.38-.69.37-.57.37-.42.38-.28.37-.13.38.02.37.14.37.26.38.34.37.4.37.42.38.42.37.39.38.32.37.25.37.15.38.04.37-.07.38-.18.37-.3.37-.41.38-.51.37-.61.38-.71.37-.78.37-.85.38-.92.37-.95.38-.97.37-.96.37-.93.38-.86.37-.77.37-.64.38-.51.37-.35.38-.23.37-.1h.37l.38.06.37.09.38.08.37.03.37-.05.38-.17.37-.28.38-.4.37-.46.37-.42.38-.26.37.07.37.53.38 1.06.37 1.53.38 1.73.37 1.48.37.66.38-.5.37-1.51.38-1.99.37-2.6"/><use xlink:href="#g" color="#FFAB00" transform="matrix(3.75 0 0 3.75 171.2 145.56)"/><use xlink:href="#g" color="#FFAB00" transform="matrix(3.75 0 0 3.75 220.55 22.51)"/></g><path fill="none" stroke="none" stroke-linecap="round" stroke-linejoin="round" stroke-width="0" d="M28 45.01V205M371.99 45.01H28" color="#000"/></svg>