<svg xmlns="http://www.w3.org/2000/svg" xmlns:xlink="http://www.w3.org/1999/xlink" viewBox="0 0 400 250"><path fill="none" d="M0 0h400v250H0z"/><defs><path id="d" stroke="currentColor" stroke-width=".267" d="M-1 0h2M0-1v2"/><path id="e" stroke="currentColor" stroke-width=".267" d="m-1-1 2 2m0-2-2 2"/><path id="c" stroke="currentColor" stroke-width=".267" d="M-1-1h2v2h-2z"/><path id="b" stroke="currentColor" stroke-width=".267" d="m0-1.33-1.33 2h2.66z"/><circle id="a" cx="0" cy="0" r="1" stroke="currentColor" stroke-width=".267"/><use xlink:href="#a" id="f" fill="currentColor" stroke="none"/></defs><path fill="none" stroke="#333" stroke-linecap="round" stroke-linejoin="round" stroke-width=".1" d="M46.1 205V45.01" class="gridline" color="#000"/><g fill="none" stroke-linecap="round" stroke-linejoin="round" stroke-width="0" color="#000"><path d="M46.1 205v-7.5m0-152.49v7.5"/><text fill="#000" font-family="KaTeX_Main" font-size="8" text-anchor="middle" transform="translate(46.1 215.1)"><tspan> 1</tspan></text></g><path fill="none" stroke="#333" stroke-linecap="round" stroke-linejoin="round" stroke-width=".1" d="M82.31 205V45.01" class="gridline" color="#000"/><g fill="none" stroke-linecap="round" stroke-linejoin="round" stroke-width="0" color="#000"><path d="M82.31 205v-7.5m0-152.49v7.5"/><text fill="#000" font-family="KaTeX_Main" font-size="8" text-anchor="middle" transform="translate(82.31 215.1)"><tspan> 2</tspan></text></g><path fill="none" stroke="#333" stroke-linecap="round" stroke-linejoin="round" stroke-width=".1" d="M118.52 205V45.01" class="gridline" color="#000"/><g fill="none" stroke-linecap="round" stroke-linejoin="round" stroke-width="0" color="#000"><path d="M118.52 205v-7.5m0-152.49v7.5"/><text fill="#000" font-family="KaTeX_Main" font-size="8" text-anchor="middle" transform="translate(118.52 215.1)"><tspan> 3</tspan></text></g><path fill="none" stroke="#333" stroke-linecap="round" stroke-linejoin="round" stroke-width=".1" d="M154.73 205V45.01" class="gridline" color="#000"/><g fill="none" stroke-linecap="round" stroke-linejoin="round" stroke-width="0" color="#000"><path d="M154.73 205v-7.5m0-152.49v7.5"/><text fill="#000" font-family="KaTeX_Main" font-size="8" text-anchor="middle" transform="translate(154.73 215.1)"><tspan> 4</tspan></text></g><path fill="none" stroke="#333" stroke-linecap="round" stroke-linejoin="round" stroke-width=".1" d="M190.94 205V45.01" class="gridline" color="#000"/><g fill="none" stroke-linecap="round" stroke-linejoin="round" stroke-width="0" color="#000"><path d="M190.94 205v-7.5m0-152.49v7.5"/><text fill="#000" font-family="KaTeX_Main" font-size="8" text-anchor="middle" transform="translate(190.94 215.1)"><tspan> 5</tspan></text></g><path fill="none" stroke="#333" stroke-linecap="round" stroke-linejoin="round" stroke-width=".1" d="M227.15 205V45.01" class="gridline" color="#000"/><g fill="none" stroke-linecap="round" stroke-linejoin="round" stroke-width="0" color="#000"><path d="M227.15 205v-7.5m0-152.49v7.5"/><text fill="#000" font-family="KaTeX_Main" font-size="8" text-anchor="middle" transform="translate(227.15 215.1)"><tspan> 6</tspan></text></g><path fill="none" stroke="#333" stroke-linecap="round" stroke-linejoin="round" stroke-width=".1" d="M263.36 205V45.01" class="gridline" color="#000"/><g fill="none" stroke-linecap="round" stroke-linejoin="round" stroke-width="0" color="#000"><path d="M263.36 205v-7.5m0-152.49v7.5"/><text fill="#000" font-family="KaTeX_Main" font-size="8" text-anchor="middle" transform="translate(263.36 215.1)"><tspan> 7</tspan></text></g><path fill="none" stroke="#333" stroke-linecap="round" stroke-linejoin="round" stroke-width=".1" d="M299.57 205V45.01" class="gridline" color="#000"/><g fill="none" stroke-linecap="round" stroke-linejoin="round" stroke-width="0" color="#000"><path d="M299.57 205v-7.5m0-152.49v7.5"/><text fill="#000" font-family="KaTeX_Main" font-size="8" text-anchor="middle" transform="translate(299.57 215.1)"><tspan> 8</tspan></text></g><path fill="none" stroke="#333" stroke-linecap="round" stroke-linejoin="round" stroke-width=".1" d="M335.78 205V45.01" class="gridline" color="#000"/><g fill="none" stroke-linecap="round" stroke-linejoin="round" stroke-width="0" color="#000"><path d="M335.78 205v-7.5m0-152.49v7.5"/><text fill="#000" font-family="KaTeX_Main" font-size="8" text-anchor="middle" transform="translate(335.78 215.1)"><tspan> 9</tspan></text></g><path fill="none" stroke="#333" stroke-linecap="round" stroke-linejoin="round" stroke-width=".1" d="M371.99 205V45.01" class="gridline" color="#000"/><g fill="none" stroke-linecap="round" stroke-linejoin="round" stroke-width="0" color="#000"><path d="M371.99 205v-7.5m0-152.49v7.5"/><text fill="#000" font-family="KaTeX_Main" font-size="8" text-anchor="middle" transform="translate(371.99 215.1)"><tspan> 10</tspan></text></g><g fill="none" stroke-linecap="round" stroke-linejoin="round" stroke-width="0" color="#000"><path d="M371.99 205h-7.5"/><text fill="#000" font-family="KaTeX_Main" font-size="8" transform="translate(378.99 207.6)"><tspan>0.50</tspan></text></g><g fill="none" stroke-linecap="round" stroke-linejoin="round" stroke-width="0" color="#000"><path d="M371.99 182.14h-7.5"/><text fill="#000" font-family="KaTeX_Main" font-size="8" transform="translate(378.99 184.74)"><tspan>0.60</tspan></text></g><g fill="none" stroke-linecap="round" stroke-linejoin="round" stroke-width="0" color="#000"><path d="M371.99 159.29h-7.5"/><text fill="#000" font-family="KaTeX_Main" font-size="8" transform="translate(378.99 161.89)"><tspan>0.70</tspan></text></g><g fill="none" stroke-linecap="round" stroke-linejoin="round" stroke-width="0" color="#000"><path d="M371.99 136.43h-7.5"/><text fill="#000" font-family="KaTeX_Main" font-size="8" transform="translate(378.99 139.03)"><tspan>0.80</tspan></text></g><g fill="none" stroke-linecap="round" stroke-linejoin="round" stroke-width="0" color="#000"><path d="M371.99 113.58h-7.5"/><text fill="#000" font-family="KaTeX_Main" font-size="8" transform="translate(378.99 116.18)"><tspan>0.90</tspan></text></g><g fill="none" stroke-linecap="round" stroke-linejoin="round" stroke-width="0" color="#000"><path d="M371.99 90.72h-7.5"/><text fill="#000" font-family="KaTeX_Main" font-size="8" transform="translate(378.99 93.32)"><tspan>1.00</tspan></text></g><g fill="none" stroke-linecap="round" stroke-linejoin="round" stroke-width="0" color="#000"><path d="M371.99 67.87h-7.5"/><text fill="#000" font-family="KaTeX_Main" font-size="8" transform="translate(378.99 70.47)"><tspan>1.10</tspan></text></g><g fill="none" stroke-linecap="round" stroke-linejoin="round" stroke-width="0" color="#000"><path d="M371.99 45.01h-7.5"/><text fill="#000" font-family="KaTeX_Main" font-size="8" transform="translate(378.99 47.61)"><tspan>1.20</tspan></text></g><path fill="none" d="M28 45.01V205M371.99 45.01H28" color="#000"/><text stroke-linecap="round" stroke-linejoin="round" stroke-width="0" color="#000" font-family="KaTeX_Main" font-size="10" text-anchor="middle" transform="rotate(-90 68.255 56.755)"><tspan font-weight="bold">Duration </tspan><tspan> in milliseconds</tspan></text><text stroke-linecap="round" stroke-linejoin="round" stroke-width="0" color="#000" font-family="KaTeX_Main" font-size="10" text-anchor="middle" transform="translate(199.99 238.25)"><tspan>Operations / 10</tspan><tspan dy="-5" font-size="8">5</tspan></text><text stroke-linecap="round" stroke-linejoin="round" color="#000" font-family="KaTeX_Main" font-size="8" transform="translate(99.2 10.11)"><tspan>AVLBottomUp</tspan></text><g fill="none" stroke="currentColor" stroke-linecap="round" stroke-linejoin="round" color="#000"><path stroke="#000" d="M63.7 7.51h29.9M28 193.44l.36-8.99.36 9.27.37-3.27.36 4.39.36-8.74.36 6.47.36-.11.37-5.7.36 1.49.36 1.46.36-10.56.37 9.88.36-1.96.36 3.13.36-.22.36-3.7.37 3.29.36-3.78.36-5.81.36 6.56.36-10.67.37 11.65.36-5.66.36 4.95.36-.14.36-3.96.37.87.36-2.81.36-5.1.36 6.53.36-10.69.37 9.76.36-1.85.36 3.06.36-.44.37-8.63.36 9.96.36-9.44.36 1.74.36 5.12.37-14.19.36 13.28.36-4.1.36 3.41.36-7.15.37 4.82.36-1.63.36-.89.36-2.21.36-.34.37-3.82.36 6.43.36-7.58.36 12.05.37-9.39.36 5.48.36-5.67.36-2.34.36 1.35.37 1.54.36-9.13.36 10.63.36-2.28.36 5.28.37-9.65.36 9.3.36-11.28.36 1.42.36 5 .37-12.82.36 13.59.36-3.52.36 3.46.37-7.07.36 5.85.36-.14.36-7.67.36 6.6.37-5.66.36-.28.36 3.53.36-7.5.36 14.4.37-13.13.36 16.04.36-14.16.36-2.17.36 2.88.37-5.5.36 6.83.36-1.98.36 6.87.36-7.15.37 3.22.36-.16.36-7.4.36 6.66.37-5.42.36-2.32.36 5.1.36-5.42.36 10.74.37-9.3.36 10.5.36-20.5.36 7.52.36 5.64.37-12.19.36 13.46.36-5.31.36 5.29.36-5.9.37 1.3.36-.96.36-.66.36-5.02.37 5.66.36-3.92.36 5.04.36 1.91.36 1.72.37-3.96.36 2.16.36-7.65.36 3.01.36-.02.37-3.57.36 3.39.36-4.13.36 10.71.36-9.36.37 14.38.36-19.51.36 6.25.36-.38.36-4.79.37 8.3.36-3.54.36 5.19.36-7.33.37 7.04.36-5.19.36-2.47.36-1.66.36-.35.37 3.14.36-2.13.36 9.12.36-7.43.36 3.64.37-.28.36-7.03.36-.34.36 8.39.36-15.96.37 8.43.36 7.27.36.12.36-3.9.37 2.09.36-7.71.36 3.17.36-.23.36-3.42.37-.79.36 3.18.36 7.55.36-9.07.36 10.77.37-12.65.36-2.24.36 6.62.36-4.95.36 1.19.37 1.91.36 5.2.36-7.37.36 12.5.36-17.96.37 4.93.36 1.31.36-3.24.36 3.36.37 1.52.36 2.16.36-5.95.36 10.48.36-13.73.37 4.51.36-3.54.36-1.67.36 6.6.36-.72.37 4.4.36-9.34.36 10.73.36-8.94.36-.51.37-2.07.36-1.75.36 6.79.36-2.02.37 5.48.36-7.32.36 7.4.36-7.22.36 3.33.37-9.45.36 1.71.36 6.56.36-1.5.36 5.56.37-7.6.36 7.13.36-6.72.36 3.1.36-9.3.37 3.52.36 3.29.36-.82.36 6.09.37-7.26.36 8.52.36-10.26.36 4.86.36-9.3.37 3.51.36 2.96.36.13.36 5.5.36-7.61.37 9.05.36-10.38.36 4.52.36-9 .36 3.99.37 1.11.36 3.47.36 3.94.36-7.36.36 6.91.37-6.86.36.97.36-5.57.36.1.37 5.08.36 1.38.36 1.97.36-4.99.36 6.62.37-11.21.36 1.74.36-2.87.36.31.36 2.93.37 5.53.36-1.91.36-3.38.36 9.41.36-13.44.37 6.46.36-4.18.36.29.36-.22.37 10.36.36-7.09.36-1.9.36 10.93.36-14.19.37 1.63.36 1.34.36-2.62.36 2.22.36 3.77.37 1.54.36-5.51.36 8.99.36-8.91.36-5.51.37 6.62.36-3.34.36-.31.36 5.54.36 3.17.37-7.1.36 9.02.36-12.4.36 1.12.37 5.3.36-12.4.36 11.72.36 2.27.36-3.79.37 3.57.36 1.92.36-9.16.36-5.42.36 10.33.37-7.16.36 3.25.36 5.32.36-3.62.36 5.37.37-1.33.36-9.48.36-.56.36 5.6.37-5.52.36 3.3.36 5.53.36-3.69.36 7.16.37-4.98.36-6.32.36-5.42.36 7.43.36-4 .37 10.49.36-3.43.36-3.69.36 10.71.36-15.66.37 8.33.36-7.83.36-1.99.36 5.34.36 7.37.37-3.34.36-4.05.36 9.37.36-9.22.37-7.3.36 10.21.36-6.82.36.64.36 7.98.37.02.36-3.56.36 5.43.36-9.1.36-5.5.37 10.48.36-8.96.36 6.61.36 1.7.36.24.37 3.55.36-1.3.36-9.73.36-3.69.37 10.95.36-9.12.36 8.47.36 1.84.36-3.52.37 7.33.36-12.44.36 2.98.36-3.66.36-1.78.37 5.02.36 9.06.36-5.4.36-3.53.36 5.62.37-5.67.36-5.5.36 8.18.36-8.62.37 4.7.36 4.21.36-.32.36 1.49.36 2.4.37-10.73.36-4.18.36 12.32.36-12.29.36 10.04.37.45.36-2.21.36 5.16.36-1.1.36-9.29.37-3.94.36 5.46.36-2.32.36 12.43.36-5.28.37-5.22.36 12.37.36-14.21.36 3.3.37-.36.36-6.76.36 6.59.36 3.67.36 1.86.37-2.01.36 1.83.36-8.84.36-4.02.36 14.03.37-15.99.36 12.1.36.19.36-1.97.36 7.32.37-4.72.36-6.26.36-7.28.36 9.1.37-5.57.36 15.5.36-8.4.36-3.55.36 12.54.37-14.32.36 2.83.36-3.42.36-1.8.36 6.55.37.47.36 3.41.36.05.36.4.36-9.37.37-3.83.36 12.27.36-14.13.36 14.02.36-1.85.37-1.68.36 5.25.36-1.49.36-9.48.37-3.65.36 3.7.36-.42.36 10.66.36-1.83.37-5.1.36 7.33.36-9.31.36-.35.36 1.72.37-8.99.36 12.1.36-1.14.36 3.3.36-1.88.37 3.62.36-9.25.36-5.39.36 3.54.37.08.36 10.49.36-5.3.36-.2.36 7.49.37-10.77.36-1.85.36.78.36-4.65.36 10.25.37 1.99.36-3.36.36 3.14.36-1.34.36-7.11.37-4.14.36 14.08.36-17.83.36 15.55.37-1.54.36-1.94.36 7.27.36-4.9.36-11.15.37 1.1.36 4.06.36-2.28.36 12.57.36-6.87.37-.43.36 5.58.36-8.82.36-7.6.36 13.82.37-15.31.36 15.26.36-1.27.36-1.88.36 5.07.37-1.2.36-7.79.36-7.5.36 8.83.37-5.57.36 12.41.36-4.73.36-.69.36 4.02.37-5.17.36-5.98.36 6.81.36-12.29.36 15.65.37-3.33.36 3.44.36-1.73.36 4.03.36-9.22.37-9 .36 10.14.36-3.71.36 10.75.37-3.28.36-3.93.36 4.89.36-8.7.36-6 .37 3.3.36-7.12.36 14.01.36-4.28.36 9.28.37-1.75.36-1.21.36-7.2.36-6.03.36 7.47.37-2.22.36 12.37.36-6.81.36-1.86.36 5.73.37-3.52.36-11.13.36 10.33.36-13.27.37 19.05.36-3.06.36.08.36.82.36.69.37-9.01.36-7.38.36 10.96.36-4.4.36 10.77.37-3.03.36-3.95.36 7.2.36-6.68.36-7.73.37 8.54.36-13.76.36 19.06.36-2.95.37-.37.36 1.44.36.42.36-8.97.36-7.44.37 10.52.36-3.6.36 10.33.36-3.29.36-3.66.37 7.14.36-6.74.36-7.73.36 6.83.36-10.5.37 17.64.36-6.75.36 6.57.36-5.39.36 5.92.37-8.69.36-11.43.36 14.2.36-8.03.37 14.78.36-7.02.36-.07.36 2.21.36-1.9.37-11.23.36 10.52.36-10.7.36 12.52.36.17.37-1.55.36 3.02.36 2.22.36-8.85.36-9.89.37 7.78.36 2.62.36 7.4.36-6.85.37 4.73.36-.96.36-3.52.36-7.8.36 5.31.37-5.19.36 12.22.36-1.63.36-3.86.36 5.34.37 2.28.36-16.07.36 4.55.36.46.36 2.37.37 6.32.36-3.59.36 1.49.36 3.72.37-11.89.36-4.54.36 10.63.36-7.29.36 8.85.37.4.36-.24.36 1.67.36-2.98.36-13.24.37 13.58.36-15.39.36 17.32.36 2.24.36-5.11.37 1.51.36-.27.36-6.65.36-8.08.36 9.58.37-.62.36 10.66.36-6.48.36-.56.37 3.65.36-2.99.36-13.29.36 10.47.36-6.94.37 12.22.36-3.23.36-.18.36 3.56.36.1.37-9.11.36-4.14.36 2.19.36 4.85.36 5.79.37-1.85.36-1.98.36 5.47.36-8.78.37-7.49.36 6.81.36-3.83.36 9.28.36.12.37-.4.36 1.75.36-2.97.36-13 .36 13.32.37-13.33.36 13.55.36 4.16.36-5.71.36.39.37 1.57.36-5.29.36-9.17.36 9.08.36 1.39.37 5.42.36-2.01.36-1.72.36 4.05.37-5.56.36-10.92.36 12.4.36-10.87.36 12.54.37 3.79.36-9.26.36 7.1.36.32.36-14.33.37 5.97.36-2.78.36 6.69.36 3.83.36-5.7.37 3.76.36.22.36-3.6.36-10.93.37 10.53.36-3.99.36 7.56.36.19.36-2.11.37 5.46.36-7 .36-11.24.36 10.61.36-9.1.37 14.33.36.24.36-5.17.36 5.08.36-1.26.37-7.39.36-2.62.36-1.25.36 8.52.36 3.71.37-1.43.36-3.7.36 4.9.36-4.61.37-11.64.36 9.02.36-1.98.36 7.06.36.46.37-2.17.36 5.54.36-6.74.36-11.34.36 10.54.37-9.43.36 14.53.36 2.13.36-9.48.36 9.11.37-4.95.36-5.4.36-2.76.36-1.21.37 8.52.36 3.63.36-1.54.36-5.06.36 8.82.37-9.03.36-8.06.36 5.63.36 1.67.36 5.25.37.8.36-2.46.36 5.64.36-7.17.36-12.79.37 13.81.36-10.4.36 14.14.36-1.21.37-2.13.36 3.49.36-1.57.36-11.17.36 1.14.37 2.19.36 5.2.36 4.07.36-3.97.36-1.28.37 3.59.36-3.62.36-11.42.36 8.35.36 1.55.37 3.27.36-.49.36 1.72.36 3.33.36-6.52.37-12.76.36 8.5.36-.51.36 7.6.37.32.36-2.3.36 4.07.36-1.86.36-16.18.37 11.59.36-2.3.36.53.36 9.49.36-5.51.37-.1.36.24.36-1.79.36-9.47.36 5.08.37 3.52.36 3.88.36-1.42.36 1.67.37-3.37.36 3.47.36-13.05.36 3.29.36 3.8.37 3.49.36 4.13.36-4.07.36 3.73.36-5.32.37-12.76.36 12.38.36-7.61.36 12.28.36.47.37-3.82.36 3.62.36-3.33.36-9.08.36 3.29.37-.16.36 1.76.36 9.18.36-5.58.37-1.91.36 3.85.36-3.72.36-10.97.36 10.77.37-2.12.36 5.85.36-1.32.36-.92.36 4.27.37-3.89.36-14.54.36 7.14.36 3.32.36 3.53.37 4 .36-4.28.36 4.36.36-1.79.37-18.03.36 15.61.36-7.2.36 7.25.36 3.67.37-5.06.36 4.84.36-3.57.36-5.55.36-3.47.37 3.26.36 3.45.36 7.46.36-7.19.36-.07.37 5.62.36-7.42.36-9.3.36 10.45.36-1.67.37 3.82.36 3.12.36-4.99.36 3.66.37.22.36-16.47.36 6.77.36 3.61.36 3.73.37 3.61.36-3.74.36 2.03.36-.29.36-17.85.37 12.44.36 1.67.36-.31.36 5.69.36-1.7.37-.38.36-3.02.36-6 .36 1.76.37-.08.36.06.36 10.95.36-5.45.36-.1.37 2.14.36-5.87.36-9.07.36 8.77.36 2 .37 3.5.36-1.75.36 1.24.36-1.14.36.05.37-13.09.36 7.34.36 1.68.36 3.37.37 4.06.36-5.86.36 3.98.36-2 .36-14.08.37 6.49.36 3.72.36 6.73.36.45.36-3.46.37 1.58.36-1.36.36-11.07.36 4.56.36 1.33.37-1.09.36 11.1.36-5.5.36 3.43.36-4.89.37-2.47.36-5.34.36 3.65.36 1.53.37 7.54.36-5.37.36 1.21.36 4.07.36-8.76.37-4.27.36 6.95.36-4.83"/><use xlink:href="#d" transform="matrix(3.75 0 0 3.75 354.25 86.34)"/><use xlink:href="#d" transform="matrix(3.75 0 0 3.75 78.65 7.51)"/></g><text stroke-linecap="round" stroke-linejoin="round" color="#000" font-family="KaTeX_Main" font-size="8" transform="translate(99.2 25.11)"><tspan>AVLTopDown</tspan></text><g fill="none" stroke="currentColor" stroke-linecap="round" stroke-linejoin="round" color="#000"><path stroke="#29C3F6" stroke-dasharray="1.0,2.0" d="M63.7 22.51h29.9M28 191.08l.36-2.34.36 3.31.37-3.61.36-4.17.36 4.7.36-6.97.36 6.01.37.19.36-2.38.36 5.24.36-8.67.37 10.15.36-7.33.36-5.28.36 4.12.36.22.37-5.91.36 10.31.36-9.39.36 10.54.36-12.7.37 15.5.36-10.91.36-5.36.36 1.09.36 3.22.37-5.96.36 8.41.36-6.05.36 7.3.36-9.02.37 11.86.36-10.46.36-4.07.36 2.6.37-3.38.36 5.81.36-1.65.36.87.36.23.37-2.02.36 5.09.36-7.25.36-4.06.36 6.64.37-12.56.36 13.18.36-3.81.36 3.17.36-2.07.37-4.08.36 3.23.36-4.23.36-.09.37-.44.36-3.84.36 6.76.36-2.17.36 3.43.37-3.68.36 1.65.36-4.11.36-.25.36-.37.37 1.71.36-6.14.36 7.29.36-8.01.36 12.68.37-12.81.36 14.23.36-15.87.36 2.58.37 4.93.36-12.54.36 13.69.36-3.81.36 3.58.37-7.88.36 7.4.36-1.72.36-7.66.36 6.67.37-5.48.36-2.35.36 5.33.36-5.5.36 12.38.37-12.55.36 15.8.36-17.89.36 4.62.36-.31.37-7.06.36 9.83.36-3.75.36 7.22.37-8.84.36 6.61.36-3.53.36-3.97.36 3.08.37-1.84.36-5.68.36 3.26.36 3.04.36 4.11.37-5.8.36 9.03.36-12.64.36-.67.36 5.21.37-7.53.36 10.74.36-7.45.36 6.91.37-6.76.36 8.46.36-7.29.36-2.26.36-1.94.37-.07.36 2.99.36-1.93.36 8.77.36-5.18.37-.29.36 1.75.36-7.22.36 6.48.36-5.19.37-2.19.36-2.06.36 8.53.36 2.14.36-5.57.37 8.85.36-12.45.36-2.48.36 8.72.37-9.15.36 7 .36-5.81.36 10.91.36-10.62.37 13.97.36-14.06.36-.7.36 4.75.36-6.55.37 6.27.36-1.97.36 5.31.36-7.18.36 7.06.37-5.34.36-2.29.36-1.64.36-.28.37 2.55.36-1.64.36 9.16.36-7.33.36 3.5.37.05.36-7.52.36-.37.36 7.3.36-12.91.37 6.81.36 7.16.36-.1.36-3.56.36 2.07.37-7.38.36 2.79.36-1.54.36-5.8.36 6.89.37 1.41.36 2.22.36-2.12.36 7.29.37-14.17.36 1.09.36 5.07.36-9.09.36 4.93.37 3.61.36 3.15.36-6.98.36 10.91.36-12.85.37-2.1.36 7.19.36-5.74.36-.2.36 3.69.37 5.29.36-5.46.36 8.79.36-14.12.37-.64.36 8.66.36-9.05.36 3.71.36 1.3.37 5.32.36-7.02.36 12.38.36-17.98.36 5.07.37 1.33.36-3.18.36 1.11.36 1.64.36 3.74.37-5.25.36 12.38.36-15.89.36 1.1.37 3.4.36-3.8.36-.1.36 4.95.36 2.11.37-5.55.36 12.39.36-15.48.36.79.36 1.39.37.05.36-2.06.36 5.16.36 2.09.36-5.9.37 11.89.36-15.87.36-1.93.36 6.16.36-3.3.37 1.25.36 1.91.36 5.27.36-6.73.37 10.71.36-14.4.36-1.74.36 6.3.36-1.69.37-2.29.36 5.67.36 2.01.36-3.76.36 7.08.37-10.74.36-3.92.36 6.75.36-5.37.36 1.97.37 7.29.36 2.19.36-7.04.36 8.72.37-12.34.36 1.18.36 4.97.36-12.21.36 11.95.37 1.98h.36l.36-3.79.36 7.52.36-12.76.37-4 .36 12.13.36-10.86.36 8.69.36-.04.37.21.36 1.42.36.37.36-10.68.36 2.79.37 5.39.36-8.95.36 5.05.36 5.47.37-1.79.36 1.77.36.09.36-7.85.36-5.34.37 10.62.36-7.58.36 5.25.36 4.14.36-3.84.37 7.01.36-6.92.36-4.15.36-3.66.36 3.86.37-2.58.36 12.43.36-5.33.36-3.15.37 10.63.36-15.99.36 8.44.36-7.15.36-1.54.37 6.34.36 1.48.36 2.21.36-5.62.36 9.43.37-9.1.36-7.28.36 9.93.36-7.06.36 1.52.37 7.43.36 1.79.36-7.49.36 7.72.36-9.32.37-5.53.36 10.55.36-9.49.36 8.43.37 1.04.36-.31.36 1.55.36.45.36-9.94.37.02.36 3.65.36-3.9.36 6.52.36.89.37-1.88.36 6.92.36-6.92.36-4.74.36-4.71.37 3.52.36 2.67.36 9.04.36-6.78.37-1.87.36 12.52.36-17.71.36 1.68.36 6.37.37-8.36.36 2.66.36 7.38.36.21.36-3.85.37 3.93.36-7.12.36-6.08.36 12.53.36-12.73.37 10.3.36.35.36-1.82.36 5.32.37-1.75.36-9.04.36-2.21.36 7.31.36-7.62.37 10.34.36-1.27.36-1.85.36 7.05.36-10.32.37-.84.36-2.12.36-1.43.36 4.6.36 9.39.37-7 .36-.04.36 2.02.36-2.14.36-9.2.37 10.36.36-10.52.36 10.03.36-1.1.37 1.54.36 3.58.36-.02.36-10.53.36-4.09.37 7.36.36-5.96.36 12.07.36-4.79.36-.16.37 7.11.36-8.69.36-4.12.36-.33.36.37.37 1.1.36 10.92.36-5.05.36-3.57.37 3.66.36-2.34.36-8.88.36 10.56.36-10.53.37 10.04.36-1.41.36 1.63.36 1.91.36 3.43.37-12.44.36-4.15.36 5.69.36-2.38.36 8.81.37-1.45.36-2.02.36 7.22.36-8.62.36-7.51.37 6.73.36-4.81.36 4.31.36 5.74.37-3.23.36 2.96.36-1.51.36-1.73.36-14.55.37 19.33.36-14.25.36 10.09.36.78.36-1.89.37 4.76.36-2.79.36-5.91.36-5.44.36 6.84.37-4.3.36 11.03.36-5.24.36.42.37 3.73.36-5.48.36-2.3.36-2 .36-3.6.37 9.65.36-2.37.36 6.39.36-1.61.36.59.37-9.18.36-3.87.36 7.23.36-4.08.36 8.55.37-1.24.36-3.63.36 7.03.36-1.7.37-16.61.36 8.9.36.3.36-.71.36 9.51.37-5.56.36 2.06.36.18.36-5.39.36-7.53.37 15.41.36-17.61.36 17.07.36-4.41.36-.32.37 7.11.36-5.11.36-7.4.36-5.65.36 8.85.37-5.96.36 16.53.36-10.57.36 1.51.37 5.58.36-8.7.36-6.05.36 10.43.36-12.55.37 14.11.36-3.23.36.45.36 4.99.36-1.55.37-7.68.36-9.56.36 12.74.36-7.61.36 12.89.37-5.08.36 1.59.36.37.36-3.59.37-6 .36 6.56.36-11.93.36 15.6.36-3.29.37 3.71.36-1.78.36 1.58.36-5.38.36-13.1.37 14.54.36-6.18.36 11.29.36-4.09.36-2.76.37 3.58.36-1.83.36-7.76.36 5.27.36-10.52.37 16.98.36-6.09.36 4.89.36.14.37.14.36-6.97.36-11.93.36 14.97.36-6.04.37 10.99.36-3.56.36-3.43.36 5.39.36-3.81.37-9.16.36 6.86.36-10.27.36 16.95.36-6.47.37 6.81.36-3.32.36.03.36-3.53.37-13.1.36 14.35.36-7.44.36 14.48.36-5.34.37-3.82.36 5.73.36-5.07.36-9.47.36 11.87.37-13.94.36 17.22.36-6.31.36 3.4.36 1.97.37-.23.36-7.08.36-9.7.36 11.31.36-4.63.37 12.97.36-8.53.36 3.23.36.29.37-1.89.36-11.08.36 8.84.36-7.54.36 10.63.37.53.36-3.84.36 7.19.36-.01.36-10.54.37-6.37.36 5.96.36.71.36 9.72.36-7.01.37 3.64.36 3.61.36-8.78.36-6.13.37 7.21.36-7.54.36 12.23.36-2.78.36-.09.37 3.35.36.11.36-12.32.36 2.8.36-1.06.37 6.08.36 4.34.36-3.91.36 1.62.36 3.97.37-14.11.36-.81.36 9.05.36-7.68.37 9.42.36.09.36-.43.36 2.34.36-3.66.37-12.72.36 13.68.36-15.87.36 17.22.36 2.05.37-6.85.36 5.41.36-1.76.36-7.24.36-7.61.37 9.33.36-1.22.36 11.61.36-7.28.36.16.37 3.69.36-5.33.36-9.17.36 8.58.37-7.28.36 12.15.36-2.63.36-2.18.36 7.24.37-1.81.36-8.92.36-4.37.36 2.44.36 4.49.37 5.62.36-1.34.36-1.9.36 5.29.36-8.82.37-9.73.36 11.26.36-6.26.36 9.24.37.26.36-.2.36 1.53.36-3.04.36-12.71.37 13.62.36-11.9.36 9.16.36 6.26.36-5.21.37 2.12.36-1.85.36-3.72.36-9.47.36 9.49.37.8.36 5.78.36-1.5.36-1.74.36 3.79.37-5.74.36-10.68.36 11.87.36-10.26.37 11.61.36 4.31.36-8.78.36 7.05.36 1.76.37-18.01.36 8.35.36-2.83.36 5.67.36 4.4.37-5.33.36 3.48.36 2.31.36-7.29.36-9.58.37 11.09.36-4.31.36 7.45.36.32.37-2.11.36 5.5.36-6.79.36-11.19.36 10.33.37-8.52.36 13.58.36.75.36-5.9.36 7.17.37-5.27.36-4.91.36-3.18.36-.84.36 8.05.37 3.83.36-1.63.36-3.45.36 9.01.36-12.59.37-7.77.36 9.04.36-2.3.36 7.73.37.03.36-1.66.36 5.4.36-7.03.36-10.99.37 12.1.36-12.31.36 15.68.36 2.02.36-6.95.37 5.18.36-3.29.36-3.86.36-5.88.36.4.37 8.06.36 4.07.36-1.96.36-1.55.37 2.01.36-3.57.36-11.27.36 9.09.36-2.33.37 6.99.36.29.36-1.7.36 5.32.36-7.11.37-10.58.36 10.21.36-8.64.36 13.54.36 2.12.37-8.61.36 8.78.36-5.25.36-7.15.37-.59.36.07.36 6.61.36 4.05.36-3.56.37-1.61.36 7.18.36-8.83.36-7.73.36 5.55.37 1.32.36 5.56.36-1.37.36 1.11.36 3.92.37-7.08.36-12.5.36 10.29.36-3.8.36 10.57.37-3.1.36-.36.36 5.64.36-5.11.37-12.8.36 9.95.36-3.13.36 1.49.36 10.75.37-8.75.36 1.82.36 1.99.36-5.23.36-8.07.37 5.63.36 3.32.36 3.54.36.36.36-.26.37-.29.36-3 .36-11.21.36 5.47.37 3.5.36 3.49.36 3.4.36-3.26.36 3.65.37-4.03.36-13.66.36 15 .36-11.98.36 11.87.37.67.36-1.93.36 3.43.36-3.34.36-7.28.37-.71.36 2.18.36 1.28.36 10.86.36-8.33.37-.31.36 5.7.36-7.15.36-7.94.37 7.27.36-.37.36 5.76.36-1.4.36 1.7.37 1.61.36-5.22.36-12.6.36 6.97.36 2.82.37 5.36.36 2.46.36-3.74.36 1.69.36 1.9.37-19.62.36 16.85.36-10.01.36 6.85.37 7.19.36-3.63.36-1.95.36.77.36-3.79.37-7.46.36 5.23.36 1.22.36 9 .36-6.56.37 3.47.36-1.39.36-1.96.36-9.45.36 6.98.37-2.02.36 6.98.36.47.36-1.84.36 1.91.37-1.58.36-14.75.36 6.88.36 3.43.37 5.25.36 2.17.36-3.37.36 3.19.36-1.53.37-17.71.36 13.19.36-3.34.36 3.41.36 7.54.37-7.17.36 5.7.36-3.48.36-5.41.36-4.28.37 3.69.36 1.62.36 7.08.36-3.43.37.22.36 1.9.36-5.3.36-9.55.36 12.23.37-5.17.36 4.95.36 3.72.36-4.63.36 3.2.37-1.43.36-13.3.36 5.73.36 3.17.36 3.46.37 3.48.36-3.37.36 1.8.36.16.37-17.75.36 8.35.36 7.01.36-.27.36 2.1.37 2.02.36-3.78.36-.58.36-8.02.36 1.31.37 3.37.36-.08.36 7.1.36-1.17.36-1.99.37 1.53.36-6.83.36-5.86.36 5.24.36 3.32.37 3.75.36-1.29.36 1.51.36-1.82.37.34.36-13.01.36 8.93.36-.21.36 3.59.37 2.09.36-3.66.36 3.79"/><use xlink:href="#e" color="#29C3F6" transform="matrix(3.75 0 0 3.75 67.83 150.71)"/><use xlink:href="#e" color="#29C3F6" transform="matrix(3.75 0 0 3.75 78.65 22.51)"/></g><text stroke-linecap="round" stroke-linejoin="round" color="#000" font-family="KaTeX_Main" font-size="8" transform="translate(241.1 10.11)"><tspan>AVLRelaxedBottomUp</tspan></text><g fill="none" stroke="currentColor" stroke-linecap="round" stroke-linejoin="round" color="#000"><path stroke="#D336C8" d="M205.6 7.51h29.9M28 186.36l.36 6.12.36 3.02.37-9.22.36 8.62.36-8.91.36 13.43.36-10.51.37-5.46.36 2.61.36 5.27.36-10.87.37 13.56.36-15.71.36 17.05.36-9.1.36 3.12.37-3.47.36-2.05.36 2.77.36-3.57.36-4.09.37 8.4.36-12.55.36 17.07.36-9.04.36 4.83.37-7.14.36-.3.36.71.36-1.6.36-2.42.37 6.66.36-12.5.36 17.3.36-9.35.37 3.08.36-3.26.36-3.69.36-.97.36 2.03.37-2.66.36 6.86.36-7.5.36 10.16.36-12.22.37 13.39.36-12.11.36-.93.36 1.16.36-3.65.37 2.61.36 1.73.36 2.93.36.08.37-4.35.36 2.17.36-6.14.36 1.23.36 1.75.37-7.57.36 10.23.36-7.48.36 8.93.36-7.06.37 3.21.36-3.63.36-.47.36 2.85.36-3.46.37-5.81.36 8.79.36-8.2.36 13.12.37-13.09.36 14.21.36-14.12.36 2.7.36-.49.37-6.9.36 10.02.36-1.75.36 3.25.36-7.03.37 6.46.36-1.53.36-7.22.36 6.19.36-5.29.37-2.15.36 4.99.36-5.53.36 12.55.36-13.01.37 16.17.36-17.92.36 4.58.36-.23.37-7.09.36 10.05.36-3.8.36 5.47.36-5.59.37 5.14.36-3.4.36-4.08.36-.56.36 5.1.37-10.79.36 3.35.36 8.72.36.03.36-5.62.37 6.98.36-10.89.36 1.25.36 3.61.37-7.53.36 10.55.36-7.46.36 7.23.36-8.92.37 11.78.36-8.74.36-4.12.36-.46.36.28.37 2.86.36.32.36 6.78.36-8.95.36 6.9.37-1.27.36-8.06.36 1.85.36 4.87.36-14.2.37 8.48.36 6.94.36.2.36-4.06.37 5.75.36-11.16.36-.52.36 5.59.36-7.62.37 4.82.36-1.72.36 7.22.36-6.02.36 11.04.37-17.69.36 2.53.36 5.49.36-6.99.36 10.17.37-7.31.36 7.17.36-7.17.36 8.84.37-8.91.36-.64.36-2.77.36-.78.36 6.6.37-2.27.36 5.79.36-7.25.36 8.32.36-8.43.37 2.93.36-9.53.36 7.36.36-4.13.36 1.72.37 9.31.36-7.19.36 3.39.36-.05.36-7.49.37-2.45.36 8.87.36-10.86.36 5.2.37 6.95.36-1.43.36-.48.36.39.36-9.38.37 1.42.36 5.17.36-9.27.36 7.28.36 1.45.37 3.97.36-4.01.36 5.72.36-14.69.36 6.55.37-1.78.36-5.62.36 6.59.36 1.88.37 2.29.36-2.06.36 5.43.36-10.9.36-.34.37 3.31.36-9.12.36 8.6.36 3.57.36 1.99.37-7.41.36 9.07.36-10.72.36-.59.36 3.55.37-5.46.36 1.41.36 7.28.36 1.55.37-7.32.36 9.02.36-10.87.36-.46.36 3.23.37-7.25.36 5.2.36 5.44.36 1.87.36-7.47.37 9.25.36-10.58.36-.9.36 3.39.36-10.61.37 12.02.36 1.85.36 1.8.36-7.19.36 9.33.37-12.83.36 1.09.36 5.35.36-12.82.37 12.11.36 1.92.36-1.35.36-.43.36 5.83.37-13.12.36-.13.36 7 .36-11.1.36 10.42.37.15.36.11.36 1.3.36 2.42.36-11.11.37-2.17.36 10.3.36-10.86.36 6.95.37 2.17.36-.16.36 1.71.36 1.99.36-12.64.37 2.95.36 4.06.36-6.18.36 3.67.36 5.51.37-1.91.36 1.49.36.26.36-7.05.36-4.24.37 7.1.36-3.81.36 1.42.36 5.94.36-1.89.37 3.25.36-4.97.36-2.49.36-7.12.37 6.99.36-2.36.36 7.08.36.39.36-5.74.37 9.05.36-14 .36 8.2.36-7.29.36.03.37 2.98.36 7.43.36-3.4.36-3.68.36 10.94.37-14.58.36-.44.36 4.87.36-5.13.37 3.08.36 3.79.36 1.86.36-3.76.36 5.56.37-10.88.36 1.28.36 5.3.36-12.44.36 12.25.37 1.85.36-3.46.36 3.03.36 2.03.36-11.96.37.92.36 7.1.36-9.26.36 6.83.36.57.37 3.09.36-.18.36 2.11.36-10.85.37-3.93.36 10.67.36-10.95.36 12.27.36.41.37-3.77.36 5.15.36-8.49.36 1.13.36-3.59.37-1.92.36 6.67.36 5.05.36-2.98.36-3.68.37 6.76.36-6.67.36-5.64.36 6.37.37-5.09.36 1.76.36 7.36.36 1.41.36-7.3.37 7.59.36-9.2.36-5.83.36 10.65.36-10.72.37 10.76.36.08.36-.09.36 3.34.36-1.49.37-9.31.36-3.93.36 10.75.36-9.46.37 10.81.36-2.94.36-.63.36 7.4.36-12.21.37 2.77.36-1.97.36-3.57.36 5.03.36 7.56.37-5.23.36.93.36.83.36-3.68.36-8.07.37 12.3.36-12.51.36 10.47.36-1.2.36 1.62.37 1.5.36 3.75.36-14.14.36-.96.37 5.56.36-5.64.36 10.55.36-1.15.36-1.67.37 6.78.36-8.6.36-4.15.36-.67.36.23.37 1.24.36 11.47.36-5.31.36-4.12.36 4.05.37-2.37.36-8.83.36 10.21.36-10.44.37 10.15.36-1.22.36 1.47.36 1.63.36 2.09.37-9.01.36-5.93.36 5.12.36-1.5.36 8.06.37-.72.36-2.37.36 7.23.36-8.57.36-8.06.37 7.01.36-4.91.36 4.87.36 6.12.36-.43.37-3.9.36 2 .36-1.85.36-14.19.37 18.65.36-14.18.36 10.83.36-.06.36-1.88.37 5.43.36-1.28.36-9.1.36-4.52.36 7.54.37-3.86.36 10.79.36-5.12.36-.12.36 3.72.37-5.63.36-2.14.36.08.36-5.55.37 8.48.36-1.39.36 6.71.36-1.51.36.09.37-8.79.36-4.03.36 8.77.36-7.25.36 10.75.37-1.47.36-1.9.36 3.7.36-.15.36-14.58.37 6.54.36-.06.36-1.9.36 11.09.37-5.57.36 1.72.36.22.36-3.6.36-11.34.37 17.54.36-15.45.36 13.96.36-1.7.36-3.62.37 8.83.36-5.12.36-5.74.36-7.64.36 11.04.37-9 .36 15.68.36-6.86.36-1.7.36 7.06.37-8.66.36-5.9.36 11.85.36-15.77.37 15.7.36-3.02.36 3.48.36-2.09.36 4.08.37-9.2.36-9.57.36 10.77.36-3.73.36 12.73.37-8.83.36 1.67.36 3.55.36-6.57.36-1.22.37.22.36-7.24.36 13.48.36-4.45.37 7.15.36-2.07.36.58.36-9.23.36-6.28.37 7.35.36-1.87.36 12.6.36-7.06.36-2.08.37 6.99.36-4.75.36-9.3.36 6.53.36-8.66.37 11.95.36 2.41.36-3.63.36 3.4.36.24.37-8.97.36-4.16.36 3.32.36.05.37 12.16.36-6.36.36-2.1.36 7.06.36-3.35.37-12.52.36 9.77.36-13.98.36 17.52.36.55.37-3.62.36 3.38.36-.15.36-8.79.36-7.78.37 10.53.36-1.81.36 7.54.36-1.54.37-3.97.36 6.89.36-4.64.36-11.38.36 12.34.37-17.87.36 21.21.36-3.17.36-.25.36 1.26.37.59.36-9.12.36-7.56.36 10.76.36-3.94.37 11.16.36-3.41.36-3.75.36 5.19.36-2.99.37-13.41.36 14.16.36-13.88.36 17.23.37-6.43.36 6.77.36-5.29.36 5.44.36-10.59.37-7.72.36 10.71.36-4.05.36 12.79.36-6.99.37-.22.36 1.9.36-1.6.36-11.25.36 8.57.37-7.04.36 10.7.36.22.36-2.01.37 3.59.36.54.36-6.1.36-10.68.36 7.05.37 1.52.36 7.32.36-3.36.36 1.67.36 3.28.37-6.84.36-11 .36 12.19.36-9.15.36 12.52.37-3.02.36-.22.36 3.3.36.19.37-14.31.36 6.28.36-3.4.36 5.45.36 7.45.37-6.98.36 4.78.36-1.53.36-6.86.36-5.82.37 12 .36-8.78.36 9.31h.36l.36-3.95.37 9.05.36-6.94.36-12.81.36 13.77.36-17.66.37 21.07.36.65.36-7.13.36 3.2.37.1.36-5.17.36-9.74.36 9.27.36-.51.37 9.27.36-3.73.36-1.85.36 2.04.36-1.9.37-11.58.36 9.48.36-9.19.36 12.41.36 2.08.37-5.51.36 5.2.36 1.87.36-17.54.37 7.79.36-3.51.36 7.17.36 3.95.36-3.71.37 1.81.36 3.62.36-10.49.36-9.72.36 14.66.37-7.73.36 11.33.36-3.29.36-.42.36 5.31.37-4.93.36-15.06.36 15.67.36-13.66.36 17.28.37-3.12.36-3.97.36 5.45.36.39.37-8.98.36-6.18.36 5.5.36 3.19.36 7.5.37-6.86.36 5.31.36-1.98.36-3.48.36-9.45.37 5.6.36-.93.36 6.1.36.5.36 2.91.37-.08.36-3.57.36-12.23.36 10.2.37-3.62.36 3.52.36 7.36.36-5.37.36-.23.37 2.21.36-5.46.36-10.36.36 8.02.36 5.18.37 3.77.36-3.26.36 1.47.36 1.9.36-5.46.37-11.32.36 8.72.36-3.36.36 8.87.36.28.37-1.8.36 2.84.36-.89.36-14.44.37 8.01.36.52.36 1.3.36 6.08.36-3.75.37-.49.36 2.44.36-5.64.36-7.69.36 5.75.37 3.13.36 5.81.36-3.89.36 1.91.36 1.97.37-5.31.36-11.39.36 8.66.36-3.71.37 9.32.36.31.36-2.58.36 4.14.36-1.57.37-16.37.36 11.03.36-.57.36 1.67.36 5.37.37-5.19.36 3.03.36-1.11.36-3.86.36-6.44.37 4.21.36 3.48.36 5.53.36-5.03.37 5.12.36.07.36-6.91.36-9.77.36 7.13.37-.02.36 5.24.36 3.64.36-1.81.36.21.37-1.83.36-14.31.36 14.92.36-8.19.36 7.1.37 5.62.36-7.18.36 3.75.36-1.97.36-5.51.37-4.06.36 3.73.36 4.79.36 2.11.37-1.46.36 1.73.36-1.55.36-1.82.36-7.66.37-.07.36 5.26.36 5.58.36 1.92.36-3.66.37 3.56.36-5.25.36-12.92.36 13.81.36-10.69.37 14.53.36.2.36-3.43.36 3.28.37-3.38.36-8.88.36.88.36 1.9.36 3.83.37 6.87.36-4.76.36-1.94.36 3.71.36-3.75.37-11.34.36 9.16.36 1.12.36 4.12.36-1.69.37 1.37.36 2.11.36-5.4.36-12.73.36 6.95.37 3.32.36 3.87.36 3.87.36-3.71.37 3.63.36-.47.36-20.99.36 19.02.36-10.46.37 8.6.36 5.81.36-8.97.36 6.72.36-3.22.37-5.49.36-4.03.36 3.59.36 3.76.36 7.12.37-7 .36-.29.36 5.2.36-6.57.37-8.27.36 7.49.36-.12.36 5.58.36.26.37-1.88.36 1.24.36-1.39.36-14.6.36 6.95.37 3.62.36 5.29.36 2.14.36-3.62.36 1.64.37 1.64.36-19.41.36 13.8.36-4.02.36 3.9.37 7.37.36-6.77.36 5.06.36-3.85.37-4.98.36-4.61.36 2.21.36 5.39.36 7.28.37-7.06.36 1.75.36 1.67.36-5.48.36-9.33.37 11.76.36-4.13.36 6.56.36.44.36-3.74.37 3.21.36.93.36-17.11.36 6.74.37 4.09.36 3.41.36 5.66.36-7.28.36 3.86.37-.21.36-17.48.36 9.74.36 3.44.36 1.78.37 1.85.36 2.22.36-2.14.36-3.15.36-6 .37 1.36.36.47.36.28.36 10.01.37-4.78h.36l.36 1.84.36-5.1.36-9.77.37 7.24.36 3.56.36 5.36.36-3.27.36 1.42.37-2.02.36.57.36-15.04.36 10.84.36.19.37 3.21.36 2.09.36-3.48.36 3.2.36.33.37-16.54.36 7.12.36 3.69.36 5.05.37 3.64.36-8.39.36 6.37.36-2.86.36-14.63.37 10.24.36-.13.36 1.92"/><use xlink:href="#f" color="#D336C8" transform="matrix(3.75 0 0 3.75 125.4 125.37)"/><use xlink:href="#f" color="#D336C8" transform="matrix(3.75 0 0 3.75 220.55 7.51)"/></g><text stroke-linecap="round" stroke-linejoin="round" color="#000" font-family="KaTeX_Main" font-size="8" transform="translate(241.1 25.11)"><tspan>AVLRelaxedTopDown</tspan></text><g fill="none" stroke="currentColor" stroke-linecap="round" stroke-linejoin="round" color="#000"><path stroke="#3B75EA" stroke-dasharray="4.5,2.0,0.5,2.0,0.5,2.0" d="M205.6 22.51h29.9M28 180.62l.36 5.47.36-3.94.37-1.81.36 1.44.36-9.48.36 8.37.36-5.63.37-1.55.36-2.38.36 2.75.36 9.07.37-.38.36-10.8.36 9.95.36-13.98.36 11.5.37-8.93.36-.38.36 1.32.36-6.26.36 17.74.37-7.1.36-7.72.36 10.58.36-14.56.36 11.98.37-8.93.36-.72.36 1.46.36-5.91.36 13.93.37.06.36-10.92.36 10.06.36-14.88.37 10.45.36-7.42.36 1.66.36-7.02.36 7.19.37 5.17.36 2.14.36-9.54.36 5.71.36-9.57.37 7.79.36-5.48.36-3.84.36-1.64.36 3.57.37 9.67.36-3.62.36-2.18.36-5.43.37.73.36 2.78.36-2.9.36.98.36-14.22.37 18.57.36.12.36-7.2.36 8.55.36-12.63.37 5.99.36-6.84.36 1.89.36.82.36-8.05.37 15.9.36-1.38.36-7.52.36 8.51.37-18.55.36 16.16.36-7.67.36-6.24.36.4.37 6.25.36 6.06.36-4.04.36 3.44.36-14.69.37 9.84.36-6.37.36 6.11.36-5.65.36-7.96.37 16.36.36 2.03.36-11.01.36 10.7.36-18.99.37 17.87.36-10.62.36-3.56.36-.75.37 4.6.36 9.49.36-7.13.36 6.39.36-16.21.37 10.38.36-7.52.36 1.97.36-.51.36-6.08.37 18.28.36-6.72.36-1.25.36-1.42.36-6.37.37 12.92.36-12.75.36 1.09.36-10.77.37 18.65.36.97.36-7.35.36 5.37.36-11.07.37 10.23.36-8.82.36-.14.36-2.42.36 2.94.37 13.24.36-8.74.36 4.65.36-14.32.36 9.64.37-6.71.36 5.04.36-7.45.36-2.32.36 18.28.37-6.75.36-.82.36-3.31.36-4.4.37 12.2.36-12.57.36 3.31.36-14.9.36 21.06.37 1.05.36-11.12.36 11.96.36-17.85.36 19.07.37-16.03.36 1.32.36-5.17.36 11.81.36 4.06.37-7.42.36 6.88.36-13.94.36 13.35.37-12.35.36-.14.36 1.57.36.7.36 11.23.37-5.22.36 1.53.36-11.11.36 8.51.36-8.63.37 3.35.36-2.29.36-2.73.36 15.1.36-6.59.37 2.98.36-7.45.36 3.32.36-6.5.36 5.87.37-5.58.36-7.27.36 21.26.36-8.12.37 4.3.36-9.89.36 2.52.36 4.31.36-4.4.37-7.16.36-2.25.36 15.56.36-4.61.36 3.26.37-5.06.36-2.56.36 7.81.36-9.37.36 2.92.37-16.35.36 23.16.36-1.7.36-3.78.37.2.36-6.45.36 11.28.36-10.68.36 1.12.37-14.38.36 24.75.36-5.04.36-2.08.36 3.89.37-13.38.36 14.49.36-10.84.36 3.25.36-16.32.37 22.82.36-.81.36-5.92.36 5.44.37-11.38.36 12.34.36-12.48.36 3.62.36-12.88.37 20.37.36-.79.36-5.02.36 4.83.36-11.28.37 12.57.36-12.53.36 3.46.36-13.18.36 19.18.37 2.65.36-6.91.36 3.07.36-9.73.36 14.33.37-13.58.36 2.71.36-14.23.36 22.6.37-.95.36-3.62.36-.54.36-6.04.36 11.1.37-12.93.36 5.34.36-16.03.36 20.99.36.68.37-2.57.36-5.15.36 1.21.36 5.44.36-9.14.37 3.59.36-18.28.36 24.5.36-2.9.37.17.36-4.09.36-.25.36 3.87.36-7.47.37-2.04.36-7.78.36 21.46.36-8.54.36 5.15.37-7.21.36 3.07.36-3.14.36 3.14.36-13.03.37 3.27.36 14.29.36-2.82.36 1.42.36-10.73.37 10.21.36-14.06.36 6.69.36-.22.37-5.62.36 14.39.36-1.37.36.02.36-16.24.37 19.14.36-18.01.36 4.7.36-3.06.36 7.4.37 6.83.36-7.17.36 6.77.36-14.45.36 14.15.37-14.05.36 1.76.36-9.07.36 22.67.37-5.02.36-.11.36 1.38.36-12.3.36 13.54.37-10.32.36-2.27.36-10.89.36 23.22.36.21.37-5.14.36-1.69.36-2.52.36 7.45.36-10.97.37 4.94.36-16.27.36 21.65.36-3.43.36 1.71.37-5.29.36 2.9.36-3.57.36 4.94.37-15.69.36 2.68.36 18.21.36-5.41.36 2.33.37-16 .36 18.65.36-17.26.36 5 .36-3.43.37 5.97.36 8.31.36-5.87.36 5.59.36-16.79.37 17.86.36-16.05.36 1.45.36-10.57.37 22.56.36.59.36-3.66.36-3.71.36-4.22.37 9.74.36-11.48.36 4.78.36-16.2.36 23.26.37-4.97.36.53.36-3.74.36 4.11.36-6.34.37 6.08.36-13.75.36-2.19.36 21.79.37-3.54.36.07.36-14.3.36 15.46.36-15.64.37 3.14.36-4.06.36 12 .36 2.38.36-3.58.37 3.24.36-10.93.36 12.77.36-12.31.36-.63.37-10.91.36 22.72.36.76.36-5.68.36-3.41.37.98.36 6.27.36-12.73.36 1.58.37-6.6.36 16.3.36-2.76.36 3.55.36-12.71.37 12.3.36-12.32.36 3.15.36-5.66.36 8.14.37 6.52.36 1.87.36-4.12.36-12.35.36 17.51.37-15.86.36 1.35.36-10.81.36 22.83.37.46.36-5.32.36-3.43.36.88.36 6.15.37-13.01.36.05.36-2.68.36 14.73.36-3.47.37 3.72.36-14.37.36 15.32.36-11.8.36-2.24.37-.32.36 6.44.36 6.2.36-3.43.36 4.84.37-14.3.36 14.6.36-12.69.36.01.37-11.64.36 23.11.36-3.13.36 2.05.36-9.47.37 4.39.36-.55.36-2.27.36-10.64.36 5.97.37 7.86.36 5.31.36-1.41.36-14.47.36 15.69.37-15.4.36 2.97.36-7.49.36 15.37.37 4.56.36-4.99.36-.44.36-2.21.36 4.1.37-7.95.36-3.14.36-8.63.36 22.43.36-4.9.37 3.44.36-12.88.36 15.3.36-14.92.36 2.74.37-10.46.36 13.45.36 5.96.36 1.79.37-7.06.36-5.74.36 12.62.36-12.84.36.21.37-13.62.36 25.09.36-.99.36.24.36-12.46.37 11.52.36-4.82.36-4.15.36-6.77.36 4.75.37 7.54.36 5.14.36-2.98.36-15.16.36 21.35.37-19.08.36 2.86.36-11 .36 23.1.37.42.36-5.29.36-2.24.36-.3.36 2.24.37-8.89.36-.61.36-.71.36 11.27.36.06.37 2.03.36-14.6.36 15.81.36-11.98.36-2.41.37-3.76.36 10.61.36 7.15.36-4.93.37-.08.36-3.87.36 5.91.36-10.8.36 4.48.37-12.48.36 19.96.36-1.47.36 1.35.36-14.55.37 16.13.36-12.26.36-2.05.36-5.29.36 11.2.37 10.05.36-9.06.36 3.59.36-7.86.36 9.71.37-12.41.36 3.44.36-11.54.36 19.44.37-1.46.36 2.05.36-14.78.36 17.7.36-13.37.37-2.44.36-7.21.36 13.31.36 9.23.36-9.12.37 5.67.36-11.52.36 11.68.36-12.64.36 3.25.37-11.79.36 20.75.36-1.71.36 2.16.37-14.65.36 17.02.36-12.17.36-4.94.36-4.1.37 10.46.36 10.95.36-8.51.36 1.39.36-4.11.37 5.91.36-9.13.36.97.36-10.46.36 18 .37 2.13.36-.2.36-14.7.36 17.92.36-13.47.37-5.76.36-4.13.36 17.14.36 4.09.37-4.96.36-3.8.36 2.86.36 1.16.36-7.67.37-4.1.36.44.36 11.73.36 2.2.36-5.12.37-7.58.36 17.62.36-15.63.36-4.31.36-5.38.37 13.91.36 9.36.36-5.02.36-5.51.37 2.41.36 1.39.36-11.38.36-2.03.36 8.17.37.59.36 9.31.36-7.35.36-5.36.36 14.39.37-14.09.36-5.93.36-2.42.36 15.98.36 4.19.37-1.86.36-12.12.36 13.35.36-7.88.37-5.8.36-9.6.36 17.23.36 1.35.36 1.75.37-.59.36-8.81.36 8.75.36-8.65.36-.62.37-7.55.36 14.86.36 3.83.36 1.36.36-18.43.37 19.76.36-12.12.36-3.74.36-5.98.36 10.79.37 8.98.36-6.83.36 2.17.36-4.39.37 4.35.36-5.81.36-5.78.36-.44.36 12.65.37 1.94.36-5.07.36-5.67.36 14.47.36-10.74.37-13.03.36 1.84.36 11.85.36 9.99.36-5.25.37-7.62.36 6.88.36-1.17.36-12.41.37-6.11.36 15.43.36 3.78.36.59.36-.59.37-8.56.36 10.47.36-10.71.36-1.64.36-6.51.37 14.59.36 3.76.36 2.39.36-18.35.36 22.86.37-16.66.36-4.23.36-2.86.36 3.86.36 18.36.37-10.4.36-1.71.36 2.33.36 1.17.37-9 .36-2.76.36 3.41.36 8.78.36.87.37-3.57.36-4.39.36 9.58.36-5.67.36-13.31.37-1.11.36 13.57.36 9.36.36-5.24.36-10.68.37 15.69.36-8.59.36-11.18.36-3.55.37 9.96.36 11.09.36-4.82.36 3.27.36-10.93.37 9.58.36-14.51.36 8.02.36-8.94.36 12.82.37 2.07.36-.45.36-10.99.36 14.82.36-7.17.37-11.25.36-5.55.36 16.16.36 7.62.36-1.74.37-9.16.36 6.55.36-2.68.36-9.38.37-8.14.36 12.69.36 11.09.36-3.44h.36l.37-9.1.36 9.13.36-12.99.36 6.79.36-11.06.37 14.62.36 2.71.36-.02.36-11.29.36 17.69.37-15.26.36-4.38.36-3.39.36 8.09.37 11.23.36-3.49.36-7.16.36 8.46.36-4.58.37-11.2.36-3.83.36 9.66.36 11.15.36-3.09.37.24.36-9.2.36 9.6.36-13.07.36 4.73.37-7.39.36 12.84.36 2.21.36-.19.37-10.85.36 16.58.36-14.8.36-2.2.36-6.92.37 11.64.36 9.53.36-3.51.36-10.85.36 14.03.37-4.52.36-14.52.36-.94.36 6.98.36 14.72.37-6.93.36-.07.36-5.35.36 7.09.36-12.03.37-2.52.36 8.32.36 3.54.36 2.82.37-2.25.36-7.29.36 11.9.36-11.69.36-2.77.37-8.95.36 18 .36 5.98.36-5.32.36-7.52.37 12.53.36-6.97.36-12.73.36-.41.36 7.04.37 14.57.36-7.12.36-1.61.36-.34.37 1.25.36-8.39.36-9.55.36 14.27.36 5.44.37 2 .36-1.11.36-11.11.36 14.35.36-14.88.37-.2.36-5.23.36 13.7.36 2.83.36 1.39.37-14.62.36 19.69.36-15.41.36-4.35.36-3.36.37 8.08.36 11.56.36-3.27.36-9.31.37 10.34.36-2.81.36-15.21.36-.12.36 5.37.37 15.74.36-4.17.36-3.82.36-2.88.36 8.36.37-16.51.36-5.6.36 13.93.36 9.17.36-3.19.37-1.83.36-7.86.36 13.19.36-16.12.37-.86.36-2.28.36 12.33.36 4.68.36-3.59.37-8.78.36 17.29.36-16.92.36-2.78.36-.15.37 1.14.36 15.04.36-3.73.36-6.6.36 6.15.37-.58.36-15.11.36 1.49.36 3.05.36 16.86.37-7.28.36 3.52.36-14.01.36 15.94.37-17.66.36.94.36-.37.36 16.12.36-2.85.37-1.39.36-7.98.36 12.67.36-15.67.36-2.17.37.99.36 10.77.36 4.65.36-4.12.36-10.17.37 20.67.36-20.85.36 1.23.36-2.52.37 2.21.36 12.8.36-1.7.36-6.93.36 7.62.37-6.02.36-7.62.36-5.23.36 8.16.36 14.95.37-6.72.36-.12.36-6.08.36 9.41.36-16.23.37-5.65.36 13.91.36 7.39.36-1.29.37-2.01.36-5.56.36 10.83.36-16.21.36-2.05.37-2.27.36 17.65.36-.83.36-.19.36-11.05.37 14.19.36-11.69.36-3.15.36-7.05.36 14.36.37 5.86.36-3.37.36-6.94.36 13.64.36-11.84.37-5.93.36-4.79.36 7.67.36 11.14.37-3.08.36-2.4.36 2.13.36-3.1.36-8.04.37-2.03.36 5.38.36 11.02"/><use xlink:href="#a" color="#3B75EA" transform="matrix(3.75 0 0 3.75 182.98 95.76)"/><use xlink:href="#a" color="#3B75EA" transform="matrix(3.75 0 0 3.75 220.55 22.51)"/></g><path fill="none" d="M28 45.01V205M371.99 45.01H28" color="#000"/></svg>