<svg xmlns="http://www.w3.org/2000/svg" xmlns:xlink="http://www.w3.org/1999/xlink" width="800" height="500"><path fill="none" d="M0 0h800v500H0z"/><defs><path id="d" stroke="currentColor" stroke-width=".222" d="M-1-1h2v2h-2z"/><path id="b" stroke="currentColor" stroke-width=".222" d="m0-1.33-1.33 2h2.66z"/><path id="f" stroke="currentColor" stroke-width=".222" d="M0 1.33 1.265.411.782-1.067l-1.564-.009-.483 1.487z"/><use xlink:href="#b" id="c" stroke="currentColor" transform="rotate(180)"/><use xlink:href="#c" id="g" fill="currentColor" stroke="none"/><use xlink:href="#d" id="e" stroke="currentColor" transform="rotate(45)"/><circle id="a" cx="0" cy="0" r="1" stroke="currentColor" stroke-width=".222"/></defs><path fill="none" stroke="#EEE" d="M38.13 410V180.01" class="gridline" color="#000"/><g fill="none" stroke="none" stroke-width="0" color="#000"><path d="M38.13 410v-9m0-220.99v9"/><text fill="#000" font-family="Arial" font-size="16" text-anchor="middle" transform="translate(38.13 442.2)"><tspan> 1</tspan></text></g><path fill="none" stroke="#EEE" d="M114.39 410V180.01" class="gridline" color="#000"/><g fill="none" stroke="none" stroke-width="0" color="#000"><path d="M114.39 410v-9m0-220.99v9"/><text fill="#000" font-family="Arial" font-size="16" text-anchor="middle" transform="translate(114.39 442.2)"><tspan> 2</tspan></text></g><path fill="none" stroke="#EEE" d="M190.65 410V180.01" class="gridline" color="#000"/><g fill="none" stroke="none" stroke-width="0" color="#000"><path d="M190.65 410v-9m0-220.99v9"/><text fill="#000" font-family="Arial" font-size="16" text-anchor="middle" transform="translate(190.65 442.2)"><tspan> 3</tspan></text></g><path fill="none" stroke="#EEE" d="M266.91 410V180.01" class="gridline" color="#000"/><g fill="none" stroke="none" stroke-width="0" color="#000"><path d="M266.91 410v-9m0-220.99v9"/><text fill="#000" font-family="Arial" font-size="16" text-anchor="middle" transform="translate(266.91 442.2)"><tspan> 4</tspan></text></g><path fill="none" stroke="#EEE" d="M343.17 410V180.01" class="gridline" color="#000"/><g fill="none" stroke="none" stroke-width="0" color="#000"><path d="M343.17 410v-9m0-220.99v9"/><text fill="#000" font-family="Arial" font-size="16" text-anchor="middle" transform="translate(343.17 442.2)"><tspan> 5</tspan></text></g><path fill="none" stroke="#EEE" d="M419.44 410V180.01" class="gridline" color="#000"/><g fill="none" stroke="none" stroke-width="0" color="#000"><path d="M419.44 410v-9m0-220.99v9"/><text fill="#000" font-family="Arial" font-size="16" text-anchor="middle" transform="translate(419.44 442.2)"><tspan> 6</tspan></text></g><path fill="none" stroke="#EEE" d="M495.7 410V180.01" class="gridline" color="#000"/><g fill="none" stroke="none" stroke-width="0" color="#000"><path d="M495.7 410v-9m0-220.99v9"/><text fill="#000" font-family="Arial" font-size="16" text-anchor="middle" transform="translate(495.7 442.2)"><tspan> 7</tspan></text></g><path fill="none" stroke="#EEE" d="M571.96 410V180.01" class="gridline" color="#000"/><g fill="none" stroke="none" stroke-width="0" color="#000"><path d="M571.96 410v-9m0-220.99v9"/><text fill="#000" font-family="Arial" font-size="16" text-anchor="middle" transform="translate(571.96 442.2)"><tspan> 8</tspan></text></g><path fill="none" stroke="#EEE" d="M648.22 410V180.01" class="gridline" color="#000"/><g fill="none" stroke="none" stroke-width="0" color="#000"><path d="M648.22 410v-9m0-220.99v9"/><text fill="#000" font-family="Arial" font-size="16" text-anchor="middle" transform="translate(648.22 442.2)"><tspan> 9</tspan></text></g><path fill="none" stroke="#EEE" d="M724.48 410V180.01" class="gridline" color="#000"/><g fill="none" stroke="none" stroke-width="0" color="#000"><path d="M724.48 410v-9m0-220.99v9"/><text fill="#000" font-family="Arial" font-size="16" text-anchor="middle" transform="translate(724.48 442.2)"><tspan> 10</tspan></text></g><path fill="none" stroke="#EEE" d="M0 410h724.48" class="gridline" color="#000"/><g fill="none" stroke="none" stroke-width="0" color="#000"><path d="M724.48 410h-9"/><text fill="#000" font-family="Arial" font-size="16" transform="translate(741.26 415.2)"><tspan>0.94</tspan></text></g><path fill="none" stroke="#EEE" d="M0 371.67h724.48" class="gridline" color="#000"/><g fill="none" stroke="none" stroke-width="0" color="#000"><path d="M724.48 371.67h-9"/><text fill="#000" font-family="Arial" font-size="16" transform="translate(741.26 376.87)"><tspan>0.95</tspan></text></g><path fill="none" stroke="#EEE" d="M0 333.34h724.48" class="gridline" color="#000"/><g fill="none" stroke="none" stroke-width="0" color="#000"><path d="M724.48 333.34h-9"/><text fill="#000" font-family="Arial" font-size="16" transform="translate(741.26 338.54)"><tspan>0.96</tspan></text></g><path fill="none" stroke="#EEE" d="M0 295h724.48" class="gridline" color="#000"/><g fill="none" stroke="none" stroke-width="0" color="#000"><path d="M724.48 295h-9"/><text fill="#000" font-family="Arial" font-size="16" transform="translate(741.26 300.2)"><tspan>0.97</tspan></text></g><path fill="none" stroke="#EEE" d="M0 256.67h724.48" class="gridline" color="#000"/><g fill="none" stroke="none" stroke-width="0" color="#000"><path d="M724.48 256.67h-9"/><text fill="#000" font-family="Arial" font-size="16" transform="translate(741.26 261.87)"><tspan>0.98</tspan></text></g><path fill="none" stroke="#EEE" d="M0 218.34h724.48" class="gridline" color="#000"/><g fill="none" stroke="none" stroke-width="0" color="#000"><path d="M724.48 218.34h-9"/><text fill="#000" font-family="Arial" font-size="16" transform="translate(741.26 223.54)"><tspan>0.99</tspan></text></g><path fill="none" stroke="#EEE" d="M0 180.01h724.48" class="gridline" color="#000"/><g fill="none" stroke="none" stroke-width="0" color="#000"><path d="M724.48 180.01h-9"/><text fill="#000" font-family="Arial" font-size="16" transform="translate(741.26 185.21)"><tspan>1.00</tspan></text></g><path fill="none" stroke="none" stroke-width="0" d="M0 180.01V410m724.48-229.99H0" color="#000"/><text fill="#000" stroke="none" stroke-width="0" color="#000" font-family="Arial" font-size="16" text-anchor="middle" transform="translate(362.24 478.2)"><tspan>Size × 10</tspan><tspan dy="-8" font-size="12.8">4</tspan></text><text fill="#000" stroke="none" stroke-width="2" color="#000" font-family="Arial" font-size="16" transform="translate(223.34 93.21)"><tspan>Median</tspan></text><g fill="none" stroke="currentColor" stroke-width="2" color="#000"><path stroke="#000" d="M158.34 88.01h53.8M0 322.31l.11.72.76 4.46.77 3.87.76 3.16.76 2.33.77 1.42.76.44.76-.59.77-1.61.76-2.63.76-3.57.77-4.43.76-5.17.76-5.75.77-6.17.76-6.43.76-6.49.77-6.39.76-6.13.76-5.73.77-5.2.76-4.59.76-3.91.77-3.18.76-2.45.76-1.71.77-1.01.76-.34.76.28.77.84.76 1.33.76 1.76.77 2.14.76 2.44.76 2.7.77 2.91.76 3.07.76 3.2.77 3.28.76 3.35.76 3.39.77 3.41.76 3.41.76 3.41.77 3.39.76 3.37.76 3.34.77 3.29.76 3.26.76 3.19.77 3.14.76 3.07.76 3 .77 2.9.76 2.8.76 2.67.77 2.54.76 2.38.76 2.18.77 1.98.76 1.74.76 1.46.77 1.16.76.82.76.46.76.07.77-.37.76-.8.76-1.27.77-1.75.76-2.22.76-2.71.77-3.17.76-3.62.76-4.03.77-4.43.76-4.76.76-5.06.77-5.28.76-5.47.76-5.57.77-5.62.76-5.6.76-5.52.77-5.39.76-5.18.76-4.94.77-4.65.76-4.32.76-3.97.77-3.58.76-3.2.76-2.79.77-2.4.76-2 .76-1.61.77-1.24.76-.89.76-.55.77-.25.76.03.76.29.77.53.76.73.76.91.77 1.08.76 1.21.76 1.33.77 1.44.76 1.52.76 1.58.77 1.65.76 1.69.76 1.73.77 1.75.76 1.77.76 1.79.77 1.8.76 1.8.76 1.81.77 1.8.76 1.8.76 1.8.77 1.79.76 1.78.76 1.77.77 1.76.76 1.76.76 1.74.77 1.73.76 1.72.76 1.72.77 1.7.76 1.69.76 1.68.77 1.67.76 1.66.76 1.65.77 1.64.76 1.63.76 1.62.77 1.6.76 1.6.76 1.59.77 1.58.76 1.57.76 1.57.77 1.55.76 1.54.76 1.53.77 1.53.76 1.51.76 1.51.77 1.5.76 1.49.76 1.48.77 1.47.76 1.46.76 1.45.76 1.45.77 1.43.76 1.43.76 1.41.77 1.41.76 1.39.76 1.38.77 1.37.76 1.35.76 1.34.77 1.32.76 1.3.76 1.27.77 1.25.76 1.22.76 1.18.77 1.14.76 1.1.76 1.04.77.99.76.92.76.84.77.76.76.66.76.55.77.44.76.3.76.16.77.01.76-.17.76-.34.77-.54.76-.75.76-.96.77-1.2.76-1.42.76-1.67.77-1.92.76-2.17.76-2.43.77-2.67.76-2.93.76-3.16.77-3.39.76-3.62.76-3.82.77-4 .76-4.18.76-4.32.77-4.45.76-4.55.76-4.62.77-4.66.76-4.69.76-4.67.77-4.64.76-4.58.76-4.49.77-4.39.76-4.24.76-4.09.77-3.92.76-3.74.76-3.53.77-3.31.76-3.1.76-2.86.77-2.63.76-2.4.76-2.17.77-1.94.76-1.71.76-1.49.77-1.29.76-1.07.76-.89.77-.7.76-.53.76-.37.77-.23.76-.08.76.04.77.15.76.26.76.36.77.43.76.52.76.57.77.64.76.68.76.73.76.77.77.8.76.83.76.86.77.87.76.88.76.91.77.91.76.92.76.92.77.93.76.94.76.94.77.93.76.94.76.94.77.94.76.93.76.94.77.93.76.93.76.92.77.93.76.92.76.92.77.91.76.92.76.91.77.9.76.91.76.9.77.89.76.9.76.89.77.89.76.88.76.88.77.88.76.88.76.87.77.87.76.87.76.86.77.86.76.86.76.86.77.85.76.85.76.85.77.84.76.84.76.84.77.83.76.84.76.83.77.83.76.82.76.82.77.82.76.82.76.81.77.81.76.81.76.81.77.8.76.8.76.8.77.8.76.79.76.79.77.79.76.79.76.78.77.78.76.78.76.78.77.77.76.78.76.76.77.77.76.77.76.76.77.76.76.76.76.75.77.75.76.76.76.74.77.75.76.75.76.74.77.74.76.73.76.74.76.73.77.73.76.73.76.73.77.72.76.73.76.72.77.72.76.71.76.72.77.71.76.71.76.71.77.7.76.71.76.7.77.7.76.7.76.7.77.69.76.69.76.69.77.69.76.69.76.68.77.69.76.68.76.68.77.67.76.68.76.67.77.67.76.67.76.67.77.67.76.66.76.67.77.66.76.66.76.65.77.66.76.65.76.66.77.65.76.64.76.65.77.65.76.64.76.64.77.64.76.64.76.64.77.63.76.64.76.63.77.63.76.63.76.62.77.63.76.62.76.62.77.62.76.62.76.62.77.61.76.62.76.61.77.6.76.61.76.6.77.6.76.6.76.59.77.59.76.59.76.58.77.57.76.57.76.56.77.56.76.54.76.53.77.52.76.5.76.49.77.46.76.45.76.42.77.39.76.35.76.33.77.27.76.24.76.18.76.12.77.06.76-.01.76-.08.77-.17.76-.26.76-.36.77-.47.76-.58.76-.71.77-.83.76-.97.76-1.12.77-1.27.76-1.43.76-1.59.77-1.76.76-1.93.76-2.11.77-2.29.76-2.46.76-2.64.77-2.82.76-2.99.76-3.16.77-3.33.76-3.47.76-3.62.77-3.76.76-3.88.76-3.98.77-4.09.76-4.16.76-4.23.77-4.28.76-4.3.76-4.32.77-4.32.76-4.29.76-4.25.77-4.2.76-4.12.76-4.04.77-3.93.76-3.81.76-3.69.77-3.54.76-3.4.76-3.23.77-3.07.76-2.9.76-2.73.77-2.55.76-2.37.76-2.2.77-2.02.76-1.84.76-1.68.77-1.51.76-1.35.76-1.2.77-1.06.76-.91.76-.78.77-.66.76-.54.76-.44.77-.34.76-.24.76-.16.77-.08.76-.01.76.05.77.11.76.16.76.2.77.25.76.28.76.31.77.34.76.37.76.38.77.4.76.42.76.43.77.44.76.45.76.46.77.47.76.47.76.47.77.48.76.48.76.48.76.48.77.49.76.48.76.49.77.48.76.49.76.48.77.48.76.49.76.48.77.48.76.49.76.48.77.48.76.48.76.48.77.47.76.48.76.48.77.47.76.48.76.47.77.47.76.47.76.47.77.47.76.47.76.47.77.47.76.46.76.47.77.46.76.47.76.46.77.46.76.46.76.46.77.46.76.46.76.46.77.46.76.45.76.46.77.45.76.45.76.46.77.45.76.45.76.45.77.45.76.45.76.45.77.44.76.45.76.44.77.45.76.44.76.44.77.45.76.44.76.44.77.44.76.44.76.44.77.43.76.44.76.43.77.44.76.43.76.44.77.43.76.43.76.43.77.43.76.43.76.43.77.43.76.43.76.42.77.43.76.43.76.42.77.42.76.43.76.42.77.42.76.42.76.42.77.42.76.42.76.42.77.41.76.42.76.42.76.41.77.42.76.41.76.41.77.41.76.42.76.41.77.41.76.41.76.41.77.4.76.41.76.41.77.4.76.41.76.4.77.41.76.4.76.4.77.41.76.4.76.4.77.4.76.4.76.4.77.39.76.4.76.4.77.39.76.4.76.39.77.4.76.39.76.4.77.39.76.39.76.39.77.39.76.39.76.39.77.39.76.39.76.38.77.39.76.39.76.38.77.39.76.38.76.38.77.39.76.38.76.38.77.38.76.38.76.38.77.38.76.38.76.38.77.38.76.37.76.38.77.37.76.38.76.37.77.38.76.37.76.37.77.38.76.37.76.37.77.37.76.37.76.37.77.37.76.37.76.36.77.37.76.37.76.36.77.37.76.36.76.37.77.36.76.37.76.36.77.36.76.36.76.36.77.36.76.36.76.36.76.36.77.36.76.36.76.36.77.35.76.36.76.36.77.35.76.36.76.35.77.35.76.36.76.35.77.35.76.35.76.35.77.35.76.35.76.35.77.35.76.35.76.35.77.35.76.34.76.35.77.35.76.34.76.35.77.34.76.35.76.34.77.34.76.34.76.35.77.34.76.34.76.34.77.34.76.34.76.34.77.34.76.33.76.34.77.34.76.34.76.33.77.34.76.33.76.34.77.33.76.34.76.33.77.33.76.33.76.34.77.33.76.33.76.33.77.33.76.33.76.33.77.33.76.33.76.32.77.33.76.33.76.32.77.33.76.33.76.32.77.32.76.33.76.32.77.33.76.32.76.32.77.32.76.33.76.32.77.32.76.32.76.32.77.32.76.32.76.31.77.32.76.32.76.32.77.31.76.32.76.32.77.31.76.32.76.31.76.32.77.31.76.31.76.32.77.31.76.31.76.31.77.31.76.32.76.31.77.31.76.31.76.31.77.3.76.31.76.31.77.31.76.31.76.3.77.31.76.31.76.3.77.31.76.3.76.31.77.3.76.3.76.31.77.3.76.3.76.31.77.3.76.3.76.3.77.3.76.3.76.3.77.3.76.3.76.3.77.3.76.29.76.3.77.3.76.3.76.29.77.3.76.29.76.3.77.3.76.29.76.29.77.3.76.29.76.29.77.3.76.29.76.29.77.29.76.29.76.3.77.29.76.29.76.29.77.29.76.28.76.29.77.29.76.29.76.29.77.28.76.29.76.29.77.28.76.29.76.29.77.28.76.29.76.28.77.29.76.28.76.28.77.29.76.28.76.28.77.28.76.29.76.28.77.28.76.28.76.28.77.28.76.28.76.28.76.28.77.28.76.27.76.28.77.28.76.28.76.27.77.28.76.28.76.27.77.28.76.27.76.28.77.27.76.28.76.27.77.28.76.27.76.27.77.28.76.27.76.27.77.27.76.28.76.27.77.27.76.27.76.27.77.27.76.27.76.27.77.27.76.27.76.26.77.27.76.27.76.27.77.26.76.27.76.27.77.26.76.27.76.26.77.27.76.26"/><use xlink:href="#g" transform="matrix(9 0 0 9 686.32 345.53)"/><use xlink:href="#g" transform="matrix(9 0 0 9 185.24 88.01)"/></g><text fill="#000" stroke="none" stroke-width="2" color="#000" font-family="Arial" font-size="16" transform="translate(366.74 93.21)"><tspan>Height</tspan></text><g fill="none" stroke="currentColor" stroke-width="2" color="#000"><path stroke="#9F650D" stroke-dasharray="8,4,2,4" d="M301.74 88.01h53.8M0 322.31l.11.72.76 4.46.77 3.87.76 3.16.76 2.33.77 1.42.76.44.76-.59.77-1.61.76-2.63.76-3.57.77-4.43.76-5.17.76-5.75.77-6.17.76-6.43.76-6.49.77-6.39.76-6.13.76-5.73.77-5.2.76-4.59.76-3.91.77-3.18.76-2.45.76-1.71.77-1.01.76-.34.76.28.77.84.76 1.33.76 1.76.77 2.14.76 2.44.76 2.7.77 2.91.76 3.07.76 3.2.77 3.28.76 3.35.76 3.39.77 3.41.76 3.41.76 3.41.77 3.39.76 3.37.76 3.34.77 3.29.76 3.26.76 3.19.77 3.14.76 3.07.76 3 .77 2.9.76 2.8.76 2.67.77 2.54.76 2.38.76 2.18.77 1.98.76 1.74.76 1.46.77 1.16.76.82.76.46.76.07.77-.37.76-.8.76-1.27.77-1.75.76-2.22.76-2.71.77-3.17.76-3.62.76-4.03.77-4.43.76-4.76.76-5.06.77-5.28.76-5.47.76-5.57.77-5.62.76-5.6.76-5.52.77-5.39.76-5.18.76-4.94.77-4.65.76-4.32.76-3.97.77-3.58.76-3.2.76-2.79.77-2.4.76-2 .76-1.61.77-1.24.76-.89.76-.55.77-.25.76.03.76.29.77.53.76.73.76.91.77 1.08.76 1.21.76 1.33.77 1.44.76 1.52.76 1.58.77 1.65.76 1.69.76 1.73.77 1.75.76 1.77.76 1.79.77 1.8.76 1.8.76 1.81.77 1.8.76 1.8.76 1.8.77 1.79.76 1.78.76 1.77.77 1.76.76 1.76.76 1.74.77 1.73.76 1.72.76 1.72.77 1.7.76 1.69.76 1.68.77 1.67.76 1.66.76 1.65.77 1.64.76 1.63.76 1.62.77 1.6.76 1.6.76 1.59.77 1.58.76 1.57.76 1.57.77 1.55.76 1.54.76 1.53.77 1.53.76 1.51.76 1.51.77 1.5.76 1.49.76 1.48.77 1.47.76 1.46.76 1.45.76 1.45.77 1.43.76 1.43.76 1.41.77 1.41.76 1.39.76 1.38.77 1.37.76 1.35.76 1.34.77 1.32.76 1.3.76 1.27.77 1.25.76 1.22.76 1.18.77 1.14.76 1.1.76 1.04.77.99.76.92.76.84.77.76.76.66.76.55.77.44.76.3.76.16.77.01.76-.17.76-.34.77-.54.76-.75.76-.96.77-1.2.76-1.42.76-1.67.77-1.92.76-2.17.76-2.43.77-2.67.76-2.93.76-3.16.77-3.39.76-3.62.76-3.82.77-4 .76-4.18.76-4.32.77-4.45.76-4.55.76-4.62.77-4.66.76-4.69.76-4.67.77-4.64.76-4.58.76-4.49.77-4.39.76-4.24.76-4.09.77-3.92.76-3.74.76-3.53.77-3.31.76-3.1.76-2.86.77-2.63.76-2.4.76-2.17.77-1.94.76-1.71.76-1.49.77-1.29.76-1.07.76-.89.77-.7.76-.53.76-.37.77-.23.76-.08.76.04.77.15.76.26.76.36.77.43.76.52.76.57.77.64.76.68.76.73.76.77.77.8.76.83.76.86.77.87.76.88.76.91.77.91.76.92.76.92.77.93.76.94.76.94.77.93.76.94.76.94.77.94.76.93.76.94.77.93.76.93.76.92.77.93.76.92.76.92.77.91.76.92.76.91.77.9.76.91.76.9.77.89.76.9.76.89.77.89.76.88.76.88.77.88.76.88.76.87.77.87.76.87.76.86.77.86.76.86.76.86.77.85.76.85.76.85.77.84.76.84.76.84.77.83.76.84.76.83.77.83.76.82.76.82.77.82.76.82.76.81.77.81.76.81.76.81.77.8.76.8.76.8.77.8.76.79.76.79.77.79.76.79.76.78.77.78.76.78.76.78.77.77.76.78.76.76.77.77.76.77.76.76.77.76.76.76.76.75.77.75.76.76.76.74.77.75.76.75.76.74.77.74.76.73.76.74.76.73.77.73.76.73.76.73.77.72.76.73.76.72.77.72.76.71.76.72.77.71.76.71.76.71.77.7.76.71.76.7.77.7.76.7.76.7.77.69.76.69.76.69.77.69.76.69.76.68.77.69.76.68.76.68.77.67.76.68.76.67.77.67.76.67.76.67.77.67.76.66.76.67.77.66.76.66.76.65.77.66.76.65.76.66.77.65.76.64.76.65.77.65.76.64.76.64.77.64.76.64.76.64.77.63.76.64.76.63.77.63.76.63.76.62.77.63.76.62.76.62.77.62.76.62.76.62.77.61.76.62.76.61.77.6.76.61.76.6.77.6.76.6.76.59.77.59.76.59.76.58.77.57.76.57.76.56.77.56.76.54.76.53.77.52.76.5.76.49.77.46.76.45.76.42.77.39.76.35.76.33.77.27.76.24.76.18.76.12.77.06.76-.01.76-.08.77-.17.76-.26.76-.36.77-.47.76-.58.76-.71.77-.83.76-.97.76-1.12.77-1.27.76-1.43.76-1.59.77-1.76.76-1.93.76-2.11.77-2.29.76-2.46.76-2.64.77-2.82.76-2.99.76-3.16.77-3.33.76-3.47.76-3.62.77-3.76.76-3.88.76-3.98.77-4.09.76-4.16.76-4.23.77-4.28.76-4.3.76-4.32.77-4.32.76-4.29.76-4.25.77-4.2.76-4.12.76-4.04.77-3.93.76-3.81.76-3.69.77-3.54.76-3.4.76-3.23.77-3.07.76-2.9.76-2.73.77-2.55.76-2.37.76-2.2.77-2.02.76-1.84.76-1.68.77-1.51.76-1.35.76-1.2.77-1.06.76-.91.76-.78.77-.66.76-.54.76-.44.77-.34.76-.24.76-.16.77-.08.76-.01.76.05.77.11.76.16.76.2.77.25.76.28.76.31.77.34.76.37.76.38.77.4.76.42.76.43.77.44.76.45.76.46.77.47.76.47.76.47.77.48.76.48.76.48.76.48.77.49.76.48.76.49.77.48.76.49.76.48.77.48.76.49.76.48.77.48.76.49.76.48.77.48.76.48.76.48.77.47.76.48.76.48.77.47.76.48.76.47.77.47.76.47.76.47.77.47.76.47.76.47.77.47.76.46.76.47.77.46.76.47.76.46.77.46.76.46.76.46.77.46.76.46.76.46.77.46.76.45.76.46.77.45.76.45.76.46.77.45.76.45.76.45.77.45.76.45.76.45.77.44.76.45.76.44.77.45.76.44.76.44.77.45.76.44.76.44.77.44.76.44.76.44.77.43.76.44.76.43.77.44.76.43.76.44.77.43.76.43.76.43.77.43.76.43.76.43.77.43.76.43.76.42.77.43.76.43.76.42.77.42.76.43.76.42.77.42.76.42.76.42.77.42.76.42.76.42.77.41.76.42.76.42.76.41.77.42.76.41.76.41.77.41.76.42.76.41.77.41.76.41.76.41.77.4.76.41.76.41.77.4.76.41.76.4.77.41.76.4.76.4.77.41.76.4.76.4.77.4.76.4.76.4.77.39.76.4.76.4.77.39.76.4.76.39.77.4.76.39.76.4.77.39.76.39.76.39.77.39.76.39.76.39.77.39.76.39.76.38.77.39.76.39.76.38.77.39.76.38.76.38.77.39.76.38.76.38.77.38.76.38.76.38.77.38.76.38.76.38.77.38.76.37.76.38.77.37.76.38.76.37.77.38.76.37.76.37.77.38.76.37.76.37.77.37.76.37.76.37.77.37.76.37.76.36.77.37.76.37.76.36.77.37.76.36.76.37.77.36.76.37.76.36.77.36.76.36.76.36.77.36.76.36.76.36.76.36.77.36.76.36.76.36.77.35.76.36.76.36.77.35.76.36.76.35.77.35.76.36.76.35.77.35.76.35.76.35.77.35.76.35.76.35.77.35.76.35.76.35.77.35.76.34.76.35.77.35.76.34.76.35.77.34.76.35.76.34.77.34.76.34.76.35.77.34.76.34.76.34.77.34.76.34.76.34.77.34.76.33.76.34.77.34.76.34.76.33.77.34.76.33.76.34.77.33.76.34.76.33.77.33.76.33.76.34.77.33.76.33.76.33.77.33.76.33.76.33.77.33.76.33.76.32.77.33.76.33.76.32.77.33.76.33.76.32.77.32.76.33.76.32.77.33.76.32.76.32.77.32.76.33.76.32.77.32.76.32.76.32.77.32.76.32.76.31.77.32.76.32.76.32.77.31.76.32.76.32.77.31.76.32.76.31.76.32.77.31.76.31.76.32.77.31.76.31.76.31.77.31.76.32.76.31.77.31.76.31.76.31.77.3.76.31.76.31.77.31.76.31.76.3.77.31.76.31.76.3.77.31.76.3.76.31.77.3.76.3.76.31.77.3.76.3.76.31.77.3.76.3.76.3.77.3.76.3.76.3.77.3.76.3.76.3.77.3.76.29.76.3.77.3.76.3.76.29.77.3.76.29.76.3.77.3.76.29.76.29.77.3.76.29.76.29.77.3.76.29.76.29.77.29.76.29.76.3.77.29.76.29.76.29.77.29.76.28.76.29.77.29.76.29.76.29.77.28.76.29.76.29.77.28.76.29.76.29.77.28.76.29.76.28.77.29.76.28.76.28.77.29.76.28.76.28.77.28.76.29.76.28.77.28.76.28.76.28.77.28.76.28.76.28.76.28.77.28.76.27.76.28.77.28.76.28.76.27.77.28.76.28.76.27.77.28.76.27.76.28.77.27.76.28.76.27.77.28.76.27.76.27.77.28.76.27.76.27.77.27.76.28.76.27.77.27.76.27.76.27.77.27.76.27.76.27.77.27.76.27.76.26.77.27.76.27.76.27.77.26.76.27.76.27.77.26.76.27.76.26.77.27.76.26"/><use xlink:href="#c" color="#9F650D" transform="matrix(9 0 0 9 83.31 243.22)"/><use xlink:href="#c" color="#9F650D" transform="matrix(9 0 0 9 328.64 88.01)"/></g><text fill="#000" stroke="none" stroke-width="2" color="#000" font-family="Arial" font-size="16" transform="translate(510.14 93.21)"><tspan>DSW</tspan></text><g fill="none" stroke="currentColor" stroke-width="2" color="#000"><path stroke="violet" d="M445.14 88.01h53.8M0 322.31l.11.72.76 4.46.77 3.87.76 3.16.76 2.33.77 1.42.76.44.76-.59.77-1.61.76-2.63.76-3.57.77-4.43.76-5.17.76-5.75.77-6.17.76-6.43.76-6.49.77-6.39.76-6.13.76-5.73.77-5.2.76-4.59.76-3.91.77-3.18.76-2.45.76-1.71.77-1.01.76-.34.76.28.77.84.76 1.33.76 1.76.77 2.14.76 2.44.76 2.7.77 2.91.76 3.07.76 3.2.77 3.28.76 3.35.76 3.39.77 3.41.76 3.41.76 3.41.77 3.39.76 3.37.76 3.34.77 3.29.76 3.26.76 3.19.77 3.14.76 3.07.76 3 .77 2.9.76 2.8.76 2.67.77 2.54.76 2.38.76 2.18.77 1.98.76 1.74.76 1.46.77 1.16.76.82.76.46.76.07.77-.37.76-.8.76-1.27.77-1.75.76-2.22.76-2.71.77-3.17.76-3.62.76-4.03.77-4.43.76-4.76.76-5.06.77-5.28.76-5.47.76-5.57.77-5.62.76-5.6.76-5.52.77-5.39.76-5.18.76-4.94.77-4.65.76-4.32.76-3.97.77-3.58.76-3.2.76-2.79.77-2.4.76-2 .76-1.61.77-1.24.76-.89.76-.55.77-.25.76.03.76.29.77.53.76.73.76.91.77 1.08.76 1.21.76 1.33.77 1.44.76 1.52.76 1.58.77 1.65.76 1.69.76 1.73.77 1.75.76 1.77.76 1.79.77 1.8.76 1.8.76 1.81.77 1.8.76 1.8.76 1.8.77 1.79.76 1.78.76 1.77.77 1.76.76 1.76.76 1.74.77 1.73.76 1.72.76 1.72.77 1.7.76 1.69.76 1.68.77 1.67.76 1.66.76 1.65.77 1.64.76 1.63.76 1.62.77 1.6.76 1.6.76 1.59.77 1.58.76 1.57.76 1.57.77 1.55.76 1.54.76 1.53.77 1.53.76 1.51.76 1.51.77 1.5.76 1.49.76 1.48.77 1.47.76 1.46.76 1.45.76 1.45.77 1.43.76 1.43.76 1.41.77 1.41.76 1.39.76 1.38.77 1.37.76 1.35.76 1.34.77 1.32.76 1.3.76 1.27.77 1.25.76 1.22.76 1.18.77 1.14.76 1.1.76 1.04.77.99.76.92.76.84.77.76.76.66.76.55.77.44.76.3.76.16.77.01.76-.17.76-.34.77-.54.76-.75.76-.96.77-1.2.76-1.42.76-1.67.77-1.92.76-2.17.76-2.43.77-2.67.76-2.93.76-3.16.77-3.39.76-3.62.76-3.82.77-4 .76-4.18.76-4.32.77-4.45.76-4.55.76-4.62.77-4.66.76-4.69.76-4.67.77-4.64.76-4.58.76-4.49.77-4.39.76-4.24.76-4.09.77-3.92.76-3.74.76-3.53.77-3.31.76-3.1.76-2.86.77-2.63.76-2.4.76-2.17.77-1.94.76-1.71.76-1.49.77-1.29.76-1.07.76-.89.77-.7.76-.53.76-.37.77-.23.76-.08.76.04.77.15.76.26.76.36.77.43.76.52.76.57.77.64.76.68.76.73.76.77.77.8.76.83.76.86.77.87.76.88.76.91.77.91.76.92.76.92.77.93.76.94.76.94.77.93.76.94.76.94.77.94.76.93.76.94.77.93.76.93.76.92.77.93.76.92.76.92.77.91.76.92.76.91.77.9.76.91.76.9.77.89.76.9.76.89.77.89.76.88.76.88.77.88.76.88.76.87.77.87.76.87.76.86.77.86.76.86.76.86.77.85.76.85.76.85.77.84.76.84.76.84.77.83.76.84.76.83.77.83.76.82.76.82.77.82.76.82.76.81.77.81.76.81.76.81.77.8.76.8.76.8.77.8.76.79.76.79.77.79.76.79.76.78.77.78.76.78.76.78.77.77.76.78.76.76.77.77.76.77.76.76.77.76.76.76.76.75.77.75.76.76.76.74.77.75.76.75.76.74.77.74.76.73.76.74.76.73.77.73.76.73.76.73.77.72.76.73.76.72.77.72.76.71.76.72.77.71.76.71.76.71.77.7.76.71.76.7.77.7.76.7.76.7.77.69.76.69.76.69.77.69.76.69.76.68.77.69.76.68.76.68.77.67.76.68.76.67.77.67.76.67.76.67.77.67.76.66.76.67.77.66.76.66.76.65.77.66.76.65.76.66.77.65.76.64.76.65.77.65.76.64.76.64.77.64.76.64.76.64.77.63.76.64.76.63.77.63.76.63.76.62.77.63.76.62.76.62.77.62.76.62.76.62.77.61.76.62.76.61.77.6.76.61.76.6.77.6.76.6.76.59.77.59.76.59.76.58.77.57.76.57.76.56.77.56.76.54.76.53.77.52.76.5.76.49.77.46.76.45.76.42.77.39.76.35.76.33.77.27.76.24.76.18.76.12.77.06.76-.01.76-.08.77-.17.76-.26.76-.36.77-.47.76-.58.76-.71.77-.83.76-.97.76-1.12.77-1.27.76-1.43.76-1.59.77-1.76.76-1.93.76-2.11.77-2.29.76-2.46.76-2.64.77-2.82.76-2.99.76-3.16.77-3.33.76-3.47.76-3.62.77-3.76.76-3.88.76-3.98.77-4.09.76-4.16.76-4.23.77-4.28.76-4.3.76-4.32.77-4.32.76-4.29.76-4.25.77-4.2.76-4.12.76-4.04.77-3.93.76-3.81.76-3.69.77-3.54.76-3.4.76-3.23.77-3.07.76-2.9.76-2.73.77-2.55.76-2.37.76-2.2.77-2.02.76-1.84.76-1.68.77-1.51.76-1.35.76-1.2.77-1.06.76-.91.76-.78.77-.66.76-.54.76-.44.77-.34.76-.24.76-.16.77-.08.76-.01.76.05.77.11.76.16.76.2.77.25.76.28.76.31.77.34.76.37.76.38.77.4.76.42.76.43.77.44.76.45.76.46.77.47.76.47.76.47.77.48.76.48.76.48.76.48.77.49.76.48.76.49.77.48.76.49.76.48.77.48.76.49.76.48.77.48.76.49.76.48.77.48.76.48.76.48.77.47.76.48.76.48.77.47.76.48.76.47.77.47.76.47.76.47.77.47.76.47.76.47.77.47.76.46.76.47.77.46.76.47.76.46.77.46.76.46.76.46.77.46.76.46.76.46.77.46.76.45.76.46.77.45.76.45.76.46.77.45.76.45.76.45.77.45.76.45.76.45.77.44.76.45.76.44.77.45.76.44.76.44.77.45.76.44.76.44.77.44.76.44.76.44.77.43.76.44.76.43.77.44.76.43.76.44.77.43.76.43.76.43.77.43.76.43.76.43.77.43.76.43.76.42.77.43.76.43.76.42.77.42.76.43.76.42.77.42.76.42.76.42.77.42.76.42.76.42.77.41.76.42.76.42.76.41.77.42.76.41.76.41.77.41.76.42.76.41.77.41.76.41.76.41.77.4.76.41.76.41.77.4.76.41.76.4.77.41.76.4.76.4.77.41.76.4.76.4.77.4.76.4.76.4.77.39.76.4.76.4.77.39.76.4.76.39.77.4.76.39.76.4.77.39.76.39.76.39.77.39.76.39.76.39.77.39.76.39.76.38.77.39.76.39.76.38.77.39.76.38.76.38.77.39.76.38.76.38.77.38.76.38.76.38.77.38.76.38.76.38.77.38.76.37.76.38.77.37.76.38.76.37.77.38.76.37.76.37.77.38.76.37.76.37.77.37.76.37.76.37.77.37.76.37.76.36.77.37.76.37.76.36.77.37.76.36.76.37.77.36.76.37.76.36.77.36.76.36.76.36.77.36.76.36.76.36.76.36.77.36.76.36.76.36.77.35.76.36.76.36.77.35.76.36.76.35.77.35.76.36.76.35.77.35.76.35.76.35.77.35.76.35.76.35.77.35.76.35.76.35.77.35.76.34.76.35.77.35.76.34.76.35.77.34.76.35.76.34.77.34.76.34.76.35.77.34.76.34.76.34.77.34.76.34.76.34.77.34.76.33.76.34.77.34.76.34.76.33.77.34.76.33.76.34.77.33.76.34.76.33.77.33.76.33.76.34.77.33.76.33.76.33.77.33.76.33.76.33.77.33.76.33.76.32.77.33.76.33.76.32.77.33.76.33.76.32.77.32.76.33.76.32.77.33.76.32.76.32.77.32.76.33.76.32.77.32.76.32.76.32.77.32.76.32.76.31.77.32.76.32.76.32.77.31.76.32.76.32.77.31.76.32.76.31.76.32.77.31.76.31.76.32.77.31.76.31.76.31.77.31.76.32.76.31.77.31.76.31.76.31.77.3.76.31.76.31.77.31.76.31.76.3.77.31.76.31.76.3.77.31.76.3.76.31.77.3.76.3.76.31.77.3.76.3.76.31.77.3.76.3.76.3.77.3.76.3.76.3.77.3.76.3.76.3.77.3.76.29.76.3.77.3.76.3.76.29.77.3.76.29.76.3.77.3.76.29.76.29.77.3.76.29.76.29.77.3.76.29.76.29.77.29.76.29.76.3.77.29.76.29.76.29.77.29.76.28.76.29.77.29.76.29.76.29.77.28.76.29.76.29.77.28.76.29.76.29.77.28.76.29.76.28.77.29.76.28.76.28.77.29.76.28.76.28.77.28.76.29.76.28.77.28.76.28.76.28.77.28.76.28.76.28.76.28.77.28.76.27.76.28.77.28.76.28.76.27.77.28.76.28.76.27.77.28.76.27.76.28.77.27.76.28.76.27.77.28.76.27.76.27.77.28.76.27.76.27.77.27.76.28.76.27.77.27.76.27.76.27.77.27.76.27.76.27.77.27.76.27.76.26.77.27.76.27.76.27.77.26.76.27.76.27.77.26.76.27.76.26.77.27.76.26"/><use xlink:href="#a" color="violet" transform="matrix(9 0 0 9 204.67 238.43)"/><use xlink:href="#a" color="violet" transform="matrix(9 0 0 9 472.04 88.01)"/></g><path fill="none" stroke="none" stroke-width="0" d="M0 180.01V410m724.48-229.99H0" color="#000"/><text fill="#000" stroke="none" stroke-width="0" color="#000" font-family="Arial" font-size="20" text-anchor="middle" transform="translate(362.24 39.51)"><tspan font-weight="bold">Maximum Path Length </tspan><tspan> / log</tspan><tspan dy="6" font-size="16">2</tspan><tspan dy="-6">Size</tspan></text></svg>