<svg xmlns="http://www.w3.org/2000/svg" xmlns:xlink="http://www.w3.org/1999/xlink" viewBox="0 0 400 200"><path fill="none" d="M0 0h400v200H0z"/><defs><path id="g" stroke="currentColor" stroke-width=".222" d="M-1 0h2M0-1v2"/><path id="h" stroke="currentColor" stroke-width=".222" d="m-1-1 2 2m0-2-2 2"/><path id="d" stroke="currentColor" stroke-width=".222" d="M-1-1h2v2h-2z"/><path id="b" stroke="currentColor" stroke-width=".222" d="m0-1.33-1.33 2h2.66z"/><path id="f" stroke="currentColor" stroke-width=".222" d="M0 1.33 1.265.411.782-1.067l-1.564-.009-.483 1.487z"/><use xlink:href="#b" id="c" stroke="currentColor" transform="rotate(180)"/><use xlink:href="#d" id="e" stroke="currentColor" transform="rotate(45)"/><circle id="a" cx="0" cy="0" r="1" stroke="currentColor" stroke-width=".222"/></defs><g fill="none" stroke="none" stroke-linecap="round" stroke-linejoin="round" stroke-width="0" color="#000"><path d="M67.63 162.01v-9m0-43.01v9"/><text fill="#000" font-family="Arial" font-size="8" text-anchor="middle" transform="translate(67.63 173.61)"><tspan> 1</tspan></text></g><g fill="none" stroke="none" stroke-linecap="round" stroke-linejoin="round" stroke-width="0" color="#000"><path d="M96.17 162.01v-9m0-43.01v9"/><text fill="#000" font-family="Arial" font-size="8" text-anchor="middle" transform="translate(96.17 173.61)"><tspan> 2</tspan></text></g><g fill="none" stroke="none" stroke-linecap="round" stroke-linejoin="round" stroke-width="0" color="#000"><path d="M124.71 162.01v-9m0-43.01v9"/><text fill="#000" font-family="Arial" font-size="8" text-anchor="middle" transform="translate(124.71 173.61)"><tspan> 3</tspan></text></g><g fill="none" stroke="none" stroke-linecap="round" stroke-linejoin="round" stroke-width="0" color="#000"><path d="M153.25 162.01v-9m0-43.01v9"/><text fill="#000" font-family="Arial" font-size="8" text-anchor="middle" transform="translate(153.25 173.61)"><tspan> 4</tspan></text></g><g fill="none" stroke="none" stroke-linecap="round" stroke-linejoin="round" stroke-width="0" color="#000"><path d="M181.79 162.01v-9m0-43.01v9"/><text fill="#000" font-family="Arial" font-size="8" text-anchor="middle" transform="translate(181.79 173.61)"><tspan> 5</tspan></text></g><g fill="none" stroke="none" stroke-linecap="round" stroke-linejoin="round" stroke-width="0" color="#000"><path d="M210.33 162.01v-9m0-43.01v9"/><text fill="#000" font-family="Arial" font-size="8" text-anchor="middle" transform="translate(210.33 173.61)"><tspan> 6</tspan></text></g><g fill="none" stroke="none" stroke-linecap="round" stroke-linejoin="round" stroke-width="0" color="#000"><path d="M238.86 162.01v-9m0-43.01v9"/><text fill="#000" font-family="Arial" font-size="8" text-anchor="middle" transform="translate(238.86 173.61)"><tspan> 7</tspan></text></g><g fill="none" stroke="none" stroke-linecap="round" stroke-linejoin="round" stroke-width="0" color="#000"><path d="M267.4 162.01v-9m0-43.01v9"/><text fill="#000" font-family="Arial" font-size="8" text-anchor="middle" transform="translate(267.4 173.61)"><tspan> 8</tspan></text></g><g fill="none" stroke="none" stroke-linecap="round" stroke-linejoin="round" stroke-width="0" color="#000"><path d="M295.94 162.01v-9m0-43.01v9"/><text fill="#000" font-family="Arial" font-size="8" text-anchor="middle" transform="translate(295.94 173.61)"><tspan> 9</tspan></text></g><g fill="none" stroke="none" stroke-linecap="round" stroke-linejoin="round" stroke-width="0" color="#000"><path d="M324.48 162.01v-9m0-43.01v9"/><text fill="#000" font-family="Arial" font-size="8" text-anchor="middle" transform="translate(324.48 173.61)"><tspan> 10</tspan></text></g><g fill="none" stroke="none" stroke-linecap="round" stroke-linejoin="round" stroke-width="0" color="#000"><path d="M324.48 162.01h-9"/><text fill="#000" font-family="Arial" font-size="8" transform="translate(332.87 164.61)"><tspan>0.18</tspan></text></g><g fill="none" stroke="none" stroke-linecap="round" stroke-linejoin="round" stroke-width="0" color="#000"><path d="M324.48 153.34h-9"/><text fill="#000" font-family="Arial" font-size="8" transform="translate(332.87 155.94)"><tspan>0.20</tspan></text></g><g fill="none" stroke="none" stroke-linecap="round" stroke-linejoin="round" stroke-width="0" color="#000"><path d="M324.48 144.67h-9"/><text fill="#000" font-family="Arial" font-size="8" transform="translate(332.87 147.27)"><tspan>0.22</tspan></text></g><g fill="none" stroke="none" stroke-linecap="round" stroke-linejoin="round" stroke-width="0" color="#000"><path d="M324.48 136h-9"/><text fill="#000" font-family="Arial" font-size="8" transform="translate(332.87 138.6)"><tspan>0.24</tspan></text></g><g fill="none" stroke="none" stroke-linecap="round" stroke-linejoin="round" stroke-width="0" color="#000"><path d="M324.48 127.34h-9"/><text fill="#000" font-family="Arial" font-size="8" transform="translate(332.87 129.94)"><tspan>0.26</tspan></text></g><g fill="none" stroke="none" stroke-linecap="round" stroke-linejoin="round" stroke-width="0" color="#000"><path d="M324.48 118.67h-9"/><text fill="#000" font-family="Arial" font-size="8" transform="translate(332.87 121.27)"><tspan>0.28</tspan></text></g><g fill="none" stroke="none" stroke-linecap="round" stroke-linejoin="round" stroke-width="0" color="#000"><path d="M324.48 110h-9"/><text fill="#000" font-family="Arial" font-size="8" transform="translate(332.87 112.6)"><tspan>0.30</tspan></text></g><path fill="none" stroke="none" stroke-linecap="round" stroke-linejoin="round" stroke-width="0" d="M41.95 110v52.01M324.48 110H41.95" color="#000"/><text fill="#000" stroke="none" stroke-linecap="round" stroke-linejoin="round" stroke-width="0" color="#000" font-family="Arial" font-size="8" text-anchor="middle" transform="rotate(-90 78.435 57.575)"><tspan font-weight="bold">Duration </tspan><tspan> in milliseconds</tspan></text><text fill="#000" stroke="none" stroke-linecap="round" stroke-linejoin="round" stroke-width="0" color="#000" font-family="Arial" font-size="8" text-anchor="middle" transform="translate(183.21 191.61)"><tspan>Operations / 10</tspan><tspan dy="-4" font-size="6.4">5</tspan></text><text fill="#000" stroke="none" stroke-linecap="round" stroke-linejoin="round" color="#000" font-family="Arial" font-size="8" transform="translate(121.62 10.11)"><tspan>AVLBottomUp</tspan></text><g fill="none" stroke="currentColor" stroke-linecap="round" stroke-linejoin="round" color="#000"><path stroke="#000" d="M84.62 7.51h31.4M41.95 160.43l.29-6.82.28 5.75.29-1 .28-.21.29-7.15.28-.61.29 5.92.28-.92.29-.39.28-.19.29-11.86.28 11.14.29-.97.29-.87.28-.59.29-6.77.28 6.08.29-.51.28.13.29-.25.28-5.78.29 5.64.28-.47.29-.38.28-.39.29-6.62.29 6.51.28-.17.29-.18.28-.27.29-11.61.28 10.81.29.11.28-.33.29-.03.28-6.12.29.04.28 5.64.29-.11.29-.38.28-6.69.29 6.31.28.04.29-.22.28-.09.29-.14.28-5.76.29 5.47.28.07.29-.26.28-.05.29-6.15.29 5.85.28-.36.29.25.28-.45.29-13.25.28 12.44.29-.18.28.16.29-.41.28-11.49.29 11.28.28.01.29-.24.29-.08.28-6.32.29 6.31.28-.07.29-.11.28.1.29-5.75.28 5.23.29.28.28-.32.29-.18.28-.09.29-5.89.29 5.95.28-.1.29-.39.28-5.59.29-1.07.28 6.89.29-.35.28-.12.29.15.28-12.06.29 11.86.28-.44.29-12.41.29 2.12.28.47.29.2.28.22.29.44.28.09.29.32.28-.2.29.04.28.05h.29l.28-.09.29.06.29-.38.28.15.29.16.28.45.29-.08.28.31.29-.35.28.55.29.33.28-.6.29.19.28.27.29.05.29.3.28-.18.29.32.28-.09.29.29.28-.02.29.49.28.36.29.6.28-.28.29.13.28.09.29-.6.29.29.28.18.29.09.28.5.29-.32.28-.33.29-2.08.28.14.29-1.36.28.47.29 10.23.28-.54.29-14.75.29.83.28 6.41.29 2.99.28.26.29-4.77.28 7.95.29.7h.28l.29-.29.28-8.34.29 7.41.28.38.29-.01.29.47.28-5.75.29.58.28 5.57.29.22.28.07.29-5.92h.28l.29 5.85.28-.15.29-.23.28-.15.29-5.54.29 5.78.28-.12.29-.06.28.02.29-6.16.28 5.84.29-.01.28-.02.29-.27.28-12.99.29 13.02.28-.36.29-.01.29-.23.28-13.39.29 13.23.28-.03.29-.31.28-.04.29-6.67.28.25.29-6.95.28 1.79.29.18.28.36.29.17.29-.18.28.59.29.19.28.34.29.1.28.41.29-.26.28.08.29-.18.28.39.29-.08.28.84.29.2.29.47.28-.41.29.38.28-.71.29-.13.28.33.29-.03.28.25.29.37.28.11.29.48h.28l.29-.09.29.15.28.66.29.23.28.07.29.11.28.09.29.46.28.2.29-.3.28.47.29.17.28.45.29.19.29-.37.28.4.29.15.28-.04.29-.25.28.28.29 8.98.28.54.29-.04.28-5.89.29 5.55.28-.07.29.19.29-.17.28-.12.29-6.93.28 6.53.29-.17.28-.08.29-5.99.28-.69.29 5.97.28-.07.29-.21.28-.3.29-12.13.29 12.36.28-.31.29.02.28-.48.29-13.38.28 11.67.29-.73.28.43.29 1.37.28-6.28.29 6.28.28-.1.29.15.29-.22.28-7.98.29 7.54.28.01.29-.07.28-.3.29-6.14.28-.08.29 6.37.28-.36.29-.21.28-9.36.29 1.7.29 6.74.28-.21.29.32.28-.31.29-12.58.28 1.15.29.42.28.68.29.37.28-.44.29-.19.28.66.29.47.29-.11.28.34.29-.02.28.13.29.07.28.19.29.39.28.25.29-.06.28.11.29.62.28.13.29-.04.29-.29.28.44.29-.02.28.53.29-.31.28.14.29.38.28.12.29-.61.28.71.29.4.28.45.29-.36.29.49.28.25.29.01.28.04.29-.42.28.96.29.36.28.06.29-.4.28.08.29.49.28-.34.29-.28.29.85.28.41.29 2.86.28 5.93.29.15.28.06.29-.24.28-7.47.29 7.16.28-.21.29.22.28-.43.29-6.81.29 6.26.28.06.29-.87.28.27.29-13.38.28 13.09.29.21.28-.28.29-.27.28-12.42.29 11.67.28.48h.29l.29.1.28-6.2.29 6.04.28-.2.29-.16.28-.22.29-7.2.28 6.18.29.67.28-.06.29-.17.28.04.29-6 .29 5.9.28.14.29-.15.28-7.06.29-.56.28 6.96.29-.16h.28l.29.06.28-12.05.29 11.43.28.41.29-.16.29-12.88.28 1.52.29.56.28.24.29-.06.28.08.29.62.28-.18.29.52.28-.33.29.34.28.18.29.08.29-.17.28.17.29.13.28.49.29-.54.28.39.29.15.28.48.29-.11.28-.25.29.63.28.33.29-.59.29.4.28.5.29-.38.28.34.29-.04.28.48.29.38.28.17.29-.17.28.98.29.12.28-.24.29.12.29.56.28-.28.29.6.28-.87.29.75.28.12.29-.06.28-.17.29.7.28-.06.29.63.28 8.29.29-5.69.29 6.29.28-.28h.29l.28-.12.29-6.89.28 6.77.29.05.28-.39.29-.02.28-6.41.29 5.62.28-.25.29.06.29.03.28-6.3.29-1.18.28 7.03.29.01.28-.25.29-5.73.28-1.26.29 6.78.28-.17.29-.04.28-.44.29-6.78.29 6.93.28-.43.29.21.28.04.29-6.82.28 6.33.29-.03.28-.15.29.11.28-7.99.29 7.66.28.04.29-.3.29.17.28-13 .29 12.61.28.14.29-.02.28-.1.29-8.1.28 1.34.29 6.33.28-13.51.29 2.29.28.37.29.09.29-.51.28.7.29.45.28-.03.29-.11.28-.5.29.16.28.15.29-.27.28.95.29.36.28-.12.29.19.28.61.29.21.29-.06.28.19.29-.3.28.6.29-.14.28.01.29-.08.28.56.29-.31.28.1.29.08.28.79.29.21.29.08.28.1.29.69.28-.56.29.24.28.1.29-.07.28-.42.29-.46.28.93.29.34.28.09.29.23.29-.26.28.55.29.21.28.36.29-.05.28 8.47.29.83.28-5.64.29 5.91.28-.16.29-.08.28.08.29-.23.29-6.35.28 5.86.29.3.28-.42.29-7.01.28-1 .29 7.19.28.12.29.03.28-.44.29-12.24.28 12 .29.3.29.03.28-.46.29-14.21.28 13.75.29.16.28-.38.29-.18.28-6.57.29 6.38.28.15.29-.43.28.38.29-6.72.29 6.13.28.04.29.23.28-.18.29-6.39.28-.05.29 6.21.28-.15.29-.07.28-6.51.29-.25.28 6.2.29.2.29-.09.28-.15.29-12.7.28-.94.29 1.79.28.4.29-.24.28.85.29-.09.28.63.29.13.28-.19.29.75.29-.22.28-.5.29.41.28.47.29.05.28-.25.29.13.28 1.04.29-.16.28-.36.29-.38.28.63.29.17.29-.11.28.23.29.12.28.14.29.34.28-.45.29.18.28.45.29.41.28-.28.29.97.28-.15.29.52.29-.18.28.36.29.49.28.42.29-.13.28-.12.29-.05.28.24.29-.36.28.55.29.01.28.22.29-.11.29.17.28 8.6.29.53.28.34.29.13.28-6.7.29 6.53.28-.59.29.12.28-.09.29-7.78.28 7.03.29-.07.29-.21.28.22.29-12.53.28 12.03.29.14.28-.16.29-.24.28-5.98.29-.42.28 6.08.29-.05.28-.07.29-6.37.29 5.99.28.16.29-.33.28.27.29-.01.28-7.1.29 6.38.28.06.29-.13.28-.22.29-5.62.28 5.81.29-.27.29-.09.28-.23.29-13.06.28 12.99.29.11.28-.33.29.01.28-13.13.29 12.45.28.44.29-.59.28.29.29-12.54.29 1.22.28.13.29.15.28.73.29-.05.28-.13.29-.27.28.48.29-.03.28.11.29.11.28.65.29.38.29.24.28-.25.29.47.28.19.29-.14.28-.76.29.56.28.5.29.13.28-.45.29.04.28.39.29.28.29-.05.28.83.29.08.28.23.29-.02.28.72.29.04.28.03.29-.52.28.52.29.21.28.54.29-.41.29.65.28.37.29-.57.28-.38.29.28.28.38.29.21.28-.17.29.38.28.37.29 2.3.28 6.83.29.15.29-.17.28.09.29-7.24.28 6.3.29.56.28-.06.29-.66.28-6.01.29 5.69.28-.32.29-.02.28.31.29-8.52.29.76.28 7.27.29-.23.28-.07.29-6.18.28.27.29 5.7.28.03.29-.27.28-.44.29-7.23.28 7.29.29.07.29-.19.28-.17.29-6.14.28 6.17.29.04.28-.12.29-.18.28-6.92.29 6.79.28-.17.29-.01.28-.36.29-11.85.29 11.07.28.41.29-.12.28.09.29-5.87.28-.42.29 5.92.28.14.29-13.54.28 1.77.29.66.28-.09.29.78.29.24.28-.3.29.26.28-.42.29.49.28-.09.29.1.28.19.29.6.28.01.29.32.28-.03.29.19.29-.07.28-.24.29.56.28.09.29.03.28.13.29.36.28-.21.29-.15.28.75.29-.25.28.66.29-.45.29.47.28.32.29.16.28-.23.29.95.28.15.29.43.28-.14.29-.15.28.67.29-.36.28.09.29.1.29-.03.28-.07.29.33.28-.09.29.62.28.02.29 8.45.28-5.69.29 6.26.28.19.29-.37.28.4.29-.51.29-6.2.28 6.05.29-.4.28-.16.29-.09.28-7.11.29 6.68.28.19.29-.04.28-.47.29-13.15.28 12.86.29-.22.29.21.28.08.29-12.23.28 11.39.29.47.28-.24.29.13.28-6.48.29 6 .28-.14.29-.11.28.23.29-5.73.29 5.87.28-.05.29-.16.28-.32.29-5.84.28-1.54.29 7.1.28-.13.29-.09.28-6.06.29-.25.28 6.32.29-.59.29.32.28-.14.29-13.62.28 12.82.29-13.75.28 1.68.29 1.09.28.66.29.38.28-.18.29.64.28-.21.29.23.29-.28.28.73.29.06.28.22.29-.39.28.68.29.26.28.18.29-.34.28.38.29-.2.28.83.29-.57.29.38.28-.13.29.4.28-.33.29.39.28.38.29.07.28-.23.29.9.28.4.29-.75.28.18.29-.01.29.45.28.32.29-.13.28-.18.29.76.28-.4.29.06.28.17.29-.01.28.32.29.01.28-.54.29 1.32.29-.45.28.38.29 8.91.28.12.29.58.28-6.84.29 6.59.28-.09.29.01.28-.31.29-8.38.28 7.74.29-.02.29-.12.28-.26.29-12.76.28 12.66.29-.06.28-.09.29-.17.28-7.29.29.5.28 6.25.29.15.28-.15.29-6.79.29-6 .28 7.79.29 1.54.28 1.95.29.18.28-6.09.29 5.87.28-.21.29.05.28-.19.29-6.44.28 6.77.29-.23.29-.07.28.35.29-12.76.28 12.53.29-.42.28.2.29.02.28-13.07.29 12.65.28.09.29-.02.28-.43.29-6.47"/><use xlink:href="#g" transform="matrix(4.5 0 0 4.5 321.91 138.54)"/><use xlink:href="#g" transform="matrix(4.5 0 0 4.5 100.32 7.51)"/></g><text fill="#000" stroke="none" stroke-linecap="round" stroke-linejoin="round" color="#000" font-family="Arial" font-size="8" transform="translate(225.82 10.11)"><tspan>AVLTopDown</tspan></text><g fill="none" stroke="currentColor" stroke-linecap="round" stroke-linejoin="round" color="#000"><path stroke="#29C3F6" stroke-dasharray="1.0,2.0" d="M188.82 7.51h31.4M41.95 143.37l.29 11.24.28-.54.29-.73.28-.24.29-6.13.28 5.15.29-.64.28-.62.29-.64.28-5.59.29 5.4.28-.37.29-.24.29-.69.28-6.28.29 5.82.28-.39.29.08.28-.35.29-6.28.28-.74.29 6.39.28-.63.29-.9.28-6.15.29-.64.29 6.07.28-.1.29-.62.28.61.29-6.62.28 5.96.29-.64.28.11.29-.06.28-6.26.29 5.59.28.41.29-.47.29-.69.28-5.85.29 5.6.28.04.29-.17.28-.28.29-10.96.28 10.44.29.19.28-.02.29-.55.28-11.08.29 11.28.29-.19.28.02.29.1.28-7.24.29 5.34.28-.11.29-.12.28-.16.29-5.5.28 5.64.29-.17.28-.21.29-.35.29-6 .28.74.29 5.48.28.06.29-.35.28-5.42.29-1.63.28 6.33.29-.23.28.13.29.13.28-12.38.29 11.44.29.28.28-.36.29.44.28-5.9.29 6.08.28-.18.29-.28.28-.17.29-5.59.28 5.32.29.04.28.01.29-7.54.29 2.03.28.75.29-.28.28.68.29.27.28.05.29-.01.28.01.29-.12.28.37.29-.09.28-.25.29.54.29-.28.28-.13.29.16.28-.02.29.48.28-.06.29.1.28.51.29-.05.28-.07.29-.43.28.32.29-.08.29.21.28-.14.29.14.28.15.29-.12.28.1.29.3.28.37.29.4.28-.55.29.74.28.19.29.11.29-.39.28.37.29-.32.28-.91.29-2.08.28.22.29-4.91.28-2.09.29.14.28-7.48.29 7.68.28-4.54.29 15.65.29 1.56.28 1.49.29.3.28-5.21.29-1.07.28 6.6.29.23.28.09.29-5.61.28-2.2.29 7.7.28-.54.29-1.37.29.2.28-5.8.29 5.37.28-.05.29-.42.28.56.29-7.21.28 6.52.29.21.28-.2.29-.2.28-11.13.29 11.12.29-.3.28.06.29-.22.28-12.35.29 12.33.28-.03.29-.14.28-.37.29-5.6.28 5.76h.29l.28-.11.29-.13.29-5.98.28 5.73.29-.28.28.58.29-.01.28-.62.29-5.96.28 5.75.29-8.56.28 1.19.29-.31.28.4.29.28.29.19.28-.1.29.07.28.76.29.6.28.04.29-.33.28.27.29-.26.28.06.29.07.28.61.29.31.29.48.28-.07.29.67.28-.22.29.18.28-.71.29.1.28.17.29.65.28-.35.29.16.28.35.29-.12.29-.08.28.97.29.17.28.43.29-.52.28.37.29.62.28-.38.29.26.28-.15.29.34.28.75.29-.26.29-.07.28.58.29.05.28-.12.29-.26.28.37.29 3.28.28 2.21.29-5.7.28.7.29 5.62.28.06.29-.17.29-.43.28-13.57.29 13.6.28-.39.29-.01.28.39.29-7.67.28 5.66.29.3.28-.35.29.08.28-6.89.29 6.34.29.43.28-.6.29.13.28-5.93.29 5.93.28-.07.29-.1.28-.16.29-6.97.28-.58.29 7.2.28-.32.29.1.29-5.81.28-.17.29 5.36.28.38.29-.28.28.21.29-7.19.28 6.9.29.36.28-.71.29.45.28-6.58.29 6.33.29-.6.28.1.29.14.28-6.27.29-3.43.28 1.54.29-.16.28.94.29.1.28-.3.29-.02.28-.15.29 1.26.29.18.28-.13.29.22.28-.11.29.03.28-.23.29.59.28.15.29.3.28-.25.29.56.28.11.29.46.29-.63.28.38.29.02.28.46.29-.47.28.43.29.21.28.16.29-.39.28.67.29-.28.28.67.29.19.29.23.28.44.29-.31.28.21.29-.17.28.67.29.53.28-.28.29-.04.28.19.29.14.28-.2.29-.22.29.51.28.49.29 3.12.28 2.51.29.64.28.23.29-13.06.28 12.56.29-.18.28.29.29-.48.28-6.45.29.39.29 6.28.28-.72.29-1.92.28-6.11.29 6.6.28-.41.29.02.28-.02.29.11.28-6.06.29 5.26.28.23.29.39.29-.21.28-7.89.29 7.48.28.2.29-.06.28-.56.29-11.23.28 11.48.29.1.28-.24.29-.52.28-13.34.29 13.81.29-.43.28.1.29-.02.28-6.32.29 6.32.28-.26.29-.32h.28l.29-6.7.28 6.21.29.1.28.14.29-.58.29-9.94.28 1.47.29.82.28.15.29.03.28-.24.29.57.28.18.29-.02.28-.06.29.43.28.31.29-.04.29.05.28-.01.29.28.28.32.29-.29.28.56.29.65.28-.14.29-.23.28.16.29.24.28.02.29.36.29-.48.28.41.29-.23.28-.1.29.61.28.44.29.39.28.05.29-.05.28.83h.29l.28-.11.29-.31.29.83.28.14.29.42.28-.46.29.16.28.13.29-.45.28-.24.29 1.12.28.28.29-.07.28-9 .29 14.52.29 1.63.28-.37.29.02.28-5.35.29-.86.28 5.86.29-.17.28-.07.29-7.14.28-2.11.29 7.73.28-.42.29.3.29-.47.28-6.24.29 6.06.28.09.29.12.28-.41.29-6.25.28 5.98.29.23.28-.24.29-.2.28-12.16.29 12.55.29-.54.28.05.29-.06.28-12.36.29 12.02.28.02.29-.14.28.55.29-6.57.28-.96.29 6.89.28-.31.29-.08.29-6.02.28 5.54.29.42.28-.13.29-.68.28.07.29-6.4.28 6.07.29-.17.28-10.37.29 2.41.28.25.29-.22.29-.09.28.88.29.28.28.02.29-.26.28.07.29.3.28.1.29-.2.28.61.29.36.28-.15.29.02.28.57.29.45.29-.58.28.47.29-.04.28.17.29.29.28-.08.29-.49.28.67.29-.19.28.14.29-.07.28.98.29.38.29-.25.28.33.29.75.28-.36.29-.03.28-.21.29.01.28.96.29-.3.28.03.29.37.28-.13.29.55.29-.52.28.34.29.06.28.46.29-.09.28 4.41.29-3.36.28-.51.29 6.67.28-.06.29-.15.28.01.29-12.85.29 12.53.28.03.29-.16.28-1.46.29-6.75.28 6.87.29-.63.28.02.29-.11.28-6.66.29 6.62.28-.46.29.22.29-.03.28-6.48.29 5.72.28.13.29-.01.28.11.29-6.25.28-.18.29 6.24.28-.07.29-.2.28-6.21.29-1.77.29 7.76.28-.11.29-.3.28-.26.29-5.9.28 6.29.29-.08.28-.05.29-.07.28-7.41.29 6.25.28.46.29.04.29-.26.28-6.11.29 5.99.28-10.63.29 1.46.28.49.29-.27.28.49.29.32.28.3.29.83.28-.01.29.35.29-.04.28-.38.29.59.28.14.29.42.28-.21.29-.02.28 1.14.29-.58.28-.2.29-.29.28.47.29.25.29-.06.28.2.29.12.28.19.29.26.28.03.29.39.28.25.29.14.28.14.29.53.28.1.29.33.29-.48.28.13.29.87.28.11.29-.15.28.26.29.05.28.08.29-.49.28.54.29-.09.28.36.29-.11.29.13.28 4.34.29 2.17.28.65.29-13.75.28 13.5.29.19.28-.3.29-.1.28-5.75.29.17.28 4.41.29-.28.29.04.28-7.24.29 6.46.28-.15.29.3.28-.08.29-.24.28-6.16.29 6.02.28.05.29-.37.28-.14.29-6.27.29 6.36.28-.42.29.41.28-.88.29-11.77.28 12.03.29-.36.28-.15.29.47.28-12.16.29 12.05.28-.16.29-.03.29-.19.28-6.16.29 5.82.28.33.29-.26.28-.7.29-6.14.28 6.12h.29l.28-.16.29.13.28-.06.29-10.43.29 1.77.28-.15.29.56.28.32.29.34.28.05.29-.4.28.57.29-.13.28-.15.29.52.28.38.29.48.29.26.28-.06.29.37.28-.17.29.16.28-.57.29.52.28.2.29.21.28-.38.29.68.28-.13.29-.04.29.29.28.58.29.28.28.25.29-.16.28.35.29.31.28-.08.29-.26.28.44.29.18.28.54.29.01.29-.33.28.46.29.05.28-.44.29.5.28-.2.29-.14.28-.02.29.34.28.62.29-3.66.28 9.85.29.9.29-.2.28-6.23.29-.69.28 6.81.29-.11.28-.21.29-.41.28-15.98.29 14.24.28.56.29-.4.28.13.29-6.32.29 6.27.28-.06.29.01.28-.41.29-6.33.28 6.14.29-.08.28.06.29-.27.28-13.3.29 12.42.28.6.29-.06.29.12.28-12.62.29 11.79.28.38h.29l.28-.25.29-6.76.28-1.28.29 7.3.28.41.29-.33.28-5.93.29 5.87.29-.92.28.49.29-.32.28.29.29-6.41.28 6.32.29.03.28-.29.29-9.97.28 1.44.29.57.28.06.29.04.29.06.28.23.29-.02.28.28.29-.19.28.12.29.66.28.06.29.76.28-.38.29.72.28.09.29-.38.29.41.28.17.29-.06.28.11.29.06.28.2.29-.12.28.01.29-.5.28 1.17.29-.19.28.41.29-.32.29.5.28.33.29.13.28-.23.29 1.01.28.21.29.49.28-.21.29-.09.28.61.29-.08.28-.01.29-.08.29.14.28-.25.29-.04.28-.15.29.84.28-.46.29-1.95.28 2.69.29 6.44.28.62.29-.3.28.37.29-13.02.29 12.22.28-.34.29-1.14.28-.28.29-11.47.28 11.41.29.3.28-.41.29.16.28-6.41.29 6.03.28-.45.29.44.29-.04.28-5.95.29 5.61.28-.12.29-.01.28-.42.29-6.13.28.87.29 5.34.28-.66.29.2.28-5.7.29-1.37.29 7.06.28-.21.29.09.28-.35.29-6.1.28 6.32.29-.28.28-.25.29-.58.28-6.58.29 6.83.28-.13.29-.1.29.15.28-6.18.29 6.4.28-.68.29-10.86.28 2.05.29.87.28.15.29.77.28-.39.29.58.28.1.29-.04.29-.14.28.7.29-.23.28.61.29-.09.28.34.29.07.28.19.29-.16.28.28.29.05.28.61.29-.46.29.18.28.21.29.16.28-.17.29.2.28.48.29.37.28-.22.29.25.28.58.29-.37.28.1.29.07.29.29.28-.01.29.34.28.09.29.18.28-.12.29-.07.28.01.29.31.28-.02.29.46.28-.09.29.46.29-.52.28.31.29 4.11.28 2.39.29-12.93.28 13.58.29.28.28-1.12.29.93.28-6.49.29-3.09.28 7.28.29.43.29-.05.28-5.65.29 5.32.28.3.29-.56.28.33.29-.57.28-6.67.29 6.08.28.28.29-.42.28.19.29-7.46.29 6.69.28.5.29.22.28.06.29-16.04.28 14.64.29.49.28-.49.29.2.28-12.34.29 12.56.28-.08.29-.03.29-.07.28-7.04.29 6.81.28-.45.29.25.28-.1.29-5.8.28 5.8.29-.2.28-.19.29.25.28-.42.29-6.3"/><use xlink:href="#h" color="#29C3F6" transform="matrix(4.5 0 0 4.5 86.47 137.7)"/><use xlink:href="#h" color="#29C3F6" transform="matrix(4.5 0 0 4.5 204.52 7.51)"/></g><path fill="none" stroke="none" stroke-linecap="round" stroke-linejoin="round" stroke-width="0" d="M41.95 110v52.01M324.48 110H41.95" color="#000"/><text fill="#000" stroke="none" stroke-linecap="round" stroke-linejoin="round" stroke-width="0" color="#000" font-family="Arial" font-size="8" text-anchor="middle" transform="translate(183.21 91.6)"><tspan font-weight="bold">InsertDeleteCycles</tspan></text></svg>