<svg xmlns="http://www.w3.org/2000/svg" xmlns:xlink="http://www.w3.org/1999/xlink" viewBox="0 0 400 250"><path fill="none" d="M0 0h400v250H0z"/><defs><path id="g" stroke="currentColor" stroke-width=".267" d="M-1 0h2M0-1v2"/><path id="h" stroke="currentColor" stroke-width=".267" d="M-1 0h2M0-1v2m-1-2 2 2m-2 0 2-2"/><path id="d" stroke="currentColor" stroke-width=".267" d="M-1-1h2v2h-2z"/><path id="i" fill="currentColor" stroke="currentColor" stroke-width=".267" d="M-1-1h2v2h-2z"/><path id="b" stroke="currentColor" stroke-width=".267" d="m0-1.33-1.33 2h2.66z"/><path id="f" stroke="currentColor" stroke-width=".267" d="M0 1.33 1.265.411.782-1.067l-1.564-.009-.483 1.487z"/><use xlink:href="#b" id="c" stroke="currentColor" transform="rotate(180)"/><use xlink:href="#d" id="e" stroke="currentColor" transform="rotate(45)"/><circle id="a" cx="0" cy="0" r="1" stroke="currentColor" stroke-width=".267"/></defs><path fill="none" stroke="#000" stroke-linecap="round" stroke-linejoin="round" stroke-width=".1" d="M35.48 205V45.01" class="gridline" color="#000"/><g fill="none" stroke="none" stroke-linecap="round" stroke-linejoin="round" stroke-width="0" color="#000"><path d="M35.48 205v-7.5m0-152.49v7.5"/><text fill="#000" font-family="KaTeX_Main" font-size="10" text-anchor="middle" transform="translate(35.48 215.75)"><tspan> 1</tspan></text></g><path fill="none" stroke="#000" stroke-linecap="round" stroke-linejoin="round" stroke-width=".1" d="M72.87 205V45.01" class="gridline" color="#000"/><g fill="none" stroke="none" stroke-linecap="round" stroke-linejoin="round" stroke-width="0" color="#000"><path d="M72.87 205v-7.5m0-152.49v7.5"/><text fill="#000" font-family="KaTeX_Main" font-size="10" text-anchor="middle" transform="translate(72.87 215.75)"><tspan> 2</tspan></text></g><path fill="none" stroke="#000" stroke-linecap="round" stroke-linejoin="round" stroke-width=".1" d="M110.26 205V45.01" class="gridline" color="#000"/><g fill="none" stroke="none" stroke-linecap="round" stroke-linejoin="round" stroke-width="0" color="#000"><path d="M110.26 205v-7.5m0-152.49v7.5"/><text fill="#000" font-family="KaTeX_Main" font-size="10" text-anchor="middle" transform="translate(110.26 215.75)"><tspan> 3</tspan></text></g><path fill="none" stroke="#000" stroke-linecap="round" stroke-linejoin="round" stroke-width=".1" d="M147.65 205V45.01" class="gridline" color="#000"/><g fill="none" stroke="none" stroke-linecap="round" stroke-linejoin="round" stroke-width="0" color="#000"><path d="M147.65 205v-7.5m0-152.49v7.5"/><text fill="#000" font-family="KaTeX_Main" font-size="10" text-anchor="middle" transform="translate(147.65 215.75)"><tspan> 4</tspan></text></g><path fill="none" stroke="#000" stroke-linecap="round" stroke-linejoin="round" stroke-width=".1" d="M185.04 205V45.01" class="gridline" color="#000"/><g fill="none" stroke="none" stroke-linecap="round" stroke-linejoin="round" stroke-width="0" color="#000"><path d="M185.04 205v-7.5m0-152.49v7.5"/><text fill="#000" font-family="KaTeX_Main" font-size="10" text-anchor="middle" transform="translate(185.04 215.75)"><tspan> 5</tspan></text></g><path fill="none" stroke="#000" stroke-linecap="round" stroke-linejoin="round" stroke-width=".1" d="M222.43 205V45.01" class="gridline" color="#000"/><g fill="none" stroke="none" stroke-linecap="round" stroke-linejoin="round" stroke-width="0" color="#000"><path d="M222.43 205v-7.5m0-152.49v7.5"/><text fill="#000" font-family="KaTeX_Main" font-size="10" text-anchor="middle" transform="translate(222.43 215.75)"><tspan> 6</tspan></text></g><path fill="none" stroke="#000" stroke-linecap="round" stroke-linejoin="round" stroke-width=".1" d="M259.82 205V45.01" class="gridline" color="#000"/><g fill="none" stroke="none" stroke-linecap="round" stroke-linejoin="round" stroke-width="0" color="#000"><path d="M259.82 205v-7.5m0-152.49v7.5"/><text fill="#000" font-family="KaTeX_Main" font-size="10" text-anchor="middle" transform="translate(259.82 215.75)"><tspan> 7</tspan></text></g><path fill="none" stroke="#000" stroke-linecap="round" stroke-linejoin="round" stroke-width=".1" d="M297.21 205V45.01" class="gridline" color="#000"/><g fill="none" stroke="none" stroke-linecap="round" stroke-linejoin="round" stroke-width="0" color="#000"><path d="M297.21 205v-7.5m0-152.49v7.5"/><text fill="#000" font-family="KaTeX_Main" font-size="10" text-anchor="middle" transform="translate(297.21 215.75)"><tspan> 8</tspan></text></g><path fill="none" stroke="#000" stroke-linecap="round" stroke-linejoin="round" stroke-width=".1" d="M334.6 205V45.01" class="gridline" color="#000"/><g fill="none" stroke="none" stroke-linecap="round" stroke-linejoin="round" stroke-width="0" color="#000"><path d="M334.6 205v-7.5m0-152.49v7.5"/><text fill="#000" font-family="KaTeX_Main" font-size="10" text-anchor="middle" transform="translate(334.6 215.75)"><tspan> 9</tspan></text></g><path fill="none" stroke="#000" stroke-linecap="round" stroke-linejoin="round" stroke-width=".1" d="M371.99 205V45.01" class="gridline" color="#000"/><g fill="none" stroke="none" stroke-linecap="round" stroke-linejoin="round" stroke-width="0" color="#000"><path d="M371.99 205v-7.5m0-152.49v7.5"/><text fill="#000" font-family="KaTeX_Main" font-size="10" text-anchor="middle" transform="translate(371.99 215.75)"><tspan> 10</tspan></text></g><g fill="none" stroke="none" stroke-linecap="round" stroke-linejoin="round" stroke-width="0" color="#000"><path d="M371.99 205h-7.5"/><text fill="#000" font-family="KaTeX_Main" font-size="10" transform="translate(378.99 208.25)"><tspan>0.30</tspan></text></g><g fill="none" stroke="none" stroke-linecap="round" stroke-linejoin="round" stroke-width="0" color="#000"><path d="M371.99 187.22h-7.5"/><text fill="#000" font-family="KaTeX_Main" font-size="10" transform="translate(378.99 190.47)"><tspan>0.35</tspan></text></g><g fill="none" stroke="none" stroke-linecap="round" stroke-linejoin="round" stroke-width="0" color="#000"><path d="M371.99 169.45h-7.5"/><text fill="#000" font-family="KaTeX_Main" font-size="10" transform="translate(378.99 172.7)"><tspan>0.40</tspan></text></g><g fill="none" stroke="none" stroke-linecap="round" stroke-linejoin="round" stroke-width="0" color="#000"><path d="M371.99 151.67h-7.5"/><text fill="#000" font-family="KaTeX_Main" font-size="10" transform="translate(378.99 154.92)"><tspan>0.45</tspan></text></g><g fill="none" stroke="none" stroke-linecap="round" stroke-linejoin="round" stroke-width="0" color="#000"><path d="M371.99 133.89h-7.5"/><text fill="#000" font-family="KaTeX_Main" font-size="10" transform="translate(378.99 137.14)"><tspan>0.50</tspan></text></g><g fill="none" stroke="none" stroke-linecap="round" stroke-linejoin="round" stroke-width="0" color="#000"><path d="M371.99 116.12h-7.5"/><text fill="#000" font-family="KaTeX_Main" font-size="10" transform="translate(378.99 119.37)"><tspan>0.55</tspan></text></g><g fill="none" stroke="none" stroke-linecap="round" stroke-linejoin="round" stroke-width="0" color="#000"><path d="M371.99 98.34h-7.5"/><text fill="#000" font-family="KaTeX_Main" font-size="10" transform="translate(378.99 101.59)"><tspan>0.60</tspan></text></g><g fill="none" stroke="none" stroke-linecap="round" stroke-linejoin="round" stroke-width="0" color="#000"><path d="M371.99 80.56h-7.5"/><text fill="#000" font-family="KaTeX_Main" font-size="10" transform="translate(378.99 83.81)"><tspan>0.65</tspan></text></g><g fill="none" stroke="none" stroke-linecap="round" stroke-linejoin="round" stroke-width="0" color="#000"><path d="M371.99 62.79h-7.5"/><text fill="#000" font-family="KaTeX_Main" font-size="10" transform="translate(378.99 66.04)"><tspan>0.70</tspan></text></g><g fill="none" stroke="none" stroke-linecap="round" stroke-linejoin="round" stroke-width="0" color="#000"><path d="M371.99 45.01h-7.5"/><text fill="#000" font-family="KaTeX_Main" font-size="10" transform="translate(378.99 48.26)"><tspan>0.75</tspan></text></g><path fill="none" stroke="none" stroke-linecap="round" stroke-linejoin="round" stroke-width="0" d="M28 45.01V205M371.99 45.01H28" color="#000"/><text fill="#000" stroke="none" stroke-linecap="round" stroke-linejoin="round" stroke-width="0" color="#000" font-family="KaTeX_Main" font-size="10" text-anchor="middle" transform="rotate(-90 68.255 56.755)"><tspan font-weight="bold">Duration </tspan><tspan> in milliseconds</tspan></text><text fill="#000" stroke="none" stroke-linecap="round" stroke-linejoin="round" stroke-width="0" color="#000" font-family="KaTeX_Main" font-size="10" text-anchor="middle" transform="translate(199.99 238.25)"><tspan>Operations / 10</tspan><tspan dy="-5" font-size="8">6</tspan></text><text fill="#000" stroke="none" stroke-linecap="round" stroke-linejoin="round" color="#000" font-family="KaTeX_Main" font-size="8" transform="translate(76.8 10.11)"><tspan>AVLBottomUp</tspan></text><g fill="none" stroke="currentColor" stroke-linecap="round" stroke-linejoin="round" color="#000"><path stroke="#000" d="M41.3 7.51h29.9M28 201.07l.37.17.38-.16.37-.39.38-.4.37-.65.37.01.38-.03.37-1 .38.47.37-1.36.37.19.38.11.37.09.37-.04.38-.9.37-.65.38-.12.37.02.37-.13.38-.33.37-.26.38-.65.37-.21.37-.38.38.01.37.22.38-.73.37-33.64.37 31.33.38.97.37.09.37.17.38-.34.37-1.1.38.67.37-.82.37-32.72.38 31.71.37.85.38-.79.37.44.37-.05.38-.52.37.13.38-.16.37-.46.37-.03.38-.32.37-.05.38.03.37-.53.37-.23.38-.62.37.37.37-.14.38-.32.37-1.84.38-29.99.37 29.95.37.96.38.08.37-.33.38-.86.37.54.37-.11.38-.21.37-33.57.38 33.05.37-.25.37-.21.38.19.37-.2.37.07.38-.9.37-.78.38 1.07.37-.7.37-.08.38-.34.37.24.38-.27.37-.65.37.21.38-.14.37.04.38-.85.37.08.37-.01.38-.29.37.16.38-.1.37-.16.37-.2.38.07.37-.33.37-32.86.38 31.8.37.21.38-.39.37.9.37-.9.38.68.37-.29.38-.45.37-32.74.37 31.88.38.61.37.16.38-.86.37.35.37-.11.38.05.37-.19.37-.62.38.31.37.28.38-1.26.37.23.37.45.38-.59.37-.05.38.12.37.14.37-.41.38-.26.37.11.38-.29.37-.28.37.19.38-.34.37-.17.38.27.37.09.37-.68.38-33.13.37 32.6.37.39.38-.01.37-.46.38-.46.37-.01.37-.04.38-.2.37-33.42.38 33.02.37.66.37-.86.38.17.37.33.38-.52.37-.32.37.29.38-.38.37.3.37-.1.38-.25.37-.03.38.08.37-.26.37-.47.38.17.37-.82.38.7.37-31.22.37 29.6.38 1.58.37-1.01.38.09.37.15.37-.38.38.44.37-.17.38-33.3.37 31.33.37 1.61.38-.24.37-.55.37.33.38-.2.37-.2.38.1.37-.33.37-.32.38-.02.37.44.38-.33.37-.26.37.79.38-.97.37-.23.38-.22.37.11.37.12.38.07.37-.04.37-.12.38-.16.37-.13.38-.36.37.61.37-.72.38-.92.37-33.71.38 33.45.37.4.37-.49.38.62.37-.22.38.23.37-.53.37.04.38-33.58.37 33.13.38.36.37.2.37-.34.38-.18.37.42.37-.28.38.01.37.08.38-.03.37.21.37-.54.38.49.37-.32.38-.27.37.23.37.23.38-.6.37-.52.38-30.41.37 29.13.37 1.16.38.47.37-.34.37-.85.38.66.37-.2.38.16.37-32.37.37 30.56.38 1.18.37.1.38-.61.37-.2.37.19.38-.07.37.74.38-.32.37-.27.37-.01.38.14.37.17.38-.02.37-.23.37.45.38-.78.37.22.37-.28.38.18.37-.41.38.3.37-.23.37-.12.38-.06.37.21.38-.11.37-.41.37.6.38-35.18.37 33.4.38.43.37-.23.37-.03.38.13.37-.14.37.01.38.4.37-33.66.38 32.9.37-.68.37.94.38.13.37-.32.38-.02.37-.21.37.16.38.18.37-.08.38-.48.37.69.37-.61.38.25.37-.96.38.91.37-.21.37.25.38-.01.37-.33.37-.49.38.72.37-.03.38-.51.37-.47.37.64.38-.02.37-.19.38.26.37-36.07.37 34.09.38.27.37.18.38-.32.37.59.37-.47.38.73h.37l.37-37.09.38 35.55.37-.08.38-.2.37-.41.37.86.38.17.37-.12.38.32.37.32.37-.4.38-.2.37-.52.38.4.37-1.04.37.31.38.31.37.36.38-.7.37-.04.37-34.14.38 31.5.37.51.37-.17.38.48.37.46.38.36.37-.17.37.36.38-36.37.37 33.74.38.86.37.14.37-.09.38.49.37-.01.38.27.37.67.37-.64.38.71.37-.23.37-.2.38.16.37-.07.38-.19.37.2.37.28.38-.43.37.53.38-.2.37-.09.37-.38.38-.1.37.51.38-.25.37.02.37.22.38-.11.37.27.38-38.85.37 35.44h.37l.38 1.13.37-.43.37.43.38.16.37-.28.38.49.37-39.38.37 35.87.38.8.37.71.38-.19.37.6.37-.34.38.12.37.29.38.54.37.1.37.04.38-.12.37-.23.37.3.38.31.37-1 .38.76.37-.11.37-.08.38-34.18.37 30.2.38 1.27.37.48.37.41.38-.24.37-.03.38.15.37.13.37-35.93.38 32.05.37 1.36.38.94.37-.81.37-.15.38 1 .37.25.37-.68.38.59.37.35.38.34.37.06.37-.55.38-.06.37.93.38-.11.37-.18.37.11.38-1.52.37 1.56.38-.8.37.43.37-1.34.38 1.26.37-.15.37.09.38-.2.37-.17.38-.09.37-38.38.37 35.56.38-.85.37 1.47.38.32.37-.32.37-.41.38.23.37.22.38-39.15.37 35.39.37 1.37.38.46.37-.29.38.12.37-.62.37.1.38 1.01.37-.51.37-.55.38.32.37.75.38.18.37-.02.37-.27.38.48.37-1.33.38-1.49.37-1.2.37.77.38-.73.37 1.44.38-.28.37-.98.37 1.25.38-.29.37.01.37-.88.38-33.88.37 31.16.38 1.08.37-.14.37.69.38.45.37-.42.38-.43.37-.05.37-34.76.38 30.93.37 1.41.38 1.57.37-.15.37.05.38-.81.37.91.37-.12.38-.03.37.36.38.17.37-.12.37.33.38-.66.37-.08.38.25.37.51.37-.34.38-.23.37.4.38-36.61.37 33.17.37.02.38.35.37.33.38.37.37-.72.37-.05.38.88.37-38.08.37 34.65.38.59.37.78.38.15.37.07.37-.17.38.18.37.38.38.07.37-1.03.37-.15.38.52.37.56.38-.69.37.51.37-.19.38.1.37-.26.37.39.38-.16.37-.29.38-.86.37.48.37.45.38-.63.37-.54.38-.18.37.72.37-34.12.38 30.49.37.1.38.63.37-.22.37-1.58.38 1.16.37.23.38.09.37-34.29.37 29.52.38 1.1.37 1.69.37-.01.38-1.11.37 1.19.38-.94.37.71.37-.13.38-.51.37 1.03.38-.75.37-.55.37 1.07.38-.23.37-.67.38-.38.37.79.37-.39.38-.26.37-35.67.37 33.49.38-.15.37-.28.38-.29.37.59.37-.02.38.24.37-.76.38-35.71.37 34.06.37.23.38.65.37.1.38.35.37-.27.37-.58.38.83.37-.25.38.34.37.44.37-1.12.38.48.37-1.37.37.31.38 1.17.37.55.38-1.57.37.33.37.01.38 1.18.37-1.09.38.64.37-.73.37.58.38-1.19.37 1.8.38-1.23.37.26.37-37.91.38 36.07.37.9.37-.23.38-2.01.37 1.52.38.62.37-.1.37-1.05.38-37.17.37 35.75.38-.63.37 1.34.37-.62.38 1.14.37-1.02.38.1.37.7.37-2.09.38 1.43.37.24.38-1.03.37.98.37-.17.38.4.37-.53.37-1.11.38 1.52.37-.65.38.64.37-.02.37-.13.38-.73.37-1 .38-.38.37 1.58.37-.99.38.13.37-37.5.38 34.78.37.57.37-.19.38.04.37-.26.37 1.04.38.45.37.16.38-36.19.37 33.47.37.14.38.3.37.14.38-.25.37-.16.37.05.38.66.37-1.07.38.1.37.53.37-.29.38.1.37.85.38.31.37-1.08.37-.36.38-.57.37-.1.37.18.38-37.18.37 35.31.38.04.37.19.37.41.38-.41.37 1.22.38-.1.37.03.37-38.84.38 35.57.37.58.38 2.05.37-.46.37-.35.38.4.37-.14.37.18.38-.23.37.65.38.45.37-.29.37-1.87.38 2.07.37-.78.38 1.44.37-.09.37-1.31.38 1.25.37-.54.38-.22.37 1.07.37-1.38.38.71.37.62.38-1.02.37-.07.37.76.38-37.34.37 34.23.37.69.38-.26.37 1.96.38.08.37-1.82.37.66.38 1.05.37-38.05.38 35.1.37.18.37.77.38-.8.37-.03.38 1.55.37-.05.37.57.38-1.6.37-.49.37-.41.38 1.28.37.31.38-.75.37 1.45.37-.09.38-.12.37.23.38.85.37-1.16.37-36.08.38 34.53.37-.22.38.33.37 1.19.37.25.38-2.4.37 1.95.38-.23.37-37.27.37 34.86.38-.83.37 1.96.37-.19.38-.62.37 1.12.38 1.35.37-2.13.37 1.42.38.01h.37l.38.14.37-.23.37.03.38-.36.37-.01.38.41.37-.07.37-1.52.38-.2.37.07.37.48.38.41.37.92.38-1.06.37.21.37.38.38-.22.37-35.5.38 31.96.37 2 .37.5.38-.52.37-.11.38.95.37-1.78.37 1.01.38-36.78.37 34.57.38.69.37-.32.37.88.38.93.37-.77.37-.15.38 1.13.37.31.38.17.37-.52.37-.1.38.67.37-1.9.38 1.23.37.1.37-.15.38.51.37.42.38-.42.37-.66.37 1.16.38-.44.37.89.37-.71.38-.26.37.74.38.18.37-.47.37-38.37.38 35.82.37.34.38.65.37.87.37-.47.38.05.37.1.38.04.37-37.67.37 34.65.38 1.26.37-.3.38.92.37.08.37.1.38-.09.37-.53.37 1.11.38-1.01.37-.63.38-1.22.37 3.01.37-1.14.38.8.37.72.38-1.2.37.66.37-.85.38-34.54.37 31.4.38 1.78.37.29.37.21.38.42.37-.34.37.15.38-.35.37-35.17.38 33.1.37.8.37 1.48.38-2.56.37.53.38 1.47.37-1.5.37 1.47.38-.38.37.13.38.02.37-.79.37.47.38-1.11.37-.57.38 1.52.37-1.08.37.44.38-.2.37 1.54.37-2.87.38 1.09.37 1.57.38.16.37-.43.37.02.38.02.37-1.3.38.28.37-35.95.37 34.35.38-.05.37 1.01.38.32.37-.2.37-.09.38-.46.37.23.37-37.98.38 35.33.37 1.15.38.12.37.35.37.21.38.57.37-.79.38-1.06.37 1.17"/><use xlink:href="#g" transform="matrix(3.75 0 0 3.75 342.45 114.09)"/><use xlink:href="#g" transform="matrix(3.75 0 0 3.75 56.25 7.51)"/></g><text fill="#000" stroke="none" stroke-linecap="round" stroke-linejoin="round" color="#000" font-family="KaTeX_Main" font-size="8" transform="translate(76.8 25.11)"><tspan>AVLWeakTopDown</tspan></text><g fill="none" stroke="currentColor" stroke-linecap="round" stroke-linejoin="round" color="#000"><path stroke="#00C853" stroke-dasharray="4.5,2.0,0.5,2.0,0.5,2.0" d="M41.3 22.51h29.9M28 191.86l.37-34.75.38 33.49.37 1.23.38-.81.37 1.97.37-2.59.38.61.37-1.22.38-.81.37-1.2.37 1.87.38.42.37-.36.37-1.35.38-2.16.37-2.48.38 2.46.37.69.37-1.32.38-.94.37-1.68.38-29.68.37 31.85.37-.45.38-2.11.37 2.65.38-.5.37.36.37-.8.38.12.37-32.27.37 32.61.38-2.06.37 1.79.38 1.49.37-4.23.37.37.38 1.23.37-.39.38.74.37-1.44.37-.9.38.29.37-1.34.38 1.59.37-1.37.37-.03.38 1.89.37.2.38-2.1.37-2.01.37 1.97.38.04.37-.34.37 1.56.38-.79.37-.95.38-2.1.37-.01.37-29.74.38 30.48.37-1.4.38.29.37-1.11.37 2.06.38-.38.37-.01.38.15.37-31.27.37 29.66.38 3.72.37-2.21.37-1.47.38 1.3.37-1.96.38 2.03.37.23.37-1.93.38.53.37-.77.38-1.48.37.88.37 1.9.38-1.25.37.03.38 1.65.37-3.29.37-.33.38-.58.37 1.03.38 1.66.37-.28.37-.59.38.42.37-1.96.37 1.85.38.55.37-.96.38-31.68.37 30.27.37.88.38-.14.37 1.26.38-.4.37-3.27.37 2.4.38-2.51.37-30.63.38 32.96.37-1.88.37 1.32.38-1.07.37.86.37-1.88.38-.06.37.46.38 1.9.37-.51.37-1.88.38.47.37-.29.38-.01.37-.7.37.1.38.55.37-.57.38-.09.37-31.96.37 32.38.38-2.58.37 2.32.38-.04.37-.45.37-.56.38-.53.37 1.13.37-32.26.38 32.3.37-.34.38.68.37.37.37-.82.38-1.78.37.11.38.45.37 1.38.37-1.92.38.34.37-.7.38.69.37 1.66.37-1.96.38.13.37-.88.37.97.38-.06.37-.88.38.45.37-1.62.37-.29.38.31.37-.92.38.71.37.54.37-2.25.38.76.37-30.74.38 29.67.37 2.35.37-.21.38-.06.37-.11.38-.96.37-1.34.37 1.08.38-33.06.37 32.63.37.56.38-.18.37.75.38-1.46.37.94.37-.97.38-.17.37.26.38 1.13.37-.54.37.95.38.26.37-1.94.38-1.49.37 1.72.37-.6.38 1.08.37-1.33.37-31.15.38 27.7.37 4.18.38-2.31.37 3.18.37-.44.38.49.37-.9.38-1.23.37-34 .37 34.41h.38l.37-2.81.38 4.24.37-1.59.37.11.38 1.11.37.06.38-.59.37-.64.37-1.23.38 1.15.37-.37.37 1.04.38-1.51.37-.27.38-1.58.37-.61.37 2.31.38-.91.37.67.38-3.27.37 5.24.37-3.06.38 3.16.37-2.97.38 1.28.37-.84.37-.21.38-36.79.37 37.38.37-1.9.38-2.74.37 3.84.38-1.82.37 1.69.37-.62.38 1.88.37-36.24.38 31.77.37-.04.37 1.13.38.28.37 1.25.38 1.76.37-3.2.37.94.38.16.37 1.2.38-1.35.37.01.37.84.38-3.22.37 2.24.37-.14.38 1.02.37.79.38-1.68.37.27.37-.55.38-.78.37-1.11.38 2.1.37-1.74.37.08.38 1.83.37-.76.38-34.12.37 30.61.37.92.38 1.34.37.25.37 2.03.38-2.27.37.02.38-1.92.37-29.21.37 27.94.38 4.43.37-.26.38-4.65.37 2.62.37 1.53.38-2.35.37-.85.38.91.37.75.37.63.38.06.37-.31.38-.91.37.43.37-1.66.38 2.01.37-.61.37 2.38.38-2.63.37-35.65.38 33.9.37-.09.37.32.38 3.53.37-.81.38-2.08.37-1.96.37-1.17.38-32.04.37 32.19.38 2.32.37 3.42.37-3.1.38.89.37.07.37.2.38-.16.37-.91.38 1.72.37-.04.37.79.38-2.98.37.1.38 2.53.37-1.32.37 1.02.38-1.75.37.66.38-.26.37-.04.37-1.06.38 2.36.37-.48.38-1.07.37 3.59.37-1.97.38-3.66.37 2.18.37-35.19.38 31.53.37.98.38.84.37.25.37-.59.38 3.33.37-4.07.38 3.03.37-39.2.37 34.25.38 2.03.37-1.85.38 1.22.37 2.21.37-.37.38.72.37.77.37-2.33.38-.58.37 1.89.38.12.37-2.96.37 1.09.38-2.04.37 4.16.38-2.42.37 1.49.37-.35.38-37.53.37 36.33.38-1.5.37-.03.37-.06.38 2.03.37-2.71.38 2.05.37-.16.37-35.43.38 31.78.37 1.82.37.91.38-2.16.37 3.53.38-1.5.37-2.36.37.86.38 1.15.37.93.38-.84.37-.77.37 1.71.38-.5.37 1.9.38-1.37.37.91.37.38.38-1.86.37 1.08.37-1.8.38.33.37-1.46.38.9.37.46.37 1.95.38-4.23.37 3.15.38-3.72.37-36.06.37 38.82.38-2.79.37 2.43.38-1.53.37-.17.37 2.87.38-2.66.37 2.53.38-39.03.37 34.86.37 1.35.38-2.81.37 1.97.37.11.38 1.92.37-.35.38 1.73.37-3.29.37 1.82.38-2 .37 2.98.38-1.26.37.82.37-.57.38-3.21.37 3.99.38-2.27.37-1.03.37 3.8.38-1.41.37-.48.37 1.26.38-2.85.37-1.76.38.99.37 2.48.37-1.36.38-38.95.37 35.31.38.39.37.57.37-.12.38.73.37-2.56.38 3.49.37-.53.37-39.52.38 36.48.37-1.16.38 2.43.37-1.88.37 2.95.38-1.97.37-1.81.37.78.38 1.92.37.06.38-1.47.37 1.77.37 1.96.38-2.18.37-.98.38.74.37 1.28.37-1.83.38-.07.37.79.38-36.75.37 31.71.37 3.07.38-1.77.37.17.37-.66.38 3.56.37 2.17.38-3.33.37-37.74.37 35.5.38-.82.37 1.04.38 1.46.37-2.93.37 2.91.38-.88.37-.56.38-.79.37-.41.37 3.39.38-2.22.37-2.04.37 3.16.38-1.27.37.44.38-2.46.37.31.37.28.38-.71.37-.81.38-.21.37.36.37.52.38-2.15.37 3.18.38.07.37-2.91.37-32.21.38 29.48.37 1.89.38-.37.37.99.37.98.38-.85.37-.84.37 2.24.38-37.57.37 35.21.38-2.49.37 1.32.37.18.38 1.7.37-1.19.38-.94.37 1.31.37 2.97.38-2.48.37-.89.38-.4.37-.27.37.04.38-1.12.37-1.23.37 4.09.38.47.37-.6.38-.47.37-36.59.37 35.65.38-.03.37-1.92.38.39.37 3.65.37-1.69.38-.88.37.39.38-38.03.37 35.67.37-2.48.38 2.82.37 1.07.38-1.38.37-.71.37-.89.38 3.07.37-.72.37-.18.38.34.37-.39.38-.79.37.18.37.59.38-1.45.37-.98.38.22.37 1.39.37.11.38-3.47.37 1.74.38 3.21.37-1.98.37-2.14.38 3.4.37-1.7.37.63.38-34.96.37 27.08.38 3.75.37 1.11.37-1.12.38 1.94.37-4.4.38 3.66.37-1.77.37-32.37.38 29.87.37 1.41.38-.73.37 3.64.37-.93.38-1.36.37-1.95.38.56.37 2.94.37-3.01.38 2.16.37.22.37-1.23.38-.72.37 1.9.38-.72.37.95.37-1.35.38.27.37 1.75.38-3.47.37 2.6.37-2.45.38 3.26.37-2.97.38 2.15.37.89.37-2.23.38-.47.37-36.41.37 33.47.38-1.42.37-.01.38 1.76.37-1.29.37-2.35.38 1.86.37-2 .38-31.58.37 30.76.37 3 .38-1.48.37.7.38-1.08.37 1.95.37-.95.38 1.14.37.88.38-2.92.37.18.37.55.38 1.4.37-1.64.37 1.44.38 1.48.37-3.04.38.65.37 1.1.37-34.62.38 30.49.37-1.39.38 2.96.37-.12.37-1.41.38 2.51.37-3.09.38 2.14.37-2.05.37-34.75.38 34.21.37-2.16.37 2.24.38.42.37.94.38-1.45.37 2.62.37-.19.38-4.17.37 1.53.38-.41.37-.45.37 1.61.38-1.78.37 2.6.38-.56.37-.33.37.99.38.67.37-2.36.38-.24.37 1.11.37-2.64.38 2.35.37.07.37-.73.38 1.03.37-1.64.38-33.84.37 30.87.37 1.14.38.69.37-1.06.38 3.61.37-3.86.37 1.9.38-.29.37-38.64.38 37.22.37-2.3.37-.96.38 4.31.37-6.4.37 2.54.38 1.96.37.11.38-1.9.37 1.49.37-1.49.38 1.45.37-.85.38 2.12.37-.03.37-2.04.38-.11.37-.36.38-.36.37.15.37-36.2.38 36.61.37-.12.38-.24.37-1.04.37 1.29.38-1.25.37.23.37 1.79.38-37.65.37 35.35.38 1.67.37 1.22.37-6.07.38 1.88.37 1 .38 1.43.37-.6.37.87.38-3.52.37 2.78.38-.12.37-1.6.37 2.01.38-.44.37-.2.37.97.38-1.93.37 1.06.38 1.36.37-1.84.37 2.12.38-1.92.37 1.72.38.16.37.78.37-1.49.38-1.04.37-35.47.38 34.44.37 1.57.37.81.38-.35.37-.92.38 1.24.37-.99.37-2.2.38-32.5.37 32.96.37.45.38-.6.37 2.59.38-3.34.37 2 .37-.1.38-.97.37.85.38.26.37-.29.37-1.94.38 2.53.37-2.69.38 2.92.37-2.04.37 1.23.38-3.76.37 1.77.37 1.29.38 1.97.37-3.49.38 2.49.37-1.18.37-.44.38-1.82.37 1.57.38 2.16.37-1.93.37-35.02.38 32.07.37 2.31.38-2.36.37 2.32.37-2.47.38.97.37.96.38-.52.37-36.92.37 35.17.38 3.31.37.82.37-3.2.38 2.12.37-1.32.38-.71.37 1.39.37.99.38.31.37-2.39.38 2.25.37-1.51.37 1.69.38-1.98.37-1.81.38 1.42.37-.9.37 2.39.38-34.14.37 29.42.37 3.84.38-.87.37-.27.38.55.37-1.52.37.36.38-1.01.37-36.03.38 32.64.37 4.69.37 1.02.38-1.47.37-1 .38.25.37 1.08.37-1.45.38-1.57.37 2.72.38-3.58.37 4 .37-.33.38-2.08.37 2.59.37-1.6.38-1.17.37.34.38-2.1.37.52.37 1.91.38.87.37-1.77.38 1.33.37-1.11.37-1.27.38 1.09.37-3.27.38 1.52.37-33.68.37 32.64.38 1.36.37 1.14.37-1.52.38.82.37-.65.38.85.37-2.26.37-32.85.38 31.49.37 2.53.38.87.37-.42.37-.63.38 1.17.37-1.12.38 1.84.37-2.42.37.6.38-2.31.37.41.38 3.37.37-3.94.37 2.24.38-.44.37.39.37 1.34.38-4.09.37-34.05.38 35.01.37 1.47.37-.89.38 1 .37-.64.38-2.62.37 2.51.37.08.38-36.05.37 34.92.38-.68.37.89.37-.91.38-.69.37-1.52.37 1.54.38 1.71.37-.38.38-.11.37 1.46.37-2.48.38.81.37-2.4.38 1.69.37-.2"/><use xlink:href="#h" color="#00C853" transform="matrix(3.75 0 0 3.75 56.04 175.92)"/><use xlink:href="#h" color="#00C853" transform="matrix(3.75 0 0 3.75 56.25 22.51)"/></g><text fill="#000" stroke="none" stroke-linecap="round" stroke-linejoin="round" color="#000" font-family="KaTeX_Main" font-size="8" transform="translate(241.1 10.11)"><tspan>AVLRelaxedTopDown</tspan></text><g fill="none" stroke="currentColor" stroke-linecap="round" stroke-linejoin="round" color="#000"><path stroke="#3B75EA" stroke-dasharray="4.5,2.0,0.5,2.0,0.5,2.0" d="M205.6 7.51h29.9M28 190.1l.37 1.56.38-1.53.37-.7.38 2.04.37.21.37-1.42.38.48.37-.37.38-1.7.37.08.37-.09.38.54.37 1.67.37-4.13.38 2.74.37-.93.38-1.2.37-.92.37.96.38-3.53.37.43.38 1.27.37-.36.37-33.51.38 30.99.37 1.47.38.72.37-2.24.37 1.53.38-.18.37-.83.37-1.82.38-29.63.37 29.79.38 2 .37-1.36.37.38.38.47.37 1.34.38-.68.37-1.31.37.29.38-1.94.37.5.38-.17.37 1.1.37-1.32.38-1.11.37 1.65.38-1.34.37-1.26.37 1.58.38-1.25.37.39.37 2.21.38-.28.37-3.17.38 2.07.37-.97.37.7.38-3.02.37 1.33.38-32.83.37 31.61.37.57.38.49.37-1.02.38 1.02.37-1.03.37-.13.38 1.11.37-35.23.37 33.32.38-.34.37-1.63.38 1.18.37 2.39.37-3.6.38 2.34.37-1.02.38.37.37 1.39.37-2.24.38 1.04.37-.4.38-.51.37 1.93.37-2.41.38.47.37.2.38-.29.37-31.45.37 30.52.38 2.6.37-2.23.37 2.34.38-1.04.37-1.03.38-1.18.37.37.37-31.41.38 32.93.37-1.66.38-.84.37.37.37 2.23.38-2.09.37.4.38-.03.37-.79.37 2.74.38-3.24.37 3.45.37-5.11.38 1.38.37 2.46.38-2.24.37-1.61.37 2.64.38-.29.37-.66.38-1.97.37 2.07.37-.58.38-2.74.37 1.14.38-.75.37-1.26.37 3.09.38.17.37-34.36.38 35.31.37.24.37-.07.38-3.46.37.07.37.36.38 1.7.37-1.62.38-32.4.37 32.67.37-1.62.38 1.15.37 1.17.38-2.08.37 1.77.37 1.33.38-3.75.37 1.75.38-1.38.37 1.11.37-1.36.38-.12.37.23.37-.15.38-.35.37.84.38-1.18.37 2.44.37-35.88.38 32.2.37 1.06.38 1.49.37-1.83.37-1.96.38 1.1.37 2.39.38-2.43.37-30.88.37 29.18.38 3.14.37-2.49.38 1.35.37-.48.37-.4.38.53.37-1.08.37-.63.38 2.16.37.49.38-1.29.37-1.33.37-.85.38 1.93.37-.75.38 2.37.37-2.73.37.96.38 1.71.37-1.84.38-.38.37.29.37-2.07.38.22.37.72.37 1.79.38-2.82.37 2.51.38-34.96.37 35.07.37-2.63.38 1.6.37.77.38-.95.37-.16.37-.28.38 1.24.37-37.88.38 37.87.37-1.01.37.58.38-1.82.37-1.26.38 1.38.37 2.57.37-2.03.38.45.37.69.37-2.15.38-.69.37 2.58.38 1.65.37-2.48.37-.61.38-.45.37-.69.38.81.37.26.37-2.28.38 1.43.37.78.38.59.37.11.37-1.1.38-1.43.37-1.27.37-32.41.38 31.12.37 2.28.38.84.37 1.2.37.28.38-1.76.37 1.09.38-2.28.37-33.82.37 32.04.38 1.72.37.54.38-2.47.37 2.33.37 1.26.38-.67.37-.57.38.46.37 1.36.37-2.31.38 1.41.37-.79.37.04.38-.41.37.79.38-.14.37-.79.37 1.04.38-1.9.37-33.8.38 33.22.37-.57.37.94.38 1.9.37-2.25.38-.12.37.32.37-1.91.38-31.64.37 34.73.37-1.9.38 1.86.37-1.41.38-.34.37 1.52.37-.07.38-1.73.37 1.82.38-3.22.37 1.62.37 1.28.38-.98.37-2.24.38 1.53.37-.66.37 1.93.38-1.2.37-.16.38.05.37-.83.37-.88.38 3.46.37-1.21.37-2.68.38 4.15.37-4.5.38 2.57.37-33.09.37 29.89.38 1.87.37-.34.38.67.37-.38.37-1.37.38.68.37-.45.38-32.09.37 33.41.37-.42.38-.23.37.36.37-1.38.38 1.75.37.29.38 1.73.37-1.15.37.52.38 1.92.37-1.58.38-.81.37-.66.37.03.38-.29.37 1.81.38-2.53.37 3.25.37-3.27.38-33.07.37 31.27.38.31.37.09.37.51.38-.59.37-2.34.37 3.73.38.8.37-36.17.38 34.71.37-1.91.37.21.38 1.09.37-1.08.38 1.43.37.52.37-.79.38.11.37-.58.38.21.37 1 .37-1.49.38 1.48.37-.99.37 2.41.38-2.32.37-.37.38 2.28.37-1.99.37-1.07.38 1.07.37-2.24.38.79.37-.83.37 3.19.38-.83.37-1.19.38-34.11.37 28.94.37 4.76.38-1.03.37 1.77.38-.81.37-1.26.37.72.38.64.37-1.73.37-35.94.38 31.68.37 1.29.38 2.97.37-.18.37-3.43.38 1.68.37 1.5.38-1.06.37.82.37.54.38-.3.37 2.08.38.26.37.41.37-1.31.38-.85.37 1.8.37-2.67.38 1.87.37.88.38-1.67.37 2.01.37-1.58.38-.92.37-.59.38.78.37 3.63.37-1.21.38-39.66.37 34.29.38 1.84.37-1.38.37.22.38-.83.37-1.45.38 3.33.37-2.86.37-35.54.38 35.8.37.58.37-1.7.38-.62.37 1.64.38 1.28.37-.45.37-.55.38-2.51.37 2.24.38-.13.37-1.62.37 2.33.38-2.45.37 3.26.38.6.37 1.52.37-1.59.38-.79.37 1.12.37-42.09.38 38.24.37-.81.38-.31.37-1.63.37.86.38 3.18.37-3.36.38 1.13.37-36.02.37 34.82.38 1.55.37-.24.38.95.37-.44.37-.3.38-1.7.37.3.38 2.11.37.72.37-1.32.38 2.04.37-2.72.37-.01.38 1.17.37-1.62.38.33.37.09.37 1.25.38-.15.37 1.03.38-.21.37-.09.37-1.95.38.63.37-.18.38 1.14.37 1.2.37-36.07.38 29.51.37 1.08.37 2.16.38-1.48.37.22.38-.01.37-1.19.37 1.8.38-36.3.37 33.18.38 2.11.37-1.63.37-.45.38 1.37.37-2.46.38 1.59.37-.33.37-1.67.38.1.37 3.65.37-.25.38-2.47.37 2.29.38-1.82.37.11.37-.37.38 1.41.37-.58.38.66.37-36.2.37 33.02.38-1.27.37 1.17.38-.12.37.53.37-.13.38-1.2.37-.15.38-39.82.37 38.98.37-1.81.38.39.37 1.46.37-2.03.38 2.21.37 2.07.38-2.84.37.54.37.44.38-2.72.37 2.81.38-1.46.37.81.37.99.38-1.25.37 2.91.38-1.79.37-.02.37.41h.38l.37-.45.37-.92.38-2.27.37 2.69.38 1.2.37-1.6.37.64.38-34.84.37 31.7.38.04.37.76.37.05.38.48.37-.93.38-.26.37-1.89.37-29.98.38 30.59.37 1.12.38-.46.37-.3.37.34.38-1.43.37 3.81.37.84.38-.98.37-1.2.38-.55.37-1.98.37-.25.38.25.37 2.11.38-.42.37.44.37-.04.38-2.03.37.45.38-.03.37 1.79.37-1.11.38 2.01.37-4.4.37 2.43.38-2.06.37-.83.38-.43.37-39.5.37 37.12.38 1.81.37.15.38-1.32.37 2.68.37-1.84.38-2.02.37 2.15.38-38.65.37 35.1.37 2.71.38-2.17.37-.35.38 3.35.37-2.42.37-.19.38 1 .37.11.37-1.16.38-1 .37 4.28.38-4.79.37.58.37.69.38-1.11.37.68.38-1.85.37 2.68.37-33.75.38 27.89.37 3.89.38.92.37-.05.37.36.38-2.36.37 1.05.37-2.12.38-34.04.37 32.97.38 1.3.37-1.11.37-1.57.38 1.34.37.58.38 2.14.37-1.63.37.64.38-.6.37-.1.38 1.7.37-1.79.37-.31.38 1.11.37 2.74.38-2.35.37-2.36.37-2.35.38 5.17.37-.63.37-.52.38-.34.37-.75.38-1.06.37 1.5.37.33.38-.33.37-1.52.38-32.4.37 33.18.37-3.49.38.8.37 1.08.38-.82.37 1.84.37-1.42.38.15.37-35.63.37 31.28.38 3.06.37-.06.38-2.59.37.57.37 2.17.38.2.37.43.38-3.7.37 2.33.37-.86.38.74.37-.51.38.95.37-1.74.37-.52.38.66.37.55.38-.4.37-34.92.37 31.44.38 2.26.37.11.37-.55.38 1.64.37-2.48.38 2.46.37.1.37-32.89.38 27.44.37 1.79.38 1.19.37.17.37.57.38-.71.37-2.4.38 2.79.37-1.18.37-.92.38 1.04.37 1.6.37-.11.38-2.68.37 3.73.38-1.18.37.19.37-2.31.38-.52.37 1.97.38 1.45.37-2.34.37-.74.38 1.94.37-.5.38-.2.37-.92.37.56.38-.96.37-36.66.38 35.33.37.11.37-.39.38.17.37.61.37.43.38-3.43.37 4.59.38-37.68.37 34.31.37-.63.38.17.37.69.38 1.2.37.04.37-.27.38-1.68.37.4.38.32.37 2.54.37-.78.38-1.85.37-.43.37 1.73.38-.12.37.29.38.07.37 1.09.37-1.12.38.51.37-.88.38.43.37-2.83.37.44.38.66.37-.14.38-.5.37 1.71.37-36.09.38 32.77.37.7.38-2.84.37 2.12.37.23.38.79.37.09.37.77.38-39.66.37 36.77.38.11.37-2.12.37.45.38-1.26.37.97.38.88.37-.2.37 1.72.38 1.64.37-3.78.38 3.23.37.19.37.07.38-1.8.37 1.58.37-2.54.38-1.2.37 3.03.38-35.61.37 35.01.37-1.35.38-.41.37 2.82.38 2.37.37-5.08.37-.83.38 6.07.37-38.88.38 33.08.37-.54.37 1.65.38.23.37.32.38 2.63.37-1.76.37-1.16.38-1.08.37-.89.37 5.27.38-3.03.37 3.65.38-4.66.37 2.1.37-1.62.38.38.37-1.42.38.54.37 1.29.37-.15.38 1.97.37-.55.38 1.21.37-.87.37 1.26.38-1.97.37-.03.37.73.38-35.66.37 32.76.38-1.06.37 2.79.37-3.91.38 2.97.37-1.05.38.26.37 1.02.37-36.36.38 34.29.37-1.59.38.3.37.06.37.88.38.71.37-.13.38-2.54.37 1.68.37-3.69.38 4.5.37-2.26.37 1.41.38 1.54.37-5.11.38.75.37.07.37 2.36.38.31.37-35.79.38 32.98.37.33.37-1.48.38 1.11.37-1.36.38 1.54.37-.24.37 1.69.38-37.31.37 34.35.37 1.97.38-3.18.37 3.38.38-2.5.37 1.79.37.01.38-.02.37-.05.38.76.37-.11.37-.31.38.12.37-3.87.38 3.77.37-3.07.37 3.95.38-.33.37-2.3.38 1.67.37-1 .37-.47.38.77.37.68.37.08.38-1.48.37 1.17.38.05.37.27.37-35.73.38 31.01.37.75.38 1.05.37-1.61.37 1.19.38.6.37 1.63.38-3.68.37-34.99.37 36.61.38-3.16.37 2.32.37.69.38.84.37-.66.38-.34.37 3.7.37-1.58.38-2.04.37-.5.38-2.25.37 2.61"/><use xlink:href="#a" color="#3B75EA" transform="matrix(3.75 0 0 3.75 113.62 160.67)"/><use xlink:href="#a" color="#3B75EA" transform="matrix(3.75 0 0 3.75 220.55 7.51)"/></g><text fill="#000" stroke="none" stroke-linecap="round" stroke-linejoin="round" color="#000" font-family="KaTeX_Main" font-size="8" transform="translate(241.1 25.11)"><tspan>RedBlackRelaxedTopDown</tspan></text><g fill="none" stroke="currentColor" stroke-linecap="round" stroke-linejoin="round" color="#000"><path stroke="#FFAB00" stroke-dasharray="4.5,2.0,0.5,2.0,0.5,2.0" d="M205.6 22.51h29.9M28 198.34l.37-.34.38-33.93.37 33.04.38-1.08.37.16.37.61.38 1.12.37-2.97.38 1.25.37-.59.37-33.39.38 31.67.37 1.14.37-1.18.38 1.16.37-1.61.38-2.11.37.58.37-.4.38 1.97.37-.12.38-.29.37-2.46.37-.28.38-.99.37-.32.38-.15.37.52.37 1.42.38-.25.37-1.32.37-1.74.38.62.37 1.04.38.91.37-.85.37-1.47.38-.75.37 1.11.38-32.57.37 30.72.37 1.03.38-2.85.37 1.25.38 2.62.37-1.1.37-2.7.38 1.45.37-31.69.38 29.83.37 1.11.37-1.2.38 1.64.37-1.31.37 1.43.38-1.33.37.51.38 1.06.37.74.37-.18.38-.98.37-1.74.38 2 .37.66.37-1.12.38-.78.37.86.38-.43.37-.09.37-31.09.38 32.01.37-2.66.37 3.74.38-1.96.37.33.38.02.37-1.29.37 1.84.38-31.35.37 31.84.38-2.02.37.69.37-.36.38.38.37.02.38 1.15.37-2.42.37.07.38-.03.37-.1.38.73.37-.23.37-2.87.38.19.37-.03.37-.38.38-1.29.37 1.68.38-.13.37-1.03.37 1.08.38-.5.37.3.38 1.13.37 1.26.37-3.07h.38l.37-29.62.38 28.15.37-.35.37 1.84.38-1.7.37 2.04.37-2.74.38-.62.37 3.93.38-33.02.37 29.29.37.55.38.48.37-.69.38-1.67.37 2.57.37-1.19.38.66.37-1.48.38-.92.37-1.58.37 2.64.38-.94.37 2.37.38-4.92.37 2.06.37.32.38.01.37-.52.37-1.62.38.16.37.44.38-.32.37 1.08.37-.6.38-1.08.37.69.38.34.37-2.1.37-29.93.38 30.31.37-.41.38.1.37-.52.37.33.38.17.37.62.37-1.86.38-31.36.37 33.85.38-2.84.37.89.37 1.17.38-2.56.37 1.3.38-1.33.37-.08.37-.16.38 2.02.37-2.37.38.11.37 1.43.37-.76.38 1.62.37-1.93.38.15.37 1.42.37-2.2.38-29.91.37 30.6.37-.37.38-.16.37.87.38-.04.37.4.37.28.38-.72.37-1.91.38-31.52.37 33.03.37-.5.38.42.37-.54.38 1.63.37-.94.37-1.16.38.59.37-1.55.37 2.65.38-1.82.37 2.22.38-.45.37-1.46.37 2.14.38-1.05.37 1.16.38-.21.37.49.37-2.02.38.73.37-1.19.38-.53.37-.14.37 1.77.38-.99.37.41.38-1.02.37-30.87.37 31.69.38 1.08.37-1.19.37.58.38-.24.37.38.38-1.75.37 2.05.37-33.57.38 33.56.37-2.61.38.81.37.58.37 3.93.38-4.83.37.01.38 2.91.37-1.55.37-2.8.38 4.09.37-2.64.37.72.38 1.92.37-1.28.38.2.37.23.37-.66.38-.28.37 1.05.38-34.07.37 32.54.37.17.38-.87.37.23.38-.76.37.11.37-2.06.38 4.43.37-32.58.38 31.5.37-1.82.37 1.8.38-.61.37 1.16.37-1.78.38.73.37-.16.38 1.31.37-1.65.37.73.38-2.47.37 2.88.38-1.68.37 2.9.37-.74.38 1.22.37-3.56.38 1.15.37-.51.37-.76.38 3.05.37-.09.37-2.63.38 1.78.37.35.38-1.88.37-.98.37-30.78.38 31.43.37-1.23.38-.5.37 1.73.37-.98.38-.91.37 1.79.38-1.97.37-33.67.37 31.03.38 1.31.37-.38.38 1.4.37-.1.37-.84.38 2.61.37.38.37-.97.38.27.37-.74.38-1.23.37.95.37.61.38-.67.37.8.38-1.68.37 2 .37-2.16.38 2.12.37-.76.38.12.37-1.08.37 2.34.38-.79.37-1.34.37 1.3.38-1.97.37.64.38-33.48.37 34.47.37-2.98.38 2.58.37-3.06.38 1.74.37-.08.37-1.78.38 1.32.37-34.75.38 33.04.37-.68.37 2.79.38-1.99.37.13.38-.91.37 2.93.37-1.2.38-.51.37.45.37-1.03.38 1.13.37-1.32.38.35.37.6.37.32.38-.66.37-.29.38-.41.37-31.98.37 28.91.38-.46.37 3.5.38-.83.37-.48.37 2.91.38-1.18.37-1.85.37-33 .38 29.87.37 1.38.38.43.37.69.37 1.42.38-1.68.37 1.32.38-1.79.37-.54.37 1.29.38-.07.37-.96.38 2.23.37-1.23.37-.04.38-.02.37.89.38-1.24.37.44.37-1.94.38 3.88.37-2.48.37-1.13.38 1.54.37 1.85.38.92.37-2.07.37-2 .38.71.37-33.8.38 30.8.37 1.06.37.16.38-1.47.37 4.49.38-3.25.37-.57.37 1.84.38-35.74.37 35.34.37-2 .38-.49.37-.08.38 2.29.37-.9.37-.7.38 1.07.37 1.45.38-2.32.37 2.31.37-1.92.38-.79.37.37.38 2.05.37-1.96.37 1.32.38-1.8.37.76.38-33.74.37 29.76.37 2.94.38-1.21.37.58.37-1.48.38-.43.37 1.31.38 1.21.37-35.67.37 30.81.38 3.31.37 1 .38-1.07.37-.35.37.02.38.34.37.36.38-.35.37.32.37.02.38-.49.37-.18.37.35.38-.45.37.05.38 1.51.37-1.81.37.44.38.01.37 1.89.38.21.37-.81.37-1.4.38.26.37-.92.38 2.18.37-2 .37.63.38-34.5.37 31.32.38-.49.37-.52.37 2.42.38-.45.37-1.42.37 1.73.38.19.37-37.02.38 33.31.37.66.37-.61.38 1.33.37-.14.38-1.44.37 1.32.37.75.38-.59.37 1.17.38-.76.37-1.03.37.12.38-.95.37 1.95.37-1.98.38 1.63.37-1.6.38 1.11.37.7.37-.88.38.32.37 1.46.38-.1.37-1.66.37-.03.38-2.2.37 1.95.38-33.14.37 27.41.37 2.44.38.04.37 1.74.37-1.98.38-.97.37-.11.38 1.91.37-1.91.37-35.68.38 32.98.37 1.02.38 1.61.37-.34.37-.08.38 1.52.37.63.38-.17.37-2.76.37 1.58.38 1.18.37-2.53.38 2.2.37-1.96.37.67.38.19.37-1.27.37.13.38-.83.37-31.84.38 29.69.37.63.37-.66.38.37.37-.47.38 2.16.37-.99.37.7.38-37.05.37 34.16.38-.04.37.16.37-1.01.38 3.59.37-2.74.37 1.02.38.77.37-1.35.38-.1.37 2.13.37-1.57.38-.01.37-.31.38-.29.37-.15.37-.99.38 1.35.37-.27.38-1.26.37-.03.37.84.38-.97.37.19.38-1.5.37-.24.37.99.38-.83.37 1.65.37-38.16.38 33.99.37 1.92.38-2.53.37-1.56.37.54.38-.63.37 1.68.38-1.93.37-34.86.37 33.47.38-.15.37 1.58.38-.04.37.24.37-.31.38.25.37-.05.37 1.76.38-.81.37.99.38-1.69.37.4.37 1.18.38-2.37.37.67.38.24.37 1.31.37-.91.38-31.66.37 29.57.38 1.37.37-.66.37.28.38-1.43.37 1.46.38-1.23.37-.65.37-33.27.38 32.15.37 2.26.37-2.8.38.6.37 1.72.38-.26.37-.73.37.1.38 1.58.37.96.38-1.7.37-.15.37.89.38-2.97.37 1.41.38 1.47.37.3.37-.74.38-.52.37-.94.37 1.83.38-2.26.37-1.17.38 2.07.37 1.25.37-2.06.38 1.21.37-1.01.38.35.37-33.43.37 30.91.38 1.17.37 1.53.38.6.37-.77.37-2.47.38-.36.37 2.93.38-38.38.37 36.74.37-2.69.38 3.34.37-2.05.37.63.38-3.33.37 2.88.38-.06.37.73.37-.66.38-.22.37-.84.38 2.05.37.63.37-1.43.38.28.37-2.12.38 3.4.37-1.16.37 1.32.38-.75.37-2.23.37 3.43.38-.67.37 1.8.38-3.2.37 2.45.37-2.4.38-32.69.37 30.31.38.34.37 3.71.37-2.32.38.94.37-.57.38.05.37-1.02.37-33.48.38 33.48.37.28.38-.78.37 1.06.37-.75.38-1.1.37 2.23.37.14.38-1.63.37.81.38-.63.37-.01.37.25.38-.56.37-.25.38 1.77.37-.6.37-2.18.38.73.37-.03.38-32.96.37 30.11.37 1.22.38 2.52.37-2.19.37.8.38-1.11.37 1.71.38.35.37-34.46.37 32.18.38-.25.37 1.61.38-1.75.37-1.36.37 1.74.38-.09.37-2.1.38 2.52.37-1.18.37.56.38.6.37.82.38.23.37-4.14.37 3.83.38-2.04.37-.26.37-.05.38-.42.37 3 .38-.01.37-2.79.37.59.38 1.42.37-2.29.38.44.37-.49.37-33.6.38 31.37.37 1.15.38-1.19.37 1.25.37.73.38.39.37-1.99.37.91.38-31.62.37 30.05.38 1.06.37.31.37.73.38.49.37-.22.38-.4.37-1.29.37 1.96.38-2.2.37.51.38 1.39.37 1.61.37-1.85.38-.01.37-.76.38-.88.37 1.42.37.34.38.73.37-38.14.37 37.98.38-2.38.37.56.38-1.28.37.24.37.37.38-1.2.37 1.53.38-33.81.37 30.34.37 1.37.38-2.24.37 3.05.38 3.44.37-1.79.37-.16.38-2.25.37 2.49.37-3.19.38 1.6.37 2.93.38-2.01.37-.56.37-2.16.38 1.99.37.24.38-1 .37.74.37-.95.38-1.12.37 5.15.38-3.14.37 1.09.37-2.67.38.91.37.93.38-1.34.37-32.54.37 29.07.38 1.27.37.28.37.29.38-.32.37.49.38 1.75.37-1.88.37-30.75.38 30.45.37.37.38-2.4.37 1.2.37 1.12.38-1.58.37-.77.38-.26.37 3.61.37-.47.38 1.61.37-3.02.37.54.38.58.37.83.38-1.42.37-1.76.37 1.59.38-1.93.37 2.13.38-1.22.37-.38.37-3.44.38 2.12.37-1.13.38 4.6.37-.75.37-.05.38-1.53.37-34.4.38 33.01.37 1 .37-.19.38.55.37-2.65.37 3.45.38.02.37-1.85.38-34.22.37 34.7.37.05.38 1.07.37.56.38-1.28.37-2.41.37 2.12.38-.14.37-.38.38.62.37-.73.37 2.1.38-1.61.37 1.79.37 3.78.38-2.55.37-1.7.38.77.37-.47.37.43.38-33.67.37 33.55.38.66.37.21.37-.75.38.37.37-1.68.38-1.45.37-.35.37-30.39.38 31.21.37.42.38-.39.37-.8.37.76.38-1.32.37.42.37-.41.38-.04.37 4.4.38-.43.37-3.21.37 2.91.38.09.37-3.99.38-.33.37 1.22.37 2.95.38.02.37-1.88.38-.03.37.18.37-1.7.38 3.39.37-1.58.37 2.21.38-1.23.37-.07.38-32.39.37 30.61.37.74.38.09.37-.06.38-3.3.37.12"/><use xlink:href="#i" color="#FFAB00" transform="matrix(3.75 0 0 3.75 171.2 157.83)"/><use xlink:href="#i" color="#FFAB00" transform="matrix(3.75 0 0 3.75 220.55 22.51)"/></g><path fill="none" stroke="none" stroke-linecap="round" stroke-linejoin="round" stroke-width="0" d="M28 45.01V205M371.99 45.01H28" color="#000"/></svg>