<svg xmlns="http://www.w3.org/2000/svg" xmlns:xlink="http://www.w3.org/1999/xlink" viewBox="0 0 400 250"><path fill="none" d="M0 0h400v250H0z"/><defs><path id="g" stroke="currentColor" stroke-width=".267" d="M-1 0h2M0-1v2"/><path id="h" stroke="currentColor" stroke-width=".267" d="m-1-1 2 2m0-2-2 2"/><path id="i" stroke="currentColor" stroke-width=".267" d="M-1 0h2M0-1v2m-1-2 2 2m-2 0 2-2"/><path id="d" stroke="currentColor" stroke-width=".267" d="M-1-1h2v2h-2z"/><path id="b" stroke="currentColor" stroke-width=".267" d="m0-1.33-1.33 2h2.66z"/><path id="f" stroke="currentColor" stroke-width=".267" d="M0 1.33 1.265.411.782-1.067l-1.564-.009-.483 1.487z"/><use xlink:href="#b" id="c" stroke="currentColor" transform="rotate(180)"/><use xlink:href="#d" id="e" stroke="currentColor" transform="rotate(45)"/><circle id="a" cx="0" cy="0" r="1" stroke="currentColor" stroke-width=".267"/></defs><path fill="none" stroke="#000" stroke-linecap="round" stroke-linejoin="round" stroke-width=".1" d="M35.48 205V45.01" class="gridline" color="#000"/><g fill="none" stroke="none" stroke-linecap="round" stroke-linejoin="round" stroke-width="0" color="#000"><path d="M35.48 205v-7.5m0-152.49v7.5"/><text fill="#000" font-family="KaTeX_Main" font-size="10" text-anchor="middle" transform="translate(35.48 215.75)"><tspan> 1</tspan></text></g><path fill="none" stroke="#000" stroke-linecap="round" stroke-linejoin="round" stroke-width=".1" d="M72.87 205V45.01" class="gridline" color="#000"/><g fill="none" stroke="none" stroke-linecap="round" stroke-linejoin="round" stroke-width="0" color="#000"><path d="M72.87 205v-7.5m0-152.49v7.5"/><text fill="#000" font-family="KaTeX_Main" font-size="10" text-anchor="middle" transform="translate(72.87 215.75)"><tspan> 2</tspan></text></g><path fill="none" stroke="#000" stroke-linecap="round" stroke-linejoin="round" stroke-width=".1" d="M110.26 205V45.01" class="gridline" color="#000"/><g fill="none" stroke="none" stroke-linecap="round" stroke-linejoin="round" stroke-width="0" color="#000"><path d="M110.26 205v-7.5m0-152.49v7.5"/><text fill="#000" font-family="KaTeX_Main" font-size="10" text-anchor="middle" transform="translate(110.26 215.75)"><tspan> 3</tspan></text></g><path fill="none" stroke="#000" stroke-linecap="round" stroke-linejoin="round" stroke-width=".1" d="M147.65 205V45.01" class="gridline" color="#000"/><g fill="none" stroke="none" stroke-linecap="round" stroke-linejoin="round" stroke-width="0" color="#000"><path d="M147.65 205v-7.5m0-152.49v7.5"/><text fill="#000" font-family="KaTeX_Main" font-size="10" text-anchor="middle" transform="translate(147.65 215.75)"><tspan> 4</tspan></text></g><path fill="none" stroke="#000" stroke-linecap="round" stroke-linejoin="round" stroke-width=".1" d="M185.04 205V45.01" class="gridline" color="#000"/><g fill="none" stroke="none" stroke-linecap="round" stroke-linejoin="round" stroke-width="0" color="#000"><path d="M185.04 205v-7.5m0-152.49v7.5"/><text fill="#000" font-family="KaTeX_Main" font-size="10" text-anchor="middle" transform="translate(185.04 215.75)"><tspan> 5</tspan></text></g><path fill="none" stroke="#000" stroke-linecap="round" stroke-linejoin="round" stroke-width=".1" d="M222.43 205V45.01" class="gridline" color="#000"/><g fill="none" stroke="none" stroke-linecap="round" stroke-linejoin="round" stroke-width="0" color="#000"><path d="M222.43 205v-7.5m0-152.49v7.5"/><text fill="#000" font-family="KaTeX_Main" font-size="10" text-anchor="middle" transform="translate(222.43 215.75)"><tspan> 6</tspan></text></g><path fill="none" stroke="#000" stroke-linecap="round" stroke-linejoin="round" stroke-width=".1" d="M259.82 205V45.01" class="gridline" color="#000"/><g fill="none" stroke="none" stroke-linecap="round" stroke-linejoin="round" stroke-width="0" color="#000"><path d="M259.82 205v-7.5m0-152.49v7.5"/><text fill="#000" font-family="KaTeX_Main" font-size="10" text-anchor="middle" transform="translate(259.82 215.75)"><tspan> 7</tspan></text></g><path fill="none" stroke="#000" stroke-linecap="round" stroke-linejoin="round" stroke-width=".1" d="M297.21 205V45.01" class="gridline" color="#000"/><g fill="none" stroke="none" stroke-linecap="round" stroke-linejoin="round" stroke-width="0" color="#000"><path d="M297.21 205v-7.5m0-152.49v7.5"/><text fill="#000" font-family="KaTeX_Main" font-size="10" text-anchor="middle" transform="translate(297.21 215.75)"><tspan> 8</tspan></text></g><path fill="none" stroke="#000" stroke-linecap="round" stroke-linejoin="round" stroke-width=".1" d="M334.6 205V45.01" class="gridline" color="#000"/><g fill="none" stroke="none" stroke-linecap="round" stroke-linejoin="round" stroke-width="0" color="#000"><path d="M334.6 205v-7.5m0-152.49v7.5"/><text fill="#000" font-family="KaTeX_Main" font-size="10" text-anchor="middle" transform="translate(334.6 215.75)"><tspan> 9</tspan></text></g><path fill="none" stroke="#000" stroke-linecap="round" stroke-linejoin="round" stroke-width=".1" d="M371.99 205V45.01" class="gridline" color="#000"/><g fill="none" stroke="none" stroke-linecap="round" stroke-linejoin="round" stroke-width="0" color="#000"><path d="M371.99 205v-7.5m0-152.49v7.5"/><text fill="#000" font-family="KaTeX_Main" font-size="10" text-anchor="middle" transform="translate(371.99 215.75)"><tspan> 10</tspan></text></g><g fill="none" stroke="none" stroke-linecap="round" stroke-linejoin="round" stroke-width="0" color="#000"><path d="M371.99 205h-7.5"/><text fill="#000" font-family="KaTeX_Main" font-size="10" transform="translate(378.99 208.25)"><tspan>0.69</tspan></text></g><g fill="none" stroke="none" stroke-linecap="round" stroke-linejoin="round" stroke-width="0" color="#000"><path d="M371.99 185h-7.5"/><text fill="#000" font-family="KaTeX_Main" font-size="10" transform="translate(378.99 188.25)"><tspan>0.69</tspan></text></g><g fill="none" stroke="none" stroke-linecap="round" stroke-linejoin="round" stroke-width="0" color="#000"><path d="M371.99 165h-7.5"/><text fill="#000" font-family="KaTeX_Main" font-size="10" transform="translate(378.99 168.25)"><tspan>0.70</tspan></text></g><g fill="none" stroke="none" stroke-linecap="round" stroke-linejoin="round" stroke-width="0" color="#000"><path d="M371.99 145h-7.5"/><text fill="#000" font-family="KaTeX_Main" font-size="10" transform="translate(378.99 148.25)"><tspan>0.70</tspan></text></g><g fill="none" stroke="none" stroke-linecap="round" stroke-linejoin="round" stroke-width="0" color="#000"><path d="M371.99 125h-7.5"/><text fill="#000" font-family="KaTeX_Main" font-size="10" transform="translate(378.99 128.25)"><tspan>0.71</tspan></text></g><g fill="none" stroke="none" stroke-linecap="round" stroke-linejoin="round" stroke-width="0" color="#000"><path d="M371.99 105.01h-7.5"/><text fill="#000" font-family="KaTeX_Main" font-size="10" transform="translate(378.99 108.26)"><tspan>0.71</tspan></text></g><g fill="none" stroke="none" stroke-linecap="round" stroke-linejoin="round" stroke-width="0" color="#000"><path d="M371.99 85.01h-7.5"/><text fill="#000" font-family="KaTeX_Main" font-size="10" transform="translate(378.99 88.26)"><tspan>0.72</tspan></text></g><g fill="none" stroke="none" stroke-linecap="round" stroke-linejoin="round" stroke-width="0" color="#000"><path d="M371.99 65.01h-7.5"/><text fill="#000" font-family="KaTeX_Main" font-size="10" transform="translate(378.99 68.26)"><tspan>0.72</tspan></text></g><g fill="none" stroke="none" stroke-linecap="round" stroke-linejoin="round" stroke-width="0" color="#000"><path d="M371.99 45.01h-7.5"/><text fill="#000" font-family="KaTeX_Main" font-size="10" transform="translate(378.99 48.26)"><tspan>0.73</tspan></text></g><path fill="none" stroke="none" stroke-linecap="round" stroke-linejoin="round" stroke-width="0" d="M28 45.01V205M371.99 45.01H28" color="#000"/><text fill="#000" stroke="none" stroke-linecap="round" stroke-linejoin="round" stroke-width="0" color="#000" font-family="KaTeX_Main" font-size="10" text-anchor="middle" transform="rotate(-90 68.255 56.755)"><tspan font-weight="bold">Rotations</tspan><tspan> / Operation</tspan></text><text fill="#000" stroke="none" stroke-linecap="round" stroke-linejoin="round" stroke-width="0" color="#000" font-family="KaTeX_Main" font-size="10" text-anchor="middle" transform="translate(199.99 238.25)"><tspan>Operations × 10</tspan><tspan dy="-5" font-size="8">5</tspan></text><text fill="#000" stroke="none" stroke-linecap="round" stroke-linejoin="round" color="#000" font-family="KaTeX_Main" font-size="8" transform="translate(116 10.11)"><tspan>AVLBottomUp</tspan></text><g fill="none" stroke="currentColor" stroke-linecap="round" stroke-linejoin="round" color="#000"><path stroke="#000" d="M80.5 7.51h29.9M28 166.53l.37-.17.38-.2.37-.23.38-.21.37-.17.37-.1h.38l.37.1.38.22.37.34.37.42.38.5.37.54.37.53.38.49.37.4.38.28.37.11.37-.07.38-.28.37-.5.38-.71.37-.91.37-1.1.38-1.24.37-1.37.38-1.45.37-1.48.37-1.48.38-1.44.37-1.37.37-1.25.38-1.12.37-.97.38-.8.37-.63.37-.46.38-.31.37-.16.38-.03.37.08.37.16.38.23.37.26.38.28.37.29.37.28.38.25.37.23.38.19.37.16.37.13.38.11.37.08.37.08.38.07.37.07.38.08.37.1.37.11.38.14.37.16.38.19.37.21.37.24.38.27.37.29.38.32.37.35.37.36.38.4.37.43.37.45.38.49.37.52.38.54.37.59.37.61.38.65.37.68.38.7.37.73.37.75.38.77.37.78.38.79.37.79.37.78.38.78.37.76.38.75.37.72.37.7.38.66.37.63.37.59.38.54.37.51.38.45.37.41.37.35.38.3.37.25.38.19.37.14.37.08.38.03.37-.02.38-.06.37-.11.37-.15.38-.2.37-.22.37-.24.38-.27.37-.29.38-.3.37-.31.37-.31.38-.32.37-.32.38-.32.37-.33.37-.32.38-.33.37-.34.38-.36.37-.38.37-.4.38-.43.37-.47.38-.52.37-.56.37-.62.38-.68.37-.74.37-.8.38-.88.37-.94.38-1 .37-1.06.37-1.13.38-1.17.37-1.22.38-1.27.37-1.3.37-1.32.38-1.35.37-1.35.38-1.36.37-1.37.37-1.35.38-1.34.37-1.33.37-1.3.38-1.28.37-1.25.38-1.23.37-1.19.37-1.16.38-1.13.37-1.09.38-1.06.37-1.02.37-.98.38-.94.37-.89.38-.85.37-.79.37-.73.38-.67.37-.6.38-.52.37-.45.37-.35.38-.27.37-.16.37-.07.38.04.37.15.38.26.37.38.37.48.38.6.37.7.38.81.37.9.37 1 .38 1.08.37 1.15.38 1.22.37 1.27.37 1.31.38 1.34.37 1.36.37 1.37.38 1.35.37 1.34.38 1.3.37 1.25.37 1.2.38 1.12.37 1.05.38.96.37.85.37.75.38.64.37.53.38.39.37.28.37.14.38.02.37-.12.38-.24.37-.36.37-.49.38-.6.37-.71.37-.81.38-.9.37-.99.38-1.06.37-1.12.37-1.17.38-1.21.37-1.23.38-1.24.37-1.24.37-1.22.38-1.2.37-1.15.38-1.09.37-1.03.37-.95.38-.86.37-.76.37-.66.38-.54.37-.43.38-.3.37-.17.37-.05.38.08.37.2.38.32.37.44.37.54.38.66.37.74.38.84.37.91.37.97.38 1.04.37 1.08.38 1.11.37 1.14.37 1.16.38 1.16.37 1.15.37 1.14.38 1.12.37 1.09.38 1.05.37 1.01.37.97.38.92.37.86.38.81.37.75.37.7.38.63.37.58.38.52.37.46.37.4.38.35.37.3.37.23.38.18.37.14.38.08.37.02.37-.02.38-.07.37-.12.38-.17.37-.21.37-.25.38-.3.37-.34.38-.37.37-.41.37-.43.38-.46.37-.47.38-.49.37-.49.37-.49.38-.49.37-.47.37-.44.38-.42.37-.38.38-.34.37-.3.37-.24.38-.17.37-.12.38-.05.37.02.37.08.38.16.37.22.38.28.37.34.37.4.38.44.37.48.37.52.38.53.37.55.38.56.37.54.37.53.38.5.37.46.38.41.37.35.37.28.38.2.37.13.38.02.37-.06.37-.17.38-.27.37-.37.38-.48.37-.59.37-.69.38-.79.37-.89.37-.98.38-1.07.37-1.14.38-1.22.37-1.27.37-1.33.38-1.37.37-1.41.38-1.42.37-1.44.37-1.43.38-1.42.37-1.4.38-1.36.37-1.31.37-1.26.38-1.19.37-1.12.37-1.03.38-.93.37-.84.38-.73.37-.62.37-.5.38-.39.37-.26.38-.15.37-.03.37.09.38.21.37.31.38.42.37.52.37.62.38.7.37.78.38.85.37.91.37.96.38 1.01.37 1.05.37 1.08.38 1.09.37 1.11.38 1.12.37 1.11.37 1.11.38 1.09.37 1.08.38 1.06.37 1.03.37 1.01.38.98.37.94.38.91.37.86.37.83.38.79.37.75.37.7.38.65.37.61.38.56.37.51.37.45.38.4.37.35.38.28.37.24.37.17.38.11.37.06h.38l.37-.06.37-.1.38-.17.37-.21.38-.26.37-.3.37-.33.38-.37.37-.4.37-.42.38-.43.37-.45.38-.44.37-.46.37-.44.38-.43.37-.42.38-.39.37-.38.37-.34.38-.31.37-.28.38-.25.37-.2.37-.18.38-.13.37-.1.37-.06.38-.03.37.01.38.04.37.07.37.1.38.13.37.15.38.18.37.21.37.23.38.25.37.27.38.3.37.32.37.34.38.36.37.39.38.41.37.44.37.45.38.49.37.5.37.53.38.56.37.57.38.6.37.63.37.64.38.66.37.67.38.69.37.7.37.7.38.71.37.71.38.71.37.7.37.69.38.67.37.65.37.63.38.6.37.57.38.54.37.49.37.45.38.41.37.36.38.31.37.25.37.2.38.14.37.08.38.02.37-.04.37-.11.38-.16.37-.22.37-.28.38-.34.37-.4.38-.45.37-.5.37-.55.38-.59.37-.63.38-.67.37-.7.37-.73.38-.75.37-.77.38-.78.37-.79.37-.79.38-.79.37-.78.38-.78.37-.75.37-.74.38-.71.37-.69.37-.65.38-.63.37-.59.38-.55.37-.52.37-.47.38-.44.37-.41.38-.37.37-.33.37-.3.38-.27.37-.25.38-.22.37-.21.37-.19.38-.18.37-.18.37-.18.38-.18.37-.2.38-.21.37-.23.37-.25.38-.28.37-.31.38-.34.37-.38.37-.41.38-.44.37-.48.38-.5.37-.54.37-.56.38-.59.37-.6.38-.61.37-.62.37-.62.38-.62.37-.6.37-.59.38-.56.37-.53.38-.5.37-.45.37-.41.38-.36.37-.3.38-.26.37-.19.37-.14.38-.08.37-.03.38.03.37.07.37.13.38.16.37.21.37.24.38.26.37.29.38.31.37.31.37.32.38.31.37.31.38.29.37.27.37.25.38.22.37.19.38.15.37.12.37.07.38.04h.37l.38-.03.37-.08.37-.1.38-.13.37-.15.37-.18.38-.18.37-.19.38-.19.37-.18.37-.16.38-.14.37-.11.38-.07.37-.03.37.03.38.08.37.14.38.2.37.28.37.34.38.42.37.49.37.56.38.63.37.69.38.76.37.81.37.87.38.91.37.94.38.98.37.99.37 1.01.38 1 .37.99.38.97.37.94.37.89.38.83.37.77.38.69.37.6.37.5.38.39.37.28.37.16.38.03.37-.1.38-.24.37-.37.37-.51.38-.64.37-.77.38-.9.37-1.01.37-1.13.38-1.23.37-1.32.38-1.4.37-1.48.37-1.53.38-1.57.37-1.61.37-1.63.38-1.63.37-1.62.38-1.61.37-1.57.37-1.53.38-1.48.37-1.41.38-1.35.37-1.26.37-1.17.38-1.08.37-.98.38-.87.37-.77.37-.65.38-.55.37-.43.38-.31.37-.21.37-.09.38.01.37.13.37.22.38.34.37.43.38.53.37.64.37.72.38.82.37.91.38 1.01.37 1.09.37 1.19.38 1.27.37 1.37.38 1.46.37 1.54.37 1.63.38 1.7.37 1.79.37 1.86.38 1.92.37 1.98.38 2.02.37 2.06.37 2.09.38 2.1.37 2.1.38 2.08.37 2.05.37 2 .38 1.94.37 1.87.38 1.78.37 1.68.37 1.56.38 1.44.37 1.31.38 1.16.37 1.02.37.86.38.72.37.55.37.4.38.25.37.09.38-.05.37-.19.37-.33.38-.46.37-.58.38-.69.37-.8.37-.89.38-.99.37-1.07.38-1.14.37-1.2.37-1.26.38-1.31.37-1.34.37-1.37.38-1.39.37-1.41.38-1.41.37-1.4.37-1.4.38-1.39.37-1.37.38-1.35.37-1.32.37-1.31.38-1.28.37-1.26.38-1.24.37-1.22.37-1.22.38-1.2.37-1.22.38-1.21.37-1.23.37-1.24.38-1.26.37-1.29.37-1.3.38-1.32.37-1.34.38-1.35.37-1.35.37-1.34.38-1.33.37-1.29.38-1.26.37-1.19.37-1.13.38-1.04.37-.96.38-.84.37-.74.37-.63.38-.51.37-.39.37-.28.38-.18.37-.09h.38l.37.08.37.13.38.18.37.21.38.24.37.26.37.26.38.26.37.27.38.26.37.26.37.27.38.27.37.28.38.29.37.31.37.33.38.36.37.38.37.4.38.42.37.44.38.46.37.48.37.49.38.51.37.51.38.53.37.54.37.57.38.58.37.61.38.63.37.68.37.7.38.76.37.79.37.84.38.89.37.95.38 1.01.37 1.07.37 1.14.38 1.22.37 1.31.38 1.41.37 1.52.37 1.64.38 1.77.37 1.88.38 2.01.37 2.11.37 2.2.38 2.27.37 2.3.38 2.31.37 2.28.37 2.24.38 2.17.37 2.1.37 2.03.38 1.97.37 1.95.38 1.94.37 1.98.37 2.03.38 2.08.37 2.14.38 2.14.37 2.08.37 1.89.38 1.59.37 1.13.38.52.37-.25.37-1.13.38-2.1.37-3.1.37-4.06.38-4.93.37-5.65.38-6.16.37-6.43.37-6.48.38-6.27.37-5.85.38-5.25.37-4.5.37-3.66.38-2.74.37-1.8.38-.84.37.13.37 1.08.38 2 .37 2.86.38 3.66.37 4.33.37 4.86.38 5.19.37 5.28.37 5.1.38 4.6.37 3.78.38 2.64.37 1.23.37-.36.38-1.97.37-3.4.38-4.38.37-4.69.37-4.15.38-2.69.37-.45.38 2.21.37 4.74.37 6.57.38 7.19.37 6.42.37 4.5.38 1.99.37-.6.38-3.47.37-7.67.37-14.23.38-20.86.37-19.11.38 1.42.37 37.83"/><use xlink:href="#g" transform="matrix(3.75 0 0 3.75 342.45 145.16)"/><use xlink:href="#g" transform="matrix(3.75 0 0 3.75 95.45 7.51)"/></g><text fill="#000" stroke="none" stroke-linecap="round" stroke-linejoin="round" color="#000" font-family="KaTeX_Main" font-size="8" transform="translate(116 25.11)"><tspan>AVLTopDown</tspan></text><g fill="none" stroke="currentColor" stroke-linecap="round" stroke-linejoin="round" color="#000"><path stroke="#29C3F6" stroke-dasharray="1.0,2.0" d="M80.5 22.51h29.9M28 166.53l.37-.17.38-.2.37-.23.38-.21.37-.17.37-.1h.38l.37.1.38.22.37.34.37.42.38.5.37.54.37.53.38.49.37.4.38.28.37.11.37-.07.38-.28.37-.5.38-.71.37-.91.37-1.1.38-1.24.37-1.37.38-1.45.37-1.48.37-1.48.38-1.44.37-1.37.37-1.25.38-1.12.37-.97.38-.8.37-.63.37-.46.38-.31.37-.16.38-.03.37.08.37.16.38.23.37.26.38.28.37.29.37.28.38.25.37.23.38.19.37.16.37.13.38.11.37.08.37.08.38.07.37.07.38.08.37.1.37.11.38.14.37.16.38.19.37.21.37.24.38.27.37.29.38.32.37.35.37.36.38.4.37.43.37.45.38.49.37.52.38.54.37.59.37.61.38.65.37.68.38.7.37.73.37.75.38.77.37.78.38.79.37.79.37.78.38.78.37.76.38.75.37.72.37.7.38.66.37.63.37.59.38.54.37.51.38.45.37.41.37.35.38.3.37.25.38.19.37.14.37.08.38.03.37-.02.38-.06.37-.11.37-.15.38-.2.37-.22.37-.24.38-.27.37-.29.38-.3.37-.31.37-.31.38-.32.37-.32.38-.32.37-.33.37-.32.38-.33.37-.34.38-.36.37-.38.37-.4.38-.43.37-.47.38-.52.37-.56.37-.62.38-.68.37-.74.37-.8.38-.88.37-.94.38-1 .37-1.06.37-1.13.38-1.17.37-1.22.38-1.27.37-1.3.37-1.32.38-1.35.37-1.35.38-1.36.37-1.37.37-1.35.38-1.34.37-1.33.37-1.3.38-1.28.37-1.25.38-1.23.37-1.19.37-1.16.38-1.13.37-1.09.38-1.06.37-1.02.37-.98.38-.94.37-.89.38-.85.37-.79.37-.73.38-.67.37-.6.38-.52.37-.45.37-.35.38-.27.37-.16.37-.07.38.04.37.15.38.26.37.38.37.48.38.6.37.7.38.81.37.9.37 1 .38 1.08.37 1.15.38 1.22.37 1.27.37 1.31.38 1.34.37 1.36.37 1.37.38 1.35.37 1.34.38 1.3.37 1.25.37 1.2.38 1.12.37 1.05.38.96.37.85.37.75.38.64.37.53.38.39.37.28.37.14.38.02.37-.12.38-.24.37-.36.37-.49.38-.6.37-.71.37-.81.38-.9.37-.99.38-1.06.37-1.12.37-1.17.38-1.21.37-1.23.38-1.24.37-1.24.37-1.22.38-1.2.37-1.15.38-1.09.37-1.03.37-.95.38-.86.37-.76.37-.66.38-.54.37-.43.38-.3.37-.17.37-.05.38.08.37.2.38.32.37.44.37.54.38.66.37.74.38.84.37.91.37.97.38 1.04.37 1.08.38 1.11.37 1.14.37 1.16.38 1.16.37 1.15.37 1.14.38 1.12.37 1.09.38 1.05.37 1.01.37.97.38.92.37.86.38.81.37.75.37.7.38.63.37.58.38.52.37.46.37.4.38.35.37.3.37.23.38.18.37.14.38.08.37.02.37-.02.38-.07.37-.12.38-.17.37-.21.37-.25.38-.3.37-.34.38-.37.37-.41.37-.43.38-.46.37-.47.38-.49.37-.49.37-.49.38-.49.37-.47.37-.44.38-.42.37-.38.38-.34.37-.3.37-.24.38-.17.37-.12.38-.05.37.02.37.08.38.16.37.22.38.28.37.34.37.4.38.44.37.48.37.52.38.53.37.55.38.56.37.54.37.53.38.5.37.46.38.41.37.35.37.28.38.2.37.13.38.02.37-.06.37-.17.38-.27.37-.37.38-.48.37-.59.37-.69.38-.79.37-.89.37-.98.38-1.07.37-1.14.38-1.22.37-1.27.37-1.33.38-1.37.37-1.41.38-1.42.37-1.44.37-1.43.38-1.42.37-1.4.38-1.36.37-1.31.37-1.26.38-1.19.37-1.12.37-1.03.38-.93.37-.84.38-.73.37-.62.37-.5.38-.39.37-.26.38-.15.37-.03.37.09.38.21.37.31.38.42.37.52.37.62.38.7.37.78.38.85.37.91.37.96.38 1.01.37 1.05.37 1.08.38 1.09.37 1.11.38 1.12.37 1.11.37 1.11.38 1.09.37 1.08.38 1.06.37 1.03.37 1.01.38.98.37.94.38.91.37.86.37.83.38.79.37.75.37.7.38.65.37.61.38.56.37.51.37.45.38.4.37.35.38.28.37.24.37.17.38.11.37.06h.38l.37-.06.37-.1.38-.17.37-.21.38-.26.37-.3.37-.33.38-.37.37-.4.37-.42.38-.43.37-.45.38-.44.37-.46.37-.44.38-.43.37-.42.38-.39.37-.38.37-.34.38-.31.37-.28.38-.25.37-.2.37-.18.38-.13.37-.1.37-.06.38-.03.37.01.38.04.37.07.37.1.38.13.37.15.38.18.37.21.37.23.38.25.37.27.38.3.37.32.37.34.38.36.37.39.38.41.37.44.37.45.38.49.37.5.37.53.38.56.37.57.38.6.37.63.37.64.38.66.37.67.38.69.37.7.37.7.38.71.37.71.38.71.37.7.37.69.38.67.37.65.37.63.38.6.37.57.38.54.37.49.37.45.38.41.37.36.38.31.37.25.37.2.38.14.37.08.38.02.37-.04.37-.11.38-.16.37-.22.37-.28.38-.34.37-.4.38-.45.37-.5.37-.55.38-.59.37-.63.38-.67.37-.7.37-.73.38-.75.37-.77.38-.78.37-.79.37-.79.38-.79.37-.78.38-.78.37-.75.37-.74.38-.71.37-.69.37-.65.38-.63.37-.59.38-.55.37-.52.37-.47.38-.44.37-.41.38-.37.37-.33.37-.3.38-.27.37-.25.38-.22.37-.21.37-.19.38-.18.37-.18.37-.18.38-.18.37-.2.38-.21.37-.23.37-.25.38-.28.37-.31.38-.34.37-.38.37-.41.38-.44.37-.48.38-.5.37-.54.37-.56.38-.59.37-.6.38-.61.37-.62.37-.62.38-.62.37-.6.37-.59.38-.56.37-.53.38-.5.37-.45.37-.41.38-.36.37-.3.38-.26.37-.19.37-.14.38-.08.37-.03.38.03.37.07.37.13.38.16.37.21.37.24.38.26.37.29.38.31.37.31.37.32.38.31.37.31.38.29.37.27.37.25.38.22.37.19.38.15.37.12.37.07.38.04h.37l.38-.03.37-.08.37-.1.38-.13.37-.15.37-.18.38-.18.37-.19.38-.19.37-.18.37-.16.38-.14.37-.11.38-.07.37-.03.37.03.38.08.37.14.38.2.37.28.37.34.38.42.37.49.37.56.38.63.37.69.38.76.37.81.37.87.38.91.37.94.38.98.37.99.37 1.01.38 1 .37.99.38.97.37.94.37.89.38.83.37.77.38.69.37.6.37.5.38.39.37.28.37.16.38.03.37-.1.38-.24.37-.37.37-.51.38-.64.37-.77.38-.9.37-1.01.37-1.13.38-1.23.37-1.32.38-1.4.37-1.48.37-1.53.38-1.57.37-1.61.37-1.63.38-1.63.37-1.62.38-1.61.37-1.57.37-1.53.38-1.48.37-1.41.38-1.35.37-1.26.37-1.17.38-1.08.37-.98.38-.87.37-.77.37-.65.38-.55.37-.43.38-.31.37-.21.37-.09.38.01.37.13.37.22.38.34.37.43.38.53.37.64.37.72.38.82.37.91.38 1.01.37 1.09.37 1.19.38 1.27.37 1.37.38 1.46.37 1.54.37 1.63.38 1.7.37 1.79.37 1.86.38 1.92.37 1.98.38 2.02.37 2.06.37 2.09.38 2.1.37 2.1.38 2.08.37 2.05.37 2 .38 1.94.37 1.87.38 1.78.37 1.68.37 1.56.38 1.44.37 1.31.38 1.16.37 1.02.37.86.38.72.37.55.37.4.38.25.37.09.38-.05.37-.19.37-.33.38-.46.37-.58.38-.69.37-.8.37-.89.38-.99.37-1.07.38-1.14.37-1.2.37-1.26.38-1.31.37-1.34.37-1.37.38-1.39.37-1.41.38-1.41.37-1.4.37-1.4.38-1.39.37-1.37.38-1.35.37-1.32.37-1.31.38-1.28.37-1.26.38-1.24.37-1.22.37-1.22.38-1.2.37-1.22.38-1.21.37-1.23.37-1.24.38-1.26.37-1.29.37-1.3.38-1.32.37-1.34.38-1.35.37-1.35.37-1.34.38-1.33.37-1.29.38-1.26.37-1.19.37-1.13.38-1.04.37-.96.38-.84.37-.74.37-.63.38-.51.37-.39.37-.28.38-.18.37-.09h.38l.37.08.37.13.38.18.37.21.38.24.37.26.37.26.38.26.37.27.38.26.37.26.37.27.38.27.37.28.38.29.37.31.37.33.38.36.37.38.37.4.38.42.37.44.38.46.37.48.37.49.38.51.37.51.38.53.37.54.37.57.38.58.37.61.38.63.37.68.37.7.38.76.37.79.37.84.38.89.37.95.38 1.01.37 1.07.37 1.14.38 1.22.37 1.31.38 1.41.37 1.52.37 1.64.38 1.77.37 1.88.38 2.01.37 2.11.37 2.2.38 2.27.37 2.3.38 2.31.37 2.28.37 2.24.38 2.17.37 2.1.37 2.03.38 1.97.37 1.95.38 1.94.37 1.98.37 2.03.38 2.08.37 2.14.38 2.14.37 2.08.37 1.89.38 1.59.37 1.13.38.52.37-.25.37-1.13.38-2.1.37-3.1.37-4.06.38-4.93.37-5.65.38-6.16.37-6.43.37-6.48.38-6.27.37-5.85.38-5.25.37-4.5.37-3.66.38-2.74.37-1.8.38-.84.37.13.37 1.08.38 2 .37 2.86.38 3.66.37 4.33.37 4.86.38 5.19.37 5.28.37 5.1.38 4.6.37 3.78.38 2.64.37 1.23.37-.36.38-1.97.37-3.4.38-4.38.37-4.69.37-4.15.38-2.69.37-.45.38 2.21.37 4.74.37 6.57.38 7.19.37 6.42.37 4.5.38 1.99.37-.6.38-3.47.37-7.67.37-14.23.38-20.86.37-19.11.38 1.42.37 37.83"/><use xlink:href="#h" color="#29C3F6" transform="matrix(3.75 0 0 3.75 56.04 158.31)"/><use xlink:href="#h" color="#29C3F6" transform="matrix(3.75 0 0 3.75 95.45 22.51)"/></g><text fill="#000" stroke="none" stroke-linecap="round" stroke-linejoin="round" color="#000" font-family="KaTeX_Main" font-size="8" transform="translate(241.1 10.11)"><tspan>AVLWeakBottomUp</tspan></text><g fill="none" stroke="currentColor" stroke-linecap="round" stroke-linejoin="round" color="#000"><path stroke="#3B75EA" d="M205.6 7.51h29.9M28 166.53l.37-.17.38-.2.37-.23.38-.21.37-.17.37-.1h.38l.37.1.38.22.37.34.37.42.38.5.37.54.37.53.38.49.37.4.38.28.37.11.37-.07.38-.28.37-.5.38-.71.37-.91.37-1.1.38-1.24.37-1.37.38-1.45.37-1.48.37-1.48.38-1.44.37-1.37.37-1.25.38-1.12.37-.97.38-.8.37-.63.37-.46.38-.31.37-.16.38-.03.37.08.37.16.38.23.37.26.38.28.37.29.37.28.38.25.37.23.38.19.37.16.37.13.38.11.37.08.37.08.38.07.37.07.38.08.37.1.37.11.38.14.37.16.38.19.37.21.37.24.38.27.37.29.38.32.37.35.37.36.38.4.37.43.37.45.38.49.37.52.38.54.37.59.37.61.38.65.37.68.38.7.37.73.37.75.38.77.37.78.38.79.37.79.37.78.38.78.37.76.38.75.37.72.37.7.38.66.37.63.37.59.38.54.37.51.38.45.37.41.37.35.38.3.37.25.38.19.37.14.37.08.38.03.37-.02.38-.06.37-.11.37-.15.38-.2.37-.22.37-.24.38-.27.37-.29.38-.3.37-.31.37-.31.38-.32.37-.32.38-.32.37-.33.37-.32.38-.33.37-.34.38-.36.37-.38.37-.4.38-.43.37-.47.38-.52.37-.56.37-.62.38-.68.37-.74.37-.8.38-.88.37-.94.38-1 .37-1.06.37-1.13.38-1.17.37-1.22.38-1.27.37-1.3.37-1.32.38-1.35.37-1.35.38-1.36.37-1.37.37-1.35.38-1.34.37-1.33.37-1.3.38-1.28.37-1.25.38-1.23.37-1.19.37-1.16.38-1.13.37-1.09.38-1.06.37-1.02.37-.98.38-.94.37-.89.38-.85.37-.79.37-.73.38-.67.37-.6.38-.52.37-.45.37-.35.38-.27.37-.16.37-.07.38.04.37.15.38.26.37.38.37.48.38.6.37.7.38.81.37.9.37 1 .38 1.08.37 1.15.38 1.22.37 1.27.37 1.31.38 1.34.37 1.36.37 1.37.38 1.35.37 1.34.38 1.3.37 1.25.37 1.2.38 1.12.37 1.05.38.96.37.85.37.75.38.64.37.53.38.39.37.28.37.14.38.02.37-.12.38-.24.37-.36.37-.49.38-.6.37-.71.37-.81.38-.9.37-.99.38-1.06.37-1.12.37-1.17.38-1.21.37-1.23.38-1.24.37-1.24.37-1.22.38-1.2.37-1.15.38-1.09.37-1.03.37-.95.38-.86.37-.76.37-.66.38-.54.37-.43.38-.3.37-.17.37-.05.38.08.37.2.38.32.37.44.37.54.38.66.37.74.38.84.37.91.37.97.38 1.04.37 1.08.38 1.11.37 1.14.37 1.16.38 1.16.37 1.15.37 1.14.38 1.12.37 1.09.38 1.05.37 1.01.37.97.38.92.37.86.38.81.37.75.37.7.38.63.37.58.38.52.37.46.37.4.38.35.37.3.37.23.38.18.37.14.38.08.37.02.37-.02.38-.07.37-.12.38-.17.37-.21.37-.25.38-.3.37-.34.38-.37.37-.41.37-.43.38-.46.37-.47.38-.49.37-.49.37-.49.38-.49.37-.47.37-.44.38-.42.37-.38.38-.34.37-.3.37-.24.38-.17.37-.12.38-.05.37.02.37.08.38.16.37.22.38.28.37.34.37.4.38.44.37.48.37.52.38.53.37.55.38.56.37.54.37.53.38.5.37.46.38.41.37.35.37.28.38.2.37.13.38.02.37-.06.37-.17.38-.27.37-.37.38-.48.37-.59.37-.69.38-.79.37-.89.37-.98.38-1.07.37-1.14.38-1.22.37-1.27.37-1.33.38-1.37.37-1.41.38-1.42.37-1.44.37-1.43.38-1.42.37-1.4.38-1.36.37-1.31.37-1.26.38-1.19.37-1.12.37-1.03.38-.93.37-.84.38-.73.37-.62.37-.5.38-.39.37-.26.38-.15.37-.03.37.09.38.21.37.31.38.42.37.52.37.62.38.7.37.78.38.85.37.91.37.96.38 1.01.37 1.05.37 1.08.38 1.09.37 1.11.38 1.12.37 1.11.37 1.11.38 1.09.37 1.08.38 1.06.37 1.03.37 1.01.38.98.37.94.38.91.37.86.37.83.38.79.37.75.37.7.38.65.37.61.38.56.37.51.37.45.38.4.37.35.38.28.37.24.37.17.38.11.37.06h.38l.37-.06.37-.1.38-.17.37-.21.38-.26.37-.3.37-.33.38-.37.37-.4.37-.42.38-.43.37-.45.38-.44.37-.46.37-.44.38-.43.37-.42.38-.39.37-.38.37-.34.38-.31.37-.28.38-.25.37-.2.37-.18.38-.13.37-.1.37-.06.38-.03.37.01.38.04.37.07.37.1.38.13.37.15.38.18.37.21.37.23.38.25.37.27.38.3.37.32.37.34.38.36.37.39.38.41.37.44.37.45.38.49.37.5.37.53.38.56.37.57.38.6.37.63.37.64.38.66.37.67.38.69.37.7.37.7.38.71.37.71.38.71.37.7.37.69.38.67.37.65.37.63.38.6.37.57.38.54.37.49.37.45.38.41.37.36.38.31.37.25.37.2.38.14.37.08.38.02.37-.04.37-.11.38-.16.37-.22.37-.28.38-.34.37-.4.38-.45.37-.5.37-.55.38-.59.37-.63.38-.67.37-.7.37-.73.38-.75.37-.77.38-.78.37-.79.37-.79.38-.79.37-.78.38-.78.37-.75.37-.74.38-.71.37-.69.37-.65.38-.63.37-.59.38-.55.37-.52.37-.47.38-.44.37-.41.38-.37.37-.33.37-.3.38-.27.37-.25.38-.22.37-.21.37-.19.38-.18.37-.18.37-.18.38-.18.37-.2.38-.21.37-.23.37-.25.38-.28.37-.31.38-.34.37-.38.37-.41.38-.44.37-.48.38-.5.37-.54.37-.56.38-.59.37-.6.38-.61.37-.62.37-.62.38-.62.37-.6.37-.59.38-.56.37-.53.38-.5.37-.45.37-.41.38-.36.37-.3.38-.26.37-.19.37-.14.38-.08.37-.03.38.03.37.07.37.13.38.16.37.21.37.24.38.26.37.29.38.31.37.31.37.32.38.31.37.31.38.29.37.27.37.25.38.22.37.19.38.15.37.12.37.07.38.04h.37l.38-.03.37-.08.37-.1.38-.13.37-.15.37-.18.38-.18.37-.19.38-.19.37-.18.37-.16.38-.14.37-.11.38-.07.37-.03.37.03.38.08.37.14.38.2.37.28.37.34.38.42.37.49.37.56.38.63.37.69.38.76.37.81.37.87.38.91.37.94.38.98.37.99.37 1.01.38 1 .37.99.38.97.37.94.37.89.38.83.37.77.38.69.37.6.37.5.38.39.37.28.37.16.38.03.37-.1.38-.24.37-.37.37-.51.38-.64.37-.77.38-.9.37-1.01.37-1.13.38-1.23.37-1.32.38-1.4.37-1.48.37-1.53.38-1.57.37-1.61.37-1.63.38-1.63.37-1.62.38-1.61.37-1.57.37-1.53.38-1.48.37-1.41.38-1.35.37-1.26.37-1.17.38-1.08.37-.98.38-.87.37-.77.37-.65.38-.55.37-.43.38-.31.37-.21.37-.09.38.01.37.13.37.22.38.34.37.43.38.53.37.64.37.72.38.82.37.91.38 1.01.37 1.09.37 1.19.38 1.27.37 1.37.38 1.46.37 1.54.37 1.63.38 1.7.37 1.79.37 1.86.38 1.92.37 1.98.38 2.02.37 2.06.37 2.09.38 2.1.37 2.1.38 2.08.37 2.05.37 2 .38 1.94.37 1.87.38 1.78.37 1.68.37 1.56.38 1.44.37 1.31.38 1.16.37 1.02.37.86.38.72.37.55.37.4.38.25.37.09.38-.05.37-.19.37-.33.38-.46.37-.58.38-.69.37-.8.37-.89.38-.99.37-1.07.38-1.14.37-1.2.37-1.26.38-1.31.37-1.34.37-1.37.38-1.39.37-1.41.38-1.41.37-1.4.37-1.4.38-1.39.37-1.37.38-1.35.37-1.32.37-1.31.38-1.28.37-1.26.38-1.24.37-1.22.37-1.22.38-1.2.37-1.22.38-1.21.37-1.23.37-1.24.38-1.26.37-1.29.37-1.3.38-1.32.37-1.34.38-1.35.37-1.35.37-1.34.38-1.33.37-1.29.38-1.26.37-1.19.37-1.13.38-1.04.37-.96.38-.84.37-.74.37-.63.38-.51.37-.39.37-.28.38-.18.37-.09h.38l.37.08.37.13.38.18.37.21.38.24.37.26.37.26.38.26.37.27.38.26.37.26.37.27.38.27.37.28.38.29.37.31.37.33.38.36.37.38.37.4.38.42.37.44.38.46.37.48.37.49.38.51.37.51.38.53.37.54.37.57.38.58.37.61.38.63.37.68.37.7.38.76.37.79.37.84.38.89.37.95.38 1.01.37 1.07.37 1.14.38 1.22.37 1.31.38 1.41.37 1.52.37 1.64.38 1.77.37 1.88.38 2.01.37 2.11.37 2.2.38 2.27.37 2.3.38 2.31.37 2.28.37 2.24.38 2.17.37 2.1.37 2.03.38 1.97.37 1.95.38 1.94.37 1.98.37 2.03.38 2.08.37 2.14.38 2.14.37 2.08.37 1.89.38 1.59.37 1.13.38.52.37-.25.37-1.13.38-2.1.37-3.1.37-4.06.38-4.93.37-5.65.38-6.16.37-6.43.37-6.48.38-6.27.37-5.85.38-5.25.37-4.5.37-3.66.38-2.74.37-1.8.38-.84.37.13.37 1.08.38 2 .37 2.86.38 3.66.37 4.33.37 4.86.38 5.19.37 5.28.37 5.1.38 4.6.37 3.78.38 2.64.37 1.23.37-.36.38-1.97.37-3.4.38-4.38.37-4.69.37-4.15.38-2.69.37-.45.38 2.21.37 4.74.37 6.57.38 7.19.37 6.42.37 4.5.38 1.99.37-.6.38-3.47.37-7.67.37-14.23.38-20.86.37-19.11.38 1.42.37 37.83"/><use xlink:href="#d" color="#3B75EA" transform="matrix(3.75 0 0 3.75 113.62 138.75)"/><use xlink:href="#d" color="#3B75EA" transform="matrix(3.75 0 0 3.75 220.55 7.51)"/></g><text fill="#000" stroke="none" stroke-linecap="round" stroke-linejoin="round" color="#000" font-family="KaTeX_Main" font-size="8" transform="translate(241.1 25.11)"><tspan>AVLWeakTopDown</tspan></text><g fill="none" stroke="currentColor" stroke-linecap="round" stroke-linejoin="round" color="#000"><path stroke="#00C853" stroke-dasharray="4.5,2.0,0.5,2.0,0.5,2.0" d="M205.6 22.51h29.9M28 114.55l.37.59.38.58.37.6.38.67.37.76.37.9.38 1.07.37 1.23.38 1.41.37 1.57.37 1.69.38 1.76.37 1.79.37 1.73.38 1.61.37 1.41.38 1.15.37.82.37.45.38.03.37-.39.38-.83.37-1.24.37-1.63.38-1.98.37-2.27.38-2.49.37-2.66.37-2.76.38-2.77.37-2.74.37-2.65.38-2.49.37-2.31.38-2.09.37-1.85.37-1.61.38-1.34.37-1.11.38-.87.37-.64.37-.45.38-.26.37-.11.38.04.37.15.37.26.38.35.37.44.38.5.37.57.37.63.38.68.37.74.37.79.38.83.37.88.38.9.37.94.37.95.38.96.37.96.38.95.37.92.37.9.38.85.37.8.38.75.37.7.37.64.38.58.37.53.37.49.38.45.37.43.38.41.37.41.37.41.38.44.37.46.38.51.37.54.37.61.38.66.37.71.38.78.37.82.37.87.38.92.37.94.38.97.37.98.37.97.38.97.37.95.37.91.38.87.37.81.38.76.37.7.37.63.38.57.37.5.38.43.37.38.37.32.38.26.37.23.38.19.37.16.37.14.38.12.37.12.37.11.38.11.37.1.38.11.37.1.37.11.38.09.37.08.38.07.37.04.37.01.38-.02.37-.06.38-.11.37-.16.37-.21.38-.27.37-.33.38-.39.37-.44.37-.5.38-.55.37-.61.37-.65.38-.69.37-.73.38-.77.37-.78.37-.82.38-.83.37-.85.38-.87.37-.87.37-.89.38-.9.37-.91.38-.92.37-.92.37-.95.38-.96.37-.98.37-1 .38-1.02.37-1.04.38-1.07.37-1.09.37-1.12.38-1.15.37-1.17.38-1.18.37-1.2.37-1.22.38-1.22.37-1.21.38-1.21.37-1.2.37-1.17.38-1.14.37-1.1.38-1.05.37-1 .37-.95.38-.87.37-.8.37-.72.38-.65.37-.55.38-.48.37-.39.37-.31.38-.22.37-.14.38-.08h.37l.37.07.38.13.37.17.38.23.37.26.37.29.38.31.37.33.37.34.38.33.37.34.38.32.37.3.37.28.38.25.37.22.38.18.37.14.37.1.38.05h.37l.38-.03.37-.09.37-.13.38-.18.37-.21.38-.26.37-.29.37-.33.38-.34.37-.37.37-.39.38-.39.37-.4.38-.39.37-.39.37-.37.38-.34.37-.32.38-.28.37-.25.37-.2.38-.15.37-.1.38-.05h.37l.37.05.38.11.37.16.37.2.38.26.37.29.38.34.37.37.37.4.38.42.37.45.38.46.37.47.37.48.38.49.37.48.38.48.37.48.37.48.38.46.37.46.38.45.37.44.37.44.38.43.37.43.37.43.38.43.37.43.38.43.37.44.37.45.38.45.37.46.38.47.37.48.37.49.38.49.37.5.38.49.37.49.37.49.38.48.37.46.37.44.38.42.37.39.38.35.37.32.37.27.38.22.37.16.38.11.37.05h.37l.38-.08.37-.14.38-.19.37-.26.37-.32.38-.37.37-.43.38-.47.37-.52.37-.55.38-.58.37-.59.37-.62.38-.61.37-.62.38-.6.37-.58.37-.56.38-.52.37-.48.38-.43.37-.38.37-.32.38-.26.37-.19.38-.13.37-.06.37.01.38.07.37.14.37.2.38.26.37.31.38.36.37.39.37.43.38.45.37.46.38.48.37.46.37.46.38.44.37.41.38.37.37.33.37.28.38.22.37.15.38.08.37.02.37-.07.38-.14.37-.22.37-.29.38-.38.37-.44.38-.51.37-.58.37-.63.38-.68.37-.72.38-.76.37-.78.37-.78.38-.8.37-.78.38-.76.37-.72.37-.69.38-.63.37-.58.37-.5.38-.42.37-.34.38-.25.37-.15.37-.04.38.05.37.15.38.26.37.36.37.46.38.55.37.64.38.71.37.8.37.85.38.91.37.96.38.99.37 1.02.37 1.03.38 1.05.37 1.04.37 1.03.38 1.01.37.99.38.96.37.91.37.88.38.83.37.78.38.74.37.67.37.63.38.57.37.53.38.46.37.42.37.36.38.32.37.27.37.21.38.17.37.12.38.06.37.02.37-.04.38-.09.37-.15.38-.2.37-.26.37-.33.38-.38.37-.45.38-.51.37-.58.37-.63.38-.71.37-.76.38-.82.37-.88.37-.94.38-.98.37-1.02.37-1.07.38-1.1.37-1.13.38-1.14.37-1.17.37-1.17.38-1.16.37-1.17.38-1.14.37-1.13.37-1.09.38-1.06.37-1.01.38-.97.37-.91.37-.84.38-.77.37-.7.37-.61.38-.52.37-.43.38-.34.37-.22.37-.12.38-.01.37.11.38.23.37.35.37.48.38.6.37.73.38.85.37.97.37 1.1.38 1.21.37 1.32.38 1.42.37 1.53.37 1.61.38 1.7.37 1.76.37 1.83.38 1.87.37 1.91.38 1.93.37 1.95.37 1.94.38 1.92.37 1.9.38 1.85.37 1.8.37 1.74.38 1.66.37 1.58.38 1.48.37 1.39.37 1.27.38 1.16.37 1.05.37.92.38.8.37.67.38.56.37.42.37.31.38.18.37.07.38-.05.37-.16.37-.27.38-.36.37-.46.38-.56.37-.65.37-.73.38-.8.37-.88.37-.95.38-1.01.37-1.07.38-1.12.37-1.17.37-1.2.38-1.24.37-1.28.38-1.28.37-1.31.37-1.31.38-1.32.37-1.31.38-1.29.37-1.27.37-1.24.38-1.21.37-1.16.38-1.11.37-1.06.37-.98.38-.92.37-.85.37-.76.38-.68.37-.59.38-.51.37-.41.37-.33.38-.24.37-.15.38-.07.37.01.37.08.38.16.37.21.38.27.37.32.37.35.38.39.37.41.37.42.38.43.37.42.38.41.37.39.37.36.38.33.37.28.38.24.37.18.37.13.38.07h.37l.38-.06.37-.12.37-.19.38-.25.37-.32.38-.37.37-.43.37-.48.38-.53.37-.57.37-.61.38-.64.37-.66.38-.68.37-.7.37-.7.38-.7.37-.7.38-.69.37-.67.37-.66.38-.62.37-.61.38-.57.37-.53.37-.5.38-.47.37-.42.37-.4.38-.35.37-.31.38-.28.37-.26.37-.21.38-.19.37-.16.38-.15.37-.12.37-.1.38-.08.37-.08.38-.06.37-.06.37-.05.38-.03.37-.04.38-.02.37-.02h.37l.38.01.37.03.37.05.38.08.37.1.38.14.37.18.37.23.38.27.37.33.38.39.37.45.37.51.38.59.37.66.38.73.37.81.37.87.38.95.37 1.01.37 1.09.38 1.14.37 1.2.38 1.25.37 1.29.37 1.33.38 1.36.37 1.39.38 1.4.37 1.41.37 1.4.38 1.4.37 1.37.38 1.34.37 1.3.37 1.25.38 1.19.37 1.11.38 1.04.37.93.37.84.38.74.37.6.37.49.38.35.37.2.38.06.37-.09.37-.24.38-.39.37-.55.38-.7.37-.85.37-.98.38-1.13.37-1.25.38-1.37.37-1.48.37-1.58.38-1.66.37-1.74.37-1.8.38-1.86.37-1.88.38-1.9.37-1.92.37-1.9.38-1.9.37-1.85.38-1.81.37-1.76.37-1.69.38-1.61.37-1.52.38-1.43.37-1.31.37-1.2.38-1.07.37-.94.38-.81.37-.67.37-.52.38-.38.37-.22.37-.08.38.07.37.21.38.36.37.5.37.63.38.76.37.88.38 1.01.37 1.11.37 1.22.38 1.31.37 1.4.38 1.49.37 1.56.37 1.62.38 1.69.37 1.73.37 1.78.38 1.8.37 1.83.38 1.84.37 1.85.37 1.83.38 1.82.37 1.79.38 1.74.37 1.7.37 1.62.38 1.56.37 1.46.38 1.36.37 1.25.37 1.14.38 1.02.37.88.38.74.37.6.37.46.38.32.37.17.37.04.38-.1.37-.23.38-.36.37-.47.37-.59.38-.68.37-.78.38-.86.37-.93.37-1 .38-1.05.37-1.1.38-1.14.37-1.17.37-1.2.38-1.2.37-1.21.37-1.21.38-1.2.37-1.18.38-1.17.37-1.14.37-1.11.38-1.07.37-1.04.38-1.01.37-.97.37-.94.38-.91.37-.88.38-.88.37-.87.37-.87.38-.89.37-.92.38-.95.37-1.01.37-1.07.38-1.13.37-1.21.37-1.28.38-1.36.37-1.43.38-1.5.37-1.54.37-1.58.38-1.59.37-1.59.38-1.54.37-1.5.37-1.4.38-1.29.37-1.16.38-1.01.37-.83.37-.65.38-.48.37-.28.37-.12.38.05.37.19.38.3.37.41.37.46.38.51.37.51.38.5.37.46.37.41.38.34.37.27.38.2.37.13.37.06.38.02.37-.02.38-.04.37-.04.37-.03.38.01.37.05.37.11.38.19.37.27.38.36.37.46.37.57.38.68.37.8.38.91.37 1.04.37 1.15.38 1.27.37 1.38.38 1.49.37 1.59.37 1.66.38 1.74.37 1.77.37 1.81.38 1.81.37 1.8.38 1.76.37 1.72.37 1.65.38 1.59.37 1.52.38 1.44.37 1.39.37 1.33.38 1.28.37 1.25.38 1.23.37 1.2.37 1.18.38 1.18.37 1.15.38 1.13.37 1.11.37 1.1.38 1.08.37 1.09.37 1.12.38 1.18.37 1.28.38 1.41.37 1.57.37 1.76.38 1.95.37 2.15.38 2.29.37 2.38.37 2.37.38 2.25.37 2.01.38 1.64.37 1.15.37.56.38-.1.37-.76.37-1.42.38-2.01.37-2.47.38-2.8.37-2.98.37-3.01.38-2.9.37-2.7.38-2.43.37-2.16.37-1.89.38-1.67.37-1.51.38-1.38.37-1.31.37-1.25.38-1.16.37-1.05.38-.89.37-.68.37-.42.38-.13.37.16.37.43.38.64.37.76.38.78.37.67.37.47.38.17.37-.18.38-.53.37-.84.37-1.01.38-1.01.37-.82.38-.46.37-.01.37.37.38.59.37.61.37.58.38.7.37.96.38.7.37-1.73.37-8.25.38-18.04.37-22.31.38-2.4.37 44.75"/><use xlink:href="#i" color="#00C853" transform="matrix(3.75 0 0 3.75 171.2 107.69)"/><use xlink:href="#i" color="#00C853" transform="matrix(3.75 0 0 3.75 220.55 22.51)"/></g><path fill="none" stroke="none" stroke-linecap="round" stroke-linejoin="round" stroke-width="0" d="M28 45.01V205M371.99 45.01H28" color="#000"/></svg>