<svg xmlns="http://www.w3.org/2000/svg" xmlns:xlink="http://www.w3.org/1999/xlink" viewBox="0 0 400 200"><path fill="none" d="M0 0h400v200H0z"/><defs><path id="a" stroke="currentColor" stroke-width=".222" d="M-1 0h2M0-1v2"/><path id="b" stroke="currentColor" stroke-width=".222" d="m-1-1 2 2m0-2-2 2"/></defs><g fill="none" stroke-linecap="round" stroke-linejoin="round" stroke-width="0" color="#000"><path d="M67.63 162.01v-9m0-43.01v9"/><text fill="#000" font-family="Arial" font-size="8" text-anchor="middle" transform="translate(67.63 173.61)"><tspan> 1</tspan></text></g><g fill="none" stroke-linecap="round" stroke-linejoin="round" stroke-width="0" color="#000"><path d="M96.17 162.01v-9m0-43.01v9"/><text fill="#000" font-family="Arial" font-size="8" text-anchor="middle" transform="translate(96.17 173.61)"><tspan> 2</tspan></text></g><g fill="none" stroke-linecap="round" stroke-linejoin="round" stroke-width="0" color="#000"><path d="M124.71 162.01v-9m0-43.01v9"/><text fill="#000" font-family="Arial" font-size="8" text-anchor="middle" transform="translate(124.71 173.61)"><tspan> 3</tspan></text></g><g fill="none" stroke-linecap="round" stroke-linejoin="round" stroke-width="0" color="#000"><path d="M153.25 162.01v-9m0-43.01v9"/><text fill="#000" font-family="Arial" font-size="8" text-anchor="middle" transform="translate(153.25 173.61)"><tspan> 4</tspan></text></g><g fill="none" stroke-linecap="round" stroke-linejoin="round" stroke-width="0" color="#000"><path d="M181.79 162.01v-9m0-43.01v9"/><text fill="#000" font-family="Arial" font-size="8" text-anchor="middle" transform="translate(181.79 173.61)"><tspan> 5</tspan></text></g><g fill="none" stroke-linecap="round" stroke-linejoin="round" stroke-width="0" color="#000"><path d="M210.33 162.01v-9m0-43.01v9"/><text fill="#000" font-family="Arial" font-size="8" text-anchor="middle" transform="translate(210.33 173.61)"><tspan> 6</tspan></text></g><g fill="none" stroke-linecap="round" stroke-linejoin="round" stroke-width="0" color="#000"><path d="M238.86 162.01v-9m0-43.01v9"/><text fill="#000" font-family="Arial" font-size="8" text-anchor="middle" transform="translate(238.86 173.61)"><tspan> 7</tspan></text></g><g fill="none" stroke-linecap="round" stroke-linejoin="round" stroke-width="0" color="#000"><path d="M267.4 162.01v-9m0-43.01v9"/><text fill="#000" font-family="Arial" font-size="8" text-anchor="middle" transform="translate(267.4 173.61)"><tspan> 8</tspan></text></g><g fill="none" stroke-linecap="round" stroke-linejoin="round" stroke-width="0" color="#000"><path d="M295.94 162.01v-9m0-43.01v9"/><text fill="#000" font-family="Arial" font-size="8" text-anchor="middle" transform="translate(295.94 173.61)"><tspan> 9</tspan></text></g><g fill="none" stroke-linecap="round" stroke-linejoin="round" stroke-width="0" color="#000"><path d="M324.48 162.01v-9m0-43.01v9"/><text fill="#000" font-family="Arial" font-size="8" text-anchor="middle" transform="translate(324.48 173.61)"><tspan> 10</tspan></text></g><g fill="none" stroke-linecap="round" stroke-linejoin="round" stroke-width="0" color="#000"><path d="M324.48 162.01h-9"/><text fill="#000" font-family="Arial" font-size="8" transform="translate(332.87 164.61)"><tspan>0.00</tspan></text></g><g fill="none" stroke-linecap="round" stroke-linejoin="round" stroke-width="0" color="#000"><path d="M324.48 155.51h-9"/><text fill="#000" font-family="Arial" font-size="8" transform="translate(332.87 158.11)"><tspan>0.01</tspan></text></g><g fill="none" stroke-linecap="round" stroke-linejoin="round" stroke-width="0" color="#000"><path d="M324.48 149.01h-9"/><text fill="#000" font-family="Arial" font-size="8" transform="translate(332.87 151.61)"><tspan>0.02</tspan></text></g><g fill="none" stroke-linecap="round" stroke-linejoin="round" stroke-width="0" color="#000"><path d="M324.48 142.51h-9"/><text fill="#000" font-family="Arial" font-size="8" transform="translate(332.87 145.11)"><tspan>0.03</tspan></text></g><g fill="none" stroke-linecap="round" stroke-linejoin="round" stroke-width="0" color="#000"><path d="M324.48 136h-9"/><text fill="#000" font-family="Arial" font-size="8" transform="translate(332.87 138.6)"><tspan>0.04</tspan></text></g><g fill="none" stroke-linecap="round" stroke-linejoin="round" stroke-width="0" color="#000"><path d="M324.48 129.5h-9"/><text fill="#000" font-family="Arial" font-size="8" transform="translate(332.87 132.1)"><tspan>0.05</tspan></text></g><g fill="none" stroke-linecap="round" stroke-linejoin="round" stroke-width="0" color="#000"><path d="M324.48 123h-9"/><text fill="#000" font-family="Arial" font-size="8" transform="translate(332.87 125.6)"><tspan>0.06</tspan></text></g><g fill="none" stroke-linecap="round" stroke-linejoin="round" stroke-width="0" color="#000"><path d="M324.48 116.5h-9"/><text fill="#000" font-family="Arial" font-size="8" transform="translate(332.87 119.1)"><tspan>0.07</tspan></text></g><g fill="none" stroke-linecap="round" stroke-linejoin="round" stroke-width="0" color="#000"><path d="M324.48 110h-9"/><text fill="#000" font-family="Arial" font-size="8" transform="translate(332.87 112.6)"><tspan>0.08</tspan></text></g><path fill="none" d="M41.95 110v52.01M324.48 110H41.95" color="#000"/><text stroke-linecap="round" stroke-linejoin="round" stroke-width="0" color="#000" font-family="Arial" font-size="8" text-anchor="middle" transform="rotate(-90 78.435 57.575)"><tspan font-weight="bold">Allocations </tspan><tspan> / log</tspan><tspan dy="2.4" font-size="6.4">2</tspan><tspan dy="-2.4">Size</tspan></text><text stroke-linecap="round" stroke-linejoin="round" stroke-width="0" color="#000" font-family="Arial" font-size="8" text-anchor="middle" transform="translate(183.21 191.61)"><tspan>Operations × 10</tspan><tspan dy="-4" font-size="6.4">5</tspan></text><text stroke-linecap="round" stroke-linejoin="round" color="#000" font-family="Arial" font-size="8" transform="translate(121.62 10.11)"><tspan>AVLBottomUp</tspan></text><g fill="none" stroke="currentColor" stroke-linecap="round" stroke-linejoin="round" color="#000"><path stroke="#000" d="M84.62 7.51h31.4M41.95 112.76l.14.28.14.26h.01l.13.24.15.23v.01l.14.21.14.21.01.01.13.18.14.19.01.02.13.16.14.18.02.01.12.15.15.16.01.02.13.14.14.14.02.02.12.13.14.13.02.02.12.12.14.12.03.03.12.1.14.12.02.02.12.1.14.11.03.02.11.09.14.11.03.02.11.08.14.1.04.03.11.07.14.1.04.02.1.07.14.09.04.03.1.06.14.09.05.02.09.06.15.09.04.02.1.06.14.08.05.02.09.05.14.08.05.03.09.04.14.08.06.03.08.04.15.07.05.03.09.04.14.07.06.02.08.04.14.07.06.02.08.04.14.06.07.03.08.03.14.06.06.03.08.03.14.06.07.03.07.03.14.06.08.03.06.02.14.06.08.03.07.02.14.05.08.03.06.03.14.05.08.03.06.02.14.05.09.03.05.02.15.05.08.02.06.02.14.05.09.03.05.02.14.04.09.03.05.02.14.04.1.03.04.02.15.04.09.03.05.01.14.04.1.03.04.02.14.04.1.03.04.01.14.04.11.03.04.01.14.04.11.03.03.01.14.03.11.03.03.01.14.04.12.03.02.01.14.03.12.03.03.01.14.04.12.03h.02l.14.04.12.03h.02l.14.04.13.03h.01l.15.03.12.03.02.01.14.03.13.03h.01l.14.03.13.03.01.01.14.03.14.03.15.03.13.03h.01l.14.03.14.03.14.03.14.03h.01l.13.03.15.03.14.03.14.02.01.01.13.02.14.03h.01l.13.03.14.03h.02l.12.02.15.03h.01l.13.03.14.03h.02l.12.02.14.03h.02l.12.03.14.03h.03l.12.02.14.03.02.01.12.02.14.03.03.01.11.02.14.03.03.01.11.03.14.03.04.01.11.03.14.04.04.01.1.03.14.04.04.02.1.03.14.06.05.01.09.04.15.07.04.02.1.05.14.08.05.02.09.06.14.09.05.04.09.07.14.11.06.05.09.08.14.14.05.06.09.09.14.17.06.08.08.11.14.2.06.09.08.13.14.24.07.12.08.14.14.29.06.14.08.17.14.33.07.17.07.18.14.39.08.2.06.2.15.44.07.24.07.22.14.49.08.28.06.23.14.55.08.32.06.25.14.59.09.37.05.25.15.65.08.41.06.26.14.69.09.45.05.27.14.73.09.49.05.27.14.76.1.53.05.26.14.79.09.56.05.25.14.82.1.58.04.24.14.82.1.61.04.22.14.83.11.61.04.21.14.82.11.62.03.19.14.8.11.63.03.16.14.78.12.62.02.15.15.74.11.61.03.12.14.71.12.59.02.1.14.67.12.56.02.09.14.62.13.53.01.07.15.57.12.5.02.05.14.53.13.46.01.04.14.47.13.43.01.02.14.43.14.38.01.02.14.38.13.35h.01l.14.34.14.31.14.29.14.27h.01l.13.25.15.23v.01l.14.2.14.2.01.01.13.17.14.16.01.01.13.14.14.13.02.02.13.1.14.11.01.01.13.09.14.08.02.01.12.06.14.06.02.01.12.04.14.04.03.01.12.02.14.02.02.01h.29l.11-.01.14-.02h.03l.11-.02.15-.04.03-.02.11-.03.14-.06.04-.02.1-.06.14-.08.04-.02.1-.07.14-.11.05-.03.09-.09.15-.13.04-.05.1-.1.14-.16.05-.06.09-.11.14-.19.05-.08.09-.13.14-.23.06-.08.09-.16.14-.25.05-.11.09-.17.14-.29.06-.13.08-.19.14-.33.06-.15.08-.2.14-.38.07-.17.08-.22.14-.41.06-.2.08-.23.14-.46.07-.23.07-.24.14-.49.08-.26.06-.25.15-.53.07-.29.07-.26.14-.57.08-.32.06-.26.14-.6.08-.35.06-.27.14-.63.09-.38.05-.26.15-.66.08-.41.06-.26.14-.68.09-.43.05-.26.14-.69.09-.46.05-.24.14-.71.1-.48.05-.23.14-.72.09-.49.05-.22.14-.71.1-.51.04-.2.14-.71.1-.51.04-.2.14-.69.11-.52.04-.17.14-.69.11-.51.03-.16.14-.66.11-.51.03-.14.14-.64.12-.5.02-.12.15-.61.11-.48.03-.11.14-.57.12-.48.02-.08.14-.54.12-.46.02-.07.14-.5.13-.43.01-.06.15-.47.12-.4.02-.05.14-.43.13-.37.01-.03.14-.4.13-.34.01-.03.14-.35.14-.32.01-.01.14-.32.13-.28.01-.01.14-.28.14-.26.14-.24.14-.23h.01l.13-.2.15-.19v-.01l.14-.17.14-.16.01-.01.13-.13.14-.13.01-.01.13-.1.14-.1.02-.01.13-.08.14-.07h.01l.13-.05.14-.05h.02l.12-.03.14-.01h.14l.14.01h.03l.12.01.14.04.02.01.12.04.14.06.03.01.11.06.14.09.03.02.11.08.15.11.03.03.11.1.14.14.04.04.1.11.14.17.04.05.1.13.14.19.05.06.09.15.15.23.04.07.1.17.14.25.05.09.09.18.14.28.05.11.09.19.14.32.06.12.09.21.14.34.05.14.09.22.14.38.06.16.08.23.14.41.06.18.08.24.14.44.07.2.08.25.14.47.06.22.08.26.14.49.07.25.07.26.14.52.08.27.06.26.15.54.07.3.07.26.14.56.08.32.06.25.14.59.08.33.06.26.14.59.09.36.05.25.15.61.08.37.06.24.14.62.09.38.05.23.14.63.09.4.05.22.14.62.1.41.05.21.14.61.09.43.05.19.14.61.1.43.04.17.14.6.1.43.04.17.14.58.11.43.04.15.14.57.11.42.03.14.14.54.11.42.03.12.14.53.12.41.02.1.15.5.11.4.03.09.14.47.12.39.02.07.14.45.12.37.02.06.14.41.13.36.01.04.15.39.12.33.02.04.14.36.13.31.01.02.14.33.13.29.01.02.14.29.14.26.01.01.14.27.13.23.01.01.14.23.14.21v.01l.14.19.14.19h.01l.13.17.15.15v.01l.14.13.14.13h.01l.13.11.14.09.01.01.13.07.14.07h.02l.13.05.14.04h.01l.13.02.14.01h.02l.12-.01.14-.02h.02l.12-.03.15-.05.02-.01.12-.05.14-.08.02-.01.12-.08.14-.1.03-.02.11-.1.14-.13.03-.04.11-.11.15-.17.03-.04.11-.13.14-.2.04-.05.1-.16.14-.22.04-.06.1-.18.14-.25.05-.08.1-.19.14-.28.04-.09.1-.21.14-.31.05-.11.09-.22.14-.34.05-.12.09-.23.14-.37.06-.15.09-.24.14-.4.05-.16.09-.25.14-.43.06-.18.08-.25.14-.46.06-.2.08-.26.15-.48.06-.22.08-.26.14-.5.06-.24.08-.27.14-.52.07-.26.07-.27.14-.54.08-.27.06-.27.15-.55.07-.3.07-.26.14-.57.08-.31.06-.26.14-.57.08-.33.06-.25.14-.58.09-.34.06-.24.14-.59.08-.35.06-.23.14-.59.09-.36.05-.22.14-.58.09-.37.05-.21.14-.57.1-.38.05-.19.14-.57.09-.38.05-.18.14-.55.1-.39.04-.16.14-.54.1-.38.04-.15.15-.52.1-.38.04-.13.14-.5.11-.37.03-.12.14-.48.11-.36.03-.1.14-.46.12-.35.02-.09.15-.43.11-.34.03-.07.14-.41.12-.32.02-.06.14-.38.12-.31.02-.05.14-.34.13-.29.02-.04.14-.32.12-.27.02-.03.14-.28.13-.25.01-.03.14-.25.13-.22.01-.02.14-.23.14-.2.01-.01.14-.19.13-.17.01-.01.14-.16.14-.15.14-.14.14-.12h.01l.14-.1.14-.09.14-.07.14-.06.01-.01.13-.04.14-.03h.01l.13-.01h.16l.13.01.14.03h.01l.13.04.14.06h.02l.12.07.14.08.02.02.12.08.15.12.02.02.12.1.14.15.02.02.12.13.14.17.03.04.11.15.14.2.03.04.11.17.15.23.03.05.11.19.14.25.04.07.1.2.14.28.04.08.1.22.14.31.05.09.1.23.14.33.04.11.1.24.14.36.05.12.09.25.14.39.05.14.09.25.14.41.06.16.09.26.14.43.05.17.09.27.14.45.06.19.08.27.14.47.06.21.08.27.15.48.06.23.08.27.14.5.06.24.08.27.14.51.07.25.07.27.14.53.08.26.06.26.15.54.07.28.07.25.14.54.08.29.06.25.14.54.08.31.06.23.14.54.09.32.06.22.14.54.08.32.06.22.14.53.09.33.05.2.14.52.09.34.05.19.14.51.1.34.05.17.14.5.09.34.05.16.14.49.1.34.04.14.14.47.1.34.04.12.15.46.1.33.04.11.14.43.11.33.03.1.14.41.11.31.03.09.14.39.12.3.02.07.15.37.11.28.03.07.14.33.12.28.02.05.14.31.12.26.02.04.14.28.13.24.02.03.14.26.12.22.02.02.14.23.13.2.01.02.14.2.13.17.01.02.14.17.14.15h.01l.14.15.13.12.01.01.14.11.14.1.14.09.14.07h.01l.14.05.14.04.14.03.14.01h.14l.14-.02h.01l.13-.03.14-.05h.02l.13-.06.14-.07.01-.01.13-.08.14-.11.02-.01.12-.1.14-.14.02-.02.12-.12.15-.17.02-.02.12-.15.14-.19.02-.04.12-.17.14-.22.03-.04.11-.19.14-.24.03-.06.11-.2.15-.28.03-.06.11-.22.14-.31.04-.07.1-.24.14-.32.04-.1.1-.24.14-.36.05-.1.1-.26.14-.37.04-.12.1-.27.14-.4.05-.13.09-.28.14-.42.05-.15.09-.28.14-.44.06-.16.09-.29.14-.45.05-.19.09-.28.14-.48.06-.19.08-.29.14-.49.06-.21.08-.28.15-.5.06-.23.08-.28.14-.51.06-.24.08-.27.14-.52.07-.25.07-.27.14-.53.08-.26.06-.26.15-.53.07-.27.07-.25.14-.53.08-.29.06-.24.14-.52.08-.29.06-.23.14-.52.09-.3.06-.22.14-.51.08-.3.06-.2.14-.51.09-.31.05-.18.14-.49.09-.31.05-.18.14-.47.1-.31.05-.16.14-.46.09-.31.05-.14.14-.44.1-.31.04-.13.14-.42.1-.3.04-.11.15-.4.1-.29.04-.1.14-.38.11-.28.03-.09.14-.35.11-.27.03-.07.14-.33.12-.25.03-.07.14-.3.11-.24.03-.05.14-.28.12-.22.02-.04.14-.25.12-.2.02-.03.14-.22.13-.19.02-.02.14-.19.12-.16.02-.02.14-.17.13-.13.01-.02.14-.13.13-.12h.01l.15-.11.13-.09h.01l.14-.08.13-.06h.01l.14-.05.14-.04.14-.01.14-.01h.01l.14.01.14.02.14.04.14.05h.01l.13.07.14.08h.01l.13.09.15.11.01.01.13.12.14.13.01.02.13.13.14.17.02.02.12.16.14.19.02.03.12.17.15.22.02.04.12.2.14.24.02.05.12.21.14.27.03.05.11.23.14.3.03.07.12.24.14.32.03.07.11.26.14.34.04.09.1.27.14.36.04.11.1.27.14.39.05.11.1.28.14.41.04.13.1.28.14.43.05.14.09.29.14.44.05.16.09.29.15.46.05.17.09.29.14.47.05.18.09.29.14.48.06.2.08.29.14.49.06.21.08.28.15.5.06.22.08.27.14.5.06.24.08.27.14.5.07.24.07.26.14.51.08.25.07.25.14.5.07.26.07.24.14.5.08.27.06.22.14.49.08.28.06.21.14.48.09.28.06.2.14.47.08.28.06.19.14.46.09.28.05.17.14.44.09.28.05.16.15.43.09.28.05.14.14.41.09.27.05.13.14.39.1.27.04.11.14.37.1.26.04.1.15.35.1.25.04.09.14.32.11.24.03.07.14.3.11.23.03.06.14.28.12.21.03.05.14.25.11.19.03.05.14.22.12.18.02.03.14.2.12.15.02.03.14.17.13.14.02.01.14.15.12.11.02.01.14.12.13.09.01.01.14.08.13.07h.01l.15.06.13.04h.01l.14.03.13.01h.15l.14-.02.14-.02.14-.05h.01l.14-.06.14-.07.14-.09.14-.1h.01l.13-.11.14-.13.01-.01.13-.14.15-.15.01-.02.13-.15.14-.19.01-.02.13-.18.14-.21.02-.03.12-.2.14-.24.02-.03.12-.22.15-.26.02-.05.12-.23.14-.29.02-.05.12-.25.14-.32.03-.06.11-.27.14-.34.03-.07.12-.28.14-.36.03-.08.11-.29.14-.38.04-.1.1-.3.14-.4.04-.11.1-.3.14-.42.05-.13.1-.3.14-.44.04-.14.1-.31.14-.45.05-.15.09-.31.14-.47.05-.16.09-.31.15-.48.05-.18.09-.3.14-.49.05-.19.09-.3.14-.49.06-.2.08-.3.14-.5.06-.21.08-.29.15-.5.06-.22.08-.28.14-.51.06-.23.08-.27.14-.5.07-.24.07-.25.14-.5.08-.25.07-.24.14-.49.07-.25.07-.24.14-.48.08-.25.06-.22.14-.47.08-.26.06-.2.14-.46.09-.26.06-.19.14-.44.08-.26.06-.18.14-.42.09-.26.05-.16.14-.41.09-.25.05-.15.15-.38.09-.25.05-.13.14-.37.09-.24.05-.11.14-.35.1-.23.04-.1.14-.32.1-.22.04-.09.15-.3.1-.2.04-.08.14-.27.11-.19.03-.07.14-.24.11-.18.03-.05.14-.22.12-.16.03-.05.14-.19.11-.14.03-.03.14-.17.12-.12.02-.02.14-.14.12-.1.02-.02.14-.11.13-.08.02-.01.14-.08.12-.06h.02l.14-.05.13-.04h.01l.14-.02.13-.01h.01l.15.01.13.02h.01l.14.04.13.04.01.01.14.06.14.08.14.09.14.11h.01l.14.12.14.13.14.15.14.16h.01l.13.17.14.19.01.01.13.19.15.21.01.02.13.21.14.24.01.03.13.22.14.27.02.03.12.25.14.29.02.04.12.26.15.31.02.05.12.28.14.33.02.06.12.29.14.36.03.07.11.3.14.38.03.08.12.3.14.4.03.09.11.32.14.41.04.11.1.31.14.44.04.11.1.32.14.45.05.13.1.32.14.46.04.14.1.32.14.47.05.16.09.32.14.47.05.17.09.32.15.48.05.18.09.31.14.49.05.18.09.31.14.49.06.2.08.29.14.49.06.21.08.28.15.5.06.21.08.27.14.49.06.22.08.26.14.49.07.23.07.24.14.48.08.23.07.23.14.47.07.23.07.22.14.45.08.24.06.21.14.43.08.24.06.19.15.42.08.24.06.18.14.4.08.24.06.16.14.38.09.23.05.15.14.36.09.23.05.13.15.34.09.22.05.11.14.33.09.21.05.1.14.29.1.2.04.09.14.27.1.19.05.07.14.25.1.18.04.06.14.22.1.16.04.05.14.19.11.15.03.04.14.17.12.12.03.03.14.14.11.11.03.02.14.11.12.09.02.01.14.09.12.06.02.01.15.06.12.03.02.01.14.03.12.01h.16l.13-.01h.01l.14-.03.13-.04h.01l.15-.06.13-.07h.01l.14-.09.13-.09h.01l.14-.12.14-.12v-.01l.14-.14.14-.15h.01l.14-.17.14-.19.14-.19.14-.21.01-.01.13-.22.14-.24.01-.01.13-.24.15-.26.01-.02.13-.26.14-.28.01-.03.13-.28.14-.31.02-.04.12-.28.14-.34.02-.05.13-.3.14-.36.02-.06.12-.31.14-.38.02-.07.12-.32.14-.41.03-.07.11-.34.14-.42.03-.09.12-.34.14-.43.03-.1.11-.35.14-.45.03-.11.11-.35.14-.46.04-.13.1-.35.15-.47.04-.14.1-.34.14-.49.04-.15.1-.34.14-.49.05-.17.09-.33.14-.5.05-.17.09-.33.15-.5.05-.18.09-.32.14-.5.05-.2.09-.31.14-.5.06-.2.08-.29.14-.5.06-.21.09-.28.14-.49.06-.22.08-.27.14-.48.06-.22.08-.26.14-.47.07-.22.07-.24.14-.46.07-.22.08-.23.14-.44.07-.23.07-.21.14-.43.08-.22.06-.19.14-.41.08-.23.06-.17.15-.39.08-.22.06-.16.14-.37.08-.21.06-.15.14-.34.09-.21.05-.13.14-.32.09-.2.05-.11.15-.3.09-.18.05-.1.14-.27.09-.18.05-.08.14-.25.1-.16.04-.07.14-.22.1-.15.05-.06.14-.19.1-.13.04-.05.14-.16.1-.12.04-.03.14-.14.11-.1.03-.02.14-.11.12-.08.03-.01.14-.09.11-.05.03-.01.14-.05.12-.03.02-.01.14-.02.12-.01h.02l.15.01.12.01.02.01.14.03.12.04.02.01.14.06.13.07.01.01.14.09.13.1.01.01.15.12.13.12.01.01.14.15.13.15.01.01.14.17.14.19.14.2.14.22h.01l.14.23.14.24.14.25.14.27.01.01.13.27.14.29.01.02.13.29.15.31.01.03.13.3.14.34.01.03.13.32.14.36.02.05.12.33.14.38.02.05.13.34.14.41.02.06.12.35.14.42.02.07.12.36.14.44.03.08.11.37.14.45.03.09.12.37.14.47.03.1.11.37.14.48.03.12.11.36.14.49.04.13.1.36.15.49.04.15.1.35.14.5.04.15.1.35.14.51.05.16.09.34.14.5.05.18.09.33.15.5.05.18.09.32.14.5.05.19.09.3.14.49.06.2.08.29.14.49.06.2.09.28.14.47.06.2.08.27.14.46.06.21.08.24.14.45.07.21.07.23.14.43.07.21.08.21.14.42.07.2.07.2.14.39.08.21.06.18.14.37.08.2.06.16.15.36.08.19.06.14.14.33.08.19.06.13.14.3.09.18.05.12.14.28.09.16.05.1.15.26.09.15.05.09.14.22.09.15.05.07.14.2.1.13.04.05.14.18.1.11.05.04.14.15.1.09.04.04.14.12.1.07.04.03.14.09.11.05.03.02.14.06.12.04h.03l.14.04.11.01h.17l.12-.01h.02l.14-.02.12-.04.02-.01.15-.05.12-.06.02-.01.14-.09.12-.09.02-.01.14-.11.13-.12.01-.01.14-.14.13-.15.01-.01.15-.17.13-.17.01-.02.14-.2.13-.2.01-.01.14-.23.14-.23v-.01l.14-.25.14-.27h.01l.14-.28.14-.3.14-.31.14-.32.01-.01.13-.32.14-.35.01-.02.13-.34.15-.37.01-.03.13-.35.14-.39.01-.04.13-.37.14-.41.02-.05.12-.38.14-.43.02-.06.13-.39.14-.45.02-.07.12-.4.14-.47.02-.08.12-.39.14-.49.03-.09.11-.4.14-.5.03-.1.12-.4.14-.51.03-.12.11-.39.14-.52.03-.13.11-.39.14-.52.04-.14.1-.39.15-.52.04-.15.1-.38.14-.53.04-.15.1-.37.14-.53.05-.16.09-.36.14-.52.05-.18.1-.34.14-.51.05-.18.09-.33.14-.5.05-.19.09-.31.14-.5.06-.19.08-.29.14-.48.06-.2.09-.27.14-.47.06-.2.08-.25.14-.45.06-.2.08-.23.14-.43.07-.2.07-.22.15-.4.06-.2.08-.2.14-.38.07-.19.07-.18.14-.36.08-.18.06-.17.14-.33.08-.18.06-.14.15-.31.08-.17.06-.12.14-.28.08-.16.06-.11.14-.25.09-.15.05-.09.14-.23.09-.13.06-.08.14-.2.09-.12.05-.06.14-.17.09-.11.05-.05.14-.14.1-.08.04-.04.14-.11.1-.07.05-.03.14-.08.1-.05.04-.02.14-.05.1-.03.04-.01.14-.02.11-.01h.03l.15.01.11.01h.03l.14.04.11.03.03.01.14.07.12.06.02.02.14.09.12.09.02.01.15.12.12.12.02.02.14.15.12.14.02.02.14.18.13.17.01.02.14.21.13.2.02.02.14.23.13.23.01.02.14.26.13.27.01.01.14.29.14.29v.01l.14.31.14.33h.01l.14.34.14.36.14.36.14.38.01.02.13.37.14.41.01.02.14.39.14.42.01.03.13.41.14.44.01.04.13.42.14.46.02.05.12.42.14.49.02.06.13.42.14.5.02.07.12.44.14.51.02.08.12.43.14.52.03.1.11.43.15.53.02.11.12.42.14.54.03.12.11.42.14.54.03.13.11.41.14.54.04.14.1.4.15.54.04.15.1.39.14.53.04.16.1.37.14.53.05.17.09.35.14.52.05.18.1.34.14.5.05.18.09.32.14.5.05.18.09.3.14.48.06.19.08.28.14.46.06.18.09.26.14.44.06.19.08.24.14.42.06.18.08.22.14.4.07.18.07.2.15.37.06.18.08.18.14.34.07.17.07.16.14.32.08.16.06.14.14.3.08.15.06.12.15.27.08.14.06.11.14.23.08.13.06.09.14.21.09.12.05.07.14.18.09.1.06.06.14.15.09.09.05.05.14.12.09.07.05.04.14.09.1.05.04.03.14.06.1.04.05.01.14.04.1.01h.32l.14-.03.11-.02.03-.01.15-.06.11-.05.03-.02.14-.08.11-.08.03-.02.14-.11.12-.1.02-.03.14-.14.12-.13.02-.03.15-.17.12-.16.02-.03.14-.2.12-.19.02-.02.14-.24.13-.22.01-.02.14-.26.13-.26.02-.02.14-.29.13-.29.01-.02.14-.32.13-.32.01-.02.14-.35.14-.35v-.01l.14-.38.14-.39h.01l.14-.41.14-.42.14-.43.14-.44.01-.02.13-.44.14-.47.01-.02.14-.46.14-.49.01-.04.13-.47.14-.51.01-.04.13-.48.14-.53.02-.06.12-.48.14-.55.02-.07.13-.48.14-.56.02-.09.12-.48.14-.57.02-.1.12-.48.14-.58.03-.1.11-.48.15-.58.02-.12.12-.46.14-.59.03-.13.11-.45.14-.59.03-.13.11-.45.14-.57.04-.15.1-.43.15-.57.04-.15.1-.41.14-.56.04-.16.1-.39.14-.54.05-.17.09-.37.14-.52.05-.18.1-.34.14-.51.05-.17.09-.32.14-.49.05-.17.09-.3.14-.46.06-.18.08-.27.14-.43.06-.18.09-.25.14-.4.06-.18.08-.22.14-.38.06-.17.08-.19.14-.36.07-.15.07-.18.15-.32.06-.15.08-.16.14-.29.07-.14.07-.13.14-.27.08-.13.06-.11.14-.23.08-.12.06-.1.15-.2.08-.1.06-.08.14-.17.08-.09.06-.06.14-.14.09-.08.05-.05.14-.11.09-.06.06-.03.14-.09.09-.04.05-.02.14-.06.09-.02.05-.01.14-.03.1-.01h.04l.14.01.1.01h.05l.14.04.1.03.04.01.14.07.1.05.04.02.14.09.11.08.03.02.15.12.11.1.03.03.14.15.11.13.03.03.14.18.12.15.02.04.14.2.12.19.02.03.15.24.12.21.02.04.14.27.12.24.02.04.14.29.13.28.01.03.14.33.13.31.02.03.14.36.13.35.01.02.14.39.13.38.01.02.14.42.14.42v.01l.15.44.13.46h.01l.14.48.14.49.14.5.14.51.01.01.13.51.14.54.01.02.14.53.14.55.01.04.13.53.14.58.01.05.13.53.14.59.02.07.12.53.15.61.01.07.13.54.14.61.02.09.12.53.14.62.02.1.12.52.14.62.03.11.11.51.15.62.02.12.12.5.14.61.03.13.11.48.14.6.03.14.11.46.14.59.04.15.11.43.14.58.04.16.1.4.14.56.04.16.1.38.14.53.05.17.09.35.14.51.05.17.1.33.14.48.05.16.09.3.14.46.05.16.09.27.14.42.06.17.08.24.15.39.05.16.09.22.14.36.06.14.08.2.14.33.06.14.08.17.14.29.07.14.07.14.15.27.06.12.08.12.14.24.07.11.07.1.14.21.08.1.06.08.14.18.08.09.07.07.14.14.08.08.06.05.14.12.08.06.06.04.14.09.09.05.05.03.14.06.09.03.06.02.14.04.09.01.05.01.14.01h.14l.14-.02.1-.02.04-.01.15-.04.09-.04.05-.01.14-.07.1-.06.04-.02.14-.1.1-.08.04-.03.14-.12.11-.11.03-.03.15-.15.11-.13.03-.04.14-.19.11-.15.03-.05.14-.21.12-.19.02-.05.14-.25.12-.22.03-.04.14-.29.12-.25.02-.05.14-.32.12-.29.02-.05.14-.35.13-.34.01-.04.14-.39.13-.38.02-.03.14-.44.13-.41.01-.04.14-.47.13-.46.01-.02.14-.51.14-.51v-.01l.15-.55.13-.55h.01l.14-.58.14-.59v-.01l.14-.6.14-.62.01-.02.13-.62.14-.64.01-.03.14-.63.14-.68.01-.04.13-.64.14-.69.01-.05.13-.64.14-.71.02-.07.12-.63.15-.71.01-.09.13-.63.14-.71.02-.1.12-.61.14-.72.02-.11.12-.59.14-.71.03-.12.11-.57.15-.69.02-.13.12-.55.14-.67.03-.14.11-.52.14-.64.03-.15.11-.48.14-.62.04-.16.11-.44.14-.59.04-.15.1-.41.14-.55.04-.16.1-.37.14-.51.05-.16.09-.33.14-.48.05-.15.1-.3.14-.43.05-.14.09-.27.14-.39.05-.13.09-.23.14-.35.06-.13.08-.2.15-.31.05-.12.09-.17.14-.27.06-.11.08-.14.14-.23.06-.1.08-.11.14-.2.07-.09.07-.09.15-.17.06-.07.08-.08.14-.13.07-.06.07-.06.14-.11.08-.05.06-.04.14-.08.08-.04.07-.03.14-.06.08-.03.06-.01.14-.04.08-.01.06-.01.14-.02h.14l.14.01h.09l.06.01.14.02.09.03.05.01.14.04.09.04.05.02.14.06.1.05.04.02.15.09.09.07.05.02.14.11.1.09.04.03.14.13.1.11.04.03.14.16.11.13.03.04.15.19.11.15.03.05.14.22.11.19.03.05.14.25.12.22.02.05.14.29.12.26.03.05.14.33.12.3.02.06.14.37.12.35.02.05.14.42.13.4.01.05.14.47.13.45.02.04.14.52.13.5.01.04.14.57.13.56.01.03.14.61.14.62v.02l.15.66.13.67.01.01.14.7.14.72v.01l.14.73.14.76.01.02.13.75.14.79.01.03.14.77.14.8.01.05.13.77.14.82.01.07.13.76.14.82.02.09.12.74.15.82.01.1.13.72.14.81.02.11.12.69.14.79.02.13.12.65.14.76.03.13.11.61.15.72.02.14.12.57.14.68.03.14.11.51.14.64.03.14.11.46.14.58.04.14.11.41.14.53.04.14.1.36.14.47.04.13.1.31.14.41.05.12.09.27.14.36.05.11.1.22.14.31.05.11.09.18.14.26.05.09.09.15.14.22.06.08.08.12.15.18.05.07.09.09.14.15.06.06.08.07.14.12.06.04.08.06.14.09.07.04.07.04.15.07.06.03.08.03.14.05.07.03.07.02.14.04.08.01.06.02.14.03.08.01.07.01.14.01.08.01.06.01.14.01h.56l.09-.01h.06l.14-.01.09-.01.05-.01.14-.02.09-.02h.05l.14-.04.1-.02.04-.01.15-.04.09-.04.05-.02.14-.05.1-.05.04-.02.14-.08.1-.07.04-.02.14-.11.11-.08.04-.04.14-.13.11-.12.03-.03.14-.18.11-.15.03-.04.14-.22.12-.2.02-.05.14-.28.12-.25.03-.05.14-.34.12-.31.02-.06.14-.41.12-.39.02-.06.14-.5.13-.47.01-.06.15-.58.12-.57.02-.06.14-.67.13-.67.01-.05.14-.77.13-.77.01-.05.14-.86.14-.88v-.03l.15-.96.13-.97.01-.02.14-1.04.14-1.07.14-1.1.14-1.13.01-.02.13-1.13.15-1.17v-.05l.14-1.13.14-1.18.01-.08.13-1.11.14-1.17.01-.1.13-1.07.14-1.14.02-.11.12-1 .15-1.09.01-.12.13-.92.14-1.01.02-.13.12-.83.14-.9.02-.14.12-.72.14-.79.03-.14.12-.6.14-.69.02-.12.12-.5.14-.57.03-.11.11-.39.14-.46.03-.1.11-.3.14-.36.04-.08.11-.22.14-.26.04-.07.1-.15.14-.19.04-.05.1-.1.14-.13.05-.03.09-.07.15-.08.04-.02.1-.03.14-.05.05-.01.09-.01.14-.02h.42l.15.01.05.01.09.01.14.01.06.01.08.01.14.02.06.01.08.02.14.02.07.01.08.01.14.03.06.01.08.01.14.03.07.01.07.01.14.02.08.02.06.01.14.02.08.01.07.01.14.03.08.01.06.01.14.02.08.02.06.01.14.02.09.01.05.01.15.02.08.02.06.01.14.02.09.01.05.01.14.02.09.02h.05l.14.03.1.01.04.01.15.02.09.01.05.01.14.02.1.01.04.01.14.02.1.02h.04l.14.02.11.02h.04l.14.02.11.02h.03l.14.02.11.02h.03l.14.02.12.01.02.01.14.02.12.01.03.01.14.02.12.01h.02l.14.02.12.02h.02l.14.02.13.02h.01l.15.02.12.01h.02l.14.02.13.02h.01l.14.02.13.01.01.01.14.01.14.02.15.02.13.01h.01l.14.02.07.01.07.01"/><use xlink:href="#a" transform="matrix(4.5 0 0 4.5 323.49 122.75)"/><use xlink:href="#a" transform="matrix(4.5 0 0 4.5 100.32 7.51)"/></g><text stroke-linecap="round" stroke-linejoin="round" color="#000" font-family="Arial" font-size="8" transform="translate(225.82 10.11)"><tspan>AVLTopDown</tspan></text><g fill="none" stroke="currentColor" stroke-linecap="round" stroke-linejoin="round" color="#000"><path stroke="#29C3F6" stroke-dasharray="1.0,2.0" d="M188.82 7.51h31.4M41.95 112.76l.14.28.14.26h.01l.13.24.15.23v.01l.14.21.14.21.01.01.13.18.14.19.01.02.13.16.14.18.02.01.12.15.15.16.01.02.13.14.14.14.02.02.12.13.14.13.02.02.12.12.14.12.03.03.12.1.14.12.02.02.12.1.14.11.03.02.11.09.14.11.03.02.11.08.14.1.04.03.11.07.14.1.04.02.1.07.14.09.04.03.1.06.14.09.05.02.09.06.15.09.04.02.1.06.14.08.05.02.09.05.14.08.05.03.09.04.14.08.06.03.08.04.15.07.05.03.09.04.14.07.06.02.08.04.14.07.06.02.08.04.14.06.07.03.08.03.14.06.06.03.08.03.14.06.07.03.07.03.14.06.08.03.06.02.14.06.08.03.07.02.14.05.08.03.06.03.14.05.08.03.06.02.14.05.09.03.05.02.15.05.08.02.06.02.14.05.09.03.05.02.14.04.09.03.05.02.14.04.1.03.04.02.15.04.09.03.05.01.14.04.1.03.04.02.14.04.1.03.04.01.14.04.11.03.04.01.14.04.11.03.03.01.14.03.11.03.03.01.14.04.12.03.02.01.14.03.12.03.03.01.14.04.12.03h.02l.14.04.12.03h.02l.14.04.13.03h.01l.15.03.12.03.02.01.14.03.13.03h.01l.14.03.13.03.01.01.14.03.14.03.15.03.13.03h.01l.14.03.14.03.14.03.14.03h.01l.13.03.15.03.14.03.14.02.01.01.13.02.14.03h.01l.13.03.14.03h.02l.12.02.15.03h.01l.13.03.14.03h.02l.12.02.14.03h.02l.12.03.14.03h.03l.12.02.14.03.02.01.12.02.14.03.03.01.11.02.14.03.03.01.11.03.14.03.04.01.11.03.14.04.04.01.1.03.14.04.04.02.1.03.14.06.05.01.09.04.15.07.04.02.1.05.14.08.05.02.09.06.14.09.05.04.09.07.14.11.06.05.09.08.14.14.05.06.09.09.14.17.06.08.08.11.14.2.06.09.08.13.14.24.07.12.08.14.14.29.06.14.08.17.14.33.07.17.07.18.14.39.08.2.06.2.15.44.07.24.07.22.14.49.08.28.06.23.14.55.08.32.06.25.14.59.09.37.05.25.15.65.08.41.06.26.14.69.09.45.05.27.14.73.09.49.05.27.14.76.1.53.05.26.14.79.09.56.05.25.14.82.1.58.04.24.14.82.1.61.04.22.14.83.11.61.04.21.14.82.11.62.03.19.14.8.11.63.03.16.14.78.12.62.02.15.15.74.11.61.03.12.14.71.12.59.02.1.14.67.12.56.02.09.14.62.13.53.01.07.15.57.12.5.02.05.14.53.13.46.01.04.14.47.13.43.01.02.14.43.14.38.01.02.14.38.13.35h.01l.14.34.14.31.14.29.14.27h.01l.13.25.15.23v.01l.14.2.14.2.01.01.13.17.14.16.01.01.13.14.14.13.02.02.13.1.14.11.01.01.13.09.14.08.02.01.12.06.14.06.02.01.12.04.14.04.03.01.12.02.14.02.02.01h.29l.11-.01.14-.02h.03l.11-.02.15-.04.03-.02.11-.03.14-.06.04-.02.1-.06.14-.08.04-.02.1-.07.14-.11.05-.03.09-.09.15-.13.04-.05.1-.1.14-.16.05-.06.09-.11.14-.19.05-.08.09-.13.14-.23.06-.08.09-.16.14-.25.05-.11.09-.17.14-.29.06-.13.08-.19.14-.33.06-.15.08-.2.14-.38.07-.17.08-.22.14-.41.06-.2.08-.23.14-.46.07-.23.07-.24.14-.49.08-.26.06-.25.15-.53.07-.29.07-.26.14-.57.08-.32.06-.26.14-.6.08-.35.06-.27.14-.63.09-.38.05-.26.15-.66.08-.41.06-.26.14-.68.09-.43.05-.26.14-.69.09-.46.05-.24.14-.71.1-.48.05-.23.14-.72.09-.49.05-.22.14-.71.1-.51.04-.2.14-.71.1-.51.04-.2.14-.69.11-.52.04-.17.14-.69.11-.51.03-.16.14-.66.11-.51.03-.14.14-.64.12-.5.02-.12.15-.61.11-.48.03-.11.14-.57.12-.48.02-.08.14-.54.12-.46.02-.07.14-.5.13-.43.01-.06.15-.47.12-.4.02-.05.14-.43.13-.37.01-.03.14-.4.13-.34.01-.03.14-.35.14-.32.01-.01.14-.32.13-.28.01-.01.14-.28.14-.26.14-.24.14-.23h.01l.13-.2.15-.19v-.01l.14-.17.14-.16.01-.01.13-.13.14-.13.01-.01.13-.1.14-.1.02-.01.13-.08.14-.07h.01l.13-.05.14-.05h.02l.12-.03.14-.01h.14l.14.01h.03l.12.01.14.04.02.01.12.04.14.06.03.01.11.06.14.09.03.02.11.08.15.11.03.03.11.1.14.14.04.04.1.11.14.17.04.05.1.13.14.19.05.06.09.15.15.23.04.07.1.17.14.25.05.09.09.18.14.28.05.11.09.19.14.32.06.12.09.21.14.34.05.14.09.22.14.38.06.16.08.23.14.41.06.18.08.24.14.44.07.2.08.25.14.47.06.22.08.26.14.49.07.25.07.26.14.52.08.27.06.26.15.54.07.3.07.26.14.56.08.32.06.25.14.59.08.33.06.26.14.59.09.36.05.25.15.61.08.37.06.24.14.62.09.38.05.23.14.63.09.4.05.22.14.62.1.41.05.21.14.61.09.43.05.19.14.61.1.43.04.17.14.6.1.43.04.17.14.58.11.43.04.15.14.57.11.42.03.14.14.54.11.42.03.12.14.53.12.41.02.1.15.5.11.4.03.09.14.47.12.39.02.07.14.45.12.37.02.06.14.41.13.36.01.04.15.39.12.33.02.04.14.36.13.31.01.02.14.33.13.29.01.02.14.29.14.26.01.01.14.27.13.23.01.01.14.23.14.21v.01l.14.19.14.19h.01l.13.17.15.15v.01l.14.13.14.13h.01l.13.11.14.09.01.01.13.07.14.07h.02l.13.05.14.04h.01l.13.02.14.01h.02l.12-.01.14-.02h.02l.12-.03.15-.05.02-.01.12-.05.14-.08.02-.01.12-.08.14-.1.03-.02.11-.1.14-.13.03-.04.11-.11.15-.17.03-.04.11-.13.14-.2.04-.05.1-.16.14-.22.04-.06.1-.18.14-.25.05-.08.1-.19.14-.28.04-.09.1-.21.14-.31.05-.11.09-.22.14-.34.05-.12.09-.23.14-.37.06-.15.09-.24.14-.4.05-.16.09-.25.14-.43.06-.18.08-.25.14-.46.06-.2.08-.26.15-.48.06-.22.08-.26.14-.5.06-.24.08-.27.14-.52.07-.26.07-.27.14-.54.08-.27.06-.27.15-.55.07-.3.07-.26.14-.57.08-.31.06-.26.14-.57.08-.33.06-.25.14-.58.09-.34.06-.24.14-.59.08-.35.06-.23.14-.59.09-.36.05-.22.14-.58.09-.37.05-.21.14-.57.1-.38.05-.19.14-.57.09-.38.05-.18.14-.55.1-.39.04-.16.14-.54.1-.38.04-.15.15-.52.1-.38.04-.13.14-.5.11-.37.03-.12.14-.48.11-.36.03-.1.14-.46.12-.35.02-.09.15-.43.11-.34.03-.07.14-.41.12-.32.02-.06.14-.38.12-.31.02-.05.14-.34.13-.29.02-.04.14-.32.12-.27.02-.03.14-.28.13-.25.01-.03.14-.25.13-.22.01-.02.14-.23.14-.2.01-.01.14-.19.13-.17.01-.01.14-.16.14-.15.14-.14.14-.12h.01l.14-.1.14-.09.14-.07.14-.06.01-.01.13-.04.14-.03h.01l.13-.01h.16l.13.01.14.03h.01l.13.04.14.06h.02l.12.07.14.08.02.02.12.08.15.12.02.02.12.1.14.15.02.02.12.13.14.17.03.04.11.15.14.2.03.04.11.17.15.23.03.05.11.19.14.25.04.07.1.2.14.28.04.08.1.22.14.31.05.09.1.23.14.33.04.11.1.24.14.36.05.12.09.25.14.39.05.14.09.25.14.41.06.16.09.26.14.43.05.17.09.27.14.45.06.19.08.27.14.47.06.21.08.27.15.48.06.23.08.27.14.5.06.24.08.27.14.51.07.25.07.27.14.53.08.26.06.26.15.54.07.28.07.25.14.54.08.29.06.25.14.54.08.31.06.23.14.54.09.32.06.22.14.54.08.32.06.22.14.53.09.33.05.2.14.52.09.34.05.19.14.51.1.34.05.17.14.5.09.34.05.16.14.49.1.34.04.14.14.47.1.34.04.12.15.46.1.33.04.11.14.43.11.33.03.1.14.41.11.31.03.09.14.39.12.3.02.07.15.37.11.28.03.07.14.33.12.28.02.05.14.31.12.26.02.04.14.28.13.24.02.03.14.26.12.22.02.02.14.23.13.2.01.02.14.2.13.17.01.02.14.17.14.15h.01l.14.15.13.12.01.01.14.11.14.1.14.09.14.07h.01l.14.05.14.04.14.03.14.01h.14l.14-.02h.01l.13-.03.14-.05h.02l.13-.06.14-.07.01-.01.13-.08.14-.11.02-.01.12-.1.14-.14.02-.02.12-.12.15-.17.02-.02.12-.15.14-.19.02-.04.12-.17.14-.22.03-.04.11-.19.14-.24.03-.06.11-.2.15-.28.03-.06.11-.22.14-.31.04-.07.1-.24.14-.32.04-.1.1-.24.14-.36.05-.1.1-.26.14-.37.04-.12.1-.27.14-.4.05-.13.09-.28.14-.42.05-.15.09-.28.14-.44.06-.16.09-.29.14-.45.05-.19.09-.28.14-.48.06-.19.08-.29.14-.49.06-.21.08-.28.15-.5.06-.23.08-.28.14-.51.06-.24.08-.27.14-.52.07-.25.07-.27.14-.53.08-.26.06-.26.15-.53.07-.27.07-.25.14-.53.08-.29.06-.24.14-.52.08-.29.06-.23.14-.52.09-.3.06-.22.14-.51.08-.3.06-.2.14-.51.09-.31.05-.18.14-.49.09-.31.05-.18.14-.47.1-.31.05-.16.14-.46.09-.31.05-.14.14-.44.1-.31.04-.13.14-.42.1-.3.04-.11.15-.4.1-.29.04-.1.14-.38.11-.28.03-.09.14-.35.11-.27.03-.07.14-.33.12-.25.03-.07.14-.3.11-.24.03-.05.14-.28.12-.22.02-.04.14-.25.12-.2.02-.03.14-.22.13-.19.02-.02.14-.19.12-.16.02-.02.14-.17.13-.13.01-.02.14-.13.13-.12h.01l.15-.11.13-.09h.01l.14-.08.13-.06h.01l.14-.05.14-.04.14-.01.14-.01h.01l.14.01.14.02.14.04.14.05h.01l.13.07.14.08h.01l.13.09.15.11.01.01.13.12.14.13.01.02.13.13.14.17.02.02.12.16.14.19.02.03.12.17.15.22.02.04.12.2.14.24.02.05.12.21.14.27.03.05.11.23.14.3.03.07.12.24.14.32.03.07.11.26.14.34.04.09.1.27.14.36.04.11.1.27.14.39.05.11.1.28.14.41.04.13.1.28.14.43.05.14.09.29.14.44.05.16.09.29.15.46.05.17.09.29.14.47.05.18.09.29.14.48.06.2.08.29.14.49.06.21.08.28.15.5.06.22.08.27.14.5.06.24.08.27.14.5.07.24.07.26.14.51.08.25.07.25.14.5.07.26.07.24.14.5.08.27.06.22.14.49.08.28.06.21.14.48.09.28.06.2.14.47.08.28.06.19.14.46.09.28.05.17.14.44.09.28.05.16.15.43.09.28.05.14.14.41.09.27.05.13.14.39.1.27.04.11.14.37.1.26.04.1.15.35.1.25.04.09.14.32.11.24.03.07.14.3.11.23.03.06.14.28.12.21.03.05.14.25.11.19.03.05.14.22.12.18.02.03.14.2.12.15.02.03.14.17.13.14.02.01.14.15.12.11.02.01.14.12.13.09.01.01.14.08.13.07h.01l.15.06.13.04h.01l.14.03.13.01h.15l.14-.02.14-.02.14-.05h.01l.14-.06.14-.07.14-.09.14-.1h.01l.13-.11.14-.13.01-.01.13-.14.15-.15.01-.02.13-.15.14-.19.01-.02.13-.18.14-.21.02-.03.12-.2.14-.24.02-.03.12-.22.15-.26.02-.05.12-.23.14-.29.02-.05.12-.25.14-.32.03-.06.11-.27.14-.34.03-.07.12-.28.14-.36.03-.08.11-.29.14-.38.04-.1.1-.3.14-.4.04-.11.1-.3.14-.42.05-.13.1-.3.14-.44.04-.14.1-.31.14-.45.05-.15.09-.31.14-.47.05-.16.09-.31.15-.48.05-.18.09-.3.14-.49.05-.19.09-.3.14-.49.06-.2.08-.3.14-.5.06-.21.08-.29.15-.5.06-.22.08-.28.14-.51.06-.23.08-.27.14-.5.07-.24.07-.25.14-.5.08-.25.07-.24.14-.49.07-.25.07-.24.14-.48.08-.25.06-.22.14-.47.08-.26.06-.2.14-.46.09-.26.06-.19.14-.44.08-.26.06-.18.14-.42.09-.26.05-.16.14-.41.09-.25.05-.15.15-.38.09-.25.05-.13.14-.37.09-.24.05-.11.14-.35.1-.23.04-.1.14-.32.1-.22.04-.09.15-.3.1-.2.04-.08.14-.27.11-.19.03-.07.14-.24.11-.18.03-.05.14-.22.12-.16.03-.05.14-.19.11-.14.03-.03.14-.17.12-.12.02-.02.14-.14.12-.1.02-.02.14-.11.13-.08.02-.01.14-.08.12-.06h.02l.14-.05.13-.04h.01l.14-.02.13-.01h.01l.15.01.13.02h.01l.14.04.13.04.01.01.14.06.14.08.14.09.14.11h.01l.14.12.14.13.14.15.14.16h.01l.13.17.14.19.01.01.13.19.15.21.01.02.13.21.14.24.01.03.13.22.14.27.02.03.12.25.14.29.02.04.12.26.15.31.02.05.12.28.14.33.02.06.12.29.14.36.03.07.11.3.14.38.03.08.12.3.14.4.03.09.11.32.14.41.04.11.1.31.14.44.04.11.1.32.14.45.05.13.1.32.14.46.04.14.1.32.14.47.05.16.09.32.14.47.05.17.09.32.15.48.05.18.09.31.14.49.05.18.09.31.14.49.06.2.08.29.14.49.06.21.08.28.15.5.06.21.08.27.14.49.06.22.08.26.14.49.07.23.07.24.14.48.08.23.07.23.14.47.07.23.07.22.14.45.08.24.06.21.14.43.08.24.06.19.15.42.08.24.06.18.14.4.08.24.06.16.14.38.09.23.05.15.14.36.09.23.05.13.15.34.09.22.05.11.14.33.09.21.05.1.14.29.1.2.04.09.14.27.1.19.05.07.14.25.1.18.04.06.14.22.1.16.04.05.14.19.11.15.03.04.14.17.12.12.03.03.14.14.11.11.03.02.14.11.12.09.02.01.14.09.12.06.02.01.15.06.12.03.02.01.14.03.12.01h.16l.13-.01h.01l.14-.03.13-.04h.01l.15-.06.13-.07h.01l.14-.09.13-.09h.01l.14-.12.14-.12v-.01l.14-.14.14-.15h.01l.14-.17.14-.19.14-.19.14-.21.01-.01.13-.22.14-.24.01-.01.13-.24.15-.26.01-.02.13-.26.14-.28.01-.03.13-.28.14-.31.02-.04.12-.28.14-.34.02-.05.13-.3.14-.36.02-.06.12-.31.14-.38.02-.07.12-.32.14-.41.03-.07.11-.34.14-.42.03-.09.12-.34.14-.43.03-.1.11-.35.14-.45.03-.11.11-.35.14-.46.04-.13.1-.35.15-.47.04-.14.1-.34.14-.49.04-.15.1-.34.14-.49.05-.17.09-.33.14-.5.05-.17.09-.33.15-.5.05-.18.09-.32.14-.5.05-.2.09-.31.14-.5.06-.2.08-.29.14-.5.06-.21.09-.28.14-.49.06-.22.08-.27.14-.48.06-.22.08-.26.14-.47.07-.22.07-.24.14-.46.07-.22.08-.23.14-.44.07-.23.07-.21.14-.43.08-.22.06-.19.14-.41.08-.23.06-.17.15-.39.08-.22.06-.16.14-.37.08-.21.06-.15.14-.34.09-.21.05-.13.14-.32.09-.2.05-.11.15-.3.09-.18.05-.1.14-.27.09-.18.05-.08.14-.25.1-.16.04-.07.14-.22.1-.15.05-.06.14-.19.1-.13.04-.05.14-.16.1-.12.04-.03.14-.14.11-.1.03-.02.14-.11.12-.08.03-.01.14-.09.11-.05.03-.01.14-.05.12-.03.02-.01.14-.02.12-.01h.02l.15.01.12.01.02.01.14.03.12.04.02.01.14.06.13.07.01.01.14.09.13.1.01.01.15.12.13.12.01.01.14.15.13.15.01.01.14.17.14.19.14.2.14.22h.01l.14.23.14.24.14.25.14.27.01.01.13.27.14.29.01.02.13.29.15.31.01.03.13.3.14.34.01.03.13.32.14.36.02.05.12.33.14.38.02.05.13.34.14.41.02.06.12.35.14.42.02.07.12.36.14.44.03.08.11.37.14.45.03.09.12.37.14.47.03.1.11.37.14.48.03.12.11.36.14.49.04.13.1.36.15.49.04.15.1.35.14.5.04.15.1.35.14.51.05.16.09.34.14.5.05.18.09.33.15.5.05.18.09.32.14.5.05.19.09.3.14.49.06.2.08.29.14.49.06.2.09.28.14.47.06.2.08.27.14.46.06.21.08.24.14.45.07.21.07.23.14.43.07.21.08.21.14.42.07.2.07.2.14.39.08.21.06.18.14.37.08.2.06.16.15.36.08.19.06.14.14.33.08.19.06.13.14.3.09.18.05.12.14.28.09.16.05.1.15.26.09.15.05.09.14.22.09.15.05.07.14.2.1.13.04.05.14.18.1.11.05.04.14.15.1.09.04.04.14.12.1.07.04.03.14.09.11.05.03.02.14.06.12.04h.03l.14.04.11.01h.17l.12-.01h.02l.14-.02.12-.04.02-.01.15-.05.12-.06.02-.01.14-.09.12-.09.02-.01.14-.11.13-.12.01-.01.14-.14.13-.15.01-.01.15-.17.13-.17.01-.02.14-.2.13-.2.01-.01.14-.23.14-.23v-.01l.14-.25.14-.27h.01l.14-.28.14-.3.14-.31.14-.32.01-.01.13-.32.14-.35.01-.02.13-.34.15-.37.01-.03.13-.35.14-.39.01-.04.13-.37.14-.41.02-.05.12-.38.14-.43.02-.06.13-.39.14-.45.02-.07.12-.4.14-.47.02-.08.12-.39.14-.49.03-.09.11-.4.14-.5.03-.1.12-.4.14-.51.03-.12.11-.39.14-.52.03-.13.11-.39.14-.52.04-.14.1-.39.15-.52.04-.15.1-.38.14-.53.04-.15.1-.37.14-.53.05-.16.09-.36.14-.52.05-.18.1-.34.14-.51.05-.18.09-.33.14-.5.05-.19.09-.31.14-.5.06-.19.08-.29.14-.48.06-.2.09-.27.14-.47.06-.2.08-.25.14-.45.06-.2.08-.23.14-.43.07-.2.07-.22.15-.4.06-.2.08-.2.14-.38.07-.19.07-.18.14-.36.08-.18.06-.17.14-.33.08-.18.06-.14.15-.31.08-.17.06-.12.14-.28.08-.16.06-.11.14-.25.09-.15.05-.09.14-.23.09-.13.06-.08.14-.2.09-.12.05-.06.14-.17.09-.11.05-.05.14-.14.1-.08.04-.04.14-.11.1-.07.05-.03.14-.08.1-.05.04-.02.14-.05.1-.03.04-.01.14-.02.11-.01h.03l.15.01.11.01h.03l.14.04.11.03.03.01.14.07.12.06.02.02.14.09.12.09.02.01.15.12.12.12.02.02.14.15.12.14.02.02.14.18.13.17.01.02.14.21.13.2.02.02.14.23.13.23.01.02.14.26.13.27.01.01.14.29.14.29v.01l.14.31.14.33h.01l.14.34.14.36.14.36.14.38.01.02.13.37.14.41.01.02.14.39.14.42.01.03.13.41.14.44.01.04.13.42.14.46.02.05.12.42.14.49.02.06.13.42.14.5.02.07.12.44.14.51.02.08.12.43.14.52.03.1.11.43.15.53.02.11.12.42.14.54.03.12.11.42.14.54.03.13.11.41.14.54.04.14.1.4.15.54.04.15.1.39.14.53.04.16.1.37.14.53.05.17.09.35.14.52.05.18.1.34.14.5.05.18.09.32.14.5.05.18.09.3.14.48.06.19.08.28.14.46.06.18.09.26.14.44.06.19.08.24.14.42.06.18.08.22.14.4.07.18.07.2.15.37.06.18.08.18.14.34.07.17.07.16.14.32.08.16.06.14.14.3.08.15.06.12.15.27.08.14.06.11.14.23.08.13.06.09.14.21.09.12.05.07.14.18.09.1.06.06.14.15.09.09.05.05.14.12.09.07.05.04.14.09.1.05.04.03.14.06.1.04.05.01.14.04.1.01h.32l.14-.03.11-.02.03-.01.15-.06.11-.05.03-.02.14-.08.11-.08.03-.02.14-.11.12-.1.02-.03.14-.14.12-.13.02-.03.15-.17.12-.16.02-.03.14-.2.12-.19.02-.02.14-.24.13-.22.01-.02.14-.26.13-.26.02-.02.14-.29.13-.29.01-.02.14-.32.13-.32.01-.02.14-.35.14-.35v-.01l.14-.38.14-.39h.01l.14-.41.14-.42.14-.43.14-.44.01-.02.13-.44.14-.47.01-.02.14-.46.14-.49.01-.04.13-.47.14-.51.01-.04.13-.48.14-.53.02-.06.12-.48.14-.55.02-.07.13-.48.14-.56.02-.09.12-.48.14-.57.02-.1.12-.48.14-.58.03-.1.11-.48.15-.58.02-.12.12-.46.14-.59.03-.13.11-.45.14-.59.03-.13.11-.45.14-.57.04-.15.1-.43.15-.57.04-.15.1-.41.14-.56.04-.16.1-.39.14-.54.05-.17.09-.37.14-.52.05-.18.1-.34.14-.51.05-.17.09-.32.14-.49.05-.17.09-.3.14-.46.06-.18.08-.27.14-.43.06-.18.09-.25.14-.4.06-.18.08-.22.14-.38.06-.17.08-.19.14-.36.07-.15.07-.18.15-.32.06-.15.08-.16.14-.29.07-.14.07-.13.14-.27.08-.13.06-.11.14-.23.08-.12.06-.1.15-.2.08-.1.06-.08.14-.17.08-.09.06-.06.14-.14.09-.08.05-.05.14-.11.09-.06.06-.03.14-.09.09-.04.05-.02.14-.06.09-.02.05-.01.14-.03.1-.01h.04l.14.01.1.01h.05l.14.04.1.03.04.01.14.07.1.05.04.02.14.09.11.08.03.02.15.12.11.1.03.03.14.15.11.13.03.03.14.18.12.15.02.04.14.2.12.19.02.03.15.24.12.21.02.04.14.27.12.24.02.04.14.29.13.28.01.03.14.33.13.31.02.03.14.36.13.35.01.02.14.39.13.38.01.02.14.42.14.42v.01l.15.44.13.46h.01l.14.48.14.49.14.5.14.51.01.01.13.51.14.54.01.02.14.53.14.55.01.04.13.53.14.58.01.05.13.53.14.59.02.07.12.53.15.61.01.07.13.54.14.61.02.09.12.53.14.62.02.1.12.52.14.62.03.11.11.51.15.62.02.12.12.5.14.61.03.13.11.48.14.6.03.14.11.46.14.59.04.15.11.43.14.58.04.16.1.4.14.56.04.16.1.38.14.53.05.17.09.35.14.51.05.17.1.33.14.48.05.16.09.3.14.46.05.16.09.27.14.42.06.17.08.24.15.39.05.16.09.22.14.36.06.14.08.2.14.33.06.14.08.17.14.29.07.14.07.14.15.27.06.12.08.12.14.24.07.11.07.1.14.21.08.1.06.08.14.18.08.09.07.07.14.14.08.08.06.05.14.12.08.06.06.04.14.09.09.05.05.03.14.06.09.03.06.02.14.04.09.01.05.01.14.01h.14l.14-.02.1-.02.04-.01.15-.04.09-.04.05-.01.14-.07.1-.06.04-.02.14-.1.1-.08.04-.03.14-.12.11-.11.03-.03.15-.15.11-.13.03-.04.14-.19.11-.15.03-.05.14-.21.12-.19.02-.05.14-.25.12-.22.03-.04.14-.29.12-.25.02-.05.14-.32.12-.29.02-.05.14-.35.13-.34.01-.04.14-.39.13-.38.02-.03.14-.44.13-.41.01-.04.14-.47.13-.46.01-.02.14-.51.14-.51v-.01l.15-.55.13-.55h.01l.14-.58.14-.59v-.01l.14-.6.14-.62.01-.02.13-.62.14-.64.01-.03.14-.63.14-.68.01-.04.13-.64.14-.69.01-.05.13-.64.14-.71.02-.07.12-.63.15-.71.01-.09.13-.63.14-.71.02-.1.12-.61.14-.72.02-.11.12-.59.14-.71.03-.12.11-.57.15-.69.02-.13.12-.55.14-.67.03-.14.11-.52.14-.64.03-.15.11-.48.14-.62.04-.16.11-.44.14-.59.04-.15.1-.41.14-.55.04-.16.1-.37.14-.51.05-.16.09-.33.14-.48.05-.15.1-.3.14-.43.05-.14.09-.27.14-.39.05-.13.09-.23.14-.35.06-.13.08-.2.15-.31.05-.12.09-.17.14-.27.06-.11.08-.14.14-.23.06-.1.08-.11.14-.2.07-.09.07-.09.15-.17.06-.07.08-.08.14-.13.07-.06.07-.06.14-.11.08-.05.06-.04.14-.08.08-.04.07-.03.14-.06.08-.03.06-.01.14-.04.08-.01.06-.01.14-.02h.14l.14.01h.09l.06.01.14.02.09.03.05.01.14.04.09.04.05.02.14.06.1.05.04.02.15.09.09.07.05.02.14.11.1.09.04.03.14.13.1.11.04.03.14.16.11.13.03.04.15.19.11.15.03.05.14.22.11.19.03.05.14.25.12.22.02.05.14.29.12.26.03.05.14.33.12.3.02.06.14.37.12.35.02.05.14.42.13.4.01.05.14.47.13.45.02.04.14.52.13.5.01.04.14.57.13.56.01.03.14.61.14.62v.02l.15.66.13.67.01.01.14.7.14.72v.01l.14.73.14.76.01.02.13.75.14.79.01.03.14.77.14.8.01.05.13.77.14.82.01.07.13.76.14.82.02.09.12.74.15.82.01.1.13.72.14.81.02.11.12.69.14.79.02.13.12.65.14.76.03.13.11.61.15.72.02.14.12.57.14.68.03.14.11.51.14.64.03.14.11.46.14.58.04.14.11.41.14.53.04.14.1.36.14.47.04.13.1.31.14.41.05.12.09.27.14.36.05.11.1.22.14.31.05.11.09.18.14.26.05.09.09.15.14.22.06.08.08.12.15.18.05.07.09.09.14.15.06.06.08.07.14.12.06.04.08.06.14.09.07.04.07.04.15.07.06.03.08.03.14.05.07.03.07.02.14.04.08.01.06.02.14.03.08.01.07.01.14.01.08.01.06.01.14.01h.56l.09-.01h.06l.14-.01.09-.01.05-.01.14-.02.09-.02h.05l.14-.04.1-.02.04-.01.15-.04.09-.04.05-.02.14-.05.1-.05.04-.02.14-.08.1-.07.04-.02.14-.11.11-.08.04-.04.14-.13.11-.12.03-.03.14-.18.11-.15.03-.04.14-.22.12-.2.02-.05.14-.28.12-.25.03-.05.14-.34.12-.31.02-.06.14-.41.12-.39.02-.06.14-.5.13-.47.01-.06.15-.58.12-.57.02-.06.14-.67.13-.67.01-.05.14-.77.13-.77.01-.05.14-.86.14-.88v-.03l.15-.96.13-.97.01-.02.14-1.04.14-1.07.14-1.1.14-1.13.01-.02.13-1.13.15-1.17v-.05l.14-1.13.14-1.18.01-.08.13-1.11.14-1.17.01-.1.13-1.07.14-1.14.02-.11.12-1 .15-1.09.01-.12.13-.92.14-1.01.02-.13.12-.83.14-.9.02-.14.12-.72.14-.79.03-.14.12-.6.14-.69.02-.12.12-.5.14-.57.03-.11.11-.39.14-.46.03-.1.11-.3.14-.36.04-.08.11-.22.14-.26.04-.07.1-.15.14-.19.04-.05.1-.1.14-.13.05-.03.09-.07.15-.08.04-.02.1-.03.14-.05.05-.01.09-.01.14-.02h.42l.15.01.05.01.09.01.14.01.06.01.08.01.14.02.06.01.08.02.14.02.07.01.08.01.14.03.06.01.08.01.14.03.07.01.07.01.14.02.08.02.06.01.14.02.08.01.07.01.14.03.08.01.06.01.14.02.08.02.06.01.14.02.09.01.05.01.15.02.08.02.06.01.14.02.09.01.05.01.14.02.09.02h.05l.14.03.1.01.04.01.15.02.09.01.05.01.14.02.1.01.04.01.14.02.1.02h.04l.14.02.11.02h.04l.14.02.11.02h.03l.14.02.11.02h.03l.14.02.12.01.02.01.14.02.12.01.03.01.14.02.12.01h.02l.14.02.12.02h.02l.14.02.13.02h.01l.15.02.12.01h.02l.14.02.13.02h.01l.14.02.13.01.01.01.14.01.14.02.15.02.13.01h.01l.14.02.07.01.07.01"/><use xlink:href="#b" color="#29C3F6" transform="matrix(4.5 0 0 4.5 88.17 123.44)"/><use xlink:href="#b" color="#29C3F6" transform="matrix(4.5 0 0 4.5 204.52 7.51)"/></g><path fill="none" d="M41.95 110v52.01M324.48 110H41.95" color="#000"/><text stroke-linecap="round" stroke-linejoin="round" stroke-width="0" color="#000" font-family="Arial" font-size="8" text-anchor="middle" transform="translate(183.21 91.6)"><tspan>InsertDeleteCycles - Uniform</tspan></text></svg>