<svg xmlns="http://www.w3.org/2000/svg" xmlns:xlink="http://www.w3.org/1999/xlink" viewBox="0 0 400 200"><path fill="none" d="M0 0h400v200H0z"/><defs><path id="g" stroke="currentColor" stroke-width=".222" d="M-1 0h2M0-1v2"/><path id="h" stroke="currentColor" stroke-width=".222" d="m-1-1 2 2m0-2-2 2"/><path id="d" stroke="currentColor" stroke-width=".222" d="M-1-1h2v2h-2z"/><path id="b" stroke="currentColor" stroke-width=".222" d="m0-1.33-1.33 2h2.66z"/><path id="f" stroke="currentColor" stroke-width=".222" d="M0 1.33 1.265.411.782-1.067l-1.564-.009-.483 1.487z"/><use xlink:href="#b" id="c" stroke="currentColor" transform="rotate(180)"/><use xlink:href="#d" id="e" stroke="currentColor" transform="rotate(45)"/><circle id="a" cx="0" cy="0" r="1" stroke="currentColor" stroke-width=".222"/></defs><g fill="none" stroke="none" stroke-linecap="round" stroke-linejoin="round" stroke-width="0" color="#000"><path d="M67.63 162.01v-9m0-43.01v9"/><text fill="#000" font-family="Arial" font-size="8" text-anchor="middle" transform="translate(67.63 173.61)"><tspan> 1</tspan></text></g><g fill="none" stroke="none" stroke-linecap="round" stroke-linejoin="round" stroke-width="0" color="#000"><path d="M96.17 162.01v-9m0-43.01v9"/><text fill="#000" font-family="Arial" font-size="8" text-anchor="middle" transform="translate(96.17 173.61)"><tspan> 2</tspan></text></g><g fill="none" stroke="none" stroke-linecap="round" stroke-linejoin="round" stroke-width="0" color="#000"><path d="M124.71 162.01v-9m0-43.01v9"/><text fill="#000" font-family="Arial" font-size="8" text-anchor="middle" transform="translate(124.71 173.61)"><tspan> 3</tspan></text></g><g fill="none" stroke="none" stroke-linecap="round" stroke-linejoin="round" stroke-width="0" color="#000"><path d="M153.25 162.01v-9m0-43.01v9"/><text fill="#000" font-family="Arial" font-size="8" text-anchor="middle" transform="translate(153.25 173.61)"><tspan> 4</tspan></text></g><g fill="none" stroke="none" stroke-linecap="round" stroke-linejoin="round" stroke-width="0" color="#000"><path d="M181.79 162.01v-9m0-43.01v9"/><text fill="#000" font-family="Arial" font-size="8" text-anchor="middle" transform="translate(181.79 173.61)"><tspan> 5</tspan></text></g><g fill="none" stroke="none" stroke-linecap="round" stroke-linejoin="round" stroke-width="0" color="#000"><path d="M210.33 162.01v-9m0-43.01v9"/><text fill="#000" font-family="Arial" font-size="8" text-anchor="middle" transform="translate(210.33 173.61)"><tspan> 6</tspan></text></g><g fill="none" stroke="none" stroke-linecap="round" stroke-linejoin="round" stroke-width="0" color="#000"><path d="M238.86 162.01v-9m0-43.01v9"/><text fill="#000" font-family="Arial" font-size="8" text-anchor="middle" transform="translate(238.86 173.61)"><tspan> 7</tspan></text></g><g fill="none" stroke="none" stroke-linecap="round" stroke-linejoin="round" stroke-width="0" color="#000"><path d="M267.4 162.01v-9m0-43.01v9"/><text fill="#000" font-family="Arial" font-size="8" text-anchor="middle" transform="translate(267.4 173.61)"><tspan> 8</tspan></text></g><g fill="none" stroke="none" stroke-linecap="round" stroke-linejoin="round" stroke-width="0" color="#000"><path d="M295.94 162.01v-9m0-43.01v9"/><text fill="#000" font-family="Arial" font-size="8" text-anchor="middle" transform="translate(295.94 173.61)"><tspan> 9</tspan></text></g><g fill="none" stroke="none" stroke-linecap="round" stroke-linejoin="round" stroke-width="0" color="#000"><path d="M324.48 162.01v-9m0-43.01v9"/><text fill="#000" font-family="Arial" font-size="8" text-anchor="middle" transform="translate(324.48 173.61)"><tspan> 10</tspan></text></g><g fill="none" stroke="none" stroke-linecap="round" stroke-linejoin="round" stroke-width="0" color="#000"><path d="M324.48 162.01h-9"/><text fill="#000" font-family="Arial" font-size="8" transform="translate(332.87 164.61)"><tspan>0.87</tspan></text></g><g fill="none" stroke="none" stroke-linecap="round" stroke-linejoin="round" stroke-width="0" color="#000"><path d="M324.48 154.58h-9"/><text fill="#000" font-family="Arial" font-size="8" transform="translate(332.87 157.18)"><tspan>0.88</tspan></text></g><g fill="none" stroke="none" stroke-linecap="round" stroke-linejoin="round" stroke-width="0" color="#000"><path d="M324.48 147.15h-9"/><text fill="#000" font-family="Arial" font-size="8" transform="translate(332.87 149.75)"><tspan>0.88</tspan></text></g><g fill="none" stroke="none" stroke-linecap="round" stroke-linejoin="round" stroke-width="0" color="#000"><path d="M324.48 139.72h-9"/><text fill="#000" font-family="Arial" font-size="8" transform="translate(332.87 142.32)"><tspan>0.89</tspan></text></g><g fill="none" stroke="none" stroke-linecap="round" stroke-linejoin="round" stroke-width="0" color="#000"><path d="M324.48 132.29h-9"/><text fill="#000" font-family="Arial" font-size="8" transform="translate(332.87 134.89)"><tspan>0.89</tspan></text></g><g fill="none" stroke="none" stroke-linecap="round" stroke-linejoin="round" stroke-width="0" color="#000"><path d="M324.48 124.86h-9"/><text fill="#000" font-family="Arial" font-size="8" transform="translate(332.87 127.46)"><tspan>0.90</tspan></text></g><g fill="none" stroke="none" stroke-linecap="round" stroke-linejoin="round" stroke-width="0" color="#000"><path d="M324.48 117.43h-9"/><text fill="#000" font-family="Arial" font-size="8" transform="translate(332.87 120.03)"><tspan>0.90</tspan></text></g><g fill="none" stroke="none" stroke-linecap="round" stroke-linejoin="round" stroke-width="0" color="#000"><path d="M324.48 110h-9"/><text fill="#000" font-family="Arial" font-size="8" transform="translate(332.87 112.6)"><tspan>0.91</tspan></text></g><path fill="none" stroke="none" stroke-linecap="round" stroke-linejoin="round" stroke-width="0" d="M41.95 110v52.01M324.48 110H41.95" color="#000"/><text fill="#000" stroke="none" stroke-linecap="round" stroke-linejoin="round" stroke-width="0" color="#000" font-family="Arial" font-size="8" text-anchor="middle" transform="rotate(-90 78.435 57.575)"><tspan font-weight="bold">AveragePathLength </tspan><tspan> / log</tspan><tspan dy="2.4" font-size="6.4">2</tspan><tspan dy="-2.4">Size</tspan></text><text fill="#000" stroke="none" stroke-linecap="round" stroke-linejoin="round" stroke-width="0" color="#000" font-family="Arial" font-size="8" text-anchor="middle" transform="translate(183.21 191.61)"><tspan>Operations × 10</tspan><tspan dy="-4" font-size="6.4">5</tspan></text><text fill="#000" stroke="none" stroke-linecap="round" stroke-linejoin="round" color="#000" font-family="Arial" font-size="8" transform="translate(121.62 10.11)"><tspan>AVLBottomUp</tspan></text><g fill="none" stroke="currentColor" stroke-linecap="round" stroke-linejoin="round" color="#000"><path stroke="#000" d="M84.62 7.51h31.4m-74.07 153 .14-1.06.14-.94.01-.02.13-1 .15-.88v-.03l.14-.66.14-.44.01-.01.13-.09.14-.09.01-.02.13-.8.14-1.31.02-.09.12-.73.15-.72.01-.09.13-.67.14-.78.02-.11.12-.72.14-.81.02-.1.12-.49.14-.53.03-.1.12-.58.14-.69.02-.11.12-.36.14-.39.03-.08.11-.27.14-.34.03-.09.11-.28.14-.43.04-.12.11-.52.14-.8.04-.18.1-.41.14-.48.04-.12.1-.27.14-.33.05-.11.09-.31.15-.47.04-.12.1-.2.14-.24.05-.09.09-.17.14-.26.05-.1.09-.2.14-.35.06-.12.08-.18.15-.27.05-.12.09-.17.14-.3.06-.15.08-.26.14-.5.06-.18.08-.19.14-.29.07-.13.08-.14.14-.26.06-.12.08-.13.14-.25.07-.13.07-.11.14-.23.08-.12.06-.13.14-.3.08-.13.07-.09.14-.18.08-.1.06-.07.14-.16.08-.11.06-.12.14-.36.09-.18.05-.08.15-.18.08-.11.06-.08.14-.21.09-.13.05-.07.14-.2.09-.12.05-.06.14-.17.1-.11.04-.05.15-.13.09-.1.05-.06.14-.24.1-.11.04-.02.14-.05.1-.03.04-.01.14-.06.11-.06.04-.02.14-.15.11-.13.03-.04.14-.19.11-.13.03-.03.14-.09.12-.08.02-.03.14-.18.12-.18.03-.03.14-.22.12-.18.02-.02.14-.19.12-.13.02-.01.14-.07.13-.07.01-.01.15-.21.12-.15h.02l.14-.04.13-.04.01-.01.14-.18.13-.19.01-.01.14-.12.14-.11v-.01l.15-.14.13-.15h.01l.14-.19.14-.17.14-.15.14-.13h.01l.13-.11.15-.11.14-.12.14-.12.01-.01.13-.1.14-.11.01-.01.13-.14.14-.15.02-.02.12-.11.15-.12.01-.02.13-.1.14-.12.02-.01.12-.15.14-.14h.02l.12-.01h.17l.12-.06.14-.13.02-.03.12-.09.14-.11.03-.02.11-.09.14-.1.03-.03.11-.09.14-.1.04-.03.11-.04.14-.06.04-.02.1-.11.14-.19.04-.04.1-.06.14-.08.05-.03.09-.07.15-.1.04-.01.1.26.14.65.05.07.09-.03.14-.09.05-.03.09-.03.14-.05.06-.02.09-.04.14-.11.05-.07.09-.51.14-1.45.06-.29.08-.08.14-.07.06-.04.08-.04.14-.07.07-.04.08-.04.14-.08.06-.05.08-.04.14-.1.07-.05.07-.06.14-.1.08-.05.06-.05.15-.08.07-.04.07-.04.14-.09.08-.04.06-.04.14-.08.08-.04.06-.04.14-.07.09-.04.05-.03.15-.04.08-.04.06-.02.14-.08.09-.04.05-.02.14-.05.09-.03.05-.03.14-.09.1-.05.05-.02.14-.05.09-.04.05-.02.14-.09.1-.06.04-.02.14-.06.1-.02.04.01.14.08.11.07.04.02.14.07.11.05.03.02.14.1.11.08.03.02.14.09.12.07.02.02.15.07.11.06.03.02.14.1.12.08.02.02.14.05.12.06.02.01.14.11.13.11.01.01.15.11.12.11.02.01.14.13.13.11.01.01.14.07.13.1.01.02.14 1.23.14 1.09.01.01.14.12.13.08h.01l.14.13.14.12.14.07.14.07h.01l.13.12.15.12.14.09.14.08.01.01.13.1.14.1.01.01.13.08.14.08.02.01.13.1.14.11.01.01.13.09.14.11.02.02.12.1.14.14.02.02.12.13.14.16.03.03.12.09.14.11.02.03.12.12.14.15.03.03.11.09.14.12.03.03.11.11.15.15.03.04.11.11.14.16.04.04.1.14.14.18.04.05.1.09.14.11.05.03.09.08.15.11.04.04.1.11.14.18.05.06.09.1.14.15.05.05.09.08.14.13.06.04.09.08.14.13.05.04.09.05.14.05.06.03.08.06.14.14.06.06.08.1.14.2.07.09.08.09.14.17.06.08.08.08.14.16.07.07.07.09.14.17.08.09.06.08.15.15.07.09.07.09.14.21.08.11.06.09.14.17.08.08.06.06.14.13.09.08.05.07.15.16.08.1.06.05.14.13.09.09.05.05.14.14.09.1.05.06.14.19.1.11.05.06.14.17.09.04.05-.02.14-.27.1-.22.04-.07.14-.26.1-.18.04-.07.14-.21.11-.16.04-.06.14-.25.11-.17.03-.05.14-.18.11-.14.03-.04.14-.18.12-.13.02-.04.15-.14.11-.11.03-.03.14-.14.12-.12.02-.02.14-.15.12-.13.02-.02.14-.14.13-.13.01-.02.15-.19.12-.13.02-.01.14-.05.13-.05.01-.01.14-.2.13-.21.01-.02.14-.15.14-.12.01-.01.14-.11.13-.1h.01l.14-.15.14-.13.14-.1.14-.1h.01l.13-.14.15-.16v-.01l.14-.15.14-.16.01-.01.13-.14.14-.14.01-.01.13-.12.14-.11.02-.01.13-.08.14-.09.01-.01.13-.11.14-.14.02-.02.12-.11.14-.11.02-.02.12-.1.14-.11.03-.02.12-.09.14-.1.02-.03.12-.12.14-.17.03-.03.11-.09.14-.09.03-.02.11-.08.15-.11.03-.03.11-.08.14-.11.04-.03.1-.12.14-.17.04-.04.1-.07.14-.09.05-.02.09-.07.15-.08.04-.01.1-.03.14-.03.05-.01.09-.06.14-.14.05-.04.09-.07.14-.11.06-.04.09-.07.14-.12.05-.04.09-.06.14-.09.06-.03.08-.05.14-.08.06-.03.08-.05.14-.08.07-.04.08-.05.14-.1.06-.05.08-.04.14-.09.07-.05.07-.04.14-.09.08-.05.06-.03.15-.06.07-.03.07-.04.14-.08.08-.05.06-.03.14-.06.08-.05.06-.04.14-.1.09-.07.05-.05.15-.13.08-.07.06-.04.14-.1.09-.06.05-.03.14-.09.09-.02.05.01.14.12.1.08.05.03.14.07.09.04.05.03.14.1.1.08.04.03.14.12.1.09.04.03.14.12.11.08.04.03.14.13.11.07.03.02.14.05.11.05.03.02.14.12.12.09.02.02.15.1.11.07.03.02.14.09.12.08.02.02.14.09.12.09.02.01.14.13.13.11.01.01.15.1.12.08.02.01.14.08.13.09.01.01.14.16.13.15.01.01.14.11.14.1h.01l.14.13.13.08h.01l.14-.28.14-.26.14.09.14.13h.01l.13.1.15.09.14.06.14.07h.01l.13.09.14.1.01.01.13.09.14.09.02.01.13.12.14.14.01.01.13.12.14.13.02.01.12.11.14.12.02.02.12.1.15.12.02.02.12.13.14.17.02.03.12.11.14.13.03.02.11.09.14.11.03.02.11.11.15.14.03.04.11.14.14.19.04.05.1.13.14.17.04.03.1.08.14.08.05.03.1.08.14.12.04.04.1.09.14.13.05.04.09.07.14.11.05.04.09.09.14.16.06.06.09.11.14.18.05.07.09.1.14.17.06.06.08.08.14.12.06.08.08.34.15.96.06.25.08.12.14.15.06.07.08.09.14.18.07.09.07.09.14.19.08.08.06.06.15.1.07.06.07.07.14.18.08.08.06.05.14.08.08.06.06.07.14.21.09.12.06.09.14.2.08.05.06-.03.14-.25.09-.17.05-.08.14-.21.09-.13.05-.07.14-.18.1-.14.05-.07.14-.24.09-.14.05-.06.14-.17.1-.12.04-.06.14-.18.1-.14.04-.05.15-.23.1-.17.04-.07.14-.28.11-.11h.03l.14.03.11.02.03-.01.14-.12.12-.14.02-.03.15-.22.11-.17.03-.03.14-.15.12-.11.02-.03.14-.11.12-.11.02-.02.14-.2.13-.16.02-.02.14-.13.12-.1.02-.02.14-.12.13-.12.01-.01.14-.16.13-.14.01-.01.14-.1.14-.1.01-.01.14-.12.13-.12.01-.01.14-.15.14-.16v-.01l.14-.18.14-.15h.01l.14-.08.14-.08.14-.09.14-.11h.01l.13-.12.14-.12.01-.01.13-.09.14-.09h.02l.13-.1.14-.11.01-.01.13-.1.14-.11.02-.02.12-.15.14-.18.02-.02.12-.12.15-.11.02-.01.12-.07.14-.07.02-.01.12-.09.14-.11.03-.02.11-.07.14-.09.03-.01.11-.07.15-.08.03-.01.11-.06.14-.08.04-.02.1-.08.14-.11.04-.03.1-.08.14-.1.05-.03.1-.04.14-.05.04-.02.1-.07.14-.13.05-.04.09-.07.14-.09.05-.03.09-.06.14-.07.06-.03.09-.04.14-.05.05-.03.09-.06.14-.12.06-.03.08-.04.14-.05.06-.03.08-.05.15-.13.06-.06.08-.07.14-.14.06-.05.08-.05.14-.07.07-.03.07-.04.14-.07.08-.02.06-.01.15-.02.07-.01.07-.01.14-.04.08-.03.06-.04.14-.12.08-.03.06.01.14.1.09.06.06.03.14.07.08.04.06.04.14.13.09.07.05.03.14.07.09.04.05.04.14.1.1.06.05.03.14.05.09.05.05.03.14.12.1.08.04.04.14.11.1.08.04.03.15.13.1.08.04.03.14.09.11.08.03.03.14.1.11.1.03.03.14.17.12.14.02.03.15.15.11.11.03.02.14.15.12.06h.02l.14-.05.12-.03h.02l.14.08.13.1.02.02.14.11.12.1.02.01.14.11.13.1.01.01.14.09.13.09h.01l.14.12.14.1.01.01.14.08.13.08h.01l.14.11.14.11.14.11.14.11h.01l.14.13.14.14.14.09.14.09.01.01.13.1.14.13.01.01.13.15.14.16.02.01.13.1.14.09.01.01.13.12.14.13.02.01.12.07.14.09.02.01.12.11.15.14.02.02.12.05.14.06.02.01.12.11.14.17.03.02.11.09.14.1.03.03.11.1.15.13.03.03.11.09.14.11.04.03.1.11.14.16.04.04.1.09.14.11.05.04.1.1.14.16.04.04.1.09.14.12.05.05.09.1.14.16.05.05.09.1.14.16.06.06.09.07.14.13.05.08.09.36.14.91.06.2.08.1.14.11.06.05.08.07.15.14.06.06.08.09.14.19.06.09.08.1.14.2.07.11.07.11.14.22.08.11.06.12.15.23.07.05.07-.05.14-.27.08-.15.06-.09.14-.19.08-.11.06-.07.14-.16.09-.1.06-.08.14-.2.08-.12.06-.09.14-.23.09-.12.05-.07.14-.15.09-.09.05-.04.14-.12.1-.08.05-.04.14-.13.09-.09.05-.04.14-.14.1-.1.04-.04.14-.12.1-.09.04-.04.15-.14.1-.1.04-.04.14-.14.11-.11.03-.04.14-.17.11-.14.03-.04.14-.18.12-.13.03-.03.14-.11.11-.1.03-.03.14-.16.12-.14.02-.02.14-.16.12-.13.02-.03.14-.14.13-.12.02-.01.14-.11.12-.1.02-.01.14-.1.13-.09.01-.01.14-.12.13-.11.01-.01.15-.08.13-.08h.01l.14-.14.13-.14h.01l.14-.11.14-.1.14-.07.14-.06h.01l.14-.09.14-.09.14-.09.14-.11.01-.01.13-.18.14-.19.01-.01.13-.1.15-.08.01-.01.13-.05.14-.05.01-.01.13-.09.14-.1.02-.02.12-.07.14-.09.02-.01.12-.1.15-.13.02-.02.12-.11.14-.13.02-.02.12-.1.14-.11.03-.02.11-.07.14-.08.03-.02.12-.05.14-.06.03-.02.11-.05.14-.09.04-.02.1-.08.14-.1.04-.03.1-.06.14-.09.05-.03.1-.05.14-.08.04-.03.1-.07.14-.11.05-.03.09-.07.14-.11.05-.03.09-.06.15-.08.05-.04.09-.07.14-.12.05-.04.09-.05.14-.07.06-.03.08-.04.14-.08.06-.04.08-.04.15-.07.06-.03.08-.04.14-.07.06-.04.08-.05.14-.12.07-.02.07.03.14.11.08.06.07.04.14.06.07.04.07.05.14.1.08.05.06.05.14.11.08.05.06.04.14.09.09.05.06.04.14.13.08.07.06.03.14.09.09.06.05.03.14.1.09.06.05.03.15.07.09.06.05.04.14.16.09.1.05.04.14.12.1.08.04.04.14.1.1.07.04.04.15.12.1.09.04.03.14.1.11.07.03.02.14.12.11.08.03.03.14.09.12.08.03.02.14.13.11.09.03.02.14.08.12.08.02.01.14.12.12.1.02.02.14.13.13.12.02.02.14.14.12.12.02.01.14.08.13.08.01.01.14.08.13.09.01.01.15.1.13.11.01.01.14.12.13.12h.01l.14.13.14.13v.01l.14.13.14.12.01.01.14.1.14.12.14.18.14.2.01.01.13.15.14.1h.01l.13-.05.15-.05.01-.01.13.06.14.11.01.01.13.12.14.13.02.01.12.07.14.07.02.01.12.1.15.14.02.02.12.11.14.14.02.03.12.13.14.17.03.03.11.13.14.16.03.03.12.14.14.17.03.03.11.1.14.13.04.03.1.14.14.2.04.05.1.11.14.16.05.06.1.2.14.34.04.08.1.13.14.16.05.06.09.1.14.16.05.06.09.13.15.23.05.08.09.1.14.16.05.07.09.15.14.28.06.11.08.13.14.2.06.08.08.13.15.21.06.03.08-.07.14-.3.06-.13.08-.12.14-.2.07-.1.07-.1.14-.19.08-.1.07-.1.14-.21.07-.11.07-.09.14-.2.08-.1.06-.07.14-.15.08-.09.06-.08.14-.21.09-.11.06-.08.14-.18.08-.1.06-.07.14-.16.09-.09.05-.05.14-.13.09-.09.05-.05.15-.14.09-.08.05-.04.14-.1.09-.08.05-.04.14-.16.1-.12.04-.05.14-.17.1-.11.04-.05.15-.14.1-.1.04-.05.14-.16.11-.13.03-.04.14-.19.11-.13.03-.03.14-.14.12-.09.03-.03.14-.09.11-.08.03-.03.14-.17.12-.13.02-.02.14-.11.12-.08.02-.01.14-.08.13-.07.02-.02.14-.17.12-.16.02-.02.14-.14.13-.12.01-.01.14-.15.13-.12.01-.01.15-.09.13-.08.01-.01.14-.13.13-.13.01-.01.14-.1.14-.1.14-.11.14-.12h.01l.14-.13.14-.14.14-.11.14-.11h.01l.13-.1.14-.09.01-.01.13-.09.15-.09.01-.01.13-.07.14-.07.01-.01.13-.09.14-.12.02-.01.12-.1.14-.11.02-.01.12-.06.15-.06.02-.01.12-.08.14-.1.02-.01.12-.07.14-.09.03-.02.11-.08.14-.11.03-.02.12-.07.14-.08.03-.02.11-.09.14-.12.04-.03.1-.08.14-.11.04-.02.1-.07.14-.09.05-.03.1-.05.14-.08.04-.04.1-.29.14-.6.05-.1.09-.07.14-.06.05-.03.09-.04.15-.07.05-.03.09-.05.14-.09.05-.04.09-.05.14-.09.06-.01.08.03.14.1.06.04.08.04.15.05.06.03.08.06.14.13.06.06.08.07.14.13.07.06.07.05.14.1.08.05.07.04.14.07.07.04.07.05.14.12.08.06.06.05.14.09.08.05.06.03.15.06.08.04.06.04.14.1.08.06.06.05.14.11.09.08.05.04.14.11.09.07.05.04.15.11.09.08.05.04.14.13.09.07.05.04.14.09.1.06.04.03.14.11.1.09.05.03.14.16.1.1.04.03.14.09.1.08.04.03.14.14.11.12.03.03.14.15.12.11.03.02.14.09.11.08.03.02.14.14.12.11.02.02.14.12.12.09.02.01.15.09.12.09.02.01.14.14.12.12.02.01.14.1.13.09.01.01.14.15.13.14.01.01.15.14.13.13.01.01.14.14.13.13h.01l.14.14.14.14.14.14.14.13h.01l.14.15.14.14.14.12.14.12.01.01.13.15.14.15.01.01.13.13.15.13.01.01.13.17.14.18.01.01.13.09.14.09.02.01.12.12.14.18.02.02.13.23.14.27.02.03.12.14.14.13.02.02.12.1.14.11.03.03.11.12.14.16.03.03.12.08.14.1.03.03.11.12.14.19.03.04.11.11.14.14.04.04.1.12.15.18.04.06.1.14.14.22.04.06.1.12.14.16.05.06.09.16.14.25.05.07.09.16.15.19.05.02.09-.06.14-.24.05-.09.09-.13.14-.22.06-.08.08-.12.14-.2.06-.07.09-.1.14-.16.06-.07.08-.1.14-.19.06-.09.08-.12.14-.23.07-.1.07-.1.14-.17.07-.1.08-.13.14-.29.07-.14.07-.12.14-.24.08-.11.06-.08.14-.15.08-.09.06-.07.15-.16.08-.09.06-.07.14-.15.08-.09.06-.06.14-.14.09-.09.05-.07.14-.21.09-.11.05-.07.15-.15.09-.09.05-.04.14-.11.09-.09.05-.04.14-.16.1-.1.04-.05.14-.14.1-.1.05-.04.14-.16.1-.11.04-.03.14-.12.1-.09.04-.03.14-.12.11-.08.03-.02.14-.1.12-.08.03-.02.14-.14.11-.11.03-.02.14-.12.12-.1.02-.02.14-.09.12-.09.02-.02.15-.17.12-.15.02-.01.14-.12.12-.09.02-.01.14-.09.13-.08.01-.01.14-.12.13-.11.01-.01.15-.12.13-.11.01-.01.14-.08.13-.08.01-.01.14-.12.14-.1.14-.04.14-.05h.01l.14-.07.14-.1.14-.09.14-.09h.01l.13-.08.14-.08h.01l.13-.06.15-.06h.01l.13-.12.14-.15.01-.02.13-.1.14-.11.02-.01.12-.12.14-.13.02-.01.13-.07.14-.06.02-.01.12-.09.14-.11.02-.01.12-.07.14-.07.03-.01.11-.06.14-.07.03-.01.12-.05.14-.05.03-.02.11-.07.14-.1.03-.03.11-.08.14-.08.04-.01h.1l.15-.01h.04l.1-.03.14-.09.04-.02.1-.08.14-.12.05-.01.09.03.14.11.05.04.09.06.15.1.05.04.09.05.14.09.05.03.09.04.14.07.06.03.08.05.14.07.06.04.09.08.14.14.06.05.08.04.14.06.06.04.08.05.14.13.07.05.07.05.14.09.07.05.08.05.14.12.07.05.07.06.14.11.08.06.06.05.14.09.08.06.06.04.15.11.08.04.06.01.14.01.08.02.06.03.14.15.09.09.05.03.14.06.09.05.05.05.15.15.09.1.05.05.14.12.09.08.05.05.14.15.1.08.04.03.14.08.1.05.05.03.14.09.1.07.04.03.14.12.1.09.04.03.14.1.11.08.03.03.14.14.12.1.03.03.14.12.11.11.03.03.14.15.12.11.02.03.14.11.12.1.02.02.15.14.12.11.02.02.14.14.12.1.02.02.14.09.13.09.01.01.14.09.13.1h.01l.15.12.13.1.01.01.14.09.13.1.01.01.14.18.14.18.14.14.14.13h.01l.14.12.14.12v.01l.14.15.14.17h.01l.13.17.14.16.01.01.13.14.15.14.01.01.13.14.14.16.01.02.13.14.14.15.02.01.12.1.14.1.02.01.13.14.14.18.02.02.12.13.14.14.02.02.12.15.14.18.03.04.11.14.14.18.03.03.12.13.14.15.03.04.11.15.14.2.03.05.11.14.14.17.04.05.1.18.15.21.04.02.1-.11.14-.31.04-.08.1-.14.14-.19.05-.06.09-.14.14-.2.05-.07.1-.13.14-.19.05-.07.09-.12.14-.19.05-.07.09-.12.14-.18.06-.07.08-.12.14-.18.06-.08.09-.1.14-.18.06-.07.08-.09.14-.16.06-.07.08-.09.14-.16.07-.07.07-.09.15-.18.06-.08.08-.08.14-.15.07-.08.07-.08.14-.17.08-.09.06-.07.14-.14.08-.07.06-.04.15-.09.08-.06.06-.06.14-.16.08-.08.06-.04.14-.07.09-.04.05-.03.14-.09.09-.06.06-.03.14-.1.09-.07.05-.05.14-.13.09-.1.05-.04.14-.14.1-.1.04-.05.14-.17.1-.12.05-.05.14-.15.1-.09.04-.03.14-.07.1-.05.04-.03.14-.11.11-.05.03-.01.15-.02.11-.02.03-.02.14-.18.11-.15.03-.02.14-.11.12-.08.02-.02.14-.1.12-.1.02-.03.15-.2.12-.18.02-.02.14-.13.12-.12.02-.02.14-.16.13-.12.01-.01.14-.05.13-.04.02-.01.14-.07.13-.08h.01l.14-.09.13-.08h.01l.14-.09.14-.09.14-.11.14-.11h.01l.14-.09.14-.07v-.01l.14-.08.14-.08h.01l.13-.05.14-.05h.01l.14-.09.14-.1h.01l.13-.06.14-.06h.01l.13-.09.14-.1.02-.01.12-.06.14-.07.02-.01.13-.06.14-.08.02-.01.12-.08.14-.09.02-.02.12-.07.14-.09.03-.01.11-.07.15-.09.02-.01.12-.05.14-.06.03-.02.11-.05.14-.05h.03l.11.04.14.12.04.03.1.07.15.08.04.02.1.06.14.07.04.02.1.05.14.08.05.03.09.07.14.12.05.04.1.05.14.09.05.03.09.08.14.14.05.05.09.05.14.09.06.03.08.06.14.1.06.04.09.05.14.07.06.03.08.05.14.09.06.04.08.06.14.1.07.05.07.06.15.11.06.06.08.06.14.13.07.06.07.05.14.12.08.06.06.06.14.15.08.08.06.06.15.14.08.08.06.06.14.13.08.07.06.05.14.11.09.05.05.02.14.03.09.03.06.04.14.17.09.1.05.03.14.08.09.05.05.03.14.09.1.07.04.04.14.14.1.09.05.03.14.08.1.07.04.02.14.08.1.08.04.03.14.15.11.11.03.02.15.09.11.08.03.03.14.16.11.13.03.02.14.12.12.1.02.02.14.1.12.1.02.02.15.13.12.12.02.02.14.16.12.14.02.01.14.13.13.12.01.01.14.14.13.12.02.01.14.11.13.11.01.01.14.13.13.12.01.01.14.14.14.15.14.15.14.14h.01l.14.15.14.13.14.06.14.06h.01l.13.12.14.15.01.01.14.2.14.22.01.01.13.13.14.13.01.02.13.15.14.18.02.01.12.18.14.19.02.02.13.12.14.12.02.02.12.12.14.16.02.03.12.16.14.23.03.05.11.28.15.3.02.01.12-.14.14-.33.03-.06.11-.18.14-.22.03-.06.11-.2.14-.27.04-.06.1-.15.15-.17.04-.05.1-.11.14-.15.04-.06.1-.13.14-.21.05-.06.09-.12.14-.17.05-.06.1-.1.14-.16.05-.06.09-.12.14-.2.05-.05.09-.06.14-.08.06-.05.08-.08.14-.18.06-.07.09-.09.14-.15.06-.06.08-.09.14-.17.06-.06.08-.07.14-.11.07-.06.07-.07.15-.15.06-.07.08-.06.14-.11.07-.06.07-.06.14-.13.08-.06.06-.05.14-.11.08-.06.06-.04.15-.08.08-.06.06-.05.14-.15.08-.08.06-.05.14-.1.09-.06.05-.04.14-.13.09-.08.06-.04.14-.11.09-.08.05-.06.14-.21.09-.12.05-.04.14-.09.1-.07.04-.03.14-.09.1-.09.05-.05.14-.28.1-.11h.32l.14-.1.11-.1.03-.02.15-.13.11-.1.03-.02.14-.12.11-.09.03-.02.14-.11.12-.08.02-.02.14-.08.12-.06.02-.02.15-.1.12-.1.02-.02.14-.14.12-.11.02-.01.14-.11.13-.09.01-.01.14-.09.13-.09.02-.01.14-.18.13-.15h.01l.14-.09.13-.07.01-.01.14-.09.14-.1v-.01l.15-.13.13-.12h.01l.14-.08.14-.07.14-.09.14-.09h.01l.13-.07.14-.08h.01l.14-.1.14-.11.01-.01.13-.09.14-.08.01-.01.13-.05.14-.06.02-.01.12-.08.15-.09.01-.01.13-.09.14-.09.02-.01.12-.07.14-.05.02-.01.12.06.14.12.03.02.11.08.15.1.02.02.12.09.14.12.03.01.11.06.14.05.03.02.11.06.14.1.04.02.11.06.14.08.04.02.1.06.14.08.04.02.1.06.14.09.05.03.09.09.14.14.05.04.1.07.14.09.05.04.09.06.14.09.05.04.09.07.14.13.06.05.08.07.15.13.05.05.09.06.14.09.06.04.08.04.14.07.06.05.08.09.14.23.07.09.07.08.15.13.06.06.08.05.14.09.07.05.07.05.14.09.08.05.06.06.14.14.08.07.07.06.14.12.08.07.06.06.14.13.08.07.06.05.14.08.09.06.05.07.14.2.09.11.06.04.14.09.09.06.05.04.14.13.09.1.05.06.14.21.1.11.04.04.15.08.09.06.05.04.14.15.1.11.04.04.14.14.1.1.04.04.14.13.11.1.03.04.15.17.11.12.03.03.14.11.11.09.03.02.14.13.12.11.02.03.14.15.12.12.03.02.14.1.12.09.02.02.14.11.12.11.02.01.14.15.13.14.01.02.14.15.13.13.02.02.14.14.13.07h.01l.14.01h.14l.14.15.14.21.15.14.13.14h.01l.14.16.14.17.14.2.14.19h.01l.13.16.14.17.01.01.14.17.14.19.01.02.13.16.14.18.01.01.13.18.14.2.02.02.12.2.15.16h.01l.13-.11.14-.27.02-.04.12-.23.14-.27.02-.04.12-.14.14-.14.03-.03.11-.15.15-.19.02-.04.12-.13.14-.16.03-.04.11-.13.14-.16.03-.04.11-.15.14-.21.04-.04.11-.13.14-.15.04-.05.1-.1.14-.16.04-.05.1-.15.14-.24.05-.07.09-.14.14-.18.05-.06.1-.11.14-.17.05-.05.09-.11.14-.17.05-.06.09-.1.14-.15.06-.06.08-.1.15-.16.05-.07.09-.1.14-.16.06-.07.08-.1.14-.15.06-.07.08-.07.14-.11.07-.06.07-.08.15-.16.06-.08.08-.06.14-.13.07-.06.07-.05.14-.1.08-.07.06-.07.14-.16.08-.11.07-.11.14-.27.08-.13.06-.09.14-.18.08-.1.06-.06.14-.12.09-.08.05-.06.14-.17.09-.09.06-.05.14-.12.09-.06.05-.02.14-.07.09-.04.05-.02.14-.08.1-.06.04-.03.15-.1.09-.07.05-.03.14-.1.1-.07.04-.02.14-.1.1-.04h.04l.14.02.11.01h.03l.15-.11.11-.11.03-.03.14-.11.11-.08.03-.02.14-.1.12-.06.02-.02.14-.07.12-.07.03-.01.14-.1.12-.09.02-.01.14-.1.12-.09.02-.02.14-.13.13-.1.01-.01.14-.08.13-.06h.02l.14-.06.13-.07h.01l.14-.1.13-.11h.01l.14-.12.14-.1.15-.07.13-.07h.01l.14-.07.14-.09.14-.1.14-.11.01-.01.13-.1.14-.11h.01l.14-.07.14-.08.01-.01.13-.12.14-.09h.01l.13.07.14.12h.02l.12.06.15.07h.01l.13.06.14.08.02.01.12.07.14.09.02.01.12.08.14.1.03.02.11.08.15.09.02.02.12.1.14.12.03.02.11.08.14.09.03.03.11.07.14.09.04.03.11.07.14.09.04.03.1.07.14.1.04.03.1.07.14.1.05.04.09.08.14.13.05.04.1.1.14.16.05.04.09.06.14.08.05.04.09.06.14.12.06.05.08.1.15.19.05.06.09.05.14.08.06.04.08.07.14.15.06.06.08.06.14.08.07.04.07.04.15.08.06.05.08.09.14.27.07.1.07.06.14.08.08.05.06.06.14.14.08.07.07.06.14.11.08.07.06.04.14.1.08.07.06.05.14.14.09.07.05.04.14.09.09.06.06.05.14.14.09.09.05.05.14.13.09.09.05.06.14.16.1.09.04.03.15.09.09.07.05.05.14.19.1.12.04.04.14.1.1.08.04.03.14.13.11.1.04.03.14.12.11.09.03.03.14.1.11.09.03.02.14.15.12.12.02.02.14.11.12.1.03.03.14.15.12.13.02.02.14.16.12.13.02.03.14.18.13.15.01.01.15.09.12.08.02.01.14.15.13.08h.01l.14-.05.13-.04h.01l.14.14.14.2v.01l.15.21.13.19h.01l.14.15.14.14.14.13.14.15.01.01.13.26.15.19.14-.17.14-.29.01-.01.13-.2.14-.2.01-.01.13-.14.14-.14.02-.02.12-.18.15-.22.01-.02.13-.17.14-.18.02-.02.12-.14.14-.15.02-.02.12-.14.14-.18.03-.03.12-.17.14-.2.02-.04.12-.15.14-.17.03-.04.11-.14.14-.14h.03l.11.17.14.35.04.02.11-.09.14-.23.04-.04.1-.08.14-.09.04-.02.1-.06.14-.08.05-.03.09-.07.15-.11.04-.04.1-.11.14-.19.05-.06.09-.14.14-.22.05-.06.09-.09.14-.12.06-.05.08-.07.15-.13.05-.05.09-.08.14-.13.06-.05.08-.07.14-.13.06-.06.08-.07.14-.12.07-.06.08-.08.14-.15.06-.06.08-.06.14-.09.07-.06.07-.08.14-.2.08-.05.06-.01.14-.01.08-.01.07-.02.14-.13.08-.07.06-.04.14-.1.08-.06.06-.03.14-.09.09-.05.05-.04.15-.11.08-.05.06-.03.14-.05.09-.04.05-.04.14-.13.09-.08.05-.04.14-.11.1-.08.04-.03.15-.12.09-.07.05-.03.14-.08.1-.06.04-.02.14-.09.1-.06.04-.03.14-.1.11-.08.04-.02.14-.09.11-.07.03-.02.14-.08.11-.06.03-.02.14-.1.12-.09.02-.01.14-.11.12-.06.03-.01.14-.03.12-.03.02-.01.14-.07.12-.09.02-.01.14-.11.13-.09.01-.01.15-.08.12-.07h.02l.14-.08.13-.07.01-.01.14-.07.13-.08h.01l.14-.09.14-.09.15-.09.13-.08h.01l.14-.07.07-.03.07-.03"/><use xlink:href="#g" transform="matrix(4.5 0 0 4.5 323.49 122.19)"/><use xlink:href="#g" transform="matrix(4.5 0 0 4.5 100.32 7.51)"/></g><text fill="#000" stroke="none" stroke-linecap="round" stroke-linejoin="round" color="#000" font-family="Arial" font-size="8" transform="translate(225.82 10.11)"><tspan>AVLTopDown</tspan></text><g fill="none" stroke="currentColor" stroke-linecap="round" stroke-linejoin="round" color="#000"><path stroke="#29C3F6" stroke-dasharray="1.0,2.0" d="M188.82 7.51h31.4m-178.27 153 .14-1.06.14-.94.01-.02.13-1 .15-.88v-.03l.14-.66.14-.44.01-.01.13-.09.14-.09.01-.02.13-.8.14-1.31.02-.09.12-.73.15-.72.01-.09.13-.67.14-.78.02-.11.12-.72.14-.81.02-.1.12-.49.14-.53.03-.1.12-.58.14-.69.02-.11.12-.36.14-.39.03-.08.11-.27.14-.34.03-.09.11-.28.14-.43.04-.12.11-.52.14-.8.04-.18.1-.41.14-.48.04-.12.1-.27.14-.33.05-.11.09-.31.15-.47.04-.12.1-.2.14-.24.05-.09.09-.17.14-.26.05-.1.09-.2.14-.35.06-.12.08-.18.15-.27.05-.12.09-.17.14-.3.06-.15.08-.26.14-.5.06-.18.08-.19.14-.29.07-.13.08-.14.14-.26.06-.12.08-.13.14-.25.07-.13.07-.11.14-.23.08-.12.06-.13.14-.3.08-.13.07-.09.14-.18.08-.1.06-.07.14-.16.08-.11.06-.12.14-.36.09-.18.05-.08.15-.18.08-.11.06-.08.14-.21.09-.13.05-.07.14-.2.09-.12.05-.06.14-.17.1-.11.04-.05.15-.13.09-.1.05-.06.14-.24.1-.11.04-.02.14-.05.1-.03.04-.01.14-.06.11-.06.04-.02.14-.15.11-.13.03-.04.14-.19.11-.13.03-.03.14-.09.12-.08.02-.03.14-.18.12-.18.03-.03.14-.22.12-.18.02-.02.14-.19.12-.13.02-.01.14-.07.13-.07.01-.01.15-.21.12-.15h.02l.14-.04.13-.04.01-.01.14-.18.13-.19.01-.01.14-.12.14-.11v-.01l.15-.14.13-.15h.01l.14-.19.14-.17.14-.15.14-.13h.01l.13-.11.15-.11.14-.12.14-.12.01-.01.13-.1.14-.11.01-.01.13-.14.14-.15.02-.02.12-.11.15-.12.01-.02.13-.1.14-.12.02-.01.12-.15.14-.14h.02l.12-.01h.17l.12-.06.14-.13.02-.03.12-.09.14-.11.03-.02.11-.09.14-.1.03-.03.11-.09.14-.1.04-.03.11-.04.14-.06.04-.02.1-.11.14-.19.04-.04.1-.06.14-.08.05-.03.09-.07.15-.1.04-.01.1.26.14.65.05.07.09-.03.14-.09.05-.03.09-.03.14-.05.06-.02.09-.04.14-.11.05-.07.09-.51.14-1.45.06-.29.08-.08.14-.07.06-.04.08-.04.14-.07.07-.04.08-.04.14-.08.06-.05.08-.04.14-.1.07-.05.07-.06.14-.1.08-.05.06-.05.15-.08.07-.04.07-.04.14-.09.08-.04.06-.04.14-.08.08-.04.06-.04.14-.07.09-.04.05-.03.15-.04.08-.04.06-.02.14-.08.09-.04.05-.02.14-.05.09-.03.05-.03.14-.09.1-.05.05-.02.14-.05.09-.04.05-.02.14-.09.1-.06.04-.02.14-.06.1-.02.04.01.14.08.11.07.04.02.14.07.11.05.03.02.14.1.11.08.03.02.14.09.12.07.02.02.15.07.11.06.03.02.14.1.12.08.02.02.14.05.12.06.02.01.14.11.13.11.01.01.15.11.12.11.02.01.14.13.13.11.01.01.14.07.13.1.01.02.14 1.23.14 1.09.01.01.14.12.13.08h.01l.14.13.14.12.14.07.14.07h.01l.13.12.15.12.14.09.14.08.01.01.13.1.14.1.01.01.13.08.14.08.02.01.13.1.14.11.01.01.13.09.14.11.02.02.12.1.14.14.02.02.12.13.14.16.03.03.12.09.14.11.02.03.12.12.14.15.03.03.11.09.14.12.03.03.11.11.15.15.03.04.11.11.14.16.04.04.1.14.14.18.04.05.1.09.14.11.05.03.09.08.15.11.04.04.1.11.14.18.05.06.09.1.14.15.05.05.09.08.14.13.06.04.09.08.14.13.05.04.09.05.14.05.06.03.08.06.14.14.06.06.08.1.14.2.07.09.08.09.14.17.06.08.08.08.14.16.07.07.07.09.14.17.08.09.06.08.15.15.07.09.07.09.14.21.08.11.06.09.14.17.08.08.06.06.14.13.09.08.05.07.15.16.08.1.06.05.14.13.09.09.05.05.14.14.09.1.05.06.14.19.1.11.05.06.14.17.09.04.05-.02.14-.27.1-.22.04-.07.14-.26.1-.18.04-.07.14-.21.11-.16.04-.06.14-.25.11-.17.03-.05.14-.18.11-.14.03-.04.14-.18.12-.13.02-.04.15-.14.11-.11.03-.03.14-.14.12-.12.02-.02.14-.15.12-.13.02-.02.14-.14.13-.13.01-.02.15-.19.12-.13.02-.01.14-.05.13-.05.01-.01.14-.2.13-.21.01-.02.14-.15.14-.12.01-.01.14-.11.13-.1h.01l.14-.15.14-.13.14-.1.14-.1h.01l.13-.14.15-.16v-.01l.14-.15.14-.16.01-.01.13-.14.14-.14.01-.01.13-.12.14-.11.02-.01.13-.08.14-.09.01-.01.13-.11.14-.14.02-.02.12-.11.14-.11.02-.02.12-.1.14-.11.03-.02.12-.09.14-.1.02-.03.12-.12.14-.17.03-.03.11-.09.14-.09.03-.02.11-.08.15-.11.03-.03.11-.08.14-.11.04-.03.1-.12.14-.17.04-.04.1-.07.14-.09.05-.02.09-.07.15-.08.04-.01.1-.03.14-.03.05-.01.09-.06.14-.14.05-.04.09-.07.14-.11.06-.04.09-.07.14-.12.05-.04.09-.06.14-.09.06-.03.08-.05.14-.08.06-.03.08-.05.14-.08.07-.04.08-.05.14-.1.06-.05.08-.04.14-.09.07-.05.07-.04.14-.09.08-.05.06-.03.15-.06.07-.03.07-.04.14-.08.08-.05.06-.03.14-.06.08-.05.06-.04.14-.1.09-.07.05-.05.15-.13.08-.07.06-.04.14-.1.09-.06.05-.03.14-.09.09-.02.05.01.14.12.1.08.05.03.14.07.09.04.05.03.14.1.1.08.04.03.14.12.1.09.04.03.14.12.11.08.04.03.14.13.11.07.03.02.14.05.11.05.03.02.14.12.12.09.02.02.15.1.11.07.03.02.14.09.12.08.02.02.14.09.12.09.02.01.14.13.13.11.01.01.15.1.12.08.02.01.14.08.13.09.01.01.14.16.13.15.01.01.14.11.14.1h.01l.14.13.13.08h.01l.14-.28.14-.26.14.09.14.13h.01l.13.1.15.09.14.06.14.07h.01l.13.09.14.1.01.01.13.09.14.09.02.01.13.12.14.14.01.01.13.12.14.13.02.01.12.11.14.12.02.02.12.1.15.12.02.02.12.13.14.17.02.03.12.11.14.13.03.02.11.09.14.11.03.02.11.11.15.14.03.04.11.14.14.19.04.05.1.13.14.17.04.03.1.08.14.08.05.03.1.08.14.12.04.04.1.09.14.13.05.04.09.07.14.11.05.04.09.09.14.16.06.06.09.11.14.18.05.07.09.1.14.17.06.06.08.08.14.12.06.08.08.34.15.96.06.25.08.12.14.15.06.07.08.09.14.18.07.09.07.09.14.19.08.08.06.06.15.1.07.06.07.07.14.18.08.08.06.05.14.08.08.06.06.07.14.21.09.12.06.09.14.2.08.05.06-.03.14-.25.09-.17.05-.08.14-.21.09-.13.05-.07.14-.18.1-.14.05-.07.14-.24.09-.14.05-.06.14-.17.1-.12.04-.06.14-.18.1-.14.04-.05.15-.23.1-.17.04-.07.14-.28.11-.11h.03l.14.03.11.02.03-.01.14-.12.12-.14.02-.03.15-.22.11-.17.03-.03.14-.15.12-.11.02-.03.14-.11.12-.11.02-.02.14-.2.13-.16.02-.02.14-.13.12-.1.02-.02.14-.12.13-.12.01-.01.14-.16.13-.14.01-.01.14-.1.14-.1.01-.01.14-.12.13-.12.01-.01.14-.15.14-.16v-.01l.14-.18.14-.15h.01l.14-.08.14-.08.14-.09.14-.11h.01l.13-.12.14-.12.01-.01.13-.09.14-.09h.02l.13-.1.14-.11.01-.01.13-.1.14-.11.02-.02.12-.15.14-.18.02-.02.12-.12.15-.11.02-.01.12-.07.14-.07.02-.01.12-.09.14-.11.03-.02.11-.07.14-.09.03-.01.11-.07.15-.08.03-.01.11-.06.14-.08.04-.02.1-.08.14-.11.04-.03.1-.08.14-.1.05-.03.1-.04.14-.05.04-.02.1-.07.14-.13.05-.04.09-.07.14-.09.05-.03.09-.06.14-.07.06-.03.09-.04.14-.05.05-.03.09-.06.14-.12.06-.03.08-.04.14-.05.06-.03.08-.05.15-.13.06-.06.08-.07.14-.14.06-.05.08-.05.14-.07.07-.03.07-.04.14-.07.08-.02.06-.01.15-.02.07-.01.07-.01.14-.04.08-.03.06-.04.14-.12.08-.03.06.01.14.1.09.06.06.03.14.07.08.04.06.04.14.13.09.07.05.03.14.07.09.04.05.04.14.1.1.06.05.03.14.05.09.05.05.03.14.12.1.08.04.04.14.11.1.08.04.03.15.13.1.08.04.03.14.09.11.08.03.03.14.1.11.1.03.03.14.17.12.14.02.03.15.15.11.11.03.02.14.15.12.06h.02l.14-.05.12-.03h.02l.14.08.13.1.02.02.14.11.12.1.02.01.14.11.13.1.01.01.14.09.13.09h.01l.14.12.14.1.01.01.14.08.13.08h.01l.14.11.14.11.14.11.14.11h.01l.14.13.14.14.14.09.14.09.01.01.13.1.14.13.01.01.13.15.14.16.02.01.13.1.14.09.01.01.13.12.14.13.02.01.12.07.14.09.02.01.12.11.15.14.02.02.12.05.14.06.02.01.12.11.14.17.03.02.11.09.14.1.03.03.11.1.15.13.03.03.11.09.14.11.04.03.1.11.14.16.04.04.1.09.14.11.05.04.1.1.14.16.04.04.1.09.14.12.05.05.09.1.14.16.05.05.09.1.14.16.06.06.09.07.14.13.05.08.09.36.14.91.06.2.08.1.14.11.06.05.08.07.15.14.06.06.08.09.14.19.06.09.08.1.14.2.07.11.07.11.14.22.08.11.06.12.15.23.07.05.07-.05.14-.27.08-.15.06-.09.14-.19.08-.11.06-.07.14-.16.09-.1.06-.08.14-.2.08-.12.06-.09.14-.23.09-.12.05-.07.14-.15.09-.09.05-.04.14-.12.1-.08.05-.04.14-.13.09-.09.05-.04.14-.14.1-.1.04-.04.14-.12.1-.09.04-.04.15-.14.1-.1.04-.04.14-.14.11-.11.03-.04.14-.17.11-.14.03-.04.14-.18.12-.13.03-.03.14-.11.11-.1.03-.03.14-.16.12-.14.02-.02.14-.16.12-.13.02-.03.14-.14.13-.12.02-.01.14-.11.12-.1.02-.01.14-.1.13-.09.01-.01.14-.12.13-.11.01-.01.15-.08.13-.08h.01l.14-.14.13-.14h.01l.14-.11.14-.1.14-.07.14-.06h.01l.14-.09.14-.09.14-.09.14-.11.01-.01.13-.18.14-.19.01-.01.13-.1.15-.08.01-.01.13-.05.14-.05.01-.01.13-.09.14-.1.02-.02.12-.07.14-.09.02-.01.12-.1.15-.13.02-.02.12-.11.14-.13.02-.02.12-.1.14-.11.03-.02.11-.07.14-.08.03-.02.12-.05.14-.06.03-.02.11-.05.14-.09.04-.02.1-.08.14-.1.04-.03.1-.06.14-.09.05-.03.1-.05.14-.08.04-.03.1-.07.14-.11.05-.03.09-.07.14-.11.05-.03.09-.06.15-.08.05-.04.09-.07.14-.12.05-.04.09-.05.14-.07.06-.03.08-.04.14-.08.06-.04.08-.04.15-.07.06-.03.08-.04.14-.07.06-.04.08-.05.14-.12.07-.02.07.03.14.11.08.06.07.04.14.06.07.04.07.05.14.1.08.05.06.05.14.11.08.05.06.04.14.09.09.05.06.04.14.13.08.07.06.03.14.09.09.06.05.03.14.1.09.06.05.03.15.07.09.06.05.04.14.16.09.1.05.04.14.12.1.08.04.04.14.1.1.07.04.04.15.12.1.09.04.03.14.1.11.07.03.02.14.12.11.08.03.03.14.09.12.08.03.02.14.13.11.09.03.02.14.08.12.08.02.01.14.12.12.1.02.02.14.13.13.12.02.02.14.14.12.12.02.01.14.08.13.08.01.01.14.08.13.09.01.01.15.1.13.11.01.01.14.12.13.12h.01l.14.13.14.13v.01l.14.13.14.12.01.01.14.1.14.12.14.18.14.2.01.01.13.15.14.1h.01l.13-.05.15-.05.01-.01.13.06.14.11.01.01.13.12.14.13.02.01.12.07.14.07.02.01.12.1.15.14.02.02.12.11.14.14.02.03.12.13.14.17.03.03.11.13.14.16.03.03.12.14.14.17.03.03.11.1.14.13.04.03.1.14.14.2.04.05.1.11.14.16.05.06.1.2.14.34.04.08.1.13.14.16.05.06.09.1.14.16.05.06.09.13.15.23.05.08.09.1.14.16.05.07.09.15.14.28.06.11.08.13.14.2.06.08.08.13.15.21.06.03.08-.07.14-.3.06-.13.08-.12.14-.2.07-.1.07-.1.14-.19.08-.1.07-.1.14-.21.07-.11.07-.09.14-.2.08-.1.06-.07.14-.15.08-.09.06-.08.14-.21.09-.11.06-.08.14-.18.08-.1.06-.07.14-.16.09-.09.05-.05.14-.13.09-.09.05-.05.15-.14.09-.08.05-.04.14-.1.09-.08.05-.04.14-.16.1-.12.04-.05.14-.17.1-.11.04-.05.15-.14.1-.1.04-.05.14-.16.11-.13.03-.04.14-.19.11-.13.03-.03.14-.14.12-.09.03-.03.14-.09.11-.08.03-.03.14-.17.12-.13.02-.02.14-.11.12-.08.02-.01.14-.08.13-.07.02-.02.14-.17.12-.16.02-.02.14-.14.13-.12.01-.01.14-.15.13-.12.01-.01.15-.09.13-.08.01-.01.14-.13.13-.13.01-.01.14-.1.14-.1.14-.11.14-.12h.01l.14-.13.14-.14.14-.11.14-.11h.01l.13-.1.14-.09.01-.01.13-.09.15-.09.01-.01.13-.07.14-.07.01-.01.13-.09.14-.12.02-.01.12-.1.14-.11.02-.01.12-.06.15-.06.02-.01.12-.08.14-.1.02-.01.12-.07.14-.09.03-.02.11-.08.14-.11.03-.02.12-.07.14-.08.03-.02.11-.09.14-.12.04-.03.1-.08.14-.11.04-.02.1-.07.14-.09.05-.03.1-.05.14-.08.04-.04.1-.29.14-.6.05-.1.09-.07.14-.06.05-.03.09-.04.15-.07.05-.03.09-.05.14-.09.05-.04.09-.05.14-.09.06-.01.08.03.14.1.06.04.08.04.15.05.06.03.08.06.14.13.06.06.08.07.14.13.07.06.07.05.14.1.08.05.07.04.14.07.07.04.07.05.14.12.08.06.06.05.14.09.08.05.06.03.15.06.08.04.06.04.14.1.08.06.06.05.14.11.09.08.05.04.14.11.09.07.05.04.15.11.09.08.05.04.14.13.09.07.05.04.14.09.1.06.04.03.14.11.1.09.05.03.14.16.1.1.04.03.14.09.1.08.04.03.14.14.11.12.03.03.14.15.12.11.03.02.14.09.11.08.03.02.14.14.12.11.02.02.14.12.12.09.02.01.15.09.12.09.02.01.14.14.12.12.02.01.14.1.13.09.01.01.14.15.13.14.01.01.15.14.13.13.01.01.14.14.13.13h.01l.14.14.14.14.14.14.14.13h.01l.14.15.14.14.14.12.14.12.01.01.13.15.14.15.01.01.13.13.15.13.01.01.13.17.14.18.01.01.13.09.14.09.02.01.12.12.14.18.02.02.13.23.14.27.02.03.12.14.14.13.02.02.12.1.14.11.03.03.11.12.14.16.03.03.12.08.14.1.03.03.11.12.14.19.03.04.11.11.14.14.04.04.1.12.15.18.04.06.1.14.14.22.04.06.1.12.14.16.05.06.09.16.14.25.05.07.09.16.15.19.05.02.09-.06.14-.24.05-.09.09-.13.14-.22.06-.08.08-.12.14-.2.06-.07.09-.1.14-.16.06-.07.08-.1.14-.19.06-.09.08-.12.14-.23.07-.1.07-.1.14-.17.07-.1.08-.13.14-.29.07-.14.07-.12.14-.24.08-.11.06-.08.14-.15.08-.09.06-.07.15-.16.08-.09.06-.07.14-.15.08-.09.06-.06.14-.14.09-.09.05-.07.14-.21.09-.11.05-.07.15-.15.09-.09.05-.04.14-.11.09-.09.05-.04.14-.16.1-.1.04-.05.14-.14.1-.1.05-.04.14-.16.1-.11.04-.03.14-.12.1-.09.04-.03.14-.12.11-.08.03-.02.14-.1.12-.08.03-.02.14-.14.11-.11.03-.02.14-.12.12-.1.02-.02.14-.09.12-.09.02-.02.15-.17.12-.15.02-.01.14-.12.12-.09.02-.01.14-.09.13-.08.01-.01.14-.12.13-.11.01-.01.15-.12.13-.11.01-.01.14-.08.13-.08.01-.01.14-.12.14-.1.14-.04.14-.05h.01l.14-.07.14-.1.14-.09.14-.09h.01l.13-.08.14-.08h.01l.13-.06.15-.06h.01l.13-.12.14-.15.01-.02.13-.1.14-.11.02-.01.12-.12.14-.13.02-.01.13-.07.14-.06.02-.01.12-.09.14-.11.02-.01.12-.07.14-.07.03-.01.11-.06.14-.07.03-.01.12-.05.14-.05.03-.02.11-.07.14-.1.03-.03.11-.08.14-.08.04-.01h.1l.15-.01h.04l.1-.03.14-.09.04-.02.1-.08.14-.12.05-.01.09.03.14.11.05.04.09.06.15.1.05.04.09.05.14.09.05.03.09.04.14.07.06.03.08.05.14.07.06.04.09.08.14.14.06.05.08.04.14.06.06.04.08.05.14.13.07.05.07.05.14.09.07.05.08.05.14.12.07.05.07.06.14.11.08.06.06.05.14.09.08.06.06.04.15.11.08.04.06.01.14.01.08.02.06.03.14.15.09.09.05.03.14.06.09.05.05.05.15.15.09.1.05.05.14.12.09.08.05.05.14.15.1.08.04.03.14.08.1.05.05.03.14.09.1.07.04.03.14.12.1.09.04.03.14.1.11.08.03.03.14.14.12.1.03.03.14.12.11.11.03.03.14.15.12.11.02.03.14.11.12.1.02.02.15.14.12.11.02.02.14.14.12.1.02.02.14.09.13.09.01.01.14.09.13.1h.01l.15.12.13.1.01.01.14.09.13.1.01.01.14.18.14.18.14.14.14.13h.01l.14.12.14.12v.01l.14.15.14.17h.01l.13.17.14.16.01.01.13.14.15.14.01.01.13.14.14.16.01.02.13.14.14.15.02.01.12.1.14.1.02.01.13.14.14.18.02.02.12.13.14.14.02.02.12.15.14.18.03.04.11.14.14.18.03.03.12.13.14.15.03.04.11.15.14.2.03.05.11.14.14.17.04.05.1.18.15.21.04.02.1-.11.14-.31.04-.08.1-.14.14-.19.05-.06.09-.14.14-.2.05-.07.1-.13.14-.19.05-.07.09-.12.14-.19.05-.07.09-.12.14-.18.06-.07.08-.12.14-.18.06-.08.09-.1.14-.18.06-.07.08-.09.14-.16.06-.07.08-.09.14-.16.07-.07.07-.09.15-.18.06-.08.08-.08.14-.15.07-.08.07-.08.14-.17.08-.09.06-.07.14-.14.08-.07.06-.04.15-.09.08-.06.06-.06.14-.16.08-.08.06-.04.14-.07.09-.04.05-.03.14-.09.09-.06.06-.03.14-.1.09-.07.05-.05.14-.13.09-.1.05-.04.14-.14.1-.1.04-.05.14-.17.1-.12.05-.05.14-.15.1-.09.04-.03.14-.07.1-.05.04-.03.14-.11.11-.05.03-.01.15-.02.11-.02.03-.02.14-.18.11-.15.03-.02.14-.11.12-.08.02-.02.14-.1.12-.1.02-.03.15-.2.12-.18.02-.02.14-.13.12-.12.02-.02.14-.16.13-.12.01-.01.14-.05.13-.04.02-.01.14-.07.13-.08h.01l.14-.09.13-.08h.01l.14-.09.14-.09.14-.11.14-.11h.01l.14-.09.14-.07v-.01l.14-.08.14-.08h.01l.13-.05.14-.05h.01l.14-.09.14-.1h.01l.13-.06.14-.06h.01l.13-.09.14-.1.02-.01.12-.06.14-.07.02-.01.13-.06.14-.08.02-.01.12-.08.14-.09.02-.02.12-.07.14-.09.03-.01.11-.07.15-.09.02-.01.12-.05.14-.06.03-.02.11-.05.14-.05h.03l.11.04.14.12.04.03.1.07.15.08.04.02.1.06.14.07.04.02.1.05.14.08.05.03.09.07.14.12.05.04.1.05.14.09.05.03.09.08.14.14.05.05.09.05.14.09.06.03.08.06.14.1.06.04.09.05.14.07.06.03.08.05.14.09.06.04.08.06.14.1.07.05.07.06.15.11.06.06.08.06.14.13.07.06.07.05.14.12.08.06.06.06.14.15.08.08.06.06.15.14.08.08.06.06.14.13.08.07.06.05.14.11.09.05.05.02.14.03.09.03.06.04.14.17.09.1.05.03.14.08.09.05.05.03.14.09.1.07.04.04.14.14.1.09.05.03.14.08.1.07.04.02.14.08.1.08.04.03.14.15.11.11.03.02.15.09.11.08.03.03.14.16.11.13.03.02.14.12.12.1.02.02.14.1.12.1.02.02.15.13.12.12.02.02.14.16.12.14.02.01.14.13.13.12.01.01.14.14.13.12.02.01.14.11.13.11.01.01.14.13.13.12.01.01.14.14.14.15.14.15.14.14h.01l.14.15.14.13.14.06.14.06h.01l.13.12.14.15.01.01.14.2.14.22.01.01.13.13.14.13.01.02.13.15.14.18.02.01.12.18.14.19.02.02.13.12.14.12.02.02.12.12.14.16.02.03.12.16.14.23.03.05.11.28.15.3.02.01.12-.14.14-.33.03-.06.11-.18.14-.22.03-.06.11-.2.14-.27.04-.06.1-.15.15-.17.04-.05.1-.11.14-.15.04-.06.1-.13.14-.21.05-.06.09-.12.14-.17.05-.06.1-.1.14-.16.05-.06.09-.12.14-.2.05-.05.09-.06.14-.08.06-.05.08-.08.14-.18.06-.07.09-.09.14-.15.06-.06.08-.09.14-.17.06-.06.08-.07.14-.11.07-.06.07-.07.15-.15.06-.07.08-.06.14-.11.07-.06.07-.06.14-.13.08-.06.06-.05.14-.11.08-.06.06-.04.15-.08.08-.06.06-.05.14-.15.08-.08.06-.05.14-.1.09-.06.05-.04.14-.13.09-.08.06-.04.14-.11.09-.08.05-.06.14-.21.09-.12.05-.04.14-.09.1-.07.04-.03.14-.09.1-.09.05-.05.14-.28.1-.11h.32l.14-.1.11-.1.03-.02.15-.13.11-.1.03-.02.14-.12.11-.09.03-.02.14-.11.12-.08.02-.02.14-.08.12-.06.02-.02.15-.1.12-.1.02-.02.14-.14.12-.11.02-.01.14-.11.13-.09.01-.01.14-.09.13-.09.02-.01.14-.18.13-.15h.01l.14-.09.13-.07.01-.01.14-.09.14-.1v-.01l.15-.13.13-.12h.01l.14-.08.14-.07.14-.09.14-.09h.01l.13-.07.14-.08h.01l.14-.1.14-.11.01-.01.13-.09.14-.08.01-.01.13-.05.14-.06.02-.01.12-.08.15-.09.01-.01.13-.09.14-.09.02-.01.12-.07.14-.05.02-.01.12.06.14.12.03.02.11.08.15.1.02.02.12.09.14.12.03.01.11.06.14.05.03.02.11.06.14.1.04.02.11.06.14.08.04.02.1.06.14.08.04.02.1.06.14.09.05.03.09.09.14.14.05.04.1.07.14.09.05.04.09.06.14.09.05.04.09.07.14.13.06.05.08.07.15.13.05.05.09.06.14.09.06.04.08.04.14.07.06.05.08.09.14.23.07.09.07.08.15.13.06.06.08.05.14.09.07.05.07.05.14.09.08.05.06.06.14.14.08.07.07.06.14.12.08.07.06.06.14.13.08.07.06.05.14.08.09.06.05.07.14.2.09.11.06.04.14.09.09.06.05.04.14.13.09.1.05.06.14.21.1.11.04.04.15.08.09.06.05.04.14.15.1.11.04.04.14.14.1.1.04.04.14.13.11.1.03.04.15.17.11.12.03.03.14.11.11.09.03.02.14.13.12.11.02.03.14.15.12.12.03.02.14.1.12.09.02.02.14.11.12.11.02.01.14.15.13.14.01.02.14.15.13.13.02.02.14.14.13.07h.01l.14.01h.14l.14.15.14.21.15.14.13.14h.01l.14.16.14.17.14.2.14.19h.01l.13.16.14.17.01.01.14.17.14.19.01.02.13.16.14.18.01.01.13.18.14.2.02.02.12.2.15.16h.01l.13-.11.14-.27.02-.04.12-.23.14-.27.02-.04.12-.14.14-.14.03-.03.11-.15.15-.19.02-.04.12-.13.14-.16.03-.04.11-.13.14-.16.03-.04.11-.15.14-.21.04-.04.11-.13.14-.15.04-.05.1-.1.14-.16.04-.05.1-.15.14-.24.05-.07.09-.14.14-.18.05-.06.1-.11.14-.17.05-.05.09-.11.14-.17.05-.06.09-.1.14-.15.06-.06.08-.1.15-.16.05-.07.09-.1.14-.16.06-.07.08-.1.14-.15.06-.07.08-.07.14-.11.07-.06.07-.08.15-.16.06-.08.08-.06.14-.13.07-.06.07-.05.14-.1.08-.07.06-.07.14-.16.08-.11.07-.11.14-.27.08-.13.06-.09.14-.18.08-.1.06-.06.14-.12.09-.08.05-.06.14-.17.09-.09.06-.05.14-.12.09-.06.05-.02.14-.07.09-.04.05-.02.14-.08.1-.06.04-.03.15-.1.09-.07.05-.03.14-.1.1-.07.04-.02.14-.1.1-.04h.04l.14.02.11.01h.03l.15-.11.11-.11.03-.03.14-.11.11-.08.03-.02.14-.1.12-.06.02-.02.14-.07.12-.07.03-.01.14-.1.12-.09.02-.01.14-.1.12-.09.02-.02.14-.13.13-.1.01-.01.14-.08.13-.06h.02l.14-.06.13-.07h.01l.14-.1.13-.11h.01l.14-.12.14-.1.15-.07.13-.07h.01l.14-.07.14-.09.14-.1.14-.11.01-.01.13-.1.14-.11h.01l.14-.07.14-.08.01-.01.13-.12.14-.09h.01l.13.07.14.12h.02l.12.06.15.07h.01l.13.06.14.08.02.01.12.07.14.09.02.01.12.08.14.1.03.02.11.08.15.09.02.02.12.1.14.12.03.02.11.08.14.09.03.03.11.07.14.09.04.03.11.07.14.09.04.03.1.07.14.1.04.03.1.07.14.1.05.04.09.08.14.13.05.04.1.1.14.16.05.04.09.06.14.08.05.04.09.06.14.12.06.05.08.1.15.19.05.06.09.05.14.08.06.04.08.07.14.15.06.06.08.06.14.08.07.04.07.04.15.08.06.05.08.09.14.27.07.1.07.06.14.08.08.05.06.06.14.14.08.07.07.06.14.11.08.07.06.04.14.1.08.07.06.05.14.14.09.07.05.04.14.09.09.06.06.05.14.14.09.09.05.05.14.13.09.09.05.06.14.16.1.09.04.03.15.09.09.07.05.05.14.19.1.12.04.04.14.1.1.08.04.03.14.13.11.1.04.03.14.12.11.09.03.03.14.1.11.09.03.02.14.15.12.12.02.02.14.11.12.1.03.03.14.15.12.13.02.02.14.16.12.13.02.03.14.18.13.15.01.01.15.09.12.08.02.01.14.15.13.08h.01l.14-.05.13-.04h.01l.14.14.14.2v.01l.15.21.13.19h.01l.14.15.14.14.14.13.14.15.01.01.13.26.15.19.14-.17.14-.29.01-.01.13-.2.14-.2.01-.01.13-.14.14-.14.02-.02.12-.18.15-.22.01-.02.13-.17.14-.18.02-.02.12-.14.14-.15.02-.02.12-.14.14-.18.03-.03.12-.17.14-.2.02-.04.12-.15.14-.17.03-.04.11-.14.14-.14h.03l.11.17.14.35.04.02.11-.09.14-.23.04-.04.1-.08.14-.09.04-.02.1-.06.14-.08.05-.03.09-.07.15-.11.04-.04.1-.11.14-.19.05-.06.09-.14.14-.22.05-.06.09-.09.14-.12.06-.05.08-.07.15-.13.05-.05.09-.08.14-.13.06-.05.08-.07.14-.13.06-.06.08-.07.14-.12.07-.06.08-.08.14-.15.06-.06.08-.06.14-.09.07-.06.07-.08.14-.2.08-.05.06-.01.14-.01.08-.01.07-.02.14-.13.08-.07.06-.04.14-.1.08-.06.06-.03.14-.09.09-.05.05-.04.15-.11.08-.05.06-.03.14-.05.09-.04.05-.04.14-.13.09-.08.05-.04.14-.11.1-.08.04-.03.15-.12.09-.07.05-.03.14-.08.1-.06.04-.02.14-.09.1-.06.04-.03.14-.1.11-.08.04-.02.14-.09.11-.07.03-.02.14-.08.11-.06.03-.02.14-.1.12-.09.02-.01.14-.11.12-.06.03-.01.14-.03.12-.03.02-.01.14-.07.12-.09.02-.01.14-.11.13-.09.01-.01.15-.08.12-.07h.02l.14-.08.13-.07.01-.01.14-.07.13-.08h.01l.14-.09.14-.09.15-.09.13-.08h.01l.14-.07.07-.03.07-.03"/><use xlink:href="#h" color="#29C3F6" transform="matrix(4.5 0 0 4.5 88.17 124.97)"/><use xlink:href="#h" color="#29C3F6" transform="matrix(4.5 0 0 4.5 204.52 7.51)"/></g><path fill="none" stroke="none" stroke-linecap="round" stroke-linejoin="round" stroke-width="0" d="M41.95 110v52.01M324.48 110H41.95" color="#000"/><text fill="#000" stroke="none" stroke-linecap="round" stroke-linejoin="round" stroke-width="0" color="#000" font-family="Arial" font-size="8" text-anchor="middle" transform="translate(183.21 91.6)"><tspan>InsertDeleteCycles - Uniform</tspan></text></svg>