<svg xmlns="http://www.w3.org/2000/svg" xmlns:xlink="http://www.w3.org/1999/xlink" viewBox="0 0 400 250"><path fill="none" d="M0 0h400v250H0z"/><defs><path id="g" stroke="currentColor" stroke-width=".267" d="M-1 0h2M0-1v2"/><path id="h" stroke="currentColor" stroke-width=".267" d="m-1-1 2 2m0-2-2 2"/><path id="d" stroke="currentColor" stroke-width=".267" d="M-1-1h2v2h-2z"/><path id="b" stroke="currentColor" stroke-width=".267" d="m0-1.33-1.33 2h2.66z"/><path id="f" stroke="currentColor" stroke-width=".267" d="M0 1.33 1.265.411.782-1.067l-1.564-.009-.483 1.487z"/><use xlink:href="#a" id="i" fill="currentColor" stroke="none"/><use xlink:href="#b" id="c" stroke="currentColor" transform="rotate(180)"/><use xlink:href="#d" id="e" stroke="currentColor" transform="rotate(45)"/><circle id="a" cx="0" cy="0" r="1" stroke="currentColor" stroke-width=".267"/></defs><path fill="none" stroke="#000" stroke-linecap="round" stroke-linejoin="round" stroke-width=".1" d="M35.48 205V45.01" class="gridline" color="#000"/><g fill="none" stroke="none" stroke-linecap="round" stroke-linejoin="round" stroke-width="0" color="#000"><path d="M35.48 205v-7.5m0-152.49v7.5"/><text fill="#000" font-family="KaTeX_Main" font-size="10" text-anchor="middle" transform="translate(35.48 215.75)"><tspan> 1</tspan></text></g><path fill="none" stroke="#000" stroke-linecap="round" stroke-linejoin="round" stroke-width=".1" d="M72.87 205V45.01" class="gridline" color="#000"/><g fill="none" stroke="none" stroke-linecap="round" stroke-linejoin="round" stroke-width="0" color="#000"><path d="M72.87 205v-7.5m0-152.49v7.5"/><text fill="#000" font-family="KaTeX_Main" font-size="10" text-anchor="middle" transform="translate(72.87 215.75)"><tspan> 2</tspan></text></g><path fill="none" stroke="#000" stroke-linecap="round" stroke-linejoin="round" stroke-width=".1" d="M110.26 205V45.01" class="gridline" color="#000"/><g fill="none" stroke="none" stroke-linecap="round" stroke-linejoin="round" stroke-width="0" color="#000"><path d="M110.26 205v-7.5m0-152.49v7.5"/><text fill="#000" font-family="KaTeX_Main" font-size="10" text-anchor="middle" transform="translate(110.26 215.75)"><tspan> 3</tspan></text></g><path fill="none" stroke="#000" stroke-linecap="round" stroke-linejoin="round" stroke-width=".1" d="M147.65 205V45.01" class="gridline" color="#000"/><g fill="none" stroke="none" stroke-linecap="round" stroke-linejoin="round" stroke-width="0" color="#000"><path d="M147.65 205v-7.5m0-152.49v7.5"/><text fill="#000" font-family="KaTeX_Main" font-size="10" text-anchor="middle" transform="translate(147.65 215.75)"><tspan> 4</tspan></text></g><path fill="none" stroke="#000" stroke-linecap="round" stroke-linejoin="round" stroke-width=".1" d="M185.04 205V45.01" class="gridline" color="#000"/><g fill="none" stroke="none" stroke-linecap="round" stroke-linejoin="round" stroke-width="0" color="#000"><path d="M185.04 205v-7.5m0-152.49v7.5"/><text fill="#000" font-family="KaTeX_Main" font-size="10" text-anchor="middle" transform="translate(185.04 215.75)"><tspan> 5</tspan></text></g><path fill="none" stroke="#000" stroke-linecap="round" stroke-linejoin="round" stroke-width=".1" d="M222.43 205V45.01" class="gridline" color="#000"/><g fill="none" stroke="none" stroke-linecap="round" stroke-linejoin="round" stroke-width="0" color="#000"><path d="M222.43 205v-7.5m0-152.49v7.5"/><text fill="#000" font-family="KaTeX_Main" font-size="10" text-anchor="middle" transform="translate(222.43 215.75)"><tspan> 6</tspan></text></g><path fill="none" stroke="#000" stroke-linecap="round" stroke-linejoin="round" stroke-width=".1" d="M259.82 205V45.01" class="gridline" color="#000"/><g fill="none" stroke="none" stroke-linecap="round" stroke-linejoin="round" stroke-width="0" color="#000"><path d="M259.82 205v-7.5m0-152.49v7.5"/><text fill="#000" font-family="KaTeX_Main" font-size="10" text-anchor="middle" transform="translate(259.82 215.75)"><tspan> 7</tspan></text></g><path fill="none" stroke="#000" stroke-linecap="round" stroke-linejoin="round" stroke-width=".1" d="M297.21 205V45.01" class="gridline" color="#000"/><g fill="none" stroke="none" stroke-linecap="round" stroke-linejoin="round" stroke-width="0" color="#000"><path d="M297.21 205v-7.5m0-152.49v7.5"/><text fill="#000" font-family="KaTeX_Main" font-size="10" text-anchor="middle" transform="translate(297.21 215.75)"><tspan> 8</tspan></text></g><path fill="none" stroke="#000" stroke-linecap="round" stroke-linejoin="round" stroke-width=".1" d="M334.6 205V45.01" class="gridline" color="#000"/><g fill="none" stroke="none" stroke-linecap="round" stroke-linejoin="round" stroke-width="0" color="#000"><path d="M334.6 205v-7.5m0-152.49v7.5"/><text fill="#000" font-family="KaTeX_Main" font-size="10" text-anchor="middle" transform="translate(334.6 215.75)"><tspan> 9</tspan></text></g><path fill="none" stroke="#000" stroke-linecap="round" stroke-linejoin="round" stroke-width=".1" d="M371.99 205V45.01" class="gridline" color="#000"/><g fill="none" stroke="none" stroke-linecap="round" stroke-linejoin="round" stroke-width="0" color="#000"><path d="M371.99 205v-7.5m0-152.49v7.5"/><text fill="#000" font-family="KaTeX_Main" font-size="10" text-anchor="middle" transform="translate(371.99 215.75)"><tspan> 10</tspan></text></g><g fill="none" stroke="none" stroke-linecap="round" stroke-linejoin="round" stroke-width="0" color="#000"><path d="M371.99 205h-7.5"/><text fill="#000" font-family="KaTeX_Main" font-size="10" transform="translate(378.99 208.25)"><tspan>0.88</tspan></text></g><g fill="none" stroke="none" stroke-linecap="round" stroke-linejoin="round" stroke-width="0" color="#000"><path d="M371.99 185h-7.5"/><text fill="#000" font-family="KaTeX_Main" font-size="10" transform="translate(378.99 188.25)"><tspan>0.88</tspan></text></g><g fill="none" stroke="none" stroke-linecap="round" stroke-linejoin="round" stroke-width="0" color="#000"><path d="M371.99 165h-7.5"/><text fill="#000" font-family="KaTeX_Main" font-size="10" transform="translate(378.99 168.25)"><tspan>0.89</tspan></text></g><g fill="none" stroke="none" stroke-linecap="round" stroke-linejoin="round" stroke-width="0" color="#000"><path d="M371.99 145h-7.5"/><text fill="#000" font-family="KaTeX_Main" font-size="10" transform="translate(378.99 148.25)"><tspan>0.89</tspan></text></g><g fill="none" stroke="none" stroke-linecap="round" stroke-linejoin="round" stroke-width="0" color="#000"><path d="M371.99 125h-7.5"/><text fill="#000" font-family="KaTeX_Main" font-size="10" transform="translate(378.99 128.25)"><tspan>0.90</tspan></text></g><g fill="none" stroke="none" stroke-linecap="round" stroke-linejoin="round" stroke-width="0" color="#000"><path d="M371.99 105.01h-7.5"/><text fill="#000" font-family="KaTeX_Main" font-size="10" transform="translate(378.99 108.26)"><tspan>0.90</tspan></text></g><g fill="none" stroke="none" stroke-linecap="round" stroke-linejoin="round" stroke-width="0" color="#000"><path d="M371.99 85.01h-7.5"/><text fill="#000" font-family="KaTeX_Main" font-size="10" transform="translate(378.99 88.26)"><tspan>0.91</tspan></text></g><g fill="none" stroke="none" stroke-linecap="round" stroke-linejoin="round" stroke-width="0" color="#000"><path d="M371.99 65.01h-7.5"/><text fill="#000" font-family="KaTeX_Main" font-size="10" transform="translate(378.99 68.26)"><tspan>0.91</tspan></text></g><g fill="none" stroke="none" stroke-linecap="round" stroke-linejoin="round" stroke-width="0" color="#000"><path d="M371.99 45.01h-7.5"/><text fill="#000" font-family="KaTeX_Main" font-size="10" transform="translate(378.99 48.26)"><tspan>0.92</tspan></text></g><path fill="none" stroke="none" stroke-linecap="round" stroke-linejoin="round" stroke-width="0" d="M28 45.01V205M371.99 45.01H28" color="#000"/><text fill="#000" stroke="none" stroke-linecap="round" stroke-linejoin="round" stroke-width="0" color="#000" font-family="KaTeX_Main" font-size="10" text-anchor="middle" transform="rotate(-90 68.255 56.755)"><tspan font-weight="bold">AveragePathLength </tspan><tspan> / log</tspan><tspan dy="3" font-size="8">2</tspan><tspan dy="-3">(Size)</tspan></text><text fill="#000" stroke="none" stroke-linecap="round" stroke-linejoin="round" stroke-width="0" color="#000" font-family="KaTeX_Main" font-size="10" text-anchor="middle" transform="translate(199.99 238.25)"><tspan>Operations × 10</tspan><tspan dy="-5" font-size="8">5</tspan></text><text fill="#000" stroke="none" stroke-linecap="round" stroke-linejoin="round" color="#000" font-family="KaTeX_Main" font-size="8" transform="translate(99.2 10.11)"><tspan>AVLBottomUp</tspan></text><g fill="none" stroke="currentColor" stroke-linecap="round" stroke-linejoin="round" color="#000"><path stroke="#000" d="M63.7 7.51h29.9M28 195.68l.37-2.11.38-1.91.37 5.72.38-2.01.37 1.5.37-1.86.38-.3.37-1.59.38-1.18.37-1.45.37-1.72.38-.49.37-2.03.37-.68.38-1.25.37 4.07.38-.74.37-1.38.37-.77.38-.77.37-1.53.38 6.5.37-.81.37-1.06.38-.96.37-1.35.38.02.37-2.31.37-.4.38 2.31.37-.44.37-.17.38-.48.37-.67.38.17.37-.88.37-.02.38-.63.37-.9.38-.69.37.9.37-.93.38-1.04.37 1.13.38-1.13.37-.58.37-1.2.38-.21.37-1.02.38-1.03.37-.41.37-.9.38.22.37-.88.37-.14.38-.8.37-.8.38 1.65.37-.59.37-1.12.38-.6.37-1.13.38.87.37-1.19.37-.85.38-.82.37-.9.38-1.2.37.24.37-.36.38 2.62.37-1.11.37-.23.38-.75.37-1.08.38.17.37-.78.37-.67.38-.61.37.34.38-.44.37-.78.37-1.1.38-.89.37 2.22.38-.74.37-.63.37-.74.38-.74.37-.62.38 1.02.37-.29.37-.49.38-.63.37-.35.37-.6.38-1.07.37-.74.38-.64.37-.6.37-.57.38-.37.37-.68.38.72.37-.7.37-.17.38-.92.37-.56.38-.39.37 1.92.37-.26.38-.41.37-.08.37-.57.38-.41.37-1.33.38-.35.37-.04.37-.33.38-.54.37-.54.38-.38.37.52.37-.54.38-.32.37.06.38-.43.37-.53.37 2.82.38-.22.37-.26.38-1.06.37 2.76.37-.3.38-.4.37-.22.37-.47.38-.63.37-.1.38.08.37.21.37-.28.38-.71.37-.01.38.04.37-.54.37-.17.38.24.37-.41.38-.11.37-.25.37 1.68.38-.16.37-.24.37-.13.38.23.37.11.38.63.37-.16.37-.21.38-.21.37-.16.38-.17.37.02.37-.17.38-.17.37-.18.38-.22.37-.24.37-.2.38-.24.37-.36.38-.48.37-.13.37.29.38-.36.37-.33.37-.29.38-.36.37-.45.38-.47.37-.17.37-.42.38-.49.37-.41.38.25.37-.25.37-.27.38-.42.37.06.38-.32.37-.29.37-.37.38.3.37-.32.37-.24.38-.37.37-.01.38-.27.37-.23.37-.35.38-.35.37-.45.38-.35.37-.44.37-.15.38-.48.37-.38.38-.75.37-.46.37-1.47.38-.42.37-.36.38-.86.37-.39.37-.32.38-.27.37-.09.37-.35.38.16.37-.21.38.12.37-.14.37-.2.38-.2.37-.37.38-.27.37-.24.37-.34.38-.24.37-.2.38-.38.37-.38.37 2.68.38-.3.37.06.37-.32.38-.31.37-.43.38 1.79.37-.28.37-.18.38-.37.37.12.38 2.46.37-.37.37-.37.38.19.37-.33.38-.56.37-.47.37-.52.38-.21.37-.4.38.54.37 2.32.37-.46.38-.06.37-.32.37-.31.38-1.61.37-.23.38-.53.37-.13.37-.01.38-.24.37.31.38-.1.37-.13.37-.16.38-.28.37-.19.38-.17.37.07.37-.26.38-.24.37-.19.37.28.38.48.37-.25.38-.19.37-.2.37-.01.38 1.4.37-.08.38-.12.37-.19.37-.14.38-.24.37-.19.38.05.37-.21.37.17.38-.03.37-.17.38-.24.37-.24.37-.25.38-.22.37-.05.37-.25.38-.11.37-.34.38-.06.37.41.37-.23.38-.25.37-.21h.38l.37-.22.37.26.38-.22.37-.2.38-.34.37-.32.37-.24.38.06.37-.26.37-.24.38-.23.37.68.38-.23.37-.31.37-.26.38-.16.37-.33.38-.11.37-.23.37-.22.38.01.37-.25.38-.33.37-.28.37-.21.38-.33.37.13.38-.11.37-.26.37-.24.38-.3.37-.21.37-.05.38-.31.37.53.38-.23.37.17.37-.1.38-.21.37-.21.38-.2.37-.17.37-.19.38-.2.37-.21.38.51.37-.18.37-.17.38-.19.37-.11.37-.21.38-.22.37-.18.38-.2.37-.24.37.37.38-.26.37-.25.38-.16.37-.28.37-.22.38-.24.37-.28.38-.41.37-.23.37-.26.38-.28.37.06.38-.22.37-.64.37-.22.38-.19.37-.02.37-.24.38-.2.37-.28.38 1 .37-.02.37-.11.38-.16.37-.13.38-.11.37-.15.37-.18.38 1.36.37-.03.38-.12.37-.05.37-.12.38-.13.37-.17.37-.17.38-.17.37-.19.38-.14.37-.14.37-.16.38-.24.37-.22.38-.22.37.02.37-.16.38-.24.37-.08.38-.22.37.24.37-.22.38-.22.37-.24.38.32.37.1.37-.11.38-.16.37-.19.37.67.38-.1.37-.12.38-.18.37.05.37-.2.38-.14.37-.15.38-.21.37-.18.37.38.38-.18.37-.17.38-.07.37-.17.37-.11.38-.14.37-.27.37-.3.38.03.37-.2.38-.22.37-.17.37-.16.38-.19.37-.17.38-.7.37 2.07.37.59.38-.02.37-.09.38-.04.37-.11.37-.13.38-.23.37-.05.38.15.37-.27.37-.17.38-.21.37-.12.37-.13.38-.12.37-.21.38-.18.37-.1.37-.07.38-.2.37-.09.38-.22.37-.08.37-.2.38-.22.37.01.38-.21.37-.17.37-.15.38-.19.37-.24.37-.21.38.45.37-.15.38.01.37 4.93.37-.08.38-.07.37-.2.38-.14.37 3.83.37-.18.38-.14.37.48.38-.15h.37l.37-.08.38-.1.37-.15.37-.14.38-.19.37-.09.38.07.37.19.37-.18.38-.1.37-.17.38-.17.37-.22.37-.21.38.18.37-.17.38-.21.37-.07.37-.18.38.21.37-.2.38-.22.37-.09.37-.18.38-.19.37-.11.37-.22.38-.16.37-.21.38-.17.37-.2.37-.2.38-.08.37-.03.38-.15.37-.14.37-.22.38-.17.37-.19.38.34.37-.17.37-.19.38 2.24.37-.2.37-.19.38-.02.37-.17.38.2.37-.18.37-.29.38-.13.37-.16.38-.15.37-.16.37-.14.38.53.37-.16.38 1.32.37-.11.37-.06.38-.09.37-.14.38-.11.37-.14.37-.15.38-.08.37-.12.37-.14.38-.02.37-.1.38-.17.37-.01.37-.12.38 1.29.37-.24.38-.22.37-.2.37-.19.38-.2.37-.38.38-.2.37-.08.37.2.38-.18.37-.18.37-.16.38-.17.37-.16.38-.25.37-.2.37 1.45.38-.05.37-.22.38-.1.37-.16.37-.09.38-.2.37-.18.38 1.5.37-.15.37-.15.38-.21.37-.16.38-.11.37-.19.37-.14.38-.22.37.09.37-.29.38-.17.37-.15.38-.04.37-.14.37-.22.38-.16.37-.2.38.72.37-.1.37-.17.38-.17.37-.13.38-.13.37-.16.37-.22.38-.18.37-.12.37-.18.38-.18.37-.14.38 1.01.37-.17.37-.15.38.09.37-.13.38-.16.37-.17.37-.18.38-.08.37-.18.38-.07.37.13.37-.14.38-.15.37-.08.38-.18.37-.17.37-.11.38-.14.37-.17.37.02.38.11.37-.17.38 1.92.37-.12.37-.13.38-.11.37.04.38-.01.37-.11.37.46.38-.12.37-.15.38-.11.37-.14.37-.16.38-.11.37-.15.37-.03.38-.13.37-.17.38-.12.37-.15.37-.12.38-.1.37-.16.38-.11.37-.13.37.08.38-.18.37-.14.38-.11.37-.15.37-.17.38-.15.37-.14.38-.12.37.15.37.04.38.58.37-.16.37-.06.38-.14.37-.14.38-.11.37-.16.37.08.38-.02.37-.1.38-.13.37-.08.37-.11.38-.18.37-.17.38-.09.37-.18.37-.25.38-.09.37-.14.37-.16.38-.18.37-.14.38-.14.37.2.37-.13.38-.16.37-.16.38-.07.37-.13.37-.13.38-.12.37-.16.38.14.37-.11.37-.15.38-.16.37-.12.38-.18.37-.19.37-.14.38-.17.37.16.37-.14.38-.12.37-.16.38-.19.37-.2.37-.18.38-.18.37-.15.38.11.37-.17.37-.17.38-.19.37-.16.38-.12.37-.14.37-.2.38-.15.37-.15.37-.2.38-.21.37-.18.38-.24.37-.19.37-.18.38-.2.37-.16.38.06.37-.2.37-.15.38-.22.37-.23.38-.17.37-.17.37-.12.38.14.37-.13.38-.2.37-.19.37-.17.38-.15.37-.15.37-.21.38-.15.37-.19.38-.2.37-.14.37-.2.38.88.37-.17.38-.14.37-.11.37-.1.38-.14.37-.17.38-.15.37-.2.37-.07.38-.16.37-.46.37-.08.38-.1.37-.11.38-.19.37-.14.37-.16.38-.23.37-.15.38-.21.37-.19.37-.13.38-.14.37-.13.38-.16.37-.19.37-.15.38-.11.37-.15.38-.12.37-.2.37-.14.38-.14.37-.18.37-.24.38-.16.37-.2.38-.2.37.32.37-.18.38-.15.37-.19.38-.14.37-.14.37-.2.38 1.44.37-.1.38-.11.37-.15.37-.47.38-.17.37-.11.37-.18.38.05.37-.1.38-.12.37-.1.37-.15.38-.14.37-.17.38-.06.37-.1.37-.14.38-.14.37 2.39.38-.14.37-.15.37-.12.38-.11.37-.16.38-.14.37.32.37-.11.38-.14.37-.12.37-.17.38-.09.37-.11.38-.14.37-.12.37-.12.38-.08.37-.17.38-.17.37-.18.37-.12.38-.19.37.03.38-.15.37.99.37-.1.38-.11.37-.11.37-.04.38-.09.37-.09.38-.15.37-.09.37-.08.38-.07.37-.07.38-.13.37-.11.37-.16.38-.15.37-.12.38-.13.37-.12.37-.13.38-.15.37-.12.38-.08.37-.15.37-.16.38-.1.37-.14.37-.13.38-.13.37-.19.38-.11.37-.17.37-.17.38-.13.37.08.38 2.43.37-.1.37-.09.38-.14.37-.1.38-.05.37-.12.37-.07.38-.02.37-.12.37-.1.38-.07.37-.09.38-.14.37-.15.37-.15.38-.1.37.35.38-.13.37-.03"/><use xlink:href="#g" transform="matrix(3.75 0 0 3.75 342.45 88.65)"/><use xlink:href="#g" transform="matrix(3.75 0 0 3.75 78.65 7.51)"/></g><text fill="#000" stroke="none" stroke-linecap="round" stroke-linejoin="round" color="#000" font-family="KaTeX_Main" font-size="8" transform="translate(99.2 25.11)"><tspan>AVLTopDown</tspan></text><g fill="none" stroke="currentColor" stroke-linecap="round" stroke-linejoin="round" color="#000"><path stroke="#29C3F6" stroke-dasharray="1.0,2.0" d="M63.7 22.51h29.9M28 199.38l.37.02.38-1.02.37 1.24.38-1.78.37-1.2.37 1.96.38-2.26.37-2.04.38-1.23.37 1.03.37-1.7.38-1.44.37-.92.37.37.38-2.48.37.89.38.1.37-.97.37-1.16.38-1.48.37-.84.38-1.55.37-2.49.37-1.82.38-.88.37-1.67.38-1.4.37-1.57.37-1.05.38-1.07.37-1.3.37-.61.38-2.05.37-1.63.38-1.46.37-.39.37-1.37.38-1.11.37-1.25.38 2.42.37-.31.37 1.1.38-1.96.37-1.05.38-.03.37-.84.37-1.04.38-.51.37-1.45.38-.34.37-.84.37 14.79.38-.58.37-.65.37-.54.38 2.92.37-.64.38-.64.37-.72.37-.98.38-.09.37-.74.38-.39.37-1 .37-.81.38-.19.37-.75.38-.47.37-.66.37-.27.38-.82.37.29.37 6.06.38.14.37-1.29.38-.57.37-.21.37-.37.38 6.32.37-.61.38-.2.37-.41.37-.81.38-1.18.37-.6.38-1.13.37-.37.37-1.34.38-.74.37-.76.38-.55.37-.95.37-.47.38-.12.37-.73.37.24.38-.76.37-.91.38-.85.37-.69.37-1.83.38-.69.37-.95.38 2.6.37-.69.37-.36.38-.65.37-.48.38.32.37-.55.37.11.38-.57.37 1.5.37 4.07.38-.52.37-.65.38 1.31.37-.35.37-.46.38-.18.37-.34.38-.52.37-2.83.37-.62.38-.52.37-.55.38-.58.37-.44.37.65.38-.48.37.9.38-.34.37 1.62.37-.31.38-.27.37-.38.37.42.38-.43.37-.44.38-.51.37-.17.37-.33.38-.47.37-.46.38-.32.37-.53.37.85.38-.37.37-.32.38-.45.37-.52.37-.55.38-.56.37-1.19.37-.53.38-.66.37-.34.38-.5.37-.58.37-.55.38-.13.37-.56.38-.26.37-.52.37-.48.38.35.37-.47.38-.32.37.89.37-.32.38-.35.37-.39.38-.46.37-.49.37.06h.38l.37-.28.37-.22.38-.44.37-.24.38-.49.37-.24.37.16.38-.33.37-.56.38-.3.37-.49.37-.41.38-.61.37-.32.38-.33.37.67.37-.29.38-.17.37-.06.37.06.38-.33.37-.39.38-.14.37-.27.37-.31.38-.2.37-.24.38-.3.37-.31.37 1.5.38-.25.37-.27.38.27.37-.23.37-.35.38-.14.37.13.38-.29.37-.24.37.13.38-.1.37-.38.37-.29.38-.29.37-.14.38-.02.37-.26.37-.29.38.08.37-.35.38-.46.37.12.37-.48.38-.39.37-.07.38-.51.37-.41.37-.34.38-.25.37.09.37 4.49.38-.23.37-.32.38.01.37-.52.37-.25.38-.28.37-.26.38.19.37-.37.37-.41.38-.37.37-.41.38-.2.37.68.37-.49.38-.37.37 3.86.38-.4.37-.39.37-.4.38-.14.37-.4.37-.02.38-.34.37-.44.38-.37.37-.43.37-.39.38-.24.37-.29.38-.34.37 1.32.37-.37.38.42.37-.37.38-.3.37-.29.37-.17.38.03.37-.43.37.43.38-.29.37-.38.38-.24.37.14.37-.39.38-.35.37-.35.38-.25.37-.36.37-.33.38-.45.37-.33.38-.33.37-.12.37-.58.38-.36.37-.49.38-.22.37-.13.37-.37.38-.34.37-.51.37-.46.38-.3.37-.12.38-.36.37-.45.37-.45.38.03.37-.47.38-.49.37-.55.37-.16.38-.51.37-.4.38-.5.37 1.38.37-.5.38-.5.37-.37.37-.5.38-.16.37-.52.38-.41.37-.45.37.22.38-.51.37 1.07.38-.52.37-.05.37-.44.38-.4.37-.39.38-.4.37-.24.37-.38.38-.52.37-.39.38-.04.37-.37.37-.45.38-.28.37-.29.37-.02.38-.39.37 1 .38-.29.37-.39.37-.32.38-.52.37-.43.38-.3.37 1.46.37-.3.38-.11.37-.23.38-.25.37-.22.37-.22.38.12.37-.1.37-.24.38-.24.37-.26.38-.28.37-.34.37-.36.38-.04.37-.34.38-.35.37-.3.37.92.38-.14.37-.19.38-.23.37-.29.37.32.38-.05.37-.21.38-.17.37-.27.37.8.38-.2.37-.38.37-.24.38-.3.37-.32.38-.29.37-.21.37-.25.38-.32.37-.3.38-.79.37.2.37-.11.38-.18.37.04.38-.25.37-.25.37-.27.38-.27.37-.3.37-.39.38.26.37-.26.38-.29.37-.15.37-.2.38-.25.37-.26.38-.25.37-.31.37 1.2.38.08.37-.14.38-.15.37-.17.37-.15.38-.23.37-.31.38-.18.37-.14.37-.24.38-.2.37-.13.37-.05.38-.36.37 2.01.38-.09.37-.19.37-.13.38-.18.37-.1.38-.17.37-.25.37-.3.38-.17.37.01.38-.15.37-.22.37-.18.38-.12.37-.21.37-.27.38-.23.37.1.38.01.37-.23.37-.12.38-.22.37-.12.38-.27.37-.1.37.09.38-.43.37-.18.38-.25.37-.16.37-.23.38-.16.37-.2.38-.31.37-.24.37 1.4.38-.18.37-.18.37-.12.38-.14.37-.23.38-.25.37-.18.37-.02.38-.28.37-.2.38 1.72.37.35.37-.15.38-.16.37-.16.38-.23.37 1.15.37-.19.38-.14.37-.13.37-.14.38-.11.37-.14.38-.18.37-.2.37-.19.38-.19.37-.2.38-.18.37-.15.37-.11.38-.16.37.12.38-.29.37-.22.37-.22.38.36.37-.17.37-.19.38 6.11.37-.07.38-.14.37-.18.37-.2.38.13.37-.1.38.25.37-.13.37 2.25.38-.04.37-.11.38-.03.37-.06.37-.06.38-.14.37-.03.38-.01.37-.12.37-.2.38-.12.37-.09.37.27.38-.12.37-.17.38-.07.37-.06.37-.12.38-.21.37-.1.38-.09.37-.04.37-.16.38-.13.37-.1.38-.16.37-.17.37-.38.38.02.37 1.18.37-.07.38-.15.37-.09.38-.12.37-.13.37-.17.38-.19.37-.14.38.41.37-.16.37-.28.38-.1.37-.11.38-.12.37-.14.37-.14.38-.19.37 8.67.38-.14.37-.16.37-.14.38-.1.37-.14.37-.2.38-.13.37.2.38-.15.37-.12.37-.14.38-.11.37-.15.38-.21.37-.23.37-.42.38.44.37-.19.38.95.37-.12.37-.19.38-.17.37-.18.37-.2.38-.15.37.24.38-.17.37-.17.37-.11.38-.2.37 1.23.38-.15.37-.16.37-.12.38.39.37-.14.38-.13.37-.07.37-.08.38-.19.37-.11.38-.15.37.13.37-.24.38-.23.37-.12.37.71.38-.07.37-.1.38-.17.37 1.03.37-.04.38-.15.37-.12.38-.14.37.02.37-.1.38-.15.37-.15.38.17.37-.17.37-.13.38-.13.37-.09.37-.14.38.37.37-.17.38-.09.37-.13.37-.13.38-.12.37-.13.38-.16.37-.14.37-.15.38-.09.37-.32.38.16.37-.14.37-.15.38-.18.37.39.38-.1.37-.08.37-.13.38-.15.37-.12.37-.12.38-.13.37-.11.38-.11.37-.13.37-.18.38-.12.37-.12.38.5.37-.12.37-.17.38-.14.37-.14.38-.06.37-.12.37-.13.38.49.37-.19.37-.11.38-.16.37-.12.38-.15.37-.1.37-.17.38.17.37-.16.38-.18.37-.14.37-.12.38-.19.37-.11.38-.16.37-.17.37.27.38.05.37-.11.38-.08.37-.12.37-.05.38-.11.37-.08.37.15.38-.12.37-.08.38-.08.37-.15.37.02.38-.04.37-.07.38.13.37-.1.37-.13.38-.11.37-.1.38-.11.37-.16.37-.11.38-.1.37.34.37-.11.38-.1.37-.13.38-.12.37-.16.37-.08.38-.13.37.16.38-.13.37-.14.37-.29.38-.12.37-.13.38-.16.37-.14.37-.1.38-.11.37-.16.38-.15.37-.13.37-.19.38-.18.37-.11.37-.23.38-.15.37.07.38-.16.37-.19.37-.17.38-.15.37 1.2.38.12.37-.17.37-.12.38-.17.37-.16.38-.1.37-.17.37-.14.38-.13.37-.23.37-.12.38.11.37-.19.38-.14.37-.15.37-.11.38-.09.37-.15.38.35.37-.1.37-.14.38-.11.37-.15.38-.15.37-.06.37-.09.38-.14.37-.07.38-.1.37-.16.37-.13.38-.16.37-.14.37-.13.38-.15.37 1.05.38-.11.37-.09.37-.13.38-.1.37-.04.38-.1.37-.09.37-.11.38-.11.37-.11.38-.12.37-.14.37-.17.38-.13.37-.17.37.29.38-.14.37-.12.38-.12.37-.13.37-.11.38-.16.37-.12.38-.01.37-.14.37-.11.38-.12.37-1.84.38-.83.37-.14.37-.15.38-.16.37-.12.38-.1.37-.11.37.11.38-.09.37 2.31.37-.11.38-.09.37-.09.38.11.37.82.37-1.12.38-.01.37-.06h.38l.37-.03.37-.05.38-.02.37-.07.38-.07.37.41.37-.04.38-.03.37-.07.37-.06.38-.05.37-.05.38-.04.37-.04.37.01.38-.01.37-.02.38-.06.37-.02.37-.04.38-.08.37-.17.38-.05.37-.05.37-.08.38-.1.37-.03.38-.08.37-.1.37-.04.38-.07.37-.06.37-.05.38-.03.37-.08.38-.06.37-.07.37-.12.38-.14.37-.12.38.36.37-.08h.37l.38-.07.37-.14.38-.14.37-.05.37-.08.38-.08.37-.02.37-.06.38-.04.37-.1.38.02.37-.1.37-.14.38-.09.37.13.38-.1.37-.08.37-.08.38-.11.37-.1.38-.06.37-.07.37-.09.38-.01.37-.14.38-.07.37-.06.37-.11.38-.15.37-.09.37-.13.38.38.37-.09.38-.07.37-.09.37-.14.38-.1.37-.06.38-.09.37-.1.37-.09.38-.12.37-.11.38-.11.37-.41.37-.13.38-.14.37-.09.37-.12.38-.12.37.19.38-.14.37-.09.37.03.38 1.1.37-.02.38-.04.37-.08"/><use xlink:href="#h" color="#29C3F6" transform="matrix(3.75 0 0 3.75 56.04 166.92)"/><use xlink:href="#h" color="#29C3F6" transform="matrix(3.75 0 0 3.75 78.65 22.51)"/></g><text fill="#000" stroke="none" stroke-linecap="round" stroke-linejoin="round" color="#000" font-family="KaTeX_Main" font-size="8" transform="translate(241.1 10.11)"><tspan>AVLRelaxedBottomUp</tspan></text><g fill="none" stroke="currentColor" stroke-linecap="round" stroke-linejoin="round" color="#000"><path stroke="#FFAB00" d="M205.6 7.51h29.9M28 164.49l.37-.27.38-2.01.37 8.39.38-1.92.37-1.15.37.49.38.66.37-1.34.38-1.85.37-1.91.37-2.59.38 6.33.37.03.37-.94.38.74.37 1.94.38-.36.37-.7.37-.15.38-.77.37-.59.38-.89.37-.88.37-.3.38-.88.37-1.02.38-.64.37-.76.37-.44.38-.84.37-.22.37-1.04.38-.9.37-1.21.38-.74.37.5.37-.74.38-1.2.37-1.23.38-1.47.37-.72.37-1.05.38-1.41.37 2.84.38-.86.37-.24.37-.48.38-.7.37-1.09.38-.97.37-.5.37-.48.38-.69.37 1.23.37-.12.38-.8.37-.64.38.2.37-.38.37 3.43.38-.84.37-.06.38-.77.37-.3.37-.59.38 2.2.37-.41.38-.27.37-.46.37.3.38-.33.37-.6.37-.47.38-.8.37-.03.38-.62.37-.3.37-.72.38-.03.37-.58.38-.57.37-.79.37.01.38-.97.37-.79.38-.92.37-.72.37-1.19.38-1.19.37-.6.38 2.96.37-.87.37-1.1.38-.79.37-1.25.37-.48.38-1.18.37-.89h.38l.37-.82.37-.98.38-.3.37-1.34.38-.85.37-1.12.37-1.15.38 1.8.37-.74.38-.66.37-.76.37 1.75.38-.58.37-.8.37-.36.38-.83.37 2.2.38-.73.37-.55.37-.63.38-.41.37-.77.38 2.46.37-.48.37-.64.38 1.25.37-.64.38-.77.37 4.36.37-.37.38.02.37-.39.38-.31.37-.42.37-.38.38-.42.37 1.25.37-.49.38-.3.37-.33.38-.4.37.22.37-.51.38-.39.37-.48.38-.04.37-.35.37-.38.38-.17.37-.69.38-.46.37-.49.37-.57.38-.77.37-.72.37-.7.38-.81.37-.1.38-.77.37 1.09.37-.71.38.32.37-.5.38-.47.37-.74.37-.11.38-.48.37.41.38-.51.37 1.66.37-.41.38-.43.37-.53.38-.13.37-.46.37-.3.38-.51.37.33.37-.02.38-.34.37-.4.38-.54.37.43.37-.51.38-.42.37-.64.38-.43.37-.07.37-.42.38-.42.37-.42.38.22.37-.45.37 6.23.38-.29.37.09.37-.17.38 1.78.37-.27.38-.34.37.33.37-.29.38-.25.37-.34.38-.43.37-.4.37 1.24.38-.18.37-.39.38-.23.37.2.37-.32.38-.32.37-.37.38-.39.37.1.37-.4.38-.35.37-.39.37-.17.38-.26.37-.11.38-.38.37-.4.37-.2.38-.59.37-.19.38-.43.37-.03.37-.22.38-.14.37-.78.38.08.37-.3.37 3.81.38-.11.37-.25.37.18.38-.23.37-.32.38-.09.37 1.73.37-.18.38-.18.37-.2.38-.25.37.19.37-.17.38-.17.37-.32.38-.45.37-.47.37-.46.38-.42.37-.27.38-.11.37-.3.37-.27.38-.34.37-.09.37.54.38-.41.37-.35.38-.3.37-.11.37-.38.38.21.37-.24.38-.49.37-.39.37-.33.38-.36.37-.2.38-.35.37-.38.37-.38.38-.41.37-.5.37-.45.38-.48.37-.49.38-.3.37-.47.37-.44.38-.05.37-.48.38-.44.37-.37.37-.17.38-.25.37-.43h.38l.37-.34.37-.37.38-.26.37-.34.38-.25.37-.43.37-.15.38-.42.37-.4.37-.33.38.12.37-.37.38-.48.37-.55.37-.03.38.02.37.94.38-.34.37-.31.37-.32.38-.44.37-.44.38-.42.37-.46.37-.16.38.06.37 2.54.37-.33.38-.39.37-.44.38-.15.37-.34.37.05.38-.35.37-.26.38-.31.37 1.04.37-.29.38-.25.37-.32.38-.03.37-.25.37-.22.38-.24.37.15.38-.25.37-.28.37.29.38-.2.37-.27.37-.16.38-.33.37-.32.38-.2.37 1.12.37-.25.38-.28.37-.33.38-.15.37-.17.37-.29.38-.19.37-.28.38-.16.37-.24.37-.24.38-.29.37-.26.37-.16.38-.2.37 6.9.38-.15.37-.28.37.5.38-.18.37-.28.38-.18.37-.22.37 7.59.38-.19.37-.2.38-.26.37.15.37-.16.38-.18.37-.19.38-.17.37-.2.37-.25.38-.03.37-.3.37.19.38-.18.37-.29.38-.18.37-.53.37-.09.38-.16.37-.18.38.4.37-.09.37-.08.38-.09.37-.12.38-.16.37-.08.37-.18.38-.22.37-.15.37.35.38-.22.37-.1.38-.16.37-.13.37-.15.38-.19.37-.26.38-.11.37 1.42.37-.17.38-.17.37-.19.38-.16.37.07.37-.1.38-.25.37-.19.38.36.37-.17.37.21.38-.1.37-.11.37-.09.38-.14.37-.18.38.25.37-.09.37-.14.38-.06.37-.14.38-.14.37.05.37-.17.38-.07.37.3.38-.1.37-.07.37-.09.38-.15.37-.06.37-.18.38-.21.37-.09.38.08.37-.19.37-.11.38-.13.37-.15.38-.13.37-.18.37-.26.38.29.37-.27.38-.15.37 1.44.37-.12.38-.2.37-.16.38.63.37-.09.37-.1.38-.18.37-.07.37-.18.38-.12.37-.16.38-.15.37.31.37-.17.38-.14.37-.18.38-.16.37-.09.37-.15.38-.16.37-.23.38 1.72.37-.16.37-.1.38-.13.37-.14.37-.15.38-.12.37-.24.38-.12.37.32.37-.13.38-.28.37-.07.38-.21.37-.15.37-.22.38-.15.37-.23.38-.24.37.24.37-.19.38-.13.37-.15.37-.18.38-.17.37-.17.38-.17.37-.2.37.22.38-.12.37-.18.38-.11.37-.19.37-.22.38-.23.37-.19.38-.2.37.93.37-.09.38-.21.37-.17.38-.16.37-.13.37-.11.38-.16.37-.18.37-.23.38-.29.37.36.38-.18.37-.18.37-.24.38-.18.37-.21.38-.21.37-.21.37.04.38.25.37-.17.38-.1.37-.06.37-.13.38-.19.37-.19.37-.22.38-.17.37-.13.38-.2.37-.15.37-.15.38-.18.37-.16.38-.22.37-.22.37-.22.38-.2.37-.2.38-.19.37-.21.37-.26.38-.2.37 1.38.38.31.37-.19.37-.22.38-.01.37-.17.37-.18h.38l.37-.19.38-.19.37.15.37-.19.38-.18.37-.24.38.28.37-.2.37-.15.38-.27.37-.25.38-.25.37-.25.37-.25.38-.29.37 1.53.37-.15.38-.21.37-.19.38-.21.37-.76.37-.13.38-.17.37-.18.38-.19.37-.15.37-.17.38-.16.37-.21.38-.18.37-.2.37-.15.38-.26.37-.22.38-.19.37-.2.37-.21.38-.25.37.18.37-.2.38-.23.37-.17.38-.22.37-.2.37-.24.38.2.37-.19.38-.23.37-.2.37-.2.38-.22.37-.21.38-.26.37-.26.37.94.38-.14.37-.18.37.5.38-.11.37-.16.38-.16.37-.17.37.05.38-3.48.37.12.38-.13.37-.11.37-.08.38-.16.37-.12.38-.15.37.13.37-.12.38-.12.37-.14.38-.13.37-.16.37-.12.38.19.37-.14.37 2.49.38-.03.37-.14.38-.03.37-.14.37-.13.38.17.37-.16.38-.12.37-.14.37-.06.38.35.37-.05.38-.1.37-.11.37-.07.38-.15.37-.36.37-.47.38-.14.37-.1.38-.16.37-.11.37-.11.38.12.37-.16.38-.11.37-.15.37-.13.38 1.27.37-.12.38-.2.37-.06.37-.15.38-.11.37-.09.38-.13.37-.18.37-.16.38.63.37-.08.37-.1.38.07.37-.15.38-.15.37.28.37-.15.38-.14.37-.15.38-.13.37-.14.37-.16.38-.16.37-.16.38-.12.37-.14.37-.15.38-.21.37-.12.37-.18.38.06.37-.1.38-.15.37-.17.37-.16.38-.15.37-.54.38-.19.37-.18.37-.18.38.38.37-.12.38-.14.37-.14.37-.16.38-.14.37-.16.38.09.37-.17.37-.16.38 1.63.37-.12.37-.05.38-.07.37-.09.38-.21.37-.11.37-.08.38-.18.37-.16.38-.19.37-.12.37-.14.38-.21.37-.15.38-.07.37.08.37-.18.38.04.37-.14.37-.14.38-.14.37-.14.38-.13.37-.13.37-.14.38-.15.37.97.38-.18.37-.14.37-.2.38-.16.37.08.38-.13.37-.16.37-.2.38-.17.37.32.38-.12.37-.09.37-.14.38-.12.37-.06.37-.18.38-.17.37-.09.38-.15.37-.22.37-.06.38-.14.37-.11.38-.14.37-.19.37-.23.38-.16.37-.19.38.05.37-.17.37-.15.38-.15.37-.16.37-.17.38-.05.37-.11.38-.15.37-.14.37-.12.38-.13.37 1.79.38-.15.37-.16.37-.19.38-.13.37-.16.38.3.37-.11.37-.14.38-.1.37-.17.38-.07.37-.13.37-.12.38-.15.37-.12.37-.14.38-.14.37-.16.38-.08.37-.17.37-.11.38-.19.37-.17.38-.02.37-.16.37-.16.38-.17.37-.16.38-.14.37-.16.37-.17.38-.18.37-.12.37-.14.38-.16.37-.14.38-.15.37-.13.37-.2.38-.15.37.23.38-.18.37-.19.37-.21.38-.16.37-.21.38.61.37-.1.37-.13.38-.06.37-.1.38-.13.37-.11.37-.12.38-.17.37-.13.37-.16.38-.14.37-.17.38.05.37-.15.37-.14.38-.11.37-.15.38-.12.37-.1.37-.16.38-.16.37-.1.38-.11.37-.25.37-.12.38-.13.37-.11.37-.15.38-.11.37.35.38-.11.37-.13.37-.13.38-.08.37-.13.38-.15.37-.06.37.24.38-.11.37-.05.38-.13.37.1.37-.05.38-.13.37-.17.38-.13.37-.13.37-.13.38.03.37-.13.37-.14.38-.17.37-.11.38-.11.37-.13.37-.14.38-.46.37-.15.38 4.59.37-.11.37-.11.38-.08.37-.16.38-.11.37-.13.37.03.38-.1.37-.1.37-.12.38-.12.37.24.38-.1.37-.09.37-.1.38.11.37-.09.38-.05.37-.14"/><use xlink:href="#i" color="#FFAB00" transform="matrix(3.75 0 0 3.75 113.62 111.33)"/><use xlink:href="#i" color="#FFAB00" transform="matrix(3.75 0 0 3.75 220.55 7.51)"/></g><text fill="#000" stroke="none" stroke-linecap="round" stroke-linejoin="round" color="#000" font-family="KaTeX_Main" font-size="8" transform="translate(241.1 25.11)"><tspan>AVLRelaxedTopDown</tspan></text><g fill="none" stroke="currentColor" stroke-linecap="round" stroke-linejoin="round" color="#000"><path stroke="#3B75EA" stroke-dasharray="4.5,2.0,0.5,2.0,0.5,2.0" d="M205.6 22.51h29.9M28 179.9l.37-1.56.38-1.85.37-.42.38-2.46.37-4.5.37-.58.38-3.21.37.99.38-1.87.37-5.22.37-2.6.38.48.37-1.86.37-2.76.38-2.39.37 3.79.38 9.49.37.05.37-.53.38-1.79.37 1.23.38-.99.37-1.04.37-.73.38-1.88.37 4.42.38-2.32.37-.56.37-.91.38-1.32.37-8.48.37-.68.38.04.37-.54.38 1.14.37-.82.37-1.19.38-1.37.37-.53.38 1.1.37 4.45.37-.91.38.43.37.7.38-.72.37-.38.37-.68.38-1 .37-2.38.38-.56.37-1.06.37 1.78.38-2.71.37-.58.37 8.87.38-.14.37-.07.38-.75.37-3.95.37.44.38-.39.37-.08.38 2.92.37-.28.37-.38.38.44.37-.76.38-.83.37-.53.37-1.66.38-.28.37-1.15.37-1.13.38-.78.37-.1.38-.85.37-.69.37.73.38-.94.37-1.42.38-.31.37-.64.37-1.16.38-1.28.37-.93.38-1.53.37-.21.37 5.01.38-1.43.37-.97.38-1.38.37-1.34.37-.82.38-2.12.37-1.31.37-1.16.38 4.27.37-1.52.38-1.06.37-1.05.37-.32.38-.39.37-.79.38-.9.37-.38.37-.87.38-.04.37 3.68.38-.28.37-1.4.37.67.38.11.37-2.39.37-.54.38-.14.37 1.27.38 2.01.37-.54.37-.24.38 1.59.37-.19.38-.48.37-1.25.37-.06.38-.66.37 1.23.38-.56.37-.15.37-.85.38-1.25.37-.39.38-.7.37-2.14.37-.41.38.39.37.64.37-.66.38-.9.37-.94.38-.8.37-8.9.37.46.38-.22.37-.43.38-.37.37.97.37-.39.38-.49.37-.28.38.72.37 15.27.37-.1.38.26.37-.95.37.32.38.03.37.48.38-.35.37-.08.37-.08.38-.52.37.01.38-.19.37-.54.37-.51.38-.49.37-.44.38 1.66.37-.79.37-.46.38-1.11.37-.54.38.1.37-.66.37.29.38-.54.37-.35.37-.53.38-.52.37-.74.38-2.54.37-.1.37.95.38-.54.37.26.38-.46.37 1.07.37-.26.38-.49.37-.43.38-.79.37-.27.37-.5.38-.59.37-3.58.37-.11.38.38.37-.41.38-.66.37-.51.37-.57.38-.42.37-1.12.38-.29.37-.5.37-.19.38-.62.37-.14.38 1.06.37-.67.37-.65.38-.83.37-.84.38-.84.37 6.32.37-.52.38 1.57.37 2.62.37-.49.38-.29.37-.13.38-1.75.37-.26.37-.65.38-.36.37.46.38-.15.37-.37.37.48.38-.67.37-.35.38-.78.37-.32.37-.65.38-.2.37.33.37-.36.38-.19.37-.56.38-.46.37.17.37-.39.38-.03.37-.35.38-.42.37.53.37 13.55.38-.35.37-.21.38-.29.37-.4.37-.57.38.47.37-.26.38-.34.37-.92.37-.19.38-.19.37-.32.37-.46.38-.57.37 1.53.38-1.38.37-.11.37-.34.38-.44.37.45.38-.14.37-.5.37-.36.38-.55.37-.4.38-.58.37-.49.37-.5.38-2.32.37.01.37-.44.38-.27.37-.42.38-.34.37-.45.37-.57.38-.74.37 3.75.38-.43.37-.28.37.42.38-.33.37-.07.38.22.37-.37.37-.53.38-.12.37-.44.38-1.06.37-.12.37-.12.38-.49.37.05.37-.62.38-.28.37-5.08.38.3.37-.08.37-.27.38-.42.37-.16.38-.24.37-.33.37-.3.38-.38.37-.68.38-.44.37 3.64.37-.23.38-.74.37-.05.37-.07.38-.09.37-.26.38-.56.37-.34.37.16.38-.25.37-.32.38-.39.37-.29.37-.36.38-1.15.37-.46.38-.47.37 1.11.37-.31.38-.57.37-.59.38-.71.37 10.46.37-.7.38.68.37-.15.37-.35.38-.09.37-1.31.38.08.37.11.37-.33.38-.09.37.58.38-.39.37-.1.37-.26.38-.32.37-.42.38-.24.37-.29.37-.12.38-8 .37.32.37.03.38.22.37-.13.38.01.37-.2.37-.01.38 1.86.37-.06.38-.56.37.14h.37l.38.14.37-.16.38-.23.37-.4.37.05.38-.18.37-.28.38-.66.37-.16.37-.14.38 1.16.37-.16.37-.81.38-.1.37-.92.38-.1.37-.54.37.81.38-.06.37-.13.38-.1.37 4.39.37-.06.38-.11.37-.41.38-.25.37-.09.37-.12.38-.21.37-.17.37-.12.38-.28.37-.19.38-.39.37-.26.37-.16.38-.13.37-.25.38-.27.37-.15.37.51.38-.35.37-.3.38-.47.37-.21.37-.63.38-.25.37-.34.38-.04.37-.34.37-.32.38-.17.37 2.06.37-.31.38-.21.37-1.04.38.03.37-.25.37-.43.38-.17.37-.23.38-.23.37.35.37-.07.38-.24.37-.4.38-.29.37-.64.37-.23.38-1.79h.37l.37-.01.38-.32.37-.19.38.68.37-.13.37-.22.38-.33.37-.25.38-.22.37-.27.37-.24.38-.28.37-.34.38-.6.37-.62.37-.25.38-.43.37-.09.38 7.48.37-.19.37-1.08.38-.29.37-.29.37-.34.38-2.11.37.35.38-.1.37-.25.37-.22.38-.05.37.04.38.73.37-.32.37-.26.38-.28.37-.33.38-.17.37-.14.37-.22.38-.5.37-.29.37-.31.38-.07.37-.28.38.5.37-.19.37-.34.38-.55.37-.27.38-.26.37-.17.37-.31.38-.27.37-.38.38 1.79.37-.51.37-.31.38-.32.37-.33.37-.54.38-.26.37-.29.38-.27.37-.39.37.66.38-.29.37-.82.38-.21.37 4.31.37-.24.38-.1.37-.06.38-.38.37-.4.37-.3.38.63.37-.31.38-.26.37-.31.37-1.58.38-.18.37-.09.37-.2.38-.25.37-.12.38 1.74.37-.27.37.06.38-.3.37-.26.38-.14.37-.28.37-.23.38-.47.37-.24.38.9.37-.24.37-.21.38-.22.37-.49.37-.14.38-.29.37-.24.38-.18.37.01.37-.24.38 1.45.37-.04.38.3.37.74.37-.2.38-.07.37-.06.38 5.96.37-.12.37-.19.38-.11.37-.22.38-.01.37-.05.37-.17.38-.02.37-.03.37-.03.38-.09.37-.02.38-.14.37-.12.37-.23.38-.09.37-.22.38-.19.37-.14.37-.12.38-.46.37.66.38-.04.37-.28.37-.29.38-.21.37-.2.37-.45.38-.32.37.04.38-.19.37-.22.37-.35.38-.16.37-.72.38.04.37-.27.37.07.38.24.37.6.38-.12.37-.19.37-.26.38.11.37-.3.38-.15.37-.28.37-1.36.38-.09.37-.16h.37l.38-.16.37-.22.38-.17.37-.35.37-.15.38-.26.37-.18.38-.2.37-.38.37-.33.38-.19.37 3.2.38-.23.37-.08.37-.32.38-.2.37-.3.37-.6.38-.01.37-.21.38-.21.37-.26.37-.23.38-.34.37-2.88.38.15.37-.25.37-.24.38-.05.37-.45.38 1.66.37-.19.37-.21.38-.39.37-.31.38.04.37-.19.37.05.38-.34.37-.07.37-.21.38-.14.37-.36.38-.27.37.19.37-.15.38-.21.37-.21.38.65.37-.18.37-.19.38 6.22.37-.3.38-.19.37-.1.37-.31.38-.18.37-.12.37-.84.38-.05.37-.06.38-.12.37-.38.37.11.38-.27.37-.24.38-.01.37-.14.37-.09.38-.11.37-.13.38-.34.37-.28.37-.2.38.94.37-.14.38.12.37-.31.37-.27.38-.16.37-4.42.37.01.38.08.37-.33.38-.16.37-.09.37.85.38-.15.37-.05.38.38.37-.02.37-.18.38-.14h.37l.38-.12.37-.1.37-.2.38.31.37-.12.37-.13.38-.37.37-.07.38-.06.37-.12.37-.23.38.42.37-.22.38-.52.37-.06.37-.06.38-.09.37.03.38-.04.37-.2.37-.28.38-.27.37-.1.38-.16.37-.06.37.57.38-.35.37-.1.37-.12.38-.18.37-.18.38-.13.37-.23.37-.09.38.03.37-.11.38-.15.37-.24.37 17.81.38-.04.37-.03.38-.18.37-.18.37-.11.38-.23.37-.21.37-.16.38-.33.37-.23.38-.08.37.25.37-.16.38-.14.37-.06.38-.69.37-.18.37-.09.38.63.37-.09.38.24.37-.02.37-.25.38-.15.37-.41.38-.26.37-.27.37-.19.38-.15.37-1.08h.37l.38-.11.37-.02.38-.19h.37l.37-.1.38-.21.37-.13.38-.21.37-.17.37.74.38-.21.37.14.38-.09.37-.2.37-.21.38-.47h.37l.37-.18.38-.19.37-.33.38-.14.37-.28.37-.2.38-.22.37-.27.38-7.84.37 7.85.37-.01h.38l.37-.09.38-.04.37-.08.37-.01.38 3.31.37-.14.38.01.37-.04.37.02.38.07.37-.16.37.76h.38l.37.04.38.03.37.07.37.01.38-.07.37-.06.38-.02.37-.04.37-.06.38-.03.37-.01.38-.04.37-.39.37-.03.38.71.37-.01.37-.02.38-.12.37-.19.38.04.37-.01.37.02.38-.11.37-.04.38-.57.37.06h.37l.38.1.37-.02.38.09.37-.02.37-.13h.38l.37-.01.38-.19.37.03.37-.11.38-.1.37-.81.37.04.38-.04.37.01.38 1.29.37-.01.37-.1.38.04.37-.04.38-.04.37.09.37-.02.38-.01.37.12.38.04.37-.22.37-.12.38-.07.37-.21.37-.29.38.24.37.43.38-.13.37-.09h.37l.38-.07.37-.39.38-.08.37-.13.37-.26.38.03.37-.04.38.06.37-.1.37-.13.38-.17.37-.26.38-.09.37-.21.37-.14.38-.3.37-.15.37-.13.38-.12.37.04.38-.12.37-.18.37-.21.38-.1.37-.14.38-.13.37-.14.37-.16.38-.19.37-.24.38-.29.37-.2.37-.32.38-.17.37-.25.37 3.49.38-.11.37-.07.38-.19.37-.2.37-.08.38-.43.37-.03.38-.06.37-.1"/><use xlink:href="#a" color="#3B75EA" transform="matrix(3.75 0 0 3.75 171.2 87.85)"/><use xlink:href="#a" color="#3B75EA" transform="matrix(3.75 0 0 3.75 220.55 22.51)"/></g><path fill="none" stroke="none" stroke-linecap="round" stroke-linejoin="round" stroke-width="0" d="M28 45.01V205M371.99 45.01H28" color="#000"/></svg>