<svg xmlns="http://www.w3.org/2000/svg" xmlns:xlink="http://www.w3.org/1999/xlink" viewBox="0 0 400 250"><path fill="none" d="M0 0h400v250H0z"/><defs><path id="g" stroke="currentColor" stroke-width=".267" d="M-1 0h2M0-1v2"/><path id="h" stroke="currentColor" stroke-width=".267" d="M-1 0h2M0-1v2m-1-2 2 2m-2 0 2-2"/><path id="d" stroke="currentColor" stroke-width=".267" d="M-1-1h2v2h-2z"/><path id="i" fill="currentColor" stroke="currentColor" stroke-width=".267" d="M-1-1h2v2h-2z"/><path id="b" stroke="currentColor" stroke-width=".267" d="m0-1.33-1.33 2h2.66z"/><path id="f" stroke="currentColor" stroke-width=".267" d="M0 1.33 1.265.411.782-1.067l-1.564-.009-.483 1.487z"/><use xlink:href="#b" id="c" stroke="currentColor" transform="rotate(180)"/><use xlink:href="#d" id="e" stroke="currentColor" transform="rotate(45)"/><circle id="a" cx="0" cy="0" r="1" stroke="currentColor" stroke-width=".267"/></defs><path fill="none" stroke="#000" stroke-linecap="round" stroke-linejoin="round" stroke-width=".1" d="M35.48 205V45.01" class="gridline" color="#000"/><g fill="none" stroke="none" stroke-linecap="round" stroke-linejoin="round" stroke-width="0" color="#000"><path d="M35.48 205v-7.5m0-152.49v7.5"/><text fill="#000" font-family="KaTeX_Main" font-size="10" text-anchor="middle" transform="translate(35.48 215.75)"><tspan> 1</tspan></text></g><path fill="none" stroke="#000" stroke-linecap="round" stroke-linejoin="round" stroke-width=".1" d="M72.87 205V45.01" class="gridline" color="#000"/><g fill="none" stroke="none" stroke-linecap="round" stroke-linejoin="round" stroke-width="0" color="#000"><path d="M72.87 205v-7.5m0-152.49v7.5"/><text fill="#000" font-family="KaTeX_Main" font-size="10" text-anchor="middle" transform="translate(72.87 215.75)"><tspan> 2</tspan></text></g><path fill="none" stroke="#000" stroke-linecap="round" stroke-linejoin="round" stroke-width=".1" d="M110.26 205V45.01" class="gridline" color="#000"/><g fill="none" stroke="none" stroke-linecap="round" stroke-linejoin="round" stroke-width="0" color="#000"><path d="M110.26 205v-7.5m0-152.49v7.5"/><text fill="#000" font-family="KaTeX_Main" font-size="10" text-anchor="middle" transform="translate(110.26 215.75)"><tspan> 3</tspan></text></g><path fill="none" stroke="#000" stroke-linecap="round" stroke-linejoin="round" stroke-width=".1" d="M147.65 205V45.01" class="gridline" color="#000"/><g fill="none" stroke="none" stroke-linecap="round" stroke-linejoin="round" stroke-width="0" color="#000"><path d="M147.65 205v-7.5m0-152.49v7.5"/><text fill="#000" font-family="KaTeX_Main" font-size="10" text-anchor="middle" transform="translate(147.65 215.75)"><tspan> 4</tspan></text></g><path fill="none" stroke="#000" stroke-linecap="round" stroke-linejoin="round" stroke-width=".1" d="M185.04 205V45.01" class="gridline" color="#000"/><g fill="none" stroke="none" stroke-linecap="round" stroke-linejoin="round" stroke-width="0" color="#000"><path d="M185.04 205v-7.5m0-152.49v7.5"/><text fill="#000" font-family="KaTeX_Main" font-size="10" text-anchor="middle" transform="translate(185.04 215.75)"><tspan> 5</tspan></text></g><path fill="none" stroke="#000" stroke-linecap="round" stroke-linejoin="round" stroke-width=".1" d="M222.43 205V45.01" class="gridline" color="#000"/><g fill="none" stroke="none" stroke-linecap="round" stroke-linejoin="round" stroke-width="0" color="#000"><path d="M222.43 205v-7.5m0-152.49v7.5"/><text fill="#000" font-family="KaTeX_Main" font-size="10" text-anchor="middle" transform="translate(222.43 215.75)"><tspan> 6</tspan></text></g><path fill="none" stroke="#000" stroke-linecap="round" stroke-linejoin="round" stroke-width=".1" d="M259.82 205V45.01" class="gridline" color="#000"/><g fill="none" stroke="none" stroke-linecap="round" stroke-linejoin="round" stroke-width="0" color="#000"><path d="M259.82 205v-7.5m0-152.49v7.5"/><text fill="#000" font-family="KaTeX_Main" font-size="10" text-anchor="middle" transform="translate(259.82 215.75)"><tspan> 7</tspan></text></g><path fill="none" stroke="#000" stroke-linecap="round" stroke-linejoin="round" stroke-width=".1" d="M297.21 205V45.01" class="gridline" color="#000"/><g fill="none" stroke="none" stroke-linecap="round" stroke-linejoin="round" stroke-width="0" color="#000"><path d="M297.21 205v-7.5m0-152.49v7.5"/><text fill="#000" font-family="KaTeX_Main" font-size="10" text-anchor="middle" transform="translate(297.21 215.75)"><tspan> 8</tspan></text></g><path fill="none" stroke="#000" stroke-linecap="round" stroke-linejoin="round" stroke-width=".1" d="M334.6 205V45.01" class="gridline" color="#000"/><g fill="none" stroke="none" stroke-linecap="round" stroke-linejoin="round" stroke-width="0" color="#000"><path d="M334.6 205v-7.5m0-152.49v7.5"/><text fill="#000" font-family="KaTeX_Main" font-size="10" text-anchor="middle" transform="translate(334.6 215.75)"><tspan> 9</tspan></text></g><path fill="none" stroke="#000" stroke-linecap="round" stroke-linejoin="round" stroke-width=".1" d="M371.99 205V45.01" class="gridline" color="#000"/><g fill="none" stroke="none" stroke-linecap="round" stroke-linejoin="round" stroke-width="0" color="#000"><path d="M371.99 205v-7.5m0-152.49v7.5"/><text fill="#000" font-family="KaTeX_Main" font-size="10" text-anchor="middle" transform="translate(371.99 215.75)"><tspan> 10</tspan></text></g><g fill="none" stroke="none" stroke-linecap="round" stroke-linejoin="round" stroke-width="0" color="#000"><path d="M371.99 205h-7.5"/><text fill="#000" font-family="KaTeX_Main" font-size="10" transform="translate(378.99 208.25)"><tspan>0.30</tspan></text></g><g fill="none" stroke="none" stroke-linecap="round" stroke-linejoin="round" stroke-width="0" color="#000"><path d="M371.99 185h-7.5"/><text fill="#000" font-family="KaTeX_Main" font-size="10" transform="translate(378.99 188.25)"><tspan>0.32</tspan></text></g><g fill="none" stroke="none" stroke-linecap="round" stroke-linejoin="round" stroke-width="0" color="#000"><path d="M371.99 165h-7.5"/><text fill="#000" font-family="KaTeX_Main" font-size="10" transform="translate(378.99 168.25)"><tspan>0.34</tspan></text></g><g fill="none" stroke="none" stroke-linecap="round" stroke-linejoin="round" stroke-width="0" color="#000"><path d="M371.99 145h-7.5"/><text fill="#000" font-family="KaTeX_Main" font-size="10" transform="translate(378.99 148.25)"><tspan>0.36</tspan></text></g><g fill="none" stroke="none" stroke-linecap="round" stroke-linejoin="round" stroke-width="0" color="#000"><path d="M371.99 125h-7.5"/><text fill="#000" font-family="KaTeX_Main" font-size="10" transform="translate(378.99 128.25)"><tspan>0.38</tspan></text></g><g fill="none" stroke="none" stroke-linecap="round" stroke-linejoin="round" stroke-width="0" color="#000"><path d="M371.99 105.01h-7.5"/><text fill="#000" font-family="KaTeX_Main" font-size="10" transform="translate(378.99 108.26)"><tspan>0.40</tspan></text></g><g fill="none" stroke="none" stroke-linecap="round" stroke-linejoin="round" stroke-width="0" color="#000"><path d="M371.99 85.01h-7.5"/><text fill="#000" font-family="KaTeX_Main" font-size="10" transform="translate(378.99 88.26)"><tspan>0.42</tspan></text></g><g fill="none" stroke="none" stroke-linecap="round" stroke-linejoin="round" stroke-width="0" color="#000"><path d="M371.99 65.01h-7.5"/><text fill="#000" font-family="KaTeX_Main" font-size="10" transform="translate(378.99 68.26)"><tspan>0.44</tspan></text></g><g fill="none" stroke="none" stroke-linecap="round" stroke-linejoin="round" stroke-width="0" color="#000"><path d="M371.99 45.01h-7.5"/><text fill="#000" font-family="KaTeX_Main" font-size="10" transform="translate(378.99 48.26)"><tspan>0.46</tspan></text></g><path fill="none" stroke="none" stroke-linecap="round" stroke-linejoin="round" stroke-width="0" d="M28 45.01V205M371.99 45.01H28" color="#000"/><text fill="#000" stroke="none" stroke-linecap="round" stroke-linejoin="round" stroke-width="0" color="#000" font-family="KaTeX_Main" font-size="10" text-anchor="middle" transform="rotate(-90 68.255 56.755)"><tspan font-weight="bold">Duration </tspan><tspan> in milliseconds</tspan></text><text fill="#000" stroke="none" stroke-linecap="round" stroke-linejoin="round" stroke-width="0" color="#000" font-family="KaTeX_Main" font-size="10" text-anchor="middle" transform="translate(199.99 238.25)"><tspan>Operations / 10</tspan><tspan dy="-5" font-size="8">6</tspan></text><text fill="#000" stroke="none" stroke-linecap="round" stroke-linejoin="round" color="#000" font-family="KaTeX_Main" font-size="8" transform="translate(76.8 10.11)"><tspan>AVLBottomUp</tspan></text><g fill="none" stroke="currentColor" stroke-linecap="round" stroke-linejoin="round" color="#000"><path stroke="#000" d="M41.3 7.51h29.9M28 198.06l.37-.05.38-.12.37-.21.38-.29.37-.39.37-.46.38-.55.37-.62.38-.69.37-.75.37-.8.38-.83.37-.86.37-.88.38-.87.37-.86.38-.83.37-.8.37-.75.38-.69.37-.63.38-.56.37-.49.37-.42.38-.34.37-.27.38-.2.37-.14.37-.09.38-.04.37-.01.37.02.38.03.37.05.38.03.37.02h.37l.38-.04.37-.07.38-.12.37-.17.37-.21.38-.27.37-.32.38-.37.37-.41.37-.46.38-.49.37-.52.38-.54.37-.55.37-.56.38-.57.37-.55.37-.53.38-.52.37-.48.38-.46.37-.41.37-.38.38-.35.37-.3.38-.26.37-.23.37-.2.38-.17.37-.16.38-.13.37-.12.37-.12.38-.12.37-.13.37-.13.38-.15.37-.16.38-.18.37-.19.37-.22.38-.23.37-.25.38-.25.37-.27.37-.27.38-.27.37-.26.38-.26.37-.24.37-.23.38-.2.37-.19.38-.15.37-.14.37-.1.38-.08.37-.06.37-.04.38-.01h.37l.38.01.37.02.37.03.38.02.37.02h.38l.37-.01.37-.02.38-.05.37-.08.38-.09.37-.13.37-.16.38-.18.37-.21.37-.24.38-.26.37-.29.38-.3.37-.32.37-.33.38-.34.37-.35.38-.35.37-.35.37-.34.38-.33.37-.33.38-.31.37-.29.37-.29.38-.26.37-.25.38-.24.37-.22.37-.2.38-.2.37-.18.37-.18.38-.17.37-.16.38-.16.37-.16.37-.15.38-.16.37-.16.38-.15.37-.16.37-.16.38-.16.37-.16.38-.15.37-.15.37-.14.38-.13.37-.13.37-.11.38-.11.37-.09.38-.07.37-.06.37-.05.38-.03.37-.02.38-.01.37.01.37.01.38.03.37.03.38.03.37.03.37.03.38.03.37.02.38.01.37.01.37-.01.38-.03.37-.04.37-.05.38-.07.37-.09.38-.1.37-.12.37-.12.38-.14.37-.15.38-.16.37-.16.37-.17.38-.16.37-.17.38-.15.37-.16.37-.14.38-.13.37-.12.37-.11.38-.09.37-.08.38-.06.37-.05.37-.03.38-.02.37-.01h.38l.37.01.37.02.38.03.37.02.38.03.37.03.37.02.38.02.37.01h.38l.37-.01.37-.02.38-.04.37-.04.37-.06.38-.08.37-.09.38-.09.37-.12.37-.12.38-.13.37-.14.38-.15.37-.15.37-.16.38-.15.37-.16.38-.16.37-.16.37-.16.38-.15.37-.15.37-.14.38-.14.37-.13.38-.13.37-.12.37-.12.38-.11.37-.1.38-.1.37-.1.37-.09.38-.09.37-.09.38-.08.37-.08.37-.08.38-.07.37-.08.38-.06.37-.07.37-.06.38-.05.37-.05.37-.05.38-.04.37-.03.38-.03.37-.02.37-.01.38-.01h.37l.38.01.37.01.37.01.38.01.37.02.38.02.37.02.37.01.38.01.37.01h.37l.38-.01.37-.02.38-.03.37-.04.37-.05.38-.07.37-.08.38-.09.37-.11.37-.12.38-.13.37-.15.38-.15.37-.17.37-.17.38-.18.37-.19.38-.19.37-.19.37-.19.38-.2.37-.19.37-.18.38-.18.37-.18.38-.17.37-.16.37-.16.38-.15.37-.13.38-.13.37-.13.37-.11.38-.11.37-.1.38-.09.37-.09.37-.08.38-.07.37-.07.37-.07.38-.06.37-.06.38-.06.37-.05.37-.05.38-.04.37-.04.38-.04.37-.03.37-.03.38-.03.37-.02.38-.01.37-.02.37-.01h1.87l.38.01H156.62l.38-.01.37-.02.37-.02.38-.03.37-.04.38-.05.37-.06.37-.07.38-.08.37-.09.38-.1.37-.11.37-.12.38-.13.37-.13.37-.15.38-.14.37-.15.38-.15.37-.15.37-.16.38-.14.37-.15.38-.14.37-.13.37-.12.38-.12.37-.1.38-.1.37-.09.37-.07.38-.07.37-.06.38-.05.37-.05.37-.04.38-.03.37-.03.37-.03.38-.03.37-.03.38-.03.37-.03.37-.05.38-.04.37-.06.38-.07.37-.07.37-.09.38-.09.37-.11.38-.12.37-.13.37-.13.38-.15.37-.16.37-.16.38-.17.37-.18.38-.18.37-.18.37-.19.38-.19.37-.19.38-.18.37-.19.37-.18.38-.18.37-.18.38-.17.37-.17.37-.16.38-.15.37-.16.38-.14.37-.15.37-.14.38-.13.37-.13.37-.12.38-.12.37-.12.38-.11.37-.11.37-.1.38-.1.37-.1.38-.09.37-.08.37-.08.38-.07.37-.07.38-.06.37-.06.37-.05.38-.04.37-.04.37-.04.38-.02.37-.03.38-.01.37-.02.37-.01.38-.02.37-.01.38-.01.37-.02.37-.02.38-.02.37-.03.38-.04.37-.05.37-.05.38-.07.37-.07.38-.09.37-.09.37-.11.38-.12.37-.13.37-.14.38-.15.37-.16.38-.16.37-.18.37-.18.38-.18.37-.18.38-.19.37-.19.37-.19.38-.18.37-.19.38-.18.37-.17.37-.17.38-.17.37-.15.37-.15.38-.15.37-.14.38-.13.37-.13.37-.12.38-.11.37-.11.38-.11.37-.1.37-.1.38-.09.37-.09.38-.09.37-.08.37-.08.38-.08.37-.07.37-.07.38-.07.37-.06.38-.06.37-.06.37-.05.38-.04.37-.04.38-.04.37-.03.37-.03.38-.02.37-.02.38-.02.37-.02.37-.01.38-.02.37-.02.38-.02.37-.02.37-.03.38-.04.37-.04.37-.05.38-.07.37-.07.38-.08.37-.1.37-.1.38-.12.37-.13.38-.15.37-.15.37-.16.38-.17.37-.18.38-.19.37-.19.37-.2.38-.19.37-.2.37-.2.38-.19.37-.19.38-.19.37-.17.37-.17.38-.17.37-.15.38-.14.37-.14.37-.13.38-.11.37-.11.38-.1.37-.1.37-.09.38-.08.37-.09.38-.08.37-.08.37-.08.38-.09.37-.09.37-.1.38-.1.37-.11.38-.12.37-.13.37-.13.38-.15.37-.15.38-.16.37-.17.37-.17.38-.18.37-.19.38-.18.37-.2.37-.19.38-.19.37-.19.37-.19.38-.19.37-.18.38-.18.37-.17.37-.17.38-.16.37-.15.38-.15.37-.14.37-.14.38-.13.37-.13.38-.12.37-.12.37-.12.38-.11.37-.11.38-.1.37-.11.37-.1.38-.09.37-.09.37-.09.38-.09.37-.08.38-.07.37-.06.37-.06.38-.05.37-.04.38-.04.37-.02.37-.01.38-.01.37.01.38.02.37.02.37.03.38.04.37.04.37.04.38.05.37.04.38.04.37.04.37.03.38.02.37.01h.38l.37-.02.37-.03.38-.05.37-.06.38-.09.37-.1.37-.12.38-.13.37-.15.38-.17.37-.18.37-.19.38-.2.37-.21.37-.22.38-.21.37-.23.38-.22.37-.22.37-.22.38-.21.37-.21.38-.2.37-.2.37-.19.38-.18.37-.18.38-.18.37-.17.37-.16.38-.17.37-.16.37-.16.38-.17.37-.16.38-.17.37-.16.37-.17.38-.18.37-.17.38-.17.37-.18.37-.17.38-.17.37-.17.38-.16.37-.15.37-.15.38-.13.37-.12.38-.11.37-.1.37-.08.38-.07.37-.06.37-.04.38-.03.37-.02.38-.01H287.86l.38-.01.37-.01.37-.02.38-.04.37-.05.38-.06.37-.09.37-.1.38-.13.37-.14.37-.17.38-.18.37-.21.38-.22.37-.23.37-.25.38-.25.37-.25.38-.26.37-.25.37-.24.38-.23.37-.22.38-.2.37-.17.37-.16.38-.12.37-.1.38-.07.37-.04.37-.02.38.02.37.03.37.06.38.08.37.09.38.1.37.1.37.11.38.1.37.09.38.08.37.06.37.04.38.01.37-.02.38-.04.37-.08.37-.11.38-.15.37-.18.37-.2.38-.24.37-.26.38-.28.37-.29.37-.31.38-.31.37-.31.38-.32.37-.3.37-.29.38-.27.37-.25.38-.22.37-.2.37-.18.38-.14.37-.12.38-.1.37-.07.37-.05.38-.03.37-.02.37-.01.38-.01.37-.01.38-.01.37-.03.37-.03.38-.05.37-.07.38-.08.37-.11.37-.11.38-.13.37-.14.38-.15.37-.15.37-.15.38-.14.37-.13.37-.1.38-.09.37-.05.38-.03.37.01.37.05.38.08.37.11.38.15.37.18.37.2.38.22.37.24.38.24.37.24.37.23.38.22.37.18.38.16.37.12.37.08.38.02.37-.02.37-.09.38-.14.37-.2.38-.25.37-.31.37-.36.38-.39.37-.44.38-.46.37-.49.37-.49.38-.5.37-.48.38-.47.37-.43.37-.4.38-.35.37-.3.37-.23.38-.17.37-.11.38-.05.37.02.37.07.38.12.37.15.38.19.37.19.37.2.38.18.37.15.38.11.37.06.37.01.38-.06.37-.13.38-.18.37-.25.37-.29.38-.33.37-.36.37-.37.38-.36.37-.33.38-.3.37-.24.37-.18.38-.11.37-.02.38.06.37.15.37.24.38.32.37.39.38.46.37.51.37.54.38.56.37.56.37.55.38.51.37.46.38.39.37.32.37.23.38.14.37.03.38-.08.37-.22.37-.37.38-.54.37-.75.38-.99.37-1.26.37-1.56.38-1.88.37-2.19.38-2.48.37-2.73.37-2.9.38-2.97.37-2.91.37-2.74.38-2.43.37-2.01.38-1.49.37-.87.37-.19.38.54.37 1.31.38 2.08.37 2.78.37 3.36.38 3.72.37 3.79.38 3.55.37 3.05.37 2.37.38 1.64.37 1 .37.53.38.25.37.15.38.17.37.22.37.17.38-.06.37-.45.38-.55.37-.19"/><use xlink:href="#g" transform="matrix(3.75 0 0 3.75 342.45 92.18)"/><use xlink:href="#g" transform="matrix(3.75 0 0 3.75 56.25 7.51)"/></g><text fill="#000" stroke="none" stroke-linecap="round" stroke-linejoin="round" color="#000" font-family="KaTeX_Main" font-size="8" transform="translate(76.8 25.11)"><tspan>AVLWeakTopDown</tspan></text><g fill="none" stroke="currentColor" stroke-linecap="round" stroke-linejoin="round" color="#000"><path stroke="#00C853" stroke-dasharray="4.5,2.0,0.5,2.0,0.5,2.0" d="M41.3 22.51h29.9M28 169.94l.37.04.38-.01.37-.05.38-.1.37-.17.37-.24.38-.3.37-.37.38-.44.37-.5.37-.56.38-.62.37-.65.37-.69.38-.71.37-.72.38-.72.37-.7.37-.68.38-.65.37-.6.38-.55.37-.49.37-.43.38-.36.37-.31.38-.25.37-.19.37-.15.38-.12.37-.08.37-.07.38-.06.37-.07.38-.08.37-.1.37-.13.38-.16.37-.21.38-.24.37-.29.37-.33.38-.36.37-.39.38-.42.37-.43.37-.45.38-.44.37-.43.38-.42.37-.4.37-.36.38-.33.37-.29.37-.25.38-.21.37-.16.38-.12.37-.08.37-.05.38-.01h.37l.38.03.37.03.37.03.38.04.37.02h.38l.37-.02.37-.05.38-.08.37-.12.37-.16.38-.19.37-.24.38-.27.37-.3.37-.34.38-.37.37-.39.38-.41.37-.42.37-.42.38-.43.37-.42.38-.4.37-.39.37-.37.38-.35.37-.32.38-.29.37-.26.37-.22.38-.2.37-.17.37-.15.38-.12.37-.1.38-.09.37-.07.37-.07.38-.07.37-.07.38-.07.37-.08.37-.08.38-.1.37-.11.38-.12.37-.13.37-.15.38-.15.37-.15.37-.17.38-.16.37-.16.38-.15.37-.15.37-.14.38-.13.37-.11.38-.09.37-.09.37-.06.38-.05.37-.03.38-.02.37-.01h.75l.37.01.38.01.37.01h.37l.38-.01.37-.02.37-.03.38-.05.37-.07.38-.09.37-.1.37-.13.38-.15.37-.16.38-.18.37-.2.37-.2.38-.22.37-.23.38-.22.37-.23.37-.23.38-.21.37-.21.37-.2.38-.17.37-.16.38-.14.37-.12.37-.1.38-.07.37-.04.38-.03h.37l.37.02.38.04.37.06.38.07.37.08.37.09.38.1.37.1.38.09.37.1.37.08.38.08.37.06.37.04.38.04.37.01.38-.01.37-.02.37-.05.38-.06.37-.08.38-.1.37-.11.37-.13.38-.14.37-.15.38-.15.37-.16.37-.17.38-.16.37-.17.37-.16.38-.16.37-.15.38-.14.37-.14.37-.13.38-.11.37-.11.38-.1.37-.09.37-.08.38-.07.37-.07.38-.06.37-.05.37-.04.38-.05.37-.03.38-.04.37-.03.37-.03.38-.03.37-.02.37-.02.38-.02.37-.02.38-.01.37-.01h.75l.37.01.38.01.37.02.37.03.38.03.37.04.38.04.37.05.37.05.38.06.37.05.37.06.38.06.37.06.38.05.37.05.37.04.38.04.37.02.38.02.37.01.37-.01.38-.02.37-.03.38-.04.37-.05.37-.07.38-.08.37-.09.38-.09.37-.11.37-.11.38-.12.37-.12.37-.13.38-.12.37-.13.38-.12.37-.12.37-.12.38-.11.37-.1.38-.1.37-.1.37-.08.38-.09.37-.07.38-.07.37-.07.37-.06.38-.05.37-.06.37-.05.38-.05.37-.05.38-.05.37-.05.37-.05.38-.05.37-.06.38-.05.37-.06.37-.06.38-.06.37-.06.38-.06.37-.05.37-.06.38-.05.37-.05.38-.05.37-.05.37-.04.38-.03.37-.04.37-.02.38-.03.37-.02.38-.02.37-.01.37-.02.38-.01.37-.01.38-.02.37-.01.37-.03.38-.02.37-.04.38-.04.37-.04.37-.06.38-.06.37-.08.37-.09.38-.09.37-.11.38-.11.37-.12.37-.13.38-.14.37-.14.38-.15.37-.15.37-.16.38-.15.37-.16.38-.15.37-.14.37-.15.38-.13.37-.13.38-.13.37-.11.37-.11.38-.1.37-.1.37-.08.38-.08.37-.07.38-.07.37-.06.37-.06.38-.06.37-.06.38-.06.37-.07.37-.06.38-.08.37-.07.38-.09.37-.09.37-.1.38-.11.37-.11.37-.12.38-.14.37-.14.38-.14.37-.16.37-.15.38-.17.37-.16.38-.17.37-.17.37-.16.38-.17.37-.16.38-.17.37-.15.37-.16.38-.15.37-.14.38-.14.37-.14.37-.13.38-.12.37-.12.37-.12.38-.12.37-.11.38-.12.37-.11.37-.11.38-.11.37-.12.38-.12.37-.12.37-.12.38-.12.37-.13.38-.14.37-.13.37-.14.38-.15.37-.14.37-.15.38-.16.37-.15.38-.16.37-.16.37-.16.38-.17.37-.17.38-.16.37-.17.37-.18.38-.17.37-.18.38-.18.37-.19.37-.18.38-.19.37-.2.38-.2.37-.2.37-.2.38-.21.37-.21.37-.22.38-.22.37-.22.38-.22.37-.22.37-.22.38-.22.37-.21.38-.22.37-.21.37-.2.38-.2.37-.18.38-.18.37-.17.37-.16.38-.15.37-.14.37-.13.38-.11.37-.1.38-.09.37-.08.37-.07.38-.05.37-.05.38-.03.37-.02.37-.02.38-.01.37.01h.38l.37.02.37.02.38.02.37.03.38.04.37.04.37.04.38.04.37.05.37.06.38.05.37.06.38.07.37.06.37.07.38.08.37.07.38.08.37.08.37.08.38.08.37.08.38.08.37.08.37.08.38.07.37.06.37.06.38.05.37.05.38.03.37.02.37.01h.38l.37-.01.38-.03.37-.04.37-.06.38-.07.37-.08.38-.09.37-.11.37-.12.38-.13.37-.13.37-.14.38-.15.37-.15.38-.16.37-.15.37-.16.38-.15.37-.15.38-.15.37-.14.37-.13.38-.13.37-.12.38-.11.37-.1.37-.1.38-.1.37-.08.38-.09.37-.08.37-.07.38-.08.37-.08.37-.08.38-.08.37-.08.38-.1.37-.09.37-.11.38-.11.37-.12.38-.13.37-.14.37-.15.38-.15.37-.16.38-.17.37-.17.37-.17.38-.18.37-.18.37-.17.38-.18.37-.17.38-.17.37-.17.37-.16.38-.15.37-.15.38-.14.37-.14.37-.12.38-.12.37-.12.38-.11.37-.1.37-.1.38-.1.37-.1.38-.09.37-.1.37-.09.38-.1.37-.1.37-.1.38-.1.37-.11.38-.11.37-.11.37-.11.38-.11.37-.11.38-.11.37-.11.37-.11.38-.1.37-.09.38-.1.37-.08.37-.08.38-.08.37-.07.37-.06.38-.05.37-.05.38-.04.37-.04.37-.04.38-.04.37-.04.38-.03.37-.05.37-.04.38-.05.37-.06.38-.07.37-.08.37-.09.38-.1.37-.12.38-.12.37-.14.37-.15.38-.16.37-.17.37-.18.38-.19.37-.19.38-.2.37-.21.37-.2.38-.21.37-.2.38-.2.37-.2.37-.19.38-.19.37-.18.38-.17.37-.17.37-.16.38-.15.37-.14.37-.13.38-.14.37-.12.38-.12.37-.11.37-.12.38-.1.37-.11.38-.1.37-.1.37-.1.38-.1.37-.09.38-.09.37-.08.37-.08.38-.07.37-.06.38-.06.37-.05.37-.04.38-.02.37-.02.37-.01.38.01.37.01.38.03.37.03.37.04.38.04.37.05.38.06.37.05.37.05.38.04.37.03.38.03.37.01.37-.01.38-.02.37-.05.37-.06.38-.09.37-.11.38-.13.37-.15.37-.18.38-.19.37-.22.38-.23.37-.24.37-.25.38-.26.37-.26.38-.25.37-.26.37-.24.38-.22.37-.21.38-.19.37-.17.37-.13.38-.11.37-.08.37-.04.38-.01.37.02.38.04.37.08.37.1.38.13.37.14.38.16.37.17.37.17.38.18.37.17.38.16.37.15.37.13.38.1.37.09.37.05.38.02.37-.01.38-.04.37-.07.37-.1.38-.14.37-.16.38-.19.37-.21.37-.23.38-.24.37-.25.38-.25.37-.26.37-.26.38-.25.37-.23.38-.23.37-.21.37-.19.38-.18.37-.15.37-.14.38-.12.37-.1.38-.09.37-.08.37-.07.38-.07.37-.06.38-.06.37-.07.37-.07.38-.09.37-.09.38-.11.37-.12.37-.13.38-.15.37-.16.37-.17.38-.18.37-.18.38-.19.37-.19.37-.18.38-.18.37-.18.38-.16.37-.14.37-.14.38-.11.37-.1.38-.08.37-.07.37-.05.38-.03.37-.03.38-.01.37-.01.37-.01h.38l.37-.01.37-.01.38-.02.37-.04.38-.05.37-.06.37-.08.38-.1.37-.12.38-.13.37-.15.37-.16.38-.17.37-.18.38-.19.37-.18.37-.18.38-.17.37-.15.37-.14.38-.12.37-.09.38-.06.37-.04.37-.01.38.03.37.04.38.08.37.09.37.11.38.11.37.12.38.12.37.1.37.09.38.06.37.03.38-.01.37-.05.37-.1.38-.14.37-.19.37-.23.38-.27.37-.31.38-.34.37-.35.37-.36.38-.36.37-.36.38-.33.37-.29.37-.26.38-.21.37-.15.38-.09.37-.02.37.04.38.11.37.18.37.23.38.28.37.32.38.36.37.39.37.39.38.39.37.38.38.35.37.31.37.26.38.21.37.13.38.05.37-.04.37-.11.38-.21.37-.3.38-.39.37-.46.37-.53.38-.6.37-.64.37-.67.38-.69.37-.69.38-.67.37-.64.37-.58.38-.51.37-.43.38-.34.37-.23.37-.13.38-.02.37.09.38.19.37.29.37.36.38.44.37.48.37.52.38.52.37.51.38.48.37.43.37.38.38.33.37.26.38.2.37.14.37.08.38.02.37-.04.38-.12.37-.21.37-.31.38-.44.37-.56.38-.7.37-.83.37-.94.38-1.01.37-1.03.37-1 .38-.92.37-.79.38-.65.37-.5.37-.39.38-.31.37-.27.38-.2.37-.11.37.1.38.4.37.81.38 1.22.37 1.53.37 1.63.38 1.47.37 1.09.37.6.38.14.37-.19.38-.37.37-.46.37-.49.38-.43.37-.33.38-.28.37-.73"/><use xlink:href="#h" color="#00C853" transform="matrix(3.75 0 0 3.75 56.04 149.52)"/><use xlink:href="#h" color="#00C853" transform="matrix(3.75 0 0 3.75 56.25 22.51)"/></g><text fill="#000" stroke="none" stroke-linecap="round" stroke-linejoin="round" color="#000" font-family="KaTeX_Main" font-size="8" transform="translate(241.1 10.11)"><tspan>AVLRelaxedTopDown</tspan></text><g fill="none" stroke="currentColor" stroke-linecap="round" stroke-linejoin="round" color="#000"><path stroke="#3B75EA" stroke-dasharray="4.5,2.0,0.5,2.0,0.5,2.0" d="M205.6 7.51h29.9M28 166.64l.37-.12.38-.16.37-.22.38-.27.37-.34.37-.39.38-.44.37-.5.38-.52.37-.56.37-.56.38-.57.37-.56.37-.52.38-.5.37-.45.38-.39.37-.34.37-.27.38-.2.37-.14.38-.08.37-.02.37.04.38.08.37.11.38.15.37.16.37.16.38.16.37.15.37.12.38.09.37.04h.38l.37-.06.37-.11.38-.18.37-.23.38-.29.37-.35.37-.4.38-.44.37-.48.38-.51.37-.53.37-.54.38-.56.37-.54.38-.53.37-.52.37-.49.38-.45.37-.42.37-.38.38-.35.37-.3.38-.26.37-.23.37-.2.38-.17.37-.15.38-.13.37-.13.37-.13.38-.13.37-.14.38-.16.37-.18.37-.21.38-.23.37-.26.37-.28.38-.32.37-.33.38-.36.37-.37.37-.38.38-.38.37-.39.38-.37.37-.36.37-.34.38-.32.37-.29.38-.25.37-.22.37-.19.38-.14.37-.11.38-.07.37-.05.37-.01.38.02.37.03.37.05.38.06.37.07.38.07.37.06.37.05.38.04.37.02.38.01.37-.02.37-.05.38-.07.37-.09.38-.11.37-.14.37-.15.38-.18.37-.18.37-.2.38-.2.37-.21.38-.2.37-.2.37-.19.38-.18.37-.17.38-.15.37-.14.37-.11.38-.1.37-.07.38-.06.37-.04.37-.02h.75l.38.02.37.02.37.03.38.03.37.03.37.02.38.02h.37l.38-.01.37-.02.37-.04.38-.07.37-.08.38-.09.37-.12.37-.14.38-.16.37-.17.38-.19.37-.2.37-.22.38-.22.37-.22.37-.23.38-.23.37-.22.38-.23.37-.21.37-.2.38-.2.37-.18.38-.17.37-.16.37-.14.38-.13.37-.12.38-.1.37-.09.37-.09.38-.08.37-.07.38-.06.37-.07.37-.06.38-.06.37-.06.37-.06.38-.07.37-.06.38-.07.37-.07.37-.07.38-.08.37-.07.38-.07.37-.07.37-.07.38-.06.37-.05.38-.05.37-.04.37-.04.38-.02.37-.02.37-.01h.75l.38.01.37.02.37.02.38.03.37.02.38.03.37.02.37.01.38.02h.75l.37-.02.37-.02.38-.04.37-.04.38-.06.37-.07.37-.08.38-.1.37-.1.37-.11.38-.13.37-.12.38-.14.37-.13.37-.14.38-.14.37-.14.38-.14.37-.14.37-.13.38-.13.37-.12.38-.11.37-.11.37-.11.38-.09.37-.09.37-.09.38-.08.37-.07.38-.07.37-.06.37-.06.38-.06.37-.05.38-.05.37-.05.37-.05.38-.04.37-.03.38-.04.37-.02.37-.03.38-.01.37-.01h.38l.37.01.37.02.38.04.37.04.37.05.38.07.37.07.38.09.37.1.37.11.38.12.37.12.38.13.37.14.37.13.38.14.37.14.38.13.37.12.37.12.38.11.37.09.37.08.38.07.37.05.38.03.37.02h.37l.38-.02.37-.04.38-.06.37-.07.37-.09.38-.1.37-.11.38-.12.37-.13.37-.14.38-.14.37-.14.38-.15.37-.15.37-.14.38-.14.37-.13.37-.13.38-.12.37-.11.38-.11.37-.1.37-.09.38-.09.37-.08.38-.07.37-.07.37-.07.38-.07.37-.07.38-.07.37-.08.37-.08.38-.09.37-.1.37-.11.38-.12.37-.12.38-.14.37-.16.37-.16.38-.18.37-.18.38-.2.37-.21.37-.21.38-.23.37-.23.38-.23.37-.24.37-.25.38-.24.37-.25.38-.24.37-.24.37-.24.38-.24.37-.23.37-.22.38-.22.37-.22.38-.21.37-.2.37-.19.38-.19.37-.19.38-.17.37-.17.37-.17.38-.16.37-.15.38-.15.37-.14.37-.13.38-.13.37-.11.37-.12.38-.1.37-.09.38-.09.37-.08.37-.06.38-.06.37-.04.38-.04.37-.02.37-.02h.75l.38.02.37.02.37.02.38.04.37.03.38.04.37.04.37.04.38.04.37.03.37.02.38.02h.75l.37-.02.37-.03.38-.05.37-.07.38-.08.37-.1.37-.11.38-.14.37-.15.38-.17.37-.18.37-.21.38-.21.37-.23.37-.25.38-.25.37-.27.38-.27.37-.28.37-.29.38-.3.37-.29.38-.3.37-.31.37-.3.38-.3.37-.3.38-.3.37-.29.37-.29.38-.29.37-.28.38-.27.37-.26.37-.25.38-.25.37-.23.37-.22.38-.21.37-.2.38-.18.37-.17.37-.15.38-.14.37-.12.38-.1.37-.08.37-.07.38-.04.37-.03.38-.01h.37l.37.03.38.03.37.06.37.06.38.08.37.09.38.1.37.1.37.11.38.12.37.11.38.11.37.12.37.1.38.11.37.09.38.09.37.08.37.07.38.07.37.05.38.04.37.03.37.02.38.01.37.01.37-.01.38-.01.37-.01.38-.02.37-.02.37-.03.38-.02.37-.02.38-.03.37-.02.37-.02.38-.02.37-.01.38-.02.37-.01h.37l.38-.01.37-.01h.37l.38-.01.37-.01.38-.01.37-.02.37-.02.38-.03.37-.04.38-.05.37-.06.37-.07.38-.08.37-.1.38-.1.37-.12.37-.13.38-.15.37-.15.37-.16.38-.18.37-.18.38-.19.37-.2.37-.2.38-.21.37-.21.38-.21.37-.21.37-.2.38-.21.37-.2.38-.2.37-.19.37-.19.38-.18.37-.18.38-.17.37-.16.37-.16.38-.16.37-.14.37-.14.38-.14.37-.13.38-.13.37-.13.37-.12.38-.11.37-.11.38-.11.37-.1.37-.1.38-.09.37-.09.38-.08.37-.07.37-.07.38-.06.37-.06.37-.05.38-.04.37-.03.38-.03.37-.02.37-.02.38-.01.37-.01.38-.01.37-.01.37-.01.38-.01.37-.01.38-.02.37-.03.37-.04.38-.04.37-.06.38-.07.37-.09.37-.1.38-.11.37-.13.37-.14.38-.16.37-.17.38-.19.37-.19.37-.21.38-.22.37-.22.38-.24.37-.23.37-.24.38-.24.37-.25.38-.24.37-.24.37-.23.38-.23.37-.22.37-.22.38-.21.37-.2.38-.2.37-.19.37-.18.38-.18.37-.17.38-.17.37-.16.37-.15.38-.15.37-.15.38-.14.37-.14.37-.14.38-.13.37-.12.38-.12.37-.12.37-.11.38-.1.37-.1.37-.08.38-.08.37-.06.38-.05.37-.05.37-.03.38-.02.37-.01.38.01.37.01.37.02.38.03.37.04.38.04.37.05.37.04.38.05.37.04.37.03.38.03.37.02.38.01h.37l.37-.02.38-.04.37-.04.38-.07.37-.08.37-.1.38-.11.37-.12.38-.14.37-.15.37-.15.38-.16.37-.17.38-.16.37-.17.37-.16.38-.16.37-.15.37-.14.38-.13.37-.12.38-.11.37-.1.37-.08.38-.07.37-.05.38-.05.37-.04.37-.03.38-.02.37-.03.38-.02.37-.02.37-.03.38-.04.37-.04.37-.06.38-.07.37-.08.38-.1.37-.12.37-.13.38-.16.37-.17.38-.18.37-.2.37-.21.38-.23.37-.23.38-.24.37-.24.37-.24.38-.23.37-.23.38-.22.37-.21.37-.19.38-.18.37-.16.37-.14.38-.12.37-.09.38-.08.37-.06.37-.04.38-.02.37-.01h.38l.37.01.37.02.38.02.37.03.38.02.37.02.37.02.38.01h.37l.37-.01.38-.02.37-.03.38-.03.37-.05.37-.04.38-.05.37-.06.38-.05.37-.05.37-.04.38-.04.37-.03.38-.01.37-.01.37.01.38.02.37.03.38.04.37.05.37.07.38.06.37.08.37.07.38.07.37.06.38.06.37.04.37.03h.38l.37-.01.38-.04.37-.07.37-.09.38-.12.37-.16.38-.18.37-.21.37-.24.38-.26.37-.29.37-.31.38-.32.37-.34.38-.34.37-.35.37-.36.38-.35.37-.34.38-.34.37-.32.37-.31.38-.29.37-.28.38-.26.37-.24.37-.22.38-.21.37-.19.38-.18.37-.17.37-.15.38-.15.37-.14.37-.13.38-.13.37-.13.38-.12.37-.11.37-.1.38-.1.37-.08.38-.07.37-.05.37-.03h.38l.37.03.38.06.37.09.37.13.38.17.37.21.37.24.38.28.37.31.38.34.37.37.37.38.38.39.37.4.38.39.37.38.37.36.38.33.37.29.38.24.37.2.37.14.38.07.37.01.38-.06.37-.13.37-.19.38-.26.37-.33.37-.39.38-.43.37-.49.38-.52.37-.55.37-.57.38-.57.37-.58.38-.56.37-.54.37-.51.38-.47.37-.41.38-.35.37-.29.37-.21.38-.15.37-.06.37.01.38.08.37.15.38.22.37.27.37.32.38.35.37.37.38.38.37.38.37.35.38.32.37.27.38.21.37.14.37.06.38-.03.37-.12.38-.22.37-.31.37-.4.38-.49.37-.56.37-.62.38-.68.37-.71.38-.73.37-.72.37-.71.38-.67.37-.61.38-.54.37-.46.37-.37.38-.25.37-.15.38-.04.37.07.37.18.38.27.37.34.37.41.38.45.37.46.38.44.37.4.37.33.38.23.37.11.38-.02.37-.17.37-.31.38-.46.37-.57.38-.67.37-.74.37-.78.38-.77.37-.73.38-.67.37-.59.37-.51.38-.42.37-.37.37-.29.38-.24.37-.14.38-.03.37.16.37.39.38.65.37.91.38 1.12.37 1.25.37 1.25.38 1.14.37.92.38.64.37.34.37.07.38-.14.37-.23.37-.2.38-.06.37.12.38.27.37.26.37-.02.38-.49.37-.84.38-.64.37.29"/><use xlink:href="#a" color="#3B75EA" transform="matrix(3.75 0 0 3.75 113.62 132.33)"/><use xlink:href="#a" color="#3B75EA" transform="matrix(3.75 0 0 3.75 220.55 7.51)"/></g><text fill="#000" stroke="none" stroke-linecap="round" stroke-linejoin="round" color="#000" font-family="KaTeX_Main" font-size="8" transform="translate(241.1 25.11)"><tspan>RedBlackRelaxedTopDown</tspan></text><g fill="none" stroke="currentColor" stroke-linecap="round" stroke-linejoin="round" color="#000"><path stroke="#FFAB00" stroke-dasharray="4.5,2.0,0.5,2.0,0.5,2.0" d="M205.6 22.51h29.9M28 189.6l.37-.07.38-.01.37.03.38.07.37.07.37.08.38.07.37.04.38.02.37-.03.37-.07.38-.12.37-.18.37-.23.38-.28.37-.34.38-.38.37-.43.37-.47.38-.5.37-.52.38-.54.37-.54.37-.55.38-.53.37-.52.38-.5.37-.46.37-.43.38-.4.37-.34.37-.3.38-.26.37-.2.38-.16.37-.11.37-.08.38-.03h.37l.38.02.37.05.37.06.38.07.37.07.38.07.37.06.37.03.38.02.37-.02.38-.05.37-.09.37-.13.38-.17.37-.21.37-.26.38-.31.37-.34.38-.38.37-.41.37-.44.38-.47.37-.49.38-.49.37-.5.37-.5.38-.5.37-.47.38-.46.37-.44.37-.4.38-.37.37-.33.37-.3.38-.26.37-.23.38-.18.37-.16.37-.12.38-.1.37-.08.38-.07.37-.05.37-.05.38-.05.37-.05.38-.06.37-.07.37-.09.38-.1.37-.12.38-.14.37-.16.37-.17.38-.18.37-.2.37-.21.38-.2.37-.22.38-.2.37-.21.37-.19.38-.18.37-.17.38-.16.37-.13.37-.13.38-.1.37-.1.38-.07.37-.07.37-.06.38-.06.37-.05.37-.05.38-.05.37-.06.38-.07.37-.07.37-.09.38-.1.37-.11.38-.13.37-.13.37-.15.38-.15.37-.17.38-.16.37-.17.37-.17.38-.16.37-.15.38-.15.37-.13.37-.12.38-.1.37-.09.37-.06.38-.05.37-.02.38-.01.37.01.37.02.38.04.37.05.38.06.37.07.37.07.38.07.37.07.38.06.37.06.37.05.38.03.37.03.37.01.38-.01.37-.02.38-.03.37-.05.37-.05.38-.07.37-.08.38-.09.37-.08.37-.1.38-.09.37-.09.38-.09.37-.09.37-.07.38-.07.37-.06.38-.06.37-.04.37-.03.38-.02.37-.02.37-.01h.75l.38.01h.37l.37.01h.38l.37-.01.38-.01.37-.02.37-.03.38-.04.37-.05.38-.07.37-.08.37-.09.38-.11.37-.12.37-.13.38-.14.37-.15.38-.16.37-.17.37-.17.38-.17.37-.17.38-.17.37-.16.37-.16.38-.16.37-.14.38-.14.37-.13.37-.11.38-.11.37-.09.38-.09.37-.07.37-.07.38-.06.37-.06.37-.05.38-.04.37-.05.38-.04.37-.05.37-.05.38-.06.37-.05.38-.07.37-.07.37-.07.38-.09.37-.08.38-.1.37-.09.37-.1.38-.11.37-.1.37-.11.38-.1.37-.1.38-.09.37-.09.37-.09.38-.07.37-.07.38-.07.37-.05.37-.04.38-.04.37-.03.38-.03.37-.02.37-.01.38-.01.37-.01.38-.01h.37l.37-.01.38-.02.37-.01.37-.02.38-.03.37-.03.38-.04.37-.05.37-.05.38-.06.37-.06.38-.07.37-.07.37-.08.38-.08.37-.07.38-.08.37-.08.37-.08.38-.07.37-.07.37-.07.38-.06.37-.06.38-.05.37-.05.37-.05.38-.04.37-.04.38-.03.37-.04.37-.04.38-.03.37-.04.38-.05.37-.05.37-.05.38-.07.37-.07.38-.08.37-.09.37-.1.38-.11.37-.12.37-.13.38-.15.37-.15.38-.17.37-.17.37-.18.38-.19.37-.19.38-.2.37-.2.37-.21.38-.21.37-.21.38-.21.37-.22.37-.21.38-.2.37-.21.37-.21.38-.2.37-.2.38-.19.37-.2.37-.19.38-.18.37-.19.38-.18.37-.17.37-.18.38-.17.37-.16.38-.16.37-.15.37-.15.38-.14.37-.13.38-.13.37-.11.37-.1.38-.09.37-.08.37-.06.38-.05.37-.03.38-.01h.37l.37.02.38.04.37.05.38.07.37.08.37.1.38.11.37.12.38.13.37.14.37.14.38.15.37.15.37.15.38.14.37.14.38.14.37.12.37.12.38.1.37.09.38.08.37.07.37.05.38.03.37.02.38.01h.37l.37-.02.38-.02.37-.04.38-.05.37-.05.37-.05.38-.06.37-.07.37-.06.38-.06.37-.07.38-.06.37-.06.37-.06.38-.05.37-.05.38-.05.37-.05.37-.04.38-.05.37-.04.38-.04.37-.05.37-.05.38-.05.37-.06.37-.07.38-.07.37-.08.38-.09.37-.1.37-.11.38-.12.37-.13.38-.14.37-.15.37-.17.38-.17.37-.18.38-.2.37-.2.37-.2.38-.22.37-.22.38-.22.37-.23.37-.23.38-.24.37-.23.37-.24.38-.23.37-.24.38-.23.37-.22.37-.23.38-.22.37-.22.38-.21.37-.21.37-.2.38-.2.37-.19.38-.18.37-.17.37-.17.38-.16.37-.14.37-.14.38-.13.37-.11.38-.11.37-.09.37-.07.38-.07.37-.05.38-.03.37-.02.37-.01.38.01.37.02.38.04.37.04.37.06.38.07.37.07.38.09.37.08.37.1.38.09.37.09.37.09.38.08.37.07.38.07.37.05.37.04.38.03.37.01.38-.01.37-.03.37-.04.38-.06.37-.09.38-.1.37-.12.37-.14.38-.15.37-.17.37-.19.38-.2.37-.21.38-.22.37-.23.37-.24.38-.24.37-.24.38-.25.37-.25.37-.25.38-.25.37-.25.38-.24.37-.24.37-.23.38-.23.37-.22.37-.22.38-.21.37-.2.38-.2.37-.19.37-.18.38-.18.37-.16.38-.17.37-.15.37-.14.38-.14.37-.13.38-.13.37-.11.37-.11.38-.1.37-.09.38-.09.37-.07.37-.08.38-.06.37-.07.37-.05.38-.06.37-.05.38-.06.37-.05.37-.06.38-.05.37-.07.38-.07.37-.07.37-.08.38-.1.37-.1.38-.11.37-.13.37-.13.38-.15.37-.15.37-.17.38-.18.37-.19.38-.19.37-.21.37-.2.38-.21.37-.21.38-.21.37-.21.37-.2.38-.19.37-.18.38-.17.37-.16.37-.14.38-.13.37-.1.38-.09.37-.07.37-.05.38-.03h.37l.37.01.38.02.37.05.38.06.37.07.37.08.38.09.37.1.38.1.37.1.37.1.38.1.37.09.38.08.37.06.37.06.38.04.37.02.37.01.38-.01.37-.03.38-.05.37-.06.37-.09.38-.1.37-.12.38-.13.37-.15.37-.15.38-.17.37-.18.38-.19.37-.2.37-.2.38-.2.37-.21.38-.21.37-.21.37-.21.38-.21.37-.2.37-.21.38-.2.37-.2.38-.2.37-.2.37-.19.38-.18.37-.19.38-.17.37-.17.37-.17.38-.16.37-.15.38-.15.37-.13.37-.13.38-.12.37-.11.37-.09.38-.09.37-.07.38-.07.37-.05.37-.05.38-.03.37-.02.38-.02.37-.02h.37l.38-.01h.37l.38-.01.37-.01.37-.02.38-.02.37-.04.38-.05.37-.06.37-.07.38-.1.37-.11.37-.12.38-.15.37-.17.38-.18.37-.2.37-.22.38-.23.37-.24.38-.26.37-.26.37-.27.38-.28.37-.27.38-.28.37-.27.37-.26.38-.26.37-.25.37-.23.38-.22.37-.2.38-.19.37-.17.37-.15.38-.14.37-.12.38-.11.37-.09.37-.08.38-.07.37-.06.38-.05.37-.04.37-.04.38-.03.37-.03.38-.03.37-.03.37-.03.38-.03.37-.02.37-.03.38-.03.37-.03.38-.03.37-.02.37-.02.38-.02.37-.01.38-.01.37-.01h.37l.38.01h.37l.38.01.37.01.37.01.38.01h.74l.38-.02.37-.02.38-.04.37-.06.37-.08.38-.1.37-.13.38-.15.37-.17.37-.2.38-.22.37-.25.38-.26.37-.29.37-.31.38-.31.37-.33.38-.33.37-.34.37-.32.38-.33.37-.3.37-.3.38-.27.37-.24.38-.22.37-.19.37-.16.38-.12.37-.1.38-.07.37-.03.37-.01h.38l.37.03.38.04.37.05.37.04.38.05.37.03.37.02h.38l.37-.03.38-.06.37-.1.37-.13.38-.17.37-.21.38-.25.37-.28.37-.33.38-.36.37-.4.38-.42.37-.44.37-.46.38-.48.37-.48.38-.48.37-.47.37-.46.38-.45.37-.43.37-.4.38-.37.37-.35.38-.31.37-.27.37-.25.38-.21.37-.17.38-.15.37-.12.37-.1.38-.08.37-.06.38-.04.37-.04.37-.03.38-.02.37-.02.37-.01.38-.01.37-.01h.75l.37.02.38.03.37.04.38.07.37.08.37.11.38.14.37.17.38.19.37.23.37.24.38.26.37.28.38.29.37.28.37.27.38.24.37.22.37.16.38.11.37.04.38-.05.37-.14.37-.23.38-.35.37-.45.38-.57.37-.68.37-.79.38-.89.37-.99.38-1.07.37-1.15.37-1.19.38-1.24.37-1.25.37-1.27.38-1.24.37-1.22.38-1.16.37-1.11.37-1.02.38-.94.37-.84.38-.73.37-.61.37-.5.38-.39.37-.26.38-.15.37-.04.37.06.38.16.37.25.38.33.37.38.37.44.38.46.37.47.37.45.38.43.37.37.38.29.37.2.37.09.38-.03.37-.15.38-.28.37-.4.37-.51.38-.61.37-.67.38-.72.37-.74.37-.72.38-.68.37-.6.37-.5.38-.37.37-.23.38-.06.37.11.37.29.38.45.37.61.38.74.37.86.37.93.38.99.37 1.01.38 1.01.37 1.02.37 1.01.38 1.02.37 1.05.38 1.1.37 1.17.37 1.24.38 1.33.37 1.37.37 1.4.38 1.35.37 1.24.38 1.05.37.79.37.47.38.12.37-.22.38-.49.37-.65.37-.64.38-.47.37-.13.38.27.37.6.37.68.38.39.37-.3.37-1.18.38-1.86.37-1.8.38-.54.37 1.89.37 4.51.38 5.55.37 3.87.38.71.37-1.7"/><use xlink:href="#i" color="#FFAB00" transform="matrix(3.75 0 0 3.75 171.2 150.13)"/><use xlink:href="#i" color="#FFAB00" transform="matrix(3.75 0 0 3.75 220.55 22.51)"/></g><path fill="none" stroke="none" stroke-linecap="round" stroke-linejoin="round" stroke-width="0" d="M28 45.01V205M371.99 45.01H28" color="#000"/></svg>