<svg xmlns="http://www.w3.org/2000/svg" xmlns:xlink="http://www.w3.org/1999/xlink" viewBox="0 0 400 250"><path fill="none" d="M0 0h400v250H0z"/><defs><path id="g" stroke="currentColor" stroke-width=".267" d="M-1 0h2M0-1v2"/><path id="h" stroke="currentColor" stroke-width=".267" d="m-1-1 2 2m0-2-2 2"/><path id="d" stroke="currentColor" stroke-width=".267" d="M-1-1h2v2h-2z"/><path id="i" fill="currentColor" stroke="currentColor" stroke-width=".267" d="M-1-1h2v2h-2z"/><path id="b" stroke="currentColor" stroke-width=".267" d="m0-1.33-1.33 2h2.66z"/><path id="f" stroke="currentColor" stroke-width=".267" d="M0 1.33 1.265.411.782-1.067l-1.564-.009-.483 1.487z"/><use xlink:href="#b" id="c" stroke="currentColor" transform="rotate(180)"/><use xlink:href="#d" id="e" stroke="currentColor" transform="rotate(45)"/><circle id="a" cx="0" cy="0" r="1" stroke="currentColor" stroke-width=".267"/></defs><path fill="none" stroke="#000" stroke-linecap="round" stroke-linejoin="round" stroke-width=".1" d="M35.48 205V45.01" class="gridline" color="#000"/><g fill="none" stroke="none" stroke-linecap="round" stroke-linejoin="round" stroke-width="0" color="#000"><path d="M35.48 205v-7.5m0-152.49v7.5"/><text fill="#000" font-family="KaTeX_Main" font-size="10" text-anchor="middle" transform="translate(35.48 215.75)"><tspan> 1</tspan></text></g><path fill="none" stroke="#000" stroke-linecap="round" stroke-linejoin="round" stroke-width=".1" d="M72.87 205V45.01" class="gridline" color="#000"/><g fill="none" stroke="none" stroke-linecap="round" stroke-linejoin="round" stroke-width="0" color="#000"><path d="M72.87 205v-7.5m0-152.49v7.5"/><text fill="#000" font-family="KaTeX_Main" font-size="10" text-anchor="middle" transform="translate(72.87 215.75)"><tspan> 2</tspan></text></g><path fill="none" stroke="#000" stroke-linecap="round" stroke-linejoin="round" stroke-width=".1" d="M110.26 205V45.01" class="gridline" color="#000"/><g fill="none" stroke="none" stroke-linecap="round" stroke-linejoin="round" stroke-width="0" color="#000"><path d="M110.26 205v-7.5m0-152.49v7.5"/><text fill="#000" font-family="KaTeX_Main" font-size="10" text-anchor="middle" transform="translate(110.26 215.75)"><tspan> 3</tspan></text></g><path fill="none" stroke="#000" stroke-linecap="round" stroke-linejoin="round" stroke-width=".1" d="M147.65 205V45.01" class="gridline" color="#000"/><g fill="none" stroke="none" stroke-linecap="round" stroke-linejoin="round" stroke-width="0" color="#000"><path d="M147.65 205v-7.5m0-152.49v7.5"/><text fill="#000" font-family="KaTeX_Main" font-size="10" text-anchor="middle" transform="translate(147.65 215.75)"><tspan> 4</tspan></text></g><path fill="none" stroke="#000" stroke-linecap="round" stroke-linejoin="round" stroke-width=".1" d="M185.04 205V45.01" class="gridline" color="#000"/><g fill="none" stroke="none" stroke-linecap="round" stroke-linejoin="round" stroke-width="0" color="#000"><path d="M185.04 205v-7.5m0-152.49v7.5"/><text fill="#000" font-family="KaTeX_Main" font-size="10" text-anchor="middle" transform="translate(185.04 215.75)"><tspan> 5</tspan></text></g><path fill="none" stroke="#000" stroke-linecap="round" stroke-linejoin="round" stroke-width=".1" d="M222.43 205V45.01" class="gridline" color="#000"/><g fill="none" stroke="none" stroke-linecap="round" stroke-linejoin="round" stroke-width="0" color="#000"><path d="M222.43 205v-7.5m0-152.49v7.5"/><text fill="#000" font-family="KaTeX_Main" font-size="10" text-anchor="middle" transform="translate(222.43 215.75)"><tspan> 6</tspan></text></g><path fill="none" stroke="#000" stroke-linecap="round" stroke-linejoin="round" stroke-width=".1" d="M259.82 205V45.01" class="gridline" color="#000"/><g fill="none" stroke="none" stroke-linecap="round" stroke-linejoin="round" stroke-width="0" color="#000"><path d="M259.82 205v-7.5m0-152.49v7.5"/><text fill="#000" font-family="KaTeX_Main" font-size="10" text-anchor="middle" transform="translate(259.82 215.75)"><tspan> 7</tspan></text></g><path fill="none" stroke="#000" stroke-linecap="round" stroke-linejoin="round" stroke-width=".1" d="M297.21 205V45.01" class="gridline" color="#000"/><g fill="none" stroke="none" stroke-linecap="round" stroke-linejoin="round" stroke-width="0" color="#000"><path d="M297.21 205v-7.5m0-152.49v7.5"/><text fill="#000" font-family="KaTeX_Main" font-size="10" text-anchor="middle" transform="translate(297.21 215.75)"><tspan> 8</tspan></text></g><path fill="none" stroke="#000" stroke-linecap="round" stroke-linejoin="round" stroke-width=".1" d="M334.6 205V45.01" class="gridline" color="#000"/><g fill="none" stroke="none" stroke-linecap="round" stroke-linejoin="round" stroke-width="0" color="#000"><path d="M334.6 205v-7.5m0-152.49v7.5"/><text fill="#000" font-family="KaTeX_Main" font-size="10" text-anchor="middle" transform="translate(334.6 215.75)"><tspan> 9</tspan></text></g><path fill="none" stroke="#000" stroke-linecap="round" stroke-linejoin="round" stroke-width=".1" d="M371.99 205V45.01" class="gridline" color="#000"/><g fill="none" stroke="none" stroke-linecap="round" stroke-linejoin="round" stroke-width="0" color="#000"><path d="M371.99 205v-7.5m0-152.49v7.5"/><text fill="#000" font-family="KaTeX_Main" font-size="10" text-anchor="middle" transform="translate(371.99 215.75)"><tspan> 10</tspan></text></g><g fill="none" stroke="none" stroke-linecap="round" stroke-linejoin="round" stroke-width="0" color="#000"><path d="M371.99 205h-7.5"/><text fill="#000" font-family="KaTeX_Main" font-size="10" transform="translate(378.99 208.25)"><tspan>0.25</tspan></text></g><g fill="none" stroke="none" stroke-linecap="round" stroke-linejoin="round" stroke-width="0" color="#000"><path d="M371.99 189h-7.5"/><text fill="#000" font-family="KaTeX_Main" font-size="10" transform="translate(378.99 192.25)"><tspan>0.30</tspan></text></g><g fill="none" stroke="none" stroke-linecap="round" stroke-linejoin="round" stroke-width="0" color="#000"><path d="M371.99 173h-7.5"/><text fill="#000" font-family="KaTeX_Main" font-size="10" transform="translate(378.99 176.25)"><tspan>0.35</tspan></text></g><g fill="none" stroke="none" stroke-linecap="round" stroke-linejoin="round" stroke-width="0" color="#000"><path d="M371.99 157h-7.5"/><text fill="#000" font-family="KaTeX_Main" font-size="10" transform="translate(378.99 160.25)"><tspan>0.40</tspan></text></g><g fill="none" stroke="none" stroke-linecap="round" stroke-linejoin="round" stroke-width="0" color="#000"><path d="M371.99 141h-7.5"/><text fill="#000" font-family="KaTeX_Main" font-size="10" transform="translate(378.99 144.25)"><tspan>0.45</tspan></text></g><g fill="none" stroke="none" stroke-linecap="round" stroke-linejoin="round" stroke-width="0" color="#000"><path d="M371.99 125.01h-7.5"/><text fill="#000" font-family="KaTeX_Main" font-size="10" transform="translate(378.99 128.26)"><tspan>0.50</tspan></text></g><g fill="none" stroke="none" stroke-linecap="round" stroke-linejoin="round" stroke-width="0" color="#000"><path d="M371.99 109.01h-7.5"/><text fill="#000" font-family="KaTeX_Main" font-size="10" transform="translate(378.99 112.26)"><tspan>0.55</tspan></text></g><g fill="none" stroke="none" stroke-linecap="round" stroke-linejoin="round" stroke-width="0" color="#000"><path d="M371.99 93.01h-7.5"/><text fill="#000" font-family="KaTeX_Main" font-size="10" transform="translate(378.99 96.26)"><tspan>0.60</tspan></text></g><g fill="none" stroke="none" stroke-linecap="round" stroke-linejoin="round" stroke-width="0" color="#000"><path d="M371.99 77.01h-7.5"/><text fill="#000" font-family="KaTeX_Main" font-size="10" transform="translate(378.99 80.26)"><tspan>0.65</tspan></text></g><g fill="none" stroke="none" stroke-linecap="round" stroke-linejoin="round" stroke-width="0" color="#000"><path d="M371.99 61.01h-7.5"/><text fill="#000" font-family="KaTeX_Main" font-size="10" transform="translate(378.99 64.26)"><tspan>0.70</tspan></text></g><g fill="none" stroke="none" stroke-linecap="round" stroke-linejoin="round" stroke-width="0" color="#000"><path d="M371.99 45.01h-7.5"/><text fill="#000" font-family="KaTeX_Main" font-size="10" transform="translate(378.99 48.26)"><tspan>0.75</tspan></text></g><path fill="none" stroke="none" stroke-linecap="round" stroke-linejoin="round" stroke-width="0" d="M28 45.01V205M371.99 45.01H28" color="#000"/><text fill="#000" stroke="none" stroke-linecap="round" stroke-linejoin="round" stroke-width="0" color="#000" font-family="KaTeX_Main" font-size="10" text-anchor="middle" transform="rotate(-90 68.255 56.755)"><tspan font-weight="bold">Duration </tspan><tspan> in milliseconds</tspan></text><text fill="#000" stroke="none" stroke-linecap="round" stroke-linejoin="round" stroke-width="0" color="#000" font-family="KaTeX_Main" font-size="10" text-anchor="middle" transform="translate(199.99 238.25)"><tspan>Operations / 10</tspan><tspan dy="-5" font-size="8">6</tspan></text><text fill="#000" stroke="none" stroke-linecap="round" stroke-linejoin="round" color="#000" font-family="KaTeX_Main" font-size="8" transform="translate(110.4 10.11)"><tspan>AVLBottomUp</tspan></text><g fill="none" stroke="currentColor" stroke-linecap="round" stroke-linejoin="round" color="#000"><path stroke="#000" d="M74.9 7.51h29.9M28 185.46l.37.16.38-.14.37-.36.38-.35.37-.59.37.01.38-.03.37-.9.38.42.37-1.22.37.17.38.09.37.09.37-.03.38-.82.37-.58.38-.11.37.01.37-.1.38-.3.37-.24.38-.58.37-.19.37-.35.38.02.37.19.38-.65.37-30.28.37 28.2.38.87.37.08.37.15.38-.3.37-.99.38.6.37-.74.37-29.45.38 28.54.37.77.38-.71.37.39.37-.05.38-.46.37.11.38-.14.37-.41.37-.03.38-.29.37-.04.38.02.37-.48.37-.2.38-.55.37.33.37-.13.38-.29.37-1.65.38-26.99.37 26.95.37.87.38.06.37-.29.38-.78.37.49.37-.1.38-.19.37-30.21.38 29.74.37-.22.37-.19.38.17.37-.18.37.07.38-.82.37-.69.38.96.37-.64.37-.06.38-.31.37.22.38-.24.37-.6.37.2.38-.13.37.03.38-.76.37.07.37-.01.38-.26.37.15.38-.1.37-.14.37-.18.38.06.37-.29.37-29.57.38 28.61.37.19.38-.34.37.81.37-.81.38.6.37-.26.38-.4.37-29.47.37 28.69.38.55.37.15.38-.78.37.32.37-.1.38.04.37-.16.37-.57.38.29.37.24.38-1.13.37.21.37.4.38-.53.37-.04.38.1.37.13.37-.36.38-.24.37.1.38-.27.37-.24.37.17.38-.31.37-.15.38.24.37.08.37-.61.38-29.82.37 29.34.37.35.38-.01.37-.41.38-.41.37-.02.37-.03.38-.18.37-30.08.38 29.72.37.6.37-.78.38.16.37.29.38-.47.37-.29.37.26.38-.34.37.27.37-.09.38-.22.37-.03.38.07.37-.23.37-.42.38.15.37-.74.38.63.37-28.1.37 26.65.38 1.42.37-.91.38.08.37.13.37-.34.38.39.37-.15.38-29.97.37 28.2.37 1.45.38-.22.37-.49.37.3.38-.18.37-.18.38.09.37-.3.37-.29.38-.02.37.4.38-.3.37-.23.37.71.38-.87.37-.21.38-.2.37.1.37.11.38.06.37-.04.37-.1.38-.14.37-.13.38-.31.37.54.37-.65.38-.83.37-30.33.38 30.1.37.36.37-.44.38.56.37-.2.38.21.37-.48.37.03.38-30.21.37 29.81.38.33.37.17.37-.3.38-.16.37.37.37-.25.38.01.37.07.38-.03.37.2.37-.49.38.44.37-.29.38-.24.37.2.37.22.38-.55.37-.46.38-27.37.37 26.22.37 1.04.38.42.37-.3.37-.77.38.59.37-.18.38.15.37-29.14.37 27.51.38 1.06.37.09.38-.55.37-.17.37.16.38-.06.37.67.38-.29.37-.24.37-.01.38.12.37.15.38-.01.37-.21.37.4.38-.69.37.19.37-.25.38.16.37-.37.38.27.37-.2.37-.11.38-.06.37.19.38-.1.37-.37.37.54.38-31.66.37 30.07.38.38.37-.21.37-.02.38.11.37-.13.37.02.38.35.37-30.28.38 29.6.37-.61.37.85.38.11.37-.28.38-.02.37-.19.37.14.38.16.37-.07.38-.43.37.62.37-.55.38.22.37-.85.38.81.37-.19.37.22h.38l.37-.29.37-.45.38.65.37-.03.38-.46.37-.42.37.57.38-.02.37-.16.38.23.37-32.46.37 30.67.38.25.37.16.38-.28.37.53.37-.43.38.66h.37l.37-33.38.38 31.99.37-.07.38-.18.37-.37.37.78.38.15.37-.11.38.29.37.28.37-.35.38-.18.37-.47.38.36.37-.93.37.27.38.28.37.33.38-.63.37-.04.37-30.73.38 28.35.37.46.37-.15.38.43.37.42.38.32.37-.16.37.33.38-32.73.37 30.37.38.77.37.13.37-.08.38.43h.37l.38.24.37.6.37-.58.38.65.37-.21.37-.18.38.15.37-.08.38-.17.37.19.37.25.38-.39.37.48.38-.18.37-.08.37-.34.38-.09.37.45.38-.22.37.01.37.21.38-.1.37.24.38-34.96.37 31.89h.37l.38 1.01.37-.38.37.39.38.14.37-.25.38.44.37-35.44.37 32.28.38.72.37.64.38-.17.37.54.37-.3.38.1.37.26.38.49.37.09.37.04.38-.11.37-.21.37.27.38.28.37-.9.38.68.37-.1.37-.07.38-30.76.37 27.18.38 1.15.37.42.37.38.38-.22.37-.03.38.14.37.11.37-32.33.38 28.84.37 1.22.38.85.37-.73.37-.14.38.9.37.23.37-.61.38.53.37.32.38.31.37.05.37-.5.38-.05.37.84.38-.1.37-.16.37.09.38-1.37.37 1.41.38-.72.37.38.37-1.2.38 1.13.37-.13.37.08.38-.18.37-.15.38-.09.37-34.54.37 32 .38-.76.37 1.32.38.29.37-.29.37-.37.38.21.37.2.38-35.24.37 31.85.37 1.24.38.42.37-.26.38.1.37-.56.37.1.38.91.37-.47.37-.49.38.28.37.68.38.16.37-.01.37-.25.38.44.37-1.2.38-1.34.37-1.08.37.69.38-.66.37 1.3.38-.25.37-.88.37 1.12.38-.26.37.01.37-.8.38-30.49.37 28.04.38.98.37-.13.37.62.38.4.37-.37.38-.39.37-.04.37-31.29.38 27.84.37 1.27.38 1.42.37-.14.37.04.38-.72.37.81.37-.11.38-.02.37.32.38.16.37-.11.37.3.38-.6.37-.07.38.23.37.46.37-.31.38-.21.37.36.38-32.95.37 29.85.37.02.38.32.37.29.38.34.37-.65.37-.04.38.79.37-34.28.37 31.19.38.53.37.71.38.13.37.06.37-.16.38.17.37.34.38.07.37-.94.37-.13.38.47.37.5.38-.62.37.46.37-.17.38.09.37-.23.37.35.38-.14.37-.27.38-.77.37.43.37.41.38-.58.37-.47.38-.17.37.65.37-30.71.38 27.44.37.09.38.57.37-.2.37-1.43.38 1.05.37.21.38.08.37-30.86.37 26.57.38.99.37 1.52.37-.01.38-1 .37 1.07.38-.84.37.64.37-.12.38-.46.37.92.38-.66.37-.5.37.96.38-.21.37-.6.38-.34.37.7.37-.34.38-.24.37-32.1.37 30.14.38-.13.37-.26.38-.26.37.53.37-.01.38.21.37-.68.38-32.14.37 30.65.37.21.38.59.37.09.38.31.37-.25.37-.52.38.76.37-.23.38.3.37.4.37-1.01.38.44.37-1.24.37.28.38 1.05.37.5.38-1.41.37.29.37.01.38 1.06.37-.98.38.57.37-.65.37.52.38-1.07.37 1.62.38-1.11.37.24.37-34.12.38 32.47.37.8.37-.2.38-1.81.37 1.36.38.56.37-.09.37-.94.38-33.46.37 32.18.38-.57.37 1.21.37-.56.38 1.03.37-.92.38.09.37.63.37-1.88.38 1.28.37.22.38-.93.37.89.37-.16.38.36.37-.47.37-1.01.38 1.37.37-.58.38.57.37-.02.37-.11.38-.66.37-.89.38-.35.37 1.43.37-.9.38.12.37-33.75.38 31.3.37.52.37-.18.38.04.37-.24.37.94.38.4.37.15.38-32.57.37 30.12.37.13.38.27.37.12.38-.22.37-.14.37.04.38.6.37-.97.38.09.37.47.37-.25.38.09.37.77.38.27.37-.97.37-.33.38-.51.37-.09.37.17.38-33.46.37 31.77.38.03.37.18.37.37.38-.37.37 1.1.38-.09.37.02.37-34.95.38 32.01.37.52.38 1.85.37-.41.37-.32.38.36.37-.13.37.16.38-.2.37.58.38.41.37-.26.37-1.68.38 1.85.37-.69.38 1.29.37-.08.37-1.18.38 1.13.37-.49.38-.2.37.97.37-1.24.38.63.37.56.38-.92.37-.06.37.68.38-33.61.37 30.81.37.63.38-.24.37 1.76.38.08.37-1.64.37.59.38.95.37-34.25.38 31.59.37.16.37.69.38-.71.37-.03.38 1.39.37-.04.37.51.38-1.44.37-.44.37-.37.38 1.15.37.28.38-.67.37 1.3.37-.08.38-.11.37.22.38.76.37-1.05.37-32.47.38 31.08.37-.2.38.3.37 1.07.37.23.38-2.17.37 1.76.38-.21.37-33.54.37 31.37.38-.75.37 1.77.37-.17.38-.56.37 1.01.38 1.21.37-1.91.37 1.27.38.01h.37l.38.13.37-.21.37.03.38-.33.37-.01.38.38.37-.07.37-1.37.38-.17.37.06.37.43.38.37.37.83.38-.96.37.19.37.34.38-.2.37-31.94.38 28.76.37 1.8.37.45.38-.47.37-.09.38.85.37-1.6.37.9.38-33.1.37 31.12.38.61.37-.29.37.8.38.84.37-.7.37-.13.38 1.02.37.28.38.15.37-.47.37-.09.38.6.37-1.7.38 1.1.37.09.37-.14.38.47.37.37.38-.38.37-.59.37 1.04.38-.39.37.8.37-.64.38-.23.37.66.38.16.37-.42.37-34.54.38 32.24.37.31.38.59.37.78.37-.42.38.04.37.09.38.04.37-33.91.37 31.19.38 1.13.37-.27.38.83.37.08.37.08.38-.07.37-.48.37.99.38-.9.37-.57.38-1.1.37 2.71.37-1.03.38.73.37.64.38-1.08.37.59.37-.76.38-31.08.37 28.25.38 1.6.37.26.37.2.38.38.37-.31.37.13.38-.32.37-31.65.38 29.8.37.72.37 1.33.38-2.31.37.48.38 1.33.37-1.35.37 1.32.38-.34.37.12.38.01.37-.71.37.42.38-1 .37-.51.38 1.37.37-.97.37.39.38-.17.37 1.37.37-2.58.38.99.37 1.41.38.14.37-.38.37.01.38.03.37-1.18.38.25.37-32.35.37 30.91.38-.05.37.92.38.29.37-.19.37-.08.38-.41.37.21.37-34.19.38 31.81.37 1.03.38.1.37.32.37.19.38.51.37-.7.38-.96.37 1.05"/><use xlink:href="#g" transform="matrix(3.75 0 0 3.75 342.45 107.18)"/><use xlink:href="#g" transform="matrix(3.75 0 0 3.75 89.85 7.51)"/></g><text fill="#000" stroke="none" stroke-linecap="round" stroke-linejoin="round" color="#000" font-family="KaTeX_Main" font-size="8" transform="translate(110.4 25.11)"><tspan>AVLTopDown</tspan></text><g fill="none" stroke="currentColor" stroke-linecap="round" stroke-linejoin="round" color="#000"><path stroke="#29C3F6" stroke-dasharray="1.0,2.0" d="M74.9 22.51h29.9M28 191.26l.37-1.05.38-.5.37.64.38-.1.37-.4.37-.87.38.33.37-.97.38-.31.37-29.74.37 29.88.38.51.37.05.37.16.38-.67.37.07.38-.27.37.01.37-27.21.38 26.59.37.37.38.36.37-.46.37-.45.38-.7.37.04.38-.13.37-.19.37-.24.38-.28.37.25.37-.2.38-.99.37.42.38-.87.37-.23.37.68.38.22.37-.15.38-32.14.37 31.87.37-1.16.38-.72.37.99.38.24.37.45.37-1.12.38-.33.37-27.63.38 27.03.37.64.37.21.38-.44.37-.44.37-.67.38.07.37-.01.38.43.37-1.56.37.03.38.04.37.17.38-.48.37-.38.37.7.38-.68.37-.07.38.09.37-.74.37.81.38-.48.37.86.37-1 .38-.27.37.59.38.26.37-.17.37-28.32.38 28.05.37-.03.38-1.02.37.69.37.06.38-.67.37-.62.38.7.37-26.95.37 26.75.38-.91.37-.89.38.95.37.4.37.42.38.8.37-.28.37-.32.38-.52.37-.65.38-.34.37.45.37-.69.38.21.37.58.38-.34.37.02.37-.18.38-.17.37.46.38-1.51.37.34.37-.09.38.17.37-.28.37-.08.38.16.37.18.38-28.84.37 27.81.37-.12.38.6.37-.08.38-.15.37.45.37-.48.38-.6.37-28.32.38 27.78.37.34.37.27.38-.88.37.04.38.91.37-1.21.37-.26.38-.11.37-.16.37.67.38.91.37-2.02.38.24.37 1.21.37-.72.38.47.37-.62.38.4.37-28.67.37 27.99.38.91.37-.19.38-.29.37-.33.37-.24.38.08.37.44.37-28.92.38 28.14.37-.16.38.71.37-.35.37-.14.38.03.37-1.31.38.7.37-.6.37.51.38.31.37-.61.38.38.37-.55.37-.56.38 1.14.37-.03.38-.68.37-.47.37-.39.38-.24.37.05.37.18.38.66.37-.56.38.03.37-.82.37-.01.38-.16.37-27.79.38 28.86.37-.12.37.1.38-.69.37-.08.38.58.37.01.37-1.22.38-27.24.37 27.23.37-.2.38.56.37-.11.38-.33.37.06.37.41.38-.1.37-.15.38.15.37-.32.37-.22.38.09.37.05.38-.12.37-.44.37.37.38.03.37-.42.38-30.22.37 29.79.37 1 .38-.27.37-.83.37.15.38-.11.37-.31.38.51.37-27.87.37 27.17.38.44.37.3.38-.24.37-.24.37-.35.38-.87.37.38.38.37.37-.16.37.09.38-.13.37-.06.37-.43.38.36.37-.61.38.71.37.58.37-.21.38.33.37-.19.38-.02.37-.44.37.21.38.01.37-.03.38-.54.37.71.37-.17.38-30.25.37 29.72.38.01.37.65.37-.21.38-.58.37.03.37-.03.38.01.37-29.72.38 29.3.37-.45.37.47.38-.49.37.61.38-.62.37-.28.37.84.38-.25.37-.07.38.16.37.37.37-.66.38-.69.37.07.37.23.38-.39.37 1.03.38-1.19.37.55.37-.74.38.53.37.24.38-.21.37.02.37.29.38-.23.37-.23.38-30.25.37 28.38.37.75.38-.37.37.55.38-.53.37.2.37-.41.38.02.37-.32.37-29.95.38 28.93.37.78.38-.65.37.74.37.32.38.08.37.31.38.28.37.01.37-.81.38.51.37-.12.38-.36.37.75.37.03.38.59.37-.31.37-.23.38.19.37-31.25.38 29.95.37-.23.37.5.38-.44.37.16.38.35.37.66.37-.87.38-30.47.37 29.16h.38l.37.61.37.61.38-.3.37.17.38-.27.37.56.37-.05.38.14.37.25.37.41.38-.64.37.31.38-.1.37-.63.37.53.38.25.37-.91.38.19.37-.49.37-.06h.38l.37-.19.38.08.37-.47.37.89.38-.09.37.15.37-32.84.38 30.67.37.78.38-.17.37.01.37.2.38.04.37.34.38-.33.37-32.53.37 29.87.38.46.37.46.38.31.37.26.37-.22.38.3.37-.13.38.26.37.05.37.26.38.11.37.11.37-.14.38-.39.37.18.38.07.37.12.37.3.38-34.42.37 31.11.38.83.37.37.37-.46.38.42.37.14h.38l.37-.13.37-31.08.38 27.85.37 1.65.37-.32.38 1.15.37-.53.38.95.37-.11.37-.03.38.11.37-.1.38-.01.37-.23.37.8.38-.01.37-.27.38-.12.37-.06.37-.17.38-.54h.37l.38.49.37-.08.37.48.38-.04.37.04.37.22.38-1.08.37.64.38-.58.37-34.15.37 31.14.38.82.37.57.38.4.37-.95.37-.1.38.19.37.54.38-32.86.37 30.32.37-.11.38.48.37.04.37.4.38.55.37-.71.38.7.37-.07.37-.06.38-.14.37.6.38.36.37.06.37-.28.38-.45.37.23.38-.89.37.03.37.53.38-.1.37-.08.38-.3.37-.3.37-.31.38.65.37-.16.37-.46.38-31.69.37 28.54.38 1.04.37.54.37.17.38.31.37.95.38-1.05.37.6.37-30.91.38 27.51.37 1.35.38.37.37-.12.37.13.38.16.37-.15.37-.22.38-.29.37.59.38-1.02.37-.61.37 1.46.38-.2.37-.05.38.05.37-.07.37.05.38-.39.37-.06.38-33.82.37 32.12.37-.12.38-.06.37.44.37.34.38-.14.37-.9.38.79.37-32.21.37 30.24.38-.39.37.69.38-.43.37-.97.37 1.86.38-.09.37-.11.38-.6.37.34.37.1.38-.65.37.59.38.28.37.19.37-.09.38-.35.37.73.37-1.28.38.35.37-.09.38.4.37-.17.37-.25.38-.49.37.28.38-.79.37-.01.37-30.37.38 27.34.37.72.38 1.54.37-.22.37.14.38.02.37-.68.37.19.38-30.35.37 26.96.38.43.37.47.37.74.38-.66.37.61.38.23.37.52.37-1.13.38-.15.37-.45.38-.95.37.6.37.59.38-.64.37.36.38-.33.37.46.37.52.38.31.37-33.87.37 31.46.38.07.37.4.38-.5.37-.63h.37l.38-.07.37 1.37.38-32.25.37 29.59.37-.02.38 1.04.37-.63.38.9.37-1.04.37 1.02.38-.55.37.73.37-.14.38-.2.37.05.38.3.37.32.37-.91.38.23.37-.76.38.09.37.95.37-.78.38.22.37-.16.38-1.11.37 1 .37-.92.38-.27.37-.85.38-.27.37-29.52.37 26.84.38 1.4.37.21.37.7.38-.48.37.09.38-1.31.37.2.37-28.41.38 24.98.37 2.24.38-.6.37 1.26.37-.92.38.03.37.95.38-.62.37.3.37.03.38-.05.37.15.37.62.38-.62.37.79.38-.94.37-.69.37.7.38.31.37-.37.38-.63.37-.53.37.46.38-.33.37-1.03.38 1.34.37.64.37-.61.38-.42.37-31.44.38 29.68.37.38.37.53.38 1.07h.37l.37-1.34.38 1.04.37-.13.38-31.47.37 27.64.37 1.26.38.09.37.79.38-.89.37 1 .37.02.38-.34.37-.43.38.81.37-.42.37-.84.38 1.15.37-1.48.37.93.38 1.17.37-1.29.38.4.37-.31.37.57.38-34.25.37 32.77.38.26.37-.5.37.19.38-.76.37.99.38-.44.37 1.24.37-32.38.38 30.52.37 1.5.38-1.02.37.03.37-.09.38-.52.37.72.37-.03.38.63.37-.64.38-.24.37-.66.37.67.38-.55.37.48.38.42.37.28.37-.43.38-1.71.37 1.03.38-.23.37.76.37-1.7.38.76.37.24.37-.38.38-.04.37-.91.38-32.24.37 30.63.37 1.27.38-.12.37.37.38.54.37-1.19.37 1.03.38.46.37-30.25.38 27.43.37 1.9.37-.41.38.69.37.37.38-.95.37.12.37.4.38-1.1.37 1.87.37.45.38.1.37-1.13.38.36.37-.64.37.24.38-.85.37-.75.38.56.37-.61.37-33.4.38 32.48h.37l.38.8.37-.16.37-.84.38.87.37.52.37.5.38-31.22.37 28.21.38 1 .37 1.04.37.31.38-.52.37-1.19.38 1.56.37-1.42.37.88.38 1.65.37-.82.38.85.37.59h.37l.38-1.72.37.37.38-.06.37 1.4.37-.81.38-.04.37.76.37.64.38-.48.37-.87.38.48.37-.52.37.91.38.41.37-33.92.38 30.98.37.92.37.56.38.21.37-.8.38.48.37 1.33.37-1.22.38-31.87.37 29.23.37-.31.38.5.37 2.21.38-.47.37.07.37-.17.38.65.37-.12.38-.84.37.73.37-.7.38 1.03.37-.01.38-.2.37.22.37-.73.38-1.24.37 1.77.38.54.37-1.84.37 1.33.38.14.37-.55.37.26.38.4.37-.09.38-.33.37.68.37-32.77.38 30.48.37 1.68.38-1.52.37 1.29.37-.54.38-.38.37.59.38.18.37-31.15.37 29.75.38-.27.37.5.37-.14.38-.45.37 1.37.38-.67.37-.24.37-.08.38.6.37.63.38-.76.37.39.37-.01.38.47.37-.08.38.46.37-.89.37.58.38-30.3.37 27.12.38 1.18.37.76.37-.13.38.43.37-.65.37.92.38.24.37-30.59.38 27.66.37.77.37.39.38.4.37.35.38-.63.37-.31.37.02.38-1.52.37.26.38.11.37.26.37-.21.38-.85.37.17.37.72.38.05.37.59.38.02.37-1.11.37.45.38.45.37-.28.38-.24.37.66.37.51.38-.65.37.93.38-.97.37-32.18.37 31.21.38.43.37-.9.38.98.37-1.25.37 1.18.38-.41.37.09.37-30.97.38 28.63.37 1.85.38-.21.37.39.37.18.38-.14.37-.57.38-.37.37.73.37.21.38.45.37.1.38-.61.37.73.37.16.38-1.39.37 1.52.37-.28.38-.28.37-33.46.38 31.23.37 1.89.37-.63.38.21.37-.49.38.44.37-.82"/><use xlink:href="#h" color="#29C3F6" transform="matrix(3.75 0 0 3.75 56.04 179.76)"/><use xlink:href="#h" color="#29C3F6" transform="matrix(3.75 0 0 3.75 89.85 22.51)"/></g><text fill="#000" stroke="none" stroke-linecap="round" stroke-linejoin="round" color="#000" font-family="KaTeX_Main" font-size="8" transform="translate(241.1 10.11)"><tspan>RedBlackBottomUp</tspan></text><g fill="none" stroke="currentColor" stroke-linecap="round" stroke-linejoin="round" color="#000"><path stroke="#F44336" d="M205.6 7.51h29.9M28 170.84l.37-.1.38-1.05.37-.14.38-.28.37-.06.37-.86.38.24.37-.28.38-.15.37.07.37-.27.38-.79.37-1.72.37 1.77.38-.64.37-.62.38-.27.37-.87.37-.15.38.23.37.27.38-.67.37-.2.37-.86.38-.07.37-29.79.38 27.49.37 1.61.37.03.38.19.37-1.22.37.32.38-.04.37-.56.38-28.32.37 26.8.37 1.12.38-.02h.37l.38-.5.37.46.37-.25.38-.61.37.21.38-.08.37-.82.37-.39.38-.09.37-.33.38-.19.37-.01.37-.28.38-.35.37-.23.37.15.38-30.47.37 29.63.38.26.37-.64.37.1.38.01.37-.17.38-.53.37-.44.37-29.64.38 27.87.37.63.38.23.37-.23.37-.82.38-.1.37.27.37.1.38-1.11.37-.05.38.29.37.11.37-1.03.38-.06.37.35.38-.57.37-.27.37.1.38-.31.37-.01.38-1.04.37-.16.37.32.38-.47.37.18.38.03.37.22.37-1.72.38-27.18.37 26.67.37 1.26.38-1.04.37.78.38.28.37-.47.37-.25.38-.03.37-.16.38-29.85.37 29.6.37-.03.38-.18.37.2.38-.54.37.72.37-.56.38-.51.37-.26.37.46.38-.41.37.5.38-.12h.37l.37-.25.38.67.37-.88.38.57.37-.25.37-30.47.38 29.14.37-.15.38.22.37-.1.37.01.38-.42.37.03.38.35.37-30.52.37 28.94.38.8.37-.14.37.26.38.28.37-.22.38-.6.37-.19.37-.06.38-.2.37-.36.38.24.37.07.37-.08.38.14.37-.26.38-.4.37-.16.37-.06.38.43.37-.29.37-.64.38.65.37-.76.38.27.37.17.37.21.38-.25.37-.68.38-29.64.37 29.23.37.51.38-.18.37-.08.38-.51.37.46.37-.22.38-.35.37-31.08.38 30.33.37.23.37.12.38.29.37-.45.37-.06.38-.13.37.07.38-.21.37-.14.37-.31.38.1.37-.06.38.13.37.46.37-.08.38-.71.37-.52.38.11.37.17.37-.18.38-.27.37.36.37-.04.38-.67.37.2.38-.84.37 1.03.37-30.96.38 29.4.37.52.38-.36.37.45.37-.28.38.38.37-1.08.38.45.37-30.62.37 29.51.38.7.37-.6.38.61.37-.2.37-.8.38.26.37-.02.37.48.38-.11.37-.66.38.31.37-.18.37-.01.38-.42.37.23.38-.29.37.14.37.78.38-.98.37-31.6.38 31.61.37-.14.37-.22.38.57.37-.05.37-.39.38-.4.37.51.38-30.7.37 29.92.37-.08.38-.35.37.08.38-.06.37-.05.37-.17.38-.13.37.42.38-.47.37-.71.37.26.38-.08.37.22.38-.03.37.32.37.11.38-.93.37.07.37-.34.38.41.37-.17.38-.03.37-.17.37.26.38-.89.37.13.38-.08.37-30.17.37 29 .38.23.37.51.38-1.67.37 1.25.37.32.38-.06.37-.18.37-30.32.38 28.25.37 1.86.38.55.37-.58.37-.11.38.1.37.18.38.13.37.17.37-.51.38-.43.37.18.38-.07.37.27.37.06.38.02.37.2.38-.73.37.31.37-.15.38-32.14.37 30.82.37.35.38.32.37.12.38-.28.37.12.37.32.38-.16.37-32.55.38 31.37.37.33.37-.82.38.29.37.21.38-.03.37-.23.37.02.38.76.37-.09.37.32.38-.4.37-.16.38-.09.37.12.37.26.38-.3.37.11.38.32.37-.75.37.29.38-.23.37.07.38-.6.37.61.37-.02.38.14.37-.44.38-31.21.37 27.79.37 1.11.38-.16.37.56.37.26.38.43.37-.02.38.17.37-30.6.37 26.84.38.67.37 1.26.38.36.37.01.37.07.38.46.37-.59.38.67.37.5.37-.19.38-.09.37-.49.37.5.38.12.37.25.38-.62.37.03.37-.13.38-.44.37.4.38.37.37-.55.37.43.38-.73.37.18.38-.2.37-.15.37-.11.38-33.81.37 31.22.38-.32.37.67.37-.53.38.43.37-.02.37.38.38.06.37-33.69.38 30.43.37.67.37-.38.38.1.37.23.38.68.37.13.37-.22.38-.57.37.76.38.32.37-.19.37.43.38.5.37-.17.37-.67.38.98.37-.94.38-.01.37-31.35.37 26.54.38 1.35.37.67.38.86.37.52.37-.33.38-1.26.37 1.21.38-31.42.37 26.99.37 2.04.38.25.37.27.38.49.37-.18.37 1.03.38-.1.37-.08.37.49.38-.57.37.59.38-.78.37 1.1.37-.26.38.12.37.07.38.13.37-.91.37-.48.38-1.4.37.51.38-1.37.37 1.62.37-.21.38.35.37-.76.37.93.38-.89.37-33.79.38 30.04.37.97.37 1.6.38-.54.37.18.38.22.37-.09.37.09.38-34.81.37 31.75.38.47.37-.39.37 1.19.38.41.37-.11.38-.07.37.06.37-.33.38.47.37-.5.37.24.38-.06.37-.38.38-.23.37.74.37-.43.38.22.37.91.38-.45.37-35.67.37 31.94.38.6.37.87.38-.5.37.15.37.12.38.31.37.24.37-36.11.38 33.33.37.73.38-.83.37.22.37.83.38-.02.37.42.38-.15.37-.84.37-.03.38.34.37-.26.38.33.37-.16.37.28.38.02.37.14.37.27.38-.57.37-.38.38-.05.37-.68.37 1.23.38-1.21.37.99.38-.08.37.29.37-.73.38-32.9.37 30.19.38-.16.37.82.37-.51.38.35.37.16.38-.15.37-.31.37-32.2.38 27.84.37 1.54.37-.2.38 1.03.37-.15.38.05.37.64.37-1.34.38.38.37.06.38-.44.37-1.14.37-.87.38-.31.37.16.38.68.37-.22.37.32.38.32.37-.36.37.96.38-.66.37-.44.38-1.07.37 1.09.37-.61.38.24.37.32.38.26.37-34.18.37 30.96.38 1.23.37-1.2.38.86.37.49.37 1.25.38-1.53.37.6.38-35.1.37 31.94.37.72.38-.49.37.16.37-.36.38-.69.37-.15.38-.32.37 1.05.37-.72.38.08.37.64.38-1.64.37 1.89.37-.43.38.09.37.2.38.1.37-2.02.37-30.37.38 30.07.37-.57.37 1.88.38.04.37-.98.38-.35.37.13.37.93.38-32.06.37 28.52.38.79.37.93.37-.39.38.27.37.71.38-.49.37.26.37-.46.38-.01.37-.35.38.29.37-.39.37.35.38.14.37-1.56.37 1.42.38.39.37.2.38-1.01.37.19.37.11.38 1 .37-.2.38-.07.37-1.4.37.83.38-1.63.37 1.57.38-34.59.37 32.49.37.52.38-.19.37.12.37.37.38-.94.37-.03.38 1.22.37-33.52.37 29.45.38 2.73.37-.06.38-.39.37-.01.37.41.38.03.37-.39.38.64.37-.3.37-.32.38-.37.37.48.38-.55.37-.42.37.83.38-.59.37.26.37-.67.38-31.28.37 29.21.38 1.03.37-.41.37.46.38.96.37-.78.38-.17.37.56.37-32.41.38 29.53.37 1.93.38-.6.37.48.37.11.38-.64.37.15.37.53.38-.18.37.36.38-.55.37-.79.37.69.38-.83.37.13.38-1.24.37.56.37-.42.38-.29.37.34.38-.3.37.1.37.43.38-.75.37-.08.38.63.37-.27.37-1.48.38.65.37-33.55.37 32.61.38-1.93.37 1.34.38-.17.37.18.37 1.35.38-1.3.37-.18.38-31.89.37 30.48.37-1.1.38 1.8.37-.97.38.96.37.58.37-2.3.38-.02.37.75.37-1.16.38 1.77.37-.1.38-.58.37.51.37.56.38-.21.37-1.02.38.28.37.31.37-.19.38-.32.37 1.2.38-.66.37-.1.37.28.38-.01h.37l.38-.56.37-30.02.37 26.25.38 1.73.37.39.37-.48.38-1.15.37 2.84.38-.61.37 1.33.37-32.46.38 28.16.37.32.38 1.42.37-.2.37 1.78.38-.98.37-.49.38.89.37-.86.37.29.38.94.37-.09.37.09.38 1.19.37-1.21.38.42.37.77.37-1.14.38-.64.37.15.38-32.37.37 31.12.37.03.38.19.37.48.38-.58.37.14.37.5.38.32.37-32.69.38 30.84.37.03.37 1.16.38-2.3.37 1.96.37-.6.38.25.37.7.38.93.37-2.31.37.55.38.51.37-.24.38 1.08.37.04.37.08.38-.29.37.59.38-.34.37.99.37-.9.38.79.37-.39.37-.32.38-.68.37.52.38-.66.37-.41.37.99.38-34.26.37 33.46.38.08.37.24.37-.78.38-.24.37 1.49.38-1.16.37.19.37-33.45.38 31.49.37.3.38.7.37-.87.37.75.38.41.37-.23.37 1.41.38-1.28.37.69.38-.48.37.78.37-.42.38.87.37-.6.38.45.37-.2.37.18.38-.36.37-33.37.38 29.52.37 1.07.37-.23.38.07.37-.12.37-.01.38.43.37.95.38-33.58.37 30.83.37-.15.38.65.37.28.38.6.37-.1.37.15.38.55.37-.48.38 1.77.37-1.06.37-.06.38.02.37-1.23.38.81.37.48.37.63.38-.65.37.57.37.59.38-1.33.37 1.81.38-1.92.37 1.72.37-.98.38-1.02.37 2.24.38-.51.37.13.37-35.68.38 32.42.37.72.38 1.83.37-.81.37.17.38-.5.37-.31.37.75.38-33.64.37 31.34.38 1.23.37-.5.37 1.56.38-.96.37 1.37.38-.53.37-1.27.37 1.37.38-.23.37-.26.38-.64.37.89.37-.1.38.4.37-1.17.38-.12.37-.36.37 1.47.38-.56.37 1 .37-.94.38-.76.37.82.38 1.11.37-.59.37 1.08.38-.97.37-32.8.38 29.02.37 2.16.37-1.47.38.12.37 1.24.38.22.37-.08.37.22.38-33.18.37 30.75.37.22.38.36.37-.34.38.02.37.83.37-.29.38.82.37-.72.38-.31.37-.59"/><use xlink:href="#e" color="#F44336" transform="matrix(3.75 0 0 3.75 113.62 137.17)"/><use xlink:href="#e" color="#F44336" transform="matrix(3.75 0 0 3.75 220.55 7.51)"/></g><text fill="#000" stroke="none" stroke-linecap="round" stroke-linejoin="round" color="#000" font-family="KaTeX_Main" font-size="8" transform="translate(241.1 25.11)"><tspan>RedBlackTopDown</tspan></text><g fill="none" stroke="currentColor" stroke-linecap="round" stroke-linejoin="round" color="#000"><path stroke="#3B75EA" stroke-dasharray="1.0,2.0" d="M205.6 22.51h29.9M28 183.46l.37.47.38-2.6.37 1.96.38-.84.37.88h.37l.38-.16.37-30.46.38 27.86.37.01.37-.34.38.99.37-.41.37-.51.38-.19.37.09.38-30.56.37 27.14.37 1.14.38.38.37 1.02.38-.29.37-2.52.37.49.38-3.32.37 2.28.38-1.12.37 1.22.37-.47.38.19.37-.62.37-.76.38-1.09.37 1.56.38-.11.37.24.37-.82.38-28.48.37 28.23.38-1.37.37 1.27.37.6.38-1.53.37.56.38.44.37-1.76.37-27.89.38 28.36.37-.3.38.07.37-.56.37.29.38.02.37-.7.37.02.38-.41.37.93.38-.41.37 1.17.37-1.67.38.7.37 1.23.38-.17.37-.51.37-.06.38-1.37.37.7.38-.3.37 1.17.37-1.37.38 1.74.37-.5.37-.3.38-.09.37.54.38-27.41.37 25.02.37 1.09.38 1.51.37-.72.38-.76.37 2.92.37-.76.38-2.19.37-27.1.38 26.83.37-.52.37 1.3.38-1.22.37-.44.38.93.37-1.17.37.15.38-2.12.37.04.37 2.23.38-2.86.37 1.8.38-1.2.37 2.5.37-2.3.38 1.81.37-2.36.38.5.37.48.37-27.52.38 24.84.37 1.51.38.37.37-.52.37-1.26.38 1.45.37-2.22.37.86.38-30.04.37 30.88.38-1.08.37-2.43.37 1.74.38-1.12.37 2.2.38-1.33.37-1.18.37.94.38.8.37 1.01.38-2.91.37 1.51.37-.81.38.85.37-.23.38-.79.37-1.33.37.25.38.29.37-.67.37-.09.38.65.37.62.38-2.46.37.41.37.42.38-.01.37-2.21.38-24.46.37 25.72.37.21.38.13.37-.41.38.18.37-1.63.37.1.38 1.86.37-29.84.37 29.18.38-1.57.37.68.38-1.01.37.68.37.44.38-.58.37 1.48.38-2.06.37-.86.37.32.38 1.14.37-1.18.38 1.11.37-1.97.37.94.38.19.37.76.38-1.21.37.01.37.19.38.53.37.18.37-.53.38.26.37.08.38-.35.37-.52.37-27.9.38 27.14.37-.18.38.99.37-.88.37.84.38.8.37-.54.38-.39.37-27.33.37 27.02.38 1.02.37-1.66.37.72.38 1.16.37-.72.38.06.37.12.37-1.03.38.65.37-1.69.38 1.74.37-1.14.37.58.38.33.37-.77.38-.05.37 1.23.37-.54.38-.61.37-28.61.38 29.36.37-.67.37-.2.38.55.37 1.44.37.51.38-1.33.37.95.38-29.7.37 28.11.37.2.38 2.4.37-1.97.38.4.37-1.13.37 2.09.38-1.01.37-2.56.38 4.16.37-1.89.37-.72.38 2.7.37-3.38.37 2.03.38.15.37.27.38-1.29.37.52.37-1.55.38.24.37 2.13.38-1.92.37-.6.37 2 .38-1.69.37 1.35.38-.19.37-28.35.37 25.76.38 2.05.37-1.11.38.27.37.38.37 1 .38-2.28.37 1.55.37-29.91.38 28.11.37.73.38.01.37 2.08.37-1.07h.38l.37.18.38.22.37.77.37-.57.38-1.02.37.49.38-1.15.37 1 .37-.34.38.24.37 1.4.37.11.38-1.5.37-1.14.38-30.23.37 29.81.37 1.08.38-1.18.37 1.2.38-3.35.37 1.82.37-1.4.38.33.37-27.07.38 26.85.37.76.37 1.95.38-1.56.37.95.38-.5.37 1.34.37-1.74.38 1.64.37-.46.37-.26.38-1.5.37 1.64.38-.76.37 1.2.37-.71.38-.4.37-1.09.38 1.13.37-.34.37.44.38-.66.37-.57.38-1.39.37.99.37.31.38-.5.37-.53.37-28.96.38 27.41.37 1.15.38-.65.37 3 .37-1.9.38-1.72.37 1.33.38.88.37-30.64.37 28.19.38.08.37-.38.38.8.37-.71.37-1.66.38 2.31.37-.44.38 1.69.37-2.6.37 1.53.38.7.37-1.9.37-.47.38 1.5.37 1.04.38-2.02.37 2.32.37-1.25.38-.82.37.98.38-.93.37-.37.37-.51.38 1.59.37.15.38.26.37-.72.37 1.13.38-32.08.37 28.24.37 1.51.38-.1.37-1.02.38 1.6.37-.46.37.99.38-1.86.37-30.4.38 27.72.37 1.78.37.63.38-1.49.37 1.75.38-1.54.37 1.53.37-1.02.38.2.37 2.52.38-2.24.37.64.37 1.83.38-1.9.37.26.37-1.92.38 1.72.37.58.38.39.37-32.05.37 26.62.38 2.97.37-1.87.38.22.37-.57.37-.16.38.45.37 2.84.38-31.75.37 25.81.37 2.39.38-.68.37 3.36.37-3.82.38.52.37.52.38 1.37.37-.13.37 1.42.38-3.06.37 4.28.38-1.67.37-1.48.37.04.38.81.37-.63.38.02.37.51.37-.67.38-.46.37 1.13.38-1.3.37.08.37 1.5.38-1.39.37 2.34.37-1.34.38-1.58.37-30.49.38 29.83.37.17.37-1.33.38.84.37.82.38.48.37-1.76.37 1.23.38-32.74.37 29.23.38 1.1.37.5.37.84.38-2.2.37.19.37 1.4.38-1.02.37-.02.38 1.71.37.29.37-1.75.38.81.37.36.38-.94.37.89.37-.69.38 1.25.37-.36.38-29.17.37 21.14.37 6.86.38-1.96.37.69.38.63.37-2.54.37 3.01.38.46.37-2.28.37-33.06.38 31.08.37-.78.38.64.37.16.37.73.38-.19.37.31.38-1.06.37-.06.37 1.31.38-.46.37 1.2.38-2.71.37 2.3.37.22.38-2.82.37 1.17.37.94.38.83.37-2.12.38.49.37-.8.37 1.64.38-1.3.37 1.77.38 1.36.37-2.7.37.05.38-33.49.37 31.81.38-.39.37-.27.37.1.38-.93.37.94.37.23.38.38.37-31.23.38 27.48.37.13.37-1.23.38.92.37 1.84.38-.6.37-.51.37.12.38.52.37.05.38.18.37-1.19.37.48.38-.24.37.41.38.71.37-1.51.37 1.2.38.47.37-1.89.37.48.38-.57.37.37.38-.81.37 2.64.37-.96.38-1.06.37-.19.38.24.37-33.28.37 31.98.38-1.92.37.12.38.89.37.21.37-1.05.38 1.25.37-.23.37-33.52.38 30.6.37-.48.38 1.64.37 1.7.37-3.67.38 1.68.37-.76.38-.46.37-.09.37 1.24.38.46.37-.08.38.89.37-.24.37-.87.38-1.59.37 3.18.38-2.27.37.45.37-31.25.38 27.82.37 3.01.37-1.1.38.07.37.82.38-2.33.37-1.23.37.23.38-31.34.37 29.25.38-.48.37-.21.37.01.38.54.37 1.62.38-1.49.37.21.37-.15.38 1.71.37-.56.37 1.32.38-1.48.37.06.38-.95.37 2.25.37.46.38-.84.37 1.36.38-.62.37-.24.37.54.38-1.45.37 1 .38-.93.37 1 .37-.52.38-.91.37.72.38-33.13.37 30.51.37.2.38 2.07.37-2.19.37-.65.38-.95.37 2.75.38.26.37-34.07.37 30.89.38.48.37 1.29.38-.97.37 1.85.37-2.21.38-.65.37 1.77.38-.74.37.85.37-.08.38-.07.37.28.37.05.38-.93.37-.3.38.39.37.32.37-.21.38-29.04.37 26.01.38 2 .37.84.37-2.44.38.98.37-.26.38-1.34.37 1.13.37-30.54.38 28.74.37.68.38-2.01.37 1.69.37-.18.38 1.3.37.19.37-.13.38.28.37-1.05.38-.4.37 3.18.37-2.74.38 1.13.37-.17.38.65.37-1.01.37-.39.38 1.76.37-1.81.38-.66.37.43.37 2.01.38-1.14.37-.11.37.83.38-1.1.37.63.38-3.52.37-27.62.37 27.82.38 1.56.37-.6.38.3.37-.53.37 2.33.38.8.37-2 .38-29.97.37 28.65.37-.13.38 1.75.37-1.14.38.97.37.29.37-1.67.38-1.34.37 5.18.37-.7.38-.95.37-1.8.38 2.03.37-.59.37-1.94.38-.74.37 1.85.38.24.37 1.11.37-3.34.38 1.83.37-.62.38 1.84.37.27.37-.22.38-.51.37-1.82.37 2.71.38-31.96.37 29.29.38-.3.37-1 .37 2.97.38-.85.37-.97.38-.78.37.78.37-31.18.38 27.46.37 1.65.38.26.37-.95h.37l.38.63.37-.05.38-.64.37 1.63.37.24.38-1.64.37-1.13.37 1.8.38-1.49.37.44.38.41.37-.79.37.91.38.41.37-2.03.38-29.8.37 30.27.37.25.38-.59.37.8.38-1.55.37 1.46.37-1.43.38 1.67.37-30.01.37 29.6.38-.47.37.52.38-.81.37.95.37-1 .38 1.37.37-1.18.38-.26.37.27.37-.1.38.26.37-.64.38-.55.37 1.74.37-.23.38.14.37-.57.38-1.7.37 1.47.37-1.18.38-.01.37-1.14.37 2.03.38-.54.37-.15.38-.18.37-.33.37-25.94.38 24.27.37 1.44.38-.65.37 2.44.37-1.39.38-.86.37-.94.38 1.15.37 3.68.37-33.49.38 27.04.37 2.45.37.18.38 2.01.37-.49.38-.84.37-1.46.37-3.33.38 2.52.37 1.42.38-3.35.37 2.43.37 1.39.38-1.22.37-.29.38.99.37-.98.37-2.81.38 1.42.37-29.24.38 27.82.37.24.37.81.38 1.74.37 1.69.37-2.33.38 1.37.37-.22.38-32.17.37 31.53.37.61.38-.27.37-1.6.38 1.46.37-.09.37-4.04.38 1.41.37 2.49.38-.2.37 1.03.37-.73.38-.66.37 1.22.37-.76.38-.64.37 3.23.38-3.62.37-.38.37-.33.38.41.37-1.87.38 4.39.37.21.37-3.11.38.57.37 1.27.38-.98.37-.81.37-32.68.38 32.09.37-1.82.38 2.13.37-1.01.37-1.63.38.52.37-.95.37 1.36.38-29.22.37 30.31.38-1.82.37 2.43.37-.03.38-.38.37.3.38-1.2.37.07.37 2.09.38-1.04.37 1.2.38-2.19.37.48.37.29.38-2.7.37 4.09.37-1.99.38 1.78.37-1.57.38 2.21.37-.63.37.29.38-2.8.37-.18.38 3.03.37-1.16.37 2.81.38-2.6.37-30.62.38 27.21.37-.68.37 2.67.38.2.37.36.38.65.37.3.37.69.38-31.23.37 29.23.37-2.28.38 2.06.37-2.44.38 1.92.37 1.09.37.5.38.44.37-2.01.38-.48.37.27.37-.6.38.08.37 2.19.38-3.17.37 1.38.37.22.38-2.19.37 2.54.37-1.84.38-29.08.37 32.61.38-.54.37-1.97.37 1.41.38.53.37-1.85.38-.15.37.86"/><use xlink:href="#i" color="#3B75EA" transform="matrix(3.75 0 0 3.75 171.2 147.87)"/><use xlink:href="#i" color="#3B75EA" transform="matrix(3.75 0 0 3.75 220.55 22.51)"/></g><path fill="none" stroke="none" stroke-linecap="round" stroke-linejoin="round" stroke-width="0" d="M28 45.01V205M371.99 45.01H28" color="#000"/></svg>