<svg xmlns="http://www.w3.org/2000/svg" xmlns:xlink="http://www.w3.org/1999/xlink" viewBox="0 0 400 250"><path fill="none" d="M0 0h400v250H0z"/><defs><path id="g" stroke="currentColor" stroke-width=".267" d="M-1 0h2M0-1v2"/><path id="h" stroke="currentColor" stroke-width=".267" d="m-1-1 2 2m0-2-2 2"/><path id="d" stroke="currentColor" stroke-width=".267" d="M-1-1h2v2h-2z"/><path id="b" stroke="currentColor" stroke-width=".267" d="m0-1.33-1.33 2h2.66z"/><path id="f" stroke="currentColor" stroke-width=".267" d="M0 1.33 1.265.411.782-1.067l-1.564-.009-.483 1.487z"/><use xlink:href="#a" id="i" fill="currentColor" stroke="none"/><use xlink:href="#b" id="c" stroke="currentColor" transform="rotate(180)"/><use xlink:href="#d" id="e" stroke="currentColor" transform="rotate(45)"/><circle id="a" cx="0" cy="0" r="1" stroke="currentColor" stroke-width=".267"/></defs><path fill="none" stroke="#000" stroke-linecap="round" stroke-linejoin="round" stroke-width=".1" d="M35.48 205V45.01" class="gridline" color="#000"/><g fill="none" stroke="none" stroke-linecap="round" stroke-linejoin="round" stroke-width="0" color="#000"><path d="M35.48 205v-7.5m0-152.49v7.5"/><text fill="#000" font-family="KaTeX_Main" font-size="10" text-anchor="middle" transform="translate(35.48 215.75)"><tspan> 1</tspan></text></g><path fill="none" stroke="#000" stroke-linecap="round" stroke-linejoin="round" stroke-width=".1" d="M72.87 205V45.01" class="gridline" color="#000"/><g fill="none" stroke="none" stroke-linecap="round" stroke-linejoin="round" stroke-width="0" color="#000"><path d="M72.87 205v-7.5m0-152.49v7.5"/><text fill="#000" font-family="KaTeX_Main" font-size="10" text-anchor="middle" transform="translate(72.87 215.75)"><tspan> 2</tspan></text></g><path fill="none" stroke="#000" stroke-linecap="round" stroke-linejoin="round" stroke-width=".1" d="M110.26 205V45.01" class="gridline" color="#000"/><g fill="none" stroke="none" stroke-linecap="round" stroke-linejoin="round" stroke-width="0" color="#000"><path d="M110.26 205v-7.5m0-152.49v7.5"/><text fill="#000" font-family="KaTeX_Main" font-size="10" text-anchor="middle" transform="translate(110.26 215.75)"><tspan> 3</tspan></text></g><path fill="none" stroke="#000" stroke-linecap="round" stroke-linejoin="round" stroke-width=".1" d="M147.65 205V45.01" class="gridline" color="#000"/><g fill="none" stroke="none" stroke-linecap="round" stroke-linejoin="round" stroke-width="0" color="#000"><path d="M147.65 205v-7.5m0-152.49v7.5"/><text fill="#000" font-family="KaTeX_Main" font-size="10" text-anchor="middle" transform="translate(147.65 215.75)"><tspan> 4</tspan></text></g><path fill="none" stroke="#000" stroke-linecap="round" stroke-linejoin="round" stroke-width=".1" d="M185.04 205V45.01" class="gridline" color="#000"/><g fill="none" stroke="none" stroke-linecap="round" stroke-linejoin="round" stroke-width="0" color="#000"><path d="M185.04 205v-7.5m0-152.49v7.5"/><text fill="#000" font-family="KaTeX_Main" font-size="10" text-anchor="middle" transform="translate(185.04 215.75)"><tspan> 5</tspan></text></g><path fill="none" stroke="#000" stroke-linecap="round" stroke-linejoin="round" stroke-width=".1" d="M222.43 205V45.01" class="gridline" color="#000"/><g fill="none" stroke="none" stroke-linecap="round" stroke-linejoin="round" stroke-width="0" color="#000"><path d="M222.43 205v-7.5m0-152.49v7.5"/><text fill="#000" font-family="KaTeX_Main" font-size="10" text-anchor="middle" transform="translate(222.43 215.75)"><tspan> 6</tspan></text></g><path fill="none" stroke="#000" stroke-linecap="round" stroke-linejoin="round" stroke-width=".1" d="M259.82 205V45.01" class="gridline" color="#000"/><g fill="none" stroke="none" stroke-linecap="round" stroke-linejoin="round" stroke-width="0" color="#000"><path d="M259.82 205v-7.5m0-152.49v7.5"/><text fill="#000" font-family="KaTeX_Main" font-size="10" text-anchor="middle" transform="translate(259.82 215.75)"><tspan> 7</tspan></text></g><path fill="none" stroke="#000" stroke-linecap="round" stroke-linejoin="round" stroke-width=".1" d="M297.21 205V45.01" class="gridline" color="#000"/><g fill="none" stroke="none" stroke-linecap="round" stroke-linejoin="round" stroke-width="0" color="#000"><path d="M297.21 205v-7.5m0-152.49v7.5"/><text fill="#000" font-family="KaTeX_Main" font-size="10" text-anchor="middle" transform="translate(297.21 215.75)"><tspan> 8</tspan></text></g><path fill="none" stroke="#000" stroke-linecap="round" stroke-linejoin="round" stroke-width=".1" d="M334.6 205V45.01" class="gridline" color="#000"/><g fill="none" stroke="none" stroke-linecap="round" stroke-linejoin="round" stroke-width="0" color="#000"><path d="M334.6 205v-7.5m0-152.49v7.5"/><text fill="#000" font-family="KaTeX_Main" font-size="10" text-anchor="middle" transform="translate(334.6 215.75)"><tspan> 9</tspan></text></g><path fill="none" stroke="#000" stroke-linecap="round" stroke-linejoin="round" stroke-width=".1" d="M371.99 205V45.01" class="gridline" color="#000"/><g fill="none" stroke="none" stroke-linecap="round" stroke-linejoin="round" stroke-width="0" color="#000"><path d="M371.99 205v-7.5m0-152.49v7.5"/><text fill="#000" font-family="KaTeX_Main" font-size="10" text-anchor="middle" transform="translate(371.99 215.75)"><tspan> 10</tspan></text></g><g fill="none" stroke="none" stroke-linecap="round" stroke-linejoin="round" stroke-width="0" color="#000"><path d="M371.99 205h-7.5"/><text fill="#000" font-family="KaTeX_Main" font-size="10" transform="translate(378.99 208.25)"><tspan>1.11</tspan></text></g><g fill="none" stroke="none" stroke-linecap="round" stroke-linejoin="round" stroke-width="0" color="#000"><path d="M371.99 185h-7.5"/><text fill="#000" font-family="KaTeX_Main" font-size="10" transform="translate(378.99 188.25)"><tspan>1.11</tspan></text></g><g fill="none" stroke="none" stroke-linecap="round" stroke-linejoin="round" stroke-width="0" color="#000"><path d="M371.99 165h-7.5"/><text fill="#000" font-family="KaTeX_Main" font-size="10" transform="translate(378.99 168.25)"><tspan>1.12</tspan></text></g><g fill="none" stroke="none" stroke-linecap="round" stroke-linejoin="round" stroke-width="0" color="#000"><path d="M371.99 145h-7.5"/><text fill="#000" font-family="KaTeX_Main" font-size="10" transform="translate(378.99 148.25)"><tspan>1.12</tspan></text></g><g fill="none" stroke="none" stroke-linecap="round" stroke-linejoin="round" stroke-width="0" color="#000"><path d="M371.99 125.01h-7.5"/><text fill="#000" font-family="KaTeX_Main" font-size="10" transform="translate(378.99 128.26)"><tspan>1.13</tspan></text></g><g fill="none" stroke="none" stroke-linecap="round" stroke-linejoin="round" stroke-width="0" color="#000"><path d="M371.99 105.01h-7.5"/><text fill="#000" font-family="KaTeX_Main" font-size="10" transform="translate(378.99 108.26)"><tspan>1.13</tspan></text></g><g fill="none" stroke="none" stroke-linecap="round" stroke-linejoin="round" stroke-width="0" color="#000"><path d="M371.99 85.01h-7.5"/><text fill="#000" font-family="KaTeX_Main" font-size="10" transform="translate(378.99 88.26)"><tspan>1.14</tspan></text></g><g fill="none" stroke="none" stroke-linecap="round" stroke-linejoin="round" stroke-width="0" color="#000"><path d="M371.99 65.01h-7.5"/><text fill="#000" font-family="KaTeX_Main" font-size="10" transform="translate(378.99 68.26)"><tspan>1.14</tspan></text></g><g fill="none" stroke="none" stroke-linecap="round" stroke-linejoin="round" stroke-width="0" color="#000"><path d="M371.99 45.01h-7.5"/><text fill="#000" font-family="KaTeX_Main" font-size="10" transform="translate(378.99 48.26)"><tspan>1.15</tspan></text></g><path fill="none" stroke="none" stroke-linecap="round" stroke-linejoin="round" stroke-width="0" d="M28 45.01V205M371.99 45.01H28" color="#000"/><text fill="#000" stroke="none" stroke-linecap="round" stroke-linejoin="round" stroke-width="0" color="#000" font-family="KaTeX_Main" font-size="10" text-anchor="middle" transform="rotate(-90 68.255 56.755)"><tspan font-weight="bold">Allocations </tspan><tspan> / log</tspan><tspan dy="3" font-size="8">2</tspan><tspan dy="-3">(Size)</tspan></text><text fill="#000" stroke="none" stroke-linecap="round" stroke-linejoin="round" stroke-width="0" color="#000" font-family="KaTeX_Main" font-size="10" text-anchor="middle" transform="translate(199.99 238.25)"><tspan>Operations × 10</tspan><tspan dy="-5" font-size="8">5</tspan></text><text fill="#000" stroke="none" stroke-linecap="round" stroke-linejoin="round" color="#000" font-family="KaTeX_Main" font-size="8" transform="translate(99.2 10.11)"><tspan>AVLBottomUp</tspan></text><g fill="none" stroke="currentColor" stroke-linecap="round" stroke-linejoin="round" color="#000"><path stroke="#000" d="M63.7 7.51h29.9M28 96.05l.37-4.32.38 1.76.37-12 .38 19 .37-7.24.37 10.04.38-5.36.37-8.12.38 12.56.37 3.24.37-10.92.38 2.16.37 7.2.37-11.72.38 3.96.37 6.8.38-1.44.37-6.56.37 19.68.38-9.04.37-14.36.38 10.36.37-7.92.37 3.56.38 9.28.37-8.28.38-11.64.37 21.64.37-9.08.38 14.56.37-12.92.37 5.16.38-6.32.37 5.36.38-3.96.37 2.64.37 1.44.38 1.4.37-9.76.38 4.92.37-.8.37 2 .38 2.44.37 12.36.38-6.36.37.24.37-6.12.38 6.8.37-3.84.38-10.44.37 13.76.37-4.12.38-.4.37-9.56.37 15.52.38 9.4.37-1.4.38-6.84.37-5.88.37 4.36.38.4.37 3.88.38-12.28.37 8.96.37-1.32.38 8.2.37.28.38-15.36.37 9.76.37-7.2.38 3.44.37-3.08.37 5.76.38-12.84.37 8.72.38 7.32.37-3.16.37 7.28.38-12 .37 4.24.38 12.07.37-9.23.37 6.96.38-.48.37-.04.38-12.24.37 4.56.37 1.56.38 3.6.37-7.68.38 16.95.37-15.31.37 7.48.38-6.36.37-5.2.37-3.36.38 18.43.37-5.91.38 7.35.37-5.71.37 2.52.38-5.24.37 6.59.38-17.39.37 11.16.37-.48.38-4.88.37-4.16.38 15.67.37 3.32.37-7.83.38 4.43.37-2.83.37-.36.38-.4.37 9.63.38-5.16.37 1.44.37 7.52.38-10.15.37-.88.38 10.91.37-13.39.37 9.07.38 2.04.37-7.95.38-4.32.37 9.71.37 4.68.38-14.07.37 12.39.38.36.37-.28.37-8.43.38-1.92.37 9.83.37-2.6.38 4.2.37-8.48.38 2.56.37-4.15.37.76.38 7.71.37 9.04.38-3.76.37 1.4.37-9.16.38 5.2.37-9.88.38 8.8.37-3.36.37 11 .38-9.2.37-3.6.37 5.16.38 1.32.37-2.52.38-3.84.37 4.92.37-.28.38 4.64.37.16.38-6.08.37 10.88.37-3.24.38-.28.37-12.6.38 5.48.37-2.56.37 3.68.38 7.24.37-8.8.38 11.24.37 1.44.37-5.28.38-8.36.37 18.52.37-6.16.38-3.72.37-8.16.38-3.04.37 18.92.37-13.72.38 13.8.37-8.2.38.04.37 3.56.37 9.12.38-3.76.37-19.96.38 9.56.37-1.12.37-1.76.38 4.16.37 10.4.37-17.52.38 2 .37 8.56.38-7.76.37 12.36.37-4.92.38.84.37 8.32.38-14.84.37-1.84.37 4.56.38.6.37.36.38 1.68.37 2.56.37-.52.38-15.96.37 6.52.38 4.96.37 2.76.37-3.88.38 7.6.37-1.68.37-1.88.38-11.76.37 23.6.38-14.84.37 2.28.37-4.56.38-.12.37-3.04.38 2.92.37 3.6.37 7.96.38-7.2.37-9.16.38 9.28.37-10.92.37 16.04.38-9.84.37-.2.37 6.4.38 8.56.37-11.6.38-.2.37 3.08.37-8.28.38 10.48.37-5 .38 3.72.37 1.96.37 2.4.38-12.68.37 9.16.38-2.64.37 5.2.37.44.38.84.37-17.04.38 15.88.37-10.04.37-.72.38-1.12.37-3.72.37 14.52.38-3.08.37 6.04.38-10.28.37 12.52.37-11.56.38 15.8.37-17.24.38 10.12.37-4.84.37.16.38 7.52.37-1.4.38 1.44.37-5.08.37.12.38 6.2.37-.76.37-4.88.38 2.52.37-12.24.38 3.76.37 3.16.37-4.88.38 13.52.37-5.52.38 5.08.37 4.6.37-2.04.38-1.44.37-17.24.38 25.6.37-15.24.37-.6.38-3.36.37 3.32.38.92.37 3.32.37-7.28.38 16.24.37-8.16.37 7.6.38.72.37-14.4.38 9.32.37-.16.37-6.2.38 11.24.37-9.24.38-4.28.37 1.56.37 15.52.38-12.24.37-8.56.38 5.6.37 12.52.37-8.36.38 6.04.37-11.4.37-6.88.38 10.8.37-1.08.38 1.52.37-1.72.37-1.52.38 3.68.37 4.48.38-3.84.37-.88.37-.84.38-5.6.37 2.36.38-1.32.37 10.72.37 6.4.38-10.32.37 9.44.38-2.6.37-8.2.37-.64.38.8.37 11.76.37-1.96.38-9.24.37 4.24.38-5.8.37 9.8.37-3.28.38-3.68.37-3.24.38 10.64.37-4.96.37 5.92.38-13.72.37-9.04.38 11.48.37-8.6.37 11.04.38-2.84.37 1.44.37 7.6.38-4.52.37 3.32.38-9.04.37 9.52.37-4.76.38-7.76.37 6.56.38 10.12.37-9.64.37 6.28.38 1 .37-8.2.38 13.96.37-13.08.37 2.68.38-1.36.37 1.6.38 2.44.37 2.04.37 3.52.38-7.36.37 1.4.37 6.08.38-7.76.37 5.84.38 12.4.37-23.28.37 11.16.38-5.64.37-4.56.38 2.84.37-2.44.37.72.38 2.2.37 9.64.38-7.76.37 6 .37-10.28.38 5.8.37-13.92.37 19.8.38-9.04.37 1.96.38 4.56.37-9.48.37 3.48.38.48.37 8.96.38-2.28.37-10.08.37 10.2.38-4.36.37-.8.38 5.36.37-12.2.37 7.64.38-6.48.37 8.72.38-1.2.37-7.8.37 5.56.38-9.24.37 6.6.37-9.24.38 4.04.37 13.76.38-4.4.37 3.44.37-10.12.38 1.76.37 4.88.38-1.68.37 1.52.37-4.4.38 2.36.37 1.72.38.64.37-1.84.37-5.88.38 12.44.37-10.48.37 3.8.38 3.4.37-7.8.38 5.52.37-6.32.37 5.08.38 3.16.37-1.04.38 1.92.37-8 .37 18.32.38-11.16.37 7.6.38 5.04.37-9.44.37-6.72.38 10.08.37-3.16.38 4.84.37-18.08.37 5.48.38-10.52.37 15.52.37-3.12.38 14.04.37-11.36.38 4.6.37-5.24.37-11.32.38 9.84.37 5.84.38-4.4.37 8.56.37-8.6.38-6.32.37 2.72.38 13.6.37.2.37-15.96.38 4.16.37.4.37 2.92.38 5.6.37-2.76.38-2.52.37-9.88.37 5.2.38-4.64.37 15.24.38-7.56.37 6.44.37-16.12.38 20.04.37-4.44.38-5.04.37 3.92.37 4.76.38.8.37-2.16.37-10.48.38 3.72.37-3.6.38-.68.37 3.32.37-1.32.38-8.2.37 16.64.38-3.6.37-7.96.37 23.32.38-9.04.37-18.64.38 17.48.37-3.8.37-6.76.38 5.8.37.12.38 8.52.37-14.68.37-3.8.38 11.8.37-7.96.37-1.52.38 8.88.37-6.52.38 6.16.37 8.04.37-3.6.38-6.72.37 3.44.38-8.8.37 10.72.37 3.88.38-13.36.37-4.68.38 20.12.37-7.16.37 2 .38-.92.37-1.96.37-13.36.38 9.44.37.56.38-5.08.37-1.96.37 14.68.38 4.28.37-13.8.38-6.52.37 5.28.37 4.48.38-9.2.37 4.04.38 11.52.37-10.48.37 1.16.38 3.04.37-6.12.38 10.28.37-7.16.37-13.16.38 15.44.37.92.37 16.72.38-29.12.37 10.04.38 6.92.37-17.08.37 3.4.38 12.32.37-2.56.38-6.76.37 7.76.37 2.6.38-13.8.37 14.2.38 2.16.37-4.48.37-2.8.38 6.92.37-10.24.37 9 .38-6.32.37-6.12.38-1.36.37 7.92.37 4.64.38-2.4.37.72.38.48.37.92.37-12.08.38 3.16.37 4.2.38 2.16.37-2.2.37 8.16.38-11.28.37 6.04.38 6.28.37-11.28.37 2.16.38 8.32.37-9.84.37 4.6.38-6.32.37 5.88.38 14.28.37-8.4.37-11.04.38 2.52.37 5.24.38-3.64.37 7.48.37 2.56.38-10.88.37 3.56.38 3.8.37 3.96.37-10.44.38 13.88.37-2.24.37-5.48.38-8.16.37 19.6.38-9.84.37-.56.37-4.04.38-3.84.37-5.92.38 8.68.37 11.16.37-4.24.38-12.52.37 7.68.38-6.96.37 1.72.37 5.4.38 3.96.37-3.68.38 9.92.37-1.16.37-6.96.38 6.64.37-12.08.37 2.52.38-2.84.37.24.38-2.84.37.48.37 11.32.38-4.48.37-9.6.38 16.44.37-4.44.37-4.92.38-1.4.37 4.16.38 6.2.37-4.08.37-3.64.38-13.08.37 16.44.37-3.48.38 8.44.37-14.52.38 3.72.37-1 .37 7.24.38 6.56.37-6.12.38 3.52.37-18.8.37 14.36.38-1.2.37-5.08.38 3.08.37 1.88.37-7.16.38 7 .37 5.76.38-7.76.37 4.12.37-1.64.38 1.48.37 6.16.37-13.08.38 4.32.37 7.36.38-4.68.37-9.36.37 2.24.38-3.84.37 4.72.38 7.56.37-2.44.37 7.4.38-2.88.37-9.56.38 9.4.37-3.48.37 6.16.38-16.12.37 3.28.37-8.16.38 15.52.37-1.6.38 6.32.37-4.08.37.24.38-8.4.37 10.04.38-5.92.37.2.37-6.52.38 13.68.37-7.76.38 4.28.37-4.28.37-.8.38 12.04.37-10 .38-1.4.37 1 .37 6.72.38-9.56.37 14.88.37-15.08.38 8.36.37-8.36.38 5.48.37 7.96.37-10 .38-3.48.37 10.2.38-3.48.37-6.72.37-.8.38 4.24.37-1.64.38 1.04.37 2.64.37 4.44.38-8.12.37-3.08.37 7.72.38 6.08.37-7.32.38 1.84.37 2.2.37 4.48.38-11.6.37 20.12.38-15.48.37-.64.37.4.38.2.37.6.38 6.28.37-2.28.37-13.84.38.4.37 12 .38 7.28.37-15.68.37.4.38 9.92.37-22.76.37 12.16.38-1.84.37 10.12.38.6.37-8.16.37-3.44.38 7.08.37 16.8.38-14.04.37-3.44.37-.04.38-.04.37-2.24.38-.64.37 10.92.37 3.44.38-6.32.37.76.37-1.04.38-11.56.37-7.12.38 19 .37-3.68.37 4.44.38-12 .37 19.04.38-2.48.37-3.88.37.16.38 7.68.37-22.92.38 19.6.37-10.76.37-8.56.38 16.6.37-9.16.38 2.2.37.96.37 4 .38-12.56.37 15.52.37-12.76.38 19.96.37-10.96.38 3.6.37-11.76.37 1.56.38-.24.37 2.6.38-.04.37 11.08.37-10.96.38-.24.37-.24.38 5.2.37 6.44.37-17.64.38 12.08.37 1.36.37 3 .38-11.56.37 6.8.38-2.24.37 4.8.37-4.52.38 4.6.37.56.38-12.96.37 9.04.37 3.16.38-5.68.37-1.08.38-11.56.37 14.88.37-8.72.38 9.24.37 3.16.38 1.8.37 3.16.37-1.48.38-15.16.37 3.56.37 10.64.38-13.36.37 15.88.38-4.72.37-4.28.37 8.8.38-7.68.37-6.52.38 6.2.37-13.8.37 10.04.38 8.2.37-21 .38 7.6.37 14.84.37-18 .38 6.2.37.52.37 19.48.38-17.96.37 17.04.38-7.12.37-12.52.37-1.28.38 3.16.37-.08.38 6.2.37 3.56.37-7.92.38 2.32.37-7.88.38 7.16.37 7 .37-5.32.38-8.92.37-.68.38 15.84.37-3.08.37-1.68.38-6.52.37 4.76.37-3.68.38 1.96.37-8.12.38.52.37 15.8.37-13.32.38 10.16.37-6.28.38-.08.37 8.76.37-1.88.38-.28.37 2.96.38-7.72.37 2.16.37 3.92.38-12.12.37-4.28.37 8.16.38-1.28.37-.48.38 3.12.37-11.32.37 9.36.38-10.52.37 13 .38-.28.37-7.92"/><use xlink:href="#g" transform="matrix(3.75 0 0 3.75 342.45 174.96)"/><use xlink:href="#g" transform="matrix(3.75 0 0 3.75 78.65 7.51)"/></g><text fill="#000" stroke="none" stroke-linecap="round" stroke-linejoin="round" color="#000" font-family="KaTeX_Main" font-size="8" transform="translate(99.2 25.11)"><tspan>AVLTopDown</tspan></text><g fill="none" stroke="currentColor" stroke-linecap="round" stroke-linejoin="round" color="#000"><path stroke="#29C3F6" stroke-dasharray="1.0,2.0" d="M63.7 22.51h29.9M28 96.05l.37-4.32.38 1.76.37-12 .38 19 .37-7.24.37 10.04.38-5.36.37-8.12.38 12.56.37 3.24.37-10.92.38 2.16.37 7.2.37-11.72.38 3.96.37 6.8.38-1.44.37-6.56.37 19.68.38-9.04.37-14.36.38 10.36.37-7.92.37 3.56.38 9.28.37-8.28.38-11.64.37 21.64.37-9.08.38 14.56.37-12.92.37 5.16.38-6.32.37 5.36.38-3.96.37 2.64.37 1.44.38 1.4.37-9.76.38 4.92.37-.8.37 2 .38 2.44.37 12.36.38-6.36.37.24.37-6.12.38 6.8.37-3.84.38-10.44.37 13.76.37-4.12.38-.4.37-9.56.37 15.52.38 9.4.37-1.4.38-6.84.37-5.88.37 4.36.38.4.37 3.88.38-12.28.37 8.96.37-1.32.38 8.2.37.28.38-15.36.37 9.76.37-7.2.38 3.44.37-3.08.37 5.76.38-12.84.37 8.72.38 7.32.37-3.16.37 7.28.38-12 .37 4.24.38 12.07.37-9.23.37 6.96.38-.48.37-.04.38-12.24.37 4.56.37 1.56.38 3.6.37-7.68.38 16.95.37-15.31.37 7.48.38-6.36.37-5.2.37-3.36.38 18.43.37-5.91.38 7.35.37-5.71.37 2.52.38-5.24.37 6.59.38-17.39.37 11.16.37-.48.38-4.88.37-4.16.38 15.67.37 3.32.37-7.83.38 4.43.37-2.83.37-.36.38-.4.37 9.63.38-5.16.37 1.44.37 7.52.38-10.15.37-.88.38 10.91.37-13.39.37 9.07.38 2.04.37-7.95.38-4.32.37 9.71.37 4.68.38-14.07.37 12.39.38.36.37-.28.37-8.43.38-1.92.37 9.83.37-2.6.38 4.2.37-8.48.38 2.56.37-4.15.37.76.38 7.71.37 9.04.38-3.76.37 1.4.37-9.16.38 5.2.37-9.88.38 8.8.37-3.36.37 11 .38-9.2.37-3.6.37 5.16.38 1.32.37-2.52.38-3.84.37 4.92.37-.28.38 4.64.37.16.38-6.08.37 10.88.37-3.24.38-.28.37-12.6.38 5.48.37-2.56.37 3.68.38 7.24.37-8.8.38 11.24.37 1.44.37-5.28.38-8.36.37 18.52.37-6.16.38-3.72.37-8.16.38-3.04.37 18.92.37-13.72.38 13.8.37-8.2.38.04.37 3.56.37 9.12.38-3.76.37-19.96.38 9.56.37-1.12.37-1.76.38 4.16.37 10.4.37-17.52.38 2 .37 8.56.38-7.76.37 12.36.37-4.92.38.84.37 8.32.38-14.84.37-1.84.37 4.56.38.6.37.36.38 1.68.37 2.56.37-.52.38-15.96.37 6.52.38 4.96.37 2.76.37-3.88.38 7.6.37-1.68.37-1.88.38-11.76.37 23.6.38-14.84.37 2.28.37-4.56.38-.12.37-3.04.38 2.92.37 3.6.37 7.96.38-7.2.37-9.16.38 9.28.37-10.92.37 16.04.38-9.84.37-.2.37 6.4.38 8.56.37-11.6.38-.2.37 3.08.37-8.28.38 10.48.37-5 .38 3.72.37 1.96.37 2.4.38-12.68.37 9.16.38-2.64.37 5.2.37.44.38.84.37-17.04.38 15.88.37-10.04.37-.72.38-1.12.37-3.72.37 14.52.38-3.08.37 6.04.38-10.28.37 12.52.37-11.56.38 15.8.37-17.24.38 10.12.37-4.84.37.16.38 7.52.37-1.4.38 1.44.37-5.08.37.12.38 6.2.37-.76.37-4.88.38 2.52.37-12.24.38 3.76.37 3.16.37-4.88.38 13.52.37-5.52.38 5.08.37 4.6.37-2.04.38-1.44.37-17.24.38 25.6.37-15.24.37-.6.38-3.36.37 3.32.38.92.37 3.32.37-7.28.38 16.24.37-8.16.37 7.6.38.72.37-14.4.38 9.32.37-.16.37-6.2.38 11.24.37-9.24.38-4.28.37 1.56.37 15.52.38-12.24.37-8.56.38 5.6.37 12.52.37-8.36.38 6.04.37-11.4.37-6.88.38 10.8.37-1.08.38 1.52.37-1.72.37-1.52.38 3.68.37 4.48.38-3.84.37-.88.37-.84.38-5.6.37 2.36.38-1.32.37 10.72.37 6.4.38-10.32.37 9.44.38-2.6.37-8.2.37-.64.38.8.37 11.76.37-1.96.38-9.24.37 4.24.38-5.8.37 9.8.37-3.28.38-3.68.37-3.24.38 10.64.37-4.96.37 5.92.38-13.72.37-9.04.38 11.48.37-8.6.37 11.04.38-2.84.37 1.44.37 7.6.38-4.52.37 3.32.38-9.04.37 9.52.37-4.76.38-7.76.37 6.56.38 10.12.37-9.64.37 6.28.38 1 .37-8.2.38 13.96.37-13.08.37 2.68.38-1.36.37 1.6.38 2.44.37 2.04.37 3.52.38-7.36.37 1.4.37 6.08.38-7.76.37 5.84.38 12.4.37-23.28.37 11.16.38-5.64.37-4.56.38 2.84.37-2.44.37.72.38 2.2.37 9.64.38-7.76.37 6 .37-10.28.38 5.8.37-13.92.37 19.8.38-9.04.37 1.96.38 4.56.37-9.48.37 3.48.38.48.37 8.96.38-2.28.37-10.08.37 10.2.38-4.36.37-.8.38 5.36.37-12.2.37 7.64.38-6.48.37 8.72.38-1.2.37-7.8.37 5.56.38-9.24.37 6.6.37-9.24.38 4.04.37 13.76.38-4.4.37 3.44.37-10.12.38 1.76.37 4.88.38-1.68.37 1.52.37-4.4.38 2.36.37 1.72.38.64.37-1.84.37-5.88.38 12.44.37-10.48.37 3.8.38 3.4.37-7.8.38 5.52.37-6.32.37 5.08.38 3.16.37-1.04.38 1.92.37-8 .37 18.32.38-11.16.37 7.6.38 5.04.37-9.44.37-6.72.38 10.08.37-3.16.38 4.84.37-18.08.37 5.48.38-10.52.37 15.52.37-3.12.38 14.04.37-11.36.38 4.6.37-5.24.37-11.32.38 9.84.37 5.84.38-4.4.37 8.56.37-8.6.38-6.32.37 2.72.38 13.6.37.2.37-15.96.38 4.16.37.4.37 2.92.38 5.6.37-2.76.38-2.52.37-9.88.37 5.2.38-4.64.37 15.24.38-7.56.37 6.44.37-16.12.38 20.04.37-4.44.38-5.04.37 3.92.37 4.76.38.8.37-2.16.37-10.48.38 3.72.37-3.6.38-.68.37 3.32.37-1.32.38-8.2.37 16.64.38-3.6.37-7.96.37 23.32.38-9.04.37-18.64.38 17.48.37-3.8.37-6.76.38 5.8.37.12.38 8.52.37-14.68.37-3.8.38 11.8.37-7.96.37-1.52.38 8.88.37-6.52.38 6.16.37 8.04.37-3.6.38-6.72.37 3.44.38-8.8.37 10.72.37 3.88.38-13.36.37-4.68.38 20.12.37-7.16.37 2 .38-.92.37-1.96.37-13.36.38 9.44.37.56.38-5.08.37-1.96.37 14.68.38 4.28.37-13.8.38-6.52.37 5.28.37 4.48.38-9.2.37 4.04.38 11.52.37-10.48.37 1.16.38 3.04.37-6.12.38 10.28.37-7.16.37-13.16.38 15.44.37.92.37 16.72.38-29.12.37 10.04.38 6.92.37-17.08.37 3.4.38 12.32.37-2.56.38-6.76.37 7.76.37 2.6.38-13.8.37 14.2.38 2.16.37-4.48.37-2.8.38 6.92.37-10.24.37 9 .38-6.32.37-6.12.38-1.36.37 7.92.37 4.64.38-2.4.37.72.38.48.37.92.37-12.08.38 3.16.37 4.2.38 2.16.37-2.2.37 8.16.38-11.28.37 6.04.38 6.28.37-11.28.37 2.16.38 8.32.37-9.84.37 4.6.38-6.32.37 5.88.38 14.28.37-8.4.37-11.04.38 2.52.37 5.24.38-3.64.37 7.48.37 2.56.38-10.88.37 3.56.38 3.8.37 3.96.37-10.44.38 13.88.37-2.24.37-5.48.38-8.16.37 19.6.38-9.84.37-.56.37-4.04.38-3.84.37-5.92.38 8.68.37 11.16.37-4.24.38-12.52.37 7.68.38-6.96.37 1.72.37 5.4.38 3.96.37-3.68.38 9.92.37-1.16.37-6.96.38 6.64.37-12.08.37 2.52.38-2.84.37.24.38-2.84.37.48.37 11.32.38-4.48.37-9.6.38 16.44.37-4.44.37-4.92.38-1.4.37 4.16.38 6.2.37-4.08.37-3.64.38-13.08.37 16.44.37-3.48.38 8.44.37-14.52.38 3.72.37-1 .37 7.24.38 6.56.37-6.12.38 3.52.37-18.8.37 14.36.38-1.2.37-5.08.38 3.08.37 1.88.37-7.16.38 7 .37 5.76.38-7.76.37 4.12.37-1.64.38 1.48.37 6.16.37-13.08.38 4.32.37 7.36.38-4.68.37-9.36.37 2.24.38-3.84.37 4.72.38 7.56.37-2.44.37 7.4.38-2.88.37-9.56.38 9.4.37-3.48.37 6.16.38-16.12.37 3.28.37-8.16.38 15.52.37-1.6.38 6.32.37-4.08.37.24.38-8.4.37 10.04.38-5.92.37.2.37-6.52.38 13.68.37-7.76.38 4.28.37-4.28.37-.8.38 12.04.37-10 .38-1.4.37 1 .37 6.72.38-9.56.37 14.88.37-15.08.38 8.36.37-8.36.38 5.48.37 7.96.37-10 .38-3.48.37 10.2.38-3.48.37-6.72.37-.8.38 4.24.37-1.64.38 1.04.37 2.64.37 4.44.38-8.12.37-3.08.37 7.72.38 6.08.37-7.32.38 1.84.37 2.2.37 4.48.38-11.6.37 20.12.38-15.48.37-.64.37.4.38.2.37.6.38 6.28.37-2.28.37-13.84.38.4.37 12 .38 7.28.37-15.68.37.4.38 9.92.37-22.76.37 12.16.38-1.84.37 10.12.38.6.37-8.16.37-3.44.38 7.08.37 16.8.38-14.04.37-3.44.37-.04.38-.04.37-2.24.38-.64.37 10.92.37 3.44.38-6.32.37.76.37-1.04.38-11.56.37-7.12.38 19 .37-3.68.37 4.44.38-12 .37 19.04.38-2.48.37-3.88.37.16.38 7.68.37-22.92.38 19.6.37-10.76.37-8.56.38 16.6.37-9.16.38 2.2.37.96.37 4 .38-12.56.37 15.52.37-12.76.38 19.96.37-10.96.38 3.6.37-11.76.37 1.56.38-.24.37 2.6.38-.04.37 11.08.37-10.96.38-.24.37-.24.38 5.2.37 6.44.37-17.64.38 12.08.37 1.36.37 3 .38-11.56.37 6.8.38-2.24.37 4.8.37-4.52.38 4.6.37.56.38-12.96.37 9.04.37 3.16.38-5.68.37-1.08.38-11.56.37 14.88.37-8.72.38 9.24.37 3.16.38 1.8.37 3.16.37-1.48.38-15.16.37 3.56.37 10.64.38-13.36.37 15.88.38-4.72.37-4.28.37 8.8.38-7.68.37-6.52.38 6.2.37-13.8.37 10.04.38 8.2.37-21 .38 7.6.37 14.84.37-18 .38 6.2.37.52.37 19.48.38-17.96.37 17.04.38-7.12.37-12.52.37-1.28.38 3.16.37-.08.38 6.2.37 3.56.37-7.92.38 2.32.37-7.88.38 7.16.37 7 .37-5.32.38-8.92.37-.68.38 15.84.37-3.08.37-1.68.38-6.52.37 4.76.37-3.68.38 1.96.37-8.12.38.52.37 15.8.37-13.32.38 10.16.37-6.28.38-.08.37 8.76.37-1.88.38-.28.37 2.96.38-7.72.37 2.16.37 3.92.38-12.12.37-4.28.37 8.16.38-1.28.37-.48.38 3.12.37-11.32.37 9.36.38-10.52.37 13 .38-.28.37-7.92"/><use xlink:href="#h" color="#29C3F6" transform="matrix(3.75 0 0 3.75 56.04 110.25)"/><use xlink:href="#h" color="#29C3F6" transform="matrix(3.75 0 0 3.75 78.65 22.51)"/></g><text fill="#000" stroke="none" stroke-linecap="round" stroke-linejoin="round" color="#000" font-family="KaTeX_Main" font-size="8" transform="translate(241.1 10.11)"><tspan>AVLRelaxedBottomUp</tspan></text><g fill="none" stroke="currentColor" stroke-linecap="round" stroke-linejoin="round" color="#000"><path stroke="#FFAB00" d="M205.6 7.51h29.9M28 78.61l.37 3.8.38-7.04.37-3.2.38 2.64.37 12.08.37-.2.38-12.16.37 7 .38-.32.37 2.04.37.04.38 2.88.37-9 .37-2.52.38 18.72.37-7.92.38-7.48.37-.24.37 4.48.38 1.84.37-6.4.38-9.56.37 8.4.37 25.2.38-46.12.37 25.08.38-5.64.37 12.76.37-8.32.38 5.48.37-10.76.37 2.84.38-2 .37 4.16.38-2.76.37 3.4.37 12.36.38-6.64.37-1.92.38.64.37 8.44.37-17.84.38 20.92.37-18.16.38 11.88.37 6.64.37 10.36.38-21.24.37 2.08.38 7.68.37.84.37 14.24.38-16.4.37 4.08.37-12.64.38 17.88h.37l.38-6.6.37 3.72.37-7.08.38 8.6.37-5.96.38-6.88.37 7.32.37-7.12.38 1.24.37 12.16.38-8.6.37 5.6.37-1.4.38-2.36.37 11.6.37-7.28.38.4.37-5.2.38 11.48.37-6.84.37 2.64.38 4.72.37-20.08.38 27.36.37-6 .37-13.16.38 5.56.37-9.24.38 9.44.37 17.48.37-11.56.38-2.6.37 6.12.38-11.12.37 1.04.37 2.64.38.32.37.56.37 3.76.38.72.37-2.68.38 11.96.37-15.32.37 1.36.38 17.44.37-4.6.38-13.52.37 2.04.37-16.28.38 26.68.37-4.84.38-2.16.37 16.79.37-23.79.38-.8.37 12.88.37-.8.38-11.76.37-1.28.38 21.92.37 4.83.37-27.67.38 20.28.37-2.48.38-3.16.37-.44.37 7.52.38 1.56.37 8.35.38-16.99.37-5.68.37 3.6.38-15.44.37 12.4.38 4.68.37 4.88.37-6.84.38.12.37 7.84.37 3.96.38-14.12.37 15 .38-22.2.37 12.92.37-2.84.38-8.24.37 11.32.38-11.4.37 8.8.37 4.8.38 2.48.37-10.08.38 12.16.37 2.96.37-9.64.38-14.36.37 18.6.37-5.16.38-6.28.37 8.96.38-2.04.37 5.56.37-5.64.38 8.68.37-7.44.38-2.32.37 1.52.37-4.76.38 7.52.37-2.56.38 7.96.37-.76.37 14.15.38-25.95.37-2.8.38 12.36.37 3.44.37-7.72.38-7 .37 12.08.37-13.48.38 6.08.37 11.16.38-13.04.37 12.04.37 3.15.38 6.04.37-16.59.38 9.55.37-8.39.37-4.2.38 20.43.37-16.83.38 13.51.37-5.12.37-9.95.38 11.51.37-7.55.37-2.88.38 4.2.37 12.79.38-17.95.37 5.04.37 3.96.38 6.79.37 5.68.38-23.67.37 4.56.37 2.6.38 1.04.37.8.38-1.4.37 24.15.37-20.55.38 2.31.37 4.52.38-6.91.37 16.43.37-17.07.38 16.59.37-21.87.37 11.95.38.32.37-1.64.38-11.35.37 6.48.37-4.12.38 13.47.37-5.84.38 1.16.37-10.23.37 7.95.38 7.72.37-15.27.38 12.31.37-10.03.37 18.87.38-12.88.37 9.68.37-4.12.38-7.2.37-6.11.38 1.12.37 1.36.37 5.91.38.64.37-2.84.38-2.59.37 12.23.37-10.91.38 3.91.37-1.76.38 1.52.37 16.56.37-14.2.38-8.75.37-5.04.38 7.64.37 6.91.37-13.75.38 1.04.37 5.64.37 17.79.38-3.76.37-8.08.38 16.92.37-11.8.37-15.71.38 8.83.37 8.84.38-20.47.37 16.87.37-6.8.38 5.12.37 6.88.38-.32.37-5.96.37-.28.38-9.63.37 11.15.37-3.76.38-13.31.37 3.36.38 7.47.37 1.84.37 3.16.38-5.56.37 5.32.38.52.37-3.16.37.56.38 5.68.37 1.4.38-7.48.37 11.32.37-13.12.38 6.16.37 3.72.38-.12.37-8.36.37 6.32.38-15.03.37 5.03.37 10.2.38 2.4.37-.16.38.48.37-7.28.37 8.04.38-2.32.37-5.8.38 6.52.37 3.92.37 8.2.38-16.32.37 2.84.38.88.37-13.07.37 22.39.38-1.72.37-9.88.37 2.8.38-.2.37 3.48.38-8.16.37 3.88.37-.88.38-2.12.37 13.32.38-3 .37-8.6.37-2.16.38 6.88.37-6.24.38 9.44.37 2.96.37-7.72.38 3.4.37-6.24.38 6.44.37 2.96.37-17.8.38 8.96.37 2.12.37 7.44.38-4.28.37 1.24.38-26.35.37 29.91.37-.28.38-6.88.37 1.04.38-4.76.37-2.2.37 1.68.38 6.56.37-.88.38 1.2.37-17.99.37 15.75.38 5.68.37-7.52.37 18.72.38-10.72.37-11.6.38 5.88.37-7.72.37 20.8.38-14.76.37 7.8.38-8.2.37 2.48.37 4.2.38-7.12.37 12.28.38-6.48.37-3.92.37 1.16.38 9.72.37 4.8.38-18.4.37 8.2.37-7.96.38 4.56.37-.52.37 5.2.38-3.52.37-10.08.38 10.08.37 6.28.37-8.84.38 18.36.37-13.88.38-1.2.37.08.37.32.38.96.37 2.2.38 1.12.37 1.6.37-.36.38-7.32.37-5.88.37 7.96.38-5.68.37 6.44.38-3.52.37 1.16.37-1.64.38 21.88.37-25.76.38-5.44.37 18.92.37 5.76.38-8.6.37 4.92.38-4.6.37 8.52.37-10.92.38-1.64.37 3.44.38-7.12.37-3.96.37 5.52.38-3.96.37-2.92.37 14.2.38-3.76.37 4.92.38.68.37-15.36.37 10.36.38 4.04.37.68.38-7.12.37-2.52.37-3.32.38 11.84.37-6.52.38-5.24.37-.36.37-8.2.38 20.68.37-8.2.37 5.08.38-18.52.37 4.04.38 8.44.37 13.08.37-14.52.38 20.2.37-8.8.38-2.12.37 4.88.37-16.4.38 13.04.37-11.76.38 18.52.37 1.68.37-4 .38-4.84.37-3.12.38 3.36.37-8.64.37 3.16.38 9.24.37 1.04.37-12.8.38 5.04.37-6.32.38-5.04.37 5.04.37 10.88.38 3.36.37-5.28.38-4.8.37 7.92.37-10.92.38-.2.37 5.2.38-4.6.37 4.56.37-3.56.38 7.52.37-8 .37-1.04.38 8.12.37-7.76.38-.24.37 9.6.37 1 .38-15.92.37 18.6.38-10.92.37-2.96.37 9.36.38-1.72h.37l.38 2.68.37-4.04.37 5.2.38-2.76.37 6.24.37-6.52.38.56.37-7.16.38 13.76.37-10.72.37 6.64.38-4.84.37 3.92.38-6.52.37 3.92.37 7.44.38-6.52.37 4.96.38-9.44.37 11.84.37-1.12.38-9.64.37 19.96.38-6.52.37-25.72.37 18.08.38.96.37-10.28.37 7.04.38.96.37-10.28.38 14.12.37-5.68.37 2.84.38 1.8.37-.52.38 5.76.37-4.44.37-.28.38-.92.37-.88.38 6.76.37-1.12.37-6.72.38-8.8.37 13 .37-11.08.38.32.37 10.52.38 7.8.37-5.88.37-7.8.38 5.12.37-1.12.38-6.52.37 6.32.37-6.52.38 2.2.37-2.16.38 8.4.37 2.4.37-2.16.38-5.68.37 11.72.38-12.56.37 7.16.37-6.92.38 10.68.37-9.64.37-6.72.38 2.8.37 15.84.38-5.08.37-6.52.37.52.38 1.32.37-8.6.38-3 .37 23.52.37-16.48.38-1.56.37 17.92.38-18.56.37 11.28.37-3.84.38-1.16.37.72.37-5.28.38 5.48.37 7.72.38-17.88.37 17.04.37-11.48.38 9.36.37 7.32.38-10.04.37-8.16.37 3.8.38 4 .37.72.38-11.28.37 22.6.37-16.64.38-13.16.37 35.8.38-9.4.37-7.36.37 6.48.38-5.32.37-.32.37-6.32.38-.96.37 7.08.38-4.04.37 8.92.37-6.72.38 3.8.37-11.92.38 5.24.37-.12.37 5.2.38 1.32.37-10.44.38 5 .37-.96.37 12.2.38-5.08.37-3.04.37 1.32.38-.16.37-3.44.38-2.6.37 6.84.37 3.16.38 2.52.37-13.72.38-2.2.37 13.2.37 1.92.38-20.52.37 10.52.38 15.08.37-12.08.37-10 .38 2.92.37 5.8.38 11.36.37-10.84.37 2.32.38 1.48.37 4.36.37-4.28.38 10.52.37-11.44.38 5.16.37-6.52.37-3.04.38 10.32.37-9.84.38-3.64.37 10.52.37-9.2.38 4.36.37-3.24.38 4.12.37-6.32.37 2.92.38 13.56.37-2 .37-7.16.38 1.68.37 4.16.38-7.56.37-5.72.37-.16.38.84.37 18.48.38-10.64.37 1.68.37-1.6.38-2.04.37-4.88.38-5.92.37 8.24.37 6.8.38-6.76.37 12.32.38-3.04.37 4.72.37-12.04.38 8.6.37-9.8.37 5.36.38-4.48.37-.4.38-.4.37-16.12.37 26.8.38-3.04.37 4.52.38-9.2.37-6.72.37 10.24.38 6.36.37-1 .38.84.37-15.72.37 14.92.38-9.4.37 5.96.37 4.08.38-15.52.37 7.16.38-.2.37 6.16.37 3.88.38-11 .37-1.84.38 4.48.37 9.4.37-9.36.38-7.16.37-4.88.38 9.4.37 7.96.37-12.04.38 2.64.37 6.96.38-12.64.37 2.44.37 9.8.38 11.6.37-13.24.37 1 .38-10.16.37 9.96.38 3.28.37-7.96.37 3.48.38-3.28.37 14.04.38-12.84.37-3.84.37 14.64.38-7.12.37-9.8.38 4.08.37 4.48.37-1.04.38-4.68.37 16.88.37-17.12.38 7.52.37 1.04.38-9.8.37-1.44.37-2.84.38 1.2.37 11.4.38-8.16.37-8.56.37 26.64.38-6.32.37.8.38-19.56.37 17.08.37-10.6.38 2.44.37-14.84.38 27.8.37-14.64.37 21.32.38-14.04.37 10.52.37-9.36.38-10.96.37 13.76.38 1.8.37-14.84.37 10.96.38-14.44.37 14 .38 5.04.37-19.92.37 9.52.38 6.28.37-4.72.38-1.64.37-7.92.37 21.68.38-6.12.37-10.56.37-.24.38 3.8.37 5.88.38-2.48.37-.64.37-4.28.38 14.16.37-22.72.38 11.52.37-1.44.37 4.8.38-7.52.37 7.48.38-2.08.37-1.04.37 2.6.38-12.2.37 14.96.38-4.28.37 4.2.37 1.8.38-9.56.37.36h.37l.38 8.04.37 6.64.38.96.37-24.92.37 12.32.38-4.52.37 7.48.38 1.16.37 9.04.37-19.84.38 1.96.37 10.08.38-3.88.37 9.84.37-30.96.38 29.68.37-7.32.37 3.8.38 4 .37-10.76.38 6 .37 2.4.37-8.56.38-7.12.37 14.12.38-19.64.37 8.24.37 19.52.38-5.48.37-.48.38-1.64.37-7.72.37 7 .38-6.32.37 12.48.38-11.76.37 5.8.37-2.28.38-4.28.37 3.76.37 14.08.38-27.28.37 18.28.38-24.24.37 22.12.37-2.28.38 6.2.37-5.28.38 4.16.37.76.37-4.92.38 4.6.37-6.72.38-7.92.37 8.4.37 2.16.38 5.2.37-3.48.37-9.12.38-4.52.37 1.36.38.76.37 7.36.37.56.38 8 .37 4.16.38-14.76.37 1.96.37 7.36.38-8.32.37-18.96.38 22.28.37-9.76.37 14.04.38-13.36.37 10.2.38-2.68.37.36.37-4.72.38 5.76.37.96.37-8.72.38-3.48.37 8.56.38-8.32.37 12.6.37-11.72.38-8.92.37 14.6.38.96.37.32.37-6.12.38 7.4.37-9.72.38 6.96.37 3.12.37-10.72.38 4.36.37 3.32.37 4.36.38-11.12.37 19.2.38 6.36.37-25.2.37 16 .38-5.88.37-11.12.38 9.56.37 3.12"/><use xlink:href="#i" color="#FFAB00" transform="matrix(3.75 0 0 3.75 113.62 126.56)"/><use xlink:href="#i" color="#FFAB00" transform="matrix(3.75 0 0 3.75 220.55 7.51)"/></g><text fill="#000" stroke="none" stroke-linecap="round" stroke-linejoin="round" color="#000" font-family="KaTeX_Main" font-size="8" transform="translate(241.1 25.11)"><tspan>AVLRelaxedTopDown</tspan></text><g fill="none" stroke="currentColor" stroke-linecap="round" stroke-linejoin="round" color="#000"><path stroke="#3B75EA" stroke-dasharray="4.5,2.0,0.5,2.0,0.5,2.0" d="M205.6 22.51h29.9M28 81.33l.37 3.8.38 2.48.37-6.64.38 3.6.37-.6.37 3.48.38-18.04.37 19.44.38-6.68.37-1.36.37 6.84.38 13.32.37-11.44.37-10.04.38-2.8.37 10.2.38 4.12.37 4.32.37-16 .38 14.84.37-7.64.38-5.72.37 8.2.37 2.84.38-3.68.37 2.8.38.32.37 9.16.37 1.96.38-20.32.37 2.6.37 13.76.38-3.92.37-4.88.38 5.8.37-3.76.37 7.16.38-5.72.37 2.8.38-1.96.37.4.37-9.12.38 15 .37-10.56.38-.92.37 5.48.37 8.72.38-6.4.37-2.64.38-1.04.37-.32.37 22.44.38-15.68.37 7.84.37-15 .38 6.12.37-1.6.38-.96.37-2.84.37 4.84.38 5.32.37 2.92.38 3.64.37-7.64.37 7.08.38-17.64.37 12.16.38-1.36.37-10.04.37 10.96.38-8.64.37 4.16.37 10.84.38-11.2.37-3.6.38-2.4.37 14.48.37 9.36.38-11.52.37-4.08.38 7.2.37-6 .37-1.56.38 7.16.37-15.96.38 6.24.37 5 .37 6.88.38-12.52.37-.28.38 15.08.37-5.6.37-4.52.38.6.37 8.56.37-7.48.38 10.36.37-8.44.38 18.4.37-19.48.37 5.32.38-2.76.37-12.36.38 7.52.37 10.96.37-9.2.38 2.72.37 12.72.38-5.56.37-.56.37 6.32.38-11.96.37 9.68.37 1.92.38-9.04.37-15.84.38 21.92.37-.16.37-10.16.38 9.56.37 1.16.38-6.32.37 3.2.37-8.4.38 5.24.37 4.52.38-5 .37.4.37 12.64.38-14.52.37 2.24.38-5.96.37 24.35.37-20.43.38 6.92.37 3.28.37 8.27.38-14.79.37 2.6.38 10.91.37 4.36.37-11.19.38 3.92.37-4.2.38-5.12.37 9.04.37-9.4.38 13.31.37-16.35.38 8.76.37-2 .37-2.44.38-6.28.37 13 .37 3.36.38-2.04.37 4.47.38 5.32.37-23.31.37 10.92.38-12.12.37 21.63.38-12.99.37 11.31.37 4.4.38-5.44.37-13.71.38 9.72.37 1.92.37.12.38-7.24.37 3.44.38-6.56.37 7.44.37-1.48.38 12.35.37-18.19.37 10.32.38-2.36.37 1.36.38.52.37.72.37-.16.38 4.03.37-7.07.38 13.79.37-5.52.37 2 .38-12.63.37 1.12.38 13.99.37-7.32.37 4.4.38-20.79.37 20.99.37-7.31.38 5.27.37 12.36.38-11.32.37-3.32.37 12.76.38-5.36.37-2.04.38-9.11.37 5.03.37 6.12.38-16.63.37 9.87.38-2.95.37 24.59.37-12.44.38-17.47.37 19.95.38-16.39.37 13.31.37-4.08.38-9.79.37-16.8.37 12.2.38 17.23.37-4.96.38-3 .37-1.88.37 2.28.38 11.48.37-14.39.38 12.75.37-6.92.37-10.27.38 10.15.37-3.88.38-.6.37-3.03.37 6.39.38 8.36.37-9.16.37 6.16.38-8.08.37-6.31.38 6.35.37 12.48.37-10.24.38 1.96.37-6.31.38 6.99.37-.64.37-2.44.38 13.76.37 3.72.38-26.63.37 10.43.37-7.87.38 4.99.37 2.4.38 7.16.37-2 .37-7.88.38 11.08.37 2.12.37-.92.38 4.08.37-13.52.38 21.24.37-15.04.37 7.32.38 6 .37-6.8.38-3.56.37.16.37-2.68.38 5.36.37 1.88.38 2.08.37-13.12.37.12.38 1.44.37 2.72.37-9.84.38 20.48.37-10.96.38-1.4.37 11.16.37 1.64.38-14.84.37 8.08.38 6.84.37-6.4.37 1.36.38-4.24.37-6.6.38 19.12.37-5.56.37-3.6.38-10.08.37-10.51.38 23.83.37-11.6.37-2.92.38 9.76.37-2.76.37 9.8.38-1.24.37-2.12.38 5.88.37 2.2.37-10.08.38.24.37-10.08.38 9.72.37 3.28.37 1.76.38-9.64.37-1.08.38 3.48.37-1.24.37 1.72.38 2.16.37-6.64.37 9.28.38-.2.37 1.08.38-3.64.37 4.72.37-5.56.38 6.44.37-5.36.38 1.92.37 3 .37-7.08.38-2.36.37 3.2.38 14.56.37-1.72.37-14.4.38-6.24.37 3.44.38 13.88.37-7.72.37-1.72.38 5.32.37 8.52.37-19.28.38 9.56.37-13.92.38 4.68.37 12.16.37 1.44.38 8.52.37-24.64.38.16.37 4 .37 2.52.38-1.76.37 11.72.38-6.68.37 6.32.37-1.12.38 1.84.37-4.32.37-3.04.38 7.4.37-2.2.38-18 .37 15.28.37 8.48.38-20.36.37 2.72.38 19.32.37-4.56.37 2.24.38-13.92.37 1.2.38 8.64.37-8.4.37 11.2.38-1.16.37 1.6.38-10.96.37 5.64.37-2.84.38-10.32.37 6.92.37 16.88.38 1.2.37-16.28.38-15.2.37 20.72.37.08.38-9.88.37 16.48.38-10.32.37-1.84.37 4.36.38 7.52.37-10.96.38 5.84.37 14.28.37-16.44.38-.8.37.08.37 1.8.38-5.88.37 2.64.38 4.08.37 11.96.37-15.2.38 15.76.37-11.6.38-9 .37 14.64.37-8.6.38 13.6.37-17.92.38 3.24.37 2.8.37-3.32.38-3.32.37 7.24.38-3.56.37-2.04.37 8.28.38 4.08.37-9.04.37 4.88.38 1.96.37-8.4.38 12.72.37-8.84.37-5.44.38 10.8.37-3.12.38 7.2.37 4.44.37-14.72.38 13.76.37-13.04.38 2.56.37-14.72.37 1.08.38 19.8.37-5.64.37-1.24.38.44.37-8 .38-1.04.37 13.08.37-1.24.38-7.76.37 6.96.38-2.12.37-4.2.37-2.28.38-.2.37 11.76.38 4 .37-7.32.37 4.4.38-1.24.37-4.2.38 2.72.37-3.16.37 5.68.38-3.16h.37l.37-3.36.38 5.04.37-8 .38 11.52.37-6.72.37 2.52.38-2.32.37 6.92.38-18.92.37 24.12.37-13.24.38 3.96.37-4 .38-5.44.37 9.8.37-5.44.38 8.32.37 1.04.37 5.2.38-7.56.37-10.28.38-10.92.37 10.64.37 2.72.38 4.76.37 9.4.38-11.76.37 4.16.37 1.4.38-2.32.37 4.76.38-.88.37-2.12.37 3.72.38-4 .37-2.16.37-4.64.38 2.28.37-12.16.38 18.76.37-4.88.37-.44.38 5.36.37-7.56.38 1 .37 7.44.37-5.68.38 7.04.37-11.96.38 11 .37-6.08.37 7.64.38-16.32.37 2.04.38 19.08.37-16.92.37 9.32.38-15.92.37 23.08.37-14.24.38-5.68.37 9.92.38 11.8.37-8.6.37-3.64.38 6 .37 4.92.38 1.56.37 1 .37-3.64.38-5.08.37-3.16.38-3.2.37 12.4.37-20.48.38 9.08.37 10.08.37-5.88.38 3.44.37 3.04.38-6.72.37-3.84.37 6.56.38 1.36.37-4.88.38 10.32.37-3.84.37-.52.38-.92.37 9.04.38-10.24.37 13.36.37-24.56.38 17.32.37-19.36.38 9.64.37 2.16.37-13.16.38 11.52.37 13.8.37-12.56.38 7.36.37-3.84.38 4.48.37-24.76.37 10.88.38-1.96.37-4.08.38-1.12.37 21.44.37-12.76.38 9.4.37-14.36.38 5.48.37-5.92.37 9.8.38 1.96.37-.92.37-8.2.38 16.24.37-20.8.38-7.36.37 19.72.37-6.32.38-.32.37 1.12.38.72.37-.76.37 7.92.38-4.84.37-5.52.38 3.4.37 12.48.37-9.84.38-2 .37 11.84.38-3.84.37-1.16.37 4 .38-6.12.37-1.56.37.08.38-5.08.37 9.32.38-1.56.37 7.92.37-12.52.38 7.48.37-6.72.38 13.88.37-14.56.37 7.68.38-9.84.37-4.44.38 16.96.37-4.28.37-13.32.38-1.6.37 8.72.37 18.6.38-4.68.37-11.24.38 7.04.37 6.44.37-15.36.38 2.72.37-12.72.38 13.04.37-4.48.37 6.64.38 4.16.37.28.38-2 .37-9.2.37-7.56.38 15.44.37-.96.38-6.52.37-1.6.37 3.96.38-9.64.37 26.16.37-21.52.38 21.8.37-9.4.38-6.12.37 2.12.37 7.84.38-11.04.37-2.44.38 6 .37 11.52.37-22.12.38 3.96.37 14 .38-4.68.37-3.68.37 3.72.38-.36.37-9.4.37-2.84.38 9.68.37-1.2.38-.8.37 3.72.37 2.52.38-11.24.37 14.56.38-4.48.37-3.24.37 3.92.38-4.28.37-8.76.38 8.64.37-9.2.37.84.38 11.08.37-6.72.38-4.48.37 16.4.37-5.52.38 3.32.37-9.4.37 4.52.38-6.72.37 8.8.38 1.04.37-17.16.37 8.4.38 1.68.37 7.56.38-1.6.37-8.36.37 4.08.38-2.44.37 3.08.38 7.2.37-8.16.37 7.56.38 2.04.37-2.04.37-7.32.38 2.24.37 6.96.38-1.6.37-3.48.37.4.38 4.72.37-10.8.38 6.12.37-1.4.37 3.24.38 1.84.37-8.36.38-6.72.37 17.36.37-4.92.38 3.08.37 1.04.38-10.84.37 2.04.37.84.38-1.04.37 9.6.37 4.08.38-9.6.37.4.38-5.68.37 4.08.37 15.24.38-11.6.37 13.44.38-17.92.37-1.44.37-3.88.38-.6.37-2.88.38 14.28.37-16.72.37 13.64.38-10.8.37 10.56.37 1.64.38 3.24.37-1.84.38 4.04.37-5.08.37-7.32.38-.84.37 3.44.38.6.37 3.24.37 3.04.38-6.72.37 4.84.38-7.72.37 7.08.37-8.76.38 1.44.37 7.88.38-4.48.37 2.84.37 10.52.38-7.12.37-10.56.37 13.36.38-6.72.37 5.04.38-.6.37-5.72.37-14.04.38 12.76.37 9.52.38 4.88.37-16.68.37 11.12.38-1.24.37-6.12.38-3.68.37 1.2.37 12.96.38-9.96.37-.44.37-7.12.38 4.84.37 1.4.38 5.64.37-1.04.37 5.24.38-9.96.37-3.68.38 2.4.37-7.52.37 11.28.38 7.28.37.96.38-15.6.37 17.16.37-20.28.38 11.92.37.96.38 2.8.37-10.96.37 5.04.38 3 .37-10.36.37 18.36.38-8.52.37-3.48.38-2.28.37 6.24.37 5.64.38-13.6.37-4.28.38 8.64.37 10.08.37-12.6.38 8.24.37 8.48.38-13.4.37 3.2.37-14.2.38 20.56.37-16.8.37 17.12.38-6.72.37-12.76.38 12.08.37-2.88.37 2.36.38-1.64.37-1.48.38-2.08.37 4.4.37 2 .38.96.37.32.38-7.08.37 6 .37-3.88.38 5.16.37-.04.38-.84.37-3.28.37 8.8.38.96.37-7.32.37 6 .38-13.96.37 9.2.38-.44.37.56.37-1.28.38-2.08.37-1.64.38 11.8.37-15.76.37 11.84.38 3.36.37-11.36.38 4.6.37-14.76.37 23.52.38-2.28.37-21.24.37 5 .38 8.8.37-1.08.38-5.48.37 9.4.37-8.52.38 3.96.37 8 .38-8.52.37 10.2.37-6.72.38-1.28.37-7.92.38 14.24.37 11.4.37-15.56.38-2.68.37-.48.38-1.48.37-.84.37-1.08.38 10.8.37 4.32.37-14.32.38-5.32.37 6.8.38 7.56.37.72.37-15.32.38 6.96.37-2.08.38 4.32.37 4.76.37-6.88.38.92.37-5.32.38 10.4.37 4.96.37-16.16.38 12.8.37-5.72.37-3.68.38-7.32.37 17.2.38 1.12.37-19.92.37 19.36.38 14 .37-21.36.38-7.52.37 22"/><use xlink:href="#a" color="#3B75EA" transform="matrix(3.75 0 0 3.75 171.2 158)"/><use xlink:href="#a" color="#3B75EA" transform="matrix(3.75 0 0 3.75 220.55 22.51)"/></g><path fill="none" stroke="none" stroke-linecap="round" stroke-linejoin="round" stroke-width="0" d="M28 45.01V205M371.99 45.01H28" color="#000"/></svg>