<svg xmlns="http://www.w3.org/2000/svg" xmlns:xlink="http://www.w3.org/1999/xlink" viewBox="0 0 400 250"><path fill="none" d="M0 0h400v250H0z"/><defs><path id="g" stroke="currentColor" stroke-width=".267" d="M-1 0h2M0-1v2"/><path id="h" stroke="currentColor" stroke-width=".267" d="m-1-1 2 2m0-2-2 2"/><path id="d" stroke="currentColor" stroke-width=".267" d="M-1-1h2v2h-2z"/><path id="b" stroke="currentColor" stroke-width=".267" d="m0-1.33-1.33 2h2.66z"/><path id="f" stroke="currentColor" stroke-width=".267" d="M0 1.33 1.265.411.782-1.067l-1.564-.009-.483 1.487z"/><use xlink:href="#a" id="i" fill="currentColor" stroke="none"/><use xlink:href="#b" id="c" stroke="currentColor" transform="rotate(180)"/><use xlink:href="#d" id="e" stroke="currentColor" transform="rotate(45)"/><circle id="a" cx="0" cy="0" r="1" stroke="currentColor" stroke-width=".267"/></defs><path fill="none" stroke="#000" stroke-linecap="round" stroke-linejoin="round" stroke-width=".1" d="M35.48 205V45.01" class="gridline" color="#000"/><g fill="none" stroke="none" stroke-linecap="round" stroke-linejoin="round" stroke-width="0" color="#000"><path d="M35.48 205v-7.5m0-152.49v7.5"/><text fill="#000" font-family="KaTeX_Main" font-size="10" text-anchor="middle" transform="translate(35.48 215.75)"><tspan> 1</tspan></text></g><path fill="none" stroke="#000" stroke-linecap="round" stroke-linejoin="round" stroke-width=".1" d="M72.87 205V45.01" class="gridline" color="#000"/><g fill="none" stroke="none" stroke-linecap="round" stroke-linejoin="round" stroke-width="0" color="#000"><path d="M72.87 205v-7.5m0-152.49v7.5"/><text fill="#000" font-family="KaTeX_Main" font-size="10" text-anchor="middle" transform="translate(72.87 215.75)"><tspan> 2</tspan></text></g><path fill="none" stroke="#000" stroke-linecap="round" stroke-linejoin="round" stroke-width=".1" d="M110.26 205V45.01" class="gridline" color="#000"/><g fill="none" stroke="none" stroke-linecap="round" stroke-linejoin="round" stroke-width="0" color="#000"><path d="M110.26 205v-7.5m0-152.49v7.5"/><text fill="#000" font-family="KaTeX_Main" font-size="10" text-anchor="middle" transform="translate(110.26 215.75)"><tspan> 3</tspan></text></g><path fill="none" stroke="#000" stroke-linecap="round" stroke-linejoin="round" stroke-width=".1" d="M147.65 205V45.01" class="gridline" color="#000"/><g fill="none" stroke="none" stroke-linecap="round" stroke-linejoin="round" stroke-width="0" color="#000"><path d="M147.65 205v-7.5m0-152.49v7.5"/><text fill="#000" font-family="KaTeX_Main" font-size="10" text-anchor="middle" transform="translate(147.65 215.75)"><tspan> 4</tspan></text></g><path fill="none" stroke="#000" stroke-linecap="round" stroke-linejoin="round" stroke-width=".1" d="M185.04 205V45.01" class="gridline" color="#000"/><g fill="none" stroke="none" stroke-linecap="round" stroke-linejoin="round" stroke-width="0" color="#000"><path d="M185.04 205v-7.5m0-152.49v7.5"/><text fill="#000" font-family="KaTeX_Main" font-size="10" text-anchor="middle" transform="translate(185.04 215.75)"><tspan> 5</tspan></text></g><path fill="none" stroke="#000" stroke-linecap="round" stroke-linejoin="round" stroke-width=".1" d="M222.43 205V45.01" class="gridline" color="#000"/><g fill="none" stroke="none" stroke-linecap="round" stroke-linejoin="round" stroke-width="0" color="#000"><path d="M222.43 205v-7.5m0-152.49v7.5"/><text fill="#000" font-family="KaTeX_Main" font-size="10" text-anchor="middle" transform="translate(222.43 215.75)"><tspan> 6</tspan></text></g><path fill="none" stroke="#000" stroke-linecap="round" stroke-linejoin="round" stroke-width=".1" d="M259.82 205V45.01" class="gridline" color="#000"/><g fill="none" stroke="none" stroke-linecap="round" stroke-linejoin="round" stroke-width="0" color="#000"><path d="M259.82 205v-7.5m0-152.49v7.5"/><text fill="#000" font-family="KaTeX_Main" font-size="10" text-anchor="middle" transform="translate(259.82 215.75)"><tspan> 7</tspan></text></g><path fill="none" stroke="#000" stroke-linecap="round" stroke-linejoin="round" stroke-width=".1" d="M297.21 205V45.01" class="gridline" color="#000"/><g fill="none" stroke="none" stroke-linecap="round" stroke-linejoin="round" stroke-width="0" color="#000"><path d="M297.21 205v-7.5m0-152.49v7.5"/><text fill="#000" font-family="KaTeX_Main" font-size="10" text-anchor="middle" transform="translate(297.21 215.75)"><tspan> 8</tspan></text></g><path fill="none" stroke="#000" stroke-linecap="round" stroke-linejoin="round" stroke-width=".1" d="M334.6 205V45.01" class="gridline" color="#000"/><g fill="none" stroke="none" stroke-linecap="round" stroke-linejoin="round" stroke-width="0" color="#000"><path d="M334.6 205v-7.5m0-152.49v7.5"/><text fill="#000" font-family="KaTeX_Main" font-size="10" text-anchor="middle" transform="translate(334.6 215.75)"><tspan> 9</tspan></text></g><path fill="none" stroke="#000" stroke-linecap="round" stroke-linejoin="round" stroke-width=".1" d="M371.99 205V45.01" class="gridline" color="#000"/><g fill="none" stroke="none" stroke-linecap="round" stroke-linejoin="round" stroke-width="0" color="#000"><path d="M371.99 205v-7.5m0-152.49v7.5"/><text fill="#000" font-family="KaTeX_Main" font-size="10" text-anchor="middle" transform="translate(371.99 215.75)"><tspan> 10</tspan></text></g><g fill="none" stroke="none" stroke-linecap="round" stroke-linejoin="round" stroke-width="0" color="#000"><path d="M371.99 205h-7.5"/><text fill="#000" font-family="KaTeX_Main" font-size="10" transform="translate(378.99 208.25)"><tspan>1.02</tspan></text></g><g fill="none" stroke="none" stroke-linecap="round" stroke-linejoin="round" stroke-width="0" color="#000"><path d="M371.99 190.46h-7.5"/><text fill="#000" font-family="KaTeX_Main" font-size="10" transform="translate(378.99 193.71)"><tspan>1.04</tspan></text></g><g fill="none" stroke="none" stroke-linecap="round" stroke-linejoin="round" stroke-width="0" color="#000"><path d="M371.99 175.91h-7.5"/><text fill="#000" font-family="KaTeX_Main" font-size="10" transform="translate(378.99 179.16)"><tspan>1.06</tspan></text></g><g fill="none" stroke="none" stroke-linecap="round" stroke-linejoin="round" stroke-width="0" color="#000"><path d="M371.99 161.37h-7.5"/><text fill="#000" font-family="KaTeX_Main" font-size="10" transform="translate(378.99 164.62)"><tspan>1.08</tspan></text></g><g fill="none" stroke="none" stroke-linecap="round" stroke-linejoin="round" stroke-width="0" color="#000"><path d="M371.99 146.82h-7.5"/><text fill="#000" font-family="KaTeX_Main" font-size="10" transform="translate(378.99 150.07)"><tspan>1.10</tspan></text></g><g fill="none" stroke="none" stroke-linecap="round" stroke-linejoin="round" stroke-width="0" color="#000"><path d="M371.99 132.28h-7.5"/><text fill="#000" font-family="KaTeX_Main" font-size="10" transform="translate(378.99 135.53)"><tspan>1.12</tspan></text></g><g fill="none" stroke="none" stroke-linecap="round" stroke-linejoin="round" stroke-width="0" color="#000"><path d="M371.99 117.73h-7.5"/><text fill="#000" font-family="KaTeX_Main" font-size="10" transform="translate(378.99 120.98)"><tspan>1.14</tspan></text></g><g fill="none" stroke="none" stroke-linecap="round" stroke-linejoin="round" stroke-width="0" color="#000"><path d="M371.99 103.19h-7.5"/><text fill="#000" font-family="KaTeX_Main" font-size="10" transform="translate(378.99 106.44)"><tspan>1.16</tspan></text></g><g fill="none" stroke="none" stroke-linecap="round" stroke-linejoin="round" stroke-width="0" color="#000"><path d="M371.99 88.64h-7.5"/><text fill="#000" font-family="KaTeX_Main" font-size="10" transform="translate(378.99 91.89)"><tspan>1.18</tspan></text></g><g fill="none" stroke="none" stroke-linecap="round" stroke-linejoin="round" stroke-width="0" color="#000"><path d="M371.99 74.1h-7.5"/><text fill="#000" font-family="KaTeX_Main" font-size="10" transform="translate(378.99 77.35)"><tspan>1.20</tspan></text></g><g fill="none" stroke="none" stroke-linecap="round" stroke-linejoin="round" stroke-width="0" color="#000"><path d="M371.99 59.55h-7.5"/><text fill="#000" font-family="KaTeX_Main" font-size="10" transform="translate(378.99 62.8)"><tspan>1.22</tspan></text></g><g fill="none" stroke="none" stroke-linecap="round" stroke-linejoin="round" stroke-width="0" color="#000"><path d="M371.99 45.01h-7.5"/><text fill="#000" font-family="KaTeX_Main" font-size="10" transform="translate(378.99 48.26)"><tspan>1.24</tspan></text></g><path fill="none" stroke="none" stroke-linecap="round" stroke-linejoin="round" stroke-width="0" d="M28 45.01V205M371.99 45.01H28" color="#000"/><text fill="#000" stroke="none" stroke-linecap="round" stroke-linejoin="round" stroke-width="0" color="#000" font-family="KaTeX_Main" font-size="10" text-anchor="middle" transform="rotate(-90 68.255 56.755)"><tspan font-weight="bold">Allocations </tspan><tspan> / log</tspan><tspan dy="3" font-size="8">2</tspan><tspan dy="-3">(Size)</tspan></text><text fill="#000" stroke="none" stroke-linecap="round" stroke-linejoin="round" stroke-width="0" color="#000" font-family="KaTeX_Main" font-size="10" text-anchor="middle" transform="translate(199.99 238.25)"><tspan>Operations × 10</tspan><tspan dy="-5" font-size="8">5</tspan></text><text fill="#000" stroke="none" stroke-linecap="round" stroke-linejoin="round" color="#000" font-family="KaTeX_Main" font-size="8" transform="translate(99.2 10.11)"><tspan>AVLBottomUp</tspan></text><g fill="none" stroke="currentColor" stroke-linecap="round" stroke-linejoin="round" color="#000"><path stroke="#000" d="M63.7 7.51h29.9M28 97.78l.37 31.3.38 3.6.37-1.84.38-5.14.37-6.25.37-1.14.38 19.63.37-5.03.38-2.47.37-6.18.37-3.89.38-3.66.37-5.52.37-1.5.38 3.45.37 35.08.38-5.73.37-4.55.37-4.37.38-2.83.37-.13.38.17.37-6.95.37-4.29.38-3.67.37-5.55.38 15.3.37 4.53.37-4.83.38 5.78.37-2.79.37 9.73.38-.42.37 17.93.38 4.09.37-6.24.37 1.79.38-6.46.37-2.4.38-1.32.37-3.53.37-4.85.38 4.43.37 7.99.38-6.06.37-4.05.37-4.31.38-4.94.37 21.4.38-3.2.37-1.92.37-2.86.38-3.89.37-6.27.37-2.09.38-3.46.37-3.84.38-2.69.37-4 .37 15.3.38 12.14.37-4.67.38-3.89.37-.88.37-4.79.38-4.49.37-3.64.38 7.33.37 15.4.37-2.47.38-3.9.37-3.4.37-1.96.38-6.52.37-1.5.38-2.25.37 11.56.37-5.88.38.18.37-5.51.38-.74.37-2.23.37-1.72.38 2.06.37 30.8.38-1.36.37-.49.37-4.67.38 1.44.37-4.92.38-1.82.37-3.67.37-1.11.38-.58.37.93.37-.08.38-3.71.37-1.7.38-3.62.37-1.87.37-1.66.38-2.75.37-.66.38-3.38.37-2.16.37 12.87.38 29.35.37-3.89.38-1.93.37-4.79.37-1.32.38-.94.37-5.33.37-.73.38-4.13.37-4.37.38-3.67.37 17.69.37 3.19.38-4.33.37.9.38-2.1.37-2.16.37-.29.38-4.04.37-2.23.38 17.99.37.64.37 14.55.38 19.93.37 1.28.38-4.89.37.33.37-2.45.38-4.76.37.45.37-1.35.38-1.84.37 2.99.38-2.7.37 2.09.37-4.55.38-2.42.37 1.39.38-3.89.37-.53.37-2.13.38-2.3.37-.99.38 5.34.37-.66.37-1.36.38-3.15.37-2.09.37.06.38-3.1.37-.06.38-4.09.37-1.76.37-2.25.38-1.32.37-1.56.38-3.84.37.39.37-5.26.38 1.12.37-4.2.38.02.37-2.57.37-2.66.38-2.74.37-1.52.38-1.43.37-3.14.37-.87.38-3.23.37 17.67.37.33.38-1.76.37-2.02.38-1.12.37.86.37 6.06.38-.59.37-4.4.38-1.29.37.37.37-2.78.38-2.58.37-.92.38-2.82.37.94.37-2.38.38 5.07.37 21.41.37-2.46.38.43.37-3.46.38-3.83.37.27.37-1.74.38-1.69.37.11.38-2.83.37-2.5.37-.08.38.66.37-5.3.38-.5.37 19.47.37 15 .38-5.19.37.14.38-3.19.37 2.1.37-4.11.38-.18.37-1.91.37-.66.38-1.11.37-2.3.38-1.15.37-2.26.37.37.38.41.37-2.03.38 4.21.37 8.02.37-2.1.38-4.5.37 1.75.38-2.62.37-2.94.37.6.38-3.58.37-.71.37-1.3.38-1.99.37-.79.38-1.75.37 6.21.37 27.46.38-1.47.37-1.6.38.75.37-2.35.37-1.12.38-2.58.37.74.38-1.95.37-1.56.37-3.42.38 1.34.37-.68.38-2.31.37-2.35.37 7.01.38 8.42.37 1.25.37-.81.38-3.81.37.26.38 1.05.37-2.07.37-4.09.38.98.37.49.38-3.89.37 1.41.37-2.47.38.22.37-3.06.38-1 .37-.58.37-1.36.38.19.37.09.37-3.72.38.92.37-1.16.38-4.91.37 4 .37 24.82.38-.85.37-1.68.38-1.33.37 2.18.37-1.8.38-.62.37-1.28.38-1.57.37 1.07.37-2.58.38-.15.37-2.08.38-.37.37-.47.37-1.68.38-2.27.37.21.37-.7.38-2.34.37-1.84.38-.66.37-1.53.37-.93.38 14.47.37 1.8.38-.08.37-2.5.37-3.36.38 4.7.37-3.25.38.04.37-3.05.37.19.38-.54.37-.63.37 2.19.38.98.37-1.13.38-1.1.37-1.05.37-1.65.38.04.37-.63.38-1.36.37-2.23.37-.98.38 1.79.37-1.95.38-3.05h.37l.37-.51.38-1.18.37-.47.38-2.03.37-1.52.37-.75.38-2.64.37.54.37-2.73.38.38.37 1.4.38-2.15.37-3.86.37.58.38-2.49.37 16.98.38-1.18.37-.82.37-.05.38.03.37-3.66.38.22.37-.32.37 1.62.38-.36.37-3.19.37-.94.38-.56.37 1.15.38-.24.37-3.04.37.03.38-.94.37.6.38-5.2.37.37.37.77.38 1.03.37-1.57.38-3.53.37.92.37-3 .38 2.85.37 19.13.38 15.92.37-.21.37-1.54.38.26.37-2.16.37 1.26.38-2.49.37.28.38-2.92.37.17.37-.09.38-1.81.37-3.33.38-3.69.37 1.21.37-.64.38-.48.37-.42.38-3.49.37.33.37-1.68.38-1.61.37-.64.37 2.14.38-3.3.37-4.3.38 1.48.37 4.05.37.25.38-.1.37.24.38-2.22.37-1.6.37 3.28.38 20.63.37-1.49.38-.57.37 1.47.37.08.38-3.44.37.42.38-1.79.37 1 .37-.18.38-.6.37-3.22.37.77.38 1.66.37-3.49.38 1.05.37-1.99.37-.3.38.7.37-2.84.38.89.37-1.41.37-2.8.38.97.37.39.38.58.37 28 .37 8.09.38-3.41.37 3.52.37-1.99.38-2.37.37-.96.38-.96.37 1.26.37-1.3.38-2.18.37-.47.38-.07.37-1.04.37-.04.38-1.07.37-1.15.38-2.22.37 2.02.37-1.95.38.38.37-.34.38-1.72.37-3.1.37-1.22.38 1.14.37-.42.37-1.39.38-1.52.37-.12.38-.01.37-4.12.37 1.83.38-1.79.37 1.86.38-2.52.37-2.1.37.87.38 3.19.37-2.47.38.48.37 1.79.37-4.99.38 2.2.37-1.49.37-.92.38.03.37.07.38-.96.37-.88.37-1.75.38-.09.37 1.25.38-1.68.37-1.71.37-2.67.38 1.44.37.22.38-3.62.37 2.62.37-2.63.38-1.26.37-.01.37.79.38-3.62.37 1.29.38-3.77.37 5.81.37 11.64.38-2.86.37.56.38-1.94.37 5.03.37 3.75.38-.96.37-.21.38-.34.37-.32.37 7.84.38.74.37-.24.38-1.08.37 1.78.37-2.6.38.78.37-2.09.37-.06.38-1.26.37-.88.38.32.37-2.09.37 1.08.38.97.37-2.06.38-1.83.37 1.54.37-2.78.38 2.33.37-3.34.38.71.37.59.37-.32.38-.89.37-4.06.37 2.41.38 2.62.37 26.55.38-.29.37-2.89.37 1.61.38-1.34.37-.63.38.21.37-.77.37.54.38-.4.37 1.27.38-3.91.37-.62.37-.21.38.5.37 1.34.38-1.83.37.43.37.54.38-1 .37 1.94.37-2.77.38-2.21.37 1.22.38 1.91.37-2.1.37-2.16.38-.07.37.21.38.32.37.96.37-.67.38-.89.37-.63.38-.13.37-1.49.37.5.38-1.41.37-.88.37.91.38.28.37-4.05.38 2.95.37-.74.37-3.97.38.01.37 1.86.38-.1.37-1.07.37-.37.38-.51.37.02.38-.44.37-1.72.37.84.38 3.77.37 7.03.38-2.42.37-1.57.37.73.38-2.09.37.54.37-2.13.38.91.37-1.64.38.27.37.39.37-1.53.38-2.54.37 2.23.38-.33.37.35.37-2.83.38-.59.37.64.38.96.37-2.17.37-2.2.38.99.37-.14.37-.14.38-1.49.37.2.38-3.02.37 2.85.37-3.77.38.28.37-2.28.38.95.37.72.37-3.06.38 2.03.37-2.57.38-1.67.37.04.37.65.38-2.57.37 3.12.38-1.71.37-1.76.37-1.85.38.08.37-3.35.37 3 .38.19.37-2.52.38.56.37-2.82.37.49.38-1.48.37 20.05.38 1.98.37-1.67.37.04.38-.29.37 2.06.38-1.67.37-1.71.37-.29.38 3.5.37-.17.37.11.38-2.26.37-.59.38 2.08.37-.18.37-.62.38-.07.37-2.9.38 2.12.37.53.37 18.59.38 7.3.37-3.12.38-.11.37-.64.37.94.38 1.9.37-3.94.38-1.38.37.75.37.18.38.23.37-1.9.37 1.38.38 1.53.37-2.83.38-.22.37.45.37-1.27.38 1.19.37-.77.38-1.31.37 1.5.37.29.38-3.64.37 1 .38-.63.37 1.16.37-1.49.38-1.04.37.3.37-3.16.38 2.97.37.37.38.08.37-5.12.37 2.15.38.55.37.37.38-1.85.37-2.26.37 2.56.38-2.79.37-.11.38.71.37-.9.37-.18.38.74.37-.93.38-1.29.37-.12.37.45.38-1.04.37.26.37.22.38-3.6.37 1.52.38-.33.37 1.03.37-2.22.38 1.78.37-2.86.38.7.37.11.37-2.56.38 3.81.37-2.21.38-.74.37-.12.37-.78.38-1.33.37-.04.37-.19.38-.85.37-.75.38 1.41.37-1.89h.37l.38-.08.37-1.37.38-.07.37-.78.37 2.51.38-2.7.37-.26.38-.78.37-.37.37 1.62.38-1.26.37-3.33.38 1.44.37-.11.37 1.36.38-1.96.37.62.37-1.55.38.33.37.81.38-2.22.37-.33.37-.01.38-.78.37-1.92.38 1.44.37.95.37-2.55.38 1.66.37-2.41.38-1.17.37 1.06.37.4.38-3.17.37.51.37-.23.38 1.95.37-1.25.38-3.43.37 1.02.37-.22.38 1.73.37-1.6.38-2.95.37.81.37-.34.38-1.47.37 1.02.38-.48.37-.45.37 1.25.38 15.83.37 19.28.38-2.69.37 2.3.37-.15.38-1.92.37-.78.37-.79.38.84.37.36.38-2.69.37 1.06.37-2.69.38 2.41.37-.52.38-.3.37-.67.37-2.04.38-1.25.37.99.38-.01.37-.05.37-1.37.38-.37.37.91.37-1.59.38-.82.37-1.04.38.37.37-.72.37.1.38.66.37.94.38-2.54.37 1.46.37-3.79.38.36.37-.85.38 1.16.37-1.77.37-1.52.38-.04.37-.85.38 2.15.37-1.62.37-.01.38-.38.37 1.13.37-.3.38-3.28.37 2.27.38-2.54.37.5.37-3.01.38 1.71.37.21.38 2.15.37-2.94.37-.78.38 19.81.37 6.37.38-.23.37-1.7.37-1.22.38 2.84.37-2.17.37-1.37.38-.01.37-1.11.38-1.55.37 1.34.37 1.56.38-3.56.37.83.38 1.49.37-1.4.37.72.38-1.77.37-1.4.38-.42.37-1.11.37 2.36.38-2.86.37.05.38 1.17.37-.38.37-.64.38.72.37-.81.37.02.38-2.36.37-.34.38-1.99.37 1.2.37-.09.38 1.45.37-3.08.38-.23.37-.34.37-.35.38-.93.37-.92.38 2.03.37-2.28.37-.01.38-.96.37-1.77.37.72.38.6.37.69.38.46.37-1.88.37.17.38-2.5.37.72.38-1.44.37 1.92"/><use xlink:href="#g" transform="matrix(3.75 0 0 3.75 342.45 132.92)"/><use xlink:href="#g" transform="matrix(3.75 0 0 3.75 78.65 7.51)"/></g><text fill="#000" stroke="none" stroke-linecap="round" stroke-linejoin="round" color="#000" font-family="KaTeX_Main" font-size="8" transform="translate(99.2 25.11)"><tspan>AVLTopDown</tspan></text><g fill="none" stroke="currentColor" stroke-linecap="round" stroke-linejoin="round" color="#000"><path stroke="#29C3F6" stroke-dasharray="1.0,2.0" d="M63.7 22.51h29.9M28 97.78l.37 31.3.38 3.6.37-1.84.38-5.14.37-6.25.37-1.14.38 19.63.37-5.03.38-2.47.37-6.18.37-3.89.38-3.66.37-5.52.37-1.5.38 3.45.37 35.08.38-5.73.37-4.55.37-4.37.38-2.83.37-.13.38.17.37-6.95.37-4.29.38-3.67.37-5.55.38 15.3.37 4.53.37-4.83.38 5.78.37-2.79.37 9.73.38-.42.37 17.93.38 4.09.37-6.24.37 1.79.38-6.46.37-2.4.38-1.32.37-3.53.37-4.85.38 4.43.37 7.99.38-6.06.37-4.05.37-4.31.38-4.94.37 21.4.38-3.2.37-1.92.37-2.86.38-3.89.37-6.27.37-2.09.38-3.46.37-3.84.38-2.69.37-4 .37 15.3.38 12.14.37-4.67.38-3.89.37-.88.37-4.79.38-4.49.37-3.64.38 7.33.37 15.4.37-2.47.38-3.9.37-3.4.37-1.96.38-6.52.37-1.5.38-2.25.37 11.56.37-5.88.38.18.37-5.51.38-.74.37-2.23.37-1.72.38 2.06.37 30.8.38-1.36.37-.49.37-4.67.38 1.44.37-4.92.38-1.82.37-3.67.37-1.11.38-.58.37.93.37-.08.38-3.71.37-1.7.38-3.62.37-1.87.37-1.66.38-2.75.37-.66.38-3.38.37-2.16.37 12.87.38 29.35.37-3.89.38-1.93.37-4.79.37-1.32.38-.94.37-5.33.37-.73.38-4.13.37-4.37.38-3.67.37 17.69.37 3.19.38-4.33.37.9.38-2.1.37-2.16.37-.29.38-4.04.37-2.23.38 17.99.37.64.37 14.55.38 19.93.37 1.28.38-4.89.37.33.37-2.45.38-4.76.37.45.37-1.35.38-1.84.37 2.99.38-2.7.37 2.09.37-4.55.38-2.42.37 1.39.38-3.89.37-.53.37-2.13.38-2.3.37-.99.38 5.34.37-.66.37-1.36.38-3.15.37-2.09.37.06.38-3.1.37-.06.38-4.09.37-1.76.37-2.25.38-1.32.37-1.56.38-3.84.37.39.37-5.26.38 1.12.37-4.2.38.02.37-2.57.37-2.66.38-2.74.37-1.52.38-1.43.37-3.14.37-.87.38-3.23.37 17.67.37.33.38-1.76.37-2.02.38-1.12.37.86.37 6.06.38-.59.37-4.4.38-1.29.37.37.37-2.78.38-2.58.37-.92.38-2.82.37.94.37-2.38.38 5.07.37 21.41.37-2.46.38.43.37-3.46.38-3.83.37.27.37-1.74.38-1.69.37.11.38-2.83.37-2.5.37-.08.38.66.37-5.3.38-.5.37 19.47.37 15 .38-5.19.37.14.38-3.19.37 2.1.37-4.11.38-.18.37-1.91.37-.66.38-1.11.37-2.3.38-1.15.37-2.26.37.37.38.41.37-2.03.38 4.21.37 8.02.37-2.1.38-4.5.37 1.75.38-2.62.37-2.94.37.6.38-3.58.37-.71.37-1.3.38-1.99.37-.79.38-1.75.37 6.21.37 27.46.38-1.47.37-1.6.38.75.37-2.35.37-1.12.38-2.58.37.74.38-1.95.37-1.56.37-3.42.38 1.34.37-.68.38-2.31.37-2.35.37 7.01.38 8.42.37 1.25.37-.81.38-3.81.37.26.38 1.05.37-2.07.37-4.09.38.98.37.49.38-3.89.37 1.41.37-2.47.38.22.37-3.06.38-1 .37-.58.37-1.36.38.19.37.09.37-3.72.38.92.37-1.16.38-4.91.37 4 .37 24.82.38-.85.37-1.68.38-1.33.37 2.18.37-1.8.38-.62.37-1.28.38-1.57.37 1.07.37-2.58.38-.15.37-2.08.38-.37.37-.47.37-1.68.38-2.27.37.21.37-.7.38-2.34.37-1.84.38-.66.37-1.53.37-.93.38 14.47.37 1.8.38-.08.37-2.5.37-3.36.38 4.7.37-3.25.38.04.37-3.05.37.19.38-.54.37-.63.37 2.19.38.98.37-1.13.38-1.1.37-1.05.37-1.65.38.04.37-.63.38-1.36.37-2.23.37-.98.38 1.79.37-1.95.38-3.05h.37l.37-.51.38-1.18.37-.47.38-2.03.37-1.52.37-.75.38-2.64.37.54.37-2.73.38.38.37 1.4.38-2.15.37-3.86.37.58.38-2.49.37 16.98.38-1.18.37-.82.37-.05.38.03.37-3.66.38.22.37-.32.37 1.62.38-.36.37-3.19.37-.94.38-.56.37 1.15.38-.24.37-3.04.37.03.38-.94.37.6.38-5.2.37.37.37.77.38 1.03.37-1.57.38-3.53.37.92.37-3 .38 2.85.37 19.13.38 15.92.37-.21.37-1.54.38.26.37-2.16.37 1.26.38-2.49.37.28.38-2.92.37.17.37-.09.38-1.81.37-3.33.38-3.69.37 1.21.37-.64.38-.48.37-.42.38-3.49.37.33.37-1.68.38-1.61.37-.64.37 2.14.38-3.3.37-4.3.38 1.48.37 4.05.37.25.38-.1.37.24.38-2.22.37-1.6.37 3.28.38 20.63.37-1.49.38-.57.37 1.47.37.08.38-3.44.37.42.38-1.79.37 1 .37-.18.38-.6.37-3.22.37.77.38 1.66.37-3.49.38 1.05.37-1.99.37-.3.38.7.37-2.84.38.89.37-1.41.37-2.8.38.97.37.39.38.58.37 28 .37 8.09.38-3.41.37 3.52.37-1.99.38-2.37.37-.96.38-.96.37 1.26.37-1.3.38-2.18.37-.47.38-.07.37-1.04.37-.04.38-1.07.37-1.15.38-2.22.37 2.02.37-1.95.38.38.37-.34.38-1.72.37-3.1.37-1.22.38 1.14.37-.42.37-1.39.38-1.52.37-.12.38-.01.37-4.12.37 1.83.38-1.79.37 1.86.38-2.52.37-2.1.37.87.38 3.19.37-2.47.38.48.37 1.79.37-4.99.38 2.2.37-1.49.37-.92.38.03.37.07.38-.96.37-.88.37-1.75.38-.09.37 1.25.38-1.68.37-1.71.37-2.67.38 1.44.37.22.38-3.62.37 2.62.37-2.63.38-1.26.37-.01.37.79.38-3.62.37 1.29.38-3.77.37 5.81.37 11.64.38-2.86.37.56.38-1.94.37 5.03.37 3.75.38-.96.37-.21.38-.34.37-.32.37 7.84.38.74.37-.24.38-1.08.37 1.78.37-2.6.38.78.37-2.09.37-.06.38-1.26.37-.88.38.32.37-2.09.37 1.08.38.97.37-2.06.38-1.83.37 1.54.37-2.78.38 2.33.37-3.34.38.71.37.59.37-.32.38-.89.37-4.06.37 2.41.38 2.62.37 26.55.38-.29.37-2.89.37 1.61.38-1.34.37-.63.38.21.37-.77.37.54.38-.4.37 1.27.38-3.91.37-.62.37-.21.38.5.37 1.34.38-1.83.37.43.37.54.38-1 .37 1.94.37-2.77.38-2.21.37 1.22.38 1.91.37-2.1.37-2.16.38-.07.37.21.38.32.37.96.37-.67.38-.89.37-.63.38-.13.37-1.49.37.5.38-1.41.37-.88.37.91.38.28.37-4.05.38 2.95.37-.74.37-3.97.38.01.37 1.86.38-.1.37-1.07.37-.37.38-.51.37.02.38-.44.37-1.72.37.84.38 3.77.37 7.03.38-2.42.37-1.57.37.73.38-2.09.37.54.37-2.13.38.91.37-1.64.38.27.37.39.37-1.53.38-2.54.37 2.23.38-.33.37.35.37-2.83.38-.59.37.64.38.96.37-2.17.37-2.2.38.99.37-.14.37-.14.38-1.49.37.2.38-3.02.37 2.85.37-3.77.38.28.37-2.28.38.95.37.72.37-3.06.38 2.03.37-2.57.38-1.67.37.04.37.65.38-2.57.37 3.12.38-1.71.37-1.76.37-1.85.38.08.37-3.35.37 3 .38.19.37-2.52.38.56.37-2.82.37.49.38-1.48.37 20.05.38 1.98.37-1.67.37.04.38-.29.37 2.06.38-1.67.37-1.71.37-.29.38 3.5.37-.17.37.11.38-2.26.37-.59.38 2.08.37-.18.37-.62.38-.07.37-2.9.38 2.12.37.53.37 18.59.38 7.3.37-3.12.38-.11.37-.64.37.94.38 1.9.37-3.94.38-1.38.37.75.37.18.38.23.37-1.9.37 1.38.38 1.53.37-2.83.38-.22.37.45.37-1.27.38 1.19.37-.77.38-1.31.37 1.5.37.29.38-3.64.37 1 .38-.63.37 1.16.37-1.49.38-1.04.37.3.37-3.16.38 2.97.37.37.38.08.37-5.12.37 2.15.38.55.37.37.38-1.85.37-2.26.37 2.56.38-2.79.37-.11.38.71.37-.9.37-.18.38.74.37-.93.38-1.29.37-.12.37.45.38-1.04.37.26.37.22.38-3.6.37 1.52.38-.33.37 1.03.37-2.22.38 1.78.37-2.86.38.7.37.11.37-2.56.38 3.81.37-2.21.38-.74.37-.12.37-.78.38-1.33.37-.04.37-.19.38-.85.37-.75.38 1.41.37-1.89h.37l.38-.08.37-1.37.38-.07.37-.78.37 2.51.38-2.7.37-.26.38-.78.37-.37.37 1.62.38-1.26.37-3.33.38 1.44.37-.11.37 1.36.38-1.96.37.62.37-1.55.38.33.37.81.38-2.22.37-.33.37-.01.38-.78.37-1.92.38 1.44.37.95.37-2.55.38 1.66.37-2.41.38-1.17.37 1.06.37.4.38-3.17.37.51.37-.23.38 1.95.37-1.25.38-3.43.37 1.02.37-.22.38 1.73.37-1.6.38-2.95.37.81.37-.34.38-1.47.37 1.02.38-.48.37-.45.37 1.25.38 15.83.37 19.28.38-2.69.37 2.3.37-.15.38-1.92.37-.78.37-.79.38.84.37.36.38-2.69.37 1.06.37-2.69.38 2.41.37-.52.38-.3.37-.67.37-2.04.38-1.25.37.99.38-.01.37-.05.37-1.37.38-.37.37.91.37-1.59.38-.82.37-1.04.38.37.37-.72.37.1.38.66.37.94.38-2.54.37 1.46.37-3.79.38.36.37-.85.38 1.16.37-1.77.37-1.52.38-.04.37-.85.38 2.15.37-1.62.37-.01.38-.38.37 1.13.37-.3.38-3.28.37 2.27.38-2.54.37.5.37-3.01.38 1.71.37.21.38 2.15.37-2.94.37-.78.38 19.81.37 6.37.38-.23.37-1.7.37-1.22.38 2.84.37-2.17.37-1.37.38-.01.37-1.11.38-1.55.37 1.34.37 1.56.38-3.56.37.83.38 1.49.37-1.4.37.72.38-1.77.37-1.4.38-.42.37-1.11.37 2.36.38-2.86.37.05.38 1.17.37-.38.37-.64.38.72.37-.81.37.02.38-2.36.37-.34.38-1.99.37 1.2.37-.09.38 1.45.37-3.08.38-.23.37-.34.37-.35.38-.93.37-.92.38 2.03.37-2.28.37-.01.38-.96.37-1.77.37.72.38.6.37.69.38.46.37-1.88.37.17.38-2.5.37.72.38-1.44.37 1.92"/><use xlink:href="#h" color="#29C3F6" transform="matrix(3.75 0 0 3.75 56.04 124.93)"/><use xlink:href="#h" color="#29C3F6" transform="matrix(3.75 0 0 3.75 78.65 22.51)"/></g><text fill="#000" stroke="none" stroke-linecap="round" stroke-linejoin="round" color="#000" font-family="KaTeX_Main" font-size="8" transform="translate(241.1 10.11)"><tspan>AVLRelaxedBottomUp</tspan></text><g fill="none" stroke="currentColor" stroke-linecap="round" stroke-linejoin="round" color="#000"><path stroke="#FFAB00" d="M205.6 7.51h29.9M28 97.78l.37 31.3.38 3.6.37-1.84.38-5.14.37-6.25.37-1.14.38 19.63.37-5.03.38-2.47.37-6.18.37-3.89.38-3.66.37-5.52.37-1.5.38 3.45.37 35.08.38-5.73.37-4.55.37-4.37.38-2.83.37-.13.38.17.37-6.95.37-4.29.38-3.67.37-5.55.38 15.3.37 4.53.37-4.83.38 5.78.37-2.79.37 9.73.38-.42.37 17.93.38 4.09.37-6.24.37 1.79.38-6.46.37-2.4.38-1.32.37-3.53.37-4.85.38 4.43.37 7.99.38-6.06.37-4.05.37-4.31.38-4.94.37 21.4.38-3.2.37-1.92.37-2.86.38-3.89.37-6.27.37-2.09.38-3.46.37-3.84.38-2.69.37-4 .37 15.3.38 12.14.37-4.67.38-3.89.37-.88.37-4.79.38-4.49.37-3.64.38 7.33.37 15.4.37-2.47.38-3.9.37-3.4.37-1.96.38-6.52.37-1.5.38-2.25.37 11.56.37-5.88.38.18.37-5.51.38-.74.37-2.23.37-1.72.38 2.06.37 30.8.38-1.36.37-.49.37-4.67.38 1.44.37-4.92.38-1.82.37-3.67.37-1.11.38-.58.37.93.37-.08.38-3.71.37-1.7.38-3.62.37-1.87.37-1.66.38-2.75.37-.66.38-3.38.37-2.16.37 12.87.38 29.35.37-3.89.38-1.93.37-4.79.37-1.32.38-.94.37-5.33.37-.73.38-4.13.37-4.37.38-3.67.37 17.69.37 3.19.38-4.33.37.9.38-2.1.37-2.16.37-.29.38-4.04.37-2.23.38 17.99.37.64.37 14.55.38 19.93.37 1.28.38-4.89.37.33.37-2.45.38-4.76.37.45.37-1.35.38-1.84.37 2.99.38-2.7.37 2.09.37-4.55.38-2.42.37 1.39.38-3.89.37-.53.37-2.13.38-2.3.37-.99.38 5.34.37-.66.37-1.36.38-3.15.37-2.09.37.06.38-3.1.37-.06.38-4.09.37-1.76.37-2.25.38-1.32.37-1.56.38-3.84.37.39.37-5.26.38 1.12.37-4.2.38.02.37-2.57.37-2.66.38-2.74.37-1.52.38-1.43.37-3.14.37-.87.38-3.23.37 17.67.37.33.38-1.76.37-2.02.38-1.12.37.86.37 6.06.38-.59.37-4.4.38-1.29.37.37.37-2.78.38-2.58.37-.92.38-2.82.37.94.37-2.38.38 5.07.37 21.41.37-2.46.38.43.37-3.46.38-3.83.37.27.37-1.74.38-1.69.37.11.38-2.83.37-2.5.37-.08.38.66.37-5.3.38-.5.37 19.47.37 15 .38-5.19.37.14.38-3.19.37 2.1.37-4.11.38-.18.37-1.91.37-.66.38-1.11.37-2.3.38-1.15.37-2.26.37.37.38.41.37-2.03.38 4.21.37 8.02.37-2.1.38-4.5.37 1.75.38-2.62.37-2.94.37.6.38-3.58.37-.71.37-1.3.38-1.99.37-.79.38-1.75.37 6.21.37 27.46.38-1.47.37-1.6.38.75.37-2.35.37-1.12.38-2.58.37.74.38-1.95.37-1.56.37-3.42.38 1.34.37-.68.38-2.31.37-2.35.37 7.01.38 8.42.37 1.25.37-.81.38-3.81.37.26.38 1.05.37-2.07.37-4.09.38.98.37.49.38-3.89.37 1.41.37-2.47.38.22.37-3.06.38-1 .37-.58.37-1.36.38.19.37.09.37-3.72.38.92.37-1.16.38-4.91.37 4 .37 24.82.38-.85.37-1.68.38-1.33.37 2.18.37-1.8.38-.62.37-1.28.38-1.57.37 1.07.37-2.58.38-.15.37-2.08.38-.37.37-.47.37-1.68.38-2.27.37.21.37-.7.38-2.34.37-1.84.38-.66.37-1.53.37-.93.38 14.47.37 1.8.38-.08.37-2.5.37-3.36.38 4.7.37-3.25.38.04.37-3.05.37.19.38-.54.37-.63.37 2.19.38.98.37-1.13.38-1.1.37-1.05.37-1.65.38.04.37-.63.38-1.36.37-2.23.37-.98.38 1.79.37-1.95.38-3.05h.37l.37-.51.38-1.18.37-.47.38-2.03.37-1.52.37-.75.38-2.64.37.54.37-2.73.38.38.37 1.4.38-2.15.37-3.86.37.58.38-2.49.37 16.98.38-1.18.37-.82.37-.05.38.03.37-3.66.38.22.37-.32.37 1.62.38-.36.37-3.19.37-.94.38-.56.37 1.15.38-.24.37-3.04.37.03.38-.94.37.6.38-5.2.37.37.37.77.38 1.03.37-1.57.38-3.53.37.92.37-3 .38 2.85.37 19.13.38 15.92.37-.21.37-1.54.38.26.37-2.16.37 1.26.38-2.49.37.28.38-2.92.37.17.37-.09.38-1.81.37-3.33.38-3.69.37 1.21.37-.64.38-.48.37-.42.38-3.49.37.33.37-1.68.38-1.61.37-.64.37 2.14.38-3.3.37-4.3.38 1.48.37 4.05.37.25.38-.1.37.24.38-2.22.37-1.6.37 3.28.38 20.63.37-1.49.38-.57.37 1.47.37.08.38-3.44.37.42.38-1.79.37 1 .37-.18.38-.6.37-3.22.37.77.38 1.66.37-3.49.38 1.05.37-1.99.37-.3.38.7.37-2.84.38.89.37-1.41.37-2.8.38.97.37.39.38.58.37 28 .37 8.09.38-3.41.37 3.52.37-1.99.38-2.37.37-.96.38-.96.37 1.26.37-1.3.38-2.18.37-.47.38-.07.37-1.04.37-.04.38-1.07.37-1.15.38-2.22.37 2.02.37-1.95.38.38.37-.34.38-1.72.37-3.1.37-1.22.38 1.14.37-.42.37-1.39.38-1.52.37-.12.38-.01.37-4.12.37 1.83.38-1.79.37 1.86.38-2.52.37-2.1.37.87.38 3.19.37-2.47.38.48.37 1.79.37-4.99.38 2.2.37-1.49.37-.92.38.03.37.07.38-.96.37-.88.37-1.75.38-.09.37 1.25.38-1.68.37-1.71.37-2.67.38 1.44.37.22.38-3.62.37 2.62.37-2.63.38-1.26.37-.01.37.79.38-3.62.37 1.29.38-3.77.37 5.81.37 11.64.38-2.86.37.56.38-1.94.37 5.03.37 3.75.38-.96.37-.21.38-.34.37-.32.37 7.84.38.74.37-.24.38-1.08.37 1.78.37-2.6.38.78.37-2.09.37-.06.38-1.26.37-.88.38.32.37-2.09.37 1.08.38.97.37-2.06.38-1.83.37 1.54.37-2.78.38 2.33.37-3.34.38.71.37.59.37-.32.38-.89.37-4.06.37 2.41.38 2.62.37 26.55.38-.29.37-2.89.37 1.61.38-1.34.37-.63.38.21.37-.77.37.54.38-.4.37 1.27.38-3.91.37-.62.37-.21.38.5.37 1.34.38-1.83.37.43.37.54.38-1 .37 1.94.37-2.77.38-2.21.37 1.22.38 1.91.37-2.1.37-2.16.38-.07.37.21.38.32.37.96.37-.67.38-.89.37-.63.38-.13.37-1.49.37.5.38-1.41.37-.88.37.91.38.28.37-4.05.38 2.95.37-.74.37-3.97.38.01.37 1.86.38-.1.37-1.07.37-.37.38-.51.37.02.38-.44.37-1.72.37.84.38 3.77.37 7.03.38-2.42.37-1.57.37.73.38-2.09.37.54.37-2.13.38.91.37-1.64.38.27.37.39.37-1.53.38-2.54.37 2.23.38-.33.37.35.37-2.83.38-.59.37.64.38.96.37-2.17.37-2.2.38.99.37-.14.37-.14.38-1.49.37.2.38-3.02.37 2.85.37-3.77.38.28.37-2.28.38.95.37.72.37-3.06.38 2.03.37-2.57.38-1.67.37.04.37.65.38-2.57.37 3.12.38-1.71.37-1.76.37-1.85.38.08.37-3.35.37 3 .38.19.37-2.52.38.56.37-2.82.37.49.38-1.48.37 20.05.38 1.98.37-1.67.37.04.38-.29.37 2.06.38-1.67.37-1.71.37-.29.38 3.5.37-.17.37.11.38-2.26.37-.59.38 2.08.37-.18.37-.62.38-.07.37-2.9.38 2.12.37.53.37 18.59.38 7.3.37-3.12.38-.11.37-.64.37.94.38 1.9.37-3.94.38-1.38.37.75.37.18.38.23.37-1.9.37 1.38.38 1.53.37-2.83.38-.22.37.45.37-1.27.38 1.19.37-.77.38-1.31.37 1.5.37.29.38-3.64.37 1 .38-.63.37 1.16.37-1.49.38-1.04.37.3.37-3.16.38 2.97.37.37.38.08.37-5.12.37 2.15.38.55.37.37.38-1.85.37-2.26.37 2.56.38-2.79.37-.11.38.71.37-.9.37-.18.38.74.37-.93.38-1.29.37-.12.37.45.38-1.04.37.26.37.22.38-3.6.37 1.52.38-.33.37 1.03.37-2.22.38 1.78.37-2.86.38.7.37.11.37-2.56.38 3.81.37-2.21.38-.74.37-.12.37-.78.38-1.33.37-.04.37-.19.38-.85.37-.75.38 1.41.37-1.89h.37l.38-.08.37-1.37.38-.07.37-.78.37 2.51.38-2.7.37-.26.38-.78.37-.37.37 1.62.38-1.26.37-3.33.38 1.44.37-.11.37 1.36.38-1.96.37.62.37-1.55.38.33.37.81.38-2.22.37-.33.37-.01.38-.78.37-1.92.38 1.44.37.95.37-2.55.38 1.66.37-2.41.38-1.17.37 1.06.37.4.38-3.17.37.51.37-.23.38 1.95.37-1.25.38-3.43.37 1.02.37-.22.38 1.73.37-1.6.38-2.95.37.81.37-.34.38-1.47.37 1.02.38-.48.37-.45.37 1.25.38 15.83.37 19.28.38-2.69.37 2.3.37-.15.38-1.92.37-.78.37-.79.38.84.37.36.38-2.69.37 1.06.37-2.69.38 2.41.37-.52.38-.3.37-.67.37-2.04.38-1.25.37.99.38-.01.37-.05.37-1.37.38-.37.37.91.37-1.59.38-.82.37-1.04.38.37.37-.72.37.1.38.66.37.94.38-2.54.37 1.46.37-3.79.38.36.37-.85.38 1.16.37-1.77.37-1.52.38-.04.37-.85.38 2.15.37-1.62.37-.01.38-.38.37 1.13.37-.3.38-3.28.37 2.27.38-2.54.37.5.37-3.01.38 1.71.37.21.38 2.15.37-2.94.37-.78.38 19.81.37 6.37.38-.23.37-1.7.37-1.22.38 2.84.37-2.17.37-1.37.38-.01.37-1.11.38-1.55.37 1.34.37 1.56.38-3.56.37.83.38 1.49.37-1.4.37.72.38-1.77.37-1.4.38-.42.37-1.11.37 2.36.38-2.86.37.05.38 1.17.37-.38.37-.64.38.72.37-.81.37.02.38-2.36.37-.34.38-1.99.37 1.2.37-.09.38 1.45.37-3.08.38-.23.37-.34.37-.35.38-.93.37-.92.38 2.03.37-2.28.37-.01.38-.96.37-1.77.37.72.38.6.37.69.38.46.37-1.88.37.17.38-2.5.37.72.38-1.44.37 1.92"/><use xlink:href="#i" color="#FFAB00" transform="matrix(3.75 0 0 3.75 113.62 142.68)"/><use xlink:href="#i" color="#FFAB00" transform="matrix(3.75 0 0 3.75 220.55 7.51)"/></g><text fill="#000" stroke="none" stroke-linecap="round" stroke-linejoin="round" color="#000" font-family="KaTeX_Main" font-size="8" transform="translate(241.1 25.11)"><tspan>AVLRelaxedTopDown</tspan></text><g fill="none" stroke="currentColor" stroke-linecap="round" stroke-linejoin="round" color="#000"><path stroke="#3B75EA" stroke-dasharray="4.5,2.0,0.5,2.0,0.5,2.0" d="M205.6 22.51h29.9M28 148.95l.37-2.61.38-8.48.37 9.89.38-.8.37-9.25.37-6.7.38-5.47.37-4.66.38-11.66.37 8.42.37 2.88.38-7.06.37-3.27.37-2.52.38-8.37.37-3 .38-6.18.37-5.46.37 9.14.38 22.63.37 19.7.38 19.88.37-3.65.37-2.26.38-4.84.37-7.49.38-3.34.37-6.92.37-4.35.38-6.25.37-4.04.37-4.95.38-6.9.37 2.45.38 6.09.37-4.65.37-.12.38-3.4.37 3.12.38 4.7.37-6.86.37-4.1.38-4.23.37-3.37.38-1.21.37-1.91.37-2.56.38-2.55.37-2.77.38-4.22.37-3.97.37-1.19.38-.76.37-8.24.37-3.71.38-.09.37 32.35.38 28.55.37-3.71.37-.35.38 3.52.37 35.68.38 3.74.37-1.96.37-3.99.38-.56.37-1.7.38-1.46.37-3.05.37.06.38-5.13.37-1.49.37-5.68.38-1.21.37-3.4.38-1.53.37.39.37-5.54.38 1.86.37-4.86.38 31.58.37 28.49.37-1.8.38-.32.37-4.6.38-.58.37 2.23.37-2.13.38-2.29.37-3.89.38-1.34.37-1.25.37-2.92.38-4.26.37-.79.37-.13.38-3.26.37-2.88.38-3.42.37-3.67.37-3.42.38-1.96.37-2.84.38-4.67.37-3.62.37-.8.38.45.37-2.84.38-1.42.37.19.37-2.09.38-.76.37-3.58.37.6.38-4.82.37 42.71.38 18.65.37-.05.37-1.21.38-3.23.37-.34.38 4.98.37-1.05.37-2.65.38-.52.37 3.56.38-4.83.37 1.54.37.43.38-4.14.37-.6.38-.19.37-2.58.37 1.08.38-3.43.37.62.37-2.57.38-.74.37-1.5.38 1.11.37-4.13.37-1.42.38-.25.37-1.55.38-2.82.37.01.37-4.38.38-.65.37-2.25.38-1.95.37.28.37-3.18.38-2.38.37-3.87.37.86.38-4.08.37 3.21.38 10.18.37-6.08.37 1.94.38-.62.37.81.38-4.05.37 1.82.37-3.02.38.07.37-1.03.38-3.79.37 1.2.37.7.38-4.23.37.95.38-1.15.37-3.83.37-.02.38-.43.37-.79.37-.75.38-3.59.37.43.38-.8.37-3.58.37.5.38.33.37-3.73.38-.68.37-4.07.37 1.23.38-3.98.37.45.38 13.47.37 12.98.37 6.19.38.24.37.28.37-2.41.38-1.9.37 1.92.38 22.71.37 19.16.37-2.03.38-.7.37-1.15.38-1.51.37-1.46.37-1.51.38.86.37-4.64.38 2.11.37-2.91.37-1.7.38-1.95.37 1.45.38-3.39.37-1.3.37-.71.38-2.58.37.49.37-2.63.38-.74.37-1.79.38-1.18.37-.71.37-3.26.38-.87.37 1.44.38-3.3.37-.46.37-2.99.38.37.37-3.25.38-.28.37-2.62.37-1.07.38-1.5.37-3.49.37.6.38-1.07.37-1.9.38-4.01.37 1.44.37-.2.38-2.1.37-4.68.38 2.47.37-4.8.37 2.07.38-3.29.37-.04.38-4.88.37 4.21.37 29.7.38-1.07.37.75.38.86.37-2.26.37.71.38-2.43.37.98.37-4.32.38.62.37-1.98.38 2.51.37-.99.37-4.28.38.42.37-.44.38-4.76.37 2.88.37-1.67.38-1.07.37.93.38 5.04.37 23.65.37 47.59.38 2.06.37-1.61.37-1.06.38-.46.37.63.38-3.46.37.95.37-1.17.38.94.37-2.5.38-.55.37-.15.37-2.88.38-1.21.37-.7.38-2.27.37.51.37-.63.38-2.59.37 1.78.38-.56.37.24.37-4.86.38 1.76.37-3.37.37-.86.38-1.13.37-1.46.38-.38.37.82.37-2.35.38-1.18.37-.23.38-2.35.37.98.37-3.72.38.74.37-.28.38-.31.37-2.51.37 1.68.38 3.68.37-1.65.37 1.41.38-1.61.37-3.05.38.93.37-2.62.37-2.54.38 1.05.37-2.19.38-.4.37-1.45.37-1.21.38-1.41.37-.59.38-2.89.37-1.33.37-.32.38.93.37-.59.38-.9.37 9.76.37-.98.38.11.37-.91.37-1.91.38-.87.37-.13.38-1.41.37-1.1.37-.48.38-.51.37-.36.38-4.09.37 1.23.37.8.38-1.25.37-3.2.38.73.37-2.22.37.18.38.26.37-2.74.37-.98.38.3.37.15.38-2.46.37-1.6.37.37.38-3 .37 1.62.38-.1.37-2.46.37-.05.38-.05.37 1.92.38-2.64.37-.91.37 16 .38 15.88.37-4.78.38 2.58.37-2.08.37 4.58.38-2.85.37-1.22.37 1.03.38-1.81.37.29.38-1.41.37-1.73.37 2.02.38-.13.37-2.23.38-.37.37-1.45.37-2.11.38-1.3.37.63.38-3.3.37.64.37-2.8.38-.11.37-.1.37 1.25.38-.57.37-3.22.38-.69.37-1.98.37 1.01.38-2.64.37.7.38.4.37-4.1.37.74.38 1.12.37-2.87.38-1.18.37.4.37-.49.38-.92.37-.71.38-2.76.37.94.37-1.38.38-1.48.37.7.37-.72.38.08.37-2.6.38 1.47.37-2.6.37-.65.38-.64.37-2.48.38 2.35.37-.95.37-1.22.38 1.58.37-4.13.38 1.96.37-1.33.37-.53.38-2.63.37 2.49.37-1.79.38-1.14.37-1.83.38 1 .37.58.37-4.89.38.16.37-.64.38-.95.37 1.57.37-.8.38-1.87.37-1.86.38.42.37-.37.37 4.56.38 28.04.37-1.99.38 18.87.37 26.04.37-.39.38-.77.37.8.37.02.38.88.37-3.33.38-.39.37-.58.37 2.05.38-2.02.37-.74.38-.16.37 3.69.37-7.02.38-.2.37 2.2.38-1.15.37 1.55.37-2.75.38.64.37-2.37.37.8.38-.13.37-4 .38 2.61.37-3.01.37.64.38-.81.37.03.38-3.4.37-.09.37-1.11.38-.16.37-1.61.38-1.49.37-.05.37-.96.38-2.55.37 2.88.37-1.61.38-1.3.37-.36.38-3.01.37 2.01.37-.89.38-.46.37-1.68.38-2.63.37 1.51.37-.93.38-1.79.37-1.19.38.19.37.89.37-4.44.38.36.37 2.68.38-5.65.37-.21.37.03.38 2.64.37-5.5.37.48.38-.28.37 1.42.38-3.91.37-2.43.37-.66.38 3.51.37-3.76.38-.42.37-3.2.37.48.38-.46.37-.4.38-.8.37-1.45.37-1.19.38 3.62.37-5.46.37-.34.38 15.06.37 19.7.38-2.1.37.78.37-.62.38-.32.37-.55.38.55.37-3.07.37 1.79.38-1.38.37 1.23.38-1.3.37.13.37-1.46.38-.96.37-.47.38-.92.37-1.19.37 1.76.38-2.4.37-1.26.37-.55.38-.92.37 1.37.38-1.71.37 1.34.37-2.09.38-.63.37.29.38-.21.37-1.45.37-.51.38.17.37-2.96.38 3.41.37-3.71.37 2.57.38-4.57.37.92.37 1.78.38-1.67.37-4.04.38 1.82.37-1.68.37-.61.38-.03.37 1.07.38-3.63.37.51.37 2.08.38-.43.37-2.28.38-1.56.37-1 .37 1.56.38-1.31.37-1.78.38.47.37-.89.37.28.38-2.69.37 1.37.37-1.41.38-1.78.37-.89.38-1.9.37.24.37-.77.38-.02.37 2.64.38-3.4.37-.43.37-1.71.38 2.45.37-1.85.38.8.37-2.76.37 1.1.38-2.91.37-.13.37-1.82.38-.44.37 2.37.38-2.86.37-1.83.37.88.38-2.98.37-.35.38 73.51.37 12.76.37 3.11.38.49.37-3.63.38-1.71.37.16.37 1.5.38-1.83.37 2.06.38-2.84.37 1.57.37-1.71.38-2.05.37 2.32.37-3.14.38 4.23.37-3.02.38 1.01.37-.56.37-1.79.38-1.3.37 2.62.38-2.32.37 2.77.37-3.76.38 1.94.37.56.38-3.13.37-.22.37 1.5.38.63.37-2.01.37.97.38-3.8.37 1.65.38 1.41.37-4.54.37 3.17.38-1.9.37.93.38-2.08.37 2.64.37-5.66.38 3.73.37-2.31.38.53.37-.08.37-1.6.38-.74.37-.78.38.19.37.45.37.22.38-1.6.37.63.37-1.86.38.75.37-.78.38-.67.37.67.37.11.38-1.74.37-3.42.38 1.67.37-.19.37-2.41.38-1.41.37 3.08.38-2.89.37 1.97.37-1.83.38-2.74.37.63.37-.22.38-.53.37.3.38-2 .37 1.56.37 1.15.38-1.11.37.85.38.67.37-.86.37 1.3.38-1.11.37-.53.38-1.66.37-1.52.37-1.04.38 1.84.37-1.4.38-.78.37-1.49.37-1.77.38 1.81.37.22.37-1.04.38-.19.37-2.59.38 1.78.37.07.37-2.08.38-.4.37-.78.38.36.37-1.92.37-2.45.38 1.86.37-.53.38-.89.37-.66.37.21.38-1.84.37 2.03.37-1.97.38-1.44.37-.3.38 15.2.37 8.47.37 2.35.38-3.55.37.44.38 1.59.37-3.12.37.37h.38l.37-1.26.38-1.34.37.18.37-2.51.38 2.62.37-2.04.38.73.37.96.37-2.11.38-1.34.37.7.37-.78.38.51.37-.6.38-1.59.37.62.37-.48.38-.53.37-.81.38-1.19.37-.15.37 2.76.38-3.06.37-1.49.38-.37.37.28.37-1.95.38 1.17.37-.04.37-2 .38 2.72.37-3.06.38-2.22.37 1.95.37.98.38-2.32.37 6.48.38 1.43.37-1.56.37-.52.38.58.37-.89.38-.04.37-2.81.37 5.15.38-3.32.37-.3.38-2.44.37 1.65.37.14.38-2.54.37-.97.37 2.01.38-.85.37-2.25.38.07.37-1.15.37-1.33.38 2.97.37-3.39.38 2.38.37-1.44.37-.49.38-4.97.37 4.4.38-.15.37-2.28.37.94.38-1.77.37 1.69.37-3.95.38 2.79.37-.2.38-3.05.37.73.37-1.3.38.14.37-.67.38-.92.37 2.08.37-5.11.38 3.33.37-2.21.38-.7.37-2.18.37 1.09.38.58.37-1.59.38.77.37 1.39.37-.13.38-2.68.37-1.11.37-.12.38 1.16.37-1.55.38-2.13.37.4.37.35.38.73.37-2.21.38 1.45.37-2.02.37 3.14.38-3.42.37 1.06.38-.16.37-2.1.37-.56.38.58.37-1.51.37.36.38-1.08.37.91.38-2.93.37 3.39.37-1.26.38-5.17.37 3.98.38 4.39.37.24.37-1.51.38.87.37-3.2.38 1.38.37-3.55.37 4.23.38-4.47.37-.42.38 2.11.37 6.54.37 25.69.38-.41.37-1.26.37-.2.38.11.37-1.77.38-.6.37-.6.37-.49.38 2.29.37-3.04.38-.35.37-1.33.37-.92.38 1.41.37-.2.38-1.54.37 1.62.37 9.78.38 14.63.37-3.37.37-1.08.38 1.99.37-.89.38 1.01.37-.38.37-.09.38.79.37-1.26.38-.35.37.2"/><use xlink:href="#a" color="#3B75EA" transform="matrix(3.75 0 0 3.75 171.2 152.65)"/><use xlink:href="#a" color="#3B75EA" transform="matrix(3.75 0 0 3.75 220.55 22.51)"/></g><path fill="none" stroke="none" stroke-linecap="round" stroke-linejoin="round" stroke-width="0" d="M28 45.01V205M371.99 45.01H28" color="#000"/></svg>