<svg xmlns="http://www.w3.org/2000/svg" xmlns:xlink="http://www.w3.org/1999/xlink" viewBox="0 0 400 250"><path fill="none" d="M0 0h400v250H0z"/><defs><path id="g" stroke="currentColor" stroke-width=".267" d="M-1 0h2M0-1v2"/><path id="h" stroke="currentColor" stroke-width=".267" d="M-1 0h2M0-1v2m-1-2 2 2m-2 0 2-2"/><path id="d" stroke="currentColor" stroke-width=".267" d="M-1-1h2v2h-2z"/><path id="j" fill="currentColor" stroke="currentColor" stroke-width=".267" d="M-1-1h2v2h-2z"/><path id="b" stroke="currentColor" stroke-width=".267" d="m0-1.33-1.33 2h2.66z"/><path id="f" stroke="currentColor" stroke-width=".267" d="M0 1.33 1.265.411.782-1.067l-1.564-.009-.483 1.487z"/><use xlink:href="#a" id="i" fill="currentColor" stroke="none"/><use xlink:href="#b" id="c" stroke="currentColor" transform="rotate(180)"/><use xlink:href="#d" id="e" stroke="currentColor" transform="rotate(45)"/><circle id="a" cx="0" cy="0" r="1" stroke="currentColor" stroke-width=".267"/></defs><path fill="none" stroke="#333" stroke-linecap="round" stroke-linejoin="round" stroke-width=".1" d="M46.1 205V45.01" class="gridline" color="#000"/><g fill="none" stroke="none" stroke-linecap="round" stroke-linejoin="round" stroke-width="0" color="#000"><path d="M46.1 205v-7.5m0-152.49v7.5"/><text fill="#000" font-family="KaTeX_Main" font-size="8" text-anchor="middle" transform="translate(46.1 215.1)"><tspan> 1</tspan></text></g><path fill="none" stroke="#333" stroke-linecap="round" stroke-linejoin="round" stroke-width=".1" d="M82.31 205V45.01" class="gridline" color="#000"/><g fill="none" stroke="none" stroke-linecap="round" stroke-linejoin="round" stroke-width="0" color="#000"><path d="M82.31 205v-7.5m0-152.49v7.5"/><text fill="#000" font-family="KaTeX_Main" font-size="8" text-anchor="middle" transform="translate(82.31 215.1)"><tspan> 2</tspan></text></g><path fill="none" stroke="#333" stroke-linecap="round" stroke-linejoin="round" stroke-width=".1" d="M118.52 205V45.01" class="gridline" color="#000"/><g fill="none" stroke="none" stroke-linecap="round" stroke-linejoin="round" stroke-width="0" color="#000"><path d="M118.52 205v-7.5m0-152.49v7.5"/><text fill="#000" font-family="KaTeX_Main" font-size="8" text-anchor="middle" transform="translate(118.52 215.1)"><tspan> 3</tspan></text></g><path fill="none" stroke="#333" stroke-linecap="round" stroke-linejoin="round" stroke-width=".1" d="M154.73 205V45.01" class="gridline" color="#000"/><g fill="none" stroke="none" stroke-linecap="round" stroke-linejoin="round" stroke-width="0" color="#000"><path d="M154.73 205v-7.5m0-152.49v7.5"/><text fill="#000" font-family="KaTeX_Main" font-size="8" text-anchor="middle" transform="translate(154.73 215.1)"><tspan> 4</tspan></text></g><path fill="none" stroke="#333" stroke-linecap="round" stroke-linejoin="round" stroke-width=".1" d="M190.94 205V45.01" class="gridline" color="#000"/><g fill="none" stroke="none" stroke-linecap="round" stroke-linejoin="round" stroke-width="0" color="#000"><path d="M190.94 205v-7.5m0-152.49v7.5"/><text fill="#000" font-family="KaTeX_Main" font-size="8" text-anchor="middle" transform="translate(190.94 215.1)"><tspan> 5</tspan></text></g><path fill="none" stroke="#333" stroke-linecap="round" stroke-linejoin="round" stroke-width=".1" d="M227.15 205V45.01" class="gridline" color="#000"/><g fill="none" stroke="none" stroke-linecap="round" stroke-linejoin="round" stroke-width="0" color="#000"><path d="M227.15 205v-7.5m0-152.49v7.5"/><text fill="#000" font-family="KaTeX_Main" font-size="8" text-anchor="middle" transform="translate(227.15 215.1)"><tspan> 6</tspan></text></g><path fill="none" stroke="#333" stroke-linecap="round" stroke-linejoin="round" stroke-width=".1" d="M263.36 205V45.01" class="gridline" color="#000"/><g fill="none" stroke="none" stroke-linecap="round" stroke-linejoin="round" stroke-width="0" color="#000"><path d="M263.36 205v-7.5m0-152.49v7.5"/><text fill="#000" font-family="KaTeX_Main" font-size="8" text-anchor="middle" transform="translate(263.36 215.1)"><tspan> 7</tspan></text></g><path fill="none" stroke="#333" stroke-linecap="round" stroke-linejoin="round" stroke-width=".1" d="M299.57 205V45.01" class="gridline" color="#000"/><g fill="none" stroke="none" stroke-linecap="round" stroke-linejoin="round" stroke-width="0" color="#000"><path d="M299.57 205v-7.5m0-152.49v7.5"/><text fill="#000" font-family="KaTeX_Main" font-size="8" text-anchor="middle" transform="translate(299.57 215.1)"><tspan> 8</tspan></text></g><path fill="none" stroke="#333" stroke-linecap="round" stroke-linejoin="round" stroke-width=".1" d="M335.78 205V45.01" class="gridline" color="#000"/><g fill="none" stroke="none" stroke-linecap="round" stroke-linejoin="round" stroke-width="0" color="#000"><path d="M335.78 205v-7.5m0-152.49v7.5"/><text fill="#000" font-family="KaTeX_Main" font-size="8" text-anchor="middle" transform="translate(335.78 215.1)"><tspan> 9</tspan></text></g><path fill="none" stroke="#333" stroke-linecap="round" stroke-linejoin="round" stroke-width=".1" d="M371.99 205V45.01" class="gridline" color="#000"/><g fill="none" stroke="none" stroke-linecap="round" stroke-linejoin="round" stroke-width="0" color="#000"><path d="M371.99 205v-7.5m0-152.49v7.5"/><text fill="#000" font-family="KaTeX_Main" font-size="8" text-anchor="middle" transform="translate(371.99 215.1)"><tspan> 10</tspan></text></g><g fill="none" stroke="none" stroke-linecap="round" stroke-linejoin="round" stroke-width="0" color="#000"><path d="M371.99 205h-7.5"/><text fill="#000" font-family="KaTeX_Main" font-size="8" transform="translate(378.99 207.6)"><tspan>0.89</tspan></text></g><g fill="none" stroke="none" stroke-linecap="round" stroke-linejoin="round" stroke-width="0" color="#000"><path d="M371.99 185h-7.5"/><text fill="#000" font-family="KaTeX_Main" font-size="8" transform="translate(378.99 187.6)"><tspan>0.90</tspan></text></g><g fill="none" stroke="none" stroke-linecap="round" stroke-linejoin="round" stroke-width="0" color="#000"><path d="M371.99 165h-7.5"/><text fill="#000" font-family="KaTeX_Main" font-size="8" transform="translate(378.99 167.6)"><tspan>0.91</tspan></text></g><g fill="none" stroke="none" stroke-linecap="round" stroke-linejoin="round" stroke-width="0" color="#000"><path d="M371.99 145h-7.5"/><text fill="#000" font-family="KaTeX_Main" font-size="8" transform="translate(378.99 147.6)"><tspan>0.92</tspan></text></g><g fill="none" stroke="none" stroke-linecap="round" stroke-linejoin="round" stroke-width="0" color="#000"><path d="M371.99 125h-7.5"/><text fill="#000" font-family="KaTeX_Main" font-size="8" transform="translate(378.99 127.6)"><tspan>0.93</tspan></text></g><g fill="none" stroke="none" stroke-linecap="round" stroke-linejoin="round" stroke-width="0" color="#000"><path d="M371.99 105.01h-7.5"/><text fill="#000" font-family="KaTeX_Main" font-size="8" transform="translate(378.99 107.61)"><tspan>0.94</tspan></text></g><g fill="none" stroke="none" stroke-linecap="round" stroke-linejoin="round" stroke-width="0" color="#000"><path d="M371.99 85.01h-7.5"/><text fill="#000" font-family="KaTeX_Main" font-size="8" transform="translate(378.99 87.61)"><tspan>0.95</tspan></text></g><g fill="none" stroke="none" stroke-linecap="round" stroke-linejoin="round" stroke-width="0" color="#000"><path d="M371.99 65.01h-7.5"/><text fill="#000" font-family="KaTeX_Main" font-size="8" transform="translate(378.99 67.61)"><tspan>0.96</tspan></text></g><g fill="none" stroke="none" stroke-linecap="round" stroke-linejoin="round" stroke-width="0" color="#000"><path d="M371.99 45.01h-7.5"/><text fill="#000" font-family="KaTeX_Main" font-size="8" transform="translate(378.99 47.61)"><tspan>0.97</tspan></text></g><path fill="none" stroke="none" stroke-linecap="round" stroke-linejoin="round" stroke-width="0" d="M28 45.01V205M371.99 45.01H28" color="#000"/><text fill="#000" stroke="none" stroke-linecap="round" stroke-linejoin="round" stroke-width="0" color="#000" font-family="KaTeX_Main" font-size="10" text-anchor="middle" transform="rotate(-90 68.255 56.755)"><tspan font-weight="bold">AveragePathLength </tspan><tspan> / log</tspan><tspan dy="3" font-size="8">2</tspan><tspan dy="-3">(Size)</tspan></text><text fill="#000" stroke="none" stroke-linecap="round" stroke-linejoin="round" stroke-width="0" color="#000" font-family="KaTeX_Main" font-size="10" text-anchor="middle" transform="translate(199.99 238.25)"><tspan>Operations × 10</tspan><tspan dy="-5" font-size="8">5</tspan></text><text fill="#000" stroke="none" stroke-linecap="round" stroke-linejoin="round" color="#000" font-family="KaTeX_Main" font-size="8" transform="translate(76.8 10.11)"><tspan>AVLBottomUp</tspan></text><g fill="none" stroke="currentColor" stroke-linecap="round" stroke-linejoin="round" color="#000"><path stroke="#000" d="M41.3 7.51h29.9M28 186.82l.36-1.43.36-1.26.37-1.59.36-1.22.36-1.36.36-1.42.36-1.49.37 8.19.36 5 .36-.26.36-.42.37.96.36-.54.36-.49.36-.35.36-.59.37-.46.36-.59.36-.61.36-.58.36-.52.37-.59.36-.67.36-.77.36-.84.36-.67.37-.58.36-.85.36-.66.36-.86.36-.69.37-.76.36-.74.36-.73.36-.87.37-.74.36-.79.36-.77.36-.8.36-.74.37-.77.36-.4.36-.85.36.38.36-.77.37-.76.36-.8.36-.77.36-.81.36-.83.37.9.36.86.36.87.36.74.37.77.36.77.36.78.36.77.36.85.37.75.36.72.36.73.36.67.36.72.37.73.36 1.03.36.83.36.61.36.73.37.68.36.64.36.54.36.55.37.73.36.49.36.62.36.51.36.31.37.38.36.39.36.41.36.33.36 2.2.37.45.36.37.36.53.36.67.36.49.37.27.36.38.36-.77.36.2.36.39.37-.14.36.2.36.24.36.19.37.1.36-.29.36.12.36-.02.36-.07.37.02.36-.01.36-.25.36-.27.36-.31.37-.42.36-.33.36-.42.36-.36.36-.42.37-.5.36-.52.36-.45.36-.52.37-.56.36-.48.36-.61.36-.53.36-.68.37-.64.36-.63.36-.85.36-.69.36-.64.37-.69.36-.71.36-.66.36-.74.36-.68.37-.76.36-.69.36-.78.36-.7.36-.66.37-.68.36-.74.36-.77.36-.73.37-.83.36-.8.36-.85.36-.86.36-.85.37-.78.36-.9.36-.86.36-.69.36-.84.37.84.36.87.36.86.36.86.36.84.37.78.36.78.36.82.36.9.37.88.36.8.36.83.36.87.36.82.37.5.36.65.36.71.36.81.36.8.37.64.36.74.36.7.36.86.36.73.37.63.36.67.36.62.36.58.36.69.37.7.36.51.36.82.36.42.37.71.36.46.36.47.36.54.36.96.37.46.36.53.36.41.36.24.36-.3.37.37.36 1.22.36.22.36-.16.36.04.37-.43.36-.02.36.12.36-.18.37-.28.36-.17.36-.2.36-1.29.36-1.53.37-.01.36-.42.36-.18.36-.48.36-.4.37-.46.36-.57.36-.55.36-.49.36-.64.37-.74.36-.77.36-.58.36-.71.37-.67.36-.72.36 2.14.36-.61.36-.75.37-.71.36-.68.36-.7.36-.71.36-.89.37-.47.36-.65.36-.77.36-.8.36-.67.37-1.03.36-.78.36-.34.36-.78.36-.56.37-.8.36-.9.36-.88.36-.79.37-.74.36-.83.36-.82.36.39.36-.81.37.74.36.86.36.74.36.81.36.9.37.77.36.84.36.7.36.79.36.73.37.77.36.68.36.69.36.74.37.71.36.7.36.63.36.67.36.75.37.54.36.6.36.62.36.56.36.57.37.59.36.56.36.52.36.46.36.47.37.47.36.43.36.35.36.42.36.29.37.14.36.28.36 2.87.36.5.37.51.36 1.65.36.27.36.18.36.04.37.21.36.14.36.16.36.14.36.13.37.08.36.05.36-.08.36-.1h.36l.37-.11.36-.21.36-.17.36-.1.37-.15.36-.4.36-.27.36-.39.36-.33.37-.25.36-.66.36-.36.36-.53.36-.53.37-.42.36-.52.36-.57.36-.6.36-.47.37-.62.36-.65.36-.54.36-.62.36-.59.37-.7.36-.81.36-.74.36-.64.37-.68.36-.71.36-.78.36-.6.36-.79.37-.74.36-.77.36-.83.36-.81.36-.79.37-.53.36-.86.36-.77.36-.79.36-.99.37-.73.36-.88.36-.92.36-.86.37.87.36 1.09.36.79.36.88.36.83.37.75.36.84.36.9.36.77.36.76.37.85.36.71.36.84.36.81.36.83.37.65.36.77.36.78.36.78.37.69.36.89.36.66.36.61.36.74.37.74.36.73.36.63.36.64.36.54.37.76.36.52.36.53.36.45.36.45.37.38.36.44.36.46.36.44.36.56.37.28.36.31.36.2.36.2.37.25.36.24.36.07.36.04.36-.1.37-.14.36-.08.36.12.36-.08.36.04.37-.19.36-.26.36-.11.36-.27.36-.34.37-.29.36-.41.36-.34.36-.36.37-.44.36-.48.36-.47.36-.51.36-.47.37-.5.36-.54.36-.67.36-.71.36-.53.37-.68.36-.57.36-.73.36-.57.36-.83.37-.77.36-.44.36-.76.36-.54.36-.66.37-.77.36-.7.36-.78.36-.77.37-.79.36-.77.36-.47.36-.65.36-.77.37-.84.36-.77.36-.82.36-.91.36-.83.37 1.14.36-.73.36-.74.36-.82.36.8.37.8.36.8.36.82.36.81.37.73.36.7.36.54.36.6.36.69.37.78.36.8.36.73.36.57.36.68.37.7.36.7.36.62.36.61.36.62.37.65.36.59.36.63.36.59.37.41.36.4.36.42.36.39.36.47.37.45.36.32.36.51.36.4.36.35.37.59.36-.06.36.28.36.17.36 2.81.37.31.36.34.36.29.36.22.36.25.37.17.36.09.36.13.36-.09.37.12.36-.07.36-.05.36-.09.36-.1.37-.19.36-.13.36-.3.36-.16.36-.26.37-.35.36-.24.36-.48.36-.35.36-.38.37-.44.36-.38.36-.56.36-.45.37-.37.36-.63.36-.64.36-.6.36-.6.37-.61.36-.7.36-.67.36-.58.36-.71.37-.63.36-.59.36-.78.36-.8.36-.48.37-.67.36-.74.36-.8.36-.67.36-.78.37-.78.36-.84.36-.74.36-.81.37-.76.36-.67.36-.79.36-.82.36-.9.37-.9.36-.84.36-.87.36 1.41.36.86.37.84.36.57.36.9.36.78.36.82.37.78.36.81.36.69.36.76.37.82.36.69.36.78.36.69.36.68.37.63.36.71.36.64.36.59.36.65.37.61.36.49.36.49.36.65.36.5.37.5.36.56.36.42.36.18.36.38.37.24.36.38.36.35.36.28.37.26.36-.01.36.33.36.08.36.2.37 3.01.36.29.36.24.36.29.36.2.37.24.36.02.36.07.36.03.36.03.37.03.36-.02.36-.16.36-.09.37.04.36-.06.36-.13.36-.15.36-.25.37-.31.36-.54.36-.14.36-.42.36-.51.37-.55.36-.68.36-.42.36-.45.36-.54.37-.63.36-.49.36-.56.36-.57.37-.55.36-.55.36-.68.36-.62.36-.71.37-.7.36-.76.36-.66.36-.77.36-.81.37-.73.36-.73.36-.74.36-.76.36-.8.37-.79.36-.78.36-.88.36-.78.36-.86.37-.86.36-.85.36-.81.36-.88.37-.79.36-.87.36-.84.36-.93.36.91.37.91.36.95.36.9.36.85.36.86.37.88.36.79.36.89.36.82.36.88.37.9.36.81.36.8.36.84.37.73.36.69.36.83.36.73.36.68.37.75.36.76.36.63.36.72.36.6.37.58.36.62.36.86.36.74.36.58.37.55.36.53.36.47.36.39.36.55.37.59.36.42.36.02.36.41.37.35.36.33.36.27.36.21.36.27.37.23.36.12.36.17.36-.08.36.17.37.07.36-.95.36-1.15.36-1.33.36-1.33.37-1.14.36-1.43.36-1.17.36-1.56.37-1.48.36-1.59.36-1.34.36-1.45.36-1.53.37-1.48.36 14.14.36-.49.36-.4.36-.57.37-.53.36-.5.36-.59.36-.62.36-.59.37-.67.36-.69.36-.74.36-.58.36-.81.37-.74.36-.67.36-.59.36-.79.37-.62.36-.91.36-.77.36-.86.36-.8.37-.62.36-.81.36-.89.36-.87.36-.85.37-.81.36-.7.36-.86.36-.83.36-.92.37 1.21.36-.79.36-.92.36.87.37.93.36.9.36.88.36.94.36.92.37.96.36.88.36.98.36.88.36.8.37.94.36.92.36.88.36.84.36.81.37.89.36.82.36.72.36.82.37.77.36.72.36.77.36.72.36.68.37.53.36.74.36.68.36.67.36.58.37.52.36.71.36.57.36.48.36.52.37.84.36.57.36.56.36.35.36.48.37.48.36.3.36.3.36.31.37.36.36.25.36-.01.36.1.36-.07.37-.1.36-.06.36-.17.36-.05.36-.24.37-.25.36-.19.36-.22.36-.28.36-.38.37-.32.36-.47.36-.47.36-.51.37-.44.36-.53.36-.52.36-.71.36-.62.37-.54.36-.62.36-.63.36-.59.36-.59.37-.63.36-.65.36-.75.36-.75.36-.69.37-.8.36-.88.36-.74.36-.8.36-.72.37-.78.36-.74.36-.77.36-.81.37-.89.36-.92.36-.94.36-.84.36-.9.37-1.41.36.82.36-.75.36-.87.36-.85.37-.88.36-.65.36-.86.36.95.36 1.03.37.88.36.86.36.91.36.77.37.75.36.83.36.84.36.76.36.95.37.86.36.74.36.76.36.77.36.8.37.66.36.69.36.67.36.74.36.58.37.66.36.62.36.65.36.55.36.55.37.56.36.54.36.73.36.45.37.55.36.37.36.38.36.39.36.24.37 2.39.36.52.36.35.36.45.36.35.37.49.36.35.36.26.36.12.36.25.37.19h.36l.36-.04.36-.16.37.09.36-.17.36-.29.36-.28.36-.22.37-.34.36-.19.36-.23.36-.41.36-.25.37-.39.36-.37.36-.47.36-.47.36-.45.37-.57.36-.6.36-.53.36-.58.37-.57.36-.58.36-.53.36-.71.36-.79.37-.74.36-.67.36-.69.36-.8.36-.88.37-.85.36-.86.36-.83.36-.84.36-.84.37-.79.36-.79.36-.93.36-.83.36-.86.37-.87.36-.93.36-.82.36-1 .37-1.2.36-.98.36-.9.36 13.69.36-.2.37-.17.36-.19.36-.14"/><use xlink:href="#g" transform="matrix(3.75 0 0 3.75 354.25 198.83)"/><use xlink:href="#g" transform="matrix(3.75 0 0 3.75 56.25 7.51)"/></g><text fill="#000" stroke="none" stroke-linecap="round" stroke-linejoin="round" color="#000" font-family="KaTeX_Main" font-size="8" transform="translate(76.8 25.11)"><tspan>AVLWeakTopDown</tspan></text><g fill="none" stroke="currentColor" stroke-linecap="round" stroke-linejoin="round" color="#000"><path stroke="#00C853" stroke-dasharray="4.5,2.0,0.5,2.0,0.5,2.0" d="M41.3 22.51h29.9M28 195.63l.36-.77.36-.82.37-.81.36-1.94.36-.31.36-1.39.36-1.02.37-1.07.36 1.29.36-.78.36-1.1.37-1.16.36-1.09.36-1.02.36-1.1.36-1.13.37-1.28.36-1.1.36-1.19.36-1.39.36-.79.37-1.16.36 2.21.36-.5.36-.5.36-.38.37-.43.36-.48.36-.55.36-.66.36-.54.37-.58.36-.89.36-.58.36-.6.37-.77.36-.66.36-.61.36-.63.36-.66.37-.7.36-.66.36-.62.36-1.52.36-.75.37-.69.36-.72.36-.74.36-.72.36-.66.37 10.53.36-.65.36.7.36 1.06.37 1.01.36.77.36 1.31.36.95.36.85.37 2.13.36.72.36.18.36 1.78.36.87.37 1.11.36.6.36.8.36.69.36.64.37.64.36.64.36.6.36.57.37.53.36.78.36.65.36.59.36 1.03.37.36.36.31.36.42.36.11.36.37.37.2.36.31.36.45.36.29.36.24.37.02.36.34.36-.01.36.14.36.08.37-.03.36.05h.36l.36-.02.37-.02.36-.29.36 1.29.36.36.36-.99.37 2.29.36.29.36-.31.36-.23.36-.57.37-.3.36-.55.36-.4.36-.52.36-.65.37-.42.36-.45.36-.6.36-.45.37-.56.36 2.57.36-.26.36-.36.36-.35.37-.44.36-.57.36-.47.36-.33.36-.71.37-.4.36-.5.36-.52.36-1 .36-.77.37-.63.36-.63.36-.64.36-.51.36-.51.37-.65.36-.72.36-1.03.36-.7.37-.82.36-.71.36-.6.36-.17.36-.83.37-.77.36-.84.36-.73.36-.76.36-.78.37-12.9.36 1.48.36.94.36.6.36.93.37.76.36.87.36 20.23.36 1.16.37.76.36.53.36.86.36.71.36.46.37.55.36.3.36.4.36.64.36.43.37.37.36.3.36.48.36.34.36.38.37.28.36.34.36.64.36-.07.36.38.37.35.36.14.36.11.36-.11.37.34.36.05.36.1.36.13.36-.11.37-.2.36-8.38.36.45.36.23.36.27.37.13.36.26.36.18.36-.04.36.13.37.08.36 6.59.36-14.93.36.74.37.59.36 1.02.36.77.36.44.36.57.37.61.36.32.36.35.36 4.59.36-2.69.37.36.36 2.35.36.01.36-.9.36-.05.37.18.36.02.36.64.36-.39.37-.13.36-.26.36-.17.36-.4.36-.2.37-.19.36-.23.36-.4.36-.37.36-.34.37-.44.36-.39.36.42.36.17.36-.48.37-.35.36-.5.36-.41.36-.51.36-.55.37-.72.36-.64.36-.66.36-.54.37-.62.36-.7.36-.63.36-.69.36-.57.37-5.55.36 3.05.36-22.36.36 2.36.36.64.37 1.23.36 2.1.36 1.99.36 8.62.36.72.37.63.36.73.36.6.36.97.37.58.36.95.36.67.36.73.36.82.37.58.36.81.36.85.36.54.36.58.37.48.36.53.36.43.36.53.36.26.37.03.36.43.36.49.36-1.07.36.45.37 2.78.36 4.15.36.69.36.72.37.7.36.69.36.62.36.57.36.52.37.5.36.33.36.63.36.35.36.29.37.33.36.21.36-4.8.36-7.49.36 1 .37.14.36.22.36.74.36 3.56.37-.06.36.21.36-.2.36-.14.36-.21.37-.19.36-.18.36-.34.36-.16.36-.49.37-.47.36-.38.36.85.36-1.07.36-.3.37-.42.36 2.18.36-.61.36-.54.36-.59.37-.62.36-.77.36-.77.36-.73.37-.73.36-.69.36-.75.36 2.12.36-.58.37-.58.36-.82.36-.71.36-.75.36-.61.37-.53.36-.67.36-.66.36-.47.36-.58.37-.41.36-.49.36-.99.36-.48.37-.74.36-24.63.36 2.25.36 1.5.36 1.29.37 1.61.36 23.94.36.73.36.42.36 2.23.37.52.36.58.36.52.36.53.36.79.37.65.36.68.36.46.36.49.37.51.36.31.36.39.36.37.36.36.37.43.36.36.36.32.36.21.36.19.37.37.36-.01.36.12.36.17.36.04.37.07.36.03.36-.11.36-.15.36-.06.37-.07.36-1.22.36.61.36.55.37.78.36.41.36.26.36.41.36.16.37.31.36.39.36-.58.36-18.29.36 16.23.37.5.36.66.36.23.36.11.36-1.01.37-.12.36-.14.36-.17.36.31.37.03.36-.14.36-.29.36-.4.36-.46.37 2.29.36-.12.36.07.36-.35.36-.18.37-.3.36-.58.36-.38.36-.33.36-.34.37-.26.36-.42.36-.43.36-.44.36-.48.37-.55.36-.32.36-.51.36-.61.37-.55.36-.59.36-.84.36-.51.36-.55.37-.59.36-.51.36-.65.36-.65.36-.71.37-.57.36-.64.36-.62.36-.62.36-5.66.37 2 .36 1.79.36.82.36.8.37 1.6.36.58.36.72.36.69.36.82.37.51.36.67.36.74.36.58.36.62.37.61.36 1.09.36.58.36.5.36.51.37.58.36.58.36.44.36.69.37.47.36.46.36.46.36.39.36.49.37.29.36-.07.36.14.36.18.36.2.37.17.36.07.36.07.36.04.36-.03.37.05.36-.11.36-.17.36-.23.36-.1.37-2.19.36.69.36.45.36.49.37.35.36.24.36-3.77.36 1.35.36.22.37.95.36.06.36.57.36.85.36.13.37-.12.36.02.36.09.36.23.36.04.37-.2.36-.2.36-.11.36-.29.37-.2.36-.21.36-.43.36-.2.36-.14.37-.35.36-.38.36-.45.36-.41.36-.19h.37l.36-.69.36-.26.36-1.27.36-.44.37-.61.36-.63.36-.45.36-.28.36-.49.37-.58.36-.51.36-.62.36-.78.37-.51.36-.59.36-.61.36-.53.36-.69.37-.74.36-.56.36-.65.36-.63.36-30.89.37 26.98.36 1.45.36.79.36 1.33.36.79.37.87.36.76.36.73.36.8.37.77.36 1.19.36.62.36.9.36.59.37.43.36.69.36.64.36.59.36 1.18.37.56.36.42.36.5.36.52.36.48.37.56.36.31.36.39.36.36.36.43.37.28.36.16.36.11.36.19.37.11.36-.01.36-.03.36-.03.36-.08.37-.42.36-.19.36-.24.36-.28.36-3.27.37.8.36.73.36.57.36.38.36.58.37.45.36-.73.36-9.06.36 3.71.37.32.36-4.6.36.37.36.42.36.24.37.29.36.17.36.21.36-.96.36.39.37.04.36.02.36-.18.36-.15.36-.08.37.06.36-.25.36-.22.36.11.37-.64.36-.64.36-.36.36 2.36.36-.4.37-.7.36-.61.36-.8.36-.74.36-.65.37-.68.36-.7.36-.65.36-.68.36-.84.37-.73.36-.77.36-.71.36-.74.36-.31.37-.76.36-.84.36-.6.36-1.92.37-.34.36-.79.36-.68.36-1.51.36 3.14.37.76.36 1.94.36 1.04.36 1.29.36.86.37 1.09.36.79.36 1 .36-.03.36.86.37 1.02.36.87.36.03.36 1.03.37.74.36.79.36.75.36 1.39.36.89.37.73.36.76.36.62.36.58.36.61.37.67.36.69.36.56.36 1.05.36.48.37.57.36.42.36.65.36.68.36.45.37.31.36.5.36-10.24.36.71.37.44.36.46.36.67.36.63.36.56.37-5.33.36 1.63.36 1.5.36 1.45.36 1.27.37 1.32.36 1.7.36.96.36.46.36.61.37.17.36-.09.36.36.36.25.37-.38.36-.1.36-.07.36-.06.36-.23.37-.44.36-.23.36-.39.36-.58.36-.16.37-.38.36-.37.36-.58.36-.26.36-.56.37-.48.36-.67.36-.69.36-.7.36-.41.37-.56.36-.75.36-.9.36-.84.37-.73.36-.84.36-.81.36-.78.36-.79.37-.81.36-.79.36-.82.36-.85.36-.86.37-.93.36-.94.36-.87.36-1 .36-.88.37-.8.36-1.07.36-.93.36 1.24.37 1.86.36-19.92.36.47.36 1.2.36 1.27.37 21.09.36.72.36.63.36.71.36.75.37.8.36 1.03.36 1.13.36.64.36.58.37.61.36.77.36.54.36.75.37.52.36.54.36.62.36.5.36.56.37.35.36.49.36.5.36.32.36.3.37.8.36.34.36.27.36.43.36.18.37.24.36.62.36.16.36.06.36.12.37-.14.36-.07.36-.13.36-.12.37-.01.36-.28.36-.38.36-.34.36-.56.37-.55.36-.63.36.63.36.73.36.29.37.24.36.13.36-.05.36.19.36.2.37.13.36-.18.36-.18.36-.09.37-.02.36-.15.36-.33.36-.4.36-.33.37-.46.36-.38.36-.35.36-.4.36-1.34.37-.47.36-.43.36.49.36-.54.36-.34.37-.58.36-.46.36-.45.36-.62.36-.64.37-.73.36-.42.36-.76.36.27.37-.74.36-.76.36-.67.36-.72.36-.56.37-.8.36-1.16.36-.85.36-.65.36-.7.37-.89.36-.79.36-.9.36-28.6.36 20.15.37 2.34.36.86.36 1.45.36 2.01.37.89.36 3.05.36.81.36.95.36.91.37.65.36.46.36.89.36.77.36.53.37.82.36.69.36 1.03.36.74.36 1.76.37.55.36.72.36 1.07.36.61.36.56.37.52.36.51.36.38.36.43.37.43.36.43.36.37.36.25.36.37.37.22.36.27.36.14.36.32.36.25.37.25.36 1.23.36.09.36.03.36-.17.37-.28.36-.16.36-.28.36-.45.37-.72.36-1 .36 1.49.36.69.36-5.24.37.24.36-.07.36.56.36.36.36 4.24.37.2.36-.17.36-.36.36-.19.36-.4.37-.21.36-.2.36-.26.36-.29.37-.36.36-.35.36-.46.36-.56.36-.61.37-.52.36-.63.36-.63.36-.59.36-.85.37-.74.36-.76.36-.75.36-.76.36-.81.37-1.16.36-.78.36-.85.36-.88.36-.87.37-1.28.36-1.52.36-.86.36-.82.37-1.35.36-.39.36-1.04.36-.97.36-1.02.37-.83.36-.83.36-.98"/><use xlink:href="#h" color="#00C853" transform="matrix(3.75 0 0 3.75 67.83 195.19)"/><use xlink:href="#h" color="#00C853" transform="matrix(3.75 0 0 3.75 56.25 22.51)"/></g><text fill="#000" stroke="none" stroke-linecap="round" stroke-linejoin="round" color="#000" font-family="KaTeX_Main" font-size="8" transform="translate(241.1 10.11)"><tspan>AVLRelaxedBottomUp</tspan></text><g fill="none" stroke="currentColor" stroke-linecap="round" stroke-linejoin="round" color="#000"><path stroke="#D336C8" d="M205.6 7.51h29.9M28 186.82l.36-1.43.36-1.26.37-1.59.36-1.22.36-1.36.36-1.42.36-1.49.37 8.19.36 5 .36-.26.36-.42.37.96.36-.54.36-.49.36-.35.36-.59.37-.46.36-.59.36-.61.36-.58.36-.52.37-.59.36-.67.36-.77.36-.84.36-.67.37-.58.36-.85.36-.66.36-.86.36-.69.37-.76.36-.74.36-.73.36-.87.37-.74.36-.79.36-.77.36-.8.36-.74.37-.77.36-.4.36-.85.36.38.36-.77.37-.76.36-.8.36-.77.36-.81.36-.83.37.59.36.53.36.55.36.54.37.52.36.53.36.55.36.52.36.52.37.49.36.49.36.5.36.5.36.52.37.46.36.59.36.55.36.48.36.56.37.5.36.48.36.3.36.51.37.47.36.39.36.53.36.37.36.23.37.3.36.27.36.3.36.29.36.21.37.19.36.16.36.14.36.13.36.2.37.12.36-.04.36-.01.36-.06.36-.08.37-.14.36-.09.36-.3.36-.22.37-.16.36-.45.36-.36.36-.67.36-.6.37-.63.36-.64.36-.65.36-.66.36-.7.37-.8.36-.55.36-.61.36-.71.36-.54.37-.32.36-.5.36-.47.36-.6.37-.46.36-.61.36-.59.36-.36.36-.6.37-.59.36-.59.36-.6.36-.69.36-.4.37-.46.36-.41.36-.5.36-.57.36-.64.37-.51.36-.43.36-.56.36-.56.36-.81.37-.5.36-.51.36 9.23.36.1.37.24.36.28.36.11.36.27.36.07.37.16.36.49.36.3.36.02.36.03.37-.14.36-.1.36-.09.36-.15.36-.09.37-.16.36-.16.36-.15.36-.23.37-.18.36-.18.36-.21.36-.18.36-.28.37-.26.36-.24.36-.34.36-.23.36-.32.37-.32.36-.34.36-.33.36-.38.36-.28.37-.38.36-.44.36-.4.36-.48.36-.53.37-.62.36-.53.36-.73.36-.73.37-.58.36-.74.36-.84.36-.55.36-.72.37-.9.36-.8.36-.85.36-1.06.36-1.16.37-1.2.36-1.15.36-1.18.36-1.34.36-1.18.37-1.47.36-1.38.36.5.36.21.37.16.36.47.36.53.36.46.36.58.37.52.36.49.36.45.36.45.36.46.37-1.84.36.6.36.49.36.45.36.52.37.6.36.72.36.6.36.5.37.45.36.52.36.4.36.65.36.44.37.39.36.27.36.4.36.44.36.4.37.56.36 1.59.36.58.36.52.36.49.37.35.36.24.36.22.36.34.36.31.37.31.36.2.36.26.36.24.37.44.36.21.36.28.36.2.36.45.37-.06h.36l.36-.06.36-.14.36-.07.37-.15.36-.12.36-.11.36-.03.36-.29.37-.15.36-.22.36-.23.36-.23.37-.24.36-.12.36-.21.36-.32.36-.36.37-.33.36-.4.36-.34.36-.47.36-.58.37-.49.36-.6.36-.49.36-.62.36-.64.37-.67.36-.76.36-.77.36-.74.36-.74.37-.97.36-1 .36-.84.36-1.08.37-1.09.36-1.21.36-1.18.36-1.15.36-1.3.37-1.56.36-1.52.36-1.61.36-1.46.36-1.6.37-1.79.36-1.73.36.89.36.89.36 4.53.37.76.36.77.36.82.36.78.37.79.36.84.36.67.36.74.36.7.37.69.36.72.36.55.36.65.36.67.37.54.36.71.36.75.36.51.36.5.37.42.36.35.36.6.36.56.36.5.37.56.36.56.36.4.36.47.37.39.36.35.36.2.36.69.36.35.37.3.36.37.36.32.36.2.36.24.37.32.36.11.36.16.36.34.36.37.37.2.36.37.36.27.36.22.37-.01.36-.02.36.01.36.05.36-.06.37-.07.36-.14.36-.11.36-.16.36.01.37-.03.36-.1.36-.23.36-.21.36-.15.37-.21.36-.24.36-.25.36-.29.37-.3.36-.32.36-.29.36-.5.36-.45.37-.4.36-.28.36-.52.36-.44.36-.54.37-.62.36-.55.36-.52.36-.62.36-.84.37-.93.36-.79.36-.67.36-1.05.36-.78.37-.9.36-1.1.36-1.1.36-1.29.37-1.44.36-1.34.36-1.43.36-1.52.36-1.58.37-1.68.36-1.87.36.92.36.98.36.89.37.76.36.62.36.7.36.7.36.65.37.63.36.63.36.65.36.72.37.5.36.71.36.69.36.7.36.52.37.62.36.6.36.46.36.61.36.44.37.52.36.5.36.53.36.42.36.43.37.51.36.38.36.53.36.48.36.38.37.26.36.15.36.5.36.25.37.53.36.17.36.4.36.26.36.21.37.33.36.26.36.42.36.32.36.28.37.19.36.2.36.06.36.19.36-.04.37-.01.36.03.36.12.36.01.37-.08.36-.06.36-.11.36-.13.36-.04.37.02.36.1.36-.11.36-.19.36-.27.37-.16.36-.31.36-.33.36-.17.36-.23.37-.25.36-.32.36-.42.36-.3.37-.26.36-.47.36-.38.36-.51.36-.61.37-.3.36-.51.36-.47.36-.63.36-.88.37-.76.36-.86.36-.77.36-.88.36-1.05.37-.95.36-1.19.36-.9.36-1.26.36-1.38.37-1.28.36-1.23.36-1.33.36-1.76.37-1.4.36-1.44.36.75.36.98.36.95.37.61.36.85.36.78.36.75.36.66.37.64.36.81.36.81.36.67.36.64.37.64.36.66.36.59.36.45.37.49.36.48.36.47.36.41.36.68.37.25.36.59.36.45.36.32.36.4.37.48.36.42.36.4.36.39.36.49.37.38.36.35.36.41.36.24.36.21.37.38.36.29.36.37.36.3.37.24.36.37.36.29.36.37.36.24.37.17.36.12.36.25.36-1.33.36-.04.37-.03.36-.04.36-.04.36-.08h.36l.37-.02.36-.06.36-.1.36-.12.37-.2.36-.08.36-.22.36-.12.36-.17.37-.31.36-.27.36-.33.36-.3.36-.32.37-.39.36-.33.36-.35.36-.4.36-.31.37-.43.36-.54.36-.61.36-.49.36-.57.37-.72.36-.76.36-.78.36-.74.37-.81.36-.96.36-1.01.36-1.15.36-1.06.37-1.28.36-1.4.36-1.27.36-1.35.36-1.41.37-1.32.36-1.81.36-1.91.36-1.72.36-1.79.37-1.89.36 1.15.36 1.05.36 1.07.37 1.16.36.8.36.93.36 1.08.36.83.37 1 .36.83.36.97.36.87.36.79.37.66.36.76.36.79.36.79.36.76.37.57.36.65.36.73.36.61.37.46.36.63.36.43.36.37.36.64.37.53.36.25.36.46.36.44.36.36.37.42.36.37.36.23.36.26.36.35.37.34.36.35.36.57.36.38.36.02.37.5.36.16.36.35.36.2.37.52.36-.07.36.13.36.29.36-.03.37.04.36.19.36-.15.36.02.36-.04.37-.06.36-.03.36-.1.36-.18.36-.17.37-.12.36-.15.36-.19.36-.21.37-.15.36-.17.36-.28.36-.32.36-.38.37-.35.36-.18.36-.52.36-.39.36-.45.37-.46.36-.39.36-.51.36-.53.36-.61.37-.7.36-.62.36-.87.36-.78.36-.8.37-.92.36-.82.36-.98.36-1.01.37-1.09.36-1.28.36-1.19.36-1.29.36-1.22.37-1.44.36-1.49.36-1.48.36-1.85.36-1.74.37-2.01.36 1.21.36.91.36 1.14.36 1.07.37 1.01.36.95.36.85.36.73.37.9.36.8.36.87.36.97.36.87.37.79.36.61.36.64.36.61.36.77.37.46.36.5.36.54.36.56.36.65.37.55.36.64.36.38.36.51.36.54.37.31.36.38.36.46.36.35.37.36.36.25.36.25.36.42.36.42.37.37.36.14.36.2.36.17.36.3.37.36.36.12.36.36.36.34.36.32.37.2.36.22.36.23.36.01.37-.07.36.05.36-.03.36.03.36-.06.37.03.36-.13.36-.04.36-.15.36-.16.37-.08.36-.27.36-.14.36-.17.36-.13.37-.19.36-.27.36-.23.36-.28.37-.29.36-.35.36-.32.36-.4.36-.39.37-.56.36-.45.36-.51.36-.29.36-.53.37-.71.36-.63.36-.75.36-.8.36-.8.37-.84.36-.96.36-.96.36-1.19.36-1.07.37-1.16.36-1.4.36-1.37.36-1.26.37-1.43.36-1.4.36-1.89.36-1.76.36-1.78.37-2.02.36 1.05.36 1.02.36 1.05.36.96.37.81.36 1.02.36.84.36.87.36.85.37.82.36.79.36.77.36.8.37.68.36.69.36.68.36.71.36.49.37.75.36.48.36.63.36.46.36.65.37.41.36.29.36.46.36.31.36.7.37.59.36.43.36.41.36.33.36.28.37.13.36.28.36.38.36.52.37.42.36.2.36.31.36.15.36.29.37.26.36.24.36.39.36.22.36.47.37.12.36.3.36.21.36-.06.36.11.37-.06.36.04.36-.09.36-.01.37-.07.36-.02.36.01.36-.11.36-.1.37-.03.36-.07.36-.02.36-.28.36-.14.37-.16.36-.1.36-.21.36-.25.36-.24.37-.26.36-.34.36-.38.36-.29.36-.52.37-.47.36-.42.36-.53.36-.66.37-.64.36-.58.36-.77.36-.74.36-.78.37-.69.36-.97.36-1.16.36-1.03.36-1.27.37-1.1.36-1.04.36-1.18.36-1.36.36-1.38.37-1.59.36-1.82.36-2.02.36-2.07.37-1.66.36 1.32.36 1.02.36.82.36 1.05.37.91.36 1.05.36.84.36.9.36 1.04.37.9.36.81.36.48.36.71.36.83.37.83.36.53.36.55.36.57.37.72.36.61.36.37.36.56.36.68.37.16.36.92.36.43.36.5.36.57.37.46.36.39.36.35.36.5.36.22.37.12.36.25.36.34.36.25.36.13.37.28.36.49.36.38.36.25.37.67.36.05.36.07.36.09.36.07.37.39.36.07.36.19"/><use xlink:href="#i" color="#D336C8" transform="matrix(3.75 0 0 3.75 125.4 158.84)"/><use xlink:href="#i" color="#D336C8" transform="matrix(3.75 0 0 3.75 220.55 7.51)"/></g><text fill="#000" stroke="none" stroke-linecap="round" stroke-linejoin="round" color="#000" font-family="KaTeX_Main" font-size="8" transform="translate(241.1 25.11)"><tspan>RedBlackRelaxedTopDown</tspan></text><g fill="none" stroke="currentColor" stroke-linecap="round" stroke-linejoin="round" color="#000"><path stroke="#FFAB00" stroke-dasharray="4.5,2.0,0.5,2.0,0.5,2.0" d="M205.6 22.51h29.9M28 182.44l.36-.01.36.81.37-.82.36-.55.36-.67.36-.74.36-.67.37-.69.36 4.84.36-.1.36-.01.37-.16.36-.04.36-.11.36-.2.36-.24.37-.54.36-.19.36-.25.36-.43.36-.44.37-.4.36-.54.36-.47.36-.42.36-.48.37.14.36-.33.36-.36.36-.38.36-.33.37-.45.36-.27.36-.51.36-.46.37-.54.36-.43.36-.52.36-.58.36-.57.37-.61.36-.63.36-.67.36-.71.36-.66.37-.64.36-.72.36-.58.36-.73.36-.72.37.44.36.39.36.45.36.39.37.35.36.37.36.45.36.37.36.33.37.38.36.37.36.33.36.42.36.37.37.22.36.33.36.36.36.37.36.36.37.38.36.3.36.3.36.35.37.22.36.15.36.3.36.08.36.09.37.12.36.11.36.06.36.12.36.14.37-.01.36-.06.36-.17.36-.24.36-.15.37-.42.36-.19.36-.3.36-.47.36-.45.37-.49.36-.4.36-.62.36-.59.37-.7.36-.63.36-.92.36-.12.36.04.37-.26.36-.2.36-.47.36-.27.36-.48.37-.46.36-.38.36-.47.36-.37.36-.45.37-.31.36-.59.36 3.3.36-.53.37-.52.36-.55.36-.5.36-.44.36-.37.37 1.28.36-.36.36-.52.36-.44.36-.55.37-.49.36-.47.36-.54.36-.46.36-.48.37-.31.36-.63.36-.51.36-.67.36-.47.37-.38.36-.57.36-.81.36-.61.37-.72.36-.07.36-.06.36.02.36-.12.37-3.9.36.54.36.49.36.4.36.48.37-.29.36-.22.36-.37.36-.3.36-.28.37-.33.36-.46.36-.43.36-.46.37-.44.36-.42.36-.52.36-.49.36-.47.37-.5.36-.46.36-.63.36-.56.36-.67.37-.71.36-.67.36-.64.36-.75.36-.74.37-.73.36-.79.36-.76.36-.85.36-.96.37-1 .36-.87.36-.98.36-1.07.37-1.13.36-1.34.36-1.23.36-1.27.36-1.43.37-1.63.36-1.56.36-1.55.36-1.72.36-1.71.37-1.92.36-1.8.36-2.09.36-2.21.36-1.91.37-2.19.36-2.39.36 1.41.36 1.38.37.97.36 1.27.36 1.05.36 1.05.36 1.32.37 1.05.36 1.12.36 1.09.36.89.36 1.44.37-.06.36.96.36.93.36.88.36.85.37 1.06.36.97.36.84.36.86.37.63.36 1 .36.65.36.81.36.71.37.68.36.57.36.64.36.75.36.41.37.54.36.64.36.57.36.47.36.59.37.65.36.68.36.43.36.4.36.42.37.41.36.49.36.62.36.68.37.43.36.52.36.67.36.47.36.9.37-.23.36-.27.36-.14.36-.29.36-.24.37-.16.36-.23.36-.24.36-.33.36-.36.37-.3.36-.33.36-.41.36-.35.37-.5.36-.34.36-.41.36-.44.36-.51.37-.58.36-.66.36-.48.36-.57.36-.75.37-.72.36-.72.36-.6.36-.89.36-.83.37-.89.36-1.05.36-.92.36-1.1.36-1.16.37-1.25.36-1.25.36-1.19.36-1.24.37-1.38.36-1.44.36-1.43.36-1.35.36-1.62.37-1.65.36-1.77.36-1.75.36-1.69.36-1.95.37-2.21.36-2.14.36 1.24.36 1.53.36 1.25.37 3.51.36 1.04.36.94.36 1.09.37 1.1.36 1.07.36.98.36.85.36 1.09.37.86.36.69.36.79.36.63.36.62.37.81.36.54.36.44.36.75.36.48.37.57.36.45.36.53.36.6.36.47.37.43.36.34.36.42.36.47.37.46.36.35.36.22.36.38.36.22.37.25.36.36.36.51.36.22.36.48.37.52.36.19.36.3.36.34.36.5.37.59.36.47.36.32.36.11.37-.11.36-.08.36-.05.36-.13.36-.13.37-.24.36-.14.36-.19.36-.31.36-.1.37-.04.36-.29.36-.35.36-.33.36-.27.37-.32.36-.3.36-.32.36-.39.37-.4.36-.31.36-.47.36-.5.36-.52.37-.49.36-.47.36-.54.36-.57.36-.67.37-.44.36-.86.36-.67.36-.51.36-.98.37-1.12.36-.93.36-.82.36-1.32.36-1.02.37-1.19.36-1.27.36-1.32.36-1.37.37-1.59.36-1.62.36-1.64.36-1.99.36-1.66.37-2.09.36-2 .36 1.36.36 1.17.36 1.22.37.85.36 1.02.36 1 .36.9.36.76.37.73.36.86.36.83.36.86.37.7.36.82.36.65.36.92.36.55.37.77.36.63.36.74.36.57.36.59.37.53.36.68.36.4.36.73.36.3.37.41.36.38.36.45.36.26.36.32.37.48.36.25.36.43.36.28.37.39.36.46.36.38.36.45.36.5.37.49.36.58.36.48.36.37.36.22.37.28.36.2.36.14.36.16.36-.14.37-.22.36-.07.36-.1.36-.04.37-.13.36-.13.36-.13.36-.07.36-.15.37-.05.36-.13.36-.22.36-.35.36-.23.37-.26.36-.31.36-.26.36-.26.36-.26.37-.29.36-.57.36-.4.36-.41.37-.36.36-.37.36-.58.36-.5.36-.48.37-.62.36-.82.36-.63.36-.69.36-.83.37-.85.36-.92.36-.85.36-.99.36-1.3.37-1.19.36-1.26.36-1.04.36-1.31.36-1.45.37-1.38.36-1.48.36-1.44.36-1.71.37-1.83.36-1.87.36 1.15.36 1.51.36 1.41.37 1.04.36 1.13.36.95.36.91.36.89.37.95.36.9.36.82.36.81.36.75.37.77.36.64.36.7.36.57.37.89.36.54.36.5.36.71.36.69.37.57.36.41.36.39.36.58.36.52.37.45.36.48.36.44.36.45.36.47.37.35.36.42.36.71.36.33.36.32.37-8.6.36.52.36.5.36.73.37.97.36.58.36.5.36.6.36.6.37.5.36.41.36.44.36.84.36-.28.37-.41.36-.38.36-.21.36-.35.36-.19.37-.49.36-.34.36-.47.36-.48.37-.36.36-.34.36-.65.36-.51.36-.54.37-.53.36-.52.36-.79.36-.62.36-.75.37-.75.36-.73.36-.8.36-.9.36-.8.37-1 .36-.82.36-1.06.36-1.01.36-.95.37-1.28.36-1.31.36-1.22.36-1.2.37-1.38.36-1.46.36-1.53.36-1.77.36-1.95.37-1.9.36-1.86.36-1.96.36-2.12.36-1.96.37-2.15.36-2.37.36-2.56.36-2.62.36-2.53.37-2.67.36 3.15.36 2.13.36 1.79.37 2 .36 1.55.36 1.39.36 1.74.36 1.63.37 1.53.36 1.44.36 1.57.36 1.48.36 1.34.37 1.31.36 1.3.36 1.39.36 1.17.36 1.13.37.93.36 1.01.36 1.12.36 1.09.37.97.36 1.05.36.94.36.89.36.91.37.84.36.71.36.99.36.93.36.7.37.6.36.7.36.66.36.7.36.68.37.57.36.72.36.45.36.61.36.25.37.23.36.67.36.51.36.5.37.45.36.2.36.33.36.7.36-.29.37-.24.36-.17.36-.34.36-.3.36-.43.37-.37.36-.31.36-.36.36-.26.36-.4.37-.4.36-.24.36-.48.36-.59.37-.46.36-.51.36-.57.36-.64.36-.68.37-.79.36-.65.36-.83.36-.78.36-.97.37-.92.36-.83.36-.9.36-1.11.36-1.01.37-1.41.36-1.03.36-1.28.36-1.33.36-1.24.37-1.52.36-1.37.36-1.42.36-1.82.37-1.64.36-1.78.36-2.05.36-1.68.36-1.96.37-1.95.36-2.17.36-2.38.36-2.73.36-2.55.37-2.86.36 2.24.36 2.1.36 1.69.36 1.76.37 1.77.36 1.83.36 1.59.36 1.41.37 1.49.36 1.53.36 1.51.36 1.39.36 1.53.37 1.24.36 1.25.36 1.15.36 1.17.36 1.21.37 1.13.36.96.36.96.36 1.04.36.96.37.78.36.9.36.71.36.84.36 1.01.37.83.36.75.36.73.36.76.37.7.36.56.36.99.36.75.36.56.37.51.36.46.36.57.36.39.36.34.37.6.36.58.36.58.36.25.36.22.37.43.36.53.36.26.36-.29.37-.1.36-.19.36-.34.36-.28.36-.25.37-.06.36-.19.36-.3.36-.45.36-.36.37-.43.36-.5.36-.54.36-.64.36-.53.37-.42.36-.62.36-.56.36-.59.37-.66.36-.76.36-.85.36-.81.36-.86.37-.99.36-.77.36-1.05.36-.77.36-.99.37-1.08.36-1.19.36-1.25.36-1.26.36-1.29.37-1.31.36-1.33.36-1.35.36-1.71.36-1.53.37-1.78.36-1.97.36-1.94.36-1.93.37-2.1.36-1.89.36-2.7.36-2.48.36-2.65.37-2.79.36 1.94.36 1.97.36 1.76.36 1.8.37 1.63.36 1.8.36 1.49.36 1.61.36 1.52.37 1.48.36 1.35.36 1.17.36 1.33.37 1.31.36 1.07.36 1.21.36.86.36 1.22.37 1 .36.94.36 1.21.36.88.36.91.37.78.36.85.36.94.36.76.36 1.03.37.84.36.72.36.6.36.54.36.99.37.59.36.66.36.41.36.44.37.6.36.49.36.62.36.4.36.43.37.42.36.54.36.3.36.42.36.58.37.69.36.46.36.74.36-.31.36-.09.37-.33.36-.1.36-.2.36-.21.37-.21.36-.25.36-.34.36-.44.36-.5.37-.29.36-.35.36-.26.36-.64.36-.39.37-.56.36-.39.36-.45.36-.52.36-.61.37-.69.36-.61.36-.61.36-.71.36-.88.37-.88.36-.88.36-1.07.36-1.2.37-1.02.36-1.04.36-1.32.36-1.31.36-1.38.37-1.3.36-1.56.36-1.69.36-1.5.36-1.76.37-1.69.36-1.81.36-1.84.36-2.11.36-1.94.37-2.35.36-2.55.36-2.62.36-2.75.37-2.55.36 2.26.36 1.77.36 1.78.36 1.91.37 1.61.36 1.61.36 1.69.36 1.68.36 1.41.37 1.31.36 1.38.36 1.14.36 1.25.36 1.35.37 1.35.36 1.1.36 1.14.36.97.37 1.15.36 1.1.36.87.36 1.05.36.98.37.81.36.88.36.91.36.72.36.92.37.87.36.73.36.79.36.76.36.68.37.34.36.63.36.41.36.43.36.63.37.79.36.39.36.73.36.47.37.35.36.51.36.68.36.29.36.34.37.67.36.58.36.33"/><use xlink:href="#j" color="#FFAB00" transform="matrix(3.75 0 0 3.75 182.98 120.32)"/><use xlink:href="#j" color="#FFAB00" transform="matrix(3.75 0 0 3.75 220.55 22.51)"/></g><path fill="none" stroke="none" stroke-linecap="round" stroke-linejoin="round" stroke-width="0" d="M28 45.01V205M371.99 45.01H28" color="#000"/></svg>