<svg xmlns="http://www.w3.org/2000/svg" xmlns:xlink="http://www.w3.org/1999/xlink" viewBox="0 0 400 250"><path fill="none" d="M0 0h400v250H0z"/><defs><path id="d" stroke="currentColor" stroke-width=".267" d="M-1-1h2v2h-2z"/><path id="g" fill="currentColor" stroke="currentColor" stroke-width=".267" d="M-1-1h2v2h-2z"/><path id="b" stroke="currentColor" stroke-width=".267" d="m0-1.33-1.33 2h2.66z"/><path id="f" stroke="currentColor" stroke-width=".267" d="M0 1.33 1.265.411.782-1.067l-1.564-.009-.483 1.487z"/><use xlink:href="#b" id="c" stroke="currentColor" transform="rotate(180)"/><use xlink:href="#d" id="e" stroke="currentColor" transform="rotate(45)"/><circle id="a" cx="0" cy="0" r="1" stroke="currentColor" stroke-width=".267"/></defs><path fill="none" stroke="#000" stroke-linecap="round" stroke-linejoin="round" stroke-width=".1" d="M35.48 205V45.01" class="gridline" color="#000"/><g fill="none" stroke="none" stroke-linecap="round" stroke-linejoin="round" stroke-width="0" color="#000"><path d="M35.48 205v-7.5m0-152.49v7.5"/><text fill="#000" font-family="KaTeX_Main" font-size="10" text-anchor="middle" transform="translate(35.48 215.75)"><tspan> 1</tspan></text></g><path fill="none" stroke="#000" stroke-linecap="round" stroke-linejoin="round" stroke-width=".1" d="M72.87 205V45.01" class="gridline" color="#000"/><g fill="none" stroke="none" stroke-linecap="round" stroke-linejoin="round" stroke-width="0" color="#000"><path d="M72.87 205v-7.5m0-152.49v7.5"/><text fill="#000" font-family="KaTeX_Main" font-size="10" text-anchor="middle" transform="translate(72.87 215.75)"><tspan> 2</tspan></text></g><path fill="none" stroke="#000" stroke-linecap="round" stroke-linejoin="round" stroke-width=".1" d="M110.26 205V45.01" class="gridline" color="#000"/><g fill="none" stroke="none" stroke-linecap="round" stroke-linejoin="round" stroke-width="0" color="#000"><path d="M110.26 205v-7.5m0-152.49v7.5"/><text fill="#000" font-family="KaTeX_Main" font-size="10" text-anchor="middle" transform="translate(110.26 215.75)"><tspan> 3</tspan></text></g><path fill="none" stroke="#000" stroke-linecap="round" stroke-linejoin="round" stroke-width=".1" d="M147.65 205V45.01" class="gridline" color="#000"/><g fill="none" stroke="none" stroke-linecap="round" stroke-linejoin="round" stroke-width="0" color="#000"><path d="M147.65 205v-7.5m0-152.49v7.5"/><text fill="#000" font-family="KaTeX_Main" font-size="10" text-anchor="middle" transform="translate(147.65 215.75)"><tspan> 4</tspan></text></g><path fill="none" stroke="#000" stroke-linecap="round" stroke-linejoin="round" stroke-width=".1" d="M185.04 205V45.01" class="gridline" color="#000"/><g fill="none" stroke="none" stroke-linecap="round" stroke-linejoin="round" stroke-width="0" color="#000"><path d="M185.04 205v-7.5m0-152.49v7.5"/><text fill="#000" font-family="KaTeX_Main" font-size="10" text-anchor="middle" transform="translate(185.04 215.75)"><tspan> 5</tspan></text></g><path fill="none" stroke="#000" stroke-linecap="round" stroke-linejoin="round" stroke-width=".1" d="M222.43 205V45.01" class="gridline" color="#000"/><g fill="none" stroke="none" stroke-linecap="round" stroke-linejoin="round" stroke-width="0" color="#000"><path d="M222.43 205v-7.5m0-152.49v7.5"/><text fill="#000" font-family="KaTeX_Main" font-size="10" text-anchor="middle" transform="translate(222.43 215.75)"><tspan> 6</tspan></text></g><path fill="none" stroke="#000" stroke-linecap="round" stroke-linejoin="round" stroke-width=".1" d="M259.82 205V45.01" class="gridline" color="#000"/><g fill="none" stroke="none" stroke-linecap="round" stroke-linejoin="round" stroke-width="0" color="#000"><path d="M259.82 205v-7.5m0-152.49v7.5"/><text fill="#000" font-family="KaTeX_Main" font-size="10" text-anchor="middle" transform="translate(259.82 215.75)"><tspan> 7</tspan></text></g><path fill="none" stroke="#000" stroke-linecap="round" stroke-linejoin="round" stroke-width=".1" d="M297.21 205V45.01" class="gridline" color="#000"/><g fill="none" stroke="none" stroke-linecap="round" stroke-linejoin="round" stroke-width="0" color="#000"><path d="M297.21 205v-7.5m0-152.49v7.5"/><text fill="#000" font-family="KaTeX_Main" font-size="10" text-anchor="middle" transform="translate(297.21 215.75)"><tspan> 8</tspan></text></g><path fill="none" stroke="#000" stroke-linecap="round" stroke-linejoin="round" stroke-width=".1" d="M334.6 205V45.01" class="gridline" color="#000"/><g fill="none" stroke="none" stroke-linecap="round" stroke-linejoin="round" stroke-width="0" color="#000"><path d="M334.6 205v-7.5m0-152.49v7.5"/><text fill="#000" font-family="KaTeX_Main" font-size="10" text-anchor="middle" transform="translate(334.6 215.75)"><tspan> 9</tspan></text></g><path fill="none" stroke="#000" stroke-linecap="round" stroke-linejoin="round" stroke-width=".1" d="M371.99 205V45.01" class="gridline" color="#000"/><g fill="none" stroke="none" stroke-linecap="round" stroke-linejoin="round" stroke-width="0" color="#000"><path d="M371.99 205v-7.5m0-152.49v7.5"/><text fill="#000" font-family="KaTeX_Main" font-size="10" text-anchor="middle" transform="translate(371.99 215.75)"><tspan> 10</tspan></text></g><g fill="none" stroke="none" stroke-linecap="round" stroke-linejoin="round" stroke-width="0" color="#000"><path d="M371.99 205h-7.5"/><text fill="#000" font-family="KaTeX_Main" font-size="10" transform="translate(378.99 208.25)"><tspan>1.11</tspan></text></g><g fill="none" stroke="none" stroke-linecap="round" stroke-linejoin="round" stroke-width="0" color="#000"><path d="M371.99 178.34h-7.5"/><text fill="#000" font-family="KaTeX_Main" font-size="10" transform="translate(378.99 181.59)"><tspan>1.12</tspan></text></g><g fill="none" stroke="none" stroke-linecap="round" stroke-linejoin="round" stroke-width="0" color="#000"><path d="M371.99 151.67h-7.5"/><text fill="#000" font-family="KaTeX_Main" font-size="10" transform="translate(378.99 154.92)"><tspan>1.12</tspan></text></g><g fill="none" stroke="none" stroke-linecap="round" stroke-linejoin="round" stroke-width="0" color="#000"><path d="M371.99 125.01h-7.5"/><text fill="#000" font-family="KaTeX_Main" font-size="10" transform="translate(378.99 128.26)"><tspan>1.13</tspan></text></g><g fill="none" stroke="none" stroke-linecap="round" stroke-linejoin="round" stroke-width="0" color="#000"><path d="M371.99 98.34h-7.5"/><text fill="#000" font-family="KaTeX_Main" font-size="10" transform="translate(378.99 101.59)"><tspan>1.13</tspan></text></g><g fill="none" stroke="none" stroke-linecap="round" stroke-linejoin="round" stroke-width="0" color="#000"><path d="M371.99 71.68h-7.5"/><text fill="#000" font-family="KaTeX_Main" font-size="10" transform="translate(378.99 74.93)"><tspan>1.14</tspan></text></g><g fill="none" stroke="none" stroke-linecap="round" stroke-linejoin="round" stroke-width="0" color="#000"><path d="M371.99 45.01h-7.5"/><text fill="#000" font-family="KaTeX_Main" font-size="10" transform="translate(378.99 48.26)"><tspan>1.14</tspan></text></g><path fill="none" stroke="none" stroke-linecap="round" stroke-linejoin="round" stroke-width="0" d="M28 45.01V205M371.99 45.01H28" color="#000"/><text fill="#000" stroke="none" stroke-linecap="round" stroke-linejoin="round" stroke-width="0" color="#000" font-family="KaTeX_Main" font-size="10" text-anchor="middle" transform="rotate(-90 68.255 56.755)"><tspan font-weight="bold">Allocations </tspan><tspan> / log</tspan><tspan dy="3" font-size="8">2</tspan><tspan dy="-3">(Size)</tspan></text><text fill="#000" stroke="none" stroke-linecap="round" stroke-linejoin="round" stroke-width="0" color="#000" font-family="KaTeX_Main" font-size="10" text-anchor="middle" transform="translate(199.99 238.25)"><tspan>Operations × 10</tspan><tspan dy="-5" font-size="8">5</tspan></text><text fill="#000" stroke="none" stroke-linecap="round" stroke-linejoin="round" color="#000" font-family="KaTeX_Main" font-size="8" transform="translate(71.2 10.11)"><tspan>RedBlackBottomUp</tspan></text><g fill="none" stroke="currentColor" stroke-linecap="round" stroke-linejoin="round" color="#000"><path stroke="#F44336" d="M35.7 7.51h29.9M28 46.77l.37.8.38.75.37.74.38.7.37.74.37.7.38.69.37.64.38.64.37.64.37.59.38.53.37.53.37.48.38.48.37.48.38.43.37.43.37.42.38.48.37.43.38.48.37.43.37.53.38.53.37.54.38.58.37.59.37.64.38.69.37.7.37.69.38.69.37.7.38.74.37.7.37.69.38.64.37.69.38.59.37.64.37.53.38.59.37.48.38.48.37.48.37.42.38.43.37.43.38.37.37.37.37.38.38.37.37.37.37.38.38.37.37.37.38.38.37.37.37.37.38.38.37.42.38.38.37.37.37.37.38.38.37.37.38.32.37.37.37.32.38.32.37.32.37.32.38.27.37.27.38.26.37.27.37.21.38.22.37.21.38.21.37.16.37.22.38.16.37.16.38.16.37.1.37.16.38.11.37.16.38.11.37.1.37.11.38.11.37.16.37.1.38.11.37.11.38.16.37.16.37.1.38.16.37.16.38.16.37.22.37.16.38.21.37.21.38.22.37.21.37.21.38.27.37.21.37.27.38.27.37.26.38.27.37.27.37.26.38.27.37.27.38.26.37.27.37.27.38.21.37.27.38.26.37.27.37.27.38.21.37.27.38.26.37.27.37.21.38.27.37.27.37.26.38.27.37.27.38.26.37.27.37.27.38.26.37.32.38.27.37.27.37.26.38.27.37.27.38.26.37.27.37.27.38.21.37.27.37.21.38.21.37.22.38.21.37.16.37.16.38.21.37.11.38.16.37.16.37.16.38.11.37.1.38.16.37.11.37.16.38.11.37.16.38.1.37.16.37.16.38.16.37.16.37.22.38.21.37.21.38.22.37.21.37.27.38.26.37.27.38.27.37.32.37.26.38.32.37.32.38.32.37.38.37.32.38.37.37.32.37.37.38.32.37.32.38.38.37.32.37.32.38.32.37.26.38.32.37.27.37.27.38.26.37.27.38.21.37.22.37.21.38.16.37.21.38.16.37.16.37.11.38.16.37.11.37.1.38.11.37.11.38.05.37.11.37.05.38.05.37.11.38.05.37.06.37.05.38.05.37.11.38.05.37.06.37.1.38.06.37.1.37.11.38.11.37.16.38.1.37.16.37.16.38.16.37.16.38.22.37.21.37.21.38.22.37.26.38.27.37.27.37.26.38.27.37.27.38.32.37.26.37.32.38.27.37.32.37.32.38.27.37.32.38.32.37.26.37.27.38.32.37.26.38.27.37.27.37.21.38.27.37.21.38.27.37.21.37.21.38.16.37.22.37.21.38.16.37.16.38.16.37.16.37.16.38.16.37.16.38.11.37.16.37.16.38.1.37.16.38.11.37.16.37.16.38.11.37.16.38.16.37.16.37.16.38.1.37.22.37.16.38.16.37.16.38.16.37.21.37.16.38.16.37.21.38.16.37.22.37.16.38.21.37.16.38.21.37.16.37.16.38.22.37.16.37.16.38.16.37.16.38.16.37.16.37.16.38.1.37.16.38.11.37.16.37.11.38.1.37.11.38.11.37.1.37.06.38.1.37.11.38.05.37.11.37.05.38.06.37.1.37.06.38.05.37.05.38.06.37.05.37.11.38.05.37.05.38.06.37.05.37.05.38.11.37.05.38.06.37.1.37.06.38.1.37.06.37.1.38.11.37.11.38.1.37.11.37.11.38.1.37.11.38.16.37.11.37.1.38.16.37.11.38.16.37.11.37.1.38.16.37.11.38.11.37.1.37.06.38.05.37.11h.37l.38.05h1.12l.37-.05.38-.06.37-.1.38-.06.37-.1.37-.16.38-.11.37-.16.38-.21.37-.16.37-.22.38-.16.37-.21.37-.21.38-.22.37-.21.38-.21.37-.22.37-.21.38-.21.37-.22.38-.16.37-.21.37-.16.38-.16.37-.16.38-.16.37-.11.37-.1.38-.11.37-.11.38-.05.37-.05.37-.06.38-.05h.37l.37-.05h.75l.38.05h.74l.38.05.37.06h.38l.37.05.37.05.38.06.37.05.38.05.37.06.37.05.38.05.37.06.37.05.38.05.37.06.38.05.37.05.37.06.38.05.37.05h.38l.37.06.37.05.38.05.37.06.38.05.37.05.37.06.38.05.37.11.38.05.37.05.37.11.38.05.37.11.37.05.38.11.37.11.38.1.37.11.37.11.38.1.37.11.38.16.37.11.37.16.38.1.37.16.38.11.37.16.37.11.38.16.37.16.37.1.38.16.37.11.38.16.37.16.37.11.38.16.37.1.38.11.37.16.37.11.38.1.37.11.38.11.37.05.37.11.38.1.37.06.37.05.38.11.37.05h.38l.37.05.37.06h.38l.37.05h2.25l.37-.05h.37l.38-.06h.37l.38-.05h.37l.37-.05.38-.06h.37l.37-.05.38-.05h.37l.38-.06h.37l.37-.05h.75l.38-.05H228.41l.38-.06h2.99l.37.06h2.24l.38.05h.75l.37.05h.37l.38.06h.37l.38.05h.37l.37.05h.38l.37.06.37.05h.38l.37.05.38.06h.37l.37.05.38.05h.37l.38.06.37.05h.37l.38.05h.37l.38.06.37.05h.37l.38.05h.37l.37.06.38.05.37.05.38.06.37.05.37.05.38.06.37.05.38.05.37.11.37.05.38.11.37.11.38.1.37.11.37.11.38.16.37.1.38.16.37.16.37.16.38.16.37.16.37.16.38.16.37.22.38.16.37.21.37.16.38.21.37.16.38.22.37.21.37.16.38.21.37.16.38.22.37.16.37.21.38.16.37.16.37.16.38.16.37.16.38.16.37.11.37.16.38.1.37.16.38.11.37.11.37.1.38.11.37.05.38.11.37.11.37.05.38.11.37.1.38.06.37.1.37.11.38.05.37.11.37.11.38.1.37.11.38.16.37.11.37.16.38.1.37.16.38.16.37.16.37.16.38.11.37.16.38.16.37.16.37.16.38.16.37.16.37.16.38.11.37.16.38.1.37.11.37.11.38.1.37.06.38.1.37.06.37.05.38.05.37.06h.38l.37.05h1.87l.37-.05h.38l.37-.06h.37l.38-.05.37-.05.38-.06.37-.05.37-.05.38-.11.37-.05.38-.06.37-.1.37-.06.38-.05.37-.11.38-.05.37-.11.37-.05.38-.05.37-.06.37-.05.38-.05h.37l.38-.06H294.59l.38.06.37.05h.37l.38.05.37.06.38.1.37.06.37.05.38.05.37.11.38.05.37.06.37.1.38.06.37.05.37.05.38.06.37.05.38.05.37.06.37.1.38.06.37.05.38.11.37.05.37.11.38.1.37.11.38.11.37.16.37.16.38.16.37.16.37.21.38.21.37.22.38.21.37.27.37.26.38.27.37.27.38.26.37.32.37.27.38.32.37.32.38.32.37.27.37.32.38.32.37.26.38.32.37.27.37.32.38.27.37.26.37.27.38.27.37.21.38.27.37.21.37.21.38.22.37.21.38.16.37.21.37.16.38.16.37.16.38.11.37.11.37.1.38.11.37.05.37.11h.38l.37.05.38.06h.74l.38.05h.75l.37.05h.37l.38.06.37.05.38.05.37.11.37.05.38.11.37.11.38.1.37.11.37.11.38.1.37.11.37.11.38.05.37.05.38.06.37.05h1.12l.38-.05.37-.06.37-.05.38-.05.37-.11.38-.11.37-.1.37-.11.38-.05.37-.11.37-.11.38-.05h1.12l.37.11.38.1.37.11.38.21.37.22.37.26.38.27.37.32.38.27.37.32.37.32.38.32.37.26.38.27.37.21.37.16.38.16.37.06.37.05.38.05.37-.05.38-.05.37-.11.37-.11.38-.1.37-.11.38-.16.37-.11.37-.05.38-.05.37-.06h.38l.37.06.37.05.38.11.37.1.37.16.38.16.37.16.38.11.37.05.37.06.38-.06.37-.05.38-.16.37-.27.37-.26.38-.32.37-.38.38-.42.37-.38.37-.32.38-.32.37-.21.38-.16.37-.05h.37l.38.1.37.22.37.26.38.43.37.48.38.59.37.64.37.69.38.75.37.74.38.75.37.64.37.59.38.42.37.27.38.11.37-.16.37-.22.38-.32.37-.32.37-.16.38-.1.37-.32.38-.8.37-1.23.37-1.17.38.16.37 2.34.38 2.62.37-6.14"/><use xlink:href="#e" color="#F44336" transform="matrix(3.75 0 0 3.75 342.45 167.51)"/><use xlink:href="#e" color="#F44336" transform="matrix(3.75 0 0 3.75 50.65 7.51)"/></g><text fill="#000" stroke="none" stroke-linecap="round" stroke-linejoin="round" color="#000" font-family="KaTeX_Main" font-size="8" transform="translate(71.2 25.11)"><tspan>RedBlackTopDown</tspan></text><g fill="none" stroke="currentColor" stroke-linecap="round" stroke-linejoin="round" color="#000"><path stroke="#3B75EA" stroke-dasharray="1.0,2.0" d="M35.7 22.51h29.9M28 50.93l.37.59.38.58.37.54.38.53.37.53.37.48.38.54.37.48.38.42.37.48.37.43.38.37.37.38.37.37.38.32.37.32.38.32.37.27.37.26.38.27.37.21.38.27.37.27.37.21.38.32.37.27.38.32.37.32.37.32.38.42.37.38.37.48.38.42.37.54.38.53.37.53.37.59.38.59.37.64.38.58.37.64.37.64.38.64.37.64.38.59.37.64.37.58.38.54.37.58.38.54.37.48.37.48.38.42.37.43.37.43.38.42.37.38.38.32.37.37.37.32.38.37.37.32.38.32.37.38.37.32.38.32.37.37.38.37.37.38.37.37.38.37.37.38.37.42.38.38.37.42.38.43.37.43.37.42.38.43.37.37.38.43.37.43.37.37.38.43.37.37.38.37.37.38.37.37.38.37.37.32.38.32.37.32.37.32.38.27.37.27.37.26.38.27.37.27.38.21.37.21.37.22.38.21.37.21.38.22.37.16.37.21.38.16.37.21.38.16.37.22.37.16.38.16.37.21.37.16.38.21.37.22.38.21.37.16.37.21.38.22.37.21.38.21.37.27.37.21.38.22.37.26.38.22.37.26.37.22.38.26.37.27.38.27.37.26.37.27.38.27.37.26.37.27.38.32.37.27.38.32.37.26.37.32.38.32.37.27.38.32.37.32.37.32.38.27.37.32.38.32.37.26.37.32.38.27.37.27.37.26.38.27.37.27.38.21.37.21.37.22.38.21.37.21.38.22.37.16.37.21.38.16.37.16.38.21.37.16.37.16.38.22.37.16.38.21.37.21.37.22.38.21.37.27.37.26.38.27.37.27.38.26.37.32.37.32.38.32.37.38.38.32.37.37.37.32.38.37.37.38.38.37.37.32.37.37.38.32.37.38.37.32.38.32.37.26.38.32.37.27.37.21.38.27.37.21.38.22.37.16.37.16.38.16.37.16.38.16.37.1.37.11.38.11.37.1.38.06.37.1.37.06.38.05.37.05.37.11.38.05.37.06.38.05.37.05.37.06.38.05.37.11.38.05.37.05.37.06.38.1.37.06.38.1.37.11.37.05.38.11.37.11.37.1.38.16.37.11.38.11.37.16.37.16.38.1.37.16.38.22.37.16.37.16.38.21.37.21.38.22.37.21.37.21.38.27.37.21.38.27.37.27.37.26.38.27.37.26.37.27.38.27.37.26.38.27.37.27.37.26.38.27.37.27.38.26.37.22.37.26.38.22.37.21.38.21.37.16.37.22.38.16.37.16.37.1.38.11.37.11.38.1.37.11.37.05.38.11.37.05.38.06h.37l.37.05h.75l.38.05h1.87l.37-.05h1.12l.37-.05h1.13l.37-.06h2.99l.38.06h.37l.37.05h.38l.37.05.37.06.38.05.37.05.38.06.37.05.37.05.38.11.37.05.38.11.37.11.37.05.38.11.37.1.38.11.37.11.37.1.38.11.37.11.38.16.37.1.37.11.38.16.37.11.37.16.38.1.37.16.38.11.37.16.37.11.38.16.37.1.38.16.37.16.37.11.38.16.37.16.38.11.37.16.37.16.38.1.37.16.37.16.38.16.37.16.38.16.37.16.37.16.38.22.37.16.38.16.37.21.37.21.38.16.37.22.38.21.37.21.37.22.38.21.37.21.38.16.37.22.37.21.38.21.37.22.37.21.38.16.37.21.38.16.37.16.37.16.38.16.37.16.38.11.37.16.37.11.38.05.37.11.38.1.37.06.37.05.38.05.37.06.37.05h.38l.37.05h.38l.37.06h.37l.38.05h.37l.38.05.37.06h.37l.38.05.37.05.38.11.37.05.37.11.38.05.37.11.38.11.37.16.37.1.38.16.37.11.37.16.38.21.37.16.38.16.37.16.37.22.38.16.37.21.38.16.37.21.37.16.38.22.37.16.38.16.37.16.37.16.38.16.37.16.37.16.38.1.37.16.38.11.37.11.37.1.38.06.37.1.38.11.37.05.37.06.38.05.37.05.38.06.37.05.37.05.38.06.37.05h.38l.37.05.37.06.38.05h.37l.37.05.38.06h.37l.38.05.37.05.37.06h.38l.37.05.38.05.37.06.37.05.38.05.37.06.38.05.37.05.37.06.38.05.37.05.37.06.38.05.37.05.38.06.37.05.37.11.38.05.37.05.38.06.37.05.37.11.38.05.37.05.38.06.37.05.37.11.38.05.37.05.37.06.38.05.37.05.38.06.37.05.37.05.38.06.37.05.38.05.37.06.37.05.38.05.37.06.38.05.37.05.37.06.38.05.37.05.38.06.37.05.37.05.38.11.37.05.37.11.38.05.37.11.38.11.37.05.37.11.38.1.37.11.38.11.37.16.37.1.38.11.37.11.38.1.37.11.37.11.38.1.37.11.37.11.38.1.37.11.38.05.37.11.37.05.38.06.37.05.38.11h.37l.37.05.38.05.37.06.38.05h.37l.37.05.38.06.37.05h.38l.37.05.37.06.38.05.37.05.37.11.38.05.37.06.38.1.37.11.37.05.38.11.37.11.38.1.37.11.37.11.38.05.37.11.38.1.37.11.37.05.38.11.37.05.37.06.38.05h.37l.38.05h.37l.37-.05h.38l.37-.05.38-.06.37-.05.37-.11.38-.05.37-.11.38-.1.37-.16.37-.11.38-.16.37-.11.38-.16.37-.16.37-.16.38-.1.37-.16.37-.16.38-.11.37-.11.38-.1.37-.11.37-.11.38-.1.37-.06.38-.05.37-.05.37-.06.38-.05h1.87l.37.05h.37l.38.06.37.05h.38l.37.05.37.06.38.1.37.06.38.05.37.11.37.05.38.11.37.1.38.06.37.1.37.16.38.11.37.11.38.16.37.1.37.16.38.16.37.16.37.16.38.16.37.16.38.16.37.22.37.16.38.16.37.16.38.16.37.16.37.16.38.16.37.16.38.16.37.1.37.11.38.11.37.1.37.11.38.05.37.11.38.05.37.06.37.05h.38l.37.05h.38l.37.06h1.12l.38.05h1.12l.37.05h.38l.37.06h.37l.38.05.37.05.37.06.38.05.37.11.38.05.37.11.37.1.38.06.37.1.38.11.37.11.37.1.38.11.37.11.38.1.37.06.37.1.38.11.37.05.37.06.38.1.37.06.38.05h.37l.37.05h.38l.37.06h1.87l.38-.06h.74l.38-.05h.37l.38-.05h.74l.38-.06h1.87l.37.06h.37l.38.05.37.05.38.06.37.05.37.05.38.11.37.05.38.11.37.11.37.1.38.11.37.11.37.1.38.11.37.16.38.11.37.1.37.11.38.11.37.1.38.11.37.11.37.1.38.11.37.05.38.11.37.05.37.11.38.05.37.06.38.05.37.05.37.06.38.05.37.05.37.06h.38l.37.05.38.05.37.06.37.1.38.06.37.05.38.11.37.05.37.11.38.1.37.11.38.11.37.1.37.11.38.11.37.1.37.06.38.1.37.06.38.05h.37l.37.05.38-.05h.37l.38-.05.37-.06.37-.05.38-.05.37-.11.38-.05.37-.11.37-.11.38-.05.37-.11.38-.05.37-.05.37-.06h.38l.37-.05h.37l.38.05.37.06.38.05.37.05.37.06.38.1.37.11.38.16.37.11.37.1.38.16.37.16.38.16.37.11.37.16.38.16.37.16.37.11.38.16.37.16.38.1.37.16.37.11.38.11.37.16.38.1.37.16.37.11.38.11.37.16.38.16.37.1.37.16.38.22.37.16.38.21.37.21.37.22.38.21.37.27.37.26.38.27.37.27.38.26.37.22.37.21.38.21.37.16.38.11.37.11h.37l.38.05.37-.05.38-.06.37-.05.37-.11.38-.16.37-.1.37-.16.38-.16.37-.16.38-.16.37-.22.37-.21.38-.21.37-.27.38-.32.37-.32.37-.32.38-.37.37-.38.38-.32.37-.37.37-.32.38-.27.37-.21.38-.16.37-.05.37.05.38.16.37.27.37.32.38.48.37.53.38.59.37.58.37.7.38.69.37.75.38.8.37.85.37.96.38.91.37.96.38.85.37.75.37.42.38.16.37-.11.37-.47.38-.64.37-.96.38-1.28.37-1.76.37-1.98.38-1.92.37-1.17.38.75.37 3.2"/><use xlink:href="#g" color="#3B75EA" transform="matrix(3.75 0 0 3.75 56.04 83.19)"/><use xlink:href="#g" color="#3B75EA" transform="matrix(3.75 0 0 3.75 50.65 22.51)"/></g><text fill="#000" stroke="none" stroke-linecap="round" stroke-linejoin="round" color="#000" font-family="KaTeX_Main" font-size="8" transform="translate(241.1 10.11)"><tspan>RedBlackRelaxedBottomUp</tspan></text><g fill="none" stroke="currentColor" stroke-linecap="round" stroke-linejoin="round" color="#000"><path stroke="#00C853" d="M205.6 7.51h29.9M28 46.77l.37.8.38.75.37.74.38.7.37.74.37.7.38.69.37.64.38.64.37.64.37.59.38.53.37.53.37.48.38.48.37.48.38.43.37.43.37.42.38.48.37.43.38.48.37.43.37.53.38.53.37.54.38.58.37.59.37.64.38.69.37.7.37.69.38.69.37.7.38.74.37.7.37.69.38.64.37.69.38.59.37.64.37.53.38.59.37.48.38.48.37.48.37.42.38.43.37.43.38.37.37.37.37.38.38.37.37.37.37.38.38.37.37.37.38.38.37.37.37.37.38.38.37.42.38.38.37.37.37.37.38.38.37.37.38.32.37.37.37.32.38.32.37.32.37.32.38.27.37.27.38.26.37.27.37.21.38.22.37.21.38.21.37.16.37.22.38.16.37.16.38.16.37.1.37.16.38.11.37.16.38.11.37.1.37.11.38.11.37.16.37.1.38.11.37.11.38.16.37.16.37.1.38.16.37.16.38.16.37.22.37.16.38.21.37.21.38.22.37.21.37.21.38.27.37.21.37.27.38.27.37.26.38.27.37.27.37.26.38.27.37.27.38.26.37.27.37.27.38.21.37.27.38.26.37.27.37.27.38.21.37.27.38.26.37.27.37.21.38.27.37.27.37.26.38.27.37.27.38.26.37.27.37.27.38.26.37.32.38.27.37.27.37.26.38.27.37.27.38.26.37.27.37.27.38.21.37.27.37.21.38.21.37.22.38.21.37.16.37.16.38.21.37.11.38.16.37.16.37.16.38.11.37.1.38.16.37.11.37.16.38.11.37.16.38.1.37.16.37.16.38.16.37.16.37.22.38.21.37.21.38.22.37.21.37.27.38.26.37.27.38.27.37.32.37.26.38.32.37.32.38.32.37.38.37.32.38.37.37.32.37.37.38.32.37.32.38.38.37.32.37.32.38.32.37.26.38.32.37.27.37.27.38.26.37.27.38.21.37.22.37.21.38.16.37.21.38.16.37.16.37.11.38.16.37.11.37.1.38.11.37.11.38.05.37.11.37.05.38.05.37.11.38.05.37.06.37.05.38.05.37.11.38.05.37.06.37.1.38.06.37.1.37.11.38.11.37.16.38.1.37.16.37.16.38.16.37.16.38.22.37.21.37.21.38.22.37.26.38.27.37.27.37.26.38.27.37.27.38.32.37.26.37.32.38.27.37.32.37.32.38.27.37.32.38.32.37.26.37.27.38.32.37.26.38.27.37.27.37.21.38.27.37.21.38.27.37.21.37.21.38.16.37.22.37.21.38.16.37.16.38.16.37.16.37.16.38.16.37.16.38.11.37.16.37.16.38.1.37.16.38.11.37.16.37.16.38.11.37.16.38.16.37.16.37.16.38.1.37.22.37.16.38.16.37.16.38.16.37.21.37.16.38.16.37.21.38.16.37.22.37.16.38.21.37.16.38.21.37.16.37.16.38.22.37.16.37.16.38.16.37.16.38.16.37.16.37.16.38.1.37.16.38.11.37.16.37.11.38.1.37.11.38.11.37.1.37.06.38.1.37.11.38.05.37.11.37.05.38.06.37.1.37.06.38.05.37.05.38.06.37.05.37.11.38.05.37.05.38.06.37.05.37.05.38.11.37.05.38.06.37.1.37.06.38.1.37.06.37.1.38.11.37.11.38.1.37.11.37.11.38.1.37.11.38.16.37.11.37.1.38.16.37.11.38.16.37.11.37.1.38.16.37.11.38.11.37.1.37.06.38.05.37.11h.37l.38.05h1.12l.37-.05.38-.06.37-.1.38-.06.37-.1.37-.16.38-.11.37-.16.38-.21.37-.16.37-.22.38-.16.37-.21.37-.21.38-.22.37-.21.38-.21.37-.22.37-.21.38-.21.37-.22.38-.16.37-.21.37-.16.38-.16.37-.16.38-.16.37-.11.37-.1.38-.11.37-.11.38-.05.37-.05.37-.06.38-.05h.37l.37-.05h.75l.38.05h.74l.38.05.37.06h.38l.37.05.37.05.38.06.37.05.38.05.37.06.37.05.38.05.37.06.37.05.38.05.37.06.38.05.37.05.37.06.38.05.37.05h.38l.37.06.37.05.38.05.37.06.38.05.37.05.37.06.38.05.37.11.38.05.37.05.37.11.38.05.37.11.37.05.38.11.37.11.38.1.37.11.37.11.38.1.37.11.38.16.37.11.37.16.38.1.37.16.38.11.37.16.37.11.38.16.37.16.37.1.38.16.37.11.38.16.37.16.37.11.38.16.37.1.38.11.37.16.37.11.38.1.37.11.38.11.37.05.37.11.38.1.37.06.37.05.38.11.37.05h.38l.37.05.37.06h.38l.37.05h2.25l.37-.05h.37l.38-.06h.37l.38-.05h.37l.37-.05.38-.06h.37l.37-.05.38-.05h.37l.38-.06h.37l.37-.05h.75l.38-.05H228.41l.38-.06h2.99l.37.06h2.24l.38.05h.75l.37.05h.37l.38.06h.37l.38.05h.37l.37.05h.38l.37.06.37.05h.38l.37.05.38.06h.37l.37.05.38.05h.37l.38.06.37.05h.37l.38.05h.37l.38.06.37.05h.37l.38.05h.37l.37.06.38.05.37.05.38.06.37.05.37.05.38.06.37.05.38.05.37.11.37.05.38.11.37.11.38.1.37.11.37.11.38.16.37.1.38.16.37.16.37.16.38.16.37.16.37.16.38.16.37.22.38.16.37.21.37.16.38.21.37.16.38.22.37.21.37.16.38.21.37.16.38.22.37.16.37.21.38.16.37.16.37.16.38.16.37.16.38.16.37.11.37.16.38.1.37.16.38.11.37.11.37.1.38.11.37.05.38.11.37.11.37.05.38.11.37.1.38.06.37.1.37.11.38.05.37.11.37.11.38.1.37.11.38.16.37.11.37.16.38.1.37.16.38.16.37.16.37.16.38.11.37.16.38.16.37.16.37.16.38.16.37.16.37.16.38.11.37.16.38.1.37.11.37.11.38.1.37.06.38.1.37.06.37.05.38.05.37.06h.38l.37.05h1.87l.37-.05h.38l.37-.06h.37l.38-.05.37-.05.38-.06.37-.05.37-.05.38-.11.37-.05.38-.06.37-.1.37-.06.38-.05.37-.11.38-.05.37-.11.37-.05.38-.05.37-.06.37-.05.38-.05h.37l.38-.06H294.59l.38.06.37.05h.37l.38.05.37.06.38.1.37.06.37.05.38.05.37.11.38.05.37.06.37.1.38.06.37.05.37.05.38.06.37.05.38.05.37.06.37.1.38.06.37.05.38.11.37.05.37.11.38.1.37.11.38.11.37.16.37.16.38.16.37.16.37.21.38.21.37.22.38.21.37.27.37.26.38.27.37.27.38.26.37.32.37.27.38.32.37.32.38.32.37.27.37.32.38.32.37.26.38.32.37.27.37.32.38.27.37.26.37.27.38.27.37.21.38.27.37.21.37.21.38.22.37.21.38.16.37.21.37.16.38.16.37.16.38.11.37.11.37.1.38.11.37.05.37.11h.38l.37.05.38.06h.74l.38.05h.75l.37.05h.37l.38.06.37.05.38.05.37.11.37.05.38.11.37.11.38.1.37.11.37.11.38.1.37.11.37.11.38.05.37.05.38.06.37.05h1.12l.38-.05.37-.06.37-.05.38-.05.37-.11.38-.11.37-.1.37-.11.38-.05.37-.11.37-.11.38-.05h1.12l.37.11.38.1.37.11.38.21.37.22.37.26.38.27.37.32.38.27.37.32.37.32.38.32.37.26.38.27.37.21.37.16.38.16.37.06.37.05.38.05.37-.05.38-.05.37-.11.37-.11.38-.1.37-.11.38-.16.37-.11.37-.05.38-.05.37-.06h.38l.37.06.37.05.38.11.37.1.37.16.38.16.37.16.38.11.37.05.37.06.38-.06.37-.05.38-.16.37-.27.37-.26.38-.32.37-.38.38-.42.37-.38.37-.32.38-.32.37-.21.38-.16.37-.05h.37l.38.1.37.22.37.26.38.43.37.48.38.59.37.64.37.69.38.75.37.74.38.75.37.64.37.59.38.42.37.27.38.11.37-.16.37-.22.38-.32.37-.32.37-.16.38-.1.37-.32.38-.8.37-1.23.37-1.17.38.16.37 2.34.38 2.62.37-6.14"/><use xlink:href="#b" color="#00C853" transform="matrix(3.75 0 0 3.75 113.62 117.22)"/><use xlink:href="#b" color="#00C853" transform="matrix(3.75 0 0 3.75 220.55 7.51)"/></g><text fill="#000" stroke="none" stroke-linecap="round" stroke-linejoin="round" color="#000" font-family="KaTeX_Main" font-size="8" transform="translate(241.1 25.11)"><tspan>RedBlackRelaxedTopDown</tspan></text><g fill="none" stroke="currentColor" stroke-linecap="round" stroke-linejoin="round" color="#000"><path stroke="#FFAB00" stroke-dasharray="4.5,2.0,0.5,2.0,0.5,2.0" d="M205.6 22.51h29.9M28 50.93l.37.59.38.58.37.54.38.53.37.53.37.48.38.54.37.48.38.42.37.48.37.43.38.37.37.38.37.37.38.32.37.32.38.32.37.27.37.26.38.27.37.21.38.27.37.27.37.21.38.32.37.27.38.32.37.32.37.32.38.42.37.38.37.48.38.42.37.54.38.53.37.53.37.59.38.59.37.64.38.58.37.64.37.64.38.64.37.64.38.59.37.64.37.58.38.54.37.58.38.54.37.48.37.48.38.42.37.43.37.43.38.42.37.38.38.32.37.37.37.32.38.37.37.32.38.32.37.38.37.32.38.32.37.37.38.37.37.38.37.37.38.37.37.38.37.42.38.38.37.42.38.43.37.43.37.42.38.43.37.37.38.43.37.43.37.37.38.43.37.37.38.37.37.38.37.37.38.37.37.32.38.32.37.32.37.32.38.27.37.27.37.26.38.27.37.27.38.21.37.21.37.22.38.21.37.21.38.22.37.16.37.21.38.16.37.21.38.16.37.22.37.16.38.16.37.21.37.16.38.21.37.22.38.21.37.16.37.21.38.22.37.21.38.21.37.27.37.21.38.22.37.26.38.22.37.26.37.22.38.26.37.27.38.27.37.26.37.27.38.27.37.26.37.27.38.32.37.27.38.32.37.26.37.32.38.32.37.27.38.32.37.32.37.32.38.27.37.32.38.32.37.26.37.32.38.27.37.27.37.26.38.27.37.27.38.21.37.21.37.22.38.21.37.21.38.22.37.16.37.21.38.16.37.16.38.21.37.16.37.16.38.22.37.16.38.21.37.21.37.22.38.21.37.27.37.26.38.27.37.27.38.26.37.32.37.32.38.32.37.38.38.32.37.37.37.32.38.37.37.38.38.37.37.32.37.37.38.32.37.38.37.32.38.32.37.26.38.32.37.27.37.21.38.27.37.21.38.22.37.16.37.16.38.16.37.16.38.16.37.1.37.11.38.11.37.1.38.06.37.1.37.06.38.05.37.05.37.11.38.05.37.06.38.05.37.05.37.06.38.05.37.11.38.05.37.05.37.06.38.1.37.06.38.1.37.11.37.05.38.11.37.11.37.1.38.16.37.11.38.11.37.16.37.16.38.1.37.16.38.22.37.16.37.16.38.21.37.21.38.22.37.21.37.21.38.27.37.21.38.27.37.27.37.26.38.27.37.26.37.27.38.27.37.26.38.27.37.27.37.26.38.27.37.27.38.26.37.22.37.26.38.22.37.21.38.21.37.16.37.22.38.16.37.16.37.1.38.11.37.11.38.1.37.11.37.05.38.11.37.05.38.06h.37l.37.05h.75l.38.05h1.87l.37-.05h1.12l.37-.05h1.13l.37-.06h2.99l.38.06h.37l.37.05h.38l.37.05.37.06.38.05.37.05.38.06.37.05.37.05.38.11.37.05.38.11.37.11.37.05.38.11.37.1.38.11.37.11.37.1.38.11.37.11.38.16.37.1.37.11.38.16.37.11.37.16.38.1.37.16.38.11.37.16.37.11.38.16.37.1.38.16.37.16.37.11.38.16.37.16.38.11.37.16.37.16.38.1.37.16.37.16.38.16.37.16.38.16.37.16.37.16.38.22.37.16.38.16.37.21.37.21.38.16.37.22.38.21.37.21.37.22.38.21.37.21.38.16.37.22.37.21.38.21.37.22.37.21.38.16.37.21.38.16.37.16.37.16.38.16.37.16.38.11.37.16.37.11.38.05.37.11.38.1.37.06.37.05.38.05.37.06.37.05h.38l.37.05h.38l.37.06h.37l.38.05h.37l.38.05.37.06h.37l.38.05.37.05.38.11.37.05.37.11.38.05.37.11.38.11.37.16.37.1.38.16.37.11.37.16.38.21.37.16.38.16.37.16.37.22.38.16.37.21.38.16.37.21.37.16.38.22.37.16.38.16.37.16.37.16.38.16.37.16.37.16.38.1.37.16.38.11.37.11.37.1.38.06.37.1.38.11.37.05.37.06.38.05.37.05.38.06.37.05.37.05.38.06.37.05h.38l.37.05.37.06.38.05h.37l.37.05.38.06h.37l.38.05.37.05.37.06h.38l.37.05.38.05.37.06.37.05.38.05.37.06.38.05.37.05.37.06.38.05.37.05.37.06.38.05.37.05.38.06.37.05.37.11.38.05.37.05.38.06.37.05.37.11.38.05.37.05.38.06.37.05.37.11.38.05.37.05.37.06.38.05.37.05.38.06.37.05.37.05.38.06.37.05.38.05.37.06.37.05.38.05.37.06.38.05.37.05.37.06.38.05.37.05.38.06.37.05.37.05.38.11.37.05.37.11.38.05.37.11.38.11.37.05.37.11.38.1.37.11.38.11.37.16.37.1.38.11.37.11.38.1.37.11.37.11.38.1.37.11.37.11.38.1.37.11.38.05.37.11.37.05.38.06.37.05.38.11h.37l.37.05.38.05.37.06.38.05h.37l.37.05.38.06.37.05h.38l.37.05.37.06.38.05.37.05.37.11.38.05.37.06.38.1.37.11.37.05.38.11.37.11.38.1.37.11.37.11.38.05.37.11.38.1.37.11.37.05.38.11.37.05.37.06.38.05h.37l.38.05h.37l.37-.05h.38l.37-.05.38-.06.37-.05.37-.11.38-.05.37-.11.38-.1.37-.16.37-.11.38-.16.37-.11.38-.16.37-.16.37-.16.38-.1.37-.16.37-.16.38-.11.37-.11.38-.1.37-.11.37-.11.38-.1.37-.06.38-.05.37-.05.37-.06.38-.05h1.87l.37.05h.37l.38.06.37.05h.38l.37.05.37.06.38.1.37.06.38.05.37.11.37.05.38.11.37.1.38.06.37.1.37.16.38.11.37.11.38.16.37.1.37.16.38.16.37.16.37.16.38.16.37.16.38.16.37.22.37.16.38.16.37.16.38.16.37.16.37.16.38.16.37.16.38.16.37.1.37.11.38.11.37.1.37.11.38.05.37.11.38.05.37.06.37.05h.38l.37.05h.38l.37.06h1.12l.38.05h1.12l.37.05h.38l.37.06h.37l.38.05.37.05.37.06.38.05.37.11.38.05.37.11.37.1.38.06.37.1.38.11.37.11.37.1.38.11.37.11.38.1.37.06.37.1.38.11.37.05.37.06.38.1.37.06.38.05h.37l.37.05h.38l.37.06h1.87l.38-.06h.74l.38-.05h.37l.38-.05h.74l.38-.06h1.87l.37.06h.37l.38.05.37.05.38.06.37.05.37.05.38.11.37.05.38.11.37.11.37.1.38.11.37.11.37.1.38.11.37.16.38.11.37.1.37.11.38.11.37.1.38.11.37.11.37.1.38.11.37.05.38.11.37.05.37.11.38.05.37.06.38.05.37.05.37.06.38.05.37.05.37.06h.38l.37.05.38.05.37.06.37.1.38.06.37.05.38.11.37.05.37.11.38.1.37.11.38.11.37.1.37.11.38.11.37.1.37.06.38.1.37.06.38.05h.37l.37.05.38-.05h.37l.38-.05.37-.06.37-.05.38-.05.37-.11.38-.05.37-.11.37-.11.38-.05.37-.11.38-.05.37-.05.37-.06h.38l.37-.05h.37l.38.05.37.06.38.05.37.05.37.06.38.1.37.11.38.16.37.11.37.1.38.16.37.16.38.16.37.11.37.16.38.16.37.16.37.11.38.16.37.16.38.1.37.16.37.11.38.11.37.16.38.1.37.16.37.11.38.11.37.16.38.16.37.1.37.16.38.22.37.16.38.21.37.21.37.22.38.21.37.27.37.26.38.27.37.27.38.26.37.22.37.21.38.21.37.16.38.11.37.11h.37l.38.05.37-.05.38-.06.37-.05.37-.11.38-.16.37-.1.37-.16.38-.16.37-.16.38-.16.37-.22.37-.21.38-.21.37-.27.38-.32.37-.32.37-.32.38-.37.37-.38.38-.32.37-.37.37-.32.38-.27.37-.21.38-.16.37-.05.37.05.38.16.37.27.37.32.38.48.37.53.38.59.37.58.37.7.38.69.37.75.38.8.37.85.37.96.38.91.37.96.38.85.37.75.37.42.38.16.37-.11.37-.47.38-.64.37-.96.38-1.28.37-1.76.37-1.98.38-1.92.37-1.17.38.75.37 3.2"/><use xlink:href="#g" color="#FFAB00" transform="matrix(3.75 0 0 3.75 171.2 139.83)"/><use xlink:href="#g" color="#FFAB00" transform="matrix(3.75 0 0 3.75 220.55 22.51)"/></g><path fill="none" stroke="none" stroke-linecap="round" stroke-linejoin="round" stroke-width="0" d="M28 45.01V205M371.99 45.01H28" color="#000"/></svg>