<svg xmlns="http://www.w3.org/2000/svg" xmlns:xlink="http://www.w3.org/1999/xlink" viewBox="0 0 400 250"><path fill="none" d="M0 0h400v250H0z"/><defs><path id="d" stroke="currentColor" stroke-width=".267" d="M-1-1h2v2h-2z"/><path id="g" fill="currentColor" stroke="currentColor" stroke-width=".267" d="M-1-1h2v2h-2z"/><path id="b" stroke="currentColor" stroke-width=".267" d="m0-1.33-1.33 2h2.66z"/><path id="f" stroke="currentColor" stroke-width=".267" d="M0 1.33 1.265.411.782-1.067l-1.564-.009-.483 1.487z"/><use xlink:href="#b" id="c" stroke="currentColor" transform="rotate(180)"/><use xlink:href="#d" id="e" stroke="currentColor" transform="rotate(45)"/><circle id="a" cx="0" cy="0" r="1" stroke="currentColor" stroke-width=".267"/></defs><path fill="none" stroke="#000" stroke-linecap="round" stroke-linejoin="round" stroke-width=".1" d="M35.48 205V45.01" class="gridline" color="#000"/><g fill="none" stroke="none" stroke-linecap="round" stroke-linejoin="round" stroke-width="0" color="#000"><path d="M35.48 205v-7.5m0-152.49v7.5"/><text fill="#000" font-family="KaTeX_Main" font-size="10" text-anchor="middle" transform="translate(35.48 215.75)"><tspan> 1</tspan></text></g><path fill="none" stroke="#000" stroke-linecap="round" stroke-linejoin="round" stroke-width=".1" d="M72.87 205V45.01" class="gridline" color="#000"/><g fill="none" stroke="none" stroke-linecap="round" stroke-linejoin="round" stroke-width="0" color="#000"><path d="M72.87 205v-7.5m0-152.49v7.5"/><text fill="#000" font-family="KaTeX_Main" font-size="10" text-anchor="middle" transform="translate(72.87 215.75)"><tspan> 2</tspan></text></g><path fill="none" stroke="#000" stroke-linecap="round" stroke-linejoin="round" stroke-width=".1" d="M110.26 205V45.01" class="gridline" color="#000"/><g fill="none" stroke="none" stroke-linecap="round" stroke-linejoin="round" stroke-width="0" color="#000"><path d="M110.26 205v-7.5m0-152.49v7.5"/><text fill="#000" font-family="KaTeX_Main" font-size="10" text-anchor="middle" transform="translate(110.26 215.75)"><tspan> 3</tspan></text></g><path fill="none" stroke="#000" stroke-linecap="round" stroke-linejoin="round" stroke-width=".1" d="M147.65 205V45.01" class="gridline" color="#000"/><g fill="none" stroke="none" stroke-linecap="round" stroke-linejoin="round" stroke-width="0" color="#000"><path d="M147.65 205v-7.5m0-152.49v7.5"/><text fill="#000" font-family="KaTeX_Main" font-size="10" text-anchor="middle" transform="translate(147.65 215.75)"><tspan> 4</tspan></text></g><path fill="none" stroke="#000" stroke-linecap="round" stroke-linejoin="round" stroke-width=".1" d="M185.04 205V45.01" class="gridline" color="#000"/><g fill="none" stroke="none" stroke-linecap="round" stroke-linejoin="round" stroke-width="0" color="#000"><path d="M185.04 205v-7.5m0-152.49v7.5"/><text fill="#000" font-family="KaTeX_Main" font-size="10" text-anchor="middle" transform="translate(185.04 215.75)"><tspan> 5</tspan></text></g><path fill="none" stroke="#000" stroke-linecap="round" stroke-linejoin="round" stroke-width=".1" d="M222.43 205V45.01" class="gridline" color="#000"/><g fill="none" stroke="none" stroke-linecap="round" stroke-linejoin="round" stroke-width="0" color="#000"><path d="M222.43 205v-7.5m0-152.49v7.5"/><text fill="#000" font-family="KaTeX_Main" font-size="10" text-anchor="middle" transform="translate(222.43 215.75)"><tspan> 6</tspan></text></g><path fill="none" stroke="#000" stroke-linecap="round" stroke-linejoin="round" stroke-width=".1" d="M259.82 205V45.01" class="gridline" color="#000"/><g fill="none" stroke="none" stroke-linecap="round" stroke-linejoin="round" stroke-width="0" color="#000"><path d="M259.82 205v-7.5m0-152.49v7.5"/><text fill="#000" font-family="KaTeX_Main" font-size="10" text-anchor="middle" transform="translate(259.82 215.75)"><tspan> 7</tspan></text></g><path fill="none" stroke="#000" stroke-linecap="round" stroke-linejoin="round" stroke-width=".1" d="M297.21 205V45.01" class="gridline" color="#000"/><g fill="none" stroke="none" stroke-linecap="round" stroke-linejoin="round" stroke-width="0" color="#000"><path d="M297.21 205v-7.5m0-152.49v7.5"/><text fill="#000" font-family="KaTeX_Main" font-size="10" text-anchor="middle" transform="translate(297.21 215.75)"><tspan> 8</tspan></text></g><path fill="none" stroke="#000" stroke-linecap="round" stroke-linejoin="round" stroke-width=".1" d="M334.6 205V45.01" class="gridline" color="#000"/><g fill="none" stroke="none" stroke-linecap="round" stroke-linejoin="round" stroke-width="0" color="#000"><path d="M334.6 205v-7.5m0-152.49v7.5"/><text fill="#000" font-family="KaTeX_Main" font-size="10" text-anchor="middle" transform="translate(334.6 215.75)"><tspan> 9</tspan></text></g><path fill="none" stroke="#000" stroke-linecap="round" stroke-linejoin="round" stroke-width=".1" d="M371.99 205V45.01" class="gridline" color="#000"/><g fill="none" stroke="none" stroke-linecap="round" stroke-linejoin="round" stroke-width="0" color="#000"><path d="M371.99 205v-7.5m0-152.49v7.5"/><text fill="#000" font-family="KaTeX_Main" font-size="10" text-anchor="middle" transform="translate(371.99 215.75)"><tspan> 10</tspan></text></g><g fill="none" stroke="none" stroke-linecap="round" stroke-linejoin="round" stroke-width="0" color="#000"><path d="M371.99 205h-7.5"/><text fill="#000" font-family="KaTeX_Main" font-size="10" transform="translate(378.99 208.25)"><tspan>0.90</tspan></text></g><g fill="none" stroke="none" stroke-linecap="round" stroke-linejoin="round" stroke-width="0" color="#000"><path d="M371.99 178.33h-7.5"/><text fill="#000" font-family="KaTeX_Main" font-size="10" transform="translate(378.99 181.58)"><tspan>0.90</tspan></text></g><g fill="none" stroke="none" stroke-linecap="round" stroke-linejoin="round" stroke-width="0" color="#000"><path d="M371.99 151.67h-7.5"/><text fill="#000" font-family="KaTeX_Main" font-size="10" transform="translate(378.99 154.92)"><tspan>0.91</tspan></text></g><g fill="none" stroke="none" stroke-linecap="round" stroke-linejoin="round" stroke-width="0" color="#000"><path d="M371.99 125h-7.5"/><text fill="#000" font-family="KaTeX_Main" font-size="10" transform="translate(378.99 128.25)"><tspan>0.91</tspan></text></g><g fill="none" stroke="none" stroke-linecap="round" stroke-linejoin="round" stroke-width="0" color="#000"><path d="M371.99 98.34h-7.5"/><text fill="#000" font-family="KaTeX_Main" font-size="10" transform="translate(378.99 101.59)"><tspan>0.92</tspan></text></g><g fill="none" stroke="none" stroke-linecap="round" stroke-linejoin="round" stroke-width="0" color="#000"><path d="M371.99 71.67h-7.5"/><text fill="#000" font-family="KaTeX_Main" font-size="10" transform="translate(378.99 74.92)"><tspan>0.92</tspan></text></g><g fill="none" stroke="none" stroke-linecap="round" stroke-linejoin="round" stroke-width="0" color="#000"><path d="M371.99 45.01h-7.5"/><text fill="#000" font-family="KaTeX_Main" font-size="10" transform="translate(378.99 48.26)"><tspan>0.93</tspan></text></g><path fill="none" stroke="none" stroke-linecap="round" stroke-linejoin="round" stroke-width="0" d="M28 45.01V205M371.99 45.01H28" color="#000"/><text fill="#000" stroke="none" stroke-linecap="round" stroke-linejoin="round" stroke-width="0" color="#000" font-family="KaTeX_Main" font-size="10" text-anchor="middle" transform="rotate(-90 68.255 56.755)"><tspan font-weight="bold">AveragePathLength </tspan><tspan> / log</tspan><tspan dy="3" font-size="8">2</tspan><tspan dy="-3">(Size)</tspan></text><text fill="#000" stroke="none" stroke-linecap="round" stroke-linejoin="round" stroke-width="0" color="#000" font-family="KaTeX_Main" font-size="10" text-anchor="middle" transform="translate(199.99 238.25)"><tspan>Operations × 10</tspan><tspan dy="-5" font-size="8">5</tspan></text><text fill="#000" stroke="none" stroke-linecap="round" stroke-linejoin="round" color="#000" font-family="KaTeX_Main" font-size="8" transform="translate(71.2 10.11)"><tspan>RedBlackBottomUp</tspan></text><g fill="none" stroke="currentColor" stroke-linecap="round" stroke-linejoin="round" color="#000"><path stroke="#F44336" d="M35.7 7.51h29.9M28 180.04l.37-.62.38-.99.37-.72.38-.25.37-.51.37-.55.38-.55.37-.51.38-.53.37-.74.37-.57.38-.62.37-.58.37-.52.38-.67.37-.56.38-.49.37-.58.37-.54.38-.6.37.17.38-.5.37-.57.37-.65.38-.24.37-.55.38-.49.37-.21.37-.9.38-.47.37-.79.37-.44.38-.61.37-.43.38-.25.37-.48.37-.5.38-.49.37-.54.38-.47.37-.84.37-.26.38-.35.37-.23.38-.36.37-.36.37-.15.38-.44.37-.62.38-.42.37-.31.37-.4.38-.47.37-.59.37-.38.38.1.37-.37.38-.4.37-.73.37-.33.38.03.37-.25.38.01.37-.39.37-.33.38-.11.37-.26.38-.15.37-.24.37-.42.38-.41.37-.27.37-.34.38-.39.37-.17.38-.35.37-1.37.37-.29.38-.36.37-.35.38-.28.37-.3.37-.24.38-.35.37-.45.38-.25.37-.29.37-.25.38-.6.37-.31.38-1.43.37-.17.37-.08.38-.25.37-.59.37-.44.38-.41.37-.39.38-.25.37-.27.37-.28.38-.24.37-.18.38-.31.37-.05.37.01.38-.21.37-.29.38-.29.37-.59.37-.27.38-.23.37-.37.37-.12.38-.29.37-.42.38-.27.37-.24.37-.36.38-.26.37-.18.38-.29.37-.23.37-.24.38-.39.37-.2.38-.83.37-.24.37-.29.38-.11.37-.16.38-.16.37-.24.37-.17.38-.18.37-.16.37-.33.38-.31.37-.26.38-.24.37-.27.37-.15.38-.16.37.12.38-.21.37-.13.37-.28.38-.24.37.14.38-.08.37-.21.37-.21.38-.21.37-.34.37-.14.38-.18.37-.06.38-.19.37-.14.37-.25.38-.24.37-.2.38-.12.37-.23.37-.25.38-.24.37-.19.38-.17.37-.21.37-.2.38-.21.37-.33.38-.07.37-.19.37-.01.38-.56.37-.16.37-.74.38-.24.37-.22.38-.17.37-.14.37-.08.38-.15.37-.37.38-.13.37-.22.37-.57.38-.23.37-.2.38-.21.37 3.96.37-.01.38-.13.37-.15.37-.15.38-.2.37-.14.38-.09.37-.18.37-.11.38-.12.37-.07.38-.06.37-.21.37-.14.38-.22.37-.21.38-.1.37-.16.37-.3.38-.18.37-.02.38-.16.37-.15.37-.17.38-.17.37-.13.37.02.38-.02.37.17.38-.15.37-.22.37-.16.38-.11.37-.24.38-.13.37-.2.37-.13.38-.19.37-.12.38-.21.37-.13.37-.21.38-.01.37-.17.37-.21.38-.74.37-.13.38-.19.37-.19.37-.2.38-.19.37-.06.38-.17.37-.14.37-.23.38-.1.37-.21.38-.23.37-.21.37-.12.38 2.97.37-.15.38-.14.37.04.37-.17.38-.15.37-.07.37-.11.38-.15.37-.06.38-.07.37.13.37-.05.38-.14.37-.15.38-.2.37-.09.37-.15.38-.09.37-.14.38-.15.37-.22.37-.14.38-.06.37-.1.37-.18.38-.08.37-.16.38-.04.37-.12.37-.14.38-.08.37-.17.38-.14.37-.09.37-.05.38-.16.37-.13.38-.11.37-.08.37-.15.38-.22.37-.11.38-.09.37-.15.37-.14.38-.07.37-.08.37-.11.38-.06.37.06.38-.11.37-.11.37-.13.38-.14.37-.12h.38l.37-.07.37-.13.38-.1.37-.08.38-.13.37-.08.37-.12.38-.16.37.01.37-.11.38-.09.37-.12.38-.11.37-.09.37-.08.38-.14.37-.12.38-.1.37-.1.37-.04.38-.09.37-.06.38-.13.37-.15.37-.1.38-.12.37-.15.38-.12.37-.08.37-.12.38.32.37-.15.37-.09.38.05.37-.13.38-.11.37-.09.37-.14.38-.06.37-.11.38-.11.37-.11.37-.81.38-.1.37-.1.38-.13.37-.13.37-.11.38-.08.37.01.37-.1.38-.14.37-.07.38-.13.37-.12.37-.11.38-.07.37-.08.38-.07.37-.17.37-.08.38-.08.37-.1.38-.09.37-.12.37-.06.38-.09.37-.06.38-.02.37-.12.37-.12.38-.07.37-.07.37-.06.38-.12.37-.09.38-.06.37-.08.37.46.38-.08.37-.11.38-.03.37-.12.37-.14.38-.09.37-9.6.38-.63.37-.06.37-.09.38-.16.37-.13.37-.08.38-.07.37-.11.38-.06.37-.07.37-.11.38-.15.37-.1.38-.02.37-.08.37-.1.38-.07.37-.12.38-.04.37-.1.37-.06.38-.05h.37l.38-.2.37-.07.37-.08.38-.16.37-.14.37-.08.38-.04.37-.07.38-.12.37-.1.37-.1.38-.08.37-.12.38-.11.37-.07.37-.07.38-.03.37-.05.38-.1.37-.05.37-.02.38-.03h.37l.37-.08.38-.11.37-.1.38-.11.37-.06.37-.06.38-.09.37-.08.38-.03.37-.07.37-.09.38-.09.37-.12.38-.08.37-.09.37-.09.38-.07.37-.07.38-.09.37-.12.37-.09.38-.1.37-.09.37-.06.38-.1.37-.02.38-.1.37-.28.37-.06.38-.09.37-.05.38-.1.37-.06.37-.05.38-.09.37-.12.38-.09.37.01.37-.01.38-.09.37-.06.37-.06.38-.09.37-.1.38-.08.37-.1.37-.06.38.02.37-.05.38-.04.37-.04.37.07.38-.06.37.81.38-.02.37-.1.37-.16.38-.05.37-.08.37-.07.38-.07.37-.02.38-.08.37-.1.37-.07.38-.1.37-.06.38-.08.37-.07.37-.14.38-.05.37-.01.38-.13.37-.07.37-.06.38-.04.37-.04.38-.08.37-.05.37-.09.38-.1.37-.08.37-.07.38-.09.37-.09.38-.11.37-.04.37-.11.38-.07.37-.09.38-.12.37-.09.37-.08.38.29.37-.11.38-.09.37-.07.37-.11.38-.11.37-.07.37-.07.38-1.51.37-.13.38-.08.37-.02.37-.06.38-.09.37-.03.38-.08.37-.08.37-.02.38-.08.37-.06.38-.05.37-.09.37-.08.38-.06.37-.09.38-.08.37-.05.37-.04.38-.11.37-.04.37-.07.38-.05.37-.1.38-.11.37-.07.37-.05.38-.07.37-.06.38-.09.37-.1.37-.07.38-.07.37-.04.38-.06.37-.03.37-.07.38-.05.37-.06.37-.08.38-.05.37-.07.38-.07.37-.1.37-.09.38-.11.37-.07.38-.05.37-.06.37-.07.38-.24.37-.05.38-.06.37-.03.37-.06.38-.07.37-.02.38-.06.37-.06.37-.08.38-.06.37-.06.37-.07.38-.03.37-.05.38-.08.37-.04.37-.04.38-.05.37-.05.38-.05.37-.07.37-.06.38-.03.37-.05.38-.04.37-.06.37-.03.38-.06.37.61.37-.02.38-.08.37-.06.38.53.37-.04.37-.04.38-.04.37-.06.38-.06.37-.09.37-.03.38-.02.37.06.38-.07.37-.03.37-.05.38-.06.37-.03.38-.06.37-.03.37-.09.38-.05.37-.06.37-.08.38-.08.37-.09.38-.05.37-.03.37-.05.38-.06.37-.02.38-.03.37-.05.37-.04.38-.08.37-.07.38-.06.37-.15.37-.07.38-.01.37-.04.37-.07.38-.03.37-.05.38-.05h.37l.37-.06.38-.03.37-.05.38-.03.37-.05.37-.05.38-.05.37-.11.38-.05.37-.05.37-.06.38-.07.37-.04.38-.06.37-.07.37-.02.38-.05.37-.05.37-.03.38-.07.37-.05.38-.05.37-.05.37-.07.38-.06.37-.05.38-.02.37-.07.37-.02h.38l.37-.07.38-.05.37-.08h.37l.38-.04.37-.04.37-.05.38-.06.37-.05.38-.09.37-.07.37-.06.38-.07.37-.07.38-.06.37-.02.37-.07.38-.04.37-.02.38-.04.37-.06.37-.02.38.04.37-.07.38-.06.37-.04.37-.03.38-.05.37-.06.37-.04.38-.05.37-.07.38-.07.37-.04.37-.04.38-.07.37-.12.38-.05.37-.05.37-.05.38-.03.37-.02.38-.05.37-.08.37-.07.38-.02.37-.03.37-.03.38-.04.37-.04.38-.07.37-.03.37-.06.38-.02.37-.05.38-.04.37-.06.37-.05.38-.05.37-.04.38-.04.37-.03.37-.1.38-.05.37-.08.38-.05.37-.01.37 6.79.38-.02.37-.02.37-.05.38-.05.37-.03.38-.07.37-.02.37.02.38-.04.37-.06.38-.06.37-.04.37-.04.38-.05.37-.03.38-.06.37-.05.37.13.38-.05.37-.02.37-.07.38-.04.37-.05.38-.06.37-.04.37-.05.38-.05.37-.05.38-.06.37-.06.37-.06.38-.02.37-.04.38-.05.37-.71.37-.04.38-.04.37-.04.38.01.37-.02.37-.03.38-.04.37-.06.37-.03.38-.05.37-.05.38-.05.37.12.37-.13.38-.05.37-.03.38-.06h.37l.37-.02.38-.02.37-.03.38-.05.37-.04.37-.02h.38l.37-.03.37-.04.38-.05.37-.05.38-.07.37-.03.37-.05.38-.04.37-.03.38-.04.37-.03.37-.05.38-.05.37-.04.38-.03.37-.04.37-.02.38-.03.37-.04.38-.06.37-.03.37-.05.38-.04.37-.05.37-.02.38-.07.37-.03.38-.05.37-.04.37-.04.38-.04.37-.05.38-.02.37.09.37-.07.38-.01.37-.04.38-.02.37-.04.37-.04.38-.03.37-.06.37-.05.38-.06.37-.05.38-.04.37-.03.37-.02.38-.04.37-.04.38-.04.37-.02.37-.01.38-.05.37-.03.38-.07.37-.04.37-.05.38-.04.37-.03.38-.12.37-.04.37-.01.38-.05.37-.03.37-.04.38-.02.37-.05.38-.06.37-.02.37-.04.38-.03.37-.05.38-.04.37-.04.37-.04.38-.04.37-.03h.38l.37-.03.37-.02h.38l.37-.07.37-.02.38-.06.37-.03.38-.11.37-.06.37-.05.38-.04.37-.05.38-.03.37-.02"/><use xlink:href="#e" color="#F44336" transform="matrix(3.75 0 0 3.75 342.45 70.12)"/><use xlink:href="#e" color="#F44336" transform="matrix(3.75 0 0 3.75 50.65 7.51)"/></g><text fill="#000" stroke="none" stroke-linecap="round" stroke-linejoin="round" color="#000" font-family="KaTeX_Main" font-size="8" transform="translate(71.2 25.11)"><tspan>RedBlackTopDown</tspan></text><g fill="none" stroke="currentColor" stroke-linecap="round" stroke-linejoin="round" color="#000"><path stroke="#3B75EA" stroke-dasharray="1.0,2.0" d="M35.7 22.51h29.9M28 182.05l.37-.46.38.4.37-.62.38-1.11.37-.72.37-.45.38-.2.37-.81.38-.61.37-.69.37-.53.38-.58.37-.56.37-.53.38-.59.37-.56.38-.69.37-.42.37-.29.38-1.14.37-.6.38-.59.37-.57.37-.41.38-.48.37-.22.38-.44.37-.59.37-.68.38-.52.37-.46.37-.56.38-.68.37-.54.38-.57.37-.56.37-.49.38-.61.37-.56.38-.68.37-.54.37-.34.38-.12.37-1.15.38-.3.37-.6.37-.27.38-.91.37-.48.38-1.72.37-.34.37-.42.38-.24.37-.57.37-.58.38-.35.37-.28.38-.43.37-.34.37-.44.38-.19.37-.27.38-.63.37-.33.37-.23.38-.41.37-.2.38-.33.37-.25.37-.48.38-.36.37-.43.37-.46.38-.32.37-.26.38-.1.37-.45.37-.23.38-.33.37-.19.38-.22.37-.39.37-.24.38-.2.37-.31.38-.22.37-.3.37-.3.38-.22.37-.26.38-.26.37-.37.37 1.09.38-.22.37-.23.37-.24.38-.35.37-.33.38-.33.37-.22.37-.24.38-.25.37.77.38-.33.37-.24.37-.4.38.16.37-.42.38-.17.37-.29.37-.2.38-.17.37-.65.37-.32.38-.3.37-.5.38-.24.37.16.37-.33.38-.45.37-.1.38-.5.37-.31.37-.29.38-.27.37-.24.38-.21.37-.17.37-.11.38-.27.37-.17.38-.28.37-.26h.37l.38-.29.37-.21.37-.32.38-.21.37-.39.38-.17.37-.22.37-.26.38.02.37-.31.38-.2.37-.22.37-.19.38-.5.37-.1.38-.21.37-.21.37-.23.38-.13.37-.32.37-.2.38-.23.37-.13.38-.16.37.15.37-.19.38-.22.37-.14.38-.13.37-.27.37-.1.38-.08.37-.12.38-.25.37-.27.37-.15.38-.21.37-.21.38-.39.37-.17.37-.19.38-.22.37-.18.37-.25.38-.09.37-.2.38.25.37-.11.37-.17.38-.15.37-.19.38-.21.37-.2.37-.19.38-.21.37-.23.38-.15.37-.12.37-.14.38-.18.37.01.37.35.38-.02.37-.2.38-.03.37-.13.37-.11.38-.19.37-.17.38-.07.37-.24.37-.18.38-.16.37-.19.38-.23.37-.21.37-.15.38-.23.37-.1.38-.15.37-.14.37-.15.38-.2.37-.03.37-.17.38-.1.37-.05.38-.14.37-.11.37-.14.38-.1.37-.17.38-.2.37-.21.37-.13.38-.18.37-.9.38-.2.37-.17.37-.26.38.01.37-.09.37-.16.38-.11.37-.16.38-.16.37-.11.37-.17.38-.09.37-.15.38-.15.37-.14h.37l.38-.08.37-.15.38-.12.37-.07.37 1.31.38-.15.37-.21.38-.1.37-.22.37-.17.38-.12.37-.15.37-.24.38-.14.37-.13.38-.17.37-.12.37-.14.38-.19.37-.15.38-.12.37-.17.37-.07.38-.03.37-.07.38-.19.37-.13.37-.1.38-.06.37.15.37-.11.38-.06.37-.11.38-.18.37-.11.37-.16.38-.14.37-.1.38-.14.37-.14.37-.15.38-.18.37-.08.38.1.37-.11.37-.1.38-.12.37-.16.38-.1.37-.15.37-.1.38-1.58.37-.07.37-.1.38-.08.37-.1.38-.08.37-.09.37-.19.38-.1.37-.1.38-.04.37-.07.37-.12.38-.21.37-.12.38.08.37-.21.37-.02.38-.17.37.2.37-.1.38-.13.37-.12.38.04.37-.07.37.11.38-.15.37-.03.38-.1.37-.1.37-.1.38-.09.37-.03.38-.09.37-.04.37-.09.38-.13.37-.07.38-.11.37-.15.37-.17.38-.15.37-.11.37-.06.38.02.37-.1.38-.13.37-.08.37-.08h.38l.37-.58.38-.1.37-.03.37-.04.38-.1.37-.12.38-.07.37-.13.37-.16.38-.08.37-.16.37-.12.38-.17.37-.08.38-.15.37-.06.37-.18.38-.12.37-.08.38-.12.37-.17.37-.11.38-.14.37-.07.38-.08.37-.05.37-.09.38-.09.37-.02.38-.1.37-.1.37.06.38-.11.37-.1.37-.15.38-.11.37-.09.38-.06.37-.07.37-.01.38 1.07.37-.07.38-.1.37-.11.37-.07.38-.17.37.03.38-.09.37-.04.37-.09.38-.13.37-.07.37-.08.38-.12.37-.14.38-.06.37-.14.37-.11.38-.14.37-.09.38-.12.37-.1.37.16.38-.09.37.19.38-.65.37.01.37-.13.38-.09.37-.09.38.03.37-.08.37-.15.38-.08.37-.09.37-.06.38-.12.37-.12.38-.07.37-.12.37-.1.38-.06.37-.1.38-.06.37-.08.37-.04.38.01.37-.04.38-.02.37-.07.37-.06.38-.06.37-.09.37-.03.38-.07.37-.02.38-.1.37-.05.37-.05.38-.02.37-.1.38-.03.37-.11.37-.1.38-.07h.37l.38-.08.37-.06.37-.04.38-.1.37-.05.38-.15.37-.07.37-.02.38-.1.37-.08.37-.12.38-.08.37-.01.38.04.37-.12.37-.1.38-.06.37-.08.38-.13.37-.06.37-.07.38-.07.37-.07.38-.11.37-.06.37-.02.38-.07.37-.08.37-.07.38-.08.37-.09.38-.09.37.07.37-.06.38.02h.37l.38-.06.37-.05.37-.07.38-.06.37-.08.38-.03.37-.06.37-.05.38-.1.37.59.37-.08.38-.07.37-.08.38-.08.37-.06.37-.08.38-.26.37-.08.38-.07.37-.08.37-.15.38-.08.37-.02.38-.06.37-.02.37-.13.38-.04.37-.06.38-.04.37-.04.37-.06.38-.1.37.05.37-.11.38-.07.37-.02.38-.08.37-.05.37-.05.38-.06.37-.12.38-.11.37-.12.37-.06.38-.02.37-.07.38-.07.37-.06.37-.09.38-.06.37-.04.37-.07.38-.03.37-.06.38-.1.37-.05.37-.08.38-.07.37-.06.38-.02.37-.07.37-.07h.38l.37-.05.38-.06.37-.08.37-.09.38-.08.37-.07.38-.07.37-.08.37-.08.38-.09.37-.04.37-.04.38-.09h.37l.38-.08.37-.07.37-.09.38-.06.37-.04.38-.11.37-.06.37-.05.38-.08.37-.07.38-.02.37-.09.37-.09.38-.03.37.01.37-.07.38-.05.37-.03.38-.08.37.08.37-.06.38-.06.37-.02.38-.04.37-.1.37-.09h.38l.37-.05.38-.06.37-.03.37-4.42.38-.06.37-.07.38-.05.37-.09.37-.09.38.11.37-.03.37-.06.38-.1.37-.05.38-.06.37-.04.37-.04.38-.06.37-.07.38-.1.37-.04.37-.05.38-.06.37-.05.38-.06.37-.06.37-.05.38-.06.37-.05.37-.09.38-.05.37-.06.38-.03.37-.05.37-.06.38-.06.37-.32.38-.15.37-.03.37-.15.38-.06.37-.09.38-.07.37-.08.37-.05.38-.08.37-.08.38-.08.37-.05.37-.08.38-.05.37-.04.37-.01.38-.06.37-.06.38-.05.37-.05.37-.05.38-.05.37-.06.38.01.37-.08.37-.03.38-.04.37-.1.38-.06.37.01.37-.25.38-.05.37-.15.37-.04.38-.05.37.03.38-.02.37-.07.37-.05.38-.05.37-.04.38-.11.37-.07.37.08.38-.07.37-.05.38.63.37-.04.37-.03.38-.05.37-.06h.38l.37-.05.37-.04.38-.05.37.65.37-.04.38-.05.37-.05.38-.05.37-.05.37-.09.38-.05.37-.08.38-.05.37-.06.37-.03.38-.04.37-.06.38-.06.37-.01.37-.28.38-.08.37-.05.37-.05.38-.04.37-.03.38-.21.37.01.37-.07.38-.07.37.41.38-.03.37-.05.37-.02.38-.07.37-.04.38-.06.37-.04.37-.06.38-.06.37-.08.38-.04.37-.06.37-.06.38-.07.37-.06.37-.05.38-.02.37-.08.38-.1.37-.01.37-.08.38-.07.37-.05.38-.04.37-.16.37-.04.38-.07.37-.06.38-.05.37-.07.37-.07.38.06.37-.03.37-.02.38-.03.37-.07.38-.05.37-.07.37-.06.38-.05.37-.02.38-.05.37-.05.37-.09.38-.02.37-.03.38-.05.37.03.37-.06.38-.07.37-.04.38-.04.37-.09.37-.02.38-.05.37-.06.37-.1.38-.03.37-.06.38-.05.37-.02.37-.04.38-.03.37-.04.38-.07.37-.01.37-.06.38-.05.37-.05.38-.05.37-.06.37-.03.38-.04.37-.15.37-.05.38-.05.37-.03.38-.04.37-.04.37-.05.38-.04.37-.04.38-.04.37-.04.37-.04.38-.01.37-.05.38-.05.37-.04.37-.09.38.05.37-.04.38-.03.37-.04.37-.03.38-.02.37-.02.37-.03.38-.61.37-.08.38-.01.37-.05.37-.06.38-.03.37-.04.38.02.37-.03.37-.04h.38l.37-.03.38-.06.37-.04.37-.04.38-.06.37-.04.37-.02.38-.04.37-.05.38-.06.37-.02.37-.05.38-.03.37-.02.38-.03.37-.05.37-.02.38-.03.37-.05.38-.03.37-.04.37-.04.38-.06.37-.05.38-.05.37-.05.37 2.81.38-.03.37-.08.37-.05.38-.06.37-.05.38-.03.37.04h.37l.38-.05.37-.04.38-.06.37-.13.37-.03.38-.06.37-.04.38-.03.37-.06.37-.05.38-.03.37-.02.37-.03.38-.06.37-.05.38-.04.37-.04.37-.02.38-.04.37-.03.38-.05.37-.05.37-.05.38-.08.37-.05.38-.04.37-.04.37-.21.38-.04h.37l.38-.31.37-.07.37-.04.38-.08.37-.04.37-.03.38-.04.37-.05.38-.01.37-.05.37-.04.38-.05.37-.04.38.39.37-.03.37-.03.38-.03.37-.05.38-.03.37-.03h.37l.38-.14.37-.05.37-.05.38-.04.37-.03.38-.04.37-.04.37-.02.38-.04.37-.06.38-.03.37-.02"/><use xlink:href="#g" color="#3B75EA" transform="matrix(3.75 0 0 3.75 56.04 144.51)"/><use xlink:href="#g" color="#3B75EA" transform="matrix(3.75 0 0 3.75 50.65 22.51)"/></g><text fill="#000" stroke="none" stroke-linecap="round" stroke-linejoin="round" color="#000" font-family="KaTeX_Main" font-size="8" transform="translate(241.1 10.11)"><tspan>RedBlackRelaxedBottomUp</tspan></text><g fill="none" stroke="currentColor" stroke-linecap="round" stroke-linejoin="round" color="#000"><path stroke="#00C853" d="M205.6 7.51h29.9M28 180.04l.37-.62.38-.99.37-.72.38-.25.37-.51.37-.55.38-.55.37-.51.38-.53.37-.74.37-.57.38-.62.37-.58.37-.52.38-.67.37-.56.38-.49.37-.58.37-.54.38-.6.37.17.38-.5.37-.57.37-.65.38-.24.37-.55.38-.49.37-.21.37-.9.38-.47.37-.79.37-.44.38-.61.37-.43.38-.25.37-.48.37-.5.38-.49.37-.54.38-.47.37-.84.37-.26.38-.35.37-.23.38-.36.37-.36.37-.15.38-.44.37-.62.38-.42.37-.31.37-.4.38-.47.37-.59.37-.38.38.1.37-.37.38-.4.37-.73.37-.33.38.03.37-.25.38.01.37-.39.37-.33.38-.11.37-.26.38-.15.37-.24.37-.42.38-.41.37-.27.37-.34.38-.39.37-.17.38-.35.37-1.37.37-.29.38-.36.37-.35.38-.28.37-.3.37-.24.38-.35.37-.45.38-.25.37-.29.37-.25.38-.6.37-.31.38-1.43.37-.17.37-.08.38-.25.37-.59.37-.44.38-.41.37-.39.38-.25.37-.27.37-.28.38-.24.37-.18.38-.31.37-.05.37.01.38-.21.37-.29.38-.29.37-.59.37-.27.38-.23.37-.37.37-.12.38-.29.37-.42.38-.27.37-.24.37-.36.38-.26.37-.18.38-.29.37-.23.37-.24.38-.39.37-.2.38-.83.37-.24.37-.29.38-.11.37-.16.38-.16.37-.24.37-.17.38-.18.37-.16.37-.33.38-.31.37-.26.38-.24.37-.27.37-.15.38-.16.37.12.38-.21.37-.13.37-.28.38-.24.37.14.38-.08.37-.21.37-.21.38-.21.37-.34.37-.14.38-.18.37-.06.38-.19.37-.14.37-.25.38-.24.37-.2.38-.12.37-.23.37-.25.38-.24.37-.19.38-.17.37-.21.37-.2.38-.21.37-.33.38-.07.37-.19.37-.01.38-.56.37-.16.37-.74.38-.24.37-.22.38-.17.37-.14.37-.08.38-.15.37-.37.38-.13.37-.22.37-.57.38-.23.37-.2.38-.21.37 3.96.37-.01.38-.13.37-.15.37-.15.38-.2.37-.14.38-.09.37-.18.37-.11.38-.12.37-.07.38-.06.37-.21.37-.14.38-.22.37-.21.38-.1.37-.16.37-.3.38-.18.37-.02.38-.16.37-.15.37-.17.38-.17.37-.13.37.02.38-.02.37.17.38-.15.37-.22.37-.16.38-.11.37-.24.38-.13.37-.2.37-.13.38-.19.37-.12.38-.21.37-.13.37-.21.38-.01.37-.17.37-.21.38-.74.37-.13.38-.19.37-.19.37-.2.38-.19.37-.06.38-.17.37-.14.37-.23.38-.1.37-.21.38-.23.37-.21.37-.12.38 2.97.37-.15.38-.14.37.04.37-.17.38-.15.37-.07.37-.11.38-.15.37-.06.38-.07.37.13.37-.05.38-.14.37-.15.38-.2.37-.09.37-.15.38-.09.37-.14.38-.15.37-.22.37-.14.38-.06.37-.1.37-.18.38-.08.37-.16.38-.04.37-.12.37-.14.38-.08.37-.17.38-.14.37-.09.37-.05.38-.16.37-.13.38-.11.37-.08.37-.15.38-.22.37-.11.38-.09.37-.15.37-.14.38-.07.37-.08.37-.11.38-.06.37.06.38-.11.37-.11.37-.13.38-.14.37-.12h.38l.37-.07.37-.13.38-.1.37-.08.38-.13.37-.08.37-.12.38-.16.37.01.37-.11.38-.09.37-.12.38-.11.37-.09.37-.08.38-.14.37-.12.38-.1.37-.1.37-.04.38-.09.37-.06.38-.13.37-.15.37-.1.38-.12.37-.15.38-.12.37-.08.37-.12.38.32.37-.15.37-.09.38.05.37-.13.38-.11.37-.09.37-.14.38-.06.37-.11.38-.11.37-.11.37-.81.38-.1.37-.1.38-.13.37-.13.37-.11.38-.08.37.01.37-.1.38-.14.37-.07.38-.13.37-.12.37-.11.38-.07.37-.08.38-.07.37-.17.37-.08.38-.08.37-.1.38-.09.37-.12.37-.06.38-.09.37-.06.38-.02.37-.12.37-.12.38-.07.37-.07.37-.06.38-.12.37-.09.38-.06.37-.08.37.46.38-.08.37-.11.38-.03.37-.12.37-.14.38-.09.37-9.6.38-.63.37-.06.37-.09.38-.16.37-.13.37-.08.38-.07.37-.11.38-.06.37-.07.37-.11.38-.15.37-.1.38-.02.37-.08.37-.1.38-.07.37-.12.38-.04.37-.1.37-.06.38-.05h.37l.38-.2.37-.07.37-.08.38-.16.37-.14.37-.08.38-.04.37-.07.38-.12.37-.1.37-.1.38-.08.37-.12.38-.11.37-.07.37-.07.38-.03.37-.05.38-.1.37-.05.37-.02.38-.03h.37l.37-.08.38-.11.37-.1.38-.11.37-.06.37-.06.38-.09.37-.08.38-.03.37-.07.37-.09.38-.09.37-.12.38-.08.37-.09.37-.09.38-.07.37-.07.38-.09.37-.12.37-.09.38-.1.37-.09.37-.06.38-.1.37-.02.38-.1.37-.28.37-.06.38-.09.37-.05.38-.1.37-.06.37-.05.38-.09.37-.12.38-.09.37.01.37-.01.38-.09.37-.06.37-.06.38-.09.37-.1.38-.08.37-.1.37-.06.38.02.37-.05.38-.04.37-.04.37.07.38-.06.37.81.38-.02.37-.1.37-.16.38-.05.37-.08.37-.07.38-.07.37-.02.38-.08.37-.1.37-.07.38-.1.37-.06.38-.08.37-.07.37-.14.38-.05.37-.01.38-.13.37-.07.37-.06.38-.04.37-.04.38-.08.37-.05.37-.09.38-.1.37-.08.37-.07.38-.09.37-.09.38-.11.37-.04.37-.11.38-.07.37-.09.38-.12.37-.09.37-.08.38.29.37-.11.38-.09.37-.07.37-.11.38-.11.37-.07.37-.07.38-1.51.37-.13.38-.08.37-.02.37-.06.38-.09.37-.03.38-.08.37-.08.37-.02.38-.08.37-.06.38-.05.37-.09.37-.08.38-.06.37-.09.38-.08.37-.05.37-.04.38-.11.37-.04.37-.07.38-.05.37-.1.38-.11.37-.07.37-.05.38-.07.37-.06.38-.09.37-.1.37-.07.38-.07.37-.04.38-.06.37-.03.37-.07.38-.05.37-.06.37-.08.38-.05.37-.07.38-.07.37-.1.37-.09.38-.11.37-.07.38-.05.37-.06.37-.07.38-.24.37-.05.38-.06.37-.03.37-.06.38-.07.37-.02.38-.06.37-.06.37-.08.38-.06.37-.06.37-.07.38-.03.37-.05.38-.08.37-.04.37-.04.38-.05.37-.05.38-.05.37-.07.37-.06.38-.03.37-.05.38-.04.37-.06.37-.03.38-.06.37.61.37-.02.38-.08.37-.06.38.53.37-.04.37-.04.38-.04.37-.06.38-.06.37-.09.37-.03.38-.02.37.06.38-.07.37-.03.37-.05.38-.06.37-.03.38-.06.37-.03.37-.09.38-.05.37-.06.37-.08.38-.08.37-.09.38-.05.37-.03.37-.05.38-.06.37-.02.38-.03.37-.05.37-.04.38-.08.37-.07.38-.06.37-.15.37-.07.38-.01.37-.04.37-.07.38-.03.37-.05.38-.05h.37l.37-.06.38-.03.37-.05.38-.03.37-.05.37-.05.38-.05.37-.11.38-.05.37-.05.37-.06.38-.07.37-.04.38-.06.37-.07.37-.02.38-.05.37-.05.37-.03.38-.07.37-.05.38-.05.37-.05.37-.07.38-.06.37-.05.38-.02.37-.07.37-.02h.38l.37-.07.38-.05.37-.08h.37l.38-.04.37-.04.37-.05.38-.06.37-.05.38-.09.37-.07.37-.06.38-.07.37-.07.38-.06.37-.02.37-.07.38-.04.37-.02.38-.04.37-.06.37-.02.38.04.37-.07.38-.06.37-.04.37-.03.38-.05.37-.06.37-.04.38-.05.37-.07.38-.07.37-.04.37-.04.38-.07.37-.12.38-.05.37-.05.37-.05.38-.03.37-.02.38-.05.37-.08.37-.07.38-.02.37-.03.37-.03.38-.04.37-.04.38-.07.37-.03.37-.06.38-.02.37-.05.38-.04.37-.06.37-.05.38-.05.37-.04.38-.04.37-.03.37-.1.38-.05.37-.08.38-.05.37-.01.37 6.79.38-.02.37-.02.37-.05.38-.05.37-.03.38-.07.37-.02.37.02.38-.04.37-.06.38-.06.37-.04.37-.04.38-.05.37-.03.38-.06.37-.05.37.13.38-.05.37-.02.37-.07.38-.04.37-.05.38-.06.37-.04.37-.05.38-.05.37-.05.38-.06.37-.06.37-.06.38-.02.37-.04.38-.05.37-.71.37-.04.38-.04.37-.04.38.01.37-.02.37-.03.38-.04.37-.06.37-.03.38-.05.37-.05.38-.05.37.12.37-.13.38-.05.37-.03.38-.06h.37l.37-.02.38-.02.37-.03.38-.05.37-.04.37-.02h.38l.37-.03.37-.04.38-.05.37-.05.38-.07.37-.03.37-.05.38-.04.37-.03.38-.04.37-.03.37-.05.38-.05.37-.04.38-.03.37-.04.37-.02.38-.03.37-.04.38-.06.37-.03.37-.05.38-.04.37-.05.37-.02.38-.07.37-.03.38-.05.37-.04.37-.04.38-.04.37-.05.38-.02.37.09.37-.07.38-.01.37-.04.38-.02.37-.04.37-.04.38-.03.37-.06.37-.05.38-.06.37-.05.38-.04.37-.03.37-.02.38-.04.37-.04.38-.04.37-.02.37-.01.38-.05.37-.03.38-.07.37-.04.37-.05.38-.04.37-.03.38-.12.37-.04.37-.01.38-.05.37-.03.37-.04.38-.02.37-.05.38-.06.37-.02.37-.04.38-.03.37-.05.38-.04.37-.04.37-.04.38-.04.37-.03h.38l.37-.03.37-.02h.38l.37-.07.37-.02.38-.06.37-.03.38-.11.37-.06.37-.05.38-.04.37-.05.38-.03.37-.02"/><use xlink:href="#b" color="#00C853" transform="matrix(3.75 0 0 3.75 113.62 115.16)"/><use xlink:href="#b" color="#00C853" transform="matrix(3.75 0 0 3.75 220.55 7.51)"/></g><text fill="#000" stroke="none" stroke-linecap="round" stroke-linejoin="round" color="#000" font-family="KaTeX_Main" font-size="8" transform="translate(241.1 25.11)"><tspan>RedBlackRelaxedTopDown</tspan></text><g fill="none" stroke="currentColor" stroke-linecap="round" stroke-linejoin="round" color="#000"><path stroke="#FFAB00" stroke-dasharray="4.5,2.0,0.5,2.0,0.5,2.0" d="M205.6 22.51h29.9M28 182.05l.37-.46.38.4.37-.62.38-1.11.37-.72.37-.45.38-.2.37-.81.38-.61.37-.69.37-.53.38-.58.37-.56.37-.53.38-.59.37-.56.38-.69.37-.42.37-.29.38-1.14.37-.6.38-.59.37-.57.37-.41.38-.48.37-.22.38-.44.37-.59.37-.68.38-.52.37-.46.37-.56.38-.68.37-.54.38-.57.37-.56.37-.49.38-.61.37-.56.38-.68.37-.54.37-.34.38-.12.37-1.15.38-.3.37-.6.37-.27.38-.91.37-.48.38-1.72.37-.34.37-.42.38-.24.37-.57.37-.58.38-.35.37-.28.38-.43.37-.34.37-.44.38-.19.37-.27.38-.63.37-.33.37-.23.38-.41.37-.2.38-.33.37-.25.37-.48.38-.36.37-.43.37-.46.38-.32.37-.26.38-.1.37-.45.37-.23.38-.33.37-.19.38-.22.37-.39.37-.24.38-.2.37-.31.38-.22.37-.3.37-.3.38-.22.37-.26.38-.26.37-.37.37 1.09.38-.22.37-.23.37-.24.38-.35.37-.33.38-.33.37-.22.37-.24.38-.25.37.77.38-.33.37-.24.37-.4.38.16.37-.42.38-.17.37-.29.37-.2.38-.17.37-.65.37-.32.38-.3.37-.5.38-.24.37.16.37-.33.38-.45.37-.1.38-.5.37-.31.37-.29.38-.27.37-.24.38-.21.37-.17.37-.11.38-.27.37-.17.38-.28.37-.26h.37l.38-.29.37-.21.37-.32.38-.21.37-.39.38-.17.37-.22.37-.26.38.02.37-.31.38-.2.37-.22.37-.19.38-.5.37-.1.38-.21.37-.21.37-.23.38-.13.37-.32.37-.2.38-.23.37-.13.38-.16.37.15.37-.19.38-.22.37-.14.38-.13.37-.27.37-.1.38-.08.37-.12.38-.25.37-.27.37-.15.38-.21.37-.21.38-.39.37-.17.37-.19.38-.22.37-.18.37-.25.38-.09.37-.2.38.25.37-.11.37-.17.38-.15.37-.19.38-.21.37-.2.37-.19.38-.21.37-.23.38-.15.37-.12.37-.14.38-.18.37.01.37.35.38-.02.37-.2.38-.03.37-.13.37-.11.38-.19.37-.17.38-.07.37-.24.37-.18.38-.16.37-.19.38-.23.37-.21.37-.15.38-.23.37-.1.38-.15.37-.14.37-.15.38-.2.37-.03.37-.17.38-.1.37-.05.38-.14.37-.11.37-.14.38-.1.37-.17.38-.2.37-.21.37-.13.38-.18.37-.9.38-.2.37-.17.37-.26.38.01.37-.09.37-.16.38-.11.37-.16.38-.16.37-.11.37-.17.38-.09.37-.15.38-.15.37-.14h.37l.38-.08.37-.15.38-.12.37-.07.37 1.31.38-.15.37-.21.38-.1.37-.22.37-.17.38-.12.37-.15.37-.24.38-.14.37-.13.38-.17.37-.12.37-.14.38-.19.37-.15.38-.12.37-.17.37-.07.38-.03.37-.07.38-.19.37-.13.37-.1.38-.06.37.15.37-.11.38-.06.37-.11.38-.18.37-.11.37-.16.38-.14.37-.1.38-.14.37-.14.37-.15.38-.18.37-.08.38.1.37-.11.37-.1.38-.12.37-.16.38-.1.37-.15.37-.1.38-1.58.37-.07.37-.1.38-.08.37-.1.38-.08.37-.09.37-.19.38-.1.37-.1.38-.04.37-.07.37-.12.38-.21.37-.12.38.08.37-.21.37-.02.38-.17.37.2.37-.1.38-.13.37-.12.38.04.37-.07.37.11.38-.15.37-.03.38-.1.37-.1.37-.1.38-.09.37-.03.38-.09.37-.04.37-.09.38-.13.37-.07.38-.11.37-.15.37-.17.38-.15.37-.11.37-.06.38.02.37-.1.38-.13.37-.08.37-.08h.38l.37-.58.38-.1.37-.03.37-.04.38-.1.37-.12.38-.07.37-.13.37-.16.38-.08.37-.16.37-.12.38-.17.37-.08.38-.15.37-.06.37-.18.38-.12.37-.08.38-.12.37-.17.37-.11.38-.14.37-.07.38-.08.37-.05.37-.09.38-.09.37-.02.38-.1.37-.1.37.06.38-.11.37-.1.37-.15.38-.11.37-.09.38-.06.37-.07.37-.01.38 1.07.37-.07.38-.1.37-.11.37-.07.38-.17.37.03.38-.09.37-.04.37-.09.38-.13.37-.07.37-.08.38-.12.37-.14.38-.06.37-.14.37-.11.38-.14.37-.09.38-.12.37-.1.37.16.38-.09.37.19.38-.65.37.01.37-.13.38-.09.37-.09.38.03.37-.08.37-.15.38-.08.37-.09.37-.06.38-.12.37-.12.38-.07.37-.12.37-.1.38-.06.37-.1.38-.06.37-.08.37-.04.38.01.37-.04.38-.02.37-.07.37-.06.38-.06.37-.09.37-.03.38-.07.37-.02.38-.1.37-.05.37-.05.38-.02.37-.1.38-.03.37-.11.37-.1.38-.07h.37l.38-.08.37-.06.37-.04.38-.1.37-.05.38-.15.37-.07.37-.02.38-.1.37-.08.37-.12.38-.08.37-.01.38.04.37-.12.37-.1.38-.06.37-.08.38-.13.37-.06.37-.07.38-.07.37-.07.38-.11.37-.06.37-.02.38-.07.37-.08.37-.07.38-.08.37-.09.38-.09.37.07.37-.06.38.02h.37l.38-.06.37-.05.37-.07.38-.06.37-.08.38-.03.37-.06.37-.05.38-.1.37.59.37-.08.38-.07.37-.08.38-.08.37-.06.37-.08.38-.26.37-.08.38-.07.37-.08.37-.15.38-.08.37-.02.38-.06.37-.02.37-.13.38-.04.37-.06.38-.04.37-.04.37-.06.38-.1.37.05.37-.11.38-.07.37-.02.38-.08.37-.05.37-.05.38-.06.37-.12.38-.11.37-.12.37-.06.38-.02.37-.07.38-.07.37-.06.37-.09.38-.06.37-.04.37-.07.38-.03.37-.06.38-.1.37-.05.37-.08.38-.07.37-.06.38-.02.37-.07.37-.07h.38l.37-.05.38-.06.37-.08.37-.09.38-.08.37-.07.38-.07.37-.08.37-.08.38-.09.37-.04.37-.04.38-.09h.37l.38-.08.37-.07.37-.09.38-.06.37-.04.38-.11.37-.06.37-.05.38-.08.37-.07.38-.02.37-.09.37-.09.38-.03.37.01.37-.07.38-.05.37-.03.38-.08.37.08.37-.06.38-.06.37-.02.38-.04.37-.1.37-.09h.38l.37-.05.38-.06.37-.03.37-4.42.38-.06.37-.07.38-.05.37-.09.37-.09.38.11.37-.03.37-.06.38-.1.37-.05.38-.06.37-.04.37-.04.38-.06.37-.07.38-.1.37-.04.37-.05.38-.06.37-.05.38-.06.37-.06.37-.05.38-.06.37-.05.37-.09.38-.05.37-.06.38-.03.37-.05.37-.06.38-.06.37-.32.38-.15.37-.03.37-.15.38-.06.37-.09.38-.07.37-.08.37-.05.38-.08.37-.08.38-.08.37-.05.37-.08.38-.05.37-.04.37-.01.38-.06.37-.06.38-.05.37-.05.37-.05.38-.05.37-.06.38.01.37-.08.37-.03.38-.04.37-.1.38-.06.37.01.37-.25.38-.05.37-.15.37-.04.38-.05.37.03.38-.02.37-.07.37-.05.38-.05.37-.04.38-.11.37-.07.37.08.38-.07.37-.05.38.63.37-.04.37-.03.38-.05.37-.06h.38l.37-.05.37-.04.38-.05.37.65.37-.04.38-.05.37-.05.38-.05.37-.05.37-.09.38-.05.37-.08.38-.05.37-.06.37-.03.38-.04.37-.06.38-.06.37-.01.37-.28.38-.08.37-.05.37-.05.38-.04.37-.03.38-.21.37.01.37-.07.38-.07.37.41.38-.03.37-.05.37-.02.38-.07.37-.04.38-.06.37-.04.37-.06.38-.06.37-.08.38-.04.37-.06.37-.06.38-.07.37-.06.37-.05.38-.02.37-.08.38-.1.37-.01.37-.08.38-.07.37-.05.38-.04.37-.16.37-.04.38-.07.37-.06.38-.05.37-.07.37-.07.38.06.37-.03.37-.02.38-.03.37-.07.38-.05.37-.07.37-.06.38-.05.37-.02.38-.05.37-.05.37-.09.38-.02.37-.03.38-.05.37.03.37-.06.38-.07.37-.04.38-.04.37-.09.37-.02.38-.05.37-.06.37-.1.38-.03.37-.06.38-.05.37-.02.37-.04.38-.03.37-.04.38-.07.37-.01.37-.06.38-.05.37-.05.38-.05.37-.06.37-.03.38-.04.37-.15.37-.05.38-.05.37-.03.38-.04.37-.04.37-.05.38-.04.37-.04.38-.04.37-.04.37-.04.38-.01.37-.05.38-.05.37-.04.37-.09.38.05.37-.04.38-.03.37-.04.37-.03.38-.02.37-.02.37-.03.38-.61.37-.08.38-.01.37-.05.37-.06.38-.03.37-.04.38.02.37-.03.37-.04h.38l.37-.03.38-.06.37-.04.37-.04.38-.06.37-.04.37-.02.38-.04.37-.05.38-.06.37-.02.37-.05.38-.03.37-.02.38-.03.37-.05.37-.02.38-.03.37-.05.38-.03.37-.04.37-.04.38-.06.37-.05.38-.05.37-.05.37 2.81.38-.03.37-.08.37-.05.38-.06.37-.05.38-.03.37.04h.37l.38-.05.37-.04.38-.06.37-.13.37-.03.38-.06.37-.04.38-.03.37-.06.37-.05.38-.03.37-.02.37-.03.38-.06.37-.05.38-.04.37-.04.37-.02.38-.04.37-.03.38-.05.37-.05.37-.05.38-.08.37-.05.38-.04.37-.04.37-.21.38-.04h.37l.38-.31.37-.07.37-.04.38-.08.37-.04.37-.03.38-.04.37-.05.38-.01.37-.05.37-.04.38-.05.37-.04.38.39.37-.03.37-.03.38-.03.37-.05.38-.03.37-.03h.37l.38-.14.37-.05.37-.05.38-.04.37-.03.38-.04.37-.04.37-.02.38-.04.37-.06.38-.03.37-.02"/><use xlink:href="#g" color="#FFAB00" transform="matrix(3.75 0 0 3.75 171.2 98.35)"/><use xlink:href="#g" color="#FFAB00" transform="matrix(3.75 0 0 3.75 220.55 22.51)"/></g><path fill="none" stroke="none" stroke-linecap="round" stroke-linejoin="round" stroke-width="0" d="M28 45.01V205M371.99 45.01H28" color="#000"/></svg>