<svg xmlns="http://www.w3.org/2000/svg" xmlns:xlink="http://www.w3.org/1999/xlink" viewBox="0 0 400 250"><path fill="none" d="M0 0h400v250H0z"/><defs><path id="g" stroke="currentColor" stroke-width=".267" d="M-1 0h2M0-1v2"/><path id="h" stroke="currentColor" stroke-width=".267" d="m-1-1 2 2m0-2-2 2"/><path id="i" stroke="currentColor" stroke-width=".267" d="M-1 0h2M0-1v2m-1-2 2 2m-2 0 2-2"/><path id="d" stroke="currentColor" stroke-width=".267" d="M-1-1h2v2h-2z"/><path id="b" stroke="currentColor" stroke-width=".267" d="m0-1.33-1.33 2h2.66z"/><path id="f" stroke="currentColor" stroke-width=".267" d="M0 1.33 1.265.411.782-1.067l-1.564-.009-.483 1.487z"/><use xlink:href="#b" id="c" stroke="currentColor" transform="rotate(180)"/><use xlink:href="#d" id="e" stroke="currentColor" transform="rotate(45)"/><circle id="a" cx="0" cy="0" r="1" stroke="currentColor" stroke-width=".267"/></defs><path fill="none" stroke="#000" stroke-linecap="round" stroke-linejoin="round" stroke-width=".1" d="M35.48 205V45.01" class="gridline" color="#000"/><g fill="none" stroke="none" stroke-linecap="round" stroke-linejoin="round" stroke-width="0" color="#000"><path d="M35.48 205v-7.5m0-152.49v7.5"/><text fill="#000" font-family="KaTeX_Main" font-size="10" text-anchor="middle" transform="translate(35.48 215.75)"><tspan> 1</tspan></text></g><path fill="none" stroke="#000" stroke-linecap="round" stroke-linejoin="round" stroke-width=".1" d="M72.87 205V45.01" class="gridline" color="#000"/><g fill="none" stroke="none" stroke-linecap="round" stroke-linejoin="round" stroke-width="0" color="#000"><path d="M72.87 205v-7.5m0-152.49v7.5"/><text fill="#000" font-family="KaTeX_Main" font-size="10" text-anchor="middle" transform="translate(72.87 215.75)"><tspan> 2</tspan></text></g><path fill="none" stroke="#000" stroke-linecap="round" stroke-linejoin="round" stroke-width=".1" d="M110.26 205V45.01" class="gridline" color="#000"/><g fill="none" stroke="none" stroke-linecap="round" stroke-linejoin="round" stroke-width="0" color="#000"><path d="M110.26 205v-7.5m0-152.49v7.5"/><text fill="#000" font-family="KaTeX_Main" font-size="10" text-anchor="middle" transform="translate(110.26 215.75)"><tspan> 3</tspan></text></g><path fill="none" stroke="#000" stroke-linecap="round" stroke-linejoin="round" stroke-width=".1" d="M147.65 205V45.01" class="gridline" color="#000"/><g fill="none" stroke="none" stroke-linecap="round" stroke-linejoin="round" stroke-width="0" color="#000"><path d="M147.65 205v-7.5m0-152.49v7.5"/><text fill="#000" font-family="KaTeX_Main" font-size="10" text-anchor="middle" transform="translate(147.65 215.75)"><tspan> 4</tspan></text></g><path fill="none" stroke="#000" stroke-linecap="round" stroke-linejoin="round" stroke-width=".1" d="M185.04 205V45.01" class="gridline" color="#000"/><g fill="none" stroke="none" stroke-linecap="round" stroke-linejoin="round" stroke-width="0" color="#000"><path d="M185.04 205v-7.5m0-152.49v7.5"/><text fill="#000" font-family="KaTeX_Main" font-size="10" text-anchor="middle" transform="translate(185.04 215.75)"><tspan> 5</tspan></text></g><path fill="none" stroke="#000" stroke-linecap="round" stroke-linejoin="round" stroke-width=".1" d="M222.43 205V45.01" class="gridline" color="#000"/><g fill="none" stroke="none" stroke-linecap="round" stroke-linejoin="round" stroke-width="0" color="#000"><path d="M222.43 205v-7.5m0-152.49v7.5"/><text fill="#000" font-family="KaTeX_Main" font-size="10" text-anchor="middle" transform="translate(222.43 215.75)"><tspan> 6</tspan></text></g><path fill="none" stroke="#000" stroke-linecap="round" stroke-linejoin="round" stroke-width=".1" d="M259.82 205V45.01" class="gridline" color="#000"/><g fill="none" stroke="none" stroke-linecap="round" stroke-linejoin="round" stroke-width="0" color="#000"><path d="M259.82 205v-7.5m0-152.49v7.5"/><text fill="#000" font-family="KaTeX_Main" font-size="10" text-anchor="middle" transform="translate(259.82 215.75)"><tspan> 7</tspan></text></g><path fill="none" stroke="#000" stroke-linecap="round" stroke-linejoin="round" stroke-width=".1" d="M297.21 205V45.01" class="gridline" color="#000"/><g fill="none" stroke="none" stroke-linecap="round" stroke-linejoin="round" stroke-width="0" color="#000"><path d="M297.21 205v-7.5m0-152.49v7.5"/><text fill="#000" font-family="KaTeX_Main" font-size="10" text-anchor="middle" transform="translate(297.21 215.75)"><tspan> 8</tspan></text></g><path fill="none" stroke="#000" stroke-linecap="round" stroke-linejoin="round" stroke-width=".1" d="M334.6 205V45.01" class="gridline" color="#000"/><g fill="none" stroke="none" stroke-linecap="round" stroke-linejoin="round" stroke-width="0" color="#000"><path d="M334.6 205v-7.5m0-152.49v7.5"/><text fill="#000" font-family="KaTeX_Main" font-size="10" text-anchor="middle" transform="translate(334.6 215.75)"><tspan> 9</tspan></text></g><path fill="none" stroke="#000" stroke-linecap="round" stroke-linejoin="round" stroke-width=".1" d="M371.99 205V45.01" class="gridline" color="#000"/><g fill="none" stroke="none" stroke-linecap="round" stroke-linejoin="round" stroke-width="0" color="#000"><path d="M371.99 205v-7.5m0-152.49v7.5"/><text fill="#000" font-family="KaTeX_Main" font-size="10" text-anchor="middle" transform="translate(371.99 215.75)"><tspan> 10</tspan></text></g><g fill="none" stroke="none" stroke-linecap="round" stroke-linejoin="round" stroke-width="0" color="#000"><path d="M371.99 205h-7.5"/><text fill="#000" font-family="KaTeX_Main" font-size="10" transform="translate(378.99 208.25)"><tspan>0.60</tspan></text></g><g fill="none" stroke="none" stroke-linecap="round" stroke-linejoin="round" stroke-width="0" color="#000"><path d="M371.99 178.33h-7.5"/><text fill="#000" font-family="KaTeX_Main" font-size="10" transform="translate(378.99 181.58)"><tspan>0.65</tspan></text></g><g fill="none" stroke="none" stroke-linecap="round" stroke-linejoin="round" stroke-width="0" color="#000"><path d="M371.99 151.67h-7.5"/><text fill="#000" font-family="KaTeX_Main" font-size="10" transform="translate(378.99 154.92)"><tspan>0.70</tspan></text></g><g fill="none" stroke="none" stroke-linecap="round" stroke-linejoin="round" stroke-width="0" color="#000"><path d="M371.99 125h-7.5"/><text fill="#000" font-family="KaTeX_Main" font-size="10" transform="translate(378.99 128.25)"><tspan>0.75</tspan></text></g><g fill="none" stroke="none" stroke-linecap="round" stroke-linejoin="round" stroke-width="0" color="#000"><path d="M371.99 98.34h-7.5"/><text fill="#000" font-family="KaTeX_Main" font-size="10" transform="translate(378.99 101.59)"><tspan>0.80</tspan></text></g><g fill="none" stroke="none" stroke-linecap="round" stroke-linejoin="round" stroke-width="0" color="#000"><path d="M371.99 71.67h-7.5"/><text fill="#000" font-family="KaTeX_Main" font-size="10" transform="translate(378.99 74.92)"><tspan>0.85</tspan></text></g><g fill="none" stroke="none" stroke-linecap="round" stroke-linejoin="round" stroke-width="0" color="#000"><path d="M371.99 45.01h-7.5"/><text fill="#000" font-family="KaTeX_Main" font-size="10" transform="translate(378.99 48.26)"><tspan>0.90</tspan></text></g><path fill="none" stroke="none" stroke-linecap="round" stroke-linejoin="round" stroke-width="0" d="M28 45.01V205M371.99 45.01H28" color="#000"/><text fill="#000" stroke="none" stroke-linecap="round" stroke-linejoin="round" stroke-width="0" color="#000" font-family="KaTeX_Main" font-size="10" text-anchor="middle" transform="rotate(-90 68.255 56.755)"><tspan font-weight="bold">Duration </tspan><tspan> in milliseconds</tspan></text><text fill="#000" stroke="none" stroke-linecap="round" stroke-linejoin="round" stroke-width="0" color="#000" font-family="KaTeX_Main" font-size="10" text-anchor="middle" transform="translate(199.99 238.25)"><tspan>Operations / 10</tspan><tspan dy="-5" font-size="8">6</tspan></text><text fill="#000" stroke="none" stroke-linecap="round" stroke-linejoin="round" color="#000" font-family="KaTeX_Main" font-size="8" transform="translate(116 10.11)"><tspan>AVLBottomUp</tspan></text><g fill="none" stroke="currentColor" stroke-linecap="round" stroke-linejoin="round" color="#000"><path stroke="#000" d="M80.5 7.51h29.9M28 147.93l.37-.14.38-.08.37-.06.38-.02.37-.01.37.01.38.03.37.02.38.03.37.02.37.03.38.01.37.01h.37l.38-.01.37-.01.38-.03.37-.03.37-.04.38-.05.37-.05.38-.07.37-.06.37-.08.38-.07.37-.08.38-.09.37-.09.37-.1.38-.11.37-.12.37-.14.38-.15.37-.18.38-.2.37-.23.37-.27.38-.31.37-.35.38-.39.37-.44.37-.49.38-.53.37-.58.38-.63.37-.66.37-.7.38-.73.37-.75.38-.77.37-.77.37-.78.38-.78.37-.76.37-.74.38-.72.37-.69.38-.65.37-.62.37-.58.38-.53.37-.49.38-.45.37-.41.37-.37.38-.32.37-.29.38-.25.37-.22.37-.19.38-.16.37-.13.37-.11.38-.09.37-.08.38-.06.37-.04.37-.04.38-.02.37-.02.38-.01.37-.01h.75l.37.01h.38l.37.01.37.01.38.01.37.01.38.01.37.01.37.01.38.01h.37l.37.01.38.01h.37l.38.01H66.51l.38-.01.37-.01h.37l.38-.01.37-.02.38-.01.37-.02.37-.01.38-.02.37-.02.37-.02.38-.02.37-.02.38-.02.37-.02.37-.02.38-.02.37-.02.38-.02.37-.01.37-.02.38-.01.37-.01.38-.01.37-.01.37-.01h.75l.38-.01h1.12l.37.01h.75l.37.01h1.12l.38.01h.37l.38-.01h.37l.37-.01.38-.01.37-.01.38-.02.37-.02.37-.03.38-.04.37-.04.37-.05.38-.06.37-.08.38-.08.37-.1.37-.12.38-.13.37-.15.38-.17.37-.19.37-.21.38-.23.37-.26.38-.28.37-.31.37-.33.38-.36.37-.38.38-.4.37-.43.37-.45.38-.47.37-.48.37-.5.38-.52.37-.52.38-.53.37-.54.37-.54.38-.54.37-.53.38-.53.37-.52.37-.51.38-.5.37-.48.38-.46.37-.44.37-.42.38-.41.37-.37.37-.36.38-.33.37-.31.38-.28.37-.27.37-.23.38-.22.37-.2.38-.17.37-.16.37-.14.38-.13.37-.1.38-.1.37-.08.37-.06.38-.06.37-.05.38-.04.37-.03.37-.03.38-.02.37-.01.37-.01.38-.01.37-.01.38-.01h.74l.38-.01h.75l.37-.01h.37l.38-.01h.37l.38-.01h.37l.37-.01h.38l.37-.01h.37l.38-.01h1.87l.37.01h.38l.37.01.37.01.38.01.37.01.38.01.37.02.37.01.38.02.37.01.38.02.37.01.37.02.38.01.37.01.37.02.38.01.37.01.38.01h.37l.37.01h.38l.37.01h2.62l.37-.01h1.12l.38-.01h.75l.37-.01h.37l.38-.01h.75l.37-.01h.37l.38-.01.37-.01h.38l.37-.01.37-.01.38-.01.37-.01.38-.01.37-.01.37-.01.38-.02.37-.01.37-.01.38-.02.37-.01.38-.02.37-.01.37-.01.38-.02.37-.01.38-.01.37-.01.37-.02.38-.01h.37l.38-.01.37-.01.37-.01h.38l.37-.01h1.5l.37-.01h.75l.37.01h6.73l.38-.01h1.12l.37-.01h.38l.37-.01h.37l.38-.01h.37l.38-.01.37-.01.37-.01h.38l.37-.01.37-.01.38-.01.37-.01.38-.01.37-.01.37-.01.38-.01.37-.01.38-.02.37-.01.37-.01.38-.01.37-.02.38-.01.37-.01.37-.01.38-.02.37-.01.38-.01.37-.01.37-.02.38-.01.37-.01.37-.01.38-.01.37-.02.38-.01.37-.01.37-.01.38-.01.37-.01.38-.01.37-.02.37-.01.38-.01.37-.01.38-.01.37-.02.37-.01.38-.01.37-.02.37-.01.38-.02.37-.02.38-.02.37-.02.37-.03.38-.03.37-.03.38-.04.37-.04.37-.05.38-.05.37-.06.38-.06.37-.08.37-.09.38-.09.37-.11.38-.12.37-.13.37-.15.38-.16.37-.18.37-.2.38-.22.37-.23.38-.25.37-.28.37-.29.38-.32.37-.33.38-.36.37-.37.37-.39.38-.42.37-.43.38-.44.37-.46.37-.48.38-.48.37-.5.37-.5.38-.51.37-.52.38-.51.37-.52.37-.51.38-.51.37-.5.38-.5.37-.48.37-.47.38-.46.37-.44.38-.43.37-.4.37-.39.38-.38.37-.35.38-.33.37-.32.37-.29.38-.27.37-.26.37-.24.38-.21.37-.2.38-.19.37-.17.37-.15.38-.14.37-.12.38-.11.37-.1.37-.09.38-.08.37-.07.38-.06.37-.05.37-.04.38-.04.37-.02.37-.03.38-.02.37-.01.38-.01h.74l.38.01h.37l.38.01.37.02.37.01.38.02.37.02.38.02.37.02.37.03.38.02.37.03.37.03.38.02.37.03.38.02.37.03.37.03.38.02.37.02.38.02.37.03.37.01.38.02.37.02.38.01.37.01.37.01.38.01h1.87l.37-.01.37-.01.38-.01.37-.01.38-.01.37-.01.37-.01.38-.01.37-.02.38-.01.37-.01.37-.02.38-.01.37-.01.38-.01.37-.02.37-.01.38-.01.37-.01.37-.01h.38l.37-.01.38-.01h.37l.37-.01h.38l.37-.01h.75l.37-.01h1.87l.38-.01H240l.38-.01h1.12l.37-.01h.38l.37-.01h.37l.38-.01h.37l.38-.01h.37l.37-.01.38-.01h.37l.37-.01.38-.01.37-.01h.38l.37-.01.37-.01.38-.01.37-.01.38-.01.37-.01.37-.01.38-.01.37-.01.38-.01.37-.01.37-.02.38-.01.37-.01.38-.02.37-.01.37-.02.38-.01.37-.02.37-.01.38-.02.37-.01.38-.02.37-.02.37-.01.38-.02.37-.02.38-.02.37-.01.37-.02.38-.02.37-.02.38-.02.37-.02.37-.02.38-.02.37-.02.37-.02.38-.02.37-.02.38-.02.37-.02.37-.02.38-.02.37-.02.38-.02.37-.02.37-.02.38-.02.37-.02.38-.01.37-.02.37-.01.38-.01.37-.01.38-.01.37-.01.37-.01.38-.01h.37l.37-.01h.75l.38-.01h1.12l.37-.01h1.5l.37-.01h.75l.37-.01h.38l.37-.01h.37l.38-.01h.37l.38-.01h.37l.37-.01h.38l.37-.01h.38l.37-.01h1.5l.37.01h.37l.38.01.37.01.38.01.37.02.37.01.38.02.37.02.37.03.38.02.37.03.38.03.37.03.37.03.38.03.37.03.38.03.37.03.37.03.38.02.37.03.38.02.37.03.37.02.38.02.37.02.37.02.38.01.37.02.38.02.37.02.37.01.38.02.37.02.38.02.37.02.37.02.38.02.37.02.38.02.37.02.37.02.38.02.37.02.38.02.37.01.37.02.38.01.37.01.37.02h.38l.37.01.38.01h.74l.38.01h2.24l.38-.01H307.3l.38-.01h.37l.38-.01h.37l.37-.01h.38l.37-.01h.38l.37-.01h.37l.38-.01h.37l.38.01h.37l.37.01.38.01.37.01.38.02.37.02.37.02.38.02.37.03.37.03.38.02.37.03.38.02.37.03.37.02.38.01.37.02.38.01H320.39l.38-.01.37-.01h.37l.38-.01.37-.01h1.5l.37.01.37.01h.38l.37.01.38.01.37.01h.75l.37-.01.38-.01.37-.03.37-.03.38-.03.37-.05.38-.05.37-.06.37-.07.38-.07.37-.07.37-.07.38-.07.37-.06.38-.05.37-.05.37-.03.38-.03h.75l.37.02.37.03.38.04.37.05.38.06.37.07.37.07.38.07.37.06.37.07.38.05.37.05.38.04.37.03.37.02h.75l.38-.01.37-.01.37-.02.38-.02.37-.02.38-.02.37-.02h.75l.37.01.38.02.37.02.37.04.38.03.37.05.37.04.38.05.37.04.38.04.37.04.37.02.38.02h.75l.37-.01.37-.03.38-.02.37-.04.38-.03.37-.04.37-.04.38-.03.37-.03.37-.03.38-.03.37-.04.38-.03.37-.05.37-.07.38-.09.37-.13.38-.17.37-.22.37-.29.38-.35.37-.41.38-.49.37-.53.37-.58.38-.59.37-.58.38-.53.37-.44.37-.33.38-.18.37.01.37.19.38.37.37.54.38.65.37.71.37.7.38.66.37.6.38.56.37.55.37.55.38.53.37.38.38.09.37-.36.37-.82.38-1.02.37-.62.37.5.38 2.13.37 3.41.38 3.12.37.38.37-4.12.38-7.62.37-7.28.38-5.72.37-21.37"/><use xlink:href="#g" transform="matrix(3.75 0 0 3.75 342.45 87.86)"/><use xlink:href="#g" transform="matrix(3.75 0 0 3.75 95.45 7.51)"/></g><text fill="#000" stroke="none" stroke-linecap="round" stroke-linejoin="round" color="#000" font-family="KaTeX_Main" font-size="8" transform="translate(116 25.11)"><tspan>AVLTopDown</tspan></text><g fill="none" stroke="currentColor" stroke-linecap="round" stroke-linejoin="round" color="#000"><path stroke="#29C3F6" stroke-dasharray="1.0,2.0" d="M80.5 22.51h29.9M28 143.36l.37-.18.38-.15.37-.13.38-.1.37-.09.37-.08.38-.06.37-.05.38-.04.37-.03.37-.02.38-.01h.74l.38.01.37.01.38.02.37.03.37.03.38.04.37.04.38.03.37.04.37.03.38.02.37.01.38-.01.37-.03.37-.05.38-.08.37-.11.37-.14.38-.19.37-.23.38-.28.37-.33.37-.38.38-.43.37-.48.38-.53.37-.59.37-.63.38-.67.37-.71.38-.74.37-.77.37-.79.38-.8.37-.81.38-.8.37-.8.37-.78.38-.76.37-.73.37-.71.38-.67.37-.64.38-.6.37-.56.37-.52.38-.49.37-.45.38-.41.37-.38.37-.35.38-.31.37-.29.38-.27.37-.24.37-.22.38-.2.37-.18.37-.17.38-.15.37-.14.38-.12.37-.11.37-.09.38-.09.37-.08.38-.06.37-.06.37-.05.38-.04.37-.03.38-.03.37-.02.37-.01.38-.01h.75l.37.01.37.01.38.01.37.02.37.02.38.02.37.02.38.03.37.02.37.03.38.02.37.03.38.02.37.02.37.02.38.02.37.01.38.02h.37l.37.01h.75l.37-.01H71l.37-.01.38-.02.37-.01.37-.02.38-.02.37-.02.38-.02.37-.02.37-.02.38-.03.37-.02.38-.02.37-.01.37-.02.38-.01.37-.01.38-.01.37-.01h1.12l.37.01.38.01.37.01.38.01.37.02.37.01.38.02.37.02.38.02.37.01.37.02.38.01h1.12l.37-.01.38-.03.37-.03.37-.04.38-.06.37-.07.38-.08.37-.1.37-.12.38-.13.37-.15.38-.17.37-.19.37-.21.38-.23.37-.25.38-.27.37-.29.37-.3.38-.33.37-.34.38-.36.37-.38.37-.38.38-.41.37-.41.37-.43.38-.43.37-.44.38-.44.37-.45.37-.45.38-.44.37-.45.38-.44.37-.43.37-.42.38-.42.37-.4.38-.4.37-.37.37-.37.38-.35.37-.33.37-.32.38-.3.37-.28.38-.26.37-.25.37-.23.38-.21.37-.2.38-.18.37-.17.37-.15.38-.14.37-.12.38-.12.37-.1.37-.09.38-.08.37-.07.38-.06.37-.06.37-.04.38-.04.37-.04.37-.03.38-.03.37-.02.38-.02.37-.02.37-.01.38-.01.37-.01.38-.01h.74l.38-.01h1.12l.37.01h.75l.37.01.38.01h.37l.38.01.37.01.37.01h.38l.37.01.38.01.37.01.37.01h.38l.37.01h.38l.37.01h.37l.38.01h2.24l.37-.01h.38l.37-.01h.75l.37-.01.38-.01h.37l.38-.01h.37l.37-.01.38-.01.37-.01h.38l.37-.01.37-.01.38-.01.37-.01.37-.02.38-.01.37-.02.38-.01.37-.02.37-.02.38-.02.37-.02.38-.03.37-.02.37-.03.38-.02.37-.03.38-.02.37-.03.37-.02.38-.02.37-.03.38-.02.37-.02.37-.01.38-.02.37-.01h.37l.38-.01h1.12l.37.01.38.01.37.02.38.01.37.02.37.02.38.03.37.02.38.03.37.03.37.02.38.03.37.03.37.03.38.03.37.03.38.02.37.03.37.02.38.03.37.02.38.02.37.02.37.02.38.02.37.01.38.02.37.01.37.02.38.01.37.01.38.01.37.01.37.01.38.01h.37l.37.01h.38l.37.01h2.25l.37-.01h.37l.38-.01.37-.01.38-.01.37-.01.37-.01.38-.01.37-.01.37-.02.38-.01.37-.02.38-.01.37-.01.37-.02.38-.01.37-.01.38-.01.37-.01.37-.01h.38l.37-.01h1.5l.37.01h.38l.37.01h.37l.38.01.37.01h.37l.38.01.37.01h.38l.37.01h1.5l.37-.01.37-.01.38-.01.37-.01.38-.02.37-.02.37-.03.38-.03.37-.03.37-.03.38-.04.37-.05.38-.05.37-.05.37-.06.38-.06.37-.07.38-.08.37-.08.37-.09.38-.1.37-.11.38-.11.37-.13.37-.14.38-.14.37-.16.38-.18.37-.19.37-.2.38-.22.37-.24.37-.26.38-.27.37-.3.38-.31.37-.34.37-.35.38-.37.37-.4.38-.41.37-.44.37-.45.38-.47.37-.49.38-.5.37-.52.37-.53.38-.54.37-.55.37-.55.38-.56.37-.57.38-.56.37-.56.37-.56.38-.55.37-.54.38-.53.37-.52.37-.5.38-.48.37-.47.38-.45.37-.43.37-.41.38-.38.37-.37.38-.34.37-.32.37-.3.38-.28.37-.25.37-.24.38-.22.37-.2.38-.19.37-.17.37-.15.38-.15.37-.13.38-.12.37-.11.37-.1.38-.09.37-.09.38-.08.37-.08.37-.07.38-.07.37-.06.37-.06.38-.06.37-.05.38-.06.37-.05.37-.04.38-.05.37-.04.38-.04.37-.03.37-.04.38-.03.37-.03.38-.02.37-.03.37-.02.38-.01.37-.02.37-.01.38-.01.37-.01h1.87l.38.01.37.01.37.01.38.01.37.01.38.01.37.01.37.01.38.02.37.01.38.01.37.02.37.01.38.01.37.01.37.02.38.01.37.01.38.01.37.01h.37l.38.01.37.01h.38l.37.01h.37l.38.01h.75l.37.01h1.12l.37.01h1.87l.38.01h4.11l.38-.01h1.12l.37-.01H240l.38-.01h1.12l.37-.01h2.62l.37.01h.38l.37.01.37.01.38.01.37.01.38.01.37.02.37.01.38.02.37.02.38.01.37.02.37.02.38.02.37.02.38.02.37.02.37.01.38.02.37.01.38.01.37.01.37.01h1.5l.37-.01.38-.01.37-.01.37-.01.38-.02.37-.02.38-.02.37-.02.37-.02.38-.02.37-.03.38-.02.37-.02.37-.03.38-.02.37-.02.37-.02.38-.02.37-.02.38-.02.37-.01.37-.01.38-.02.37-.01.38-.01h.37l.37-.01.38-.01h.75l.37-.01h1.5l.37.01H269.91l.38.01H273.65l.38-.01h.37l.38-.01h.37l.37-.01.38-.01.37-.01.37-.01.38-.01.37-.01.38-.01.37-.01.37-.02.38-.01.37-.02.38-.02.37-.02.37-.02.38-.03.37-.02.38-.03.37-.03.37-.03.38-.03.37-.04.38-.03.37-.04.37-.04.38-.04.37-.03.37-.04.38-.04.37-.03.38-.03.37-.03.37-.03.38-.02.37-.02.38-.02.37-.01.37-.01.38-.01H290.85l.38.01h.37l.37.01.38.01.37.01h.38l.37.01.37.01.38.02.37.01.38.02.37.01.37.02.38.03.37.02.38.03.37.03.37.04.38.04.37.04.38.05.37.05.37.05.38.05.37.05.37.05.38.06.37.05.38.04.37.05.37.04.38.03.37.03.38.03.37.02.37.02.38.01.37.01h.38l.37.01.37-.01h.38l.37-.01.37-.01.38-.01.37-.01.38-.01.37-.02.37-.01.38-.02.37-.02.38-.03.37-.02.37-.03.38-.03.37-.04.38-.04.37-.04.37-.05.38-.05.37-.05.38-.05.37-.05.37-.05.38-.06.37-.05.37-.05.38-.04.37-.04.38-.04.37-.04.37-.03.38-.03.37-.02.38-.02.37-.02.37-.01.38-.02.37-.01h.38l.37-.01h.75l.37.01.37.01.38.01.37.02.38.02.37.04.37.04.38.04.37.06.38.06.37.07.37.07.38.08.37.09.38.08.37.08.37.08.38.07.37.06.38.06.37.04.37.03.38.01h.37l.37-.01.38-.03.37-.04.38-.05.37-.06.37-.06.38-.06.37-.06.38-.06.37-.05.37-.04.38-.04.37-.01.38-.01.37.02.37.02.38.04.37.05.37.06.38.06.37.08.38.07.37.08.37.07.38.07.37.06.38.06.37.05.37.05.38.03.37.03.38.03.37.03.37.02.38.03.37.02.38.03.37.03.37.04.38.03.37.03.37.03.38.02.37.02h.38l.37-.01.37-.03.38-.04.37-.05.38-.06.37-.08.37-.08.38-.09.37-.09.38-.08.37-.09.37-.07.38-.07.37-.06.37-.06.38-.04.37-.04.38-.04.37-.02.37-.03.38-.01.37-.02h.75l.37.02.38.03.37.04.38.07.37.09.37.1.38.13.37.13.38.13.37.12.37.11.38.07.37.03h.37l.38-.05.37-.08.38-.12.37-.16.37-.19.38-.21.37-.19.38-.13.37-.04.37.03.38.07h.37l.38-.18.37-.43.37-.58.38-.5.37-.02.37.87.38 1.96.37 2.77.38 2.61.37.86.37-2.82.38-7.73.37-10.76.38-3.25.37 28.65"/><use xlink:href="#h" color="#29C3F6" transform="matrix(3.75 0 0 3.75 56.04 121.13)"/><use xlink:href="#h" color="#29C3F6" transform="matrix(3.75 0 0 3.75 95.45 22.51)"/></g><text fill="#000" stroke="none" stroke-linecap="round" stroke-linejoin="round" color="#000" font-family="KaTeX_Main" font-size="8" transform="translate(241.1 10.11)"><tspan>AVLWeakBottomUp</tspan></text><g fill="none" stroke="currentColor" stroke-linecap="round" stroke-linejoin="round" color="#000"><path stroke="#3B75EA" d="M205.6 7.51h29.9M28 152.74l.37-.21.38-.17.37-.12.38-.1.37-.07.37-.04.38-.02.37-.01.38.02.37.02.37.03.38.05.37.04.37.06.38.05.37.05.38.06.37.05.37.06.38.05.37.04.38.04.37.04.37.02.38.02.37.01h.38l.37-.01.37-.04.38-.05.37-.07.37-.09.38-.13.37-.16.38-.19.37-.22.37-.27.38-.31.37-.36.38-.4.37-.44.37-.49.38-.53.37-.58.38-.61.37-.64.37-.68.38-.7.37-.72.38-.74.37-.74.37-.74.38-.74.37-.72.37-.71.38-.69.37-.65.38-.63.37-.59.37-.56.38-.52.37-.47.38-.44.37-.4.37-.36.38-.32.37-.29.38-.25.37-.22.37-.19.38-.17.37-.14.37-.12.38-.1.37-.08.38-.07.37-.05.37-.04.38-.04.37-.02.38-.02.37-.02.37-.01h.38l.37-.01h1.5l.37.01h.75l.37.01h.75l.37.01h.75l.38.01h1.87l.37.01h2.99l.37-.01h2.62l.38-.01h.74l.38-.01h.37l.38-.01.37-.01.37-.01h.38l.37-.01.38-.01.37-.01.37-.01.38-.02.37-.01.37-.01.38-.01.37-.02.38-.01.37-.01.37-.02.38-.02.37-.01.38-.02.37-.02.37-.03.38-.03.37-.03.38-.03.37-.04.37-.05.38-.06.37-.06.37-.07.38-.09.37-.09.38-.11.37-.13.37-.14.38-.15.37-.18.38-.19.37-.21.37-.24.38-.25.37-.28.38-.31.37-.32.37-.35.38-.37.37-.39.38-.42.37-.43.37-.45.38-.47.37-.49.37-.5.38-.51.37-.51.38-.53.37-.53.37-.52.38-.53.37-.52.38-.52.37-.5.37-.49.38-.48.37-.46.38-.45.37-.43.37-.4.38-.39.37-.36.37-.34.38-.32.37-.3.38-.27.37-.25.37-.23.38-.21.37-.19.38-.17.37-.16.37-.13.38-.13.37-.1.38-.1.37-.08.37-.07.38-.06.37-.06.38-.04.37-.04.37-.03.38-.03.37-.02.37-.01.38-.02.37-.01h.38l.37-.01h1.12l.38.01h.74l.38.01h.37l.38.01h.74l.38.01h.74l.38.01h2.24l.38-.01h1.12l.37-.01h.38l.37-.01h.75l.37-.01h.38l.37-.01h.75l.37-.01h.37l.38-.01h.37l.38-.01h.37l.37-.01.38-.01.37-.01.38-.01.37-.01.37-.01.38-.01.37-.02.38-.01.37-.02.37-.01.38-.02.37-.02.37-.02.38-.02.37-.02.38-.02.37-.02.37-.03.38-.02.37-.02.38-.02.37-.02.37-.02.38-.02.37-.02.38-.02.37-.02.37-.02.38-.02.37-.02.38-.01.37-.02.37-.02.38-.01.37-.02.37-.01.38-.01.37-.02.38-.01.37-.01.37-.01.38-.01.37-.01.38-.01.37-.01.37-.01h.38l.37-.01h1.87l.37.01h.38l.37.01.38.01.37.01.37.02.38.01.37.02.38.02.37.02.37.02.38.02.37.02.38.03.37.02.37.03.38.02.37.03.38.03.37.02.37.03.38.03.37.02.37.03.38.02.37.03.38.02.37.02.37.02.38.02.37.02.38.02.37.01.37.02.38.02.37.01.38.01.37.01.37.02.38.01.37.01.37.01h.38l.37.01.38.01.37.01h.37l.38.01.37.01h.38l.37.01.37.01h.38l.37.01h.38l.37.01h.37l.38.01.37.01h.38l.37.01.37.01h.38l.37.01.37.01.38.01.37.01.38.01.37.01.37.01.38.01.37.01.38.01.37.02.37.01.38.01.37.01.38.01.37.01.37.01.38.01h.37l.37.01h.75l.38-.01.37-.01.37-.01.38-.02.37-.02.38-.03.37-.04.37-.04.38-.05.37-.06.38-.07.37-.08.37-.09.38-.11.37-.11.38-.13.37-.14.37-.16.38-.17.37-.19.37-.21.38-.22.37-.24.38-.26.37-.28.37-.29.38-.32.37-.33.38-.35.37-.37.37-.39.38-.4.37-.42.38-.43.37-.44.37-.46.38-.47.37-.48.37-.48.38-.49.37-.5.38-.49.37-.5.37-.49.38-.49.37-.49.38-.47.37-.47.37-.46.38-.44.37-.44.38-.41.37-.41.37-.38.38-.37.37-.35.38-.33.37-.32.37-.3.38-.28.37-.26.37-.24.38-.23.37-.21.38-.19.37-.18.37-.16.38-.15.37-.14.38-.12.37-.11.37-.1.38-.1.37-.08.38-.07.37-.07.37-.06.38-.05.37-.05.37-.04.38-.04.37-.03.38-.03.37-.03.37-.02.38-.02.37-.02.38-.02.37-.02.37-.02.38-.02.37-.01.38-.02.37-.02.37-.01.38-.02.37-.02.37-.01.38-.02.37-.02.38-.02.37-.01.37-.02.38-.02.37-.02.38-.02.37-.02.37-.02.38-.02.37-.02.38-.02.37-.02.37-.02.38-.01.37-.02.38-.02.37-.01.37-.02.38-.01.37-.02.37-.01.38-.01.37-.01.38-.01.37-.01.37-.01.38-.01h.37l.38-.01h.37l.37-.01h1.13l.37.01h.37l.38.01h.37l.37.01.38.01.37.01.38.01.37.01.37.01.38.02.37.01.38.02.37.01.37.01.38.02.37.01.38.02.37.01.37.02.38.01.37.01.38.01.37.01.37.01.38.01.37.01.37.01.38.01h.37l.38.01h.37l.37.01h1.13l.37.01h.75l.37-.01h1.12l.38-.01h.37l.37-.01.38-.01h.37l.38-.01.37-.01.37-.01.38-.01.37-.01.38-.01.37-.01.37-.01.38-.01.37-.01.38-.01.37-.01.37-.01.38-.01.37-.01h.38l.37-.01.37-.01.38-.01.37-.01h.37l.38-.01.37-.01.38-.01.37-.01h.37l.38-.01.37-.01.38-.01.37-.01.37-.02.38-.01.37-.01.38-.01.37-.01.37-.01.38-.02.37-.01.37-.01.38-.01.37-.01.38-.01.37-.01.37-.01.38-.01.37-.01.38-.01h.37l.37-.01.38-.01h.37l.38-.01H268.79l.38.01.37.01.37.01.38.01.37.01.38.01.37.02.37.01.38.02.37.02.38.01.37.02.37.02.38.02.37.02.38.02.37.02.37.02.38.02.37.01.37.02.38.01.37.01.38.01.37.01h.37l.38.01h2.24l.38-.01h.74l.38-.01.37-.01h.38l.37-.01h.37l.38-.01h.37l.37-.01h.38l.37-.01h.38l.37-.01h2.99l.38.01h.37l.37.01h.38l.37.01h.37l.38.01h.37l.38.01h2.99l.37-.01h.38l.37-.01h.37l.38-.01H300.57l.38.01.37.01.38.01.37.01.37.01.38.02.37.01.38.02.37.01.37.02.38.02.37.02.38.01.37.02.37.02.38.01.37.02.37.01.38.02.37.02.38.01.37.02.37.01.38.02.37.01.38.01.37.01.37.01.38.01h1.12l.37-.01.38-.01.37-.02.38-.02.37-.03.37-.04.38-.03.37-.05.37-.04.38-.05.37-.05.38-.05.37-.05.37-.04.38-.05.37-.04.38-.03.37-.03.37-.03.38-.01.37-.01h.75l.37.01.38.02.37.02.37.02.38.03.37.03.38.02.37.03.37.03.38.02.37.03.38.02.37.02.37.02.38.01.37.02.38.02.37.01.37.02.38.02.37.02.38.02.37.02.37.03.38.02.37.02.37.02.38.02.37.02h.38l.37.01.37-.01.38-.01.37-.01.38-.03.37-.02.37-.04.38-.03.37-.04.38-.03.37-.03.37-.03.38-.02.37-.01h.37l.38.01.37.02.38.03.37.04.37.04.38.04.37.05.38.04.37.04.37.03.38.01h.37l.38-.01.37-.03.37-.05.38-.06.37-.07.38-.09.37-.09.37-.09.38-.08.37-.08.37-.06.38-.04.37-.02.38.01.37.03.37.06.38.08.37.1.38.12.37.12.37.13.38.12.37.11.38.09.37.07.37.05.38.03h.37l.37-.02.38-.04.37-.07.38-.08.37-.09.37-.1.38-.1.37-.1.38-.08.37-.07.37-.04.38-.02.37.02.38.04.37.07.37.09.38.09.37.08.38.06.37.03.37-.01.38-.04.37-.08.37-.1.38-.11.37-.12.38-.12.37-.14.37-.15.38-.15.37-.12.38-.06.37.03.37.12.38.14.37.06.38-.15.37-.41.37-.55.38-.41.37.11.37.9.38 1.58.37 1.62.38.67.37-1.19.37-3.27.38-4.63.37-4.89.38-5.48.37-20.74"/><use xlink:href="#d" color="#3B75EA" transform="matrix(3.75 0 0 3.75 113.62 114.47)"/><use xlink:href="#d" color="#3B75EA" transform="matrix(3.75 0 0 3.75 220.55 7.51)"/></g><text fill="#000" stroke="none" stroke-linecap="round" stroke-linejoin="round" color="#000" font-family="KaTeX_Main" font-size="8" transform="translate(241.1 25.11)"><tspan>AVLWeakTopDown</tspan></text><g fill="none" stroke="currentColor" stroke-linecap="round" stroke-linejoin="round" color="#000"><path stroke="#00C853" stroke-dasharray="4.5,2.0,0.5,2.0,0.5,2.0" d="M205.6 22.51h29.9M28 183.36l.37.26.38.28.37.31.38.31.37.3.37.3.38.26.37.23.38.19.37.14.37.09.38.03.37-.03.37-.08.38-.13.37-.17.38-.2.37-.24.37-.25.38-.26.37-.27.38-.26.37-.26.37-.26.38-.24.37-.24.38-.23.37-.24.37-.23.38-.25.37-.26.37-.29.38-.31.37-.35.38-.38.37-.42.37-.46.38-.51.37-.55.38-.59.37-.63.37-.66.38-.7.37-.71.38-.74.37-.74.37-.75.38-.74.37-.73.38-.7.37-.68.37-.65.38-.61.37-.56.37-.51.38-.46.37-.41.38-.35.37-.3.37-.25.38-.2.37-.15.38-.1.37-.06.37-.03h.38l.37.02.38.05.37.07.37.07.38.09.37.09.37.1.38.09.37.1.38.1.37.1.37.11.38.12.37.12.38.13.37.15.37.16.38.18.37.2.38.22.37.25.37.26.38.28.37.29.38.31.37.31.37.32.38.31.37.3.37.29.38.26.37.24.38.21.37.17.37.13.38.09.37.04.38-.01.37-.06.37-.1.38-.15.37-.19.38-.24.37-.26.37-.3.38-.33.37-.34.37-.36.38-.37.37-.37.38-.36.37-.36.37-.34.38-.33.37-.31.38-.28.37-.26.37-.23.38-.2.37-.17.38-.14.37-.12.37-.08.38-.07.37-.04.38-.03.37-.01h.37l.38.01.37.01.37.02.38.01.37.01h.38l.37-.02.37-.02.38-.04.37-.06.38-.07.37-.1.37-.12.38-.13.37-.16.38-.18.37-.2.37-.22.38-.25.37-.26.37-.28.38-.31.37-.32.38-.34.37-.37.37-.38.38-.4.37-.41.38-.44.37-.46.37-.47.38-.49.37-.5.38-.52.37-.53.37-.55.38-.55.37-.57.38-.57.37-.57.37-.57.38-.57.37-.56.37-.56.38-.54.37-.53.38-.51.37-.49.37-.46.38-.44.37-.42.38-.38.37-.35.37-.32.38-.29.37-.25.38-.22.37-.19.37-.16.38-.13.37-.09.37-.08.38-.04.37-.02h.38l.37.02.37.04.38.05.37.08.38.08.37.1.37.11.38.12.37.13.38.14.37.14.37.16.38.16.37.16.38.17.37.18.37.18.38.18.37.19.37.18.38.18.37.18.38.18.37.16.37.16.38.15.37.13.38.12.37.1.37.09.38.06.37.04.38.02h.37l.37-.02.38-.05.37-.06.37-.09.38-.1.37-.12.38-.13.37-.13.37-.14.38-.15.37-.14.38-.13.37-.12.37-.11.38-.08.37-.06.38-.04h.37l.37.03.38.06.37.1.38.15.37.18.37.22.38.26.37.31.37.33.38.38.37.41.38.43.37.47.37.48.38.51.37.51.38.53.37.53.37.54.38.53.37.52.38.5.37.49.37.47.38.45.37.41.37.39.38.35.37.31.38.28.37.24.37.19.38.16.37.11.38.07.37.03.37-.02.38-.05.37-.1.38-.14.37-.18.37-.21.38-.25.37-.29.38-.32.37-.34.37-.38.38-.4.37-.42.37-.44.38-.45.37-.48.38-.48.37-.49.37-.49.38-.5.37-.49.38-.49.37-.48.37-.48.38-.45.37-.45.38-.42.37-.41.37-.38.38-.37.37-.33.37-.31.38-.29.37-.25.38-.23.37-.21.37-.17.38-.15.37-.13.38-.1.37-.07.37-.05.38-.03.37-.01.38.01.37.03.37.04.38.06.37.08.38.09.37.1.37.11.38.13.37.13.37.14.38.15.37.16.38.16.37.17.37.17.38.17.37.18.38.18.37.17.37.18.38.17.37.16.38.16.37.15.37.14.38.13.37.12.37.1.38.09.37.06.38.06.37.03.37.01.38-.01.37-.03.38-.04.37-.07.37-.09.38-.1.37-.12.38-.13.37-.15.37-.16.38-.17.37-.18.38-.18.37-.19.37-.18.38-.19.37-.19.37-.18.38-.18.37-.17.38-.17.37-.16.37-.15.38-.14.37-.13.38-.13.37-.12.37-.11.38-.11.37-.1.38-.1.37-.09.37-.1.38-.09.37-.1.37-.1.38-.11.37-.11.38-.12.37-.13.37-.14.38-.15.37-.16.38-.17.37-.18.37-.2.38-.21.37-.23.38-.23.37-.26.37-.26.38-.29.37-.29.38-.32.37-.32.37-.34.38-.36.37-.37.37-.38.38-.39.37-.41.38-.43.37-.43.37-.44.38-.46.37-.46.38-.47.37-.48.37-.48.38-.49.37-.48.38-.49.37-.48.37-.48.38-.47.37-.47.37-.45.38-.44.37-.42.38-.4.37-.39.37-.37.38-.34.37-.32.38-.3.37-.27.37-.25.38-.22.37-.19.38-.17.37-.14.37-.11.38-.1.37-.06.38-.05.37-.03h.37l.38.01.37.03.37.04.38.06.37.07.38.08.37.09.37.1.38.11.37.11.38.12.37.13.37.13.38.13.37.13.38.13.37.13.37.13.38.12.37.13.37.11.38.12.37.1.38.09.37.09.37.07.38.06.37.05.38.03.37.02h.37l.38-.01.37-.04.38-.04.37-.07.37-.08.38-.1.37-.11.37-.11.38-.13.37-.14.38-.14.37-.14.37-.14.38-.14.37-.12.38-.12.37-.1.37-.08.38-.06.37-.04.38-.01.37.02.37.06.38.08.37.12.38.15.37.19.37.23.38.26.37.29.37.32.38.34.37.38.38.4.37.41.37.43.38.45.37.45.38.45.37.45.37.45.38.44.37.43.38.41.37.39.37.36.38.34.37.31.37.28.38.25.37.21.38.18.37.14.37.1.38.06.37.02.38-.01.37-.05.37-.1.38-.12.37-.17.38-.19.37-.23.37-.27.38-.29.37-.32.38-.35.37-.37.37-.39.38-.42.37-.43.37-.45.38-.46.37-.47.38-.48.37-.48.37-.49.38-.49.37-.48.38-.48.37-.47.37-.46.38-.45.37-.43.38-.42.37-.39.37-.37.38-.34.37-.32.37-.29.38-.27.37-.23.38-.2.37-.16.37-.13.38-.1.37-.06.38-.02.37.01.37.05.38.08.37.13.38.16.37.21.37.24.38.28.37.32.38.36.37.4.37.44.38.48.37.51.37.56.38.59.37.62.38.66.37.69.37.72.38.74.37.77.38.78.37.8.37.8.38.81.37.81.38.8.37.79.37.77.38.75.37.73.37.68.38.66.37.61.38.57.37.52.37.46.38.42.37.37.38.31.37.26.37.21.38.17.37.11.38.08.37.03h.37l.38-.03.37-.06.38-.08.37-.09.37-.11.38-.12.37-.12.37-.12.38-.11.37-.12.38-.1.37-.1.37-.08.38-.07.37-.06.38-.05.37-.04.37-.02.38-.02.37-.01.38-.01h.74l.38-.01.37-.01.37-.01.38-.02.37-.03.38-.05.37-.06.37-.07.38-.09.37-.11.38-.12.37-.15.37-.17.38-.18.37-.21.38-.23.37-.25.37-.27.38-.3.37-.32.38-.34.37-.37.37-.39.38-.41.37-.44.37-.46.38-.49.37-.51.38-.53.37-.55.37-.58.38-.59.37-.61.38-.63.37-.64.37-.65.38-.65.37-.66.38-.65.37-.65.37-.64.38-.62.37-.61.37-.58.38-.56.37-.52.38-.49.37-.45.37-.41.38-.36.37-.33.38-.28.37-.23.37-.19.38-.15.37-.1.38-.07.37-.04h.37l.38.03.37.05.38.07.37.09.37.11.38.11.37.12.37.12.38.13.37.13.38.12.37.13.37.13.38.14.37.14.38.14.37.15.37.16.38.17.37.18.38.2.37.21.37.23.38.23.37.25.37.26.38.26.37.25.38.26.37.24.37.22.38.21.37.17.38.14.37.09.37.05.38.01.37-.05.38-.1.37-.16.37-.21.38-.25.37-.31.38-.34.37-.38.37-.41.38-.43.37-.44.37-.44.38-.43.37-.41.38-.39.37-.34.37-.3.38-.24.37-.17.38-.11.37-.02.37.06.38.15.37.24.38.33.37.42.37.51.38.59.37.66.37.74.38.79.37.85.38.88.37.91.37.92.38.92.37.9.38.88.37.84.37.8.38.73.37.67.38.6.37.53.37.46.38.38.37.32.38.25.37.19.37.14.38.09.37.05.37.01.38-.02.37-.05.38-.08.37-.11.37-.13.38-.17.37-.2.38-.23.37-.28.37-.32.38-.37.37-.42.38-.47.37-.53.37-.59.38-.64.37-.7.37-.75.38-.8.37-.85.38-.89.37-.91.37-.95.38-.95.37-.97.38-.95.37-.93.37-.89.38-.85.37-.79.38-.72.37-.63.37-.55.38-.44.37-.35.38-.24.37-.13.37-.04.38.07.37.15.37.23.38.31.37.37.38.42.37.46.37.47.38.47.37.46.38.42.37.36.37.28.38.18.37.08.38-.03.37-.14.37-.24.38-.32.37-.37.37-.38.38-.34.37-.27.38-.13.37.03.37.24.38.47.37.7.38.92.37 1.12.37 1.26.38 1.37.37 1.39.38 1.35.37 1.25.37 1.1.38.93.37.74.38.55.37.4.37.26.38.16.37.07.37-.02.38-.14.37-.27.38-.47.37-.7.37-.99.38-1.31.37-1.67.38-2.01.37-2.31.37-2.51.38-2.54.37-2.38.38-1.98.37-1.39.37-.75.38-.15.37.2.37.28.38.12.37.03.38.34.37 1.43.37 3.1.38 3.84.37.32.38-9.08.37.02"/><use xlink:href="#i" color="#00C853" transform="matrix(3.75 0 0 3.75 171.2 149.48)"/><use xlink:href="#i" color="#00C853" transform="matrix(3.75 0 0 3.75 220.55 22.51)"/></g><path fill="none" stroke="none" stroke-linecap="round" stroke-linejoin="round" stroke-width="0" d="M28 45.01V205M371.99 45.01H28" color="#000"/></svg>