<svg xmlns="http://www.w3.org/2000/svg" xmlns:xlink="http://www.w3.org/1999/xlink" viewBox="0 0 400 250"><path fill="none" d="M0 0h400v250H0z"/><defs><path id="c" stroke="currentColor" stroke-width=".267" d="M-1-1h2v2h-2z"/><path id="b" stroke="currentColor" stroke-width=".267" d="m0-1.33-1.33 2h2.66z"/><use xlink:href="#a" id="d" fill="currentColor" stroke="none"/><use xlink:href="#b" id="e" fill="currentColor" stroke="none"/><circle id="a" cx="0" cy="0" r="1" stroke="currentColor" stroke-width=".267"/></defs><path fill="none" stroke="#333" stroke-linecap="round" stroke-linejoin="round" stroke-width=".1" d="M46.1 205V45.01" class="gridline" color="#000"/><g fill="none" stroke-linecap="round" stroke-linejoin="round" stroke-width="0" color="#000"><path d="M46.1 205v-7.5m0-152.49v7.5"/><text fill="#000" font-family="KaTeX_Main" font-size="10" text-anchor="middle" transform="translate(46.1 215.75)"><tspan> 1</tspan></text></g><path fill="none" stroke="#333" stroke-linecap="round" stroke-linejoin="round" stroke-width=".1" d="M82.31 205V45.01" class="gridline" color="#000"/><g fill="none" stroke-linecap="round" stroke-linejoin="round" stroke-width="0" color="#000"><path d="M82.31 205v-7.5m0-152.49v7.5"/><text fill="#000" font-family="KaTeX_Main" font-size="10" text-anchor="middle" transform="translate(82.31 215.75)"><tspan> 2</tspan></text></g><path fill="none" stroke="#333" stroke-linecap="round" stroke-linejoin="round" stroke-width=".1" d="M118.52 205V45.01" class="gridline" color="#000"/><g fill="none" stroke-linecap="round" stroke-linejoin="round" stroke-width="0" color="#000"><path d="M118.52 205v-7.5m0-152.49v7.5"/><text fill="#000" font-family="KaTeX_Main" font-size="10" text-anchor="middle" transform="translate(118.52 215.75)"><tspan> 3</tspan></text></g><path fill="none" stroke="#333" stroke-linecap="round" stroke-linejoin="round" stroke-width=".1" d="M154.73 205V45.01" class="gridline" color="#000"/><g fill="none" stroke-linecap="round" stroke-linejoin="round" stroke-width="0" color="#000"><path d="M154.73 205v-7.5m0-152.49v7.5"/><text fill="#000" font-family="KaTeX_Main" font-size="10" text-anchor="middle" transform="translate(154.73 215.75)"><tspan> 4</tspan></text></g><path fill="none" stroke="#333" stroke-linecap="round" stroke-linejoin="round" stroke-width=".1" d="M190.94 205V45.01" class="gridline" color="#000"/><g fill="none" stroke-linecap="round" stroke-linejoin="round" stroke-width="0" color="#000"><path d="M190.94 205v-7.5m0-152.49v7.5"/><text fill="#000" font-family="KaTeX_Main" font-size="10" text-anchor="middle" transform="translate(190.94 215.75)"><tspan> 5</tspan></text></g><path fill="none" stroke="#333" stroke-linecap="round" stroke-linejoin="round" stroke-width=".1" d="M227.15 205V45.01" class="gridline" color="#000"/><g fill="none" stroke-linecap="round" stroke-linejoin="round" stroke-width="0" color="#000"><path d="M227.15 205v-7.5m0-152.49v7.5"/><text fill="#000" font-family="KaTeX_Main" font-size="10" text-anchor="middle" transform="translate(227.15 215.75)"><tspan> 6</tspan></text></g><path fill="none" stroke="#333" stroke-linecap="round" stroke-linejoin="round" stroke-width=".1" d="M263.36 205V45.01" class="gridline" color="#000"/><g fill="none" stroke-linecap="round" stroke-linejoin="round" stroke-width="0" color="#000"><path d="M263.36 205v-7.5m0-152.49v7.5"/><text fill="#000" font-family="KaTeX_Main" font-size="10" text-anchor="middle" transform="translate(263.36 215.75)"><tspan> 7</tspan></text></g><path fill="none" stroke="#333" stroke-linecap="round" stroke-linejoin="round" stroke-width=".1" d="M299.57 205V45.01" class="gridline" color="#000"/><g fill="none" stroke-linecap="round" stroke-linejoin="round" stroke-width="0" color="#000"><path d="M299.57 205v-7.5m0-152.49v7.5"/><text fill="#000" font-family="KaTeX_Main" font-size="10" text-anchor="middle" transform="translate(299.57 215.75)"><tspan> 8</tspan></text></g><path fill="none" stroke="#333" stroke-linecap="round" stroke-linejoin="round" stroke-width=".1" d="M335.78 205V45.01" class="gridline" color="#000"/><g fill="none" stroke-linecap="round" stroke-linejoin="round" stroke-width="0" color="#000"><path d="M335.78 205v-7.5m0-152.49v7.5"/><text fill="#000" font-family="KaTeX_Main" font-size="10" text-anchor="middle" transform="translate(335.78 215.75)"><tspan> 9</tspan></text></g><path fill="none" stroke="#333" stroke-linecap="round" stroke-linejoin="round" stroke-width=".1" d="M371.99 205V45.01" class="gridline" color="#000"/><g fill="none" stroke-linecap="round" stroke-linejoin="round" stroke-width="0" color="#000"><path d="M371.99 205v-7.5m0-152.49v7.5"/><text fill="#000" font-family="KaTeX_Main" font-size="10" text-anchor="middle" transform="translate(371.99 215.75)"><tspan> 10</tspan></text></g><g fill="none" stroke-linecap="round" stroke-linejoin="round" stroke-width="0" color="#000"><path d="M371.99 205h-7.5"/><text fill="#000" font-family="KaTeX_Main" font-size="10" transform="translate(378.99 208.25)"><tspan>0.20</tspan></text></g><g fill="none" stroke-linecap="round" stroke-linejoin="round" stroke-width="0" color="#000"><path d="M371.99 178.33h-7.5"/><text fill="#000" font-family="KaTeX_Main" font-size="10" transform="translate(378.99 181.58)"><tspan>0.25</tspan></text></g><g fill="none" stroke-linecap="round" stroke-linejoin="round" stroke-width="0" color="#000"><path d="M371.99 151.67h-7.5"/><text fill="#000" font-family="KaTeX_Main" font-size="10" transform="translate(378.99 154.92)"><tspan>0.30</tspan></text></g><g fill="none" stroke-linecap="round" stroke-linejoin="round" stroke-width="0" color="#000"><path d="M371.99 125.01h-7.5"/><text fill="#000" font-family="KaTeX_Main" font-size="10" transform="translate(378.99 128.26)"><tspan>0.35</tspan></text></g><g fill="none" stroke-linecap="round" stroke-linejoin="round" stroke-width="0" color="#000"><path d="M371.99 98.34h-7.5"/><text fill="#000" font-family="KaTeX_Main" font-size="10" transform="translate(378.99 101.59)"><tspan>0.40</tspan></text></g><g fill="none" stroke-linecap="round" stroke-linejoin="round" stroke-width="0" color="#000"><path d="M371.99 71.68h-7.5"/><text fill="#000" font-family="KaTeX_Main" font-size="10" transform="translate(378.99 74.93)"><tspan>0.45</tspan></text></g><g fill="none" stroke-linecap="round" stroke-linejoin="round" stroke-width="0" color="#000"><path d="M371.99 45.01h-7.5"/><text fill="#000" font-family="KaTeX_Main" font-size="10" transform="translate(378.99 48.26)"><tspan>0.50</tspan></text></g><path fill="none" d="M28 45.01V205M371.99 45.01H28" color="#000"/><text stroke-linecap="round" stroke-linejoin="round" stroke-width="0" color="#000" font-family="KaTeX_Main" font-size="10" text-anchor="middle" transform="rotate(-90 68.255 56.755)"><tspan font-weight="bold">Duration </tspan><tspan> in milliseconds</tspan></text><text stroke-linecap="round" stroke-linejoin="round" stroke-width="0" color="#000" font-family="KaTeX_Main" font-size="10" text-anchor="middle" transform="translate(199.99 238.25)"><tspan>Operations / 10</tspan><tspan dy="-5" font-size="8">5</tspan></text><text stroke-linecap="round" stroke-linejoin="round" color="#000" font-family="KaTeX_Main" font-size="8" transform="translate(132.8 10.11)"><tspan>LBSTBottomUp</tspan></text><g fill="none" stroke="currentColor" stroke-linecap="round" stroke-linejoin="round" color="#000"><path stroke="#3B75EA" d="M97.3 7.51h29.9M28 182.4l.36-.48.36-.38.37-11.25.36-10.46.36 19.67.36-.09.36-.19.37-.53.36-.06.36-1.07.36.3.37-.3.36-21.46.36 8.1.36 11.14.36.34.37-.47.36-.28.36-.39.36-.46.36-.15.37-.36.36-20.51.36 19.68.36-.35.36.14.37-.43.36-.06.36-.2.36-.02.36-.64.37-9.71.36-12.14.36 21.08.36.05.37.17.36.19.36-.01.36-.9.36.23.37-.81.36-20.76.36 9.66.36 10.41.36-.04.37-.23.36-.13.36-.28.36-.17.36-.34.37-.28.36-20.31.36 8.53.36 10.69.37.24.36-.19.36-.11.36.09.36-.27.37-.53.36-9.66.36-11.23.36 18.54.36 1.23.37-.02.36-.14.36-.26.36.01.36-.51.37-.17.36-10.3.36-1.6.36 10.98.37.21.36.01.36-.11.36-.12.36-.05.37-.32.36-.27.36-20.02.36 9.38.36 9.48.37-.17.36-.14.36.29.36-.45.36-.01.37.01.36-10.22.36-10.17.36 19.31.36-.83.37.86.36.17h.36l.36-.49.37-.07.36-.38.36-9.42.36-1.55.36 10.18.37-.09.36.17.36-.19.36.08.36-.16.37-.39.36.39.36-21.75.36 9.03.36 11.08.37.21.36.39.36-.4H70l.37-.27.36-.12.36-9.76.36-9.27.36 18.4.37.67.36-.1.36.08.36-.16.36-.01.37-.21.36-.55.36-9.17.36-10 .36 18.05.37.97.36-.09.36-.56.36.46.36-.39.37.31.36-.25.36-19.58.36 8.35.37 10.39.36-.03.36.44.36-.06.36-.5.37.3.36-.41.36.15.36-19.45.36 19.07.37-.72.36.46.36-.23.36-.37.36.16.37-.21.36-.15.36-9.89.36-9.31.37 18.58.36.27.36-.49.36-.11.36.26.37-.56.36-.05.36-.03.36-19.04.36 8.72.37 9.53.36-.27.36.03.36-.03.36-.26.37.18.36-.01.36-.22.36-19.61.36 9.35.37 9.81.36.14.36.07.36.1.37-.52.36-.43.36.19.36-9.68.36-9.58.37 18.09.36.45.36.04.36.14.36-.05.37-.01.36-.23.36-.57.36-8.89.36-1.14.37 9.45.36.79.36.06.36.15.37-.74.36-.3.36.25.36-.1.36-18.9.37 8.2.36 10.29.36-.32.36.63.36-.43.37-.57.36-.31.36-.26.36-8.89.36-10.84.37 18.94.36.21.36.17.36-.1.37-.39.36.71.36-.13.36-.4.36-9.23.37-10.68.36 19.5.36-.01.36.05h.36l.37-.04.36-.39.36.36.36-.42.36-10.2.37-9.4.36 18.99.36.29.36.16.36.38.37-.85.36-.02.36.33.36-.35.37-9.54.36-.96.36 9.78.36-.11.36.66.37-.33.36.03.36-.17.36-.33.36.4.37-20.42.36 9.47.36 9.47.36.36.36.15h.37l.36-.2.36.03.36-.16.37-9.84.36-11.05.36 20.36.36.16.36-.06.37.37.36-.16.36.04.36-.16.36.34.37-11.11.36-.08.36 10.21.36.28.36-.27.37.34.36-.48.36.27.36.1.36.02.37-20.21.36 9.61.36 9.88.36-.85.37.78.36.1.36-.71.36.61.36.22.37-10.62.36-9.59.36 19.07.36.21.36.74.37-.4.36.11.36.05.36-.53.36.19.37-9.56.36-11.18.36 20.34.36.39.37-.04h.36l.36.02h.36l.36.47.37-.39.36-19.79.36 9.34.36 9.49.36-.01.37.18.36-.01.36-.1.36.09.36-.25.37-.1.36-20.24.36 20.03.36-.12.36-.26.37.07.36.2.36-.6.36.31.37.22.36-9.88.36-10.73.36 19.87.36.03.37.15.36-.42.36.32.36-.38.36-.21.37.36.36-21.06.36 10.02.36 10.15.36.41.37.12.36-.21.36.4.36-.62.37.6.36-.3.36-20.05.36 9.41.36 9.81.37-.04.36-.33.36.22.36.65.36-.09.37-.37.36-10.11.36-11.03.36 19.7.36-.35.37.2.36-.05.36.33.36.17.37-.11.36-.28.36-9.6.36-1 .36 10.29.37.06.36-.02.36-.01.36.08.36.11.37-.07.36-.19.36-19.94.36 8.62.36 9.61.37.66.36.23.36.32.36-.13.36-.15.37.35.36-9.66.36-11.54.36 19.44.37.53.36.2.36-.4.36.16.36.39.37.23.36-.06.36-10.34.36-10.36.36 19.34.37.35.36-.08.36.27.36-.3.36.16.37.16.36-.41.36-19.59.36 9.21.37 9.74.36.23.36.25.36-.31.36.25.37-.27.36.28.36.1.36-20.84.36 19.06.37.64.36-.07.36.46.36-.29.36-.14.37-.21.36.01.36-10.44.36-10.96.36 19.73.37-.72.36.78.36-.01.36.81.37-.6.36.34.36-.08.36-20.36.36 9.68.37 10.16.36-.39.36.48.36-.53.36.36.37-.08.36.49.36-.1.36-19.52.36 18.9.37.38.36.22.36.27.36-1.25.37.88.36-.06.36-.21.36-10.4.36-11.36.37 20.87.36-.03.36.43.36-.41.36.07.37-.39.36.35.36-.03.36-20.6.36 8.36.37 10.69.36-.01.36.59.36-.31.37-1.35.36.29.36.29.36-.52.36-20.33.37 10.04.36 10.05.36-.15.36.01.36.47.37-.44h.36l.36.01.36-9.26.36-10.42.37 18.6.36.55.36-.05.36-.06.36-.41.37.83.36-.28.36-.23.36-9.06.37-1.61.36 9.98.36.12.36.06.36-.51.37.42.36-.61.36.47.36.07.36-20.75.37 9.47.36 9.79.36.34.36-1.49.36 1.68.37-.02.36-.34.36.19.36-10.78.37-10.46.36 18.69.36.72.36.1.36.61.37-.54.36.55.36-.26h.36l.36-9.79.37-11.39.36 19.35.36.96.36.09.36-.49.37.61.36.34.36-.44.36-.25.36-20.71.37 9.2.36 9.8.36.76.36-.86.37.47.36.02.36.02.36-.41.36.57.37-21.35.36 19.7.36.46.36.34.36-.13.37-.02.36.05.36.1.36.27.36-10.25.37-9.95.36 18.67.36.17.36.49.37.19.36-.4.36-.28.36.36.36.05.37-20.44.36 9 .36 10.24.36.17.36-.22.37.01.36.59.36-.41.36-.49.36.04.37-9.98.36-10.06.36 19.63.36.44.36-.21.37-.05.36-.3.36-.2.36-.51.37.16.36-20.38.36 10.1.36 10.28.36.78.37-.73.36.23.36-.56.36-.23.36.49.37-.01.36-21.33.36 20.33.36.07.36.6.37-.93.36.56.36-.42.36.2.37.09.36-10.14.36-10.7.36 19.64.36-.47.37.67.36-.01.36-.53.36-.33.36.42.37-.82.36-20.06.36 10.01.36 9.89.36-.42.37.62.36.01.36.18.36-.11.37-.55.36.86.36-20.18.36 19.54.36-.17.37.3.36.03.36.34.36.44.36-.17.37-.52.36-9.82.36-11.16.36 20.16.36-.65.37.92.36.42.36-.78.36.32.36.06.37.08.36-20.57.36 8.73.36 10.28.37-.41.36.69.36-.14.36.22.36.27.37-.12.36.01.36-20.26.36 8.77.36 9.96.37.17.36.41.36-.48.36.15.36.29.37-.73.36-8.7.36-11.73.36 20.1.37.35.36-.09.36.09.36.38.36-.45.37.21.36-1.68.36-8.58.36-.57.36 9.85.37.02.36-.36.36.3.36-.03.36.29.37-.29.36-.14.36-20.4.36 9.7.36 9.95.37.18.36-.4.36-.11.36.86.37-.11.36-.39.36-10.24.36-10.07.36 19.83.37.51.36-.59.36.35.36-.21.36.37.37-.17.36-.57.36-9.83.36-10.85.36 20.04.37.03.36.58.36-.97.36 1.07.37-.92.36.59.36-.47.36-20.3.36 8.6.37 10.52.36-.39.36.42.36.36.36.13.37-.56.36.07.36.4.36-20.04.36 19.21.37.45.36.25.36-.22.36-.59.36.05.37.66.36-.5.36-9.7.36-10.56.37 19.84.36.79.36-.48.36.04.36-.14h.37l.36-.3.36-.17.36-20.44.36 9 .37 10.71.36.24.36-.24.36.57.36-.46.37.82.36-.18.36-.42.36-21.17.37 10.6.36 9.83.36-.16.36.55.36.03.37-.66.36.11.36-.83.36-9.4.36-10.25.37 18.87.36.72.36.12.36.04.36-.36.37.53.36-.67.36.33.36-10.13.37-.59.36 10.49.36-.15.36.5.36-.07.37-.2.36-.64.36.68.36.09.36-20.94.37 8.93.36 10.89.36-.35.36.42.36-.53.37.9.36-.5.36.22.36-10.43.36-11.21.37 20.37.36 1.02.36-.27.36.25.37-.66.36-.06.36.38.36.07.36-9.54.37-.58.36 10.03h.36l.36-.01.36.37.37-.3.36.51.36-.75.36-.04.36-21.37.37 10.03.36 10.54.36-.49.36 1.39.37-.07.36-.33.36-.33.36.65.36-10 .37-11.49.36 20.16.36-.09.36.31.36-.35.37.48.36-.43.36-.38.36.97.36-10.67.37-10.37.36 19.32.36.32.36.44.36-.06.37-.31.36.57.36.55.36-.76.37-19.4.36 8.17.36 10.36.36.37.36-.29.37.79.36.13.36.03.36-.22.36.11.37-20.78.36 19.58.36 1.09.36-.07.36.38.37-.46.36.3.36.07.36-.26.37-9.95.36-10.73.36 19.7.36.06.36.21.37.55.36-.24.36.19.36-.18.36-.49.37-20.29.36 8.88.36 9.97.36.39.36.69.37.43.36-.1.36.8.36-.62.36-.13.37-21.03.36 9.58.36 9.99.36.6.37.12.36.55.36-1.13.36.97.36-.12.37-10.64.36-10.05.36 18.82.36 1.1.36-.3.37-.59.36.71.36.29.36-.04.36-.6.37-8.84.36-1.61.36 9.82.36-.25.37.87.36.02.36-.31.36.02.36.43.37-.34.36-10.35.36-11.06.36 19.16.36.78.37-.64.36.43.36.56.36-.22.36.27.37-.23.36-20.45.36 9.45.36 10.04.37.11.36.56.36-1.05.36 1.46.36-.45.37-.02.36-.45.36-19.98.36 10.21.36 10.3.37-.25.36.1.36-.23.36.27.36 1.04.37-.63.36-11.07.36-9.77.36 20.34.36-.29.37.97.36-.43.36-.19.36-.36.37.24.36.19.36-11.15.36-2.01.36 12.17.37-.15.36.81.36-.76"/><use xlink:href="#a" color="#3B75EA" transform="matrix(3.75 0 0 3.75 354.25 92.56)"/><use xlink:href="#a" color="#3B75EA" transform="matrix(3.75 0 0 3.75 112.25 7.51)"/></g><text stroke-linecap="round" stroke-linejoin="round" color="#000" font-family="KaTeX_Main" font-size="8" transform="translate(132.8 25.11)"><tspan>LBSTTopDown</tspan></text><g fill="none" stroke="currentColor" stroke-linecap="round" stroke-linejoin="round" color="#000"><path stroke="#F44336" stroke-dasharray="4.5,2.0,0.5,2.0,0.5,2.0" d="M97.3 22.51h29.9M28 195.45l.36-1.18.36-.62.37.47.36-.37.36-21.17.36 19.36.36.77.37.15.36-.97.36-1.69.36 1.51.37-.61.36-.11.36-10.59.36-11.21.36 19.65.37-.01.36-1.42.36-.41.36 1.35.36-.39.37-1.99.36.62.36-20.87.36 8.64.36 11.2.37-1.79.36.22.36 1.2.36-.94.36.68.37-.76.36.59.36-21.07.36 9.03.37 11.4.36-1.45.36 2.33.36-1.25.36-.64.37-.5.36-.22.36-8.94.36-11.29.36 19.16.37.87.36.35.36-1.22.36-.8.36-.03.37-.9.36 1.1.36-11.89.36-.84.37 11.35.36-.17.36-1.26.36 1.45.36-1.47.37 1.12.36.05.36-1.22.36-20.3.36 10.48.37 8.54.36.85.36.67.36-.09.36-1.24.37-.06.36-.72.36-10.51.36-9.24.37 18.67.36 2.24.36-.77.36-.53.36.46.37-.72.36.49.36-.45.36-9.75.36-3.8.37 11.53.36 1.39.36-.58.36-.69.36.48.37-.52.36-.45.36.62.36-21.49.36 9.78.37 11.47.36-1.49.36.74.36-.01.37-1.21.36.16.36 1.94.36-11.59.36-9.79.37 18.9.36-.03.36.37.36.4.36-.65.37.1.36.29.36-.33.36-9.33.36-11.43.37 19.34.36-.66.36 1.3.36-.74.37.61.36.45.36-.37.36.11.36-20.27.37 9.37.36 9.17.36 1.47.36-.81.36-.76.37 1.52.36-.49.36.31.36-.36.36-20.13.37 19.76.36-1.81.36 1.46.36-.63.36.17.37-.51.36.87.36-.89.36-10 .37-9.49.36 19.24.36-.18.36-.03.36-.36.37 1.13.36-.9.36-1.09.36 1.22.36-20.68.37 9.09.36 8.78.36.02.36 1.01.36.82.37-.6.36-.7.36-.55.36-.05.37-20.13.36 10.03.36 9.87.36.99.36-.73.37.2.36-1 .36-.17.36 1.56.36-11.36.37-8.78.36 18.71.36.17.36.11.36-1.01.37 1.04.36-.44.36.59.36-1.44.36-8.66.37-.98.36 9 .36 1.11.36-.26.37-.51.36.37.36-.15.36.37.36-1.28.37-19.82.36 10.29.36 9.69.36-.27.36-.47.37.36.36-.43.36.94.36-.75.36-9.17.37-10.76.36 18.86.36-.5.36 1.6.37-.42.36-.06.36-.86.36-.07.36.45.37-9.2.36-9.67.36 19.38.36-.7.36.89.37-1.44.36.41.36-1.05.36 1.41.36-.53.37-18.79.36 8.3.36 8.19.36 2.26.37-1.54.36.66.36-.07.36-.84.36.85.37-.87.36-17.79.36 17.36.36.18.36.71.37-.61.36.06.36.58.36-.63.36-.2.37-8.32.36-11.13.36 18.81.36.09.36 1.33.37-1.28.36-.56.36.5.36-.75.37-.6.36-17.08.36 7.76.36 9.75.36 1.26.37-.55.36-.45.36.85.36-1.15.36-.16.37.19.36-19.38.36 18.97.36 1.54.36-1.71.37 1.34.36-.89.36.43.36-1.02.37.43.36-1.14.36-28.18.36 29.2.36-.51.37-.75.36 1.78.36-.96.36.84.36-1.2h.37l.36-10.27.36-10.39.36 20.93.36-1.1.37.47.36 1.39.36-1.33.36.47.36-.46.37-1.45.36-9.88.36-8.14.36 17.93.37-.25.36 1.1.36-1.38.36 1.97.36-.24.37-.08.36-.65.36-18.44.36 9.85.36 8.3.37-.01.36 1.86.36-1.8.36.11.36.34.37-.91.36.2.36-19.15.36 19.12.37.49.36.06.36-.25.36-.59.36-.35.37.47.36-.67.36-10.05.36-8.15.36 17.9.37.74.36-.06.36-.79.36.21.36.58.37-.87.36 1.05.36-19.87.36 8.13.36 10.16.37-.15.36.93.36.49.36 1.01.37-1.68.36 1.1.36-.45.36-19.74.36 8.52.37 10.81.36-.58.36.51.36-1.77.36 1.41.37 1.21.36-2.17.36-8.35.36-12.05.36 17.59.37 1.04.36.2.36-.11.36.69.37-.16.36-.63.36 1.96.36-10.29.36.39.37 9.66.36-.78.36-.62.36.09.36-.31.37.97.36-1.04.36.3.36-20.12.36 9.33.37 9.69.36 1.42.36-.01.36-1.05.37.19.36-.32.36.81.36-9.98.36-10.04.37 17.97.36-.61.36.59.36.42.36.33.37-.15.36.84.36-.67.36-9.43.36-10.79.37 18.65.36 1.07.36.36.36-.63.36.12.37-.23.36.95.36-1.06.36-19.42.37 8.25.36 10.95.36-1.13.36.97.36-.52.37.78.36.6.36-.62.36 1.23.36-21.83.37 18.61.36 1.69.36.56.36-.2.36-1.08.37.04.36-.42.36-.28.36-8.66.37-12.03.36 19.22.36 1.3.36-.65.36-.37.37-.32.36 1.67.36.03.36-1.4.36-19.64.37 9.23.36 9.08.36 2.71.36-2.62.36 1.02.37.33.36.53.36.41.36-.64.36-19.52.37 18.42.36.2.36.16.36-.48.37.83.36 1.47.36.14.36-1.2.36-9.96.37-10.2.36 18.51.36.14.36.53.36.57.37-.74.36.43.36-.45.36.21.36-21.44.37 9.89.36 10.56.36-.57.36-1.87.37 1.62.36.5.36-.77.36.96.36-1.34.37-21.04.36 10.88.36 10.81.36.25.36-.82.37 1.34.36-.36.36-1.95.36.79.36-9.49.37-11.42.36 18.94.36.21.36.95.37.01.36.03.36-.72.36-.37.36 1.27.37-11.12.36-1.65.36 10.88.36-.69.36.41.37-.02.36-.82.36-.96.36 1.82.36-.78.37-19.51.36 7.47.36 11.79.36-.86.36.79.37-.45.36-.35.36.27.36.22.37-10.1.36-11.32.36 21.04.36.54.36-.73.37-.41.36 1.03.36.11.36-.95.36-.79.37-7.08.36-12.58.36 20.01.36-.41.36-.91.37.06.36 1.6.36.25.36-.08.37-.4.36-19.75.36 6 .36 11.76.36.41.37-.84.36 1.2.36.11.36-.33.36-.05.37.45.36-21.16.36 21.43.36-.69.36.03.37-.49.36 1.92.36-.81.36.32.36-2.71.37-8.69.36-9.2.36 18.42.36-.38.37 1.02.36-.22.36-.11.36-.56.36 1.55.37-1.19.36-20.97.36 10.01.36 10.48.36-1.53.37 2.15.36-1.48.36-.98.36.57.36-1.33.37 1.17.36-18.64.36 8.55.36 8.99.37 1.18.36 1.2.36-2.28.36-.02.36 1.38.37-1.92.36-8.56.36-11.8.36 21.34.36-1.81.37 2.49.36.27.36-.72.36-.52.36-.87.37-.57.36-7.18.36-1.62.36 9.43.36.72.37-.6.36-.24.36 1.13.36-1.48.37.96.36.9.36-21.94.36 9.71.36 10.04.37-.31.36.66.36-.23.36.78.36-1.43.37.29.36 1.18.36-30.68.36 28.53.36-.32.37-.33.36 1.41.36-1.17.36 1.68.37-1 .36.66.36.36.36-20.08.36 18.93.37 1.53.36.01.36-.87.36-1.82.36 1 .37.3.36.98.36-11.12.36-11.48.36 21.63.37.05h.36l.36-1.84.36 1.81.37-1.85.36.5.36 2.09.36-22.02.36 9.01.37 10.43.36.08.36-1.68.36 1.81.36-.01.37-1.1.36.8.36.36.36-21.37.36 9.45.37 11.56.36-1.64.36-.23.36.66.36.68.37-.65.36 1.1.36-9.95.36-12.36.37 20.82.36-1.35.36-1.52.36 3.14.36-.09.37.31.36-1.88.36 1.6.36-10.23.36-.86.37 10.79.36.47.36-.36.36-.74.36 1.64.37-2.06.36.68.36 1.22.36-21.67.37 8.69.36 10.52.36.93.36-.92.36-.03.37-.73.36.92.36-.75.36-8.78.36-9.71.37 19.57.36-1.94.36.91.36.85.36.19.37-2.67.36 1.79.36.56.36-10.72.36-10.55.37 19.47.36.14.36-.54.36 2.01.37-1.31.36-.42.36 1.19.36-1.16.36-20.73.37 9.9.36 10.25.36 1 .36-.78.36-.24.37 1.06.36-1.44.36 1.4.36-2.11.36-19.58.37 20.99.36-.06.36-.73.36 1.59.37-.49.36-.63.36-.5.36-.04.36-9.04.37-13.34.36 19.88.36 2.59.36.15.36-.99.37 1.14.36-1.62.36.77.36-.48.36-20.08.37 9.85.36 8.99.36.16.36 1.17.36-1.66.37 1.53.36-.97.36-.27.36.75.37-19.94.36 8.91.36 10.63.36-.5.36.75.37-1.27.36-.34.36.14.36-.8.36-10.11.37-10.23.36 21.39.36-1.14.36.33.36.79.37.38.36-.18.36-.13.36-.28.37-9.59.36.05.36 9.23.36-1.58.36.45.37 1.5.36-.84.36.27.36.66.36-1.13.37-19.66.36 10.13.36 7.6.36 2.03.36.14.37-.63.36 1.21.36-.52.36.08.37-11.71.36-9.6.36 19.71.36-.03.36.23.37.32.36-.62.36 1.08.36-1.15.36 2.09.37-11.94.36.98.36 9.81.36-1.42.36-.03.37 2.78.36-2.09.36-.45.36.96.36-.01.37-20.18.36 10.09.36 9.36.36.04.37-1.15.36 1.7.36-.79.36.62.36-.61.37-9.61.36-11.29.36 20.57.36.95.36-.18.37-.22.36-1.61.36.97.36 1.28.36-.53.37-12.26.36-10.02.36 21.19.36.64.37-.5.36.88.36-.9.36 1.05.36-1.67.37 1.26.36-20.4.36 8.59.36 11.09.36-1.49.37 1.09.36.64.36-.06.36.21.36-.13.37-.59.36-20.47.36 19.67.36 2.01.36-2.22.37-.93.36 1.34.36-1.08.36 2.22.37-.35.36-10.61.36-8.77.36 17.97.36.18.37.01.36.98.36-.11.36.56.36-1.33.37-.5.36-19.15.36 7.72.36 11.42.36.95.37.75.36-1.61.36 1.31.36-1.42.37 1.1.36-1.07.36-18.59.36 8.49.36 9.92.37.03.36-.52.36.37.36.76.36-1.16.37-.02.36-9.57.36-11.09.36 20.66.36.06.37-.6.36-.22.36-.37.36.03.36 2.38.37-1.55.36-10.53.36-.06.36 10.17.37.05.36.28.36-.84.36 2.23.36-1.03.37-1.32.36 1.87.36-20.86.36 7.93.36 12.44.37-1.99.36 1.33h.36l.36.25.36-.43.37 1.09.36-11.41.36-11.1.36 19.62.37.44.36 1.15.36-1.35.36.46.36.83.37-.55.36.33.36-9.39.36-12.36.36 21 .37-.15.36.53.36.74.36-.65.36-.84.37.45.36-1.21.36-20.26.36 9.43.37 10.38.36 1.05.36-1.25.36 1.27.36.61.37-2.14.36 1.42.36-1.09.36-20.63.36 21.18.37-.37.36.83.36-1.75.36 1.18.36-.04.37.09.36-1.23.36 1.97.36-31.51.36 28.57.37 1.47.36.82.36-1.29.36.27.37.88.36.81.36-1.27.36-10.42.36-9.5.37 18.16.36.63.36-.66"/><use xlink:href="#d" color="#F44336" transform="matrix(3.75 0 0 3.75 67.83 171.37)"/><use xlink:href="#d" color="#F44336" transform="matrix(3.75 0 0 3.75 112.25 22.51)"/></g><text stroke-linecap="round" stroke-linejoin="round" color="#000" font-family="KaTeX_Main" font-size="8" transform="translate(241.1 10.11)"><tspan>WBSTBottomUp</tspan></text><g fill="none" stroke="currentColor" stroke-linecap="round" stroke-linejoin="round" color="#000"><path stroke="#000" d="M205.6 7.51h29.9M28 173.04l.36-.49.36.06.37-1 .36-.03.36-.88.36-.13.36-11.41.37-10.57.36 20.19.36-.33.36-.57.37.19.36-.18.36-1.12.36-.06.36.69.37-9.97.36-.56.36 9.46.36-.2.36.08.37-1.35.36-.05.36-.57.36.91.36-.8.37-21.78.36 8.65.36 11.5.36-.43.36-.79.37-.32.36 1.12.36-.56.36-.53.37-10.81.36-9.46.36 18.85.36.38.36-.61.37.35.36.19.36-1.04.36-.59.36.2.37-10.34.36-2.43.36 9.93.36 2.86.36.2.37-.61.36-.74.36.36.36-.5.37-.05.36-22.42.36 10.16.36 10.69.36.12.37-.88.36-.43.36.15.36-.42.36-.11.37-10.38.36-8.34.36 18.46.36.45.36-1.01.37.43.36-.47.36-.23.36-.4.37.51.36-9.71.36-12.17.36 19.1.36 1.44.37-.65.36.05.36-1.34.36 3.32.36-.34.37-.55.36-21.48.36 9.77.36 10.23.36.07.37-.66.36.53.36-.25.36.17.36-1.05.37-.67.36-19.11.36 18.49.36-.05.37 1.16.36.53.36-.41.36-.41.36-.49.37.27.36-10.8.36-9.99.36 19.47.36.63.37-.62.36.01.36-.78.36.38.36-1.19.37-.5.36-19.55.36 11.21.36 8.94.37.14.36-.29.36.53.36-.63.36.09.37-1.04.36 1.41.36-22.03.36 9.67.36 9.38.37 1.23.36-.8.36-.35.36-.63.36 1.22.37.45.36-10.27.36-10.63.36 18.99.36.02.37-.79.36.36.36-.01.36.23.37-.39.36-.53.36-9.44.36-.42.36 9.41.37-.78.36 1.28.36 1.99.36-.56.36-.63.37-.65.36.4.36-19.95.36 8.38.36 9.77.37 1.43.36-.44.36-.08.36-1.22.37 1.3.36-1.67.36-9.25.36-12.19.36 22.41.37-.48.36-.38.36-.52.36.27.36-.44.37-.23.36-.83.36-8.89.36-10.9.36 19.55.37-.95.36.76.36.08.36-.73.36-.75.37 1.44.36.69.36-19.49.36 8.51.37 9.52.36.3.36-.08.36-1.11.36.34.37.25.36.51.36-.96.36-20.89.36 20.2.37-.55.36-.57.36-.09.36 2.36.36-1.1.37-.19.36-1.06.36-8.46.36-11.01.37 18.39.36-.15.36 1.84.36-.79.36.37.37-1.38.36.69.36-1.58.36-18.72.36 8.05.37 13.62.36.19.36.12.36-.7.36.4.37.25.36-1.03.36-.66.36-18.59.37 18.7.36.06.36-.19.36-.2.36.35.37-1.39.36.08.36.43.36-8.57.36-11.47.37 18.96.36.81.36.02.36-.38.36-.59.37-.45.36 1.08.36-.61.36-19.29.36 8.24.37 10.81.36-1.02.36.04.36-.79.37 2.81.36-.56.36-.07.36-1.18.36-18 .37 7.76.36 10.19.36-.3.36 1.34.36-.56.37.09.36-1.43.36.25.36-9.37.36-10.39.37 18.08.36 2.09.36.15.36-.11.37-.28.36.27.36-1.01.36-.36.36-10.09.37-.13.36 10.22.36-.35.36-.31.36-.24.37-.24.36-.49.36-.51.36 1.6.36-16.89.37 7.51.36 10.03.36-.16.36.57.36-1.07.37.12.36-.64.36 1.51.36-10.19.37-10.11.36 17.22.36 1.4.36-.63.36.6.37-1.74.36 2.11.36-.13.36.05.36-10.38.37-10.53.36 19.35.36-.58.36-.06.36.55.37-.16.36-.02.36-.54h.36l.37-19.91.36 9.12.36 8.85.36 1.63.36 1.25.37-.18.36-.9.36.61.36-.11.36-.29.37-19.85.36 18.86.36 1.07.36-.98.36.19.37-.91.36.95.36-.46.36-.27.36-.32.37-27.94.36 27.75.36-.08.36.08.37.75.36-.77.36.09.36-1.36.36 1.95.37-10.63.36-10.85.36 18.91.36 1.06.36-.77.37-.16.36-1.11.36 3.7.36.8.36.1.37-10.63.36-10.85.36 19.91.36-.26.37-1.05.36 1.34.36-.02.36-.21.36-.44.37-.12.36-19.71.36 8.84.36 9.83.36.05.37 1.67.36-.85.36-.1.36-.17.36.74.37-1.18.36-20.47.36 19.26.36 1.63.37-.67.36-1.11.36-.19.36 1.2.36-1.07.37.52.36-11.69.36-7.48.36 19.02.36.24.37-.4.36.23.36-.59.36.01.36-.65.37.61.36-20.52.36 9.22.36 9.39.36 1.21.37-.65.36.08.36-1.04.36 1.04.37.79.36-.46.36-20.23.36 19.53.36.61.37-.82.36-.2.36.24.36.77.36-.57.37-.42.36-10.12.36-11.21.36 19.67.36-.08.37.61.36 3 .36-.71.36-.58.37-.25.36.61.36-21.46.36 8.21.36 10.05.37 1.36.36-.77.36.48.36-1.54.36.65.37.18.36-.46.36-21.02.36 11.51.36 9.49.37.84.36-1.13.36.23.36-.37.36.11.37-1 .36-8.56.36-11.13.36 19.5.37-.01.36.9.36-.95.36.01.36-.62.37 1.27.36 1.31.36-11.29.36-.82.36 10.03.37.64.36-.93.36.5.36-.38.36.16.37-.64.36.03.36-21.6.36 10.12.37 9.64.36.68.36-1.17.36 2.74.36-.81.37.4.36-1.42.36-9.03.36-10.99.36 19.36.37-.71.36 1.97.36-.82.36-.37.36-.75.37.43.36-.07.36-10.08.36-12.08.37 23.58.36 1.56.36.04.36-.64.36.22.37-.51.36.06.36-1.12.36-20.58.36 10.21.37 9.49.36-.88.36.31.36.8.36-1.63.37.13.36-.31.36 2.09.36-21.36.36 18.37.37.53.36 1.1.36-.32.36-.62.37-.68.36 1.63.36-.76.36-8.89.36-12.96.37 20.97.36-.59.36.26.36-.84.36 2.74.37.09.36-.62.36-.93.36-19.54.36 8.36.37 10.3.36-1.48.36 1.78.36.55.37-1.06.36-.31h.36l.36-.08.36-19.96.37 7.45.36 11.53.36 1.52.36-.53.36-.15.37-.26.36-.08.36-.21.36-10.93.36-10.08.37 21.1.36-.85.36-.07.36-.75.36.43.37-.42.36-.43.36-.08.36-6.37.37-1.42.36 10 .36-.74.36.64.36-1.16.37.59.36-1.53.36 2.31.36-1.11.36-20.58.37 7.07.36 11.96.36-.94.36.72.36-1.04.37 1.56.36-.69.36.37.36-10.25.37-10.68.36 19.07.36-.21.36-.67.36 1.29h.37l.36-.25.36-.66.36.05.36-9.55.37-1.56.36 10.28.36.59.36 1.48.36-.42.37-.34.36.07.36.61.36-1.31.36-19.77.37 8.6.36 11.11.36.36.36-1.7.37.02.36.75.36-.73.36-.38.36-10.56.37-8.96.36 19.05.36.75.36-1.47.36 1.19.37-1.2.36.19.36-1.54.36 2.09.36-10.41.37-11.79.36 19.65.36-.94.36.45.37.49.36-.56.36 3.45.36 1.63.36-.69.37-20.38.36 8.63.36 10.14.36.04.36.33.37.41.36.01.36-.99.36.66.36-.37.37-20.33.36 18.65.36.21.36-.34.37 1.45.36-.7.36.23.36-.74.36.91.37-11.23.36-11.36.36 19.58.36 2.08.36-1 .37-.02.36-1.5.36 1.36.36-1.16.36-.14.37-20 .36 11.21.36 10.35.36.31.36-.28.37-.2.36-.14.36.12.36-.39.37-.16.36-19.46.36 7.89.36 9.76.36 1.14.37-.42.36-.4.36-.41.36.2.36 1.39.37-.78.36-30.29.36 27.75.36.89.36-.06.37-.03.36-.61.36.85.36-.1.37.09.36-1.26.36-19.92.36 19.71.36.09.37-1.45.36 4.16.36.27.36-.64.36-.65.37.91.36-10.73.36-10.97.36 19.37.36 1.37.37-.09.36-.21.36-1.73.36.74h.36l.37-.11.36-22.23.36 12.1.36 11.06.37-1.26.36-.65.36.57.36-.59.36-.51.37.29.36.72.36-20.27.36 8.55.36 9.58.37-.4.36.24.36-.39.36-.14.36.55.37 2.49.36-11.57.36-10.28.36 19.91.37-.11.36.09.36-.38.36-.77.36 1.27.37-.59.36-.21.36-11.23.36.75.36 9.16.37.12.36-.99.36 2.91.36-.7.36-.16.37-1.26.36.43.36-20.43.36 7.14.36 10.71.37.96.36.44.36.17.36-.42.37-.11.36-.77.36-10.85.36-10.95.36 23.51.37 2.43.36-.69.36-.21.36-.06.36-.06.37-.21.36-.05.36-9.98.36.18.36 9.3.37-.03.36.2.36-.36.36-.53.37.8.36-.56.36 1.56.36-22.13.36 10.15.37 9.24.36 1.13.36-.95.36.16.36-1.75.37 2.12.36-.14.36-10.27.36-12.07.36 20.5.37-.13.36-.25.36-.96.36 3.37.37-.61.36.16.36-.88.36-9.67.36-10.87.37 19.51.36.1.36-.06.36.98.36-.81.37-.45h.36l.36.71.36-21.46.36 8.97.37 11.22.36 1.19.36-.29.36-.02.36-1.3.37.6.36.28.36-.75.36-20.43.37 19.91.36.73.36-.17.36-1.46.36.54.37-.26.36-.21.36-.51.36-5.41.36-11.85.37 20.46.36-1.02.36.26.36.26.36-.63.37-1.34.36 1.39.36-.34.36-19.54.37 7.16.36 11.91.36.29.36-.47.36-1.1.37.83.36 1.45.36-1.22.36-.22.36-20.69.37 10.06.36 10.27.36-1.13.36 1.06.36 1.12.37-1.25.36-.27.36-.17.36-10.13.36-11.12.37 19.1.36.41.36 3.39.36-1.31.37-.03.36.18.36.1.36-.71.36-10.34.37-.59.36 11.59.36-.43.36-.58.36-.99.37 1.35.36-.79.36-.13.36-.82.36-17.64.37 7.52.36 11.05.36-.23.36-.44.37.29.36.09.36-.39.36.63.36-9.34.37-11.74.36 18.55.36.25.36.48.36-.71.37-.77.36 2.41.36 2.77.36-.03.36-10.25.37-11.97.36 20.31.36-.16.36-.02.36.01.37 1.34.36-.82.36-.04.36-.43.37-20.6.36 9.51.36 8.89.36.6.36 1.96.37-.48.36-.78.36.07.36-.09.36-.15.37-20.92.36 18.74.36 2.48.36-.71.36-.09.37-.15.36-.21.36-.45.36-.55.37-9.74.36-9.67.36 20.97.36.28.36-.03.37.32.36-.24h.36l.36-1.47.36-.04.37-19.56.36 9.22.36 9.79.36-.14.36.97.37-.47.36.03.36-.63.36 1.98.37-1.2.36-19.33.36 18.98.36.68.36-1.1.37-.13.36-.16.36 2.12.36-2.07.36-.23.37-10.81.36-10.19.36 19.05.36.43.36-.52.37 4.21.36.09.36.3.36-1.25.36.21.37-20.84.36 9.37.36 9.31.36 1.44.37-.56.36.02.36-.47.36.28.36.62.37-1.06.36-20.57.36 9.23"/><use xlink:href="#b" transform="matrix(3.75 0 0 3.75 125.4 119.04)"/><use xlink:href="#b" transform="matrix(3.75 0 0 3.75 220.55 7.51)"/></g><text stroke-linecap="round" stroke-linejoin="round" color="#000" font-family="KaTeX_Main" font-size="8" transform="translate(241.1 25.11)"><tspan>WBSTTopDown</tspan></text><g fill="none" stroke="currentColor" stroke-linecap="round" stroke-linejoin="round" color="#000"><path stroke="#29C3F6" stroke-dasharray="4.0,2.0,1.0,2.0" d="M205.6 22.51h29.9M28 198.23l.36.13.36.51.37-.79.36.34.36-3.26.36 2.63.36-1.16.37-.46.36-30.18.36 28.61.36-.26.37.26.36-.98.36-.29.36.23.36-.62.37 1.53.36-10.3.36-12.31.36 19.16.36 3.66.37-3.91.36.91.36.6.36-.01.36.05.37-1.1.36-10.56.36-.46.36 10.58.36-1.32.37-1.08.36 2.87.36-.53.36-1.64h.37l.36 1.03.36-23.38.36 10.41.36 9.97.37 1.78.36-2.03.36 1.28.36-1.46.36.42.37-.93.36-11.02.36-11.02.36 23.07.36-.71.37-.7.36.43.36.73.36-1.55.37.43.36-1.81.36-7.7.36-11.44.36 19.42.37-1.69.36 1.27.36-.55.36-.26.36.17.37-.85.36 1.67.36-22.8.36 11.37.36 10.02.37 1.03.36-1.08.36-.69.36.11.37 1.18.36-.78.36.18.36-21.76.36 20.93.37-1.16.36-.49.36-.19.36 3.14.36-.24.37.53.36-2.63.36-7.74.36-12.87.36 19.94.37-1.45.36 3.29.36-1.23.36-.9.36-.88.37 1.67.36-.71.36-20.24.36 7.21.37 13.34.36.07.36-.4.36-1.11.36 1.29.37-1.59.36-.3.36.58.36-20.9.36 9.99.37 10.46.36.49.36-.8.36-.1.36-.37.37-.34.36-.96.36-7.92.36-9.98.37 18.18.36-.48.36-.5.36.4.36.44.37-.52.36 1.81.36-.94.36-9.89.36-.93.37 10.11.36-1.39.36.54.36-.66.36-.06.37.5.36.75.36-.21.36-19.49.36 7.87.37 9.14.36.21.36.4.36 1.8.37-2.29.36-.48.36-.58.36-9.24.36-9.24.37 17.94.36 1.37.36 2.46.36.14.36-2.45.37.31.36.14.36-1.23.36-9.42.36-11.59.37 21 .36 1.15.36-.71.36-1.17.37 1.21.36-.94.36-.68.36-.41.36-16.97.37 8.02.36 10.35.36-1.61.36 1.64.36-1.4.37.71.36-1.38.36 1.02.36-1.16.36-18.59.37 19.08.36-.31.36-.8.36.04.36-.73.37 1.28.36 1.5.36-1.43.36-8.9.37-10.57.36 18.8.36-.51.36-.26.36.01.37.51.36.12.36.52.36-3.3.36-16.69.37 8.07.36 8.4.36-.01.36 2.18.36.17.37-.87.36-.22.36 1.86.36-2.1.37-18.59.36 15.6.36 3.5.36-1.45.36 2.34.37-2.05.36.38.36-.65.36.31.36-10.33.37-6.21.36 19.43.36-1.25.36-.18.36-.25.37.36.36-1.28.36.6.36.24.37-20.45.36 10.41.36 8.5.36-.08.36.15.37.15.36.39.36-1.5.36 1.7.36-1.13.37-18.54.36 8.99.36 9.99.36-1.07.36-.81.37.61.36 1.69.36-1.76.36.34.36-9.93.37-10.23.36 19.04.36.29.36-1.42.37 2.64.36-.66.36.93.36-1.31.36-.17.37-10.75.36.01.36 10.39.36 1.66.36-.64.37-.77.36-1.22.36.51.36.97.36-1.37.37-19.79.36 11.35.36 9.07.36-.33.37-.06.36.4.36-1.37.36 1.33.36-.63.37-10.14.36-10.24.36 18.9.36.61.36.04.37-.13.36.25.36-1.06.36 1.07.36 3.04.37-11.63.36-10.69.36 19.23.36 1.68.36-1.71.37-1.59.36 2.47.36 1.23.36-1.04.37-.58.36-20.74.36 9.56.36 8.42.36 1.5.37-2.74.36 2.87.36-.52.36-.04.36-.66.37 1.83.36-20.17.36 18.55.36.11.36.42.37-.19.36-.43.36-.94.36.97.37-.78.36-9.71.36-10.15.36 20.39.36 1.36.37-1.55.36.47.36.91.36-1.53.36.29.37-1.59.36-18.79.36 10.87.36 9.27.36-.24.37-.63.36.33.36-.03.36.33.36-1.28.37 1.97.36-20.25.36 8.82.36 10.45.37-.89.36-1.01.36 1.2.36-2.38.36 2.51.37-1.56.36.15.36-28.64.36 28.53.36-1.49.37 1.36.36-.99.36 4.35.36-1.48.36 2.52.37-1.85.36-.11.36-20.71.36 19.73.37-1.11.36 1.15.36-.74.36 1.31.36-2.07.37.93.36-.71.36-9.78.36-10.68.36 20.19.37.11.36-1.38.36.08.36.81.36.41.37-1.79.36 1.21.36-20.82.36 9.91.37 10.21.36.27.36-1.48.36.38.36.63.37-1.08.36 1.6.36.85.36-20.24.36 20.5.37-.28.36-.97.36-.45.36-.7.36-.01.37-.55.36-1.86.36-7.77.36-11.97.36 18.66.37 2.81.36-1.32.36 1.72.36-.89.37.93.36-.11.36-1.05.36-20.38.36 9.9.37 8.75.36.46.36-.73.36.98.36-.18.37-.77.36 1.15.36.1.36-20.98.36 9.04.37 10.68.36 1.05.36.9.36.07.37-.6.36-.75.36 1.34.36-10.93.36-10.55.37 20.17.36.23.36-1.39.36.32.36.94.37-1.38.36-.94.36.64.36-8.74.36-.81.37 8.82.36.99.36.95.36-2.55.36 1.02.37-1.85.36.41.36.33.36-20.24.37 10.34.36 9.74.36.06.36-.09.36.35.37-.44.36 1.39.36.35.36-10.66.36-9.88.37 20.6.36-.74.36-1.51.36.81.36.33.37.03.36.36.36-.68.36-9.71.37-11.39.36 18.72.36-.34.36 2.14.36.39.37-.66.36.01.36.62.36-1.62.36-20.68.37 9.8.36 10.5.36-.29.36-.56.36-3.22.37 1.82.36 1.67.36-.66.36-.24.37-17.46.36 21.66.36.59.36-1.31.36-.07.37.47.36-1.66.36.43.36.75.36-10.72.37-10.4.36 19.2.36.96.36.17.36.23.37-.48.36-1.16.36 2.72.36-2.12.36-19.98.37 7.78.36 10.77.36.18.36-.35.37.21.36 2.07.36-3.17.36 2.78.36-2.82.37-19.36.36 8.74.36 10.22.36-.89.36 2.05.37.8.36.99.36-2.04.36.51.36-12.09.37-9.8.36 19.62.36 1.16.36.54.37-.93.36-.79.36.93h.36l.36 1.18.37-11.58.36-1.17.36 11.08.36-.77.36.04.37-.41.36.14.36 1.51.36-2.28.36.9.37-21.3.36 9.12.36 10.06.36.15.36.81.37-1.26.36-.97.36 1.57.36 1.37.37-9.19.36-11.2.36 17.76.36 1.66.36 1.15.37.04.36-2.38.36 1.2.36-.1.36-.31.37-11.36.36 2.17.36 8.77.36.08.36 1.51.37.47.36-.25.36-.62.36-1.42.37 1.16.36-19.67.36 7.03.36 10.53.36.95.37-1.45.36-.93.36 1.26.36-.49.36-.21.37-10.15.36-8.78.36 16.82.36 2.09.36.35.37-.26.36.15.36.65.36-3.18.36.46.37-8.21.36-12.02.36 19.87.36-.5.37.15.36.31.36-.45.36-.26.36 1.05.37-.08.36-19.84.36 10.94.36 7.94.36 1.65.37-1.61.36-.5.36.08.36.8.36-1.41.37 1.97.36-20.97.36 17.65.36.12.37 1.31.36-.93.36 4.08.36-1.49.36-.67.37.72.36-9.48.36-11.51.36 20.45.36-.67.37-.27.36 1.22.36-1.27.36.94.36-.49.37-.91.36-19.68.36 8.43.36 10.95.37.03.36 1.2.36-1.79.36 1.03.36.05.37-1.48.36.29.36-20.03.36 11.27.36 8.46.37.14.36-1 .36.96.36-.81.36-.16.37-2.26.36-7.05.36-10.2.36 18.38.36.06.37.07.36.42.36.38.36-.57.37.63.36.51.36-11.21.36-1.4.36 9.92.37 1.72.36-1.44.36-3.3.36 2.83.36.82.37.98.36-1.48.36-18.79.36 9.19.36 7.95.37.79.36-.13.36 1.15.36-1.14.37-.56.36.57.36-.4.36-30.72.36 29.63.37-1.24.36 4.1.36-1.63.36 1.25.36-1.29.37.26.36.2.36-.04.36-31.92.36 31 .37.15.36-.73.36.15.36.93.36-.91.37-.64.36-.31.36-8.29.36-10.2.37 19.08.36.45.36.5.36-.97.36-2.41.37 3.18.36-2.24.36 1.7.36-10.71.36.01.37 8.32.36.29.36-.98.36.67.36-.18.37 3.02.36-.01.36-2.18.36-21.74.37 12.56.36 7.87.36 2.25.36-1.68.36.55.37-1.7.36 1.13.36-.19.36-11.49.36-7.94.37 18.14.36-.81.36 3.88.36-1.75.36-.08.37-.28.36-1.04.36-.72.36-8.33.36-2.43.37 12.31.36-1.93.36 1.46.36.05.37-1.93.36 1.47.36-.21.36-1.35.36-17.04.37 10.97.36 11.2.36-1.06.36.38.36.19.37-.09.36-1.27.36.24.36-9.1.36-11.31.37 18.93.36.63.36.7.36-.94.37-.03.36.59.36 1.67.36-1.59.36-9.2.37-12.97.36 20.8.36-1.42.36 3.31.36-2.3.37 1.51.36-1.96.36 1.18.36-.82.36-20.67.37 10.41.36 8.32.36.54.36 2.11.37 1.7.36-1.78.36-1.21.36.08.36 1.33.37-20.42.36 18.24.36.88.36.52.36.33.37-.82.36.75.36-.81.36-1.04.36-10.32.37-8.89.36 20.73.36.25.36-2.08.36 2.13.37.02.36-.55.36-1.12.36-.32.37-18.46.36 7.22.36 10.22.36.58.36-.35.37-.7.36 1.02.36-1.47.36 5.16.36-1.15.37-20.87.36 8.51.36 10.29.36.22.36 1.15.37-3.13.36 3.67.36-1.66.36-.04.37-12.04.36-9.25.36 19.13.36.11.36-.59.37 1.75.36 1.17.36-1.54.36.58.36.49.37-9.75.36-.8.36 8.5.36.18.36 1.5.37-.28.36-1.42.36.05.36.94.36-1.32.37-20.11.36 8.91.36 12.44.36-.18.37-.22.36-1.52.36 1.46.36.03.36-1.63.37-8.75.36-10.26.36 19.39.36-.93.36.96.37 1.18.36-1.17.36-1.33.36-.8.36 2.52.37-9.85.36-10.82.36 19.97.36-.47.37.31.36-1.19.36.23.36 1.37.36-.39.37.18.36-21.25.36 7.88.36 11.51.36-.16.37-.07.36 1.85.36 2.29.36 1.33.36-1.58.37-.63.36-20.26.36 17.86.36 1.82.36-1.66.37 1.98.36-.59.36.59.36-1.23.37.43.36-9.71.36-12.51.36 19.23.36 3.56.37-.68.36-1.33.36-4.48.36 4.56.36-.38.37-.8.36-19.86.36 10.44.36 8.8.36.23.37.32.36-.8.36-.5.36-.81.37 1.4.36 2.06.36-19.64.36 18.48.36-.84.37 1.42.36-1.06.36 1.53.36-1.14.36-.8.37 1.36.36-10.32.36-9.8.36 18.46.36 1.01.37-.99.36.81.36-2.04.36 2.97.37.4.36.38.36-24.28.36 11.99.36 8.25.37 1.25.36.62.36.28.36-1.06.36.73.37-1.43.36.58.36-23.06.36 11.58.36 9.24.37 4.02.36.38.36-.34.36-1.24.36.74.37-1.25.36-8.16.36-13.79.36 21.29.37.99.36.75.36-2.02.36 1.02.36.33.37-2.12.36 1.07.36-8.23"/><use xlink:href="#e" color="#29C3F6" transform="matrix(3.75 0 0 3.75 182.98 150.1)"/><use xlink:href="#e" color="#29C3F6" transform="matrix(3.75 0 0 3.75 220.55 22.51)"/></g><path fill="none" d="M28 45.01V205M371.99 45.01H28" color="#000"/></svg>