<svg xmlns="http://www.w3.org/2000/svg" xmlns:xlink="http://www.w3.org/1999/xlink" viewBox="0 0 400 250"><path fill="none" d="M0 0h400v250H0z"/><defs><path id="d" stroke="currentColor" stroke-width=".267" d="M-1-1h2v2h-2z"/><path id="g" fill="currentColor" stroke="currentColor" stroke-width=".267" d="M-1-1h2v2h-2z"/><path id="b" stroke="currentColor" stroke-width=".267" d="m0-1.33-1.33 2h2.66z"/><path id="f" stroke="currentColor" stroke-width=".267" d="M0 1.33 1.265.411.782-1.067l-1.564-.009-.483 1.487z"/><use xlink:href="#b" id="c" stroke="currentColor" transform="rotate(180)"/><use xlink:href="#d" id="e" stroke="currentColor" transform="rotate(45)"/><circle id="a" cx="0" cy="0" r="1" stroke="currentColor" stroke-width=".267"/></defs><path fill="none" stroke="#000" stroke-linecap="round" stroke-linejoin="round" stroke-width=".1" d="M35.48 205V45.01" class="gridline" color="#000"/><g fill="none" stroke="none" stroke-linecap="round" stroke-linejoin="round" stroke-width="0" color="#000"><path d="M35.48 205v-7.5m0-152.49v7.5"/><text fill="#000" font-family="KaTeX_Main" font-size="10" text-anchor="middle" transform="translate(35.48 215.75)"><tspan> 1</tspan></text></g><path fill="none" stroke="#000" stroke-linecap="round" stroke-linejoin="round" stroke-width=".1" d="M72.87 205V45.01" class="gridline" color="#000"/><g fill="none" stroke="none" stroke-linecap="round" stroke-linejoin="round" stroke-width="0" color="#000"><path d="M72.87 205v-7.5m0-152.49v7.5"/><text fill="#000" font-family="KaTeX_Main" font-size="10" text-anchor="middle" transform="translate(72.87 215.75)"><tspan> 2</tspan></text></g><path fill="none" stroke="#000" stroke-linecap="round" stroke-linejoin="round" stroke-width=".1" d="M110.26 205V45.01" class="gridline" color="#000"/><g fill="none" stroke="none" stroke-linecap="round" stroke-linejoin="round" stroke-width="0" color="#000"><path d="M110.26 205v-7.5m0-152.49v7.5"/><text fill="#000" font-family="KaTeX_Main" font-size="10" text-anchor="middle" transform="translate(110.26 215.75)"><tspan> 3</tspan></text></g><path fill="none" stroke="#000" stroke-linecap="round" stroke-linejoin="round" stroke-width=".1" d="M147.65 205V45.01" class="gridline" color="#000"/><g fill="none" stroke="none" stroke-linecap="round" stroke-linejoin="round" stroke-width="0" color="#000"><path d="M147.65 205v-7.5m0-152.49v7.5"/><text fill="#000" font-family="KaTeX_Main" font-size="10" text-anchor="middle" transform="translate(147.65 215.75)"><tspan> 4</tspan></text></g><path fill="none" stroke="#000" stroke-linecap="round" stroke-linejoin="round" stroke-width=".1" d="M185.04 205V45.01" class="gridline" color="#000"/><g fill="none" stroke="none" stroke-linecap="round" stroke-linejoin="round" stroke-width="0" color="#000"><path d="M185.04 205v-7.5m0-152.49v7.5"/><text fill="#000" font-family="KaTeX_Main" font-size="10" text-anchor="middle" transform="translate(185.04 215.75)"><tspan> 5</tspan></text></g><path fill="none" stroke="#000" stroke-linecap="round" stroke-linejoin="round" stroke-width=".1" d="M222.43 205V45.01" class="gridline" color="#000"/><g fill="none" stroke="none" stroke-linecap="round" stroke-linejoin="round" stroke-width="0" color="#000"><path d="M222.43 205v-7.5m0-152.49v7.5"/><text fill="#000" font-family="KaTeX_Main" font-size="10" text-anchor="middle" transform="translate(222.43 215.75)"><tspan> 6</tspan></text></g><path fill="none" stroke="#000" stroke-linecap="round" stroke-linejoin="round" stroke-width=".1" d="M259.82 205V45.01" class="gridline" color="#000"/><g fill="none" stroke="none" stroke-linecap="round" stroke-linejoin="round" stroke-width="0" color="#000"><path d="M259.82 205v-7.5m0-152.49v7.5"/><text fill="#000" font-family="KaTeX_Main" font-size="10" text-anchor="middle" transform="translate(259.82 215.75)"><tspan> 7</tspan></text></g><path fill="none" stroke="#000" stroke-linecap="round" stroke-linejoin="round" stroke-width=".1" d="M297.21 205V45.01" class="gridline" color="#000"/><g fill="none" stroke="none" stroke-linecap="round" stroke-linejoin="round" stroke-width="0" color="#000"><path d="M297.21 205v-7.5m0-152.49v7.5"/><text fill="#000" font-family="KaTeX_Main" font-size="10" text-anchor="middle" transform="translate(297.21 215.75)"><tspan> 8</tspan></text></g><path fill="none" stroke="#000" stroke-linecap="round" stroke-linejoin="round" stroke-width=".1" d="M334.6 205V45.01" class="gridline" color="#000"/><g fill="none" stroke="none" stroke-linecap="round" stroke-linejoin="round" stroke-width="0" color="#000"><path d="M334.6 205v-7.5m0-152.49v7.5"/><text fill="#000" font-family="KaTeX_Main" font-size="10" text-anchor="middle" transform="translate(334.6 215.75)"><tspan> 9</tspan></text></g><path fill="none" stroke="#000" stroke-linecap="round" stroke-linejoin="round" stroke-width=".1" d="M371.99 205V45.01" class="gridline" color="#000"/><g fill="none" stroke="none" stroke-linecap="round" stroke-linejoin="round" stroke-width="0" color="#000"><path d="M371.99 205v-7.5m0-152.49v7.5"/><text fill="#000" font-family="KaTeX_Main" font-size="10" text-anchor="middle" transform="translate(371.99 215.75)"><tspan> 10</tspan></text></g><g fill="none" stroke="none" stroke-linecap="round" stroke-linejoin="round" stroke-width="0" color="#000"><path d="M371.99 205h-7.5"/><text fill="#000" font-family="KaTeX_Main" font-size="10" transform="translate(378.99 208.25)"><tspan>1.10</tspan></text></g><g fill="none" stroke="none" stroke-linecap="round" stroke-linejoin="round" stroke-width="0" color="#000"><path d="M371.99 178.33h-7.5"/><text fill="#000" font-family="KaTeX_Main" font-size="10" transform="translate(378.99 181.58)"><tspan>1.20</tspan></text></g><g fill="none" stroke="none" stroke-linecap="round" stroke-linejoin="round" stroke-width="0" color="#000"><path d="M371.99 151.67h-7.5"/><text fill="#000" font-family="KaTeX_Main" font-size="10" transform="translate(378.99 154.92)"><tspan>1.30</tspan></text></g><g fill="none" stroke="none" stroke-linecap="round" stroke-linejoin="round" stroke-width="0" color="#000"><path d="M371.99 125h-7.5"/><text fill="#000" font-family="KaTeX_Main" font-size="10" transform="translate(378.99 128.25)"><tspan>1.40</tspan></text></g><g fill="none" stroke="none" stroke-linecap="round" stroke-linejoin="round" stroke-width="0" color="#000"><path d="M371.99 98.34h-7.5"/><text fill="#000" font-family="KaTeX_Main" font-size="10" transform="translate(378.99 101.59)"><tspan>1.50</tspan></text></g><g fill="none" stroke="none" stroke-linecap="round" stroke-linejoin="round" stroke-width="0" color="#000"><path d="M371.99 71.67h-7.5"/><text fill="#000" font-family="KaTeX_Main" font-size="10" transform="translate(378.99 74.92)"><tspan>1.60</tspan></text></g><g fill="none" stroke="none" stroke-linecap="round" stroke-linejoin="round" stroke-width="0" color="#000"><path d="M371.99 45.01h-7.5"/><text fill="#000" font-family="KaTeX_Main" font-size="10" transform="translate(378.99 48.26)"><tspan>1.70</tspan></text></g><path fill="none" stroke="none" stroke-linecap="round" stroke-linejoin="round" stroke-width="0" d="M28 45.01V205M371.99 45.01H28" color="#000"/><text fill="#000" stroke="none" stroke-linecap="round" stroke-linejoin="round" stroke-width="0" color="#000" font-family="KaTeX_Main" font-size="10" text-anchor="middle" transform="rotate(-90 68.255 56.755)"><tspan font-weight="bold">Maximum Path Length </tspan><tspan> / log</tspan><tspan dy="3" font-size="8">2</tspan><tspan dy="-3">(Size)</tspan></text><text fill="#000" stroke="none" stroke-linecap="round" stroke-linejoin="round" stroke-width="0" color="#000" font-family="KaTeX_Main" font-size="10" text-anchor="middle" transform="translate(199.99 238.25)"><tspan>Operations × 10</tspan><tspan dy="-5" font-size="8">5</tspan></text><text fill="#000" stroke="none" stroke-linecap="round" stroke-linejoin="round" color="#000" font-family="KaTeX_Main" font-size="8" transform="translate(71.2 10.11)"><tspan>RedBlackBottomUp</tspan></text><g fill="none" stroke="currentColor" stroke-linecap="round" stroke-linejoin="round" color="#000"><path stroke="#F44336" d="M35.7 7.51h29.9M28 89.03l.37.45.38-15.89.37.46.38.44.37.45.37.43.38.43.37.43.38.42.37.41.37.41.38.4.37.39.37.4.38.39.37.38.38.38.37.37.37.37.38.36.37.36.38.36.37.35.37.35.38.34.37.35.38.33.37.33.37.33.38-15.59.37.33.37.33.38.33.37.33.38.32.37.32.37.31.38.31.37.31.38.31.37.3.37.3.38.29.37.3.38.29.37.29.37.28.38.29.37.28.38.28.37.27.37.28.38.27.37.27.37.26.38.26.37.26.38.27.37.25.37.26.38.25.37.25.38.25.37.25.37.24.38.24.37.24.38.24.37.24.37.24.38.23.37.23.37.23.38.23.37.22.38.23.37.22.37.22.38.22.37.22.38.22.37.21.37.21.38.22.37-15.18.38.22.37.21.37.22.38.21.37.21.38.21.37.21.37.2.38.21.37.2.37.2.38.21.37.2.38.19.37.2.37.2.38.19.37.19.38.2.37.19.37.18.38.19.37.19.38.19.37.18.37.19.38.18.37.18.37.18.38.18.37.18.38.18.37.17.37.18.38.17.37.17.38.18.37.17.37.17.38.17.37.16.38.17.37.17.37.17.38.16.37.16.38.17.37.16.37.16.38.16.37.16.37.16.38.15.37.16.38-14.87.37.16.37.16.38.16.37.16.38.15.37.16.37.16.38.15.37.16.38.15.37.15.37.15.38.16.37.15.37.15.38.14.37.15.38.15.37.14.37.15.38.15.37.14.38.15.37.14.37.14.38.14.37.14.38.14.37.14.37.14.38.14.37.14.38.14.37.13.37.14.38.13.37.14.37.13.38.14.37.13.38.13.37.13.37.13.38.14.37.13.38.12.37.13.37.13.38.13.37.13.38.12.37.13.37.12.38.13.37.13.37.12.38.12.37.13.38.12.37.12.37.12.38.12.37.12.38.12.37.12.37.12.38.12.37.12.38.12.37.11.37.12.38.11.37.12.38.11.37.12.37.11.38.12.37.11.37.11.38.12.37.11.38.11.37.11.37.11.38.11.37.11.38.11.37.11.37.11.38.11.37.11.38.1.37.11.37.11.38.1.37.11.37.11.38.1.37.11.38.1.37.11.37.1.38.1.37.11.38.1.37.1.37.1.38.1.37-14.44.38.1.37.1.37.11.38.1.37.1.38.1.37.11.37.1.38.1.37.1.37.1.38.1.37.1.38.1.37.1.37.1.38.1.37.1.38.1.37.09.37.1.38.1.37.1.38.09.37.1.37.09.38.1.37.09.37.1.38.09.37.1.38.09.37.09.37.1.38.09.37.09.38.1.37.09.37.09.38.09.37.09.38.09.37.09.37.1.38.09.37.09.38.08.37.1.37.08.38.09.37.09.37.09.38.09.37.09.38.08.37.09.37.09.38.08.37.09.38.09.37.08.37.09.38.08.37.09.38.08.37.09.37.08.38.09.37.08.37.08.38.09.37.08.38.08.37.09.37.08.38.08.37.08.38.09.37.08.37.08.38.08.37.08.38.08.37.08.37.08.38.08.37.08.38.08.37.08.37.08.38.08.37.08.37.08.38.07.37.08.38.08.37.07.37.08.38.08.37.08.38.07.37.08.37.08.38.07.37.08.38.08.37.07.37.07.38-14.15.37.08.37.08.38.07.37.08.38.08.37.07.37.08.38.08.37.07.38.08.37.07.37.08.38.07.37.08.38.07.37.08.37.07.38.08.37.07.38.07.37.08.37.07.38.07.37.08.37.07.38.07.37.07.38.08.37.07.37.07.38.07.37.07.38.07.37.08.37.07.38.07.37.07.38.07.37.07.37.07.38.07.37.07.37.07.38.07.37.07.38.07.37.07.37.06.38.07.37.07.38.07.37.07.37.07.38.06.37.07.38.07.37.07.37.06.38.07.37.07.38.06.37.07.37.07.38.06.37.07.37.07.38.06.37.07.38.06.37.07.37.07.38.06.37.06.38.07.37.06.37.07.38.06.37.07.38.06.37.06.37.07.38.06.37.07.37.06.38.06.37.07.38.06.37.06.37.06.38.07.37.06.38.06.37.07.37.06.38.06.37.06.38.06.37.06.37.06.38.06.37.07.38.06.37.06.37.06.38.06.37.06.37.06.38.06.37.06.38.06.37.06.37.06.38.06.37.06.38.06.37.06.37.06.38.05.37.06.38.06.37.06.37.06.38.06.37.06.37.06.38.05.37.06.38.06.37.06.37.05.38.06.37.06.38.06.37.05.37.06.38.06.37.05.38.06.37.06.37.05.38.06.37.06.37.05.38.06.37.05.38.06.37.05.37.06.38.06.37.05.38.05.37.06.37.06.38.05.37.06.38.05.37.06.37.05.38.05.37.06.38.05.37.05.37.06.38.05.37.06.37.05.38.05.37.06.38.05.37.05.37.06.38.05.37.05.38.05.37.06.37.05.38.05.37.06.38.05.37.05.37.05.38.05.37.06.37.05.38.05.37.05.38.05.37.06.37.05.38.05.37.05.38.05.37.05.37.05.38.05.37.05.38.05.37.05.37.05.38.05.37.05.38.05.37.06.37.04.38.05.37.05.37.05.38.05.37.05.38.05.37.05.37.05.38.05.37.05.38.05.37.05.37.05.38-13.76.37.06.38.05.37.05.37.04.38.06.37.05.37.04.38.05.37.05.38.05.37.05.37.05.38.05.37.05.38.05.37.05.37.05.38.05.37.04.38.05.37.05.37.05.38.05.37.05.38.04.37.05.37.05.38.05.37.05.37.04.38.05.37.05.38.05.37.05.37.04.38.05.37.05.38.04.37.05.37.05.38.04.37.05.38.05.37.05.37.04.38.05.37.04.37.05.38.05.37.04.38.05.37.05.37.04.38.05.37.04.38.05.37.05.37.04.38.05.37.04.38.05.37.04.37.05.38.04.37.05.38.04.37.05.37.04.38.05.37.04.37.05.38.04.37.05.38.04.37.05.37.04.38.04.37.05.38.04.37.05.37.04.38.05.37.04.38.04.37.05.37.04.38.04.37.05.37.04.38.04.37.05.38.04.37.04.37.04.38.05.37.04.38.05.37.04.37.04.38.04.37.05.38.04.37.04.37.04.38.05.37.04.38.04.37.04.37.04.38.05.37.04.37.04.38.04.37.05.38.04.37.04.37.04.38.04.37.04.38.04.37.05.37.04.38.04.37.04.38.04.37.04.37.04.38.04.37.04.37.05.38.04.37.04.38.04.37.04.37.04.38.04.37.04.38.04.37.04.37.04.38.04.37.04.38.04.37.04.37.04.38.04.37.04.38.04.37.04.37.04.38.04.37.04.37.04.38.04.37.04.38.04.37.04.37.04.38.04.37.03.38.04.37.04.37.04.38.04.37.04.38.04.37.04.37.04.38.04.37.03.37.04.38.04.37.04.38.04.37.04.37.03.38.04.37.04.38.04.37.04.37.03.38.04.37.04.38.04.37.04.37.03.38.04.37.04.38.04.37.03.37.04.38.04.37.04.37.04.38.03.37.04.38.03.37.04.37.04.38.04.37.03.38.04.37.04.37.04.38.03.37.04.38.04.37.03.37.04.38.03.37.04.37.04.38.03.37.04.38.04.37.03.37.04.38.04.37-13.48.38.04.37.04.37.03.38.04.37.04.38.04.37.03.37.04.38.04.37.03.38.04.37.04.37.03.38.04.37.04.37.03.38.04.37.04.38.03.37.04.37.03.38.04.37.04.38.03.37.04.37.04.38.03.37.04.38.03.37.04.37.03.38.04.37.04.37.03.38.04.37.03.38.04.37.03.37.04.38.03.37.04.38.04.37.03.37.04.38.03.37.04.38.03.37.04.37.03.38.04.37.03.38.04.37.03.37.04.38.03.37.03.37.04.38.03.37.04.38.03.37.04.37.03.38.04.37.03.38.04.37.03.37.03.38.04.37.03.38.04.37.03.37.03.38.04.37.03.37.04.38.03.37.03.38.04.37.03.37.04.38.03.37.03.38.04.37.03.37.03.38.04.37.03.38.03.37.04.37.03.38.03.37.04.38.03.37.03.37.04.38.03.37.03.37.04.38.03.37.03.38.03.37.04.37.03.38.03.37.04.38.03.37.03.37.03.38.04.37.03.38.03.37.03.37.04.38.03.37.03.37.03.38.03.37.04.38.03.37.03.37.03.38.03.37.04.38.03.37.03"/><use xlink:href="#e" color="#F44336" transform="matrix(3.75 0 0 3.75 342.45 54.19)"/><use xlink:href="#e" color="#F44336" transform="matrix(3.75 0 0 3.75 50.65 7.51)"/></g><text fill="#000" stroke="none" stroke-linecap="round" stroke-linejoin="round" color="#000" font-family="KaTeX_Main" font-size="8" transform="translate(71.2 25.11)"><tspan>RedBlackTopDown</tspan></text><g fill="none" stroke="currentColor" stroke-linecap="round" stroke-linejoin="round" color="#000"><path stroke="#3B75EA" stroke-dasharray="1.0,2.0" d="M35.7 22.51h29.9M28 105.41l.37 33.13.38 49.4.37.33.38-32.27.37-32.21.37 32.92.38 32.85.37-32.16.38.34.37 16.53.37.31.38-48.2.37.35.37 16.49.38-15.8.37 48.68.38-31.91.37.32.37 32.45.38-47.89.37 32.4.38-31.76.37 32.34.37-31.72.38 16.29.37.29.38-31.64.37 48.15.37-47.54.38 63.99.37-31.57.37 32.07.38.24.37-15.63.38.25.37-31.45.37 31.94.38 16.07.37-31.41.38.26.37-15.55.37.25.38 47.57.37.22.38-47.04.37.25.37 31.7.38-31.21.37 31.65.38 15.91.37-46.85.37.23.38-31.1.37 15.9.37 47.18.38-31.07.37 47.1.38.19.37-31.02.37-15.39.38 46.98.37-15.39.38-46.52.37 46.9.37-30.91.38.21.37 15.74.38-15.34.37-30.83.37 31.24.38 15.69.37-15.3.37 31.16.38-15.29.37.18.38-15.27.37-30.71.37 61.97.38-30.7.37-15.24.38 15.61.37-15.22.37-15.22.38-15.19.37 77.13.38-15.22.37.17.37.17.38.17.37.16.38-45.85.37 46.18.37 15.48.38-15.16.37-15.15.37 15.47.38-15.14.37-30.41.38 76.58.37-45.68.37.16.38 30.68.37-45.61.38.16.37 30.64.37-30.31.38.16.37.16.38 15.37.37-30.26.37.17.38 76.12.37-30.24.37.14.38-30.2.37 15.31.38-30.17.37 30.47.37 30.44.38-15.02.37-15 .38-30.11.37 45.52.37-30.1.38-30.08.37 75.68.38-45.17.37-14.95.37 45.41.38-14.95.37-14.94.38-14.93.37.14.37 15.2.38.14.37-14.91.37 15.18.38.14.37-75.02.38 120.36.37.12.37-14.9.38 15.13.37-44.9.38 15.13.37 30.11.37.11.38.12.37-29.85.38.12.37-29.8.37 30.05.38 30.03.37-14.84.37.11.38-29.77.37 15.06.38 15.05.37-44.67.37 44.89.38.11.37-14.8.38-29.7.37 44.82.37-14.78.38-44.56.37 59.67.38-29.66.37 29.87.37.1.38-14.75.37-14.76.38.12.37 29.81.37.11.38-29.58.37.11.37-29.56.38 14.95.37 44.58.38-14.72.37 14.92.37-14.7.38.1.37.1.38-14.69.37.11.37 14.89.38-29.47.37 29.67.38-29.45.37 14.88.37-29.43.38 44.4.37-14.66.37 29.61.38.09.37-44.14.38 29.59.37-14.64.37-14.63.38 14.83.37 14.82.38.1.37-14.62.37.1.38-29.32.37 73.62.38-29.31.37.09.37-14.6.38-29.27.37 44.15.38.09.37-14.58.37-14.58.38 14.77.37-14.57.37-29.23.38 44.07.37 29.4.38.09.37.08.37-58.48.38 14.74.37.09.38 14.73.37 29.34.37-14.54.38-29.15.37-29.14.38 29.33.37 14.69.37-43.72.38 43.9.37.09.37-29.1.38 43.86.37-29.09.38.09.37-14.48.37 14.66.38 14.66.37-29.05.38-29.03.37 29.22.37 14.65.38-29.02.37 87.39.38-14.48.37-29.01.37 29.17.38-14.46.37.08.38-28.98.37 29.13.37-28.96.38 43.64.37-14.45.37.08.38-14.43.37-28.93.38 72.59.37-14.42.37-14.43.38.08.37-14.41.38 14.56.37-43.37.37 29.04.38 14.55.37-43.34.38 14.56.37-14.39.37 14.54.38 57.92.37-28.84.37.07.38.07.37-14.37.38-14.37.37 14.52.37 28.94.38-14.36.37-28.79.38-14.35.37 28.93.37-28.77.38 14.5.37.07.38 28.9.37-43.16.37.08.38 14.48.37.08.38-14.32.37 14.47.37-14.32.38-28.7.37 57.63.37-14.32.38-28.68.37-14.3.38 43.2.37 14.45.37.07.38 14.43.37-28.66.38 28.79.37 14.43.37-14.29.38-28.64.37-14.28.38-14.27.37 43.1.37-28.61.38 57.42.37-28.61.37-14.26.38-14.26.37 28.73.38-28.59.37-14.24.37 28.71.38 28.69.37-28.56.38.07.37-14.24.37-14.23.38.07.37 42.97.38 14.36.37-14.23.37-14.23.38.07.37-28.5.38 57.2.37-42.78.37 28.62.38-28.48.37.06.37 14.34.38-28.47.37 42.87.38-14.21.37 14.33.37-42.71.38 28.58.37.06.38-28.43.37 42.81.37-42.67.38.07.37 28.54.38.06.37-28.4.37-14.16.38 85.44.37.05.37.06.38.05.37-14.16.38 14.27.37-56.8.37 56.91.38-14.16.37-14.14.38 14.26.37-28.35.37-28.34.38 71.05.37-28.33.38 14.25.37-14.14.37 14.25.38 14.23.37-14.12.38.05.37.05.37-42.47.38.07.37 28.4.37 14.22.38-42.44.37 42.55.38.05.37 14.22.37-14.11.38-14.1.37-28.25.38 14.21.37 28.35.37-42.38.38 42.49.37-28.23.38-14.08.37.06.37-28.21.38 70.72.37.05.37-28.2.38.05.37.06.38-14.06.37-28.18.37 70.64.38-14.06.37-28.17.38.05.37-14.05.37.06.38 42.37.37.05.38 14.15.37.05.37-14.04.38-28.13.37 14.14.38 42.32.37-42.21.37 14.14.38 14.13.37-14.03.37-14.02.38-42.17.37 70.42.38-28.1.37-14.01.37 42.25.38-14.01.37-42.14.38 28.18.37.05.37 28.16.38-42.11.37 14.11.38.05.37-14 .37-42.08.38 98.36.37-28.04.37.05.38 14.09.37-28.02.38-28.02.37 42.15.37-13.98.38 14.07.37-13.97.38-13.98.37.06.37 14.07.38 14.06.37-27.98.38 14.07.37-27.97.37.05.38 28.06.37-13.95.38 28.06.37-13.96.37-27.95.38-27.94.37 56.04.37-13.94.38-27.94.37 70 .38-13.94.37-13.94.37 28.02.38.04.37-27.91.38 14.02.37 14.02.37-27.9.38 14.02.37-13.93.38.05.37.05.37-13.92.38 27.98.37 14 .37-27.87.38 14 .37-27.86.38-13.91.37 27.95.37.05.38.05.37-13.9.38 13.99.37-27.84.37-13.89.38 41.87.37.04.38.05.37 13.98.37.04.38-41.74.37 27.9.37 13.97.38 13.97.37-41.73.38-13.87.37 27.89.37-13.88.38-13.87.37 41.79.38-27.78.37 13.96.37-13.87.38.05.37 13.95.38-27.76.37 27.85.37-41.66.38 41.75.37-13.86.38-27.74.37 27.83.37-27.73.38 55.6.37-13.84.37 13.92.38 13.93.37-13.84.38-13.84.37.04.37.05.38.04.37-13.83.38 27.79.37-13.83.37-27.7.38 41.65.37.04.38.04.37-27.68.37 13.9.38.04.37-13.81.37.04.38.04.37-13.8.38-41.51.37 69.29.37-41.5.38 13.89.37 41.58.38.04.37-27.64.37-41.47.38 55.39.37.04.38-41.46.37 27.71.37-13.79.38 27.7.37-13.78.38.04.37-27.61.37.05.38 55.32.37-13.78.37-27.59.38 13.86.37-13.77.38-27.58.37.04.37 41.47.38.05.37-13.77.38.04.37-41.36.37 41.45.38 55.24.37.03.38.04.37-13.76.37.04.38-27.55.37 27.62.37.04.38-13.75.37.04.38-27.53.37 27.61.37.04.38-13.74.37 27.59.38-13.74.37-13.74.37 41.36.38-13.73.37.03.38-41.27.37 27.58.37-13.73.38 13.81.37-13.73.38-13.72.37.04.37-27.48.38 55.07.37.04.37.04.38.04.37.03.38.04.37.04.37.03.38 13.78.37-41.19.38 27.52.37-41.18.37.04.38 41.26.37.03.38-13.7.37.04.37.04.38 13.77.37-27.42.37 27.49.38-27.42.37 13.77.38-13.69.37.04.37 27.48.38-54.84.37 82.35.38-27.4.37.03.37-13.67.38 41.17.37-27.39.38-13.67.37 13.74.37-13.67.38 27.45.37.03.38.03.37-41.06.37-13.66.38 54.82.37-13.66.37-27.35.38 13.73.37 27.42.38-27.35.37 27.42.37-41.03.38.03.37-13.64.38 13.72.37 27.4.37-54.69.38 41.08.37-13.64.38 13.71.37.04.37 13.71.38-13.64.37.03.37 13.71.38-27.31.37 27.38.38-27.3.37.03.37 13.7.38-27.29.37 27.36.38 27.36.37-40.95.37.04.38-13.62.37.04.38 54.65.37-13.62.37-13.62.38.04.37-13.62.38-40.9.37.04.37 95.54.38-13.61.37.03.37-40.88.38 27.31.37 27.3.38-27.24.37.03.37.04.38-13.6.37 27.29.38-13.6.37-27.22.37 27.29.38.03.37.03.38-13.59.37 27.28.37-13.59.38.03.37-40.82.37 27.27.38 27.26.37-40.81.38 27.26.37-13.58.37-27.18.38-13.58.37 68.07.38-13.57.37-13.57.37-13.57.38.03.37.03.38 27.24.37 13.62.37-40.76.38-13.56.37 27.23.38-13.56.37-13.56.37 54.39.38-27.14.37.03.37-27.14.38.03.37 27.2.38-27.13.37 13.62.37.03.38.03.37-27.12.38 13.61.37-13.54.37-13.54.38 81.48.37-27.12.38.03.37 13.6.37-13.53.38-27.11.37 13.6.37.04.38 40.72.37-27.1.38 13.6.37-13.53.37-27.09.38 67.82.37-40.64.38-13.53.37.04.37 13.58.38-27.07.37 27.13.38.03.37-13.51.37.03.38-27.06.37 27.12.38.03.37-13.51.37 40.66.38-13.51.37.03.37-40.58.38 54.18.37-13.51.38-27.04.37 40.63.37-40.56.38 13.56.37 27.09.38-27.03.37-13.49.37.03.38.03.37 13.56.38 13.55.37-13.49.37.03.38.03.37-40.52.37 27.07.38 27.06.37-27 .38.03.37-13.48.37.03.38-13.48.37 81.09.38.03.37-13.48.37 13.53.38-26.98.37 13.53.38.03.37 13.53.37.03.38-13.47.37.02.38.03.37-13.46.37 13.52.38.02.37-13.46.37.03.38 13.52.37.03.38-13.46.37-40.44.37 67.46.38.03.37-13.46.38.03.37-26.94.37.04.38 40.46.37-13.45.38 13.5.37-13.45.37.03.38.03.37-13.45.37 13.5.38-13.44.37-13.44.38 40.43.37-13.44.37-26.9.38.02.37 26.96.38.03.37.02.37.03.38.03.37-13.43.38.02.37 13.49.37-13.43.38.02.37.03.38-13.42.37-26.87.37-13.43.38 67.28.37 13.48.37-26.87.38 13.47.37.03.38-26.86.37.02.37 13.47.38.03.37.03.38-13.41.37.03.37.02.38 13.47.37.02.38 13.46.37-40.27.37 40.32.38.03.37-13.4.37.02.38-13.4.37 13.46.38.02.37-13.39.37.02.38-26.81.37 26.87.38 13.45.37 13.44.37-40.23.38 53.7.37-13.39.38-40.22.37 53.68.37-26.8.38-40.21.37 53.67.38-13.38.37-26.79.37.03.38 26.84.37-26.79.37 26.84.38 13.43.37-13.38.38-26.78.37.03.37 13.43.38 13.42.37-26.76.38 13.42.37-13.37.37-26.76.38 93.78.37-13.37.38.03.37.02.37-13.36.38.02.37-26.75.37 13.41.38 13.41.37.03.38 26.79.37-40.13.37 13.41.38-26.74.37 40.17.38-13.36.37-13.35"/><use xlink:href="#g" color="#3B75EA" transform="matrix(3.75 0 0 3.75 56.04 158.08)"/><use xlink:href="#g" color="#3B75EA" transform="matrix(3.75 0 0 3.75 50.65 22.51)"/></g><text fill="#000" stroke="none" stroke-linecap="round" stroke-linejoin="round" color="#000" font-family="KaTeX_Main" font-size="8" transform="translate(241.1 10.11)"><tspan>RedBlackRelaxedBottomUp</tspan></text><g fill="none" stroke="currentColor" stroke-linecap="round" stroke-linejoin="round" color="#000"><path stroke="#00C853" d="M205.6 7.51h29.9M28 89.03l.37.45.38-15.89.37.46.38.44.37.45.37.43.38.43.37.43.38.42.37.41.37.41.38.4.37.39.37.4.38.39.37.38.38.38.37.37.37.37.38.36.37.36.38.36.37.35.37.35.38.34.37.35.38.33.37.33.37.33.38-15.59.37.33.37.33.38.33.37.33.38.32.37.32.37.31.38.31.37.31.38.31.37.3.37.3.38.29.37.3.38.29.37.29.37.28.38.29.37.28.38.28.37.27.37.28.38.27.37.27.37.26.38.26.37.26.38.27.37.25.37.26.38.25.37.25.38.25.37.25.37.24.38.24.37.24.38.24.37.24.37.24.38.23.37.23.37.23.38.23.37.22.38.23.37.22.37.22.38.22.37.22.38.22.37.21.37.21.38.22.37-15.18.38.22.37.21.37.22.38.21.37.21.38.21.37.21.37.2.38.21.37.2.37.2.38.21.37.2.38.19.37.2.37.2.38.19.37.19.38.2.37.19.37.18.38.19.37.19.38.19.37.18.37.19.38.18.37.18.37.18.38.18.37.18.38.18.37.17.37.18.38.17.37.17.38.18.37.17.37.17.38.17.37.16.38.17.37.17.37.17.38.16.37.16.38.17.37.16.37.16.38.16.37.16.37.16.38.15.37.16.38-14.87.37.16.37.16.38.16.37.16.38.15.37.16.37.16.38.15.37.16.38.15.37.15.37.15.38.16.37.15.37.15.38.14.37.15.38.15.37.14.37.15.38.15.37.14.38.15.37.14.37.14.38.14.37.14.38.14.37.14.37.14.38.14.37.14.38.14.37.13.37.14.38.13.37.14.37.13.38.14.37.13.38.13.37.13.37.13.38.14.37.13.38.12.37.13.37.13.38.13.37.13.38.12.37.13.37.12.38.13.37.13.37.12.38.12.37.13.38.12.37.12.37.12.38.12.37.12.38.12.37.12.37.12.38.12.37.12.38.12.37.11.37.12.38.11.37.12.38.11.37.12.37.11.38.12.37.11.37.11.38.12.37.11.38.11.37.11.37.11.38.11.37.11.38.11.37.11.37.11.38.11.37.11.38.1.37.11.37.11.38.1.37.11.37.11.38.1.37.11.38.1.37.11.37.1.38.1.37.11.38.1.37.1.37.1.38.1.37-14.44.38.1.37.1.37.11.38.1.37.1.38.1.37.11.37.1.38.1.37.1.37.1.38.1.37.1.38.1.37.1.37.1.38.1.37.1.38.1.37.09.37.1.38.1.37.1.38.09.37.1.37.09.38.1.37.09.37.1.38.09.37.1.38.09.37.09.37.1.38.09.37.09.38.1.37.09.37.09.38.09.37.09.38.09.37.09.37.1.38.09.37.09.38.08.37.1.37.08.38.09.37.09.37.09.38.09.37.09.38.08.37.09.37.09.38.08.37.09.38.09.37.08.37.09.38.08.37.09.38.08.37.09.37.08.38.09.37.08.37.08.38.09.37.08.38.08.37.09.37.08.38.08.37.08.38.09.37.08.37.08.38.08.37.08.38.08.37.08.37.08.38.08.37.08.38.08.37.08.37.08.38.08.37.08.37.08.38.07.37.08.38.08.37.07.37.08.38.08.37.08.38.07.37.08.37.08.38.07.37.08.38.08.37.07.37.07.38-14.15.37.08.37.08.38.07.37.08.38.08.37.07.37.08.38.08.37.07.38.08.37.07.37.08.38.07.37.08.38.07.37.08.37.07.38.08.37.07.38.07.37.08.37.07.38.07.37.08.37.07.38.07.37.07.38.08.37.07.37.07.38.07.37.07.38.07.37.08.37.07.38.07.37.07.38.07.37.07.37.07.38.07.37.07.37.07.38.07.37.07.38.07.37.07.37.06.38.07.37.07.38.07.37.07.37.07.38.06.37.07.38.07.37.07.37.06.38.07.37.07.38.06.37.07.37.07.38.06.37.07.37.07.38.06.37.07.38.06.37.07.37.07.38.06.37.06.38.07.37.06.37.07.38.06.37.07.38.06.37.06.37.07.38.06.37.07.37.06.38.06.37.07.38.06.37.06.37.06.38.07.37.06.38.06.37.07.37.06.38.06.37.06.38.06.37.06.37.06.38.06.37.07.38.06.37.06.37.06.38.06.37.06.37.06.38.06.37.06.38.06.37.06.37.06.38.06.37.06.38.06.37.06.37.06.38.05.37.06.38.06.37.06.37.06.38.06.37.06.37.06.38.05.37.06.38.06.37.06.37.05.38.06.37.06.38.06.37.05.37.06.38.06.37.05.38.06.37.06.37.05.38.06.37.06.37.05.38.06.37.05.38.06.37.05.37.06.38.06.37.05.38.05.37.06.37.06.38.05.37.06.38.05.37.06.37.05.38.05.37.06.38.05.37.05.37.06.38.05.37.06.37.05.38.05.37.06.38.05.37.05.37.06.38.05.37.05.38.05.37.06.37.05.38.05.37.06.38.05.37.05.37.05.38.05.37.06.37.05.38.05.37.05.38.05.37.06.37.05.38.05.37.05.38.05.37.05.37.05.38.05.37.05.38.05.37.05.37.05.38.05.37.05.38.05.37.06.37.04.38.05.37.05.37.05.38.05.37.05.38.05.37.05.37.05.38.05.37.05.38.05.37.05.37.05.38-13.76.37.06.38.05.37.05.37.04.38.06.37.05.37.04.38.05.37.05.38.05.37.05.37.05.38.05.37.05.38.05.37.05.37.05.38.05.37.04.38.05.37.05.37.05.38.05.37.05.38.04.37.05.37.05.38.05.37.05.37.04.38.05.37.05.38.05.37.05.37.04.38.05.37.05.38.04.37.05.37.05.38.04.37.05.38.05.37.05.37.04.38.05.37.04.37.05.38.05.37.04.38.05.37.05.37.04.38.05.37.04.38.05.37.05.37.04.38.05.37.04.38.05.37.04.37.05.38.04.37.05.38.04.37.05.37.04.38.05.37.04.37.05.38.04.37.05.38.04.37.05.37.04.38.04.37.05.38.04.37.05.37.04.38.05.37.04.38.04.37.05.37.04.38.04.37.05.37.04.38.04.37.05.38.04.37.04.37.04.38.05.37.04.38.05.37.04.37.04.38.04.37.05.38.04.37.04.37.04.38.05.37.04.38.04.37.04.37.04.38.05.37.04.37.04.38.04.37.05.38.04.37.04.37.04.38.04.37.04.38.04.37.05.37.04.38.04.37.04.38.04.37.04.37.04.38.04.37.04.37.05.38.04.37.04.38.04.37.04.37.04.38.04.37.04.38.04.37.04.37.04.38.04.37.04.38.04.37.04.37.04.38.04.37.04.38.04.37.04.37.04.38.04.37.04.37.04.38.04.37.04.38.04.37.04.37.04.38.04.37.03.38.04.37.04.37.04.38.04.37.04.38.04.37.04.37.04.38.04.37.03.37.04.38.04.37.04.38.04.37.04.37.03.38.04.37.04.38.04.37.04.37.03.38.04.37.04.38.04.37.04.37.03.38.04.37.04.38.04.37.03.37.04.38.04.37.04.37.04.38.03.37.04.38.03.37.04.37.04.38.04.37.03.38.04.37.04.37.04.38.03.37.04.38.04.37.03.37.04.38.03.37.04.37.04.38.03.37.04.38.04.37.03.37.04.38.04.37-13.48.38.04.37.04.37.03.38.04.37.04.38.04.37.03.37.04.38.04.37.03.38.04.37.04.37.03.38.04.37.04.37.03.38.04.37.04.38.03.37.04.37.03.38.04.37.04.38.03.37.04.37.04.38.03.37.04.38.03.37.04.37.03.38.04.37.04.37.03.38.04.37.03.38.04.37.03.37.04.38.03.37.04.38.04.37.03.37.04.38.03.37.04.38.03.37.04.37.03.38.04.37.03.38.04.37.03.37.04.38.03.37.03.37.04.38.03.37.04.38.03.37.04.37.03.38.04.37.03.38.04.37.03.37.03.38.04.37.03.38.04.37.03.37.03.38.04.37.03.37.04.38.03.37.03.38.04.37.03.37.04.38.03.37.03.38.04.37.03.37.03.38.04.37.03.38.03.37.04.37.03.38.03.37.04.38.03.37.03.37.04.38.03.37.03.37.04.38.03.37.03.38.03.37.04.37.03.38.03.37.04.38.03.37.03.37.03.38.04.37.03.38.03.37.03.37.04.38.03.37.03.37.03.38.03.37.04.38.03.37.03.37.03.38.03.37.04.38.03.37.03"/><use xlink:href="#b" color="#00C853" transform="matrix(3.75 0 0 3.75 113.62 74.3)"/><use xlink:href="#b" color="#00C853" transform="matrix(3.75 0 0 3.75 220.55 7.51)"/></g><text fill="#000" stroke="none" stroke-linecap="round" stroke-linejoin="round" color="#000" font-family="KaTeX_Main" font-size="8" transform="translate(241.1 25.11)"><tspan>RedBlackRelaxedTopDown</tspan></text><g fill="none" stroke="currentColor" stroke-linecap="round" stroke-linejoin="round" color="#000"><path stroke="#FFAB00" stroke-dasharray="4.5,2.0,0.5,2.0,0.5,2.0" d="M205.6 22.51h29.9M28 105.41l.37 33.13.38 49.4.37.33.38-32.27.37-32.21.37 32.92.38 32.85.37-32.16.38.34.37 16.53.37.31.38-48.2.37.35.37 16.49.38-15.8.37 48.68.38-31.91.37.32.37 32.45.38-47.89.37 32.4.38-31.76.37 32.34.37-31.72.38 16.29.37.29.38-31.64.37 48.15.37-47.54.38 63.99.37-31.57.37 32.07.38.24.37-15.63.38.25.37-31.45.37 31.94.38 16.07.37-31.41.38.26.37-15.55.37.25.38 47.57.37.22.38-47.04.37.25.37 31.7.38-31.21.37 31.65.38 15.91.37-46.85.37.23.38-31.1.37 15.9.37 47.18.38-31.07.37 47.1.38.19.37-31.02.37-15.39.38 46.98.37-15.39.38-46.52.37 46.9.37-30.91.38.21.37 15.74.38-15.34.37-30.83.37 31.24.38 15.69.37-15.3.37 31.16.38-15.29.37.18.38-15.27.37-30.71.37 61.97.38-30.7.37-15.24.38 15.61.37-15.22.37-15.22.38-15.19.37 77.13.38-15.22.37.17.37.17.38.17.37.16.38-45.85.37 46.18.37 15.48.38-15.16.37-15.15.37 15.47.38-15.14.37-30.41.38 76.58.37-45.68.37.16.38 30.68.37-45.61.38.16.37 30.64.37-30.31.38.16.37.16.38 15.37.37-30.26.37.17.38 76.12.37-30.24.37.14.38-30.2.37 15.31.38-30.17.37 30.47.37 30.44.38-15.02.37-15 .38-30.11.37 45.52.37-30.1.38-30.08.37 75.68.38-45.17.37-14.95.37 45.41.38-14.95.37-14.94.38-14.93.37.14.37 15.2.38.14.37-14.91.37 15.18.38.14.37-75.02.38 120.36.37.12.37-14.9.38 15.13.37-44.9.38 15.13.37 30.11.37.11.38.12.37-29.85.38.12.37-29.8.37 30.05.38 30.03.37-14.84.37.11.38-29.77.37 15.06.38 15.05.37-44.67.37 44.89.38.11.37-14.8.38-29.7.37 44.82.37-14.78.38-44.56.37 59.67.38-29.66.37 29.87.37.1.38-14.75.37-14.76.38.12.37 29.81.37.11.38-29.58.37.11.37-29.56.38 14.95.37 44.58.38-14.72.37 14.92.37-14.7.38.1.37.1.38-14.69.37.11.37 14.89.38-29.47.37 29.67.38-29.45.37 14.88.37-29.43.38 44.4.37-14.66.37 29.61.38.09.37-44.14.38 29.59.37-14.64.37-14.63.38 14.83.37 14.82.38.1.37-14.62.37.1.38-29.32.37 73.62.38-29.31.37.09.37-14.6.38-29.27.37 44.15.38.09.37-14.58.37-14.58.38 14.77.37-14.57.37-29.23.38 44.07.37 29.4.38.09.37.08.37-58.48.38 14.74.37.09.38 14.73.37 29.34.37-14.54.38-29.15.37-29.14.38 29.33.37 14.69.37-43.72.38 43.9.37.09.37-29.1.38 43.86.37-29.09.38.09.37-14.48.37 14.66.38 14.66.37-29.05.38-29.03.37 29.22.37 14.65.38-29.02.37 87.39.38-14.48.37-29.01.37 29.17.38-14.46.37.08.38-28.98.37 29.13.37-28.96.38 43.64.37-14.45.37.08.38-14.43.37-28.93.38 72.59.37-14.42.37-14.43.38.08.37-14.41.38 14.56.37-43.37.37 29.04.38 14.55.37-43.34.38 14.56.37-14.39.37 14.54.38 57.92.37-28.84.37.07.38.07.37-14.37.38-14.37.37 14.52.37 28.94.38-14.36.37-28.79.38-14.35.37 28.93.37-28.77.38 14.5.37.07.38 28.9.37-43.16.37.08.38 14.48.37.08.38-14.32.37 14.47.37-14.32.38-28.7.37 57.63.37-14.32.38-28.68.37-14.3.38 43.2.37 14.45.37.07.38 14.43.37-28.66.38 28.79.37 14.43.37-14.29.38-28.64.37-14.28.38-14.27.37 43.1.37-28.61.38 57.42.37-28.61.37-14.26.38-14.26.37 28.73.38-28.59.37-14.24.37 28.71.38 28.69.37-28.56.38.07.37-14.24.37-14.23.38.07.37 42.97.38 14.36.37-14.23.37-14.23.38.07.37-28.5.38 57.2.37-42.78.37 28.62.38-28.48.37.06.37 14.34.38-28.47.37 42.87.38-14.21.37 14.33.37-42.71.38 28.58.37.06.38-28.43.37 42.81.37-42.67.38.07.37 28.54.38.06.37-28.4.37-14.16.38 85.44.37.05.37.06.38.05.37-14.16.38 14.27.37-56.8.37 56.91.38-14.16.37-14.14.38 14.26.37-28.35.37-28.34.38 71.05.37-28.33.38 14.25.37-14.14.37 14.25.38 14.23.37-14.12.38.05.37.05.37-42.47.38.07.37 28.4.37 14.22.38-42.44.37 42.55.38.05.37 14.22.37-14.11.38-14.1.37-28.25.38 14.21.37 28.35.37-42.38.38 42.49.37-28.23.38-14.08.37.06.37-28.21.38 70.72.37.05.37-28.2.38.05.37.06.38-14.06.37-28.18.37 70.64.38-14.06.37-28.17.38.05.37-14.05.37.06.38 42.37.37.05.38 14.15.37.05.37-14.04.38-28.13.37 14.14.38 42.32.37-42.21.37 14.14.38 14.13.37-14.03.37-14.02.38-42.17.37 70.42.38-28.1.37-14.01.37 42.25.38-14.01.37-42.14.38 28.18.37.05.37 28.16.38-42.11.37 14.11.38.05.37-14 .37-42.08.38 98.36.37-28.04.37.05.38 14.09.37-28.02.38-28.02.37 42.15.37-13.98.38 14.07.37-13.97.38-13.98.37.06.37 14.07.38 14.06.37-27.98.38 14.07.37-27.97.37.05.38 28.06.37-13.95.38 28.06.37-13.96.37-27.95.38-27.94.37 56.04.37-13.94.38-27.94.37 70 .38-13.94.37-13.94.37 28.02.38.04.37-27.91.38 14.02.37 14.02.37-27.9.38 14.02.37-13.93.38.05.37.05.37-13.92.38 27.98.37 14 .37-27.87.38 14 .37-27.86.38-13.91.37 27.95.37.05.38.05.37-13.9.38 13.99.37-27.84.37-13.89.38 41.87.37.04.38.05.37 13.98.37.04.38-41.74.37 27.9.37 13.97.38 13.97.37-41.73.38-13.87.37 27.89.37-13.88.38-13.87.37 41.79.38-27.78.37 13.96.37-13.87.38.05.37 13.95.38-27.76.37 27.85.37-41.66.38 41.75.37-13.86.38-27.74.37 27.83.37-27.73.38 55.6.37-13.84.37 13.92.38 13.93.37-13.84.38-13.84.37.04.37.05.38.04.37-13.83.38 27.79.37-13.83.37-27.7.38 41.65.37.04.38.04.37-27.68.37 13.9.38.04.37-13.81.37.04.38.04.37-13.8.38-41.51.37 69.29.37-41.5.38 13.89.37 41.58.38.04.37-27.64.37-41.47.38 55.39.37.04.38-41.46.37 27.71.37-13.79.38 27.7.37-13.78.38.04.37-27.61.37.05.38 55.32.37-13.78.37-27.59.38 13.86.37-13.77.38-27.58.37.04.37 41.47.38.05.37-13.77.38.04.37-41.36.37 41.45.38 55.24.37.03.38.04.37-13.76.37.04.38-27.55.37 27.62.37.04.38-13.75.37.04.38-27.53.37 27.61.37.04.38-13.74.37 27.59.38-13.74.37-13.74.37 41.36.38-13.73.37.03.38-41.27.37 27.58.37-13.73.38 13.81.37-13.73.38-13.72.37.04.37-27.48.38 55.07.37.04.37.04.38.04.37.03.38.04.37.04.37.03.38 13.78.37-41.19.38 27.52.37-41.18.37.04.38 41.26.37.03.38-13.7.37.04.37.04.38 13.77.37-27.42.37 27.49.38-27.42.37 13.77.38-13.69.37.04.37 27.48.38-54.84.37 82.35.38-27.4.37.03.37-13.67.38 41.17.37-27.39.38-13.67.37 13.74.37-13.67.38 27.45.37.03.38.03.37-41.06.37-13.66.38 54.82.37-13.66.37-27.35.38 13.73.37 27.42.38-27.35.37 27.42.37-41.03.38.03.37-13.64.38 13.72.37 27.4.37-54.69.38 41.08.37-13.64.38 13.71.37.04.37 13.71.38-13.64.37.03.37 13.71.38-27.31.37 27.38.38-27.3.37.03.37 13.7.38-27.29.37 27.36.38 27.36.37-40.95.37.04.38-13.62.37.04.38 54.65.37-13.62.37-13.62.38.04.37-13.62.38-40.9.37.04.37 95.54.38-13.61.37.03.37-40.88.38 27.31.37 27.3.38-27.24.37.03.37.04.38-13.6.37 27.29.38-13.6.37-27.22.37 27.29.38.03.37.03.38-13.59.37 27.28.37-13.59.38.03.37-40.82.37 27.27.38 27.26.37-40.81.38 27.26.37-13.58.37-27.18.38-13.58.37 68.07.38-13.57.37-13.57.37-13.57.38.03.37.03.38 27.24.37 13.62.37-40.76.38-13.56.37 27.23.38-13.56.37-13.56.37 54.39.38-27.14.37.03.37-27.14.38.03.37 27.2.38-27.13.37 13.62.37.03.38.03.37-27.12.38 13.61.37-13.54.37-13.54.38 81.48.37-27.12.38.03.37 13.6.37-13.53.38-27.11.37 13.6.37.04.38 40.72.37-27.1.38 13.6.37-13.53.37-27.09.38 67.82.37-40.64.38-13.53.37.04.37 13.58.38-27.07.37 27.13.38.03.37-13.51.37.03.38-27.06.37 27.12.38.03.37-13.51.37 40.66.38-13.51.37.03.37-40.58.38 54.18.37-13.51.38-27.04.37 40.63.37-40.56.38 13.56.37 27.09.38-27.03.37-13.49.37.03.38.03.37 13.56.38 13.55.37-13.49.37.03.38.03.37-40.52.37 27.07.38 27.06.37-27 .38.03.37-13.48.37.03.38-13.48.37 81.09.38.03.37-13.48.37 13.53.38-26.98.37 13.53.38.03.37 13.53.37.03.38-13.47.37.02.38.03.37-13.46.37 13.52.38.02.37-13.46.37.03.38 13.52.37.03.38-13.46.37-40.44.37 67.46.38.03.37-13.46.38.03.37-26.94.37.04.38 40.46.37-13.45.38 13.5.37-13.45.37.03.38.03.37-13.45.37 13.5.38-13.44.37-13.44.38 40.43.37-13.44.37-26.9.38.02.37 26.96.38.03.37.02.37.03.38.03.37-13.43.38.02.37 13.49.37-13.43.38.02.37.03.38-13.42.37-26.87.37-13.43.38 67.28.37 13.48.37-26.87.38 13.47.37.03.38-26.86.37.02.37 13.47.38.03.37.03.38-13.41.37.03.37.02.38 13.47.37.02.38 13.46.37-40.27.37 40.32.38.03.37-13.4.37.02.38-13.4.37 13.46.38.02.37-13.39.37.02.38-26.81.37 26.87.38 13.45.37 13.44.37-40.23.38 53.7.37-13.39.38-40.22.37 53.68.37-26.8.38-40.21.37 53.67.38-13.38.37-26.79.37.03.38 26.84.37-26.79.37 26.84.38 13.43.37-13.38.38-26.78.37.03.37 13.43.38 13.42.37-26.76.38 13.42.37-13.37.37-26.76.38 93.78.37-13.37.38.03.37.02.37-13.36.38.02.37-26.75.37 13.41.38 13.41.37.03.38 26.79.37-40.13.37 13.41.38-26.74.37 40.17.38-13.36.37-13.35"/><use xlink:href="#g" color="#FFAB00" transform="matrix(3.75 0 0 3.75 171.2 172.45)"/><use xlink:href="#g" color="#FFAB00" transform="matrix(3.75 0 0 3.75 220.55 22.51)"/></g><path fill="none" stroke="none" stroke-linecap="round" stroke-linejoin="round" stroke-width="0" d="M28 45.01V205M371.99 45.01H28" color="#000"/></svg>