<svg xmlns="http://www.w3.org/2000/svg" xmlns:xlink="http://www.w3.org/1999/xlink" viewBox="0 0 400 250"><path fill="none" d="M0 0h400v250H0z"/><defs><use xlink:href="#a" id="g" fill="currentColor" stroke="none"/><use xlink:href="#b" id="h" fill="currentColor" stroke="none"/><use xlink:href="#b" id="c" stroke="currentColor" transform="rotate(180)"/><use xlink:href="#d" id="e" stroke="currentColor" transform="rotate(45)"/><path id="d" stroke="currentColor" stroke-width=".267" d="M-1-1h2v2h-2z"/><path id="b" stroke="currentColor" stroke-width=".267" d="m0-1.33-1.33 2h2.66z"/><path id="f" stroke="currentColor" stroke-width=".267" d="M0 1.33 1.265.411.782-1.067l-1.564-.009-.483 1.487z"/><circle id="a" cx="0" cy="0" r="1" stroke="currentColor" stroke-width=".267"/></defs><path fill="none" stroke="#000" stroke-linecap="round" stroke-linejoin="round" stroke-width=".1" d="M35.48 205V45.01" class="gridline" color="#000"/><g fill="none" stroke="none" stroke-linecap="round" stroke-linejoin="round" stroke-width="0" color="#000"><path d="M35.48 205v-7.5m0-152.49v7.5"/><text fill="#000" font-family="KaTeX_Main" font-size="10" text-anchor="middle" transform="translate(35.48 215.75)"><tspan> 1</tspan></text></g><path fill="none" stroke="#000" stroke-linecap="round" stroke-linejoin="round" stroke-width=".1" d="M72.87 205V45.01" class="gridline" color="#000"/><g fill="none" stroke="none" stroke-linecap="round" stroke-linejoin="round" stroke-width="0" color="#000"><path d="M72.87 205v-7.5m0-152.49v7.5"/><text fill="#000" font-family="KaTeX_Main" font-size="10" text-anchor="middle" transform="translate(72.87 215.75)"><tspan> 2</tspan></text></g><path fill="none" stroke="#000" stroke-linecap="round" stroke-linejoin="round" stroke-width=".1" d="M110.26 205V45.01" class="gridline" color="#000"/><g fill="none" stroke="none" stroke-linecap="round" stroke-linejoin="round" stroke-width="0" color="#000"><path d="M110.26 205v-7.5m0-152.49v7.5"/><text fill="#000" font-family="KaTeX_Main" font-size="10" text-anchor="middle" transform="translate(110.26 215.75)"><tspan> 3</tspan></text></g><path fill="none" stroke="#000" stroke-linecap="round" stroke-linejoin="round" stroke-width=".1" d="M147.65 205V45.01" class="gridline" color="#000"/><g fill="none" stroke="none" stroke-linecap="round" stroke-linejoin="round" stroke-width="0" color="#000"><path d="M147.65 205v-7.5m0-152.49v7.5"/><text fill="#000" font-family="KaTeX_Main" font-size="10" text-anchor="middle" transform="translate(147.65 215.75)"><tspan> 4</tspan></text></g><path fill="none" stroke="#000" stroke-linecap="round" stroke-linejoin="round" stroke-width=".1" d="M185.04 205V45.01" class="gridline" color="#000"/><g fill="none" stroke="none" stroke-linecap="round" stroke-linejoin="round" stroke-width="0" color="#000"><path d="M185.04 205v-7.5m0-152.49v7.5"/><text fill="#000" font-family="KaTeX_Main" font-size="10" text-anchor="middle" transform="translate(185.04 215.75)"><tspan> 5</tspan></text></g><path fill="none" stroke="#000" stroke-linecap="round" stroke-linejoin="round" stroke-width=".1" d="M222.43 205V45.01" class="gridline" color="#000"/><g fill="none" stroke="none" stroke-linecap="round" stroke-linejoin="round" stroke-width="0" color="#000"><path d="M222.43 205v-7.5m0-152.49v7.5"/><text fill="#000" font-family="KaTeX_Main" font-size="10" text-anchor="middle" transform="translate(222.43 215.75)"><tspan> 6</tspan></text></g><path fill="none" stroke="#000" stroke-linecap="round" stroke-linejoin="round" stroke-width=".1" d="M259.82 205V45.01" class="gridline" color="#000"/><g fill="none" stroke="none" stroke-linecap="round" stroke-linejoin="round" stroke-width="0" color="#000"><path d="M259.82 205v-7.5m0-152.49v7.5"/><text fill="#000" font-family="KaTeX_Main" font-size="10" text-anchor="middle" transform="translate(259.82 215.75)"><tspan> 7</tspan></text></g><path fill="none" stroke="#000" stroke-linecap="round" stroke-linejoin="round" stroke-width=".1" d="M297.21 205V45.01" class="gridline" color="#000"/><g fill="none" stroke="none" stroke-linecap="round" stroke-linejoin="round" stroke-width="0" color="#000"><path d="M297.21 205v-7.5m0-152.49v7.5"/><text fill="#000" font-family="KaTeX_Main" font-size="10" text-anchor="middle" transform="translate(297.21 215.75)"><tspan> 8</tspan></text></g><path fill="none" stroke="#000" stroke-linecap="round" stroke-linejoin="round" stroke-width=".1" d="M334.6 205V45.01" class="gridline" color="#000"/><g fill="none" stroke="none" stroke-linecap="round" stroke-linejoin="round" stroke-width="0" color="#000"><path d="M334.6 205v-7.5m0-152.49v7.5"/><text fill="#000" font-family="KaTeX_Main" font-size="10" text-anchor="middle" transform="translate(334.6 215.75)"><tspan> 9</tspan></text></g><path fill="none" stroke="#000" stroke-linecap="round" stroke-linejoin="round" stroke-width=".1" d="M371.99 205V45.01" class="gridline" color="#000"/><g fill="none" stroke="none" stroke-linecap="round" stroke-linejoin="round" stroke-width="0" color="#000"><path d="M371.99 205v-7.5m0-152.49v7.5"/><text fill="#000" font-family="KaTeX_Main" font-size="10" text-anchor="middle" transform="translate(371.99 215.75)"><tspan> 10</tspan></text></g><g fill="none" stroke="none" stroke-linecap="round" stroke-linejoin="round" stroke-width="0" color="#000"><path d="M371.99 205h-7.5"/><text fill="#000" font-family="KaTeX_Main" font-size="10" transform="translate(378.99 208.25)"><tspan>0.60</tspan></text></g><g fill="none" stroke="none" stroke-linecap="round" stroke-linejoin="round" stroke-width="0" color="#000"><path d="M371.99 182.14h-7.5"/><text fill="#000" font-family="KaTeX_Main" font-size="10" transform="translate(378.99 185.39)"><tspan>0.80</tspan></text></g><g fill="none" stroke="none" stroke-linecap="round" stroke-linejoin="round" stroke-width="0" color="#000"><path d="M371.99 159.29h-7.5"/><text fill="#000" font-family="KaTeX_Main" font-size="10" transform="translate(378.99 162.54)"><tspan>1.00</tspan></text></g><g fill="none" stroke="none" stroke-linecap="round" stroke-linejoin="round" stroke-width="0" color="#000"><path d="M371.99 136.43h-7.5"/><text fill="#000" font-family="KaTeX_Main" font-size="10" transform="translate(378.99 139.68)"><tspan>1.20</tspan></text></g><g fill="none" stroke="none" stroke-linecap="round" stroke-linejoin="round" stroke-width="0" color="#000"><path d="M371.99 113.58h-7.5"/><text fill="#000" font-family="KaTeX_Main" font-size="10" transform="translate(378.99 116.83)"><tspan>1.40</tspan></text></g><g fill="none" stroke="none" stroke-linecap="round" stroke-linejoin="round" stroke-width="0" color="#000"><path d="M371.99 90.72h-7.5"/><text fill="#000" font-family="KaTeX_Main" font-size="10" transform="translate(378.99 93.97)"><tspan>1.60</tspan></text></g><g fill="none" stroke="none" stroke-linecap="round" stroke-linejoin="round" stroke-width="0" color="#000"><path d="M371.99 67.87h-7.5"/><text fill="#000" font-family="KaTeX_Main" font-size="10" transform="translate(378.99 71.12)"><tspan>1.80</tspan></text></g><g fill="none" stroke="none" stroke-linecap="round" stroke-linejoin="round" stroke-width="0" color="#000"><path d="M371.99 45.01h-7.5"/><text fill="#000" font-family="KaTeX_Main" font-size="10" transform="translate(378.99 48.26)"><tspan>2.00</tspan></text></g><path fill="none" stroke="none" stroke-linecap="round" stroke-linejoin="round" stroke-width="0" d="M28 45.01V205M371.99 45.01H28" color="#000"/><text fill="#000" stroke="none" stroke-linecap="round" stroke-linejoin="round" stroke-width="0" color="#000" font-family="KaTeX_Main" font-size="10" text-anchor="middle" transform="rotate(-90 68.255 56.755)"><tspan font-weight="bold">Duration </tspan><tspan> in milliseconds</tspan></text><text fill="#000" stroke="none" stroke-linecap="round" stroke-linejoin="round" stroke-width="0" color="#000" font-family="KaTeX_Main" font-size="10" text-anchor="middle" transform="translate(199.99 238.25)"><tspan>Operations / 10</tspan><tspan dy="-5" font-size="8">6</tspan></text><text fill="#000" stroke="none" stroke-linecap="round" stroke-linejoin="round" color="#000" font-family="KaTeX_Main" font-size="8" transform="translate(132.8 10.11)"><tspan>LBSTBottomUp</tspan></text><g fill="none" stroke="currentColor" stroke-linecap="round" stroke-linejoin="round" color="#000"><path stroke="#3B75EA" d="M97.3 7.51h29.9M28 177.16l.37 10.03.38-10.39.37-11.19.38 10.06.37-10.85.37 20.99.38-20.66.37 9.81.38 10.87.37-10.13.37 9.77.38-10.84.37-10.82.37-.01.38 9.4.37.39.38-.39.37.21.37 10.81.38-10.82.37 10.27.38-21.14.37-.56.37-.35.38 20.84.37-10.55.38-.18.37.08.37 10.36.38-10.66.37.25.37-11.5.38 10.18.37-10.74.38 20.86.37-20.92.37 10.7.38 10.06.37-10.32.38 10.06.37-10.45.37-11.23.38.14.37 9.41.38.03.37-.11.37.2.38 10.82.37-10.57.38 10.48.37-32.78.37 21 .38-10.7.37 21.07.37-21.58.38 10.58.37 10.65.38-10.31.37 10.43.37-10.73.38-11.79.37.13.38 10.01.37 1.11.37-1.08.38.37.37 10.9.38-11 .37 10.94.37-32.44.38 21.01.37-11.47.37 21.81.38-21.35.37 10.43.38 10.84.37-10.52.37 10.17.38-10.35.37-22.3.38 10.39.37 20.64.37-19.89.38 9.41.37 11.02.38.13.37-10.61.37-.03.38-11.57.37.22.38 9.93.37.85.37-.98.38.71.37 10.7.37-11.12.38 10.93.37-32.56.38 20.86.37-11.15.37 21.66.38-21.55.37 10.5.38 11.42.37-11.28.37 11.26.38-21.63.37-1.32.38-.26.37 22.16.37-21.49.38 10.06.37 11.14.37-10.31.38 9.52.37-9.64.38-11.66.37.25.37 10.29.38.3.37-11.83.38 21.96.37.58.37-10.66.38-.6.37-11.19.38-.41.37 10.63.37.9.38-11.41.37 20.91.38.5.37-10.52.37 10.84.38-32.72.37 10.26.37 9.6.38 1.94.37-1.45.38-.04.37 11.63.37-10.96.38 10.4.37-32.78.38 21.84.37-11.29.37 21.65.38-22.05.37 10.64.38 11.35.37-10.39.37 10.21.38-32.29.37 20.4.37-10.44.38 22.05.37-21.89.38 10.12.37 11.53.37-10.25.38 10.19.37-31.92.38 20.34.37-11.14.37 22.17.38-21.66.37 10.29.38 11.36.37-10.9.37 10.44.38-31.63.37 19.56.38-9.77.37 21.29.37-22.03.38 10.86.37 10.94.37-10.32.38 10.38.37-31.28.38 19.73.37-10.69.37 21.91.38-21.25.37 9.93.38 11.4.37-11.14.37 10.87.38-31.26.37 19.14.38-10.78.37 22.14.37-21.64.38 10.55.37 11.2.37-11.76.38 10.86.37-30.69.38 19.7.37-11.49.37 22.24.38-21.09.37 10.02.38 11.57.37-10.66.37 10.79.38-31.68.37 19.79.38-10.91.37 22.38.37-21.78.38 9.94.37 11.41.38-10.57.37 10.9.37-33.06.38 11.03.37 9.32.37 11.58.38-31.68.37 30.96.38 1.07.37-11.03.37 10.85.38-32.21.37 9.81.38 10.35.37 11.4.37-32.83.38 32.79.37.29.38-11.17.37 10.8.37-32.75.38 10.43.37 11.23.37.27.38-11.52.37 21.62.38.39.37-10.62.37 10.33.38-32.56.37 10.3.38 10.63.37.24.37-10.94.38 21.51.37.67.38-10.67.37.09.37-12.68.38 1.13.37 10.43.38-10.06.37 9.53.37 11.17.38.59.37-11.03.37.01.38-11.5.37-11.54.38 33 .37-21.44.37 10.46.38 11.1.37.45.38-10.87.37-10.62.37 9.55.38-22.1.37 33.32.38-32.61.37 31.6.37 1.2.38-11.2.37 10.09.37-31.55.38 9.93.37 10.93.38 11.07.37-32.88.37 32.58.38.12.37-10.79.38 11.14.37-32.73.37 10.05.38 10.5.37.66.38-12.03.37 22.7.37.21.38-11.13.37 10.81.38-32.62.37 10.68.37 10.61.38-10.53.37 9.9.37 11.33.38.25.37-10.52.38.34.37-11.91.37-11.37.38 32.76.37-31.31.38 30.73.37 1.04.37.14.38-10.95.37-10.52.38-11.5.37 20.74.37 11.33.38-32.74.37 32.06.37 1.02.38-10.67.37 10.35.38-32.05.37 9.81.37 10.54.38.77.37-12.09.38 22.65.37.03.37-11.19.38.9.37-11.81.38-11.11.37 32.39.37-21.26.38 9.45.37 11.62.38.53.37-10.63.37-.88.38-20.81.37 9.47.37 21.79.38-32.49.37 32.46.38.6.37-10.45.37 10.16.38-31.71.37 9.48.38 11.26.37 11.19.37-34.42.38 33.32.37.71.38-10.4.37 10.53.37-32.86.38.06.37 31.8.37-21.11.38 9.74.37 11.97.38.05.37-10.7.37.37.38-22.33.37 9.63.38 21.82.37-32.02.37 31.99.38.38.37-9.41.38 9.63.37-32.2.37 9.98.38 10.71.37 11.23.38-33.08.37 32.86.37.03.38-10.49.37 11.27.37-34.1.38.62.37 32.5.38-32.19.37 31.33.37.76.38-.3.37-10.1.38-11.33.37-1.27.37.61.38 21.83.37-32.83.38 32.65.37.53.37-10.72.38 10.62.37-32.09.37 9.63.38 11.62.37-10.92.38 9.62.37 11.94.37.31.38-11.21h.37l.38-11.67.37-10.68.37 32.55.38-32.67.37 32.39.38.88.37-.18.37-10.34.38-11.42.37-11.34.38 20.95.37 11.92.37-33.1.38 32.48.37.25.37-10.47.38 9.97.37-31.8.38-.25.37 31.89.37-31.94.38 31.19.37 1.15.38.3.37-11.05.37-10.29.38-1.57.37-.26.38 22.64.37-33.34.37 32.56.38.62.37-10.52.37 10.35.38-32.09.37 10.25.38 10.12.37-20.69.37 31.03.38 1.58.37-.56.38-10.64.37-9.63.37-2.15.38.2.37 21.97.38-31.89.37 31.69.37-.18.38.68.37-10.93.38-21.54.37 10.12.37 9.76.38-19.94.37 31.1.37 1.04.38-.1.37-10.63.38.11.37-22.66.37 11.1.38 21.6.37-32.61.38 32.41.37.35.37.12.38-10.82.37-21.3.38 9.23.37 11.59.37-20.82.38 30.17.37 1.14.37.45.38-10.28.37 10.07.38-43.52.37 20.88.37 21.74.38-32.44.37 32.29.38.82.37.05.37-11.33.38-20.69.37 9.58.38 10.9.37-21.13.37 31.01.38.93.37.29.37-10.62.38 10.87.37-43.9.38 20.43.37 22.68.37-32.3.38 31.75.37.74.38.23.37-10.67.37-21.17.38 9.23.37 10.63.38-20.34.37 30.22.37 1.48.38.79.37-11.65.38 11.34.37-43.66.37 20.75.38 22 .37-32.5.37 31.92.38.88.37.28.38-11.39.37-20.74.37 9.12.38 10.96.37-21.02.38 31.11.37 1.4.37.01.38-10.69.37.33.38-22.54.37 10.53.37 21.49.38-32.95.37 33.24.37.2.38.57.37-11.31.38-21.07.37 9.35.37 11.5.38-21.25.37 31.5.38.22.37.3.37-10.6.38-10.46.37-1.29.38.57.37 21.62.37-32.88.38 32.45.37.73.38.35.37-11.81.37-32.16.38 20.87.37 21.25.37-31.51.38 31.54.37.99.38.15.37-11.01.37-10.83.38-.57.37-.35.38.64.37 9.06.37 12.52.38-.37.37-10 .38 10.38.37-43.79.37 20.52.38 22.78.37-32.77.37 32.21.38.85.37.44.38-11.58.37-10.53.37-11.23.38 21.93.37-11.12.38 9.17.37 12.1.37.78.38-10.71.37-.64.38-21.84.37 10.94.37 21.8.38-33.78.37 32.73.38.94.37.2.37-10.78.38-32.33.37 20.53.37 21.15.38-32.11.37 32.63.38.49.37-.01.37-10.15.38-11.37.37-1.58.38.54.37.73.37 9.6.38 11.37.37.5.38-10.26.37 10.49.37-43.87.38 21.52.37 21.83.37-32.9.38 31.95.37.67.38.69.37-11.37.37-10.82.38-11.02.37 21.1.38-21 .37 30.97.37 1.72.38-.57.37-10.01.38-.12.37-22.88.37 11.21.38 10.89.37-11.59.38 21.53.37.87.37.48.38-10.5.37-32.93.37 20.97.38 21.58.37-32.02.38 32.08.37.48.37-.32.38-10.73.37-10.63.38-11.53.37 21.62.37-10.48.38 9.89.37 11.27.38.54.37-10.66.37.43.38-23.33.37 11.11.37 10.88.38-11.38.37 22.32.38.34.37.18.37-10.76.38-32.64.37 20.75.38 21.65.37-32.06.37 31.74.38.56.37.18.38-10.72.37-10.53.37-1.95.38.98.37-.02.38 10.03.37 12 .37.15.38-10.22.37-.75.37-22.29.38 10.88.37 11.62.38-11.46.37 21.66.37.5.38-.02.37-10.79.38-32.48.37 20.36.37 22.43.38-32.9.37 32.26.38.94.37-.42.37-10.36.38-10.82.37-.54.37-.87.38.55.37 10.48.38 11.1.37.61.37-10.26.38-.95.37-21.93.38 10.59.37.46.37 9.61.38 11.53.37.57.38.01.37-10.13.37-32.71.38 20.63.37 11.06.38-11.65.37 22.27.37.41.38-.34.37-10.3.37-21.18.38 8.53.37 11.61.38-21.32.37 31.97.37-.12.38.98.37-10.87.38-.3.37-21.41.37 10.3.38.53.37 9.79.38 11.37.37.54.37.18.38-10.83.37-33.37.37 21.37.38 11.58.37-11.55.38 21.53.37.54.37-.48.38-9.73.37-22.29.38-.74.37 32.35.37-32.33.38 32.35.37.38.38.29.37-10.49.37-10.54.38-1.85.37.73.38.08.37 10.52.37 10.94.38.66.37-10.65.37-.49.38-21.48.37 10.08.38.42.37 9.83.37 10.76.38.86.37.1.38-10.47.37-32.49.37 21.04.38 10.41.37-10.68.38 21.96.37.12.37.01.38-10.12.37-22.37.37-.44.38 32.16.37-31.6.38 31.72.37.58.37.03.38-10.97.37-10.41.38-.97.37.46.37-.29.38 11.15.37 10.73.38-.45.37 1.13.37-22.48.38-11.03.37 10.48.38.39.37 10.42.37 11.06.38-.04.37.06.37-10.7.38-32.22.37 20.63.38 10.5.37-10.07.37 21.56.38.29h.37l.38-10.16.37-22.25.37-.91.38 21.61.37-10.95.38 21.61.37 1.05.37.18.38-10.15.37-11.83.37-.51.38-.79.37.25.38 11.19.37 11.26.37.41.38.49.37-21.83.38-11.91.37 10.36.37.08.38 10.7.37 11.34.38-.11.37.44.37-10.87.38-32.9.37 21.55.38 11.4.37-11.31.37 21.17.38.36.37.36.37-10.76.38-21.84.37.13.38 20.38.37-9.59.37 20.81.38.8.37.31.38-11.11.37-21.06.37 9.36.38.77.37 10.15.38.27.37 11.09.37-.07.38-10.8.37-10.9.37-.43.38-.36.37-.05.38 10.21.37 12.13.37.2.38.01.37-21.5.38-11.61.37 10.39.37.51.38 10.3.37 11.55.38.46.37-.36.37-11.08.38-22.36.37-.31.38 21.92.37-10.13.37 21.01.38.95.37-.39.37-10.76.38-21.93.37.9.38 19.97.37-10.22.37 21.53.38.61.37-.2.38-10.63.37-10.57.37-12.32.38 11.39.37 10.09.38.66.37 11.32.37-.23.38-10.2.37-11.93.37-16.74.38-30 .37 19.28.38 17.28.37-.63.37 17.13.38 1.5.37-32.24.38-.68.37 10.52"/><use xlink:href="#a" color="#3B75EA" transform="matrix(3.75 0 0 3.75 342.45 137.59)"/><use xlink:href="#a" color="#3B75EA" transform="matrix(3.75 0 0 3.75 112.25 7.51)"/></g><text fill="#000" stroke="none" stroke-linecap="round" stroke-linejoin="round" color="#000" font-family="KaTeX_Main" font-size="8" transform="translate(132.8 25.11)"><tspan>LBSTTopDown</tspan></text><g fill="none" stroke="currentColor" stroke-linecap="round" stroke-linejoin="round" color="#000"><path stroke="#F44336" stroke-dasharray="4.5,2.0,0.5,2.0,0.5,2.0" d="M97.3 22.51h29.9M28 172.94l.37-.8.38 20.7.37-20.62.38 10.04.37 10.89.37-21 .38 9.98.37 9.99.38.31.37-21.66.37-.44.38 21.4.37-21.89.37 10.49.38 10.28.37-20.78.38 9.17.37 11.35.37-21.28.38 20.75.37-21.58.38 10.83.37-10.87.37 20.88.38.32.37-21.24.38 9.55.37 11.23.37-21.56.38 10.17.37-.6.37-10.5.38 10.25.37 10.99.38-20.78.37 9.21.37 10.94.38-.14.37-21.5.38-.97.37 11.5.37-11.97.38 22.16.37.09.38-22.26.37 10.81.37 11.23.38-21.84.37 10.62.38-1.16.37-10.31.37 10.33.38 11.44.37-21.08.37 9.1.38 11.34.37-9.9.38-1.42.37-11.43.37 11.29.38-10.91.37 21.29.38.61.37-22.1.37 10.25.38 11.53.37-22.19.38-.25.37 21.43.37-21.42.38 10.68.37 10.96.37-22.18.38 10.53.37 11.05.38-21.74.37 20.98.37-21.94.38.16.37 10.65.38 10.82.37-21.46.37 10.16.38 11.18.37-20.88.38 19.75.37-21.62.37 11.08.38-10.84.37 21.19.38.47.37-21.99.37 10.43.38 11.2.37-21.71.37-.66.38 11.18.37-.47.38-.15.37 11.19.37-21.81.38 10.33.37 11.28.38-21.88.37-.53.37 21.68.38-22.06.37 11.12.38 10.82.37-21.47.37 9.96.38 10.85.37-20.78.37 21.14.38-22.42.37.09.38 10.84.37 10.98.37-21.67.38 10 .37 11.04.38-20.68.37 20.69.37-22.57.38.48.37 10.89.38 10.9.37-20.71.37 8.72.38 11.4.37-20.66.38 20.47.37-21.59.37.47.38 9.83.37 11.06.37-10.48.38-11.36.37 21.44.38-20.64.37 20.44.37-22.06.38.62.37 10.04.38 10.37.37 1.23.37-22.34.38 10.87.37-9.89.38 19.88.37-21.8.37.81.38 9.86.37 10.73.37 1.23.38-22.37.37 10.57.38-9.98.37 20.36.37-21.57.38.35.37 10.06.38 10.96.37.81.37-22.2.38 10.56.37-10.03.38 20.26.37-20.96.37-.34.38 10.74.37 10.57.38.61.37-22.13.37 10.53.38-9.48.37 20.22.37-21.74.38.51.37 10.13.38 11.04.37-.37.37-21.39.38 11.03.37-10.51.38 20.33.37-21.75.37.87.38 10.01.37 10.88.38-.09.37-22.24.37 11.24.38-10.47.37 21.35.37-21.55.38-.52.37 10.26.38 11.68.37-.11.37-32.35.38 31.67.37-21.04.38 21.16.37-21.66.37-.78.38 11.28.37 10.67.38-20.71.37 9.34.37 11.29.38-21.37.37 21.29.38-21.59.37-.23.37 10.54.38 11.4.37-21.88.37 10.36.38 10.99.37-21.65.38 10.57.37.15.37-10.74.38 10.52.37 11.29.38-21.79.37 10.38.37 10.75.38-21.57.37 10.71.38-11.19.37 10.03.37.92.38 10.83.37-22.12.37 10.87.38.62.37-1 .38-10.28.37 10.48.37-.5.38.04.37 11.41.38-21.95.37 10.4.37-10.07.38 20.49.37-20.64.38-.67.37 10.39.37 10.53.38.99.37-22.16.38 10.43.37-10.32.37 21.57.38-22.17.37-.09.37 10.94.38 11.14.37-20.94.38 9.34.37 10.97.37-21.25.38 10.52.37-.19.38-11.38.37 11.29.37 10.87.38-21.4.37 10.27.38 10.7.37-21.43.37 10.94.38-10.88.37 10.15.37.25.38 11.01.37-21.61.38 10.38.37-10.1.37 20.53.38-21.14.37-.13.38 10.43.37 10.29.37 1.04.38-21.63.37 9.8.38-10.19.37 21.34.37-21.33.38-.39.37 10.62.38 11.43.37-21.15.37 9.51.38 10.49.37-20.9.37 10.81.38-.15.37-11.53.38 11.34.37 10.84.37-21.53.38 10.06.37.84.38-1.24.37.75.37-20.7.38 30.67.37-10.32.38 11.25.37-22.02.37 10.94.38-10.99.37 21.09.37-20.77.38-.77.37 10.6.38 11.18.37.03.37-21.18.38 9.56.37-10.14.38 11.28.37-1.38.37-10.33.38 10.91.37 10.63.38-21.36.37 10.62.37.33.38-.6.37.68.38-22.09.37 31.64.37-10.81.38 11.34.37-21.88.37 10.62.38-10.78.37 21.59.38-21.16.37-.98.37 10.97.38 11.41.37.13.38-21.81.37 10.57.37-11.48.38 11.44.37-.14.38-11.6.37 11.34.37 11.37.38-22.01.37 10.35.37-10.32.38 21.17.37-10.61.38-22.24.37 32.13.37-10.3.38 11.26.37-21.97.38 10.85.37-10.89.37 21.53.38-21.67.37-.7.38 11.04.37 11.16.37-10.33.38-11.76.37 10.79.38-.42.37.61.37-20.96.38 30.68.37-10.23.37 11.19.38-21.21.37 10.17.38-10.89.37 21.52.37-20.97.38-.72.37 10.78.38 10.81.37.68.37-22.53.38 10.87.37-10.81.38 11.12.37-.62.37-11.23.38 11.28.37 10.88.37-21.47.38 10.38.37-10.37.38 20.87.37-9.98.37-22.19.38 32.25.37-10.76.38 11.24.37-21.72.37 10.52.38-11.11.37 11.46.38-.53.37-11.35.37 11.57.38 10.69.37-21.35.38 9.81.37-10.13.37 20.45.38-10.12.37-21.14.37 31.58.38-10.87.37 11.48.38-22.06.37 10.35.37-11.16.38 22.31.37-23.78.38 1.63.37 11.23.37 10.66.38-20.76.37 9.66.38-10.87.37 21.26.37-9.75.38-21.66.37 31.37.37-10.13.38 10.9.37-21.18.38 9.85.37-10.89.37 21.92.38-21.38.37-1.11.38 11.25.37 10.94.37-10 .38-11.46.37-.29.38 21.43.37-10.22.37-21.78.38 32 .37-10.6.38 10.87.37-21.57.37 10.62.38-11.12.37 11.24.37-.01.38-11.57.37 11.26.38 10.36.37-9.83.37-11.41.38-.42.37 21.62.38-10.78.37-21.44.37 31.63.38-9.85.37 10.77.38-21.93.37 10.72.37-11.09.38 10.94.37-.06.37-11.39.38 11.39.37 10.43.38-20.58.37 9.13.37-10.16.38 21.15.37-10.62.38-21.36.37 32.29.37-10.82.38 11.2.37-21.48.38-.41.37 10.19.37.71.38-.41.37-10.95.37 10.97.38 10.71.37-20.85.38 9.59.37-10.75.37 21.74.38-10.46.37-21.64.38 32.07.37-10.46.37 11.45.38-22.58.37.64.38 10.11.37-.49.37-20.35.38 30.49.37-9.3.38 10.44.37-20.95.37 9.86.38-11.07.37 21.76.37-10.25.38-22.46.37 21.12.38 11.69.37.45.37-22.4.38-10.49.37 31.32.38-9.69.37-21.91.37 31.98.38-10.67.37 11.15.38-21.53.37-.22.37 9.92.38 1.15.37-.17.37-11.91.38 11.61.37 10.56.38-9.83.37-.98.37-21.84.38 32.81.37-10.66.38-21.97.37 32.45.37-11.35.38 11.39.37-22.25.38.6.37 10.11.37.62.38-21.29.37 30.94.38-9.86.37 10.62.37-20.71.38 10.04.37-11.49.37 22.04.38-10.48.37-22.84.38 22.78.37 10.27.37.52.38-21.8.37-11.4.38 32.38.37-10.24.37-21.95.38 31.82.37-10.56.38 11.57.37-21.77.37.06.38 9.94.37.74.37.05.38-11.86.37 11.51.38 10.67.37-10.07.37-11.75.38-.05.37 21.78.38-10.58.37-22.02.37 32.2.38-10.25.37 10.86.38-21.53.37-11.18.37 32.12.38-10.52.37-21.77.38 31.66.37-9.73.37 10.52.38-21.51.37-.13.37 10.01.38.17.37 10.76.38-32.84.37 22.26.37 10.72.38-10.35.37-.54.38-21.58.37 32.08.37-9.94.38-22.57.37 32.43.38-10.41.37 11.19.37-21.8.38-11.11.37 31.49.37-9.5.38-21.63.37 30.76.38-9.03.37 10.33.37-21.12.38-.67.37 10.15.38 1.06.37 10.25.37-32.95.38 22.36.37 10.54.38-10.3.37-1.35.37-21.05.38 32.7.37-11.19.38-21.93.37 32.8.37-10.65.38 10.47.37-21.03.37-11.31.38 31.97.37-9.97.38-21.79.37 31.26.37-9.9.38 10.95.37-21.46.38-.08.37 10.02.37.28.38.74.37-11.69.38 11.24.37 10.4.37-9.72.38-1.05.37-22.06.37 32.92.38-10.84.37-21.74.38 32.34.37-10.36.37 10.8.38-21.19.37-11.59.38 32.29.37-10.33.37-21.92.38 31.61.37-10.06.38 10.85.37-21.81.37-.44.38 10.64.37.22.38-9.95.37 9.89.37.27.38 10.87.37-10.57.37-11.01.38-1.12.37 22.34.38-10.42.37-22.61.37 22.57.38 10.35.37.33.38-21.42.37-11.5.37 32.56.38-10.63.37-21.79.38 32.08.37-10.81.37 11.6.38-21.8.37-11.32.37 32.22.38-10.45.37-21.49.38 31.07.37-10.21.37 11.64.38-21.28.37-.78.38 10.56.37.49.37-10.41.38 9.28.37.7.38 11.15.37-10.12.37-11.87.38-.46.37 22.39.38-11.11.37-22.09.37 32.4.38-10.49.37 11.04.37-21.25.38-11.98.37 33 .38-11.45.37-20.95.37 31.62.38-10.24.37 11.08.38-21.68.37-12.01.37 33.29.38-10.41.37-21.45.38 31.23.37-10.19.37 10.85.38-21.33.37-.47.37 10.02.38.76.37-10.27.38 9.17.37.9.37 10.82.38-9.79.37-11.78.38-.79.37 22.73.37-11.47.38-22.05.37 32.76.38-10.04.37 10.43.37-21.18.38-11.67.37 32.49.38-11.38.37-20.6.37 31.57.38-10.05.37 10.73.37-21.4.38-11.49.37 31.96.38-9.98.37-21.69.37 31.41.38-9.63.37 10.63.38-20.85.37-12.28.37 32.32.38-10.49.37-10.39.38 10.12.37.5.37 11 .38-10.54.37-11.66.37-.5.38 12.09.37-.39.38-11.53.37 11.45.37 10.31.38.5.37-33.04.38 10.73.37 21.78.37-10.89.38-21.09.37 31.91.38-10.76.37 11.17.37-32.22.38 9.4.37 22.43.38-10.57.37-21.99.37 31.86.38-10.27.37 11.12.37-21.51.38-11.76.37 32.11.38-9.88.37-11.47.37 10.71.38-.03.37 11.29.38-10 .37-33.8.37 43.11.38-10.16.37-11.59.38 10.33.37 1.41.37 10.37.38-9.45.37-12.65.37.1.38 11.4.37-.1.38-11.75.37 11.79.37 10.5.38.89.37-33.2.38 10.17.37 22.42.37-11.22.38-22.12.37 32.78.38-10.82.37 11.54.37-32.18.38 9.54.37 21.96.38-10.36.37-21.92.37 32.12.38-10.74.37 11.33.37-21.48.38-11.84.37 32.83.38-10.97.37-10.99.37 11.09.38.57.37 9.95.38-20.35.37-12.17.37 32.37.38-13.01.37-8.7.38 10.7.37.47.37 10.87.38-10.15.37-22.5.37 20.97.38.84.37-11.55.38 10.6.37.49.37 10.99.38.15.37-32.37.38 10.21.37 11.91.37-.33.38-13.07.37 13.11.38 10.33.37.52.37-32.89.38 9.86.37 22.4.38-10.96.37-21.79.37 32.81.38-10.86.37 11.22.37-32.39.38 9.25.37 22.59.38-10.08.37-23.16.37 32.7.38-10.18.37 10.92.38-32.32.37 9.5.37 22.22.38-10.18.37-11.83.38 11.24.37.32.37 10.72.38-31.41.37 8.94.37 21.88.38-10.16.37-11.34.38 10.31.37 1.36.37 10.1.38-9.76.37-23.07.38 21.92.37.04"/><use xlink:href="#g" color="#F44336" transform="matrix(3.75 0 0 3.75 56.04 182.27)"/><use xlink:href="#g" color="#F44336" transform="matrix(3.75 0 0 3.75 112.25 22.51)"/></g><text fill="#000" stroke="none" stroke-linecap="round" stroke-linejoin="round" color="#000" font-family="KaTeX_Main" font-size="8" transform="translate(241.1 10.11)"><tspan>WBSTBottomUp</tspan></text><g fill="none" stroke="currentColor" stroke-linecap="round" stroke-linejoin="round" color="#000"><path stroke="#000" d="M205.6 7.51h29.9M28 186.04l.37-21.09.38 10.01.37-.86.38-10.82.37-.03.37 10.78.38 10.37.37.13.38-10.57.37 10.55.37-32.03.38 20.66.37-10.7.37-1.28.38 10.93.37 10.32.38.4.37.12.37-10.98.38.14.37-12.21.38 10.61.37-10.66.37-.79.38 10.85.37 11.03.38-.36.37-10.27.37 10.5.38-31.79.37 19.91.37-10.9.38-.25.37 11.02.38 10.34.37.13.37-.22.38-10.93.37-20.11.38 30.07.37-10.91.37-11.06.38.03.37 10.86.38 10.51.37.23.37-11.17.38 10.75.37-32.29.38 20.93.37-10.98.37-.4.38 10.99.37 9.69.37 1.4.38-10.76.37 9.72.38-32.6.37 21.54.37-.34.38-22.13.37 21.79.38 10.57.37.83.37-.29.38-10.74.37-21.84.38 31.51.37-10.74.37-32.66.38 42.92.37-11.19.37 11.41.38-.13.37-10.34.38-.7.37-11.42.37 11.01.38-11.47.37-.15.38 11.55.37 10.24.37.47.38-10.07.37-.43.38-12.12.37 10.82.37-10.75.38-.92.37 11.25.38 11.28.37.46.37-10.91.38-.07.37-12.37.37 10.89.38-11.02.37-.83.38 11.23.37 11.03.37.29.38.34.37-21.69.38-.79.37 10.2.37-10.13.38-.79.37 11.3.38 10.49.37.05.37.6.38-22.29.37-.25.37 9.97.38.45.37-22.87.38 22.62.37 9.99.37 1.17.38-.12.37-21.67.38-1.26.37 10.79.37.02.38-22.2.37 21.98.38 10.7.37-.08.37.63.38-21.76.37-.35.38 10.27.37-.03.37-22.39.38 22.27.37 10.48.37.18.38.37.37-22.27.38-.76.37 10.96.37.19.38-22.25.37 21.83.38 10.77.37 1.11.37-.52.38-21.39.37-1.52.38 11.13.37-10.15.37-2.43.38 12.65.37 10.28.37.38.38.44.37-21.9.38-.75.37 10.98.37-21.16.38 20.01.37 1.03.38 10.63.37.4.37.11.38-22.46.37.48.38 10.52.37-22.67.37 21.29.38.96.37 10.75.38.48.37-10.39.37-11.95.38 10.63.37-.35.37-32.57.38 42.6.37-10.05.38 11.02.37-.09.37-21.17.38 9.61.37.81.38-.8.37-32.89.37 43.4.38-10.54.37 10.77.38.19.37-21.47.37-.49.38 21.3.37-10.92.37-33.84.38 43.63.37-10.34.38 11.62.37-.37.37-21.57.38-.3.37 11.18.38.03.37-23.52.37 23.25.38 9.93.37.59.38-10.23.37-1.49.37-10.17.38 10.28.37-21.35.38 19.82.37 1.05.37 11.04.38.5.37-10.79.37-11.26.38 10.23.37-.07.38-32.65.37 43.16.37-10.09.38 10.55.37.23.38-21.79.37 10.81.37-.71.38.65.37-33.58.38 43.26.37-10.63.37 10.76.38-10.06.37-.5.37-11.23.38 10.93.37.57.38-23.45.37 22.75.37 10.5.38 1 .37-10.85.38-11.33.37 10.62.37-.17.38-32.44.37 41.92.38-9.65.37 10.58.37.06.38-21.26.37 10.23.38.76.37-.63.37-33.82.38 43.49.37-9.82.37 10.94.38-10.17.37-1.13.38-10.65.37 10.19h.37l.38-22.62.37 22.85.38 10.69.37.06.37-10.49.38-10.85.37 10.64.38-.67.37-32.83.37 42.48.38-9.61.37 11.25.37-10.85.38-.11.37-.58.38.66.37-11.15.37-11.98.38 33.06.37-11.53.38 11.23.37-10.65.37-.13.38-10.96.37 10.54.38-9.81.37-2.13.37 11.96.38 10.7.37.24.38-10.48.37-11.36.37 10.62.38.11.37-32.56.37 42.07.38-9.36.37 10.29.38-10.35.37-.35.37-.87.38-9.64.37 10.52.38-23.53.37 33.6.37-10.38.38 11.19.37-11.52.38-10.51.37 10.61.37-1.09.38-32.18.37 42.63.37-9.77.38 10.89.37-10.72.38 11.03.37-21.95.37 11.14.38-11.47.37-11.08.38 32.27.37-11.12.37 1.27.38 10.03.37-21.52.38 10.51.37-.12.37-10.59.38-1.43.37 11.57.38 10.91.37-11.12.37 11.1.38-21.05.37 9.87.37-10.47.38-10.85.37 31.88.38-10.55.37.88.37 10.49.38-20.74.37 20.76.38-22.15.37-.03.37-.97.38 11.88.37 11.19.38-11.47.37 11.26.37-22.26.38 11.24.37-11.05.37-10.99.38 32.26.37-11.23.38.29.37 11.07.37-20.97.38 20.79.37-21.61.38-.44.37-.17.37 10.76.38 11.27.37-10.53.38 10.95.37-21.43.37 9.57.38-10.68.37-11.2.38 32.62.37-11.04.37.66.38 10.65.37-21.59.37 21.14.38-21.23.37-.15.38-.78.37 11.22.37 10.98.38-11.2.37 11.2.38-21.54.37 10.82.37-11.26.38-10.84.37 32.09.38-11 .37.31.37 11.22.38-21.25.37 20.79.37-32.48.38 21.17.37-10.87.38 11.12.37-.13.37 11.14.38.28.37-22.36.38.7.37-.8.37-.7.38 21.94.37-10.11.38-.53.37 10.88.37-21.38.38 10.68.37-11.3.38 10.62.37-11.74.37 12.1.38.19.37 10.5.37-10.23.38-.85.37-10.42.38-.36.37-.85.37 11.2.38.28.37 11.26.38-.38.37-21.41.37 11.17.38-11.73.37-10.12.38 31.14.37-10.58.37.35.38 10.99.37-20.33.37 19.44.38-30.86.37 20.39.38-10.87.37 10.46.37.26.38 11.47.37-.2.38-22.08.37.94.37-1.47.38-.01.37 21.36.38-20.91.37 20.73.37 1.23.38-21.64.37 10.53L200 125l.37 10.71.37-10.09.38 10.1.37.49.37 10.98.38-10.62.37-.44.38-22.02.37 20.91.37-9.87.38 9.57.37.8.38 11.27.37-.1.37-21.56.38 11.07.37-22.65.38 11.27.37 20.79.37-21.17.38 21.46.37.23.37-20.99.38 21.05.37-32.42.38 20.46.37-10.22.37 9.94.38.59.37 11.22.38-10.2.37-.27.37-21.95.38 20.4.37-9.78.38 10.52.37-.46.37 12.04.38-.03.37-21.57.37 10.55.38-21.96.37 11.02.38 19.65.37-20.07.37 21.97.38-.03.37-21.42.38 20.66.37-31.78.37 21.55.38-11.4.37.32.38 20.98.37.74.37-10.37.38-.57.37-21.65.38 21.03.37-10.17.37 9.75.38-.12.37 11.68.37.54.38-22.35.37 11.14.38-22.33.37 11.16.37 20.92.38-21.53.37 22.13.38.25.37-21.43.37 20.77.38-32.57.37 21.75.38-11.56.37-.21.37 22.56.38.46.37-10.88.37-.74.38-21.4.37 21.01.38-9.78.37-.9.37 21.51.38 1.05.37-11.05.38-1.06.37-19.95.37 20.18.38-10.28.37 20.96.38-22.16.37 22.38.37.45.38-21.58.37 21.55.38-43.24.37 42.75.37-21.72.38-.52.37 22.04.37.75.38-11.33.37.24.38-22.45.37 22.08.37-10.98.38-.11.37 21.2.38-.02.37-9.76.37-.33.38-21.81.37 20.87.38-10.35.37 10.76.37-.67.38 11.47.37-10.51.37.29.38-21.07.37 19.31.38 1.31.37-10.66.37 9.38.38 12.06.37.25.38-21.77.37 21.57.37-44.1.38 42.71.37-20.58.38-.91.37 22.21.37.59.38-10.74.37-.82.38-21.72.37 21.52.37-10.52.38-.38.37 21.85.37.7.38-11.5.37.43.38-21.95.37 20.9.37-9.97.38 9.33.37-.18.38 11.83.37-10 .37-.19.38-22 .37 21.15.38.66.37-12.05.37 10.55.38 11.19.37-9.08.37-.8.38-.26.37-22.23.38 32.61.37-32.3.37 21.06.38 11.85.37-.16.38-11.57.37.53.37-33.03.38 43.37.37-31.76.38 20.15.37 11.88.37.06.38-10.63.37-.42.38-21.64.37 21.06.37-20.72.38 20.21.37 11.43.37.75.38-11.46.37.61.38-21.28.37 20.31.37-9.91.38 9.78.37.75.38 10.76.37-10.24.37-1.01.38-20.75.37 20.25.38 11.45.37-32.41.37 21.7.38 10.82.37-10.94.37 11.03.38-22.44.37-10.73.38 32.54.37-32.95.37 21.89.38 11.01.37.81.38-12.08.37-9.83.37-11.69.38 32.58.37-32.74.38 21.84.37 10.69.37.93.38-11.34.37.22.38-22.59.37 22.61.37-22.44.38 21.48.37 11.13.37-.11.38-10.29.37-.02.38-21.97.37 21.39.37-21.09.38 30.81.37-10.44.38 11.84.37-11.4.37.41.38-21.22.37 19.86.38-8.87.37 8.3.37 1.37.38 10.67.37-10.13.37.15.38-11.66.37-.26.38 11.77.37-11.92.37 11.19.38 10.35.37-9.86.38 10.15.37-20.78.37-12.01.38 22.74.37-12.19.38 11.04.37 10.77.37-9.41.38 10.27.37-21.07.38-11.65.37 31.82.37-31.9.38 21.15.37 11.05.37.22.38-10.7.37-10.76.38-11.91.37 32.85.37-32.09.38 21.54.37 10.3.38.68.37-11.28.37-9.92.38-11.38.37 32.03.38-32.46.37 20.67.37 11.52.38.14.37-11.07.37-10.53.38-.08.37 9.66.38-9.25.37 9.61.37.69.38 11.41.37-10.71.38.43.37-11.8.37-.7.38 10.86.37-11.13.38 11.3.37 11.22.37-10.46.38 10.88.37-33.19.38 10.9.37 10.74.37-11.2.38 10.97.37 10.89.37-10.34.38 11.3.37-33.24.38 10.8.37 10.65.37-10.7.38 10.61.37 11.13.38-10.24.37 10.58.37-22.37.38-11.17.37 21.92.38-10.58.37 10.1.37 11.24.38-10.66.37 10.33.37-21.05.38-11.47.37 21.21.38-11.17.37 11.13.37 10.75.38-10.41.37 10.76.38-21.37.37-11.05.37 21.41.38-10.35.37 10.71.38 10.04.37-9.28.37 10.18.38-21.48.37-10.97.38 21.04.37-9.88.37 9.36.38 11.5.37-9.96.37 10.26.38-21.1.37-11.48.38 20.66.37 1.28.37-11.92.38 21.36.37 1.04.38-10.98.37-10.38.37-11.91.38 20.96.37.85.38-11.39.37 22.05.37.32.38-10.64.37-10.41.37-.97.38-.52.37 11.62.38.03.37.16.37 10.84.38-10.98.37 1.01.38-22.13.37 9.78.37 21.8.38-22.22.37 11.3.38 11.33.37-10.54h.37l.38-21.9.37 9.52.38 23.22.37-21.8.37 10.39.38 10.64.37-10.29.37.11.38-11.12.37-12.2.38 33.52.37-21.84.37 11.01.38 11.36.37-11.41.38.2.37-10.33.37-12.38.38 33.25.37-21.77.38 10.96.37 10.61.37-10.65.38-.11.37-11.31.37-11.27.38 33.35.37-21.48.38 10.53.37 10.88.37-10.26.38-.54.37-11.24.38-11.24.37 33.11.37-21.93.38 10.42.37 11.44.38-10.47.37.08.37-10.95.38-11.32.37 32.2.38-21.2.37 10.52.37 11.28.38-11.19.37.57.37-11.04.38-12.86.37 34.03.38-22.79.37 11.18.37 11.79.38-11.69.37 1.14.38-11.41.37-12.14.37 33.57.38-21.31.37 10.16.38 11.56.37-10.57.37.23.38-11.21.37-11.86.37 32.83.38-20.83.37 9.47.38 11.38.37-9.91.37-.17.38-10.86.37-12.47.38 33.47.37-21.79"/><use xlink:href="#b" transform="matrix(3.75 0 0 3.75 113.62 147.82)"/><use xlink:href="#b" transform="matrix(3.75 0 0 3.75 220.55 7.51)"/></g><text fill="#000" stroke="none" stroke-linecap="round" stroke-linejoin="round" color="#000" font-family="KaTeX_Main" font-size="8" transform="translate(241.1 25.11)"><tspan>WBSTTopDown</tspan></text><g fill="none" stroke="currentColor" stroke-linecap="round" stroke-linejoin="round" color="#000"><path stroke="#29C3F6" stroke-dasharray="4.0,2.0,1.0,2.0" d="M205.6 22.51h29.9M28 171.16l.37 21.45.38-10.54.37-.55.38-10.39.37 20.7.37.16.38-21.69.37-.23.38 20.97.37-21.62.37 21.11.38-20.57.37 20.37.37-21.19.38 20.99.37-10.47.38-12.29.37 11.05.37-9.86.38 20 .37-10.54.38.23.37-10.43.37 19.79.38.62.37-21.53.38-.55.37 21.44.37-21.28.38 21.02.37-21.98.37 21.25.38-21.9.37 22.38.38-10.62.37-12 .37 10.38.38-10.21.37 20.88.38-10.22.37-.7.37-11.11.38 21.6.37-10.07.38-1.34.37-10.71.37 21.44.38-21.67.37 11.09.38-.55.37.2.37-.84.38 11.33.37-21.86.37-.3.38 21.46.37-21.94.38 21.55.37-21.25.37 20.58.38-21.45.37 21.98.38-10.91.37-10.93.37 9.67.38.91.37-.74.38-.12.37.22.37-11.24.38 21.81.37-10.26.37-1.53.38-10.98.37 11.33.38-.26h.37l.37.03.38-11.15.37 21.37.38-9.9.37-1.77.37-10.57.38 22.24.37-22 .38 10.45.37-.54.37-10.68.38 21.71.37.37.38-22.3.37-.1.37 21.92.38-21.72.37 10.61.37-.28.38-10.69.37 20.88.38.38.37-10.74.37-22.08.38 32.22.37-21.41.38 10.29.37.12.37-10.41.38 20.4.37.61.38-10.28.37-22.07.37 31.82.38-21.57.37 10.77.37.39.38-11.1.37 20.84.38.69.37-10.45.37-22.83.38 32.39.37-21.25.38 10.39.37.23.37-10.96.38 20.65.37 1.11.38-11.22.37-22.02.37 31.63.38-20.5.37 10.23.38.3.37-11.58.37 20.82.38 1.23.37-10.77.37-22.5.38 32.08.37-21.18.38 10.32.37.46.37-11.2.38 21.04.37.65.38-10.39.37-22.7.37 32.32.38-20.43.37 9.46.38.67.37-11.25.37 21.1.38.65.37-11.11.37-21.44.38 31.53.37-21.01.38 10.61.37-.1.37-11.29.38 21.64.37-10.03.38 10.26.37-33.26.37 32.11.38-21.12.37 10.36.38.2.37-11.09.37 21.56.38-10.07.37-.18.38-11.65.37 21.69.37-21.14.38 10.27.37.32.37-12.34.38 22.69.37-10.3.38-.43.37-11.54.37 22.33.38-21.53.37 10.11.38.22.37-11.46.37 22.48.38-10.74.37-.89.38-11.36.37 22.27.37-32.75.38 32.2.37-31.99.37 31.63.38.4.37-10.21.38-1.14.37-12.01.37 12.44.38-11.78.37 22.68.38-33.1.37 32.12.37.99.38-11.27.37-21.96.38 31.97.37-21.06.37 10.41.38.17.37-11.53.38 22.07.37-10.56.37 10.53.38-32.71.37 32.1.37-21.3.38 10.38.37.64.38-11.98.37 22.24.37-10.56.38-.37.37-10.45.38 21.06.37-32.39.37 32.15.38-31.9.37 31.27.38.78.37-10.83.37-.38.38-11.89.37 12.98.37-13.09.38 22.6.37-33.21.38 32.64.37-9.79.37 10.25.38-32.54.37 32.14.38-21.19.37 9.94.37.26.38-11.07.37 21.85.38-10.52.37 10.56.37-32.99.38 32.92.37-32.71.38 31.85.37-31.46.37 30.98.38.83.37-10.34.37.36.38-11.83.37 21.87.38-33.21.37 32.39.37-32.23.38 32.21.37-9.96.38 10.58.37-21.71.37 10.25.38-9.98.37 9.88.38.21.37-11.34.37 21.85.38-10.63.37 10.83.37-32.11.38 31.43.37-32.17.38 32.55.37-32.9.37 31.72.38 1.4.37-11.47.38.63.37-11.56.37 22.13.38-32.74.37 31.82.38-32.36.37 32.41.37-10.18.38 9.8.37-31.62.38 31.47.37-31.69.37 31.52.38-31.78.37 31.48.37.24.38-10.04.37.32.38-11.71.37 21.74.37-33.03.38 33.18.37-32.86.38 32.03.37-10.02.37 10.65.38-21.02.37 9.13.38-9.58.37 9.42.37-9.58.38 9.34.37 11.47.37-10.11.38 10.52.37-33.01.38 32.79.37-33.05.37 31.85.38-31.96.37 32.64.38-10.74.37 10.29.37-9.81.38-11.76.37 11.23.38-12.27.37 1.54.37 9.08.38 11.99.37-10.99.38 11.28.37-32.81.37 31.93.38-32.16.37 31.77.37-32.26.38 32.52.37-9.75.38 10.03.37-10.54.37-11.61.38 11.88.37-11.98.38 11.44.37-11.81.37 22.12.38-10.6.37 11.36.38-32.34.37 31.09.37-31.9.38 32.08.37-32.92.37 32.57.38-10.08.37 10.22.38-10.67.37-11.52.37 11.84.38-11.72.37 11.14.38-11.38.37 22.15.37-10.73.38 11.22.37-32.44.38 31.29.37-32.02.37 32.07.38-31.83.37 31.35.38-9.94.37 10.6.37-9.86.38-12.43.37 11.48.37-11.25.38.32.37 9.55.38 11.47.37-10.44.37 10.77.38-31.86.37 31.36.38-31.36.37 31.6.37-33.07.38 32.76.37-10.22.38 10.42.37-10.45.37-11.75.38 11.46.37-11.79.37-9.95.38 31.38.37.96.38-11.05.37 11.19.37-32.2.38 31.52.37-32.45.38 32.19.37-32.89.37 32.51.38-10.23.37 10.78.38-20.71.37 8.97.37.9.38-11.3.37-10.05.38 30.86.37.98.37-11.11.38 11.16.37-32.55.37 21.48.38-10.47.37 10.58.38-12.59.37 22.67.37-10.32.38 11.06.37-21.51.38 10.07.37-10.46.37 10.19.38-21.88.37 32.58.38-10.21.37 10.12.37.71.38-33.07.37 21.96.37-11.22.38.67.37 9.64.38 11.44.37-10.82.37 11 .38-21.05.37 9.64.38-21.36.37 31.68.37-32.57.38 32.82.37-10.7.38 10.86.37-10 .37-12.06.38 11.33.37-11.13.38-10.15.37 31.98.37-10.48.38 10.4.37.47.37-32.35.38 20.32.37-10.69.38.15.37 10.08.37 11.83.38-11.02.37 10.6.38-22.22.37 11.11.37-10.14.38 9.9.37-21.74.38 32.69.37-10.15.37 10.34.38.49.37-33.99.37 22.69.38-11.23.37-10.91.38 31.62.37-9.79.37 10.34.38.86.37-33.47.38 22.11.37-10.44.37-.19.38 9.57.37 12.04.38-10.32.37 10.51.37-21.77.38 9.82.37 1.09.37-22.14.38 9.97.37 22.1.38-10.48.37 10.97.37.29.38-33.82.37 22.18.38-10.96.37-10.75.37 32.17.38-10.08.37 10.63.38-.2.37-32.53.37 20.92.38-9.35.37-1.25.38 10.51.37 11.57.37-10.76.38 10.65.37-21.12.37-1.11.38 22.06.37-32.57.38 10.23.37 21.88.37-10.31.38 11.01.37-.01.38-33.22.37 21.83.37-10.44.38-11.15.37 31.73.38-9.7.37 10.1.37.68.38-33.03.37 21.39.37-10.29.38-.95.37 10.82.38 11.68.37-11.28.37 11.67.38-22.1.37-.31.38 21.73.37-43.08.37 31.31.38 11.2.37-10.76.38 11.12.37-10.43.37-23.16.38 32.9.37-31.69.38 10.17.37 21.38.37-10.3.38 10.67.37.61.37-33.52.38 21.89.37-10.45.38-1.23.37 11.32.37-.01.38 11.39.37-.05.38-22.37.37.28.37.89.38-1.51.37 10.94.38 11.23.37-10.88.37 11.02.38-21.22.37-1.04.37 22.12.38-43.78.37 32.29.38 11.11.37-10.59.37 10.54.38 1.4.37-45.09.38 43.29.37-31.7.37 9.75.38 21.97.37-10.48.38 10.95.37.14.37-32.51.38 20.65.37-10.26.38-.73.37 11.28.37.17.38 10.65.37.3.37-21.32.38-.5.37 11.34.38-22.98.37 21.3.37 1.09.38 10.22.37.65.38-21.27.37-1.5.37 22.85.38-44.05.37 32.27.38 11.32.37-11 .37 11.32.38-.68.37-42.78.37 43.38.38-33.66.37 10.78.38 22.17.37-11.04.37 11.46.38.22.37-42.82.38 41.54.37-31.45.37 9.75.38 21.63.37-9.65.38 10.35.37.28.37-21.57.38-1.19.37-8.87.38 19.15.37.67.37.6.38 10.28.37.77.37-21.89.38-.98.37 22.79.38-44.38.37 32.26.37.95.38 10.01.37 1.12.38-10.92.37-22.49.37 32.39.38-43.68.37 32.63.38 11.18.37-10.93.37 11.88.38-.2.37-43.86.37 41.71.38-41.34.37 31.29.38 10.8.37-9.77.37 10.72.38.25.37-42.73.38 41.51.37-31.34.37 10.2.38 21.03.37-9.97.38 10.81.37.26.37-32.61.38 21.09.37-20.62.38 19.67.37.49.37.68.38 10.34.37.7.37-21.92.38-.94.37 12.27.38-22.91.37 21.43.37 1.06.38 9.85.37.55.38-9.91.37-23.71.37 33.76.38-43.78.37 31.81.38.96.37 10.37.37.52.38-10.59.37-23.15.37 33.38.38-43.26.37 32.3.38 10.8.37-11.2.37 11.64.38.33.37-44.95.38 43.65.37-42.32.37 31.06.38 11.5.37-10.9.38 10.72.37.49.37-33.1.38 22.13.37-31.72.38 30.66.37 10.69.37-9.57.38 10.45.37.7.37-33.02.38 20.77.37-30.59.38 40.2.37-9.89.37.74.38 10.62.37.01.38-31.82.37 20 .37 1.35.38-22.18.37 21.71.38.1.37 10.41.37.81.38-21.72.37-1.52.37 11.78.38-23.05.37 22.66.38.43.37 10.62.37.16.38-10.2.37-23 .38 22.16.37-22.05.37 21.91.38-.23.37 10.93.38 1.13.37-11.14.37-22.54.38 22.06.37-22.57.38 21.92.37.43.37 10.8.38.19.37-.02.37-43.51.38 43.47.37-43.8.38 32.53.37.1.37 10.32.38.99.37.39.38-33.6.37 21.59.37-32.3.38 32.09.37 10.82.38-10.71.37 11.38.37.29.38-33.03.37 21.88.37-32.48.38 31.54.37 10.99.38-11.03.37 11.68.37.14.38-32.65.37 20.61.38-20.99.37 10.04.37 21.33.38-10.09.37 11.32.38-.09.37-21.22.37-.97.38.54.37-.96.38 11.15.37.2.37 10.94.38.56.37-21.64.37-1.71.38.86.37-.5.38 10.62.37.76.37 11.01.38-.07.37-21.62.38-.75.37.95.37-.88.38 11.08.37.02.38 11.14.37.23.37-21.31.38-.87.37.2.37-.28.38 10.34.37.18.38 11 .37.06.37-21.06.38-1.38.37 11.48.38-21.64.37 21.49.37.14.38 11 .37-.14.38-21.99.37-.63.37 11.41.38-21.58.37 21.36.38.35.37 11.19.37-.15.38-20.71.37-1.24.37 10.84.38-21.25.37 20.83.38.05.37 11.34.37.32.38-10.6.37-22.61.38 21.18.37-21.01.37 20.96.38.78.37 10.78h.38l.37-10.24.37-12.23.38.01.37-10.51.37 21.3.38-.16.37 11.27.38.22.37-10.06.37-12.05.38.46.37-11.44.38 21.44.37.41.37 11.16.38-.04.37-10.23.38-11.73.37-.18.37-9.53.38 19.86.37.5.38 10.92.37-.03.37-9.88.38-11.78.37.33.37-.5.38-.24.37 11.1.38 10.87.37-.02.37-10.22.38-12.25.37-.26.38 1.17.37-1.15.37 11.26.38 11.09.37.34.38-9.99.37-11.96.37-.57.38 11.63.37-22.09.37 21.83.38 10.76.37.19.38-10.09.37-11.36.37-.29.38 11.05.37-22.19.38 21.92.37 10.36"/><use xlink:href="#h" color="#29C3F6" transform="matrix(3.75 0 0 3.75 171.2 136.63)"/><use xlink:href="#h" color="#29C3F6" transform="matrix(3.75 0 0 3.75 220.55 22.51)"/></g><path fill="none" stroke="none" stroke-linecap="round" stroke-linejoin="round" stroke-width="0" d="M28 45.01V205M371.99 45.01H28" color="#000"/></svg>