<svg xmlns="http://www.w3.org/2000/svg" xmlns:xlink="http://www.w3.org/1999/xlink" viewBox="0 0 400 200"><path fill="none" d="M0 0h400v200H0z"/><defs><path id="c" stroke="currentColor" stroke-width=".222" d="M-1-1h2v2h-2z"/><path id="b" stroke="currentColor" stroke-width=".222" d="m0-1.33-1.33 2h2.66z"/><use xlink:href="#a" id="d" fill="currentColor" stroke="none"/><use xlink:href="#b" id="e" fill="currentColor" stroke="none"/><circle id="a" cx="0" cy="0" r="1" stroke="currentColor" stroke-width=".222"/></defs><path fill="none" stroke="#000" stroke-dasharray="0.1,0.2" stroke-linecap="round" stroke-linejoin="round" stroke-width=".1" d="M63.06 182V72.01" class="gridline" color="#000"/><g fill="none" stroke-linecap="round" stroke-linejoin="round" stroke-width="0" color="#000"><path d="M63.06 182v-9m0-100.99v9"/><text fill="#000" font-family="KaTeX_Main" font-size="8" text-anchor="middle" transform="translate(63.06 193.6)"><tspan> 1</tspan></text></g><path fill="none" stroke="#000" stroke-dasharray="0.1,0.2" stroke-linecap="round" stroke-linejoin="round" stroke-width=".1" d="M95.83 182V72.01" class="gridline" color="#000"/><g fill="none" stroke-linecap="round" stroke-linejoin="round" stroke-width="0" color="#000"><path d="M95.83 182v-9m0-100.99v9"/><text fill="#000" font-family="KaTeX_Main" font-size="8" text-anchor="middle" transform="translate(95.83 193.6)"><tspan> 2</tspan></text></g><path fill="none" stroke="#000" stroke-dasharray="0.1,0.2" stroke-linecap="round" stroke-linejoin="round" stroke-width=".1" d="M128.61 182V72.01" class="gridline" color="#000"/><g fill="none" stroke-linecap="round" stroke-linejoin="round" stroke-width="0" color="#000"><path d="M128.61 182v-9m0-100.99v9"/><text fill="#000" font-family="KaTeX_Main" font-size="8" text-anchor="middle" transform="translate(128.61 193.6)"><tspan> 3</tspan></text></g><path fill="none" stroke="#000" stroke-dasharray="0.1,0.2" stroke-linecap="round" stroke-linejoin="round" stroke-width=".1" d="M161.39 182V72.01" class="gridline" color="#000"/><g fill="none" stroke-linecap="round" stroke-linejoin="round" stroke-width="0" color="#000"><path d="M161.39 182v-9m0-100.99v9"/><text fill="#000" font-family="KaTeX_Main" font-size="8" text-anchor="middle" transform="translate(161.39 193.6)"><tspan> 4</tspan></text></g><path fill="none" stroke="#000" stroke-dasharray="0.1,0.2" stroke-linecap="round" stroke-linejoin="round" stroke-width=".1" d="M194.16 182V72.01" class="gridline" color="#000"/><g fill="none" stroke-linecap="round" stroke-linejoin="round" stroke-width="0" color="#000"><path d="M194.16 182v-9m0-100.99v9"/><text fill="#000" font-family="KaTeX_Main" font-size="8" text-anchor="middle" transform="translate(194.16 193.6)"><tspan> 5</tspan></text></g><path fill="none" stroke="#000" stroke-dasharray="0.1,0.2" stroke-linecap="round" stroke-linejoin="round" stroke-width=".1" d="M226.94 182V72.01" class="gridline" color="#000"/><g fill="none" stroke-linecap="round" stroke-linejoin="round" stroke-width="0" color="#000"><path d="M226.94 182v-9m0-100.99v9"/><text fill="#000" font-family="KaTeX_Main" font-size="8" text-anchor="middle" transform="translate(226.94 193.6)"><tspan> 6</tspan></text></g><path fill="none" stroke="#000" stroke-dasharray="0.1,0.2" stroke-linecap="round" stroke-linejoin="round" stroke-width=".1" d="M259.71 182V72.01" class="gridline" color="#000"/><g fill="none" stroke-linecap="round" stroke-linejoin="round" stroke-width="0" color="#000"><path d="M259.71 182v-9m0-100.99v9"/><text fill="#000" font-family="KaTeX_Main" font-size="8" text-anchor="middle" transform="translate(259.71 193.6)"><tspan> 7</tspan></text></g><path fill="none" stroke="#000" stroke-dasharray="0.1,0.2" stroke-linecap="round" stroke-linejoin="round" stroke-width=".1" d="M292.49 182V72.01" class="gridline" color="#000"/><g fill="none" stroke-linecap="round" stroke-linejoin="round" stroke-width="0" color="#000"><path d="M292.49 182v-9m0-100.99v9"/><text fill="#000" font-family="KaTeX_Main" font-size="8" text-anchor="middle" transform="translate(292.49 193.6)"><tspan> 8</tspan></text></g><path fill="none" stroke="#000" stroke-dasharray="0.1,0.2" stroke-linecap="round" stroke-linejoin="round" stroke-width=".1" d="M325.26 182V72.01" class="gridline" color="#000"/><g fill="none" stroke-linecap="round" stroke-linejoin="round" stroke-width="0" color="#000"><path d="M325.26 182v-9m0-100.99v9"/><text fill="#000" font-family="KaTeX_Main" font-size="8" text-anchor="middle" transform="translate(325.26 193.6)"><tspan> 9</tspan></text></g><path fill="none" stroke="#000" stroke-dasharray="0.1,0.2" stroke-linecap="round" stroke-linejoin="round" stroke-width=".1" d="M358.04 182V72.01" class="gridline" color="#000"/><g fill="none" stroke-linecap="round" stroke-linejoin="round" stroke-width="0" color="#000"><path d="M358.04 182v-9m0-100.99v9"/><text fill="#000" font-family="KaTeX_Main" font-size="8" text-anchor="middle" transform="translate(358.04 193.6)"><tspan> 10</tspan></text></g><g fill="none" stroke-linecap="round" stroke-linejoin="round" stroke-width="0" color="#000"><path d="M358.04 182h-9"/><text fill="#000" font-family="KaTeX_Main" font-size="8" transform="translate(366.43 184.6)"><tspan>1.15</tspan></text></g><g fill="none" stroke-linecap="round" stroke-linejoin="round" stroke-width="0" color="#000"><path d="M358.04 163.67h-9"/><text fill="#000" font-family="KaTeX_Main" font-size="8" transform="translate(366.43 166.27)"><tspan>1.20</tspan></text></g><g fill="none" stroke-linecap="round" stroke-linejoin="round" stroke-width="0" color="#000"><path d="M358.04 145.34h-9"/><text fill="#000" font-family="KaTeX_Main" font-size="8" transform="translate(366.43 147.94)"><tspan>1.25</tspan></text></g><g fill="none" stroke-linecap="round" stroke-linejoin="round" stroke-width="0" color="#000"><path d="M358.04 127h-9"/><text fill="#000" font-family="KaTeX_Main" font-size="8" transform="translate(366.43 129.6)"><tspan>1.30</tspan></text></g><g fill="none" stroke-linecap="round" stroke-linejoin="round" stroke-width="0" color="#000"><path d="M358.04 108.67h-9"/><text fill="#000" font-family="KaTeX_Main" font-size="8" transform="translate(366.43 111.27)"><tspan>1.35</tspan></text></g><g fill="none" stroke-linecap="round" stroke-linejoin="round" stroke-width="0" color="#000"><path d="M358.04 90.34h-9"/><text fill="#000" font-family="KaTeX_Main" font-size="8" transform="translate(366.43 92.94)"><tspan>1.40</tspan></text></g><g fill="none" stroke-linecap="round" stroke-linejoin="round" stroke-width="0" color="#000"><path d="M358.04 72.01h-9"/><text fill="#000" font-family="KaTeX_Main" font-size="8" transform="translate(366.43 74.61)"><tspan>1.45</tspan></text></g><path fill="none" d="M33.56 72.01V182M358.04 72.01H33.56" color="#000"/><text stroke-linecap="round" stroke-linejoin="round" stroke-width="0" color="#000" font-family="KaTeX_Main" font-size="8" text-anchor="middle" transform="rotate(-90 69.74 57.27)"><tspan font-weight="bold">Maximum Path Length </tspan><tspan> / log</tspan><tspan dy="2.4" font-size="6.4">2</tspan><tspan dy="-2.4">Size</tspan></text><text stroke-linecap="round" stroke-linejoin="round" color="#000" font-family="KaTeX_SansSerif" font-size="8" transform="translate(128.6 30.11)"><tspan>LBSTBottomUp</tspan></text><g fill="none" stroke="currentColor" stroke-linecap="round" stroke-linejoin="round" color="#000"><path stroke="#3B75EA" d="M91.6 27.51H123M33.56 168.28l.33-1.02.33-1.14.32-1.08.33-.85.33-.47.33-.06.32.32.33.62.33.78.33.82.33.76.32.59.33.41.33.19.33.01.32-.15.33-.26.33-.32.33-.35.33-.32.32-.29.33-.21.33-.14.33-.04.32.07.33.17.33.27.33.35.32.42.33.46.33.46.33.44.33.37.32.27.33.16.33.02.33-.11.32-.24.33-.37.33-.47.33-.55.33-.62.32-.66.33-.68.33-.69.33-.67.32-.66.33-.64.33-.61.33-.59.33-.56.32-.54.33-.52.33-.5.33-.49.32-.48.33-.45.33-.44.33-.42.33-.4.32-.36.33-.33.33-.3.33-.25.32-.2.33-.16.33-.1.33-.05h.33l.32.06.33.1.33.15.33.19.32.22.33.26.33.28.33.31.33.33.32.33.33.34.33.35.33.34.32.34.33.33.33.32.33.3.32.28.33.27.33.25.33.22.33.21.32.19.33.17.33.17.33.15.32.14.33.15.33.14.33.16.33.17.32.19.33.21.33.23.33.26.32.29.33.32.33.34.33.37.33.38.32.41.33.42.33.42.33.42.32.41.33.41.33.38.33.36.33.33.32.29.33.26.33.21.33.17.32.11.33.06.33.02.33-.04.33-.08.32-.13.33-.18.33-.22.33-.25.32-.28.33-.32.33-.34.33-.36.33-.37.32-.38.33-.38.33-.38.33-.39.32-.37.33-.36.33-.35.33-.33.32-.32.33-.3.33-.27.33-.25.33-.24.32-.2.33-.19.33-.16.33-.14.32-.12.33-.1.33-.07.33-.05.33-.03.32-.01H86l.33.03.33.04.32.06.33.07.33.09.33.09.33.11.32.13.33.13.33.14.33.14.32.16.33.16.33.16.33.17.33.17.32.17.33.18.33.17.33.18.32.18.33.18.33.17.33.18.33.17.32.17.33.17.33.17.33.16.32.15.33.15.33.14.33.14.32.12.33.12.33.1.33.09.33.07.32.06.33.04.33.02h.33l.32-.02.33-.04.33-.07.33-.1.33-.11.32-.15.33-.16.33-.19.33-.22.32-.23.33-.26.33-.27.33-.29.33-.3.32-.31.33-.3.33-.32.33-.3.32-.3.33-.29.33-.27.33-.26.33-.23.32-.21.33-.17.33-.15.33-.12.32-.09.33-.05.33-.02h.33l.33.04.32.06.33.08.33.1.33.11.32.13.33.13.33.13.33.13.33.13.32.12.33.1.33.08.33.07.32.05.33.02h.33l.33-.02.32-.05.33-.07.33-.09.33-.12.33-.13.32-.14.33-.16.33-.17.33-.18.32-.19.33-.18.33-.19.33-.19.33-.18.32-.17.33-.17.33-.16.33-.15.32-.15.33-.13.33-.12.33-.11.33-.1.32-.09.33-.08.33-.08.33-.07.32-.07.33-.06.33-.07.33-.06.33-.07.32-.07.33-.08.33-.08.33-.09.32-.09.33-.11.33-.11.33-.12.33-.13.32-.13.33-.15.33-.15.33-.15.32-.16.33-.15.33-.16.33-.15.33-.15.32-.14.33-.14.33-.12.33-.11.32-.1.33-.08.33-.07.33-.05.32-.03.33-.02h.33l.33.02.33.03.32.05.33.05.33.07.33.07.32.08.33.07.33.08.33.07.33.07.32.05.33.04.33.03.33.01.32-.02.33-.03.33-.06.33-.08.33-.11.32-.13.33-.15.33-.18.33-.2.32-.22.33-.24.33-.26.33-.27.33-.29.32-.29.33-.31.33-.31.33-.31.32-.31.33-.31.33-.3.33-.3.33-.28.32-.28.33-.26.33-.25.33-.23.32-.21.33-.2.33-.19.33-.16.32-.15.33-.13.33-.11.33-.1.33-.08.32-.06.33-.06.33-.03.33-.02.32-.02h.33l.33.01.33.02.33.03.32.04.33.04.33.05.33.05.32.06.33.07.33.06.33.07.33.08.32.07.33.08.33.08.33.08.32.09.33.08.33.08.33.09.33.08.32.09.33.08.33.09.33.09.32.08.33.08.33.09.33.09.33.08.32.09.33.08.33.09.33.08.32.09.33.08.33.08.33.09.33.08.32.09.33.08.33.08.33.09.32.08.33.08.33.08.33.08.32.08.33.09.33.08.33.08.33.08.32.08.33.08.33.08.33.08.32.08.33.08.33.08.33.08.33.08.32.08.33.08.33.07.33.08.32.08.33.08.33.07.33.08.33.08.32.08.33.07.33.08.33.07.32.08.33.08.33.07.33.08.33.07.32.08.33.07.33.08.33.07.32.08.33.07.33.08.33.07.33.07.32.08.33.07.33.07.33.08.32.07.33.07.33.07.33.07.33.08.32.07.33.07.33.07.33.07.32.07.33.08.33.07.33.07.32.07.33.07.33.07.33.07.33.07.32.07.33.07.33.07.33.07.32.06.33.07.33.07.33.07.33.07.32.07.33.06.33.07.33.07.32.07.33.06.33.07.33.07.33.07.32.06.33.07.33.07.33.06.32.07.33.07.33.06.33.07.33.06.32.07.33.06.33.07.33.06.32.07.33.06.33.07.33.06.33.07.32.06.33.07.33.06.33.06.32.07.33.06.33.06.33.07.32.06.33.06.33.07.33.06.33.06.32.06.33.07.33.06.33.06.32.06.33.06.33.06.33.07.33.06.32.06.33.06.33.06.33.06.32.06.33.06.33.06.33.06.33.07.32.05.33.06.33.07.33.05.32.06.33.06.33.06.33.06.33.06.32.06.33.06.33.06.33.06.32.05.33.06.33.06.33.06.33.06.32.05.33.06.33.06.33.06.32.05.33.06.33.06.33.06.33.06.32.05.33.06.33.05.33.06.32.06.33.05.33.06.33.06.32.05.33.06.33.06.33.05.33.06.32.05.33.06.33.05.33.06.32.05.33.06.33.05.33.06.33.05.32.06.33.05.33.05.33.06.32.05.33.06.33.05.33.05.33.06.32.05.33.05.33.06.33.05.32.06.33.05.33.05.33.05.33.05.32.06.33.05.33.05.33.06.32.05.33.05.33.05.33.06.33.05.32.05.33.05.33.05.33.05.32.05.33.06.33.05.33.05.33.05.32.05.33.05.33.05.33.05.32.05.33.05.33.05.33.05.32.05.33.04.33.05.33.05.33.04.32.05.33.04.33.05.33.04.32.03.33.04.33.03.33.04.33.02.32.02.33.02.33.02h.98l.33-.02.33-.02.33-.04.32-.05.33-.05.33-.08.33-.08.32-.1.33-.12.33-.14.33-.15.33-.17.32-.2.33-.21.33-.23.33-.26.32-.28.33-.3.33-.32.33-.33.33-.36.32-.38.33-.4.33-.41.33-.43.32-.44.33-.45.33-.46.33-.47.32-.47.33-.47.33-.47.33-.47.33-.46.32-.46.33-.45.33-.43.33-.42.32-.4.33-.38.33-.37.33-.34.33-.33.32-.3.33-.28.33-.26.33-.24.32-.21.33-.2.33-.17.33-.15.33-.14.32-.11.33-.1.33-.09.33-.06.32-.06.33-.04.33-.03.33-.02.33-.01.32-.01.33.01h.33l.33.02.32.02.33.03.33.02.33.03.33.04.32.03.33.04.33.04.33.04.32.04.33.04.33.04.33.05.33.04.32.04.33.04.33.05.33.04.32.05.33.04.33.04.33.05.32.04.33.05.33.04.33.04.33.05.32.04.33.05.33.04.33.04.32.04.33.05.33.04.33.05.33.04.32.04.33.05.33.04.33.04.32.04.33.05.33.04.33.04.33.05.32.04.33.04.33.04.33.04.32.05.33.04.33.04.33.04.33.05.32.04.33.04.33.04.33.04.32.05.33.04.33.04.33.04.33.04.32.04.33.05.33.04.33.04.32.04.33.04.33.04.33.04.33.04.32.04.33.05.33.04.33.04.32.04.33.04.33.04.33.04.32.04.33.04.33.04.33.04.33.04.32.04.33.04.33.04.33.04.32.04.33.04.33.04.33.04.33.04.32.04.33.04.33.04.33.04.32.04.33.04.33.04.33.03.33.04.32.04.33.04.33.04.33.04.32.04.33.04.33.04.33.04.33.04.32.03.33.04.33.04.33.04.32.04.33.04.33.03.33.04.33.04.32.04.33.04.33.03.33.04.32.04.33.04.33.04.33.04.32.03.33.04.33.04.33.04.33.04.32.03.33.04.33.04.33.04.32.03.33.04.33.04.33.03.33.04.32.04.33.04.33.03.33.04.32.04.33.03.33.04.33.04.33.03.32.04.33.04.33.03.33.04.32.04.33.03.33.04.33.04.33.03.32.04.33.04.33.03.33.04.32.03.33.04.33.04.33.03.33.04.32.03.33.04.33.04.33.03.32.04.33.03.33.04.33.03.33.04.32.04.33.03.33.03.33.04.32.03.33.04.33.03.33.04.32.04.33.03.33.04.33.03.33.04.32.03.33.04.33.03.33.04.32.03.33.04.33.03.33.04.33.03.32.03.33.04.33.03.33.04.32.03.33.03.33.04.33.03.33.04.32.03.33.04.33.03.33.03.32.04.33.03.33.03.33.04.33.03.32.04.33.03.33.03.33.04.32.03.33.04.33.03.33.03.33.03.32.04.33.03.33.04.33.03.32.03.33.04.33.03.33.03.33.04.32.03.33.03.33.03.33.04.32.03.33.03.33.04.33.03.32.03.33.03.33.03.33.04.33.03.32.03.33.04.33.03.33.03.32.03.33.04.33.03.33.03.33.03.32.03.33.04.33.03.33.03.32.04.33.02.33.04"/><use xlink:href="#a" color="#3B75EA" transform="matrix(4.5 0 0 4.5 355.09 161.87)"/><use xlink:href="#a" color="#3B75EA" transform="matrix(4.5 0 0 4.5 107.3 27.51)"/></g><text stroke-linecap="round" stroke-linejoin="round" color="#000" font-family="KaTeX_SansSerif" font-size="8" transform="translate(128.6 45.11)"><tspan>LBSTTopDown</tspan></text><g fill="none" stroke="currentColor" stroke-linecap="round" stroke-linejoin="round" color="#000"><path stroke="#29C3F6" stroke-dasharray="4.5,2.0,0.5,2.0,0.5,2.0" d="M91.6 42.51H123m-89.44 95.76.33 1.8.33 2.16.32 2.13.33 1.81.33 1.38.33.93.32.51.33.15.33-.13.33-.38.33-.57.32-.74.33-.86.33-.94.33-.97.32-.94.33-.86.33-.74.33-.59.33-.44.32-.29.33-.17.33-.09.33-.02h.32l.33.01h.33l.33.01.32.02.33.06.33.09.33.16.33.22.32.27.33.31.33.33.33.31.32.26.33.16.33.05.33-.1.33-.26.32-.43.33-.59.33-.74.33-.87.32-.98.33-1.05.33-1.09.33-1.11.33-1.08.32-1.04.33-.97.33-.87.33-.78.32-.65.33-.54.33-.42.33-.29.33-.19.32-.08.33.02.33.1.33.18.32.25.33.29.33.35.33.38.33.4.32.43.33.45.33.45.33.47.32.47.33.47.33.47.33.46.33.47.32.46.33.46.33.45.33.45.32.44.33.44.33.43.33.43.32.42.33.42.33.41.33.41.33.4.32.4.33.4.33.38.33.39.32.38.33.38.33.37.33.37.33.36.32.36.33.36.33.35.33.35.32.34.33.35.33.33.33.34.33.33.32.32.33.32.33.32.33.31.32.3.33.3.33.29.33.27.33.27.32.26.33.24.33.23.33.21.32.18.33.17.33.13.33.11.33.07.32.05h.33l.33-.04.33-.07.32-.13.33-.16.33-.2.33-.25.33-.29.32-.33.33-.37.33-.4.33-.43.32-.45.33-.47.33-.48.33-.5.32-.49.33-.5.33-.48.33-.47.33-.45.32-.43.33-.4.33-.37.33-.34.32-.3.33-.26.33-.24.33-.19.33-.15.32-.12.33-.09.33-.06.33-.02h.32l.33.03.33.05.33.07.33.1.32.11.33.12.33.14.33.14.32.16.33.17.33.17.33.17.33.19.32.18.33.19.33.18.33.2.32.19.33.19.33.19.33.19.33.19.32.19.33.19.33.19.33.19.32.19.33.18.33.19.33.18.32.18.33.18.33.18.33.17.33.17.32.17.33.16.33.16.33.16.32.14.33.15.33.13.33.13.33.11.32.11.33.09.33.08.33.06.32.05.33.02.33.01.33-.01.33-.04.32-.05.33-.08.33-.11.33-.14.32-.16.33-.19.33-.21.33-.24.33-.26.32-.29.33-.31.33-.33.33-.34.32-.36.33-.36.33-.38.33-.38.33-.37.32-.38.33-.36.33-.36.33-.33.32-.32.33-.29.33-.27.33-.24.33-.21.32-.18.33-.15.33-.11.33-.08.32-.05.33-.02.33.01.33.04.32.06.33.08.33.11.33.11.33.13.32.13.33.14.33.14.33.13.32.13.33.12.33.11.33.1.33.08.32.07.33.05.33.03.33.01h.32l.33-.02.33-.03.33-.04.33-.06.32-.07.33-.07.33-.08.33-.09.32-.08.33-.09.33-.08.33-.09.33-.08.32-.07.33-.06.33-.06.33-.04.32-.04.33-.03.33-.01.33-.02.33.01.32.01.33.02.33.03.33.04.32.05.33.05.33.07.33.07.33.07.32.08.33.08.33.09.33.09.32.09.33.1.33.1.33.1.32.11.33.1.33.11.33.1.33.11.32.11.33.11.33.11.33.11.32.1.33.11.33.11.33.11.33.11.32.11.33.1.33.11.33.11.32.1.33.11.33.11.33.1.33.11.32.11.33.1.33.1.33.11.32.1.33.11.33.1.33.1.33.1.32.11.33.1.33.1.33.1.32.1.33.1.33.1.33.1.33.1.32.1.33.1.33.1.33.1.32.09.33.1.33.1.33.09.32.1.33.1.33.09.33.1.33.09.32.1.33.1.33.09.33.1.32.09.33.09.33.1.33.09.33.09.32.1.33.09.33.09.33.09.32.09.33.1.33.09.33.08.33.1.32.09.33.09.33.09.33.09.32.08.33.1.33.08.33.09.33.09.32.09.33.09.33.08.33.09.32.09.33.08.33.09.33.08.33.09.32.08.33.09.33.08.33.09.32.08.33.08.33.08.33.09.33.08.32.08.33.08.33.07.33.08.32.07.33.08.33.07.33.07.32.06.33.06.33.06.33.05.33.06.32.04.33.04.33.03.33.03.32.01.33.01h.33l.33-.01.33-.02.32-.04.33-.04.33-.07.33-.07.32-.09.33-.11.33-.12.33-.15.33-.16.32-.18.33-.2.33-.21.33-.24.32-.26.33-.27.33-.3.33-.3.33-.33.32-.35.33-.35.33-.37.33-.39.32-.39.33-.4.33-.41.33-.41.33-.42.32-.42.33-.41.33-.42.33-.41.32-.4.33-.39.33-.39.33-.37.33-.35.32-.35.33-.33.33-.31.33-.29.32-.28.33-.26.33-.24.33-.22.32-.2.33-.19.33-.17.33-.14.33-.13.32-.11.33-.1.33-.09.33-.06.32-.06.33-.04.33-.03.33-.02.33-.01h.65l.33.02.33.02.32.03.33.04.33.03.33.05.33.04.32.05.33.05.33.06.33.06.32.06.33.05.33.07.33.06.33.06.32.07.33.06.33.07.33.06.32.07.33.07.33.06.33.07.33.06.32.07.33.07.33.06.33.07.32.06.33.07.33.07.33.06.32.07.33.06.33.07.33.07.33.06.32.07.33.06.33.07.33.06.32.07.33.06.33.06.33.07.33.06.32.07.33.06.33.06.33.07.32.06.33.06.33.07.33.06.33.06.32.07.33.06.33.06.33.06.32.07.33.06.33.06.33.06.33.06.32.06.33.06.33.06.33.06.32.07.33.05.33.07.33.06.33.05.32.06.33.06.33.06.33.05.32.06.33.05.33.05.33.05.33.05.32.05.33.04.33.05.33.03.32.04.33.03.33.03.33.02.32.01.33.01h.33l.33-.01.33-.01.32-.03.33-.03.33-.06.33-.05.32-.08.33-.09.33-.1.33-.12.33-.14.32-.15.33-.18.33-.19.33-.21.32-.23.33-.25.33-.27.33-.29.33-.3.32-.33.33-.34.33-.36.33-.38.32-.39.33-.4.33-.41.33-.43.33-.43.32-.43.33-.44.33-.44.33-.44.32-.44.33-.43.33-.43.33-.41.33-.41.32-.39.33-.38.33-.36.33-.35.32-.33.33-.31.33-.29.33-.28.33-.25.32-.23.33-.21.33-.2.33-.17.32-.16.33-.14.33-.12.33-.11.32-.08.33-.08.33-.06.33-.05.33-.04.32-.02.33-.02.33-.01h.33l.32.01.33.01.33.02.33.03.33.02.32.04.33.03.33.04.33.04.32.04.33.05.33.05.33.04.33.05.32.05.33.05.33.05.33.05.32.05.33.05.33.05.33.05.33.05.32.05.33.05.33.06.33.05.32.05.33.05.33.05.33.05.33.05.32.05.33.05.33.05.33.06.32.05.33.05.33.05.33.05.32.05.33.05.33.05.33.05.33.05.32.05.33.05.33.05.33.05.32.05.33.05.33.04.33.06.33.04.32.05.33.05.33.05.33.05.32.05.33.05.33.04.33.06.33.04.32.05.33.05.33.05.33.05.32.05.33.04.33.05.33.05.33.05.32.04.33.05.33.05.33.05.32.04.33.05.33.05.33.05.33.04.32.05.33.05.33.04.33.05.32.05.33.04.33.05.33.05.33.04.32.05.33.05.33.04.33.05.32.04.33.05.33.05.33.04.32.05.33.04.33.05.33.05.33.04.32.05.33.04.33.05.33.04.32.05.33.05.33.04.33.04.33.05.32.05.33.04.33.04.33.05.32.04.33.05.33.04.33.05.33.04.32.04.33.05.33.04.33.05.32.04.33.04.33.05.33.04.33.05.32.04.33.04.33.05.33.04.32.05.33.04.33.04.33.05.33.04.32.04.33.05.33.04.33.04.32.05.33.04.33.04.33.04.33.04.32.05.33.04.33.04.33.05.32.04.33.04.33.04.33.05.32.04.33.04.33.04.33.04.33.04.32.05.33.04.33.04.33.04.32.04.33.05.33.04.33.04.33.04.32.04.33.04.33.04.33.04.32.05.33.04.33.04.33.04.33.04.32.04.33.04.33.04.33.04.32.04.33.04.33.04.33.04.33.04.32.05.33.04.33.04.33.04.32.04.33.04.33.04.33.04.33.03.32.04.33.04.33.05.33.04.32.04.33.03.33.04.33.04.32.04.33.04.33.04.33.04.33.04.32.04.33.04.33.03.33.05.32.04.33.03.33.04.33.04.33.04.32.04.33.04.33.04.33.03.32.04.33.04.33.04.33.04.33.04.32.03.33.04.33.04.33.04.32.04.33.04.33.03.33.04.33.04.32.04.33.04.33.03.33.04.32.04.33.04.33.03.33.04.33.04.32.03.33.04.33.04.33.04.32.03.33.04.33.04.33.03.33.04.32.04.33.04.33.03.33.04.32.04.33.03.33.04.33.04.32.03.33.04.33.04.33.03.33.04.32.03.33.04.33.04.33.03.32.04.33.04.33.03.33.04.33.03.32.04.33.04.33.03.33.04.32.03.33.04.33.04.33.03.33.04.32.03.33.04.33.03.33.04.32.03.33.04.33.03.33.04.33.03.32.04.33.03.33.04.33.03.32.04.33.03.33.04.33.03.33.04.32.03.33.04.33.03.33.04.32.03.33.04.33.03.33.04.33.03.32.03.33.04.33.03.33.04.32.03.33.04.33.03.33.04.32.03.33.03.33.04.33.03.33.03.32.04.33.03.33.04.33.03.32.03.33.04.33.03.33.04.33.03.32.03.33.04.33.03.33.03.32.04.33.03.33.03"/><use xlink:href="#d" color="#29C3F6" transform="matrix(4.5 0 0 4.5 84.69 141.86)"/><use xlink:href="#d" color="#29C3F6" transform="matrix(4.5 0 0 4.5 107.3 42.51)"/></g><text stroke-linecap="round" stroke-linejoin="round" color="#000" font-family="KaTeX_SansSerif" font-size="8" transform="translate(238.4 30.11)"><tspan>WBSTBottomUp</tspan></text><g fill="none" stroke="currentColor" stroke-linecap="round" stroke-linejoin="round" color="#000"><path stroke="#D336C8" d="M201.4 27.51h31.4M33.56 115.8l.33-1.12.33-1.15.32-1.04.33-.75.33-.33.33.16.32.65.33 1.08.33 1.4.33 1.64.33 1.77.32 1.8.33 1.76.33 1.64.33 1.46.32 1.24.33.98.33.7.33.41.33.13.32-.11.33-.33.33-.51.33-.64.32-.75.33-.81.33-.86.33-.9.32-.91.33-.91.33-.91.33-.9.33-.86.32-.81.33-.75.33-.66.33-.56.32-.44.33-.32.33-.2.33-.07.33.05.32.17.33.26.33.35.33.43.32.48.33.52.33.56.33.56.33.57.32.56.33.53.33.48.33.44.32.36.33.28.33.18.33.07.33-.05.32-.18.33-.31.33-.44.33-.57.32-.68.33-.79.33-.87.33-.94.33-.96.32-.98.33-.96.33-.91.33-.83.32-.74.33-.63.33-.49.33-.37.33-.22.32-.09.33.03.33.15.33.25.32.33.33.38.33.43.33.44.32.44.33.43.33.38.33.33.33.27.32.2.33.12.33.04.33-.04.32-.11.33-.19.33-.26.33-.31.33-.37.32-.4.33-.43.33-.46.33-.45.32-.46.33-.45.33-.44.33-.41.33-.38.32-.36.33-.32.33-.3.33-.26.32-.25.33-.22.33-.2.33-.19.33-.18.32-.19.33-.19.33-.2.33-.23.32-.24.33-.27.33-.29.33-.32.33-.36.32-.38.33-.41.33-.43.33-.45.32-.47.33-.48.33-.48.33-.49.33-.48.32-.46.33-.46.33-.43.33-.41.32-.37.33-.34.33-.31.33-.27.32-.23.33-.19.33-.15.33-.12.33-.08.32-.05.33-.01.33.02.33.04.32.07.33.1.33.11.33.13.33.14.32.16.33.16.33.18.33.17.32.18.33.17.33.18.33.16.33.16.32.15.33.14.33.12.33.11.32.08.33.07.33.04.33.01.33-.01.32-.05.33-.07.33-.11.33-.14.32-.17.33-.2.33-.24.33-.27.33-.3.32-.33.33-.35.33-.38.33-.4.32-.41.33-.44.33-.44.33-.44.32-.45.33-.45.33-.44.33-.42.33-.42.32-.4.33-.38.33-.35.33-.34.32-.3.33-.28.33-.25.33-.22.33-.19.32-.16.33-.13.33-.11.33-.07.32-.06.33-.03h.33l.33.01.33.04.32.05.33.07.33.08.33.1.32.1.33.12.33.12.33.14.33.14.32.14.33.15.33.15.33.16.32.15.33.16.33.16.33.17.33.16.32.16.33.17.33.16.33.17.32.16.33.17.33.16.33.16.33.16.32.16.33.17.33.16.33.16.32.16.33.15.33.16.33.16.32.16.33.15.33.16.33.15.33.16.32.15.33.15.33.15.33.16.32.15.33.15.33.14.33.15.33.15.32.15.33.14.33.15.33.15.32.14.33.15.33.14.33.14.33.14.32.15.33.14.33.14.33.14.32.14.33.14.33.13.33.14.33.14.32.14.33.13.33.14.33.13.32.14.33.13.33.14.33.13.33.13.32.13.33.14.33.13.33.13.32.13.33.13.33.13.33.13.33.13.32.12.33.13.33.13.33.12.32.13.33.12.33.13.33.12.32.12.33.12.33.12.33.12.33.12.32.11.33.12.33.11.33.11.32.11.33.11.33.1.33.1.33.1.32.09.33.08.33.09.33.07.32.07.33.06.33.05.33.05.33.04.32.02.33.02.33.01.33-.01.32-.01.33-.03.33-.04.33-.05.33-.06.32-.07.33-.09.33-.09.33-.11.32-.11.33-.11.33-.12.33-.13.33-.13.32-.13.33-.12.33-.12.33-.12.32-.1.33-.1.33-.08.33-.07.32-.05.33-.03.33-.02.33.01.33.03.32.06.33.08.33.1.33.13.32.15.33.17.33.2.33.21.33.24.32.26.33.27.33.28.33.3.32.31.33.32.33.32.33.33.33.33.32.32.33.33.33.32.33.32.32.31.33.3.33.3.33.28.33.27.32.27.33.25.33.23.33.23.32.21.33.2.33.19.33.17.33.16.32.15.33.14.33.12.33.11.32.1.33.08.33.07.33.06.33.04.32.03.33.01h.33l.33-.02.32-.04.33-.05.33-.07.33-.08.32-.11.33-.13.33-.14.33-.16.33-.18.32-.21.33-.22.33-.24.33-.26.32-.27.33-.3.33-.3.33-.32.33-.34.32-.34.33-.36.33-.36.33-.37.32-.37.33-.37.33-.37.33-.36.33-.36.32-.34.33-.33.33-.31.33-.3.32-.27.33-.25.33-.23.33-.19.33-.17.32-.14.33-.09.33-.07.33-.03.32.01.33.04.33.08.33.12.33.16.32.19.33.23.33.26.33.3.32.33.33.36.33.38.33.41.33.44.32.46.33.47.33.49.33.5.32.52.33.52.33.52.33.53.32.53.33.52.33.52.33.52.33.5.32.5.33.48.33.46.33.46.32.44.33.41.33.4.33.39.33.36.32.35.33.33.33.31.33.29.32.28.33.25.33.24.33.23.33.21.32.2.33.18.33.17.33.16.32.15.33.14.33.13.33.11.33.11.32.11.33.09.33.09.33.07.32.08.33.06.33.05.33.05.33.05.32.03.33.02.33.01.33.01.32-.01.33-.01.33-.03.33-.04.32-.05.33-.07.33-.08.33-.1.33-.11.32-.14.33-.14.33-.17.33-.18.32-.21.33-.22.33-.24.33-.26.33-.28.32-.3.33-.31.33-.33.33-.35.32-.36.33-.37.33-.39.33-.4.33-.4.32-.42.33-.41.33-.43.33-.42.32-.42.33-.42.33-.41.33-.41.33-.39.32-.39.33-.38.33-.36.33-.36.32-.33.33-.31.33-.31.33-.28.33-.26.32-.25.33-.22.33-.21.33-.19.32-.17.33-.15.33-.14.33-.11.33-.11.32-.08.33-.07.33-.06.33-.05.32-.04.33-.02.33-.01.33-.01h.32l.33.01.33.02.33.03.33.02.32.04.33.03.33.04.33.05.32.05.33.05.33.05.33.05.33.06.32.05.33.06.33.05.33.06.32.06.33.06.33.06.33.06.33.06.32.05.33.07.33.06.33.05.32.07.33.06.33.05.33.06.33.06.32.06.33.06.33.06.33.06.32.06.33.06.33.06.33.06.33.06.32.05.33.06.33.06.33.06.32.06.33.05.33.06.33.06.33.06.32.06.33.05.33.06.33.06.32.05.33.06.33.06.33.05.32.06.33.05.33.05.33.06.33.05.32.05.33.05.33.05.33.05.32.04.33.05.33.04.33.03.33.04.32.02.33.03.33.02.33.01.32.01h.33l.33-.01.33-.02.33-.03.32-.04.33-.05.33-.07.33-.08.32-.09.33-.12.33-.12.33-.15.33-.17.32-.19.33-.2.33-.23.33-.25.32-.27.33-.29.33-.31.33-.34.33-.35.32-.37.33-.4.33-.4.33-.42.32-.44.33-.44.33-.46.33-.46.32-.46.33-.47.33-.46.33-.47.33-.45.32-.45.33-.44.33-.43.33-.41.32-.4.33-.38.33-.35.33-.35.33-.31.32-.3.33-.28.33-.25.33-.23.32-.21.33-.19.33-.16.33-.15.33-.13.32-.11.33-.1.33-.07.33-.06.32-.05.33-.04.33-.02.33-.02.33-.01.32.01h.33l.33.02.33.02.32.03.33.03.33.03.33.04.33.04.32.04.33.04.33.04.33.05.32.05.33.04.33.05.33.05.33.05.32.05.33.05.33.05.33.04.32.06.33.04.33.06.33.04.32.05.33.05.33.05.33.05.33.05.32.05.33.05.33.05.33.05.32.04.33.06.33.04.33.05.33.05.32.05.33.05.33.05.33.04.32.05.33.05.33.05.33.05.33.04.32.05.33.05.33.05.33.05.32.04.33.05.33.05.33.05.33.04.32.05.33.05.33.04.33.05.32.05.33.05.33.04.33.05.33.05.32.04.33.05.33.04.33.05.32.05.33.04.33.05.33.05.33.04.32.05.33.04.33.05.33.05.32.04.33.05.33.04.33.05.32.04.33.05.33.05.33.04.33.05.32.04.33.05.33.04.33.05.32.04.33.04.33.05.33.05.33.04.32.04.33.05.33.04.33.05.32.04.33.05.33.04.33.05.33.04.32.04.33.05.33.04.33.05.32.04.33.04.33.05.33.04.33.05.32.04.33.04.33.04.33.05.32.04.33.05.33.04.33.04.33.04.32.05.33.04.33.04.33.05.32.04.33.04.33.05.33.04.32.04.33.04.33.04.33.05.33.04.32.04.33.04.33.05.33.04.32.04.33.04.33.05.33.04.33.04.32.04.33.04.33.04.33.04.32.04.33.05.33.04.33.04.33.04.32.04.33.04.33.04.33.04.32.05.33.04.33.04.33.04.33.04.32.04.33.04.33.04.33.05.32.04.33.04.33.04.33.04.33.04.32.04.33.04.33.04.33.04.32.04.33.04.33.04.33.04.33.04.32.04.33.04.33.04.33.04.32.04.33.04.33.03.33.05.32.04.33.04.33.04.33.03.33.04.32.04.33.04.33.04.33.04.32.04.33.04.33.04.33.03.33.05.32.03.33.04.33.04.33.04.32.04.33.04.33.04.33.03.33.04.32.04.33.04.33.04.33.04.32.03.33.04.33.04.33.04.33.04.32.03.33.04.33.04.33.04.32.03.33.04.33.03.33.04.33.03.32.03.33.02.33.01h.33l.32-.03.33-.06.33-.1.33-.17.33-.25.32-.35.33-.49.33-.64.33-.83.32-1.01.33-1.22.33-1.39.33-1.53.32-1.6.33-1.6.33-1.52.33-1.34.33-1.12.32-.86.33-.6.33-.37.33-.21.32-.08.33-.02.33.02.33.03.33.04.32.03.33.04.33.04.33.04.32.03.33.04.33.04"/><use xlink:href="#b" color="#D336C8" transform="matrix(4.5 0 0 4.5 138.77 103.62)"/><use xlink:href="#b" color="#D336C8" transform="matrix(4.5 0 0 4.5 217.1 27.51)"/></g><text stroke-linecap="round" stroke-linejoin="round" color="#000" font-family="KaTeX_SansSerif" font-size="8" transform="translate(238.4 45.11)"><tspan>WBSTTopDown</tspan></text><g fill="none" stroke="currentColor" stroke-linecap="round" stroke-linejoin="round" color="#000"><path stroke="violet" stroke-dasharray="4.5,2.0,0.5,2.0,0.5,2.0" d="M201.4 42.51h31.4M33.56 115.8l.33-1.12.33-1.15.32-1.04.33-.75.33-.33.33.16.32.65.33 1.08.33 1.4.33 1.64.33 1.77.32 1.8.33 1.76.33 1.64.33 1.46.32 1.24.33.98.33.7.33.41.33.13.32-.11.33-.33.33-.51.33-.64.32-.75.33-.81.33-.86.33-.9.32-.91.33-.91.33-.91.33-.9.33-.86.32-.81.33-.75.33-.66.33-.56.32-.44.33-.32.33-.2.33-.07.33.05.32.17.33.26.33.35.33.43.32.48.33.52.33.56.33.56.33.57.32.56.33.53.33.48.33.44.32.36.33.28.33.18.33.07.33-.05.32-.18.33-.31.33-.44.33-.57.32-.68.33-.79.33-.87.33-.94.33-.96.32-.98.33-.96.33-.91.33-.83.32-.74.33-.63.33-.49.33-.37.33-.22.32-.09.33.03.33.15.33.25.32.33.33.38.33.43.33.44.32.44.33.43.33.38.33.33.33.27.32.2.33.12.33.04.33-.04.32-.11.33-.19.33-.26.33-.31.33-.37.32-.4.33-.43.33-.46.33-.45.32-.46.33-.45.33-.44.33-.41.33-.38.32-.36.33-.32.33-.3.33-.26.32-.25.33-.22.33-.2.33-.19.33-.18.32-.19.33-.19.33-.2.33-.23.32-.24.33-.27.33-.29.33-.32.33-.36.32-.38.33-.41.33-.43.33-.45.32-.47.33-.48.33-.48.33-.49.33-.48.32-.46.33-.46.33-.43.33-.41.32-.37.33-.34.33-.31.33-.27.32-.23.33-.19.33-.15.33-.12.33-.08.32-.05.33-.01.33.02.33.04.32.07.33.1.33.11.33.13.33.14.32.16.33.16.33.18.33.17.32.18.33.17.33.18.33.16.33.16.32.15.33.14.33.12.33.11.32.08.33.07.33.04.33.01.33-.01.32-.05.33-.07.33-.11.33-.14.32-.17.33-.2.33-.24.33-.27.33-.3.32-.33.33-.35.33-.38.33-.4.32-.41.33-.44.33-.44.33-.44.32-.45.33-.45.33-.44.33-.42.33-.42.32-.4.33-.38.33-.35.33-.34.32-.3.33-.28.33-.25.33-.22.33-.19.32-.16.33-.13.33-.11.33-.07.32-.06.33-.03h.33l.33.01.33.04.32.05.33.07.33.08.33.1.32.1.33.12.33.12.33.14.33.14.32.14.33.15.33.15.33.16.32.15.33.16.33.16.33.17.33.16.32.16.33.17.33.16.33.17.32.16.33.17.33.16.33.16.33.16.32.16.33.17.33.16.33.16.32.16.33.15.33.16.33.16.32.16.33.15.33.16.33.15.33.16.32.15.33.15.33.15.33.16.32.15.33.15.33.14.33.15.33.15.32.15.33.14.33.15.33.15.32.14.33.15.33.14.33.14.33.14.32.15.33.14.33.14.33.14.32.14.33.14.33.13.33.14.33.14.32.14.33.13.33.14.33.13.32.14.33.13.33.14.33.13.33.13.32.13.33.14.33.13.33.13.32.13.33.13.33.13.33.13.33.13.32.12.33.13.33.13.33.12.32.13.33.12.33.13.33.12.32.12.33.12.33.12.33.12.33.12.32.11.33.12.33.11.33.11.32.11.33.11.33.1.33.1.33.1.32.09.33.08.33.09.33.07.32.07.33.06.33.05.33.05.33.04.32.02.33.02.33.01.33-.01.32-.01.33-.03.33-.04.33-.05.33-.06.32-.07.33-.09.33-.09.33-.11.32-.11.33-.11.33-.12.33-.13.33-.13.32-.13.33-.12.33-.12.33-.12.32-.1.33-.1.33-.08.33-.07.32-.05.33-.03.33-.02.33.01.33.03.32.06.33.08.33.1.33.13.32.15.33.17.33.2.33.21.33.24.32.26.33.27.33.28.33.3.32.31.33.32.33.32.33.33.33.33.32.32.33.33.33.32.33.32.32.31.33.3.33.3.33.28.33.27.32.27.33.25.33.23.33.23.32.21.33.2.33.19.33.17.33.16.32.15.33.14.33.12.33.11.32.1.33.08.33.07.33.06.33.04.32.03.33.01h.33l.33-.02.32-.04.33-.05.33-.07.33-.08.32-.11.33-.13.33-.14.33-.16.33-.18.32-.21.33-.22.33-.24.33-.26.32-.27.33-.3.33-.3.33-.32.33-.34.32-.34.33-.36.33-.36.33-.37.32-.37.33-.37.33-.37.33-.36.33-.36.32-.34.33-.33.33-.31.33-.3.32-.27.33-.25.33-.23.33-.19.33-.17.32-.14.33-.09.33-.07.33-.03.32.01.33.04.33.08.33.12.33.16.32.19.33.23.33.26.33.3.32.33.33.36.33.38.33.41.33.44.32.46.33.47.33.49.33.5.32.52.33.52.33.52.33.53.32.53.33.52.33.52.33.52.33.5.32.5.33.48.33.46.33.46.32.44.33.41.33.4.33.39.33.36.32.35.33.33.33.31.33.29.32.28.33.25.33.24.33.23.33.21.32.2.33.18.33.17.33.16.32.15.33.14.33.13.33.11.33.11.32.11.33.09.33.09.33.07.32.08.33.06.33.05.33.05.33.05.32.03.33.02.33.01.33.01.32-.01.33-.01.33-.03.33-.04.32-.05.33-.07.33-.08.33-.1.33-.11.32-.14.33-.14.33-.17.33-.18.32-.21.33-.22.33-.24.33-.26.33-.28.32-.3.33-.31.33-.33.33-.35.32-.36.33-.37.33-.39.33-.4.33-.4.32-.42.33-.41.33-.43.33-.42.32-.42.33-.42.33-.41.33-.41.33-.39.32-.39.33-.38.33-.36.33-.36.32-.33.33-.31.33-.31.33-.28.33-.26.32-.25.33-.22.33-.21.33-.19.32-.17.33-.15.33-.14.33-.11.33-.11.32-.08.33-.07.33-.06.33-.05.32-.04.33-.02.33-.01.33-.01h.32l.33.01.33.02.33.03.33.02.32.04.33.03.33.04.33.05.32.05.33.05.33.05.33.05.33.06.32.05.33.06.33.05.33.06.32.06.33.06.33.06.33.06.33.06.32.05.33.07.33.06.33.05.32.07.33.06.33.05.33.06.33.06.32.06.33.06.33.06.33.06.32.06.33.06.33.06.33.06.33.06.32.05.33.06.33.06.33.06.32.06.33.05.33.06.33.06.33.06.32.06.33.05.33.06.33.06.32.05.33.06.33.06.33.05.32.06.33.05.33.05.33.06.33.05.32.05.33.05.33.05.33.05.32.04.33.05.33.04.33.03.33.04.32.02.33.03.33.02.33.01.32.01h.33l.33-.01.33-.02.33-.03.32-.04.33-.05.33-.07.33-.08.32-.09.33-.12.33-.12.33-.15.33-.17.32-.19.33-.2.33-.23.33-.25.32-.27.33-.29.33-.31.33-.34.33-.35.32-.37.33-.4.33-.4.33-.42.32-.44.33-.44.33-.46.33-.46.32-.46.33-.47.33-.46.33-.47.33-.45.32-.45.33-.44.33-.43.33-.41.32-.4.33-.38.33-.35.33-.35.33-.31.32-.3.33-.28.33-.25.33-.23.32-.21.33-.19.33-.16.33-.15.33-.13.32-.11.33-.1.33-.07.33-.06.32-.05.33-.04.33-.02.33-.02.33-.01.32.01h.33l.33.02.33.02.32.03.33.03.33.03.33.04.33.04.32.04.33.04.33.04.33.05.32.05.33.04.33.05.33.05.33.05.32.05.33.05.33.05.33.04.32.06.33.04.33.06.33.04.32.05.33.05.33.05.33.05.33.05.32.05.33.05.33.05.33.05.32.04.33.06.33.04.33.05.33.05.32.05.33.05.33.05.33.04.32.05.33.05.33.05.33.05.33.04.32.05.33.05.33.05.33.05.32.04.33.05.33.05.33.05.33.04.32.05.33.05.33.04.33.05.32.05.33.05.33.04.33.05.33.05.32.04.33.05.33.04.33.05.32.05.33.04.33.05.33.05.33.04.32.05.33.04.33.05.33.05.32.04.33.05.33.04.33.05.32.04.33.05.33.05.33.04.33.05.32.04.33.05.33.04.33.05.32.04.33.04.33.05.33.05.33.04.32.04.33.05.33.04.33.05.32.04.33.05.33.04.33.05.33.04.32.04.33.05.33.04.33.05.32.04.33.04.33.05.33.04.33.05.32.04.33.04.33.04.33.05.32.04.33.05.33.04.33.04.33.04.32.05.33.04.33.04.33.05.32.04.33.04.33.05.33.04.32.04.33.04.33.04.33.05.33.04.32.04.33.04.33.05.33.04.32.04.33.04.33.05.33.04.33.04.32.04.33.04.33.04.33.04.32.04.33.05.33.04.33.04.33.04.32.04.33.04.33.04.33.04.32.05.33.04.33.04.33.04.33.04.32.04.33.04.33.04.33.05.32.04.33.04.33.04.33.04.33.04.32.04.33.04.33.04.33.04.32.04.33.04.33.04.33.04.33.04.32.04.33.04.33.04.33.04.32.04.33.04.33.03.33.05.32.04.33.04.33.04.33.03.33.04.32.04.33.04.33.04.33.04.32.04.33.04.33.04.33.03.33.05.32.03.33.04.33.04.33.04.32.04.33.04.33.04.33.03.33.04.32.04.33.04.33.04.33.04.32.03.33.04.33.04.33.04.33.04.32.03.33.04.33.04.33.04.32.03.33.04.33.03.33.04.33.03.32.03.33.02.33.01h.33l.32-.03.33-.06.33-.1.33-.17.33-.25.32-.35.33-.49.33-.64.33-.83.32-1.01.33-1.22.33-1.39.33-1.53.32-1.6.33-1.6.33-1.52.33-1.34.33-1.12.32-.86.33-.6.33-.37.33-.21.32-.08.33-.02.33.02.33.03.33.04.32.03.33.04.33.04.33.04.32.03.33.04.33.04"/><use xlink:href="#e" color="violet" transform="matrix(4.5 0 0 4.5 192.85 115.68)"/><use xlink:href="#e" color="violet" transform="matrix(4.5 0 0 4.5 217.1 42.51)"/></g><path fill="none" d="M33.56 72.01V182M358.04 72.01H33.56" color="#000"/></svg>