<svg xmlns="http://www.w3.org/2000/svg" xmlns:xlink="http://www.w3.org/1999/xlink" viewBox="0 0 400 250"><path fill="none" d="M0 0h400v250H0z"/><defs><path id="g" stroke="currentColor" stroke-width=".267" d="M-1 0h2M0-1v2"/><path id="h" stroke="currentColor" stroke-width=".267" d="m-1-1 2 2m0-2-2 2"/><path id="d" stroke="currentColor" stroke-width=".267" d="M-1-1h2v2h-2z"/><path id="b" stroke="currentColor" stroke-width=".267" d="m0-1.33-1.33 2h2.66z"/><path id="f" stroke="currentColor" stroke-width=".267" d="M0 1.33 1.265.411.782-1.067l-1.564-.009-.483 1.487z"/><use xlink:href="#a" id="i" fill="currentColor" stroke="none"/><use xlink:href="#b" id="c" stroke="currentColor" transform="rotate(180)"/><use xlink:href="#d" id="e" stroke="currentColor" transform="rotate(45)"/><circle id="a" cx="0" cy="0" r="1" stroke="currentColor" stroke-width=".267"/></defs><path fill="none" stroke="#333" stroke-linecap="round" stroke-linejoin="round" stroke-width=".1" d="M46.1 205V45.01" class="gridline" color="#000"/><g fill="none" stroke="none" stroke-linecap="round" stroke-linejoin="round" stroke-width="0" color="#000"><path d="M46.1 205v-7.5m0-152.49v7.5"/><text fill="#000" font-family="KaTeX_Main" font-size="8" text-anchor="middle" transform="translate(46.1 215.1)"><tspan> 1</tspan></text></g><path fill="none" stroke="#333" stroke-linecap="round" stroke-linejoin="round" stroke-width=".1" d="M82.31 205V45.01" class="gridline" color="#000"/><g fill="none" stroke="none" stroke-linecap="round" stroke-linejoin="round" stroke-width="0" color="#000"><path d="M82.31 205v-7.5m0-152.49v7.5"/><text fill="#000" font-family="KaTeX_Main" font-size="8" text-anchor="middle" transform="translate(82.31 215.1)"><tspan> 2</tspan></text></g><path fill="none" stroke="#333" stroke-linecap="round" stroke-linejoin="round" stroke-width=".1" d="M118.52 205V45.01" class="gridline" color="#000"/><g fill="none" stroke="none" stroke-linecap="round" stroke-linejoin="round" stroke-width="0" color="#000"><path d="M118.52 205v-7.5m0-152.49v7.5"/><text fill="#000" font-family="KaTeX_Main" font-size="8" text-anchor="middle" transform="translate(118.52 215.1)"><tspan> 3</tspan></text></g><path fill="none" stroke="#333" stroke-linecap="round" stroke-linejoin="round" stroke-width=".1" d="M154.73 205V45.01" class="gridline" color="#000"/><g fill="none" stroke="none" stroke-linecap="round" stroke-linejoin="round" stroke-width="0" color="#000"><path d="M154.73 205v-7.5m0-152.49v7.5"/><text fill="#000" font-family="KaTeX_Main" font-size="8" text-anchor="middle" transform="translate(154.73 215.1)"><tspan> 4</tspan></text></g><path fill="none" stroke="#333" stroke-linecap="round" stroke-linejoin="round" stroke-width=".1" d="M190.94 205V45.01" class="gridline" color="#000"/><g fill="none" stroke="none" stroke-linecap="round" stroke-linejoin="round" stroke-width="0" color="#000"><path d="M190.94 205v-7.5m0-152.49v7.5"/><text fill="#000" font-family="KaTeX_Main" font-size="8" text-anchor="middle" transform="translate(190.94 215.1)"><tspan> 5</tspan></text></g><path fill="none" stroke="#333" stroke-linecap="round" stroke-linejoin="round" stroke-width=".1" d="M227.15 205V45.01" class="gridline" color="#000"/><g fill="none" stroke="none" stroke-linecap="round" stroke-linejoin="round" stroke-width="0" color="#000"><path d="M227.15 205v-7.5m0-152.49v7.5"/><text fill="#000" font-family="KaTeX_Main" font-size="8" text-anchor="middle" transform="translate(227.15 215.1)"><tspan> 6</tspan></text></g><path fill="none" stroke="#333" stroke-linecap="round" stroke-linejoin="round" stroke-width=".1" d="M263.36 205V45.01" class="gridline" color="#000"/><g fill="none" stroke="none" stroke-linecap="round" stroke-linejoin="round" stroke-width="0" color="#000"><path d="M263.36 205v-7.5m0-152.49v7.5"/><text fill="#000" font-family="KaTeX_Main" font-size="8" text-anchor="middle" transform="translate(263.36 215.1)"><tspan> 7</tspan></text></g><path fill="none" stroke="#333" stroke-linecap="round" stroke-linejoin="round" stroke-width=".1" d="M299.57 205V45.01" class="gridline" color="#000"/><g fill="none" stroke="none" stroke-linecap="round" stroke-linejoin="round" stroke-width="0" color="#000"><path d="M299.57 205v-7.5m0-152.49v7.5"/><text fill="#000" font-family="KaTeX_Main" font-size="8" text-anchor="middle" transform="translate(299.57 215.1)"><tspan> 8</tspan></text></g><path fill="none" stroke="#333" stroke-linecap="round" stroke-linejoin="round" stroke-width=".1" d="M335.78 205V45.01" class="gridline" color="#000"/><g fill="none" stroke="none" stroke-linecap="round" stroke-linejoin="round" stroke-width="0" color="#000"><path d="M335.78 205v-7.5m0-152.49v7.5"/><text fill="#000" font-family="KaTeX_Main" font-size="8" text-anchor="middle" transform="translate(335.78 215.1)"><tspan> 9</tspan></text></g><path fill="none" stroke="#333" stroke-linecap="round" stroke-linejoin="round" stroke-width=".1" d="M371.99 205V45.01" class="gridline" color="#000"/><g fill="none" stroke="none" stroke-linecap="round" stroke-linejoin="round" stroke-width="0" color="#000"><path d="M371.99 205v-7.5m0-152.49v7.5"/><text fill="#000" font-family="KaTeX_Main" font-size="8" text-anchor="middle" transform="translate(371.99 215.1)"><tspan> 10</tspan></text></g><g fill="none" stroke="none" stroke-linecap="round" stroke-linejoin="round" stroke-width="0" color="#000"><path d="M371.99 205h-7.5"/><text fill="#000" font-family="KaTeX_Main" font-size="8" transform="translate(378.99 207.6)"><tspan>0.00</tspan></text></g><g fill="none" stroke="none" stroke-linecap="round" stroke-linejoin="round" stroke-width="0" color="#000"><path d="M371.99 187.22h-7.5"/><text fill="#000" font-family="KaTeX_Main" font-size="8" transform="translate(378.99 189.82)"><tspan>0.10</tspan></text></g><g fill="none" stroke="none" stroke-linecap="round" stroke-linejoin="round" stroke-width="0" color="#000"><path d="M371.99 169.45h-7.5"/><text fill="#000" font-family="KaTeX_Main" font-size="8" transform="translate(378.99 172.05)"><tspan>0.20</tspan></text></g><g fill="none" stroke="none" stroke-linecap="round" stroke-linejoin="round" stroke-width="0" color="#000"><path d="M371.99 151.67h-7.5"/><text fill="#000" font-family="KaTeX_Main" font-size="8" transform="translate(378.99 154.27)"><tspan>0.30</tspan></text></g><g fill="none" stroke="none" stroke-linecap="round" stroke-linejoin="round" stroke-width="0" color="#000"><path d="M371.99 133.89h-7.5"/><text fill="#000" font-family="KaTeX_Main" font-size="8" transform="translate(378.99 136.49)"><tspan>0.40</tspan></text></g><g fill="none" stroke="none" stroke-linecap="round" stroke-linejoin="round" stroke-width="0" color="#000"><path d="M371.99 116.12h-7.5"/><text fill="#000" font-family="KaTeX_Main" font-size="8" transform="translate(378.99 118.72)"><tspan>0.50</tspan></text></g><g fill="none" stroke="none" stroke-linecap="round" stroke-linejoin="round" stroke-width="0" color="#000"><path d="M371.99 98.34h-7.5"/><text fill="#000" font-family="KaTeX_Main" font-size="8" transform="translate(378.99 100.94)"><tspan>0.60</tspan></text></g><g fill="none" stroke="none" stroke-linecap="round" stroke-linejoin="round" stroke-width="0" color="#000"><path d="M371.99 80.56h-7.5"/><text fill="#000" font-family="KaTeX_Main" font-size="8" transform="translate(378.99 83.16)"><tspan>0.70</tspan></text></g><g fill="none" stroke="none" stroke-linecap="round" stroke-linejoin="round" stroke-width="0" color="#000"><path d="M371.99 62.79h-7.5"/><text fill="#000" font-family="KaTeX_Main" font-size="8" transform="translate(378.99 65.39)"><tspan>0.80</tspan></text></g><g fill="none" stroke="none" stroke-linecap="round" stroke-linejoin="round" stroke-width="0" color="#000"><path d="M371.99 45.01h-7.5"/><text fill="#000" font-family="KaTeX_Main" font-size="8" transform="translate(378.99 47.61)"><tspan>0.90</tspan></text></g><path fill="none" stroke="none" stroke-linecap="round" stroke-linejoin="round" stroke-width="0" d="M28 45.01V205M371.99 45.01H28" color="#000"/><text fill="#000" stroke="none" stroke-linecap="round" stroke-linejoin="round" stroke-width="0" color="#000" font-family="KaTeX_Main" font-size="10" text-anchor="middle" transform="rotate(-90 68.255 56.755)"><tspan font-weight="bold">Rotations</tspan><tspan> / Operation</tspan></text><text fill="#000" stroke="none" stroke-linecap="round" stroke-linejoin="round" stroke-width="0" color="#000" font-family="KaTeX_Main" font-size="10" text-anchor="middle" transform="translate(199.99 238.25)"><tspan>Operations × 10</tspan><tspan dy="-5" font-size="8">5</tspan></text><text fill="#000" stroke="none" stroke-linecap="round" stroke-linejoin="round" color="#000" font-family="KaTeX_Main" font-size="8" transform="translate(99.2 10.11)"><tspan>AVLBottomUp</tspan></text><g fill="none" stroke="currentColor" stroke-linecap="round" stroke-linejoin="round" color="#000"><path stroke="#000" d="M63.7 7.51h29.9M28 83.76l.36-1.77.36 4.44.37-7.82.36 2.31.36 2.84.36-2.66.36 6.93.37-7.82.36 1.24.36 3.2.36-5.86.37-6.4.36 5.51h.36l.36 4.62.36-7.11.37 3.73.36-.53.36 1.24.36 9.42.36-14.22.37 1.07.36-1.78.36 8.71h.36l.36-2.13.37-9.96.36 10.85.36 2.49.36-6.23.36 8 .37-4.8.36-2.31.36.36.36.89.37-1.07.36 2.13.36 1.78.36-4.09.36-4.62.37 6.05.36-5.16.36 7.11.36.71.36-14.75.37 9.77.36 4.98.36-3.02.36-7.64.36 3.2.37 63.99.36 12.45.36-2.32.36 1.43.37-3.03.36.72.36 1.42.36-6.76.36 8.36.37-1.07.36 3.91.36 2.14.36-4.98.36 1.6.37-2.49.36-.18.36-1.07.36 4.8.36-8.53.37 6.22.36-.35.36 1.06.36.18.37 1.25.36 5.15.36-9.95.36-3.56.36 13.16.37-8.36.36 3.56.36-8.18.36 7.29.36-8.36.37 8.89h.36l.36.89.36-5.87.36 2.49.37 3.02.36-2.66.36-1.6.36 4.44.36 3.02.37-9.24.36-3.56.36 4.98.36.54h.37l.36-4.8.36 6.57.36-65.77.36-12.8.37 9.42.36-8.35.36 3.73.36.89.36.35.37 2.14.36-3.74.36-.53.36 1.42.36 3.56.37-3.56.36 2.67.36-2.67.36 6.4.37-3.55.36.89.36-19.2.36 16.35.36 3.2.37-2.31.36 1.6.36 2.49.36-8 .36 4.98.37 1.06.36-1.6.36 1.78.36 3.2.36-4.09.37-4.97.36 3.37.36 1.78.36 1.07.36-9.07.37 7.47h.36l.36 2.66.36-6.93.37 6.4.36-10.13.36 4.98.36-1.43.36 9.78.37-1.95.36-8.54.36 4.8.36 2.31h.36l.37 68.27.36 1.77.36-3.55.36 5.69.36-3.03.37-8.88.36 7.64.36 4.09.36-6.22.37 2.84.36.71.36-.89.36-.17.36-.72.37 2.32.36-6.23.36 1.96.36 5.51.36 2.13.37-4.44.36.18.36-2.31.36-.89.36-4.63.37 10.14.36-8.71.36 2.84.36 3.73.36-.88.37 1.42.36-2.67.36 2.13.36-.71.37 4.09.36-6.75.36-.89.36 4.09.36-.89.37 2.66h.36l.36-.53.36-4.98.36-.35.37 6.04.36-3.38.36 1.43.36 3.55.36-7.29.37 7.29h.36l.36-79.1.36 10.31.37-9.6.36 6.22.36-8.18.36 5.33.36 3.2.37-3.2.36 12.27.36-18.13.36 2.49.36 9.42.37-.36.36-7.29.36 5.52.36-9.07.36 9.24.37-5.33.36 8.18.36-3.2.36-2.85.37-8.17.36 6.22h.36l.36-6.22.36 14.75.37-6.93.36 1.24.36-4.8.36 2.14.36-.18.37-1.42.36-1.25.36-2.84.36 8.35.36-5.86.37-4.09.36 4.44.36 6.58.36-.36.36-.35.37-4.45.36-3.73.36 10.67.36-5.69.37-1.6.36-3.91.36 13.15.36.89.36-7.11.37 74.31.36-4.09.36-6.4.36 3.73.36 7.65.37-8.36.36.36.36-2.32.36 5.52.36 5.86.37-9.6.36 1.78.36 3.38.36-3.2.37 3.02.36 1.96.36-2.85.36 3.38.36.18.37-7.11.36 3.55.36 6.93.36-5.51.36 5.51.37-14.75.36 9.07.36-8.89.36-1.78.36 14.22.37-4.09.36 1.96.36 3.2.36-9.96.36-3.38.37 2.32.36 4.08.36-1.24.36 3.56.37 2.66.36-3.73.36 2.67.36-2.67.36-1.78.37 3.2.36 1.6.36-2.84.36-.18.36 1.07.37-4.27.36 9.6.36-80 .36 9.78.36-8.53.37 7.82.36 2.31.36-8.53.36 8 .37-14.05.36 9.96.36-.71.36-7.29.36 4.62.37-6.22.36 9.78.36-9.6.36.53.36 2.84.37-4.62.36 6.22.36 2.49.36-8.89.36-.35.37 7.29.36-1.25.36-1.95.36-.36.36 7.11.37-4.09.36-2.84.36 3.56.36-8.72.37 7.65.36-.89.36-3.91.36 6.4.36 10.84.37-14.93.36-1.07.36.71.36 1.78.36-3.02.37 7.29.36-2.67.36-1.6.36 3.74.36-1.96.37-.18.36-3.91.36 2.31.36 1.07.37 68.44.36 1.95.36-3.73.36 1.25.36 3.73.37 3.73.36-8 .36 9.6.36-8.53.36 1.42.37 3.56.36-4.98.36 2.31.36-2.31.36 8.18.37-8 .36-.54.36-.89.36 5.16.37-3.38.36 6.4.36-.35.36-2.85.36.54.37-.18.36 1.06.36-2.66.36-4.62.36 3.2.37.35.36 4.09.36-9.42.36 5.51.36 1.24.37-4.8.36 3.2.36-2.31.36 8.36.36-3.56.37 3.74.36-3.92.36-4.97.36 9.42.37-10.85.36 1.78.36 2.85.36-3.56.36-1.6.37 12.27.36-13.87.36-69.51.36 3.03h.36l.37 4.09.36-8.89.36 5.86.36 2.14.36-1.25.37 3.2.36-.53.36-1.07.36-14.22.37 15.47.36-8.36.36 12.8.36-9.6.36 3.02.37 8.36.36-4.09.36-8.71.36.18.36 1.95.37 3.2.36-7.64.36 3.91.36 3.91.36-8.18.37 5.34.36-3.03.36 9.6.36-1.95.36-.71.37 1.06.36-2.13.36-1.6.36 3.02.37-1.06.36-.18.36-4.45.36 3.56.36-11.38.37 10.49.36 4.44.36 4.27.36-6.93.36-6.4.37 3.73.36-1.78.36-1.24.36-1.6.36 72.88.37 8.18.36-2.49.36-.71.36-7.82.37 9.07h.36l.36-.54.36-2.13.36.35.37 1.25.36-1.25.36-3.73.36 2.67.36-.18.37 3.2.36-3.2.36 4.62.36-3.91.36 3.73.37-3.91.36-4.09.36 4.63.36-3.74.37 2.67.36 2.67.36 3.73.36-5.69.36-.18.37 2.49.36 7.29.36-16.53.36 1.06.36 10.32.37-6.94.36 7.65.36-5.34.36 4.63.36-7.47.37 5.33.36-.18.36 5.69.36-7.82.36-3.2.37 5.51.36-5.33.36 4.09.36-1.6.37-.89.36 10.31.36-71.82.36-12.8h.36l.37 9.96.36-9.42.36-4.27.36 3.38.36 13.86.37-14.75.36 5.51.36 2.49.36 5.69.36-3.56.37-11.38.36 17.42.36-15.99.36 4.26.37-.18.36 4.8.36-3.37.36-2.85.36 5.51.37-2.66.36-1.43.36 3.03.36-1.43.36 3.92.37-3.38.36-1.42.36 7.28.36-9.77.36-.18.37 6.58.36-10.85.36 10.67.36-3.38.36-1.07.37 3.56.36-7.11.36 7.47.36 3.02.37-6.76.36.71.36 3.56.36-2.31.36-4.62.37 2.66.36 5.34.36-3.03.36-1.77.36 72.88.37-6.58.36 7.11.36 1.25.36-4.62.36 9.06.37-7.46.36-.72.36 3.2.36 1.25.37-8.36.36 6.4.36 1.6.36-2.13.36 7.64.37-5.86.36-.54.36 2.49.36-6.04.36-.71.37 3.91.36-4.8.36 6.58.36 1.42h.36l.37-6.4.36 4.44.36-.71.36 1.25.36.53.37-2.67.36 1.25.36-2.67.36-.71.37 2.84.36 2.32.36-2.49.36-2.67.36.89.37 10.66.36-16.53.36 5.69.36 3.02.36 3.03.37-7.12.36-.35.36-1.78.36 6.76.36-3.2.37 5.51.36-68.26.36-9.43.36-.17.37-5.16.36 5.87.36 7.29.36-2.85.36-9.24.37 1.6.36 4.09.36-3.56.36 5.87.36-6.76.37 1.25.36 5.68.36 3.92.36-9.78.36 8 .37 6.4.36-9.25.36-9.06h.36l.37 9.77.36-1.42.36 1.07.36-.89.36-.89.37 6.4.36-10.84.36 2.66.36 9.25.36-7.29.37-.36.36-2.31.36.71.36 3.74.36 4.44.37.36.36-6.58.36 6.04.36-6.04.36-5.16.37 3.91.36 5.16.36-9.6.36 12.27.37 5.33.36-16.71.36-3.02.36 12.62.36 65.24.37-1.42.36-3.38.36 3.73.36 2.67.36 1.95.37-5.51.36-1.6.36 2.67.36-.89.36 1.78.37 5.51.36-7.64.36 4.26.36 1.25.37-5.51.36 3.02.36-6.05.36 10.31.36-1.06.37-10.31.36 8.53.36 5.33.36-4.62.36-5.69.37 2.31.36-1.77.36 10.48.36 2.49.36-15.64.37 14.04.36-6.75.36-.71.36-2.85.36 4.98.37 5.33.36-15.46.36 8 .36 2.66.37-2.84.36-12.8.36 11.38.36 2.13.36-2.49.37 5.16.36-3.56.36 2.85.36-1.25.36.36.37-2.14.36-75.19.36 2.49.36-.71.36-.72.37 9.43.36-10.85.36 6.76.36-1.07.37-2.49.36-1.06.36 8.71.36-5.16.36 1.07.37 4.44.36-11.55.36.71.36 9.78.36-8.89.37-.71.36 7.64.36-8.36.36-4.08.36 3.91.37 6.22.36 5.15.36-5.86.36-4.98.36 3.73.37-.71.36 1.6.36-7.46.36 6.04.37 4.8.36-6.58.36 8.36.36 6.93.36-14.58.37 2.14.36-6.05.36 4.8.36-1.95.36 5.15.37 5.87.36-11.91.36 1.6.36 8 .36-3.02.37-2.67.36-9.42.36 18.31.36 57.77.37 4.09.36-2.84.36.88.36 4.8.36-6.75.37 4.44.36-8.53.36 12.09.36-10.85.36 5.34.37 4.26.36-6.75.36-.53.36 2.48.36-3.37.37 8 .36-3.74.36-3.02.36 9.25.37-.89.36-3.91.36-.18.36 5.15.36-11.02.37 4.62.36 3.03.36-4.8.36 3.2.36-5.69.37 4.97.36-4.8.36 6.4.36-.53.36.36.37-4.27.36 7.47.36 1.77.36-5.86.36 1.78.37-3.38.36 4.26.36-2.48.36-7.29.37 9.6.36-1.78.36 1.6.36-6.76.36 8 .37-7.64.36-66.49.36-.71.36 6.4.36-6.22.37-1.42.36 1.42.36 5.16.36-10.49.36-4.09.37 11.91.36-1.24.36-9.43.36 1.25.37 13.51.36 1.07.36-8.36.36 10.31.36-7.64.37-1.96.36-7.64.36 9.6.36 6.75.36-10.49.37 4.8h.36l.36-2.31.36 1.25.36-4.09.37 4.26.36-.35.36-9.78.36 14.05.36-3.92.37 1.78.36-4.98.36 5.34.36-12.98.37-2.67.36 15.65.36-.54.36-1.24.36 2.49.37-5.51.36 4.98.36-5.69.36 6.93.36-2.13.37-4.27.36.18.36 3.91.36 65.24.36 1.42.37.36.36 4.09.36-5.34.36 2.85.37-1.6.36 1.42.36 3.02.36-3.91.36-.36.37-4.26.36 1.24.36 5.69.36-6.4.36 1.96.37.35.36 1.96.36-5.34.36 5.69.36-6.57.37 5.86.36 3.91.36-1.95.36-3.02.36-1.6.37 3.2.36-7.47.36 6.22.36 7.29.37-6.93.36 3.2.36-2.49.36-.54.36-5.51.37 6.94.36-5.69.36 13.15.36-14.75.36 5.33.37-2.13.36 11.38.36-7.47.36-6.76.36 2.49.37 9.78.36-4.98.36-3.73.36 6.58.37-.89.36-73.6.36.71.36 1.78.36-5.69.37 2.85.36 2.66.36-4.62.36-1.24.36 2.84.37.89.36-.36.36 10.85.36-9.96.36-4.26.37-6.05.36 14.94.36-.89.36.17.37-8.17.36-2.14.36-1.6.36 6.4.36 3.2.37-4.8.36 2.31.36-6.75.36 3.02.36.36.37 3.02.36 3.02.36-3.91.36-10.49.36 9.42.37 4.98.36-8.71.36 9.78.36-2.31.36-1.6.37 3.55.36 6.58.36-.53.36-13.87.37-5.16.36 2.85.36 7.82.36 1.07.36-6.76.37-1.06.36 4.62.36-.18"/><use xlink:href="#g" transform="matrix(3.75 0 0 3.75 354.25 81.45)"/><use xlink:href="#g" transform="matrix(3.75 0 0 3.75 78.65 7.51)"/></g><text fill="#000" stroke="none" stroke-linecap="round" stroke-linejoin="round" color="#000" font-family="KaTeX_Main" font-size="8" transform="translate(99.2 25.11)"><tspan>AVLTopDown</tspan></text><g fill="none" stroke="currentColor" stroke-linecap="round" stroke-linejoin="round" color="#000"><path stroke="#29C3F6" stroke-dasharray="1.0,2.0" d="M63.7 22.51h29.9M28 83.76l.36-1.77.36 4.44.37-7.82.36 2.31.36 2.84.36-2.66.36 6.93.37-7.82.36 1.24.36 3.2.36-5.86.37-6.4.36 5.51h.36l.36 4.62.36-7.11.37 3.73.36-.53.36 1.24.36 9.42.36-14.22.37 1.07.36-1.78.36 8.71h.36l.36-2.13.37-9.96.36 10.85.36 2.49.36-6.23.36 8 .37-4.8.36-2.31.36.36.36.89.37-1.07.36 2.13.36 1.78.36-4.09.36-4.62.37 6.05.36-5.16.36 7.11.36.71.36-14.75.37 9.77.36 4.98.36-3.02.36-7.64.36 3.2.37 63.99.36 12.45.36-2.32.36 1.43.37-3.03.36.72.36 1.42.36-6.76.36 8.36.37-1.07.36 3.91.36 2.14.36-4.98.36 1.6.37-2.49.36-.18.36-1.07.36 4.8.36-8.53.37 6.22.36-.35.36 1.06.36.18.37 1.25.36 5.15.36-9.95.36-3.56.36 13.16.37-8.36.36 3.56.36-8.18.36 7.29.36-8.36.37 8.89h.36l.36.89.36-5.87.36 2.49.37 3.02.36-2.66.36-1.6.36 4.44.36 3.02.37-9.24.36-3.56.36 4.98.36.54h.37l.36-4.8.36 6.57.36-65.77.36-12.8.37 9.42.36-8.35.36 3.73.36.89.36.35.37 2.14.36-3.74.36-.53.36 1.42.36 3.56.37-3.56.36 2.67.36-2.67.36 6.4.37-3.55.36.89.36-19.2.36 16.35.36 3.2.37-2.31.36 1.6.36 2.49.36-8 .36 4.98.37 1.06.36-1.6.36 1.78.36 3.2.36-4.09.37-4.97.36 3.37.36 1.78.36 1.07.36-9.07.37 7.47h.36l.36 2.66.36-6.93.37 6.4.36-10.13.36 4.98.36-1.43.36 9.78.37-1.95.36-8.54.36 4.8.36 2.31h.36l.37 68.27.36 1.77.36-3.55.36 5.69.36-3.03.37-8.88.36 7.64.36 4.09.36-6.22.37 2.84.36.71.36-.89.36-.17.36-.72.37 2.32.36-6.23.36 1.96.36 5.51.36 2.13.37-4.44.36.18.36-2.31.36-.89.36-4.63.37 10.14.36-8.71.36 2.84.36 3.73.36-.88.37 1.42.36-2.67.36 2.13.36-.71.37 4.09.36-6.75.36-.89.36 4.09.36-.89.37 2.66h.36l.36-.53.36-4.98.36-.35.37 6.04.36-3.38.36 1.43.36 3.55.36-7.29.37 7.29h.36l.36-79.1.36 10.31.37-9.6.36 6.22.36-8.18.36 5.33.36 3.2.37-3.2.36 12.27.36-18.13.36 2.49.36 9.42.37-.36.36-7.29.36 5.52.36-9.07.36 9.24.37-5.33.36 8.18.36-3.2.36-2.85.37-8.17.36 6.22h.36l.36-6.22.36 14.75.37-6.93.36 1.24.36-4.8.36 2.14.36-.18.37-1.42.36-1.25.36-2.84.36 8.35.36-5.86.37-4.09.36 4.44.36 6.58.36-.36.36-.35.37-4.45.36-3.73.36 10.67.36-5.69.37-1.6.36-3.91.36 13.15.36.89.36-7.11.37 74.31.36-4.09.36-6.4.36 3.73.36 7.65.37-8.36.36.36.36-2.32.36 5.52.36 5.86.37-9.6.36 1.78.36 3.38.36-3.2.37 3.02.36 1.96.36-2.85.36 3.38.36.18.37-7.11.36 3.55.36 6.93.36-5.51.36 5.51.37-14.75.36 9.07.36-8.89.36-1.78.36 14.22.37-4.09.36 1.96.36 3.2.36-9.96.36-3.38.37 2.32.36 4.08.36-1.24.36 3.56.37 2.66.36-3.73.36 2.67.36-2.67.36-1.78.37 3.2.36 1.6.36-2.84.36-.18.36 1.07.37-4.27.36 9.6.36-80 .36 9.78.36-8.53.37 7.82.36 2.31.36-8.53.36 8 .37-14.05.36 9.96.36-.71.36-7.29.36 4.62.37-6.22.36 9.78.36-9.6.36.53.36 2.84.37-4.62.36 6.22.36 2.49.36-8.89.36-.35.37 7.29.36-1.25.36-1.95.36-.36.36 7.11.37-4.09.36-2.84.36 3.56.36-8.72.37 7.65.36-.89.36-3.91.36 6.4.36 10.84.37-14.93.36-1.07.36.71.36 1.78.36-3.02.37 7.29.36-2.67.36-1.6.36 3.74.36-1.96.37-.18.36-3.91.36 2.31.36 1.07.37 68.44.36 1.95.36-3.73.36 1.25.36 3.73.37 3.73.36-8 .36 9.6.36-8.53.36 1.42.37 3.56.36-4.98.36 2.31.36-2.31.36 8.18.37-8 .36-.54.36-.89.36 5.16.37-3.38.36 6.4.36-.35.36-2.85.36.54.37-.18.36 1.06.36-2.66.36-4.62.36 3.2.37.35.36 4.09.36-9.42.36 5.51.36 1.24.37-4.8.36 3.2.36-2.31.36 8.36.36-3.56.37 3.74.36-3.92.36-4.97.36 9.42.37-10.85.36 1.78.36 2.85.36-3.56.36-1.6.37 12.27.36-13.87.36-69.51.36 3.03h.36l.37 4.09.36-8.89.36 5.86.36 2.14.36-1.25.37 3.2.36-.53.36-1.07.36-14.22.37 15.47.36-8.36.36 12.8.36-9.6.36 3.02.37 8.36.36-4.09.36-8.71.36.18.36 1.95.37 3.2.36-7.64.36 3.91.36 3.91.36-8.18.37 5.34.36-3.03.36 9.6.36-1.95.36-.71.37 1.06.36-2.13.36-1.6.36 3.02.37-1.06.36-.18.36-4.45.36 3.56.36-11.38.37 10.49.36 4.44.36 4.27.36-6.93.36-6.4.37 3.73.36-1.78.36-1.24.36-1.6.36 72.88.37 8.18.36-2.49.36-.71.36-7.82.37 9.07h.36l.36-.54.36-2.13.36.35.37 1.25.36-1.25.36-3.73.36 2.67.36-.18.37 3.2.36-3.2.36 4.62.36-3.91.36 3.73.37-3.91.36-4.09.36 4.63.36-3.74.37 2.67.36 2.67.36 3.73.36-5.69.36-.18.37 2.49.36 7.29.36-16.53.36 1.06.36 10.32.37-6.94.36 7.65.36-5.34.36 4.63.36-7.47.37 5.33.36-.18.36 5.69.36-7.82.36-3.2.37 5.51.36-5.33.36 4.09.36-1.6.37-.89.36 10.31.36-71.82.36-12.8h.36l.37 9.96.36-9.42.36-4.27.36 3.38.36 13.86.37-14.75.36 5.51.36 2.49.36 5.69.36-3.56.37-11.38.36 17.42.36-15.99.36 4.26.37-.18.36 4.8.36-3.37.36-2.85.36 5.51.37-2.66.36-1.43.36 3.03.36-1.43.36 3.92.37-3.38.36-1.42.36 7.28.36-9.77.36-.18.37 6.58.36-10.85.36 10.67.36-3.38.36-1.07.37 3.56.36-7.11.36 7.47.36 3.02.37-6.76.36.71.36 3.56.36-2.31.36-4.62.37 2.66.36 5.34.36-3.03.36-1.77.36 72.88.37-6.58.36 7.11.36 1.25.36-4.62.36 9.06.37-7.46.36-.72.36 3.2.36 1.25.37-8.36.36 6.4.36 1.6.36-2.13.36 7.64.37-5.86.36-.54.36 2.49.36-6.04.36-.71.37 3.91.36-4.8.36 6.58.36 1.42h.36l.37-6.4.36 4.44.36-.71.36 1.25.36.53.37-2.67.36 1.25.36-2.67.36-.71.37 2.84.36 2.32.36-2.49.36-2.67.36.89.37 10.66.36-16.53.36 5.69.36 3.02.36 3.03.37-7.12.36-.35.36-1.78.36 6.76.36-3.2.37 5.51.36-68.26.36-9.43.36-.17.37-5.16.36 5.87.36 7.29.36-2.85.36-9.24.37 1.6.36 4.09.36-3.56.36 5.87.36-6.76.37 1.25.36 5.68.36 3.92.36-9.78.36 8 .37 6.4.36-9.25.36-9.06h.36l.37 9.77.36-1.42.36 1.07.36-.89.36-.89.37 6.4.36-10.84.36 2.66.36 9.25.36-7.29.37-.36.36-2.31.36.71.36 3.74.36 4.44.37.36.36-6.58.36 6.04.36-6.04.36-5.16.37 3.91.36 5.16.36-9.6.36 12.27.37 5.33.36-16.71.36-3.02.36 12.62.36 65.24.37-1.42.36-3.38.36 3.73.36 2.67.36 1.95.37-5.51.36-1.6.36 2.67.36-.89.36 1.78.37 5.51.36-7.64.36 4.26.36 1.25.37-5.51.36 3.02.36-6.05.36 10.31.36-1.06.37-10.31.36 8.53.36 5.33.36-4.62.36-5.69.37 2.31.36-1.77.36 10.48.36 2.49.36-15.64.37 14.04.36-6.75.36-.71.36-2.85.36 4.98.37 5.33.36-15.46.36 8 .36 2.66.37-2.84.36-12.8.36 11.38.36 2.13.36-2.49.37 5.16.36-3.56.36 2.85.36-1.25.36.36.37-2.14.36-75.19.36 2.49.36-.71.36-.72.37 9.43.36-10.85.36 6.76.36-1.07.37-2.49.36-1.06.36 8.71.36-5.16.36 1.07.37 4.44.36-11.55.36.71.36 9.78.36-8.89.37-.71.36 7.64.36-8.36.36-4.08.36 3.91.37 6.22.36 5.15.36-5.86.36-4.98.36 3.73.37-.71.36 1.6.36-7.46.36 6.04.37 4.8.36-6.58.36 8.36.36 6.93.36-14.58.37 2.14.36-6.05.36 4.8.36-1.95.36 5.15.37 5.87.36-11.91.36 1.6.36 8 .36-3.02.37-2.67.36-9.42.36 18.31.36 57.77.37 4.09.36-2.84.36.88.36 4.8.36-6.75.37 4.44.36-8.53.36 12.09.36-10.85.36 5.34.37 4.26.36-6.75.36-.53.36 2.48.36-3.37.37 8 .36-3.74.36-3.02.36 9.25.37-.89.36-3.91.36-.18.36 5.15.36-11.02.37 4.62.36 3.03.36-4.8.36 3.2.36-5.69.37 4.97.36-4.8.36 6.4.36-.53.36.36.37-4.27.36 7.47.36 1.77.36-5.86.36 1.78.37-3.38.36 4.26.36-2.48.36-7.29.37 9.6.36-1.78.36 1.6.36-6.76.36 8 .37-7.64.36-66.49.36-.71.36 6.4.36-6.22.37-1.42.36 1.42.36 5.16.36-10.49.36-4.09.37 11.91.36-1.24.36-9.43.36 1.25.37 13.51.36 1.07.36-8.36.36 10.31.36-7.64.37-1.96.36-7.64.36 9.6.36 6.75.36-10.49.37 4.8h.36l.36-2.31.36 1.25.36-4.09.37 4.26.36-.35.36-9.78.36 14.05.36-3.92.37 1.78.36-4.98.36 5.34.36-12.98.37-2.67.36 15.65.36-.54.36-1.24.36 2.49.37-5.51.36 4.98.36-5.69.36 6.93.36-2.13.37-4.27.36.18.36 3.91.36 65.24.36 1.42.37.36.36 4.09.36-5.34.36 2.85.37-1.6.36 1.42.36 3.02.36-3.91.36-.36.37-4.26.36 1.24.36 5.69.36-6.4.36 1.96.37.35.36 1.96.36-5.34.36 5.69.36-6.57.37 5.86.36 3.91.36-1.95.36-3.02.36-1.6.37 3.2.36-7.47.36 6.22.36 7.29.37-6.93.36 3.2.36-2.49.36-.54.36-5.51.37 6.94.36-5.69.36 13.15.36-14.75.36 5.33.37-2.13.36 11.38.36-7.47.36-6.76.36 2.49.37 9.78.36-4.98.36-3.73.36 6.58.37-.89.36-73.6.36.71.36 1.78.36-5.69.37 2.85.36 2.66.36-4.62.36-1.24.36 2.84.37.89.36-.36.36 10.85.36-9.96.36-4.26.37-6.05.36 14.94.36-.89.36.17.37-8.17.36-2.14.36-1.6.36 6.4.36 3.2.37-4.8.36 2.31.36-6.75.36 3.02.36.36.37 3.02.36 3.02.36-3.91.36-10.49.36 9.42.37 4.98.36-8.71.36 9.78.36-2.31.36-1.6.37 3.55.36 6.58.36-.53.36-13.87.37-5.16.36 2.85.36 7.82.36 1.07.36-6.76.37-1.06.36 4.62.36-.18"/><use xlink:href="#h" color="#29C3F6" transform="matrix(3.75 0 0 3.75 67.83 77.54)"/><use xlink:href="#h" color="#29C3F6" transform="matrix(3.75 0 0 3.75 78.65 22.51)"/></g><text fill="#000" stroke="none" stroke-linecap="round" stroke-linejoin="round" color="#000" font-family="KaTeX_Main" font-size="8" transform="translate(241.1 10.11)"><tspan>AVLRelaxedBottomUp</tspan></text><g fill="none" stroke="currentColor" stroke-linecap="round" stroke-linejoin="round" color="#000"><path stroke="#D336C8" d="M205.6 7.51h29.9M28 83.76l.36-1.77.36 4.44.37-7.82.36 2.31.36 2.84.36-2.66.36 6.93.37-7.82.36 1.24.36 3.2.36-5.86.37-6.4.36 5.51h.36l.36 4.62.36-7.11.37 3.73.36-.53.36 1.24.36 9.42.36-14.22.37 1.07.36-1.78.36 8.71h.36l.36-2.13.37-9.96.36 10.85.36 2.49.36-6.23.36 8 .37-4.8.36-2.31.36.36.36.89.37-1.07.36 2.13.36 1.78.36-4.09.36-4.62.37 6.05.36-5.16.36 7.11.36.71.36-14.75.37 9.77.36 4.98.36-3.02.36-7.64.36 3.2.37 129.41H64.21l.36-118.57.36-12.8.37 9.42.36-8.35.36 3.73.36.89.36.35.37 2.14.36-3.56.36-.71.36 1.42.36 3.56.37-3.56.36 2.67.36-2.67.36 6.4.37-3.55.36.89.36-19.2.36 16.35.36 3.2.37-2.31.36 1.6.36 2.49.36-8 .36 4.98.37 1.06.36-1.6.36 1.78.36 3.2.36-4.09.37-4.97.36 3.37.36 1.78.36 1.07.36-9.07.37 7.47h.36l.36 2.66.36-6.93.37 6.4.36-10.13.36 4.98.36-1.43.36 9.78.37-1.95.36-8.54.36 4.8.36 2.31h.36L82.68 205H100.42l.36-127.81.36 10.31.37-9.43.36 6.05.36-8.18.36 5.33.36 3.2.37-3.2.36 12.27.36-18.13.36 2.49.36 9.42.37-.36.36-7.29.36 5.52.36-9.07.36 9.24.37-5.33.36 8.18.36-3.2.36-2.85.37-8.17.36 6.22h.36l.36-6.22.36 14.75.37-6.93.36 1.24.36-4.8.36 1.78.36.18.37-1.42.36-1.25.36-2.84.36 8.35.36-5.86.37-4.09.36 4.44.36 6.58.36-.18.36-.53.37-4.45.36-3.73.36 11.02.36-6.04.37-1.6.36-3.91.36 13.15.36.89.36-7.11.37 123.37H136.63l.36-126.04.36 9.78.36-8.35.37 7.64.36 2.31.36-8.53.36 8 .37-14.05.36 9.96.36-.71.36-7.29.36 4.62.37-6.22.36 9.78.36-9.6.36.53.36 2.84.37-4.62.36 6.22.36 2.49.36-8.89.36-.53.37 7.47.36-1.25.36-1.95.36-.36.36 7.11.37-4.09.36-2.84.36 3.56.36-8.72.37 7.65.36-.89.36-3.91.36 6.4.36 10.84.37-14.93.36-1.07.36.71.36 1.78.36-3.02.37 7.29.36-2.67.36-1.6.36 3.74.36-1.96.37-.18.36-3.91.36 2.31.36 1.07.37 124.08H172.84l.36-130.13.36 3.03h.36l.37 4.09.36-8.89.36 5.86.36 2.31.36-1.42.37 3.2.36-.53.36-1.07.36-14.22.37 15.47.36-8.36.36 12.8.36-9.6.36 3.02.37 8.36.36-4.09.36-8.71.36.18.36 1.95.37 3.2.36-7.64.36 3.55.36 4.27.36-8.18.37 5.34.36-3.03.36 9.6.36-1.95.36-.71.37 1.06.36-1.95.36-1.78.36 3.02.37-1.06.36-.18.36-4.45.36 3.56.36-11.38.37 10.49.36 4.62.36 4.09.36-6.93.36-6.4.37 3.73.36-1.78.36-1.24.36-1.6.36 130.48H209.05l.36-117.15.36-12.8h.36l.37 9.96.36-9.42.36-4.27.36 3.38.36 13.86.37-14.75.36 5.51.36 2.49.36 5.69.36-3.56.37-11.38.36 17.42.36-15.99.36 4.26.37-.18.36 4.8.36-3.37.36-2.85.36 5.51.37-2.66.36-1.6.36 3.2.36-1.43.36 3.92.37-3.38.36-1.42.36 7.28.36-9.77.36-.18.37 6.58.36-10.85.36 10.67.36-3.38.36-1.07.37 3.56.36-7.11.36 7.47.36 3.02.37-6.76.36.71.36 3.56.36-2.31.36-4.62.37 2.66.36 5.34.36-3.03.36-1.77.36 126.21H245.26l.36-116.61.36-9.43.36-.17.37-5.16.36 5.87.36 7.29.36-2.85.36-9.24.37 1.6.36 4.09.36-3.56.36 5.87.36-6.76.37 1.25.36 5.68.36 3.92.36-9.78.36 8 .37 6.4.36-9.25.36-9.06.36-.36.37 10.13.36-1.42.36 1.07.36-.89.36-.89.37 6.4.36-10.84.36 2.66.36 9.25.36-7.29.37-.36.36-2.31.36.71.36 3.74.36 4.44.37.36.36-6.58.36 6.04.36-6.04.36-5.16.37 3.91.36 5.16.36-9.6.36 12.27.37 5.33.36-16.71.36-3.02.36 12.62.36 119.28H281.47l.36-127.99.36 2.49.36-.71.36-.36.37 9.07.36-10.85.36 6.76.36-1.07.37-2.49.36-1.06.36 8.35.36-4.98.36 1.25.37 4.44.36-11.55.36.35.36 10.14.36-8.89.37-.71.36 7.82.36-8.54.36-3.73.36 3.56.37 6.22.36 5.15.36-6.04.36-4.44.36 3.37.37-.71.36 1.25.36-7.11.36 6.04.37 4.8.36-6.58.36 8.54.36 6.75.36-14.58.37 2.14.36-6.05.36 4.8.36-1.95.36 5.15.37 5.69.36-11.73.36 1.6.36 8 .36-3.02.37-2.67.36-9.42.36 18.31.36 115.19H317.68l.36-123.73.36-.71.36 6.23.36-6.05.37-1.42.36 1.42.36 5.16.36-10.49.36-4.09.37 11.91.36-1.24.36-9.78.36 1.6.37 13.33.36 1.25.36-8.36.36 10.49.36-7.82.37-1.96.36-7.64.36 9.6.36 6.75.36-10.49.37 4.8h.36l.36-2.49.36 1.43.36-4.09.37 4.62.36-.71.36-9.78.36 14.05.36-4.09.37 1.95.36-4.98.36 5.34.36-12.98.37-2.67.36 15.65.36-.54.36-1.24.36 2.49.37-5.51.36 4.98.36-5.69.36 6.93.36-2.13.37-4.27.36.18.36 3.91.36 120.88H353.89l.36-123.55.36.71.36 1.78.36-5.69.37 2.85.36 2.66.36-4.62.36-1.24.36 2.84.37 1.07.36-.54.36 10.85.36-9.96.36-4.26.37-6.05.36 14.94.36-1.07.36.35.37-8.17.36-2.14.36-1.6.36 6.4.36 3.38.37-4.98.36 2.31.36-6.75.36 3.02.36.36.37 3.02.36 3.02.36-3.91.36-10.31.36 9.6.37 4.62.36-8.71.36 9.78.36-2.31.36-1.6.37 3.55.36 6.58.36-.53.36-13.87.37-5.16.36 2.85.36 7.82.36 1.07.36-6.76.37-1.06.36 4.62h.36"/><use xlink:href="#i" color="#D336C8" transform="matrix(3.75 0 0 3.75 125.4 205)"/><use xlink:href="#i" color="#D336C8" transform="matrix(3.75 0 0 3.75 220.55 7.51)"/></g><text fill="#000" stroke="none" stroke-linecap="round" stroke-linejoin="round" color="#000" font-family="KaTeX_Main" font-size="8" transform="translate(241.1 25.11)"><tspan>AVLRelaxedTopDown</tspan></text><g fill="none" stroke="currentColor" stroke-linecap="round" stroke-linejoin="round" color="#000"><path stroke="#3B75EA" stroke-dasharray="4.5,2.0,0.5,2.0,0.5,2.0" d="M205.6 22.51h29.9M28 81.45l.36-2.31.36 4.27.37-4.27.36-4.8.36 9.07.36-1.42.36 4.26.37-8.89.36.18.36 8.53.36-10.13.37-1.6.36 4.09.36-1.42.36 8.71.36-12.27.37-3.55.36 9.6.36 1.95.36 4.27.36-16.71.37 10.13.36-5.87.36 8.89.36-.71.36.71.37-10.84.36 13.33.36-3.2.36-4.44.36-1.25.37 1.43.36 2.31.36-2.31.36 5.86.37-8.71.36 5.33.36.36.36 3.73.36-13.33.37 7.29.36-6.4.36 7.82.36.71.36-7.82.37 7.64.36 3.56.36-6.04.36-1.78.36-1.25.37 130.84H64.21l.36-121.59.36-12.09.37 3.2.36-.18.36 1.25.36 8.71.36-9.07.37 2.67.36-2.67.36.18h.36l.36 9.06.37-7.82.36 2.85.36-5.69.36 9.95.37-3.02.36-2.49.36-18.13.36 19.2.36 3.02.37-5.51.36 7.47.36.89.36-10.32.36 8 .37-1.06.36-3.2.36.35.36 6.4.36-9.06.37-6.94.36 11.56.36-.71.36 6.75.36-15.11.37 5.87.36 1.78.36 2.66.36-3.73.37 4.44.36-12.44.36 11.38.36-5.69.36 9.78.37-3.38.36-11.56.36 7.65.36 1.6.36-1.42.37 126.21H100.42l.36-133.15.36 13.16.37-8 .36 5.33.36-10.49.36 5.51.36 11.38.37-10.84.36 12.26.36-12.26.36-.89.36 8.18.37 1.06.36-10.13.36 13.33.36-16.89.36 9.25.37-2.31.36 8.71.36-8.18.36-1.24.37-5.69.36 2.66.36 7.47.36-14.93.36 16.53.37-3.73.36-4.98.36.18.36 3.55.36-.35.37-4.09.36 3.55.36-7.82.36 6.22.36 4.63.37-10.49.36-1.42.36 9.42.36 1.95.36-1.78.37 1.43.36-6.76.36 12.62.36-7.46.37-5.69.36 2.13.36 6.22.36 8.89.36-11.55.37 125.5H136.63l.36-131.73.36 10.32.36-5.16.37 9.07.36-1.07.36-11.2.36 11.91.37-14.93.36 15.29.36-5.69.36-9.42.36 6.4.37-.72.36-.17.36-.18.36-2.49.36 2.31.37-1.42.36 4.09.36 8.35.36-16.35.36-1.96.37 9.25.36-2.14.36-1.06.36-2.67.36 9.78.37-6.05.36 2.85.36-.18.36-5.33.37 9.06.36-8.71.36-.35.36 6.4.36 7.29.37-13.87.36 7.47.36-7.47.36 2.84.36-1.95.37 9.78.36-4.45.36-3.91.36 3.56.36-5.69.37 4.8.36-4.09.36 2.49.36 5.15.37 121.95H172.84l.36-130.66.36 2.31.36-1.6.37 8.71.36-11.2.36 6.05.36-2.49.36-3.73.37 9.95.36 2.49.36-4.09.36-14.04.37 17.42.36-14.22.36 12.97.36-8 .36.72.37 12.62.36-4.62.36-13.51.36 7.64.36 2.67.37 1.77.36-9.06.36 1.42.36 1.95.36-5.15.37 5.33.36-2.84.36 12.98.36-9.43h.36l.37 3.91.36 4.63.36-6.58.36 4.62.37-3.2.36-2.13.36-1.6.36-1.42.36-12.27.37 13.69.36 4.8.36 1.24.36-3.73.36-2.13.37 3.2.36-3.03.36.18.36-7.11.36 134.57H209.05l.36-119.81.36-7.47.36-2.31.37 6.58.36-6.94.36-2.84.36 1.24.36 12.27.37-9.6.36 2.67.36.88.36 12.09.36-11.02.37-15.46.36 22.93.36-11.91.36 6.22.37-7.47.36 7.29.36-1.07.36-9.06.36 9.42.37-1.07.36-1.06.36-.89.36 3.91.36-.89.37-3.2.36.71.36 9.96.36-11.91.36-6.23.37 9.6.36-6.04.36 9.24h.36l.36-9.24.37 12.62.36-14.04.36 9.95.36 6.4.37-14.75.36 5.15.36 4.45.36-4.8.36-4.8.37 1.06.36 3.91.36 1.43.36-.71.36 124.61H245.26l.36-114.84.36-11.73.36 1.6.37-4.8.36 6.93.36.18.36 3.73.36-10.31.37-4.44.36 9.07.36-7.47.36 11.38.36-11.56.37 5.69.36 3.38.36 6.58.36-10.32.36 3.92.37 7.64.36-6.58.36-8.18.36 2.49.37 5.51.36-7.82.36 6.76.36-.18.36-4.27.37 3.03.36.71.36.53.36-.71.36-4.8.37 4.8.36-3.38.36-3.73.36 4.8.36 5.86.37-2.31.36-9.24.36 10.84.36-1.06.36-6.05.37 2.31.36 5.34.36-7.29.36 12.26.37-.53.36-15.47.36-1.24.36 8.18.36 124.79H281.47l.36-128.17.36-.18.36 1.6.36-.35.37 3.55.36-11.73.36 5.51.36 4.8.37.89.36-1.25.36 8.36.36-9.42.36 1.95.37 6.05.36-10.31.36-1.6.36 16 .36-10.67.37-3.2.36 8.18.36-6.4.36-4.09.36-1.78.37 8.53.36 3.2.36-1.42.36-7.11.36-.89.37 6.22.36-.71.36-7.29.36 4.27.37-1.24.36-1.25.36 8.71.36 5.51.36-16.17.37 6.93.36-6.58.36 2.31.36-4.8.36 11.03.37 3.2.36-8.36.36-2.67.36 9.25.36-1.96.37-1.6.36-6.22.36 15.64.36 115.73H317.68l.36-121.24.36-6.57.36 5.15.36-5.69.37 2.49.36-3.2.36 13.33.36-15.82.36-4.09.37 15.83.36-5.52.36-7.46.36 3.73.37 8.36.36.89.36-14.76.36 17.6.36-7.47.37-2.66.36-1.78.36 1.78.36 13.15.36-13.69.37 4.45.36-2.67.36 1.6.36-2.13.36-2.31.37 3.91.36.71.36-8.53.36 13.68.36-3.91.37-1.77.36-5.69.36 7.46.36-11.73h.37l.36 6.58.36 3.02.36.71.36 2.85.37-5.87.36 8.35.36-9.95.36 8.89.36 2.66.37-13.68.36 4.8.36.35.36 125.86H353.89l.36-131.01.36 3.37.36 3.91.36-3.91.37-3.73.36 6.76.36-4.63.36.18.36 2.67.37 2.13.36-2.84.36 6.4.36-5.51h.36l.37-8.36.36 18.31.36-9.24.36 3.02.37-7.29h.36l.36-3.02.36 3.73.36 10.49.37-9.24.36.88.36-8.17.36 9.42.36-.18.37-1.95.36 3.73.36-7.11.36-.71.36 7.29.37 2.66.36-12.26.36 12.08.36-2.13.36-1.6.37 5.69.36 6.4.36-4.27.36-11.55.37-4.09.36 3.91.36 4.98.36 2.66.36-3.55.37-1.25.36 1.96.36 3.02"/><use xlink:href="#a" color="#3B75EA" transform="matrix(3.75 0 0 3.75 182.98 76.65)"/><use xlink:href="#a" color="#3B75EA" transform="matrix(3.75 0 0 3.75 220.55 22.51)"/></g><path fill="none" stroke="none" stroke-linecap="round" stroke-linejoin="round" stroke-width="0" d="M28 45.01V205M371.99 45.01H28" color="#000"/></svg>