<svg xmlns="http://www.w3.org/2000/svg" xmlns:xlink="http://www.w3.org/1999/xlink" viewBox="0 0 400 200"><path fill="none" d="M0 0h400v200H0z"/><defs><path id="a" stroke="currentColor" stroke-width=".222" d="M-1 0h2M0-1v2"/><path id="b" stroke="currentColor" stroke-width=".222" d="m-1-1 2 2m0-2-2 2"/></defs><g fill="none" stroke-linecap="round" stroke-linejoin="round" stroke-width="0" color="#000"><path d="M63.06 182v-9m0-100.99v9"/><text fill="#000" font-family="Arial" font-size="8" text-anchor="middle" transform="translate(63.06 193.6)"><tspan> 1</tspan></text></g><g fill="none" stroke-linecap="round" stroke-linejoin="round" stroke-width="0" color="#000"><path d="M95.83 182v-9m0-100.99v9"/><text fill="#000" font-family="Arial" font-size="8" text-anchor="middle" transform="translate(95.83 193.6)"><tspan> 2</tspan></text></g><g fill="none" stroke-linecap="round" stroke-linejoin="round" stroke-width="0" color="#000"><path d="M128.61 182v-9m0-100.99v9"/><text fill="#000" font-family="Arial" font-size="8" text-anchor="middle" transform="translate(128.61 193.6)"><tspan> 3</tspan></text></g><g fill="none" stroke-linecap="round" stroke-linejoin="round" stroke-width="0" color="#000"><path d="M161.39 182v-9m0-100.99v9"/><text fill="#000" font-family="Arial" font-size="8" text-anchor="middle" transform="translate(161.39 193.6)"><tspan> 4</tspan></text></g><g fill="none" stroke-linecap="round" stroke-linejoin="round" stroke-width="0" color="#000"><path d="M194.16 182v-9m0-100.99v9"/><text fill="#000" font-family="Arial" font-size="8" text-anchor="middle" transform="translate(194.16 193.6)"><tspan> 5</tspan></text></g><g fill="none" stroke-linecap="round" stroke-linejoin="round" stroke-width="0" color="#000"><path d="M226.94 182v-9m0-100.99v9"/><text fill="#000" font-family="Arial" font-size="8" text-anchor="middle" transform="translate(226.94 193.6)"><tspan> 6</tspan></text></g><g fill="none" stroke-linecap="round" stroke-linejoin="round" stroke-width="0" color="#000"><path d="M259.71 182v-9m0-100.99v9"/><text fill="#000" font-family="Arial" font-size="8" text-anchor="middle" transform="translate(259.71 193.6)"><tspan> 7</tspan></text></g><g fill="none" stroke-linecap="round" stroke-linejoin="round" stroke-width="0" color="#000"><path d="M292.49 182v-9m0-100.99v9"/><text fill="#000" font-family="Arial" font-size="8" text-anchor="middle" transform="translate(292.49 193.6)"><tspan> 8</tspan></text></g><g fill="none" stroke-linecap="round" stroke-linejoin="round" stroke-width="0" color="#000"><path d="M325.26 182v-9m0-100.99v9"/><text fill="#000" font-family="Arial" font-size="8" text-anchor="middle" transform="translate(325.26 193.6)"><tspan> 9</tspan></text></g><g fill="none" stroke-linecap="round" stroke-linejoin="round" stroke-width="0" color="#000"><path d="M358.04 182v-9m0-100.99v9"/><text fill="#000" font-family="Arial" font-size="8" text-anchor="middle" transform="translate(358.04 193.6)"><tspan> 10</tspan></text></g><g fill="none" stroke-linecap="round" stroke-linejoin="round" stroke-width="0" color="#000"><path d="M358.04 182h-9"/><text fill="#000" font-family="Arial" font-size="8" transform="translate(366.43 184.6)"><tspan>0.60</tspan></text></g><g fill="none" stroke-linecap="round" stroke-linejoin="round" stroke-width="0" color="#000"><path d="M358.04 171h-9"/><text fill="#000" font-family="Arial" font-size="8" transform="translate(366.43 173.6)"><tspan>0.62</tspan></text></g><g fill="none" stroke-linecap="round" stroke-linejoin="round" stroke-width="0" color="#000"><path d="M358.04 160h-9"/><text fill="#000" font-family="Arial" font-size="8" transform="translate(366.43 162.6)"><tspan>0.64</tspan></text></g><g fill="none" stroke-linecap="round" stroke-linejoin="round" stroke-width="0" color="#000"><path d="M358.04 149h-9"/><text fill="#000" font-family="Arial" font-size="8" transform="translate(366.43 151.6)"><tspan>0.66</tspan></text></g><g fill="none" stroke-linecap="round" stroke-linejoin="round" stroke-width="0" color="#000"><path d="M358.04 138h-9"/><text fill="#000" font-family="Arial" font-size="8" transform="translate(366.43 140.6)"><tspan>0.68</tspan></text></g><g fill="none" stroke-linecap="round" stroke-linejoin="round" stroke-width="0" color="#000"><path d="M358.04 127h-9"/><text fill="#000" font-family="Arial" font-size="8" transform="translate(366.43 129.6)"><tspan>0.70</tspan></text></g><g fill="none" stroke-linecap="round" stroke-linejoin="round" stroke-width="0" color="#000"><path d="M358.04 116.01h-9"/><text fill="#000" font-family="Arial" font-size="8" transform="translate(366.43 118.61)"><tspan>0.72</tspan></text></g><g fill="none" stroke-linecap="round" stroke-linejoin="round" stroke-width="0" color="#000"><path d="M358.04 105.01h-9"/><text fill="#000" font-family="Arial" font-size="8" transform="translate(366.43 107.61)"><tspan>0.74</tspan></text></g><g fill="none" stroke-linecap="round" stroke-linejoin="round" stroke-width="0" color="#000"><path d="M358.04 94.01h-9"/><text fill="#000" font-family="Arial" font-size="8" transform="translate(366.43 96.61)"><tspan>0.76</tspan></text></g><g fill="none" stroke-linecap="round" stroke-linejoin="round" stroke-width="0" color="#000"><path d="M358.04 83.01h-9"/><text fill="#000" font-family="Arial" font-size="8" transform="translate(366.43 85.61)"><tspan>0.78</tspan></text></g><g fill="none" stroke-linecap="round" stroke-linejoin="round" stroke-width="0" color="#000"><path d="M358.04 72.01h-9"/><text fill="#000" font-family="Arial" font-size="8" transform="translate(366.43 74.61)"><tspan>0.80</tspan></text></g><path fill="none" d="M33.56 72.01V182M358.04 72.01H33.56" color="#000"/><text stroke-linecap="round" stroke-linejoin="round" stroke-width="0" color="#000" font-family="Arial" font-size="8" text-anchor="middle" transform="rotate(-90 69.74 57.27)"><tspan font-weight="bold">Rotations</tspan><tspan> / Operation</tspan></text><text stroke-linecap="round" stroke-linejoin="round" color="#000" font-family="Arial" font-size="8" transform="translate(134.2 30.11)"><tspan>AVLBottomUp</tspan></text><g fill="none" stroke="currentColor" stroke-linecap="round" stroke-linejoin="round" color="#000"><path stroke="#000" d="M97.2 27.51h31.4m-95.04 98.95.33 18.69.33-21.44.32-3.3.33-5.5.33-5.5.33 35.19.32-29.69.33-.55.33 11.55.33 1.64.33 7.7.32 14.85.33-7.7.33 5.5.33-21.44.32-47.3.33 64.89.33-9.35.33-11.54.33 15.94.32-33.54.33 38.49.33-21.99.33 11.54.32 21.45.33-20.9.33-6.05.33-3.84.32 35.74.33-43.44.33 20.34.33-19.79.33-.55.32 24.74.33-9.9.33 7.15.33-20.34.32 18.69.33-36.84.33 20.9.33 11.54.33-1.1.32 23.1.33-4.4.33-30.24.33 13.74.32-6.59.33 10.99.33-8.25.33 3.85.33-1.65.32 1.1.33 9.9.33-40.69.33 26.94.32 14.3.33-21.44.33 6.04.33-3.29.33 32.44.32-36.84.33 37.39.33-17.05.33-32.44.32 17.6.33-9.9.33 37.39.33-29.69.33-29.7.32 54.44.33-16.5.33-12.09.33 10.99.32-5.49.33 1.65.33 21.44.33 1.65.33-15.95.32 1.1.33-18.14.33 3.3.33 34.64.32-53.89.33 23.65.33-33.55.33 44.54.32.55.33-2.75.33-7.69.33 3.29.33 15.95.32-14.3.33-19.79.33 24.74.33 6.6.32-37.94.33-6.05.33 20.35.33 14.29.33-14.29.32 29.69h.33l.33-28.04.33 26.39h.32l.33-24.19.33 8.79.33-15.94.33 2.75.32 1.1.33 6.6.33 2.74.33.55.32-25.29.33 26.39.33 2.2.33-7.14.33 7.69.32-10.44.33-6.05.33 7.7h.33l.32-4.4.33 9.89.33-23.09.33 36.29.33 20.9.32-14.85.33-13.75.33-24.74.33 28.04.32-9.9.33 6.6.33-12.09.33 24.74.33 7.15.32-2.75.33-33.54.33 3.85.33 15.39.32.55.33-17.59.33 11.54.33-15.94.32 9.35.33-9.35.33 17.04.33-20.89.33 12.1.32 25.29.33-9.35.33 6.6.33-28.04.32 25.29.33 6.6.33-28.04.33 4.94.33-30.79.32 17.6.33 11.55.33 17.04.33-7.7.32-43.44.33 47.84.33-13.74.33 1.64.33 7.7.32-34.09.33 35.74.33-1.1.33-16.49.32 10.99.33 3.3.33-12.09.33-3.85.33 31.34.32-20.9.33 5.5.33-5.5.33 13.2.32-3.85.33-5.5.33 8.8.33-25.84.33-1.65.32-14.85.33 22 .33 2.75.33 30.79.32-29.69.33 32.44.33-40.14.33 8.8.32-.55.33 20.34.33-15.4.33-15.39.33-6.6.32 52.79.33-29.7.33 2.75.33-25.84.32 11.55.33-14.85.33 15.4.33 15.94.33 6.05.32-10.45.33-42.34.33 15.95.33 32.44.32-22.54.33 4.95.33 26.39.33 4.4.33-25.29.32-8.8.33 24.74.33-27.49.33-10.45.32 15.4.33-6.6.33 29.69.33-48.39.33 57.74.32-8.25.33-32.44.33 29.69.33-23.09.32 20.34.33-13.19.33-2.2.33-11.55.33 20.89.32 14.3.33-19.79.33-4.95.33 25.84.32-22.54.33-10.45.33 26.39.33-48.94.33 28.05.32 22.54.33-.55.33 3.85.33-45.09.32 29.14.33 18.15.33-2.2.33-36.84.32 28.59.33-3.3.33 1.65.33-10.99.33 6.59.32 6.05.33 1.65.33-17.59.33-5.5.32 35.19.33-4.95.33-13.2.33-14.29.33 6.05.32 6.59.33-7.69.33 2.75.33 11.54.32-9.9.33-10.44.33 32.44.33-32.99.33 25.29.32-14.3.33-10.44.33 15.39.33-16.49.32-13.75.33 41.24.33 3.3.33-46.19.33 17.6.32-10.45.33 22.54.33 7.15.33 2.2.32-9.35.33 14.85.33-15.95.33-8.79.33-9.9.32 28.59.33-15.39.33-7.15.33 8.25.32 19.24.33-11 .33-26.39.33 9.35.33 7.15.32 29.14.33-36.84.33-4.4.33 25.84.32-4.4.33-9.34.33-15.95.33 17.05.32 21.44.33-29.14.33 5.5.33 21.99.33-43.44.32 48.39.33-35.19.33 8.8.33 27.49.32-11 .33-20.34.33 5.5.33 9.34.33-1.1.32-12.09.33-5.5.33 11 .33-1.65.32 10.99.33 12.65.33-13.2.33-43.44.33 58.29.32-17.05.33 8.8.33-13.2.33-15.94.32.55.33 11 .33 2.75.33-29.15.33 32.99.32-17.04.33 7.15.33 15.39.33-9.34.32 10.99.33 1.1.33 24.2.33-29.7.33-32.44.32 41.79.33-11 .33-29.69.33 2.75.32 42.89.33-28.59.33-5.5.33 10.45.32 28.04.33-24.75.33 24.2.33-17.6.33-7.14.32-19.8.33 15.95.33 4.94.33-17.59.32 17.59.33 24.75.33-57.19.33 47.29.33-13.2.32-23.64.33-8.25.33 39.59.33 13.75.32-25.84.33 6.04.33 14.3.33-20.34.33-1.1.32 6.59.33-9.34.33-11 .33 8.25h.32l.33 32.44.33-2.2.33-16.5.33.55.32-20.89.33 13.75h.33l.33-2.2.32 26.94.33-26.94.33 4.39.33 22.55.33-31.34.32 22.54.33-26.39.33 2.2.33 20.34.32 2.75.33-13.2.33 46.75.33-16.5.33-36.84.32-14.3.33 17.05.33 17.59.33-12.65.32 3.3.33 12.1.33-21.99.33-17.6.32 11.55.33 18.14.33 11 .33-7.7.33-1.65h.32l.33-7.7.33 10.45.33-15.39.32 9.89.33-13.74.33 1.1.33-5.5.33 18.14.32 9.35.33-12.1.33 4.95.33 1.65.32 13.75.33-39.04.33 28.59.33-21.99.33-13.75.32 7.15.33 9.9.33 6.04.33 8.25.32 8.8.33-19.24.33 3.84.33-12.64.33 22.54.32-14.84.33 2.2.33.55.33-51.15.32 49.5.33-13.75.33-5.5.33 29.69.33-12.64.32-11.55.33 28.59.33-14.84.33 6.04.32 8.8.33-11 .33 3.3.33 24.75.33-48.94.32 18.7.33 25.29.33-4.4.33-31.89.32 26.94.33-18.14.33-35.2.33 42.89.32-3.85.33 29.15.33-16.5.33-9.9.33-23.09.32 14.3.33 5.49.33 6.6.33-20.34.32 14.29.33 4.4.33 24.75.33-36.29.33 6.59.32-2.74.33-9.35h.33l.33 19.24.32-24.74.33 3.85.33 32.44.33-14.85.33 29.7.32-20.9.33-12.1.33-17.04.33 7.15.32-18.15.33 2.75.33 51.14.33-19.25.33-9.89.32-11 .33 13.74.33-25.84.33 59.94.32-51.69.33 18.69.33 6.05.33-3.3.33-6.04.32-2.2.33 20.89.33-8.8.33-4.4.32-4.94.33 3.29.33-19.79.33 26.39.32-12.09.33-2.2.33 9.34.33-12.09.33 13.74.32 12.65.33-6.6.33-11.55.33 16.5.32-44.54.33 32.99.33-6.04.33 14.29.33-21.44.32 17.04.33-9.34.33-8.25.33-2.75.32 20.89.33-36.29.33 16.5.33 10.99.33-6.59.32 3.85.33 3.84.33-10.99.33 6.05.32 1.1.33 1.65.33 6.59.33 7.7.33-13.75.32-13.19.33 10.45.33 18.69.33 3.3.32-14.3.33 13.2.33-5.5.33-27.49.33 19.79.32-1.1.33 5.5.33-33.54.33 30.24.32-26.39.33 8.25.33 10.45.33-9.35.33 27.49.32-35.74.33 4.4.33 11.55.33-34.1.32 33.55.33-3.3.33 12.09.33 7.7.32 4.95.33-12.65.33-36.29.33 19.25.33 19.24.32 19.8.33-30.79.33 22.54.33-30.79.32 18.14.33-8.24.33 33.54.33-45.09.33-10.45.32 39.59.33-18.69.33-24.75.33 15.95.32 13.74.33 3.3.33-19.24.33 17.04.33 24.2.32-7.15.33-34.64.33 17.04.33 13.75.32-19.24.33-6.6.33 10.99.33-2.74.33-18.7.32 1.1.33 1.65.33 4.95.33-14.85.32 47.84.33-59.94.33 28.6.33 13.74.33 9.9h.32l.33-8.8.33 5.5.33-8.25.32-4.94.33 13.74.33 2.75.33-21.99.33 3.3.32-13.75.33 28.04.33-14.29.33 2.75.32-16.5.33 20.89.33 3.3.33-20.89.32-8.8.33 24.2.33-.55.33 37.94.33-37.39.32-8.25.33-7.15.33-6.6.33 26.39.32 5.5.33-7.15.33-24.19.33 37.39.33.55.32-28.04.33 15.94.33 1.65h.33l.32-26.39.33 19.25.33 20.89.33-12.1.33 13.75.32-26.39.33 12.09.33-9.89.33 10.99.32-3.3.33-24.74.33 9.35.33 32.44.33 4.95.32-22 .33 44.55.33-55.54.33 23.09.32-11 .33-25.84.33 12.65.33 8.79.33-7.69.32 6.6.33-7.15.33 6.6.33-12.1.32 35.74.33-15.95.33 2.2.33-32.44.32 13.75.33 10.99.33 4.4.33 13.75.33 2.75.32-25.29.33-16.5.33 27.49.33 7.7.32-8.8.33-7.14.33 19.24.33-23.09.33 18.69.32-14.3.33 2.75.33 17.05.33-3.85.32-32.99.33 21.44.33-11.54.33-8.25.33-8.25.32 17.05.33 28.59.33-30.24.33 22.54.32-56.64.33 45.64.33-4.39.33-2.75.33 24.19.32-14.3.33-9.89.33-6.05.33 18.14.32-21.44.33 10.45.33 18.14.33-36.29.33 29.14.32 29.7.33-23.65.33 3.85.33 4.4.32-14.3.33-4.95.33 10.45.33-19.24.33-3.85.32-1.1h.33l.33-9.9.33 34.09.32-2.2.33-11 .33-28.04.33 33.54.32-32.99.33 30.24.33 45.65.33-57.74h.33l.32 15.39.33 13.75.33-22.54.33 11.54.32-10.44.33 31.34.33-36.84.33 29.14.33.55.32-6.6.33-22.54.33 13.74.33-28.59.32 30.24.33 3.3.33-2.75.33 3.3.33 18.7.32-8.25.33-8.25.33-9.9.33 12.65.32-11 .33-23.09.33-4.4.33 28.04.33.55.32 11.55.33-19.25.33 3.3.33-28.59.32 30.79.33-4.95.33 6.6.33-7.7.33.55.32 2.75.33 16.5.33 1.1.33-6.05.32 19.8.33-47.84.33 29.69.33-18.14.33-14.3.32 37.39.33-30.79.33 28.59.33-32.99.32-2.2.33 1.65.33-15.4.33 41.24.32-15.39.33 13.74.33 2.75.33-18.69.33 1.65.32 3.3.33-4.4.33-.55.33-9.9.32 5.5.33 11.54.33 15.95.33-1.1.33-.55.32 1.65.33-33.54.33 2.75.33 36.84.32-26.94h.33l.33 22.54.33-18.7.33 27.5.32-39.59.33 26.94.33 1.65.33-14.85.32 16.5.33-23.09.33-16.5.33 11 .33 14.29.32-6.59.33-4.4.33-9.35.33 23.09.32.55.33 9.35.33-16.5.33-10.44.33-21.45.32 32.99.33-9.34.33 7.15.33 12.64.32-7.7.33-2.2.33 12.65.33-18.69.32 16.49.33-1.65.33 6.05.33-17.59.33 4.94.32-12.09.33 13.19.33 23.1.33-54.99.32 29.69.33 2.2.33-46.74.33 40.15.33 26.94.32-15.4.33-2.75.33 2.75.33 1.65.32-24.74.33.55.33 32.99.33-16.5.33 13.2h.32l.33-2.75.33-24.19.33-1.1.32 19.79.33 9.9.33 1.65.33-23.64.33-1.65.32-20.35.33 30.24.33-10.99.33-2.75.32-28.05.33 32.45.33 13.19.33-55.54.33 68.19.32-7.15.33-15.39.33 4.39.33 2.2.32-19.79.33 15.94.33 20.35.33-12.65.33 19.25.32-31.34.33-3.85.33 18.69.33-20.89.32 21.44.33 11 .33-26.39.33 7.69.32.55.33 22.55.33-35.74.33-1.1.33 18.14.32-25.29.33 31.34.33-18.69.33-1.65.32-1.65.33 23.64.33-4.4.33 5.5.33-7.7.32-6.05.33-12.09.33 33.54.33-41.79.32 6.05.33 36.29.33-31.89.33-3.3.33 8.79.32-9.89.33-13.2.33 28.04.33 1.65.32 2.75.33-12.09.33 1.65.33 14.29.33-8.25.32-14.29.33 13.19.33 4.95.33-19.24.32 21.44.33-12.09.33 4.94.33 15.95.33-20.89.32 9.89.33-14.29.33 18.69.33-20.34.32-2.2.33-26.95.33 36.84.33 3.85.33-8.79.32 7.14.33-1.1.33-17.04.33 14.85.32 11.54.33-3.85.33-18.14.33 7.15.32-12.1.33 4.4.33-3.85.33 35.74.33-26.94.32 14.29.33-13.74.33 6.04.33 14.85.32 2.75.33-12.65.33 2.2.33-.55.33-7.14.32-33.55.33 41.79.33 9.9.33-40.69.32 24.74.33-12.64.33 10.45"/><use xlink:href="#a" transform="matrix(4.5 0 0 4.5 355.09 134.7)"/><use xlink:href="#a" transform="matrix(4.5 0 0 4.5 112.9 27.51)"/></g><text stroke-linecap="round" stroke-linejoin="round" color="#000" font-family="Arial" font-size="8" transform="translate(238.4 30.11)"><tspan>AVLTopDown</tspan></text><g fill="none" stroke="currentColor" stroke-linecap="round" stroke-linejoin="round" color="#000"><path stroke="#29C3F6" stroke-dasharray="1.0,2.0" d="M201.4 27.51h31.4M33.56 126.46l.33 18.69.33-21.44.32-3.3.33-5.5.33-5.5.33 35.19.32-29.69.33-.55.33 11.55.33 1.64.33 7.7.32 14.85.33-7.7.33 5.5.33-21.44.32-47.3.33 64.89.33-9.35.33-11.54.33 15.94.32-33.54.33 38.49.33-21.99.33 11.54.32 21.45.33-20.9.33-6.05.33-3.84.32 35.74.33-43.44.33 20.34.33-19.79.33-.55.32 24.74.33-9.9.33 7.15.33-20.34.32 18.69.33-36.84.33 20.9.33 11.54.33-1.1.32 23.1.33-4.4.33-30.24.33 13.74.32-6.59.33 10.99.33-8.25.33 3.85.33-1.65.32 1.1.33 9.9.33-40.69.33 26.94.32 14.3.33-21.44.33 6.04.33-3.29.33 32.44.32-36.84.33 37.39.33-17.05.33-32.44.32 17.6.33-9.9.33 37.39.33-29.69.33-29.7.32 54.44.33-16.5.33-12.09.33 10.99.32-5.49.33 1.65.33 21.44.33 1.65.33-15.95.32 1.1.33-18.14.33 3.3.33 34.64.32-53.89.33 23.65.33-33.55.33 44.54.32.55.33-2.75.33-7.69.33 3.29.33 15.95.32-14.3.33-19.79.33 24.74.33 6.6.32-37.94.33-6.05.33 20.35.33 14.29.33-14.29.32 29.69h.33l.33-28.04.33 26.39h.32l.33-24.19.33 8.79.33-15.94.33 2.75.32 1.1.33 6.6.33 2.74.33.55.32-25.29.33 26.39.33 2.2.33-7.14.33 7.69.32-10.44.33-6.05.33 7.7h.33l.32-4.4.33 9.89.33-23.09.33 36.29.33 20.9.32-14.85.33-13.75.33-24.74.33 28.04.32-9.9.33 6.6.33-12.09.33 24.74.33 7.15.32-2.75.33-33.54.33 3.85.33 15.39.32.55.33-17.59.33 11.54.33-15.94.32 9.35.33-9.35.33 17.04.33-20.89.33 12.1.32 25.29.33-9.35.33 6.6.33-28.04.32 25.29.33 6.6.33-28.04.33 4.94.33-30.79.32 17.6.33 11.55.33 17.04.33-7.7.32-43.44.33 47.84.33-13.74.33 1.64.33 7.7.32-34.09.33 35.74.33-1.1.33-16.49.32 10.99.33 3.3.33-12.09.33-3.85.33 31.34.32-20.9.33 5.5.33-5.5.33 13.2.32-3.85.33-5.5.33 8.8.33-25.84.33-1.65.32-14.85.33 22 .33 2.75.33 30.79.32-29.69.33 32.44.33-40.14.33 8.8.32-.55.33 20.34.33-15.4.33-15.39.33-6.6.32 52.79.33-29.7.33 2.75.33-25.84.32 11.55.33-14.85.33 15.4.33 15.94.33 6.05.32-10.45.33-42.34.33 15.95.33 32.44.32-22.54.33 4.95.33 26.39.33 4.4.33-25.29.32-8.8.33 24.74.33-27.49.33-10.45.32 15.4.33-6.6.33 29.69.33-48.39.33 57.74.32-8.25.33-32.44.33 29.69.33-23.09.32 20.34.33-13.19.33-2.2.33-11.55.33 20.89.32 14.3.33-19.79.33-4.95.33 25.84.32-22.54.33-10.45.33 26.39.33-48.94.33 28.05.32 22.54.33-.55.33 3.85.33-45.09.32 29.14.33 18.15.33-2.2.33-36.84.32 28.59.33-3.3.33 1.65.33-10.99.33 6.59.32 6.05.33 1.65.33-17.59.33-5.5.32 35.19.33-4.95.33-13.2.33-14.29.33 6.05.32 6.59.33-7.69.33 2.75.33 11.54.32-9.9.33-10.44.33 32.44.33-32.99.33 25.29.32-14.3.33-10.44.33 15.39.33-16.49.32-13.75.33 41.24.33 3.3.33-46.19.33 17.6.32-10.45.33 22.54.33 7.15.33 2.2.32-9.35.33 14.85.33-15.95.33-8.79.33-9.9.32 28.59.33-15.39.33-7.15.33 8.25.32 19.24.33-11 .33-26.39.33 9.35.33 7.15.32 29.14.33-36.84.33-4.4.33 25.84.32-4.4.33-9.34.33-15.95.33 17.05.32 21.44.33-29.14.33 5.5.33 21.99.33-43.44.32 48.39.33-35.19.33 8.8.33 27.49.32-11 .33-20.34.33 5.5.33 9.34.33-1.1.32-12.09.33-5.5.33 11 .33-1.65.32 10.99.33 12.65.33-13.2.33-43.44.33 58.29.32-17.05.33 8.8.33-13.2.33-15.94.32.55.33 11 .33 2.75.33-29.15.33 32.99.32-17.04.33 7.15.33 15.39.33-9.34.32 10.99.33 1.1.33 24.2.33-29.7.33-32.44.32 41.79.33-11 .33-29.69.33 2.75.32 42.89.33-28.59.33-5.5.33 10.45.32 28.04.33-24.75.33 24.2.33-17.6.33-7.14.32-19.8.33 15.95.33 4.94.33-17.59.32 17.59.33 24.75.33-57.19.33 47.29.33-13.2.32-23.64.33-8.25.33 39.59.33 13.75.32-25.84.33 6.04.33 14.3.33-20.34.33-1.1.32 6.59.33-9.34.33-11 .33 8.25h.32l.33 32.44.33-2.2.33-16.5.33.55.32-20.89.33 13.75h.33l.33-2.2.32 26.94.33-26.94.33 4.39.33 22.55.33-31.34.32 22.54.33-26.39.33 2.2.33 20.34.32 2.75.33-13.2.33 46.75.33-16.5.33-36.84.32-14.3.33 17.05.33 17.59.33-12.65.32 3.3.33 12.1.33-21.99.33-17.6.32 11.55.33 18.14.33 11 .33-7.7.33-1.65h.32l.33-7.7.33 10.45.33-15.39.32 9.89.33-13.74.33 1.1.33-5.5.33 18.14.32 9.35.33-12.1.33 4.95.33 1.65.32 13.75.33-39.04.33 28.59.33-21.99.33-13.75.32 7.15.33 9.9.33 6.04.33 8.25.32 8.8.33-19.24.33 3.84.33-12.64.33 22.54.32-14.84.33 2.2.33.55.33-51.15.32 49.5.33-13.75.33-5.5.33 29.69.33-12.64.32-11.55.33 28.59.33-14.84.33 6.04.32 8.8.33-11 .33 3.3.33 24.75.33-48.94.32 18.7.33 25.29.33-4.4.33-31.89.32 26.94.33-18.14.33-35.2.33 42.89.32-3.85.33 29.15.33-16.5.33-9.9.33-23.09.32 14.3.33 5.49.33 6.6.33-20.34.32 14.29.33 4.4.33 24.75.33-36.29.33 6.59.32-2.74.33-9.35h.33l.33 19.24.32-24.74.33 3.85.33 32.44.33-14.85.33 29.7.32-20.9.33-12.1.33-17.04.33 7.15.32-18.15.33 2.75.33 51.14.33-19.25.33-9.89.32-11 .33 13.74.33-25.84.33 59.94.32-51.69.33 18.69.33 6.05.33-3.3.33-6.04.32-2.2.33 20.89.33-8.8.33-4.4.32-4.94.33 3.29.33-19.79.33 26.39.32-12.09.33-2.2.33 9.34.33-12.09.33 13.74.32 12.65.33-6.6.33-11.55.33 16.5.32-44.54.33 32.99.33-6.04.33 14.29.33-21.44.32 17.04.33-9.34.33-8.25.33-2.75.32 20.89.33-36.29.33 16.5.33 10.99.33-6.59.32 3.85.33 3.84.33-10.99.33 6.05.32 1.1.33 1.65.33 6.59.33 7.7.33-13.75.32-13.19.33 10.45.33 18.69.33 3.3.32-14.3.33 13.2.33-5.5.33-27.49.33 19.79.32-1.1.33 5.5.33-33.54.33 30.24.32-26.39.33 8.25.33 10.45.33-9.35.33 27.49.32-35.74.33 4.4.33 11.55.33-34.1.32 33.55.33-3.3.33 12.09.33 7.7.32 4.95.33-12.65.33-36.29.33 19.25.33 19.24.32 19.8.33-30.79.33 22.54.33-30.79.32 18.14.33-8.24.33 33.54.33-45.09.33-10.45.32 39.59.33-18.69.33-24.75.33 15.95.32 13.74.33 3.3.33-19.24.33 17.04.33 24.2.32-7.15.33-34.64.33 17.04.33 13.75.32-19.24.33-6.6.33 10.99.33-2.74.33-18.7.32 1.1.33 1.65.33 4.95.33-14.85.32 47.84.33-59.94.33 28.6.33 13.74.33 9.9h.32l.33-8.8.33 5.5.33-8.25.32-4.94.33 13.74.33 2.75.33-21.99.33 3.3.32-13.75.33 28.04.33-14.29.33 2.75.32-16.5.33 20.89.33 3.3.33-20.89.32-8.8.33 24.2.33-.55.33 37.94.33-37.39.32-8.25.33-7.15.33-6.6.33 26.39.32 5.5.33-7.15.33-24.19.33 37.39.33.55.32-28.04.33 15.94.33 1.65h.33l.32-26.39.33 19.25.33 20.89.33-12.1.33 13.75.32-26.39.33 12.09.33-9.89.33 10.99.32-3.3.33-24.74.33 9.35.33 32.44.33 4.95.32-22 .33 44.55.33-55.54.33 23.09.32-11 .33-25.84.33 12.65.33 8.79.33-7.69.32 6.6.33-7.15.33 6.6.33-12.1.32 35.74.33-15.95.33 2.2.33-32.44.32 13.75.33 10.99.33 4.4.33 13.75.33 2.75.32-25.29.33-16.5.33 27.49.33 7.7.32-8.8.33-7.14.33 19.24.33-23.09.33 18.69.32-14.3.33 2.75.33 17.05.33-3.85.32-32.99.33 21.44.33-11.54.33-8.25.33-8.25.32 17.05.33 28.59.33-30.24.33 22.54.32-56.64.33 45.64.33-4.39.33-2.75.33 24.19.32-14.3.33-9.89.33-6.05.33 18.14.32-21.44.33 10.45.33 18.14.33-36.29.33 29.14.32 29.7.33-23.65.33 3.85.33 4.4.32-14.3.33-4.95.33 10.45.33-19.24.33-3.85.32-1.1h.33l.33-9.9.33 34.09.32-2.2.33-11 .33-28.04.33 33.54.32-32.99.33 30.24.33 45.65.33-57.74h.33l.32 15.39.33 13.75.33-22.54.33 11.54.32-10.44.33 31.34.33-36.84.33 29.14.33.55.32-6.6.33-22.54.33 13.74.33-28.59.32 30.24.33 3.3.33-2.75.33 3.3.33 18.7.32-8.25.33-8.25.33-9.9.33 12.65.32-11 .33-23.09.33-4.4.33 28.04.33.55.32 11.55.33-19.25.33 3.3.33-28.59.32 30.79.33-4.95.33 6.6.33-7.7.33.55.32 2.75.33 16.5.33 1.1.33-6.05.32 19.8.33-47.84.33 29.69.33-18.14.33-14.3.32 37.39.33-30.79.33 28.59.33-32.99.32-2.2.33 1.65.33-15.4.33 41.24.32-15.39.33 13.74.33 2.75.33-18.69.33 1.65.32 3.3.33-4.4.33-.55.33-9.9.32 5.5.33 11.54.33 15.95.33-1.1.33-.55.32 1.65.33-33.54.33 2.75.33 36.84.32-26.94h.33l.33 22.54.33-18.7.33 27.5.32-39.59.33 26.94.33 1.65.33-14.85.32 16.5.33-23.09.33-16.5.33 11 .33 14.29.32-6.59.33-4.4.33-9.35.33 23.09.32.55.33 9.35.33-16.5.33-10.44.33-21.45.32 32.99.33-9.34.33 7.15.33 12.64.32-7.7.33-2.2.33 12.65.33-18.69.32 16.49.33-1.65.33 6.05.33-17.59.33 4.94.32-12.09.33 13.19.33 23.1.33-54.99.32 29.69.33 2.2.33-46.74.33 40.15.33 26.94.32-15.4.33-2.75.33 2.75.33 1.65.32-24.74.33.55.33 32.99.33-16.5.33 13.2h.32l.33-2.75.33-24.19.33-1.1.32 19.79.33 9.9.33 1.65.33-23.64.33-1.65.32-20.35.33 30.24.33-10.99.33-2.75.32-28.05.33 32.45.33 13.19.33-55.54.33 68.19.32-7.15.33-15.39.33 4.39.33 2.2.32-19.79.33 15.94.33 20.35.33-12.65.33 19.25.32-31.34.33-3.85.33 18.69.33-20.89.32 21.44.33 11 .33-26.39.33 7.69.32.55.33 22.55.33-35.74.33-1.1.33 18.14.32-25.29.33 31.34.33-18.69.33-1.65.32-1.65.33 23.64.33-4.4.33 5.5.33-7.7.32-6.05.33-12.09.33 33.54.33-41.79.32 6.05.33 36.29.33-31.89.33-3.3.33 8.79.32-9.89.33-13.2.33 28.04.33 1.65.32 2.75.33-12.09.33 1.65.33 14.29.33-8.25.32-14.29.33 13.19.33 4.95.33-19.24.32 21.44.33-12.09.33 4.94.33 15.95.33-20.89.32 9.89.33-14.29.33 18.69.33-20.34.32-2.2.33-26.95.33 36.84.33 3.85.33-8.79.32 7.14.33-1.1.33-17.04.33 14.85.32 11.54.33-3.85.33-18.14.33 7.15.32-12.1.33 4.4.33-3.85.33 35.74.33-26.94.32 14.29.33-13.74.33 6.04.33 14.85.32 2.75.33-12.65.33 2.2.33-.55.33-7.14.32-33.55.33 41.79.33 9.9.33-40.69.32 24.74.33-12.64.33 10.45"/><use xlink:href="#b" color="#29C3F6" transform="matrix(4.5 0 0 4.5 84.69 123.16)"/><use xlink:href="#b" color="#29C3F6" transform="matrix(4.5 0 0 4.5 217.1 27.51)"/></g><path fill="none" d="M33.56 72.01V182M358.04 72.01H33.56" color="#000"/><text stroke-linecap="round" stroke-linejoin="round" stroke-width="0" color="#000" font-family="Arial" font-size="8" text-anchor="middle" transform="translate(195.8 8.61)"><tspan>InsertPersistent - Uniform</tspan></text></svg>