<svg xmlns="http://www.w3.org/2000/svg" xmlns:xlink="http://www.w3.org/1999/xlink" viewBox="0 0 400 200"><path fill="none" d="M0 0h400v200H0z"/><defs><path id="a" stroke="currentColor" stroke-width=".222" d="M-1 0h2M0-1v2"/><path id="b" stroke="currentColor" stroke-width=".222" d="m-1-1 2 2m0-2-2 2"/></defs><g fill="none" stroke-linecap="round" stroke-linejoin="round" stroke-width="0" color="#000"><path d="M63.06 182v-9m0-100.99v9"/><text fill="#000" font-family="Arial" font-size="8" text-anchor="middle" transform="translate(63.06 193.6)"><tspan> 1</tspan></text></g><g fill="none" stroke-linecap="round" stroke-linejoin="round" stroke-width="0" color="#000"><path d="M95.83 182v-9m0-100.99v9"/><text fill="#000" font-family="Arial" font-size="8" text-anchor="middle" transform="translate(95.83 193.6)"><tspan> 2</tspan></text></g><g fill="none" stroke-linecap="round" stroke-linejoin="round" stroke-width="0" color="#000"><path d="M128.61 182v-9m0-100.99v9"/><text fill="#000" font-family="Arial" font-size="8" text-anchor="middle" transform="translate(128.61 193.6)"><tspan> 3</tspan></text></g><g fill="none" stroke-linecap="round" stroke-linejoin="round" stroke-width="0" color="#000"><path d="M161.39 182v-9m0-100.99v9"/><text fill="#000" font-family="Arial" font-size="8" text-anchor="middle" transform="translate(161.39 193.6)"><tspan> 4</tspan></text></g><g fill="none" stroke-linecap="round" stroke-linejoin="round" stroke-width="0" color="#000"><path d="M194.16 182v-9m0-100.99v9"/><text fill="#000" font-family="Arial" font-size="8" text-anchor="middle" transform="translate(194.16 193.6)"><tspan> 5</tspan></text></g><g fill="none" stroke-linecap="round" stroke-linejoin="round" stroke-width="0" color="#000"><path d="M226.94 182v-9m0-100.99v9"/><text fill="#000" font-family="Arial" font-size="8" text-anchor="middle" transform="translate(226.94 193.6)"><tspan> 6</tspan></text></g><g fill="none" stroke-linecap="round" stroke-linejoin="round" stroke-width="0" color="#000"><path d="M259.71 182v-9m0-100.99v9"/><text fill="#000" font-family="Arial" font-size="8" text-anchor="middle" transform="translate(259.71 193.6)"><tspan> 7</tspan></text></g><g fill="none" stroke-linecap="round" stroke-linejoin="round" stroke-width="0" color="#000"><path d="M292.49 182v-9m0-100.99v9"/><text fill="#000" font-family="Arial" font-size="8" text-anchor="middle" transform="translate(292.49 193.6)"><tspan> 8</tspan></text></g><g fill="none" stroke-linecap="round" stroke-linejoin="round" stroke-width="0" color="#000"><path d="M325.26 182v-9m0-100.99v9"/><text fill="#000" font-family="Arial" font-size="8" text-anchor="middle" transform="translate(325.26 193.6)"><tspan> 9</tspan></text></g><g fill="none" stroke-linecap="round" stroke-linejoin="round" stroke-width="0" color="#000"><path d="M358.04 182v-9m0-100.99v9"/><text fill="#000" font-family="Arial" font-size="8" text-anchor="middle" transform="translate(358.04 193.6)"><tspan> 10</tspan></text></g><g fill="none" stroke-linecap="round" stroke-linejoin="round" stroke-width="0" color="#000"><path d="M358.04 182h-9"/><text fill="#000" font-family="Arial" font-size="8" transform="translate(366.43 184.6)"><tspan>0.87</tspan></text></g><g fill="none" stroke-linecap="round" stroke-linejoin="round" stroke-width="0" color="#000"><path d="M358.04 166.29h-9"/><text fill="#000" font-family="Arial" font-size="8" transform="translate(366.43 168.89)"><tspan>0.88</tspan></text></g><g fill="none" stroke-linecap="round" stroke-linejoin="round" stroke-width="0" color="#000"><path d="M358.04 150.57h-9"/><text fill="#000" font-family="Arial" font-size="8" transform="translate(366.43 153.17)"><tspan>0.89</tspan></text></g><g fill="none" stroke-linecap="round" stroke-linejoin="round" stroke-width="0" color="#000"><path d="M358.04 134.86h-9"/><text fill="#000" font-family="Arial" font-size="8" transform="translate(366.43 137.46)"><tspan>0.90</tspan></text></g><g fill="none" stroke-linecap="round" stroke-linejoin="round" stroke-width="0" color="#000"><path d="M358.04 119.15h-9"/><text fill="#000" font-family="Arial" font-size="8" transform="translate(366.43 121.75)"><tspan>0.91</tspan></text></g><g fill="none" stroke-linecap="round" stroke-linejoin="round" stroke-width="0" color="#000"><path d="M358.04 103.44h-9"/><text fill="#000" font-family="Arial" font-size="8" transform="translate(366.43 106.04)"><tspan>0.92</tspan></text></g><g fill="none" stroke-linecap="round" stroke-linejoin="round" stroke-width="0" color="#000"><path d="M358.04 87.72h-9"/><text fill="#000" font-family="Arial" font-size="8" transform="translate(366.43 90.32)"><tspan>0.93</tspan></text></g><g fill="none" stroke-linecap="round" stroke-linejoin="round" stroke-width="0" color="#000"><path d="M358.04 72.01h-9"/><text fill="#000" font-family="Arial" font-size="8" transform="translate(366.43 74.61)"><tspan>0.94</tspan></text></g><path fill="none" d="M33.56 72.01V182M358.04 72.01H33.56" color="#000"/><text stroke-linecap="round" stroke-linejoin="round" stroke-width="0" color="#000" font-family="Arial" font-size="8" text-anchor="middle" transform="rotate(-90 69.74 57.27)"><tspan font-weight="bold">AveragePathLength </tspan><tspan> / log</tspan><tspan dy="2.4" font-size="6.4">2</tspan><tspan dy="-2.4">Size</tspan></text><text stroke-linecap="round" stroke-linejoin="round" color="#000" font-family="Arial" font-size="8" transform="translate(134.2 30.11)"><tspan>AVLBottomUp</tspan></text><g fill="none" stroke="currentColor" stroke-linecap="round" stroke-linejoin="round" color="#000"><path stroke="#000" d="M97.2 27.51h31.4M33.56 171.74l.33.24.33 1.06.32-4.86.33-9.45.33-2.63.33 2.19.32.54.33-3.9.33-2.89.33-.94.33-6.1.32-2.12.33-.77.33-3.28.33 8.93.32-2.79.33-3.69.33-2.14.33-3.82.33-3.05.32 14.94.33-1.85.33-2.81.33-.97.32-1.18.33-1.75.33-2.74.33 11.45.32-1.28.33-1.48.33-.74.33-1.65.33-2.17.32-2.49.33-3.09.33-2.06.33-1.05.32-2.04.33-2.54.33 6.84.33-.9.33-1.37.32-1.32.33 1.93.33-1.01.33-1.13.32-1.34.33 11.51.33-.41.33-.79.33-.88.32-1.09.33-1.27.33-.9.33.12.32-1.17.33-1.45.33-1.64.33-1.78.33-2.01.32.68.33-1.59.33-1.78.33-2.01.32-1.11.33-1.83.33 3.39.33-.72.33-1.5.32-1.45.33 5.36.33-.72.33-.99.32-.86.33-1.04.33 1 .33-.57.33-.75.32-.66.33-.86.33-.97.33-.94.32-1.09.33-.61.33 14.95.33-.4.32-.53.33-.63.33-.6.33-.74.33-1.37.32-.7.33-.43.33-.93.33-1.02.32-1.1.33 1.31.33-.25.33-.82.33-.63.32-.65.33.15.33-.47.33 7.38.32-.14.33-.22.33-.19.33-.34.33-.36.32-.37.33-.45.33-.52.33 1.4.32-.36.33-.44.33-.48.33-.58.33-.42.32-.24.33-.29.33-.31.33-.43.32-.46.33-.22.33-.54.33-.62.33-.64.32-.72.33.69.33 1.51.33-.29.32-.38.33-.45.33-.46.33-.52.33-.58.32-.63.33-2.31.33-.31.33-.29.32-.32.33-.41.33-.4.33-.53.32-.51.33-.56.33.37.33-.45.33-.45.32-.53.33-.52.33-.58.33-.55.32 3.84.33-.13.33-.18.33-.2.33-.25.32-.13.33-.27.33-.29.33-.33.32-.36.33-.05.33-.31.33-.34.33-.38.32-.44.33-.42.33-.48.33-.48.32-.47.33-.5.33-.54.33-1.05.33 18.4.32-.16.33-.23.33-.24.33-.33.32-.29.33-.3.33-.36.33-.37.33-.42.32-.46.33-.5.33 1.9.33-.24.32-.29.33-.29.33-.3.33-.45.32-.31.33-.36.33-.46.33-1.25.33-.2.32-1.68.33.2.33.21.33.15.32.14.33.09.33.07.33.1.33.09.32-.59.33.57.33.02.33-.01.32-.01h.33l.33-.02.33-.05.33-.08.32-.07.33-.08.33-.09.33.92.32-.07.33-.09.33-.11.33-.12.33-.12.32-.16.33-.13.33-.18.33-.17.32-.23.33-.2.33-.23.33-.27.33-.26.32-.29.33-.31.33-.34.33-.34.32-.36.33-.38.33-.38.33-.4.33-.41.32-.43.33-.44.33-.48.33 1.35.32-.3.33-.34.33-.33.33-.33.32 1.34.33-.3.33-.3.33-.32.33-.33.32-.35.33-.36.33-.33.33-.38.32-.38.33-.36.33-.43.33 2.88.33-.19.32-.22.33-.19.33-.25.33-.25.32-.26.33-.26.33-.27.33-.3.33-.31.32-.3.33-.29.33-.32.33-.34.32-.36.33 2.11.33-.08.33-.13.33-.12.32-.08.33-.1.33-.16.33-.16.32-.19.33-.18.33-.2.33-.2.33-.2.32-.22.33-.22.33-.21.33-.23.32.93.33-.15.33-.17.33-.19.33-.19.32-.21.33-.21.33-.22.33-.24.32-.23.33-.25.33-.27.33-.25.32-.27.33 9.94.33-.11.33-.09.33-.08.32-.09.33-.24.33-.13.33-.12.32-.13.33-.2.33-.14.33-.16.33-.17.32-.17.33-.18.33-.18.33 1.35.32-.09.33-.1.33-.09.33-.12.33-.11.32-.13.33-.12.33-.15.33-.16.32-.14.33-.14.33-.18.33-.18.33-.16.32-.19.33-.17.33-.19.33-.16.32-.18.33-.17.33-.21.33-.21.33-.21.32-.25.33 2.95.33-.09.33-.08.32-.08.33-.09.33-.09.33-.06.32-.1.33-.08.33-.11.33-.06.33-.16.32-.13.33-.14.33-.13.33-.14.32-.13.33-.16.33-.17.33-.16.33-.16.32-.17.33-.18.33-.19.33-.2.32.63.33-.12.33-.11.33-.12.33-.13.32-.11.33-.13.33-.13.33-.14.32-.14.33-.15.33-.15.33.17.33-.14.32-.13.33-.16.33-.14.33-.15.32-.15.33-.15.33-.16.33-.16.33-.19.32-.15.33-.18.33-.19.33-.19.32-.18.33-.2.33-.2.33-.22.33-.22.32-.22.33-.22.33-.23.33-.25.32-.24.33-.24.33-.4.33-.26.32-.19.33-.26.33-.73.33-.19.33-.2.32-.18.33-.18.33-.2.33-.19.32-.2.33-.19.33-.18.33-.22.33-.21.32-.22.33-.21.33-.2.33-.22.32-.22.33-.22.33-.22.33-.24.33-.24.32-.23.33-.23.33-.24.33-.25.32-.24.33-.28.33 1.31.33 7.24.33-.1.32-.09.33-.11.33-.09.33-.11.32-.11.33-.12.33-.11.33-.13.33-.13.32-.14.33-.14.33-.16.33-.15.32-.17.33-.18.33-.16.33-.17.33-.17.32-.17.33-.19.33-.2.33-.19.32-.18.33-.19.33-.21.33-.2.32.25.33-.19.33-.2.33-.19.33-.19.32-.21.33.61.33-.1.33-.1.32-.1.33-.1.33-.1.33-.12.33-.11.32-.11.33-.12.33-.11.33-.11.32-.14.33-.13.33-.13.33-.12.33-.14.32-.11.33-.14.33-.14.33-.17.32-.17.33-.14.33-.16.33-.16.33-.15.32-.15.33 10.02.33-.03.33-.03h.32l.33-.03.33-.03.33-.05.33-.04.32-.03.33-.04.33-.04.33-.05.32-.05.33-.05.33-.07.33-.07.32-.07.33-.09.33-.07.33-.07.33-.07.32-.08.33-.07.33-.1.33-.1.32-.09.33-.09.33-.11.33-.1.33-.11.32-.11.33-.14.33-.1.33-.13.32-.11.33-.1.33-.14.33-.16.33.01.32-.13.33-.12.33-.11.33-.14.32-.13.33-.12.33-.13.33-.13.33-.12.32-.15.33-.14.33-.13.33-.13.32-.13.33-.14.33-.15.33-.16.33-.15.32-.15.33-.16.33-.16.33-.16.32-.16.33-.16.33-.16.33-.18.33-.18.32-.21.33.06.33-.12.33-.13.32-.13.33-.14.33.84.33-.11.32-.11.33-.1.33-.11.33.45.33-.08.32-.08.33-.08.33-.08.33-.07.32-.09.33-.08.33-.09.33-.1.33-.08.32-.09.33-.09.33-.09.33-.09.32-.09.33-.11.33-.1.33-.09.33-.03.32-.03.33-.11.33-.13.33-.11.32-.12.33-.1.33-.11.33-.06.33 6.42.32-.03.33-.03.33-.04.33-.03.32-.04.33-.03.33-.04.33-.04.33-.04.32-.04.33-.04.33-.05.33-.05.32-.05.33-.06.33-.04.33-.06.33-.05.32.25.33-.06.33-.03.33-.05.32-.06.33-.07.33-.05.33-.05.32-.07.33-.06.33-.03.33-.07.33-.04.32-.07.33-.07.33-.06.33-.06.32-.06.33-.07.33-.08.33-.07.33-.07.32-.07.33-.08.33-.08.33-.08.32-.09.33-.08.33-.08.33-.05.33-.09.32-.09.33-.09.33-.09.33-.08.32-.1.33-.09.33.29.33-.06.33-.07.32-.07.33-.07.33-.08.33-.08.32-.07.33-.07.33-.07.33-.08.33-.07.32-.09.33-.09.33-.08.33-.08.32-.08.33-.09.33-.09.33-.09.32-.09.33-.1.33-.1.33-.09.33-.35.32-.1.33-.1.33-.1.33-.11.32-.09.33-.12.33-.11.33-.12.33-.12.32-.11.33-.12.33-.12.33-.18.32-.08.33-.12.33-.13.33-.13.33-.11.32-.14.33-.13.33-.12.33-.14.32-.17.33-.13.33-.1.33-.14.33-.14.32-.14.33-.15.33-.14.33.15.32-.08.33-.09.33-.01.33-.09.33-.09.32-.09.33-.09.33-.09.33-.38.32-.07.33-.08.33-.09.33-.09.33-.08.32-.09.33-.09.33-.09.33-.09.32-.09.33-.09.33.55.33-.01.32-.02.33-.02.33-.03.33-.02.33-.02.32-.02.33-.03.33-.02.33-.03.32-.02.33-.04.33-.03.33-.02.33-.04.32-.03.33-.03.33-.03h.33l.32-.02.33-.04.33-.04.33-.03.33-.05.32-.06.33-.05.33-.04.33-.04.32-.05.33-.04.33-.05.33-.05.33-.05.32-.04.33-.06.33-.05.33-.05.32-.05.33-.16.33-.05.33-.05.33-.07.32-.07.33-.05.33-.05.33-.06.32-.06.33-.06.33-.06.33-.02.33-.06.32-.07.33-.06.33-.07.33-.07.32-.06.33-.08.33-.06.33-.08.32-.06.33-.07.33-.07.33-.08.33-.07.32-.03.33-.07.33-.08.33-.08.32-.08.33-.08.33-.08.33-.08.33-.08.32-.09.33-.09.33-.08.33-.08.32-.08.33-.08.33-.09.33-.08.33-.09.32-.09.33-.09.33-.09.33-.09.32-.09.33-.1.33-.1.33-.09.33-.1.32-.09.33-.11.33-.09.33-.11.32-.1.33-.1.33-.1.33-.1.33-.1.32-.09.33-.11.33-.11.33-.1.32-.1.33-.11.33-.11.33-.11.32-.12.33-.11.33-.12.33-.11.33-.12.32-.11.33-.12.33-.12.33-.12.32-.12.33-.12.33-.12.33-.12.33-.12.32-.13.33-.12.33-.12.33-.12.32-.13.33-.12.33 9.53.33-.05.33-.06.32-.05.33-.05.33-.05.33-.05.32-.05.33-.05.33-.06.33-.05.33-.06.32-.06.33-.07.33-.06.33-.06.32-.07.33-.09.33-.06.33-.06.33-.07.32-.06.33-.07.33-.07.33-.07.32-.07.33-.08.33-.08.33-.07.33-.08.32-.07.33-.08.33-.02.33-.08.32-.07.33-.09.33-.07.33-.08.32-.09.33-.08.33-.09.33-.08.33-.09.32-.08.33-.09.33-.09.33-.04.32-.09.33-.09.33-.09.33-.07.33-.09.32-.09.33-.1.33-.1.33-.1.32-.09.33-.1.33-.1.33 2.36.33-.05.32-.04.33-.04.33-.04.33-.04.32-.05.33-.05.33-.05.33-.05.33-.05.32-.05.33-.04.33-.05.33-.06.32-.04.33-.05.33-.06.33-.06.33-.06.32-.06.33-.06.33-.05.33-.06.32-.07.33-.06.33-.06.33-.06.33-.06.32-.06.33-.07.33-.06.33-.07.32-.07.33-.07.33-.07.33-.07.32-.07.33-.07.33-.07.33-.07.33-.08.32-.08.33-.07.33-.07.33-.09.32-.08.33-.08.33-.09.33-.07.33-.08.32-.08.33-.09.33-.08.33-.08.32-.08.33-.08.33-.09"/><use xlink:href="#a" transform="matrix(4.5 0 0 4.5 355.09 92.2)"/><use xlink:href="#a" transform="matrix(4.5 0 0 4.5 112.9 27.51)"/></g><text stroke-linecap="round" stroke-linejoin="round" color="#000" font-family="Arial" font-size="8" transform="translate(238.4 30.11)"><tspan>AVLTopDown</tspan></text><g fill="none" stroke="currentColor" stroke-linecap="round" stroke-linejoin="round" color="#000"><path stroke="#29C3F6" stroke-dasharray="1.0,2.0" d="M201.4 27.51h31.4M33.56 171.74l.33.24.33 1.06.32-4.86.33-9.45.33-2.63.33 2.19.32.54.33-3.9.33-2.89.33-.94.33-6.1.32-2.12.33-.77.33-3.28.33 8.93.32-2.79.33-3.69.33-2.14.33-3.82.33-3.05.32 14.94.33-1.85.33-2.81.33-.97.32-1.18.33-1.75.33-2.74.33 11.45.32-1.28.33-1.48.33-.74.33-1.65.33-2.17.32-2.49.33-3.09.33-2.06.33-1.05.32-2.04.33-2.54.33 6.84.33-.9.33-1.37.32-1.32.33 1.93.33-1.01.33-1.13.32-1.34.33 11.51.33-.41.33-.79.33-.88.32-1.09.33-1.27.33-.9.33.12.32-1.17.33-1.45.33-1.64.33-1.78.33-2.01.32.68.33-1.59.33-1.78.33-2.01.32-1.11.33-1.83.33 3.39.33-.72.33-1.5.32-1.45.33 5.36.33-.72.33-.99.32-.86.33-1.04.33 1 .33-.57.33-.75.32-.66.33-.86.33-.97.33-.94.32-1.09.33-.61.33 14.95.33-.4.32-.53.33-.63.33-.6.33-.74.33-1.37.32-.7.33-.43.33-.93.33-1.02.32-1.1.33 1.31.33-.25.33-.82.33-.63.32-.65.33.15.33-.47.33 7.38.32-.14.33-.22.33-.19.33-.34.33-.36.32-.37.33-.45.33-.52.33 1.4.32-.36.33-.44.33-.48.33-.58.33-.42.32-.24.33-.29.33-.31.33-.43.32-.46.33-.22.33-.54.33-.62.33-.64.32-.72.33.69.33 1.51.33-.29.32-.38.33-.45.33-.46.33-.52.33-.58.32-.63.33-2.31.33-.31.33-.29.32-.32.33-.41.33-.4.33-.53.32-.51.33-.56.33.37.33-.45.33-.45.32-.53.33-.52.33-.58.33-.55.32 3.84.33-.13.33-.18.33-.2.33-.25.32-.13.33-.27.33-.29.33-.33.32-.36.33-.05.33-.31.33-.34.33-.38.32-.44.33-.42.33-.48.33-.48.32-.47.33-.5.33-.54.33-1.05.33 18.4.32-.16.33-.23.33-.24.33-.33.32-.29.33-.3.33-.36.33-.37.33-.42.32-.46.33-.5.33 1.9.33-.24.32-.29.33-.29.33-.3.33-.45.32-.31.33-.36.33-.46.33-1.25.33-.2.32-1.68.33.2.33.21.33.15.32.14.33.09.33.07.33.1.33.09.32-.59.33.57.33.02.33-.01.32-.01h.33l.33-.02.33-.05.33-.08.32-.07.33-.08.33-.09.33.92.32-.07.33-.09.33-.11.33-.12.33-.12.32-.16.33-.13.33-.18.33-.17.32-.23.33-.2.33-.23.33-.27.33-.26.32-.29.33-.31.33-.34.33-.34.32-.36.33-.38.33-.38.33-.4.33-.41.32-.43.33-.44.33-.48.33 1.35.32-.3.33-.34.33-.33.33-.33.32 1.34.33-.3.33-.3.33-.32.33-.33.32-.35.33-.36.33-.33.33-.38.32-.38.33-.36.33-.43.33 2.88.33-.19.32-.22.33-.19.33-.25.33-.25.32-.26.33-.26.33-.27.33-.3.33-.31.32-.3.33-.29.33-.32.33-.34.32-.36.33 2.11.33-.08.33-.13.33-.12.32-.08.33-.1.33-.16.33-.16.32-.19.33-.18.33-.2.33-.2.33-.2.32-.22.33-.22.33-.21.33-.23.32.93.33-.15.33-.17.33-.19.33-.19.32-.21.33-.21.33-.22.33-.24.32-.23.33-.25.33-.27.33-.25.32-.27.33 9.94.33-.11.33-.09.33-.08.32-.09.33-.24.33-.13.33-.12.32-.13.33-.2.33-.14.33-.16.33-.17.32-.17.33-.18.33-.18.33 1.35.32-.09.33-.1.33-.09.33-.12.33-.11.32-.13.33-.12.33-.15.33-.16.32-.14.33-.14.33-.18.33-.18.33-.16.32-.19.33-.17.33-.19.33-.16.32-.18.33-.17.33-.21.33-.21.33-.21.32-.25.33 2.95.33-.09.33-.08.32-.08.33-.09.33-.09.33-.06.32-.1.33-.08.33-.11.33-.06.33-.16.32-.13.33-.14.33-.13.33-.14.32-.13.33-.16.33-.17.33-.16.33-.16.32-.17.33-.18.33-.19.33-.2.32.63.33-.12.33-.11.33-.12.33-.13.32-.11.33-.13.33-.13.33-.14.32-.14.33-.15.33-.15.33.17.33-.14.32-.13.33-.16.33-.14.33-.15.32-.15.33-.15.33-.16.33-.16.33-.19.32-.15.33-.18.33-.19.33-.19.32-.18.33-.2.33-.2.33-.22.33-.22.32-.22.33-.22.33-.23.33-.25.32-.24.33-.24.33-.4.33-.26.32-.19.33-.26.33-.73.33-.19.33-.2.32-.18.33-.18.33-.2.33-.19.32-.2.33-.19.33-.18.33-.22.33-.21.32-.22.33-.21.33-.2.33-.22.32-.22.33-.22.33-.22.33-.24.33-.24.32-.23.33-.23.33-.24.33-.25.32-.24.33-.28.33 1.31.33 7.24.33-.1.32-.09.33-.11.33-.09.33-.11.32-.11.33-.12.33-.11.33-.13.33-.13.32-.14.33-.14.33-.16.33-.15.32-.17.33-.18.33-.16.33-.17.33-.17.32-.17.33-.19.33-.2.33-.19.32-.18.33-.19.33-.21.33-.2.32.25.33-.19.33-.2.33-.19.33-.19.32-.21.33.61.33-.1.33-.1.32-.1.33-.1.33-.1.33-.12.33-.11.32-.11.33-.12.33-.11.33-.11.32-.14.33-.13.33-.13.33-.12.33-.14.32-.11.33-.14.33-.14.33-.17.32-.17.33-.14.33-.16.33-.16.33-.15.32-.15.33 10.02.33-.03.33-.03h.32l.33-.03.33-.03.33-.05.33-.04.32-.03.33-.04.33-.04.33-.05.32-.05.33-.05.33-.07.33-.07.32-.07.33-.09.33-.07.33-.07.33-.07.32-.08.33-.07.33-.1.33-.1.32-.09.33-.09.33-.11.33-.1.33-.11.32-.11.33-.14.33-.1.33-.13.32-.11.33-.1.33-.14.33-.16.33.01.32-.13.33-.12.33-.11.33-.14.32-.13.33-.12.33-.13.33-.13.33-.12.32-.15.33-.14.33-.13.33-.13.32-.13.33-.14.33-.15.33-.16.33-.15.32-.15.33-.16.33-.16.33-.16.32-.16.33-.16.33-.16.33-.18.33-.18.32-.21.33.06.33-.12.33-.13.32-.13.33-.14.33.84.33-.11.32-.11.33-.1.33-.11.33.45.33-.08.32-.08.33-.08.33-.08.33-.07.32-.09.33-.08.33-.09.33-.1.33-.08.32-.09.33-.09.33-.09.33-.09.32-.09.33-.11.33-.1.33-.09.33-.03.32-.03.33-.11.33-.13.33-.11.32-.12.33-.1.33-.11.33-.06.33 6.42.32-.03.33-.03.33-.04.33-.03.32-.04.33-.03.33-.04.33-.04.33-.04.32-.04.33-.04.33-.05.33-.05.32-.05.33-.06.33-.04.33-.06.33-.05.32.25.33-.06.33-.03.33-.05.32-.06.33-.07.33-.05.33-.05.32-.07.33-.06.33-.03.33-.07.33-.04.32-.07.33-.07.33-.06.33-.06.32-.06.33-.07.33-.08.33-.07.33-.07.32-.07.33-.08.33-.08.33-.08.32-.09.33-.08.33-.08.33-.05.33-.09.32-.09.33-.09.33-.09.33-.08.32-.1.33-.09.33.29.33-.06.33-.07.32-.07.33-.07.33-.08.33-.08.32-.07.33-.07.33-.07.33-.08.33-.07.32-.09.33-.09.33-.08.33-.08.32-.08.33-.09.33-.09.33-.09.32-.09.33-.1.33-.1.33-.09.33-.35.32-.1.33-.1.33-.1.33-.11.32-.09.33-.12.33-.11.33-.12.33-.12.32-.11.33-.12.33-.12.33-.18.32-.08.33-.12.33-.13.33-.13.33-.11.32-.14.33-.13.33-.12.33-.14.32-.17.33-.13.33-.1.33-.14.33-.14.32-.14.33-.15.33-.14.33.15.32-.08.33-.09.33-.01.33-.09.33-.09.32-.09.33-.09.33-.09.33-.38.32-.07.33-.08.33-.09.33-.09.33-.08.32-.09.33-.09.33-.09.33-.09.32-.09.33-.09.33.55.33-.01.32-.02.33-.02.33-.03.33-.02.33-.02.32-.02.33-.03.33-.02.33-.03.32-.02.33-.04.33-.03.33-.02.33-.04.32-.03.33-.03.33-.03h.33l.32-.02.33-.04.33-.04.33-.03.33-.05.32-.06.33-.05.33-.04.33-.04.32-.05.33-.04.33-.05.33-.05.33-.05.32-.04.33-.06.33-.05.33-.05.32-.05.33-.16.33-.05.33-.05.33-.07.32-.07.33-.05.33-.05.33-.06.32-.06.33-.06.33-.06.33-.02.33-.06.32-.07.33-.06.33-.07.33-.07.32-.06.33-.08.33-.06.33-.08.32-.06.33-.07.33-.07.33-.08.33-.07.32-.03.33-.07.33-.08.33-.08.32-.08.33-.08.33-.08.33-.08.33-.08.32-.09.33-.09.33-.08.33-.08.32-.08.33-.08.33-.09.33-.08.33-.09.32-.09.33-.09.33-.09.33-.09.32-.09.33-.1.33-.1.33-.09.33-.1.32-.09.33-.11.33-.09.33-.11.32-.1.33-.1.33-.1.33-.1.33-.1.32-.09.33-.11.33-.11.33-.1.32-.1.33-.11.33-.11.33-.11.32-.12.33-.11.33-.12.33-.11.33-.12.32-.11.33-.12.33-.12.33-.12.32-.12.33-.12.33-.12.33-.12.33-.12.32-.13.33-.12.33-.12.33-.12.32-.13.33-.12.33 9.53.33-.05.33-.06.32-.05.33-.05.33-.05.33-.05.32-.05.33-.05.33-.06.33-.05.33-.06.32-.06.33-.07.33-.06.33-.06.32-.07.33-.09.33-.06.33-.06.33-.07.32-.06.33-.07.33-.07.33-.07.32-.07.33-.08.33-.08.33-.07.33-.08.32-.07.33-.08.33-.02.33-.08.32-.07.33-.09.33-.07.33-.08.32-.09.33-.08.33-.09.33-.08.33-.09.32-.08.33-.09.33-.09.33-.04.32-.09.33-.09.33-.09.33-.07.33-.09.32-.09.33-.1.33-.1.33-.1.32-.09.33-.1.33-.1.33 2.36.33-.05.32-.04.33-.04.33-.04.33-.04.32-.05.33-.05.33-.05.33-.05.33-.05.32-.05.33-.04.33-.05.33-.06.32-.04.33-.05.33-.06.33-.06.33-.06.32-.06.33-.06.33-.05.33-.06.32-.07.33-.06.33-.06.33-.06.33-.06.32-.06.33-.07.33-.06.33-.07.32-.07.33-.07.33-.07.33-.07.32-.07.33-.07.33-.07.33-.07.33-.08.32-.08.33-.07.33-.07.33-.09.32-.08.33-.08.33-.09.33-.07.33-.08.32-.08.33-.09.33-.08.33-.08.32-.08.33-.08.33-.09"/><use xlink:href="#b" color="#29C3F6" transform="matrix(4.5 0 0 4.5 84.69 113.74)"/><use xlink:href="#b" color="#29C3F6" transform="matrix(4.5 0 0 4.5 217.1 27.51)"/></g><path fill="none" d="M33.56 72.01V182M358.04 72.01H33.56" color="#000"/><text stroke-linecap="round" stroke-linejoin="round" stroke-width="0" color="#000" font-family="Arial" font-size="8" text-anchor="middle" transform="translate(195.8 8.61)"><tspan>Insert - Skewed</tspan></text></svg>