<svg xmlns="http://www.w3.org/2000/svg" xmlns:xlink="http://www.w3.org/1999/xlink" viewBox="0 0 400 250"><path fill="none" d="M0 0h400v250H0z"/><defs><path id="c" stroke="currentColor" stroke-width=".267" d="M-1 0h2M0-1v2"/><path id="b" stroke="currentColor" stroke-width=".267" d="M-1-1h2v2h-2z"/><path id="a" stroke="currentColor" stroke-width=".267" d="m0-1.33-1.33 2h2.66z"/><path id="e" stroke="currentColor" stroke-width=".267" d="M0 1.33 1.265.411.782-1.067l-1.564-.009-.483 1.487z"/><circle id="d" cx="0" cy="0" r="1" stroke="currentColor" stroke-width=".267"/></defs><path fill="none" stroke="#333" stroke-linecap="round" stroke-linejoin="round" stroke-width=".1" d="M46.1 205V45.01" class="gridline" color="#000"/><g fill="none" stroke-linecap="round" stroke-linejoin="round" stroke-width="0" color="#000"><path d="M46.1 205v-7.5m0-152.49v7.5"/><text fill="#000" font-family="KaTeX_Main" font-size="10" text-anchor="middle" transform="translate(46.1 215.75)"><tspan> 1</tspan></text></g><path fill="none" stroke="#333" stroke-linecap="round" stroke-linejoin="round" stroke-width=".1" d="M82.31 205V45.01" class="gridline" color="#000"/><g fill="none" stroke-linecap="round" stroke-linejoin="round" stroke-width="0" color="#000"><path d="M82.31 205v-7.5m0-152.49v7.5"/><text fill="#000" font-family="KaTeX_Main" font-size="10" text-anchor="middle" transform="translate(82.31 215.75)"><tspan> 2</tspan></text></g><path fill="none" stroke="#333" stroke-linecap="round" stroke-linejoin="round" stroke-width=".1" d="M118.52 205V45.01" class="gridline" color="#000"/><g fill="none" stroke-linecap="round" stroke-linejoin="round" stroke-width="0" color="#000"><path d="M118.52 205v-7.5m0-152.49v7.5"/><text fill="#000" font-family="KaTeX_Main" font-size="10" text-anchor="middle" transform="translate(118.52 215.75)"><tspan> 3</tspan></text></g><path fill="none" stroke="#333" stroke-linecap="round" stroke-linejoin="round" stroke-width=".1" d="M154.73 205V45.01" class="gridline" color="#000"/><g fill="none" stroke-linecap="round" stroke-linejoin="round" stroke-width="0" color="#000"><path d="M154.73 205v-7.5m0-152.49v7.5"/><text fill="#000" font-family="KaTeX_Main" font-size="10" text-anchor="middle" transform="translate(154.73 215.75)"><tspan> 4</tspan></text></g><path fill="none" stroke="#333" stroke-linecap="round" stroke-linejoin="round" stroke-width=".1" d="M190.94 205V45.01" class="gridline" color="#000"/><g fill="none" stroke-linecap="round" stroke-linejoin="round" stroke-width="0" color="#000"><path d="M190.94 205v-7.5m0-152.49v7.5"/><text fill="#000" font-family="KaTeX_Main" font-size="10" text-anchor="middle" transform="translate(190.94 215.75)"><tspan> 5</tspan></text></g><path fill="none" stroke="#333" stroke-linecap="round" stroke-linejoin="round" stroke-width=".1" d="M227.15 205V45.01" class="gridline" color="#000"/><g fill="none" stroke-linecap="round" stroke-linejoin="round" stroke-width="0" color="#000"><path d="M227.15 205v-7.5m0-152.49v7.5"/><text fill="#000" font-family="KaTeX_Main" font-size="10" text-anchor="middle" transform="translate(227.15 215.75)"><tspan> 6</tspan></text></g><path fill="none" stroke="#333" stroke-linecap="round" stroke-linejoin="round" stroke-width=".1" d="M263.36 205V45.01" class="gridline" color="#000"/><g fill="none" stroke-linecap="round" stroke-linejoin="round" stroke-width="0" color="#000"><path d="M263.36 205v-7.5m0-152.49v7.5"/><text fill="#000" font-family="KaTeX_Main" font-size="10" text-anchor="middle" transform="translate(263.36 215.75)"><tspan> 7</tspan></text></g><path fill="none" stroke="#333" stroke-linecap="round" stroke-linejoin="round" stroke-width=".1" d="M299.57 205V45.01" class="gridline" color="#000"/><g fill="none" stroke-linecap="round" stroke-linejoin="round" stroke-width="0" color="#000"><path d="M299.57 205v-7.5m0-152.49v7.5"/><text fill="#000" font-family="KaTeX_Main" font-size="10" text-anchor="middle" transform="translate(299.57 215.75)"><tspan> 8</tspan></text></g><path fill="none" stroke="#333" stroke-linecap="round" stroke-linejoin="round" stroke-width=".1" d="M335.78 205V45.01" class="gridline" color="#000"/><g fill="none" stroke-linecap="round" stroke-linejoin="round" stroke-width="0" color="#000"><path d="M335.78 205v-7.5m0-152.49v7.5"/><text fill="#000" font-family="KaTeX_Main" font-size="10" text-anchor="middle" transform="translate(335.78 215.75)"><tspan> 9</tspan></text></g><path fill="none" stroke="#333" stroke-linecap="round" stroke-linejoin="round" stroke-width=".1" d="M371.99 205V45.01" class="gridline" color="#000"/><g fill="none" stroke-linecap="round" stroke-linejoin="round" stroke-width="0" color="#000"><path d="M371.99 205v-7.5m0-152.49v7.5"/><text fill="#000" font-family="KaTeX_Main" font-size="10" text-anchor="middle" transform="translate(371.99 215.75)"><tspan> 10</tspan></text></g><g fill="none" stroke-linecap="round" stroke-linejoin="round" stroke-width="0" color="#000"><path d="M371.99 190.46h-7.5"/><text fill="#000" font-family="KaTeX_Main" font-size="10" transform="translate(378.99 193.71)"><tspan>0</tspan></text></g><g fill="none" stroke-linecap="round" stroke-linejoin="round" stroke-width="0" color="#000"><path d="M371.99 161.37h-7.5"/><text fill="#000" font-family="KaTeX_Main" font-size="10" transform="translate(378.99 164.62)"><tspan>2</tspan></text></g><g fill="none" stroke-linecap="round" stroke-linejoin="round" stroke-width="0" color="#000"><path d="M371.99 132.28h-7.5"/><text fill="#000" font-family="KaTeX_Main" font-size="10" transform="translate(378.99 135.53)"><tspan>4</tspan></text></g><g fill="none" stroke-linecap="round" stroke-linejoin="round" stroke-width="0" color="#000"><path d="M371.99 103.19h-7.5"/><text fill="#000" font-family="KaTeX_Main" font-size="10" transform="translate(378.99 106.44)"><tspan>6</tspan></text></g><g fill="none" stroke-linecap="round" stroke-linejoin="round" stroke-width="0" color="#000"><path d="M371.99 74.1h-7.5"/><text fill="#000" font-family="KaTeX_Main" font-size="10" transform="translate(378.99 77.35)"><tspan>8</tspan></text></g><g fill="none" stroke-linecap="round" stroke-linejoin="round" stroke-width="0" color="#000"><path d="M371.99 45.01h-7.5"/><text fill="#000" font-family="KaTeX_Main" font-size="10" transform="translate(378.99 48.26)"><tspan>10</tspan></text></g><path fill="none" d="M28 45.01V205M371.99 45.01H28" color="#000"/><text stroke-linecap="round" stroke-linejoin="round" stroke-width="0" color="#000" font-family="KaTeX_Main" font-size="10" text-anchor="middle" transform="rotate(-90 68.255 56.755)"><tspan>log</tspan><tspan dy="3" font-size="8">2</tspan><tspan dy="-3">(</tspan><tspan font-weight="bold">AveragePathLength </tspan><tspan> / log</tspan><tspan dy="3" font-size="8">2</tspan><tspan dy="-3">(Size))</tspan></text><text stroke-linecap="round" stroke-linejoin="round" stroke-width="0" color="#000" font-family="KaTeX_Main" font-size="10" text-anchor="middle" transform="translate(199.99 238.25)"><tspan>Operations × 10</tspan><tspan dy="-5" font-size="8">5</tspan></text><text stroke-linecap="round" stroke-linejoin="round" color="#000" font-family="KaTeX_Main" font-size="8" transform="translate(132.8 10.11)"><tspan>Splay</tspan></text><g fill="none" stroke="currentColor" stroke-linecap="round" stroke-linejoin="round" color="#000"><path stroke="violet" d="M97.3 7.51h29.9M28 69.26l.36-.38.36-.36.37-.36.36-.35.36-.35.36-.35.36-.34.37-.33.36-.32.36-.32.36-.31.37-.31.36-.3.36-.3.36-.3.36-.29.37-.29.36-.27.36-.28.36-.28.36-.26.37-.27.36-.26.36-.27.36-.25.36-.25.37-.25.36-.25.36-.24.36-.24.36-.24.37-.23.36-.23.36-.23.36-.22.37-.23.36-.21.36-.22.36-.22.36-.21.37-.21.36-.21.36-.2.36-.21.36-.2.37-.2.36-.2.36-.19.36-.2.36-.19.37 120.04.36-.65.36-.36.36-.58.37-.77.36-.23.36 1.41.36-.39.36-.82.37 1.08.36-1.61.36.27.36.02.36.82.37-.29.36-.37.36 1.18.36-.11.36-.74.37-.98.36-.25.36-.02.36-.49.37.31.36-.22.36 1.01.36-2.09.36 1.05.37-.03.36.86.36-.26.36.54.36-.37.37.55.36-.54.36.2.36-1.72.36.96.37.2.36-.71.36-.14.36.74.36-2.36.37 1.61.36.63.36-1.14.36.04.37.47.36.22.36-.84.36-36.88.36-12.96.37-7.77.36-5.59.36-4.31.36-3.51.36-2.96.37-2.57.36-2.21.36-1.97.36-1.79.36-1.64.37-1.48.36-1.35.36-1.27.36-1.17.37-1.1.36-1.02.36-.98.36-.91.36-.87.37-.82.36-.79.36-.73.36-.72.36-.68.37-.67.36-.62.36-.6.36-.58.36-.56.37-.54.36-.53.36-.51.36-.49.36-.48.37-.46.36-.45.36-.43.36-.43.37-.41.36-.41.36-.39.36-.38.36-.38.37-.36.36-.36.36-.35.36-.34.36-.33.37 111.98.36 1.13.36-1.09.36.84.36-.5.37.45.36-.75.36.85.36-1.4.37-.32.36.9.36-.87.36.58.36.38.37-.35.36-.11.36-.25.36.63.36-.45.37-.91.36 1.88.36-2.09.36.79.36 1.12.37.17.36.03.36-.46.36.05.36.04.37.35.36-1.09.36.37.36-.29.37-.13.36.03.36-.04.36.4.36-.41.37-.24.36.41.36-.71.36.3.36.18.37.6.36-.98.36.52.36-.49.36-.69.37.11.36-.08.36-38.32.36-12.83.37-7.8.36-5.56.36-4.27.36-3.56.36-2.95.37-2.55.36-2.24.36-1.95.36-1.8.36-1.59.37-1.49.36-1.37.36-1.28.36-1.15.36-1.1.37-1.03.36-.97.36-.91.36-.87.37-.81.36-.8.36-.74.36-.71.36-.68.37-.66.36-.63.36-.6.36-.59.36-.56.37-.54.36-.53.36-.5.36-.49.36-.48.37-.46.36-.45.36-.44.36-.43.36-.4.37-.41.36-.39.36-.38.36-.38.37-.36.36-.36.36-.35.36-.34.36-.34.37 112.24.36.5.36-.46.36-.37.36.2.37-.41.36.72.36-1.04h.36l.36.07.37-.66.36 1.16.36.03.36-1.32.37 1.24.36-.29.36 1.59.36-2.02.36-.66.37 1.38.36-.1.36.01.36-.64.36-.33.37 1.01.36-1.33.36.35.36 1.38.36-.96.37.56.36-1.15.36.46.36-.92.36 1.08.37-.5.36-.6.36 1.19.36.81.37-1.48.36-.06.36.49.36-.3.36.48.37-.99.36.36.36.53.36-1.09.36.61.37-.88.36.89.36-38.59.36-12.89.36-7.84.37-5.52.36-4.33.36-3.53.36-2.96.37-2.53.36-2.25.36-1.98.36-1.77.36-1.65.37-1.47.36-1.37.36-1.25.36-1.17.36-1.1.37-1.03.36-.97.36-.92.36-.86.36-.82.37-.78.36-.74.36-.72.36-.67.36-.66.37-.63.36-.61.36-.58.36-.56.37-.54.36-.52.36-.52.36-.49.36-.47.37-.46.36-.45.36-.44.36-.43.36-.4.37-.42.36-.38.36-.39.36-.37.36-.36.37-.36.36-.34.36-.35.36-.33.37 113.49.36-1.44.36-.43.36 1.97.36-2.17.37.17.36.25.36.27.36.59.36-1.07.37-.24.36 1.36h.36l.36-.58.36.03.37-.21.36-.24.36-.55.36-1.17.37 1.47.36-.03.36.02.36.35.36-.31.37-.88.36.11.36 1.11.36-1 .36 1.28.37-.65.36-.67.36.58.36-.2.36-.34.37-.94.36.82.36-.35.36.51.36-.27.37.53.36-.65.36 1.1.36-.93.37-.69.36.08.36 1.72.36-.7.36-1.25.37.62.36.26.36-38.57.36-12.95.36-7.72.37-5.62.36-4.28.36-3.51.36-2.99.36-2.53.37-2.23.36-2 .36-1.76.36-1.63.37-1.47.36-1.37.36-1.26.36-1.18.36-1.08.37-1.04.36-.96.36-.91.36-.87.36-.82.37-.79.36-.75.36-.7.36-.7.36-.64.37-.64.36-.61.36-.57.36-.56.36-.55.37-.51.36-.52.36-.49.36-.48.37-.46.36-.44.36-.44.36-.43.36-.41.37-.4.36-.4.36-.38.36-.38.36-.37.37-.35.36-.34.36-.34.36-.34.36 112.92.37-1.23.36-.06.36.08.36-.21.37.11.36.9.36-1.25.36.54.36-.41.37-1.01.36 1.95.36-1.11.36-.13.36.73.37.11.36-1.61.36.94.36-.21.36.48.37.09.36-.86.36-.96.36.83.37 1.16.36-1.19.36-.85.36.1.36 1.65.37-.5.36.29.36-.14.36.19.36-.54.37-.54.36.3.36.31.36-.82.36-.01.37 1.17.36.39h.36l.36-.61.36-.51.37.22.36-.9.36.09.36-.08.37-.63.36 1.86.36-38.92.36-12.78.36-7.86.37-5.55.36-4.34.36-3.5.36-2.97.36-2.54.37-2.24.36-1.97.36-1.77.36-1.64.36-1.46.37-1.37.36-1.28.36-1.16.36-1.09.37-1.04.36-.97.36-.9.36-.87.36-.82.37-.79.36-.75.36-.71.36-.68.36-.66.37-.63.36-.6.36-.58.36-.56.36-.55.37-.52.36-.51.36-.49.36-.48.36-.47.37-.44.36-.44.36-.42.36-.42.37-.39.36-.4.36-.38.36-.38.36-.36.37-.36.36-.34.36-.34.36-.34.36 112.68.37-.12.36-.34.36.02.36-1.16.36.04.37 1.51.36.02.36-.29.36.69.37.15.36-1.29.36.05.36.34.36.14.37-.21.36.02.36-.03.36-.73.36.84.37-.47.36-.18.36.49.36.29.36-1.5.37.44.36-.26.36.77.36.73.36-.89.37-.36.36-.14.36.41.36-.59.37.43.36 1.35.36-.79.36-1 .36.79.37.41.36-.75.36-.92.36.83.36.21.37-.53.36.41.36-.96.36-1.16.36 1.35.37 1.71.36-40.28.36-12.97.36-7.74.37-5.58.36-4.28.36-3.51.36-2.99.36-2.56.37-2.2.36-1.99.36-1.77.36-1.64.36-1.47.37-1.37.36-1.28.36-1.18.36-1.08.36-1.01.37-.98.36-.9.36-.88.36-.81.37-.79.36-.75.36-.71.36-.69.36-.65.37-.62.36-.61.36-.58.36-.56.36-.55.37-.53.36-.5.36-.49.36-.48.36-.46.37-.45.36-.43.36-.43.36-.41.36-.4.37-.39.36-.39.36-.38.36-.36.37-.36.36-.34.36-.34.36-.34.36 112.22.37-.4.36-.05.36.03.36 1.22.36-1.4.37-.33.36.78.36.52.36-.96.36.55.37-.11.36-1.63.36 1.46.36-.5.37.25.36-1.21.36-.16.36.52.36.92.37-.08.36-.32.36-.13.36.59.36-.15.37-1.12.36.58.36-.94.36.03.36.52.37-.24.36-1.35.36 1.12.36-.45.36.07.37.47.36-1.04.36 2.44.36-1.24.37-.16.36.18.36-.32.36-.98.36-.69.37.21.36.45.36-.1.36.03.36-.32.37-.21.36-36.43.36-12.83.36-7.89.36-5.54.37-4.3.36-3.51.36-2.95.36-2.55.37-2.23.36-1.98.36-1.77.36-1.62.36-1.48.37-1.36.36-1.28.36-1.16.36-1.1.36-1.03.37-.97.36-.92.36-.86.36-.83.36-.78.37-.74.36-.72.36-.68.36-.66.36-.63.37-.59.36-.59.36-.57.36-.52.37-.53.36-.51.36-.49.36-.48.36-.46.37-.45.36-.43.36-.43.36-.41.36-.4.37-.4.36-.38.36-.38.36-.36.36-.35.37-.36.36-.34.36-.33.36 112.9.37.47.36-1.38.36.42.36.34.36.26.37-.37.36-.08.36-.93.36 2.31.36-1.99.37.25.36-.56.36-.27.36 1.39.36-1.22.37.82.36-.01.36-1.25.36 1.31.37.34.36-.4.36-1.27.36.36.36 1.19.37.15.36-1.32.36 1.41.36-.55.36.06.37-.88.36.6.36.11.36-1.25.36.82.37.2.36 1.47.36-.59.36-1.89.36 2 .37-2.03.36 1.22.36-2.51.36.18.37.46.36.85.36.89.36-1.2.36.8.37-.16.36-39.6.36-12.64.36-7.74.36-5.61.37-4.33.36-3.5.36-2.96.36-2.53.36-2.24.37-1.98.36-1.76.36-1.62.36-1.5.37-1.35.36-1.26.36-1.18.36-1.1.36-1.03.37-.96.36-.92.36-.86.36-.83.36-.78.37-.74.36-.72.36-.68.36-.66.36-.62.37-.61.36-.59.36-.55.36-.55.36-.52.37-.5.36-.5.36-.48.36-.46.37-.44.36-.44.36-.43.36-.41.36-.4.37-.39.36-.39.36-.37.36-.36.36-.36.37-.34.36-.34.36-.34.36 111.41.36-.14.37-.54.36-.73.36 1.48.36.13.37-2.13.36 1.71.36.72.36.2.36-1.35.37-.25.36 1.28.36-1 .36-1.67.36.83.37 2.49.36-1.17.36-1.07.36.44.36-.03.37-.17.36-1.38.36 1.56.36-.22.36.29.37-.37.36.31.36-1.08.36-.11.37-.49.36.91.36-.77.36.91.36-.49.37.04.36.78.36-.55.36-.08.36-.54.37.26.36.48.36.73.36-1.56.36.59.37-1.36.36.83.36 1.45.36-2.48.37 2.55.36-38.42.36-12.95.36-7.81.36-5.53.37-4.37.36-3.47.36-2.94.36-2.6.36-2.23.37-1.98.36-1.79.36-1.62.36-1.47.36-1.36.37-1.26.36-1.19.36-1.08.36-1.03.37-.98.36-.91.36-.86.36-.83.36-.78.37-.75.36-.71.36-.67.36-.66.36-.63.37-.6.36-.6.36-.55.36-.54.36-.52.37-.51.36-.49.36-.49.36-.45.36-.45.37-.44.36-.42.36-.42.36-.4.37-.4.36-.37.36-.39.36-.35.36-.36.37-.34.36-.35.36-.33"/><use xlink:href="#b" color="violet" transform="matrix(3.75 0 0 3.75 354.25 134.33)"/><use xlink:href="#b" color="violet" transform="matrix(3.75 0 0 3.75 112.25 7.51)"/></g><text stroke-linecap="round" stroke-linejoin="round" color="#000" font-family="KaTeX_Main" font-size="8" transform="translate(132.8 25.11)"><tspan>AVLBottomUp</tspan></text><g fill="none" stroke="currentColor" stroke-linecap="round" stroke-linejoin="round" color="#000"><path stroke="#000" d="M97.3 22.51h29.9M28 192.86l.36-.01.36-.01.37-.01h.36l.36-.01h.36l.36-.02.37.06.36.01.36-.01.36-.01.37-.01h1.08l.36-.01.37-.02.36-.01h.36l.36-.01.36-.01.37-.01.36-.01.36-.01.36-.01.36-.01h.37l.36-.01.36-.01h.36l.36.01.37-.01.36-.01.36-.01h1.09l.36-.01.36-.01.36.01h.37l.36-.01h.36l.36-.01.36.04h.73l.36-.01h1.45l.36-.01.36.01h.37l.36-.01H49l.36-.01h.37l.36-.01.36-.02.36.06h1.09l.36.01h.72l.37-.01h.36l.36-.01h.73l.36.02.36-.01.36-.02.36-.01.37.01.36.1.36.01h.72l.37-.01h.36l.36-.01.36.03.36-.01.37.03.36-.01.36.02.36-.02.36.02.37.01h.36l.36.01.36-.01.37-.01.36.01h.72l.36-.01h.37l.36-.01h.36l.36-.01.36-.01h.37l.36.01h.72l.36-.01h.37l.36.01.36-.01H70l.37-.01h.36l.36-.01h.36l.36-.01.37.01h.36l.36-.01h.36l.36-.01h.37l.36-.01.36-.01h.72l.37-.01h.36l.36-.02h.36l.36-.01.37.01.36-.01.36-.01.36.01h.73l.36-.01h.36l.36-.01.37.01h.72l.36-.01.36.01h.37l.36-.01h.72l.36-.01.37.01.36-.01.36-.01.36-.01.37-.02.36-.01h.36l.36.01h.36l.37.08h.72l.36.01h.36l.37.01.36-.01.36-.01h.36l.36.04h1.09l.36.01h1.45l.36-.01h.37l.36-.01.36-.02.36-.02.36.08h.73l.36-.01.36.01.36-.01.37-.01.36.01.36-.01h.36l.36-.01h.37l.36.04.36.01h.73l.36-.01h.36l.36-.01.36-.02.37.01.36-.01.36-.01h.36l.36-.02.37.02.36.04.36-.01.36-.01.36-.01.37-.01h.36l.36-.01.36-.01.37-.01h.36l.36-.01.36-.01.36-.01.37.02.36-.01.36-.01.36.02.36-.01.37-.01.36-.01h.36l.36-.01.36-.01h.37l.36-.01.36-.01.36.03.36-.01h.37l.36-.01h.36l.36-.01.37-.01h.36l.36-.01.36.03h1.45l.36-.01.36.04.37.01h2.17l.36.01h.73l.36-.01h.36l.36-.01.36-.01.37-.01h.36l.36-.01.36.02.36.04.37.01h.36l.36.02h1.09l.36.01h.36l.36-.01.36-.01.37.02.36-.01.36-.02h.36l.37.01.36.01.36-.02h.72l.37.02h.36l.36-.01.36-.01.36.03.37-.01.36.07h.36l.36-.01h.36l.37.01h1.08l.37-.01h.36l.36-.01.36.01.36-.01h.37l.36-.02.36-.01.36-.01.36-.01.37-.02.36-.01.36-.01.36-.01h.36l.37-.02.36-.01h.36l.36-.01.36-.02.37-.01.36.03.36-.01.36-.01h1.09l.36-.01.36.01.37-.01h.36l.36-.01h.36l.36-.01h.37l.36-.01.36-.01h.72l.37-.01.36.01h.36l.36.07.37.01.36-.01h.36l.36.01h.36l.37-.01h.72l.36-.01.36.02h1.45l.36-.01h.37l.36-.01h.36l.36-.01h.37l.36-.01.36.05.36.02.36.01.37.01.36.01.36.01h.36l.36.01h.37l.36-.01h.36l.36-.02.36.01.37-.01.36.02h.72l.36-.01h.73l.36-.01.36.01h.37l.36.02.36-.01.36.02.36-.02.37-.01.36-.02h.36l.36-.01h.73l.36.07h.36l.36-.01.36.01h.73l.36-.01h.36l.37-.01.36-.01h.36l.36-.01.36-.01.37-.01.36-.03h.36l.36-.01.36-.01h.37l.36-.01.36-.01h.36l.36-.01.37-.01.36-.01.36-.01.36.01.36-.01.37.02h.36l.36.01h.36l.37.01.36-.01.36-.01.36-.01h.73l.36.04h2.17l.36-.01.36.01h.37l.36.01h1.09l.36-.01h.36l.36.01.36.01h1.09l.36-.01h.36l.37-.01h.36l.36.03.36-.01.36.01h.37l.36.03h.36l.36-.02h.37l.36.02h1.08l.37.01h.36l.36-.01.36-.01.36.02.37-.02.36.03.36.01h.36l.36-.01.37-.01.36-.02.36.01.36-.01.36-.01.37.01.36.04h.36l.36-.01.37-.01.36-.01h.36l.36-.01h.73l.36-.01.36-.01h.36l.36.07.37-.01h.36l.36-.01.36-.01h.36l.37-.02.36-.01.36-.01.36-.01.37-.02.36-.01.36-.01.36-.01.36-.01.37-.01.36-.01.36-.01.36-.01.36.05.37.01.36-.01.36-.01h.36l.36-.01.37-.01h.36l.36-.01h.36l.36-.01h.73l.36-.01.36.03.37.01h.36l.36-.01.36.01h.73l.36-.01h.36l.36-.01.36.07.37.01h1.08l.36-.01.37-.01.36.01.36.04.36-.01.37.01h1.08l.36-.01.37-.01.36-.01.36-.01h.36l.36.02.37.02h.72l.36-.01.36.03h1.09l.36.01h.36l.37-.02.36-.01.36-.01.36-.01h.37l.36-.01.36-.01.36-.02.36-.02.37-.02.36.04.36.04h.36l.36-.01.37.01.36.04.36-.01h.36l.36-.01.37.04.36-.01h.72l.37-.01.36-.02.36.02.36-.01.36-.01.37.02.36-.01.36-.01.36-.01.36-.01.37.01.36.02h.36l.36-.01h.73l.36-.01.36.02h.36l.37-.01.36-.01h.36l.36-.01.36-.01.37-.01h.36l.36-.01h.36l.36-.01.37.01h.36l.36-.01.36-.01.36.01.37-.01h1.81l.36.01.36-.01h.36l.37.04h.36l.36-.01h1.09l.36.01.36-.01.36-.01h.73l.36.01h.36l.36-.01h1.09l.36-.01h.36l.37.01.36-.01.36-.01.36.02.36.02h.37l.36.01.36-.01.36.04h.36l.37.01h.36l.36-.01.36.01.36-.01.37-.02.36-.01.36.01h.72l.37-.01h.36l.36-.01.36-.01.37.04.36-.01.36-.02.36.04h.36l.37.02h.36l.36-.01.36.03.36-.01.37-.01.36-.01.36-.01h.72l.37.02.36-.01h.36l.36-.01.37-.01.36-.01.36-.01.36-.01h.36l.37-.02.36.04.36.01.36-.01.36-.01h.37l.36-.01.36-.01h.72l.37-.01.36-.01.36.02h.36l.36.01h.37l.36-.01h.72l.37-.01.36-.01h.36l.36-.01h.36l.37-.01h.36l.36-.01.36-.01.36-.01.37.02.36.03.36-.01.36-.01.36-.01h1.09l.36.01h2.18l.36-.01.36.01h.36l.36-.01h.37l.36-.01h.36l.36-.01.36-.01.37.06h.36l.36.03.36-.01h.37l.36-.01.36.07h.72l.37.02h.72l.36-.01.36-.01.37-.01.36.01h.36l.36-.01h.36l.37-.01h.36l.36-.01.36-.01.36.02.37-.01.36-.01.36.01.36.02.37-.01.36-.02h.36l.36-.02.36.04.37-.01h1.44l.37.01h.72l.36-.01.36-.01.37-.01.36-.01.36-.01.36.02h.37l.36-.01.36.01h.36l.36-.01.37-.01.36-.01h.36l.36-.01h.36l.37-.01.36-.01h.36l.36-.01.36-.01.37.02.36.01.36-.01.36-.01.36-.01.37-.01h.36l.36.03h.36l.37-.01h.72l.36-.01.36.02.37-.01h.36l.36-.01h.36l.36-.01h2.9l.36.01h.73l.36-.01h.36l.36-.01.37.01.36.05.36-.01.36-.01.36-.01h.37l.36.06h.72l.36-.01.37.02.36-.01h.36l.36.01h.73l.36-.01.36-.01.36.01.37-.02.36.01h.36l.36.01.36-.01.37-.01.36-.02.36-.01h.36l.36.01h.73l.36.06.36-.02.36.01.37.01.36-.01.36-.01.36.01.37-.02h.72l.36.01.36-.01h1.09l.36-.01.36.1.37-.01.36-.01.36-.03h.36l.36-.01.37-.01h.36l.36-.01h.73l.36-.01h.36l.36-.01h.36l.37-.01.36-.01.36-.01.36-.01.36-.01.37-.01.36.01.36-.01.36-.01.36-.01h.37l.36-.01.36-.01.36.02h.36l.37-.01.36-.01.36.01.36.04h.37l.36-.01.36-.01h1.09l.36.01.36-.01"/><use xlink:href="#c" transform="matrix(3.75 0 0 3.75 67.83 192.81)"/><use xlink:href="#c" transform="matrix(3.75 0 0 3.75 112.25 22.51)"/></g><text stroke-linecap="round" stroke-linejoin="round" color="#000" font-family="KaTeX_Main" font-size="8" transform="translate(241.1 10.11)"><tspan>LBSTBottomUp</tspan></text><g fill="none" stroke="currentColor" stroke-linecap="round" stroke-linejoin="round" color="#000"><path stroke="#3B75EA" d="M205.6 7.51h29.9M28 192.85l.36-.02.36-.01.37-.02.36-.02.36-.01.36.03.36-.01.37-.01.36-.01.36-.01.36-.02.37-.01.36-.02h.36l.36.01.36-.01.37.02.36-.01.36-.02h.72l.37-.01.36-.02.36-.01.36-.01.36-.02.37-.01h.36l.36-.02.36-.01.36-.02.37-.01.36-.02.36.05.36.01h.37l.36.02.36.07.36-.01.36.04.37-.01h.36l.36-.01.36-.01.36-.01.37.01.36-.01.36-.01.36.01h1.09l.36-.01.36-.01h.37l.36-.01H49l.36.01.37-.01h.36l.36-.01.36.01.36-.02h.37l.36.02.36-.01.36-.01.36.01.37-.01.36-.01.36-.02h.36l.37-.01.36.11.36-.01.36.01.36-.01h.37l.36-.02.36-.01.36-.01h.73l.36.01.36-.01.36.03h.73l.36-.02.36-.01.36-.02.36.05.37.03.36-.02.36.01.36.03.37-.01h.36l.36.07h.36l.36-.01.37.01h.36l.36-.01.36-.01.36-.01.37-.02.36.02.36-.01.36-.02h.36l.37-.02.36-.02.36-.02.36.02.37.01.36-.02.36-.02.36-.01.36-.02.37-.02.36-.02h.36l.36-.02.36-.02.37.03.36-.02.36.04.36-.01h.36l.37-.02.36-.01.36-.01.36.04.36.09h.37l.36-.02.36-.01.36-.01.37-.01.36-.02.36-.01.36.04.36-.02.37-.01.36.03.36-.01.36.01.36-.01.37.01h.72l.36.01.36-.01.37.03h.72l.36-.01.37-.01h.36l.36.01.36-.01h.36l.37.01.36-.01.36-.01.36-.01.36-.02h.37l.36-.02.36-.01h.36l.36.1.37-.01.36-.01.36-.01.36.01.36.06h.37l.36-.01.36.08.36.01h.37l.36-.01h2.53l.36-.02.37-.01h.72l.36.01.36-.01.37.03.36.01h1.09l.36-.01h.36l.36-.01h.36l.37-.01.36.02.36-.02.36.03h.36l.37-.01.36-.02.36-.02.36-.01h.36l.37-.01.36-.02.36-.02.36-.01.37-.02.36-.02.36.01.36-.01.36.03.37-.01.36-.01.36-.01.36-.02.36-.02.37-.01h.36l.36-.01.36-.02.36-.01.37.1.36-.02.36.02.36-.01.36-.01.37.06.36-.01.36-.01.36.02h.37l.36.04h.36l.36-.01.36-.01.37.01.36.01h.36l.36.01h.36l.37-.01.36.01.36-.01.36-.01.36.03h1.09l.36.01.37-.01.36-.01.36-.01.36-.01.36-.02h.37l.36-.01.36-.02.36.04.36-.01.37.01h.36l.36.02.36-.01.36.02.37.01.36-.01h.36l.36-.01.36-.01.37-.02.36-.02.36.06.36.02.37-.01.36-.01.36-.01.36.01h.36l.37.01.36.01.36.05h.36l.36.02.37.01.36.01h.72l.36.01h1.09l.36-.01.37-.01.36-.01.36-.01.36-.02.36-.01h.37l.36-.01.36.03.36-.02.36-.01.37-.02.36-.01h.36l.36-.01.36-.02.37-.01.36.01.36-.01.36-.01h.36l.37-.02.36-.01.36-.02.36-.01.37-.02.36.01.36.01.36-.01.36-.01.37-.01.36-.02.36.05.36-.01.36.01.37.02h.36l.36-.01.36.07h.36l.37-.01.36.02h.36l.36-.01h.37l.36.01.36-.01.36-.01h.36l.37.02.36-.01.36-.02h.36l.36.02.37.01h.72l.36-.01.36-.02.37.02h.36l.36-.01.36-.02.37-.01.36.01.36-.01.36.02.36-.01.37-.01.36-.01.36.06.36.01.36.01.37-.01.36-.01.36-.03.36-.03.36.02h.37l.36-.01.36.01h.72l.37.01.36.02h.72l.37-.02.36.02.36.05.36.02.36.01.37.02h.72l.36-.01h.73l.36-.01h.36l.36-.01h.36l.37-.01.36-.01.36-.01h.36l.37-.02.36-.01.36-.02.36-.02.36-.02.37.02.36.01.36-.01.36-.02.36-.01.37.02.36.02.36-.01.36-.01.36-.02.37-.01h.36l.36.03.36-.01.36.01.37-.01.36-.01.36-.01.36-.02.37-.01.36-.01.36.01.36-.01.36.03.37-.01.36-.01.36-.01h.36l.36.03.37-.01.36-.01.36-.01.36-.01.36.02h1.45l.37.01h.72l.36.01h.36l.37-.01h.36l.36.01.36-.01.36-.02.37-.01.36-.01.36-.01.36.09h.36l.37-.01.36.02.36-.01.36-.01.37-.01h.36l.36-.01.36-.01.36-.01.37.02h1.08l.36.03.37-.01h.36l.36-.01.36.03.36-.02.37.05.36-.01.36.02.36-.01.36.01.37.01.36.02.36.03.36-.01.37.02.36.04.36.01h.36l.36-.01.37-.01.36-.01.36-.01h.36l.36-.01.37-.01.36-.01.36-.01.36-.02.36-.02.37.01.36-.02.36-.01.36.01.37-.01.36-.01.36-.02.36-.02h.36l.37.03h.72l.36-.02.36-.01.37-.01.36-.02.36-.01.36-.02.36.01.37-.01.36-.01h.36l.36-.01.36-.02.37-.01h.36l.36-.02h.36l.37-.01.36.02.36.03.36.07.36-.01.37.02.36-.01h.36l.36.01.36-.01h.37l.36.01h.36l.36-.01.36-.01.37.03h.36l.36.01h1.45l.36-.01.36-.01.37-.01h.36l.36-.01.36-.01.36-.01.37.03h.72l.36-.01h.36l.37-.01.36-.01.36-.01h.72l.37-.02.36.1.36.02.36-.01.37-.01.36.01.36-.01.36.04.36-.01.37.03.36.02.36.01.36-.01h.36l.37.03h.36l.36.02.36-.01.36-.01.37-.02.36.04h1.09l.36-.01.36-.01.36-.01h.36l.37-.01.36-.01h.36l.36-.01.36-.02.37-.01.36-.01.36-.02h.36l.36.01.37-.01.36-.01.36-.02.36-.01.37.03.36-.02.36-.01h.72l.37-.01h.36l.36-.01.36-.01.36-.02.37.02.36-.01h.36l.36-.02.36-.01.37-.01.36-.01h.36l.36.03.36-.01.37-.01.36.06.36-.01h.36l.37.03h.72l.36-.01.36.01.37.02h.36l.36-.01h.36l.36-.01h.37l.36.01.36-.02.36.02.36-.01h.37l.36-.01h.36l.36-.02.37-.01.36-.01.36-.01.36-.02.36.01.37-.01.36-.01.36.03.36.02.36.01.37-.01.36-.01.36.05.36.01.36.07.37.04.36-.01.36-.01h.72l.37.01h.36l.36-.02.36.01.37.03.36-.02h.36l.36-.01.36-.02.37.07.36-.01.36.02h.36l.36.01.37-.02h.36l.36.01.36-.01.36-.01h.37l.36-.01.36-.01h.73l.36-.01.36-.02.36-.02.36-.02.37.02.36-.01h.36l.36-.02.36-.01.37-.02.36-.02.36-.01.36-.02.36.01.37-.02.36.06.36-.01.36-.01.36-.01.37-.01.36.02.36-.02.36-.01.37-.01.36-.01.36-.02.36.01h.36l.37.07.36-.01.36-.01.36-.01.36-.02.37.01.36.01.36-.01.36.03.36.03.37-.01h.36l.36-.01h.36l.37.02.36.02h.72l.36.01h1.45l.36-.01h1.09l.36.02.36-.02h.37l.36-.02.36.01.36-.01.37-.01.36.01.36.01.36-.01h1.09l.36.07.36-.01.36-.01.37-.02.36-.03h.36l.36-.02.36.08.37.02.36.01h.36l.36-.01h.36l.37-.01h.36l.36.02.36.08h.37l.36-.01.36-.02.36-.01.36.02.37.01h1.44l.37-.01h.72l.36-.01.36-.01.37-.01.36-.02.36.01.36-.01.37-.02.36-.02.36-.01.36-.01.36-.01.37-.02.36-.01.36-.01.36.02.36-.02h.37l.36-.01.36-.02.36-.02.36-.02.37-.02.36.01.36.06.36-.02.36-.01.37-.01.36-.01.36-.01.36-.02h.37l.36-.01.36.08.36-.01.36.01.37.07h.72l.36.01.36-.01.37-.01.36-.01h.72l.36.01h.37l.36-.01h1.09l.36.03h.36l.36-.01.36.01.37.01.36-.01h.36l.36-.01.36-.01.37-.02.36.03.36.02.36-.02.36-.01.37.01.36.01.36-.01.36-.01.36.06.37-.01h.36l.36-.02.36-.01.37-.03.36-.01.36.01.36.01.36-.02.37.01.36.01h.36l.36.03h.36l.37-.01.36-.01.36.04.36-.01h.73l.36.05.36-.02.36.04h.73l.36.01.36-.01h1.81l.36-.01.37-.01.36-.01.36.02.36-.01.36-.01.37-.01.36-.01.36-.01.36-.02h.37l.36-.02.36-.01.36.02.36-.02.37-.01.36-.01.36.02.36-.01.36-.02.37.01.36-.01.36.04.36-.01.36-.01.37.01.36-.01.36-.01.36-.01.36-.01.37-.02h.36l.36.03.36-.01h.37l.36-.01.36.02.36-.01.36-.01h.37l.36-.01.36-.01"/><use xlink:href="#d" color="#3B75EA" transform="matrix(3.75 0 0 3.75 125.4 192.7)"/><use xlink:href="#d" color="#3B75EA" transform="matrix(3.75 0 0 3.75 220.55 7.51)"/></g><text stroke-linecap="round" stroke-linejoin="round" color="#000" font-family="KaTeX_Main" font-size="8" transform="translate(241.1 25.11)"><tspan>TreapTopDown</tspan></text><g fill="none" stroke="currentColor" stroke-linecap="round" stroke-linejoin="round" color="#000"><path stroke="#F44336" stroke-dasharray="4.5,2.0,0.5,2.0,0.5,2.0" d="M205.6 22.51h29.9M28 185.87l.36.06.36.03.37.26.36-.03h.36l.36.05.36.02.37.01.36.01.36.06.36.06.37.02.36.02.36.03.36.01h.73l.36.01h.36l.36-.04.36-.12.37.02h.36l.36-.04.36-.06.36.09.37-.01.36.03.36.05.36.02h.36l.37-.06h.36l.36.01.36.14.37.01h.36l.36.01.36-.03.36-.22.37.01.36-.01.36-.01.36.01.36-.16.37-.03.36-.01.36-.05.36-.04.36-.05.37-.02.36.27.36-.03.36-.04.37-.03.36.21.36-.05.36.16.36-.03.37.02.36.03.36-.03.36.03.36.06.37-.02.36.03.36.01.36-.01h.36l.37-.02.36-.04.36.18.36-.02.37-.01h.36l.36.03.36-.03.36-.03.37-.05.36.19.36.01.36-.06.36-.03.37-.07.36-.07.36-.06.36-.05.36.11.37-.07.36-.07.36-.07.36.2.36-.06.37-.02.36-.06.36-.1.36.14.37.13.36.02.36.04.36.02.36.01.37.04.36-.08.36.02.36.02h.36l.37-.13.36-.08.36-.12.36.07.36.01.37.03.36.02.36-.04.36.01.37-.03.36-.04.36.02h.72l.37.01h.36l.36.02.36-.03.36.03h.37l.36-.09.36-.02.36-.02h.36l.37-.02.36.05.36-.02.36.14h.36l.37-.06.36-.03.36-.03h.36l.37-.01h.36l.36-.05.36-.05h.36l.37-.05.36.04h.36l.36-.02.36.06.37-.05.36.09.36-.02.36-.02.36-.05.37-.04.36-.01.36-.06.36-.05.37-.02.36-.05.36.15.36-.01.36-.05.37.14.36.16.36.13.36-.04.36.03.37-.03.36-.01.36-.02.36-.06.36.02.37-.01.36-.02.36-.03.36-.02.36-.05.37-.04.36.14.36.22.36-.02.37-.01.36-.02.36-.02.36-.03.36.02.37.12.36.02.36.15.36.03.36-.01.37-.03.36.09.36-.02.36.06.36-.02.37.02.36.09.36.03.36-.07h.37l.36-.32.36.04h.36l.36.03.37.03.36.03.36-.22.36.02.36.03.37.02.36.03.36-.01.36.05.36.03.37.01.36.29.36-.02h.36l.37-.02.36.01.36-.03h.36l.36.07.37.03.36.02.36.01.36.01.36-.03.37-.01.36.02h.36l.36.01h.36l.37.08.36-.01h.36l.36-.01h.36l.37-.03.36.02.36-.02.36-.05.37.02.36.01.36-.19h.36l.36.01.37-.03.36-.03.36-.04.36.04.36-.04.37-.02h.36l.36-.02.36-.04.36.06.37-.06.36.02.36.02.36-.04.37-.01.36-.03.36-.05.36-.04.36-.03.37.04.36-.03.36-.06.36-.06.36.01.37.07.36.01.36-.02.36-.03.36.16.37-.06.36-.05.36-.05.36-.05.36-.08.37-.04.36.18.36-.05.36.04h.37l.36.02.36.03.36-.05.36-.05.37-.03.36-.08.36.21.36.05.36.06h.73l.36.03.36-.02.36-.03.37-.03h.36l.36.04.36.08.37.13.36-.14.36-.07.36.01h.36l.37.01.36.08.36.02.36-.02.36-.06.37-.09h.36l.36-.02.36.01.36.15.37.04.36.01.36-.04.36.07.36-.04.37.01.36-.02.36.04.36.05.37-.12.36.02.36.06.36-.01.36-.05.37.01.36.04.36.01h.36l.36.13h.37l.36.03.36-.01h.72l.37-.01h.36l.36-.18.36-.35.37.15.36-.02.36-.02.36-.03.36.07.37.01.36-.03.36.02.36-.02.36.06.37-.02.36-.02.36-.03.36-.03h.36l.37-.04.36-.02.36-.03.36.04.37-.03.36.02.36-.04.36.02.36.04.37-.06.36-.03.36-.06.36.08.36-.07h.37l.36.03.36-.05.36.1.36-.04.37-.07.36.03.36-.06.36-.05.36-.06.37-.01.36-.03.36-.07.36.14.37.16.36-.06.36-.06.36-.02.36.21.37-.01.36.08.36.04.36.05.36.01.37-.04h.72l.36.02.36.06h.37l.36-.01.36-.12.36.04.37-.01.36-.02.36.03.36-.01.36.01.37-.07.36.05.36-.02.36-.06.36.03.37-.03.36.18.36-.13.36.01.36.01.37-.07.36.03.36-.18.36.01.36-.04.37.02.36-.01.36.03h.36l.37.06.36.01.36-.19.36.02.36.04.37-.02.36-.07h.36l.36-.02.36-.01.37.02.36-.18.36.02.36.02.36-.04.37-.04.36-.02.36.17.36-.05.37.14.36-.03.36-.03.36.03.36.02.37-.03.36.19.36-.02.36.02.36-.03h.37l.36-.04.36.12.36-.02.36.03.37-.03.36-.01.36-.02.36-.03.37-.05.36-.06.36-.04.36-.05.36.04.37.14.36.15.36.06.36.19.36-.01.37-.02.36-.02h.36l.36.03.36-.03.37-.03h.36l.36-.04.36.08.36.01.37-.02.36.02.36.15.36-.04.37-.02.36.21.36.03.36-.01.36.05.37-.01.36.02h.36l.36-.12.36.04.37-.04.36.01h.36l.36-.02.36-.04.37.01.36.02.36.01.36-.14.37.01.36.01.36-.04h.36l.36-.02h.37l.36-.07h.36l.36.01h.36l.37.01.36.02.36-.12h.36l.36.16.37.02.36-.01.36.01.36-.02.36.05.37-.04.36.1.36-.01.36-.03h.37l.36-.18.36-.02h.36l.36.01.37-.01h.72l.36.01.36-.01.37-.03.36-.05.36.21.36-.04.36.03h.37l.36.01.36-.05h.36l.37-.02.36.01.36-.02h.36l.36-.03.37.01.36-.04.36-.07.36-.01.36-.02.37-.02.36-.04.36-.05.36.16.36-.03.37.12.36-.05.36.17.36-.05.36.23.37-.04.36.05.36.09.36-.01.37.07.36-.04.36-.02.36-.04.36-.03.37-.04.36.06.36-.07.36-.05.36.02.37-.09.36.18.36-.01.36.25.36-.01.37-.05.36-.13.36.03.36-.02.37-.01h.36l.36-.01.36-.13.36-.16.37-.2.36-.14.36.12.36.03.36.01.37.02.36-.07.36-.01.36.01.36.02.37-.03.36-.01.36-.01.36-.02.37-.03.36-.01.36-.02.36.05.36-.03.37.01.36-.01.36.01.36.01.36.02.37.02.36-.01.36-.2.36-.01.36.02h.37l.36.01.36.02h.36l.36.01.37-.04.36.14.36-.01.36-.01.37.02.36-.01.36.03h.36l.36-.02h.37l.36-.01.36-.05.36-.03.36-.01.37-.06.36-.06.36.15h.36l.36-.03.37.16h.72l.36-.02.37-.05.36-.01.36.01.36-.03.36-.02.37-.03.36-.03.36-.04.36-.04.36-.04.37-.07.36-.09.36.16.36-.06.36.2.37.06.36-.05.36.05.36-.05.36-.06.37-.03.36-.03.36.03.36-.04.37-.09.36.17.36-.04.36-.06.36-.08.37-.12.36.29.36.09.36-.08.36.06.37.13.36.13.36-.05.36-.01.36-.03.37-.01.36-.01.36.05.36-.03.37.19.36.02.36-.13.36-.05h.36l.37.02.36.01h.72l.36-.13.37.01.36.01.36.02.36.01h.36l.37-.02.36-.04h.36l.36-.17.36.01.37.07.36.07.36.01.36-.01.37.12.36.14.36.01.36-.01.36.07.37-.03.36-.02h.36l.36-.16.36.03.37-.01.36-.2.36.01h.36l.36.02.37-.04.36-.03.36.02.36-.05.37.08.36.17.36-.05.36-.05.36-.08.37.35h.36l.36.2.36.2.36.02.37-.02.36-.04.36.05.36-.01h.36l.37-.04.36.03.36.01.36-.04.37-.01.36-.04.36-.04.36.04.36-.03.37-.03.36-.05.36.01.36.02.36-.03.37.09.36-.03.36-.03.36-.03.36-.03.37-.01.36-.05.36-.06.36-.06.36-.09h.37l.36.01.36.08.36-.04.37.18.36.03.36-.01.36-.05.36-.07.37-.06.36.23.36.02.36.04.36.01.37-.01.36.01.36-.04.36-.12.36-.03.37-.01.36-.05.36-.04.36.03.37.02.36-.05.36-.12.36.05.36-.1h.37l.36.04.36.02.36.02.36.01.37.03.36-.03.36.02h.36l.36.03.37-.2.36.01.36-.01.36.03.36.17.37.02.36.01.36-.02.36-.01.37.06.36-.02.36-.02.36-.02h.36l.37-.03.36-.02.36-.01.36-.02h.36l.37-.03.36-.02.36-.06.36.14.36-.03.37.06.36.03.36-.01.36.08.37-.02.36-.03.36-.01.36-.04.36-.04.37-.03.36-.02h.36l.36.2.36-.02.37-.06.36-.01.36-.03.36-.05.36.11.37.04.36-.04.36-.04.36-.06.36-.02.37.13.36.11.36-.03h.36l.37-.03h.36l.36-.03.36-.02.36-.01.37-.06.36.06.36-.01.36.01.36-.03.37-.04.36-.08.36.06.36.05.36.13.37.03.36.03.36-.03.36-.04.37-.04.36.01.36.05.36.07.36-.06h.37l.36-.05.36-.01.36-.02.36.03.37.14.36-.06.36.01.36.01.36-.2.37-.03.36-.02.36.07.36-.07h.37l.36.03h.36l.36-.01.36.03.37.06.36-.03.36.02.36-.01.36.02h.37l.36-.02h.36l.36.01h.36l.37.06.36-.04.36-.01.36.06.36-.02h.37l.36.02.36-.02.36-.03.37.04.36-.01.36.02.36.01.36-.04.37.01.36.03h.36"/><use xlink:href="#e" color="#F44336" transform="matrix(3.75 0 0 3.75 182.98 186.37)"/><use xlink:href="#e" color="#F44336" transform="matrix(3.75 0 0 3.75 220.55 22.51)"/></g><path fill="none" d="M28 45.01V205M371.99 45.01H28" color="#000"/></svg>