<svg xmlns="http://www.w3.org/2000/svg" xmlns:xlink="http://www.w3.org/1999/xlink" viewBox="0 0 400 250"><path fill="none" d="M0 0h400v250H0z"/><defs><use xlink:href="#b" id="h" fill="currentColor" stroke="none"/><use xlink:href="#b" id="c" stroke="currentColor" transform="rotate(180)"/><use xlink:href="#d" id="e" stroke="currentColor" transform="rotate(45)"/><use xlink:href="#e" id="g" fill="currentColor" stroke="none"/><path id="d" stroke="currentColor" stroke-width=".267" d="M-1-1h2v2h-2z"/><path id="b" stroke="currentColor" stroke-width=".267" d="m0-1.33-1.33 2h2.66z"/><path id="f" stroke="currentColor" stroke-width=".267" d="M0 1.33 1.265.411.782-1.067l-1.564-.009-.483 1.487z"/><circle id="a" cx="0" cy="0" r="1" stroke="currentColor" stroke-width=".267"/></defs><path fill="none" stroke="#000" stroke-linecap="round" stroke-linejoin="round" stroke-width=".1" d="M35.48 205V45.01" class="gridline" color="#000"/><g fill="none" stroke="none" stroke-linecap="round" stroke-linejoin="round" stroke-width="0" color="#000"><path d="M35.48 205v-7.5m0-152.49v7.5"/><text fill="#000" font-family="KaTeX_Main" font-size="10" text-anchor="middle" transform="translate(35.48 215.75)"><tspan> 1</tspan></text></g><path fill="none" stroke="#000" stroke-linecap="round" stroke-linejoin="round" stroke-width=".1" d="M72.87 205V45.01" class="gridline" color="#000"/><g fill="none" stroke="none" stroke-linecap="round" stroke-linejoin="round" stroke-width="0" color="#000"><path d="M72.87 205v-7.5m0-152.49v7.5"/><text fill="#000" font-family="KaTeX_Main" font-size="10" text-anchor="middle" transform="translate(72.87 215.75)"><tspan> 2</tspan></text></g><path fill="none" stroke="#000" stroke-linecap="round" stroke-linejoin="round" stroke-width=".1" d="M110.26 205V45.01" class="gridline" color="#000"/><g fill="none" stroke="none" stroke-linecap="round" stroke-linejoin="round" stroke-width="0" color="#000"><path d="M110.26 205v-7.5m0-152.49v7.5"/><text fill="#000" font-family="KaTeX_Main" font-size="10" text-anchor="middle" transform="translate(110.26 215.75)"><tspan> 3</tspan></text></g><path fill="none" stroke="#000" stroke-linecap="round" stroke-linejoin="round" stroke-width=".1" d="M147.65 205V45.01" class="gridline" color="#000"/><g fill="none" stroke="none" stroke-linecap="round" stroke-linejoin="round" stroke-width="0" color="#000"><path d="M147.65 205v-7.5m0-152.49v7.5"/><text fill="#000" font-family="KaTeX_Main" font-size="10" text-anchor="middle" transform="translate(147.65 215.75)"><tspan> 4</tspan></text></g><path fill="none" stroke="#000" stroke-linecap="round" stroke-linejoin="round" stroke-width=".1" d="M185.04 205V45.01" class="gridline" color="#000"/><g fill="none" stroke="none" stroke-linecap="round" stroke-linejoin="round" stroke-width="0" color="#000"><path d="M185.04 205v-7.5m0-152.49v7.5"/><text fill="#000" font-family="KaTeX_Main" font-size="10" text-anchor="middle" transform="translate(185.04 215.75)"><tspan> 5</tspan></text></g><path fill="none" stroke="#000" stroke-linecap="round" stroke-linejoin="round" stroke-width=".1" d="M222.43 205V45.01" class="gridline" color="#000"/><g fill="none" stroke="none" stroke-linecap="round" stroke-linejoin="round" stroke-width="0" color="#000"><path d="M222.43 205v-7.5m0-152.49v7.5"/><text fill="#000" font-family="KaTeX_Main" font-size="10" text-anchor="middle" transform="translate(222.43 215.75)"><tspan> 6</tspan></text></g><path fill="none" stroke="#000" stroke-linecap="round" stroke-linejoin="round" stroke-width=".1" d="M259.82 205V45.01" class="gridline" color="#000"/><g fill="none" stroke="none" stroke-linecap="round" stroke-linejoin="round" stroke-width="0" color="#000"><path d="M259.82 205v-7.5m0-152.49v7.5"/><text fill="#000" font-family="KaTeX_Main" font-size="10" text-anchor="middle" transform="translate(259.82 215.75)"><tspan> 7</tspan></text></g><path fill="none" stroke="#000" stroke-linecap="round" stroke-linejoin="round" stroke-width=".1" d="M297.21 205V45.01" class="gridline" color="#000"/><g fill="none" stroke="none" stroke-linecap="round" stroke-linejoin="round" stroke-width="0" color="#000"><path d="M297.21 205v-7.5m0-152.49v7.5"/><text fill="#000" font-family="KaTeX_Main" font-size="10" text-anchor="middle" transform="translate(297.21 215.75)"><tspan> 8</tspan></text></g><path fill="none" stroke="#000" stroke-linecap="round" stroke-linejoin="round" stroke-width=".1" d="M334.6 205V45.01" class="gridline" color="#000"/><g fill="none" stroke="none" stroke-linecap="round" stroke-linejoin="round" stroke-width="0" color="#000"><path d="M334.6 205v-7.5m0-152.49v7.5"/><text fill="#000" font-family="KaTeX_Main" font-size="10" text-anchor="middle" transform="translate(334.6 215.75)"><tspan> 9</tspan></text></g><path fill="none" stroke="#000" stroke-linecap="round" stroke-linejoin="round" stroke-width=".1" d="M371.99 205V45.01" class="gridline" color="#000"/><g fill="none" stroke="none" stroke-linecap="round" stroke-linejoin="round" stroke-width="0" color="#000"><path d="M371.99 205v-7.5m0-152.49v7.5"/><text fill="#000" font-family="KaTeX_Main" font-size="10" text-anchor="middle" transform="translate(371.99 215.75)"><tspan> 10</tspan></text></g><g fill="none" stroke="none" stroke-linecap="round" stroke-linejoin="round" stroke-width="0" color="#000"><path d="M371.99 205h-7.5"/><text fill="#000" font-family="KaTeX_Main" font-size="10" transform="translate(378.99 208.25)"><tspan>0.30</tspan></text></g><g fill="none" stroke="none" stroke-linecap="round" stroke-linejoin="round" stroke-width="0" color="#000"><path d="M371.99 187.22h-7.5"/><text fill="#000" font-family="KaTeX_Main" font-size="10" transform="translate(378.99 190.47)"><tspan>0.40</tspan></text></g><g fill="none" stroke="none" stroke-linecap="round" stroke-linejoin="round" stroke-width="0" color="#000"><path d="M371.99 169.45h-7.5"/><text fill="#000" font-family="KaTeX_Main" font-size="10" transform="translate(378.99 172.7)"><tspan>0.50</tspan></text></g><g fill="none" stroke="none" stroke-linecap="round" stroke-linejoin="round" stroke-width="0" color="#000"><path d="M371.99 151.67h-7.5"/><text fill="#000" font-family="KaTeX_Main" font-size="10" transform="translate(378.99 154.92)"><tspan>0.60</tspan></text></g><g fill="none" stroke="none" stroke-linecap="round" stroke-linejoin="round" stroke-width="0" color="#000"><path d="M371.99 133.89h-7.5"/><text fill="#000" font-family="KaTeX_Main" font-size="10" transform="translate(378.99 137.14)"><tspan>0.70</tspan></text></g><g fill="none" stroke="none" stroke-linecap="round" stroke-linejoin="round" stroke-width="0" color="#000"><path d="M371.99 116.12h-7.5"/><text fill="#000" font-family="KaTeX_Main" font-size="10" transform="translate(378.99 119.37)"><tspan>0.80</tspan></text></g><g fill="none" stroke="none" stroke-linecap="round" stroke-linejoin="round" stroke-width="0" color="#000"><path d="M371.99 98.34h-7.5"/><text fill="#000" font-family="KaTeX_Main" font-size="10" transform="translate(378.99 101.59)"><tspan>0.90</tspan></text></g><g fill="none" stroke="none" stroke-linecap="round" stroke-linejoin="round" stroke-width="0" color="#000"><path d="M371.99 80.56h-7.5"/><text fill="#000" font-family="KaTeX_Main" font-size="10" transform="translate(378.99 83.81)"><tspan>1.00</tspan></text></g><g fill="none" stroke="none" stroke-linecap="round" stroke-linejoin="round" stroke-width="0" color="#000"><path d="M371.99 62.79h-7.5"/><text fill="#000" font-family="KaTeX_Main" font-size="10" transform="translate(378.99 66.04)"><tspan>1.10</tspan></text></g><g fill="none" stroke="none" stroke-linecap="round" stroke-linejoin="round" stroke-width="0" color="#000"><path d="M371.99 45.01h-7.5"/><text fill="#000" font-family="KaTeX_Main" font-size="10" transform="translate(378.99 48.26)"><tspan>1.20</tspan></text></g><path fill="none" stroke="none" stroke-linecap="round" stroke-linejoin="round" stroke-width="0" d="M28 45.01V205M371.99 45.01H28" color="#000"/><text fill="#000" stroke="none" stroke-linecap="round" stroke-linejoin="round" stroke-width="0" color="#000" font-family="KaTeX_Main" font-size="10" text-anchor="middle" transform="rotate(-90 68.255 56.755)"><tspan font-weight="bold">Duration </tspan><tspan> in milliseconds</tspan></text><text fill="#000" stroke="none" stroke-linecap="round" stroke-linejoin="round" stroke-width="0" color="#000" font-family="KaTeX_Main" font-size="10" text-anchor="middle" transform="translate(199.99 238.25)"><tspan>Operations / 10</tspan><tspan dy="-5" font-size="8">6</tspan></text><text fill="#000" stroke="none" stroke-linecap="round" stroke-linejoin="round" color="#000" font-family="KaTeX_Main" font-size="8" transform="translate(132.8 10.11)"><tspan>LBSTBottomUp</tspan></text><g fill="none" stroke="currentColor" stroke-linecap="round" stroke-linejoin="round" color="#000"><path stroke="#3B75EA" d="M97.3 7.51h29.9M28 107l.37-.14.38-.08h.37l.38.08.37.18.37.3.38.43.37.56.38.72.37.88.37 1.05.38 1.21.37 1.39.37 1.54.38 1.69.37 1.83.38 1.95.37 2.05.37 2.12.38 2.17.37 2.2.38 2.19.37 2.17.37 2.12.38 2.04.37 1.96.38 1.86.37 1.74.37 1.62.38 1.49.37 1.35.37 1.23.38 1.11.37.98.38.87.37.76.37.65.38.57.37.48.38.4.37.33.37.25.38.19.37.13.38.07h.37l.37-.07.38-.13.37-.2.38-.28.37-.36.37-.45.38-.54.37-.63.37-.74.38-.85.37-.95.38-1.06.37-1.17.37-1.28.38-1.38.37-1.48.38-1.57.37-1.64.37-1.71.38-1.77.37-1.8.38-1.83.37-1.84.37-1.83.38-1.8.37-1.77.37-1.73.38-1.66.37-1.58.38-1.51.37-1.42.37-1.32.38-1.23.37-1.13.38-1.03.37-.94.37-.85.38-.75.37-.67.38-.6.37-.51.37-.45.38-.39.37-.33.38-.27.37-.22.37-.17.38-.11.37-.08.37-.02.38.03.37.08.38.14.37.2.37.26.38.33.37.4.38.47.37.56.37.64.38.72.37.81.38.91.37.99.37 1.07.38 1.17.37 1.24.37 1.32.38 1.39.37 1.45.38 1.5.37 1.55.37 1.59.38 1.61.37 1.62.38 1.62.37 1.62.37 1.6.38 1.57.37 1.53.38 1.49.37 1.43.37 1.37.38 1.3.37 1.23.38 1.15.37 1.07.37.98.38.9.37.82.37.73.38.64.37.56.38.47.37.38.37.31.38.21.37.14.38.05.37-.03.37-.11.38-.2.37-.28.38-.36.37-.44.37-.52.38-.61.37-.69.37-.77.38-.85.37-.93.38-1 .37-1.08.37-1.14.38-1.21.37-1.27.38-1.32.37-1.37.37-1.4.38-1.44.37-1.46.38-1.47.37-1.49.37-1.48.38-1.47.37-1.45.38-1.43.37-1.4.37-1.35.38-1.32.37-1.25.37-1.21.38-1.14.37-1.08.38-1.02.37-.94.37-.88.38-.81.37-.74.38-.67.37-.6.37-.53.38-.46.37-.4.38-.33.37-.27.37-.2.38-.14.37-.07.37-.01.38.06.37.12.38.18.37.25.37.33.38.38.37.46.38.53.37.6.37.67.38.75.37.81.38.88.37.95.37 1.01.38 1.08.37 1.14.38 1.19.37 1.23.37 1.29.38 1.32.37 1.35.37 1.38.38 1.39.37 1.41.38 1.41.37 1.4.37 1.39.38 1.38.37 1.35.38 1.31.37 1.27.37 1.23.38 1.18.37 1.12.38 1.07.37 1 .37.93.38.86.37.78.37.72.38.63.37.56.38.47.37.4.37.32.38.23.37.16.38.07.37-.01.37-.09.38-.17.37-.26.38-.33.37-.41.37-.49.38-.56.37-.64.38-.71.37-.79.37-.85.38-.92.37-.97.37-1.04.38-1.09.37-1.14.38-1.18.37-1.22.37-1.26.38-1.28.37-1.3.38-1.31.37-1.32.37-1.33.38-1.32.37-1.3.38-1.29.37-1.27.37-1.24.38-1.2.37-1.16.37-1.12.38-1.08.37-1.02.38-.97.37-.92.37-.85.38-.8.37-.73.38-.67.37-.61.37-.55.38-.48.37-.42.38-.35.37-.28.37-.22.38-.16.37-.09.38-.02.37.04.37.11.38.17.37.24.37.31.38.38.37.44.38.52.37.57.37.65.38.71.37.77.38.84.37.89.37.96.38 1 .37 1.06.38 1.11.37 1.15.37 1.19.38 1.22.37 1.25.37 1.27.38 1.29.37 1.29.38 1.31.37 1.3.37 1.29.38 1.28.37 1.26.38 1.23.37 1.2.37 1.16.38 1.12.37 1.07.38 1.02.37.97.37.91.38.84.37.78.38.71.37.64.37.56.38.5.37.41.37.34.38.26.37.19.38.1.37.02.37-.05.38-.13.37-.22.38-.29.37-.37.37-.44.38-.52.37-.59.38-.67.37-.73.37-.79.38-.86.37-.92.37-.98.38-1.02.37-1.07.38-1.12.37-1.15.37-1.18.38-1.21.37-1.23.38-1.25.37-1.25.37-1.26.38-1.25.37-1.25.38-1.23.37-1.21.37-1.19.38-1.16.37-1.12.38-1.09.37-1.05.37-1 .38-.95.37-.9.37-.85.38-.79.37-.73.38-.68.37-.61.37-.56.38-.49.37-.42.38-.37.37-.29.37-.24.38-.17.37-.1.38-.03.37.03.37.1.38.16.37.23.37.31.38.36.37.44.38.5.37.57.37.63.38.7.37.76.38.82.37.88.37.94.38.99.37 1.04.38 1.08.37 1.13.37 1.16.38 1.2.37 1.22.38 1.24.37 1.26.37 1.27.38 1.27.37 1.27.37 1.27.38 1.25.37 1.22.38 1.21.37 1.17.37 1.14.38 1.09.37 1.05.38 1 .37.94.37.88.38.83.37.75.38.69.37.62.37.55.38.48.37.4.37.32.38.24.37.17.38.09.37.01.37-.07.38-.15.37-.23.38-.31.37-.38.37-.46.38-.53.37-.6.38-.68.37-.74.37-.81.38-.87.37-.93.38-.99.37-1.03.37-1.08.38-1.13.37-1.16.37-1.19.38-1.21.37-1.24.38-1.25.37-1.26.37-1.26.38-1.26.37-1.25.38-1.23.37-1.22.37-1.19.38-1.16.37-1.12.38-1.09.37-1.04.37-1 .38-.95.37-.89.37-.84.38-.79.37-.72.38-.67.37-.6.37-.55.38-.48.37-.41.38-.35.37-.29.37-.22.38-.16.37-.09.38-.03.37.05.37.1.38.18.37.24.37.31.38.38.37.45.38.51.37.58.37.65.38.71.37.78.38.84.37.9.37.95.38 1.01.37 1.07.38 1.11.37 1.15.37 1.19.38 1.23.37 1.25.38 1.28.37 1.29.37 1.3.38 1.31.37 1.31.37 1.3.38 1.28.37 1.26.38 1.24.37 1.2.37 1.17.38 1.12.37 1.07.38 1.02.37.97.37.9.38.84.37.78.38.7.37.63.37.56.38.49.37.4.37.33.38.25.37.18.38.09.37.01.37-.06.38-.15.37-.23.38-.3.37-.39.37-.46.38-.53.37-.62.38-.68.37-.76.37-.82.38-.89.37-.95.38-1.01.37-1.06.37-1.12.38-1.16.37-1.2.37-1.24.38-1.26.37-1.29.38-1.3.37-1.32.37-1.31.38-1.32.37-1.31.38-1.29.37-1.27.37-1.24.38-1.22.37-1.17.38-1.14.37-1.08.37-1.04.38-.99.37-.93.37-.87.38-.82.37-.75.38-.69.37-.63.37-.56.38-.5.37-.44.38-.37.37-.3.37-.25.38-.17.37-.12.38-.04.37.02.37.09.38.15.37.22.38.29.37.36.37.43.38.5.37.57.37.64.38.7.37.78.38.85.37.91.37.98.38 1.04.37 1.09.38 1.15.37 1.2.37 1.25.38 1.28.37 1.32.38 1.35.37 1.36.37 1.38.38 1.39.37 1.39.37 1.38.38 1.36.37 1.34.38 1.31.37 1.28.37 1.24.38 1.19.37 1.14.38 1.09.37 1.02.37.96.38.89.37.82.38.75.37.67.37.6.38.53.37.44.38.36.37.29.37.2.38.13.37.04.37-.04.38-.12.37-.21.38-.29.37-.37.37-.45.38-.54.37-.62.38-.7.37-.78.37-.85.38-.94.37-1.01.38-1.08.37-1.14.37-1.21.38-1.26.37-1.31.37-1.36.38-1.39.37-1.42.38-1.44.37-1.46.37-1.46.38-1.45.37-1.44.38-1.42.37-1.4.37-1.35.38-1.32.37-1.27.38-1.21.37-1.16.37-1.09.38-1.03.37-.96.38-.9.37-.82.37-.76.38-.68.37-.62.37-.56.38-.49.37-.42.38-.36.37-.3.37-.24.38-.18.37-.12.38-.06h.37l.37.07.38.12.37.19.38.26.37.33.37.41.38.48.37.56.37.63.38.73.37.8.38.89.37.98.37 1.06.38 1.15.37 1.22.38 1.3.37 1.37.37 1.43.38 1.49.37 1.54.38 1.58.37 1.6.37 1.63.38 1.64.37 1.63.38 1.63.37 1.6.37 1.57.38 1.52.37 1.48.37 1.42.38 1.35.37 1.28.38 1.2.37 1.12.37 1.04.38.96.37.87.38.78.37.7.37.62.38.53.37.44.38.37.37.28.37.21.38.13.37.04.37-.03.38-.11.37-.2.38-.28.37-.36.37-.46.38-.55.37-.64.38-.74.37-.85.37-.94.38-1.04.37-1.15.38-1.24.37-1.34.37-1.44.38-1.51.37-1.6.38-1.67.37-1.72.37-1.77.38-1.79.37-1.82.37-1.82.38-1.81.37-1.78.38-1.74.37-1.68.37-1.62.38-1.54.37-1.45.38-1.35.37-1.26.37-1.15.38-1.05.37-.94.38-.84.37-.75.37-.65.38-.57.37-.5.37-.42.38-.37.37-.31.38-.26.37-.22.37-.19.38-.16.37-.12.38-.1.37-.08.37-.04.38-.01.37.03.38.08.37.12.37.19.38.26.37.35.38.43.37.54.37.65.38.78.37.91.37 1.05.38 1.19.37 1.33.38 1.48.37 1.62.37 1.75.38 1.87.37 1.98.38 2.07.37 2.13.37 2.18.38 2.2.37 2.19.38 2.17.37 2.11.37 2.03.38 1.94.37 1.83.37 1.7.38 1.56.37 1.42.38 1.27.37 1.13.37.99.38.86.37.73.38.62.37.51.37.43.38.34.37.28.38.21.37.17.37.12.38.09.37.05.38.03.37-.01.37-.03.38-.07.37-.11.37-.15.38-.21.37-.28.38-.37.37-.47.37-.59.38-.75.37-.91.38-1.11.37-1.32.37-1.56.38-1.81.37-2.06.38-2.31.37-2.54.37-2.75.38-2.91.37-3.03.37-3.08.38-3.07.37-2.99.38-2.83.37-2.6.37-2.34.38-2.01.37-1.68.38-1.34.37-1.02.37-.72.38-.47.37-.27.38-.11.37-.01.37.07.38.1.37.1.38.1.37.07.37.04h.38l.37-.04.37-.08.38-.1.37-.11.38-.11.37-.11.37-.11.38-.13.37-.17.38-.24.37-.34.37-.43.38-.49.37-.48.38-.42.37-.34.37-.33.38-.56.37-1.22.37-2.55.38-4.71.37-7.66.38-10.93.37-12.99.37-11.03.38-1.59.37 15.13.38 27.35.37 19.19"/><use xlink:href="#a" color="#3B75EA" transform="matrix(3.75 0 0 3.75 342.45 156.03)"/><use xlink:href="#a" color="#3B75EA" transform="matrix(3.75 0 0 3.75 112.25 7.51)"/></g><text fill="#000" stroke="none" stroke-linecap="round" stroke-linejoin="round" color="#000" font-family="KaTeX_Main" font-size="8" transform="translate(132.8 25.11)"><tspan>LBSTRelaxed</tspan></text><g fill="none" stroke="currentColor" stroke-linecap="round" stroke-linejoin="round" color="#000"><path stroke="violet" stroke-dasharray="4.5,2.0,0.5,2.0,0.5,2.0" d="M97.3 22.51h29.9M28 98.62l.37-.04.38.05.37.18.38.33.37.49.37.7.38.91.37 1.15.38 1.41.37 1.68.37 1.97.38 2.25.37 2.53.37 2.81.38 3.07.37 3.29.38 3.49.37 3.66.37 3.77.38 3.86.37 3.9.38 3.88.37 3.83.37 3.75.38 3.61.37 3.46.38 3.27.37 3.06.37 2.85.38 2.62.37 2.38.37 2.16.38 1.94.37 1.72.38 1.51.37 1.33.37 1.15.38.99.37.85.38.71.37.58.37.48.38.36.37.26.38.16.37.06.37-.04.38-.16.37-.27.38-.4.37-.53.37-.68.38-.84.37-1 .37-1.19.38-1.37.37-1.56.38-1.77.37-1.96.37-2.16.38-2.36.37-2.53.38-2.71.37-2.86.37-2.99.38-3.11.37-3.19.38-3.25.37-3.28.37-3.28.38-3.26.37-3.2.37-3.12.38-3.02.37-2.9.38-2.75.37-2.59.37-2.43.38-2.25.37-2.07.38-1.89.37-1.7.37-1.53.38-1.36.37-1.2.38-1.04.37-.89.37-.76.38-.63.37-.52.38-.4.37-.3.37-.2.38-.11.37-.01.37.08.38.18.37.27.38.37.37.47.37.58.38.71.37.82.38.95.37 1.09.37 1.22.38 1.37.37 1.52.38 1.66.37 1.81.37 1.95.38 2.09.37 2.22.37 2.35.38 2.46.37 2.56.38 2.65.37 2.72.37 2.77.38 2.81.37 2.83.38 2.83.37 2.81.37 2.78.38 2.72.37 2.66.38 2.58.37 2.48.37 2.38.38 2.26.37 2.14.38 2 .37 1.87.37 1.74.38 1.59.37 1.44.37 1.31.38 1.16.37 1.01.38.88.37.73.37.6.38.46.37.32.38.18.37.05.37-.09.38-.23.37-.36.38-.51.37-.64.37-.79.38-.93.37-1.07.37-1.21.38-1.35.37-1.49.38-1.62.37-1.75.37-1.88.38-2 .37-2.11.38-2.21.37-2.3.37-2.38.38-2.44.37-2.5.38-2.54.37-2.56.37-2.57.38-2.57.37-2.54.38-2.52.37-2.47.37-2.41.38-2.33.37-2.26.37-2.16.38-2.06.37-1.96.38-1.84.37-1.72.37-1.6.38-1.48.37-1.35.38-1.23.37-1.1.37-.97.38-.85.37-.73.38-.6.37-.48.37-.36.38-.24.37-.13h.37l.38.11.37.23.38.35.37.47.37.59.38.71.37.83.38.96.37 1.07.37 1.2.38 1.32.37 1.44.38 1.55.37 1.66.37 1.78.38 1.87.37 1.97.38 2.06.37 2.14.37 2.21.38 2.27.37 2.32.37 2.36.38 2.39.37 2.4.38 2.4.37 2.39.37 2.37.38 2.33.37 2.29.38 2.23.37 2.16.37 2.08.38 2 .37 1.91.38 1.8.37 1.7.37 1.58.38 1.46.37 1.35.37 1.21.38 1.09.37.96.38.82.37.69.37.56.38.42.37.29.38.15.37.01.37-.12.38-.26.37-.39.38-.52.37-.66.37-.79.38-.91.37-1.04.38-1.17.37-1.28.37-1.4.38-1.51.37-1.61.37-1.71.38-1.8.37-1.89.38-1.96.37-2.03.37-2.08.38-2.13.37-2.17.38-2.19.37-2.21.37-2.21.38-2.21.37-2.19.38-2.16.37-2.13.37-2.08.38-2.02.37-1.96.37-1.89.38-1.81.37-1.73.38-1.64.37-1.54.37-1.45.38-1.34.37-1.24.38-1.14.37-1.02.37-.92.38-.8.37-.69.38-.58.37-.46.37-.35.38-.24.37-.12.38-.01.37.11.37.22.38.35.37.45.37.58.38.69.37.81.38.92.37 1.04.37 1.15.38 1.26.37 1.37.38 1.47.37 1.57.37 1.67.38 1.75.37 1.84.38 1.92.37 1.98.37 2.04.38 2.1.37 2.14.37 2.17.38 2.19.37 2.2.38 2.21.37 2.19.37 2.18.38 2.15.37 2.1.38 2.06.37 2 .37 1.94.38 1.86.37 1.77.38 1.69.37 1.6.37 1.49.38 1.38.37 1.28.38 1.16.37 1.04.37.92.38.8.37.68.37.54.38.42.37.29.38.16.37.03.37-.1.38-.23.37-.36.38-.48.37-.62.37-.74.38-.87.37-.98.38-1.11.37-1.22.37-1.34.38-1.44.37-1.55.37-1.64.38-1.73.37-1.82.38-1.9.37-1.96.37-2.03.38-2.08.37-2.12.38-2.16.37-2.18.37-2.19.38-2.2.37-2.2.38-2.18.37-2.15.37-2.12.38-2.08.37-2.03.38-1.96.37-1.9.37-1.83.38-1.74.37-1.66.37-1.57.38-1.46.37-1.37.38-1.26.37-1.16.37-1.04.38-.93.37-.81.38-.7.37-.58.37-.45.38-.34.37-.21.38-.1.37.04.37.15.38.28.37.4.37.53.38.65.37.77.38.89.37 1 .37 1.13.38 1.24.37 1.34.38 1.45.37 1.56.37 1.65.38 1.73.37 1.83.38 1.89.37 1.97.37 2.02.38 2.08.37 2.11.38 2.15.37 2.17.37 2.18.38 2.18.37 2.17.37 2.16.38 2.12.37 2.08.38 2.03.37 1.98.37 1.91.38 1.83.37 1.75.38 1.67.37 1.56.37 1.47.38 1.36.37 1.24.38 1.14.37 1.01.37.89.38.77.37.65.37.51.38.39.37.26.38.13h.37l.37-.13.38-.26.37-.39.38-.51.37-.65.37-.77.38-.89.37-1.01.38-1.13.37-1.24.37-1.36.38-1.46.37-1.57.38-1.65.37-1.75.37-1.84.38-1.9.37-1.98.37-2.04.38-2.09.37-2.13.38-2.16.37-2.19.37-2.2.38-2.2.37-2.2.38-2.18.37-2.16.37-2.12.38-2.08.37-2.02.38-1.97.37-1.89.37-1.82.38-1.74.37-1.66.37-1.55.38-1.47.37-1.36.38-1.25.37-1.15.37-1.03.38-.92.37-.81.38-.68.37-.57.37-.45.38-.32.37-.21.38-.07.37.04.37.17.38.3.37.42.37.54.38.67.37.79.38.92.37 1.04.37 1.16.38 1.27.37 1.39.38 1.5.37 1.6.37 1.7.38 1.8.37 1.89.38 1.97.37 2.04.37 2.1.38 2.16.37 2.2.38 2.24.37 2.27.37 2.27.38 2.28.37 2.28.37 2.25.38 2.23.37 2.18.38 2.14.37 2.07.37 2.01.38 1.93.37 1.85.38 1.75.37 1.65.37 1.55.38 1.43.37 1.32.38 1.2.37 1.08.37.94.38.82.37.69.37.56.38.42.37.29.38.14.37.02.37-.13.38-.25.37-.4.38-.53.37-.67.37-.8.38-.93.37-1.06.38-1.18.37-1.31.37-1.42.38-1.55.37-1.65.38-1.75.37-1.85.37-1.94.38-2.02.37-2.09.37-2.16.38-2.21.37-2.26.38-2.28.37-2.31.37-2.32.38-2.32.37-2.31.38-2.29.37-2.25.37-2.21.38-2.16.37-2.1.38-2.02.37-1.95.37-1.86.38-1.77.37-1.67.37-1.58.38-1.46.37-1.36.38-1.25.37-1.13.37-1.01.38-.9.37-.78.38-.66.37-.54.37-.42.38-.3.37-.17.38-.05.37.07.37.2.38.32.37.45.38.58.37.71.37.84.38.96.37 1.1.37 1.22.38 1.35.37 1.47.38 1.6.37 1.71.37 1.83.38 1.93.37 2.04.38 2.13.37 2.21.37 2.29.38 2.36.37 2.41.38 2.45.37 2.48.37 2.49.38 2.51.37 2.49.37 2.47.38 2.44.37 2.39.38 2.33.37 2.26.37 2.18.38 2.1.37 1.99.38 1.89.37 1.78.37 1.66.38 1.53.37 1.41.38 1.28.37 1.14.37 1 .38.87.37.73.38.58.37.45.37.3.38.16.37.02.37-.12.38-.27.37-.42.38-.56.37-.7.37-.85.38-.99.37-1.14.38-1.28.37-1.42.37-1.55.38-1.69.37-1.82.38-1.94.37-2.06.37-2.17.38-2.27.37-2.35.37-2.43.38-2.5.37-2.54.38-2.59.37-2.6.37-2.62.38-2.6.37-2.58.38-2.55.37-2.5.37-2.43.38-2.35.37-2.27.38-2.17.37-2.06.37-1.95.38-1.82.37-1.71.38-1.58.37-1.45.37-1.32.38-1.19.37-1.07.37-.94.38-.82.37-.71.38-.58.37-.47.37-.36.38-.25.37-.15.38-.03.37.07.37.18.38.3.37.4.38.52.37.65.37.76.38.9.37 1.03.37 1.16.38 1.3.37 1.44.38 1.58.37 1.72.37 1.86.38 2 .37 2.13.38 2.25.37 2.36.37 2.47.38 2.56.37 2.64.38 2.7.37 2.75.37 2.77.38 2.78.37 2.78.38 2.76.37 2.71.37 2.65.38 2.57.37 2.49.37 2.39.38 2.27.37 2.15.38 2.01.37 1.89.37 1.74.38 1.6.37 1.46.38 1.31.37 1.18.37 1.03.38.9.37.76.38.63.37.5.37.38.38.25.37.12h.37l.38-.13.37-.26.38-.39.37-.53.37-.67.38-.82.37-.97.38-1.14.37-1.3.37-1.47.38-1.65.37-1.82.38-2 .37-2.16.37-2.34.38-2.49.37-2.64.38-2.77.37-2.89.37-2.98.38-3.05.37-3.1.37-3.12.38-3.12.37-3.09.38-3.03.37-2.94.37-2.85.38-2.71.37-2.57.38-2.41.37-2.24.37-2.07.38-1.88.37-1.71.38-1.52.37-1.36.37-1.2.38-1.04.37-.91.37-.78.38-.67.37-.58.38-.49.37-.42.37-.35.38-.3.37-.25.38-.2.37-.15.37-.1.38-.04.37.01.38.1.37.18.37.28.38.4.37.54.38.7.37.88.37 1.08.38 1.28.37 1.52.37 1.76.38 2.02.37 2.27.38 2.53.37 2.78.37 3.02.38 3.23.37 3.43.38 3.6.37 3.71.37 3.81.38 3.84.37 3.84.38 3.8.37 3.69.37 3.57.38 3.39.37 3.19.37 2.95.38 2.7.37 2.45.38 2.17.37 1.91.37 1.65.38 1.41.37 1.19.38.98.37.8.37.65.38.51.37.41.38.32.37.26.37.2.38.17.37.13.38.09.37.07.37.03.38-.01.37-.06.37-.13.38-.21.37-.32.38-.44.37-.6.37-.79.38-1 .37-1.26.38-1.56.37-1.9.37-2.26.38-2.68.37-3.09.38-3.53.37-3.95.37-4.34.38-4.68.37-4.94.37-5.1.38-5.17.37-5.11.38-4.92.37-4.63.37-4.23.38-3.78.37-3.25.38-2.72.37-2.19.37-1.7.38-1.25.37-.85.38-.52.37-.26.37-.06.38.09.37.2.38.25.37.26.37.23.38.19.37.11.37.02.38-.08.37-.18.38-.25.37-.32.37-.35.38-.39.37-.39.38-.39.37-.39.37-.39.38-.36.37-.33.38-.27.37-.2.37-.11.38-.07.37-.14.37-.32.38-.59.37-.86.38-.97.37-.76.37-.26.38.26.37.46.38 1.95.37 15.75"/><use xlink:href="#g" color="violet" transform="matrix(3.75 0 0 3.75 56.04 128.06)"/><use xlink:href="#g" color="violet" transform="matrix(3.75 0 0 3.75 112.25 22.51)"/></g><text fill="#000" stroke="none" stroke-linecap="round" stroke-linejoin="round" color="#000" font-family="KaTeX_Main" font-size="8" transform="translate(241.1 10.11)"><tspan>WBSTBottomUp</tspan></text><g fill="none" stroke="currentColor" stroke-linecap="round" stroke-linejoin="round" color="#000"><path stroke="#000" d="M205.6 7.51h29.9M28 104.16l.37-.12.38-.06.37.02.38.12.37.21.37.34.38.48.37.63.38.79.37.96.37 1.15.38 1.32.37 1.51.37 1.67.38 1.84.37 1.99.38 2.11.37 2.21.37 2.29.38 2.34.37 2.36.38 2.35.37 2.32.37 2.26.38 2.18.37 2.08.38 1.96.37 1.84.37 1.7.38 1.55.37 1.41.37 1.27.38 1.13.37 1 .38.88.37.75.37.65.38.56.37.46.38.38.37.31.37.24.38.17.37.11.38.06.37-.01.37-.07.38-.13.37-.2.38-.27.37-.36.37-.43.38-.53.37-.63.37-.73.38-.84.37-.95.38-1.06.37-1.18.37-1.29.38-1.41.37-1.5.38-1.6.37-1.69.37-1.77.38-1.83.37-1.87.38-1.91.37-1.93.37-1.93.38-1.91.37-1.89.37-1.83.38-1.79.37-1.71.38-1.63.37-1.55.37-1.45.38-1.35.37-1.26.38-1.15.37-1.06.37-.95.38-.86.37-.78.38-.68.37-.61.37-.53.38-.46.37-.39.38-.33.37-.27.37-.21.38-.16.37-.1.37-.04.38.01.37.07.38.14.37.2.37.28.38.35.37.42.38.52.37.59.37.69.38.79.37.87.38.98.37 1.06.37 1.17.38 1.25.37 1.34.37 1.42.38 1.49.37 1.56.38 1.62.37 1.66.37 1.7.38 1.73.37 1.74.38 1.74.37 1.74.37 1.71.38 1.68.37 1.65.38 1.59.37 1.54.37 1.47.38 1.4.37 1.32.38 1.24.37 1.16.37 1.07.38.98.37.89.37.8.38.72.37.62.38.53.37.45.37.35.38.27.37.18.38.1.37.01.37-.08.38-.17.37-.25.38-.34.37-.43.37-.53.38-.61.37-.7.37-.78.38-.88.37-.96.38-1.05.37-1.13.37-1.2.38-1.27.37-1.35.38-1.4.37-1.45.37-1.5.38-1.54.37-1.57.38-1.58.37-1.6.37-1.6.38-1.59.37-1.57.38-1.55.37-1.52.37-1.48.38-1.42.37-1.38.37-1.31.38-1.26.37-1.18.38-1.12.37-1.04.37-.97.38-.9.37-.82.38-.75.37-.67.37-.6.38-.52.37-.45.38-.38.37-.31.37-.23.38-.17.37-.09.37-.02.38.05.37.12.38.19.37.28.37.34.38.43.37.5.38.58.37.66.37.74.38.81.37.9.38.97.37 1.04.37 1.12.38 1.18.37 1.25.38 1.3.37 1.36.37 1.4.38 1.44.37 1.48.37 1.5.38 1.51.37 1.53.38 1.52.37 1.52.37 1.5.38 1.48.37 1.44.38 1.41.37 1.36.37 1.31.38 1.25.37 1.19.38 1.12.37 1.06.37.97.38.9.37.82.37.74.38.66.37.57.38.48.37.4.37.32.38.23.37.14.38.06.37-.03.37-.11.38-.2.37-.28.38-.37.37-.44.37-.53.38-.6.37-.69.38-.76.37-.83.37-.91.38-.98.37-1.03.37-1.11.38-1.15.37-1.21.38-1.26.37-1.3.37-1.33.38-1.37.37-1.38.38-1.41.37-1.41.37-1.41.38-1.42.37-1.4.38-1.38.37-1.36.37-1.33.38-1.3.37-1.25.37-1.21.38-1.16.37-1.11.38-1.05.37-.99.37-.93.38-.86.37-.8.38-.73.37-.66.37-.59.38-.52.37-.45.38-.38.37-.3.37-.23.38-.16.37-.09.38-.01.37.06.37.13.38.21.37.29.37.36.38.43.37.5.38.59.37.65.37.73.38.79.37.87.38.93.37 1 .37 1.06.38 1.12.37 1.17.38 1.22.37 1.26.37 1.3.38 1.34.37 1.36.37 1.39.38 1.4.37 1.4.38 1.41.37 1.4.37 1.39.38 1.37.37 1.34.38 1.31.37 1.28.37 1.23.38 1.18.37 1.13.38 1.08.37 1.01.37.94.38.88.37.81.38.73.37.66.37.58.38.5.37.42.37.34.38.26.37.18.38.09.37.01.37-.08.38-.15.37-.24.38-.32.37-.41.37-.48.38-.56.37-.64.38-.71.37-.79.37-.85.38-.93.37-.98.37-1.05.38-1.11.37-1.15.38-1.2.37-1.24.37-1.28.38-1.31.37-1.33.38-1.35.37-1.36.37-1.36.38-1.37.37-1.35.38-1.35.37-1.32.37-1.29.38-1.27.37-1.23.38-1.19.37-1.14.37-1.09.38-1.04.37-.98.37-.92.38-.87.37-.79.38-.73.37-.67.37-.59.38-.53.37-.45.38-.38.37-.31.37-.24.38-.17.37-.09.38-.01.37.05.37.13.38.21.37.27.37.36.38.42.37.5.38.57.37.64.37.71.38.78.37.85.38.91.37.97.37 1.03.38 1.08.37 1.14.38 1.18.37 1.22.37 1.26.38 1.29.37 1.31.38 1.34.37 1.34.37 1.35.38 1.36.37 1.34.37 1.33.38 1.32.37 1.28.38 1.26.37 1.22.37 1.18.38 1.13.37 1.08.38 1.02.37.96.37.9.38.84.37.76.38.7.37.62.37.54.38.47.37.4.37.31.38.23.37.16.38.08.37-.01.37-.08.38-.16.37-.24.38-.32.37-.4.37-.47.38-.55.37-.62.38-.69.37-.76.37-.83.38-.89.37-.96.38-1.01.37-1.06.37-1.12.38-1.16.37-1.2.37-1.23.38-1.27.37-1.29.38-1.3.37-1.32.37-1.33.38-1.33.37-1.32.38-1.31.37-1.29.37-1.26.38-1.24.37-1.21.38-1.17.37-1.12.37-1.08.38-1.03.37-.98.37-.92.38-.86.37-.79.38-.74.37-.67.37-.61.38-.53.37-.47.38-.4.37-.33.37-.26.38-.19.37-.11.38-.04.37.03.37.1.38.18.37.25.37.33.38.4.37.48.38.55.37.63.37.69.38.77.37.84.38.9.37.97.37 1.04.38 1.09.37 1.14.38 1.2.37 1.24.37 1.28.38 1.32.37 1.35.38 1.37.37 1.38.37 1.4.38 1.39.37 1.4.37 1.38.38 1.36.37 1.34.38 1.31.37 1.27.37 1.23.38 1.18.37 1.13.38 1.08.37 1.01.37.94.38.88.37.81.38.73.37.66.37.58.38.49.37.42.37.34.38.26.37.17.38.09h.37l.37-.07.38-.16.37-.25.38-.32.37-.41.37-.48.38-.57.37-.65.38-.72.37-.79.37-.87.38-.94.37-1 .38-1.06.37-1.12.37-1.18.38-1.22.37-1.27.37-1.3.38-1.34.37-1.36.38-1.38.37-1.39.37-1.4.38-1.4.37-1.38.38-1.38.37-1.35.37-1.32.38-1.3.37-1.25.38-1.21.37-1.17.37-1.11.38-1.06.37-1 .37-.94.38-.88.37-.81.38-.74.37-.68.37-.61.38-.55.37-.47.38-.4.37-.34.37-.26.38-.19.37-.12.38-.05.37.03.37.09.38.18.37.24.38.33.37.39.37.48.38.56.37.63.37.71.38.78.37.87.38.94.37 1.01.37 1.08.38 1.15.37 1.21.38 1.27.37 1.33.37 1.38.38 1.41.37 1.46.38 1.48.37 1.51.37 1.51.38 1.53.37 1.52.37 1.51.38 1.49.37 1.47.38 1.43.37 1.39.37 1.35.38 1.29.37 1.23.38 1.17.37 1.11.37 1.03.38.95.37.88.38.8.37.72.37.63.38.55.37.46.38.38.37.29.37.2.38.12.37.03.37-.05.38-.15.37-.23.38-.32.37-.4.37-.5.38-.58.37-.67.38-.76.37-.84.37-.92.38-1.01.37-1.09.38-1.16.37-1.23.37-1.3.38-1.36.37-1.41.37-1.47.38-1.5.37-1.54.38-1.56.37-1.57.37-1.59.38-1.58.37-1.57.38-1.55.37-1.52.37-1.49.38-1.44.37-1.4.38-1.34.37-1.27.37-1.21.38-1.14.37-1.07.38-1 .37-.92.37-.85.38-.77.37-.7.37-.63.38-.55.37-.49.38-.41.37-.35.37-.28.38-.21.37-.15.38-.08.37-.01.37.06.38.12.37.2.38.27.37.35.37.42.38.51.37.6.37.68.38.77.37.86.38.95.37 1.04.37 1.13.38 1.22.37 1.3.38 1.38.37 1.46.37 1.52.38 1.58.37 1.62.38 1.67.37 1.7.37 1.71.38 1.72.37 1.72.38 1.7.37 1.68.37 1.63.38 1.59.37 1.53.37 1.47.38 1.4.37 1.32.38 1.24.37 1.15.37 1.07.38.98.37.89.38.8.37.71.37.62.38.55.37.46.38.38.37.3.37.23.38.14.37.08.37-.01.38-.08.37-.17.38-.24.37-.33.37-.42.38-.52.37-.61.38-.71.37-.82.37-.92.38-1.03.37-1.15.38-1.25.37-1.35.37-1.46.38-1.56.37-1.64.38-1.73.37-1.79.37-1.85.38-1.89.37-1.92.37-1.94.38-1.92.37-1.91.38-1.86.37-1.82.37-1.75.38-1.67.37-1.58.38-1.48.37-1.38.37-1.27.38-1.17.37-1.05.38-.94.37-.85.37-.74.38-.66.37-.57.37-.49.38-.43.37-.37.38-.32.37-.27.37-.23.38-.19.37-.16.38-.12.37-.09.37-.06.38-.01.37.03.38.09.37.14.37.22.38.3.37.4.38.5.37.61.37.74.38.89.37 1.02.37 1.19.38 1.34.37 1.49.38 1.66.37 1.8.37 1.95.38 2.07.37 2.18.38 2.27.37 2.33.37 2.38.38 2.38.37 2.36.38 2.32.37 2.24.37 2.15.38 2.02.37 1.9.37 1.74.38 1.58.37 1.42.38 1.26.37 1.09.37.95.38.8.37.67.38.56.37.45.37.37.38.29.37.24.38.2.37.16.37.14.38.12.37.1.38.1.37.08.37.07.38.05.37.02.37-.01.38-.07.37-.13.38-.22.37-.34.37-.47.38-.63.37-.82.38-1.05.37-1.29.37-1.55.38-1.85.37-2.13.38-2.43.37-2.7.37-2.94.38-3.15.37-3.29.37-3.36.38-3.36.37-3.27.38-3.1.37-2.87.37-2.56.38-2.23.37-1.85.38-1.5.37-1.14.37-.82.38-.55.37-.33.38-.17.37-.06.37.01.38.04.37.04.38.01.37-.01.37-.05.38-.07.37-.1.37-.12.38-.12.37-.15.38-.15.37-.17.37-.2.38-.22.37-.23.38-.25.37-.26.37-.28.38-.3.37-.36.38-.43.37-.51.37-.58.38-.59.37-.51.37-.32.38-.07.37.21.38.43.37.52.37.42.38-.09.37-1.6.38-6.93.37-27.65"/><use xlink:href="#b" transform="matrix(3.75 0 0 3.75 113.62 140.68)"/><use xlink:href="#b" transform="matrix(3.75 0 0 3.75 220.55 7.51)"/></g><text fill="#000" stroke="none" stroke-linecap="round" stroke-linejoin="round" color="#000" font-family="KaTeX_Main" font-size="8" transform="translate(241.1 25.11)"><tspan>WBSTRelaxed</tspan></text><g fill="none" stroke="currentColor" stroke-linecap="round" stroke-linejoin="round" color="#000"><path stroke="#FFAB00" stroke-dasharray="4.0,2.0,1.0,2.0" d="M205.6 22.51h29.9M28 98.01l.37-.04.38.06.37.19.38.33.37.5.37.69.38.91.37 1.15.38 1.4.37 1.67.37 1.95.38 2.24.37 2.51.37 2.79.38 3.03.37 3.27.38 3.47.37 3.63.37 3.75.38 3.84.37 3.87.38 3.86.37 3.81.37 3.72.38 3.6.37 3.43.38 3.26.37 3.05.37 2.84.38 2.62.37 2.39.37 2.16.38 1.95.37 1.74.38 1.54.37 1.36.37 1.18.38 1.03.37.88.38.75.37.62.37.51.38.4.37.3.38.19.37.09.37-.01.38-.13.37-.25.38-.37.37-.5.37-.65.38-.8.37-.97.37-1.14.38-1.33.37-1.51.38-1.71.37-1.91.37-2.1.38-2.3.37-2.47.38-2.64.37-2.8.37-2.94.38-3.04.37-3.14.38-3.19.37-3.23.37-3.24.38-3.21.37-3.16.37-3.09.38-2.99.37-2.87.38-2.74.37-2.58.37-2.42.38-2.26.37-2.08.38-1.9.37-1.73.37-1.56.38-1.4.37-1.24.38-1.1.37-.96.37-.83.38-.71.37-.59.38-.49.37-.39.37-.3.38-.21.37-.11.37-.02.38.07.37.17.38.28.37.38.37.49.38.62.37.75.38.88.37 1.03.37 1.18.38 1.33.37 1.48.38 1.64.37 1.8.37 1.96.38 2.1.37 2.25.37 2.38.38 2.5.37 2.6.38 2.7.37 2.78.37 2.84.38 2.88.37 2.89.38 2.9.37 2.89.37 2.84.38 2.8.37 2.73.38 2.64.37 2.54.37 2.43.38 2.31.37 2.19.38 2.04.37 1.91.37 1.76.38 1.61.37 1.46.37 1.31.38 1.16.37 1.02.38.86.37.73.37.57.38.44.37.29.38.16.37.01.37-.12.38-.26.37-.41.38-.54.37-.68.37-.83.38-.97.37-1.1.37-1.25.38-1.39.37-1.52.38-1.66.37-1.79.37-1.91.38-2.03.37-2.14.38-2.24.37-2.33.37-2.4.38-2.48.37-2.52.38-2.56.37-2.58.37-2.6.38-2.59.37-2.57.38-2.53.37-2.49.37-2.43.38-2.36.37-2.27.37-2.19.38-2.09.37-1.98.38-1.87.37-1.75.37-1.64.38-1.51.37-1.39.38-1.26.37-1.14.37-1.02.38-.89.37-.77.38-.65.37-.53.37-.41.38-.28.37-.17.37-.05.38.08.37.2.38.32.37.44.37.56.38.7.37.82.38.94.37 1.08.37 1.2.38 1.32.37 1.45.38 1.57.37 1.69.37 1.8.38 1.9.37 2.01.38 2.09.37 2.18.37 2.26.38 2.31.37 2.37.37 2.41.38 2.43.37 2.45.38 2.45.37 2.44.37 2.42.38 2.38.37 2.33.38 2.28.37 2.21.37 2.12.38 2.04.37 1.95.38 1.84.37 1.73.37 1.61.38 1.5.37 1.36.37 1.24.38 1.11.37.97.38.84.37.7.37.57.38.42.37.29.38.15h.37l.37-.13.38-.27.37-.4.38-.55.37-.67.37-.81.38-.95.37-1.07.38-1.2.37-1.31.37-1.44.38-1.55.37-1.66.37-1.76.38-1.85.37-1.94.38-2.02.37-2.09.37-2.15.38-2.19.37-2.24.38-2.26.37-2.29.37-2.29.38-2.28.37-2.27.38-2.24.37-2.21.37-2.16.38-2.11.37-2.05.37-1.97.38-1.89.37-1.81.38-1.72.37-1.62.37-1.52.38-1.42.37-1.31.38-1.2.37-1.09.37-.98.38-.86.37-.74.38-.63.37-.51.37-.39.38-.27.37-.15.38-.03.37.09.37.21.38.33.37.46.37.58.38.7.37.82.38.94.37 1.06.37 1.18.38 1.29.37 1.41.38 1.52.37 1.62.37 1.72.38 1.82.37 1.9.38 1.99.37 2.05.37 2.12.38 2.18.37 2.22.37 2.25.38 2.28.37 2.29.38 2.3.37 2.29.37 2.26.38 2.24.37 2.2.38 2.15.37 2.09.37 2.02.38 1.94.37 1.86.38 1.77.37 1.66.37 1.56.38 1.45.37 1.34.38 1.21.37 1.09.37.96.38.84.37.7.37.57.38.44.37.3.38.17.37.03.37-.1.38-.25.37-.37.38-.51.37-.64.37-.77.38-.9.37-1.02.38-1.14.37-1.27.37-1.37.38-1.49.37-1.58.37-1.69.38-1.77.37-1.86.38-1.93.37-2 .37-2.05.38-2.11.37-2.14.38-2.18.37-2.19.37-2.21.38-2.2.37-2.19.38-2.18.37-2.14.37-2.1.38-2.06.37-2 .38-1.94.37-1.87.37-1.79.38-1.71.37-1.61.37-1.53.38-1.42.37-1.33.38-1.22.37-1.11.37-1 .38-.89.37-.78.38-.66.37-.54.37-.43.38-.31.37-.19.38-.07.37.06.37.17.38.29.37.42.37.54.38.65.37.78.38.9.37 1.01.37 1.13.38 1.24.37 1.36.38 1.45.37 1.56.37 1.66.38 1.75.37 1.83.38 1.9.37 1.98.37 2.04.38 2.09.37 2.13.38 2.17.37 2.19.37 2.2.38 2.2.37 2.2.37 2.17.38 2.15.37 2.11.38 2.06.37 2 .37 1.93.38 1.86.37 1.78.38 1.68.37 1.59.37 1.49.38 1.38.37 1.26.38 1.15.37 1.03.37.9.38.78.37.66.37.52.38.39.37.26.38.13h.37l.37-.13.38-.27.37-.39.38-.52.37-.66.37-.77.38-.91.37-1.02.38-1.14.37-1.26.37-1.37.38-1.48.37-1.58.38-1.67.37-1.77.37-1.84.38-1.93.37-1.99.37-2.05.38-2.11.37-2.15.38-2.17.37-2.21.37-2.21.38-2.22.37-2.22.38-2.19.37-2.17.37-2.14.38-2.09.37-2.04.38-1.98.37-1.91.37-1.84.38-1.75.37-1.66.37-1.58.38-1.47.37-1.37.38-1.27.37-1.16.37-1.05.38-.93.37-.82.38-.69.37-.58.37-.46.38-.34.37-.21.38-.09.37.04.37.16.38.29.37.41.37.54.38.67.37.79.38.91.37 1.04.37 1.16.38 1.27.37 1.39.38 1.5.37 1.61.37 1.71.38 1.81.37 1.89.38 1.98.37 2.05.37 2.11.38 2.17.37 2.22.38 2.25.37 2.28.37 2.29.38 2.29.37 2.29.37 2.27.38 2.24.37 2.2.38 2.15.37 2.09.37 2.02.38 1.95.37 1.86.38 1.76.37 1.67.37 1.57.38 1.45.37 1.33.38 1.22.37 1.1.37.96.38.84.37.71.37.58.38.44.37.31.38.17.37.03.37-.1.38-.24.37-.38.38-.51.37-.66.37-.78.38-.92.37-1.05.38-1.18.37-1.3.37-1.43.38-1.54.37-1.65.38-1.77.37-1.86.37-1.96.38-2.04.37-2.11.37-2.19.38-2.24.37-2.29.38-2.32.37-2.35.37-2.37.38-2.36.37-2.36.38-2.34.37-2.3.37-2.27.38-2.21.37-2.15.38-2.09.37-2 .37-1.92.38-1.83.37-1.74.37-1.63.38-1.52.37-1.42.38-1.3.37-1.19.37-1.07.38-.96.37-.83.38-.72.37-.59.37-.48.38-.35.37-.23.38-.1.37.02.37.14.38.27.37.4.38.53.37.66.37.79.38.92.37 1.06.37 1.18.38 1.32.37 1.44.38 1.57.37 1.69.37 1.82.38 1.92.37 2.03.38 2.14.37 2.22.37 2.31.38 2.39.37 2.44.38 2.49.37 2.53.37 2.56.38 2.57.37 2.57.37 2.55.38 2.52.37 2.48.38 2.43.37 2.37.37 2.29.38 2.2.37 2.11.38 2 .37 1.89.37 1.77.38 1.65.37 1.52.38 1.39.37 1.25.37 1.11.38.97.37.83.38.68.37.54.37.39.38.25.37.1.37-.05.38-.19.37-.34.38-.49.37-.64.37-.79.38-.93.37-1.08.38-1.23.37-1.37.37-1.51.38-1.65.37-1.78.38-1.91.37-2.03.37-2.14.38-2.24.37-2.34.37-2.42.38-2.49.37-2.54.38-2.59.37-2.62.37-2.63.38-2.63.37-2.62.38-2.59.37-2.54.37-2.49.38-2.42.37-2.34.38-2.25.37-2.15.37-2.05.38-1.93.37-1.82.38-1.7.37-1.58.37-1.46.38-1.34.37-1.21.37-1.1.38-.97.37-.86.38-.75.37-.63.37-.52.38-.42.37-.3.38-.19.37-.08.37.03.38.15.37.27.38.39.37.52.37.65.38.79.37.93.37 1.08.38 1.22.37 1.38.38 1.54.37 1.68.37 1.84.38 1.99.37 2.13.38 2.28.37 2.4.37 2.52.38 2.62.37 2.72.38 2.79.37 2.85.37 2.89.38 2.91.37 2.91.38 2.89.37 2.85.37 2.8.38 2.73.37 2.64.37 2.53.38 2.42.37 2.29.38 2.16.37 2.01.37 1.87.38 1.71.37 1.57.38 1.41.37 1.26.37 1.12.38.97.37.83.38.69.37.56.37.42.38.29.37.16.37.04.38-.1.37-.24.38-.37.37-.51.37-.66.38-.81.37-.96.38-1.13.37-1.29.37-1.47.38-1.64.37-1.82.38-1.99.37-2.17.37-2.33.38-2.5.37-2.64.38-2.77.37-2.89.37-2.99.38-3.07.37-3.11.37-3.15.38-3.14.37-3.12.38-3.06.37-2.99.37-2.89.38-2.77.37-2.63.38-2.47.37-2.31.37-2.13.38-1.96.37-1.77.38-1.6.37-1.42.37-1.26.38-1.11.37-.96.37-.83.38-.72.37-.6.38-.51.37-.42.37-.35.38-.28.37-.21.38-.15.37-.09.37-.02.38.05.37.12.38.21.37.32.37.42.38.56.37.7.38.87.37 1.05.37 1.25.38 1.46.37 1.69.37 1.93.38 2.18.37 2.43.38 2.67.37 2.91.37 3.14.38 3.33.37 3.52.38 3.65.37 3.76.37 3.83.38 3.85.37 3.82.38 3.76.37 3.65.37 3.49.38 3.31.37 3.09.37 2.86.38 2.6.37 2.33.38 2.07.37 1.81.37 1.56.38 1.32.37 1.1.38.91.37.73.37.58.38.45.37.34.38.26.37.18.37.12.38.08.37.04h.38l.37-.02.37-.05.38-.09.37-.13.37-.19.38-.25.37-.35.38-.46.37-.61.37-.79.38-1.02.37-1.29.38-1.6.37-1.96.37-2.36.38-2.78.37-3.24.38-3.68.37-4.14.37-4.53.38-4.89.37-5.16.37-5.34.38-5.39.37-5.34.38-5.15.37-4.85.37-4.45.38-3.98.37-3.45.38-2.9.37-2.36.37-1.83.38-1.36.37-.95.38-.59.37-.32.37-.11.38.04.37.14.38.19.37.21.37.2.38.18.37.13.37.08.38.03.37-.04.38-.12.37-.2.37-.27.38-.32.37-.35.38-.33.37-.28.37-.21.38-.18.37-.22.38-.32.37-.48.37-.63.38-.64.37-.46.37-.1.38.26.37.39.38-.02.37-.95.37-2.13.38-3.24.37-4.12.38-2.79.37 12.54"/><use xlink:href="#h" color="#FFAB00" transform="matrix(3.75 0 0 3.75 171.2 122.25)"/><use xlink:href="#h" color="#FFAB00" transform="matrix(3.75 0 0 3.75 220.55 22.51)"/></g><path fill="none" stroke="none" stroke-linecap="round" stroke-linejoin="round" stroke-width="0" d="M28 45.01V205M371.99 45.01H28" color="#000"/></svg>