<svg xmlns="http://www.w3.org/2000/svg" xmlns:xlink="http://www.w3.org/1999/xlink" viewBox="0 0 400 250"><path fill="none" d="M0 0h400v250H0z"/><defs><use xlink:href="#b" id="h" fill="currentColor" stroke="none"/><use xlink:href="#b" id="c" stroke="currentColor" transform="rotate(180)"/><use xlink:href="#d" id="e" stroke="currentColor" transform="rotate(45)"/><use xlink:href="#e" id="g" fill="currentColor" stroke="none"/><path id="d" stroke="currentColor" stroke-width=".267" d="M-1-1h2v2h-2z"/><path id="b" stroke="currentColor" stroke-width=".267" d="m0-1.33-1.33 2h2.66z"/><path id="f" stroke="currentColor" stroke-width=".267" d="M0 1.33 1.265.411.782-1.067l-1.564-.009-.483 1.487z"/><circle id="a" cx="0" cy="0" r="1" stroke="currentColor" stroke-width=".267"/></defs><path fill="none" stroke="#333" stroke-linecap="round" stroke-linejoin="round" stroke-width=".1" d="M46.1 205V45.01" class="gridline" color="#000"/><g fill="none" stroke="none" stroke-linecap="round" stroke-linejoin="round" stroke-width="0" color="#000"><path d="M46.1 205v-7.5m0-152.49v7.5"/><text fill="#000" font-family="KaTeX_Main" font-size="8" text-anchor="middle" transform="translate(46.1 215.1)"><tspan> 1</tspan></text></g><path fill="none" stroke="#333" stroke-linecap="round" stroke-linejoin="round" stroke-width=".1" d="M82.31 205V45.01" class="gridline" color="#000"/><g fill="none" stroke="none" stroke-linecap="round" stroke-linejoin="round" stroke-width="0" color="#000"><path d="M82.31 205v-7.5m0-152.49v7.5"/><text fill="#000" font-family="KaTeX_Main" font-size="8" text-anchor="middle" transform="translate(82.31 215.1)"><tspan> 2</tspan></text></g><path fill="none" stroke="#333" stroke-linecap="round" stroke-linejoin="round" stroke-width=".1" d="M118.52 205V45.01" class="gridline" color="#000"/><g fill="none" stroke="none" stroke-linecap="round" stroke-linejoin="round" stroke-width="0" color="#000"><path d="M118.52 205v-7.5m0-152.49v7.5"/><text fill="#000" font-family="KaTeX_Main" font-size="8" text-anchor="middle" transform="translate(118.52 215.1)"><tspan> 3</tspan></text></g><path fill="none" stroke="#333" stroke-linecap="round" stroke-linejoin="round" stroke-width=".1" d="M154.73 205V45.01" class="gridline" color="#000"/><g fill="none" stroke="none" stroke-linecap="round" stroke-linejoin="round" stroke-width="0" color="#000"><path d="M154.73 205v-7.5m0-152.49v7.5"/><text fill="#000" font-family="KaTeX_Main" font-size="8" text-anchor="middle" transform="translate(154.73 215.1)"><tspan> 4</tspan></text></g><path fill="none" stroke="#333" stroke-linecap="round" stroke-linejoin="round" stroke-width=".1" d="M190.94 205V45.01" class="gridline" color="#000"/><g fill="none" stroke="none" stroke-linecap="round" stroke-linejoin="round" stroke-width="0" color="#000"><path d="M190.94 205v-7.5m0-152.49v7.5"/><text fill="#000" font-family="KaTeX_Main" font-size="8" text-anchor="middle" transform="translate(190.94 215.1)"><tspan> 5</tspan></text></g><path fill="none" stroke="#333" stroke-linecap="round" stroke-linejoin="round" stroke-width=".1" d="M227.15 205V45.01" class="gridline" color="#000"/><g fill="none" stroke="none" stroke-linecap="round" stroke-linejoin="round" stroke-width="0" color="#000"><path d="M227.15 205v-7.5m0-152.49v7.5"/><text fill="#000" font-family="KaTeX_Main" font-size="8" text-anchor="middle" transform="translate(227.15 215.1)"><tspan> 6</tspan></text></g><path fill="none" stroke="#333" stroke-linecap="round" stroke-linejoin="round" stroke-width=".1" d="M263.36 205V45.01" class="gridline" color="#000"/><g fill="none" stroke="none" stroke-linecap="round" stroke-linejoin="round" stroke-width="0" color="#000"><path d="M263.36 205v-7.5m0-152.49v7.5"/><text fill="#000" font-family="KaTeX_Main" font-size="8" text-anchor="middle" transform="translate(263.36 215.1)"><tspan> 7</tspan></text></g><path fill="none" stroke="#333" stroke-linecap="round" stroke-linejoin="round" stroke-width=".1" d="M299.57 205V45.01" class="gridline" color="#000"/><g fill="none" stroke="none" stroke-linecap="round" stroke-linejoin="round" stroke-width="0" color="#000"><path d="M299.57 205v-7.5m0-152.49v7.5"/><text fill="#000" font-family="KaTeX_Main" font-size="8" text-anchor="middle" transform="translate(299.57 215.1)"><tspan> 8</tspan></text></g><path fill="none" stroke="#333" stroke-linecap="round" stroke-linejoin="round" stroke-width=".1" d="M335.78 205V45.01" class="gridline" color="#000"/><g fill="none" stroke="none" stroke-linecap="round" stroke-linejoin="round" stroke-width="0" color="#000"><path d="M335.78 205v-7.5m0-152.49v7.5"/><text fill="#000" font-family="KaTeX_Main" font-size="8" text-anchor="middle" transform="translate(335.78 215.1)"><tspan> 9</tspan></text></g><path fill="none" stroke="#333" stroke-linecap="round" stroke-linejoin="round" stroke-width=".1" d="M371.99 205V45.01" class="gridline" color="#000"/><g fill="none" stroke="none" stroke-linecap="round" stroke-linejoin="round" stroke-width="0" color="#000"><path d="M371.99 205v-7.5m0-152.49v7.5"/><text fill="#000" font-family="KaTeX_Main" font-size="8" text-anchor="middle" transform="translate(371.99 215.1)"><tspan> 10</tspan></text></g><g fill="none" stroke="none" stroke-linecap="round" stroke-linejoin="round" stroke-width="0" color="#000"><path d="M371.99 205h-7.5"/><text fill="#000" font-family="KaTeX_Main" font-size="8" transform="translate(378.99 207.6)"><tspan>0.00</tspan></text></g><g fill="none" stroke="none" stroke-linecap="round" stroke-linejoin="round" stroke-width="0" color="#000"><path d="M371.99 185h-7.5"/><text fill="#000" font-family="KaTeX_Main" font-size="8" transform="translate(378.99 187.6)"><tspan>0.10</tspan></text></g><g fill="none" stroke="none" stroke-linecap="round" stroke-linejoin="round" stroke-width="0" color="#000"><path d="M371.99 165h-7.5"/><text fill="#000" font-family="KaTeX_Main" font-size="8" transform="translate(378.99 167.6)"><tspan>0.20</tspan></text></g><g fill="none" stroke="none" stroke-linecap="round" stroke-linejoin="round" stroke-width="0" color="#000"><path d="M371.99 145h-7.5"/><text fill="#000" font-family="KaTeX_Main" font-size="8" transform="translate(378.99 147.6)"><tspan>0.30</tspan></text></g><g fill="none" stroke="none" stroke-linecap="round" stroke-linejoin="round" stroke-width="0" color="#000"><path d="M371.99 125h-7.5"/><text fill="#000" font-family="KaTeX_Main" font-size="8" transform="translate(378.99 127.6)"><tspan>0.40</tspan></text></g><g fill="none" stroke="none" stroke-linecap="round" stroke-linejoin="round" stroke-width="0" color="#000"><path d="M371.99 105.01h-7.5"/><text fill="#000" font-family="KaTeX_Main" font-size="8" transform="translate(378.99 107.61)"><tspan>0.50</tspan></text></g><g fill="none" stroke="none" stroke-linecap="round" stroke-linejoin="round" stroke-width="0" color="#000"><path d="M371.99 85.01h-7.5"/><text fill="#000" font-family="KaTeX_Main" font-size="8" transform="translate(378.99 87.61)"><tspan>0.60</tspan></text></g><g fill="none" stroke="none" stroke-linecap="round" stroke-linejoin="round" stroke-width="0" color="#000"><path d="M371.99 65.01h-7.5"/><text fill="#000" font-family="KaTeX_Main" font-size="8" transform="translate(378.99 67.61)"><tspan>0.70</tspan></text></g><g fill="none" stroke="none" stroke-linecap="round" stroke-linejoin="round" stroke-width="0" color="#000"><path d="M371.99 45.01h-7.5"/><text fill="#000" font-family="KaTeX_Main" font-size="8" transform="translate(378.99 47.61)"><tspan>0.80</tspan></text></g><path fill="none" stroke="none" stroke-linecap="round" stroke-linejoin="round" stroke-width="0" d="M28 45.01V205M371.99 45.01H28" color="#000"/><text fill="#000" stroke="none" stroke-linecap="round" stroke-linejoin="round" stroke-width="0" color="#000" font-family="KaTeX_Main" font-size="10" text-anchor="middle" transform="rotate(-90 68.255 56.755)"><tspan font-weight="bold">Rotations</tspan><tspan> / Operation</tspan></text><text fill="#000" stroke="none" stroke-linecap="round" stroke-linejoin="round" stroke-width="0" color="#000" font-family="KaTeX_Main" font-size="10" text-anchor="middle" transform="translate(199.99 238.25)"><tspan>Operations × 10</tspan><tspan dy="-5" font-size="8">5</tspan></text><text fill="#000" stroke="none" stroke-linecap="round" stroke-linejoin="round" color="#000" font-family="KaTeX_Main" font-size="8" transform="translate(132.8 10.11)"><tspan>LBSTBottomUp</tspan></text><g fill="none" stroke="currentColor" stroke-linecap="round" stroke-linejoin="round" color="#000"><path stroke="#3B75EA" d="M97.3 7.51h29.9M28 74.42l.36-.04.36-.04.37-.06.36-.07.36-.08.36-.09.36-.09.37-.09.36-.09.36-.08.36-.07.37-.06.36-.04.36-.03.36-.02h.36l.37.02.36.03.36.04.36.05.36.06.37.07.36.06.36.07.36.08.36.07.37.09.36.09.36.12.36.15.36.2.37.26.36.33.36.43.36.56.37.69.36.85.36 1.04.36 1.23.36 1.45.37 1.66.36 1.9.36 2.12.36 2.33.36 2.55.37 2.73.36 2.89.36 3.02.36 3.13.36 3.19.37 3.23.36 3.21.36 3.18.36 3.1.37 3 .36 2.87.36 2.72.36 2.55.36 2.37.37 2.18.36 2 .36 1.8.36 1.62.36 1.44.37 1.27.36 1.11.36.97.36.82.36.7.37.58.36.48.36.38.36.28.37.19.36.11.36.01.36-.07.36-.16.37-.27.36-.36.36-.48.36-.6.36-.72.37-.87.36-1 .36-1.16.36-1.31.36-1.47.37-1.63.36-1.79.36-1.95.36-2.1.36-2.24.37-2.37.36-2.48.36-2.59.36-2.66.37-2.72.36-2.77.36-2.78.36-2.77.36-2.75.37-2.7.36-2.63.36-2.54.36-2.44.36-2.32.37-2.2.36-2.05.36-1.91.36-1.76.36-1.61.37-1.46.36-1.31.36-1.17.36-1.02.37-.88.36-.76.36-.62.36-.51.36-.4.37-.28.36-.19.36-.08.36.02.36.11.37.21.36.3.36.4.36.51.36.61.37.71.36.82.36.94.36 1.05.36 1.17.37 1.3.36 1.41.36 1.53.36 1.65.37 1.77.36 1.88.36 1.98.36 2.07.36 2.16.37 2.23.36 2.29.36 2.34.36 2.38.36 2.39.37 2.39.36 2.38.36 2.36.36 2.31.36 2.26.37 2.19.36 2.11.36 2.02.36 1.92.37 1.82.36 1.71.36 1.59.36 1.47.36 1.34.37 1.23.36 1.11.36.98.36.86.36.74.37.63.36.51.36.4.36.29.36.18.37.08.36-.04.36-.14.36-.25.36-.36.37-.46.36-.58.36-.68.36-.79.37-.9.36-1.02.36-1.12.36-1.23.36-1.34.37-1.45.36-1.54.36-1.64.36-1.74.36-1.82.37-1.89.36-1.97.36-2.02.36-2.08.36-2.11.37-2.14.36-2.16.36-2.16.36-2.16.37-2.14.36-2.11.36-2.07.36-2.02.36-1.97.37-1.89.36-1.83.36-1.74.36-1.65.36-1.56.37-1.46.36-1.36.36-1.26.36-1.16.36-1.05.37-.94.36-.83.36-.72.36-.61.37-.5.36-.4.36-.28.36-.17.36-.06.37.06.36.16.36.29.36.39.36.51.37.63.36.74.36.85.36.97.36 1.09.37 1.19.36 1.3.36 1.41.36 1.51.36 1.6.37 1.69.36 1.78.36 1.85.36 1.92.37 1.97.36 2.03.36 2.06.36 2.09.36 2.11.37 2.11.36 2.11.36 2.09.36 2.07.36 2.03.37 1.99.36 1.93.36 1.87.36 1.8.36 1.72.37 1.63.36 1.55.36 1.45.36 1.35.37 1.25.36 1.15.36 1.04.36.93.36.81.37.71.36.59.36.48.36.37.36.25.37.14.36.03.36-.09.36-.2.36-.32.37-.42.36-.54.36-.66.36-.76.36-.87.37-.98.36-1.09.36-1.19.36-1.28.37-1.39.36-1.48.36-1.56.36-1.65.36-1.72.37-1.79.36-1.85.36-1.9.36-1.95.36-1.98.37-2.01.36-2.03.36-2.03.36-2.04.36-2.01.37-2 .36-1.97.36-1.92.36-1.88.37-1.82.36-1.75.36-1.68.36-1.61.36-1.52.37-1.43.36-1.33.36-1.24.36-1.14.36-1.03.37-.92.36-.81.36-.7.36-.59.36-.47.37-.36.36-.24.36-.13.36-.02.36.1.37.22.36.33.36.44.36.56.37.67.36.77.36.89.36.99.36 1.09.37 1.19.36 1.28.36 1.38.36 1.46.36 1.55.37 1.62.36 1.69.36 1.75.36 1.81.36 1.85.37 1.9.36 1.92.36 1.95.36 1.96.37 1.97.36 1.96.36 1.95.36 1.92.36 1.9.37 1.85.36 1.81.36 1.76.36 1.69.36 1.63.37 1.54.36 1.47.36 1.39.36 1.29.36 1.2.37 1.1.36 1 .36.9.36.79.37.68.36.57.36.46.36.35.36.24.37.12.36.01.36-.11.36-.22.36-.33.37-.45.36-.56.36-.67.36-.78.36-.88.37-1 .36-1.09.36-1.19.36-1.29.36-1.38.37-1.47.36-1.55.36-1.62.36-1.69.37-1.75.36-1.81.36-1.85.36-1.89.36-1.92.37-1.94.36-1.95.36-1.96.36-1.94.36-1.94.37-1.91.36-1.87.36-1.84.36-1.78.36-1.73.37-1.67.36-1.59.36-1.52.36-1.44.37-1.35.36-1.26.36-1.17.36-1.06.36-.97.37-.86.36-.76.36-.65.36-.54.36-.44.37-.32.36-.22.36-.1h.36l.36.12.37.22.36.34.36.44.36.54.36.66.37.76.36.86.36.96.36 1.06.37 1.15.36 1.24.36 1.33.36 1.42.36 1.49.37 1.56.36 1.63.36 1.7.36 1.74.36 1.8.37 1.83.36 1.86.36 1.89.36 1.9.36 1.91.37 1.9.36 1.89.36 1.88.36 1.84.37 1.81.36 1.76.36 1.72.36 1.65.36 1.59.37 1.52.36 1.44.36 1.35.36 1.27.36 1.18.37 1.08.36.98.36.89.36.77.36.68.37.56.36.46.36.34.36.24.37.12.36.02.36-.1.36-.21.36-.32.37-.43.36-.53.36-.65.36-.75.36-.85.37-.96.36-1.05.36-1.15.36-1.25.36-1.33.37-1.41.36-1.5.36-1.57.36-1.63.36-1.7.37-1.74.36-1.8.36-1.83.36-1.87.37-1.88.36-1.9.36-1.91.36-1.9.36-1.89.37-1.86.36-1.84.36-1.8.36-1.76.36-1.7.37-1.65.36-1.57.36-1.51.36-1.43.36-1.34.37-1.26.36-1.16.36-1.08.36-.97.37-.87.36-.77.36-.67.36-.56.36-.45.37-.34.36-.24.36-.12.36-.02.36.1.37.2.36.32.36.43.36.53.36.65.37.75.36.85.36.96.36 1.07.36 1.16.37 1.25.36 1.35.36 1.44.36 1.52.37 1.59.36 1.67.36 1.74.36 1.79.36 1.84.37 1.88.36 1.92.36 1.95.36 1.96.36 1.97.37 1.96.36 1.96.36 1.94.36 1.9.36 1.88.37 1.82.36 1.77.36 1.72.36 1.64.37 1.57.36 1.5.36 1.4.36 1.32.36 1.22.37 1.13.36 1.02.36.92.36.82.36.7.37.6.36.49.36.37.36.26.36.15.37.04.36-.08.36-.19.36-.31.36-.42.37-.53.36-.65.36-.76.36-.87.37-.98.36-1.08.36-1.19.36-1.29.36-1.39.37-1.48.36-1.56.36-1.65.36-1.73.36-1.8.37-1.85.36-1.91.36-1.96.36-1.99.36-2.02.37-2.03.36-2.05.36-2.04.36-2.02.37-2.01.36-1.97.36-1.93.36-1.88.36-1.82.37-1.75.36-1.68.36-1.6.36-1.51.36-1.42.37-1.33.36-1.22.36-1.13.36-1.01.36-.91.37-.8.36-.68.36-.58.36-.46.37-.35.36-.24.36-.12.36-.02.36.11.37.21.36.33.36.43.36.55.36.67.37.77.36.88.36.98.36 1.1.36 1.2.37 1.3.36 1.4.36 1.49.36 1.59.36 1.67.37 1.75.36 1.82.36 1.89.36 1.95.37 1.99.36 2.04.36 2.07.36 2.09.36 2.11.37 2.1.36 2.1.36 2.07.36 2.05.36 2.01.37 1.96.36 1.91.36 1.83.36 1.77.36 1.69.37 1.6.36 1.51.36 1.41.36 1.31.37 1.21.36 1.1.36.99.36.88.36.77.37.65.36.54.36.42.36.3.36.19.37.07.36-.05.36-.17.36-.29.36-.41.37-.53.36-.65.36-.78.36-.89.36-1.02.37-1.14.36-1.26.36-1.37.36-1.48.37-1.6.36-1.7.36-1.79.36-1.89.36-1.98.37-2.05.36-2.11.36-2.17.36-2.22.36-2.25.37-2.27.36-2.28.36-2.27.36-2.26.36-2.24.37-2.19.36-2.14.36-2.07.36-2.01.37-1.93.36-1.83.36-1.75.36-1.64.36-1.53.37-1.43.36-1.32.36-1.2.36-1.09.36-.97.37-.86.36-.74.36-.63.36-.52.36-.41.37-.3.36-.18.36-.08.36.03.36.14.37.26.36.36.36.48.36.59.37.72.36.83.36.95.36 1.07.36 1.19.37 1.32.36 1.44.36 1.55.36 1.68.36 1.78.37 1.89.36 1.99.36 2.09.36 2.16.36 2.24.37 2.29.36 2.34.36 2.37.36 2.39.37 2.39.36 2.38.36 2.35.36 2.31.36 2.26.37 2.18.36 2.11.36 2.03.36 1.92.36 1.82.37 1.71.36 1.59.36 1.48.36 1.36.36 1.23.37 1.12.36 1 .36.89.36.77.37.67.36.55.36.45.36.35.36.24.37.14.36.03.36-.07.36-.17.36-.29.37-.4.36-.52.36-.65.36-.77.36-.91.37-1.04.36-1.2.36-1.34.36-1.49.36-1.64.37-1.79.36-1.94.36-2.08.36-2.21.37-2.34.36-2.44.36-2.55.36-2.62.36-2.68.37-2.72.36-2.74.36-2.74.36-2.7.36-2.66.37-2.58.36-2.49.36-2.39.36-2.25.36-2.13.37-1.97.36-1.82.36-1.66.36-1.5.37-1.34.36-1.18.36-1.04.36-.89.36-.76.37-.64.36-.52.36-.42.36-.32.36-.24.37-.15.36-.08h.36l.36.07.36.14.37.22.36.3.36.38.36.48.36.58.37.69.36.83.36.96.36 1.12.37 1.27.36 1.45.36 1.64.36 1.82.36 2.01.37 2.2.36 2.38.36 2.56.36 2.72.36 2.86.37 2.98.36 3.07.36 3.13.36 3.16.36 3.14.37 3.11.36 3.02.36 2.92.36 2.77.37 2.61.36 2.42.36 2.22.36 2.01.36 1.8.37 1.58.36 1.37.36 1.17.36.99.36.83.37.67.36.55.36.43.36.34.36.25.37.19.36.14.36.09.36.05.36.01.37-.01.36-.05.36-.07.36-.11.37-.15.36-.2.36-.25.36-.32.36-.4.37-.52.36-.64.36-.8.36-.99.36-1.21.37-1.47.36-1.77.36-2.09.36-2.44.36-2.79.37-3.15.36-3.5.36-3.8.36-4.07.37-4.24.36-4.36.36-4.37.36-4.28.36-4.11.37-3.84.36-3.52.36-3.13.36-2.72.36-2.31.37-1.92.36-1.55.36-1.23.36-.97.36-.76.37-.6.36-.47.36-.39.36-.32.37-.27.36-.22.36-.19.36-.15.36-.11.37-.08.36-.06.36-.03.36-.02.36.01.37.04.36.09.36.14.36.23.36.32.37.43.36.53.36.57.36.53.36.38.37.1.36-.31.36-.73.36-1.06.37-1.13.36-.87.36-.38.36.12.36.48.37 1.02.36 1.96.36 1.58"/><use xlink:href="#a" color="#3B75EA" transform="matrix(3.75 0 0 3.75 353.89 114.74)"/><use xlink:href="#a" color="#3B75EA" transform="matrix(3.75 0 0 3.75 112.25 7.51)"/></g><text fill="#000" stroke="none" stroke-linecap="round" stroke-linejoin="round" color="#000" font-family="KaTeX_Main" font-size="8" transform="translate(132.8 25.11)"><tspan>LBSTRelaxed</tspan></text><g fill="none" stroke="currentColor" stroke-linecap="round" stroke-linejoin="round" color="#000"><path stroke="violet" stroke-dasharray="4.5,2.0,0.5,2.0,0.5,2.0" d="M97.3 22.51h29.9M28 205H371.99"/><use xlink:href="#g" color="violet" transform="matrix(3.75 0 0 3.75 67.83 205)"/><use xlink:href="#g" color="violet" transform="matrix(3.75 0 0 3.75 112.25 22.51)"/></g><text fill="#000" stroke="none" stroke-linecap="round" stroke-linejoin="round" color="#000" font-family="KaTeX_Main" font-size="8" transform="translate(241.1 10.11)"><tspan>WBSTBottomUp</tspan></text><g fill="none" stroke="currentColor" stroke-linecap="round" stroke-linejoin="round" color="#000"><path stroke="#000" d="M205.6 7.51h29.9M28 142.8l.36.09.36.07.37.05.36.04.36.02.36.01h.36l.37-.02.36-.02.36-.03.36-.04.37-.05.36-.05.36-.05.36-.06.36-.06.37-.07.36-.06.36-.07.36-.06.36-.07.37-.07.36-.06.36-.06.36-.06.36-.05.37-.03.36-.02h.36l.36.03.36.07.37.11.36.17.36.24.36.3.37.4.36.49.36.59.36.71.36.83.37.95.36 1.08.36 1.21.36 1.32.36 1.44.37 1.54.36 1.63.36 1.7.36 1.76.36 1.8.37 1.82.36 1.81.36 1.79.36 1.76.37 1.7.36 1.63.36 1.54.36 1.46.36 1.35.37 1.25.36 1.14.36 1.04.36.93.36.82.37.73.36.63.36.55.36.47.36.39.37.32.36.26.36.2.36.14.37.09.36.04h.36l.36-.06.36-.11.37-.16.36-.22.36-.28.36-.34.36-.4.37-.48.36-.56.36-.63.36-.72.36-.8.37-.89.36-.97.36-1.06.36-1.15.36-1.22.37-1.29.36-1.35.36-1.41.36-1.46.37-1.49.36-1.51.36-1.53.36-1.52.36-1.51.37-1.49.36-1.45.36-1.41.36-1.36.36-1.29.37-1.23.36-1.15.36-1.08.36-1 .36-.92.37-.84.36-.76.36-.68.36-.6.37-.54.36-.46.36-.39.36-.33.36-.26.37-.21.36-.15.36-.09.36-.04.36.02.37.08.36.12.36.19.36.24.36.3.37.37.36.42.36.49.36.56.36.63.37.69.36.77.36.83.36.9.37.97.36 1.03.36 1.09.36 1.14.36 1.19.37 1.23.36 1.28.36 1.3.36 1.32.36 1.33.37 1.33.36 1.34.36 1.32.36 1.3.36 1.27.37 1.23.36 1.2.36 1.15.36 1.09.37 1.04.36.98.36.92.36.85.36.78.37.72.36.65.36.58.36.52.36.45.37.38.36.32.36.25.36.2.36.13.37.07h.36l.36-.05.36-.12.36-.18.37-.24.36-.31.36-.36.36-.44.37-.49.36-.56.36-.63.36-.68.36-.76.37-.81.36-.87.36-.92.36-.98.36-1.03.37-1.08.36-1.11.36-1.15.36-1.18.36-1.21.37-1.22.36-1.23.36-1.23.36-1.23.37-1.22.36-1.2.36-1.18.36-1.16.36-1.12.37-1.08.36-1.03.36-.99.36-.94.36-.88.37-.82.36-.77.36-.71.36-.64.36-.59.37-.52.36-.46.36-.39.36-.33.37-.28.36-.2.36-.15.36-.08.36-.02.37.04.36.1.36.16.36.23.36.28.37.35.36.41.36.47.36.53.36.59.37.65.36.71.36.76.36.82.36.86.37.92.36.96.36 1 .36 1.04.37 1.07.36 1.1.36 1.13.36 1.14.36 1.15.37 1.15.36 1.16.36 1.15.36 1.14.36 1.13.37 1.1.36 1.07.36 1.04.36 1.01.36.96.37.92.36.87.36.82.36.77.37.71.36.65.36.59.36.53.36.47.37.41.36.35.36.28.36.21.36.16.37.08.36.02.36-.04.36-.11.36-.17.37-.24.36-.3.36-.36.36-.43.36-.49.37-.55.36-.61.36-.67.36-.72.37-.78.36-.83.36-.88.36-.92.36-.96.37-1 .36-1.03.36-1.06.36-1.08.36-1.1.37-1.11.36-1.12.36-1.12.36-1.11.36-1.1.37-1.09.36-1.07.36-1.04.36-1.02.37-.98.36-.94.36-.9.36-.86.36-.8.37-.76.36-.71.36-.65.36-.59.36-.54.37-.48.36-.43.36-.36.36-.3.36-.25.37-.18.36-.13.36-.06.36-.01.36.05.37.12.36.17.36.23.36.29.37.34.36.41.36.46.36.51.36.57.37.63.36.68.36.72.36.78.36.82.37.86.36.91.36.94.36.98.36 1 .37 1.04.36 1.05.36 1.07.36 1.08.37 1.09.36 1.09.36 1.09.36 1.08.36 1.07.37 1.05.36 1.03.36 1.01.36.97.36.94.37.9.36.85.36.81.36.77.36.71.37.65.36.6.36.55.36.48.37.42.36.36.36.3.36.23.36.17.37.1.36.03.36-.03.36-.09.36-.17.37-.22.36-.3.36-.35.36-.42.36-.48.37-.54.36-.6.36-.66.36-.71.36-.77.37-.81.36-.86.36-.9.36-.94.37-.98.36-1.01.36-1.03.36-1.05.36-1.07.37-1.09.36-1.08.36-1.1.36-1.08.36-1.08.37-1.07.36-1.04.36-1.03.36-.99.36-.97.37-.93.36-.89.36-.85.36-.81.37-.76.36-.71.36-.65.36-.61.36-.54.37-.5.36-.43.36-.38.36-.31.36-.26.37-.2.36-.14.36-.08.36-.02.36.05.37.1.36.16.36.22.36.27.36.34.37.39.36.45.36.51.36.56.37.61.36.67.36.71.36.76.36.8.37.84.36.89.36.91.36.95.36.98.37 1 .36 1.01.36 1.04.36 1.04.36 1.05.37 1.05.36 1.04.36 1.04.36 1.03.37 1 .36.99.36.95.36.93.36.9.37.85.36.82.36.77.36.73.36.68.37.62.36.58.36.52.36.46.36.41.37.35.36.28.36.23.36.17.37.11.36.04.36-.02.36-.08.36-.14.37-.2.36-.26.36-.33.36-.38.36-.44.37-.51.36-.55.36-.62.36-.67.36-.71.37-.77.36-.82.36-.85.36-.9.36-.94.37-.96.36-1 .36-1.02.36-1.04.37-1.05.36-1.07.36-1.07.36-1.07.36-1.06.37-1.06.36-1.04.36-1.03.36-1 .36-.97.37-.94.36-.91.36-.87.36-.82.36-.78.37-.73.36-.68.36-.63.36-.58.37-.51.36-.46.36-.4.36-.34.36-.28.37-.22.36-.16.36-.1.36-.03.36.03.37.1.36.15.36.22.36.28.36.34.37.4.36.47.36.52.36.58.36.63.37.69.36.74.36.79.36.84.37.88.36.93.36.96.36.99.36 1.02.37 1.05.36 1.06.36 1.09.36 1.09.36 1.1.37 1.1.36 1.09.36 1.08.36 1.07.36 1.06.37 1.02.36 1 .36.97.36.94.37.89.36.85.36.8.36.76.36.7.37.65.36.6.36.54.36.48.36.42.37.36.36.29.36.24.36.17.36.11.37.04.36-.02.36-.08.36-.16.36-.21.37-.29.36-.35.36-.41.36-.48.37-.54.36-.6.36-.66.36-.73.36-.78.37-.83.36-.89.36-.94.36-.98.36-1.02.37-1.06.36-1.09.36-1.12.36-1.14.36-1.16.37-1.17.36-1.17.36-1.17.36-1.16.37-1.16.36-1.13.36-1.11.36-1.08.36-1.05.37-1.01.36-.96.36-.92.36-.87.36-.81.37-.76.36-.7.36-.65.36-.58.36-.51.37-.46.36-.38.36-.33.36-.26.37-.19.36-.13.36-.07h.36l.36.06.37.12.36.19.36.25.36.32.36.37.37.44.36.49.36.56.36.61.36.67.37.73.36.78.36.83.36.88.36.93.37.98.36 1.01.36 1.05.36 1.08.37 1.12.36 1.13.36 1.15.36 1.17.36 1.17.37 1.18.36 1.17.36 1.16.36 1.15.36 1.13.37 1.1.36 1.07.36 1.04.36 1 .36.95.37.91.36.86.36.8.36.75.37.69.36.63.36.57.36.51.36.44.37.38.36.31.36.25.36.19.36.11.37.05.36-.01.36-.08.36-.16.36-.21.37-.29.36-.35.36-.42.36-.49.36-.56.37-.62.36-.69.36-.75.36-.82.37-.87.36-.94.36-.98.36-1.04.36-1.09.37-1.13.36-1.16.36-1.19.36-1.23.36-1.23.37-1.26.36-1.25.36-1.26.36-1.24.36-1.24.37-1.21.36-1.18.36-1.15.36-1.1.37-1.07.36-1.01.36-.97.36-.9.36-.85.37-.79.36-.72.36-.66.36-.6.36-.53.37-.47.36-.41.36-.34.36-.28.36-.22.37-.16.36-.1.36-.04.36.01.36.08.37.14.36.2.36.26.36.31.37.39.36.44.36.51.36.57.36.63.37.7.36.77.36.83.36.88.36.95.37 1.01.36 1.06.36 1.11.36 1.16.36 1.2.37 1.23.36 1.25.36 1.28.36 1.29.37 1.29.36 1.3.36 1.28.36 1.26.36 1.24.37 1.2.36 1.17.36 1.12.36 1.08.36 1.02.37.96.36.91.36.84.36.78.36.72.37.65.36.59.36.53.36.46.37.4.36.35.36.28.36.23.36.17.37.11.36.05h.36l.36-.07.36-.12.37-.19.36-.26.36-.32.36-.4.36-.47.37-.55.36-.63.36-.71.36-.79.36-.88.37-.96.36-1.04.36-1.12.36-1.19.37-1.26.36-1.32.36-1.38.36-1.43.36-1.46.37-1.48.36-1.49.36-1.5.36-1.49.36-1.46.37-1.43.36-1.38.36-1.33.36-1.26.36-1.2.37-1.12.36-1.03.36-.96.36-.87.37-.79.36-.71.36-.63.36-.55.36-.49.37-.42.36-.36.36-.3.36-.26.36-.21.37-.17.36-.13.36-.09.36-.05.36-.02.37.02.36.07.36.11.36.16.36.21.37.29.36.35.36.42.36.52.37.6.36.71.36.81.36.91.36 1.03.37 1.13.36 1.25.36 1.34.36 1.45.36 1.53.37 1.61.36 1.66.36 1.72.36 1.74.36 1.75.37 1.74.36 1.7.36 1.67.36 1.59.37 1.52.36 1.43.36 1.32.36 1.22.36 1.1.37.99.36.89.36.77.36.68.36.58.37.5.36.42.36.36.36.3.36.25.37.21.36.18.36.14.36.12.36.09.37.06.36.04.36.02.36-.02.37-.05.36-.08.36-.13.36-.18.36-.24.37-.31.36-.41.36-.51.36-.63.36-.77.37-.92.36-1.11.36-1.29.36-1.49.36-1.7.37-1.9.36-2.08.36-2.25.36-2.38.37-2.47.36-2.51.36-2.5.36-2.43.36-2.31.37-2.15.36-1.94.36-1.72.36-1.48.36-1.25.37-1.02.36-.83.36-.66.36-.52.36-.42.37-.34.36-.28.36-.24.36-.19.37-.16.36-.12.36-.07.36-.02.36.05.37.11.36.18.36.24.36.3.36.34.37.37.36.38.36.36.36.33.36.28.37.23.36.15.36.08h.36l.36-.09.37-.22.36-.35.36-.52.36-.65.37-.72.36-.63.36-.34.36.1.36.59.37.88.36.61.36-2.57"/><use xlink:href="#b" transform="matrix(3.75 0 0 3.75 125.4 178.84)"/><use xlink:href="#b" transform="matrix(3.75 0 0 3.75 220.55 7.51)"/></g><text fill="#000" stroke="none" stroke-linecap="round" stroke-linejoin="round" color="#000" font-family="KaTeX_Main" font-size="8" transform="translate(241.1 25.11)"><tspan>WBSTRelaxed</tspan></text><g fill="none" stroke="currentColor" stroke-linecap="round" stroke-linejoin="round" color="#000"><path stroke="#FFAB00" stroke-dasharray="4.0,2.0,1.0,2.0" d="M205.6 22.51h29.9M28 205H371.99"/><use xlink:href="#h" color="#FFAB00" transform="matrix(3.75 0 0 3.75 182.98 205)"/><use xlink:href="#h" color="#FFAB00" transform="matrix(3.75 0 0 3.75 220.55 22.51)"/></g><path fill="none" stroke="none" stroke-linecap="round" stroke-linejoin="round" stroke-width="0" d="M28 45.01V205M371.99 45.01H28" color="#000"/></svg>