<svg xmlns="http://www.w3.org/2000/svg" xmlns:xlink="http://www.w3.org/1999/xlink" viewBox="0 0 400 200"><path fill="none" d="M0 0h400v200H0z"/><defs><path id="g" stroke="currentColor" stroke-width=".222" d="M-1 0h2M0-1v2"/><path id="h" stroke="currentColor" stroke-width=".222" d="m-1-1 2 2m0-2-2 2"/><path id="d" stroke="currentColor" stroke-width=".222" d="M-1-1h2v2h-2z"/><path id="i" fill="currentColor" stroke="currentColor" stroke-width=".222" d="M-1-1h2v2h-2z"/><path id="b" stroke="currentColor" stroke-width=".222" d="m0-1.33-1.33 2h2.66z"/><path id="f" stroke="currentColor" stroke-width=".222" d="M0 1.33 1.265.411.782-1.067l-1.564-.009-.483 1.487z"/><use xlink:href="#b" id="c" stroke="currentColor" transform="rotate(180)"/><use xlink:href="#d" id="e" stroke="currentColor" transform="rotate(45)"/><circle id="a" cx="0" cy="0" r="1" stroke="currentColor" stroke-width=".222"/></defs><g fill="none" stroke="none" stroke-linecap="round" stroke-linejoin="round" stroke-width="0" color="#000"><path d="M63.06 182v-9m0-100.99v9"/><text fill="#000" font-family="Arial" font-size="8" text-anchor="middle" transform="translate(63.06 193.6)"><tspan> 1</tspan></text></g><g fill="none" stroke="none" stroke-linecap="round" stroke-linejoin="round" stroke-width="0" color="#000"><path d="M95.83 182v-9m0-100.99v9"/><text fill="#000" font-family="Arial" font-size="8" text-anchor="middle" transform="translate(95.83 193.6)"><tspan> 2</tspan></text></g><g fill="none" stroke="none" stroke-linecap="round" stroke-linejoin="round" stroke-width="0" color="#000"><path d="M128.61 182v-9m0-100.99v9"/><text fill="#000" font-family="Arial" font-size="8" text-anchor="middle" transform="translate(128.61 193.6)"><tspan> 3</tspan></text></g><g fill="none" stroke="none" stroke-linecap="round" stroke-linejoin="round" stroke-width="0" color="#000"><path d="M161.39 182v-9m0-100.99v9"/><text fill="#000" font-family="Arial" font-size="8" text-anchor="middle" transform="translate(161.39 193.6)"><tspan> 4</tspan></text></g><g fill="none" stroke="none" stroke-linecap="round" stroke-linejoin="round" stroke-width="0" color="#000"><path d="M194.16 182v-9m0-100.99v9"/><text fill="#000" font-family="Arial" font-size="8" text-anchor="middle" transform="translate(194.16 193.6)"><tspan> 5</tspan></text></g><g fill="none" stroke="none" stroke-linecap="round" stroke-linejoin="round" stroke-width="0" color="#000"><path d="M226.94 182v-9m0-100.99v9"/><text fill="#000" font-family="Arial" font-size="8" text-anchor="middle" transform="translate(226.94 193.6)"><tspan> 6</tspan></text></g><g fill="none" stroke="none" stroke-linecap="round" stroke-linejoin="round" stroke-width="0" color="#000"><path d="M259.71 182v-9m0-100.99v9"/><text fill="#000" font-family="Arial" font-size="8" text-anchor="middle" transform="translate(259.71 193.6)"><tspan> 7</tspan></text></g><g fill="none" stroke="none" stroke-linecap="round" stroke-linejoin="round" stroke-width="0" color="#000"><path d="M292.49 182v-9m0-100.99v9"/><text fill="#000" font-family="Arial" font-size="8" text-anchor="middle" transform="translate(292.49 193.6)"><tspan> 8</tspan></text></g><g fill="none" stroke="none" stroke-linecap="round" stroke-linejoin="round" stroke-width="0" color="#000"><path d="M325.26 182v-9m0-100.99v9"/><text fill="#000" font-family="Arial" font-size="8" text-anchor="middle" transform="translate(325.26 193.6)"><tspan> 9</tspan></text></g><g fill="none" stroke="none" stroke-linecap="round" stroke-linejoin="round" stroke-width="0" color="#000"><path d="M358.04 182v-9m0-100.99v9"/><text fill="#000" font-family="Arial" font-size="8" text-anchor="middle" transform="translate(358.04 193.6)"><tspan> 10</tspan></text></g><g fill="none" stroke="none" stroke-linecap="round" stroke-linejoin="round" stroke-width="0" color="#000"><path d="M358.04 182h-9"/><text fill="#000" font-family="Arial" font-size="8" transform="translate(366.43 184.6)"><tspan>0.87</tspan></text></g><g fill="none" stroke="none" stroke-linecap="round" stroke-linejoin="round" stroke-width="0" color="#000"><path d="M358.04 163.67h-9"/><text fill="#000" font-family="Arial" font-size="8" transform="translate(366.43 166.27)"><tspan>0.88</tspan></text></g><g fill="none" stroke="none" stroke-linecap="round" stroke-linejoin="round" stroke-width="0" color="#000"><path d="M358.04 145.34h-9"/><text fill="#000" font-family="Arial" font-size="8" transform="translate(366.43 147.94)"><tspan>0.89</tspan></text></g><g fill="none" stroke="none" stroke-linecap="round" stroke-linejoin="round" stroke-width="0" color="#000"><path d="M358.04 127h-9"/><text fill="#000" font-family="Arial" font-size="8" transform="translate(366.43 129.6)"><tspan>0.90</tspan></text></g><g fill="none" stroke="none" stroke-linecap="round" stroke-linejoin="round" stroke-width="0" color="#000"><path d="M358.04 108.67h-9"/><text fill="#000" font-family="Arial" font-size="8" transform="translate(366.43 111.27)"><tspan>0.91</tspan></text></g><g fill="none" stroke="none" stroke-linecap="round" stroke-linejoin="round" stroke-width="0" color="#000"><path d="M358.04 90.34h-9"/><text fill="#000" font-family="Arial" font-size="8" transform="translate(366.43 92.94)"><tspan>0.92</tspan></text></g><g fill="none" stroke="none" stroke-linecap="round" stroke-linejoin="round" stroke-width="0" color="#000"><path d="M358.04 72.01h-9"/><text fill="#000" font-family="Arial" font-size="8" transform="translate(366.43 74.61)"><tspan>0.93</tspan></text></g><path fill="none" stroke="none" stroke-linecap="round" stroke-linejoin="round" stroke-width="0" d="M33.56 72.01V182M358.04 72.01H33.56" color="#000"/><text fill="#000" stroke="none" stroke-linecap="round" stroke-linejoin="round" stroke-width="0" color="#000" font-family="Arial" font-size="8" text-anchor="middle" transform="rotate(-90 69.74 57.27)"><tspan font-weight="bold">AveragePathLength </tspan><tspan> / log</tspan><tspan dy="2.4" font-size="6.4">2</tspan><tspan dy="-2.4">Size</tspan></text><text fill="#000" stroke="none" stroke-linecap="round" stroke-linejoin="round" color="#000" font-family="Arial" font-size="8" transform="translate(106.2 30.11)"><tspan>AVLBottomUp</tspan></text><g fill="none" stroke="currentColor" stroke-linecap="round" stroke-linejoin="round" color="#000"><path stroke="#000" d="M69.2 27.51h31.4M33.56 174.34l.33-5.36.33.27.32-4.77.33 8.88.33-2.1.33-2.48.32-4.52.33-9.43.33-3.58.33-2.3.33 7.99.32-2.1.33-3.3.33-2.7.33.82.32-1.51.33.31.33-2.86.33-4.07.33-4.84.32-2.22.33-3.69.33 12.91.33.99.32-2.76.33-.96.33-1.11.33-2.86.32-1.16.33-1.93.33 12.24.33-1.06.33-.58.32-2.09.33.52.33.11.33-1.55.32 5.92.33.32.33-1.45.33.61.33-1.25.32.12.33-1.05.33-1.12.33-.62.32-.92.33-.39.33-.96.33-1.74.33-1.58.32-1.73.33-.71.33 1.23.33-.57.32-1.6.33-1.52.33-1.45.33 4.73.33-.41.32-.98.33-.35.33-.99.33-.3.32-.49.33-1.68.33-.88.33-1.02.33-.42.32-1 .33-.86.33-1.16.33.33.32-.73.33 4.17.33-.62.33-.36.33.51.32-.71.33 5.47.33-.3.33-.37.32.44.33-.02.33-.66.33-.09.32-.2.33 1.13.33.4.33-.42.33-.11.32-.62.33-.23.33-.84.33 2.59.32-.1.33-.44.33.36.33.62.33-.59.32-.55.33-.93.33-1.06.33-.61.32-1.41.33.21.33.11.33-1.18.33-.74.32-1.42.33-.4.33-1.33.33 3.89.32-.43.33-.58.33.09.33-.59.33-.82.32-1.02.33-.3.33.5.33-.97.32-.49.33-.55.33-.87.33-.32.33.2.32-.82.33 6.58.33.01.33-.39.32-.82.33-.33.33.33.33-.69.33-.84.32-.34.33-.38.33-.79.33-.21.32-.79.33.35.33-.77.33-.33.32-3.54.33-.45.33.09.33-.57.33.7.32-.65.33.12.33-1.16.33 1.83.32.04.33-.53.33.74.33-.59.33.07.32-.62.33 2.76.33-.2.33-.41.32-.02.33-.47.33.29.33.28.33-.31.32.07.33-.32.33-.32.33-.49.32 2.59.33-.12.33-.21.33.4.33-.29.32-.11.33-.35.33.05.33.47.32-.28.33-.5.33.61.33-.13.33-.33.32.63.33-.2.33-.2.33-.49.32.04.33.85.33-.21.33-.31.32-.24.33-.2.33-.51.33.14.33-.21.32-.45.33 4.09.33-.25.33-.17.32-.49.33.44.33-.09.33-.36.33.13.32-.19.33.35.33-.48.33.16.32-.19.33-.49.33-.44.33-.38.33-.58.32-.69.33.91.33-.3.33-.43.32-.53.33-.38.33-.54.33-.68.33-.61.32-.45.33-.51.33-.14.33-.43.32-.49.33-.69.33.58.33-.45.33-.54.32 4.23.33-.51.33-.43.33-.63.32-.54.33-.42.33-.48.33-.6.33.55.32-.43.33-.54.33.88.33-.31.32-.41.33-.42.33-.45.33-.5.32 2.57.33.37.33-.21.33-.31.33-.37.32-.34.33-.39.33-.49.33.2.32.69.33-.28.33-.36.33-.4.33-.34.32-.56.33.32.33-.25.33-.28.32-.35.33-.39.33-.36.33 2.36.33.63.32-.11.33-.1.33.31.33-.24.32-.13.33.76.33-.23.33-.13.33-.18.32.28.33-.24.33-.12.33-.31.32-.34.33-.33.33-.34.33.15.33-.03.32-.21.33-.17.33-.42.33-.36.32-.23.33.13.33-.34.33-.37.33.86.32-.27.33-.41.33-.31.33.17.32-.34.33-.42.33-.31.33-.54.32-.4.33-.53.33.08.33.36.33-.33.32-.49.33-.49.33-.5.33-.6.32.16.33-.57.33-.28.33-.43.33-.42.32-.45.33-.58.33.09.33-.49.32-.43.33-.6.33.68.33 1.16.33-.24.32-.44.33-.17.33-.42.33-.29.32-.41.33-.44.33.1.33-.32.33-.45.32-.28.33-.05.33-.39.33-.47.32 1.42.33-.32.33-.41.33-.25.33-.28.32-.37.33-.4.33-.48.33.96.32-.41.33-.23.33-.31.33-.39.32-.45.33-.43.33.53.33-.37.33-.25.32-.31.33-.33.33-.36.33-.49.32.7.33-.42.33-.21.33-.32.33-.38.32-.49.33-.42.33 3.25.33-.31.32-.14.33-.23.33-.29.33-.39.33.66.32-.24.33-.35.33-.21.33-.25.32-.28.33-.44.33.21.33-.25.33-.33.32-.18.33-.24.33-.26.33-.44h.32l.33-.27.33-.36.33.53.33-.25.32-.27.33-.43.33-.3.33-.24.32-.33.33-.18.33-.22.33-1.2.33-.21.32.88.33-.06.33-.12.33.02.32-.03.33-.13.33-.24.33-.17.32.64.33-.13.33.01.33-.05.33-.1.32-.25.33-.16.33.96.33-.13.32.03.33-.12.33-.11.33-.17.33-.21.32-.13.33-.26.33-.1.33-.19.32-.22.33-.35.33-.27.33.85.33-.2.32-.08.33-.21.33-.24.33-.34.32-.26.33.5.33-.21.33-.12.33-.22.32-.23.33-.33.33-.32.33.84.32-.23.33-.12.33-.25.33-.24.33-.36.32-.27.33 3.93.33-.18.33-.09.32-.21.33-.18.33-.27.33-.24.33.86.32-.17.33-.15.33-.2.33-.21.32-.28.33-.3.33.58.33-.17.32-.13.33-.23.33-.17.33-.26.33-.28.32.83.33-.16.33-.15.33-.25.32-.16.33-.22.33-.32.33.28.33-.18.32-.19.33-.2.33-.21.33.19.32-.18.33-.16.33-.18.33-.17.33-.19.32-.15.33-.27.33-.24.33.32.32-.18.33-.25.33-.17.33.89.33-.18.32-.19.33-.19.33-.18.33-.24.32-.18.33-.16.33-.23.33-.24.33 20.79.32-.18.33-.25.33-.13.33-.16.32-.22.33-.27.33.32.33-.19.32-.28.33.35.33-.17.33-.22.33-.29.32.54.33-.21.33-.24.33-.13.32-.18.33-.2.33.54.33.48.33.38.32-.12.33-.02.33-.05.33-.07.32-.15.33.49.33-.08.33-.11.33-.03.32-.07.33-.07.33.35.33-.04.32-.06.33-.09.33-.04.33-.05.33-.09.32-.15.33.62.33-.06.33-.12.32-.02.33-.05.33-.07.33-.12.33.43.32-.09.33-.09.33-.05.33-.05.32-.08.33.35.33-.16.33-.18.33-.13.32-.19.33-.05.33-.14.33.34.32.19.33-.14.33-.16.33-.1.32-.15.33-.17.33.34.33-.18.33-.17.32-.15.33.82.33-.13.33-.05.32-.14.33-.17.33-.17.33-.16.33-.21.32-.12.33-.13.33.37.33-.13.32-.1.33-.1.33-.15.33-.02.33-.05.32-.13.33-.19.33-.2.33-.11.32-.19.33-.16.33-.11.33.35.33-.16.32.6.33-.07.33-.08.33-.18.32-.05.33-.13.33-.17.33-.18.33-.11.32-.17.33-.23.33-.14.33.35.32-.17.33-.14.33-.19.33-.14.33-.23.32-.15.33-.2.33-.23.33-.2.32-.24.33-.23.33-.29.33-.2.32.32.33-.24.33.6.33-.2.33-.16.32-.26.33-.17.33-.18.33-.24.32-.21.33-.25.33-.22.33-.33.33-.22.32.31.33-.23.33-.26.33-.25.32-.21.33.24.33-.21.33-.18.33-.25.32-.18.33-.05.33-.2.33-.14.32-.2.33 2.12.33-.13.33-.12.33-.16.32.79.33-.11.33-.08.33-.09.32-.15.33-.14.33.05.33-.13.33-.05.32-.1.33-.07.33-.13.33-.15.32-.18.33-.09.33-.16.33-.17.32-.11.33-.19.33-.21.33-.07.33-.17.32-.12.33-.17.33-.11.33-.15.32-.22.33-.24.33-.16.33.71.33-.19.32-.13.33-.18.33-.21.33-.07.32-.16.33-.19.33-.12.33-.13.33-.17.32-.21.33-.24.33-.19.33.25.32-.19.33-.12.33-.2.33-.2.33-.06.32-.17.33-.11.33-.17.33-.12.32-.18.33-.19.33-.24.33-.19.33.74.32-.2.33-.11.33-.2.33-.19.32-.08.33-.14.33-.14.33-.17.33-.13.32-.18.33-.18.33 4.54.33-.11.32-.14.33-.15.33-.1.33-.18.32-.16.33-.04.33-.13.33-.1.33-.17.32-.11.33-.16.33-.15.33-.24.32-.16.33-.2.33.82.33-.11.33-.14.32-.2.33-.04.33-.12.33-.13.32-.1.33-.15.33-.14.33-.18.33-.24.32-.16.33-.18.33.39.33-.11.32-.15.33-.17.33-.04.33-.11.33-.17.32-.09.33-.13.33-.12.33-.2.32-.23.33-.17.33-.2.33.8.33-.1.32-.15.33-.19.33-.05.33-.14.32-.17.33-.09.33-.11.33-.14.33-.21.32-.24.33-.15.33-.19.33 3.21.32-.11.33-.13.33-.17.33-.12.32-.03.33-.14.33-.06.33-.11.33-.13.32-.19.33-.15.33-.2.33-.16.32.81.33-.11.33-.11.33-.14.33-.13.32-.03.33-.15.33-.08.33-.11.32-.14.33-.2.33-.16.33-.19.33-.18.32.48.33-.11.33-.11.33-.16.32-.16.33-.01.33-.12.33-.09.33-.11.32-.14.33-.19.33-.17.33-.2.32-.15.33-.18.33.84.33-.09.33-.14.32-.15.33-.06.33-.11.33-.11.32-.14.33-.13.33-.18.33-.18.32-.22.33-.15.33-.17.33-1.52.33-.05.32-.11.33-.11.33.02.33-.08.32-.08.33-.1.33-.09.33-.12.33-.17.32-.16.33-.1.33-.14.33.87.32-.07.33-.07.33-.13.33-.1.33.02.32-.11.33-.07.33-.11.33-.11.32-.13.33-.15.33-.16.33-.12.33.51.32-.09.33-.07.33-.12.33-.12.32-.02.33-.08.33-.09.33-.1.33-.12.32-.15.33-.15.33-.16.33-.13.32.86.33-.08.33-.08.33-.12.33-.11.32-.01.33-.11.33-.1.33-.1.32-.13.33-.15.33-.14.33-.17.32-.11.33 2.96.33-.09.33-.03.33-.08.32-.1h.33l.33-.09.33-.13.32-.06.33-.09.33-.13.33-.13.33-.17.32-.08.33-.12.33.37.33-.07.32-.1.33-.11.33-.09.33-.03.33-.1.32-.12.33-.08.33.39.33-.13.32-.18.33-.11.33.52.33-.09.33-.04.32-.08.33-.1.33-.01.33-.11.32-.14.33-.08.33-.09.33-.1.33-.13.32-.14.33-.16.33-.11.33.88.32-.08.33-.08.33-.11.33-.12.33-.02.32-.12.33-.09.33.86.33-.02.32-.07.33-.07.33-.09.33-.05.32-.09.33-.04.33-.05.33-.08.33-.11.32-.02.33-.11.33-.06.33-.08.32-.08.33-.14.33-.09.33-.14.33-.09.32.88.33-.06.33-.06.33-.1.32-.12.33-.01.33-.1"/><use xlink:href="#g" transform="matrix(4.5 0 0 4.5 355.09 82.4)"/><use xlink:href="#g" transform="matrix(4.5 0 0 4.5 84.9 27.51)"/></g><text fill="#000" stroke="none" stroke-linecap="round" stroke-linejoin="round" color="#000" font-family="Arial" font-size="8" transform="translate(106.2 45.11)"><tspan>AVLTopDown</tspan></text><g fill="none" stroke="currentColor" stroke-linecap="round" stroke-linejoin="round" color="#000"><path stroke="#29C3F6" stroke-dasharray="1.0,2.0" d="M69.2 42.51h31.4M33.56 174.34l.33-5.36.33.27.32-4.77.33 8.88.33-2.1.33-2.48.32-4.52.33-9.43.33-3.58.33-2.3.33 7.99.32-2.1.33-3.3.33-2.7.33.82.32-1.51.33.31.33-2.86.33-4.07.33-4.84.32-2.22.33-3.69.33 12.91.33.99.32-2.76.33-.96.33-1.11.33-2.86.32-1.16.33-1.93.33 12.24.33-1.06.33-.58.32-2.09.33.52.33.11.33-1.55.32 5.92.33.32.33-1.45.33.61.33-1.25.32.12.33-1.05.33-1.12.33-.62.32-.92.33-.39.33-.96.33-1.74.33-1.58.32-1.73.33-.71.33 1.23.33-.57.32-1.6.33-1.52.33-1.45.33 4.73.33-.41.32-.98.33-.35.33-.99.33-.3.32-.49.33-1.68.33-.88.33-1.02.33-.42.32-1 .33-.86.33-1.16.33.33.32-.73.33 4.17.33-.62.33-.36.33.51.32-.71.33 5.47.33-.3.33-.37.32.44.33-.02.33-.66.33-.09.32-.2.33 1.13.33.4.33-.42.33-.11.32-.62.33-.23.33-.84.33 2.59.32-.1.33-.44.33.36.33.62.33-.59.32-.55.33-.93.33-1.06.33-.61.32-1.41.33.21.33.11.33-1.18.33-.74.32-1.42.33-.4.33-1.33.33 3.89.32-.43.33-.58.33.09.33-.59.33-.82.32-1.02.33-.3.33.5.33-.97.32-.49.33-.55.33-.87.33-.32.33.2.32-.82.33 6.58.33.01.33-.39.32-.82.33-.33.33.33.33-.69.33-.84.32-.34.33-.38.33-.79.33-.21.32-.79.33.35.33-.77.33-.33.32-3.54.33-.45.33.09.33-.57.33.7.32-.65.33.12.33-1.16.33 1.83.32.04.33-.53.33.74.33-.59.33.07.32-.62.33 2.76.33-.2.33-.41.32-.02.33-.47.33.29.33.28.33-.31.32.07.33-.32.33-.32.33-.49.32 2.59.33-.12.33-.21.33.4.33-.29.32-.11.33-.35.33.05.33.47.32-.28.33-.5.33.61.33-.13.33-.33.32.63.33-.2.33-.2.33-.49.32.04.33.85.33-.21.33-.31.32-.24.33-.2.33-.51.33.14.33-.21.32-.45.33 4.09.33-.25.33-.17.32-.49.33.44.33-.09.33-.36.33.13.32-.19.33.35.33-.48.33.16.32-.19.33-.49.33-.44.33-.38.33-.58.32-.69.33.91.33-.3.33-.43.32-.53.33-.38.33-.54.33-.68.33-.61.32-.45.33-.51.33-.14.33-.43.32-.49.33-.69.33.58.33-.45.33-.54.32 4.23.33-.51.33-.43.33-.63.32-.54.33-.42.33-.48.33-.6.33.55.32-.43.33-.54.33.88.33-.31.32-.41.33-.42.33-.45.33-.5.32 2.57.33.37.33-.21.33-.31.33-.37.32-.34.33-.39.33-.49.33.2.32.69.33-.28.33-.36.33-.4.33-.34.32-.56.33.32.33-.25.33-.28.32-.35.33-.39.33-.36.33 2.36.33.63.32-.11.33-.1.33.31.33-.24.32-.13.33.76.33-.23.33-.13.33-.18.32.28.33-.24.33-.12.33-.31.32-.34.33-.33.33-.34.33.15.33-.03.32-.21.33-.17.33-.42.33-.36.32-.23.33.13.33-.34.33-.37.33.86.32-.27.33-.41.33-.31.33.17.32-.34.33-.42.33-.31.33-.54.32-.4.33-.53.33.08.33.36.33-.33.32-.49.33-.49.33-.5.33-.6.32.16.33-.57.33-.28.33-.43.33-.42.32-.45.33-.58.33.09.33-.49.32-.43.33-.6.33.68.33 1.16.33-.24.32-.44.33-.17.33-.42.33-.29.32-.41.33-.44.33.1.33-.32.33-.45.32-.28.33-.05.33-.39.33-.47.32 1.42.33-.32.33-.41.33-.25.33-.28.32-.37.33-.4.33-.48.33.96.32-.41.33-.23.33-.31.33-.39.32-.45.33-.43.33.53.33-.37.33-.25.32-.31.33-.33.33-.36.33-.49.32.7.33-.42.33-.21.33-.32.33-.38.32-.49.33-.42.33 3.25.33-.31.32-.14.33-.23.33-.29.33-.39.33.66.32-.24.33-.35.33-.21.33-.25.32-.28.33-.44.33.21.33-.25.33-.33.32-.18.33-.24.33-.26.33-.44h.32l.33-.27.33-.36.33.53.33-.25.32-.27.33-.43.33-.3.33-.24.32-.33.33-.18.33-.22.33-1.2.33-.21.32.88.33-.06.33-.12.33.02.32-.03.33-.13.33-.24.33-.17.32.64.33-.13.33.01.33-.05.33-.1.32-.25.33-.16.33.96.33-.13.32.03.33-.12.33-.11.33-.17.33-.21.32-.13.33-.26.33-.1.33-.19.32-.22.33-.35.33-.27.33.85.33-.2.32-.08.33-.21.33-.24.33-.34.32-.26.33.5.33-.21.33-.12.33-.22.32-.23.33-.33.33-.32.33.84.32-.23.33-.12.33-.25.33-.24.33-.36.32-.27.33 3.93.33-.18.33-.09.32-.21.33-.18.33-.27.33-.24.33.86.32-.17.33-.15.33-.2.33-.21.32-.28.33-.3.33.58.33-.17.32-.13.33-.23.33-.17.33-.26.33-.28.32.83.33-.16.33-.15.33-.25.32-.16.33-.22.33-.32.33.28.33-.18.32-.19.33-.2.33-.21.33.19.32-.18.33-.16.33-.18.33-.17.33-.19.32-.15.33-.27.33-.24.33.32.32-.18.33-.25.33-.17.33.89.33-.18.32-.19.33-.19.33-.18.33-.24.32-.18.33-.16.33-.23.33-.24.33 20.79.32-.18.33-.25.33-.13.33-.16.32-.22.33-.27.33.32.33-.19.32-.28.33.35.33-.17.33-.22.33-.29.32.54.33-.21.33-.24.33-.13.32-.18.33-.2.33.54.33.48.33.38.32-.12.33-.02.33-.05.33-.07.32-.15.33.49.33-.08.33-.11.33-.03.32-.07.33-.07.33.35.33-.04.32-.06.33-.09.33-.04.33-.05.33-.09.32-.15.33.62.33-.06.33-.12.32-.02.33-.05.33-.07.33-.12.33.43.32-.09.33-.09.33-.05.33-.05.32-.08.33.35.33-.16.33-.18.33-.13.32-.19.33-.05.33-.14.33.34.32.19.33-.14.33-.16.33-.1.32-.15.33-.17.33.34.33-.18.33-.17.32-.15.33.82.33-.13.33-.05.32-.14.33-.17.33-.17.33-.16.33-.21.32-.12.33-.13.33.37.33-.13.32-.1.33-.1.33-.15.33-.02.33-.05.32-.13.33-.19.33-.2.33-.11.32-.19.33-.16.33-.11.33.35.33-.16.32.6.33-.07.33-.08.33-.18.32-.05.33-.13.33-.17.33-.18.33-.11.32-.17.33-.23.33-.14.33.35.32-.17.33-.14.33-.19.33-.14.33-.23.32-.15.33-.2.33-.23.33-.2.32-.24.33-.23.33-.29.33-.2.32.32.33-.24.33.6.33-.2.33-.16.32-.26.33-.17.33-.18.33-.24.32-.21.33-.25.33-.22.33-.33.33-.22.32.31.33-.23.33-.26.33-.25.32-.21.33.24.33-.21.33-.18.33-.25.32-.18.33-.05.33-.2.33-.14.32-.2.33 2.12.33-.13.33-.12.33-.16.32.79.33-.11.33-.08.33-.09.32-.15.33-.14.33.05.33-.13.33-.05.32-.1.33-.07.33-.13.33-.15.32-.18.33-.09.33-.16.33-.17.32-.11.33-.19.33-.21.33-.07.33-.17.32-.12.33-.17.33-.11.33-.15.32-.22.33-.24.33-.16.33.71.33-.19.32-.13.33-.18.33-.21.33-.07.32-.16.33-.19.33-.12.33-.13.33-.17.32-.21.33-.24.33-.19.33.25.32-.19.33-.12.33-.2.33-.2.33-.06.32-.17.33-.11.33-.17.33-.12.32-.18.33-.19.33-.24.33-.19.33.74.32-.2.33-.11.33-.2.33-.19.32-.08.33-.14.33-.14.33-.17.33-.13.32-.18.33-.18.33 4.54.33-.11.32-.14.33-.15.33-.1.33-.18.32-.16.33-.04.33-.13.33-.1.33-.17.32-.11.33-.16.33-.15.33-.24.32-.16.33-.2.33.82.33-.11.33-.14.32-.2.33-.04.33-.12.33-.13.32-.1.33-.15.33-.14.33-.18.33-.24.32-.16.33-.18.33.39.33-.11.32-.15.33-.17.33-.04.33-.11.33-.17.32-.09.33-.13.33-.12.33-.2.32-.23.33-.17.33-.2.33.8.33-.1.32-.15.33-.19.33-.05.33-.14.32-.17.33-.09.33-.11.33-.14.33-.21.32-.24.33-.15.33-.19.33 3.21.32-.11.33-.13.33-.17.33-.12.32-.03.33-.14.33-.06.33-.11.33-.13.32-.19.33-.15.33-.2.33-.16.32.81.33-.11.33-.11.33-.14.33-.13.32-.03.33-.15.33-.08.33-.11.32-.14.33-.2.33-.16.33-.19.33-.18.32.48.33-.11.33-.11.33-.16.32-.16.33-.01.33-.12.33-.09.33-.11.32-.14.33-.19.33-.17.33-.2.32-.15.33-.18.33.84.33-.09.33-.14.32-.15.33-.06.33-.11.33-.11.32-.14.33-.13.33-.18.33-.18.32-.22.33-.15.33-.17.33-1.52.33-.05.32-.11.33-.11.33.02.33-.08.32-.08.33-.1.33-.09.33-.12.33-.17.32-.16.33-.1.33-.14.33.87.32-.07.33-.07.33-.13.33-.1.33.02.32-.11.33-.07.33-.11.33-.11.32-.13.33-.15.33-.16.33-.12.33.51.32-.09.33-.07.33-.12.33-.12.32-.02.33-.08.33-.09.33-.1.33-.12.32-.15.33-.15.33-.16.33-.13.32.86.33-.08.33-.08.33-.12.33-.11.32-.01.33-.11.33-.1.33-.1.32-.13.33-.15.33-.14.33-.17.32-.11.33 2.96.33-.09.33-.03.33-.08.32-.1h.33l.33-.09.33-.13.32-.06.33-.09.33-.13.33-.13.33-.17.32-.08.33-.12.33.37.33-.07.32-.1.33-.11.33-.09.33-.03.33-.1.32-.12.33-.08.33.39.33-.13.32-.18.33-.11.33.52.33-.09.33-.04.32-.08.33-.1.33-.01.33-.11.32-.14.33-.08.33-.09.33-.1.33-.13.32-.14.33-.16.33-.11.33.88.32-.08.33-.08.33-.11.33-.12.33-.02.32-.12.33-.09.33.86.33-.02.32-.07.33-.07.33-.09.33-.05.32-.09.33-.04.33-.05.33-.08.33-.11.32-.02.33-.11.33-.06.33-.08.32-.08.33-.14.33-.09.33-.14.33-.09.32.88.33-.06.33-.06.33-.1.32-.12.33-.01.33-.1"/><use xlink:href="#h" color="#29C3F6" transform="matrix(4.5 0 0 4.5 84.69 118.65)"/><use xlink:href="#h" color="#29C3F6" transform="matrix(4.5 0 0 4.5 84.9 42.51)"/></g><text fill="#000" stroke="none" stroke-linecap="round" stroke-linejoin="round" color="#000" font-family="Arial" font-size="8" transform="translate(238.4 30.11)"><tspan>RedBlackBottomUp</tspan></text><g fill="none" stroke="currentColor" stroke-linecap="round" stroke-linejoin="round" color="#000"><path stroke="#F44336" d="M201.4 27.51h31.4M33.56 173.66l.33-17.03.33 11.86.32-5.62.33-12.76.33-7.64.33.1.32 23.31.33-5.38.33 2.29.33-3.24.33-9.47.32-8.11.33 2.73.33 10.55.33-5.53.32-.68.33-3.82.33-8.62.33-6.71.33-.32.32 7.29.33-4.78.33-1.56.33-4.84.32 22.52.33-1.75.33-3.69.33 5.95.32-3.36.33-.76.33-3.82.33-4.04.33-2.73.32-4.36.33 2.65.33-3.82.33-1.05.32 14.51.33-3.09.33-1.49.33-3.17.33 2.67.32-.8.33-2.75.33-3.89.33-3.9.32-2.65.33 1.65.33-3.56.33-2.33.33-2.92.32 8.99.33-2.96.33-1.3.33.68.32-2.69.33-1.43.33-2.68.33 21.91.33-1.07.32-2.35.33.99.33-1.86.33-1.52.32 7.32.33-1.97.33-1.27.33-1.73.33.87.32-1.81.33-.81.33-2.64.33-2.36.32-1.82.33-2.52.33.38.33-1.66.33-2.39.32 5.12.33-1.99.33-1.53.33-2.22.32.4.33-1.24.33-2.06.33 15.43.32-1.97.33-1.22.33.27.33-1.72.33-1.15.32-1.81.33 4.33.33-1.73.33-.89.32.21.33-1.46.33-.89.33-1.62.33-2.18.32-1.98.33-1.19.33-.46.33-1.87.32-1.55.33-1.98.33 2.8.33-1.12.33-1.81.32-.68.33-1.52.33-1.47.33 10.63.32-1.52.33-1.32.33-1.44.33-.33.33-1.59.32-.79.33 2.16.33-1.32.33-1.16.32-1.36.33-.28.33-.74.33-1.4.33 21.95.32-1.06.33-.98.33-1.24.33-.02.32-.99.33-1.35.33 2.18.33-1.13.33-.97.32.1.33-1.22.33-.96.33-1.06.32 7.64.33-1.01.33-.57.33-.16.32-.94.33-.88.33-1.08.33 2.11.33-.78.32-1.04.33.01.33-.96.33-.86.32-1 .33-1.38.33-1.02.33-1.22.33-.51.32-1.14.33-1.09.33-1.35.33 1.43.32-.76.33-1.21.33-.61.33-1.09.33-1.04.32-1.21.33 6.26.33-.99.33-1.09.32-.36.33-1.08.33-1 .33 1.23.33-1.01.32-.92.33-1.04.33-.28.33-1.05.32-.93.33 15.81.33-.91.33-.79.33-.87.32-.34.33-.91.33-.62.33 1.07.32-.84.33-.76.33-.94.33-.14.32-.71.33-1.01.33 4.59.33-.74.33-.72.32-.01.33-.84.33-.63.33-.91.32.82.33-.43.33-.8.33-.29.33-.77.32-.61.33-.94.33-1.07.33-.89.32-.99.33-.48.33-1.11.33-.73.33.5.32-.93.33-.83.33-.94.33-.53.32-1.05.33-.67.33 3.47.33-.96.33-.66.32-.95.33-.45.33-.62.33-.99.32.58.33-.83.33-.78.33-.92.33-.29.32-.73.33-1.02.33 10.67.33-.78.32-.47.33-.43.33-.8.33-.66.33-.86.32.63.33-.61.33-.83.33-.38.32-.83.33-.54.33 3.05.33-.73.32-.48.33-.85.33-.2.33-.57.33-.8.32.42.33-.76.33-.49.33-.24.32-.79.33-.54.33-.79.33 21.28.33-.63.32-.38.33-.27.33-.72.33-.43.32-.73.33.46.33-.62.33-.35.33-.32.32-.71.33-.47.33-.76.33 2.71.32-.43.33-.59.33-.29.33-.64.33-.34.32.34.33-.62.33-.45.33-.58.32-.22.33-.66.33-.36.33 7.82.33-.55.32-.36.33-.54.33-.21.33-.54.32-.33.33.47.33-.61.33-.42.33-.59.32-.09.33-.42.33-.6.33 2.26.32-.51.33-.43.33-.01.33-.55.32-.39.33-.53.33.42.33-.49.33-.39.32-.55.33-.13.33-.39.33-.57.32-.7.33-.69.33-.56.33-.26.33-.7.32-.53.33-.67.33.19.33-.7.32-.43.33-.37.33-.62.33-.56.33-.72.32 2.02.33-.5.33-.69.33-.3.32-.63.33-.47.33-.67.33.16.33-.39.32-.71.33-.33.33-.64.33-.52.32 6.02.33-.59.33-.44.33-.58.33-.33.32-.59.33-.39.33.19.33-.54.32-.48.33-.61.33-.25.33-.47.32-.58.33 1.6.33-.5.33-.41.33-.62.32-.18.33-.4.33-.58.33.25.32-.53.33-.47.33-.2.33-.59.33-.43.32-.57.33 15.05.33-.29.33-.5.32-.22.33-.53.33-.31.33.2.33-.48.32-.41.33-.5.33-.31.33-.27.32-.55.33 1.41.33-.5.33-.36.33-.48.32-.17.33-.38.33-.51.33.25.32-.29.33-.47.33-.25.33-.49.33-.4.32-.49.33 4.82.33-.26.33-.43.32-.2.33-.48.33-.36.33.31.33-.48.32-.29.33-.48.33-.21.33-.28.32-.49.33 1.3.33-.39.33-.34.32-.43.33-.12.33-.35.33-.46.33.24.32-.48.33-.32.33-.18.33-.46.32-.35.33-.47.33-.65.33-.32.33-.54.32-.28.33-.55.33-.44.33-.57.32.15.33-.44.33-.55.33-.26.33-.59.32-.46.33 1.09.33-.53.33-.37.32-.52.33-.29.33-.33.33-.55.33.05.32-.53.33-.44.33-.51.33-.21.32-.47.33-.53.33 3.85.33-.49.33-.34.32-.22.33-.52.33-.41.33-.49.32.04.33-.47.33-.33.33-.22.33-.53.32-.41.33-.54.33 1.1.33-.39.32-.48.33-.2.33-.5.33-.39.32-.5.33.15.33-.42.33-.48.33-.22.32-.53.33-.38.33 10.41.33-.43.32-.34.33-.46.33-.13.33-.49.33-.3.32.06.33-.44.33-.33.33-.1.32-.47.33-.38.33-.49.33.95.33-.44.32-.33.33-.07.33-.46.33-.36.32-.43.33.06.33-.26.33-.46.33-.15.32-.41.33-.39.33-.47.33 3.36.32-.33.33-.41.33-.07.33-.46.33-.34.32.15.33-.38.33-.32.33-.38.32-.12.33-.44.33-.26.33.8.32-.43.33-.28.33-.4.33-.12.33-.28.32-.41.33.08.33-.41.33-.32.32-.41.33-.12.33-.26.33-.45.33 20.52.32-.37.33-.29.33-.01.33-.38.32-.29.33-.39.33.15.33-.38.33-.23.32-.14.33-.36.33-.29.33-.4.32.79.33-.21.33-.4.33-.12.33-.35.32-.3.33.15.33-.38.33-.3.32-.36.33-.1.33-.37.33-.3.33 2.88.32-.35.33-.25.33-.33.33-.1.32-.36.33-.2.33.05.33-.37.33-.24.32-.37.33-.06.33-.27.33-.33.32.73.33-.35.33-.22.33-.1.32-.34.33-.23.33-.37.33.11.33-.36.32-.22.33-.11.33-.36.33-.24.32-.34.33 7.85.33-.32.33-.18.33-.07.32-.29.33-.23.33-.31.33.1.32-.21.33-.32.33-.08.33-.33.33-.25.32.74.33-.32.33-.22.33-.33.32-.11.33-.16.33-.32.33.1.33-.3.32-.24.33-.34.33-.03.33-.26.32-.3.33 2.43.33-.3.33-.2.33-.3h.32l.33-.24.33-.28.33.12.32-.32.33-.16.33-.12.33-.29.33-.24.32-.31.33.72.33-.2.33-.3.32-.08.33-.29.33-.25.33-.28.32.15.33-.24.33-.3.33-.11.33-.32.32-.17.33-.39.33-.35.33-.27.32-.39.33-.13.33-.36.33-.24.33.01.32-.34.33-.29.33-.38.33-.09.32-.31.33-.39.33.55.33-.34.33-.28.32-.1.33-.36.33-.29.33-.38.32.03.33-.37.33-.25.33-.19.33-.37.32-.3.33-.39.33 2.09.33-.27.32-.35.33-.11.33-.34.33-.25.33.02.32-.35.33-.29.33-.32.33-.14.32-.33.33-.28.33.55.33-.35.32-.27.33-.33.33-.16.33-.22.33-.37.32.01.33-.34.33-.22.33-.34.32-.15.33-.21.33-.38.33 6.06.33-.32.32-.24.33-.28.33-.06.33-.27.32-.33.33.05.33-.32.33-.22.33-.13.32-.35.33-.25.33-.32.33.55.32-.27.33-.3.33-.13.33-.21.33-.32.32.02.33-.33.33-.26.33-.33.32-.07.33-.26.33-.32.33 1.81.33-.29.32-.23.33-.3.33-.05.33-.26.32-.31.33.01.33-.32.33-.2.33-.12.32-.31.33-.22.33-.31.33.47.32-.17.33-.31.33-.12.33-.3.32-.25.33.07.33-.33.33-.25.33-.29.32-.13.33-.32.33-.24.33 14.49.32-.26.33-.19.33-.27.33-.09.33-.15.32-.29.33.03.33-.28.33-.22.32-.05.33-.29.33-.21.33-.29.33.49.32-.26.33-.21.33-.06.33-.28.32-.2.33-.29.33.03.33-.19.33-.29.32-.1.33-.28.33-.23.33-.29.32 1.72.33-.2.33-.24.33-.1.33-.27.32-.17.33.05.33-.29.33-.19.32-.27.33-.12.33-.17.33-.27.33.45.32-.26.33-.21.33-.26.33-.08.32-.16.33-.26.33.01.33-.26.32-.21.33-.29.33-.09.33-.23.33-.27.32 4.78.33-.24.33-.15.33-.06.32-.23.33-.19.33-.23.33.05.33-.15.32-.28.33-.07.33-.27.33-.2.32.51.33-.26.33-.19.33-.24.33-.07.32-.33.33-.16.33.06.33-.27.32-.18.33-.26.33-.1.33-.16.33-.27.32 1.49.33-.23.33-.17.33-.24h.32l.33-.2.33-.24.33.09.33-.26.32-.18.33-.07.33-.26.33-.19.32-.25.33.42.33-.23.33-.15.32-.1.33-.24.33-.15.33-.26.33.06.32-.17.33-.26.33-.09.33-.24.32-.19.33-.25.33-.29.33-.25.33-.3.32-.1.33-.27.33-.22.33.07.32-.29.33-.24.33-.3.33-.13.33-.31.32-.24.33.41.33-.3.33-.22.32-.3.33-.11.33-.29.33-.23.33-.3.32.05.33-.25.33-.28.33-.15.32-.3.33-.26.33 1.33.33-.28.33-.23.32-.28.33-.14.33-.19.33-.27.32.02.33-.28.33-.24.33-.1.33-.28.32-.26.33-.29.33.34.33-.28.32-.2.33-.15.33-.29.33-.22.32-.28.33.03.33-.21.33-.28.33-.15.32-.28.33-.26.33-.29.33 4.05.32-.2.33-.27.33-.09.33-.26.33-.21.32-.24.33.08.33-.23.33-.27.32-.14.33-.27.33-.2.33.32.33-.28.32-.21.33-.27.33-.08.33-.21.32-.27.33.03.33-.29.33-.19.33-.13.32-.27.33-.21.33-.26.33 1.2.32-.26.33-.2.33-.25.33-.07.33-.21.32-.25.33.05.33-.26.33-.24.32-.08.33-.25.33-.2.33-.26.33.3.32-.26.33-.17.33-.12.33-.27.32-.2.33-.26.33.04.33-.19.32-.29.33-.11.33-.27.33-.23.33 10.23.32-.25.33-.18.33-.24.33-.08.32-.15.33-.24.33.09.33-.23.33-.21.32-.06.33-.25.33-.17.33-.25.32.31.33-.23.33-.19"/><use xlink:href="#e" color="#F44336" transform="matrix(4.5 0 0 4.5 138.77 107.33)"/><use xlink:href="#e" color="#F44336" transform="matrix(4.5 0 0 4.5 217.1 27.51)"/></g><text fill="#000" stroke="none" stroke-linecap="round" stroke-linejoin="round" color="#000" font-family="Arial" font-size="8" transform="translate(238.4 45.11)"><tspan>RedBlackTopDown</tspan></text><g fill="none" stroke="currentColor" stroke-linecap="round" stroke-linejoin="round" color="#000"><path stroke="#3B75EA" stroke-dasharray="1.0,2.0" d="M201.4 42.51h31.4M33.56 175.73l.33 2.76.33-4.92.32-7.56.33 8.83.33.89.33-1.7.32-.86.33-2 .33-4.03.33-6.05.33 5.33.32-2.47.33-1.51.33-2.59.33-3.17.32-4.23.33-5.66.33 12.96.33.59.33.2.32-.12.33-1.04.33-1.99.33-3.78.32 4.05.33-1.29.33-2.09.33-1.38.32-2.88.33-3.14.33 5.43.33.4.33-.24.32-1.72.33.03.33-1.92.33-1.67.32-.24.33-1.19.33-1.56.33-2.65.33-1.52.32-1.97.33-3.29.33 10.4.33.78.32.5.33.63.33.02.33-.45.33-1.01.32.88.33-.53.33-.17.33-.85.32-1.24.33-1.25.33-2.22.33 3.54.33.23.32-.72.33-.32.33-.87.33-1.27.32-.44.33-.81.33-1.04.33-1.48.33-1.1.32-1.87.33-1.61.33 6.65.33.29.32.05.33-.65.33.52.33-.44.33-.95.32.29.33-.52.33-.61.33-1.25.32-.51.33-.81.33-1.6.33 1.33.32-.55.33-.55.33-.34.33-.95.33-1 .32-1.47.33-.08.33-1.23.33-.93.32-1.05.33-1.44.33-1.29.33-2.08.33 11.54.32.37.33.75.33.51.33.06.32.14.33-.41.33.69.33.24.33-.33.32-.06.33-.46.33-.48.33.72.32-.02.33-.07.33-.37.33.06.33-.66.32-.2.33-.15.33-.51.33-.47.32-.85.33-.35.33-.64.33-1.14.33 2.83.32.01.33.04.33-.35.33.28.32-.29.33-.65.33.28.33-.48.33-.41.32-.2.33-.71.33-.69.33-.91.32.67.33-.57.33-.22.33-.34.32-.68.33-.67.33-1.04.33.01.33-.72.32-1.07.33-.55.33-1.05.33-1.07.32-1.33.33 8.51.33.17.33-.04.33.23.32-.07.33-.07.33-.46.33.42.32-.05.33-.34.33-.08.33-.42.33-.42.32-.69.33.88.33-.22.33-.39.32-.07.33-.52.33-.48.33.02.33-.5.32-.47.33-.68.33-.3.33-.83.32-.72.33 1.45.33-.21.33-.17.33-.35.32-.01.33-.5.33-.31.33.06.32-.46.33-.44.33-.68.33-.14.32-.6.33-.86.33.35.33-.54.33-.5.32-.17.33-.64.33-.62.33-.88.32-.11.33-.55.33-.77.33-.52.33-.89.32-.85.33-1.19.33 11.22.33.29.32.13.33.47.33-.05.33.19.33.5.32.04.33.07.33-.09.33.25.32-.27.33-.01.33.62.33-.04.33.05.32-.18.33.23.33-.05.33-.27.32.25.33-.2.33-.2.33-.37.33.07.32-.34.33-.59.33 1.52.33-.09.32.06.33.11.33-.13.33-.17.33-.34.32.41.33-.19.33-.32.33-.03.32-.4.33-.31.33.38.33-.23.32-.2.33-.4.33-.04.33-.32.33-.51.32.06.33-.43.33-.41.33-.25.32-.53.33-.5.33-.69.33 3.36.33-.07.32.09.33.16.33-.12.33-.07.32-.28.33.29.33-.18.33-.07.33-.04.32-.3.33-.24.33-.49.33.63.32-.15.33-.27.33-.04.33-.34.33-.21.32.04.33-.31.33-.3.33-.41.32-.18.33-.51.33-.38.33.79.33-.17.32-.17.33-.31.33-.03.33-.31.32-.26.33.06.33-.33.33-.3.33-.5.32-.08.33-.4.33-.5.33.27.32-.37.33-.38.33-.16.33-.43.32-.4.33-.51.33-.1.33-.45.33-.49.32-.61.33-.28.33-.54.33-.69.32 7.34.33.03.33.05.33.23.33-.01h.32l.33-.13.33.35.33-.13.32.03.33.03.33-.14.33-.13.33-.29.32.61.33-.07.33-.18.33.04.32-.17.33-.15.33-.29.33.19.33-.14.32-.32.33-.06.33-.3.33-.28.32.66.33-.11.33-.1.33-.18h.33l.32-.24.33-.14.33.17.33-.21.32-.22.33-.34.33-.04.33-.27.32-.36.33.35.33-.22.33-.24.33-.39.32-.04.33-.29.33-.41.33.09.32-.35.33-.38.33-.2.33-.41.33-.42.32-.52.33 2.04.33-.02.33-.18.32.03.33-.21.33-.12.33.17.33-.19.32-.2.33-.28.33-.1.33-.17.32-.34.33.38.33-.24.33-.2.33-.31.32-.04.33-.26.33-.37.33.12.32-.27.33-.33.33-.24.33-.37.33-.37.32-.45.33.73.33-.17.33-.28.32-.12.33-.33.33-.29.33.09.33-.32.32-.28.33-.42.33-.19.33-.33.32-.44.33.19.33-.31.33-.32.32-.45.33-.17.33-.37.33-.45.33-.03.32-.46.33-.41.33-.32.33-.47.32-.46.33-.56.33 9.95.33.17.33.08.32.21.33.07.33.07.33-.03.32.49.33.06.33-.04.33.13.33-.06.32-.04.33.56.33.02.33.06.32-.05.33.12.33.02.33-.08.33.27.32-.05.33-.07.33-.16.33.07.32-.12.33-.19.33.8.33-.02.33.04.32.07.33-.05.33-.06.33-.12.32.28.33-.09.33-.03.33-.02.33-.15.32-.14.33-.26.33.54.33-.08.32-.17.33-.01.33-.18.33-.15.32-.25.33.27.33-.15.33-.23.33-.1.32-.31.33-.22.33 1.39.33.01.32.01.33-.08.33.08.33-.13.33-.02.32.24.33-.09.33-.05.33-.1.32-.03.33-.12.33-.23.33.45.33-.12.32-.1h.33l.33-.15.33-.15.32-.2.33.14.33-.1.33-.21.33-.07.32-.23.33-.23.33-.32.33.74.32-.1.33-.16.33-.01.33-.21.33-.18.32.13.33-.14.33-.15.33-.22.32-.08.33-.28.33-.2.33.24.32-.2.33-.16.33-.26.33-.11.33-.21.32-.28.33.03.33-.26.33-.24.32-.34.33-.12.33-.29.33-.38.33 3.38.32-.02.33-.01.33.11.33-.04.32-.05.33-.1.33.25.33-.08.33-.02h.32l.33-.1.33-.1.33-.2.32.42.33-.02.33-.11.33.01.33-.14.32-.13.33.13.33-.11.33-.11.32-.19.33-.03.33-.2.33-.18.33.56.32-.08.33-.07.33-.14.33-.02.32-.16.33-.1.33.1.33-.12.33-.13.32-.22.33-.03.33-.17.33-.24.32.29.33-.18.33-.13.33-.09.32-.19.33-.18.33-.27.33.07.33-.24.32-.18.33-.16.33-.27.33-.22.32-.3.33 1.07.33-.13.33-.05.33-.04.32-.13.33-.13.33-.2.33.13.32-.1.33-.17.33-.07.33-.19.33-.19.32.25.33-.14.33-.14.33-.22.32-.09.33-.15.33-.24.33.04.33-.2.32-.2.33-.29.33-.07.33-.26.32-.28.33.48.33-.17.33-.15.33-.24.32-.04.33-.21.33-.27.33.04.32-.24.33-.17.33-.18.33-.25.33-.25.32-.31.33.24.33-.2.33-.27.32-.16.33-.28.33-.28.33-.32.32.03.33-.26.33-.33.33-.22.33-.35.32-.29.33 6.99.33.03.33.05.32-.04.33.1.33-.05.33.02.33.2.32-.02.33-.01.33-.08.33.1.32-.05.33-.11.33.41.33-.06.33-.02.32.04.33-.06.33-.06.33-.11.32.16.33-.08.33-.04.33-.03.33-.12.32-.11.33-.2.33.68.33-.03.32-.09.33.04.33-.1.33-.06.33.11.32-.08.33-.07.33-.13.33-.01.32-.14.33-.12.33.31.33-.1.32-.1.33-.14.33-.04.33-.1.33-.18.32.07.33-.14.33-.12.33-.18.32-.08.33-.13.33-.23.33.94.33-.06.32-.06.33-.1.33.05.33-.08.32-.13.33.13.33-.1.33-.07.33-.04.32-.13.33-.14.33-.18.33.37.32-.1.33-.14.33-.05.33-.11.33-.17.32.06.33-.15.33-.13.33-.21.32-.04.33-.16.33-.21.33.48.33-.11.32-.1.33-.18.33-.01.33-.15.32-.2.33.05.33-.17.33-.13.33-.1.32-.19.33-.16.33-.24.33.26.32-.13.33-.19.33-.13.33-.22.32-.19.33-.02.33-.2.33-.19.33-.24.32-.15.33-.26.33-.23.33 1.91.32-.04.33-.03.33-.1.33.01.33-.05.32-.12.33.1.33-.08.33-.07.32-.02.33-.12.33-.1.33-.15.33.32.32-.1.33-.09.33-.03.33-.13.32-.1.33-.18.33.08.33-.09.33-.16.32-.07.33-.17.33-.15.33-.22.32.55.33-.09.33-.12.33-.06.33-.15.32-.11.33.04.33-.13.33-.13.32-.19.33-.08.33-.14.33-.2.33.26.32-.16.33-.14.33-.2.33-.08.32-.15.33-.2.33-.02.33-.17.32-.17.33-.24.33-.11.33-.22.33-.25.32.84.33-.13.33-.09.33-.05.32-.14.33-.14.33-.17.33.05.33-.11.32-.17.33-.09.33-.18.33-.17.32.24.33-.14.33-.14.33-.18.33-.1.32-.2.33-.16.33-.02.33-.18.32-.17.33-.22.33-.12.33-.22.33-.2.32.38.33-.16.33-.14.33-.21.32-.06.33-.19.33-.22h.33l.33-.2.32-.17.33-.14.33-.22.33-.22.32-.25.33.19.33-.19.33-.19.32-.17.33-.23.33-.2.33-.28.33-.05.32-.2.33-.26.33-.19.33-.26.32-.25.33-.3.33 9.69.33.08.33.02.32.12.33.01.33.04.33.19.32.04.33.05h.33l.33.07.33-.02.32.01.33.05.33.37.33.04.32-.02.33.07.33-.02.33-.01.33-.07.32.21.33-.01.33-.04.33.03.32-.05.33-.05.33.55h.33l.33.02.32-.04.33.07h.33l.33-.05.32.14.33-.03.33-.01.33.03.33-.04.32-.06.33-.07.33.35.33-.04.32-.01.33.01.33-.07.33-.07.32-.09.33.11.33-.05.33-.08.33-.02.32-.1.33-.09.33-.14.33.89.32.01.33-.03.33.05.33-.03.33-.03.32-.06.33.17.33-.02.33-.06h.32l.33-.08.33-.04.33.29.33-.03.32-.02.33-.08.33.04.33-.06.32-.11.33.09.33-.09.33-.05.33-.03.32-.09.33-.09.33-.12.33.51.32-.06.33-.03.33-.08.33.03.33-.07.32-.1.33.07.33-.09.33-.08.32-.02.33-.09.33-.1.33-.13.33.27.32-.09.33-.06.33-.04.33-.1.32-.11.33-.15.33.04.33-.1.32-.15.33-.08.33-.15.33-.15.33 1.41.32-.01h.33l.33-.04.33.03.32-.01.33-.06.33.11.33-.03.33-.03.32.01.33-.05.33-.04.33-.09.32.29.33-.03.33-.04"/><use xlink:href="#i" color="#3B75EA" transform="matrix(4.5 0 0 4.5 192.85 114.32)"/><use xlink:href="#i" color="#3B75EA" transform="matrix(4.5 0 0 4.5 217.1 42.51)"/></g><path fill="none" stroke="none" stroke-linecap="round" stroke-linejoin="round" stroke-width="0" d="M33.56 72.01V182M358.04 72.01H33.56" color="#000"/><text fill="#000" stroke="none" stroke-linecap="round" stroke-linejoin="round" stroke-width="0" color="#000" font-family="Arial" font-size="8" text-anchor="middle" transform="translate(195.8 8.61)"><tspan>Insert - Zipf</tspan></text></svg>