<svg xmlns="http://www.w3.org/2000/svg" xmlns:xlink="http://www.w3.org/1999/xlink" viewBox="0 0 400 250"><path fill="none" d="M0 0h400v250H0z"/><defs><path id="c" stroke="currentColor" stroke-width=".267" d="M-1 0h2M0-1v2"/><path id="d" stroke="currentColor" stroke-width=".267" d="m-1-1 2 2m0-2-2 2"/><path id="e" stroke="currentColor" stroke-width=".267" d="M-1 0h2M0-1v2m-1-2 2 2m-2 0 2-2"/><path id="b" stroke="currentColor" stroke-width=".267" d="M-1-1h2v2h-2z"/><path id="a" stroke="currentColor" stroke-width=".267" d="m0-1.33-1.33 2h2.66z"/></defs><path fill="none" stroke="#333" stroke-linecap="round" stroke-linejoin="round" stroke-width=".1" d="M46.1 205V45.01" class="gridline" color="#000"/><g fill="none" stroke-linecap="round" stroke-linejoin="round" stroke-width="0" color="#000"><path d="M46.1 205v-7.5m0-152.49v7.5"/><text fill="#000" font-family="KaTeX_Main" font-size="10" text-anchor="middle" transform="translate(46.1 215.75)"><tspan> 1</tspan></text></g><path fill="none" stroke="#333" stroke-linecap="round" stroke-linejoin="round" stroke-width=".1" d="M82.31 205V45.01" class="gridline" color="#000"/><g fill="none" stroke-linecap="round" stroke-linejoin="round" stroke-width="0" color="#000"><path d="M82.31 205v-7.5m0-152.49v7.5"/><text fill="#000" font-family="KaTeX_Main" font-size="10" text-anchor="middle" transform="translate(82.31 215.75)"><tspan> 2</tspan></text></g><path fill="none" stroke="#333" stroke-linecap="round" stroke-linejoin="round" stroke-width=".1" d="M118.52 205V45.01" class="gridline" color="#000"/><g fill="none" stroke-linecap="round" stroke-linejoin="round" stroke-width="0" color="#000"><path d="M118.52 205v-7.5m0-152.49v7.5"/><text fill="#000" font-family="KaTeX_Main" font-size="10" text-anchor="middle" transform="translate(118.52 215.75)"><tspan> 3</tspan></text></g><path fill="none" stroke="#333" stroke-linecap="round" stroke-linejoin="round" stroke-width=".1" d="M154.73 205V45.01" class="gridline" color="#000"/><g fill="none" stroke-linecap="round" stroke-linejoin="round" stroke-width="0" color="#000"><path d="M154.73 205v-7.5m0-152.49v7.5"/><text fill="#000" font-family="KaTeX_Main" font-size="10" text-anchor="middle" transform="translate(154.73 215.75)"><tspan> 4</tspan></text></g><path fill="none" stroke="#333" stroke-linecap="round" stroke-linejoin="round" stroke-width=".1" d="M190.94 205V45.01" class="gridline" color="#000"/><g fill="none" stroke-linecap="round" stroke-linejoin="round" stroke-width="0" color="#000"><path d="M190.94 205v-7.5m0-152.49v7.5"/><text fill="#000" font-family="KaTeX_Main" font-size="10" text-anchor="middle" transform="translate(190.94 215.75)"><tspan> 5</tspan></text></g><path fill="none" stroke="#333" stroke-linecap="round" stroke-linejoin="round" stroke-width=".1" d="M227.15 205V45.01" class="gridline" color="#000"/><g fill="none" stroke-linecap="round" stroke-linejoin="round" stroke-width="0" color="#000"><path d="M227.15 205v-7.5m0-152.49v7.5"/><text fill="#000" font-family="KaTeX_Main" font-size="10" text-anchor="middle" transform="translate(227.15 215.75)"><tspan> 6</tspan></text></g><path fill="none" stroke="#333" stroke-linecap="round" stroke-linejoin="round" stroke-width=".1" d="M263.36 205V45.01" class="gridline" color="#000"/><g fill="none" stroke-linecap="round" stroke-linejoin="round" stroke-width="0" color="#000"><path d="M263.36 205v-7.5m0-152.49v7.5"/><text fill="#000" font-family="KaTeX_Main" font-size="10" text-anchor="middle" transform="translate(263.36 215.75)"><tspan> 7</tspan></text></g><path fill="none" stroke="#333" stroke-linecap="round" stroke-linejoin="round" stroke-width=".1" d="M299.57 205V45.01" class="gridline" color="#000"/><g fill="none" stroke-linecap="round" stroke-linejoin="round" stroke-width="0" color="#000"><path d="M299.57 205v-7.5m0-152.49v7.5"/><text fill="#000" font-family="KaTeX_Main" font-size="10" text-anchor="middle" transform="translate(299.57 215.75)"><tspan> 8</tspan></text></g><path fill="none" stroke="#333" stroke-linecap="round" stroke-linejoin="round" stroke-width=".1" d="M335.78 205V45.01" class="gridline" color="#000"/><g fill="none" stroke-linecap="round" stroke-linejoin="round" stroke-width="0" color="#000"><path d="M335.78 205v-7.5m0-152.49v7.5"/><text fill="#000" font-family="KaTeX_Main" font-size="10" text-anchor="middle" transform="translate(335.78 215.75)"><tspan> 9</tspan></text></g><path fill="none" stroke="#333" stroke-linecap="round" stroke-linejoin="round" stroke-width=".1" d="M371.99 205V45.01" class="gridline" color="#000"/><g fill="none" stroke-linecap="round" stroke-linejoin="round" stroke-width="0" color="#000"><path d="M371.99 205v-7.5m0-152.49v7.5"/><text fill="#000" font-family="KaTeX_Main" font-size="10" text-anchor="middle" transform="translate(371.99 215.75)"><tspan> 10</tspan></text></g><g fill="none" stroke-linecap="round" stroke-linejoin="round" stroke-width="0" color="#000"><path d="M371.99 205h-7.5"/><text fill="#000" font-family="KaTeX_Main" font-size="10" transform="translate(378.99 208.25)"><tspan>1.05</tspan></text></g><g fill="none" stroke-linecap="round" stroke-linejoin="round" stroke-width="0" color="#000"><path d="M371.99 187.22h-7.5"/><text fill="#000" font-family="KaTeX_Main" font-size="10" transform="translate(378.99 190.47)"><tspan>1.10</tspan></text></g><g fill="none" stroke-linecap="round" stroke-linejoin="round" stroke-width="0" color="#000"><path d="M371.99 169.45h-7.5"/><text fill="#000" font-family="KaTeX_Main" font-size="10" transform="translate(378.99 172.7)"><tspan>1.15</tspan></text></g><g fill="none" stroke-linecap="round" stroke-linejoin="round" stroke-width="0" color="#000"><path d="M371.99 151.67h-7.5"/><text fill="#000" font-family="KaTeX_Main" font-size="10" transform="translate(378.99 154.92)"><tspan>1.20</tspan></text></g><g fill="none" stroke-linecap="round" stroke-linejoin="round" stroke-width="0" color="#000"><path d="M371.99 133.89h-7.5"/><text fill="#000" font-family="KaTeX_Main" font-size="10" transform="translate(378.99 137.14)"><tspan>1.25</tspan></text></g><g fill="none" stroke-linecap="round" stroke-linejoin="round" stroke-width="0" color="#000"><path d="M371.99 116.12h-7.5"/><text fill="#000" font-family="KaTeX_Main" font-size="10" transform="translate(378.99 119.37)"><tspan>1.30</tspan></text></g><g fill="none" stroke-linecap="round" stroke-linejoin="round" stroke-width="0" color="#000"><path d="M371.99 98.34h-7.5"/><text fill="#000" font-family="KaTeX_Main" font-size="10" transform="translate(378.99 101.59)"><tspan>1.35</tspan></text></g><g fill="none" stroke-linecap="round" stroke-linejoin="round" stroke-width="0" color="#000"><path d="M371.99 80.56h-7.5"/><text fill="#000" font-family="KaTeX_Main" font-size="10" transform="translate(378.99 83.81)"><tspan>1.40</tspan></text></g><g fill="none" stroke-linecap="round" stroke-linejoin="round" stroke-width="0" color="#000"><path d="M371.99 62.79h-7.5"/><text fill="#000" font-family="KaTeX_Main" font-size="10" transform="translate(378.99 66.04)"><tspan>1.45</tspan></text></g><g fill="none" stroke-linecap="round" stroke-linejoin="round" stroke-width="0" color="#000"><path d="M371.99 45.01h-7.5"/><text fill="#000" font-family="KaTeX_Main" font-size="10" transform="translate(378.99 48.26)"><tspan>1.50</tspan></text></g><path fill="none" d="M28 45.01V205M371.99 45.01H28" color="#000"/><text stroke-linecap="round" stroke-linejoin="round" stroke-width="0" color="#000" font-family="KaTeX_Main" font-size="10" text-anchor="middle" transform="rotate(-90 68.255 56.755)"><tspan font-weight="bold">Maximum Path Length </tspan><tspan> / log</tspan><tspan dy="3" font-size="8">2</tspan><tspan dy="-3">(Size)</tspan></text><text stroke-linecap="round" stroke-linejoin="round" stroke-width="0" color="#000" font-family="KaTeX_Main" font-size="10" text-anchor="middle" transform="translate(199.99 238.25)"><tspan>Operations × 10</tspan><tspan dy="-5" font-size="8">5</tspan></text><text stroke-linecap="round" stroke-linejoin="round" color="#000" font-family="KaTeX_Main" font-size="8" transform="translate(116 10.11)"><tspan>AVLBottomUp</tspan></text><g fill="none" stroke="currentColor" stroke-linecap="round" stroke-linejoin="round" color="#000"><path stroke="#000" d="M80.5 7.51h29.9M28 191.11l.36.71.36.69.37.67.36.66.36.65.36.63.36.62.37-21.86.36.63.36.62.36.6.37.6.36.58.36.57.36.56.36.55.37.54.36.53.36.52.36.52.36.5.37.5.36.49.36.48.36.47.36.47.37.46.36.45.36.44.36.44.36.43.37.43.36.42.36.41.36.41.37.4.36.4.36.39.36.39.36.38.37.37.36.38.36.36.36.37.36.35.37.36.36.34.36.35.36-21.08.36.35.37.35.36.35.36.34.36.34.37.34.36.33.36.33.36.32.36.32.37.32.36.31.36.32.36.3.36.31.37.3.36.3.36.29.36.3.36.28.37.29.36.29.36.28.36.27.37.28.36.27.36.27.36.27.36.27.37.26.36.26.36.26.36.26.36.25.37.25.36.25.36.25.36.24.36.25.37.24.36.24.36.24.36.23.36.23.37.23.36.24.36.22.36.23.37.22.36.23.36.22.36.22.36.21.37.22.36.21.36.21.36.22.36.2.37.21.36.21.36.2.36.2.36.21.37.2.36.19.36.2.36.2.37.19.36.2.36.19.36.19.36.19.37.19.36.18.36.19.36.18.36.19.37.18.36.18.36.18.36.18.36.17.37.18.36.18.36.17.36.17.36.17.37.17.36.17.36.17.36.17.37.16.36.17.36.16.36.17.36.16.37.16.36.16.36.16.36.16.36.16.37.15.36.16.36.15.36.16.36.15.37.15.36.15.36.15.36.15.37.15.36.15.36.15.36.14.36.15.37.14.36.15.36.14.36.15.36.14.37.14.36-19.89.36.15.36.15.36.14.37.14.36.15.36.14.36.14.36.15.37.14.36.14.36.14.36.13.37.14.36.14.36.14.36.14.36.13.37.14.36.13.36.13.36.13.36.14.37.13.36.13.36.13.36.13.36.13.37.13.36.13.36.12.36.13.37.13.36.12.36.13.36.12.36.12.37.13.36.12.36.12.36.12.36.13.37.12.36.12.36.11.36.13.36.11.37.12.36.12.36.11.36.12.37.12.36.11.36.12.36.11.36.12.37.11.36.11.36.12.36.11.36.11.37.11.36.11.36.11.36.11.36.11.37.11.36.11.36.11.36.1.36.11.37.11.36.1.36.11.36.11.37.1.36.11.36.1.36.1.36.11.37.1.36.1.36.11.36.1.36.1.37.1.36.1.36.1.36.1.36.1.37.1.36.1.36.1.36.1.37.09.36.1.36.1.36-19.36.36.1.37.11.36.1.36.1.36.1.36.1.37.1.36.09.36.1.36.1.36.1.37.1.36.09.36.1.36.09.36.1.37.1.36.09.36.1.36.09.37.1.36.09.36.09.36.1.36.09.37.09.36.09.36.1.36.09.36.09.37.09.36.09.36.09.36.09.36.09.37.09.36.09.36.09.36.09.37.09.36.09.36.09.36.08.36.09.37.09.36.08.36.09.36.09.36.08.37.09.36.08.36.09.36.08.36.09.37.09.36.08.36.08.36.08.36.09.37.08.36.09.36.08.36.08.37.08.36.08.36.09.36.08.36.08.37.08.36.08.36.08.36.08.36.08.37.08.36.08.36.08.36.08.36.08.37.07.36.08.36.08.36.08.37.08.36.07.36.08.36.08.36.08.37.07.36.08.36.07.36.08.36.08.37.07.36.08.36.07.36.08.36.07.37.07.36.08.36.07.36.08.37.07.36.07.36.08.36.07.36.07.37.08.36.07.36.07.36.07.36.07.37.07.36.08.36.07.36.07.36.07.37.07.36.07.36.07.36.07.36.07.37.07.36.07.36.07.36.07.37.07.36.07.36.07.36.07.36.06.37.07.36.07.36.07.36.06.36.07.37.07.36.07.36.06.36.07.36.07.37.06.36.07.36.06.36.07.37.07.36.06.36.07.36.07.36.06.37.06.36.07.36.06.36.07.36.06.37.07.36.06.36.06.36.07.36.06.37.06.36.07.36.06.36.06.36.07.37.06.36.06.36.06.36.07.37.06.36.06.36.06.36.06.36.06.37.07.36.06.36.06.36.06.36.06.37.06.36.06.36.06.36.06.36.06.37.06.36.06.36.06.36.06.37.06.36.06.36.06.36.06.36.05.37.07.36.05.36.06.36.06.36.06.37.06.36.05.36.06.36.06.36.06.37.05.36.06.36.06.36.06.37.05.36.06.36.06.36.05.36.06.37.06.36.05.36.06.36.05.36.06.37.05.36.06.36.05.36.06.36.05.37.06.36.05.36.06.36.05.36.06.37.06.36.05.36.05.36.06.37.05.36.06.36.05.36.05.36.06.37.05.36.05.36.06.36.05.36.05.37.06.36.05.36.05.36.06.36.05.37.05.36.05.36.05.36.05.37.06.36.05.36.05.36.05.36.05.37.05.36.06.36.05.36.05.36.05.37.05.36.05.36.05.36.05.36.05.37.05.36.06.36.05.36.05.36.05.37.05.36.04.36.05.36.05.37.05.36.05.36.05.36.05.36.05.37.05.36.05.36.05.36.05.36.04.37.05.36.05.36.05.36.05.36.05.37.05.36.04.36.05.36.05.37.04.36.05.36.05.36.05.36.05.37.04.36.05.36.05.36.05.36.04.37.05.36.05.36.04.36.05.36.05.37.04.36.05.36.04.36.05.36.05.37.04.36-18.4.36.05.36.04.37.05.36.05.36.05.36.05.36.04.37.05.36.05.36.04.36.05.36.05.37.05.36.04.36.05.36.05.36.04.37.05.36.05.36.04.36.05.37.05.36.04.36.05.36.04.36.05.37.05.36.04.36.05.36.04.36.05.37.04.36.05.36.04.36.05.36.05.37.04.36.04.36.05.36.04.37.05.36.05.36.04.36.04.36.05.37.04.36.05.36.04.36.05.36.04.37.04.36.05.36.04.36.05.36.04.37.04.36.05.36.04.36.04.36.05.37.04.36.04.36.05.36.04.37.04.36.04.36.05.36.04.36.04.37.05.36.04.36.04.36.04.36.05.37.04.36.04.36.04.36.04.36.05.37.04.36.04.36.04.36.04.37.05.36.04.36.04.36.04.36.04.37.04.36.04.36.05.36.04.36.04.37.04.36.04.36.04.36.04.36.04.37.04.36.04.36.05.36.04.36.03.37.05.36.04.36.04.36.04.37.04.36.04.36.04.36.04.36.04.37.04.36.04.36.04.36.04.36.04.37.04.36.03.36.04.36.04.36.04.37.04.36.04.36.04.36.04.37.04.36.04.36.04.36.03.36.04.37.04.36.04.36.04.36.04.36.04.37.03.36.04.36.04.36.04.36.04.37.04.36.04.36.03.36.04.36.04.37.03.36.04.36.04.36.04.37.04.36.03.36.04.36.04.36.04.37.03.36.04.36.04.36.04.36.03.37.04.36.04.36.04.36.03.36.04.37.04.36.03.36.04.36.04.37.03.36.04.36.03.36.04.36.04.37.03.36.04.36.04.36.03.36.04.37.03.36.04.36.04.36.03.36.04.37.04.36.03.36.04.36.03.37.04.36.03.36.04.36.03.36.04.37.04.36.03.36.04.36.03.36.03.37.04.36.04.36.03.36.04.36.03.37.03.36.04.36.04.36.03.36.04.37.03.36.03.36.04.36.03.37.04.36.03.36.04.36.03.36.04.37.03.36.03.36.04.36.03.36.04.37.03.36.03.36.04.36.03.36.04.37.03.36.03.36.04.36.03.37.03.36.04.36.03.36.03.36.04.37.03.36.03.36.04.36.03.36.03.37.04.36.03.36.03.36.04.36.03.37.03.36.03.36.04.36.03.36.03.37.04.36.03.36.03.36.03.37.04.36.03.36.03.36.04.36.03.37.03.36.03.36.03.36.04.36.03.37.03.36.03.36.03.36.04.36.03.37.03.36.03.36.03.36.04.37.03.36.03.36.03.36.03.36.04.37.02.36.04.36.03.36.03.36.03.37.03.36.04.36.03.36.03.36.03.37.03.36.03.36.03.36.03.36.04.37.02.36.04.36.03.36.03.37.03.36.03.36.03.36.03.36.03.37.03.36.03.36.04.36.02.36.04.37.02.36.04.36.02.36.04.36.03.37.03.36.03.36.03.36.03.37.03.36.03.36.03.36.03.36.03.37.03.36.03.36.03.36.03.36.03.37.03.36.03.36.03.36.03.36.03.37.03.36.02.36.04.36.03.37.02.36.03.36.03.36.03.36.03.37.03.36.03.36.03.36.03.36.03.37.03.36.03.36.03.36.02.36.03.37.03.36.03.36.03.36.03.36.03.37.03.36.02.36.03.36.03.37.03.36.03.36.03.36.03.36.02.37.03.36.03.36.03"/><use xlink:href="#c" transform="matrix(3.75 0 0 3.75 354.25 184.45)"/><use xlink:href="#c" transform="matrix(3.75 0 0 3.75 95.45 7.51)"/></g><text stroke-linecap="round" stroke-linejoin="round" color="#000" font-family="KaTeX_Main" font-size="8" transform="translate(116 25.11)"><tspan>AVLTopDown</tspan></text><g fill="none" stroke="currentColor" stroke-linecap="round" stroke-linejoin="round" color="#000"><path stroke="#29C3F6" stroke-dasharray="1.0,2.0" d="M80.5 22.51h29.9M28 191.11l.36.71.36.69.37.67.36.66.36.65.36.63.36.62.37-21.86.36.63.36.62.36.6.37.6.36.58.36.57.36.56.36.55.37.54.36.53.36.52.36.52.36.5.37.5.36.49.36.48.36.47.36.47.37.46.36.45.36.44.36.44.36.43.37.43.36.42.36.41.36.41.37.4.36.4.36.39.36.39.36.38.37.37.36.38.36.36.36.37.36.35.37.36.36.34.36.35.36-21.08.36.35.37.35.36.35.36.34.36.34.37.34.36.33.36.33.36.32.36.32.37.32.36.31.36.32.36.3.36.31.37.3.36.3.36.29.36.3.36.28.37.29.36.29.36.28.36.27.37.28.36.27.36.27.36.27.36.27.37.26.36.26.36.26.36.26.36.25.37.25.36.25.36.25.36.24.36.25.37.24.36.24.36.24.36.23.36.23.37.23.36.24.36.22.36.23.37.22.36.23.36.22.36.22.36.21.37.22.36.21.36.21.36.22.36.2.37.21.36.21.36.2.36.2.36.21.37.2.36.19.36.2.36.2.37.19.36.2.36.19.36.19.36.19.37.19.36.18.36.19.36.18.36.19.37.18.36.18.36.18.36.18.36.17.37.18.36.18.36.17.36.17.36.17.37.17.36.17.36.17.36.17.37.16.36.17.36.16.36.17.36.16.37.16.36.16.36.16.36.16.36.16.37.15.36.16.36.15.36.16.36.15.37.15.36.15.36.15.36.15.37.15.36.15.36.15.36.14.36.15.37.14.36.15.36.14.36.15.36.14.37.14.36-19.89.36.15.36.15.36.14.37.14.36.15.36.14.36.14.36.15.37.14.36.14.36.14.36.13.37.14.36.14.36.14.36.14.36.13.37.14.36.13.36.13.36.13.36.14.37.13.36.13.36.13.36.13.36.13.37.13.36.13.36.12.36.13.37.13.36.12.36.13.36.12.36.12.37.13.36.12.36.12.36.12.36.13.37.12.36.12.36.11.36.13.36.11.37.12.36.12.36.11.36.12.37.12.36.11.36.12.36.11.36.12.37.11.36.11.36.12.36.11.36.11.37.11.36.11.36.11.36.11.36.11.37.11.36.11.36.11.36.1.36.11.37.11.36.1.36.11.36.11.37.1.36.11.36.1.36.1.36.11.37.1.36.1.36.11.36.1.36.1.37.1.36.1.36.1.36.1.36.1.37.1.36.1.36.1.36.1.37.09.36.1.36.1.36-19.36.36.1.37.11.36.1.36.1.36.1.36.1.37.1.36.09.36.1.36.1.36.1.37.1.36.09.36.1.36.09.36.1.37.1.36.09.36.1.36.09.37.1.36.09.36.09.36.1.36.09.37.09.36.09.36.1.36.09.36.09.37.09.36.09.36.09.36.09.36.09.37.09.36.09.36.09.36.09.37.09.36.09.36.09.36.08.36.09.37.09.36.08.36.09.36.09.36.08.37.09.36.08.36.09.36.08.36.09.37.09.36.08.36.08.36.08.36.09.37.08.36.09.36.08.36.08.37.08.36.08.36.09.36.08.36.08.37.08.36.08.36.08.36.08.36.08.37.08.36.08.36.08.36.08.36.08.37.07.36.08.36.08.36.08.37.08.36.07.36.08.36.08.36.08.37.07.36.08.36.07.36.08.36.08.37.07.36.08.36.07.36.08.36.07.37.07.36.08.36.07.36.08.37.07.36.07.36.08.36.07.36.07.37.08.36.07.36.07.36.07.36.07.37.07.36.08.36.07.36.07.36.07.37.07.36.07.36.07.36.07.36.07.37.07.36.07.36.07.36.07.37.07.36.07.36.07.36.07.36.06.37.07.36.07.36.07.36.06.36.07.37.07.36.07.36.06.36.07.36.07.37.06.36.07.36.06.36.07.37.07.36.06.36.07.36.07.36.06.37.06.36.07.36.06.36.07.36.06.37.07.36.06.36.06.36.07.36.06.37.06.36.07.36.06.36.06.36.07.37.06.36.06.36.06.36.07.37.06.36.06.36.06.36.06.36.06.37.07.36.06.36.06.36.06.36.06.37.06.36.06.36.06.36.06.36.06.37.06.36.06.36.06.36.06.37.06.36.06.36.06.36.06.36.05.37.07.36.05.36.06.36.06.36.06.37.06.36.05.36.06.36.06.36.06.37.05.36.06.36.06.36.06.37.05.36.06.36.06.36.05.36.06.37.06.36.05.36.06.36.05.36.06.37.05.36.06.36.05.36.06.36.05.37.06.36.05.36.06.36.05.36.06.37.06.36.05.36.05.36.06.37.05.36.06.36.05.36.05.36.06.37.05.36.05.36.06.36.05.36.05.37.06.36.05.36.05.36.06.36.05.37.05.36.05.36.05.36.05.37.06.36.05.36.05.36.05.36.05.37.05.36.06.36.05.36.05.36.05.37.05.36.05.36.05.36.05.36.05.37.05.36.06.36.05.36.05.36.05.37.05.36.04.36.05.36.05.37.05.36.05.36.05.36.05.36.05.37.05.36.05.36.05.36.05.36.04.37.05.36.05.36.05.36.05.36.05.37.05.36.04.36.05.36.05.37.04.36.05.36.05.36.05.36.05.37.04.36.05.36.05.36.05.36.04.37.05.36.05.36.04.36.05.36.05.37.04.36.05.36.04.36.05.36.05.37.04.36-18.4.36.05.36.04.37.05.36.05.36.05.36.05.36.04.37.05.36.05.36.04.36.05.36.05.37.05.36.04.36.05.36.05.36.04.37.05.36.05.36.04.36.05.37.05.36.04.36.05.36.04.36.05.37.05.36.04.36.05.36.04.36.05.37.04.36.05.36.04.36.05.36.05.37.04.36.04.36.05.36.04.37.05.36.05.36.04.36.04.36.05.37.04.36.05.36.04.36.05.36.04.37.04.36.05.36.04.36.05.36.04.37.04.36.05.36.04.36.04.36.05.37.04.36.04.36.05.36.04.37.04.36.04.36.05.36.04.36.04.37.05.36.04.36.04.36.04.36.05.37.04.36.04.36.04.36.04.36.05.37.04.36.04.36.04.36.04.37.05.36.04.36.04.36.04.36.04.37.04.36.04.36.05.36.04.36.04.37.04.36.04.36.04.36.04.36.04.37.04.36.04.36.05.36.04.36.03.37.05.36.04.36.04.36.04.37.04.36.04.36.04.36.04.36.04.37.04.36.04.36.04.36.04.36.04.37.04.36.03.36.04.36.04.36.04.37.04.36.04.36.04.36.04.37.04.36.04.36.04.36.03.36.04.37.04.36.04.36.04.36.04.36.04.37.03.36.04.36.04.36.04.36.04.37.04.36.04.36.03.36.04.36.04.37.03.36.04.36.04.36.04.37.04.36.03.36.04.36.04.36.04.37.03.36.04.36.04.36.04.36.03.37.04.36.04.36.04.36.03.36.04.37.04.36.03.36.04.36.04.37.03.36.04.36.03.36.04.36.04.37.03.36.04.36.04.36.03.36.04.37.03.36.04.36.04.36.03.36.04.37.04.36.03.36.04.36.03.37.04.36.03.36.04.36.03.36.04.37.04.36.03.36.04.36.03.36.03.37.04.36.04.36.03.36.04.36.03.37.03.36.04.36.04.36.03.36.04.37.03.36.03.36.04.36.03.37.04.36.03.36.04.36.03.36.04.37.03.36.03.36.04.36.03.36.04.37.03.36.03.36.04.36.03.36.04.37.03.36.03.36.04.36.03.37.03.36.04.36.03.36.03.36.04.37.03.36.03.36.04.36.03.36.03.37.04.36.03.36.03.36.04.36.03.37.03.36.03.36.04.36.03.36.03.37.04.36.03.36.03.36.03.37.04.36.03.36.03.36.04.36.03.37.03.36.03.36.03.36.04.36.03.37.03.36.03.36.03.36.04.36.03.37.03.36.03.36.03.36.04.37.03.36.03.36.03.36.03.36.04.37.02.36.04.36.03.36.03.36.03.37.03.36.04.36.03.36.03.36.03.37.03.36.03.36.03.36.03.36.04.37.02.36.04.36.03.36.03.37.03.36.03.36.03.36.03.36.03.37.03.36.03.36.04.36.02.36.04.37.02.36.04.36.02.36.04.36.03.37.03.36.03.36.03.36.03.37.03.36.03.36.03.36.03.36.03.37.03.36.03.36.03.36.03.36.03.37.03.36.03.36.03.36.03.36.03.37.03.36.02.36.04.36.03.37.02.36.03.36.03.36.03.36.03.37.03.36.03.36.03.36.03.36.03.37.03.36.03.36.03.36.02.36.03.37.03.36.03.36.03.36.03.36.03.37.03.36.02.36.03.36.03.37.03.36.03.36.03.36.03.36.02.37.03.36.03.36.03"/><use xlink:href="#d" color="#29C3F6" transform="matrix(3.75 0 0 3.75 67.83 187.56)"/><use xlink:href="#d" color="#29C3F6" transform="matrix(3.75 0 0 3.75 95.45 22.51)"/></g><text stroke-linecap="round" stroke-linejoin="round" color="#000" font-family="KaTeX_Main" font-size="8" transform="translate(241.1 10.11)"><tspan>AVLWeakBottomUp</tspan></text><g fill="none" stroke="currentColor" stroke-linecap="round" stroke-linejoin="round" color="#000"><path stroke="#3B75EA" d="M205.6 7.51h29.9M28 191.11l.36.71.36.69.37.67.36.66.36.65.36.63.36.62.37-21.86.36.63.36.62.36.6.37.6.36.58.36.57.36.56.36.55.37.54.36.53.36.52.36.52.36.5.37.5.36.49.36.48.36.47.36.47.37.46.36.45.36.44.36.44.36.43.37.43.36.42.36.41.36.41.37.4.36.4.36.39.36.39.36.38.37.37.36.38.36.36.36.37.36.35.37.36.36.34.36.35.36-21.08.36.35.37.35.36.35.36.34.36.34.37.34.36.33.36.33.36.32.36.32.37.32.36.31.36.32.36.3.36.31.37.3.36.3.36.29.36.3.36.28.37.29.36.29.36.28.36.27.37.28.36.27.36.27.36.27.36.27.37.26.36.26.36.26.36.26.36.25.37.25.36.25.36.25.36.24.36.25.37.24.36.24.36.24.36.23.36.23.37.23.36.24.36.22.36.23.37.22.36.23.36.22.36.22.36.21.37.22.36.21.36.21.36.22.36.2.37.21.36.21.36.2.36.2.36.21.37.2.36.19.36.2.36.2.37.19.36.2.36.19.36.19.36.19.37.19.36.18.36.19.36.18.36.19.37.18.36.18.36.18.36.18.36.17.37.18.36.18.36.17.36.17.36.17.37.17.36.17.36.17.36.17.37.16.36.17.36.16.36.17.36.16.37.16.36.16.36.16.36.16.36.16.37.15.36.16.36.15.36.16.36.15.37.15.36.15.36.15.36.15.37.15.36.15.36.15.36.14.36.15.37.14.36.15.36.14.36.15.36.14.37.14.36-19.89.36.15.36.15.36.14.37.14.36.15.36.14.36.14.36.15.37.14.36.14.36.14.36.13.37.14.36.14.36.14.36.14.36.13.37.14.36.13.36.13.36.13.36.14.37.13.36.13.36.13.36.13.36.13.37.13.36.13.36.12.36.13.37.13.36.12.36.13.36.12.36.12.37.13.36.12.36.12.36.12.36.13.37.12.36.12.36.11.36.13.36.11.37.12.36.12.36.11.36.12.37.12.36.11.36.12.36.11.36.12.37.11.36.11.36.12.36.11.36.11.37.11.36.11.36.11.36.11.36.11.37.11.36.11.36.11.36.1.36.11.37.11.36.1.36.11.36.11.37.1.36.11.36.1.36.1.36.11.37.1.36.1.36.11.36.1.36.1.37.1.36.1.36.1.36.1.36.1.37.1.36.1.36.1.36.1.37.09.36.1.36.1.36-19.36.36.1.37.11.36.1.36.1.36.1.36.1.37.1.36.09.36.1.36.1.36.1.37.1.36.09.36.1.36.09.36.1.37.1.36.09.36.1.36.09.37.1.36.09.36.09.36.1.36.09.37.09.36.09.36.1.36.09.36.09.37.09.36.09.36.09.36.09.36.09.37.09.36.09.36.09.36.09.37.09.36.09.36.09.36.08.36.09.37.09.36.08.36.09.36.09.36.08.37.09.36.08.36.09.36.08.36.09.37.09.36.08.36.08.36.08.36.09.37.08.36.09.36.08.36.08.37.08.36.08.36.09.36.08.36.08.37.08.36.08.36.08.36.08.36.08.37.08.36.08.36.08.36.08.36.08.37.07.36.08.36.08.36.08.37.08.36.07.36.08.36.08.36.08.37.07.36.08.36.07.36.08.36.08.37.07.36.08.36.07.36.08.36.07.37.07.36.08.36.07.36.08.37.07.36.07.36.08.36.07.36.07.37.08.36.07.36.07.36.07.36.07.37.07.36.08.36.07.36.07.36.07.37.07.36.07.36.07.36.07.36.07.37.07.36.07.36.07.36.07.37.07.36.07.36.07.36.07.36.06.37.07.36.07.36.07.36.06.36.07.37.07.36.07.36.06.36.07.36.07.37.06.36.07.36.06.36.07.37.07.36.06.36.07.36.07.36.06.37.06.36.07.36.06.36.07.36.06.37.07.36.06.36.06.36.07.36.06.37.06.36.07.36.06.36.06.36.07.37.06.36.06.36.06.36.07.37.06.36.06.36.06.36.06.36.06.37.07.36.06.36.06.36.06.36.06.37.06.36.06.36.06.36.06.36.06.37.06.36.06.36.06.36.06.37.06.36.06.36.06.36.06.36.05.37.07.36.05.36.06.36.06.36.06.37.06.36.05.36.06.36.06.36.06.37.05.36.06.36.06.36.06.37.05.36.06.36.06.36.05.36.06.37.06.36.05.36.06.36.05.36.06.37.05.36.06.36.05.36.06.36.05.37.06.36.05.36.06.36.05.36.06.37.06.36.05.36.05.36.06.37.05.36.06.36.05.36.05.36.06.37.05.36.05.36.06.36.05.36.05.37.06.36.05.36.05.36.06.36.05.37.05.36.05.36.05.36.05.37.06.36.05.36.05.36.05.36.05.37.05.36.06.36.05.36.05.36.05.37.05.36.05.36.05.36.05.36.05.37.05.36.06.36.05.36.05.36.05.37.05.36.04.36.05.36.05.37.05.36.05.36.05.36.05.36.05.37.05.36.05.36.05.36.05.36.04.37.05.36.05.36.05.36.05.36.05.37.05.36.04.36.05.36.05.37.04.36.05.36.05.36.05.36.05.37.04.36.05.36.05.36.05.36.04.37.05.36.05.36.04.36.05.36.05.37.04.36.05.36.04.36.05.36.05.37.04.36-18.4.36.05.36.04.37.05.36.05.36.05.36.05.36.04.37.05.36.05.36.04.36.05.36.05.37.05.36.04.36.05.36.05.36.04.37.05.36.05.36.04.36.05.37.05.36.04.36.05.36.04.36.05.37.05.36.04.36.05.36.04.36.05.37.04.36.05.36.04.36.05.36.05.37.04.36.04.36.05.36.04.37.05.36.05.36.04.36.04.36.05.37.04.36.05.36.04.36.05.36.04.37.04.36.05.36.04.36.05.36.04.37.04.36.05.36.04.36.04.36.05.37.04.36.04.36.05.36.04.37.04.36.04.36.05.36.04.36.04.37.05.36.04.36.04.36.04.36.05.37.04.36.04.36.04.36.04.36.05.37.04.36.04.36.04.36.04.37.05.36.04.36.04.36.04.36.04.37.04.36.04.36.05.36.04.36.04.37.04.36.04.36.04.36.04.36.04.37.04.36.04.36.05.36.04.36.03.37.05.36.04.36.04.36.04.37.04.36.04.36.04.36.04.36.04.37.04.36.04.36.04.36.04.36.04.37.04.36.03.36.04.36.04.36.04.37.04.36.04.36.04.36.04.37.04.36.04.36.04.36.03.36.04.37.04.36.04.36.04.36.04.36.04.37.03.36.04.36.04.36.04.36.04.37.04.36.04.36.03.36.04.36.04.37.03.36.04.36.04.36.04.37.04.36.03.36.04.36.04.36.04.37.03.36.04.36.04.36.04.36.03.37.04.36.04.36.04.36.03.36.04.37.04.36.03.36.04.36.04.37.03.36.04.36.03.36.04.36.04.37.03.36.04.36.04.36.03.36.04.37.03.36.04.36.04.36.03.36.04.37.04.36.03.36.04.36.03.37.04.36.03.36.04.36.03.36.04.37.04.36.03.36.04.36.03.36.03.37.04.36.04.36.03.36.04.36.03.37.03.36.04.36.04.36.03.36.04.37.03.36.03.36.04.36.03.37.04.36.03.36.04.36.03.36.04.37.03.36.03.36.04.36.03.36.04.37.03.36.03.36.04.36.03.36.04.37.03.36.03.36.04.36.03.37.03.36.04.36.03.36.03.36.04.37.03.36.03.36.04.36.03.36.03.37.04.36.03.36.03.36.04.36.03.37.03.36.03.36.04.36.03.36.03.37.04.36.03.36.03.36.03.37.04.36.03.36.03.36.04.36.03.37.03.36.03.36.03.36.04.36.03.37.03.36.03.36.03.36.04.36.03.37.03.36.03.36.03.36.04.37.03.36.03.36.03.36.03.36.04.37.02.36.04.36.03.36.03.36.03.37.03.36.04.36.03.36.03.36.03.37.03.36.03.36.03.36.03.36.04.37.02.36.04.36.03.36.03.37.03.36.03.36.03.36.03.36.03.37.03.36.03.36.04.36.02.36.04.37.02.36.04.36.02.36.04.36.03.37.03.36.03.36.03.36.03.37.03.36.03.36.03.36.03.36.03.37.03.36.03.36.03.36.03.36.03.37.03.36.03.36.03.36.03.36.03.37.03.36.02.36.04.36.03.37.02.36.03.36.03.36.03.36.03.37.03.36.03.36.03.36.03.36.03.37.03.36.03.36.03.36.02.36.03.37.03.36.03.36.03.36.03.36.03.37.03.36.02.36.03.36.03.37.03.36.03.36.03.36.03.36.02.37.03.36.03.36.03"/><use xlink:href="#b" color="#3B75EA" transform="matrix(3.75 0 0 3.75 125.4 169.94)"/><use xlink:href="#b" color="#3B75EA" transform="matrix(3.75 0 0 3.75 220.55 7.51)"/></g><text stroke-linecap="round" stroke-linejoin="round" color="#000" font-family="KaTeX_Main" font-size="8" transform="translate(241.1 25.11)"><tspan>AVLWeakTopDown</tspan></text><g fill="none" stroke="currentColor" stroke-linecap="round" stroke-linejoin="round" color="#000"><path stroke="#00C853" stroke-dasharray="4.5,2.0,0.5,2.0,0.5,2.0" d="M205.6 22.51h29.9M28 122.78l.36-21.9.36-21.84.37 46.18.36.78.36-21.82.36 45.86.36.69.37-21.79.36-21.73.36.72.36 45.44.37 22.96.36-21.72.36-21.67.36 22.86.36-43.83.37 22.81.36.59.36.58.36-21.52.36.59.37-21.46.36 44.61.36-21.44.36 22.5.36.52.37.51.36-21.37.36.52.36.5.36.51.37.5.36.49.36-21.26.36.5.37 22.18.36.46.36.46.36.46.36-21.17.37 65.21.36.39.36-21.15.36.4.36-21.1.37 43.37.36-21.09.36 21.83.36-21.07.36.38.37.36.36.37.36.36.36.36.37-20.96.36 21.66.36.34.36.35.36.34.37-20.9.36.35.36.34.36.34.36.34.37.33.36-20.8.36.34.36 42.54.36-20.78.37.32.36-20.75.36 21.37.36 21.34.37.29.36.28.36-20.7.36.3.36-20.66.37 21.25.36.28.36.29.36.29.36-20.61.37.29.36 21.15.36-20.58.36 21.13.36.26.37-20.54.36-20.52.36 21.07.36 21.04.36.26.37-41.24.36 41.75.36-20.47.36-20.45.37 20.97.36.26.36-20.42.36 41.6.36-20.42.37.25.36.25.36-20.38.36 20.87.36-20.36.37.25.36-20.33.36 20.83.36 41.36.36.22.37.22.36.22.36.22.36-20.29.37.23.36.22.36.22.36.22.36 20.68.37-20.24.36.21.36.22.36.22.36-20.2.37.22.36.22.36.22.36.22.36-20.15.37.22.36 20.56.36.21.36.21.36-20.1.37 20.52.36-20.09.36 20.5.36.2.37.2.36.2.36.2.36 20.44.36-20.05.37.2.36.19.36.19.36.2.36-20 .37 20.38.36.18.36-19.97.36.19.36-19.95.37 80.76.36.17.36.16.36.17.37.16.36.17.36-19.93.36 20.25.36.17.37-19.92.36.17.36.17.36.16.36.16.37.17.36-19.87.36.17.36.17.36.17.37.16.36-19.82.36.17.36.17.36.17.37-19.79.36 60.04.36.15.36-19.78.37.15.36 20.09.36.15.36-19.76.36-19.75.37.16.36.16.36.16.36.16.36 20.03.37.15.36-19.71.36 20.01.36.15.36-19.69.37.15.36.16.36.15.36.15.37-19.65.36.15.36 79.34.36.13.36.13.37-19.65.36.14.36.13.36.14.36-19.62.37 19.88.36.14.36.13.36.13.36.13.37-19.59.36 19.85.36.12.36-19.56.37 19.82.36.13.36.13.36.12.36.12.37.13.36.12.36.13.36.12.36.12.37.13.36.12.36-19.51.36.13.36.13.37.12.36.13.36.12.36-19.47.36.13.37.13.36 39.28.36-19.45.36.12.37.12.36.12.36.12.36.12.36-19.42.37 39.19.36.11.36.11.36-19.4.36 19.63.37-19.4.36 19.62.36.11.36.11.36.11.37-19.37.36.11.36.11.36.11.37.12.36.11.36.11.36-19.34.36.12.37.11.36 19.55.36.11.36-19.31.36.11.37.11.36 19.53.36.11.36-19.3.36.11.37.11.36-19.27.36.11.36.11.36.12.37 58.23.36.1.36-19.27.36.11.37.1.36.1.36.11.36.1.36.1.37.1.36.1.36.1.36.1.36.1.37.1.36.1.36-19.2.36.11.36.1.37.1.36 19.39.36.09.36.1.37.1.36.09.36-19.16.36 19.36.36.09.37.1.36.09.36.1.36-19.15.36.1.37.1.36.1.36.1.36.1.36 38.52.37.09.36-19.12.36.09.36.09.36.09.37.1.36.08.36-19.08.36 19.27.37.08.36.1.36-19.08.36 19.25.36.09.37.09.36-19.06.36.09.36.09.36.1.37.08.36.1.36.09.36.09.36.09.37-19.03.36.1.36 19.2.36.09.37.09.36.08.36 19.19.36-19.01.36.09.37.08.36.09.36.09.36.09.36.08.37.09.36.08.36-18.97.36.09.36.09.37 19.14.36.08.36.08.36.09.37.08.36-18.94.36.08.36.09.36.09.37.08.36.09.36 19.09.36-18.92.36.09.37.08.36 19.08.36.08.36.08.36.09.37.08.36 19.05.36-18.89.36.08.36.08.37.08.36.08.36.08.36 19.03.37.08.36.07.36.08.36.07.36.08.37.07.36.07.36-18.85.36.08.36.08.37.07.36.08.36.07.36.08.36.08.37 18.98.36-18.83.36.07.36.08.37.08.36.07.36-18.81.36 18.96.36-18.8.37.07.36.08.36.08.36 37.81.36.07.37.07.36.07.36-18.79.36.08.36.07.37.07.36.07.36-18.76.36.07.36.07.37.08.36.07.36.08.36 18.9.37.07.36.06.36.08.36.07.36-18.74.37.07.36.08.36.07.36.07.36.08.37.07.36.07.36.07.36-18.71.36.08.37 18.85.36.07.36.07.36.07.37.07.36.07.36.07.36.07.36.07.37.07.36-18.68.36.07.36.08.36 18.81.37.07.36.07.36.06.36-18.66.36.08.37 18.79.36-18.65.36.07.36.07.37.07.36.07.36.07.36.07.36 37.47.37.06.36.07.36.06.36.07.36.06.37.06.36-18.62.36.07.36.07.36.06.37.07.36.07.36.06.36.06.36.07.37 18.72.36.06.36.07.36.06.37-18.59.36.07.36.06.36.07.36.06.37.06.36-18.56.36.06.36.07.36 18.69.37-18.56.36.06.36 18.69.36.06.36.06.37.06.36.06.36.06.36.07.37-18.54.36.07.36.06.36.06.36 18.66.37.06.36.06.36-18.52.36 18.64.36.06.37.06.36.06.36.06.36.06.36.06.37.06.36.06.36.06.36.06.36.06.37.06.36.06.36.06.36.06.37.06.36.06.36.06.36.05.36.06.37-18.47.36.06.36-18.46.36.06.36.06.37.07.36.06.36 18.57.36.06.36.06.37.06.36.06.36.06.36.06.37.06.36.06.36-18.43.36.06.36.06.37.06.36.06.36.06.36.06.36.06.37 37.01.36.06.36-18.42.36.06.36.06.37.05.36-18.4.36.06.36.06.36.06.37 55.41.36.06.36.05.36.05.37.05.36.06.36.05.36.05.36-18.38.37.05.36.06.36.05.36.05.36.06.37.05.36.05.36.06.36.05.36.05.37.06.36.05.36.05.36.05.37-18.35.36.06.36.05.36.06.36 18.44.37.06.36.05.36.05.36.05.36.05.37.06.36.05.36.05.36.05.36.05.37-18.32.36.05.36.06.36 18.42.37-18.32.36.06.36.05.36.05.36.05.37.06.36.05.36.05.36.05.36.06.37.05.36.05.36.05.36.05.36.06.37.05.36.05.36.05.36.05.36-18.27.37.05.36-18.27.36 55.01.36.05.37.05.36.05.36.05.36.05.36.05.37.05.36.05.36.04.36.05.36-18.25.37.05.36.05.36.05.36 18.34.36.05.37-18.24.36.05.36.05.36.05.37.05.36.05.36.05.36.05.36.04.37-18.22.36.05.36.05.36.05.36.05.37-18.21.36.06.36.05.36 54.82.36.04.37.05.36.04.36.05.36.05.36.04.37.05.36.05.36.04.36-18.19.37.05.36.05.36.04.36.05.36.04.37.05.36.05.36.05.36.04.36.05.37.05.36.04.36.05.36-18.16.36.04.37.05.36.05.36.05.36.04.37.05.36.05.36.05.36.05.36.04.37.05.36.05.36.05.36-18.14.36.05.37.05.36-18.14.36 18.23.36.05.36 18.23.37.04.36.05.36.04.36.05.36.05.37.05.36.04.36.05.36 36.37.37.04.36-18.11.36.04.36.04.36 18.2.37 18.19.36.04.36.04.36.04.36.05.37.04.36.03.36.05.36.04.36.04.37-18.1.36.05.36.04.36.04.37.04.36.04.36.04.36.04.36.05.37.04.36.04.36.04.36.04.36.04.37.04.36-18.07.36.05.36.04.36.04.37.04.36.05.36.04.36.04.37.04.36.04.36.05.36.04.36.04.37.04.36.04.36 36.21.36.04.36.04.37.04.36.04.36.04.36.04.36.04.37.03.36.04.36.04.36.03.36.04.37.04.36.04.36.04.36.03.37.04.36.04.36.04.36.04.36.03.37.04.36.04.36.04.36.03.36.04.37.04.36.03.36.04.36.04.36.03.37.04.36-18 .36.04.36 18.07.37.04.36.04.36-17.99.36 18.06.36.03.37.04.36.04.36.03.36-17.98.36.04.37.04.36.04.36.03.36.04.36.04.37.04.36.03.36.04.36.04.36.04.37.03.36.04.36.04.36-17.96.37 18.03.36.04.36-17.96.36 18.03.36.04.37.03.36.04.36.04.36.03.36.04.37.04.36.04.36.03.36.04.36-17.94.37.04.36.04.36.03.36 18.01.37-17.93.36 18 .36.04.36.03.36-17.92.37.04.36.04.36.03.36.04.36.04.37.03.36.04.36.04.36.04.36 35.92.37-17.91.36.04.36.03.36.04.36-17.9.37 17.97.36.03.36.04.36.03.37-17.89.36.03.36.04.36.04.36.03.37.04.36.03.36.04.36.04.36.03.37.04.36.04.36.03.36.04.36-17.88.37.04.36.03.36.04.36.04.37.04.36.03.36.04.36.04.36 53.73.37.03.36.04.36-17.86.36.03.36 17.92.37.04.36.03.36.03.36.04.36-17.86.37.04.36.03.36.03.36.04.37.03.36.03.36.04.36.03.36.03.37.03.36.04.36.03.36-17.83.36.03.37 17.9.36-17.83.36 17.9.36-17.83.36.04.37.03.36.03.36 17.89.36.04.36.03.37.03.36.03.36.04.36.03.37-17.82.36.04.36.03.36.04.36 17.87.37.03.36.04.36.03"/><use xlink:href="#e" color="#00C853" transform="matrix(3.75 0 0 3.75 182.98 126.04)"/><use xlink:href="#e" color="#00C853" transform="matrix(3.75 0 0 3.75 220.55 22.51)"/></g><path fill="none" d="M28 45.01V205M371.99 45.01H28" color="#000"/></svg>