<svg xmlns="http://www.w3.org/2000/svg" xmlns:xlink="http://www.w3.org/1999/xlink" viewBox="0 0 400 250"><path fill="none" d="M0 0h400v250H0z"/><defs><path id="c" stroke="currentColor" stroke-width=".267" d="M-1 0h2M0-1v2"/><path id="d" stroke="currentColor" stroke-width=".267" d="m-1-1 2 2m0-2-2 2"/><path id="b" stroke="currentColor" stroke-width=".267" d="M-1-1h2v2h-2z"/><path id="f" fill="currentColor" stroke="currentColor" stroke-width=".267" d="M-1-1h2v2h-2z"/><path id="a" stroke="currentColor" stroke-width=".267" d="m0-1.33-1.33 2h2.66z"/><use xlink:href="#b" id="e" stroke="currentColor" transform="rotate(45)"/></defs><path fill="none" stroke="#333" stroke-linecap="round" stroke-linejoin="round" stroke-width=".1" d="M46.1 205V45.01" class="gridline" color="#000"/><g fill="none" stroke-linecap="round" stroke-linejoin="round" stroke-width="0" color="#000"><path d="M46.1 205v-7.5m0-152.49v7.5"/><text fill="#000" font-family="KaTeX_Main" font-size="10" text-anchor="middle" transform="translate(46.1 215.75)"><tspan> 1</tspan></text></g><path fill="none" stroke="#333" stroke-linecap="round" stroke-linejoin="round" stroke-width=".1" d="M82.31 205V45.01" class="gridline" color="#000"/><g fill="none" stroke-linecap="round" stroke-linejoin="round" stroke-width="0" color="#000"><path d="M82.31 205v-7.5m0-152.49v7.5"/><text fill="#000" font-family="KaTeX_Main" font-size="10" text-anchor="middle" transform="translate(82.31 215.75)"><tspan> 2</tspan></text></g><path fill="none" stroke="#333" stroke-linecap="round" stroke-linejoin="round" stroke-width=".1" d="M118.52 205V45.01" class="gridline" color="#000"/><g fill="none" stroke-linecap="round" stroke-linejoin="round" stroke-width="0" color="#000"><path d="M118.52 205v-7.5m0-152.49v7.5"/><text fill="#000" font-family="KaTeX_Main" font-size="10" text-anchor="middle" transform="translate(118.52 215.75)"><tspan> 3</tspan></text></g><path fill="none" stroke="#333" stroke-linecap="round" stroke-linejoin="round" stroke-width=".1" d="M154.73 205V45.01" class="gridline" color="#000"/><g fill="none" stroke-linecap="round" stroke-linejoin="round" stroke-width="0" color="#000"><path d="M154.73 205v-7.5m0-152.49v7.5"/><text fill="#000" font-family="KaTeX_Main" font-size="10" text-anchor="middle" transform="translate(154.73 215.75)"><tspan> 4</tspan></text></g><path fill="none" stroke="#333" stroke-linecap="round" stroke-linejoin="round" stroke-width=".1" d="M190.94 205V45.01" class="gridline" color="#000"/><g fill="none" stroke-linecap="round" stroke-linejoin="round" stroke-width="0" color="#000"><path d="M190.94 205v-7.5m0-152.49v7.5"/><text fill="#000" font-family="KaTeX_Main" font-size="10" text-anchor="middle" transform="translate(190.94 215.75)"><tspan> 5</tspan></text></g><path fill="none" stroke="#333" stroke-linecap="round" stroke-linejoin="round" stroke-width=".1" d="M227.15 205V45.01" class="gridline" color="#000"/><g fill="none" stroke-linecap="round" stroke-linejoin="round" stroke-width="0" color="#000"><path d="M227.15 205v-7.5m0-152.49v7.5"/><text fill="#000" font-family="KaTeX_Main" font-size="10" text-anchor="middle" transform="translate(227.15 215.75)"><tspan> 6</tspan></text></g><path fill="none" stroke="#333" stroke-linecap="round" stroke-linejoin="round" stroke-width=".1" d="M263.36 205V45.01" class="gridline" color="#000"/><g fill="none" stroke-linecap="round" stroke-linejoin="round" stroke-width="0" color="#000"><path d="M263.36 205v-7.5m0-152.49v7.5"/><text fill="#000" font-family="KaTeX_Main" font-size="10" text-anchor="middle" transform="translate(263.36 215.75)"><tspan> 7</tspan></text></g><path fill="none" stroke="#333" stroke-linecap="round" stroke-linejoin="round" stroke-width=".1" d="M299.57 205V45.01" class="gridline" color="#000"/><g fill="none" stroke-linecap="round" stroke-linejoin="round" stroke-width="0" color="#000"><path d="M299.57 205v-7.5m0-152.49v7.5"/><text fill="#000" font-family="KaTeX_Main" font-size="10" text-anchor="middle" transform="translate(299.57 215.75)"><tspan> 8</tspan></text></g><path fill="none" stroke="#333" stroke-linecap="round" stroke-linejoin="round" stroke-width=".1" d="M335.78 205V45.01" class="gridline" color="#000"/><g fill="none" stroke-linecap="round" stroke-linejoin="round" stroke-width="0" color="#000"><path d="M335.78 205v-7.5m0-152.49v7.5"/><text fill="#000" font-family="KaTeX_Main" font-size="10" text-anchor="middle" transform="translate(335.78 215.75)"><tspan> 9</tspan></text></g><path fill="none" stroke="#333" stroke-linecap="round" stroke-linejoin="round" stroke-width=".1" d="M371.99 205V45.01" class="gridline" color="#000"/><g fill="none" stroke-linecap="round" stroke-linejoin="round" stroke-width="0" color="#000"><path d="M371.99 205v-7.5m0-152.49v7.5"/><text fill="#000" font-family="KaTeX_Main" font-size="10" text-anchor="middle" transform="translate(371.99 215.75)"><tspan> 10</tspan></text></g><g fill="none" stroke-linecap="round" stroke-linejoin="round" stroke-width="0" color="#000"><path d="M371.99 205h-7.5"/><text fill="#000" font-family="KaTeX_Main" font-size="10" transform="translate(378.99 208.25)"><tspan>0.00</tspan></text></g><g fill="none" stroke-linecap="round" stroke-linejoin="round" stroke-width="0" color="#000"><path d="M371.99 178.33h-7.5"/><text fill="#000" font-family="KaTeX_Main" font-size="10" transform="translate(378.99 181.58)"><tspan>0.50</tspan></text></g><g fill="none" stroke-linecap="round" stroke-linejoin="round" stroke-width="0" color="#000"><path d="M371.99 151.67h-7.5"/><text fill="#000" font-family="KaTeX_Main" font-size="10" transform="translate(378.99 154.92)"><tspan>1.00</tspan></text></g><g fill="none" stroke-linecap="round" stroke-linejoin="round" stroke-width="0" color="#000"><path d="M371.99 125h-7.5"/><text fill="#000" font-family="KaTeX_Main" font-size="10" transform="translate(378.99 128.25)"><tspan>1.50</tspan></text></g><g fill="none" stroke-linecap="round" stroke-linejoin="round" stroke-width="0" color="#000"><path d="M371.99 98.34h-7.5"/><text fill="#000" font-family="KaTeX_Main" font-size="10" transform="translate(378.99 101.59)"><tspan>2.00</tspan></text></g><g fill="none" stroke-linecap="round" stroke-linejoin="round" stroke-width="0" color="#000"><path d="M371.99 71.67h-7.5"/><text fill="#000" font-family="KaTeX_Main" font-size="10" transform="translate(378.99 74.92)"><tspan>2.50</tspan></text></g><g fill="none" stroke-linecap="round" stroke-linejoin="round" stroke-width="0" color="#000"><path d="M371.99 45.01h-7.5"/><text fill="#000" font-family="KaTeX_Main" font-size="10" transform="translate(378.99 48.26)"><tspan>3.00</tspan></text></g><path fill="none" d="M28 45.01V205M371.99 45.01H28" color="#000"/><text stroke-linecap="round" stroke-linejoin="round" stroke-width="0" color="#000" font-family="KaTeX_Main" font-size="10" text-anchor="middle" transform="rotate(-90 68.255 56.755)"><tspan font-weight="bold">Duration </tspan><tspan> in milliseconds</tspan></text><text stroke-linecap="round" stroke-linejoin="round" stroke-width="0" color="#000" font-family="KaTeX_Main" font-size="10" text-anchor="middle" transform="translate(199.99 238.25)"><tspan>Operations / 10</tspan><tspan dy="-5" font-size="8">5</tspan></text><text stroke-linecap="round" stroke-linejoin="round" color="#000" font-family="KaTeX_Main" font-size="8" transform="translate(110.4 10.11)"><tspan>AVLBottomUp</tspan></text><g fill="none" stroke="currentColor" stroke-linecap="round" stroke-linejoin="round" color="#000"><path stroke="#000" d="M74.9 7.51h29.9M28 151.35l.36 5.17.36 9.75.37-5.08.36 5.08.36-10.03.36 10.07.36-10.12.37 9.92.36.04.36-15.28.36 4.82.37 9.9.36-4.89.36 5.05.36-10.3.36 10.11.37-10.13.36 10.17.36-5.02.36-5.89.36.4.37 9.96.36-4.95.36 4.79.36-4.99.36-.21.37-5.25.36 10.23.36-10.02.36 4.48.36-5.16.37 10.02.36-4.95.36 5.07.36-9.96.37 4.6.36.03.36 4.98.36-14.99.36 9.71.37-.13.36 5.11.36-4.94.36.16.36-.63.37.13.36-.29.36.59.36-5.47.36 5.06.37 8.89.36 5.29.36-4.78.36.02.37 4.93.36-10.38.36 5.31.36 5.05.36-5.36.37.58.36-5.32.36 5.43.36 4.42.36-4.96.37 5.01.36-4.67.36-5.35.36 9.59.36-4.52.37 5.06.36-9.17.36-.75.36 10.43.37-5.38.36 5.65.36-4.91.36.69.36-.97.37.28.36-.03.36 4.8.36-4.68.36.49.37-4.95.36 9.54.36-5.17.36 5.25.36-5.07.37.28.36.08.36-.03.36 5.27.36-5 .37.01.36-4.34.36 4.27.36.14.37 5.05.36-5.06.36 5.03.36-23.81.36 4.31.37 1.8.36 1.07.36.91.36-4.65.36 4.84.37.54.36 5.65.36-4.96.36.29.36-.21.37.09.36.38h.36l.36-5.03.37 4.78.36.17.36 5.14.36-5.23.36.27.37-.83.36.38.36-.05.36 5.03.36-15.23.37 4.56.36 10.24.36-4.78.36 4.59.36-4.9.37-.39.36.18.36-.05.36-.33.36-4.76.37-.58.36 10.26.36-5.05.36 5.07.37-10.25.36 9.99.36-10.3.36 10.33.36-5.05.37-10.23.36 9.71.36 5.35.36-5.33.36.31.37 8.47.36 5.36.36-10.28.36 10.38.36-5.2.37-.02.36-9.84.36 15.52.36-.14.37-5.3.36 5.3.36-4.7.36-.26.36-.22.37-.35.36 5.85.36-5.35.36-10.08.36 9.77.37 5 .36-4.9.36 5.25.36-4.78.36-.53.37 5.1.36-9.65.36 10.05.36-4.88.36-4.66.37-.09.36 10.39.36-.6.36-4.79.37.3.36 4.75.36-5.33.36.16.36.43.37 5.09.36-4.92.36-5.05.36.05.36 10.01.37.3.36-5.21.36.45.36 4.84.36-5.18.37.08.36.33.36-14.42.36-5.03.37 1.91.36 5.59.36 1.18.36 5.57.36-4.56.37 5.18.36-4.86.36.16.36-.18.36-4.74.37.44.36 4.67.36.24.36 4.95.36-4.9.37 4.8.36-4.79.36-.24.36.04.37-5.17.36.24.36 4.49.36-.02.36 4.96.37-4.74.36-.38.36 5.12.36-5.03.36-.17.37-5.32.36-.06.36 4.71.36.03.36 5.1.37-5.02.36-.26.36.07.36.04.36 4.88.37-10.46.36-4.76.36 14.5.36-4.65.37.24.36 4.89.36-5.24.36-.11.36-.02.37 13.98.36-9.88.36-5.25.36 15.39.36-5.12.37 5.18.36-4.68.36-.71.36 5.63.36-5.01.37.21.36 5.19.36-5.9.36-5 .37.6.36 9.91.36-5.62.36.85.36 4.9.37-5.22.36 5.36.36-10.45.36 10.32.36.06.37-10.3.36.16.36 4.65.36.12.36 5.6.37-4.97.36 5.12.36-5.2.36-.42.36.14.37 5.63.36-5.17.36.13.36-10 .37 14.79.36-4.83.36 5.35.36-4.48.36-.29.37 4.59.36-5.03.36.22.36 5.51.36-5.23.37-.18.36-9.95.36-3.85.36.53.36 1.78.37.68.36 5.77.36-4.82.36.23.37 5.46.36-4.82.36-14.6.36 19.46.36-4.51.37.08.36 5.1.36-5.2.36.2.36.16.37 5.02.36-5.1.36-10.13.36 4.86.36 9.89.37-5.03.36-.12.36 4.98.36-5.2.36-.14.37 5.1.36-10.04.36-5.34.36 10.06.37 4.76.36-4.89.36.1.36 4.88.36-10.43.37 10.38.36.2.36-10.47.36-5.54.36 10.3.37.18.36 4.86.36-5.25.36.19.36-.43.37 5.25.36-10.11.36.01.36 4.71.37 8.44.36.74.36 5.44.36-5.17.36 4.69.37-5.16.36.37.36 5.06.36-4.98.36-5.26.37-.09.36 5.25.36 5.22.36-5.09.36-.08.37 5.09.36-4.69.36 4.94.36-5.13.37.04.36-.09.36-4.42.36-.28.36 10.06.37.13.36-9.88.36 10.45.36-.31.36-5.03.37-.02.36 4.63.36-4.65.36-.14.36-4.86.37.1.36 10.08.36-9.46.36 9.77.36.04.37-4.94.36 5.28.36-5.24.36 5.23.37-.05.36-10.61.36.28.36-.04.36 10.35.37-9.81.36 9.93.36-19.29.36.42.36 6.47.37-4.23.36 6.17.36-9.93.36.66.36.02.37 10.51.36-9.83.36 10.01.36-5.12.37 5.13.36-4.82.36 4.9.36-10.06.36-.02.37-.15.36 10.07.36-9.82.36 9.75.36-5.1.37 5 .36-4.89.36-.1.36-.35.36-5.05.37-.58.36 5.54.36-.58.36 5.38.36-5.3.37-.01.36 4.94.36-5.42.36-9.81.37 10.17.36-.45.36-4.67.36 9.84.36-5.19.37 4.86.36-4.92.36 5.25.36-5.48.36-10.42.37 5.33.36 5.36.36-.74.36 5.63.36 3.75.37-.38.36 5.15.36.35.36-4.93.37.38.36-4.95.36-.1.36 4.98.36.26.37 5.16.36-5.08.36 5.44.36-5.31.36 4.87.37-5.08.36 4.71.36-14.96.36 10.1.36.13.37.4.36-.14.36 4.9.36-4.97.37.56.36 5.25.36-.45.36-5.52.36 5.41.37-15.11.36 10.62.36-5.48.36 10.03.36-5.51.37.51.36 5.02.36-5.04.36 5.03.36.12.37-5.07.36-4.97.36 5.17.36-5.33.36 5.64h.37l.36 5.32.36-5.46.36 5.69.37-5.46.36 5.35.36-19.29.36.29.36-8.91.37 11.15.36-4.2.36 5.4.36 5.72.36-4.79.37.35.36 5.11.36.13.36-4.88.36-4.7.37-.41.36.12.36 4.94.36 4.9.37-5.11.36-.18.36 5.29.36.18.36-10.18.37-.34.36 4.85.36-4.83.36 4.42.36 5.16.37-5.04h.36l.36 4.89.36-.08.36-10.08.37-.11.36 4.49.36-5.04.36 5.15.36 4.93.37-4.96.36-.07.36 5.09.36-5.33.37.18.36-5.2.36-5.15.36 15.15.36-5.21h.37l.36.02.36 5.09.36.15.36-.78.37 9.92.36-10.28.36.53.36 5.24.36.13.37 4.93.36-5.13.36-.3.36 5.16.37-.12.36-4.92.36-.41.36 4.61.36-14.98.37 10.34.36.28.36-.31.36 5.54.36-10.49.37 10.71.36-.13.36-.09.36-9.84.36 10.17.37-9.91.36 4.14.36-4.34.36 4.98.36 5.04.37-4.87.36.19.36 4.83.36.21.37-4.78.36-.08.36-.03.36.01.36-4.75.37 4.96.36-.68.36 5.44.36-5.1.36.32.37 5.27.36.04.36-4.93.36.24.36-.23.37-.47.36-24.14.36 5.47.36 11.91.37-4.14.36.39.36 5.94.36.38.36-9.69.37 10 .36-4.92.36-10.36.36 5.51.36 10.26.37.14.36-10.22.36 10.19.36.05.36-9.98.37 9.8.36-4.95.36-10.37.36 4.97.37 10.17.36-4.84.36-.51.36 5.14.36.04.37-10.12.36 9.75.36-15.14.36 9.4.36-4.91.37 10.47.36-5.66.36.05.36 5.32.36.01.37-10.28.36 4.58.36-10.41.36 10.24.36-.08.37 5.12.36-5.08.36-.05.36 5.33.37-9.98.36 9.74.36-5.26.36-10.44.36 13.96.37 10.21.36.5.36-4.85.36.37.36 5.13.37-.48.36-10.19.36 10.47.36-5 .36-10.22.37 5.03.36 10.14.36.39.36-5.18.37 4.86.36-4.99.36 5 .36.56.36-10.23.37 4.88.36-.15.36-5.06.36.15.36 9.83.37-4.79.36 4.89.36-5.14.36 5.35h.36l.37-5.34.36.72.36.23h.36l.36-15.16.37 20.36.36-.55.36-5.19.36 5.38.37-5.17.36 5.06.36.6.36-9.88.36 9.82.37-9.78.36 10.18.36-20.4.36 20.31.36.19.37-5.17.36-14.32.36.2.36 6.58.36-3.87.37.96.36-4.59.36 5.09.36-9.91.37 15.36.36-4.63.36 5.07.36-4.96.36 5.24.37-4.96.36.1.36-5.12.36 4.64.36-9.87.37 14.96.36-4.58.36 4.75.36-5.15.36 5.03.37-9.92.36 9.73.36-10.02.36 4.51.36-10.33.37 15.39.36-5.08.36 5.14.36-5.31.37 5.14.36-10.21.36 9.9.36-10.12.36-.47.37.37.36 10.07.36-5.28.36 4.92.36-5.29.37 5.26.36-10.07.36-.17.36 9.78.36-15.4.37 10.24.36 5.15.36-5.01.36 13.7.37-5.06.36 5.88.36-10.17.36-.24.36 9.76.37.69.36-20.3.36 19.76.36.32.36-5.42.37 5.24.36-4.45.36 5.23.36-5.15.36-5.6.37 5.49.36 5.1.36-4.99.36-10.23.37 14.38.36-4.35.36 5.07.36.2.36-5.04.37.25.36.1.36-5.6.36 10.61.36-.24.37-15.61.36 10.81.36 5.16.36-5.15.36 4.81.37-4.85.36 5.24.36-4.84.36-5.57.36 5.43.37 4.86.36.41.36-20.28.36 20.42.37.48.36-5.54.36 5.25.36-4.88.36 4.52.37-4.59.36-24.38.36 9.97.36 7.4.36-14.28.37 10.05.36 1 .36 5.48.36-4.95.36 5.01.37-4.63.36-5.09.36 5.04.36 5.59.37-4.85.36-10.58.36 15.39.36-4.88.36.04.37 4.92.36-5.19.36-5.12.36 4.87.36 5.31.37-4.9.36-11.72.36 16.34.36-5.08.36-.11.37.07.36 4.74.36-10.42.36 5.16.36 5.38.37-10.4.36-.63.36 5.49.36 4.87.37-5.31.36.08.36 4.92.36-15.52.36 15.52.37-.15.36-15.37.36 9.68.36.53.36-.24.37 4.92.36-4.73.36-.04.36 3.74.36 10.14.37.09.36-15.23.36 10.53.36 4.91.37-5.06.36-.11.36 5.89.36-4.85.36 4.05.37-15.43.36 15.93.36-.04.36-.33.36-20 .37 20.02.36-4.84.36-.36.36 5.54.36-.53.37-4.67.36 5.27.36-15.53.36 15.86.36.25.37-.39.36-20.97.36 20.77.36-5.33.37.44.36 5.05.36-5.05.36 5.23.36-9.83.37 4.64.36 5.25.36.13.36-10.19.36-.08.37 10.38.36-10.72.36 10.32.36-4.64.36 5.2.37.28.36-15.33.36 15.38.36.29.37.14.36-30.01.36 4.57.36 7.3.36 1.09.37.92.36 5.4.36.4.36-15.36.36 15.53.37.46.36-5.34.36-10.14.36 10.76.36-.17.37.59.36 4.62.36.17.36-15.36.37 15.17.36.19.36-5.43.36-21.32.36 10.34.37-.08.36.6.36 4.82.36-1.02.36-18.22.37 12.65.36 4.14.36-76.47.36 73.72.36-.01.37 10.34.36-4.65.36 4.96.36-.09.36-14.25.37 15.43.36-.1.36-12.55.36 4.91.37 4.93.36 5.21.36-4.91.36 5.13.36-15.47.37 15.1.36.18.36-10.16"/><use xlink:href="#c" transform="matrix(3.75 0 0 3.75 354.25 144.35)"/><use xlink:href="#c" transform="matrix(3.75 0 0 3.75 89.85 7.51)"/></g><text stroke-linecap="round" stroke-linejoin="round" color="#000" font-family="KaTeX_Main" font-size="8" transform="translate(110.4 25.11)"><tspan>AVLTopDown</tspan></text><g fill="none" stroke="currentColor" stroke-linecap="round" stroke-linejoin="round" color="#000"><path stroke="#29C3F6" stroke-dasharray="1.0,2.0" d="M74.9 22.51h29.9M28 162.15l.36-.05.36 4.99.37-15.15.36 14.66.36-9.88.36 9.9.36-4.92.37 4.89.36-10.1.36 5.21.36-.36.37 4.95.36-15.23.36 14.99.36-9.83.36 9.85.37-4.74.36 4.8.36-10.06.36 4.94.36-.25.37 4.95.36-15.04.36 14.72.36-9.86.36 9.76.37-4.94.36-.06.36-.17.36-.05.36-.17.37 4.94.36-15.29.36 10.1.36-.17.37.14.36 4.71.36-4.86.36-4.99.36 4.65.37 5 .36-9.98.36 4.95.36.05.36-.18.37.09.36 4.81.36-10.02.36 4.62.36-.06.37 12.93.36-9.34.36 5.41.36-.31.37.11.36 4.58.36-4.82.36.31.36 4.36.37-9.12.36 4.64.36 5.2.36-5.39.36.08.37-5.21.36 5.3.36 4.8.36-5.12.36 5.1.37-4.85.36-4.13.36 9.09.36-4.36.37 4.68.36-9.57.36.34.36 10.17.36-5.4.37 5.03.36-4.86.36 4.57.36-9.28.36 9.89.37-4.54.36-.59.36 4.95.36-9.89.36.17.37 9.77.36-4.33.36-.17.36 4.93.36.44.37-10.15.36 5.52.36 4.34.36-4.74.37-.14.36 5.15.36-14.79.36-3.39.36.13.37 1.53.36 5.82.36-9.23.36 10.24.36-9.61.37 10.14.36-4.74.36-9.59.36 10.02.36 4.9.37-4.72.36 5 .36-9.52.36 4.67.37.03.36 4.95.36-5.21.36-9.39.36 9.7.37 4.74.36-4.78.36 4.7.36-9.93.36 4.73.37-.07.36 4.8.36-4.88.36-9.69.36 9.18.37 5.27.36-5 .36 4.82.36-9.85.36 4.87.37-.19.36 4.95.36-10.13.36-4.88.37 14.52.36-4.68.36 4.57.36-9.61.36 9.6.37-9.66.36 9.4.36.12.36-15 .36 4.78.37 17.99.36-4.8.36 4.9.36-4.75.36.07.37 4.92.36-9.68.36 10.01.36-5.12.37-4.82.36.12.36 9.96.36-.11.36-5.09.37 4.66.36-4.26.36-.06.36-.42.36-.07.37 4.71.36-4.88.36-9.24.36 9.75.36 4.42.37-4.62.36 5.08.36-4.8.36.21.36 5.11.37-9.36.36 9.79.36-5.77.36-4.28.37 5.05.36-.14.36 4.62.36-4.83.36.33.37 4.78.36-4.43.36-.13.36.11.36 4.91.37-4.82.36-4.84.36 5.09.36.03.36-.1.37 4.81.36.47.36-22.77.36 4.95.37 1.12.36.96.36.62.36-4.33.36.39.37 9.97.36-4.62.36 5.08.36-4.65.36.28.37-.01.36-.18.36-4.48.36 9.44.36-9.51.37 4.83.36-.21.36 4.93.36-4.77.37-.34h.36l.36-.07.36-.09.36-.11.37-9.76.36 14.21.36-4.48.36.1.36 4.46.37-4.91.36-.02.36-.14.36-.2.36-.33.37-9.74.36 13.63.36-3.71.36-.01.36-.13.37 4.74.36-5.06.36.2.36-5.15.37.16.36 4.26.36.31.36 4.93.36-5.11.37 8.15.36 5.1.36-5.09.36.17.36 4.68.37-9.52.36-4.72.36 14.42.36-4.7.36 5.12.37-4.55.36.19.36 3.87.36-4.69.37.33.36 4.81.36-5.4.36-4.61.36.29.37 9.61.36-4.57.36-.11.36 4.82.36-4.8.37-.21.36.05.36 4.6.36.37.36-9.51.37.23.36 4.74.36.04.36 4.58.36-4.79.37 5.26.36-4.79.36-.06.36.31.37 4.46.36.36.36-9.61.36-4.44.36 14.41.37-5.06.36 4.77.36-4.64.36.43.36 4.51.37-4.91.36.01.36-12.61.36.36.36-3.88.37.95.36 5.66.36 5.51.36-4.94.37.42.36.37.36.13.36 4.83.36-4.43.37-.42.36-9.63.36 9.8.36.3.36 4.74.37-4.79.36.03.36-.19.36 4.92.36-4.86.37-.65.36-9.59.36 9.86.36-.17.36 4.82.37-5.01.36.2.36-.19.36 4.82.37-10.19.36.05.36 4.87.36.03.36.09.37-.09.36 4.57.36-4.95.36-.01.36 4.94.37-10.1.36-4.7.36 9.38.36 4.92.36-4.91.37.14.36 4.89.36-9.55.36 9.08.37 7.91.36-9.86.36.89.36 4.8.36-.27.37-.34.36.64.36 4.79.36.11.36-4.97.37-.34.36 5.11.36-9.8.36 5.17.36-4.88.37 4.89.36 5 .36-9.61.36 9.74.37-.27.36-4.89.36 5.44.36-5.05.36-.07.37-.19.36-4.26.36.27.36 9.43.36.07.37-9.66.36 9.11.36.5.36-4.83.36-.21.37 5.22.36-.04.36-9.61.36-.01.36.26.37 9.73.36-4.48.36-.27.36 4.99.37-4.81.36 4.3.36-.04.36-4.41.36 4.94.37-9.76.36.41.36-18.3.36 15.15.36-8.28.37 10.68.36.83.36-4.66.36.27.36 5.15.37-9.47.36.21.36-.24.36 9.77.37-9.34.36 9.59.36.09.36-4.82.36.1.37 4.74.36-9.82.36-.04.36-.17.36 9.7.37-9.79.36 9.45.36-4.51.36 4.75.36-4.95.37 4.74.36-10.15.36-.17.36-.07.36 9.69.37-9.78.36 9.73.36-4.94.36.01.37 4.83.36-4.86.36-4.73.36 4.23.36-4.62.37 4.8.36-.35.36.01.36 4.96.36-4.95.37 5.07.36-4.88.36-9.92.36 5.11.36 17.57.37-5.15.36.13.36 5.03.36-4.77.37.21.36 5.1h.36l.36-5.21.36.6.37-4.96.36.06.36 5.15.36-.08.36 4.49.37-4.91.36 4.63.36-5.07.36 5.25.36-4.7.37 4.89.36-14.3.36 9.66.36-.09.37.55.36.27.36 4.5.36-5.23.36.16.37 4.74.36.63.36-5.53.36 5.11.36-14.94.37 9.98.36.14.36.02.36-.21.36.22.37 4.76.36-5.07.36 5.41.36-.09.36-4.59.37-4.87.36 5.22.36-.23.36-4.41.37 4.75.36 4.84.36-23.2.36 5.27.36 6.28.37 1.3.36.67.36-9.75.36.8.36.07.37 5.32.36.16.36.1.36 4.83.36-4.89.37 4.97.36.2.36-9.96.36.08.37.03.36 4.7.36-.07.36.27.36 4.49.37-4.91.36 4.94.36-5.17.36-.02.36-4.77.37-5.46.36 14.72.36-4.82.36.11.36-.23.37 4.62.36.19.36-5.12.36-9.64.36 9.35.37-5.22.36 5.15.36 4.79.36-5.18.37.24.36 4.76.36-4.7.36-.07.36-4.93.37-.49.36 4.99.36-.01.36.22.36 13.25.37-4.86.36 4.59.36.3.36-9.62.36 10.3.37-10.03.36-.03.36 4.46.36.57.37 4.54.36-4.79.36-.56.36 4.45.36.25.37-9.56.36 10.16.36-5.14.36-4.47.36-.36.37 5.48.36 4.7.36-.1.36-9.61.36 9.8.37.3.36-.8.36-9.48.36 10.25.36-9.76.37.33.36 4.47.36.05.36 5.06.37-4.45.36-.19.36 4.74.36.15.36-4.79.37-.1.36-.33.36 5.1.36-14.37.36 9.68.37.4.36 4.85.36-4.93.36.12.36 4.85.37-.33.36-22.3.36 4.69.36 1.52.37-8.66.36 9.94.36.94.36 5.27.36-4.48.37.03.36 5.31.36-4.81h.36l.36.13.37-9.92.36 9.89.36-.05.36 5.06.36-4.95.37-.07.36 5.02.36-5.25.36.18.37-.14.36-9.81.36 9.66.36-.25.36 4.99.37-5.11.36-.01.36 4.87.36-9.72.36 9.39.37-4.79.36-9.91.36 4.6.36 9.84.36-4.88.37-.13.36 4.7.36.15.36-9.9.36 9.56.37-9.6.36-5.34.36 9.82.36 4.93.37-4.8.36-.02.36 4.87.36.01.36-2.62.37 10.12.36-9.33.36.06.36.19.36 10.06.37-.52.36-4.99.36.4.36 5.01.36-.01.37-5.16.36.39.36-4.73.36 4.96.37-10.07.36 14.79.36-.3.36-4.24.36 4.53.37-4.77.36 4.94.36-.01.36-10.24.36 5.13.37.18.36-5.04h.36l.36 9.77.36-4.66.37 4.5.36-4.29.36 5.31.36.06.36-5.02.37.44.36-.75.36.03.36-14.15.37 19.21.36-.16.36-4.15.36 4.93.36-5.02.37 5.23.36-.18.36-5.24.36.56.36-4.75.37 9.63.36-37.87.36 24.5.36 2.16.36-4.17.37 5.71.36-4.45.36 5.16.36-10 .37 10.2.36-9.48.36-4.95.36 9.87.36 5.02.37-4.45.36 4.9.36-5.09.36 4.99.36-10.06.37 10.03.36-10.02.36-4.82.36 9.43.36 5 .37-4.98.36 4.99.36-4.98.36 4.88.36-10.08.37.2.36 9.31.36-14.3.36 9.13.37 5.04.36-5.05.36 4.92.36-5.05.36.23.37-.51.36-4.67.36 4.93.36-10.13.36 14.46.37-4.82.36 4.83.36-4.62.36 4.66.36-9.97.37 4.85.36-.56.36-4.68.36 8.21.37 9.67.36.69.36-5.01.36 4.71.36-5.06.37 5.55.36-9.99.36-.46.36 10.18.36-.27.37-14.5.36 10.34.36 4.92.36-5.13.36 4.69.37-4.43.36 4.86.36-4.69.36-5.57.37 4.68.36 5.3.36-9.63.36.09.36 9.65.37-4.43.36 4.94.36-.55.36-4.29.36-.13.37-.36.36-4.4.36 9.83.36.07.36-19.69.37 19.28.36.44.36-4.98.36 4.77.36-4.58.37 4.67.36-4.45.36-5.13.36 5.31.37 5.15.36-.21.36-14.24.36 9.48.36 4.51.37-4.52.36-12.77.36-.02.36 6.48.36-3.78.37-10.12.36 15.64.36.74.36-19.62.36 19.39.37-4.51.36 5.2.36-4.61.36.13.37 4.89.36-14.81.36 14.94.36.05.36-19.83.37 19.39.36-4.78.36 4.95.36-4.97.36.14.37-.11.36-5.43.36 10.14.36.08.36-19.62.37 18.95.36-4.67.36 4.82.36-4.96.36-.06.37.13.36-5.5.36 9.99.36.09.37-19.92.36 19.51.36-4.77.36-.03.36-.12.37 4.64.36-9.82.36 4.57.36 5.29.36-9.72.37-.93.36 10.39.36-5.02.36 8 .36-.03.37 4.89.36-4.63.36-4.66.36 9.71.37.19.36-14.7.36 10.3.36 4.91.36-5.89.37.04.36 5.44.36-4.94.36 4.69.36-14.45.37 14.62.36.26.36-.49.36-19.13.36 18.95.37-4.78.36.49.36 4.88.36-4.45.36 5.09.37-.46.36-15.04.36 14.92.36-.27.37.65.36-19.6.36 19.28.36-4.56.36.28.37 4.62.36-4.89.36 5.06.36-9.93.36 5.08.37 5 .36-.42.36-4.71.36-9.62.36 14.87.37-4.51.36-.13.36.28.36 4.9.37.43.36-33.62.36 19.87.36 1.94.36.85.37-19.17.36 19.99.36-9.18.36 9.76.36-4.5.37 4.94.36-14.42.36 14.62.36.13.36.38.37-19.46.36 19.09.36-9.44.36 9.4.37-4.81.36 5.05.36-14.84.36 14.46.36.01.37.04.36-19.52.36 14.21.36-.15.36 4.94.37-4.82.36 4.73.36-14.77.36 14.45.36.12.37-4.87.36-10.18.36 4.93.36 9.61.36-4.58.37 4.5.36.02.36-108.86.36 96.15.37 4.24.36-10.73.36 9.28.36-2.35.36 10.13.37-4.91.36 5.04.36-14.83"/><use xlink:href="#d" color="#29C3F6" transform="matrix(3.75 0 0 3.75 67.83 150.47)"/><use xlink:href="#d" color="#29C3F6" transform="matrix(3.75 0 0 3.75 89.85 22.51)"/></g><text stroke-linecap="round" stroke-linejoin="round" color="#000" font-family="KaTeX_Main" font-size="8" transform="translate(241.1 10.11)"><tspan>RedBlackBottomUp</tspan></text><g fill="none" stroke="currentColor" stroke-linecap="round" stroke-linejoin="round" color="#000"><path stroke="#F44336" d="M205.6 7.51h29.9M28 148.71l.36 14.71.36-.06.37-15.12.36 14.72.36-.08.36-9.82.36 9.62.37-9.38.36 9.43.36-14.74.36 14.84.37-5.05.36-4.77.36 9.69.36.25.36-10.2.37 9.81.36-9.8.36 4.65.36-5.2.36 9.92.37-9.78.36 4.41.36 4.81.36-9.72.36 9.69.37.06.36-10.15.36-4.61.36 14.26.36.12.37-15.1.36 14.77.36-4.67.36-.13.37 4.77.36-9.7.36 9.23.36-14.94.36 14.82.37-9.85.36 4.84.36 4.99.36-9.63.36 9.38.37.02.36-9.88.36-5.15.36 14.38.36-4.62.37 14.44.36 9.86.36-.02.36-4.56.37-.19.36 4.72.36-.28.36-.46.36-9.67.37 4.78.36-4.96.36 9.97.36-4.72.36.18.37-.17.36 4.95.36.01.36-4.82.36.57.37 4.58.36-.02.36-.56.36-9.61.37-4.81.36 15.02.36-5.54.36 5.18.36-9.4.37 9.71.36-.01.36.15.36-4.95.36-.34.37 5.02.36.27.36-4.67.36-.13.36-9.86.37 10.04.36 5.04.36.12.36-10 .36 9.63.37.53.36-4.42.36 4.31.36-4.35.37 5.22.36-.66.36-4.71.36-37.49.36 14.57.37 1.65.36.9.36.46.36 5.39.36-4.47.37.23.36 5.19.36-4.7.36-9.97.36 5.02.37 9.95.36-4.47.36-.61.36.38.37 4.94.36-4.9.36 4.93.36-4.85.36-14.86.37 14.71.36 4.92.36-9.74.36 9.69.36-5.14h.37l.36 4.89.36.18.36-20.01.36 9.12.37 10.24.36-5.05.36-.33.36.25.36 4.67.37-4.75.36 4.71.36-4.9.36-15.1.37 14.41.36 4.85.36-4.9.36.07h.36l.37.19.36 4.62.36.01.36-20.13.36 9.2.37 29.05.36.3.36-4.77.36 4.93.36-9.84.37 10.03.36-.14.36-4.97.36 4.73.37.22.36.11.36-14.74.36-.26.36 14.63.37.52.36-5.31.36 4.37.36-4.4.36.08.37 5.06.36.02.36-4.8.36 4.82.36-.01.37-9.79.36.02.36-.54.36 10.44.36.09.37-4.57.36 5.14.36-9.84.36 9.74.37-.48.36-4.3.36 4.49.36.56.36-5.27.37-.07.36-5.24.36.68.36 9.92.36-.7.37-4.38.36 4.52.36-10.56.36 10.48.36.05.37-4.17.36 4.8.36-26.69.36-.38.37-14.07.36 16.15.36 5.86.36-4.72.36-4.5.37 9.79.36-4.2.36 4.71.36.13.36-9.8.37-9.96.36 19.48.36-4.47.36 4.92.36-9.96.37 10.1.36-5 .36 4.94.36-4.9.37-10.14.36 4.8.36 9.76.36-4.84.36 4.98.37-10.3.36 9.99.36-4.79.36 5.02.36-5.13.37-10.18.36 4.73.36 10.08.36-5.14.36-4.96.37 9.44.36-4.77.36 4.92.36-.1.36-14.86.37 4.39.36 5.06.36 5.35.36-5.58.37-4.59.36 4.61.36 5.17.36-.3.36-4.61.37 8.12.36 10.12.36.2.36 4.59.36-.13.37-4.9.36-4.46.36 10.12.36-4.84.36 5 .37-.46.36-.14.36-4.99.36-4.93h.37l.36 5.07.36 4.94.36-.22.36.58.37-9.61.36 4.84.36 4.63.36-5.02.36 5.03.37-.24.36-4.78.36.13.36-5.02.36 4.45.37 1 .36 4.64.36.42.36.11.36-14.76.37 14.25.36.17.36-4.44.36 4.77.37.18.36-5.09.36-5.22.36 5.48.36 4.54.37-9.49.36 9.47.36.09.36.56.36-14.74.37 14.39.36-.26.36-31.76.36 10.12.36-3.46.37-4.44.36.6.36 5.46.36 5.18.37-9.71.36 4.94.36.72.36 4.88.36-.12.37-4.26.36-10.1.36 9.93.36-.08.36 4.87.37-14.99.36 14.83.36-5.13.36 4.99.36-4.81.37 4.67.36-14.72.36 9.87.36-.11.36.11.37-5.04.36 9.79.36-5.01.36 4.93.37-4.95.36-10.06.36 14.46.36-9.87.36 9.9.37-5.14.36-4.96.36 5.01.36 4.62.36.23.37-10.12.36-.38.36 5.02.36.1.36-.43.37-5.14.36 9.85.36-4.9.36 5.1.37 13.4.36-4.42.36 9.92.36-4.71.36-.21.37 4.67.36-4.52.36.28.36-5.06.36 9.66.37-.02.36-4.76.36 4.82.36-.06.36-4.83.37-4.47.36 4.52.36 4.89.36-4.73.37 5.25.36-9.97.36 9.9.36-9.73.36 10 .37-5.24.36 4.13.36.33.36-.18.36-4.75.37-9.87.36 15.03.36-.09.36-4.65.36 5 .37-9.51.36 9.64.36-10.32.36 10.06.36-4.87.37 4.97.36.2.36-.44.36-13.63.37 9.58.36 4.86.36-.35.36-4.68.36-.29.37.25.36 5.26.36-37.31.36 14.86.36-3.35.37 5.76.36-13.85.36 9.75.36 5.06.36-4.5.37-4.62.36 9.68.36-9.63.36 9.99.37-4.97.36 4.96.36-14.65.36 9.91.36 4.87.37-4.81.36-5.14.36-.1.36 9.71.36-4.53.37 4.41.36.3.36-19.61.36 19.26.36-4.96.37 5.08.36-9.87.36-.56.36 10.04.36-4.99.37 4.97.36-9.82.36-.64.36 5.01.37 4.92.36-9.79.36 9.7.36-10.34.36 10.08.37-4.93.36-.11.36-9.91.36 9.48.36 4.91.37.25.36-10.18.36 4.91.36-.15.36 23.32.37-4.78.36-.05.36.37.36-4.71.37 5.06.36 4.89.36-.15.36-.54.36-9.26.37 9.91.36-4.85.36-.02.36-.09.36 4.79.37.55.36-10.19.36 10.21.36-9.56.36 4.49.37 4.93.36-.13.36.21.36-10.02.37 9.9.36-10.1.36 10.46.36-5 .36 4.85.37-4.93.36-.33.36-.09.36-4.3.36 9.91.37-.36.36-.1.36-4.57.36.47.36 4.33.37-9.78.36 10.1.36-5.13.36 5.13.36-4.37.37-.14.36.08.36-5.31.36 10.27.37-.34.36.22.36-32.06.36 4.78.36-3.67.37 10.76.36-4.14.36.38.36-4.4.36.09.37 10.11.36.31.36-4.97.36.1.36-5.08.37 5.18.36 4.88.36-4.97.36-4.81.37-.31.36 10.02.36-5.02.36.15.36-4.85.37 9.38.36-4.55.36-.34.36.21.36-5.29.37 4.56.36 5.21.36-4.95.36-.04.36-5 .37 9.61.36-4.83.36-.1.36-5.26.36.02.37 9.67.36-5.02.36 4.93.36-9.87.37 4.75.36 5.28.36-9.99.36 9.46.36-14.97.37 9.47.36.3.36 4.78.36-4.78.36 17.97.37.53.36 4.88.36-4.98.36-.16.36 5 .37-9.75.36.43.36 9.96.36-.21.37-4.81.36 5.06.36-.48.36-4.96.36-4.72.37 9.98h.36l.36-5.13.36.43.36-4.77.37 4.82.36.09.36 4.93.36.02.36-5.07.37 4.92.36-5.01.36.19.36-.2.36 4.91.37.51.36-9.56.36 9.36.36-9.97.37 5.54.36-.22.36 4.57.36-5.02.36 4.82.37.7.36.07.36-9.36.36 5.05.36 4.33.37.53.36-9.53.36 9.47.36-5.22.36-4.5.37 5.28.36-23.21.36.07.36 6.49.37.82.36-14.45.36 15.35.36-9.63.36 5.21.37-4.76.36 5 .36.15.36 5.33.36-.03.37.3.36-14.91.36 14.73.36-10.03.36 4.8.37-4.8.36 4.91.36-.03.36 4.83.37-.2.36-9.39.36 4.53.36 4.74.36-14.55.37 14.32.36-10.14.36 5.45.36-.14.36 4.75.37.17.36-15.24.36 14.88.36-4.86.36-5.4.37-.07.36 5.17.36-.44.36 4.84.36.08.37-4.96.36-5.15.36 9.67.36-14.81.37 9.73.36-.07.36-4.9.36 9.54.36 19.29.37-.17.36-4.65.36-.04.36-.11.36 5.01.37-5.21.36-4.55.36 5.3.36-.14.36 4.78.37-10.06.36 9.67.36-.12.36.11.37.14.36-4.91.36-4.64.36 9.63.36.23.37-4.85.36-4.92.36-.13.36 9.97.36.3.37-10.07.36 9.83.36.07.36.09.36.37.37-5.14.36-.19.36-.13.36 5.12.36-9.54.37-.07.36 4.39.36 4.7.36.61.37-9.07.36 9.29.36-.04.36.24.36-4.51.37-.2.36 5.06.36-4.7.36 4.72.36-9.86.37.07.36-22.95.36 10.3.36-8.36.36 10.25.37 1.21.36-4.58.36.11.36.54.37-.04.36-9.74.36 9.76.36.19.36-.19.37 4.97.36.1.36-4.76.36-.32.36.2.37-4.98.36-.03.36 4.68.36.13.36-.1.37 4.97.36.29.36-9.78.36 9.47.36-9.96.37.16.36-.35.36 9.94.36-4.99.37-.09.36 4.94.36-.08.36-9.93.36 4.9.37-.31.36-10 .36 9.79.36.05.36-.13.37 4.83.36-.02.36-4.74.36-.46.36-.01.37-10.12.36 4.82.36 9.72.36 13.66.37 5.36.36-5.06.36 4.77.36.02.36-5.05.37-.01.36 4.68.36-4.33.36-9.3.36 14.2.37-9.8.36 9.86.36-4.38.36 4.62.36-5.01.37 5.35.36-.54.36.1.36-5.07.37-.04.36-.22.36 5.18.36-14.18.36 9.01.37.47.36-.06.36 5.03.36-4.85.36 4.99.37.36.36-.3.36-4.72.36 4.53.36-4.95.37.13.36 5.39.36-14.94.36 9.57.36.54.37-.2.36 5.16.36-4.81.36 5.29.37.11.36.28.36-5.1.36-.19.36-.05.37 4.86.36-27.39.36-9.98.36 6.14.36 6.25.37.55.36 5.35.36.34.36-4.71.36-.07.37.37.36 5.03.36-19.97.36 14.83.37-.02.36.19.36 5.03.36-.05.36-4.98.37-4.78.36 9.63.36-9.73.36.05.36-.03.37 9.82.36-4.95.36 4.89.36.02.36-4.93.37-5.18.36 9.96.36-15.31.36 4.73.36 4.97.37.01.36 4.63.36.21.36-4.84.37-.32.36-.17.36-.07.36-14.73.36 19.38.37-4.98.36.06.36 4.76.36.1.36-4.9.37-5.05.36 9.61.36-19.87.36 33.31.36.21.37 5.09.36.33.36-4.72.36 4.7.37.09.36.33.36-5.09.36 4.91.36-9.91.37 9.27.36-4.74.36-14.84.36 19.86.36-5.34.37 4.68.36.09.36-4.4.36 5.21.36.17.37.16.36-4.69.36-5.39.36 9.49.36.61.37-15.08.36 4.74.36 9.88.36-5.34.37 5.6.36-4.76.36 4.95.36-.57.36.63.37.23.36-4.36.36-5.35.36 10.25.36-.03.37-19.79.36 14.57.36.45.36 4.78.36-.24.37-4.75.36 4.67.36.35.36-.15.37.04.36-32.68.36-.23.36 11.66.36-24.38.37 20.37.36 5.67.36.4.36-4.77.36 4.98.37.2.36-4.63.36-4.94.36 9.91.36-24.65.37 19.76.36 5.24.36-4.75.36 4.83.37-.12.36.38.36-9.69.36 4.42.36-4.81.37-5.29.36 9.66.36 5.04.36-5.09.36 5.12.37-.22.36-4.87.36-4.96.36 4.49.36-5.08.37-5.25.36 14.69.36.17.36-4.97.36 5.1.37-.16.36-10.13.36 4.89.36-.19.37-15.06.36 14.43.36 5.46.36-5.15.36 5.01.37-.26.36-5.01.36-5.11"/><use xlink:href="#e" color="#F44336" transform="matrix(3.75 0 0 3.75 125.4 178.89)"/><use xlink:href="#e" color="#F44336" transform="matrix(3.75 0 0 3.75 220.55 7.51)"/></g><text stroke-linecap="round" stroke-linejoin="round" color="#000" font-family="KaTeX_Main" font-size="8" transform="translate(241.1 25.11)"><tspan>RedBlackTopDown</tspan></text><g fill="none" stroke="currentColor" stroke-linecap="round" stroke-linejoin="round" color="#000"><path stroke="#3B75EA" stroke-dasharray="1.0,2.0" d="M205.6 22.51h29.9M28 163.35l.36-4.81.36-4.94.37-.04.36 9.21.36-14.55.36 14.72.36-.21.37-4.68.36 4.84.36-4.79.36.41.37-5.28.36 4.77.36-5.24.36-.16.36 10.19.37-.08.36-4.98.36 4.77.36-5.13.36.35.37-5.14.36-.07.36 4.61.36-4.88.36 9.62.37-.06.36-5.17.36 5.26.36-5.39.36.21.37-5.23.36.23.36-.54.36 4.53.37 5.11.36.2.36-5.56.36 5.42.36-10.33.37 4.84.36-9.74.36 14.51.36-9.88.36 4.86.37 4.98.36-5.66.36 5.73.36-5.28.36.27.37 11.1.36-.02.36 9.57.36-5.04.37.28.36-.06.36 4.85.36-5 .36 5 .37-.09.36-4.9.36-4.71.36 5.15.36.04.37.16h.36l.36.12.36.18.36 4.85.37-.14.36-5.08.36 5.15.36-4.96.37-4.62.36 9.68.36-9.86.36 5.04.36-.49.37.36.36.08.36 4.65.36.09.36-5.09.37 4.92.36-.02.36-9.52.36 5.26.36-.05.37-4.73.36 4.79.36-.1.36-.02.36 5.16.37.21.36-5.37.36 5.11.36-.24.37-4.69.36.17.36.27.36-34.6.36 14.93.37 1.49.36 1.23.36 5.33.36-4.98.36 5 .37.84.36-9.68.36 5.14.36-9.79.36 9.47.37.27.36.06.36 5.2.36.04.37-5.22.36 4.94.36-9.85.36 4.84.36-9.96.37 9.7.36.25.36-.27.36 5.07.36-.04.37-5.27.36 5.16.36-10.05.36-4.77.36 9.11.37-4.9.36 5.1.36 4.7.36.02.36-5.15.37 5.13.36.13.36-10.28.36-9.37.37 18.92.36-10.17.36 4.92.36 5.01.36.28.37-5.11.36 4.77.36-4.84.36-5.22.36-5.09.37 30.46.36-9.96.36 5.23.36 5.35.36-.09.37.03.36-4.99.36 4.93.36-.1.37-10.08.36.8.36-.11.36 9.65.36-10.04.37 5.23.36 5.02.36.1.36-.4.36.19.37-5.27.36 5.36.36-9.99.36 9.83.36-19.27.37 19.52.36-9.67.36 4.86.36 4.88.36.11.37-.02.36-.1.36-5.54.36 5.7.37-9.89.36 9.78.36-14.27.36 9.59.36-5.45.37 5.43.36 5 .36.12.36.09.36-.05.37-4.81.36 5.36.36-4.96.36-.17.36-9.07.37 9.69.36-.49.36-29.81.36 15.01.37 1.66.36 1.03.36.24.36-4.92.36 5.34.37-9.64.36-9.03.36 14.25.36-4.62.36 9.92.37.1.36.7.36-.08.36-5.27.36 5.07.37-9.98.36-4.84.36 4.6.36.25.37 9.57.36-.32.36.15.36-.18.36-4.99.37 4.96.36-10.24.36-10.19.36 9.78.36 4.94.37 5.18.36-.21.36.1.36-.17.36-5.25.37 5.28.36-15 .36-10.05.36 24.47.36-4.84.37 4.93.36.15.36-.14.36-4.92.37 5.04.36-5.01.36-15.34.36 4.81.36 9.92.37 20.43.36.25.36-.13.36.37.36-.19.37-5.01.36 5.37.36-4.89.36-10.13.36 5.22.37-.01.36 4.81.36 4.91.36.47.37.03.36-.23.36.31.36-5.15.36 4.91.37.31.36-14.89.36 4.73.36-4.82.36 9.74.37 4.98.36-.11.36.07.36.18.36.17.37-5.24.36 4.79.36.36.36-14.62.36 4.92.37-4.99.36 10.06.36 5.11.36.09.37.01.36.27.36-.7.36.45.36-4.96.37 4.97.36-4.99.36-14.38.36 10.24.36 4.96.37 4.73.36-4.89.36-20.4.36 4.95.36 1.42.37-4.09.36 5.61.36-4.76.36-14.09.37 5.02.36 14.86.36-4.55.36 4.95.36.19.37.02.36-5.13.36 5 .36-4.7.36-19.64.37 14.27.36 9.98.36-4.85.36 5.18.36-.35.37.18.36-5.43.36 5.26.36-5.05.36-19.61.37 14.36.36 9.76.36-4.85.36 4.56.37.31.36-.09.36-4.96.36 4.97.36-5.27.37-29.31.36 33.75.36.46.36-5.27.36 5.37.37-.01.36.08.36-5.18.36-.28.36-4.97.37-15.15.36 24.33.36-4.38.36 4.58.37 15.5.36.47.36-.05.36-4.93.36-.14.37 5.42.36-9.97.36-14.76.36 24.38.36.31.37-4.79.36 4.66.36-.12.36.01.36.34.37-5.05.36.2.36 4.94.36-14.76.37-5 .36 19.7.36-.07.36-4.79.36 4.74.37.21.36-.03.36.13.36-4.94.36-.02.37 4.89.36-9.75.36-14.44.36 24.31.36-.2.37.33.36-4.89.36 5.08.36.28.36.02.37-4.81.36 4.73.36-4.97.36-4.82.37 9.85.36-24.38.36 24.13.36.38.36-.15.37-4.85.36 5.15.36-24.4.36-.47.36 1.44.37 6.29.36-9.33.36-9.53.36 15.04.36 5.16.37-4.32.36 4.81.36-.02.36-5.09.37.34.36 5 .36-10.06.36-9.62.36 14.37.37 4.99.36.33.36-4.79.36 4.77.36-5.28.37-.13.36 5.18.36-10.16.36-9.87.36 14.51.37 4.71.36-4.59.36 4.29.36-4.93.36 5.12.37-5.02.36-.05.36-10.17.36-.43.37 14.86.36.11.36-5.07.36 4.78.36-4.87.37-.3.36 5.13.36-5.02.36-19.93.36 19.31.37 5.32.36.11.36-4.93.36-.14.36 15.18.37 5.21.36.02.36-4.74.36-4.95.37-9.96.36 20.05.36.27.36.19.36-5.09.37 4.89.36-4.72.36-.34.36 4.73.36.51.37-4.84.36-4.59.36-10.15.36 19.97.36-.19.37-.02.36-4.65.36 4.59.36-10.2.37 10.41.36-.15.36-.12.36.29.36-9.62.37-14.8.36 24.35.36.18.36.14.36-4.76.37 4.88.36-10.23.36 9.73.36.64.36.43.37-.4.36-5.1.36-13.79.36 9.74.36 9.38h.37l.36-.01.36-4.75.36-.57.37.42.36 4.96.36-24.54.36 4.99.36-8.47.37-4.63.36 5.96.36 10.29.36.63.36-4.51.37-5.24.36 10.17.36-.03.36.24.36-4.75.37-14.89.36 9.95.36 9.79.36-.07.37-4.95.36-5.29.36 9.99.36.19.36-.03.37-19.31.36 13.21.36-4.23.36 9.75.36-.2.37-15.02.36 14.72.36.2.36.02.36-.35.37-19.87.36 4.41.36 14.79.36.22.36-4.88.37-5.73.36 10.09.36.27.36.05.37-.07.36-25.22.36 15.04.36 9.61.36.23.37-15.18.36 15.16.36.02.36-.08.36 15.71.37-14.08.36 9.33.36-5.04.36 5.19.36 4.81.37.47.36-4.92.36-5.02.36 9.91.37-.04.36.14.36-.05.36-19.65.36 19.73.37-9.81.36 5.1.36 4.92.36.01.36-4.86.37-5.29.36 10.2.36-.08.36.29.36-.23.37-14.35.36 9.58.36-4.87.36 4.99.36 4.7.37.02.36.34.36-15.22.36 15.1.37-.02.36-.14.36.22.36-9.39.36-.32.37 4.75.36-4.93.36 9.74.36.14.36.25.37-4.92.36-4.84.36 9.97.36.02.36.28.37.08.36-45 .36 20.29.36 1.29.37 1.25.36 5.72.36.22.36-15.22.36 15.39.37.31.36.46.36-19.64.36 14.1.36.37.37-.17.36 5.31.36.07.36-15.06.36 14.86.37-.35.36-4.23.36-10.41.36 9.41.37-.03.36.2.36 5.14.36-.09.36-18.5.37 18.12.36.29.36-4.98.36-9.96.36 4.29.37 5.34.36 4.56.36-.07.36-4.92.36-5.41.37 10.43.36.15.36-10.15.36-5.36.36 9.56.37.16.36 4.97.36.24.36-10.47.37 4.88.36 4.84.36-4.77.36-.14.36 5.62.37 9.97.36.02.36 4.59.36.45.36-5.13h.37l.36-.04.36 5.03.36-4.84.36.01.37-4.73.36 4.81.36 5.2.36-9.76.37 9.85.36-.05.36.04.36-9.93.36 4.95.37 5.42.36-4.79.36 5.02.36-14.9.36 9.72.37 4.96.36-4.99.36.58.36 4.71.36.05.37-10.12.36 4.67.36 5.3.36-5.01.36 4.71.37-9.73.36 4.88.36-.01.36-.08.37.28.36 4.9.36.19.36-4.82.36-5.31.37 10.49.36-4.71.36 5.13.36-9.83.36 9.87.37-4.6.36-25.93.36-.09.36 11.72.36-3.9.37.44.36.69.36.59.36 5.37.37-10.4.36 5.71.36-.14.36-4.72.36 10.08.37-5.27.36-.17.36.18.36.21.36 5.01.37-9.96.36 4.63.36-.19.36-4.44.36 9.33.37-5.09.36-.15.36-.4.36.55.36.08.37-.45.36-4.9.36 4.67.36.12.37 4.67.36-5.23.36-4.89.36 5.18.36 4.66.37-4.64.36-5.34.36 4.65.36-.05.36-.04.37-.34.36 4.94.36-9.85.36 4.98.36-.33.37.05.36-.24.36-5.17.36 21.49.37 4.85.36-4.39.36 4.9.36-4.93.36.22.37.23.36-.26.36 4.9.36-5.01.36-.01.37-5.25.36 5.53.36 4.67.36.02.36-4.83.37 4.84.36-10.36.36 5.35.36.36.37 4.94.36-5.57.36.62.36-5.38.36 5.02.37 5.05.36.34.36-5.17.36 5.23.36-10.33.37 5.48.36-.18.36 5.13.36-5.09.36.28.37.19.36.35.36.36.36 4.96.36-5.33.37 5.01.36-5.01.36-4.88.36 4.72.37 4.96.36.01.36-4.83.36.13.36-4.82.37 5.27.36-21.25.36.29.36 6.71.36-9.31.37 5.71.36.81.36 5.09.36-4.82.36-4.83.37.19.36 10.08.36-5.28.36 5.69.37-10.11.36 5.41.36-.04.36 4.9.36-5.18.37-9.54.36 9.45.36-.05.36 5.1.36.12.37-10.33.36 4.85.36.01.36 4.82.36-5.04.37-9.8.36 9.79.36-.47.36 5.39.36.09.37-15.27.36 9.8.36 4.8.36-.07.37-5.08.36-10.26.36 10.21.36-.3.36 5.05.37-10.2.36 4.92.36.07.36 4.78.36-5.12.37-4.65.36-.51.36 10.02.36 10.87.36 4.94.37.24.36-14.8.36 10.18.36 4.84.37.25.36-5.59.36.5.36-5.17.36 5.51.37-.4.36 5 .36-.23.36.07.36-14.96.37 10.46.36 5.02.36.46.36-5.1.36-.08.37-4.89.36 4.91.36 4.63.36-4.83.36 4.94.37-.25.36-14.96.36 10.39.36 4.86.37.17.36-5.03.36.42.36-.03.36-.52.37.43.36-.28.36 5.24.36.36.36-10.66.37 5.57.36-.06.36 5.21.36-.03.36-10.06.37 10 .36-9.58.36 4.82.36.28.37 5.33.36-25.53.36 5.18.36-19.19.36 21.17.37.78.36-4.81.36.37.36-4.57.36 5.14.37.06.36 4.8.36.66.36-19.7.36 19.85.37-.07.36-4.91.36.29.36-4.87.37 4.76.36-.2.36 5.13h.36l.36-20.12.37 19.71.36.1.36-4.93h.36l.36-5.36.37 4.94.36-.12.36 4.98.36-4.99.36-10.34.37 15.09.36-.03.36-5.31.36-4.72.36-.43.37 4.64.36 5.14.36.23.36-15.33.37 9.55.36 5.36.36.06.36-10.38.36 4.87.37-5.26.36 4.92.36 5.35"/><use xlink:href="#f" color="#3B75EA" transform="matrix(3.75 0 0 3.75 182.98 161.27)"/><use xlink:href="#f" color="#3B75EA" transform="matrix(3.75 0 0 3.75 220.55 22.51)"/></g><path fill="none" d="M28 45.01V205M371.99 45.01H28" color="#000"/></svg>