<svg xmlns="http://www.w3.org/2000/svg" xmlns:xlink="http://www.w3.org/1999/xlink" viewBox="0 0 400 250"><path fill="none" d="M0 0h400v250H0z"/><defs><path id="c" stroke="currentColor" stroke-width=".267" d="M-1-1h2v2h-2z"/><path id="b" stroke="currentColor" stroke-width=".267" d="m0-1.33-1.33 2h2.66z"/><use xlink:href="#a" id="d" fill="currentColor" stroke="none"/><use xlink:href="#b" id="e" fill="currentColor" stroke="none"/><circle id="a" cx="0" cy="0" r="1" stroke="currentColor" stroke-width=".267"/></defs><path fill="none" stroke="#333" stroke-linecap="round" stroke-linejoin="round" stroke-width=".1" d="M46.1 205V45.01" class="gridline" color="#000"/><g fill="none" stroke-linecap="round" stroke-linejoin="round" stroke-width="0" color="#000"><path d="M46.1 205v-7.5m0-152.49v7.5"/><text fill="#000" font-family="KaTeX_Main" font-size="10" text-anchor="middle" transform="translate(46.1 215.75)"><tspan> 1</tspan></text></g><path fill="none" stroke="#333" stroke-linecap="round" stroke-linejoin="round" stroke-width=".1" d="M82.31 205V45.01" class="gridline" color="#000"/><g fill="none" stroke-linecap="round" stroke-linejoin="round" stroke-width="0" color="#000"><path d="M82.31 205v-7.5m0-152.49v7.5"/><text fill="#000" font-family="KaTeX_Main" font-size="10" text-anchor="middle" transform="translate(82.31 215.75)"><tspan> 2</tspan></text></g><path fill="none" stroke="#333" stroke-linecap="round" stroke-linejoin="round" stroke-width=".1" d="M118.52 205V45.01" class="gridline" color="#000"/><g fill="none" stroke-linecap="round" stroke-linejoin="round" stroke-width="0" color="#000"><path d="M118.52 205v-7.5m0-152.49v7.5"/><text fill="#000" font-family="KaTeX_Main" font-size="10" text-anchor="middle" transform="translate(118.52 215.75)"><tspan> 3</tspan></text></g><path fill="none" stroke="#333" stroke-linecap="round" stroke-linejoin="round" stroke-width=".1" d="M154.73 205V45.01" class="gridline" color="#000"/><g fill="none" stroke-linecap="round" stroke-linejoin="round" stroke-width="0" color="#000"><path d="M154.73 205v-7.5m0-152.49v7.5"/><text fill="#000" font-family="KaTeX_Main" font-size="10" text-anchor="middle" transform="translate(154.73 215.75)"><tspan> 4</tspan></text></g><path fill="none" stroke="#333" stroke-linecap="round" stroke-linejoin="round" stroke-width=".1" d="M190.94 205V45.01" class="gridline" color="#000"/><g fill="none" stroke-linecap="round" stroke-linejoin="round" stroke-width="0" color="#000"><path d="M190.94 205v-7.5m0-152.49v7.5"/><text fill="#000" font-family="KaTeX_Main" font-size="10" text-anchor="middle" transform="translate(190.94 215.75)"><tspan> 5</tspan></text></g><path fill="none" stroke="#333" stroke-linecap="round" stroke-linejoin="round" stroke-width=".1" d="M227.15 205V45.01" class="gridline" color="#000"/><g fill="none" stroke-linecap="round" stroke-linejoin="round" stroke-width="0" color="#000"><path d="M227.15 205v-7.5m0-152.49v7.5"/><text fill="#000" font-family="KaTeX_Main" font-size="10" text-anchor="middle" transform="translate(227.15 215.75)"><tspan> 6</tspan></text></g><path fill="none" stroke="#333" stroke-linecap="round" stroke-linejoin="round" stroke-width=".1" d="M263.36 205V45.01" class="gridline" color="#000"/><g fill="none" stroke-linecap="round" stroke-linejoin="round" stroke-width="0" color="#000"><path d="M263.36 205v-7.5m0-152.49v7.5"/><text fill="#000" font-family="KaTeX_Main" font-size="10" text-anchor="middle" transform="translate(263.36 215.75)"><tspan> 7</tspan></text></g><path fill="none" stroke="#333" stroke-linecap="round" stroke-linejoin="round" stroke-width=".1" d="M299.57 205V45.01" class="gridline" color="#000"/><g fill="none" stroke-linecap="round" stroke-linejoin="round" stroke-width="0" color="#000"><path d="M299.57 205v-7.5m0-152.49v7.5"/><text fill="#000" font-family="KaTeX_Main" font-size="10" text-anchor="middle" transform="translate(299.57 215.75)"><tspan> 8</tspan></text></g><path fill="none" stroke="#333" stroke-linecap="round" stroke-linejoin="round" stroke-width=".1" d="M335.78 205V45.01" class="gridline" color="#000"/><g fill="none" stroke-linecap="round" stroke-linejoin="round" stroke-width="0" color="#000"><path d="M335.78 205v-7.5m0-152.49v7.5"/><text fill="#000" font-family="KaTeX_Main" font-size="10" text-anchor="middle" transform="translate(335.78 215.75)"><tspan> 9</tspan></text></g><path fill="none" stroke="#333" stroke-linecap="round" stroke-linejoin="round" stroke-width=".1" d="M371.99 205V45.01" class="gridline" color="#000"/><g fill="none" stroke-linecap="round" stroke-linejoin="round" stroke-width="0" color="#000"><path d="M371.99 205v-7.5m0-152.49v7.5"/><text fill="#000" font-family="KaTeX_Main" font-size="10" text-anchor="middle" transform="translate(371.99 215.75)"><tspan> 10</tspan></text></g><g fill="none" stroke-linecap="round" stroke-linejoin="round" stroke-width="0" color="#000"><path d="M371.99 205h-7.5"/><text fill="#000" font-family="KaTeX_Main" font-size="10" transform="translate(378.99 208.25)"><tspan>0.05</tspan></text></g><g fill="none" stroke-linecap="round" stroke-linejoin="round" stroke-width="0" color="#000"><path d="M371.99 178.33h-7.5"/><text fill="#000" font-family="KaTeX_Main" font-size="10" transform="translate(378.99 181.58)"><tspan>0.10</tspan></text></g><g fill="none" stroke-linecap="round" stroke-linejoin="round" stroke-width="0" color="#000"><path d="M371.99 151.67h-7.5"/><text fill="#000" font-family="KaTeX_Main" font-size="10" transform="translate(378.99 154.92)"><tspan>0.15</tspan></text></g><g fill="none" stroke-linecap="round" stroke-linejoin="round" stroke-width="0" color="#000"><path d="M371.99 125h-7.5"/><text fill="#000" font-family="KaTeX_Main" font-size="10" transform="translate(378.99 128.25)"><tspan>0.20</tspan></text></g><g fill="none" stroke-linecap="round" stroke-linejoin="round" stroke-width="0" color="#000"><path d="M371.99 98.34h-7.5"/><text fill="#000" font-family="KaTeX_Main" font-size="10" transform="translate(378.99 101.59)"><tspan>0.25</tspan></text></g><g fill="none" stroke-linecap="round" stroke-linejoin="round" stroke-width="0" color="#000"><path d="M371.99 71.67h-7.5"/><text fill="#000" font-family="KaTeX_Main" font-size="10" transform="translate(378.99 74.92)"><tspan>0.30</tspan></text></g><g fill="none" stroke-linecap="round" stroke-linejoin="round" stroke-width="0" color="#000"><path d="M371.99 45.01h-7.5"/><text fill="#000" font-family="KaTeX_Main" font-size="10" transform="translate(378.99 48.26)"><tspan>0.35</tspan></text></g><path fill="none" d="M28 45.01V205M371.99 45.01H28" color="#000"/><text stroke-linecap="round" stroke-linejoin="round" stroke-width="0" color="#000" font-family="KaTeX_Main" font-size="10" text-anchor="middle" transform="rotate(-90 68.255 56.755)"><tspan font-weight="bold">Duration </tspan><tspan> in milliseconds</tspan></text><text stroke-linecap="round" stroke-linejoin="round" stroke-width="0" color="#000" font-family="KaTeX_Main" font-size="10" text-anchor="middle" transform="translate(199.99 238.25)"><tspan>Operations / 10</tspan><tspan dy="-5" font-size="8">5</tspan></text><text stroke-linecap="round" stroke-linejoin="round" color="#000" font-family="KaTeX_Main" font-size="8" transform="translate(132.8 10.11)"><tspan>LBSTBottomUp</tspan></text><g fill="none" stroke="currentColor" stroke-linecap="round" stroke-linejoin="round" color="#000"><path stroke="#3B75EA" d="M97.3 7.51h29.9M28 100.69l.36-.48.36-10.21.37 9.01.36.06.36-.38.36-.39.36-9.04.37 8.21.36-.04.36-.56.36-.21.37-.36.36-10.16.36 9.23.36-.14.36-.17.37-9.47.36-1.88.36 9.05.36.45.36-.29.37-.54.36-19.81.36 18.63.36-.04.36-.29.37-.32.36-9.74.36 9.14.36-.46.36.57.37-.43.36-9.34.36 8.87.36.16.37.3.36-.08.36-10.27.36 9.07.36.68.37-.24.36-.25.36-10.37.36.36.36 8.61.37-.39.36.54.36-10.29.36-1.17.36 10.05.37 89.96.36 1.45.36.67.36.23.37.56.36.36.36.06.36-.3.36.03.37.5.36.47.36.03.36-.2.36-.03.37-.06.36-.1.36.23.36.64.36.44.37.45.36-.65.36.65.36-.04.37-.1.36-.16.36-.11.36.24.36.53.37-.88.36.08.36-.28.36.3.36-.49.37.2.36-.05.36.18.36.2.36.29.37.39.36.19.36-.5.36.31.36.24.37.06.36.06.36-.71.36.32.37-.29.36-.01.36-.8.36-93.63.36 6.85.37 1.89.36-9.25.36 9.62.36.05.36-.93.37-.19.36-10.05.36 9.21.36-.36.36.05.37-.52.36-19.07.36 18.07.36-1.31.37.11.36-.05.36-20.16.36 18.97.36.48.37-.31.36.02.36-19.58.36 18.32.36-.02.37.17h.36l.36-9.82.36 8.88.36-.04.37.09.36-.17.36-9.84.36 8.4.36.42.37-.11.36-.08.36-10 .36.45.37 8.98.36.12.36-.04.36-10.88.36-.59.37 10.02.36.04.36.36.36-.29.36-18.88.37 108.62.36 1.02.36.8.36.73.36.9.37-.48.36.21.36.17.36.72.37.14.36.47.36-.45.36.74.36-.32.37.09.36-.16.36 1.22.36-.36.36.41.37-.14.36 1.16.36.03.36-.11.36-1.02.37.22.36.13.36.31.36-.19.36.03.37.38.36-1.08.36-.47.36.98.37.07.36.23.36-.08.36.34.36.08.37-.78.36.1.36.1.36.79.36.13.37.38.36-.56.36-.04.36-.39.36-.04.37-.59.36.26.36-96.46.36 8.32.37 1.87.36.56.36-10.12.36 9.66.36-.35.37-.28.36.14.36-10.29.36 9.04.36-.15h.37l.36-.57.36-20.64.36 18.72.36.49.37-.09.36-.74.36-9.96.36-.18.37 9.09.36.3.36-.2.36-9.12.36 8.55.37-.17.36-.06.36.31.36-.34.36-10.5.37 9.48.36.24.36-.09.36-.62.36-8.81.37 8.38.36.4.36-1.06.36.49.36-21.04.37 19.89.36.79.36-.35.36-.49.37-19.2.36 18.56.36.5.36-.54.36.06.37 91.27.36.93.36.53.36.76.36.06.37.25.36-.28.36.74.36.4.36.67.37-.36.36.26.36-.36.36.33.37.31.36.25.36.57.36.32.36-.26.37.24.36.39.36-.02.36-.46.36-.32.37.8.36-.1.36-.43.36-.19.36.48.37-.77.36-.22.36.31.36.45.36-.1.37.1.36.21.36.73.36-.29.37-.13.36-.18.36 1.06.36-.65.36.1.37-.63.36.35.36-.09.36-.2.36-.76.37.22.36-.23.36-107.03.36 18.16.36 1.81.37.35.36.75.36-9.61.36 8.63.37-.13.36-.17.36-.49.36-.2.36-9.85.37 9.34.36-1.37.36-.36.36-9.31.36-.59.37 9.27.36.13.36.29.36-.79.36-19.23.37 18.56.36.37.36-.24.36-.1.36-10.32.37 9.59.36-.52.36.27.36-.44.37-8.97.36 8.96.36-.54.36-.55.36.04.37-9.65.36 9.27.36-.61.36.39.36-.06.37-9.36.36-.23.36 9.31.36-.23.36-.33.37-9.19.36-.79.36 9.41.36-.08.37 91.75.36.86.36 1.33.36.09.36.04.37-.28.36 1.17.36.13.36.43.36-.56.37.01.36.51.36-.02.36.2.36.13.37.98.36.11.36-.33.36.82.37.38.36-.58.36-.1.36-.32.36.26.37.13.36-.07.36-.46.36.3.36.02.37-.15.36-.2.36.93.36.42.36-.46.37.25.36-.46.36.05.36-.12.36-.33.37.71.36-.11.36.55.36-.51.37-.27.36-.77.36.45.36-.57.36.39.37.25.36.14.36-98.69.36 9.2.36-8.31.37 10.71.36.05.36.26.36-.39.36-9.82.37 9.28.36-.6.36.01.36-.5.37-10.2.36 9.07.36-.64.36.07.36-.43.37-19.62.36 18.94.36-.18.36.46.36-.72.37-8.94.36-1.76.36 10.52.36-.43.36-.23.37-9.74.36 9.34.36-.27.36-.43.36-.02.37.1.36-10.5.36 9.56.36-.19.37-.02.36-9.74.36-.82.36 10.33.36-.22.37-.44.36.1.36-20.42.36 19.58.36.11.37.6.36-.42.36-19.74.36 18.7.36 91.48.37 2.06.36.25.36.58.36-.11.37.36.36.4.36.56.36-.47.36.3.37.62.36-.3.36-.23.36.47.36.74.37.28.36-.18.36.41.36.6.36-.42h.37l.36-.3.36.42.36.33.37-.61.36-.39.36.69.36-.48.36.01.37.01.36.41.36-.12.36.39.36-.7.37.64.36.02.36-.25.36-.19.36.37.37.38.36.2.36-.7.36-.21.36-.11.37.03.36-.56.36-.52.36.7.37.21.36-.07.36-98.38.36 8.97.36 2.06.37-8.88.36 9.77.36.04.36-.17.36-.65.37-9.4.36 8.7.36-.31.36-.93.36-.36.37-19.03.36 18.51.36-.34.36.06.37-.56.36-9.72.36-.55.36 9.91.36.2.37-.63.36-10.09.36.02.36 9.04.36.39.37-.83.36.13.36-10.43.36 9.76.36-.11.37.16.36-.51.36-10.24.36 9.3.36-.16.37-.25.36.12.36-20.22.36 19.09.37.28.36.37.36-.58.36-19.24.36 18.61.37.26.36.1.36.06.36-9.43.36 101.32.37.75.36.63.36.49.36.09.36.72.37.07.36.02.36.34.36-.05.37.15.36.18.36.27.36.17.36.75.37.43.36-.24.36.27.36.3.36-.1.37-.55.36.28.36-.43.36.88.36-.5.37.36.36-.3.36-.19.36-.1.36.53.37.09.36-.03.36-.52.36.76.37-.29.36.41.36-.47.36.02.36.38.37.58.36-.9.36-.14.36.45.36-.35.37-.36.36-.11.36.37.36-.33.36.32.37.39.36-99.63.36 9.16.36 2.23.37.75.36-8.91.36 8.14.36.62.36-.25.37-.29.36-.49.36-9.36.36 8.43.36-.43h.37l.36-10.7.36-1.35.36 10.95.36.08.37-.66.36-.22.36-19.54.36 18.94.37-.39.36-.44.36.25.36-9.93.36 9.01.37.23.36-.78.36.28.36-10.17.36 9.35.37.38.36-.47.36-.39.36-9.16.36 9.17.37-.08.36-.62.36.49.36-10.08.36-.91.37 9.76.36-.36.36.14.36-9.58.37-.17.36 9.6.36.3.36-.25.36 91.97.37.72.36.93.36.13.36.62.36.23.37.49.36-.42.36.58.36-.49.36-.27.37.35.36.54.36.43.36.54.37.28.36.35.36-.01.36.12.36-.53.37.67.36-.35.36.08.36-.13h.36l.37-.39.36-.01.36-.2.36.56.36.16.37.17.36-.41.36.67.36.41.36-.61.37-.24.36.43.36.66.36.19.37-.55.36-.41.36.24.36-.14.36-.74.37-.67.36.64.36-.04.36.13.36.08.37.52.36-99.55.36-1.45.36 12.09.36 1.19.37-.12.36-.05.36-9.26.36 9.42.37-.67.36-.71.36-.02.36-10.48.36 9.44.37-.35.36.09.36-.61.36-19.44.36 18.57.37-.17.36.23.36-.72.36-10.42.36-.19.37 10.21.36-.39.36-.38.36-8.8.36 8.93.37-.51.36.41.36-.78.36-.17.37-10.12.36 9.34.36-.15.36-.34.36-.11.37-10.08.36 9.85.36-.23.36.04.36.2.37-19.84.36 18.98.36-.13.36-.17.36-.16.37-19.43.36 18.9.36.62.36 91.67.37.78.36 1.26.36.55.36.14.36.1.37-.04.36.6.36.36.36-.38.36-.19.37.86.36.33.36.5.36-.26.36.81.37.09.36-.03.36-.42.36.21.37-.13.36.22.36-.28.36.35.36-.14.37.07.36-.57.36.8.36-.05.36.22.37-.22.36.52.36.34.36-.21.36-.62.37.14.36.46.36-.31.36.23.36-.53.37.39.36-.14.36-.52.36-.8.37.69.36-.28.36.39h.36l.36 1.21.37-.99.36-99.78.36 9.5.36-7.26.36 9.83.37.45.36-.47.36.06.36-9.9.36 9.13.37-.8.36.65.36-.75.36-10.06.37-1.25.36 9.41.36.25.36.18.36-10.76.37-.69.36 9.63.36.26.36.17.36-.73.37-20.34.36 19.21.36.37.36-.07.36-.15.37-9.72.36 9.52.36.02.36.53.36-.97.37-10.14.36 9.05.36.18.36-.03.37-.5.36-19.94.36 19.31.36.55.36-.44.37-.15.36-19.95.36 19.04.36.85.36.37.37-.18.36-9.72.36-.91.36 101.34.36.54.37 1.24.36.68.36.37.36-.12.37.52.36-.26.36.27.36-.44.36 1.12.37.4.36.89.36-.45.36.68.36.13.37.58.36-.85.36-.17.36.36.36.56.37-.62.36-.17.36.28.36.2.36-.23.37.08.36.76.36.05.36-.71.37.6.36-.28.36.29.36-.19.36.03.37.06.36.49.36-.22.36-.35.36.02.37-.38.36-.08.36-.4.36.17.36-.25.37.56.36-.1.36.54.36-.19.37.21.36-100.51.36 9.27.36 2.31.36-9.03.37 9.47.36.22.36-.81.36.36.36-.86.37-9.78.36 9.17.36-.08.36.29.36-10.97.37-1.05.36 10.41.36-.27.36.37.37-.33.36-20.77.36 19.41.36.45.36-.35.37.16.36-10.49.36 9.07.36.69.36-.5.37.04.36-10.29.36 9.31.36-.69.36.72.37.12.36-10.49.36 9.47.36.08.36.11.37-.29.36-14.34.36-5.51.36 10.53.37 5.34.36.33.36-9.48.36.17.36 10.58.37.1.36-.1.36-.08"/><use xlink:href="#a" color="#3B75EA" transform="matrix(3.75 0 0 3.75 354.25 80.5)"/><use xlink:href="#a" color="#3B75EA" transform="matrix(3.75 0 0 3.75 112.25 7.51)"/></g><text stroke-linecap="round" stroke-linejoin="round" color="#000" font-family="KaTeX_Main" font-size="8" transform="translate(132.8 25.11)"><tspan>LBSTTopDown</tspan></text><g fill="none" stroke="currentColor" stroke-linecap="round" stroke-linejoin="round" color="#000"><path stroke="#F44336" stroke-dasharray="4.5,2.0,0.5,2.0,0.5,2.0" d="M97.3 22.51h29.9M28 112.25l.36-9.3.36-2.91.37 10.3.36.65.36-1.12.36-9.41.36-1.03.37 9.81.36-.43.36-.09.36-.62.37-20.54.36 19.94.36.64.36-.96.36-.96.37-11.34.36 10.28.36.05.36-.7.36-.6.37-9.93.36 9.3.36.43.36.46.36-1.23.37-18.85.36 17.89.36.18.36.71.36-.64.37-10.82.36-.98.36 10.12.36.05.37.67.36-8.54.36-2.29.36 10.6.36-1.28.37 1.38.36-.12.36-10.73.36 9.58.36.31.37-.04.36-.38.36-9.9.36 9.33.36-1.14.37 65.06.36 1.99.36.8.36.16.37.29.36.23.36.05.36.04.36-.07.37 1.04.36-.84.36.63.36.07.36-.17.37.42.36-.87.36 1.9.36-.08.36.04.37.86.36-1.05.36.37.36-.66.37.61.36.02.36-.02.36.44.36-.18.37-.66.36.42.36.35.36-.63.36.61.37-.49.36.71.36-.14.36-.2h.36l.37.43.36-.02.36-.4.36.01.36-.35.37.51.36-.27.36.39.36-.79.37-.25.36 1.18.36-.41.36-71.8.36 8.08.37-16.88.36 18.04.36 2.35.36.52.36-1.71.37-21.34.36 20.05.36.12.36-1.46.36.23.37-11.3.36 10.84.36.01.36.63.37-1.22.36-11.21.36 9.79.36.29.36-.44.37-.22.36.17.36-11.08.36 10 .36-1.01.37.95.36-10.53.36-1.19.36 10.78.36-1.5.37.59.36-.55.36-17.69.36 17.25.36.99.37-.25.36-.13.36-10.42.36 9.62.37 1.69.36.04.36-.69.36-9.96.36 9.95.37-.49.36-.23.36-1.01.36-8.62.36 10.1.37 65.04.36 1.27.36.8.36.17.36.31.37-.01.36.04.36 1 .36.34.37.25.36.12.36.01.36 1 .36-.16.37-.98.36.78.36-.32.36.57.36-.48.37.67.36-.27.36.15.36-.16.36.4.37-.64.36-.18.36.56.36.02.36.56.37-.48.36.22.36-.15.36.35.37-.32.36-.54.36.31.36.23.36.12.37-.54.36.39.36-.32.36-.37.36.66.37.2.36-.16.36.11.36-.5.36.29.37.1.36-.38.36-74.61.36 10.16.37 2.54.36-18.52.36 18.02.36.91.36-2.64.37 2.21.36-10.77.36-.05.36 9.69.36-1.2.37.16.36-8.89.36 8.2.36-.21.36.51.37.37.36.14.36-11.16.36 9.26.37.55.36-2.75.36 1.17.36-11.7.36 10.89.37-.33.36-.12.36-.47.36-19.33.36 19.74.37-.05.36-.15.36-1.74.36-20 .36 20.67.37-2.03.36 2.28.36-1.35.36-9.85.36 8.79.37.76.36.12.36-.75.36-8.92.37 9.15.36 1.01.36-.42.36 1.25.36-1.63.37 65.82.36 1.78.36 1.04.36-.63.36.75.37-.54.36 1.14.36-.1.36 1.16.36-.06.37.5.36-1.61.36.54.36.25.37.87.36-.24.36.43.36-.01.36-.5.37.33.36.19.36-.25.36.28h.36l.37-.2.36.26.36-1.03.36 1 .36.88.37-.57.36-.91.36.45.36-.45.36.63.37-.22.36.65.36-.57.36-.04.37.38.36-.36.36.14.36-.48.36.05.37.39.36.37.36-.75.36-.18.36.39.37-.32.36.12.36-85.18.36 19.97.36 2.87.37.55.36-9.31.36-.89.36 8.77.37.32.36-.53.36.01.36-20.09.36 18.92.37.43.36-.76.36 1.33.36-11.18.36 11.03.37-.01.36-1.33.36.78.36-11.22.36 7.96.37.13.36-.28.36-.96.36-18.98.36 19.85.37.05.36.29.36-.5.36-11.22.37-1.76.36 11.05.36.43.36 1.09.36-10.2.37-1.59.36 10.19.36.38.36-.94.36-.5.37-9.86.36 10.09.36-.16.36-.2.36.46.37-9.49.36 8.51.36-1.06.36.81.37 66.59.36 1.44.36 1.04.36.27.36-.3.37.67.36 1.25.36.28.36-.36.36-.03.37.25.36-.36.36.74.36-.56.36.23.37.57h.36l.36-.17.36.12.37.15.36.19.36.33.36.09.36-.15.37-.11.36.09.36-.52.36.42.36.43.37-.27.36-.83.36.69.36-.08.36-.03.37.45.36-.51.36.69.36-.38.36-.53.37.46.36-.73.36.59.36.11.37.21.36-.54.36.15.36-.02.36-.07.37.17.36-.45.36-75.02.36-8.67.36 20.67.37 1.44.36-1.18.36-.23.36-20.05.36 20.16.37-.28.36 1.31.36-.92.36-10.08.37-.51.36 10.96.36-1.54.36-1.2.36-8.43.37 8.93.36-.01.36-.36.36-.88.36-.72.37-11.15.36 10.03.36-.29.36 1.21.36-11.32.37-1.78.36 11.38.36-1.13.36 1.06.36.28.37-19.22.36 17.78.36-.37.36.38.37-.35.36-10.55.36 9.33.36.2.36 1.2.37.14.36-11.75.36 10.1.36 1.02.36-.8.37-.85.36-9.8.36 10.08.36-.4.36 67.19.37 2.57.36-.59.36 1.2.36.3.37.3.36-.28.36.44.36-.25.36.26.37.02.36.97.36-.65.36-.09.36.91.37.13.36-.14.36.28.36-.72.36.31.37.03.36.8.36-.57.36-.2.37.37.36-.17.36.29.36-.1.36.5.37-.99.36.46.36.57.36-1 .36.05.37.25.36.51.36-.96.36-.07.36.49.37-.08.36.14.36-.12.36-.13.36-.1.37-.55.36.57.36-.9.36 1.22.37-.23.36.14.36-74.94.36 9.8.36-7.25.37-1.47.36 10.66.36.27.36.31.36-10.2.37.25.36 9.45.36-.19.36-.25.36.49.37-11.92.36 10.58.36-.75.36.31.37-.6.36-10.96.36 8.62.36.53.36-2.84.37 1.77.36-9.4.36 9.84.36.13.36-1.69.37 1.42.36-19.68.36 17.8.36 1.66.36-.13.37-1.35.36-19.97.36 20.99.36-.48.36-1.62.37.7.36-11.2.36 9.31.36 1.53.37-.81.36-.04.36-9.95.36 10.82.36-1.08.37-.26.36.58.36-.58.36-9.86.36 76.13.37 1.93.36.71.36.03.36.73.36-.33.37.43.36.68.36.4.36-1.14.37 1.14.36.36.36-.15.36.35.36.07.37-.4.36.09.36.53.36.18.36-.62.37.28.36.25.36-.01.36-.09.36.56.37-2.3.36-6.04.36 1.92.36 1.17.36 1.37.37 1.66.36-5.04.36-2.62.36.91.37 4.06.36 2.48.36-1.39.36 1.15.36-.87.37-4.57.36 3.56.36-3.49.36.12.36.05.37.06.36 1.82.36-.62.36 2.62.36 1.39.37-1.35.36-72.85.36 9.89.36 1.81.37-7.89.36-2.77.36 9.31.36 1.37.36 1.16.37-.71.36-23.46.36 20.62.36-.7.36.44.37 1.16.36-9.39.36 5.44.36 1.52.36.25.37.5.36-11.17.36 9.02.36-1.23.37-.06.36.51.36-10.16.36 10.76.36-.28.37.77.36-.95.36-9.71.36-.55.36 10.1.37-.59.36.27.36-9.63.36-3.25.36 11.51.37-.47.36.09.36 1.41.36-11.02.36 10.44.37-.4.36.32.36-.98.36-9.8.37 9.46.36.03.36.86.36-.13.36 65.34.37 1.59.36-.07.36 1.51.36-.25.36.3.37.55.36.3.36.57.36.31.36-.58.37-.12.36.81.36.4.36.1.37.36.36.13.36-.38.36-4.04.36.84.37-.36.36 2.49.36.12.36-.58.36-.08.37.92.36.72.36-.62.36.34.36.46.37-.29.36-.19.36.99.36-.62.36.23.37.05.36-.3.36-.03.36.04.37-.72.36.47.36.15.36.16.36.25.37-.32.36-.66.36.06.36.12.36.63.37-.06.36-103.23.36 27.56.36 3.13.36 2.2.37 1.48.36-19.37.36 17.79.36 2.81.37-.43.36-.52.36-13.48.36-1.14.36 10.76.37-.12.36 1.17.36-10.71.36 9.72.36-.41.37-1.38.36-.44.36 2.35.36-10.53.36 9.96.37-.54.36.45.36-9.01.36-2.03.36 8.96.37-1.12.36.13.36 2.84.36-24.38.37 21.04.36-1.83.36.55.36-.58.36-19.42.37 22.27.36.29.36 1.16.36-.75.36-9.88.37 8.66.36.91.36-1.01.36.41.36-10.11.37 10.35.36-.85.36.82.36 68.52.37 1.41.36 2.08.36-.22.36.86.36.25.37-1.19.36.68.36-3.08.36 3.41.36.37.37.93.36-.56.36.62.36-1.96.36-.83.37.53.36.54.36-.14.36.84.37 2.03.36-.74.36-.08.36-.18.36-.21.37-.44.36.95.36-.36.36-.61.36.83.37 1.06.36-.68.36-.2.36.36.36-.36.37-.15.36.51.36.14.36-.7.36.24.37-.83.36-.25.36.25.36-.25.37.51.36-2.13.36.68.36.85.36.17.37-.28.36-80.89.36 2.46.36 2.52.36 11.35.37 1.34.36.58.36-11.18.36-1.89.36 12.09.37-1.16.36 1.29.36-.47.36-11.15.37 10 .36.77.36.31.36-.35.36-10.19.37 8.9.36 1.03.36-.7.36-.95.36-9.18.37 8.39.36 1.02.36-.31.36 1.49.36-19.96.37 20.02.36-.23.36-.98.36.98.36-9.92.37-1.12.36 10.99.36-.74.36.45.37-10.96.36 8.07.36 1.46.36.08.36-.1.37-.09.36-11.52.36 10.19.36.98.36.14.37-.43.36-10.23.36 9.28.36 67.61.36 1.07.37.07.36.46.36.93.36-.07.37-.2.36.07.36 1.08.36-.33.36.05.37.87.36.02.36.1.36-.48.36.21.37.5.36-.07.36.76h.36l.36-.02.37.38.36-.2.36-.67.36 1.61.36-.58.37-.76.36.1.36.52.36-.75.37.21.36.15.36.06.36-.11.36.08.37.09.36-.51.36-.11.36.93.36-.84.37-.14.36.09.36-.24.36.05.36.11.37.03.36.23.36-.15.36-.27.37.09.36-78.81.36 11.26.36 3.45.36-19.86.37 20.91.36.72.36-1.54.36 1.59.36-20.74.37 18.57.36.16.36 1.27.36-.69.36-11.5.37 11.2.36-.89.36-.78.36-.82.37-9.55.36 9.44.36-.77.36.76.36-.06.37-9.88.36 7.87.36.25.36-.28.36 1.15.37-10.28.36-3.55.36 10.58.36-.02.36.6.37-11.47.36.27.36 10.87.36-.56.36-.33.37.32.36-14.23.36 12.28.36 1.18.37-.86.36.47.36-9.55.36 10.33.36-.6.37-.61.36-.07.36-13.7"/><use xlink:href="#d" color="#F44336" transform="matrix(3.75 0 0 3.75 67.83 106.56)"/><use xlink:href="#d" color="#F44336" transform="matrix(3.75 0 0 3.75 112.25 22.51)"/></g><text stroke-linecap="round" stroke-linejoin="round" color="#000" font-family="KaTeX_Main" font-size="8" transform="translate(241.1 10.11)"><tspan>WBSTBottomUp</tspan></text><g fill="none" stroke="currentColor" stroke-linecap="round" stroke-linejoin="round" color="#000"><path stroke="#000" d="M205.6 7.51h29.9M28 83.38l.36 8.3.36-.14.37-.87.36-.22.36-18.8.36 16.72.36-.27.37.54.36-.09.36-10.33.36-1.46.37 9.49.36.69.36-1.34.36-9.82.36 9.81.37 1.68.36-.99.36-.45.36-.42.36-10.15.37 8.81.36-.57.36-.17.36.96.36-11.11.37 9.44.36-.43.36.73.36-1.3.36-19.4.37 18.05.36 1.67.36-.65.36.04.37-20.53.36 18.66.36-.16.36-.09.36-.69.37-7.99.36 8.49.36-.67.36-.26.36-.16.37-10.32.36 9.04.36-1.07.36 2.77.36-.54.37 97.78.36 2.03.36.69.36.64.37.84.36-.87.36.06.36.23.36.29.37.47.36-.26.36-.82.36.45.36-.05.37-.05.36-.17.36-.19.36 1.13.36-.03.37-.81.36-.02.36.99.36-1.1.37-.12.36.83.36.79.36-.08.36-.32.37-.73.36.6.36-.31.36-.07.36-.4.37 1.03.36.04.36.52.36-.19.36.27.37-.34.36.11.36-.37.36.71.36.17.37-.15.36-.57.36 1 .36-1.04.37.53.36-.19.36.2.36-110.15.36 5.19.37 11.22.36-.22.36.46.36-10.09.36-.63.37 10.13.36-.6.36-.82.36-.35.36-19.24.37 18.24.36.01.36.42.36 1.04.37-10.43.36 8.63.36-.66.36.37.36-.72.37-10.84.36 9.52.36 1.12.36-.79.36-.13.37-19.91.36 18.96.36-.91.36-.02.36-1.2.37-7.92.36-1.24.36 9.68.36-.91.36.53.37-9.44.36-1.44.36 8.75.36 1.27.37-.42.36.14.36-11.49.36 9.72.36.34.37-.9.36-.63.36-8.88.36 10.56.36-.35.37 98.95.36 1.67.36.42.36.46.36.49.37-.02.36-.26.36.8.36.44.37.11.36-1.21.36.7.36-.02.36.13.37-.4.36.41.36.48.36-.05.36.49.37-.03.36.7.36-1.64.36.45.36-.38.37 1.35.36-.16.36-.37.36-.69.36.53.37-.66.36.44.36.06.36.54.37-.05.36.73.36.13.36.15.36-.07.37-.3.36-.03.36.07.36.49.36.15.37-.83.36.93.36.14.36-.14.36-.18.37.27.36.39.36-105.11.36 7.71.37-17.82.36 19.25.36.4.36-.27.36.54.37-20.41.36 18.79.36.05.36.8.36-1.44.37-10.01.36 8.88.36 1.66.36-.7.36-.51.37-10.28.36 9.28.36-.91h.36l.37-.63.36 1.04.36-9.94.36 8.8.36-.97.37.05.36-10.34.36-1 .36 9.18.36 1.8.37-.22.36-.65.36-19.36.36 17.94.36.35.37-.09.36-.75.36-9.8.36 9.61.36-.18.37-.58.36.26.36-10.34.36 8.79.37-.36.36.99.36 1.69.36-10.58.36 8.71.37 100.25.36 1.17.36.76.36.89.36-.35.37.39.36.31.36.77.36-.74.36-.09.37-.49.36.78.36-.38.36.54.37-.33.36.83.36.29.36-.09.36-.37.37.69.36-.86.36.16.36.2.36.14.37-.34.36.29.36-.81.36 1 .36-.28.37-.02.36-.59.36.61.36.65.36.41.37-.48.36.98.36-.22.36-.35.37.24.36.54.36-.19.36.27.36-.92.37.22.36.68.36-.67.36.2.36.15.37.1.36.57.36-106.74.36 8.96.36 1.63.37-9.91.36-.13.36 11.25.36-.57h.37l.36-10.66.36.39.36 8.19.36.09.37-.77.36 1.61.36-10.75.36 9.22.36-.62.37.36.36-.96.36-9.33.36 7.93.36 1.09.37-.36.36-.75.36-10.47.36 9.82.36-.56.37-.7.36-.79.36-17.61.36 19.03.37-.7.36-.28.36-.08.36-20.14.36 18.78.37-.4.36.3.36.55.36-11.07.36 9.59.37-.61.36.42.36-1.42.36-9.18.36 8.48.37 2.42.36-.62.36-.12.36-1.31.37 101.66.36 1.46.36 1.08.36-.16.36.37.37-.12.36.53.36-.67.36.5.36-.31.37.42.36-.43.36.58.36.01.36.44.37-.01.36-.12.36.29.36.3.37-.28.36-.45.36-.08.36.51.36.37.37-.41.36-.42.36.53.36-.47.36.47.37-.4.36.66.36-.08.36.59.36.13.37-.01.36.24.36-.31.36-.32.36-.09.37.94.36-.04.36-.15.36-.32.37.54.36-.12.36-.33.36.02.36.56.37-.3.36.65.36-116.43.36 17.51.36 2.17.37.17.36-7.28.36-1.05.36 9.12.36-1.18.37.67.36-1.38.36-19.22.36 17.84.37 1.44.36-.21.36-.04.36-10.64.36 9.35.37-.42.36-.32.36-.58.36-9.55.36 9.58.37-.14.36-.51.36-.06.36-19.09.36 17.42.37-.17.36.38.36.78.36-10.28.36-1.3.37 9.53.36.84.36-.9.36-10.55.37-.3.36 9.95.36-.92.36.2.36-.67.37-9.03.36 8.42.36.19.36-1.16.36 2.53.37-10.05.36 9.18.36-.91.36.6.36 100.17.37 2.73.36-.69.36 1.25.36.36.37.25.36-.05.36-.1.36-.51.36.53.37-.73.36.23.36-.22.36.96.36.3.37-.16.36-.15.36.38.36-.04.36-.18.37-.42.36.39.36.6.36-.18.37-.69.36.26.36.32.36.12.36-.58.37-.1.36.15.36.59.36.08.36-.19.37-.3.36.7.36-.43.36.4.36.21.37.06h.36l.36-.31.36.89.36-1.15.37.47.36-.33.36 1.02.36.22.37-.36.36-.12.36-106.06.36-10.48.36 20.45.37 1.83.36.16.36-.43.36-20.49.36 19.42.37-.45.36-.24.36-1.16.36-8 .36-1.26.37 9.28.36-.72.36.5.36-10.01.37 8.61.36-.6.36.4.36.51.36-.84.37-10.26.36 8.92.36.05.36-.72.36-10.28.37-.38.36 11.45.36-.66.36-.71.36-.32.37-19.6.36 18.31.36-.04.36-.28.36.99.37-11.03.36 9.7.36-1.05.36.82.37-1.24.36-9.76.36 8.3.36 3.17.36-.82.37.2.36-10.55.36 9.34.36.02.36 100.49.37 1.83.36.97.36-.28.36.48.36.12h.37l.36-.8.36.75.36-.01.37-.22.36-.3.36.44.36.68.36.82.37-.22.36.09.36-.27.36-.21.36-.17h.37l.36.17.36.27.36-.44.36.33.37.48.36-.49.36-.54.36.18.36.71.37-.23.36.38.36.21.36.7.37-1.06.36.38.36-.64.36.97.36.45.37.22.36-1.18.36.78.36-.36.36.29.37-.06.36.53.36.14.36.41.36-.71.37.42.36-106.88.36 7.75.36-6.52.37.2.36 9.89.36-.15.36-.28.36-9.59.37-1.34.36 9.05.36.51.36.35.36-.36.37-10.98.36 9.85.36-.35.36.08.36-1.11.37-9.53.36 9.85.36-.63.36-.39.37-.96.36-8.83.36 8.44.36-.37.36-.33.37.84.36-20.17.36 18.83.36-.45.36.56.37-1.03.36-9.74.36-.79.36 10.73.36-.98.37-.32.36-10.17.36 9.6.36-.67.36.05.37-.87.36 1.68.36-8.87.36 8.69.37-.81.36.26.36-.58.36-10.47.36 110.82.37 2.29.36.04.36.37.36.53.36-.06.37-.61.36.61.36.29.36.1.36-.52.37.24.36.85.36.61.36-.01.37.3.36.23.36-1.01.36.54.36.09.37.14.36.03.36-.24.36-.59.36.42.37-.18.36.35.36-.81.36 1.32.36-.12.37.07h.36l.36.33.36-.25.36.04.37-.08.36.23.36.46.36.05.37-.62.36.23.36-.07.36.24.36-.41.37.94.36.37.36.26.36-.94h.36l.37.09.36-107.58.36 9.76.36 1.71.36.85.37-19.44.36 19.32.36-.1.36-.72.37-.91.36-19.06.36 19.82.36-.2.36-.6.37-.26.36-9.81.36 8.71.36-.57.36.2.37.11.36-10.18.36 8.79.36-.38.36.06.37-.76.36-10.06.36 8.41.36 2.42.36-.84.37-.1.36-10.72.36-.06.36 8.88.37-.78.36.18.36-9.24.36-2.13.36 10.43.37-.44.36.52.36-.41.36-10.31.36 9.08.37 1.44.36.39.36-.84.36-10.42.36 9.49.37.18.36-.59.36-.81.36 101.98.37 1.25.36.35.36.65.36.07.36-1.1.37.71.36.99.36-.19.36-.1.36-.21.37 1.06.36.06.36.18.36-.29.36 1.07.37-1.07h.36l.36.05.36 1.03.37-.29.36-.37.36-.5.36.87.36-.63.37.48.36-.18.36.86.36.09.36.27.37-.64.36 1.17.36-.13.36-.54.36.19.37.12.36.61.36-.11.36-.81.36.44.37-.17.36-.08.36-.28.36.44.37.5.36-.53.36-.76.36.59.36.51.37-.51.36-126.49.36 28.72.36 1.91.36.73.37-.25.36-18.77.36 18.06.36-.09.36-1.13.37 1.5.36-10.06.36-1.26.36 9.27.37.55.36-1.09.36-9.13.36 7.63.36 1.59.37-.99.36-.04.36-.86.36-10.81.36 10.21.37.19.36-1.22.36-7.8.36-1.5.36 10.37.37-1.33.36.58.36-.73.36-20.51.36 18.57.37.73.36.2.36.12.36-20.01.37 17.87.36.36.36.07.36-.67.36-9.28.37 10.6.36-.4.36-.66.36-.13.36-9.32.37 8.75.36-.23.36-.78.36 100.87.36 2.12.37 1.13.36.24.36-.14.36-.05.37.61.36-.66.36.63.36-.2.36.25.37.44.36.56.36-.23.36.74.36-.96.37-.22.36.24.36.75.36.14.36-.12.37-.77.36.93.36-.52.36.55.36-.57.37.58.36-.04h.36l.36.04.37.68.36-.62.36.67.36-.67.36.44.37.35.36.01.36-.67.36-.14.36.57.37-.13.36-.03.36.05.36.45.36.2.37-.76.36-.49.36 1.06.36-.14.37.01.36-106.49.36-1.59.36 1.37.36 10.53.37.97.36-.84.36-9.96.36-2.24.36 11.98.37-.48.36-.56.36-.73.36-9.14.36 8.83.37.29.36-1.34.36 1.34.36-11.06.37 9.87.36-1.02.36.38.36-.62.36-9.75.37 8.75.36 1.01.36-.03.36-.38.36-20.93.37 19.69.36-.34.36-.37.36-.91.36-9.35.37-.6.36 9.87.36-.62.36-.31.36-9.91.37 8.73.36.29.36.11.36 1.82.37-.95.36-10.81.36 9.61.36.21.36-.58.37-.67.36-10.34.36 10.52"/><use xlink:href="#b" transform="matrix(3.75 0 0 3.75 125.4 178.97)"/><use xlink:href="#b" transform="matrix(3.75 0 0 3.75 220.55 7.51)"/></g><text stroke-linecap="round" stroke-linejoin="round" color="#000" font-family="KaTeX_Main" font-size="8" transform="translate(241.1 25.11)"><tspan>WBSTTopDown</tspan></text><g fill="none" stroke="currentColor" stroke-linecap="round" stroke-linejoin="round" color="#000"><path stroke="#29C3F6" stroke-dasharray="4.0,2.0,1.0,2.0" d="M205.6 22.51h29.9M28 107.06l.36 9.63.36.44.37-1.02.36.1.36-11.6.36 11.06.36-1.3.37.13.36.74.36-12.22.36 8.46.37.65.36.46.36-.9.36-20.07.36 22.54.37.38.36-1.79.36-1.15.36-20.06.36 19.54.37-.56.36.67.36-1.47.36-17.27.36 17.35.37.41.36-1.5.36 1.64.36-11.27.36 8.22.37.91.36 1.47.36-1.48.36-9.63.37 8.97.36-.32.36-.25.36.34.36-10.87.37.12.36 10.16.36.43.36-1.68.36-9.51.37-1.92.36 9.16.36.14.36 4.36.36-1.15.37 59.42.36 1.5.36 1.81.36-.3.37.81.36-.73.36.68.36-.24.36 1.2.37-.25.36-.31.36-.8.36 1.38.36-.92.37.63.36-.63.36.3.36.49.36.41.37-1.25.36.75.36.56.36-.79.37-.54.36.56.36-.16.36 1.31.36-.96.37.86.36-.44.36-.28.36-.33h.36l.37-.18.36.88.36-.27.36.01.36.24.37-.09.36.46.36-.42.36.45.36.03.37-.16.36-.09.36.05.36-.14h.37l.36-.13.36.31.36-79.07.36 17.04.37 3.41.36.61.36-.78.36-10.96.36 10.41.37.57.36.13.36-.94.36-9.19.36 8.18.37-.11.36.72.36-1.55.36-17.32.37 18.05.36-.86.36-.43.36 1.02.36-10.18.37-1.01.36 8.66.36 1.63.36-.86.36-10.56.37 9.46.36.57.36-.79h.36l.36-2.51.37-5.96.36 8.55.36.26.36-2.12.36 1.35.37-10.5.36 8.05.36-.96.36 2.74.37-.94.36-21.38.36 19.91.36 1.33.36-1.94.37-.86.36-19.98.36 21.27.36 1.64.36-1.13.37 61.74.36 3.06.36-.76.36 2.06.36-.55.37.35.36-.42.36-.16.36.71.37.41.36-1.26.36.33.36.1.36-.16.37.46.36.06.36.26.36.26.36-.71.37 1.08.36-.17.36-.81.36.29.36.04.37-.14.36-.04.36.07.36.03.36.71.37-.96.36 1.19.36-1.48.36 1.27.37.06.36-.32.36.51.36.17.36-.18.37-.25.36-.41.36.51.36.02.36-.58.37.48.36.96.36-1.21.36.89.36-.1.37-.66.36.68.36-70.59.36-1 .37 10.6.36.62.36.97.36-1.41.36-7.28.37 8.06.36-.64.36-.23.36.94.36-1.21.37-9.54.36 8.41.36 1.88.36-.54.36-9.56.37-2.69.36 11.19.36-1.33.36 1.02.37-2.57.36-19.59.36 19.71.36.26.36-.68.37 1.08.36-11.29.36 9.64.36-2.62.36 3.12.37-.25.36-10.28.36 8.36.36.65.36.23h.37l.36-11.73.36 9.82.36 1.43.36-.74.37-1.95.36-8.15.36-1.47.36 8.73.37 1.2.36-.37.36-7.05.36-2.91.36 10.45.37 62.5.36 2.27.36.89.36.01.36.92.37-.35.36.96.36.5.36-.99.36-.22.37.52.36.57.36-.52.36-.02.37.29.36.51.36-.38.36-.15.36-.64.37.87.36.36.36-.93.36.63.36-.17.37-.2.36.01.36.28.36-.02.36.98.37-.96.36-.24.36 1.02.36-.25.36.16.37-.12.36.41.36.38.36.39.37-.45.36-.14.36.1.36.01.36-.28.37-1.15.36.99.36.4.36.05.36-.6.37.52.36.17.36-73.58.36 11.07.36 1.09.37-8.56.36 9.8.36 1.94.36-1.75.37.28.36-11.6.36 10.57.36-.4.36-.96.37-1.8.36-16.89.36 19.96.36-.79.36-1.59.37 1.24.36-20.98.36 18.7.36-.77.36 1.34.37.76.36-11.75.36-.71.36 10.96.36-.3.37-1.97.36-10.94.36 11.28.36.82.37.25.36-2.64.36 1.42.36-9.72.36 8.06.37 1.21.36-.56.36-8.9.36-.52.36 8.13.37.07.36-.18.36-.4.36-19.61.36 19.04.37 2.31.36-.23.36-.34.36-19.68.37 82.3.36 1.62.36 1.29.36-.33.36.94.37-.62.36.7.36.49.36-.39.36-.68.37.7.36-.21.36.37.36.23.36.28.37-.28.36.51.36-.35.36-.13.37.21.36-.41.36-.11.36.09.36.61.37-.9.36.04.36.72.36-.19.36-.13.37-.26.36.54.36.37.36.14.36.23.37.11.36.01.36-.91.36.47.36.11.37.04.36-.02.36.21.36.11.37-.01.36-.15.36-.74.36.74.36-.07.37-.31.36.33.36-73.29.36 10.26.36 3.38.37-1.52.36-9.83.36 10.11.36.99.36-.55.37-.31.36-10.93.36 9.92.36-2.02.37 3.99.36-1.25.36-19.87.36 18.37.36.47.37-.56.36-.31.36-10.77.36.72.36 10.51.37-1.13.36-.54.36-9.72.36 8.32.36-.6.37 1.1.36.75.36-.09.36-10.57.36 9.24.37-1.26.36 1.59.36-1.27.36-11.09.37 10.09.36 1.71.36-2.67.36 1.06.36-20.76.37 20.19.36-2.24.36.69.36-1.46.36-14 .37 16.85.36.46.36-1.69.36.56.36 62.81.37 3.65.36-1.08.36 1.08.36.34.37-.44.36.68.36.45.36-.33.36.66.37-.86.36.34.36-.53.36-.18.36 1.22.37-.39.36-.07.36.48.36-.22.36.16.37-1 .36.56.36.29.36.62.37-.92.36.13.36.37.36-.09.36-.37.37.44.36-.35.36.56.36-.84.36.87.37.46.36-.43.36-.23.36.1.36.51.37-.29.36-.12.36.18.36-.01.36-.97.37.85.36.32.36-.56.36.78.37.09.36-.5.36-81.72.36 19.51.36 1.53.37 2.82.36.09.36-10.55.36 7.2.36.63.37-1.16.36.19.36-1 .36-7.64.36 10.58.37-.59.36-2.33.36-7.73.36-2.51.37 9.94.36-.96.36 1.2.36.87.36-20.62.37 18.62.36.06.36-1.02.36-.24.36-10.33.37 10.43.36.7.36-.46.36-.8.36-10.18.37 10.69.36-.84.36.3.36-1.14.36-8.58.37 8.52.36-1.12.36-1.05.36 1.58.37-11.16.36-1.34.36 11.54.36 1.19.36-1.49.37-10.3.36-.79.36 12.01.36-.57.36 62.64.37 1.99.36.69.36.55.36 1.28.36-.69.37-.69.36-.53.36.72.36-.29.37-.61.36 1.79.36-.91.36.41.36.92.37-.35.36.92.36-1.18.36.15.36-.73.37.05.36-.18.36 1.64.36-.72.36-.35.37.42.36-.38.36-.38.36.37.36.53.37.17.36.66.36-3.52.36-3.62.37-1.46.36 1.27.36 3.65.36 1.84.36-5.62.37 3.74.36-.44.36 2.55.36-.26.36-.08.37-.7.36-.36.36.17.36.81.36-.84.37.27.36-73.29.36 9.95.36-5.06.37 11.61.36-.33.36.61.36-1.27.36-10.65.37 8.76.36-1.91.36 3.71.36 1.13.36-11.31.37 8.67.36.33.36-.09.36-1.82.36-19.77.37 19.42.36.41.36-.35.36-.76.37-12.55.36-3.46.36 11.82.36.49.36 1.78.37-8.11.36 8.42.36.1.36.42.36.21.37-1.19.36-10.44.36 9.42.36 2.27.36-1.31.37-10.06.36-3.61.36 9.75.36-.39.36.27.37-1.87.36-16.46.36 19.55.36.36.37-.46.36-.8.36-20.36.36 18.6.36 63.92.37 2.75.36-.16.36 2.3.36.44.36.34.37-.49.36 1 .36.03h.36l.36-.46.37-.07.36 1.18.36-.3.36.88.37-.09.36-.35.36-.67.36.94.36-6.46.37.82.36.85.36 1.03.36.42.36 1.5.37-.5.36-.1.36.08.36 1.17.36-.62.37.06.36.21.36.57.36-.01.36-.36.37-.25.36-.21.36 1.15.36-.56.37.1.36.72.36-.05.36.39.36-.53.37 1.09.36.14.36 1.09.36-.99.36.23.37-.23.36-76.53.36 11.38.36 2.64.36-9.67.37 11.49.36.17.36.11.36 1.22.37-12.3.36 8.08.36 3.71.36-5.4.36-1.09.37-6.77.36-1.1.36 11.01.36-1.1.36.62.37-9.59.36-4.09.36 11.04.36-.88.36-9.98.37 5.15.36-19.53.36 19.95.36 4.28.36-.91.37-.6.36-10.49.36 9.61.36.75.37-1.22.36-.36.36-7.67.36 8.35.36.01.37-1.4.36.02.36-20.43.36 18.14.36.17.37 2.53.36 2.18.36-20.94.36 17.06.36 1.09.37.57.36-2.17.36-11.98.36 67.58.37 10.08.36-.97.36 3.35.36-.33.36-1.37.37 1.19.36.46h.36l.36-.17.36.51.37-1.24.36.38.36-1.4.36 1.89.36.39.37-.57.36-.41.36.37.36 1.2.37-4.42.36 1.81.36-.8.36.81h.36l.37 2.94.36-.14.36.95.36-.65.36.96.37-.41.36.66.36-.47.36.66.36-.13.37-.05.36.22.36-.33.36-.19.36.3.37.01.36-.72.36.31.36.14.37-.01.36.34.36-.44.36.17.36.7.37-1.26.36-76.3.36 11.74.36 1.4.36 2.37.37-10.23.36 8.69.36.83.36-1.01.36-.16.37 1.82.36-9.94.36 8.75.36.16.37.75.36-11.87.36-.39.36 8.87.36 1.96.37-.98.36.64.36-19.23.36 18.14.36.09.37-.09.36-.51.36-9.35.36 10.03.36.98.37-1.76.36.12.36-9.74.36 8.42.36.65.37-.09.36-1.1.36-9.3.36 6.84.37 1.21.36 1.61.36-1.07.36-11.27.36 1.15.37 12.63.36-2.18.36.71.36-11.01.36-.02.37 9.5.36.15.36-1.17.36 64.66.36 2.6.37-.7.36 2.08.36-.59.36.5.37.14.36 1.02.36.09.36-.18.36 1.62.37.19.36.68.36-1.22.36 1.28.36-.4.37.08.36-.2.36.54.36-.07.36.12.37-.76.36.95.36-.6.36.09.36.21.37.43.36-.35.36.11.36-.08.37.52.36-.27.36-.05.36-.09.36.57.37.03.36.66.36-1.56.36-.01.36.48.37.37.36-.54.36.83.36.01.36-.06.37-.65.36.03.36.13.36-.13.37.19.36-74.09.36-2.27.36 14.01.36-.34.37 1.92.36-.95.36-10.81.36 10.06.36 3.37.37-2.4.36 1.27.36-12.63.36 9.89.36 1.15.37.29.36-2.07.36-18.2.36 18.84.37-.05.36-1.81.36 2.23.36-12.37.36.27.37 9.06.36 1.27.36.44.36-10.73.36 9.98.37-.12.36-1.15.36.38.36-2.01.36-9.57.37 10.33.36-.46.36-.29.36-1.17.36-12.38.37 9.26.36.48.36 1.5.36 2.39.37-24.13.36 18.91.36 2.61.36 1.66.36-1.97.37-20.49.36 19.81.36 3.18"/><use xlink:href="#e" color="#29C3F6" transform="matrix(3.75 0 0 3.75 182.98 105.36)"/><use xlink:href="#e" color="#29C3F6" transform="matrix(3.75 0 0 3.75 220.55 22.51)"/></g><path fill="none" d="M28 45.01V205M371.99 45.01H28" color="#000"/></svg>