<svg xmlns="http://www.w3.org/2000/svg" xmlns:xlink="http://www.w3.org/1999/xlink" viewBox="0 0 400 250"><path fill="none" d="M0 0h400v250H0z"/><defs><path id="c" stroke="currentColor" stroke-width=".267" d="M-1-1h2v2h-2z"/><path id="b" stroke="currentColor" stroke-width=".267" d="m0-1.33-1.33 2h2.66z"/><use xlink:href="#a" id="d" fill="currentColor" stroke="none"/><use xlink:href="#b" id="e" fill="currentColor" stroke="none"/><circle id="a" cx="0" cy="0" r="1" stroke="currentColor" stroke-width=".267"/></defs><path fill="none" stroke="#333" stroke-linecap="round" stroke-linejoin="round" stroke-width=".1" d="M46.1 205V45.01" class="gridline" color="#000"/><g fill="none" stroke-linecap="round" stroke-linejoin="round" stroke-width="0" color="#000"><path d="M46.1 205v-7.5m0-152.49v7.5"/><text fill="#000" font-family="KaTeX_Main" font-size="8" text-anchor="middle" transform="translate(46.1 215.1)"><tspan> 1</tspan></text></g><path fill="none" stroke="#333" stroke-linecap="round" stroke-linejoin="round" stroke-width=".1" d="M82.31 205V45.01" class="gridline" color="#000"/><g fill="none" stroke-linecap="round" stroke-linejoin="round" stroke-width="0" color="#000"><path d="M82.31 205v-7.5m0-152.49v7.5"/><text fill="#000" font-family="KaTeX_Main" font-size="8" text-anchor="middle" transform="translate(82.31 215.1)"><tspan> 2</tspan></text></g><path fill="none" stroke="#333" stroke-linecap="round" stroke-linejoin="round" stroke-width=".1" d="M118.52 205V45.01" class="gridline" color="#000"/><g fill="none" stroke-linecap="round" stroke-linejoin="round" stroke-width="0" color="#000"><path d="M118.52 205v-7.5m0-152.49v7.5"/><text fill="#000" font-family="KaTeX_Main" font-size="8" text-anchor="middle" transform="translate(118.52 215.1)"><tspan> 3</tspan></text></g><path fill="none" stroke="#333" stroke-linecap="round" stroke-linejoin="round" stroke-width=".1" d="M154.73 205V45.01" class="gridline" color="#000"/><g fill="none" stroke-linecap="round" stroke-linejoin="round" stroke-width="0" color="#000"><path d="M154.73 205v-7.5m0-152.49v7.5"/><text fill="#000" font-family="KaTeX_Main" font-size="8" text-anchor="middle" transform="translate(154.73 215.1)"><tspan> 4</tspan></text></g><path fill="none" stroke="#333" stroke-linecap="round" stroke-linejoin="round" stroke-width=".1" d="M190.94 205V45.01" class="gridline" color="#000"/><g fill="none" stroke-linecap="round" stroke-linejoin="round" stroke-width="0" color="#000"><path d="M190.94 205v-7.5m0-152.49v7.5"/><text fill="#000" font-family="KaTeX_Main" font-size="8" text-anchor="middle" transform="translate(190.94 215.1)"><tspan> 5</tspan></text></g><path fill="none" stroke="#333" stroke-linecap="round" stroke-linejoin="round" stroke-width=".1" d="M227.15 205V45.01" class="gridline" color="#000"/><g fill="none" stroke-linecap="round" stroke-linejoin="round" stroke-width="0" color="#000"><path d="M227.15 205v-7.5m0-152.49v7.5"/><text fill="#000" font-family="KaTeX_Main" font-size="8" text-anchor="middle" transform="translate(227.15 215.1)"><tspan> 6</tspan></text></g><path fill="none" stroke="#333" stroke-linecap="round" stroke-linejoin="round" stroke-width=".1" d="M263.36 205V45.01" class="gridline" color="#000"/><g fill="none" stroke-linecap="round" stroke-linejoin="round" stroke-width="0" color="#000"><path d="M263.36 205v-7.5m0-152.49v7.5"/><text fill="#000" font-family="KaTeX_Main" font-size="8" text-anchor="middle" transform="translate(263.36 215.1)"><tspan> 7</tspan></text></g><path fill="none" stroke="#333" stroke-linecap="round" stroke-linejoin="round" stroke-width=".1" d="M299.57 205V45.01" class="gridline" color="#000"/><g fill="none" stroke-linecap="round" stroke-linejoin="round" stroke-width="0" color="#000"><path d="M299.57 205v-7.5m0-152.49v7.5"/><text fill="#000" font-family="KaTeX_Main" font-size="8" text-anchor="middle" transform="translate(299.57 215.1)"><tspan> 8</tspan></text></g><path fill="none" stroke="#333" stroke-linecap="round" stroke-linejoin="round" stroke-width=".1" d="M335.78 205V45.01" class="gridline" color="#000"/><g fill="none" stroke-linecap="round" stroke-linejoin="round" stroke-width="0" color="#000"><path d="M335.78 205v-7.5m0-152.49v7.5"/><text fill="#000" font-family="KaTeX_Main" font-size="8" text-anchor="middle" transform="translate(335.78 215.1)"><tspan> 9</tspan></text></g><path fill="none" stroke="#333" stroke-linecap="round" stroke-linejoin="round" stroke-width=".1" d="M371.99 205V45.01" class="gridline" color="#000"/><g fill="none" stroke-linecap="round" stroke-linejoin="round" stroke-width="0" color="#000"><path d="M371.99 205v-7.5m0-152.49v7.5"/><text fill="#000" font-family="KaTeX_Main" font-size="8" text-anchor="middle" transform="translate(371.99 215.1)"><tspan> 10</tspan></text></g><g fill="none" stroke-linecap="round" stroke-linejoin="round" stroke-width="0" color="#000"><path d="M371.99 205h-7.5"/><text fill="#000" font-family="KaTeX_Main" font-size="8" transform="translate(378.99 207.6)"><tspan>0</tspan></text></g><g fill="none" stroke-linecap="round" stroke-linejoin="round" stroke-width="0" color="#000"><path d="M371.99 45.01h-7.5"/><text fill="#000" font-family="KaTeX_Main" font-size="8" transform="translate(378.99 47.61)"><tspan>1</tspan></text></g><path fill="none" d="M28 45.01V205M371.99 45.01H28" color="#000"/><text stroke-linecap="round" stroke-linejoin="round" stroke-width="0" color="#000" font-family="KaTeX_Main" font-size="10" text-anchor="middle" transform="rotate(-90 68.255 56.755)"><tspan>log</tspan><tspan dy="3" font-size="8">2</tspan><tspan dy="-3">(</tspan><tspan font-weight="bold">MaximumPathLength </tspan><tspan> / log</tspan><tspan dy="3" font-size="8">2</tspan><tspan dy="-3">(Size))</tspan></text><text stroke-linecap="round" stroke-linejoin="round" stroke-width="0" color="#000" font-family="KaTeX_Main" font-size="10" text-anchor="middle" transform="translate(199.99 238.25)"><tspan>Operations × 10</tspan><tspan dy="-5" font-size="8">5</tspan></text><text stroke-linecap="round" stroke-linejoin="round" color="#000" font-family="KaTeX_Main" font-size="8" transform="translate(132.8 10.11)"><tspan>LBSTBottomUp</tspan></text><g fill="none" stroke="currentColor" stroke-linecap="round" stroke-linejoin="round" color="#000"><path stroke="#3B75EA" d="M97.3 7.51h29.9M28 172.11l.36-4.65.36.41.37.41.36-2.1.36 2.88.36 2.91.36.37.37.37.36-2.17.36.36.36-2.15.37.34.36.33.36-2.14.36 2.79.36-4.59.37 2.76.36.3.36-2.14.36 2.74.36-2.15.37.29.36.29.36.28.36-2.14.36-2.12.37-2.1.36 2.63.36.26.36-2.11.36.26.37.25.36.24.36.25.36 2.61.37.23.36 2.63.36 2.65.36.23.36-4.58.37.22.36 2.61.36.22.36-2.18.36.22.37.21.36.21.36.2.36 2.6.36.2.37-.2.36-.21.36-.2.36-.21.37-.21.36-.22.36-.21.36-.22.36-.22.37-.22.36-.23.36-.23.36-.23.36-.24.37-.23.36-.24.36-.25.36-.24.36 2.16.37 2.19.36-.26.36-.26.36-.26.37-.27.36 2.2.36-.28.36-.28.36-.28.37-.29.36-.3.36-.3.36-.3.36-.31.37-.31.36-.32.36-.32.36 2.17.36-.34.37-.34.36-.34.36 2.17.36-.36.36-.37.37-.37.36-.38.36-.39.36-.4.37-.4.36-.42.36 4.71.36.42.36-2.16.37.4.36.4.36.39.36-2.17.36.37.37.37.36.36.36-2.17.36 2.87.36-2.19.37 2.86.36.33.36-4.7.36-2.15.37.32.36.3.36.31.36.29.36.3.37-4.57.36-2.11.36 2.67.36 2.69.36-2.14.37 2.68.36.27.36.26.36-2.16.36.25.37 2.67.36 2.69.36-2.2.36-2.17.36-2.16.37.24.36-2.14.36.23.36 2.6.37.22.36.22.36 2.61.36.21.36-2.17.37-2.16.36 2.58.36.2.36.2.36.21.37 2.19.36-.21.36-.2.36-.21.36-.21.37-.22.36-.21.36-.22.36-.22.37-.22.36 2.19.36-.23.36-.23.36-.24.37-.24.36-.24.36-.24.36-.25.36-.25.37-.25.36-.26.36-.26.36-.27.36-.26.37-.28.36-.27.36-.28.36-.29.36-.29.37-.29.36-.3.36-.3.36-.31.37-.31.36 2.13.36-.33.36-.33.36-.33.37-.34.36-.35.36-.35.36-.36.36-.37.37 2.1.36-.38.36-.39.36-.4.36 2.09.37 2.11.36-.42.36.42.36.42.37.4.36.4.36.39.36.38.36.37.37.37.36.36.36-2.17.36.34.36.34.37-4.63.36-2.11.36 2.77.36 2.78.36.31.37-2.16.36.31.36 2.76.36.3.37.29.36-2.19.36.28.36.28.36-2.17.37.26.36 2.71.36-2.18.36.26.36.25.37.25.36-4.56.36.24.36 2.64.36-2.16.37.24.36.23.36 2.62.36.23.36-2.17.37 2.61.36.22.36-2.18.36 2.61.37.21.36.21.36 2.62.36.2.36-2.21.37-.2.36-.21.36-.2.36-.21.36-.21.37-.22.36-.21.36-.22.36 2.2.36-.23.37-.22.36-.23.36-.23.36-.24.37 2.21.36-.24.36-.25.36-.25.36-.25.37-.25.36-.26.36-.26.36-.26.36-.27.37-.27.36-.28.36-.28.36-.28.36-.29.37-.3.36 2.17.36-.3.36-.31.36-.31.37-.32.36-.32.36-.33.36-.33.37-.34.36-.35.36-.35.36-.36.36-.37.37-.37.36-.38.36 2.11.36-.4.36 2.12.37 2.13.36-.42.36-2.13.36 2.97.36-2.15.37.4.36.39.36.38.36.37.37.37.36.36.36-2.17.36.34.36.34.37-4.63.36 2.8.36 2.82.36-2.18.36-2.15.37.3.36-2.14.36 2.74.36.3.36.29.37-2.16.36.28.36 2.72.36.27.36.27.37 2.73.36.26.36-2.21.36-4.61.37 2.67.36.25.36.24.36.24.36.24.37-2.18.36-2.16.36.23.36.23.36-2.15.37 2.59.36.22.36-2.15.36.21.36 2.58.37 5.01.36.21.36.2.36.21.37-.21.36-.2.36-.21.36-.2.36 2.23.37-.22.36-.21.36-.22.36-.22.36-.22.37-.23.36-.23.36-.23.36-.24.36-.23.37-.24.36-.25.36-.25.36-.25.37-.25.36-.26.36-.26.36-.26.36-.27.37 2.2.36-.28.36-.28.36-.28.36-.29.37-.3.36-.3.36-.3.36-.31.36-.31.37-.32.36-.32.36-.33.36-.33.36-.34.37-.35.36-.35.36-.36.36-.37.37-.37.36-.38.36-.39.36 2.1.36-.41.37 4.66.36-.42.36.42.36.42.36-2.15.37 2.95.36.39.36.38.36-2.18.36-2.16.37.36.36.36.36.34.36 2.87.37-4.69.36.33.36-4.59.36 5.23.36.31.37-7.02.36 2.72.36.3.36.29.36.29.37 2.73.36.28.36 2.75.36-2.2.36-2.18.37.27.36-2.16.36 2.68.36.25.36-2.16.37.24.36.25.36-2.15.36.23.37 2.63.36.23.36.23.36.23.36.22.37-2.17.36-2.15.36 4.97.36.22.36-2.18.37.21.36.2.36.2.36.21.36-.21.37-.2.36-.2.36-.21.36-.21.37-.22.36-.21.36-.22.36 2.17.36-.22.37 2.19.36-.23.36-.23.36-.24.36 2.21.37-.24.36-.25.36-.25.36-.25.36-.25.37-.26.36-.26.36-.26.36-.27.37-.27.36-.28.36-.28.36-.28.36-.29.37-.3.36-.29.36-.31.36-.3.36-.32.37-.31.36-.33.36-.33.36-.33.36-.34.37-.35.36 4.61.36-.36.36-.36.36-.38.37-.38.36 2.14.36-.4.36 2.15.37-.42.36-.42.36.42.36.42.36 2.98.37.4.36.39.36.38.36-4.76.36 5.5.37.36.36-2.23.36-2.2.36-4.68.36.33.37.33.36.32.36.32.36.31.37.31.36.3.36.3.36-4.62.36.29.37.29.36 2.72.36.28.36-4.59.36 2.68.37 2.71.36.26.36.26.36 5.22.36-4.72.37.25.36-2.2.36.24.36-4.57.36.24.37 2.62.36 2.65.36-4.58.36.22.37.22.36.22.36.21.36.22.36 5.02.37-2.21.36.2.36.21.36.2.36 4.66.37-.21.36-.2.36-.21.36-.21.36-.22.37-.21.36-.22.36-.22.36-.22.37-.23.36-.23.36-.23.36 2.23.36-.24.37-.24.36-.24.36-.25.36-.25.36-.25.37-.26.36-.26.36-.26.36-.27.36-.27.37-.28.36-.28.36-.28.36-.29.36-.3.37-.3.36-.3.36-.31.36-.31.37-.32.36-.32.36-.33.36-.33.36-.34.37-.35.36-.35.36-.36.36-.37.36-.37.37 2.11.36-.38.36-.4.36 2.12.36 4.71.37-.42.36-2.16.36.42.36.4.37.4.36-2.16.36-2.15.36.38.36.36.37-2.13.36 2.85.36-2.15.36.34.36-4.58.37.33.36.32.36.32.36.31.36.31.37.3.36.3.36-2.12.36 7.62.37.28.36.28.36-4.64.36-2.14.36-2.12.37-2.11.36 5.02.36 2.68.36 2.69.36-2.19.37-2.17.36.25.36.24.36-2.16.36.24.37 2.62.36.23.36.23.36 2.64.36.22.37-2.2.36 2.63.36.22.36.21.37-2.21.36 2.62.36.2.36-2.21.36-.2.37-.21.36-.2.36-.21.36-.21.36-.22.37-.21.36-.22.36-.22.36-.22.36-.23.37-.23.36-.23.36-.24.36-.23.37-.24.36-.25.36-.24.36-.26.36-.25.37-.26.36-.26.36-.26.36-.27.36-.27.37-.28.36-.28.36-.28.36 2.12.36-.29.37-.3.36 2.14.36-.3.36-.32.36-.31.37-.33.36-.33.36-.33.36-.34.37-.35.36 2.12.36-.36.36-.37.36-.37.37 2.11.36-.38.36 2.12.36-.4.36 2.13.37-.42.36-2.13.36-2.11.36.41.36.4.37.38.36.38.36.38.36.36.37.36.36-2.14.36.35.36.34.36-2.14.37.33.36.33.36-2.13.36 2.76.36.3.37.31.36.29.36.3.36-2.16.36 2.73.37.28.36-2.17.36-2.14.36.27.36 5.12.37-2.18.36-2.16.36.25.36.26.37.24.36 2.66.36.24.36-4.57.36 2.63.37.23.36.23.36.23.36.22.36.22.37-2.17.36.21.36 2.61.36.21.36.21.37.2.36-2.19.36-2.16.36-.2.37-.21.36-.2.36 2.16.36-.21.36-.22.37 2.18.36-.22.36-.22.36-.22.36-.23.37-.23.36-.23.36-.24.36-.23.36-.24.37-.25.36-.24.36-.26.36-.25.37 2.16.36 2.18.36-.26.36-.27.36-.27.37-.28.36-.28.36-.28.36-.29.36-.3.37-.29.36-.31.36-.3.36-.32.36 2.15.37-.32.36-.33.36-.33.36-.34.36-.35.37-.35.36-.36.36-.37.36 2.12.37-.38.36 2.14.36 2.15.36-.4.36 2.16.37-.42.36-2.16.36-2.13.36 2.95.36.4.37-2.16.36-2.15.36-2.12.36 2.86.36-4.6.37 2.82.36-2.12.36 2.81.36-2.14.37.33.36-2.12.36 5.23.36-2.15.36.3.37-4.55.36.29.36 2.71.36 2.74.36-2.16.37 2.72.36-4.58.36-2.12.36 2.66.36.26.37 2.68.36.26.36.25.36-2.16.36-2.15.37 2.64.36-2.15.36-2.13.36 4.99.37.23.36-2.16.36.23.36.22.36 2.61.37.22.36.21.36 2.64.36-2.21.36-2.18.37.2.36 2.6.36.2.36-.2.36-.21.37-.2.36-.21.36-.21.36-.22.37-.21.36-.22.36-.22.36-.22.36-.23.37-.23.36-.23.36-.24.36-.23.36 2.17.37-.24.36-.25.36-.25.36-.25.36-.26.37-.26.36-.27.36-.26.36-.28.36-.27.37-.28.36-.29.36-.29.36-.29.37-.3.36 2.14.36-.3.36-.32.36-.31.37-.33.36-.33.36-.33.36-.34.36 2.12.37-.35.36-.36.36 2.13.36-.38.36-.38.37-.38.36-.4.36-.41.36 2.11.37-.42.36.42.36-2.11.36 2.93.36.4.37.39.36.38.36.37.36-2.16.36-2.13.37.35.36-2.12.36-2.1.36.33.36.33.37.32.36 2.76.36.32.36 2.77.37-7.02.36-2.1.36 5.1.36 2.74.36.28.37-2.16.36-2.14.36.27.36-2.12.36 7.51.37.26.36 2.73.36.25.36.25.36.25.37-4.67.36-2.17.36 2.65.36.24.36-2.19.37.23.36.23.36-4.54.36.22.37 2.59.36 2.6.36-2.17.36.21.36-2.16.37-2.14.36 2.55.36-2.14"/><use xlink:href="#a" color="#3B75EA" transform="matrix(3.75 0 0 3.75 354.25 169.98)"/><use xlink:href="#a" color="#3B75EA" transform="matrix(3.75 0 0 3.75 112.25 7.51)"/></g><text stroke-linecap="round" stroke-linejoin="round" color="#000" font-family="KaTeX_Main" font-size="8" transform="translate(132.8 25.11)"><tspan>LBSTTopDown</tspan></text><g fill="none" stroke="currentColor" stroke-linecap="round" stroke-linejoin="round" color="#000"><path stroke="#F44336" stroke-dasharray="4.5,2.0,0.5,2.0,0.5,2.0" d="M97.3 22.51h29.9M28 117.55l.36.42.36 4.5.37-1.65.36-5.65.36 2.39.36-1.62.36-1.61.37 2.35.36 4.37.36.36.36-1.67.37-3.64.36.33.36 2.31.36 2.32.36-5.62.37.31.36-1.64.36.3.36 2.25.36 2.26.37.29.36-3.63.36.28.36-1.66.36.27.37 2.2.36.27.36-3.59.36.26.36 2.17.37-1.67.36.25.36 2.16.36 2.17.37.24.36.24.36 6.12.36.23.36-5.67.37.23.36-1.72.36 2.16.36-1.72.36 2.14.37.22.36-1.73.36.21.36-1.71.36 2.11.37 3.68.36 1.76.36-.2.36-.21.37-.21.36-.22.36 1.77.36 1.78.36-.22.37-.23.36-.22.36-.23.36-.23.36-.24.37-.24.36-.24.36-.24.36 1.77.36-.25.37-.26.36-.25.36 1.77.36-.26.37-.27.36-.28.36-.27.36-.28.36 1.77.37-.29.36 1.77.36 1.8.36-.31.36 1.8.37-.31.36-.32.36-.32.36-.33.36-.33.37-.34.36-.35.36-.35.36-.36.36-.37.37-.37.36-.38.36-.39.36-.4.37-.4.36 3.86.36 1.74.36-6.02.36-1.69.37-3.75.36.39.36.39.36 2.45.36-3.75.37.37.36-3.69.36.35.36.35.36-1.66.37 2.33.36.33.36-1.67.36.31.37.32.36.3.36.31.36-1.69.36.3.37 2.27.36-3.66.36-3.6.36 4.15.36 4.22.37.27.36-1.72.36.26.36-3.65.36.25.37-1.68.36 2.18.36.24.36-3.6.36 4.08.37-1.7.36.24.36.22.36 4.11.37.22.36-3.66.36 2.16.36-1.72.36.21.37.21.36.21.36.21.36-1.71.36 4.05.37 1.74.36 1.76.36-.2.36 1.77.36-.21.37-.22.36-.21.36 1.78.36-.22.37-.23.36-.22.36-.23.36 1.78.36-.23.37 1.79.36-.24.36-.24.36-.25.36-.25.37 1.8.36-.26.36 1.81.36-.26.36 1.82.37-.27.36-.28.36-.28.36 1.82.36-.29.37-.29.36-.3.36-.3.36-.31.37-.31.36-.32.36 1.81.36-.33.36-.34.37-.34.36-.34.36 1.79.36-.36.36-.36.37 1.79.36-.38.36-.39.36-.4.36-.4.37-.41.36-2.59.36-12.17.36.41.37.4.36.4.36 2.44.36-3.71.36.38.37.36.36.36.36 2.39.36.35.36-1.7.37-3.68.36 2.33.36 2.34.36-1.7.36-1.68.37-1.68.36.3.36 2.28.36 2.3.37.28.36-3.69.36.28.36.28.36.27.37.27.36-3.65.36 4.17.36-1.71.36.26.37-1.7.36.25.36.24.36-3.6.36 4.08.37.24.36-1.7.36 4.1.36-3.65.36.22.37-1.69.36 2.13.36.22.36 2.14.37 2.16.36-1.74.36.21.36-1.73.36.2.37-.2.36-.2.36 1.72.36 1.74.36-.21.37-.21.36 1.75.36 1.76.36 1.78.36-.23.37-.22.36-.23.36-.23.36 1.78.37-.24.36-.24.36-.24.36-.25.36-.25.37-.26.36-.25.36-.26.36 1.77.36 1.78.37-.27.36 1.79.36-.28.36-.28.36-.29.37-.3.36-.29.36-.31.36-.3.36 1.77.37-.32.36 1.79.36-.33.36-.33.37-.34.36 1.78.36-.36.36-.36.36-.36.37-.38.36-.38.36-.38.36-.4.36-.4.37 1.73.36-.42.36-12.17.36 2.46.36 6.67.37-3.8.36-1.68.36-1.67.36.37.37-1.67.36-1.65.36.35.36-1.65.36.34.37 2.33.36-1.67.36 4.34.36-1.7.36-1.68.37 2.3.36.31.36-3.69.36-1.67.36 2.26.37-1.68.36.28.36 2.24.36-1.7.36-1.68.37.27.36 4.17.36.26.36.25.37-1.71.36-1.7.36.24.36-1.69.36 2.17.37-1.7.36.24.36 2.16.36-1.71.36.22.37.22.36.22.36 2.15.36.21.36 2.16.37-1.74.36-1.72.36 4.08.36-1.74.37-.21.36 1.75.36 1.76.36-.21.36-.21.37 1.76.36-.21.36-.22.36-.22.36-.22.37 1.77.36-.23.36-.23.36 1.78.36-.24.37-.24.36 1.79.36-.25.36-.25.37-.25.36-.26.36-.26.36 1.79.36 1.8.37-.27.36-.28.36 1.81.36-.29.36-.28.37-.3.36-.29.36-.31.36-.31.36-.31.37-.32.36-.32.36-.33.36-.33.36 1.77.37-.35.36-.35.36-.36.36-.37.37-.37.36 1.74.36-.38.36-.4.36-.4.37-.42.36-.42.36-3.81.36-1.68.36.41.37-3.73.36-1.65.36.38.36-1.64.36.37.37 2.37.36.36.36.34.36-1.67.37 2.35.36-1.69.36.32.36-1.68.36.32.37.3.36-1.68.36 8.33.36-3.75.36.28.37.29.36-1.72.36-1.7.36-1.7.36 4.22.37-1.72.36-5.58.36 2.19.36-3.6.36.25.37.25.36 4.09.36-1.69.36.24.37.23.36-1.68.36 2.14.36.23.36 2.16.37.22.36.22.36.21.36-1.72.36 2.15.37-1.73.36 2.14.36.2.36-1.73.36-.2.37 1.73.36 1.74.36-.21.36-.21.37-.21.36-.22.36-.22.36-.22.36-.22.37-.23.36-.23.36 1.74.36 3.74.36-.24.37-.24.36 1.78.36 1.78.36-.25.36-.25.37-.26.36 1.79.36-.26.36-.27.37-.27.36 1.79.36-.28.36-.28.36-.29.37 1.79.36-.29.36-.31.36-.31.36-.31.37-.32.36-.32.36 1.78.36 1.79.36 1.81.37-.35.36-.35.36 1.81.36-.37.36-.37.37-.38.36-.39.36-.4.36-.4.37-.41.36-.43.36-8.12.36-3.75.36 2.48.37-1.68.36.39.36.38.36-1.68.36-1.67.37-1.65.36.35.36 4.4.36-1.7.36-1.68.37.33.36 2.34.36.32.36.31.37 2.34.36-5.74.36-1.69.36.3.36 2.27.37-1.7.36-1.68.36 6.22.36-7.62.36.26.37.27.36 6.15.36.26.36-1.73.36 2.23.37-1.73.36.25.36 2.22.36-3.71.36.23.37-1.71.36 2.17.36-1.72.36.23.37.22.36.22.36 4.12.36-1.75.36 2.18.37.21.36.2.36-1.76.36.2.36 3.75.37-.21.36-.2.36-.21.36-.21.36-.22.37-.21.36-.22.36 1.78.36-.23.37 1.79.36-.22.36-.24.36-.23.36-.24.37-.24.36-.24.36 1.78.36-.25.36-.25.37 3.86.36-.26.36-.26.36 1.82.36-.27.37-.28.36-.28.36-.29.36-.28.36 1.81.37-.3.36-.3.36-.31.36-.31.37 1.81.36-.32.36 1.81.36-.33.36-.34.37-.35.36-.35.36-.36.36-.36.36-.38.37-.38.36 1.78.36-.4.36-.4.36-.41.37 1.76.36-12.4.36.41.36-3.72.37.4.36.39.36.38.36-1.66.36.36.37-1.65.36.35.36-3.63.36.34.36 6.33.37-1.69.36-1.67.36.31.36.32.36.3.37-3.64.36 6.24.36-1.7.36.29.37.28.36-3.66.36 2.24.36-1.7.36.27.37-1.68.36.26.36 2.2.36-3.62.36.25.37-1.67.36 2.16.36 2.17.36.24.36.24.37-1.7.36.22.36.23.36.22.36 4.1.37-3.66.36 2.15.36.21.36 2.16.37-1.74.36 2.16.36.2.36-3.68.36 3.68.37-.2.36 1.76.36-.21.36-.21.36 3.76.37-.21.36-.22.36-.22.36-.23.36-.22.37-.23.36 1.78.36 1.8.36-.24.37 1.82.36-.25.36-.25.36-.25.36 1.82.37-.26.36 1.83.36-.26.36-.27.36-.27.37-.28.36-.28.36-.29.36-.28.36-.3.37-.29.36-.31.36-.31.36-.31.36-.32.37 1.79.36-.33.36-.33.36 1.78.37-.34.36-.36.36-.36.36 1.79.36-.38.37-.38.36-.39.36-.39.36-.41.36-.41.37-.42.36-8.05.36-3.71.36 2.46.36 2.46.37-1.68.36.38.36-1.68.36-1.67.37 2.4.36-1.68.36 2.38.36-3.71.36 4.38.37-1.7.36.32.36.32.36-3.7.36-1.68.37.3.36 2.28.36.3.36-1.69.36.28.37-1.68.36 4.22.36.27.36.27.36-1.72.37-1.7.36 2.22.36-1.71.36-1.7.37 2.2.36 2.21.36.24.36-1.73.36-1.71.37-1.7.36 2.16.36.22.36 2.17.36.22.37-1.72.36 2.16.36-1.74.36-1.72.36 4.09.37-3.67.36 2.13.36.21.36 3.71.37 1.77.36-.2.36 1.79.36-.21.36-.22.37 1.8.36-.22.36 1.82.36 1.83.36-.23.37-.23.36-.23.36-.24.36-.23.36-.24.37-.25.36-.25.36 1.82.36-.25.37-.26.36-.26.36 1.83.36 1.84.36-.28.37-.27.36-.28.36-.29.36-.29.36-.29.37-.3.36-.3.36 1.82.36-.31.36-.32.37 1.82.36-.33.36-.33.36-.34.36-.35.37-.35.36-.36.36 1.8.36-.37.37-.38.36-.39.36-.4.36-.4.36-.41.37-.43.36-12.28.36-3.67.36 2.43.36-1.63.37 2.42.36 2.43.36.37.36.37.36-3.73.37.36.36 2.38.36-1.7.36.34.37-1.69.36 2.34.36-1.7.36-1.68.36 4.32.37-1.71.36.29.36-1.7.36 2.28.36-1.71.37.28.36 2.28.36-1.73.36-1.71.36-1.7.37 2.22.36-1.71.36 4.2.36 2.25.36-3.73.37-1.72.36-1.71.36 4.15.36.24.37.23.36 2.21.36.23.36-7.61.36.22.37 2.16.36.21.36.21.36-1.72.36.21.37 2.14.36.2.36.21.36-.21.36 5.69.37-.2.36 1.79.36-.21.36-.22.37-.21.36-.22.36-.22.36-.23.36 1.79.37-.22.36 1.8.36-.24.36-.24.36-.24.37-.24.36-.25.36-.25.36-.25.36-.26.37-.26.36-.26.36-.27.36 1.78.36-.28.37-.28.36-.28.36-.29.36-.3.37-.29.36-.31.36-.3.36 3.84.36 1.79.37-.32.36 1.8.36-.34.36-.34.36-.34.37-.36.36-.36.36-.36.36-.38.36-.38.37-.38.36-.4.36-.4.36-.42.37-.42.36-10.02.36 4.53.36.41.36-3.73.37.39.36.38.36-1.66.36.36.36.36.37.36.36-1.67.36 4.39.36-3.72.36.33.37.32.36 2.34.36.31.36-1.71.37.31.36-5.65.36 2.26.36.29.36 2.26.37.28.36-3.67.36.27.36.27.36.27.37 4.2.36-1.72.36-1.71.36-1.7.36 2.2.37-1.71.36-1.69.36.24.36 2.17.36.23.37.23.36 2.17.36-3.66.36-1.69.37 2.13.36 2.15.36.21.36.22.36.2.37-1.72.36-1.71.36 2.11"/><use xlink:href="#d" color="#F44336" transform="matrix(3.75 0 0 3.75 67.83 119.39)"/><use xlink:href="#d" color="#F44336" transform="matrix(3.75 0 0 3.75 112.25 22.51)"/></g><text stroke-linecap="round" stroke-linejoin="round" color="#000" font-family="KaTeX_Main" font-size="8" transform="translate(241.1 10.11)"><tspan>WBSTBottomUp</tspan></text><g fill="none" stroke="currentColor" stroke-linecap="round" stroke-linejoin="round" color="#000"><path stroke="#000" d="M205.6 7.51h29.9M28 134.34l.36.43.36.41.37-3.91.36.4.36-5.94.36 4.58.36 4.65.37.36.36-6.02.36 2.46.36-3.85.37 10.98.36-3.98.36 2.47.36-16.32.36 10.58.37-1.77.36 6.63.36-1.83.36-5.97.36 4.46.37.28.36-5.92.36 12.87.36-12.32.36 2.33.37-1.78.36 4.38.36-7.91.36 4.31.36-7.78.37 10.33.36-5.85.36 4.29.36.24.37-11.7.36 6.13.36-3.72.36 2.2.36-1.74.37 10.22.36-3.83.36 4.27.36-3.84.36.22.37 2.22.36-3.8.36 4.22.36 4.29.36 2.27.37 1.89.36 1.9.36-.21.36-.2.37-.22.36-.21.36-.22.36-.21.36-.22.37-.23.36 4.05.36-.23.36-.23.36 1.93.37-.23.36-.24.36 1.94.36-.25.36-.25.37-.25.36-.26.36-.26.36-.27.37-.26.36-.28.36-.27.36-.28.36-.29.37-.29.36-.29.36-.3.36-.3.36-.31.37-.31.36-.32.36-.32.36-.33.36-.33.37-.34.36-.35.36-.35.36-.36.36-.37.37-.37.36-.38.36-.39.36-.4.37-.4.36 1.79.36-.42.36-3.97.36-6.03.37-3.79.36 13.22.36-3.97.36 2.55.36-10.27.37 2.46.36 4.59.36-10.09.36 6.56.36.34.37 2.44.36-3.87.36 10.96.36.32.37 2.5.36-10.43.36 2.41.36 2.43.36-1.84.37-1.82.36-1.8.36 4.48.36 2.4.36-1.85.37-1.84.36 2.37.36-18.05.36 6.2.36-5.69.37 14.36.36.25.36-3.88.36-5.8.36 10.4.37-9.93.36 8.33.36-11.82.36 14.35.37-1.85.36-5.88.36 2.23.36 8.46.36-10.04.37-1.79.36-3.74.36 12.25.36 4.37.36-10.06.37 1.81.36 1.83.36-.2.36 1.84.36-.21.37-.22.36-.21.36-.22.36-.22.37 1.85.36-.23.36-.23.36 1.86.36-.24.37-.24.36-.24.36-.24.36-.25.36-.25.37-.25.36 1.85.36-.26.36-.27.36-.26.37-.28.36-.27.36-.28.36-.29.36 1.84.37 1.86.36-.3.36-.3.36-.31.37-.32.36-.31.36-.33.36-.33.36-.33.37-.34.36-.35.36-.35.36 1.81.36-.37.37-.37.36-.38.36 4.01.36-.4.36-.4.37 1.81.36-.42.36-6.2.36 2.6.37-6.1.36 4.71.36-8.16.36 8.93.36 2.56.37.37.36-4 .36 2.52.36-8.2.36-1.75.37-1.74.36 15.23.36-4.03.36 2.48.36-4 .37 2.46.36-6.08.36 4.53.36-12.19.37 2.32.36 8.61.36-8.04.36 2.33.36-1.78.37-1.77.36.27.36-1.76.36.26.36 8.42.37-3.87.36-5.8.36 8.35.36-1.82.36 2.29.37-5.86.36-1.77.36 8.33.36-7.87.36.22.37 8.32.36-5.88.36.21.36.22.37-1.79.36 6.26.36 2.25.36-1.84.36 2.25.37-.2.36-.21.36 1.87.36 1.88.36-.21.37-.22.36-.21.36 1.89.36 1.9.36-.22.37-.23.36-.22.36 1.91.36-.23.37-.24.36-.24.36 1.92.36 1.94.36-.25.37-.25.36-.26.36-.26.36-.27.36-.26.37-.28.36-.27.36-.28.36-.29.36-.29.37-.29.36-.3.36-.3.36-.31.36 1.9.37-.32.36-.32.36 1.9.36-.33.37-.35.36-.34.36-.35.36 1.89.36-.37.37-.37.36-.38.36-.39.36 1.88.36-.41.37-.41.36-.42.36.42.36-4.11.36-10.54.37.4.36.38.36.38.36 6.88.37.37.36-6.15.36 2.5.36-1.8.36.34.37 11.28.36-16.94.36 2.41.36 4.56.36-6.01.37 4.5.36-5.96.36.29.36 6.56.36 2.42.37-6.04.36 6.61.36-10.18.36 2.33.36 2.34.37-1.81.36-3.82.36 4.34.36.25.37 4.41.36-7.99.36 6.39.36-13.87.36 2.2.37 2.22.36 8.33.36-9.85.36 6.22.36-9.68.37 6.11.36-1.76.36.21.36-7.54.36 6 .37-3.67.36 14.08.36-3.85.36 6.31.37-.2.36 1.86.36-.2.36 1.88.36-.21.37-.22.36 1.89.36-.21.36-.22.36-.23.37-.22.36-.23.36-.23.36 1.89.36-.24.37-.24.36-.24.36-.25.36-.25.37-.25.36-.26.36-.26.36-.27.36-.27.37-.27.36 1.87.36-.28.36 1.88.36-.28.37-.3.36-.29.36-.31.36-.31.36-.31.37-.32.36-.32.36-.33.36 1.86.36-.34.37-.35.36-.35.36 1.85.36-.37.37-.37.36-.38.36-.39.36-.4.36-.4.37 1.81.36-.42.36-8.37.36 6.98.36-6.16.37 2.56.36-1.78.36-1.77.36-3.86.36-5.84.37 2.41.36 2.42.36 2.44.36-7.91.37 8.58.36 8.88.36-8.23.36-3.84.36.32.37.3.36 6.57.36-1.81.36 2.4.36.29.37-5.98.36-5.82.36 2.29.36 2.31.36.27.37-5.79.36 6.31.36-1.78.36 8.5.36.25.37-10.01.36 8.41.36-3.88.36.24.37.24.36 2.28.36-1.82.36-1.81.36.22.37.22.36.22.36-7.74.36 14.33.36-1.86.37.21.36.2.36-9.87.36 6.19.36-.2.37 1.83.36 1.85.36-.21.36-.21.37 3.94.36-.21.36-.22.36-.22.36-.23.37-.22.36-.23.36-.23.36 1.87.36-.24.37-.24.36 1.89.36-.25.36-.25.36-.25.37-.26.36-.26.36-.27.36-.27.37-.27.36-.27.36-.29.36-.28.36-.29.37-.29.36-.3.36-.3.36-.31.36-.31.37-.32.36-.32.36-.33.36-.34.36-.34.37-.34.36-.36.36-.36.36-.36.36-.38.37 1.77.36-.39.36-.39.36 1.76.37 1.77.36 1.79.36-8.29.36-1.71.36-1.71.37 6.78.36-8.08.36 6.7.36-5.95.36 6.69.37 2.51.36-12.24.36.35.36 10.78.36-1.79.37 2.46.36-3.92.36-1.77.36 2.4.37.31.36-5.91.36 15.06.36-14.46.36 2.34.37.28.36 8.68.36-1.86.36-8.04.36-1.77.37 10.62.36-3.94.36.26.36-9.92.36 10.42.37-5.9.36 2.27.36.24.36 8.56.36-8.08.37.23.36-7.8.36 10.31.36-1.83.37-13.66.36 2.16.36-3.64.36 9.96.36-5.68.37 4.12.36 4.18.36 4.26.36-3.85.36 3.85.37 3.91.36-.2.36-.21.36 1.88.36-.22.37 1.89.36-.21.36-.22.36-.23.37-.22.36-.23.36-.23.36 1.89.36-.24.37-.24.36-.24.36-.25.36-.25.36-.25.37-.26.36-.26.36-.27.36-.27.36-.27.37 1.87.36-.28.36-.28.36-.29.36-.29.37-.3.36-.3.36-.31.36 1.85.37-.32.36-.32.36-.33.36-.33.36-.34.37-.35.36-.35.36-.36.36-.37.36-.37.37-.38.36-.39.36-.4.36-.4.36 3.98.37-.42.36-1.79.36-3.94.36-1.74.37 2.54.36 2.56.36-1.79.36-3.9.36.37.37.36.36 2.48.36 6.85.36-4.02.36-8.14.37 2.42.36-1.76.36-1.76.36 6.58.36 2.44.37-1.83.36 4.58.36-3.99.36 2.42.37-3.95.36-7.96.36 6.43.36 4.47.36 4.54.37-6.12.36-1.83.36.26.36 2.34.36-1.84.37.25.36.24.36-9.92.36 4.25.36-7.73.37 10.23.36-5.82.36-3.72.36 4.17.36 4.23.37-13.53.36 11.95.36-3.76.36 4.19.37-5.74.36 4.15.36-3.74.36-1.74.36-.21.37-.2.36 1.74.36 1.76.36-.21.36 5.78.37 1.82.36 1.83.36-.22.36 3.93.36-.22.37-.23.36-.23.36-.24.36-.24.37-.24.36-.24.36-.25.36-.25.36-.25.37-.26.36-.26.36-.26.36 1.84.36-.28.37-.27.36 1.84.36-.28.36-.29.36-.29.37 1.85.36-.3.36-.31.36-.32.36-.31.37-.33.36-.33.36-.33.36-.34.37-.35.36 1.82.36 1.83.36-.37.36 1.84.37 1.85.36-.39.36-.4.36 1.85.36 1.86.37-.42.36-8.55.36 2.63.36-1.81.36-1.79.37 2.58.36-3.98.36-8.1.36 2.46.37 2.47.36 2.48.36-1.78.36 2.46.36-1.79.37-3.87.36-3.8.36 10.77.36-10.14.36.31.37-3.74.36 10.55.36.3.36-1.8.36 2.37.37-1.81.36-5.88.36 14.9.36-18.37.36 6.31.37-1.77.36-3.76.36 2.25.36 2.27.37 4.33.36-7.85.36 2.23.36 2.26.36 4.32.37-11.82.36 4.18.36 4.24.36-7.74.36.22.37 6.17.36 6.31.36 2.29.36-7.96.36 8.38.37-5.95.36-1.82.36 2.22.36 3.89.37-.21.36 1.87.36-.21.36 1.88.36-.22.37-.21.36-.22.36-.22.36-.23.36-.22.37-.23.36-.23.36-.24.36-.24.36 1.87.37-.24.36-.25.36-.25.36-.25.37-.26.36-.26.36-.27.36-.26.36-.28.37-.27.36-.28.36 1.84.36-.29.36-.29.37-.3.36-.3.36-.31.36 1.83.36 1.85.37 1.87.36-.33.36-.33.36-.34.36-.35.37-.35.36-.36.36-.37.36-.37.37-.38.36-.39.36 1.81.36-.4.36-.42.37 1.81.36.42.36-1.81.36.4.36-10.44.37 6.83.36.38.36-3.94.36 4.68.36-3.96.37 2.5.36 2.52.36-8.21.36 6.71.37 4.69.36-12.5.36 2.4.36.31.36 13.26.37-6.26.36-8.18.36-3.82.36.28.36 2.34.37-1.77.36-5.77.36 18.91.36-6.11.36-1.83.37-3.86.36 4.38.36-1.82.36-5.85.36-1.75.37 6.29.36-1.79.36-3.78.36 4.25.37 2.27.36-3.82.36 2.24.36-7.74.36 14.34.37-5.94.36-1.8.36.22.36 12.58.36-14.16.37 2.2.36-1.79.36 4.21.36-.2.36 8.04.37 1.9.36 1.92.36 1.94.36-.21.37-.22.36-.22.36-.22.36-.22.36-.23.37-.23.36 1.94.36-.24.36-.23.36-.24.37-.25.36-.25.36-.25.36-.25.36-.26.37-.26.36-.26.36 1.92.36-.28.36-.27.37-.28.36-.29.36-.29.36-.29.37-.3.36-.3.36-.31.36 1.9.36-.32.37 1.91.36-.33.36-.33.36-.35.36-.34.37-.35.36 1.89.36 1.9.36-.37.36-.38.37 1.91.36-.4.36-.4.36 1.91.37 1.92.36-8.82.36.42.36.4.36 4.97.37-10.87.36.38.36-6.13.36 11.31.36.36.37-1.88.36-1.86.36 2.55.36-12.62.36-1.76.37.33.36.31.36 4.51.36.31.37-3.89.36 4.49.36-3.9.36-3.84.36.29.37-1.75.36 4.36.36-3.82.36 10.62.36-8.05.37 6.47.36-1.83.36-1.82.36-7.85.36 4.27.37 2.27.36-3.81.36-1.76.36.24.36.23.37 2.23.36-1.77.36 8.32.36.22.37-5.88.36 8.38.36-5.94.36 4.3.36-3.88.37 2.24.36-1.83.36-3.81"/><use xlink:href="#b" transform="matrix(3.75 0 0 3.75 125.4 146.6)"/><use xlink:href="#b" transform="matrix(3.75 0 0 3.75 220.55 7.51)"/></g><text stroke-linecap="round" stroke-linejoin="round" color="#000" font-family="KaTeX_Main" font-size="8" transform="translate(241.1 25.11)"><tspan>WBSTTopDown</tspan></text><g fill="none" stroke="currentColor" stroke-linecap="round" stroke-linejoin="round" color="#000"><path stroke="#29C3F6" stroke-dasharray="4.0,2.0,1.0,2.0" d="M205.6 22.51h29.9M28 132.18l.36 2.59.36.41.37-3.91.36-1.73.36-3.81.36 4.58.36 2.5.37 2.51.36-6.02.36 2.46.36-3.85.37 8.81.36-3.94.36 2.46.36-16.17.36 12.57.37-1.77.36 6.63.36-1.83.36-5.97.36 4.46.37.28.36-5.92.36 12.87.36-12.32.36 4.4.37-1.8.36 4.42.36-7.98.36 4.34.36-9.83.37 10.33.36-5.85.36 4.29.36.24.37-11.7.36 6.13.36-3.72.36 2.2.36-3.69.37 10.13.36-3.79.36 4.23.36-3.8.36.22.37 2.21.36-3.77.36 4.18.36 4.26.36 2.25.37 1.87.36 1.88.36-.21.36-.2.37-.21.36-.22.36-.21.36-.22.36-.22.37-.23.36 4.01.36-.22.36-.24.36 1.92.37-.24.36-.24.36 1.92.36-.25.36-.25.37-.25.36-.26.36-.26.36 1.92.37-.26.36-.28.36-.27.36-.28.36-.29.37-.29.36-.29.36-.3.36-.3.36-.31.37-.31.36-.32.36-.32.36-.33.36-.33.37-.34.36-.35.36-.35.36-.36.36-.37.37-.37.36-.38.36-.39.36-.4.37-.4.36 1.79.36-.42.36-3.97.36-6.03.37-3.79.36 13.22.36-3.97.36 2.55.36-10.27.37 2.46.36 4.59.36-10.09.36 6.56.36.34.37 2.44.36-3.87.36 10.96.36.32.37 2.5.36-10.43.36 2.41.36 2.43.36-3.94.37-1.8.36-1.79.36 4.44.36 4.51.36-1.85.37-1.84.36 2.37.36-18.05.36 6.2.36-5.69.37 14.36.36.25.36-5.91.36-3.77.36 10.4.37-9.93.36 8.33.36-11.82.36 14.35.37-1.85.36-5.88.36 2.23.36 8.46.36-10.04.37-1.79.36-3.74.36 12.25.36 4.37.36-10.06.37 1.81.36 1.83.36-.2.36 1.84.36-.21.37-.22.36-.21.36-.22.36-.22.37 1.85.36-.23.36-.23.36 1.86.36-.24.37-.24.36-.24.36-.24.36-.25.36-.25.37-.25.36 1.85.36-.26.36-.27.36-.26.37-.28.36-.27.36-.28.36-.29.36 1.84.37 1.86.36-.3.36-.3.36-.31.37-.32.36-.31.36-.33.36-.33.36-.33.37-.34.36-.35.36-.35.36 1.81.36-.37.37-.37.36 1.81.36 1.82.36-.4.36-.4.37 1.81.36-.42.36-6.2.36 2.6.37-6.1.36 4.71.36-8.16.36 8.93.36 2.56.37.37.36-4 .36 2.52.36-8.2.36-1.75.37-1.74.36 15.23.36-4.03.36 2.48.36-4 .37 2.46.36-6.08.36 4.53.36-12.19.37 2.32.36 8.61.36-8.04.36 2.33.36-1.78.37-1.77.36.27.36-1.76.36.26.36 8.42.37-3.87.36-5.8.36 8.35.36-1.82.36 2.29.37-5.86.36-1.77.36 8.33.36-9.85.36 2.2.37 8.32.36-5.88.36.21.36-1.78.37-1.77.36 6.2.36 2.24.36.21.36 2.25.37-.2.36-.21.36 1.87.36 1.88.36-.21.37-.22.36-.21.36 1.89.36 1.9.36-.22.37-.23.36-.22.36 1.91.36-.23.37-.24.36-.24.36 1.92.36 1.94.36-.25.37-.25.36-.26.36-.26.36-.27.36-.26.37-.28.36-.27.36-.28.36-.29.36-.29.37-.29.36-.3.36-.3.36-.31.36 1.9.37-.32.36-.32.36 1.9.36-.33.37-.35.36-.34.36-.35.36 1.89.36-.37.37-.37.36-.38.36-.39.36-.4.36-.4.37 1.86.36-.42.36-1.86.36-4.06.36-8.31.37.4.36-1.74.36.38.36 6.81.37.37.36-6.08.36 4.62.36-3.92.36.34.37 13.4.36-16.94.36 2.41.36 4.56.36-6.01.37 4.5.36-5.96.36.29.36 6.56.36 2.42.37-8.11.36 6.55.36-8.05.36 2.33.36 2.34.37-1.81.36-3.82.36 4.34.36.25.37 4.41.36-7.99.36 6.39.36-11.9.36 2.21.37 2.24.36 6.33.36-9.85.36 8.25.36-9.77.37 6.17.36-1.78.36.21.36-7.61.36 6.06.37-3.71.36 14.2.36-3.88.36 6.36.37-.2.36 1.88.36-.21.36 1.91.36-.22.37-.21.36 1.91.36-.22.36-.22.36-.22.37-.23.36-.22.36-.24.36 1.92.36 1.93.37-.24.36-.25.36-.25.36-.25.37-.25.36-.26.36-.26.36-.26.36-.27.37-.27.36-.28.36-.28.36 1.9.36-.29.37-.29.36-.3.36-.3.36-.31.36-.31.37-.32.36-.32.36-.33.36 1.88.36-.35.37-.34.36-.35.36 1.87.36-.37.37-.37.36-.38.36-.39.36-.4.36-.4.37 1.83.36-.42.36-8.45.36 7.04.36-6.23.37 4.8.36-1.82.36-1.81.36-6.07.36-7.95.37 2.41.36 2.42.36 2.44.36-7.91.37 10.69.36 8.96.36-8.31.36-3.88.36.32.37-1.77.36 6.57.36-1.81.36 2.4.36.29.37-3.91.36-5.87.36.27.36 2.31.36.27.37-5.79.36 6.31.36-1.78.36 8.5.36.25.37-10.01.36 8.41.36-3.88.36.24.37.24.36 2.28.36-1.82.36-1.81.36.22.37.22.36.22.36-7.74.36 14.33.36-1.86.37.21.36.2.36-9.87.36 6.19.36-.2.37 1.83.36 1.85.36-.21.36-.21.37 1.85.36 1.88.36-.22.36-.22.36-.23.37-.22.36-.23.36-.23.36 1.87.36-.24.37-.24.36 1.89.36-.25.36-.25.36-.25.37-.26.36-.26.36-.27.36-.27.37-.27.36-.27.36-.29.36-.28.36-.29.37-.29.36-.3.36-.3.36-.31.36-.31.37-.32.36-.32.36-.33.36-.34.36-.34.37-.34.36-.36.36-.36.36-.36.36-.38.37 1.77.36-.39.36-.39.36 1.76.37 1.77.36 1.79.36-8.29.36-1.71.36-1.71.37 6.78.36-8.08.36 6.7.36-5.95.36 6.69.37 2.51.36-12.24.36-1.69.36 10.7.36.33.37.33.36-3.87.36-1.76.36 4.47.37.31.36-5.91.36 15.06.36-14.46.36 2.34.37.28.36 8.68.36-1.86.36-8.04.36-1.77.37 10.62.36-3.94.36.26.36-9.92.36 10.42.37-5.9.36 2.27.36.24.36 8.56.36-8.08.37.23.36-7.8.36 10.31.36-1.83.37-11.72.36 2.16.36-3.66.36 8.04.36-5.68.37 4.12.36 2.18.36 6.26.36-3.85.36 3.85.37 1.84.36-.2.36-.21.36 1.86.36-.22.37 1.88.36-.22.36-.22.36-.23.37 1.89.36-.23.36-.23.36 1.89.36-.24.37-.24.36-.24.36-.25.36-.25.36-.25.37-.26.36-.26.36-.27.36-.27.36-.27.37 1.87.36-.28.36-.28.36-.29.36-.29.37-.3.36-.3.36-.31.36 1.85.37-.32.36-.32.36-.33.36-.33.36-.34.37-.35.36-.35.36-.36.36-.37.36-.37.37-.38.36-.39.36-.4.36-.4.36 3.98.37-.42.36-1.79.36-3.94.36-1.74.37 2.54.36 2.56.36-3.94.36-3.86.36.37.37.36.36 4.59.36 4.66.36-3.98.36-8.06.37 2.4.36-1.74.36.31.36 6.58.36.31.37.3.36 4.58.36-3.99.36 2.42.37-3.95.36-7.96.36 4.36.36 4.43.36 4.5.37-3.97.36-1.83.36-1.81.36 2.32.36.25.37.25.36-1.82.36-7.86.36 6.28.36-7.79.37 6.23.36-5.77.36-1.74.36 4.17.36 4.23.37-13.53.36 11.95.36-3.76.36 4.19.37-5.74.36 4.15.36-1.77.36-1.77.36-.2.37-.2.36 1.76.36 1.77.36-.21.36 5.83.37 1.84.36 1.85.36-.22.36 3.97.36-.22.37-.23.36-.23.36-.24.36-.24.37-.24.36-.24.36-.25.36-.25.36-.25.37-.26.36-.26.36-.27.36 1.86.36-.27.37-.27.36 1.86.36-.28.36-.29.36-.29.37 1.87.36-.31.36-.31.36-.31.36-.32.37-.32.36-.33.36-.33.36-.34.37-.35.36 1.84.36 1.85.36-.37.36-.37.37 1.85.36-.39.36-.4.36 1.85.36 1.86.37-.42.36-8.55.36 2.63.36-4 .36.4.37 2.58.36-3.98.36-8.1.36 2.46.37 2.47.36 2.48.36-1.78.36 2.46.36-1.79.37-3.87.36-3.8.36 10.77.36-10.14.36.31.37-1.73.36 10.65.36-1.81.36.28.36.29.37-1.81.36-5.88.36 14.9.36-18.37.36 6.31.37-1.77.36-3.76.36 2.25.36 2.27.37 4.33.36-7.85.36 2.23.36 2.26.36 4.32.37-11.82.36 4.18.36 4.24.36-7.74.36.22.37 6.17.36 6.31.36 2.29.36-7.96.36 8.38.37-5.95.36-1.82.36 2.22.36 3.89.37-.21.36 1.87.36-.21.36 1.88.36-.22.37-.21.36-.22.36-.22.36-.23.36-.22.37-.23.36-.23.36-.24.36-.24.36 1.87.37-.24.36-.25.36-.25.36-.25.37-.26.36-.26.36-.27.36-.26.36-.28.37-.27.36-.28.36 1.84.36-.29.36-.29.37-.3.36-.3.36-.31.36 1.83.36 1.85.37 1.87.36-.33.36-.33.36-.34.36-.35.37-.35.36-.36.36-.37.36-.37.37-.38.36-.39.36 1.81.36-.4.36-.42.37 1.81.36.42.36-1.81.36.4.36-10.44.37 6.83.36.38.36-3.94.36 4.68.36-3.96.37 2.5.36 2.52.36-8.21.36 6.71.37 4.69.36-12.5.36 2.4.36.31.36 11.05.37-4.05.36-8.18.36-3.82.36.28.36 2.34.37-1.77.36-5.77.36 18.91.36-6.11.36-1.83.37-3.86.36 4.38.36-1.82.36-5.85.36-1.75.37 6.29.36-1.79.36-3.78.36 4.25.37 2.27.36-3.82.36 2.24.36-7.74.36 14.34.37-5.94.36-1.8.36.22.36 12.58.36-14.16.37 2.2.36-1.79.36 4.21.36-.2.36 8.04.37 1.9.36 1.92.36 1.94.36-.21.37-.22.36-.22.36-.22.36-.22.36-.23.37-.23.36 1.94.36-.24.36-.23.36 1.94.37-.24.36-.25.36-.25.36-.25.36-.26.37-.26.36-.27.36 1.95.36-.28.36-.27.37-.28.36-.29.36-.29.36-.29.37-.3.36-.3.36-.31.36 1.92.36-.32.37-.32.36-.33.36 1.92.36-.34.36-.35.37-.35.36 1.91.36 1.93.36-.37.36-.38.37 1.93.36-.4.36-.4.36-.41.37 1.92.36-8.82.36.42.36.4.36 4.97.37-10.87.36.38.36-6.13.36 11.31.36.36.37-1.88.36-1.86.36.34.36-10.41.36-1.76.37.33.36.31.36 4.51.36.31.37-3.89.36 2.38.36-3.86.36-1.77.36.29.37-1.75.36 2.3.36-3.77.36 10.53.36-7.98.37 6.41.36-1.81.36-1.8.36-7.78.36 4.23.37 2.26.36-3.77.36-1.75.36.24.36.23.37 2.21.36-1.75.36 8.25.36.22.37-5.83.36 8.31.36-5.88.36 4.26.36-3.84.37 2.22.36-1.82.36-3.77"/><use xlink:href="#e" color="#29C3F6" transform="matrix(3.75 0 0 3.75 182.98 122.83)"/><use xlink:href="#e" color="#29C3F6" transform="matrix(3.75 0 0 3.75 220.55 22.51)"/></g><path fill="none" d="M28 45.01V205M371.99 45.01H28" color="#000"/></svg>