<svg xmlns="http://www.w3.org/2000/svg" xmlns:xlink="http://www.w3.org/1999/xlink" viewBox="0 0 400 250"><path fill="none" d="M0 0h400v250H0z"/><defs><path id="g" stroke="currentColor" stroke-width=".267" d="M-1 0h2M0-1v2"/><path id="h" stroke="currentColor" stroke-width=".267" d="m-1-1 2 2m0-2-2 2"/><path id="d" stroke="currentColor" stroke-width=".267" d="M-1-1h2v2h-2z"/><path id="i" fill="currentColor" stroke="currentColor" stroke-width=".267" d="M-1-1h2v2h-2z"/><path id="b" stroke="currentColor" stroke-width=".267" d="m0-1.33-1.33 2h2.66z"/><path id="f" stroke="currentColor" stroke-width=".267" d="M0 1.33 1.265.411.782-1.067l-1.564-.009-.483 1.487z"/><use xlink:href="#b" id="c" stroke="currentColor" transform="rotate(180)"/><use xlink:href="#d" id="e" stroke="currentColor" transform="rotate(45)"/><circle id="a" cx="0" cy="0" r="1" stroke="currentColor" stroke-width=".267"/></defs><path fill="none" stroke="#333" stroke-linecap="round" stroke-linejoin="round" stroke-width=".1" d="M46.1 205V45.01" class="gridline" color="#000"/><g fill="none" stroke="none" stroke-linecap="round" stroke-linejoin="round" stroke-width="0" color="#000"><path d="M46.1 205v-7.5m0-152.49v7.5"/><text fill="#000" font-family="KaTeX_Main" font-size="8" text-anchor="middle" transform="translate(46.1 215.1)"><tspan> 1</tspan></text></g><path fill="none" stroke="#333" stroke-linecap="round" stroke-linejoin="round" stroke-width=".1" d="M82.31 205V45.01" class="gridline" color="#000"/><g fill="none" stroke="none" stroke-linecap="round" stroke-linejoin="round" stroke-width="0" color="#000"><path d="M82.31 205v-7.5m0-152.49v7.5"/><text fill="#000" font-family="KaTeX_Main" font-size="8" text-anchor="middle" transform="translate(82.31 215.1)"><tspan> 2</tspan></text></g><path fill="none" stroke="#333" stroke-linecap="round" stroke-linejoin="round" stroke-width=".1" d="M118.52 205V45.01" class="gridline" color="#000"/><g fill="none" stroke="none" stroke-linecap="round" stroke-linejoin="round" stroke-width="0" color="#000"><path d="M118.52 205v-7.5m0-152.49v7.5"/><text fill="#000" font-family="KaTeX_Main" font-size="8" text-anchor="middle" transform="translate(118.52 215.1)"><tspan> 3</tspan></text></g><path fill="none" stroke="#333" stroke-linecap="round" stroke-linejoin="round" stroke-width=".1" d="M154.73 205V45.01" class="gridline" color="#000"/><g fill="none" stroke="none" stroke-linecap="round" stroke-linejoin="round" stroke-width="0" color="#000"><path d="M154.73 205v-7.5m0-152.49v7.5"/><text fill="#000" font-family="KaTeX_Main" font-size="8" text-anchor="middle" transform="translate(154.73 215.1)"><tspan> 4</tspan></text></g><path fill="none" stroke="#333" stroke-linecap="round" stroke-linejoin="round" stroke-width=".1" d="M190.94 205V45.01" class="gridline" color="#000"/><g fill="none" stroke="none" stroke-linecap="round" stroke-linejoin="round" stroke-width="0" color="#000"><path d="M190.94 205v-7.5m0-152.49v7.5"/><text fill="#000" font-family="KaTeX_Main" font-size="8" text-anchor="middle" transform="translate(190.94 215.1)"><tspan> 5</tspan></text></g><path fill="none" stroke="#333" stroke-linecap="round" stroke-linejoin="round" stroke-width=".1" d="M227.15 205V45.01" class="gridline" color="#000"/><g fill="none" stroke="none" stroke-linecap="round" stroke-linejoin="round" stroke-width="0" color="#000"><path d="M227.15 205v-7.5m0-152.49v7.5"/><text fill="#000" font-family="KaTeX_Main" font-size="8" text-anchor="middle" transform="translate(227.15 215.1)"><tspan> 6</tspan></text></g><path fill="none" stroke="#333" stroke-linecap="round" stroke-linejoin="round" stroke-width=".1" d="M263.36 205V45.01" class="gridline" color="#000"/><g fill="none" stroke="none" stroke-linecap="round" stroke-linejoin="round" stroke-width="0" color="#000"><path d="M263.36 205v-7.5m0-152.49v7.5"/><text fill="#000" font-family="KaTeX_Main" font-size="8" text-anchor="middle" transform="translate(263.36 215.1)"><tspan> 7</tspan></text></g><path fill="none" stroke="#333" stroke-linecap="round" stroke-linejoin="round" stroke-width=".1" d="M299.57 205V45.01" class="gridline" color="#000"/><g fill="none" stroke="none" stroke-linecap="round" stroke-linejoin="round" stroke-width="0" color="#000"><path d="M299.57 205v-7.5m0-152.49v7.5"/><text fill="#000" font-family="KaTeX_Main" font-size="8" text-anchor="middle" transform="translate(299.57 215.1)"><tspan> 8</tspan></text></g><path fill="none" stroke="#333" stroke-linecap="round" stroke-linejoin="round" stroke-width=".1" d="M335.78 205V45.01" class="gridline" color="#000"/><g fill="none" stroke="none" stroke-linecap="round" stroke-linejoin="round" stroke-width="0" color="#000"><path d="M335.78 205v-7.5m0-152.49v7.5"/><text fill="#000" font-family="KaTeX_Main" font-size="8" text-anchor="middle" transform="translate(335.78 215.1)"><tspan> 9</tspan></text></g><path fill="none" stroke="#333" stroke-linecap="round" stroke-linejoin="round" stroke-width=".1" d="M371.99 205V45.01" class="gridline" color="#000"/><g fill="none" stroke="none" stroke-linecap="round" stroke-linejoin="round" stroke-width="0" color="#000"><path d="M371.99 205v-7.5m0-152.49v7.5"/><text fill="#000" font-family="KaTeX_Main" font-size="8" text-anchor="middle" transform="translate(371.99 215.1)"><tspan> 10</tspan></text></g><g fill="none" stroke="none" stroke-linecap="round" stroke-linejoin="round" stroke-width="0" color="#000"><path d="M371.99 205h-7.5"/><text fill="#000" font-family="KaTeX_Main" font-size="8" transform="translate(378.99 207.6)"><tspan>0.50</tspan></text></g><g fill="none" stroke="none" stroke-linecap="round" stroke-linejoin="round" stroke-width="0" color="#000"><path d="M371.99 178.33h-7.5"/><text fill="#000" font-family="KaTeX_Main" font-size="8" transform="translate(378.99 180.93)"><tspan>0.55</tspan></text></g><g fill="none" stroke="none" stroke-linecap="round" stroke-linejoin="round" stroke-width="0" color="#000"><path d="M371.99 151.67h-7.5"/><text fill="#000" font-family="KaTeX_Main" font-size="8" transform="translate(378.99 154.27)"><tspan>0.60</tspan></text></g><g fill="none" stroke="none" stroke-linecap="round" stroke-linejoin="round" stroke-width="0" color="#000"><path d="M371.99 125h-7.5"/><text fill="#000" font-family="KaTeX_Main" font-size="8" transform="translate(378.99 127.6)"><tspan>0.65</tspan></text></g><g fill="none" stroke="none" stroke-linecap="round" stroke-linejoin="round" stroke-width="0" color="#000"><path d="M371.99 98.34h-7.5"/><text fill="#000" font-family="KaTeX_Main" font-size="8" transform="translate(378.99 100.94)"><tspan>0.70</tspan></text></g><g fill="none" stroke="none" stroke-linecap="round" stroke-linejoin="round" stroke-width="0" color="#000"><path d="M371.99 71.67h-7.5"/><text fill="#000" font-family="KaTeX_Main" font-size="8" transform="translate(378.99 74.27)"><tspan>0.75</tspan></text></g><g fill="none" stroke="none" stroke-linecap="round" stroke-linejoin="round" stroke-width="0" color="#000"><path d="M371.99 45.01h-7.5"/><text fill="#000" font-family="KaTeX_Main" font-size="8" transform="translate(378.99 47.61)"><tspan>0.80</tspan></text></g><path fill="none" stroke="none" stroke-linecap="round" stroke-linejoin="round" stroke-width="0" d="M28 45.01V205M371.99 45.01H28" color="#000"/><text fill="#000" stroke="none" stroke-linecap="round" stroke-linejoin="round" stroke-width="0" color="#000" font-family="KaTeX_Main" font-size="10" text-anchor="middle" transform="rotate(-90 68.255 56.755)"><tspan font-weight="bold">Rotations</tspan><tspan> / Operation</tspan></text><text fill="#000" stroke="none" stroke-linecap="round" stroke-linejoin="round" stroke-width="0" color="#000" font-family="KaTeX_Main" font-size="10" text-anchor="middle" transform="translate(199.99 238.25)"><tspan>Operations × 10</tspan><tspan dy="-5" font-size="8">5</tspan></text><text fill="#000" stroke="none" stroke-linecap="round" stroke-linejoin="round" color="#000" font-family="KaTeX_Main" font-size="8" transform="translate(110.4 10.11)"><tspan>AVLBottomUp</tspan></text><g fill="none" stroke="currentColor" stroke-linecap="round" stroke-linejoin="round" color="#000"><path stroke="#000" d="M74.9 7.51h29.9M28 92.47l.36 11.2.36-1.06.37 22.39.36-4.26.36-29.33.36 13.33.36-6.4.37 10.67.36-8 .36 3.73.36-1.6.37 1.07.36 9.6.36-39.47.36 26.13.36 13.87.37-20.8.36 5.87.36-3.2.36 31.46.36-35.73.37 36.26.36-16.53.36-31.46.36 17.06.36-9.6.37 36.27.36-28.8.36-28.8.36 52.8.36-16 .37-11.73.36 10.66.36-5.33.36 1.6.37 20.8.36 1.6.36-15.47.36 1.07.36-17.6.37 3.2.36 33.6.36-52.27.36 22.94.36-32.53.37 43.19.36.54.36-2.67.36-7.47.36 3.2.37 15.47.36-13.87.36-19.2.36 24 .37 6.4.36-36.8.36-5.86.36 19.73.36 13.87.37-13.87.36 28.8h.36l.36-27.2.36 25.6h.37l.36-23.47.36 8.54.36-15.47.36 2.67.37 1.06.36 6.4.36 2.67.36.53.37-24.53.36 25.6.36 2.13.36-6.93.36 7.47.37-10.14.36-5.86.36 7.46h.36l.36-4.26.37 9.6.36-22.4.36 35.2.36 20.26.36-14.4.37-13.33.36-24 .36 27.2.36-9.6.36 6.4.37-11.73.36 24 .36 6.93.36-2.67.37-32.53.36 3.73.36 14.94.36.53.36-17.07.37 11.2.36-15.46.36 9.06.36-9.06.36 16.53.37-20.27.36 11.74.36 24.53.36-9.07.36 6.4.37-27.2.36 24.54.36 6.4.36-27.2.37 4.8.36-29.87.36 17.07.36 11.2.36 16.53.37-7.47.36-42.13.36 46.4.36-13.33.36 1.6.37 7.46.36-33.06.36 34.66.36-1.06.36-16 .37 10.66.36 3.2.36-11.73.36-3.73.36 30.4.37-20.27.36 5.33.36-5.33.36 12.8.37-3.73.36-5.34.36 8.54.36-25.07.36-1.6.37-14.4.36 21.33.36 2.67.36 29.86.36-28.79.37 31.46.36-38.93.36 8.53.36-.53.36 19.73.37-14.93.36-14.93.36-6.4.36 51.19.37-28.79.36 2.66.36-25.06.36 11.2.36-14.4.37 14.93.36 15.47.36 5.86.36-10.13.36-41.06.37 15.46.36 31.47.36-21.87.36 4.8.36 25.6.37 4.27.36-24.54.36-8.53.36 24 .36-26.67.37-10.13.36 14.93.36-6.4.36 28.8.37-46.93.36 56 .36-8 .36-31.47.36 28.8.37-22.4.36 19.74.36-12.8.36-2.14.36-11.2.37 20.27.36 13.87.36-19.2.36-4.8.36 25.06.37-21.86.36-10.14.36 25.6.36-47.46.37 27.2.36 21.86.36-.53.36 3.73.36-43.73.37 28.27.36 17.6.36-2.14.36-35.73.36 27.73.37-3.2.36 1.6.36-10.66.36 6.4.36 5.86.37 1.6.36-17.06.36-5.34.36 34.14.37-4.8.36-12.8.36-13.87.36 5.87.36 6.4.37-7.47.36 2.67.36 11.2.36-9.6.36-10.14.37 31.47.36-32 .36 24.53.36-13.86.36-10.14.37 14.94.36-16 .36-13.34.36 40 .36 3.2.37-44.8.36 17.07.36-10.13.36 21.86.37 6.94.36 2.13.36-9.07.36 14.4.36-15.46.37-8.54.36-9.6.36 27.74.36-14.94.36-6.93.37 8 .36 18.67.36-10.67.36-25.6.36 9.07.37 6.93.36 28.27.36-35.74.36-4.26.37 25.06.36-4.26.36-9.07.36-15.47.36 16.54.37 20.8.36-28.27.36 5.33.36 21.34.36-42.14.37 46.94.36-34.14.36 8.54.36 26.66.36-10.66.37-19.74.36 5.34.36 9.06.36-1.06.36-11.74.37-5.33.36 10.67.36-1.6.36 10.66.37 12.27.36-12.8.36-42.13.36 56.53.36-16.53.37 8.53.36-12.8.36-15.47.36.54.36 10.66.37 2.67.36-28.26.36 31.99.36-16.53.36 6.93.37 14.94.36-9.07.36 10.67.36 1.06.37 23.47.36-28.8.36-31.47.36 40.54.36-10.67.37-28.8.36 2.67.36 41.6.36-27.74.36-5.33.37 10.13.36 27.2.36-24 .36 23.47.36-17.07.37-6.93.36-19.2.36 15.47.36 4.8.36-17.07.37 17.07.36 24 .36-55.47.36 45.87.37-12.8.36-22.94.36-7.99.36 38.39.36 13.34.37-25.07.36 5.87.36 13.86.36-19.73.36-1.07.37 6.4.36-9.06.36-10.67.36 8h.36l.37 31.47.36-2.14.36-16 .36.54.37-20.27.36 13.33h.36l.36-2.13.36 26.13.37-26.13.36 4.27.36 21.86.36-30.4.36 21.87.37-25.6.36 2.13.36 19.74.36 2.66.36-12.8.37 45.33.36-16 .36-35.73.36-13.86.37 16.53.36 17.07.36-12.27.36 3.2.36 11.73.37-21.33.36-17.07.36 11.2.36 17.6.36 10.67.37-7.47.36-1.6h.36l.36-7.46.36 10.13.37-14.93.36 9.6.36-13.34.36 1.07.36-5.33.37 17.6.36 9.06.36-11.73.36 4.8.37 1.6.36 13.33.36-37.86.36 27.73.36-21.33.37-13.34.36 6.94.36 9.6.36 5.86.36 8 .37 8.54.36-18.67.36 3.73.36-12.26.36 21.86.37-14.4.36 2.14.36.53.36-49.6.37 48 .36-13.33.36-5.34.36 28.8.36-12.26.37-11.2.36 27.73.36-14.4.36 5.87.36 8.53.37-10.67.36 3.2.36 24 .36-47.46.36 18.13.37 24.53.36-4.26.36-30.94.36 26.14.36-17.6.37-34.13.36 41.59.36-3.73.36 28.26.37-15.99.36-9.6.36-22.4.36 13.86.36 5.34.37 6.4.36-19.74.36 13.87.36 4.27.36 23.99.37-35.19.36 6.4.36-2.67.36-9.07h.36l.37 18.67.36-24 .36 3.73.36 31.47.37-14.4.36 28.8.36-20.27.36-11.73.36-16.53.37 6.93.36-17.6.36 2.67.36 49.59.36-18.66.37-9.6.36-10.67.36 13.34.36-25.07.36 58.13.37-50.13.36 18.13.36 5.87.36-3.2.37-5.87.36-2.13.36 20.27.36-8.54.36-4.26.37-4.8.36 3.2.36-19.2.36 25.6.36-11.74.37-2.13.36 9.07.36-11.74.36 13.34.36 12.26.37-6.4.36-11.2.36 16 .36-43.2.36 32 .37-5.86.36 13.86.36-20.8.36 16.54.37-9.07.36-8 .36-2.67.36 20.27.36-35.2.37 16 .36 10.67.36-6.4.36 3.73.36 3.73.37-10.66.36 5.86.36 1.07.36 1.6.36 6.4.37 7.47.36-13.34.36-12.8.36 10.14.37 18.13.36 3.2.36-13.87.36 12.8.36-5.33.37-26.67.36 19.2.36-1.06.36 5.33.36-32.53.37 29.33.36-25.6.36 8 .36 10.13.36-9.06.37 26.66.36-34.66.36 4.26.36 11.2.36-33.06.37 32.53.36-3.2.36 11.73.36 7.47.37 4.8.36-12.27.36-35.19.36 18.66.36 18.67.37 19.19.36-29.86.36 21.87.36-29.87.36 17.6.37-8 .36 32.53.36-43.73.36-10.13.36 38.4.37-18.14.36-24 .36 15.47.36 13.33.37 3.2.36-18.66.36 16.53.36 23.46.36-6.93.37-33.6.36 16.54.36 13.33.36-18.67.36-6.4.37 10.67.36-2.67.36-18.13.36 1.07.36 1.6.37 4.8.36-14.4.36 46.4.36-58.13.36 27.73.37 13.33.36 9.6h.36l.36-8.53.37 5.33.36-8 .36-4.8.36 13.33.36 2.67.37-21.33.36 3.2.36-13.34.36 27.2.36-13.86.37 2.66.36-16 .36 20.27.36 3.2.36-20.27.37-8.53.36 23.47.36-.54.36 36.8.37-36.26.36-8 .36-6.94.36-6.4.36 25.6.37 5.34.36-6.94.36-23.46.36 36.26.36.54.37-27.2.36 15.46.36 1.6h.36l.36-25.6.37 18.67.36 20.27.36-11.74.36 13.34.37-25.6.36 11.73.36-9.6.36 10.67.36-3.2.37-24 .36 9.06.36 31.47.36 4.8.36-21.33.37 43.19.36-53.86.36 22.4.36-10.67.36-25.06.37 12.26.36 8.54.36-7.47.36 6.4.36-6.93.37 6.4.36-11.74.36 34.67.36-15.47.37 2.14.36-31.47.36 13.33.36 10.67.36 4.27.37 13.33.36 2.67.36-24.54.36-16 .36 26.67.37 7.47.36-8.54.36-6.93.36 18.67.36-22.4.37 18.13.36-13.87.36 2.67.36 16.53.37-3.73.36-32 .36 20.8.36-11.2.36-8 .37-8 .36 16.53.36 27.74.36-29.34.36 21.87.37-54.93.36 44.26.36-4.26.36-2.67.36 23.47.37-13.87.36-9.6.36-5.87.36 17.6.36-20.8.37 10.14.36 17.6.36-35.2.36 28.26.37 28.8.36-22.93.36 3.73.36 4.27.36-13.87.37-4.8.36 10.14.36-18.67.36-3.73.36-1.07h.37l.36-9.6.36 33.07.36-2.14.36-10.66.37-27.2.36 32.53.36-32 .36 29.33.37 44.27.36-56h.36l.36 14.93.36 13.34.37-21.87.36 11.2.36-10.13.36 30.39.36-35.73.37 28.27.36.53.36-6.4.36-21.86.36 13.33.37-27.73.36 29.33.36 3.2.36-2.67.36 3.2.37 18.13.36-7.99.36-8 .36-9.6.37 12.26.36-10.66.36-22.4.36-4.27.36 27.2.37.53.36 11.2.36-18.66.36 3.2.36-27.74.37 29.87.36-4.8.36 6.4.36-7.47.36.54.37 2.66.36 16 .36 1.07.36-5.87.37 19.2.36-46.4.36 28.8.36-17.6.36-13.86.37 36.26.36-29.86.36 27.73.36-32 .36-2.13.37 1.6.36-14.93.36 39.99.36-14.93.36 13.33.37 2.67.36-18.13.36 1.6.36 3.2.37-4.27.36-.53.36-9.6.36 5.33.36 11.2.37 15.47.36-1.07.36-.53.36 1.6.36-32.54.37 2.67.36 35.73.36-26.13h.36l.36 21.87.37-18.14.36 26.67.36-38.4.36 26.13.36 1.6.37-14.4.36 16 .36-22.4.36-16 .37 10.67.36 13.87.36-6.4.36-4.27.36-9.07.37 22.4.36.54.36 9.06.36-16 .36-10.13.37-20.8.36 32 .36-9.07.36 6.94.36 12.26.37-7.46.36-2.14.36 12.27.36-18.13.37 16 .36-1.6.36 5.86.36-17.06.36 4.8.37-11.74.36 12.8.36 22.4.36-53.33.36 28.8.37 2.13.36-45.33.36 38.93.36 26.14.36-14.94.37-2.66.36 2.66.36 1.6.36-24 .36.54.37 32 .36-16 .36 12.8h.36l.37-2.67.36-23.47.36-1.06.36 19.2.36 9.6.37 1.6.36-22.94.36-1.6.36-19.73.36 29.33.37-10.66.36-2.67.36-27.2.36 31.47.36 12.8.37-53.87.36 66.13.36-6.93.36-14.93.37 4.26.36 2.14.36-19.2.36 15.46.36 19.74.37-12.27.36 18.66.36-30.39.36-3.74.36 18.14.37-20.27.36 20.8.36 10.67.36-25.6.36 7.46.37.54.36 21.86.36-34.66.36-1.07.36 17.6.37-24.53.36 30.4.36-18.14.36-1.6.37-1.6.36 22.94.36-4.27.36 5.33.36-7.46.37-5.87.36-11.73.36 32.53.36-40.53.36 5.86.37 35.2.36-30.93.36-3.2.36 8.53.36-9.6.37-12.8.36 27.2.36 1.6.36 2.67.37-11.73.36 1.6.36 13.86.36-8 .36-13.86.37 12.8.36 4.8.36-18.67.36 20.8.36-11.73.37 4.8.36 15.46.36-20.26.36 9.6.36-13.87.37 18.13.36-19.73.36-2.13.36-26.13.37 35.73.36 3.73.36-8.53.36 6.93.36-1.07.37-16.53.36 14.4.36 11.2.36-3.73.36-17.6.37 6.93.36-11.73.36 4.26.36-3.73.36 34.67.37-26.14.36 13.87.36-13.33.36 5.86.36 14.4.37 2.67.36-12.27.36 2.14.36-.54.37-6.93.36-32.53.36 40.53.36 9.6.36-39.47.37 24 .36-12.26.36 10.13"/><use xlink:href="#g" transform="matrix(3.75 0 0 3.75 354.25 97.81)"/><use xlink:href="#g" transform="matrix(3.75 0 0 3.75 89.85 7.51)"/></g><text fill="#000" stroke="none" stroke-linecap="round" stroke-linejoin="round" color="#000" font-family="KaTeX_Main" font-size="8" transform="translate(110.4 25.11)"><tspan>AVLTopDown</tspan></text><g fill="none" stroke="currentColor" stroke-linecap="round" stroke-linejoin="round" color="#000"><path stroke="#29C3F6" stroke-dasharray="1.0,2.0" d="M74.9 22.51h29.9M28 92.47l.36 11.2.36-1.06.37 22.39.36-4.26.36-29.33.36 13.33.36-6.4.37 10.67.36-8 .36 3.73.36-1.6.37 1.07.36 9.6.36-39.47.36 26.13.36 13.87.37-20.8.36 5.87.36-3.2.36 31.46.36-35.73.37 36.26.36-16.53.36-31.46.36 17.06.36-9.6.37 36.27.36-28.8.36-28.8.36 52.8.36-16 .37-11.73.36 10.66.36-5.33.36 1.6.37 20.8.36 1.6.36-15.47.36 1.07.36-17.6.37 3.2.36 33.6.36-52.27.36 22.94.36-32.53.37 43.19.36.54.36-2.67.36-7.47.36 3.2.37 15.47.36-13.87.36-19.2.36 24 .37 6.4.36-36.8.36-5.86.36 19.73.36 13.87.37-13.87.36 28.8h.36l.36-27.2.36 25.6h.37l.36-23.47.36 8.54.36-15.47.36 2.67.37 1.06.36 6.4.36 2.67.36.53.37-24.53.36 25.6.36 2.13.36-6.93.36 7.47.37-10.14.36-5.86.36 7.46h.36l.36-4.26.37 9.6.36-22.4.36 35.2.36 20.26.36-14.4.37-13.33.36-24 .36 27.2.36-9.6.36 6.4.37-11.73.36 24 .36 6.93.36-2.67.37-32.53.36 3.73.36 14.94.36.53.36-17.07.37 11.2.36-15.46.36 9.06.36-9.06.36 16.53.37-20.27.36 11.74.36 24.53.36-9.07.36 6.4.37-27.2.36 24.54.36 6.4.36-27.2.37 4.8.36-29.87.36 17.07.36 11.2.36 16.53.37-7.47.36-42.13.36 46.4.36-13.33.36 1.6.37 7.46.36-33.06.36 34.66.36-1.06.36-16 .37 10.66.36 3.2.36-11.73.36-3.73.36 30.4.37-20.27.36 5.33.36-5.33.36 12.8.37-3.73.36-5.34.36 8.54.36-25.07.36-1.6.37-14.4.36 21.33.36 2.67.36 29.86.36-28.79.37 31.46.36-38.93.36 8.53.36-.53.36 19.73.37-14.93.36-14.93.36-6.4.36 51.19.37-28.79.36 2.66.36-25.06.36 11.2.36-14.4.37 14.93.36 15.47.36 5.86.36-10.13.36-41.06.37 15.46.36 31.47.36-21.87.36 4.8.36 25.6.37 4.27.36-24.54.36-8.53.36 24 .36-26.67.37-10.13.36 14.93.36-6.4.36 28.8.37-46.93.36 56 .36-8 .36-31.47.36 28.8.37-22.4.36 19.74.36-12.8.36-2.14.36-11.2.37 20.27.36 13.87.36-19.2.36-4.8.36 25.06.37-21.86.36-10.14.36 25.6.36-47.46.37 27.2.36 21.86.36-.53.36 3.73.36-43.73.37 28.27.36 17.6.36-2.14.36-35.73.36 27.73.37-3.2.36 1.6.36-10.66.36 6.4.36 5.86.37 1.6.36-17.06.36-5.34.36 34.14.37-4.8.36-12.8.36-13.87.36 5.87.36 6.4.37-7.47.36 2.67.36 11.2.36-9.6.36-10.14.37 31.47.36-32 .36 24.53.36-13.86.36-10.14.37 14.94.36-16 .36-13.34.36 40 .36 3.2.37-44.8.36 17.07.36-10.13.36 21.86.37 6.94.36 2.13.36-9.07.36 14.4.36-15.46.37-8.54.36-9.6.36 27.74.36-14.94.36-6.93.37 8 .36 18.67.36-10.67.36-25.6.36 9.07.37 6.93.36 28.27.36-35.74.36-4.26.37 25.06.36-4.26.36-9.07.36-15.47.36 16.54.37 20.8.36-28.27.36 5.33.36 21.34.36-42.14.37 46.94.36-34.14.36 8.54.36 26.66.36-10.66.37-19.74.36 5.34.36 9.06.36-1.06.36-11.74.37-5.33.36 10.67.36-1.6.36 10.66.37 12.27.36-12.8.36-42.13.36 56.53.36-16.53.37 8.53.36-12.8.36-15.47.36.54.36 10.66.37 2.67.36-28.26.36 31.99.36-16.53.36 6.93.37 14.94.36-9.07.36 10.67.36 1.06.37 23.47.36-28.8.36-31.47.36 40.54.36-10.67.37-28.8.36 2.67.36 41.6.36-27.74.36-5.33.37 10.13.36 27.2.36-24 .36 23.47.36-17.07.37-6.93.36-19.2.36 15.47.36 4.8.36-17.07.37 17.07.36 24 .36-55.47.36 45.87.37-12.8.36-22.94.36-7.99.36 38.39.36 13.34.37-25.07.36 5.87.36 13.86.36-19.73.36-1.07.37 6.4.36-9.06.36-10.67.36 8h.36l.37 31.47.36-2.14.36-16 .36.54.37-20.27.36 13.33h.36l.36-2.13.36 26.13.37-26.13.36 4.27.36 21.86.36-30.4.36 21.87.37-25.6.36 2.13.36 19.74.36 2.66.36-12.8.37 45.33.36-16 .36-35.73.36-13.86.37 16.53.36 17.07.36-12.27.36 3.2.36 11.73.37-21.33.36-17.07.36 11.2.36 17.6.36 10.67.37-7.47.36-1.6h.36l.36-7.46.36 10.13.37-14.93.36 9.6.36-13.34.36 1.07.36-5.33.37 17.6.36 9.06.36-11.73.36 4.8.37 1.6.36 13.33.36-37.86.36 27.73.36-21.33.37-13.34.36 6.94.36 9.6.36 5.86.36 8 .37 8.54.36-18.67.36 3.73.36-12.26.36 21.86.37-14.4.36 2.14.36.53.36-49.6.37 48 .36-13.33.36-5.34.36 28.8.36-12.26.37-11.2.36 27.73.36-14.4.36 5.87.36 8.53.37-10.67.36 3.2.36 24 .36-47.46.36 18.13.37 24.53.36-4.26.36-30.94.36 26.14.36-17.6.37-34.13.36 41.59.36-3.73.36 28.26.37-15.99.36-9.6.36-22.4.36 13.86.36 5.34.37 6.4.36-19.74.36 13.87.36 4.27.36 23.99.37-35.19.36 6.4.36-2.67.36-9.07h.36l.37 18.67.36-24 .36 3.73.36 31.47.37-14.4.36 28.8.36-20.27.36-11.73.36-16.53.37 6.93.36-17.6.36 2.67.36 49.59.36-18.66.37-9.6.36-10.67.36 13.34.36-25.07.36 58.13.37-50.13.36 18.13.36 5.87.36-3.2.37-5.87.36-2.13.36 20.27.36-8.54.36-4.26.37-4.8.36 3.2.36-19.2.36 25.6.36-11.74.37-2.13.36 9.07.36-11.74.36 13.34.36 12.26.37-6.4.36-11.2.36 16 .36-43.2.36 32 .37-5.86.36 13.86.36-20.8.36 16.54.37-9.07.36-8 .36-2.67.36 20.27.36-35.2.37 16 .36 10.67.36-6.4.36 3.73.36 3.73.37-10.66.36 5.86.36 1.07.36 1.6.36 6.4.37 7.47.36-13.34.36-12.8.36 10.14.37 18.13.36 3.2.36-13.87.36 12.8.36-5.33.37-26.67.36 19.2.36-1.06.36 5.33.36-32.53.37 29.33.36-25.6.36 8 .36 10.13.36-9.06.37 26.66.36-34.66.36 4.26.36 11.2.36-33.06.37 32.53.36-3.2.36 11.73.36 7.47.37 4.8.36-12.27.36-35.19.36 18.66.36 18.67.37 19.19.36-29.86.36 21.87.36-29.87.36 17.6.37-8 .36 32.53.36-43.73.36-10.13.36 38.4.37-18.14.36-24 .36 15.47.36 13.33.37 3.2.36-18.66.36 16.53.36 23.46.36-6.93.37-33.6.36 16.54.36 13.33.36-18.67.36-6.4.37 10.67.36-2.67.36-18.13.36 1.07.36 1.6.37 4.8.36-14.4.36 46.4.36-58.13.36 27.73.37 13.33.36 9.6h.36l.36-8.53.37 5.33.36-8 .36-4.8.36 13.33.36 2.67.37-21.33.36 3.2.36-13.34.36 27.2.36-13.86.37 2.66.36-16 .36 20.27.36 3.2.36-20.27.37-8.53.36 23.47.36-.54.36 36.8.37-36.26.36-8 .36-6.94.36-6.4.36 25.6.37 5.34.36-6.94.36-23.46.36 36.26.36.54.37-27.2.36 15.46.36 1.6h.36l.36-25.6.37 18.67.36 20.27.36-11.74.36 13.34.37-25.6.36 11.73.36-9.6.36 10.67.36-3.2.37-24 .36 9.06.36 31.47.36 4.8.36-21.33.37 43.19.36-53.86.36 22.4.36-10.67.36-25.06.37 12.26.36 8.54.36-7.47.36 6.4.36-6.93.37 6.4.36-11.74.36 34.67.36-15.47.37 2.14.36-31.47.36 13.33.36 10.67.36 4.27.37 13.33.36 2.67.36-24.54.36-16 .36 26.67.37 7.47.36-8.54.36-6.93.36 18.67.36-22.4.37 18.13.36-13.87.36 2.67.36 16.53.37-3.73.36-32 .36 20.8.36-11.2.36-8 .37-8 .36 16.53.36 27.74.36-29.34.36 21.87.37-54.93.36 44.26.36-4.26.36-2.67.36 23.47.37-13.87.36-9.6.36-5.87.36 17.6.36-20.8.37 10.14.36 17.6.36-35.2.36 28.26.37 28.8.36-22.93.36 3.73.36 4.27.36-13.87.37-4.8.36 10.14.36-18.67.36-3.73.36-1.07h.37l.36-9.6.36 33.07.36-2.14.36-10.66.37-27.2.36 32.53.36-32 .36 29.33.37 44.27.36-56h.36l.36 14.93.36 13.34.37-21.87.36 11.2.36-10.13.36 30.39.36-35.73.37 28.27.36.53.36-6.4.36-21.86.36 13.33.37-27.73.36 29.33.36 3.2.36-2.67.36 3.2.37 18.13.36-7.99.36-8 .36-9.6.37 12.26.36-10.66.36-22.4.36-4.27.36 27.2.37.53.36 11.2.36-18.66.36 3.2.36-27.74.37 29.87.36-4.8.36 6.4.36-7.47.36.54.37 2.66.36 16 .36 1.07.36-5.87.37 19.2.36-46.4.36 28.8.36-17.6.36-13.86.37 36.26.36-29.86.36 27.73.36-32 .36-2.13.37 1.6.36-14.93.36 39.99.36-14.93.36 13.33.37 2.67.36-18.13.36 1.6.36 3.2.37-4.27.36-.53.36-9.6.36 5.33.36 11.2.37 15.47.36-1.07.36-.53.36 1.6.36-32.54.37 2.67.36 35.73.36-26.13h.36l.36 21.87.37-18.14.36 26.67.36-38.4.36 26.13.36 1.6.37-14.4.36 16 .36-22.4.36-16 .37 10.67.36 13.87.36-6.4.36-4.27.36-9.07.37 22.4.36.54.36 9.06.36-16 .36-10.13.37-20.8.36 32 .36-9.07.36 6.94.36 12.26.37-7.46.36-2.14.36 12.27.36-18.13.37 16 .36-1.6.36 5.86.36-17.06.36 4.8.37-11.74.36 12.8.36 22.4.36-53.33.36 28.8.37 2.13.36-45.33.36 38.93.36 26.14.36-14.94.37-2.66.36 2.66.36 1.6.36-24 .36.54.37 32 .36-16 .36 12.8h.36l.37-2.67.36-23.47.36-1.06.36 19.2.36 9.6.37 1.6.36-22.94.36-1.6.36-19.73.36 29.33.37-10.66.36-2.67.36-27.2.36 31.47.36 12.8.37-53.87.36 66.13.36-6.93.36-14.93.37 4.26.36 2.14.36-19.2.36 15.46.36 19.74.37-12.27.36 18.66.36-30.39.36-3.74.36 18.14.37-20.27.36 20.8.36 10.67.36-25.6.36 7.46.37.54.36 21.86.36-34.66.36-1.07.36 17.6.37-24.53.36 30.4.36-18.14.36-1.6.37-1.6.36 22.94.36-4.27.36 5.33.36-7.46.37-5.87.36-11.73.36 32.53.36-40.53.36 5.86.37 35.2.36-30.93.36-3.2.36 8.53.36-9.6.37-12.8.36 27.2.36 1.6.36 2.67.37-11.73.36 1.6.36 13.86.36-8 .36-13.86.37 12.8.36 4.8.36-18.67.36 20.8.36-11.73.37 4.8.36 15.46.36-20.26.36 9.6.36-13.87.37 18.13.36-19.73.36-2.13.36-26.13.37 35.73.36 3.73.36-8.53.36 6.93.36-1.07.37-16.53.36 14.4.36 11.2.36-3.73.36-17.6.37 6.93.36-11.73.36 4.26.36-3.73.36 34.67.37-26.14.36 13.87.36-13.33.36 5.86.36 14.4.37 2.67.36-12.27.36 2.14.36-.54.37-6.93.36-32.53.36 40.53.36 9.6.36-39.47.37 24 .36-12.26.36 10.13"/><use xlink:href="#h" color="#29C3F6" transform="matrix(3.75 0 0 3.75 67.83 120.74)"/><use xlink:href="#h" color="#29C3F6" transform="matrix(3.75 0 0 3.75 89.85 22.51)"/></g><text fill="#000" stroke="none" stroke-linecap="round" stroke-linejoin="round" color="#000" font-family="KaTeX_Main" font-size="8" transform="translate(241.1 10.11)"><tspan>RedBlackBottomUp</tspan></text><g fill="none" stroke="currentColor" stroke-linecap="round" stroke-linejoin="round" color="#000"><path stroke="#F44336" d="M205.6 7.51h29.9M28 161.27l.36 3.2.36 15.46.37-3.73.36-19.2.36-31.46.36 20.26.36-.53.37 30.4.36-10.13.36 1.6.36-2.67.37 8 .36 26.66.36-51.73.36 39.47.36-25.07.37-16 .36-8.53.36 23.47.36 15.46h.36l.37 1.6.36-.53.36-32 .36 24 .36-16.53.37 16 .36-3.2.36-31.47.36 28.27h.36l.37 3.2.36-36.8.36 31.46.36 5.34.37-19.74.36 30.4.36-7.46.36-2.14.36-2.13.37-1.6.36 21.86.36-17.06.36-8.53.36-18.67.37 32.53.36 8.53.36-16.53.36 5.87.36 16 .37-25.07.36.54.36-12.8.36 18.13.37-11.2.36 4.8.36-29.33.36 21.33.36 17.6.37-27.2.36 27.73.36-13.33.36 3.2.36 9.07.37-10.14.36 4.27.36-8 .36 5.87.36-11.2.37 27.19.36-17.06.36-4.8.36 10.13.37-9.06.36 10.66.36.54.36-7.47.36 6.93.37-5.33.36-2.67.36 8 .36-10.13h.36l.37 19.2.36-49.07.36 38.94.36 10.66.36-26.66.37 18.66.36-27.2.36 36.27.36-24.53.36 16 .37-33.07.36 35.2.36 4.8.36-25.6.37-26.13.36 46.93.36-3.73.36.53.36-29.33.37 28.26.36-13.33.36-9.07.36 24.54.36 5.33.37-25.07.36-2.13.36 15.47.36 17.59.36-20.79.37-3.2.36 5.33.36 17.06.36-15.46.37 8 .36-26.67.36 3.2.36 14.94.36-4.27.37-7.47.36-20.26.36 30.4.36-9.6.36 5.86.37 35.73.36-37.86.36 2.13.36-8.53.36 3.2.37-.53.36 5.86.36-15.46.36 16.53.36 30.93.37-46.93.36 14.93.36 2.14.36 17.06.37 12.27.36-33.07.36 26.13.36-31.99.36 20.8.37-37.34.36 1.07.36 37.33.36-7.46.36-10.14.37 1.6.36 6.4.36 4.27.36-13.87.36 9.07.37-5.87.36 22.4.36-43.2.36 21.87.37-5.33.36 15.46.36-25.06.36 18.13.36 17.6.37-17.07.36-9.06.36 23.46.36-13.86.36-13.87.37 4.27.36 15.46.36-22.4.36 20.27.36 9.6.37-8 .36 1.6.36-.53.36-6.4.36-19.74h.37l.36 42.13.36-49.06.36 29.33.37-15.46.36 13.33.36 13.87.36-14.94.36 15.47.37-53.33.36 44.26.36 3.74.36-10.67.36.53.37-1.6.36 9.6.36 3.74.36-22.94.36 19.74.37-12.8.36-16.54.36 37.33.36-41.59.37 45.33.36 5.86.36-12.79.36-17.6.36-7.47.37 4.27.36 25.06.36 1.6.36-43.2.36 6.4.37 13.87.36-1.6.36 16 .36-10.13.36-4.27.37 6.93.36-1.6.36-17.06.36 29.33.37-6.4h.36l.36-21.87.36 9.6.36-10.13.37 25.07.36-21.87.36 12.27.36-13.34.36.54.37 26.13.36-16 .36 11.2.36-18.13.36-10.14.37 26.14.36-13.34.36-21.33.36 44.26.36 3.2.37-25.06.36-12.8.36 8.53.36 15.47.37-17.6.36 9.6.36 5.33.36-2.13.36-16 .37 1.6.36 14.4.36 10.67.36-20.27.36-12.8.37 31.47.36-3.2.36 4.8.36-21.87.36-7.47.37 18.67.36 25.06.36-28.26.36 2.13.37-3.73.36 16 .36-2.67.36-20.26.36 16.53.37 27.73.36-40 .36-9.6.36 26.14.36-31.47.37 15.47.36 21.33.36-17.6.36 18.66.36-3.19.37-20.8.36-13.34.36 26.67.36-3.73.36-6.4.37 8.53.36 8.53.36-15.46.36 21.86.37-29.33.36 14.4.36-28.27.36 30.94.36-6.94.37-9.6.36 15.47.36-5.33.36-4.8.36-16 .37 19.73.36-16.53.36 7.46.36 18.67.36-17.6.37 18.13.36-18.13.36 10.67.36-9.6.37 22.4.36-24 .36 8 .36-3.74.36-14.93.37-9.07.36 6.4.36 31.47.36-1.07.36-26.66.37-12.8.36 53.33.36-33.6.36 17.6.36-4.8.37-3.73.36-13.34.36 19.2.36-16.53.36 4.8.37-.53.36 5.86.36-17.06.36 32 .37-8 .36-4.27.36-8 .36 22.93.36.54.37-9.07.36 6.4.36 8 .36-13.33.36-1.07.37-30.93.36 11.2.36 21.33.36-9.6.36 7.47.37 1.06.36 1.07.36 4.27.36-10.14.37 3.74.36-3.2.36-25.6.36 47.99.36-25.06.37-3.73.36-6.4.36 29.86.36-30.93.36 27.2.37-16 .36 22.93.36-18.66.36 1.06.36-9.06.37 20.79.36.54.36-21.87.36 1.6.37-.53.36 10.13.36 5.34.36-16.54.36 16 .37-49.59.36 12.79.36 27.74.36 9.06.36-21.86.37 23.46.36 8.53.36-28.26.36-11.2.36 21.87.37-3.2.36 4.26.36-11.73.36 29.86.36-12.26.37-13.33.36-16 .36 22.93.36-8 .37 1.07.36 9.6.36-8 .36-5.34.36-3.73.37-16 .36 4.27.36 10.66.36-19.2.36 14.94.37 23.46.36 2.14.36-10.67.36 4.8.36-18.67.37-2.66.36 24.53.36-4.8.36-22.93.37 12.26.36 2.67.36-6.93.36 12.26.36-21.33.37-4.8.36 33.6.36 21.86.36-41.06.36 8.53.37 7.47.36-13.33.36 19.73.36-14.93.36 14.93.37 16.53.36-29.86.36-4.8.36 20.26.36 2.67.37-33.07.36 16 .36 4.27.36 25.6.37-45.33.36 12.26.36 18.67.36-7.47.36-25.06.37 36.26.36-25.06.36 7.46.36 6.4.36 21.87.37-43.2.36 24.53.36-22.93.36.53.36-10.13.37 34.67.36-37.87.36 26.67.36-9.07.37 2.67.36 20.26.36 1.6.36-9.06.36-19.2.37 20.26.36-32.53.36 13.87.36 12.8.36 19.73.37-33.07.36-3.73.36 17.07.36-14.4.36 42.13.37-60.27.36 31.47.36-3.73.36 7.46.37-32.53.36 20.8.36 10.67.36 8 .36-14.94.37-21.86.36 10.66.36 2.67.36 17.6.36-1.6.37 1.07.36 4.26.36-1.06.36-1.07.36 2.13.37 9.6.36-9.6.36 8 .36-35.2.36 11.2.37 10.67.36 7.47.36-6.94.36 1.07.37-4.27.36-27.2.36 27.74.36 6.4.36-20.27.37 13.87.36-9.6.36 14.4.36-16 .36 4.8.37-19.2.36 3.2.36 22.93.36-12.27.36 14.94.37 18.66.36-47.46.36 4.8.36 36.26.37-13.33.36-10.13.36 12.26.36 5.34.36-1.07.37-8.53.36 9.6.36-7.47.36 3.73.36-16.53.37 19.2.36-11.2.36-12.27.36 9.6.36-2.66.37 9.6.36-15.47.36-2.13.36 15.46.36-14.93.37 8 .36-3.2.36 22.93.36-1.6.37-11.2.36-3.2.36 5.34.36 7.46.36-1.6.37 9.6.36-22.93.36 16 .36-15.47.36 10.14.37-38.4.36 64.53.36-44.27.36 2.14.36 22.93.37-30.93.36 11.73.36 9.6.36-2.13.37 5.33.36-20.27.36 17.07.36 20.8.36-6.94.37-.53.36-9.06.36 5.86.36-25.6.36-14.93.37 28.27.36-7.47.36 1.07.36-25.6.36 34.13.37-16 .36-18.67.36 36.8.36-50.66.36 43.73.37 23.46.36-19.19.36 8 .36-10.14.37-4.8.36-2.66.36 5.33.36 2.67.36 10.66.37-22.93.36 3.73.36 4.27.36 11.73.36-17.06.37-1.6.36 6.93.36-6.4.36 22.4.36-34.13.37 17.6h.36l.36 1.6.36 9.6.37-9.6.36-11.74.36 3.74.36-7.47.36 19.73.37.54.36 34.66.36-69.86.36 25.6.36 22.93.37-17.07.36 3.74.36-19.2.36 24.53.36-9.07.37 9.07.36-18.13.36 9.6.36 14.93.37.53.36-6.93.36-5.33.36 1.06.36-8 .37 8 .36 7.47.36-6.4.36-3.2.36-12.27.37 46.93.36-35.19.36-3.74.36 4.27.36-13.33.37-12.8.36 26.13.36 5.33.36-11.2.36 9.07.37-12.8.36.53.36-8 .36 8.54.37 22.39.36-30.39.36-3.2.36 18.66.36 11.74.37 7.99.36-13.86.36 2.13.36-14.4.36 2.14.37 19.19.36-24.53.36-1.6.36 20.27.36-10.13.37 7.46.36 1.6.36-3.2.36 7.47.37-9.6.36-46.4.36 35.2.36-16.53.36 11.73.37 10.13.36 5.87.36 8 .36-14.93.36 20.26.37-58.66.36 5.86.36 17.6.36 22.94.36-11.74.37 13.87.36-17.6.36 5.87.36-3.2.36-4.8.37 17.6.36 2.66.36-37.86.36 37.86.37 5.34.36 5.86.36-4.8.36-5.33.36-17.07.37 20.27.36-1.07.36 9.6.36-25.06.36 1.06.37 9.6.36-24.53.36 27.73.36 1.07.36-10.67.37 4.8.36-17.06.36-8 .36 28.8.37 25.06.36-37.33.36-5.33.36-1.6.36 13.33.37 5.87.36 10.13.36 2.13.36-1.6.36-24.53.37 14.4.36 1.6.36 12.26.36-41.59.36 35.73.37-38.93.36 12.26.36-18.13.36 20.8.36 18.13.37 11.2.36-12.26.36-8.54.36 3.2.37-10.66.36-1.07.36-15.47.36 34.67.36-13.33.37 3.73.36 9.6.36 3.2.36-14.93.36-34.67.37 31.47.36-.54.36-1.06.36-10.14.36 16.54.37-17.07.36 18.13.36 17.07.36-15.47.37 8.54.36-18.14.36 33.07.36-27.2.36-19.2.37 20.8.36-3.73.36 20.79.36-22.39.36-23.47.37 25.6.36-3.2.36 26.66L305 165l.36 2.67.37-15.47.36 3.2.36 19.74.36-19.74.37 17.07.36 2.67.36-14.94.36 1.6.36 24.53.37-22.93.36-4.8.36 10.14.36-7.47.36 4.27.37-21.87.36 35.73.36-27.2.36-18.13.36 36.8.37-19.73.36 29.33.36-25.6.36 6.93.36 8 .37 4.8.36-9.06.36-10.14.36-2.66.37-5.87.36 14.93.36 1.07.36-15.47.36-4.26.37 15.46.36-11.2.36 26.67.36-6.4.36-5.33.37-21.87.36 30.4.36-18.67.36 16h.36l.37-16.53.36 2.67.36 8.53.36 8.53.37-17.06.36-5.87.36 25.07.36 1.6.36-1.07.37-9.07.36 3.74.36 13.86.36-40.53.36 20.8.37 2.67.36-21.34.36 22.4.36 6.4.36-26.13.37 3.2.36 18.67.36 8.53.36-29.33.36 22.93.37-20.27.36 4.27.36 20.8.36-9.07.37-5.33.36-11.73.36 21.33.36-2.67.36 11.2.37-10.13.36-22.4.36 8 .36-1.6.36 2.13.37 1.07.36-17.07.36-29.33.36 46.93.36-3.73.37-17.6.36 19.2.36 20.8.36-22.4.37 20.8.36-10.13.36-39.47.36 29.33.36 40.53.37-29.33.36 20.27.36-40 .36 27.2.36-19.73.37 1.06.36 16 .36-11.2.36-5.86.36 13.33.37 4.27.36 21.86.36-49.6.36-22.93.36 37.87.37 2.66.36-1.06.36-15.47.36 13.33.37-22.4.36 47.47.36-26.67.36 5.87.36 2.13.37 21.33.36-17.59.36 18.66.36-18.66.36-20.27.37 27.73.36-28.8.36 21.87.36 4.8.36-10.67.37 7.47.36-8 .36 18.13.36-13.33.37-7.47.36-9.06.36 18.66.36-20.26.36-3.2.37 8 .36 10.13.36-19.2.36 12.27.36-3.2.37 7.46.36-5.33.36 4.8.36 3.2h.36l.37 5.33.36.54.36-11.74.36-14.4.37 29.34.36-20.8.36 21.86.36-32.53.36 21.33.37-6.4.36 13.87.36-4.8.36-2.67.36-4.26.37-9.6.36-16 .36 33.06.36-14.4.36 13.34.37-28.27.36 33.07.36-8.54.36 5.34.36-16.54.37 20.8.36 10.13.36-23.46.36 15.47.37-17.07.36-.53.36 6.93.36-12.27.36.54.37-20.27.36 32 .36 6.4"/><use xlink:href="#e" color="#F44336" transform="matrix(3.75 0 0 3.75 125.4 167.67)"/><use xlink:href="#e" color="#F44336" transform="matrix(3.75 0 0 3.75 220.55 7.51)"/></g><text fill="#000" stroke="none" stroke-linecap="round" stroke-linejoin="round" color="#000" font-family="KaTeX_Main" font-size="8" transform="translate(241.1 25.11)"><tspan>RedBlackTopDown</tspan></text><g fill="none" stroke="currentColor" stroke-linecap="round" stroke-linejoin="round" color="#000"><path stroke="#3B75EA" stroke-dasharray="1.0,2.0" d="M205.6 22.51h29.9M28 147.4l.36 6.4.36 22.4.37-12.8.36-9.06.36-26.67.36 19.2.36-6.4.37 40.53.36-23.46.36 3.2.36-.54.37 18.13.36 16.54.36-44.27.36 36.27.36-35.73.37-9.07.36-5.87.36 13.87.36 26.67.36-6.94.37.54.36-.54.36-36.26.36 22.93.36-5.87.37 19.74.36-11.74.36-27.2.36 32 .36-5.86.37 5.33.36-36.8.36 32 .36 1.07.37-21.87.36 34.67.36-6.4.36-2.14.36-14.4.37 4.8.36 21.87.36-12.27.36-10.13.36-13.33.37 33.6.36-3.74.36-9.06.36 6.93.36 18.13.37-24 .36 1.07.36-24.53.36 25.6.37.53h.36l.36-32 .36 25.07.36 11.2.37-26.14.36 25.07.36-11.2.36-1.6.36 11.73.37-16 .36 4.27.36-.53.36 8 .36-16 .37 22.4.36-6.94.36-10.66.36 11.73.37-14.4.36 14.93.36 3.2.36-14.93.36 8.53.37 8 .36-8.53.36 3.73.36-5.33.36-4.8.37 24 .36-62.93.36 55.46.36 6.94.36-26.14.37 18.14.36-44.8.36 51.73.36-37.87.36 31.47.37-41.07.36 41.6.36 5.87.36-30.4.37-14.93.36 27.73.36 8.53.36-9.06.36-26.67.37 40.53.36-21.86.36-1.6.36 7.46.36 5.87.37-13.33.36-5.34.36 20.27.36 15.46.36-26.66.37-1.6.36 7.47.36 12.8.36-10.67.37 16.53.36-41.6.36 16.54.36 3.2.36 1.6.37 1.6.36-25.07.36 37.33.36-23.46.36-5.34.37 41.6.36-30.93.36 6.4.36-10.67.36 2.14.37 1.06.36 5.34.36-19.2.36 21.33.36 22.4.37-38.93.36 18.66.36-9.06.36 26.13.37 10.13.36-41.06.36 30.4.36-34.67.36 19.73.37-29.86.36 13.86.36 26.14.36-6.94.36-16 .37 6.4.36-1.06.36 8.53.36-16 .36 12.8.37-16 .36 30.4.36-35.73.36 18.66.37-6.4.36 11.2.36-34.13.36 25.07.36 18.66.37-17.06.36-8.54.36 25.6.36-11.73.36-20.8.37 7.47.36 22.93.36-39.47.36 33.6.36 9.07.37-5.87.36 2.14.36-4.8.36-4.27.36-31.47.37 19.2.36 32 .36-50.66.36 27.2.37-21.87.36 27.73.36 11.2.36-24.53.36 29.86.37-54.92.36 39.99.36 3.2.36-15.46.36 2.13.37-6.93.36 14.93.36 14.93.36-27.73.36 16 .37-6.4.36-5.87.36 15.47.36-39.47.37 42.67.36 8 .36-8 .36-17.07h.36l.37-4.26.36 38.93.36-14.4.36-35.73.36 12.26.37 8.54.36-5.34.36 11.74.36-9.6.36-18.14.37 18.67.36 13.87.36-30.4.36 32 .37-3.74.36-11.2.36-22.4.36 11.74.36 7.46.37 8.54.36-15.47.36 16 .36-20.27.36 12.27.37 7.47.36-11.2.36 14.4.36-6.94.36-18.66.37 24 .36 6.4.36-38.94.36 42.67.36-.53.37-21.34.36-17.06.36 16 .36 13.33.37-15.47.36 3.2.36-3.2.36 19.74.36-14.4.37-18.14.36 21.34.36 21.86.36-33.06.36-4.8.37 24.53.36-9.07.36 8 .36-21.86.36 5.33.37 24.53.36 17.6.36-30.93.36 3.2.37-14.4.36 14.4.36-7.47.36-5.86.36 11.73.37 27.2.36-24.53.36-18.14.36 17.07.36-22.4.37 1.6.36 42.13.36-46.4.36 39.47.36-15.47.37-13.33.36-11.2.36 22.4.36 3.2.36-7.47.37 12.8.36-.53.36-10.67.36 26.13.37-36.79.36 8.53.36-17.6.36 30.4.36-1.07.37-19.2.36 14.94.36-1.07.36-3.2.36-22.4.37 19.73.36-18.66.36 9.06.36 26.14.36-21.87.37 26.13.36-22.93.36 2.67.36-7.47.37 17.6.36-19.2.36 10.13.36-4.26.36-16 .37-4.27.36 6.93.36 30.94.36.53.36-30.4.37-11.2.36 53.86.36-34.13.36 21.34.36-10.14.37-9.06.36-4.8.36 20.26.36-13.86.36-8.54.37 2.14.36 1.6.36-6.4.36 27.2.37-2.67.36-12.8.36-9.07.36 22.94.36 5.86.37-11.73.36 3.2.36 14.4.36-17.6.36-7.47.37-14.93.36-1.6.36 23.47.36-5.34.36 5.87.37 4.8.36-8 .36 5.33.36-21.33.37 17.07.36-8.54.36-12.26.36 47.99.36-28.26.37-10.13.36 5.86.36 24.53.36-34.13.36 35.73.37-33.59.36 18.66.36-4.26.36 1.06.36-21.33.37 43.2.36 3.73.36-28.8.36-10.13.37 5.87.36 9.6.36 3.2.36-14.94.36 19.2.37-42.66.36 2.66.36 37.87.36 5.87.36-32.54.37 22.94.36 4.26.36-12.26.36-7.47.36 11.2.37-3.2.36 11.73.36-16.53.36 21.33.36-8.53.37-3.2.36-15.47.36 16.54.36-2.67.37-2.13.36 2.13.36-5.33.36-8h.36l.37-13.34h.36l.36 8 .36-10.66.36 17.06.37 18.67.36 1.07.36-8 .36-3.2.36-16 .37 2.13.36 17.6.36 2.13.36-20.8.37 16 .36-12.8.36 1.07.36 2.13.36-2.66.37-4.8.36 25.6.36 14.39.36-36.26.36 3.73.37 11.74.36-4.8.36 10.66.36-23.46.36 35.73.37 9.6.36-29.87.36-19.2.36 36.8.36 10.13.37-39.46.36 5.87.36 9.6.36 22.93.37-39.47.36 4.27.36 17.6.36-7.47.36-29.33.37 47.46.36-26.13.36 2.14.36 1.6.36 25.59.37-37.86.36 25.07.36-15.47.36-8 .36 2.13.37 11.2.36-28.26.36 19.73.36 5.33.37-6.93.36 24.53.36-4.26.36-9.07.36-23.47.37 29.34.36-29.34.36 17.07.36 21.87.36 1.6.37-24 .36-3.74.36.54.36-12.8.36 52.26.37-59.73.36 39.47.36-12.27.36 15.47L200 133l.36 8.54.36 22.93.36 2.67.36 3.73.37-34.67.36 13.34.36-10.14.36 18.67.36 7.47.37-1.07.36 5.33.36-.53.36-9.6.36 5.33.37 10.67.36-10.67.36 10.14.36-27.74.36-.53.37 18.67.36-2.67.36 6.93.36-6.93.37-6.4.36-13.87.36 16 .36 8.54.36-26.67.37 16 .36-10.67.36 12.8.36-16 .36 3.74.37-12.8.36 3.73.36 19.73.36-12.8.36 18.67.37 23.46.36-54.39.36 5.86.36 41.6.37-13.33.36-17.6.36 19.73.36-6.4.36 8.54.37-20.8.36 14.4.36-3.2.36-6.94.36-8.53.37 17.6.36-9.6.36-5.33.36 9.6.36-3.2.37-3.2.36-6.4.36 5.86.36 3.2.36-13.86.37 5.86.36 2.67.36 29.33.36-12.26.37-11.74.36-1.06.36 11.73.36 8.53.36-9.06.37 10.66.36-14.93.36 19.2.36-20.8.36 12.8.37-56 .36 75.2.36-44.27.36 7.47.36 21.33.37-38.4.36 9.07.36 11.73.36 6.4.37-5.86.36-21.87.36 10.67.36 35.19.36-8.53.37-3.73.36-2.67.36 1.07.36-13.87.36-16.53.37 24.53.36 1.07.36-11.73.36-26.67.36 42.13.37-23.46.36-19.73.36 43.73.36-56 .36 51.2.37 21.33.36-19.73.36 1.6h.36l.37-10.14.36-6.4.36 9.6.36 5.87.36-2.67.37-4.26h.36l.36-1.6.36 20.8.36-20.27.37-15.47.36 12.8.36-3.73.36 19.2.36-37.87.37 20.8.36-3.2.36 10.14.36 14.4.37-21.87.36-4.8.36-6.93.36.53.36 27.2.37-12.27.36 43.73.36-77.32.36 29.33.36 31.99.37-16.53.36 6.94.36-27.74.36 21.34.36-10.67.37 8.53.36-24.53.36 15.47.36 15.46.37 2.67.36-5.87.36-11.2.36-.53.36-4.8.37.53.36 11.2.36-1.06.36-1.6.36-11.2.37 42.13.36-30.4.36-.53.36-.54.36-7.46.37-5.87.36 18.67.36 6.4.36-18.14.36 3.74.37 3.73.36-6.4.36-10.13.36-1.6.37 32 .36-28.8.36 1.6.36 16 .36 1.06.37 9.6.36-27.73.36 20.8.36-9.07.36-4.26.37 8.53.36-4.8.36 4.8.36 5.33.36-4.26.37-4.27.36 18.66.36-19.19.36 8 .37-5.34.36-45.33.36 33.6.36-13.33.36 18.13.37-1.6.36 10.67.36 6.4.36-27.74.36 35.73.37-57.06.36-3.73.36 29.86.36 6.4.36-1.6.37 3.2.36-19.73.36 14.93.36-2.66.36 2.13.37 22.4.36-2.13.36-39.47.36 39.47.37-9.6.36 11.2.36.53.36-2.13.36-31.47.37 37.33.36-.53.36-2.13.36-25.07.36 2.67.37 17.06.36-24 .36 27.74.36 2.13.36-11.73.37-1.07.36-22.93.36-4.27.36 40 .37 19.73.36-41.06.36 1.06h.36l.36-2.13.37 8.53.36 20.8.36-4.26.36 6.39.36-30.93.37 21.87.36 1.07.36 7.46.36-38.4.36 30.94.37-33.07.36 9.07.36-8.54.36 1.07.36 21.87.37 23.99.36-15.99.36-19.2.36 13.33.37-22.4.36.53.36-8 .36 26.67.36-10.67.37 6.4.36 18.13.36-10.66.36-8.53.36-33.6.37 17.06.36 4.27.36 4.8.36-11.2.36 14.93.37-10.13.36 11.73.36 21.33.36-11.19.37 5.33.36-22.93.36 41.06.36-29.33.36-26.13.37 27.2.36 4.8.36 15.99.36-34.66.36-16.53.37 23.46.36-14.93.36 40.53.36-9.6.36-5.86.37-25.07.36 4.27.36 29.33.36-20.8.37 2.67.36 12.8.36-.54h.36l.36 14.93.37-22.93.36 1.07.36 6.4.36-6.4.36 3.73.37-22.4.36 28.8.36-32.53.36-15.46.36 43.73.37-19.2.36 25.6.36-21.34.36 21.34.36-19.2.37 13.33.36-11.73.36 3.2.36-14.4.37 6.4.36 13.33.36-6.4.36-18.67.36 5.87.37 9.6.36-7.47.36 14.4.36 5.87.36-8 .37-29.33.36 32 .36-14.4.36 17.6.36-4.8.37-10.14.36-1.06.36 1.6.36 29.86.37-20.26.36-10.67.36 17.6.36 1.07.36 2.13.37-23.47.36 10.67.36 10.67.36-18.67.36 3.73.37.54.36-18.14.36 27.74.36 5.86.36-24.53.37-3.2.36 18.13.36 9.6.36-21.33.36 9.6.37-18.13.36 9.6.36 9.06.36 2.67.37 1.6.36-18.13.36 20.8.36 6.4.36-.54.37-1.06.36-28.8.36 14.93.36-5.87.36-2.13.37 8.53.36-24.53.36-24 .36 42.13.36 3.74.37-19.2.36 15.46.36 26.14.36-32 .37 16 .36 10.66.36-50.66.36 26.13.36 42.13.37-26.13.36 10.67.36-34.67.36 32 .36-17.6.37 5.33.36 10.67.36-8.53.36-22.4.36 26.66.37-1.6.36 25.07.36-49.6.36-22.93.36 30.93h.37l.36 16 .36-14.93.36 12.26.37-29.33.36 54.4.36-32 .36 1.07.36 7.46.37 15.47.36-2.67.36 5.87.36-24.53.36-10.14.37 30.94.36-35.74.36 32.54.36-11.2.36-6.94.37 20.27.36-24 .36 12.8.36 1.07.37-9.07.36-20.8.36 21.33.36-6.4.36-4.26.37 18.13.36.53.36-27.73.36 20.27.36-8.54.37 11.2.36-17.06.36 20.26.36-3.2.36 3.74.37 4.8.36-13.34.36 3.74.36-22.4.37 26.66.36-16.53.36 19.2.36-28.27.36 19.2.37-4.26.36 20.26.36-10.13.36-8.53.36-4.27.37 1.07.36-9.6.36 15.46.36-19.2.36 25.6.37-28.26.36 28.26.36-14.4.36 6.94.36-10.67.37 21.87.36 17.06.36-33.06.36 12.26.37-2.13.36-10.13.36-7.47.36-.53.36-3.74.37-6.4.36 22.4.36 12.27"/><use xlink:href="#i" color="#3B75EA" transform="matrix(3.75 0 0 3.75 182.98 188.47)"/><use xlink:href="#i" color="#3B75EA" transform="matrix(3.75 0 0 3.75 220.55 22.51)"/></g><path fill="none" stroke="none" stroke-linecap="round" stroke-linejoin="round" stroke-width="0" d="M28 45.01V205M371.99 45.01H28" color="#000"/></svg>