<svg xmlns="http://www.w3.org/2000/svg" xmlns:xlink="http://www.w3.org/1999/xlink" viewBox="0 0 400 250"><path fill="none" d="M0 0h400v250H0z"/><defs><use xlink:href="#a" id="g" fill="currentColor" stroke="none"/><use xlink:href="#b" id="h" fill="currentColor" stroke="none"/><use xlink:href="#b" id="c" stroke="currentColor" transform="rotate(180)"/><use xlink:href="#d" id="e" stroke="currentColor" transform="rotate(45)"/><path id="d" stroke="currentColor" stroke-width=".267" d="M-1-1h2v2h-2z"/><path id="b" stroke="currentColor" stroke-width=".267" d="m0-1.33-1.33 2h2.66z"/><path id="f" stroke="currentColor" stroke-width=".267" d="M0 1.33 1.265.411.782-1.067l-1.564-.009-.483 1.487z"/><circle id="a" cx="0" cy="0" r="1" stroke="currentColor" stroke-width=".267"/></defs><path fill="none" stroke="#333" stroke-linecap="round" stroke-linejoin="round" stroke-width=".1" d="M46.1 205V45.01" class="gridline" color="#000"/><g fill="none" stroke="none" stroke-linecap="round" stroke-linejoin="round" stroke-width="0" color="#000"><path d="M46.1 205v-7.5m0-152.49v7.5"/><text fill="#000" font-family="KaTeX_Main" font-size="8" text-anchor="middle" transform="translate(46.1 215.1)"><tspan> 1</tspan></text></g><path fill="none" stroke="#333" stroke-linecap="round" stroke-linejoin="round" stroke-width=".1" d="M82.31 205V45.01" class="gridline" color="#000"/><g fill="none" stroke="none" stroke-linecap="round" stroke-linejoin="round" stroke-width="0" color="#000"><path d="M82.31 205v-7.5m0-152.49v7.5"/><text fill="#000" font-family="KaTeX_Main" font-size="8" text-anchor="middle" transform="translate(82.31 215.1)"><tspan> 2</tspan></text></g><path fill="none" stroke="#333" stroke-linecap="round" stroke-linejoin="round" stroke-width=".1" d="M118.52 205V45.01" class="gridline" color="#000"/><g fill="none" stroke="none" stroke-linecap="round" stroke-linejoin="round" stroke-width="0" color="#000"><path d="M118.52 205v-7.5m0-152.49v7.5"/><text fill="#000" font-family="KaTeX_Main" font-size="8" text-anchor="middle" transform="translate(118.52 215.1)"><tspan> 3</tspan></text></g><path fill="none" stroke="#333" stroke-linecap="round" stroke-linejoin="round" stroke-width=".1" d="M154.73 205V45.01" class="gridline" color="#000"/><g fill="none" stroke="none" stroke-linecap="round" stroke-linejoin="round" stroke-width="0" color="#000"><path d="M154.73 205v-7.5m0-152.49v7.5"/><text fill="#000" font-family="KaTeX_Main" font-size="8" text-anchor="middle" transform="translate(154.73 215.1)"><tspan> 4</tspan></text></g><path fill="none" stroke="#333" stroke-linecap="round" stroke-linejoin="round" stroke-width=".1" d="M190.94 205V45.01" class="gridline" color="#000"/><g fill="none" stroke="none" stroke-linecap="round" stroke-linejoin="round" stroke-width="0" color="#000"><path d="M190.94 205v-7.5m0-152.49v7.5"/><text fill="#000" font-family="KaTeX_Main" font-size="8" text-anchor="middle" transform="translate(190.94 215.1)"><tspan> 5</tspan></text></g><path fill="none" stroke="#333" stroke-linecap="round" stroke-linejoin="round" stroke-width=".1" d="M227.15 205V45.01" class="gridline" color="#000"/><g fill="none" stroke="none" stroke-linecap="round" stroke-linejoin="round" stroke-width="0" color="#000"><path d="M227.15 205v-7.5m0-152.49v7.5"/><text fill="#000" font-family="KaTeX_Main" font-size="8" text-anchor="middle" transform="translate(227.15 215.1)"><tspan> 6</tspan></text></g><path fill="none" stroke="#333" stroke-linecap="round" stroke-linejoin="round" stroke-width=".1" d="M263.36 205V45.01" class="gridline" color="#000"/><g fill="none" stroke="none" stroke-linecap="round" stroke-linejoin="round" stroke-width="0" color="#000"><path d="M263.36 205v-7.5m0-152.49v7.5"/><text fill="#000" font-family="KaTeX_Main" font-size="8" text-anchor="middle" transform="translate(263.36 215.1)"><tspan> 7</tspan></text></g><path fill="none" stroke="#333" stroke-linecap="round" stroke-linejoin="round" stroke-width=".1" d="M299.57 205V45.01" class="gridline" color="#000"/><g fill="none" stroke="none" stroke-linecap="round" stroke-linejoin="round" stroke-width="0" color="#000"><path d="M299.57 205v-7.5m0-152.49v7.5"/><text fill="#000" font-family="KaTeX_Main" font-size="8" text-anchor="middle" transform="translate(299.57 215.1)"><tspan> 8</tspan></text></g><path fill="none" stroke="#333" stroke-linecap="round" stroke-linejoin="round" stroke-width=".1" d="M335.78 205V45.01" class="gridline" color="#000"/><g fill="none" stroke="none" stroke-linecap="round" stroke-linejoin="round" stroke-width="0" color="#000"><path d="M335.78 205v-7.5m0-152.49v7.5"/><text fill="#000" font-family="KaTeX_Main" font-size="8" text-anchor="middle" transform="translate(335.78 215.1)"><tspan> 9</tspan></text></g><path fill="none" stroke="#333" stroke-linecap="round" stroke-linejoin="round" stroke-width=".1" d="M371.99 205V45.01" class="gridline" color="#000"/><g fill="none" stroke="none" stroke-linecap="round" stroke-linejoin="round" stroke-width="0" color="#000"><path d="M371.99 205v-7.5m0-152.49v7.5"/><text fill="#000" font-family="KaTeX_Main" font-size="8" text-anchor="middle" transform="translate(371.99 215.1)"><tspan> 10</tspan></text></g><g fill="none" stroke="none" stroke-linecap="round" stroke-linejoin="round" stroke-width="0" color="#000"><path d="M371.99 205h-7.5"/><text fill="#000" font-family="KaTeX_Main" font-size="8" transform="translate(378.99 207.6)"><tspan>0.14</tspan></text></g><g fill="none" stroke="none" stroke-linecap="round" stroke-linejoin="round" stroke-width="0" color="#000"><path d="M371.99 182.14h-7.5"/><text fill="#000" font-family="KaTeX_Main" font-size="8" transform="translate(378.99 184.74)"><tspan>0.16</tspan></text></g><g fill="none" stroke="none" stroke-linecap="round" stroke-linejoin="round" stroke-width="0" color="#000"><path d="M371.99 159.29h-7.5"/><text fill="#000" font-family="KaTeX_Main" font-size="8" transform="translate(378.99 161.89)"><tspan>0.18</tspan></text></g><g fill="none" stroke="none" stroke-linecap="round" stroke-linejoin="round" stroke-width="0" color="#000"><path d="M371.99 136.43h-7.5"/><text fill="#000" font-family="KaTeX_Main" font-size="8" transform="translate(378.99 139.03)"><tspan>0.20</tspan></text></g><g fill="none" stroke="none" stroke-linecap="round" stroke-linejoin="round" stroke-width="0" color="#000"><path d="M371.99 113.58h-7.5"/><text fill="#000" font-family="KaTeX_Main" font-size="8" transform="translate(378.99 116.18)"><tspan>0.22</tspan></text></g><g fill="none" stroke="none" stroke-linecap="round" stroke-linejoin="round" stroke-width="0" color="#000"><path d="M371.99 90.72h-7.5"/><text fill="#000" font-family="KaTeX_Main" font-size="8" transform="translate(378.99 93.32)"><tspan>0.24</tspan></text></g><g fill="none" stroke="none" stroke-linecap="round" stroke-linejoin="round" stroke-width="0" color="#000"><path d="M371.99 67.87h-7.5"/><text fill="#000" font-family="KaTeX_Main" font-size="8" transform="translate(378.99 70.47)"><tspan>0.26</tspan></text></g><g fill="none" stroke="none" stroke-linecap="round" stroke-linejoin="round" stroke-width="0" color="#000"><path d="M371.99 45.01h-7.5"/><text fill="#000" font-family="KaTeX_Main" font-size="8" transform="translate(378.99 47.61)"><tspan>0.28</tspan></text></g><path fill="none" stroke="none" stroke-linecap="round" stroke-linejoin="round" stroke-width="0" d="M28 45.01V205M371.99 45.01H28" color="#000"/><text fill="#000" stroke="none" stroke-linecap="round" stroke-linejoin="round" stroke-width="0" color="#000" font-family="KaTeX_Main" font-size="10" text-anchor="middle" transform="rotate(-90 68.255 56.755)"><tspan font-weight="bold">Duration </tspan><tspan> in milliseconds</tspan></text><text fill="#000" stroke="none" stroke-linecap="round" stroke-linejoin="round" stroke-width="0" color="#000" font-family="KaTeX_Main" font-size="10" text-anchor="middle" transform="translate(199.99 238.25)"><tspan>Operations / 10</tspan><tspan dy="-5" font-size="8">5</tspan></text><text fill="#000" stroke="none" stroke-linecap="round" stroke-linejoin="round" color="#000" font-family="KaTeX_Main" font-size="8" transform="translate(132.8 10.11)"><tspan>LBSTBottomUp</tspan></text><g fill="none" stroke="currentColor" stroke-linecap="round" stroke-linejoin="round" color="#000"><path stroke="#3B75EA" d="M97.3 7.51h29.9M28 155.29l.36.15.36-9.69.37-.13.36 6.83.36-9.03.36 6.68.36-8.8.37 7.74.36-8.91.36 6.74.36-.3.37-9.49.36-.92.36 7.54.36-7.86.36 6.62.37-8.55.36-.9.36-.97.36 7.9.36.19.37-9.39.36-1.3.36 8.04.36-8.19.36 6.8.37-8.97.36-.63.36.08.36 7.37.36-.36.37-9.35.36-.4.36 7.65.36-8.09.37 6.43.36-8.19.36-.79.36-.24.36 7.46.37-.04.36-8.6.36-.54.36 7.47.36-8.18.37 7.22.36-.2.36-8.69.36-.57.36 7.58.37 35.72.36 1.14.36 1.2.36.8.37-.06.36.52.36-.43.36 1.21.36.54.37.2.36.26.36 1.39.36.81.36.21.37-.36.36-.43.36 1.51.36.24.36.82.37.72.36.19.36.04.36.7.37-.13.36 2.27.36-1.21.36.5.36 1.06.37.32.36.45.36-.01.36 1.31.36-.54.37 1.56.36.56.36.02.36 1.37.36.75.37-.12.36.1.36.49.36.27.36 1.16.37-.02.36 1.41.36-.06.36-.39.37.68.36 1.06.36.28.36-39.03.36-8.32.37.59.36-.26.36-.23.36 7.13.36-.29.37-8.93.36-.34.36 7.05.36-.74.36-8.86.37-.49.36-.78.36-.46.36 6.66.37.19.36-9.25.36-.16.36 7.14.36-.49.37-9.07.36-.17.36-.98.36-.3.36 6.97.37-.03.36-9.42.36.95.36 7.08.36-.4.37-8.54.36-.36.36-.94.36.11.36 7.26.37.4.36-8.88.36-.36.36 7.25.37-.04.36-8.83.36 7.81.36-8.58.36-.6.37 7.71.36-.22.36-8.65.36-.74.36-1.02.37 45.21.36.88.36 1.27.36-.8.36.77.37.85.36-.57.36 1.05.36 1.86.37-.82.36 1.12.36.34.36.84.36.81.37-.29.36.48.36.28.36 1.04.36.59.37.72.36.52.36.29.36-.88.36 1.64.37.45.36.71.36.91.36.45.36-.15.37 1.03.36-.41.36.38.36.96.37 1.13.36.24.36.72.36.27.36.15.37.57.36.26.36 1.28.36 1.08.36-.73.37.84.36-.32.36 1.6.36-.07.36 1.05.37.93.36-.04.36-39.22.36-8.37.37 8.64.36-8.78.36-.42.36 7.56.36-.35.37-9.44.36-.26.36-1.35.36 8.28.36-10.19.37 8.95.36-8.82.36-.36.36 7.46.36-.46.37-8.76.36-.82.36-.98.36 7.77.37-8.63.36 7.81.36-8.78.36-.55.36 7.38.37.54.36-8.86.36 7.64.36-8.71.36 7.83.37-8.64.36 7.62.36-8.29.36.03.36 7.05.37-.15.36-8.86.36 8.04.36-8.58.36 7.72.37-9.61.36 8.73.36-8.54.36-.46.37-.33.36 7.34.36-8.41.36 8.11.36-9.17.37 44.29.36 1.09.36 1.27.36.03.36.89.37.68.36-1.03.36 1.43.36-.14.36.36.37 1.31.36.73.36.45.36.91.37-1.68.36 2.34.36-1.06.36 2.04.36-.21.37-.02.36.36.36 1.28.36-.19.36 1.29.37.3.36-.69.36 1.38.36-.06.36 1.07.37.46.36 1.61.36-.7.36.23.36.25.37 1.33.36.07.36.37.36.72.37 1.27.36.31.36.78.36-.02.36.5.37.5.36.26.36-.02.36.7.36 1.21.37.41.36.65.36-39.25.36-7.98.36 8.25.37-7.85.36-1.29.36-.16.36 7.1.37-8.39.36 7.68.36-8.31.36 7.3.36-8.8.37 7.6.36-8.76.36-.68.36-.66.36 7.11.37-8.09.36 6.92.36-8.87.36 8.02.36-8.31.37 7.41.36-8.84.36 7.8.36-8.57.36 7.64.37-8.86.36 8.27.36-8.84.36 7.95.37-8.59.36 7.92.36-8.87.36 7.71.36-7.8.37 7.21.36-8.61.36 7.87.36-8.66.36 7.85.37-16.79.36 15.53.36-8.44.36 7.93.36-8.25.37 7.68.36-9.19.36 8.4.36-8.79.37 44.42.36.87.36 1.2.36-.46.36 1.72.37-.75.36.35.36 1.84.36-.23.36 1.14.37-.36.36 1.2.36-.47.36.65.36 1.81.37-1.67.36 1.55.36.24.36.2.37 1.79.36-.92.36.39.36 1.05.36-.11.37.77.36.61.36-.09.36 1.31.36-.09.37.64.36.86.36.06.36 1.14h.36l.37.43.36 1.07.36.77.36.26.36.27.37.02.36.76.36-.02.36 1.09.37-.06.36.55.36.86.36 1.2.36-.16.37 1.16.36-.09.36-39.37.36-16.36.36 16.17.37-8.01.36 7.62.36-8 .36 7.1.36-8.62.37 7.83.36-8.99.36 7.42.36-17.74.37 16.24.36-8.2.36 7.26.36-8.41.36 7.29.37-9.01.36 7.87.36-8.13.36 7.35.36-8.55.37 7.25.36-8.59.36 7.51.36-8.38.36 7.1.37-8.57.36-.32.36-.14.36 7.69.36.16.37-9.06.36-.43.36 8.1.36-8.15.37 7.03.36-8.29.36-1.04.36.28.36 7.5.37-.13.36-8.86.36-.21.36 7.91.36-8.25.37 7.46.36-8.79.36-.24.36-.64.36 44.51.37 1.38.36.65.36-.22.36.64.37.82.36.52.36.3.36.47.36 1.79.37-.77.36.94.36 1.11.36-.08.36-.09.37-.13.36 2.15.36-.14.36-.33.36.64.37.94.36.96.36-2.05.36 2.63.37.75.36-.28.36.81.36.75.36-.39.37.71h.36l.36 1.35.36.06.36.65.37.54.36-.79.36 1.42.36.79.36-.3.37.84.36.37.36.03.36.97.36 1.68.37-.28.36 1.86.36-.58.36.02.37.62.36.18.36-38.89.36.26.36-8.3.37-.46.36 8.03.36-8.21.36 7.37.36-9.07.37-.5.36-.52.36 7.48.36.16.36-9.3.37-.32.36 7.06.36-7.96.36 7.1.37-.21.36-8.91.36-1.52.36 8.28.36-.25.37-8.8.36-.43.36-1.28.36.09.36 7.42.37.19.36-9.26.36.22.36 7.59.36-.07.37-9.29.36.09.36-1.6.36.25.36 8.06.37.1.36-9.01.36-.11.36 7.52.37-.03.36-9.04h.36l.36-.52.36-.75.37 7.86.36.05.36-9.34.36-.18.36 44.41.37 1.49.36.75.36 1.13.36.2.36.63.37.51.36.61.36-.58.36 1.72.37.14.36.36.36.07.36 1.18.36-.12.37.49.36.62.36.21.36.95.36-.09.37.24.36.88.36.83.36-1 .36 2.1.37-.22.36 1.24.36.61.36-1.74.36 2.57.37.35.36.43.36-.79.36 1.41.37.17.36.85.36.45.36.33.36-.2.37 1.05.36.71.36-.26.36 1.25.36-.55.37.55.36 1.34.36.54.36.73.36.67.37-.42.36-39.34.36.69.36-8.61.37 8.34.36-9.1.36.06.36 7.14.36.04.37-9.02.36-.86.36 7.49.36-.15.36-8.86.37 7.92.36-9.26.36-1 .36 7.94.36-.02.37-8.86.36-.86.36-.87.36 7.68.37-8.61.36 7.99.36-9.04.36-.16.36 7.64.37-.17.36-8.53.36-.65.36-.5.36 7.96.37-8.96.36 7.99.36-8.51.36.1.36 7.42.37-.29.36-8.75.36-.06.36-.83.36 7.65.37-8.94.36 8.5.36-8.91.36-.03.37 7.44.36.08.36-8.7.36 7.94.36 36.22.37 1.12.36 2.32.36-.78.36.66.36.58.37.71.36.54.36-.23.36 1.04.36.41.37.58.36.64.36.1.36.6.37.09.36 1.01.36-.43.36.79.36-.42.37.99.36.69.36.4.36.61.36.67.37.02.36.11.36-.14.36 1.55.36-.21.37 1.82.36-.4.36.78.36-.1.36.69.37.2.36.96.36.31.36.5.37.17.36.71.36.15.36.45.36.04.37 1.39.36.85.36-.46.36 1.39.36-.55.37.26.36-47.39.36 8.91.36-8.53.36 8.43.37-9.12.36.01.36 7.39.36-.18.37-9.45.36 8.44.36-9.05.36 7.71.36-9.05.37 8.17.36-9.09.36-.59.36-.81.36 7.81.37-9.08.36 8.35.36-8.71.36 7.46.36-9.5.37 8.55.36-8.91.36-.63.36-.95.36 8.43.37-8.73.36 8.06.36-8.5.36 8.03.37-8.95.36 8.01.36-9.02.36-.71.36-.37.37 8.13.36-8.59.36 8.04.36-8.25.36 7.64.37-8.78.36 8.5.36-9.4.36 7.9.36-8.37.37 7.72.36-8.84.36 8.14.36 36.63.37.67.36.66.36 1.51.36.33.36.67.37-.12.36.81.36.37.36.75.36-.48.37.35.36 1.48.36.52.36-.3.36.62.37.4.36 1.35.36-.07.36.18.37.5.36.53.36-.13.36 1.29h.36l.37 1.76.36-.92.36-.64.36.92.36 1.13.37 1.22.36-.4.36-.52.36.62.36 1.1.37.68.36-.33.36.67.36.58.36 1.7.37-.91.36-.03.36 2.17.36.84.37-.59.36.51.36 1.51.36-.56.36 1.36.37-.08.36-48.14.36 8.61.36-16.7.36 16.18.37-8.87.36 8.42.36-8.85.36 7.65.36-8.59.37 7.84.36-8.84.36 7.49.36-18.08.37 16.87.36-8.92.36 7.9.36-8.7.36 7.66.37-8.65.36 7.78.36-9.23.36 7.95.36-17.32.37 15.85.36-8.83.36 8.2.36-8.47.36 7.78.37-8.96.36 8.39.36-8.32.36 7.66.36-17.7.37 16.4.36-8.62.36 8.28.36-8.92.37 7.84.36-9.05.36 8.9.36-9.32.36 8.2.37-8.46.36 7.6.36-9.26.36 8.59.36-8.76.37 7.63.36-8.39.36-1.01.36 45.03.36 1.64.37.84.36.83.36.75.36.46.37-.55.36.73.36.15.36 1.22.36-.41.37 1.69.36-.05.36.92.36-.02.36.48h.37l.36.14.36.36.36.76.36-.42.37 1.03.36 1.27.36-.51.36 1.24.36.82.37.4.36-.38.36 1.85.36-.5.37.38.36.17.36.41.36 1.32.36-.18.37.9.36.16.36 1.06.36-.25.36.65.37-.22.36 1.38.36-.51.36 1.02.36 1.06.37-1 .36.95.36 1.58.36.14.37 1.1.36-49.15.36 8.86.36-7.92.36 7.35.37-8.58.36 8.17.36-9.09.36 8.11.36-9.35.37-1.04.36-.52.36 8.83.36-8.94.36 7.49.37-9.24.36 8.39.36-8.89.36 7.72.37-9.09.36-.72.36-.01.36 7.67.36-9.54.37 8.53.36-9.26.36 8.67.36-8.89.36 7.99.37-.14.36-8.97.36-.84.36 8.45.36-8.53.37 7.19.36-8.21.36 8.11.36-12.41.36 6.26.37-.36.36-7.29.36.59.36 8.89.37-8.4.36 7.61.36-8.66.36-.59.36.41.37 7.81.36.28.36-9.05"/><use xlink:href="#a" color="#3B75EA" transform="matrix(3.75 0 0 3.75 354.25 129.63)"/><use xlink:href="#a" color="#3B75EA" transform="matrix(3.75 0 0 3.75 112.25 7.51)"/></g><text fill="#000" stroke="none" stroke-linecap="round" stroke-linejoin="round" color="#000" font-family="KaTeX_Main" font-size="8" transform="translate(132.8 25.11)"><tspan>LBSTTopDown</tspan></text><g fill="none" stroke="currentColor" stroke-linecap="round" stroke-linejoin="round" color="#000"><path stroke="#F44336" stroke-dasharray="4.5,2.0,0.5,2.0,0.5,2.0" d="M97.3 22.51h29.9M28 168.38l.36 2.94.36-1.23.37 8.27.36.11.36-10.93.36-.1.36 8.73.37-9.44.36 7.39.36-9.18.36-.9.37.1.36 7.51.36-1.48.36-8.61.36-.93.37 8.49.36-9.02.36 8.16.36-13.42.36-.74.37 1.02.36 9.18.36.39.36-8.89.36-.66.37 8.26.36-9.31.36 8.37.36.51.36-9.31.37-.1.36 8.27.36-.23.36-8.61.37-2.55.36 9.41.36-10.08.36 10.16.36-.14.37-11.96.36 2.89.36 7.08.36.19.36-8.21.37-1.51.36.75.36-1.35.36 9.59.36.96.37-39.82.36.64.36-.15.36-1.1.37 1.82.36-1.01.36.64.36.85.36-3.76.37 3.55.36 1.59.36-.7.36.99.36-.46.37.98.36-.53.36.74.36.19.36-.36.37 2.67.36-1.34.36 1.37.36.07.37 1.17.36-.46.36-.18.36 1.13.36-1.04.37 1.7.36 1.47.36-.19.36 1.96.36-.72.37-1.53.36 2.04.36.6.36.13.36 2.71.37 1.12.36-.75.36.54.36.07.36-.38.37 2.08.36-1.07.36 2.68h.36l.37.55.36 1.04.36-.52.36 28.21.36 1.13.37 8.9.36 2.6.36-12.29.36 1.07.36-2.17.37 1.67.36 7.86.36 1.18.36-10.11.36-2.51.37 10.14.36-.66.36-9.88.36-1.4.37.18.36.68.36 7.16.36-.32.36-8.33.37-2.36.36 9.93.36-2.44.36-9.23.36 8.49.37-9.7.36-.23.36 9.13.36 1.6.36-9.94.37 1.05.36 5.9.36-.66.36-8.83.36 7.88.37-8.18.36-1.18.36 9.92.36-.76.37-9.17.36.78.36-2.12.36 9.54.36-9.88.37 8.93.36-10.55.36-.31.36 7.8.36 1.45.37-38.19.36-.68.36.16.36.36.36.36.37.15.36-.53.36.4.36.23.37 1.36.36-.12.36.96.36-.26.36-1.23.37.21.36 1.74.36-1.41.36 1.81.36.18.37.4.36.43.36-1.01.36.44.36.77.37-.5.36 1.08.36.95.36-.54.36.76.37.04.36.28.36.3.36.95.37-.4.36 1.34.36.27.36-.67.36 1.42.37-1.39.36 1.75.36-.09.36.95.36-.38.37.49.36.43.36.84.36-.47.36 1.77.37.7.36-.34.36 28.9.36 3.64.37-.29.36 9.22.36-10.12.36 9.79.36-9.28.37-1.43.36 7.47.36-.68.36-7.38.36.32.37-.75.36 6.26.36-8.48.36 9.12.36-8.38.37-.67.36 7.37.36-.33.36-10.23.37 10.43.36-9.77.36 9.11.36-9.13.36 7.55.37-9.4.36.04.36-1.04.36 7.72.36-7.37.37 8.21.36-10.14.36 8.72.36-8.7.36 6.92.37-9.4.36.97.36.08.36 7.03.36-12.09.37 11.77.36-9.23.36 8.81.36-9.65.37 10.1.36-9.09.36-1.09.36-.94.36 7.8.37-39.45.36.59.36-.28.36.24.36.2.37.32.36-.19.36.32.36.51.36-1.73.37 2.37.36-1.42.36 2.05.36.78.37-1.21.36 1.32.36-.67.36-.18.36 1.51.37-1.74.36 1.51.36-.11.36 1.09.36.13.37-.12.36 1.77.36-1.43.36.65.36-.4.37 1.26.36-.95.36 2.09.36-.01.36.18.37.03.36.42.36.78.36-.16.37.93.36-.12.36 1.17.36 1.06.36-.32.37-.55.36-.09.36 1.59.36-.5.36.84.37.5.36 1.52.36 29.99.36 12.44.36-6.67.37 7.19.36-7.84.36 6.13.36-8.03.37-.55.36-1.52.36 8.41.36-8.75.36 8.22.37-9.51.36 8.92.36-8.81.36 7.81.36-7.87.37 6.58.36-9.12.36 7.24.36-9.47.36 9.38.37-7.44.36 6.12.36-16.71.36 13.09.36-8.04.37 9.67.36-9.16.36 9.4.36-8.51.37 6.97.36-6.72.36 7.76.36-17.14.36 17.07.37-8.86.36 6.65.36-7.1.36 7.21.36-10.5.37 10.25.36-9.75.36 8.68.36-17.43.36 15.18.37-6.52.36 7.62.36-8.5.36 7.04.37-41.09.36-1.35.36.44.36-.19.36-.07.37 1.31.36 1.18.36.37.36-1.71.36.67.37.74.36.48.36.93h.36l.36.53.37-.6.36.41.36 1.21.36-.1.37 1.09.36-2.07.36.91.36-10.6.36-.26.37 4.74.36 4.25.36-3.19.36.45.36-.74.37 4.5.36 1.52.36 1.96.36-1.23.36.31.37 2.51.36-.66.36.98.36-.32.36.42.37 1.12.36.8.36.55.36-.23.37-.73.36.17.36.86.36 1.83.36.16.37.45.36 1.59.36 30.72.36 11.29.36-9.78.37 10.26.36-.81.36-7.51.36-1.56.36 9.68.37-10.27.36 8.29.36-9.93.36 8.55.37-7.44.36 6.03.36-.49.36-8.02.36-.93.37 9.02.36-10.32.36 8.9.36-8.33.36-1.31.37-.56.36 9.21.36-2.32.36-8.27.36.34.37 6.26.36-7.92.36 9.61.36-9.51.36.96.37-2.51.36 8.02.36 1.29.36-8.94.37-2.46.36 9.98.36-7.47.36 6.31.36-9.86.37.54.36.17.36 8.11.36.27.36-9.92.37-.33.36 7.51.36-8.47.36 7.81.36-38.73.37.09.36-20.47.36-19.75.36 5.58.37 7.83.36 7.72.36 3.01.36 5.69.36 1.8.37 2.39.36.6.36 2.72.36-1.47.36 1.47.37 1.15.36.94.36-.18.36 1.18.36.82.37-.49.36-1.01.36 2.75.36.28.37-.14.36.89.36-.35.36 1.48.36-.16.37-.94.36.67.36-20.15.36-11.97.36 6.76.37 4.92.36 5.62.36 6.23.36 1.37.36-24.64.37-28.08.36 18.61.36 8.9.36 10.92.36 10.19.37 3.56.36 2.21.36.55.36.21.37-4.73.36.16.36 47.41.36-5.59.36.25.37 8.03.36 2.16.36-9.05.36-.36.36 8.87.37-8.45.36 9.38.36-1.4.36-7.8.36.44.37 8.78.36-2.55.36-7.47.36-.62.37-2.44.36 1.49.36 5.9.36 2.66.36-10.38.37.14.36 8.86.36-.51.36-8.12.36-2.96.37-.85.36 1.75.36 7.4.36.58.36-9.5.37.08.36 9.76.36-2.6.36-8.77.36.76.37-.27.36-2.87.36 9.54.36-.97.37-7.9.36.25.36 6.71.36-.98.36-6.97.37 7.97.36-9.47.36.32.36 8.52.36-46.08.37.47.36 1.7.36-10.71.36 1.91.36 5.25.37 1.32.36 1.12.36.25.36.97.37-2.21.36 1.38.36.12.36 1.36.36.1.37 1.3.36.94.36-.68.36 1.28.36-.23.37.97.36 1.86.36-2.49.36 1.73.36.98.37-2.47.36 1.77.36.49.36 1.67.36.97.37-9.15.36-40.48.36 7.93.36 14.29.37 11.27.36 9.78.36-.16.36 4.03.36 2.56.37-1.26.36 4.06.36.35.36-.39.36-.45.37 1.79.36 1.25.36.33.36 1.32.36-.91.37 1.91.36 37.58.36-7.06.36 1.67.37.15.36 10.35.36-9.72.36 8.31.36-8.62.37-.29.36 8.41.36.51.36-9.32.36-1 .37-.37.36 8.36.36-9.56.36 8.7.36-7.8.37-3.51.36 11.38.36.06.36-10.4.37-1.11.36.13.36 9.43.36-10.43.36 9.87.37-11.02.36 1.42.36 7.14.36.14.36-9.69.37.31.36.1.36 8.55.36-7.93.36 10.03.37-8.94.36 1.24.36 5.69.36-.95.36-9.24.37 9.71.36-10.21.36 10.15.36-8.93.37 5.23.36-5.18.36-1.23.36-1.27.36-29.89.37.44.36-1.4.36.09.36.62.36.89.37-1.27.36-.02.36 1.35.36-.38.36.31.37.24.36.52.36.46.36.52.37-1.2.36 2.05.36 1 .36.76.36-1.6.37 1.51.36.49.36.1.36.77.36.6.37-.37h.36l.36-.06.36.92.36-.76.37 1.39.36.05.36-.43.36 1.71.36-.73.37.22.36 1.36.36-.11.36-1.09.37 1.81.36.52.36-.45.36.57.36-.56.37 1.13.36 1.23.36-1.5.36.13.36.8.37 1.75.36 39.23.36-5.52.36 8.33.36-7.96.37 9.62.36-10.64.36 9.04.36-8.45.37-2.22.36.54.36 8.89.36-8.83.36 7.02.37-7.22.36 6.99.36-9 .36 8.9.36-10.38.37.41.36-1.47.36 8.94.36-8.47.36 6.94.37-7.54.36 9.2.36-9.01.36 8.61.36-10.36.37 9.54.36-9.86.36 8.99.36-9.75.37 7.82.36-8.78.36 8.63.36-9.59.36 11.09.37-10.27.36 7.38.36-6.62.36 8.35.36-11.05.37 8.18.36-8.74.36 7.83.36-18.34.36 18.24.37-9.32.36 9.31.36-10.26.36-32.5.37 1.39.36-.89.36.03.36.29.36-.23.37-.9.36.81.36-.86.36 1.26.36 1.43.37.13.36.52.36.31.36-1.07.36 1.32.37-.19.36 1.18.36-.59.36.15.37-.52.36.78.36.08.36 1.63.36-1.22.37 1.41.36-.22.36.7.36.43.36-.21.37.86.36-1.07.36.82.36.96.36 1.64.37-.39.36.33.36-.23.36.42.36-.64.37 2.21.36-.6.36.41.36-.84.37.77.36.45.36.44.36 1.39.36.36.37-.12.36 39.08.36-4.49.36 9.45.36-9.56.37 9.13.36-17.81.36 16.72.36-8.85.36 8.04.37-9.09.36 9.5.36-9.19.36 8.7.37-11.5.36 10.5.36-18.98.36 18.62.36-12.04.37 11.05.36-9.19.36 7.66.36-8.59.36 6.51.37-9.5.36 9.93.36-9.76.36 4.47.36-10.08.37 10.63.36-9.92.36 7.91.36-10.24.36 9.62.37-11.69.36 8.37.36-6.7.36 5.7.37-14.14.36 14.69.36-10.41.36 4.62.36-10.35.37 1.66.36-1.27.36 10.26.36-6.46.36 3.52.37-6.95.36 8.64.36-11.3.36-33.82.36-.4.37 1.43.36 3.24.36 1.09.36.94.37.86.36.28.36.86.36.88.36-.01.37.98.36.68.36-.88.36 2.23.36-.06.37-.05.36 2.39.36-1.79.36-4.11.36.09.37 2.74.36.89.36 2.37.36-.23.36.25.37-1.34.36 1.77.36-.54.36 1.48.37 1.16.36-.15.36.21.36.27.36-.46.37-.21.36.55.36 1.27.36.25.36-.06.37 1.39.36.08.36-1.43.36 1.83.36.58.37-.15.36.58.36.29.36.41.37 1.13.36 39.53.36-7.77.36 1.75.36-1.13.37 9.58.36-8.61.36 8.77.36-8.9.36 7.5.37-9.78.36 7.22.36-7.69.36 1.03.36.97.37 5.9.36-6.8.36 6.69.36-9.78.37 9.2.36-9.69.36 9.06.36-.22.36-10.39.37.21.36 7.39.36-9.46.36 5.85.36-8.44.37-5.28.36 3.89.36 9.01.36-2.65.36-12.65.37 2.07.36 7.27.36-7.42.36 6.52.36-9.8.37-2.21.36.87.36 6.88.36 2.49.37-12.4.36.29.36 5.3.36-7.24.36 4.8.37-5.07.36 1.51.36 1.03"/><use xlink:href="#g" color="#F44336" transform="matrix(3.75 0 0 3.75 67.83 177.4)"/><use xlink:href="#g" color="#F44336" transform="matrix(3.75 0 0 3.75 112.25 22.51)"/></g><text fill="#000" stroke="none" stroke-linecap="round" stroke-linejoin="round" color="#000" font-family="KaTeX_Main" font-size="8" transform="translate(241.1 10.11)"><tspan>WBSTBottomUp</tspan></text><g fill="none" stroke="currentColor" stroke-linecap="round" stroke-linejoin="round" color="#000"><path stroke="#000" d="M205.6 7.51h29.9M28 153.05l.36-9.36.36-.68.37 7.76.36-8.37.36 6.23.36.39.36-9.52.37-.9.36 7.14.36-.03.36-10.01.37-.62.36 7.07.36-7.82.36 6.77.36.29.37-9.33.36-.07.36 6.59.36-.09.36-9.1.37-.73.36-1.33.36-.09.36 6.82.36-.05.37-9.11.36-.63.36 7.3.36-.01.36-9.15.37-.82.36-1.01.36.18.36 6.99.37-.16.36-8.84.36-1.26.36 8.23.36-.33.37-9 .36-.49.36-.82.36-.32.36 7.18.37.08.36-8.86.36-.5.36 7.28.36-.16.37 33.6.36 2.65.36.68.36.64.37.98.36.88.36-.01.36 2.05.36.07.37 1.04.36-.62.36.73.36.26.36 1.82.37-.81.36 1.1.36.73.36.1.36.73.37.18.36.51.36.61.36 1.1.37 1.11.36-.66.36.85.36 1.54.36.29.37-.14.36.47.36 1.01.36.31.36-.19.37 1.31.36.65.36.74.36-.37.36 1.99.37-.07.36.7.36.72.36-.21.36 1.7.37.35.36 1.1.36.48.36-.83.37.88.36 1.49.36.33.36-46.31.36 8.62.37-8.09.36.15.36 6.71.36.09.36-8.97.37-1.63.36 7.72.36-.53.36-8.99.36 7.77.37-9.48.36-.8.36 6.83.36.12.37-9.46.36-.75.36-.37.36 7.36.36-8.79.37 7.72.36-9.21.36.21.36 6.32.36.21.37-10.03.36-.23.36-.3.36 7.46.36-8.84.37 7.7.36-8.64.36.03.36 6.69.36-.17.37-8.56.36-.2.36-1.04.36 7.6.37-8.72.36 7.56.36-8.95.36-.53.36 7.24.37.35.36-11.89.36 10.75.36-8.76.36 7.48.37 33.63.36 2.99.36.57.36.87.36.67.37-.07.36 1.11.36 1.02.36.18.37 1.14.36.02.36 1.32.36-.07.36-.12.37 1.53.36-.02.36.39.36 1.13.36.26.37.25.36 1.1.36-.03.36.8.36 1.47.37-.19.36.4.36.43.36.67.36.96.37.23.36.41.36 1.39.36.27.37.18.36.42.36 1.28.36.14.36.93.37-.03.36 1.73.36-.85.36 1 .36-.24.37 1.9.36.06.36 1.24.36-.33.36.78.37 1.07.36 1.89.36-47.68.36 8.73.37-8.52.36-.73.36-.23.36 8.44.36-9.65.37 8.01.36-9.53.36 7.9.36-9.42.36 8.27.37-9.59.36-1 .36-.79.36 7.77.36-8.48.37 7.75.36-8.9.36 7.53.36-9.13.37 8.13.36-9.46.36-.35.36-.72.36 7.66.37-8.21.36 7.44.36-8.78.36 7.51.36-9.02.37 7.86.36-9.05.36 7.87.36-16.98.36 15.66.37-8.6.36 7.86.36-8.98.36 7.92.36-9.2.37 8.08.36-9.1.36 8.33.36-8.84.37 7.2.36-8.11.36 7.83.36-8.46.36 7.17.37 33.67.36 1.58.36 2.2.36.76.36.33.37.82.36.02.36 1.18.36.28.36 1.25.37.12.36.54.36.88.36.83.37.11.36.88.36-.9.36 1.47.36-.37.37 1.84.36-.26.36.38.36.51.36.03.37.25.36 1.14.36 1.12.36.34.36 1.14.37-.38.36 1.17.36.86.36.47.36-.14.37.98.36.81.36.36.36.46.37 1.56.36-.59.36 1.27.36.29.36.79.37 1.13h.36l.36 1.35.36-.36.36.11.37 1.45.36.78.36-55.47.36 17.03.36-8.35.37 8.78.36-8.37.36 7.42.36-8.66.37 7.18.36-9.2.36 7.73.36-10.05.36-.3.37.02.36 7.32.36-8.24.36 6.78.36-8.67.37 7.61.36-8.56.36 7.16.36-9.16.36.02.37-.7.36 7.27.36-8.41.36 7.2.36-8.65.37 7.69.36-8.15.36 7.19.36-.04.37-9.34.36-.35.36 7.33.36-8.93.36 8.1.37-9.69.36 8.36.36-8.08.36 6.94.36-.16.37-8.79.36-.85.36 8.09.36-8.72.36 7.32.37-8.64.36-.21.36-.1.36 6.97.37 34.62.36 1.35.36.93.36 1.47.36.39.37.51.36 1.09.36 1.39.36-.84.36 1.09.37.34.36.68.36 1.21.36.71.36.09.37-.46.36 1 .36.68.36-.55.37 1.02.36.03.36 1.51.36.46.36.53.37 1.04.36.68.36.04.36.77.36-.06.37 1.29.36.16.36.4.36-.77.36 2.17.37.51.36.34.36.51.36.38.36.43.37.76.36 1.22.36.19.36 1.02.37.65.36-.37.36.73.36.97.36 1.28.37.04.36.87.36-40.9.36-5.49.36.17.37 8.16.36-8.03.36 6.67.36-8.23.36-1.5.37-.32.36 7.21.36-.19.36-9.52.37-1.15.36 8.54.36-8.75.36 7.14.36-8.58.37-1.26.36-.28.36 7.94.36-.37.36-9.29.37-1.01.36 7.77.36-7.89.36 6.96.36.01.37-9.31.36-.24.36 7.12.36-.36.36-8.37.37-1.11.36 8.17.36-8.79.36 7.13.37-.06.36-8.79.36-.85.36 8.11.36-.17.37-9.14.36-.88.36-.42.36-.22.36 7.32.37.21.36-9.29.36-.03.36 7.91.36 34.33.37 1.56.36 1.33.36.34.36 1.74.37-.24.36.3.36 1.33.36.53.36 1.16.37.73.36-.17.36.6.36-1.04.36 1.17.37.68.36.88.36.68.36-.74.36 1.65.37-.02.36.51.36 1.4.36-.11.37-.57.36 1.63.36.45.36-.28.36 1.04.37.79.36.53.36.85.36 1.1.36.66.37.29.36.12.36.19.36 1.12.36-.17.37 1.22.36.54.36.83.36.73.36.77.37.58.36.92.36.35.36.31.37.64.36.95.36-38.9.36-7.98.36-.1.37-.11.36-.93.36 8.4.36-.36.36-9.54.37-.08.36 7.45.36-.37.36-9.23.36-.82.37-.98.36-.85.36 7.42.36.42.37-9.12.36-.56.36 7.29.36-.7.36-8.66.37 7.63.36-8.92.36-.68.36 8.03.36-.73.37-8.73.36-1.39.36-.32.36 7.98.36-8.65.37 7.99.36-8.84.36-1.62.36 8.54.36-.15.37-9.13.36-.89.36-.34.36 7.85.37-8.88.36 8.28.36-8.91.36-.28.36 7.58.37-.21.36-10.03.36.03.36-.21.36 42.88.37 1.51.36 1.34.36.59.36 1.37.36.49.37-.38.36 1.37.36.84.36.02.37 1.23.36.46.36.34.36 1.01.36-.17.37.08.36 1.26.36-.3.36 1.08.36.96.37.78.36.28.36-.61.36.77.36 1.17.37.71.36.72.36.64.36-.26.36.49.37.64.36.79.36.19.36 1.57.37-.77.36 1.37.36-.43.36.69.36 1.05.37.18.36 1.04.36.98.36.08.36 1.13.37.25.36.17.36.57.36.78.36 1.71.37-.52.36-38.18.36-8.27.36 8.56.37-8.49.36-.03.36 7.51.36-.6.36-8.69.37-1.35.36-.72.36 7.79.36-9.08.36 7.86.37-8.84.36-.64.36 6.99.36-.02.36-9.18.37 7.67.36-8.9.36 7.71.36-8.54.37 7.6.36-8.95.36-.97.36-.49.36 7.72.37-9.48.36 8.61.36-8.59.36 7.6.36-9.44.37 8.32.36-8.81.36-1.47.36.3.36 7.44.37-8.97.36 8.33.36-8.53.36 7.69.36-8.71.37 7.71.36-9.42.36-.64.36-.19.37 7.61.36-8.41.36 8.05.36-8.65.36 41.44.37 2.6.36 1.03.36 1.53.36-.13.36.86.37 1.44.36.27.36.18.36.88.36 1.26.37-.21.36-.2.36 1.71.36.11.37.25.36.49.36.77.36.15.36.3.37.62.36 1.13.36.33h.36l.36 1.73.37-.44.36.4.36.71.36 1.1.36-.05.37.92.36 1.6.36-1.16.36.76.36.85.37.2.36.34.36-1.78.36 2.5.37 1.35.36-.16.36 2.13.36.45.36-.1.37.13.36 1.58.36.55.36.83.36.45.37 1.24.36-39.41.36-8.36.36 8.82.36-8.75.37 8.16.36-8.5.36 7.13.36-8.81.37 7.54.36-9.37.36 7.86.36-9.68.36 8.54.37-9.28.36 8.19.36-9.4.36 7.79.36-8.66.37 7.59.36-9.25.36 7.92.36-18.26.36 16.48.37-8.29.36 7.55.36-8.29.36 7.3.36-9.36.37 8.4.36-8.87.36 7.93.36-17.64.37 16.06.36-8.66.36 7.83.36-9.04.36 7.89.37-9.18.36 7.95.36-8.23.36 7.26.36-16.92.37 15.86.36-9.05.36 8.48.36-8.86.36 7.76.37-9.07.36 8.25.36-8.74.36 42.1.37 1.76.36 1.07.36 1.97.36.65.36.71.37.67.36-.53.36 1.53.36.34.36.15.37.24.36-.1.36 1.91.36.46.36.36.37.58.36.38.36.72.36.72.37.82.36-.12.36 1.39.36-.11.36-.03.37 1.97.36-.26.36.71.36.79.36.21.37-.32.36.88.36.93.36.98.36-.63.37.98.36.38.36 1.28.36.15.36.2.37.96.36 1.18.36.07.36.53.37.13.36 1.6h.36l.36.08.36.89.37.76.36-38.52.36-7.54.36 7.73.36-8.45.37 8.44.36-9.22.36 7.44.36-9.44.36 8.61.37-8.79.36 7.31.36-8.48.36 7 .37-9.59.36 8.35.36-9.08.36 7.94.36-9.42.37-.22.36-.45.36 7.3.36-8.9.36 7.48.37-8.56.36 7.87.36-8.44.36 7.7.36-9.59.37-.35.36-.94.36 8.65.36-8.81.36 7.51.37-9.53.36 8.34.36-8.69.36 7.96.37-8.99.36-.83.36-.49.36 8.32.36-9.19.37 8.02.36-8.67.36 8.01.36-8.62.36 7.52.37-.25.36-9.39.36-.14.36 42.03.36 3.19.37-.2.36 2.26.36.97.36.43.37-.27.36-.17.36 1 .36 1.42.36-.46.37 1.25.36 1.33.36.1.36.19.36.83.37-.37.36 1.13.36.55.36-.13.36 1.77.37.42.36.24.36-.42.36.93.36.72.37-.24.36 1.09.36.55.36.82.37-.52.36 1.08.36 1.36.36-.59.36.28.37 1.16.36.33.36.87.36-.57.36 1.72.37 1.11.36-2.62.36 2.95.36 1.03.36.43.37 1.14.36-.79.36 1.06.36.14.37 1.84.36-39.08.36.94.36-8.69.36-.64.37-.88.36-.18.36 7.99.36-.27.36-9.78.37-.63.36 8.43.36-.41.36-9.73.36-1.83.37.24.36-.58.36 8.18.36-.1.37-9.36.36-.39.36 7.85.36-.49.36-9.71.37-1.4.36.12.36.22.36 7.61.36-.37.37-9.03.36-.18.36 7.27.36-.16.36-9.42.37-.66.36-.61.36.18.36 7.71.36-.21.37-9.18.36-2.49.36 5.53.36 1.15.37-8.48.36 8.76.36-7.79.36-1.02.36 8.65.37-.4.36-9.38.36-.63"/><use xlink:href="#b" transform="matrix(3.75 0 0 3.75 125.4 161.74)"/><use xlink:href="#b" transform="matrix(3.75 0 0 3.75 220.55 7.51)"/></g><text fill="#000" stroke="none" stroke-linecap="round" stroke-linejoin="round" color="#000" font-family="KaTeX_Main" font-size="8" transform="translate(241.1 25.11)"><tspan>WBSTTopDown</tspan></text><g fill="none" stroke="currentColor" stroke-linecap="round" stroke-linejoin="round" color="#000"><path stroke="#29C3F6" stroke-dasharray="4.0,2.0,1.0,2.0" d="M205.6 22.51h29.9M28 173.83l.36-.19.36 7.7.37-.51.36-9.6.36.02.36-2.87.36 1.17.37 6.88.36 1.71.36-12.36.36 2.69.37 6.83.36-.58.36-9.96.36 1.16.36-.81.37-.87.36 6.77.36-.31.36-7.54.36-1.23.37 7.24.36-.29.36-9.24.36-.15.36-1.87.37 1.14.36 7.9.36 1.46.36-11.54.36 1.11.37 6.95.36-.6.36-8.96.36.71.37-1.45.36-.65.36 6.96.36 1.36.36-10.3.37-1.05.36 9.99.36.11.36-9.96.36 9.11.37-9.12.36-.27.36 9.18.36.34.36-10.52.37-30.27.36 2.1.36-1.52.36 1.77.37.68.36-.54.36-.12.36.84.36-1.61.37 2.36.36.21.36.66.36.74.36-.29.37.9.36-1.14.36 1.14.36 1.32.36-1.77.37 2.53.36-1.06.36-1.01.36.46.37 1.06.36 1.26.36-.18.36-.69.36.7.37-.26.36 1.98.36-.58.36 1.14.36 1.48.37.27.36.38.36 1.97.36-2.34.36.68.37.87.36.24.36.73.36-.31.36 1.08.37.87.36.92.36-.72.36.7.37-.37.36.71.36.43.36 27.04.36 3.14.37 11.11.36-8.68.36 8.07.36-8.82.36.15.37 8.31.36-2.46.36-8.99.36-.77.36-.06.37 8.83.36-8.44.36 8.59.36-9.29.37-.71.36 7.97.36-1 .36-9.7.36 1.05.37-2.36.36 9.67.36-10.19.36 7.97.36-9.73.37-.11.36 8.48.36.83.36-9.95.36 7.29.37-7.77.36 7.48.36-9.36.36 8.71.36-9.24.37.47.36 6.48.36.45.36-11 .37 9.88.36-8.57.36 8.06.36-9.36.36 7.61.37-9.04.36.72.36-1.76.36 8.9.36-7.69.37-29.95.36-.38.36-.14.36-.57.36-.7.37 1.33.36-1.05.36 1.23.36 1.76.37-.67.36-.32.36.98.36-.3.36 1.32.37.36.36-1.01.36 1.32.36-.67.36 1.51.37 2.04.36-.73.36.8.36.83.36-.25.37.74.36.43.36.26.36.18.36-.95.37 1.39.36.9.36.44.36.38.37-.82.36.34.36-.1.36 1.76.36-.63.37.44.36-.3.36 1.46.36-.1.36.72.37.05.36 1.67.36-.01.36-.01.36 1.19.37.79.36.58.36 36.7.36-6.12.37 7.93.36-8.07.36 9.06.36-7.72.36 8.51.37-21.22.36 18.59.36-7.95.36 6.98.36-8.76.37 8.69.36-9.54.36 8.51.36-9.2.36 8.15.37-16.88.36 16.65.36-12.6.36 11.53.37-9.17.36 7.42.36-7.52.36 6.27.36-8.36.37 9.27.36-9.96.36 7.53.36-10.44.36 9.45.37-9.63.36 9.36.36-10.18.36 9.88.36-7.98.37 5.87.36-7.45.36 8.85.36-10.69.36 8.93.37-9.9.36 9.55.36-11.39.36 1.81.37-.56.36 7.69.36-11.01.36 10.2.36-10.07.37-29.97.36.55.36-.98.36.61.36-.21.37.32.36.57.36 1.1.36-.87.36-.1.37 1.66.36.08.36-.28.36.13.37.75.36 1.44.36-1.04.36.01.36.96.37-.02.36.87.36.55.36-1.15.36 1.12.37-.38.36.94.36-.01.36.22.36.29.37 1.37.36-1.14.36 1.39.36-1.17.36-.18.37 2.31.36.02.36 1.35.36-.08.37-.19.36.13.36.22.36.32.36 1.67.37-.59.36 1.65.36-.26.36-.25.36 1.66.37.18.36-.56.36 38.74.36-6 .36 9.56.37-7.2.36-1.14.36 1.22.36 6.88.37-8.74.36 8.7.36-9.63.36 9.91.36-9.65.37 5.1.36-7.14.36-.38.36.1.36 8.82.37-9.92.36 7.15.36-7.61.36 6.07.36-8.57.37 8.09.36-.51.36-9.04.36-.29.36 9.29.37-8.6.36 6.12.36-8.18.36-1.43.37 1.22.36 8.66.36-1.34.36-8.4.36-1.25.37 10.19.36-10.5.36 7.39.36-7.95.36-.43.37.22.36 8.84.36-1.2.36-8.4.36-2.02.37 9.05.36-9.32.36 8.86.36-9.95.37-31.18.36-1.02.36-.32.36-.81.36.93.37 1.05.36-1.34.36 1.89.36.03.36.68.37.76.36-.11.36.1.36-.44.36 1.44.37.28.36-.45.36 1.44.36.05.37-.14.36.75.36.05.36 1.17.36.42.37-4.87.36.46.36-2.2.36 4.19.36-5.87.37 5.97.36 3.7.36.24.36 1.42.36-.28.37.05.36.67.36 1.15.36-1.46.36.92.37.41.36 2.21.36-.44.36.56.37.85.36 1.1.36-.95.36.82.36.39.37.36.36-.6.36 29.9.36 3.25.36 9.93.37-.29.36-8.39.36-.48.36 7.92.36-7.09.37 8.56.36-11.4.36.45.36.05.37 7.3.36.07.36-10.59.36-.49.36 7.96.37-9.03.36 7.93.36 2.3.36-11.35.36.34.37 7.6.36-1.02.36-8.49.36-1.11.36-1.43.37 2.23.36 7.68.36-.3.36-6.51.36-2.65.37 8.23.36-.58.36-9.5.36.59.37-1.87.36 2.54.36 7.14.36-.45.36-9.34.37-1.06.36 8.28h.36l.36-9.39.36-3.16.37.64.36 1.7.36 8.32.36-1.13.36-39.7.37-.51.36-11.99.36-48.44.36 23.86.37 13.08.36 5.56.36-1.86.36 6.15.36 1.55.37 1.92.36 6.3.36 1.57.36-.61.36.91.37 1.82.36-.66.36 2.19h.36l.36.4.37-.38.36.88.36.07.36 1.07.37.48.36-.32.36-.18.36.18.36-.51.37.26.36.67.36-36.98.36-12.67.36 15.95.37 8.99.36 2.6.36 4.39.36 4.45.36-8.83.37-46.8.36 21.76.36 23.39.36 13.59.36.76.37 3.29.36.78.36.19.36.62.37 2.44.36 1.48.36 30.23.36 2.71.36 10.17.37.62.36-8.29.36 8.47.36-9.32.36.22.37 8.09.36 1.4.36-9.54.36-1.9.36 9.17.37.86.36-10.59.36 9.16.36-9.65.37-1.66.36 9.22.36.1.36-11.12.36 1.88.37-.41.36 6.29.36-8.2.36 9.37.36-10.04.37-1.48.36 8.05.36.49.36-7.46.36-1.98.37-.48.36 10.34.36-10.95.36 9.78.36-9.58.37.45.36 8.57.36-.93.36-10.69.37-1.96.36 2.03.36 8.7.36-9.08.36 7.53.37-7.75.36-.61.36 6.46.36 3.95.36-41.37.37.29.36.01.36.32.36 1.14.36-.94.37-.4.36-1.18.36.29.36-3.85.37-3.11.36.99.36 4.43.36 2.02.36.51.37.34.36.02.36.99.36.55.36.64.37 1.2.36.31.36-.42h.36l.36.16.37-2.63.36 1.24.36.57.36-.98.36 4.21.37-.93.36-44.64.36-6.93.36 18.69.37 15.8.36 5.2.36 7.39.36 2.37.36.77.37 3.3.36 2.53.36 1.64.36-.09.36 3.26.37 1.83.36-.59.36-.09.36.1.36.47.37 1.9.36 26 .36 13.43.36-8.45.37 8.21.36-7.33.36 8.23.36-8.31.36.67.37 8.09.36.33.36-12.84.36 11.28.36-8.6.37 6.17.36-7.07.36 6.62.36-8.11.36.23.37-.72.36 7.17.36-9.38.36 9.51.37-8.51.36 9.04.36-10.86.36 9.23.36-9.97.37-.58.36-.87.36 9.03.36-8.88.36 8.37.37-8.13.36 8.48.36-9.63.36 11.07.36-10.54.37-1.38.36-1.96.36 10.6.36-10.48.36 10.25.37-8.06.36 6.41.36-7.52.36 7.83.37-9.6.36 8.49.36-8.44.36 8.59.36-37.31.37-1.32.36 1.58.36-1.37.36 1.02.36.45.37.03.36.25.36-.97.36 1.77.36.57.37-1.39.36.65.36.86.36 1.31.37.33.36.28.36-.3.36.22.36.76.37.8.36.07.36 1.36.36-.3.36.74.37-.6.36.33.36-.22.36.63.36.17.37 1.06.36-.32.36 1.33.36.4.36-.27.37-.72.36 1.74.36-.04.36-.27.37-.07.36 2.01.36.93.36-.88.36-.48.37 2.17.36-.31.36-.07.36 1.05.36-1.12.37 2.65.36 28.16.36 10.79.36-10.27.36 10.13.37-16.42.36 17.18.36-8.91.36 9.55.37-10.17.36 6.86.36-9.21.36 9.57.36-10.36.37 9.35.36-16.37.36 14.86.36-8.52.36 9.71.37-10.19.36 9.1.36-10.54.36 9.51.36-9.1.37 7.1.36-19.58.36 20.39.36-11.19.36 12.07.37-12.82.36 10.26.36-9.68.36 8.77.37-9.33.36 7.59.36-16.24.36 15.6.36-9.32.37 8.83.36-8.73.36 9.22.36-10.24.36 10.58.37-12.06.36 8.87.36-9.29.36 7.8.36-8.01.37 7.81.36-8.03.36 7.98.36-39.77.37-.19.36.28.36-.44.36.56.36-1.62.37 1.46.36 1.16.36-.54.36.41.36-.71.37.63.36.1.36 2.24.36-1.4.36.22.37.4.36.34.36-1.77.36 1.63.37 1.03.36.61.36-.45.36.81.36.89.37.26.36-.18.36 1.76.36-.78.36-.1.37.33.36 1.26.36-.26.36-.13.36-.12.37 1.85.36-1.15.36 1.48.36.74.36-.66.37.97.36.34.36.69.36.13.37-.25.36.39.36.3.36.4.36.83.37.42.36 28.66.36 4.47.36.96.36 7.91.37-8.37.36 8.55.36-8.93.36 9.06.36-8.09.37 8.13.36-8.18.36-2.52.36-2.76.37 9.32.36-7.03.36 7.23.36-7.62.36 7.44.37-8.41.36 7.56.36-10.1.36.15.36-.01.37 6.99.36-6.93.36 7.1.36-12.18.36 11.43.37-10.94.36 5.26.36.87.36-12.56.36 1.01.37 2.58.36 4.03.36-11.38.36-2.8.37 9.97.36-8.21.36 4.66.36-.96.36-10.25.37 4.1.36 7.02.36 3.33.36-15.65.36-.05.37 1.5.36-1.37.36 8.09.36-42.51.36 5.42.37.88.36 1.95.36-1.28.36.79.37-2.56.36 2.39.36 3.11.36.73.36-.49.37-.25.36.68.36-3.6.36 5.52.36 1.25.37 1.85.36-1.23.36.66.36.26.36.27.37.7.36-.22.36.19.36.99.36-.78.37 1.02.36 1.79.36-.73.36.91.37.21.36-.94.36-1.43.36 2.65.36.02.37-.09.36.47.36.47.36-.18.36 1.19.37-.22.36 1.27.36-.34.36 1.45.36.18.37.57.36-.85.36 1.42.36-.06.37.47.36 37.54.36-6.33.36 1.65.36 9.01.37-.8.36-8.12.36-1.96.36.42.36-2.28.37 12.54.36-2.01.36-9.26.36-.63.36 9.22.37.78.36-9.47.36.91.36-2.47.37-.61.36 7.47.36 1.25.36-10.24.36 1.19.37 7.81.36-.46.36-11.16.36 8.74.36-13.93.37.93.36 6.93.36 2 .36-12 .36-6.52.37 12.92.36 2.32.36-14.84.36 12.77.36-13.51.37.68.36 5.11.36 2.64.36-10.79.37-10.01.36 4.32.36 11.77.36-5.52.36 10.48.37-8.2.36.71.36 7.02"/><use xlink:href="#h" color="#29C3F6" transform="matrix(3.75 0 0 3.75 182.98 157.74)"/><use xlink:href="#h" color="#29C3F6" transform="matrix(3.75 0 0 3.75 220.55 22.51)"/></g><path fill="none" stroke="none" stroke-linecap="round" stroke-linejoin="round" stroke-width="0" d="M28 45.01V205M371.99 45.01H28" color="#000"/></svg>