<svg xmlns="http://www.w3.org/2000/svg" xmlns:xlink="http://www.w3.org/1999/xlink" viewBox="0 0 400 250"><path fill="none" d="M0 0h400v250H0z"/><defs><use xlink:href="#a" id="g" fill="currentColor" stroke="none"/><use xlink:href="#b" id="h" fill="currentColor" stroke="none"/><use xlink:href="#b" id="c" stroke="currentColor" transform="rotate(180)"/><use xlink:href="#d" id="e" stroke="currentColor" transform="rotate(45)"/><path id="d" stroke="currentColor" stroke-width=".267" d="M-1-1h2v2h-2z"/><path id="b" stroke="currentColor" stroke-width=".267" d="m0-1.33-1.33 2h2.66z"/><path id="f" stroke="currentColor" stroke-width=".267" d="M0 1.33 1.265.411.782-1.067l-1.564-.009-.483 1.487z"/><circle id="a" cx="0" cy="0" r="1" stroke="currentColor" stroke-width=".267"/></defs><path fill="none" stroke="#000" stroke-linecap="round" stroke-linejoin="round" stroke-width=".1" d="M35.48 205V45.01" class="gridline" color="#000"/><g fill="none" stroke="none" stroke-linecap="round" stroke-linejoin="round" stroke-width="0" color="#000"><path d="M35.48 205v-7.5m0-152.49v7.5"/><text fill="#000" font-family="KaTeX_Main" font-size="10" text-anchor="middle" transform="translate(35.48 215.75)"><tspan> 1</tspan></text></g><path fill="none" stroke="#000" stroke-linecap="round" stroke-linejoin="round" stroke-width=".1" d="M72.87 205V45.01" class="gridline" color="#000"/><g fill="none" stroke="none" stroke-linecap="round" stroke-linejoin="round" stroke-width="0" color="#000"><path d="M72.87 205v-7.5m0-152.49v7.5"/><text fill="#000" font-family="KaTeX_Main" font-size="10" text-anchor="middle" transform="translate(72.87 215.75)"><tspan> 2</tspan></text></g><path fill="none" stroke="#000" stroke-linecap="round" stroke-linejoin="round" stroke-width=".1" d="M110.26 205V45.01" class="gridline" color="#000"/><g fill="none" stroke="none" stroke-linecap="round" stroke-linejoin="round" stroke-width="0" color="#000"><path d="M110.26 205v-7.5m0-152.49v7.5"/><text fill="#000" font-family="KaTeX_Main" font-size="10" text-anchor="middle" transform="translate(110.26 215.75)"><tspan> 3</tspan></text></g><path fill="none" stroke="#000" stroke-linecap="round" stroke-linejoin="round" stroke-width=".1" d="M147.65 205V45.01" class="gridline" color="#000"/><g fill="none" stroke="none" stroke-linecap="round" stroke-linejoin="round" stroke-width="0" color="#000"><path d="M147.65 205v-7.5m0-152.49v7.5"/><text fill="#000" font-family="KaTeX_Main" font-size="10" text-anchor="middle" transform="translate(147.65 215.75)"><tspan> 4</tspan></text></g><path fill="none" stroke="#000" stroke-linecap="round" stroke-linejoin="round" stroke-width=".1" d="M185.04 205V45.01" class="gridline" color="#000"/><g fill="none" stroke="none" stroke-linecap="round" stroke-linejoin="round" stroke-width="0" color="#000"><path d="M185.04 205v-7.5m0-152.49v7.5"/><text fill="#000" font-family="KaTeX_Main" font-size="10" text-anchor="middle" transform="translate(185.04 215.75)"><tspan> 5</tspan></text></g><path fill="none" stroke="#000" stroke-linecap="round" stroke-linejoin="round" stroke-width=".1" d="M222.43 205V45.01" class="gridline" color="#000"/><g fill="none" stroke="none" stroke-linecap="round" stroke-linejoin="round" stroke-width="0" color="#000"><path d="M222.43 205v-7.5m0-152.49v7.5"/><text fill="#000" font-family="KaTeX_Main" font-size="10" text-anchor="middle" transform="translate(222.43 215.75)"><tspan> 6</tspan></text></g><path fill="none" stroke="#000" stroke-linecap="round" stroke-linejoin="round" stroke-width=".1" d="M259.82 205V45.01" class="gridline" color="#000"/><g fill="none" stroke="none" stroke-linecap="round" stroke-linejoin="round" stroke-width="0" color="#000"><path d="M259.82 205v-7.5m0-152.49v7.5"/><text fill="#000" font-family="KaTeX_Main" font-size="10" text-anchor="middle" transform="translate(259.82 215.75)"><tspan> 7</tspan></text></g><path fill="none" stroke="#000" stroke-linecap="round" stroke-linejoin="round" stroke-width=".1" d="M297.21 205V45.01" class="gridline" color="#000"/><g fill="none" stroke="none" stroke-linecap="round" stroke-linejoin="round" stroke-width="0" color="#000"><path d="M297.21 205v-7.5m0-152.49v7.5"/><text fill="#000" font-family="KaTeX_Main" font-size="10" text-anchor="middle" transform="translate(297.21 215.75)"><tspan> 8</tspan></text></g><path fill="none" stroke="#000" stroke-linecap="round" stroke-linejoin="round" stroke-width=".1" d="M334.6 205V45.01" class="gridline" color="#000"/><g fill="none" stroke="none" stroke-linecap="round" stroke-linejoin="round" stroke-width="0" color="#000"><path d="M334.6 205v-7.5m0-152.49v7.5"/><text fill="#000" font-family="KaTeX_Main" font-size="10" text-anchor="middle" transform="translate(334.6 215.75)"><tspan> 9</tspan></text></g><path fill="none" stroke="#000" stroke-linecap="round" stroke-linejoin="round" stroke-width=".1" d="M371.99 205V45.01" class="gridline" color="#000"/><g fill="none" stroke="none" stroke-linecap="round" stroke-linejoin="round" stroke-width="0" color="#000"><path d="M371.99 205v-7.5m0-152.49v7.5"/><text fill="#000" font-family="KaTeX_Main" font-size="10" text-anchor="middle" transform="translate(371.99 215.75)"><tspan> 10</tspan></text></g><g fill="none" stroke="none" stroke-linecap="round" stroke-linejoin="round" stroke-width="0" color="#000"><path d="M371.99 205h-7.5"/><text fill="#000" font-family="KaTeX_Main" font-size="10" transform="translate(378.99 208.25)"><tspan>0.05</tspan></text></g><g fill="none" stroke="none" stroke-linecap="round" stroke-linejoin="round" stroke-width="0" color="#000"><path d="M371.99 185h-7.5"/><text fill="#000" font-family="KaTeX_Main" font-size="10" transform="translate(378.99 188.25)"><tspan>0.10</tspan></text></g><g fill="none" stroke="none" stroke-linecap="round" stroke-linejoin="round" stroke-width="0" color="#000"><path d="M371.99 165h-7.5"/><text fill="#000" font-family="KaTeX_Main" font-size="10" transform="translate(378.99 168.25)"><tspan>0.15</tspan></text></g><g fill="none" stroke="none" stroke-linecap="round" stroke-linejoin="round" stroke-width="0" color="#000"><path d="M371.99 145h-7.5"/><text fill="#000" font-family="KaTeX_Main" font-size="10" transform="translate(378.99 148.25)"><tspan>0.20</tspan></text></g><g fill="none" stroke="none" stroke-linecap="round" stroke-linejoin="round" stroke-width="0" color="#000"><path d="M371.99 125h-7.5"/><text fill="#000" font-family="KaTeX_Main" font-size="10" transform="translate(378.99 128.25)"><tspan>0.25</tspan></text></g><g fill="none" stroke="none" stroke-linecap="round" stroke-linejoin="round" stroke-width="0" color="#000"><path d="M371.99 105.01h-7.5"/><text fill="#000" font-family="KaTeX_Main" font-size="10" transform="translate(378.99 108.26)"><tspan>0.30</tspan></text></g><g fill="none" stroke="none" stroke-linecap="round" stroke-linejoin="round" stroke-width="0" color="#000"><path d="M371.99 85.01h-7.5"/><text fill="#000" font-family="KaTeX_Main" font-size="10" transform="translate(378.99 88.26)"><tspan>0.35</tspan></text></g><g fill="none" stroke="none" stroke-linecap="round" stroke-linejoin="round" stroke-width="0" color="#000"><path d="M371.99 65.01h-7.5"/><text fill="#000" font-family="KaTeX_Main" font-size="10" transform="translate(378.99 68.26)"><tspan>0.40</tspan></text></g><g fill="none" stroke="none" stroke-linecap="round" stroke-linejoin="round" stroke-width="0" color="#000"><path d="M371.99 45.01h-7.5"/><text fill="#000" font-family="KaTeX_Main" font-size="10" transform="translate(378.99 48.26)"><tspan>0.45</tspan></text></g><path fill="none" stroke="none" stroke-linecap="round" stroke-linejoin="round" stroke-width="0" d="M28 45.01V205M371.99 45.01H28" color="#000"/><text fill="#000" stroke="none" stroke-linecap="round" stroke-linejoin="round" stroke-width="0" color="#000" font-family="KaTeX_Main" font-size="10" text-anchor="middle" transform="rotate(-90 68.255 56.755)"><tspan font-weight="bold">Duration </tspan><tspan> in milliseconds</tspan></text><text fill="#000" stroke="none" stroke-linecap="round" stroke-linejoin="round" stroke-width="0" color="#000" font-family="KaTeX_Main" font-size="10" text-anchor="middle" transform="translate(199.99 238.25)"><tspan>Operations / 10</tspan><tspan dy="-5" font-size="8">6</tspan></text><text fill="#000" stroke="none" stroke-linecap="round" stroke-linejoin="round" color="#000" font-family="KaTeX_Main" font-size="8" transform="translate(132.8 10.11)"><tspan>LBSTBottomUp</tspan></text><g fill="none" stroke="currentColor" stroke-linecap="round" stroke-linejoin="round" color="#000"><path stroke="#3B75EA" d="M97.3 7.51h29.9M28 106.9l.37-.49.38-.73.37.1.38-.26.37-.33.37-.8.38.28.37-37.47.38 34.32.37 1.74.37.04h.38l.37.22.37-.37.38-.48.37-.4.38-.26.37-37.43.37 33.2.38 2.45.37 83.99.38.9.37-1.14.37.92.38.23.37-.05.38-.18.37.36.37-.93.38-.21.37.57.37-.42.38.44.37-.45.38.68.37-.23.37.39.38.07h.37l.38.38.37.18.37-.3h.75l.38.16.37.21.37-.16.38.32.37-.37.38-.1.37-.33.37.75.38.26.37-.98.37-.89.38.13.37 1.1.38.63.37-.12.37.36.38-.31.37.42.38-.67.37-.01.37-.07.38-.89.37.18.38.37.37.41.37-.21.38-87.23.37 9.64.37 2.24.38.75.37.28.38-.11.37-.71.37.22.38-.76.37.04.38-.29.37-.14.37-.24.38-.45.37-.42.38.06.37-.34.37-.98.38.1.37-1 .38.68.37-.46.37-1.25.38-34.88.37 33.05.37.71.38.23.37-.37.38.56.37-.79.37-.53.38.41.37-1.06.38-35.94.37 33.33.37 1.06.38.7.37.72.38-.49.37-.06.37-.41.38-.03.37-.8.37-37.39.38 34.9.37 1.46.38.09.37.03.37-.46.38.28.37 83.11.38.66.37.05.37 1.07.38.28.37-.56.38-.11.37.85.37-.01.38-.44.37.41.38-.38.37.42.37.62.38-.59.37-.01.37.31h.38l.37-.09.38.16.37.69.37-.17.38-.31.37-.43.38-.18.37-.33.37.64.38.61h.37l.38-.03.37-.76.37-.63.38.85.37.09.37-.18.38-.21.37-.22.38.38.37.38.37.6.38-.11.37-.24.38.04.37-.17.37.18.38.23.37-.36.38.67.37-.32.37-.31.38-89.34.37 10.37.38 2.28.37 1 .37.06.38.1.37-.51.37-.13.38-.02.37-.56.38-.09.37-.48.37.17.38-.62.37-.23.38-.11.37-.75.37.06.38-1.17.37.13.38-38.21.37 36.42.37.7.38-.1.37-.15.37.14.38-.63.37-.28.38.14.37-.35.37-38.27.38 36.5.37.75.38-.04.37-1.27.37.17.38.5.37-.08.38-.4.37-.02.37-39.64.38 38 .37-.12.38.6.37-.62.37.18.38-.27.37-.83.37.19.38-.13.37 84.19.38-.18.37.56.37-.34.38.35.37.49.38.26.37.69.37.29.38-.29.37-.41.38-.53.37.2.37.3.38.37.37-.57.37.75.38-.08.37-.19.38-.27.37-.08.37.56.38.25.37-.01.38.22.37.02.37-.22.38.12.37 1.01.38-.27.37-1.12.37.07.38.85.37-.81.38-.31.37.78.37-.13.38.28.37.08.37.49.38.67.37-1.04.38.64.37-.35.37-.71.38.35.37-.23.38-.39.37.18.37.25.38-89.87.37 9.66.38 2.42.37.92.37 1 .38-.08.37-.74.37.15.38-.33.37-.29.38-.14.37-.43.37-.13.38-1.4.37.46.38-.54.37-36.08.37 35.78.38-.19.37.27.38-.49.37.32.37-.91.38-.31.37.19.38-.2.37-36.88.37 35.85.38-.44.37-.28.37-.46.38.5.37.05.38-.11.37-.71.37-.18.38-.23.37.01.38.12.37-.75.37.13.38-.74.37.42.38-.99.37.59.37-.37.38-.37.37-.31.37.21.38-.54.37 83.02.38.46.37.44.37.72.38-.3.37-.46.38.14.37.58.37.08.38-.29.37-.18.38.18.37.27.37.1.38.3.37.86.38-.21.37-.46.37.22.38-.26.37.29.37.54.38.71.37-.69h.38l.37-.56.37.35.38-.33.37.53h.38l.37-.02.37.61.38.28.37-.15.38-.02.37-.78.37.3.38.43.37-.54.37.75.38-.39.37-.02.38.29.37.25.37-.64.38.42.37-.73.38.73.37.39.37-.31.38-91.11.37 11 .38 2.26.37.91.37.67.38-.06.37-.83.38-.27.37-.12.37-.25.38-.22.37-.56.37-35.7.38 33.66.37.71.38.2.37-.29.37.26.38-.66.37-.34.38-.44.37-.28.37-35.99.38 34.79.37.57.38.11.37-.37.37-.63.38.17.37-.47.37.17.38-.93.37.1.38.02.37-.77.37.22.38-.6.37.4.38-.55.37-.09.37-.25.38-.39.37-.29.38-.37.37.47.37-.49.38-.03.37-.4.38-35.54.37 33.48.37 85.25.38.83.37-.19.37.86.38-.02.37-.02.38.09h.37l.37.13.38.26.37.57.38.09.37-.54.37.12h.38l.37-.3.38.81.37-.01.37.33.38-.56.37.12.37-.16.38.51.37.06.38-.34.37.76.37-.56.38-.3.37.13.38.69.37-.24.37.38.38-.29.37-.38.38.23.37-.13.37.37.38-.37.37.85.38.39.37-1.01.37-.37.38.56.37-.81.37.36.38-.15.37.03.38 1.09.37-.6.37.49.38-90.91.37 10.38.38 2.94.37 1.2.37.12.38-.32.37-.17.38-.14.37-36.13.37 33.92.38-.07.37.49h.37l.38-.08.37-.11.38-.47.37-.14.37-.22.38-37.58.37 34.84.38.96.37.25.37-.33.38-.34.37-.4.38.06.37.01.37-1.21.38.43.37-.02.37-.67.38.41.37-.06.38-.55.37-.69.37.16.38-.17.37-.1.38-.14.37-.06.37-.68.38.23.37.01.38-.51.37-35.97.37 33.35.38 1.22.37.71.38-.72.37-.2.37 84.06.38.69.37-.06.37.81.38-.14.37.35.38-.67.37-.41.37 1.63.38-1.02.37.44.38.26.37-.09.37.14.38.7.37.34.38.2.37-.9.37.55.38-.14.37-.03.37-.09.38-.03.37.27.38.66.37-.27.37-.46.38-.7.37 1.72.38-.43.37-.58.37.09.38.61.37-.32.38-.44.37.56.37-.12.38-.3.37.86.38-.8.37.12.37.45.38-.38.37-.47.37.69.38-.43.37.33.38-.56.37.59.37.38.38-91.55.37 10.61.38 2.66.37.76.37-34.5.38 32.72.37.88.38.85.37-.3h.37l.38-.27.37-.49.37-.23.38-.29.37-37.75.38 34.76.37 1.52.37.1.38.12.37-.7.38-.08.37-.19.37-.24.38-.85.37.13.38.04.37-.41.37.03.38-.79.37-.02.38-1 .37.77.37-.13.38-.58.37-1.07.37 1 .38-.22.37-.39.38-.04.37-.22.37-.44.38-37.78.37 36.22.38.14.37.52.37-.52.38-.11.37.02.38-.42.37.06.37 83.57.38 1.12.37.98.37-.62.38.57.37-.14.38.63.37.08.37-.38.38-.03.37-.73.38.66.37-1.02.37 1.18.38-.06.37.13.38-.24.37.57.37.63.38.53.37-.12.38-.46.37-.06.37.2.38-.33h.37l.37.71.38-.63.37.15.38-.22.37-.1.37-.45.38 1.21.37-.05.38.3.37-1.05.37.24.38.32.37.3.38.31.37-.78.37.47.38.2.37-.49.37.06.38-.25h.37l.38-.05.37.4.37.39.38-92.17.37-28.51.38 41.02.37 1.49.37.06.38.48.37-.16.38-.24.37-.48.37.08.38.55.37-.52.38-.48.37.01.37-.42.38-.29.37-.29.37-.16.38-.12.37-.45.38-.81.37-.13.37-1.38.38.99.37.22.38-.78.37.17.37-.71.38-.03.37.14.38-.32.37-.47.37-.36.38-.97.37.21.37.18.38-.34.37-37.76.38 36.16.37.4.37-.04.38.17.37-.11.38-.42.37.12.37-.64.38-.12.37-37.92.38 36.37.37.37.37 83.99.38.85.37.86.38-.54.37.62.37-.66.38.38.37.59.37.34.38.41.37-.14.38-.39.37.21.37.43.38.25.37-.35.38.47.37.05.37-.1.38-.19.37.61.38-.53.37.2.37.08.38.13.37-.13.37.56.38-.16.37-.41.38-.28.37.04.37.34.38.63.37-.31.38-.84.37.4.37.35.38-.12.37.96.38-.63.37-.12.37.71.38-.42.37-1.14.38.95.37-.22.37.18.38.27.37.5.37-.46.38-92.5.37 11.15.38 2.27.37 1.54.37.07.38.16.37-.43.38.02.37-.8.37.15.38.01.37-.68.38-.5.37-.4.37-.05.38.09.37-.38.37-.28.38.07.37-.83.38.25.37-.43.37-.29.38-37.84.37 35.63.38.96.37-.17.37.13.38.14.37-.22.38-.36.37.19.37-.93.38-37.41.37 35.23.38.91.37.15.37.07.38.09.37-.82.37.55.38-.45.37-.13.38-40.3.37 38.62.37.74.38.06.37-.3.38.22.37.09.37 82.84.38.67.37-.05.38 1.04.37.33.37-.18.38.17.37.14.37.23.38-.23.37-.19.38.73.37.53.37-.6.38.17.37.29h.38l.37-.24.37-.2.38.56.37.51.38-.93.37.93.37.01.38.61.37-.42.38.18.37-.11.37.08.38-.56.37.72.37-.72.38.84.37-.84.38.34.37-.16.37-.13.38-.42.37.62.38-.2.37-.19.37-.02.38.45.37.5.38-.84.37.43.37.41.38.08.37.5.37-.96.38-92.11.37 10.83.38 3.18.37.58.37.37h.38l.37-2.48.38 1.24.37.48.37.26h.38l.37-1.08.38.15.37.02.37-1.12.38.47.37-.34.38-.89.37.28.37-37.62.38 35.52.37.6.37.35.38-.5.37-.07.38-.5.37.17.37-.93.38.2.37-36.7.38 35.06.37.43.37.13.38-.27.37-.21.38.05.37.11.37-.15.38-.21.37-52.51.37 21.24.38-1.18.37 19.13.38 2.03.37 1.44.37.35.38 2.62.37-.01.38.58.37-.15"/><use xlink:href="#a" color="#3B75EA" transform="matrix(3.75 0 0 3.75 342.45 185.41)"/><use xlink:href="#a" color="#3B75EA" transform="matrix(3.75 0 0 3.75 112.25 7.51)"/></g><text fill="#000" stroke="none" stroke-linecap="round" stroke-linejoin="round" color="#000" font-family="KaTeX_Main" font-size="8" transform="translate(132.8 25.11)"><tspan>LBSTTopDown</tspan></text><g fill="none" stroke="currentColor" stroke-linecap="round" stroke-linejoin="round" color="#000"><path stroke="#F44336" stroke-dasharray="4.5,2.0,0.5,2.0,0.5,2.0" d="M97.3 22.51h29.9M28 126.77l.37.16.38-37.21.37 36.64.38-3.67.37 1.05.37-.23.38-.19.37-.03.38 4.29.37-3.53.37.29.38-.06.37-.97.37.5.38-1.73.37 1.16.38-.32.37-.49.37.14.38-1.62.37 55.82.38-.14.37 1.46.37-.17.38.08.37-.22.38.29.37-.95.37 1.8.38-.14.37-.93.37 1.68.38-.43.37-.15.38-.05.37-.66.37 1.42.38-.74.37.23.38 1.15.37-1.02.37.49.38-.76.37-.39.38.08.37.08.37.18.38.04.37-.73.38.96.37.08.37-.89.38 1.45.37-1.42.37.77.38.35.37.11.38.42.37-.65.37.71.38-.8.37.25.38.02.37.37.37-.73.38.11.37-.92.38.38.37 1.26.37-.25.38-64.29.37 9.05.37 3.34.38 1.02.37 1.81.38-.33.37-1.77.37-37.02.38 36.22.37 1.24.38-2.63.37.35.37.61.38 1.01.37-2.25.38 3.03.37-2.68.37-37.23.38 35.49.37 1.57.38-1.55.37-.01.37-.59.38.6.37.28.37.46.38-.2.37-36.17.38 34.05.37.85.37-3.49.38 2.97.37-.8.38-.12.37 1.16.37-.74.38-1.63.37 1.51.38.07.37-2.75.37 3.08.38-1.68.37-.17.37 1.65.38-1.9.37 2.16.38-1.26.37-2.4.37 1.6.38-1.34.37 56.98.38-.73.37 2.25.37-.82.38.58.37-.08.38-1.01.37 1.89.37.56.38-.9.37.59.38-1.41.37 1.91.37.05.38-.86.37.65.37-1.18.38.51.37-.09.38-.54.37-.27.37.7.38.05.37.23.38-1.12.37.15.37 1.05.38-.67.37.42.38.9.37-.89.37-.76.38.68.37.71.37-1.4.38.97.37-.03.38.58.37-.53.37-.78.38-.01.37 1.05.38 1.13.37-1.53.37.18.38.96.37-1.52.38.82.37-.4.37.87.38-66.97.37 11.1.38 4.29.37-36.59.37 34.27.38 2.47.37-2.13.37 2.52.38 1.26.37-.31.38-2.08.37.42.37-2.26.38-37.65.37 35.43.38.68.37 2.51.37 1.67.38-.38.37-2.16.38-2.84.37 1.77.37-.71.38 1.67.37-2.74.37 2.58.38-1.72.37-.46.38-.42.37 1.14.37-.92.38 1.6.37-1.75.38-.99.37-1 .37 1.28.38-3.38.37 1.61.38-.7.37.03.37-1.93.38 1.69.37.74.38-2.16.37 3.92.37-2.65.38 1.29.37-.39.37 1.74.38-1.99.37 55.38.38 1.74.37-.04.37.72.38.5.37-1.43.38 1.74h.37l.37.68.38-1.17.37.72.38-1.5.37.57.37.25.38.56.37-.85.37.55.38.43.37-.96.38-.29.37.17.37 1.79.38-1.01.37.39.38-.32.37-.28.37-.28.38.71.37 1.21.38-.81.37-1.49.37.82.38-.44.37-.01.38.84.37-.01.37-1.21.38 1.23.37-.97.37 1.06.38.64.37-1.89.38 1.56.37-.81.37 1.59.38-.32.37-.97.38-.39.37-.11.37.79.38-106.34.37 50.4.38 3.01.37 1.45.37.36.38.76.37-.09.37-.76.38-.44.37-.78.38-39.78.37 38.15.37-.28.38-2.01.37 3.28.38-.51.37 1.66.37-.34.38-3.33.37 2.62.38-1.68.37.52.37.19.38-.94.37-.48.38.16.37.56.37-2.58.38 1.04.37 1.7.37-1.29.38-2.77.37 2.06.38-1.43.37 1.93.37-.4.38-37.94.37 36.21.38 2.85.37-3.87.37-.8.38 1.36.37 1.15.38-1.69.37.28.37.62.38-35.85.37 32.76.37-.28.38 2.14.37 56.57.38-.61.37.89.37.42.38.56.37-.46.38.2.37 1.19.37-.84.38.09.37.69.38-1.76.37.61.37.05.38.13.37.87.38-.25.37 1.39.37-.62.38-.98.37.69.37-.46.38.16.37 1.19.38-1.05.37.27.37.12.38-1.11.37 1.9.38-1.31.37.89.37-.98.38-.05.37 1.22.38-.52.37-1.08.37 1.82.38-.8.37.04.37.89.38-.8.37.24.38-.41.37 1.23.37-.29.38-.3.37-.83.38.44.37-.57.37.01.38-67.15.37 13.73.38-.4.37 2.12.37 1.09.38-2.18.37-35.42.38 36.18.37 1.75.37-1.9.38 1.37.37-1.08.37 1.63.38.04.37-2.4.38-2.75.37 3.28.37-.42.38-.02.37-1.05.38-.03.37-.07.37-1.02.38.83.37.84.38-1.94.37-2.76.37.6.38 2.81.37-3.44.37 1.87.38 3.33.37-39.16.38 31.89.37.47.37 2.25.38-.3.37-.75.38-.73.37 2.98.37-1.14.38.54.37-42.92.38 39.29.37.55.37 1.97.38-2.2.37-1.23.38 1.7.37-.9.37 57.92.38.32.37-.05.37 1.81.38.38.37-.98.38.25.37.18.37-.97.38.97.37.51.38-.48.37-1.16.37.43.38 1.59.37-.05.38-.5.37.54.37-1.49.38 1.99.37-1.02.37.72.38-.94.37.17.38.21.37-.26.37.19.38.04.37.8.38.38.37-1.02.37.57.38-.86.37 1.17.38-1.36.37.1.37.42.38-1.1.37 1.4.38-.04.37-.23.37-.13.38-.18.37.28.37-.22.38-.15.37-.67.38 1.12.37.04.37.04.38-65.73.37 10.71.38-35.45.37 37.18.37-1.23.38 3.41.37-1.6.38.68.37-.85.37 1.14.38 1.75.37-1.62.37-.64.38 1.12.37-1.11.38-3.08.37.4.37-2.27.38 2.05.37-.79.38.82.37-.23.37-.62.38.57.37 1.15.38-.95.37-3.1.37 3.06.38-37.5.37 36.51.37 1.73.38 1.1.37-2.74.38-.82.37 1.99.37-1.53.38-3.83.37 4.81.38-43.19.37 37.18.37 1.51.38 2.06.37-1.59.38.74.37.89.37-1.16.38 1.24.37-1.92.38-.83.37-.2.37 57.89.38.39.37.74.37-.07.38-.03.37-.79.38 1.72.37.79.37-.71.38.18.37-1.26.38 1.98.37-.41.37-.61.38 1.15.37-1.3.38.03.37 1.03.37.29.38-1.07.37.66.37.17.38.03.37-.75.38.16.37-.34.37-.03.38-2.13.37 2.07.38-.73.37.41.37-16.32.38 4.84.37-2.97.38 8.8.37-.49.37-1.97.38 2.5.37.13.38-3.08.37 4.35.37-12.35.38-1.83.37-1.58.37 2.65.38 1.57.37-1.29.38 11.28.37.85.37-2.44.38-61.5.37 11.72.38 3.23.37 3.12.37.91.38-.8.37-.53.38 1.45.37-1.3.37-.08.38.62.37-.52.37-.4.38-.57.37 2.14.38-2.74.37-.3.37-4.24.38 5.85.37-.58.38-.99.37-1.66.37-1.33.38-.56.37-36.92.38 37.15.37.41.37 3.47.38-3.29.37-.22.38-.08.37 1.44.37-3.46.38 1.56.37-37.24.37 34.17.38 2.25.37-1.64.38-.64.37 3.26.37-4.9.38 2.47.37 1.56.38-2.25.37-3.08.37 3.49.38.35.37.47.38.56.37-.17.37 56.32.38.73.37.29.37-.22.38-.51.37.7.38.41.37.85.37-.22.38-1.02.37.61.38-.63.37.62.37 1 .38.11.37-.29.38-.07.37-.42.37-.01.38.15.37-.16.38.55.37.16.37-.03.38-.41.37.74.37-1.12.38.39.37.06.38.81.37-.95.37-.59.38 1.66.37-1.33.38.66.37.5.37-.01.38.06.37-.49.38-1.51.37.94.37.2.38-.27.37.43.37.6.38-1.9.37.99.38.1.37.47.37.48.38-68.76.37 10.61.38 1.98.37 2.15.37 3.02.38-.1.37-.64.38-.94.37.45.37-2.18.38 2.36.37-40.51.38 36.58.37 2.12.37-1.39.38.36.37 1.49.37-1.1.38-1.44.37.57.38.23.37-35.97.37 34.79.38-1.12.37 3.41.38-.93.37-2.8.37.77.38 2.28.37-1.97.38.95.37-54.03.37 39.93.38-5.08.37 5.75.37-.63.38-1.45.37 8.38.38 3.69.37-.16.37.47.38-.74.37.54.38-.39.37-1.8.37 1.18.38.97.37.62.38-3.65.37.83.37 56.91.38.72.37.79.38-1.78.37 1.11.37-.85.38.55.37.83.37-1.45.38 1.29.37.32.38 1.12.37-.76.37-.13.38-6.4.37-2.73.38 2.76.37-.45.37.07.38-.34.37 6.94.38-.49.37.11.37.36.38-1.12.37.55.37.2.38-.21.37-.02.38.26.37.84.37-.89.38.48.37-.04.38-.95.37-.36.37 1.34.38-.33.37.29.38-.26.37.74.37.03.38-.1.37.41.38.1.37-1.69.37 1.25.38-.7.37.31.37-.22.38-70.25.37 14.54.38 1.96.37 2.59.37-.56.38 3.61.37-3.87.38-39.55.37 41.5.37-1.75.38.85.37-2.81.38-.95.37 2.1.37 3.04.38-2.28.37-.64.37-35.54.38 35.2.37 1.56.38-.38.37-.57.37-.18.38-3.81.37 5.01.38-3.04.37.03.37-39.53.38 40.03.37-.64.38-1.85.37 1.68.37.44.38-.79.37-1.16.38.43.37.62.37-1.5.38-2.42.37 4.38.37-2.88.38.87.37.51.38-4.51.37 2.33.37.6.38 1.25.37-1.73h.38l.37 1.64.37 54.18.38.96.37-.59.38.36.37 1.33.37-.61.38-.09.37.58.37.29.38-.12.37-.6.38.55.37-.44.37.99.38-.41.37.37.38.34.37.26.37-.29.38.15.37-.7.38-.36.37.59.37-.18.38.66.37-.16.38-.67.37-.36.37 1.27.38-.83.37.41.37-.33.38-.74.37.59.38.49.37-.71.37.11.38-.43.37.34.38.79.37-.36.37-.51.38-.43.37 1.26.38.77.37-.87.37.25.38-.69.37.33.37-.02.38-69.22.37 15.41.38 1.79.37-37.33.37 36.47.38 3.35.37-3.65.38 3.4.37-1.83.37-.73.38-.43.37 3.68.38-3.09.37-40.24.37 41.62.38-1.74.37.41.38.67.37-.26.37 1.01.38-2.67.37 1.44.37-.9.38.09.37-.42.38-2.56.37.77.37 2.11.38-1.56.37.52.38 1.52.37-4.4.37 3.43.38-3.31.37 3.08.38.11.37-2.18.37-1.61.38-.91.37 1.79.37-.27.38-1.18.37-.3.38-.18.37.18.37-1.36.38 1.95.37-1.07.38-1.19.37-43.51"/><use xlink:href="#g" color="#F44336" transform="matrix(3.75 0 0 3.75 56.04 130.78)"/><use xlink:href="#g" color="#F44336" transform="matrix(3.75 0 0 3.75 112.25 22.51)"/></g><text fill="#000" stroke="none" stroke-linecap="round" stroke-linejoin="round" color="#000" font-family="KaTeX_Main" font-size="8" transform="translate(241.1 10.11)"><tspan>WBSTBottomUp</tspan></text><g fill="none" stroke="currentColor" stroke-linecap="round" stroke-linejoin="round" color="#000"><path stroke="#000" d="M205.6 7.51h29.9M28 105.64l.37-.28.38-.65.37-.3.38-.16.37-.35.37-38.76.38 36.92.37.21.38-.05.37-.11.37-.68.38.22.37-.22.37.06.38-.38.37-.59.38.19.37-1.64.37 1.09.38-.6.37 87.13.38-.68.37-.06.37.51.38-.14.37-1.23.38.03.37-.1.37.6.38.34.37-.39.37.53.38-.05.37-.03.38-.1.37.28.37-.86.38.68.37-.28.38-1.62.37.34.37 1.13.38-.8.37.02.38.8.37-.24.37-.22.38-.08.37.4.38-.16.37.25.37-.04.38.08.37-.45.37.79.38-.05.37.46.38-.75.37.28.37-.07.38-.81.37.63.38.24.37-.02.37.31.38-.02.37-.05.38.5.37.04.37-.32.38-88.47.37 9.21.37 2.24.38.26.37.67.38.3.37-.48.37-.47.38-.16.37-.29.38.09.37-37.43.37 35.16.38.49.37.29.38-.24.37-.05.37-1.05.38-.05.37-.08.38-.56.37-37.51.37 35.52.38.42.37-.19.37.7.38-.6.37.21.38-.12.37-.48.37-.73.38-36.48.37 34.28.38.72.37-.25.37.5.38-.24.37-.04.38-.12.37-.42.37-1.01.38.73.37-.65.37-.09.38-.28.37-.29.38-.92.37.19.37-.99.38.24.37 86.23.38.03.37-.34.37-.03.38.89.37.44.38.11.37.05.37 1.05.38-.26.37-1.77.38.21.37.53.37.36.38-.83.37.74.37-.28.38-.39.37.08.38.69.37-.68.37-.28.38.2.37-.25.38.7.37-.05.37.19.38-.59.37-.27.38-.08.37.39.37.27.38.33.37-.56.37.56.38.39.37.07.38-.46.37.1.37.63.38-.32.37.14.38.02.37-.09.37.71.38-.45.37.27.38-.36.37.23.37.1.38-90.14.37 10.26.38 2.08.37 1.05.37.42.38-.03.37-.88.37-36.15.38 33.87.37.72.38.15.37-.19.37.32.38-.35.37-.22.38-.62.37-.56.37-36.04.38 33.58.37 1.09.38.04.37-.08.37-.57.38.36.37-.65.37-.1.38-1.59.37-35.42.38 34.75.37.42.37-.06.38.18.37-.17.38-.07.37-2.82.37.7.38 1.13.37.01.38-.47.37-.13.37-.24.38-.24.37-.22.38-.27.37-.46.37-.57.38.45.37-.26.37-.81.38.38.37 85.49.38.67.37-.81.37.49.38-.24.37-.39.38.99.37.49.37-1.01.38 1.05.37-.71.38.52.37.02.37.53.38-.33.37.36.37-.42.38-.37.37-.41.38.73.37.06.37-.6.38.81.37-1.1.38-.43.37.17.37.77.38-.38.37.73.38.07.37.45.37-.02.38.21.37.63.38-.34.37.88.37-.36.38-1.09.37 1.66.37-.28.38-.02.37-.28.38-.38.37-.01.37.48.38-.13.37.1.38-.14.37-.11.37.51.38-91.45.37 10.41.38 2.38.37.6.37-36.29.38 36.4.37-.4.37.26.38.08.37-.41.38-.3.37-.12.37-.33.38-.57.37-37.27.38 36.2.37.5.37-.24.38-.56.37-.15.38-.54.37.14.37-.07.38-.72.37.01.38.04.37-.55.37-.43.38-.25.37-.26.37-.23.38-.22.37-.41.38.3.37-.28.37.14.38-.88.37-.23h.38l.37-.72.37.14.38-.54.37.02.38-.93.37.31.37-.79.38-.16.37-.11.37.13.38-.32.37 86.91.38-.55.37.69.37.23.38-.42.37-.37.38.03.37-.07.37.38.38.73.37-.3.38-.17.37-.01.37.17.38.71.37-1.19.38.19.37.38.37.47.38.51.37-1.15.37-.56.38.21.37.26.38.76.37-.76.37-.18.38.26.37.25.38.38.37-.11.37-1.4.38.73.37.5.38.44.37.15.37-.4.38-.09.37.23.37.82.38-1.23.37 1.19.38-.4.37.15.37.82.38-.26h.37l.38.11.37-.44.37.01.38-127.87.37 46.56.38 2.34.37 1.25.37.58.38-.55.37-.6.38.23.37-.45.37-.08.38-37.08.37 35.35.37.02.38.08.37-.06.38-.26.37-.32.37-.06.38-.92.37.07.38-.37.37.07.37.05.38.04.37.04.38-.82.37-.26.37-.53.38.11.37-.22.37-1.36.38.36.37.16.38.08.37-.46.37-.27.38-36.25.37 34.47.38.84.37-.21.37-.55.38-.26.37-.44.38.32.37-.39.37-.47.38-35.95.37 34.7.38.03.37-.03.37 86.3.38.1.37-.16.37 1.34.38-.2.37-.08.38.59.37-.38.37-.01.38-1.1.37.32.38.56.37.19.37.19.38-.09.37-1.12.38.02.37.23.37.53.38.04.37-.64.37 1.12.38.18.37-.66.38.55.37.03.37-.22.38.49.37-.21.38.45.37-.84.37.72.38.49.37-.02.38-.58.37.23.37-.24.38.96.37-.03.38-.31.37.38.37-.32.38.38.37.13.37.25.38-.52.37.18.38-.21.37-.59.37.77.38-92.12.37 10.74.38 3.04.37 1.05.37.25.38-.39.37-36.56.38 35.01.37.74.37-.28.38.14.37-.79.37-.2.38-.61.37-.02.38-.04.37-.19.37-.2.38-.62.37-.2.38.16.37-.53.37-.29.38-.67.37.11.38-.37.37-1.65.37.52.38.39.37-.58.37-.16.38-.14.37-37.4.38 35.35.37-.3.37 1.23.38-.13.37-.2.38-.41.37-.96.37-.12.38.04.37-37.66.38 35.87.37.53.37-.1.38 1 .37-.65.38-.21.37.16.37 85.89.38.14.37.75.37-.89.38-.23.37.65.38-.41.37.16.37-.26.38.21.37-.27.38-.18.37.64.37.05.38.52.37.07.38.06.37-.46.37.24.38-.16.37.6.37-.83.38.49.37.7.38-.16.37.25.37-.41.38-.16.37.11.38 1.02.37-1.02.37.02.38.92.37.26.38.02.37-.13.37-.83.38.52.37.13.38.31.37.02.37.86.38-.02.37-.3.37.32.38-.12.37.07.38-.47.37.03.37.2.38-93.39.37 10.9.38-34.67.37 36.78.37.79.38.72.37-.42.38-.26.37-.35.37.23.38-.42.37-.64.37.01.38-.19.37-.21.38-.14.37-.17.37-.45.38-.3.37-.44.38.03.37.23.37-.81.38.17.37-.59.38-.44.37.34.37-3 .38-35.26.37 35.16.38.5.37.77.37-.09.38-.12.37.01.37-.06.38-.42.37-.36.38-35.92.37 33.94.37.2.38.48.37-.21.38-.39.37.47.37-.84.38.07.37.17.38-.23.37-.76.37 86.04.38 1.22.37-.55.37-.42.38.56.37.26.38-.37.37.8.37-.45.38.41.37-.24.38-.28.37.48.37.33.38.29.37.3.38-.69.37.65.37.62.38-.46.37.27.38-.8.37.7.37-.81.38-.1.37-.01.37.21.38-.09.37.39.38.21.37-.66.37.56.38.04.37-.5.38-.27.37.35.37-.46.38.88.37.01.38.74.37-.07.37-.6.38.67.37-.37.37.24.38.45.37-.26.38-.8.37.08.37.33.38-92.85.37 11.14.38 2.96.37 1.13.37-.19.38.6.37-.67.38-.04.37-.84.37-.91.38.56.37-.13.38.07.37-.9.37.03.38-.03.37-1.19.37 1 .38-.96.37-.07.38-.1.37-.17.37-.84h.38l.37-36.51.38 33.32.37 1.93.37-.65.38.29.37.06.38-.41.37-.12.37-.48.38-.27.37-37.11.37 34.1.38 1.1.37.34.38.13.37-.39.37.3.38-.28.37-.33.38-.61.37.09.37-.34.38-.27.37.74.38-.83.37-.18.37 86.48.38-.09.37.13.38.09.37-.58.37-.02.38-.26.37.9.37.06.38-.26.37.35.38.28.37-.21.37.19.38-.18.37.44.38.16.37-.81.37.79.38-.25.37.67.38-.08.37-.05.37-.36.38.11.37.7.37-.56.38.82.37.36.38-.09.37-.67.37.71.38.38.37-.12.38-.01.37-.71.37-.07.38.29.37-.68.38.85.37.1.37.07.38-.35.37.33.38.33.37-.81.37.14.38-.11.37.04.37-.28.38-92.08.37 10.26.38 3.05.37.98.37.43.38.09.37.07.38-.2.37-2.26.37 1.4.38.37.37-39.08.38 36.18.37 1.08.37-.17.38.4.37-1.06.37-.49.38.07.37.18.38.03.37-41.66.37 39.2.38.99.37-.61.38.12.37-.09.37-.25.38-.15.37-.48.38-.03.37-39.09.37 36.62.38 1.26.37-.11.38-.09.37-.06.37-.67.38.14.37.03.37.29.38-.92.37-.39.38.06.37-.59.37.15.38-.01.37-.15.38-.1.37-.63.37 85.1.38 1.09.37.05.38-.04.37.29.37.01.38.11.37.06.37.12.38.6.37-.8.38.07.37.18.37 1.03.38-.68.37.41.38-.37.37.42.37-.19.38-.03.37.2.38-.41.37.42.37-.22.38.59.37-.53.38.61.37.36.37-.57.38.31.37.12.37-.91.38.39.37-.13.38.23.37.63.37-.51.38-.2.37-.29.38.53.37.56.37.37.38-.79.37-.69.38.97.37.19.37-.29.38.92.37.19.37-.16.38-93.91.37 11.08.38 2.77.37.35.37.85.38.2.37-.18.38-38.27.37 36.15.37.36.38.4.37-.21.38-.25.37.04.37-.39.38-.37.37-.32.38-37.91.37 36.27.37.88.38.02.37-.04.37-.97.38.08.37.15.38-.03.37-.46.37-39.24.38 37.04.37.73.38-.46.37-.66.37.52.38-.3.37-.22.38-.19.37.23.37-1.12.38.43.37.04.37-.45.38-.46.37-.54.38.23.37-.04.37-.34.38.03.37-.66.38.03.37-.63"/><use xlink:href="#b" transform="matrix(3.75 0 0 3.75 113.62 183.42)"/><use xlink:href="#b" transform="matrix(3.75 0 0 3.75 220.55 7.51)"/></g><text fill="#000" stroke="none" stroke-linecap="round" stroke-linejoin="round" color="#000" font-family="KaTeX_Main" font-size="8" transform="translate(241.1 25.11)"><tspan>WBSTTopDown</tspan></text><g fill="none" stroke="currentColor" stroke-linecap="round" stroke-linejoin="round" color="#000"><path stroke="#29C3F6" stroke-dasharray="4.0,2.0,1.0,2.0" d="M205.6 22.51h29.9M28 124.77l.37-.97.38 3.02.37-3.6.38.35.37-.03.37 2.47.38-2.75.37.2.38.62.37-1.01.37.21.38 1.45.37-.51.37-1.65.38.02.37-38.73.38 35.53.37 2.13.37 1.95.38-1.42.37 55.11.38 1.57.37.56.37-.16.38-.49.37-1.14.38.27.37 1.4.37.12.38.39.37-.03.37-.55.38.21.37-.06.38 1.18.37-1.18.37-1.46.38 1.42.37 1.12.38-2.25.37.28.37.53.38-2.07.37 1.36.38-.3.37-1.01.37 1.77.38-.41.37 1.62.38-.96.37.2.37.61.38.3.37-2.56.37 1.89.38-.8.37-.17.38-.17.37 1.05.37-.56.38-.38.37 1.4.38-.11.37-1.06.37.49.38.32.37.02.38-.55.37 1.4.37-.85.38-64.27.37 8.69.37 4.45.38.9.37.6.38-38.06.37 34.44.37-.07.38 3.1.37 1.42.38-3.22.37 3.42.37-1.68.38-1.29.37-.75.38-38 .37 37.37.37-1.49.38-.09.37.73.38-1.47.37 1.01.37-1.42.38.16.37.11.37-1.62.38 3.46.37-2.16.38 2.04.37-.55.37-3.45.38 1.45.37-1.68.38.42.37-1.8.37 1.66.38 1.37.37-1.82.38-.48.37 2.57.37-1.72.38-38.68.37 36.15.37 4.04.38-2.66.37-1.24.38 2.62.37-2.81.37.81.38.09.37 57.36.38 1.09.37-.2.37.16.38-.13.37-.03.38.15.37.7.37-.35.38.25.37-1.05.38 1 .37-.14.37-.66.38 1.58.37-1.31.37.04.38.02.37-.33.38.51.37-1.09.37 1.22.38-.89.37 1.29.38-.39.37-.56.37.25.38-.1.37-.26.38.11.37.67.37-.36.38.5.37-.59.37-.17.38.72.37-.93.38 1.09.37-.52.37-.2.38.12.37-.64.38.6.37-.43.37.43.38.53.37-.34.38.47.37-.66.37.17.38-65.1.37-21.89.38 33.81.37 1.36.37 1.38.38-.66.37 2.11.37-.44.38-2.25.37-1.88.38 3.03.37-3.49.37 4.18.38-2.24.37-.35.38-1.94.37 1.26.37 1.32.38-2.21.37 1.49.38.59.37-3.23.37.71.38-.3.37-2.75.37 3.65.38-2.68.37-.07.38 2.25.37-3.07.37.22.38-.57.37-.55.38.64.37 1.06.37 1.33.38-.55.37-38.37.38 32.01.37 4.24.37-.39.38-3.64.37 5.32.38-3.81.37-.02.37 2.57.38-2.18.37-35.72.37 33.89.38.77.37 58.74.38-.3.37 1.51.37-1 .38 1.06.37-.02.38-.63.37 1.33.37-1.22.38.46.37.27.38-.3.37-.99.37.22.38.02.37 1.56.37-2.12.38 1.2.37.38.38-.75.37.45.37-.36.38 1.15.37-1.75.38-.86.37.14.37 1.33.38.34.37.16.38-.18.37.53.37-.16.38.51.37.15.38.13.37-1.88.37 2 .38-.2.37 1.14.37-2.39.38.79.37.89.38-.18.37-.01.37-.18.38-.05.37-.25.38-.16.37.46.37-.11.38-67.51.37 13.69.38 1.9.37 1.44.37-.28.38 2.38.37-2.96.37 1.72.38-1.74.37-.75.38.19.37 2.32.37-4.96.38-.38.37 3.35.38-1.5.37-1.8.37 3.16.38-.75.37-2.01.38.34.37-2.09.37 2.98.38-2.32.37-36.44.38 38.01.37-.5.37-1.98.38-.11.37-2.02.37 1.99.38 4.34.37-7.37.38 4.19.37-37.96.37 36.33.38.47.37-1.27.38.01.37-.19.37.33.38-.5.37.59.38-2.17.37-34.57.37 36.02.38-1.46.37.3.37-1.45.38 1.85.37 56.84.38 1.41.37.64.37.46.38-.55.37-1.27.38.1.37.61.37-.01.38-.4.37.01.38.78.37-.43.37.78.38-.52.37-.18.38.69.37-.8.37.34.38 1.16.37-2.1.37-.5.38.09.37.43.38-.33.37 1.78.37-2.25.38.91.37-.88.38.87.37.05.37-.31.38.32.37.13.38-.01.37.71.37-.8.38 1.13.37-2.34.37 1.86.38-1.47.37 1.36.38-.4.37.43.37.43.38-.49.37.43.38-.28.37.48.37.44.38-68.86.37 14.18.38 2.48.37-.64.37.79.38 1.34.37-.27.38 1.42.37-1.09.37-2.29.38 1 .37-2.82.37 3.75.38-1.97.37.97.38.52.37-1.42.37-2.39.38 1.04.37 1.35.38-36.62.37 34.2.37-.63.38 2.5.37-.67.38-1.25.37-1.68.37 3.46.38-2.11.37.6.37-37.66.38 34.96.37-.94.38 1.92.37.22.37-4.08.38 1.28.37 2.71.38-.42.37.26.37-40.18.38 39.12.37-3.25.38.72.37-1.35.37 2.47.38.47.37-.92.38.79.37-1.54.37 56.99.38 1.54.37-.82.37.04.38 1.66.37-1 .38.24.37-.61.37 1.56.38-1.99.37-.04.38.88.37-.06.37.28.38.73.37-1.29.38.05.37.38.37-.34.38 1.43.37-2.18.37.7.38.87.37.45.38-1.43.37-.22.37 1.4.38.18.37-.5.38.14.37-.55.37.47.38.03.37-.69.38 1.13.37-.05.37-.49.38.54.37.12.38-.28.37.65.37-.08.38-.33.37.59.37.1.38.41.37-2.24.38.89.37.22.37.96.38-68.35.37 15.5.38.71.37.98.37.68h.38l.37-.42.38-1.01.37-.95.37-2.09.38.43.37 1.11.37 3 .38-2.8.37.92.38.16.37-40.83.37 39.87.38-3.94.37 2.65.38 1.36.37-.07.37-1.93.38 1.1.37-2.97.38.73.37-40.38.37 38.97.38.51.37.99.37-1.95.38 1.35.37.02.38 1.06.37-1.56.37 1.96.38-2.66.37 1.21.38-2.98.37 2.03.37 1.46.38-4.27.37-1.12.38 3.04.37-1.22.37-1.32.38.24.37 2.48.38-.66.37.57.37 56.52.38.91.37-2.1.37.44.38.41.37.35.38-.95.37.6.37-.88.38.4.37-.62.38.72.37-.13.37-.02.38.98.37-.07.38 1.16.37-1.34.37.06.38-1.01.37-.2.37.29.38 1.57.37-.08.38-.7.37.37.37.2.38.43.37-1.1.38 1.05.37.27.37-.21.38-.63.37-.13.38.17.37 1.75.37-1.37.38-.21.37.94.38-.12.37-.78.37 1.47.38.14.37-.56.37-.35.38.26.37-.06.38.36.37-.87.37.5.38-67.78.37 13.61.38 4.25.37.69.37-.56.38.37.37-1.33.38-.44.37 1.33.37-3.63.38 1.75.37.18.37-39.65.38 36.22.37.11.38.31.37-.15.37 1.74.38-1.63.37.19.38-1.68.37 1.05.37-46.87.38 35.09.37-.85.38 5.12.37 4.22.37.81.38-2.51.37 1.05.38.14.37 1.9.37-.86.38-.32.37-1.87.37 3.08.38-.31.37.04.38-1.94.37.31.37-1.14.38 2.49.37-1.53.38.55.37-.36.37-.25.38.25.37-2.4.38-39.68.37 30.38.37 60.39.38 2.5.37-2.82.37 9.16.38.26.37.79.38-1.49.37.55.37-.39.38.17.37.31.38-.71.37 1.78.37-2.36.38 1.53.37.51.38-1.38.37.51.37 1.19.38-.52.37.82.38-.83.37.29.37-1.3.38.78.37-.67.37-.06.38.71.37.49.38-.11.37.2.37.02.38.16.37 1.19.38-.94.37.06.37-.01.38-.1.37.46.38-.27.37.17.37-.14.38-.41.37.93.37.73.38-.59.37-.22.38-.69.37.19.37.43.38-69.85.37 13.7.38 2.25.37-.15.37 4.17.38-2.33.37.11.38 3.22.37-41.6.37 33.63.38 6.46.37-3.39.38-.35.37-2.2.37 2.04.38 1.53.37.18.37-.74.38-39.93.37 30.13.38-.22.37 4.85.37-21.18.38 16.68.37-3.39.38 3.14.37-.2.37.85.38-1.11.37 2.31.38-.94.37 1.71.37-1.67.38.14.37 2.09.37-3.46.38.49.37.96.38.17.37.02.37-.81.38-3.51.37 2.72.38.17.37-37.05.37 30.44.38 2.97.37 2.8.38-6.03.37-9.6.37 68.45.38.22.37-1.83.38 1.92.37.06.37-1.83.38 1.28.37-.5.37 2.31.38.85.37.66.38-1.04.37-.5.37.94.38.09.37-.13.38 1.06.37-.27.37.21.38.97.37-16.45.38 9.56.37-.17.37-.37.38.15.37 3.45.37 1.58.38.74.37-.46.38.27.37-.31.37 1.57.38.09.37.31.38-.33.37.58.37-.18.38-.44.37-.62.38.07.37.54.37.23.38-.17.37-.74.38.96.37-.67.37-.99.38 1.48.37-.01.37-.38.38-74 .37 13.72.38 4.59.37-.12.37-34.07.38 31.56.37 6.19.38-.27.37-.5.37-.56h.38l.37-.49.38 2.56.37-1.43.37-37.8.38 36.26.37.45.37-1.38.38 1.68.37-.38.38.27.37-1.86.37.54.38-1 .37.93.38-.93.37 2.76.37-2.35.38-.47.37-1.09.38 1.14.37-.42.37 1.02.38-2.44.37-.71.38-.22.37.74.37-3.29.38 4.45.37-.35.37-2.02.38-38.73.37 41.85.38-4.07.37 4.47.37-.29.38-2.56.37-.11.38 2.47.37-3.6.37 55.56.38.76.37.33.38-.17.37.39.37 1.63.38 1.09.37 1.84.37-.57.38-.58.37 6.15.38-1.07.37.71.37-2.46.38 1.09.37 2.67.38-1.4.37-.04.37-.52.38 1.21.37-.66.38-.64.37 1.16.37-.88.38 1.74.37-.94.38.89.37-.3.37-.85.38.84.37.42.37-1.34.38.5.37-.05.38.45.37.09.37-.03.38-1.23.37.02.38.94.37-.34.37.61.38.15.37-.07.38.76.37-.09.37-.11.38.29.37-.84.37.87.38-71.19.37-32.83.38 43.97.37 3.85.37 3.13.38-1.33.37-.13.38 2.02.37.22.37-1.87.38 1.43.37-3.16.38-2.49.37 2.6.37 1.78.38-.51.37 1.37.38-1.98.37 1.96.37-2.02.38 1.5.37-2.24.37 3.67.38-4.69.37.09.38.39.37-1.67.37 1.6.38-1.29.37 4.17.38-2.96.37-3.67.37 3.56.38-3.44.37.47.38-.03.37-1.46.37-45.78.38 33.87.37 3.1.37 4.3.38 2.95.37 1.32.38 1.51.37-.73.37.71.38-2.71.37-42.49.38 41.31.37 1.12"/><use xlink:href="#h" color="#29C3F6" transform="matrix(3.75 0 0 3.75 171.2 127.57)"/><use xlink:href="#h" color="#29C3F6" transform="matrix(3.75 0 0 3.75 220.55 22.51)"/></g><path fill="none" stroke="none" stroke-linecap="round" stroke-linejoin="round" stroke-width="0" d="M28 45.01V205M371.99 45.01H28" color="#000"/></svg>