<svg xmlns="http://www.w3.org/2000/svg" xmlns:xlink="http://www.w3.org/1999/xlink" viewBox="0 0 400 250"><path fill="none" d="M0 0h400v250H0z"/><defs><path id="g" stroke="currentColor" stroke-width=".267" d="M-1 0h2M0-1v2"/><path id="h" stroke="currentColor" stroke-width=".267" d="m-1-1 2 2m0-2-2 2"/><path id="d" stroke="currentColor" stroke-width=".267" d="M-1-1h2v2h-2z"/><path id="i" fill="currentColor" stroke="currentColor" stroke-width=".267" d="M-1-1h2v2h-2z"/><path id="b" stroke="currentColor" stroke-width=".267" d="m0-1.33-1.33 2h2.66z"/><path id="f" stroke="currentColor" stroke-width=".267" d="M0 1.33 1.265.411.782-1.067l-1.564-.009-.483 1.487z"/><use xlink:href="#b" id="c" stroke="currentColor" transform="rotate(180)"/><use xlink:href="#d" id="e" stroke="currentColor" transform="rotate(45)"/><circle id="a" cx="0" cy="0" r="1" stroke="currentColor" stroke-width=".267"/></defs><path fill="none" stroke="#333" stroke-dasharray="0.2,0.4" stroke-linecap="round" stroke-linejoin="round" stroke-width=".2" d="M35.48 205V75.01" class="gridline" color="#000"/><g fill="none" stroke="none" stroke-linecap="round" stroke-linejoin="round" stroke-width="0" color="#000"><path d="M35.48 205v-7.5m0-122.49v7.5"/><text fill="#000" font-family="KaTeX_Main" font-size="10" text-anchor="middle" transform="translate(35.48 215.75)"><tspan> 1</tspan></text></g><path fill="none" stroke="#333" stroke-dasharray="0.2,0.4" stroke-linecap="round" stroke-linejoin="round" stroke-width=".2" d="M72.87 205V75.01" class="gridline" color="#000"/><g fill="none" stroke="none" stroke-linecap="round" stroke-linejoin="round" stroke-width="0" color="#000"><path d="M72.87 205v-7.5m0-122.49v7.5"/><text fill="#000" font-family="KaTeX_Main" font-size="10" text-anchor="middle" transform="translate(72.87 215.75)"><tspan> 2</tspan></text></g><path fill="none" stroke="#333" stroke-dasharray="0.2,0.4" stroke-linecap="round" stroke-linejoin="round" stroke-width=".2" d="M110.26 205V75.01" class="gridline" color="#000"/><g fill="none" stroke="none" stroke-linecap="round" stroke-linejoin="round" stroke-width="0" color="#000"><path d="M110.26 205v-7.5m0-122.49v7.5"/><text fill="#000" font-family="KaTeX_Main" font-size="10" text-anchor="middle" transform="translate(110.26 215.75)"><tspan> 3</tspan></text></g><path fill="none" stroke="#333" stroke-dasharray="0.2,0.4" stroke-linecap="round" stroke-linejoin="round" stroke-width=".2" d="M147.65 205V75.01" class="gridline" color="#000"/><g fill="none" stroke="none" stroke-linecap="round" stroke-linejoin="round" stroke-width="0" color="#000"><path d="M147.65 205v-7.5m0-122.49v7.5"/><text fill="#000" font-family="KaTeX_Main" font-size="10" text-anchor="middle" transform="translate(147.65 215.75)"><tspan> 4</tspan></text></g><path fill="none" stroke="#333" stroke-dasharray="0.2,0.4" stroke-linecap="round" stroke-linejoin="round" stroke-width=".2" d="M185.04 205V75.01" class="gridline" color="#000"/><g fill="none" stroke="none" stroke-linecap="round" stroke-linejoin="round" stroke-width="0" color="#000"><path d="M185.04 205v-7.5m0-122.49v7.5"/><text fill="#000" font-family="KaTeX_Main" font-size="10" text-anchor="middle" transform="translate(185.04 215.75)"><tspan> 5</tspan></text></g><path fill="none" stroke="#333" stroke-dasharray="0.2,0.4" stroke-linecap="round" stroke-linejoin="round" stroke-width=".2" d="M222.43 205V75.01" class="gridline" color="#000"/><g fill="none" stroke="none" stroke-linecap="round" stroke-linejoin="round" stroke-width="0" color="#000"><path d="M222.43 205v-7.5m0-122.49v7.5"/><text fill="#000" font-family="KaTeX_Main" font-size="10" text-anchor="middle" transform="translate(222.43 215.75)"><tspan> 6</tspan></text></g><path fill="none" stroke="#333" stroke-dasharray="0.2,0.4" stroke-linecap="round" stroke-linejoin="round" stroke-width=".2" d="M259.82 205V75.01" class="gridline" color="#000"/><g fill="none" stroke="none" stroke-linecap="round" stroke-linejoin="round" stroke-width="0" color="#000"><path d="M259.82 205v-7.5m0-122.49v7.5"/><text fill="#000" font-family="KaTeX_Main" font-size="10" text-anchor="middle" transform="translate(259.82 215.75)"><tspan> 7</tspan></text></g><path fill="none" stroke="#333" stroke-dasharray="0.2,0.4" stroke-linecap="round" stroke-linejoin="round" stroke-width=".2" d="M297.21 205V75.01" class="gridline" color="#000"/><g fill="none" stroke="none" stroke-linecap="round" stroke-linejoin="round" stroke-width="0" color="#000"><path d="M297.21 205v-7.5m0-122.49v7.5"/><text fill="#000" font-family="KaTeX_Main" font-size="10" text-anchor="middle" transform="translate(297.21 215.75)"><tspan> 8</tspan></text></g><path fill="none" stroke="#333" stroke-dasharray="0.2,0.4" stroke-linecap="round" stroke-linejoin="round" stroke-width=".2" d="M334.6 205V75.01" class="gridline" color="#000"/><g fill="none" stroke="none" stroke-linecap="round" stroke-linejoin="round" stroke-width="0" color="#000"><path d="M334.6 205v-7.5m0-122.49v7.5"/><text fill="#000" font-family="KaTeX_Main" font-size="10" text-anchor="middle" transform="translate(334.6 215.75)"><tspan> 9</tspan></text></g><path fill="none" stroke="#333" stroke-dasharray="0.2,0.4" stroke-linecap="round" stroke-linejoin="round" stroke-width=".2" d="M371.99 205V75.01" class="gridline" color="#000"/><g fill="none" stroke="none" stroke-linecap="round" stroke-linejoin="round" stroke-width="0" color="#000"><path d="M371.99 205v-7.5m0-122.49v7.5"/><text fill="#000" font-family="KaTeX_Main" font-size="10" text-anchor="middle" transform="translate(371.99 215.75)"><tspan> 10</tspan></text></g><g fill="none" stroke="none" stroke-linecap="round" stroke-linejoin="round" stroke-width="0" color="#000"><path d="M371.99 205h-7.5"/><text fill="#000" font-family="KaTeX_Main" font-size="10" transform="translate(378.99 208.25)"><tspan>0.20</tspan></text></g><g fill="none" stroke="none" stroke-linecap="round" stroke-linejoin="round" stroke-width="0" color="#000"><path d="M371.99 186.43h-7.5"/><text fill="#000" font-family="KaTeX_Main" font-size="10" transform="translate(378.99 189.68)"><tspan>0.25</tspan></text></g><g fill="none" stroke="none" stroke-linecap="round" stroke-linejoin="round" stroke-width="0" color="#000"><path d="M371.99 167.86h-7.5"/><text fill="#000" font-family="KaTeX_Main" font-size="10" transform="translate(378.99 171.11)"><tspan>0.30</tspan></text></g><g fill="none" stroke="none" stroke-linecap="round" stroke-linejoin="round" stroke-width="0" color="#000"><path d="M371.99 149.29h-7.5"/><text fill="#000" font-family="KaTeX_Main" font-size="10" transform="translate(378.99 152.54)"><tspan>0.35</tspan></text></g><g fill="none" stroke="none" stroke-linecap="round" stroke-linejoin="round" stroke-width="0" color="#000"><path d="M371.99 130.72h-7.5"/><text fill="#000" font-family="KaTeX_Main" font-size="10" transform="translate(378.99 133.97)"><tspan>0.40</tspan></text></g><g fill="none" stroke="none" stroke-linecap="round" stroke-linejoin="round" stroke-width="0" color="#000"><path d="M371.99 112.15h-7.5"/><text fill="#000" font-family="KaTeX_Main" font-size="10" transform="translate(378.99 115.4)"><tspan>0.45</tspan></text></g><g fill="none" stroke="none" stroke-linecap="round" stroke-linejoin="round" stroke-width="0" color="#000"><path d="M371.99 93.58h-7.5"/><text fill="#000" font-family="KaTeX_Main" font-size="10" transform="translate(378.99 96.83)"><tspan>0.50</tspan></text></g><g fill="none" stroke="none" stroke-linecap="round" stroke-linejoin="round" stroke-width="0" color="#000"><path d="M371.99 75.01h-7.5"/><text fill="#000" font-family="KaTeX_Main" font-size="10" transform="translate(378.99 78.26)"><tspan>0.55</tspan></text></g><path fill="none" stroke="none" stroke-linecap="round" stroke-linejoin="round" stroke-width="0" d="M28 75.01V205M371.99 75.01H28" color="#000"/><text fill="#000" stroke="none" stroke-linecap="round" stroke-linejoin="round" stroke-width="0" color="#000" font-family="KaTeX_Main" font-size="10" text-anchor="middle" transform="rotate(-90 75.755 64.255)"><tspan font-weight="bold">Duration </tspan><tspan> in milliseconds</tspan></text><text fill="#000" stroke="none" stroke-linecap="round" stroke-linejoin="round" stroke-width="0" color="#000" font-family="KaTeX_Main" font-size="10" text-anchor="middle" transform="translate(199.99 238.25)"><tspan>Operations / 10</tspan><tspan dy="-5" font-size="8">6</tspan></text><text fill="#000" stroke="none" stroke-linecap="round" stroke-linejoin="round" color="#000" font-family="KaTeX_Main" font-size="8" transform="translate(110.4 47.61)"><tspan>AVLBottomUp</tspan></text><g fill="none" stroke="currentColor" stroke-linecap="round" stroke-linejoin="round" color="#000"><path stroke="#000" d="M74.9 45.01h29.9M28 197.98l.37-.25.38-.26.37-.27.38-.28.37-.28.37-.29.38-.28.37-.27.38-.27.37-.25.37-.24.38-.22.37-.2.37-.17.38-.16.37-.14.38-.12.37-.1.37-.09.38-.07.37-.07.38-.05.37-.06.37-.05.38-.05.37-.06.38-.07.37-.07.37-.09.38-.1.37-.11.37-.13.38-.14.37-.16.38-.17.37-.18.37-.2.38-.21.37-.21.38-.22.37-.23.37-.22.38-.23.37-.22.38-.22.37-.21.37-.2.38-.18.37-.18.38-.16.37-.15.37-.14.38-.11.37-.11.37-.09.38-.08.37-.07.38-.05.37-.05.37-.05.38-.03.37-.04.38-.04.37-.04.37-.04.38-.05.37-.06.38-.06.37-.08.37-.08.38-.1.37-.1.37-.12.38-.12.37-.14.38-.14.37-.15.37-.16.38-.16.37-.16.38-.16.37-.17.37-.16.38-.16.37-.15.38-.15.37-.14.37-.13.38-.13.37-.12.38-.11.37-.1.37-.1.38-.1.37-.09.37-.08.38-.09.37-.08.38-.08.37-.09.37-.08.38-.09.37-.1.38-.1.37-.1.37-.11.38-.11.37-.12.38-.12.37-.12.37-.12.38-.13.37-.12.37-.12.38-.11.37-.11.38-.11.37-.1.37-.08.38-.08.37-.08.38-.06.37-.05.37-.04.38-.03.37-.03.38-.02.37-.01.37-.01h.38l.37-.01h1.12l.38-.01.37-.01.37-.02.38-.02.37-.03.38-.04.37-.04.37-.05.38-.06.37-.06.38-.07.37-.08.37-.08.38-.09.37-.08.38-.1.37-.09.37-.09.38-.09.37-.09.37-.09.38-.09.37-.09.38-.08.37-.08.37-.07.38-.07.37-.07.38-.07.37-.06.37-.06.38-.06.37-.06.38-.05.37-.06.37-.05.38-.05.37-.06.38-.05.37-.06.37-.06.38-.05.37-.06.37-.06.38-.05.37-.06.38-.06.37-.05.37-.05.38-.06.37-.04.38-.05.37-.05.37-.04.38-.04.37-.03.38-.03.37-.03.37-.03.38-.03.37-.02.37-.03.38-.02.37-.02.38-.03.37-.02.37-.03.38-.03.37-.04.38-.03.37-.04.37-.05.38-.04.37-.06.38-.05.37-.06.37-.06.38-.07.37-.07.38-.07.37-.08.37-.07.38-.08.37-.08.37-.07.38-.08.37-.07.38-.07.37-.07.37-.06.38-.06.37-.06.38-.05.37-.05.37-.05.38-.04.37-.04.38-.03.37-.03.37-.03.38-.03.37-.03.37-.03.38-.03.37-.03.38-.03.37-.04.37-.03.38-.04.37-.05.38-.04.37-.05.37-.06.38-.06.37-.06.38-.07.37-.08.37-.07.38-.08.37-.08.38-.09.37-.08.37-.09.38-.09.37-.09.37-.08.38-.09.37-.09.38-.09.37-.08.37-.08.38-.08.37-.08.38-.08.37-.08.37-.07.38-.07.37-.07.38-.07.37-.07.37-.06.38-.07.37-.06.37-.07.38-.06.37-.06.38-.06.37-.07.37-.06.38-.06.37-.06.38-.06.37-.06.37-.06.38-.05.37-.06.38-.05.37-.05.37-.05.38-.05.37-.04.38-.04.37-.04.37-.04.38-.04.37-.03.37-.03.38-.03.37-.03.38-.03.37-.04.37-.03.38-.03.37-.03.38-.04.37-.04.37-.04.38-.05.37-.05.38-.06.37-.06.37-.07.38-.07.37-.08.37-.08.38-.09.37-.09.38-.1.37-.11.37-.11.38-.11.37-.12.38-.12.37-.12.37-.13.38-.13.37-.14.38-.14.37-.14.37-.14.38-.14.37-.15.38-.15.37-.15.37-.15.38-.15.37-.16.37-.15.38-.16.37-.16.38-.16.37-.16.37-.16.38-.16.37-.16.38-.16.37-.16.37-.16.38-.16.37-.16.38-.15.37-.15.37-.14.38-.14.37-.14.37-.13.38-.13.37-.12.38-.11.37-.11.37-.1.38-.09.37-.09.38-.08.37-.07.37-.07.38-.07.37-.05.38-.06.37-.05.37-.05.38-.04.37-.05.38-.04.37-.04.37-.05.38-.04.37-.05.37-.04.38-.05.37-.06.38-.05.37-.06.37-.06.38-.07.37-.07.38-.07.37-.07.37-.08.38-.08.37-.08.38-.08.37-.09.37-.09.38-.09.37-.09.37-.1.38-.1.37-.1.38-.1.37-.11.37-.12.38-.12.37-.13.38-.14.37-.14.37-.16.38-.17.37-.18.38-.19.37-.21.37-.23.38-.24.37-.26.38-.28.37-.29.37-.32.38-.33.37-.35.37-.38.38-.38.37-.41.38-.42.37-.43.37-.44.38-.46.37-.46.38-.46.37-.47.37-.47.38-.46.37-.46.38-.45.37-.44.37-.43.38-.41.37-.39.37-.37.38-.35.37-.33.38-.31.37-.27.37-.25.38-.23.37-.2.38-.17.37-.14.37-.12.38-.1.37-.07.38-.05.37-.03.37-.01.38.01.37.02.38.04.37.06.37.06.38.07.37.08.37.09.38.09.37.1.38.1.37.1.37.1.38.1.37.1.38.1.37.09.37.09.38.09.37.08.38.07.37.07.37.06.38.06.37.04.37.04.38.03.37.02.38.01.37.01.37-.01.38-.02.37-.02.38-.03.37-.04.37-.05.38-.06.37-.07.38-.07.37-.08.37-.09.38-.09.37-.1.37-.1.38-.11.37-.11.38-.11.37-.11.37-.12.38-.12.37-.11.38-.12.37-.12.37-.12.38-.12.37-.12.38-.12.37-.11.37-.12.38-.12.37-.11.38-.12.37-.11.37-.12.38-.11.37-.12.37-.11.38-.12.37-.11.38-.12.37-.11.37-.12.38-.11.37-.12.38-.11.37-.11.37-.11.38-.11.37-.11.38-.1.37-.1.37-.11.38-.09.37-.1.37-.09.38-.1.37-.09.38-.09.37-.08.37-.09.38-.08.37-.09.38-.08.37-.09.37-.08.38-.09.37-.08.38-.09.37-.09.37-.1.38-.09.37-.1.38-.1.37-.1.37-.11.38-.1.37-.11.37-.11.38-.11.37-.12.38-.11.37-.11.37-.11.38-.12.37-.11.38-.1.37-.11.37-.1.38-.11.37-.09.38-.1.37-.09.37-.09.38-.09.37-.09.37-.08.38-.08.37-.08.38-.08.37-.08.37-.08.38-.09.37-.08.38-.09.37-.09.37-.09.38-.1.37-.1.38-.11.37-.12.37-.11.38-.13.37-.13.38-.13.37-.15.37-.14.38-.15.37-.16.37-.15.38-.17.37-.16.38-.17.37-.16.37-.17.38-.17.37-.17.38-.17.37-.17.37-.17.38-.16.37-.17.38-.16.37-.16.37-.16.38-.15.37-.16.37-.15.38-.15.37-.15.38-.15.37-.14.37-.15.38-.14.37-.14.38-.14.37-.14.37-.14.38-.13.37-.13.38-.13.37-.12.37-.13.38-.12.37-.11.38-.11.37-.11.37-.1.38-.1.37-.1.37-.09.38-.09.37-.08.38-.09.37-.08.37-.08.38-.08.37-.08.38-.08.37-.09.37-.08.38-.1.37-.09.38-.11.37-.1.37-.12.38-.12.37-.13.37-.14.38-.15.37-.15.38-.16.37-.17.37-.17.38-.17.37-.19.38-.18.37-.19.37-.19.38-.19.37-.18.38-.19.37-.18.37-.18.38-.17.37-.17.38-.16.37-.16.37-.15.38-.14.37-.14.37-.13.38-.13.37-.12.38-.11.37-.11.37-.11.38-.1.37-.1.38-.1.37-.1.37-.09.38-.09.37-.1.38-.09.37-.09.37-.08.38-.09.37-.08.37-.07.38-.08.37-.07.38-.06.37-.06.37-.05.38-.04.37-.04.38-.02.37-.02.37-.02h1.13l.37.01.37.02.38.02.37.01.38.02.37.02.37.01.38.01h.74l.38-.02.37-.02.38-.03.37-.04.37-.06.38-.06.37-.08.38-.08.37-.1.37-.1.38-.12.37-.12.38-.12.37-.13.37-.13.38-.12.37-.13.37-.13.38-.11.37-.12.38-.1.37-.1.37-.08.38-.08.37-.06.38-.06.37-.04.37-.04.38-.02.37-.02.38-.01.37-.01h1.12l.38-.01.37-.01.37-.01.38-.03.37-.03.37-.05.38-.05.37-.07.38-.08.37-.1.37-.1.38-.12.37-.14.38-.14.37-.15.37-.16.38-.16.37-.17.38-.17.37-.17.37-.17.38-.16.37-.16.37-.15.38-.14.37-.14.38-.12.37-.12.37-.1.38-.1.37-.09.38-.09.37-.08.37-.08.38-.08.37-.09.38-.09.37-.09.37-.11.38-.12.37-.13.38-.15.37-.16.37-.17.38-.18.37-.2.37-.2.38-.22.37-.22.38-.22.37-.22.37-.21.38-.21.37-.19.38-.19.37-.17.37-.15.38-.14.37-.12.38-.09.37-.09.37-.06.38-.06.37-.04.37-.03.38-.02.37-.02.38-.03.37-.02.37-.03.38-.04.37-.05.38-.07.37-.08.37-.1.38-.13.37-.14.38-.16.37-.19.37-.2.38-.23.37-.24.38-.26.37-.27.37-.28.38-.28.37-.28.37-.28.38-.27.37-.25.38-.23.37-.22.37-.18.38-.16.37-.13.38-.1.37-.07.37-.03.38-.02.37.02.38.03.37.04.37.05.38.05.37.05.37.03.38.01.37-.02.38-.05.37-.09.37-.12.38-.15.37-.19.38-.21.37-.23.37-.24.38-.24.37-.22.38-.21.37-.18.37-.16.38-.11.37-.08.38-.03.37.01.37.07.38.12.37.18.37.24.38.31.37.35.38.4.37.41.37.39.38.36.37.31.38.24.37.17.37.11.38.07.37.03.38.02.37.01.37.02.38.01.37.02.37.02.38.01h.37l.38-.01.37-.06.37-.13.38-.25.37-.4.38-.48.37-.69"/><use xlink:href="#g" transform="matrix(3.75 0 0 3.75 342.45 112.8)"/><use xlink:href="#g" transform="matrix(3.75 0 0 3.75 89.85 45.01)"/></g><text fill="#000" stroke="none" stroke-linecap="round" stroke-linejoin="round" color="#000" font-family="KaTeX_Main" font-size="8" transform="translate(110.4 62.61)"><tspan>AVLTopDown</tspan></text><g fill="none" stroke="currentColor" stroke-linecap="round" stroke-linejoin="round" color="#000"><path stroke="#29C3F6" stroke-dasharray="1.0,2.0" d="M74.9 60.01h29.9M28 202.04l.37-.09.38-.07.37-.06.38-.06.37-.05.37-.05.38-.05.37-.05.38-.05.37-.07.37-.07.38-.07.37-.09.37-.1.38-.11.37-.12.38-.14.37-.14.37-.16.38-.16.37-.18.38-.18.37-.19.37-.19.38-.19.37-.2.38-.19.37-.18.37-.18.38-.17.37-.16.37-.15.38-.14.37-.12.38-.11.37-.1.37-.08.38-.07.37-.06.38-.05.37-.04.37-.03.38-.03.37-.03.38-.03.37-.02.37-.04.38-.03.37-.05.38-.05.37-.06.37-.07.38-.08.37-.09.37-.1.38-.11.37-.12.38-.13.37-.13.37-.15.38-.14.37-.15.38-.15.37-.15.37-.14.38-.14.37-.14.38-.13.37-.12.37-.11.38-.11.37-.1.37-.08.38-.08.37-.07.38-.07.37-.05.37-.05.38-.05.37-.05.38-.04.37-.04.37-.04.38-.04.37-.05.38-.05.37-.05.37-.05.38-.06.37-.06.38-.06.37-.06.37-.07.38-.07.37-.06.37-.07.38-.06.37-.06.38-.05.37-.05.37-.05.38-.04.37-.04.38-.03.37-.03.37-.02.38-.02.37-.02.38-.02.37-.01.37-.01.38-.02.37-.02.37-.02.38-.02.37-.03.38-.03.37-.04.37-.05.38-.05.37-.06.38-.07.37-.07.37-.08.38-.09.37-.09.38-.1.37-.1.37-.1.38-.1.37-.1.38-.11.37-.1.37-.1.38-.1.37-.09.37-.09.38-.09.37-.08.38-.08.37-.08.37-.07.38-.06.37-.06.38-.06.37-.06.37-.05.38-.06.37-.05.38-.05.37-.05.37-.05.38-.05.37-.05.37-.06.38-.05.37-.06.38-.05.37-.06.37-.06.38-.06.37-.05.38-.06.37-.05.37-.06.38-.05.37-.05.38-.04.37-.04.37-.04.38-.04.37-.03.38-.03.37-.03.37-.02.38-.03.37-.02.37-.02.38-.02.37-.02.38-.02.37-.02.37-.02.38-.02.37-.03.38-.03.37-.03.37-.04.38-.04.37-.05.38-.04.37-.06.37-.05.38-.06.37-.05.37-.06.38-.07.37-.06.38-.06.37-.06.37-.06.38-.06.37-.05.38-.06.37-.05.37-.04.38-.04.37-.04.38-.04.37-.03.37-.02.38-.02.37-.02.38-.02.37-.01.37-.01.38-.01.37-.01.37-.01.38-.01.37-.01.38-.01.37-.01.37-.01.38-.02.37-.02.38-.02.37-.03.37-.03.38-.04.37-.03.38-.05.37-.04.37-.05.38-.05.37-.06.37-.06.38-.05.37-.06.38-.07.37-.06.37-.06.38-.06.37-.06.38-.06.37-.06.37-.06.38-.06.37-.06.38-.05.37-.05.37-.05.38-.05.37-.05.38-.05.37-.05.37-.04.38-.05.37-.04.37-.04.38-.05.37-.04.38-.04.37-.04.37-.04.38-.04.37-.04.38-.04.37-.04.37-.03.38-.04.37-.03.38-.03.37-.03.37-.03.38-.02.37-.03.37-.02.38-.02.37-.02.38-.01.37-.02.37-.02.38-.01.37-.02.38-.01.37-.02.37-.02.38-.03.37-.02.38-.03.37-.03.37-.04.38-.04.37-.04.38-.05.37-.05.37-.06.38-.07.37-.07.37-.07.38-.08.37-.08.38-.09.37-.09.37-.1.38-.09.37-.1.38-.1.37-.1.37-.1.38-.1.37-.1.38-.1.37-.1.37-.1.38-.09.37-.1.37-.09.38-.09.37-.09.38-.09.37-.08.37-.09.38-.08.37-.08.38-.08.37-.08.37-.07.38-.08.37-.08.38-.07.37-.08.37-.07.38-.08.37-.07.38-.08.37-.07.37-.07.38-.07.37-.08.37-.07.38-.06.37-.07.38-.07.37-.06.37-.07.38-.06.37-.06.38-.06.37-.06.37-.06.38-.05.37-.06.38-.06.37-.06.37-.06.38-.06.37-.06.37-.06.38-.07.37-.06.38-.08.37-.07.37-.08.38-.08.37-.08.38-.09.37-.09.37-.09.38-.1.37-.1.38-.1.37-.1.37-.11.38-.1.37-.11.38-.1.37-.11.37-.1.38-.1.37-.1.37-.1.38-.1.37-.09.38-.09.37-.09.37-.09.38-.08.37-.08.38-.08.37-.08.37-.08.38-.07.37-.07.38-.08.37-.07.37-.07.38-.08.37-.08.37-.07.38-.08.37-.09.38-.08.37-.09.37-.09.38-.09.37-.1.38-.1.37-.1.37-.1.38-.11.37-.11.38-.11.37-.11.37-.12.38-.11.37-.12.38-.11.37-.12.37-.11.38-.12.37-.11.37-.12.38-.11.37-.12.38-.11.37-.11.37-.11.38-.12.37-.11.38-.11.37-.11.37-.11.38-.11.37-.11.38-.12.37-.11.37-.11.38-.11.37-.12.37-.11.38-.12.37-.11.38-.12.37-.12.37-.11.38-.12.37-.12.38-.11.37-.12.37-.12.38-.11.37-.12.38-.11.37-.12.37-.12.38-.11.37-.12.38-.12.37-.12.37-.12.38-.12.37-.13.37-.12.38-.13.37-.14.38-.13.37-.15.37-.14.38-.15.37-.15.38-.16.37-.17.37-.16.38-.17.37-.18.38-.18.37-.18.37-.19.38-.19.37-.19.37-.2.38-.2.37-.19.38-.2.37-.2.37-.2.38-.2.37-.2.38-.2.37-.2.37-.19.38-.19.37-.2.38-.18.37-.19.37-.18.38-.18.37-.18.37-.18.38-.17.37-.17.38-.16.37-.16.37-.16.38-.16.37-.15.38-.15.37-.14.37-.14.38-.13.37-.14.38-.12.37-.13.37-.11.38-.12.37-.11.38-.1.37-.1.37-.09.38-.09.37-.09.37-.08.38-.08.37-.07.38-.07.37-.07.37-.06.38-.07.37-.06.38-.06.37-.06.37-.06.38-.06.37-.07.38-.06.37-.07.37-.07.38-.07.37-.08.37-.08.38-.08.37-.08.38-.09.37-.09.37-.09.38-.1.37-.1.38-.1.37-.09.37-.11.38-.1.37-.1.38-.09.37-.1.37-.1.38-.09.37-.1.38-.09.37-.09.37-.08.38-.09.37-.08.37-.08.38-.08.37-.08.38-.08.37-.08.37-.08.38-.08.37-.08.38-.08.37-.09.37-.08.38-.09.37-.1.38-.09.37-.1.37-.11.38-.11.37-.11.37-.12.38-.12.37-.12.38-.13.37-.13.37-.13.38-.13.37-.13.38-.14.37-.14.37-.13.38-.14.37-.14.38-.14.37-.13.37-.14.38-.13.37-.14.38-.13.37-.14.37-.13.38-.13.37-.14.37-.13.38-.13.37-.14.38-.13.37-.14.37-.14.38-.13.37-.14.38-.14.37-.14.37-.14.38-.13.37-.14.38-.14.37-.13.37-.13.38-.13.37-.13.37-.12.38-.12.37-.12.38-.11.37-.11.37-.1.38-.1.37-.09.38-.1.37-.09.37-.08.38-.09.37-.08.38-.09.37-.08.37-.09.38-.08.37-.1.38-.09.37-.1.37-.11.38-.11.37-.12.37-.12.38-.13.37-.14.38-.15.37-.15.37-.16.38-.16.37-.17.38-.18.37-.17.37-.18.38-.18.37-.19.38-.18.37-.18.37-.18.38-.17.37-.18.37-.16.38-.17.37-.15.38-.16.37-.14.37-.14.38-.14.37-.13.38-.12.37-.12.37-.11.38-.11.37-.11.38-.1.37-.09.37-.1.38-.09.37-.08.38-.09.37-.08.37-.07.38-.08.37-.06.37-.07.38-.06.37-.05.38-.05.37-.05.37-.03.38-.04.37-.02.38-.02.37-.01.37-.01.38-.01h.37l.38.01.37.01.37.01.38.01.37.01h.37l.38.01h.75l.37-.01.37-.02.38-.03.37-.03.38-.04.37-.05.37-.06.38-.07.37-.08.38-.09.37-.09.37-.1.38-.11.37-.1.38-.12.37-.11.37-.11.38-.11.37-.11.37-.11.38-.09.37-.1.38-.08.37-.08.37-.06.38-.06.37-.05.38-.05.37-.03.37-.03.38-.03.37-.02.38-.01.37-.02.37-.02.38-.02.37-.02.37-.03.38-.03.37-.05.38-.05.37-.07.37-.08.38-.08.37-.1.38-.12.37-.12.37-.14.38-.14.37-.15.38-.16.37-.17.37-.17.38-.17.37-.17.38-.17.37-.16.37-.16.38-.15.37-.14.37-.14.38-.12.37-.11.38-.1.37-.08.37-.08.38-.06.37-.06.38-.05.37-.05.37-.04.38-.04.37-.04.38-.04.37-.05.37-.05.38-.06.37-.07.37-.07.38-.09.37-.09.38-.1.37-.11.37-.11.38-.11.37-.12.38-.11.37-.12.37-.1.38-.09.37-.09.38-.07.37-.06.37-.04.38-.02.37-.01.38.01.37.02.37.04.38.05.37.06.37.06.38.07.37.08.38.07.37.06.37.06.38.05.37.03.38.02h.37l.37-.02.38-.04.37-.06.38-.08.37-.11.37-.12.38-.14.37-.16.37-.17.38-.18.37-.19.38-.19.37-.19.37-.19.38-.18.37-.17.38-.15.37-.14.37-.11.38-.1.37-.07.38-.06.37-.03.37-.01.38.01.37.01.38.03.37.04.37.03.38.04.37.02.37.01.38-.02.37-.03.38-.06.37-.08.37-.11.38-.14.37-.16.38-.19.37-.19.37-.21.38-.22.37-.21.38-.21.37-.19.37-.18.38-.17.37-.13.37-.12.38-.08.37-.05.38-.03.37.01.37.04.38.06.37.09.38.11.37.13.37.13.38.13.37.13.38.11.37.1.37.07.38.05.37.02.38-.01.37-.03.37-.07.38-.1.37-.14.37-.19.38-.24.37-.32.38-.39.37-.46.37-.54.38-.58.37-.61.38-.59.37-.53.37-.41.38-.28.37-.15.38-.07.37-.08.37-.17.38-.32.37-.46.37-.48.38-.28.37.12.38.61.37.95.37.92.38.57.37.18.38.13.37.13"/><use xlink:href="#h" color="#29C3F6" transform="matrix(3.75 0 0 3.75 56.04 194.19)"/><use xlink:href="#h" color="#29C3F6" transform="matrix(3.75 0 0 3.75 89.85 60.01)"/></g><text fill="#000" stroke="none" stroke-linecap="round" stroke-linejoin="round" color="#000" font-family="KaTeX_Main" font-size="8" transform="translate(241.1 47.61)"><tspan>RedBlackBottomUp</tspan></text><g fill="none" stroke="currentColor" stroke-linecap="round" stroke-linejoin="round" color="#000"><path stroke="#F44336" d="M205.6 45.01h29.9M28 186.28l.37-.25.38-.22.37-.2.38-.19.37-.17.37-.16.38-.16.37-.15.38-.15.37-.15.37-.16.38-.17.37-.18.37-.19.38-.21.37-.21.38-.23.37-.23.37-.24.38-.25.37-.24.38-.25.37-.23.37-.24.38-.22.37-.21.38-.19.37-.18.37-.16.38-.14.37-.13.37-.11.38-.09.37-.08.38-.06.37-.06.37-.05.38-.04.37-.04.38-.04.37-.04.37-.04.38-.05.37-.06.38-.07.37-.08.37-.1.38-.1.37-.12.38-.14.37-.14.37-.16.38-.17.37-.18.37-.19.38-.19.37-.2.38-.21.37-.2.37-.2.38-.2.37-.2.38-.19.37-.18.37-.17.38-.17.37-.15.38-.15.37-.13.37-.13.38-.11.37-.11.37-.1.38-.1.37-.09.38-.09.37-.08.37-.09.38-.08.37-.09.38-.09.37-.09.37-.1.38-.1.37-.1.38-.11.37-.11.37-.12.38-.11.37-.12.38-.11.37-.11.37-.11.38-.11.37-.1.37-.1.38-.09.37-.09.38-.08.37-.07.37-.07.38-.06.37-.06.38-.05.37-.05.37-.04.38-.05.37-.04.38-.05.37-.05.37-.05.38-.05.37-.06.37-.07.38-.07.37-.08.38-.09.37-.1.37-.1.38-.11.37-.11.38-.12.37-.13.37-.13.38-.13.37-.14.38-.14.37-.13.37-.13.38-.14.37-.12.38-.13.37-.12.37-.11.38-.1.37-.1.37-.09.38-.09.37-.08.38-.07.37-.07.37-.06.38-.06.37-.05.38-.05.37-.05.37-.05.38-.05.37-.05.38-.05.37-.05.37-.06.38-.06.37-.07.37-.07.38-.07.37-.08.38-.09.37-.09.37-.09.38-.1.37-.1.38-.11.37-.11.37-.11.38-.11.37-.11.38-.11.37-.1.37-.11.38-.11.37-.1.38-.1.37-.09.37-.1.38-.08.37-.09.37-.08.38-.08.37-.08.38-.08.37-.07.37-.07.38-.07.37-.07.38-.07.37-.07.37-.06.38-.07.37-.07.38-.07.37-.07.37-.06.38-.07.37-.07.37-.06.38-.07.37-.06.38-.06.37-.06.37-.06.38-.05.37-.06.38-.04.37-.05.37-.04.38-.04.37-.03.38-.04.37-.03.37-.02.38-.03.37-.03.38-.02.37-.03.37-.02.38-.03.37-.03.37-.03.38-.04.37-.04.38-.04.37-.04.37-.05.38-.06.37-.06.38-.06.37-.07.37-.08.38-.07.37-.08.38-.08.37-.09.37-.09.38-.09.37-.09.37-.09.38-.1.37-.09.38-.09.37-.09.37-.1.38-.09.37-.09.38-.09.37-.08.37-.09.38-.09.37-.09.38-.08.37-.09.37-.09.38-.08.37-.09.38-.09.37-.09.37-.1.38-.09.37-.1.37-.09.38-.1.37-.1.38-.1.37-.11.37-.1.38-.11.37-.1.38-.1.37-.11.37-.1.38-.1.37-.1.38-.1.37-.09.37-.09.38-.09.37-.09.37-.08.38-.08.37-.07.38-.07.37-.07.37-.07.38-.06.37-.07.38-.06.37-.05.37-.06.38-.06.37-.05.38-.06.37-.05.37-.05.38-.06.37-.05.38-.05.37-.05.37-.06.38-.05.37-.05.37-.05.38-.05.37-.05.38-.04.37-.05.37-.04.38-.04.37-.04.38-.03.37-.04.37-.03.38-.02.37-.03.38-.02.37-.02.37-.02.38-.02.37-.01.37-.02.38-.01.37-.02.38-.01.37-.02.37-.02.38-.03.37-.02.38-.03.37-.04.37-.04.38-.04.37-.05.38-.06.37-.06.37-.06.38-.08.37-.07.38-.08.37-.09.37-.09.38-.1.37-.09.37-.11.38-.1.37-.11.38-.11.37-.1.37-.12.38-.11.37-.11.38-.11.37-.11.37-.11.38-.11.37-.11.38-.11.37-.11.37-.11.38-.1.37-.11.37-.1.38-.11.37-.1.38-.1.37-.11.37-.1.38-.1.37-.1.38-.11.37-.1.37-.1.38-.1.37-.1.38-.09.37-.1.37-.1.38-.09.37-.09.38-.09.37-.09.37-.09.38-.08.37-.09.37-.08.38-.08.37-.08.38-.07.37-.08.37-.08.38-.07.37-.08.38-.08.37-.08.37-.08.38-.09.37-.09.38-.09.37-.1.37-.1.38-.11.37-.12.37-.12.38-.12.37-.13.38-.14.37-.15.37-.15.38-.15.37-.16.38-.17.37-.17.37-.18.38-.18.37-.18.38-.18.37-.19.37-.19.38-.19.37-.2.38-.19.37-.19.37-.2.38-.19.37-.2.37-.19.38-.2.37-.19.38-.19.37-.2.37-.19.38-.19.37-.2.38-.19.37-.19.37-.19.38-.2.37-.19.38-.19.37-.19.37-.19.38-.2.37-.19.37-.19.38-.19.37-.18.38-.19.37-.19.37-.18.38-.18.37-.18.38-.18.37-.18.37-.17.38-.18.37-.17.38-.17.37-.17.37-.17.38-.17.37-.16.38-.17.37-.17.37-.16.38-.17.37-.17.37-.17.38-.18.37-.17.38-.17.37-.18.37-.18.38-.18.37-.18.38-.18.37-.19.37-.18.38-.18.37-.19.38-.18.37-.18.37-.18.38-.17.37-.18.37-.17.38-.16.37-.16.38-.16.37-.15.37-.15.38-.14.37-.14.38-.13.37-.13.37-.13.38-.12.37-.12.38-.11.37-.11.37-.11.38-.11.37-.11.37-.11.38-.11.37-.11.38-.12.37-.11.37-.12.38-.13.37-.12.38-.14.37-.13.37-.14.38-.14.37-.15.38-.15.37-.16.37-.16.38-.16.37-.17.38-.17.37-.17.37-.17.38-.18.37-.18.37-.17.38-.18.37-.18.38-.17.37-.18.37-.18.38-.17.37-.18.38-.17.37-.18.37-.17.38-.17.37-.17.38-.17.37-.17.37-.17.38-.16.37-.16.37-.17.38-.16.37-.16.38-.15.37-.15.37-.15.38-.15.37-.15.38-.14.37-.13.37-.14.38-.12.37-.13.38-.12.37-.11.37-.11.38-.11.37-.11.38-.09.37-.1.37-.1.38-.09.37-.09.37-.09.38-.08.37-.09.38-.09.37-.09.37-.1.38-.1.37-.1.38-.1.37-.11.37-.12.38-.12.37-.12.38-.14.37-.14.37-.14.38-.15.37-.16.37-.16.38-.16.37-.17.38-.18.37-.18.37-.18.38-.18.37-.19.38-.19.37-.18.37-.19.38-.19.37-.19.38-.18.37-.19.37-.18.38-.19.37-.18.38-.17.37-.18.37-.17.38-.17.37-.17.37-.17.38-.16.37-.16.38-.16.37-.15.37-.15.38-.15.37-.14.38-.14.37-.13.37-.13.38-.12.37-.12.38-.12.37-.1.37-.11.38-.09.37-.09.37-.09.38-.08.37-.07.38-.07.37-.07.37-.06.38-.06.37-.06.38-.06.37-.05.37-.06.38-.06.37-.06.38-.06.37-.07.37-.08.38-.07.37-.09.38-.09.37-.1.37-.1.38-.12.37-.12.37-.13.38-.13.37-.14.38-.15.37-.15.37-.16.38-.16.37-.17.38-.17.37-.17.37-.17.38-.17.37-.17.38-.16.37-.17.37-.16.38-.16.37-.16.37-.15.38-.15.37-.15.38-.14.37-.14.37-.14.38-.14.37-.13.38-.14.37-.14.37-.14.38-.14.37-.15.38-.14.37-.16.37-.15.38-.16.37-.16.38-.17.37-.17.37-.18.38-.18.37-.18.37-.18.38-.18.37-.18.38-.18.37-.17.37-.17.38-.17.37-.16.38-.15.37-.15.37-.14.38-.13.37-.12.38-.11.37-.11.37-.1.38-.09.37-.08.37-.08.38-.07.37-.06.38-.07.37-.06.37-.06.38-.06.37-.06.38-.06.37-.06.37-.07.38-.06.37-.07.38-.07.37-.07.37-.08.38-.07.37-.07.38-.08.37-.07.37-.06.38-.07.37-.05.37-.06.38-.04.37-.05.38-.03.37-.03.37-.02.38-.02.37-.01h.38l.37-.01h1.5l.37-.01.37-.01.38-.02.37-.03.37-.04.38-.05.37-.06.38-.07.37-.09.37-.1.38-.11.37-.12.38-.14.37-.14.37-.15.38-.16.37-.17.38-.16.37-.17.37-.17.38-.17.37-.16.38-.16.37-.15.37-.14.38-.13.37-.13.37-.11.38-.11.37-.09.38-.09.37-.09.37-.07.38-.08.37-.07.38-.08.37-.07.37-.08.38-.09.37-.1.38-.1.37-.11.37-.12.38-.13.37-.14.37-.15.38-.15.37-.16.38-.16.37-.16.37-.16.38-.15.37-.15.38-.14.37-.13.37-.11.38-.1.37-.08.38-.07.37-.05.37-.04.38-.02.37-.01h.38l.37.02.37.02.38.02.37.02.37.03.38.01.37.01h.38l.37-.01.37-.02.38-.05.37-.06.38-.08.37-.1.37-.12.38-.14.37-.15.38-.18.37-.18.37-.2.38-.21.37-.22.37-.21.38-.22.37-.21.38-.2.37-.19.37-.17.38-.15.37-.14.38-.11.37-.09.37-.06.38-.04.37-.02.38.01.37.02.37.04.38.06.37.07.38.07.37.07.37.07.38.06.37.06.37.03.38.02h.37l.38-.03.37-.05.37-.09.38-.11.37-.15.38-.19.37-.22.37-.25.38-.29.37-.31.38-.33.37-.36.37-.36.38-.36.37-.37.37-.35.38-.33.37-.3.38-.27.37-.24.37-.19.38-.16.37-.1.38-.06.37-.01.37.04.38.08.37.12.38.15.37.16.37.17.38.15.37.13.38.08.37.03.37-.04.38-.11.37-.18.37-.25.38-.31.37-.35.38-.36.37-.36.37-.33.38-.26.37-.19.38-.14.37-.1.37-.09.38-.13.37-.19.38-.21.37-.18.37-.07.38.15.37.39.37.6.38.7.37.62.38.45.37.25.37.09.38.02.37.03.38.08.37-.09"/><use xlink:href="#e" color="#F44336" transform="matrix(3.75 0 0 3.75 113.62 162.95)"/><use xlink:href="#e" color="#F44336" transform="matrix(3.75 0 0 3.75 220.55 45.01)"/></g><text fill="#000" stroke="none" stroke-linecap="round" stroke-linejoin="round" color="#000" font-family="KaTeX_Main" font-size="8" transform="translate(241.1 62.61)"><tspan>RedBlackTopDown</tspan></text><g fill="none" stroke="currentColor" stroke-linecap="round" stroke-linejoin="round" color="#000"><path stroke="#3B75EA" stroke-dasharray="1.0,2.0" d="M205.6 60.01h29.9M28 190.44l.37-.26.38-.27.37-.27.38-.28.37-.28.37-.27.38-.27.37-.25.38-.23.37-.22.37-.19.38-.18.37-.15.37-.13.38-.11.37-.09.38-.08.37-.05.37-.05.38-.03.37-.03.38-.02.37-.02.37-.02.38-.03.37-.03.38-.03.37-.05.37-.06.38-.07.37-.08.37-.1.38-.1.37-.12.38-.13.37-.14.37-.15.38-.16.37-.16.38-.17.37-.16.37-.17.38-.16.37-.16.38-.16.37-.14.37-.14.38-.13.37-.13.38-.11.37-.1.37-.09.38-.09.37-.07.37-.08.38-.06.37-.07.38-.06.37-.06.37-.06.38-.07.37-.07.38-.07.37-.08.37-.08.38-.09.37-.09.38-.09.37-.1.37-.1.38-.1.37-.11.37-.1.38-.09.37-.1.38-.08.37-.08.37-.08.38-.07.37-.06.38-.05.37-.04.37-.04.38-.03.37-.02.38-.02.37-.02.37-.01.38-.02.37-.01.38-.01.37-.02.37-.02.38-.03.37-.03.37-.05.38-.04.37-.06.38-.07.37-.07.37-.08.38-.09.37-.1.38-.11.37-.11.37-.12.38-.12.37-.12.38-.12.37-.13.37-.12.38-.12.37-.12.37-.11.38-.11.37-.1.38-.1.37-.09.37-.08.38-.08.37-.06.38-.07.37-.05.37-.05.38-.05.37-.04.38-.04.37-.04.37-.04.38-.04.37-.04.38-.04.37-.05.37-.05.38-.05.37-.06.37-.07.38-.07.37-.08.38-.08.37-.08.37-.1.38-.09.37-.1.38-.1.37-.11.37-.1.38-.11.37-.1.38-.1.37-.1.37-.1.38-.09.37-.09.37-.08.38-.08.37-.08.38-.07.37-.06.37-.06.38-.05.37-.05.38-.05.37-.04.37-.04.38-.04.37-.03.38-.04.37-.03.37-.03.38-.03.37-.04.38-.03.37-.03.37-.03.38-.03.37-.03.37-.04.38-.03.37-.03.38-.02.37-.03.37-.02.38-.02.37-.02.38-.02.37-.01.37-.01.38-.01h1.87l.37.01h.75l.37.01h.38l.37-.01h.37l.38-.01.37-.01.38-.02.37-.02.37-.03.38-.03.37-.04.38-.04.37-.05.37-.05.38-.06.37-.06.38-.07.37-.06.37-.08.38-.07.37-.08.37-.08.38-.08.37-.08.38-.08.37-.08.37-.08.38-.07.37-.08.38-.08.37-.07.37-.07.38-.08.37-.06.38-.07.37-.07.37-.06.38-.06.37-.06.37-.06.38-.06.37-.05.38-.05.37-.05.37-.05.38-.05.37-.05.38-.04.37-.04.37-.04.38-.03.37-.03.38-.03.37-.03.37-.02.38-.02.37-.02.38-.02.37-.01.37-.01.38-.01.37-.01.37-.01.38-.01h.37l.38-.01.37-.01.37-.01.38-.01.37-.01.38-.02.37-.02.37-.02.38-.03.37-.03.38-.04.37-.04.37-.05.38-.05.37-.05.37-.06.38-.06.37-.07.38-.06.37-.07.37-.07.38-.07.37-.07.38-.07.37-.06.37-.07.38-.06.37-.06.38-.06.37-.05.37-.05.38-.05.37-.04.38-.04.37-.04.37-.03.38-.03.37-.03.37-.02.38-.02.37-.03.38-.02.37-.02.37-.03.38-.02.37-.03.38-.03.37-.03.37-.04.38-.04.37-.04.38-.05.37-.05.37-.05.38-.06.37-.07.37-.06.38-.07.37-.07.38-.08.37-.08.37-.08.38-.08.37-.08.38-.08.37-.09.37-.08.38-.08.37-.08.38-.09.37-.08.37-.08.38-.08.37-.08.38-.08.37-.08.37-.08.38-.07.37-.08.37-.08.38-.08.37-.08.38-.08.37-.08.37-.08.38-.08.37-.08.38-.08.37-.08.37-.08.38-.08.37-.08.38-.08.37-.08.37-.07.38-.07.37-.08.37-.07.38-.06.37-.07.38-.06.37-.06.37-.06.38-.05.37-.06.38-.05.37-.05.37-.05.38-.05.37-.05.38-.06.37-.05.37-.05.38-.06.37-.06.38-.07.37-.06.37-.08.38-.08.37-.08.37-.09.38-.09.37-.1.38-.11.37-.11.37-.12.38-.12.37-.12.38-.13.37-.14.37-.14.38-.14.37-.14.38-.15.37-.15.37-.15.38-.15.37-.14.37-.15.38-.15.37-.15.38-.15.37-.15.37-.14.38-.15.37-.14.38-.14.37-.14.37-.14.38-.14.37-.13.38-.14.37-.13.37-.13.38-.13.37-.13.38-.13.37-.12.37-.12.38-.13.37-.12.37-.11.38-.12.37-.11.38-.11.37-.11.37-.1.38-.11.37-.09.38-.1.37-.09.37-.09.38-.09.37-.09.38-.08.37-.09.37-.08.38-.08.37-.08.37-.08.38-.09.37-.08.38-.09.37-.09.37-.09.38-.1.37-.1.38-.1.37-.11.37-.11.38-.12.37-.13.38-.13.37-.13.37-.14.38-.15.37-.15.38-.15.37-.15.37-.16.38-.17.37-.16.37-.17.38-.16.37-.17.38-.17.37-.17.37-.17.38-.16.37-.17.38-.16.37-.17.37-.16.38-.16.37-.16.38-.16.37-.15.37-.16.38-.16.37-.15.37-.15.38-.16.37-.15.38-.15.37-.16.37-.15.38-.16.37-.16.38-.16.37-.16.37-.16.38-.16.37-.16.38-.17.37-.16.37-.17.38-.16.37-.17.37-.16.38-.17.37-.16.38-.17.37-.16.37-.16.38-.17.37-.16.38-.16.37-.16.37-.16.38-.15.37-.16.38-.16.37-.15.37-.16.38-.15.37-.16.38-.15.37-.15.37-.16.38-.15.37-.16.37-.15.38-.15.37-.16.38-.15.37-.16.37-.15.38-.15.37-.15.38-.15.37-.15.37-.15.38-.14.37-.14.38-.15.37-.13.37-.14.38-.14.37-.13.37-.13.38-.13.37-.12.38-.13.37-.12.37-.13.38-.12.37-.13.38-.12.37-.12.37-.13.38-.13.37-.12.38-.13.37-.14.37-.13.38-.14.37-.14.38-.14.37-.14.37-.15.38-.14.37-.15.37-.15.38-.15.37-.15.38-.15.37-.15.37-.15.38-.15.37-.15.38-.14.37-.15.37-.14.38-.14.37-.14.38-.14.37-.14.37-.13.38-.14.37-.13.37-.13.38-.14.37-.13.38-.13.37-.13.37-.13.38-.13.37-.14.38-.13.37-.13.37-.13.38-.13.37-.13.38-.13.37-.13.37-.13.38-.13.37-.12.38-.12.37-.12.37-.11.38-.11.37-.11.37-.1.38-.1.37-.09.38-.09.37-.08.37-.09.38-.07.37-.08.38-.07.37-.07.37-.07.38-.07.37-.07.38-.08.37-.07.37-.07.38-.08.37-.08.37-.08.38-.09.37-.09.38-.09.37-.1.37-.09.38-.11.37-.1.38-.11.37-.11.37-.11.38-.11.37-.11.38-.11.37-.11.37-.11.38-.1.37-.1.38-.09.37-.09.37-.09.38-.08.37-.08.37-.07.38-.07.37-.07.38-.06.37-.06.37-.06.38-.06.37-.06.38-.06.37-.06.37-.06.38-.07.37-.07.38-.08.37-.09.37-.08.38-.1.37-.1.37-.11.38-.12.37-.12.38-.13.37-.14.37-.14.38-.15.37-.15.38-.15.37-.15.37-.16.38-.16.37-.15.38-.16.37-.15.37-.15.38-.15.37-.15.38-.14.37-.14.37-.13.38-.13.37-.13.37-.12.38-.12.37-.12.38-.12.37-.11.37-.11.38-.11.37-.11.38-.11.37-.11.37-.11.38-.11.37-.11.38-.11.37-.1.37-.1.38-.11.37-.09.37-.1.38-.09.37-.09.38-.08.37-.07.37-.08.38-.06.37-.06.38-.05.37-.05.37-.04.38-.04.37-.04.38-.03.37-.03.37-.03.38-.02.37-.03.38-.03.37-.04.37-.04.38-.04.37-.06.37-.05.38-.07.37-.07.38-.09.37-.09.37-.1.38-.11.37-.12.38-.12.37-.13.37-.14.38-.14.37-.14.38-.14.37-.15.37-.14.38-.14.37-.14.37-.13.38-.13.37-.12.38-.11.37-.11.37-.1.38-.09.37-.08.38-.08.37-.08.37-.07.38-.07.37-.06.38-.07.37-.06.37-.07.38-.07.37-.07.38-.08.37-.08.37-.09.38-.09.37-.1.37-.1.38-.1.37-.1.38-.1.37-.1.37-.1.38-.1.37-.09.38-.08.37-.08.37-.06.38-.06.37-.05.38-.04.37-.03.37-.02.38-.01.37-.01h.37l.38.01.37.01.38.01.37.01h.75l.37-.01.38-.02.37-.02.37-.04.38-.05.37-.07.38-.08.37-.09.37-.11.38-.12.37-.14.38-.14.37-.16.37-.16.38-.16.37-.17.37-.17.38-.16.37-.16.38-.15.37-.14.37-.12.38-.11.37-.09.38-.08.37-.05.37-.04.38-.02h.37l.38.02.37.03.37.05.38.05.37.06.37.06.38.07.37.06.38.06.37.04.37.03.38.02h.37l.38-.03.37-.04.37-.07.38-.1.37-.12.38-.15.37-.17.37-.2.38-.21.37-.23.38-.25.37-.25.37-.26.38-.25.37-.25.37-.24.38-.22.37-.19.38-.18.37-.14.37-.11.38-.09.37-.05.38-.03h.37l.37.02.38.04.37.05.38.05.37.04.37.03.38.01.37-.02.37-.05.38-.1.37-.13.38-.18.37-.22.37-.26.38-.28.37-.3.38-.31.37-.3.37-.29.38-.28.37-.24.38-.21.37-.18.37-.15.38-.11.37-.07.38-.04.37.01.37.05.38.1.37.15.37.2.38.23.37.26.38.27.37.26.37.24.38.21.37.16.38.13.37.1.37.06.38.05.37.03.38.02.37.03.37.03.38.03.37.02.37.02.38-.01.37-.05.38-.13.37-.23.37-.46.38-1.04.37-2.62.38-6.95.37-19.28"/><use xlink:href="#i" color="#3B75EA" transform="matrix(3.75 0 0 3.75 171.2 164.75)"/><use xlink:href="#i" color="#3B75EA" transform="matrix(3.75 0 0 3.75 220.55 60.01)"/></g><path fill="none" stroke="none" stroke-linecap="round" stroke-linejoin="round" stroke-width="0" d="M28 75.01V205M371.99 75.01H28" color="#000"/><text fill="#000" stroke="none" stroke-linecap="round" stroke-linejoin="round" stroke-width="0" color="#000" font-family="KaTeX_Main" font-size="10" text-anchor="middle" transform="translate(199.99 18.26)"><tspan font-weight="bold">Insert</tspan><tspan> — </tspan><tspan font-style="italic">Uniform</tspan></text></svg>