<svg xmlns="http://www.w3.org/2000/svg" xmlns:xlink="http://www.w3.org/1999/xlink" viewBox="0 0 400 300"><path fill="none" d="M0 0h400v300H0z"/><defs><use xlink:href="#a" id="g" fill="currentColor" stroke="none"/><use xlink:href="#b" id="h" fill="currentColor" stroke="none"/><use xlink:href="#b" id="c" stroke="currentColor" transform="rotate(180)"/><use xlink:href="#d" id="e" stroke="currentColor" transform="rotate(45)"/><path id="d" stroke="currentColor" stroke-width=".267" d="M-1-1h2v2h-2z"/><path id="b" stroke="currentColor" stroke-width=".267" d="m0-1.33-1.33 2h2.66z"/><path id="f" stroke="currentColor" stroke-width=".267" d="M0 1.33 1.265.411.782-1.067l-1.564-.009-.483 1.487z"/><circle id="a" cx="0" cy="0" r="1" stroke="currentColor" stroke-width=".267"/></defs><path fill="none" stroke="#000" stroke-dasharray="0.1,0.2" stroke-linecap="round" stroke-linejoin="round" stroke-width=".1" d="M35.33 255V75.01" class="gridline" color="#000"/><g fill="none" stroke="none" stroke-linecap="round" stroke-linejoin="round" stroke-width="0" color="#000"><path d="M35.33 255v-7.5m0-172.49v7.5"/><text fill="#000" font-family="KaTeX_Main" font-size="10" text-anchor="middle" transform="translate(35.33 265.75)"><tspan> 1</tspan></text></g><path fill="none" stroke="#000" stroke-dasharray="0.1,0.2" stroke-linecap="round" stroke-linejoin="round" stroke-width=".1" d="M71.96 255V75.01" class="gridline" color="#000"/><g fill="none" stroke="none" stroke-linecap="round" stroke-linejoin="round" stroke-width="0" color="#000"><path d="M71.96 255v-7.5m0-172.49v7.5"/><text fill="#000" font-family="KaTeX_Main" font-size="10" text-anchor="middle" transform="translate(71.96 265.75)"><tspan> 2</tspan></text></g><path fill="none" stroke="#000" stroke-dasharray="0.1,0.2" stroke-linecap="round" stroke-linejoin="round" stroke-width=".1" d="M108.58 255V75.01" class="gridline" color="#000"/><g fill="none" stroke="none" stroke-linecap="round" stroke-linejoin="round" stroke-width="0" color="#000"><path d="M108.58 255v-7.5m0-172.49v7.5"/><text fill="#000" font-family="KaTeX_Main" font-size="10" text-anchor="middle" transform="translate(108.58 265.75)"><tspan> 3</tspan></text></g><path fill="none" stroke="#000" stroke-dasharray="0.1,0.2" stroke-linecap="round" stroke-linejoin="round" stroke-width=".1" d="M145.21 255V75.01" class="gridline" color="#000"/><g fill="none" stroke="none" stroke-linecap="round" stroke-linejoin="round" stroke-width="0" color="#000"><path d="M145.21 255v-7.5m0-172.49v7.5"/><text fill="#000" font-family="KaTeX_Main" font-size="10" text-anchor="middle" transform="translate(145.21 265.75)"><tspan> 4</tspan></text></g><path fill="none" stroke="#000" stroke-dasharray="0.1,0.2" stroke-linecap="round" stroke-linejoin="round" stroke-width=".1" d="M181.84 255V75.01" class="gridline" color="#000"/><g fill="none" stroke="none" stroke-linecap="round" stroke-linejoin="round" stroke-width="0" color="#000"><path d="M181.84 255v-7.5m0-172.49v7.5"/><text fill="#000" font-family="KaTeX_Main" font-size="10" text-anchor="middle" transform="translate(181.84 265.75)"><tspan> 5</tspan></text></g><path fill="none" stroke="#000" stroke-dasharray="0.1,0.2" stroke-linecap="round" stroke-linejoin="round" stroke-width=".1" d="M218.47 255V75.01" class="gridline" color="#000"/><g fill="none" stroke="none" stroke-linecap="round" stroke-linejoin="round" stroke-width="0" color="#000"><path d="M218.47 255v-7.5m0-172.49v7.5"/><text fill="#000" font-family="KaTeX_Main" font-size="10" text-anchor="middle" transform="translate(218.47 265.75)"><tspan> 6</tspan></text></g><path fill="none" stroke="#000" stroke-dasharray="0.1,0.2" stroke-linecap="round" stroke-linejoin="round" stroke-width=".1" d="M255.1 255V75.01" class="gridline" color="#000"/><g fill="none" stroke="none" stroke-linecap="round" stroke-linejoin="round" stroke-width="0" color="#000"><path d="M255.1 255v-7.5m0-172.49v7.5"/><text fill="#000" font-family="KaTeX_Main" font-size="10" text-anchor="middle" transform="translate(255.1 265.75)"><tspan> 7</tspan></text></g><path fill="none" stroke="#000" stroke-dasharray="0.1,0.2" stroke-linecap="round" stroke-linejoin="round" stroke-width=".1" d="M291.73 255V75.01" class="gridline" color="#000"/><g fill="none" stroke="none" stroke-linecap="round" stroke-linejoin="round" stroke-width="0" color="#000"><path d="M291.73 255v-7.5m0-172.49v7.5"/><text fill="#000" font-family="KaTeX_Main" font-size="10" text-anchor="middle" transform="translate(291.73 265.75)"><tspan> 8</tspan></text></g><path fill="none" stroke="#000" stroke-dasharray="0.1,0.2" stroke-linecap="round" stroke-linejoin="round" stroke-width=".1" d="M328.36 255V75.01" class="gridline" color="#000"/><g fill="none" stroke="none" stroke-linecap="round" stroke-linejoin="round" stroke-width="0" color="#000"><path d="M328.36 255v-7.5m0-172.49v7.5"/><text fill="#000" font-family="KaTeX_Main" font-size="10" text-anchor="middle" transform="translate(328.36 265.75)"><tspan> 9</tspan></text></g><path fill="none" stroke="#000" stroke-dasharray="0.1,0.2" stroke-linecap="round" stroke-linejoin="round" stroke-width=".1" d="M364.99 255V75.01" class="gridline" color="#000"/><g fill="none" stroke="none" stroke-linecap="round" stroke-linejoin="round" stroke-width="0" color="#000"><path d="M364.99 255v-7.5m0-172.49v7.5"/><text fill="#000" font-family="KaTeX_Main" font-size="10" text-anchor="middle" transform="translate(364.99 265.75)"><tspan> 10</tspan></text></g><g fill="none" stroke="none" stroke-linecap="round" stroke-linejoin="round" stroke-width="0" color="#000"><path d="M364.99 255h-7.5"/><text fill="#000" font-family="KaTeX_Main" font-size="10" transform="translate(371.99 258.25)"><tspan>0.865</tspan></text></g><g fill="none" stroke="none" stroke-linecap="round" stroke-linejoin="round" stroke-width="0" color="#000"><path d="M364.99 225h-7.5"/><text fill="#000" font-family="KaTeX_Main" font-size="10" transform="translate(371.99 228.25)"><tspan>0.870</tspan></text></g><g fill="none" stroke="none" stroke-linecap="round" stroke-linejoin="round" stroke-width="0" color="#000"><path d="M364.99 195h-7.5"/><text fill="#000" font-family="KaTeX_Main" font-size="10" transform="translate(371.99 198.25)"><tspan>0.875</tspan></text></g><g fill="none" stroke="none" stroke-linecap="round" stroke-linejoin="round" stroke-width="0" color="#000"><path d="M364.99 165h-7.5"/><text fill="#000" font-family="KaTeX_Main" font-size="10" transform="translate(371.99 168.25)"><tspan>0.880</tspan></text></g><g fill="none" stroke="none" stroke-linecap="round" stroke-linejoin="round" stroke-width="0" color="#000"><path d="M364.99 135.01h-7.5"/><text fill="#000" font-family="KaTeX_Main" font-size="10" transform="translate(371.99 138.26)"><tspan>0.885</tspan></text></g><g fill="none" stroke="none" stroke-linecap="round" stroke-linejoin="round" stroke-width="0" color="#000"><path d="M364.99 105.01h-7.5"/><text fill="#000" font-family="KaTeX_Main" font-size="10" transform="translate(371.99 108.26)"><tspan>0.890</tspan></text></g><g fill="none" stroke="none" stroke-linecap="round" stroke-linejoin="round" stroke-width="0" color="#000"><path d="M364.99 75.01h-7.5"/><text fill="#000" font-family="KaTeX_Main" font-size="10" transform="translate(371.99 78.26)"><tspan>0.895</tspan></text></g><path fill="none" stroke="none" stroke-linecap="round" stroke-linejoin="round" stroke-width="0" d="M28 75.01V255M364.99 75.01H28" color="#000"/><text fill="#000" stroke="none" stroke-linecap="round" stroke-linejoin="round" stroke-width="0" color="#000" font-family="KaTeX_Main" font-size="10" text-anchor="middle" transform="rotate(-90 88.255 76.755)"><tspan font-weight="bold">AveragePathLength </tspan><tspan> / log</tspan><tspan dy="3" font-size="8">2</tspan><tspan dy="-3">(Size)</tspan></text><text fill="#000" stroke="none" stroke-linecap="round" stroke-linejoin="round" stroke-width="0" color="#000" font-family="KaTeX_Main" font-size="10" text-anchor="middle" transform="translate(196.49 288.25)"><tspan>Operations × 10</tspan><tspan dy="-5" font-size="8">5</tspan></text><text fill="#000" stroke="none" stroke-linecap="round" stroke-linejoin="round" color="#000" font-family="KaTeX_Main" font-size="10" transform="translate(112.5 42.64)"><tspan>LBSTBottomUp</tspan></text><g fill="none" stroke="currentColor" stroke-linecap="round" stroke-linejoin="round" color="#000"><path stroke="#3B75EA" stroke-dasharray="4.5,2.0,0.5,2.0,0.5,2.0" d="M70 39.39h35.5M28 221.25l.63.78 3.7-.59 3.7-4.83 3.69 5.58 3.7 8.31 3.69-1.56 3.7-8.73 3.7-3.57 3.69 2.39 3.7 3.13 3.69 2.25 3.7-1.11 3.7-4.12 3.69-2.9 3.7.8 3.7 1.07 3.69-1.69 3.7-2.04 3.7-.39 3.69.5 3.7 1.59 3.69 3.09 3.7 2.64 3.7.62 3.69-1.08 3.7-2.21 3.69-2.94 3.7-2.08 3.7.92 3.69 3.48 3.7 3.31 3.7 2.09 3.69 1.5 3.7.23 3.69-1.4 3.7-.83 3.7.64 3.69-.27 3.7-2.55 3.7-3.31 3.69-2.53 3.7-1.03 3.69.96 3.7 1.63 3.7.33 3.69.02 3.7 1.51 3.7 2.31 3.69 1.46 3.7.01 3.69-.54 3.7.24 3.7-.57 3.69-5.05 3.7-8.58 3.7-5.24 3.69 2.57 3.7 6.96 3.69 5.23 3.7 1.72 3.7-.91 3.69-2.94 3.7-2.62 3.7.55 3.69 2.54 3.7.25 3.69-3.19 3.7-2.53 3.7 1.9 3.69 5.96 3.7 5.12 3.7-1.58 3.69-4.52 3.7 2.67 3.69 7.08 3.7-1.53 3.7-10.23 3.69-6.45 3.7.4 3.7 3.33 3.69 3.42 3.7 3.42 3.69 2.77 3.7 1.51 3.7 4.62 3.69-2.81 3.7-19.13 3.69 1.81 3.7 11.65 3.7 4.34 3.69-19.61 3.7-71.69"/><use xlink:href="#a" color="#3B75EA" transform="matrix(3.75 0 0 3.75 335.42 223.8)"/><use xlink:href="#a" color="#3B75EA" transform="matrix(3.75 0 0 3.75 87.75 39.39)"/></g><text fill="#000" stroke="none" stroke-linecap="round" stroke-linejoin="round" color="#000" font-family="KaTeX_Main" font-size="10" transform="translate(112.5 61.39)"><tspan>LBSTTopDown</tspan></text><g fill="none" stroke="currentColor" stroke-linecap="round" stroke-linejoin="round" color="#000"><path stroke="#F44336" d="M70 58.14h35.5M28 183.99l.63 3 3.7 2.74 3.7.34 3.69 2.02 3.7-2.08 3.69-.6 3.7 1.17 3.7-4.02 3.69-11.48 3.7-8.47 3.69 1.21 3.7.32 3.7-5 3.69-1.97 3.7 4.44 3.7 6.85 3.69 5.46 3.7 2.76 3.7-1.53 3.69-5.82 3.7-5.99 3.69-4.18 3.7-3.11 3.7.76 3.69 6.22 3.7 7.12 3.69 3.09 3.7-1.17 3.7-2.11 3.69.22 3.7 3.17 3.7 4.06 3.69 1.88 3.7-2.58 3.69-6.37 3.7-5.95 3.7-1.81 3.69 1.47 3.7 1.67 3.7.53 3.69-.59 3.7-1.12 3.69-.82 3.7.13 3.7 1.75 3.69 3.2 3.7 3.47 3.7 3.49 3.69 4.37 3.7 4.46 3.69 1.79 3.7-2.59 3.7-5.27 3.69-4.37 3.7-1.91 3.7-1.11 3.69-2.13 3.7-1.69 3.69 1.63 3.7 3.92 3.7 1.52 3.69-3.11 3.7-5.56 3.7-4.25 3.69.1 3.7 4.18 3.69 5.13 3.7 4.16 3.7 2.36 3.69 1.03 3.7 1.54 3.7.78 3.69-2.52 3.7-1.74 3.69 3.64 3.7.79 3.7-7.38 3.69-4.64 3.7.08 3.7.67 3.69 4.26 3.7 7 3.69 1.08 3.7-5.12 3.7.06 3.69.25 3.7-8.01 3.69 4.4 3.7-7.94 3.7-12.7 3.69 3.12 3.7-5.02"/><use xlink:href="#g" color="#F44336" transform="matrix(3.75 0 0 3.75 58.2 175.08)"/><use xlink:href="#g" color="#F44336" transform="matrix(3.75 0 0 3.75 87.75 58.14)"/></g><text fill="#000" stroke="none" stroke-linecap="round" stroke-linejoin="round" color="#000" font-family="KaTeX_Main" font-size="10" transform="translate(246 42.64)"><tspan>WBSTBottomUp</tspan></text><g fill="none" stroke="currentColor" stroke-linecap="round" stroke-linejoin="round" color="#000"><path stroke="#000" stroke-dasharray="4.0,2.0,1.0,2.0" d="M203.5 39.39H239M28 145.03l.63 1.14 3.7 7.83 3.7-3.14 3.69-9.42 3.7-6.07 3.69-6.72 3.7 3.81 3.7 13.02 3.69 5.11 3.7-2.3 3.69 1.13 3.7 1.32 3.7-5.62 3.69-11.15 3.7-10.21 3.7-2.89 3.69 6.21 3.7 10.65 3.7 8.15 3.69.88 3.7-6.54 3.69-7.33 3.7-.4 3.7 6.76 3.69 7.97 3.7 4.24 3.69.44 3.7-.32 3.7 1.26 3.69 2.49 3.7 1.64 3.7-1.08 3.69-3.24 3.7-2.45 3.69-.28 3.7.51 3.7.04 3.69-.81 3.7-1.44 3.7-1.03 3.69-.8 3.7-2.46 3.69-3.92 3.7-2.18 3.7 1.12 3.69 3.65 3.7 5.61 3.7 5.67 3.69 1.91 3.7-3.42 3.69-5.89 3.7-4.54 3.7-2.66 3.69-2.83 3.7-4.22 3.7-3.94 3.69.33 3.7 6.01 3.69 7.91 3.7 5.86 3.7 3.12 3.69 1.45 3.7 1.23 3.7 1.7 3.69.33 3.7-4.84 3.69-10.67 3.7-9.49 3.7-1.55 3.69 2.9 3.7 1.7 3.7 1.02 3.69 1.9 3.7 4.24 3.69 4.22 3.7-1.73 3.7-3.17 3.69 2.3 3.7 4.3 3.7 3.23 3.69.35 3.7-5.28 3.69-3.36 3.7 3.04 3.7-.09 3.69 1.44 3.7 4.18 3.69-10.78 3.7-12.09 3.7.5 3.69-29.55 3.7 22.84"/><use xlink:href="#b" transform="matrix(3.75 0 0 3.75 117.34 147.22)"/><use xlink:href="#b" transform="matrix(3.75 0 0 3.75 221.25 39.39)"/></g><text fill="#000" stroke="none" stroke-linecap="round" stroke-linejoin="round" color="#000" font-family="KaTeX_Main" font-size="10" transform="translate(246 61.39)"><tspan>WBSTTopDown</tspan></text><g fill="none" stroke="currentColor" stroke-linecap="round" stroke-linejoin="round" color="#000"><path stroke="violet" d="M203.5 58.14H239M28 136.31l.63 1.16 3.7 9.74 3.7 1.22 3.69-7.68 3.7-5.71 3.69-6.64 3.7 3.75 3.7 12.79 3.69 5.01 3.7-2.16 3.69 1.53 3.7 2.82 3.7-2.18 3.69-8.49 3.7-11.68 3.7-6.45 3.69 3.77 3.7 9.41 3.7 8.16 3.69 3.41 3.7-2.77 3.69-6.39 3.7-3.11 3.7 2.76 3.69 3.18 3.7-.89 3.69-1.54 3.7 2.78 3.7 5.83 3.69 5.14 3.7 3.68 3.7 2.7 3.69.65 3.7-2.38 3.69-4.25 3.7-3.7 3.7-1.7 3.69.28 3.7 1.84 3.7 2.25 3.69-.18 3.7-4.46 3.69-6.02 3.7-2.34 3.7 2.92 3.69 5.42 3.7 5.21 3.7 3.41 3.69-.13 3.7-4.27 3.69-6.04 3.7-4.62 3.7-2.8 3.69-2.94 3.7-4.25 3.7-3.92 3.69.34 3.7 6.03 3.69 7.95 3.7 6.03 3.7 3.61 3.69 1.97 3.7.81 3.7.61 3.69 1.25 3.7-.14 3.69-4.74 3.7-7.76 3.7-5.71 3.69-2.4 3.7-.83 3.7.62 3.69 1.58 3.7 1.76 3.69.29 3.7-1.68 3.7.96 3.69 5.49 3.7 5.4 3.7 2.87 3.69-.63 3.7-6 3.69-3.7 3.7 3.07 3.7.22 3.69 1.59 3.7 3.83 3.69-12.11 3.7-16.76 3.7 5.97 3.69-25.35 3.7 14.04"/><use xlink:href="#h" color="violet" transform="matrix(3.75 0 0 3.75 176.48 152.27)"/><use xlink:href="#h" color="violet" transform="matrix(3.75 0 0 3.75 221.25 58.14)"/></g><path fill="none" stroke="none" stroke-linecap="round" stroke-linejoin="round" stroke-width="0" d="M28 75.01V255M364.99 75.01H28" color="#000"/><text fill="#000" stroke="none" stroke-linecap="round" stroke-linejoin="round" stroke-width="0" color="#000" font-family="KaTeX_Main" font-size="10" text-anchor="middle" transform="translate(196.49 18.26)"><tspan>InsertDeleteCycles - Zipf</tspan></text></svg>