<svg xmlns="http://www.w3.org/2000/svg" xmlns:xlink="http://www.w3.org/1999/xlink" viewBox="0 0 400 250"><path fill="none" d="M0 0h400v250H0z"/><defs><path id="c" stroke="currentColor" stroke-width=".267" d="M-1-1h2v2h-2z"/><path id="b" stroke="currentColor" stroke-width=".267" d="m0-1.33-1.33 2h2.66z"/><use xlink:href="#a" id="d" fill="currentColor" stroke="none"/><use xlink:href="#b" id="e" fill="currentColor" stroke="none"/><circle id="a" cx="0" cy="0" r="1" stroke="currentColor" stroke-width=".267"/></defs><path fill="none" stroke="#333" stroke-linecap="round" stroke-linejoin="round" stroke-width=".1" d="M46.1 205V45.01" class="gridline" color="#000"/><g fill="none" stroke-linecap="round" stroke-linejoin="round" stroke-width="0" color="#000"><path d="M46.1 205v-7.5m0-152.49v7.5"/><text fill="#000" font-family="KaTeX_Main" font-size="10" text-anchor="middle" transform="translate(46.1 215.75)"><tspan> 1</tspan></text></g><path fill="none" stroke="#333" stroke-linecap="round" stroke-linejoin="round" stroke-width=".1" d="M82.31 205V45.01" class="gridline" color="#000"/><g fill="none" stroke-linecap="round" stroke-linejoin="round" stroke-width="0" color="#000"><path d="M82.31 205v-7.5m0-152.49v7.5"/><text fill="#000" font-family="KaTeX_Main" font-size="10" text-anchor="middle" transform="translate(82.31 215.75)"><tspan> 2</tspan></text></g><path fill="none" stroke="#333" stroke-linecap="round" stroke-linejoin="round" stroke-width=".1" d="M118.52 205V45.01" class="gridline" color="#000"/><g fill="none" stroke-linecap="round" stroke-linejoin="round" stroke-width="0" color="#000"><path d="M118.52 205v-7.5m0-152.49v7.5"/><text fill="#000" font-family="KaTeX_Main" font-size="10" text-anchor="middle" transform="translate(118.52 215.75)"><tspan> 3</tspan></text></g><path fill="none" stroke="#333" stroke-linecap="round" stroke-linejoin="round" stroke-width=".1" d="M154.73 205V45.01" class="gridline" color="#000"/><g fill="none" stroke-linecap="round" stroke-linejoin="round" stroke-width="0" color="#000"><path d="M154.73 205v-7.5m0-152.49v7.5"/><text fill="#000" font-family="KaTeX_Main" font-size="10" text-anchor="middle" transform="translate(154.73 215.75)"><tspan> 4</tspan></text></g><path fill="none" stroke="#333" stroke-linecap="round" stroke-linejoin="round" stroke-width=".1" d="M190.94 205V45.01" class="gridline" color="#000"/><g fill="none" stroke-linecap="round" stroke-linejoin="round" stroke-width="0" color="#000"><path d="M190.94 205v-7.5m0-152.49v7.5"/><text fill="#000" font-family="KaTeX_Main" font-size="10" text-anchor="middle" transform="translate(190.94 215.75)"><tspan> 5</tspan></text></g><path fill="none" stroke="#333" stroke-linecap="round" stroke-linejoin="round" stroke-width=".1" d="M227.15 205V45.01" class="gridline" color="#000"/><g fill="none" stroke-linecap="round" stroke-linejoin="round" stroke-width="0" color="#000"><path d="M227.15 205v-7.5m0-152.49v7.5"/><text fill="#000" font-family="KaTeX_Main" font-size="10" text-anchor="middle" transform="translate(227.15 215.75)"><tspan> 6</tspan></text></g><path fill="none" stroke="#333" stroke-linecap="round" stroke-linejoin="round" stroke-width=".1" d="M263.36 205V45.01" class="gridline" color="#000"/><g fill="none" stroke-linecap="round" stroke-linejoin="round" stroke-width="0" color="#000"><path d="M263.36 205v-7.5m0-152.49v7.5"/><text fill="#000" font-family="KaTeX_Main" font-size="10" text-anchor="middle" transform="translate(263.36 215.75)"><tspan> 7</tspan></text></g><path fill="none" stroke="#333" stroke-linecap="round" stroke-linejoin="round" stroke-width=".1" d="M299.57 205V45.01" class="gridline" color="#000"/><g fill="none" stroke-linecap="round" stroke-linejoin="round" stroke-width="0" color="#000"><path d="M299.57 205v-7.5m0-152.49v7.5"/><text fill="#000" font-family="KaTeX_Main" font-size="10" text-anchor="middle" transform="translate(299.57 215.75)"><tspan> 8</tspan></text></g><path fill="none" stroke="#333" stroke-linecap="round" stroke-linejoin="round" stroke-width=".1" d="M335.78 205V45.01" class="gridline" color="#000"/><g fill="none" stroke-linecap="round" stroke-linejoin="round" stroke-width="0" color="#000"><path d="M335.78 205v-7.5m0-152.49v7.5"/><text fill="#000" font-family="KaTeX_Main" font-size="10" text-anchor="middle" transform="translate(335.78 215.75)"><tspan> 9</tspan></text></g><path fill="none" stroke="#333" stroke-linecap="round" stroke-linejoin="round" stroke-width=".1" d="M371.99 205V45.01" class="gridline" color="#000"/><g fill="none" stroke-linecap="round" stroke-linejoin="round" stroke-width="0" color="#000"><path d="M371.99 205v-7.5m0-152.49v7.5"/><text fill="#000" font-family="KaTeX_Main" font-size="10" text-anchor="middle" transform="translate(371.99 215.75)"><tspan> 10</tspan></text></g><g fill="none" stroke-linecap="round" stroke-linejoin="round" stroke-width="0" color="#000"><path d="M371.99 205h-7.5"/><text fill="#000" font-family="KaTeX_Main" font-size="10" transform="translate(378.99 208.25)"><tspan>0.89</tspan></text></g><g fill="none" stroke-linecap="round" stroke-linejoin="round" stroke-width="0" color="#000"><path d="M371.99 185h-7.5"/><text fill="#000" font-family="KaTeX_Main" font-size="10" transform="translate(378.99 188.25)"><tspan>0.89</tspan></text></g><g fill="none" stroke-linecap="round" stroke-linejoin="round" stroke-width="0" color="#000"><path d="M371.99 165h-7.5"/><text fill="#000" font-family="KaTeX_Main" font-size="10" transform="translate(378.99 168.25)"><tspan>0.90</tspan></text></g><g fill="none" stroke-linecap="round" stroke-linejoin="round" stroke-width="0" color="#000"><path d="M371.99 145h-7.5"/><text fill="#000" font-family="KaTeX_Main" font-size="10" transform="translate(378.99 148.25)"><tspan>0.90</tspan></text></g><g fill="none" stroke-linecap="round" stroke-linejoin="round" stroke-width="0" color="#000"><path d="M371.99 125h-7.5"/><text fill="#000" font-family="KaTeX_Main" font-size="10" transform="translate(378.99 128.25)"><tspan>0.91</tspan></text></g><g fill="none" stroke-linecap="round" stroke-linejoin="round" stroke-width="0" color="#000"><path d="M371.99 105.01h-7.5"/><text fill="#000" font-family="KaTeX_Main" font-size="10" transform="translate(378.99 108.26)"><tspan>0.91</tspan></text></g><g fill="none" stroke-linecap="round" stroke-linejoin="round" stroke-width="0" color="#000"><path d="M371.99 85.01h-7.5"/><text fill="#000" font-family="KaTeX_Main" font-size="10" transform="translate(378.99 88.26)"><tspan>0.92</tspan></text></g><g fill="none" stroke-linecap="round" stroke-linejoin="round" stroke-width="0" color="#000"><path d="M371.99 65.01h-7.5"/><text fill="#000" font-family="KaTeX_Main" font-size="10" transform="translate(378.99 68.26)"><tspan>0.92</tspan></text></g><g fill="none" stroke-linecap="round" stroke-linejoin="round" stroke-width="0" color="#000"><path d="M371.99 45.01h-7.5"/><text fill="#000" font-family="KaTeX_Main" font-size="10" transform="translate(378.99 48.26)"><tspan>0.93</tspan></text></g><path fill="none" d="M28 45.01V205M371.99 45.01H28" color="#000"/><text stroke-linecap="round" stroke-linejoin="round" stroke-width="0" color="#000" font-family="KaTeX_Main" font-size="10" text-anchor="middle" transform="rotate(-90 68.255 56.755)"><tspan font-weight="bold">AveragePathLength </tspan><tspan> / log</tspan><tspan dy="3" font-size="8">2</tspan><tspan dy="-3">(Size)</tspan></text><text stroke-linecap="round" stroke-linejoin="round" stroke-width="0" color="#000" font-family="KaTeX_Main" font-size="10" text-anchor="middle" transform="translate(199.99 238.25)"><tspan>Operations × 10</tspan><tspan dy="-5" font-size="8">5</tspan></text><text stroke-linecap="round" stroke-linejoin="round" color="#000" font-family="KaTeX_Main" font-size="8" transform="translate(132.8 10.11)"><tspan>LBSTBottomUp</tspan></text><g fill="none" stroke="currentColor" stroke-linecap="round" stroke-linejoin="round" color="#000"><path stroke="#3B75EA" d="M97.3 7.51h29.9M28 170.24l.36-9.55.36-.62.37-8.11.36-10.49.36 6.29.36 11.43.36-4.67.37-5.67.36-5.46.36-.25.36-6.2.37-6.44.36-7.46.36 5.76.36 11.38.36-4.2.37-2.75.36-5.3.36-4.87.36 8.98.36 8.9.37-2.01.36-3.74.36-2.12.36-4.45.36-4.16.37-3.96.36 5.33.36-4.02.36-4.88.36-3.72.37-5.53.36-5.91.36 47.55.36 19.83.37-1.72.36-1.58.36-1.98.36-3.03.36-3.38.37-3.03.36 5.28.36-2.99.36-3.85.36-2.41.37 9.73.36-2.84.36-2.28.36 4.58.36 11.04.37-1.2.36-1.04.36.23.36-1.01.37-1.61.36-2.16.36-2.45.36-.44.36-.13.37-.44.36-1.57.36-1.99.36-2.46.36 18.66.37-.69.36.19.36-1.24.36-1.8.36-2.17.37 9.58.36-.77.36-.42.36-1.29.37.4.36-.99.36-.27.36-1.53.36-2.15.37-3.02.36-4.24.36-3.66.36 1.38.36-3.64.37-2.44.36-4.07.36-4.91.36 26.9.36.78.37.04.36-.02.36 4.74.36-.84.36 1.56.37-1.72.36-1.86.36-3.93.36 17.69.37-.48.36 5.01.36-.02.36 1.04.36-1.84.37-2.06.36-2.07.36-2.91.36-2.08.36-3.96.37-4.41.36-7.05.36-6.98.36-.27.36-6.43.37 16.98.36-.19.36-5.97.36-6.63.37-6.01.36 5.77.36-5.19.36-6.15.36-5.68.37-2.47.36-6.79.36-6.84.36 44.45.36 7.61.37-1.88.36-3.01.36-2.41.36-3.36.36-4.33.37-4.29.36 4.58.36-3.69.36-4.09.36-3.67.37-4.9.36-5.42.36-5.32.36 14.85.37-3.31.36-3.41.36-3.11.36-3.98.36-4.73.37-4.17.36 20.12.36 5.09.36-2.9.36-2.1.37.97.36.2.36-.04.36 6.06.36.3.37.19.36 2.42.36 1.05.36.07.37-.16.36.48.36-.33.36-1.24.36-1.8.37-1.96.36 1.44.36-1.3.36-1.83.36-2.35.37 4.84.36-1.29.36-1.78.36-2.39.36 1.19.37-1.71.36-2.62.36-1.73.36-3.1.36 7.43.37-2.27.36.67.36-.75.36-2.18.37-1.27.36 2.34.36-1.84.36-2.34.36.1.37-1.77.36-2.73.36-2.22.36-4.16.36-5.87.37 57.82.36-1.47.36 1.61.36 1.38.36 1.71.37-.77.36.06.36-8.31.36-7.79.37-5.12.36-8.69.36 1.12.36 19.52.36-5.14.37 2.95.36-5.2.36-4.48.36-5.67.36-4.79.37-6.36.36-8 .36 2.73.36-6.93.36 27.4.37-2.98.36-4.79.36-5.34.36 2.53.37 7.08.36-1.99.36-4.06.36-.03.36-3.69.37-2.84.36-4.13.36 2.15.36-2.79.36-3.25.37-4.22.36-4.66.36-3.64.36-5.4.36 5.07.37-3.52.36 4.94.36 47.43.36-2.45.36-1.12.37-2.84.36-3.31.36-2.57.36 4.54.37-2.89.36-2.68.36 4.05.36-2.38.36-2.67.37.32.36.52.36-.59.36-.75.36-.29.37-1.05.36-2 .36-2.05.36-1.76.36-2.57.37 5.46.36-.48.36-1.65.36-2.17.37-1.91.36-2.94.36-.57.36-2.91.36 8.22.37-1.45.36-.34.36.09.36-1.78.36-2.23.37 3.22.36-.74.36-2.18.36-2.25.36 1.38.37-1.38.36-.81.36-1.95.36-3.39.36-4.36.37-4.93.36 10.68.36-.51.36-2.02.37 3.54.36.33.36-1.51.36-2.37.36 1.14.37-.81.36-2.7.36 21.51.36.14.36-1.11.37.06.36-2.49.36-2.36.36-4.61.36 3.37.37 28.95.36-1.03.36 1.9.36-1.72.37-1.4.36-1.52.36.09.36-.89.36-3.91.37-3.55.36-4.93.36-4.02.36-5.45.36-6.68.37 5.76.36 10.66.36-2.63.36-2.71.36-3.99.37-4.45.36-6.33.36 6.24.36-4.73.36-4.44.37 19.89.36-3.06.36-3.98.36-4.66.37 19.03.36-1.68.36-2.25.36-1.61.36-2.67.37-3.47.36-3.11.36-4.07.36 5.16.36-3.87.37-2.74.36-4.55.36-4.92.36-3.98.36-5.28.37 17.05.36-3.52.36-2.25.36-3.71.37-.5.36 14.76.36 8.38.36 1.07.36.37.37.2.36 1.96.36 5.02.36-.01.36-.48.37.58.36 1.08.36-.75.36-.39.36-1 .37-.43.36-.17.36-.98.36-.9.37-.72.36 7.42.36-.53.36-1.47.36-2.1.37.75.36-1.22.36-1.89.36-1.4.36-2.69.37-3.6.36 13.66.36 5.89.36-.72.36-1.75.37-.72.36-1.88.36 1.53.36 2.64.36-1.5.37-.4.36.86.36-1.94.36-2.52.37-1.45.36-3.66.36-5.25.36-3.85.36-5.92.37 36.01.36 5.5.36-5.04.36-.79.36-5.92.37 6.99.36-2 .36-4.77.36-4.61.36-7.21.37-7.38.36-6.95.36 19.58.36-2.22.37-7.06.36-6.55.36-4.75.36 7.26.36-5.73.37-7.16.36-5.21.36-7.74.36-7.43.36 11.41.37 41.47.36-2.19.36-3.9.36-2.2.36-4.28.37-4.25.36-4 .36 5.38.36-4.28.36-4.17.37-4.69.36-5.3.36-6.02.36-5.29.37 17.12.36-3.69.36-4.35.36-3.19.36-4.73.37-5.21.36-4.56.36 2.64.36 28.65.36-3.4.37-2.54.36-4.15.36 16.18.36-1.88.36.85.37.69.36.66.36.66.36 1.25.37.81.36 3.83.36.13.36-.71.36 1.07.37-.77.36-.44.36-1.58.36-2.42.36-1.85.37-2.82.36 5.77.36-.29.36-1.69.36-1.88.37 1.03.36-1.87.36-2.1.36-1.6.37-2.7.36 5.78.36-1.82.36.93.36-.85.37-1.73.36-2.51.36 3.26.36-.96.36-1.65.37-.5.36-.68.36-1.96.36-3.18.36-2.09.37-3.85.36 12.36.36-.53.36-1.91.36 1.14.37.5.36 1.52.36-.66.36-2.06.37-1.53.36 1.33.36-7.22.36 9.74.36 26.91.37-3.82.36-.6.36-4.81.36-4.73.36 4.25.37 1.91.36-3.57.36-4.84.36-4.06.36-1.75.37-4.5.36 11.74.36-4.33.36 7.65.37-3.4.36-3.19.36-3.13.36-4.4.36-4.57.37-6.45.36 6.73.36-4.99.36-4.69.36 19.28.37-2.04.36-4.25.36-4.77.36 19.15.36-1.43.37-2.12.36-1.62.36-2.95.36-3.59.36-3.25.37-4.07.36 4.7.36-3.9.36-2.84.37-4.37.36-4.85.36-4.8.36-5.1.36 16.79.37-3.15.36-2.8.36-3.56.36-4.25.36 15.87.37 11.71.36.68.36.16.36.04.36.16.37-.78.36 5.92.36 1.51.36.6.37.33.36-.38.36-.18.36 1.46.36-1.05.37-.31.36-1.2.36-.74.36-.41.36-1.38.37-2.09.36 4.03.36-.91.36-1.61.36-2.11.37 1.01.36-1.78.36-2.01.36-1.71.36-2.89.37 16.23.36-1.84.36 1.25.36-1.05.37-1.95.36 3.74.36-.6.36-1.48.36-2.33.37 1.43.36-1.72.36-2.64.36-1.9.36-3.77.37-5.42.36-3.18.36-4.45.36 36.84.36 14.63.37 1.44.36-5.5.36-8.45.36 9.78.37-5.41.36-6.23.36-5.4.36-7.22.36-7.53.37-1.8.36 18.59.36-.56.36-6.74.36-6.38.37-4.6.36 5.76.36-7.36.36-6.14.36-3.64.37-7.23.36-5.42.36-7.66.36 54.35.37-1.61.36-1.08.36-2.24.36-3.67.36-2.26.37-3.71.36-4.69.36-4.39.36 5.09.36-4.22.37-5.11.36-3.36.36-5.32.36-5.79.36-5.35.37 11.42.36-3.55.36-3.23.36-4.02.36-4.64.37-5.03.36 30.81.36 5.09.36-2.91.37-3.41.36 14.28.36-2.11.36-2.57.36.28.37-.14.36 1.15.36.37.36.12.36-.54.37.18.36-.85.36-1.29.36 2.54.36-.12.37-1.42.36-2.19.36-1.61.36-2.26.37 4 .36-.96.36-.84.36-1.93.36.54.37-1.34.36-2.2.36-1.37.36-2.65.36 6.79.37-1.75.36.15.36-.61.36-1.84.36-2.12.37 4.38.36-.94.36-2.12.36-.41.36-1.12.37-1.8.36-3.59.36-1.92.36-3.74.37-5.34.36 11.77.36-.06.36-1.73.36 3.25.37.43.36-1.38.36-2.24.36-1.32.36 1.13.37-3.02.36-4.69.36-8.43.36 14.15.36 29.75.37-.91.36-1.38.36-3.97.36-4.09.37 1.46.36-3.17.36-3.88.36-4.72.36-4.37.37-6.39.36-5.97.36 26.11.36-4.48.36-2.63.37-.76.36-3.29.36-4.67.36-6.07.36 5.02.37-4.6.36-4.49.36-5.34.36-4.37.36 26.64.37-4.87.36 7.08.36 7.86.36-2.19.37-2.04.36-2.69.36-3.38.36-3.98.36-3.12.37 5.54.36-3.52.36-3.14.36-3.81.36-4.75.37-5.42.36-4.11.36 16.47.36-3.31.36-2.5.37-3.67.36-4.22.36-3.87.36 13.21.37-1.26.36-2.21.36-1.92.36-1.09.36-2.21.37-2.52.36 2.62.36-1.98.36-2.37.36-2.84.37-2.59.36-3.73.36-1.25.36-2.83.36-3.73.37-4.68.36-3.21.36-3.74.36-4.72.37-5.67.36 78.88.36-1.3.36-1.62.36 5 .37-.5.36-1.53.36-2.14.36-1.53.36-2.59.37-.25.36 7.09.36-1.55.36-.03.36-.25.37-1.78.36-2.6.36 3.74.36-.71.36-2.2.37.45.36-1.17.36-3.04.36-1.24.37-4.07.36 36.59.36-.08.36-1.2.36 2.56.37 1.58.36-7.65.36-8.18.36 16.59.36-3.5.37-5.35.36-6.5.36-7.71.36-4.63.36-7.07.37 18.79.36-6.6.36 1.91.36-5.81.37-6.3.36-7.47.36 2.42.36-6.16.36-5.97.37-5.48.36-7.33.36 9.73.36 30.56.36 7.51.37-3.18.36-2.49.36-2.22.36-4.2.36-4.06.37-4.11.36 4.95.36-4.17.36-4.69.36-3.77.37-4.88.36-5.71.36-5.55.36 7.06.37 5.43.36-3.71.36-3.36.36-4.29.36-4.9.37 31.06.36-2.35.36 4.84.36-2.97.36-2.67.37-3.4.36 12.18.36-3 .36 1.23.36.56.37-.24.36-.46.36.35.36-.99.37 1.8.36-.12.36-1.14.36-1.64.36-1.87.37-1.89.36-2.06.36 5.68.36-.36.36-1.56.37-1.38.36.36.36-1.14.36-.95.36-1.4.37-.62.36-2.45.36-3.55.36 7.9.36-1.84.37 1.16.36-1.32.36-2.19.36 3.08.37-.62.36-1.61.36-2.38.36.26.36-1.57.37-2.72.36-1.92.36-3.96.36-4.88.36 10.85.37.98.36-1.14.36-2.82.36 4.54.36-.67.37-2.13.36 1.46.36-.68.36-2.35.37 17.96.36-5.51.36-7.8.36 44.19.36.56.37-1.66.36-2.04.36-4.26.36-4.57.36-6.63.37.38.36-6.13.36-7.9.36-5.96.36 7.79.37-4.37.36 21.02.36-4.49.36-4.67.37-6.4.36-7.06.36-1.31.36 5.65.36-4.64.37-5.95.36-4.61.36-6.35.36-6.65.36 40.25.37 6.66.36-2.15.36-2.84.36-1.58.36-3.28.37-4.2.36-3.58.36 4.69.36-3.54.36-4.31.37-2.98.36-4.94.36-5.26.36-4.69.37 3.03.36 9.13.36-2.92.36-3.45.36-4.46.37-4.68.36-3.98.36-5.16"/><use xlink:href="#a" color="#3B75EA" transform="matrix(3.75 0 0 3.75 354.25 155.1)"/><use xlink:href="#a" color="#3B75EA" transform="matrix(3.75 0 0 3.75 112.25 7.51)"/></g><text stroke-linecap="round" stroke-linejoin="round" color="#000" font-family="KaTeX_Main" font-size="8" transform="translate(132.8 25.11)"><tspan>LBSTTopDown</tspan></text><g fill="none" stroke="currentColor" stroke-linecap="round" stroke-linejoin="round" color="#000"><path stroke="#F44336" stroke-dasharray="4.5,2.0,0.5,2.0,0.5,2.0" d="M97.3 22.51h29.9M28 142.33l.36-9.67.36.1.37-7.33.36-10.44.36 6.08.36 11.04.36-4.84.37-5.2.36-4.92.36-.24.36-6.54.37-6.93.36-7.54.36 5.96.36 11.87.36-4.4.37-2.88.36-5.6.36-4.66.36 9.59.36 8.71.37-1.74.36-3.8.36-2.38.36-4.41.36-3.77.37-3.98.36 4.91.36-3.81.36-5.55.36-2.92.37-5.12.36-6.74.36 47.82.36 19.35.37-1.4.36-1.52.36-1.83.36-2.42.36-3.9.37-2.8.36 4.8.36-2.65.36-4.11.36-1.88.37 9.3.36-2.86.36-1.9.36 4.45.36 11.3.37-1.17.36-.11.36-.86.36-.22.37-1.31.36-1.36.36-1.67.36.38.36-.66.37-1.68.36-1.57.36-1.17.36-2.11.36 18.15.37-.18.36.37.36-1.22.36-1.5.36-2.31.37 9.63.36-.56.36-.28.36-1.18.37.34.36-.86.36-.17.36-1.58.36-2.11.37-3.08.36-4.07.36-3.49.36 1.42.36-3.52.37-2.32.36-4.01.36-4.83.36 27.22.36.89.37 1.21.36-1.02.36 4.89.36-.9.36 1.54.37-1.43.36-1.94.36-3.82.36 17.78.37-.54.36 4.98.36.02.36.56.36-2.18.37-2.89.36-1.89.36-3.06.36-2.06.36-4.04.37-5 .36-7.34.36-6.95.36.74.36-6.94.37 16.77.36.09.36-6.46.36-6.94.37-6.04.36 5.75.36-5.31.36-5.54.36-5.75.37-2.46.36-6.92.36-7.24.36 44.69.36 7.42.37-1.35.36-3.33.36-2.3.36-4.24.36-4.01.37-4.31.36 4.99.36-3.46.36-5.06.36-3.41.37-5.41.36-5 .36-5.35.36 15.31.37-3.07.36-4.3.36-2.91.36-4.48.36-3.82.37-4.74.36 20.49.36 5.05.36-3.58.36-1.7.37 1.13.36.4.36.13.36 6.12.36.36.37.46.36 2.53.36 1.17.36.09.37-.01.36.48.36-.22.36-.44.36-1.68.37-1.89.36 1.51.36-1.14.36-1.84.36-2.41.37 4.94.36-1.38.36-1.59.36-2.37.36 1.23.37-1.49.36-2.6.36-1.74.36-3.05.36 7.59.37-2.3.36.78.36-.93.36-2.3.37-1.21.36 2.45.36-1.64.36-2.33.36.37.37-1.7.36-2.91.36-2.15.36-4.1.36-5.77.37 57.84.36-1.6.36 1.55.36 1.49.36 1.86.37-.66.36.3.36-9.87.36-7.17.37-6.95.36-6.48.36 1.48.36 20.12.36-4.96.37-5.61.36-5.47.36-1.49.36-5.93.36-5.35.37-7.21.36 3.47.36-4.16.36-6.81.36 27.76.37-4.22.36-3.51.36-4.67.36 2.19.37 7.97.36-2.57.36-2.72.36-2.85.36-3.26.37-4.04.36-6.03.36 5.46.36-4.19.36-3.55.37-4.6.36-4.42.36-5.1.36-7.46.36 8.78.37 4.94.36-3.56.36 48.24.36-3.13.36-2.72.37-4.09.36-1.78.36 4.17.36-2.77.37-2.42.36-4.32.36-3.75.36-5.05.36-3.74.37.2.36.36.36-.79.36-.76.36-.38.37-1.26.36 11.98.36-2 .36-1.32.36-2.5.37 5.33.36-.56.36-1.61.36-2.13.37-1.92.36-2.88.36-.48.36-2.87.36 8.17.37-1.27.36-.36.36.03.36-1.86.36-2.35.37 3.27.36-.78.36-2.2.36-2.21.36 1.38.37-1.41.36-2.74.36-1.91.36-3.43.36-4.51.37-4.98.36 15.09.36-.4.36-2.11.37 3.65.36.22.36-1.21.36-2.2.36.95.37-.97.36-2.63.36 14.88.36.04.36-1.17.37-.13.36-2.68.36-8.71.36 12.98.36 28.71.37-2.34.36-1.94.36-3.54.36-.49.37-4.52.36-5.66.36-4.65.36-3.22.36-6.26.37-5.79.36-4.56.36 30.84.36-3.93.36-3.15.37-2.75.36-4.84.36-4.92.36-7.26.36 6.82.37-5.15.36-5.1.36-4.2.36-6.19.36 26.03.37-4.91.36 17.79.36-2.88.36-1.6.37-1.8.36-3.73.36-2.94.36-4.38.36 5.1.37-3.47.36-4.78.36-2.26.36-5.36.36-4.49.37-4.5.36 2.39.36 9.45.36-4.41.36-2.06.37-4.07.36-5.31.36 20.02.36-3.63.37 1.87.36.07.36 9.27.36 1.02.36.33.37.21.36 1.95.36 4.93.36-.03.36-.55.37.45.36.92.36-.59.36.08.36-1.02.37 2.88.36-.41.36-1.49.36-2.25.37-.79.36-2.5.36 3.13.36 1.27.36-1.91.37.16.36-1.1.36-1.99.36-2.8.36-1.89.37 6.3.36-1.89h.36l.36-.64.36-1.74.37-2.22.36 4.16.36-.74.36-2.32.36.39.37-.97.36-2.47.36-1.95.36-3.13.37-4.93.36 43.04.36 2.35.36.48.36-1.13.37 2.75.36.54.36 11.14.36-4.04.36-4.05.37-5.83.36-6.74.36-7.53.36-9.68.36 17.46.37.13.36-4.43.36-6.98.36-8.45.37 7.58.36-6.72.36-6.57.36-6.86.36-6.75.37-8.08.36-9.35.36 60.08.36-3.46.36-2.66.37-2.96.36-4.08.36-4.68.36-6.71.36 6.47.37-3.42.36-5.14.36-3.92.36-6.14.36-5.91.37-6.82.36 17.4.36-4.56.36-3.23.37-3.67.36-5.3.36-5.07.36-5.57.36 3.32.37 36.29.36-2.88.36-2.82.36-4.25.36 17.45.37-3.73.36-1.93.36 17.62.36-2.04.36.12.37.11.36.65.36-.1.36 1.49.37-.44.36.11.36-1.24.36-1.54.36-1.34.37-1.95.36-.26.36 4.05.36-.41.36-1.19.37-.45.36.55.36-1.26.36-.98.36-.72.37-1.92.36-2.88.36 7.28.36-1.87.37 1.3.36-.6.36-2.08.36-1.77.36 4.24.37-.41.36-2.1.36.63.36-.85.36-1.9.37-2.48.36-1.73.36-3 .36-5.11.36 25.36.37.31.36-.87.36-2.09.36 4.44.36.47.37-1.75.36-.58.36-2.41.36 2.51.37 17.48.36.53.36-1.5.36-5.96.36-2.22.37-3.47.36-3.42.36 5.6.36-3.84.36-4.97.37-7.43.36-6.87.36 2.85.36-6.17.36 10.98.37-5.21.36 9.28.36-2.66.36-4.75.37-2.93.36-5.81.36-5.43.36-6.19.36 5.67.37-4.09.36-6.14.36 20.8.36-4.26.36-4.49.37-5.05.36 21.55.36-1.96.36-3.11.36-1.81.37-3.56.36-3.04.36-3.27.36 3.61.36-3.53.37-4.81.36-2.26.36-5.33.36-4.74.37-4.69.36 5.81.36 5.63.36-4.27.36-1.86.37 16.83.36-2.36.36-2.02.36 4.36.36-.09.37-.04.36.48.36-.36.36 1.94.36 4.98.37.74.36.36.36-.62.36.5.37-.85.36 1.38.36-.3.36-1.18.36-1.83.37.67.36-1.36.36-1.62.36 3.01.36-.95.37-1.06.36-2.07.36.71.36-.97.36-2.1.37-2.43.36-1.85.36 16.22.36-1.72.36 1.03.37-.62.36-1.62.36-2.38.36 4.11.37-.75.36-1.92.36.6.36-.84.36-2.23.37-1.46.36-3.19.36-4.67.36-5.78.36-1.33.37-4.53.36 43.27.36 15.11.36.58.36-.31.37.1.36-6.41.36-6.42.36-7.52.37-7.53.36-6.66.36-7.23.36-1.3.36 17.79.37-1.26.36-6.94.36-9.46.36-8.95.36 14.06.37-6.02.36-6.7.36-7.41.36-6.32.36-7.13.37-9.1.36 58.54.36-2.82.36-2.78.37-2.99.36-2.94.36-3.84.36-4.99.36-4.57.37 4.75.36-3.86.36-4.13.36-6.05.36-5.86.37-7.47.36-4.51.36 17.02.36-3.27.36-3.37.37-5.16.36-5.05.36-5.08.36-5.16.36 45.19.37-4.27.36-2.72.36-4.17.36 15.87.37-3.4.36-1.82.36 17.72.36-1.3.36.99.37.21.36-.1.36.12.36-.79.36-.91.37-1.22.36 4.84.36-.83.36-1.65.36-1.85.37-1.39.36-2.44.36 6.45.36-.26.37-1.36.36-1.75.36.9.36-1.81.36-1.84.37-1.28.36-3.06.36 6.87.36-1.17.36 1.39.37-.58.36-1.91.36-.89.36 3.76.36-1.06.37-2.03.36.5.36-.55.36-1.98.36-2.62.37-1.85.36-3.63.36-5 .36 23.36.37.07.36-1.51.36 2.41.36 2.1.36-.56.37-1.21.36-.74.36-2.6.36 1.63.36 19.74.37 1.06.36-3.11.36-5.82.36-2.99.36-.58.37-4.69.36 5.13.36-5.01.36-4.62.37-4.38.36-6.65.36-.91.36-5.96.36 21.57.37-4.44.36-3.33.36-5.29.36-7.69.36-5.8.37-3.63.36 1.4.36-4.72.36-6.43.36-5.13.37-7.14.36 42.11.36-2.63.36 7.41.36-1.9.37-3.7.36-1.73.36-3.97.36-3.6.37-5.14.36 5.71.36-3.81.36-5.02.36-3.17.37-5.07.36-5.04.36-4.65.36 15.37.36-3.02.37-3.97.36-2.55.36-4.91.36-4.77.36 22.48.37-3.63.36 5.45.36-2.71.36.06.37 1.41.36 1.24.36.12.36-.32.36 5.24.37.65.36.03.36-.32.36.32.36-.48.37 1.5.36.14.36-1.47.36-1.19.36.01.37-1 .36-1.42.36-2.83.36 4.44.37-1.05.36-2.13.36.78.36-1.03.36-1.8.37-2.2.36-1.37.36 6.16.36-1.76.36-2.08.37 1.28.36-1.32.36-2.29.36 2.45.36-.4.37-1.88.36-2.81.36.75.36-1.36.36-2.92.37-2.17.36-4.12.36 46.79.36.3.37-2.22.36 2.21.36 3.58.36.84.36-.52.37-.53.36-7.83.36-9.41.36-5.38.36-9.06.37-.1.36 19.75.36 1.01.36-4.87.36-7.29.37-6.84.36.24.36-4.32.36-6.79.37-7.94.36 5.09.36-6.53.36-5.77.36 30.23.37-4.81.36-5.42.36 4.66.36 7.26.36-3.3.37-2 .36-2.78.36-4 .36-4.67.36-5.83.37 6.42.36-4.2.36-4.28.36-3.6.36-5.45.37-5.44.36-6.84.36 8.38.36 4.7.37-3.24.36-2.66.36 42.37.36-2.92.36-3.97.37-2.49.36 4.72.36-2.86.36-3.27.36-3.27.37 7.3.36-3.32.36-1.16.36.38.36.4.37-.58.36-.84.36-.17.36-1.48.37-2.01.36-1.39.36-2.46.36-.31.36 7.65.37-.68.36-.84.36-2.54.36-2.02.36-2.91.37.11.36-2.58.36-3.36.36-3.55.36 10.26.37.38.36-.9.36-.94h.36l.36-2.25.37 3.59.36-1.38.36-1.93.36-.28.37-1.21.36-2.18.36-2.95.36-2.26.36-3.91.37-5.03.36 15.15.36-.83.36-1.67.36 1.29.37 1.11.36-1.15.36-2.72.36 1.58.36-1.01.37-2.59.36 16.88.36.3.36-1.58.37-.44.36-8.96.36 40.29.36 1.85.36-1.37.37-2.16.36-4.43.36-4.69.36-.58.36-3.86.37-5.46.36-.9.36-4.08.36-6.14.36-6.92.37 25.65.36-2.95.36-3.01.36-5.15.37-1.56.36-7.36.36-2.99.36-3.26.36 6.4.37-4.79.36-6.02.36-4.58.36 25.68.36-3.52.37 5.09.36 6.26.36-2.11.36-3.33.36-.65.37-4.16.36-4 .36-3.42.36 4.8.36-2.8.37-4.07.36-3.41.36-4.75.36-5.92.37-3.96.36 15.61.36-2.76.36-3.19.36-3.23.37-4.25.36 17.5.36-1.89"/><use xlink:href="#d" color="#F44336" transform="matrix(3.75 0 0 3.75 67.83 138.09)"/><use xlink:href="#d" color="#F44336" transform="matrix(3.75 0 0 3.75 112.25 22.51)"/></g><text stroke-linecap="round" stroke-linejoin="round" color="#000" font-family="KaTeX_Main" font-size="8" transform="translate(241.1 10.11)"><tspan>WBSTBottomUp</tspan></text><g fill="none" stroke="currentColor" stroke-linecap="round" stroke-linejoin="round" color="#000"><path stroke="#000" d="M205.6 7.51h29.9M28 124.98l.36.92.36-6.68.37-9.37.36-9.18.36-6.53.36-9.21.36 5.32.37-7.96.36-3.03.36-10.09.36 26.08.37-3.95.36-6.66.36 56.44.36-8.91.36-1.78.37 10.65.36-6.59.36-3.47.36-6.34.36 4.38.37-2.12.36-6.35.36 18.13.36-6.25.36-1.41.37-6.35.36 4.15.36-6.69.36-.27.36-5.85.37-4.26.36-6.04.36 1.08.36-6.22.37-2.52.36-6.84.36 12.91.36-3.38.36-5.09.37.98.36-4.72.36-2.05.36-6.03.36 36.06.37-2.92.36-4.68.36-4.63.36 3.47.36-3.92.37-1.48.36-1.42.36-1.88.36-1.82.37-.69.36-2.56.36-2.35.36-1.94.36-3.15.37 1.82.36-2.32.36-3.4.36-3.7.36 38.51.37-1.53.36-1.68.36 6.86.36 1.26.36-.68.37-.62.36-1.11.36 2.94.36-.49.37.04.36-1.77.36-1.59.36-2.44.36-3.59.37-3.15.36 16.62.36-.74.36 3 .36-.45h.37l.36-1.23.36-1.56.36 7.36.36-.59.37.87.36-1.34.36 3.98.36-.9.36.18.37-1.94.36-3.36.36-4.14.36-2.62.37-4.77.36-.42.36-4.87.36 19.69.36-6.03.37-10.86.36 6.73.36-8.78.36-6.53.36-8.83.37-11.89.36-.18.36-5.31.36-7.54.36-9.28.37 17.75.36-6.32.36-9.36.36-8.28.37 43.64.36-6.17.36 5.16.36-7.21.36-1.41.37 34.38.36-4.61.36 10.7.36.18.36 6.25.37-4.08.36 1.48.36-4.69.36-3.38.36-1.18.37-5.75.36-4.93.36 6.55.36-3.81.36-4.17.37-6.56.36-2.05.36-6.81.36 32.51.37-1.78.36-3.14.36-4.66.36 14.7.36-.57.37-4.11.36 3.56.36-1.54.36-2.23.36-3.59.37-1.01.36-1.57.36 5.12.36-1.24.36-1.59.37-.83.36-2.06.36 1.37.36-1.97.37-2.26.36-1.33.36-2.38.36-3.42.36-3.98.37 9.9.36.46.36-1.57.36-1.92.36-.19.37-2.53.36 4.05.36-.92.36-2.26.36-1.76.37.84.36-3.06.36-1.84.36-3.62.36-3.94.37 40.71.36-.61.36 1.87.36-1.48.37-2.05.36-1.06.36 4.57.36-1.94.36-.68.37 1.08.36-1.66.36-1.3.36-3.57.36 15.35.37-1.49.36-.92.36 2.33.36-2.17.36-1.35.37 6.32.36-2.08.36-6.08.36-10.37.37-11.26.36 6.53.36-8.88.36 19.26.36-5.56.37 3.55.36-8.32.36-6.79.36-4.82.36-7.61.37-9.97.36-9.91.36 5.38.36-9.37.36 15.04.37-3.95.36-5.82.36-7.6.36-4.8.37-8.72.36 49.62.36-6.68.36-1.27.36-7.1.37-6.47.36-3.72.36-7.1.36-7.87.36 19.77.37-.66.36-5.69.36-5.47.36-6.52.36-3.13.37 1.58.36-6.75.36-2.06.36-6.23.36-6.92.37 51.99.36 21.46.36 3.36.36-1.25.37-2.91.36-4.19.36 13.6.36-.04.36-3.8.37.28.36 1.86.36-.39.36-.39.36.05.37-1.04.36-1.69.36-1.85.36-1.62.36-.06.37-2.29.36-2.51.36 6.03.36-1.88.37-2.57.36-1.79.36-.54.36-2.84.36-3.5.37 10.25.36-1.75.36-.94.36 1.4.36-2.3.37-.94.36 3.73.36-1.8.36-2.05.36-.84.37 1.49.36-2.64.36-1.38.36-3.58.36-4.03.37-4.75.36-4.12.36 36.07.36 1.42.37-.23.36-2.03.36 6.08.36-1.81.36-.62.37 1.75.36-2.07.36-.78.36-3.11.36 17.24.37.53.36-2.23.36 5.95.36-2.29.36-7.96.37-5.75.36-11.05.36 2.92.36-.68.37-9.14.36 17.82.36.11.36-7.02.36-7.09.37-9.68.36-2.45.36-7.82.36 3.46.36-2.14.37-7.11.36 5.74.36-6.58.36-2.03.36 3.94.37-7.16.36-1.44.36-6.94.36 37.43.36-1.02.37-5.63.36-6.07.36 3.39.36-.67.37-5.08.36-7.19.36-2.72.36-7.69.36 1.9.37-2.54.36-6.51.36-6.84.36 15.37.36-4.85.37-.06.36-4.4.36-2.4.36-5.99.36-5.78.37-4.57.36-5.35.36.1.36-6.44.37-.86.36-2.85.36-2.34.36 56.76.36 3.08.37-.59.36-.03.36-.92.36.93.36-1.25.37-.82.36-1.81.36-2.35.36-2.36.36-.74.37-2.59.36 3.58.36-1.03.36-2.73.37-2.98.36.93.36-2.77.36-1.77.36-4.18.37 8.44.36-1.19.36-2.65.36.38.36-2.88.37-2.1.36 4.99.36-2.79.36-1.55.36-3.7.37.52.36-3.42.36-2.36.36-4.82.36-5.87.37-5.57.36-2.81.36 73.04.36-.73.37-2.84.36 4.74.36-2.12.36-.34.36 1.29.37-2.34.36-1.58.36-6.15.36 19.34.36-6.03.37-9.31.36 3.85.36-9.45.36-2.84.36-10.1.37-7.54.36-9.8.36-7.2.36-10.35.37 23.06.36-5.7.36-4.49.36-6.92.36-8.16.37-6.21.36 42.39.36 4.02.36-6.99.36-3.34.37-5.47.36-7.01.36-5 .36-6.57.36 47.71.37-6.06.36 19.39.36-4.51.36-3.11.36-.77.37-5.52.36 4.02.36-5.65.36-.29.37-5.88.36-4.65.36 23.76.36-4.87.36 3.92.37-4.5.36-.01.36 12.09.36-2.13.36-.37.37-4.31.36 3.49.36-1.23.36-2.58.36-.9.37-1.2.36-1.66.36-1.52.36-1.99.37-.4.36-2.38.36 5.61.36-1.28.36-2.17.37-2.36.36-2.4.36-.47.36-2.94.36-2.67.37 8.91.36-2.37.36 1.32.36-1.55.36-2.43.37-1.22.36 4.26.36-1.45.36-2.62.37-1.06.36.78.36-2.51.36-2.66.36-1.97.37-3.19.36-5.12.36 40.65.36-2.08.36 1.62.37-1.76.36-.89.36-2.22.36 5.18.36-.48.37-2.47.36 2 .36-2.12.36-1.26.36-3.25.37 18.88.36-.55.36 2.05.36-1.62.37-.5.36-3.29.36-8.61.36-5.11.36-9.63.37 3.46.36-9.98.36-8.7.36 18.58.36-1.91.37 1.31.36-8.82.36.29.36-7.45.36-7.22.37-2.09.36-9.59.36-9.13.36-5.61.37 11.79.36-7.8.36 8.23.36-5.26.36-7.79.37 39.44.36-1.59.36-6.34.36 3.96.36-2.69.37-4.51.36-6.95.36-5.65.36-3.33.36-7.56.37 1.87.36-3.14.36-6.41.36 12.84.36-3.48.37-5.19.36-7.26.36 2.59.36-2.21.37-6.25.36-5.7.36-7.94.36-3.17.36-.82.37-5.22.36 56.19.36 22.88.36-3.59.36 3.76.37 16.37.36.15.36 1.64.36-.54.36-.63.37-.48.36-.91.36-1.98.36-1.41.37-2.42.36-.32.36 4.1.36-.73.36-1.94.37-2.12.36.37.36-1.82.36-.99.36-2.58.37-3.69.36 10.94.36-2.22.36-1.09.36 1.17.37-2.18.36-1.23.36 5.03.36-2.15.36-.6.37-2.8.36 1.09.36-3.06.36-2.08.37-3.44.36-5.23.36-4.05.36 30.57.36-1.28.37-.35.36-2.34.36 5.37.36-1.57.36-.04.37 2 .36-1.67.36-1.07.36-3.3.36 21.34.37.7.36-2.47.36-6.88.36 3.06.37.28.36-5.55.36-8.27.36-8.15.36 7.01.37-4.79.36 13.75.36-4.4.36-.33.36-6.76.37-6.56.36-3.13.36-7.51.36 4.29.36-7.98.37-2 .36-6.62.36 6.03.36-1.59.37-7.11.36 3.81.36-2.22.36-4.94.36-5.69.37 34.83.36-1.27.36-6.45.36 4.03.36-.71.37-5.44.36-5.5.36-3.66.36-5.28.36-7.58.37 2.74.36-2.97.36-6.85.36 12.38.36-3.2.37-4.94.36 2.02.36-5.29.36-3.31.37-4.75.36-5.47.36-4.08.36-5.97.36-2.71.37-.68.36-3.04.36-2.93.36-2.63.36 3.16.37-3.25.36 55.57.36-.77.36 1.91.36-.84.37-.46.36-1.4.36-2.12.36-2.22.37 1.54.36-2.11.36-2.62.36 3.96.36-1.7.37-1.21.36-1.82.36.56.36-2.36.36-1.4.37-2.81.36-4.4.36 8.81.36-1.25.36-2.59.37.94.36-2.66.36-1.7.36 4.08.36-3.01.37-1.29.36-3.62.36.48.36-3.44.37-2.74.36-4.63.36-5.69.36-5.64.36-3.34.37 70.87.36-.68.36-2.8.36 7.23.36-.47.37-2.84.36.61.36-5.81.36-10.92.36 20.69.37-5.52.36 1.51.36-8.26.36-8.26.37-5.03.36-7.92.36-1.51.36-4.63.36-7.13.37-10.18.36 13.63.36-3.44.36-6.99.36-7.82.37-10.01.36 44.52.36 2.26.36-5.38.36-1.48.37-6.92.36-6.68.36-3.16.36 7.8.36-5.87.37 3.07.36-.7.36-5.96.36-6.1.37-2.65.36-7.1.36 53.75.36-4.94.36-.57.37-5.66.36-4.27.36-2.54.36-6.25.36 1.94.37 26.21.36-2.48.36 13.31.36-4.04.36.14.37-4.41.36 4.01.36-1.34.36 1.27.37-.35.36-.22.36-1.12.36-1.61.36-1.96.37-1.54.36.45.36-2.21.36-1.54.36 5.01.37-1.7.36-2.44.36-1.6.36-2.7.36-.75.37-2.83.36-2.98.36 9.66.36-2.27.37 2.1.36-1.97.36-.78.36-2.58.36 4.26.37-1.86.36-1.01.36-2.51.36.48.36-2.7.37-1.8.36-3.89.36-5.06.36 36.41.36-.59.37 2.17.36-1.94.36-.9.36 5.11.36-1.57.37-.58.36-1.95.36 1.77.36-.87.37-3.03.36 16.45.36-1.42.36-.36.36 3.01.37-1.99.36-5.15.36-5.65.36-9.63.36-9.23.37 1.58.36-3.24.36-9.76.36 19.92.36 1.04.37-7.76.36.24.36-8.19.36-6.59.37-2.48.36-9.52.36-8.12.36-11.08.36 16.92.37 1.56.36-5.8.36-1.41.36-8.01.36 37.16.37-2.14.36-5.74.36 4.19.36-6.46.36-1.29.37-6.42.36-6.02.36-2.54.36-7.43.36-7.04.37 4.35.36-5.53.36-6.89.36 13.77.37-3.75.36-5.15.36 1.65.36-3.24.36-4.73.37-6.48.36-6.08.36-4.19.36 18.86.36-5.38.37 4.07.36-4 .36-5.66.36-2.49.36 63.75.37-.27.36-.31.36.12.36 1.75.37-.92.36-.61.36-.47.36-1.79.36-1.9.37-1.84.36-1.58.36-.45.36 4.23.36-1.06.37-1.94.36-2.67.36-2.42.36.58.36-3.12.37-2.78.36-3.8.36 11.03.36-2.37.36 1.77.37-2.42.36-1.32.36-2.77.36 4.53.37-2.39.36-1.47.36.47.36-2.78.36-1.98.37-3.87.36-4.35.36-5.72.36-5.17.36 33.45.37-2.47.36-1.45.36 5.29.36-2.48.36-.69.37 1.7.36-2.36.36-1.24.36-3.64.37 21.28.36 24.08.36-.6.36 4.29.36-3.6.37-5.86.36-8.05.36-.08.36-1.81.36-4.83.37-8.63.36 1.31.36 16.56.36-4.53.36.2.37-7.11.36-7.03.36-1.57.36-7.62.37-7.56.36 3.74.36-1.76.36-8.04.36-7.07.37-3.99.36-9 .36-8.46.36 24.8.36-4.99.37 37.8.36-5.74.36-.92.36-6.12.36 3.92.37-.63.36-5.39.36-5.03.36-6.91.36-2.35.37 2.02.36-6.27.36-2.52.36-6.29.37-6.34.36 14.88.36-4.5.36-5.22.36 1.1.37-1.93.36-5.51.36-5.68"/><use xlink:href="#b" transform="matrix(3.75 0 0 3.75 125.4 125.12)"/><use xlink:href="#b" transform="matrix(3.75 0 0 3.75 220.55 7.51)"/></g><text stroke-linecap="round" stroke-linejoin="round" color="#000" font-family="KaTeX_Main" font-size="8" transform="translate(241.1 25.11)"><tspan>WBSTTopDown</tspan></text><g fill="none" stroke="currentColor" stroke-linecap="round" stroke-linejoin="round" color="#000"><path stroke="#29C3F6" stroke-dasharray="4.0,2.0,1.0,2.0" d="M205.6 22.51h29.9M28 124.27l.36.95.36-6.59.37-9.4.36-9.17.36-6.51.36-9.19.36 5.34.37-7.96.36-3.06.36-10.1.36 26.11.37-3.99.36-6.65.36 56.43.36-8.93.36-1.77.37 10.62.36-6.6.36-3.49.36-6.33.36 4.38.37-2.12.36-6.37.36 18.14.36-6.24.36-1.36.37-6.35.36 4.16.36-6.68.36-.23.36-5.84.37-4.27.36-6.06.36 1.08.36-6.24.37-2.53.36-6.83.36 12.91.36-3.4.36-5.09.37.96.36-4.71.36-2.06.36-6.04.36 36.06.37-2.92.36-4.68.36-4.63.36 3.47.36-3.91.37-1.46.36-1.33.36-1.88.36-1.07.37-2.76.36-.84.36-2L49 92.1l.36-2.43.37 1.47.36-2.13.36-3.39.36-3.67.36 38.51.37-1.55.36-1.65.36 6.87.36 1.24.36-.69.37-.63.36-1.14.36 2.97.36-.5.37.03.36-1.77.36-1.57.36-2.44.36-3.57.37-3.13.36 16.57.36-.68.36 3 .36-.49.37-.01.36-1.24.36-1.52.36 7.39.36-.58.37.86.36-1.33.36 3.96.36-.91.36.19.37-1.95.36-3.36.36-4.11.36-2.6.37-4.79.36-.36.36-4.88.36 19.69.36-6.06.37-10.88.36 6.73.36-8.8.36-6.55.36-8.8.37-11.86.36-.2.36-5.3.36-7.56.36-9.29.37 17.77.36-6.34.36-9.35.36-8.31.37 43.62.36-6.19.36 5.2.36-7.18.36-1.46.37 34.35.36-4.59.36 10.67.36.18.36 6.25.37-4.08.36 1.5.36-4.68.36-3.37.36-1.19.37-5.76.36-4.93.36 6.56.36-3.79.36-4.19.37-6.57.36-2.07.36-6.81.36 32.52.37-1.8.36-3.14.36-4.66.36 14.71.36-.57.37-4.09.36 3.56.36-1.58.36-2.25.36-3.57.37-.98.36-1.57.36 5.13.36-1.26.36-1.58.37-.82.36-2.07.36 1.4.36-1.99.37-2.25.36-1.34.36-2.37.36-3.43.36-3.98.37 9.92.36.46.36-1.58.36-1.91.36-.19.37-2.55.36 4.05.36-.93.36-2.24.36-1.79.37.88.36-3.04.36-1.84.36-3.63.36-3.91.37 40.69.36-.61.36 1.88.36-1.48.37-2.09.36-1.06.36 4.55.36-1.94.36-.66.37 1.05.36-1.62.36-1.27.36-3.59.36 15.36.37-1.45.36-.9.36 2.3.36-2.19.36-1.38.37 6.3.36-2.06.36-6.03.36-10.39.37-11.26.36 6.58.36-8.9.36 19.24.36-5.6.37 3.52.36-8.32.36-6.78.36-4.79.36-7.65.37-9.95.36-9.86.36 5.37.36-9.38.36 15.03.37-3.95.36-5.8.36-7.58.36-4.8.37-8.73.36 49.59.36-6.7.36-1.26.36-7.05.37-6.48.36-3.72.36-7.12.36-7.87.36 19.77.37-.7.36-5.68.36-5.47.36-6.54.36-3.1.37 1.54.36-6.74.36-2.05.36-6.24.36-6.93.37 52 .36 21.46.36 3.34.36-1.26.37-2.88.36-4.2.36 13.62.36-.07.36-3.8.37.28.36 1.87.36-.39.36-.39.36.03.37-1.05.36-1.7.36-1.87.36-1.6.36-.05.37-2.3.36-2.5.36 6.04.36-1.88.37-2.56.36-1.79.36-.53.36-2.86.36-3.49.37 10.25.36-1.74.36-.96.36 1.38.36-2.25.37-.94.36 3.72.36-1.79.36-2.03.36-.83.37 1.46.36-2.64.36-1.38.36-3.57.36-4.04.37-4.73.36-4.11.36 36.02.36 1.43.37-.23.36-2 .36 6.08.36-1.83.36-.64.37 1.78.36-2.05.36-.74.36-3.08.36 17.23.37.48.36-2.21.36 5.98.36-2.31.36-7.97.37-5.73.36-11.1.36 2.9.36-.71.37-9.11.36 17.82.36.07.36-7.01.36-7.1.37-9.65.36-2.43.36-7.79.36 3.43.36-2.1.37-7.13.36 5.74.36-6.6.36-1.98.36 3.91.37-7.15.36-1.44.36-6.95.36 37.45.36-1.03.37-5.64.36-6.05.36 3.37.36-.65.37-5.06.36-7.17.36-2.74.36-7.69.36 1.92.37-2.54.36-6.49.36-6.85.36 15.37.36-4.85.37-.04.36-4.42.36-2.41.36-6 .36-5.79.37-4.57.36-5.36.36.07.36-6.44.37-.87.36-2.86.36-2.37.36 56.77.36 3.06.37-.57.36-.04.36-.88.36.94.36-1.25.37-.81.36-1.81.36-2.37.36-2.35.36-.74.37-2.58.36 3.59.36-1.02.36-2.72.37-2.97.36.95.36-2.78.36-1.78.36-4.19.37 8.42.36-1.18.36-2.65.36.36.36-2.86.37-2.11.36 5.01.36-2.8.36-1.56.36-3.73.37.51.36-3.39.36-2.38.36-4.8.36-5.9.37-5.58.36-2.82.36 73.05.36-.69.37-2.83.36 4.72.36-2.14.36-.3.36 1.33.37-2.33.36-1.55.36-6.17.36 19.33.36-6.02.37-9.28.36 3.81.36-9.46.36-2.87.36-10.09.37-7.49.36-9.81.36-7.24.36-10.41.37 23.01.36-5.69.36-4.54.36-6.92.36-8.15.37-6.2.36 42.38.36 4.01.36-7.01.36-3.36.37-5.49.36-7.02.36-5.01.36-6.58.36 47.73.37-6.02.36 19.4.36-4.51.36-3.14.36-.75.37-5.52.36 4.02.36-5.65.36-.28.37-5.85.36-4.67.36 23.76.36-4.87.36 3.93.37-4.52.36-.03.36 12.12.36-2.14.36-.38.37-4.32.36 3.47.36-1.2.36-2.59.36-.9.37-1.22.36-1.64.36-1.53.36-1.98.37-.42.36-2.35.36 5.58.36-1.3.36-2.18.37-2.36.36-2.4.36-.46.36-2.95.36-2.65.37 8.91.36-2.35.36 1.31.36-1.55.36-2.43.37-1.24.36 4.24.36-1.45.36-2.6.37-1.05.36.79.36-2.5.36-2.69.36-1.97.37-3.2.36-5.1.36 40.65.36-2.06.36 1.63.37-1.77.36-.89.36-2.2.36 5.17.36-.46.37-2.49.36 2 .36-2.15.36-1.25.36-3.23.37 18.92.36-.56.36 2.04.36-1.59.37-.51.36-3.27.36-8.6.36-5.06.36-9.68.37 3.44.36-9.98.36-8.72.36 18.57.36-1.91.37 1.3.36-8.84.36.29.36-7.49.36-7.19.37-2.07.36-9.55.36-9.12.36-5.63.37 11.77.36-7.79.36 8.21.36-5.27.36-7.76.37 39.42.36-1.59.36-6.33.36 3.96.36-2.71.37-4.48.36-6.94.36-5.64.36-3.34.36-7.55.37 1.88.36-3.15.36-6.38.36 12.82.36-3.48.37-5.23.36-7.24.36 2.58.36-2.22.37-6.26.36-5.7.36-7.93.36-3.17.36-.83.37-5.24.36 56.2.36 22.88.36-3.61.36 3.78.37 16.36.36.16.36 1.64.36-.58.36-.62.37-.48.36-.92.36-1.97.36-1.42.37-2.45.36-.3.36 4.12.36-.72.36-1.95.37-2.11.36.37.36-1.83.36-.99.36-2.56.37-3.68.36 10.95.36-2.22.36-1.07.36 1.18.37-2.17.36-1.23.36 5.04.36-2.14.36-.6.37-2.77.36 1.06.36-3.09.36-2.12.37-3.43.36-5.23.36-4.02.36 30.6.36-1.29.37-.4.36-2.34.36 5.37.36-1.58.36-.04.37 2.02.36-1.64.36-1.05.36-3.34.36 21.36.37.71.36-2.52.36-6.86.36 3.11.37.25.36-5.55.36-8.28.36-8.21.36 7 .37-4.77.36 13.76.36-4.41.36-.32.36-6.78.37-6.56.36-3.13.36-7.51.36 4.27.36-7.98.37-1.97.36-6.64.36 6.01.36-1.59.37-7.11.36 3.8.36-2.24.36-4.95.36-5.68.37 34.82.36-1.24.36-6.46.36 4.05.36-.75.37-5.45.36-5.48.36-3.66.36-5.29.36-7.58.37 2.73.36-2.97.36-6.85.36 12.39.36-3.2.37-4.93.36 2.03.36-5.34.36-3.32.37-4.74.36-5.49.36-4.07.36-5.96.36-2.73.37-.67.36-3.02.36-2.92.36-2.61.36 3.15.37-3.25.36 55.54.36-.77.36 1.92.36-.86.37-.46.36-1.36.36-2.11.36-2.21.37 1.54.36-2.11.36-2.59.36 3.96.36-1.71.37-1.19.36-1.83.36.6.36-2.34.36-1.41.37-2.81.36-4.38.36 8.8.36-1.25.36-2.6.37.95.36-2.67.36-1.7.36 4.1.36-2.97.37-1.29.36-3.62.36.48.36-3.44.37-2.74.36-4.64.36-5.69.36-5.65.36-3.37.37 70.86.36-.7.36-2.76.36 7.23.36-.47.37-2.8.36.59.36-5.81.36-10.9.36 20.74.37-5.52.36 1.5.36-8.26.36-8.24.37-5.03.36-7.97.36-1.46.36-4.65.36-7.15.37-10.19.36 13.66.36-3.43.36-7 .36-7.82.37-10.04.36 44.55.36 2.25.36-5.41.36-1.48.37-6.94.36-6.64.36-3.18.36 7.78.36-5.86.37 3.07.36-.73.36-5.93.36-6.13.37-2.66.36-7.09.36 53.77.36-4.97.36-.56.37-5.65.36-4.28.36-2.54.36-6.26.36 1.94.37 26.21.36-2.49.36 13.32.36-4.05.36.15.37-4.41.36 4.02.36-1.36.36 1.28.37-.38.36-.22.36-1.1.36-1.61.36-1.95.37-1.54.36.49.36-2.23.36-1.52.36 5.02.37-1.68.36-2.44.36-1.65.36-2.7.36-.77.37-2.82.36-2.96.36 9.65.36-2.27.37 2.08.36-1.99.36-.75.36-2.58.36 4.26.37-1.87.36-1.02.36-2.5.36.46.36-2.71.37-1.77.36-3.89.36-5.05.36 36.43.36-.59.37 2.19.36-1.92.36-.92.36 5.16.36-1.59.37-.59.36-1.91.36 1.73.36-.86.37-3 .36 16.47.36-1.36.36-.36.36 3.01.37-2 .36-5.15.36-5.62.36-9.63.36-9.26.37 1.63.36-3.23.36-9.77.36 19.88.36 1.06.37-7.77.36.23.36-8.18.36-6.63.37-2.46.36-9.52.36-8.08.36-11.12.36 16.91.37 1.58.36-5.83.36-1.39.36-7.99.36 37.16.37-2.12.36-5.72.36 4.2.36-6.47.36-1.3.37-6.43.36-6.07.36-2.54.36-7.43.36-7.04.37 4.35.36-5.51.36-6.89.36 13.78.37-3.78.36-5.15.36 1.62.36-3.26.36-4.74.37-6.48.36-6.08.36-4.2.36 18.88.36-5.37.37 4.08.36-4 .36-5.66.36-2.49.36 63.71.37-.26.36-.32.36.12.36 1.77.37-.9.36-.62.36-.48.36-1.8.36-1.9.37-1.85.36-1.59.36-.46.36 4.24.36-1.06.37-1.93.36-2.67.36-2.4.36.59.36-3.12.37-2.77.36-3.78.36 11.03.36-2.34.36 1.77.37-2.43.36-1.32.36-2.78.36 4.52.37-2.37.36-1.48.36.46.36-2.77.36-1.98.37-3.9.36-4.35.36-5.68.36-5.18.36 33.44.37-2.49.36-1.47.36 5.29.36-2.45.36-.69.37 1.69.36-2.36.36-1.26.36-3.65.37 21.31.36 24.1.36-.58.36 4.27.36-3.62.37-5.9.36-8.04.36-.06.36-1.86.36-4.82.37-8.63.36 1.3.36 16.56.36-4.53.36.23.37-7.09.36-7.01.36-1.58.36-7.67.37-7.57.36 3.79.36-1.78.36-8.04.36-7.08.37-3.98.36-9.02.36-8.45.36 24.77.36-5 .37 37.81.36-5.78.36-.9.36-6.14.36 3.93.37-.61.36-5.38.36-5.05.36-6.95.36-2.34.37 2.03.36-6.28.36-2.54.36-6.3.37-6.32.36 14.86.36-4.5.36-5.2.36 1.1.37-1.92.36-5.53.36-5.68"/><use xlink:href="#e" color="#29C3F6" transform="matrix(3.75 0 0 3.75 182.98 124.3)"/><use xlink:href="#e" color="#29C3F6" transform="matrix(3.75 0 0 3.75 220.55 22.51)"/></g><path fill="none" d="M28 45.01V205M371.99 45.01H28" color="#000"/></svg>