<svg xmlns="http://www.w3.org/2000/svg" xmlns:xlink="http://www.w3.org/1999/xlink" viewBox="0 0 400 250"><path fill="none" d="M0 0h400v250H0z"/><defs><path id="g" stroke="currentColor" stroke-width=".267" d="M-1 0h2M0-1v2"/><path id="h" stroke="currentColor" stroke-width=".267" d="m-1-1 2 2m0-2-2 2"/><path id="i" stroke="currentColor" stroke-width=".267" d="M-1 0h2M0-1v2m-1-2 2 2m-2 0 2-2"/><path id="d" stroke="currentColor" stroke-width=".267" d="M-1-1h2v2h-2z"/><path id="b" stroke="currentColor" stroke-width=".267" d="m0-1.33-1.33 2h2.66z"/><path id="f" stroke="currentColor" stroke-width=".267" d="M0 1.33 1.265.411.782-1.067l-1.564-.009-.483 1.487z"/><use xlink:href="#b" id="c" stroke="currentColor" transform="rotate(180)"/><use xlink:href="#d" id="e" stroke="currentColor" transform="rotate(45)"/><circle id="a" cx="0" cy="0" r="1" stroke="currentColor" stroke-width=".267"/></defs><path fill="none" stroke="#000" stroke-linecap="round" stroke-linejoin="round" stroke-width=".1" d="M35.48 205V45.01" class="gridline" color="#000"/><g fill="none" stroke="none" stroke-linecap="round" stroke-linejoin="round" stroke-width="0" color="#000"><path d="M35.48 205v-7.5m0-152.49v7.5"/><text fill="#000" font-family="KaTeX_Main" font-size="10" text-anchor="middle" transform="translate(35.48 215.75)"><tspan> 1</tspan></text></g><path fill="none" stroke="#000" stroke-linecap="round" stroke-linejoin="round" stroke-width=".1" d="M72.87 205V45.01" class="gridline" color="#000"/><g fill="none" stroke="none" stroke-linecap="round" stroke-linejoin="round" stroke-width="0" color="#000"><path d="M72.87 205v-7.5m0-152.49v7.5"/><text fill="#000" font-family="KaTeX_Main" font-size="10" text-anchor="middle" transform="translate(72.87 215.75)"><tspan> 2</tspan></text></g><path fill="none" stroke="#000" stroke-linecap="round" stroke-linejoin="round" stroke-width=".1" d="M110.26 205V45.01" class="gridline" color="#000"/><g fill="none" stroke="none" stroke-linecap="round" stroke-linejoin="round" stroke-width="0" color="#000"><path d="M110.26 205v-7.5m0-152.49v7.5"/><text fill="#000" font-family="KaTeX_Main" font-size="10" text-anchor="middle" transform="translate(110.26 215.75)"><tspan> 3</tspan></text></g><path fill="none" stroke="#000" stroke-linecap="round" stroke-linejoin="round" stroke-width=".1" d="M147.65 205V45.01" class="gridline" color="#000"/><g fill="none" stroke="none" stroke-linecap="round" stroke-linejoin="round" stroke-width="0" color="#000"><path d="M147.65 205v-7.5m0-152.49v7.5"/><text fill="#000" font-family="KaTeX_Main" font-size="10" text-anchor="middle" transform="translate(147.65 215.75)"><tspan> 4</tspan></text></g><path fill="none" stroke="#000" stroke-linecap="round" stroke-linejoin="round" stroke-width=".1" d="M185.04 205V45.01" class="gridline" color="#000"/><g fill="none" stroke="none" stroke-linecap="round" stroke-linejoin="round" stroke-width="0" color="#000"><path d="M185.04 205v-7.5m0-152.49v7.5"/><text fill="#000" font-family="KaTeX_Main" font-size="10" text-anchor="middle" transform="translate(185.04 215.75)"><tspan> 5</tspan></text></g><path fill="none" stroke="#000" stroke-linecap="round" stroke-linejoin="round" stroke-width=".1" d="M222.43 205V45.01" class="gridline" color="#000"/><g fill="none" stroke="none" stroke-linecap="round" stroke-linejoin="round" stroke-width="0" color="#000"><path d="M222.43 205v-7.5m0-152.49v7.5"/><text fill="#000" font-family="KaTeX_Main" font-size="10" text-anchor="middle" transform="translate(222.43 215.75)"><tspan> 6</tspan></text></g><path fill="none" stroke="#000" stroke-linecap="round" stroke-linejoin="round" stroke-width=".1" d="M259.82 205V45.01" class="gridline" color="#000"/><g fill="none" stroke="none" stroke-linecap="round" stroke-linejoin="round" stroke-width="0" color="#000"><path d="M259.82 205v-7.5m0-152.49v7.5"/><text fill="#000" font-family="KaTeX_Main" font-size="10" text-anchor="middle" transform="translate(259.82 215.75)"><tspan> 7</tspan></text></g><path fill="none" stroke="#000" stroke-linecap="round" stroke-linejoin="round" stroke-width=".1" d="M297.21 205V45.01" class="gridline" color="#000"/><g fill="none" stroke="none" stroke-linecap="round" stroke-linejoin="round" stroke-width="0" color="#000"><path d="M297.21 205v-7.5m0-152.49v7.5"/><text fill="#000" font-family="KaTeX_Main" font-size="10" text-anchor="middle" transform="translate(297.21 215.75)"><tspan> 8</tspan></text></g><path fill="none" stroke="#000" stroke-linecap="round" stroke-linejoin="round" stroke-width=".1" d="M334.6 205V45.01" class="gridline" color="#000"/><g fill="none" stroke="none" stroke-linecap="round" stroke-linejoin="round" stroke-width="0" color="#000"><path d="M334.6 205v-7.5m0-152.49v7.5"/><text fill="#000" font-family="KaTeX_Main" font-size="10" text-anchor="middle" transform="translate(334.6 215.75)"><tspan> 9</tspan></text></g><path fill="none" stroke="#000" stroke-linecap="round" stroke-linejoin="round" stroke-width=".1" d="M371.99 205V45.01" class="gridline" color="#000"/><g fill="none" stroke="none" stroke-linecap="round" stroke-linejoin="round" stroke-width="0" color="#000"><path d="M371.99 205v-7.5m0-152.49v7.5"/><text fill="#000" font-family="KaTeX_Main" font-size="10" text-anchor="middle" transform="translate(371.99 215.75)"><tspan> 10</tspan></text></g><g fill="none" stroke="none" stroke-linecap="round" stroke-linejoin="round" stroke-width="0" color="#000"><path d="M371.99 205h-7.5"/><text fill="#000" font-family="KaTeX_Main" font-size="10" transform="translate(378.99 208.25)"><tspan>0.50</tspan></text></g><g fill="none" stroke="none" stroke-linecap="round" stroke-linejoin="round" stroke-width="0" color="#000"><path d="M371.99 189h-7.5"/><text fill="#000" font-family="KaTeX_Main" font-size="10" transform="translate(378.99 192.25)"><tspan>0.60</tspan></text></g><g fill="none" stroke="none" stroke-linecap="round" stroke-linejoin="round" stroke-width="0" color="#000"><path d="M371.99 173h-7.5"/><text fill="#000" font-family="KaTeX_Main" font-size="10" transform="translate(378.99 176.25)"><tspan>0.70</tspan></text></g><g fill="none" stroke="none" stroke-linecap="round" stroke-linejoin="round" stroke-width="0" color="#000"><path d="M371.99 157h-7.5"/><text fill="#000" font-family="KaTeX_Main" font-size="10" transform="translate(378.99 160.25)"><tspan>0.80</tspan></text></g><g fill="none" stroke="none" stroke-linecap="round" stroke-linejoin="round" stroke-width="0" color="#000"><path d="M371.99 141h-7.5"/><text fill="#000" font-family="KaTeX_Main" font-size="10" transform="translate(378.99 144.25)"><tspan>0.90</tspan></text></g><g fill="none" stroke="none" stroke-linecap="round" stroke-linejoin="round" stroke-width="0" color="#000"><path d="M371.99 125.01h-7.5"/><text fill="#000" font-family="KaTeX_Main" font-size="10" transform="translate(378.99 128.26)"><tspan>1.00</tspan></text></g><g fill="none" stroke="none" stroke-linecap="round" stroke-linejoin="round" stroke-width="0" color="#000"><path d="M371.99 109.01h-7.5"/><text fill="#000" font-family="KaTeX_Main" font-size="10" transform="translate(378.99 112.26)"><tspan>1.10</tspan></text></g><g fill="none" stroke="none" stroke-linecap="round" stroke-linejoin="round" stroke-width="0" color="#000"><path d="M371.99 93.01h-7.5"/><text fill="#000" font-family="KaTeX_Main" font-size="10" transform="translate(378.99 96.26)"><tspan>1.20</tspan></text></g><g fill="none" stroke="none" stroke-linecap="round" stroke-linejoin="round" stroke-width="0" color="#000"><path d="M371.99 77.01h-7.5"/><text fill="#000" font-family="KaTeX_Main" font-size="10" transform="translate(378.99 80.26)"><tspan>1.30</tspan></text></g><g fill="none" stroke="none" stroke-linecap="round" stroke-linejoin="round" stroke-width="0" color="#000"><path d="M371.99 61.01h-7.5"/><text fill="#000" font-family="KaTeX_Main" font-size="10" transform="translate(378.99 64.26)"><tspan>1.40</tspan></text></g><g fill="none" stroke="none" stroke-linecap="round" stroke-linejoin="round" stroke-width="0" color="#000"><path d="M371.99 45.01h-7.5"/><text fill="#000" font-family="KaTeX_Main" font-size="10" transform="translate(378.99 48.26)"><tspan>1.50</tspan></text></g><path fill="none" stroke="none" stroke-linecap="round" stroke-linejoin="round" stroke-width="0" d="M28 45.01V205M371.99 45.01H28" color="#000"/><text fill="#000" stroke="none" stroke-linecap="round" stroke-linejoin="round" stroke-width="0" color="#000" font-family="KaTeX_Main" font-size="10" text-anchor="middle" transform="rotate(-90 68.255 56.755)"><tspan font-weight="bold">Duration </tspan><tspan> in milliseconds</tspan></text><text fill="#000" stroke="none" stroke-linecap="round" stroke-linejoin="round" stroke-width="0" color="#000" font-family="KaTeX_Main" font-size="10" text-anchor="middle" transform="translate(199.99 238.25)"><tspan>Operations / 10</tspan><tspan dy="-5" font-size="8">6</tspan></text><text fill="#000" stroke="none" stroke-linecap="round" stroke-linejoin="round" color="#000" font-family="KaTeX_Main" font-size="8" transform="translate(116 10.11)"><tspan>AVLBottomUp</tspan></text><g fill="none" stroke="currentColor" stroke-linecap="round" stroke-linejoin="round" color="#000"><path stroke="#000" d="M80.5 7.51h29.9M28 128.66l.37 30.73.38.68.37-30.61.38-.74.37 15.24.37-1.34.38.42.37 15.38.38-15.27.37-15.01.37 30.23.38-29.54.37 28.42.37-30.22.38 16.14.37-16.26.38 29.55.37-15.8.37-15.01.38 29.73.37 32.13.38-29.32.37 14.8.37.77.38 1.69.37-.32.38-.6.37.53.37 15.83.38-28.98.37 29.81.37-.53.38-14.4.37.41.38-15.53.37 29.15.37-14.19.38.43.37.37.38-.52.37 13.76.37-30.35.38 30.57.37.25.38-30.56.37 29.76.37-30.07.38 30.02.37 1.27.38-29.69.37 14.68.37-1.31.38 16.17.37-31.24.37 31.17.38.35.37-30.38.38 30.08.37-30.49.37 30.32.38.15.37-30.18.38-.46.37 29.86.37 1.42.38-29.8.37 28.29.38-.21.37-29.12.37 29.43.38-77.43.37 39.39.37-28.06.38 15.62.37 1.57.38 15.56.37-30.43.37 31.84.38-30.4.37 29.64.38-30.38.37 31.13.37-30.01.38-.31.37 29.57.38-14.8.37.23.37 1.16.38-.88.37-15.28.38 30.38.37-14.29.37-14.8.38 13.88.37 15.52.37-30.48.38 30.53.37-13.28.38-15.54.37 13.13.37 15.34.38-29.21.37-.64.38 30.54.37-30.67.37 29.45.38-14.99.37-.21.38-15.42.37 30 .37-15.54.38-15.91.37 15.16.37 15.78.38-31.04.37 15.89.38.3.37 14.58.37-30.88.38 30.1.37.84.38.4.37 31.75.37.24.38-31.22.37 16.27.38.68.37 14.96.37.94.38-29.67.37 15.31.38-.07.37-.72.37-2 .38 15.76.37-14.71.37.12.38-15.13.37 30.08.38-.97.37-15.51.37 1.12.38.46.37-.88.38-16.54.37 31.28.37-.15.38-14.35.37-13.71.38 14.3.37 15.72.37.49.38-15.1.37-13.73.37 27.84.38-13.65.37-15.65.38 30.38.37-.1.37.48.38-44.5.37 29.9.38 15.21.37.18.37-1.36.38-45.01.37 44.9.38-13.74.37-.75.37.28.38-32.4.37-5.95.38-13.46.37 15.92.37 16.07.38-14.02.37-15.56.37 14.37.38 1.39.37-.47.38 15.23.37-28.88.37-1.01.38 29.62.37.44.38-29.65.37 16.1.37-16.14.38 13.68.37 16.22.38-14.62.37-14.18.37 12.33.38 16.15.37-14.97.37-15 .38 13.85.37-13.3.38 29.21.37-15.35.37 1.28.38-16.65.37 30.83.38-.37.37-44.43.37 44.07.38-30.45.37 15.07.38 14.93.37-14.41.37-30.23.38 43.97.37.19.38-45.13.37 43.52.37-15.29.38-16.12.37 31.37.37-15.52.38-29.84.37 75.39.38.61.37.75.37-44.19.38 44.79.37-14.4.38-15.05.37 30.56.37 1.41.38.79.37-59.66.38 57.9.37.3.37.34.38-44.66.37 44.52.37-15.41.38-13.8.37 29.8.38.7.37.13.37-31.73.38.37.37 31.57.38-1.16.37-44.95.37 45.43.38-.46.37-30.69.38 15.51.37 15.62.37.75.38.52.37-29.52.38-1.09.37 31.24.37-15.76.38-14.43.37 31.67.37-.43.38-15.18.37-.75.38.38.37 14.19.37-15.73.38 2.5.37-16.1.38 29.57.37.66.37-29.04.38-34.06.37 25.65.38-29.11.37 17.11.37 16.43.38-15.57.37-14.65.37 14.07.38 16.02.37-29.87.38 13.74.37 15.85.37-45.03.38 44.5.37 1.12.38-30.04.37-.95.37 31 .38.54.37-45.24.38 45 .37-29.61.37 13.74.38 15.23.37-14.73.38-14.82.37 14.12.37 14.88.38-44.99.37 44.61.37-.13.38-44.69.37 44.91.38-.53.37-29.65.37-1.81.38 30.26.37-29.33.38 13.83.37 15.23.37-30.39.38 14.53.37 15.56.38-31.27.37 15.84.37-.79.38.63.37-16.04.37 29.38.38-30.29.37 46.63.38 15.23.37 2.35.37-29.06.38 13.76.37 1.93.38 15.73.37-30.61.37 14.33.38 14.32.37-29.13.38 15.25.37 16.69.37-2.22.38-29.86.37 15.14.38-1.51.37 16.02.37-16.04.38-15.46.37 30.5.37-29.83.38 30.15.37-14.44.38 14.54.37-28.54.37 14.21.38 16.63.37-16.35.38.16.37 2.16.37-1.07.38 15.49.37-30.31.38 29.78.37-14.91.37 15.59.38-29.23.37 14.88.37 15.04.38-14.83.37-.04.38 1.12.37-2.06.37 15.6.38-30.14.37 31.35.38-14.97.37 13.66.37-28.58.38-33.27.37 25.16.38-28.49.37 30.5.37-29.73.38 31.78.37-29.82.38 14.78.37 14.81.37-29.21.38 13.83.37.91.37-.19.38-13.77.37 29.15.38-14.64.37-.49.37.01.38 15.14.37-44.13.38 44.64.37-30.95.37 30.61.38-30.42.37 29.69.38-30.15.37 14.2.37 16.08.38-29.57.37 14.22.37-15.14.38 30.18.37-29.68.38 28.6.37-15.53.37.15.38.39h.37l.38-15.05.37-.76.37 30.12.38-14.72.37-.35.38 14.87.37-31.02.37 14.25.38 14.8.37-29.57.38-.8.37 14.63.37 32.44.38-.73.37 15.92.37-14.33.38-15.38.37 31.68.38 1.09.37-16.43.37-14.81.38.52.37 30.3.38-14.66.37-1.56.37 16.46.38-14.48.37.29.38-.21.37 14.58.37-15.22.38.64.37-14.91.37 13.58.38-.36.37 15.76.38-13.68.37 14.19.37-14.26.38-15.81.37 30.5.38 1.19.37-15.86.37.68.38-30.5.37 45.67.38-15.03.37 15.14.37-13.17.38 12.96.37-14.83.38-13.96.37 31.38.37-1.69.38-14.01.37.36.37-30.02.38 44.18.37-14.27.38 14.71.37-15.4.37 13.53.38-62.79.37-7.5.38 34.15.37 1.72.37-28.55.38-15.11.37 45.43.38-14.98.37 1 .37 15.29.38-15.11.37-16.31.37 30.37.38-14.48.37-14.17.38-1.67.37 30.54.37-14.02.38.91.37 14.4.38-31.05.37 15.11.37 15.05.38-29.43.37-15.67.38 44.72.37-15.09.37 1.51.38 14.55.37-14.77.37-16.15.38 30.86.37-15.4.38-14.41.37-1.48.37 29.59.38-15.88.37 1.71.38-1.17.37-16.22.37 29.64.38-14.55.37.36.38-30.41.37 43.76.37-15.69.38 1.48.37 14.52.38-15.29.37-16.9.37 62.42.38-15.24.37-12.38.37-.72.38 29.3.37-14.36.38 2.28.37 15.13.37-15.55.38 15.18.37-30 .38 30.36.37-14.79.37-.49.38-29.28.37 44.49.38-.28.37-29.78.37 29.64.38-14.71.37 15.75.37-15.06.38-.64.37 1.32.38 14.65.37-44.78.37 31.68.38 13.66.37-.54.38-31.03.37 28.86.37-13.79.38 16.32.37-15.34.38-.61.37.87.37 15.22.38-44.78.37 30.52.38 15.51.37.14.37-30.75.38 30.47.37-14.13.37 14.68.38-.92.37-30.56.38 15.97.37 14.34.37-30.77.38-47.27.37 38.51.38-12 .37 1.82.37-.3.38 16.72.37-15.01.38-1.05.37.64.37-31 .38 30.81.37 15.66.37-29.3.38 13.97.37 15.27.38-15.09.37.23.37.54.38-.74.37-29.93.38 44.77.37.84.37-30.28.38 14.83.37 15.35.38-15.34.37-15.7.37 31.69.38-45.77.37 30.62.38 15.06.37-29.47.37 13.71.38 15.22.37-14.33.37-1.3.38 1.07.37-.82.38-29.85.37 44.53.37.3.38-30.15.37 14.12.38 15.63.37-30.81.37 15.01.38-.86.37-.19.38-16.1.37 30.5.37 15.64.38-15.11.37 30.37.37 2.51.38-30.38.37 31.36.38-30.73.37 29.92.37-44.18.38 44.96.37 1.5.38-15.33.37.91.37-1.12.38 15.03.37-16.73.38 1.35.37-16.92.37 32.34.38-14.71.37-15.23.38 29.47.37.63.37-16.74.38 1.41.37-1.08.37.24.38 15.16.37-14.66.38-14.97.37 31.11.37-16.59.38.44.37-.54.38 16.96.37-14.67.37-.25.38-.45.37-.24.38 16.44.37-18.03.37-13.53.38 29.11.37-14.85.37 1.48.38-1.2.37 15.12.38-13.42.37-.37.37.29.38-48.19.37 24.76.38-43.45.37 47.19.37-15.36.38.75.37-.87.38.83.37.99.37-1.18.38.8.37.09.38-16 .37 31.66.37-29.33.38 14.46.37-.09.37 15.4.38-29.16.37 28.87.38-14.9.37-30.53.37 44.41.38-14.97.37-15.35.38 30.41.37-15.75.37 16.64.38-29.69.37 14.19.38-15.18.37 14.61.37 15.35.38-30.07.37 15.1.37 14.77.38-15.93.37-14.09.38 29.15.37-45.8.37 28.64.38 15.6.37-15.59.38-14.77.37 28.94.37-14.98.38.2.37-.54.38-29.94.37 29.43.37 46.99.38-.27.37-14.04.38-13.62.37 28.37.37-14.39.38 17.31.37-29.71.37 30.13.38-46.14.37 29.83.38 16.1.37-15.19.37 14.48.38-29.38.37 28.83.38-13.61.37 14.68.37-29.69.38 29.27.37-45.11.38 30.06.37 14.89.37.82.38-14.57.37 16.33.37-30.84.38 15.57.37 13.81.38 1.11.37-29.95.37 13.05.38-14.52.37 14.23.38 16.43.37.46.37-14.78.38 15.94.37-15.15.38-14.83.37 29.43.37.45.38-15.1.37-30.03.38 29.44.37-.07.37 15.67.38.73.37-16.32.37 17.21.38-77.8.37 22.49.38 18.4.37-13.4.37-30.78.38 15.76.37 30.58.38.78.37-.29.37-30.44.38 15.1.37-.29.38 1.39.37-.55.37-14.75.38-.82.37 31.1.37-.82.38-15.34.37-14.25.38 14.46.37 15.66.37-14.63.38-16.57.37.53.38 15.35.37 14.33.37.99.38-30.48.37.9.38 28.79.37-14.81.37-.8.38-16.23.37.35.38 30.06.37-.15.37-29.92.38 15.21.37-.92.37-.51.38-.67.37-14.85.38 14.62.37-.39.37 15.38.38-30.96.37 15.33.38-.13.37.61.37 44.84.38-15.52.37-13.57.38 1.35.37 30.05.37 1.37.38-15.62.37-.38.37-12.69.38 29.49.37-14.1.38-2.5.37 16.18.37-30.26.38 15.36.37-.01.38 16.1.37-15.2.37-.38.38-.4.37-.26.38 14.86.37-15.31.37.18.38-14.06.37 14.26.38 14.55.37-16.66.37 17.36.38-15.98.37-14.99.37 17.01.38 15.09.37-15.06.38.06.37 14.88.37-30.43.38 16.51.37.93.38 13.9.37-14.39.37 1.2.38-1 .37-.11.38 15.28.37-14.61.37 15.1.38-15.6.37-.7.37-14.25.38-31.72.37 23.42.38-12.39.37 1.83.37-15.39.38 31.42.37-14.74.38-.89.37.14.37-15.2.38 14.11.37.27.38 15.42.37-29.46.37 15.61.38.18.37-.4.38-.08.37.3.37-15.38.38 30.03.37-14.64.37-.16.38-14.75.37 29.34.38-13.89.37-1.69.37-14.73.38 15.56.37-.67.38.48.37 14.55.37-45.22.38 44.88.37-14.44.38-1.31.37.29.37.48.38-17.2.37 30.83.37-15.31.38-14.91.37 13.03.38 16.22.37-29.52.37 13.91.38-.1.37-15.31.38 29.92.37-15.06"/><use xlink:href="#g" transform="matrix(3.75 0 0 3.75 342.45 173.03)"/><use xlink:href="#g" transform="matrix(3.75 0 0 3.75 95.45 7.51)"/></g><text fill="#000" stroke="none" stroke-linecap="round" stroke-linejoin="round" color="#000" font-family="KaTeX_Main" font-size="8" transform="translate(116 25.11)"><tspan>AVLTopDown</tspan></text><g fill="none" stroke="currentColor" stroke-linecap="round" stroke-linejoin="round" color="#000"><path stroke="#29C3F6" stroke-dasharray="1.0,2.0" d="M80.5 22.51h29.9M28 144.03l.37.43.38.32.37-.98.38.08.37 15.11.37-28.77.38 27.33.37-27.42.38-.82.37 14.07.37 14.47.38-14.5.37-15.31.37 29.49.38-28.41.37 27.57.38-29.32.37 13.9.37-.07.38-.18.37 30.39.38 14.32.37-28.73.37 30.21.38 1.22.37-28.59.38 13.81.37 1.14.37-.33.38 1.73.37-.5.37-.06.38 15.54.37-30.17.38 29.62.37-1.1.37-13.7.38.24.37-13.77.38 28.82.37-1.83.37-28.42.38 13.95.37.15.38 14.45.37-29.99.37 30.19.38-.59.37-28.18.38 29.18.37-29.25.37 29.7.38-.3.37-29.77.37 15.92.38-.57.37 13.99.38-28.07.37 28.69.37-.76.38-28.63.37 28.96.38-14.91.37.13.37 15.29.38-28.09.37 12.79.38-.89.37 15.66.37-29.49.38-16.07.37 8.4.37-28.84.38 16.81.37.74.38 1.02.37-14 .37 14.68.38 14.75.37-29.39.38 28.66.37-28.06.37 28.91.38-28.75.37 28.85.38-14.22.37-28.41.37 42.93.38.24.37-28.84.38 14.53.37.45.37-14.76.38 28.76.37-14.57.37-.29.38-13.38.37 29.02.38-28.33.37 27.86.37-14.19.38-.68.37-14.24.38 28.98.37-13.76.37-30.36.38 42.66.37.61.38-28.97.37 13.52.37-.17.38-14.73.37 28.76.37.64.38-29.24.37-.27.38 29 .37-29.19.37 13.55.38.61.37 42.99.38-26.97.37 29.95.37-14.35.38.32.37-14.59.38 30.08.37-.57.37-27.51.38 14.28.37.08.38 14.6.37-.63.37-29.88.38 14.2.37.96.37-.43.38-.69.37 15.34.38-.83.37-29.74.37 1.76.38 28.61.37-.7.38-15.14.37.13.37.11.38 1.38.37-14.53.38 29.44.37-.02.37.88.38-43.78.37 29.77.37 13.69.38.81.37-15.36.38-14.43.37 29.01.37-14.34.38.75.37-.55.38 15.35.37.1.37-44.91.38 29.23.37 14.34.38 1.14.37-.24.37-28.77.38-31.64.37 9.09.38-13.91.37 30.53.37-13.57.38-14.98.37 14.75.37 14.84.38.8.37-29.22.38-.31.37 14.88.37.4.38 13.67.37-14.22.38-14.34.37 14.86.37 14.49.38-28.64.37 14.4.38-.98.37-13.83.37 27.67.38-13.44.37-14.79.37 14.56.38 14.52.37 1.05.38-44.55.37 29.07.37-.11.38.19.37 14.55.38-30.66.37.83.37 29.24.38.23.37-28.64.38 13.58.37-.05.37-14.87.38 28.87.37-14.75.38-29.49.37 42.24.37-.58.38-28.39.37 14.1.37-.11.38-15.17.37 58.82.38.35.37-28.04.37 1.04.38 29.14.37.19.38-28.95.37 14.84.37 15.71.38-27.77.37 14.92.38 12.33.37.41.37-.07.38-58.45.37 58.48.37.17.38-13.25.37-14.98.38 29.37.37-14.75.37-15.56.38 30.1.37.94.38-1.5.37-28.74.37.76.38 27.84.37.36.38-44.09.37 44.41.37 1.25.38-28.86.37 14.8.38 14.84.37.44.37-.63.38-28.9.37 1.21.37 28.9.38-.2.37-29.44.38 14.75.37 13.49.37-15.4.38 2.12h.37l.38 13.51.37.55.37-28.64.38-46.28.37 38.27.38-12.3.37-13.74.37 30.56.38-14.86.37-14.98.37 29.05.38.73.37-29.6.38-.44.37 29.41.37-28.44.38 13.91.37 15.23.38-29.01.37 14.41.37 14.67.38-13.65.37-29.31.38 43.21.37.63.37-44.25.38 43.07.37-14.25.38-14.78.37 28.8.37.49.38-28.94.37-.79.37 28.51.38-43.06.37 43.36.38-.69.37-29.57.37 13.81.38 15.15.37-29.45.38 14.59.37-.9.37.54.38-15.59.37 29.16.38-28.87.37 14.99.37 14.07.38-29.75.37 14 .37-.08.38 14.48.37-13.45.38 43.84.37-12.11.37-.1.38-.03.37 16.09.38-13.46.37-15.06.37 13.83.38 13.88.37-12.8.38-.58.37 1.32.37 12.1.38-29.34.37 14.82.38 13.08.37 1.23.37-29.46.38 13.97.37-.13.37 15.68.38-14.59.37-13.96.38 28.34.37-28.5.37 28.91.38-13.16.37 13.53.38-14.13.37-13.22.37 28.23.38-13.64.37.43.38 13.82.37-28.28.37 28.56.38-29.41.37 30.48.37-15.1.38 15.45.37-29.15.38 14.5.37 13.44.37-14.01.38.26.37 15.28.38-28.5.37 26.76.37-27.56.38-16.45.37-5.19.38.75.37.26.37.78.38 1.27.37-.12.38-14.42.37 29.11.37-29.02.38 14.74.37 14.91.37-14.38.38-14.6.37 15.29.38-.47.37-.21.37-.29.38 14.78.37-28.34.38 14.57.37 13.64.37-43.12.38 42.76.37-29.29.38 28.44.37-27.67.37 28.86.38-29.22.37 14.23.37 14.62.38-14.22.37-15.19.38-.44.37 28.69.37-28.9.38 28.3.37.52.38-28.89.37 14.13.37 14.71.38-44.22.37 43.53.38-29.13.37 14.29.37-.5.38 14.01.37-29.74.38 14.39.37 14.7.37 15.78.38-16.51.37 2.99.37 29.23.38-13.43.37.64.38 14.71.37-14.29.37-15.47.38 29.51.37.76.38-14.23.37-15.65.37.54.38 29.1.37-13.09.38-.87.37 14.67.37-14.38.38-.17.37.88.37 12.84.38-14.67.37-.24.38 1.14.37-15.51.37 15.52.38 15.18.37-15.04.38 15.62.37-14.52.37-.17.38.11.37 14.58.38-14.9.37.55.37-28.1.38 42.24.37-13.61.38 16.09.37-14.19.37 13.45.38-13.81.37 14.37.37-28.33.38 27.92.37.98.38-15.63.37-29.12.37 27.38.38-46.22.37 23.41.38-11.82.37 1.27.37 15.33.38-28.1.37 29.74.38-14.94.37-13.95.37.1.38 15 .37 13.77.37-14.44.38.24.37-14.59.38 28.69.37-14.56.37 1.69.38-28.72.37 42.96.38-14.77.37-.63.37 14.44.38-14.23.37-14.63.38 28.72.37-28.83.37 14.96.38-13.81.37 28.17.37-28.9.38 28.91.37-13.83.38-16.05.37 29.35.37-14.75.38-.02.37-29.73.38 42.67.37-14.69.37-.99.38 14.57.37-14.56.38-14.41.37 28.63.37-15.48.38-43.18.37 57.87.38-14.41.37-.72.37 44.26.38-13.38.37 15.54.37-28.31.38 13.37.37 15.13.38-42.2.37 29.65.37 14.3.38-14.09.37.26.38 14.09.37-14.14.37 14.13.38-29.22.37 15.51.38 13.57.37-.09.37-57.8.38 58.46.37.27.37-28.61.38 29.43.37-14.32.38 14.37.37-13.54.37.7.38-1.3.37 13.52.38-30.01.37-.94.37 30.62.38 1.25.37-29.49.38 29.36.37-14.16.37 14.26.38.4.37-29.11.38 15.64.37 14.23.37-29.76.38 1.07.37 29.54.37-.32.38-15.33.37.41.38-.09.37 14.01.37.52.38-75.93.37 21.63.38 2.44.37-13.02.37 15.91.38 15.48.37-29.3.38 15.03.37 13.65.37-14.05.38.1.37.64.37.16.38-30.19.37 43.97.38-28.54.37 29.11.37-14.82.38 15.29.37-28.71.38 13.22.37.64.37-15.04.38 14.57.37 14.72.38-28.17.37 13.99.37 15.37.38-15.26.37.2.38.85.37-.03.37-30.03.38 43.49.37-13.53.37-15.04.38 28.84.37.94.38-29.66.37 13.88.37.16.38-15.46.37 14.58.38 15.04.37-29.97.37 14.21.38 14 .37-29.36.38 27.94.37-28.73.37 57.46.38-42.92.37 44.56.37 1.94.38-29.09.37 16.26.38 13.47.37-14.85.37 1.34.38 14.07.37-27.45.38 29 .37-43.91.37 43.35.38.07.37-15.58.38.61.37-.39.37 15.14.38-14 .37-.51.38-14.08.37 28.92.37-16.23.38-13.6.37 29.13.37.14.38-14.92.37 1.05.38-.67.37 1.26.37 13.13.38-14.52.37-14.2.38 30.24.37-14.07.37-.97.38 1.16.37 14.09.38-14 .37-2.58.37.91.38-.92.37 15.54.37-13.73.38-15.39.37 29.03.38-13.21.37-.41.37.38.38-31.19.37-6.17.38 2.33.37.22.37.98.38-15.37.37 14.58.38 15.53.37-28.29.37 13.85.38.65.37 14.61.38-28.91.37 30.06.37-14.98.38-28.82.37 43.3.37-28.06.38 13.98.37 14.21.38-14.71.37-14.95.37 28.46.38-14.37.37-28.28.38 42.54.37-13.57.37.15.38-.62.37.36.38 14.52.37-29.12.37 28.83.38-42.97.37 27.51.37 15.22.38-14.68.37-14.95.38 28.5.37-14.64.37-15.07.38 28.19.37-29.7.38-.8.37 28.53.37-14.19.38-15.46.37 29.54.38-14.56.37 15.07.37.96.38 15.22.37-14.25.38 15.84.37 13.21.37-13.84.38 16.6.37-29.3.37 15.74.38 13.73.37-14.64.38.22.37 14.98.37-44.77.38 28.9.37 14.73.38-13.27.37 13.93.37-28.28.38 28.13.37-14.47.38 14.65.37-29.2.37 29.68.38-42.76.37 29.62.37 13.63.38.71.37-15.58.38 15.65.37-14.61.37-16.48.38 29.71.37-.42.38-28.43.37 15.34.37-14.47.38 15.2.37 14.36.38.5.37-14.65.37 14.76.38-14.73.37-13.46.38 27.71.37-.05.37-14.22.38.53.37-29.69.37 30.91.38-31.92.37 8.03.38-11.85.37-.51.37.92.38.94.37.26.38-.14.37-14.83.37.45.38 28.74.37.79.38-13.56.37-15.36.37 14.57.38 14.61.37-14.62.37-14.52.38-14.74.37 42.97.38.63.37-14.49.37.1.38-15.08.37 29.49.38-14.15.37-.72.37-13.51.38-.21.37 29.02.38-.57.37-28.88.37 13.84.38-.61.37.04.38-.31.37-14.71.37-.03.38 28.14.37-.35.37-28.62.38 13.87.37.28.38-.41.37 14.31.37-15.45.38-28.28.37 27.83.38 14.27.37-14.38.37 14.6.38 14.55.37 16.89.38-14.1.37.78.37-13.48.38 28.01.37-28.3.37 29.85.38.5.37-29.06.38 27.59.37-28.16.37 28.49.38-13.86.37-.08.38 1.3.37.14.37-.57.38-1.1.37 13.57.38-13.77.37.65.37-.54.38.76.37 14.57.38-15.67.37-.99.37 2.1.38-16.19.37 30.03.37-14.21.38 15.97.37-15.39.38-14.72.37 15.18.37 14.59.38-13.27.37 15.47.38-16.19.37 1.22.37-13.32.38 28.35.37-15.89.38 1.08.37 14.51.37-14.21.38-14.1.37 27.46.37-13.6.38-30.52.37-22.02.38 16.64.37 2.36.37-.01.38 1.14.37-.31.38-15.13.37 28.37.37-13.72.38.27.37-.44.38-.08.37-14.13.37 29.53.38-13.93.37.08.38-14.73.37 29.09.37-15.09.38.88.37-14.26.37 13.76.38.63.37-.04.38-.4.37-15.95.37 30.07.38-14 .37-.48.38.24.37-14.64.37 13.51.38.32.37 14.63.38-29.96.37 14.19.37 15.33.38-30.44.37 14.22.37.17.38-14.94.37 28.33.38-14.38.37-13.44.37 13.21.38 13.96.37-28.81.38 28.68.37-29.1"/><use xlink:href="#h" color="#29C3F6" transform="matrix(3.75 0 0 3.75 56.04 141.46)"/><use xlink:href="#h" color="#29C3F6" transform="matrix(3.75 0 0 3.75 95.45 22.51)"/></g><text fill="#000" stroke="none" stroke-linecap="round" stroke-linejoin="round" color="#000" font-family="KaTeX_Main" font-size="8" transform="translate(241.1 10.11)"><tspan>AVLWeakBottomUp</tspan></text><g fill="none" stroke="currentColor" stroke-linecap="round" stroke-linejoin="round" color="#000"><path stroke="#3B75EA" d="M205.6 7.51h29.9M28 159.43l.37-14.1.38-28.78.37 28.27.38-15.11.37 15.32.37-14.82.38 27.57.37 1.19.38-.13.37-14.22.37-.63.38-14.27.37-.47.37 13.41.38.92.37-14.86.38 28.7.37-.51.37-13.84.38 13.61.37-10.57.38 47.07.37-27.16.37 15.79.38 1.9.37 15.32.38-28.97.37 29.43.37-1.21.38 2.28.37-12.87.37 12.85.38-14.25.37-14.47.38 15.47.37-.97.37 13.9.38-13.52.37-14.58.38 16.31.37 12.66.37.28.38-.6.37.97.38-15.45.37.32.37-.68.38-.86.37 1.85.38.87.37.17.37-.64.38.67.37-.74.37 14.53.38.19.37-1.15.38-13.58.37.18.37-.08.38 14.26.37-13.93.38-13.98.37 28.49.37-13.85.38-.46.37-.76.38-.62.37 15.3.37-.68.38-53.83.37-6.95.37-12.85.38 15.09.37-12.93.38 28.91.37-29.23.37 1.51.38 28.72.37.35.38-.3.37-29.22.37 15.09.38-14.77.37 15.49.38-.56.37.38.37-15.79.38 29.42.37-.07.38-14.71.37-.7h.37l.38-28.87.37 43.18.37-28.03.38-.1.37 28.65.38.13.37-.03.37-14.34.38-.41.37-27.91.38 27.29.37-13.87.37 27.9.38-29.39.37 29.01.38.46.37-15 .37.22.38-29.91.37 28.56.37 14.63.38-29.19.37.39.38 28.63.37.07.37-14.72.38.32.37 17.6.38 18.95.37 4.02.37 13.77.38-27.13.37 29.44.38-26.93.37 27 .37 1.63.38.09.37-14.24.38 15.31.37-29.93.37 15.03.38-.01.37 14.95.37-13.97.38 13.93.37-30.04.38 14.57.37.24.37 12.95.38.35.37-15.05.38.07.37.82.37-1.51.38.35.37 16.54.38-15.08.37 14.89.37-28.1.38 27.94.37-27.88.37 30.44.38-1.13.37-.37.38-13.19.37-.35.37-14.68.38 14.3.37 15.24.38.02.37-15.13.37 14.86.38-30.88.37 28.69.38-28.43.37 30.22.37.78.38-68.76.37 7.83.38-28.4.37 44.9.37 1.21.38-14.21.37-.92.37.35.38-14.81.37 30.41.38-.23.37-28.73.37-15.41.38 43.57.37.24.38-14.93.37.74.37-28.74.38 42.81.37-.86.38-14.45.37-43.68.37 57.67.38-.12.37-13.83.37-.14.38-15.14.37 15.04.38 14.25.37.23.37-43.64.38 13.54.37 29.48.38.02.37-14.59.37-.98.38-27.65.37 43.07.38-.9.37-13.12.37-45.13.38 57.41.37-.05.38-14.41.37-.25.37-29.97.38 42.79.37 1.09.37-14.88.38-45.64.37 90.52.38 5.27.37 1.8.37-28.66.38 30.89.37-14.17.38-.45.37.64.37 15.53.38 1.02.37-42.61.38 42.5.37-29.88.37 29.47.38 1.57.37-30.39.37 28.62.38 1.41.37-27.97.38 28.77.37-13.34.37 13.17.38-29.08.37 16.13.38-.24.37-.38.37 14.89.38-.46.37-15.22.38.2.37 15.23.37-13.33.38-.71.37.03.38 13.7.37-28.94.37 15.15.38 16.89.37-28.93.37 28.63.38 1.33.37-.78.38-28.93.37 28.03.37-.58.38-12.78.37.26.38.63.37 14.24.37-29.27.38-40.58.37 9.65.38-.51.37 16.72.37-13.88.38-.47.37 14.62.37-28.13.38 13.89.37-.44.38-15.79.37 1.72.37 27.73.38.57.37-14.12.38-.62.37-13.41.37 13.92.38 14.64.37-28.45.38 14.69.37-14.84.37 28.03.38-14.13.37-.82.38-.03.37-.76.37.83.38-.07.37-14.98.37-1.39.38 29.26.37.74.38-16.02.37-13.68.37 13.2.38-.23.37 14.56.38-28.39.37-.14.37 14.09.38 14.52.37-14.77.38.27.37-15.14.37 13.74.38 14.98.37-29.6.37-.63.38 13.84.37 47.69.38-9.42.37 17.4.37-12.54.38-.81.37-14.96.38 30.81.37 1.15.37-28.84.38 27.56.37-27.06.38 13.64.37 15.15.37-.39.38-14.91.37.43.38-.47.37.41.37-1.39.38 15.23.37.06.37-28.78.38 14.19.37.9.38-1.26.37 15.51.37-13.47.38.54.37 13.19.38-13.56.37-13.04.37 28.08.38-1.04.37 1.52.38-29 .37 29.53.37-28.6.38 14.69.37 14.97.37-.58.38-14.44.37-.15.38 15.27.37-14.69.37-14.16.38 30.59.37-1.15.38-13.37.37-1.69.37.34.38-53.66.37 7.97.38 16.17.37-12.94.37-15.02.38 15.28.37-.29.38 15.01.37-30.66.37 15.22.38-.03.37.77.37.95.38-1.44.37-.24.38.39.37.58.37 14.24.38-29.17.37 14.39.38.54.37-1.09.37-.21.38-14.75.37 14.93.38-.22.37 14.99.37-13.91.38-14.67.37 12.85.37.34.38 14.04.37-43.48.38 42.88.37-13.93.37-.63.38.63.37.19.38-16.17.37 29.1.37-14.61.38-13.76.37 13.57.38.49.37-.68.37 13.78.38-15.19.37-28.91.38 43.59.37-15.21.37 33.17.38 3.22.37 1.93.37 1.54.38 15.88.37-14.05.38 14.81.37-13.46.37-14.53.38 14.55.37 1.08.38 14.74.37-13.81.37-.25.38.27.37-1.72.38 15.22.37 1.39.37-13.54.38-.23.37 14.51.37-30.12.38 12.92.37.34.38.18.37 14.99.37-14.83.38 16.28.37-16.19.38 1.67.37 15.48.37-16.61.38.86.37 16 .38-42.75.37 42.01.37-14.43.38 15.46.37-13.96.38.53.37 15 .37.04.38-28.61.37 27.66.37.95.38-14.88.37.69.38 15.05.37-45.13.37 41.8.38-69.57.37 22.69.38-27.51.37 30.78.37-27.74.38 29.84.37-14.9.38.66.37 14.83.37-43.83.38 28.75.37-.3.37-.52.38 1.07.37-.7.38 14.36.37-14.5.37 1.42.38-14.22.37 14.5.38-.64.37-14.33.37 13.93.38 14.44.37-14.88.38-.7.37 2.14.37 13.69.38-43.25.37 29.09.37.07.38-.22.37-2.01.38.68.37 14.93.37-14.24.38-.93.37.23.38-14.88.37 14.07.37-15.67.38 29.09.37-29.12.38 29.28.37-14.82.37-2.11.38 16.54.37-44.42.38 28.78.37-14.88.37 60.97.38 4.4.37-26.59.37 30.07.38-15.74.37.69.38 17.2.37.77.37-28.63.38-.27.37 30.63.38-29 .37 28.55.37.22.38-29.23.37 29.95.38-.09.37-15.07.37-1.75.38 16.01.37 1.42.37-29.12.38 15.11.37-.52.38-13.85.37 29.75.37.17.38-16.39.37.84.38 13.8.37-16.8.37 1.11.38 15.79.37.63.38-28.56.37 14.35.37 14.94.38-29.1.37 15.85.38 15.01.37-15.09.37 14.21.38-15.52.37 16.52.37-15.28.38-.74.37 15.87.38-.06.37-16.06.37-14.21.38-39.02.37-7.72.38 32 .37-13.9.37.49.38.45.37 15.01.38-16.37.37 15.18.37-28.93.38.19.37-.2.37 29.25.38-13.6.37-.95.38.01.37.33.37 15.15.38-28.59.37 13.83.38-29.81.37 43.02.37.59.38-29.09.37 14.19.38 15.27.37-16.08.37 16.45.38-30.03.37-.03.38.22.37 28.97.37-29.1.38 29.34.37-13.92.37 13.41.38-14.96.37-13.53.38.71.37-1.84.37 29.28.38-.49.37-29.67.38 14.58.37 13.93.37-15.74.38 14.61.37-43.62.38 28.08.37-14.43.37 61.26.38-10.22.37 1.47.37 2.78.38 14.91.37.93.38-14.09.37 1.59.37-1.12.38-15.12.37 2.15.38 29.35.37.35.37.69.38-15.21.37-.63.38.53.37 13.01.37 1.29.38-15.64.37 1.86.38.01.37-14.79.37 15.47.38-.52.37 14.3.37.41.38-.47.37-30.74.38 14.91.37 16.18.37-.07.38-14.49.37 15.32.38-15.47.37-14.07.37 14.45.38-15.26.37 30.73.38 1.04.37-.35.37-15.07.38.82.37-.04.37 13.51.38.66.37-16.62.38 1.62.37-13.81.37 29.38.38-83.98.37 21.84.38 18.02.37-14.01.37-.38.38-.4.37 15.94.38-14.77.37 14.98.37-44.6.38 29.45.37-14.89.38 29.71.37-28.7.37 13.57.38 15.06.37-14.97.37 15.18.38-43.12.37 28.33.38-14.75.37 28.24.37-14.46.38-1 .37.21.38 15.23.37-15.64.37 15.1.38-43.9.37 29.2.38-14.37.37 28.73.37-29.01.38 14.9.37 12.79.37-13.41.38 13.95.37-42.91.38 42.23.37-42.93.37 42.43.38-28.78.37 27.5.38-13.58.37 14.46.37-16.35.38-14.57.37 16.33.38-15.68.37 13.86.37 18.91.38 32.16.37-11.45.38 15.23.37.48.37-16.09.38 2.96.37-.3.37 1.87.38.37.37-14.86.38 29.57.37 1.4.37-31.51.38 15.78.37 14.38.38.42.37-15.63.37 15.6.38-15.17.37-13.02.38 28.85.37-15.96.37-14.21.38 30.13.37-13.07.37-1.16.38 1.17.37 14.11.38-.11.37-15.54.37 15.07.38-13.65.37.55.38-1.24.37 1.05.37 13.69.38-28.15.37 28.73.38-29.26.37 30.15.37-13.45.38 13.88.37-16.11.38 15.4.37.03.37-14.31.38-13.32.37 11.95.37 17.08.38-53.04.37-23.54.38 2.33.37 31.33.37-15.08.38.52.37 14.13.38-14.23.37-14.93.37 15.16.38-.06.37.45.38-15.01.37 14.52.37 14.38.38-15.92.37 16.34.37-43.92.38 41.72.37-27.55.38 13.69.37.4.37-.2.38.13.37-.99.38 15.56.37-14.67.37-14.37.38 13.85.37.28.38-14.92.37 14.83.37-1.18.38 14.63.37-15.77.38 1.34.37-14.43.37 13.37.38-.44.37.47.37-1.14.38-14.45.37 29.12.38-15.83.37.8.37.52.38-.74.37-14.04.38 13.21.37.7.37 16.15.38 33.55.37-12.53.38 16.98.37-14.23.37 1.29.38-1.25.37 15.88.37-28.47.38 27.95.37-26.93.38 27.61.37-26.98.37 27.94.38.57.37-15.48.38.28.37.71.37.69.38 13.78.37 1.16.38-29.51.37 29.18.37-28.28.38 14.59.37-1.2.38 15.2.37-1.24.37-12.8.38 1.19.37-2.09.37 15.26.38-15.07.37 15.97.38-28.92.37 28.4.37-30.69.38 16.32.37 1.03.38 14.28.37 1.03.37-14.32.38.9.37-1.03.38 15.32.37-.77.37-14.38.38-1.07.37-1.65.37 2.64.38-68.06.37 22.62.38 16.81.37.92.37-29.65.38 16.01.37 13.83.38-14.73.37-.44.37-15.05.38-.44.37 15.37.38 14.64.37-14.83.37 1.21.38-.38.37 14.24.38-29.16.37 14.33.37-28.96.38 43.06.37-13.28.37 14.55.38-30.49.37 15.79.38 13.53.37-14.54.37-14.49.38 28.99.37-43.96.38 28.93.37 14.83.37-14.8.38-14.3.37 28.88.38-.18.37-43.4.37 42.67.38-44.01.37 27.94.37 15.31.38-.22.37-30.44.38 14.96.37 15.27.37-44.39.38 42.59.37-29.64.38.27.37 28.88"/><use xlink:href="#d" color="#3B75EA" transform="matrix(3.75 0 0 3.75 113.62 196.24)"/><use xlink:href="#d" color="#3B75EA" transform="matrix(3.75 0 0 3.75 220.55 7.51)"/></g><text fill="#000" stroke="none" stroke-linecap="round" stroke-linejoin="round" color="#000" font-family="KaTeX_Main" font-size="8" transform="translate(241.1 25.11)"><tspan>AVLWeakTopDown</tspan></text><g fill="none" stroke="currentColor" stroke-linecap="round" stroke-linejoin="round" color="#000"><path stroke="#00C853" stroke-dasharray="4.5,2.0,0.5,2.0,0.5,2.0" d="M205.6 22.51h29.9M28 114.02l.37 29.98.38-14.48.37-.84.38-.72.37-15.42.37-.82.38 14.48.37 2.04.38-1.44.37 14.55.37-14.14.38 1.13.37-2.08.37.08.38-45.58.37 58.63.38.91.37-31.42.37 29.92.38-14.47.37 25.78.38-1.78.37 1.12.37-44.13.38 58.72.37 1.22.38-15.74.37-.04.37 1.32.38-2.11.37 1.33.37 1.44.38-31.07.37 28.06.38 16.83.37-16.28.37.68.38-1.01.37 14.86.38-12.68.37-1.15.37-30.24.38 15.14.37 29.25.38.94.37-29.19.37 29.16.38-16.29.37 1.08.38.83.37 13.66.37-58.01.38 43.7.37 15.37.37-15.11.38-.74.37.07.38 1.04.37 15.62.37-13.26.38-16.88.37-14.44.38 44.15.37.6.37-30.16.38 30.84.37-15.73.38.92.37 16.62.37-15.36.38-69.7.37 22.67.37 35.65.38-14.49.37-.43.38.02.37 2 .37 14.86.38.07.37-28.89.38-29.23.37 60.47.37 1.01.38-29.99.37 28.6.38-14.36.37-.27.37 13.44.38-14.54.37-58.68.38 73.84.37 2.14.37-29.93.38 28.18.37-14.8.37-.01.38 13.95.37.37.38-72.67.37 57.11.37 16.43.38-15.46.37.05.38-.98.37-.28.37 13.02.38.41.37-58.86.38 27.48.37 29.14.37-14.41.38 1.56.37.08.37.11.38 13.56.37-.26.38-73.08.37 56.94.37 15.41.38-15.12.37 25.72.38-.47.37-.06.37 14.74.38-.41.37-44.8.38-1.09.37 45.72.37.2.38-29.99.37 28.91.38-14.29.37.34.37 14.7.38-30.16.37-28.43.37 57.95.38-.91.37-26.93.38 28.58.37-14.5.37-.78.38 14.72.37-.48.38-73.78.37 57.73.37 15.25.38 1.73.37-29.56.38 28.68.37-28.7.37 29.7.38.1.37-28.89.37-30.01.38 58.1.37.64.38-28.46.37 28.65.37-14.95.38.2.37 14.33.38 1.18.37-71.81.37 57.01.38 16.76.37 1.49.38-31.71.37 30.69.37-30.81.38-10.02.37 9.21.38-12.6.37-59.26.37 74.86.38 2.44.37-14.51.37-.26.38.12.37 2.3.38 15.69.37-14.26.37-29.33.38 12.97.37 29.52.38-14.31.37.29.37-15.29.38 28.71.37.04.38-13.4.37-12.77.37-16.98.38 44.32.37-15.49.37-.84.38.23.37-.67.38 14.6.37 1.28.37-44.51.38-.67.37 44 .38-15.17.37-.75.37 17.34.38-30.26.37 28.52.38-.52.37-58.49.37 27.87.38 29.39.37-14.82.38.1.37 14.59.37-29.32.38 29.48.37-.02.37-72.55.38 57.98.37 40.48.38-15.87.37-.77.37 14.57.38-27.85.37 26.91.38-.97.37-42.26.37.31.38 43.91.37-.12.38-14.31.37 1.25.37-17.23.38 28.5.37.7.37-28.92.38-27.96.37 57.28.38 1.05.37-15.44.37-1.48.38 2.44.37 1.06.38 15.6.37-1.87.37-74.33.38 59.55.37 15.1.38-.53.37-14.56.37.92.38-.67.37 1.25.38 13.67.37-15.59.37-59.01.38 74.96.37 1.09.37-.43.38-13.77.37-16.16.38 14.57.37 14.09.37 1.4.38-45.94.37.3.38 44.97.37.78.37-15.26.38-23.23.37-21.31.38 17.42.37 16.96.37-13.65.38-60.3.37 73.48.37 4.03.38-14.25.37 13.35.38-30.06.37 14.98.37 14.89.38-14.26.37-29.31.38 15.45.37 30.52.37-.55.38-13.56.37 14.17.38-44.7.37 43.79.37-.07.38-73.24.37 57.28.38 15.6.37.42.37-14.67.38 14.26.37-44.91.37 42.86.38.83.37-44 .38-1.26.37 43.08.37 1.11.38-14.38.37 14.9.38-29.16.37 13.2.37 13.81.38-44.02.37-1.21.38 43.34.37 1.54.37-15.38.38 13.38.37-43.89.37 44 .38 1.28.37-35.05.38 29.53.37 28.03.37 1.5.38-13.92.37 14.68.38-29.84.37 15.36.37 15.12.38-44.97.37 1.08.38 43.04.37-.11.37-13.7.38 13.42.37-29.48.38 14.92.37 13.94.37-15.32.38-29.73.37 16.28.37 29.25.38-14.54.37 15.15.38-15.66.37 1.61.37 1.34.38 13.16.37-45.27.38 1.13.37 45.14.37.07.38-15.05.37-1 .38 1.16.37 15.65.37-16.15.38.65.37-14.84.37-14.7.38 45.57.37-16.04.38 14.86.37-13.92.37 1.68.38 12.94.37-13.2.38-16.27.37 16.4.37-29.28.38 3.68.37-4.89.38 1 .37 15.41.37-14.02.38 1.67.37.22.38-15.31.37 1.49.37 13.13.38.72.37.71.37 15.9.38-14.57.37 15.23.38-15.12.37-29.79.37 14.13.38 14.81.37 15.54.38-27.27.37 28.33.37-.57.38-14.56.37-1.07.38-29.54.37 15.27.37 14.34.38 13 .37-29.23.37 28.28.38 1.15.37-14.74.38-2.16.37-29.08.37 29.32.38-14.56.37 14.68.38-1.56.37 14.57.37-13.6.38 15.75.37-14.85.38-30.51.37 29.64.37-14.85.38 14.38.37-.73.38 15.28.37-14.31.37 38.34.38-16.69.37-27.06.37 29.86.38-15.28.37 14.37.38 1.62.37 13.77.37-.27.38-13.28.37-1.16.38-28.69.37 29.21.37-1.43.38-13.28.37 14.11.38 13.11.37 1.08.37-14.29.38 15.16.37-58.16.37 57.72.38-28.84.37 13.01.38.95.37-.2.37 15.29.38-14.57.37 13.84.38-13.87.37-28.84.37 44.61.38-30.22.37.49.38 13.7.37 14.65.37.35.38-14.78.37-.16.38 1.66.37-13.15.37-.62.38 13.82.37.43.37.38.38 14.81.37.02.38-13.57.37-.21.37-30.44.38 6.95.37-20.66.38 16.26.37-11.88.37 27.83.38 1.82.37-15.35.38 15.25.37-56.96.37 57.56.38-28.67.37 14.18.37.12.38-.2.37 15.94.38-13.53.37 13.05.37-29.42.38 1.03.37.04.38 29.02.37-30.57.37 15.32.38 14.52.37-15.24.38 13.86.37-14.54.37-29.78.38 28.16.37-13.53.37 14.25.38.66.37 14.08.38-13.45.37 13.96.37-16 .38-29.74.37 28.04.38-14.65.37 15.42.37.61.38 14.91.37-14.53.38 14.91.37-14.7.37-14.85.38-.4.37-1.58.38-.01.37 29.25.37 25.17.38-14.69.37 14.35.37-14.2.38-14.09.37 12.24.38-27.34.37 43.03.37-28.95.38 29.02.37-14.47.38 15.26.37-15.21.37-14.76.38 16.92.37-.07.38-15.25.37.85.37 26.58.38-15.35.37 13.44.37-13.87.38.34.37.21.38-14.78.37.12.37 28.45.38-29.8.37 32.18.38-17.24.37 16.43.37-31.15.38 17.32.37-.34.38-29.94.37 45.13.37-28.99.38 28.81.37-13.12.38 14.55.37-14.85.37-.41.38-.98.37-13.88.37 1.64.38 27.7.37-28.31.38 30.1.37-14.91.37 15.3.38-54.03.37-7.67.38 34.37.37-57.42.37 59.43.38-12.17.37-.58.38 15.58.37-14.45.37 1.26.38-1.99.37.61.37-14.28.38-1.27.37 14.27.38-.39.37 14.65.37-14 .38-.37.37.5.38-.87.37-14.29.37-1.87.38 16.8.37-1.59.38 16.34.37-14.18.37-1.68.38.18.37 14.07.38-44.17.37 13.71.37 14.61.38.14.37 14.73.37-15.03.38-.47.37-1.01.38 15.33.37-43.57.37 13.5.38 15.25.37-.19.38.92.37 14.82.37-14.35.38-1.25.37 15.57.38-44.07.37 13.7.37 40.54.38-.86.37-1.22.37 14.98.38-12.79.37-.71.38 16.22.37-30.33.37-1.92.38-.5.37 15.6.38 12.82.37-13.01.37.5.38 13.59.37-16.93.38-13.13.37 14.63.37-29.59.38 44.03.37-14.12.38-.72.37 15.5.37-16.19.38.55.37.82.37-13.56.38-.24.37 15.42.38-.88.37 15.09.37-14.92.38 1.12.37 14.26.38-15.71.37-12.43.37-.51.38.14.37 28.07.38-12.25.37.77.37 12.56.38-12.4.37-.57.37-.35.38-14.43.37 1.24.38 14.96.37 14.74.37-12.65.38-39.47.37 22.94.38-12.56.37.72.37-14.23.38 1.43.37 15.49.38-.59.37 13.91.37-14.06.38-.25.37-.83.38-1.1.37.84.37-15.07.38 1 .37 15.06.37 13.71.38-12.78.37.49.38 13.15.37-26.47.37 13.48.38-14.8.37-.92.38 13.96.37 12.09.37-12.72.38-.36.37 14.05.38-29.47.37 13.86.37-27.38.38 27.74.37 14.71.37-14.95.38 1.45.37-.26.38 15.65.37-30.45.37 13.95.38-29.2.37 27.27.38 12.82.37-12.91.37-.13.38-.78.37 14.34.38-27.63.37 15.54.37-3.46.38 28.64.37 14.09.38-15.32.37-.55.37-.38.38 15.03.37-14.52.37-14.7.38-.37.37 14.84.38.67.37-.06.37-.11.38 13.72.37-13.99.38 14.48.37-30.33.37 2.39.38-1.8.37 14.49.38.76.37 15.06.37-16.16.38 1.1.37 15.06.37-30.36.38 17.06.37-29.23.38 43.6.37-14.9.37-.05.38.35.37 13.69.38-15.43.37.82.37 1.18.38-1.89.37-27.72.38 29.96.37 16.26.37-15.84.38-1.08.37 15.51.38-14.45.37.97.37-14.36.38-1.33.37 14.98.37 1.39.38-23.84.37-7.17.38 3.01.37.26.37 16.92.38-31.01.37 16.62.38-29.36.37 44.9.37-13.8.38-1.11.37 14.04.38-13.9.37.68.37-.83.38-14.31.37.04.37 14.4.38-.27.37-.01.38 15.17.37-12.69.37-1.88.38-14.28.37 12.14.38-13.76.37 14.51.37.32.38 14.85.37-14.64.38-.51.37.85.37-.26.38-13.35.37 1.19.38 13.92.37 11.99.37-13.74.38-1.23.37-1.81.37 1.06.38-.6.37-12.72.38 13.32.37-15.97.37 28.16.38-14.98.37.29.38-.23.37-14.97.37 54.13.38-29.56.37 14.77.38-13.56.37 27.78.37-12.06.38-14.41.37 28.72.37-29.32.38 27.5.37-27.5.38 14.34.37-.77.37.84.38 15.02.37-30.78.38 14.78.37 15.11.37-31.13.38 29.71.37-44.09.38 31.02.37.17.37 13.79.38-14.81.37-14.82.38 30.32.37-15 .37 1.6.38-29.14.37 42.63.37-14.44.38 1.09.37-.83.38-1.15.37 1.02.37 16.05.38-29.09.37 14.8.38-15.83.37 28.7.37-13.42.38.65.37 1 .38-.84.37 1.31.37 13.75.38-30.93.37-13.58.37 44.88.38-54.68.37 10.7.38 17.14.37-13.07.37-14.63.38 30.16.37-15.01.38-13.85.37.9.37 29.12.38-13.02.37 1.02.38-1.02.37-1.54.37.19.38.49.37.38.38-30.31.37 43.33.37-14.54.38-.29.37.75.37.67.38.78.37-2.34.38.58.37-30.27.37 44.32.38-13.98.37.74.38 13.82.37-30.43.37 28.89.38-52.77.37 19.47.38-62.9.37 75.62.37-13.24.38-1.97.37-14.41.37 29.41.38 1.89.37-45.8.38 30.53.37-27.57.37 43.97.38.21.37-28.03.38 13.53.37-.23"/><use xlink:href="#i" color="#00C853" transform="matrix(3.75 0 0 3.75 171.2 144.33)"/><use xlink:href="#i" color="#00C853" transform="matrix(3.75 0 0 3.75 220.55 22.51)"/></g><path fill="none" stroke="none" stroke-linecap="round" stroke-linejoin="round" stroke-width="0" d="M28 45.01V205M371.99 45.01H28" color="#000"/></svg>