<svg xmlns="http://www.w3.org/2000/svg" xmlns:xlink="http://www.w3.org/1999/xlink" viewBox="0 0 400 200"><path fill="none" d="M0 0h400v200H0z"/><defs><use xlink:href="#b" id="h" fill="currentColor" stroke="none"/><use xlink:href="#b" id="c" stroke="currentColor" transform="rotate(180)"/><use xlink:href="#c" id="g" fill="currentColor" stroke="none"/><use xlink:href="#d" id="e" stroke="currentColor" transform="rotate(45)"/><path id="d" stroke="currentColor" stroke-width=".222" d="M-1-1h2v2h-2z"/><path id="b" stroke="currentColor" stroke-width=".222" d="m0-1.33-1.33 2h2.66z"/><path id="f" stroke="currentColor" stroke-width=".222" d="M0 1.33 1.265.411.782-1.067l-1.564-.009-.483 1.487z"/><circle id="a" cx="0" cy="0" r="1" stroke="currentColor" stroke-width=".222"/></defs><g fill="none" stroke="none" stroke-linecap="round" stroke-linejoin="round" stroke-width="0" color="#000"><path d="M63.82 164v-9m0-118.99v9"/><text fill="#000" font-family="Arial" font-size="8" text-anchor="middle" transform="translate(63.82 175.6)"><tspan> 1</tspan></text></g><g fill="none" stroke="none" stroke-linecap="round" stroke-linejoin="round" stroke-width="0" color="#000"><path d="M97.44 164v-9m0-118.99v9"/><text fill="#000" font-family="Arial" font-size="8" text-anchor="middle" transform="translate(97.44 175.6)"><tspan> 2</tspan></text></g><g fill="none" stroke="none" stroke-linecap="round" stroke-linejoin="round" stroke-width="0" color="#000"><path d="M131.07 164v-9m0-118.99v9"/><text fill="#000" font-family="Arial" font-size="8" text-anchor="middle" transform="translate(131.07 175.6)"><tspan> 3</tspan></text></g><g fill="none" stroke="none" stroke-linecap="round" stroke-linejoin="round" stroke-width="0" color="#000"><path d="M164.69 164v-9m0-118.99v9"/><text fill="#000" font-family="Arial" font-size="8" text-anchor="middle" transform="translate(164.69 175.6)"><tspan> 4</tspan></text></g><g fill="none" stroke="none" stroke-linecap="round" stroke-linejoin="round" stroke-width="0" color="#000"><path d="M198.31 164v-9m0-118.99v9"/><text fill="#000" font-family="Arial" font-size="8" text-anchor="middle" transform="translate(198.31 175.6)"><tspan> 5</tspan></text></g><g fill="none" stroke="none" stroke-linecap="round" stroke-linejoin="round" stroke-width="0" color="#000"><path d="M231.94 164v-9m0-118.99v9"/><text fill="#000" font-family="Arial" font-size="8" text-anchor="middle" transform="translate(231.94 175.6)"><tspan> 6</tspan></text></g><g fill="none" stroke="none" stroke-linecap="round" stroke-linejoin="round" stroke-width="0" color="#000"><path d="M265.56 164v-9m0-118.99v9"/><text fill="#000" font-family="Arial" font-size="8" text-anchor="middle" transform="translate(265.56 175.6)"><tspan> 7</tspan></text></g><g fill="none" stroke="none" stroke-linecap="round" stroke-linejoin="round" stroke-width="0" color="#000"><path d="M299.18 164v-9m0-118.99v9"/><text fill="#000" font-family="Arial" font-size="8" text-anchor="middle" transform="translate(299.18 175.6)"><tspan> 8</tspan></text></g><g fill="none" stroke="none" stroke-linecap="round" stroke-linejoin="round" stroke-width="0" color="#000"><path d="M332.81 164v-9m0-118.99v9"/><text fill="#000" font-family="Arial" font-size="8" text-anchor="middle" transform="translate(332.81 175.6)"><tspan> 9</tspan></text></g><g fill="none" stroke="none" stroke-linecap="round" stroke-linejoin="round" stroke-width="0" color="#000"><path d="M366.43 164v-9m0-118.99v9"/><text fill="#000" font-family="Arial" font-size="8" text-anchor="middle" transform="translate(366.43 175.6)"><tspan> 10</tspan></text></g><g fill="none" stroke="none" stroke-linecap="round" stroke-linejoin="round" stroke-width="0" color="#000"><path d="M366.43 164h-9"/><text fill="#000" font-family="Arial" font-size="8" transform="translate(374.82 166.6)"><tspan>0.00</tspan></text></g><g fill="none" stroke="none" stroke-linecap="round" stroke-linejoin="round" stroke-width="0" color="#000"><path d="M366.43 142.67h-9"/><text fill="#000" font-family="Arial" font-size="8" transform="translate(374.82 145.27)"><tspan>0.20</tspan></text></g><g fill="none" stroke="none" stroke-linecap="round" stroke-linejoin="round" stroke-width="0" color="#000"><path d="M366.43 121.34h-9"/><text fill="#000" font-family="Arial" font-size="8" transform="translate(374.82 123.94)"><tspan>0.40</tspan></text></g><g fill="none" stroke="none" stroke-linecap="round" stroke-linejoin="round" stroke-width="0" color="#000"><path d="M366.43 100h-9"/><text fill="#000" font-family="Arial" font-size="8" transform="translate(374.82 102.6)"><tspan>0.60</tspan></text></g><g fill="none" stroke="none" stroke-linecap="round" stroke-linejoin="round" stroke-width="0" color="#000"><path d="M366.43 78.67h-9"/><text fill="#000" font-family="Arial" font-size="8" transform="translate(374.82 81.27)"><tspan>0.80</tspan></text></g><g fill="none" stroke="none" stroke-linecap="round" stroke-linejoin="round" stroke-width="0" color="#000"><path d="M366.43 57.34h-9"/><text fill="#000" font-family="Arial" font-size="8" transform="translate(374.82 59.94)"><tspan>1.00</tspan></text></g><g fill="none" stroke="none" stroke-linecap="round" stroke-linejoin="round" stroke-width="0" color="#000"><path d="M366.43 36.01h-9"/><text fill="#000" font-family="Arial" font-size="8" transform="translate(374.82 38.61)"><tspan>1.20</tspan></text></g><path fill="none" stroke="none" stroke-linecap="round" stroke-linejoin="round" stroke-width="0" d="M33.56 36.01V164M366.43 36.01H33.56" color="#000"/><text fill="#000" stroke="none" stroke-linecap="round" stroke-linejoin="round" stroke-width="0" color="#000" font-family="Arial" font-size="8" text-anchor="middle" transform="rotate(-90 56.24 43.77)"><tspan font-weight="bold">Partition Depth</tspan><tspan> / Size</tspan></text><text fill="#000" stroke="none" stroke-linecap="round" stroke-linejoin="round" stroke-width="0" color="#000" font-family="Arial" font-size="8" text-anchor="middle" transform="translate(199.99 193.6)"><tspan>Size × 10</tspan><tspan dy="-4" font-size="6.4">5</tspan></text><text fill="#000" stroke="none" stroke-linecap="round" stroke-linejoin="round" stroke-width=".5" color="#000" font-family="Arial" font-size="8" transform="translate(128.3 10.11)"><tspan>Median</tspan></text><g fill="none" stroke="currentColor" stroke-linecap="round" stroke-linejoin="round" stroke-width=".5" color="#000"><path stroke="#000" d="M91.3 7.51h31.4M33.56 59.62l.04.44.33 1.34.34-.47.34-1.41.33-2.49.34-3.14.34-1.83.33 1.01.34 2.9.34 2.87.33 1.91.34 1.03.34.3.33-.28.34-.61.33-.66.34-.72.34-.96.33-1.38.34-1.82.34-2.07.33-1.91.34-1.14.34.08.33 1.26.34 1.96.34 2.07.33 1.81.34 1.42.34 1.04.33.76.34.58.34.47.33.33.34.13.34-.11.33-.32.34-.46.33-.47.34-.4.34-.27.33-.19.34-.21.34-.31.33-.47.34-.64.34-.79.33-.9.34-1 .34-1.09.33-1.18.34-1.26.34-1.26.33-1.11.34-.8.34-.32.33.24.34.75.34 1.14.33 1.33.34 1.37.34 1.3.33 1.18.34 1.04.33.9.34.77.34.64.33.51.34.4.34.31.33.26.34.25.34.26.33.28.34.28.34.25.33.21.34.13.34.05.33-.03.34-.1.34-.18.33-.23.34-.28.34-.33.33-.34.34-.32.34-.28.33-.2.34-.11.33-.04.34.01.34.02.33.02.34-.03.34-.08.33-.13.34-.2.34-.26.33-.31.34-.38.34-.41.33-.45.34-.48.34-.48.33-.49.34-.5.34-.51.33-.54.34-.57.34-.6.33-.65.34-.68.34-.72.33-.74.34-.74.33-.73.34-.67.34-.56.33-.41.34-.22.34.01.33.24.34.44.34.61.33.73.34.8.34.83.33.81.34.79.34.75.33.7.34.65.34.61.33.56.34.52.34.49.33.46.34.43.34.41.33.38.34.36.33.31.34.28.34.25.33.2.34.17.34.14.33.1.34.09.34.08.33.07.34.09.34.11.33.13.34.15.34.18.33.19.34.19.34.18.33.17.34.14.34.12.33.08.34.05.33.03h.34l.34-.02.33-.04.34-.05.34-.07.33-.07.34-.09.34-.1.33-.11.34-.14.34-.15.33-.18.34-.19.34-.21.33-.23.34-.23.34-.22.33-.21.34-.19.34-.15.33-.11.34-.06.34-.03.33.02.34.04.33.06.34.07.34.07.33.06.34.04.34.03h.33l.34-.01.34-.03.33-.05.34-.06.34-.08.33-.1.34-.1.34-.12.33-.13.34-.14.34-.16.33-.17.34-.19.34-.21.33-.22.34-.24.34-.25.33-.26.34-.25.33-.26.34-.26.34-.25.33-.24.34-.24.34-.24.33-.23.34-.24.34-.24.33-.25.34-.26.34-.27.33-.29.34-.3.34-.32.33-.32.34-.35.34-.35.33-.37.34-.37.34-.38.33-.39.34-.4.34-.41.33-.41.34-.42.33-.42.34-.43.34-.41.33-.39.34-.35.34-.31.33-.25.34-.17.34-.07.33.02.34.12.34.21.33.29.34.37.34.41.33.46.34.47.34.49.33.49.34.48.34.47.33.45.34.45.34.43.33.41.34.4.33.39.34.38.34.36.33.35.34.33.34.32.33.3.34.29.34.27.33.26.34.24.34.24.33.23.34.23.34.22.33.22.34.22.34.22.33.21.34.22.34.21.33.2.34.2.33.18.34.18.34.16.33.16.34.14.34.12.33.12.34.1.34.1.33.08.34.07.34.06.33.05.34.05.34.03.33.02.34.02.34.01h.33l.34.01h.34l.33.01.34.02.34.03.33.04.34.06.33.08.34.09.34.11.33.12.34.13.34.13.33.13.34.13.34.13.33.12.34.11.34.1.33.09.34.08.34.08.33.06.34.06.34.05.33.04.34.03.34.02.33.02h.68l.33-.02.34-.01.33-.03.34-.03.34-.04.33-.03.34-.04.34-.04.33-.04.34-.04.34-.03.33-.04.34-.04.34-.04.33-.04.34-.05.34-.05.33-.06.34-.06.34-.08.33-.08.34-.09.34-.09.33-.1.34-.11.34-.11.33-.11.34-.12.33-.13.34-.13.34-.13.33-.14.34-.14.34-.15.33-.14.34-.13.34-.13.33-.12.34-.1.34-.09.33-.06.34-.04.34-.02h.33l.34.02.34.04.33.05.34.05.34.07.33.06.34.07.33.06.34.06.34.05.33.05.34.04.34.03.33.03.34.02.34.02.33.01.34.01h.67l.34-.02.34-.01.33-.02.34-.03.34-.03.33-.04.34-.03.34-.04.33-.05.34-.04.34-.05.33-.04.34-.05.33-.05.34-.06.34-.06.33-.06.34-.06.34-.07.33-.08.34-.08.34-.09.33-.09.34-.09.34-.1.33-.1.34-.11.34-.11.33-.12.34-.12.34-.13.33-.13.34-.13.34-.14.33-.14.34-.15.34-.14.33-.15.34-.15.33-.14.34-.14.34-.13.33-.13.34-.12.34-.12.33-.11.34-.11.34-.1.33-.1.34-.11.34-.1.33-.11.34-.11.34-.11.33-.11.34-.12.34-.12.33-.12.34-.13.34-.13.33-.14.34-.14.34-.14.33-.16.34-.15.33-.16.34-.17.34-.17.33-.17.34-.18.34-.18.33-.18.34-.18.34-.18.33-.19.34-.18.34-.18.33-.18.34-.19.34-.18.33-.19.34-.19.34-.2.33-.19.34-.21.34-.2.33-.21.34-.21.34-.22.33-.22.34-.22.33-.23.34-.23.34-.23.33-.24.34-.24.34-.23.33-.24.34-.24.34-.24.33-.22.34-.22.34-.19.33-.18.34-.14.34-.12.33-.07.34-.02.34.02.33.07.34.11.34.15.33.19.34.22.33.24.34.26.34.27.33.28.34.28.34.28.33.28.34.27.34.27.33.27.34.26.34.26.33.25.34.25.34.24.33.24.34.23.34.24.33.22.34.22.34.22.33.21.34.21.34.21.33.2.34.2.33.19.34.2.34.19.33.19.34.19.34.18.33.18.34.18.34.18.33.17.34.17.34.16.33.16.34.16.34.15.33.14.34.15.34.13.33.14.34.13.34.12.33.12.34.12.34.11.33.11.34.1.33.1.34.1.34.1.33.1.34.1.34.11.33.1.34.11.34.11.33.12.34.12.34.12.33.12.34.12.34.12.33.12.34.11.34.12.33.11.34.11.34.1.33.1.34.1.34.09.33.08.34.09.33.08.34.07.34.07.33.07.34.06.34.06.33.05.34.05.34.05.33.05.34.04.34.05.33.04.34.04.34.04.33.04.34.04.34.04.33.03.34.03.34.04.33.03.34.02.34.02.33.02.34.02.33.01.34.01.34.01h1.01l.33-.01.34-.01.34-.01.33-.01.34-.02.34-.02.33-.02.34-.02.34-.02.33-.02.34-.01.34-.01h.33l.34.01.34.02.33.03.34.04.33.05.34.07.34.07.33.08.34.09.34.08.33.09.34.09.34.09.33.08.34.09.34.08.33.07.34.08.34.07.33.07.34.06.34.06.33.06.34.06.34.05.33.05.34.05.34.04.33.04.34.03.33.04.34.03.34.03.33.03.34.03.34.03.33.03.34.03.34.02.33.03.34.02.34.02.33.02.34.02.34.01.33.01.34.01h1.01l.34-.01h.33l.34-.02.34-.01.33-.02.34-.02.33-.03.34-.03.34-.03.33-.03.34-.04.34-.03.33-.04.34-.03.34-.03.33-.03.34-.03.34-.02.33-.02.34-.01.34-.01h1.01l.33-.01h.68l.33-.01.34-.01.34-.01.33-.02.34-.02.33-.02.34-.02.34-.03.33-.02.34-.04.34-.03.33-.04.34-.04.34-.04.33-.04.34-.05.34-.05.33-.05.34-.05.34-.06.33-.05.34-.05.34-.06.33-.05.34-.06.34-.05.33-.05.34-.06.34-.05.33-.06.34-.07.33-.06.34-.07.34-.07.33-.07.34-.07.34-.08.33-.07.34-.08.34-.08.33-.08.34-.08.34-.09.33-.08.34-.09.34-.09.33-.09.34-.09.34-.09.33-.09.34-.09.34-.08.33-.08.34-.06.33-.05.34-.04.34-.02h.33l.34.02.34.03.33.04.34.04.34.06.33.05.34.06.34.05.33.05.34.06.34.04.33.05.34.04.34.05.33.04.34.04.34.03.33.04.34.04.34.03.33.03.34.03.33.03.34.02.34.02.33.02.34.02.34.01.33.01.34.01.34.01.33.02.34.01.34.01.33.01.34.01.34.01.33.01.34.01h.34l.33.01.34-.01h.67l.34-.01.34-.01.33-.01.34-.02.33-.01.34-.02.34-.02.33-.02.34-.02.34-.03.33-.02.34-.03.34-.03.33-.03.34-.03.34-.03.33-.03.34-.03.34-.03.33-.02.34-.02.34-.02.33-.02.34-.01.34-.01.33-.01.34-.02.34-.02.33-.01.34-.03.33-.02.34-.02.34-.03.33-.03.34-.03.34-.04.33-.03.34-.04.34-.04.33-.03.34-.05.34-.04.33-.04.34-.05.34-.05.33-.05.34-.05.34-.05.33-.05.34-.06.34-.05.33-.06.34-.05.33-.06.34-.05.34-.06.33-.05.34-.06.34-.06.33-.05.34-.06.34-.07.33-.06.34-.06.34-.07.33-.07.34-.08.34-.07.33-.08.34-.08.34-.07.33-.08.34-.08.34-.08.33-.08.34-.09.34-.09.33-.09.34-.09.33-.09.34-.1.34-.09.33-.09.34-.08.34-.07.33-.06.34-.05.34-.04.33-.04.34-.03.34-.02.33-.03.34-.03.34-.03.33-.03.34-.03.34-.04.33-.05.34-.04.34-.05.33-.06.34-.05.34-.05.33-.05.34-.05.33-.06.34-.05.34-.06.33-.06.34-.06.34-.05.33-.06.34-.07.34-.06.33-.07.34-.08.34-.07.33-.07.34-.07.34-.06.33-.06.34-.07.34-.07.33-.08.34-.07.34-.07.33-.08.34-.07.34-.08.33-.08.34-.08.33-.08.34-.08.34-.08.33-.09.34-.08.34-.09.33-.09.34-.09.34-.09.33-.1.34-.1.34-.1.33-.1.34-.1.34-.1.33-.11.34-.1.34-.1.33-.1.34-.09.34-.09.33-.09.34-.09.34-.08.33-.08.34-.08.33-.09.34-.09.34-.07.33-.07.34-.1.34-.1.33-.09.34-.09.34-.07.33-.16.34-.01"/><use xlink:href="#g" transform="matrix(4.5 0 0 4.5 363.06 51.59)"/><use xlink:href="#g" transform="matrix(4.5 0 0 4.5 107 7.51)"/></g><text fill="#000" stroke="none" stroke-linecap="round" stroke-linejoin="round" color="#000" font-family="Arial" font-size="8" transform="translate(128.3 25.11)"><tspan>Height</tspan></text><g fill="none" stroke="currentColor" stroke-linecap="round" stroke-linejoin="round" color="#000"><path stroke="#9F650D" stroke-dasharray="4.0,2.0,1.0,2.0" d="M91.3 22.51h31.4M33.56 64.55l.04.48.33.71.34-.65.34-1.11.33-2.55.34-4.06.34-2.68.33 1.34.34 4.16.34 4 .33 2.45.34.99.34-.11.33-.88.34-1.19.33-1.14.34-.98.34-.9.33-1.14.34-1.84.34-2.59.33-2.7.34-1.77h.34l.33 1.81.34 2.93.34 3.14.33 2.69.34 1.98.34 1.24.33.6.34.15.34-.13.33-.26.34-.39.34-.56.33-.71.34-.78.33-.67.34-.39.34-.06.33.17.34.2.34.02.33-.24.34-.5.34-.69.33-.85.34-1.05.34-1.31.33-1.58.34-1.82.34-1.87.33-1.71.34-1.25.34-.55.33.26.34 1.02.34 1.59.33 1.93.34 2.03.34 1.95.33 1.76.34 1.53.33 1.28.34 1.01.34.77.33.53.34.33.34.17.33.06.34.02h.34l.33.01.34-.02.34-.06.33-.15.34-.24.34-.34.33-.39.34-.42.34-.4.33-.38.34-.33.34-.3.33-.25.34-.2.34-.14.33-.09.34-.05.33-.02h.34l.34-.01h.33l.34-.01.34-.01.33-.01.34-.04.34-.08.33-.12.34-.18.34-.23.33-.27.34-.31.34-.35.33-.39.34-.45.34-.52.33-.6.34-.7.34-.8.33-.88.34-.98.34-1.04.33-1.1.34-1.1.33-1.07.34-.98.34-.83.33-.6.34-.33.34-.02.33.28.34.58.34.81.33.99.34 1.1.34 1.16.33 1.17.34 1.16.34 1.11.33 1.05.34.99.34.92.33.85.34.77.34.7.33.62.34.54.34.47.33.4.34.36.33.32.34.28.34.25.33.21.34.17.34.12.33.08.34.04h.34l.33-.02.34-.04.34-.04.33-.06.34-.07.34-.08.33-.11.34-.13.34-.14.33-.15.34-.14.34-.13.33-.11.34-.09.33-.08.34-.07.34-.07.33-.09.34-.1.34-.12.33-.13.34-.15.34-.15.33-.16.34-.18.34-.18.33-.2.34-.21.34-.22.33-.23.34-.23.34-.22.33-.2.34-.18.34-.16.33-.12.34-.08.34-.04.33-.01.34.03.33.05.34.08.34.08.33.08.34.08.34.07.33.06.34.06.34.04.33.03.34.03h.34l.33-.01.34-.03.34-.04.33-.06.34-.07.34-.09.33-.09.34-.11.34-.12.33-.14.34-.14.34-.16.33-.17.34-.17.33-.16.34-.17.34-.15.33-.15.34-.15.34-.16.33-.16.34-.19.34-.21.33-.24.34-.27.34-.3.33-.33.34-.37.34-.39.33-.42.34-.45.34-.48.33-.5.34-.53.34-.55.33-.57.34-.59.34-.61.33-.61.34-.62.33-.61.34-.6.34-.58.33-.54.34-.48.34-.42.33-.33.34-.22.34-.12.33.01.34.14.34.25.33.35.34.45.34.52.33.57.34.62.34.64.33.65.34.65.34.65.33.65.34.63.34.62.33.61.34.59.33.57.34.56.34.54.33.52.34.51.34.48.33.47.34.43.34.42.33.39.34.37.34.34.33.32.34.3.34.29.33.27.34.25.34.24.33.23.34.22.34.19.33.19.34.16.33.14.34.13.34.1.33.08.34.07.34.06.33.05.34.05.34.05.33.05.34.04.34.05.33.03.34.02.34.01h.33l.34-.02.34-.03.33-.02.34-.03.34-.02.33-.02h.68l.33.01.34.01h.33l.34-.01.34-.02.33-.03.34-.04.34-.04.33-.04.34-.03.34-.04.33-.03.34-.03.34-.04.33-.04.34-.06.34-.07.33-.07.34-.08.34-.08.33-.07.34-.05.34-.05.33-.02.34-.01.34.01.33.02.34.03.33.02.34.02.34.01h.33l.34-.02.34-.04.33-.05.34-.07.34-.08.33-.09.34-.09.34-.09.33-.09.34-.09.34-.09.33-.08.34-.09.34-.08.33-.09.34-.1.34-.1.33-.1.34-.11.34-.12.33-.12.34-.13.33-.13.34-.13.34-.13.33-.14.34-.14.34-.13.33-.13.34-.11.34-.11.33-.08.34-.07.34-.04.33-.03.34-.01h.34l.33.01.34.01.34.01.33.01h.34l.34.01h.33l.34.01h.33l.34.01.34.02.33.01.34.02.34.01.33.01h.34l.34-.01.33-.01.34-.01.34-.02.33-.02.34-.02.34-.01.33-.01.34.01.34.01.33.01.34.03.34.02.33.02.34.02.34.01h.67l.33-.02.34-.02.34-.02.33-.03.34-.04.34-.04.33-.04.34-.04.34-.04.33-.04.34-.03.34-.04.33-.03.34-.04.34-.04.33-.04.34-.04.34-.05.33-.04.34-.04.34-.04.33-.03.34-.02.34-.01h1.34l.34-.01.33-.02.34-.02.34-.04.33-.04.34-.06.34-.06.33-.07.34-.07.34-.09.33-.09.34-.1.34-.1.33-.11.34-.13.34-.12.33-.14.34-.15.34-.15.33-.16.34-.16.34-.17.33-.18.34-.19.33-.2.34-.21.34-.21.33-.23.34-.23.34-.25.33-.25.34-.25.34-.27.33-.26.34-.27.34-.28.33-.28.34-.28.34-.29.33-.3.34-.29.34-.31.33-.3.34-.31.34-.31.33-.32.34-.32.34-.32.33-.32.34-.32.33-.32.34-.33.34-.32.33-.32.34-.32.34-.32.33-.31.34-.31.34-.3.33-.28.34-.27.34-.24.33-.21.34-.18.34-.13.33-.09.34-.04.34.02.33.07.34.13.34.17.33.21.34.25.33.29.34.3.34.32.33.33.34.34.34.34.33.35.34.35.34.34.33.35.34.35.34.34.33.34.34.34.34.34.33.34.34.34.34.33.33.33.34.33.34.32.33.32.34.32.34.31.33.3.34.3.33.3.34.29.34.28.33.28.34.28.34.27.33.26.34.26.34.25.33.24.34.24.34.23.33.22.34.22.34.21.33.21.34.21.34.2.33.2.34.2.34.2.33.19.34.19.34.19.33.18.34.18.33.17.34.17.34.16.33.15.34.15.34.14.33.13.34.12.34.11.33.11.34.1.34.09.33.08.34.08.34.06.33.07.34.06.34.07.33.06.34.06.34.07.33.07.34.07.34.07.33.07.34.06.33.06.34.06.34.06.33.06.34.06.34.07.33.07.34.08.34.07.33.08.34.06.34.06.33.04.34.03.34.02h.67l.34-.02.33-.02.34-.01.34-.02.33-.01.34-.01h1.34l.34-.01.34-.02.33-.02.34-.04.34-.05.33-.07.34-.07.34-.08.33-.09.34-.08.34-.09.33-.08.34-.07.34-.06.33-.04.34-.04.34-.02.33-.02.34-.02.34-.01.33-.02.34-.01.33-.02.34-.02.34-.01.33-.02h.34l.34-.01h.33l.34-.01h.67l.34-.01.34-.01.33-.01.34-.02h.34l.33-.01h.34l.34.01.33.01.34.01.34.02.33.01.34.02.34.01h.67l.33-.01h.34l.34-.01.33-.01.34-.01.34-.02.33-.02.34-.02.34-.02.33-.04.34-.03.34-.03.33-.03.34-.02.34-.02.33-.01.34-.01h.34l.33-.01.34-.03.34-.03.33-.05.34-.06.34-.08.33-.08.34-.09.33-.08.34-.07.34-.05.33-.03.34-.02h.34l.33.01.34.01.34-.01.33-.01.34-.02.34-.04.33-.05.34-.04.34-.05.33-.03.34-.02.34-.01h.33l.34.01.34.02.33.02.34.01.34.02.33.01.34-.01.33-.01.34-.02.34-.03.33-.03.34-.03.34-.03.33-.03.34-.02.34-.02.33-.02.34-.02.34-.04.33-.04.34-.06.34-.07.33-.08.34-.08.34-.07.33-.07.34-.05.34-.06.33-.04.34-.04.34-.05.33-.05.34-.06.33-.07.34-.08.34-.07.33-.07.34-.06.34-.05.33-.04.34-.04.34-.02.33-.03.34-.02.34-.03.33-.03.34-.03.34-.03.33-.04.34-.04.34-.04.33-.05.34-.04.34-.03.33-.03.34-.04.33-.04.34-.05.34-.07.33-.08.34-.08.34-.09.33-.07.34-.05.34-.02.33.01.34.04.34.06.33.08.34.09.34.09.33.08.34.07.34.05.33.03.34.02h.67l.34-.01.34-.01.33-.01.34-.01.33-.02.34-.01.34-.02.33-.02.34-.02.34-.02h.33l.34.01.34.03.33.05.34.06.34.05.33.05.34.02h.34l.33-.02.34-.04.34-.05.33-.04.34-.03h.34l.33.02.34.04.34.05.33.04.34.04.33.01h.34l.34-.03.33-.04.34-.05.34-.04.33-.04.34-.01h.34l.33.01.34.02.34.01.33.01.34-.02.34-.03.33-.05.34-.06.34-.07.33-.08.34-.07.34-.06.33-.05.34-.04.34-.02h.33l.34.01.33.01.34.01.34.02.33.01h.34l.34.01h.67l.34-.02.33-.04.34-.06.34-.09.33-.1.34-.09.34-.07.33-.05h.34l.34.01.33.04.34.05.34.04.33.05.34.06.33.05.34.07.34.06.33.05.34.03h.34l.33-.02.34-.03.34-.03.33-.01.34.04.34.06.33.08.34.07.34.03.33-.02.34-.1.34-.14.33-.19.34-.2.34-.19.33-.15.34-.08h.34l.33.08.34.15.33.18.34.16.34.1.33.02.34-.06.34-.11.33-.13.34-.12.34-.09.33-.05h.34l.34.02.33.03.34.02.34.01h.67l.34-.01.33-.02.34-.04.34-.06.33-.06.34-.07.34-.06.33-.06.34-.06.33-.06.34-.08.34-.07.33-.07.34-.03.34-.02h.33l.34-.02.34-.06.33-.09.34-.1.34-.09.33-.07.34-.04.34-.04.33-.03.34-.04.34-.06.33-.09.34-.12.34-.12.33-.13.34-.14.34-.17.33-.14.34-.07.33-.03.34-.02.34-.06.33-.09.34-.09.34-.06.33-.06.34-.09.34-.13.33-.14.34-.14.34-.14.33-.15.34-.14.34-.12.33-.1.34-.09.34-.14.33-.2.34-.18.34-.1.33-.06.34-.16.34-.22.33-.12.34-.04.33-.1.34-.17.34-.17.33-.11.34-.14.34-.19.33-.12.34-.13.34-.15.33-.12h.34"/><use xlink:href="#c" color="#9F650D" transform="matrix(4.5 0 0 4.5 85.76 65.68)"/><use xlink:href="#c" color="#9F650D" transform="matrix(4.5 0 0 4.5 107 22.51)"/></g><text fill="#000" stroke="none" stroke-linecap="round" stroke-linejoin="round" color="#000" font-family="Arial" font-size="8" transform="translate(204.5 10.11)"><tspan>Weight</tspan></text><g fill="none" stroke="currentColor" stroke-linecap="round" stroke-linejoin="round" color="#000"><path stroke="#3B75EA" d="M167.5 7.51h31.4M33.56 98.67l.04-.01.33-.09.34.01.34.02.33.03.34.05.34-.07.33-.19.34-.15.34-.03.33.1.34.16.34.18.33.11.34.02.33-.05.34-.07.34-.05.33-.02.34-.01.34-.01.33-.01.34.01.34.02.33.01.34-.02.34-.03.33-.04.34-.04.34-.04.33-.02.34.01.34.04.33.06.34.05.34.03h.33l.34-.02.33-.04.34-.05.34-.04.33-.03.34-.02.34-.02.33-.01.34.01.34.01.33.01.34.01.34.02h.33l.34.01.34-.01h.33l.34-.01.34-.01h.33l.34.01.34.01.33.02.34.02.34.02h.33l.34.01.33-.01h.34l.34-.01h.67l.34.01.33.01h.34l.34.01h1.01l.33-.01.34-.01h.67l.34.01.34.01.33.01.34.02.34.01h.67l.34-.01.33-.01.34-.01h.33l.34-.01h.34l.33-.01.34-.01h.34l.33-.01h.34l.34-.01h.67l.34-.01h.33l.34-.01.34-.01.33-.01.34-.01.34-.01.33-.01h.68l.33.01.34.01.34.02.33.01.34.01.33.01.34-.01h.34l.33-.01.34-.02.34-.01h1.01l.33.01.34.01.34.01h.67l.34-.01.33-.01.34-.01h1.01l.34.02.33.01.34.02.34.02.33.03.34.02.33.01.34.01h.67l.34-.01.34-.01.33-.01.34-.01.34-.01.33-.02.34-.01.34-.01.33-.01.34-.01.34-.01.33-.01h.34l.34-.01h1.01l.33.01.34.01.33.01.34.01.34.02.33.01.34.01h1.35l.33-.01h.34l.34-.01.33-.01.34-.01h.34l.33-.01h.68l.33-.01h.68l.33-.01h.34l.34.01h.33l.34.01h.33l.34.01.34.01.33.01.34.01h.34l.33.01h.68l.33-.01h.34l.34-.01.33-.01.34-.01.34-.01h1.01l.33.01h.34l.34.01h.33l.34.01h1.01l.33-.01h.68l.33-.01h.68l.33-.01h1.01l.34.01h.67l.34.01h.67l.34.01.34-.01h1.34l.34-.01h3.03l.33.01h.68l.33.01h.34l.34.01h.67l.34.01h2.02l.33-.01h.68l.33-.01h.67l.34-.01h1.35l.33-.01h.68l.33-.01H129.85l.33.01h.34l.34.01h.33l.34.01h.33l.34.01.34.01h.33l.34.01.34.01H135.23l.34-.01h.33l.34-.01.34-.01h.33l.34-.01h.34l.33-.01h1.35l.34.01h1l.34.01h2.69l.34-.01H145.66l.34-.01h6.06l.33.01h1.35l.34-.01h1.01l.33-.01h1.01l.34-.01h2.35l.34.01h1.35l.33.01h3.03l.34.01h2.02l.33-.01h.68l.33.01h3.03l.34.01H172.92l.34-.01H174.94l.34-.01h1.01l.33-.01h.68l.33-.01h1.35l.34.01h.33l.34.01h.34l.33.01h.34l.34.01H186.38l.34-.01h4.04l.34.01H197.83l.33.01h4.04l.34-.01h.67l.34-.01h6.05l.34-.01H211.62l.34-.01H213.64l.34-.01h2.69l.34.01h2.02l.33.01H224.08l.33-.01h3.03l.34.01H229.46l.34.01h2.02l.33.01h.68l.33.01h.68l.33.01h1.01l.34.01h.67l.34-.01h1.34l.34-.01h.67l.34-.01h.67l.34-.01H241.91l.34-.01H245.95l.34.01h.67l.34.01h2.35l.34-.01h.67l.34-.01h1.01l.33-.01h3.03l.34.01H263.11l.34-.01h1.01l.34.01h1.01l.33.01h.68l.33.01h2.02l.34-.01h.67l.34-.01H274.22l.34-.01h.67l.34.01h1.01l.33.01h.34l.33.01h1.01l.34.01h2.69l.34-.01H283.64l.34.01h1.01l.34-.01h.67l.33-.01H291.05l.33-.01H293.07l.33.01h1.01l.34.01h2.35l.34-.01h4.04l.34.01h1l.34-.01h2.36l.33.01h2.36l.34-.01h.67l.34-.01h.33l.34-.01h.34l.33-.01h1.35l.33.01h.34l.34.01h.33l.34.01h2.02l.34-.01.33-.01h.68l.33-.01h1.01l.34.01h.67l.34.01h.33l.34.01.34.01h.33l.34.01h1.01l.34-.01h.33l.34-.01.34-.01h.33l.34-.01h.67l.34-.01h2.02l.33.01h2.02l.34.01H334.12l.34.01h4.71l.34-.01h.67l.34-.01h.67l.34.01h.33l.34.01h1.35l.33.01h.68l.33.01h1.01l.34.01h1.01l.33-.01.34-.01h.34l.33-.01.34-.01h2.69l.34.01.34.01h.33l.34-.01.34-.01.33-.01.34-.01.33.01.34.01.34.02.33.01.34.01h.34l.33-.01.34-.01h.34l.33-.01.34-.01.34-.01h.33l.34.01.34.02.33.02h.34l.34-.01.33-.01.34-.01h1.01l.34.01.33.01.34-.01.33-.01.34-.02.34.02.33.01h.34l.34.02.33.02.34-.04.34-.02.33.07.34-.05"/><use xlink:href="#h" color="#3B75EA" transform="matrix(4.5 0 0 4.5 141.29 98.52)"/><use xlink:href="#h" color="#3B75EA" transform="matrix(4.5 0 0 4.5 183.2 7.51)"/></g><text fill="#000" stroke="none" stroke-linecap="round" stroke-linejoin="round" color="#000" font-family="Arial" font-size="8" transform="translate(204.5 25.11)"><tspan>Log</tspan></text><g fill="none" stroke="currentColor" stroke-linecap="round" stroke-linejoin="round" color="#000"><path stroke="#29C3F6" stroke-dasharray="4.5,2.0,0.5,2.0,0.5,2.0" d="M167.5 22.51h31.4m-165.34 82.1.04.01.33-.13.34-.14.34-.06.33.1.34.15.34-.03.33-.13.34-.07.34.01.33.03.34.06.34.09.33.07.34.02.33-.03.34-.02.34.04.33.05.34.01.34-.03.33-.04.34-.03.34-.01.33-.01.34-.03.34-.04.33-.03.34-.03.34-.02.33-.03.34-.01.34.02.33.03.34.04.34.04.33.02h.34l.33-.02.34-.04.34-.05.33-.04.34-.02h.34l.33.02.34.01.34.02.33.02.34.03.34.04.33.03h.34l.34-.01.33-.04.34-.03.34-.02.33-.01.34.02.34.03.33.04.34.04.34.03.33.01.34.01.33-.01.34.01h.34l.33.01.34.02.34.01h.67l.34-.01.33-.02.34-.03.34-.02.33-.02h1.01l.34.01h1.35l.33-.01h.34l.34-.01.33-.02.34-.01.33-.01.34-.01.34-.01.33-.01.34-.01.34-.01h1.01l.33.01h.34l.34.01h.33l.34.01h.34l.33.01h.34l.34.01h.67l.34.01h.67l.34.01h.33l.34-.01h.33l.34-.02.34-.01.33-.02.34-.02.34-.01.33-.01.34-.01h.67l.34.01h.67l.34-.01h1.01l.34.01.33.01.34.01.34.01.33.02.34.02.34.01.33.02.34.02.33.01.34.01h1.01l.34-.01.33-.01.34-.01.34-.01h.33l.34-.01h.34l.33-.01h.34l.34-.01.33-.01.34-.01.34-.01.33-.01h.34l.34.01h.33l.34.01.33.01.34.02.34.01.33.01h1.35l.34-.01h.33l.34-.01.34-.01h2.35l.34-.01h.34l.33-.01h.68l.33.01h.34l.33.01.34.01h.67l.34.01h.34l.33-.01h.34l.34-.01h.33l.34-.01h.34l.33-.01h.34l.34-.01h.33l.34.01h.34l.33.01h.34l.34.01.33.01.34.01h.34l.33.01h1.35l.33-.01h.34l.34-.01h.33l.34-.01H110.66l.34.01h2.02l.34-.01h1.01l.33-.01h2.02l.34.01h.67l.34.01h.67l.34.01h1.01l.33-.01h1.35l.34-.01H123.79l.33-.01h.68l.33-.01h1.01l.34-.01h2.36l.33.01h.34l.34.01h.33l.34.01h.34l.33.01h.67l.34.01h.67l.34.01h1.35l.33-.01h.34l.34-.01h.33l.34-.01h.34l.33-.01h1.35l.34.01h.67l.34.01h.33l.34.01h3.03l.33-.01h1.01l.34-.01H146l.34-.01h2.35l.34.01h2.02l.33.01h2.02l.34-.01h.67l.34-.01h.67l.34-.01H157.44l.34.01h.67l.34.01h.67l.34.01h2.35l.34-.01h4.37l.34.01H168.88l.34.01h2.02l.34.01h1.34l.34-.01h1.34l.34-.01h1.01l.34-.01h.67l.34-.01H178.98l.34.01h.67l.34.01h.67l.34.01h.67l.34.01h.67l.33.01H186.05l.33-.01h.34l.34-.01h.33l.34-.01h2.69l.34.01h2.35l.34.01h5.05l.34.01h3.02l.34-.01h1.01l.34-.01h5.04l.34-.01h.67l.34-.01h1.01l.34-.01h3.03l.33-.01H218.02l.33.01h.68l.33.01h.68l.33.01h2.36l.34-.01H232.15l.34.01h.67l.34.01h.67l.34.01h1.01l.33-.01h1.35l.34-.01H239.22l.34-.01h1.34l.34-.01h3.03l.33.01h1.35l.34.01h1.01l.33.01h3.03l.34-.01h1.01l.33-.01h.68l.33-.01H256.05l.33.01h.34l.34.01h.67l.34.01H259.75l.33-.01h1.01l.34-.01h5.05l.34.01h.67l.34.01H269.84l.34-.01h1.01l.34-.01h.67l.34-.01h1.01l.33-.01H275.57l.33.01h.68l.33.01h1.01l.34.01h1.01l.33.01H282.97l.34.01h2.35l.34-.01h.33l.34-.01h.34l.33-.01h2.36l.34-.01h2.35l.34.01h.34l.33.01h.34l.33.01h3.03l.34-.01h.67l.34.01H300.13l.34-.01h1.35l.33.01h1.35l.33-.01h.68l.33.01H306.53l.33.01h.34l.34-.01h.67l.34-.01h.33l.34-.01.34-.01h.33l.34-.01h1.34l.34.01h.34l.33.01.34.01h.34l.33.01h.68l.33-.01h.68l.33-.01h.68l.33-.01h2.36l.34.01h.33l.34.01h.67l.34.01h2.02l.33-.01h.68l.33-.01h1.01l.34-.01h.67l.34-.01h3.03l.33.01h1.35l.34-.01h1.01l.33.01h.34l.34.01h.33l.34.01.34.01h2.69l.33.01h.34l.34-.01h.33l.34-.01.34-.01.33-.01h.34l.34-.01.33.01h.34l.34.01.33.01.34.01h.34l.33.01h.34l.34-.01h1.01l.33-.01h2.36l.33-.01h.34l.34-.01h.67l.34.01h.33l.34.01.34-.01h.33l.34-.01h.67l.34.01h.34l.33.01.34-.01.34-.01.33-.01.34-.01h.33l.34.01.34.02.33.01.34.01h.67l.34-.01h1.01l.34-.01h.67l.34.01.33.01h.34l.34-.01h.33l.34.01h.67l.34-.01h.34l.33.01h.34l.33-.01.34-.01.34.02.33.01.34-.01.34-.01.33.02.34-.03.34-.03.33.06.34.07"/><use xlink:href="#b" color="#29C3F6" transform="matrix(4.5 0 0 4.5 196.82 104.46)"/><use xlink:href="#b" color="#29C3F6" transform="matrix(4.5 0 0 4.5 183.2 22.51)"/></g><text fill="#000" stroke="none" stroke-linecap="round" stroke-linejoin="round" color="#000" font-family="Arial" font-size="8" transform="translate(280.7 10.11)"><tspan>Cost</tspan></text><g fill="none" stroke="currentColor" stroke-linecap="round" stroke-linejoin="round" color="#000"><path stroke="#00C853" stroke-dasharray="2.5,4.0" d="M243.7 7.51h31.4M33.56 70.99l.04.12.33.57h.34l.34-.55.33-.91.34-.8.34-.39.33.12.34.49.34.7.33.72.34.6.34.32.33-.01.34-.28.33-.45.34-.49.34-.49.33-.47.34-.44.34-.34.33-.17.34-.02.34.11.33.21.34.28.34.33.33.35.34.36.34.33.33.3.34.25.34.21.33.17.34.12.34.07.33-.02.34-.1.33-.17.34-.23.34-.25.33-.25.34-.25.34-.25.33-.25.34-.25.34-.24.33-.23.34-.19.34-.15.33-.11.34-.08.34-.04.33-.03h.34l.34.04.33.08.34.12.34.15.33.17.34.18.34.17.33.16.34.17.33.16.34.17.34.18.33.17.34.18.34.17.33.15.34.15.34.12.33.09.34.07.34.03.33.01.34-.01.34-.03.33-.03.34-.04.34-.03.33-.02.34-.02.34-.03.33-.03.34-.04.34-.05.33-.07.34-.07.33-.09.34-.1.34-.11.33-.12.34-.13.34-.12.33-.13.34-.13.34-.13.33-.12.34-.11.34-.1.33-.1.34-.09.34-.1.33-.09.34-.09.34-.09.33-.09.34-.07.34-.07.33-.05.34-.03.34-.03.33-.02.34-.02.33-.02.34-.01.34-.01h.33l.34.02.34.04.33.04.34.06.34.06.33.06.34.06.34.06.33.07.34.07.34.07.33.08.34.08.34.09.33.09.34.1.34.09.33.1.34.1.34.1.33.1.34.09.33.09.34.09.34.09.33.08.34.09.34.07.33.08.34.06.34.06.33.05.34.04.34.04.33.04.34.03.34.04.33.03.34.03.34.03.33.03.34.02.34.01.33.02.34.01.33.01.34.01h.34l.33.01.34.01h.67l.34-.01.34-.01.33-.01.34-.03.34-.02.33-.03.34-.03.34-.03.33-.03.34-.04.34-.04.33-.04.34-.05.34-.05.33-.06.34-.06.34-.06.33-.06.34-.06.33-.05.34-.05.34-.05.33-.04.34-.05.34-.04.33-.04.34-.04.34-.05.33-.04.34-.05.34-.05.33-.05.34-.05.34-.05.33-.06.34-.05.34-.05.33-.06.34-.05.34-.06.33-.05.34-.06.34-.05.33-.05.34-.05.33-.04.34-.04.34-.04.33-.03.34-.04.34-.03.33-.03.34-.04.34-.04.33-.04.34-.03.34-.04.33-.04.34-.03.34-.03.33-.03.34-.02.34-.02.33-.01.34-.01.34-.01.33-.01.34-.02.34-.01.33-.02.34-.01.33-.02.34-.01.34-.01h1.01l.33.02.34.01.34.02.33.03.34.02.34.03.33.03.34.04.34.03.33.03.34.02.34.03.33.03.34.02.34.03.33.03.34.03.34.04.33.04.34.04.33.05.34.05.34.04.33.05.34.05.34.04.33.05.34.05.34.04.33.04.34.05.34.04.33.04.34.04.34.04.33.03.34.04.34.04.33.04.34.04.34.04.33.04.34.04.33.04.34.04.34.04.33.04.34.04.34.03.33.03.34.03.34.03.33.02.34.03.34.02.33.03.34.03.34.02.33.03.34.03.34.03.33.03.34.03.34.03.33.04.34.03.34.03.33.04.34.03.33.03.34.03.34.03.33.02.34.02.34.01.33.01h1.01l.34-.01.34-.01h.33l.34-.01h.67l.34.01h.34l.33.01.34.02.34.01.33.02.34.02.34.01.33.02.34.02.33.02.34.01.34.02.33.01h.34l.34.01h.33l.34-.01.34-.01.33-.01.34-.02.34-.02.33-.02.34-.02.34-.02.33-.02.34-.02.34-.01.33-.02.34-.01.34-.01.33-.01.34-.01.34-.01.33-.01.34-.02.33-.01.34-.01.34-.02.33-.01.34-.02.34-.01.33-.01.34-.02.34-.01.33-.02.34-.01.34-.02.33-.01.34-.02.34-.02.33-.03.34-.02.34-.03.33-.03.34-.03.34-.03.33-.03.34-.03.33-.02.34-.03.34-.03.33-.02.34-.02.34-.02.33-.02.34-.02.34-.02.33-.01.34-.02.34-.02.33-.02.34-.03.34-.02.33-.02.34-.02.34-.02.33-.02.34-.03.34-.02.33-.02.34-.02.34-.03.33-.03.34-.02.33-.03.34-.03.34-.03.33-.04.34-.03.34-.03.33-.03.34-.03.34-.02.33-.03.34-.03.34-.02.33-.02.34-.03.34-.02.33-.02.34-.02.34-.01.33-.02.34-.02.34-.01.33-.02.34-.01.34-.01.33-.01.34-.01.33-.01.34-.02.34-.01.33-.01.34-.02.34-.02.33-.02.34-.02.34-.02.33-.03.34-.03.34-.03.33-.03.34-.03.34-.02.33-.03.34-.02.34-.01.33-.02.34-.01h.34l.33-.01.34-.01h1.01l.33-.01h1.01l.34-.01h.34l.33-.01.34-.01h.34l.33-.01h.34l.34-.01h.33l.34-.01h.34l.33-.01.34-.01h.34l.33-.02.34-.01.34-.01.33-.02.34-.01.34-.02.33-.01.34-.01.33-.02.34-.01.34-.02.33-.01.34-.02.34-.01.33-.01.34-.01.34-.01h1.34l.34.01.34.01.33.01.34.02.34.01.33.02.34.01.34.01.33.02.34.01.33.01.34.01.34.01.33.01.34.01.34.02.33.01.34.02.34.01.33.02.34.02.34.02.33.01.34.02.34.02.33.02.34.02.34.02.33.02.34.02.34.03.33.02.34.02.34.02.33.02.34.02.33.02.34.02.34.02.33.01.34.02.34.01.33.02.34.01.34.01.33.02.34.01.34.02.33.01.34.02.34.02.33.01.34.02.34.02.33.02.34.02.34.02.33.02.34.02.34.01.33.02.34.02.33.02.34.01.34.02.33.02.34.02.34.02.33.02.34.01.34.02.33.02.34.02.34.02.33.02.34.02.34.02.33.02.34.02.34.02.33.02.34.03.34.02.33.02.34.02.34.03.33.02.34.02.33.03.34.02.34.02.33.02.34.02.34.03.33.02.34.02.34.02.33.02.34.02.34.01.33.02.34.01.34.02.33.01.34.02.34.01.33.01.34.02.34.01.33.02.34.02.34.01.33.01.34.01.33.01.34.01.34.01h.67l.34.01h.33l.34.01.34.01.33.01.34.01.34.01.33.01.34.02.34.01.33.02.34.01.34.01.33.01.34.01h.34l.33.01h.34l.33.01h.34l.34.01.33.01.34.01.34.01.33.01.34.01.34.01.33.01.34.01.34.01.33.01.34.01.34.01.33.01.34.02.34.01.33.01.34.01.34.01.33.01h.34l.34.01H261.09l.34.01h.34l.33.01.34.02.34.01.33.01.34.01.34.01.33.01h.34l.34.01h1.01l.33-.01h.34l.34-.01h.33l.34-.01.34-.01.33-.01.34-.02.33-.01.34-.01.34-.01.33-.01h.34l.34.01h.33l.34.02.34.01.33.01.34.01h1.01l.34-.01.33-.01.34-.01h.34l.33-.01H276.58l.33-.01h.34l.33-.01.34-.01.34-.01.33-.02.34-.01.34-.01.33-.01.34-.01.34-.01.33-.01.34-.01h.34l.33-.01h1.35l.34.01h.33l.34.01h.34l.33.01h.68l.33-.01h.34l.33-.01.34-.01.34-.02.33-.01.34-.02.34-.02.33-.02.34-.02.34-.01.33-.01.34-.01.34-.01h.33l.34-.01h.67l.34-.01h.67l.34-.01h.34l.33-.01.34-.01.33-.01.34-.02.34-.01.33-.02.34-.01.34-.01.33-.01.34-.01h.34l.33-.01.34-.01h.34l.33-.01.34-.01.34-.01.33-.02.34-.01.34-.02.33-.02.34-.01.34-.02.33-.01.34-.01.34-.01h.33l.34-.01h.67l.34-.01h.33l.34-.01.34-.01.33-.01.34-.01.34-.01.33-.02.34-.01.34-.01.33-.02.34-.01.34-.01.33-.01.34-.01.34-.02.33-.02.34-.01.34-.02.33-.02.34-.01.34-.01.33-.01.34-.01.33-.01.34-.01.34-.01.33-.01.34-.01.34-.01.33-.01.34-.01.34-.01.33-.01.34-.01.34-.01.33-.01.34-.01.34-.02.33-.01.34-.01h.34l.33-.01.34-.01h.34l.33-.01.34-.01h.34l.33-.02.34-.01.33-.01.34-.02.34-.01.33-.02.34-.01.34-.01.33-.01.34-.02.34-.01.33-.02.34-.02.34-.01.33-.02.34-.01.34-.01.33-.01.34-.01.34-.01.33-.01.34-.01.34-.01.33-.01.34-.01.33-.01.34-.01h.34l.33-.01.34-.01.34-.01.33-.01.34-.02.34-.01.33-.02.34-.01.34-.01.33-.01h1.01l.34-.01h.34l.33-.01h.34l.34-.01.33-.01h.34l.34-.01h.33l.34-.01h.33l.34-.01h.34l.33-.01h.34l.34-.01.33-.02.34-.02.34-.02.33-.01.34-.02.34-.01.33-.01h.34l.34-.01.33-.01.34-.01.34-.01.33-.01.34-.01h.34l.33-.01h.34l.34-.02.33-.01.34-.01.33-.01h.68l.33.01h.34l.34.01h.67l.34-.01.33-.02.34-.04.34-.03.33-.03.34-.01h.34l.33.01.34.01.34.02.33.01.34.01h.34l.33-.01.34-.01.34-.02.33-.03.34-.02.33-.01.34-.01.34.01h.33l.34-.01.34-.03.33-.03.34-.03.34-.02.33-.01.34-.02.34-.02h.33l.34.01h.34l.33-.02.34-.03.34-.02h.67l.34.03.33.06.34.06.34.02.33-.03.34-.04.33-.08.34-.06.34.05.33.1.34.05.34.1h.33l.34-.12.34-.07.33.16.34-.34"/><use xlink:href="#f" color="#00C853" transform="matrix(4.5 0 0 4.5 252.34 71.2)"/><use xlink:href="#f" color="#00C853" transform="matrix(4.5 0 0 4.5 259.4 7.51)"/></g><text fill="#000" stroke="none" stroke-linecap="round" stroke-linejoin="round" color="#000" font-family="Arial" font-size="8" transform="translate(280.7 25.11)"><tspan>DSW</tspan></text><g fill="none" stroke="currentColor" stroke-linecap="round" stroke-linejoin="round" color="#000"><path stroke="violet" stroke-dasharray="1.0,2.0" d="M243.7 22.51h31.4M33.56 164H366.43"/><use xlink:href="#a" color="violet" transform="matrix(4.5 0 0 4.5 307.87 164)"/><use xlink:href="#a" color="violet" transform="matrix(4.5 0 0 4.5 259.4 22.51)"/></g><path fill="none" stroke="none" stroke-linecap="round" stroke-linejoin="round" stroke-width="0" d="M33.56 36.01V164M366.43 36.01H33.56" color="#000"/></svg>