<svg xmlns="http://www.w3.org/2000/svg" xmlns:xlink="http://www.w3.org/1999/xlink" viewBox="0 0 400 250"><path fill="none" d="M0 0h400v250H0z"/><defs><path id="g" stroke="currentColor" stroke-width=".267" d="M-1 0h2M0-1v2"/><path id="h" stroke="currentColor" stroke-width=".267" d="M-1 0h2M0-1v2m-1-2 2 2m-2 0 2-2"/><path id="d" stroke="currentColor" stroke-width=".267" d="M-1-1h2v2h-2z"/><path id="i" fill="currentColor" stroke="currentColor" stroke-width=".267" d="M-1-1h2v2h-2z"/><path id="b" stroke="currentColor" stroke-width=".267" d="m0-1.33-1.33 2h2.66z"/><path id="f" stroke="currentColor" stroke-width=".267" d="M0 1.33 1.265.411.782-1.067l-1.564-.009-.483 1.487z"/><use xlink:href="#b" id="c" stroke="currentColor" transform="rotate(180)"/><use xlink:href="#d" id="e" stroke="currentColor" transform="rotate(45)"/><circle id="a" cx="0" cy="0" r="1" stroke="currentColor" stroke-width=".267"/></defs><path fill="none" stroke="#000" stroke-linecap="round" stroke-linejoin="round" stroke-width=".1" d="M35.48 205V45.01" class="gridline" color="#000"/><g fill="none" stroke="none" stroke-linecap="round" stroke-linejoin="round" stroke-width="0" color="#000"><path d="M35.48 205v-7.5m0-152.49v7.5"/><text fill="#000" font-family="KaTeX_Main" font-size="10" text-anchor="middle" transform="translate(35.48 215.75)"><tspan> 1</tspan></text></g><path fill="none" stroke="#000" stroke-linecap="round" stroke-linejoin="round" stroke-width=".1" d="M72.87 205V45.01" class="gridline" color="#000"/><g fill="none" stroke="none" stroke-linecap="round" stroke-linejoin="round" stroke-width="0" color="#000"><path d="M72.87 205v-7.5m0-152.49v7.5"/><text fill="#000" font-family="KaTeX_Main" font-size="10" text-anchor="middle" transform="translate(72.87 215.75)"><tspan> 2</tspan></text></g><path fill="none" stroke="#000" stroke-linecap="round" stroke-linejoin="round" stroke-width=".1" d="M110.26 205V45.01" class="gridline" color="#000"/><g fill="none" stroke="none" stroke-linecap="round" stroke-linejoin="round" stroke-width="0" color="#000"><path d="M110.26 205v-7.5m0-152.49v7.5"/><text fill="#000" font-family="KaTeX_Main" font-size="10" text-anchor="middle" transform="translate(110.26 215.75)"><tspan> 3</tspan></text></g><path fill="none" stroke="#000" stroke-linecap="round" stroke-linejoin="round" stroke-width=".1" d="M147.65 205V45.01" class="gridline" color="#000"/><g fill="none" stroke="none" stroke-linecap="round" stroke-linejoin="round" stroke-width="0" color="#000"><path d="M147.65 205v-7.5m0-152.49v7.5"/><text fill="#000" font-family="KaTeX_Main" font-size="10" text-anchor="middle" transform="translate(147.65 215.75)"><tspan> 4</tspan></text></g><path fill="none" stroke="#000" stroke-linecap="round" stroke-linejoin="round" stroke-width=".1" d="M185.04 205V45.01" class="gridline" color="#000"/><g fill="none" stroke="none" stroke-linecap="round" stroke-linejoin="round" stroke-width="0" color="#000"><path d="M185.04 205v-7.5m0-152.49v7.5"/><text fill="#000" font-family="KaTeX_Main" font-size="10" text-anchor="middle" transform="translate(185.04 215.75)"><tspan> 5</tspan></text></g><path fill="none" stroke="#000" stroke-linecap="round" stroke-linejoin="round" stroke-width=".1" d="M222.43 205V45.01" class="gridline" color="#000"/><g fill="none" stroke="none" stroke-linecap="round" stroke-linejoin="round" stroke-width="0" color="#000"><path d="M222.43 205v-7.5m0-152.49v7.5"/><text fill="#000" font-family="KaTeX_Main" font-size="10" text-anchor="middle" transform="translate(222.43 215.75)"><tspan> 6</tspan></text></g><path fill="none" stroke="#000" stroke-linecap="round" stroke-linejoin="round" stroke-width=".1" d="M259.82 205V45.01" class="gridline" color="#000"/><g fill="none" stroke="none" stroke-linecap="round" stroke-linejoin="round" stroke-width="0" color="#000"><path d="M259.82 205v-7.5m0-152.49v7.5"/><text fill="#000" font-family="KaTeX_Main" font-size="10" text-anchor="middle" transform="translate(259.82 215.75)"><tspan> 7</tspan></text></g><path fill="none" stroke="#000" stroke-linecap="round" stroke-linejoin="round" stroke-width=".1" d="M297.21 205V45.01" class="gridline" color="#000"/><g fill="none" stroke="none" stroke-linecap="round" stroke-linejoin="round" stroke-width="0" color="#000"><path d="M297.21 205v-7.5m0-152.49v7.5"/><text fill="#000" font-family="KaTeX_Main" font-size="10" text-anchor="middle" transform="translate(297.21 215.75)"><tspan> 8</tspan></text></g><path fill="none" stroke="#000" stroke-linecap="round" stroke-linejoin="round" stroke-width=".1" d="M334.6 205V45.01" class="gridline" color="#000"/><g fill="none" stroke="none" stroke-linecap="round" stroke-linejoin="round" stroke-width="0" color="#000"><path d="M334.6 205v-7.5m0-152.49v7.5"/><text fill="#000" font-family="KaTeX_Main" font-size="10" text-anchor="middle" transform="translate(334.6 215.75)"><tspan> 9</tspan></text></g><path fill="none" stroke="#000" stroke-linecap="round" stroke-linejoin="round" stroke-width=".1" d="M371.99 205V45.01" class="gridline" color="#000"/><g fill="none" stroke="none" stroke-linecap="round" stroke-linejoin="round" stroke-width="0" color="#000"><path d="M371.99 205v-7.5m0-152.49v7.5"/><text fill="#000" font-family="KaTeX_Main" font-size="10" text-anchor="middle" transform="translate(371.99 215.75)"><tspan> 10</tspan></text></g><g fill="none" stroke="none" stroke-linecap="round" stroke-linejoin="round" stroke-width="0" color="#000"><path d="M371.99 205h-7.5"/><text fill="#000" font-family="KaTeX_Main" font-size="10" transform="translate(378.99 208.25)"><tspan>1.05</tspan></text></g><g fill="none" stroke="none" stroke-linecap="round" stroke-linejoin="round" stroke-width="0" color="#000"><path d="M371.99 182.14h-7.5"/><text fill="#000" font-family="KaTeX_Main" font-size="10" transform="translate(378.99 185.39)"><tspan>1.10</tspan></text></g><g fill="none" stroke="none" stroke-linecap="round" stroke-linejoin="round" stroke-width="0" color="#000"><path d="M371.99 159.29h-7.5"/><text fill="#000" font-family="KaTeX_Main" font-size="10" transform="translate(378.99 162.54)"><tspan>1.15</tspan></text></g><g fill="none" stroke="none" stroke-linecap="round" stroke-linejoin="round" stroke-width="0" color="#000"><path d="M371.99 136.43h-7.5"/><text fill="#000" font-family="KaTeX_Main" font-size="10" transform="translate(378.99 139.68)"><tspan>1.20</tspan></text></g><g fill="none" stroke="none" stroke-linecap="round" stroke-linejoin="round" stroke-width="0" color="#000"><path d="M371.99 113.58h-7.5"/><text fill="#000" font-family="KaTeX_Main" font-size="10" transform="translate(378.99 116.83)"><tspan>1.25</tspan></text></g><g fill="none" stroke="none" stroke-linecap="round" stroke-linejoin="round" stroke-width="0" color="#000"><path d="M371.99 90.72h-7.5"/><text fill="#000" font-family="KaTeX_Main" font-size="10" transform="translate(378.99 93.97)"><tspan>1.30</tspan></text></g><g fill="none" stroke="none" stroke-linecap="round" stroke-linejoin="round" stroke-width="0" color="#000"><path d="M371.99 67.87h-7.5"/><text fill="#000" font-family="KaTeX_Main" font-size="10" transform="translate(378.99 71.12)"><tspan>1.35</tspan></text></g><g fill="none" stroke="none" stroke-linecap="round" stroke-linejoin="round" stroke-width="0" color="#000"><path d="M371.99 45.01h-7.5"/><text fill="#000" font-family="KaTeX_Main" font-size="10" transform="translate(378.99 48.26)"><tspan>1.40</tspan></text></g><path fill="none" stroke="none" stroke-linecap="round" stroke-linejoin="round" stroke-width="0" d="M28 45.01V205M371.99 45.01H28" color="#000"/><text fill="#000" stroke="none" stroke-linecap="round" stroke-linejoin="round" stroke-width="0" color="#000" font-family="KaTeX_Main" font-size="10" text-anchor="middle" transform="rotate(-90 68.255 56.755)"><tspan font-weight="bold">Maximum Path Length </tspan><tspan> / log</tspan><tspan dy="3" font-size="8">2</tspan><tspan dy="-3">(Size)</tspan></text><text fill="#000" stroke="none" stroke-linecap="round" stroke-linejoin="round" stroke-width="0" color="#000" font-family="KaTeX_Main" font-size="10" text-anchor="middle" transform="translate(199.99 238.25)"><tspan>Operations × 10</tspan><tspan dy="-5" font-size="8">5</tspan></text><text fill="#000" stroke="none" stroke-linecap="round" stroke-linejoin="round" color="#000" font-family="KaTeX_Main" font-size="8" transform="translate(76.8 10.11)"><tspan>AVLBottomUp</tspan></text><g fill="none" stroke="currentColor" stroke-linecap="round" stroke-linejoin="round" color="#000"><path stroke="#000" d="M41.3 7.51h29.9M28 185.41l.37.55.38.55.37.53.38.52.37.52.37.51.38.51.37-5.07.38.5.37-10.62.37.49.38.49.37.48.37.48.38.47.37.46.38.46.37.45.37.45.38.44.37.44.38.43.37.43.37.42.38.42.37.41.38.41.37.41.37.4.38.39.37.39.37.39.38.38.37.38.38.38.37.37.37.36.38-5.06.37.37.38.36.37.36.37.35.38.35.37-5.05.38.34.37.35.37.34.38.34.37.33.38.33.37.33.37-5.05.38.33.37.32.37.33.38.31.37.32.38.31.37.31.37.31.38.31.37.3.38.29.37.3.37.3.38.29.37.29.38.29.37.29.37.28.38.28.37.28.37.28.38.27.37.27.38.28.37-5.03.37.27.38.26.37.27.38.26.37.27.37.26.38.26.37.25.38.26.37.25.37.25.38.25.37.25.38.24.37.25.37.24.38.24.37.24.37-5.01.38.24.37.24.38.23.37.24.37.23.38.23.37.23.38.23.37.22.37.23.38.22.37.23.38.22.37.22.37.21.38.22.37.22.37.21.38.21.37.21.38.21.37.21.37.22.38.2.37.21.38.2.37.2.37.21.38.2.37.2.38.2.37.19.37.2.38.2.37.19.38.19.37.2.37.19.38.19.37.18.37.19.38.19.37.19.38.18.37.19.37.18.38.18.37.19.38-4.97.37.18.37.18.38.18.37.18.38.18.37.18.37.17.38.18.37.17.37.18.38.16.37.18.38.17.37.17.37.17.38.16.37.17.38.17.37.17.37.16.38.17.37.16.38.16.37.16.37.17.38.16.37.16.38.15.37.16.37.16.38.16.37.15.37.16.38.15.37.15.38.16.37.15.37-4.92.38.15.37.15.38.15.37.15.37.15.38.15.37.15.38.15.37.15.37.15.38.14.37.14.37.15.38.15.37.14.38.14.37.15.37.14.38.14.37.14.38.14.37.14.37.14.38.14.37.14.38.13.37-4.9.37.14.38.14.37-4.9.38.14.37.14.37.13.38.14.37.13.37.14.38.13.37.14.38.13.37.13.37.14.38.13.37.13.38.13.37.13.37.13.38.13.37.13.38.13.37.12.37.13.38.13.37.13.37.12.38.13.37.12.38.13.37.12.37.13.38.12.37.12.38.12.37.13.37.12.38.12.37.12.38.12.37.12.37.12.38.12.37.12.38.11.37.12.37.12.38.12.37.12.37.11.38.11.37.12.38.12.37.11.37.12.38.11.37.11.38.11.37.12.37.11.38.11.37.12.38.11.37.11.37.11.38.11.37.11.37.11.38.1.37.11.38.11.37.11.37.11.38.11.37.1.38.11.37.11.37.1.38.11.37.1.38.11.37.1.37-4.83.38.1.37.11.38.1.37.11.37.1.38.1.37.11.37.1.38.1.37.11.38.1.37.1.37.1.38.1.37.1.38.1.37.1.37-4.82.38.1.37.1.38.1.37.1.37.1.38.1.37.1.37.1.38.1.37.09.38.1.37.1.37.1.38.09.37.1.38.09.37.1.37.1.38.09.37.1.38.09.37.1.37.09.38.1.37.09.38.09.37.1.37.09.38.09.37.09.37.1.38.09.37.09.38.1.37.08.37.09.38.09.37.1.38.09.37.09.37.09.38.09.37.08.38.1.37.08.37.09.38.09.37.09.37.09.38.09.37.08.38.09.37.09.37.08.38.09.37.09.38.08.37.09.37.08.38.09.37.09.38.08.37.09.37.08.38.09.37-4.79.38.09.37.09.37.08.38.08.37.09.37.08.38.08.37.09.38.08.37.08.37.09.38.08.37.08.38.08.37.09.37.08.38.08.37.08.38.08.37.08.37.09.38.07.37.09.37.07.38.09.37-4.77.38.08.37.08.37.08.38.08.37.08.38.08.37.08.37.08.38.08.37.08.38.08.37.07.37.08.38.08.37.08.38.07.37.08.37.08.38.08.37.07.37.08.38.08.37.07.38.08.37.07.37.08.38.07.37.08.38.08.37.07.37.08.38.07.37.08.38.07.37.07.37.08.38.07.37.08.37.07.38.07.37.08.38-4.74.37.07.37.08.38.07.37.07.38.08.37.07.37.07.38.08.37.06.38.08.37.07.37.07.38.07.37.08.38.07.37.07.37.07.38.07.37.07.37.07.38.07.37.07.38.08.37.06.37.07.38.07.37.07.38.07.37.07.37.07.38.07.37.07.38.07.37.07.37.07.38.07.37.06.37.07.38.07.37.07.38.06.37.07.37.07.38.07.37.06.38.07.37.07.37.07.38.06.37.07.38.06.37.07.37.06.38.07.37.07.37.07.38.06.37.06.38.07.37.07.37.06.38.06.37.07.38.06.37.07.37.07.38.06.37.06.38.07.37.06.37.07.38.06.37.06.38.06.37.07.37-4.7.38.06.37.07.37.06.38.06.37.07.38.06.37.06.37.06.38.07.37.06.38.06.37.07.37.06.38.06.37.06.38.06.37.06.37.07.38.06.37.06.37.06.38.06.37.06.38.06.37.07.37.06.38.05.37.06.38.07.37.06.37.06.38.06.37.06.38.06.37.05.37.07.38.06.37.06.38.06.37.05.37.06.38.06.37.06.37.06.38.06.37.06.38.06.37.05.37.06.38.06.37.06.38.06.37.06.37.05.38.06.37.06.38.05.37.06.37-4.67.38.06.37.06.37.06.38.05.37.06.38.05.37.06.37.06.38.06.37.05.38.06.37.06.37.05.38.06.37.06.38.05.37.06.37.06.38.05.37.06.38.05.37.06.37.05.38.06.37.05.37.06.38.05.37.06.38.05.37.06.37.05.38.06.37.05.38.06.37.05.37.06.38.05.37.06.38.05.37.05.37.06.38.05.37.06.37.05.38.05.37.06.38.05.37.05.37.06.38.05.37.05.38.06.37.05.37.05.38.05.37.06.38.05.37.05.37.05.38.06.37.05.38.05.37.05.37.05.38.06.37.05.37.05.38.05.37.05.38.05.37.05.37.05.38.06.37.05.38.05.37.05.37.05.38.05.37.06.38.05.37.05.37.05.38.05.37.05.37.05.38.05.37.05.38.05.37.05.37.05.38.04.37.05.38.06.37.05.37.05.38.05.37.05.38.04.37.05.37.05.38.05.37.05.38.05.37.05.37.04.38.06.37.05.37.04.38.05.37.05.38.05.37.05.37.04.38.05.37.05.38.05.37.05.37.05.38.04.37.05.38.05.37.04.37.05.38.05.37.04.37.05.38.05.37.05.38.05.37.04.37.05.38.05.37.04.38.05.37.05.37.04.38.05.37.05.38.04.37.05.37.04.38.05.37.05.38.05.37.04.37.05.38.04.37.05.37.04.38.05.37.05.38.04.37.05.37.04.38.04.37.05.38.05.37.04.37.05.38.04.37.05.38.04.37.05.37.04.38.05.37.04.37.04.38.05.37.05.38.04.37.04.37.05.38.04.37.04.38.05.37.05.37.04.38.04.37.04.38.05.37.05.37.04.38.04.37.04.38.05.37.04.37.05.38.04.37.04.37.04.38.05.37.04.38.04.37.05.37.04.38.04.37.05.38.04.37.04.37.04.38.04.37.05.38.04.37.04.37.05.38.04.37.04.37.04.38.04.37.05.38.04.37.04.37.04.38.04.37.05.38.04.37.04.37.04.38.04.37.04.38.05.37.04.37.04.38.04.37.04.38.04.37.04.37.04.38.04.37.05.37.04.38.04.37.04.38.04.37.04.37.04.38.04.37.05.38.04.37.03.37.04.38.05.37.04.38.04.37.03.37.05.38.04.37.04.37.04.38.04.37.04.38.04.37.03.37.05.38.04.37.04.38.03.37.05.37.04.38.03.37.04.38.04.37.04.37.04.38.04.37.04.38-4.58.37-4.57.37.04.38.04.37.04.37.04.38.04.37.04.38.04.37.04.37.04.38.04.37.04.38.04.37.04.37.04.38.03.37.04.38.05.37.03.37.04.38.04.37.04.37.04.38.03.37.05.38.03.37.04.37.04.38.04.37.04.38.03.37.05.37.03.38.04.37.04.38.04.37.04.37.03.38.04.37.04.38.04.37.03.37.04.38.04.37.04.37.04.38.03.37.04.38.04.37.04.37.03.38.04.37.04.38.04.37.03.37.04.38.04.37.03.38.04.37.04.37.04.38.03.37.04.37.04.38.03.37.04.38.04.37.03.37.04.38.04.37.03.38.04.37.04"/><use xlink:href="#g" transform="matrix(3.75 0 0 3.75 342.45 186.62)"/><use xlink:href="#g" transform="matrix(3.75 0 0 3.75 56.25 7.51)"/></g><text fill="#000" stroke="none" stroke-linecap="round" stroke-linejoin="round" color="#000" font-family="KaTeX_Main" font-size="8" transform="translate(76.8 25.11)"><tspan>AVLWeakTopDown</tspan></text><g fill="none" stroke="currentColor" stroke-linecap="round" stroke-linejoin="round" color="#000"><path stroke="#00C853" stroke-dasharray="4.5,2.0,0.5,2.0,0.5,2.0" d="M41.3 22.51h29.9M28 162.96l.37-5.03.38-5.03.37 6.16.38 6.15.37.54.37.53.38.53.37.52.38-5.05.37 6.07.37-10.6.38.51.37.49.37.49.38 6.02.37-5.05.38 5.99.37.47.37-5.05.38.45.37-5.05.38 5.95.37-10.54.37 5.93.38.43.37.44.38-5.05.37 5.89.37 5.88.38.41.37-5.05.37.41.38-10.49.37 5.84.38.39.37-10.47.37 11.26.38.38.37.38.38.37.37.38.37.37.38.36.37.37.38.35.37.36.37.35.38.35.37.35.38.34.37.34.37-5.04.38-5.03.37 5.7.37.33.38-5.03.37 5.68.38-5.03.37.33.37 5.66.38.32.37-5.03.38.31.37.31.37.31.38-5.02.37 10.95.38.3.37-5.02.37.29.38 5.61.37-5.03.37-5.01.38.29.37 5.59.38-5.02.37.28.37 5.57.38.28.37-5.01.38.27.37.28.37.27.38.27.37-5.01.38 5.54.37.26.37.26.38 5.52.37-5 .38.26.37.25.37.25.38.25.37 5.5.37.25.38-10.25.37.25.38.25.37 5.48.37-5 .38.24.37-4.99.38.24.37 5.47.37.23.38.23.37-4.99.38.24.37 5.44.37-4.98.38 5.43.37.23.37.22.38.23.37.22.38.22.37.21.37-4.97.38.21.37.22.38.22.37.21.37.21.38.21.37.21.38.21.37.21.37.21.38.2.37.2.38.21.37.2.37.2.38.2.37.2.37.2.38.2.37.19.38.2.37.19.37.19.38.19.37.19.38.2.37.18.37-4.95.38.19.37.19.38.19.37.18.37 5.31.38.19.37-4.95.37.18.38 5.31.37-4.94.38.17.37 5.3.37.18.38-4.94.37 5.29.38-4.94.37.17.37-4.93.38 5.28.37-4.93.38 10.38.37-4.94.37-4.93.38 5.27.37.17.38.17.37.16.37.17.38 5.25.37.16.37.17.38.16.37.16.38.16.37.16.37-10 .38 5.23.37.16.38-4.91.37.15.37-4.91.38-4.91.37 5.23.38.16.37.15.37 5.22.38-4.91.37.16.37 5.21.38.15.37.15.38.16.37 5.2.37-4.91.38-4.9.37 5.2.38.15.37.15.37.14.38 5.19.37.14.38-4.89.37.14.37-4.89.38.14.37.15.38.14.37-4.89.37 5.17.38-4.89.37.15.37.14.38.14.37 5.16.38.14.37.14.37.14.38.13.37.14.38 5.15.37-4.88.37-4.88.38-4.87.37.14.38 5.14.37-4.87.37 5.14.38.13.37.13.37.14.38 5.13.37-4.87.38.13.37.13.37.13.38-4.86.37.13.38 5.12.37.13.37.13.38.12.37.13.38.12.37.13.37.13.38.12.37.12.38-4.85.37 5.1.37.13.38.12.37.12.37.12.38.13.37-9.83.38 10.06.37-9.81.37 5.09.38 5.09.37.11.38.12.37-4.84.37.12.38.12.37.11.38.12.37.12.37.12.38.11.37.12.37.11.38.12.37.12.38.11.37.12.37.11.38.11.37.12.38-4.84.37 5.06.37.12.38.11.37.11.38-4.83.37.11.37.11.38.11.37 5.05.38.11.37-4.82.37 5.04.38.11.37-4.82.37 5.03.38.11.37.11.38.11.37.1.37-4.82.38.11.37 5.03.38.11.37.1.37.11.38.1.37.1.38.11.37.1.37.1.38.11.37.1.37-4.81.38.1.37 5.02.38.1.37.1.37-4.81.38 5.01.37.1.38.1.37-4.8.37 5 .38-4.8.37 5 .38.1.37.09.37-4.8.38.1.37.1.38 5 .37.09.37.1.38.1.37-4.8.37 4.99.38.09.37-4.79.38.09.37 4.99.37-4.79.38 4.98.37.09.38.1.37-4.79.37 4.97.38-4.79.37 4.98.38.09.37-4.79.37.1.38.09.37 4.97.37.09.38-4.78.37.09.38.09.37 4.97.37-4.79.38.09.37 4.96.38-4.78.37.09.37-4.78.38 4.96.37.09.38.09.37 4.96.37-4.78.38-4.78.37.09.38.09.37.09.37 4.95.38.09.37-4.77.37.08.38.09.37.09.38-4.77.37 4.94.37 4.94.38.09.37-4.77.38 9.79.37.09.37-4.77.38.09.37 4.93.38-9.62.37-4.76.37 9.78.38.09.37-4.77.37 4.93.38-9.6.37 4.92.38.09.37.08.37 4.92.38-4.75.37.08.38 4.92.37.08.37.08.38.08.37.08.38.09.37-4.76.37 4.92.38.08.37.08.38-4.75.37 9.73.37.08.38-4.74.37 4.9.37-9.58.38.09.37-4.75.38 4.9.37-4.74.37 4.9.38.08.37 4.9.38.08.37-9.57.37.08.38.08.37 4.9.38.07.37-14.37.37.08.38.08.37 9.71.37-4.74.38.08.37.08.38.07.37.08.37.08.38.07.37.08.38.08.37.08.37.07.38.08.37 4.88.38-4.73.37 4.87.37-4.72.38.07.37.08.38-4.73.37.08.37 9.67.38-9.52.37.07.37 4.88.38 4.86.37-4.72.38.08.37.07.37-4.72.38.07.37.08.38.07.37.07.37 4.87.38 4.86.37.07.38-4.72.37-4.71.37 4.86.38.07.37 4.86.37-4.72.38 4.86.37 4.85.38-4.71.37.07.37-4.71.38.06.37-4.7.38.06.37.08.37.07.38.07.37.07.38.07.37.07.37.07.38.07.37 4.84.37.07.38-4.7.37 4.84.38-4.71.37.07.37.07.38 4.84.37.07.38-4.7.37.07.37.06.38 4.84.37-4.7.38.07.37.06.37.07.38.07.37.07.38.06.37.07.37.07.38-4.7.37 4.83.37.07.38.06.37.07.38.06.37 4.83.37.07.38-4.7.37 4.82.38.07.37.07.37.06.38-4.69.37-4.69.38 4.82.37.06.37-4.68.38 4.81.37.06.37.07.38.07.37.06.38.06.37.06.37-4.68.38 4.81.37.07.38.06.37.06.37.07.38.06.37.06.38.06.37.06.37.07.38-4.68.37 4.8.38.07.37.06.37.06.38.06.37.06.37.06.38.07.37.06.38-4.68.37 4.8.37-4.67.38 4.79.37.06.38.06.37.07.37-9.41.38 9.52.37.06.38-4.66.37.06.37.06.38.05.37 4.8.37.05.38.06.37-4.66.38 4.78.37.06.37-9.39.38.06.37 9.51.38-9.39.37 4.78.37 4.78.38-4.66.37 4.78.38.06.37.06.37.06.38.05.37.06.38-4.66.37 4.78.37.05.38-9.37.37 4.77.37 4.78.38.05.37-4.65.38-4.66.37.06.37.06.38.06.37 9.48.38-4.66.37-4.65.37.05.38.06.37.06.38.06.37.05.37 4.77.38.06.37.05.37-4.65.38 4.76.37-4.64.38 4.75.37.06.37.05.38 4.77.37.05.38-9.35.37 9.46.37-4.65.38.06.37-4.65.38.06.37 4.75.37.06.38.05.37-9.34.38 4.75.37 4.76.37.05.38.06.37.05.37.05.38-4.64.37-4.64.38.06.37.05.37 4.75.38.06.37.05.38.05.37 4.75.37 4.74.38-4.64.37 4.75.38-4.64.37-4.63.37 9.42.38.06.37.05.37.05.38-4.63.37.05.38 4.74.37.05.37.05.38-9.32.37 4.74.38-4.63.37 4.73.37.06.38.05.37.05.38.05.37.05.37 4.73.38-4.63.37.05.38-4.62.37.05.37 4.73.38 4.73.37-4.63.37 4.73.38.05.37-9.3.38 9.4.37-4.62.37 4.72.38-9.3.37 9.4.38-4.62.37 4.72.37-4.62.38 4.71.37.05.38-9.28.37.05.37.05.38 4.71.37.05.37 4.72.38.05.37.05.38-4.62.37-4.62.37.05.38 4.72.37 4.71.38.05.37-9.28.37.05.38 4.71.37.05.38.05.37 4.71.37.05.38.04.37-4.61.38-4.61.37 4.71.37.05.38.04.37-4.6.37.04.38.05.37 4.71.38.05.37 4.7.37-4.61.38.05.37-4.61.38-4.61.37 4.71.37 9.35.38-4.6.37.04.38 4.7.37.05.37-4.61.38.05.37 4.7.37-4.61.38.05.37.05.38-4.61.37 9.35.37-9.26.38 4.7.37-4.6.38.05.37-4.61.37 4.7.38.04.37 9.34.38-4.6.37-4.59.37-4.6.38 9.33.37-9.24.38 4.69.37 4.69.37.04.38.05.37-4.6.37.05.38.04.37 4.69.38-4.6.37.05.37.05.38 4.68.37.04.38.05.37-4.6.37 4.69.38-4.6.37-4.59.38 4.68.37.05.37 4.68.38-4.59.37 4.68.37-9.22.38 9.31.37 4.67.38.05.37.04.37-4.59.38.05.37-4.59.38.04.37-4.59.37 13.94.38-13.85.37.05.38.04.37.05.37 9.3.38-4.59.37 4.67.38.05.37.04.37-4.58.38 4.66.37-4.58.37 9.3.38.04.37-9.21.38.04.37 9.3.37-4.58.38 4.66.37-4.58.38 4.67.37.04.37-4.58.38-9.2.37 4.66.38-4.58.37 4.66.37-4.57.38.04.37.04.37 4.66.38.04.37-4.57.38 4.66.37.04.37.04.38.05.37.04.38-4.57.37.04.37-4.57.38.04.37 4.65.38 4.66.37-9.19.37 4.66.38 4.65.37-4.57.38.05.37.04.37.04.38-4.57.37.04.37 4.65.38-4.57.37 4.65.38.04.37.05.37-4.57.38.04.37.04.38.04.37.04.37.05.38 9.25.37-4.56.38-4.57.37.04.37.04.38.04.37.04.37.04.38 4.65.37.04.38-4.56.37 9.24.37-4.56.38.04.37-4.56.38.04.37.04.37.04.38.04.37.04.38.04.37.04.37.04.38.04.37.04.38.04.37.04.37.04.38.04.37.04.37.04.38.04.37 4.63.38.05.37-4.56.37.04.38.04.37.04.38.04.37.03.37.05.38 4.63.37-4.56.38.04.37.04.37.04.38.04.37 4.63.37.04.38-4.55.37 4.62.38-4.55.37.04.37.04.38.04.37.04.38.04.37 4.62"/><use xlink:href="#h" color="#00C853" transform="matrix(3.75 0 0 3.75 56.04 160.04)"/><use xlink:href="#h" color="#00C853" transform="matrix(3.75 0 0 3.75 56.25 22.51)"/></g><text fill="#000" stroke="none" stroke-linecap="round" stroke-linejoin="round" color="#000" font-family="KaTeX_Main" font-size="8" transform="translate(241.1 10.11)"><tspan>AVLRelaxedTopDown</tspan></text><g fill="none" stroke="currentColor" stroke-linecap="round" stroke-linejoin="round" color="#000"><path stroke="#3B75EA" stroke-dasharray="4.5,2.0,0.5,2.0,0.5,2.0" d="M205.6 7.51h29.9M28 157.35l.37-5.03.38 6.18.37-5.03.38-5.03.37-5.02.37-5.02.38 11.7.37-10.6.38 17.22.37-10.59.37 6.07.38.51.37.5.37-5.03.38.49.37-5.03.38-5.03.37 6 .37.48.38-5.04.37.47.38.47.37-5.03.37 11.43.38-5.04.37.45.38.44.37.43.37-5.03.38.43.37 5.88.37-5.03.38.41.37 11.3.38-5.04.37.4.37 5.83.38.38.37.39.38.38.37-5.04.37.38.38.37.37-5.03.38 5.77.37.36.37-5.04.38.37.37.35.38.35.37 5.73.37.34.38-5.02.37.33.37-5.02.38 5.7.37-5.03.38.34.37.33.37-5.03.38.33.37 5.67.38-5.02.37 5.65.37.32.38-10.35.37 5.64.38.31.37.3.37.31.38.3.37.3.37-5.01.38.3.37-5 .38 5.59.37-5 .37.29.38.29.37.28.38.29.37-5 .37 10.85.38-5 .37 5.55.38-5 .37.27.37.27.38 5.54.37-10.26.38 10.79.37.26.37-4.99.38.26.37 5.51.37-4.99.38.25.37-4.98.38 10.73.37-4.99.37.25.38.24.37.25.38 5.47.37-4.98.37.24.38-4.98.37.24.38.24.37-4.98.37.24.38-4.97.37 5.45.37.23.38 10.64.37.22.38-4.97.37 5.43.37.22.38-4.97.37.22.38-10.15.37.22.37 5.41.38.22.37.21.38.22.37-4.96.37 10.57.38.21.37.21.38-4.96.37.21.37 5.38.38.2.37-4.95.37.2.38.2.37.21.38.2.37-4.95.37-4.94.38 10.49.37-4.94.38.19.37.2.37 5.34.38.19.37.19.38.2.37.19.37.19.38.19.37.18.37-4.93.38.18.37.19.38.19.37.19.37.18.38-4.93.37.18.38-4.92.37 5.29.37-4.92.38 5.29.37.17.38-4.92.37 5.28.37.18.38.18.37.17.38.18.37.17.37.18.38.17.37 5.26.37.17.38.17.37.16.38.17.37.17.37-4.92.38.17.37.17.38.16.37-4.9.37-4.91.38 10.31.37.16.38.16.37.16.37.16.38.16.37.16.37.16.38.16.37.15.38.16.37.15.37-4.89.38 10.25.37.16.38.15.37.15.37.15.38.15.37.15.38.15.37-4.9.37.16.38.15.37.14.38.15.37-4.89.37.15.38 10.21.37.14.37.14.38.15.37.14.38-4.88.37.14.37.14.38.14.37 5.16.38.13.37.15.37.13.38.14.37.14.38.13.37-4.87.37.13.38.14.37.14.37-4.87.38 5.13.37.14.38-4.87.37.14.37.13.38.13.37 10.13.38-4.87.37.13.37-4.86.38.13.37.14.38.12.37-4.85.37.13.38.12.37.14.38.13.37.12.37.13.38-4.85.37 20.04.37.12.38.12.37.12.38.13.37-4.85.37 5.09.38.12.37.12.38.12.37.12.37.12.38.12.37-4.85.38 5.08.37.12.37-4.84.38.12.37.11.37.12.38.12.37.11.38.12.37.12.37.11.38.11.37-4.83.38.12.37.11.37 5.06.38.12.37-4.84.38.12.37.11.37.11.38.12.37.11.38.11.37.11.37.11.38.11.37.11.37 5.05.38.1.37.11.38.11.37.1.37-4.81.38 5.03.37.1.38-4.81.37.11.37.1.38.11.37.11.38.1.37.11.37.1.38.11.37 5.02.37.1.38-4.81.37.1.38.11.37 5.01.37-4.81.38.1.37.11.38.1.37.1.37.1.38.1.37-4.8.38.1.37.1.37.1.38.1.37.11.38.1.37-4.8.37.1.38.1.37.1.37.1.38-4.79.37 4.98.38.11.37.1.37-4.79.38.09.37 14.76.38.1.37.09.37-4.79.38.1.37.09.38.1.37.09.37-4.78.38.09.37.1.37.09.38.1.37 4.97.38-4.78.37 9.84.37.09.38-4.78.37 4.96.38-4.78.37.09.37.1.38.09.37.09.38-4.77.37.09.37.09.38 4.95.37-4.77.38-4.77.37 9.81.37.09.38-4.77.37.09.37 4.95.38.08.37.09.38-4.76.37.08.37.09.38.09.37.09.38 4.93.37.09.37.09.38-9.61.37 4.93.38.09.37.09.37.08.38.09.37.09.37-4.76.38.08.37.09.38.08.37.09.37.08.38.09.37-4.75.38.08.37 4.93.37-4.76.38.09.37.08.38.09.37.08.37 4.92.38-4.75.37.08.38.08.37.09.37 9.74.38-4.75.37.08.37.09.38.08.37.08.38.08.37.08.37.08.38.08.37-4.74.38.08.37.09.37.07.38.09.37 4.89.38.08.37.08.37.08.38.08.37.08.37.08.38.07.37-4.73.38-4.73.37.08.37 14.51.38.07.37.08.38.08.37.08.37.07.38.08.37-4.74.38.08.37.08.37.07.38.08.37.07.38-4.72.37.08.37.07.38.08.37.07.37 4.88.38.07.37-9.52.38.08.37.07.37.08.38 4.87.37.07.38.08.37.07.37-4.72.38 4.87.37-4.72.38-4.72.37.08.37 4.86.38.08.37.07.37.08.38.07.37.07.38.08.37 9.63.37.07.38-4.71.37.07.38-4.7.37.06.37.08.38.07.37.07.38.07.37.08.37.06.38.08.37-4.71.37.07.38 4.85.37.07.38.07.37-4.7.37.07.38 4.84.37.07.38.07.37.07.37.07.38.07.37.07.38-4.7.37.07.37.06.38.07.37.08.38.06.37.07.37 4.83.38.07.37.07.37.07.38.06.37 4.83.38.07.37-4.69.37 4.82.38.07.37.06.38-4.69.37-4.69.37.07.38 4.82.37.07.38.06.37-4.69.37.07.38.07.37.07.37.06.38.06.37.07.38.07.37.06.37.07.38.06.37-4.68.38.07.37.06.37.07.38 4.81.37.06.38.06.37.07.37-4.68.38 4.81.37.06.38.06.37-4.67.37.06.38.07.37.06.37.06.38.07.37.06.38.07.37.06.37.06.38.06.37-4.66.38.06.37.06.37 4.8.38.06.37.06.38-4.67.37.07.37.06.38.06.37.06.37 14.25.38.06.37.06.38.06.37.06.37.06.38.06.37-4.66.38.06.37.06.37.06.38.06.37 4.78.38.06.37.06.37.06.38.06.37.06.38.06.37-4.67.37 4.78.38.06.37-4.66.37.06.38 4.77.37.06.38-4.65.37 4.77.37.06.38.06.37.05.38.06.37.06.37.05.38-4.65.37.06.38.05.37.06.37.06.38.06.37.06.37.05.38.06.37-4.65.38.06.37.06.37.05.38 9.47.37.05.38.06.37.05.37.06.38-4.65.37.06.38-4.64.37.05.37.06.38.06.37.05.38.06.37.05.37.06.38.06.37.05.37.06.38-4.64.37.05.38 4.75.37.06.37.06.38.05.37.06.38.05.37 4.75.37.05.38.06.37.05.38-4.64.37.06.37 4.74.38.05.37-4.63.37.05.38.06.37.05.38.05.37.06.37.05.38.05.37.06.38.05.37.05.37.06.38.05.37.05.38.06.37-4.63.37.05.38.06.37.05.38.05.37 9.41.37.05.38.06.37.05.37.05.38.05.37.05.38-4.62.37.05.37.05.38.06.37.05.38.05.37.05.37 4.72.38.05.37-4.62.38.05.37.05.37.06.38.05.37-4.62.37.05.38.05.37.05.38.05.37.05.37.06.38.05.37.05.38.05.37.05.37.05.38.05.37.05.38.05.37.05.37.05.38.05.37.05.38.05.37.05.37.05.38.05.37.05.37-4.61.38 9.37.37.05.38.04.37.05.37.05.38.05.37.05.38.05.37.04.37.06.38.04.37.05.38.05.37.05.37-4.61.38.05.37.05.37.05.38.05.37.05.38.04.37.05.37.05.38.05.37 4.69.38.05.37.05.37 4.69.38-4.6.37.05.38.05.37-4.6.37.04.38.05.37-4.59.38.05.37-4.6.37.05.38.04.37-4.59.37.05.38.04.37 4.69.38.05.37.05.37.05.38.04.37.05.38.05.37.04.37.05.38.05.37-4.59.38.05.37.04.37 4.69.38.04.37-4.59.37 4.68.38.05.37.05.38.05.37.04.37.05.38.04.37.05.38.04.37.05.37-4.58.38.04.37.05.38.05.37.04.37.05.38-4.59.37.05.38.05.37-4.59.37 4.68.38.05.37.04.37 4.67.38.05.37.05.38.04.37.04.37.05.38 4.67.37-4.58.38.05.37.04.37.04.38.05.37.04.38.05.37.05.37.04.38.04.37.05.37.04.38.04.37.05.38.05.37.04.37.04.38.05.37.04.38.05.37.04.37 13.89.38.04.37.05.38.04.37.04.37.04.38.04.37.05.38.04.37.04.37.04.38.04.37.05.37.04.38.04.37.04.38.04.37.05.37-4.57.38 4.65.37.04.38-4.56.37.04.37.04.38.05.37.04.38.04.37.04.37.04.38.04.37.05.37.04.38-4.56.37.04.38.04.37.04.37.04.38.04.37.04.38 4.65.37.04.37.04.38.04.37.04.38.04.37.04.37.05.38.04.37-4.56.38.04.37 9.23.37.04.38-4.55.37.04.37.04.38.04.37.04.38.04.37-4.55.37 4.63.38.04.37 4.63.38-4.55.37 4.63.37-4.55.38.04.37.04.38.04.37.04.37.04.38.04.37.04.37.04.38.04.37-4.55.38.04.37.04.37.04.38.04.37.04.38.04.37.03"/><use xlink:href="#a" color="#3B75EA" transform="matrix(3.75 0 0 3.75 113.62 148.58)"/><use xlink:href="#a" color="#3B75EA" transform="matrix(3.75 0 0 3.75 220.55 7.51)"/></g><text fill="#000" stroke="none" stroke-linecap="round" stroke-linejoin="round" color="#000" font-family="KaTeX_Main" font-size="8" transform="translate(241.1 25.11)"><tspan>RedBlackRelaxedTopDown</tspan></text><g fill="none" stroke="currentColor" stroke-linecap="round" stroke-linejoin="round" color="#000"><path stroke="#FFAB00" stroke-dasharray="4.5,2.0,0.5,2.0,0.5,2.0" d="M205.6 22.51h29.9M28 101.22l.37-4.97.38 23.05.37-5 .38 6.2.37 6.17.37-32.89.38 6.17.37-21.68.38 22.85.37-4.99.37.58.38 6.1.37.55.37-4.99.38.54.37-16.03.38.54.37 11.57.37 6.03.38.5.37.51.38-21.48.37 22.47.37-10.48.38 11.45.37-5 .38-5 .37-5 .37-10.45.38 22.32.37 5.91.37-15.91.38 16.79.37-21.33.38 11.33.37 5.87.37-5 .38.42.37 11.27.38-5.01.37-5 .37-5 .38 22.04.37-10.42.38 16.6.37-15.81.37-5 .38-5 .37-10.39.38 5.78.37-4.99.37 27.25.38-5.01.37-10.36.37.36.38-4.99.37 21.8.38-5.01.37-10.35.37.35.38 5.69.37-5 .38-10.33.37 11.02.37-10.33.38 21.66.37-10.32.38 10.97.37 5.65.37-31.59.38 5.65.37 16.26.37-10.3.38 10.92.37-20.89.38 10.92.37-10.29.37 16.2.38-10.28.37.31.38-4.98.37-15.55.37-4.97.38 53.09.37.29.38-5 .37-15.52.37 10.82.38.28.37-4.98.38-36.54.37-4.96.37 37.07.38-20.73.37 16.03.37-25.95.38 5.52.37-4.96.38 16 .37 5.51.37 21.21.38-31.14.37-4.96.38 10.73.37 10.71.37-4.96.38-4.96.37-10.18.38 10.7.37-10.18.37 15.89.38-10.16.37 5.46.37 5.45.38-20.56.37.25.38 31.44.37-10.15.37-4.96.38-4.95.37 5.44.38-15.33.37 5.43.37 5.42.38 5.42.37.23.38.23.37-10.12.37 15.76.38-10.12.37.23.38-10.11.37 36.39.37-25.6.38-15.26.37 5.38.37-10.09.38 10.54.37 5.38.38 5.37.37.22.37 5.36.38-4.93.37-4.94.38-4.92.37 20.77.37-20.35.38 5.35.37-4.92.38 15.61.37 5.33.37-10.06.38 5.33.37 10.46.37-30.55.38 5.33.37-4.92.38 20.68.37-4.92.37-4.92.38-4.92.37 10.42.38-20.24.37 25.74.37-20.24.38 15.51.37 5.3.38-4.92.37 5.29.37 5.29.38-25.3.37 15.47.38-15.09.37 30.74.37-10.01.38-30.35.37 5.28.37.18.38-4.89.37 15.43.38.18.37-15.05.37 25.57.38 10.33.37-4.91.38-15.04.37 5.25.37-4.9.38.18.37-4.9.38 5.24.37-4.89.37.18.38 20.42.37.16.37-9.95.38 15.34.37-20.06.38 5.22.37-9.94.37 20.38.38.16.37-20.03.38 5.21.37.16.37-14.97.38 35.47.37-20.01.38 5.2.37-4.88.37.16.38-9.91.37 10.23.38-9.91.37 15.25.37-4.87.38.16.37 5.18.37-40.06.38 20.27.37 10.2.38.16.37-14.91.37 10.19.38.16.37.15.38-4.86.37 10.18.37-4.86.38-9.87.37 5.16.38-4.86.37-4.86.37 10.17.38-9.86.37 5.16.37 5.15.38 5.15.37-4.85.38-14.86.37-9.84.37 25.13.38-24.83.37 10.14.38-9.84.37 5.14.37-4.84.38 25.1.37 25.08.38-4.85.37-9.84.37 10.11.38.14.37.13.38-9.82.37 5.11.37 15.07.38-4.84.37-9.83.37 10.09.38-9.82.37-24.73.38 20.03.37-9.81.37 15.04.38 5.1.37-29.68.38 15.04.37 5.1.37 10.05.38-14.76.37-19.71.38 24.93.37-9.79.37-14.74.38 29.88.37.12.37-19.69.38.13.37.13.38 34.79.37-14.73.37-9.78.38-14.72.37 10.02.38-4.82.37 5.08.37-4.82.38.12.37 19.89.38-14.7.37 5.07.37 14.94.38-24.58.37 5.06.38-9.75.37 24.8.37-4.81.38-4.82.37.12.37-9.74.38-4.81.37.12.38.12.37.12.37 5.05.38-14.66.37.12.38 9.97.37-4.8.37-4.8.38 5.03.37-9.72.38 44.39.37-24.47.37.11.38 9.95.37 14.85.37-29.37.38 19.77.37-9.71.38 9.93.37-14.62.37 14.84.38.11.37-14.61.38.11.37-14.6.37 9.92.38 5.02.37-4.79.38 19.71.37-9.69.37 9.91.38-14.59.37-9.69.38 9.91.37 5 .37-14.58.38 5.01.37-4.79.37 9.9.38-14.57.37 14.78.38.11.37 19.66.37-19.45.38-4.78.37-4.78.38-9.66.37 19.64.37-19.43.38-9.66.37 19.64.38.11.37-14.54.37 14.75.38.1.37 14.74.37-4.77.38-4.78.37.11.38 9.85.37-9.65.37 19.59.38-4.77.37 4.96.38-29.11.37 4.97.37 4.97.38 9.83.37.1.38 4.97.37-29.1.37 14.7.38 4.96.37-4.77.38 4.96.37 14.69.37-4.77.38-4.77.37.1.37.1.38-14.48.37 19.52.38.1.37 4.95.37 4.95.38-4.77.37-19.31.38-19.31.37 9.8.37 14.64.38-4.75.37-9.6.38 19.48.37-4.75.37.09.38 4.94.37-4.75.37-14.44.38 14.62.37-14.43.38 4.94.37 14.61.37-4.75.38-14.43.37-9.58.38 9.77.37-9.58.37-4.75.38 29.11.37.09.38.09.37-9.57.37 9.75.38.09.37-9.57.38 4.92.37 9.74.37-9.56.38 4.91.37-14.39.37 9.74.38-9.56.37 9.74.38-14.39.37 29.03.37-4.73.38-4.74.37.09.38-38.48.37 4.91.37 14.55.38-9.55.37-4.73.38 14.54.37-4.73.37-9.54.38 19.35.37 9.71.37-14.35.38-4.73.37-14.34.38 53.01.37.08.37-9.54.38-14.35.37 4.9.38 14.5.37-23.95.37.08.38 33.73.37-23.95.38-4.72.37-9.53.37 19.3.38-4.72.37-14.33.38 4.89.37 14.48.37-4.71.38 9.68.37-19.12.37 4.88.38-19.1.37 28.86.38-4.72.37 19.26.37-4.72.38-14.3.37.08.38 4.87.37 4.87.37-33.46.38 4.87.37 4.88.38.07.37 4.88.37-4.71.38 14.44.37 9.65.37-19.07.38 9.65.37-4.71.38.08.37-4.7.37 4.86.38-14.27.37 19.2.38-4.7.37-9.49.37 4.86.38 23.97.37-4.7.38-23.81.37.07.37 23.96.38-23.8.37 9.63.37.07.38 4.85.37-9.47.38-19.01.37 19.16.37.08.38-14.24.37 14.39.38-14.24.37 23.92.37 4.85.38-19 .37.07.38 9.61.37-9.46.37 14.37.38-9.45.37-18.99.38 4.85.37-4.69.37-9.45.38 28.64.37-4.69.37-4.68.38 9.59.37-9.45.38 9.6.37-18.96.37 14.34.38.08.37-9.44.38.07.37.07.37.08.38 23.84.37-18.94.38 9.58.37-14.19.37-4.68.38.07.37.07.37.08.38 19.07.37-9.43.38 14.32.37-14.18.37.08.38-9.43.37 19.06.38-14.17.37 9.56.37 4.82.38-9.42.37 4.81.38-4.67.37 4.81.37 9.55.38-9.41.37 9.55.38-23.63.37-9.41.37.07.38 9.55.37 9.54.37-4.67.38-9.4.37-4.67.38 9.54.37-4.66.37 23.74.38-33.07.37 9.54.38.07.37 9.53.37-14.13.38 47.39.37.06.38.06.37-9.39.37 9.52.38 4.79.37-23.58.37.07.38 4.79.37 4.79.38 4.79.37-18.83.37 14.24.38.06.37 4.79.38-9.38.37.06.37 9.51.38 4.78.37-14.1.38.06.37 14.23.37-23.54.38.06.37 14.23.38-9.38.37 9.5.37-18.81.38-4.65.37 14.22.37-4.66.38.07.37-14.09.38 23.64.37 4.78.37-9.37.38.06.37 14.2.38-18.78.37-4.65.37.06.38 18.9.37.06.38-14.06.37-9.36.37 9.48.38 4.77.37-4.65.37-18.76.38 18.89.37-9.35.38-4.65.37 14.18.37.06.38-9.34.37 18.87.38-14.05.37 9.47.37-9.34.38.06.37.06.38 9.46.37.06.37-9.34.38-14.04.37 28.25.38.06.37-4.64.37 14.16.38 4.75.37-32.81.37-4.64.38-9.33.37.06.38 18.84.37-9.33.37 4.75.38-4.63.37 18.83.38-14.01.37-14.02.37-9.32.38 42.28.37-14.02.38-9.32.37 14.13.37-4.63.38-9.32.37-4.63.37 9.44.38 28.17.37-37.43.38 9.43.37.06.37-9.31.38-9.31.37.06.38 4.74.37 18.79.37.06.38-4.62.37-9.31.38 18.78.37-18.66.37-4.62.38.06.37 9.41.38-13.98.37 9.42.37 23.44.38-9.3.37.06.37-23.32.38.06.37 9.4.38.06.37 4.73.37-9.29.38.06.37 18.75.38-18.63.37 9.39.37-4.61.38 9.4.37-9.29.38 14.07.37-13.95.37-4.62.38 4.73.37-9.28.37 4.72.38 32.73.37.06.38 4.71.37-32.61.37 9.39.38-13.94.37 37.37.38-13.93.37.05.37.05.38 9.38.37-4.61.38 4.72.37-18.6.37.06.38.05.37 9.37.38 4.72.37-4.61.37.05.38-4.61.37.06.37-9.27.38 14.03.37-37.21.38 18.69.37 4.71.37-9.26.38-9.25.37 18.67.38-13.91.37 9.36.37-18.56.38 41.94.37.05.38-18.56.37.05.37 4.71.38.05.37-9.25.37 4.7.38.05.37-4.59.38 9.35.37-18.55.37-18.54.38 27.95.37 4.69.38-9.24.37.06.37 4.7.38-13.89.37 4.7.38 9.34.37-13.88.37 13.99.38-23.17.37 9.33.38 9.35.37-4.6.37 4.7.38-13.88.37 9.34.37-9.23.38-4.59.37 37.18.38-4.59.37-18.51.37-9.23.38-4.58.37 18.6.38-23.13.37-9.23.37 4.69.38 27.88.37-13.86.38 4.69.37-9.22.37-4.59.38 4.69.37-13.85.37-4.58.38 37.12.37-23.11.38 13.95.37-18.48.37 4.68.38-4.58.37 13.95.38.05.37 13.94.37-4.58.38.05.37-13.84.38 18.57.37-4.58.37-4.57.38-9.21.37 27.81.38-13.83.37-13.83.37 13.93.38 4.67.37-4.57.37-4.58.38 9.3.37 9.3.38-18.45.37 18.54.37-32.31.38 4.67.37.05.38 4.67.37-9.19.37 18.54.38 13.91.37.05.38-4.58.37.05.37 9.29.38-18.43.37-4.57.37 9.28.38 9.29.37 4.66.38-9.19.37-9.18.37 13.89.38-27.65.37 18.52.38.04.37 23.13.37-9.19.38.05.37 4.66.38-4.57.37-9.18.37 4.66.38.05.37 4.65.38.05.37-9.18.37-9.17.38 27.71.37-9.18.37.05.38 4.65.37 4.66.38-4.57.37-13.78.37 13.87.38 9.26.37-32.21.38 4.66.37-9.17.37 9.26.38 13.86.37-9.16.38.04.37.04.37.05.38.05.37.04.37-9.16.38 18.46.37-9.16.38.04.37.05.37-9.16.38.04.37 18.45.38-4.55.37 9.24.37-13.75.38 4.64.37-4.56.38-4.55.37 4.64.37 4.64.38-9.15.37 18.44.38-22.95.37 9.24.37.05.38 4.64.37-9.15.37 9.24.38-9.15.37 4.64.38-4.55.37-13.75.37 23.02.38.05.37-9.15.38-4.55.37-22.92.37 4.64.38 41.37.37.05.38.04.37-22.91.37 13.81.38 4.64.37-4.55.37 4.63.38-18.31.37 4.63.38 18.39.37-18.31.37.05.38-4.55.37 9.22.38.04.37 4.63"/><use xlink:href="#i" color="#FFAB00" transform="matrix(3.75 0 0 3.75 171.2 106.92)"/><use xlink:href="#i" color="#FFAB00" transform="matrix(3.75 0 0 3.75 220.55 22.51)"/></g><path fill="none" stroke="none" stroke-linecap="round" stroke-linejoin="round" stroke-width="0" d="M28 45.01V205M371.99 45.01H28" color="#000"/></svg>