<svg xmlns="http://www.w3.org/2000/svg" xmlns:xlink="http://www.w3.org/1999/xlink" viewBox="0 0 400 250"><path fill="none" d="M0 0h400v250H0z"/><defs><path id="b" stroke="currentColor" stroke-width=".267" d="M-1-1h2v2h-2z"/><path id="d" fill="currentColor" stroke="currentColor" stroke-width=".267" d="M-1-1h2v2h-2z"/><path id="a" stroke="currentColor" stroke-width=".267" d="m0-1.33-1.33 2h2.66z"/><use xlink:href="#b" id="c" stroke="currentColor" transform="rotate(45)"/></defs><path fill="none" stroke="#333" stroke-linecap="round" stroke-linejoin="round" stroke-width=".1" d="M46.1 205V45.01" class="gridline" color="#000"/><g fill="none" stroke-linecap="round" stroke-linejoin="round" stroke-width="0" color="#000"><path d="M46.1 205v-7.5m0-152.49v7.5"/><text fill="#000" font-family="KaTeX_Main" font-size="10" text-anchor="middle" transform="translate(46.1 215.75)"><tspan> 1</tspan></text></g><path fill="none" stroke="#333" stroke-linecap="round" stroke-linejoin="round" stroke-width=".1" d="M82.31 205V45.01" class="gridline" color="#000"/><g fill="none" stroke-linecap="round" stroke-linejoin="round" stroke-width="0" color="#000"><path d="M82.31 205v-7.5m0-152.49v7.5"/><text fill="#000" font-family="KaTeX_Main" font-size="10" text-anchor="middle" transform="translate(82.31 215.75)"><tspan> 2</tspan></text></g><path fill="none" stroke="#333" stroke-linecap="round" stroke-linejoin="round" stroke-width=".1" d="M118.52 205V45.01" class="gridline" color="#000"/><g fill="none" stroke-linecap="round" stroke-linejoin="round" stroke-width="0" color="#000"><path d="M118.52 205v-7.5m0-152.49v7.5"/><text fill="#000" font-family="KaTeX_Main" font-size="10" text-anchor="middle" transform="translate(118.52 215.75)"><tspan> 3</tspan></text></g><path fill="none" stroke="#333" stroke-linecap="round" stroke-linejoin="round" stroke-width=".1" d="M154.73 205V45.01" class="gridline" color="#000"/><g fill="none" stroke-linecap="round" stroke-linejoin="round" stroke-width="0" color="#000"><path d="M154.73 205v-7.5m0-152.49v7.5"/><text fill="#000" font-family="KaTeX_Main" font-size="10" text-anchor="middle" transform="translate(154.73 215.75)"><tspan> 4</tspan></text></g><path fill="none" stroke="#333" stroke-linecap="round" stroke-linejoin="round" stroke-width=".1" d="M190.94 205V45.01" class="gridline" color="#000"/><g fill="none" stroke-linecap="round" stroke-linejoin="round" stroke-width="0" color="#000"><path d="M190.94 205v-7.5m0-152.49v7.5"/><text fill="#000" font-family="KaTeX_Main" font-size="10" text-anchor="middle" transform="translate(190.94 215.75)"><tspan> 5</tspan></text></g><path fill="none" stroke="#333" stroke-linecap="round" stroke-linejoin="round" stroke-width=".1" d="M227.15 205V45.01" class="gridline" color="#000"/><g fill="none" stroke-linecap="round" stroke-linejoin="round" stroke-width="0" color="#000"><path d="M227.15 205v-7.5m0-152.49v7.5"/><text fill="#000" font-family="KaTeX_Main" font-size="10" text-anchor="middle" transform="translate(227.15 215.75)"><tspan> 6</tspan></text></g><path fill="none" stroke="#333" stroke-linecap="round" stroke-linejoin="round" stroke-width=".1" d="M263.36 205V45.01" class="gridline" color="#000"/><g fill="none" stroke-linecap="round" stroke-linejoin="round" stroke-width="0" color="#000"><path d="M263.36 205v-7.5m0-152.49v7.5"/><text fill="#000" font-family="KaTeX_Main" font-size="10" text-anchor="middle" transform="translate(263.36 215.75)"><tspan> 7</tspan></text></g><path fill="none" stroke="#333" stroke-linecap="round" stroke-linejoin="round" stroke-width=".1" d="M299.57 205V45.01" class="gridline" color="#000"/><g fill="none" stroke-linecap="round" stroke-linejoin="round" stroke-width="0" color="#000"><path d="M299.57 205v-7.5m0-152.49v7.5"/><text fill="#000" font-family="KaTeX_Main" font-size="10" text-anchor="middle" transform="translate(299.57 215.75)"><tspan> 8</tspan></text></g><path fill="none" stroke="#333" stroke-linecap="round" stroke-linejoin="round" stroke-width=".1" d="M335.78 205V45.01" class="gridline" color="#000"/><g fill="none" stroke-linecap="round" stroke-linejoin="round" stroke-width="0" color="#000"><path d="M335.78 205v-7.5m0-152.49v7.5"/><text fill="#000" font-family="KaTeX_Main" font-size="10" text-anchor="middle" transform="translate(335.78 215.75)"><tspan> 9</tspan></text></g><path fill="none" stroke="#333" stroke-linecap="round" stroke-linejoin="round" stroke-width=".1" d="M371.99 205V45.01" class="gridline" color="#000"/><g fill="none" stroke-linecap="round" stroke-linejoin="round" stroke-width="0" color="#000"><path d="M371.99 205v-7.5m0-152.49v7.5"/><text fill="#000" font-family="KaTeX_Main" font-size="10" text-anchor="middle" transform="translate(371.99 215.75)"><tspan> 10</tspan></text></g><g fill="none" stroke-linecap="round" stroke-linejoin="round" stroke-width="0" color="#000"><path d="M371.99 205h-7.5"/><text fill="#000" font-family="KaTeX_Main" font-size="10" transform="translate(378.99 208.25)"><tspan>0.25</tspan></text></g><g fill="none" stroke-linecap="round" stroke-linejoin="round" stroke-width="0" color="#000"><path d="M371.99 182.14h-7.5"/><text fill="#000" font-family="KaTeX_Main" font-size="10" transform="translate(378.99 185.39)"><tspan>0.30</tspan></text></g><g fill="none" stroke-linecap="round" stroke-linejoin="round" stroke-width="0" color="#000"><path d="M371.99 159.29h-7.5"/><text fill="#000" font-family="KaTeX_Main" font-size="10" transform="translate(378.99 162.54)"><tspan>0.35</tspan></text></g><g fill="none" stroke-linecap="round" stroke-linejoin="round" stroke-width="0" color="#000"><path d="M371.99 136.43h-7.5"/><text fill="#000" font-family="KaTeX_Main" font-size="10" transform="translate(378.99 139.68)"><tspan>0.40</tspan></text></g><g fill="none" stroke-linecap="round" stroke-linejoin="round" stroke-width="0" color="#000"><path d="M371.99 113.58h-7.5"/><text fill="#000" font-family="KaTeX_Main" font-size="10" transform="translate(378.99 116.83)"><tspan>0.45</tspan></text></g><g fill="none" stroke-linecap="round" stroke-linejoin="round" stroke-width="0" color="#000"><path d="M371.99 90.72h-7.5"/><text fill="#000" font-family="KaTeX_Main" font-size="10" transform="translate(378.99 93.97)"><tspan>0.50</tspan></text></g><g fill="none" stroke-linecap="round" stroke-linejoin="round" stroke-width="0" color="#000"><path d="M371.99 67.87h-7.5"/><text fill="#000" font-family="KaTeX_Main" font-size="10" transform="translate(378.99 71.12)"><tspan>0.55</tspan></text></g><g fill="none" stroke-linecap="round" stroke-linejoin="round" stroke-width="0" color="#000"><path d="M371.99 45.01h-7.5"/><text fill="#000" font-family="KaTeX_Main" font-size="10" transform="translate(378.99 48.26)"><tspan>0.60</tspan></text></g><path fill="none" d="M28 45.01V205M371.99 45.01H28" color="#000"/><text stroke-linecap="round" stroke-linejoin="round" stroke-width="0" color="#000" font-family="KaTeX_Main" font-size="10" text-anchor="middle" transform="rotate(-90 68.255 56.755)"><tspan font-weight="bold">Duration </tspan><tspan> in milliseconds</tspan></text><text stroke-linecap="round" stroke-linejoin="round" stroke-width="0" color="#000" font-family="KaTeX_Main" font-size="10" text-anchor="middle" transform="translate(199.99 238.25)"><tspan>Operations / 10</tspan><tspan dy="-5" font-size="8">5</tspan></text><text stroke-linecap="round" stroke-linejoin="round" color="#000" font-family="KaTeX_Main" font-size="8" transform="translate(71.2 10.11)"><tspan>RedBlackBottomUp</tspan></text><g fill="none" stroke="currentColor" stroke-linecap="round" stroke-linejoin="round" color="#000"><path stroke="#F44336" d="M35.7 7.51h29.9M28 169.27l.36-.89.36-.13.37-.38.36-.45.36-.36.36-.93.36-9.69.37-10.28.36 17.77.36.31.36-.09.37-.36.36.06h.36l.36-.15.36-.66.37-19.58.36 7.35.36 9.36.36.71.36-.75.37.17.36.23.36-.63.36-.53.36-.06.37-17.65.36 6.5.36 10.15.36.55.36.1.37-.85.36-1.09.36.41.36-.47.37-9 .36-10.26.36 18.18.36-.19.36 1.02.37-1.19.36-.19.36-.4.36.68.36-.9.37-8.24.36-1.01.36 8.75.36-.65.36-.73.37.09.36-.06.36-.11.36-.21.37-.13.36-17.51.36 7.47.36 9.15.36-.01.37-.25.36-.62.36.08.36-.34.36-.22.37-7.86.36-11.58.36 17.09.36 1.15.36-.31.37.2.36.24.36-.23.36-.21.37-.62.36-8.42.36-10.53.36 18.51.36-.39.37.35.36-.18.36.57.36-1.88.36-.48.37-.75.36-17.21.36 8.72.36 8.32.36.12.37.17.36-.18.36.05.36-.31.36-.25.37-.33.36-16.63.36 16.44.36-.15.37.12.36-.51.36-.22.36.11.36-.08.37.19.36-8.84.36-10.3.36 17.89.36.29.37-.06.36-.03.36.34.36-.24.36-.04.37.21.36-18.95.36 7.11.36 8.46.37 1.12h.36l.36.13h.36l.36-.19.37.2.36-1.25.36-16.32.36 7.88.36 8.71.37-1 .36.77.36.23.36-.04.36-.83.37.11.36-.42.36-25.4.36 24.44.36.65.37-.24.36.71.36-.56.36-.09.37.12.36-.38.36-.02.36-17.97.36 17.43.37.67.36-.11.36-1.06.36-.28.36-.09.37-.55.36.57.36-9.04.36-9.01.36 17.19.37.05.36-.08.36.21.36-.22.37-.32.36.08.36-.06.36-16.82.36 7.57.37 8.64.36-.01.36.16.36-.16.36.22.37-.74.36.1.36-.52.36-17.56.36 17.26.37.26.36-.21.36.2.36-.11.36.17.37-.73.36-.37.36-9.11.36-8.18.37 17.05.36.1.36.15.36-.51.36-.1.37-.32.36.05.36.52.36-18.35.36 9.17.37 8.3.36.34.36.01.36-.86.36.51.37-.19.36-.05.36-.36.36-17.08.37 8.19.36 9.2.36-.47.36.34.36-.19.37-.25.36-.26.36-.03.36-8.02.36-8.68.37 15.35.36-.15.36.13.36-.33.36.15.37.03.36.08.36-.33.36-8.61.37-1 .36 9.12.36-.23.36-.17.36.43.37-.58.36.39.36-.04.36-.44.36-16.82.37 7.87.36 8.82.36.25.36.03.36-.29.37.06.36-1.34.36.6.36-8.55.36-8.52.37 16.96.36-.01.36-2.53.36-.76.37-.6.36-.1.36 3.17.36.89.36-8.33.37-9.89.36 17.57.36.77.36-1.45.36.72.37.45.36-.83.36-.18.36.72.36-17.92.37 8.39.36 8.96.36-.31.36.26.37-.02.36.11.36-.76.36.1.36.6.37-18.05.36 16.77.36.51.36.16.36-.37.37.49.36.01.36-.07.36.13.36-9.73.37-9.56.36 17.18.36.67.36-.05.36.04.37.44.36-.17.36-.58.36-.66.37-16.9.36 8.29.36 8.56.36.1h.36l.37.11.36-.06.36-.46.36.4.36-.32.37-17.49.36 8.89.36 8.15.36.32.36-1.51.37.94.36.22.36.12.36-.21.37-8.29.36-8.88.36 17.13.36.24.36-.14.37-.1.36-.06.36-.25.36.39.36-.06.37-8.84.36-1.34.36 8.91.36.41.36-.15.37-.15.36.23.36.28.36-.26.36.19.37-18.51.36 8.08.36 8.79.36.5.37.11.36.36.36-.27.36.13.36-.69.37-8.16.36-9.9.36 17.86.36.43.36-.35.37.18.36.51.36-1.67.36-.64.36.04.37-7.79.36-.85.36 8.75.36-.21.37.43.36-.48.36-.05.36-.21.36.31.37-.27.36-17.32.36 7.19.36 9.38.36.33.37-.18.36-.13.36.55.36-.88.36.82.37-9.14.36-9.42.36 16.77.36-.25.37.4.36-.21.36.6.36-.12.36.27.37.12.36-8.19.36-10 .36 17.61.36.53.37.09.36-.31.36.16.36.66.36-.42.37-1.16.36-16.23.36 7.03.36 8.81.36-.43.37.64.36.16.36-.17.36-.38.37-.11.36.38.36-18.63.36 17.51.36.42.37-.6.36 1.01.36-.3.36-.64.36.67.37-.18.36-9.1.36-9.19.36 17.16.36.04.37.72.36-1.32.36.71.36.02.37-.22.36.21.36-17.75.36 7.92.36 9.6.37-1.05.36.13.36.56.36.18.36-.05.37.07.36-.2.36-17.36.36 6.86.36 9.26.37.77.36-.22.36.08.36.16.36-.11.37-.36.36-9.88.36-9.44.36 16.12.37 1.1.36-.1.36-.16.36.59.36.18.37.39.36-.28.36-8.93.36-.47.36 9.21.37-.25.36.4.36.3.36-.07.36-.86.37.46.36.24.36-17.51.36 7.13.37 9.4.36.33.36.7.36-.87.36.28.37.41.36-.31.36-.55.36-27.14.36 25.48.37.9.36-1.43.36.53.36-.15.36-.05.37.24.36.45.36-.13.36-18.22.37 6.61.36 8.43.36.11.36-.21.36.29.37.01.36.12h.36l.36-9.99.36-8.2.37 16.76.36.44.36.28.36.27.36.25.37-.55.36.65.36-.51.36-8.77.36-1.54.37 9.64.36.18.36.19.36-.01.37.11.36-1.22.36.57.36.32.36-18.87.37 6.96.36 9.47.36.44.36 1.09.36-.81.37.27.36.21.36-.19.36-9.06.36-9.75.37 18.08.36-.01.36-.75.36.14.37.89.36-.65.36-.01.36.21.36-8.62.37-1.21.36 9.44.36.11.36.46.36.21.37-.76.36.49.36.18.36.37.36-18.73.37 7.38.36 9.6.36-.16.36.18.36-.21.37.29.36.12.36.66.36-10.25.37-10.07.36 17.5.36.1.36-.12.36.1.37.06.36.37.36-1.01.36-.01.36-8.99.37-9.68.36 17.41.36.18.36.45.36.41.37.01.36.38.36-.51.36.16.37-17.52.36 8 .36 8.45.36.17.36-.45.37-.46.36.34.36.08.36-.16.36.49.37-18.05.36 17.75.36.15.36-.99.36.25.37.3.36-.12.36.21.36.11.36-8.75.37-10.3.36 16.24.36.71h.36l.37-.52.36-.09.36 1.39.36-.54.36.38.37-19.36.36 9.41.36 9.19.36.14.36-.34.37.44.36-.67.36.41.36-.69.36.65.37-18.82.36 8.15.36 9.06.36-.04.37 1.15.36.08.36-.6.36-1.57.36.77.37-10.09.36-10.02.36 17.93.36-.36.36 1.22.37-.4.36-.95.36.14.36.36.36-.26.37-9.19.36-.45.36 8.71.36.51.37-.12.36.08.36.47.36-.25.36.13.37.34.36-17.99.36 8.1.36 7.68.36.75.37.45.36.12.36-.66.36.41.36-.04.37-8.32.36-10.33.36 17.96.36.53.36.29.37-.32.36.27.36-.64.36 1.01.37-1.89.36-7.65.36-9.34.36 17.47.36.09.37.03.36-.13.36.36.36-.08.36-.51.37.71.36-18.04.36 7.53.36 9.81.36.68.37.14.36-.45.36-.41.36.26.37-.26.36.21.36-18.38.36 17.6.36-.07.37.95.36-.82.36-.19.36.15.36-.09.37.12.36-9.23.36-9.5.36 16.95.36.16.37-.66.36.88.36.16.36-.23.36.44.37-.03.36-18.2.36 8.34.36 9.67.37-.14.36-.15.36.15.36.07.36-.17.37.63.36-1.12.36-18.24.36 17.94.36.24.37.24.36.04.36.05.36-.02.36-.17.37-.56.36-8.68.36-10.34.36 18.52.37-.2.36.75.36-.23.36.08.36-.57.37.12.36-.13.36-17.7.36 7.56.36 9.34.37-.39.36.35.36-.02.36.57.36.46.37-.59.36-.66.36-17.62.36 7.89.36 9.11.37.54.36-.61.36.76.36.36.37-.7.36-.01.36-8.35.36-9.7.36 16.21.37-.54.36.16.36-.33.36.49.36.18.37-.43.36-.01.36-8.73.36-1.58.36 9.36.37.88.36-.8.36.23.36.01.37.33.36.11.36-.54.36-17.29.36 7.32.37 9.2.36.29.36.29.36-.37.36.33.37-.72.36 1.13.36-9.31.36-9.17.36 16.98.37.85.36-.23.36 1.17.36-.43.37.12.36.28.36-.35.36-9.06.36-9.11.37 17.12.36.13.36.37.36-.6.36.64.37.27.36-.59.36-.08.36-17.33.36 7.2.37 9.16.36-.39.36.61.36.79.36-.48.37-.05.36.56.36-.11.36-18.18.37 16.8.36.57.36.95.36-1.24.36.41.37.11.36.11.36.71.36-.39.36-26.68.37 25.28.36.75.36-.16.36.47.36-.39.37-.49.36.16.36.46.36-9.04.37-9.23.36 16.96.36 1.15.36-.13.36-.22.37-.1.36.94.36-.86.36-.01.36-8.4.37-9.37.36 17.18.36.27.36-.58.36-.47.37.32.36.68.36-.49.36-.84.36-17.48.37 8.61.36 9.47.36.04.36-.04.37.36.36-.38.36.22.36.54.36-.53.37-18.54.36 16.91.36.99.36-.41.36.88.37-.44.36.19.36.17.36-.11.36-9.47.37-9.26.36 17.07.36.86.36-.47.37.44.36-.26.36.75.36-.8.36-.29.37-18.56.36 8.84.36 9.34.36.52.36-.59.37.64.36-.82.36-1.29.36.62.36.02.37-17.62.36 17.02.36-.1.36.69.36-.67.37-.53.36.4.36.83.36-.38.37-8.46.36-10.23.36 17.79.36 1.26.36-1.21.37.84.36-.23.36.1.36.06.36.53.37-18.6.36 8.04.36 8.74.36.65.36-.08.37.15.36-.57.36-.46.36.51.37.42.36-18.75.36 8.3.36 9.53.36.45.37.36.36-.01.36.17.36.48.36-1.2.37-8.8.36-9.17.36 17.81.36-.48.36.93.37-.03.36.2.36.1.36-.92.37.22.36-8.52.36-.31.36 8.8.36-.09.37.15.36.33.36-1 .36.97.36-.28.37-.1.36-18.71.36 8.86.36 9.66.36.29.37-1.19.36 1.01.36.72.36-.02.36-.89.37-8.52.36-10.19.36 18.3.36-1.13.37.02.36.09.36.48.36-.15.36 1.16.37-.96.36-8.72.36-10.04"/><use xlink:href="#c" color="#F44336" transform="matrix(3.75 0 0 3.75 354.25 53.17)"/><use xlink:href="#c" color="#F44336" transform="matrix(3.75 0 0 3.75 50.65 7.51)"/></g><text stroke-linecap="round" stroke-linejoin="round" color="#000" font-family="KaTeX_Main" font-size="8" transform="translate(71.2 25.11)"><tspan>RedBlackTopDown</tspan></text><g fill="none" stroke="currentColor" stroke-linecap="round" stroke-linejoin="round" color="#000"><path stroke="#3B75EA" stroke-dasharray="1.0,2.0" d="M35.7 22.51h29.9M28 177.96l.36 9.24.36-.31.37-.24.36.21.36-.37.36-.2.36-.14.37-.45.36-17.1.36 7.99.36 8.34.37-1.09.36 1.24.36-.96.36-.81.36-.18.37.85.36-8.6.36-9.4.36 18.1.36 1.59.37-1.7.36.04.36-1.59.36 1.83.36-1.06.37-.28.36-9.16.36-1.64.36 8.39.36.11.37-.82.36 2.81.36-1.06.36.24.37-.82.36-.58.36-18.29.36 8.23.36 7.8.37-.14.36.67.36-1.2.36-.11.36.43.37-.84.36-8.31.36-10.51.36 17.68.36.21.37.66.36-.55.36-.27.36.28.37-1.38.36 1.02.36-9.41.36-8.67.36 17.36.37-.33.36.31.36-.43.36-.6.36.58.37-1.58.36.78.36-16.57.36 9.36.36 7.71.37-.38.36-1.62.36-.03.36-.52.37.61.36 1.42.36-.9.36-18.07.36 17.13.37-1.19.36.9.36-1.23.36 2.58h.36l.37.64.36-2.16.36-8.18.36-10.12.36 17.09.37.4.36 1.89.36.45.36.71.36-2.24.37.98.36-.81.36-18.71.36 6.49.37 10.05.36 2.31.36-1.47.36 1.15.36-.57.37.79.36-1.49.36-.49.36-15.97.36 8.1.37 8.83.36-.84.36-1.05.36 1.09.36-.85.37-.03.36-1.44.36-5.79.36-9.4.37 16.56.36.88.36-.47.36-.11.36.15.37-.7.36-.41.36-.35.36-8.27.36-.56.37 8.02.36.64.36-.91.36.49.36-.78.37 1.07.36-.27.36-.9.36-16.14.36 7.82.37 7.94.36-.74.36-1.1.36 1.85.37-.32.36-.45.36-.62.36.24.36-26.41.37 26.27.36-.66.36.1.36.7.36-1.63.37.98.36.41.36-.36.36-.38.36-16.02.37 16.64.36-1.38.36.32.36-1.08.37 1.66.36-.99.36-.53.36-1.11.36-7.28.37-8.21.36 15.75.36-.74.36-.32.36.12.37.15.36.28.36-.7.36 1.39.36-17.07.37 8.74.36 7.41.36 1.1.36-.07.36-1.61.37.67.36.34.36 1.1.36.66.37-17.34.36 8.96.36 6.81.36-.94.36-.38.37 1.12.36.16.36-1.13.36.62.36-7.52.37-9.85.36 16.37.36-.43.36 1.44.36.23.37-.15.36-.21.36.48.36-2.42.37-7.23.36-.61.36 8.71.36-.47.36.87.37-1.45.36.38.36.01.36-.57.36-2.51.37-11.52.36 7.54.36 7.74.36.65.36-.33.37.59.36-1.86.36.41.36.81.37-8.21.36-8.5.36 14.97.36.88.36.22.37-.6.36.41.36 1.03.36 1.77.36-1.28.37-8.1.36-10.11.36 17.15.36-1.04.36.06.37.56.36.43.36-.93.36.73.36-1.23.37-15.34.36 6.12.36 9.1.36-1.86.37 1.15.36.04.36 2.15.36-.88.36.03.37.37.36-18.09.36 16.45.36 1.44.36.39.37-1.47.36-.73.36.69.36.25.36-.76.37-9.67.36-6.2.36 16.73.36-.83.37.68.36-1.66.36.17.36-.03.36.56.37-.61.36-16 .36 7.26.36 7.69.36.99.37-.12.36-1.61.36-.02.36.08.36 3.42.37-.13.36-16.81.36 6.85.36 10.15.36-.82.37-.98.36-.1.36 1.87.36-1.05.37-.44.36-8.6.36-8.53.36 15.95.36.26.37.2.36.25.36.42.36-1.29.36 2.17.37-.4.36-10.02.36-.11.36 6.9.36.72.37-.49.36.09.36-.88.36 2.33.37-.16.36-1.79.36-17.17.36 8.47.36 9.42.37.28.36-.16.36-.26.36-.14.36.41.37-.98.36-8.22.36-7.17.36 15.71.36-.06.37.26.36.29.36-.64.36-1.18.36.23.37.74.36-8.2.36-.12.36 8.55.37-.67.36-.65.36 1.1.36.08.36.21.37-.31.36-1.15.36-17.02.36 9.74.36 6.99.37-1.22.36-.87.36 3.34.36-.57.36 1.25.37-2.64.36-7.55.36-10 .36 16.14.37.2.36 1.22.36 3.24.36-2.67.36-.28.37-.26.36 1.64.36-11.19.36-8.93.36 17.18.37 1.05.36.46.36.53.36-2.25.36 1.19.37-1.06.36.51.36-17.31.36 7.76.37 9.04.36-.98.36-.68.36 1.63.36-.35.37-.32.36-.69.36 1.33.36-16.59.36 16.49.37-.83.36.4.36-.08.36-.32.36-.2.37.54.36.04.36-8.33.36-9.51.36 17.34.37-.21.36-.79.36-.99.36.79.37.91.36 1.29.36-1.22.36-17.29.36 7.51.37 9.17.36-.27.36.28.36.65.36.21.37-.92.36-.85.36 1.42.36-16.65.36 4.61.37 9.58.36 1.96.36-1.44.36.15.37-.83.36 2.56.36-.74.36-8.73.36-10.47.37 16.95.36 1.94.36-.51.36.06.36-.32.37-.91.36-.09.36.76.36-8.67.36-.1.37 8.43.36-.59.36 2.13.36-2.19.36.58.37-1.09.36.72.36 1.3.36-17.25.37 4.77.36 9.64.36.4.36-.88.36-.42.37.17.36 1.26.36.87.36-7.4.36-10.53.37 17.07.36.4.36-.8.36-.33.36.89.37-.79.36.77.36-1.4.36-7.2.37-9.93.36 16.44.36-.69.36 1.37.36-.77.37.17.36-.45.36.86.36.11.36-18.3.37 7.48.36 8.31.36.46.36.17.36-1.02.37-.33.36.35.36-1.97.36.31.37-12.17.36 17.64.36.39.36-.68.36.03.37.53.36-1.54.36-.08.36 1.18.36.75.37-27.51.36 22.33.36 2.17.36-.37.36-1.03.37 1.85.36-1.82.36 3.84.36-1.37.36-9.68.37-9.45.36 17.1.36-.08.36.19.37-1.03.36 2.62.36-.19.36-.75.36-2.44.37-6.95.36-.31.36 8.43.36-.21.36 2.5.37 1.18.36-.18.36-1.74.36 1.08.36-.77.37-17.8.36 6.17.36 11.29.36-.83.37.28.36-2.47.36 1.78.36.58.36-1.7.37-10.05.36-7.89.36 18.58.36.08.36-1.51.37-.05.36-.19.36.35.36-.65.36.91.37-8.91.36-8.97.36 16.12.36-1.36.36 1.57.37-.65.36.05.36-1.1.36 2.94.37-.48.36-17.29.36 6.08.36 10.99.36-.09.37-.35.36-.15.36 1.29.36-1.66.36.74.37-.9.36-16.59.36 17.18.36-1.19.36-1.69.37 1.3.36 1.35.36.24.36-1.38.37.55.36-9.47.36-8.95.36 17.09.36-.14.37.65.36.08.36-2.09.36 1.3.36-1.15.37.55.36-18.34.36 7.86.36 10.62.36.03.37.43.36-.78.36 1.04.36-1.1.36-.9.37-.93.36-15.5.36 6.64.36 9.15.37-.97.36.55.36-1.14.36-.22.36 1.02.37-.01.36-7.34.36-10.95.36 16.37.36 1.52.37-.93.36-.63.36-.08.36.16.36.15.37-1.12.36-8.99.36-.38.36 8.74.37.07.36-1.73.36 3.67.36 1.29.36-.24.37.18.36-.44.36-15.39.36 7.17.36 8.06.37-.97.36 1.89.36-.85.36.43.36-.13.37.3.36-10.2.36-8.14.36 15.24.37 3.53.36-1.69.36-.61.36.58.36 1.13.37-1.46.36-.83.36-8.65.36-8.78.36 16.53.37.12.36.05.36 1.07.36-.5.36-1.46.37.39.36 2.12.36-18.1.36 9.57.36 6.81.37.47.36-.96.36.32.36-.59.37 1.01.36.76.36-1 .36-17.8.36 16.63.37.78.36-1.07.36-.01.36-.89.36 1.54.37-1.21.36.42.36-8.6.36-9.07.36 16.27.37.66.36.41.36-1.72.36.94.37.87.36-1.79.36 1.03.36-18.46.36 8.41.37 8.02.36 1.76.36-.88.36.61.36-.02.37 1.89.36-1.43.36.36.36-17.95.36 17.37.37 2.37.36-2.08.36-.95.36 1.04.36-.33.37-.15.36-.65.36-8.12.36-7.46.37 15.02.36-.28.36 1.53.36-1.17.36-.34.37.42.36-.57.36-.18.36-17.92.36 7.97.37 7.48.36 1.28.36-.17.36-.47.36.18.37 1.49.36.22.36-.2.36-17.2.37 9.17.36 7.06.36.69.36-1.64.36 2.35.37-.99.36-.92.36-.45.36-6.47.36-9.16.37 15.75.36-1.01.36 1.51.36.34.36-.12.37-.65.36-.08.36-.28.36-8.54.36-1.23.37 8.63.36-.81.36.1.36.66.37.13.36.25.36-2.7.36.31.36-13.34.37 9.09.36 7.6.36-.29.36-.26.36.77.37-1.6.36.45.36-.37.36-7.56.36-9.97.37 17.15.36-.16.36.34.36-1.87.37 1.4.36.12.36 2.53.36.29.36-8.46.37-11.25.36 17.55.36.02.36-.08.36-1.24.37 1.68.36-1.75.36 1.44.36-2.03.36-15.48.37 7.65.36 8.26.36-1.17.36 2.12.37-.71.36 1.57.36-1.45.36.51.36.65.37-17.35.36 16.04.36-.73.36 1.77.36-.1.37-.55.36-1.16.36.48.36.28.36-8.74.37-9.33.36 16.97.36.06.36-.13.36-.24.37 1.16.36-.88.36-1.6.36 1.16.37-17.77.36 8.7.36 7.48.36-.28.36-.06.37.56.36.26.36-2.21.36 3.29.36-1.32.37-14.5.36 6.34.36 10.27.36-1.04.36-.04.37-1.23.36 1.71.36-1.17.36.21.37.64.36-26.21.36 23.23.36 1.57.36.54.37-.03.36 1.02.36-1.33.36-.29.36-1.02.37-.03.36-16.76.36 15.68.36 1.01.36 2.07.37-1.42.36-1.56.36.67.36 1.08.36-1.59.37-8.76.36-9.37.36 18.68.36-.85.37 2.5.36-.06.36 1.73.36-1.73.36.29.37-.71.36-16.6.36 8.39.36 8.21.36-.33.37-.11.36-.28.36.44.36-3.05.36 2.18.37 1.81.36-18.98.36 16.44.36-1.41.37-.15.36-1.65.36.62.36.92.36-.27.37-2.65.36-7.29.36-7.19.36 17.46.36-1.24.37.74.36 1.13.36.95.36-.4.36 1.41.37-1.44.36-17.49.36 7.53.36 9.64.36-.74.37 3.65.36-.78.36-1.22.36.38.37.08.36-1.74.36-15.76.36 5.69.36 10.45.37 1.58.36.22.36-.93.36.78.36-.05.37-.85.36-7.77.36-8.38.36 17 .36-.79.37-.98.36.62.36-1.63.36 1.99.37-1.31.36 1.95.36-9.5.36.95.36 7.31.37-.6.36-.41.36.77.36.91.36-1.5.37 1.52.36-.31.36-17.53.36 7.24.36 8.31.37.07.36.2.36-.55.36.62.37-.25.36 1.62.36-10.15.36-6.99.36 14.9.37-1.55.36-.43.36 1.71.36-.36.36.2.37-.43.36 1.15.36-10.41.36-8.65.36 16.02.37 3.86.36-.46.36-1.39.36.05.36 2.79.37-2.13.36 1.51.36-19.2.36 9.26.37 10.76.36-1.7.36-.89.36 1.19.36.03.37-.86.36-.15.36-.62"/><use xlink:href="#d" color="#3B75EA" transform="matrix(3.75 0 0 3.75 67.83 168.75)"/><use xlink:href="#d" color="#3B75EA" transform="matrix(3.75 0 0 3.75 50.65 22.51)"/></g><text stroke-linecap="round" stroke-linejoin="round" color="#000" font-family="KaTeX_Main" font-size="8" transform="translate(241.1 10.11)"><tspan>RedBlackRelaxedBottomUp</tspan></text><g fill="none" stroke="currentColor" stroke-linecap="round" stroke-linejoin="round" color="#000"><path stroke="#00C853" d="M205.6 7.51h29.9M28 160.95l.36-10.48.36 17.27.37-.24.36-.31.36-.38.36-.87.36-.43.37-.86.36-.02.36-9.27.36-.8.37 8.77.36.38.36-.01.36-.62.36-.26.37-1.39.36-.59.36-.31.36-17.66.36 8.1.37 8.98.36.01.36-.16.36-.82.36-.17.37.43.36-.49.36-8.65.36-9.97.36 17.02.37.47.36-1.12.36.16.36.5.37-.64.36-.45.36-.22.36-9.25.36-8.65.37 15.97.36.54.36-.35.36.72.36-.53.37.02.36.39.36-.43.36-18.52.36 7.05.37 9.13.36.47.36-.4.36.12.37.1.36-.25.36-.21.36-.34.36-17.09.37 16.14.36-1.01.36.68.36-.53.36.05.37.03.36-1.21.36.25.36-8.83.36-10.41.37 17.99.36.62.36-.4h.36l.37-.11.36.15.36-.16.36.31.36-19.18.37 9.05.36 8.61.36.6.36-1.93.36-.34.37.06.36-.06.36.27.36-.62.36-16.84.37 7.68.36 8.41.36.38.36-.28.36-.26.37-.27.36.61.36-.68.36-8.09.37-9.05.36 15.19.36.38.36.68.36-.19.37.49.36-.41.36.5.36-.95.36-9 .37-.73.36 9.37.36.45.36-.18.36-.22.37.32.36-.36.36-1.23.36-.23.37-17.07.36 8.79.36 8.21.36.09.36-.2.37-.13.36-1 .36.47.36-.24.36-8.2.37-8.7.36 16.37.36.09.36.31.36-.95.37.12.36-.15.36-.19.36-.22.36-8.11.37-.95.36 9.04.36-.25.36-.24.37.25.36-.19.36-.41.36.18.36.01.37-16.66.36 7.5.36 7.62.36.02.36.12.37-.55.36.15.36-.35.36.05.36-8.22.37-8.06.36 15.76.36.46.36-.3.37-.29.36.02.36.09.36.35.36-1.4.37-7.31.36-8.84.36 15.75.36.15.36.49.37-.86.36.4.36-.88.36-.62.36.66.37-16.34.36 7.37.36 8.72.36.63.36.2.37-.81.36-.74.36.17.36.2.37-.2.36-16.76.36 16.39.36.16.36-.28.37-.26.36.22.36.35.36-.77.36-.02.37.12.36-16.38.36 8.29.36 7.56.36.33.37-.54.36.06.36-.08.36.01.37-.07.36-7.78.36-9.37.36 16.78.36-.06.37-.15.36-.11.36.3.36.08.36.49.37-1.81.36-8.59.36-8.87.36 16.9.36.13.37.01.36-.25.36.13.36-.57.37-.33.36.14.36-16.78.36 8.06.36 8.62.37-.16.36-.28.36.19.36-.17.36-.27.37.08.36.15.36-16.6.36 16.77.36-.14.37-.21.36-.62.36.31.36-.13.36.04.37.2.36-8.44.36-8.83.36 17.14.37-.4.36.39.36-.3.36-.24.36.65.37-.42.36-.22.36-16.31.36 7.17.36 8.54.37.42.36.03.36-.64.36.32.36-.05.37-.2.36.13.36-16.74.36 8.6.37 7.87.36.08.36-.09.36-.15.36.75.37-.67.36-.52.36-8.45.36-8.67.36 16.86.37-.08.36-.58.36.88.36-.28.36-.3.37-.33.36-.3.36-8.51.36-.18.36 8.41.37.84.36-.43.36-.62.36-.27.37.37.36-.55.36.01.36-16.7.36 8.15.37 8.39.36-.22.36-.05.36.28.36.08.37-.5.36.61.36-8.57.36-9.1.36 15.92.37.67.36.18.36.17.36-.07.37-.09.36-.23.36.71.36-8.33.36-1.16.37 8.64.36.03.36.3.36-.29.36.12.37.14.36-.91.36.06.36-16.9.36 7.72.37 8.49.36.42.36-.03.36-.1.36.58.37-.48.36-.05.36-8.94.36-9.06.37 16.45.36.13.36.5.36.03.36-.78.37.65.36-.34.36-.28.36-8.14.36-8.99.37 16.77.36 1.32.36-1.97.36-.46.36.09.37.36.36-1.21.36.97.36-16.57.37 7.24.36 8.21.36-.48.36.8.36-.08.37-.11.36-.41.36.41.36-.16.36-16.84.37 16.9.36.13.36-.32.36.25.36-.01.37-.12.36-.11.36.44.36-9.25.37-9.23.36 16.76.36.66.36-.36.36.4.37.04.36.75.36-.96.36.8.36-17.45.37 8.55.36 8.42.36-.18.36.43.36-.41.37-.91.36.88.36-.02.36-.21.36-17.56.37 7.32.36 8.96.36.39.36-.14.37-.45.36.42.36-.37.36.42.36-8.74.37-9.7.36 16.85.36.17.36-.4.36.45.37-.13.36.16.36.06.36.15.36-8.12.37-.62.36 7.68.36-.17.36.38.37-.19.36.47.36.6.36-.14.36.54.37-17.58.36 6.93.36 9.31.36-.4.36-.02.37.39.36-.04.36-.08.36.24.36-8.59.37-9.62.36 16.86.36.33.36.58.36-.56.37.33.36-.62.36.05.36.49.37-8.42.36-9.43.36 16.71.36-.06.36.57.37.5.36-.9.36.16.36-.29.36.73.37-17.79.36 7.87.36 8.83.36.16.36-.39.37-.07.36.43.36.3.36-.71.37.47.36-17.09.36 16.23.36-.24.36.1.37.38.36.11.36-.36h.36l.36.6.37-8.6.36-11.12.36 16.46.36.67.36-.11.37-.28.36.11.36-.25.36.59.37-2.03.36-17.44.36 6.32.36 9.09.36.04.37-.29.36.56.36-.2.36-.08.36.43.37.01.36-16.56.36 16.43.36-.12.36.62.37.16.36-.02.36-.46.36.47.36-.1.37-8.5.36-10.39.36 17.04.36.78.37-.34.36-.13.36-.31.36.41.36-.03.37-.12.36-17.7.36 7 .36 9.5.36-.38.37.41.36-.07.36-.33.36.1.36.52.37-.01.36-17.18.36 6.93.36 8.55.37.77.36-.22.36-.39.36.73.36.26.37-.47.36.36.36-17.87.36 8.23.36 9.34.37-.11.36-.16.36.41.36.29.36-.44.37-.21.36.21.36-19.09.36 18.04.36-.34.37-.5.36 1.26.36-.08.36-.27.37.1.36.17.36-8.92.36-10.47.36 18.15.37.06.36.33.36-1.07.36.04.36.2.37-.33.36.01.36-17.85.36 9.03.36 8.96.37-.21.36.35.36-.32.36-.06.37.39.36.34.36-.81.36-17.44.36 7.46.37 8.46.36.42.36.14.36-.13.36-.13.37.49.36.36.36-8.77.36-10.4.36 17.16.37.13.36.51.36-.41.36.73.36-1.19.37.84.36-1.48.36-8.18.36-.63.37 8.7.36.51.36.23.36-.06.36.66.37-.87.36.66.36-.36.36-17.08.36 8.01.37 8.8.36-.14.36.21.36-1.76.36.37.37-.03.36.52.36-8.98.36-8.83.37 17.02.36.66.36-1.67.36-.53.36-.1.37-.39.36.64.36-.68.36-9.11.36-8.39.37 16.79.36-.51.36-.29.36-.21.36.05.37-.22.36.06.36.19.36-17.62.37 8.46.36 8.78.36.03.36.24.36.28.37-.23.36.28.36.08.36-.9.36-17.61.37 16.87.36.27.36.1.36.61.36-.38.37.94.36-.44.36.11.36-8.95.36-8.94.37 16.62.36.53.36.06.36.33.37-1.58.36.74.36.33.36-.24.36-18 .37 8.75.36 8.21.36.57.36-.03.36-.14.37.25.36-.15.36-.29.36.43.36-16.02.37 16.57.36-.1.36-1.16.36.49.37.42.36-.58.36-.03.36.44.36-8.46.37-9.36.36 16.69.36.01.36.29.36-.24.37.4.36.09.36-.06.36-.58.36-17.76.37 7.07.36 8.9.36.01.36.18.36.4.37.34.36-.57.36.13.36.98.37-18.02.36 7.93.36 9.2.36-.42.36.27.37.75.36-.4.36-.27.36.33.36-8.82.37-9 .36 16.92.36.32.36.05.36.52.37-.7.36.1.36-.49.36-.16.37-8.41.36.19.36 7.99.36.01.36-.52.37.16.36.38.36-.12.36.34.36.15.37-17.57.36 7.86.36 8.68.36.04.36.48.37-.33.36.12.36-2.8.36.03.36-8.96.37-8.46.36 15.65.36.73.36.3h.37l.36.24.36.04.36.45.36-1.59.37-10.09.36-18.7.36 26.19.36.15.36.17.37-.07.36-.91.36 1.52.36-.99.36.29.37-17.33.36 7.83.36 8.83.36-.28.37 1.39.36-.41.36-.65.36.59.36.06.37.13.36-17.53.36 17.49.36-.22.36.47.37-1.81.36 1.41.36-.32.36-.25.36-.25.37-8.07.36-9.43.36 17.98.36-.05.37.39h.36l.36.31.36 1.19.36 1.24.37-.52.36-16.73.36 7.48.36 8.31.36.43.37-.15.36.07.36.21.36.15.36-.19.37.04.36-17.76.36 8.68.36 8.57.36.58.37-.5.36.78.36-1 .36.12.37-.64.36-8.53.36-8.71.36 16.88.36.55.37.14.36.36.36.4.36-.66.36.04.37.21.36-8.57.36-1.19.36 9.06.36-.28.37-.1.36.44.36-.29.36.55.37-.3.36-.65.36-16.26.36 7.36.36 8.25.37-.13.36 1.08.36-.63.36-.03.36.29.37.25.36-8.92.36-9.65.36 17.17.36-.39.37.79.36-.19.36-.07.36-.34.36.82.37-.56.36-7.6.36-.53.36 7.76.37.2.36.59.36-.77.36.97.36-.02.37.14.36-.82.36-17.34.36 7.81.36 8.95.37.1.36-.34.36-.17.36.08.36.28.37-.11.36.11.36-18.06.36 7.51.37 9.61.36.41.36.26.36-.73.36-.27.37.47.36-.12.36.25.36-18.38.36 8.75.37 9.54.36-.28.36-1.93.36.29.36.29.37.49.36-.1.36-8.82.36-9.32.36 17.29.37-.31.36.08.36.64.36-.42.37 1.12.36.05.36-.7.36-8.45.36-.67.37 8.91.36-.55.36.77.36-.05.36.44.37-.6.36.69.36-.69.36-17.72.36 8.38.37 8.62.36-.4.36.3.36.15.37.2.36.19.36-.49.36-8.12.36-9.03.37 17.01.36.39.36-.15.36.78.36-1.05.37-.2.36.5.36.37.36-9.07.36-9.09.37 17.41.36-.09.36-.18.36-.32.37.59.36.53.36-.17.36-.01.36-17.72.37 7.49.36 9.45.36-.93.36.38.36-.21.37.26.36.01.36-.63.36 1.22.36-17.48.37 16.76.36-.07.36.72.36.05.36-.22.37-.1.36.14.36.48.36-9.11.37-10.41.36 17.45.36.23.36.18.36-.35.37.47.36.43.36.02"/><use xlink:href="#a" color="#00C853" transform="matrix(3.75 0 0 3.75 125.4 124.55)"/><use xlink:href="#a" color="#00C853" transform="matrix(3.75 0 0 3.75 220.55 7.51)"/></g><text stroke-linecap="round" stroke-linejoin="round" color="#000" font-family="KaTeX_Main" font-size="8" transform="translate(241.1 25.11)"><tspan>RedBlackRelaxedTopDown</tspan></text><g fill="none" stroke="currentColor" stroke-linecap="round" stroke-linejoin="round" color="#000"><path stroke="#FFAB00" stroke-dasharray="4.5,2.0,0.5,2.0,0.5,2.0" d="M205.6 22.51h29.9M28 188.73l.36.35.36-19.92.37 8.17.36 9.2.36.07.36.02.36-.8.37-.22.36 1.07.36-1.15.36-9.5.37-8.73.36 16.35.36 1.47.36-1.58.36.47.37.2.36.2.36-.58.36.63.36-7.39.37-10.96.36 16.4.36.26.36.68.36-1.23.37-.14.36.41.36-.72.36-1.16.36-18.1.37 9.19.36 9.46.36.09.36-.05.37-1.65.36.95.36-2.02.36.44.36-.89.37-16.73.36 16.32.36.28.36.14.36-.65.37-.1.36-1.5.36-.73.36.66.36-8.53.37-8.33.36 16.17.36 1.1.36.27.37-1.45.36-.47.36.08.36.89.36-.1.37-17.92.36 7.5.36 9.39.36-.9.36 1.95.37-.8.36-.98.36.85.36-1.26.36 1.04.37-17.91.36 7.87.36 7.51.36-1.11.37 2.35.36.36.36-.47.36-2.22.36 1.8.37-9.47.36-9.78.36 16.68.36 1.7.36.86.37-.43.36-.74.36.08.36.09.36-.15.37-8.33.36 1.23.36 8.11.36-.51.36-.81.37 1.05.36-.86.36.02.36-1.42.37.8.36-16.56.36 8.76.36 8.09.36-.9.37 2.03.36-1.65.36.23.36-1.87.36 1.95.37-8.47.36-9.26.36 15.83.36 1.17.36-2.24.37.16.36.28.36 1.16.36.61.37.65.36-9.87.36.46.36 7.97.36-.49.37.19.36-.96.36.63.36-.16.36-.78.37-1.33.36-15.5.36 7.47.36 7.23.36 1.11.37.42.36-.13.36.25.36.02.36-.95.37-8.83.36-8.88.36 15.98.36.11.37.78.36-1.13.36.71.36-.34.36-.38.37.79.36-9.18.36-7.32.36 15.24.36.07.37.43.36-.52.36-.2.36.73.36-.44.37.43.36-17.08.36 6.96.36 8.22.37.67.36-.54.36-.15.36-1.76.36 2.34.37-.14.36-.89.36-18.65.36 17.98.36-.33.37-.28.36-.37.36 1.18.36-.41.36-.31.37-.46.36-7.69.36-7.3.36 15.97.36-.71.37.93.36.53.36-.06.36.57.37-.02.36-.72.36-16.69.36 8.09.36 6.68.37 1.3.36-.4.36-.63.36.18.36.68.37-2.19.36 1.25.36-16.5.36 7.63.36 10.14.37.15.36-1.4.36 1.28.36-1.79.37.02.36.04.36.29.36-24.89.36 24.5.37-1.4.36.32.36-.26.36.1.36-1.42.37 4.27.36-.42.36-.65.36-16.77.36 16.13.37.08.36-.05.36-1.47.36 1.37.37 1.21.36-1.09.36-.82.36-7.5.36-8.31.37 16 .36.62.36.86.36.7.36-.61.37-.38.36-1.05.36.82.36-16.68.36 6.27.37 9.16.36 2.13.36-2.1.36-.11.36-.36.37.58.36-1.63.36-.11.36-16.72.37 10.56.36 7.14.36 1.09.36-.75.36.71.37-.66.36-.28.36-.52.36-7.8.36-7.03.37 14.64.36.41.36.59.36-.82.36-1.35.37-.53.36 1.19.36 1.47.36-9.21.37-.26.36 7.49.36.02.36.9.36-.79.37-1.04.36 1.64.36-.66.36-1.52.36-15.75.37 8.67.36 7.15.36-.87.36 1.41.36.3.37 1.42.36.51.36-1.93.36-5.99.36-8.13.37 15.38.36-.73.36 1.66.36-1.28.37-.36.36-.55.36.89.36-1.2.36-9.16.37-.22.36 9.2.36.69.36-.26.36-.66.37.26.36-.66.36.55.36-.91.36-16.51.37 8.17.36 7.3.36.42.36.67.37.03.36-.13.36-1.14.36-.5.36-6.87.37-8.22.36 16.76.36-.05.36.16.36-.85.37-.24.36-.75.36 2.38.36-.93.36-8.92.37-9.68.36 17.4.36-1.3.36.64.36-.27.37.22.36.92.36 1.03.36-.93.37-15.97.36 5.12.36 10.24.36-.63.36.82.37-.75.36.11.36-.51.36.28.36-1.4.37-16.33.36 14.57.36 4.57.36-.74.36.82.37-2.05.36.05.36.2.36-1.61.37-7.52.36-8.26.36 18.83.36-.95.36-.42.37-.21.36 1.07.36-1.99.36.28.36.25.37-17.13.36 9.32.36 8.19.36-.4.36.84.37-.53.36-.99.36-1.1.36.56.37.05.36-17.58.36 7.92.36 9.2.36-.77.37 2.24.36-2.06.36.16.36 1.08.36-.29.37-8.12.36-9.66.36 15.84.36.15.36.31.37-.26.36.36.36-.05.36-.85.36.08.37-7.16.36-2.22.36 8.64.36-.36.37 1.63.36 1.25.36-1.03.36-.49.36.52.37-1.04.36-16.51.36 7.04.36 10.01.36.47.37-1.21.36-.7.36.92.36-.36.36-.84.37-8.12.36-8.89.36 16.32.36.3.37-.33.36 2.56.36-.6.36.44.36-.94.37-.57.36-7.49.36-9.06.36 16.33.36-.13.37.64.36-1.61.36.08.36.67.36.59.37.71.36-17.51.36 8.94.36 6.36.36.46.37-1.1.36 1.5.36-.25.36-.06.37-1.28.36 1.11.36-18.46.36 16.22.36.59.37.74.36-1.04.36 1.82.36.32.36-.76.37.63.36-8.81.36-9.89.36 15.56.36 1.67.37-1.06.36.57.36-.55.36.07.37-.93.36 1.49.36-19.17.36 8.71.36 9.66.37.71.36-1.54.36.81.36-.41.36-.52.37-.63.36.08.36-16.35.36 16.32.36-.62.37.96.36-1.88.36-.61.36.24.37 4.75.36 1.26.36-8.97.36-9.26.36 17.17.37.08.36-1.97.36-.48.36 1.31.36 1.3.37-.55.36-1.53.36-16.64.36 6.65.36 8.23.37-.7.36.15.36 3.55.36-2.1.36.16.37-.86.36 1.19.36-18.32.36 8.92.37 7.95.36 1.16.36.3.36-.77.36-1.64.37 1.82.36-.15.36-8.47.36-10.1.36 20.1.37-.37.36.56.36-1.47.36 1.94.36-2.15.37.47.36-1.02.36-6.69.36-.93.37 7.21.36-.49.36 1.13.36-.01.36-2.37.37.54.36.86.36 1.87.36-17.74.36 5.82.37 8.57.36 1.03.36-.24.36-1.65.36 1.14.37 1.05.36-.68.36-.52.36-26.53.36 24.01.37.89.36.87.36-1.2.36 2.71.37-.7.36-.69.36.92.36.63.36-27.51.37 25.09.36-.06.36 1.53.36-1.4.36.89.37-.97.36 1.11.36-.86.36-9.64.36-8.87.37 16.14.36 2.09.36-1.22.36.88.37-.54.36-.55.36-.07.36-.94.36-8.33.37 1.42.36 7.02.36-1.3.36 1.41.36-.64.37.36.36-.52.36-.18.36.71.36-16.28.37 9.12.36 7.46.36.59.36-.84.36-.19.37-.08.36-.46.36.51.36-9.83.37-11.1.36 18.84.36-.39.36-.18.36.45.37-.11.36 1.13.36-.79.36-.39.36-7.24.37-11.06.36 17.24.36-1.01.36.88.36-.74.37-.82.36-.78.36-.05.36.3.37-17.86.36 6.13.36 12.56.36 2.21.36-.83.37.48.36.56.36.48.36-1.14.36-.66.37-16.99.36 17.74.36-.06.36.25.36.11.37.27.36-1.33.36-.43.36-.62.37-7.3.36-8.77.36 15.64.36.75.36-.36.37.22.36-1.3.36-.63.36 1.13.36-.71.37-17.43.36 8.73.36 9.77.36-2.18.36 1.15.37-.31.36.97.36.24.36-.32.36 1.14.37-18.48.36 16.7.36-.85.36.53.37-.02.36-.09.36 1.2.36-.68.36-.09.37-8.07.36-10.08.36 16.35.36-1.11.36 1.78.37.03.36-.55.36.17.36-.11.36-.3.37-17.51.36 8.18.36 8.77.36.02.37.46.36-.55.36-.05.36-1.72.36 1 .37-.73.36-15.62.36 8.04.36 7.24.36 1.09.37 2.08.36-.45.36-1.56.36.54.36.7.37-8.23.36-9.28.36 15.83.36.13.36 1.01.37-.92.36-1.21.36.78.36.9.37-.41.36-8.59.36.65.36 7.46.36-.39.37.3.36.17.36.5.36-1.62.36.43.37-.76.36-16.23.36 6.34.36 8.14.36 1.51.37.39.36.47.36 1.2.36-1.02.37.12.36-9.09.36-8.55.36 15.66.36 1.12.37.3.36-1.55.36-.42.36 2.39.36-.53.37-.94.36-9.23.36-7.33.36 17.36.36-.1.37-.92.36.22.36-.82.36-.53.36-.96.37 1.18.36-18.36.36 8.41.36 7.61.37-.37.36 1.53.36-1.38.36-.47.36 3.58.37 1.5.36-1.03.36-17.47.36 16.14.36.21.37-.41.36-.65.36-.24.36 2.25.36-2.69.37.53.36-8.27.36-8.99.36 16.07.37 1.06.36.72.36 1.57.36-2.11.36 2.46.37-2.98.36 2.04.36-17.86.36 6.96.36 7.48.37 1.67.36-.89.36 1.44.36-.77.36-.58.37-.13.36-.5.36-17.14.36 9.19.37 8.55.36 1.55.36-.59.36-.02.36 1.11.37-1.24.36.24.36-8.38.36-8.37.36 15.86.37-.13.36.39.36-.56.36.74.36-.8.37-.89.36 1.75.36-10.05.36-1.03.36 9.9.37.72.36-1.21.36-.47.36-.26.37.35.36-.18.36-1.33.36-15.6.36 7.28.37 8.74.36.2.36-2.01.36 2.96.36-1.44.37 2.31.36-1.08.36-6.73.36-9.23.36 14.09.37-.09.36.75.36-.03.36 2.5.37-2.03.36.81.36-1.28.36-7.89.36-.98.37 7.8.36 2.36.36-1.85.36.64.36-1.48.37.4.36 1.1.36-1.04.36-16.87.36 8.84.37 7.05.36 1.21.36-.26.36 1.45.36-2.03.37.51.36-.42.36-6.47.36-10.39.37 17.42.36-.2.36 1.78.36-.76.36.07.37-1.41.36 2.15.36-1.62.36-8.19.36-8.49.37 16.35.36-1.61.36.68.36.26.36.18.37.25.36-1.46.36.19.36-17.79.37 8.16.36 8.13.36-.54.36-.12.36.78.37-1.93.36.75.36-.36.36.51.36-17.41.37 15.49.36 1.35.36 1.27.36-.24.36-.68.37 1.11.36.59.36-.23.36-.16.36-25.66.37 27.57.36-.7.36-1.3.36.78.37-1.11.36-.53.36-.76.36.56.36-7.67.37-7.57.36 17.32.36-.95.36 1.65.36-1.4.37-.65.36-.03.36.36.36.93.36-9.91.37-9.62.36 17.17.36-.55.36-.2.37 1.66.36-.25.36.26.36-.27.36 1.21.37-18.81.36 9.12.36 7.55.36.87.36-.95.37.97.36.29.36-1.87.36.02.36.86.37-16.74.36 16.14.36-1.26.36.59.37.09.36 1.02.36-.95.36 1.77.36-.36.37-8.47.36-8.62.36 17.72.36-1.53.36 1.77.37-2.16.36 1.25.36-1.4.36.86.36-1.09.37-13.62.36 6.46.36 8.76.36.54.36 1.54.37.36.36-.75.36-.57.36.87.37-.08.36-17.19.36 8.73.36 7.9.36-.53.37.35.36-1.71.36.15"/><use xlink:href="#d" color="#FFAB00" transform="matrix(3.75 0 0 3.75 182.98 146.75)"/><use xlink:href="#d" color="#FFAB00" transform="matrix(3.75 0 0 3.75 220.55 22.51)"/></g><path fill="none" d="M28 45.01V205M371.99 45.01H28" color="#000"/></svg>