<svg xmlns="http://www.w3.org/2000/svg" xmlns:xlink="http://www.w3.org/1999/xlink" viewBox="0 0 400 250"><path fill="none" d="M0 0h400v250H0z"/><defs><path id="g" stroke="currentColor" stroke-width=".267" d="M-1 0h2M0-1v2"/><path id="h" stroke="currentColor" stroke-width=".267" d="m-1-1 2 2m0-2-2 2"/><path id="d" stroke="currentColor" stroke-width=".267" d="M-1-1h2v2h-2z"/><path id="b" stroke="currentColor" stroke-width=".267" d="m0-1.33-1.33 2h2.66z"/><path id="f" stroke="currentColor" stroke-width=".267" d="M0 1.33 1.265.411.782-1.067l-1.564-.009-.483 1.487z"/><use xlink:href="#a" id="i" fill="currentColor" stroke="none"/><use xlink:href="#b" id="c" stroke="currentColor" transform="rotate(180)"/><use xlink:href="#d" id="e" stroke="currentColor" transform="rotate(45)"/><circle id="a" cx="0" cy="0" r="1" stroke="currentColor" stroke-width=".267"/></defs><path fill="none" stroke="#000" stroke-linecap="round" stroke-linejoin="round" stroke-width=".1" d="M35.48 205V45.01" class="gridline" color="#000"/><g fill="none" stroke="none" stroke-linecap="round" stroke-linejoin="round" stroke-width="0" color="#000"><path d="M35.48 205v-7.5m0-152.49v7.5"/><text fill="#000" font-family="KaTeX_Main" font-size="10" text-anchor="middle" transform="translate(35.48 215.75)"><tspan> 1</tspan></text></g><path fill="none" stroke="#000" stroke-linecap="round" stroke-linejoin="round" stroke-width=".1" d="M72.87 205V45.01" class="gridline" color="#000"/><g fill="none" stroke="none" stroke-linecap="round" stroke-linejoin="round" stroke-width="0" color="#000"><path d="M72.87 205v-7.5m0-152.49v7.5"/><text fill="#000" font-family="KaTeX_Main" font-size="10" text-anchor="middle" transform="translate(72.87 215.75)"><tspan> 2</tspan></text></g><path fill="none" stroke="#000" stroke-linecap="round" stroke-linejoin="round" stroke-width=".1" d="M110.26 205V45.01" class="gridline" color="#000"/><g fill="none" stroke="none" stroke-linecap="round" stroke-linejoin="round" stroke-width="0" color="#000"><path d="M110.26 205v-7.5m0-152.49v7.5"/><text fill="#000" font-family="KaTeX_Main" font-size="10" text-anchor="middle" transform="translate(110.26 215.75)"><tspan> 3</tspan></text></g><path fill="none" stroke="#000" stroke-linecap="round" stroke-linejoin="round" stroke-width=".1" d="M147.65 205V45.01" class="gridline" color="#000"/><g fill="none" stroke="none" stroke-linecap="round" stroke-linejoin="round" stroke-width="0" color="#000"><path d="M147.65 205v-7.5m0-152.49v7.5"/><text fill="#000" font-family="KaTeX_Main" font-size="10" text-anchor="middle" transform="translate(147.65 215.75)"><tspan> 4</tspan></text></g><path fill="none" stroke="#000" stroke-linecap="round" stroke-linejoin="round" stroke-width=".1" d="M185.04 205V45.01" class="gridline" color="#000"/><g fill="none" stroke="none" stroke-linecap="round" stroke-linejoin="round" stroke-width="0" color="#000"><path d="M185.04 205v-7.5m0-152.49v7.5"/><text fill="#000" font-family="KaTeX_Main" font-size="10" text-anchor="middle" transform="translate(185.04 215.75)"><tspan> 5</tspan></text></g><path fill="none" stroke="#000" stroke-linecap="round" stroke-linejoin="round" stroke-width=".1" d="M222.43 205V45.01" class="gridline" color="#000"/><g fill="none" stroke="none" stroke-linecap="round" stroke-linejoin="round" stroke-width="0" color="#000"><path d="M222.43 205v-7.5m0-152.49v7.5"/><text fill="#000" font-family="KaTeX_Main" font-size="10" text-anchor="middle" transform="translate(222.43 215.75)"><tspan> 6</tspan></text></g><path fill="none" stroke="#000" stroke-linecap="round" stroke-linejoin="round" stroke-width=".1" d="M259.82 205V45.01" class="gridline" color="#000"/><g fill="none" stroke="none" stroke-linecap="round" stroke-linejoin="round" stroke-width="0" color="#000"><path d="M259.82 205v-7.5m0-152.49v7.5"/><text fill="#000" font-family="KaTeX_Main" font-size="10" text-anchor="middle" transform="translate(259.82 215.75)"><tspan> 7</tspan></text></g><path fill="none" stroke="#000" stroke-linecap="round" stroke-linejoin="round" stroke-width=".1" d="M297.21 205V45.01" class="gridline" color="#000"/><g fill="none" stroke="none" stroke-linecap="round" stroke-linejoin="round" stroke-width="0" color="#000"><path d="M297.21 205v-7.5m0-152.49v7.5"/><text fill="#000" font-family="KaTeX_Main" font-size="10" text-anchor="middle" transform="translate(297.21 215.75)"><tspan> 8</tspan></text></g><path fill="none" stroke="#000" stroke-linecap="round" stroke-linejoin="round" stroke-width=".1" d="M334.6 205V45.01" class="gridline" color="#000"/><g fill="none" stroke="none" stroke-linecap="round" stroke-linejoin="round" stroke-width="0" color="#000"><path d="M334.6 205v-7.5m0-152.49v7.5"/><text fill="#000" font-family="KaTeX_Main" font-size="10" text-anchor="middle" transform="translate(334.6 215.75)"><tspan> 9</tspan></text></g><path fill="none" stroke="#000" stroke-linecap="round" stroke-linejoin="round" stroke-width=".1" d="M371.99 205V45.01" class="gridline" color="#000"/><g fill="none" stroke="none" stroke-linecap="round" stroke-linejoin="round" stroke-width="0" color="#000"><path d="M371.99 205v-7.5m0-152.49v7.5"/><text fill="#000" font-family="KaTeX_Main" font-size="10" text-anchor="middle" transform="translate(371.99 215.75)"><tspan> 10</tspan></text></g><g fill="none" stroke="none" stroke-linecap="round" stroke-linejoin="round" stroke-width="0" color="#000"><path d="M371.99 205h-7.5"/><text fill="#000" font-family="KaTeX_Main" font-size="10" transform="translate(378.99 208.25)"><tspan>1.05</tspan></text></g><g fill="none" stroke="none" stroke-linecap="round" stroke-linejoin="round" stroke-width="0" color="#000"><path d="M371.99 182.14h-7.5"/><text fill="#000" font-family="KaTeX_Main" font-size="10" transform="translate(378.99 185.39)"><tspan>1.10</tspan></text></g><g fill="none" stroke="none" stroke-linecap="round" stroke-linejoin="round" stroke-width="0" color="#000"><path d="M371.99 159.29h-7.5"/><text fill="#000" font-family="KaTeX_Main" font-size="10" transform="translate(378.99 162.54)"><tspan>1.15</tspan></text></g><g fill="none" stroke="none" stroke-linecap="round" stroke-linejoin="round" stroke-width="0" color="#000"><path d="M371.99 136.43h-7.5"/><text fill="#000" font-family="KaTeX_Main" font-size="10" transform="translate(378.99 139.68)"><tspan>1.20</tspan></text></g><g fill="none" stroke="none" stroke-linecap="round" stroke-linejoin="round" stroke-width="0" color="#000"><path d="M371.99 113.58h-7.5"/><text fill="#000" font-family="KaTeX_Main" font-size="10" transform="translate(378.99 116.83)"><tspan>1.25</tspan></text></g><g fill="none" stroke="none" stroke-linecap="round" stroke-linejoin="round" stroke-width="0" color="#000"><path d="M371.99 90.72h-7.5"/><text fill="#000" font-family="KaTeX_Main" font-size="10" transform="translate(378.99 93.97)"><tspan>1.30</tspan></text></g><g fill="none" stroke="none" stroke-linecap="round" stroke-linejoin="round" stroke-width="0" color="#000"><path d="M371.99 67.87h-7.5"/><text fill="#000" font-family="KaTeX_Main" font-size="10" transform="translate(378.99 71.12)"><tspan>1.35</tspan></text></g><g fill="none" stroke="none" stroke-linecap="round" stroke-linejoin="round" stroke-width="0" color="#000"><path d="M371.99 45.01h-7.5"/><text fill="#000" font-family="KaTeX_Main" font-size="10" transform="translate(378.99 48.26)"><tspan>1.40</tspan></text></g><path fill="none" stroke="none" stroke-linecap="round" stroke-linejoin="round" stroke-width="0" d="M28 45.01V205M371.99 45.01H28" color="#000"/><text fill="#000" stroke="none" stroke-linecap="round" stroke-linejoin="round" stroke-width="0" color="#000" font-family="KaTeX_Main" font-size="10" text-anchor="middle" transform="rotate(-90 68.255 56.755)"><tspan font-weight="bold">Maximum Path Length </tspan><tspan> / log</tspan><tspan dy="3" font-size="8">2</tspan><tspan dy="-3">(Size)</tspan></text><text fill="#000" stroke="none" stroke-linecap="round" stroke-linejoin="round" stroke-width="0" color="#000" font-family="KaTeX_Main" font-size="10" text-anchor="middle" transform="translate(199.99 238.25)"><tspan>Operations × 10</tspan><tspan dy="-5" font-size="8">5</tspan></text><text fill="#000" stroke="none" stroke-linecap="round" stroke-linejoin="round" color="#000" font-family="KaTeX_Main" font-size="8" transform="translate(99.2 10.11)"><tspan>AVLBottomUp</tspan></text><g fill="none" stroke="currentColor" stroke-linecap="round" stroke-linejoin="round" color="#000"><path stroke="#000" d="M63.7 7.51h29.9M28 179.22l.37.43.38.39.37.36.38.32.37.29.37.24.38.2.37.15.38.12.37.08.37.04.38.01.37-.02.37-.03.38-.05.37-.05.38-.06.37-.05.37-.05.38-.04.37-.04.38-.02.37-.02.37-.02.38-.01.37-.02.38-.03.37-.03.37-.06.38-.08.37-.1.37-.13.38-.16.37-.19.38-.22.37-.25.37-.28.38-.3.37-.33.38-.33.37-.36.37-.36.38-.36.37-.36.38-.34.37-.33.37-.3.38-.27.37-.23.38-.18.37-.14.37-.09.38-.03.37.04.37.09.38.15.37.21.38.26.37.32.37.37.38.41.37.44.38.46.37.48.37.48.38.48.37.47.38.45.37.41.37.38.38.33.37.28.37.23.38.18.37.11.38.06.37.01.37-.05.38-.1.37-.13.38-.18.37-.21.37-.24.38-.26.37-.27.38-.28.37-.29.37-.3.38-.28.37-.29.38-.28.37-.27.37-.28.38-.27.37-.27.37-.28.38-.28.37-.29.38-.3.37-.32.37-.34.38-.36.37-.39.38-.41.37-.43.37-.47.38-.48.37-.52.38-.53.37-.54.37-.56.38-.57.37-.57.37-.56.38-.56.37-.54.38-.53.37-.49.37-.47.38-.42.37-.39.38-.34.37-.29.37-.23.38-.19.37-.13.38-.08.37-.02.37.03.38.08.37.13.38.17.37.22.37.25.38.28.37.32.37.34.38.35.37.38.38.38.37.39.37.4.38.39.37.4.38.39.37.38.37.38.38.36.37.36.38.34.37.32.37.32.38.3.37.28.37.27.38.25.37.23.38.22.37.19.37.18.38.15.37.13.38.11.37.09.37.05.38.04.37.01.38-.02.37-.04.37-.07.38-.09.37-.12.38-.14.37-.17.37-.19.38-.21.37-.23.37-.26.38-.27.37-.29.38-.3.37-.32.37-.34.38-.35.37-.36.38-.37.37-.38.37-.4.38-.4.37-.42.38-.41.37-.43.37-.43.38-.43.37-.44.37-.44.38-.43.37-.44.38-.43.37-.43.37-.42.38-.41.37-.4.38-.39.37-.38.37-.36.38-.36.37-.33.38-.32.37-.3.37-.28.38-.26.37-.25.38-.22.37-.21.37-.19.38-.16.37-.16.37-.12.38-.11.37-.09.38-.08.37-.05.37-.03.38-.02.37.01.38.02.37.05.37.06.38.09.37.1.38.12.37.13.37.15.38.17.37.19.37.19.38.21.37.22.38.22.37.23.37.24.38.24.37.24.38.23.37.24.37.23.38.22.37.21.38.2.37.19.37.19.38.17.37.15.38.15.37.13.37.13.38.12.37.11.37.11.38.09.37.1.38.1.37.1.37.1.38.1.37.11.38.12.37.13.37.13.38.15.37.16.38.17.37.18.37.19.38.21.37.21.37.22.38.22.37.23.38.23.37.23.37.23.38.22.37.22.38.2.37.19.37.18.38.16.37.14.38.11.37.09.37.07.38.04.37.01.38-.02.37-.04.37-.07.38-.1.37-.13.37-.15.38-.18.37-.2.38-.21.37-.23.37-.26.38-.25.37-.27.38-.27.37-.28.37-.27.38-.26.37-.26.38-.24.37-.24.37-.21.38-.19.37-.18.37-.15.38-.12.37-.1.38-.07.37-.05.37-.02.38.01.37.04.38.06.37.08.37.1.38.12.37.14.38.16.37.16.37.17.38.19.37.18.38.18.37.18.37.17.38.17.37.15.37.15.38.13.37.11.38.1.37.08.37.06.38.04.37.01.38.01.37-.01.37-.03.38-.05.37-.05.38-.07.37-.07.37-.09.38-.08.37-.09.37-.09.38-.08.37-.07.38-.07.37-.06.37-.04.38-.02h.75l.37.04.37.06.38.08.37.1.38.13.37.16.37.18.38.2.37.23.38.25.37.27.37.29.38.31.37.33.37.35.38.36.37.37.38.38.37.39.37.38.38.4.37.39.38.39.37.39.37.39.38.37.37.36.38.34.37.34.37.32.38.3.37.28.37.26.38.25.37.22.38.2.37.18.37.15.38.13.37.11.38.09.37.08.37.05.38.03.37.02h.38l.37-.01.37-.03.38-.04.37-.05.38-.06.37-.07.37-.08.38-.08.37-.09.37-.1.38-.11.37-.1.38-.12.37-.12.37-.13.38-.13.37-.14.38-.15.37-.16.37-.16.38-.17.37-.19.38-.19.37-.21.37-.21.38-.23.37-.25.37-.25.38-.26.37-.28.38-.29.37-.3.37-.3.38-.31.37-.32.38-.33.37-.33.37-.33.38-.33.37-.32.38-.33.37-.31.37-.31.38-.29.37-.28.38-.27.37-.25.37-.23.38-.2.37-.19.37-.16.38-.14.37-.11.38-.08.37-.06.37-.03h.38l.37.03.38.05.37.07.37.1.38.12.37.14.38.16.37.18.37.19.38.2.37.21.37.21.38.22.37.22.38.22.37.21.37.2.38.19.37.17.38.16.37.15.37.11.38.11.37.07.38.05.37.04h.37l.38-.03.37-.04.37-.07.38-.09.37-.12.38-.13.37-.15.37-.16.38-.17.37-.18.38-.19.37-.19.37-.19.38-.19.37-.18.38-.16.37-.16.37-.15.38-.12.37-.1.38-.09.37-.06.37-.04.38-.02.37.01.37.03.38.05.37.07.38.1.37.1.37.12.38.14.37.14.38.15.37.15.37.16.38.15.37.14.38.13.37.12.37.11.38.1.37.07.37.05.38.03.37.01.38-.02.37-.04.37-.05.38-.09.37-.1.38-.13.37-.14.37-.16.38-.18.37-.18.38-.19.37-.2.37-.2.38-.2.37-.2.38-.19.37-.18.37-.17.38-.15.37-.14.37-.11.38-.09.37-.07.38-.04.37-.02.37.02.38.05.37.07.38.11.37.15.37.17.38.2.37.23.38.27.37.29.37.32.38.34.37.37.37.39.38.41.37.43.38.45.37.46.37.48.38.48.37.5.38.5.37.51.37.51.38.5.37.51.38.51.37.5.37.49.38.49.37.47.38.47.37.45.37.44.38.42.37.4.37.39.38.37.37.34.38.33.37.29.37.28.38.24.37.23.38.2.37.16.37.14.38.11.37.08.38.05.37.02.37-.01.38-.04.37-.08.37-.1.38-.13.37-.16.38-.19.37-.21.37-.24.38-.27.37-.3.38-.32.37-.34.37-.37.38-.38.37-.41.38-.43.37-.44.37-.46.38-.47.37-.49.38-.49.37-.51.37-.52.38-.52.37-.52.37-.54.38-.53.37-.53.38-.53.37-.53.37-.51.38-.51.37-.5.38-.48.37-.47.37-.46.38-.43.37-.41.38-.38.37-.36.37-.34.38-.3.37-.27.37-.24.38-.21.37-.17.38-.15.37-.1.37-.08.38-.04.37-.01.38.01.37.05.37.06.38.09.37.11.38.12.37.13.37.14.38.14.37.13.38.14.37.13.37.1.38.09.37.07.37.05.38.01h.37l.38-.05.37-.07.37-.12.38-.14.37-.18.38-.2.37-.24.37-.27.38-.29.37-.32.38-.33.37-.35.37-.36.38-.36.37-.37.37-.37.38-.36.37-.36.38-.34.37-.33.37-.31.38-.29.37-.26.38-.24.37-.21.37-.19.38-.15.37-.12.38-.09.37-.06.37-.03.38.01.37.05.38.07.37.11.37.14.38.18.37.2.37.24.38.27.37.29.38.32.37.35.37.36.38.38.37.39.38.4.37.4.37.4.38.39.37.38.38.35.37.34.37.31.38.28.37.23.37.2.38.16.37.11.38.08.37.02.37-.02.38-.06.37-.09.38-.14.37-.16.37-.18.38-.21.37-.23.38-.23.37-.23.37-.23.38-.22.37-.2.38-.18.37-.15.37-.13.38-.08.37-.04h.37l.38.04.37.09.38.13.37.18.37.23.38.28.37.32.38.35.37.4.37.43.38.47.37.49.38.52.37.54.37.55.38.57.37.58.37.58.38.59.37.58.38.58.37.58.37.56.38.54.37.53.38.5.37.47.37.45.38.4.37.37.38.33.37.27.37.23.38.17.37.12.38.05h.37l.37-.07.38-.12.37-.17.37-.23.38-.26.37-.3.38-.32.37-.34.37-.33.38-.33.37-.3.38-.27.37-.22.37-.17.38-.1.37-.05.38.02.37.09.37.14.38.19.37.24.37.26.38.27.37.28.38.26.37.24.37.19.38.15.37.09.38.03.37-.04.37-.11.38-.18.37-.24.38-.31.37-.36.37-.42.38-.46.37-.5.38-.54.37-.57.37-.59.38-.62.37-.63.37-.65.38-.66.37-.67.38-.68.37-.68.37-.68.38-.67.37-.66.38-.65.37-.63.37-.6.38-.56.37-.52.38-.46.37-.4.37-.33.38-.26.37-.17.37-.09h.38l.37.09.38.17.37.23.37.29.38.33.37.33.38.33.37.29.37.22.38.1.37-.03.38-.2.37-.4.37-.6.38-.81.37-1.02.38-1.19.37-1.33.37-1.4.38-1.4.37-1.34.37-1.2.38-1.01.37-.78.38-.52.37-.26.37-.04.38.16.37.31.38.42.37.48.37.53.38.54.37.55.38.55.37.54.37.54.38.53.37.52.37.51.38.51.37.5.38.49.37.49.37.49.38.47.37.47.38.47.37.46"/><use xlink:href="#g" transform="matrix(3.75 0 0 3.75 342.45 177.71)"/><use xlink:href="#g" transform="matrix(3.75 0 0 3.75 78.65 7.51)"/></g><text fill="#000" stroke="none" stroke-linecap="round" stroke-linejoin="round" color="#000" font-family="KaTeX_Main" font-size="8" transform="translate(99.2 25.11)"><tspan>AVLTopDown</tspan></text><g fill="none" stroke="currentColor" stroke-linecap="round" stroke-linejoin="round" color="#000"><path stroke="#29C3F6" stroke-dasharray="1.0,2.0" d="M63.7 22.51h29.9M28 179.22l.37.43.38.39.37.36.38.32.37.29.37.24.38.2.37.15.38.12.37.08.37.04.38.01.37-.02.37-.03.38-.05.37-.05.38-.06.37-.05.37-.05.38-.04.37-.04.38-.02.37-.02.37-.02.38-.01.37-.02.38-.03.37-.03.37-.06.38-.08.37-.1.37-.13.38-.16.37-.19.38-.22.37-.25.37-.28.38-.3.37-.33.38-.33.37-.36.37-.36.38-.36.37-.36.38-.34.37-.33.37-.3.38-.27.37-.23.38-.18.37-.14.37-.09.38-.03.37.04.37.09.38.15.37.21.38.26.37.32.37.37.38.41.37.44.38.46.37.48.37.48.38.48.37.47.38.45.37.41.37.38.38.33.37.28.37.23.38.18.37.11.38.06.37.01.37-.05.38-.1.37-.13.38-.18.37-.21.37-.24.38-.26.37-.27.38-.28.37-.29.37-.3.38-.28.37-.29.38-.28.37-.27.37-.28.38-.27.37-.27.37-.28.38-.28.37-.29.38-.3.37-.32.37-.34.38-.36.37-.39.38-.41.37-.43.37-.47.38-.48.37-.52.38-.53.37-.54.37-.56.38-.57.37-.57.37-.56.38-.56.37-.54.38-.53.37-.49.37-.47.38-.42.37-.39.38-.34.37-.29.37-.23.38-.19.37-.13.38-.08.37-.02.37.03.38.08.37.13.38.17.37.22.37.25.38.28.37.32.37.34.38.35.37.38.38.38.37.39.37.4.38.39.37.4.38.39.37.38.37.38.38.36.37.36.38.34.37.32.37.32.38.3.37.28.37.27.38.25.37.23.38.22.37.19.37.18.38.15.37.13.38.11.37.09.37.05.38.04.37.01.38-.02.37-.04.37-.07.38-.09.37-.12.38-.14.37-.17.37-.19.38-.21.37-.23.37-.26.38-.27.37-.29.38-.3.37-.32.37-.34.38-.35.37-.36.38-.37.37-.38.37-.4.38-.4.37-.42.38-.41.37-.43.37-.43.38-.43.37-.44.37-.44.38-.43.37-.44.38-.43.37-.43.37-.42.38-.41.37-.4.38-.39.37-.38.37-.36.38-.36.37-.33.38-.32.37-.3.37-.28.38-.26.37-.25.38-.22.37-.21.37-.19.38-.16.37-.16.37-.12.38-.11.37-.09.38-.08.37-.05.37-.03.38-.02.37.01.38.02.37.05.37.06.38.09.37.1.38.12.37.13.37.15.38.17.37.19.37.19.38.21.37.22.38.22.37.23.37.24.38.24.37.24.38.23.37.24.37.23.38.22.37.21.38.2.37.19.37.19.38.17.37.15.38.15.37.13.37.13.38.12.37.11.37.11.38.09.37.1.38.1.37.1.37.1.38.1.37.11.38.12.37.13.37.13.38.15.37.16.38.17.37.18.37.19.38.21.37.21.37.22.38.22.37.23.38.23.37.23.37.23.38.22.37.22.38.2.37.19.37.18.38.16.37.14.38.11.37.09.37.07.38.04.37.01.38-.02.37-.04.37-.07.38-.1.37-.13.37-.15.38-.18.37-.2.38-.21.37-.23.37-.26.38-.25.37-.27.38-.27.37-.28.37-.27.38-.26.37-.26.38-.24.37-.24.37-.21.38-.19.37-.18.37-.15.38-.12.37-.1.38-.07.37-.05.37-.02.38.01.37.04.38.06.37.08.37.1.38.12.37.14.38.16.37.16.37.17.38.19.37.18.38.18.37.18.37.17.38.17.37.15.37.15.38.13.37.11.38.1.37.08.37.06.38.04.37.01.38.01.37-.01.37-.03.38-.05.37-.05.38-.07.37-.07.37-.09.38-.08.37-.09.37-.09.38-.08.37-.07.38-.07.37-.06.37-.04.38-.02h.75l.37.04.37.06.38.08.37.1.38.13.37.16.37.18.38.2.37.23.38.25.37.27.37.29.38.31.37.33.37.35.38.36.37.37.38.38.37.39.37.38.38.4.37.39.38.39.37.39.37.39.38.37.37.36.38.34.37.34.37.32.38.3.37.28.37.26.38.25.37.22.38.2.37.18.37.15.38.13.37.11.38.09.37.08.37.05.38.03.37.02h.38l.37-.01.37-.03.38-.04.37-.05.38-.06.37-.07.37-.08.38-.08.37-.09.37-.1.38-.11.37-.1.38-.12.37-.12.37-.13.38-.13.37-.14.38-.15.37-.16.37-.16.38-.17.37-.19.38-.19.37-.21.37-.21.38-.23.37-.25.37-.25.38-.26.37-.28.38-.29.37-.3.37-.3.38-.31.37-.32.38-.33.37-.33.37-.33.38-.33.37-.32.38-.33.37-.31.37-.31.38-.29.37-.28.38-.27.37-.25.37-.23.38-.2.37-.19.37-.16.38-.14.37-.11.38-.08.37-.06.37-.03h.38l.37.03.38.05.37.07.37.1.38.12.37.14.38.16.37.18.37.19.38.2.37.21.37.21.38.22.37.22.38.22.37.21.37.2.38.19.37.17.38.16.37.15.37.11.38.11.37.07.38.05.37.04h.37l.38-.03.37-.04.37-.07.38-.09.37-.12.38-.13.37-.15.37-.16.38-.17.37-.18.38-.19.37-.19.37-.19.38-.19.37-.18.38-.16.37-.16.37-.15.38-.12.37-.1.38-.09.37-.06.37-.04.38-.02.37.01.37.03.38.05.37.07.38.1.37.1.37.12.38.14.37.14.38.15.37.15.37.16.38.15.37.14.38.13.37.12.37.11.38.1.37.07.37.05.38.03.37.01.38-.02.37-.04.37-.05.38-.09.37-.1.38-.13.37-.14.37-.16.38-.18.37-.18.38-.19.37-.2.37-.2.38-.2.37-.2.38-.19.37-.18.37-.17.38-.15.37-.14.37-.11.38-.09.37-.07.38-.04.37-.02.37.02.38.05.37.07.38.11.37.15.37.17.38.2.37.23.38.27.37.29.37.32.38.34.37.37.37.39.38.41.37.43.38.45.37.46.37.48.38.48.37.5.38.5.37.51.37.51.38.5.37.51.38.51.37.5.37.49.38.49.37.47.38.47.37.45.37.44.38.42.37.4.37.39.38.37.37.34.38.33.37.29.37.28.38.24.37.23.38.2.37.16.37.14.38.11.37.08.38.05.37.02.37-.01.38-.04.37-.08.37-.1.38-.13.37-.16.38-.19.37-.21.37-.24.38-.27.37-.3.38-.32.37-.34.37-.37.38-.38.37-.41.38-.43.37-.44.37-.46.38-.47.37-.49.38-.49.37-.51.37-.52.38-.52.37-.52.37-.54.38-.53.37-.53.38-.53.37-.53.37-.51.38-.51.37-.5.38-.48.37-.47.37-.46.38-.43.37-.41.38-.38.37-.36.37-.34.38-.3.37-.27.37-.24.38-.21.37-.17.38-.15.37-.1.37-.08.38-.04.37-.01.38.01.37.05.37.06.38.09.37.11.38.12.37.13.37.14.38.14.37.13.38.14.37.13.37.1.38.09.37.07.37.05.38.01h.37l.38-.05.37-.07.37-.12.38-.14.37-.18.38-.2.37-.24.37-.27.38-.29.37-.32.38-.33.37-.35.37-.36.38-.36.37-.37.37-.37.38-.36.37-.36.38-.34.37-.33.37-.31.38-.29.37-.26.38-.24.37-.21.37-.19.38-.15.37-.12.38-.09.37-.06.37-.03.38.01.37.05.38.07.37.11.37.14.38.18.37.2.37.24.38.27.37.29.38.32.37.35.37.36.38.38.37.39.38.4.37.4.37.4.38.39.37.38.38.35.37.34.37.31.38.28.37.23.37.2.38.16.37.11.38.08.37.02.37-.02.38-.06.37-.09.38-.14.37-.16.37-.18.38-.21.37-.23.38-.23.37-.23.37-.23.38-.22.37-.2.38-.18.37-.15.37-.13.38-.08.37-.04h.37l.38.04.37.09.38.13.37.18.37.23.38.28.37.32.38.35.37.4.37.43.38.47.37.49.38.52.37.54.37.55.38.57.37.58.37.58.38.59.37.58.38.58.37.58.37.56.38.54.37.53.38.5.37.47.37.45.38.4.37.37.38.33.37.27.37.23.38.17.37.12.38.05h.37l.37-.07.38-.12.37-.17.37-.23.38-.26.37-.3.38-.32.37-.34.37-.33.38-.33.37-.3.38-.27.37-.22.37-.17.38-.1.37-.05.38.02.37.09.37.14.38.19.37.24.37.26.38.27.37.28.38.26.37.24.37.19.38.15.37.09.38.03.37-.04.37-.11.38-.18.37-.24.38-.31.37-.36.37-.42.38-.46.37-.5.38-.54.37-.57.37-.59.38-.62.37-.63.37-.65.38-.66.37-.67.38-.68.37-.68.37-.68.38-.67.37-.66.38-.65.37-.63.37-.6.38-.56.37-.52.38-.46.37-.4.37-.33.38-.26.37-.17.37-.09h.38l.37.09.38.17.37.23.37.29.38.33.37.33.38.33.37.29.37.22.38.1.37-.03.38-.2.37-.4.37-.6.38-.81.37-1.02.38-1.19.37-1.33.37-1.4.38-1.4.37-1.34.37-1.2.38-1.01.37-.78.38-.52.37-.26.37-.04.38.16.37.31.38.42.37.48.37.53.38.54.37.55.38.55.37.54.37.54.38.53.37.52.37.51.38.51.37.5.38.49.37.49.37.49.38.47.37.47.38.47.37.46"/><use xlink:href="#h" color="#29C3F6" transform="matrix(3.75 0 0 3.75 56.04 182.56)"/><use xlink:href="#h" color="#29C3F6" transform="matrix(3.75 0 0 3.75 78.65 22.51)"/></g><text fill="#000" stroke="none" stroke-linecap="round" stroke-linejoin="round" color="#000" font-family="KaTeX_Main" font-size="8" transform="translate(241.1 10.11)"><tspan>AVLRelaxedBottomUp</tspan></text><g fill="none" stroke="currentColor" stroke-linecap="round" stroke-linejoin="round" color="#000"><path stroke="#FFAB00" d="M205.6 7.51h29.9M28 179.09l.37.37.38.32.37.27.38.21.37.14.37.07.38-.01.37-.09.38-.18.37-.25.37-.33.38-.4.37-.46.37-.5.38-.54.37-.56.38-.56.37-.55.37-.52.38-.48.37-.42.38-.36.37-.29.37-.21.38-.13.37-.06.38.02.37.07.37.14.38.18.37.21.37.22.38.25.37.23.38.22.37.21.37.17.38.14.37.11.38.06.37.03.37-.01.38-.03.37-.07.38-.09.37-.09.37-.1.38-.09.37-.08.38-.06.37-.03.37.01.38.05.37.09.37.14.38.19.37.24.38.3.37.34.37.38.38.42.37.44.38.47.37.49.37.49.38.48.37.47.38.45.37.42.37.37.38.34.37.28.37.23.38.18.37.11.38.06.37.01.37-.05.38-.1.37-.13.38-.18.37-.21.37-.24.38-.26.37-.27.38-.28.37-.29.37-.3.38-.28.37-.29.38-.28.37-.28.37-.27.38-.28.37-.27.37-.28.38-.28.37-.3.38-.31.37-.33.37-.35.38-.37.37-.41.38-.43.37-.47.37-.49.38-.53.37-.57.38-.59.37-.62.37-.65.38-.68.37-.7.37-.71.38-.73.37-.75.38-.75.37-.75.37-.76.38-.75.37-.75.38-.75.37-.73.37-.73.38-.71.37-.7.38-.69.37-.66.37-.66.38-.64.37-.61.38-.61.37-.58.37-.56.38-.55.37-.52.37-.51.38-.48.37-.45.38-.43.37-.4.37-.37.38-.33.37-.3.38-.27.37-.22.37-.18.38-.15.37-.09.38-.05h.37l.37.05.38.09.37.15.37.2.38.24.37.29.38.34.37.38.37.42.38.46.37.5.38.53.37.55.37.59.38.6.37.62.38.63.37.65.37.64.38.65.37.65.38.63.37.62.37.61.38.59.37.56.37.54.38.51.37.48.38.44.37.4.37.37.38.32.37.28.38.24.37.2.37.15.38.11.37.06.38.02.37-.02.37-.06.38-.1.37-.13.37-.16.38-.19.37-.22.38-.25.37-.26.37-.28.38-.29.37-.31.38-.31.37-.32.37-.31.38-.32.37-.31.38-.31.37-.3.37-.28.38-.28.37-.27.38-.25.37-.24.37-.22.38-.21.37-.18.37-.18.38-.15.37-.13.38-.12.37-.1.37-.08.38-.07.37-.04.38-.02h.37l.37.02.38.03.37.06.38.08.37.09.37.12.38.13.37.15.37.17.38.17.37.2.38.2.37.22.37.22.38.22.37.24.38.23.37.23.37.24.38.23.37.22.38.21.37.21.37.21.38.19.37.18.38.17.37.17.37.15.38.15.37.14.37.13.38.14.37.13.38.12.37.13.37.12.38.14.37.13.38.15.37.14.37.16.38.17.37.18.38.19.37.19.37.21.38.21.37.23.37.23.38.23.37.24.38.24.37.23.37.24.38.22.37.22.38.21.37.19.37.18.38.15.37.14.38.11.37.09.37.06.38.04h.37l.38-.02.37-.06.37-.08.38-.11.37-.15.37-.17.38-.19.37-.22.38-.24.37-.27.37-.28.38-.29.37-.31.38-.31.37-.33.37-.32.38-.32.37-.32.38-.3.37-.3.37-.29.38-.26.37-.25.37-.23.38-.21.37-.18.38-.16.37-.13.37-.1.38-.07.37-.05.38-.02.37.01.37.03.38.06.37.08.38.1.37.12.37.14.38.15.37.16.38.17.37.17.37.18.38.18.37.18.37.17.38.17.37.15.38.16.37.13.37.12.38.11.37.1.38.07.37.07.37.05.38.04.37.02.38.01h.37l.37-.01.38-.01.37-.02.37-.02.38-.02.37-.03.38-.02.37-.01.37-.01h.38l.37.02.38.01.37.04.37.05.38.05.37.07.38.09.37.1.37.1.38.12.37.13.38.14.37.14.37.14.38.15.37.15.37.14.38.14.37.13.38.13.37.11.37.09.38.08.37.06.38.04.37.02h.37l.38-.02.37-.05.38-.06.37-.1.37-.11.38-.14.37-.15.37-.18.38-.19.37-.2.38-.22.37-.23.37-.24.38-.23.37-.25.38-.24.37-.24.37-.22.38-.22.37-.21.38-.2.37-.17.37-.16.38-.14.37-.12.38-.09.37-.06.37-.04.38-.02.37.01.37.04.38.06.37.08.38.1.37.12.37.14.38.16.37.18.38.18.37.19.37.2.38.2.37.2.38.21.37.19.37.19.38.18.37.17.37.15.38.14.37.12.38.1.37.09.37.06.38.06.37.02.38.01.37-.01.37-.02.38-.04.37-.05.38-.07.37-.07.37-.08.38-.08.37-.09.38-.09.37-.09.37-.08.38-.07.37-.07.37-.05.38-.04.37-.03.38-.01h.37l.37.03.38.04.37.06.38.08.37.09.37.11.38.13.37.14.38.15.37.17.37.17.38.18.37.18.37.18.38.18.37.18.38.16.37.16.37.15.38.13.37.11.38.1.37.07.37.05.38.02.37-.01.38-.03.37-.06.37-.09.38-.11.37-.15.37-.17.38-.19.37-.22.38-.24.37-.27.37-.28.38-.3.37-.31.38-.32.37-.32.37-.33.38-.33.37-.33.38-.33.37-.31.37-.31.38-.29.37-.27.38-.26.37-.23.37-.21.38-.19.37-.16.37-.14.38-.1.37-.09.38-.05.37-.03.37-.01.38.02.37.04.38.05.37.08.37.09.38.1.37.11.38.11.37.11.37.11.38.1.37.1.37.07.38.06.37.04h.38l.37-.01.37-.05.38-.09.37-.12.38-.16.37-.21.37-.24.38-.29.37-.33.38-.37.37-.41.37-.45.38-.49.37-.53.38-.56.37-.58.37-.61.38-.63.37-.65.37-.66.38-.67.37-.67.38-.67.37-.66.37-.65.38-.64.37-.6.38-.59.37-.55.37-.52.38-.49.37-.44.38-.4.37-.35.37-.31.38-.26.37-.21.37-.16.38-.12.37-.07.38-.01.37.02.37.07.38.11.37.15.38.19.37.22.37.25.38.27.37.3.38.32.37.34.37.35.38.36.37.37.38.38.37.37.37.38.38.36.37.37.37.35.38.34.37.32.38.3.37.29.37.27.38.24.37.22.38.19.37.16.37.14.38.11.37.08.38.05.37.02.37-.01.38-.04.37-.07.37-.1.38-.14.37-.16.38-.18.37-.21.37-.25.38-.26.37-.28.38-.31.37-.32.37-.34.38-.36.37-.37.38-.37.37-.38.37-.39.38-.39.37-.39.38-.37.37-.37.37-.36.38-.34.37-.31.37-.3.38-.26.37-.24.38-.2.37-.16.37-.12.38-.08.37-.03.38.03.37.07.37.13.38.18.37.23.38.3.37.35.37.4.38.46.37.51.37.55.38.6.37.64.38.67.37.72.37.73.38.76.37.77.38.79.37.79.37.78.38.78.37.76.38.74.37.72.37.69.38.64.37.61.38.56.37.52.37.46.38.41.37.34.37.3.38.24.37.17.38.12.37.07.37.01.38-.05.37-.09.38-.14.37-.18.37-.21.38-.25.37-.28.38-.3.37-.31.37-.34.38-.34.37-.35.37-.34.38-.35.37-.34.38-.32.37-.32.37-.3.38-.29.37-.26.38-.25.37-.23.37-.21.38-.19.37-.18.38-.15.37-.13.37-.11.38-.09.37-.07.38-.04.37-.03h.37l.38.03.37.05.37.07.38.11.37.12.38.16.37.19.37.21.38.24.37.26.38.3.37.31.37.33.38.34.37.36.38.36.37.36.37.36.38.35.37.33.37.32.38.29.37.27.38.23.37.21.37.16.38.13.37.1.38.06.37.02.37-.01.38-.04.37-.05.38-.08.37-.09.37-.1.38-.1.37-.1.38-.09.37-.06.37-.05.38-.03.37.01.37.04.38.08.37.12.38.16.37.21.37.24.38.29.37.32.38.37.37.4.37.44.38.47.37.49.38.52.37.54.37.56.38.57.37.57.37.59.38.58.37.59.38.58.37.57.37.56.38.54.37.51.38.5.37.46.37.43.38.4.37.34.38.3.37.24.37.19.38.11.37.05.38-.02.37-.1.37-.18.38-.26.37-.33.37-.4.38-.48.37-.53.38-.59.37-.62.37-.65.38-.66.37-.66.38-.63.37-.6.37-.53.38-.48.37-.38.38-.29.37-.19.37-.08.38.03.37.12.37.23.38.31.37.38.38.44.37.47.37.49.38.49.37.47.38.43.37.38.37.31.38.23.37.15.38.07.37-.02.37-.11.38-.2.37-.27.38-.34.37-.41.37-.47.38-.51.37-.56.37-.59.38-.62.37-.64.38-.65.37-.68.37-.68.38-.69.37-.69.38-.69.37-.69.37-.68.38-.68.37-.67.38-.67.37-.66.37-.68.38-.69.37-.71.37-.75.38-.8.37-.85.38-.91.37-.99.37-1.05.38-1.12.37-1.16.38-1.19.37-1.18.37-1.14.38-1.06.37-.95.38-.8.37-.64.37-.45.38-.26.37-.07.38.1.37.25.37.36.38.47.37.53.37.58.38.61.37.61.38.63.37.62.37.62.38.61.37.6.38.59.37.58.37.58.38.57.37.56.38.55.37.54.37.54.38.53.37.52.37.51.38.51.37.5.38.49.37.49.37.49.38.47.37.47.38.47.37.46"/><use xlink:href="#i" color="#FFAB00" transform="matrix(3.75 0 0 3.75 113.62 159.24)"/><use xlink:href="#i" color="#FFAB00" transform="matrix(3.75 0 0 3.75 220.55 7.51)"/></g><text fill="#000" stroke="none" stroke-linecap="round" stroke-linejoin="round" color="#000" font-family="KaTeX_Main" font-size="8" transform="translate(241.1 25.11)"><tspan>AVLRelaxedTopDown</tspan></text><g fill="none" stroke="currentColor" stroke-linecap="round" stroke-linejoin="round" color="#000"><path stroke="#3B75EA" stroke-dasharray="4.5,2.0,0.5,2.0,0.5,2.0" d="M205.6 22.51h29.9M28 103.69l.37.43.38.62.37.8.38.98.37 1.15.37 1.29.38 1.43.37 1.54.38 1.62.37 1.67.37 1.69.38 1.7.37 1.68.37 1.64.38 1.57.37 1.5.38 1.41.37 1.32.37 1.24.38 1.15.37 1.07.38.99.37.93.37.88.38.84.37.8.38.77.37.75.37.72.38.72.37.69.37.67.38.64.37.62.38.58.37.54.37.49.38.44.37.38.38.31.37.24.37.18.38.1.37.03.38-.04.37-.1.37-.17.38-.22.37-.29.38-.33.37-.37.37-.4.38-.44.37-.46.37-.47.38-.48.37-.48.38-.47.37-.46.37-.45.38-.42.37-.39.38-.35.37-.31.37-.28.38-.23.37-.18.38-.13.37-.09.37-.03.38.01.37.07.37.1.38.15.37.19.38.22.37.25.37.28.38.29.37.31.38.32.37.32.37.31.38.29.37.29.38.25.37.23.37.19.38.15.37.11.38.06.37.01.37-.05.38-.09.37-.15.37-.21.38-.26.37-.3.38-.36.37-.39.37-.44.38-.47.37-.49.38-.52.37-.54.37-.54.38-.55.37-.55.38-.55.37-.53.37-.52.38-.51.37-.48.37-.46.38-.44.37-.41.38-.39.37-.37.37-.35.38-.34.37-.31.38-.31.37-.3.37-.28.38-.29.37-.28.38-.28.37-.29.37-.29.38-.3.37-.31.38-.31.37-.33.37-.33.38-.33.37-.35.37-.34.38-.35.37-.35.38-.33.37-.33.37-.32.38-.31.37-.28.38-.27.37-.24.37-.2.38-.17.37-.15.38-.1.37-.06.37-.02.38.03.37.06.37.12.38.15.37.2.38.24.37.28.37.32.38.35.37.38.38.41.37.43.37.45.38.47.37.47.38.48.37.48.37.47.38.47.37.45.38.44.37.42.37.38.38.38.37.33.37.3.38.27.37.24.38.2.37.16.37.13.38.09.37.05.38.02.37-.03.37-.05.38-.09.37-.11.38-.15.37-.17.37-.19.38-.21.37-.23.37-.24.38-.24.37-.24.38-.24.37-.24.37-.22.38-.2.37-.17.38-.15.37-.12.37-.07.38-.03.37.02.38.07.37.12.37.18.38.24.37.29.38.35.37.41.37.47.38.51.37.57.37.61.38.65.37.69.38.71.37.74.37.75.38.76.37.75.38.75.37.74.37.72.38.69.37.66.38.62.37.58.37.53.38.48.37.43.37.37.38.32.37.26.38.2.37.15.37.09.38.04.37-.02.38-.07.37-.11.37-.15.38-.2.37-.23.38-.26.37-.29.37-.32.38-.33.37-.36.38-.38.37-.38.37-.39.38-.4.37-.4.37-.41.38-.41.37-.41.38-.4.37-.41.37-.4.38-.41.37-.4.38-.4.37-.4.37-.41.38-.41.37-.41.38-.41.37-.43.37-.43.38-.44.37-.45.37-.46.38-.48.37-.48.38-.5.37-.5.37-.51.38-.52.37-.53.38-.53.37-.53.37-.54.38-.52.37-.52.38-.51.37-.49.37-.48.38-.46.37-.43.38-.4.37-.37.37-.34.38-.3.37-.26.37-.23.38-.19.37-.14.38-.1.37-.06.37-.01.38.02.37.06.38.1.37.13.37.17.38.2.37.23.38.25.37.27.37.29.38.31.37.32.37.34.38.34.37.35.38.35.37.36.37.36.38.35.37.36.38.35.37.35.37.35.38.34.37.34.38.33.37.33.37.32.38.32.37.31.38.31.37.3.37.3.38.29.37.28.37.28.38.27.37.26.38.25.37.24.37.23.38.21.37.21.38.18.37.18.37.15.38.13.37.12.38.1.37.08.37.06.38.03.37.02.37-.01.38-.03.37-.05.38-.07.37-.09.37-.11.38-.13.37-.15.38-.17.37-.18.37-.2.38-.21.37-.22.38-.23.37-.24.37-.25.38-.25.37-.25.38-.25.37-.25.37-.24.38-.23.37-.22.37-.2.38-.18.37-.17.38-.14.37-.11.37-.08.38-.04.37-.02.38.03.37.06.37.11.38.16.37.2.38.24.37.29.37.33.38.38.37.43.37.47.38.51.37.55.38.58.37.63.37.65.38.67.37.7.38.72.37.74.37.74.38.75.37.75.38.74.37.74.37.73.38.71.37.68.38.66.37.63.37.6.38.56.37.53.37.48.38.44.37.39.38.35.37.3.37.26.38.2.37.16.38.11.37.06.37.02.38-.03.37-.08.38-.11.37-.15.37-.19.38-.23.37-.26.37-.3.38-.32.37-.34.38-.36.37-.39.37-.41.38-.41.37-.43.38-.44.37-.44.37-.45.38-.45.37-.45.38-.45.37-.43.37-.43.38-.43.37-.41.38-.4.37-.39.37-.37.38-.36.37-.35.37-.32.38-.31.37-.29.38-.28.37-.26.37-.25.38-.23.37-.22.38-.2.37-.2.37-.18.38-.18.37-.17.38-.16.37-.16.37-.15.38-.15.37-.16.37-.15.38-.15.37-.16.38-.16.37-.17.37-.18.38-.17.37-.19.38-.19.37-.2.37-.2.38-.21.37-.21.38-.22.37-.22.37-.22.38-.22.37-.22.37-.22.38-.2.37-.21.38-.19.37-.19.37-.16.38-.16.37-.13.38-.11.37-.1.37-.07.38-.04.37-.02.38.01.37.04.37.07.38.1.37.13.38.16.37.19.37.22.38.25.37.28.37.3.38.33.37.35.38.37.37.38.37.4.38.41.37.43.38.42.37.43.37.43.38.42.37.42.38.41.37.4.37.38.38.37.37.34.37.32.38.29.37.27.38.24.37.21.37.17.38.14.37.1.38.07.37.03.37-.02.38-.05.37-.1.38-.14.37-.18.37-.23.38-.28.37-.32.38-.37.37-.42.37-.46.38-.52.37-.56.37-.62.38-.66.37-.71.38-.76.37-.8.37-.85.38-.88.37-.92.38-.96.37-.98.37-1.02.38-1.03.37-1.05.38-1.05.37-1.07.37-1.06.38-1.05.37-1.04.37-1.01.38-.99.37-.96.38-.91.37-.86.37-.82.38-.76.37-.69.38-.63.37-.56.37-.48.38-.42.37-.33.38-.26.37-.17.37-.1.38-.01.37.05.38.14.37.2.37.28.38.34.37.41.37.46.38.53.37.57.38.61.37.66.37.7.38.73.37.75.38.78.37.79.37.81.38.83.37.82.38.83.37.83.37.83.38.82.37.82.37.8.38.8.37.77.38.77.37.75.37.73.38.71.37.68.38.67.37.64.37.62.38.58.37.56.38.53.37.48.37.46.38.41.37.37.38.33.37.29.37.23.38.18.37.13.37.07.38.02.37-.04.38-.1.37-.16.37-.21.38-.28.37-.34.38-.39.37-.44.37-.5.38-.55.37-.59.38-.64.37-.68.37-.71.38-.74.37-.76.37-.79.38-.79.37-.8.38-.8.37-.8.37-.78.38-.77.37-.75.38-.72.37-.69.37-.65.38-.61.37-.57.38-.52.37-.47.37-.42.38-.36.37-.32.38-.26.37-.21.37-.15.38-.1.37-.05.37-.01.38.04.37.08.38.13.37.16.37.19.38.22.37.25.38.27.37.3.37.31.38.33.37.35.38.35.37.36.37.37.38.37.37.37.37.37.38.36.37.36.38.36.37.35.37.33.38.33.37.31.38.29.37.28.37.25.38.24.37.21.38.19.37.16.37.13.38.1.37.07.38.04h.37l.37-.03.38-.08.37-.1.37-.14.38-.18.37-.22.38-.24.37-.29.37-.31.38-.35.37-.37.38-.39.37-.42.37-.45.38-.46.37-.47.38-.48.37-.49.37-.48.38-.49.37-.47.37-.47.38-.45.37-.43.38-.41.37-.37.37-.33.38-.3.37-.25.38-.2.37-.15.37-.09.38-.04.37.02.38.08.37.14.37.19.38.24.37.29.38.34.37.37.37.4.38.42.37.44.37.45.38.45.37.44.38.42.37.4.37.37.38.35.37.32.38.28.37.25.37.21.38.19.37.17.38.15.37.14.37.13.38.12.37.13.37.14.38.14.37.14.38.16.37.15.37.15.38.15.37.12.38.09.37.06.37.01.38-.05.37-.12.38-.19.37-.26.37-.35.38-.41.37-.49.38-.55.37-.59.37-.62.38-.62.37-.61.37-.56.38-.49.37-.39.38-.27.37-.12.37.05.38.23.37.44.38.64.37.84.37 1.05.38 1.23.37 1.39.38 1.55.37 1.65.37 1.75.38 1.81.37 1.82.37 1.82.38 1.76.37 1.7.38 1.6.37 1.47.37 1.32.38 1.18.37 1.01.38.84.37.67.37.5.38.35.37.19.38.06.37-.06.37-.18.38-.28.37-.36.38-.44.37-.49.37-.55.38-.59.37-.63.37-.65.38-.68.37-.69.38-.71.37-.7.37-.72.38-.71.37-.69.38-.69.37-.66.37-.63.38-.6.37-.55.38-.49.37-.43.37-.36.38-.28.37-.19.37-.11.38-.02.37.06.38.14.37.21.37.27.38.31.37.34.38.35.37.34.37.32.38.27.37.22.38.15.37.07.37-.02.38-.14.37-.23.38-.36.37-.47.37-.58.38-.68.37-.76.37-.82.38-.85.37-.85.38-.86.37-.86.37-.9.38-1.04.37-1.28.38-1.63.37-2.1.37-2.64.38-3.15.37-3.52.38-3.62.37-3.31.37-2.56.38-1.44.37-.18.37.82.38 1.12.37.38.38-1.46.37-3.91.37-6.08.38-7.19.37-7.38.38-8.78.37-17.32"/><use xlink:href="#a" color="#3B75EA" transform="matrix(3.75 0 0 3.75 171.2 129.77)"/><use xlink:href="#a" color="#3B75EA" transform="matrix(3.75 0 0 3.75 220.55 22.51)"/></g><path fill="none" stroke="none" stroke-linecap="round" stroke-linejoin="round" stroke-width="0" d="M28 45.01V205M371.99 45.01H28" color="#000"/></svg>