<svg xmlns="http://www.w3.org/2000/svg" xmlns:xlink="http://www.w3.org/1999/xlink" viewBox="0 0 400 250"><path fill="none" d="M0 0h400v250H0z"/><defs><path id="c" stroke="currentColor" stroke-width=".267" d="M-1 0h2M0-1v2"/><path id="d" stroke="currentColor" stroke-width=".267" d="m-1-1 2 2m0-2-2 2"/><path id="b" stroke="currentColor" stroke-width=".267" d="M-1-1h2v2h-2z"/><path id="f" fill="currentColor" stroke="currentColor" stroke-width=".267" d="M-1-1h2v2h-2z"/><path id="a" stroke="currentColor" stroke-width=".267" d="m0-1.33-1.33 2h2.66z"/><use xlink:href="#b" id="e" stroke="currentColor" transform="rotate(45)"/></defs><path fill="none" stroke="#333" stroke-linecap="round" stroke-linejoin="round" stroke-width=".1" d="M46.1 205V45.01" class="gridline" color="#000"/><g fill="none" stroke-linecap="round" stroke-linejoin="round" stroke-width="0" color="#000"><path d="M46.1 205v-7.5m0-152.49v7.5"/><text fill="#000" font-family="KaTeX_Main" font-size="8" text-anchor="middle" transform="translate(46.1 215.1)"><tspan> 1</tspan></text></g><path fill="none" stroke="#333" stroke-linecap="round" stroke-linejoin="round" stroke-width=".1" d="M82.31 205V45.01" class="gridline" color="#000"/><g fill="none" stroke-linecap="round" stroke-linejoin="round" stroke-width="0" color="#000"><path d="M82.31 205v-7.5m0-152.49v7.5"/><text fill="#000" font-family="KaTeX_Main" font-size="8" text-anchor="middle" transform="translate(82.31 215.1)"><tspan> 2</tspan></text></g><path fill="none" stroke="#333" stroke-linecap="round" stroke-linejoin="round" stroke-width=".1" d="M118.52 205V45.01" class="gridline" color="#000"/><g fill="none" stroke-linecap="round" stroke-linejoin="round" stroke-width="0" color="#000"><path d="M118.52 205v-7.5m0-152.49v7.5"/><text fill="#000" font-family="KaTeX_Main" font-size="8" text-anchor="middle" transform="translate(118.52 215.1)"><tspan> 3</tspan></text></g><path fill="none" stroke="#333" stroke-linecap="round" stroke-linejoin="round" stroke-width=".1" d="M154.73 205V45.01" class="gridline" color="#000"/><g fill="none" stroke-linecap="round" stroke-linejoin="round" stroke-width="0" color="#000"><path d="M154.73 205v-7.5m0-152.49v7.5"/><text fill="#000" font-family="KaTeX_Main" font-size="8" text-anchor="middle" transform="translate(154.73 215.1)"><tspan> 4</tspan></text></g><path fill="none" stroke="#333" stroke-linecap="round" stroke-linejoin="round" stroke-width=".1" d="M190.94 205V45.01" class="gridline" color="#000"/><g fill="none" stroke-linecap="round" stroke-linejoin="round" stroke-width="0" color="#000"><path d="M190.94 205v-7.5m0-152.49v7.5"/><text fill="#000" font-family="KaTeX_Main" font-size="8" text-anchor="middle" transform="translate(190.94 215.1)"><tspan> 5</tspan></text></g><path fill="none" stroke="#333" stroke-linecap="round" stroke-linejoin="round" stroke-width=".1" d="M227.15 205V45.01" class="gridline" color="#000"/><g fill="none" stroke-linecap="round" stroke-linejoin="round" stroke-width="0" color="#000"><path d="M227.15 205v-7.5m0-152.49v7.5"/><text fill="#000" font-family="KaTeX_Main" font-size="8" text-anchor="middle" transform="translate(227.15 215.1)"><tspan> 6</tspan></text></g><path fill="none" stroke="#333" stroke-linecap="round" stroke-linejoin="round" stroke-width=".1" d="M263.36 205V45.01" class="gridline" color="#000"/><g fill="none" stroke-linecap="round" stroke-linejoin="round" stroke-width="0" color="#000"><path d="M263.36 205v-7.5m0-152.49v7.5"/><text fill="#000" font-family="KaTeX_Main" font-size="8" text-anchor="middle" transform="translate(263.36 215.1)"><tspan> 7</tspan></text></g><path fill="none" stroke="#333" stroke-linecap="round" stroke-linejoin="round" stroke-width=".1" d="M299.57 205V45.01" class="gridline" color="#000"/><g fill="none" stroke-linecap="round" stroke-linejoin="round" stroke-width="0" color="#000"><path d="M299.57 205v-7.5m0-152.49v7.5"/><text fill="#000" font-family="KaTeX_Main" font-size="8" text-anchor="middle" transform="translate(299.57 215.1)"><tspan> 8</tspan></text></g><path fill="none" stroke="#333" stroke-linecap="round" stroke-linejoin="round" stroke-width=".1" d="M335.78 205V45.01" class="gridline" color="#000"/><g fill="none" stroke-linecap="round" stroke-linejoin="round" stroke-width="0" color="#000"><path d="M335.78 205v-7.5m0-152.49v7.5"/><text fill="#000" font-family="KaTeX_Main" font-size="8" text-anchor="middle" transform="translate(335.78 215.1)"><tspan> 9</tspan></text></g><path fill="none" stroke="#333" stroke-linecap="round" stroke-linejoin="round" stroke-width=".1" d="M371.99 205V45.01" class="gridline" color="#000"/><g fill="none" stroke-linecap="round" stroke-linejoin="round" stroke-width="0" color="#000"><path d="M371.99 205v-7.5m0-152.49v7.5"/><text fill="#000" font-family="KaTeX_Main" font-size="8" text-anchor="middle" transform="translate(371.99 215.1)"><tspan> 10</tspan></text></g><g fill="none" stroke-linecap="round" stroke-linejoin="round" stroke-width="0" color="#000"><path d="M371.99 205h-7.5"/><text fill="#000" font-family="KaTeX_Main" font-size="8" transform="translate(378.99 207.6)"><tspan>0.89</tspan></text></g><g fill="none" stroke-linecap="round" stroke-linejoin="round" stroke-width="0" color="#000"><path d="M371.99 182.14h-7.5"/><text fill="#000" font-family="KaTeX_Main" font-size="8" transform="translate(378.99 184.74)"><tspan>0.89</tspan></text></g><g fill="none" stroke-linecap="round" stroke-linejoin="round" stroke-width="0" color="#000"><path d="M371.99 159.29h-7.5"/><text fill="#000" font-family="KaTeX_Main" font-size="8" transform="translate(378.99 161.89)"><tspan>0.90</tspan></text></g><g fill="none" stroke-linecap="round" stroke-linejoin="round" stroke-width="0" color="#000"><path d="M371.99 136.43h-7.5"/><text fill="#000" font-family="KaTeX_Main" font-size="8" transform="translate(378.99 139.03)"><tspan>0.90</tspan></text></g><g fill="none" stroke-linecap="round" stroke-linejoin="round" stroke-width="0" color="#000"><path d="M371.99 113.58h-7.5"/><text fill="#000" font-family="KaTeX_Main" font-size="8" transform="translate(378.99 116.18)"><tspan>0.91</tspan></text></g><g fill="none" stroke-linecap="round" stroke-linejoin="round" stroke-width="0" color="#000"><path d="M371.99 90.72h-7.5"/><text fill="#000" font-family="KaTeX_Main" font-size="8" transform="translate(378.99 93.32)"><tspan>0.91</tspan></text></g><g fill="none" stroke-linecap="round" stroke-linejoin="round" stroke-width="0" color="#000"><path d="M371.99 67.87h-7.5"/><text fill="#000" font-family="KaTeX_Main" font-size="8" transform="translate(378.99 70.47)"><tspan>0.92</tspan></text></g><g fill="none" stroke-linecap="round" stroke-linejoin="round" stroke-width="0" color="#000"><path d="M371.99 45.01h-7.5"/><text fill="#000" font-family="KaTeX_Main" font-size="8" transform="translate(378.99 47.61)"><tspan>0.92</tspan></text></g><path fill="none" d="M28 45.01V205M371.99 45.01H28" color="#000"/><text stroke-linecap="round" stroke-linejoin="round" stroke-width="0" color="#000" font-family="KaTeX_Main" font-size="10" text-anchor="middle" transform="rotate(-90 68.255 56.755)"><tspan font-weight="bold">AveragePathLength </tspan><tspan> / log</tspan><tspan dy="3" font-size="8">2</tspan><tspan dy="-3">(Size)</tspan></text><text stroke-linecap="round" stroke-linejoin="round" stroke-width="0" color="#000" font-family="KaTeX_Main" font-size="10" text-anchor="middle" transform="translate(199.99 238.25)"><tspan>Operations × 10</tspan><tspan dy="-5" font-size="8">5</tspan></text><text stroke-linecap="round" stroke-linejoin="round" color="#000" font-family="KaTeX_Main" font-size="8" transform="translate(110.4 10.11)"><tspan>AVLBottomUp</tspan></text><g fill="none" stroke="currentColor" stroke-linecap="round" stroke-linejoin="round" color="#000"><path stroke="#000" d="M74.9 7.51h29.9M28 171.19l.36-1.11.36-.61.37-1.19.36-1.32.36-1.05.36-.46.36-1.14.37-.27.36-1.16.36-.74.36-.91.37-1.12.36-.84.36-.7.36-.75.36-.68.37-.95.36-.77.36-.73.36-.89.36-.03.37-.65.36-.71.36-.65.36-.67.36-.39.37-1.02.36-.53.36-.57.36 3.03.36-.48.37-.3.36-.67.36-6.92.36-.58.37-.47.36-.51.36-.61.36-.65.36-.52.37-.52.36-.5.36-.45.36-.33.36-.45.37-.3.36-.53.36-.33.36-.51.36-.32.37-.49.36-.52.36-.32.36-.59.37-.53.36-.33.36-.47.36-.38.36-.34.37-.3.36-.37.36-.52.36-.47.36-.44.37-.4.36-.52.36-.11.36-.21.36-.41.37-.37.36-.63.36-.55.36-.56.37-.37.36-.28.36-.24.36-.25.36-.54.37-.27.36-.27.36-.36.36-.23.36-.16.37.02.36 4.05.36-.41.36-.33.36 3.58.37-.24.36-.16.36-.4.36-.22.36-.37.37-.36.36-.32.36-.28.36-.33.37-.24.36-.28.36-.39.36-.36.36-.29.37-.3.36-.22.36-.28.36-.3.36-.29.37-.41.36-.16.36-.34.36-.33.36-.3.37-.44.36-.38.36-.27.36-.18.37-.2.36-.37.36-.28.36-.24.36-.31.37-.2.36-.2.36-.2.36-.28.36-.27.37-.27.36-.22.36-.26.36-.29.36-.24.37-.3.36-.29.36-.22.36-.29.36-.26.37-.33.36-.22.36-.26.36-.27.37-.49.36.1.36-.18.36-.18.36-.12.37-.6.36-.36.36-.22.36-.29.36-.28.37-.13.36-.28.36-.16.36-.17.36-.21.37.28.36-.29.36-.13.36-.17.37-.2.36-.24.36-.23.36-.29.36-.19.37-.21.36-.13.36-.19.36-.11.36-.19.37-.21.36-.2.36-.25.36-.17.36-.16.37-.21.36-.17.36-.17.36-.17.36-.19.37-.07.36-.18.36-.26.36-.14.37-.3.36-.19.36-.16.36-.17.36-.16.37-.12.36-.23.36-.15.36-.21.36-.1.37-.2.36-.1.36-.1.36-.06.36-.23.37-.21.36-.13.36-.18.36-.06.37-.15.36-.11.36-.19.36-.17.36-.14.37-.16.36-.14.36-.15.36-.15.36-7.68.37-.2.36-.12.36-.11.36-.26.36-.01.37-.18.36-.18.36-.16.36-.17.37-.11.36-.08.36-.23.36-.13.36-.11.37-.12.36-.14.36-.16.36-.09.36-.13.37-.02.36-.13.36-.17.36-.13.36-.13.37-.15.36-.14.36-.22.36-.13.36-.06.37-.11.36-.14.36-.08.36-.16.37-.23.36-.02.36-.14.36-.19.36-.09.37-.16.36-.1.36-.18.36-.16.36-.14.37-.14.36-.17.36-.14.36-.13.36-.12.37-.11.36-.12.36-.08.36-.16.37-.08.36-.1.36-.17.36-.13.36-.13.37-.78.36-.05.36-.17.36-.14.36-.14.37-.11.36-.13.36-.12.36-.1.36-.16.37-.16.36-.18.36-.04.36-.12.36.09.37-.1.36-.1.36-.12.36-.12.37-.11.36-.1.36-.11.36-.09.36-.13.37-.51.36-.15.36-.1.36-.11.36-.1.37-.1.36-.08.36-.12.36-.13.36-.12.37-.1.36-.11.36-.12.36-.08.37-.11.36-.11.36-.05.36-.15.36-.13.37-.05.36-.15.36.06.36-.11.36-.12.37-.13.36-.11.36-.13.36-.09.36-.11.37-.09.36-.17.36-.38.36-.12.36-.04.37-.09.36-.1.36-.07.36.12.37 1.69.36-.07.36-.1.36-.06.36-.07.37-.06.36-.11.36-.09.36-.09.36-.05.37-.13.36-.1.36-.1.36-.12.36-.14.37-.11.36-.07.36-.11.36-.09.37 1.21.36-.08.36-.13.36-.13.36-.1.37-.05.36-.1.36-.12.36-.12.36-.05.37-.09.36-.1.36-.08.36-.01.36-.11h.37l.36-.1.36-.1.36-.1.37-.02.36-.11.36.02.36-.06.36-.1.37-.08.36-.11.36-.08.36-.11.36-.12.37-.05.36-.09.36-.04.36-.08.36-.07.37-.1.36-.09.36-.11.36-.11.36-.05.37-.07.36-.12.36-.1.36-.09.37-.12.36-.17.36-.09.36-.02.36-.12.37-.05.36-.13.36-.07.36-.12.36-.11.37-.1.36-.11.36-.07.36-.1.36-.09.37-.06.36-.1.36-.06.36-.06.37-.11.36-.09.36-.08.36-.11.36-.11.37-.05.36-.09.36-.09.36-.07.36-.03.37-.12.36-.16.36-.1.36-.06.36-.08.37-.1.36-.07.36-.08.36-.09.36-.1.37-.15.36-.08.36-.08.36-.09.37-.08.36-.06.36-.06.36-.05.36-.06.37-.07.36-.11.36-.07.36-.06.36-.06.37-.08.36-.06.36-.06.36-.09.36.03.37-.08.36-.07.36-.05.36-.03.37-.07.36-.1.36-.05.36-.09.36-.06.37-.05.36-.08.36-.1.36-.08.36.69.37-.05.36-.07.36-.07.36-.11.36-.09.37-.06.36-.03.36-.06.36-.1.37-.08.36-.04.36-.09.36-.03.36-.07.37-.03.36-.06.36-.09.36-.1.36-.08.37-.03.36-.06.36-.06.36-.09.36.01.37-.05.36-.07.36-.09.36-.05.36-.05.37-.06.36-.08.36-.13.36-.04.37-.07.36-.07.36-.1.36-.07.36-.08.37-.05.36-.08.36-.08.36-.06.36-.04.37-.12.36-.05.36-.07.36-.09.36-.06.37-.06.36-.06.36.23.36-.08.37-.06.36-.07.36-.05.36-.11.36-.06.37-.06.36-.06.36-.05.36-.09.36-.08.37-.05.36-.1.36-.1.36-.03.36-.04.37-.09.36-.07.36-.05.36-.04.36-.09.37-.04.36-.06.36-.19.36-.05.37-.07.36-.07.36-.02.36-.04.36-.05.37-.04.36-.06.36-.05.36-.07.36-.07.37-.09.36-.03.36-.08.36-.01.36-.05.37-.09.36-.04.36-.06.36-.07.37-.05.36-.06.36-.05.36-.06.36-.09.37-.05.36-.06.36-.04.36-.07.36-.21.37-.06.36-.05.36-.08.36-.04.36-.04.37-.05.36-.07.36-.04.36-.05.36-.06.37-.04.36-.07.36-.09.36-.01.37-.09.36-.06.36-.06.36-.01.36-.05.37-.05.36-.08.36-.06.36-.07.36-.04.37-.05.36-.03.36-.05.36-.05.36-.1.37-.03.36-.05.36-.06.36-.05.37-.06.36-.08.36-.04.36-.07.36-.02.37-.04.36-.09.36-.08.36-.04.36-.06.37-.06.36-.04.36.04.36-.05.36-.02.37-.06.36-.02.36-.08.36-.02.37-.05.36-.05.36-.08.36-.05.36-.03.37-.06.36-.07.36-.06.36-.06.36-.06.37-.04.36-.01.36-.08.36-.03.36-.03.37-.03.36-.03.36-.04.36-.05.36-.02.37-.08.36-.06.36-.04.36-.05.37-.04.36-.06.36-.06.36-.04.36-.05.37-.05.36-.06.36-.12.36-.05.36-.04.37-.05.36-.05.36-.01.36-.05.36-.04.37-.08.36-.05.36-.03.36-.07.37-.04.36-.02.36-.06.36-.04.36-.05.37-.04.36-.05.36-.04.36-.02.36-.03.37-.01.36-.06.36-.03.36-.04h.36l.37.27.36-.02.36-.04.36-.05.36-.02.37-.03.36-.04.36-.02.36-.07.37-.02.36-.04.36-.03.36-.05.36-.05.37-.08.36-.06.36.01.36-.06.36-.07.37-.03.36-.05.36-.05.36-.02.36-.04.37-.03.36-.04.36-.03.36-.03.37-.04.36-.04h.36l.36-.05.36-.05.37-.15.36-.08.36-.06.36-.07.36-.05.37-.05.36-.03.36-.04.36-.05.36-.03.37-.06.36-.05.36-.05.36-.04.36-.05.37-.05.36-.06.36-.05.36-.04.37-.05.36-.03.36-.04.36-.04.36-.04.37-.03.36-.02.36-.05.36-.04.36-.07.37-.05.36-.03.36-.03.36-.04.36-.01.37-.04.36-.04.36-.04.36-.06.37-.05.36-.03.36-.04.36-.01.36-.04.37-.05.36-.03.36-.07.36-.03.36-.05.37-.06.36-.04.36-.04.36-.04.36-.01.37-.03.36-.06.36-.02.36-.05.37-.03.36.04.36-.08.36-.04.36-.04.37-.04.36-.03.36-.05.36-.04.36-.02.37-.06.36-.03.36-.07.36-.03.36-.05.37-.14.36-.06.36-.03.36-.03.36-.04.37-.02.36-.04.36-.03.36-.06.37-.03.36-.03.36-.03.36-.03.36-.03.37-.03.36-.04.36-.04.36-.03.36-.03.37-.05.36-.04.36-.09.36-.05.36-.03.37-.04.36-.03.36-.04.36-.03.37-.05.36-.03.36-.04.36-.02.36-.05.37-.03.36-.04.36-.03.36-.04.36-.01.37-.05.36-.04h.36l.36-.03.36-.02.37-.04.36-.02.36-.04h.36l.36-.06.37-.04.36-.05.36-.04.36-.02.37-.04.36-.07.36-.05.36-.04.36-.04.37-.04.36-.03.36-.05.36-.05.36-.05.37-.02.36-.03.36-.03.36-.04.36-.04.37-.01.36-.03.36-.01.36-.03.37-.02.36-.03.36-.04.36-.05.36-.04.37-.03.36-.05.36-.04.36-.05.36-.14.37-.05.36-.03.36-.03.36-.03.36-.02.37-.02.36-.05.36-.02.36-.04.36-.03.37-.01.36-.03.36-.04.36-.03.37-.04.36.12.36-.04.36-.05.36.01.37-.02.36-.05.36.03.36-.04.36-.04.37-.05.36-.01.36-.04.36-.17.36-.03.37-.03.36-.04h.36l.36-.05.37-.03.36-.04.36-.06.36-.04.36-.03.37-.05.36-.02h.36l.36-.05.36-.02.37-.03.36-.05.36-.02.36-.01.36-.03.37-.04.36-.04.36-.04.36-.04.37-.03.36-.04.36-.03.36-.16.36-.01.37.01.36-.14.36-.05.36-.03.36-.06.37-.02.36-.03.36-.03.36-.03.36-.05h.37l.36-.02.36-.04.36-.02.36-.03.37-.04.36-.03.36-.04.36-.03.37-.03.36-.05.36-.03.36-.03h.36l.37-.03.36-.02.36-.04"/><use xlink:href="#c" transform="matrix(3.75 0 0 3.75 354.25 51.5)"/><use xlink:href="#c" transform="matrix(3.75 0 0 3.75 89.85 7.51)"/></g><text stroke-linecap="round" stroke-linejoin="round" color="#000" font-family="KaTeX_Main" font-size="8" transform="translate(110.4 25.11)"><tspan>AVLTopDown</tspan></text><g fill="none" stroke="currentColor" stroke-linecap="round" stroke-linejoin="round" color="#000"><path stroke="#29C3F6" stroke-dasharray="1.0,2.0" d="M74.9 22.51h29.9M28 171.19l.36-1.11.36-.61.37-1.19.36-1.32.36-1.05.36-.46.36-1.14.37-.27.36-1.16.36-.74.36-.91.37-1.12.36-.84.36-.7.36-.75.36-.68.37-.95.36-.77.36-.73.36-.89.36-.03.37-.65.36-.71.36-.65.36-.67.36-.39.37-1.02.36-.53.36-.57.36 3.03.36-.48.37-.3.36-.67.36-6.92.36-.58.37-.47.36-.51.36-.61.36-.65.36-.52.37-.52.36-.5.36-.45.36-.33.36-.45.37-.3.36-.53.36-.33.36-.51.36-.32.37.51.36.42.36.61.36.57.37.46.36.62.36.38.36.71.36.7.37.78.36.55.36 7.2.36.65.36.77.37.44.36.73.36.54.36.64.36.54.37.67.36.67.36.81.36.97.37.71.36.92.36.74.36.93.36.96.37 1.12.36.73.36.7.36 1.08.36.92.37.78.36.77.36.4.36.8.36 1.19.37 1.03.36.98.36 1.07.36.98.36 1.27.37 1.05.36.83.36.99.36.84.37.88.36 1.13.36.83.36-1.57.36-1.58.37-1.35.36-1.48.36-1.13.36-1.1.36-.88.37-.88.36-.94.36-.88.36-1.05.36-.33.37-1.31.36-.89.36-.67.36-.86.37-.61.36-.94.36-1 .36-.89.36-.75.37-.55.36-.83.36-.73.36-.72.36-.65.37-1 .36-.63.36-.65.36-.69.36-1.01.37-.57.36-.5.36-.2.36-.74.36-.67.37-.72.36-.56.36-.49.36-.51.37-.6.36-.55.36-.56.36-.39.36-.5.37-.43.36-.66.36-.77.36-.6.36-.44.37.65.36.44.36.61.36.75.36.72.37.71.36.35.36.73.36.58.37.59.36.59.36.78.36.59.36.54.37.99.36.67.36.65.36-1.65.36.68.37.58.36.4.36.61.36.59.36.83.37.81.36.76.36.73.36 1.02.36.81.37.68.36.89.36 1.14.36 1.05.37.56.36.74.36.81.36.68.36.96.37 1.09.36 1.03.36.86.36 4.76.36 1.05.37 1.1.36 1.11.36.67.36 1.03.36.58.37 1.23.36 1.05.36-1.4.36-1.27.37-1.2.36-1.41.36-1.08.36-1.14.36-1.41.37-1.4.36.14.36-.82.36-1.28.36-.92.37-.75.36-1.17.36-.78.36-.79.36-.96.37-.64.36-.78.36-.99.36-1.03.37-.49.36-.62.36-.77.36-.56.36-.67.37-.71.36-1.08.36-.73.36-.47.36-.66.37-.55.36-.49.36-.48.36-.67.36-.64.37-.35.36-.74.36-.59.36-.48.36-.36.37-.67.36-.35.36-.74.36-.82.37-.44.36-.41.36-.11.36-.25.36-.6.37.54.36.43.36.74.36.43.36.62.37.39.36.71.36.71.36.73.36.62.37.71.36 1.04.36.88.36.72.37-.25.36.57.36.69.36.68.36.57.37.7.36.52.36.67.36.68.36.83.37.57.36.74.36.99.36.63.36.79.37.53.36.81.36.4.36.92.36.66.37.8.36.72.36.95.36.74.37.93.36.78.36.97.36.96.36.86.37 4.54.36.8.36.84.36 1.13.36 1.24.37 1.38.36 1.22.36-1.43.36-1.21.36-1.03.37-1.23.36-1.35.36-.94.36-.73.37-.8.36-.88.36-.78.36-.85.36-.89.37-1.09.36-1.07.36-.74.36-1 .36-.97.37-.87.36-.68.36-.63.36-.73.36-.52.37-.87.36-.63.36-.42.36-.56.36-.63.37-1.17.36-.58.36-.35.36-.63.37-.53.36-.76.36-.82.36-.7.36-.51.37-.4.36-.52.36-.62.36-.55.36-.51.37-.65.36-.63.36-.55.36-.72.36-.46.37-.48.36-.45.36-.44.36-.59.37.6.36.45.36.61.36.65.36.54.37.73.36.55.36.6.36.49.36.92.37.75.36.64.36.78.36.6.36.69.37.6.36.75.36.53.36.73.37.82.36.85.36.53.36.56.36.69.37.76.36.81.36.8.36.69.36 1.2.37.77.36-.32.36.54.36.81.36.46.37.8.36.84.36 1.02.36 1 .36 1.04.37.81.36 1.17.36 1.02.36 1.9.37 1.09.36.98.36 1.36.36 1.02.36 1.65.37 1.27.36 1.14.36-1.54.36-1.29.36-1.19.37-1.29.36-1.2.36-.96.36-1.24.36-1.1.37-.99.36-.81.36-.86.36-.66.37-.98.36-1.04.36-.89.36-1.03.36-1.1.37-.82.36-.62.36-1 .36-.65.36-.5.37-1.08.36-.84.36-.88.36-.54.36-.84.37-.63.36-.71.36-.84.36-.67.36-.61.37-.6.36-.45.36-.68.36-.68.37-.4.36-.59.36-.55.36-.64.36-.52.37-.74.36-.66.36-.57.36-.52.36-3.04.37-.5.36-.43.36-.55.36-.46.36.51.37.39.36.76.36.78.36.62.37.48.36.7.36.57.36.41.36.62.37.72.36.68.36.72.36.74.36.59.37.68.36.9.36.61.36.89.36.9.37.58.36.85.36.69.36.58.37.85.36.6.36.94.36.86.36.85.37.87.36.84.36.89.36.75.36.97.37.82.36 1.11.36.59.36.99.36 1.62.37.89.36.73.36.96.36.65.36 1.07.37.91.36 1.08.36 1.3.36 1.06.37 1.48.36 1.14.36-1.22.36-1.32.36-1.21.37-1 .36-1.17.36-1.39.36-1.14.36-1.71.37-1.44.36-.99.36-.99.36-.96.36-.89.37-1.21.36-.93.36-.73.36-.95.37-.88.36-.95.36-.74.36-.71.36-.6.37-.83.36-.74.36-.63.36-1.03.36-.69.37-.55.36-.74.36-.74.36-.53.36-.69.37-.27.36-.54.36-.57.36-.48.36-.38.37-.86.36-.7.36-.8.36-.43.37-.65.36-.46.36-.43.36-.36.36-.61.37-.52.36-.05.36-.43.36-.63.36.54.37.61.36.53.36.45.36.49.36.82.37.42.36.72.36.58.36.69.37.7.36.6.36.58.36.14.36.82.37.45.36.92.36.77.36.85.36.49.37.59.36.74.36.66.36.82.36.79.37.91.36.74.36.82.36.8.36.6.37.61.36.7.36.62.36 1.12.37.84.36.75.36 1.01.36 1.04.36.89.37.97.36.95.36.64.36 1.05.36.89.37 1.11.36 1.1.36.96.36 1.25.36 1.1.37 1.25.36-1.51.36-1.21.36-1.26.37-1.2.36-1.18.36-1.14.36-1.15.36-1.1.37-.97.36-1 .36-1.08.36-.93.36-1.05.37-.86.36-.58.36-.94.36-.46.36-.53.37-.64.36-.84.36-.88.36-1.04.37-.89.36-.47.36-.59.36-.14.36-1.07.37-.64.36-.7.36-1.24.36-.83.36-.93.37-.32.36-.47.36-.53.36-.56.36-.68.37-.51.36-.5.36-.32.36-.58.36-.37.37-.61.36-.41.36-.48.36-.58.37-.54.36-.52.36-.38.36-.33.36.59.37.53.36.47.36.48.36.7.36.54.37.81.36.55.36.61.36.47.36.54.37.65.36.7.36.77.36.7.37.9.36.86.36.8.36.64.36.27.37.93.36.49.36.6.36.82.36.54.37.56.36.9.36.58.36.98.36.74.37.68.36.84.36.97.36.8.36.83.37.73.36.79.36.92.36.88.37.87.36.38.36.85.36 1.34.36.84.37 1.07.36 1.19.36.79.36.95.36 1.36.37 1.82.36-1.62.36-1.42.36-1.63.36-1.15.37-.97.36-1.24.36-1.06.36-.99.37-1.16.36-.56.36-1.02.36-.94.36-.98.37-.74.36-.88.36-.71.36-.77.36-.68.37-.55.36-.87.36-.64.36-.77.36-.72.37-1.18.36-.62.36-.64.36-1.37.36.01.37-.6.36-.78.36-.71.36-.65.37-.51.36-.67.36-.82.36-.63.36-.61.37-1.02.36-.52.36-.62.36-.77.36-.47.37-.56.36-.47.36-.66.36-.55.36-.38.37-.56.36-.59.36-.38.36.6.37.61.36.7.36.39.36.56.36.48.37.51.36.53.36.85.36.6.36.6.37.75.36.78.36.57.36.5.36 1.26.37.83.36.6.36.58.36.84.37.77.36.8.36.58.36 1.16.36.58.37.82.36 1.18.36.57.36.91.36.86.37.84.36 1.01.36.69.36.81.36.93.37.64.36.73.36.94.36.93.36.7.37.02.36 1.1.36.86.36 1.04.37 1.2.36 1.03.36 1.16.36 1.1.36 1.22.37 1.12.36-1.3.36-1.66.36-.95.36-1.17.37-1.02.36-1.03.36-1.23.36-.99.36-.97.37-1.42.36-1.16.36-1.03.36-1.04.37-.94.36-1.02.36-1.02.36-.98.36-.74.37-.97.36-.77.36-.68.36-1.06.36-1.57.37-1.12.36-.82.36-.97.36-.7.36-.42.37-.48.36-.63.36-.59.36-.5.36.09.37-.68.36-.69.36-.56.36-.47.37-.61.36-.64.36-.76.36-.44.36-.41.37-.64.36-.69.36-.42.36-.49.36-.67.37-.66.36-.48.36-.67.36.6.36.41.37.43.36.53.36.63.36.58.37.75.36.59.36.59.36.58.36.62.37.64.36.78.36.93.36.53.36.72.37 1.06.36.53.36.87.36.57.36.5.37 1.43.36.58.36.84.36.72.36.65.37.82.36.57.36.86.36.84.37.94.36.59.36 1.1.36.69.36.79.37.75.36.66.36.89.36.73.36.94.37.97.36 1.08.36.55.36.76.36-.28.37 1.06.36 1.24.36.89.36.89.37 1.39.36-1.45.36-1.26.36-.92.36-1.29.37-1.15.36-.95.36-1.08.36-1.24.36-1.11.37-.88.36 1.69.36-1.14.36-.58.36-.52.37-.68.36-1.11.36-1.29.36-.78.37-.77.36-.81.36-.79.36-.79.36-.88.37-.64.36-1.01.36-.09.36-.68.36-.61.37-.53.36-.62.36-.37.36-.78.36-.69.37-.67.36-.53.36-.54.36-.63.36-.55.37-.51.36-.62.36-.57.36-.21.37-.52.36-.66.36-.47.36-.49.36-.48.37-.56.36-.52.36-.39"/><use xlink:href="#d" color="#29C3F6" transform="matrix(3.75 0 0 3.75 67.83 169.44)"/><use xlink:href="#d" color="#29C3F6" transform="matrix(3.75 0 0 3.75 89.85 22.51)"/></g><text stroke-linecap="round" stroke-linejoin="round" color="#000" font-family="KaTeX_Main" font-size="8" transform="translate(241.1 10.11)"><tspan>RedBlackBottomUp</tspan></text><g fill="none" stroke="currentColor" stroke-linecap="round" stroke-linejoin="round" color="#000"><path stroke="#F44336" d="M205.6 7.51h29.9M28 160.81l.36-1.4.36-1.11.37-1.1.36-1.17.36-1.54.36-1.04.36-2.65.37-.96.36-.72.36-.87.36-.84.37-.81.36-.67.36-.9.36-4.41.36-.65.37-.78.36-1.25.36-.55.36-.71.36-.79.37-.82.36-1.01.36-.74.36-.7.36-.65.37-.56.36-.54.36-.68.36-.69.36-.72.37-.59.36-.66.36-.54.36-.56.37-.45.36-.71.36-.42.36-.45.36-.43.37-.47.36-.54.36-.51.36-.37.36-.73.37-.73.36-.46.36-.5.36-1.21.36-.55.37-1.64.36-.07.36.04.36-1.95.37.11.36.16.36.03.36.51.36.53.37-.21.36.05.36-.28.36.12.36-2.13.37.33.36.27.36-1.24.36.08.36.3.37.1.36-.96.36-1.26.36-1.93.37.39.36.33.36 2.31.36.91.36.06.37-1.46.36.51.36-.37.36.28.36 2.83.37.29.36.68.36 2.35.36 1.15.36 1.3.37 1.46.36 1.04.36.57.36 2.15.36.32.37.83.36-2.26.36.75.36 1.2.37.72.36 1.24.36.96.36-2.24.36-2.14.37-.99.36-1.69.36-1.23.36-1.86.36-1.43.37-1.14.36-1.34.36-1.05.36-1.37.36-1.06.37-.95.36-1.24.36-.56.36-1.13.37-.75.36-.41.36 1.03.36-.91.36-.78.37-.75.36-.33.36-.55.36-.55.36-.89.37-.12.36-.57.36-.42.36 1.92.36-.35.37.17.36-.45.36.28.36-.51.36-.45.37-.17.36-.21.36-.25.36-.02.37.06.36.46.36-.32.36-.32.36-.1.37 1.54.36-.05.36-.48.36.16.36-.34.37.27.36-.5.36-1.31.36 1.98.36.34.37-.22.36-.02.36.22.36.33.37.5.36.35.36.07.36.35.36.34.37.55.36.67.36.19.36.4.36.19.37.52.36.06.36.37.36-.09.36.37.37.76.36.2.36.72.36.6.36.73.37.01.36 1.08.36.38.36 3.87.37 1.06.36 1.57.36.52.36.73.36.45.37.51.36.2.36 1.45.36 2.22.36 1.28.37 1.15.36 1.16.36 1.17.36 1.26.36 3.14.37 1.84.36.77.36-2.18.36-2.25.37-2.06.36-1.76.36-1.67.36-1.75.36-1.54.37-1.36.36-1.21.36-1.22.36-1.32.36-1.11.37-1.18.36-1.02.36-1.06.36-.7.36-1.11.37-.44.36-.86.36-.95.36-.92.37-.48.36-.64.36-.59.36-.6.36-.53.37-.66.36-.57.36-.08.36-.55.36-.33.37-.51.36.04.36-.36.36-.07.36-.72.37-.17.36.06.36.86.36-.12.36-.35.37-.37.36-.3.36.56.36-.08.37-.23.36-.67.36-.32.36-.25.36-.16.37-.07.36-.24.36.7.36.42.36.71.37.4.36-.54.36-2.46.36.28.36.02.37.77.36.49.36.28.36.15.37.15.36-.26.36.53.36 1 .36.71.37.68.36.61.36-1.85.36.8.36.85.37.65.36.69.36-.2.36.43.36.48.37-.25.36 1.32.36 3.31.36.79.36 1.01.37.79.36 1.9.36 1.1.36 1.11.37 1.56.36.62.36.95.36-.62.36.27.37 1.51.36.74.36 1.39.36-2.02.36-.5.37.62.36 1.19.36-2 .36-1.93.36-1.91.37-1.58.36-1.49.36-1.48.36-1.74.37-1.35.36-1.29.36-.61.36-1.32.36-1.23.37-.58.36-1.4.36-1.09.36-1.13.36-.71.37 1.44.36-1.04.36-.73.36-.73.36-.93.37-.79.36-.65.36-.55.36-.63.36-.21.37-.58.36.04.36-.27.36-.58.37-.5.36-.46.36-.31.36-.61.36-.22.37-.22.36-.42.36 1.21.36-.23.36-.3.37-.22.36-.36.36.08.36 2.5.36-.51.37-.3.36.23.36-.19.36-.57.37.12.36.05.36.58.36 1.01.36.3.37.81.36.6.36.18.36.12.36-.39.37.49.36.23.36.15.36.78.36.49.37.6.36 1.05.36-.08.36.24.37.18.36.87.36.1.36 1.16.36-10.23.37 1.02.36.33.36 1.32.36-.21.36 1.15.37 1.05.36.43.36.39.36.87.36 1.74.37.59.36.44.36.57.36 2.43.36.06.37.95.36 1.39.36.91.36 2.38.37 1.7.36 3.39.36 2.6.36.3.36 2.3.37.97.36 1.37.36-2.3.36-2 .36-2.16.37-1.64.36-1.53.36-1.73.36-1.36.36-1.3.37-1.47.36-.97.36-1.07.36-1.27.37-1.55.36-1.05.36-.89.36-.6.36-.85.37-.71.36-.77.36-.88.36-.56.36-.63.37-.55.36-.76.36-.65.36-.29.36-.36.37-.58.36-.28.36-.72.36-.75.36-.53.37-.68.36-.58.36-.61.36-.57.37-.18.36-.21.36.11.36.27.36-.46.37-.37.36-.18.36-.31.36-.39.36-.2.37-.2.36-.24.36-.29.36-.23.36.19.37.07.36.62.36 10.4.36.1.37-.15.36.67.36.39.36-.42.36.15.37-1.26.36.32.36-1.13.36.67.36.61.37.47.36.65.36.19.36.11.36.98.37.29.36.64.36.49.36-1 .37.54.36.3.36 1.3.36.56.36 1.19.37.38.36-1.45.36.92.36.88.36.03.37 1.95.36.87.36 1.09.36 1.15.36 2.07.37.39.36-9.18.36 1.6.36 1.09.36.62.37.59.36-2.84.36.92.36.95.37 1.54.36 3.39.36-1.56.36-1.62.36-2 .37-2.15.36-1.45.36-1.96.36-1.37.36-1.25.37-1.58.36-1 .36-1.28.36-.98.36-1.15.37-.86.36-.88.36-.79.36-.91.37-1 .36-.57.36-.57.36-.67.36-.92.37-.77.36-.66.36-.85.36-.56.36-.12.37 2.16.36-.51.36-.55.36-.42.36-.43.37-.37.36-.56.36-.29.36-.3.36-.06.37-.48.36-.51.36-.09h.36l.37-.25.36-.13.36-.28.36-.15.36.7.37 1.25.36-.35.36-.31.36-.22.36.43.37.38.36-.12.36-.19.36.99.36 2.04.37.72.36.5.36.31.36.21.37.71.36.21.36.18.36.47.36-.39.37 1.08.36.46.36.57.36.24.36-2.32.37.66.36.86.36.79.36.72.36.97.37.46.36-8.1.36.33.36.95.36.84.37 1.02.36 1.9.36.92.36.7.37.85.36.67.36.69.36.84.36.69.37 1.19.36.93.36 1.34.36 3.66.36 2.22.37 1.88.36 1.59.36 2.22.36 1.56.36 1.77.37 1.82.36-2.48.36-2.07.36-1.65.37-1.52.36-1.45.36-1.32.36-1.34.36-1.43.37-1.23.36-1.25.36-1 .36-.99.36-1.18.37-1.06.36-1.03.36-.64.36-1.23.36-.91.37-.81.36-.83.36-.78.36-.53.37-.93.36-.54.36-.91.36-.81.36-.8.37-.34.36-.42.36-.42.36-.48.36-.35.37-.37.36-.17.36-.59.36-.42.36-.29.37-.18.36-.67.36-.41.36-.21.36.28.37-.15.36-.38.36.21.36-.24.37-.26.36-.14.36-.25.36-.07.36.14.37.35.36 9.4.36-.11.36.23.36-.27.37.52.36-.13.36.22.36-8.35.36.35.37-.02.36.09.36.15.36-1.59.37.57.36-.05.36.29.36 1.1.36 1.61.37-.15.36.36.36.06.36.44.36 1.12.37.89.36.83.36 1.3.36.52.36 3.68.37.53.36.36.36.78.36 1.09.36.85.37 1.77.36 1.79.36.96.36 1.32.37.64.36 3.46.36.89.36 1.12.36 1.32.37 1.68.36 1.46.36 1.36.36.92.36 1.72.37 14.48.36-2 .36-1.87.36-1.97.36-1.63.37-1.83.36-1.57.36-1.48.36-1.28.37-1.58.36-1.2.36-1.15.36-1.16.36-1.21.37-1.23.36-1.01.36-.98.36-.79.36-.93.37-.78.36-.83.36-1.04.36-.82.36-.67.37-.54.36-.67.36-.66.36-.74.36-.67.37-.34.36-.43.36-.61.36-.58.37-.47.36-.26.36-.49.36-.29.36-.39.37-.3.36-.35.36-.32.36-.39.36-.01.37-.27.36-.51.36-.37.36-.33.36.05.37-.02.36.03.36-.44.36-.11.37.06.36.23.36.45.36 1.98.36.4.37.67.36.47.36.43.36.96.36.18.37.43.36.76.36.42.36.44.36-.04.37.6.36-1.37.36.62.36.32.37.06.36.13.36.54.36 1.19.36 1.06.37.73.36.86.36 1.19.36.7.36.85.37-.17.36.75.36 9.93.36-2.82.36-.58.37 1.17.36 3.63.36.96.36 1.21.36 2.94.37 1.26.36-.09.36 1.27.36 1.32.37-8.95.36.79.36-2.08.36.88.36 1.02.37 1.45.36-2.22.36-2.38.36-1.79.36-1.74.37-1.53.36-1.16.36-1.05.36-1.03.36-1.43.37-1.57.36-1.3.36-1.08.36-.79.37-1.13.36-.99.36-1.1.36-.47.36-.67.37-.86.36-.78.36-.64.36-.57.36-.57.37-.77.36-.73.36-.68.36-.66.36-.64.37-.22.36-.57.36-.45.36-.56.36-.63.37-.71.36-.62.36-.38.36 1 .37-.37.36-.56.36-.45.36-.28.36-.3.37-.46.36-.5.36-.27.36.19.36-.58.37-.19.36-.31.36-.09.36.15.36-.13.37-.09.36.19.36.54.36.19.37.77.36-8.76.36.7.36-.25.36.59.37.71.36.57.36.61.36.68.36.23.37 1.32.36 2.93.36.39.36.28.36.71.37.35.36 1.61.36-1.33.36.81.36.61.37.87.36 1.23.36 1.08.36.77.37.57.36.57.36 2.29.36-.02.36.28.37 1.24.36 1.69.36.13.36 1.37.36.56.37 2.1.36 1.23.36.94.36 10.76.36 1.13.37 1.13.36-36.68.36 1.16.36 1.39.37 1.81.36-1.83.36-1.78.36-1.67.36-1.61.37-.88.36-1.61.36-1.34.36-1.35.36-1.12.37-1.12.36-.93.36-1.22.36-.63.36-1.08.37-.84.36-.79.36-.77.36-1.03.37-.64.36-.66.36-.88.36-.88.36-.23.37-.37.36.05.36-.69.36-.34.36-.33.37-.68.36-.42.36-.45.36-.43.36.01.37-.4.36-.24.36-.13.36-.18.36.34.37-.3.36-.01.36-.63.36-.21.37.03.36-.55.36.77.36-.51.36-.52.37.51.36-.44.36-.46"/><use xlink:href="#e" color="#F44336" transform="matrix(3.75 0 0 3.75 125.4 104.49)"/><use xlink:href="#e" color="#F44336" transform="matrix(3.75 0 0 3.75 220.55 7.51)"/></g><text stroke-linecap="round" stroke-linejoin="round" color="#000" font-family="KaTeX_Main" font-size="8" transform="translate(241.1 25.11)"><tspan>RedBlackTopDown</tspan></text><g fill="none" stroke="currentColor" stroke-linecap="round" stroke-linejoin="round" color="#000"><path stroke="#3B75EA" stroke-dasharray="1.0,2.0" d="M205.6 22.51h29.9M28 151.28l.36-.69.36.76.37 5.8.36-1.43.36-.98.36-1.25.36-.76.37-1.34.36-.4.36-.91.36-.69.37-.99.36-.85.36-.98.36-1.1.36.38.37-.38.36-.34.36-.65.36-1.01.36-1.14.37-.62.36-.3.36-.64.36-.45.36-.94.37-.74.36-.48.36-.31.36-.86.36-.54.37-.6.36-.49.36-.5.36-.65.37-.52.36-.74.36-.49.36-.4.36-.56.37-.54.36.56.36-.66.36-.48.36.11.37-.52.36-.6.36-.41.36-.17.36-.75.37-.43.36-.83.36-.12.36-.29.37.09.36-3.79.36-.03.36.06.36-2.5.37-.59.36-.5.36-.53.36.76.36-.07.37 4.33.36-.24.36.12.36.94.36.02.37.36.36.68.36-.08.36-16.48.37 1.01.36.93.36.77.36 1.47.36.34.37-.31.36-.65.36.85.36-.7.36 1.34.37.34.36.79.36.91.36.42.36.54.37 2.38.36 1.6.36-1.16.36 2.12.36 2.16.37.63.36-.44.36.12.36 18.09.37 2.69.36-3.05.36.4.36 4.34.36-.9.37-1.86.36 1.68.36-1.7.36-1.47.36-1.41.37-1.29.36-1.33.36-1.11.36-.92.36-.83.37-.31.36-.93.36-.73.36-.9.37-.84.36-.69.36-.71.36-.76.36-.73.37-.92.36-.28.36-.77.36-.52.36-.79.37-.17.36-.44.36-.78.36-.31.36-.34.37-.23.36-.34.36-.81.36-.49.36-.58.37-.41.36-.56h.36l.36-.38.37-.38.36-.52.36-.32.36-.21.36-.13.37-.68.36-.41.36-.11.36-1.09.36-.05.37-.69.36-.14.36-.16.36-.67.36.32.37-.54.36.21.36 1.42.36.16.37-1.2.36.7.36-.08.36.54.36.06.37-.2.36.71.36.59.36-4.41.36.55.37-1.63.36 1.09.36 1.5.36-.25.36-1.8.37 1.32.36.66.36.02.36.57.36 1.76.37.93.36.29.36.84.36-4.13.37 2.35.36 6.02.36-.05.36 1.22.36.46.37-19.59.36.39.36.64.36 8.54.36 3.83.37-.16.36 2.7.36-1.7.36-1.14.36.37.37 6.86.36.36.36 17.39.36-1.58.37-1.31.36-1.16.36-1.25.36-2.01.36-1.32.37-1.45.36-1.19.36-1.18.36-.89.36-.96.37.16.36-.39.36-1.03.36-.7.36.13.37-.56.36-.53.36-.95.36-.58.37-.5.36.65.36-.54.36-.73.36 1.82.37-.44.36-.4.36-.44.36-.53.36-.63.37-.68.36-.1.36-.28.36-.36.36-.43.37-.42.36-.48.36-.11.36-.16.36-.48.37.49.36-.31.36-.7.36-.39.37-.42.36-.53.36.54.36-.3.36-1.68.37.16.36-.56.36.2.36.08.36.39.37.12.36 4.73.36.12.36.04.36.19.37.15.36.49.36.37.36-.26.37-.05.36.09.36-6.07.36 1.7.36.76.37 3.02.36-.08.36 1.25.36-4.07.36-6.55.37-.14.36 1.02.36-.04.36.52.36.29.37.32.36 1 .36 1.43.36.6.36 4.07.37.73.36 1.78.36.19.36-1.41.37.5.36 1.44.36 1.66.36 4.3.36 1.09.37.65.36-3.87.36 1.9.36.18.36 3.32.37 2.62.36.85.36 13.59.36-.67.36-1.84.37-1.26.36-1.87.36-1.67.36-.94.37-1.06.36-1.14.36-.69.36-.98.36-1 .37-1.07.36-.85.36-1.04.36-.63.36-.99.37-.75.36-.64.36.18.36-.65.36-.6.37-.5.36-.56.36-.71.36-.59.36-.36.37-.67.36-.37.36-.39.36-.56.37.95.36.11.36-.46.36-.64.36-.35.37-1.27.36-.23.36-.53.36-.66.36-.26.37-.49.36-.36.36-.59.36-.3.36.11.37 1.07.36-.43.36-.07.36-.3h.37l.36-.07.36-.6.36-.6.36-.39.37.46.36-.58.36.47.36-29.34.36.05.37-1.67.36 1.11.36-18.96.36 19.57.36-1.94.37.13.36 1.25.36-.8.36 1.52.37-.06.36 5.91.36.17.36.69.36.89.37.88.36 1.05.36.59.36 1.83.36-3.74.37.1.36.79.36 7.54.36 1.43.36.2.37.63.36.79.36 1 .36 1.65.36.24.37 2.33.36 3.18.36-5.07.36-.83.37.22.36 1.06.36-6.85.36 1.17.36.45.37 2.96.36 1.35.36 35.05.36-1.47.36-1.29.37-1.68.36-1.46.36-1.5.36-1.39.36-1.07.37-1.1.36-1.06.36-.98.36-.72.37-1.01.36-1.4.36-1.03.36-1.01.36-.85.37.09.36-1.02.36-1.11.36-.74.36-.53.37-.69.36-.88.36-.66.36-.82.36-.38.37-.49.36-.61.36-.48.36-.44.36-.45.37-.21.36-.34.36-.1.36-.17.37-.44.36-.33.36-.56.36-.27.36-.42.37.09.36-.59.36-.61.36 1.76.36-.32.37-.21.36-.02.36-.31.36-.41.36-7.21.37-.38.36.31.36-1.15.36-.06.37-2.62.36.15.36-.71.36-.18.36.2.37.95.36-1.18.36-.19.36-.02.36-.52.37-17.88.36.48.36-.05.36 2.6.36 1.57.37.31.36.29.36 1.99.36.77.37 2.13.36 6.78.36-.16.36 2.22.36.37.37 1.13.36 1.7.36 1.6.36.8.36-.44.37 3.79.36 5.09.36 1.87.36.66.36-5.05.37 1.52.36 1.27.36-4.66.36 3.28.36 9.32.37 1.22.36-1.34.36-7.37.36 1.05.37-.07.36 17.81.36 3.28.36-.83.36-1.62.37-1.76.36-1.24.36-1.02.36-1.84.36-.64.37-.84.36-1.02.36-1.15.36-1.23.36-1.04.37-1.18.36-1.16.36-.83.36-.93.37-.98.36-.78.36-.54.36-.88.36-.8.37-.48.36-.85.36-.15.36-.57.36-.53.37-.43.36-.22.36-.51.36-.57.36.38.37-.38.36-.48.36-.31.36-.58.36-.26.37-.5.36-.11.36-.25.36-.44.37-.4.36-5.59.36.13.36-.45.36-.49.37-.35.36.25.36-.19.36-.59.36.39.37-.21.36.23.36.08.36-3.18.36-.04.37-.14.36-.9.36.54.36-.52.37.59.36.74.36.44.36.54.36.19.37-3.55.36.24.36-.3.36-.36.36.69.37.61.36.66.36.93.36.97.36 1.65.37.47.36 1.58.36-.62.36-1.03.36.17.37.73.36.49.36 14.96.36.37.37 1.92.36.45.36 1.12.36 1.1.36 1.14.37-18.74.36 1.5.36 6.89.36 5.93.36 1.33.37.47.36 1.41.36 1.7.36 7.71.36 1.81.37 3.05.36.9.36-.44.36-1.81.37-1.16.36-1.13.36-1.1.36-1.08.36-1.42.37-1.3.36-1.25.36-1.48.36-.83.36-.76.37-.7.36-.55.36-.88.36-.53.36-.83.37-.17.36-.53.36-.71.36-.57.37-.29.36-.79.36-.7.36-1.02.36-.38.37-.32.36-.62.36-.2.36-.56.36-.52.37.03h.36l.36-.2.36-.53.36-.66.37-.45.36-.45.36-.72.36-.32.36-.47.37-.53.36-.24.36-.4.36-.11.37-.46.36-.51.36-.33.36-.72.36-2.47.37-.04.36.42.36-.71.36.3.36-.03.37-1.42.36.9.36 2.34.36.65.36.65.37.54.36 6.15.36-6.47.36.66.37-1.77.36 3.26.36.51.36 3.81.36.13.37.62.36-.33.36.7.36.73.36 1.01.37-.12.36-6.44.36.47.36.34.36.87.37 1.2.36-.42.36.67.36 1.58.36-2.95.37 1.34.36-1.85.36.55.36.84.37.56.36-1.18.36.42.36 2.66.36-4.06.37 2.35.36 1.52.36 3.12.36.29.36 20.33.37 1.54.36 5.82.36-.75.36-.38.36-1.4.37.83.36-.84.36-1.52.36-1.3.37-1.27.36-.35.36-.98.36-.99.36-.92.37-.63.36-.35.36-1.14.36-.27.36-.97.37-.66.36-.86.36-.97.36-.86.36-.71.37-.77.36-.38.36-1.02.36-.54.36-.49.37-.5.36-.59.36-.45.36-.49.37-.41.36-.53.36-.12.36-.31.36.03.37-.52.36-.42.36-.51.36-.67.36-.48.37-1.49.36-.59.36-.51.36-.23.36-.37.37.5.36-.11.36-.32.36-.46.37-6.95.36.23.36 5.98.36.5.36-.42.37.99.36.58.36.13.36 3.22.36-1.15.37.18.36.14.36-.04.36.16.36.67.37.45.36-.17.36.17.36.49.37.36.36-9.21.36 2.55.36.05.36.99.37-7.91.36-2.21.36.02.36-1.72.36 1.05.37 1.38.36 1.66.36 1.15.36.58.36.91.37.8.36 2.92.36 1.95.36-1.27.36.96.37.21.36 8.9.36.75.36.49.37 2.11.36 2.77.36 3.4.36.96.36.52.37 1.09.36 16.31.36-1.27.36-.87.36-1.67.37-1.23.36-.92.36-1.44.36-1.58.36-1.31.37-1.21.36-1.28.36-1.15.36-.99.37-.88.36-.85.36.13.36-.65.36-.31.37-.84.36-.39.36-.58.36-.93.36.33.37-.68.36-.81.36-.56.36-.6.36-.79.37-.51.36-.61.36-.18.36.19.36-.26.37-.3.36-.87.36-.47.36-.4.37-.2.36-.48.36-.57.36-.49.36-.51.37-.37.36-.51.36-.79.36-.31.36-.45.37.04.36-2.08.36-.55.36.3.36-.53.37-.04.36-1.22.36-.66.36.13.37.63.36-1.5.36-13.47.36 13.93.36-2.56.37.34.36.58.36-.28.36 1.42.36.87.37.78.36-.36.36-.28.36-.18.36.71.37-8.22.36 1.55.36 1.04.36-3.15.36 1.79.37.43.36 1.17.36-.58.36 1.77.37 1.52.36 10.43.36.8.36.82.36.05.37-.04.36.53.36-6.09.36 2.12.36.95.37-.44.36 2.2.36.46.36 2.72.36 4.39.37 2.25.36.98.36-3.59.36 1.78.37-.24.36 5.93.36-.89.36-1.06.36-3.8.37-.56.36-.85.36-.88.36-.5.36-1.33.37 2.93.36-.84.36-1.28.36-1.19.36.01.37-.83.36-.97.36-.95.36-.79.37-1.07.36-.77.36-.64.36-.56.36-.39.37.84.36-.26.36-.62.36-.73.36-.51.37-.71.36-.6.36-.55.36-.39.36-.27.37-.44.36-.39.36-.35.36-.31.36-.47.37-.17.36-.36.36 1.01.36-.28.37-.4.36-.36.36-.29.36-.18.36-.38.37-.2.36-.46.36-.47"/><use xlink:href="#f" color="#3B75EA" transform="matrix(3.75 0 0 3.75 182.98 121.83)"/><use xlink:href="#f" color="#3B75EA" transform="matrix(3.75 0 0 3.75 220.55 22.51)"/></g><path fill="none" d="M28 45.01V205M371.99 45.01H28" color="#000"/></svg>