<svg xmlns="http://www.w3.org/2000/svg" xmlns:xlink="http://www.w3.org/1999/xlink" viewBox="0 0 400 250"><path fill="none" d="M0 0h400v250H0z"/><defs><path id="d" stroke="currentColor" stroke-width=".267" d="M-1-1h2v2h-2z"/><path id="g" fill="currentColor" stroke="currentColor" stroke-width=".267" d="M-1-1h2v2h-2z"/><path id="b" stroke="currentColor" stroke-width=".267" d="m0-1.33-1.33 2h2.66z"/><path id="f" stroke="currentColor" stroke-width=".267" d="M0 1.33 1.265.411.782-1.067l-1.564-.009-.483 1.487z"/><use xlink:href="#b" id="c" stroke="currentColor" transform="rotate(180)"/><use xlink:href="#d" id="e" stroke="currentColor" transform="rotate(45)"/><circle id="a" cx="0" cy="0" r="1" stroke="currentColor" stroke-width=".267"/></defs><path fill="none" stroke="#000" stroke-linecap="round" stroke-linejoin="round" stroke-width=".1" d="M35.48 205V45.01" class="gridline" color="#000"/><g fill="none" stroke="none" stroke-linecap="round" stroke-linejoin="round" stroke-width="0" color="#000"><path d="M35.48 205v-7.5m0-152.49v7.5"/><text fill="#000" font-family="KaTeX_Main" font-size="10" text-anchor="middle" transform="translate(35.48 215.75)"><tspan> 1</tspan></text></g><path fill="none" stroke="#000" stroke-linecap="round" stroke-linejoin="round" stroke-width=".1" d="M72.87 205V45.01" class="gridline" color="#000"/><g fill="none" stroke="none" stroke-linecap="round" stroke-linejoin="round" stroke-width="0" color="#000"><path d="M72.87 205v-7.5m0-152.49v7.5"/><text fill="#000" font-family="KaTeX_Main" font-size="10" text-anchor="middle" transform="translate(72.87 215.75)"><tspan> 2</tspan></text></g><path fill="none" stroke="#000" stroke-linecap="round" stroke-linejoin="round" stroke-width=".1" d="M110.26 205V45.01" class="gridline" color="#000"/><g fill="none" stroke="none" stroke-linecap="round" stroke-linejoin="round" stroke-width="0" color="#000"><path d="M110.26 205v-7.5m0-152.49v7.5"/><text fill="#000" font-family="KaTeX_Main" font-size="10" text-anchor="middle" transform="translate(110.26 215.75)"><tspan> 3</tspan></text></g><path fill="none" stroke="#000" stroke-linecap="round" stroke-linejoin="round" stroke-width=".1" d="M147.65 205V45.01" class="gridline" color="#000"/><g fill="none" stroke="none" stroke-linecap="round" stroke-linejoin="round" stroke-width="0" color="#000"><path d="M147.65 205v-7.5m0-152.49v7.5"/><text fill="#000" font-family="KaTeX_Main" font-size="10" text-anchor="middle" transform="translate(147.65 215.75)"><tspan> 4</tspan></text></g><path fill="none" stroke="#000" stroke-linecap="round" stroke-linejoin="round" stroke-width=".1" d="M185.04 205V45.01" class="gridline" color="#000"/><g fill="none" stroke="none" stroke-linecap="round" stroke-linejoin="round" stroke-width="0" color="#000"><path d="M185.04 205v-7.5m0-152.49v7.5"/><text fill="#000" font-family="KaTeX_Main" font-size="10" text-anchor="middle" transform="translate(185.04 215.75)"><tspan> 5</tspan></text></g><path fill="none" stroke="#000" stroke-linecap="round" stroke-linejoin="round" stroke-width=".1" d="M222.43 205V45.01" class="gridline" color="#000"/><g fill="none" stroke="none" stroke-linecap="round" stroke-linejoin="round" stroke-width="0" color="#000"><path d="M222.43 205v-7.5m0-152.49v7.5"/><text fill="#000" font-family="KaTeX_Main" font-size="10" text-anchor="middle" transform="translate(222.43 215.75)"><tspan> 6</tspan></text></g><path fill="none" stroke="#000" stroke-linecap="round" stroke-linejoin="round" stroke-width=".1" d="M259.82 205V45.01" class="gridline" color="#000"/><g fill="none" stroke="none" stroke-linecap="round" stroke-linejoin="round" stroke-width="0" color="#000"><path d="M259.82 205v-7.5m0-152.49v7.5"/><text fill="#000" font-family="KaTeX_Main" font-size="10" text-anchor="middle" transform="translate(259.82 215.75)"><tspan> 7</tspan></text></g><path fill="none" stroke="#000" stroke-linecap="round" stroke-linejoin="round" stroke-width=".1" d="M297.21 205V45.01" class="gridline" color="#000"/><g fill="none" stroke="none" stroke-linecap="round" stroke-linejoin="round" stroke-width="0" color="#000"><path d="M297.21 205v-7.5m0-152.49v7.5"/><text fill="#000" font-family="KaTeX_Main" font-size="10" text-anchor="middle" transform="translate(297.21 215.75)"><tspan> 8</tspan></text></g><path fill="none" stroke="#000" stroke-linecap="round" stroke-linejoin="round" stroke-width=".1" d="M334.6 205V45.01" class="gridline" color="#000"/><g fill="none" stroke="none" stroke-linecap="round" stroke-linejoin="round" stroke-width="0" color="#000"><path d="M334.6 205v-7.5m0-152.49v7.5"/><text fill="#000" font-family="KaTeX_Main" font-size="10" text-anchor="middle" transform="translate(334.6 215.75)"><tspan> 9</tspan></text></g><path fill="none" stroke="#000" stroke-linecap="round" stroke-linejoin="round" stroke-width=".1" d="M371.99 205V45.01" class="gridline" color="#000"/><g fill="none" stroke="none" stroke-linecap="round" stroke-linejoin="round" stroke-width="0" color="#000"><path d="M371.99 205v-7.5m0-152.49v7.5"/><text fill="#000" font-family="KaTeX_Main" font-size="10" text-anchor="middle" transform="translate(371.99 215.75)"><tspan> 10</tspan></text></g><g fill="none" stroke="none" stroke-linecap="round" stroke-linejoin="round" stroke-width="0" color="#000"><path d="M371.99 205h-7.5"/><text fill="#000" font-family="KaTeX_Main" font-size="10" transform="translate(378.99 208.25)"><tspan>0.89</tspan></text></g><g fill="none" stroke="none" stroke-linecap="round" stroke-linejoin="round" stroke-width="0" color="#000"><path d="M371.99 189h-7.5"/><text fill="#000" font-family="KaTeX_Main" font-size="10" transform="translate(378.99 192.25)"><tspan>0.90</tspan></text></g><g fill="none" stroke="none" stroke-linecap="round" stroke-linejoin="round" stroke-width="0" color="#000"><path d="M371.99 173h-7.5"/><text fill="#000" font-family="KaTeX_Main" font-size="10" transform="translate(378.99 176.25)"><tspan>0.91</tspan></text></g><g fill="none" stroke="none" stroke-linecap="round" stroke-linejoin="round" stroke-width="0" color="#000"><path d="M371.99 157h-7.5"/><text fill="#000" font-family="KaTeX_Main" font-size="10" transform="translate(378.99 160.25)"><tspan>0.92</tspan></text></g><g fill="none" stroke="none" stroke-linecap="round" stroke-linejoin="round" stroke-width="0" color="#000"><path d="M371.99 141h-7.5"/><text fill="#000" font-family="KaTeX_Main" font-size="10" transform="translate(378.99 144.25)"><tspan>0.93</tspan></text></g><g fill="none" stroke="none" stroke-linecap="round" stroke-linejoin="round" stroke-width="0" color="#000"><path d="M371.99 125h-7.5"/><text fill="#000" font-family="KaTeX_Main" font-size="10" transform="translate(378.99 128.25)"><tspan>0.94</tspan></text></g><g fill="none" stroke="none" stroke-linecap="round" stroke-linejoin="round" stroke-width="0" color="#000"><path d="M371.99 109.01h-7.5"/><text fill="#000" font-family="KaTeX_Main" font-size="10" transform="translate(378.99 112.26)"><tspan>0.95</tspan></text></g><g fill="none" stroke="none" stroke-linecap="round" stroke-linejoin="round" stroke-width="0" color="#000"><path d="M371.99 93.01h-7.5"/><text fill="#000" font-family="KaTeX_Main" font-size="10" transform="translate(378.99 96.26)"><tspan>0.96</tspan></text></g><g fill="none" stroke="none" stroke-linecap="round" stroke-linejoin="round" stroke-width="0" color="#000"><path d="M371.99 77.01h-7.5"/><text fill="#000" font-family="KaTeX_Main" font-size="10" transform="translate(378.99 80.26)"><tspan>0.97</tspan></text></g><g fill="none" stroke="none" stroke-linecap="round" stroke-linejoin="round" stroke-width="0" color="#000"><path d="M371.99 61.01h-7.5"/><text fill="#000" font-family="KaTeX_Main" font-size="10" transform="translate(378.99 64.26)"><tspan>0.98</tspan></text></g><g fill="none" stroke="none" stroke-linecap="round" stroke-linejoin="round" stroke-width="0" color="#000"><path d="M371.99 45.01h-7.5"/><text fill="#000" font-family="KaTeX_Main" font-size="10" transform="translate(378.99 48.26)"><tspan>0.99</tspan></text></g><path fill="none" stroke="none" stroke-linecap="round" stroke-linejoin="round" stroke-width="0" d="M28 45.01V205M371.99 45.01H28" color="#000"/><text fill="#000" stroke="none" stroke-linecap="round" stroke-linejoin="round" stroke-width="0" color="#000" font-family="KaTeX_Main" font-size="10" text-anchor="middle" transform="rotate(-90 68.255 56.755)"><tspan font-weight="bold">AveragePathLength </tspan><tspan> / log</tspan><tspan dy="3" font-size="8">2</tspan><tspan dy="-3">(Size)</tspan></text><text fill="#000" stroke="none" stroke-linecap="round" stroke-linejoin="round" stroke-width="0" color="#000" font-family="KaTeX_Main" font-size="10" text-anchor="middle" transform="translate(199.99 238.25)"><tspan>Operations × 10</tspan><tspan dy="-5" font-size="8">5</tspan></text><text fill="#000" stroke="none" stroke-linecap="round" stroke-linejoin="round" color="#000" font-family="KaTeX_Main" font-size="8" transform="translate(71.2 10.11)"><tspan>RedBlackBottomUp</tspan></text><g fill="none" stroke="currentColor" stroke-linecap="round" stroke-linejoin="round" color="#000"><path stroke="#F44336" d="M35.7 7.51h29.9M28 193.2l.37-.7.38-2.31.37-2.06.38-1.58.37-2.21.37.33.38-1.44.37-2.09.38 4.47.37-1.74.37-1.33.38-1.94.37.35.37-1.08.38-1.8.37 13.46.38-1.71.37-1.07.37.24.38-1.5.37-1.4.38.04.37 4.62.37.52.38-.07.37.22.38.45.37-1.18.37-.16.38 1.02.37.07.37.64.38-1.16.37-.11.38.25.37-.51.37 1.26.38-.05.37-1.16.38 1.63.37-.06.37-.04.38.03.37-.72.38.89.37-.21.37-.34.38 1.39.37.48.38.08.37-.25.37 1.53.38-2.71.37.42.37 2.3.38.71.37-.77.38 1.88.37-.07.37 1 .38.17.37.41.38.84.37 1.73.37-.44.38-4.12.37 1.81.38-.55.37.47.37.77.38-.75.37-.27.37.61.38.17.37-4.77.38.65.37.6.37-.5.38-.47.37.4.38.8.37-.25.37.43.38-.06.37-1.53.38-1.24.37-.36.37 2.51.38-1.06.37-.33.38-1.08.37-6.19.37-.54.38-.12.37 2.18.37-.64.38-.05.37-.7.38-1.33.37-1.34.37-.87.38 1.11.37-1.17.38-.59.37-1.39.37 5.52.38-1.25.37-.23.38.69.37-1.02.37-.36.38-1.2.37-2.84.37-.8.38-.08.37.93.38-.72.37-.09.37-.78.38 4.97.37.4.38.16.37-.05.37.92.38.56.37 1.24.38.33.37-.13.37.18.38.23.37 1.05.38.75.37.25.37-4.04.38.6.37-.07.37.06.38.11.37.18.38.1.37-1.76.37-.24.38.43.37-.74.38 1.43.37-.88.37 7.05.38-.61.37 2.23.38-.11.37-.6.37-.14.38-9.21.37.25.37.49.38 1.75.37-.15.38 2.7.37 1.22.37.93.38.36.37-3.64.38 4.09.37 1.3.37 1.59.38 1.33h.37l.38-1.86.37-.42.37 8.81.38-.63.37-.63.38.4.37-.29.37-.95.38-.32.37-1.02.37-4.03.38.35.37-.56.38-1.45.37-1.54.37-.53.38 1.62.37-1.39.38-.18.37-1.43.37 1.06.38.31.37-1.12.38 2.13.37-.96.37-.35.38-1.18.37-1.58.37-1.02.38-1.45.37.91.38-1.54.37-1.02.37 5.79.38-1.13.37-.84.38-1.22.37.82.37-.32.38-1.36.37.6.38-.68.37-.46.37-.98.38 1.19.37-.45.38-.97.37 4.9.37-.77.38-.27.37 1.1.37-.73.38-.36.37.28.38.23.37.11.37 1.25.38 2.94.37-.14.38-.42.37.21.37-.58.38 1.6.37-.14.38.82.37-2.8.37-.11.38-.34.37 1.95.37-.05.38-.32.37-.84.38.54.37-.23.37-.16.38-.03.37-.15.38-.22.37-1.04.37 3.07.38-.51.37.9.38-.38.37-.93.37.43.38-.03.37.13.38.99.37-1.14.37-7.31.38 3.12.37-.01.37 2.48.38-.69.37-.68.38 1.04.37 1.07.37 2.51.38.96.37.31.38.85.37-.25.37.06.38-.24.37.42.38-.28.37-1.01.37-.95.38-.66.37-.79.37 2.18.38.18.37-.57.38-19.58.37.14.37.88.38 2.32.37.25.38 1.26.37-.08.37-1.01.38.47.37-.63.38 2.11.37-.57.37.1.38-.68.37 2.51.38.56.37-.56.37 1.88.38-.3.37.01.37-.62.38-1.17.37-.69.38-.95.37.82.37-.31.38-1.14.37 5.24.38-1.07.37-.41.37-1.08.38 1.34.37-.52.38-.93.37-15.82.37-.57.38.22.37 1.23.37-.32.38-.12.37-.74.38 1.53.37 1.25.37.3.38.19.37 2.09.38.33.37.64.37.88.38 3.11.37.68.38 3.28.37.57.37 2.04.38 1.98.37 2.92.38.92.37.37.37 1.72.38.82.37.45.37 1.09.38 1.71.37-.88.38.04.37.94.37-.19.38 1.14.37.36.38-.39.37-2.17.37-.52.38 1.04.37 1.93.38.42.37.06.37-.12.38-.78.37.14.37-.64.38.34.37.65.38-.31.37-.07.37-.55.38.59.37-1.18.38.26.37-1.24.37-1.81.38-1.68.37-.11.38-.36.37-1.96.37.14.38-1.43.37.37.38-.83.37 5.82.37-.12.38.73.37-.61.37-2.59.38.86.37-.4.38-1.04.37-1.04.37.16.38 1.9.37-.86.38.05.37-1.08.37 1.7.38.24.37-.75.38 1.94.37-.54.37-.08.38-.75.37-1.42.37-.62.38-1.27.37.71.38-1.14.37-.84.37-1.31.38 6.05.37-.59.38-1 .37.82.37-1.02.38-.56.37-9.31.38-.73.37-.2.37-.64.38 1.04.37-.01.38-.85.37 4.55.37-1.02.38 1.4.37 1.15.37.54.38.44.37.49.38 1.48.37.08.37 1.38.38 1.23.37 1.32.38 1.62.37.61.37.49.38.06.37 1.59.38.44.37.39.37-.08.38-.22.37-.17.37.84.38-1.08.37.78.38-.17.37.5.37-.69.38-.37.37 1.29.38-.91.37.09.37.22.38.09.37-.32.38-.81.37-.85.37-.95.38-1.75.37-1.94.38-.7.37 6.25.37-1.33.38-.73.37.27.37-1.46.38-1.75.37 7.39.38-1.12.37-5.92.37-1.67.38-.7.37-.52.38-1.02.37-1.08.37-.72.38-.96.37 8.91.38.22.37-.36.37.29.38-.38.37.68.37-.71.38-1.15.37-.13.38-1.44.37 1.8.37-1.14.38.09.37 1.23.38-.69.37.14.37-.85.38 2.04.37-.8.38.3.37-1.54.37-1.43.38-.74.37-1.54.37 1.27.38-.79.37-1.46.38 5.61.37-1.19.37-.41.38.57.37-1.21.38-.41.37-1.22.37-7.01.38-.32.37-.85.38 1.08.37-.58.37-.39.38-.8.37 4.99.38-.27.37-.76.37.9.38.82.37.7.37.77.38 1.3.37.36.38.28.37.39.37-.53.38-.04.37.03.38.11.37-.32.37-.53.38.15.37-.25.38 2.61.37 8.34.37.06.38-.21.37-.47.37-.17.38-.33.37.23.38-.47.37-.89.37-5.69.38-.21.37 3.22.38.3.37.72.37.77.38.96.37.03.38-.46.37-1.08.37.34.38-.78.37-1.8.38.8.37.48.37 2.23.38.32.37 5.21.37 2.29.38.59.37.49.38.56.37-4.41.37.97.38-.35.37-.33.38-.69.37-1.69.37-.64.38-.86.37-3.23.38-.58.37.42.37-.82.38-1.4.37-.79.37-1.45.38.13.37-1.2.38-.55.37 3.22.37-.82.38-.07.37-.99.38 1.72.37-.89.37.33.38-1.66.37-1.45.38-.69.37-1.6.37.91.38-.62.37-1.62.38 3.93.37-1.23.37-.39.38.69.37-1.11.37-.51.38-1.29.37 3.62.38-.19.37-1.01.37 1.1.38-.79.37-.47.38-.97.37 5.08.37-.15.38-.83.37.98.38-.6.37-.52.37 2.06.38.57.37 1.6.37-.24.38.29.37.87.38-.46.37-.2.37-.14.38.47.37-.42.38-.05.37-.44.37-.73.38-.44.37.91.38-.59.37.03.37-.6.38-.2.37-.4.38 1.5.37.12.37 1.93.38-.17.37-.47.37.41.38-.22.37-.45.38-.75.37-1.35.37-.53.38-.16.37.13.38-.3.37 6.93.37 1.04.38.22.37.79.38-.51.37.48.37-2.18.38.96.37.15.37.88.38.12.37-.2.38.87.37 5.28.37-4.83h.38l.37-.19.38-.09.37-1.6.37-.96.38-.43.37-8.63.38-.41.37.43.37-.75.38-.52.37.94.38-.15.37 1.99.37.06.38.8.37-.35.37-.83.38-.21.37-.63.38 2.06.37-.96.37.22.38-5.96.37-.27.38.16.37-.59.37 2.34.38.05.37-.62.38-1.27.37-1.07.37-.79.38 1.49.37-1.14.37-.51.38-1.06.37 5.17.38-.92.37-.3.37.79.38-.99.37-.41.38-1.02.37-9.03.37-.3.38-.53.37 1.15.38-.53.37.13.37.84.38 5.5.37 1.21.38.36.37.3.37 1.17.38.38.37.43.37 1.7.38.93.37.77.38.59.37.58.37.34.38.85.37.77.38.31.37 1.33.37.73.38.21.37-.69.38-.49.37-.22.37-1.81.38-.1.37.08.37.5.38-.09.37.5.38-.52.37-.74.37-1.34.38 7.02.37-.19.38 1.58.37.66.37-22.2.38.32.37-.17.38.89.37 2.56.37.18.38.19.37-.38.38-1.23.37.86.37 2.37.38 2.32.37 3.85.37.55.38 1.76.37 1.63.38 1.47.37.07.37 1.03.38.69.37-7.09.38 1.15.37 1.59.37.87.38-.2.37.72.38-.18.37 2.04.37-.23.38.79.37-.37.37-.88.38-.31.37-.74.38 1.96.37-1.04.37.3.38-5.93.37-.49.38.21.37-.68.37 1.96.38.49.37-.65.38-1.24.37-1.31.37-.42.38-1.29.37 1.05.38-.41.37-1.07.37 5.34.38-1.03.37-.31.37-1.11.38.97.37-.24.38-1.03.37-8.62.37-.66.38.04.37-.74.38 1.48.37-.2.37.77.38 3.1.37.48.38 1.11.37.53.37-.24.38.97.37.41.37.2.38.3.37-.16.38-.86.37-.32.37.15.38.58.37-.24.38-.25.37-.71.37-.02.38 7.03.37-.73.38.81.37-.73.37-.23.38.11.37.18.38 1.65.37.32.37.04.38.18.37-.94.37-.07.38 4.68.37.37.38 1.85.37-.34.37.68.38-.55.37-.28.38-.47.37-.57.37.27.38-1.3.37-2.05.38-.22.37.11.37-.83.38-1.51.37 2.97.37-.38.38.12.37.05.38.01.37-1.06.37-.75.38-.69.37-.89.38 4.74.37 1.07.37-.45.38.66.37-.43.38.92.37-.47.37-1.15.38-.62.37-1.1.38 1.78.37-.67.37-.42.38-1.21.37 2.32.37-.05.38-.87.37 1.93.38-.78.37-.19.37-1.03.38-1.27.37-.77.38-1.46.37.82.37-.4.38-1.35.37 4.91.38-1.24.37-.73.37 1.29.38-1.06.37-.53.37-1.23.38-9.08.37.05.38-.64.37.89.37-.72.38-.05.37-.83.38 4.74.37-.01"/><use xlink:href="#e" color="#F44336" transform="matrix(3.75 0 0 3.75 342.45 186.89)"/><use xlink:href="#e" color="#F44336" transform="matrix(3.75 0 0 3.75 50.65 7.51)"/></g><text fill="#000" stroke="none" stroke-linecap="round" stroke-linejoin="round" color="#000" font-family="KaTeX_Main" font-size="8" transform="translate(71.2 25.11)"><tspan>RedBlackTopDown</tspan></text><g fill="none" stroke="currentColor" stroke-linecap="round" stroke-linejoin="round" color="#000"><path stroke="#3B75EA" stroke-dasharray="1.0,2.0" d="M35.7 22.51h29.9M28 195.2l.37-1.4.38 5.8.37.25.38.05.37-.57.37.46.38-.39.37-.83.38.25.37-.45.37-.54.38-1.08.37-.45.37-.7.38-1.41.37 1.17.38-.48.37-.48.37-.3.38-.83.37-1.51.38.38.37-.34.37-.85.38.22.37.34.38.3.37-1.08.37.1.38-.04.37.54.37.04.38-.08.37-.62.38-.15.37 1.79.37.94.38.02.37 1.64.38-.4.37-.18.37.08.38-.24.37-.26.38 1.04.37-.2.37.06.38-.43.37-.72.38 3.19.37.14.37-.46.38.1.37-.34.37 1.84.38-.21.37-1.91.38-.62.37.8.37 3.13.38-.68.37.71.38-.56.37 2.1.37-7.47.38 2.72.37 1.04.38-.27.37 1.38.37.22.38.61.37.33.37.33.38.04.37-2.26.38.61.37.61.37.49.38.15.37-2.89.38-.9.37-3.12.37.77.38 3.88.37.5.38.26.37.33.37-.57.38.73.37-.08.38-.19.37-.95.37.13.38-.83.37-1.24.37.83.38.01.37-.09.38.12.37-.41.37-.63.38-1.13.37.47.38-.36.37-.96.37-.71.38-1.19.37-1.06.38-1.75.37-3.49.37.44.38.28.37.28.37-.08.38-.24.37-.73.38.43.37.11.37-.56.38-.18.37-5.93.38.7.37-.17.37-.17.38 1.52.37.41.38.07.37-.28.37 2.04.38.4.37.26h.38l.37-.81.37.32.38.63.37 1.1.37 1.34.38.32.37.26.38-.07.37.78.37.94.38 1.35.37-.28.38 1.95.37 1.59.37.69.38-.19.37.28.38-.28.37-.37.37-.53.38-.47.37.14.37.32.38.77.37.53.38-1.64.37-.53.37-1.27.38.33.37 6.63.38-.07.37 1.83.37-.51.38-.12.37-.18.38.75.37 1.06.37.05.38 1.67.37-2.74.38 1.85.37.44.37-.83.38.4.37-.41.37-.72.38-4.55.37.55.38.89.37.41.37-.06.38-.21.37-1.16.38 1.97.37-.13.37-.78.38-.17.37-1.06.38-.86.37-7.27.37 1.28.38 1.19.37.51.37 1.01.38.71.37.05.38.9.37.32.37.36.38-.14.37.15.38-.07.37-.8.37 2.03.38.23.37.26.38.33.37-.22.37-.27.38-.61.37.44.38-.45.37-.15.37-.34.38-.76.37-.74.37-1.27.38 2.38.37-.03.38.12.37-.05.37.59.38-.28.37-.27.38-.02.37-.37.37-.66.38-.99.37-.15.38-.71.37 1.46.37-1.41.38-.58.37-.29.37-.17.38.58.37-.64.38-.6.37-.77.37-.81.38 2.89.37-.62.38-.97.37 1.03.37-.72.38-.9.37-.8.38-8.96.37.78.37 2.52.38.66.37 1.89.38.31.37.67.37-.09.38.06.37-.93.37-.04.38-.69.37.56.38.27.37.4.37-1.03.38.5.37 1.05.38 2.5.37.9.37-.4.38 2.72.37 2.1.38.27.37.62.37.48.38-1.4.37 1.21.37 1.37.38-.42.37.78.38.3.37-.71.37-3.82.38.95.37 5.08.38.79.37.24.37.03.38-.48.37 1.04.38-.03.37-.15.37-.05.38-.55.37-.78.38-1.22.37 2.19.37-.06.38.15.37-.14.37-.43.38-.7.37-1.36.38.78.37-.65.37-.97.38-.59.37-.89.38-1.56.37-4.27.37.36.38.38.37-.23.38.49.37-.09.37-.65.38.52.37-.37.37-.12.38-.21.37-4.63.38-8.23.37-2.63.37 1.27.38 1.89.37.29.38 1.38.37 1.12.37.58.38.77.37.85.38 1.86.37.4.37.11.38.28.37.86.38 1.2.37 1.21.37.42.38 1.23.37.31.37.58.38.22.37 1.84.38.12.37.14.37 2.43.38 1.43.37.66.38-.55.37.62.37 1.1.38-.14.37 1.01.38-.47.37-.01.37-.88.38-.14.37.64.37-.01.38 1.39.37-4.61.38-.2.37 4.06.37 1.56.38 1.18.37.75.38-.97.37-.1.37 2 .38-.26.37-.49.38-2.33.37.85.37.18.38-.73.37.77.38-.64.37-1.26.37-4.03.38.81.37.5.37 1.04.38.17.37-.32.38-.66.37.91.37.2.38-.55.37-.27.38-.72.37-1.05.37-1.56.38-6.15.37 1.25.38.72.37 1 .37.37.38.23.37 1.11.37.48.38.35.37-.13.38.27.37-.4.37-.36.38 1.96.37.44.38.39.37-.28.37.32.38-.3.37-.16.38.1.37-.29.37-.27.38-.94.37-.04.38-.89.37-1.14.37 2.21.38.12.37.04.37-.71.38.46.37-.15.38.15.37-.22.37-.36.38-.62.37-.53.38 1.68.37-.82.37-.79.38.6.37.07.38-.52.37-.87.37-.45.38.1.37-.39.37-.81.38 4.81.37-.2.38-.32.37-.84.37-.64.38.48.37-.85.38-.64.37-.5.37 1.57.38.15.37-.71.38-.81.37 5.32.37-.35.38.9.37.37.38-.45.37.03.37.21.38-.32.37.08.37-.38.38 6.61.37-.56.38-3.48.37-.97.37 3.34.38.04.37.27.38-.08.37-.65.37-1.65.38-.9.37-.54.38-5.38.37-.37.37-.62.38-1.39.37-.59.37-1.07.38-1.89.37 3.94.38 1.02.37.89.37.02.38 1.27.37.18.38-.36.37 1.16.37.1.38-.01.37-.53.38.25.37-.6.37-1.07.38 2.51.37.01.37.19.38.04.37-.45.38-.4.37-1.11.37.69.38-.42.37-.92.38-.4.37-1.23.37-.89.38-5.57.37.46.38.37.37.08.37.38.38-.27.37.06.38.22.37-.12.37 1.79.38-1.13.37-.2.37-10.21.38-.32.37-.06.38.79.37.28.37.2.38-.09.37-.4.38 2.63.37 2.53.37.25.38.18.37.81.38-.41.37-.53.37.8.38-.2.37-.18.37-.51.38-.6.37-.35.38-.49.37-.88.37-.46.38.04.37.1.38.14.37.19.37-.21.38 2.47.37.2.38-.43.37.93.37-.23.38.63.37-.47.38-.51.37.25.37 13.32.38.74.37 1.15.37 1.91.38 1.51.37 1.15.38.69.37.45.37-.64.38-.47.37-1.29.38-1.22.37.42.37 1.75.38-.3.37.42.38-.22.37-1.02.37-4.52.38 1.07.37.51.37-.03.38.51.37.32.38-.78.37.95.37-.07.38-.08.37-.35.38-.75.37-9.11.37-1.17.38-.03.37.04.38.36.37-.03.37-.5.38-.52.37-1.22.38.77.37-.53.37-.88.38-.59.37-1.22.37-.97.38 8.35.37.37.38.4.37-.21.37.33.38.06.37-.59.38.29.37-.27.37-.23.38-.75.37-.33.38-.5.37-1.12.37-.06.38 1.66.37-10.83.37.1.38.35.37.73.38.65.37.8.37.9.38 2.22.37.74.38.86.37.35.37.4.38.5.37-.25.38 1.69.37 1.29.37-.07.38.54.37.23.38 1.25.37.52.37-.06.38.46.37-.4.37.09.38-.66.37-.65.38-.18.37.18h.37l.38-.94.37 1.86.38-.58.37-.38.37.22.38.27.37-.52.38 9.9.37-.08.37-.22.38-.09.37.52.37-.78.38-.44.37 2.18.38-.34.37.02.37-.51.38.49.37-12.41.38 2.58.37 1.35.37-.25.38 5.61.37.72.38-3.74.37 1.18.37.63.38.22.37.52.38-.32.37-.38.37-3.48.38 1.17.37 1.04.37.15.38.8.37.41.38-.26.37.69.37.15h.38l.37.05.38-.43.37-.54.37-1.09.38 2.29.37.15.38-.1.37.12.37-.41.38-.47.37-1.11.37.37.38-.27.37-.6.38-.62.37-1.03.37-1.14.38-1.61.37-3.49.38.38.37.04.37.32.38-.26h.37l.38.37.37-.14.37-.35.38-.31.37-15.58.38.56.37 1.4.37.68.38.77.37 1.31.37.81.38.95.37.39.38.62.37.44.37.09.38-.65.37.48.38 1.06.37.19.37 1.98.38 1.14.37.65.38-.12.37.55.37.15.38 1.56.37 1.43.37 1.01.38.56.37.87.38-1.04.37 1.27.37.5.38-.49.37-.51.38-2.78.37 6.66.37-.2.38-.02.37-1.35.38-.17.37 2.64.37-.14.38.38.37-.35.38.39.37 4.15.37-3.13.38 1.06.37 3.57.37 1.06.38-.48.37-1.54.38-1.52.37.53.37 1.06.38-.3.37.21.38-.15.37-1.02.37-2.83.38-.21.37-.53.38-1.33.37-.19.37-1.22.38-1.76.37-6.94.37 1.16.38.95.37 1.22.38.63.37.23.37-.14.38 1.26.37.13.38.32h.37l.37-.42.38-.29.37-1.1.38 2.55.37.05.37.42.38.09.37-.32.38-.34.37-.84.37.44.38-.6.37-.26.37-.57.38-.85.37-.84.38-1.43.37-.65.37.37.38.49.37.32.38.02.37-.08.37.19.38-17.38.37-2.61.38.58.37.95.37 1.08.38.71.37.47.37 1.05.38.64.37 1.59.38 1.08.37-.17.37.43.38.66.37-.02.38-.14.37.65.37-.2.38 1.69.37-.74.38-.45.37.95.37-.29.38-.7.37-.64.38 2.16.37-.33.37 1.14.38-.38.37-.81.37-1 .38.21.37 1.58.38-.65.37-.01.37-.53.38-.13.37 11.49.38-.9.37 3.56.37.87.38 1.44.37 1.79.38.63.37 1.04.37.19.38.01.37.4.37-.01.38 1.32.37.03.38-.32.37-1.96.37.81.38.48.37 4.27.38.17.37.04.37-.86.38-4.79.37.86.38 1.18.37-.09.37.92.38-.07.37-.53.38.75.37-.01.37-.24.38-.97.37.17.37-.67.38-1.29.37.49.38.1.37-.06.37-.05.38-.55.37-.65.38-1.22.37.29.37-.31.38-1.05.37-.69.38-1.38.37-1.25.37-5.66.38.42.37.39.37-.13.38.39.37.14.38-.46.37.28.37-.17.38-.24.37-.81.38-.12.37-.48"/><use xlink:href="#g" color="#3B75EA" transform="matrix(3.75 0 0 3.75 56.04 197.56)"/><use xlink:href="#g" color="#3B75EA" transform="matrix(3.75 0 0 3.75 50.65 22.51)"/></g><text fill="#000" stroke="none" stroke-linecap="round" stroke-linejoin="round" color="#000" font-family="KaTeX_Main" font-size="8" transform="translate(241.1 10.11)"><tspan>RedBlackRelaxedBottomUp</tspan></text><g fill="none" stroke="currentColor" stroke-linecap="round" stroke-linejoin="round" color="#000"><path stroke="#00C853" d="M205.6 7.51h29.9M28 193.2l.37-.7.38-2.31.37-2.06.38-1.58.37-2.21.37.33.38-1.44.37-2.09.38 4.47.37-1.74.37-1.33.38-1.94.37.35.37-1.08.38-1.8.37 13.46.38-1.71.37-1.07.37.24.38-1.5.37-.66.38-.49.37-.85.37-.57.38-1.17.37-1.39.38.03.37-1.22.37-1.88.38-1.01.37-1.64.37 1.11.38-1.6.37-1.92.38-2.17.37-1.16.37-2.32.38-2.03.37-2.87.38 4.21.37-2.27.37-2.98.38-1.97.37-3.03.38-1.22.37-3.2.37-3.13.38-2.91.37-3 .38-3.93.37 11.73.37-3.4.38-3.02.37-4 .37-1.66.38-4.26.37-3.77.38-4.67.37-4.74.37 1.84.38-4.95.37-4.45.38-5.42.37-3 .37-4.91.38-4.69.37-5.14.38 98.46.37-2.09.37-1.86.38-2.84.37-3.19.37 7.02.38-3.42.37-1.02.38 1.28.37-3.12.37-2.06.38-3.07.37-4.54.38-2.3.37-3.67.37 1.01.38-3.14.37-2.76.38-3.4.37 7.79.37-1.93.38-3.07.37.29.38-2.8.37-2.17.37-2.54.38 20.34.37-1.58.37-2.51.38-.41.37-2.39.38-1.47.37-2.37.37 6.47.38-1.33.37-2.05.38.3.37-2.04.37-1.48.38-2.13.37-2.49.38-2.07.37-2.48.37-.31.38-2.51.37-1.9.37-2.43.38 3.66.37-1.72.38-2.14.37-.25.37-2.11.38-1.29.37-2.42.38-.88.37-2.41.37-2.08.38-2.67.37-2.73.38.59.37-2.59.37-2.57.38-3.05.37-3.67.38-1.88.37-2.85.37-3.27.38-3.83.37 6.36.37-3.7.38-3.02.37-4.11.38-2.49.37-4.58.37-3.34.38-4.79.37-.53.38-4.46.37-4.15.37-4.77.38-2.83.37-4.13.38-4.74.37 94.55.37-2.64.38-2.55.37-3.28.37-2 .38-3.75.37-2.79.38-.08.37-4.13.37-3.92.38-4.87.37-3.23.38-4.86.37-5.58.37 7.12.38-4.59.37-5.97.38-4.7.37-6.87.37-5.83.38 33.79.37-3.49.38-2.56.37-3.64.37.24.38-1.57.37-3.61.37 6.8.38-3.25.37-1.93.38 1.99.37-2.89.37-1.89.38-2.66.37-4.22.38-2.29.37-3.51.37-.29.38-2.93.37-2.46.38 7.67.37-3.11.37-2.33.38-2.76.37.06.37-2.86.38-1.62.37 17.83.38-2.38.37-1.99.37-2.32.38.16.37-2.43.38-1.31.37 4.84.37-1.73.38-1.67.37-2.1.38.28.37-1.5.37-1.97.38 65.2.37-2.19.38-1.78.37-.26.37-2.02.38-1.61.37-1.88.37 3.18.38-1.99.37.01.38-2.33.37-2.12.37-2.47.38-1.81.37-2.38.38-2.48.37-2.86.37 16.18.38-2.45.37-2 .38-1.83.37-2.85.37-2.69.38-3.24.37-.6.37-2.93.38-3.33.37-2.94.38-3.32.37-3.54.37-4.1.38 5.55.37-3.61.38-2.68.37-4.35.37-3.96.38-4.6.37-.49.38-4.68.37-4.5.37-5.25.38-3.54.37-4.03.38-4.76.37 95.35.37-2.64.38-2.4.37-3.29.37-1.87.38-3.12.37-3.93.38.13.37-4.11.37-4.47.38-5.11.37-3.38.38-5.19.37-5.66.37 8.3.38-3.65.37.24.38-3.94.37-2.42.37-4.06.38 30.15.37-3.71.37-2.28.38 1.22.37-3.55.38-2.17.37-3.49.37 7.6.38-1.61.37-2.98.38.41.37-2.95.37-1.93.38-2.81.37-3.24.38-2.82.37-3.21.37-.35.38-3.14.37-2.3.38 7.29.37-2.75.37-2.14.38-2.74.37-.4.37-1.72.38-2.68.37 17.76.38-2.13.37-1.96.37-.05.38-2.26.37-1.49.38-2.38.37 3.93.37-2.11.38-1.23.37-.29.38-1.92.37-1.48.37-1.98.38 58.13.37-1.68.37-1.97.38-.32.37-1.85.38-1.93.37-1.18.37-2.16.38-2.38.37-2.32.38.03.37-2.44.37-2.38.38-2.68.37-2.07.38-2.44.37-2.84.37 16.76.38-2.45.37-2.41.38-3.13.37-1.85.37-2.94.38-.46.37-3.08.37-3.29.38-3.75.37-2.55.38-3.37.37-4.09.37 6.29.38-3.94.37-3.67.38-4.34.37-3.04.37-4.19.38-4.67.37-.99.38-4.94.37-4.56.37-3.85.38-5.41.37-4.71.37-5.3.38 96.89.37-3.37.38-2.49.37-1.97.37-3.95.38-3.84.37 1.14.38-4.4.37-4.26.37-5.13.38-4.89.37-3.08.38-4.37.37 7.31.37-2.31.38-3.94.37 1.2.38-3.78.37-2.6.37 25.59.38-3.2.37-2.55.37-3.07.38 1.26.37-3.32.38-1.64.37 8.26.37-2.47.38-2.04.37-2.75.38.92.37-1.83.37-2.38.38-3.11.37-3.09.38-2.5.37-.21.37-2.84.38-2.32.37-2.73.37 5.21.38-1.74.37-2.65.38-.16.37-2.44.37-1.91.38-2.29.37 18.27.38-1.45.37-2.31.37-.27.38-2.12.37-1.37.38-2.23.37 3.86.37-1.3.38-2.03.37.04.38-2 .37-.97.37-2.22.38-2.64.37-3.11.37-3.53.38 4.01.37-3.15.38-2.83.37-3.59.37-2.54.38-3.48.37-3.73.38-1.47.37-3.86.37-3.69.38-3.41.37-3.65.38-3.63.37-4.27.37 95.19.38-2.28.37-2.8.37-1.92.38-2.77.37-3.72.38 1.13.37-2.92.37-3.17.38-2.46.37-3.52.38-3.33.37-4.1.37 7.03.38-3.87.37-3.81.38-4.7.37-2.38.37-4.33.38-5.08.37-.66.38-5.33.37-4.69.37-5.75.38-3.56.37-4.66.37-5.73.38 96.86.37-3.21.38-2.65.37-2.25.37-4.08.38-4.79.37-4.21.38-2.86.37-4.65.37-.1.38-4.35.37-2.07.38 6.54.37-3.56.37-2.69.38-3.56.37 1.56.37-2.12.38-3.21.37 22.99.38-3.24.37-2.2.37-3.05.38.59.37-2.08.38-2.64.37 8.22.37-2.45.38-1.88.37-2.55.38.81.37-1.68.37-2.29.38-2.95.37-2.89.37-2.09.38-.57.37-2.71.38-1.94.37-2.68.37 4.4.38-1.83.37-2.51.38-.31.37-2.32.37-1.47.38 16.85.37-2.06.38-1.79.37-1.93.37-.04.38-1.97.37-1.32.38 3.21.37-1.84.37-2.55.38-.18.37-2.68.37-2.73.38-3.02.37-2.39.38-3.02.37-2.88.37-3.44.38 3.18.37-2.91.38-3.61.37-2.83.37-3.64.38-3.8.37-1.46.38-3.92.37-3.57.37-4.57.38-2.65.37-3.81.37-4.31.38 95.83.37-2.05.38-2.61.37-1.49.37-2.96.38-2.81.37-3.44.38.61.37-3.39.37-2.95.38-2.73.37-4.02.38-3.8.37-4.6.37 8.03.38-3.75.37-4.73.38-3.23.37-5.01.37-4.47.38-.95.37-4.94.37-5.51.38-6.05.37-3.85.38-5.55.37-5.32.37 98.65.38-2.9.37-3.28.38-.09.37-3.52.37-1.15.38-4.19.37-4.33.38-2.92.37-4.1.37 1.38.38-2.3.37-3.88.37 7.63.38-3.33.37-2.37.38-3.3.37.7.37-2.15.38-2.84.37 20.38.38-2.7.37-2.03.37.25.38-2.51.37-1.68.38-2.36.37 7.36.37-2.43.38-1.36.37-.01.38-2.03.37-1.57.37-2.34.38-2.77.37-1.95.37-2.49.38-.66.37-2.5.38-1.89.37 3.36.37-2.28.38-1.59.37-2.35.38-.25.37-2.17.37-1.46.38 15.69.37-2.04.38-1.33.37-2.11.37-1.9.38-2.3.37-1.48.37-2.7.38-2.14.37-2.83.38-.2.37-2.8.37-2.77.38-3.23.37-2.54.38-3.34.37-3.34.37-3.55.38 4.28.37-3.27.38-3.74.37-3.03.37-4.06.38-3.78.37-1.44.38-3.98.37-4.61.37-2.79.38-3.71.37-4.24.37 94.8.38-2.28.37-2.09.38-2.69.37-1.48.37-3.1.38-2.93.37-3.76.38.98.37-3.01.37-3.81.38-2.78.37-4.53.38-3.91.37-4.54.37 8.37.38-4.22.37-5.17.37-3.32.38-4.99.37-5.67.38-1.03.37-5.98.37-5.63.38-.66.37-3.49.38-1.76.37 6.86.37-3.34.38-1.55.37-3.31.38 1.91.37-2.2.37-3.03.38-3.75.37-3.91.38-2.72.37-3.82.37 1.31.38-2.72.37-3.22.37 7.55.38-3.06.37-1.78.38-.25.37-2.96.37-1.97.38-2.75.37 19.81.38-1.89.37-2.38.37.11.38-2.53.37-1.75.38-2.44.37 6.05.37-1.69.38-1.97.37.18.37-1.94.38-1.18.37 69.41.38-2.26.37-1.71.37-2.39.38-.5.37-1.55.38-2.2.37 3.77.37-2.17.38-1.45.37-.18.38-1.86.37-1.37.37-1.84.38-2.46.37-2.32.38-2.77.37 15.53.37-2.33.38-2.21.37-2.79.37-1.87.38-2.87.37-2.66.38-.39.37-3.1.37-2.97.38-3.6.37-2.59.38-3.32.37-3.87.37 4.62.38-3.79.37-3.46.38-3.44.37-4.12.37-4.05.38-.43.37-4.17.37-4.16.38-4.65.37-3.68.38-4.54.37-4.17.37-4.84.38 95.78.37-2.39.38-2.95.37-2.19.37-3.41.38-3.39.37-4.25.38.35.37-4.71.37-3.76.38-3.42.37-5.34.38-4.28.37 6.95.37-5.21.38-5.21.37-4.24.37-6.31.38-4.15.37 31.54.38-3.95.37-2.21.37 1 .38-3.55.37-2.72.38-3.36.37 6.94.37-3.16.38-1.71.37 1.7.38-2.96.37-1.86.37-3.03.38-3.98.37-2.27.37-3.49.38-.57.37-3.03.38-2.44.37-3.41.37 8.31.38-2.44.37-2.86.38.09.37-2.73.37-2.16.38 19.29.37-2.44.38-1.81.37-2.63.37-.01.38-2.36.37-1.7.38 4.59.37-1.91.37-1.53.38-2.03.37.11.37-2.01.38-1.45.37 63.25.38-2.17.37-1.58.37-2.28.38-.18.37-2.18.38-1.23.37 2.86.37-2.3.38-2.55.37.35.38-2.74.37-2.17.37-2.84.38-1.39.37-2.32.37-2.95.38 16.42.37-2.28.38-2.15.37-2.7.37-1.92.38-3.02.37-2.79.38-.56.37-3.25.37-3.39.38-2.74.37-3.7.38-3.21.37-3.99.37 5.81.38-3.35.37-4.02.38-2.87.37-4.55.37-4.07.38-.75.37-4.23.37-4.42.38-4.99.37-3.6.38-5.15.37-4.06.37-4.98.38 96.68.37-2.78.38-3.49.37-2.04.37-4.03.38-3.38.37.2.38-4.39.37-4.09.37-3.51.38-5.32.37-5.28.37 8.18.38-4.32.37-3.04.38-4.24.37.2.37-3.85.38-1.88.37-3.71.38 29.24.37-2.06.37-3.6.38 1.64.37-3.47.38-2.04.37-3.44.37 8.76.38-2.42.37-2.83.38.13.37-2.27.37-1.98.38-2.75.37-3.3.37-2.53.38-3.25.37-.45.38-3 .37-2.46.37 6.55.38-2.6.37-2.06.38-2.68.37-.35.37-1.56.38-2.52.37 17.97.38-2.42.37-1.78.37.17.38-2.11.37-1.58.37-2.27.38 3.59.37-1.22.38-1.88.37-.32.37-1.9.38-1.16.37-1.96.38 57.02.37-1.43"/><use xlink:href="#b" color="#00C853" transform="matrix(3.75 0 0 3.75 113.62 145.13)"/><use xlink:href="#b" color="#00C853" transform="matrix(3.75 0 0 3.75 220.55 7.51)"/></g><text fill="#000" stroke="none" stroke-linecap="round" stroke-linejoin="round" color="#000" font-family="KaTeX_Main" font-size="8" transform="translate(241.1 25.11)"><tspan>RedBlackRelaxedTopDown</tspan></text><g fill="none" stroke="currentColor" stroke-linecap="round" stroke-linejoin="round" color="#000"><path stroke="#FFAB00" stroke-dasharray="4.5,2.0,0.5,2.0,0.5,2.0" d="M205.6 22.51h29.9M28 195.2l.37-1.4.38 5.8.37.25.38.05.37-.57.37.46.38-.39.37-.83.38.25.37-.45.37-.54.38-1.08.37-.45.37-.7.38-1.41.37 1.17.38-.48.37-.48.37-.3.38-.83.37-.68.38-.43.37-.83.37-.56.38-1.13.37-1.19.38-.02.37-1.16.37-1.9.38-1.06.37-1.49.37 1.34.38-1.74.37-1.68.38-2.22.37-1.12.37-2.35.38-1.96.37 3.83.38-2.33.37-2.22.37-2.86.38-1.87.37-2.85.38-1.14.37-3.1.37-3.01.38-2.87.37-2.89.38-3.98.37 12.02.37-3.34.38-2.93.37-3.71.37-1.8.38-4.02.37-3.72.38-4.66.37-4.66.37 2.15.38-4.97.37-4.34.38-5.27.37-2.74.37-4.82.38-4.48.37-5 .38 98.71.37-1.95.37-1.57.38-1.8.37-2.81.37.38.38-2.17.37-1.86.38-2.41.37-2.72.37-2.9.38-3.7.37 15.07.38.06.37-.84.37-.77.38-.93.37-1.44.38-1.94.37.12.37-.75.38-1.49.37-1.4.38-1.59.37-1.87.37-2.18.38 2.81.37-.53.37-1.2.38-.99.37-1.42.38-1.37.37-1.99.37-.46.38-1.2.37-1.69.38-1.5.37-2.01.37-1.96.38-2.59.37 35.8.38.29.37-.14.37.24.38-.33.37-.34.37-.84.38.7.37-.32.38-.81.37-.19.37-.95.38-.66.37-1.18.38.37.37-1.12.37-.76.38-1.35.37-1.32.38 1.94.37-1.2.37-1.01.38-1.64.37-.69.38-1.78.37-1.3.37-1.73.38-2.31.37 7.92.37-1.98.38-1.36.37-2.41.38-.68.37-2.81.37-1.55.38-3.02.37 1.29.38-2.66.37-2.23.37-3.04.38-1.05.37-2.39.38-2.96.37 22.55.37-2.05.38-2.34.37-2.9.37-1.57.38-2.41.37-3.14.38.39.37-3.58.37-3.29.38-4.31.37-2.52.38-4.23.37-4.7.37 7.67.38-3.77.37-5.12.38-3.85.37-5.96.37-4.95.38.98.37-.76.38-1.36.37-1.95.37-.9.38-1.63.37-2.83.37.18.38-2.19.37-1.92.38-1.76.37-2.43.37-2.78.38-3.38.37 12.91.38.05.37-.84.37-.63.38-.91.37-1.37.38-.45.37-1.01.37-1.2.38-1.6.37-1.17.37-1.9.38-1.64.37 1.05.38-.82.37-.98.37-1.36.38-.79.37-1.57.38-1.36.37-1.17.37-1.32.38-1.48.37-1.89.38-1.11.37-1.82.37-2.28.38 30.08.37.12.38.08.37.39.37-.19.38-.26.37-.64.37.37.38-.44.37-.44.38-2.72.37-2.41.37-2.72.38-2.05.37-2.4.38-2.58.37-2.86.37 95.25.38-.49.37-1.17.38-.46.37-1.28.37-1.28.38-1.67.37.95.37-1.36.38-1.76.37-1.25.38-1.71.37-1.8.37-2.45.38 7.36.37-1.86.38-.9.37-2.5.37-2.07.38-2.69.37 1.42.38-2.82.37-2.53.37-3.32.38-1.28.37-2.56.38-3 .37 25.04.37-2.21.38-1.95.37-3.1.37-1.35.38-2.65.37-3.45.38.67.37-3.49.37-3.93.38-4.42.37-2.63.38-4.35.37-5.05.37 9.15.38-1.56.37-1.44.38-2.25.37-2.9.37-3.5.38 4.28.37-1.44.37-1.14.38-1.67.37-2.09.38-2.07.37-3.04.37-.57.38-1.71.37-2.44.38-1.96.37-2.78.37-2.71.38 11.45.37-.31.38-.51.37-1.05.37-.58.38-1.23.37-1.33.38-.65.37-1 .37-1.15.38-1.66.37-1.28.37-1.39.38-2.16.37.57.38-.88.37-1.13.37-.82.38-1.32.37-1.37.38-2 .37-.6.37-1.62.38-1.33.37-1.55.38-1.93.37-1.82.37-2.5.38 27.76.37.14.37-.25.38.16.37-2.48.38-2.61.37-1.77.37-2.8.38-2.84.37-2.95.38-.55.37-2.89.37-2.62.38-3.23.37-2.34.38-2.56.37-2.89.37 94.67.38-1 .37-.99.38-.6.37-1.4.37-1.46.38 1.18.37-1.54.37-1.59.38-2.1.37-.83.38-1.66.37-2.28.37 8.2.38-2.08.37-1.89.38-2.47.37-.67.37-2.55.38-2.66.37 1.08.38-2.9.37-2.57.37-1.71.38-3.33.37-2.8.37-3.26.38 26.23.37-2.28.38-2.8.37-1.53.37-3.48.38-3.34.37 1.72.38-3.87.37-3.6.37-4.6.38-1.43.37-1.61.38-2.72.37 2.23.37-1.52.38-2.17.37-1.48.38-2.41.37-2.69.37 4.24.38-.76.37-1.26.37-1.68.38-1.06.37-2.22.38-1.62.37-1.18.37-1.61.38-1.87.37-2.46.38-1.37.37-2.38.37-2.74.38 11.7.37-.47.38-.62.37-.51.37-.94.38-1.11.37-1.47.37-.22.38-.83.37-1.35.38-1.08.37-1.55.37-1.58.38-2.04.37 1.15.38-.66.37-1.24.37-.93.38-1.33.37-1.28.38-1.9.37-.6.37-1.08.38-1.78.37-1.23.38-2.07.37-1.57.37-2.21.38-2.66.37-3.1.37-3.58.38 4.09.37-3.16.38-2.91.37-3.57.37-2.51.38-3.53.37-3.71.38-1.32.37-4 .37-3.7.38-3.43.37-3.65.38-3.67.37-4.3.37 95.33.38-2.31.37-2.8.37-1.86.38-2.78.37-3.83.38 1.24.37-2.92.37-3.2.38-2.49.37-3.51.38-3.34.37-4.15.37 7.07.38-3.95.37-3.76.38-4.86.37-2.36.37-4.29.38-5.08.37-.7.38-5.4.37-4.62.37-5.68.38-3.67.37-4.54.37-5.83.38 96.98.37-3.28.38-2.61.37-2.24.37-4.04.38 11.12.37-.03.38-.47.37-1.21.37-.19.38-1.58.37-1.3.38.43.37-1.15.37-1.44.38-2.11.37-1.42.37-1.85.38-2.62.37 3.68.38-1.09.37-1.18.37-1.92.38-.67.37-1.77.38-2.15.37-.65.37-1.64.38-1.74.37-2.24.38-1.39.37-2.18.37-2.61.38 47.07.37.02.37.22.38.02.37-.43.38-.38.37-1.07.37.7.38-.47.37-.97.38-.4.37-1.21.37-.9.38.63.37-.35.38-.49.37-.73.37-.46.38-1.04.37-.74.38-.51.37-.9.37-1.44.38 1 .37-1.46.37-1.52.38-1.81.37-1 .38-1.89.37-1.48.37-2.26.38 4.8.37-1.83.38-2.22.37-1.56.37-2.29.38-2.45.37-.04.38-2.52.37-2.39.37-3.25.38-1.4.37-2.62.37-3.08.38 21.33.37-1.98.38-2.62.37-1.51.37-2.97.38-2.79.37-3.42.38.98.37-3.8.37-2.88.38-2.69.37-3.98.38-3.69.37-4.65.37 8.06.38-3.69.37-4.73.38-3.22.37-5 .37-4.38.38-.9.37-4.97.37-5.46.38-5.94.37-3.71.38-5.65.37-5.26.37 98.85.38-2.12.37-2.97.38-1.97.37-3.47.37-2.85.38 12.68.37-.4.38-.46.37-1.36.37-.61.38-.89.37-1.82.37-.52.38-1.14.37-1.2.38-2.18.37-.69.37-1.87.38-2.43.37 3.58.38-1.08.37-1.1.37-.72.38-1.34.37-1.61.38-1.94.37-.68.37-1.71.38-1.42.37-1.68.38-2.05.37-2.13.37 37.14.38.35.37.24.37-.14.38.08.37-.51.38-.34.37.09.37-.34.38-.33.37-.96.38-.46.37-1.11.37-.82.38.89.37-.37.38-.28.37-.87.37-.8.38-1.03.37-.35.37-1.46.38-.93.37-1.61.38 1.09.37-1.51.37-1.4.38-1.92.37-1.2.38-1.92.37-1.94.37 5.32.38-1.71.37-1.83.38-2.31.37-1.56.37-2.57.38-2.29.37.01.38-2.52.37-3.1.37-1.42.38-2.33.37-2.87.37 22.55.38-2.23.37-1.92.38-2.66.37-1.34.37-2.99.38-2.84.37-3.66.38 1.1.37-2.87.37-3.72.38-2.61.37-4.35.38-3.81.37-4.38.37 8.53.38-4.1.37-4.75.37-3.42.38-4.83.37-5.43.38-.96.37-5.77.37-5.5.38-.97.37-2.43.38-1.91.37-.07.37-1.97.38-2.11.37-2.93.38-1.69.37-3.02.37-3.37.38 13.55.37-.46.38-.68.37-.51.37-.87.38-1.36.37-1.79.37-.06.38-1.3.37-1 .38-1.4.37-1.81.37-1.77.38-2.46.37 3.15.38-.88.37-1.26.37-.94.38-1.58.37-1.51.38-2.21.37-.03.37-1.45.38-1.78.37-1.38.37-2.06.38-1.86.37 32.06.38.31.37.27.37-.34.38.19.37-.1.38-.72.37.3.37-.48.38-.45.37-.17.38-.73.37-.77.37-2.08.38-2.47.37-2.34.38-2.86.37 94.55.37-.98.38-.86.37-1.34.37-.47.38-1.48.37-1.18.38 1.11.37-1.56.37-1.42.38-2.05.37-1 .38-1.66.37-2.25.37 6.34.38-2.06.37-1.76.38-1.6.37-2.42.37-2.23.38 1.31.37-2.39.37-2.35.38-2.85.37-1.84.38-2.7.37-2.43.37-3.11.38 23.61.37-1.97.38-2.51.37-1.71.37-2.97.38-2.98.37-3.78.38.89.37-3.34.37-4.05.38-2.75.37-4.72.38-3.62.37 7.66.37-4.55.38-4.34.37-3.38.37-5.55.38-3.34.37 2.68.38-1.32.37-1.47.37-1.35.38-1.81.37-2.35.38-2.87.37.62.37-2.29.38-1.83.37-2.28.38-2.56.37-2.74.37-3.47.38 14.41.37-.2.37-.97.38-.68.37-1.08.38-1.28.37-2.02.37.37.38-1.11.37-1.67.38-1.19.37-1.93.37-1.62.38.34.37-.72.38-1.02.37-1.28.37-1.01.38-1.51.37-1.66.38-.82.37-1.32.37-1.34.38-1.72.37-1.49.37-2.02.38-1.91.37 28.81.38.18.37.27.37-.19.38.1.37-.48.38-.21.37.02.37-2.85.38-3.05.37-.06.38-3.26.37-2.49.37-3.16.38-1.55.37-2.34.37-3.1.38 94.56.37-.96.38-.78.37-1.27.37-.44.38-1.56.37-1.31.38.97.37-1.69.37-1.77.38-1.1.37-2.05.38-1.6.37-2.33.37 7.74.38-1.55.37-2.46.38-1 .37-2.59.37-2.25.38 1.29.37-2.4.37-2.5.38-3.08.37-1.65.38-3.24.37-2.25.37-3.3.38 25.02.37-2.31.38-3.06.37-1.66.37-2.94.38-3.6.37.68.38-3.87.37-3.5.37-3.02.38-4.51.37-4.9.37 8.92.38-1.45.37-1.61.38-2.39.37-1.04.37-2.65.38-2.75.37-3.41.38 5.96.37-1.23.37-1.7.38-1.62.37-1.82.38-2.12.37-3.05.37-.36.38-1.94.37-2.52.38-1.83.37-2.45.37-2.72.38-2.94.37 13.82.37-.54.38-.94.37-.63.38-1.19.37-1.14.37-.61.38-1.09.37-1.17.38-1.77.37-.65.37-1.61.38-2.23.37.74.38-1.13.37-.7.37-1.01.38-1.33.37-1.39.37-1.88.38-.67.37-1.14.38-1.71.37-1.27.37-1.88.38-1.79.37-2.37.38 25.85.37.43"/><use xlink:href="#g" color="#FFAB00" transform="matrix(3.75 0 0 3.75 171.2 153.13)"/><use xlink:href="#g" color="#FFAB00" transform="matrix(3.75 0 0 3.75 220.55 22.51)"/></g><path fill="none" stroke="none" stroke-linecap="round" stroke-linejoin="round" stroke-width="0" d="M28 45.01V205M371.99 45.01H28" color="#000"/></svg>