<svg xmlns="http://www.w3.org/2000/svg" xmlns:xlink="http://www.w3.org/1999/xlink" width="800" height="500"><path fill="none" d="M0 0h800v500H0z"/><defs><use xlink:href="#b" id="h" fill="currentColor" stroke="none"/><use xlink:href="#b" id="c" stroke="currentColor" transform="rotate(180)"/><use xlink:href="#c" id="g" fill="currentColor" stroke="none"/><use xlink:href="#d" id="e" stroke="currentColor" transform="rotate(45)"/><use xlink:href="#e" id="i" fill="currentColor" stroke="none"/><path id="d" stroke="currentColor" stroke-width=".222" d="M-1-1h2v2h-2z"/><path id="b" stroke="currentColor" stroke-width=".222" d="m0-1.33-1.33 2h2.66z"/><path id="f" stroke="currentColor" stroke-width=".222" d="M0 1.33 1.265.411.782-1.067l-1.564-.009-.483 1.487z"/><circle id="a" cx="0" cy="0" r="1" stroke="currentColor" stroke-width=".222"/></defs><path fill="none" stroke="#EEE" d="M39.01 410V180.01" class="gridline" color="#000"/><g fill="none" stroke="none" stroke-width="0" color="#000"><path d="M39.01 410v-9m0-220.99v9"/><text fill="#000" font-family="Arial" font-size="16" text-anchor="middle" transform="translate(39.01 442.2)"><tspan> 1</tspan></text></g><path fill="none" stroke="#EEE" d="M117.04 410V180.01" class="gridline" color="#000"/><g fill="none" stroke="none" stroke-width="0" color="#000"><path d="M117.04 410v-9m0-220.99v9"/><text fill="#000" font-family="Arial" font-size="16" text-anchor="middle" transform="translate(117.04 442.2)"><tspan> 2</tspan></text></g><path fill="none" stroke="#EEE" d="M195.07 410V180.01" class="gridline" color="#000"/><g fill="none" stroke="none" stroke-width="0" color="#000"><path d="M195.07 410v-9m0-220.99v9"/><text fill="#000" font-family="Arial" font-size="16" text-anchor="middle" transform="translate(195.07 442.2)"><tspan> 3</tspan></text></g><path fill="none" stroke="#EEE" d="M273.1 410V180.01" class="gridline" color="#000"/><g fill="none" stroke="none" stroke-width="0" color="#000"><path d="M273.1 410v-9m0-220.99v9"/><text fill="#000" font-family="Arial" font-size="16" text-anchor="middle" transform="translate(273.1 442.2)"><tspan> 4</tspan></text></g><path fill="none" stroke="#EEE" d="M351.12 410V180.01" class="gridline" color="#000"/><g fill="none" stroke="none" stroke-width="0" color="#000"><path d="M351.12 410v-9m0-220.99v9"/><text fill="#000" font-family="Arial" font-size="16" text-anchor="middle" transform="translate(351.12 442.2)"><tspan> 5</tspan></text></g><path fill="none" stroke="#EEE" d="M429.15 410V180.01" class="gridline" color="#000"/><g fill="none" stroke="none" stroke-width="0" color="#000"><path d="M429.15 410v-9m0-220.99v9"/><text fill="#000" font-family="Arial" font-size="16" text-anchor="middle" transform="translate(429.15 442.2)"><tspan> 6</tspan></text></g><path fill="none" stroke="#EEE" d="M507.18 410V180.01" class="gridline" color="#000"/><g fill="none" stroke="none" stroke-width="0" color="#000"><path d="M507.18 410v-9m0-220.99v9"/><text fill="#000" font-family="Arial" font-size="16" text-anchor="middle" transform="translate(507.18 442.2)"><tspan> 7</tspan></text></g><path fill="none" stroke="#EEE" d="M585.21 410V180.01" class="gridline" color="#000"/><g fill="none" stroke="none" stroke-width="0" color="#000"><path d="M585.21 410v-9m0-220.99v9"/><text fill="#000" font-family="Arial" font-size="16" text-anchor="middle" transform="translate(585.21 442.2)"><tspan> 8</tspan></text></g><path fill="none" stroke="#EEE" d="M663.23 410V180.01" class="gridline" color="#000"/><g fill="none" stroke="none" stroke-width="0" color="#000"><path d="M663.23 410v-9m0-220.99v9"/><text fill="#000" font-family="Arial" font-size="16" text-anchor="middle" transform="translate(663.23 442.2)"><tspan> 9</tspan></text></g><path fill="none" stroke="#EEE" d="M741.26 410V180.01" class="gridline" color="#000"/><g fill="none" stroke="none" stroke-width="0" color="#000"><path d="M741.26 410v-9m0-220.99v9"/><text fill="#000" font-family="Arial" font-size="16" text-anchor="middle" transform="translate(741.26 442.2)"><tspan> 10</tspan></text></g><path fill="none" stroke="#EEE" d="M0 410h741.26" class="gridline" color="#000"/><g fill="none" stroke="none" stroke-width="0" color="#000"><path d="M741.26 410h-9"/><text fill="#000" font-family="Arial" font-size="16" transform="translate(758.04 415.2)"><tspan>10</tspan></text></g><path fill="none" stroke="#EEE" d="M0 381.25h741.26" class="gridline" color="#000"/><g fill="none" stroke="none" stroke-width="0" color="#000"><path d="M741.26 381.25h-9"/><text fill="#000" font-family="Arial" font-size="16" transform="translate(758.04 386.45)"><tspan>11</tspan></text></g><path fill="none" stroke="#EEE" d="M0 352.5h741.26" class="gridline" color="#000"/><g fill="none" stroke="none" stroke-width="0" color="#000"><path d="M741.26 352.5h-9"/><text fill="#000" font-family="Arial" font-size="16" transform="translate(758.04 357.7)"><tspan>12</tspan></text></g><path fill="none" stroke="#EEE" d="M0 323.75h741.26" class="gridline" color="#000"/><g fill="none" stroke="none" stroke-width="0" color="#000"><path d="M741.26 323.75h-9"/><text fill="#000" font-family="Arial" font-size="16" transform="translate(758.04 328.95)"><tspan>13</tspan></text></g><path fill="none" stroke="#EEE" d="M0 295h741.26" class="gridline" color="#000"/><g fill="none" stroke="none" stroke-width="0" color="#000"><path d="M741.26 295h-9"/><text fill="#000" font-family="Arial" font-size="16" transform="translate(758.04 300.2)"><tspan>14</tspan></text></g><path fill="none" stroke="#EEE" d="M0 266.26h741.26" class="gridline" color="#000"/><g fill="none" stroke="none" stroke-width="0" color="#000"><path d="M741.26 266.26h-9"/><text fill="#000" font-family="Arial" font-size="16" transform="translate(758.04 271.46)"><tspan>15</tspan></text></g><path fill="none" stroke="#EEE" d="M0 237.51h741.26" class="gridline" color="#000"/><g fill="none" stroke="none" stroke-width="0" color="#000"><path d="M741.26 237.51h-9"/><text fill="#000" font-family="Arial" font-size="16" transform="translate(758.04 242.71)"><tspan>16</tspan></text></g><path fill="none" stroke="#EEE" d="M0 208.76h741.26" class="gridline" color="#000"/><g fill="none" stroke="none" stroke-width="0" color="#000"><path d="M741.26 208.76h-9"/><text fill="#000" font-family="Arial" font-size="16" transform="translate(758.04 213.96)"><tspan>17</tspan></text></g><path fill="none" stroke="#EEE" d="M0 180.01h741.26" class="gridline" color="#000"/><g fill="none" stroke="none" stroke-width="0" color="#000"><path d="M741.26 180.01h-9"/><text fill="#000" font-family="Arial" font-size="16" transform="translate(758.04 185.21)"><tspan>18</tspan></text></g><path fill="none" stroke="none" stroke-width="0" d="M0 180.01V410m741.26-229.99H0" color="#000"/><text fill="#000" stroke="none" stroke-width="0" color="#000" font-family="Arial" font-size="16" text-anchor="middle" transform="translate(370.63 478.2)"><tspan>Size × 10</tspan><tspan dy="-8" font-size="12.8">5</tspan></text><text fill="#000" stroke="none" stroke-width="2" color="#000" font-family="Arial" font-size="16" transform="translate(70.43 93.21)"><tspan>Median</tspan></text><g fill="none" stroke="currentColor" stroke-width="2" color="#000"><path stroke="#000" d="M5.43 88.01h53.8M0 325.94 7.8 264l7.81 9.88 7.8 47.14 7.8 14.29 7.8-4.22 7.81-31.29 7.8-21.24 7.8-22 7.8 27.5 7.81 15 7.8 14.1 7.8 9.9 7.81 6.96 7.8-2.08 7.8-10.14 7.8-10.6 7.81-15.23 7.8-8.08 7.8-21.75 7.8-15 7.81-8.43 7.8 9.8 7.8 14.95 7.81 12.43 7.8 8.69 7.8 8.82 7.8 5.45 7.81 5.98 7.8 2.49 7.8 2.27 7.8.67 7.81-1.84 7.8-1.94 7.8-1.37 7.81-11.99 7.8-10.05 7.8-6.34 7.8-7.58 7.81-11.87 7.8-6.79 7.8-2.76 7.8-13.13 7.81-9.69 7.8-7.23 7.8-9.91 7.81-6.3 7.8-5.32 7.8 2.75 7.8 9.01 7.81 8.34 7.8 6.45 7.8 5.47 7.81 5.13 7.8 6.79 7.8 3.38 7.8 5.66 7.81 3.65 7.8 3.97 7.8 3.43 7.8.77 7.81 2.79 7.8 2.33 7.8.75 7.81 2.65 7.8-.09 7.8 2.05 7.8.13 7.81.22 7.8-.22 7.8.62 7.8.83 7.81 1.2 7.8-.13 7.8-.9 7.81-7.33 7.8-5.32 7.8-1.51 7.8-3.33 7.81-.45 7.8.36 7.8-4.61 7.8-5.41 7.81-3.44 7.8-3.37 7.8-1.46 7.81-.81 7.8-2.38 7.8-5.19 7.8-5.34 7.81-5.11 7.8-3.26 7.8-2.78 7.8-2.84 7.81-12.35 7.8 5.27"/><use xlink:href="#g" transform="matrix(9 0 0 9 710.05 215.22)"/><use xlink:href="#g" transform="matrix(9 0 0 9 32.33 88.01)"/></g><text fill="#000" stroke="none" stroke-width="2" color="#000" font-family="Arial" font-size="16" transform="translate(70.43 129.21)"><tspan>Height</tspan></text><g fill="none" stroke="currentColor" stroke-width="2" color="#000"><path stroke="#9F650D" stroke-dasharray="8,4,2,4" d="M5.43 124.01h53.8M0 287.24l7.8-14.48 7.81 6.2 7.8 11.26 7.8 6 7.8-20.89 7.81 7.76 7.8-11.88 7.8-20.82 7.8 30.89 7.81 14.69 7.8-9.48 7.8 3.67 7.81-7.4 7.8.4 7.8-12 7.8 2.85 7.81-13.05 7.8 7.41 7.8-10.78 7.8-9.39 7.81-10.99 7.8 14.1 7.8 17.82 7.81 13.54 7.8.89 7.8-24.01 7.8 26.61 7.81-11.91 7.8 3.49 7.8-15.38 7.8 14.62 7.81-4.99 7.8-19.9 7.8-2.15 7.81-1.27 7.8-10.54 7.8 8.41 7.8-20.16 7.81 11.31 7.8-3.2 7.8-4.44 7.8-.68 7.81-4.53 7.8-4.7 7.8-10.46 7.81-5.98 7.8-6.82 7.8 4.11 7.8 7.95 7.81 11.67 7.8 9.54 7.8 2.63 7.81 6.6 7.8 4.02 7.8 2.73 7.8-10.95 7.81 10.06 7.8-9.63 7.8 5.92 7.8.32 7.81.72 7.8 1.39 7.8-14.26 7.81 1.21 7.8 12.11 7.8-3.07 7.8-.65 7.81-6.81 7.8-3.02 7.8 5.36 7.8-3.2 7.81-.39 7.8-12.92 7.8-4.39 7.81 21.09 7.8-5.11 7.8-6.29 7.8.12 7.81 2.38 7.8-6.43 7.8 8.57 7.8-5.39 7.81-10.53 7.8 5.73 7.8 6.23 7.81 1.28 7.8-4.76 7.8-1.72 7.8.13 7.81-1.05 7.8-3.87 7.8-3.02 7.8-2.55 7.81-.92 7.8-3.49"/><use xlink:href="#c" color="#9F650D" transform="matrix(9 0 0 9 93.63 290.16)"/><use xlink:href="#c" color="#9F650D" transform="matrix(9 0 0 9 32.33 124.01)"/></g><text fill="#000" stroke="none" stroke-width="2" color="#000" font-family="Arial" font-size="16" transform="translate(258.63 93.21)"><tspan>HalfSize</tspan></text><g fill="none" stroke="currentColor" stroke-width="2" color="#000"><path stroke="#F44336" d="M193.63 88.01h53.8M0 342.06l7.8 3.27 7.81-3.85 7.8 1.54 7.8-.73 7.8-.55 7.81 3.77 7.8-1.97 7.8-.63 7.8-.88 7.81 1.9 7.8-.44 7.8.22 7.81-.46 7.8.66 7.8-3.74 7.8.76 7.81-3.26 7.8.1 7.8-4.12 7.8-.72 7.81-.14 7.8-3.94 7.8.84 7.81-2.01 7.8-1.26 7.8.72 7.8-6.29 7.81.51 7.8-1.89 7.8-2.36 7.8-2.81 7.81-.48 7.8.98 7.8-2.31 7.81-2.62 7.8-3.61 7.8 2.22 7.8-2.27 7.81-1.25 7.8-2.28 7.8 1.04 7.8-.78 7.81-.35 7.8 6.92 7.8-4.28 7.81.38 7.8-1.47 7.8-.5 7.8 1.88 7.81-1.77 7.8-.94 7.8 1.84 7.81-3.52 7.8.48 7.8-.57 7.8 1.26 7.81-2.06 7.8 3.18 7.8-2.75 7.8 2.74 7.81-1.41 7.8-1.18 7.8-1.05 7.81 1.94 7.8-.54 7.8-1.06 7.8 3.99 7.81-3.28 7.8-.57 7.8 1.79 7.8-.41 7.81-.17 7.8-2.47 7.8 1.73 7.81 1.85 7.8-1.67 7.8.86 7.8-.87 7.81.44 7.8.77 7.8-1.05 7.8.51 7.81.16 7.8-1.2 7.8 1.35 7.81-1.79 7.8 1.03 7.8-1.93 7.8 2.04 7.81-.51 7.8-.53 7.8.23 7.8 1.14 7.81-.26 7.8 1.47"/><use xlink:href="#h" color="#F44336" transform="matrix(9 0 0 9 218.48 321.36)"/><use xlink:href="#h" color="#F44336" transform="matrix(9 0 0 9 220.53 88.01)"/></g><text fill="#000" stroke="none" stroke-width="2" color="#000" font-family="Arial" font-size="16" transform="translate(258.63 129.21)"><tspan>LogSize</tspan></text><g fill="none" stroke="currentColor" stroke-width="2" color="#000"><path stroke="#FFAB00" d="M193.63 124.01h53.8M0 348.96l7.8 2.29 7.81-2.88 7.8-1.63 7.8 1.58 7.8.17 7.81.17 7.8.56 7.8-1.24 7.8-1.14 7.81.89 7.8-.54 7.8.62 7.81-.49 7.8.53 7.8-3.43 7.8-1.24 7.81-1.67 7.8.36 7.8-1.66 7.8 2.04 7.81-2.07 7.8-1.45 7.8 1.27 7.81 1 7.8-2.16 7.8.01 7.8.54 7.81-.62 7.8-1.73 7.8-1.37 7.8-1.09 7.81-1.17 7.8-.87 7.8.36 7.81-3.24 7.8-3.26 7.8-.54 7.8-1.84 7.81-.96 7.8-3.43 7.8-.82 7.8-2.54 7.81-1.41 7.8-2.18 7.8.34 7.81-.31 7.8-1.22 7.8-.19 7.8-1.63 7.81 1.35 7.8-.42 7.8-3.57 7.81.68 7.8-1.32 7.8-.1 7.8-.07 7.81-.33 7.8 1.93 7.8-.04 7.8 1.1 7.81-1.37 7.8-1.94 7.8.36 7.81 1.8 7.8-2.98 7.8 2.69 7.8-.02 7.81-1.61 7.8.24 7.8.74h7.8l7.81.73 7.8-2.75 7.8.36 7.81 2.61 7.8-1.92 7.8-.82 7.8.51 7.81 1.73 7.8-.49 7.8-.32 7.8-.51 7.81.66 7.8-.62 7.8 1.23 7.81-.35 7.8-.99 7.8-1.09 7.8 2.26 7.81-.62 7.8-1.3 7.8 1.21 7.8-.55 7.81.65 7.8.48"/><use xlink:href="#b" color="#FFAB00" transform="matrix(9 0 0 9 343.32 312.68)"/><use xlink:href="#b" color="#FFAB00" transform="matrix(9 0 0 9 220.53 124.01)"/></g><text fill="#000" stroke="none" stroke-width="2" color="#000" font-family="Arial" font-size="16" transform="translate(446.83 93.21)"><tspan>HalfWeight</tspan></text><g fill="none" stroke="currentColor" stroke-width="2" color="#000"><path stroke="#304FFE" d="M381.83 88.01h53.8M0 392.05l7.8 2.41 7.81-1.51 7.8 1.3 7.8-.93 7.8.04 7.81.33 7.8.31 7.8-.19 7.8-2.76 7.81 2.45 7.8-1.75 7.8 1.27 7.81-1.28 7.8-.52 7.8-3.16 7.8-1.25 7.81-.29 7.8-1.22 7.8-1.32 7.8.34 7.81-.55 7.8-1.96 7.8-3.35 7.81 1.44 7.8-3.9 7.8 1.34 7.8-3.99 7.81.74 7.8-5.03 7.8.46 7.8-4.34 7.81-.21 7.8-1.64 7.8-2.36 7.81-1.33 7.8-2.03 7.8-1.03 7.8-.37 7.81-2.82 7.8-1.07 7.8.07 7.8-.89 7.81-.11 7.8-.16 7.8-1.33 7.81 1.73 7.8-2.17 7.8.88 7.8-.68 7.81.09 7.8-.94 7.8.46 7.81-.72 7.8-.07 7.8.25 7.8 1.54 7.81-1.4 7.8.78 7.8-1.67 7.8.85 7.81.65 7.8.6 7.8-.14 7.81.22 7.8-1.19 7.8-.1 7.8 3.07 7.81-2.3 7.8 1.25 7.8 1.1 7.8-1.53 7.81.68 7.8-2.29 7.8 1.66 7.81.53 7.8.27 7.8-1.84 7.8.09 7.81.49 7.8.28 7.8-.06 7.8-.18 7.81.99 7.8-1.13 7.8.25 7.81-.56 7.8.47 7.8-.81 7.8 1.81 7.81-.88 7.8-.38 7.8.16 7.8.75 7.81-.74 7.8.56"/><use xlink:href="#i" color="#304FFE" transform="matrix(9 0 0 9 468.16 348.83)"/><use xlink:href="#i" color="#304FFE" transform="matrix(9 0 0 9 408.73 88.01)"/></g><text fill="#000" stroke="none" stroke-width="2" color="#000" font-family="Arial" font-size="16" transform="translate(446.83 129.21)"><tspan>LogWeight</tspan></text><g fill="none" stroke="currentColor" stroke-width="2" color="#000"><path stroke="#29C3F6" d="M381.83 124.01h53.8M0 404.51l7.8.61 7.81.07 7.8-1.58 7.8-1.15 7.8.84 7.81-.01 7.8 1.43 7.8-1.06 7.8-.73 7.81.94 7.8-1.89 7.8.91 7.81.05 7.8-2.24 7.8-1.79 7.8.29 7.81-1.23 7.8-.71 7.8-2.58 7.8.68 7.81.13 7.8-.93 7.8.97 7.81-.28 7.8-1.11 7.8.19 7.8-.92 7.81 1.01 7.8-1.33 7.8-.75 7.8-1.52 7.81-.1 7.8-1.71 7.8.56 7.81-1.63 7.8-2.31 7.8-.07 7.8-2.66 7.81-2.83 7.8-1.5 7.8-.15 7.8-4.55 7.81-1.14 7.8-.78 7.8-1.58 7.81-.74 7.8-1.01 7.8 1.21 7.8-4.01 7.81-.76 7.8 1.19 7.8-1.96 7.81.26 7.8-2.17 7.8 1.17 7.8.54 7.81-1.44 7.8 1.53 7.8.28 7.8.6 7.81-1.38 7.8-2.07 7.8 1.96 7.81-.28 7.8-2.36 7.8 1.44 7.8 3.68 7.81-4.16 7.8.07 7.8 1.79 7.8-.36 7.81-.33 7.8-1.38 7.8-.12 7.81 2.95 7.8-1.05 7.8-1.59 7.8-.91 7.81 2.67 7.8-1.45 7.8.28 7.8-.87 7.81 2.27 7.8-1.7 7.8.32 7.81.48 7.8-1.26 7.8-.06 7.8 1.94 7.81-1.02 7.8-1.77 7.8 2.63 7.8-1.72 7.81.46 7.8.56"/><use xlink:href="#e" color="#29C3F6" transform="matrix(9 0 0 9 593.01 363.46)"/><use xlink:href="#e" color="#29C3F6" transform="matrix(9 0 0 9 408.73 124.01)"/></g><text fill="#000" stroke="none" stroke-width="2" color="#000" font-family="Arial" font-size="16" transform="translate(635.03 93.21)"><tspan>Cost</tspan></text><g fill="none" stroke="currentColor" stroke-width="2" color="#000"><path stroke="#4CAF50" d="M570.03 88.01h53.8M0 309.45l7.8-16.19 7.81.99 7.8 6.57 7.8.14 7.8 1.26 7.81-5.78 7.8-4.34 7.8-1.71 7.8 3.25 7.81 4.57 7.8-2.14 7.8 4.81 7.81-.7 7.8-6.55 7.8-1.82 7.8 5.68 7.81-4.48 7.8-4.45 7.8-1.41 7.8-2.64 7.81-2.71 7.8 4.02 7.8-3.42 7.81 7.99 7.8-5.49 7.8 1.22 7.8 3.04 7.81 1.62 7.8 1.36 7.8.28 7.8 1.58 7.81-4.53 7.8 4.4 7.8-4.22 7.81-4.04 7.8-2.78 7.8-6.3 7.8-4.24 7.81-2.28 7.8-1.76 7.8-4.71 7.8-4.09 7.81-.26 7.8-5.69 7.8-2.19 7.81 4.21 7.8-4.96 7.8-2.18 7.8 1.79 7.81.58 7.8-.92 7.8-1.97 7.81-.02 7.8-.47 7.8 2.8 7.8-.92 7.81 1.66 7.8-.81 7.8-.38 7.8-2.15 7.81 3.82 7.8 1.13 7.8-5.23 7.81 6.17 7.8.41 7.8-.3 7.8.67 7.81.04 7.8.26 7.8-1.39 7.8-1.25 7.81-1.17 7.8-5.48 7.8 8.03 7.81-4.39 7.8 1.34 7.8-.67 7.8 2.23 7.81-2.72 7.8-1.1 7.8 1.47 7.8-.79 7.81-.64 7.8-1.72 7.8.13 7.81-.38 7.8-2 7.8.46 7.8 1.23 7.81-.79 7.8-1.29 7.8.39 7.8 2.19 7.81-5.14 7.8 1.35"/><use xlink:href="#f" color="#4CAF50" transform="matrix(9 0 0 9 717.85 244.04)"/><use xlink:href="#f" color="#4CAF50" transform="matrix(9 0 0 9 596.93 88.01)"/></g><path fill="none" stroke="none" stroke-width="0" d="M0 180.01V410m741.26-229.99H0" color="#000"/><text fill="#000" stroke="none" stroke-width="0" color="#000" font-family="Arial" font-size="20" text-anchor="middle" transform="translate(370.63 39.51)"><tspan font-weight="bold">Duration </tspan><tspan> / Size</tspan></text></svg>