<svg xmlns="http://www.w3.org/2000/svg" xmlns:xlink="http://www.w3.org/1999/xlink" viewBox="0 0 400 200"><path fill="none" d="M0 0h400v200H0z"/><defs><use xlink:href="#a" id="g" fill="currentColor" stroke="none"/><use xlink:href="#b" id="h" fill="currentColor" stroke="none"/><use xlink:href="#b" id="c" stroke="currentColor" transform="rotate(180)"/><use xlink:href="#d" id="e" stroke="currentColor" transform="rotate(45)"/><path id="d" stroke="currentColor" stroke-width=".333" d="M-1-1h2v2h-2z"/><path id="b" stroke="currentColor" stroke-width=".333" d="m0-1.33-1.33 2h2.66z"/><path id="f" stroke="currentColor" stroke-width=".333" d="M0 1.33 1.265.411.782-1.067l-1.564-.009-.483 1.487z"/><circle id="a" cx="0" cy="0" r="1" stroke="currentColor" stroke-width=".333"/></defs><path fill="none" stroke="#000" stroke-dasharray="0.1,0.2" stroke-linecap="round" stroke-linejoin="round" stroke-width=".1" d="M54.18 164V60.01" class="gridline" color="#000"/><g fill="none" stroke="none" stroke-linecap="round" stroke-linejoin="round" stroke-width="0" color="#000"><path d="M54.18 164v-6m0-97.99v6"/><text fill="#000" font-family="KaTeX_Main" font-size="8" text-anchor="middle" transform="translate(54.18 172.6)"><tspan> 1</tspan></text></g><path fill="none" stroke="#000" stroke-dasharray="0.1,0.2" stroke-linecap="round" stroke-linejoin="round" stroke-width=".1" d="M89.49 164v-8.99" class="gridline" color="#000"/><g fill="none" stroke="none" stroke-linecap="round" stroke-linejoin="round" stroke-width="0" color="#000"><path d="M89.49 164v-6m0-97.99v6"/><text fill="#000" font-family="KaTeX_Main" font-size="8" text-anchor="middle" transform="translate(89.49 172.6)"><tspan> 2</tspan></text></g><path fill="none" stroke="#000" stroke-dasharray="0.1,0.2" stroke-linecap="round" stroke-linejoin="round" stroke-width=".1" d="M124.81 164v-8.99" class="gridline" color="#000"/><g fill="none" stroke="none" stroke-linecap="round" stroke-linejoin="round" stroke-width="0" color="#000"><path d="M124.81 164v-6m0-97.99v6"/><text fill="#000" font-family="KaTeX_Main" font-size="8" text-anchor="middle" transform="translate(124.81 172.6)"><tspan> 3</tspan></text></g><path fill="none" stroke="#000" stroke-dasharray="0.1,0.2" stroke-linecap="round" stroke-linejoin="round" stroke-width=".1" d="M160.12 164v-8.99" class="gridline" color="#000"/><g fill="none" stroke="none" stroke-linecap="round" stroke-linejoin="round" stroke-width="0" color="#000"><path d="M160.12 164v-6m0-97.99v6"/><text fill="#000" font-family="KaTeX_Main" font-size="8" text-anchor="middle" transform="translate(160.12 172.6)"><tspan> 4</tspan></text></g><path fill="none" stroke="#000" stroke-dasharray="0.1,0.2" stroke-linecap="round" stroke-linejoin="round" stroke-width=".1" d="M195.43 164v-8.99" class="gridline" color="#000"/><g fill="none" stroke="none" stroke-linecap="round" stroke-linejoin="round" stroke-width="0" color="#000"><path d="M195.43 164v-6m0-97.99v6"/><text fill="#000" font-family="KaTeX_Main" font-size="8" text-anchor="middle" transform="translate(195.43 172.6)"><tspan> 5</tspan></text></g><path fill="none" stroke="#000" stroke-dasharray="0.1,0.2" stroke-linecap="round" stroke-linejoin="round" stroke-width=".1" d="M230.74 164v-8.99" class="gridline" color="#000"/><g fill="none" stroke="none" stroke-linecap="round" stroke-linejoin="round" stroke-width="0" color="#000"><path d="M230.74 164v-6m0-97.99v6"/><text fill="#000" font-family="KaTeX_Main" font-size="8" text-anchor="middle" transform="translate(230.74 172.6)"><tspan> 6</tspan></text></g><path fill="none" stroke="#000" stroke-dasharray="0.1,0.2" stroke-linecap="round" stroke-linejoin="round" stroke-width=".1" d="M266.05 164v-8.99" class="gridline" color="#000"/><g fill="none" stroke="none" stroke-linecap="round" stroke-linejoin="round" stroke-width="0" color="#000"><path d="M266.05 164v-6m0-97.99v6"/><text fill="#000" font-family="KaTeX_Main" font-size="8" text-anchor="middle" transform="translate(266.05 172.6)"><tspan> 7</tspan></text></g><path fill="none" stroke="#000" stroke-dasharray="0.1,0.2" stroke-linecap="round" stroke-linejoin="round" stroke-width=".1" d="M301.37 164v-8.99" class="gridline" color="#000"/><g fill="none" stroke="none" stroke-linecap="round" stroke-linejoin="round" stroke-width="0" color="#000"><path d="M301.37 164v-6m0-97.99v6"/><text fill="#000" font-family="KaTeX_Main" font-size="8" text-anchor="middle" transform="translate(301.37 172.6)"><tspan> 8</tspan></text></g><path fill="none" stroke="#000" stroke-dasharray="0.1,0.2" stroke-linecap="round" stroke-linejoin="round" stroke-width=".1" d="M336.68 164V60.01" class="gridline" color="#000"/><g fill="none" stroke="none" stroke-linecap="round" stroke-linejoin="round" stroke-width="0" color="#000"><path d="M336.68 164v-6m0-97.99v6"/><text fill="#000" font-family="KaTeX_Main" font-size="8" text-anchor="middle" transform="translate(336.68 172.6)"><tspan> 9</tspan></text></g><path fill="none" stroke="#000" stroke-dasharray="0.1,0.2" stroke-linecap="round" stroke-linejoin="round" stroke-width=".1" d="M371.99 164V60.01" class="gridline" color="#000"/><g fill="none" stroke="none" stroke-linecap="round" stroke-linejoin="round" stroke-width="0" color="#000"><path d="M371.99 164v-6m0-97.99v6"/><text fill="#000" font-family="KaTeX_Main" font-size="8" text-anchor="middle" transform="translate(371.99 172.6)"><tspan> 10</tspan></text></g><g fill="none" stroke="none" stroke-linecap="round" stroke-linejoin="round" stroke-width="0" color="#000"><path d="M371.99 164h-6"/><text fill="#000" font-family="KaTeX_Main" font-size="8" transform="translate(377.59 166.6)"><tspan>0.20</tspan></text></g><g fill="none" stroke="none" stroke-linecap="round" stroke-linejoin="round" stroke-width="0" color="#000"><path d="M371.99 153.6h-6"/><text fill="#000" font-family="KaTeX_Main" font-size="8" transform="translate(377.59 156.2)"><tspan>0.30</tspan></text></g><g fill="none" stroke="none" stroke-linecap="round" stroke-linejoin="round" stroke-width="0" color="#000"><path d="M371.99 143.2h-6"/><text fill="#000" font-family="KaTeX_Main" font-size="8" transform="translate(377.59 145.8)"><tspan>0.40</tspan></text></g><g fill="none" stroke="none" stroke-linecap="round" stroke-linejoin="round" stroke-width="0" color="#000"><path d="M371.99 132.8h-6"/><text fill="#000" font-family="KaTeX_Main" font-size="8" transform="translate(377.59 135.4)"><tspan>0.50</tspan></text></g><g fill="none" stroke="none" stroke-linecap="round" stroke-linejoin="round" stroke-width="0" color="#000"><path d="M371.99 122.4h-6"/><text fill="#000" font-family="KaTeX_Main" font-size="8" transform="translate(377.59 125)"><tspan>0.60</tspan></text></g><g fill="none" stroke="none" stroke-linecap="round" stroke-linejoin="round" stroke-width="0" color="#000"><path d="M371.99 112.01h-6"/><text fill="#000" font-family="KaTeX_Main" font-size="8" transform="translate(377.59 114.61)"><tspan>0.70</tspan></text></g><g fill="none" stroke="none" stroke-linecap="round" stroke-linejoin="round" stroke-width="0" color="#000"><path d="M371.99 101.61h-6"/><text fill="#000" font-family="KaTeX_Main" font-size="8" transform="translate(377.59 104.21)"><tspan>0.80</tspan></text></g><g fill="none" stroke="none" stroke-linecap="round" stroke-linejoin="round" stroke-width="0" color="#000"><path d="M371.99 91.21h-6"/><text fill="#000" font-family="KaTeX_Main" font-size="8" transform="translate(377.59 93.81)"><tspan>0.90</tspan></text></g><g fill="none" stroke="none" stroke-linecap="round" stroke-linejoin="round" stroke-width="0" color="#000"><path d="M371.99 80.81h-6"/><text fill="#000" font-family="KaTeX_Main" font-size="8" transform="translate(377.59 83.41)"><tspan>1.00</tspan></text></g><g fill="none" stroke="none" stroke-linecap="round" stroke-linejoin="round" stroke-width="0" color="#000"><path d="M371.99 70.41h-6"/><text fill="#000" font-family="KaTeX_Main" font-size="8" transform="translate(377.59 73.01)"><tspan>1.10</tspan></text></g><g fill="none" stroke="none" stroke-linecap="round" stroke-linejoin="round" stroke-width="0" color="#000"><path d="M371.99 60.01h-6"/><text fill="#000" font-family="KaTeX_Main" font-size="8" transform="translate(377.59 62.61)"><tspan>1.20</tspan></text></g><path fill="none" stroke="none" stroke-linecap="round" stroke-linejoin="round" stroke-width="0" d="M22.4 60.01V164M371.99 60.01H22.4" color="#000"/><text fill="#000" stroke="none" stroke-linecap="round" stroke-linejoin="round" stroke-width="0" color="#000" font-family="KaTeX_Main" font-size="8" text-anchor="middle" transform="rotate(-90 60.605 51.405)"><tspan font-weight="bold">Duration </tspan><tspan> in milliseconds</tspan></text><text fill="#000" stroke="none" stroke-linecap="round" stroke-linejoin="round" stroke-width="0" color="#000" font-family="KaTeX_Main" font-size="8" text-anchor="middle" transform="translate(197.19 190.6)"><tspan>Operations / 10</tspan><tspan dy="-4" font-size="6.4">5</tspan></text><text fill="#000" stroke="none" stroke-linecap="round" stroke-linejoin="round" color="#000" font-family="KaTeX_SansSerif" font-size="18" transform="translate(162.4 42.74)"><tspan>LBSTBottomUp</tspan></text><g fill="none" stroke="currentColor" stroke-linecap="round" stroke-linejoin="round" color="#000"><path stroke="#3B75EA" d="M93.4 36.89h56.4M22.4 140.08l.35 15.54.36-8.17.35-.18.35 7.46.36-8 .35-.8.35 8.04.35-.46.36-.08.35-11.29.35-.18.36 8.4.35 2.48.35.07.36-.83.35-8.9.35-8.56.36 7.43.35 7.58.35-8.28.36-.04.35-.51.35-.81.35 7.83.36-.6.35-.64.35-15.54.36 8.02.35 8 .35.61.36.42.35-7.1.35-.26.36-8.67.35 16.67.35-8.21.36.76.35.3.35-.21.35 8.24.36-.33.35.53.35-14.12.36 3.77.35 10.25.35-.28.36-.11.35-7.51.35-8.12.36 7.47.35.13.35-.01.36-.14.35 7.28.35-7.75.35 7.93.36-.12.35-10.28.35.64.36 7.93.35-.23.35.06.36-7.23.35-.45.35-7.69.36 7.96.35 8.26.35-7.77.36.05.35-.14.35 8.21.35-.32.36-7.82.35.33.35 7.83.36.22.35.21.35-8.26.36-.3.35-8.56.35 8.63.36-.18.35-.14.35 7.99.36-8.16.35 8.14.35-.37.35-7.58.36-.44.35 8.17h.35l.36-7.92.35 7.72.35-23.96.36 23.5.35-7.83.35.17.36-.11.35-.67.35 8.76.36-.41.35.47.35-15.23.35 1.18.36 8.67.35 4.19.35-7.9.36.45.35-8.8.35 16.46.36-16 .35 7.87.35 7.87.36-7.98.35 8.23.35-.13.36-8.94.35.6.35 8.13.35.11.36-7.95.35-.02.35-8.89.36 16.65.35-8.54.35-7.26.36 15.47.35-7.9.35 7.98.36.28.35-8.04.35.1.36 7.87.35.02.35-8.08.35 7.92.36-24.5.35 24.29.35-8.32.36.01.35-.22.35.1.36 8.06.35.28.35.11.36-16.9.35 16.69.35.12.36-7.9.35 7.85.35-24.4.35 23.26.36-7.37.35.4.35-.66.36.01.35 8.11.35.48.36-8.44.35.07.35 7.86.36.38.35-8.15.35 8.05.35-24.74.36 23.92.35-7.97.35-7.59.36 15.74.35-8.06.35 8.13.36.37.35-9.41.35.71.36 7.9.35.49.35-8.41.36 8.07.35-24.25.35 24.05.35-8.13.36-7.72.35 15.92.35-8.72.36 8.46.35.29.35-8.93.36.67.35 7.6.35.49.36-8.05.35.27.35-8.94.36 16.12.35-16.15.35 7.75.35.12.36 8.31.35-.23.35.43.36-9 .35.31.35 8.67.36-7.93.35 7.88.35-16.39.36 7.57.35.5.35-8.16.36 15.64.35-7.58.35 7.98.35.33.36-13.25.35-2.93.35 8.28.36 3.71.35-7.34.35 2.56.36-8.87.35 16.67.35-8.15.36-8.15.35 8.26.35 7.74.36.73.35.17.35-8.88.35.47.36 8.23.35-8.3.35 8.34.36-16.85.35 8.09.35.05.36-7.85.35 15.99.35-7.93.36 8.02.35.29.35-7.75.36-.58.35 7.47.35-7.24.35 7.47.36-8.44.35-8.25.35 16.76.36-23.81.35 23.13.35-7.32.36 7.66.35.05.35-7.57.36 7.63.35-7.93.35 8.19.36-7.81.35 8.04.35-25.27.35 24.67.36-7.9.35-8.28.35 15.93.36-8.27.35 8.73h.35l.36-8.52.35.1.35 7.84.36-7.27.35 7.81.35-16.27.36 7.14.35.65.35-7.84.35 15.2.36-7.98.35 8.11.35.52.36-8.22.35-.38.35 8.61.36-8.16.35 7.89.35-15.93.36 7.5.35 7.57.35-23.82.36 24.12.35-8.46.35 8.72.35-.03.36.71.35-17.21.35 16.3.36-7.71.35 7.62.35-7.74.36-9.41.35 17.19.35-24.05.36 22.85.35-6.91.35 7.35.36.61.35-.06.35-8.49.35.2.36.79.35 7.23.35-7.34.36-9.47.35 16.67.35-23.85.36 23.53.35-8.01.35 7.95.36.08.35.28.35-8.01.36-.38.35 8.65.35-8.28.35.03.36-8.54.35 16.3.35-15.96.36 7.33.35 8.3.35-8.17.36 8.45.35-.56.35-8.16.36.26.35 8 .35-7.83.35.52.36-9.3.35 15.95.35-15.34.36 7.4.35 7.89.35-7.75.36 7.87.35.4.35-7.92.36-.42.35.05.35 7.84.36-7.33.35-9.02.35 16.28.35-15.88.36 7.77.35 8.2.35-8.85.36 9.01.35-.03.35-7.84.36-1.37.35 1.45.35 7.51.36-7.48.35-9.67.35 16.55.36-15.81.35 8.14.35 7.73.35-7.76.36 7.9.35-.19.35-7.52.36-1.08.35.35.35 8.33.36-7.61.35-9.03.35 16.18.36-24.17.35 24.12.35.34.36-8.21.35 7.81.35.81.35-8.41.36-.52.35.48.35 7.89.36-7.94.35-8.84.35 16.51.36-24.55.35 24 .35.64.36-8.35.35 8.58.35.08.36-16.86.35 15.9.35-7.7.35 8.2.36-16.67.35 7.22.35 8.85.36-24.65.35 24.56.35-7.34.36 7.45.35.31.35-12.11.36-23.11.35 21.84.35-3.42.36 14.44.35-16.19.35 7.98.35 9.6.36-25.89.35 25.77.35-8.37.36 8.3.35.59.35-8.25.36-.54.35.16.35 8.51.36.18.35-16.61.35 7.95.36-7.54.35 7.12.35 8.75.35-8.1.36 8.5.35.04.35-8.06.36-.72.35.75.35 7.84.36.18.35-25.69.35 25.19.36-24.84.35 23.91.35 1.01.36-9.04.35 8.78.35.08.35-8.15.36-.28.35-.23.35 8.42.36-15.83.35 7.01.35 8.48.36-25.11.35 24.78.35.96.36-8.39.35 8.21.35.09.36-17.03.35 8.16.35 8.34.35.26.36-16.53.35 7.34.35 8.68.36-24.81.35 25.09.35-8.25.36 7.82.35.39.35-8.37.36-.92.35.47.35 8.71.36.4.35-26.13.35 25.32.35-24.12.36 23.98.35.05.35-7.74.36 8.03.35-.03.35-8.58.36-.06.35.12.35 8.69.36-16.61.35 7.72.35 8.17.36-25.32.35 25.07.35.38.35-7.83.36 7.88.35-7.67.35-.68.36-.2.35 8.8.35.1.36-17.19.35 7.66.35-7.37.36 7.8.35 8.22.35.23.35-8.42.36 8.77.35-8.23.35-.57.36.39.35 8.54.35-8.38.36-9.67.35 17.2.35-24.55.36 24.08.35.53.35-8 .36 8.4.35.38.35-17.44.35 8.36.36 8.06.35.63.35-16.91.36 8.1.35 8.19.35-24.58.36 24.7.35.21.35-8.58.36 8.45.35-8.12.35-.51.36-.28.35 9.02.35-8.49.35-8.8.36 16.07.35-23.99.35 24.54.36-.03.35-8.06.35 7.84.36.74.35-8.47.35-8.62.36 16.55.35.2.35-16.49.36 7.39.35 8.68.35-25.72.35 25.85.36-.34.35-8.34.35 8.88.36-8.35.35-.36.35-.14.36 8.48.35.48.35-25.69.36 24.82.35-24.81.35 24.69.36.47.35-8.39.35 8.53.35-.09.36-16.6.35 7.89.35 8.18.36.67.35-17.02.35 7.79.36.82.35-9.63.35 17.71.36-.33.35-8.3.35 8.46.36-7.77.35-8.96.35 16.18.35.48.36-8.01.35-8.87.35 16.16.36-24.42.35 24.45.35.63.36-8.34.35 8.12.35.34.36-16.7.35 7.63.35 8.63.36.29.35-16.69.35 7.23.35-7.49.36 7.84.35 8.73.35.01.36-8.71.35 9.06.35-8.26.36-8.84.35 16.8.35.19.36-9.42.35-7.68.35 16.42.36-24.96.35 24.56.35.59.35-8.34.36 8.31.35.06.35-18.02.36 9.46.35 8.07.35.73.36-16.7.35 7.58.35-16.48.36 24.59.35.01.35-8.27.36 8.84.35-.44.35-8.14.35-9.17.36 17.58.35.19.35-8.42.36-8.85.35 8.96.35-9.28.36 17.45.35.17.35-8.67.36 8.19.35-8.42.35-8.65.36 16.92.35.41.35-8.69.35-9.09.36 16.5.35-24.47.35 24.86.36.05.35-8.2.35 8.25.36.12.35-25.34.35 24.44.36.6.35.55.35-17.14.35 7.66.36-15.98.35 24.15.35.66.36.79.35-9.03.35 8.34.36-16.41.35 7.16.35 9.35.36-.18.35-8.34.35-8.2.36.13.35 7.36.35 9.13.35.02.36-8.41.35 8.69.35-8.38.36-9.25.35 17.05.35.49.36-8.74.35-7.95.35 7.56.36-8.9.35 17.14.35.47.36-8.22.35 7.99.35.31.35-25.37.36 24.55.35.9.35-8.42.36-8.43.35 8.37.35-9.03.36 16.48.35.2.35-7.71.36 8.24.35-.54.35-24.15.36 23.57.35.86.35-7.67.35-.41.36-.41.35-16.67.35 24.51.36.88.35.07.35-8.5.36 8.05.35-16 .35 6.58.36 9.55.35.16.35-8.81.36-8.5.35-.36.35 7.88.35 9.4.36.07.35-8.48.35 8.54.36-8.2.35-8.99.35 16.66.36.59.35-8.99.35-7.97.36 8.24.35-8.97.35 16.7.36.4.35-7.31.35 7.8.35-.87.36-24.36.35 24.49.35.35.36-8.2.35-8.68.35 8.38.36-9.48.35 17.83.35.16.36-8.04.35 8.03.35.13.36-24.61.35 23.75.35.58.35-8.48.36.56.35-9.34.35-.87.36 17.7.35.27.35-7.65.36 7.68.35.34.35-66.4.36 51.01.35 8.36.35-7.01.36-.02.35-8.88.35.02.35 15.16.36 1.91.35-8.34.35 7.53.36.5.35-19.71.35 7.53.36 13.29.35-8.19.35 8.6.36-24.49.35 7.01.35 17.07.36 1.12h.35l.35-8.57.35 9.44.36-22.93.35 12.89.35 8.84.36-7.77.35 8.17.35-16.87.36-.27.35 7.9.35 8.89.36.87.35-9.33.35 8.72.36-22.31.35 13.56.35 8.67.35.05.36-8.14.35-8.11.35 7.24.36-8.62.35 17.27.35.54.36-8.43.35 8.41.35-.05.36-32.3.35 32.51.35 3.07.36-9.1.35-8.03.35 8.04.35-8.64.36 16.9.35.45.35-8.28.36 8.22.35.04.35-25.61.36 24.85.35.72.35-8.66.36.45.35-9.21.35.49.35 16.21.36.6.35-8.11.35 7.67.36.37.35-24.97.35 24.54.36.25.35-8.15.35.25.36-9.77.35-.27.35 16.94.36.97.35-8.76.35 8.76.35-.28.36-24.91.35 24.41.35.87.36-8.51.35.18.35-9.32.36-.37.35 16.82.35.66.36-7.9.35 8.01.35.26.36-24.95.35 24.16.35.85.35-8.88.36.57.35-9.02.35-.34.36 17.21.35-.26.35-7.73.36 7.87.35.08.35-16.75.36 7.82.35 8.84.35-8.37.36.12.35-9.17.35-.03.35 16.36.36 1.4.35-9.03.35 8.9.36-.26.35-17.26.35 8.38.36 8.5.35-7.85.35-.14.36-8.81.35.31.35 16.43.36.48.35-7.8.35 7.48.35.18.36-16.41.35 7.44.35 8.74.36-8.04.35.12.35-9.28.36.1.35 16.13.35.96.36-8.07.35 8.03.35-7.63.36-.77.35-.7.35 8.98.35-7.91.36.48.35-9.1.35-.49.36 16.34.35.29.35-7.95.36 7.9.35-7.81.35-.73.36.02.35 8.67.35-8.19.36-.16.35-8.85.35.4.35 16.36.36.52.35-7.8.35 7.71.36-7.82.35-.58.35-.61.36 8.96.35-7.63.35-.62.36-9.56.35.63.35 16.62.36.82.35-8.44.35 7.95.35-8.15.36-.42.35.09.35 8.9.36-8.52.35.27.35-9.34.36.58.35 16.12.35.68.36-8.46.35 7.93.35-8.27.36.35.35-.52.35 8.43.35-7.89.36.23.35-8.86.35-2.05.36 18.58.35.16.35-7.56.36 7.55.35-8.56.35.3.36-.73.35 9.16.35-8.78.36-7.49.35 6.77.35-8.07.35 17.44.36.18.35-8.53.35 7.81.36-8.04.35.03"/><use xlink:href="#a" color="#3B75EA" transform="matrix(3 0 0 3 368.81 117.08)"/><use xlink:href="#a" color="#3B75EA" transform="matrix(3 0 0 3 121.6 36.89)"/></g><text fill="#000" stroke="none" stroke-linecap="round" stroke-linejoin="round" color="#000" font-family="KaTeX_SansSerif" font-size="18" transform="translate(162.4 76.49)"><tspan>LBSTTopDown</tspan></text><g fill="none" stroke="currentColor" stroke-linecap="round" stroke-linejoin="round" color="#000"><path stroke="#29C3F6" stroke-dasharray="4.5,2.0,0.5,2.0,0.5,2.0" d="M93.4 70.64h56.4M22.4 147.16l.35 8.44h.36l.35-23.77.35 23.16.36-15.69.35 15.27.35-8.15.35 7.62.36-8.33.35 7.73.35.31.36-8.31.35.1.35 7.54.36.15.35-.24.35-.38.36-8.44.35 7.99.35-23.01.36 22.74.35-15.2.35 15.17.35-7.73.36 7.65.35-7.84.35 7.9.36-7.89.35 7.7.35-7.88.36 7.86.35-.27.35-.04.36-8.8.35 8.8.35-8.28.36-8.16.35.31.35 15.1.35-7.59.36 7.84.35-7.99.35 7.77.36-7.6.35.26.35 8.01.36.08.35-.02.35-.05.36-8.77.35 8.38.35-23.37.36 15.36.35-.01.35 7.57.35-7.5.36 7.67.35-7.7.35 7.34.36-7.36.35-.09.35 7.68.36.03.35-.19.35-8.21.36 8.28.35-24 .35 15.6.36-.11.35 8.03.35-8.05.35 7.94.36-7.73.35-.21.35 7.66.36-8.25.35 8.51.35-.24.36.22.35-8.26.35 7.94.36-23.7.35 15.57.35.08.36 7.88.35-8.01.35.28.35 7.65.36-7.46.35-.69.35 8.02.36.27.35-.4.35.24.36-8.44.35.59.35-16.34.36 15.57.35 8.21.35-7.91.36 8.11.35-8.36.35 8.03.35-7.76.36-.17.35 7.66.35.04.36.26.35-7.87.35 7.36.36-22.99.35 14.81.35.71.36-.3.35 7.47.35-7.63.36 8.16.35-8.01.35-.26.35 8.27.36-.26.35-.09.35.14.36-8.16.35-8.14.35.15.36 7.23.35 8.49.35-8 .36.35.35 7.52.35-7.74.36-.16.35 7.78.35.06.35.09.36.16.35-8.23.35-.16.36-16.33.35 16.36.35 7.91.36-7.65.35 7.59.35-8.36.36.33.35-.02.35 8.03.36-.17.35.23.35-.03.35-8.08.36.08.35-16.49.35 15.98.36 7.94.35-7.92.35.14.36 7.66.35-7.66.35-.32.36 8.09.35.13.35-.12.35-.33.36-7.69.35-15.61.35 15 .36-.07.35 8.61.35-7.93.36-.34.35 7.73.35-7.59.36-.33.35 7.75.35.48.36-.14.35-7.75.35-.03.35-15.84.36 22.82.35-7.96.35.61.36 7.82.35-7.77.35 7.58.36-7.98.35.19.35 7.77.36.06.35.39.35-8.07.36-.23.35-16.54.35 16.32.35 7.57.36-7.66.35 7.94.35-8.12.36.11.35-.13.35 7.96.36.45.35.05.35-.15.36-15.76.35-.13.35 7.11.36-.01.35 8.09.35-7.7.35-.03.36 7.81.35-7.8.35-.57.36 8.29.35.2.35.08.36-8.09.35-.27.35-16.22.36 15.92.35 7.92.35-7.63.36 7.72.35-8.09.35.03.35.39.36 7.73.35.11h.35l.36.2.35-16.2.35-7.91.36 22.65.35-7.4.35 8.27.36-7.67.35-.53.35 7.99.36-7.94.35.01.35 7.39.35.62.36.18.35-15.78.35 15.11.36-23.85.35 15.96.35 8.12.36-7.87.35.05.35 7.67.36-8.3.35.2.35 7.96.36.1.35.36.35-8.6.35-.12.36-15.98.35 15.2.35 8.14.36-7.16.35 7.7.35-7.64.36-.23.35.14.35 7.9.36-.11.35-.05.35.21.36-16.38.35-7.42.35 15.49.35 7.6.36-7.41.35 7.59.35-8.3.36.47.35-.38.35 8.3.36.27.35-.03.35.17.36-16.67.35.28.35-.47.36 15.53.35.53.35-7.94.35-.07.36-.03.35-.32.35 7.79.36.18.35.55.35-.19.36-15.79.35.04.35 6.87.36.17.35 8.54.35-8.19.36.57.35 7.4.35-8.39.35.63.36 7.55.35.46.35-.06.36-15.71.35 7.27.35-9.21.36 8.72.35 8.56.35-8.11.36.46.35 7.26.35-8.09.36.07.35 8.09.35.14.35.12.36-15.54.35 14.85.35-23.89.36 15.67.35 8.43.35-8.35.36 7.9.35-7.86.35.21.36-.3.35 8.1.35.44.35-.54.36-15.02.35 7 .35-8.61.36 8.35.35 8.28.35-8.29.36 8.41.35-8.27.35-.49.36.14.35 8.28.35.12.36-.01.35-8.11.35-8.05.35-.6.36 7.87.35 8.1.35-8.11.36 8.19.35-7.64.35-8.33.36 15.68.35.15.35.31.36.06.35-8.05.35-16.42.36 7.37.35 16.2.35.41.35-8.46.36.57.35 7.73.35-16.13.36 15.95.35.45.35.33.36-.34.35-15.87.35-1.31.36-.25.35 16.42.35.36.36-7.85.35.1.35 7.83.35-16.64.36 16.28.35.27.35.32.36.05.35-16.3.35-8.7.36 15.69.35 8.22.35.17.36-7.78.35-.01.35.1.36-.52.35 8.77.35.16.35.21.36-.29.35-16.67.35-8.57.36 15.64.35 8.72.35-7.75.36 7.95.35-7.7.35-.4.36-.3.35 8.57.35.02.36-.15.35-7.78.35-9.41.35-.12.36 7.97.35 8.81.35-7.68.36 7.65.35-8.12.35-.39.36-.12.35 8.79.35.11.36.35.35-8.41.35-16.65.36 6.77.35 17.01.35.26.35-7.83.36-.14.35 8.37.35-16.83.36 16.55.35-.16.35.13.36.54.35-16.87.35-.42.36-.11.35 16.4.35.67.36-8.64.35.07.35 8.26.35-16.63.36 16.4.35.55.35-.2.36.34.35-25.38.35 7.97.36 7.9.35 8.24.35-7.82.36 8.25.35-8.3.35-.17.36-.05.35 8.34.35.49h.35l.36-7.91.35-9.05.35-8.52.36 24.5.35.41.35-8.11.36 8.08.35-8.12.35-8.28.36 15.27.35 1.3.35.14.36.09.35-16.58.35-.99.35-.23.36 16.81.35-7.62.35 7.76.36-8.04.35 8.33.35-16.75.36 16.42.35.31.35-.06.36-8.02.35-9.05.35-8.34.36 24.35.35.7.35-8.09.35 7.99.36-8.01.35-7.87.35 15.26.36.84.35-.09.35-.14.36-7.78.35-17.16.35 7.72.36 16.77.35.64.35-8.46.35.1.36 8.04.35-16.69.35 16.49h.36l.35.66.35.19.36-25.71.35-.19.35 24.14.36.73.35-8.2.35 8.07.36-8.71.35-7.18.35 15.61.35.1.36.64.35.08.35-8.53.36-16.99.35 8.08.35 16.26.36.36.35-8.17h.35l.36 8.29.35-16.54.35 16.6.36.3.35-.02.35-.01.35-24.69.36-.57.35 24.27.35.61.36-7.84.35 7.82.35-8.65.36.65.35-.47.35 8.45.36.01.35.26.35-16.35.36-1.1.35-.47.35 17.36.35.09.36-7.85.35-.63.35 8.6.36-16.88.35 16.3.35.33.36.24.35-7.81.35-9.01.36-8.32.35 24.18.35.42.36-7.75.35 7.84.35-7.96.35-8.46.36 16.06.35.37.35.09.36.25.35-16.22.35-.87.36-1.1.35 16.99.35.78.36-8.02.35-.85.35 8.59.36-16.35.35 16.09.35.44.35.07.36-7.73.35-8.74.35-9.04.36 25.08.35.06.35-8.29.36.39.35 8.13.35-16.66.36 16.2.35-.1.35.49.36.19.35-16.82.35-17.11.35 31.77.36 1.56.35-7.91.35 8 .36-8.38.35.33.35-.91.36 8.74.35.06.35.3.36-16.43.35-.24.35-1.21.36 16.93.35.8.35-8.4.35-.54.36 8.54.35-16.48.35 16.09.36.48.35.1.35-7.88.36-.64.35-25.01.35 32.4.36.69.35-7.57.35-.41.36 7.92.35-16.56.35 16.13.35.55.36-.12.35.61.35-17.06.36-16.82.35 32.12.35.85.36-7.53.35 7.94.35-8.61.36.23.35-.71.35 8.46.36.76.35-.23.35-16.29.35-8.43.36 15.35.35 8.5.35.23.36-7.89.35-.15.35 8.37.36-17.05.35 16.69.35.7.36-.41.35-16.57.35 8.23.35-17.45.36 25.34.35.12.35-8.41.36.48.35 8.09.35-16.43.36 15.87.35.72.35.17.36-8.48.35-.25.35-25.23.36 32.71.35.78.35-7.84.35-.47.36 7.69.35-15.77.35 15.72.36.13.35.5.35.54.36-17.11.35-16.18.35 31.07.36 1.35.35-8.15.35 8.06.36-8.15.35 8.03.35-16.74.35 16.83.36.22.35.45.35-16.66.36-16.26.35 30.77.35 1.22.36.12.35-7.6.35-.48.36 7.98.35-16.52.35 16.7.36-.08.35.32.35-15.95.35-.32.36-1.51.35 16.39.35 1.47.36-8.25.35-.88.35 8.34.36-15.7.35 15.86.35.27.36-.07.35-7.99.35-8.62.36-9.3.35 25.12.35.37.35-7.43.36-.48.35 7.77.35-15.95.36 15.5.35.81.35-.38.36-7.47.35-.6.35-24.69.36 31.91.35.99.35-8.59.36 9.14.35-8.67.35-8.06.35 15.48.36.7h.35l.35-7.76.36-.65.35-24.67.35 31.58.36 1.17.35-8.21.35 8.03.36-7.91.35.42.35-1.19.36 8.34.35.61.35-7.9.35-1.02.36-24.68.35 31.94.35 1.18.36-7.41.35 7.22.35-7.98.36 8.35.35-16.67.35 16.71.36.17.35-7.65.35-1.02.36-16.25.35 15.01.35 9.2.35.32.36-7.67.35-.52.35 8.19.36-16.46.35 16.32.35.32.36-7.71.35-.6.35-16.64.36 15.38.35 9.13.35.34.36-8.43.35.36.35 7.85.35-16.53.36 16.26.35.43.35-8.12h.36l.35-16.77.35 15.53.36 8.46.35.59.35-8.38.36.58.35 8.05.35-16.51.36 16.19.35.11.35-.03.35-16.21.36-8.41.35 15.22.35 8.73.36.96.35-8.5.35.13.36 7.9.35-16.77.35 16.25.36.42.35.37.35-16.88.36 7.68.35-16.8.35 24.52.35 1.15.36-8.17.35 8.45.35-9.16.36-7.98.35 16 .35.56.36.48.35-16.8.35 8 .36-16.71.35 24.1.35.82.35-8.4.36 8.36.35-8.05.35-8.31.36 16.02.35.19.35.45.36-16.24.35 7.46.35-16.88.36 24.75.35.91.35-8.16.36 7.47.35-7.9.35-8.24.35 16.04.36.71.35-.21.35-16.71.36 8.01.35-16.86.35 24.98.36.33.35-7.97.35 8.17.36-8.24.35-8.36.35 15.7.36.61.35.14.35-16.45.35 7.67.36-16.64.35 24.68.35.48.36-8.12.35 7.91.35-7.46.36-8.72.35 16.43.35.49.36-.06.35-8.54.35-8.47.36-8.52.35 24.04.35.59.35-7.28.36 7.89.35-8.14.35-8.28.36 15.96.35.44.35-.23.36-16.02.35 7.57.35-17.12.36 24.64.35.84.35-8.39.36 8.28.35-8.05.35-8.9.35 16.3.36.58.35-.58.35-15.61.36 7.44.35-16.85.35 24.75.36 1.22.35-8.59.35 8.26.36-8.41.35-8.1.35 16.1.36.02.35.23.35-16.14.35-.85.36-.52.35 17.01.35.37.36-7.92.35.06.35 8.06.36-16.83.35 16.22.35.74.36-8.4.35.01.35-8.86.36-.78.35 16.81.35 1.02.35-8.42.36.1.35 7.91.35-16.24.36 15.96.35.49.35-8.19.36-8.48.35 7.61.35-8.54.36 16.8.35.36.35-7.55.36-.49.35 8.4.35-17.06.35 16.65.36.31.35-7.81.35-9.49.36 8.2.35-8.44.35 16.58.36 1.12.35-8.38.35-.11.36 7.77.35-16.39.35 16.37.36.24.35-7.68.35-8.94.35-.15.36 7.93.35 8.54.35.52.36-8.54.35.17.35 8.15.36-16.9.35 17.09.35-.06.36-7.87.35-8.96h.35l.36 8.04.35 8.36.35.12.35-7.81.36-.28.35 7.8.35-16.5.36 16.52.35.44"/><use xlink:href="#g" color="#29C3F6" transform="matrix(3 0 0 3 77.49 146.45)"/><use xlink:href="#g" color="#29C3F6" transform="matrix(3 0 0 3 121.6 70.64)"/></g><text fill="#000" stroke="none" stroke-linecap="round" stroke-linejoin="round" color="#000" font-family="KaTeX_SansSerif" font-size="18" transform="translate(162.4 110.24)"><tspan>WBSTBottomUp</tspan></text><g fill="none" stroke="currentColor" stroke-linecap="round" stroke-linejoin="round" color="#000"><path stroke="#D336C8" d="M93.4 104.39h56.4M22.4 156.4l.35-.57.36-.06.35-.49.35-.18.36-8.18.35-7.77.35 7.35.35 7.66.36-8.12.35 7.69.35-15.36.36 15.15.35-.09.35-8.17.36-.51.35.22.35 8.02.36-.36.35-.08.35-.32.36-.16.35-8.38.35-15.35.35 23.25.36.32.35-8.03.35 7.78.36-16.17.35 16.23.35-.26.36-16.67.35 8.32.35 7.95.36.08.35-.29.35.07.36-.17.35-8.33.35-16.12.35 24 .36-7.63.35 7.42.35-15.17.36 15.01.35.36.35-16.24.36 7.97.35 7.45.35.47.36-.1.35-.16.35-.05.36-8.07.35-7.89.35 7.53.35-.21.36 8.21.35-7.92.35.19.36 7.63.35-8.39.35-8.1.36 16.21.35-.35.35.23.36-.03.35-.02.35-7.67.36-15.89.35 23.06.35-7.37.35 7.4.36-7.69.35-.12.35 7.73.36-8.16.35-8.13.35 16.3.36-.02.35-.08.35.16.36-.28.35-8.19.35-15.67.36 23.72.35-8.16.35 7.98.35-15.72.36 15.67.35-8.33.35-7.74.36 15.64.35.12.35.04.36.21.35-.27.35-8.04.36-7.53.35 7.37.35.24.36 7.51.35-7.36.35-.43.35 8.16.36-8.27.35-8.43.35 16.25.36.14.35-.11.35.1.36-8.26.35-.19.35-8.16.36 16.22.35-7.99.35.27.36-.37.35 7.97.35-8.01.35-7.89.36 15.6.35.15.35.34.36-.12.35-8.22.35.09.36-8.07.35 15.69.35-8.29.36.62.35.05.35 7.66.36-8.21.35-7.99.35 15.98.35.13.36-.29.35.08.35-7.84.36-.35.35-7.64.35 7.63.36 7.74.35-7.69.35-.52.36 7.82.35-7.93.35-7.36.36 15.74.35.1.35.02.35-.16.36-8.41.35.11.35-7.77.36 7.9.35 7.89.35-8.17.36.51.35-1 .35.42.36-.22.35 8.24.35.17.35.04.36-.14.35-8.35.35-15.54.36 23.09.35-7.35.35.05.36 7.54.35-8.13.35-.09.36.08.35-.27.35 8.63.36-.07.35.13.35-8.32.35-.03.36-8.18.35 15.98.35-7.84.36.04.35 7.94.35-8.18.36-.25.35-8.05.35 16.04.36.31.35.04.35.18.36-8.27.35-7.89.35 7.45.35-.12.36 8.07.35-8.06.35.52.36-.64.35-.07.35-.11.36 8.16.35.04.35.23.36-8.28.35.39.35-7.99.36 7.01.35 8.24.35-7.79.35 8.05.36-15.99.35 7.93.35-.54.36 8.34.35-.1.35.43.36-8.15.35 7.89.35-24.16.36 24.03.35-8.16.35.25.36 7.61.35-7.5.35-.74.35.27.36-.08.35 7.94.35-.04.36.46.35-8.25.35-7.87.36 7.62.35.3.35.4.36 7.29.35-7.59.35-1.33.36.61.35-.25.35 8.73.35-.4h.36l.35-8.05.35-.3.36-7.98.35 8.06.35 7.67.36-8.37.35 8.59.35-16.35.36 8.12.35-.04.35 7.95.36.23.35-.24.35-8.24.35 8.35.36-23.45.35 15.3.35 8.01.36-8.73.35 8.91.35-16.51.36 8.25.35-.55.35 8.09.36.45.35-.14.35-7.87.36 7.84.35-23.1.35 15.1.35 7.8.36-8.23.35 8.37.35-17.23.36 9 .35-.21.35 8.13.36.05.35-.11.35-8.06.36 7.97.35-23.75.35 23.4.36-7.91.35-.73.35 9.05.35-17.04.36 8.9.35.19.35 7.31.36.5.35-.18.35-7.81.36 7.68.35-23.14.35 22.48.36-7.41.35-.65.35 8.59.36-17.04.35 8.71.35.1.35 8.11.36.2.35-.01.35-8.41.36 8.26.35-23.29.35 22.79.36-7.73.35-.58.35 8.66.36-16.19.35 8.21.35-.19.36 7.96.35-.12.35.6.35-8.47.36 8.07.35-23.77.35 15.82.36-1.12.35 8.75.35.15.36-16.1.35 7.53.35.07.36 8.03.35-.08.35.33.35-8.01.36 8.36.35-23.97.35 15.7.36-.56.35 7.97.35-7.13.36-.88.35-.21.35.46.36 7.92.35-.14.35.33.36-8.33.35.28.35-8.57.35 8.32.36-1.03.35 8.71.35-7.84.36-7.92.35 15.22.35-7.8.36 8.26.35.04.35-8.13.36 8.2.35-15.18.35 6.43.36.76.35-1.3.35 8.88.35-15.75.36 7.41.35 8.36.35-8.48.36 8.37.35.2.35-7.67.36 7.93.35-24.18.35 23.43.36-8.46.35.78.35 7.96.36-16.34.35 7.91.35 8.05.35-8.12.36 8.32.35.24.35-8.29.36 7.78.35-23.69.35 23.08.36-15.27.35 15.47.35-7.77.36-.04.35-.48.35.31.36 8.08.35.1.35-7.63.35 7.56.36-15.06.35 5.7.35.87.36-.58.35 8.56.35-7.81.36-8.92.35 16.78.35-7.93.36 7.97.35.26.35-8.4.36 8.15.35-24.56.35 24.11.35-16.33.36 16.09.35-7.16.35-.58.36-.93.35 9.04.35-8.63.36 8.6.35.22.35-8.2.36 8.31.35-25.74.35 24.98.36-16.2.35 15.87.35-7.73.35-8.24.36 15.99.35-7.9.35 8.57.36-.22.35-7.93.35 8.25.36-16.52.35 7.21.35.39.36-.14.35.55.35 7.61.36-16.41.35 16.38.35-8.08.35 8.28.36-7.51.35 7.49.35.37.36-25.39.35 24.34.35-16.4.36 16.83.35-7.88.35-.07.36-.54.35.23.35 8.26.36.26.35-8.71.35 7.99.35-7.56.36-8.8.35 8.49.35-.41.36.27.35 8.14.35-16.49.36 16.58.35-8.84.35 8.67.36-8.08.35 8.71.35-.6.36-24.93.35 24.65.35-16.29.35 7.87.36 8.29.35-16.12.35 15.81.36-7.76.35 7.86.35.4.36-8.43.35 8.4.35-7.87.36-9.15.35.02.35 16.61.36-7.73.35 8.7.35-17.32.35 16.39.36-8.06.35 8.37.35-8.55.36 8.32.35.08.35-24.84.36 24.48.35-16.61.35 8.18.36 8.45.35-15.43.35 14.93.35-7.59.36 8.06.35.43.35-8.53.36 8.45.35-16.54.35 7.08.36-8.17.35 16.99.35-8.24.36 8.62.35-16.76.35 16.16.36-8.46.35 8.95.35-8.24.35 8.07.36-7.92.35-9.25.35 8.46.36.22.35-.29.35 8.64.36-16.73.35 15.87.35-7.4.36 7.54.35-7.79.35 8.11.36.03.35-24.31.35 23.98.35-16.27.36 7.79.35 9h.35l.36-16.84.35 16.79.35-8.61.36 8.74.35-8.5.35 8.53.36-8.46.35-9.5.35.63.36 8.07.35 8.41.35.05.35-16.11.36 15.68.35-7.84.35 8.42.36-8.93.35 8.74.35-7.25.36-9.38.35.35.35 7.7.36 7.79.35.64.35-8.06.36-.68.35.07.35 8.77.35-8.47.36 8.35.35.01.35-24.49.36 15.95.35-.81.35.9.36 8.46.35-8.1.35-.55.36 8.53.35-9.22.35.94.36 8.04.35.29.35-16.14.35 7.34.36-8.31.35 8.14.35 5.75.36 1.55.35-15.4.35 16.22.36-7.89.35-.32.35 8.56.36.31.35-7.83.35-8.94.36-.36.35 8.04.35 8.28.35.36.36-16.22.35 15.92.35-8.25.36 8.63.35-8.17.35 7.84.36-7.55.35-9.1.35-.32.36 8.34.35 8.42.35.23.36-7.57.35-.95.35.6.35 7.89.36-8.47.35 8.54.35.06.36-24.29.35 7.65.35 7.37.36 8.44.35.33.35-7.81.36-.19.35 8.27.35-8.88.36.63.35 8.23.35.13.35-16.53.36-.37.35 8.05.35-.31.36 9.02.35-7.75.35-.84.36 8.19.35-8.55.35-.33.36 8.51.35.62.35-16 .36 6.88.35-7.98.35 8.28.35 8.05.36-7.39.35-.29.35 8.03.36-8.15.35-.36.35 8.24.36.37.35-7.73.35-9.56.36.14.35 8.38.35 7.64.35.98.36-16.16.35 15.6.35-7.86.36 8.18.35-8.15.35 8.02.36-7.67.35-8.53.35-.23.36 7.81.35 8.28.35.6.36-8.11.35-.49.35 8.58.35-8.8.36.09.35 8.96.35-7.92.36-9.38.35.47.35 7.6.36 8.9.35.07.35-8.33.36-.21.35 8.51.35-9.07.36.04.35 8.23.35-7.35.35-8.55.36 7.4.35-8.09.35 16.68.36.73.35-9.24.35.76.36 7.77.35-8.85.35.18.36 8.96.35-.01.35-24.6.36 15.13.35-7.98.35 16.75.35.38.36-8.38.35-.08.35 8.4.36-8.33.35-.05.35 8.73.36-.4.35-7.81.35-16.94.36 7.53.35 16.67.35.26.36-8.14.35-.2.35 8.09.35-8 .36-.45.35 8.47.35.68.36-8.59.35-16.81.35 7.73.36 16.62.35.48.35-8.6.36.18.35 7.99.35-7.48.36-.52.35 7.97.35.52.35-8.25.36-16.67.35 7.61.35 16.67.36.45.35-7.79.35-.66.36 8.45.35-8.54.35-.18.36 8.08.35.59.35-7.78.36-17.49.35 7.77.35 16.61.35.76.36-8.42.35.31.35 7.96.36-8.36.35-.9.35 9.15.36.86.35-8.92.35-16.63.36 6.77.35 17.05.35.99.36-8.25.35.22.35 7.37.35-7.81.36-.85.35 9.04.35.3.36-8.4.35-17.12.35 7.92.36 16.71.35.63.35-7.91.36-.09.35 7.55.35.33.36-17.54.35 17.17.35-6.78.35 6.69.36-24.22.35 7.22.35 16.53.36.82.35-8.25.35-.05.36 8.05.35.43.35-17.41.36 17.14.35.37.35-16.58.36-8.85.35 15.31.35 9.28.35.03.36-8.34.35 8.47.35-8.45.36-.05.35-.34.35 8.77.36-.05.35-16.17.35-8.98.36 16.18.35 8.77.35.65.36-9.08.35 8.45.35-7.85.35-8.96.36 16 .35 1.09.35-8.03.36-.47.35-17.17.35 16.47.36 8.32.35-7.9.35 8.34.36.3.35-8.77.35-8.87.35 16.77.36.32.35-7.24.35-1.14.36-16.76.35 16.51.35 9.07.36-8.29.35 8.07.35.28.36-8.56.35-8.68.35 16.21.36 1.01.35-7.94.35-.62.35-16.92.36 16.07.35 8.85.35-8.12.36 8 .35-7.27.35 6.89.36-16.49.35 16.63.35.37.36-7.47.35-16.98.35 14.92.36.61.35 8.65.35-8.38.35 8.58.36-8.17.35 8.28.35-17.07.36 16.59.35.51.35-8.59.36-16.37.35 15.55.35.74.36 8.06.35-8.05.35 8.75.36-8.59.35 8.17.35-17.25.35 16.78.36.66.35-16.18.35-9.07.36 24.04.35-8.2.35 9.59.36-9.34.35 8.55.35-7.65.36 7.54.35-16.5.35 16.42.36.27.35-15.83.35-9.02.35 15.58.36 8.49.35.93.35-8.82.36 8.5.35-8.18.35-.03.36-.56.35 8.97.35.51.36-16.76.35-9.27.35 16.43.36 8.79.35.3.35-8.92.35 9.04.36-8.15.35.25.35-1.35.36 8.8.35-7.55.35-.31.36-17.24.35 15.86.35 8.97.36-7.77.35 7.55.35.26.36-8.35.35-.23.35-.3.35 9.16.36-7.78.35-17.2.35 15.1.36.97.35 8.5.35-8.59.36 8.57.35.41.35-8.28.36-8.71.35 16.14.35.55.36-15.71.35-9.08.35 23.3.35-7 .36 8.01.35-7.97.35 8.3.36-8.35.35-.24.35-.39.36 9.33.35.22.35-16.78.36-9.21.35 24.88.35-8.51.36 8.84.35-8.52.35 8.22.35-7.8.36-.2.35-.51.35 8.78.36.45.35-17.19.35-8.93.36 16.57.35 8.38.35.92.36-8.2.35 7.93.35-7.96.36-.83.35.69.35 8.25.35-7.96.36-1.22.35-16.73.35 16.48.36 8.76.35-8.49"/><use xlink:href="#b" color="#D336C8" transform="matrix(3 0 0 3 135.75 131.56)"/><use xlink:href="#b" color="#D336C8" transform="matrix(3 0 0 3 121.6 104.39)"/></g><text fill="#000" stroke="none" stroke-linecap="round" stroke-linejoin="round" color="#000" font-family="KaTeX_SansSerif" font-size="18" transform="translate(162.4 143.99)"><tspan>WBSTTopDown</tspan></text><g fill="none" stroke="currentColor" stroke-linecap="round" stroke-linejoin="round" color="#000"><path stroke="violet" stroke-dasharray="4.5,2.0,0.5,2.0,0.5,2.0" d="M93.4 138.14h56.4M22.4 152.92l.35-7.4.36-.52.35-15.13.35 14.9.36 7.01.35.38.35-15.69.35 6.32.36 8.2.35-.04.35-.4.36-14.04.35 13.8.35.21.36-.63.35.11.35-.19.36-7.91.35 7.67.35-23.89.36 7.64.35 15.77.35-.01.35-16.59.36 8.33.35 7.74.35-.1.36-15.03.35 17.71.35.8h.36l.35-.32.35.33.36-8.13.35 7.78.35-23.69.36 7.99.35 15.27.35.37.35-16.21.36 7.41.35 8.38.35.22.36-8.37.35 8.15.35.02.36-.34.35-.23.35.12.36-7.97.35-15.39.35 15.27.36-.36.35 8.09.35-15.85.35 7.71.36 7.89.35.23.35-8.74.36 8.46.35-.01.35-.01.36-.18.35-.17.35-8.09.36-15.72.35 7.37.35 16.04.36.34.35-8.23.35-8.15.35 16.26.36.13.35-8.53.35 7.91.36.32.35-.21.35.26.36-8.1.35 7.44.35-31.12.36 22.61.35 8.59.35-7.85.36-8.32.35 15.83.35.24.35-.01.36-8.6.35 8.48.35.04.36.02.35-.19.35-7.68.36-16.01.35 7.44.35 15.75.36.36.35-7.87.35-8.98.36 16.27.35.47.35-8.54.35 8.35.36.14.35-.18.35-.2.36-8.04.35.6.35-24.66.36 31.76.35.24.35-8.26.36-7.66.35 15.7.35.27.36-8.26.35 8.04.35.14.35-.14.36.29.35-8.11.35 7.38.36-39.25.35 39.24.35.17.36-7.92.35-8.11.35 15.9.36.25.35-8.02.35 7.8.36.18.35-.33.35.09.35-7.97.36.34.35-25.17.35 32.31.36.39.35-7.96.35-8.33.36 16.03.35.28.35-8 .36 7.61.35-.01.35.19.36-.07.35-7.65.35-16.09.35 7.39.36 15.95.35.09.35-7.82.36-8.73.35 16.45.35-.08.36-7.79.35 7.79.35.36.36-.19.35-7.92.35 7.69.35-24.06.36 7.63.35 16 .35.32.36-23.61.35 22.97.35.2.36.21.35-7.9.35 7.87.36.14.35.39.35-8.5.36 7.77.35-39.4.35 38.28.35.95.36-7.86.35-7.85.35 14.94.36.86.35.09.35-8 .36 7.67.35.3.35.17.36-8.17.35-16 .35 7.04.36 15.97.35.31.35-15.41.35 7.12.36 8.43.35-.13.35-7.95.36 7.78.35.47.35-.29.36-8.09.35 8.13.35-40.33.36 39.47.35.81.35.01.36-25.01.35 24.49.35-.02.35.47.36-8.45.35 8.22.35.09.36-7.6.35 7.3.35-40.14.36 39.18.35.42.35.42.36-15.97.35 7.43.35 8.15.36.37.35-7.98.35 8 .35-.1.36.33.35-8.38.35-15.83.36 7.44.35 15.59.35.82.36-16.18.35 7.51.35 8.14.36.26.35-7.73.35 7.19.36.36.35.15.35-7.62.35-8.23.36-9.24.35 24.12.35.62.36-15.88.35 7.34.35 8.25.36.17.35-7.12.35 7.06.36-.01.35.05.35-7.65.36 7.92.35-40.44.35 39.54.35.49.36-15.77.35 15.07.35-7.76.36 8.13.35-7.34.35 6.95.36.76.35-.06.35-7.8.36-.19.35-25.31.35 32.2.36.4.35-7.85.35-.31.35-.34.36 8.46.35.01.35-7.86.36 7.85.35.45.35-8.37.36.64.35-24.93.35 31.08.36.86.35-7.47.35-.66.36-.17.35 7.89.35.24.35-7.81.36 7.49.35.45.35-7.52.36-.26.35-25.02.35 32.05.36.58.35-7.76.35-.57.36-.28.35 8.33.35-.03.36-8.32.35 8.36.35.25.35-8.16.36.07.35-25.04.35 31.8.36.81.35-8.25.35.08.36-.23.35 7.84.35-7.05.36 6.89.35.85.35.03.36-8.05.35-7.71.35-9.14.35 24.02.36.56.35-8.12.35-.16.36-.24.35 8.11.35-7.59.36 7.26.35.56.35.32.36-7.96.35-8.41.35-9.05.35 24.09.36.46.35-8.12.35.39.36-.38.35 8.08.35-7.77.36 7.73.35.02.35-7.18.36 6.89.35-23.55.35 6.72.36 16.57.35.19.35-7.78.35-.7.36.08.35 8.18.35-7.79.36 7.6.35.33.35-7.73.36 7.64.35-39.65.35 38.45.36.99.35-8.2.35-.05.36 7.67.35-7.84.35 8.28.35-8.25.36 8.21.35.31.35-8.36.36-.08.35-24.92.35 32.12.36.7.35-8.3.35-.22.36-.01.35 8.07.35.21.36-8.13.35 8.22.35-.08.35-8.22.36-7.65.35-9.48.35 24.75.36.34.35-8.01.35-.15.36-.17.35 7.94.35-7.71.36 7.78.35.39.35-8.28.36 7.76.35-32.71.35 23.77.35 8.96.36-7.96.35 8.14.35-8.08.36-.35.35 7.81.35-7.54.36 8.26.35-.36.35-7.94.36.21.35-25.74.35 32.62.36.5.35-7.68.35-.03.35 7.63.36-8.2.35 8.25.35-8.16.36 8.72.35-8.16.35 7.75.36-24.7.35 7.19.35 16.95.36-7.61.35 8.01.35-8.36.36.24.35 8.24.35-8.79.35 8.16.36.49.35-8.48.35.34.36-25.7.35 32.56.35.85.36-8.29.35.72.35 7.27.36-7.85.35 8.2.35-8.66.36 8.69.35-7.84.35 7.6.35-16.39.36-9.29.35 24.74.35-7.25.36 8.06.35-8.06.35-.16.36 7.86.35-7.52.35 7.53.36.49.35-8.45.35.09.36-24.87.35 31.99.35.76.35-7.96.36 8.16.35-8.23.35-.19.36 8.52.35-8.46.35 8.41.36-8.73.35 8.36.35-16.73.36-9.1.35 25.22.35-7.56.36 7.96.35-8.55.35.71.35 7.69.36-7.52.35 7.22.35.74.36-7.87.35-.77.35-24.85.36 32.05.35.78.35-8.09.36.11.35 7.91.35-8.19.36 8.28.35-8.09.35 8.06.35-7.52.36 8.08.35-32.88.35 23 .36 8.97.35-8.1.35 7.97.36-7.75.35.25.35 7.53.36-7.49.35 7.32.35-7.63.35 7.99.36-16.19.35-9.26.35 24.74.36-7.63.35 8.06.35-8.04.36 7.88.35-7.79.35 8.42.36-8.37.35 8.53.35-8.47.36.05.35-17.13.35 16.2.35 8.61.36-8.23.35 8.59.35-8.58.36-.23.35 7.96.35-7.18.36 7.67.35-8.35.35.67.36-17.06.35 15.84.35 8.16.36-7.49.35 8.22.35-8.02.35 7.79.36-8.31.35 8.49.35-8.69.36.11.35 8.13.35-16.16.36-.91.35 8.2.35.58.36 8.17.35-7.92.35 7.53.36-7.67.35 7.97.35-8.19.35 8.59.36-8.22.35-.01.35-17.02.36 16.31.35.37.35 7.92.36.36.35-8.42.35.45.36 7.46.35-7.56.35 7.7.36-7.72.35.12.35-16.78.35 15.61.36 8.44.35-7.83.35 8.3.36-8.31.35 8.02.35-8.43.36 8.7.35-8.28.35-.06.36-.16.35-16.04.35 22.86.36-7.59.35.63.35 8.03.35-8.01.36 8.37.35-7.98.35 7.22.36-7.69.35-.08.35.18.36 7.88.35-24.8.35 16.42.36-.29.35 8.02.35-7.04.36 7.89.35-8.32.35 7.94.35-7.93.36 8.09.35-7.99.35-.83.36-16.44.35 16.52.35.33.36 7.92.35.59.35-8.7.36.25.35 7.93.35-7.63.36 7.69.35-8.4.35.08.35-16.43.36 15.75.35.51.35 8.18.36.57.35-8.43.35 8.19.36-7.78.35 7.61.35-8 .36.04.35-.3.35-16.29.36 16.15.35 7.66.35-7.87.35 8.76.36-7.98.35 7.67.35-8.32.36 8.13.35-8.08.35.22.36-.21.35-16.12.35 23.54.36-7.85.35-.09.35 8.78.36-8.22.35 7.7.35-8.18.35 8.33.36-7.96.35-.73.35.11.36.11.35-8.09.35 7.37.36.97.35 7.94.35-8.2.36 8.11.35-7.73.35 8.13.35-8.15.36-.18.35-.26.35.46.36-9.33.35 8.58.35-.05.36 8.44.35-7.88.35 7.88.36-8.08.35 8.04.35-7.72.36-.02.35-.52.35 8.17.35-24.68.36 16.32.35-.56.35 9.12.36-.06.35-8.5.35.68.36 7.73.35.31.35-16.26.36 7.49.35 8.02.35-24.58.36 16.75.35-.28.35 8.56.35-.02.36-8.28.35.13.35 7.35.36.55.35-8.63.35-7.58.36 16.27.35-24.98.35 24 .36-15.64.35 16.24.35.4.36-8.28.35-.1.35 7.94.35.6.36-16.3.35 7.62.35 8.23.36-24.96.35 24.74.35-16.67.36 16.74.35-.04.35-8.04.36.61.35 7.39.35.01.36-8.11.35-8.1.35 16.33.35-24.84.36 24.18.35-16.38.35 16.35.36.1.35-7.99.35.01.36 8.24.35.25.35-8.09.36-8.23.35 15.74.35-24.98.36 24.51.35-15.45.35 15.91.35.24.36-8.16.35 7.93.35-8.26.36 8.58.35-8.2.35-8.25.36 15.92.35-24.17.35 24.47.36-16.63.35 16.13.35-.11.36-7.66.35 8.22.35-8.02.35 8.12.36-8.21.35-8.14.35 15.63.36-24.73.35 24.54.35-16.15.36 16.64.35.4.35-8.64.36 8.29.35-8.03.35 8.12.36-8.31.35-8.66.35 16.75.35-24.82.36 24.6.35-16.3.35 16.09.36.64.35-8.08.35 8.38.36-8.48.35 7.88.35-15.95.36 6.71.35.9.35-8.86.36 16.38.35-16.02.35 16.76.35.35.36-8.31.35 7.74.35-8.52.36 9.07.35-16.66.35 7.36.36.36.35-8.49.35 16.69.36-16.44.35 16.25.35.35.36-7.93.35 8.19.35-8.43.35 8.3.36-16.4.35 7.9.35.38.36-9.21.35 16.68.35-16.12.36 16.02.35.64.35-8.43.36 8.16.35-8.41.35 8.52.36-16.06.35 7.17.35-7.66.35 8.09.36.12.35-.88.35 8.58.36.68.35-8.33.35 8.37.36-8.36.35 8.14.35-16.68.36 8.37.35-8.55.35 7.51.35 1.27.36-.63.35 8.28.35.77.36-8.99.35 8.53.35-8.23.36.19.35-.74.35.58.36-8.98.35 8.15.35.62.36-.73.35 8.74.35.02.35-7.83.36 7.58.35-8.18.35.88.36-8.8.35 15.85.35-24.08.36 24.02.35-16.04.35 15.89.36.62.35.54.35-8.71.36.19.35 7.68.35-15.49.35 7.11.36 8.52.35-25.07.35 24.56.36-16.07.35 15.94.35.71.36-7.73.35 7.37.35-7.66.36 7.67.35-15.83.35 7.9.36 8.09.35-24.76.35 24.93.35-16.92.36 16.33.35.58.35-8.3.36 8.21.35-8.42.35 8.36.36-16.63.35 7.66.35.57.36-8.47.35 16.29.35-15.83.36 15.99.35.18.35-7.66.35 7.78.36-7.74.35 7.55.35-16.2.36 8.29.35-8.08.35 6.78.36 9.37.35-17.04.35 16.85.36.15.35-8.75.35 8.5.36-7.69.35 7.81.35-16.73.35 7.95.36-15.98.35 23.74.35-7.9.36-.04.35 8.57.35.01.36-8.22.35 7.92.35-7.35.36-7.92.35 6.92.35 8.42.36-24.42.35 24.23.35-16.2.35 15.83.36.42.35-7.37.35 7.06.36.75.35-7.85.35-8.71.36 8.09.35 8.29.35-25.16.36 24.35.35-15.37.35 15.69.36.01.35-7.67.35 8.31.35-.33.36-8.07.35-8.56.35 8.46.36-7.85.35 7.16.35 8.32.36-15.89.35 16.13.35.09.36-8.39.35 8.68.35-.16.36-16.44.35 8.18.35-.88.35-7.11.36 7.19.35 1 .35-1.23.36 8.81.35.48.35-8.3.36 8.25.35-7.66.35-.61.36-8.31.35 15.88.35-23.65.36 23.45.35-7.77.35-.18.35 7.89.36 1.1.35-8.29.35 8.56.36-8.44.35-8.61"/><use xlink:href="#h" color="violet" transform="matrix(3 0 0 3 194.02 128.92)"/><use xlink:href="#h" color="violet" transform="matrix(3 0 0 3 121.6 138.14)"/></g><path fill="none" stroke="none" stroke-linecap="round" stroke-linejoin="round" stroke-width="0" d="M22.4 60.01V164M371.99 60.01H22.4" color="#000"/><text fill="#000" stroke="none" stroke-linecap="round" stroke-linejoin="round" stroke-width="0" color="#000" font-family="KaTeX_Main" font-size="8" text-anchor="middle" transform="translate(197.19 8.61)"><tspan>InsertDeleteSearchPersistent - Uniform</tspan></text></svg>