<svg xmlns="http://www.w3.org/2000/svg" xmlns:xlink="http://www.w3.org/1999/xlink" viewBox="0 0 400 250"><path fill="none" d="M0 0h400v250H0z"/><defs><path id="g" stroke="currentColor" stroke-width=".267" d="M-1 0h2M0-1v2"/><path id="h" stroke="currentColor" stroke-width=".267" d="m-1-1 2 2m0-2-2 2"/><path id="i" stroke="currentColor" stroke-width=".267" d="M-1 0h2M0-1v2m-1-2 2 2m-2 0 2-2"/><path id="d" stroke="currentColor" stroke-width=".267" d="M-1-1h2v2h-2z"/><path id="b" stroke="currentColor" stroke-width=".267" d="m0-1.33-1.33 2h2.66z"/><path id="f" stroke="currentColor" stroke-width=".267" d="M0 1.33 1.265.411.782-1.067l-1.564-.009-.483 1.487z"/><use xlink:href="#b" id="c" stroke="currentColor" transform="rotate(180)"/><use xlink:href="#d" id="e" stroke="currentColor" transform="rotate(45)"/><circle id="a" cx="0" cy="0" r="1" stroke="currentColor" stroke-width=".267"/></defs><path fill="none" stroke="#000" stroke-linecap="round" stroke-linejoin="round" stroke-width=".1" d="M35.48 205V45.01" class="gridline" color="#000"/><g fill="none" stroke="none" stroke-linecap="round" stroke-linejoin="round" stroke-width="0" color="#000"><path d="M35.48 205v-7.5m0-152.49v7.5"/><text fill="#000" font-family="KaTeX_Main" font-size="10" text-anchor="middle" transform="translate(35.48 215.75)"><tspan> 1</tspan></text></g><path fill="none" stroke="#000" stroke-linecap="round" stroke-linejoin="round" stroke-width=".1" d="M72.87 205V45.01" class="gridline" color="#000"/><g fill="none" stroke="none" stroke-linecap="round" stroke-linejoin="round" stroke-width="0" color="#000"><path d="M72.87 205v-7.5m0-152.49v7.5"/><text fill="#000" font-family="KaTeX_Main" font-size="10" text-anchor="middle" transform="translate(72.87 215.75)"><tspan> 2</tspan></text></g><path fill="none" stroke="#000" stroke-linecap="round" stroke-linejoin="round" stroke-width=".1" d="M110.26 205V45.01" class="gridline" color="#000"/><g fill="none" stroke="none" stroke-linecap="round" stroke-linejoin="round" stroke-width="0" color="#000"><path d="M110.26 205v-7.5m0-152.49v7.5"/><text fill="#000" font-family="KaTeX_Main" font-size="10" text-anchor="middle" transform="translate(110.26 215.75)"><tspan> 3</tspan></text></g><path fill="none" stroke="#000" stroke-linecap="round" stroke-linejoin="round" stroke-width=".1" d="M147.65 205V45.01" class="gridline" color="#000"/><g fill="none" stroke="none" stroke-linecap="round" stroke-linejoin="round" stroke-width="0" color="#000"><path d="M147.65 205v-7.5m0-152.49v7.5"/><text fill="#000" font-family="KaTeX_Main" font-size="10" text-anchor="middle" transform="translate(147.65 215.75)"><tspan> 4</tspan></text></g><path fill="none" stroke="#000" stroke-linecap="round" stroke-linejoin="round" stroke-width=".1" d="M185.04 205V45.01" class="gridline" color="#000"/><g fill="none" stroke="none" stroke-linecap="round" stroke-linejoin="round" stroke-width="0" color="#000"><path d="M185.04 205v-7.5m0-152.49v7.5"/><text fill="#000" font-family="KaTeX_Main" font-size="10" text-anchor="middle" transform="translate(185.04 215.75)"><tspan> 5</tspan></text></g><path fill="none" stroke="#000" stroke-linecap="round" stroke-linejoin="round" stroke-width=".1" d="M222.43 205V45.01" class="gridline" color="#000"/><g fill="none" stroke="none" stroke-linecap="round" stroke-linejoin="round" stroke-width="0" color="#000"><path d="M222.43 205v-7.5m0-152.49v7.5"/><text fill="#000" font-family="KaTeX_Main" font-size="10" text-anchor="middle" transform="translate(222.43 215.75)"><tspan> 6</tspan></text></g><path fill="none" stroke="#000" stroke-linecap="round" stroke-linejoin="round" stroke-width=".1" d="M259.82 205V45.01" class="gridline" color="#000"/><g fill="none" stroke="none" stroke-linecap="round" stroke-linejoin="round" stroke-width="0" color="#000"><path d="M259.82 205v-7.5m0-152.49v7.5"/><text fill="#000" font-family="KaTeX_Main" font-size="10" text-anchor="middle" transform="translate(259.82 215.75)"><tspan> 7</tspan></text></g><path fill="none" stroke="#000" stroke-linecap="round" stroke-linejoin="round" stroke-width=".1" d="M297.21 205V45.01" class="gridline" color="#000"/><g fill="none" stroke="none" stroke-linecap="round" stroke-linejoin="round" stroke-width="0" color="#000"><path d="M297.21 205v-7.5m0-152.49v7.5"/><text fill="#000" font-family="KaTeX_Main" font-size="10" text-anchor="middle" transform="translate(297.21 215.75)"><tspan> 8</tspan></text></g><path fill="none" stroke="#000" stroke-linecap="round" stroke-linejoin="round" stroke-width=".1" d="M334.6 205V45.01" class="gridline" color="#000"/><g fill="none" stroke="none" stroke-linecap="round" stroke-linejoin="round" stroke-width="0" color="#000"><path d="M334.6 205v-7.5m0-152.49v7.5"/><text fill="#000" font-family="KaTeX_Main" font-size="10" text-anchor="middle" transform="translate(334.6 215.75)"><tspan> 9</tspan></text></g><path fill="none" stroke="#000" stroke-linecap="round" stroke-linejoin="round" stroke-width=".1" d="M371.99 205V45.01" class="gridline" color="#000"/><g fill="none" stroke="none" stroke-linecap="round" stroke-linejoin="round" stroke-width="0" color="#000"><path d="M371.99 205v-7.5m0-152.49v7.5"/><text fill="#000" font-family="KaTeX_Main" font-size="10" text-anchor="middle" transform="translate(371.99 215.75)"><tspan> 10</tspan></text></g><g fill="none" stroke="none" stroke-linecap="round" stroke-linejoin="round" stroke-width="0" color="#000"><path d="M371.99 205h-7.5"/><text fill="#000" font-family="KaTeX_Main" font-size="10" transform="translate(378.99 208.25)"><tspan>0.60</tspan></text></g><g fill="none" stroke="none" stroke-linecap="round" stroke-linejoin="round" stroke-width="0" color="#000"><path d="M371.99 189h-7.5"/><text fill="#000" font-family="KaTeX_Main" font-size="10" transform="translate(378.99 192.25)"><tspan>0.62</tspan></text></g><g fill="none" stroke="none" stroke-linecap="round" stroke-linejoin="round" stroke-width="0" color="#000"><path d="M371.99 173h-7.5"/><text fill="#000" font-family="KaTeX_Main" font-size="10" transform="translate(378.99 176.25)"><tspan>0.64</tspan></text></g><g fill="none" stroke="none" stroke-linecap="round" stroke-linejoin="round" stroke-width="0" color="#000"><path d="M371.99 157h-7.5"/><text fill="#000" font-family="KaTeX_Main" font-size="10" transform="translate(378.99 160.25)"><tspan>0.66</tspan></text></g><g fill="none" stroke="none" stroke-linecap="round" stroke-linejoin="round" stroke-width="0" color="#000"><path d="M371.99 141h-7.5"/><text fill="#000" font-family="KaTeX_Main" font-size="10" transform="translate(378.99 144.25)"><tspan>0.68</tspan></text></g><g fill="none" stroke="none" stroke-linecap="round" stroke-linejoin="round" stroke-width="0" color="#000"><path d="M371.99 125h-7.5"/><text fill="#000" font-family="KaTeX_Main" font-size="10" transform="translate(378.99 128.25)"><tspan>0.70</tspan></text></g><g fill="none" stroke="none" stroke-linecap="round" stroke-linejoin="round" stroke-width="0" color="#000"><path d="M371.99 109.01h-7.5"/><text fill="#000" font-family="KaTeX_Main" font-size="10" transform="translate(378.99 112.26)"><tspan>0.72</tspan></text></g><g fill="none" stroke="none" stroke-linecap="round" stroke-linejoin="round" stroke-width="0" color="#000"><path d="M371.99 93.01h-7.5"/><text fill="#000" font-family="KaTeX_Main" font-size="10" transform="translate(378.99 96.26)"><tspan>0.74</tspan></text></g><g fill="none" stroke="none" stroke-linecap="round" stroke-linejoin="round" stroke-width="0" color="#000"><path d="M371.99 77.01h-7.5"/><text fill="#000" font-family="KaTeX_Main" font-size="10" transform="translate(378.99 80.26)"><tspan>0.76</tspan></text></g><g fill="none" stroke="none" stroke-linecap="round" stroke-linejoin="round" stroke-width="0" color="#000"><path d="M371.99 61.01h-7.5"/><text fill="#000" font-family="KaTeX_Main" font-size="10" transform="translate(378.99 64.26)"><tspan>0.78</tspan></text></g><g fill="none" stroke="none" stroke-linecap="round" stroke-linejoin="round" stroke-width="0" color="#000"><path d="M371.99 45.01h-7.5"/><text fill="#000" font-family="KaTeX_Main" font-size="10" transform="translate(378.99 48.26)"><tspan>0.80</tspan></text></g><path fill="none" stroke="none" stroke-linecap="round" stroke-linejoin="round" stroke-width="0" d="M28 45.01V205M371.99 45.01H28" color="#000"/><text fill="#000" stroke="none" stroke-linecap="round" stroke-linejoin="round" stroke-width="0" color="#000" font-family="KaTeX_Main" font-size="10" text-anchor="middle" transform="rotate(-90 68.255 56.755)"><tspan font-weight="bold">Rotations</tspan><tspan> / Operation</tspan></text><text fill="#000" stroke="none" stroke-linecap="round" stroke-linejoin="round" stroke-width="0" color="#000" font-family="KaTeX_Main" font-size="10" text-anchor="middle" transform="translate(199.99 238.25)"><tspan>Operations × 10</tspan><tspan dy="-5" font-size="8">5</tspan></text><text fill="#000" stroke="none" stroke-linecap="round" stroke-linejoin="round" color="#000" font-family="KaTeX_Main" font-size="8" transform="translate(116 10.11)"><tspan>AVLBottomUp</tspan></text><g fill="none" stroke="currentColor" stroke-linecap="round" stroke-linejoin="round" color="#000"><path stroke="#000" d="M80.5 7.51h29.9M28 156.2l.37-24 .38-17.59.37 15.99.38-7.99.37 2.4.37 31.19.38 2.4.37-23.2.38 1.6.37-26.39.37 4.8.38 50.39.37-78.39.37 34.4.38-48.8.37 64.79.38.8.37-4 .37-11.19.38 4.79.37 23.2.38-20.8.37-28.79.37 35.99.38 9.6.37-55.19.38-8.8.37 29.6.37 20.79.38-20.79.37 43.19h.37l.38-40.79.37 38.39h.38l.37-35.19.37 12.79.38-23.19.37 4 .38 1.6.37 9.6.37 3.99.38.8.37-36.79.38 38.39.37 3.2.37-10.39.38 11.19.37-15.19.38-8.8.37 11.2h.37l.38-6.4.37 14.39.37-33.59.38 52.79.37 30.4.38-21.6.37-20 .37-35.99.38 40.79.37-14.4.38 9.6.37-17.59.37 35.99.38 10.4.37-4 .38-48.79.37 5.6.37 22.39.38.8.37-25.59.37 16.79.38-23.19.37 13.6.38-13.6.37 24.79.37-30.39.38 17.6.37 36.79.38-13.6.37 9.6.37-40.79.38 36.79.37 9.6.38-40.79.37 7.19.37-44.79.38 25.6.37 16.8.38 24.79.37-11.2.37-63.19.38 69.59.37-19.99.37 2.39.38 11.2.37-49.59.38 51.99.37-1.6.37-23.99.38 15.99.37 4.8.38-17.59.37-5.6.37 45.59.38-30.4.37 8 .38-8 .37 19.2.37-5.6.38-8 .37 12.8.37-37.59.38-2.4.37-21.6.38 32 .37 4 .37 44.79.38-43.19.37 47.19.38-58.39.37 12.8.37-.8.38 29.59.37-22.4.38-22.39.37-9.6.37 76.79.38-43.2.37 4 .38-37.59.37 16.8.37-21.6.38 22.4.37 23.19.37 8.8.38-15.2.37-61.59.38 23.2.37 47.19.37-32.79.38 7.2.37 38.39.38 6.4.37-36.79.37-12.8.38 35.99.37-39.99.38-15.2.37 22.4.37-9.6.38 43.19.37-70.39.37 83.99.38-12 .37-47.19.38 43.19.37-33.59.37 29.59.38-19.19.37-3.2.38-16.8.37 30.39.37 20.8.38-28.79.37-7.2.38 37.59.37-32.79.37-15.2.38 38.39.37-71.19.38 40.8.37 32.79.37-.8.38 5.6.37-65.59.37 42.39.38 26.4.37-3.2.38-53.59.37 41.59.37-4.8.38 2.4.37-15.99.38 9.59.37 8.8.37 2.4.38-25.59.37-8 .38 51.19.37-7.2.37-19.2.38-20.79.37 8.8.37 9.59.38-11.19.37 4 .38 16.79.37-14.4.37-15.19.38 47.19.37-47.99.38 36.79.37-20.8.37-15.19.38 22.39.37-23.99.38-20 .37 59.99.37 4.8.38-67.19.37 25.6.38-15.2.37 32.79.37 10.4.38 3.2.37-13.6.37 21.6.38-23.2.37-12.79.38-14.4.37 41.59.37-22.39.38-10.4.37 12 .38 27.99.37-16 .37-38.39.38 13.6.37 10.4.38 42.39.37-53.59.37-6.4.38 37.59.37-6.4.37-13.59.38-23.2.37 24.8.38 31.19.37-42.39.37 8 .38 31.99.37-63.19.38 70.39.37-51.19.37 12.8.38 39.99.37-16 .38-29.59.37 8 .37 13.59.38-1.6.37-17.59.38-8 .37 16 .37-2.4.38 15.99.37 18.4.37-19.2.38-63.19.37 84.79.38-24.8.37 12.8.37-19.2.38-23.19.37.8.38 16 .37 4 .37-42.4.38 47.99.37-24.79.38 10.4.37 22.39.37-13.59.38 15.99.37 1.6.37 35.2.38-43.2.37-47.19.38 60.79.37-16 .37-43.19.38 4 .37 62.39.38-41.59.37-8 .37 15.2.38 40.79.37-36 .38 35.2.37-25.6.37-10.39.38-28.8.37 23.2.38 7.19.37-25.59.37 25.59.38 36 .37-83.19.37 68.79.38-19.2.37-34.39.38-12 .37 57.59.37 20 .38-37.59.37 8.79.38 20.8.37-29.59.37-1.6.38 9.59.37-13.59.38-16 .37 12h.37l.38 47.19.37-3.2.37-24 .38.8.37-30.39.38 20h.37l.37-3.2.38 39.19.37-39.19.38 6.39.37 32.8.37-45.59.38 32.79.37-38.39.38 3.2.37 29.59.37 4 .38-19.2.37 68 .38-24 .37-53.59.37-20.8.38 24.8.37 25.59.37-18.4.38 4.8.37 17.6.38-31.99.37-25.6.37 16.8.38 26.39.37 16 .38-11.2.37-2.4h.37l.38-11.2.37 15.2.38-22.39.37 14.39.37-19.99.38 1.6.37-8 .37 26.39.38 13.6.37-17.6.38 7.2.37 2.4.37 20 .38-56.79.37 41.59.38-31.99.37-20 .37 10.4.38 14.4.37 8.79.38 12 .37 12.8.37-27.99.38 5.59.37-18.39.38 32.79.37-21.59.37 3.2.38.8.37-74.4.37 72 .38-20 .37-8 .38 43.19.37-18.39.37-16.8.38 41.59.37-21.59.38 8.79.37 12.8.37-16 .38 4.8.37 36 .38-71.19.37 27.2.37 36.79.38-6.4.37-46.39.37 39.19.38-26.39.37-51.2.38 62.39.37-5.6.37 42.4.38-24 .37-14.4.38-33.59.37 20.8.37 7.99.38 9.6.37-29.59.38 20.79.37 6.4.37 36 .38-52.79.37 9.59.38-3.99.37-13.6h.37l.38 27.99.37-35.99.37 5.6.38 47.19.37-21.6.38 43.2.37-30.4.37-17.6.38-24.79.37 10.4.38-26.4.37 4 .37 74.39.38-28 .37-14.39.38-16 .37 19.99.37-37.59.38 87.19.37-75.19.37 27.19.38 8.8.37-4.8.38-8.79.37-3.2.37 30.39.38-12.8.37-6.4.38-7.19.37 4.79.37-28.79.38 38.39.37-17.59.38-3.2.37 13.59.37-17.59.38 19.99.37 18.4.38-9.6.37-16.8.37 24 .38-64.79.37 47.99.37-8.79.38 20.79.37-31.19.38 24.79.37-13.59.37-12 .38-4 .37 30.39.38-52.79.37 24 .37 15.99.38-9.59.37 5.6.38 5.59.37-15.99.37 8.8.38 1.6.37 2.4.37 9.59.38 11.2.37-20 .38-19.19.37 15.2.37 27.19.38 4.8.37-20.8.38 19.2.37-8 .37-39.99.38 28.79.37-1.6.38 8 .37-48.79.37 43.99.38-38.39.37 12 .37 15.2.38-13.6.37 39.99.38-51.99.37 6.4.37 16.8.38-49.6.37 48.8.38-4.8.37 17.59.37 11.2.38 7.2.37-18.4.38-52.79.37 28 .37 27.99.38 28.8.37-44.79.38 32.79.37-44.79.37 26.39.38-11.99.37 48.79.37-65.59.38-15.2.37 57.59.38-27.19.37-36 .37 23.2.38 19.99.37 4.8.38-27.99.37 24.79.37 35.2.38-10.4.37-50.39.38 24.79.37 20 .37-27.99.38-9.6.37 15.99.37-3.99.38-27.2.37 1.6.38 2.4.37 7.2.37-21.6.38 69.59.37-87.19.38 41.6.37 19.99.37 14.4h.38l.37-12.8.38 8 .37-12 .37-7.19.38 19.99.37 4 .38-31.99.37 4.8.37-20 .38 40.79.37-20.79.37 4 .38-24 .37 30.39.38 4.8.37-30.39.37-12.8.38 35.2.37-.8.38 55.19.37-54.39.37-12 .38-10.4.37-9.6.38 38.39.37 8 .37-10.4.38-35.19.37 54.39.37.8.38-40.79.37 23.19.38 2.4h.37l.37-38.39.38 28 .37 30.39.38-17.6.37 20 .37-38.39.38 17.59.37-14.39.38 15.99.37-4.8.37-35.99.38 13.6.37 47.19.38 7.2.37-32 .37 64.8.38-80.79.37 33.59.37-16 .38-37.59.37 18.4.38 12.79.37-11.19.37 9.6.38-10.4.37 9.6.38-17.6.37 51.99.37-23.2.38 3.2.37-47.19.38 20 .37 15.99.37 6.4.38 20 .37 4 .37-36.79.38-24 .37 39.99.38 11.2.37-12.8.37-10.39.38 27.99.37-33.59.38 27.19.37-20.8.37 4 .38 24.8.37-5.6.38-47.99.37 31.19.37-16.79.38-12 .37-12 .38 24.8.37 41.59.37-43.99.38 32.79.37-82.39.37 66.39.38-6.39.37-4 .38 35.19.37-20.8.37-14.39.38-8.8.37 26.39.38-31.19.37 15.2.37 26.39.38-52.79.37 42.39.38 43.2.37-34.4.37 5.6.38 6.4.37-20.8.37-7.2.38 15.2.37-27.99.38-5.6.37-1.6h.37l.38-14.4.37 49.59.38-3.2.37-16 .37-40.79.38 48.79.37-47.99.38 43.99.37 66.4.37-83.99h.38l.37 22.39.38 20 .37-32.79.37 16.79.38-15.19.37 45.59.37-53.59.38 42.39.37.8.38-9.6.37-32.79.37 19.99.38-41.59.37 43.99.38 4.8.37-4 .37 4.8.38 27.2.37-12 .38-12 .37-14.4.37 18.4.38-16 .37-33.59.37-6.4.38 40.79.37.8.38 16.8.37-28 .37 4.8.38-41.59.37 44.79.38-7.2.37 9.6.37-11.2.38.8.37 4 .38 24 .37 1.6.37-8.8.38 28.8.37-69.59.38 43.19.37-26.39.37-20.8.38 54.39.37-44.79.37 41.59.38-47.99.37-3.2.38 2.4.37-22.4.37 59.99.38-22.39.37 19.99.38 4 .37-27.19.37 2.4.38 4.8.37-6.4.38-.8.37-14.4.37 8 .38 16.79.37 23.2.37-1.6.38-.8.37 2.4.38-48.79.37 4 .37 53.59.38-39.19h.37l.38 32.79.37-27.2.37 40 .38-57.59.37 39.19.38 2.4.37-21.6.37 24 .38-33.59.37-24 .38 16 .37 20.79.37-9.59.38-6.4.37-13.6.37 33.59.38.8.37 13.6.38-24 .37-15.19.37-31.2.38 47.99.37-13.59.38 10.4.37 18.39.37-11.2.38-3.2.37 18.4.38-27.19.37 23.99.37-2.4.38 8.8.37-25.59.37 7.19.38-17.59.37 19.19.38 33.6.37-79.99.37 43.19.38 3.2.37-67.99.38 58.4.37 39.19.37-22.4.38-4 .37 4 .38 2.4.37-35.99.37.8.38 47.99.37-24 .38 19.2h.37l.37-4 .38-35.19.37-1.6.37 28.79.38 14.4.37 2.4.38-34.39.37-2.4.37-29.6.38 43.99.37-15.99.38-4 .37-40.8.37 47.2.38 19.19.37-80.79.38 99.19.37-10.4.37-22.39.38 6.39.37 3.2.37-28.79.38 23.19.37 29.6.38-18.4.37 28 .37-45.59.38-5.6.37 27.19.38-30.39.37 31.19.37 16 .38-38.39.37 11.19.38.8.37 32.8.37-51.99.38-1.6.37 26.39.38-36.79.37 45.59.37-27.19.38-2.4.37-2.4.37 34.39.38-6.4.37 8 .38-11.2.37-8.8.37-17.59.38 48.79.37-60.79.38 8.8.37 52.79.37-46.39.38-4.8.37 12.79.38-14.39.37-19.2.37 40.79.38 2.4.37 4 .37-17.59.38 2.4.37 20.79.38-12 .37-20.79.37 19.19.38 7.2.37-27.99.38 31.19.37-17.59.37 7.19.38 23.2.37-30.39.38 14.39.37-20.79.37 27.19.38-29.59.37-3.2.38-39.2.37 53.59.37 5.6.38-12.79.37 10.39.37-1.6.38-24.79.37 21.6.38 16.79.37-5.6.37-26.39.38 10.4.37-17.6.38 6.4.37-5.6.37 51.99.38-39.19.37 20.79.38-19.99.37 8.79.37 21.6.38 4 .37-18.4.37 3.2.38-.8.37-10.39.38-48.8.37 60.79.37 14.4.38-59.19.37 35.99.38-18.39.37 15.2"/><use xlink:href="#g" transform="matrix(3.75 0 0 3.75 342.45 133)"/><use xlink:href="#g" transform="matrix(3.75 0 0 3.75 95.45 7.51)"/></g><text fill="#000" stroke="none" stroke-linecap="round" stroke-linejoin="round" color="#000" font-family="KaTeX_Main" font-size="8" transform="translate(116 25.11)"><tspan>AVLTopDown</tspan></text><g fill="none" stroke="currentColor" stroke-linecap="round" stroke-linejoin="round" color="#000"><path stroke="#29C3F6" stroke-dasharray="1.0,2.0" d="M80.5 22.51h29.9M28 156.2l.37-24 .38-17.59.37 15.99.38-7.99.37 2.4.37 31.19.38 2.4.37-23.2.38 1.6.37-26.39.37 4.8.38 50.39.37-78.39.37 34.4.38-48.8.37 64.79.38.8.37-4 .37-11.19.38 4.79.37-11.19.38 6.4.37-8 .37 4 .38 4.8.37-8L38.1 133l.37-12.79.37-5.6.38-3.2.37 18.39h.37l.38-22.39.37 15.2.38-2.4.37-3.2.37 9.59.38-5.59.37 12.79.38-27.19.37 10.4.37 5.6.38-4h.37l.38 2.4.37 2.4.37 20.79.38-29.59.37 2.4h.38l.37 17.59.37-21.59.38-9.6.37 19.2.37-12 .38 16.79.37-22.39.38 8.8.37 12.79.37-23.19.38 16 .37 8.79.38 4 .37-24.79.37 17.6.38-.8.37-1.6.38-9.6.37.8.37-7.2.38 16.8.37-11.2.37 27.19.38-7.2.37-27.99.38 22.39.37 20.8.37-12.8.38-4.8.37 12.8.38-46.39.37-7.2.37 91.99.38-71.19.37 43.99.38 6.4.37-85.59.37 42.4.38 13.59.37 1.6.38-10.39.37 2.4.37 9.59.38-13.59.37-19.2.37 28.79.38-25.59.37 38.39.38-29.59.37-10.4.37 2.4.38 9.6.37 29.59.38-32.79.37 2.4.37 34.39.38 4 .37-36.79.38 39.99.37-43.99.37 32.79.38-29.59.37 23.99.37-37.59.38-3.2.37 27.99.38-39.99.37 35.2.37 19.19.38 12.8.37-43.99.38 22.39.37-2.4.37-5.59.38-19.2.37 22.39.38-7.99.37-.8h.37l.38 8.79.37 7.2.38-5.6.37-2.4.37-.79.38-17.6.37.8.37 2.4.38 8.8.37 13.59.38-7.2.37-20.79.37 22.39.38-1.6.37 4 .38-17.59.37 8 .37 1.6.38 6.39.37 7.2.38-30.39.37-3.2.37 22.4.38 8.79.37-4 .37-10.39.38-4.8.37-1.6.38-2.4.37 8.8.37-1.6.38 24.79.37-26.39.38 2.4.37-14.4.37 20 .38 10.39.37-13.59.38-4.8.37-12.8.37 4 .38 19.99.37-40.79.38 6.4.37 67.99.37-35.19.38-8.8.37 8.8.37 3.19.38-13.59h.37l.38 30.39.37 39.2.37-59.99.38-18.4.37 47.99.38-20.8.37 15.2.37-1.6.38 4 .37-5.6.38-6.4.37 10.4.37-4.8.38-27.19.37-17.6.37 61.59.38-21.6.37 5.6.38-15.2.37 1.6.37-19.99.38 7.2.37 40.79.38-23.2.37 18.4.37-31.19.38-8.8.37 45.59.38-28 .37-17.59.37 18.39.38 5.6.37-4.8.38-6.4.37-4.79.37 36.79.38-20.8.37 10.4.37-34.39.38 8 .37-6.4.38 4.8.37-10.4.37 9.6.38 2.4.37-2.4.38 4 .37-2.4.37 4.79.38-8.79.37-.8.38 12.79.37-3.2.37-19.19.38 15.2.37 8.79.37-23.99.38 34.39.37-19.19.38 11.19.37-20.79.37-7.2.38.8.37 20.79.38-19.19.37 19.99.37-9.59.38 9.59.37 7.2.38-25.59h.37l.37-8 .38 31.99.37-10.39h.38l.37-3.2.37 8.79.38-24.79.37 23.19.37 10.4.38-19.99.37-15.2.38 20 .37-8 .37-12 .38 15.2.37 10.39.38-20.79.37 6.4.37 10.4.38 11.99.37-12.79.38 26.39.37-22.4.37-55.19.38 71.99h.37l.37-70.39.38 23.2.37 13.6.38 3.2.37 50.39.37-4.8.38-22.4.37-30.39.38 27.19.37-9.59.37-1.6.38 6.39.37 9.6.38-.8.37 4 .37-15.2.38-23.19.37 29.59.38-16.79.37 11.99.37-32.79.38 28.8.37-18.4.37 47.99.38-20.8.37-14.39.38 15.19.37-28.79.37 29.59.38 7.2.37 4 .38 11.2.37-21.6.37-16.79.38-16 .37 27.19.38-4 .37-40.79.37 28.8.38 7.2.37 46.39.37-73.59.38 31.99.37-11.19.38-3.2.37 4 .37 11.99.38-15.19.37-3.2.38 5.6.37 5.6.37 2.4.38-7.2.37 4.8.38-4.8.37 11.99.37-22.39.38 23.19.37-10.39.38 11.99.37-23.19h.37l.38 9.6.37 1.6.37 7.99.38-26.39.37-8 .38 25.6.37-3.2.37 8 .38 2.4h.37l.38-8 .37-4.8.37.8.38 8 .37 9.59.38 1.6.37-9.59.37-4.8.38 10.39.37-.8.37-11.99.38 26.39.37-23.19.38-4 .37 5.6.37-3.2.38 8 .37-11.2.38-6.4.37 18.4.37 4.79.38-19.99.37 15.99.38 3.2.37 8 .37-17.59.38-13.6h.75l.37 66.39.37-40.8.38-10.39.37 19.19.37-34.39.38 12.8.37-20 .38 56.79.37-23.2.37 35.2.38 15.2.37-59.19.38 3.19.37 23.2.37-20 .38 4 .37 18.4.38-34.39.37 1.6.37 11.19.38-7.19.37-8 .37 14.39.38-39.19.37 67.99.38-13.6.37-16 .37-10.39.38-13.6.37 16 .38-7.2.37-14.4.37 4.8.38 31.19.37-43.19.38 39.19.37-4.8.37-4.79.38 6.39.37 8.8.38-36.79.37 4.8.37 16 .38-11.2.37 5.6.37 15.99.38-8.79.37-3.2.38 8.79.37-13.59.37 15.99.38-28.79.37 21.6.38 7.19.37-2.4.37-20.79.38 12.8.37 4.8.38 4.79.37-17.59.37 1.6.38 7.2.37.8.37 14.39.38-6.4.37-7.99.38 2.4.37 5.59.37-27.99.38 13.6.37.8.38-12 .37 7.2.37 20.79.38-7.99.37-4h.38l.37 4.8h.37l.38-6.4.37 8.79.38-6.39.37 7.99.37 12 .38-19.99.37 1.6.37 18.39.38-12 .37 7.2.38-10.4.37-14.39.37 16.79.38-19.99.37 39.99.38 15.2.37-33.6.37 16.8.38-16.8.37 12 .38-15.2.37 10.4.37-20.79.38-13.6.37-25.6.37 15.2.38 33.59.37-5.59.38 6.39.37-15.19.37 8.8.38-15.2.37 10.4.38 27.19h.37l.37-26.39.38-21.6.37 47.99.38-5.6.37-18.39.37 9.59.38 6.4.37-27.19.37-10.4.38-1.6.37 8.8.38 17.6.37 7.19.37 5.6.38-11.99.37 15.99.38-42.39.37 13.6.37 13.6.38 27.19.37-38.39.38 64.79.37-47.2.37-13.59.38 21.59.37-7.2.38-22.39.37 27.19.37-11.19.38-8.8h.37l.37 8 .38 2.39.37 11.2.38-23.99.37-16 .37 16 .38 8 .37-.8.38-12.8.37 15.2.37 3.99.38 1.6.37-8.79.38-3.2.37 11.19.37-18.39.38 1.6.37 9.6.37 10.39.38-21.59.37 7.2.38 1.6.37 11.99.37-16.79.38 12.79.37-28.79.38 21.6.37 20.79.37-31.99.38 2.4.37 15.2.38-12 .37-4.8.37 23.99.38-16.79.37 3.2.38 9.59.37-15.19.37 3.2.38-1.6.37 15.99.37-4.8.38 13.6.37-7.2.38-7.19h.74l.38 21.59.37-63.19.38 28 .37 12 .37-7.2.38-1.6.37 27.19.38-15.2.37-15.19.37 42.39.38-25.6.37-19.19.37 28.79.38-31.19.37 20.79.38-7.19.37 1.6.37-11.2.38 24.79.37-24.79.38 23.99.37-3.2.37 34.4.38-68.79.37 26.4.38 17.59.37-20.79.37 38.39.38-5.6.37-58.39.38 44.79.37-31.19.37-5.6.38 52.79.37 11.2.37-62.39.38 37.59.37-19.99.38 31.19.37-35.99.37 4.8.38 30.39.37-20.8.38-1.6.37 9.6.37 13.6.38-38.39.37 1.6.38 15.99.37-4.8.37 4 .38-11.99h.37l.37 12.79.38-1.6.37-11.19.38 11.99.37-8.79.37-3.2.38-24 .37 28.8.38.8.37-11.2.37 18.39.38 1.6.37-4 .38-15.99.37-3.2.37 4.8.38 4.8h.37l.38-5.6.37-1.6.37-11.2.38 20.8.37 9.59.37-19.19.38 11.2.37-3.2.38-1.6.37 4 .37-7.2h.38l.37 4 .38-8 .37 15.19.37-11.99.38-12 .37 7.2.38 1.6.37 8.8.37-8.8.38 2.4.37 10.4.37-13.6.38 17.59.37-10.39.38 4 .37 2.4.37-8.8.38 10.39.37-12.79.38 26.39.37-31.99.37 39.99.38-29.59.37 21.59.38-35.19.37 40.79.37-38.39.38 13.6.37 16.79.38-21.59.37 10.39.37 6.4.38 32 .37-81.59.37 55.99.38-55.99.37 79.99.38-20 .37-26.39.37 7.2.38-2.4.37 11.99.38-2.4.37 8.8.37-14.4.38 10.4.37-39.99.38 40.79h.37l.37-3.2.38-6.4.37 28 .37-29.6.38-5.59.37 5.59.38-26.39.37-16.8.37 51.99.38-4.8.37-17.59.38 1.6.37 23.19.37-8.8.38 2.4.37-6.39.38-15.2.37 22.39.37-13.59.38 12.79.37-11.19.38 19.19.37-6.4.37-16.79.38 17.59.37-19.19.37-11.2.38 28.79.37-3.2.38-3.99.37 12.79.37-38.39.38 6.4.37 15.2.38 7.19.37-20.79.37 15.2.38-3.2.37 1.6h.38l.37 6.39.37 4 .38-16.79.37-1.6.37-4 .38 3.2.37 14.39.38-5.59.37-13.6.37 24.79.38-23.99.37 10.4.38-1.6.37-3.2.37 17.59.38 6.4.37-16.79.38 12.79.37-12.79.37-6.4.38-3.2.37 8 .38 2.4.37-1.6.37.8.38 5.59.37-3.19.37-15.2.38 12 .37-23.2.38 26.4.37-28 .37 32.79.38 8.8.37-30.39.38 15.2.37 17.59.37 1.6.38-4.8.37-23.99.38 12 .37 23.99.37-21.6.38 44.8.37-63.99.37 11.2.38-12 .37 11.2.38-9.6.37 3.2.37 30.39.38-15.99.37-14.4.38 2.4.37 13.59.37-4.79.38 27.19.37-49.59.38 34.39.37 10.4.37-25.59.38-49.6.37 41.6.38-11.2.37 7.2.37-6.4.38-3.2.37 40.79.37-44.79.38 64.79.37-55.99.38 23.2.37-28.8.37 25.6.38-21.6.37 63.99.38 4 .37-34.4.37.8.38 7.2.37-16 .38-15.19.37 13.6.37 11.99.38-35.19.37 15.2.37 4 .38-12 .37-10.4.38 5.6.37 27.99.37 2.4.38-11.19.37-.8.38.8.37.8.37 2.39h.38l.37 1.6.38 1.6.37-15.99.37 17.59.38 4 .37-8.8.38-11.19.37-11.2.37 23.19.38-2.39.37-1.6.37-8 .38 4 .37 4 .38-8.8.37 20.79.37-11.19.38-10.4.37 18.39.38-16.79.37 11.99.37-11.99.38-12 .37 18.4.38 2.4.37 10.39.37-38.39.38 8.8.37 1.6.37 12.8.38 7.19.37-7.19.38-9.6.37 71.99.37-37.6.38-2.4.37 1.6.38-6.4.37 11.2.37-59.99.38 36.8.37 12.79.38-7.2.37-23.19.37 16 .38 6.39.37 6.4.38-23.99.37 35.99.37-7.2.38 18.4.37-33.59.37 9.59.38-16.79.37 57.59.38-32.8.37-31.19.37-16 .38 28 .37-7.2.38 43.19.37-44.79.37 69.59.38-59.19.37-24 .38-13.6.37 57.59.37-36.79.38 39.19.37-18.4.37-26.39.38 39.19.37-23.19.38-43.2.37 48.8.37-3.2.38-4 .37 27.99.38-35.19.37 37.59"/><use xlink:href="#h" color="#29C3F6" transform="matrix(3.75 0 0 3.75 56.04 104.21)"/><use xlink:href="#h" color="#29C3F6" transform="matrix(3.75 0 0 3.75 95.45 22.51)"/></g><text fill="#000" stroke="none" stroke-linecap="round" stroke-linejoin="round" color="#000" font-family="KaTeX_Main" font-size="8" transform="translate(241.1 10.11)"><tspan>AVLWeakBottomUp</tspan></text><g fill="none" stroke="currentColor" stroke-linecap="round" stroke-linejoin="round" color="#000"><path stroke="#3B75EA" d="M205.6 7.51h29.9M28 156.2l.37-24 .38-17.59.37 15.99.38-7.99.37 2.4.37 31.19.38 2.4.37-23.2.38 1.6.37-26.39.37 4.8.38 50.39.37-78.39.37 34.4.38-48.8.37 64.79.38.8.37-4 .37-11.19.38 4.79.37-11.19.38 10.39.37-14.39.37 5.6.38 4.8.37-6.4.38 17.59.37-13.59.37-5.6.38-6.4.37 20.79.37-.8.38-22.39.37 16.8.38-2.4.37-3.2.37 8.79.38-5.59.37 11.19.38-23.99.37 8 .37 7.2.38-6.4.37 4 .38-1.6.37 3.2.37 20.79.38-28.79.37 4 .38-1.6.37 20.79.37-27.19.38-6.4.37 18.4.37-11.2.38 13.6.37-20 .38 8.8.37 12.79.37-22.39.38 16.8.37 4 .38 7.99.37-24.79.37 16 .38 2.39.37-6.39.38-5.6.37-3.2.37-4 .38 16 .37-11.2.37 27.19.38-7.2.37-27.99.38 22.39.37 20.8.37-12.8.38-4.8.37 12.8.38-46.39.37-7.2.37 91.99.38-71.19.37 43.99.38 6.4.37-85.59.37 42.4.38 13.59.37 1.6.38-10.39.37 2.4.37 9.59.38-14.39.37-18.4.37 28.79.38-25.59.37 38.39.38-29.59.37-10.4.37 3.2.38 8.8.37 29.59.38-32.79.37 2.4.37 34.39.38 4 .37-36.79.38 39.99.37-43.99.37 32.79.38-29.59.37 23.99.37-37.59.38-3.2.37 27.99.38-39.99.37 35.2.37 19.19.38 12.8.37-43.19.38 22.39.37-4 .37-3.19.38-20.8.37 21.59.38-7.19.37-1.6.37.8.38 8.79.37 6.4.38-.8.37-5.6.37-4.79.38-13.6h.37l.37 2.4.38 7.2.37 16.79.38-7.2.37-22.39.37 20.79h.38l.37 4 .38-17.59.37 8 .37 2.4.38 4.79.37 7.2.38-29.59.37-4 .37 24.79.38 7.2.37-5.6.37-7.99.38-6.4h.37l.38-3.2.37 8 .37.8.38 22.39.37-25.59.38 1.6.37-14.4.37 21.6.38 10.39.37-15.19.38-1.6.37-18.4.37 7.2.38 19.99.37-40.79.38 6.4.37 67.99.37-35.19.38-8.8.37 8.8.37 3.19.38-13.59.37 1.6.38 28.79.37 39.2.37-58.4.38-19.99.37 47.99.38-20.8.37 15.2h.37l.38 2.4.37-4 .38-8 .37 10.4.37-4.8.38-27.19.37-17.6.37 61.59.38-21.6.37 5.6.38-15.2.37 1.6.37-19.99.38 7.2.37 40.79.38-23.2.37 18.4.37-31.19.38-8.8.37 45.59.38-28 .37-17.59.37 18.39.38 5.6.37-4.8.38-6.4.37-4.79.37 36.79.38-20.8.37 10.4.37-34.39.38 8 .37-6.4.38 6.4.37-10.4.37 3.2.38 7.2.37-1.6.38 2.4.37-1.6.37 4.79.38-9.59h.37l.38 12.79.37-.8.37-22.39.38 13.6.37 11.99.37-24.79.38 34.39.37-19.99.38 12.79.37-20.79.37-8.8.38 3.2.37 17.59.38-18.39.37 20.79.37-9.59.38 9.59.37 10.4.38-30.39.37 4 .37-12.8.38 34.39.37-10.39h.38l.37-1.6.37 5.59.38-21.59.37 23.19.37 6.4.38-19.19.37-11.2.38 16.8.37-6.4.37-12 .38 14.4.37 11.19.38-23.99.37 8 .37 10.4.38 12.79.37-12.79.38 26.39.37-22.4.37-54.39.38 71.19.37.8.37-71.19.38 24 .37 12.8.38 3.2.37 50.39.37-4.8.38-22.4.37-30.39.38 27.19.37-9.59.37-1.6.38 6.39.37 9.6.38-.8.37 4 .37-15.2.38-23.19.37 29.59.38-16.79.37 11.99.37-32.79.38 28.8.37-18.4.37 47.99.38-20.8.37-14.39.38 15.19.37-28.79.37 29.59.38 7.2.37 4 .38 11.2.37-21.6.37-16.79.38-16 .37 26.39.38-4.79.37-39.2.37 28.8.38 7.2.37 46.39.37-73.59.38 31.99.37-10.39.38-4 .37 6.4.37 6.4.38-12 .37-2.4.38 4.8.37 4.8.37 3.2.38-2.4.37-5.6.38 2.4.37 9.59.37-21.59.38 26.39.37-11.99.38 11.19.37-27.19.37 3.2.38 10.4.37.8.37 6.4.38-24.8.37-6.4.38 20 .37 1.6.37 7.2.38 3.99.37-2.39.38-6.4.37-5.6h.37l.38 8.8.37 9.59.38.8.37-8.79.37-2.4.38 5.6.37 3.19.37-14.39.38 26.39.37-19.99.38-8 .37 8 .37-4.8.38 8.8.37-11.2.38-5.6.37 16.8.37 4.79.38-19.19.37 15.99.38 3.2.37 8 .37-17.59.38-13.6h.75l.37 66.39.37-40.8.38-10.39.37 19.19.37-33.59.38 12 .37-20 .38 56.79.37-23.2.37 35.2.38 15.2.37-59.99.38 3.99.37 23.2.37-20 .38 4 .37 18.4.38-34.39.37 1.6.37 11.19.38-7.19.37-8 .37 14.39.38-39.19.37 67.99.38-13.6.37-16 .37-10.39.38-13.6.37 16 .38-7.2.37-14.4.37 4.8.38 31.19.37-43.19.38 39.19.37-4.8.37-4.79.38 6.39.37 8.8.38-36.79.37 4.8.37 16 .38-10.4.37 4 .37 17.59.38-10.39.37-2.4.38 8.79.37-12.79.37 15.99.38-28.79.37 19.2.38 7.99.37-.8.37-20.79.38 9.6.37 7.99.38 4.8.37-19.19.37 2.4.38 7.2.37 2.4.37 11.19.38-5.6.37-6.39.38 3.99.37 4.8.37-31.99.38 15.2.37 2.4.38-12.8.37 6.4.37 21.59.38-6.4.37-7.19.38.8.37 5.6h.37l.38-5.6.37 8.79.38-6.39.37 6.39.37 12 .38-19.19.37 3.2.37 14.39.38-8.8.37 5.6.38-10.39.37-9.6.37 9.6.38-16.8.37 39.99.38 15.2.37-33.6.37 16.8.38-16.8.37 12 .38-13.6.37 8.8.37-20.79.38-12.8.37-26.4.37 15.2.38 33.59.37-5.59.38 6.39.37-15.19.37 8.8.38-15.2.37 10.4.38 27.19h.37l.37-26.39.38-21.6.37 47.99.38-5.6.37-18.39.37 9.59.38 6.4.37-27.19.37-10.4.38-1.6.37 8.8.38 17.6.37 7.19.37 5.6.38-11.99.37 15.99.38-42.39.37 13.6.37 13.6.38 27.19.37-38.39.38 64.79.37-47.2.37-13.59.38 21.59.37-7.2.38-22.39.37 27.19.37-9.6.38-7.99.37-5.6.37 11.2.38 3.99.37 8.8.38-23.19.37-16.8.37 18.4.38 6.4.37-2.4.38-12 .37 17.6.37 1.59.38 3.2.37-9.59.38-4 .37 12.79.37-17.59h.38l.37 8 .37 13.59.38-24.79.37 8.8.38 3.2.37 9.59.37-15.19.38 9.6.37-24 .38 16.8.37 23.19.37-32.79.38 5.6.37 10.4.38-7.2.37-7.2.37 23.19.38-15.99.37 4 .38 7.99.37-15.19.37 4 .38-.8.37 14.39.37-2.4.38 10.4.37-4.8.38-9.59.37 2.39.37.8.38 20 .37-63.19.38 28 .37 12 .37-7.2.38-1.6.37 27.19.38-16.79.37-13.6.37 42.39.38-25.6.37-19.19.37 28.79.38-31.19.37 20.79.38-7.19h.37l.37-8 .38 23.19.37-26.39.38 25.59.37-3.2.37 34.4.38-68.79.37 28 .38 15.99.37-20.79.37 38.39.38-5.6.37-58.39.38 44.79.37-31.19.37-5.6.38 52.79.37 11.2.37-62.39.38 37.59.37-19.99.38 31.19.37-35.99.37 4.8.38 30.39.37-20.8.38-1.6.37 9.6.37 13.6.38-38.39.37 1.6.38 15.99.37-4.8.37 5.6.38-14.39.37.8.37 13.59.38-2.4.37-14.39.38 15.99.37-9.59.37-4 .38-21.6.37 28 .38-2.4.37-8 .37 18.39.38 1.6.37-6.4.38-13.59.37-5.6.37 7.2.38 5.6.37-.8.38-8h.37l.37-9.6.38 18.4.37 11.19.37-22.39.38 15.99.37-8.79.38 3.2.37 3.2.37-8 .38-.8.37 4 .38-5.6.37 11.2.37-5.6.38-19.2.37 9.6.38 4 .37 8 .37-9.6.38 4.8.37 7.2.37-15.2.38 20.79.37-12.79.38 7.2.37-.8.37-8 .38 11.19.37-12.79.38 26.39.37-31.99.37 39.99.38-29.59.37 21.59.38-35.19.37 40.79.37-38.39.38 15.2.37 16.79.38-23.19.37 10.39.37 6.4.38 32 .37-80.79.37 55.19.38-55.99.37 79.99.38-20 .37-26.39.37 7.2.38-2.4.37 11.99.38-2.4.37 8.8.37-14.4.38 10.4.37-39.99.38 40.79h.37l.37-3.2.38-6.4.37 28 .37-29.6.38-5.59.37 5.59.38-26.39.37-16.8.37 51.99.38-4.8.37-17.59.38 1.6.37 23.19.37-8.8.38 2.4.37-6.39.38-15.2.37 22.39.37-10.39.38 5.59.37-7.19.38 19.99.37-8 .37-15.19.38 16.79.37-19.99.37-11.2.38 30.39.37-4 .38-5.59.37 16.79.37-41.59.38 8 .37 12 .38 9.59.37-20.79.37 15.2.38-3.2.37 1.6.38 1.6.37 3.99.37 5.6.38-19.19.37.8.37-4.8.38 2.4.37 15.19.38-6.39.37-12 .37 25.59.38-27.19.37 14.4.38-6.4.37 1.6.37 12.79.38 8 .37-15.99.38 12.79.37-11.19.37-8.8.38-1.6.37 8h.38l.37.8h.37l.38 6.39.37-3.99.37-16.8.38 13.6.37-23.2.38 26.4.37-28 .37 32.79.38 8.8.37-30.39.38 15.2.37 17.59.37 1.6.38-4.8.37-23.99.38 12 .37 23.99.37-21.6.38 44.8.37-63.99.37 11.2.38-12 .37 11.2.38-9.6.37 3.2.37 30.39.38-15.99.37-14.4.38 1.6.37 14.39.37-4.79.38 27.19.37-49.59.38 34.39.37 10.4.37-25.59.38-48 .37 40 .38-11.2.37 7.2.37-5.6.38-4 .37 40.79.37-44.79.38 64.79.37-55.99.38 23.2.37-28.8.37 25.6.38-21.6.37 63.99.38 4 .37-34.4h.37l.38 8 .37-15.2.38-15.19.37 11.2.37 12.79.38-33.59.37 14.4.37 5.6.38-15.2.37-9.6.38 7.2.37 27.99h.37l.38-8.79h.37l.38-3.2.37 3.2.37 3.99.38.8.37-2.4.38 1.6.37-14.39.37 18.39.38 3.2.37-9.59.38-11.2.37-8 .37 19.99.38-1.59.37-.8.37-7.2h.38l.37 4.8.38-6.4.37 19.99.37-12.79.38-8 .37 16.79.38-13.59.37 9.59.37-12.79.38-10.4.37 16 .38 4.8.37 8.79.37-38.39.38 10.4h.37l.37 14.4.38 6.39.37-7.19.38-9.6.37 72.79.37-38.4.38-2.4.37 1.6.38-6.4.37 11.2.37-59.99.38 36.8.37 14.39.38-7.2.37-24.79.37 16 .38 6.39.37 6.4.38-23.99.37 35.99.37-5.6.38 16.8.37-32.8.37 8.8.38-17.59.37 58.39.38-32.8.37-31.19.37-16 .38 28 .37-7.2.38 43.19.37-44.79.37 69.59.38-58.4.37-25.59.38-13.6.37 58.39.37-36.79.38 38.39.37-17.6.37-26.39.38 39.99.37-23.99.38-43.2.37 48.8.37-3.2.38-4 .37 27.99.38-35.19.37 37.59"/><use xlink:href="#d" color="#3B75EA" transform="matrix(3.75 0 0 3.75 113.62 126.6)"/><use xlink:href="#d" color="#3B75EA" transform="matrix(3.75 0 0 3.75 220.55 7.51)"/></g><text fill="#000" stroke="none" stroke-linecap="round" stroke-linejoin="round" color="#000" font-family="KaTeX_Main" font-size="8" transform="translate(241.1 25.11)"><tspan>AVLWeakTopDown</tspan></text><g fill="none" stroke="currentColor" stroke-linecap="round" stroke-linejoin="round" color="#000"><path stroke="#00C853" stroke-dasharray="4.5,2.0,0.5,2.0,0.5,2.0" d="M205.6 22.51h29.9M28 129l.37-19.19.38 24.79.37-27.99.38 5.6.37-16 .37 35.19.38 25.6.37-4.8.38-25.6.37-33.59.37 22.4.38 19.99.37-47.99.37 36 .38-72.8.37 58.4.38 35.99.37-15.2.37-9.59.38 4 .37-16.8.38 8 .37-9.6.37 3.2.38 4.8.37-1.6.38 12 .37-4 .37-9.6.38-9.6.37 16 .37-.8.38-14.4.37 18.4.38-14.4.37 10.4.37 1.6.38-10.4.37 19.99.38-25.59.37 4.8.37 4 .38 2.4.37 6.4.38-5.6.37 4.8.37 11.19.38-23.99.37 9.6.38-12 .37 28.79.37-28.79.38-8 .37 26.4.37-8 .38-7.2.37-4.8.38 4 .37 21.59.37-35.19.38 23.2.37-4 .38 7.2.37-26.4.37 21.6.38-3.2.37 8 .38-12.8.37 2.4h.37l.38-3.2.37-8.8.37 35.99.38-17.59.37-54.4.38 57.6.37 4.8.37-17.6.38 20.79.37 11.2.38-42.39.37-13.6.37 67.19.38-45.59.37 45.59h.38l.37-83.99.37 42.4.38 6.4.37.8.38 3.2.37 19.19.37-25.59.38 8.8.37-21.6.37 29.59.38-35.19.37 49.59.38-39.99.37-.8.37-13.6.38 10.4.37 52.79.38-55.19.37 34.39.37-.8.38 19.2.37-56.79.38 56.79.37-49.59.37 34.39.38-37.59.37 22.4.37-15.2.38-20 .37 49.59.38-17.59.37-16 .37 10.4.38 35.19.37-43.19.38 18.4.37.8.37-.8.38-22.4.37 20.8.38-6.4.37-7.2.37 16.8.38-3.2.37 6.4.38 3.19.37 2.4.37-15.19.38-6.4.37-10.4.37 11.2.38 3.2.37 15.19.38-3.99.37-32 .37 22.4.38 4.8.37 6.4.38-17.6.37 9.6.37 2.4.38 6.39.37 2.4.38-26.39.37-9.6.37 20.8.38 15.99.37-17.59h.37l.38-13.6.37 18.4.38-17.6.37 19.2.37-9.6.38 19.99.37-20.79.38 4 .37-8.8.37 16 .38 11.19.37-13.59.38-3.2.37-8 .37-4.8.38 34.39.37-44.79.38-23.2.37 44.8.37-17.6.38 2.4.37 17.6.37 34.39.38-51.99.37 14.4.38 12.8.37 37.59.37-35.99.38-8 .37 30.39.38-27.19h.37l.37 26.39.38-23.99.37 13.59.38.8.37-17.59.37 17.59.38-29.59.37-15.2.37 71.19.38-17.6.37 18.4.38-38.4.37-11.99.37-25.6.38 29.6.37 36.79.38-36.79.37 25.59.37-27.19.38-9.6.37 45.59.38-15.2.37-17.59.37 18.39.38-5.6.37-32.79.38 29.59.37-26.39.37 43.99.38-26.39.37 51.19.37-60.79.38 5.6.37-10.4h.38l.37-6.4.37 15.2.38 10.4.37-7.2.38-3.2.37 4.8.37-2.4.38-11.2.37 4.8.38 13.6.37 4.79.37-28.79.38 12.8.37 7.2.37-20 .38 35.19.37-19.99.38 17.59.37-21.59.37-3.2.38-2.4.37 12 .38-2.4.37 6.4.37-13.6.38 14.4.37 11.99.38-35.99.37 4.8.37-12 .38 29.6.37-.8.38 5.59.37-12.79.37 5.6.38-21.6.37 24.8.37 10.39.38-22.39.37-12.8.38 20.8.37-6.4.37-8 .38 7.2.37 8 .38-20.8.37 9.6.37-.8.38 9.6.37-6.4.38 4 .37.8.37-48.8.38 71.99.37-23.19.37-40.8.38 20.8.37 2.4.38 11.2.37 38.39.37 2.4.38-20 .37-26.39.38 19.2.37 3.2.37.79.38-15.99.37 46.39.38-26.4.37 12 .37-29.59.38-23.2.37 39.19.38-14.39.37-13.6.37-22.4.38 36 .37-13.6.37 20 .38-11.2.37 26.39.38-20.79.37-16 .37 20.8.38 3.2.37-12.8.38 55.19.37-30.4.37-13.59.38-23.2.37 42.39.38-18.39.37-27.2.37 3.2.38 8.8.37 61.59.37-84.79.38 20 .37 1.6.38 10.4.37-8 .37 13.6.38-25.6.37 10.4.38 3.2.37 4 .37 1.6.38 4 .37-9.6.38 4.8.37 8.8.37-21.6.38 21.6.37-5.6.38 7.2.37-27.2.37 4.8.38 9.6.37 7.2.37-2.4.38-23.2.37-9.6.38 22.4.37 7.2.37 2.4.38 9.6.37-9.6.38-12 .37-4 .37 4.8.38 17.6.37-6.4.38 3.2.37-2.4h.37l.38 5.6.37-7.2.37-8.8.38 25.59.37-17.59.38-7.2.37 12 .37-12 .38 10.4.37-20.8.38-1.6.37 26.4.37-4 .38-.8.37 8.8.38-4.8.37 2.4.37-14.4.38-10.4.37-16.8.38 15.2.37 61.59.37-20.8.38-4 .37-3.2.37-19.19.38-8.8h.37l.38 35.19.37-12.79.37 24.79.38 10.4.37-54.39.38 16.8.37 12.79.37-13.59.38-10.4.37 12.8.38-28.8.37.8.37 44.79.38-18.39.37-18.4.37 2.4.38-13.6.37 52.79.38-35.19.37 3.2.37-1.6.38-29.6.37 39.2.38-5.6.37-6.4.37-2.4.38 8.8.37-8.8.38 4.8.37 17.59.37-5.59.38 11.19.37-11.19.38-42.4.37 24.8.37 12.8.38-12.8.37 8 .37 5.6.38 3.2.37-9.6.38 8.8.37-18.4.37 9.6.38-12 .37 16.8.38 12.79.37-18.39.37-16 .38 15.2.37 12 .38 1.6.37-24 .37 5.6.38 8 .37 3.2.37 12.79.38-19.99.37 1.6.38 9.6.37.8.37-24.8.38 12.8.37-4 .38 4 .37-3.2.37 19.99.38-8.79.37-1.6.38 5.6.37-11.2.37 8 .38-7.2.37 10.4.38-11.2.37 15.19.37 5.6.38-22.39.37 7.2.37 14.39.38-12.79.37 5.6.38-4 .37-13.6.37 10.4.38-16 .37 32.79.38 24 .37-15.2.37-26.39.38 16.79.37-24.79.38-16 .37 42.39.37-31.99.38 2.4.37-25.6.37-1.6.38 34.4.37 12.8.38 14.39.37-38.39.37 4 .38-2.4.37-13.6.38 43.99.37 24.8.37-51.99.38-41.6.37 72.79.38-9.6.37-35.99.37 19.2.38 7.2.37-9.6.37-21.6.38-17.6.37 21.6.38 29.6.37 23.99.37-20.79.38-3.2.37 19.19.38-44.79.37 6.4.37 22.4.38 12.79.37-12.79.38 40.79.37-51.19.37 6.4.38 25.59.37-15.2.38-28.79.37 14.4.37-3.2.38 1.6.37-6.4.37 9.6.38 5.6.37-8.8.38-6.4.37-13.6.37 16 .38 3.2.37 2.4.38-16 .37 17.6.37-.8.38 9.59.37-15.99.38.8.37-3.2.37-.8.38-4 .37 11.2.37 9.6.38-12 .37 8.8.38-13.6.37 16.8.37-8 .38-4.8.37-10.4.38 9.6.37 20.79.37-33.59.38 10.4.37 8 .38 2.4.37-9.6.37 20.79.38-23.99.37 11.2.38 11.19.37-17.59.37 2.4.38-2.4.37 7.2.37 5.6.38 10.39.37-8.79.38-15.2.37 11.2.37-4.8.38 35.19.37-77.59.38 42.4.37-33.6.37 36 .38-6.4.37 18.39.38-11.19.37-13.6.37 14.4.38-10.4.37-4 .37 4 .38-4.8.37 15.2.38-12 .37 10.4.37-36.8.38 25.6.37-3.2.38 8 .37 15.99.37 25.6.38-60.79.37 22.4.38 5.6.37-11.2.37 21.59.38 8.8.37-16.79.38-8 .37-8.8.37-24 .38 52.79.37 19.2.37-51.19.38 53.59.37-44.79.38 35.19.37-54.39.37 35.19.38 4 .37-7.19.38-9.6.37 23.19.37.8.38-15.99.37-5.6.38-6.4.37 6.4.37 7.2.38-20 .37 7.2.37 17.59.38-10.39.37-22.4.38 27.2.37-.8.37-13.6.38-15.2.37 28.8.38-5.6.37-4 .37 1.6.38 6.4.37-7.2.38-10.4.37 5.6.37 8.8.38 1.6.37-4 .38-13.6.37 2.4.37-1.6.38 13.6.37 5.6.37-13.6.38 4 .37-.8.38 1.6.37-3.2.37-5.6.38 7.2.37 2.4.38-5.6.37 12 .37-1.6.38-20 .37 11.2.38-5.6.37 20.8.37-20 .38 12.8.37 3.2.37-12 .38 16 .37-12 .38-.8.37 5.6.37-5.6.38-8.8.37 9.6.38 37.59.37-47.19.37 30.39.38-12.79.37-2.4.38 8.79.37 31.2.37-59.19.38 37.59.37-20.79.38-16.8.37 24 .37-9.6.38 34.39.37-67.99.37 45.59.38-44.79.37 63.19.38-13.6.37-32.79.37 11.2.38-21.6.37 21.6.38 6.4.37 24.79.37-32.79.38 18.39.37-34.39.38 37.59.37 12.8.37-11.2.38-.8.37-8.79.37-34.4.38 7.2.37 13.6.38-18.4h.37l.37 54.39.38-31.19.37-10.4.38 12 .37 9.6.37-10.4.38 6.4.37-3.2.38-24 .37 8 .37 15.2.38 7.2.37-2.4.38 6.39.37 1.6.37-20.79.38 23.19.37-10.39.37-23.2.38 28 .37-12.8.38 15.19.37 7.2.37-50.39.38 18.4.37 20.8.38-12 .37-4 .37 6.4.38-4 .37.8.38-.8.37 19.19.37-11.19.38-10.4.37 8 .37-16.8.38 15.2.37 8 .38-12.8.37-15.2.37 30.4.38-16 .37 8 .38-10.4.37 11.2.37 8.79.38 5.6.37-14.39.38 2.4.37-1.6.37-7.2.38 8.8.37-2.4.38-3.2.37 4h.37l.38 11.99.37-23.19.37-7.2.38 4 .37-.8.38-7.2.37 7.2.37 27.19.38-7.99.37-8.8.38 11.2.37 2.39.37-1.59.38-12.8.37 1.6.38-30.4.37 59.19.37-11.2.38 30.4.37-60.79.37 2.4.38-27.2.37 43.2.38-38.4.37 35.2.37-18.4.38 18.4.37-21.6.38 35.99.37-25.59.37 7.2.38 30.39.37-55.19.38 37.6.37 7.19.37-10.39.38-54.4.37 39.2.38-12.8.37-8 .37 7.2.38 8.8.37 49.59.37-78.39.38 67.99.37-40.79.38 13.6.37-28.8.37 44.79.38-34.39.37 60.79.38-27.2.37-6.39.37 12.79.38-1.6.37-5.6.38-31.99.37 10.4.37 26.39.38-36.79.37 15.2.37-8.8.38 2.4.37-18.4.38 20 .37 6.4.37 8.8.38-2.4.37.8.38.8.37-6.4.37-4 .38 12 .37-.8.38-2.4.37-16.8.37 23.99.38-.8.37-3.99.38-8.8.37-12 .37 23.2.38-12 .37-3.2.37-.8.38 4.8.37 7.2.38-11.2.37 25.59.37-23.19.38-2.4.37 16.79.38-11.99h.37l.37-10.4.38-4.8.37 8 .38 12 .37 5.6.37-34.4.38 11.2.37 3.2.37 5.6.38 9.6.37 16.79.38-24.79.37 53.59.37-30.4.38-12.79.37-2.4.38 9.59.37 8.8.37-62.39.38 48 .37 27.99.38-27.99.37-32 .37 20 .38 7.2.37 23.99.38-25.59.37 28.79.37-20 .38 16 .37-15.2.37 2.4.38-17.59.37 40.79.38-23.2.37-11.19.37-22.4.38 4.8.37 7.2.38 40.79.37-46.39.37 68.79.38-42.4.37-13.59.38-52 .37 58.4.37-20.8.38 43.19h.37l.37-66.39L369 137l.37-34.39.38-20.8.37 44.79.37-33.59.38 51.99.37-2.4.38-35.19.37 31.99"/><use xlink:href="#i" color="#00C853" transform="matrix(3.75 0 0 3.75 171.2 110.61)"/><use xlink:href="#i" color="#00C853" transform="matrix(3.75 0 0 3.75 220.55 22.51)"/></g><path fill="none" stroke="none" stroke-linecap="round" stroke-linejoin="round" stroke-width="0" d="M28 45.01V205M371.99 45.01H28" color="#000"/></svg>