<svg xmlns="http://www.w3.org/2000/svg" xmlns:xlink="http://www.w3.org/1999/xlink" viewBox="0 0 400 250"><path fill="none" d="M0 0h400v250H0z"/><defs><use xlink:href="#a" id="f" fill="currentColor" stroke="none"/><use xlink:href="#c" id="d" stroke="currentColor" transform="rotate(45)"/><use xlink:href="#d" id="e" fill="currentColor" stroke="none"/><path id="c" stroke="currentColor" stroke-width=".267" d="M-1-1h2v2h-2z"/><path id="b" stroke="currentColor" stroke-width=".267" d="m0-1.33-1.33 2h2.66z"/><circle id="a" cx="0" cy="0" r="1" stroke="currentColor" stroke-width=".267"/></defs><path fill="none" stroke="#333" stroke-linecap="round" stroke-linejoin="round" stroke-width=".1" d="M46.1 205V45.01" class="gridline" color="#000"/><g fill="none" stroke-linecap="round" stroke-linejoin="round" stroke-width="0" color="#000"><path d="M46.1 205v-7.5m0-152.49v7.5"/><text fill="#000" font-family="KaTeX_Main" font-size="8" text-anchor="middle" transform="translate(46.1 215.1)"><tspan> 1</tspan></text></g><path fill="none" stroke="#333" stroke-linecap="round" stroke-linejoin="round" stroke-width=".1" d="M82.31 205V45.01" class="gridline" color="#000"/><g fill="none" stroke-linecap="round" stroke-linejoin="round" stroke-width="0" color="#000"><path d="M82.31 205v-7.5m0-152.49v7.5"/><text fill="#000" font-family="KaTeX_Main" font-size="8" text-anchor="middle" transform="translate(82.31 215.1)"><tspan> 2</tspan></text></g><path fill="none" stroke="#333" stroke-linecap="round" stroke-linejoin="round" stroke-width=".1" d="M118.52 205V45.01" class="gridline" color="#000"/><g fill="none" stroke-linecap="round" stroke-linejoin="round" stroke-width="0" color="#000"><path d="M118.52 205v-7.5m0-152.49v7.5"/><text fill="#000" font-family="KaTeX_Main" font-size="8" text-anchor="middle" transform="translate(118.52 215.1)"><tspan> 3</tspan></text></g><path fill="none" stroke="#333" stroke-linecap="round" stroke-linejoin="round" stroke-width=".1" d="M154.73 205V45.01" class="gridline" color="#000"/><g fill="none" stroke-linecap="round" stroke-linejoin="round" stroke-width="0" color="#000"><path d="M154.73 205v-7.5m0-152.49v7.5"/><text fill="#000" font-family="KaTeX_Main" font-size="8" text-anchor="middle" transform="translate(154.73 215.1)"><tspan> 4</tspan></text></g><path fill="none" stroke="#333" stroke-linecap="round" stroke-linejoin="round" stroke-width=".1" d="M190.94 205V45.01" class="gridline" color="#000"/><g fill="none" stroke-linecap="round" stroke-linejoin="round" stroke-width="0" color="#000"><path d="M190.94 205v-7.5m0-152.49v7.5"/><text fill="#000" font-family="KaTeX_Main" font-size="8" text-anchor="middle" transform="translate(190.94 215.1)"><tspan> 5</tspan></text></g><path fill="none" stroke="#333" stroke-linecap="round" stroke-linejoin="round" stroke-width=".1" d="M227.15 205V45.01" class="gridline" color="#000"/><g fill="none" stroke-linecap="round" stroke-linejoin="round" stroke-width="0" color="#000"><path d="M227.15 205v-7.5m0-152.49v7.5"/><text fill="#000" font-family="KaTeX_Main" font-size="8" text-anchor="middle" transform="translate(227.15 215.1)"><tspan> 6</tspan></text></g><path fill="none" stroke="#333" stroke-linecap="round" stroke-linejoin="round" stroke-width=".1" d="M263.36 205V45.01" class="gridline" color="#000"/><g fill="none" stroke-linecap="round" stroke-linejoin="round" stroke-width="0" color="#000"><path d="M263.36 205v-7.5m0-152.49v7.5"/><text fill="#000" font-family="KaTeX_Main" font-size="8" text-anchor="middle" transform="translate(263.36 215.1)"><tspan> 7</tspan></text></g><path fill="none" stroke="#333" stroke-linecap="round" stroke-linejoin="round" stroke-width=".1" d="M299.57 205V45.01" class="gridline" color="#000"/><g fill="none" stroke-linecap="round" stroke-linejoin="round" stroke-width="0" color="#000"><path d="M299.57 205v-7.5m0-152.49v7.5"/><text fill="#000" font-family="KaTeX_Main" font-size="8" text-anchor="middle" transform="translate(299.57 215.1)"><tspan> 8</tspan></text></g><path fill="none" stroke="#333" stroke-linecap="round" stroke-linejoin="round" stroke-width=".1" d="M335.78 205V45.01" class="gridline" color="#000"/><g fill="none" stroke-linecap="round" stroke-linejoin="round" stroke-width="0" color="#000"><path d="M335.78 205v-7.5m0-152.49v7.5"/><text fill="#000" font-family="KaTeX_Main" font-size="8" text-anchor="middle" transform="translate(335.78 215.1)"><tspan> 9</tspan></text></g><path fill="none" stroke="#333" stroke-linecap="round" stroke-linejoin="round" stroke-width=".1" d="M371.99 205V45.01" class="gridline" color="#000"/><g fill="none" stroke-linecap="round" stroke-linejoin="round" stroke-width="0" color="#000"><path d="M371.99 205v-7.5m0-152.49v7.5"/><text fill="#000" font-family="KaTeX_Main" font-size="8" text-anchor="middle" transform="translate(371.99 215.1)"><tspan> 10</tspan></text></g><g fill="none" stroke-linecap="round" stroke-linejoin="round" stroke-width="0" color="#000"><path d="M371.99 205h-7.5"/><text fill="#000" font-family="KaTeX_Main" font-size="8" transform="translate(378.99 207.6)"><tspan>0.80</tspan></text></g><g fill="none" stroke-linecap="round" stroke-linejoin="round" stroke-width="0" color="#000"><path d="M371.99 187.22h-7.5"/><text fill="#000" font-family="KaTeX_Main" font-size="8" transform="translate(378.99 189.82)"><tspan>1.00</tspan></text></g><g fill="none" stroke-linecap="round" stroke-linejoin="round" stroke-width="0" color="#000"><path d="M371.99 169.45h-7.5"/><text fill="#000" font-family="KaTeX_Main" font-size="8" transform="translate(378.99 172.05)"><tspan>1.20</tspan></text></g><g fill="none" stroke-linecap="round" stroke-linejoin="round" stroke-width="0" color="#000"><path d="M371.99 151.67h-7.5"/><text fill="#000" font-family="KaTeX_Main" font-size="8" transform="translate(378.99 154.27)"><tspan>1.40</tspan></text></g><g fill="none" stroke-linecap="round" stroke-linejoin="round" stroke-width="0" color="#000"><path d="M371.99 133.89h-7.5"/><text fill="#000" font-family="KaTeX_Main" font-size="8" transform="translate(378.99 136.49)"><tspan>1.60</tspan></text></g><g fill="none" stroke-linecap="round" stroke-linejoin="round" stroke-width="0" color="#000"><path d="M371.99 116.12h-7.5"/><text fill="#000" font-family="KaTeX_Main" font-size="8" transform="translate(378.99 118.72)"><tspan>1.80</tspan></text></g><g fill="none" stroke-linecap="round" stroke-linejoin="round" stroke-width="0" color="#000"><path d="M371.99 98.34h-7.5"/><text fill="#000" font-family="KaTeX_Main" font-size="8" transform="translate(378.99 100.94)"><tspan>2.00</tspan></text></g><g fill="none" stroke-linecap="round" stroke-linejoin="round" stroke-width="0" color="#000"><path d="M371.99 80.56h-7.5"/><text fill="#000" font-family="KaTeX_Main" font-size="8" transform="translate(378.99 83.16)"><tspan>2.20</tspan></text></g><g fill="none" stroke-linecap="round" stroke-linejoin="round" stroke-width="0" color="#000"><path d="M371.99 62.79h-7.5"/><text fill="#000" font-family="KaTeX_Main" font-size="8" transform="translate(378.99 65.39)"><tspan>2.40</tspan></text></g><g fill="none" stroke-linecap="round" stroke-linejoin="round" stroke-width="0" color="#000"><path d="M371.99 45.01h-7.5"/><text fill="#000" font-family="KaTeX_Main" font-size="8" transform="translate(378.99 47.61)"><tspan>2.60</tspan></text></g><path fill="none" d="M28 45.01V205M371.99 45.01H28" color="#000"/><text stroke-linecap="round" stroke-linejoin="round" stroke-width="0" color="#000" font-family="KaTeX_Main" font-size="10" text-anchor="middle" transform="rotate(-90 68.255 56.755)"><tspan font-weight="bold">AveragePathLength </tspan><tspan> / log</tspan><tspan dy="3" font-size="8">2</tspan><tspan dy="-3">(Size)</tspan></text><text stroke-linecap="round" stroke-linejoin="round" stroke-width="0" color="#000" font-family="KaTeX_Main" font-size="10" text-anchor="middle" transform="translate(199.99 238.25)"><tspan>Operations × 10</tspan><tspan dy="-5" font-size="8">5</tspan></text><text stroke-linecap="round" stroke-linejoin="round" color="#000" font-family="KaTeX_Main" font-size="8" transform="translate(99.2 10.11)"><tspan>Splay</tspan></text><g fill="none" stroke="currentColor" stroke-linecap="round" stroke-linejoin="round" color="#000"><path stroke="violet" d="M63.7 7.51h29.9M28 116.31l.36-5.91.36 5.59.37 11.96.36 10.48.36-22.45.36 9.36.36 11.77.37-6.87.36-13.53.36 18.68.36-5.95.37-5.6.36 3.94.36-6.33.36 11.69.36-1.51.37 3.53.36-7.79.36 5.9.36 2.17.36-1.34.37-2.31.36 1.22.36-4.42.36 3.88.36 4.4.37-9.97.36 7.48.36-10.35.36 4.47.36-5.53.37 7.33.36 4.38.36-9.64.36-3.31.37-13.29.36 26.52.36-4.52.36 3.35.36-2.7.37-1.53.36-8.08.36-.79.36 4.2.36 4.93.37-2.58.36-2.69.36 5.62.36-7.48.36-2.86.37 3.7.36-19.95.36 10.38.36 11.75.37 5.17.36-34.88.36 33.12.36-27.21.36 21.71.37-4.77.36 2.14.36-25.2.36-6.86.36 38.45.37-6.37.36 13.08.36-1.2.36.32.36 3.98.37-15.96.36-8.74.36 12.2.36.9.37-5 .36-21.37.36 26.38.36.19.36 4.91.37-9.56.36 3.15.36 12.89.36-5.1.36-7.49.37 4.88.36-2.07.36-2.59.36-9.37.36 11.26.37 8.61.36-23.84.36-4.75.36 25.64.36-4.74.37 3.37.36-4.06.36 13.66.36-9.68.37-10.95.36 5.38.36-9.63.36 10.93.36 2.64.37 1.1.36-3.81.36 5.92.36-.64.36 4.84.37-1.03.36-16.64.36 7.99.36-8.27.36 16.47.37-3.82.36-14.29.36 13.72L70 127l.37 5.17.36 2.72.36-7.29.36 7.85.36-13.62.37 12.12.36-1.8.36-1.68.36-.24.36.1.37-2.32.36 4.59.36-2.17.36 2.77.36-.72.37-4.99.36 3.38.36 1.52.36-1.16.36.29.37-4.74.36 3.63.36-4.17.36-8.85.37-1.19.36 15.88.36-3.89.36-5.42.36 1.52.37 10.01.36.34.36-1.81.36-7.35.36 7.06.37-34.69.36 16.19.36-14.38.36 29.12.36-14.7.37 2.16.36-2.81.36 13.84.36 1.68.37-17.87.36 10.81.36 1.65.36-5.07.36 1.28.37 7.54.36 12.53.36-23.33.36 9.73.36-20.31.37-1.35.36 19.84.36 1.58.36 6.13.36-9.55.37-8.92.36 18.03.36-22.18.36-1.64.36 9.8.37 11.8.36-.66.36.2.36 2.21.37-22.59.36-13.46.36 22.09.36 10.31.36-4.9.37 1.62.36 6.79.36-3.39.36-12.39.36 20.27.37-13.07.36-22.44.36 29.95.36 2.74.36-1.2.37-47.37.36 40.73.36 10.87.36-14.21.37 9.61.36-10.54.36 14.5.36 3.05.36-3.43.37-4.38.36 4.45.36-13.97.36 14.71.36.78.37-6.78.36 2.8.36-3.41.36-1.8.36 10.01.37-11.68.36 13.78.36-4.89.36-11.78.37 13.42.36-3.73.36-5.24.36.08.36 4.61.37 1.15.36.63.36-4.78.36-.25.36-15.83.37 15.38.36 3.24.36-3.77.36-.47.36-5.54.37 13.95.36-12.95.36 9.98.36-6.34.36 9.41.37-3.42.36-1.14.36 2 .36-4.88.37-2.7.36-1.6.36 1.47.36 7.1.36-15.1.37 8.85.36-1.4.36 1.51.36-13.47.36-37.43.37 42.04.36-2.65.36 7.48.36-24.95.36 19.66.37 1.96.36 6.31.36-6.84.36-2.74.37.5.36-9.49.36 27.35.36-13.44.36 5.15.37-27.47.36 26.29.36 1.35.36 2.74.36-25.24.37 9.86.36-10.77.36 22.1.36-16.43.36.81.37 27.06.36.81.36-35.69.36 22.29.36 5.93.37-21.51.36 23.79.36-46.69.36 45.58.37-33.05.36 24.62.36 5.56.36.91.36-15.65.37 11.87.36-3.22.36 6.2.36 4.95.36-10.29.37 14.93.36-30.89.36 11.53.36 15.54.36 9.83.37-4.77.36-4.24.36-11.36.36 10.13.37-14.31.36 18.91.36-1.28.36-7.56.36.91.37 1.39.36 4.66.36-4.28.36-11.65.36 13.83.37-4.99.36-.87.36 6.99.36-1.14.36.81.37-2.2.36-5.94.36-1.86.36 5.39.36 4.28.37 2.1.36-4.23.36-8.26.36 3.04.37 8.01.36-6.89.36-6.38.36 4.12.36 1.81.37-12.46.36 13.56.36 3.29.36-5.15.36 2.27.37-1.38.36 6.89.36-13.97.36 14.95.36-20.3.37 8.46.36 11.62.36-11.37.36 8.91.37-40.59.36-2.74.36 15.83.36-1.6.36 23.29.37-42.87.36 44.35.36-31.99.36 23.08.36 5.89.37 2.79.36-18.25.36-6.86.36 25.11.36 3.98.37-2.41.36-7.5.36 4.98.36-3.38.37 2.76.36-4.93.36-4.81.36 14.34.36-34.97.37 27.07.36-28.64.36 32.93.36-12.47.36 18.27.37-4.15.36-.54.36-9.06.36 9.3.36-15.84.37 14.18.36-4.01.36-6.33.36 11.46.36 11.03.37-7.73.36-21.87.36 19.69.36-.68.37-3.28.36-14.2.36 14.04.36 12.72.36-15.94.37 4.03.36-33.09.36 40.74.36-2.29.36 7.76.37-9.47.36-.77.36 6.12.36-23.62.36 20.6.37-2.93.36 3.81.36 1.45.36 7.78.37-19.7.36-2.54.36 3.84.36 9.7.36 2.45.37-1.11.36-2.04.36-2.46.36-5.95.36 10.49.37-15.08.36 7.26.36 8.34.36-6.1.36 10.1.37-20.24.36 13.3.36-5.47.36-8.95.36 14.63.37-5.89.36 4.13.36-.66.36-8 .37 10.27.36-8.41.36 5.74.36 1.84.36-8.72.37-7.22.36 19.96.36-5.99.36 3.77.36 1.92.37-16.24.36 14.14.36-10.41.36 7.86.36-12.51.37-5.08.36-22.43.36 28.57.36-47.6.37 58.09.36-16.19.36 14.51.36-5.17.36-37.31.37 7.21.36 30.42.36-23.26.36 15.67.36 12.99.37-13.97.36 19.55.36-26.06.36-44.73.36 18.43.37 40.27.36-34.57.36 25.97.36 13.18.37-14.47.36-.27.36 27.39.36-15.72.36 13.33.37-15.92.36-17.5.36-14.91.36 35.34.36-.18.37-1.59.36 6.5.36-2.66.36-14.91.36-3.27.37 18.47.36-13.42.36 12.88.36-55.67.36 49.75.37-13.66.36 29.99.36-6.32.36-13.73.37 6.94.36 19.87.36-7.34.36 3.09.36-2.59.37-4.51.36-10.01.36 13.21.36-.85.36-6.31.37-13.9.36 25.97.36-3.68.36 1.6.36-8.8.37-2.22.36-.25.36-1.05.36 7.08.37 1.73.36-5.71.36-.83.36 9.3.36.51.37-2.86.36-14.41.36 17.76.36-10.18.36.67.37-4.13.36 5.94.36-3.66.36-4.53.36 4.29.37 6.93.36-3.1.36-7.59.36 9.47.36-9.02.37 4.82.36 4.53.36-.32.36-3.12.37-4.93.36 9.91.36-.6.36-4.01.36 2.65.37-4.42.36 4.39.36-7.19.36 5.71.36-11.91.37 4.59.36-30.03.36 17.43.36 10.95.36 2.78.37 7 .36-6.28.36-3.15.36 2.63.37-22.19.36 5.72.36 14.14.36-3.27.36 4.7.37-44.04.36 48.38.36-12.89.36 3.87.36 3.32.37 8.55.36-3.61.36-1.31.36-54.15.36 57.36.37-31.17.36 25 .36 11.68.36-1.02.36-18.71.37 17.96.36-6.18.36-10.55.36 7.6.37-17.01.36 19.66.36-27.31.36 36.22.36-19.36.37 11.24.36 16.67.36-10.01.36-3.96.36 5.96.37-32.17.36-13.1.36 26.1.36 2.81.36 22.48.37-4.85.36.58.36-2.78.36 2.56.37 1.2.36-1.78.36-12.07.36 15.38.36-4.66.37-6.95.36 2.63.36-8.83.36 16.62.36-10.92.37 1.66.36.09.36-1.01.36 2.34.36 4.52.37-1.71.36-50.6.36 39.73.36-.22.37 9.74.36-2.05.36 2.14.36-13.26.36 9.28.37 3.85.36.93.36-24.69.36 22.13.36-11.45.37 7.56.36 1.89.36 4.54.36-4.92.36-2.06.37 11.43.36-11.51.36 3.11.36 7.62.36-5.92.37 2.1.36-.74.36-7.94.36 5.16.37-9.08.36 8.4.36 3.34.36-12.91.36.84.37 1.22.36 3.2.36 2.85.36-10.13.36-2.4.37-.33.36 6.2.36-1.58.36-8.07.36-10.64.37-20.95.36 55.41.36-6.15.36-18.95.37-5.02.36-4.68.36 19.71.36 7.94.36 3.43.37-25.97.36 6.54.36-21.87.36 26.65.36 4.87.37-21.41.36 22.51.36 5.93.36-14.27.36 15.88.37 5.83.36-32.59.36 24.21.36 13.54.36-24.56.37 2.89.36 8.01.36-7.86.36 1.86.37-1.68.36-3.1.36-56.33.36 77.12.36-5.78.37 4.98.36 5 .36-48.54.36 2.49.36 23.32.37 13.3.36 7.99.36-3.44.36.43.36-5.3.37-2.16.36 2.17.36-.22.36-8.86.37.78.36-2.3.36 12.27.36-23.82.36 15.18.37 1.22.36 5.2.36 7.23.36-8.16.36-6.84.37 9.99.36.55.36-14.46.36 6.4.36-1.33.37 2.95.36 7.17.36-29.57.36 5.9.36 12.83.37 7.83.36-1.09.36-12.85.36 3.72.37 2.32.36 11.56.36-10.21.36 2.29.36 8.03.37-10.81.36-.61.36 1.29.36 8.77.36-7.55.37 2.85.36-3.47.36-2.57.36 4.45.36-4.85.37 12.9.36-9.7.36-8.52.36 8.17.37-14.87.36 14.15.36-19.36.36-5.14.36-24.71.37 47.51.36-1.65.36-2.86.36 1.91.36 11.33.37-8.54.36-14.8.36-6.5.36 30.04.36 1.17.37-31.41.36 17.89.36 15.17.36-5.37.37-4.81.36-10.47.36-8.64.36 33.22.36-26.24.37 9.89.36-13.78.36 15.39.36 12.3.36-.69.37-28.17.36 27.5.36-19.06.36 20.62.36-6.2.37.25.36-.03.36 2.39.36-8.28.36-.91.37 10.71.36-7.65.36-3.21.36-6.84.37-1.49.36-17.05.36 9.06.36 25.89.36-8.23.37 8.73.36 5.46.36-5.34.36-15.02.36 17.86.37-19.74.36 10.15.36 2.24.36-1.88.36 2.85.37-1.33.36-1.39.36-.7.36.16.37-2.63.36-.86.36 9.5.36 1.29.36-2.73.37-4.34.36-1.37.36-12.18.36 16.72.36-4.28.37 8.64.36-17.91.36 2.18.36 13.18.36-6.03.37 2.9.36-.64.36 2.63.36-3.83.36-.63.37 8.47.36-21.58.36 18.91.36.78.37-.96.36-2.78.36-.07.36-.64.36-8.36.37 16.63.36-10.33.36 8.57.36-2.35.36-4.83.37 1.39.36 7.42.36-7.44.36-10.91.36-4.15.37-5.02.36-11.96.36 28.07.36-11.76.37 12.99.36-23.96.36 19.77.36-13.12.36 10.84.37 7.78.36-18.51.36 5.51.36 3.66.36 6.43.37 4.66.36-35.25.36 42.7.36-8.87.36 2.64.37-6.44.36 11.63.36-11.82.36 9.67.36-22.39.37 9.01.36 15.08.36-1.02.36-19.67.37 6.98.36 11.11.36-8.62.36 2.4.36-1.63.37-2.37.36-8.44.36 15.74.36-41.46.36 38.19.37-15.32.36 12.04.36 2.22.36 8.79.36 1.69.37-8.98.36-25.02.36 24.49.36 6.86.37-5.35.36 10.35.36-2.26.36-10.44.36 5.04.37-10.02.36 8.1.36 2.54.36.05.36-3.18.37 10.67.36-10.8.36 4.39.36-33.02.36 27.51.37 2.61.36-7.57.36 7.72.36-20.54.37 24.12.36-29.06.36 28.16.36-3.49.36 1.56.37-1.7.36-1.08.36-19.15.36 16.55.36 8.09.37-6.7.36 3.39.36-3.22.36 3.19.36-1.24.37.87.36 5.12.36-19.47.36 8.4.36.54.37 1.84.36 6.93.36-5.82.36.16.37 5.54.36-3.43.36-16.72.36 17.82.36-19.07.37 9.86.36 4.3.36.7"/><use xlink:href="#c" color="violet" transform="matrix(3.75 0 0 3.75 354.25 139.45)"/><use xlink:href="#c" color="violet" transform="matrix(3.75 0 0 3.75 78.65 7.51)"/></g><text stroke-linecap="round" stroke-linejoin="round" color="#000" font-family="KaTeX_Main" font-size="8" transform="translate(99.2 25.11)"><tspan>LBSTRelaxed</tspan></text><g fill="none" stroke="currentColor" stroke-linecap="round" stroke-linejoin="round" color="#000"><path stroke="violet" stroke-dasharray="4.5,2.0,0.5,2.0,0.5,2.0" d="M63.7 22.51h29.9M28 192.71l.36-.08.36-.07.37-.07.36-.06.36-.06.36-.06.36-.06.37-.07.36-.06.36-.06.36-.06.37-.06.36-.04.36-.05.36-.07.36-.04.37-.06.36-.06.36-.06.36-.05.36-.06.37-.05.36-.04.36-.06.36-.04.36-.05.37-.04.36-.04.36-.04.36-.03.36-.05.37-.04.36-.05.36-.04.36-.04.37-.03.36-.04.36-.04.36-.04.36-.04.37-.04.36-.03.36-.05.36-.03.36-.04.37-.03.36-.04.36-.03.36-.04.36-.04.37.04.36.04.36.03.36.03.37.03.36.03.36.04.36.04.36.03.37.04.36.04.36.03.36.03.36.03.37.04.36.04.36.03.36.06.36.05.37.05.36.04.36.03.36.04.37.04.36.04.36.03.36.04.36.04.37.05.36.04.36.04.36.04.36.05.37.03.36.04.36.05.36.02.36.04.37.03.36.04.36.04.36.07.36.04.37.04.36.06.36.04.36.07.37.06.36.04.36.04.36-.09.36-.08.37-.07.36-.06.36-.06.36-.07.36-.05.37-.07.36-.07.36-.07.36-.06.36-.06.37-.06.36-.05.36-.06.36-.06.37-.05.36-.06.36-.05.36-.05.36-.05.37-.04.36-.06.36-.04.36-.05.36-.05.37-.05.36-.04.36-.04.36-.04.36-.05.37-.03.36-.05.36-.04.36-.05.36-.04.37-.03.36-.04.36-.04.36-.05.37-.03.36-.04.36-.03.36-.04.36-.03.37-.03.36-.03.36-.03.36-.03.36-.04.37.04.36.04.36.04.36.03.36.03.37.04.36.03.36.04.36.03.37.03.36.03.36.04.36.03.36.04.37.04.36.04.36.04.36.04.36.05.37.03.36.04.36.04.36.03.36.03.37.03.36.03.36.04.36.03.36.04.37.03.36.05.36.04.36.05.37.04.36.03.36.06.36.04.36.05.37.04.36.05.36.05.36.06.36.04.37.04.36.05.36.05.36.04.36.05.37.04.36.04.36-.07.36-.08.37-.07.36-.06.36-.05.36-.07.36-.06.37-.06.36-.06.36-.06.36-.05.36-.06.37-.06.36-.05.36-.06.36-.05.36-.04.37-.05.36-.06.36-.05.36-.05.37-.05.36-.04.36-.05.36-.05.36-.04.37-.03.36-.06.36-.04.36-.05.36-.04.37-.05.36-.04.36-.04.36-.04.36-.04.37-.03.36-.03.36-.03.36-.05.36-.03.37-.04.36-.04.36-.03.36-.04.37-.04.36-.03.36-.04.36-.03.36-.03.37.04.36.05.36.04.36.03.36.04.37.03.36.03.36.04.36.04.36.03.37.04.36.06.36.04.36.03.37.04.36.04.36.04.36.03.36.04.37.04.36.05.36.04.36.04.36.05.37.03.36.05.36.04.36.04.36.06.37.04.36.04.36.04.36.04.36.07.37.04.36.05.36.06.36.04.37.04.36.04.36.03.36.06.36.05.37.04.36.06.36.05.36.05.36.05.37.06.36.05.36-.07.36-.06.36-.07.37-.06.36-.07.36-.07.36-.05.37-.07.36-.04.36-.07.36-.05.36-.06.37-.06.36-.05.36-.06.36-.05.36-.04.37-.06.36-.05.36-.05.36-.04.36-.06.37-.04.36-.05.36-.04.36-.04.36-.04.37-.04.36-.04.36-.04.36-.05.37-.04.36-.05.36-.03.36-.04.36-.04.37-.03.36-.03.36-.03.36-.04.36-.03.37-.05.36-.03.36-.03.36-.03.36-.05.37-.03.36-.03.36-.03.36-.04.37.04.36.04.36.03.36.04.36.04.37.03.36.04.36.03.36.04.36.04.37.04.36.03.36.04.36.03.36.05.37.05.36.03.36.04.36.04.37.05.36.05.36.03.36.05.36.04.37.05.36.04.36.04.36.03.36.04.37.05.36.03.36.04.36.04.36.05.37.04.36.04.36.05.36.03.36.04.37.05.36.04.36.04.36.04.37.08.36.07.36.04.36.04.36.06.37.06.36.07.36-.08.36-.07.36-.07.37-.06.36-.06.36-.07.36-.06.36-.06.37-.05.36-.06.36-.07.36-.05.37-.04.36-.05.36-.05.36-.05.36-.05.37-.05.36-.07.36-.05.36-.04.36-.04.37-.04.36-.06.36-.05.36-.03.36-.05.37-.03.36-.04.36-.03.36-.05.36-.04.37-.04.36-.04.36-.04.36-.04.37-.04.36-.04.36-.05.36-.03.36-.04.37-.03.36-.03.36-.04.36-.04.36-.03.37-.03.36-.04.36-.04.36-.03.36.05.37.03.36.04.36.04.36.04.37.03.36.03.36.04.36.03.36.04.37.02.36.04.36.05.36.03.36.04.37.05.36.04.36.03.36.04.36.04.37.03.36.03.36.04.36.04.37.04.36.05.36.04.36.05.36.04.37.05.36.04.36.04.36.05.36.06.37.04.36.05.36.04.36.05.36.04.37.03.36.06.36.05.36.05.36.06.37.04.36.03.36.03.36.08.37.06.36.06.36-.06.36-.06.36-.08.37-.07.36-.07.36-.06.36-.06.36-.06.37-.06.36-.05.36-.05.36-.06.36-.05.37-.06.36-.06.36-.05.36-.04.37-.05.36-.05.36-.05.36-.05.36-.05.37-.05.36-.04.36-.04.36-.05.36-.03.37-.05.36-.04.36-.04.36-.04.36-.04.37-.04.36-.04.36-.04.36-.04.36-.04.37-.03.36-.03.36-.04.36-.04.37-.02.36-.04.36-.03.36-.04.36-.04.37-.04.36-.02.36-.03.36-.03.36.03.37.04.36.03.36.04.36.04.36.04.37.03.36.03.36.04.36.04.37.04.36.04.36.03.36.04.36.03.37.05.36.04.36.04.36.04.36.04.37.04.36.04.36.04.36.04.36.04.37.04.36.03.36.05.36.03.36.04.37.04.36.04.36.06.36.05.37.04.36.03.36.05.36.04.36.06.37.04.36.04.36.06.36.05.36.06.37.03.36.05.36.03.36.07.36.05.37.07.36-.09.36-.07.36-.07.37-.06.36-.07.36-.06.36-.07.36-.07.37-.05.36-.07.36-.07.36-.06.36-.04.37-.06.36-.05.36-.06.36-.04.36-.06.37-.04.36-.06.36-.05.36-.04.37-.04.36-.05.36-.05.36-.04.36-.04.37-.04.36-.04.36-.04.36-.04.36-.05.37-.03.36-.04.36-.03.36-.04.36-.03.37-.04.36-.03.36-.04.36-.03.36-.02.37-.04.36-.04.36-.03.36-.04.37-.03.36-.03.36-.04.36-.03.36.03.37.04.36.05.36.04.36.04.36.04.37.03.36.05.36.04.36.05.36.04.37.03.36.04.36.04.36.04.37.05.36.04.36.05.36.04.36.04.37.04.36.04.36.04.36.04.36.03.37.05.36.04.36.04.36.05.36.04.37.03.36.05.36.06.36.06.36.04.37.05.36.05.36.05.36.05.37.08.36.05.36.05.36.04.36.05.37.06.36.05.36.04.36.04.36.06.37.04.36-.06.36-.09.36-.07.36-.05.37-.07.36-.06.36-.06.36-.06.37-.06.36-.05.36-.04.36-.05.36-.07.37-.06.36-.05.36-.05.36-.05.36-.05.37-.04.36-.05.36-.04.36-.04.36-.04.37-.05.36-.04.36-.04.36-.03.36-.04.37-.04.36-.04.36-.05.36-.04.37-.04.36-.04.36-.04.36-.04.36-.03.37-.03.36-.04.36-.04.36-.02.36-.04.37-.03.36-.05.36-.02.36-.04.36-.03.37-.04.36-.04.36-.03.36.03.37.04.36.03.36.04.36.04.36.04.37.05.36.03.36.04.36.03.36.06.37.05.36.03.36.04.36.04.36.04.37.03.36.05.36.03.36.04.37.04.36.05.36.04.36.05.36.05.37.04.36.05.36.05.36.05.36.06.37.05.36.02.36.07.36.07.36.05.37.05.36.04.36.05.36.05.36.05.37.05.36.04.36.06.36.05.37.04.36.06.36.06.36.07.36.04.37.06.36-.08.36-.06.36-.07.36-.07.37-.06.36-.07.36-.06.36-.06.36-.06.37-.06.36-.05.36-.05.36-.05.37-.05.36-.05.36-.05.36-.05.36-.05.37-.05.36-.05.36-.06.36-.04.36-.05.37-.03.36-.05.36-.05.36-.05.36-.05.37-.04.36-.02.36-.05.36-.03.36-.04.37-.03.36-.05.36-.03.36-.04.37-.03.36-.04.36-.04.36-.03.36-.03.37-.05.36-.03.36-.04.36-.03.36-.03.37-.04.36-.03.36-.04.36.04.36.05.37.02.36.04.36.04.36.04.37.04.36.04.36.04.36.03.36.05.37.04.36.03.36.04.36.03.36.04.37.05.36.04.36.04.36.05.36.03.37.04.36.04.36.05.36.04.36.05.37.04.36.04.36.04.36.05.37.05.36.03.36.03.36.04.36.05.37.05.36.04.36.05.36.07.36.03.37.06.36.05.36.05.36.06.36.06.37.05.36.04.36.05.36.06.37.06.36-.07.36-.07.36-.06.36-.06.37-.06.36-.06.36-.07.36-.06.36-.06.37-.05.36-.05.36-.05.36-.06.36-.05.37-.05.36-.04.36-.05.36-.05.37-.06.36-.04.36-.04.36-.04.36-.05.37-.05.36-.05.36-.04.36-.03.36-.04.37-.05.36-.03.36-.04.36-.04.36-.04.37-.03.36-.04.36-.04.36-.04.36-.04.37-.04.36-.04.36-.03.36-.03.37-.03.36-.03.36-.03.36-.03.36-.03.37-.02.36-.04.36-.03"/><use xlink:href="#e" color="violet" transform="matrix(3.75 0 0 3.75 67.83 191.61)"/><use xlink:href="#e" color="violet" transform="matrix(3.75 0 0 3.75 78.65 22.51)"/></g><text stroke-linecap="round" stroke-linejoin="round" color="#000" font-family="KaTeX_Main" font-size="8" transform="translate(241.1 10.11)"><tspan>AVLRelaxedBottomUp</tspan></text><g fill="none" stroke="currentColor" stroke-linecap="round" stroke-linejoin="round" color="#000"><path stroke="#D336C8" d="M205.6 7.51h29.9M28 196.79l.36-.02.36-.02.37-.02.36-.02.36-.03h.36l.36-.03h.37l.36-.02.36-.02.36-.02.37-.02.36-.01.36-.02.36-.01.36-.02.37-.01.36-.02.36-.01.36-.02h.36l.37-.01.36-.02.36-.01.36-.01.36-.01.37-.02.36-.01.36-.01.36.06.36-.01.37-.01.36-.01.36-.14.36-.01.37-.01.36-.01.36-.01.36-.01.36-.01.37-.01.36-.01.36-.01.36-.01h.36l.37-.01.36-.01.36-.01.36-.01h.36l.37-.01h.36l.36-.01h1.09l.36-.01h1.45l.36-.01h.72l.37-.01h2.53l.36.01h1.09l.36.01h.36l.37.01.36-.01.36.01.36.01h.73l.36.01h.36l.36.01h.73l.36.01.36.01.36.01h.36l.37.01.36.01h.36l.36.01.37.01.36.01h.36l.36-.06.36-.06.37-.05.36-.05.36-.03.36-.04.36-.04.37-.04.36-.03.36-.03.36-.03.36-.01.37-.03.36-.02.36-.03.36-.01.37-.01.36-.02.36-.02.36-.01.36-.02.37-.01h.36l.36-.01.36-.01.36-.01.37-.01.36-.01h.36l.36-.01.36-.01h.37l.36-.01h.72l.36-.01.37-.01h.72l.36-.01h.73l.36-.01.36.01.36-.01h.73l.36-.01h.72l.37.01.36-.01.36.01h2.54l.36.01h.72l.36.01h.37l.36.01.36.01h.36l.36.01h.73l.36.01h.36l.36.01.37.01h.36l.36.01.36.01.36.01.37.01.36.01h.36l.36.01.37.01.36.01.36.01.36.01.36.01.37.02.36.01.36.02.36.01.36.02.37.01.36.02h.36l.36.02.36.01.37.01.36.02.36-.06.36-.05.37-.05.36-.05.36-.04.36-.04.36-.05.37-.04.36-.03.36-.03.36-.03.36-.03.37-.03.36-.01.36-.02.36-.02.36-.02.37-.02.36-.01.36-.01.36-.01.37-.01.36-.01.36-.01h.36l.36-.01.37-.02.36-.01.36-.01h.36l.36-.01h.73l.36-.01.36-.01h.36l.37-.01h.36l.36.01h3.26l.36.01h1.09l.36.01h1.45l.36.01h.72l.37.01.36.01h.36l.36.01h.37l.36.01.36.01h.36l.36.01h.37l.36.01.36.01.36.01h.36l.37.01h.36l.36.01.36.01.36.01.37.01.36.01.36.01.36.01.36.01.37.01.36.02.36.01.36.02.37.01.36.01.36.02.36.01.36.02.37.02.36.01.36.01.36.02.36.02.37.03.36.01.36-.05.36-.06.36-.05.37-.05.36-.04.36-.05.36-.03.37-.04.36-.02.36-.04.36-.02.36-.02.37-.03.36-.02.36-.02.36-.02.36-.02.37-.02.36-.01.36-.01.36-.01.36-.01.37-.02.36-.01.36-.01.36-.01.36-.01.37.01h1.08l.37-.01.36-.01h1.08l.37.01h.36l.36.01.36-.01.36.01.37-.01h1.08l.36-.01.37.01h.36l.36.01h.36l.37.01h.72l.36.01.36-.01.37.01.36.01h1.08l.37.01.36.01.36.01h.36l.36.01.37.01.36.01h.36l.36.01.37.01.36.01.36.01h.36l.36.01.37.01.36.01.36.01.36.01.36.01.37.01.36.01.36.01.36.01.36.01.37.02.36.01.36.02.36.01.36.02.37.02.36.02.36.01.36.02.37.03.36.02.36.02.36.03.36.02.37.02.36.02.36-.06.36-.06.36-.04.37-.05.36-.04.36-.04.36-.04.36-.04.37-.02.36-.04.36-.03.36-.02.37-.03.36-.02.36-.01.36-.02.36-.02.37-.02.36-.02.36-.01h.36l.36-.01.37-.01.36-.01h.36l.36-.01.36-.01h.37l.36-.01.36-.01.36-.01h.36l.37-.01h.36l.36-.01h1.09l.36-.01h.72l.37-.01.36.01.36-.01h.72l.37.01h1.81l.36.01h.36l.36.01h.73l.36.01h.36l.36.01h.73l.36.01.36.01.36.01h.37l.36.01.36.01.36.01h.36l.37.01h.36l.36.01h.36l.37.02.36.01h.36l.36.02.36.02h.37l.36.02.36.01.36.01.36.02.37.02.36.02.36.01.36.01.36.02.37.01.36.01.36.02.36.02.36.02.37.01.36.01.36.01.36.03.37.03.36.02.36-.04.36-.06.36-.05.37-.05.36-.04.36-.05.36-.03.36-.04.37-.03.36-.04.36-.02.36-.03.36-.02.37-.03.36-.02.36-.01.36-.02.37-.02.36-.01.36-.02.36-.01.36-.01.37-.02.36-.01.36-.02.36-.01h1.81l.36-.01.37-.01h1.08l.36-.01h.37l.36.01h.36l.36-.01.37.01.36-.01.36.01.36.01h1.09l.36.01.36.01h.73l.36.01.36.01h.36l.36.01h.73l.36.01h.36l.37.01.36.01h.36l.36.01h.36l.37.01h.72l.36.01.36.01h.37l.36.01.36.01.36.01.36.01.37.01h.36l.36.02.36.01.36.01.37.01.36.01.36.02.36.01.37.01.36.01.36.02.36.01.36.02.37.01.36.01.36.01.36.02.36.02.37.01.36.02.36.02.36.02.36.02.37.02.36-.06.36-.05.36-.05.37-.04.36-.04.36-.04.36-.03.36-.04.37-.03.36-.03.36-.03.36-.02.36-.03.37-.01.36-.02.36-.03.36-.01.36-.02.37-.02.36-.01.36-.01.36-.01.37-.01.36-.01.36-.01h.36l.36-.01h.37l.36-.01h.72l.36-.02.37.01h.36l.36-.01.36.01.36-.01.37.01h1.44l.37.02h.36l.36.01h.36l.37-.01h.36l.36.01h.36l.36.01h.73l.36.01h.36l.36.01.37.01h.36l.36.01.36.01h.36l.37.01.36.01h.72l.37.01.36.01.36.01.36.01.36.01.37.01h.36l.36.01.36.02.36.01h.37l.36.01.36.01.36.01.36.01h.37l.36.02.36.01.36.02.36.02.37.01.36.01.36.02.36.01.37.02.36.02.36.02.36.02.36.02.37.02.36.02.36.02.36.02.36.02.37.02.36-.06.36-.05.36-.05.36-.04.37-.04.36-.04.36-.04.36-.03.37-.03.36-.03.36-.03.36-.02.36-.03.37-.02.36-.02.36-.02.36-.03.36-.01.37-.01.36-.01.36-.01.36-.01.36-.02.37-.01.36-.01.36-.01.36-.01h.36l.37-.01h1.08l.37-.01h.36l.36-.01.36.01.36-.01h1.09l.36-.01h.73l.36.01h.72l.36.01h.37l.36.01h.36l.36.01h.37l.36.01h1.08l.37.01h.36l.36.01h.36l.36.01h.37l.36.01.36.01.36.01.36.01h.37l.36.01h.36l.36.01.37.01.36.01.36.02.36.01.36.02.37.01.36.01.36.01.36.02.36.01.37.02h.36l.36.01.36.01.36.01.37.01.36.02.36.03.36.01.36.01.37.03.36.02.36.02.36.02.37.02.36.02.36.02.36.02.36.01.37.02.36-.06.36-.05.36-.05.36-.05.37-.05.36-.03.36-.04.36-.04.36-.03.37-.03.36-.03.36-.03.36-.02.37-.02.36-.02.36-.02.36-.01.36-.02.37-.02.36-.01.36-.01.36-.01.36-.01.37-.01.36-.01h.36l.36-.01h1.09l.36-.01h1.09l.36.01h1.81l.36.01h2.54l.36.01h.36l.36.01h1.09l.36.01.36.01h.37l.36.01h.36l.36.01.36.01h1.09l.36.01.36.01.37.01.36.01.36.02.36.01h.36l.37.02h.36l.36.02.36.01.36.02.37.01.36.01.36.01.36.01.37.01.36.01.36.01.36.01.36.01.37.02.36.02.36.02.36.02.36.01.37.01.36.02.36.02.36.03.36.01.37.03.36.02.36.02.36.02.37.03.36-.05.36-.05.36-.05.36-.04.37-.05.36-.03.36-.04.36-.03.36-.03.37-.03.36-.02.36-.02.36-.03.36-.02.37-.03.36-.02.36-.01.36-.02.37-.02.36-.01.36-.01.36-.01.36-.01.37-.01.36-.01.36-.01.36-.01.36-.01.37.01.36-.01h.36l.36-.01h.73l.36-.01.36.01h.72l.37-.01h.36l.36.01h.36l.37.01h.36l.36.01h.36l.36-.01.37.01h.72"/><use xlink:href="#f" color="#D336C8" transform="matrix(3.75 0 0 3.75 125.4 195.11)"/><use xlink:href="#f" color="#D336C8" transform="matrix(3.75 0 0 3.75 220.55 7.51)"/></g><text stroke-linecap="round" stroke-linejoin="round" color="#000" font-family="KaTeX_Main" font-size="8" transform="translate(241.1 25.11)"><tspan>AVLWeakBottomUp</tspan></text><g fill="none" stroke="currentColor" stroke-linecap="round" stroke-linejoin="round" color="#000"><path stroke="#3B75EA" d="M205.6 22.51h29.9M28 196.79l.36-.02.36-.02.37-.02.36-.02.36-.03h.36l.36-.03h.37l.36-.02.36-.02.36-.02.37-.02.36-.01.36-.02.36-.01.36-.02.37-.01.36-.02.36-.01.36-.02h.36l.37-.01.36-.02.36-.01.36-.01.36-.01.37-.02.36-.01.36-.01.36.06.36-.01.37-.01.36-.01.36-.14.36-.01.37-.01.36-.01.36-.01.36-.01.36-.01.37-.01.36-.01.36-.01.36-.01h.36l.37-.01.36-.01.36-.01.36-.01h.73l.36.01h.36l.36.01.37.01.36.01h.36l.36.01.36.01.37.01.36.01.36.01.36.01h.36l.37.01.36.01.36.01.36.01.36.01.37.01.36.01.36.01.36.02.37.01.36.01.36.01.36.02.36.01.37.02.36.01.36.01.36.02.36.01.37.02.36.02.36.01.36.02.36.02.37.01.36.01.36.02.36.02.36.03.37.02.36.01.36.02.36.02.37.03.36.01.36.03.36-.04.36-.04.37-.04.36-.03.36-.03.36-.02.36-.03.37-.03.36-.02.36-.02.36-.03.36-.02.37-.02.36-.02.36-.02.36-.01.37-.02.36-.01.36-.02.36-.02.36-.01.37-.02.36-.01.36-.01.36-.01.36-.01.37-.02.36-.01.36-.01.36-.01.36-.01.37-.01.36-.01.36-.01.36-.01.36-.01.37-.01.36-.01.36-.01.36-.01.37-.01.36-.01.36-.01h.36l.36-.01.37-.01.36-.01h.72l.36-.02.37.02h.36l.36.01.36.01.36.01.37.01.36.01.36.01.36.01h.37l.36.01.36.01.36.01.36.01.37.01.36.02.36.01.36.01.36.01.37.01.36.02.36.01.36.01.36.01.37.02.36.01.36.02.36.01.36.02.37.01.36.01.36.02.36.02.37.01.36.02.36.02.36.02.36.02.37.01.36.02.36.02.36.03.36.02.37.03.36.02.36.02.36.03.36.03.37.02.36.03.36-.04.36-.03.37-.04.36-.03.36-.03.36-.02.36-.03.37-.04.36-.02.36-.03.36-.02.36-.02.37-.02.36-.02.36-.02.36-.02.36-.02.37-.01.36-.01.36-.02.36-.02.37-.01.36-.01.36-.02.36-.01.36-.01.37-.02.36-.01.36-.01.36-.01.36-.01.37-.01.36-.01.36-.01.36-.02.36-.01.37-.01h.36l.36-.01.36-.01.36-.01h.37l.36-.01.36.01.36-.01.37-.01.36-.01h.36l.36-.01.36-.01.37.01.36.01.36.01h.36l.36.01.37.01.36.01.36.01h.36l.36.01.37.01.36.02.36.01.36.01.37.01.36.01.36.01.36.01.36.01.37.02.36.01.36.01.36.02.36.01.37.02.36.01.36.02.36.02.36.01.37.01.36.02.36.02.36.02.36.01.37.02.36.02.36.03.36.01.37.02.36.02.36.02.36.02.36.03.37.02.36.02.36.03.36.02.36.02.37.03.36.02.36-.04.36-.03.36-.03.37-.03.36-.03.36-.04.36-.02.37-.03.36-.02.36-.02.36-.03.36-.02.37-.02.36-.02.36-.02.36-.01.36-.02.37-.02.36-.01.36-.02.36-.02.36-.01.37-.02.36-.02.36-.01.36-.01.36-.02.37-.02h.36l.36-.01.36-.01.37-.01.36-.01.36-.01.36-.01.36-.01.37-.01h.36l.36-.01.36-.01.36-.01.37-.01h.36l.36-.01.36-.01h.36l.37-.01h1.08l.37.01h.36l.36.01.36.01.36.01.37.01.36.01.36.01h.36l.36.01.37.01.36.01.36.02.36.01.36.01.37.01.36.02.36.01.36.01.37.01.36.01.36.02h.36l.36.01.37.02.36.02.36.01h.36l.36.02.37.02.36.01.36.02.36.01.36.02.37.02.36.02.36.02.36.02.36.02.37.02.36.02.36.03.36.02.37.02.36.02.36.03.36.02.36.02.37.03.36.03.36-.04.36-.03.36-.02.37-.04.36-.03.36-.02.36-.03.36-.03.37-.02.36-.02.36-.02.36-.02.37-.02.36-.02.36-.02.36-.01.36-.02.37-.02.36-.01.36-.02.36-.01.36-.01.37-.02.36-.01.36-.02.36-.01.36-.01.37-.01.36-.01.36-.01.36-.01.36-.01h.37l.36-.01.36-.02.36-.01h.37l.36-.02h.36l.36-.01.36-.01.37-.01.36-.01h.36l.36-.01.36-.01.37-.01h.72l.36-.01.36.01h.37l.36.01h.36l.36.01.37.01.36.01.36.01h.36l.36.01.37.01.36.01.36.01.36.01.36.01.37.01.36.01.36.01.36.02.36.01.37.01.36.01.36.01.36.01.37.02.36.02.36.01.36.02.36.02.37.01.36.02.36.02.36.01.36.02.37.02.36.02.36.01.36.02.36.02.37.02.36.02.36.02.36.02.36.02.37.02.36.01.36.03.36.03.37.03.36.03.36-.04.36-.03.36-.04.37-.03.36-.03.36-.03.36-.03.36-.03.37-.03.36-.02.36-.02.36-.03.36-.02.37-.03.36-.02.36-.02.36-.01.37-.02.36-.02.36-.01.36-.02.36-.02.37-.01.36-.01.36-.01.36-.02h.36l.37-.01.36-.01.36-.01.36-.01.36-.01.37-.01.36-.01h.36l.36-.01h.36l.37-.01.36-.01.36-.01.36-.01.37-.01h.36l.36-.02h.36l.36-.01.37-.01.36-.01.36-.01h.72l.37.01.36.01.36.01h.36l.36.02h.37l.36.01.36.01.36.01.37.01.36.01.36.01.36.01.36.01h.37l.36.02.36.01.36.01.36.01.37.01.36.02.36.01.36.02.36.01.37.02.36.02.36.01.36.02.36.01.37.01.36.02.36.01.36.02.37.01.36.03.36.01.36.02.36.03.37.02.36.02.36.02.36.02.36.02.37.02.36.03.36.02.36.02.36.03.37.02.36-.03.36-.03.36-.04.37-.02.36-.03.36-.02.36-.03.36-.03.37-.03.36-.03.36-.02.36-.02.36-.02.37-.03.36-.02.36-.01.36-.02.36-.02.37-.01.36-.01.36-.01.36-.01.37-.02.36-.01.36-.01.36-.02.36-.01.37-.01.36-.01.36-.02.36-.01.36-.01.37-.01h.36l.36-.01.36-.01.36-.01h.37l.36-.01h.36l.36-.01h.36l.37-.01.36-.01h.36l.36-.01.37.14.36-.01.36-.01.36-.01.36.01.37.01h.36l.36.01.36.01.36.01.37.01.36.01.36.01.36.01.36.01.37.01.36.01h.36l.36.02.37.01.36.01.36.01.36.01.36.01.37.01.36.02.36.01.36.02.36.01.37.01.36.01.36.02.36.02.36.02.37.01.36.02.36.02.36.01.36.02.37.02.36.02.36.02.36.02.37.02.36.02.36.02.36.02.36.03.37.03.36.02.36.03.36.02.36.03.37.02.36-.03.36-.04.36-.03.36-.03.37-.03.36-.03.36-.03.36-.02.37-.03.36-.02.36-.02.36-.02.36-.03.37-.02.36-.01.36-.02.36-.02.36-.01.37-.02.36-.01.36-.02.36-.01.36-.01.37-.02.36-.01.36-.01.36-.01.36-.01.37-.01.36-.02.36-.01.36-.01.37-.01.36-.01.36-.01.36-.01.36-.01.37-.01.36-.01.36-.01.36-.01h.36l.37-.01.36-.01.36-.01.36-.01.36-.01h.37l.36-.01h.36l.36.01.37.01.36.01h.36l.36.01.36.01.37.01.36.01.36.01.36.01h.36l.37.01.36.02h.36l.36.02.36.01.37.01.36.01.36.01.36.01.37.02.36.01.36.02.36.02.36.01.37.01.36.02.36.01.36.03.36.01.37.03.36.01.36.02.36.02.36.01.37.03.36.01.36.03.36.02.36.01.37.02.36.03.36.02.36.02.37.02.36.02.36.04.36.02.36.03.37.02.36-.04.36-.03.36-.03.36-.03.37-.03.36-.03.36-.03.36-.02.36-.02.37-.03.36-.02.36-.02.36-.02.37-.02.36-.02.36-.02.36-.02.36-.02.37-.01.36-.02.36-.02.36-.01.36-.01.37-.02.36-.01.36-.01.36-.01.36-.02.37-.01.36-.01.36-.01.36-.02.36-.01.37-.01.36-.01.36-.01h.36l.37-.01.36-.01.36-.01h.36l.36-.01.37-.01.36-.01.36-.01.36-.01h.36l.37-.01.36-.01h.36l.36.01.36.01.37.01h.36l.36.01.36.01.37.01.36.01.36.01h.36l.36.01.37.02h.36l.36.01.36.02.36.01.37.02.36.01.36.01.36.01.36.02.37.01.36.01.36.01.36.02.36.02.37.02.36.01.36.01.36.03.37.01.36.02.36.02.36.02.36.01.37.02.36.02.36.02.36.01.36.02.37.02.36.02.36.03.36.02.36.01.37.03.36.02.36.03.36.02.37.02.36-.03.36-.04.36-.03.36-.03.37-.02.36-.03.36-.03.36-.02.36-.03.37-.02.36-.03.36-.01.36-.03.36-.01.37-.02.36-.02.36-.01.36-.02.37-.02.36-.02.36-.01.36-.01.36-.01.37-.02.36-.02.36-.01.36-.01h.36l.37-.01.36-.01.36-.01.36-.01.36-.01.37-.01.36-.01.36-.01h.36l.36-.01.37-.01.36-.01.36-.01.36-.01.37-.01.36-.01h.36l.36-.01h.36l.37-.01.36-.01h.36"/><use xlink:href="#c" color="#3B75EA" transform="matrix(3.75 0 0 3.75 182.98 196.13)"/><use xlink:href="#c" color="#3B75EA" transform="matrix(3.75 0 0 3.75 220.55 22.51)"/></g><path fill="none" d="M28 45.01V205M371.99 45.01H28" color="#000"/></svg>