<svg xmlns="http://www.w3.org/2000/svg" xmlns:xlink="http://www.w3.org/1999/xlink" viewBox="0 0 400 250"><path fill="none" d="M0 0h400v250H0z"/><defs><use xlink:href="#a" id="f" fill="currentColor" stroke="none"/><use xlink:href="#b" id="c" stroke="currentColor" transform="rotate(45)"/><use xlink:href="#c" id="e" fill="currentColor" stroke="none"/><path id="b" stroke="currentColor" stroke-width=".267" d="M-1-1h2v2h-2z"/><path id="a" stroke="currentColor" stroke-width=".267" d="m0-1.33-1.33 2h2.66z"/><circle id="d" cx="0" cy="0" r="1" stroke="currentColor" stroke-width=".267"/></defs><path fill="none" stroke="#333" stroke-linecap="round" stroke-linejoin="round" stroke-width=".1" d="M46.1 205V45.01" class="gridline" color="#000"/><g fill="none" stroke-linecap="round" stroke-linejoin="round" stroke-width="0" color="#000"><path d="M46.1 205v-7.5m0-152.49v7.5"/><text fill="#000" font-family="KaTeX_Main" font-size="8" text-anchor="middle" transform="translate(46.1 215.1)"><tspan> 1</tspan></text></g><path fill="none" stroke="#333" stroke-linecap="round" stroke-linejoin="round" stroke-width=".1" d="M82.31 205V45.01" class="gridline" color="#000"/><g fill="none" stroke-linecap="round" stroke-linejoin="round" stroke-width="0" color="#000"><path d="M82.31 205v-7.5m0-152.49v7.5"/><text fill="#000" font-family="KaTeX_Main" font-size="8" text-anchor="middle" transform="translate(82.31 215.1)"><tspan> 2</tspan></text></g><path fill="none" stroke="#333" stroke-linecap="round" stroke-linejoin="round" stroke-width=".1" d="M118.52 205V45.01" class="gridline" color="#000"/><g fill="none" stroke-linecap="round" stroke-linejoin="round" stroke-width="0" color="#000"><path d="M118.52 205v-7.5m0-152.49v7.5"/><text fill="#000" font-family="KaTeX_Main" font-size="8" text-anchor="middle" transform="translate(118.52 215.1)"><tspan> 3</tspan></text></g><path fill="none" stroke="#333" stroke-linecap="round" stroke-linejoin="round" stroke-width=".1" d="M154.73 205V45.01" class="gridline" color="#000"/><g fill="none" stroke-linecap="round" stroke-linejoin="round" stroke-width="0" color="#000"><path d="M154.73 205v-7.5m0-152.49v7.5"/><text fill="#000" font-family="KaTeX_Main" font-size="8" text-anchor="middle" transform="translate(154.73 215.1)"><tspan> 4</tspan></text></g><path fill="none" stroke="#333" stroke-linecap="round" stroke-linejoin="round" stroke-width=".1" d="M190.94 205V45.01" class="gridline" color="#000"/><g fill="none" stroke-linecap="round" stroke-linejoin="round" stroke-width="0" color="#000"><path d="M190.94 205v-7.5m0-152.49v7.5"/><text fill="#000" font-family="KaTeX_Main" font-size="8" text-anchor="middle" transform="translate(190.94 215.1)"><tspan> 5</tspan></text></g><path fill="none" stroke="#333" stroke-linecap="round" stroke-linejoin="round" stroke-width=".1" d="M227.15 205V45.01" class="gridline" color="#000"/><g fill="none" stroke-linecap="round" stroke-linejoin="round" stroke-width="0" color="#000"><path d="M227.15 205v-7.5m0-152.49v7.5"/><text fill="#000" font-family="KaTeX_Main" font-size="8" text-anchor="middle" transform="translate(227.15 215.1)"><tspan> 6</tspan></text></g><path fill="none" stroke="#333" stroke-linecap="round" stroke-linejoin="round" stroke-width=".1" d="M263.36 205V45.01" class="gridline" color="#000"/><g fill="none" stroke-linecap="round" stroke-linejoin="round" stroke-width="0" color="#000"><path d="M263.36 205v-7.5m0-152.49v7.5"/><text fill="#000" font-family="KaTeX_Main" font-size="8" text-anchor="middle" transform="translate(263.36 215.1)"><tspan> 7</tspan></text></g><path fill="none" stroke="#333" stroke-linecap="round" stroke-linejoin="round" stroke-width=".1" d="M299.57 205V45.01" class="gridline" color="#000"/><g fill="none" stroke-linecap="round" stroke-linejoin="round" stroke-width="0" color="#000"><path d="M299.57 205v-7.5m0-152.49v7.5"/><text fill="#000" font-family="KaTeX_Main" font-size="8" text-anchor="middle" transform="translate(299.57 215.1)"><tspan> 8</tspan></text></g><path fill="none" stroke="#333" stroke-linecap="round" stroke-linejoin="round" stroke-width=".1" d="M335.78 205V45.01" class="gridline" color="#000"/><g fill="none" stroke-linecap="round" stroke-linejoin="round" stroke-width="0" color="#000"><path d="M335.78 205v-7.5m0-152.49v7.5"/><text fill="#000" font-family="KaTeX_Main" font-size="8" text-anchor="middle" transform="translate(335.78 215.1)"><tspan> 9</tspan></text></g><path fill="none" stroke="#333" stroke-linecap="round" stroke-linejoin="round" stroke-width=".1" d="M371.99 205V45.01" class="gridline" color="#000"/><g fill="none" stroke-linecap="round" stroke-linejoin="round" stroke-width="0" color="#000"><path d="M371.99 205v-7.5m0-152.49v7.5"/><text fill="#000" font-family="KaTeX_Main" font-size="8" text-anchor="middle" transform="translate(371.99 215.1)"><tspan> 10</tspan></text></g><g fill="none" stroke-linecap="round" stroke-linejoin="round" stroke-width="0" color="#000"><path d="M371.99 205h-7.5"/><text fill="#000" font-family="KaTeX_Main" font-size="8" transform="translate(378.99 207.6)"><tspan>0.89</tspan></text></g><g fill="none" stroke-linecap="round" stroke-linejoin="round" stroke-width="0" color="#000"><path d="M371.99 189h-7.5"/><text fill="#000" font-family="KaTeX_Main" font-size="8" transform="translate(378.99 191.6)"><tspan>0.90</tspan></text></g><g fill="none" stroke-linecap="round" stroke-linejoin="round" stroke-width="0" color="#000"><path d="M371.99 173h-7.5"/><text fill="#000" font-family="KaTeX_Main" font-size="8" transform="translate(378.99 175.6)"><tspan>0.91</tspan></text></g><g fill="none" stroke-linecap="round" stroke-linejoin="round" stroke-width="0" color="#000"><path d="M371.99 157h-7.5"/><text fill="#000" font-family="KaTeX_Main" font-size="8" transform="translate(378.99 159.6)"><tspan>0.92</tspan></text></g><g fill="none" stroke-linecap="round" stroke-linejoin="round" stroke-width="0" color="#000"><path d="M371.99 141h-7.5"/><text fill="#000" font-family="KaTeX_Main" font-size="8" transform="translate(378.99 143.6)"><tspan>0.93</tspan></text></g><g fill="none" stroke-linecap="round" stroke-linejoin="round" stroke-width="0" color="#000"><path d="M371.99 125h-7.5"/><text fill="#000" font-family="KaTeX_Main" font-size="8" transform="translate(378.99 127.6)"><tspan>0.94</tspan></text></g><g fill="none" stroke-linecap="round" stroke-linejoin="round" stroke-width="0" color="#000"><path d="M371.99 109.01h-7.5"/><text fill="#000" font-family="KaTeX_Main" font-size="8" transform="translate(378.99 111.61)"><tspan>0.95</tspan></text></g><g fill="none" stroke-linecap="round" stroke-linejoin="round" stroke-width="0" color="#000"><path d="M371.99 93.01h-7.5"/><text fill="#000" font-family="KaTeX_Main" font-size="8" transform="translate(378.99 95.61)"><tspan>0.96</tspan></text></g><g fill="none" stroke-linecap="round" stroke-linejoin="round" stroke-width="0" color="#000"><path d="M371.99 77.01h-7.5"/><text fill="#000" font-family="KaTeX_Main" font-size="8" transform="translate(378.99 79.61)"><tspan>0.97</tspan></text></g><g fill="none" stroke-linecap="round" stroke-linejoin="round" stroke-width="0" color="#000"><path d="M371.99 61.01h-7.5"/><text fill="#000" font-family="KaTeX_Main" font-size="8" transform="translate(378.99 63.61)"><tspan>0.98</tspan></text></g><g fill="none" stroke-linecap="round" stroke-linejoin="round" stroke-width="0" color="#000"><path d="M371.99 45.01h-7.5"/><text fill="#000" font-family="KaTeX_Main" font-size="8" transform="translate(378.99 47.61)"><tspan>0.99</tspan></text></g><path fill="none" d="M28 45.01V205M371.99 45.01H28" color="#000"/><text stroke-linecap="round" stroke-linejoin="round" stroke-width="0" color="#000" font-family="KaTeX_Main" font-size="10" text-anchor="middle" transform="rotate(-90 68.255 56.755)"><tspan font-weight="bold">AveragePathLength </tspan><tspan> / log</tspan><tspan dy="3" font-size="8">2</tspan><tspan dy="-3">(Size)</tspan></text><text stroke-linecap="round" stroke-linejoin="round" stroke-width="0" color="#000" font-family="KaTeX_Main" font-size="10" text-anchor="middle" transform="translate(199.99 238.25)"><tspan>Operations × 10</tspan><tspan dy="-5" font-size="8">5</tspan></text><text stroke-linecap="round" stroke-linejoin="round" color="#000" font-family="KaTeX_Main" font-size="8" transform="translate(132.8 10.11)"><tspan>LBSTBottomUp</tspan></text><g fill="none" stroke="currentColor" stroke-linecap="round" stroke-linejoin="round" color="#000"><path stroke="#3B75EA" d="M97.3 7.51h29.9M28 201.65l.36-1.42.36-.67.37-1.36.36-1.57.36-.32.36 2.02.36-.94.37-.54.36-.96.36-.57.36-1.08.37-.71.36-1.33.36-.18.36.76.36-1.07.37 1.75.36-1.08.36-1.11.36-.01.36-.04.37-.79.36-.96.36-.85.36-1.07.36-1.05.37-.64.36-.25.36-1.08.36-.93.36-1.01.37-.78.36-1.17.36 3.13.36.9.37-.55.36 1.87.36 4.72.36-.58.36 2.56.37-.62.36.06.36-.65.36-.72.36-.62.37.39.36-.67.36-.51.36.35.36.53.37-.05.36-.05.36-.17.36.11.37-.35.36-.35.36-.04.36.07.36-.27.37-.37.36-.62.36-.39.36 3.4.36 1.35.37.67.36.3.36-.17.36-.32.36-.49.37.79.36.1.36-.55.36.09.37-.15.36 3.24.36-.15.36-.22.36.09.37.96.36-.52.36.31.36 1.07.36.05.37-.29.36-.37.36-.47.36 2.27.36-.41.37.19.36-.18.36.54.36-.48.36-.14.37-1.01.36-.38.36.58.36.78.37 1.75.36 1.7.36.82.36.1.36-.11.37-.06.36-.24.36-.36.36-.31.36-.51.37-.28.36-.8.36-.8.36-.35.36-.87.37 1.13.36-.41.36-.97.36-1.33.37-.25.36-.22.36-1.12.36-1.22.36-1.2.37-.98.36-1.35.36-1.4.36 2.73.36-.25.37 4.67.36-.86.36-.84.36-.78.36-.8.37.2.36-.18.36-.83.36-.73.36-.5.37-.87.36-.68.36-.85.36.76.37-.74.36-.76.36 1.5.36-.77.36-.85.37-.62.36 4 .36.26.36-.54.36-.52.37.2.36-.07.36.23.36.32.36-.16.37.27.36.3.36-.07.36.21.37-.23.36-.09.36.6.36 1.32.36.14.37.02.36.18.36-.43.36-.33.36-.41.37.64.36-.61h.36l.36-.41.36 2.05.37-.47.36-.49.36-.43.36.57.36.2.37 2 .36.47.36.07.36-.36.37.05h.36l.36-.34.36-.3.36-.34.37 2.29.36.02.36-.66.36-.9.36-1.41.37 4.23.36 1.71.36-.47.36.25.36 2.19.37.87.36-.06.36-.59.36-.52.37-.51.36-.82.36-.12.36 1.27.36-.74.37-.19.36-.48.36-.83.36-.29.36-.66.37-.85.36-1.07.36-.53.36-.56.36 1.61.37-.86.36-1.06.36-1.13.36-.5.37-.11.36-.89.36-1.03.36 2.27.36-.87.37-.83.36 1.57.36-.38.36-.78.36-.79.37-.72.36-.92.36-.88.36-.54.36.1.37-.79.36-.12.36 3.29.36-.72.36-.65.37-.79.36 1.89.36-.01.36.06.37 2.51.36-.05.36.14.36-.39.36-.46.37.04.36.27.36-.08.36-.18.36.34.37.08.36-.23.36-.48.36.17.36-.39.37 1.34.36-.34.36.39.36-.16.37-.2.36 1.18.36-.14.36-.42.36.53.37-.58.36.04.36-.23.36 1.82.36-.43.37.09.36-.32.36.68.36-.48.36-.23.37.32.36.61.36.02.36-.46.36-.86.37.02.36.43.36-.31.36-.04.37 2.45.36-.4.36-.63.36-1.04.36-.31.37 1.04.36-.7.36 1.8.36.53.36 2.27.37 1.73.36-.11.36-.07.36-.53.36.04.37 2.71.36-.31.36-.14.36-.44.37-.44.36-.54.36-.54.36-.65.36-.97.37-1.03.36 1.19.36-1.03.36-1.1.36-1.26.37-.31.36.04.36-.58.36-.88.36-1.06.37-1.12.36-1.26.36 2.24.36-.91.36-.99.37 3.35.36-.82.36-.92.36-.97.37 1.5.36-.61.36-.67.36-.65.36-.76.37-.45.36-.53.36-.83.36-.11.36.78.37-.57.36-.71.36-.75.36-.15.36 3.82.37 1.23.36-.47.36-.39.36-.51.37.06.36 1.28.36.46.36.46.36.06.37.06.36.33.36.27.36-.19.36.7.37-.23.36.82.36.03.36.12.36-.25.37-.24.36-.23.36-.32.36-.53.37-.12h.36l.36-.19.36 3.59.36-.39.37-.15.36-.05.36.77.36-.37.36.09.37-.03.36.98.36.11.36-.62.36-.12.37-.6.36-.81.36.27.36-.01.36-.09.37 1.59.36-.75.36-.72.36.6.37-.99.36-.22.36 1.45.36 2 .36-.68.37 3.05.36 1.11.36-.58.36-.22.36-.64.37.36.36.07.36-.39.36-.52.36.23.37-.7.36-.71.36 1.37.36-.41.37-1.1.36-1.15.36-.87.36.05.36-1.13.37-1.27.36.34.36-1.15.36-1.08.36.38.37 2.76.36-.73.36-.93.36-.73.36-1 .37-1 .36 1.45.36-.12.36 2.5.36-.44.37-.67.36-.69.36-.76.36-.77.37 1.47.36-.63.36-.7.36-.23.36-.68.37-.73.36-.69.36-.15.36 2.62.36-.63.37-.32.36-.67.36.94.36-.43.36.17.37-.09.36.38.36.11.36.17.37-.17.36.12.36-.22.36.63.36.1.37.16.36-.04.36-.12.36-.2.36 1.87.37-.46.36.53.36-.29.36-.57.36-.07.37.11.36 2.26.36-.32.36-.49.37-.05.36 1.38.36-.34.36.47.36.16.37-.3.36-.39.36.66.36.03.36-.43.37-.66.36.21.36 1.75.36-.44.36-.83.37-.87.36.47.36.86.36-.13.36.49.37-.14.36 1.93.36.31.36 1.87.37-.21.36 1.03.36-.56.36.65.36 1.92.37-.59.36-.41.36-.79.36-.87.36.36.37-.32.36-.44.36-.76.36-.96.36-.96.37-.39.36.28.36-1.08.36.01.37-.96.36-.96.36-.85.36-1.13.36-1.16.37.63.36-.11.36-1.03.36-1.07.36.84.37.5.36 1.59.36-.87.36 1.03.36-.45.37-.64.36-.58.36-.7.36-.82.36-.8.37-.86.36-.2.36 1.05.36-.6.37-.66.36-.78.36 3.53.36.89.36 1.21.37-.43.36-.41.36-.48.36-.56.36 1.05.37 1.55.36.04.36.01.36-.23.36-.22.37-.53.36.39.36.73.36-.24.37 1.94.36.2.36-.14.36-.05.36-.48.37-.07.36-.2.36-.47.36.01h.36l.37 1.67.36.09.36-.46.36-.22.36.64.37-.21.36.1.36-.22.36-.07.36-.68.37 1.31.36-.49.36-.27.36-.89.37 1.41.36.01.36-.39.36 1.31.36-.79.37-.15.36.75.36-.94.36-.08.36-.72.37 2.32.36-.43.36.05.36 2.74.36 4.66.37-.33.36-.56.36-.83.36.6.37-.65.36-.76.36-.73.36-.94.36-.9.37-.54.36 1.03.36-.7.36-.49.36-1.15.37-1.03.36-.24.36-1.33.36-1.19.36-1.12.37-.98.36 1.03.36-1.13.36 3.85.37-.7.36-.67.36-.78.36-.95.36-.72.37-.98.36 1.46.36-.38.36-.1.36-.85.37-.93.36-.84.36-.98.36-1.05.36-1.03.37.29.36-.14.36 1.33.36 4.31.36-.65.37-.66.36 3.23.36.09.36-.59.37-.43.36.83.36-.48.36-.53.36-.02.37.35.36.44.36-.05.36-.09.36-.31.37.05.36.64.36-.28.36.37.36.13.37-.29.36-.47.36-.58.36-.36.37-.18.36 1.23.36-.04.36-.27.36 1.83.37-.13.36-.43.36-.37.36.7.36.16.37.21.36.02.36.26.36-.46.36-.45.37.12.36 1.57.36-.63.36.14.36.08.37-.32.36-.83.36-.77.36 1.39.37.45.36.36.36-.6.36-.08.36.73.37 2.38.36-.22.36-.17.36.82.36-.34.37-.25.36-.14.36-.53.36 1.2.36 2.37.37-.08.36-.25.36-.45.36-.56.37-.23.36-.78.36-1.05.36-.43.36-.96.37-1.19.36-.88.36 1.33.36.28.36-.76.37-.66.36-.64.36-.98.36-.83.36-.13.37-.93.36-.91.36-1 .36.21.36 4.02.37-.9.36.07.36.61.36-.71.37-.73.36.58.36-.71.36-.74.36-.69.37-.03.36-.75.36-.63.36-.76.36-.39.37.39.36-.74.36 2.76.36-.41.36-.46.37 2.65.36-.5.36-.45.36 1.31.37.08.36-.39.36.39.36-.32.36-.14.37.5.36.04.36.11.36-.05.36-.35.37-.26.36-.66.36-.4.36 1.3.36-.81.37-.22.36-.48.36 1.51.36-.71.37-.69.36 6.77.36.81.36-.3.36.75.37-.01.36-.12.36-.44.36-.4.36-.5h.37l.36-.09.36.27.36-.36.36-.41.37-.78.36-1.03.36-.79.36 2.41.36.58.37-.58h.36l.36-.24.36 2.85.37-.57.36 2.61.36.69.36-.51.36 2.92.37.6.36-.64.36-.87.36 1.03.36-.67.37-.89.36-1.07.36-1.21.36-.94.36-1.31.37.57.36-.95.36.92.36-1.15.37-1.25.36-1.4.36-.63.36-1.34.36-1.41.37-1.32.36-1.54.36 2.28.36 2.41.36-.08.37-.92.36-.89.36-.9.36.05.36 1.53.37-.84.36-.13.36-.88.36-.93.36-.7.37-.83.36-.91.36-.86.36.66.37 1.01.36-.55.36-.51.36-.58.36 5.73.37 2.36.36-.37.36.21.36-.42.36-.42.37-.49.36.75.36-.48.36.34.36.04.37-.13.36-.28.36.3.36.66.37-.1.36.46.36-.05.36-.07.36-.44.37-.33.36-.06.36.59.36-.45.36.1.37-.32.36 1.8.36-.34.36-.35.36-.42.37.7.36 1.37.36.15.36.86.36.11.37-.11.36-.37.36-.7.36.21.37-.63.36-.76.36.25.36.35.36-.62.37-.74.36-.99.36-.66.36.3.36 2.52.37.23.36-.03.36 2.56.36.18.36-.49.37-.1.36 1.07.36-.38.36.58.37 1.81.36-.47.36-.23.36 3.6.36.05.37-.05.36-.21.36-.41.36-.53.36-1.08.37-.46.36-1.04.36-1.21.36-1.14.36-.01.37-1.04.36 1.06.36-1.09.36.36.37-1.23.36-1.29.36-.34.36-.21.36-1.04.37-1.22.36-1.09.36-1.29.36.09.36 5.01.37-.06.36 2.61.36-.58.36-.54.36-.54.37-.43.36-.63.36.02.36-.65.36-.77.37-.64.36-.46.36.92.36-.68.37-.11.36.37.36-.62.36-.64.36-.75.37-.78.36.33.36-.82"/><use xlink:href="#d" color="#3B75EA" transform="matrix(3.75 0 0 3.75 354.25 198.58)"/><use xlink:href="#d" color="#3B75EA" transform="matrix(3.75 0 0 3.75 112.25 7.51)"/></g><text stroke-linecap="round" stroke-linejoin="round" color="#000" font-family="KaTeX_Main" font-size="8" transform="translate(132.8 25.11)"><tspan>LBSTRelaxed</tspan></text><g fill="none" stroke="currentColor" stroke-linecap="round" stroke-linejoin="round" color="#000"><path stroke="violet" stroke-dasharray="4.5,2.0,0.5,2.0,0.5,2.0" d="M97.3 22.51h29.9M28 161.37l.36-2.56.36-2.34.37-1.94.36-3.12.36.52.36-3.04.36-2.8.37-2.8.36-.95.36-3.86.36-1.52.37-3.55.36 15.51.36-2.06.36-2.57.36 4.15.37-1.23.36-2.4.36-1.45.36 2.03.36-2.57.37-.78.36-1.93.36-2.01.36-2.17.36-2.48.37.26.36-1.47.36-2.57.36-1.79.36-2.59.37-1.26.36-2.62.36-1.37.36-2.24.37-2.82.36 10.97.36 7.91.36-1.55.36-1.1.37 4.66.36-1.65.36-.75.36-1.54.36-1.69.37-1.25.36-1.83.36-2.23.36.82.36-1.61.37.12.36.03.36.28.36-.26.37-.24.36.62.36-.29.36-.65.36-.2.37-.27.36 1.3.36-.58.36-.53.36-.58.37-.31.36-.83.36-.06.36-.7.36-1.24.37-.61.36-1.41.36 3.81.36.83.37-.79.36-.57.36-.99.36-1.11.36.06.37-1.12.36-1.67.36-.85.36-1.28.36 1.33.37-1.3.36-1.18.36 3.37.36-1.26.36-1.87.37-.13.36-1.11.36-1.22.36-1.97.36-1.24.37 18.24.36-.92.36-.3.36-.49.37-1.13.36-1.95.36 1.76.36 17.26.36-1.07.37-2.11.36-.24.36-2.33.36-2.28.36-2.3.37-1.52.36-3.25.36.77.36-2.67.36-2.07.37-1.5.36-3.01.36-1.52.36-2.85.37-3.07.36-2.92.36-3.08.36-2.78.36 1.67.37-2.62.36 40.46.36-.75.36-1.55.36-.91.37-1.91.36-1.49.36-1.65.36-2.1.36-2.34.37.9.36-2.02.36-1.75.36-2.36.36-2.08.37.01.36-2.16.36-2.39.36-2.01.37 4.31.36-1.82.36 2.86.36-1.44.36 8.56.37-.66.36-1.13.36-1.37.36-1.03.36-1.79.37.11.36.4.36-.11.36.14.36 1.81.37-.03.36-.24.36.03.36.05.37-.65.36.58.36-.34.36-.31.36.08.37-.71.36 1.28.36-.48.36-.97.36.02.37-1 .36-1.37.36-.03.36 1.16.36-1.21.37-1.7.36 4.55.36-.46.36-1.16.36-.65.37-.69.36-.64.36.36.36-1.08.37-1.61.36-.69.36-1.44.36-1.83.36.27.37 2.76.36-1.74.36-.97.36-1.92.36-1.32.37-2.26.36-2.8.36 18.56.36-.39.36-.83.37-1.5.36-1.89.36 11.21.36 2.13.37-2.41.36-2.16.36-3.03.36-2.66.36-1.82.37-.9.36-2.95.36-2.85.36-2.97.36 1.96.37-2.55.36-3.05.36-2.76.36-2.27.36-3.16.37-1.99.36 1.29.36-3.42.36-2.6.37 43.9.36.5.36-1.56.36-1.83.36-1.79.37-1.05.36-2.45.36-1.37.36-2.06.36-2.66.37-1.61.36-2.55.36 10.62.36-1.95.36-1.81.37-1.6.36-2.16.36-2.09.36-1.39.36-1.95.37-2.04.36 3.67.36-2.16.36-.23.37-2.03.36-1.69.36-1.81.36-2.13.36-2.23.37-.02.36.01.36-.38.36.04.36-.37.37-.87.36 1.66.36-.44.36-.24.36-.52.37-.77.36-.95.36-.02.36-.14.37-.71.36-1.14.36-1.23.36 4.05.36-.53.37-.76.36-.59.36-.99.36 1.02.36.15.37-.98.36-1 .36-.6.36-1.35.36-1.33.37 1.54.36.02.36-1.19.36-.86.36-1.33.37-.96.36-.1.36-1.26.36-1.41.37 2.83.36-1.12.36-1.91.36 17.98.36-.52.37.01.36-1.01.36.62.36-.83.36-1.42.37 1.3.36-1.3.36 23.77.36-1.89.36-3.02.37-1.37.36-2.97.36.94.36-.28.37-2.02.36-2.38.36-2.48.36-3.35.36-1.19.37-2.97.36-2.89.36 37.69.36-2.63.36 3.83.37-2.29.36 2.88.36-1.53.36-1.92.36-2.64.37-.72.36-1.85.36-2.13.36-2.69.36-2.39.37.5.36-2.59.36-2.33.36-2.34.37-2.26.36-3.12.36-.02.36-2.61.36-2.48.37-2.7.36-2.86.36 1.82.36-2.4.36 1.61.37-1.52.36 2.67.36-2.6.36-1.12.36 22.02.37-.75.36-1.57.36-1.49.36.57.37.28.36.25.36-.16.36.43.36.22.37-.29.36.79.36-.05.36-.45.36.18.37-.62.36-.57.36 1.76.36.54.36-.47.37-.2.36-.73.36-.84.36.6.37-.88.36-.68.36-.7.36 1.04.36-1.02.37-1.64.36 4.61.36-.67.36-1.18.36.06.37-.9.36-.57.36-1.11.36-1.31.36-2.12.37 2.16.36-1.04.36-1.9.36-.93.36 2.53.37-2.34.36.21.36-1.99.36-1.78.37-1.76.36-2.55.36 18.26.36-.88.36-1.87.37 1.03.36-1.71.36 13.5.36-2.57.36-1.81.37-2.31.36-1.49.36-2.28.36-.89.36-1.88.37-3.18.36-2.69.36 3.48.36-2.12.37-3.01.36-2.27.36-1.89.36-1.98.36-3.15.37-2.94.36 2.74.36-3.07.36-2.93.36 39.27.37-1.68.36-1.77.36-1.55.36-2.17.36-1.07.37-1.45.36-2.16.36-1.92.36-2.67.36-2.23.37 2.52.36 5.75.36-2.08.36-1.69.37-2.07.36-1.34.36-2.03.36-2.2.36-2.14.37-1.78.36 2.5.36-.3.36-1.98.36-2.37.37-1.34.36-2.32.36-1.64.36 13.33.36.15.37.05.36-.02.36.2.36-.06.37-.61.36 1.92.36-.37.36-.24.36.08.37-.51.36-.7.36.43.36.13.36-1.03.37-.2.36-.99.36 4.18.36-.18.36-.58.37-.31.36-1.04.36 1.33.36.29.37-.36.36-.99.36-.65.36-1 .36-1.31.37 1.74.36-.06.36-.78.36-1.36.36-1.05.37-1.39.36-.06.36-1.36.36-1.58.36 2.12.37-1.46.36-.88.36 17.73.36-1.26.36-1.93.37 1.02.36-1.6.36-1.08.36-1.88.37-.54.36 1.98.36 21.54.36-1.59.36-2.43.37-2.54.36-.91.36-2.25.36-1.24.36-1.66.37-2.98.36-1.5.36-1.42.36-2.41.36-2.56.37-3.25.36-2.3.36-1.78.36-3.36.37-2.92.36 2.04.36-3.24.36 1.26.36-2.56.37-2.75.36-2.82.36 37.69.36-.77.36-1.7.37-1.05.36-1.66.36-1.81.36-2.48.36.65.37-1.94.36-.38.36-2.05.36-2.09.36-1.09.37-2.13.36-2.09.36-1.96.36 4.13.37-1.16.36 3.7.36-1.41.36-1.86.36-1.32.37-1.39.36-1.86.36-1.77.36-2.19.36-.01.37.04.36.25.36-.14.36-.46.36.53.37-.06.36-.82.36-.09.36-.55.37 2.02.36-.2.36-.69.36.13.36-.23.37-.49.36-.98.36.18.36-.49.36-.85.37-1.02.36-.5.36.83.36-1.05.36-1.75.37 4.79.36-.35.36-.84.36-.14.36-1.04.37.03.36-1.22.36.05.36-.93.37-1.26.36-.71.36-1.53.36.75.36 3 .37-.9.36-1.37.36-.49.36-1.2.36-.85.37-2.31.36 18.77.36.01.36.09.36 1.01.37-.55.36 12.46.36 1.44.36-2.11.37-2.17.36-2.14.36-2.94.36 1.58.36-2.77.37-2.75.36-2.39.36-3.18.36-3.26.36 3.11.37-3.1.36-1.5.36-3.18.36-3.05.36-2.12.37 2.22.36-3.29.36-2.55.36 39.38.37.45.36-1.43.36-1.8.36-1.78.36-1.79.37-1.74.36-1.38.36-2 .36-2.61.36-1.57.37-2.54.36 10.46.36-1.97.36-1.84.36-1.5.37-2.08.36-2.14.36-1.39.36-2.1.36-1.93.37 3.35.36-2.22.36-.38.36-2.14.37-1.54.36-1.92.36-2.17.36-2.44.36-.14.37-.2.36-.18.36-.07.36-.37.36-.76.37 1.47.36-.41.36-.25.36-.57.36-.82.37-1.08.36.03.36-.08.36-.69.37-1.19.36-1.22.36 4.06.36-.49.36-.73.37-.56.36-1.09.36 1.1.36.14.36-.9.37-1.03.36-.6.36-1.35.36-1.19.36 1.38.37.07.36-1.23.36-.63.36-1.41.36-1 .37.02.36-1.07.36-1.38.36 3.24.37-1.2.36-1.49.36 18.19.36-.41.36.26.37-.94.36.8.36-.3.36-1.27.36 1.7.37-1.25.36 22.59.36-1.29.36-2.88.36-1.36.37-2.81.36 1 .36-.35.36-1.99.37-2.04.36-2.51.36-3.24.36-.89.36-3 .37-2.66.36-2.19.36-3.39.36 2.81.36-2.64.37 2.25.36-1.93.36-2.67.36 40.8.36-.46.37-1.51.36-1.73.36-2.16.36-2.06.36.67.37-2.21.36-1.88.36-1.97.36-1.96.37-2.7.36.41.36-2.35.36-2.04.36-2.35.37-2.49.36 2.02.36-2.03.36 1.91.36-1.57.37 3.63.36-2.2.36-.79.36-2.02.36-1.54.37-2.23.36-2.26.36-.1.36.11.37.05.36-.04.36.28.36-.21.36-.27.37.67.36-.27.36-.59.36-.07.36-.91.37-.48.36 1.54.36.4.36-.78.36-.29.37-1.08.36-.94.36.37.36-.97.37-.83.36-.69.36.93.36-1.01.36-1.65.37 4.65.36-.56.36-1.03.36.32.36-.66.37-.41.36-.77.36-.89.36-1.65.36 2.78.37-.67.36-1.15.36-.08.36 3.17.36-1.72.37 1.87.36-1.18.36-.86.36-1.74.37-1.43.36 19.48.36-.08.36-.73.36 2.25.37-.58.36 12.79.36-1.4.36-1.53.36-2.36.37-1.23.36-2.37.36-.78.36-1.86.36-2.93.37-3.04.36 3.86.36-2 .36 30.04.37-1.64.36-1.21.36-1.23.36-2.45.36-2.4.37 2.61.36-2.55.36-2.44.36.37.36-2.25.37-2.24.36-2.05.36-2.74.36-.93.36-2.71.37-2.57.36-2.29.36-3.22.36 9.78.36 2.94.37 6.03.36-1.78.36-1.28.36-1.57.37-.9.36-1.53.36-1.83.36-1.69.36-1.45.37 3.12.36.2.36-1.61.36-1.8.36-1.46.37-1.61.36-1.33.36-2 .36.1.36.11.37-.13.36.15.36-.17.36-.67.37 1.87.36-.48.36-.4.36-.05.36-.55.37-.91.36.26.36.04.36-1.27.36-.42.37-1.11.36 4.06.36-.43.36-.73.36-.48.37-1.18.36 1.21.36.12.36-.56.36-1.11.37-.92.36-1.27.36-1.54.36 1.38.37-.28.36-1.02.36-1.54.36-1.25.36-1.41.37-.31.36-1.39.36-1.46.36 2.17.36-1.15.37-.7.36 17.97.36-.97.36-1.64.36 1.55.37-1.11.36-.69.36-1.64.36-.05.37 2.29.36 20.8.36-.84.36-2.2.36-2.56.37.12.36-2.62.36-.62.36-1.8.36-2.8.37-1.18.36-1.03.36-2 .36-2.36.36-2.85.37-2.32.36-1.45.36-3.06.36-2.71.37 1.86.36-2.97.36 1.59.36-2.62.36-2.1.37-2.66.36-2.98.36-1.85.36-2.91.36 43.84.37-1.51.36-1.75.36-2.43.36.74.36-1.91.37-.06.36-2.14.36-2.15.36-1.08.36-2.24.37-2.23.36-1.98.36 4.15.36-1.25.37 3.17.36-1.48.36-1.83.36-1.45.36-1.71.37-2.01.36-2.04.36-2.55"/><use xlink:href="#e" color="violet" transform="matrix(3.75 0 0 3.75 67.83 125.61)"/><use xlink:href="#e" color="violet" transform="matrix(3.75 0 0 3.75 112.25 22.51)"/></g><text stroke-linecap="round" stroke-linejoin="round" color="#000" font-family="KaTeX_Main" font-size="8" transform="translate(241.1 10.11)"><tspan>WBSTBottomUp</tspan></text><g fill="none" stroke="currentColor" stroke-linecap="round" stroke-linejoin="round" color="#000"><path stroke="#000" d="M205.6 7.51h29.9M28 181.3l.36-1.4.36-1.72.37-2.75.36.31.36-1.48.36-2.13.36-.04.37.4.36-1.84.36-2.17.36.57.37-.39.36-2.14.36 3.03.36-2.49.36 7.92.37-.43.36-1.66.36 2.02.36-1.03.36-1 .37-.3.36-1.95.36 1.88.36-1.81.36-1.28.37-2.03.36-.57.36-2.01.36-1.53.36-2.17.37 3.12.36-.69.36-.9.36-.42.37-1.65.36-.45.36.12.36-1.21.36 4.38.37.74.36-1.4.36-1.04.36-1.76.36 2.34.37.17.36 2.17.36-1.54.36 5.77.36-.97.37-.01.36-.04.36-.06.36-.13.37-.21.36-.03.36-.23.36-.24.36-.49.37-.18.36 2.87.36.65.36-.27.36 3.35.37-.22.36.12.36.48.36-.07.36-.33.37-.14.36-.43.36 1.54.36.63.37.42.36-.08h.36l.36-.44.36.61.37.18.36 2.23.36.68.36.59.36.34.37-.03.36.06.36-.08.36.6.36-.48.37.34.36-.19.36.23.36.16.36-.17.37.43.36-.4.36-.92.36.77.37-.42.36 2.96.36-.23.36.77.36-1.98.37-1.09.36-1.02.36-1.97.36-2.39.36-.04.37-2.48.36.05.36-2.02.36-1.29.36-2.4.37 4.75.36 1.79.36 2.53.36-1.61.37 3.05.36-1.74.36-.14.36-1.86.36-1.3.37 3.53.36.05.36-.24.36-.52.36-.73.37-1.03.36-.91.36-2.08.36-1.53.36-1.8.37 5.35.36-1.5.36-.17.36-1.6.36-.78.37-1.73.36-1.27.36-2.09.36 3.43.37-.66.36-1.15.36-1.62.36.63.36-1.29.37-1.43.36-1.16.36 8.67.36.14.36-.93.37-.02.36-.1.36.42.36-.29.36-.03.37-.11.36-.33.36-.15.36-.5.37 2.22.36.65.36-.18.36 1.57.36-.21.37 1.45.36.14.36-.14.36-.31.36.09.37-.4.36 2.4.36.21.36.11.36.09.37-.05.36-.31.36.85.36-.1.36-.46.37 4.07.36.07.36.24.36.24.37 1.19.36-.1.36.32.36-.53.36.12.37-.16.36-.33.36-.67.36-.11.36 1.73.37-.27.36-.45.36 1.2.36-.04.36.01.37 3.53.36-.36.36-1.96.36-.69.37-1.89.36-.61.36-2.42.36 2.45.36-1.8.37-1.03.36 3.03.36-.9.36-1.74.36-1.81.37 1.43.36 2.56.36-.37.36-1.55.36.48.37-.77.36-1.61.36-1.82.36-2.02.37-2.18.36 6.21.36-1.76.36-1.03.36-1.97.37-1.02.36 1.35.36-1.58.36-2.07.36 4.3.37-1.15.36-1.3.36-1.63.36-.99.36-.19.37-.76.36-1.82.36.82.36-1.49.36-1.41.37 2.92.36 1.01.36-.96.36-1.23.37-1.57.36 4.75.36 3.73.36-.64.36-.35.37-.08.36.27.36-.14.36.05.36.05.37-.07.36-.37.36-.51.36 2.41.36.65.37-.24.36.58.36.48.36-.08.37.58.36-.08.36-.19.36 1.59.36-.3.37.46.36 1.63.36.07.36.27.36-.31.37-.23.36 1.21.36-.01.36-.32.36 1.07.37.25.36-.05.36.16.36-.48.36.91.37-.5.36-.79.36 2.93.36.53.37-.09.36-.53.36.17.36 1.5.36-.11.37.17.36-.04.36-.14.36-.01.36 1.08.37 2.72.36-.74.36-.16.36-1.88.36-2.25.37-1.83.36-.31.36 2.91.36-1.36.37-2.52.36.63.36-.28.36-2.08.36-2.45.37 7.58.36-1.38.36-1.9.36 1.44.36-1.58.37-.82.36-.93.36-.5.36-1.61.36 3.61.37-1.68.36-.99.36-1.94.36 2.63.36-1.41.37-1.63.36-2.04.36 2.82.36-1.18.37.04.36-1.88.36-.77.36-2.01.36-1.01.37-1.65.36.36.36-1.56.36.31.36-1 .37-.58.36-1.43.36-1.24.36-1.79.36 4.66.37-.21.36 2.48.36-.67.36-.74.37.07.36-.36.36-.19.36 4.34.36.22.37-.31.36 2.4.36-.28.36.56.36-.09.37-.41.36 1.13.36-.18.36 2.78.36-.18.37-.33.36.15.36-.22.36-.27.37 1.34.36.17.36-.15.36-.3.36.39.37 1.26.36-.05.36 1.33.36.36.36-.07.37-.04.36.24.36-.48.36-.34.36.96.37-.4.36-.32.36.02.36-.3.36-.82.37-1.01.36-.94.36 7.31.36-.45.37-.39.36-.16.36.08.36-.03.36-.43.37 2.32.36-.69.36-2.07.36 3.89.36-2.05.37.77.36-.68.36-1.77.36-1.9.36.67.37-.96.36-2.4.36-.42.36-2.49.37 9.57.36-1.31.36-.99.36-1.77.36-.88.37-1.69.36 2.33.36-1.19.36.2.36-1.54.37-1.64.36-2.17.36 1.12.36-1.87.36 2.64.37.14.36 5.2.36-1.18.36-.96.36-1.11.37-.86.36-.74.36-1.39.36-1.36.37-.19.36-1.17.36 2.5.36-1.49.36-.29.37-1.5.36-1.07.36-.41.36 4.84.36-.85.37-1.13.36 2.84.36-1.36.36-.5.36-.02.37-.31.36.1.36-.01.36-.2.37 2.62.36-.25.36.99.36-.03.36-.34.37.1.36-.15.36 2.44.36-.31.36-.23.37.65.36-.34.36-.25.36 1.87.36-.08.37.03.36.15.36-.29.36.26.37-.09.36.42.36 1.84.36-.27.36.2.37-.23.36-.57.36 2.87.36-.22.36 1.19.37-.1.36-.41.36.43.36.22.36-.32.37-.76.36.95.36.17.36-.69.36.03.37 1.49h.36l.36-.55.36-.75.37 2.36.36 2.89.36-2.22.36-1.57.36-2.73.37 2.02.36-2.28.36-1.39.36-.49.36 3.39.37-1.58.36-2.19.36-1.63.36 3 .36 2.29.37-1.18.36-1.32.36-1.14.36-.83.37.89.36-2.11.36 1.31.36-1.72.36-1.77.37 1.67.36-.31.36-2.03.36 1.81.36-1.72.37 2.13.36.12.36-1.25.36-1.34.36-1.06.37-.91.36-1.33.36-1.78.36 1.23.36-1.14.37-1.27.36-1.66.36-.42.36-1.35.37-2.13.36-1.65.36-2.25.36 5.97.36-1.07.37 2.14.36 3.45.36 1.52.36.8.36.12.37 1.57.36-.02.36.12.36 2.79.36-.05.37.57.36.06.36-.23.36.22.37-.08.36.13.36.22.36-.2h.36l.37-.11.36-.16.36 1.36.36.1.36-.02.37.08.36.82.36-.04.36.87.36.08.37 1.89.36-.01.36.75.36-.08.36-.13.37-.51h.36l.36-.6.36 2 .37-.44.36-.47.36-.41.36 1.85.36-.64.37.49.36-.45.36-.29.36.09.36-.29.37-.02.36-.39.36-.26.36-.61.36 8.46.37-.15.36-1.23.36-2.39.36 1.6.37-1.27.36-1.69.36-2.43.36-1.29.36-1.31.37-.13.36-.79.36 3.17.36-1.34.36 3.97.37-1.93.36-.49.36-2.04.36-.9.36-1.28.37.38.36-1.6.36 2.75.36-1.42.37-.29.36-.92.36-1.26.36-1.84.36 1.94.37 1.84.36-1.07.36-1.77.36-.38.36-1.31.37-1.65.36-1.86.36-2.17.36 1.11.36-1.93.37-.9.36-1.27.36-.27.36-.29.36-1.43.37-1.97.36 5.75.36-.67.36-.4.37 2.02.36-.73.36-1.27.36-1.3.36-.08.37.2.36-.23.36 2.74.36-.25.36.75.37-.1.36 5.46.36.33.36.34.36.66.37-.03.36-.28.36-.41.36-.14.37-.2.36 1.14.36-.28.36.47.36-.27.37-.33.36-.36.36.86.36-.35.36-.09.37-.41.36 3.66.36.85.36-.32.36.31.37-.1.36-.39.36-.71.36 1.94.36-.37.37-.03.36-.84.36-.28.36.51.37-.28.36.52.36-.07.36-.49.36-.36.37 5.28.36-.3.36-.67.36 4.26.36 3.5.37.24.36-1.77.36.83.36-2.35.36.38.37-2.26.36-.72.36-1.92.36-2.23.37-1.52.36 3.06.36-1.44.36-1.53.36 3.72.37-1.4.36-.37.36-1.64.36-2.36.36-.35.37.06.36 2.42.36-1.17.36-1.35.36 1.59.37-1.84.36-1.67.36 2.02.36-.73.36-1.8.37.52.36-1.51.36-.99.36-1.75.37-1.45.36-2.23.36 4.6.36-1.83.36-1.3.37-2.12.36-1.18.36-1.8.36 1.29.36-1.39.37 8.64.36-.74.36.31.36-1.43.36 3.15.37-1.3.36-.63.36-1.3.36.26.37.07.36 3.21.36-.03.36.46h.36l.37-.06.36.34.36-.14.36.11.36.38.37 1.78.36-.29.36-.01.36-.36.36 1.4.37-.13.36.03.36.82.36-.33.37.51.36.64.36 1.08.36-.3.36.9.37.08.36.09.36-.39.36-.09.36-.4.37-.38.36-.93.36-.38.36 4.11.36.08.37 2.06.36-.47.36.54.36.36.36-.45.37.1.36-.36.36-.11.36-.16.37-.84.36.94.36 3.64.36-.57.36.19.37 3.56.36 1.18.36-1.55.36-1.5.36-2.29.37-.36.36-1.83.36-1.42.36.33.36 3.61.37-1.66.36-1 .36-2.11.36 3.44.37-1.45.36-2.02.36-1.12h.36l.36.34.37-.88.36-2.07.36-1.63.36-1.05.36 1.38.37-1.47.36.69.36 3.4.36-1.66.36-.75.37-1.79.36-.89.36-1.56.36-1.67.36-2.05.37.78.36-1.79.36-1.7.36-.35.37-1.02.36-1.87.36.71.36-1.55.36 5.18.37-1.4.36-1.24.36-1.43.36 1.01.36 2 .37.01.36-1.41.36.49.36-.1.36 8.38.37-.05.36-.22.36 1.32.36.25.37.15h.36l.36.43.36-.12.36-.25.37-.11.36.21.36-.09.36.02.36 1.68.37-.04.36.05.36-.38.36 2.55.36.61.37.03.36-.37.36 1.34.36.31.36.33.37-.28.36-.16.36-.35.36.6.37-.53.36.07.36-.1.36 1.09.36-.45.37-.72.36.08.36-.63.36-.75.36 2.99.37-.42.36.15.36.12.36-.23.36-.67.37 4.77.36-.3.36.68.36-.29.37 5.32.36 1 .36-.94.36-1.02.36-.66.37-1.91.36-2.02.36-1.81.36 4.27.36-.87.37-1.58.36-1.1.36.73.36 2.11.36-1.35.37-1.63.36-2.3.36 1.96.36-1.8.37-1.47.36-1.14.36-.5.36-2.06.36-1.84.37-1.98.36 2.34.36-1.96.36 4.17.36-1.67.37 2.6.36-1.71.36-1.14.36-1.93.36.68.37-1.38.36-1.51.36-1.8.36-1.35.36-1.35.37-1.1.36-1.16.36 6.28.36-1.13.37-1.11.36.29.36-.76.36-1.31.36 2.81.37-1.07.36-.11.36-1.24"/><use xlink:href="#a" transform="matrix(3.75 0 0 3.75 125.4 172.56)"/><use xlink:href="#a" transform="matrix(3.75 0 0 3.75 220.55 7.51)"/></g><text stroke-linecap="round" stroke-linejoin="round" color="#000" font-family="KaTeX_Main" font-size="8" transform="translate(241.1 25.11)"><tspan>WBSTRelaxed</tspan></text><g fill="none" stroke="currentColor" stroke-linecap="round" stroke-linejoin="round" color="#000"><path stroke="#FFAB00" stroke-dasharray="4.0,2.0,1.0,2.0" d="M205.6 22.51h29.9M28 102.86l.36-4.49.36-4.07.37-2.53.36-2.97.36-2.08.36-3.45.36-3.48.37-4.63.36-4.39.36 23.4.36 6.63.37-1.85.36-1.98.36-2.92.36-1.93.36-1.53.37-2.51.36-3.29.36 1.22.36-2.57.36-2.81.37-2.34.36-2.71.36-2.99.36-3.39.36.95.37-2.95.36-2.78.36-3.28.36 2.37.36-2.9.37-.69.36-3.26.36-1.04.36-2.47.37 14.01.36-1.58.36-2.28.36 28.01.36-2.2.37 4.29.36-1.74.36 1.23.36-.66.36-1.36.37-.51.36-1.93.36-1.95.36-.94.36-1.82.37-.26.36-.27.36-.47.36-.2.37-.5.36-.7.36-.94.36.34.36-.41.37-.69.36-1.08.36-.53.36-1.11.36-.26.37-1.6.36 2.3.36-1.23.36-.82.36-.5.37-1.34.36-1.3.36-1.71.36 1.95.37-1.47.36-1.51.36-1.85.36-1.03.36-1.92.37-1.99.36-2.61.36 18.3.36-.43.36-.98.37-1.55.36-.2.36-1.47.36-1.46.36 20.43.37-.89.36-.66.36-1.3.36.05.36-1.22.37-1.07.36-1.85.36 5.57.36-.93.37.07.36-1.44.36.16.36 17.27.36-1.72.37-2 .36-2.34.36-2.18.36-2.52.36-2.45.37-.66.36-2.97.36-3.14.36-2.35.36-.94.37 22.72.36 1.52.36-2.2.36-2.4.37-2.1.36-2.05.36.39.36-2.69.36-1.1.37-2.56.36-2.5.36-2.31.36-2.18.36 2.06.37 16.18.36-1.62.36-1.99.36-2.16.36-1.53.37-1.4.36 4.09.36-1.65.36-2.17.36-1.44.37-2.19.36-.51.36-2.01.36-.2.37-1.96.36-1.84.36-1.62.36-1.9.36 7.24.37-1.62.36-1.78.36-1.21.36-2.03.36-2 .37-.85.36-.38.36.67.36-.67.36-.48.37-.93.36-.52.36-.84.36-.88.37-1.33.36 1.76.36-.52.36-.98.36-1.46.37-.7.36-1.12.36-1.38.36-1.86.36.29.37 1.16.36-1.74.36-1.22.36-1.87.36-1.78.37-2.5.36 18.58.36-.91.36-1.45.36-.8.37-.29.36-1.67.36-.13.36-1.67.37-.6.36-1.89.36-1.66.36-1.76.36 2.06.37 18.96.36-1.27.36-.68.36-1.18.36-1.57.37-2.4.36 1.88.36-1.31.36-2.43.36-1.76.37-2.77.36-3.21.36 38.49.36-2.56.37-2.81.36-.53.36-2.13.36-2.87.36.29.37-2.05.36-2.32.36-2.61.36-2.74.36-2.99.37 2.67.36-1.62.36-2.13.36-2.63.36-2.32.37-2.66.36-1.6.36-2.52.36-2.71.37-2.76.36-3.41.36-3.04.36-3.59.36 47.97.37-1.3.36-1.93.36.5.36-.89.36-2.19.37-.63.36-1.93.36-2.45.36-2.14.36-1.57.37-2.59.36.49.36 1.26.36-1.94.36-1.84.37-2.32.36-2.58.36-1.34.36-2.28.37-2.45.36-1.69.36-2.59.36-2.6.36 12.55.37-.36.36-.17.36-.73.36.05.36-.73.37-.94.36.17.36-.49.36-1.05.36-.77.37-1.01.36-1.28.36 1.95.36-1.09.37-.89.36-.85.36-1.13.36-1.4.36-.22.37-1.41.36-1.51.36 1.45.36-1.81.36-1.58.37-2.44.36 19.11.36-.69.36-1.35.36-.51.37-.39.36-1.66.36-.12.36-1.08.36-1.84.37-.79.36-1.88.36-2.33.36 1.68.37 18.21.36-1.04.36-1.25.36-1.83.36-1.22.37-.59.36-2.06.36-1.62.36-1.9.36-2.72.37-.72.36-3.64.36 41.41.36-2.31.36-3.37.37 1.49.36-3.43.36-3.79.36-1.55.37-2.18.36-4.03.36-2.44.36-3.88.36 16.7.37 1.44.36-.65.36-1.82.36-1.44.36-2.04.37-2.37.36-1.1.36-2.55.36-2.46.36-2.09.37-2.97.36-2.82.36.29.36 2.91.36-2.09.37-2.83.36-2.13.36-2.86.36-3.26.37 1.19.36-2.44.36-2.87.36 30.93.36-1.53.37-1.94.36.19.36-1.91.36-1.26.36-1.7.37 2.59.36-1.88.36-1.18.36-.83.36-1.84.37-1.79.36-2.25.36-2.3.36-.05.37-.2.36-.23.36-.72.36.06.36-.77.37-.66.36.25.36-.74.36-.93.36-.7.37.22.36-1.46.36 1.3.36-1.16.36-.96.37-.99.36-1.11.36-1.39.36-.42.37-1.57.36-1.52.36-1.43.36.2.36-1.87.37-2.47.36 18.75.36-.81.36-1.56.36-.53.37-1.34.36-.92.36-.04.36-1.25.36-1.88.37-.92.36-1.51.36-2.09.36 1.94.36 18.88.37-.77.36.34.36-1.27.36-1.08.37.31.36-1.22.36-1.55.36.67.36-1.88.37-1.85.36-2.9.36 23.45.36 2.41.36.56.37-2.13.36-2.39.36-2.76.36-.15.36 4.97.37-2.62.36-1.05.36-2.76.36-3.23.37 1.24.36-2.08.36-3.08.36-1.63.36-2.75.37-3.4.36-1.75.36-1.81.36-1.72.36-2.55.37-3.2.36-3.18.36 2.56.36 40.03.36-1.01.37-1.56.36 1.64.36-1.78.36-1.08.36-1.52.37-1.27.36-1.52.36-1.93.36-2.27.37-.23.36-1.82.36-2 .36-2.22.36-2.76.37-.64.36-2 .36-1.2.36-.89.36 2.27.37-2.26.36-2.17.36-2.37.36 1.53.36-.21.37-.31.36-.74.36-.05.36-.66.37-.35.36.26.36-.67.36-.97.36-.65.37-.85.36-1.31.36 1.3.36-1.27.36-.12.37-.93.36-1.46.36-1.3.36-.41.36-1.37.37-1.67.36-1.38.36-1.88.36-1.95.37.2.36 18.95.36-.67.36-1.27.36.47.37-1.05.36-1.31.36.5.36-.99.36-1.49.37-.8.36-1.35.36-1.27.36 2.35.36-.86.37-1.63.36-.7.36 18.36.36-.8.36.64.37-.8.36-.93.36-.63.36.71.37-1.4.36 19.12.36.66.36-1.6.36-2.72.37-.3.36-2.09.36-2.58.36-3.12.36 2.78.37-2.26.36-1.84.36-2.61.36-2.01.36-1.55.37-1.88.36-2.87.36-.86.36-2.94.37-2.26.36-3.19.36-1.62.36-3.05.36 7.57.37-2.84.36.95.36-.68.36-2.98.36-2.15.37 40.65.36-.55.36-2.01.36-1.67.36-1.33.37-.08.36-1.05.36-1.65.36-1.8.36-1.4.37-2.24.36-2.13.36-2.23.36 4.05.37-1.99.36-.91.36-1.39.36-1.45.36-2.14.37-2.07.36 17.41.36 2.8.36-.51.36-.21.37-.11.36-.02.36-.44.36-.52.36.42.37-.7.36-.81.36-1.05h.36l.37-1.11.36-1.43.36 1.59.36-.89.36-1.29.37-.78.36-1.22.36-.26.36-.33.36-1.37.37-.76.36-1.22.36-1.71.36-1.58.36 4.49.37-.96.36-1.12.36-1.33.36 2.97.36-1.32.37-1.25.36-1.45.36.46.36-.81.37-1.14.36-1.84.36-1.03.36-1.61.36-.13.37-2.17.36-2.31.36.79.36-2.05.36-1.11.37-2.6.36-1.31.36-2.49.36-2.41.36 17.38.37 19.25.36 7.73.36-1.05.36-1.16.37-2.25.36.08.36-2.73.36-1.24.36-2.06.37-2.99.36-2.8.36.69.36-1.08.36-2.83.37-2.26.36 38.2.36-2.07.36-.31.36-2.18.37.99.36-1.63.36-2.05.36-1.57.37 3.16.36-1.19.36-1.71.36-1.86.36-1.6.37-2.38.36-2.42.36-1.37.36-2.12.36-2.48.37.41.36 1.42.36-2.45.36-.64.36-1.5.37-2.13.36-2.27.36-1.15.36-2.27.36-1.18.37-2.4.36-2.56.36-2.29.36 3.77.37 20.42.36-1.22.36-.77.36-1.61.36-.42.37-.09.36-.41.36.14.36-.63.36-.38.37-.89.36 2.66.36-.45.36.71.36-.77.37.04.36-.85.36-.52.36-1.1.37.57.36-.84.36-.67.36-1.31.36-.51.37 1.2.36-1.09.36-1.47.36 4.51.36-1.04.37-.92.36-.82.36-.38.36-1.44.36-.42.37-1.38.36-2.05.36-.85.36-1.59.36-1.69.37-2.38.36 1.76.36-1.73.36 18.13.37-.82.36-1.66.36-1.95.36-.24.36-1.92.37-.83.36-2.07.36-2.33.36 17.7.36-.7.37-1.09.36 8.68.36-1.34.36-1.26.36-1.96.37-2.74.36.13.36-2.7.36 1.69.37-1.9.36-2.15.36-3.05.36-1.35.36.81.37-2.96.36-1.18.36-2.74.36-2.41.36-2.39.37 34.38.36-1.4.36 1.02.36-1.65.36-1.49.37-1.13.36-2.04.36-2.14.36-.07.36-1.44.37.08.36-2.38.36-1.59.36-2.22.37-2.72.36.78.36-1.83.36 2.74.36-1.83.37-2.35.36-2.3.36.2.36 2.01.36-1.77.37-1.83.36-1.22.36-1.97.36-2.46.36 14.14.37-1.51.36-1.74.36-1.03.36-.15.37-.13.36-.47.36.52.36-.22.36-.57.37-.29.36-.45.36-.92.36 1.5.36-.55.37-.85.36.16.36-.94.36-1.22.36-.07.37-.84.36-1.48.36-.8.36-1.36.37.57.36 3.86.36-.37.36-.85.36-1.06.37-1.18.36-1.32.36-.22.36-1.7.36.22.37-1.77.36-1.81.36-2.09.36.94.36-1.28.37-2.19.36-1.2.36-2.15.36 17.71.36-1.41.37-1.65.36-2.57.36 18.34.36-1.22.37-1.67.36-.76.36-1.28.36-2.25.36 2.67.37-1.66.36 9.88.36.26.36-1.1.36-2.77.37-2.24.36-1.93.36 3.24.36-2.86.36-.72.37.87.36-3.46.36 8.93.36-2.13.37-1.85.36 1.57.36-1.84.36-2.58.36-.07.37-2.15.36-1.54.36-.71.36-1.86.36-.98.37 1.39.36-2.43.36-1.84.36-1.41.36-2.1.37-2.22.36 25.57.36-2.05.36-1.01.36-1.75.37-2.02.36-2.11.36.75.36-1.23.37-1.88.36-1.3.36-2.12.36-1.34.36-2.21.37-1.72.36-1.69.36-.23.36-.98.36.24.37-1.92.36-1.52.36-1.78.36-.45.36-.35.37-.79.36-.25.36-.64.36-.62.37-1.35.36.46.36-.91.36-1.21.36.28.37-1.19.36-1.39.36-1.77.36 1.83.36-1.2.37-1.12.36-1.1.36-1.76.36-1.4.36-2.33.37.01.36.45.36-1.99.36-1.53.36-1.8.37-2.2.36-2.73.36 18.25.36-1.59.37.11.36-1.57.36-2.01.36-.11.36-1.49.37-1.83.36-1.26.36-2.27.36 18.54.36 1.79.37-1.38.36-.14.36-.21.36-1.8.36-1.52.37-.25.36-1.94.36.27.36-1.74.37-2 .36 34.49.36-1.95.36-.54.36-1.23.37-.46.36-1.94.36-2.2.36-2.4.36-1.06.37-2.58.36-3.26.36 3.31.36-2.34.36-2.42.37-1.83.36-.38.36-1.99.36-1.66.37-.24.36-2.66.36-2.47.36-1.18.36-2.68.37-2.66.36-2.69.36-2.7.36-.52.36 45 .37-1.54.36-.76.36-1.94.36-1.22.36-1.37.37 1.99.36-1.07.36-2.04.36 2.33.36-1.89.37-1.91.36-1.61.36-1.77.36-1.35.37-1.96.36-2.32.36-1.38.36-1.95.36-.67.37-2.13.36-2.28.36-.86"/><use xlink:href="#f" color="#FFAB00" transform="matrix(3.75 0 0 3.75 182.98 105.83)"/><use xlink:href="#f" color="#FFAB00" transform="matrix(3.75 0 0 3.75 220.55 22.51)"/></g><path fill="none" d="M28 45.01V205M371.99 45.01H28" color="#000"/></svg>