<svg xmlns="http://www.w3.org/2000/svg" xmlns:xlink="http://www.w3.org/1999/xlink" viewBox="0 0 400 250"><path fill="none" d="M0 0h400v250H0z"/><defs><path id="g" stroke="currentColor" stroke-width=".267" d="M-1 0h2M0-1v2"/><path id="h" stroke="currentColor" stroke-width=".267" d="m-1-1 2 2m0-2-2 2"/><path id="d" stroke="currentColor" stroke-width=".267" d="M-1-1h2v2h-2z"/><path id="b" stroke="currentColor" stroke-width=".267" d="m0-1.33-1.33 2h2.66z"/><path id="f" stroke="currentColor" stroke-width=".267" d="M0 1.33 1.265.411.782-1.067l-1.564-.009-.483 1.487z"/><use xlink:href="#a" id="i" fill="currentColor" stroke="none"/><use xlink:href="#b" id="c" stroke="currentColor" transform="rotate(180)"/><use xlink:href="#d" id="e" stroke="currentColor" transform="rotate(45)"/><circle id="a" cx="0" cy="0" r="1" stroke="currentColor" stroke-width=".267"/></defs><path fill="none" stroke="#333" stroke-linecap="round" stroke-linejoin="round" stroke-width=".1" d="M46.1 205V45.01" class="gridline" color="#000"/><g fill="none" stroke="none" stroke-linecap="round" stroke-linejoin="round" stroke-width="0" color="#000"><path d="M46.1 205v-7.5m0-152.49v7.5"/><text fill="#000" font-family="KaTeX_Main" font-size="8" text-anchor="middle" transform="translate(46.1 215.1)"><tspan> 1</tspan></text></g><path fill="none" stroke="#333" stroke-linecap="round" stroke-linejoin="round" stroke-width=".1" d="M82.31 205V45.01" class="gridline" color="#000"/><g fill="none" stroke="none" stroke-linecap="round" stroke-linejoin="round" stroke-width="0" color="#000"><path d="M82.31 205v-7.5m0-152.49v7.5"/><text fill="#000" font-family="KaTeX_Main" font-size="8" text-anchor="middle" transform="translate(82.31 215.1)"><tspan> 2</tspan></text></g><path fill="none" stroke="#333" stroke-linecap="round" stroke-linejoin="round" stroke-width=".1" d="M118.52 205V45.01" class="gridline" color="#000"/><g fill="none" stroke="none" stroke-linecap="round" stroke-linejoin="round" stroke-width="0" color="#000"><path d="M118.52 205v-7.5m0-152.49v7.5"/><text fill="#000" font-family="KaTeX_Main" font-size="8" text-anchor="middle" transform="translate(118.52 215.1)"><tspan> 3</tspan></text></g><path fill="none" stroke="#333" stroke-linecap="round" stroke-linejoin="round" stroke-width=".1" d="M154.73 205V45.01" class="gridline" color="#000"/><g fill="none" stroke="none" stroke-linecap="round" stroke-linejoin="round" stroke-width="0" color="#000"><path d="M154.73 205v-7.5m0-152.49v7.5"/><text fill="#000" font-family="KaTeX_Main" font-size="8" text-anchor="middle" transform="translate(154.73 215.1)"><tspan> 4</tspan></text></g><path fill="none" stroke="#333" stroke-linecap="round" stroke-linejoin="round" stroke-width=".1" d="M190.94 205V45.01" class="gridline" color="#000"/><g fill="none" stroke="none" stroke-linecap="round" stroke-linejoin="round" stroke-width="0" color="#000"><path d="M190.94 205v-7.5m0-152.49v7.5"/><text fill="#000" font-family="KaTeX_Main" font-size="8" text-anchor="middle" transform="translate(190.94 215.1)"><tspan> 5</tspan></text></g><path fill="none" stroke="#333" stroke-linecap="round" stroke-linejoin="round" stroke-width=".1" d="M227.15 205V45.01" class="gridline" color="#000"/><g fill="none" stroke="none" stroke-linecap="round" stroke-linejoin="round" stroke-width="0" color="#000"><path d="M227.15 205v-7.5m0-152.49v7.5"/><text fill="#000" font-family="KaTeX_Main" font-size="8" text-anchor="middle" transform="translate(227.15 215.1)"><tspan> 6</tspan></text></g><path fill="none" stroke="#333" stroke-linecap="round" stroke-linejoin="round" stroke-width=".1" d="M263.36 205V45.01" class="gridline" color="#000"/><g fill="none" stroke="none" stroke-linecap="round" stroke-linejoin="round" stroke-width="0" color="#000"><path d="M263.36 205v-7.5m0-152.49v7.5"/><text fill="#000" font-family="KaTeX_Main" font-size="8" text-anchor="middle" transform="translate(263.36 215.1)"><tspan> 7</tspan></text></g><path fill="none" stroke="#333" stroke-linecap="round" stroke-linejoin="round" stroke-width=".1" d="M299.57 205V45.01" class="gridline" color="#000"/><g fill="none" stroke="none" stroke-linecap="round" stroke-linejoin="round" stroke-width="0" color="#000"><path d="M299.57 205v-7.5m0-152.49v7.5"/><text fill="#000" font-family="KaTeX_Main" font-size="8" text-anchor="middle" transform="translate(299.57 215.1)"><tspan> 8</tspan></text></g><path fill="none" stroke="#333" stroke-linecap="round" stroke-linejoin="round" stroke-width=".1" d="M335.78 205V45.01" class="gridline" color="#000"/><g fill="none" stroke="none" stroke-linecap="round" stroke-linejoin="round" stroke-width="0" color="#000"><path d="M335.78 205v-7.5m0-152.49v7.5"/><text fill="#000" font-family="KaTeX_Main" font-size="8" text-anchor="middle" transform="translate(335.78 215.1)"><tspan> 9</tspan></text></g><path fill="none" stroke="#333" stroke-linecap="round" stroke-linejoin="round" stroke-width=".1" d="M371.99 205V45.01" class="gridline" color="#000"/><g fill="none" stroke="none" stroke-linecap="round" stroke-linejoin="round" stroke-width="0" color="#000"><path d="M371.99 205v-7.5m0-152.49v7.5"/><text fill="#000" font-family="KaTeX_Main" font-size="8" text-anchor="middle" transform="translate(371.99 215.1)"><tspan> 10</tspan></text></g><g fill="none" stroke="none" stroke-linecap="round" stroke-linejoin="round" stroke-width="0" color="#000"><path d="M371.99 205h-7.5"/><text fill="#000" font-family="KaTeX_Main" font-size="8" transform="translate(378.99 207.6)"><tspan>0.00</tspan></text></g><g fill="none" stroke="none" stroke-linecap="round" stroke-linejoin="round" stroke-width="0" color="#000"><path d="M371.99 178.33h-7.5"/><text fill="#000" font-family="KaTeX_Main" font-size="8" transform="translate(378.99 180.93)"><tspan>0.20</tspan></text></g><g fill="none" stroke="none" stroke-linecap="round" stroke-linejoin="round" stroke-width="0" color="#000"><path d="M371.99 151.67h-7.5"/><text fill="#000" font-family="KaTeX_Main" font-size="8" transform="translate(378.99 154.27)"><tspan>0.40</tspan></text></g><g fill="none" stroke="none" stroke-linecap="round" stroke-linejoin="round" stroke-width="0" color="#000"><path d="M371.99 125h-7.5"/><text fill="#000" font-family="KaTeX_Main" font-size="8" transform="translate(378.99 127.6)"><tspan>0.60</tspan></text></g><g fill="none" stroke="none" stroke-linecap="round" stroke-linejoin="round" stroke-width="0" color="#000"><path d="M371.99 98.34h-7.5"/><text fill="#000" font-family="KaTeX_Main" font-size="8" transform="translate(378.99 100.94)"><tspan>0.80</tspan></text></g><g fill="none" stroke="none" stroke-linecap="round" stroke-linejoin="round" stroke-width="0" color="#000"><path d="M371.99 71.67h-7.5"/><text fill="#000" font-family="KaTeX_Main" font-size="8" transform="translate(378.99 74.27)"><tspan>1.00</tspan></text></g><g fill="none" stroke="none" stroke-linecap="round" stroke-linejoin="round" stroke-width="0" color="#000"><path d="M371.99 45.01h-7.5"/><text fill="#000" font-family="KaTeX_Main" font-size="8" transform="translate(378.99 47.61)"><tspan>1.20</tspan></text></g><path fill="none" stroke="none" stroke-linecap="round" stroke-linejoin="round" stroke-width="0" d="M28 45.01V205M371.99 45.01H28" color="#000"/><text fill="#000" stroke="none" stroke-linecap="round" stroke-linejoin="round" stroke-width="0" color="#000" font-family="KaTeX_Main" font-size="10" text-anchor="middle" transform="rotate(-90 68.255 56.755)"><tspan font-weight="bold">Rotations</tspan><tspan> / Operation</tspan></text><text fill="#000" stroke="none" stroke-linecap="round" stroke-linejoin="round" stroke-width="0" color="#000" font-family="KaTeX_Main" font-size="10" text-anchor="middle" transform="translate(199.99 238.25)"><tspan>Operations × 10</tspan><tspan dy="-5" font-size="8">5</tspan></text><text fill="#000" stroke="none" stroke-linecap="round" stroke-linejoin="round" color="#000" font-family="KaTeX_Main" font-size="8" transform="translate(99.2 10.11)"><tspan>AVLBottomUp</tspan></text><g fill="none" stroke="currentColor" stroke-linecap="round" stroke-linejoin="round" color="#000"><path stroke="#000" d="M63.7 7.51h29.9M28 71.67h5.43l.36.14.37-.14H46.1l.37 66.93.36-.26.36.13.36-.27.37.27.36-.13.36.13.36-.4.36.53.37-.4.36.27.36-.27.36.27.36-.13h.37l.36-.27.36.53.36-.26h.36l.37-.14.36.27.36-.13h.36l.37-.14.36.27.36-.13H56.97l.36-.14h.36l.36.27h.37l.36-.13H60.23l.36-.14.36.27.36-.13.36-.14.37.27.36-.13h.72l.37-.14.36.27.36-.13.36-66.67H69.28l.36.14.36-.14H82.31l.37 66.53.36.27.36-.27.36.27h.36l.37-.27.36.27.36-.13.36-.14.37.27.36-.13.36-.14.36.14.36-.14.37.27.36-.13.36.13.36-.13h.73l.36.26.36-.53.36.4.36-.4.37.27h.36l.36.13.36-.27.36.27.37-.4.36.4.36-.13H94.99l.36-.14.36.4.36-.4.37.4.36-.53.36.4.36-.13.36.26.37-.53.36.27.36-.14.36.4.36-.4.37.14h.36l.36-66.67H105.13l.36.14.36-.14H118.52l.37 66.8.36-.4.36.53.36-.4.36.27.37-.4.36.27.36.13h.36l.36-.13.37-.14.36.14.36.13.36-.13.37-.14.36.27.36-.13.36-.14.36.27.37-.13.36.13.36-.27.36-.13.36.4h.37l.36-.27h.36l.36.14.36.13.37-.13.36-.14.36.27.36-.13.36.13.37-.13h.36l.36.13.36-.27h.37l.36.27h.72l.36-.27h.37l.36.27.36-.13.36-.27.36.27h.73l.36-66.67H140.97l.37.14.36-.14H154.73l.37 66.8.36-.27.36.54.36-.67.36.27h.37l.36.26.36-.4.36.14.36-.27.37.53.36-.4.36.14h.36l.36.13.37-.27.36.27.36-.27.36.4.37-.53.36.27.36-.14.36.27.36-.13.37.13.36-.4.36.53.36-.26.36-.14h.37l.36.27.36-.13.36.26.36-.53.37.67.36-.54h.72l.36.4.37-.4.36.27.36-.4.36.4h.37l.36-.27.36.14.36-.14.36.27h.37l.36-.27.36-66.53H177.18l.37.14.36-.14H190.94l.36 66.8.37-.13.36-.27.36.27.36.13h.37l.36-.13.36-.14.36.14.36.13.37-.4.36.27h.72l.36.13.37-.13.36.13.36-.13H198.55l.36-.14.36.14h.36l.37.13.36-.13h.72l.36-.14.37.14.36.13.36-.13H203.62l.36-.14.36.27.36-.13.36.13.37-.27.36.4.36-.4.36.14.36-.14.37.14.36-.27.36.53.36-.4.37.4.36-.4.36-66.53H213.03l.36.14.36-.14H227.15l.36 66.67.37-.14.36.27.36-.27.36.27.36-.27.37.4.36-.4.36.14h.73l.36-.14.36.4.36-.4.36.4.37-.53.36.4.36-.13.36.13.36-.27.37.14.36-.14.36.4.36-.4h.36l.37.14h.36l.36-.14.36.27.36-.13.37.26.36-.4.36.14.36.13.37-.13.36-.14.36.14h.36l.36.13.37-.13.36-.14.36.27.36-.27h.36l.37.14h.36l.36.13.36-.27h.36l.37.27.36-66.8H248.88l.36.14.36-.14H263.36l.36 66.8.37-.13.36-.14.36.14.36.26.36-.13.37-.4.36.27H267.71l.36.26.36-.26.36-.27.37.4h.36l.36-.27h.72l.37.4.36-.26h.36l.36-.14.36.27.37-.27.36.27.36-.27.36.4.36-.4h.37l.36.14.36.26.36-.4.36.14.37-.14.36.4.36-.26.36-.14h.37l.36.27.36-.27.36.27.36-.4.37.53.36-.4.36.27.36-.27.36.4.37-.4.36-66.53h2.9l.36.14.36-.14H299.57l.36 66.67.37-.27.36.67.36-.4.36.13.36-.27.37.14.36-.14.36.27.36-.4.36.53.37-.4.36.14h.36l.36.13h.36l.37-.27h.36l.36.27h.36l.37-.27.36.14.36-.14.36.14h.36l.37-.14.36.4.36-.26.36-.14.36.14.37.13.36-.13.36-.14h.36l.36.27h.37l.36-.13.36.13.36-.27.36.14.37.13.36-.27.36.14.36-.14.37.14.36.13.36-.13.36.13.36-.13.37-.14.36-66.53h2.53l.36.14.37-.14H335.78l.36 66.67.36.13.37-.27.36.27.36-.27h.36l.37.4.36-.53.36.53.36-.4.36.27.37-.13.36.13.36-.27.36.27.36-.4.37.4.36-.27.36.27.36-.13h.36l.37-.27.36.53.36-.53.36.4.36-.27.37.14h.36l.36.26.36-.4.37.27.36-.27.36.4.36-.4.36.14h.37l.36.13.36-.27.36.27.36-.27.37.4.36-.53.36.13.36.14.36.26.37-.53.36.4.36-.27.36.27.37-.13.36-66.67h2.17l.36.14.36-.14H371.99"/><use xlink:href="#g" transform="matrix(3.75 0 0 3.75 354.25 71.67)"/><use xlink:href="#g" transform="matrix(3.75 0 0 3.75 78.65 7.51)"/></g><text fill="#000" stroke="none" stroke-linecap="round" stroke-linejoin="round" color="#000" font-family="KaTeX_Main" font-size="8" transform="translate(99.2 25.11)"><tspan>AVLTopDown</tspan></text><g fill="none" stroke="currentColor" stroke-linecap="round" stroke-linejoin="round" color="#000"><path stroke="#29C3F6" stroke-dasharray="1.0,2.0" d="M63.7 22.51h29.9M28 71.67h5.43l.36.14.37-.14H46.1l.37 66.93.36-.26.36.13.36-.27.37.27.36-.13.36.13.36-.4.36.53.37-.4.36.27.36-.27.36.27.36-.13h.37l.36-.27.36.53.36-.26h.36l.37-.14.36.27.36-.13h.36l.37-.14.36.27.36-.13H56.97l.36-.14h.36l.36.27h.37l.36-.13H60.23l.36-.14.36.27.36-.13.36-.14.37.27.36-.13h.72l.37-.14.36.27.36-.13.36-66.67H69.28l.36.14.36-.14H82.31l.37 66.53.36.27.36-.27.36.27h.36l.37-.27.36.27.36-.13.36-.14.37.27.36-.13.36-.14.36.14.36-.14.37.27.36-.13.36.13.36-.13h.73l.36.26.36-.53.36.4.36-.4.37.27h.36l.36.13.36-.27.36.27.37-.4.36.4.36-.13H94.99l.36-.14.36.4.36-.4.37.4.36-.53.36.4.36-.13.36.26.37-.53.36.27.36-.14.36.4.36-.4.37.14h.36l.36-66.67H105.13l.36.14.36-.14H118.52l.37 66.8.36-.4.36.53.36-.4.36.27.37-.4.36.27.36.13h.36l.36-.13.37-.14.36.14.36.13.36-.13.37-.14.36.27.36-.13.36-.14.36.27.37-.13.36.13.36-.27.36-.13.36.4h.37l.36-.27h.36l.36.14.36.13.37-.13.36-.14.36.27.36-.13.36.13.37-.13h.36l.36.13.36-.27h.37l.36.27h.72l.36-.27h.37l.36.27.36-.13.36-.27.36.27h.73l.36-66.67H140.97l.37.14.36-.14H154.73l.37 66.8.36-.27.36.54.36-.67.36.27h.37l.36.26.36-.4.36.14.36-.27.37.53.36-.4.36.14h.36l.36.13.37-.27.36.27.36-.27.36.4.37-.53.36.27.36-.14.36.27.36-.13.37.13.36-.4.36.53.36-.26.36-.14h.37l.36.27.36-.13.36.26.36-.53.37.67.36-.54h.72l.36.4.37-.4.36.27.36-.4.36.4h.37l.36-.27.36.14.36-.14.36.27h.37l.36-.27.36-66.53H177.18l.37.14.36-.14H190.94l.36 66.8.37-.13.36-.27.36.27.36.13h.37l.36-.13.36-.14.36.14.36.13.37-.4.36.27h.72l.36.13.37-.13.36.13.36-.13H198.55l.36-.14.36.14h.36l.37.13.36-.13h.72l.36-.14.37.14.36.13.36-.13H203.62l.36-.14.36.27.36-.13.36.13.37-.27.36.4.36-.4.36.14.36-.14.37.14.36-.27.36.53.36-.4.37.4.36-.4.36-66.53H213.03l.36.14.36-.14H227.15l.36 66.67.37-.14.36.27.36-.27.36.27.36-.27.37.4.36-.4.36.14h.73l.36-.14.36.4.36-.4.36.4.37-.53.36.4.36-.13.36.13.36-.27.37.14.36-.14.36.4.36-.4h.36l.37.14h.36l.36-.14.36.27.36-.13.37.26.36-.4.36.14.36.13.37-.13.36-.14.36.14h.36l.36.13.37-.13.36-.14.36.27.36-.27h.36l.37.14h.36l.36.13.36-.27h.36l.37.27.36-66.8H248.88l.36.14.36-.14H263.36l.36 66.8.37-.13.36-.14.36.14.36.26.36-.13.37-.4.36.27H267.71l.36.26.36-.26.36-.27.37.4h.36l.36-.27h.72l.37.4.36-.26h.36l.36-.14.36.27.37-.27.36.27.36-.27.36.4.36-.4h.37l.36.14.36.26.36-.4.36.14.37-.14.36.4.36-.26.36-.14h.37l.36.27.36-.27.36.27.36-.4.37.53.36-.4.36.27.36-.27.36.4.37-.4.36-66.53h2.9l.36.14.36-.14H299.57l.36 66.67.37-.27.36.67.36-.4.36.13.36-.27.37.14.36-.14.36.27.36-.4.36.53.37-.4.36.14h.36l.36.13h.36l.37-.27h.36l.36.27h.36l.37-.27.36.14.36-.14.36.14h.36l.37-.14.36.4.36-.26.36-.14.36.14.37.13.36-.13.36-.14h.36l.36.27h.37l.36-.13.36.13.36-.27.36.14.37.13.36-.27.36.14.36-.14.37.14.36.13.36-.13.36.13.36-.13.37-.14.36-66.53h2.53l.36.14.37-.14H335.78l.36 66.67.36.13.37-.27.36.27.36-.27h.36l.37.4.36-.53.36.53.36-.4.36.27.37-.13.36.13.36-.27.36.27.36-.4.37.4.36-.27.36.27.36-.13h.36l.37-.27.36.53.36-.53.36.4.36-.27.37.14h.36l.36.26.36-.4.37.27.36-.27.36.4.36-.4.36.14h.37l.36.13.36-.27.36.27.36-.27.37.4.36-.53.36.13.36.14.36.26.37-.53.36.4.36-.27.36.27.37-.13.36-66.67h2.17l.36.14.36-.14H371.99"/><use xlink:href="#h" color="#29C3F6" transform="matrix(3.75 0 0 3.75 67.83 71.67)"/><use xlink:href="#h" color="#29C3F6" transform="matrix(3.75 0 0 3.75 78.65 22.51)"/></g><text fill="#000" stroke="none" stroke-linecap="round" stroke-linejoin="round" color="#000" font-family="KaTeX_Main" font-size="8" transform="translate(241.1 10.11)"><tspan>AVLRelaxedBottomUp</tspan></text><g fill="none" stroke="currentColor" stroke-linecap="round" stroke-linejoin="round" color="#000"><path stroke="#D336C8" d="M205.6 7.51h29.9M28 71.67h5.43l.36.14.37-.14H46.1L46.47 205H64.21l.36-133.33H82.31L82.68 205H100.42l.36-133.33H105.13l.36.14.36-.14H118.52l.37 133.33H136.63l.36-133.33H154.73L155.1 205H172.84l.36-133.33H177.18l.37.14.36-.14H190.94L191.3 205H209.05l.36-133.33H227.15l.36 133.33H245.26l.36-133.33H248.88l.36.14.36-.14H263.36l.36 133.33H281.47l.36-133.33H299.57l.36 133.33H317.68l.36-133.33h2.53l.36.14.37-.14H335.78l.36 133.33H353.89l.36-133.33H371.99"/><use xlink:href="#i" color="#D336C8" transform="matrix(3.75 0 0 3.75 125.4 205)"/><use xlink:href="#i" color="#D336C8" transform="matrix(3.75 0 0 3.75 220.55 7.51)"/></g><text fill="#000" stroke="none" stroke-linecap="round" stroke-linejoin="round" color="#000" font-family="KaTeX_Main" font-size="8" transform="translate(241.1 25.11)"><tspan>AVLRelaxedTopDown</tspan></text><g fill="none" stroke="currentColor" stroke-linecap="round" stroke-linejoin="round" color="#000"><path stroke="#3B75EA" stroke-dasharray="4.5,2.0,0.5,2.0,0.5,2.0" d="M205.6 22.51h29.9M28 71.81l.36-.27.36.13.37.14.36-.27.36-.13.36.4.36.13.37-.13.36-.4.36.4.36-.14h.37l.36-.13.36.4.36-.4.36.27.37-.4.36.53.36-.4.36.13.36.14.37-.14h.36l.36.14.36-.27.36.13.37-.26.36.26.36.14h.36l.36-.27.37.4.36-.4.36.27.36-.27.37.13.36-.13h.36l.36.13.36.14.37-.27.36.13h1.08l.37.14.36-.27.36.27.36-.27.36.4.37 133.06H64.21l.36-133.19.36-.4.37.4.36-.27.36.27.36-.14h.36l.37-.13.36.27.36-.53.36.53.36-.14h.37l.36.27.36-.27.36.14.37-.14.36-.26.36.26.36.14.36-.14H72.9l.36.14.36-.4.37.4h.36l.36-.27.36.13h.36l.37.14.36-.14.36-.26.36.4h.36l.37-.27.36.13H79.06l.36-.13.36.13.36.27.36-.53.37.53.36-.4.36.4.36-.4.36.13.37 133.33H100.42l.36-133.59.36.53.37-.53.36.4.36-.27.36.27.36.13.37-.4h.36l.36.4.36-.4.36.13.37-.13.36.53.36-.4.36-.13h.36l.37.4.36-.27.36-.13h.36l.37.27.36-.14.36-.13.36-.13.36.53.37-.4.36.27.36-.27.36.4.36-.27.37-.13.36-.13.36.53h.36l.36-.66.37.39h.36l.36.27.36-.53.36.4.37-.14h.36l.36-.13.36.13.37.14h.36l.36-.4.36.53.36-.27.37 133.33H136.63l.36-133.19.36-.14.36-.26.37.26.36.14.36-.27.36.27.37-.27.36.13.36.14.36-.27.36.27h.37l.36-.27h.36l.36.13.36.14.37-.14.36-.26.36.26.36.27.36-.4.37.13h1.08l.36-.13.37.53.36-.4h.36l.36-.13.37.4.36-.4.36.27.36-.53.36.53.37-.14h.36l.36-.13.36.4.36-.66.37.79.36-.53.36.27.36-.14h.36l.37-.13.36.27.36-.14.36.14.37 133.19H172.84l.36-133.46h.36l.36.27.37-.14h.36l.36.14.36-.4.36.4.37-.27.36.27.36-.14h.73l.36.14.36-.27.36.27.36-.27h.37l.36.13h.36l.36.27.36-.27h.37l.36-.13.36.13h.36l.36.14.37-.27.36.13h.36l.36.14.36-.27.37.13.36-.39.36.79.36-.53.37.27h.36l.36-.27h.36l.36.13.37.27.36-.27.36-.13.36.27h.36l.37-.14.36-.13.36.13h.36L191.3 205H209.05l.36-133.46h.36l.36.27h.37l.36-.27h.36l.36.13.36.14.37-.14.36-.13.36.13.36.14h.73l.36-.4.36.4.36-.27.37.13h.36l.36.27.36-.53.36.4.37-.4.36.53.36-.4.36.13.36.14.37.13.36-.27h.36l.36-.26.36.4.37-.14.36-.26.36.4.36.13.36-.4.37.27.36-.53.36.66.36-.27.37-.13h.36l.36.4.36-.27h.36l.37-.26.36.4h.36l.36-.53.36 133.72H245.26l.36-133.33.36.27.36-.4.37.13.36-.26.36.66.36-.26.36-.4.37.4h.72l.36-.27.36.13.37-.13.36.27.36-.53.36.53h.36l.37-.14.36.27.36-.4h.36l.37.27.36-.27h.36l.36.27.36.13.37-.27.36-.13h.36l.36.4.36-.4.37-.13.36.4.36-.14h.36l.36-.13.37.13.36.14.36-.27.36.13.36.14h.37l.36-.14.36-.13h.36l.37.27.36-.27.36.13.36.27.36 133.06H281.47l.36-133.46.36.4.36-.53.36.53.37-.53.36.26.36-.26.36.53.37-.27.36.14.36-.4.36.4h.36l.37-.14h.72l.36-.13.36.27.37-.27.36.4.36-.4.36.13h.36l.37.14.36-.14.36.14.36-.27.36.13.37-.13.36.13h.72l.37-.13.36.4.36-.4.36.27.36-.4.37.26.36-.13.36.27.36.13.36-.27h.37l.36-.13.36.4.36-.53.36.4.37-.4.36.26h.36l.36 133.33H317.68l.36-133.33h.36l.36.14.36-.4.37.53.36-.13.36-.14H321.66l.36-.26.36.53.37-.13.36-.4.36.4.36-.14.36.14.37-.14.36-.39.36.39.36.14.36-.14H327.09l.36.14.36-.4.37.4h.36l.36-.53.36.39h.36l.37.4.36-.53.36.13.36-.13.37.4.36-.4.36.27.36-.27.36.27.37-.27.36.13.36-.13.36.4.36-.66.37.79.36-.53.36.4.36 133.06H353.89l.36-133.33.36-.13.36-.26.36.66.37-.13.36-.14.36-.13.36.27h.36l.37-.27h.36l.36.4.36-.4h.73l.36.4.36-.27.36-.13h.37l.36.4.36-.27h.36l.36-.13.37.27.36-.14.36-.13.36.4.36-.27h.37l.36-.13.36.13.36.14h.36l.37-.4.36.26.36-.13.36.27.36-.27.37.13h.36l.36.4.36-.53.37.13h1.08l.36-.39.37.66.36-.13.36-.27"/><use xlink:href="#a" color="#3B75EA" transform="matrix(3.75 0 0 3.75 182.98 71.54)"/><use xlink:href="#a" color="#3B75EA" transform="matrix(3.75 0 0 3.75 220.55 22.51)"/></g><path fill="none" stroke="none" stroke-linecap="round" stroke-linejoin="round" stroke-width="0" d="M28 45.01V205M371.99 45.01H28" color="#000"/></svg>