<svg xmlns="http://www.w3.org/2000/svg" xmlns:xlink="http://www.w3.org/1999/xlink" viewBox="0 0 400 250"><path fill="none" d="M0 0h400v250H0z"/><defs><path id="g" stroke="currentColor" stroke-width=".267" d="M-1 0h2M0-1v2"/><path id="h" stroke="currentColor" stroke-width=".267" d="m-1-1 2 2m0-2-2 2"/><path id="d" stroke="currentColor" stroke-width=".267" d="M-1-1h2v2h-2z"/><path id="i" fill="currentColor" stroke="currentColor" stroke-width=".267" d="M-1-1h2v2h-2z"/><path id="b" stroke="currentColor" stroke-width=".267" d="m0-1.33-1.33 2h2.66z"/><path id="f" stroke="currentColor" stroke-width=".267" d="M0 1.33 1.265.411.782-1.067l-1.564-.009-.483 1.487z"/><use xlink:href="#b" id="c" stroke="currentColor" transform="rotate(180)"/><use xlink:href="#d" id="e" stroke="currentColor" transform="rotate(45)"/><circle id="a" cx="0" cy="0" r="1" stroke="currentColor" stroke-width=".267"/></defs><path fill="none" stroke="#333" stroke-linecap="round" stroke-linejoin="round" stroke-width=".1" d="M46.1 205V45.01" class="gridline" color="#000"/><g fill="none" stroke="none" stroke-linecap="round" stroke-linejoin="round" stroke-width="0" color="#000"><path d="M46.1 205v-7.5m0-152.49v7.5"/><text fill="#000" font-family="KaTeX_Main" font-size="8" text-anchor="middle" transform="translate(46.1 215.1)"><tspan> 1</tspan></text></g><path fill="none" stroke="#333" stroke-linecap="round" stroke-linejoin="round" stroke-width=".1" d="M82.31 205V45.01" class="gridline" color="#000"/><g fill="none" stroke="none" stroke-linecap="round" stroke-linejoin="round" stroke-width="0" color="#000"><path d="M82.31 205v-7.5m0-152.49v7.5"/><text fill="#000" font-family="KaTeX_Main" font-size="8" text-anchor="middle" transform="translate(82.31 215.1)"><tspan> 2</tspan></text></g><path fill="none" stroke="#333" stroke-linecap="round" stroke-linejoin="round" stroke-width=".1" d="M118.52 205V45.01" class="gridline" color="#000"/><g fill="none" stroke="none" stroke-linecap="round" stroke-linejoin="round" stroke-width="0" color="#000"><path d="M118.52 205v-7.5m0-152.49v7.5"/><text fill="#000" font-family="KaTeX_Main" font-size="8" text-anchor="middle" transform="translate(118.52 215.1)"><tspan> 3</tspan></text></g><path fill="none" stroke="#333" stroke-linecap="round" stroke-linejoin="round" stroke-width=".1" d="M154.73 205V45.01" class="gridline" color="#000"/><g fill="none" stroke="none" stroke-linecap="round" stroke-linejoin="round" stroke-width="0" color="#000"><path d="M154.73 205v-7.5m0-152.49v7.5"/><text fill="#000" font-family="KaTeX_Main" font-size="8" text-anchor="middle" transform="translate(154.73 215.1)"><tspan> 4</tspan></text></g><path fill="none" stroke="#333" stroke-linecap="round" stroke-linejoin="round" stroke-width=".1" d="M190.94 205V45.01" class="gridline" color="#000"/><g fill="none" stroke="none" stroke-linecap="round" stroke-linejoin="round" stroke-width="0" color="#000"><path d="M190.94 205v-7.5m0-152.49v7.5"/><text fill="#000" font-family="KaTeX_Main" font-size="8" text-anchor="middle" transform="translate(190.94 215.1)"><tspan> 5</tspan></text></g><path fill="none" stroke="#333" stroke-linecap="round" stroke-linejoin="round" stroke-width=".1" d="M227.15 205V45.01" class="gridline" color="#000"/><g fill="none" stroke="none" stroke-linecap="round" stroke-linejoin="round" stroke-width="0" color="#000"><path d="M227.15 205v-7.5m0-152.49v7.5"/><text fill="#000" font-family="KaTeX_Main" font-size="8" text-anchor="middle" transform="translate(227.15 215.1)"><tspan> 6</tspan></text></g><path fill="none" stroke="#333" stroke-linecap="round" stroke-linejoin="round" stroke-width=".1" d="M263.36 205V45.01" class="gridline" color="#000"/><g fill="none" stroke="none" stroke-linecap="round" stroke-linejoin="round" stroke-width="0" color="#000"><path d="M263.36 205v-7.5m0-152.49v7.5"/><text fill="#000" font-family="KaTeX_Main" font-size="8" text-anchor="middle" transform="translate(263.36 215.1)"><tspan> 7</tspan></text></g><path fill="none" stroke="#333" stroke-linecap="round" stroke-linejoin="round" stroke-width=".1" d="M299.57 205V45.01" class="gridline" color="#000"/><g fill="none" stroke="none" stroke-linecap="round" stroke-linejoin="round" stroke-width="0" color="#000"><path d="M299.57 205v-7.5m0-152.49v7.5"/><text fill="#000" font-family="KaTeX_Main" font-size="8" text-anchor="middle" transform="translate(299.57 215.1)"><tspan> 8</tspan></text></g><path fill="none" stroke="#333" stroke-linecap="round" stroke-linejoin="round" stroke-width=".1" d="M335.78 205V45.01" class="gridline" color="#000"/><g fill="none" stroke="none" stroke-linecap="round" stroke-linejoin="round" stroke-width="0" color="#000"><path d="M335.78 205v-7.5m0-152.49v7.5"/><text fill="#000" font-family="KaTeX_Main" font-size="8" text-anchor="middle" transform="translate(335.78 215.1)"><tspan> 9</tspan></text></g><path fill="none" stroke="#333" stroke-linecap="round" stroke-linejoin="round" stroke-width=".1" d="M371.99 205V45.01" class="gridline" color="#000"/><g fill="none" stroke="none" stroke-linecap="round" stroke-linejoin="round" stroke-width="0" color="#000"><path d="M371.99 205v-7.5m0-152.49v7.5"/><text fill="#000" font-family="KaTeX_Main" font-size="8" text-anchor="middle" transform="translate(371.99 215.1)"><tspan> 10</tspan></text></g><g fill="none" stroke="none" stroke-linecap="round" stroke-linejoin="round" stroke-width="0" color="#000"><path d="M371.99 205h-7.5"/><text fill="#000" font-family="KaTeX_Main" font-size="8" transform="translate(378.99 207.6)"><tspan>0.89</tspan></text></g><g fill="none" stroke="none" stroke-linecap="round" stroke-linejoin="round" stroke-width="0" color="#000"><path d="M371.99 178.33h-7.5"/><text fill="#000" font-family="KaTeX_Main" font-size="8" transform="translate(378.99 180.93)"><tspan>0.89</tspan></text></g><g fill="none" stroke="none" stroke-linecap="round" stroke-linejoin="round" stroke-width="0" color="#000"><path d="M371.99 151.67h-7.5"/><text fill="#000" font-family="KaTeX_Main" font-size="8" transform="translate(378.99 154.27)"><tspan>0.90</tspan></text></g><g fill="none" stroke="none" stroke-linecap="round" stroke-linejoin="round" stroke-width="0" color="#000"><path d="M371.99 125h-7.5"/><text fill="#000" font-family="KaTeX_Main" font-size="8" transform="translate(378.99 127.6)"><tspan>0.90</tspan></text></g><g fill="none" stroke="none" stroke-linecap="round" stroke-linejoin="round" stroke-width="0" color="#000"><path d="M371.99 98.34h-7.5"/><text fill="#000" font-family="KaTeX_Main" font-size="8" transform="translate(378.99 100.94)"><tspan>0.91</tspan></text></g><g fill="none" stroke="none" stroke-linecap="round" stroke-linejoin="round" stroke-width="0" color="#000"><path d="M371.99 71.67h-7.5"/><text fill="#000" font-family="KaTeX_Main" font-size="8" transform="translate(378.99 74.27)"><tspan>0.91</tspan></text></g><g fill="none" stroke="none" stroke-linecap="round" stroke-linejoin="round" stroke-width="0" color="#000"><path d="M371.99 45.01h-7.5"/><text fill="#000" font-family="KaTeX_Main" font-size="8" transform="translate(378.99 47.61)"><tspan>0.92</tspan></text></g><path fill="none" stroke="none" stroke-linecap="round" stroke-linejoin="round" stroke-width="0" d="M28 45.01V205M371.99 45.01H28" color="#000"/><text fill="#000" stroke="none" stroke-linecap="round" stroke-linejoin="round" stroke-width="0" color="#000" font-family="KaTeX_Main" font-size="10" text-anchor="middle" transform="rotate(-90 68.255 56.755)"><tspan font-weight="bold">AveragePathLength </tspan><tspan> / log</tspan><tspan dy="3" font-size="8">2</tspan><tspan dy="-3">(Size)</tspan></text><text fill="#000" stroke="none" stroke-linecap="round" stroke-linejoin="round" stroke-width="0" color="#000" font-family="KaTeX_Main" font-size="10" text-anchor="middle" transform="translate(199.99 238.25)"><tspan>Operations × 10</tspan><tspan dy="-5" font-size="8">5</tspan></text><text fill="#000" stroke="none" stroke-linecap="round" stroke-linejoin="round" color="#000" font-family="KaTeX_Main" font-size="8" transform="translate(110.4 10.11)"><tspan>AVLBottomUp</tspan></text><g fill="none" stroke="currentColor" stroke-linecap="round" stroke-linejoin="round" color="#000"><path stroke="#000" d="M74.9 7.51h29.9M28 181.07l.36 1.78.36-3.63.37.35.36-3.06.36-3.26.36-1.79.36-2.69.37-1.13.36-2.79.36-5.07.36-4.58.37-5.04.36-2.07.36 3.57.36-1.64.36-4.66.37-4.44.36-4.2.36 13.75.36-1.18.36-2.87.37-.99.36-2.91.36-.87.36-1.42.36-4.89.37-2.55.36-2.97.36-1.22.36-2.9.36-2.51.37-3.37.36.96.36-2.13.36 12.12.37-1.8.36-1.05.36 1.5.36-2.07.36 15.92.37-.88.36-1.07.36 1.28.36-.06.36-1.91.37-.29.36-.57.36 3.29.36 1.16.36-1.22h.37l.36-.88.36-.96.36 5.17.37-.54.36-.81.36.68.36-.51.36-.2.37-1.63.36-1.95.36-2.76.36 8.21.36.43.37-1.23.36.25.36-.71.36-1.84.36-1.76.37-3.39.36-2.04.36-2.81.36-4.67.37 16.98.36-1.04.36-.97.36.09.36 3.36.37.08.36-.61.36-1.39.36.89.36-20.74.37.14.36.03.36-.67.36-1.1.36 21.59.37-.73.36 12.22.36-.52.36-1.91.36 6.11.37-.5.36 4.64.36 1.58.36-.79.37 2.17.36-1.38.36.74.36-2.87.36-1.77.37 3.27.36-2.31.36 1.99.36-1.82.36-1.93.37-4.08.36-3.86.36-.9.36-7.62.36-1.96.37-1.86.36 17.37.36-2L70 152l.37-3.74.36-1.44.36-3.51.36-1.83.36-2.49.37 7.74.36-3.11.36-2.95.36-.93.36-2.78.37-1.96.36.37.36-2.93.36 11.67.36-2.08.37-3.35.36.12.36 1.94.36-2.57.36-1.57.37-3.1.36-4.91.36-1.96.36-.67.37-2.71.36-.7.36-3.43.36-4.07.36-3.53.37-4 .36 2.08.36-4.47.36-2.74.36-1.6.37-3.24.36-1.92.36 7.26.36-1.48.36-2.6.37-3.21.36-3.46.36 53.98.36-.09.37.34.36-.86.36-.86.36 2.64.36.11.37-.26.36 2.54.36-.84.36-1.91.36-1.12.37-2.42.36 3.14.36-.42.36-.67.36-1.85.37-3.15.36-.45.36-2.56.36 11.05.36-.34.37-.96.36-2.49.36-2.2.36-3.35.37 15.78.36-.74.36 1.05.36-2.24.36-3.85.37 2.93.36-2.11.36-2.12.36-4.19.36-5.02.37 3.86.36-2.84.36-5.79.36-7.12.36-8.27.37 73.44.36 2.29.36-5.2.36-.86.37 1.92.36-4.15.36-16.53.36 1.44.36-.91.37-3.13.36-1.76.36 3.13.36-.58.36-.6.37 3.44.36-5.36.36-4.43.36-1.76.36.64.37-4.39.36-1.28.36-4.75.36-1.16.37-3.63.36-4.14.36-.84.36-3.54.36-4.75.37-3.8.36 3.02.36 2.01.36 14.35.36 2.6.37.45.36-2.02.36-1.85.36.29.36-2.74.37 2.64.36-1.87.36-2.16.36-2.14.36 1.47.37 5.47.36 3.78.36.99.36-2.13.37.53.36-1.7.36.24.36-2.21.36-3.16.37.69.36.87.36.58.36-.53h.36l.37 1.85.36-.87.36-.9.36-.98.36-.81.37-.69.36-.92.36-2.29.36 3.53.37-.37.36-1.51.36-2.66.36 1.15.36-1.67.37-17.9.36.79.36 1.57.36-.14.36-.26.37-1.74.36-.77.36-2.25.36 3.23.36-2.13.37 21.53.36.57.36-.82.36 17.46.36 1.34.37 5.82.36 1.64.36 2.07.36.35.37-.51.36-1.06.36-1.97.36 2.76.36-2.3.37-.87.36-4.14.36-5.39.36 4 .36-.12.37-.79.36-9.83.36-2.47.36.74.36-.69.37 2.26.36-2.44.36-1.23.36-2.67.37 4.03.36.71.36-1.86.36 1.77.36-1.8.37-5.85.36-3.5.36-.38.36-4.16.36-.44.37-3.95.36-5.68.36 1.29.36 1.4.36-2.57.37-1.37.36-3.44.36-2.6.36 13.31.36-1.03.37 1.53.36 2.07.36-2.5.36-2.83.37-9.73.36-1.81.36 1.25.36 26.46.36.94.37.8.36 1.87.36-.28.36.32.36-.04.37-1.26.36-2.28.36 10.66.36 1.36.36-1.61.37-1.55.36 2.01.36-1.83.36-2.13.37-.29.36 2.29.36-.07.36-.82.36-.21.37-.97.36-1.04.36.72.36-.86.36.56.37-.67.36-1.45.36-1.09.36-2.19.36-4.04.37-2.57.36-4.29.36 5.05.36-2.51.37-4.15.36-.06.36 10.21.36 2.41.36 1.89.37 1.31.36.5.36 4.57.36.13.36 1.08.37-.61.36 9.52.36.51.36 3.8.36.27.37 1.6.36-.42.36-2 .36-3.09.36 3.7.37.35.36-.76.36-1.82.36 15.24.37 4.03.36-.68.36.46.36-1.67.36 1.74.37-1.92.36 1.15.36-3.82.36-6.74.36-6.73.37-7.41.36 1.22.36-6.91.36-6.52.36-5.37.37-3.82.36-1.87.36-5.3.36-4.36.37 39.68.36-5.26.36-2.96.36-4.83.36-1.98.37-1.7.36-4.34.36-7.31.36-3.57.36 1.22.37-3.09.36-3.02.36-1 .36-3.51.36 27.86.37 1.23.36-2.15.36-2.39.36-2.23.36.95.37-2.94.36 17.34.36-2.13.36-1.39.37 1.19.36-2.15.36-2.63.36-6.13.36-2.31.37 1.07.36-2.66.36 3.55.36-.66.36 3.89.37-1.67.36-1.5.36 1.54.36-1.07.36-.55.37-1.6.36 5.83.36-.9.36 2.38.37-.83.36-1.32.36-1.03.36-2.57.36-2.87.37-2.05.36 5.19.36-1.53.36-.47.36-2.65.37-3.01.36-2.83.36.99.36-3.36.36-3.19.37-4.32.36 2.95.36-2.16.36.56.37-2.45.36-1.86.36-3.08.36-4.06.36-4.98.37 7.07.36-3.48.36 1.37.36-4.14.36 28.7.37-.07.36-1.6.36-.4.36-2.77.36 1.75.37-2.49.36-3.65.36 1.18.36-3.04.36-1.34.37 21.85.36 1.84.36.41.36.15.37-.78.36 8.48.36-4.76.36 5.97.36-2.68.37-2.55.36-.51.36-2.83.36-15.35.36-.24.37 1.48.36-1.16.36-1.34.36 8.77.36 3 .37-.25.36-1.41.36 4.3.36 1.74.37-.03.36-4.48.36.45.36-3.04.36-3.55.37-3.12.36-.48.36-3.01.36-1.3.36-2.11.37-1.17.36 5.66.36-2.71.36-4.15.36-5.85.37-5.76.36 1.98.36-5.13.36-3.74.36-5.31.37-2.24.36-3.68.36-4.4.36-.5.37-4.54.36 6.46.36-2.9.36-3.75.36-4.92.37 1.46.36-3.8.36-3.9.36-4.07.36-2.51.37-1.26.36-1.35.36 5.57.36-1.35.36 64.15.37.9.36.96.36 1.46.36-.09.37-.52.36 1.31.36-.03.36-1.5.36-.66.37-1.99.36-2.8.36-2.65.36.98.36 1.9.37-.04.36-1.87.36-2.81.36-1.55.36-3.29.37-1.84.36 6.24.36-.55.36-1.07.36-2.46.37-3.57.36 2.56.36-3.52.36-2.13.37-3.99.36-5.58.36 7.34.36-3.49.36 1.53.37-4.3.36-2.81.36-5.67.36-6.53.36-6.92.37 81.73.36-1.97.36-3.04.36-1.12.36 10.66.37-1.66.36-1.54.36-1.65.36-.44.37-2.41.36-5.63.36-3.74.36.56.36-6.93.37-3.95.36-5.45.36-2.87.36 2.99.36-4.24.37-4.87.36-4.34.36-4.73.36-7.64.36-2.27.37-2.12.36-3.76.36-3.56.36-2.33.37-3.97.36.31.36-2.46.36 4.1.36 11.19.37 16.07.36-3.77.36 1.87.36-1.54.36-2.15.37-1.18.36-2.3.36-1.69.36-1.87.36.36.37-1.32.36 31.02.36 3.17.36.21.36-1.14.37-2.33.36 1.92.36-.61.36-1.3.37-1.15.36-1.72.36 1.09.36-3.47.36-.63.37 2.23.36-.41.36-1.57.36-.46.36-1.77.37-2.6.36-1.94.36-.17.36 7.03.36-1.37.37-.58.36-2.62.36-2.44.36-1.59.37-2.88.36-4.86.36 25.14.36-.07.36-.91.37-.53.36-2.46.36-1.64.36-3.23.36-2.23.37-3.19.36-3.63.36-3.88.36-5.89.36-2.15.37-5.45.36-5.29.36 22.62.36-4.33.36 2.85.37-3.7.36-1.94.36 44.57.36.27.37-1.2.36-2.05.36-.14.36 1.99.36-2.76.37-2.15.36 6.23.36-2.57.36-1.02.36 10.41.37 1.47.36.42.36-2.32.36-5.63.36.71.37 3.6.36-3.54.36-.49.36.9.37-2.41.36-5.29.36-5.76.36-.99.36-6.11.37-5.53.36-1.65.36.15.36-5.86.36 2.06.37-5.14.36-4.76.36-6.48.36 1.19.36-.18.37-4.14.36 22.93.36 4.3.36-.31.36.47.37-2.52.36-2.27.36-1.06.36-2.3.37.51.36-2.37.36 15.65.36-1.86.36-1.44.37 1.68.36-2.15.36-2.96.36-3.72.36-3.57.37-1.6.36-4.26.36-4.3.36.67.36-4.97.37-1.32.36-3.95.36-4.07.36.87.37.44.36-1.01.36-.12.36 1.49.36-.7.37-1.73.36-.98.36-1.96.36 5.15.36-1.2.37-.78.36-.94.36 1.08.36.56.36-.26.37 1.03.36-.24.36 3.43.36-1.22.37 9.53.36 1.49.36.32.36.03.36-.48.37-2.01.36-2.34.36-.36.36-1.97.36 6.51.37.33.36 12.25.36.35.36 4.38.36.84.37-.64.36-1.56.36-1.1.36-2.68.36 1.88.37-2.35.36 4.33.36-.01.36-1.55.37-1.03.36 1.22.36-1.93.36-.91.36-3.43.37-.07.36-3.03.36 2.73.36-3.84.36-2.05.37-6.23.36-8.12.36 1.89.36-6.24.36-4.01.37-6.69.36-2.95.36 1.12.36-5.04.37-2.01.36-6.04.36-4.51.36 39.37.36-3.94.37-1.7.36-4.17.36-.01.36-1.51.36-3.63.37-1.02.36-.27.36-2.77.36-1.07.36-2.94.37-5.22.36-2.71.36 50.59.36 2.2.36 2.55.37.04.36-1.58.36-.44.36-2.23.37.94.36.92.36-2.02.36.72.36-4.26.37 3.65.36-1.25.36-1.45.36 3.1.36-.44.37 5.28.36-1.31.36-.8.36-.46.36-1.09h.37l.36 2.1.36-.72.36-.75.37-1.89.36-2.66.36-2.37.36-1.04.36-1.45.37-.56.36-2.25.36-4.07.36 27.17.36.13.37-1.09.36-.7.36-2.15.36-2.93.36-1.8.37-2.75.36 2.83.36-1.21.36-3.64.36-4.08.37-3.45.36-5.51.36 4.76.36-3.69.37-5.7.36-5.35.36-6.64.36 59.71.36.77.37.53.36-.54.36-2.07.36-1.23.36 3.01.37-1.01.36-2.66.36-3.1.36 7.72.36-.42.37-.58.36 7.05.36 3.41.36.57.37-.69.36-3.28.36-2.45.36-2.1.36-.39.37-7.51.36-3.56.36-4.03.36-3.99.36-6.03.37-1.4.36-4.78.36-5.28.36-6.12.36 8.14.37-.49.36 1.74.36-1.62.36-3.39.37 11.64.36.47.36 1.13.36-.22.36-4.16.37 1.4.36-3.37.36 3.12.36-2.63.36-.25.37-1.65.36-2.75.36-2.48.36-.72.36-2.38.37 13.26.36-1.15.36-5.77.36-1.45.36-2.36.37 1.46.36-1.34.36.38.36-1.66.37-2.15.36-4.05.36-4.33.36-.49.36-3.45.37-4.18.36-4.47.36-2.26"/><use xlink:href="#g" transform="matrix(3.75 0 0 3.75 354.25 175.88)"/><use xlink:href="#g" transform="matrix(3.75 0 0 3.75 89.85 7.51)"/></g><text fill="#000" stroke="none" stroke-linecap="round" stroke-linejoin="round" color="#000" font-family="KaTeX_Main" font-size="8" transform="translate(110.4 25.11)"><tspan>AVLTopDown</tspan></text><g fill="none" stroke="currentColor" stroke-linecap="round" stroke-linejoin="round" color="#000"><path stroke="#29C3F6" stroke-dasharray="1.0,2.0" d="M74.9 22.51h29.9M28 181.07l.36 1.78.36-3.63.37.35.36-3.06.36-3.26.36-1.79.36-2.69.37-1.13.36-2.79.36-5.07.36-4.58.37-5.04.36-2.07.36 3.57.36-1.64.36-4.66.37-4.44.36-4.2.36 13.75.36-1.18.36-2.87.37-.99.36-2.91.36-.87.36-1.42.36-4.89.37-2.55.36-2.97.36-1.22.36-2.9.36-2.51.37-3.37.36.96.36-2.13.36 12.12.37-1.8.36-1.05.36 1.5.36-2.07.36 15.92.37-.88.36-1.07.36 1.28.36-.06.36-1.91.37-.29.36-.57.36 3.29.36 1.16.36-1.22h.37l.36-.88.36-.96.36 5.17.37-.54.36-.81.36.68.36-.51.36-.2.37-1.63.36-1.95.36-2.76.36 8.21.36.43.37-1.23.36.25.36-.71.36-1.84.36-1.76.37-3.39.36-2.04.36-2.81.36-4.67.37 16.98.36-1.04.36-.97.36.09.36 3.36.37.08.36-.61.36-1.39.36.89.36-20.74.37.14.36.03.36-.67.36-1.1.36 21.59.37-.73.36 12.22.36-.52.36-1.91.36 6.11.37-.5.36 4.64.36 1.58.36-.79.37 2.17.36-1.38.36.74.36-2.87.36-1.77.37 3.27.36-2.31.36 1.99.36-1.82.36-1.93.37-4.08.36-3.86.36-.9.36-7.62.36-1.96.37-1.86.36 17.37.36-2L70 152l.37-3.74.36-1.44.36-3.51.36-1.83.36-2.49.37 7.74.36-3.11.36-2.95.36-.93.36-2.78.37-1.96.36.37.36-2.93.36 11.67.36-2.08.37-3.35.36.12.36 1.94.36-2.57.36-1.57.37-3.1.36-4.91.36-1.96.36-.67.37-2.71.36-.7.36-3.43.36-4.07.36-3.53.37-4 .36 2.08.36-4.47.36-2.74.36-1.6.37-3.24.36-1.92.36 7.26.36-1.48.36-2.6.37-3.21.36-3.46.36 53.98.36-.09.37.34.36-.86.36-.86.36 2.64.36.11.37-.26.36 2.54.36-.84.36-1.91.36-1.12.37-2.42.36 3.14.36-.42.36-.67.36-1.85.37-3.15.36-.45.36-2.56.36 11.05.36-.34.37-.96.36-2.49.36-2.2.36-3.35.37 15.78.36-.74.36 1.05.36-2.24.36-3.85.37 2.93.36-2.11.36-2.12.36-4.19.36-5.02.37 3.86.36-2.84.36-5.79.36-7.12.36-8.27.37 73.44.36 2.29.36-5.2.36-.86.37 1.92.36-4.15.36-16.53.36 1.44.36-.91.37-3.13.36-1.76.36 3.13.36-.58.36-.6.37 3.44.36-5.36.36-4.43.36-1.76.36.64.37-4.39.36-1.28.36-4.75.36-1.16.37-3.63.36-4.14.36-.84.36-3.54.36-4.75.37-3.8.36 3.02.36 2.01.36 14.35.36 2.6.37.45.36-2.02.36-1.85.36.29.36-2.74.37 2.64.36-1.87.36-2.16.36-2.14.36 1.47.37 5.47.36 3.78.36.99.36-2.13.37.53.36-1.7.36.24.36-2.21.36-3.16.37.69.36.87.36.58.36-.53h.36l.37 1.85.36-.87.36-.9.36-.98.36-.81.37-.69.36-.92.36-2.29.36 3.53.37-.37.36-1.51.36-2.66.36 1.15.36-1.67.37-17.9.36.79.36 1.57.36-.14.36-.26.37-1.74.36-.77.36-2.25.36 3.23.36-2.13.37 21.53.36.57.36-.82.36 17.46.36 1.34.37 5.82.36 1.64.36 2.07.36.35.37-.51.36-1.06.36-1.97.36 2.76.36-2.3.37-.87.36-4.14.36-5.39.36 4 .36-.12.37-.79.36-9.83.36-2.47.36.74.36-.69.37 2.26.36-2.44.36-1.23.36-2.67.37 4.03.36.71.36-1.86.36 1.77.36-1.8.37-5.85.36-3.5.36-.38.36-4.16.36-.44.37-3.95.36-5.68.36 1.29.36 1.4.36-2.57.37-1.37.36-3.44.36-2.6.36 13.31.36-1.03.37 1.53.36 2.07.36-2.5.36-2.83.37-9.73.36-1.81.36 1.25.36 26.46.36.94.37.8.36 1.87.36-.28.36.32.36-.04.37-1.26.36-2.28.36 10.66.36 1.36.36-1.61.37-1.55.36 2.01.36-1.83.36-2.13.37-.29.36 2.29.36-.07.36-.82.36-.21.37-.97.36-1.04.36.72.36-.86.36.56.37-.67.36-1.45.36-1.09.36-2.19.36-4.04.37-2.57.36-4.29.36 5.05.36-2.51.37-4.15.36-.06.36 10.21.36 2.41.36 1.89.37 1.31.36.5.36 4.57.36.13.36 1.08.37-.61.36 9.52.36.51.36 3.8.36.27.37 1.6.36-.42.36-2 .36-3.09.36 3.7.37.35.36-.76.36-1.82.36 15.24.37 4.03.36-.68.36.46.36-1.67.36 1.74.37-1.92.36 1.15.36-3.82.36-6.74.36-6.73.37-7.41.36 1.22.36-6.91.36-6.52.36-5.37.37-3.82.36-1.87.36-5.3.36-4.36.37 39.68.36-5.26.36-2.96.36-4.83.36-1.98.37-1.7.36-4.34.36-7.31.36-3.57.36 1.22.37-3.09.36-3.02.36-1 .36-3.51.36 27.86.37 1.23.36-2.15.36-2.39.36-2.23.36.95.37-2.94.36 17.34.36-2.13.36-1.39.37 1.19.36-2.15.36-2.63.36-6.13.36-2.31.37 1.07.36-2.66.36 3.55.36-.66.36 3.89.37-1.67.36-1.5.36 1.54.36-1.07.36-.55.37-1.6.36 5.83.36-.9.36 2.38.37-.83.36-1.32.36-1.03.36-2.57.36-2.87.37-2.05.36 5.19.36-1.53.36-.47.36-2.65.37-3.01.36-2.83.36.99.36-3.36.36-3.19.37-4.32.36 2.95.36-2.16.36.56.37-2.45.36-1.86.36-3.08.36-4.06.36-4.98.37 7.07.36-3.48.36 1.37.36-4.14.36 28.7.37-.07.36-1.6.36-.4.36-2.77.36 1.75.37-2.49.36-3.65.36 1.18.36-3.04.36-1.34.37 21.85.36 1.84.36.41.36.15.37-.78.36 8.48.36-4.76.36 5.97.36-2.68.37-2.55.36-.51.36-2.83.36-15.35.36-.24.37 1.48.36-1.16.36-1.34.36 8.77.36 3 .37-.25.36-1.41.36 4.3.36 1.74.37-.03.36-4.48.36.45.36-3.04.36-3.55.37-3.12.36-.48.36-3.01.36-1.3.36-2.11.37-1.17.36 5.66.36-2.71.36-4.15.36-5.85.37-5.76.36 1.98.36-5.13.36-3.74.36-5.31.37-2.24.36-3.68.36-4.4.36-.5.37-4.54.36 6.46.36-2.9.36-3.75.36-4.92.37 1.46.36-3.8.36-3.9.36-4.07.36-2.51.37-1.26.36-1.35.36 5.57.36-1.35.36 64.15.37.9.36.96.36 1.46.36-.09.37-.52.36 1.31.36-.03.36-1.5.36-.66.37-1.99.36-2.8.36-2.65.36.98.36 1.9.37-.04.36-1.87.36-2.81.36-1.55.36-3.29.37-1.84.36 6.24.36-.55.36-1.07.36-2.46.37-3.57.36 2.56.36-3.52.36-2.13.37-3.99.36-5.58.36 7.34.36-3.49.36 1.53.37-4.3.36-2.81.36-5.67.36-6.53.36-6.92.37 81.73.36-1.97.36-3.04.36-1.12.36 10.66.37-1.66.36-1.54.36-1.65.36-.44.37-2.41.36-5.63.36-3.74.36.56.36-6.93.37-3.95.36-5.45.36-2.87.36 2.99.36-4.24.37-4.87.36-4.34.36-4.73.36-7.64.36-2.27.37-2.12.36-3.76.36-3.56.36-2.33.37-3.97.36.31.36-2.46.36 4.1.36 11.19.37 16.07.36-3.77.36 1.87.36-1.54.36-2.15.37-1.18.36-2.3.36-1.69.36-1.87.36.36.37-1.32.36 31.02.36 3.17.36.21.36-1.14.37-2.33.36 1.92.36-.61.36-1.3.37-1.15.36-1.72.36 1.09.36-3.47.36-.63.37 2.23.36-.41.36-1.57.36-.46.36-1.77.37-2.6.36-1.94.36-.17.36 7.03.36-1.37.37-.58.36-2.62.36-2.44.36-1.59.37-2.88.36-4.86.36 25.14.36-.07.36-.91.37-.53.36-2.46.36-1.64.36-3.23.36-2.23.37-3.19.36-3.63.36-3.88.36-5.89.36-2.15.37-5.45.36-5.29.36 22.62.36-4.33.36 2.85.37-3.7.36-1.94.36 44.57.36.27.37-1.2.36-2.05.36-.14.36 1.99.36-2.76.37-2.15.36 6.23.36-2.57.36-1.02.36 10.41.37 1.47.36.42.36-2.32.36-5.63.36.71.37 3.6.36-3.54.36-.49.36.9.37-2.41.36-5.29.36-5.76.36-.99.36-6.11.37-5.53.36-1.65.36.15.36-5.86.36 2.06.37-5.14.36-4.76.36-6.48.36 1.19.36-.18.37-4.14.36 22.93.36 4.3.36-.31.36.47.37-2.52.36-2.27.36-1.06.36-2.3.37.51.36-2.37.36 15.65.36-1.86.36-1.44.37 1.68.36-2.15.36-2.96.36-3.72.36-3.57.37-1.6.36-4.26.36-4.3.36.67.36-4.97.37-1.32.36-3.95.36-4.07.36.87.37.44.36-1.01.36-.12.36 1.49.36-.7.37-1.73.36-.98.36-1.96.36 5.15.36-1.2.37-.78.36-.94.36 1.08.36.56.36-.26.37 1.03.36-.24.36 3.43.36-1.22.37 9.53.36 1.49.36.32.36.03.36-.48.37-2.01.36-2.34.36-.36.36-1.97.36 6.51.37.33.36 12.25.36.35.36 4.38.36.84.37-.64.36-1.56.36-1.1.36-2.68.36 1.88.37-2.35.36 4.33.36-.01.36-1.55.37-1.03.36 1.22.36-1.93.36-.91.36-3.43.37-.07.36-3.03.36 2.73.36-3.84.36-2.05.37-6.23.36-8.12.36 1.89.36-6.24.36-4.01.37-6.69.36-2.95.36 1.12.36-5.04.37-2.01.36-6.04.36-4.51.36 39.37.36-3.94.37-1.7.36-4.17.36-.01.36-1.51.36-3.63.37-1.02.36-.27.36-2.77.36-1.07.36-2.94.37-5.22.36-2.71.36 50.59.36 2.2.36 2.55.37.04.36-1.58.36-.44.36-2.23.37.94.36.92.36-2.02.36.72.36-4.26.37 3.65.36-1.25.36-1.45.36 3.1.36-.44.37 5.28.36-1.31.36-.8.36-.46.36-1.09h.37l.36 2.1.36-.72.36-.75.37-1.89.36-2.66.36-2.37.36-1.04.36-1.45.37-.56.36-2.25.36-4.07.36 27.17.36.13.37-1.09.36-.7.36-2.15.36-2.93.36-1.8.37-2.75.36 2.83.36-1.21.36-3.64.36-4.08.37-3.45.36-5.51.36 4.76.36-3.69.37-5.7.36-5.35.36-6.64.36 59.71.36.77.37.53.36-.54.36-2.07.36-1.23.36 3.01.37-1.01.36-2.66.36-3.1.36 7.72.36-.42.37-.58.36 7.05.36 3.41.36.57.37-.69.36-3.28.36-2.45.36-2.1.36-.39.37-7.51.36-3.56.36-4.03.36-3.99.36-6.03.37-1.4.36-4.78.36-5.28.36-6.12.36 8.14.37-.49.36 1.74.36-1.62.36-3.39.37 11.64.36.47.36 1.13.36-.22.36-4.16.37 1.4.36-3.37.36 3.12.36-2.63.36-.25.37-1.65.36-2.75.36-2.48.36-.72.36-2.38.37 13.26.36-1.15.36-5.77.36-1.45.36-2.36.37 1.46.36-1.34.36.38.36-1.66.37-2.15.36-4.05.36-4.33.36-.49.36-3.45.37-4.18.36-4.47.36-2.26"/><use xlink:href="#h" color="#29C3F6" transform="matrix(3.75 0 0 3.75 67.83 153.04)"/><use xlink:href="#h" color="#29C3F6" transform="matrix(3.75 0 0 3.75 89.85 22.51)"/></g><text fill="#000" stroke="none" stroke-linecap="round" stroke-linejoin="round" color="#000" font-family="KaTeX_Main" font-size="8" transform="translate(241.1 10.11)"><tspan>RedBlackBottomUp</tspan></text><g fill="none" stroke="currentColor" stroke-linecap="round" stroke-linejoin="round" color="#000"><path stroke="#F44336" d="M205.6 7.51h29.9M28 155.09l.36-9.21.36 7.77.37-2.33.36-7.99.36-11.33.36-11.33.36-7.71.37 4.79.36-10.36.36-6.77.36-8.5.37 26.14.36-8.59.36-3.79.36 1.97.36-7.81.37-4.16.36-7.82.36 63.75.36-3.11.36-6.85.37 2.88.36-5.41.36-4.41.36 21.28.36-5.71.37-3.7.36-5.02.36 2.53.36-5.28.36-2.36.37-7.68.36-6.87.36-5.28.36-7.34.37 1.1.36-4.81.36-6.96.36 14.89.36-5.8.37-4.42.36-6.48.36 1.17.36-3.61.36-5.99.37 44.88.36-5.71.36-3.58.36.79.36-4.98.37-4.67.36.14.36 15.4.36 1.74.37-.24.36.73.36 1.51.36-3.93.36-.56.37 3.42.36.21.36 2.14.36-3.87.36-.36.37.84.36-1.71.36 4.21.36-.18.36-3.87.37 5.45.36-.19.36-.14.36.11.37-2.4.36 2.96.36-.71.36-1.12.36 4.61.37 1.6.36.28.36-.85.36 5.11.36-9.03.37 1.4.36 7.68.36 2.37.36-2.57.36 6.26.37-.25.36 3.33.36.58.36 1.38.36 2.77.37 5.79.36-1.48.36-13.72.36 6.04.37-1.86.36 1.58.36 2.56.36-2.5.36-.89.37 2.03.36.55.36-15.89.36 2.16.36 2 .37-1.66.36-1.57.36 1.36.36 2.64.36-.82.37 1.42.36-.2.36-5.07.36-4.15.37-1.2.36 8.36.36-3.54.36-1.08.36-3.61.37-20.65.36-1.78.36-.41.36 7.26.36-2.11.37-.17.36-2.33.36-4.43.36-4.47.36-2.91.37 3.7.36-3.88.36-2 .36-4.61.36 18.4.37-4.17.36-.76.36 2.28.36-3.4.37-1.18.36-4.01.36-9.48.36-2.65.36-.26.37 3.1.36-2.41.36-.31.36-2.61.36 16.58.37 1.33.36.55.36-.18.36 3.06.36 1.88.37 4.12.36 1.13.36-.46.36.6.37.76.36 3.52.36 2.51.36.81.36-13.46.37 2.01.36-.24.36.21.36.37.36.6.37.32.36-5.85.36-.83.36 1.43.36-2.45.37 4.76.36-2.92.36 23.51.36-2.05.36 7.42.37-.37.36-1.99.36-.47.36-30.69.37.84.36 1.64.36 5.81.36-.5.36 9.01.37 4.08.36 3.08.36 1.22.36-12.14.36 13.62.37 4.32.36 5.33.36 4.42.36.01.36-6.2.37-1.39.36 29.35.36-2.11.36-2.08.37 1.33.36-.98.36-3.17.36-1.07.36-3.4.37-13.42.36 1.17.36-1.88.36-4.83.36-5.13.37-1.77.36 5.39.36-4.63.36-.6.36-4.76.37 3.54.36 1.05.36-3.74.36 7.1.37-3.22.36-1.14.36-3.97.36-5.25.36-3.4.37-4.84.36 3.05.36-5.16.36-3.37.36 19.29.37-3.78.36-2.8.36-4.07.36 2.74.36-1.05.37-4.53.36 1.99.36-2.26.36-1.53.36-3.28.37 3.96.36-1.49.36-3.23.36 16.34.37-2.57.36-.9.36 3.65.36-2.44.36-1.19.37.92.36.78.36.39.36 4.15.36 9.8.37-.46.36-1.4.36.69.36-1.92.36 5.34.37-.47.36 2.72.36-9.32.36-.39.37-1.12.36 6.51.36-.18.36-1.07.36-2.8.37 1.8.36-.75.36-.54.36-.11.36-.5.37-.73.36-3.46.36 10.22.36-1.7.36 3 .37-1.25.36-3.12.36 1.44.36-.09.36.42.37 3.32.36-3.82.36-24.36.36 10.4.37-.05.36 8.3.36-2.33.36-2.25.36 3.45.37 3.59.36 8.36.36 3.19.36 1.05.36 2.81.37-.82.36.19.36-.78.36 1.4.36-.94.37-3.38.36-3.15.36-2.21.36-2.64.37 7.29.36.6.36-1.91.36-65.27.36.45.37 2.96.36 7.73.36.83.36 4.18.36-.24.37-3.37.36 1.56.36-2.11.36 7.03.36-1.89.37.34.36-2.26.36 8.35.36 1.87.36-1.86.37 6.26.36-.99.36.02.36-2.07.37-3.9.36-2.29.36-3.16.36 2.72.36-1.04.37-3.8.36 17.48.36-3.56.36-1.36.36-3.62.37 4.46.36-1.72.36-3.1.36-52.75.36-1.88.37.73.36 4.09.36-1.06.36-.41.37-2.47.36 5.12.36 4.16.36.99.36.64.37 6.97.36 1.1.36 2.12.36 2.96.36 10.35.37 2.26.36 10.96.36 1.89.36 6.8.36 6.58.37 9.74.36 3.07.36 1.25.36 5.71.37 2.75.36 1.49.36 3.62.36 5.72.36-2.93.37.14.36 3.12.36-.63.36 3.81.36 1.18.37-1.31.36-7.23.36-1.71.36 3.46.36 6.42.37 1.41.36.21.36-.41.36-2.59.36.47.37-2.13.36 1.13.36 2.15.36-1.04.37-.21.36-1.84.36 1.96.36-3.93.36.85.37-4.11.36-6.05.36-5.61.36-.36.36-1.19.37-6.55.36.48.36-4.75.36 1.22.36-2.78.37 19.41.36-.38.36 2.42.36-2.04.37-8.62.36 2.87.36-1.33.36-3.48.36-3.46.37.53.36 6.34.36-2.88.36.18.36-3.61.37 5.65.36.8.36-2.5.36 6.48.36-1.78.37-.28.36-2.5.36-4.74.36-2.06.36-4.25.37 2.39.36-3.8.36-2.82.36-4.35.37 20.14.36-1.95.36-3.34.36 2.76.36-3.43.37-1.87.36-31.03.36-2.41.36-.68.36-2.14.37 3.48.36-.03.36-2.85.36 15.18.36-3.39.37 4.66.36 3.84.36 1.8.36 1.44.37 1.64.36 4.94.36.27.36 4.59.36 4.1.37 4.4.36 5.39.36 2.06.36 1.62.36.21.37 5.3.36 1.46.36 1.29.36-.27.36-.74.37-.55.36 2.81.36-3.62.36 2.62.37-.59.36 1.69.36-2.31.36-1.25.36 4.32.37-3.04.36.29.36.75.36.3.36-1.07.37-2.69.36-2.84.36-3.16.36-5.85.36-6.45.37-2.35.36 20.84.36-4.43.36-2.43.36.91.37-4.88.36-5.85.36 24.65.36-3.73.37-19.75.36-5.56.36-2.32.36-1.73.36-3.4.37-3.62.36-2.39.36-3.2.36 29.69.36.76.37-1.22.36.96.36-1.25.36 2.25.36-2.37.37-3.82.36-.45.36-4.78.36 5.98.37-3.78.36.28.36 4.12.36-2.3.36.45.37-2.82.36 6.81.36-2.69.36 1 .36-5.12.37-4.78.36-2.44.36-5.14.36 4.22.36-2.64.37-4.85.36 18.69.36-3.98.36-1.33.36 1.87.37-4.03.36-1.35.36-4.08.36-23.36.37-1.07.36-2.82.36 3.58.36-1.92.36-1.32.37-2.65.36 16.64.36-.9.36-2.55.36 3.02.37 2.71.36 2.33.36 2.59.36 4.32.36 1.2.37.93.36 1.29.36-1.76.36-.11.37.08.36.36.36-1.06.36-1.77.36.51.37-.82.36 8.69.36 27.79.36.22.36-.7.37-1.58.36-.55.36-1.11.36.75.36-1.55.37-2.97.36-18.96.36-.72.36 10.75.36 1.01.37 2.39.36 2.55.36 3.22.36.08.37-1.52.36-3.61.36 1.15.36-2.6.36-6.02.37 2.69.36 1.58.36 7.45.36 1.06.36 17.37.37 7.64.36 1.96.36 1.64.36 1.85.36-14.71.37 3.24.36-1.15.36-1.1.36-2.3.37-5.63.36-2.15.36-2.87.36-10.76.36-1.95.37 1.43.36-2.73.36-4.67.36-2.66.36-4.83.37.46.36-4 .36-1.84.36 10.71.36-2.72.37-.22.36-3.32.36 5.74.36-2.96.37 1.08.36-5.53.36-4.83.36-2.3.36-5.33.37 3.03.36-2.04.36-5.41.36 13.09.36-4.08.37-1.33.36 2.3.36-3.68.36-1.69.36-4.33.37 12.07.36-.63.36-3.36.36 3.65.36-2.6.37-1.57.36-3.25.36 16.93.36-.5.37-2.75.36 3.25.36-2 .36-1.74.36 6.89.37 1.88.36 5.34.36-.79.36.96.36 2.89.37-1.54.36-.64.36-.48.36 1.57.36-1.4.37-.17.36-1.46.36-2.44.36-1.46.37 3.03.36-1.97.36.1.36-2.01.36-.65.37-1.35.36 5.02.36.41.36 6.41.36-.55.37-1.57.36 1.36.36-.73.36-1.51.36-2.5.37-4.49.36-1.77.36-.55.36.45.36-.99.37 23.08.36 3.47.36.74.36 2.63.37-1.71.36 1.6.36-7.24.36 3.19.36.5.37 2.91.36.42.36-.68.36 2.92.36 17.59.37-16.1h.36l.36-.64.36-.3.36-5.34.37-3.18.36-1.44.36-28.75.36-1.38.37 1.42.36-2.48.36-1.75.36 3.13.36-.49.37 6.63.36.21.36 2.65.36-1.17.36-2.75.37-.7.36-2.1.36 6.86.36-3.2.36.74.37-19.87.36-.9.36.53.36-1.95.36 7.78.37.18.36-2.08.36-4.23.36-3.56.37-2.65.36 4.97.36-3.8.36-1.68.36-3.54.37 17.24.36-3.07.36-1.02.36 2.63.36-3.27.37-1.39.36-3.39.36-30.1.36-1.01.36-1.76.37 3.85.36-1.78.36.44.36 2.8.37 18.33.36 4.05.36 1.17.36 1.01.36 3.9.37 1.26.36 1.44.36 5.65.36 3.12.36 2.57.37 1.98.36 1.92.36 1.14.36 2.83.36 2.57.37 1.02.36 4.43.36 2.43.36.72.37-2.33.36-1.61.36-.74.36-6.03.36-.33.37.27.36 1.65.36-.29.36 1.65.36-1.71.37-2.48.36-4.48.36 23.43.36-.66.36 5.28.37 2.21.36-74 .36 1.06.36-.57.36 2.98.37 8.52.36.6.36.63.36-1.26.37-4.11.36 2.88.36 7.88.36 7.76.36 12.83.37 1.82.36 5.87.36 5.45.36 4.88.36.24.37 3.43.36 2.29.36-23.61.36 3.81.36 5.31.37 2.89.36-.65.36 2.39.36-.6.37 6.79.36-.74.36 2.61.36-1.22.36-2.94.37-1.04.36-2.47.36 6.54.36-3.47.36 1.02.37-19.77.36-1.65.36.72.36-2.28.36 6.53.37 1.63.36-2.15.36-4.14.36-4.35.36-1.4.37-4.33.36 3.51.36-1.35.36-3.59.37 17.83.36-3.46.36-1.02.36-3.72.36 3.26.37-.8.36-3.45.36-28.72.36-2.2.36.12.37-2.47.36 4.95.36-.68.36 2.57.36 10.33.37 1.59.36 3.71.36 1.76.36-.78.37 3.22.36 1.37.36.66.36.99.36-.52.37-2.86.36-1.08.36.51.36 1.92.36-.78.37-.85.36-2.37.36-.04.36 23.41.36-2.43.37 2.7.36-2.43.36-.76.36.35.36.6.37 5.51.36 1.08.36.13.36.58.37-3.11.36-.25.36 15.59.36 1.24.36 6.19.37-1.15.36 2.27.36-1.84.36-.93.36-1.57.37-1.89.36.89.36-4.31.36-6.84.36-.73.37.35.36-2.77.36-5.04.36 9.9.37-1.26.36.42.36.14.36.05.36-3.55.37-2.49.36-2.28.36-2.99.36 15.79.36 3.58.37-1.49.36 2.2.36-1.45.36 3.07.36-1.54.37-3.87.36-2.05.36-3.67.36 5.94.37-2.25.36-1.39.36-4.03.36 7.74.36-.18.37-2.88.36 6.41.36-2.57.36-.64.36-3.46.37-4.21.36-2.58.36-4.86.36 2.73.36-1.32.37-4.52.36 16.37.36-4.14.36-2.42.36 4.31.37-3.55.36-1.77.36-4.1.36-30.26.37.17.36-2.12.36 2.95.36-2.4.36-.15.37-2.79.36 15.82.36-.05"/><use xlink:href="#e" color="#F44336" transform="matrix(3.75 0 0 3.75 125.4 132.3)"/><use xlink:href="#e" color="#F44336" transform="matrix(3.75 0 0 3.75 220.55 7.51)"/></g><text fill="#000" stroke="none" stroke-linecap="round" stroke-linejoin="round" color="#000" font-family="KaTeX_Main" font-size="8" transform="translate(241.1 25.11)"><tspan>RedBlackTopDown</tspan></text><g fill="none" stroke="currentColor" stroke-linecap="round" stroke-linejoin="round" color="#000"><path stroke="#3B75EA" stroke-dasharray="1.0,2.0" d="M205.6 22.51h29.9M28 175.03l.36-7.72.36-4.42.37-5.72.36-9.57.36 30.24.36 2.28.36 1.45.37 1.84.36.05.36-1.31.36-2.92.37 2.55.36-1.54.36-.5.36-2.46.36-3.62.37-3.63.36-6.46.36 10.3.36.65.36-2.09.37-.93.36-2.54.36-3.69.36-1.25.36-2.39.37-3 .36-4.31.36-3.21.36-5.44.36-4.67.37 19.33.36.85.36.16.36-1.89.37 1.5.36-1.29.36-2.76.36.84.36-1.5.37-1.79.36-3.63.36-1.48.36-2.35.36-4.67.37 3.88.36-1.6.36-1.61.36-.99.36-2.75.37-5.04.36 1.25.36-1.13.36-2.84.37.75.36 1.14.36 1 .36-3.62.36.35.37-.13.36 1.78.36.13.36-.25.36-2.08.37-.5.36 5.97.36 3.12.36.07.36 5.47.37-1.33.36-.59.36.25.36-.79.37-.87.36 3.47.36-.66.36.21.36-1.46.37-2.39.36 10.65.36.46.36-1.52.36.3.37-1.13.36 6.14.36-.69.36-6.37.36-2.08.37 2.69.36 10.43.36-2.27.36 2.36.36-1.85.37 6.99.36-24.89.36 9.05.36 3.48.37-.9.36 4.58.36.76.36 2.02.36 1.08.37 1.11.36.15.36-7.55.36 2.04.36 2.04.37 1.62.36.49.36-9.63.36-2.99.36-10.38.37 2.55.36 12.94.36 1.65.36.86.37 1.11.36-1.9.36 2.43.36-.24.36-.64.37-3.19.36.45.36-2.76.36-4.14.36 2.77.37.02.36-.29.36.41.36-1.39.36-2.09.37-3.78.36 1.59.36-1.22.36-3.2.36-2.35.37-3.97.36-3.54.36-5.82.36-11.65.37 1.48.36.92.36.95.36-.28.36-.81.37-2.42.36 1.43.36.36.36-1.85.36-.61.37-19.75.36 2.32.36-.58.36-.55.36 5.06.37 1.36.36.23.36-.91.36 6.78.37 1.36.36.86.36-.02.36-2.69.36 1.07.37 2.08.36 3.67.36 4.47.36 1.08.36.87.37-.23.36 2.59.36 3.14.36 4.51.36-.97.37 6.52.36 5.28.36 2.31.36-.64.36.93.37-.92.36-1.24.36-1.75.36-1.56.37.47.36 1.04.36 2.57.36 1.77.36-5.47.37-1.76.36-4.23.36 1.11.36 22.1.36-.25.37 6.12.36-1.72.36-.39.36-.62.36 2.53.37 3.53.36.14.36 5.59.36-9.14.37 6.17.36 1.47.36-2.76.36 1.32.36-1.38.37-2.38.36-15.18.36 1.83.36 2.97.36 1.38.37-.2.36-.71.36-3.85.36 6.56.36-.43.37-2.61.36-.57.36-3.52.36-2.87.37-24.23.36 4.24.36 3.98.36 1.69.36 3.38.37 2.36.36.16.36 3.02.36 1.06.36 1.18.37-.45.36.51.36-.23.36-2.69.36 6.78.37.75.36.87.36 1.12.36-.74.36-.92.37-2 .36 1.44.36-1.49.36-.51.37-1.13.36-2.52.36-2.46.36-4.26.36 7.94.37-.1.36.4.36-.16.36 1.97.36-.94.37-.9.36-.05.36-1.24.36-2.21.36-3.31.37-.49.36-2.37.36 4.89.36-4.71.37-1.93.36-.97.36-.59.36 1.94.36-2.11.37-2.02.36-2.57.36-2.69.36 9.64.36-2.08.37-3.22.36 3.44.36-2.42.36-2.98.36-2.69.37-29.87.36 2.61.36 8.39.36 2.21.36 6.31.37 1.03.36 2.23.36-.3.36.21.37-3.1.36-.14.36-2.3.36 1.87.36.91.37 1.33.36-3.45.36 1.68.36 3.5.36 8.31.37 3.03.36-1.34.36 9.07.36 7 .36.89.37 2.07.36 1.6.36-4.69.36 4.04.37 4.58.36-1.41.36 2.61.36 1.01.36-2.36.37-12.74.36 3.16.36 16.92.36 2.63.36.82.37.1.36-1.61.36 3.45.36-.08.36-.5.37-.15.36-1.84.36-2.6.36-4.08.36 7.3.37-.2.36.51.36-.47.36-1.42.37-2.34.36-4.55.36 2.59.36-2.16.36-3.23.37-1.95.36-2.99.36-5.19.36-14.24.36 1.21.37 1.28.36-.79.36 1.65.36-.31.36-2.17.37 1.74.36-1.24.36-.41.36-.7.37-15.42.36-27.43.36-8.77.36 4.24.36 6.28.37 1 .36 4.58.36 3.75.36 1.92.36 2.57.37 2.84.36 6.18.36 1.34.36.37.36.93.37 2.86.36 4.01.36 4.02.36 1.4.37 4.13.36 1.02.36 1.92.36.73.36 6.13.37.41.36.49.36 8.08.36 4.76.36 2.21.37-1.83.36 2.05.36 3.68.36-.48.36 3.37.37-1.57.36-.04.36-2.92.36-.45.36 2.13.37-.06.36 4.64.36-15.36.36-.67.37 13.54.36 5.21.36 3.93.36 2.48.36-3.2.37-.34.36 6.66.36-.86.36-1.66.36-7.75.37 2.83.36.62.36-2.45.36 2.56.36-2.13.37-4.21.36-13.43.36 2.71.36 1.67.37 3.47.36.57.36-1.06.36-2.22.36 3.03.37.68.36-1.85.36-.91.36-2.39.36-3.48.37-5.21.36-20.49.36 4.16.36 2.4.36 3.33.37 1.23.36.76.36 3.72.36 1.59.36 1.15.37-.41.36.89.36-1.35.36-1.19.37 6.55.36 1.47.36 1.29.36-.92.36 1.05.37-1 .36-.55.36.36.36-.96.36-.92.37-3.13.36-.14.36-2.96.36-3.78.36 7.36.37.39.36.12.36-2.36.36 1.54.37-.49.36.49.36-.73.36-1.2.36-2.06.37-1.79.36 5.62.36-2.75.36-2.62.36 1.99.37.25.36-1.75.36-2.89.36-1.51.36.34.37-1.3.36-2.72.36 16.06.36-.68.37-1.07.36-2.8.36-2.13.36 1.61.36-2.82.37-2.16.36-1.66.36 5.24.36.48.36-2.36.37-2.7.36 17.75.36-1.17.36 2.99.36 1.23.37-1.48.36.08.36.71.36-1.08.36.27.37-1.25.36 22.01.36-1.86.36-11.6.37-3.23.36 11.15.36.11.36.92.36-.28.37-2.18.36-5.48.36-3 .36-1.81.36-17.92.37-1.24.36-2.06.36-4.65.36-1.96.36-3.58.37-6.28.36 13.13.36 3.41.36 2.97.37.05.36 4.25.36.59.36-1.21.36 3.87.37.35.36-.05.36-1.76.36.82.36-1.98.37-3.57.36 8.38.36.01.36.65.36.13.37-1.51.36-1.33.36-3.7.36 2.29.36-1.4.37-3.05.36-1.35.36-4.08.36-2.99.37-18.56.36 1.55.36 1.23.36.27.36 1.25.37-.88.36.17.36.76.36-.42.36 5.98.37-3.77.36-.68.36-34.02.36-1.06.36-.2.37 2.62.36.92.36.67.36-.3.37-1.32.36 8.77.36 8.43.36.83.36.6.37 2.72.36-1.37.36-1.79.36 2.67.36-.65.37-.6.36-1.7.36-1.99.36-1.18.36-1.65.37-2.92.36-1.53.36.12.36.34.36.46.37.64.36-.71.36 8.25.36.65.37-1.43.36 3.11.36-.78.36 2.12.36-1.56.37-1.72.36.84.36 44.38.36 2.49.36 3.82.37 6.37.36 5.02.36 3.86.36 2.28.36 1.51.37-2.15.36-1.56.36-4.28.36-4.08.37 1.41.36 5.84.36-1.03.36 1.43.36-.73.37-3.43.36-15.04.36 3.56.36 1.7.36-.1.37 1.71.36 1.06.36-2.6.36 3.17.36-.25.37-.25.36-1.19.36-2.48.36-30.38.37-3.9.36-.09.36.14.36 1.19.36-.12.37-1.65.36-1.73.36-4.06.36 2.56.36-1.78.37-2.94.36-1.94.36-4.06.36-3.23.36 27.81.37 1.25.36 1.31.36-.7.36 1.11.36.21.37-1.99.36.98.36-.91.36-.77.37-2.48.36-1.09.36-1.67.36-3.75.36-.2.37 5.55.36-36.12.36.35.36 1.15.36 2.44.37 2.16.36 2.68.36 3 .36 7.39.36 2.46.37 2.89.36 1.16.36 1.32.36 1.68.37-.84.36 5.63.36 4.29.36-.23.36 1.81.37.76.36 4.19.36 1.73.36-.21.36 1.53.37-1.35.36.33.36-2.21.36-2.18.36-.58.37.61.36-.03.36-3.13.36 6.21.36-1.95.37-1.24.36.74.36.89.36-1.73.37 33 .36-.29.36-.72.36-.3.36 1.74.37-2.62.36-1.44.36 7.26.36-1.13.36.04.37-1.68.36 1.63.36-41.37.36 8.6.36 4.49.37-.82.36 18.71.36 2.38.36-12.47.37 3.94.36 2.1.36.74.36 1.73.36-1.05.37-1.29.36-11.61.36 3.91.36 3.46.36.53.37 2.67.36 1.36.36-.89.36 2.33.36.49.37-.02.36.17.36-1.44.36-1.79.36-3.63.37 7.64.36.48.36-.31.36.39.37-1.37.36-1.57.36-3.68.36 1.21.36-.89.37-1.99.36-2.09.36-3.4.36-3.81.36-5.39.37-11.63.36 1.26.36.14.36 1.08.36-.85.37-.02.36 1.23.36-.47.36-1.17.37-1.01.36-51.96.36 1.88.36 4.66.36 2.26.37 2.58.36 4.36.36 2.71.36 3.18.36 1.28.37 2.06.36 1.48.36.31.36-2.17.36 1.59.37 3.54.36.62.36 6.62.36 3.78.37 2.18.36-.41.36 1.84.36.5.36 5.19.37 4.78.36 3.35.36 1.88.36 2.9.36-3.46.37 4.22.36 1.67.36-1.62.36-1.71.36-9.26.37 22.2.36-.67.36-.09.36-4.48.36-.57.37 8.8.36-.47.36 1.26.36-1.14.37 1.29.36 13.82.36-10.44.36 3.55.36 11.89.37 3.54.36-1.59.36-5.14.36-5.06.36 1.75.37 3.54.36-.99.36.69.36-.49.36-3.42.37-9.42.36-.69.36-1.79.36-4.42.37-.62.36-4.09.36-5.87.36-23.11.36 3.84.37 3.17.36 4.09.36 2.09.36.77.36-.47.37 4.21.36.41.36 1.08.36-.01.36-1.4.37-.95.36-3.66.36 8.48.36.16.36 1.4.37.33.36-1.08.36-1.15.36-2.78.37 1.45.36-2.01.36-.86.36-1.88.36-2.85.37-2.8.36-4.77.36-2.17.36 1.25.36 1.65.37 1.05.36.07.36-.27.36.62.36-57.91.37-8.72.36 1.93.36 3.19.36 3.59.37 2.37.36 1.57.36 3.49.36 2.14.36 5.28.37 3.62.36-.59.36 1.44.36 2.22.36-.07.37-.46.36 2.16.36-.68.36 5.64.36-2.46.37-1.51.36 3.17.36-.97.36-2.32.36-2.14.37 7.19.36-1.08.36 3.8.36-1.27.37-2.7.36-3.33.36.67.36 5.28.36-2.17.37-.03.36-1.75.36-.45.36 38.32.36-3.02.37 11.89.36 2.89.36 4.81.36 5.95.36 2.1.37 3.46.36.62.36.05.36 1.32.37-.03.36 4.41.36.1.36-1.07.36-6.53.37 2.71.36 1.58.36 14.25.36.57.36.14.37-2.87.36-15.98.36 2.85.36 3.97.36-.31.37 3.05.36-.22.36-1.78.36 2.51.37-.04.36-.8.36-3.24.36.57.36-2.23.37-4.3.36 1.65.36.32.36-.21.36-.15.37-1.85.36-2.14.36-4.1.36 1 .36-1.04.37-3.5.36-2.29.36-4.61.36-4.18.36-18.87.37 1.42.36 1.28.36-.42.36 1.3.37.45.36-1.53.36.93.36-.54.36-.81.37-2.69.36-.4.36-1.63"/><use xlink:href="#i" color="#3B75EA" transform="matrix(3.75 0 0 3.75 182.98 129.6)"/><use xlink:href="#i" color="#3B75EA" transform="matrix(3.75 0 0 3.75 220.55 22.51)"/></g><path fill="none" stroke="none" stroke-linecap="round" stroke-linejoin="round" stroke-width="0" d="M28 45.01V205M371.99 45.01H28" color="#000"/></svg>