<svg xmlns="http://www.w3.org/2000/svg" xmlns:xlink="http://www.w3.org/1999/xlink" viewBox="0 0 400 250"><path fill="none" d="M0 0h400v250H0z"/><defs><use xlink:href="#b" id="h" fill="currentColor" stroke="none"/><use xlink:href="#b" id="c" stroke="currentColor" transform="rotate(180)"/><use xlink:href="#d" id="e" stroke="currentColor" transform="rotate(45)"/><use xlink:href="#e" id="g" fill="currentColor" stroke="none"/><path id="d" stroke="currentColor" stroke-width=".267" d="M-1-1h2v2h-2z"/><path id="b" stroke="currentColor" stroke-width=".267" d="m0-1.33-1.33 2h2.66z"/><path id="f" stroke="currentColor" stroke-width=".267" d="M0 1.33 1.265.411.782-1.067l-1.564-.009-.483 1.487z"/><circle id="a" cx="0" cy="0" r="1" stroke="currentColor" stroke-width=".267"/></defs><path fill="none" stroke="#000" stroke-linecap="round" stroke-linejoin="round" stroke-width=".1" d="M35.48 205V45.01" class="gridline" color="#000"/><g fill="none" stroke="none" stroke-linecap="round" stroke-linejoin="round" stroke-width="0" color="#000"><path d="M35.48 205v-7.5m0-152.49v7.5"/><text fill="#000" font-family="KaTeX_Main" font-size="10" text-anchor="middle" transform="translate(35.48 215.75)"><tspan> 1</tspan></text></g><path fill="none" stroke="#000" stroke-linecap="round" stroke-linejoin="round" stroke-width=".1" d="M72.87 205V45.01" class="gridline" color="#000"/><g fill="none" stroke="none" stroke-linecap="round" stroke-linejoin="round" stroke-width="0" color="#000"><path d="M72.87 205v-7.5m0-152.49v7.5"/><text fill="#000" font-family="KaTeX_Main" font-size="10" text-anchor="middle" transform="translate(72.87 215.75)"><tspan> 2</tspan></text></g><path fill="none" stroke="#000" stroke-linecap="round" stroke-linejoin="round" stroke-width=".1" d="M110.26 205V45.01" class="gridline" color="#000"/><g fill="none" stroke="none" stroke-linecap="round" stroke-linejoin="round" stroke-width="0" color="#000"><path d="M110.26 205v-7.5m0-152.49v7.5"/><text fill="#000" font-family="KaTeX_Main" font-size="10" text-anchor="middle" transform="translate(110.26 215.75)"><tspan> 3</tspan></text></g><path fill="none" stroke="#000" stroke-linecap="round" stroke-linejoin="round" stroke-width=".1" d="M147.65 205V45.01" class="gridline" color="#000"/><g fill="none" stroke="none" stroke-linecap="round" stroke-linejoin="round" stroke-width="0" color="#000"><path d="M147.65 205v-7.5m0-152.49v7.5"/><text fill="#000" font-family="KaTeX_Main" font-size="10" text-anchor="middle" transform="translate(147.65 215.75)"><tspan> 4</tspan></text></g><path fill="none" stroke="#000" stroke-linecap="round" stroke-linejoin="round" stroke-width=".1" d="M185.04 205V45.01" class="gridline" color="#000"/><g fill="none" stroke="none" stroke-linecap="round" stroke-linejoin="round" stroke-width="0" color="#000"><path d="M185.04 205v-7.5m0-152.49v7.5"/><text fill="#000" font-family="KaTeX_Main" font-size="10" text-anchor="middle" transform="translate(185.04 215.75)"><tspan> 5</tspan></text></g><path fill="none" stroke="#000" stroke-linecap="round" stroke-linejoin="round" stroke-width=".1" d="M222.43 205V45.01" class="gridline" color="#000"/><g fill="none" stroke="none" stroke-linecap="round" stroke-linejoin="round" stroke-width="0" color="#000"><path d="M222.43 205v-7.5m0-152.49v7.5"/><text fill="#000" font-family="KaTeX_Main" font-size="10" text-anchor="middle" transform="translate(222.43 215.75)"><tspan> 6</tspan></text></g><path fill="none" stroke="#000" stroke-linecap="round" stroke-linejoin="round" stroke-width=".1" d="M259.82 205V45.01" class="gridline" color="#000"/><g fill="none" stroke="none" stroke-linecap="round" stroke-linejoin="round" stroke-width="0" color="#000"><path d="M259.82 205v-7.5m0-152.49v7.5"/><text fill="#000" font-family="KaTeX_Main" font-size="10" text-anchor="middle" transform="translate(259.82 215.75)"><tspan> 7</tspan></text></g><path fill="none" stroke="#000" stroke-linecap="round" stroke-linejoin="round" stroke-width=".1" d="M297.21 205V45.01" class="gridline" color="#000"/><g fill="none" stroke="none" stroke-linecap="round" stroke-linejoin="round" stroke-width="0" color="#000"><path d="M297.21 205v-7.5m0-152.49v7.5"/><text fill="#000" font-family="KaTeX_Main" font-size="10" text-anchor="middle" transform="translate(297.21 215.75)"><tspan> 8</tspan></text></g><path fill="none" stroke="#000" stroke-linecap="round" stroke-linejoin="round" stroke-width=".1" d="M334.6 205V45.01" class="gridline" color="#000"/><g fill="none" stroke="none" stroke-linecap="round" stroke-linejoin="round" stroke-width="0" color="#000"><path d="M334.6 205v-7.5m0-152.49v7.5"/><text fill="#000" font-family="KaTeX_Main" font-size="10" text-anchor="middle" transform="translate(334.6 215.75)"><tspan> 9</tspan></text></g><path fill="none" stroke="#000" stroke-linecap="round" stroke-linejoin="round" stroke-width=".1" d="M371.99 205V45.01" class="gridline" color="#000"/><g fill="none" stroke="none" stroke-linecap="round" stroke-linejoin="round" stroke-width="0" color="#000"><path d="M371.99 205v-7.5m0-152.49v7.5"/><text fill="#000" font-family="KaTeX_Main" font-size="10" text-anchor="middle" transform="translate(371.99 215.75)"><tspan> 10</tspan></text></g><g fill="none" stroke="none" stroke-linecap="round" stroke-linejoin="round" stroke-width="0" color="#000"><path d="M371.99 205h-7.5"/><text fill="#000" font-family="KaTeX_Main" font-size="10" transform="translate(378.99 208.25)"><tspan>0.88</tspan></text></g><g fill="none" stroke="none" stroke-linecap="round" stroke-linejoin="round" stroke-width="0" color="#000"><path d="M371.99 190.46h-7.5"/><text fill="#000" font-family="KaTeX_Main" font-size="10" transform="translate(378.99 193.71)"><tspan>0.90</tspan></text></g><g fill="none" stroke="none" stroke-linecap="round" stroke-linejoin="round" stroke-width="0" color="#000"><path d="M371.99 175.91h-7.5"/><text fill="#000" font-family="KaTeX_Main" font-size="10" transform="translate(378.99 179.16)"><tspan>0.92</tspan></text></g><g fill="none" stroke="none" stroke-linecap="round" stroke-linejoin="round" stroke-width="0" color="#000"><path d="M371.99 161.37h-7.5"/><text fill="#000" font-family="KaTeX_Main" font-size="10" transform="translate(378.99 164.62)"><tspan>0.94</tspan></text></g><g fill="none" stroke="none" stroke-linecap="round" stroke-linejoin="round" stroke-width="0" color="#000"><path d="M371.99 146.82h-7.5"/><text fill="#000" font-family="KaTeX_Main" font-size="10" transform="translate(378.99 150.07)"><tspan>0.96</tspan></text></g><g fill="none" stroke="none" stroke-linecap="round" stroke-linejoin="round" stroke-width="0" color="#000"><path d="M371.99 132.28h-7.5"/><text fill="#000" font-family="KaTeX_Main" font-size="10" transform="translate(378.99 135.53)"><tspan>0.98</tspan></text></g><g fill="none" stroke="none" stroke-linecap="round" stroke-linejoin="round" stroke-width="0" color="#000"><path d="M371.99 117.73h-7.5"/><text fill="#000" font-family="KaTeX_Main" font-size="10" transform="translate(378.99 120.98)"><tspan>1.00</tspan></text></g><g fill="none" stroke="none" stroke-linecap="round" stroke-linejoin="round" stroke-width="0" color="#000"><path d="M371.99 103.19h-7.5"/><text fill="#000" font-family="KaTeX_Main" font-size="10" transform="translate(378.99 106.44)"><tspan>1.02</tspan></text></g><g fill="none" stroke="none" stroke-linecap="round" stroke-linejoin="round" stroke-width="0" color="#000"><path d="M371.99 88.64h-7.5"/><text fill="#000" font-family="KaTeX_Main" font-size="10" transform="translate(378.99 91.89)"><tspan>1.04</tspan></text></g><g fill="none" stroke="none" stroke-linecap="round" stroke-linejoin="round" stroke-width="0" color="#000"><path d="M371.99 74.1h-7.5"/><text fill="#000" font-family="KaTeX_Main" font-size="10" transform="translate(378.99 77.35)"><tspan>1.06</tspan></text></g><g fill="none" stroke="none" stroke-linecap="round" stroke-linejoin="round" stroke-width="0" color="#000"><path d="M371.99 59.55h-7.5"/><text fill="#000" font-family="KaTeX_Main" font-size="10" transform="translate(378.99 62.8)"><tspan>1.08</tspan></text></g><g fill="none" stroke="none" stroke-linecap="round" stroke-linejoin="round" stroke-width="0" color="#000"><path d="M371.99 45.01h-7.5"/><text fill="#000" font-family="KaTeX_Main" font-size="10" transform="translate(378.99 48.26)"><tspan>1.10</tspan></text></g><path fill="none" stroke="none" stroke-linecap="round" stroke-linejoin="round" stroke-width="0" d="M28 45.01V205M371.99 45.01H28" color="#000"/><text fill="#000" stroke="none" stroke-linecap="round" stroke-linejoin="round" stroke-width="0" color="#000" font-family="KaTeX_Main" font-size="10" text-anchor="middle" transform="rotate(-90 68.255 56.755)"><tspan font-weight="bold">AveragePathLength </tspan><tspan> / log</tspan><tspan dy="3" font-size="8">2</tspan><tspan dy="-3">(Size)</tspan></text><text fill="#000" stroke="none" stroke-linecap="round" stroke-linejoin="round" stroke-width="0" color="#000" font-family="KaTeX_Main" font-size="10" text-anchor="middle" transform="translate(199.99 238.25)"><tspan>Operations × 10</tspan><tspan dy="-5" font-size="8">5</tspan></text><text fill="#000" stroke="none" stroke-linecap="round" stroke-linejoin="round" color="#000" font-family="KaTeX_Main" font-size="8" transform="translate(132.8 10.11)"><tspan>LBSTBottomUp</tspan></text><g fill="none" stroke="currentColor" stroke-linecap="round" stroke-linejoin="round" color="#000"><path stroke="#3B75EA" d="M97.3 7.51h29.9M28 183.27l.37-.18.38-.2.37-.27.38-.22.37-.22.37.43.38-.19.37-.15.38-.18.37 7.05.37-.14.38-.13.37-.17.37-.15.38-.16.37-.16.38-.17.37-.18.37-.13.38-.19.37-.56.38.2.37.22.37-.6.38-.49.37-.63.38.99.37-.56.37 2.5.38.75.37.03.37.38.38-.1.37.08.38-.3.37-.46.37.45.38.04.37-.35.38-.96.37.47.37-.28.38-.15.37-.42.38-.45.37-.7.37 2.69.38.52.37-.71.38-.73.37.91.37-.76.38-.02.37-.06.37-.5.38-.81.37-1.34.38.02.37-1.41.37-1.37.38 1.38.37-1.06.38 1.41.37.23.37-.19.38-.9.37.38.38-.98.37-1.13.37 2.08.38-.35.37-.31.37 1.59.38.21.37.41.38-.13.37-.1.37-.13.38-.22.37-.12.38-.19.37-.22.37-.23.38-.22.37-.21.38-.24.37-.29.37-.28.38-.25.37-.26.38-.3.37-.28.37-.27.38-.21.37-.3.37-.3.38-.27.37-.33.38.33.37-.28.37-.29.38-.31.37-.31.38-.29.37 8.11.37-.3.38-.34.37-.3.38-.32.37-.32.37-.33.38-.33.37-.3.37-.32.38-.31.37-.32.38-.34.37-.33.37-.31.38-.32.37-.21.38-.5.37-.76.37-.27.38-.94.37 3.23.38.06.37-.58.37-.82.38-.1.37-.76.38.1.37-.36.37-.8.38.02.37-.4.37-.55.38-.66.37-.5.38-1.15.37.16.37-.98.38-1.2.37 14.13.38-.46.37.54.37-.04.38-.63.37-.17.38-1.01.37-.91.37 3.07.38.29.37-.31.37-.85.38 1.85.37-.13.38 1.12.37-.02.37-.35.38-.11.37-.46.38-1.03.37-.21.37-.14.38-.51.37-.97.38-1.64.37 2.31.37.01.38-.24.37-.23.38-.24.37-.28.37-.29.38-.35.37-.33.37-.33.38 3.7.37-.26.38 1 .37-.33.37-.34.38-.35.37-.33.38-.32.37-.38.37-.39.38-.38.37-.35.38-.41.37-.4.37-.38.38-.41.37-.42.37-.4.38-.41.37-.44.38-.43.37-.5.37-.45.38-.45.37-.41.38-.41.37-.44.37-.03.38-.43.37-.43.38-.44.37-.41.37-.44.38 10.83.37-.16.38-.18.37-.17.37-.14.38-.2.37-.17.37-.19.38-.17.37-.06.38-.56.37.44.37-.2.38-.48.37-.77.38-.31.37-.71.37-1.05.38 4.72.37-.25.38-.5.37-.51.37.89.38-.5.37-.8.37-.13.38-.93.37-.9.38.49.37-.21.37-.58.38-.33.37.13.38-.32.37-.59.37-.7.38-.87.37 5.09.38.33.37-.12.37-.76.38.85.37-.47.38-.76.37-.55.37 5.29.38.98.37.06.37-.47.38-.61.37.54.38-.61.37.54.37-.55.38 2.31.37.35.38.24.37-.38.37.66.38-.34.37.34.38-.32.37-.37.37-.42.38-.4.37-.48.37-.46.38-.49.37-.48.38-.48.37-.46.37-.43.38-.49.37 2.67.38-.32.37-.38.37-.32.38-.34.37-.41.38-.38.37-.35.37-.35.38-.4.37-.38.38-.4.37-.36.37-.38.38-.37.37-.36.37-.41.38-.41.37 4.29.38-.05.37-.1.37-.02.38-.08.37-.08.38-.07.37-.12.37-.1.38-.09.37-.13.38.21.37-.13.37.02.38-.16.37-.16.37-.13.38-.14.37-.42.38-.15.37-.54.37-.79.38-.75.37 2.51.38-.48.37-.32.37-.87.38 1.8.37-.47.38.78.37-.2.37-.11.38-.03.37-.53.38-.67.37-.72.37-1.11.38.34.37-.31.37-.95.38-1.06.37-.86.38-1.15.37 1.13.37 6.71.38-.13.37.41.38-.44.37-.42.37-.66.38-1.2.37.35.38 2.57.37.93.37-.42.38-.82.37-.02.37 4.18.38-.5.37.19.38-.14.37 1.13.37.06.38.6.37-.44.38.1.37-.48.37-.96.38-.47.37-.48.38-.47.37-.52.37-.53.38.3.37-.52.38-.51.37-.55.37-.54.38-.57.37-.55.37-.54.38-.57.37-.57.38-.48.37-.52.37-.58.38-.54.37-.56.38-.5.37-.56.37 5.26.38-.23.37-.28.38-.25.37-.27.37-.18.38-.24.37-.28.37-.26.38-.29.37-.22.38-.26.37-.29.37-.28.38-.28.37-.28.38-.32.37-.31.37-.3.38-.34.37-.29.38-.3.37-.29.37 4.41.38.06.37.12.38-.01.37.02.37 3.2.38.19.37-.09.37-.26.38-.04.37-.34.38.38.37-.07.37.08.38-.48.37-.72.38-.24.37 2.62.37-.6.38.09.37-.4.38-.95.37 1.37.37-.79.38-.55.37-.4.37-.96.38 1.09.37-.19.38-.49.37-.43.37.49.38-.42.37-.49.38-.42.37-.4.37-1.2.38-.59.37 5.84.38-.31.37-.44.37 1.3.38-.37.37-.66.38.05.37-.81.37.56.38 1.24.37.06.37-.71.38-.24.37 2.94.38-.37.37 1.32.37.95.38-.19.37-.19.38-.27.37-.25.37-.29.38-.31.37-.33.38-.32.37-.3.37-.31.38-.36.37-.41.37-.36.38-.44.37-.45.38-.46.37-.41.37-.47.38-.44.37-.49.38-.42.37 3.14.37-.32.38-.3.37-.34.38-.37.37-.34.37-.42.38-.36.37-.38.37-.36.38-.31.37-.36.38-.39.37-.39.37-.43.38-.38.37-.42.38-.41.37-.38.37 2.02.38-.23.37-.22.38-.24.37-.11.37-.23.38-.24.37-.26.38-.24.37 2.33.37-.38.38-.89.37.48.37-.5.38-.66.37-.49.38 5.77.37.22.37-.38.38-.53.37-.83.38.98.37-.44.37-.97.38-.26.37-1.16.38 1.24.37-.25.37-.7.38-.21.37.86.37-.12.38.31.37-.01.38-.79.37-.53.37-.52.38-.72.37.08.38-.78.37-.99.37 7.79.38-.68.37.29.38-.33.37.09.37-.06.38-.43.37-.99.38 4.35.37.67.37-.42.38-.66.37 1.37.37-.25.38.58.37-.28.38-.95.37-.17.37-.63.38-.29.37-.35.38-.36.37-.29.37-.36.38-.34.37-.36.38 1.18.37-.24.37-.24.38-.31.37-.28.37-.03.38-.27.37-.34.38-.27.37-.35.37-.42.38-.37.37-.34.38-.4.37-.38.37-.38.38-.4.37-.41.38-.41.37 2.35.37-.14.38-.14.37-.12.38-.1.37-.11.37-.16.38-.15.37-.15.37-.22.38-.14.37-.14.38-.19.37-.18.37-.2.38-.18.37-.23.38-.2.37-.18.37-.18.38 1.51.37.05.38.06.37.05.37-.08.38.25.37-.19.37-.28.38-.43.37.53.38.13.37-.2.37-.47.38-.23.37-.71.38 1.7.37-.55.37.74.38-.01.37-.43.38-.24.37-.6.37-.91.38-.5.37-1.16.38.4.37-1.07.37-.1.38-.89.37-1.25.37-1.36.38 10.11.37-.73.38 1.08.37-.04.37.14.38-.51.37-.55.38-.84.37 1.54.37.32.38.2.37-.45.38 2.87.37.07.37-.52.38-.09.37.2.37-.27.38.06.37.68.38-.53.37-.99.37-.91.38-.28.37-.42.38-.41.37-.43.37-.44.38-.39.37-.42.38-.48.37 1.21.37-.4.38-.47.37-.43.38-.45.37-.49.37-.52.38-.51.37-.5.37-.53.38-.56.37-.48.38-.51.37-.53.37-.5.38-.52.37-.57.38-.52.37-.54.37-.55.38-.54.37-.33.38-.53.37-.56.37-.53.38-.51.37-.51.37-.57.38-.52.37 13.96.38-.21.37-.22.37-.23.38-.2.37-.19.38-.25.37-.22.37-.27.38-.19.37-.23.38-.26.37-.25.37-.15.38-.65.37 1.32.38-.06.37.3.37-.28.38-.26.37-.82.37-.17.38-.49.37-.3.38-.1.37-.59.37-.81.38 3.23.37-.59.38-.22.37-.83.37-.53.38-1.11.37-.64.38-.43.37-1.14.37-.97.38.83.37-.86.37-1.38.38 12.56.37.79.38-.11.37-.65.37-.45.38-.82.37-1.3.38.9.37 3.16.37-.72.38.52.37-.22.38-.73.37.43.37-.46.38-.96.37-.04.38-.43.37-1.4.37-.86.38-.78.37 2.78.37 2.14.38-.31.37-.25.38-.32.37-.31.37-.37.38.68.37-.45.38-.37.37-.41.37-.4.38-.39.37-.42.38-.27.37-.5.37-.48.38-.44.37-.44.37-.5.38-.45.37-.48.38 1.81.37-.48.37-.44.38-.44.37-.46.38-.48.37-.47.37-.5.38-.5.37-.5.38.85.37-.35.37-.41.38-.38.37-.36.38-.4.37-.37.37-.39.38-.39.37 11.86.37-.11.38-.18.37-.15.38-.11.37-.15.37-.14.38-.14.37-.17.38-.12.37-.13.37.02.38.26.37-.15.38.03.37.85.37-.17.38-.16.37.22.37-.29.38.08.37.42.38.55.37-.06.37.2.38.35.37.36h.38l.37.03.37-.07.38-.59.37-.17.38-.27.37-.13.37-.27.38-.69.37-.36.38-1.2.37 1.38.37-.54.38-.42.37-.22.37-.73.38-1.09.37-.44.38-1.34.37.89.37 5.87.38-.43.37-.07.38-.09.37-.76.37-.98.38 1.49.37-.88.38.98.37.53.37.02.38-.61.37 3.66.37-.15.38.08.37.04.38-.08.37-.01.37-.08.38-.01.37-.11.38-.12.37-.16.37-.23.38-.2.37-.19.38-.17.37-.21.37-.19.38-.17.37-.18.38-.25.37-.2.37-.25.38-.24.37-.25.37-.24.38-.24.37-.29.38-.23.37-.27.37-.27.38-.25.37-.26.38 1.15.37-.21.37-.19.38-.18.37-.22.38-.21.37-.22.37-.18.38-.18.37-.23.37-.19.38-.22.37-.2.38-.22.37-.22.37-.18.38-.26.37-.2.38-.21.37-.23"/><use xlink:href="#a" color="#3B75EA" transform="matrix(3.75 0 0 3.75 342.45 190.19)"/><use xlink:href="#a" color="#3B75EA" transform="matrix(3.75 0 0 3.75 112.25 7.51)"/></g><text fill="#000" stroke="none" stroke-linecap="round" stroke-linejoin="round" color="#000" font-family="KaTeX_Main" font-size="8" transform="translate(132.8 25.11)"><tspan>LBSTRelaxed</tspan></text><g fill="none" stroke="currentColor" stroke-linecap="round" stroke-linejoin="round" color="#000"><path stroke="violet" stroke-dasharray="4.5,2.0,0.5,2.0,0.5,2.0" d="M97.3 22.51h29.9M28 135.17l.37-.79.38-.75.37-.8.38-.77.37-.79.37-.79.38-.82.37-.78.38-.8.37-.8.37-.77.38-.8.37-.77.37-.73.38-.79.37-.77.38-.8.37-.77.37-.74.38-.78.37-1.48.38-2.1.37-1.67.37-1.68.38 3.36.37-2.11.38-1.22.37-1.76.37-2.28.38 1.1.37-1.38.37-2.9.38.54.37-2.74.38-1.19.37-2.29.37-3.02.38-3.11.37 31.66.38-1.51.37-.78.37-1.89.38.79.37-1.12.38-2.23.37-.05.37-2.32.38-2.56.37 11.35.38-.63.37-1.21.37-2.17.38 1.41.37-2.25.37-.14.38-1.91.37-2.39.38 6.24.37-1.25.37-2.45.38 4.06.37-1.85.38-1.74.37-2.98.37 1.75.38-2.93.37-2.86.38.24.37-2.87.37-4.42.38-.89.37-.87.37-.83.38-.79.37-.92.38-.74.37-.92.37-.92.38-.84.37-.91.38-.82.37-.83.37-.8.38-.86.37-.88.38-.85.37-.86.37-.89.38-.96.37-.98.38-.91.37-.86.37-.82.38-.82.37-.86.37-.8.38-.83.37-.81.38-.87.37-.83.37-.82.38-.85.37-.78.38-.74.37-.85.37-.86.38-.8.37-.84.38-.82.37-.83.37-.89.38-.79.37-.76.37-.8.38-.81.37-.74.38-.81.37-.78.37-.78.38-.8.37 31.73.38-.17.37-.74.37-1.28.38-1.85.37.36.38-1.83.37-1.21.37-2.22.38 1.64.37-2.01.38-2.81.37 1.22.37-1.61.38-2.43.37-1.19.37-2.38.38-2.85.37-3.03.38 29.45.37-.24.37-1.17.38.58.37-.72.38-1.38.37-1 .37-2.15.38 8.73.37-.39.38-1.3.37.94.37-.42.38-1.14.37-2 .37 4.43.38-1.13.37-.02.38-.58.37-1.73.37.45.38-1.68.37-1.86.38-2.99.37 15.03.37.17.38-.8.37.58.38-1.54.37-1.69.37 4 .38-1 .37-.86.38-.98.37-.95.37-.97.38-1.11.37-1.07.37-.87.38-.95.37 52.8.38-.64.37-.65.37-.55.38-.59.37-.59.38-.53.37-.57.37-.69.38-.63.37-.58.38-.54.37-.75.37-.62.38-.58.37-.65.37-.65.38-.62.37-.73.38-.69.37-.71.37-.71.38-.69.37-.69.38-.68.37-.71.37-.66.38-.68.37-.7.38-.7.37-.71.37-.72.38-.65.37-.67.38-.66.37-.7.37-.64.38-.78.37-.66.37-.69.38-.7.37-.73.38-.49.37-.28.37-1.39.38-.64.37 2.95.38-.64.37-.83.37-.8.38-1.19.37-2.13.38.96.37-2.2.37.39.38-2.18.37-1.78.37-2.32.38 23.34.37-.93.38-.19.37-.95.37 3.47.38-.16.37-.77.38 1.3.37-1.02.37-.11.38-.83.37-2.13.38 8.01.37-1.22.37 2.36.38-.84.37-.22.38-1.21.37 3.85.37-.05.38-.65.37.21.37-1.17.38-1.34.37-.33.38-1.83.37-1.71.37-2.93.38 14.82.37.12.38-.68.37.25.37-2.07.38-.79.37-.83.38-.76.37-.84.37-.88.38-.76.37-.79.37-.86.38-.85.37-.8.38-.84.37-.77.37-.83.38-.83.37-.85.38-.9.37-.82.37-.9.38-.82.37-.83.38-.8.37-.83.37-.76.38-.79.37-.8.38-.81.37-.75.37-.81.38-.77.37-.85.37-.8.38-.78.37-.78.38-.74.37-.76.37-.76.38-.76.37-.84.38-.77.37-.8.37-.8.38-.7.37-.81.38-.71.37-.67.37-.66.38-.75.37-.75.37-.68.38-.64.37 1.02.38-.22.37-1.65.37-2.31.38.62.37-1.71.38-2.21.37-2.8.37 1.54.38-2.12.37-1.7.38-2.97.37-1.62.37-3.12.38 41.39.37-.19.38-.01.37-1.26.37-1.32.38 4.53.37-.49.37-.03.38-1.14.37 1.18.38-.38.37-.29.37-1.34.38-1.78.37 8.13.38.93.37.32.37-.69.38 2 .37-.2.38-.99.37-.16.37-1.64.38 2.47.37-1.51.37.31.38-.89.37-1.64.38-2.92.37 17.43.37.21.38-.81.37 2.37.38.2.37-.59.37 3 .38-.99.37-.96.38-1.05.37-1.04.37-1.1.38-1.04.37-1.09.38-1.05.37-1.18.37-1.07.38-1.05.37-1.05.37-.99.38-1.14.37-1.05.38-1.09.37-1.02.37-1.13.38-1.08.37-1.02.38-1.12.37-1.09.37-1.1.38-1.05.37-1.14.38-1.09.37-1.04.37-1.05.38-1.09.37-1.14.37-1.06.38-1.08.37-1.03.38-1.1.37-1.08.37-.97.38-.96.37-1.08.38-.98.37-1.01.37-1.04.38-1.06.37-1.04.38-1.01.37-.99.37-1 .38-1.03.37-.96.38-.98.37-.99.37-.91.38-1.35.37-.72.37-1.79.38-1.63.37 2.98.38-.91.37-1.4.37-2.19.38-.59.37-1.11.38-2.27.37-.34.37-1.9.38-2.35.37-2.4.38-2.96.37 33.28.37-.15.38.04.37-1.2.37 1.3.38-1.35.37.46.38-1.03.37-1.23.37 6.84.38-.42.37-.44.38-1.22.37 3.67.37-.5.38-.38.37-1.3.38 1.09.37-1.78.37-.07.38-.76.37-1.72.38-2.96.37 21.48.37 1.83.38.6.37-.49.37 2.12.38-.14.37 6.35.38 1.51.37 2.14.37-.07.38-.61.37-.71.38-.68.37-.7.37-.76.38-.63.37-.77.38-.72.37-.79.37-.8.38-.66.37-.83.37-.79.38-.81.37-.96.38-.84.37-.79.37-.84.38-.81.37-.82.38-.9.37-.84.37-.82.38-.97.37-.9.38-.83.37-.93.37-.92.38-.84.37-.84.37-.9.38-.93.37-.82.38-.87.37-.92.37-.91.38-.86.37-.86.38-.88.37-.83.37-.9.38-.84.37-.85.38-.9.37-.86.37-.9.38-.83.37-.8.38-.89.37-.82.37-.26.38-1.34.37-.17.37-1.51.38 2.94.37-.8.38.1.37-.96.37-1.25.38.24.37-1.07.38-1.66.37-1.88.37-2.61.38 4.4.37-1.64.38-.75.37-.48.37-1.1.38-1.7.37-2.05.37-.95.38-2.58.37-1.68.38-3.15.37 31.62.37.24.38-.41.37.91.38-.79.37 1.01.37.16.38-.71.37-1 .38 7.35.37-.33.37.19.38.78.37-1.39.38.17.37-1.62.37 3.98.38-.51.37-1.74.37.89.38-1.25.37-2.09.38 16.16.37.76.37 1.29.38-.55.37-.58.38-.69.37-.58.37-.58.38-.54.37-.59.38-.62.37-.65.37-.7.38-.56.37-.6.37-.59.38-.61.37-.7.38-.67.37-.71.37-.78.38-.68.37-.68.38-.71.37-.76.37-.64.38-.68.37-.73.38-.63.37-.72.37-.78.38-.75.37-.75.38-.74.37-.76.37-.75.38-.8.37-.74.37-.68.38-.76.37-.73.38-.77.37-.74.37-.72.38-.69.37-.65.38-.74.37-.66.37-.72.38-.67.37 78.71.38-.34.37-.3.37-.53.38.06.37-.05.37.44.38-.43.37-.53.38-1.13.37 1.92.37-.83.38-.61.37-1.77.38 1.59.37-.93.37-1.74.38-1.49.37 1.21.38-1.6.37-1.11.37-.75.38-1.89.37-1.97.38-2.59.37 13.42.37-.58.38-1.77.37.05.37-2.11.38 4.19.37-.75.38-.51.37-1.56.37-.22.38-.53.37-1.89.38-2.88.37-.33.37-2.25.38-3.08.37 4.88.38-1.5.37-2.77.37-1.36.38-2.58.37-4 .37.97.38-3.11.37-4.54.38-2.02.37-4.22.37 40.29.38-.66.37-.68.38-.68.37-.63.37-.7.38-.73.37-.73.38-.72.37-.75.37-.73.38-.7.37-.74.38-.75.37-.76.37-.76.38-.66.37-.77.37-.73.38-.74.37-.77.38-.74.37-.77.37-.82.38-.78.37-.82.38-.77.37-.78.37-.82.38-.83.37-.78.38-.83.37-.84.37-.79.38-.79.37-.77.37-.83.38-.78.37-.83.38-.8.37-.82.37-.82.38-.76.37-.77.38-.82.37-.8.37-.81.38-.81.37-.8.38-.81.37-.76.37-1.11.38-1.56.37-1.72.38-1.24.37-1.67.37-2.3.38-3.13.37 14.9.37-.86.38-1.62.37-.14.38-1.75.37-1.5.37-2.46.38 2.87.37-1.07.38-1.3.37-1.84.37-2.7.38-.13.37-2.1.38-2.57.37 7.18.37-1.59.38-1.72.37-1.48.37-2.54.38 1.9.37-1.8.38-1.65.37-1.66.37-2.38.38-3.29.37 1.62.38-2.67.37-4.03.37.47.38-2.88.37-2.26.38-3.78.37-4.39.37 42.15.38.61.37 1.43.38-.55.37 2.14.37 1.21.38-.52.37 4.67.37.69.38-.65.37-.59.38-.64.37-.62.37-.72.38-.67.37-.72.38-.74.37-.58.37-.63.38-.73.37-.74.38-.76.37-.75.37-.81.38-.73.37-.83.37-.77.38-.83.37-.76.38-.73.37-.83.37-.76.38-.81.37-.79.38-.73.37-.77.37-.8.38-.74.37-.73.38-.81.37-.85.37-.82.38-.84.37-.8.38-.84.37-.8.37-.77.38-.74.37-.85.37-.82.38-.8.37-.73.38-.8.37-.77.37-.7.38-.72.37-.78.38 61.63.37-.3.37-.9.38.35.37-.37.38-1.05.37 3.59.37-.24h.38l.37-.63.37.05.38-1.32.37-.82.38 1.25.37-1.26.37-1.74.38-.23.37-1.72.38 2.32.37-1.03.37-1.77.38-.12.37-.87.38-2.25.37-1.24.37-2.39.38 11.88.37-.82.38-1.46.37-1.02.37-1.25.38-2.69.37 3.28.37-1.36.38-1.99.37-.74.38-2.49.37-1.94.37-3.32.38 6.86.37-1.55.38-1.87.37-3.19.37-.34.38-2.4.37-3.62.38.85.37-3.63.37-1.34.38-3.7.37-4.19.37-6.37.38-.28.37-.31.38-.34.37-.37.37-.4.38-.41.37-.44.38-.39.37-.45.37-.51.38-.43.37-.46.38-.49.37-.49.37-.57.38-.57.37-.52.38-.56.37-.55.37-.48.38-.55.37-.55.37-.61.38-.55.37-.56.38-.61.37-.59.37-.55.38-.59.37-.55.38-.56.37-.59.37-.58.38-.59.37-.57.38-.58.37-.59.37-.6.38-.62.37-.56.37-.62.38-.58.37-.61.38-.61.37-.61.37-.56.38-.63.37-.62.38-.59.37-.56"/><use xlink:href="#g" color="violet" transform="matrix(3.75 0 0 3.75 56.04 100.32)"/><use xlink:href="#g" color="violet" transform="matrix(3.75 0 0 3.75 112.25 22.51)"/></g><text fill="#000" stroke="none" stroke-linecap="round" stroke-linejoin="round" color="#000" font-family="KaTeX_Main" font-size="8" transform="translate(241.1 10.11)"><tspan>WBSTBottomUp</tspan></text><g fill="none" stroke="currentColor" stroke-linecap="round" stroke-linejoin="round" color="#000"><path stroke="#000" d="M205.6 7.51h29.9M28 170.24l.37-.46.38-.53.37-.53.38-.5.37-.51.37-.47.38-.49.37-.53.38-.51.37-.53.37-.47.38-.47.37-.51.37-.5.38-.53.37-.49.38 7.52.37-.26.37-.24.38-.25.37-1.04.38.16.37-1.13.37 1.65.38-.84.37-.58.38 4.3.37 1.14.37.11.38-.53.37-.3h.37l.38-.34.37-.6.38-.83.37 1.38.37-.51.38 4.78.37.12.38-.43.37 1.25.37-.77.38-.3.37.24.38 2.66.37.02.37-.09.38-.87.37.23.38-.76.37 1.5.37-.26.38-.05.37-.76.37-1.12.38-1.01.37.09.38 1.23.37-.72.37.82.38.26.37.19.38 1.19.37.2.37-.12.38.1.37-.77.38-.19.37-1.06.37.68.38-.53.37-.48.37-.57.38-.49.37-.59.38-.52.37-.61.37-.6.38-.58.37-.42.38-.58.37-.58.37-.57.38 1.02.37-.58.38-.49.37-.55.37-.6.38-.59.37-.55.38-.5.37-.05.37-.61.38-.51.37-.54.37 11.22.38-.23.37-.23.38-.26.37-.26.37-.21.38-.26.37-.28.38-.28.37-.3.37-.27.38-.23.37-.26.38-.28.37-.38.37-.31.38-.26.37-.24.37-.29.38-.26.37-.26.38-.28.37-.3.37-.31.38-.33.37-.46.38-.56.37-.86.37 2.85.38 1.45.37-.26.38.09.37-.16.37-.55.38.01.37 2.61.38.09.37.27.37-.14.38 1.98.37.28.37-.21.38.24.37-.15.38-.36.37.52.37.09.38.23.37-.28.38-.46.37-.13.37 1.74.38-.18.37-.53.38.26.37-.22.37-.97.38-.5.37-.03.37-.91.38-.52.37 3.23.38-.47.37-.22.37-.26.38-.52.37 1.15.38-.1.37-.42.37-.1.38-.56.37-.98.38-1.82.37 3.26.37-.8.38-.38.37-.37.38-.39.37-.38.37-.41.38-.45.37-.45.37-.37.38-.42.37-.45.38-.47.37-.44.37 1.71.38-.36.37-.43.38 4.06.37-.37.37-.45.38-.41.37-.39.38-.36.37-.47.37-.48.38-.41.37-.51.37-.46.38-.4.37-.49.38-.48.37-.52.37-.47.38-.45.37-.39.38-.45.37-.45.37-.47.38-.42.37-.46.38-.45.37-.41.37-.48.38-.47.37-.49.38-.48.37 3.56.37-.28.38-.29.37-.23.37-.31.38-.26.37-.22.38.33.37-.32.37-.48.38.76.37-.24.38.24.37-.12.37 4.1.38-.25.37.27.38.16.37-.19.37 1.19.38.07.37-.4.37.42.38-.15.37-.67.38-.07.37.23.37-.38.38.01.37 2.66.38-.13.37.18.37.12.38-.3.37 1.12.38.43.37-.59.37-.08.38.06.37-.17.38-.82.37.19.37-.69.38.99.37-.3.37 2.81.38.22.37.22.38.74.37.54.37 1.47.38.63.37.03.38.07.37-.55.37.06.38-.23.37-.38.38-.3.37-.35.37-.38.38-.36.37-.36.37-.35.38-.37.37-.44.38 4.49.37-.09.37-.18.38-.11.37-.14.38-.2.37-.19.37-.27.38-.22.37-.23.38-.28.37-.27.37-.27.38-.25.37-.31.38-.29.37-.27.37-.24.38-.31.37-.31.37-.34.38-.3.37-.31.38-.33.37-.36.37-.28.38-.35.37-.35.38-.35.37-.37.37-.34.38-.35.37-.4.38-.35.37-.18.37-.36.38-.38.37-.39.37-.38.38 3.71.37.67.38-.46.37-.25.37-.77.38-.72.37 2 .38-.15.37.16.37-.26.38-.51.37 1.97.38-.47.37-.68.37-.15.38-.62.37.95.38-.7.37-.58.37-1.05.38-.37.37-.81.37-.8.38-1.47.37 1.13.38-.24.37.2.37-.42.38.22.37-.41.38-.77.37 3.68.37.08.38 1.63.37-.21.38.16.37-.55.37.09.38.46.37-.07.37.78.38 2.26.37.7.38 1.25.37.41.37 1.4.38.35.37.43.38-.33.37 1.07.37-.46.38-.53.37-.44.38-.55.37-.47.37-.54.38-.61.37-.59.38-.6.37-.64.37-.59.38-.6.37-.59.37-.57.38-.66.37-.6.38-.6.37-.61.37-.67.38-.65.37-.62.38-.57.37 5.46.37-.33.38-.25.37-.37.38-.35.37-.29.37-.29.38-.31.37-.29.37-.33.38-.39.37-.32.38-.37.37-.34.37-.32.38-.35.37-.4.38-.37.37-.38.37-.4.38-.42.37-.35.38-.38.37-.37.37-.34.38-.42.37-.38.38-.37.37-.35.37-.36.38-.44.37.04.37-.55.38-.24.37-.56.38.77.37.07.37-.49.38.61.37-.28.38.22.37-.43.37-.26.38-.83.37-.93.38 9.77.37.22.37 1.47.38-.23.37-.27.37-.47.38.61.37-.5.38 2.01.37.06.37.01.38 1.31.37.26.38.1.37.11.37-.48.38.82.37-.64.38-.59.37-.67.37-.32.38-.3.37-.16.38.42.37-.13.37 2.37.38-.25.37-.22.37-.33.38 1.6.37-.37.38 1.86.37-.1.37.72.38-.52.37-.46.38-.55.37-.53.37-.55.38-.57.37-.51.38-.23.37-.49.37 4.04.38-.27.37-.42.37-.32.38-.35.37-.35.38-.35.37 3.67.37-.13.38-.23.37-.18.38-.16.37-.15.37-.21.38-.24.37-.19.38-.21.37-.24.37-.25.38-.22.37-.24.37.99.38-.21.37-.16.38-.13.37-.21.37-.21.38-.15.37-.18.38-.17.37-.18.37-.17.38-.18.37-.22.38-.19.37-.21.37-.18.38-.21.37-.22.38-.19.37-.25.37-.7.38-.45.37 1.8.37-.25.38.56.37-.48.38-.15.37-.7.37 1.67.38.01.37-.46.38 1.06.37-.5.37-.32.38.04.37-.58.38-.59.37-.55.37.9.38-.62.37-.86.37-.91.38-.42.37-1.01.38-.94.37 1.55.37-.46.38-.99.37-.05.38 1.98.37-.69.37-.62.38-.32.37-.69.38-.86.37 1.01.37-.17.38 5.51.37-.07.38.93.37.12.37-.52.38-.93.37 4.47.37-.53.38-.6.37.06.38-.93.37.21.37.54.38-.37.37-.4.38-.42.37-.42.37-.41.38 1.49.37-.33.38-.42.37-.35.37-.34.38-.37.37-.42.37-.36.38-.33.37-.43.38-.35.37-.34.37-.46.38-.4.37-.41.38 2.29.37-.21.37-.14.38-.17.37-.16.38-.15.37-.17.37-.23.38-.23.37-.2.38-.2.37-.17.37-.22.38-.21.37-.19.37-.24.38-.18.37-.21.38-.22.37-.21.37.6.38-.15.37-.23.38-.22.37-.19.37-.23.38-.18.37-.23.38-.27.37-.28.37.31.38-.24.37-.49.37 2.02.38-.23.37-.12.38-.07.37 1.05.37-.07.38.29.37.36.38-.06.37-.47.37-.25.38-.15.37-.24.38-.05.37-.67.37-1.03.38 1.72.37-.7.38-.41.37-.36.37 2.05.38-.65.37.95.37-.08.38-.01.37-.48.38 1.18.37.41.37-.26.38 1.05.37.39.38.33.37-.47.37-.16.38-.76.37.07.38-.55.37-1.08.37 1.14.38-.61.37-.93.37-1.46.38-1.3.37 4.57.38-.22.37-.73.37-1.55.38-.77.37-.76.38-.78.37-.74.37-.77.38 7.76.37-.45.38-.36.37-.46.37-.37.38-.4.37-.45.38-.45.37-.47.37-.46.38-.42.37-.42.37-.45.38-.48.37-.38.38-.46.37-.49.37-.5.38-.5.37-.53.38-.52.37-.52.37-.52.38-.2.37-.47.38-.47.37-.45.37-.52.38-.5.37-.48.37-.49.38-.5.37-.53.38-.51.37 12.49.37-.22.38-.17.37-.2.38-.22.37-.26.37-.3.38-.25.37-.23.38-.28.37-.28.37.54.38.08.37-.33.38-.4.37.56.37-.1.38-.38.37-.07.37 1.22.38-.26h.37l.38-.33.37.82.37-.08.38 3.69.37-.1.38.37.37-.3.37-.15.38.54.37.6.38.34.37.67.37-.01.38-.36.37.02.37-.27.38-.12.37.85.38-.51.37 1.74.37-.11.38-.39.37-.29.38.33.37-.12.37-.16.38-.89.37-1.22.38.35.37-.91.37-1.37.38-.14.37-.12.38-.42.37 1.48.37-.36.38.42.37-.75.37.71.38-.4.37-.41.38-.33.37-.38.37-.39.38-.44.37-.51.38-.48.37-.45.37-.43.38-.47.37-.19.38 1 .37-.47.37-.5.38-.43.37-.46.37 2.91.38-.48.37-.42.38-.43.37-.46.37-.49.38.54.37-.45.38-.52.37-.45.37-.5.38-.48.37-.43.38-.45.37-.43.37-.53.38-.48.37 2.11.38-.44.37-.41.37-.37.38-.4.37-.36.37-.42.38-.4.37-.39.38-.4.37 1.31.37-.27.38 11.83.37-.18.38-.15.37-.19.37-.27.38-.52.37-.25.38-.71.37-.37.37-.8.38 3.54.37-.12.37-.21.38-.61.37.11.38 3.55.37.12.37-.35.38-.37.37-.69.38.02.37.27.37-.15.38-.27.37.3.38.2.37.02.37-.32.38-.81.37-.85.38-.62.37-.59.37-.82.38.49.37-1.11.37-.31.38.58.37-.99.38.42.37-.43.37 5.57.38-.69.37.48.38-.44.37-.96.37-.76.38-.32.37.62.38.98.37.57.37-.09.38-.86.37 1.07.37 2.33.38-.02.37-.07.38-.09.37-.14.37-.12.38-.16.37-.25.38-.12.37-.09.37-.02.38-.2.37-.26.38-.24.37-.23.37-.22.38-.25.37-.29.38-.26.37-.32.37-.3.38-.31.37-.33.37-.38.38-.35.37-.38.38-.33.37-.38.37-.36.38-.34.37-.37.38-.36.37-.37.37-.42.38-.4.37-.41.38-.4.37-.4.37-.45.38 3.74.37-.23.37-.32.38-.34.37-.33.38-.32.37-.36.37-.29.38.24.37-.26.38-.25.37-.32"/><use xlink:href="#b" transform="matrix(3.75 0 0 3.75 113.62 169.64)"/><use xlink:href="#b" transform="matrix(3.75 0 0 3.75 220.55 7.51)"/></g><text fill="#000" stroke="none" stroke-linecap="round" stroke-linejoin="round" color="#000" font-family="KaTeX_Main" font-size="8" transform="translate(241.1 25.11)"><tspan>WBSTRelaxed</tspan></text><g fill="none" stroke="currentColor" stroke-linecap="round" stroke-linejoin="round" color="#000"><path stroke="#FFAB00" stroke-dasharray="4.0,2.0,1.0,2.0" d="M205.6 22.51h29.9M28 79.67l.37-1.48.38-1.41.37-1.5.38-1.46.37-1.43.37-1.42.38-1.38.37-1.37.38 66.96.37-.59.37-.7.38-.65.37-.6.37-.61.38-.6.37-.59.38-.56.37-.59.37-.5.38-.6.37-1.53.38-2.11.37-1.44.37-2.47.38-2.1.37 14.5.38-2.1.37-1.8.37-2.24.38-3 .37 14.32.37-1.15.38-1.62.37-2.41.38 12.33.37-1.93.37.65.38-1.02.37-1.45.38-1.53.37-2.28.37 11.21.38-1.3.37-.77.38.58.37-.82.37-1.82.38-1.3.37-1.8.38 6.72.37-.46.37-1.53.38.3.37-2.01.37-1.07.38-2.65.37 4.19.38-1.5.37-.27.37-1.62.38-.69.37-2.3.38-2.65.37-2.79.37 43.49.38-.18.37-.79.38.93.37-1.44.37.4.38-.77.37-.77.37-.77.38-.8.37-.79.38-.77.37-.82.37-.82.38-.84.37-.85.38-.85.37-.86.37-.83.38-.87.37-.87.38-.86.37-.91.37-.92.38-.89.37-.93.38-.87.37-.89.37-.85.38-.86.37-.87.37-.87.38-.81.37-.82.38-.84.37-.81.37-.82.38-.85.37-.81.38-.76.37-.81.37-.82.38-.84.37-.84.38-.84.37-.87.37-.84.38-.86.37-.78.37-.83.38-.84.37-.8.38-.78.37-.81.37-.81.38-.82.37-1.05.38-1.94.37 1.32.37-1.79.38-.43.37-2.18.38-1.62.37-.99.37-1.88.38-2.17.37-2.81.38 17.17.37-1.23.37-1.29.38-.28.37-1.66.37-1.5.38-2.06.37-1.05.38-2.07.37-2.1.37-2.98.38 13.41.37-.55.38-1.36.37-.59.37-1.83.38-1.14.37-2.32.38-.81.37-2.9.37-2.03.38-3.6.37 10.72.37-.05.38-1.3.37-2.16.38-1.13.37-2.7.37 1.03.38-2.41.37-1.62.38-3.06.37-3.65.37 1.29.38-2.07.37-3.95.38-1.47.37-4.36.37-3.6.38-.97.37-.82.38-.98.37-1.08.37-1 .38-1.07.37-.96.37-.96.38-1.04.37-.95.38-.94.37-1.06.37-.97.38-.97.37-.97.38-.91.37-1 .37-1.07.38-1.08.37-.94.38-.94.37-1.12.37-1.02.38-.99.37-1.04.37-.99.38-.93.37-1.07.38-1.04.37-1.09.37-1.01.38-.97.37-1.01.38-1.03.37-1.05.37-1.03.38-1.02.37-1.03.38 123.33.37-.39.37-.42.38-.36.37-.38.38-.39.37-.37.37-.38.38-.41.37-.37.37-.42.38-.4.37-.69.38.31.37-.13.37-.9.38-1.17.37 1.07.38-.79.37-.46.37-1.08.38-1.45.37-2.31.38 4.07.37-1.32.37.37.38-1.5.37-.82.37-2.15.38.64.37-1.4.38-1.32.37-2.34.37-2.4.38 12.96.37-1.34.38.11.37-.99.37-1.41.38-2.06.37 3.43.38-2.04.37-2.35.37 2.58.38-1.36.37-2.42.38-.36.37-2.14.37-2.14.38-4.09.37 6.33.37-1.36.38-2.81.37-.3.38-3.36.37-2.26.37-.28.38-2.76.37-3.44.38-2.83.37-4.3.37 40.44.38-.64.37-.71.38-.68.37-.68.37-.65.38-.7.37-.73.37-.75.38-.71.37-.73.38-.74.37-.71.37-.71.38-.72.37-.72.38-.75.37-.7.37-.76.38-.66.37-.76.38-.71.37-.72.37-.69.38-.73.37-.75.38-.72.37-.69.37-.71.38-.69.37-.73.37-.72.38-.7.37-.71.38-.64.37-.71.37-.68.38-.67.37-.75.38-.67.37-.69.37-.7.38-.64.37-.71.38-.64.37-.64.37-.59.38-.63.37-.7.37-.6.38-.59.37-.8.38-.69.37-1.19.37-.53.38-.77.37-1.74.38-1.79.37 1.48.37-1.41.38-1.24.37-1.14.38-1.62.37-2.23.37-1.12.38-2.38.37-3.04.38 23.18.37-1.24.37-1.07.38-2.09.37 2.83.37.36.38-.68.37-1.95.38.75.37-2.22.37-1.09.38-2.23.37 7.91.38-.69.37-.33.37-1.4.38.61.37-1.55.38-1.2.37-2.27.37 3.16.38-1.81.37-1.79.37-.39.38-2.68.37-1.8.38-3.91.37 15.37.37-.82.38-1.93.37-.18.38-2.5.37 1.68.37-1.26.38-1.4.37-1.35.38-1.33.37-1.34.37-1.35.38-1.31.37-1.39.38-1.35.37-1.43.37-1.31.38-1.29.37-1.28.37-1.26.38-1.31.37-1.29.38-1.23.37-1.16.37-1.25.38-1.23.37-1.18.38-1.21.37-1.21.37-1.21.38-1.17.37-1.19.38-1.2.37-1.17.37-1.13.38-1.2.37-1.17.37-1.16.38-1.16.37-1.11.38-1.16.37-1.14.37-1.01.38-1.02.37-1.08.38-1.05.37-1.08.37-1.07.38-1.09.37-1.04.38-1.04.37-1.02.37-1.02.38-1.04.37-1.01.38-.99.37-1.01.37-2.4.38-1.69.37-2.55.37 1.79.38-2.21.37-.82.38-2.6.37-2.42.37-2.59.38-1.36.37-2.21.38-3.26.37-2.96.37-3.49.38 40.62.37-.75.38-.52.37.46.37-1.38.38-.61.37 3.93.37 1.26.38-.12.37-.69.38-.79.37-1.64.37 1.34.38-.64.37-.78.38-1.52.37-2.91.37 18 .38.05.37-.48.38 4.74.37-.33.37 1.58.38.2.37-.14.38-1.12.37 1.51.37-.37.38-.97.37-1.41.37 9.82.38 1.29.37-.22.38-.59.37 2.03.37-.72.38-1.12.37-1.17.38-1.16.37-1.12.37-1.23.38-1 .37-1.16.38-1.08.37-1.18.37-1.15.38-1.01.37-1.16.37-1.16.38-1.07.37-1.24.38-1.12.37-1.09.37-1.11.38-1.1.37-1.08.38-1.18.37-1.12.37-1.09.38-1.21.37-1.15.38-1.06.37-1.16.37-1.09.38-1.08.37-1.08.37-1.1.38-1.08.37-1.01.38-1.01.37-1.11.37-1.1.38-1.03.37-1.04.38-1.1.37-.98.37-1.02.38-1.01.37-.99.38-1.04.37-1.01.37-.98.38-.95.37-.95.38-1.04.37-.96.37-1.25.38-1.97.37 1.13.37-1.02.38-1.71.37-.6.38-2.05.37-1.59.37-2.46.38 30.1.37-.76.38-.41.37-.94.37-1.72.38 3.91.37-.72.38-.21.37-1.28.37 1.2.38-.98.37-1.9.37-.33.38-1.32.37 11.65.38-.51.37-1.24.37.87.38-.96.37.16.38-1.84.37 8.66.37.5.38-.72.37.64.38-.62.37-2.04.37-.71.38 5.44.37-.11.38-.11.37-.63.37.34.38-1.03.37-2.24.37.92.38-2.78.37-2.12.38 21.68.37.79.37 1.6.38-.57.37-.63.38-.67.37-.61.37-.58.38-.44.37-.61.38-.57.37-.65.37-.7.38-.63.37-.56.37-.54.38-.54.37-.68.38-.68.37-.68.37-.75.38-.62.37-.74.38-.61.37-.71.37-.6.38-.67.37-.72.38-.58.37-.71.37-.71.38-.72.37-.7.38-.7.37-.68.37-.71.38-.74.37-.69.37-.68.38-.73.37-.68.38-.76.37-.72.37-.68.38-.66.37-.67.38-.72.37-.65.37-.69.38-.65.37-.68.38-.68.37-.68.37-.72.38 2.24.37.08.37-.88.38.19.37.15.38-1.1.37 2.13.37-.76.38-.8.37-1.63.38 1.15.37-1.2.37-.96.38-1.33.37 4.4.38-.8.37-.54.37.83.38-.75.37-1.65.38-1.19.37-2.29.37.82.38-.88.37-1.67.37-1.7.38 8.25.37-1.14.38-1.18.37-1.71.37-.45.38-.67.37-2.16.38-2.87.37 6.07.37-2.19.38-.74.37-2.67.38 1.07.37-1.43.37-2.41.38-2.24.37-2.18.37-2.83.38 33.87.37 1.75.38 2.07.37 2.88.37 1.19.38-.98.37-.97.38-1.01.37-.89.37-.94.38-.98.37-.88.38-.91.37-1.06.37-.98.38-.95.37-1.02.38-.97.37-1.02.37-.97.38-.84.37-1 .37-.97.38-1.02.37-.99.38-.98.37-.97.37-.98.38-.88.37-.99.38-.93.37-1.02.37-1 .38-.96.37-.99.38-.93.37-.9.37-.93.38-.89.37-.85.37-.92.38-.95.37-.93.38-.96.37-.91.37-.89.38-.81.37-.87.38-.89.37-.85.37-.89.38-.82.37-.88.38-.88.37-.84.37-.76.38.62.37-.52.38-1.02.37-1.16.37 1.87.38-1.05.37-.3.37-1.62.38.78.37-1.41.38-1.21.37-1.56.37 20.45.38.49.37-.23.38-.33.37-1.14.37 1.54.38-1.28.37.01.38-.66.37 4.2.37-1.02.38 1.15.37-1 .37-1.73.38 3.55.37-1.38.38.13.37-.49.37-1.61.38-1.67.37 15.42.38.7.37-.93.37 4.36.38-.31.37 2.06.38.29.37-.18.37-1.85.38 6.09.37.14.38 1.8.37.04.37.19.38-.91.37-.64.37 5.32.38-1.36.37-1.26.38-1.41.37-1.29.37-1.26.38-1.34.37-1.39.38-1.36.37-1.09.37-1.21.38-1.28.37-1.24.38-1.22.37-1.23.37-1.21.38-1.14.37-1.15.37-1.2.38-1.26.37-1.19.38-1.16.37-1.24.37-1.18.38-1.14.37-1.05.38-1.1.37-1.13.37-1.16.38-1.05.37-.98.38-1.14.37-1.09.37 119.34.38-.37.37-.38.38-.4.37-.42.37-.4.38-.4.37-.4.37-.41.38-.4.37-.4.38-.43.37-.42.37-.45.38-.41.37-.45.38-.43.37-.44.37-.45.38-1.26.37.2.38-1.17.37.14.37-1.07.38-.78.37-1.44.37-2.34.38 4.85.37-.87.38-1.96.37-.07.37-1.47.38-2.61.37 1.91.38-1.45.37-2.25.37-1.11.38-2.1.37-2.83.38 14.16.37-1.4.37 1.82.38-.61.37-1.31.38-.49.37-1.35.37-1.85.38.52.37-1.74.37-.42.38-1.98.37-3.25.38-2.33.37 7.3.37-1.99.38-.62.37-2.21.38-.49.37-2.2.37-2.15.38-3.18.37 1.01.38-2.73.37-1.72.37-2.82.38-4.06.37-3.85.37 40.24.38-.67.37-.71.38-.73.37-.78.37-.77.38-.78.37-.83.38-.77.37-.81.37-.81.38-.85.37-.85.38-.8.37-.85.37-.84.38-.83.37-.81.38-.82.37-.82.37-.79.38-.85.37-.84.37-.85.38-.83.37-.86.38-.89.37-.86.37-.83.38-.86.37-.86.38-.8.37-.86.37-.82.38-.83.37-.78.38-.77.37-.87.37-.85.38-.81.37-.76.37-.83.38-.74.37-.79.38-.81.37-.79.37-.74.38-.81.37-.77.38-.76.37-.72"/><use xlink:href="#h" color="#FFAB00" transform="matrix(3.75 0 0 3.75 171.2 124.8)"/><use xlink:href="#h" color="#FFAB00" transform="matrix(3.75 0 0 3.75 220.55 22.51)"/></g><path fill="none" stroke="none" stroke-linecap="round" stroke-linejoin="round" stroke-width="0" d="M28 45.01V205M371.99 45.01H28" color="#000"/></svg>