<svg xmlns="http://www.w3.org/2000/svg" xmlns:xlink="http://www.w3.org/1999/xlink" viewBox="0 0 400 250"><path fill="none" d="M0 0h400v250H0z"/><defs><use xlink:href="#b" id="h" fill="currentColor" stroke="none"/><use xlink:href="#b" id="c" stroke="currentColor" transform="rotate(180)"/><use xlink:href="#d" id="e" stroke="currentColor" transform="rotate(45)"/><use xlink:href="#e" id="g" fill="currentColor" stroke="none"/><path id="d" stroke="currentColor" stroke-width=".267" d="M-1-1h2v2h-2z"/><path id="b" stroke="currentColor" stroke-width=".267" d="m0-1.33-1.33 2h2.66z"/><path id="f" stroke="currentColor" stroke-width=".267" d="M0 1.33 1.265.411.782-1.067l-1.564-.009-.483 1.487z"/><circle id="a" cx="0" cy="0" r="1" stroke="currentColor" stroke-width=".267"/></defs><path fill="none" stroke="#000" stroke-linecap="round" stroke-linejoin="round" stroke-width=".1" d="M35.48 205V45.01" class="gridline" color="#000"/><g fill="none" stroke="none" stroke-linecap="round" stroke-linejoin="round" stroke-width="0" color="#000"><path d="M35.48 205v-7.5m0-152.49v7.5"/><text fill="#000" font-family="KaTeX_Main" font-size="10" text-anchor="middle" transform="translate(35.48 215.75)"><tspan> 1</tspan></text></g><path fill="none" stroke="#000" stroke-linecap="round" stroke-linejoin="round" stroke-width=".1" d="M72.87 205V45.01" class="gridline" color="#000"/><g fill="none" stroke="none" stroke-linecap="round" stroke-linejoin="round" stroke-width="0" color="#000"><path d="M72.87 205v-7.5m0-152.49v7.5"/><text fill="#000" font-family="KaTeX_Main" font-size="10" text-anchor="middle" transform="translate(72.87 215.75)"><tspan> 2</tspan></text></g><path fill="none" stroke="#000" stroke-linecap="round" stroke-linejoin="round" stroke-width=".1" d="M110.26 205V45.01" class="gridline" color="#000"/><g fill="none" stroke="none" stroke-linecap="round" stroke-linejoin="round" stroke-width="0" color="#000"><path d="M110.26 205v-7.5m0-152.49v7.5"/><text fill="#000" font-family="KaTeX_Main" font-size="10" text-anchor="middle" transform="translate(110.26 215.75)"><tspan> 3</tspan></text></g><path fill="none" stroke="#000" stroke-linecap="round" stroke-linejoin="round" stroke-width=".1" d="M147.65 205V45.01" class="gridline" color="#000"/><g fill="none" stroke="none" stroke-linecap="round" stroke-linejoin="round" stroke-width="0" color="#000"><path d="M147.65 205v-7.5m0-152.49v7.5"/><text fill="#000" font-family="KaTeX_Main" font-size="10" text-anchor="middle" transform="translate(147.65 215.75)"><tspan> 4</tspan></text></g><path fill="none" stroke="#000" stroke-linecap="round" stroke-linejoin="round" stroke-width=".1" d="M185.04 205V45.01" class="gridline" color="#000"/><g fill="none" stroke="none" stroke-linecap="round" stroke-linejoin="round" stroke-width="0" color="#000"><path d="M185.04 205v-7.5m0-152.49v7.5"/><text fill="#000" font-family="KaTeX_Main" font-size="10" text-anchor="middle" transform="translate(185.04 215.75)"><tspan> 5</tspan></text></g><path fill="none" stroke="#000" stroke-linecap="round" stroke-linejoin="round" stroke-width=".1" d="M222.43 205V45.01" class="gridline" color="#000"/><g fill="none" stroke="none" stroke-linecap="round" stroke-linejoin="round" stroke-width="0" color="#000"><path d="M222.43 205v-7.5m0-152.49v7.5"/><text fill="#000" font-family="KaTeX_Main" font-size="10" text-anchor="middle" transform="translate(222.43 215.75)"><tspan> 6</tspan></text></g><path fill="none" stroke="#000" stroke-linecap="round" stroke-linejoin="round" stroke-width=".1" d="M259.82 205V45.01" class="gridline" color="#000"/><g fill="none" stroke="none" stroke-linecap="round" stroke-linejoin="round" stroke-width="0" color="#000"><path d="M259.82 205v-7.5m0-152.49v7.5"/><text fill="#000" font-family="KaTeX_Main" font-size="10" text-anchor="middle" transform="translate(259.82 215.75)"><tspan> 7</tspan></text></g><path fill="none" stroke="#000" stroke-linecap="round" stroke-linejoin="round" stroke-width=".1" d="M297.21 205V45.01" class="gridline" color="#000"/><g fill="none" stroke="none" stroke-linecap="round" stroke-linejoin="round" stroke-width="0" color="#000"><path d="M297.21 205v-7.5m0-152.49v7.5"/><text fill="#000" font-family="KaTeX_Main" font-size="10" text-anchor="middle" transform="translate(297.21 215.75)"><tspan> 8</tspan></text></g><path fill="none" stroke="#000" stroke-linecap="round" stroke-linejoin="round" stroke-width=".1" d="M334.6 205V45.01" class="gridline" color="#000"/><g fill="none" stroke="none" stroke-linecap="round" stroke-linejoin="round" stroke-width="0" color="#000"><path d="M334.6 205v-7.5m0-152.49v7.5"/><text fill="#000" font-family="KaTeX_Main" font-size="10" text-anchor="middle" transform="translate(334.6 215.75)"><tspan> 9</tspan></text></g><path fill="none" stroke="#000" stroke-linecap="round" stroke-linejoin="round" stroke-width=".1" d="M371.99 205V45.01" class="gridline" color="#000"/><g fill="none" stroke="none" stroke-linecap="round" stroke-linejoin="round" stroke-width="0" color="#000"><path d="M371.99 205v-7.5m0-152.49v7.5"/><text fill="#000" font-family="KaTeX_Main" font-size="10" text-anchor="middle" transform="translate(371.99 215.75)"><tspan> 10</tspan></text></g><g fill="none" stroke="none" stroke-linecap="round" stroke-linejoin="round" stroke-width="0" color="#000"><path d="M371.99 205h-7.5"/><text fill="#000" font-family="KaTeX_Main" font-size="10" transform="translate(378.99 208.25)"><tspan>1.10</tspan></text></g><g fill="none" stroke="none" stroke-linecap="round" stroke-linejoin="round" stroke-width="0" color="#000"><path d="M371.99 189h-7.5"/><text fill="#000" font-family="KaTeX_Main" font-size="10" transform="translate(378.99 192.25)"><tspan>1.20</tspan></text></g><g fill="none" stroke="none" stroke-linecap="round" stroke-linejoin="round" stroke-width="0" color="#000"><path d="M371.99 173h-7.5"/><text fill="#000" font-family="KaTeX_Main" font-size="10" transform="translate(378.99 176.25)"><tspan>1.30</tspan></text></g><g fill="none" stroke="none" stroke-linecap="round" stroke-linejoin="round" stroke-width="0" color="#000"><path d="M371.99 157h-7.5"/><text fill="#000" font-family="KaTeX_Main" font-size="10" transform="translate(378.99 160.25)"><tspan>1.40</tspan></text></g><g fill="none" stroke="none" stroke-linecap="round" stroke-linejoin="round" stroke-width="0" color="#000"><path d="M371.99 141h-7.5"/><text fill="#000" font-family="KaTeX_Main" font-size="10" transform="translate(378.99 144.25)"><tspan>1.50</tspan></text></g><g fill="none" stroke="none" stroke-linecap="round" stroke-linejoin="round" stroke-width="0" color="#000"><path d="M371.99 125h-7.5"/><text fill="#000" font-family="KaTeX_Main" font-size="10" transform="translate(378.99 128.25)"><tspan>1.60</tspan></text></g><g fill="none" stroke="none" stroke-linecap="round" stroke-linejoin="round" stroke-width="0" color="#000"><path d="M371.99 109.01h-7.5"/><text fill="#000" font-family="KaTeX_Main" font-size="10" transform="translate(378.99 112.26)"><tspan>1.70</tspan></text></g><g fill="none" stroke="none" stroke-linecap="round" stroke-linejoin="round" stroke-width="0" color="#000"><path d="M371.99 93.01h-7.5"/><text fill="#000" font-family="KaTeX_Main" font-size="10" transform="translate(378.99 96.26)"><tspan>1.80</tspan></text></g><g fill="none" stroke="none" stroke-linecap="round" stroke-linejoin="round" stroke-width="0" color="#000"><path d="M371.99 77.01h-7.5"/><text fill="#000" font-family="KaTeX_Main" font-size="10" transform="translate(378.99 80.26)"><tspan>1.90</tspan></text></g><g fill="none" stroke="none" stroke-linecap="round" stroke-linejoin="round" stroke-width="0" color="#000"><path d="M371.99 61.01h-7.5"/><text fill="#000" font-family="KaTeX_Main" font-size="10" transform="translate(378.99 64.26)"><tspan>2.00</tspan></text></g><g fill="none" stroke="none" stroke-linecap="round" stroke-linejoin="round" stroke-width="0" color="#000"><path d="M371.99 45.01h-7.5"/><text fill="#000" font-family="KaTeX_Main" font-size="10" transform="translate(378.99 48.26)"><tspan>2.10</tspan></text></g><path fill="none" stroke="none" stroke-linecap="round" stroke-linejoin="round" stroke-width="0" d="M28 45.01V205M371.99 45.01H28" color="#000"/><text fill="#000" stroke="none" stroke-linecap="round" stroke-linejoin="round" stroke-width="0" color="#000" font-family="KaTeX_Main" font-size="10" text-anchor="middle" transform="rotate(-90 68.255 56.755)"><tspan font-weight="bold">Maximum Path Length </tspan><tspan> / log</tspan><tspan dy="3" font-size="8">2</tspan><tspan dy="-3">(Size)</tspan></text><text fill="#000" stroke="none" stroke-linecap="round" stroke-linejoin="round" stroke-width="0" color="#000" font-family="KaTeX_Main" font-size="10" text-anchor="middle" transform="translate(199.99 238.25)"><tspan>Operations × 10</tspan><tspan dy="-5" font-size="8">5</tspan></text><text fill="#000" stroke="none" stroke-linecap="round" stroke-linejoin="round" color="#000" font-family="KaTeX_Main" font-size="8" transform="translate(132.8 10.11)"><tspan>LBSTBottomUp</tspan></text><g fill="none" stroke="currentColor" stroke-linecap="round" stroke-linejoin="round" color="#000"><path stroke="#3B75EA" d="M97.3 7.51h29.9M28 184.53l.37.22.38.21.37.21.38.21.37.2.37.21.38.19.37.2.38.19.37.19.37.19.38.19.37.18.37.18.38.18.37.18.38.17.37.17.37.17.38.17.37-.17.38-.17.37-.17.37-.17.38-.18.37-.18.38-.18.37-.18.37-.19.38-.19.37-.19.37-.19.38-.2.37-.19.38-.21.37-.2.37-.21.38-.21.37-.21.38-.22.37-.22.37-.22.38-.22.37-.23.38-.24.37-.23.37-.24.38-.25.37-.24.38-.26.37-.25.37-.26.38-.27.37-.27.37-.28.38-.28.37-.28.38-.29.37-.3.37-.3.38-.31.37-.32.38-.32.37-.33.37-.33.38-.34.37-.35.38-.36.37-.37.37-.37.38 10.61.37-9.87.37.36.38.35.37.34.38.33.37.33.37.32.38.32.37.31.38.3.37.3.37.29.38.28.37.28.38.28.37.27.37.27.38.26.37.25.38.26.37.24.37.25.38.24.37.23.37.24.38.23.37.22.38.22.37.22.37.22.38.21.37.21.38-9.57.37 9.98.37.21.38.19.37.2.38.19.37.19.37.19.38.19.37.18.37.18.38.18.37.18.38.17.37.17.37.17.38.17.37-.17.38-.17.37-.17.37-.17.38-.18.37-.18.38-.18.37-.18.37-.19.38-.19.37-.19.38-.19.37-.2.37-.19.38-.21.37-.2.37-.21.38-.21.37-.21.38-.22.37-.22.37-.22.38-.22.37 9.63.38-.22.37-.22.37-.23.38-.23.37-.24.38-.24.37-.24.37-.25.38-.25.37-.26.37-.26.38-.27.37-.27.38-.27.37-.29.37-.28.38-.3.37-.3.38-.3.37-.31.37-.32.38-.32.37-.34.38-.34.37-.34.37-.36.38.36.37.34.38.34.37.34.37.32.38.32.37.31.37.3.38.3.37.3.38-9.78.37.3.37.29.38 10.3.37.27.38-9.73.37.27.37.27.38.26.37.25.38.26.37.24.37.25.38.24.37.23.37.24.38.23.37.22.38.22.37.22.37.22.38.21.37.21.38.21.37.2.37.21.38.19.37.2.38.19.37.19.37.19.38-9.52.37.2.38.19.37.18.37.19.38.18.37.18.37.18.38.18.37-.18.38-.18.37-.18.37-.18.38-.19.37-.18.38-.19.37-.2.37-.19.38-.2.37-.2.38-.2.37-.21.37-.21.38-.21.37-.21.37-.22.38-.22.37-.22.38-.23.37-.23.37-.23.38-.24.37-.24.38-.24.37-.25.37-.26.38-.25.37 9.67.38-.26.37-.25.37-.26.38-.27.37-.27.38-.28.37-.28.37-.28.38-.29.37-.3.37-.3.38-.31.37-.32.38-.32.37-.33.37-.33.38-.34.37-.35.38-.36.37-.37.37-.37.38.37.37 10.58.38.34.37.34.37.32.38.32.37.31.37-9.81.38.32.37.31.38.3.37.3.37.29.38.28.37 10.29.38.26.37.26.37.25.38.25.37.24.38-9.68.37.24.37.25.38.24.37.23.38.24.37.23.37.22.38.22.37.22.37.22.38.21.37-9.58.38.22.37.21.37.21.38.21.37.21.38.2.37.2.37.2.38.19.37.2.38.19.37.18.37.19.38.18.37.18.37.18.38.18.37-.18.38-.18.37-.18.37-.18.38-.19.37-.18.38-.19.37-.2.37-.19.38-.2.37-.2.38-.2.37-.21.37-.21.38-.21.37-.21.38-.22.37-.22.37-.22.38-.23.37-.23.37-.23.38-.24.37-.24.38-.24.37-.25.37 9.65.38-.25.37-.24.38-.26.37-.25.37-.26.38-.27.37-.27.38-.28.37-.28.37-.28.38-.29.37-.3.37-.3.38-.31.37-.32.38-.32.37-.33.37-.33.38-.34.37-.35.38-.36.37-.37.37-.37.38.37.37.37.38.36.37.35.37.34.38.33.37.33.38.32.37.32.37.31.38.3.37.3.37.29.38.28.37.28.38.28.37.27.37.27.38.26.37.25.38-9.67.37.26.37.25.38.26.37.25.38.24.37.24.37.24.38.23.37.23.37.23.38.22.37.22.38.22.37.21.37 9.98.38.19.37.2.38.19.37.19.37.19.38.19.37-9.51.38.19.37 9.86.37-9.49.38.18.37.18.38.18.37.18.37 9.46.38-.17.37-.17.37-.17.38-.18.37-.18.38-.18.37-.18.37-.19.38-.19.37-.19.38-.19.37-.2.37-.19.38-.21.37-.2.38-.21.37-.21.37-.21.38-.22.37-.22.37-.22.38-.22.37-.23.38-.24.37-.23.37-.24.38-.25.37-.24.38-.26.37-.25.37-.26.38-.27.37 9.72.38-.26.37-.27.37-.27.38-.27.37-.29.38-.28.37-.3.37-.3.38-.3.37-.31.37-.32.38-.32.37-.34.38-.34.37-.34.37-.36.38.36.37.34.38.34.37.34.37.32.38.32.37.31.38.3.37.3.37.3.38-9.78.37 10.35.37.27.38.27.37.27.38.26.37-9.72.37.27.38.26.37.25.38.26.37 10.16.37.23.38.23.37.22.38.22.37-9.63.37.22.38.22.37 10.05.37.2.38-9.6.37.21.38.21.37-9.57.37 9.98.38.19.37.2.38.19.37-9.53.37.2.38.19.37.2.38.19.37.18.37.19.38.18.37.18.38.18.37.18.37-.18.38-.18.37-.18.37-.18.38-.19.37-.18.38 9.5.37-.18.37-.19.38-.19.37-.19.38-.19.37-.2.37-.19.38-.21.37-.2.38-.21.37-.21.37-.21.38-.22.37-.22.37-.22.38-.22.37-.23.38-.24.37-.23.37-.24.38-.25.37-.24.38-.26.37-.25.37-.26.38-.27.37-.27.38-.28.37-.28.37-.28.38-.29.37-.3.38 9.78.37-.3.37-.3.38-.3.37-.31.37-.32.38-.32.37-.34.38-.34.37-.34.37-.36.38.36.37.34.38.34.37.34.37.32.38.32.37.31.38.3.37.3.37-9.78.38.3.37.3.37.29.38.28.37 10.29.38-9.73.37.27.37.27.38.26.37.25.38.26.37.24.37.25.38.24.37.23.38.24.37-9.63.37.24.38.23.37.23.38.23.37.22.37 10.01.38.21.37.2.37.21.38.19.37.2.38.19.37.19.37.19.38.19.37.18.38.18.37.18.37-9.49.38 9.84.37.17.38.17.37.17.37-.17.38-.17.37-.17.37-.17.38-.18.37-.18.38-.18.37-.18.37-.19.38-.19.37-.19.38-.19.37-.2.37-.19.38-.21.37-.2.38-.21.37-.21.37-.21.38-.22.37-.22.38-.22.37-.22.37-.23.38-.24.37-.23.37-.24.38-.25.37-.24.38 9.68.37-.24.37-.25.38-.25.37-.26.38-.26.37-.27.37-.27.38-.27.37-.29.38-.28.37-.3.37-.3.38-.3.37-.31.37-.32.38-.32.37-.34.38-.34.37-.34.37-.36.38.36.37-9.87.38.36.37.35.37.34.38.33.37.33.38.32.37.32.37.31.38.3.37.3.38.29.37.28.37.28.38.28.37.27.37.27.38.26.37.25.38.26.37.24.37.25.38-9.65.37 10.12.38.24.37.23.37-9.62.38 10.06.37.22.38.22.37-9.59.37.22.38.22.37.21.37-9.55.38 9.97.37 9.95.38.19.37.19.37.19.38.19.37.18.38.18.37.18.37-9.49.38.18.37.18.38.18.37.18.37-.18.38-.18.37-.18.38-.18.37-.19.37-.18.38-.19.37-.2.37-.19.38-.2.37-.2.38-.2.37-.21.37-.21.38-.21.37-.21.38-.22.37-.22.37-.22.38-.23.37-.23.38-.23.37-.24.37-.24.38-.24.37-.25.37-.26.38 9.66.37-.24.38-.26.37-.25.37-.26.38-.27.37-.27.38-.28.37 9.74.37-.27.38-.27.37-.29.38-.28.37-.3.37-.3.38-.3.37-.31.38-.32.37-.32.37-.34.38-.34.37-.34.37-.36.38-9.88.37.37.38.36.37.35.37.34.38 10.48.37-9.82.38.32.37.32.37.31.38.3.37.3.38.29.37.28.37.28.38.28.37.27.37.27.38.26.37.25.38.26.37.24.37.25.38.24.37.23.38.24.37.23.37.22.38.22.37.22.38.22.37.21.37-9.58.38.22.37.21.38.21.37.21.37.21.38.2.37 9.92.37.19.38.19.37.18.38.18.37.18.37.18.38.17.37.17.38.17.37.17.37-.17.38-.17.37-.17.38-.17.37-.18.37-.18.38-.18.37-.18.37-.19.38 9.53.37-.18.38-.18.37-.19.37-.19.38-.19.37-.19.38-.2.37-.2.37-.2.38-.2.37-.21.38-.21.37-.22.37-.22.38-.22.37-.22.38-.23.37-.23.37-.24.38-.24.37-.24.37-.25.38-.25.37-.26.38-.26.37-.27.37-.27.38-.27.37-.29.38-.28.37-.3.37-.3.38-.3.37-.31.38-.32.37-.32.37-.34.38-.34.37-.34.37-.36.38.36.37.34.38.34.37.34.37.32.38.32.37.31.38.3.37.3.37.3.38.28.37.29.38.27.37.27.37.27.38.26.37.26.38.25.37.25.37.24.38.24.37.24.37.23.38.23.37.22.38.22.37.22.37.22.38-9.63.37.22.38.22.37.21.37.21.38.21.37.2.38.21.37.19.37.2.38.19.37.19.37.19.38.19.37.18.38-9.5.37.18.37.19.38.18.37.18.38.18.37.18"/><use xlink:href="#a" color="#3B75EA" transform="matrix(3.75 0 0 3.75 342.45 194.15)"/><use xlink:href="#a" color="#3B75EA" transform="matrix(3.75 0 0 3.75 112.25 7.51)"/></g><text fill="#000" stroke="none" stroke-linecap="round" stroke-linejoin="round" color="#000" font-family="KaTeX_Main" font-size="8" transform="translate(132.8 25.11)"><tspan>LBSTRelaxed</tspan></text><g fill="none" stroke="currentColor" stroke-linecap="round" stroke-linejoin="round" color="#000"><path stroke="violet" stroke-dasharray="4.5,2.0,0.5,2.0,0.5,2.0" d="M97.3 22.51h29.9M28 105.95l.37.3.38.3.37.3.38.29.37.28.37.28.38.28.37.27.38.27.37.27.37.27.38.25.37.26.37-9.43.38.26.37.26.38.25.37.25.37-9.39.38.25.37-.25.38-.26.37-.26.37-.26.38-.26.37-.27.38-.28.37-.27.37-.28.38-.28.37-.29.37-.29.38-.29.37-.3.38-.3.37-.3.37-.32.38-.31.37 9.49.38-.31.37-.32.37-.32.38-.33.37-.33.38-.34.37-.34.37-.35.38-.35.37 9.56.38-.35.37-.36.37-.37.38-.37.37-.38.37-.38.38-.39.37-.4.38-.41.37-.42.37-.42.38-.43.37-.44.38-.45.37-.46.37-.47.38-.48.37-.49.38-.5.37-.51.37-.52.38.52.37.51.37.5.38.49.37-9.68.38.49.37.47.37.47.38.45.37.45.38.44.37.43.37.42.38.42.37.4.38.4.37.39.37.39.38.38.37.37.38.37.37-9.56.37.37.38.36.37.35.37.35.38.35.37-9.51.38.34.37.34.37.34.38.33.37.32.38.32.37.32.37.31.38.31.37.3.38.3.37.3.37.29.38.29.37.28.37.28.38.28.37.27.38.27.37.27.37.26.38.27.37 9.38.38-.26.37-.26.37-.26.38-.26.37-.27.38-.28.37-.27.37-.28.38-.28.37-.29.38-.29.37-.29.37-.3.38-.3.37-.3.37-.32.38-.31.37-.32.38 9.5.37-.32.37-.32.38-.33.37-.33.38-.34.37-.34.37-.35.38-.35.37-.36.38-.37.37-.37.37-.38.38-.39.37-.39.37-.4.38-.4.37-.42.38-.42.37-.43.37-.44.38-.45.37-.45.38-.47.37-.47.37-.49.38-.49.37-.51.38-.52.37-.53.37-.55.38.55.37-9.68.38.53.37.53.37.51.38-9.64.37.51.37.5.38.48.37 30.72.38-9.64.37.43.37.42.38.42.37.4.38.4.37.39.37.39.38-9.58.37.39.38.38.37.37.37.37.38.36.37.35.37.35.38.35.37.33.38.34.37.33.37.32.38.32.37.31.38.32.37.3.37.3.38.3.37.29.38-9.44.37.3.37.29.38.29.37.28.38.28.37.28.37-19.06.38.29.37.28.37.28.38.28.37-.28.38-.28.37-.28.37-.29.38-.29.37-.3.38-.3.37-.3.37-.3.38-.31.37-.32.38-.32.37-.32.37-.33.38-.33.37-.34.37-.34.38 9.46.37-.34.38-.35.37-.35.37 9.49.38 9.51.37-.35.38-.35.37-.35.37-.36.38-.37.37-.37.38-.38.37-.39.37-.39.38-.4.37-.4.38-.41.37-.43.37-.42.38-.44.37-.45.37-.45.38-.46.37-.47.38-.48.37-.5.37-.5.38 30.02.37-.47.38-.49.37-.49.37-.51.38.51.37.49.38.49.37.47.37.46.38.45.37.45.37.43.38.42.37.42.38.41.37.4.37.39.38.39.37.38.38.37.37.36.37.36.38.35.37.35.38.34.37.34.37.33.38.32.37.32.38.31.37.31.37.31.38.3.37.3.37.29.38.28.37.29.38.28.37.27.37.27.38.27.37-19.22.38.28.37.28.37.27.38.27.37.27.38.26.37.26.37.26.38.25.37.25.37.25.38.24.37-.24.38-.25.37-.25.37-.25.38-.26.37-.26.38-.26.37-.27.37-.27.38-.27.37-.28.38-.28.37-.28.37-.29.38 9.48.37-.28.38-.29.37-.3.37-.3.38-.3.37-.3.37-.32.38-.31.37-.32.38-.33.37-.33.37-.34.38-.34.37-.35.38-.35.37-.36.37-.37.38-.37.37-.38.38-.38.37-.39.37-.4.38-.41.37-.42.37-.42.38-.43.37-.44.38-.45.37 9.68.37-.45.38-.46.37-.47.38-.49.37-.49.37-.51.38.51.37.49.38-9.71.37.49.37.48.38.47.37.46.38.45.37.44.37.43.38.42.37.42.37.41.38.4.37.39.38.38.37.38.37.37.38-9.58.37.37.38.37.37.36.37.35.38.35.37.34.38.34.37-9.52.37.33.38.34.37.33.37.32.38.32.37.31.38.32.37.3.37.3.38.3.37.29.38.29.37.29.37.28.38.28.37-9.42.38.28.37.28.37.27.38-9.38.37.27.38.27.37.27.37-.27.38-.27.37-.27.37-.28.38-.29.37-.28.38-.29.37-.3.37-.29.38-.3.37-.31.38-.31.37-.31.37-.32.38-.32.37-.33.38-.33.37 9.47.37-.33.38-.34.37-.34.37-.34.38-.35.37-.36.38-.36.37-.36.37-.38.38-.37.37-.39.38-.39.37-.4.37-.4.38-.42.37-.41.38-.43.37-.44.37-.44.38-.45.37-.46.38-.47.37 9.62.37-.47.38-.48.37-.5.37-.5.38-.51.37 9.67.38-.52.37-.53.37-.55.38.55.37.53.38.52.37.51.37.49.38.49.37.47.38.47.37.45.37.45.38.44.37.43.37.42.38.42.37.4.38.4.37.39.37.39.38.38.37.37.38.37.37-9.56.37.37.38.36.37.35.38.35.37.35.37.33.38.34.37.33.37.32.38.32.37.31.38.32.37.3.37-9.46.38.31.37.3.38.3.37.3.37.29.38.29.37.28.38-9.4.37.28.37.29.38.28.37.27.38.27.37.27.37-.27.38-.27.37-.27.37-.28.38-.29.37-.28.38-.29.37-.3.37-.29.38-.3.37-.31.38-.31.37-.31.37-.32.38-.32.37-.33.38-.33.37-.33.37-.34.38-.35.37-.35.37-.36.38-.36.37-.36.38-.38.37 9.52.37-.38.38-.37.37-.39.38-.39.37-.4.37-.4.38-.42.37-.41.38-.43.37-.44.37-.44.38-.45.37-.46.38-.47.37-.48.37-.48.38-.5.37-.51.37-.52.38-.53.37-.54.38 9.66.37-.55.37-.56.38.56.37.55.38.53.37.53.37.51.38.5.37.5.38.48.37.47.37.46.38.45.37.45.37.44.38.42.37.43.38.41.37.4.37.4.38.39.37.39.38.38.37.37.37.37.38.36.37.35.38.35.37.35.37.33.38.34.37.33.38.32.37-9.48.37.32.38.32.37.32.37.31.38.31.37.3.38.3.37.3.37.29.38-9.42.37.3.38.29.37.28.37.29.38.28.37 106.41.38-9.46.37.19.37-.19.38-.19.37-.19.37-.19.38-.19.37-.2.38-.2.37-.2.37-.2.38-.21.37-.21.38-.21.37-.22.37-.22.38-.22.37-.22.38-.23.37-.23.37-.23.38-.24.37-.24.38-.25.37-.25.37-.25.38-.25.37-.26.37-.27.38-.27.37-.27.38-.28.37-.28.37-.29.38-.29.37-.3.38-.3.37-.31.37-.31.38-.32.37-.33.38-.33.37-.34.37-.35.38-.35.37-.36.37-.37.38-.38.37-.38.38-.39.37-.41.37 9.84.38.39.37-9.82.38.39.37.38.37.38.38.37.37.36.38.35.37-9.75.37.36.38.35.37.34.38-9.7.37.34.37.34.38.33.37.32.37.32.38-9.64.37.32.38.32.37.31.37.3.38.3.37.3.38.29.37.29.37.28.38.28.37.27.38.27.37.27.37.26.38.26.37-9.52.37.26.38.26.37.26.38-9.48.37-9.47.37.27.38.25.37.26.38.26.37.25.37.24.38.25.37-9.41.38-9.39.37-9.38.37-.27.38-.26.37-.27.38-.27.37-.27.37-.28.38-.28.37-.28.37-.29.38-.29.37-.3.38-.3.37-.3.37-.31.38-.31.37-.32.38-.32.37-.32.37-.33.38-.34.37-.34.38-.34.37-.35.37-.36.38-.36.37-.36.37-.38.38-.37.37-.39.38-.39.37-.4.37-.4.38-.42.37-.41.38-.43.37-.44.37-.44.38-.45.37-.46.38-.47.37-.48.37 9.63.38-.48.37-.5.38-.5.37-.51.37-.53.38-.53.37-.55.37-.56.38.56.37.55.38.53.37.53.37.51.38.5.37.5.38.48.37.47.37.46.38.45.37.45.38.44.37.42.37.43.38.41.37.4.37.4.38.39.37.39.38.38.37.37.37.37.38.36.37.35.38.35.37.35.37.33.38.34.37.33.38.32.37.32.37.31.38.32.37.3.38.3.37.3.37.29.38-9.44.37.3.37.29.38.29.37.28.38.28.37.28.37.27.38-9.38.37.27.38 106.32.37-9.45.37-.19.38-.19.37-.19.38-.19.37-.19.37-.2.38-.2.37-.2.37-.2.38-.21.37-.21.38-.21.37-.22.37-.22.38-.22.37-.22.38-.23.37-.23.37-.23.38-.24.37-.24.38-.25.37-.25.37-.25.38 9.63.37-.25.38-.26.37-.25.37-.26.38-.27.37-.27.37-.27.38-.28.37-.29.38-.28.37-.3.37-.3.38 9.75.37-.3.38-.3.37-.31.37-.32.38-.32.37-.33.38-.33.37-.34.37-.35.38-.36.37-.37.37-.37.38-9.86.37-9.82.38.39.37.38.37.38.38-9.78.37-9.74.38.38.37.38.37.37.38-9.7.37.37.38.36.37.36.37.35.38.34.37.34.38.33.37.33.37-9.62.38.33.37.32.37.32.38.31.37.31.38.3.37.3.37.29.38.29.37.29.38-9.53.37.28.37.29.38.28.37.27.38.27.37.27.37.27.38.26.37.25.37.26.38.25.37.25.38.24.37-9.43.37.24.38.25.37.24.38.24.37.23"/><use xlink:href="#g" color="violet" transform="matrix(3.75 0 0 3.75 56.04 86.35)"/><use xlink:href="#g" color="violet" transform="matrix(3.75 0 0 3.75 112.25 22.51)"/></g><text fill="#000" stroke="none" stroke-linecap="round" stroke-linejoin="round" color="#000" font-family="KaTeX_Main" font-size="8" transform="translate(241.1 10.11)"><tspan>WBSTBottomUp</tspan></text><g fill="none" stroke="currentColor" stroke-linecap="round" stroke-linejoin="round" color="#000"><path stroke="#000" d="M205.6 7.51h29.9M28 164.89l.37.24.38.23.37.23.38.23.37-9.55.37.23.38.23.37.23.38.22.37.22.37.21.38.22.37.21.37.21.38.2.37.21.38 9.85.37.19.37.19.38.19.37-.19.38-.19.37-.19.37-.19.38-.19.37-.2.38-.2.37-.2.37-.2.38-.21.37-.21.37-.21.38-.22.37-.22.38-.22.37-.22.37-.23.38-.23.37-.23.38-.24.37-.24.37-.25.38-.25.37-.25.38 9.63.37-.25.37-.26.38-.25.37-.26.38-.27.37-.27.37-.27.38-.28.37-.29.37-.28.38-.3.37-.3.38-.3.37-.31.37-.32.38-.33.37-.33.38-.33.37-.35.37-.35.38-.36.37-.37.38-.37.37-.39.37-.39.38.39.37.39.37.37.38.37.37.36.38.35.37.35.37.33.38.33.37.33.38.32.37.31.37.3.38.3.37-9.71.38.3.37.3.37.29.38.29.37.28.38.28.37.27.37.27.38.27.37.26.37 10.12.38-9.62.37.25.38.25.37.24.37.24.38.23.37.23.38.23.37.22.37.22.38.22.37.22.38.21.37-9.51.37.21.38.22.37.21.37.21.38.2.37.21.38.2.37.2.37.19.38.19.37-.19.38-.19.37-.2.37-.2.38-.21.37-.2.38-.21.37-.21.37-.22.38-.21.37-.22.38-.22.37-.23.37-.23.38 9.54.37-.22.37-.23.38-.23.37-.23.38-.24.37-.24.37-.25.38 9.61.37-.24.38-.24.37-.25.37-.26.38-.25.37-.26.38-.27.37-.27.37-.27.38-.28.37-.29.37-.28.38-.3.37-.3.38-.3.37-.31.37-.32.38-.33.37-.33.38-.33.37-.35.37-.35.38-.36.37-.37.38-.37.37-.39.37-.39.38.39.37.39.38.37.37.37.37.36.38.35.37.35.37.33.38.33.37.33.38.32.37-9.74.37 10.35.38.3.37.3.38.28.37.29.37-9.69.38.29.37.28.38.28.37.27.37.27.38.27.37.26.37.25.38.25.37.25.38.25.37.24.37-9.58.38 10.05.37.23.38.23.37.22.37.22.38-9.53.37.23.38.22.37.22.37.21.38.22.37.21.38.21.37.2.37.21.38.2.37.2.37.19.38.19.37-.19.38-.19.37-.2.37-.2.38-.21.37-.2.38-.21.37-.21.37 9.5.38-.21.37-.21.38-.21.37-.22.37-.22.38-.22.37-.22.37-.23.38-.23.37-.23.38-.24.37-.24.37-.25.38-.25.37-.25.38-.25.37-.26.37-.27.38-.27.37-.27.38-.28.37-.28.37-.29.38-.29.37-.3.38-.3.37-.31.37-.31.38-.32.37-.33.37 9.75.38-.33.37-.33.38-.33.37-.35.37-.35.38-.36.37-.37.38-.37.37-.39.37-.39.38.39.37.39.38.37.37.37.37-9.8.38.37.37.36.37.35.38.35.37.34.38 10.4.37.31.37.3.38.3.37.3.38.28.37.29.37.28.38.27.37.27.38.27.37-9.66.37.27.38.27.37.26.38.25.37.25.37.25.38.25.37.24.37.24.38.23.37.23.38.23.37.22.37-9.54.38.23.37.23.38.22.37.22.37.21.38.22.37.21.38.21.37.2.37-9.46.38 9.87.37.2.37.19.38 9.83.37-.19.38-.19.37-.19.37-.19.38-.19.37-.2.38-.2.37-.2.37-.2.38-.21.37-.21.38-.21.37-.22.37-.22.38-.22.37-.22.38-.23.37-.23.37-.23.38-.24.37-.24.37-.25.38-.25.37-.25.38-.25.37-.26.37-.27.38-.27.37-.27.38-.28.37-.28.37-.29.38-.29.37-.3.38-.3.37-.31.37-.31.38-.32.37-.33.37-.33.38 9.75.37-.33.38-.33.37-.35.37-.35.38-.36.37-.37.38-.37.37-.39.37-.39.38.39.37.39.38.37.37.37.37-9.8.38.37.37.36.38.35.37.35.37.34.38.33.37.33.37.32.38.31.37.31.38.3.37.3.37.29.38.29.37-9.66.38.29.37 10.2.37.27.38.27.37.26.38.25.37.25.37.25.38.25.37.24.37.24.38.23.37.23.38.23.37.22.37.22.38.22.37.22.38-9.52.37.22.37.21.38.22.37.21.38.21.37.2.37 9.87.38.19.37.19.38.19.37-9.45.37-.19.38-.19.37-.2.37-.2.38-.21.37-.2.38-.21.37-.21.37-.22.38-.21.37-.22.38-.22.37-.23.37-.23.38-.23.37-.23.38 9.55.37-.23.37-.23.38-.24.37-.24.37-.25.38-.25.37-.25.38-.25.37-.26.37-.27.38-.27.37-.27.38-.28.37-.28.37-.29.38-.29.37-.3.38-.3.37-.31.37-.31.38-.32.37-.33.38-.33.37-.34.37-.35.38-.35.37-.36.37-.37.38-.38.37-.38.38 9.82.37-.39.37-.39.38.39.37.39.38.37.37.37.37.36.38.35.37-9.78.38 10.46.37-9.76.37 10.42.38.32.37.31.37.3.38.3.37.3.38.28.37-9.69.37.29.38.29.37.28.38.28.37.27.37.27.38.27.37.26.38.25.37.25.37.25.38.25.37.24.37.24.38.23.37.23.38.23.37.22.37.22.38.22.37-9.52.38.22.37 9.94.37.21.38.2.37.2.38.2.37.2.37.19.38.19.37-9.45.38.19.37.19.37-.19.38-.19.37-.2.37-.2.38-.21.37-.2.38-.21.37-.21.37-.22.38-.21.37-.22.38-.22.37-.23.37-.23.38-.23.37-.23.38-.24.37-.24.37-.25.38-.24.37-.26.37-.25.38-.26.37-.26.38-.27.37-.28.37-.27.38-.28.37-.29.38-.29.37-.29.37-.3.38-.31.37-.31.38-.32.37-.32.37-.33.38-.33.37-.34.38-.35.37-.36.37-.36.38-.37.37 9.77.37-.37.38-.38.37-.38.38-.39.37-.41.37-.41.38.41.37.41.38.39.37.38.37.38.38.37.37.36.38.35.37.35.37.34.38.33.37.33.37.32.38.31.37.31.38.3.37.3.37.29.38.29.37.28.38-9.65.37.29.37.28.38.27.37.28.38.27.37.26.37.26.38.25.37.26.38.24.37.25.37.24.38.24.37.23.37.23.38.23.37.23.38.22.37.22.37.21.38.22.37.21.38.21.37.2.37.21.38.2.37.2.38.19.37.19.37 9.45.38-.19.37-.19.37-.19.38-.19.37-.2.38-.2.37-.2.37-.2.38-.21.37-.21.38-.21.37-.22.37-.22.38-.22.37-.22.38-.23.37-.23.37-.23.38-.24.37-.24.38-.25.37-.25.37-.25.38-.25.37-.26.37-.27.38-.27.37-.27.38-.28.37-.28.37-.29.38-.29.37-.3.38-.3.37-.31.37-.31.38-.32.37-.33.38-.33.37-.34.37-.35.38-.35.37-.36.37-.37.38-.38.37-.38.38-.39.37-.41.37-.41.38.41.37.41.38.39.37.38.37.38.38.37.37.36.38.35.37.35.37.34.38.33.37.33.38.32.37.31.37.31.38.3.37.3.37.29.38.29.37.28.38.28.37.27.37.27.38.27.37-9.62.38.27.37 10.11.37-9.59.38.25.37.26.38.24.37.25.37.24.38.24.37.23.37.23.38.23.37.23.38.22.37 9.94.37.21.38.2.37.2.38.2.37.2.37.19.38-9.46.37.2.38.19.37.19.37-.19.38-.19.37-.2.38-.2.37-.21.37-.2.38-.21.37-.21.37-.22.38-.21.37-.22.38-.22.37-.23.37-.23.38 9.54.37-.22.38-.23.37-.23.37-.23.38-.24.37-.24.38-.25.37-.25.37-.25.38-.25.37-.26.37-.27.38-.27.37-.27.38-.28.37-.28.37-.29.38-.29.37-.3.38-.3.37-.31.37-.31.38-.32.37-.33.38-.33.37-.34.37-.35.38-.35.37-.36.38-.37.37-.38.37-.38.38-.39.37-.41.37-.41.38.41.37.41.38.39.37.38.37.38.38.37.37.36.38.35.37.35.37.34.38.33.37.33.38.32.37.31.37.31.38.3.37.3.37-9.67.38.3.37.29.38.29.37 10.2.37-9.63.38.27.37.28.38.27.37.26.37.26.38.25.37.26.38.24.37.25.37.24.38.24.37-9.54.38.24.37.24.37.24.38 9.96.37.22.37.21.38.22.37.21.38.21.37.2.37.21.38 9.85.37.19.38.19.37.19.37-.19.38-.19.37-.19.38-.19.37-.19.37-.2.38-.2.37-.2.37-.2.38-.21.37-.21.38-.21.37-.22.37-.22.38-.22.37-.22.38-.23.37-.23.37-.23.38-.24.37-.24.38-.25.37-.25.37-.25.38-.25.37-.26.38-.27.37-.27.37-.27.38-.28.37-.28.37-.29.38-.29.37-.3.38-.3.37-.31.37-.31.38-.32.37-.33.38-.33.37-.34.37-.35.38-.35.37-.36.38-.37.37-.38.37-.38.38-.39.37-.41.37 9.84.38.39.37.39.38.37.37.37.37.36.38.35.37.35.38.33.37.33.37.33.38.32.37.31.38.3.37.3.37.3.38.28.37.29.38.28.37.27.37.27.38.27.37-9.66.37.27.38.27.37.26.38.25.37.25.37.25.38.25.37.24.38.24.37.23.37.23.38.23.37.22.38.22.37.22.37.22.38.21.37.21.37.21.38.2.37.2.38.2.37-9.48.37.21.38.2.37.2.38.19.37.19"/><use xlink:href="#b" transform="matrix(3.75 0 0 3.75 113.62 167.33)"/><use xlink:href="#b" transform="matrix(3.75 0 0 3.75 220.55 7.51)"/></g><text fill="#000" stroke="none" stroke-linecap="round" stroke-linejoin="round" color="#000" font-family="KaTeX_Main" font-size="8" transform="translate(241.1 25.11)"><tspan>WBSTRelaxed</tspan></text><g fill="none" stroke="currentColor" stroke-linecap="round" stroke-linejoin="round" color="#000"><path stroke="#FFAB00" stroke-dasharray="4.0,2.0,1.0,2.0" d="M205.6 22.51h29.9M28 56.84l.37.35.38.36.37.34.38.34.37.34.37.33.38.33.37.32.38 19.78.37.3.37.29.38.29.37.28.37-9.4.38.28.37.29.38.28.37.27.37-9.37.38.28.37-.28.38-.28.37-.28.37-.29.38-.29.37 9.39.38-.29.37-.3.37-.29.38-.3.37 9.42.37-.3.38-.3.37-.31.38 9.46.37-.3.37-.32.38-.31.37-.32.38-.32.37-.33.37 9.51.38-.33.37-.33.38-.34.37-.34.37-.35.38-.35.37-.36.38 9.57.37-.36.37-.37.38-.37.37-.38.37-.38.38-.39.37 9.63.38-.39.37-.4.37-.41.38 9.68.37 19.81.38 9.74.37-.38.37 9.78.38-.38.37-.38.38-.39.37-.41.37-.41.38.41.37.41.37.39.38.38.37.38.38.37.37.36.37-9.76.38.36.37-9.72.38.36.37.36.37.35.38-9.68.37.35.38-9.65.37.35.37.35.38.34.37.33.38.33.37.32.37.32.38.31.37.31.37.3.38.3.37-9.55.38.3.37.3.37.29.38.28.37.29.38.28.37.27.37.27.38.27.37.27.38.26.37-9.47.37.27.38.25.37.26.37.26.38.25.37.24.38.25.37-9.41.37.25.38.24.37-.24.38-.25.37-.25.37-.25.38-.26.37-.26.38-.26.37-.27.37-.27.38-.27.37-.28.38-.28.37-.28.37-.29.38-.29.37-.29.37-.31.38-.3.37-.31.38-.31.37-.32.37-.32.38-.33.37-.33.38-.34.37-.34.37-.35.38-.35.37-.36.38-.37.37-.37.37-.38.38-.39.37-.39.37-.4.38-.4.37-.42.38-.42.37-.43.37-.44.38-.45.37-.45.38-.47.37-.47.37-.49.38-.49.37-.51.38-.52.37-.53.37-.55.38.55.37.53.38.52.37-9.67.37.51.38.5.37.5.37.48.38.47.37.46.38.45.37.45.37.44.38.42.37.43.38.41.37.4.37.4.38-9.56.37.4.38.39.37.39.37.37.38.38.37-9.52.37.38.38.36.37-9.48.38.37.37.36.37.35.38.36.37.34.38.34.37.34.37.33.38.33.37.32.38 107.36.37.21.37.21.38.2.37-9.49.38.21.37.2.37.21.38.2.37.2.37.19.38.19.37-.19.38-.19.37-.2.37-.2.38-.21.37-.2.38-.21.37-.21.37-.22.38-.21.37-.22.38-.22.37-.23.37-.23.38-.23.37-.23.37-.24.38-.24.37-.25.38-.24.37-.26.37-.25.38-.26.37-.26.38-.27.37-.28.37-.27.38-.28.37-.29.38-.29.37-.29.37-.3.38-.31.37-.31.38-.32.37-.32.37-.33.38-.33.37-.34.37-.35.38-.36.37-.36.38-.37.37-.38.37-.38.38-.39.37-.41.38-.41.37-.42.37 9.82.38.41.37.41.38.39.37.38.37-9.78.38.38.37.38.37.37.38.36.37.36.38-9.72.37-9.69.37.36.38.36.37.35.38.34.37.34.37.33.38.33.37.32.38.32.37.31.37.3.38.3.37.3.38.29.37.29.37.28.38.28.37.27.37.27.38.27.37.26.38.26.37.25.37-9.51.38.26.37-9.48.38.26.37.25.37.26.38.25.37.25.38.24.37.24.37.24.38.24.37.23.37.23.38.23.37-.23.38-.23.37-.23.37-.24.38-.24.37-.24.38-.24.37-.25.37-.25.38-.26.37-.25.38-.26.37-.27.37-.27.38-.27.37-.27.38-.28.37-.29.37-.28.38-.29.37-.3.37-.3.38-.31.37-.31.38-.31.37-.32.37-.32.38-.33.37-.34.38-.34.37-.35.37-.35.38-.36.37-.36.38-.37.37-.38.37-.39.38-.39.37-.4.37-.41.38-.42.37-.42.38-.43.37-.45.37-.45.38-.46.37-.47.38-.49.37-.49.37-.51.38.51.37-9.72.38.5.37.49.37.48.38.47.37.46.38.45.37.44.37.43.38.42.37.42.37.41.38.4.37.39.38.38.37.38.37.37.38-9.58.37.37.38.37.37.36.37.35.38.35.37.34.38.34.37-9.52.37.33.38.34.37.33.37.32.38.32.37.31.38.32.37.3.37.3.38.3.37.29.38.29.37.29.37.28.38.28.37.27.38-9.41.37.28.37.27.38.27.37.27.38.26.37.27.37-.27.38-.26.37-.27.37-.27.38-.27.37-.28.38-.28.37-.28.37-.29.38-.29.37-.3.38-.3.37-.3.37-.31.38 9.46.37-.3.38-.32.37-.31.37-.32.38-.32.37-.33.37-.34.38-.33.37-.35.38-.35.37-.35.37-.36.38-.37.37-.37.38-.38.37-.39.37 9.58.38-.39.37-.39.38-.4.37-.4.37-.42.38-.42.37-.43.38-.44.37-.45.37-.45.38-.47.37-.47.37 9.67.38-.48.37-.49.38-.5.37-.51.37-.52.38.52.37.51.38.5.37.49.37.48.38.47.37.46.38.45.37.44.37.43.38-9.64.37.43.37.42.38.42.37.4.38.4.37-9.59.37.4.38.39.37.39.38.38.37.37.37.37.38.36.37.35.38.35.37-9.51.37-9.5.38.36.37.35.37.35.38.34.37.33.38.33.37.33.37.32.38-9.43.37.32.38.32.37.32.37.31.38.3.37.3.38.3.37.3.37.29.38.29.37.28.38.28.37.28.37-.28.38-.28.37-.28.37-.29.38-.29.37-.3.38-.3.37-.3.37-.3.38 9.41.37-.31.38-.31.37-.31.37-.32.38-.32.37-.33.38-.33.37-.33.37-.34.38-.35.37-.35.37-.36.38-.36.37 9.5.38-.36.37-.36.37-.38.38-.37.37-.39.38-.39.37-.4.37-.4.38-.42.37-.41.38-.43.37-.44.37-.44.38-.45.37-.46.38-.47.37-.48.37-.48.38-.5.37-.51.37-.52.38-.53.37-.54.38 9.66.37-.55.37-.56.38.56.37.55.38.53.37.53.37.51.38.5.37.5.38.48.37.47.37.46.38.45.37.45.37.44.38.42.37.43.38.41.37.4.37-9.56.38.4.37.4.38.39.37.39.37.37.38.38.37.36.38.36.37.36.37.35.38.34.37.34.38.34.37.33.37.32.38.32.37.32.37.31.38.31.37.3.38.3.37.3.37.29.38.29.37.28.38.28.37.28.37.27.38.27.37-19.03.38.28.37.28.37-.28.38-.28.37-.28.37-.29.38-.29.37-.3.38-.3.37-.3.37-.3.38-.31.37-.32.38-.32.37-.32.37-.33.38-.33.37-.34.38-.34.37-.34.37-.36.38-.35.37-.36.38-.37.37-.37.37-.38.38-.39.37-.39.37-.39.38 9.51.37-.4.38-.4.37-.41.37-.42.38-.42.37-.44.38-.44.37 9.57.37-.44.38-.45.37-.46.38-.47.37-.48.37-.48.38-.5.37-.51.37-.52.38 9.65.37 9.67.38-.52.37-.53.37-.55.38.55.37.53.38.52.37.51.37.49.38.49.37.47.38.47.37.45.37.45.38-9.63.37.45.38-9.6.37.44.37.44.38.43.37.41.37.42.38-9.55.37.41.38.4.37.4.37.39.38.39.37.37.38.38.37.36.37.36.38.36.37.35.38.35.37.34.37.33.38.33.37.33.37.32.38.32.37.31.38.31.37.31.37.3.38.29.37.3.38.29.37.28.37-9.38.38.29.37.28.38.28.37.28.37-.28.38-.28.37-.28.38-.29.37-.29.37-.3.38-.3.37-.3.37-.3.38-.31.37-.32.38-.32.37-.32.37 9.43.38-.32.37-.33.38-.33.37-.33.37-.34.38-.35.37-.35.38-.36.37-.36.37-.36.38-.38.37-.37.37-.39.38-.39.37-.4.38-.4.37-.41.37-.42.38-.42.37-.44.38-.44.37-.45.37-.45.38-.47.37-.47.38-.49.37-.49.37-.5.38-.52.37-.52.38-.54.37-.55.37-.56.38-.57.37-.58.37-.6.38.6.37.58.38.57.37.56.37.55.38.54.37.52.38.52.37.5.37.49.38.49.37.47.38.47.37.45.37.45.38.44.37.44.37.42.38.42.37.41.38.4.37.4.37.39.38.39.37.37.38.38.37.36.37.36.38-9.47.37.36.38.35.37.36.37 117.83.38.22.37.21.38.21.37.21.37-9.53.38-9.52.37.22.37.21.38.22.37.21.38.21.37.2.37.21.38.2.37.2.38.19.37-9.44.37-.2.38-.2.37-.21.38-.21.37-.21.37-.22.38-.21.37-.22.37-.23.38-.22.37-.23.38-.23.37-.24.37-.24.38-.24.37-.24.38-.25.37-.25.37-.26.38-.26.37-.26.38-.27.37-.27.37-.27.38-.28.37-.29.38-.28.37-.3.37-.3.38-.3.37-.31.37-.31.38-.32.37-.32.38-.33.37-.34.37-.34.38-.35.37-.36.38-.36.37-.37.37-.38.38-.38.37-.4.38-.4.37-.41.37-.42.38-.43.37-.44.37 9.8.38.43.37.42.38.41.37.41.37.39.38.38.37.38.38.37.37.36.37-9.72.38.36.37.36.38.35.37.34.37.34.38-9.67.37.34.38.33.37.33.37.32.38.32.37.31.37.3.38-9.59.37.31.38.3.37.3.37.29.38.29.37-9.53.38.29.37.28.37.29.38.28.37.27.38.27.37.27.37.27.38.26.37.25.37.26.38.25.37.25.38.24.37-9.43.37.24.38.25.37.24.38.24.37-9.4"/><use xlink:href="#h" color="#FFAB00" transform="matrix(3.75 0 0 3.75 171.2 100.01)"/><use xlink:href="#h" color="#FFAB00" transform="matrix(3.75 0 0 3.75 220.55 22.51)"/></g><path fill="none" stroke="none" stroke-linecap="round" stroke-linejoin="round" stroke-width="0" d="M28 45.01V205M371.99 45.01H28" color="#000"/></svg>