<svg xmlns="http://www.w3.org/2000/svg" xmlns:xlink="http://www.w3.org/1999/xlink" viewBox="0 0 400 250"><path fill="none" d="M0 0h400v250H0z"/><defs><path id="d" stroke="currentColor" stroke-width=".267" d="M-1 0h2M0-1v2"/><path id="e" stroke="currentColor" stroke-width=".267" d="m-1-1 2 2m0-2-2 2"/><path id="c" stroke="currentColor" stroke-width=".267" d="M-1-1h2v2h-2z"/><path id="b" stroke="currentColor" stroke-width=".267" d="m0-1.33-1.33 2h2.66z"/><circle id="a" cx="0" cy="0" r="1" stroke="currentColor" stroke-width=".267"/><use xlink:href="#a" id="f" fill="currentColor" stroke="none"/></defs><path fill="none" stroke="#333" stroke-linecap="round" stroke-linejoin="round" stroke-width=".1" d="M46.1 205V45.01" class="gridline" color="#000"/><g fill="none" stroke-linecap="round" stroke-linejoin="round" stroke-width="0" color="#000"><path d="M46.1 205v-7.5m0-152.49v7.5"/><text fill="#000" font-family="KaTeX_Main" font-size="8" text-anchor="middle" transform="translate(46.1 215.1)"><tspan> 1</tspan></text></g><path fill="none" stroke="#333" stroke-linecap="round" stroke-linejoin="round" stroke-width=".1" d="M82.31 205V45.01" class="gridline" color="#000"/><g fill="none" stroke-linecap="round" stroke-linejoin="round" stroke-width="0" color="#000"><path d="M82.31 205v-7.5m0-152.49v7.5"/><text fill="#000" font-family="KaTeX_Main" font-size="8" text-anchor="middle" transform="translate(82.31 215.1)"><tspan> 2</tspan></text></g><path fill="none" stroke="#333" stroke-linecap="round" stroke-linejoin="round" stroke-width=".1" d="M118.52 205V45.01" class="gridline" color="#000"/><g fill="none" stroke-linecap="round" stroke-linejoin="round" stroke-width="0" color="#000"><path d="M118.52 205v-7.5m0-152.49v7.5"/><text fill="#000" font-family="KaTeX_Main" font-size="8" text-anchor="middle" transform="translate(118.52 215.1)"><tspan> 3</tspan></text></g><path fill="none" stroke="#333" stroke-linecap="round" stroke-linejoin="round" stroke-width=".1" d="M154.73 205V45.01" class="gridline" color="#000"/><g fill="none" stroke-linecap="round" stroke-linejoin="round" stroke-width="0" color="#000"><path d="M154.73 205v-7.5m0-152.49v7.5"/><text fill="#000" font-family="KaTeX_Main" font-size="8" text-anchor="middle" transform="translate(154.73 215.1)"><tspan> 4</tspan></text></g><path fill="none" stroke="#333" stroke-linecap="round" stroke-linejoin="round" stroke-width=".1" d="M190.94 205V45.01" class="gridline" color="#000"/><g fill="none" stroke-linecap="round" stroke-linejoin="round" stroke-width="0" color="#000"><path d="M190.94 205v-7.5m0-152.49v7.5"/><text fill="#000" font-family="KaTeX_Main" font-size="8" text-anchor="middle" transform="translate(190.94 215.1)"><tspan> 5</tspan></text></g><path fill="none" stroke="#333" stroke-linecap="round" stroke-linejoin="round" stroke-width=".1" d="M227.15 205V45.01" class="gridline" color="#000"/><g fill="none" stroke-linecap="round" stroke-linejoin="round" stroke-width="0" color="#000"><path d="M227.15 205v-7.5m0-152.49v7.5"/><text fill="#000" font-family="KaTeX_Main" font-size="8" text-anchor="middle" transform="translate(227.15 215.1)"><tspan> 6</tspan></text></g><path fill="none" stroke="#333" stroke-linecap="round" stroke-linejoin="round" stroke-width=".1" d="M263.36 205V45.01" class="gridline" color="#000"/><g fill="none" stroke-linecap="round" stroke-linejoin="round" stroke-width="0" color="#000"><path d="M263.36 205v-7.5m0-152.49v7.5"/><text fill="#000" font-family="KaTeX_Main" font-size="8" text-anchor="middle" transform="translate(263.36 215.1)"><tspan> 7</tspan></text></g><path fill="none" stroke="#333" stroke-linecap="round" stroke-linejoin="round" stroke-width=".1" d="M299.57 205V45.01" class="gridline" color="#000"/><g fill="none" stroke-linecap="round" stroke-linejoin="round" stroke-width="0" color="#000"><path d="M299.57 205v-7.5m0-152.49v7.5"/><text fill="#000" font-family="KaTeX_Main" font-size="8" text-anchor="middle" transform="translate(299.57 215.1)"><tspan> 8</tspan></text></g><path fill="none" stroke="#333" stroke-linecap="round" stroke-linejoin="round" stroke-width=".1" d="M335.78 205V45.01" class="gridline" color="#000"/><g fill="none" stroke-linecap="round" stroke-linejoin="round" stroke-width="0" color="#000"><path d="M335.78 205v-7.5m0-152.49v7.5"/><text fill="#000" font-family="KaTeX_Main" font-size="8" text-anchor="middle" transform="translate(335.78 215.1)"><tspan> 9</tspan></text></g><path fill="none" stroke="#333" stroke-linecap="round" stroke-linejoin="round" stroke-width=".1" d="M371.99 205V45.01" class="gridline" color="#000"/><g fill="none" stroke-linecap="round" stroke-linejoin="round" stroke-width="0" color="#000"><path d="M371.99 205v-7.5m0-152.49v7.5"/><text fill="#000" font-family="KaTeX_Main" font-size="8" text-anchor="middle" transform="translate(371.99 215.1)"><tspan> 10</tspan></text></g><g fill="none" stroke-linecap="round" stroke-linejoin="round" stroke-width="0" color="#000"><path d="M371.99 205h-7.5"/><text fill="#000" font-family="KaTeX_Main" font-size="8" transform="translate(378.99 207.6)"><tspan>0.12</tspan></text></g><g fill="none" stroke-linecap="round" stroke-linejoin="round" stroke-width="0" color="#000"><path d="M371.99 182.14h-7.5"/><text fill="#000" font-family="KaTeX_Main" font-size="8" transform="translate(378.99 184.74)"><tspan>0.14</tspan></text></g><g fill="none" stroke-linecap="round" stroke-linejoin="round" stroke-width="0" color="#000"><path d="M371.99 159.29h-7.5"/><text fill="#000" font-family="KaTeX_Main" font-size="8" transform="translate(378.99 161.89)"><tspan>0.16</tspan></text></g><g fill="none" stroke-linecap="round" stroke-linejoin="round" stroke-width="0" color="#000"><path d="M371.99 136.43h-7.5"/><text fill="#000" font-family="KaTeX_Main" font-size="8" transform="translate(378.99 139.03)"><tspan>0.18</tspan></text></g><g fill="none" stroke-linecap="round" stroke-linejoin="round" stroke-width="0" color="#000"><path d="M371.99 113.58h-7.5"/><text fill="#000" font-family="KaTeX_Main" font-size="8" transform="translate(378.99 116.18)"><tspan>0.20</tspan></text></g><g fill="none" stroke-linecap="round" stroke-linejoin="round" stroke-width="0" color="#000"><path d="M371.99 90.72h-7.5"/><text fill="#000" font-family="KaTeX_Main" font-size="8" transform="translate(378.99 93.32)"><tspan>0.22</tspan></text></g><g fill="none" stroke-linecap="round" stroke-linejoin="round" stroke-width="0" color="#000"><path d="M371.99 67.87h-7.5"/><text fill="#000" font-family="KaTeX_Main" font-size="8" transform="translate(378.99 70.47)"><tspan>0.24</tspan></text></g><g fill="none" stroke-linecap="round" stroke-linejoin="round" stroke-width="0" color="#000"><path d="M371.99 45.01h-7.5"/><text fill="#000" font-family="KaTeX_Main" font-size="8" transform="translate(378.99 47.61)"><tspan>0.26</tspan></text></g><path fill="none" d="M28 45.01V205M371.99 45.01H28" color="#000"/><text stroke-linecap="round" stroke-linejoin="round" stroke-width="0" color="#000" font-family="KaTeX_Main" font-size="10" text-anchor="middle" transform="rotate(-90 68.255 56.755)"><tspan font-weight="bold">Duration </tspan><tspan> in milliseconds</tspan></text><text stroke-linecap="round" stroke-linejoin="round" stroke-width="0" color="#000" font-family="KaTeX_Main" font-size="10" text-anchor="middle" transform="translate(199.99 238.25)"><tspan>Operations / 10</tspan><tspan dy="-5" font-size="8">5</tspan></text><text stroke-linecap="round" stroke-linejoin="round" color="#000" font-family="KaTeX_Main" font-size="8" transform="translate(99.2 10.11)"><tspan>AVLBottomUp</tspan></text><g fill="none" stroke="currentColor" stroke-linecap="round" stroke-linejoin="round" color="#000"><path stroke="#000" d="M63.7 7.51h29.9M28 113.1l.36-.32.36-8.97.37-.87.36-.53.36-.75.36 7.5.36-.04.37-8.62.36-.51.36 7.83.36-.17.37-8.77.36.14.36-1.3.36.6.36 7.79.37-.41.36-8.47.36.06.36 7.81.36-.2.37-8.39.36 8.25.36-8.92.36-.53.36 7.99.37.75.36-8.52.36-.51.36 7.7.36.06.37-8.44.36 7.57.36-8.5.36-.25.37 8.44.36-.48.36-8.14.36-.84.36-.6.37 8.52.36-8.16.36 7.82.36-9.08.36-.66.37 8.32.36.28.36-8.91.36-.58.36-.59.37-9.21.36 7.76.36 2.96.36 1.52.37.74.36.2.36-.06.36.48.36.18.37.75.36-.37.36.08.36.12.36-.42.37.21.36.02.36.37.36.13.36.42.37.2.36-.31.36.18.36.84.37-.65.36.37.36.3.36 1.07.36-.15.37.14.36-.02.36.56.36 1.03.36.86.37.7.36-.47.36.59.36.45.36.52.37-.26.36.19.36-.37.36.05.36.17.37-.27.36-.06.36-.02.36.19.37 1.1.36.04.36 1.1.36.03.36-3.62.37 9.67.36-7.91.36.18.36 8.1.36.14.37-8.39.36-.85.36-.49.36 8.39.36-9.72.37 8.45.36-8.62.36.01.36 7.42.37.44.36-8.74.36 8.09.36-8.53.36 7.97.37-9 .36 8.61.36-9.54.36.82.36 7.39.37.07.36-8.5.36 8.06.36-8.48.36 7.87.37-8.73.36 8.04.36-8.8.36.49.36-.83.37 8.22.36-9.21.36 8.67.36-8.85.37 8.14.36-7.86.36 7.59.36-8.76.36-.66.37-.58.36 8.54.36-9.04.36 8.56.36-9.2.37-10.32.36 4.8.36 2.41.36 1.45.36.64.37.74.36 1.13.36.45h.36l.37.56.36-.09.36.23.36.52.36.42.37.66.36-.62.36.31.36.34.36.18.37.72.36.06.36.38.36.63.36.06.37.2.36.39.36.15.36.54.36.82.37.6.36.4.36.16.36.62.37.26.36.41.36.23.36.26.36-.13.37.26.36-.23.36.83.36.73.36.56.37-.18.36.5.36.06.36.71.36.64.37-.25.36-.04.36-.32.36-2.72.37 9.52.36-7.73.36-.19.36-.31.36 8.43.37-9.41.36 9.18.36-8.85.36 7.97.36-8.87.37 8.54.36-9.48.36 8.53.36-8.62.36 8.1.37-9.47.36 9.24.36-9.05.36 8.36.37-18.08.36 17.11.36-9.31.36 9.2.36-8.58.37 8.33.36-8.86.36 8.52.36-9.31.36 8.38.37-16.69.36 16.31.36-10.13.36 9.78.36-9 .37 8.44.36-8.49.36 7.48.36-7.72.36 7.27.37-17.06.36 16.27.36-8.59.36 7.95.37-7.79.36 7.48.36-8.54.36 7.89.36-8.57.37-11.86.36 4.55.36 3.18.36 1.78.36.55.37.69.36.07.36-.36.36 1.74.36-.43.37.21.36 1.47.36.04.36.11.37.33.36.24.36.93.36-.42.36.43.37.73.36-.85.36.75.36.51.36.98.37-.12.36.63.36-.05.36-.18.36.99.37.38.36 1.37.36.39.36.46.36.08.37.23.36.71.36.12.36.39.37-.47.36-.35.36.42.36-.47.36.95.37-.33.36.82.36.32.36.19.36.77.37.4.36.81.36-.21.36-11.7.36 17.83.37-7.92.36 8.64.36-7.97.36 7.82.37-8.51.36 8.11.36-9.1.36 8.09.36-8.99.37 8.16.36-8.44.36 7.91.36-8.48.36 7.66.37-8.7.36.02.36-.96.36 8.69.36-8.63.37 8.19.36-8.91.36 8.61.36-8.1.36 7.48.37-8.99.36-.5.36.19.36 8.52.37-9.11.36 8.26.36-8.68.36 8.72.36-8.55.37 7.83.36-8.69.36-.54.36-.04.36 8.14.37-8.26.36 7.38.36-8.39.36 8.56.36-8.53.37 7.79.36-.79.36-9.22.36.02.37-11.25.36 4.55.36 3.47.36 1.17.36.96.37.28.36.21.36.36.36.98.36.51.37-.17.36.81.36.9.36-.17.36.11.37.16.36.18.36.24.36-.54.37.93.36-.38.36.41.36.41.36.64.37-.07.36.4.36.6.36.47.36.98.37.23.36.9.36.78.36-.13.36.46.37.46.36-.15.36.71h.36l.36-.72.37.85.36-.15.36.59.36-.13.37-.01.36.27.36.64.36.54.36.96.37.43.36.75.36-.64.36-3.04.36 9.82.37-7.66.36 8.59.36-9.1.36 8.19.36.05.37-8.93.36-.26.36 7.84.36-9.08.37 8.4.36-8.57.36-.79.36.17.36 8.11.37-.12.36-9.56.36.32.36 8.4.36-8.15.37 7.68.36-8.97.36-.77.36.3.36 8.21.37.33.36-8.93h.36l.36 7.51.36-7.81.37 7.42.36-8.43.36-.68.36.19.37 8.4.36-.25.36-8.59.36-.49.36 7.75.37-8.34.36 7.32.36.45.36-9.68.36-.24.37 9.06.36-.07.36-9.4.36-.44.36-11.94.37 5.05.36 3.45.36.96.36.86.37.55.36.38.36.43.36.92.36-.37.37.54.36.56.36-.14.36 1.12.36.29.37.55.36-.05.36.71.36-.72.36.75.37.36.36.46.36-.29.36.81.37.54.36.59.36.3.36.22.36.67.37.62.36.66.36.73.36.26.36.13.37-.23.36.72.36.16.36-.19.36.14.37.15.36-.35.36.43.36-.21.36.53.37.16.36 1.16.36.61.36.32.37.73.36.07.36.09.36-3.57.36 9.85.37.62.36-9.04.36.74.36 8.18.36-.7.37-8.6.36-.42.36-1.02.36.41.36 7.84.37.28.36-9.59.36.57.36 7.71.37.2.36-9.07.36-.15.36-.38.36.13.37 7.7.36.31.36-9.01.36-.54.36 8.05.37.51.36-9.11.36.01.36-1.38.36 9.35.37-9.77.36 9.07.36-8.84.36.08.36 7.8.37-.44.36-9.04.36 8.35.36-8.73.37 8.97.36-9.58.36 8.71.36-8.97.36-.04.37-.69.36 8.02.36-8.99.36 8.53.36-19.79.37 3.96.36 4.06.36 1.12.36.93.36-.13.37.25.36 1.4.36.62.36.59.37.09.36.07.36.15.36 1.2.36-.23.37.07.36-.07.36.55.36.24.36.11h.37l.36.71.36.51.36.44.36.44.37.72.36.22.36.87.36-.1.36.63.37.27.36.16.36 1.39.36-.56.37.08.36 1.13.36-.3.36.29.36.92.37-.07.36-.02.36-.26.36.17.36.6.37.22.36.88.36.29.36.52.36.52.37-.18.36-8.62.36 13.35.36-7.21.37 9.4.36-8.29.36-.08.36-.78.36 8.12.37-8.78.36 8.74.36-9.15.36 8.26.36-8.63.37 8.18.36-8.46.36-.29.36-1.11.36 8.26.37-8.34.36 8.3.36-8.44.36 7.35.37-8.46.36 8.6.36-9.11.36.09.36-1.14.37 8.84.36-9.29.36 9.25.36-9 .36 8.51.37-9.3.36 8.04.36-8.45.36 8.41.36-8.74.37 7.86.36-9.05.36 8.6.36-8.78.36 8.01.37-17.46.36 16.67.36-8.58.36 8.45.37-8.79.36 7.95.36-8.78.36 8.13.36-19.01.37 3.9.36 3.49.36 1.56.36.71.36.27.37.81.36.09.36.54.36.66.36.29.37.24.36.42.36.54.36.13.37-.3.36.21.36.5.36.35.36-.31.37.09.36.87.36.46.36.46.36.04.37.45.36.62.36 1.09.36.92.36.43.37-.06.36.5.36.61.36.24.36-.24.37-.16.36-.67.36 1.13.36-.02.37.19.36.25.36.67.36-.04.36.6.37-.34.36.16.36.03.36.75.36.51.37-.14.36-6.66.36 13.06.36-15.94.36 17.71.37-8.72.36 8.5.36-9.03.36 8.66.37-8.96.36 8.45.36-8.31.36 7.42.36-17.15.37 16.65.36-8.95.36 8.43.36-9.02.36 8.52.37-8.42.36 7.6.36-8.24.36 7.55.36-8.28.37 7.73.36-8.77.36 8.7.36-8.3.36 7.48.37-7.89.36 7.81.36-9.23.36 7.98.37-8.13.36 7.85.36-9.3.36 8.94.36-8.17.37 8.12.36-10.06.36.09h.36l.36 7.88.37-8.86.36 8.72.36-9.66.36 9.33.36-8.66.37 8.18.36-9.11.36-.76.36-10.76.37 4.22.36 3.8.36.97.36 1.02.36.63.37 1.01.36-.63.36.26.36.45.36.58.37-.03.36.38.36.29.36.39.36.71.37.91.36.28.36.12.36-.33.37-.21.36.02.36.84.36.64.36.27.37.1.36.91.36-.07.36.48.36 1.09.37-.18.36.57.36.33.36.14.36.98.37-.13.36.2.36.05.36.14.36.52.37.29.36.77.36.66.36-.13.37-.64.36 1.15.36.05.36.91.36.08.37.1.36-9 .36 13.78.36-7.11.36 9.45.37-8.22.36 8.16.36-8.68.36 7.89.36-8.74.37-.71.36.14.36 8.4.36-8.91.37 7.77.36-8.49.36 8.54.36-8.8.36 8.06.37-.25.36-9.21.36-.34.36 8.84.36-8.76.37 7.74.36-8.36.36 8.21.36-9.18.36 8.81.37.14.36-9.03.36-.09.36 7.94.36-9.24.37 8.58.36-8.28.36-.97.36.4.37 7.94.36-.22.36-8.74.36-.07.36 7.97.37-8.94.36 8.53.36-9.87.36.19.36-.29.37 8.35.36.07.36-9.35.36-11.42.36 5.31.37 3.55.36 1.09.36 1.01.36.32.37.6.36-.37.36.91.36-.05.36-.01.37.16.36.27.36.71.36-.25.36.81.37.69.36.56.36.09.36.25.36.15.37-.33.36.62.36.64.36.17.36.54.37 1.01.36.54.36.02.36.89.37.01.36.54.36.72.36.06.36-.25.37.68.36.13.36-.46.36.72.36.77.37-.05.36.29.36-.36.36.26.36.5.37.58h.36l.36.65.36.53.37.44.36-8.73.36 13.25.36-7.1.36 9.58.37-8.7.36-.61.36-.37.36 8.86.36.03.37-9.48.36-.13.36 7.65.36-8.4.36 8.44.37.06.36-9.42.36.01.36 8.3.37-.15.36-8.77.36-.59.36-.63.36.15.37 8.04.36.62.36-9.66.36.06.36 8.55.37.05.36-9.3.36-.3.36-.63.36-.76.37 9.14.36.16.36-8.8.36-.03.36 7.92.37.09.36-8.69.36-.61.36-.62.37-.66.36 8.62.36.02.36-9.08.36.45.37 7.52.36-.3.36-8.82"/><use xlink:href="#d" transform="matrix(3.75 0 0 3.75 354.25 93.23)"/><use xlink:href="#d" transform="matrix(3.75 0 0 3.75 78.65 7.51)"/></g><text stroke-linecap="round" stroke-linejoin="round" color="#000" font-family="KaTeX_Main" font-size="8" transform="translate(99.2 25.11)"><tspan>AVLTopDown</tspan></text><g fill="none" stroke="currentColor" stroke-linecap="round" stroke-linejoin="round" color="#000"><path stroke="#29C3F6" stroke-dasharray="1.0,2.0" d="M63.7 22.51h29.9M28 112.76l.36-8.84.36.25.37 8.37.36.17.36-9.02.36-.8.36-.32.37-.61.36 8.08.36-.54.36-8.07.37.24.36 7.61h.36l.36-7.9.36 7.09.37-8.16.36-1.11.36 8.59.36-.06.36-8.44.37-.24.36-.32.36 8.44.36-10.33.36 9.19.37-8.44.36-.1.36 8.28.36.48.36-8.4.37.14.36-1.2.36 8.2.36-8.64.37 8.28.36-8.89.36-.24.36 8.68.36-.34.37-8.42.36.22.36-.64.36 8.64.36-9.44.37 8.34.36-7.2.36-.94.36 8.26.36-.77.37-23.39.36 7.85.36 2.74.36 1.63.37.67.36.43.36-.25.36.63.36.15.37.31h.36l.36.04.36.2.36-.46.37.28.36.08.36-.22.36.53.36.16.37.54.36.09.36-.1.36.28.37-.12.36.24.36.19.36.87.36-.44.37.65.36-.15.36.98.36.82.36.76.37.87.36-.56.36.85.36.35.36.37.37-.1.36.15.36-.54.36.14.36.21.37-.37h.36l.36-.29.36.25.37.58.36.73.36 1.02.36-3.51.36 4.78.37.82.36 7.82.36-8.5.36 8.57.36-8.83.37.05.36 7.21.36-.1.36-8.53.36 7.51.37-8.06.36 7.95.36-8.25.36 8.04.37-8.5.36.05.36-.1.36 7.36.36-8.36.37 8.48.36-8.64.36 7.78.36-9.14.36 8.31.37-8.03.36.58.36-.56.36 7.55.36-8.98.37 8.7.36-8.46.36 8.59.36-8.53.36 7.65.37-8.57.36.07.36-.27.36 7.55.37-8.26.36 8.41.36-7.8.36 7.09.36-7.64.37 7.5.36-8.19.36 7.92.36-8.11.36 4.36.37-21.83.36 5.26.36 1.79.36 1.42.36.55.37.03.36 2.09.36.16.36.52.37.17.36-.07.36.55.36.46.36.06.37.89.36-.8.36.5.36.05.36.46.37.55.36-.18.36.49.36.46.36.37.37.18.36.11.36.19.36.8.36.86.37.73.36.27.36.02.36.87.37.22.36-.05.36.39.36.63.36-.09.37.06.36-.27.36.79.36.74.36.28.37.06.36.54.36.09.36.49.36.9.37-.03.36-.3.36-4.09.36 14.44.37-8.14.36 8.56.36-9.07.36 7.93.36-8.41.37 8.25.36-8.32.36 7.8.36-9.11.36 8.69.37-8.76.36 8.29.36-17.42.36 16.42.36-9.13.37 9.26.36-8.39.36 8.03.36-8.72.37 8.82.36-8.7.36 8.01.36-17.8.36 17.07.37-8.7.36 8.53.36-8.32.36 7.67.36-8.12.37 7.75.36-7.64.36 7.08.36-17.08.36 16.34.37-8.66.36 8.96.36-8.78.36 8.47.36-8.23.37 7.62.36-7.93.36 7.42.36-8.19.37 8.3.36-9.47.36 8.5.36-8.59.36 8.29.37-25.86.36 4.55.36 3.31.36 1.72.36.33.37.73.36-.05.36-.19.36 1.37.36.09.37.43.36.71.36.14.36.42.37.43.36.17.36.75.36-.49.36.42.37 1.06.36-.87.36.72.36.51.36.76.37.36.36.33.36-.24.36.18.36.87.37.27.36 1.34.36.2.36.61.36.13.37.16.36.9.36-.26.36.62.37-.16.36-.36.36.17.36-.42.36.81.37-.22.36.81.36.33.36.28.36.65.37.24.36.89.36-4.11.36 13.97.36-8.32.37 8.96.36-9.08.36 7.89.36-8.36.37 8.85.36-9.41.36 8.04.36-8.1.36-.84.37.01.36 8.52.36-8.52.36 7.04.36-8.22.37 8.41.36-8.21.36 7.61.36-8.22.36-1.25.37-.48.36 9.3.36-7.99.36 7.48.36-8.77.37 8.49.36-8.64.36 8.36.36-8.25.37-.56.36.1.36 7.63.36-7.98.36 7.24.37-7.52.36 7.07.36-7.72.36 7.36.36.67.37-8.55.36-.94.36 8.23.36-7.65.36 7.59.37-8.2.36-1.99.36-.89.36 9.41.37-25.04.36 4.92.36 2.48.36 2.07.36.74.37.31.36.61.36.49.36.44.36.99.37-.26.36-1.76.36 3.18.36.14.36-.28.37.09.36.27h.36l.36.28.37.41.36-.29.36.3.36.18.36.59.37.67.36.03.36.37.36.81.36.59.37.34.36.87.36.79.36.04.36.33.37.59.36-.43.36.85.36-.16.36-.58.37.93.36-.11.36.62.36-1.12.37.96.36.4.36.01.36 1.16.36.71.37.37.36.82.36 4.12.36-3.74.36.77.37 8.29.36-8.11.36 7.83.36-8.4.36-.34.37-.28.36 8.16.36-.69.36-8.75.37.07.36 8.03.36-8.59.36 8.17.36-8.13.37-.67.36.39.36 8.17.36.06.36-8.56.37-.71.36 8.06.36-8.42.36 7.96.36-9.05.37.03.36.05.36 8.15.36.16.36-7.88.37-.89.36 7.71.36-8.13.36 7.58.37.58.36-9.18.36-.77.36 9.09.36-.29.37-8.86.36.09.36-.37.36-.27.36 8.18.37.64.36-9.22.36-2.04.36 9.7.36-25.7.37 5.16.36 2.85.36.81.36.93.37.8.36.32.36.4.36.77.36-.17.37.66.36.62.36.04.36.89.36-.21.37.69.36.01.36.56.36-.57.36.36.37.96.36.49.36-.14.36.64.37.26.36.65.36.51.36.22.36.71.37.6.36.63.36.44.36.42.36.14.37-.19.36.59.36-.03.36.13.36.13.37.14.36-.01.36.32.36-.2.36.57.37-.06.36 1.13.36.26.36.89.37.56.36.07.36 5.2.36-3.83.36.78.37-.48.36 7.99.36-8.7.36 9.08.36-9.2.37-.15.36 8.21.36.08.36-8.66.36-.61.37-.07.36 7.99.36-8.98.36 8.44.37-8.41.36-.43.36 8.49.36-.32.36-8.32.37 7.99.36-8.73.36 8.1.36-8.94.36 8.62.37-8.52.36.2.36 7.63.36-.61.36-9.15.37 9.22.36-9.15.36 8.5.36-9.44.36 9.27.37-8.46.36-.72.36-.23.36 8.53.37-8.95.36 8.8.36-8.63.36 8.33.36-8.87.37 8.68.36-8.92.36-.16.36-1 .36-16.83.37 4.58.36 3.02.36 1.48.36.87.36.3.37.11.36.99.36.76.36.53.37.07.36.61.36-.18.36-.94.36 2.17.37-.31.36.03.36.57.36.16.36-.11.37-.08.36.63.36.65.36.87.36.42.37.66.36.21.36.77.36-.17.36.79.37.28.36.07.36 1.47.36-.23.37.34.36.65.36-.47.36.05.36 1.25.37-.01.36-.27.36-.15.36.17.36.6.37.43.36.56.36.38.36.48.36.64.37-.12.36 4.62.36-4.08.36 9.06.37-7.81.36 8.01.36-9.17.36 8.7.36-8.4.37-.47.36-.11.36 7.15.36-8.76.36 8.98.37-8.7.36 7.92.36-8.36.36 8.33.36-7.97.37 7.45.36-7.79.36 7.18.36-9.76.37 9.84.36-8.56.36 7.26.36-7.87.36 7.89.37-8.61.36 8.94.36-9.27.36 8.42.36-8.48.37 7.84.36-8.41.36 8.21.36-17.11.36 15.96.37-8.15.36 7.55.36-7.63.36 7.81.36-8.82.37 8.49.36-8.09.36 8.39.36-16.46.37 15.4.36-9.08.36 9.02.36-8.47.36-17.18.37 4.42.36 3.14.36 1.46.36.82.36.24.37.81.36-.06.36.88.36.49.36.5.37.04.36.59.36.6.36-.23.37-.01.36.2.36.5.36.3.36-.13.37.13.36.8.36.3.36.15.36.86.37-.1.36.8.36 1 .36.91.36.22.37.08.36.42.36.86.36.02.36-.24.37-.32.36-.45.36 1.02.36.15.37.41.36-.12.36.64.36.16.36.31.37-.15.36.15.36.08.36.93.36.36.37-.31.36 6.66.36-3.71.36 8.61.36-8.06.37 7.72.36-16.71.36 15.41.36-7.74.37 7.91.36-7.61.36 7.22.36-8.27.36 7.81.37-7.9.36 7.59.36-8.51.36 7.53.36-8.22.37 8.38.36-8.53.36 8.5.36-9.01.36-.48.37-1.45.36 9.61.36-8.53.36 8 .36-8.92.37 8.71.36-8.52.36 7.76.36-8.77.37-.15.36-.09.36 8.41.36-7.91.36 7.52.37-9.16.36 8.23.36-7.66.36 7.73.36-8.25.37-1.12.36.55.36 7.32.36-7.27.36 7.09.37-8.17.36 8.49.36-8.55.36-17.83.37 4.84.36 3.18.36 1.42.36.55.36.86.37 1.16.36-.5.36.47.36.12.36.77.37-.28.36.47.36.54.36.25.36.56.37.98.36.09.36.3.36-.1.37-.2.36-.14.36.76.36.81.36-.06.37.02.36.98.36-.17.36.95.36.84.37-.11.36.72.36.22.36.25.36.84.37-.08.36.06.36.22.36.1.36.55.37.51.36.32.36.82.36-.24.37-.18.36.88.36-.13.36.75.36.44.37-.08.36 4.73.36-3.74.36 1.41.36.22.37 7.97.36-8.22.36 7 .36-8.27.36 8.07.37-8.68.36 8.1.36-.77.36-8.14.37-.08.36 8.24.36-8.53.36 8.26.36-7.84.37-1.02.36-.85.36 9.03.36-.22.36-8.04.37-.74.36 7.89.36-8.83.36 7.82.36-7.7.37-.61.36-1.08.36 9.23.36.21.36-8.87.37.06.36 6.95.36-7.36.36 8.1.37-9.19.36.39.36-.19.36 7.76.36-.21.37-8.76.36.42.36 7.38.36-8.08.36 8.06.37-.2.36-8.3.36-1.28.36-16.74.36 5.51.37 3.16.36 1.27.36.91.36.25.37.72.36-.05.36.38.36.03.36.07.37.39.36.47.36.28.36-.12.36.72.37.74.36.5.36.14.36.11.36-.01.37.01.36.34.36.85.36.28.36.72.37.74.36.41.36.17.36.16.37.75.36.57.36.49.36.43.36-.28.37.7.36.13.36-.69.36.8.36.63.37.17.36-.06.36-.09.36.08.36.62.37.54.36.33.36.31.36.58.37.47.36 4.63.36 4.97.36-7.98.36.11.37 8.01.36-9.31.36 8.98.36.7.36-10.59.37-1.09.36 9.4.36-.39.36-8.71.36.38.37-.76.36.51.36 8.12.36.45.37-8.63.36-.84.36 8.07.36-.18.36-8.4.37-.19.36-.89.36-.64.36 9.1.36.22.37-9.09.36-.2.36 7.97.36.14.36-8.31.37.17.36-1.01.36-.91.36 9.31.36-.38.37-8.23.36-.25.36 7.7.36.34.37-8.93.36 8.86.36-9.14.36-.48.36 8.98.37-1.02.36-8.54.36.14"/><use xlink:href="#e" color="#29C3F6" transform="matrix(3.75 0 0 3.75 67.83 109.85)"/><use xlink:href="#e" color="#29C3F6" transform="matrix(3.75 0 0 3.75 78.65 22.51)"/></g><text stroke-linecap="round" stroke-linejoin="round" color="#000" font-family="KaTeX_Main" font-size="8" transform="translate(241.1 10.11)"><tspan>AVLRelaxedBottomUp</tspan></text><g fill="none" stroke="currentColor" stroke-linecap="round" stroke-linejoin="round" color="#000"><path stroke="#D336C8" d="M205.6 7.51h29.9M28 104.87l.36 6.5.36.17.37-8.86.36-.55.36-1.56.36 8.24.36-8.58.37 7.85.36-8.17.36-.6.36 7.24.37.17.36-8.88.36 8.35.36-8.42.36 7.88.37-8.57.36 8.01.36-9.09.36.1.36-.21.37 7.8.36-8.1.36 7.65.36-8.23.36 7.68.37-8.12.36 8.21.36-8.11.36-.32.36-.36.37 8.03.36-9.25.36 8.32.36-7.98.37 7.72.36-8.42.36 8.01.36-8.17.36-.33.37-.34.36 7.76.36-8.01.36 7.46.36-8.88.37 7.94.36-7.93.36 7.39.36-8.3.36 7.43.37 74 .36 3.23.36 3.79.36 1.87.37.54.36.5.36-.81.36-.02.36.55.37.06.36-.14.36-.09.36.55.36-.33.37.24.36.21.36-.6.36.22.36.01.37.24.36.31.36-.45.36.92.37-.51.36.11.36.33.36.92.36-.63.37-.07.36-.28.36.2.36.17.36.42.37-.09.36-.04.36.38.36.38.36.27.37-.05.36.24.36.15.36.42.36-.13.37.16.36.27.36.01.36.55.37.32.36-.09.36.05.36-95.21.36 13.2.37-6.38.36 8.78.36-7.58.36 8.04.36-8.14.37 8.12.36-8.53.36 8.01.36-7.77.36 7.06.37-8.4.36 8.03.36-8.57.36 8 .37-16.81.36 16.28.36-8.05.36 7.79.36-8.23.37 7.68.36-8.51.36 7.86.36-8.2.36 7.78.37-16.79.36 16.22.36-9.43.36 9.01.36-9.29.37 8.16.36-8.14.36 8.07.36-7.63.36 7.34.37-16.91.36 16 .36-8.14.36 8.01.37-7.85.36 8.04.36-9.02.36 8.23.36-9 .37 8.45.36-8.16.36 7.35.36-7.96.36 7.64.37 68.88.36 2.43.36 5.87.36 1.49.36 1.58.37-.25.36.06.36.68.36.54.37-.06.36.48.36-.46.36.72.36-.41.37 1.01.36-.16.36-.14.36.22.36.32.37.24.36-.02.36.52.36.01.36-.24.37.44.36.09.36-.32.36.46.36.19.37.29.36-.04.36-.08.36.62.37-.2.36.03.36.48.36.17.36.23.37.16.36-.43.36 1.22.36.27.36-.39.37.19.36.57.36.07.36.08.36.76.37-.33.36.44.36-94.76.36 14.18.37-7.1.36 9.7.36-8.5.36 8.79.36-8.57.37 8.36.36-8.81.36 8.77.36-8.96.36 8.17.37-8.41.36-.81.36.15.36 8.03.36-8.92.37 8.3.36-8.64.36 8.02.36-8.48.37 7.76.36-8.4.36-1.04.36.27.36 8.17.37-8.66.36 8.19.36-8.28.36 7.82.36-7.88.37 7.9.36-8.4.36-1.83.36.78.36 7.85.37-7.89.36 7.51.36-9.25.36 9.2.36-8.69.37 7.98.36.12.36-8.49.36-.32.37 8.13.36-8.8.36 8.03.36-8.76.36.06.37 76.48.36 1.85.36 6.46.36 2.1.36.46.37.21.36.02.36.96.36.03.36.5.37-.38.36.62.36.34.36-.31.37.67.36.37.36-.39.36.23.36.35.37.01.36.33.36-.09.36.54.36-.05.37.77.36-.56.36-.17.36.31.36.56.37-.35.36.64.36.11.36-.2.36.21.37.59.36-.14.36.72.36.35.37-.03.36.77.36-.36.36-.43.36.75.37-.05.36.66.36.04.36.4.36-.28.37.56.36.39.36-94.58.36 14.39.36 1.64.37-7.15.36.2.36 8.11.36-7.95.37 7.56.36-8.48.36-.74.36-.2.36 8.27.37-.16.36-8.99.36.31.36 7.8.36-.11.37-8.94.36.11.36-1.08.36-.58.36 8.37.37.31.36-8.51.36-.44.36 8.1.36.1.37-8.83.36-.3.36-.03.36-.24.37 7.48.36-.01.36-8.54.36.17.36 7.74.37.12.36-9.23.36 9.06.36-9.4.36.6.37 7.63.36-.18.36-9.12.36.22.36-.44.37 8 .36-8.77.36 8.26.36-8.33.37 76.19.36 2.71.36 6.04.36 1.41.36 1.1.37.36.36.39.36.48.36.13.36.09.37.09.36.17.36.85.36.02.36-.29.37.68.36-.21.36.08.36-.04.37.3.36.09.36.06.36.74.36.59.37-.82.36.74.36-.48.36.52.36.25.37.07.36.21.36.21.36.26.36-.01.37.74.36.32.36.15.36-.1.36.46.37-.24.36.85.36.09.36-.24.37-.14.36.6.36-.13.36.76.36.42.37.24.36.36.36-95.2.36 13.53.36 2.63.37-7.43.36.24.36-.37.36 8.02.36-8.25.37 8.23.36-8.48h.36l.36 7.72.37.17.36-8.87.36-.27.36-.65.36 8.48.37-8.85.36 8.18.36-8.96.36.17.36 8.02.37-.38.36-9.03.36 8.84.36-8.97.36 8.17.37-8.43.36 8.6.36-8.94.36-.79.36 8.39.37-.1.36-8.98.36 8.47.36-8.18.37 8.1.36-8.56.36 7.77.36-8.39.36-.83.37-.15.36 7.71.36-8.22.36 8.23.36-8.59.37 8.31.36-8.3.36 7.71.36-9.33.36 77.04.37 2.67.36 5.32.36 2.25.36 1.06.37.71.36-.1.36-.24.36.42.36.02.37.64.36.35.36-.5.36.78.36.1.37.62.36.05.36.04.36-.21.36.23.37.5.36.32.36-.14.36.23.37-.31.36.42.36.31.36.08.36.64.37-.12.36.03.36.23.36.64.36.19.37.03.36-.08.36.66.36-.27.36.26.37.34.36.15.36.06.36.18.36.89.37-.06.36.42.36-.95.36.85.37.54h.36l.36-93.63.36 4.61.36 10.27.37-7.4.36 8.73.36-8.63.36 8.63.36-8.5.37 8.13.36-8.69.36-.4.36-.51.36 8.25.37-8.41.36 8.11.36-8.2.36 7.76.37-8.72.36 7.94.36-8.19.36 8.17.36-8.86.37 8.01.36-8.67.36 8.29.36-9.1.36 7.95.37-8.03.36 8.1.36-8.76.36 7.99.36-8.2.37 8.33.36-9.65.36 8.8.36-8.76.36 8.06.37-17.19.36 16.5.36-8.06.36 7.67.37-8.2.36 8.21.36-8.65.36 8.09.36-8.09.37 7.38.36-17.17.36 16.36.36-8.22.36 75.88.37 3.14.36 5.32.36 2.18.36 1.12.36-.26.37 1.12.36.33.36.14.36-.36.37.46.36.67.36-.32.36.7.36-.14.37-.03.36.17.36.56.36-.19.36.36.37.07.36.14.36-.2.36.36.36-.04.37.53.36.29.36.54.36-.47.36.11.37.1.36.25.36.9.36-.19.37.17.36.49.36.16.36-.53.36.86.37.19.36.01.36.6.36-.33.36.62.37-.46.36 1.1.36-.48.36-.02.36 1.24.37.19.36-86.45.36-3.34.36 10.67.37-7.15.36 8.39.36-8.05.36 8.26.36-16.8.37 16.37.36-8.63.36 8.07.36-8.19.36 7.27.37-8.9.36 8.84.36-8.52.36 7.41.36-7.69.37 7.5.36-8.38.36 8.12.36-9.26.37 8.45.36-8.62.36-.32.36-.47.36 8.32.37-7.91.36 6.65.36-7.6.36 7.68.36-8.25.37 7.71.36-8.75.36-.27.36.24.36 7.61.37-8.2.36 7.85.36-7.89.36 7.27.36-7.99.37 7.61.36-8.27.36-.27.36-.09.37 7.96.36-8.35.36 7.61.36-7.94.36 75.95.37 2.93.36 5.31.36 2.04.36.79.36.32.37.53.36-.2.36 1.06.36.56.36-.35.37-.11.36-.16.36.59.36-.09.37.54.36-.13.36.1.36.29.36.4.37.09.36.43.36-.14.36.37.36.46.37-.78.36.34.36.9.36.83.36-.36.37-.29.36.08.36.35.36.33.36.32.37-.61.36.29.36.74.36.38.37.07.36-.1.36.71.36-.5.36.1.37.94.36.02.36.01.36.28.36.34.37-.76.36-84.61.36-2.8.36 9.8.36-7.18.37-.12.36-.17.36 8 .36-7.61.37 7.25.36-7.92.36 7.65.36-8.73.36 7.7.37.83.36-9.41.36.05.36 8.03.36-8.24.37 7.98.36-9.21.36.06h.36l.36 8.05.37-.5.36-8.38.36-.34.36 7.82.36-8.45.37 8.17.36-8.71.36-.69.36-.21.37 8.05.36.15.36-9.31.36-.07.36 8.98.37-7.98.36 6.99.36-8.23.36-.08.36-.09.37 7.42.36.45.36-9.85.36 1.29.36 7.5.37-8.45.36 8.38.36-.39.36 67.74.37 2.67.36 5.72.36 2.5.36.29.36.63.37.59.36.02.36.19.36.18.36.56.37-.37.36.45.36-.06.36.36.36.25.37.37.36-.13.36-.41.36.44.37-.29.36.42.36.18.36.95.36.12.37-.16.36.13.36.35.36.56.36-.09.37-.74.36 1.14.36.24.36-.31.36.08.37 1.1.36-.29.36.21.36-.28.36 1.06.37.32.36.02.36.01.36-.25.37.58.36.14.36.05.36.17.36.26.37.65.36-94.67.36 5.69.36 9.74.36 1.02.37-7.32.36-.22.36 7.99.36-8.5.36 7.96.37.13.36-8.9.36.41.36 7.56.37-.4.36-8.22.36-1.01.36.04.36-.18.37 7.76.36-.05.36-8.63.36-.79.36 8.04.37.22.36-9.09.36-.08.36-.74.36.65.37 7.89.36-.23.36-8.87.36-.36.36 7.99.37.08.36-8.04.36-.18.36-1.69.37.46.36 8.26.36.42.36-9.13.36.37.37 7.52.36.69.36-10.12.36 9.31.36-8.49.37-.95.36 8.3.36.12.36 68.26.36 1.67.37 7.04.36 1.32.36.79.36.1.37.97.36-.26.36.6.36-.52.36.46.37.14.36.22.36.81.36-.38.36.42.37.26.36-.35.36.54.36-.07.36.55.37.18.36-.09.36.65.36-.21.36-.39.37 1.14.36.02.36-.12.36.34.37-.22.36.46.36.58.36-.21.36-.29.37.65.36.4.36-.27.36.67.36.09.37-.01.36.39h.36l.36-.52.36.88.37.3.36.1.36.38.36.41.37-.31.36-93.75.36 4.33.36 11.02.36.95.37-7.75.36 8.11.36-8.75.36 8.4.36-8.96.37 8.6.36-8.3.36-.33.36-.97.36 8.5.37-8.68.36 8.52.36-9.42.36 8.64.37-8.96.36 8.65.36-9.28.36-.17.36-1.16.37 7.84.36-8.89.36 8.23.36-8.75.36 8.61.37-8.44.36 8.83.36-9.11.36-.47.36-.93.37 9.46.36-9.58.36 9.23.36-8.41.36 8.08.37-9.12.36 9.08.36-8.85.36 8.34.37-8.95.36 8.01.36-8.55.36 8.69.36-9.25.37 8.36.36-17.48.36 16.52"/><use xlink:href="#f" color="#D336C8" transform="matrix(3.75 0 0 3.75 125.4 177.59)"/><use xlink:href="#f" color="#D336C8" transform="matrix(3.75 0 0 3.75 220.55 7.51)"/></g><text stroke-linecap="round" stroke-linejoin="round" color="#000" font-family="KaTeX_Main" font-size="8" transform="translate(241.1 25.11)"><tspan>AVLRelaxedTopDown</tspan></text><g fill="none" stroke="currentColor" stroke-linecap="round" stroke-linejoin="round" color="#000"><path stroke="#3B75EA" stroke-dasharray="4.5,2.0,0.5,2.0,0.5,2.0" d="M205.6 22.51h29.9M28 77.36l.36 2.62.36.64.37 7.8.36-8.87.36 8.11.36-8.49.36-1.01.37 7.6.36.16.36-8.08.36.33.37-1.98.36 7.74.36-8.5.36 9.36.36-8.36.37-.21.36 7.86.36-.49.36-10.18.36 7.94.37-7.84.36 6.65.36-8.87.36 9.03.36-9.55.37 1.02.36 7.92.36-1 .36-9.52.36 8.22.37-7.3.36 6.78.36-7.76.36 8.24.37-8.79.36.38.36-.09.36 8.37.36-9.26.37 10.15.36-9.25.36 8.5.36-8.55.36 7.43.37-8.84.36.11.36-.36.36 8.32.36-7.85.37 102.76.36 3.98.36 2.73.36 2.65.37.58.36.31.36-.65.36.16.36-.18.37.5.36-.23.36.08.36-.46.36-.42.37.79.36.6.36-.57.36.48.36-.38.37-.44.36.01.36.34.36.44.37.49.36-.25.36-.13.36.57.36-.31.37-.02.36.15.36.31.36-.57.36 1 .37-.38.36.67.36.08.36-.18.36.7.37.38.36.21.36-.49.36.15.36.16.37-.17.36.4.36.37.36.5.37.14.36-.22.36.6.36-113.64.36 1.23.37 9.28.36-7.28.36 8.67.36-8.82.36 1.51.37-1.05.36 8.55.36-8.05.36 8.54.36-10.92.37 8.82.36-8.19.36 7.95.36-8.04.37 8.3.36-9.01.36 7.46.36-9.26.36 6.28.37-7.58.36 7.28.36-15.53.36 15.75.36-8.47.37 7.71.36-7.79.36 8.06.36-8.62.36 7.21.37-8.33.36 8.37.36-16.34.36 16.2.36-8.06.37 7.59.36-7.57.36 8.23.36-8.63.37 8.16.36-7.62.36 6.75.36-17.56.36 17.31.37-8.8.36 9.64.36-8.12.36 7.24.36-9.51.37 99.36.36 3.72.36 5.18.36 1.15.36 1.49.37.85.36-.65.36.92.36-.13.37.55.36.09.36.18.36.05.36.01.37.78.36-.27.36.03.36.41.36.04.37.09.36.31.36-.31.36.28.36-.02.37.55.36.21.36.41.36-.21.36.22.37.04.36-.18.36.5.36-.01.37-.1.36.29.36-.39.36.73.36.38.37.11.36-.55.36.9.36.94.36-.82.37.8.36.1.36.43.36-.19.36.75.37.37.36-.31.36-111.3.36 1.47.37 9.04.36-16.14.36 17.19.36-8.29.36 8.45.37-8.68.36 7.74.36-8.39.36 7.9.36-8.59.37 8.22.36-9.98.36 9.3.36-8.96.36 8.34.37-8.56.36 8.19.36-10.29.36-.27.37.39.36 8.89.36-9.9.36 8.37.36-7.83.37 8.61.36-9.92.36 9.16.36-9.45.36.16.37.54.36 6.4.36-8.57.36 9.96.36-8.47.37 8.36.36-8.83.36 8.68.36-7.54.36-.33.37-.76.36 7.46.36-7.1.36 7.5.37-8.6.36 7.23.36-8.45.36 8.41.36-.29.37 90.7.36 1.41.36 5.76.36 2 .36.92.37.48.36.03.36.13.36.41.36.28.37-.24.36.79.36-.09.36-.17.37.81.36.02.36.6.36-.2.36.28.37.08.36-.32.36.67.36.06.36.53.37-.28.36-.01.36.33.36-.19.36.77.37-.05.36-.09.36.44.36-.1.36.19.37.6.36-.05.36-.12.36.65.37.55.36.02.36.38.36.57.36-.42.37.01.36.63.36.21.36-.48.36.69.37.07.36.61.36-119.2.36 7.73.36 9.45.37-5.93.36 7.55.36-8.55.36 7.25.37-7.3.36 8.27.36-.36.36-8.8.36-.57.37 8.71.36-8.94.36 8.1.36-8.6.36-1.28.37.64.36 8.53.36-2.35.36-7.67.36-2.06.37 9.31.36-8.75.36 9.33.36-9.1.36-.19.37 1.38.36 7.08.36.84.36-8.84.37-.49.36 7.87.36-.65.36-6.78.36.08.37-2.46.36-.3.36 8.21.36.24.36-8.32.37-.96.36 9.57.36-1.74.36-8.51.36 10.24.37-9.39.36-.51.36 7.6.36-1.08.37 92.25.36 1.6.36 5.62.36 1.76.36.85.37.77.36.16.36.25.36.34.36.02.37-.02.36.54.36.3.36.76.36-.92.37.64.36-.09.36.57.36-.64.37 1.02.36-.18.36.41.36.06.36-.24.37.49.36.39.36-.01.36-.1.36.39.37.24.36.61.36.07.36.27.36-.28.37.13.36-.07.36 1.06.36-.12.36.07.37.66.36-.18.36.97.36-.28.37-.04.36.06.36.2.36-.03.36.79.37.63.36.47.36-120.83.36 7.09.36 10.57.37 1.18.36-6.48.36 8.42.36-10.85.36 1.06.37 7.82.36.71.36-9.97.36.83.37-.32.36 8.05.36-7.99.36 8.29.36-8.53.37-.92.36 6.61.36.86.36-8.45.36-.38.37-2.11.36 9.33.36-7.92.36 8.35.36-9.32.37-.2.36 8.78.36-1.27.36-8.73.36.35.37-.08.36 9.01.36-7.8.36 6.41.37-7.58.36-.81.36 8.66.36-.77.36-7.04.37 7.34.36-9.61.36 9.14.36-8.52.36 7.84.37-7.54.36-.49.36-1.77.36 8.16.36 91.92.37 1.77.36 5.58.36 1.77.36.84.37-.02.36-.01.36.48.36.14.36.59.37-.18.36.46.36.11.36.34.36-.37.37.7.36-.08.36.6.36-.1.36-.09.37.37.36.34.36.11.36-.33.37.45.36.03.36 1.3.36-.94.36.37.37.26.36.62.36-.06.36.79.36-.27.37.69.36-.08.36.02.36-.41.36.67.37.55.36-.17.36.12.36.35.36.56.37.13.36-.03.36-.2.36 1.11.37-.23.36.59.36-119.86.36 15.66.36-6.34.37 8.44.36-7.9.36 9.08.36-7.69.36-.72.37-1.86.36 8.64.36-7.71.36 7.2.36-8.05.37 8.05.36-9.8.36 10.62.36-8.4.37-.67.36-.87.36 7.52.36-8.26.36 7.53.37-8.94.36 8.31.36-7.94.36 8.13.36-9.58.37.96.36-.62.36 7.67.36-9.23.36 8.65.37-7.09.36 7.58.36-8.11.36 8.39.36-8.07.37 7.92.36-10.22.36 8.29.36-7.65.37 7.99.36-8.27.36 7.3.36-16.67.36 17.28.37-8.97.36 7.48.36-8.39.36 7.4.36 92.4.37 1.56.36 5.56.36 1.78.36 1.17.36-.14.37.55.36.65.36-.2.36.35.37.07.36.58.36-.19.36.65.36.05.37-.34.36-.34.36 1.1.36-.03.36.15.37.14.36.77.36.13.36-.48.36.25.37.5.36-.53.36.61.36-.39.36.82.37-.19.36.57.36.62.36-.09.37.25.36.67.36-.51.36.38.36.72.37-.34.36.61.36-.11.36.1.36.51.37-.53.36.24.36.31.36.96.36-.27.37.23.36-120.3.36 17.93.36-6.37.37 8.82.36-16.81.36 15.5.36-8.64.36 8.9.37-8.04.36 7.26.36-8.43.36 8.89.36-8.23.37 6.67.36-16.07.36 16.03.36-7.34.36 8.24.37-9.28.36 8.01.36-9.53.36 8.04.37-7.99.36 9.02.36-8.34.36 7.38.36-7.64.37 6.3.36-8.9.36 9.84.36-10.04.36 7.9.37-8.25.36 7.8.36-7.8.36 7.36.36-7.42.37 7.08.36-7.63.36 7.03.36-6.19.36-1.02.37-.5.36 8.35.36-8.08.36 7.44.37-9.28.36 9.28.36-9.19.36 8.3.36 90.67.37 2 .36 5.51.36 1.9.36.64.36.94.37.33.36-.42.36.32.36.47.36-.14.37.15.36-.25.36.88.36.24.37.27.36-.26.36.43.36-.18.36.17.37.63.36.35.36.16.36.03.36.43.37-.13.36-.21.36.36.36.12.36.72.37-.93.36.72.36.36.36.24.36.42.37-.16.36-.12.36.8.36.09.37.57.36.46.36-.32.36.14.36.48.37-.17.36-.19.36.57.36-.15.36.63.37-.5.36-117.55.36 7.86.36 1.54.36 9.1.37-8.34.36 7.72.36-8.54.36 8.25.37-7.96.36 7.95.36-8.37.36-.65.36-.49.37 8.67.36-8.21.36 8.5.36-8.96.36 8.04.37-8.19.36 5.88.36.33.36-8.16.36-.16.37 6.45.36-8.1.36 8.88.36-8.87.36 8.62.37-7.48.36 7.27.36-.13.36-9.33.37-.23.36 8.19.36-7.65.36 7.09.36-6.63.37-1.37.36.06.36 6.78.36.85.36-8.22.37.38.36 8.8.36-10.18.36 8.58.36-8.74.37-.15.36-.62.36 8.84.36 89.85.37 2.42.36 5.58.36 2.2.36.47.36.48.37.03.36.59.36-.19.36.52.36.27.37.31.36-.02.36-.01.36.29.36.14.37.92.36-.66.36.13.36.14.37.19.36.13.36.09.36.84.36-.65.37.28.36.37.36-.05.36.27.36.69.37-.31.36.33.36.41.36-.12.36.29.37-.02.36.82.36.11.36.3.36.25.37-.03.36.57.36-.05.36.1.37.21.36-.28.36.59.36.48.36.02.37.53.36-111.79.36.36.36.72.36 10.16.37-6.73.36 7.1.36-9.11.36-.81.36.38.37 7.2.36.27.36-7.96.36-.37.37 7.91.36-7.17.36 8.04.36-.19.36-9.09.37.01.36 5.99.36.73.36-8.67.36-.94.37-.74.36.12.36 8.92.36-.48.36-9.05.37 1.04.36 7.47.36.4.36-9.49.36.05.37.3.36.23.36 8.07.36.07.37-8.92.36.65.36 8.01.36-.64.36-9.37.37-.01.36-.14.36-.8.36 8.73.36.36.37-9.87.36-.9.36 9.69.36 90.77.36 2.18.37 5.5.36 1.45.36 1.55.36-.46.37.7.36.43.36-.22.36-.34.36.66.37-.41.36.73.36.78.36-.34.36.38.37.08.36.31.36-.02.36.43.36.63.37-.52.36.1.36.63.36-.48.36.66.37.24.36-.22.36.69.36.02.37.03.36-.05.36.47.36.04.36.44.37.44.36.56.36-.45.36.32.36.67.37-.18.36.73.36-.36.36-.44.36.77.37.01.36-.14.36.8.36.12.37.46.36-113.09.36 1.37.36.89.36 1.18.37 1.05.36 7.11.36-.16.36-7.97.36-.98.37 9.31.36-1.12.36-9.57.36 9.82.36-9.53.37 1.27.36 7.98.36-.09.36-9.51.37.34.36-1.12.36 7.22.36-8.98.36 9.06.37-7.47.36-.16.36 6.94.36 1.1.36-9.13.37 1.21.36-1.06.36 8.06.36-9.93.36 9.39.37-9.1.36 8.56.36-9.02.36 8.21.36-9.74.37 1.64.36-.91.36 7.75.36-7.48.37 8.05.36-8.33.36 8.62.36-8.88.36 7.81.37-8.58.36 9.31.36-8.87"/><use xlink:href="#a" color="#3B75EA" transform="matrix(3.75 0 0 3.75 182.98 69.02)"/><use xlink:href="#a" color="#3B75EA" transform="matrix(3.75 0 0 3.75 220.55 22.51)"/></g><path fill="none" d="M28 45.01V205M371.99 45.01H28" color="#000"/></svg>