<svg xmlns="http://www.w3.org/2000/svg" xmlns:xlink="http://www.w3.org/1999/xlink" viewBox="0 0 400 250"><path fill="none" d="M0 0h400v250H0z"/><defs><path id="g" stroke="currentColor" stroke-width=".267" d="M-1 0h2M0-1v2"/><path id="h" stroke="currentColor" stroke-width=".267" d="m-1-1 2 2m0-2-2 2"/><path id="d" stroke="currentColor" stroke-width=".267" d="M-1-1h2v2h-2z"/><path id="i" fill="currentColor" stroke="currentColor" stroke-width=".267" d="M-1-1h2v2h-2z"/><path id="b" stroke="currentColor" stroke-width=".267" d="m0-1.33-1.33 2h2.66z"/><path id="f" stroke="currentColor" stroke-width=".267" d="M0 1.33 1.265.411.782-1.067l-1.564-.009-.483 1.487z"/><use xlink:href="#b" id="c" stroke="currentColor" transform="rotate(180)"/><use xlink:href="#d" id="e" stroke="currentColor" transform="rotate(45)"/><circle id="a" cx="0" cy="0" r="1" stroke="currentColor" stroke-width=".267"/></defs><path fill="none" stroke="#000" stroke-linecap="round" stroke-linejoin="round" stroke-width=".1" d="M35.48 205V45.01" class="gridline" color="#000"/><g fill="none" stroke="none" stroke-linecap="round" stroke-linejoin="round" stroke-width="0" color="#000"><path d="M35.48 205v-7.5m0-152.49v7.5"/><text fill="#000" font-family="KaTeX_Main" font-size="10" text-anchor="middle" transform="translate(35.48 215.75)"><tspan> 1</tspan></text></g><path fill="none" stroke="#000" stroke-linecap="round" stroke-linejoin="round" stroke-width=".1" d="M72.87 205V45.01" class="gridline" color="#000"/><g fill="none" stroke="none" stroke-linecap="round" stroke-linejoin="round" stroke-width="0" color="#000"><path d="M72.87 205v-7.5m0-152.49v7.5"/><text fill="#000" font-family="KaTeX_Main" font-size="10" text-anchor="middle" transform="translate(72.87 215.75)"><tspan> 2</tspan></text></g><path fill="none" stroke="#000" stroke-linecap="round" stroke-linejoin="round" stroke-width=".1" d="M110.26 205V45.01" class="gridline" color="#000"/><g fill="none" stroke="none" stroke-linecap="round" stroke-linejoin="round" stroke-width="0" color="#000"><path d="M110.26 205v-7.5m0-152.49v7.5"/><text fill="#000" font-family="KaTeX_Main" font-size="10" text-anchor="middle" transform="translate(110.26 215.75)"><tspan> 3</tspan></text></g><path fill="none" stroke="#000" stroke-linecap="round" stroke-linejoin="round" stroke-width=".1" d="M147.65 205V45.01" class="gridline" color="#000"/><g fill="none" stroke="none" stroke-linecap="round" stroke-linejoin="round" stroke-width="0" color="#000"><path d="M147.65 205v-7.5m0-152.49v7.5"/><text fill="#000" font-family="KaTeX_Main" font-size="10" text-anchor="middle" transform="translate(147.65 215.75)"><tspan> 4</tspan></text></g><path fill="none" stroke="#000" stroke-linecap="round" stroke-linejoin="round" stroke-width=".1" d="M185.04 205V45.01" class="gridline" color="#000"/><g fill="none" stroke="none" stroke-linecap="round" stroke-linejoin="round" stroke-width="0" color="#000"><path d="M185.04 205v-7.5m0-152.49v7.5"/><text fill="#000" font-family="KaTeX_Main" font-size="10" text-anchor="middle" transform="translate(185.04 215.75)"><tspan> 5</tspan></text></g><path fill="none" stroke="#000" stroke-linecap="round" stroke-linejoin="round" stroke-width=".1" d="M222.43 205V45.01" class="gridline" color="#000"/><g fill="none" stroke="none" stroke-linecap="round" stroke-linejoin="round" stroke-width="0" color="#000"><path d="M222.43 205v-7.5m0-152.49v7.5"/><text fill="#000" font-family="KaTeX_Main" font-size="10" text-anchor="middle" transform="translate(222.43 215.75)"><tspan> 6</tspan></text></g><path fill="none" stroke="#000" stroke-linecap="round" stroke-linejoin="round" stroke-width=".1" d="M259.82 205V45.01" class="gridline" color="#000"/><g fill="none" stroke="none" stroke-linecap="round" stroke-linejoin="round" stroke-width="0" color="#000"><path d="M259.82 205v-7.5m0-152.49v7.5"/><text fill="#000" font-family="KaTeX_Main" font-size="10" text-anchor="middle" transform="translate(259.82 215.75)"><tspan> 7</tspan></text></g><path fill="none" stroke="#000" stroke-linecap="round" stroke-linejoin="round" stroke-width=".1" d="M297.21 205V45.01" class="gridline" color="#000"/><g fill="none" stroke="none" stroke-linecap="round" stroke-linejoin="round" stroke-width="0" color="#000"><path d="M297.21 205v-7.5m0-152.49v7.5"/><text fill="#000" font-family="KaTeX_Main" font-size="10" text-anchor="middle" transform="translate(297.21 215.75)"><tspan> 8</tspan></text></g><path fill="none" stroke="#000" stroke-linecap="round" stroke-linejoin="round" stroke-width=".1" d="M334.6 205V45.01" class="gridline" color="#000"/><g fill="none" stroke="none" stroke-linecap="round" stroke-linejoin="round" stroke-width="0" color="#000"><path d="M334.6 205v-7.5m0-152.49v7.5"/><text fill="#000" font-family="KaTeX_Main" font-size="10" text-anchor="middle" transform="translate(334.6 215.75)"><tspan> 9</tspan></text></g><path fill="none" stroke="#000" stroke-linecap="round" stroke-linejoin="round" stroke-width=".1" d="M371.99 205V45.01" class="gridline" color="#000"/><g fill="none" stroke="none" stroke-linecap="round" stroke-linejoin="round" stroke-width="0" color="#000"><path d="M371.99 205v-7.5m0-152.49v7.5"/><text fill="#000" font-family="KaTeX_Main" font-size="10" text-anchor="middle" transform="translate(371.99 215.75)"><tspan> 10</tspan></text></g><g fill="none" stroke="none" stroke-linecap="round" stroke-linejoin="round" stroke-width="0" color="#000"><path d="M371.99 205h-7.5"/><text fill="#000" font-family="KaTeX_Main" font-size="10" transform="translate(378.99 208.25)"><tspan>0.45</tspan></text></g><g fill="none" stroke="none" stroke-linecap="round" stroke-linejoin="round" stroke-width="0" color="#000"><path d="M371.99 187.22h-7.5"/><text fill="#000" font-family="KaTeX_Main" font-size="10" transform="translate(378.99 190.47)"><tspan>0.50</tspan></text></g><g fill="none" stroke="none" stroke-linecap="round" stroke-linejoin="round" stroke-width="0" color="#000"><path d="M371.99 169.45h-7.5"/><text fill="#000" font-family="KaTeX_Main" font-size="10" transform="translate(378.99 172.7)"><tspan>0.55</tspan></text></g><g fill="none" stroke="none" stroke-linecap="round" stroke-linejoin="round" stroke-width="0" color="#000"><path d="M371.99 151.67h-7.5"/><text fill="#000" font-family="KaTeX_Main" font-size="10" transform="translate(378.99 154.92)"><tspan>0.60</tspan></text></g><g fill="none" stroke="none" stroke-linecap="round" stroke-linejoin="round" stroke-width="0" color="#000"><path d="M371.99 133.89h-7.5"/><text fill="#000" font-family="KaTeX_Main" font-size="10" transform="translate(378.99 137.14)"><tspan>0.65</tspan></text></g><g fill="none" stroke="none" stroke-linecap="round" stroke-linejoin="round" stroke-width="0" color="#000"><path d="M371.99 116.12h-7.5"/><text fill="#000" font-family="KaTeX_Main" font-size="10" transform="translate(378.99 119.37)"><tspan>0.70</tspan></text></g><g fill="none" stroke="none" stroke-linecap="round" stroke-linejoin="round" stroke-width="0" color="#000"><path d="M371.99 98.34h-7.5"/><text fill="#000" font-family="KaTeX_Main" font-size="10" transform="translate(378.99 101.59)"><tspan>0.75</tspan></text></g><g fill="none" stroke="none" stroke-linecap="round" stroke-linejoin="round" stroke-width="0" color="#000"><path d="M371.99 80.56h-7.5"/><text fill="#000" font-family="KaTeX_Main" font-size="10" transform="translate(378.99 83.81)"><tspan>0.80</tspan></text></g><g fill="none" stroke="none" stroke-linecap="round" stroke-linejoin="round" stroke-width="0" color="#000"><path d="M371.99 62.79h-7.5"/><text fill="#000" font-family="KaTeX_Main" font-size="10" transform="translate(378.99 66.04)"><tspan>0.85</tspan></text></g><g fill="none" stroke="none" stroke-linecap="round" stroke-linejoin="round" stroke-width="0" color="#000"><path d="M371.99 45.01h-7.5"/><text fill="#000" font-family="KaTeX_Main" font-size="10" transform="translate(378.99 48.26)"><tspan>0.90</tspan></text></g><path fill="none" stroke="none" stroke-linecap="round" stroke-linejoin="round" stroke-width="0" d="M28 45.01V205M371.99 45.01H28" color="#000"/><text fill="#000" stroke="none" stroke-linecap="round" stroke-linejoin="round" stroke-width="0" color="#000" font-family="KaTeX_Main" font-size="10" text-anchor="middle" transform="rotate(-90 68.255 56.755)"><tspan font-weight="bold">Rotations</tspan><tspan> / Operation</tspan></text><text fill="#000" stroke="none" stroke-linecap="round" stroke-linejoin="round" stroke-width="0" color="#000" font-family="KaTeX_Main" font-size="10" text-anchor="middle" transform="translate(199.99 238.25)"><tspan>Operations × 10</tspan><tspan dy="-5" font-size="8">5</tspan></text><text fill="#000" stroke="none" stroke-linecap="round" stroke-linejoin="round" color="#000" font-family="KaTeX_Main" font-size="8" transform="translate(110.4 10.11)"><tspan>AVLBottomUp</tspan></text><g fill="none" stroke="currentColor" stroke-linecap="round" stroke-linejoin="round" color="#000"><path stroke="#000" d="M74.9 7.51h29.9M28 73.81l.37-3.2.38 14.93.37-22.75.38 10.31.37 4.62.37 8.89h.38l.37-8.18.38 2.49.37-10.31.37 32 .38-18.85.37-9.24.37 24.89.38-23.11.37 6.4.38-28.8.37 31.29.37-4.63.38 16.71.37 90.66.38-67.9.37 2.13.37-5.33.38-9.6.37-.36.38 7.82.37-4.26.37 2.84.38-3.55.37 5.33.37-5.33.38-3.56.37 10.31.38-2.13.37 8.53.37-4.98.38-5.68h.37l.38 5.33.37.71.37-2.84.38 2.84.37-2.84.38 3.2.37-13.16.37 7.47.38-.71.37 3.55.38-.35.37 5.33.37-5.69.38-2.13.37 3.55.37 3.56.38-8.18.37 4.62.38-14.57.37 6.75.37-.36.38 6.76.37-4.98.38 10.67.37-4.98.37 4.27.38-7.11.37-4.27.38 8.89.37-15.64.37 13.86.38-38.75.37-.36.37 14.22.38-14.57.37 13.86.38-8.53.37-1.78.37 15.65.38-20.27.37 13.16.38 2.84.37 1.42.37-8.18.38 9.96.37-9.96.38-13.51.37 25.25.37-11.38.38-18.84.37 18.48.38-.71.37-3.55.37-5.34.38 18.14.37-16.36.37-2.13.38-7.47.37 25.25.38-8.54.37-3.55.37 15.64.38-2.49.37 1.07.38-17.78.37 20.62.37-25.95.38-6.04.37 20.26.38 8.18.37-23.82.37 12.8.38-7.11.37-2.14.37 15.65.38 2.84.37-10.67.38-3.2.37-2.84.37 7.82.38-14.93.37 120.17.38-70.04.37 3.91.37-5.69.38-3.91.37-3.2.38-6.04.37 8.89.37 1.06.38-3.55.37 7.46.38-2.13.37-1.42.37 2.13.38-1.78.37-2.13.37 1.42.38-2.13h.37l.38 2.13.37-1.42.37 4.98.38-2.49.37 3.91.38-12.09.37 8.89.37-3.56.38 3.2.37-3.55.38 4.98.37-1.07.37-4.27h.38l.37 7.11.37 1.43.38-8.54.37 2.85.38-.36.37 5.69.37-11.02.38 2.13.37.71.38-.71.37 2.49.37-2.84h.38l.37 3.91.38-1.42.37-3.92.37 7.83.38-30.93.37-10.67.38 19.2.37-14.22.37 13.15.38-7.11.37-.71.37-6.04.38 3.91.37-5.34.38 13.16.37 1.42.37-18.49.38-1.78.37 10.67.38-18.49.37 12.09.37 2.49.38-5.33.37 14.57.38 8.89.37-13.51.37-11.38.38 17.78.37 7.11.37-3.2.38-12.09.37 3.2.38 1.07.37-4.98.37-10.31.38 2.85.37-.71.38 8.88.37 7.47.37 1.42.38-1.77.37 4.97.38-17.42.37-6.4.37 14.22.38 6.05.37.35.38-1.06.37-6.76.37 13.87.38-13.51.37-6.05.37 17.07.38-7.47.37 101.68.38-64.35.37-18.84.37 16.71.38-4.98.37-.35.38-8.89.37 4.98.37 8.17.38-3.2.37 2.49.38-10.31.37 3.2.37-7.11.38 10.67.37-.71.37-3.92.38 1.43.37-4.63.38.72.37-1.07.37 11.38.38-13.87.37 4.27.38-1.43.37 3.2.37.72.38.71.37-7.82.38 9.59.37-3.55.37 7.82.38-7.82.37 6.04.38-1.77.37 2.13.37-3.91.38-1.78.37 4.98.37 1.06.38-4.26.37.71.38-.71.37-1.78.37-.71.38-.36.37 8.18.38 2.85.37-7.83.37 1.78.38-52.97.37 41.59.38-22.39.37 16.71.37-20.98.38-7.11.37 21.69.37-2.85.38-13.86.37 16.71.38-2.85.37-11.02.37 9.96.38 9.59.37-8.53.38-8.18.37-.71.37 8.89.38-3.91.37 8.53.38-19.2.37 2.85.37 4.62.38-11.02.37 10.31.38-1.78.37-.71.37 9.25.38 4.26.37-1.42.37-2.13.38-13.87.37 2.84.38 6.05.37-22.4.37 26.67.38-18.85.37.36.38 11.02.37 1.42.37-10.31.38 3.2.37 6.76.38 17.06.37-7.82.37 3.55.38-15.64.37 2.49.37 12.44.38-14.93.37 108.44.38-58.66.37-14.58.37.71.38-6.4.37 2.84.38-.35.37 2.49.37-7.11.38-1.78.37 13.51.38-2.84.37-2.49.37 3.2.38-1.78.37-2.13.38 3.91.37-4.98.37.71.38-2.84.37 11.02.37 1.06.38-4.97.37 5.33.38-8.89.37-2.49.37 3.2.38-2.13.37 2.84.38.36.37.71.37-6.76.38 2.14.37 1.42.38 5.69.37-7.11.37-.71.38 4.62.37-6.4.37-2.84.38 4.97.37 4.98.38-3.91.37 1.78.37-1.43.38 7.47.37 2.13.38-1.06.37-5.69.37-2.85.38-34.13.37-7.82.38 12.09.37-11.73.37 16.35.38 3.56.37-5.34.38 7.47.37-2.13.37-2.85.38 2.14.37 2.13.37-3.91.38 4.62.37-9.95.38 6.75.37-4.98.37 9.96.38-2.85.37-5.33.38 13.51.37 8.18.37-26.67.38 11.74.37-3.56.38-11.38.37 9.25.37-1.42.38 4.97.37-12.8.37 16 .38-22.04.37 10.67.38-.72.37 4.98.37-2.84.38-25.25.37 24.54.38-2.85.37 3.56.37-1.78.38 3.91.37 12.44.38-12.79h.37l.37 2.48.38-8.88.37 2.84.38.36.37-2.14.37 108.08.38-67.9.37-3.91.37-10.31.38 6.4.37-4.63.38 7.47.37-2.49.37-7.11.38 2.13.37 1.43.38 4.62.37 7.46.37-16.35.38 8.18.37.71.38-1.42.37 6.75.37.36.38-6.76.37 1.78.37-3.91.38.71.37 4.98.38-2.14.37 1.78.37 2.49.38-5.33.37 4.97.38-6.75.37 3.2.37 1.07.38-4.98.37 5.69.38-7.47.37 6.04.37 1.07.38 2.13.37-7.11.38 3.2.37 3.91.37-6.75.38 4.98.37 1.06.37.36.38-1.42.37-5.69.38 8.53.37-1.42.37-11.73.38-7.83.37-24.88.38 6.75.37-3.91.37 23.82.38-13.15.37 9.6.38-3.91.37 1.77.37.36.38-5.69.37-1.78.37 6.05.38 5.69.37-7.47.38-17.78.37 13.16.37-9.96.38 10.67.37-2.85.38 16 .37-13.51.37 1.43.38-11.38.37 4.26.38 8.89.37-11.37.37 8.88.38-10.31.37 13.87.37 2.49.38-15.65.37 2.49.38 10.31.37-8.88.37.35.38 12.09.37-13.51.38-4.62.37 3.55.37 1.42.38 6.4.37 3.91.38-7.46h.37l.37 18.84.38-23.46.37 4.62.38 1.78.37-1.43.37 102.75.38-68.97.37 3.91.37-7.11.38-3.2.37-3.56.38 1.07.37 1.42.37 5.34.38-4.63.37 8.54.38-4.27.37-4.98.37 3.56.38-8.53.37 8.88.38.72.37-1.07.37-.71.38 3.55.37-.35.37-1.07.38-2.84.37-5.69.38-1.42.37 3.55.37 11.02.38-5.69.37-9.24.38 9.24.37-3.91.37 1.07.38-1.42.37.71.38 2.49.37 5.69.37-4.98.38-6.05.37 8.18.38-6.75.37 7.46.37 2.14.38-6.76.37 4.62.37 4.98.38-10.31.37 1.42.38-1.42.37-3.56.37 9.6.38-45.86.37.36.38 11.02.37 9.6.37-5.69.38-7.11.37 6.4.38-2.14.37 3.92.37-9.6.38 7.11.37-10.67.37 23.47.38-9.6.37-3.56.38 9.96.37-9.96.37 12.44.38-8.53.37-10.31.38 7.11.37 6.05.37-8.89.38 1.78.37-1.07.38-6.76.37 12.8.37-5.69.38-.35.37-1.07.38 12.8.37-9.6.37 9.96.38-6.05.37-5.69.37.36.38 2.13.37-3.91.38 3.91.37-11.02.37 9.25.38 6.75.37-14.93.38 2.13.37-.71.37 1.42.38-.71.37 8.89h.38l.37-2.84.37 102.39.38-55.46.37-18.85.37.71.38-7.11.37 11.74.38-10.32.37 2.14.37 2.49.38 6.04.37 3.56.38-4.63.37-4.26.37.71.38 5.33.37-4.26.38 3.55.37-7.11.37-2.13.38 7.11.37 1.06.38-2.84h.37l.37-1.78.38.71.37-2.49.37-5.68.38-3.56.37 17.78.38-14.22.37 8.17.37 1.07.38-3.91.37 3.91.38 5.33.37-8.17.37 1.77.38-2.13.37 12.8.38-15.64.37 3.2.37-1.07.38 6.04.37-6.04h.37l.38-1.42.37 9.6.38 1.77.37-11.73.37 2.85.38-32 .37-3.2.38 12.09.37 1.77.37-17.06.38 3.55.37-6.4.38 14.23.37-6.4.37-4.63.38.36.37 17.06.38-.71.37-19.55.37-1.78.38 12.8.37 4.62.37-5.69.38 6.4.37 2.49.38-3.55.37-7.47.37 8.53.38-12.8.37 14.94.38-1.07.37-18.84.37 10.66.38 8.89.37-.71.38-6.4.37 3.91.37-.71.38-4.98.37 10.31.37 23.11.38-30.93.37-.35.38 3.2.37-.36.37-11.02.38-10.31.37 18.84.38-10.31.37 13.51.37 3.56.38-9.25.37 16 .38-15.29.37 20.98.37 84.97.38-62.57.37-11.02.38.71.37-9.96.37 11.38.38-3.2.37 2.85.37-7.83.38 10.67.37-7.47.38-4.97.37 8.17.37 5.34.38-12.09.37 2.49.38 6.04h.37l.37-1.78.38 4.27.37-1.42.38-1.78.37 3.2.37-4.98h.38l.37 3.91.37-1.42.38 4.27.37-6.4.38-2.49.37-5.33.37 10.31.38 7.46.37-15.29.38 9.25.37-3.56.37 10.67.38-14.22.37-4.27.38 2.13.37 4.63.37 9.24.38-5.33.37-1.78.38 3.2.37-17.42.37 14.93.38 7.11.37-14.22.37 3.2.38-36.98.37 1.07.38 12.09.37-14.22.37 8.89.38 16 .37-8.18.38 3.2.37 6.75.37-14.57.38 2.49.37 1.42.38-11.38.37 19.2.37-13.51.38-.36.37 1.43.37 4.62.38-20.27.37 22.4.38-2.13.37-11.02.37 13.86.38-14.22.37 6.04.38 1.43.37 9.6.37-4.27.38-15.29.37 18.49.38-16.36.37 10.32.37-5.34.38-8.53.37 14.93.38 8.18.37-30.58.37 17.07.38-2.85.37-.71.37 7.47.38-.36.37-12.8.38 19.56.37-6.76.37-12.8.38-1.42.37 9.25.38-4.63.37 8.18.37 100.62.38-61.87.37-12.08.38-2.49.37-2.85.37 6.76.38-4.27.37 9.25.37-8.89.38 3.2.37 2.49.38-3.91.37-2.85.37 1.42.38-.35.37-.71.38 6.4.37-14.94.37 14.94.38-1.78.37 2.13.38-11.73.37 14.93.37-5.33.38 2.13.37-8.18.38 9.25.37-4.98.37-6.4.38 4.98.37.35.37 7.83.38-1.07.37-6.4.38 6.4.37-11.02.37 6.04.38 1.07.37 3.2.38-4.27.37-2.84.37 7.82.38-5.33.37-1.78.38-.36.37 1.07.37 7.47.38 1.06.37-14.93.37 11.73.38-27.02.37-19.55.38 12.44.37-2.84.37 2.49.38-11.74.37 13.87.38-1.78.37-6.75.37 2.49.38 1.77.37-12.44.38 16.71.37-3.56.37-9.95.38 17.07.37-15.29.38-1.43.37 2.49.37-.35.38-.71.37-2.14.37 6.05.38 3.2.37 16.35.38-16.35.37 3.2.37-6.76.38 11.02.37-4.62.38-12.09.37-1.77.37 2.13.38 24.53.37-9.95.38 4.62.37-12.45.37 6.05.38-.36.37-7.82.37 14.22.38-15.64.37 13.51.38 3.55.37-5.68.37-6.05.38 7.11.37-.71.38 2.49.37-8.53"/><use xlink:href="#g" transform="matrix(3.75 0 0 3.75 342.45 116.47)"/><use xlink:href="#g" transform="matrix(3.75 0 0 3.75 89.85 7.51)"/></g><text fill="#000" stroke="none" stroke-linecap="round" stroke-linejoin="round" color="#000" font-family="KaTeX_Main" font-size="8" transform="translate(110.4 25.11)"><tspan>AVLTopDown</tspan></text><g fill="none" stroke="currentColor" stroke-linecap="round" stroke-linejoin="round" color="#000"><path stroke="#29C3F6" stroke-dasharray="1.0,2.0" d="M74.9 22.51h29.9M28 73.81l.37-3.2.38 14.93.37-22.75.38 10.31.37 4.62.37 8.89h.38l.37-8.18.38 2.49.37-10.31.37 32 .38-18.85.37-9.24.37 24.89.38-23.11.37 6.4.38-28.8.37 31.29.37-4.63.38 16.71.37 90.66.38-67.9.37 2.13.37-5.33.38-9.6.37-.36.38 7.82.37-4.26.37 2.84.38-3.55.37 5.33.37-5.33.38-3.56.37 10.31.38-2.13.37 8.53.37-4.98.38-5.68h.37l.38 5.33.37.71.37-2.84.38 2.84.37-2.84.38 3.2.37-13.16.37 7.47.38-.71.37 3.55.38-.35.37 5.33.37-5.69.38-2.13.37 3.55.37 3.56.38-8.18.37 4.62.38-14.57.37 6.75.37-.36.38 6.76.37-4.98.38 10.67.37-4.98.37 4.27.38-7.11.37-4.27.38 8.89.37-15.64.37 13.86.38-38.75.37-.36.37 14.22.38-14.57.37 13.86.38-8.53.37-1.78.37 15.65.38-20.27.37 13.16.38 2.84.37 1.42.37-8.18.38 9.96.37-9.96.38-13.51.37 25.25.37-11.38.38-18.84.37 18.48.38-.71.37-3.55.37-5.34.38 18.14.37-16.36.37-2.13.38-7.47.37 25.25.38-8.54.37-3.55.37 15.64.38-2.49.37 1.07.38-17.78.37 20.62.37-25.95.38-6.04.37 20.26.38 8.18.37-23.82.37 12.8.38-7.11.37-2.14.37 15.65.38 2.84.37-10.67.38-3.2.37-2.84.37 7.82.38-14.93.37 120.17.38-70.04.37 3.91.37-5.69.38-3.91.37-3.2.38-6.04.37 8.89.37 1.06.38-3.55.37 7.46.38-2.13.37-1.42.37 2.13.38-1.78.37-2.13.37 1.42.38-2.13h.37l.38 2.13.37-1.42.37 4.98.38-2.49.37 3.91.38-12.09.37 8.89.37-3.56.38 3.2.37-3.55.38 4.98.37-1.07.37-4.27h.38l.37 7.11.37 1.43.38-8.54.37 2.85.38-.36.37 5.69.37-11.02.38 2.13.37.71.38-.71.37 2.49.37-2.84h.38l.37 3.91.38-1.42.37-3.92.37 7.83.38-30.93.37-10.67.38 19.2.37-14.22.37 13.15.38-7.11.37-.71.37-6.04.38 3.91.37-5.34.38 13.16.37 1.42.37-18.49.38-1.78.37 10.67.38-18.49.37 12.09.37 2.49.38-5.33.37 14.57.38 8.89.37-13.51.37-11.38.38 17.78.37 7.11.37-3.2.38-12.09.37 3.2.38 1.07.37-4.98.37-10.31.38 2.85.37-.71.38 8.88.37 7.47.37 1.42.38-1.77.37 4.97.38-17.42.37-6.4.37 14.22.38 6.05.37.35.38-1.06.37-6.76.37 13.87.38-13.51.37-6.05.37 17.07.38-7.47.37 101.68.38-64.35.37-18.84.37 16.71.38-4.98.37-.35.38-8.89.37 4.98.37 8.17.38-3.2.37 2.49.38-10.31.37 3.2.37-7.11.38 10.67.37-.71.37-3.92.38 1.43.37-4.63.38.72.37-1.07.37 11.38.38-13.87.37 4.27.38-1.43.37 3.2.37.72.38.71.37-7.82.38 9.59.37-3.55.37 7.82.38-7.82.37 6.04.38-1.77.37 2.13.37-3.91.38-1.78.37 4.98.37 1.06.38-4.26.37.71.38-.71.37-1.78.37-.71.38-.36.37 8.18.38 2.85.37-7.83.37 1.78.38-52.97.37 41.59.38-22.39.37 16.71.37-20.98.38-7.11.37 21.69.37-2.85.38-13.86.37 16.71.38-2.85.37-11.02.37 9.96.38 9.59.37-8.53.38-8.18.37-.71.37 8.89.38-3.91.37 8.53.38-19.2.37 2.85.37 4.62.38-11.02.37 10.31.38-1.78.37-.71.37 9.25.38 4.26.37-1.42.37-2.13.38-13.87.37 2.84.38 6.05.37-22.4.37 26.67.38-18.85.37.36.38 11.02.37 1.42.37-10.31.38 3.2.37 6.76.38 17.06.37-7.82.37 3.55.38-15.64.37 2.49.37 12.44.38-14.93.37 108.44.38-58.66.37-14.58.37.71.38-6.4.37 2.84.38-.35.37 2.49.37-7.11.38-1.78.37 13.51.38-2.84.37-2.49.37 3.2.38-1.78.37-2.13.38 3.91.37-4.98.37.71.38-2.84.37 11.02.37 1.06.38-4.97.37 5.33.38-8.89.37-2.49.37 3.2.38-2.13.37 2.84.38.36.37.71.37-6.76.38 2.14.37 1.42.38 5.69.37-7.11.37-.71.38 4.62.37-6.4.37-2.84.38 4.97.37 4.98.38-3.91.37 1.78.37-1.43.38 7.47.37 2.13.38-1.06.37-5.69.37-2.85.38-34.13.37-7.82.38 12.09.37-11.73.37 16.35.38 3.56.37-5.34.38 7.47.37-2.13.37-2.85.38 2.14.37 2.13.37-3.91.38 4.62.37-9.95.38 6.75.37-4.98.37 9.96.38-2.85.37-5.33.38 13.51.37 8.18.37-26.67.38 11.74.37-3.56.38-11.38.37 9.25.37-1.42.38 4.97.37-12.8.37 16 .38-22.04.37 10.67.38-.72.37 4.98.37-2.84.38-25.25.37 24.54.38-2.85.37 3.56.37-1.78.38 3.91.37 12.44.38-12.79h.37l.37 2.48.38-8.88.37 2.84.38.36.37-2.14.37 108.08.38-67.9.37-3.91.37-10.31.38 6.4.37-4.63.38 7.47.37-2.49.37-7.11.38 2.13.37 1.43.38 4.62.37 7.46.37-16.35.38 8.18.37.71.38-1.42.37 6.75.37.36.38-6.76.37 1.78.37-3.91.38.71.37 4.98.38-2.14.37 1.78.37 2.49.38-5.33.37 4.97.38-6.75.37 3.2.37 1.07.38-4.98.37 5.69.38-7.47.37 6.04.37 1.07.38 2.13.37-7.11.38 3.2.37 3.91.37-6.75.38 4.98.37 1.06.37.36.38-1.42.37-5.69.38 8.53.37-1.42.37-11.73.38-7.83.37-24.88.38 6.75.37-3.91.37 23.82.38-13.15.37 9.6.38-3.91.37 1.77.37.36.38-5.69.37-1.78.37 6.05.38 5.69.37-7.47.38-17.78.37 13.16.37-9.96.38 10.67.37-2.85.38 16 .37-13.51.37 1.43.38-11.38.37 4.26.38 8.89.37-11.37.37 8.88.38-10.31.37 13.87.37 2.49.38-15.65.37 2.49.38 10.31.37-8.88.37.35.38 12.09.37-13.51.38-4.62.37 3.55.37 1.42.38 6.4.37 3.91.38-7.46h.37l.37 18.84.38-23.46.37 4.62.38 1.78.37-1.43.37 102.75.38-68.97.37 3.91.37-7.11.38-3.2.37-3.56.38 1.07.37 1.42.37 5.34.38-4.63.37 8.54.38-4.27.37-4.98.37 3.56.38-8.53.37 8.88.38.72.37-1.07.37-.71.38 3.55.37-.35.37-1.07.38-2.84.37-5.69.38-1.42.37 3.55.37 11.02.38-5.69.37-9.24.38 9.24.37-3.91.37 1.07.38-1.42.37.71.38 2.49.37 5.69.37-4.98.38-6.05.37 8.18.38-6.75.37 7.46.37 2.14.38-6.76.37 4.62.37 4.98.38-10.31.37 1.42.38-1.42.37-3.56.37 9.6.38-45.86.37.36.38 11.02.37 9.6.37-5.69.38-7.11.37 6.4.38-2.14.37 3.92.37-9.6.38 7.11.37-10.67.37 23.47.38-9.6.37-3.56.38 9.96.37-9.96.37 12.44.38-8.53.37-10.31.38 7.11.37 6.05.37-8.89.38 1.78.37-1.07.38-6.76.37 12.8.37-5.69.38-.35.37-1.07.38 12.8.37-9.6.37 9.96.38-6.05.37-5.69.37.36.38 2.13.37-3.91.38 3.91.37-11.02.37 9.25.38 6.75.37-14.93.38 2.13.37-.71.37 1.42.38-.71.37 8.89h.38l.37-2.84.37 102.39.38-55.46.37-18.85.37.71.38-7.11.37 11.74.38-10.32.37 2.14.37 2.49.38 6.04.37 3.56.38-4.63.37-4.26.37.71.38 5.33.37-4.26.38 3.55.37-7.11.37-2.13.38 7.11.37 1.06.38-2.84h.37l.37-1.78.38.71.37-2.49.37-5.68.38-3.56.37 17.78.38-14.22.37 8.17.37 1.07.38-3.91.37 3.91.38 5.33.37-8.17.37 1.77.38-2.13.37 12.8.38-15.64.37 3.2.37-1.07.38 6.04.37-6.04h.37l.38-1.42.37 9.6.38 1.77.37-11.73.37 2.85.38-32 .37-3.2.38 12.09.37 1.77.37-17.06.38 3.55.37-6.4.38 14.23.37-6.4.37-4.63.38.36.37 17.06.38-.71.37-19.55.37-1.78.38 12.8.37 4.62.37-5.69.38 6.4.37 2.49.38-3.55.37-7.47.37 8.53.38-12.8.37 14.94.38-1.07.37-18.84.37 10.66.38 8.89.37-.71.38-6.4.37 3.91.37-.71.38-4.98.37 10.31.37 23.11.38-30.93.37-.35.38 3.2.37-.36.37-11.02.38-10.31.37 18.84.38-10.31.37 13.51.37 3.56.38-9.25.37 16 .38-15.29.37 20.98.37 84.97.38-62.57.37-11.02.38.71.37-9.96.37 11.38.38-3.2.37 2.85.37-7.83.38 10.67.37-7.47.38-4.97.37 8.17.37 5.34.38-12.09.37 2.49.38 6.04h.37l.37-1.78.38 4.27.37-1.42.38-1.78.37 3.2.37-4.98h.38l.37 3.91.37-1.42.38 4.27.37-6.4.38-2.49.37-5.33.37 10.31.38 7.46.37-15.29.38 9.25.37-3.56.37 10.67.38-14.22.37-4.27.38 2.13.37 4.63.37 9.24.38-5.33.37-1.78.38 3.2.37-17.42.37 14.93.38 7.11.37-14.22.37 3.2.38-36.98.37 1.07.38 12.09.37-14.22.37 8.89.38 16 .37-8.18.38 3.2.37 6.75.37-14.57.38 2.49.37 1.42.38-11.38.37 19.2.37-13.51.38-.36.37 1.43.37 4.62.38-20.27.37 22.4.38-2.13.37-11.02.37 13.86.38-14.22.37 6.04.38 1.43.37 9.6.37-4.27.38-15.29.37 18.49.38-16.36.37 10.32.37-5.34.38-8.53.37 14.93.38 8.18.37-30.58.37 17.07.38-2.85.37-.71.37 7.47.38-.36.37-12.8.38 19.56.37-6.76.37-12.8.38-1.42.37 9.25.38-4.63.37 8.18.37 100.62.38-61.87.37-12.08.38-2.49.37-2.85.37 6.76.38-4.27.37 9.25.37-8.89.38 3.2.37 2.49.38-3.91.37-2.85.37 1.42.38-.35.37-.71.38 6.4.37-14.94.37 14.94.38-1.78.37 2.13.38-11.73.37 14.93.37-5.33.38 2.13.37-8.18.38 9.25.37-4.98.37-6.4.38 4.98.37.35.37 7.83.38-1.07.37-6.4.38 6.4.37-11.02.37 6.04.38 1.07.37 3.2.38-4.27.37-2.84.37 7.82.38-5.33.37-1.78.38-.36.37 1.07.37 7.47.38 1.06.37-14.93.37 11.73.38-27.02.37-19.55.38 12.44.37-2.84.37 2.49.38-11.74.37 13.87.38-1.78.37-6.75.37 2.49.38 1.77.37-12.44.38 16.71.37-3.56.37-9.95.38 17.07.37-15.29.38-1.43.37 2.49.37-.35.38-.71.37-2.14.37 6.05.38 3.2.37 16.35.38-16.35.37 3.2.37-6.76.38 11.02.37-4.62.38-12.09.37-1.77.37 2.13.38 24.53.37-9.95.38 4.62.37-12.45.37 6.05.38-.36.37-7.82.37 14.22.38-15.64.37 13.51.38 3.55.37-5.68.37-6.05.38 7.11.37-.71.38 2.49.37-8.53"/><use xlink:href="#h" color="#29C3F6" transform="matrix(3.75 0 0 3.75 56.04 90.16)"/><use xlink:href="#h" color="#29C3F6" transform="matrix(3.75 0 0 3.75 89.85 22.51)"/></g><text fill="#000" stroke="none" stroke-linecap="round" stroke-linejoin="round" color="#000" font-family="KaTeX_Main" font-size="8" transform="translate(241.1 10.11)"><tspan>RedBlackBottomUp</tspan></text><g fill="none" stroke="currentColor" stroke-linecap="round" stroke-linejoin="round" color="#000"><path stroke="#F44336" d="M205.6 7.51h29.9M28 120.74l.37 12.44.38-4.98.37-1.06.38 5.33.37-13.15.37 20.26.38-12.09.37 2.85.38 1.42.37-7.82.37 16.71.38-3.2.37-.36.37-10.31.38 1.42.37-5.33.38 12.8.37-2.13.37 1.06.38 1.78.37 53.69.38-50.13.37-7.82.37-2.14.38-13.15.37 13.15.38-10.31h.37l.37-.35.38 4.62.37-8.18.37 4.27.38-2.14.37-1.06.38 7.82.37-.36.37 4.27.38-3.56.37-3.91.38 4.27.37-3.91.37-.71.38-6.05.37 2.14.38 3.91.37-1.07.37.36.38 2.13.37-1.78.38-.71.37 1.07.37 4.26.38 3.56.37-14.22.37 3.55.38 6.76.37-8.89.38 8.18h.37l.37-2.85.38 4.63.37-3.56.38-.71.37 2.84.37-.35.38-6.05.37.36.38-1.42.37 10.66.37-7.11.38 2.85.37-21.69.37 17.78h.38l.37 6.75.38 6.76.37 11.73.37-21.33.38 6.75.37 7.11.38 5.34.37-11.74.37 5.34.38 1.06.37-16.35.38 8.18.37 8.53.37-3.2.38-4.62.37-14.94.38 7.83.37.35.37 11.02.38-3.91.37-4.62.37 3.91.38-3.55.37.35.38 3.91.37-2.49.37 12.45.38-4.98.37-4.62.38-2.49.37 12.44.37-20.26.38-2.14.37 15.29.38 12.45.37-13.51.37-16 .38 5.69.37 9.95.37 4.27.38 5.69.37-13.16h.75l.37-2.13.38 4.97.37 59.02.38-58.3.37 5.68.37-11.73.38-7.46.37 7.11.38-7.11.37 3.2.37 2.48.38-4.62.37 7.82.38-1.06.37-4.27.37 1.78.38 2.13.37.36.37-9.25.38 7.11.37-1.77.38-3.91.37 2.13.37 3.91.38-1.78.37 5.69.38-9.6.37 3.91.37-1.78.38 3.2.37-2.13.38-1.78.37 1.07.37-1.78.38 3.56.37 2.49.37.35.38-2.49.37-.71.38-7.46.37 14.57.37-8.53.38-1.42.37 1.42h.38l.37 1.07.37-5.69.38 6.75.37-5.69.38 9.6.37-4.62.37 5.33.38-36.26.37 24.18.38 3.91.37 11.37.37 2.14.38-3.91.37 7.82.37-12.09.38 9.6.37-16 .38 17.78.37-1.78.37-3.56.38-1.06.37 1.78.38-2.14.37-2.13.37 1.42.38 7.11.37 7.47.38-5.69.37-11.38.37 7.47.38-9.25.37 19.2.37-2.13.38-11.38.37 1.43.38 2.48.37.72.37-11.03.38-3.55.37 5.33.38-3.55.37 13.86.37-7.82.38-3.91.37 14.22.38 3.56.37-17.07.37 3.56.38 7.46.37-9.24.38 3.2.37.35.37 8.54.38-10.67h.37l.37 9.24.38-8.53.37 60.8.38-56.53.37-2.49.37-6.76.38-3.91.37 4.27.38-6.4.37 7.47.37-9.6.38 6.04.37 2.84.38 1.07.37-7.46.37 4.97.38-.71.37-2.84.37 7.11.38-3.56.37 1.07.38-2.13.37-2.85.37 5.69.38 8.89.37-16.71.38 11.02.37-7.82.37-3.56.38 4.98.37-4.27.38 10.31.37-13.51.37 12.09.38-1.42.37-.71.38-6.4.37 9.95.37-3.55.38-9.6.37 13.51.37-5.69.38 4.62.37-4.97.38-1.07.37 1.42.37 7.11.38-9.95.37 1.06.38-1.77.37-3.2.37 7.11.38-17.42.37 21.33.38-2.85.37 14.58.37-11.73.38 2.49.37-4.63.37 15.29.38-3.2.37-7.46h.38l.37-.71.37 7.11.38-4.27.37 12.44.38-14.57.37 5.33.37-3.2.38-7.11.37 14.22.38-13.51.37 4.27.37-5.34.38 14.58.37-10.67.38 1.43.37-.71.37 12.44.38-9.24.37 4.97.37 3.56.38-16 .37 11.02.38-8.89.37-2.49.37 4.27.38-8.18.37 4.98h.38l.37 13.16.37-5.34.38 2.49.37-1.07.38 1.78.37-3.91.37 9.96.38-17.07.37 13.51.37-8.18.38-4.26.37 63.99.38-45.86.37-18.84.37-.72.38-5.68.37-3.91.38 4.97.37 4.27.37-5.69.38-3.55.37 13.51.38-4.63.37-.71.37 1.78.38-1.07.37-5.33.38 3.91.37-3.55.37 1.42.38-2.49.37 12.8.37-4.27.38-3.2.37 8.89.38-8.53.37-2.85.37 2.14.38 1.42.37-6.4.38 7.82.37-6.04.37-.71.38 2.13.37-2.13.38 5.33.37-1.78.37-6.4.38 12.8.37-13.51.37 1.07h.38l.37-4.27.38 7.82.37 3.2.37 1.07.38-1.07.37.36.38-1.78.37-1.42.37-1.78.38-11.38.37 6.05.38 3.55.37 11.74.37 6.04.38-5.33.37-6.76.38 7.82.37 3.91.37-2.48.38-5.34.37 5.34.37-1.43.38 3.56.37-7.11.38-3.2.37 4.62.37 9.96.38 11.02.37-25.6.38 13.86.37 1.43.37-21.69.38 11.02.37 2.13.38 4.63.37-4.98.37-2.85.38-5.33.37 5.69.37 2.13.38-2.13.37 2.84.38 3.56.37-3.2.37-1.07.38-5.69.37 1.78.38 16.36.37-20.27.37-.35.38 22.04.37-12.45.38-2.84.37 9.96.37-8.18.38 4.62.37 4.62.38-17.42.37 7.82.37 60.09.38-52.98.37-1.06.37-5.69.38-4.27.37-4.62.38-.36.37 7.11.37-9.95.38 2.13.37-.35.38 7.46.37-1.42.37 2.49.38-4.62.37-3.56.38 7.11.37-.71.37-2.84.38.71.37-8.18.37 1.78.38 8.53.37-10.66.38 6.04.37-2.13.37 2.49.38-8.54.37 12.45.38-8.18.37 5.33.37 6.4.38-13.15.37 9.95.38-1.78.37 2.49.37-5.68.38-3.92.37 4.63.38 1.06.37-7.11.37 8.89.38-11.73.37 11.37.37.72.38-1.78.37-2.49.38 6.04.37-9.6.37-1.77.38-1.78.37 2.49.38 2.13.37 12.44.37-3.55h.38l.37-4.27.38 12.8h.37l.37-6.4.38-2.13.37 1.07.37 5.33.38 6.75.37-20.62.38 10.67.37-4.62.37 3.91.38 12.09.37-5.69.38-7.47.37.71.37 6.4.38-11.38.37 9.6.38-14.22.37 9.6.37-5.69.38 5.69.37 2.49.37 8.89.38-11.73.37.71.38 3.55.37-6.04.37 3.55.38-1.06.37-4.98.38-5.69.37 16.71.37-2.49.38 8.89.37-4.98.38-11.02.37 10.31.37 11.02.38-1.77.37-29.16.38 24.89.37-10.31.37 57.95.38-55.46.37-2.85.37 1.78.38-13.51.37-1.06.38 4.26.37 4.98.37-6.76.38-.35.37 9.6.38 1.42.37-8.53.37 5.69.38-11.03.37 7.83.38-3.91.37 2.48.37 1.43.38 1.77.37-1.06.37-8.18.38 4.27.37-9.25.38 2.49.37 7.82.37-.71.38 2.13.37-7.11.38 11.38.37-10.31.37-2.84.38 3.55.37 2.14.38 2.13.37 6.75h.37l.38-11.02.37 2.85.38-3.2.37 3.2.37 2.48.38 1.43.37.35.37-1.42.38-2.13.37-2.14.38 4.63.37-1.07.37 3.2.38-19.2.37 4.98.38 12.8.37-4.27.37 20.62.38-7.82.37-4.98.38-2.84.37 18.13.37-23.82.38 1.78.37 5.33.37 19.2.38-15.29.37 1.42.38-1.42.37-7.47.37 7.47.38 4.98.37-5.69.38.71.37 7.11.37-17.77.38 15.64.37-9.6.38-6.04.37 9.59.37-4.62.38 9.25.37.71.38 10.66.37-14.22.37 2.14.38-10.67.37-1.42.37 7.82.38 9.6.37-15.29.38 7.47.37-3.56.37 9.6.38-9.24.37 3.2.38-7.83.37 2.85.37.35.38-1.06.37 1.06.38 9.25.37 8.53.37 44.44.38-45.51.37-13.51.37 1.43.38-13.87.37 11.73.38-11.73.37 3.56.37-1.43.38 7.11.37 5.34.38-3.56.37-8.89.37 2.49.38 2.85h.75l.37.35.37-8.89.38 10.67.37-7.82.38-1.07.37 4.27.37 2.84.38-2.49.37-3.55.37-4.27.38 1.07.37 13.51.38-6.76.37-3.2.37-2.13.38 4.98.37-9.25.38 13.51.37-3.91.37 4.98.38-3.55.37 2.48.38-8.88.37.35.37-4.62.38 11.73.37-10.66.37 7.82.38-6.76.37 6.05.38 7.82.37-11.38.37 7.11.38-23.82.37 10.31.38 9.25.37 1.06.37 11.38.38 2.13.37-15.28.38 10.31.37 3.2.37-19.91.38 7.82.37 2.84.38 16.71.37-18.49.37 11.38.38-7.11.37-4.62.37 22.4.38-19.2.37 5.33.38-2.13.37-4.27.37 10.67.38-4.27.37-2.49.38-14.93.37 3.2.37 13.87.38-2.14.37-6.4.38 5.69.37-6.04.37 16.71.38-10.31.37-1.78.37 13.87.38-17.07.37-1.07.38 8.18.37 8.18.37-13.51.38 7.11.37 7.46.38-22.75.37 7.82.37 8.89.38.71.37-.71.38-6.4.37 15.64.37 46.58.38-56.89.37-6.4.38-.71.37-1.78h.37l.38 3.2.37-4.97.37-1.42.38-1.07.37-2.49.38 8.18.37 3.91.37-15.65.38 7.12.37-4.63.38 8.89.37-9.95.37 8.53.38-2.84.37-.72.38-.35.37 4.26.37.36.38-1.78.37-1.06.37 5.33.38-.71.37-4.27.38-2.84.37 6.04.37-4.98.38 12.45.37-14.22.38-2.14.37 2.85.37 2.49.38 2.48.37 1.43.38-5.34.37 1.07.37 2.84.38-8.53.37 4.27.38-1.07.37-4.98.37 7.83.38.71.37-1.07.37 4.27.38-24.89.37 15.29.38 6.75.37 11.74.37-16 .38 12.08.37-3.2.38-2.13.37 2.13.37-3.55.38 3.2.37-6.76.38.72.37 11.02.37-5.69.38-5.69.37 6.04.37 7.47.38-7.11.37 19.91.38-24.18.37 13.51.37-2.49.38.36.37-8.53.38 6.04.37 3.91.37 2.14.38-16 .37 6.75.38 1.07.37-10.31.37 8.53.38 1.42h.37l.38 3.91.37-13.51.37 11.38.38-12.44.37 9.24.37 12.44.38-1.42.37-13.51.38-1.07.37 1.43.37 10.31.38-16.36.37 5.34.38 3.55.37 1.42.37 59.38.38-56.89.37 2.85.38-6.76.37-4.98.37-.35.38 1.06.37-2.48.37.35.38 1.42.37-5.68.38 4.97.37-4.26.37 6.04.38-.71.37-7.11.38 2.13.37 6.4.37 1.42.38-8.53.37 4.98.38-3.2.37 5.33.37-5.33.38 3.55.37-6.04.38 12.44.37-5.69.37-7.82.38-.71.37 9.96.37-3.2.38-6.4.37 11.73.38-8.53.37 2.84.37-4.62.38 4.27.37-2.14.38 4.98.37-12.8.37 13.16.38-1.07.37 1.78.38-3.56.37-.35.37 3.91.38-4.27.37 1.07.37-.71.38-8.18.37 4.62.38 3.91.37-7.11.37 9.6.38-4.98.37 13.51.38-6.75.37 9.24.37-16 .38 8.54.37-3.56.38-9.24.37 23.82.37-16 .38 5.33.37-2.13.38 1.06.37-4.62.37-1.06.38 2.84.37-2.84.37 15.64.38-4.98.37-2.84.38-4.27.37-2.49.37 9.25.38 4.97.37-11.73.38-14.22.37 19.91.37-19.55.38 30.22.37.35.38-11.73.37-13.87.37 14.58.38 4.98.37-16.36.37 20.62.38-10.66.37-1.42.38 6.4.37.71.37-12.09.38 7.82.37-3.56.38-7.11.37 4.98"/><use xlink:href="#e" color="#F44336" transform="matrix(3.75 0 0 3.75 113.62 116.12)"/><use xlink:href="#e" color="#F44336" transform="matrix(3.75 0 0 3.75 220.55 7.51)"/></g><text fill="#000" stroke="none" stroke-linecap="round" stroke-linejoin="round" color="#000" font-family="KaTeX_Main" font-size="8" transform="translate(241.1 25.11)"><tspan>RedBlackTopDown</tspan></text><g fill="none" stroke="currentColor" stroke-linecap="round" stroke-linejoin="round" color="#000"><path stroke="#3B75EA" stroke-dasharray="1.0,2.0" d="M205.6 22.51h29.9M28 118.96l.37 14.22.38-8.18.37-3.19.38 10.66.37-12.44.37 17.77.38-11.73.37 2.49.38 4.62.37-8.89.37 15.29.38-3.2.37 1.07.37-14.58.38 3.91.37-9.95.38 14.57.37-.35.37.71.38 6.04.37 51.56.38-49.42.37-8.54.37-3.2.38-13.15.37 13.51.38-10.67.37 1.07.37-2.49.38 5.34.37-7.83.37 3.91h.38l.37-4.97.38 8.89.37-2.49.37 6.4.38-1.78.37-4.27.38 2.49.37-1.78.37-3.2.38-4.26.37 1.77.38 5.69.37-3.91.37 4.27.38.35.37-2.84.38-1.07h.37l.37 4.98.38 6.4.37-14.93.37 1.06.38 8.54.37-9.6.38 7.11.37.35.37-4.62.38 7.82.37-5.33.38.71.37 2.49.37 1.78.38-9.25.37 2.14.38.71.37 6.75.37-4.26.38-4.62.37-15.29.37 17.06.38 4.63.37 1.77.38 11.02.37 9.25.37-22.76.38 8.89.37 4.98.38 3.56.37-9.6.37 6.04.38-1.42.37-15.29.38 9.24.37 8.18.37-2.49.38-1.78.37-18.84.38 9.6.37-6.4.37 16.36.38-4.98.37-3.2.37 2.49.38-3.2.37 5.33.38-3.2.37 4.27.37 8.53.38-4.27.37-6.04.38-4.98.37 15.29.37-20.98.38-1.06.37 16.71.38 11.73.37-17.07.37-14.22.38 7.11.37 11.38.37 6.04.38.72.37-12.09.38 1.77.37-1.42.37-1.06.38 4.97.37 59.02.38-58.31.37 5.69.37-13.15.38-5.33.37 4.97.38-4.97.37 1.77.37 2.49.38-4.98.37 7.11.38-1.77.37-3.91.37 2.84.38 1.78h.37l.37-7.82.38 6.4.37-1.78.38-3.91.37 2.13.37 3.91.38-.35.37 4.97.38-12.8.37 6.05.37-.71.38 2.84.37-3.91.38-1.78.37 2.85.37.71.38.35.37 1.78.37 2.13.38-4.62.37 1.43.38-7.47.37 12.09.37-6.05.38-1.06.37-.71.38.71.37 1.42.37-4.62.38 5.69.37-3.2.38 7.46.37-2.13.37 3.2.38-36.98.37 24.89.38 7.11.37 8.89.37-4.98.38 2.49.37 8.18.37-13.87.38 12.8.37-14.58.38 12.09.37.71.37-6.4.38.36.37 1.42.38-2.13.37.35.37-2.13.38 13.16.37 2.48.38-4.26.37-13.16.37 12.45.38-11.74.37 20.62.37-.35.38-12.8.37-1.42.38-.71.37 7.82.37-16.36.38-2.48.37 5.68.38-.35.37 14.93.37-11.73.38-1.07.37 12.8.38 3.91.37-20.97.37 5.68.38 2.85.37-2.49.38 2.84.37-5.33.37 13.16.38-7.47.37-7.11.37 12.8.38-11.02.37 63.28.38-56.17.37-2.14.37-8.17.38-3.2.37 3.55.38-7.11.37 7.82.37-10.66.38 8.53.37 1.42.38 1.07.37-6.76.37 4.63.38-4.27.37 1.78.37 4.97.38-.71.37-1.77.38-.72.37-3.55.37 4.62.38 9.96.37-16.71.38 10.31.37-7.47.37-4.62.38 8.53.37-6.4.38 9.6.37-12.09.37 10.31.38-.35.37-.36.38-6.04.37 8.17.37-3.55.38-7.47.37 10.67.37-3.2.38 4.62.37-5.69.38.71.37-1.06.37 10.66.38-11.37.37 1.77.38-2.84.37-4.98.37 9.25.38-18.14.37 17.07.38-1.78.37 14.58.37-9.25.38 2.49.37 1.43.37 9.95.38-2.84.37-3.91.38-4.63.37 1.07.37 4.98.38-1.78.37 13.15.38-17.06.37 6.4.37-1.78.38-8.53.37 14.93.38-18.84.37 5.69.37-1.43.38 13.51.37-12.44.38 1.42.37 1.42.37 14.58.38-13.15.37 3.91.37 8.89.38-18.14.37 9.96.38-9.6.37-1.07.37 4.98.38-13.15.37 9.24.38-4.27.37 17.07.37-6.4.38 1.78.37 1.77.38.72.37-2.14.37 7.82.38-18.13.37 16 .37-7.47.38-6.4.37 65.07.38-46.58.37-18.49.37-.71.38-6.4.37-4.26.38 6.75.37 3.2.37-7.46.38-3.56.37 12.09.38-2.49.37-2.49.37 3.91.38-3.55.37-3.2.38 3.55.37-.71.37-1.06.38-.72.37 9.25.37-2.14.38-4.26.37 11.02.38-11.02.37-3.91.37 4.62.38 1.78.37-7.82.38 7.46.37-5.69.37-1.42.38 4.98.37-2.85.38 5.34.37-3.2.37-5.69.38 9.95.37-9.24.37-1.78.38 3.56.37-4.98.38 8.53.37.71.37-.71.38 3.91.37-.71.38-4.26.37.35.37.36.38-16.36.37 9.25.38 3.2.37 10.31.37 6.4.38-6.05.37-1.78.38-1.77.37 9.24h.37l.38-6.04.37 3.55.37.36.38 3.91.37-7.82.38-2.85.37 4.98.37 8.18.38 10.31.37-23.82.38 9.95.37 3.91.37-19.91.38 12.8.37 1.42.38.72.37-2.49.37-3.91.38-9.25.37 11.73.37.36.38-4.98.37 5.34.38 3.2.37-3.92.37 2.14.38-9.6.37 4.26.38 13.52.37-18.85.37 2.14.38 17.77.37-6.75.38-8.18.37 12.44.37-11.73.38 8.89.37 3.2.38-13.16.37 4.27.37 59.73.38-52.62.37.36.37-7.47.38-2.13.37-6.4.38-2.14.37 11.74.37-13.87.38 1.78.37 2.13.38 5.69.37-3.2.37 4.27.38-3.56.37-.71.38 1.07.37 2.84.37-1.78.38 1.07.37-10.67.37-.71.38 8.54.37-9.25.38 7.47.37-1.78.37-1.42.38-5.69.37 9.6.38-4.98.37 7.47.37 1.42.38-11.38.37 10.67.38.35.37-1.77.37-6.76.38.71.37 4.63.38 3.19.37-9.59.37 7.82.38-8.18.37 7.47.37 3.55.38-4.26.37-1.43.38 4.98.37-9.6.37.36.38-5.34.37-1.77.38 13.15.37 7.47.37-3.91.38 4.62.37-6.4.38 9.6.37-.71.37-4.27.38-4.27.37 3.56.37 7.11.38 3.91.37-17.78.38 6.76.37 1.07.37-2.49.38 16.71.37-6.76.38-4.62.37-3.2.37 7.82.38-12.44.37 8.89.38-7.11.37-1.07.37-.36.38 5.34.37.35.37 10.31.38-13.86.37 3.91.38.71.37-6.76.37 4.63.38 2.48.37-8.53.38-4.26.37 15.28.37-.71.38 9.25.37-4.27.38-17.07.37 10.31.37 12.09.38-2.13.37-23.11.38 21.33.37-7.11.37 56.89.38-55.82.37-2.85.37 1.07.38-14.93.37-1.07.38 4.98.37 6.4.37-6.05.38-2.13.37 9.96h.38l.37-5.34.37 2.85.38-11.38.37 8.53.38-4.26.37 1.42.37 2.49.38 1.06.37.71.37-8.88.38 2.49.37-8.89.38 6.04.37 6.4.37-.71.38 1.42.37-6.75.38 11.37.37-12.08.37-2.85.38 5.33.37 2.85.38-1.07.37 6.4.37 1.42.38-9.95.37 5.33.38-5.33.37 2.13.37 6.76.38-.36.37-2.84.37 1.42.38-1.42.37-5.69.38 3.55.37.36.37 5.69.38-18.13.37-.72.38 17.07.37-2.49.37 18.85.38-8.89.37-.71.38-7.12.37 17.78.37-23.46.38.71.37 9.24.37 12.45.38-8.54.37-4.26.38 4.62.37-11.02.37 11.73.38.35.37-4.26.38-2.14.37 9.25.37-17.42.38 19.2.37-11.03.38-7.11.37 10.67.37-9.24.38 9.95.37 3.2.38 12.8.37-20.27.37 4.98.38-9.6.37-2.49.37 9.6.38 8.54.37-15.65.38 11.38.37-8.89.37 14.22.38-17.42.37 7.47.38-6.05.37-.35.37 6.75.38-5.33.37 1.42.38 7.11.37 7.47.37 47.64.38-44.44.37-13.51.37.71.38-14.58.37 12.09.38-11.38.37 4.63.37-1.78.38 2.13.37 8.53.38-4.97.37-7.11.37 2.49h.38l.37 3.19.38-.71.37-.35.37-6.76.38 7.47.37-6.76.38-.35.37 3.55.37 3.56.38-2.13.37-6.05.37 1.07.38-2.49.37 14.58.38-8.18.37-2.13.37-.71.38 2.13.37-8.89.38 14.93.37-4.97.37 6.39.38-3.55.37 1.42.38-5.69.37-.71.37-5.69.38 12.8.37-12.09.37 6.4.38-4.97.37 5.33.38 6.4.37-10.31.37 6.4.38-22.04.37 10.66.38 4.98.37 7.46.37 12.8.38 1.07.37-16.35.38 8.17.37 3.2.37-17.77.38 6.4.37-.71.38 20.62.37-19.91.37 11.73.38-5.69.37-4.62.37 21.33.38-15.64.37-.36.38-1.07.37-3.91.37 9.25.38-.36.37-4.26.38-12.45.37 1.78.37 10.31.38-3.56.37-.71.38 1.43.37-2.49.37 16.35.38-11.73.37-1.78.37 13.87.38-18.85.37.72.38 8.88.37 11.38.37-15.64.38 1.42.37 12.09.38-24.18.37 9.24.37 6.4.38 3.2.37 1.07.38-11.73.37 12.8.37 52.62.38-55.82.37-7.11.38-.71.37-3.56.37.36.38 3.2.37-5.34.37.71.38-.35.37-5.33.38 8.88.37 7.47.37-13.15.38 1.77.37-6.04.38 10.66.37-14.22.37 7.11.38.72.37.71.38-2.14.37 3.91.37 3.2.38-1.06.37-.71.37 4.26.38-1.06.37-4.98.38-3.91.37 7.46.37-4.97.38 11.02.37-13.87.38-2.49.37 6.4.37 1.07.38 1.07.37 2.48.38-6.39h.37l.37 4.97.38-8.17.37 2.84.38 1.42.37-5.69.37 7.11.38-.35.37-1.78.37 6.4.38-28.09.37 17.42.38 3.56.37 14.93.37-12.44.38 9.24.37-.71.38-3.2.37.36.37-.71.38.71.37-8.18.38 3.91.37 9.96.37-6.4.38-7.83.37 5.69.37 8.54.38-8.54.37 20.98.38-18.13.37 6.75.37-2.13h.38l.37-4.27.38 3.91.37 4.98.37 6.05.38-21.69.37 6.4.38 3.2.37-14.94.37 14.23.38 1.06.37-3.91.38 4.27.37-9.96.37 7.82.38-10.31.37 6.76.37 13.87.38-2.14.37-13.15.38 3.2.37-2.14.37 9.96.38-15.29.37 9.6.38-.71.37 2.49.37 58.66.38-55.82.37 2.14.38-7.47.37-5.69.37 1.07.38.35.37-3.55.37 1.42.38 1.42.37-6.4.38 5.69.37-5.69.37 6.05.38-1.07.37-4.98.38 3.2.37 3.91.37 2.14.38-8.18.37 3.55.38 1.07.37 3.56.37-7.47.38 2.13.37-4.26.38 13.15.37-4.62.37-8.89.38-1.42.37 9.6.37-2.85.38-7.82.37 12.8.38-6.75.37 1.06.37-2.13.38 1.42.37-.35.38 2.49.37-10.67.37 13.51.38-.36.37 1.78.38-6.4.37 2.85.37 3.2.38-5.69.37 2.49.37-2.85.38-7.11.37 7.47.38-1.42.37-2.49.37 6.4.38-2.14.37 14.22.38-8.17.37 6.4.37-15.65.38 8.89h.37l.38-9.6.37 22.05.37-10.32.38-3.91.37-6.75.38 10.66.37-7.82.37 3.2.38.71.37-.71.37 11.38.38-2.84.37-1.43.38-4.97.37-4.27.37 7.82.38 7.11.37-14.93.38-10.31.37 18.49.37-19.91.38 30.57.37-2.49.38-10.66.37-6.76.37 13.87.38 1.07.37-17.07.37 20.62.38-11.02.37-4.27.38 7.82.37 2.85.37-11.38.38 6.76.37-.36.38-8.89.37 1.78"/><use xlink:href="#i" color="#3B75EA" transform="matrix(3.75 0 0 3.75 171.2 130.34)"/><use xlink:href="#i" color="#3B75EA" transform="matrix(3.75 0 0 3.75 220.55 22.51)"/></g><path fill="none" stroke="none" stroke-linecap="round" stroke-linejoin="round" stroke-width="0" d="M28 45.01V205M371.99 45.01H28" color="#000"/></svg>