<svg xmlns="http://www.w3.org/2000/svg" xmlns:xlink="http://www.w3.org/1999/xlink" viewBox="0 0 400 300"><path fill="none" d="M0 0h400v300H0z"/><defs><path id="c" stroke="currentColor" stroke-width=".267" d="M-1-1h2v2h-2z"/><path id="b" stroke="currentColor" stroke-width=".267" d="m0-1.33-1.33 2h2.66z"/><use xlink:href="#a" id="d" fill="currentColor" stroke="none"/><use xlink:href="#b" id="e" fill="currentColor" stroke="none"/><circle id="a" cx="0" cy="0" r="1" stroke="currentColor" stroke-width=".267"/></defs><path fill="none" stroke="#000" stroke-dasharray="0.1,0.2" stroke-linecap="round" stroke-linejoin="round" stroke-width=".1" d="M35.33 255V75.01" class="gridline" color="#000"/><g fill="none" stroke-linecap="round" stroke-linejoin="round" stroke-width="0" color="#000"><path d="M35.33 255v-7.5m0-172.49v7.5"/><text fill="#000" font-family="KaTeX_Main" font-size="10" text-anchor="middle" transform="translate(35.33 265.75)"><tspan> 1</tspan></text></g><path fill="none" stroke="#000" stroke-dasharray="0.1,0.2" stroke-linecap="round" stroke-linejoin="round" stroke-width=".1" d="M71.96 255V75.01" class="gridline" color="#000"/><g fill="none" stroke-linecap="round" stroke-linejoin="round" stroke-width="0" color="#000"><path d="M71.96 255v-7.5m0-172.49v7.5"/><text fill="#000" font-family="KaTeX_Main" font-size="10" text-anchor="middle" transform="translate(71.96 265.75)"><tspan> 2</tspan></text></g><path fill="none" stroke="#000" stroke-dasharray="0.1,0.2" stroke-linecap="round" stroke-linejoin="round" stroke-width=".1" d="M108.58 255V75.01" class="gridline" color="#000"/><g fill="none" stroke-linecap="round" stroke-linejoin="round" stroke-width="0" color="#000"><path d="M108.58 255v-7.5m0-172.49v7.5"/><text fill="#000" font-family="KaTeX_Main" font-size="10" text-anchor="middle" transform="translate(108.58 265.75)"><tspan> 3</tspan></text></g><path fill="none" stroke="#000" stroke-dasharray="0.1,0.2" stroke-linecap="round" stroke-linejoin="round" stroke-width=".1" d="M145.21 255V75.01" class="gridline" color="#000"/><g fill="none" stroke-linecap="round" stroke-linejoin="round" stroke-width="0" color="#000"><path d="M145.21 255v-7.5m0-172.49v7.5"/><text fill="#000" font-family="KaTeX_Main" font-size="10" text-anchor="middle" transform="translate(145.21 265.75)"><tspan> 4</tspan></text></g><path fill="none" stroke="#000" stroke-dasharray="0.1,0.2" stroke-linecap="round" stroke-linejoin="round" stroke-width=".1" d="M181.84 255V75.01" class="gridline" color="#000"/><g fill="none" stroke-linecap="round" stroke-linejoin="round" stroke-width="0" color="#000"><path d="M181.84 255v-7.5m0-172.49v7.5"/><text fill="#000" font-family="KaTeX_Main" font-size="10" text-anchor="middle" transform="translate(181.84 265.75)"><tspan> 5</tspan></text></g><path fill="none" stroke="#000" stroke-dasharray="0.1,0.2" stroke-linecap="round" stroke-linejoin="round" stroke-width=".1" d="M218.47 255V75.01" class="gridline" color="#000"/><g fill="none" stroke-linecap="round" stroke-linejoin="round" stroke-width="0" color="#000"><path d="M218.47 255v-7.5m0-172.49v7.5"/><text fill="#000" font-family="KaTeX_Main" font-size="10" text-anchor="middle" transform="translate(218.47 265.75)"><tspan> 6</tspan></text></g><path fill="none" stroke="#000" stroke-dasharray="0.1,0.2" stroke-linecap="round" stroke-linejoin="round" stroke-width=".1" d="M255.1 255V75.01" class="gridline" color="#000"/><g fill="none" stroke-linecap="round" stroke-linejoin="round" stroke-width="0" color="#000"><path d="M255.1 255v-7.5m0-172.49v7.5"/><text fill="#000" font-family="KaTeX_Main" font-size="10" text-anchor="middle" transform="translate(255.1 265.75)"><tspan> 7</tspan></text></g><path fill="none" stroke="#000" stroke-dasharray="0.1,0.2" stroke-linecap="round" stroke-linejoin="round" stroke-width=".1" d="M291.73 255V75.01" class="gridline" color="#000"/><g fill="none" stroke-linecap="round" stroke-linejoin="round" stroke-width="0" color="#000"><path d="M291.73 255v-7.5m0-172.49v7.5"/><text fill="#000" font-family="KaTeX_Main" font-size="10" text-anchor="middle" transform="translate(291.73 265.75)"><tspan> 8</tspan></text></g><path fill="none" stroke="#000" stroke-dasharray="0.1,0.2" stroke-linecap="round" stroke-linejoin="round" stroke-width=".1" d="M328.36 255V75.01" class="gridline" color="#000"/><g fill="none" stroke-linecap="round" stroke-linejoin="round" stroke-width="0" color="#000"><path d="M328.36 255v-7.5m0-172.49v7.5"/><text fill="#000" font-family="KaTeX_Main" font-size="10" text-anchor="middle" transform="translate(328.36 265.75)"><tspan> 9</tspan></text></g><path fill="none" stroke="#000" stroke-dasharray="0.1,0.2" stroke-linecap="round" stroke-linejoin="round" stroke-width=".1" d="M364.99 255V75.01" class="gridline" color="#000"/><g fill="none" stroke-linecap="round" stroke-linejoin="round" stroke-width="0" color="#000"><path d="M364.99 255v-7.5m0-172.49v7.5"/><text fill="#000" font-family="KaTeX_Main" font-size="10" text-anchor="middle" transform="translate(364.99 265.75)"><tspan> 10</tspan></text></g><g fill="none" stroke-linecap="round" stroke-linejoin="round" stroke-width="0" color="#000"><path d="M364.99 255h-7.5"/><text fill="#000" font-family="KaTeX_Main" font-size="10" transform="translate(371.99 258.25)"><tspan>0.15</tspan></text></g><g fill="none" stroke-linecap="round" stroke-linejoin="round" stroke-width="0" color="#000"><path d="M364.99 219h-7.5"/><text fill="#000" font-family="KaTeX_Main" font-size="10" transform="translate(371.99 222.25)"><tspan>0.20</tspan></text></g><g fill="none" stroke-linecap="round" stroke-linejoin="round" stroke-width="0" color="#000"><path d="M364.99 183h-7.5"/><text fill="#000" font-family="KaTeX_Main" font-size="10" transform="translate(371.99 186.25)"><tspan>0.25</tspan></text></g><g fill="none" stroke-linecap="round" stroke-linejoin="round" stroke-width="0" color="#000"><path d="M364.99 147.01h-7.5"/><text fill="#000" font-family="KaTeX_Main" font-size="10" transform="translate(371.99 150.26)"><tspan>0.30</tspan></text></g><g fill="none" stroke-linecap="round" stroke-linejoin="round" stroke-width="0" color="#000"><path d="M364.99 111.01h-7.5"/><text fill="#000" font-family="KaTeX_Main" font-size="10" transform="translate(371.99 114.26)"><tspan>0.35</tspan></text></g><g fill="none" stroke-linecap="round" stroke-linejoin="round" stroke-width="0" color="#000"><path d="M364.99 75.01h-7.5"/><text fill="#000" font-family="KaTeX_Main" font-size="10" transform="translate(371.99 78.26)"><tspan>0.40</tspan></text></g><path fill="none" d="M28 75.01V255M364.99 75.01H28" color="#000"/><text stroke-linecap="round" stroke-linejoin="round" stroke-width="0" color="#000" font-family="KaTeX_Main" font-size="10" text-anchor="middle" transform="rotate(-90 88.255 76.755)"><tspan font-weight="bold">Duration </tspan><tspan> in milliseconds</tspan></text><text stroke-linecap="round" stroke-linejoin="round" stroke-width="0" color="#000" font-family="KaTeX_Main" font-size="10" text-anchor="middle" transform="translate(196.49 288.25)"><tspan>Operations / 10</tspan><tspan dy="-5" font-size="8">5</tspan></text><text stroke-linecap="round" stroke-linejoin="round" color="#000" font-family="KaTeX_Main" font-size="10" transform="translate(112.5 42.64)"><tspan>LBSTBottomUp</tspan></text><g fill="none" stroke="currentColor" stroke-linecap="round" stroke-linejoin="round" color="#000"><path stroke="#3B75EA" d="M70 39.39h35.5M28 214.48l.37-.06.36-.05.37-.02.37-.02.36-.02.37-.04.36-.05.37-.07.37-.11.36-.14.37-.17.37-.22.36-.26.37-.29.36-.34.37-.38.37-.41.36-.44.37-.46.37-.49.36-.5.37-.51.36-.51.37-.51.37-.5.36-.49.37-.47.37-.45.36-.42.37-.4.37-.37.36-.33.37-.31.36-.28.37-.25.37-.23.36-.21.37-.2.37-.18.36-.17.37-.17.36-.17.37-.18.37-.18.36-.19.37-.21.37-.22.36-.23.37-.25.36-.25.37-.27.37-.28.36-.28.37-.29.37-.28.36-.28.37-.28.37-.26.36-.25.37-.23.36-.21.37-.2.37-.17.36-.16.37-.14.37-.11.36-.1.37-.09.36-.08.37-.06.37-.06.36-.06.37-.06.37-.06.36-.06.37-.08.36-.09.37-.1.37-.12.36-.13.37-.15.37-.17.36-.18.37-.21.36-.21.37-.23.37-.24.36-.25.37-.26.37-.26.36-.26.37-.26.37-.25.36-.25.37-.24.36-.23.37-.21.37-.2.36-.19.37-.16.37-.16.36-.13.37-.12.36-.1.37-.1.37-.08.36-.07.37-.06.37-.06.36-.05.37-.06.36-.05.37-.07.37-.07.36-.07.37-.09.37-.1.36-.11.37-.13.37-.14.36-.16.37-.17.36-.18.37-.2.37-.21.36-.22.37-.22.37-.24.36-.24.37-.24.36-.24.37-.24.37-.24.36-.24.37-.23.37-.22.36-.22.37-.21.36-.2.37-.19.37-.18.36-.17.37-.17.37-.16.36-.15.37-.15.37-.14.36-.14.37-.13.36-.14.37-.13.37-.13.36-.13.37-.13.37-.13.36-.13.37-.13.36-.13.37-.13.37-.13.36-.13.37-.12.37-.12.36-.11.37-.11.36-.11.37-.1.37-.09.36-.09.37-.08.37-.07.36-.07.37-.07.37-.06.36-.06.37-.05.36-.06.37-.05.37-.06.36-.06.37-.06.37-.06.36-.08.37-.07.36-.09.37-.09.37-.1.36-.11.37-.12.37-.12.36-.14.37-.14.36-.14.37-.16.37-.15.36-.17.37-.16.37-.17.36-.17.37-.17.36-.16.37-.17.37-.16.36-.16.37-.15.37-.15.36-.15.37-.14.37-.14.36-.13.37-.13.36-.12.37-.12.37-.12.36-.11.37-.11.37-.11.36-.11.37-.11.36-.11.37-.11.37-.11.36-.1.37-.11.37-.1.36-.11.37-.1.36-.11.37-.1.37-.09.36-.1.37-.09.37-.09.36-.08.37-.08.37-.07.36-.07.37-.06.36-.06.37-.05.37-.05.36-.05.37-.04.37-.04.36-.04.37-.04.36-.04.37-.04.37-.04.36-.05.37-.05.37-.06.36-.06.37-.07.36-.07.37-.08.37-.09.36-.1.37-.1.37-.11.36-.11.37-.12.37-.13.36-.13.37-.13.36-.13.37-.14.37-.14.36-.13.37-.14.37-.13.36-.13.37-.12.36-.13.37-.11.37-.12.36-.1.37-.11.37-.1.36-.09.37-.09.36-.09.37-.09.37-.08.36-.09.37-.09.37-.08.36-.1.37-.09.37-.1.36-.1.37-.11.36-.12.37-.12.37-.13.36-.14.37-.14.37-.16.36-.15.37-.17.36-.17.37-.18.37-.18.36-.18.37-.19.37-.19.36-.19.37-.19.36-.2.37-.19.37-.19.36-.18.37-.19.37-.18.36-.17.37-.18.37-.17.36-.16.37-.16.36-.16.37-.15.37-.15.36-.15.37-.14.37-.15.36-.13.37-.14.36-.13.37-.13.37-.13.36-.13.37-.12.37-.12.36-.12.37-.12.36-.11.37-.11.37-.11.36-.1.37-.09.37-.1.36-.08.37-.09.36-.07.37-.08.37-.07.36-.06.37-.07.37-.06.36-.05.37-.06.37-.05.36-.06.37-.05.36-.06.37-.07.37-.06.36-.07.37-.08.37-.08.36-.09.37-.1.36-.11.37-.11.37-.12.36-.14.37-.14.37-.15.36-.16.37-.16.36-.18.37-.18.37-.18.36-.19.37-.2.37-.19.36-.2.37-.2.37-.2.36-.2.37-.2.36-.2.37-.2.37-.19.36-.19.37-.18.37-.19.36-.17.37-.18.36-.17.37-.17.37-.16.36-.16.37-.16.37-.15.36-.15.37-.15.36-.14.37-.15.37-.14.36-.13.37-.14.37-.13.36-.12.37-.13.37-.12.36-.12.37-.11.36-.11.37-.11.37-.1.36-.1.37-.1.37-.09.36-.09.37-.08.36-.09.37-.08.37-.08.36-.08.37-.08.37-.08.36-.08.37-.09.36-.09.37-.09.37-.1.36-.1.37-.11.37-.12.36-.12.37-.13.37-.14.36-.14.37-.15.36-.16.37-.17.37-.17.36-.17.37-.18.37-.18.36-.18.37-.19.36-.18.37-.19.37-.18.36-.18.37-.18.37-.17.36-.17.37-.16.36-.16.37-.15.37-.15.36-.15.37-.14.37-.13.36-.13.37-.13.37-.13.36-.13.37-.13.36-.13.37-.13.37-.13.36-.14.37-.15.37-.15.36-.16.37-.17.36-.17.37-.18.37-.2.36-.2.37-.21.37-.22.36-.23.37-.23.36-.25.37-.25.37-.25.36-.26.37-.27.37-.27.36-.27.37-.27.36-.27.37-.28.37-.27.36-.27.37-.28.37-.27.36-.26.37-.27.37-.26.36-.26.37-.26.36-.26.37-.25.37-.26.36-.24.37-.25.37-.25.36-.24.37-.24.36-.24.37-.24.37-.23.36-.23.37-.23.37-.23.36-.22.37-.22.36-.21.37-.21.37-.21.36-.2.37-.2.37-.19.36-.19.37-.18.37-.18.36-.17.37-.18.36-.16.37-.17.37-.16.36-.16.37-.16.37-.16.36-.17.37-.16.36-.17.37-.17.37-.17.36-.18.37-.19.37-.19.36-.19.37-.21.36-.2.37-.22.37-.22.36-.22.37-.23.37-.24.36-.23.37-.24.37-.25.36-.24.37-.25.36-.24.37-.25.37-.24.36-.24.37-.24.37-.24.36-.23.37-.23.36-.23.37-.22.37-.22.36-.22.37-.21.37-.21.36-.21.37-.2.36-.2.37-.21.37-.19.36-.2.37-.19.37-.2.36-.19.37-.18.37-.19.36-.18.37-.18.36-.17.37-.17.37-.16.36-.15.37-.15.37-.14.36-.14.37-.12.36-.12.37-.11.37-.11.36-.09.37-.09.37-.08.36-.08.37-.07.36-.07.37-.06.37-.07.36-.06.37-.07.37-.07.36-.07.37-.08.36-.09.37-.1.37-.11.36-.11.37-.13.37-.13.36-.15.37-.16.37-.17.36-.18.37-.18.36-.2.37-.2.37-.21.36-.21.37-.22.37-.21.36-.22.37-.21.36-.21.37-.21.37-.2.36-.2.37-.18.37-.18.36-.17.37-.16.36-.15.37-.15.37-.14.36-.13.37-.13.37-.12.36-.12.37-.12.37-.11.36-.12.37-.13.36-.13.37-.13.37-.14.36-.15.37-.16.37-.17.36-.18.37-.19.36-.2.37-.21.37-.22.36-.23.37-.23.37-.24.36-.25.37-.25.36-.25.37-.26.37-.25.36-.25.37-.25.37-.25.36-.24.37-.24.37-.23.36-.22.37-.22.36-.21.37-.2.37-.2.36-.2.37-.19.37-.19.36-.18.37-.19.36-.18.37-.18.37-.18.36-.18.37-.18.37-.18.36-.18.37-.18.36-.17.37-.17.37-.17.36-.16.37-.15.37-.14.36-.14.37-.12.37-.11.36-.1.37-.08.36-.07.37-.05.37-.04.36-.02.37-.01h.37l.36.01.37.02.36.03.37.03.37.04.36.04.37.03.37.03.36.02.37.01h.36l.37-.01.37-.02.36-.05.37-.05.37-.07.36-.09.37-.11.37-.11.36-.13.37-.14.36-.15.37-.16.37-.16.36-.16.37-.16.37-.16.36-.15.37-.15.36-.14.37-.13.37-.11.36-.11.37-.09.37-.09.36-.07.37-.06.36-.06.37-.05.37-.04.36-.04.37-.04.37-.04.36-.05.37-.05.36-.05.37-.06.37-.07.36-.08.37-.09.37-.09.36-.1.37-.1.37-.11.36-.1.37-.1.36-.1.37-.09.37-.07.36-.07.37-.05.37-.03.36-.01.37.01.36.03.37.05.37.07.36.09.37.1.37.12.36.12.37.14.36.13.37.14.37.13.36.11.37.11.37.08.36.07.37.04.37.01.36-.01.37-.05.36-.07.37-.11.37-.14.36-.16.37-.19.37-.2.36-.23.37-.23.36-.25.37-.24.37-.25.36-.23.37-.22.37-.2.36-.18.37-.15.36-.11.37-.09.37-.05.36-.02.37.02.37.05.36.08.37.1.37.13.36.14.37.16.36.16.37.15.37.15.36.14.37.11.37.09.36.05.37.02.36-.02.37-.06.37-.11.36-.15.37-.2.37-.24.36-.27.37-.32.36-.34.37-.36.37-.39.36-.39.37-.4.37-.39.36-.38.37-.35.37-.33.36-.29.37-.25.36-.21.37-.15.37-.11.36-.06.37-.01.37.03.36.07.37.1.36.12.37.14.37.13.36.12.37.09.37.06.36.02.37-.04.36-.1.37-.16.37-.22.36-.27.37-.33.37-.37.36-.4.37-.42.36-.42.37-.41.37-.38.36-.34.37-.29.37-.23.36-.16.37-.09h.37l.36.08.37.15.36.24.37.31.37.36.36.41.37.44.37.46.36.45.37.44.36.41.37.37.37.31.36.27.37.22.37.18.36.13.37.08.36.05.37-.01.37-.06.36-.14.37-.24.37-.35.36-.48.37-.63.37-.78.36-.88.37-.95.36-.95.37-.87.37-.71.36-.52.37-.34.37-.27.36-.31.37-.52.36-.8.37-1.03.37-.99.36-.59.37.23.37 1.22.36 2.01.37 2.19.36 1.7.37.84.37.05.36-.41.37-.38"/><use xlink:href="#a" color="#3B75EA" transform="matrix(3.75 0 0 3.75 336.05 91.97)"/><use xlink:href="#a" color="#3B75EA" transform="matrix(3.75 0 0 3.75 87.75 39.39)"/></g><text stroke-linecap="round" stroke-linejoin="round" color="#000" font-family="KaTeX_Main" font-size="10" transform="translate(112.5 61.39)"><tspan>LBSTTopDown</tspan></text><g fill="none" stroke="currentColor" stroke-linecap="round" stroke-linejoin="round" color="#000"><path stroke="#29C3F6" stroke-dasharray="4.5,2.0,0.5,2.0,0.5,2.0" d="M70 58.14h35.5M28 241.19l.37-.54.36-.56.37-.56.37-.58.36-.58.37-.56.36-.55.37-.54.37-.5.36-.47.37-.44.37-.4.36-.36.37-.32.36-.28.37-.25.37-.21.36-.19.37-.16.37-.14.36-.13.37-.12.36-.12.37-.13.37-.13.36-.15.37-.16.37-.18.36-.21.37-.22.37-.25.36-.27.37-.28.36-.31.37-.31.37-.32.36-.33.37-.32.37-.32.36-.31.37-.3.36-.28.37-.26.37-.24.36-.22.37-.19.37-.17.36-.15.37-.13.36-.1.37-.09.37-.08.36-.07.37-.06.37-.06.36-.06.37-.06.37-.07.36-.08.37-.1.36-.11.37-.13.37-.15.36-.17.37-.18.37-.21.36-.22.37-.24.36-.25.37-.26.37-.27.36-.27.37-.27.37-.27.36-.27.37-.25.36-.25.37-.23.37-.22.36-.19.37-.19.37-.16.36-.15.37-.13.36-.11.37-.1.37-.09.36-.07.37-.07.37-.06.36-.06.37-.06.37-.06.36-.07.37-.07.36-.08.37-.09.37-.1.36-.11.37-.13.37-.14.36-.15.37-.17.36-.17.37-.19.37-.2.36-.2.37-.22.37-.21.36-.22.37-.23.36-.22.37-.21.37-.22.36-.21.37-.2.37-.2.36-.19.37-.18.37-.17.36-.16.37-.16.36-.14.37-.14.37-.14.36-.13.37-.12.37-.12.36-.12.37-.12.36-.12.37-.12.37-.11.36-.13.37-.12.37-.12.36-.13.37-.12.36-.13.37-.13.37-.12.36-.13.37-.12.37-.11.36-.12.37-.11.37-.1.36-.09.37-.09.36-.08.37-.08.37-.06.36-.06.37-.06.37-.05.36-.05.37-.04.36-.04.37-.04.37-.05.36-.04.37-.05.37-.06.36-.06.37-.07.36-.07.37-.09.37-.1.36-.1.37-.12.37-.13.36-.13.37-.15.37-.16.36-.16.37-.17.36-.17.37-.18.37-.18.36-.18.37-.19.37-.18.36-.17.37-.18.36-.17.37-.16.37-.15.36-.15.37-.14.37-.13.36-.13.37-.11.36-.11.37-.1.37-.09.36-.09.37-.09.37-.07.36-.08.37-.07.36-.07.37-.07.37-.07.36-.06.37-.07.37-.07.36-.06.37-.07.37-.06.36-.07.37-.06.36-.07.37-.06.37-.06.36-.06.37-.05.37-.06.36-.05.37-.04.36-.04.37-.04.37-.04.36-.03.37-.04.37-.03.36-.03.37-.03.36-.03.37-.03.37-.03.36-.04.37-.04.37-.05.36-.06.37-.06.37-.06.36-.08.37-.08.36-.09.37-.09.37-.11.36-.11.37-.12.37-.12.36-.13.37-.13.36-.14.37-.13.37-.14.36-.14.37-.14.37-.14.36-.13.37-.13.36-.13.37-.12.37-.11.36-.12.37-.1.37-.1.36-.1.37-.09.37-.08.36-.08.37-.08.36-.08.37-.07.37-.08.36-.07.37-.08.37-.07.36-.08.37-.09.36-.08.37-.1.37-.1.36-.1.37-.11.37-.12.36-.13.37-.13.36-.14.37-.14.37-.15.36-.15.37-.16.37-.17.36-.16.37-.17.37-.17.36-.18.37-.17.36-.18.37-.17.37-.18.36-.17.37-.17.37-.17.36-.17.37-.17.36-.16.37-.17.37-.15.36-.16.37-.15.37-.15.36-.15.37-.14.36-.14.37-.14.37-.13.36-.13.37-.12.37-.12.36-.12.37-.1.37-.1.36-.1.37-.08.36-.08.37-.07.37-.07.36-.05.37-.05.37-.04.36-.04.37-.02.36-.02.37-.01.37-.01h.36l.37.01h.37l.36.01h.37l.36.01h.37l.37.01.36-.01.37-.01.37-.01.36-.03.37-.03.36-.04.37-.06.37-.06.36-.08.37-.08.37-.1.36-.11.37-.11.37-.13.36-.14.37-.14.36-.16.37-.16.37-.16.36-.18.37-.17.37-.18.36-.18.37-.18.36-.18.37-.18.37-.18.36-.18.37-.18.37-.17.36-.17.37-.17.36-.16.37-.16.37-.16.36-.15.37-.16.37-.14.36-.15.37-.14.37-.14.36-.14.37-.13.36-.13.37-.13.37-.13.36-.12.37-.12.37-.12.36-.11.37-.11.36-.11.37-.1.37-.1.36-.1.37-.08.37-.09.36-.08.37-.08.36-.07.37-.07.37-.07.36-.07.37-.06.37-.06.36-.06.37-.07.37-.06.36-.06.37-.07.36-.07.37-.08.37-.08.36-.08.37-.09.37-.1.36-.1.37-.11.36-.11.37-.12.37-.13.36-.13.37-.13.37-.14.36-.14.37-.15.36-.15.37-.15.37-.15.36-.15.37-.15.37-.15.36-.15.37-.14.37-.15.36-.14.37-.14.36-.14.37-.14.37-.14.36-.14.37-.13.37-.14.36-.14.37-.15.36-.15.37-.15.37-.15.36-.17.37-.17.37-.18.36-.18.37-.2.36-.2.37-.22.37-.22.36-.23.37-.24.37-.26.36-.26.37-.26.37-.28.36-.28.37-.29.36-.29.37-.3.37-.3.36-.31.37-.3.37-.31.36-.31.37-.3.36-.31.37-.31.37-.3.36-.31.37-.3.37-.3.36-.3.37-.29.36-.3.37-.29.37-.3.36-.29.37-.29.37-.29.36-.29.37-.29.36-.28.37-.29.37-.28.36-.28.37-.28.37-.27.36-.27.37-.27.37-.26.36-.26.37-.25.36-.24.37-.24.37-.23.36-.23.37-.21.37-.21.36-.2.37-.19.36-.19.37-.18.37-.17.36-.17.37-.17.37-.16.36-.15.37-.16.36-.15.37-.16.37-.15.36-.16.37-.16.37-.17.36-.17.37-.17.37-.18.36-.18.37-.19.36-.2.37-.2.37-.21.36-.21.37-.22.37-.22.36-.23.37-.22.36-.23.37-.24.37-.23.36-.24.37-.24.37-.23.36-.24.37-.24.36-.23.37-.24.37-.24.36-.23.37-.24.37-.24.36-.24.37-.23.37-.24.36-.24.37-.25.36-.24.37-.24.37-.25.36-.25.37-.24.37-.25.36-.25.37-.25.36-.24.37-.25.37-.24.36-.24.37-.23.37-.23.36-.22.37-.21.36-.21.37-.2.37-.19.36-.19.37-.17.37-.17.36-.16.37-.16.37-.15.36-.14.37-.14.36-.13.37-.14.37-.13.36-.13.37-.14.37-.13.36-.14.37-.14.36-.15.37-.16.37-.16.36-.16.37-.18.37-.18.36-.18.37-.19.36-.2.37-.2.37-.21.36-.21.37-.2.37-.21.36-.21.37-.21.36-.2.37-.2.37-.19.36-.19.37-.19.37-.17.36-.17.37-.17.37-.15.36-.15.37-.15.36-.13.37-.14.37-.13.36-.13.37-.13.37-.13.36-.13.37-.13.36-.13.37-.14.37-.15.36-.15.37-.16.37-.16.36-.17.37-.18.36-.19.37-.19.37-.19.36-.21.37-.2.37-.21.36-.21.37-.21.37-.2.36-.21.37-.2.36-.19.37-.19.37-.18.36-.17.37-.16.37-.15.36-.14.37-.14.36-.12.37-.11.37-.1.36-.09.37-.08.37-.08.36-.07.37-.07.36-.06.37-.06.37-.05.36-.06.37-.05.37-.05.36-.05.37-.05.37-.05.36-.05.37-.05.36-.05.37-.04.37-.04.36-.03.37-.03.37-.03.36-.02.37-.01h.36l.37.01.37.02.36.02.37.03.37.04.36.05.37.05.36.05.37.06.37.06.36.06.37.05.37.05.36.04.37.03.37.02.36.01h.37l.36-.02.37-.04.37-.06.36-.07.37-.08.37-.11.36-.12.37-.13.36-.15.37-.16.37-.17.36-.18.37-.18.37-.19.36-.18.37-.19.36-.18.37-.18.37-.18.36-.16.37-.16.37-.15.36-.15.37-.13.37-.13.36-.12.37-.11.36-.1.37-.11.37-.09.36-.1.37-.1.37-.09.36-.1.37-.1.36-.1.37-.1.37-.1.36-.11.37-.1.37-.1.36-.1.37-.1.36-.09.37-.07.37-.07.36-.06.37-.04.37-.03.36-.01.37.01.36.02.37.04.37.05.36.07.37.08.37.09.36.09.37.1.37.11.36.1.37.09.36.09.37.07.37.05.36.04.37.02.37-.01.36-.03.37-.06.36-.08.37-.11.37-.13.36-.15.37-.18.37-.2.36-.21.37-.23.36-.23.37-.24.37-.24.36-.24.37-.22.37-.22.36-.21.37-.19.37-.16.36-.15.37-.12.36-.1.37-.08.37-.05.36-.02.37-.01.37.01.36.03.37.04.36.04.37.05.37.06.36.04.37.04.37.03.36.01.37-.01.36-.03.37-.06.37-.1.36-.12.37-.15.37-.19.36-.22.37-.25.37-.28.36-.31.37-.33.36-.36.37-.37.37-.39.36-.39.37-.39.37-.39.36-.39.37-.36.36-.36.37-.32.37-.31.36-.27.37-.25.37-.22.36-.19.37-.16.36-.15.37-.12.37-.12.36-.1.37-.11.37-.12.36-.13.37-.15.37-.18.36-.2.37-.23.36-.26.37-.29.37-.31.36-.33.37-.35.37-.34.36-.35.37-.33.36-.3.37-.28.37-.23.36-.19.37-.13.37-.08.36-.01.37.04.36.1.37.15.37.21.36.24.37.28.37.3.36.32.37.32.36.31.37.29.37.27.36.24.37.2.37.15.36.1.37.05h.37l.36-.06.37-.13.36-.19.37-.26.37-.32.36-.4.37-.46.37-.52.36-.58.37-.61.36-.65.37-.66.37-.65.36-.63.37-.59.37-.54.36-.48.37-.42.36-.33.37-.25.37-.13.36-.03.37.12.37.25.36.4.37.52.37.63.36.69.37.7.36.68.37.63.37.53.36.41.37.28.37.09.36-.14.37-.45.36-.86.37-1.32.37-1.75.36-2.02.37-1.9.37-1.23.36.02.37 1.48.36 2.43.37 2.25.37 1.19.36.38.37-.29"/><use xlink:href="#d" color="#29C3F6" transform="matrix(3.75 0 0 3.75 55.47 222.39)"/><use xlink:href="#d" color="#29C3F6" transform="matrix(3.75 0 0 3.75 87.75 58.14)"/></g><text stroke-linecap="round" stroke-linejoin="round" color="#000" font-family="KaTeX_Main" font-size="10" transform="translate(246 42.64)"><tspan>WBSTBottomUp</tspan></text><g fill="none" stroke="currentColor" stroke-linecap="round" stroke-linejoin="round" color="#000"><path stroke="#D336C8" d="M203.5 39.39H239M28 213.87l.37-.26.36-.23.37-.2.37-.19.36-.17.37-.18.36-.19.37-.2.37-.22.36-.25.37-.27.37-.31.36-.33.37-.36.36-.38.37-.41.37-.42.36-.42.37-.43.37-.42.36-.41.37-.4.36-.37.37-.34.37-.32.36-.29.37-.25.37-.22.36-.19.37-.16.37-.14.36-.11.37-.09.36-.08.37-.07.37-.07.36-.07.37-.07.37-.08.36-.1.37-.12.36-.13.37-.16.37-.18.36-.21.37-.24.37-.26.36-.28.37-.31.36-.32.37-.34.37-.36.36-.36.37-.37.37-.37.36-.36.37-.36.37-.35.36-.33.37-.32.36-.29.37-.28.37-.25.36-.23.37-.2.37-.18.36-.16.37-.13.36-.12.37-.1.37-.09.36-.07.37-.07.37-.07.36-.06.37-.07.36-.07.37-.09.37-.09.36-.11.37-.12.37-.14.36-.16.37-.17.36-.2.37-.21.37-.22.36-.25.37-.25.37-.27.36-.27.37-.28.37-.29.36-.29.37-.29.36-.28.37-.28.37-.27.36-.26.37-.25.37-.24.36-.23.37-.22.36-.2.37-.19.37-.18.36-.18.37-.16.37-.15.36-.15.37-.15.36-.14.37-.15.37-.14.36-.14.37-.15.37-.14.36-.15.37-.16.37-.16.36-.16.37-.16.36-.16.37-.16.37-.16.36-.16.37-.16.37-.15.36-.15.37-.14.36-.13.37-.13.37-.11.36-.11.37-.1.37-.09.36-.09.37-.08.36-.07.37-.08.37-.07.36-.06.37-.07.37-.07.36-.08.37-.08.37-.09.36-.09.37-.1.36-.12.37-.12.37-.14.36-.14.37-.16.37-.16.36-.18.37-.18.36-.19.37-.2.37-.21.36-.21.37-.21.37-.21.36-.21.37-.21.36-.21.37-.2.37-.2.36-.2.37-.19.37-.18.36-.18.37-.17.37-.16.36-.15.37-.16.36-.14.37-.14.37-.14.36-.13.37-.13.37-.13.36-.12.37-.13.36-.12.37-.12.37-.13.36-.12.37-.12.37-.12.36-.12.37-.12.36-.11.37-.12.37-.11.36-.11.37-.1.37-.1.36-.09.37-.09.36-.09.37-.08.37-.08.36-.08.37-.07.37-.07.36-.06.37-.07.37-.06.36-.07.37-.07.36-.08.37-.07.37-.08.36-.09.37-.1.37-.1.36-.11.37-.12.36-.12.37-.13.37-.15.36-.14.37-.16.37-.16.36-.17.37-.16.36-.18.37-.17.37-.17.36-.18.37-.17.37-.16.36-.17.37-.16.37-.15.36-.14.37-.14.36-.13.37-.12.37-.11.36-.11.37-.1.37-.09.36-.08.37-.08.36-.08.37-.07.37-.07.36-.07.37-.07.37-.07.36-.07.37-.08.36-.08.37-.09.37-.09.36-.1.37-.1.37-.11.36-.12.37-.12.37-.14.36-.13.37-.14.36-.15.37-.15.37-.16.36-.16.37-.16.37-.16.36-.16.37-.16.36-.16.37-.15.37-.16.36-.15.37-.15.37-.15.36-.15.37-.14.36-.14.37-.14.37-.13.36-.13.37-.14.37-.13.36-.13.37-.13.37-.13.36-.12.37-.13.36-.13.37-.13.37-.13.36-.13.37-.13.37-.13.36-.13.37-.13.36-.13.37-.12.37-.12.36-.13.37-.11.37-.12.36-.11.37-.11.36-.11.37-.11.37-.1.36-.1.37-.1.37-.1.36-.1.37-.1.37-.1.36-.1.37-.11.36-.1.37-.12.37-.11.36-.12.37-.13.37-.13.36-.14.37-.14.36-.15.37-.16.37-.16.36-.17.37-.17.37-.18.36-.19.37-.18.36-.19.37-.2.37-.19.36-.19.37-.2.37-.19.36-.2.37-.19.36-.19.37-.18.37-.19.36-.18.37-.18.37-.17.36-.17.37-.17.37-.17.36-.16.37-.16.36-.16.37-.16.37-.16.36-.16.37-.15.37-.16.36-.15.37-.16.36-.15.37-.15.37-.16.36-.15.37-.15.37-.14.36-.15.37-.14.36-.13.37-.14.37-.12.36-.13.37-.11.37-.11.36-.11.37-.1.37-.09.36-.08.37-.08.36-.07.37-.07.37-.07.36-.05.37-.06.37-.05.36-.05.37-.06.36-.05.37-.05.37-.05.36-.06.37-.06.37-.06.36-.07.37-.08.36-.08.37-.09.37-.09.36-.1.37-.1.37-.11.36-.11.37-.12.37-.12.36-.13.37-.13.36-.13.37-.13.37-.13.36-.13.37-.14.37-.13.36-.13.37-.12.36-.13.37-.13.37-.12.36-.12.37-.12.37-.12.36-.12.37-.12.36-.12.37-.12.37-.12.36-.13.37-.13.37-.14.36-.14.37-.14.37-.15.36-.16.37-.16.36-.17.37-.18.37-.18.36-.19.37-.2.37-.2.36-.21.37-.21.36-.21.37-.22.37-.23.36-.22.37-.23.37-.23.36-.23.37-.23.36-.23.37-.24.37-.23.36-.23.37-.23.37-.23.36-.24.37-.23.37-.23.36-.23.37-.23.36-.24.37-.23.37-.24.36-.24.37-.24.37-.24.36-.24.37-.24.36-.25.37-.24.37-.24.36-.25.37-.24.37-.24.36-.24.37-.23.36-.23.37-.23.37-.22.36-.21.37-.21.37-.21.36-.19.37-.19.36-.19.37-.18.37-.17.36-.17.37-.16.37-.16.36-.15.37-.16.37-.15.36-.15.37-.15.36-.16.37-.15.37-.16.36-.17.37-.17.37-.18.36-.18.37-.19.36-.2.37-.2.37-.22.36-.22.37-.23.37-.23.36-.24.37-.25.36-.26.37-.26.37-.26.36-.27.37-.27.37-.27.36-.28.37-.28.37-.28.36-.27.37-.28.36-.28.37-.28.37-.28.36-.28.37-.27.37-.27.36-.28.37-.26.36-.27.37-.27.37-.26.36-.25.37-.26.37-.25.36-.24.37-.24.36-.23.37-.23.37-.21.36-.21.37-.2.37-.19.36-.19.37-.17.37-.16.36-.15.37-.14.36-.13.37-.12.37-.11.36-.1.37-.1.37-.08.36-.09.37-.07.36-.07.37-.07.37-.07.36-.07.37-.07.37-.08.36-.08.37-.08.36-.09.37-.1.37-.1.36-.11.37-.13.37-.13.36-.13.37-.15.37-.16.36-.16.37-.16.36-.18.37-.18.37-.18.36-.18.37-.18.37-.18.36-.19.37-.18.36-.17.37-.18.37-.17.36-.16.37-.16.37-.15.36-.15.37-.15.36-.14.37-.14.37-.14.36-.13.37-.14.37-.14.36-.14.37-.14.36-.16.37-.16.37-.16.36-.18.37-.18.37-.2.36-.21.37-.22.37-.23.36-.25.37-.25.36-.27.37-.28.37-.28.36-.3.37-.3.37-.31.36-.31.37-.31.36-.32.37-.32.37-.31.36-.32.37-.31.37-.3.36-.3.37-.3.36-.29.37-.28.37-.28.36-.26.37-.27.37-.25.36-.25.37-.24.37-.24.36-.23.37-.22.36-.22.37-.22.37-.21.36-.21.37-.2.37-.19.36-.19.37-.18.36-.17.37-.17.37-.16.36-.14.37-.14.37-.12.36-.12.37-.1.36-.09.37-.07.37-.07.36-.05.37-.04.37-.02.36-.02.37-.01h.73l.37.01.36.01.37.01.37.01.36.01h.37l.37-.01.36-.01.37-.03.36-.03.37-.05.37-.06.36-.08.37-.09.37-.1.36-.11.37-.13.36-.13.37-.15.37-.15.36-.16.37-.16.37-.16.36-.17.37-.16.37-.16.36-.16.37-.15.36-.14.37-.14.37-.13.36-.12.37-.12.37-.1.36-.11.37-.09.36-.1.37-.09.37-.09.36-.09.37-.09.37-.09.36-.09.37-.1.36-.1.37-.11.37-.1.36-.12.37-.11.37-.11.36-.11.37-.11.37-.11.36-.1.37-.09.36-.08.37-.06.37-.05.36-.03.37-.02h.37l.36.02.37.04.36.06.37.07.37.1.36.1.37.12.37.12.36.13.37.13.36.13.37.13.37.12.36.1.37.09.37.08.36.05.37.03.36.01.37-.02.37-.04.36-.07.37-.09.37-.12.36-.13.37-.15.37-.17.36-.17.37-.19.36-.19.37-.18.37-.19.36-.17.37-.16.37-.15.36-.13.37-.11.36-.08.37-.06.37-.04.36-.01.37.01.37.03.36.05.37.07.36.09.37.09.37.1.36.1.37.1.37.08.36.08.37.06.37.04.36.02.37-.01.36-.04.37-.07.37-.1.36-.14.37-.16.37-.2.36-.22.37-.24.36-.27.37-.29.37-.29.36-.3.37-.31.37-.29.36-.29.37-.28.36-.26.37-.23.37-.22.36-.18.37-.16.37-.12.36-.1.37-.08.37-.05.36-.04.37-.02.36-.02.37-.01.37-.02.36-.03.37-.04.37-.06.36-.09.37-.11.36-.14.37-.17.37-.19.36-.22.37-.24.37-.25.36-.26.37-.26.36-.26.37-.25.37-.22.36-.2.37-.17.37-.12.36-.09.37-.04.37.01.36.06.37.1.36.14.37.19.37.22.36.24.37.26.37.28.36.27.37.27.36.25.37.22.37.2.36.15.37.1.37.05h.36l.37-.07.36-.13.37-.2.37-.26.36-.32.37-.37.37-.43.36-.48.37-.5.36-.54.37-.54.37-.55.36-.54.37-.52.37-.48.36-.44.37-.4.37-.33.36-.27.37-.2.36-.14.37-.06h.37l.36.06.37.12.37.16.36.18.37.19.36.17.37.14.37.07.36-.01.37-.12.37-.23.36-.35.37-.48.36-.59.37-.68.37-.75.36-.78.37-.76.37-.72.36-.62.37-.53.37-.44.36-.35.37-.32.36-.3.37-.3.37-.27.36-.17.37.02.37.29.36.62.37.92.36 1.12.37 1.15.37 1.02.36.77.37.52.37.33.36.22.37.19.36.18.37.1.37-.06.36-.26.37-.62"/><use xlink:href="#b" color="#D336C8" transform="matrix(3.75 0 0 3.75 111.88 173.55)"/><use xlink:href="#b" color="#D336C8" transform="matrix(3.75 0 0 3.75 221.25 39.39)"/></g><text stroke-linecap="round" stroke-linejoin="round" color="#000" font-family="KaTeX_Main" font-size="10" transform="translate(246 61.39)"><tspan>WBSTTopDown</tspan></text><g fill="none" stroke="currentColor" stroke-linecap="round" stroke-linejoin="round" color="#000"><path stroke="violet" stroke-dasharray="4.5,2.0,0.5,2.0,0.5,2.0" d="M203.5 58.14H239M28 239.87l.37-.52.36-.52.37-.49.37-.48.36-.44.37-.4.36-.36.37-.32.37-.27.36-.23.37-.19.37-.14.36-.12.37-.08.36-.06.37-.04.37-.03.36-.03.37-.03.37-.04.36-.05.37-.08.36-.1.37-.13.37-.15.36-.19.37-.22.37-.26.36-.28.37-.31.37-.34.36-.36.37-.38.36-.39.37-.4.37-.4.36-.4.37-.39.37-.38.36-.37.37-.35.36-.32.37-.31.37-.27.36-.25.37-.22.37-.19.36-.16.37-.14.36-.12.37-.09.37-.08.36-.06.37-.05.37-.04.36-.04.37-.04.37-.04.36-.05.37-.06.36-.07.37-.09.37-.1.36-.12.37-.14.37-.16.36-.18.37-.2.36-.22.37-.24.37-.25.36-.27.37-.27.37-.29.36-.29.37-.3.36-.3.37-.29.37-.29.36-.28.37-.28.37-.26.36-.24.37-.24.36-.22.37-.2.37-.19.36-.18.37-.16.37-.15.36-.14.37-.13.37-.12.36-.12.37-.12.36-.11.37-.12.37-.11.36-.12.37-.11.37-.12.36-.13.37-.12.36-.13.37-.12.37-.13.36-.13.37-.12.37-.12.36-.11.37-.11.36-.11.37-.09.37-.09.36-.08.37-.07.37-.07.36-.05.37-.06.37-.04.36-.05.37-.04.36-.04.37-.05.37-.04.36-.05.37-.06.37-.07.36-.07.37-.08.36-.1.37-.11.37-.12.36-.13.37-.15.37-.16.36-.17.37-.18.36-.19.37-.2.37-.21.36-.21.37-.22.37-.22.36-.22.37-.22.37-.21.36-.22.37-.21.36-.2.37-.2.37-.18.36-.19.37-.17.37-.17.36-.15.37-.16.36-.14.37-.14.37-.13.36-.13.37-.12.37-.12.36-.11.37-.12.36-.11.37-.11.37-.1.36-.11.37-.1.37-.1.36-.1.37-.1.37-.09.36-.09.37-.08.36-.08.37-.08.37-.06.36-.06.37-.06.37-.05.36-.04.37-.03.36-.03.37-.03.37-.02.36-.01.37-.01.37-.01.36-.01.37-.02.36-.01.37-.01.37-.03.36-.02.37-.03.37-.05.36-.05.37-.05.36-.07.37-.08.37-.09.36-.09.37-.11.37-.12.36-.12.37-.13.37-.13.36-.15.37-.14.36-.15.37-.15.37-.14.36-.15.37-.15.37-.14.36-.13.37-.13.36-.12.37-.12.37-.11.36-.1.37-.1.37-.08.36-.08.37-.08.36-.07.37-.06.37-.06.36-.06.37-.06.37-.05.36-.06.37-.06.37-.06.36-.07.37-.07.36-.08.37-.08.37-.09.36-.09.37-.11.37-.11.36-.12.37-.12.36-.13.37-.14.37-.14.36-.14.37-.15.37-.16.36-.15.37-.16.36-.15.37-.16.37-.15.36-.16.37-.15.37-.14.36-.15.37-.14.37-.14.36-.14.37-.14.36-.13.37-.12.37-.13.36-.12.37-.12.37-.11.36-.12.37-.11.36-.11.37-.11.37-.1.36-.1.37-.1.37-.09.36-.09.37-.09.36-.08.37-.08.37-.08.36-.06.37-.07.37-.06.36-.05.37-.05.37-.04.36-.04.37-.03.36-.03.37-.03.37-.03.36-.02.37-.03.37-.02.36-.02.37-.03.36-.04.37-.03.37-.05.36-.05.37-.05.37-.07.36-.07.37-.09.36-.09.37-.11.37-.11.36-.12.37-.14.37-.14.36-.15.37-.16.37-.17.36-.17.37-.18.36-.19.37-.19.37-.19.36-.19.37-.19.37-.19.36-.19.37-.19.36-.19.37-.18.37-.18.36-.18.37-.17.37-.17.36-.17.37-.16.36-.15.37-.16.37-.14.36-.15.37-.14.37-.13.36-.14.37-.13.36-.12.37-.13.37-.11.36-.12.37-.11.37-.11.36-.1.37-.1.37-.09.36-.09.37-.09.36-.07.37-.08.37-.06.36-.07.37-.05.37-.06.36-.04.37-.05.36-.04.37-.03.37-.04.36-.03.37-.04.37-.03.36-.04.37-.04.36-.04.37-.04.37-.05.36-.06.37-.06.37-.07.36-.08.37-.09.37-.09.36-.1.37-.11.36-.11.37-.13.37-.12.36-.14.37-.13.37-.15.36-.14.37-.15.36-.14.37-.15.37-.14.36-.15.37-.14.37-.13.36-.13.37-.13.36-.13.37-.11.37-.12.36-.1.37-.11.37-.1.36-.1.37-.09.37-.1.36-.09.37-.1.36-.09.37-.1.37-.11.36-.1.37-.12.37-.12.36-.13.37-.14.36-.15.37-.16.37-.17.36-.18.37-.19.37-.2.36-.2.37-.22.36-.23.37-.24.37-.24.36-.25.37-.26.37-.26.36-.27.37-.27.37-.27.36-.27.37-.28.36-.28.37-.27.37-.28.36-.27.37-.28.37-.27.36-.27.37-.27.36-.27.37-.26.37-.26.36-.26.37-.26.37-.25.36-.26.37-.24.36-.25.37-.24.37-.24.36-.24.37-.23.37-.22.36-.23.37-.21.37-.22.36-.2.37-.21.36-.19.37-.19.37-.18.36-.18.37-.17.37-.17.36-.16.37-.15.36-.16.37-.14.37-.15.36-.14.37-.14.37-.15.36-.14.37-.14.36-.15.37-.14.37-.16.36-.16.37-.16.37-.17.36-.17.37-.18.36-.19.37-.2.37-.2.36-.21.37-.22.37-.22.36-.23.37-.23.37-.24.36-.24.37-.24.36-.25.37-.25.37-.25.36-.25.37-.25.37-.25.36-.25.37-.25.36-.24.37-.24.37-.24.36-.24.37-.23.37-.24.36-.22.37-.23.36-.22.37-.22.37-.22.36-.22.37-.21.37-.21.36-.21.37-.2.37-.2.36-.2.37-.19.36-.19.37-.18.37-.18.36-.18.37-.17.37-.16.36-.16.37-.15.36-.15.37-.15.37-.14.36-.13.37-.13.37-.13.36-.13.37-.12.36-.12.37-.12.37-.13.36-.12.37-.13.37-.13.36-.14.37-.14.37-.15.36-.16.37-.16.36-.17.37-.18.37-.19.36-.19.37-.21.37-.21.36-.21.37-.22.36-.23.37-.22.37-.23.36-.24.37-.23.37-.23.36-.22.37-.23.36-.22.37-.21.37-.2.36-.21.37-.19.37-.18.36-.18.37-.17.37-.17.36-.16.37-.15.36-.15.37-.15.37-.14.36-.15.37-.14.37-.15.36-.15.37-.16.36-.16.37-.17.37-.18.36-.18.37-.19.37-.21.36-.21.37-.22.36-.23.37-.24.37-.25.36-.25.37-.26.37-.27.36-.27.37-.27.36-.27.37-.27.37-.27.36-.27.37-.27.37-.26.36-.25.37-.25.37-.25.36-.23.37-.23.36-.22.37-.22.37-.21.36-.2.37-.19.37-.19.36-.18.37-.18.36-.18.37-.17.37-.16.36-.17.37-.16.37-.15.36-.15.37-.15.36-.15.37-.14.37-.13.36-.13.37-.12.37-.12.36-.11.37-.11.37-.1.36-.09.37-.08.36-.08.37-.07.37-.06.36-.06.37-.05.37-.05.36-.05.37-.04.36-.05.37-.05.37-.04.36-.06.37-.05.37-.06.36-.07.37-.08.36-.09.37-.1.37-.1.36-.12.37-.12.37-.14.36-.15.37-.15.37-.16.36-.17.37-.18.36-.18.37-.18.37-.18.36-.19.37-.18.37-.18.36-.17.37-.17.36-.16.37-.16.37-.14.36-.14.37-.13.37-.12.36-.12.37-.1.36-.1.37-.09.37-.09.36-.08.37-.07.37-.08.36-.07.37-.07.37-.07.36-.07.37-.07.36-.07.37-.07.37-.07.36-.07.37-.06.37-.07.36-.07.37-.06.36-.05.37-.06.37-.04.36-.04.37-.03.37-.02.36-.01h.37l.36.01.37.01.37.03.36.02.37.04.37.04.36.03.37.04.37.04.36.03.37.02.36.02h.37l.37-.01.36-.03.37-.04.37-.05.36-.08.37-.09.36-.1.37-.13.37-.13.36-.15.37-.16.37-.17.36-.17.37-.17.36-.17.37-.16.37-.16.36-.14.37-.13.37-.12.36-.09.37-.08.36-.05.37-.03.37-.01.36.02.37.04.37.05.36.08.37.09.37.1.36.12.37.11.36.12.37.12.37.11.36.1.37.09.37.07.36.05.37.03h.36l.37-.02.37-.04.36-.08.37-.1.37-.13.36-.15.37-.17.36-.19.37-.21.37-.22.36-.23.37-.24.37-.24.36-.24.37-.23.37-.23.36-.21.37-.2.36-.19.37-.17.37-.16.36-.14.37-.12.37-.11.36-.11.37-.09.36-.09.37-.09.37-.09.36-.1.37-.11.37-.13.36-.14.37-.15.36-.18.37-.19.37-.22.36-.22.37-.25.37-.25.36-.25.37-.26.37-.25.36-.24.37-.23.36-.2.37-.19.37-.15.36-.12.37-.09.37-.05.36-.02.37.02.36.05.37.08.37.11.36.13.37.14.37.16.36.16.37.17.36.15.37.14.37.13.36.09.37.07.37.03.36-.01.37-.06.37-.1.36-.15.37-.19.36-.25.37-.29.37-.34.36-.38.37-.41.37-.44.36-.46.37-.47.36-.47.37-.46.37-.44.36-.42.37-.39.37-.34.36-.29.37-.23.36-.18.37-.11.37-.06.36.01.37.06.37.1.36.14.37.18.36.18.37.19.37.17.36.13.37.1.37.03.36-.04.37-.11.37-.2.36-.27.37-.35.36-.41.37-.46.37-.51.36-.52.37-.53.37-.53.36-.5.37-.46.36-.41.37-.34.37-.27.36-.18.37-.07.37.04.36.15.37.27.36.38.37.46.37.51.36.54.37.53.37.49.36.43.37.37.37.31.36.25.37.23.36.19.37.17.37.15.36.11.37.05.37-.01.36-.1.37-.19.36-.31.37-.47.37-.72.36-1.08.37-1.62.37-2.26.36-2.83.37-2.88.36-1.67.37 1.23.37 4.75.36 5.47.37 2.14"/><use xlink:href="#e" color="violet" transform="matrix(3.75 0 0 3.75 168.29 189.53)"/><use xlink:href="#e" color="violet" transform="matrix(3.75 0 0 3.75 221.25 58.14)"/></g><path fill="none" d="M28 75.01V255M364.99 75.01H28" color="#000"/><text stroke-linecap="round" stroke-linejoin="round" stroke-width="0" color="#000" font-family="KaTeX_Main" font-size="10" text-anchor="middle" transform="translate(196.49 18.26)"><tspan>Insert - Normal</tspan></text></svg>