<svg xmlns="http://www.w3.org/2000/svg" xmlns:xlink="http://www.w3.org/1999/xlink" viewBox="0 0 400 250"><path fill="none" d="M0 0h400v250H0z"/><defs><path id="d" stroke="currentColor" stroke-width=".267" d="M-1-1h2v2h-2z"/><path id="g" fill="currentColor" stroke="currentColor" stroke-width=".267" d="M-1-1h2v2h-2z"/><path id="b" stroke="currentColor" stroke-width=".267" d="m0-1.33-1.33 2h2.66z"/><path id="f" stroke="currentColor" stroke-width=".267" d="M0 1.33 1.265.411.782-1.067l-1.564-.009-.483 1.487z"/><use xlink:href="#b" id="c" stroke="currentColor" transform="rotate(180)"/><use xlink:href="#d" id="e" stroke="currentColor" transform="rotate(45)"/><circle id="a" cx="0" cy="0" r="1" stroke="currentColor" stroke-width=".267"/></defs><path fill="none" stroke="#333" stroke-linecap="round" stroke-linejoin="round" stroke-width=".1" d="M46.1 205V45.01" class="gridline" color="#000"/><g fill="none" stroke="none" stroke-linecap="round" stroke-linejoin="round" stroke-width="0" color="#000"><path d="M46.1 205v-7.5m0-152.49v7.5"/><text fill="#000" font-family="KaTeX_Main" font-size="8" text-anchor="middle" transform="translate(46.1 215.1)"><tspan> 1</tspan></text></g><path fill="none" stroke="#333" stroke-linecap="round" stroke-linejoin="round" stroke-width=".1" d="M82.31 205V45.01" class="gridline" color="#000"/><g fill="none" stroke="none" stroke-linecap="round" stroke-linejoin="round" stroke-width="0" color="#000"><path d="M82.31 205v-7.5m0-152.49v7.5"/><text fill="#000" font-family="KaTeX_Main" font-size="8" text-anchor="middle" transform="translate(82.31 215.1)"><tspan> 2</tspan></text></g><path fill="none" stroke="#333" stroke-linecap="round" stroke-linejoin="round" stroke-width=".1" d="M118.52 205V45.01" class="gridline" color="#000"/><g fill="none" stroke="none" stroke-linecap="round" stroke-linejoin="round" stroke-width="0" color="#000"><path d="M118.52 205v-7.5m0-152.49v7.5"/><text fill="#000" font-family="KaTeX_Main" font-size="8" text-anchor="middle" transform="translate(118.52 215.1)"><tspan> 3</tspan></text></g><path fill="none" stroke="#333" stroke-linecap="round" stroke-linejoin="round" stroke-width=".1" d="M154.73 205V45.01" class="gridline" color="#000"/><g fill="none" stroke="none" stroke-linecap="round" stroke-linejoin="round" stroke-width="0" color="#000"><path d="M154.73 205v-7.5m0-152.49v7.5"/><text fill="#000" font-family="KaTeX_Main" font-size="8" text-anchor="middle" transform="translate(154.73 215.1)"><tspan> 4</tspan></text></g><path fill="none" stroke="#333" stroke-linecap="round" stroke-linejoin="round" stroke-width=".1" d="M190.94 205V45.01" class="gridline" color="#000"/><g fill="none" stroke="none" stroke-linecap="round" stroke-linejoin="round" stroke-width="0" color="#000"><path d="M190.94 205v-7.5m0-152.49v7.5"/><text fill="#000" font-family="KaTeX_Main" font-size="8" text-anchor="middle" transform="translate(190.94 215.1)"><tspan> 5</tspan></text></g><path fill="none" stroke="#333" stroke-linecap="round" stroke-linejoin="round" stroke-width=".1" d="M227.15 205V45.01" class="gridline" color="#000"/><g fill="none" stroke="none" stroke-linecap="round" stroke-linejoin="round" stroke-width="0" color="#000"><path d="M227.15 205v-7.5m0-152.49v7.5"/><text fill="#000" font-family="KaTeX_Main" font-size="8" text-anchor="middle" transform="translate(227.15 215.1)"><tspan> 6</tspan></text></g><path fill="none" stroke="#333" stroke-linecap="round" stroke-linejoin="round" stroke-width=".1" d="M263.36 205V45.01" class="gridline" color="#000"/><g fill="none" stroke="none" stroke-linecap="round" stroke-linejoin="round" stroke-width="0" color="#000"><path d="M263.36 205v-7.5m0-152.49v7.5"/><text fill="#000" font-family="KaTeX_Main" font-size="8" text-anchor="middle" transform="translate(263.36 215.1)"><tspan> 7</tspan></text></g><path fill="none" stroke="#333" stroke-linecap="round" stroke-linejoin="round" stroke-width=".1" d="M299.57 205V45.01" class="gridline" color="#000"/><g fill="none" stroke="none" stroke-linecap="round" stroke-linejoin="round" stroke-width="0" color="#000"><path d="M299.57 205v-7.5m0-152.49v7.5"/><text fill="#000" font-family="KaTeX_Main" font-size="8" text-anchor="middle" transform="translate(299.57 215.1)"><tspan> 8</tspan></text></g><path fill="none" stroke="#333" stroke-linecap="round" stroke-linejoin="round" stroke-width=".1" d="M335.78 205V45.01" class="gridline" color="#000"/><g fill="none" stroke="none" stroke-linecap="round" stroke-linejoin="round" stroke-width="0" color="#000"><path d="M335.78 205v-7.5m0-152.49v7.5"/><text fill="#000" font-family="KaTeX_Main" font-size="8" text-anchor="middle" transform="translate(335.78 215.1)"><tspan> 9</tspan></text></g><path fill="none" stroke="#333" stroke-linecap="round" stroke-linejoin="round" stroke-width=".1" d="M371.99 205V45.01" class="gridline" color="#000"/><g fill="none" stroke="none" stroke-linecap="round" stroke-linejoin="round" stroke-width="0" color="#000"><path d="M371.99 205v-7.5m0-152.49v7.5"/><text fill="#000" font-family="KaTeX_Main" font-size="8" text-anchor="middle" transform="translate(371.99 215.1)"><tspan> 10</tspan></text></g><g fill="none" stroke="none" stroke-linecap="round" stroke-linejoin="round" stroke-width="0" color="#000"><path d="M371.99 205h-7.5"/><text fill="#000" font-family="KaTeX_Main" font-size="8" transform="translate(378.99 207.6)"><tspan>1.00</tspan></text></g><g fill="none" stroke="none" stroke-linecap="round" stroke-linejoin="round" stroke-width="0" color="#000"><path d="M371.99 182.14h-7.5"/><text fill="#000" font-family="KaTeX_Main" font-size="8" transform="translate(378.99 184.74)"><tspan>1.02</tspan></text></g><g fill="none" stroke="none" stroke-linecap="round" stroke-linejoin="round" stroke-width="0" color="#000"><path d="M371.99 159.29h-7.5"/><text fill="#000" font-family="KaTeX_Main" font-size="8" transform="translate(378.99 161.89)"><tspan>1.04</tspan></text></g><g fill="none" stroke="none" stroke-linecap="round" stroke-linejoin="round" stroke-width="0" color="#000"><path d="M371.99 136.43h-7.5"/><text fill="#000" font-family="KaTeX_Main" font-size="8" transform="translate(378.99 139.03)"><tspan>1.06</tspan></text></g><g fill="none" stroke="none" stroke-linecap="round" stroke-linejoin="round" stroke-width="0" color="#000"><path d="M371.99 113.58h-7.5"/><text fill="#000" font-family="KaTeX_Main" font-size="8" transform="translate(378.99 116.18)"><tspan>1.08</tspan></text></g><g fill="none" stroke="none" stroke-linecap="round" stroke-linejoin="round" stroke-width="0" color="#000"><path d="M371.99 90.72h-7.5"/><text fill="#000" font-family="KaTeX_Main" font-size="8" transform="translate(378.99 93.32)"><tspan>1.10</tspan></text></g><g fill="none" stroke="none" stroke-linecap="round" stroke-linejoin="round" stroke-width="0" color="#000"><path d="M371.99 67.87h-7.5"/><text fill="#000" font-family="KaTeX_Main" font-size="8" transform="translate(378.99 70.47)"><tspan>1.12</tspan></text></g><g fill="none" stroke="none" stroke-linecap="round" stroke-linejoin="round" stroke-width="0" color="#000"><path d="M371.99 45.01h-7.5"/><text fill="#000" font-family="KaTeX_Main" font-size="8" transform="translate(378.99 47.61)"><tspan>1.14</tspan></text></g><path fill="none" stroke="none" stroke-linecap="round" stroke-linejoin="round" stroke-width="0" d="M28 45.01V205M371.99 45.01H28" color="#000"/><text fill="#000" stroke="none" stroke-linecap="round" stroke-linejoin="round" stroke-width="0" color="#000" font-family="KaTeX_Main" font-size="10" text-anchor="middle" transform="rotate(-90 68.255 56.755)"><tspan font-weight="bold">Allocations </tspan><tspan> / log</tspan><tspan dy="3" font-size="8">2</tspan><tspan dy="-3">(Size)</tspan></text><text fill="#000" stroke="none" stroke-linecap="round" stroke-linejoin="round" stroke-width="0" color="#000" font-family="KaTeX_Main" font-size="10" text-anchor="middle" transform="translate(199.99 238.25)"><tspan>Operations × 10</tspan><tspan dy="-5" font-size="8">5</tspan></text><text fill="#000" stroke="none" stroke-linecap="round" stroke-linejoin="round" color="#000" font-family="KaTeX_Main" font-size="8" transform="translate(71.2 10.11)"><tspan>RedBlackBottomUp</tspan></text><g fill="none" stroke="currentColor" stroke-linecap="round" stroke-linejoin="round" color="#000"><path stroke="#F44336" d="M35.7 7.51h29.9M28 106.7l.36.1.36.11.37.11.36.12.36.12.36.11.36.11.37.11.36.09.36.08.36.07.37.05.36.04.36.03.36.01.36.01H35.6l.37.01.36.02.36.03.36.04.36.06.37.07.36.1.36.13.36.16.36.2.37.24.36.3.36.36.36.43.37.51.36.6.36.68.36.78.36.89.37.98.36 1.09.36 1.19.36 1.27.36 1.35.37 1.43.36 1.48.36 1.51.36 1.54.36 1.54.37 1.52.36 1.49.36 1.44.36 1.37.37 1.29.36 1.2.36 1.11.36.99.36.89.37.78.36.67.36.56.36.46.36.37.37.27.36.2.36.12.36.05.36-.01.37-.07.36-.11.36-.15.36-.19.37-.22.36-.26.36-.29.36-.32.36-.35.37-.39.36-.42.36-.47.36-.51.36-.55.37-.61.36-.67.36-.72.36-.79.36-.86.37-.92.36-.99.36-1.06.36-1.12.36-1.19.37-1.23.36-1.29.36-1.32.36-1.36.37-1.38.36-1.4.36-1.39.36-1.39.36-1.37.37-1.33.36-1.3.36-1.25.36-1.19.36-1.13.37-1.06.36-.98.36-.91.36-.83.36-.76.37-.67.36-.59.36-.51.36-.44.37-.36.36-.29.36-.23.36-.16.36-.1.37-.03.36.02.36.07.36.13.36.19.37.23.36.3.36.34.36.4.36.45.37.51.36.57.36.62.36.69.36.74.37.8.36.86.36.92.36.97.37 1.02.36 1.08.36 1.12.36 1.15.36 1.19.37 1.22.36 1.24.36 1.25.36 1.26.36 1.25.37 1.24.36 1.23.36 1.2.36 1.16.36 1.13.37 1.08.36 1.02.36.97.36.91.37.85.36.77.36.71.36.65.36.57.37.5.36.43.36.36.36.3.36.23.37.17.36.1.36.05.36-.02.36-.07.37-.13.36-.18.36-.24.36-.3.36-.35.37-.4.36-.45.36-.51.36-.56.37-.61.36-.66.36-.71.36-.77.36-.81.37-.85.36-.9.36-.94.36-.97.36-1.01.37-1.04.36-1.06.36-1.08.36-1.1.36-1.11.37-1.1.36-1.11.36-1.1.36-1.09.37-1.06.36-1.04.36-1.02.36-.97.36-.94.37-.9.36-.85.36-.8.36-.75.36-.69.37-.64.36-.58.36-.52.36-.47.36-.4.37-.35.36-.28.36-.23.36-.17.37-.11.36-.05h.36l.36.07.36.12.37.17.36.24.36.29.36.34.36.4.37.45.36.51.36.56.36.62.36.66.37.71.36.77.36.8.36.85.36.89.37.92.36.96.36.98.36 1.01.37 1.03.36 1.04.36 1.05.36 1.05.36 1.05.37 1.04.36 1.03.36 1.01.36.99.36.96.37.92.36.89.36.85.36.8.36.75.37.7.36.65.36.59.36.54.37.48.36.42.36.36.36.3.36.25.37.18.36.12.36.07h.36l.36-.05.37-.11.36-.16.36-.22.36-.28.36-.33.37-.39.36-.44.36-.49.36-.54.36-.59.37-.64.36-.69.36-.74.36-.78.37-.82.36-.85.36-.9.36-.93.36-.95.37-.99.36-1 .36-1.02.36-1.04.36-1.04.37-1.05.36-1.05.36-1.04.36-1.03.36-1.01.37-.99.36-.97.36-.94.36-.9.37-.87.36-.83.36-.78.36-.74.36-.68.37-.64.36-.58.36-.53.36-.47.36-.41.37-.35.36-.3.36-.23.36-.18.36-.11.37-.06h.36l.36.06.36.12.36.17.37.24.36.29.36.34.36.4.37.45.36.51.36.56.36.6.36.65.37.7.36.74.36.79.36.82.36.85.37.89.36.92.36.94.36.96.36.97.37.99.36 1 .36.99.36.99.37.99.36.97.36.96.36.93.36.91.37.88.36.84.36.8.36.77.36.72.37.67.36.62.36.56.36.52.36.46.37.4.36.34.36.29.36.23.37.17.36.11.36.06h.36l.36-.06.37-.11.36-.17.36-.22.36-.28.36-.32.37-.38.36-.42.36-.47.36-.52.36-.56.37-.61.36-.65.36-.69.36-.72.36-.76.37-.79.36-.82.36-.85.36-.87.37-.9.36-.91.36-.92.36-.94.36-.94.37-.95.36-.94.36-.94.36-.94.36-.92.37-.9.36-.88.36-.86.36-.83.36-.8.37-.77.36-.73.36-.69.36-.65.37-.61.36-.56.36-.51.36-.46.36-.41.37-.36.36-.31.36-.25.36-.19.36-.14.37-.09.36-.02.36.03.36.08.36.15.37.2.36.25.36.32.36.37.36.42.37.48.36.54.36.58.36.63.37.69.36.73.36.77.36.81.36.86.37.88.36.92.36.95.36.97.36.98.37 1 .36 1.01.36 1.02.36 1.01.36 1.01.37 1 .36.99.36.96.36.94.37.91.36.88.36.84.36.79.36.76.37.7.36.66.36.6.36.54.36.49.37.43.36.37.36.31.36.25.36.18.37.12.36.07.36-.01.36-.06.37-.12.36-.19.36-.24.36-.31.36-.36.37-.42.36-.47.36-.53.36-.58.36-.63.37-.68.36-.72.36-.77.36-.81.36-.85.37-.89.36-.92.36-.95.36-.98.36-1 .37-1.01.36-1.04.36-1.04.36-1.05.37-1.05.36-1.04.36-1.04.36-1.03.36-1.01.37-.99.36-.97.36-.94.36-.9.36-.87.37-.83.36-.78.36-.74.36-.7.36-.64.37-.59.36-.53.36-.48.36-.42.37-.36.36-.31.36-.24.36-.19.36-.12.37-.07h.36l.36.05.36.12.36.17.37.23.36.29.36.34.36.4.36.45.37.51.36.55.36.61.36.65.36.7.37.73.36.78.36.82.36.85.37.88.36.9.36.93.36.94.36.96.37.97.36.98.36.97.36.97.36.96.37.95.36.93.36.91.36.88.36.85.37.82.36.78.36.74.36.69.37.65.36.61.36.55.36.49.36.45.37.39.36.34.36.28.36.23.36.17.37.12.36.06.36.01.36-.04.36-.1.37-.15.36-.2.36-.25.36-.3.36-.35.37-.39.36-.45.36-.48.36-.54.37-.57.36-.62.36-.65.36-.7.36-.73.37-.76.36-.79.36-.83.36-.85.36-.88.37-.89.36-.91.36-.93.36-.93.36-.94.37-.95.36-.94.36-.93.36-.92.37-.91.36-.89.36-.87.36-.84.36-.81.37-.78.36-.74.36-.7.36-.67.36-.61.37-.57.36-.53.36-.47.36-.42.36-.37.37-.31.36-.26.36-.2.36-.15.37-.09.36-.04.36.03.36.08.36.14.37.2.36.25.36.32.36.37.36.42.37.49.36.54.36.59.36.65.36.7.37.75.36.79.36.84.36.89.36.92.37.95.36.99.36 1.01.36 1.03.37 1.05.36 1.05.36 1.07.36 1.06.36 1.06.37 1.04.36 1.03.36 1 .36.98.36.94.37.91.36.87.36.82.36.78.36.72.37.67.36.62.36.56.36.5.37.45.36.39.36.33.36.27.36.22.37.17.36.11.36.06h.36l.36-.05.37-.1.36-.14.36-.2.36-.25.36-.29.37-.34.36-.39.36-.44.36-.48.36-.53.37-.58.36-.62.36-.66.36-.71.37-.75.36-.79.36-.82.36-.86.36-.9.37-.91.36-.95.36-.96.36-.98.36-.99.37-1 .36-.99.36-.99.36-.98.36-.97.37-.94.36-.92.36-.89.36-.85.37-.82.36-.77.36-.72.36-.68.36-.62.37-.57.36-.52.36-.46.36-.4.36-.35.37-.29.36-.24.36-.17.36-.12.36-.06.37-.01.36.05.36.1.36.16.36.22.37.27.36.33.36.39.36.44.37.5.36.57.36.61.36.68.36.74.37.79.36.86.36.9.36.96.36 1.01.37 1.06.36 1.1.36 1.13.36 1.17.36 1.19.37 1.21.36 1.22.36 1.22.36 1.22.37 1.21.36 1.19.36 1.16.36 1.13.36 1.08.37 1.03.36.98.36.93.36.86.36.79.37.73.36.65.36.59.36.52.36.45.37.38.36.32.36.26.36.19.37.14.36.09.36.03.36-.01.36-.07.37-.11.36-.15.36-.21.36-.25.36-.3.37-.35.36-.4.36-.45.36-.51.36-.57.37-.63.36-.7.36-.76.36-.83.36-.9.37-.96.36-1.03.36-1.09.36-1.15.37-1.21.36-1.25.36-1.3.36-1.33.36-1.35.37-1.36.36-1.37.36-1.36.36-1.34.36-1.31.37-1.28.36-1.22.36-1.17.36-1.11.36-1.04.37-.96.36-.89.36-.81.36-.73.37-.66.36-.58.36-.51.36-.43.36-.38.37-.31.36-.26.36-.2.36-.16.36-.11.37-.07.36-.03.36.01.36.04.36.09.37.13.36.18.36.23.36.27.36.34.37.4.36.48.36.55.36.63.37.71.36.81.36.9.36.99.36 1.09.37 1.18.36 1.27.36 1.34.36 1.42.36 1.48.37 1.52.36 1.55.36 1.56.36 1.56.36 1.54.37 1.49.36 1.43.36 1.36.36 1.27.37 1.18.36 1.06.36.95.36.83.36.71.37.6.36.49.36.39.36.3.36.22.37.14.36.08.36.03.36-.01.36-.03.37-.07.36-.08.36-.09.36-.09.36-.1.37-.11.36-.11.36-.12.36-.13.37-.14.36-.18.36-.21.36-.26.36-.32.37-.4.36-.49.36-.6.36-.73.36-.88.37-1.05.36-1.21.36-1.41.36-1.59.36-1.78.37-1.96.36-2.12.36-2.25.36-2.36.37-2.42.36-2.44.36-2.41.36-2.33.36-2.22.37-2.05.36-1.86.36-1.66.36-1.44.36-1.21.37-1.01.36-.82.36-.65.36-.5.36-.39.37-.29.36-.2.36-.14.36-.09.37-.04.36.01.36.03.36.05.36.07.37.06.36.06.36.06.36.04.36.05.37.06.36.09.36.15.36.22.36.29.37.35.36.4.36.41.36.39.36.34.37.24.36.13.36.03.36-.05.37-.1.36-.06.36.03.36.22.36.42.37.49.36-.26.36-2.95"/><use xlink:href="#e" color="#F44336" transform="matrix(3.75 0 0 3.75 353.89 109.52)"/><use xlink:href="#e" color="#F44336" transform="matrix(3.75 0 0 3.75 50.65 7.51)"/></g><text fill="#000" stroke="none" stroke-linecap="round" stroke-linejoin="round" color="#000" font-family="KaTeX_Main" font-size="8" transform="translate(71.2 25.11)"><tspan>RedBlackTopDown</tspan></text><g fill="none" stroke="currentColor" stroke-linecap="round" stroke-linejoin="round" color="#000"><path stroke="#3B75EA" stroke-dasharray="1.0,2.0" d="M35.7 22.51h29.9M28 105.12l.36.21.36.23.37.24.36.26.36.26.36.26.36.26.37.24.36.23.36.22.36.2.37.18.36.16.36.15.36.13.36.12.37.11.36.1.36.08.36.08.36.08.37.07.36.06.36.07.36.07.36.08.37.1.36.11.36.14.36.16.36.21.37.26.36.31.36.38.36.46.37.54.36.63.36.73.36.84.36.93.37 1.04.36 1.14.36 1.23.36 1.31.36 1.39.37 1.45.36 1.49.36 1.51.36 1.52.36 1.5.37 1.48.36 1.42.36 1.36.36 1.28.37 1.19.36 1.08.36.98.36.87.36.75.37.63.36.53.36.42.36.32.36.22.37.14.36.05.36-.01.36-.07.36-.13.37-.17.36-.22.36-.25.36-.28.37-.3.36-.33.36-.34.36-.37.36-.39.37-.41.36-.43.36-.45.36-.48.36-.52.37-.55.36-.58.36-.63.36-.67.36-.72.37-.77.36-.81.36-.87.36-.91.36-.95.37-1 .36-1.04.36-1.06.36-1.09.37-1.1.36-1.12.36-1.12.36-1.1.36-1.1.37-1.07.36-1.04.36-1 .36-.96.36-.91.37-.85.36-.81.36-.74.36-.68.36-.62.37-.55.36-.5.36-.44.36-.38.37-.32.36-.26.36-.22.36-.16.36-.11.37-.06.36-.02.36.04.36.08.36.12.37.18.36.22.36.27.36.32.36.37.37.43.36.48.36.53.36.59.36.65.37.7.36.75.36.81.36.86.37.9.36.95.36.99.36 1.02.36 1.05.37 1.08.36 1.08.36 1.1.36 1.1.36 1.09.37 1.08.36 1.06.36 1.03.36 1 .36.96.37.91.36.86.36.8.36.75.37.69.36.62.36.56.36.5.36.43.37.36.36.3.36.24.36.17.36.12.37.05h.36l.36-.05.36-.11.36-.16.37-.21.36-.26.36-.31.36-.35.36-.4.37-.45.36-.49.36-.53.36-.58.37-.62.36-.65.36-.7.36-.74.36-.77.37-.8.36-.84.36-.86.36-.89.36-.91.37-.92.36-.95.36-.95.36-.95.36-.96.37-.95.36-.94.36-.93.36-.91.37-.88.36-.86.36-.83.36-.8.36-.75.37-.72.36-.67.36-.63.36-.58.36-.53.37-.48.36-.43.36-.38.36-.33.36-.28.37-.22.36-.17.36-.13.36-.07.37-.02.36.03.36.08.36.13.36.18.37.22.36.28.36.33.36.38.36.43.37.48.36.53.36.57.36.63.36.67.37.72.36.76.36.81.36.84.36.89.37.91.36.95.36.97.36 1 .37 1.01.36 1.02.36 1.03.36 1.03.36 1.03.37 1.01.36 1.01.36.98.36.95.36.92.37.89.36.85.36.8.36.76.36.7.37.65.36.59.36.54.36.48.37.41.36.36.36.3.36.23.36.18.37.12.36.06h.36l.36-.06.36-.1.37-.16.36-.22.36-.26.36-.31.36-.36.37-.4.36-.45.36-.49.36-.53.36-.56.37-.61.36-.64.36-.68.36-.71.37-.74.36-.76.36-.79.36-.81.36-.83.37-.85.36-.86.36-.87.36-.88.36-.88.37-.87.36-.88.36-.86.36-.85.36-.84.37-.81.36-.8.36-.76.36-.74.37-.7.36-.67.36-.63.36-.6.36-.54.37-.51.36-.46.36-.41.36-.37.36-.32.37-.26.36-.22.36-.17.36-.12.36-.07.37-.02.36.03.36.07.36.13.36.17.37.23.36.26.36.32.36.36.37.4.36.44.36.48.36.52.36.56.37.59.36.63.36.65.36.68.36.71.37.72.36.74.36.76.36.76.36.78.37.77.36.77.36.77.36.75.37.74.36.73.36.7.36.69.36.65.37.63.36.59.36.56.36.52.36.49.37.44.36.41.36.36.36.32.36.28.37.23.36.2.36.14.36.11.37.07.36.02.36-.02.36-.06.36-.1.37-.15.36-.18.36-.22.36-.25.36-.3.37-.34.36-.37.36-.4.36-.45.36-.47.37-.51.36-.54.36-.58.36-.6.36-.63.37-.66.36-.68.36-.71.36-.72.37-.74.36-.75.36-.77.36-.77.36-.78.37-.78.36-.78.36-.78.36-.76.36-.76.37-.74.36-.72.36-.7.36-.68.36-.65.37-.62.36-.58.36-.56.36-.51.37-.48.36-.43.36-.4.36-.35.36-.3.37-.26.36-.22.36-.16.36-.12.36-.07.37-.02.36.03.36.07.36.13.36.17.37.23.36.27.36.31.36.37.36.41.37.45.36.5.36.54.36.58.37.62.36.65.36.68.36.72.36.74.37.77.36.79.36.81.36.82.36.83.37.84.36.84.36.84.36.83.36.82.37.81.36.79.36.77.36.74.37.72.36.68.36.65.36.62.36.57.37.54.36.49.36.45.36.41.36.36.37.32.36.26.36.23.36.17.36.13.37.09.36.04.36-.01.36-.05.37-.1.36-.14.36-.18.36-.22.36-.27.37-.31.36-.35.36-.39.36-.42.36-.47.37-.5.36-.54.36-.57.36-.6.36-.64.37-.66.36-.69.36-.72.36-.74.36-.76.37-.77.36-.79.36-.8.36-.81.37-.81.36-.81.36-.8.36-.8.36-.79.37-.78.36-.75.36-.74.36-.71.36-.68.37-.65.36-.62.36-.59.36-.54.36-.51.37-.46.36-.42.36-.37.36-.33.37-.27.36-.23.36-.19.36-.13.36-.08.37-.03.36.02.36.07.36.11.36.17.37.22.36.27.36.32.36.36.36.41.37.46.36.5.36.55.36.59.36.62.37.67.36.7.36.73.36.76.37.79.36.82.36.83.36.85.36.86.37.87.36.88.36.87.36.88.36.86.37.85.36.83.36.82.36.79.36.76.37.73.36.7.36.66.36.62.37.58.36.54.36.49.36.44.36.4.37.35.36.3.36.26.36.2.36.16.37.1.36.06.36.01.36-.03.36-.08.37-.13.36-.18.36-.22.36-.26.36-.31.37-.35.36-.4.36-.44.36-.47.37-.52.36-.56.36-.59.36-.63.36-.66.37-.69.36-.73.36-.75.36-.78.36-.79.37-.82.36-.83.36-.85.36-.85.36-.86.37-.85.36-.86.36-.85.36-.83.37-.82.36-.8.36-.78.36-.76.36-.72.37-.7.36-.65.36-.63.36-.58.36-.54.37-.49.36-.45.36-.41.36-.36.36-.31.37-.26.36-.21.36-.16.36-.11.37-.05.36-.01.36.04.36.1.36.15.37.2.36.25.36.31.36.35.36.41.37.46.36.51.36.56.36.61.36.66.37.7.36.75.36.79.36.82.36.87.37.89.36.93.36.94.36.97.37.98.36 1 .36 1 .36.99.36 1 .37.98.36.96.36.95.36.92.36.88.37.85.36.81.36.77.36.73.36.67.37.62.36.56.36.52.36.45.37.4.36.34.36.28.36.22.36.17.37.11.36.06h.36l.36-.05.36-.11.37-.15.36-.21.36-.25.36-.3.36-.35.37-.39.36-.43.36-.48.36-.52.36-.57.37-.6.36-.63.36-.68.36-.71.37-.74.36-.76.36-.8.36-.82.36-.84.37-.86.36-.88.36-.88.36-.89.36-.89.37-.89.36-.89.36-.87.36-.85.36-.84.37-.81.36-.79.36-.75.36-.72.37-.68.36-.64.36-.59.36-.56.36-.5.37-.46.36-.41.36-.37.36-.31.36-.27.37-.21.36-.17.36-.12.36-.08.36-.02.37.02.36.06.36.12.36.16.36.2.37.26.36.3.36.36.36.4.37.46.36.51.36.56.36.62.36.67.37.72.36.78.36.83.36.89.36.93.37.97.36 1.02.36 1.06.36 1.09.36 1.11.37 1.13.36 1.15.36 1.15.36 1.14.37 1.13.36 1.11.36 1.08.36 1.05.36 1 .37.94.36.89.36.82.36.76.36.68.37.61.36.53.36.46.36.38.36.3.37.23.36.15.36.09.36.02.37-.03.36-.1.36-.14.36-.2.36-.24.37-.29.36-.32.36-.36.36-.4.36-.43.37-.46.36-.49.36-.53.36-.55.36-.6.37-.62.36-.67.36-.7.36-.73.36-.78.37-.81.36-.85.36-.89.36-.92.37-.95.36-.99.36-1.01.36-1.02.36-1.04.37-1.05.36-1.05.36-1.04.36-1.03.36-1.01.37-.97.36-.94.36-.9.36-.85.36-.79.37-.73.36-.67.36-.61.36-.54.37-.48.36-.41.36-.35.36-.29.36-.22.37-.18.36-.12.36-.07.36-.02.36.02.37.05.36.1.36.13.36.16.36.2.37.23.36.26.36.31.36.34.36.39.37.43.36.49.36.55.36.62.37.68.36.77.36.84.36.93.36 1.01.37 1.1.36 1.19.36 1.26.36 1.34.36 1.4.37 1.45.36 1.5.36 1.51.36 1.51.36 1.5.37 1.47.36 1.41.36 1.35.36 1.25.37 1.16.36 1.04.36.92.36.79.36.67.37.53.36.41.36.3.36.18.36.08.37-.01.36-.08.36-.15.36-.2.36-.24.37-.27.36-.29.36-.3.36-.3.36-.3.37-.29.36-.29.36-.28.36-.28.37-.27.36-.28.36-.3.36-.32.36-.35.37-.4.36-.46.36-.53.36-.63.36-.72.37-.83.36-.96.36-1.09.36-1.23.36-1.36.37-1.51.36-1.62.36-1.74.36-1.82.37-1.88.36-1.9.36-1.89.36-1.83.36-1.75.37-1.62.36-1.47.36-1.31.36-1.13.36-.95.37-.77.36-.62.36-.48.36-.35.36-.26.37-.17.36-.1.36-.04h.36l.37.05.36.09.36.12.36.14.36.17.37.18.36.19.36.19.36.19.36.2.37.2.36.22.36.24.36.25.36.26.37.26.36.26.36.24.36.24.36.24.37.24.36.25.36.23.36.16.37.04.36-.13.36-.29.36-.37.36-.26.37.08.36.41.36.61"/><use xlink:href="#g" color="#3B75EA" transform="matrix(3.75 0 0 3.75 67.83 111.65)"/><use xlink:href="#g" color="#3B75EA" transform="matrix(3.75 0 0 3.75 50.65 22.51)"/></g><text fill="#000" stroke="none" stroke-linecap="round" stroke-linejoin="round" color="#000" font-family="KaTeX_Main" font-size="8" transform="translate(241.1 10.11)"><tspan>RedBlackRelaxedBottomUp</tspan></text><g fill="none" stroke="currentColor" stroke-linecap="round" stroke-linejoin="round" color="#000"><path stroke="#00C853" d="M205.6 7.51h29.9M28 106.7l.36.1.36.11.37.11.36.12.36.12.36.11.36.11.37.11.36.09.36.08.36.07.37.05.36.04.36.03.36.02H35.24l.36.01.37.01.36.02.36.04.36.06.36.08.37.1.36.14.36.19.36.23.36.3.37.37.36.46.36.56.36.68.37.82.36.96.36 1.13.36 1.3.36 1.47.37 1.66.36 1.85.36 2.02.36 2.2.36 2.36.37 2.49.36 2.61.36 2.71.36 2.77.36 2.8.37 2.81.36 2.79.36 2.72.36 2.65.37 2.54.36 2.41.36 2.27.36 2.12.36 1.95.37 1.78.36 1.61.36 1.43.36 1.28.36 1.11.37.97.36.82.36.7.36.58.36.46.37.37.36.27.36.18.36.11.37.03.36-.05.36-.13.36-.2.36-.28.37-.37.36-.47.36-.56.36-.68.36-.79.37-.93.36-1.05.36-1.2.36-1.35.36-1.5.37-1.66.36-1.82.36-1.97.36-2.12.36-2.25.37-2.39.36-2.51.36-2.6.36-2.69.37-2.75.36-2.79.36-2.82.36-2.81.36-2.78.37-2.75.36-2.67.36-2.59.36-2.5.36-2.37.37-2.25.36-2.11.36-1.97.36-1.82.36-1.67.37-1.51.36-1.37.36-1.21.36-1.07.37-.94.36-.8.36-.67.36-.55.36-.43.37-.33.36-.22.36-.11.36-.02.36.08.37.17.36.27.36.37.36.46.36.57.37.66.36.77.36.87.36.99.36 1.09.37 1.21.36 1.31.36 1.43.36 1.54.37 1.64.36 1.74.36 1.84.36 1.92.36 1.99.37 2.07.36 2.12.36 2.16.36 2.19.36 2.2.37 2.21.36 2.2.36 2.17.36 2.13.36 2.08.37 2.02.36 1.95.36 1.87.36 1.78.37 1.68.36 1.58.36 1.48.36 1.36.36 1.26.37 1.14.36 1.03.36.92.36.81.36.7.37.59.36.48.36.37.36.27.36.16.37.06.36-.05.36-.16.36-.26.36-.38.37-.48.36-.59.36-.71.36-.82.37-.94.36-1.06.36-1.17.36-1.28.36-1.4.37-1.51.36-1.62.36-1.72.36-1.82.36-1.91.37-2 .36-2.06.36-2.13.36-2.18.36-2.22.37-2.25.36-2.27.36-2.27.36-2.27.37-2.24.36-2.21.36-2.16.36-2.11.36-2.04.37-1.97.36-1.88.36-1.79.36-1.7.36-1.59.37-1.49.36-1.37.36-1.26.36-1.15.36-1.03.37-.92.36-.8.36-.68.36-.57.37-.45.36-.34.36-.23.36-.11.36-.01.37.11.36.22.36.33.36.44.36.54.37.66.36.76.36.86.36.97.36 1.07.37 1.18.36 1.26.36 1.37.36 1.45.36 1.54.37 1.61.36 1.69.36 1.75.36 1.81.37 1.87.36 1.9.36 1.93.36 1.96.36 1.97.37 1.98.36 1.97.36 1.95.36 1.93.36 1.89.37 1.85.36 1.8.36 1.74.36 1.68.36 1.6.37 1.52.36 1.44.36 1.36.36 1.26.37 1.17.36 1.06.36.97.36.87.36.76.37.65.36.55.36.45.36.33.36.23.37.11.36.01.36-.11.36-.21.36-.33.37-.44.36-.55.36-.66.36-.77.36-.88.37-.99.36-1.09.36-1.2.36-1.29.37-1.39.36-1.49.36-1.57.36-1.65.36-1.73.37-1.79.36-1.86.36-1.91.36-1.95.36-1.98.37-2.01.36-2.02.36-2.03.36-2.02.36-2.01.37-1.98.36-1.95.36-1.91.36-1.85.37-1.8.36-1.72.36-1.66.36-1.57.36-1.49.37-1.39.36-1.3.36-1.2.36-1.1.36-.99.37-.89.36-.77.36-.67.36-.56.36-.45.37-.33.36-.23.36-.11.36-.01.36.11.37.21.36.32.36.43.36.53.37.63.36.74.36.83.36.93.36 1.02.37 1.11.36 1.2.36 1.29.36 1.36.36 1.43.37 1.5.36 1.56.36 1.62.36 1.67.36 1.71.37 1.74.36 1.77.36 1.79.36 1.8.37 1.8.36 1.8.36 1.78.36 1.76.36 1.73.37 1.7.36 1.65.36 1.59.36 1.55.36 1.47.37 1.41.36 1.34.36 1.25.36 1.18.36 1.08.37 1 .36.91.36.8.36.71.37.62.36.51.36.41.36.3.36.2.37.1.36-.01.36-.11.36-.22.36-.32.37-.43.36-.53.36-.64.36-.73.36-.84.37-.94.36-1.03.36-1.13.36-1.21.36-1.3.37-1.39.36-1.45.36-1.54.36-1.59.37-1.66.36-1.71.36-1.75.36-1.79.36-1.82.37-1.85.36-1.85.36-1.86.36-1.86.36-1.84.37-1.82.36-1.79.36-1.76.36-1.71.36-1.66.37-1.6.36-1.54.36-1.47.36-1.38.37-1.31.36-1.23.36-1.13.36-1.04.36-.94.37-.85.36-.75.36-.64.36-.54.36-.44.37-.33.36-.23.36-.12.36-.02.36.09.37.2.36.29.36.41.36.5.36.61.37.71.36.8.36.9.36 1 .37 1.08.36 1.17.36 1.26.36 1.33.36 1.4.37 1.48.36 1.54.36 1.59.36 1.65.36 1.69.37 1.72.36 1.76.36 1.77.36 1.79.36 1.8.37 1.79.36 1.78.36 1.75.36 1.74.37 1.7.36 1.65.36 1.61.36 1.55.36 1.49.37 1.42.36 1.35.36 1.27.36 1.19.36 1.11.37 1.01.36.92.36.83.36.73.36.62.37.53.36.43.36.32.36.22.37.11.36.01.36-.1.36-.21.36-.31.37-.41.36-.53.36-.62.36-.73.36-.83.37-.93.36-1.02.36-1.12.36-1.22.36-1.3.37-1.38.36-1.46.36-1.54.36-1.61.36-1.67.37-1.72.36-1.78.36-1.81.36-1.85.37-1.87.36-1.89.36-1.9.36-1.9.36-1.89.37-1.88.36-1.85.36-1.81.36-1.77.36-1.72.37-1.67.36-1.6.36-1.52.36-1.46.36-1.37.37-1.28.36-1.19.36-1.1.36-.99.37-.9.36-.79.36-.68.36-.57.36-.46.37-.35.36-.24.36-.13.36-.01.36.1.37.22.36.33.36.44.36.54.36.66.37.77.36.87.36.97.36 1.08.36 1.16.37 1.26.36 1.35.36 1.43.36 1.51.37 1.58.36 1.64.36 1.71.36 1.75.36 1.79.37 1.83.36 1.86.36 1.88.36 1.88.36 1.89.37 1.88.36 1.86.36 1.84.36 1.81.36 1.76.37 1.72.36 1.66.36 1.59.36 1.53.37 1.46.36 1.38.36 1.29.36 1.21.36 1.11.37 1.02.36.93.36.82.36.73.36.62.37.52.36.42.36.31.36.21.36.1h.37l.36-.11.36-.22.36-.32.36-.43.37-.53.36-.64.36-.74.36-.84.37-.95.36-1.04.36-1.15.36-1.24.36-1.33.37-1.42.36-1.5.36-1.58.36-1.66.36-1.73.37-1.78.36-1.84.36-1.88.36-1.92.36-1.95.37-1.97.36-1.98.36-1.97.36-1.97.37-1.95.36-1.93.36-1.88.36-1.84.36-1.78.37-1.73.36-1.65.36-1.58.36-1.49.36-1.41.37-1.31.36-1.22.36-1.12.36-1.01.36-.91.37-.8.36-.69.36-.58.36-.48.37-.36.36-.24.36-.14.36-.03.36.08.37.2.36.3.36.41.36.52.36.63.37.73.36.83.36.94.36 1.04.36 1.14.37 1.23.36 1.32.36 1.41.36 1.49.36 1.58.37 1.64.36 1.71.36 1.77.36 1.82.37 1.87.36 1.9.36 1.93.36 1.95.36 1.96.37 1.96.36 1.95.36 1.93.36 1.9.36 1.86.37 1.83.36 1.76.36 1.71.36 1.64.36 1.57.37 1.49.36 1.41.36 1.31.36 1.23.37 1.13.36 1.03.36.93.36.83.36.72.37.62.36.51.36.4.36.3.36.18.37.08.36-.04.36-.15.36-.26.36-.38.37-.49.36-.6.36-.73.36-.83.36-.96.37-1.07.36-1.19.36-1.29.36-1.41.37-1.52.36-1.62.36-1.71.36-1.81.36-1.89.37-1.96.36-2.04.36-2.09.36-2.13.36-2.18.37-2.19.36-2.21.36-2.21.36-2.19.36-2.17.37-2.13.36-2.08.36-2.02.36-1.95.37-1.87.36-1.79.36-1.69.36-1.59.36-1.48.37-1.38.36-1.26.36-1.15.36-1.04.36-.92.37-.8.36-.69.36-.57.36-.47.36-.35.37-.25.36-.13.36-.03.36.08.36.18.37.29.36.4.36.5.36.61.37.72.36.83.36.94.36 1.06.36 1.16.37 1.28.36 1.38.36 1.5.36 1.6.36 1.7.37 1.79.36 1.89.36 1.96.36 2.04.36 2.1.37 2.14.36 2.19.36 2.21.36 2.23.37 2.22.36 2.21.36 2.18.36 2.14.36 2.08.37 2.02.36 1.94.36 1.86.36 1.76.36 1.66.37 1.56.36 1.44.36 1.33.36 1.22.36 1.11.37 1 .36.88.36.77.36.67.37.57.36.46.36.37.36.27.36.18.37.09.36-.01.36-.11.36-.2.36-.3.37-.41.36-.51.36-.62.36-.75.36-.87.37-1 .36-1.13.36-1.27.36-1.41.36-1.56.37-1.7.36-1.84.36-1.98.36-2.12.37-2.23.36-2.35.36-2.44.36-2.53.36-2.59.37-2.64.36-2.66.36-2.67.36-2.64.36-2.61.37-2.55.36-2.47.36-2.37.36-2.26.36-2.14.37-1.99.36-1.85.36-1.7.36-1.55.37-1.39.36-1.24.36-1.09.36-.95.36-.82.37-.69.36-.58.36-.46.36-.37.36-.28.37-.18.36-.11.36-.03.36.04.36.12.37.2.36.27.36.36.36.45.36.56.37.67.36.78.36.93.36 1.06.37 1.23.36 1.39.36 1.56.36 1.74.36 1.93.37 2.1.36 2.28.36 2.45.36 2.6.36 2.74.37 2.85.36 2.93.36 2.99.36 3.02.36 3 .37 2.97.36 2.89.36 2.79.36 2.66.37 2.51.36 2.34.36 2.15.36 1.96.36 1.76.37 1.57.36 1.39.36 1.21.36 1.06.36.91.37.77.36.67.36.57.36.5.36.42.37.37.36.32.36.28.36.24.36.2.37.17.36.13.36.08.36.04.37-.02.36-.1.36-.17.36-.28.36-.39.37-.53.36-.68.36-.87.36-1.09.36-1.32.37-1.59.36-1.88.36-2.2.36-2.53.36-2.86.37-3.2.36-3.51.36-3.79.36-4.03.37-4.2.36-4.3.36-4.31.36-4.24.36-4.08.37-3.83.36-3.52.36-3.16.36-2.75.36-2.35.37-1.94.36-1.56.36-1.21.36-.92.36-.68.37-.48.36-.33.36-.23.36-.16.37-.1.36-.08.36-.05.36-.04.36-.02h.37l.36.01.36.02.36.04.36.04.37.06.36.05.36.05.36.03.36.03.37.02.36.03.36.07.36.14.36.25.37.38.36.5.36.55.36.53.37.45.36.38.36.46.36.71.36.91.37.5.36-.62.36 1.02"/><use xlink:href="#b" color="#00C853" transform="matrix(3.75 0 0 3.75 125.4 153.26)"/><use xlink:href="#b" color="#00C853" transform="matrix(3.75 0 0 3.75 220.55 7.51)"/></g><text fill="#000" stroke="none" stroke-linecap="round" stroke-linejoin="round" color="#000" font-family="KaTeX_Main" font-size="8" transform="translate(241.1 25.11)"><tspan>RedBlackRelaxedTopDown</tspan></text><g fill="none" stroke="currentColor" stroke-linecap="round" stroke-linejoin="round" color="#000"><path stroke="#FFAB00" stroke-dasharray="4.5,2.0,0.5,2.0,0.5,2.0" d="M205.6 22.51h29.9M28 105.12l.36.21.36.23.37.24.36.26.36.26.36.26.36.26.37.24.36.23.36.22.36.2.37.18.36.16.36.15.36.13.36.12.37.11.36.1.36.09.36.08.36.07.37.08.36.07.36.08.36.09.36.1.37.12.36.15.36.19.36.25.36.31.37.38.36.48.36.59.36.72.37.86.36 1.01.36 1.19.36 1.36.36 1.55.37 1.74.36 1.93.36 2.11.36 2.29.36 2.43.37 2.58.36 2.68.36 2.77.36 2.82.36 2.85.37 2.83.36 2.8.36 2.73.36 2.64.37 2.51.36 2.38.36 2.23.36 2.06.36 1.89.37 1.72.36 1.54.36 1.37.36 1.2.36 1.05.37.9.36.76.36.64.36.53.36.43.37.33.36.25.36.18.36.11.37.04.36-.03.36-.09.36-.17.36-.23.37-.31.36-.4.36-.49.36-.6.36-.71.37-.83.36-.97.36-1.11.36-1.25.36-1.41.37-1.57.36-1.73.36-1.89.36-2.04.36-2.19.37-2.32.36-2.45.36-2.56.36-2.65.37-2.72.36-2.77.36-2.79.36-2.81.36-2.78.37-2.75.36-2.69.36-2.62.36-2.52.36-2.41.37-2.28.36-2.16.36-2.01.36-1.87.36-1.72.37-1.57.36-1.42.36-1.27.36-1.13.37-.99.36-.86.36-.73.36-.61.36-.49.37-.37.36-.28.36-.16.36-.07.36.03.37.13.36.23.36.32.36.42.36.52.37.63.36.73.36.83.36.94.36 1.06.37 1.16.36 1.27.36 1.39.36 1.48.37 1.59.36 1.69.36 1.78.36 1.87.36 1.93.37 2 .36 2.06.36 2.1.36 2.12.36 2.15.37 2.14.36 2.14.36 2.11.36 2.07.36 2.04.37 1.97.36 1.9.36 1.83.36 1.75.37 1.65.36 1.57.36 1.46.36 1.35.36 1.26.37 1.14.36 1.04.36.94.36.82.36.72.37.62.36.51.36.4.36.3.36.2.37.09.36-.02.36-.12.36-.23.36-.34.37-.45.36-.56.36-.68.36-.79.37-.91.36-1.02.36-1.15.36-1.26.36-1.37.37-1.49.36-1.59.36-1.7.36-1.79.36-1.89.37-1.96.36-2.04.36-2.1.36-2.15.36-2.2.37-2.22.36-2.24.36-2.24.36-2.23.37-2.22.36-2.18.36-2.13.36-2.09.36-2.02.37-1.95.36-1.86.36-1.78.36-1.69.36-1.58.37-1.48.36-1.38.36-1.27.36-1.16.36-1.04.37-.94.36-.82.36-.71.36-.59.37-.49.36-.37.36-.27.36-.15.36-.04.37.07.36.17.36.29.36.39.36.5.37.61.36.72.36.83.36.93.36 1.04.37 1.14.36 1.23.36 1.34.36 1.42.36 1.52.37 1.59.36 1.67.36 1.74.36 1.8.37 1.85.36 1.9.36 1.93.36 1.95.36 1.97.37 1.98.36 1.97.36 1.96.36 1.93.36 1.9.37 1.86.36 1.81.36 1.75.36 1.68.36 1.61.37 1.54.36 1.44.36 1.37.36 1.26.37 1.17.36 1.08.36.97.36.87.36.76.37.66.36.55.36.45.36.33.36.23.37.11.36.01.36-.11.36-.21.36-.33.37-.43.36-.55.36-.65.36-.77.36-.87.37-.98.36-1.09.36-1.18.36-1.29.37-1.38.36-1.47.36-1.56.36-1.64.36-1.72.37-1.78.36-1.84.36-1.89.36-1.93.36-1.97.37-2 .36-2.01.36-2.01.36-2.01.36-2 .37-1.97.36-1.95.36-1.9.36-1.85.37-1.79.36-1.73.36-1.65.36-1.58.36-1.5.37-1.4.36-1.32.36-1.21.36-1.12.36-1.02.37-.91.36-.8.36-.7.36-.59.36-.48.37-.37.36-.26.36-.15.36-.04.36.06.37.18.36.28.36.39.36.49.37.6.36.7.36.8.36.9.36.99.37 1.09.36 1.17.36 1.26.36 1.34.36 1.42.37 1.49.36 1.55.36 1.61.36 1.67.36 1.7.37 1.75.36 1.77.36 1.8.36 1.81.37 1.82.36 1.81.36 1.8.36 1.79.36 1.75.37 1.72.36 1.68.36 1.63.36 1.57.36 1.51.37 1.44.36 1.37.36 1.29.36 1.21.36 1.13.37 1.03.36.94.36.85.36.74.37.65.36.55.36.44.36.34.36.23.37.13.36.02.36-.09.36-.19.36-.3.37-.41.36-.51.36-.62.36-.73.36-.83.37-.93.36-1.03.36-1.12.36-1.22.36-1.31.37-1.39.36-1.47.36-1.55.36-1.62.37-1.67.36-1.74.36-1.78.36-1.82.36-1.85.37-1.88.36-1.89.36-1.89.36-1.9.36-1.88.37-1.87.36-1.83.36-1.8.36-1.75.36-1.71.37-1.64.36-1.58.36-1.51.36-1.43.37-1.35.36-1.26.36-1.17.36-1.08.36-.98.37-.88.36-.77.36-.68.36-.56.36-.47.37-.35.36-.25.36-.14.36-.03.36.08.37.18.36.29.36.4.36.5.36.6.37.71.36.8.36.91.36.99.37 1.09.36 1.18.36 1.26.36 1.33.36 1.42.37 1.48.36 1.54.36 1.61.36 1.65.36 1.7.37 1.73.36 1.76.36 1.78.36 1.79.36 1.8.37 1.8.36 1.78.36 1.76.36 1.74.37 1.7.36 1.66.36 1.61.36 1.55.36 1.5.37 1.42.36 1.36.36 1.27.36 1.19.36 1.11.37 1.02.36.93.36.83.36.73.36.63.37.54.36.43.36.32.36.22.37.12.36.01.36-.1.36-.2.36-.31.37-.41.36-.53.36-.62.36-.74.36-.83.37-.93.36-1.04.36-1.13.36-1.22.36-1.31.37-1.4.36-1.48.36-1.55.36-1.62.36-1.69.37-1.74.36-1.79.36-1.83.36-1.87.37-1.89.36-1.9.36-1.92.36-1.91.36-1.9.37-1.88.36-1.85.36-1.82.36-1.77.36-1.72.37-1.66.36-1.6.36-1.52.36-1.44.36-1.36.37-1.27.36-1.17.36-1.08.36-.98.37-.87.36-.77.36-.66.36-.56.36-.44.37-.33.36-.22.36-.11h.36l.36.11.37.22.36.33.36.44.36.55.36.65.37.75.36.86.36.95.36 1.06.36 1.14.37 1.23.36 1.32.36 1.4.36 1.47.37 1.55.36 1.6.36 1.66.36 1.72.36 1.75.37 1.79.36 1.82.36 1.84.36 1.85.36 1.85.37 1.84.36 1.84.36 1.8.36 1.78.36 1.74.37 1.7.36 1.64.36 1.58.36 1.52.37 1.45.36 1.37.36 1.29.36 1.2.36 1.12.37 1.03.36.93.36.83.36.74.36.64.37.53.36.44.36.33.36.22.36.12.37.01.36-.09.36-.2.36-.3.36-.41.37-.52.36-.62.36-.73.36-.83.37-.94.36-1.04.36-1.14.36-1.24.36-1.33.37-1.42.36-1.51.36-1.58.36-1.67.36-1.73.37-1.8.36-1.85.36-1.9.36-1.93.36-1.97.37-1.99.36-1.99.36-2.01.36-1.99.37-1.97.36-1.95.36-1.92.36-1.86.36-1.82.37-1.76.36-1.68.36-1.61.36-1.54.36-1.44.37-1.35.36-1.26.36-1.16.36-1.05.36-.95.37-.85.36-.73.36-.62.36-.52.37-.4.36-.29.36-.18.36-.06.36.04.37.16.36.27.36.38.36.49.36.6.37.71.36.81.36.92.36 1.03.36 1.12.37 1.22.36 1.32.36 1.41.36 1.49.36 1.57.37 1.65.36 1.71.36 1.78.36 1.83.37 1.87.36 1.92.36 1.94.36 1.96.36 1.96.37 1.97.36 1.96.36 1.94.36 1.91.36 1.88.37 1.83.36 1.77.36 1.72.36 1.65.36 1.57.37 1.5.36 1.41.36 1.33.36 1.23.37 1.14.36 1.04.36.94.36.84.36.73.37.64.36.52.36.43.36.31.36.21.37.1.36-.01.36-.12.36-.23.36-.35.37-.46.36-.57.36-.69.36-.8.36-.92.37-1.04.36-1.15.36-1.27.36-1.37.37-1.49.36-1.59.36-1.69.36-1.78.36-1.87.37-1.95.36-2.02.36-2.08.36-2.13.36-2.17.37-2.19.36-2.21.36-2.2.36-2.2.36-2.18.37-2.14.36-2.09.36-2.03.36-1.97.37-1.88.36-1.8.36-1.71.36-1.61.36-1.5.37-1.39.36-1.28.36-1.17.36-1.05.36-.94.37-.82.36-.7.36-.6.36-.48.36-.37.37-.26.36-.16.36-.05.36.06.36.16.37.27.36.37.36.47.36.59.37.69.36.8.36.9.36 1.02.36 1.13.37 1.24.36 1.34.36 1.46.36 1.55.36 1.66.37 1.75.36 1.85.36 1.92.36 2 .36 2.06.37 2.11.36 2.15.36 2.18.36 2.2.37 2.2.36 2.18.36 2.16.36 2.12.36 2.07.37 2.01.36 1.93.36 1.86.36 1.76.36 1.66.37 1.56.36 1.46.36 1.34.36 1.24.36 1.12.37 1.01.36.91.36.8.36.69.37.6.36.5.36.4.36.3.36.22.37.12.36.03.36-.07.36-.16.36-.26.37-.37.36-.47.36-.58.36-.71.36-.83.37-.96.36-1.09.36-1.24.36-1.37.36-1.53.37-1.66.36-1.81.36-1.95.36-2.08.37-2.21.36-2.31.36-2.42.36-2.5.36-2.57.37-2.61.36-2.64.36-2.65.36-2.63.36-2.6.37-2.54.36-2.46.36-2.36.36-2.26.36-2.13.37-1.99.36-1.85.36-1.7.36-1.54.37-1.39.36-1.24.36-1.09.36-.95.36-.81.37-.68.36-.56.36-.45.36-.35.36-.26.37-.17.36-.09.36-.01.36.06.36.13.37.2.36.28.36.36.36.45.36.54.37.65.36.76.36.89.36 1.03.37 1.18.36 1.34.36 1.51.36 1.68.36 1.86.37 2.04.36 2.22.36 2.38.36 2.54.36 2.68.37 2.79.36 2.89.36 2.95.36 2.98.36 2.98.37 2.95.36 2.88.36 2.79.36 2.67.37 2.52.36 2.35.36 2.17.36 1.99.36 1.78.37 1.6.36 1.4.36 1.23.36 1.06.36.91.37.76.36.65.36.55.36.46.36.38.37.33.36.27.36.24.36.2.36.16.37.14.36.1.36.07.36.02.37-.02.36-.08.36-.16.36-.25.36-.35.37-.48.36-.63.36-.81.36-1.02.36-1.25.37-1.52.36-1.81.36-2.12.36-2.46.36-2.8.37-3.13.36-3.47.36-3.75.36-4.01.37-4.2.36-4.31.36-4.35.36-4.29.36-4.14.37-3.92.36-3.63.36-3.26.36-2.87.36-2.46.37-2.05.36-1.65.36-1.3.36-.98.36-.71.37-.5.36-.34.36-.2.36-.12.37-.06.36-.03h.36l.36.01.36.02.37.03.36.03.36.04.36.04.36.06.37.07.36.08.36.1.36.12.36.12.37.12.36.11.36.12.36.14.36.21.37.3.36.41.36.49.36.52.37.47.36.42.36.46.36.62.36.64.37-.02.36-1.42.36 1.31"/><use xlink:href="#g" color="#FFAB00" transform="matrix(3.75 0 0 3.75 182.98 92.17)"/><use xlink:href="#g" color="#FFAB00" transform="matrix(3.75 0 0 3.75 220.55 22.51)"/></g><path fill="none" stroke="none" stroke-linecap="round" stroke-linejoin="round" stroke-width="0" d="M28 45.01V205M371.99 45.01H28" color="#000"/></svg>