<svg xmlns="http://www.w3.org/2000/svg" xmlns:xlink="http://www.w3.org/1999/xlink" viewBox="0 0 400 250"><path fill="none" d="M0 0h400v250H0z"/><defs><use xlink:href="#b" id="h" fill="currentColor" stroke="none"/><use xlink:href="#b" id="c" stroke="currentColor" transform="rotate(180)"/><use xlink:href="#d" id="e" stroke="currentColor" transform="rotate(45)"/><use xlink:href="#e" id="g" fill="currentColor" stroke="none"/><path id="d" stroke="currentColor" stroke-width=".267" d="M-1-1h2v2h-2z"/><path id="b" stroke="currentColor" stroke-width=".267" d="m0-1.33-1.33 2h2.66z"/><path id="f" stroke="currentColor" stroke-width=".267" d="M0 1.33 1.265.411.782-1.067l-1.564-.009-.483 1.487z"/><circle id="a" cx="0" cy="0" r="1" stroke="currentColor" stroke-width=".267"/></defs><path fill="none" stroke="#000" stroke-linecap="round" stroke-linejoin="round" stroke-width=".1" d="M35.48 205V45.01" class="gridline" color="#000"/><g fill="none" stroke="none" stroke-linecap="round" stroke-linejoin="round" stroke-width="0" color="#000"><path d="M35.48 205v-7.5m0-152.49v7.5"/><text fill="#000" font-family="KaTeX_Main" font-size="10" text-anchor="middle" transform="translate(35.48 215.75)"><tspan> 1</tspan></text></g><path fill="none" stroke="#000" stroke-linecap="round" stroke-linejoin="round" stroke-width=".1" d="M72.87 205V45.01" class="gridline" color="#000"/><g fill="none" stroke="none" stroke-linecap="round" stroke-linejoin="round" stroke-width="0" color="#000"><path d="M72.87 205v-7.5m0-152.49v7.5"/><text fill="#000" font-family="KaTeX_Main" font-size="10" text-anchor="middle" transform="translate(72.87 215.75)"><tspan> 2</tspan></text></g><path fill="none" stroke="#000" stroke-linecap="round" stroke-linejoin="round" stroke-width=".1" d="M110.26 205V45.01" class="gridline" color="#000"/><g fill="none" stroke="none" stroke-linecap="round" stroke-linejoin="round" stroke-width="0" color="#000"><path d="M110.26 205v-7.5m0-152.49v7.5"/><text fill="#000" font-family="KaTeX_Main" font-size="10" text-anchor="middle" transform="translate(110.26 215.75)"><tspan> 3</tspan></text></g><path fill="none" stroke="#000" stroke-linecap="round" stroke-linejoin="round" stroke-width=".1" d="M147.65 205V45.01" class="gridline" color="#000"/><g fill="none" stroke="none" stroke-linecap="round" stroke-linejoin="round" stroke-width="0" color="#000"><path d="M147.65 205v-7.5m0-152.49v7.5"/><text fill="#000" font-family="KaTeX_Main" font-size="10" text-anchor="middle" transform="translate(147.65 215.75)"><tspan> 4</tspan></text></g><path fill="none" stroke="#000" stroke-linecap="round" stroke-linejoin="round" stroke-width=".1" d="M185.04 205V45.01" class="gridline" color="#000"/><g fill="none" stroke="none" stroke-linecap="round" stroke-linejoin="round" stroke-width="0" color="#000"><path d="M185.04 205v-7.5m0-152.49v7.5"/><text fill="#000" font-family="KaTeX_Main" font-size="10" text-anchor="middle" transform="translate(185.04 215.75)"><tspan> 5</tspan></text></g><path fill="none" stroke="#000" stroke-linecap="round" stroke-linejoin="round" stroke-width=".1" d="M222.43 205V45.01" class="gridline" color="#000"/><g fill="none" stroke="none" stroke-linecap="round" stroke-linejoin="round" stroke-width="0" color="#000"><path d="M222.43 205v-7.5m0-152.49v7.5"/><text fill="#000" font-family="KaTeX_Main" font-size="10" text-anchor="middle" transform="translate(222.43 215.75)"><tspan> 6</tspan></text></g><path fill="none" stroke="#000" stroke-linecap="round" stroke-linejoin="round" stroke-width=".1" d="M259.82 205V45.01" class="gridline" color="#000"/><g fill="none" stroke="none" stroke-linecap="round" stroke-linejoin="round" stroke-width="0" color="#000"><path d="M259.82 205v-7.5m0-152.49v7.5"/><text fill="#000" font-family="KaTeX_Main" font-size="10" text-anchor="middle" transform="translate(259.82 215.75)"><tspan> 7</tspan></text></g><path fill="none" stroke="#000" stroke-linecap="round" stroke-linejoin="round" stroke-width=".1" d="M297.21 205V45.01" class="gridline" color="#000"/><g fill="none" stroke="none" stroke-linecap="round" stroke-linejoin="round" stroke-width="0" color="#000"><path d="M297.21 205v-7.5m0-152.49v7.5"/><text fill="#000" font-family="KaTeX_Main" font-size="10" text-anchor="middle" transform="translate(297.21 215.75)"><tspan> 8</tspan></text></g><path fill="none" stroke="#000" stroke-linecap="round" stroke-linejoin="round" stroke-width=".1" d="M334.6 205V45.01" class="gridline" color="#000"/><g fill="none" stroke="none" stroke-linecap="round" stroke-linejoin="round" stroke-width="0" color="#000"><path d="M334.6 205v-7.5m0-152.49v7.5"/><text fill="#000" font-family="KaTeX_Main" font-size="10" text-anchor="middle" transform="translate(334.6 215.75)"><tspan> 9</tspan></text></g><path fill="none" stroke="#000" stroke-linecap="round" stroke-linejoin="round" stroke-width=".1" d="M371.99 205V45.01" class="gridline" color="#000"/><g fill="none" stroke="none" stroke-linecap="round" stroke-linejoin="round" stroke-width="0" color="#000"><path d="M371.99 205v-7.5m0-152.49v7.5"/><text fill="#000" font-family="KaTeX_Main" font-size="10" text-anchor="middle" transform="translate(371.99 215.75)"><tspan> 10</tspan></text></g><g fill="none" stroke="none" stroke-linecap="round" stroke-linejoin="round" stroke-width="0" color="#000"><path d="M371.99 205h-7.5"/><text fill="#000" font-family="KaTeX_Main" font-size="10" transform="translate(378.99 208.25)"><tspan>1.10</tspan></text></g><g fill="none" stroke="none" stroke-linecap="round" stroke-linejoin="round" stroke-width="0" color="#000"><path d="M371.99 187.22h-7.5"/><text fill="#000" font-family="KaTeX_Main" font-size="10" transform="translate(378.99 190.47)"><tspan>1.20</tspan></text></g><g fill="none" stroke="none" stroke-linecap="round" stroke-linejoin="round" stroke-width="0" color="#000"><path d="M371.99 169.45h-7.5"/><text fill="#000" font-family="KaTeX_Main" font-size="10" transform="translate(378.99 172.7)"><tspan>1.30</tspan></text></g><g fill="none" stroke="none" stroke-linecap="round" stroke-linejoin="round" stroke-width="0" color="#000"><path d="M371.99 151.67h-7.5"/><text fill="#000" font-family="KaTeX_Main" font-size="10" transform="translate(378.99 154.92)"><tspan>1.40</tspan></text></g><g fill="none" stroke="none" stroke-linecap="round" stroke-linejoin="round" stroke-width="0" color="#000"><path d="M371.99 133.89h-7.5"/><text fill="#000" font-family="KaTeX_Main" font-size="10" transform="translate(378.99 137.14)"><tspan>1.50</tspan></text></g><g fill="none" stroke="none" stroke-linecap="round" stroke-linejoin="round" stroke-width="0" color="#000"><path d="M371.99 116.12h-7.5"/><text fill="#000" font-family="KaTeX_Main" font-size="10" transform="translate(378.99 119.37)"><tspan>1.60</tspan></text></g><g fill="none" stroke="none" stroke-linecap="round" stroke-linejoin="round" stroke-width="0" color="#000"><path d="M371.99 98.34h-7.5"/><text fill="#000" font-family="KaTeX_Main" font-size="10" transform="translate(378.99 101.59)"><tspan>1.70</tspan></text></g><g fill="none" stroke="none" stroke-linecap="round" stroke-linejoin="round" stroke-width="0" color="#000"><path d="M371.99 80.56h-7.5"/><text fill="#000" font-family="KaTeX_Main" font-size="10" transform="translate(378.99 83.81)"><tspan>1.80</tspan></text></g><g fill="none" stroke="none" stroke-linecap="round" stroke-linejoin="round" stroke-width="0" color="#000"><path d="M371.99 62.79h-7.5"/><text fill="#000" font-family="KaTeX_Main" font-size="10" transform="translate(378.99 66.04)"><tspan>1.90</tspan></text></g><g fill="none" stroke="none" stroke-linecap="round" stroke-linejoin="round" stroke-width="0" color="#000"><path d="M371.99 45.01h-7.5"/><text fill="#000" font-family="KaTeX_Main" font-size="10" transform="translate(378.99 48.26)"><tspan>2.00</tspan></text></g><path fill="none" stroke="none" stroke-linecap="round" stroke-linejoin="round" stroke-width="0" d="M28 45.01V205M371.99 45.01H28" color="#000"/><text fill="#000" stroke="none" stroke-linecap="round" stroke-linejoin="round" stroke-width="0" color="#000" font-family="KaTeX_Main" font-size="10" text-anchor="middle" transform="rotate(-90 68.255 56.755)"><tspan font-weight="bold">Maximum Path Length </tspan><tspan> / log</tspan><tspan dy="3" font-size="8">2</tspan><tspan dy="-3">(Size)</tspan></text><text fill="#000" stroke="none" stroke-linecap="round" stroke-linejoin="round" stroke-width="0" color="#000" font-family="KaTeX_Main" font-size="10" text-anchor="middle" transform="translate(199.99 238.25)"><tspan>Operations × 10</tspan><tspan dy="-5" font-size="8">5</tspan></text><text fill="#000" stroke="none" stroke-linecap="round" stroke-linejoin="round" color="#000" font-family="KaTeX_Main" font-size="8" transform="translate(132.8 10.11)"><tspan>LBSTBottomUp</tspan></text><g fill="none" stroke="currentColor" stroke-linecap="round" stroke-linejoin="round" color="#000"><path stroke="#3B75EA" d="M97.3 7.51h29.9m-99.2 187 .37-2.26.38.28.37 2.81.38-4.83.37.25.37 2.8.38-2.28.37-2.26.38.25.37 2.75.37-2.28.38.22.37.26.37.23.38.22.37-2.27.38-2.28.37 2.7.37.21.38.23.37.2.38.2.37-2.26.37 5.16.38-2.26.37-2.28.38 5.12.37-2.3.37.19.38 2.65.37-2.27.37.19.38.2.37.18.38.17.37.18.37.17.38.18.37 5.05.38.18.37-4.71.37.16.38-2.26.37.16.38 2.6.37-2.28.37.18.38.14.37 2.59.38 2.58.37.14.37.15.38.16.37-2.27.37.16.38.14.37.15.38.15.37-2.27.37.16.38-4.66.37 2.54.38.14.37.14.37.14.38.14.37.14.38.14.37.12.37.13.38-2.26.37-2.25.37 2.49.38.13.37.12.38-2.25.37.13.37 4.88.38.13.37-2.25.38.11.37 2.49.37.13.38.12.37.12.38-2.25.37-2.27.37 2.49.38-2.23.37.12.38 2.47.37.11.37.11.38.12.37.12.37.12.38.1.37-2.24.38-2.24.37 4.81.37.11.38-2.24.37 2.46.38-2.24.37-2.24.37.11.38.11.37-2.25.38 2.44.37.1.37 2.44.38.12.37.09.37-2.24.38.11.37.1.38.11.37-2.23.37 2.42.38-2.23.37 2.41.38.1.37.09.37.1.38-2.22.37.09.38.09.37-2.22.37 2.42.38.1.37 2.41.38 2.41.37.09.37.09.38-2.22.37.09.37 4.71.38-2.23.37.09.38-2.21.37-2.21.37.09.38.09.37.09.38 2.39.37.08.37.08.38.09.37-2.21.38 2.38.37-2.21.37.09.38.08.37.08.37.08.38.08.37-2.21.38-2.2.37 2.37.37.07.38-2.19.37.08.38 2.35.37 2.36.37.08.38.07.37.08.38-2.2.37 2.35.37.07.38-2.2.37.08.38.07.37.08.37.07.38.07.37.08.37.08.38.07.37.08.38.07.37.07.37.08.38.08.37.07.38.07.37.07.37-2.19.38.07.37.08.38 2.33.37-2.19.37 2.32.38.07.37.08.37.07.38-2.19.37.06.38.07.37.08.37.07.38 2.32.37.06.38-2.19.37 2.32.37.08.38.06.37.07.38.07.37.06.37.07.38.06.37.06.38.07.37.06.37.07.38.07.37.05.37.06.38.07.37.06.38-2.18.37.07.37.06.38 2.3.37-2.17.38-2.18.37 2.3.37-2.18.38.06.37 2.3.38-2.18.37.07.37 2.29.38.06.37.05.37.06.38-2.17.37.06.38 2.28.37.06.37.06.38.07.37.07.38.05.37.06.37 2.28.38.05.37.06.38-4.38.37 2.27.37-4.38.38.06.37.05.38.06.37.05.37.06.38-2.16.37.06.37.06.38.06.37.05.38.06.37.06.37.05.38.06.37 2.26.38-2.16.37 2.26.37.05.38.05.37 2.26.38.05.37.05.37.06.38.05.37-2.15.37 2.25.38.05.37.06.38.05.37.05.37.06.38-2.15.37.05.38.05.37 2.25.37.05.38.05.37.05.38.06.37.05.37-4.35.38-2.15.37.05.38.05.37.06.37.05.38.04.37.05.37.05.38.05.37-2.14.38.05.37.05.37 2.24.38.04.37 2.24.38.05.37-2.14.37-2.13.38 2.23.37 2.24.38.04.37.05.37-2.13.38 2.23.37.04.37.05.38.05.37.04.38.04.37-2.14.37-2.13.38.04.37.05.38.05.37.04.37.05.38.04.37 2.22.38-2.12.37.04.37 2.22.38-2.14.37.05.38.05.37.04.37.04.38 2.22.37 2.22.37-2.13.38.04.37 2.22.38 2.21.37.05.37.04.38 2.21.37-2.13.38-4.29.37.05.37.04.38.05.37.04.38 4.37.37-2.12.37 2.2.38.05.37-2.13.37.05.38 2.2.37-2.12.38-2.12.37.04.37 2.2.38.04.37.04.38.05.37-2.12.37.04.38-2.12.37.04.38-2.12.37 2.2.37.04.38 2.2.37.04.38.04.37.03.37 2.2.38.04.37.04.37.04.38-2.12.37-2.11.38-2.12.37 2.19.37 2.19.38.04.37-4.27.38.05.37.03.37.05.38 2.19.37.03.38.04.37.04.37.05.38.03.37.04.37.04.38.03.37.04.38.04.37.03.37.04.38.04.37.03.38.04.37.03.37-2.1.38.03.37 2.18.38 2.19.37.04.37.03.38.04.37-2.11.38.04.37-2.1.37.03.38.04.37 2.18.37.04.38.03.37.03.38.04.37-2.1.37.03.38.04.37.03.38.04.37-2.1.37.04.38.03.37 2.17.38.03.37.04.37.03.38.04.37.04.37 2.17.38.03.37.04.38.04.37.03.37.04.38-4.23.37 2.16.38 2.17.37.03.37.04.38.03.37.03.38-2.1.37.04.37.03.38.03.37.04.38.03.37.04.37-2.09.38 2.15.37.04.37-2.1.38 2.16.37.04.38.03.37.03.37.04.38-2.1.37-2.08.38.03.37.04.37.03.38 2.15.37.04.38.03.37.03.37.03.38.03.37.03.37.04.38.03.37.04.38.03.37 2.15.37.03.38.02.37.04.38.03.37.03.37.04.38.03.37 2.15.38.03.37.03.37.03.38.03.37-2.09.37.03.38.03.37.04.38.03.37.03.37.03.38.03.37.03.38.03.37.03.37.03.38.03.37.03.38.03.37.03.37.03.38.03.37.03.38.03.37.03.37-2.08.38.03.37.03.37.03.38.04.37.02.38.03.37.03.37.03.38-2.07.37.02.38.03.37 2.14.37.03.38.03.37-2.08.38.03.37.03.37.03.38.03.37.03.37.03.38.02.37.03.38.03.37.03.37 2.13.38.02.37.03.38.03.37.02.37.03.38.03.37.03.38.03.37.03.37.02.38-2.07.37.03.38.03.37.03.37 2.12.38 2.13.37.03.37.03.38.02.37.03.38.03.37-2.07.37.03.38.02.37.03.38.03.37.03.37-2.07.38.03.37.02.38.03.37.03.37.03.38.02.37 2.12.37.03.38.02.37.03.38.03.37.02.37.04.38.02.37-2.06.38.03.37.02.37.03.38.02.37.03.38.03.37.02.37.03.38.03.37.02.38.03.37.03.37.02.38.03.37.03.37.02.38.03.37.02.38.03.37.03.37.02.38.03.37.02.38.03.37.03.37.02.38.03.37.02.38.03.37.02.37.03.38-2.06.37 2.1.37.03.38.02.37.03.38-2.06.37.03.37 2.1.38-2.05.37.03.38.02.37 2.11.37.02.38.02.37.03.38.02.37.03.37.02.38.03.37.02.38.03.37.02.37.03.38.02.37.03.37.02.38-2.05.37.03.38.02.37.03.37.02.38.02.37.03.38.02.37.03.37.02.38.03.37.02.38.03.37.02.37.02.38.03.37.02.37.02.38.03.37.02.38.03.37.02.37.02.38.02.37.03.38.02.37.03.37.02.38-2.04.37.03.38.02.37.03.37.02.38.02.37.02.38.03.37.02.37.03.38.02.37.03.37.02.38.02.37.02.38.03.37.02.37.02.38.02.37-2.04.38 2.09.37.02.37.02.38.03.37.02.38.03.37.02.37.02.38.03.37.02.37.02.38.02.37.03.38.02.37.02.37.03.38.02.37.02.38.03.37.02.37.02.38.02.37 2.07.38.03.37.02.37.02.38.02.37.02.38-2.03.37.02.37.02.38.03.37.02.37.02.38.02.37.02.38.03.37.02.37.02.38.02.37.03.38.02.37.02.37.02.38.02.37.03.38.02.37.02.37.02.38.02.37.02.37.02.38.02.37.02.38.02.37.03.37.02.38.02.37.02.38.02.37.02.37-2.03.38.02.37.02.38.02.37.02.37.03.38.02.37.02.38 2.07.37.02.37.02.38 2.07.37.02.37.02.38.02.37.02.38-2.03.37 2.06.37 2.07.38.02.37.02.38.02.37.02.37.02.38.02.37.01.38.02.37.02.37.02.38.02.37.02.37.02.38.02.37.02.38.02.37.02.37.02.38-2.02.37.02.38.02.37.02.37.02.38.02.37.02.38.02.37.02.37.02.38.01.37-2.02.38.02.37.02.37.02.38.02.37.02.37.02.38.02.37.02.38-2.02.37.02.37.02.38.02.37.02.38.01.37.02.37.02.38.02.37.02.38.02.37.02.37-2.02.38 2.06.37.02.37.02.38-2.02.37.02.38.02.37.02.37.02.38.02.37.02.38.02.37.02.37.02.38.01.37.02.38.02.37.02.37-2.01.38 2.05.37.02.38.02.37 2.05.37.02.38.02.37.02.37.02.38.02.37.01.38.02.37.02.37.02.38.02.37.02.38.02.37.01.37.02.38.02.37.02.38.02.37.01.37-2.01.38.02.37.02.37 2.04.38.02.37.02.38.02.37.02.37 2.04.38-2.01.37.02.38.02.37.02.37.01.38.02.37.02.38.02.37.02.37.01.38.02.37.02.38.02.37.01.37.02.38.02.37 2.04.37 2.04.38.02.37-2 .38 2.04.37.01.37.02.38.02.37.02.38.02.37.01.37.02.38.02.37-2.01.38.02.37.02.37.02.38.01.37.02.37 2.04.38.02.37.02.38.01.37.02.37-2 .38.02.37.01.38.02.37 2.03"/><use xlink:href="#a" color="#3B75EA" transform="matrix(3.75 0 0 3.75 342.45 187.1)"/><use xlink:href="#a" color="#3B75EA" transform="matrix(3.75 0 0 3.75 112.25 7.51)"/></g><text fill="#000" stroke="none" stroke-linecap="round" stroke-linejoin="round" color="#000" font-family="KaTeX_Main" font-size="8" transform="translate(132.8 25.11)"><tspan>LBSTRelaxed</tspan></text><g fill="none" stroke="currentColor" stroke-linecap="round" stroke-linejoin="round" color="#000"><path stroke="violet" stroke-dasharray="4.5,2.0,0.5,2.0,0.5,2.0" d="M97.3 22.51h29.9M28 105.42l.37-9.8.38 15.59.37 5.41.38-7.24.37-4.68.37 2.83.38-14.8.37-7.23.38-2.15.37 15.41.37-2.21.38-4.67.37 5.35.37 7.83.38-9.69.37 2.79.38-19.59.37 15.24.37 5.3.38-4.7.37.33.38-17.08.37 22.64.37-4.64.38-21.99.37 22.53.38-9.56.37 34.78.37-12.06.38-24.35.37 2.73.37 15 .38-12.02.37 32.18.38-12.03.37-12 .37 12.5.38 10.05.37-24.21.38 24.66.37-26.59.37-2.2.38 19.72.37-7.04.38-4.63.37.24.37 5.07.38-2.19.37 2.65.38-7.04.37 5.07.37.23.38 12.34.37-11.87.37-9.45.38 9.86.37 2.62.38-14.25.37 2.63.37 29.05.38-4.61.37-11.78.38 17 .37-16.61.37 9.8.38-18.98.37 12.16.38 12.16.37-33.27.37 24.07.38-23.68.37 26.44.37-16.5.38 4.94.37 2.62.38 12.06.37 16.82.37-6.97.38-4.59.37.16.38 2.52.37-18.79.37-11.68.38 26.24.37-11.68.38-6.95.37 7.26.37 11.99.38-28.19.37 14.34.38 16.68.37-4.56.37-9.28.38-2.21.37-4.53.37-6.92.38 7.2.37-11.59.38 16.62.37-6.9.37.15.38-13.93.37 9.55.38 4.86.37-6.88.37 4.83.38-9.18.37-9.21.38 14.18.37-9.2.37 16.49.38-6.87.37-20.83.37 21.12.38-4.53.37 2.49.38 23.39.37-16.15.37 2.47.38-4.5.37 11.76.38-6.84.37 4.78.37 4.78.38-13.79.37 14.05.38 9.4.37-6.82.37-9.12.38 11.69.37-9.13.38-16.05.37.13.37-9.11.38 11.68.37-4.48.37.13.38-2.18.37 23.17.38.13.37-9.09.37-6.78.38.12.37 4.71.38 9.31.37-29.75.37 36.88.38-32.04.37 23.08.38-9.06.37.12.37 11.59.38-15.92.37.12.37 2.41.38 11.56.37 4.7.38 2.4.37-11.33.37 4.67.38 4.67.37-2.17.38-11.3.37 2.4.37-27.26.38 34.32.37-20.42.38 2.39.37-4.43.37 18.32.38-2.17.37 2.38.38 4.67.37-18.09.37.1.38 20.56.37-18.07.37 9.19.38-13.52.37 9.19.38-2.17.37-4.43.37-6.7.38-13.48.37 11.42.38 25.01.37-15.75.37-15.73.38 22.72.37-8.95.38-4.42.37 9.13.37.1.38-13.44.37 13.64.37-2.15.38 2.35.37-20.19.38 29.41.37-31.45.37-4.4.38 24.88.37-8.92.38 11.35.37-13.41.37 22.6.38-22.4.37 4.59.38 13.58.37-11.14.37-8.89.38 4.58.37 13.56.38-4.39.37-8.88.37-15.59.38 13.54.37 15.75.37-6.63.38 22.49.37-22.31.38 20.24.37-11.1.37 2.32.38 9.02.37-4.39.38-4.38.37-4.39.37 4.56.38-8.85.37 11.25.38-13.31.37 13.46.37-15.52.38 13.46.37-2.15.37 6.77.38-4.37.37 4.52.38-8.81.37.08.37 4.53.38-19.95.37-2.14.38 11.2.37-2.15.37-6.59.38-8.81.37 15.65.38 20.06.37-22.12.37 20.07.38-17.68.37-4.36.38 6.73.37-26.52.37 28.9.38 8.95.37-22.08.37 8.93.38.08.37 13.36.38-15.41.37-2.13.37 6.71.38-17.61.37 31.03.38-19.82.37 8.92.37-15.39.38-4.35.37 19.96.38-26.41.37.08.37 4.49.38 19.93.37-10.95.37 2.27.38-10.94.37 22.11.38-2.13.37-2.12.37 6.67.38-19.74.37-10.92.38-13.11.37 33.07.37-10.93.38 6.68.37 6.66.38-8.72.37-10.91.37 2.26.38 11.06.37 2.27.38 2.26.37-2.11.37 2.26.38-32.84.37 8.86.37 15.42.38-10.88.37 13.23.38-17.46.37 21.98.37-4.31.38 2.27.37-19.64.38 30.71.37 4.44.37-10.87.38-15.24.37-6.49.38 2.26.37 13.18.37-10.87.38-2.11.37 13.18.37-2.12.38-6.48.37 6.61.38-2.11.37 6.61.37-13.02.38 13.15.37-4.29.38-10.83.37-13 .37 15.32.38-4.3.37-10.82.38 15.31.37 17.48.37-6.46.38 10.95.37-23.87.38 21.82.37-23.86.37 4.42.38 2.24.37-4.28.37 13.1.38-21.65.37.07.38 13.09.37-4.26.37 17.42.38-8.62.37.06.38-10.77.37 8.73.37-12.94.38 13.07.37-12.93.38.06.37.07.37 8.74.38-21.59.37 45.49.37 15.21.38.06.37-2.11.38-10.76.37-17.24.37 17.35.38-10.75.37 10.87.38-2.11.37 6.54.37-15.07.38 4.38.37-2.1.38 4.37.37-15.05.37 21.64.38 8.68.37-23.68.38.05.37 6.53.37 8.69.38 2.2.37-17.19.37 6.52.38 8.67.37-10.72.38-2.09.37 2.2.37 4.36.38-12.86.37 10.81.38 17.27.37-10.7.37-12.85.38-4.25.37 10.81.38-8.55.37-2.09.37-4.25.38 4.35.37 17.25.37-12.83.38 4.35.37-12.83.38.05.37 4.35.37 6.5.38-2.1.37-14.97.38 6.49.37-4.24.37 2.2.38.06.37 10.77.38 4.35.37-2.1.37-2.08.38-6.37.37 8.62.38-6.38.37-17.07.37 12.9.38-6.37.37 2.19.37 12.9.38-4.23.37 8.61.38.05.37-14.92.37 2.19.38.06.37 4.32.38 2.19.37-2.08.37-17.03.38 8.59.37 12.87.38-21.3.37 12.85.37-2.09.38-8.48.37 32.05.37-23.41.38 17.11.37 2.18.38-21.28.37 17.11.37 2.17.38-12.73.37-14.86.38 14.96.37-6.34.37 2.17.38-6.34.37 4.32.38 2.17.37 2.18.37-16.97.38 4.3.37 14.94.38 12.81.37-19.09.37 4.3.38-8.45.37 21.3.37-6.33.38-8.45.37 8.54.38-12.7.37-6.32.37 19.16.38-12.7.37-12.68.38 23.39.37-16.93.37.05.38 10.66.37 8.52.38-2.07.37-6.31.37-2.07.38 2.17.37-8.44.37-4.18.38 12.76.37-4.19.38.04.37-14.77.37 10.63.38.05.37-12.65.38.04.37-2.07.37 2.17.38 21.2.37-6.3.38 6.4.37-8.42.37-10.52.38 16.96.37-4.19.37-16.85.38 16.95.37.04.38 12.72.37-23.19.37 10.61.38 4.27.37 14.82.38-4.18.37-10.5.37 4.25.38.05.37-2.07.38-16.82.37 10.59.37 4.26.38.04.37.05.38-12.61.37 14.8.37 14.79.38-27.35.37 14.79.37 8.46.38-6.27.37 8.47.38-6.27.37-6.27.37-6.27.38 8.45.37 2.15.38.05.37-4.16.37 23.15.38 2.15.37 4.24.38-23.09.37 6.35.37 14.75.38-4.17.37.04.37-6.26.38.04.37 14.74.38-16.77.37 10.54.37-20.95.38 23.13.37-16.75.38 6.33.37-10.45.37 18.92.38-2.07.37-8.35.38 10.53.37-25.12.37 6.33.38 4.23.37-10.44.38.04.37 4.23.37 12.61.38-2.06.37 2.13.37-4.16.38.04.37-10.43.38.04.37-4.15.37 10.51.38-4.15.37-10.42.38 16.78.37-12.51.37 20.95.38-6.24.37 10.49.38-10.41.37-25.06.37 18.86.38-14.59.37 4.21.37 4.22.38-6.23.37 4.22.38 23.01.37-16.67.37 10.48.38-18.75.37.04.38 6.29.37-12.48.37 2.13.38 10.46.37-10.39.38-8.31.37 16.72.37 4.21.38-4.14.37-6.21.38-4.13.37 14.63.37-6.22.38 18.8.37-27.06.37 16.7.38 22.96.37-4.13.38-6.22.37-16.63.37-4.12.38 14.61.37-27.04.38 16.69.37-4.12.37-4.13.38 16.68.37-20.77.38 4.19.37 12.53.37-20.77.38 22.91.37-14.52.37 16.68.38 4.19.37-26.99.38 22.9.37-20.74.37-2.04.38 10.43.37-2.05.38 2.12.37-10.35.37 2.11.38 14.57.37-12.42.38 10.42.37-10.35.37 4.19.38 10.41.37-12.42.38 6.26.37 4.19.37-6.19.38-14.49.37 2.11.37 8.33.38-10.33.37 2.11.38-6.18.37 33.19.37 4.18.38-8.26.37 4.17.38-14.47.37-20.68.37 4.18.38 6.25.37 16.6.38-20.67.37 12.46.37 4.17.38 16.59.37-35.15.37 10.38.38.04.37-2.03.38-14.45.37-2.03.37 18.65.38-12.37.37.03.38-10.29.37 4.17.37 33.11.38-10.31.37-10.3.38 10.37.37 4.17.37.03.38-2.04.37-10.29.38-6.16.37 10.36.37-6.16.38 6.22.37 12.43.37-33 .38 20.68.37.03.38 2.1.37 6.22.37-12.35.38 16.54.37-22.66.38 10.35.37-6.16.37 2.1.38 6.22.37-14.4.38 8.28.37-4.09.37 2.1.38-2.03.37 2.09.37-4.09.38.03.37 10.34.38-22.62.37 12.39.37-8.2.38.03.37 20.63.38-6.15.37-12.31.37-2.03.38 10.33.37-2.03.38 12.38.37-20.54.37 24.72.38-8.2.37-4.08.38-8.19.37 12.37.37-12.31.38.03.37-4.08.37-2.02.38 24.7.37-26.69.38 12.37.37 2.09.37-6.13.38 8.25.37 6.19.38 2.08.37.03.37-12.28.38 2.08.37 10.29.38-16.38.37-10.23.37 22.61.38-14.34.37.04.37 2.08.38 4.13.37-6.12.38-12.28.37 6.19.37 18.48.38 6.19.37-10.23.38 14.39.37-6.12.37-14.32.38-4.06.37 22.57.38-2.02.37-4.07.37 10.27.38.03.37-24.54.38 16.41.37 6.17.37 4.13.38-12.26.37.03.37-10.2.38.03.37-4.06.38 4.12.37 12.3.37 4.12.38 4.12.37-8.15.38 4.12.37-20.42.37 4.11.38 10.26.37 2.07.38 2.07.37-8.14.37 10.24.38-20.4.37.03.37 2.07.38 2.08.37 2.07.38 10.25.37-12.23.37 8.19.38-12.22.37 18.41.38-20.39.37 6.16.37 26.56.38-20.39.37-10.17.38.03.37 22.48.37 8.19.38-10.17.37-16.3.38 2.07.37-10.17.37 24.5.38 6.15.37-14.25.37-2.01.38 8.18.37 4.11.38 4.1.37-10.17.37.03.38 8.18.37-12.2.38-14.23.37-2.01.37 10.22.38-18.3.37 28.53.38 14.28.37-14.23.37 16.32.38-12.2.37-26.43.37 24.46.38 14.27.37-22.35.38-8.12.37 12.24.37 4.09.38-16.25.37.03.38 4.1.37-8.11.37 12.23.38-14.2.37 24.42.38-24.37.37.03.37 16.29.38-8.11.37-2 .38.03.37-2 .37 2.05.38 8.16.37-18.26.37 24.41.38 14.24.37-22.31.38-8.1.37 12.21.37 4.08.38 4.09.37-32.45.38 26.42.37 2.05.37-12.15.38-4.03.37 6.11.38 2.06.37-10.12.37 2.06.38 2.05.37 14.23.37-12.14.38 10.16.37-2 .38-2 .37 14.22.37 2.05.38-2 .37-20.24.38.02.37 12.19.37 4.07.38 14.21.37-40.49.38 6.1.37 28.39.37-8.08.38-10.1.37-2 .38 6.1.37-2 .37-16.17.38 26.35.37-6.05.37 8.12.38-2 .37-4.02.38-26.29.37 32.41.37-38.42.38 18.23.37-18.18.38 26.33.37 2.04.37 6.09.38-28.28.37 28.33.38 4.07.37-22.21.37.02.38 18.22.37-4.01.37 6.08.38-6.04.37-16.14.38 24.27.37-6.04.37-24.22.38 18.21.37-14.11.38-4.02.37 18.21"/><use xlink:href="#g" color="violet" transform="matrix(3.75 0 0 3.75 56.04 109.85)"/><use xlink:href="#g" color="violet" transform="matrix(3.75 0 0 3.75 112.25 22.51)"/></g><text fill="#000" stroke="none" stroke-linecap="round" stroke-linejoin="round" color="#000" font-family="KaTeX_Main" font-size="8" transform="translate(241.1 10.11)"><tspan>WBSTBottomUp</tspan></text><g fill="none" stroke="currentColor" stroke-linecap="round" stroke-linejoin="round" color="#000"><path stroke="#000" d="M205.6 7.51h29.9M28 156.1l.37-7.35.38-2.25.37 5.38.38 2.84.37-4.78.37-4.77.38.29.37-2.21.38-2.21.37 12.87.37 2.8.38-2.25.37 2.75.37-2.22.38-2.25.37-2.23.38-2.2.37 15.23.37-12.22.38.25.37-4.72.38-2.24.37 10.19.37-2.25.38 7.67.37-12.15.38-2.25.37-2.25.37 7.65.38-4.7.37 7.61.37-14.56.38 10.07.37-2.24.38.23.37-2.24.37 2.67.38 7.56.37-2.23.38 7.52.37-14.46.37-2.24.38 2.63.37 12.37.38-9.51.37-2.24.37 5.06.38 12.33.37-14.39.38 9.9.37-2.25.37-11.93.38.17.37 7.44.37.21.38 7.43.37-16.73.38 9.81.37.18.37 4.98.38.16.37-7.05.38-7.03.37 19.38.37-2.23.38-11.82.37-2.22.38 2.56.37.16.37 2.56.38 2.54.37-4.6.37 12.1.38-7.01.37-4.6.38-2.24.37 4.91.37-9.36.38 9.66.37-2.22.38-2.23.37-2.21.37 7.25.38 9.62.37-9.34.38-2.22.37 9.61.37-6.94.38 11.96.37-16.41.38 7.21.37-6.94.37 9.58.38-6.94.37 7.2.37-4.57.38-4.56.37.13.38 4.84.37-4.57.37 2.48.38-9.27.37-6.9.38 25.93.37-9.24.37 2.47.38-6.9.37 4.81.38 7.13.37-6.9.37 7.13.38-9.23.37-4.55.37 9.45.38.11.37-9.2.38.12.37 9.43.37-11.52.38 9.43.37-4.53.38-6.86.37 4.76.37.12.38 18.68.37-6.86.38-4.53.37.1.37-6.84.38 14 .37-9.14.38-4.52.37 4.74.37-4.52.38-11.44.37 11.66.37.12.38 7.02.37-9.12.38 4.73.37 2.4.37-4.5.38.1.37-2.19.38.1.37 13.89.37-9.09.38 7 .37-9.09.38 9.3.37-6.79.37.1.38-4.5.37 2.39.37.11.38 2.38.37.1.38-11.35.37 9.25.37-2.18.38 4.67.37-4.47.38.1.37-2.18.37 4.66.38 6.94.37-4.46.38-2.19.37 6.93.37-9.03.38 11.48.37-6.74.38 2.36.37-6.74.37 6.91.38-2.19.37.08.37 4.63.38-4.46.37-6.73.38 9.16.37-2.18.37-15.78.38 6.89.37 2.35.38 4.61.37 2.35.37-15.77.38 11.41.37 4.6.38-2.17.37.08.37-2.18.38-6.7.37 6.86.37 2.34.38-15.72.37 11.37.38-2.17.37-6.69.37 9.1.38 2.34.37-11.19.38 9.1.37-6.68.37-4.42.38-2.17.37 20.32.38-2.17.37-4.42.37-4.41.38 6.82.37 4.57.38-8.9.37 9.05.37-6.66.38 2.32.37.08.37 2.31.38-8.88.37-2.16.38 9.03.37-6.64.37 15.74.38-22.3.37 11.25.38-8.87.37 15.72.37-8.87.38-4.4.37 2.3.38-6.62.37 6.77.37 6.76.38-2.16.37 6.76.37-17.77.38 11.21.37-4.38.38 6.75.37-2.16.37-8.83.38-2.16.37 11.2.38-15.5.37 4.52.37 11.18.38-17.71.37 17.85.38.06.37-2.16.37 4.51.38-2.15.37 4.5.38.06.37-2.15.37-8.81.38-4.36.37-6.57.37 20 .38.06.37-2.14.38-11 .37 17.76.37-4.36.38.06.37-6.57.38 2.27.37 2.27.37-2.15.38 2.28.37 4.48.38-6.57.37.06.37-2.14.38.06.37 2.27.37-2.15.38-2.14.37 4.47.38.06.37-8.75.37 2.26.38 2.27.37 4.46.38-10.95.37 4.46.37 2.25.38-2.14.37-4.34.38 11.06.37-2.14.37 4.45.38-6.53.37.06.38 4.45.37-2.14.37-8.72.38-2.13.37 8.82.37-2.13.38.06.37.06.38-6.51.37-2.13.37 8.82.38.06.37-8.7.38-2.13.37 13.19.37 2.24.38-4.31.37 2.23.38-4.31.37 10.98.37-19.61.38 4.43.37.06.37 2.25.38-4.31.37 17.52.38-8.68.37-6.49.37-4.3.38 8.78.37 2.23.38-6.48.37.05.37-2.12.38 4.41.37 2.23.38 2.23.37 8.76.37-8.65.38 2.22.37-10.82.38 10.93.37.05.37.05.38 6.57.37 2.22.37-6.46.38-2.13.37.05.38.05.37-2.12.37 8.73.38-15.14.37-2.12.38 2.22.37.05.37 6.56.38-2.12.37 2.22.38-8.62.37 4.38.37.05.38 2.22.37-6.45.37 2.22.38-6.45.37 13.03.38-8.6.37.05.37 2.21.38-2.12.37 6.54.38-12.92.37 2.2.37 4.38.38-2.11.37 6.52.38-8.58.37 8.68.37-6.43.38.05.37 4.35.38 4.37.37-2.12.37-4.26.38 4.36.37-15.04.37 19.45.38-4.27.37-6.42.38.05.37.05.37 4.35.38 4.35.37-6.41.38 4.35.37-6.41.37 2.2.38 12.95.37-6.41.38 2.19.37-4.25.37-4.26.38 2.2.37-2.11.37-6.4.38 8.64.37-2.1.38 2.2.37-8.54.37 6.48.38-2.09.37.04.38-2.1.37 2.19.37.05.38.04.37.05.38 15.06.37-6.39.37-4.24.38 8.61.37-4.24.38 4.32.37.04.37-8.52.38 8.6.37-8.52.37-6.38.38 8.61.37 6.45.38-2.1.37 2.18.37-6.37.38 4.31.37 2.18.38-6.37.37.04.37-2.1.38 8.59.37-6.37.38 12.85.37-4.22.37-10.63.38 6.44.37-8.49.37 2.17.38-2.09.37 8.57.38-2.09.37.04.37.04.38-4.22.37.04.38 4.3.37-6.35.37 2.16.38-6.34.37 2.17.38-2.09.37 17.06.37-8.47.38-2.09.37 4.3.38-4.22.37 6.42.37-10.59.38 6.41.37-2.08.37.03.38 4.3.37-6.34.38 6.41.37-4.21.37.04.38 2.17.37-6.34.38.04.37-2.08.37-4.21.38 4.29.37 8.52.38-6.32.37 6.4.37 2.15.38-6.32.37 4.28.37.04.38-8.44.37-8.44.38 12.76.37-4.2.37 2.16.38-4.2.37.04.38 6.39.37-2.08.37-4.19.38.03.37 6.39.38 12.72.37-12.65.37-2.08.38.04.37 4.26.37 4.27.38-2.08.37-12.65.38 6.38.37.04.37 4.26.38-2.08.37.04.38.03.37-2.07.37 2.15.38.03.37.04.38-6.29.37 2.14.37 2.14.38 6.37.37 4.25.38-6.29.37-4.18.37.03.38 8.46.37-6.28.37-2.07.38 4.24.37-6.28.38 6.35.37-4.18.37-4.17.38.03.37 2.14.38 2.15.37 2.13.37-10.48.38 6.35.37 2.14.38.03.37 10.55.37-8.38.38 2.14.37-6.27.37 8.43.38-10.47.37 4.24.38-10.47.37 10.54.37 2.13.38-2.06.37-4.17.38-2.07.37 2.14.37-8.36.38.03.37 2.14.38 6.33.37-4.16.37 2.13.38-6.26.37 4.23.38.04.37.03.37 4.23.38-4.16.37-2.06.37-2.06.38 2.13.37-2.05.38 8.41.37-4.16.37 10.51.38-12.53.37-4.15.38 2.12.37 4.22.37-2.06.38-8.33.37 8.39.38 10.5.37 6.3.37-6.24.38 2.12.37 2.13.37-2.06.38-2.06.37-10.42.38 12.57.37-4.14.37 12.56.38-6.23.37 6.29.38-8.32.37.03.37 6.29.38-12.49.37-6.23.38 4.21.37.03.37 12.55.38 2.11.37-6.22.38-2.05.37.03.37 10.45.38-10.39.37.03.37 4.2.38-8.3.37.02.38 10.45.37-2.05.37 2.11.38-2.06.37-12.46.38 8.36.37-4.13.37 6.27.38-2.05.37 12.51.38-6.21.37-2.05.37-4.13.38 4.19.37.03.37-4.13.38 6.27.37.03.38-6.21.37-2.05.37 4.18.38 2.11.37-6.2.38 2.11.37 4.18.37.02.38-4.12.37 6.26.38-2.05.37 4.18.37-4.12.38-8.27.37 6.25.38.03.37 4.18.37-12.42.38 4.18.37.02.37-2.04.38.03.37-2.04.38 10.39.37-8.26.37 8.31.38-10.33.37 2.1.38 8.31.37-14.47.37.03.38 6.24.37 12.45.38-2.05.37-4.11.37 4.17.38-4.11.37-6.18.37 6.23.38.03.37.03.38-6.18.37 2.09.37 2.1.38 2.09.37-4.11.38-2.04.37-8.23.37 8.29.38 10.36.37-8.24.38-2.04.37-6.17.37 8.29.38.03.37-4.11.38 4.16.37.03.37 4.16.38-8.24.37 8.29.37-10.29.38 4.15.37 4.15.38-10.28.37 2.08.37 8.28.38-8.22.37 2.09.38-2.03.37.03.37-2.04.38-4.09.37 14.45.38-4.1.37-2.03.37 2.09.38 2.08.37-2.03.37-8.22.38 6.21.37 2.08.38.03.37-6.15.37 10.32.38-8.21.37 4.14.38.03.37-10.27.37 6.21.38 2.08.37 6.19.38-12.31.37 14.42.37-10.26.38 4.14.37-6.14.38 2.08.37 8.25.37 2.08.38-8.19.37 4.13.37-10.24.38 10.3.37-2.03.38-2.03.37.02.37 2.08.38-8.19.37 6.19.38 2.08.37.02.37.03.38 8.23.37-6.13.38 2.08.37-4.08.37-2.03.38 4.13.37-2.03.37 4.13.38-10.23.37 8.23.38-8.18.37 4.12.37-2.02.38-4.08.37 10.28.38-4.08.37 6.17.37-4.07.38-4.08.37.03.38 4.12.37-2.02.37-4.07.38 2.07.37 4.12.38-8.17.37 6.17.37-6.12.38 10.26.37-10.21.37 4.12.38 10.25.37-8.16.38.02.37 4.12.37-4.07.38-16.34.37 16.39.38-4.07.37-2.02.37-2.01.38-6.11.37 20.46.38-6.1.37-2.03.37 4.11.38-8.15.37 10.24.37-12.23.38-2.02.37 6.15.38-6.1.37 6.15.37.02.38-2.01.37 4.11.38 2.06.37-4.06.37-2.01.38-2.02.37.03.38-4.06.37 12.26.37-4.06.38-6.09.37 2.06.38 2.06.37 2.07.37-2.02.38.03.37 4.1.37 2.06.38.02.37-6.09.38-6.09.37 8.17.37.03.38.01.37 8.17.38-14.23.37 14.28.37-12.2.38-4.04.37 18.34.38-4.05.37-2.01.37.02.38-6.08.37 10.2.37.02.38-6.08.37-2.01.38 6.12.37-6.08.37-4.04.38 10.19.37-10.15.38 4.1.37-4.05.37-2.01.38 10.19.37-2.01.38-4.05.37-4.04.37 14.25.38-4.04.37-2.01.38 4.08.37-12.17.37 10.18.38 2.06.37-6.07.37.02.38-4.04.37-2.01.38 6.12.37.02.37 4.08.38-6.07.37.03.38-2.01.37 2.05.37 2.05.38-6.06.37 6.11.38 2.05.37.02.37.02.38-2.01.37-2 .37.02.38-6.06.37 6.11.38-2.01.37 8.13.37-4.03.38 8.13.37-10.11.38.03.37 4.07.37-6.05.38-6.06.37.02.38 8.13.37-2.01.37 2.05.38-6.05.37 18.24.38-6.05.37-14.15.37 4.07.38-4.03.37 12.17.37-6.05.38-2 .37 2.04.38-8.07.37 4.07.37-8.07.38 12.16.37-4.02.38 2.04.37-10.09.37 12.16.38 6.08.37 2.04.38.02.37 4.06.37 2.04.38-6.04.37.02.37-8.06.38 4.06.37-8.06.38 16.18.37-4.02.37 4.06.38-10.08.37 4.06.38 2.04.37-4.01"/><use xlink:href="#b" transform="matrix(3.75 0 0 3.75 113.62 154.81)"/><use xlink:href="#b" transform="matrix(3.75 0 0 3.75 220.55 7.51)"/></g><text fill="#000" stroke="none" stroke-linecap="round" stroke-linejoin="round" color="#000" font-family="KaTeX_Main" font-size="8" transform="translate(241.1 25.11)"><tspan>WBSTRelaxed</tspan></text><g fill="none" stroke="currentColor" stroke-linecap="round" stroke-linejoin="round" color="#000"><path stroke="#FFAB00" stroke-dasharray="4.0,2.0,1.0,2.0" d="M205.6 22.51h29.9M28 80.17l.37 18.21.38-9.74.37 7.95.38-7.23.37 7.96.37-7.2.38 7.92.37-12.23.38.33.37-4.69.37 2.85.38 7.84.37.36.37.31.38-9.65.37-9.68.38 40.23.37-34.59.37 47.62.38-17.13.37 10.24.38-22.07.37 7.73.37 5.27.38-19.5.37-14.56.38 15.13.37 20.04.37-14.53.38-4.69.37 19.97.37-7.15.38 5.17.37-14.48.38-7.11.37 17.4.37.25.38-21.8.37.26.38 5.13.37 17.33.37-9.52.38-9.52.37 5.12.38-9.5.37 5.14.37 12.41.38-11.91.37 9.92.38 24.44.37-14.35.37.21.38 21.99.37-36.07.37 12.32.38-9.46.37 2.63.38 7.44.37-2.23.37-14.22.38 17.06.37-9.41.38 12.22.37-23.81.37-7 .38 7.42.37 9.81.38 9.77.37-4.6.37 14.55.38-30.9.37 12.16.37 9.74.38-23.67.37 24.05.38 4.95.37-11.73.37-11.72.38-2.16.37 14.45.38-6.95.37-11.7.37 14.42.38-11.68.37 19.13.38-18.77.37 4.9.37 26.22.38-16.41.37-11.64.38 4.88.37 2.54.37-18.7.38-4.54.37 16.67.37 2.53.38-16.32.37-11.58.38 21.35.37.16.37-4.54.38 16.61.37-2.19.38-30.36.37 33.01.37-18.58.38-9.2.37 14.22.38.16.37-9.2.37 21.19.38-23.24.37 14.17.37-2.18.38 4.82.37-6.84.38 2.48.37-13.81.37 2.5.38 25.77.37-18.46.38-18.45.37 9.45.37 2.47.38 11.75.37 7.09.38-6.83.37-4.5.37.13.38.15.37-6.79.38-4.47.37 9.38.37 7.08.38-6.81.37-2.17.37-22.95.38 13.99.37 27.82.38-6.79.37-39.05.37 25.48.38-2.17.37.13.38 9.35.37 2.43.37 9.32.38-18.26.37 16.21.38-15.96.37 11.6.37-9.05.38-11.35.37 7.02.37-9.03.38 16.17.37 16.13.38.12.37-13.6.37 11.57.38-2.18.37 11.54.38-11.3.37-6.73.37 27.52.38-25 .37 9.26.38 4.66.37-6.72.37-4.46.38-11.27.37 9.21.38-6.7.37 2.37.37 6.93.38 13.74.37-13.54.37 2.4.38-8.97.37 9.19.38-2.18.37.11.37 2.38.38.1.37-4.42.38-4.42.37-2.16.37 11.41.38-13.47.37 4.62.38-6.68.37-8.94.37 9.15.38-4.41.37 2.38.37 9.14.38.1.37-11.17.38 11.38.37-15.67.37 15.87.38-8.91.37 6.86.38 2.36.37-6.65.37.1.38-6.65.37 18.09.38-13.4.37-13.37.37 18.08.38-8.88.37-11.13.38 4.59.37.1.37 20.3.38-8.88.37 2.35.37.09.38-2.16.37 13.53.38 2.33.37-6.62.37.07.38.09.37-11.1.38 9.04.37 2.33.37-11.09.38 4.56.37 13.49.38-8.85.37 2.31.37-8.84.38-4.37.37-2.13.37 20.16.38-15.51.37 4.55.38-11.05.37 2.31.37 6.77.38-4.35.37 2.32.38 6.76.37-22.14.37 20.1.38.09.37-4.37.38-17.68.37 6.75.37 15.62.38-22.1.37 8.96.38-11 .37 11.18.37 4.51.38-13.21.37 4.52.37 4.52.38.09.37.08.38.09.37.08.37-10.98.38 13.36.37-2.14.38-2.13.37.09.37 4.49.38-8.76.37 24.37.38-19.79.37 4.5.37-4.34.38 22.13.37-8.75.37-15.35.38 4.5.37 13.3.38-10.94.37-6.52.37 8.89.38.07.37-8.73.38 24.27.37 2.28.37.06.38-21.91.37 4.47.38.07.37-15.3.37 22.05.38-15.3.37 11.05.38-8.7.37-10.89.37 30.78.38 13.22.37-19.65.37 19.79.38-17.46.37 21.98.38-13.08.37-19.63.37 32.91.38-21.83.37 6.64.38-2.12.37 17.56.37-6.5.38-17.42.37-4.3.38 32.84.37-8.67.37-32.69.38 39.37.37-4.31.37-2.11.38-4.3.37 2.25.38-13.03.37-4.28.37.05.38 15.33.37.06.38-15.19.37-2.11.37 10.96.38-6.47.37 6.6.38-4.29.37 2.25.37-21.7.38 26.18.37-30.39.38 19.64.37-6.46.37 8.76.38-2.11.37-8.63.37 4.41.38 2.23.37 2.23.38-15.13.37 6.58.37-12.95.38 6.58.37 28.25.38-17.29.37 4.4.37-23.79.38 23.9.37-2.09.38 13.06.37-25.93.37 10.89.38 15.21.37-2.1.37-12.92.38 6.55.37-8.59.38-8.59.37 6.54.37 6.55.38-8.58.37 2.23.38 4.37.37 13.03.37-30.18.38 38.94.37-8.58.38-32.32.37 28.12.37-2.1.38 10.85.37-25.82.38 15.14.37 2.22.37-15.03.38 2.22.37 2.21.37 6.52.38-12.87.37 25.91.38-6.41.37 21.59.37-27.93.38 23.72.37-15.01.38-4.23.37 4.35.37 4.35.38 8.66.37-17.15.38 17.25.37-2.1.37-12.84.38 4.35.37-12.83.37 17.23.38-8.53.37-2.1.38-12.82.37.06.37 4.34.38.05.37-4.23.38 6.49.37-2.09.37-6.37.38 17.19.37-12.8.38-4.23.37 6.48.37-6.37.38.05.37 10.76.38 17.16.37-10.65.37-2.1.38 10.75.37-8.51.37 2.21.38.03.37 2.19.38.05.37-6.36.37 8.61.38 4.31.37-2.08.38-8.5.37-10.62.37.04.38-8.48.37 25.67.38-6.36.37 2.18.37-19.14.38 14.97.37-10.61.37 17.11.38-2.09.37-17.01.38-4.2.37 21.34.37-8.47.38.06.37.05.38-4.21.37 12.81.37-10.59.38 14.94.37-27.61.38 21.32.37-8.46.37-4.2.38-8.46.37 23.44.38-2.09.37-14.84.37.05.38.07.37 21.28.37-23.32.38 19.17.37-10.57.38 12.78.37-19.07.37-8.43.38 12.78.37 6.41.38 8.53.37-8.44.37-4.2.38 6.4.37-14.78.38 8.51.37-4.19.37-2.07.38 10.64.37-2.08.37-25.38.38 10.65.37 12.75.38-23.26.37 10.64.37-2.07.38 14.86.37 2.17.38 2.16.37-10.55.37 6.4.38-10.54.37 8.5.38 14.86.37-25.34.37 12.74.38-4.18.37 10.62.37-6.3.38 2.16.37-12.63.38 12.71.37-25.3.37 21.16.38-12.62.37.05.38-4.17.37 14.81.37 2.15.38-21.05.37 14.81.38 8.48.37-16.84.37 14.82.38 21.12.37-6.28.38-14.72.37 12.69.37 8.47.38 14.76.37-10.48.37-2.07.38 2.15.37-4.18.38-27.33.37 27.41.37-23.11.38 18.96.37.05.38-10.48.37 8.47.37-2.07.38-6.27.37 10.55.38-10.47.37 4.25.37 10.55.38-25.18.37 25.25.37-14.67.38 10.55.37-2.06.38-12.57.37 18.93.37-16.75.38-4.16.37 16.84.38.03.37-6.25.37.03.38 4.23.37-6.25.38-2.06.37-8.34.37 8.42.38.05.37-4.16.38 6.33.37-2.05.37.04.38.02.37-4.16.37-6.24.38 12.61.37 6.32.38-14.61.37 12.6.37 4.22.38-27.17.37 8.42.38-2.05.37-10.43.37 20.96.38-16.69.37 6.32.38 16.76.37 2.12.37-2.05.38-6.24.37-12.5.37.03.38 18.85.37-18.77.38 23.02.37-35.47.37 18.83.38-2.04.37.03.38 2.13.37-6.23.37-2.05.38 6.31.37-8.31.38 16.72.37-2.05.37 6.29.38 2.12.37-6.22.38-8.31.37 12.55.37-20.8.38 14.62.37 4.2.37 4.2.38-18.71.37-16.62.38 6.27.37 20.87.37-6.22.38-12.46.37.04.38 4.22.37 6.27.37-6.2.38-10.36.37 18.76.38-20.77.37 10.43.37 8.36.38 6.27.37-14.51.37-12.45.38 6.28.37 8.35.38-4.12.37-10.35.37 20.82.38-16.59.37 14.58.38 4.18.37-10.34.37.03.38 10.42.37-22.8.38.04.37 10.41.37.04.38 18.72.37-29.02.38-2.04.37 22.86.37-20.71.38 20.78.37-10.33.37 2.11.38-14.48.37 14.55.38-8.25.37.03.37 12.45.38-8.24.37 8.3.38-10.3.37 26.94.37-12.39.38-26.88.37 45.58.38-28.94.37 8.31.37 12.46.38.02.37-18.57.37-16.52.38 35.19.37 4.17.38-10.31.37-18.58.37-8.23.38 28.97.37-8.22.38-6.18.37-2.02.37-10.3.38 10.36.37 14.5.38-8.23.37-12.36.37-4.1.38 26.88.37-2.03.38-14.41.37 2.09.37-8.23.38 20.68.37 2.1.37-18.53.38 4.16.37-2.03.38-6.17.37 22.73.37-2.03.38-14.41.37 18.59.38-8.22.37-22.63.37-10.28.38 24.77.37-20.57.38 12.39.37-4.09.37 8.28.38-8.21.37 8.28.37-4.09.38-4.09.37 14.45.38-8.2.37-14.38.37 22.69.38-16.44.37 6.21.38-2.02.37-12.32.37 24.73.38-16.43.37.04.38 4.15.37 8.25.37-12.3.38 24.71.37-4.09.38-16.41.37 20.58.37-6.13.38-14.36.37 16.47.37-6.12.38 10.3.37-16.4.38 18.51.37-8.18.37-4.08.38 2.08.37-2.02.38 6.18.37-10.23.37.03.38-4.07.37 4.13.38 2.08.37-18.42.37 18.49.38 12.34.37-4.07.37-14.33.38 10.29.37 2.08.38-22.52.37 20.53.37.03.38 12.32.37.03.38-14.32.37-2.02.37 6.19.38-6.12.37.03.38 8.23.37 4.12.37-28.64.38 6.17.37.03.38.03.37 16.41.37-16.34.38-4.06.37 14.36.37-18.39.38 18.45.37-2.02.38-18.38.37 16.4.37.03.38 2.07.37-14.29.38 6.17.37-4.06.37 8.2.38.04.37 12.29.38-20.41.37-8.14.37 8.21.38-12.24.37 4.12.37 2.08.38 4.11.37 14.33.38 4.11.37-2.01.37-2.01.38 2.07.37-8.15.38 12.29.37 6.15.37-22.42.38 4.11.37 12.27.38-26.49.37 24.5.37-18.32.38 16.35.37-8.14.38 4.12.37 10.22.37-2.01.38 4.11.37-12.2.37 4.1.38-16.28.37 18.37.38 2.07.37-10.16.37 8.17.38-22.37.37 46.87.38-4.04.37-4.06.37-20.32.38 16.32.37 10.19.38-12.18.37-8.11.37-2.01.38 24.44.37-6.07.37-14.23.38 12.24.37-2 .38-14.22.37 20.37.37-8.11.38.02.37 2.06.38-22.33.37 10.18.37.03.38 16.29.37-6.07.38 6.12.37-4.04.37 6.12.38-26.38.37 16.27.38 10.19.37-24.34.37 20.33.38-12.16.37 8.14.37.03.38-4.04.37 6.12.38-12.15.37 8.15.37-2.01.38-4.03.37-12.15.38 2.06.37 16.26.37-8.09.38-8.09.37.03.38 8.14.37 2.05.37 4.08.38.03.37-2 .37-12.14.38 8.13.37-8.09.38 16.25.37-28.35.37 10.16.38 4.08.37 2.05.38-12.13.37 10.15.37-10.1.38 2.05.37-1.99.38 4.07.37 14.2.37.02.38 12.18.37-16.18.38 6.1.37-6.05.37 4.09.38 14.18.37-6.04.37-4.03.38-6.05.37-4.02.38 8.12.37-18.18.37 6.1.38-8.07.37 16.21.38-18.18.37 18.22.37-10.08.38 10.13.37.03.38 2.04.37-12.1.37 4.07.38 12.14.37-8.05.37.03.38-20.18.37 6.08.38-1.99.37 8.11.37 2.04.38-6.03.37-8.05.38 6.08.37-4.01"/><use xlink:href="#h" color="#FFAB00" transform="matrix(3.75 0 0 3.75 171.2 98.97)"/><use xlink:href="#h" color="#FFAB00" transform="matrix(3.75 0 0 3.75 220.55 22.51)"/></g><path fill="none" stroke="none" stroke-linecap="round" stroke-linejoin="round" stroke-width="0" d="M28 45.01V205M371.99 45.01H28" color="#000"/></svg>