<svg xmlns="http://www.w3.org/2000/svg" xmlns:xlink="http://www.w3.org/1999/xlink" viewBox="0 0 400 200"><path fill="none" d="M0 0h400v200H0z"/><defs><path id="c" stroke="currentColor" stroke-width=".267" d="M-1-1h2v2h-2z"/><path id="a" stroke="currentColor" stroke-width=".267" d="m0-1.33-1.33 2h2.66z"/><path id="f" stroke="currentColor" stroke-width=".267" d="M0 1.33 1.265.411.782-1.067l-1.564-.009-.483 1.487z"/><use xlink:href="#a" id="e" fill="currentColor" stroke="none"/><use xlink:href="#a" id="b" stroke="currentColor" transform="rotate(180)"/><use xlink:href="#b" id="d" fill="currentColor" stroke="none"/><circle id="g" cx="0" cy="0" r="1" stroke="currentColor" stroke-width=".267"/></defs><path fill="none" stroke="#000" stroke-dasharray="0.1,0.2" stroke-linecap="round" stroke-linejoin="round" stroke-width=".1" d="M35.48 155V45.01" class="gridline" color="#000"/><g fill="none" stroke-linecap="round" stroke-linejoin="round" stroke-width="0" color="#000"><path d="M35.48 155v-7.5m0-102.49v7.5"/><text fill="#000" font-family="KaTeX_Main" font-size="10" text-anchor="middle" transform="translate(35.48 165.75)"><tspan> 1</tspan></text></g><path fill="none" stroke="#000" stroke-dasharray="0.1,0.2" stroke-linecap="round" stroke-linejoin="round" stroke-width=".1" d="M72.87 155V45.01" class="gridline" color="#000"/><g fill="none" stroke-linecap="round" stroke-linejoin="round" stroke-width="0" color="#000"><path d="M72.87 155v-7.5m0-102.49v7.5"/><text fill="#000" font-family="KaTeX_Main" font-size="10" text-anchor="middle" transform="translate(72.87 165.75)"><tspan> 2</tspan></text></g><path fill="none" stroke="#000" stroke-dasharray="0.1,0.2" stroke-linecap="round" stroke-linejoin="round" stroke-width=".1" d="M110.26 155V45.01" class="gridline" color="#000"/><g fill="none" stroke-linecap="round" stroke-linejoin="round" stroke-width="0" color="#000"><path d="M110.26 155v-7.5m0-102.49v7.5"/><text fill="#000" font-family="KaTeX_Main" font-size="10" text-anchor="middle" transform="translate(110.26 165.75)"><tspan> 3</tspan></text></g><path fill="none" stroke="#000" stroke-dasharray="0.1,0.2" stroke-linecap="round" stroke-linejoin="round" stroke-width=".1" d="M147.65 155V45.01" class="gridline" color="#000"/><g fill="none" stroke-linecap="round" stroke-linejoin="round" stroke-width="0" color="#000"><path d="M147.65 155v-7.5m0-102.49v7.5"/><text fill="#000" font-family="KaTeX_Main" font-size="10" text-anchor="middle" transform="translate(147.65 165.75)"><tspan> 4</tspan></text></g><path fill="none" stroke="#000" stroke-dasharray="0.1,0.2" stroke-linecap="round" stroke-linejoin="round" stroke-width=".1" d="M185.04 155V45.01" class="gridline" color="#000"/><g fill="none" stroke-linecap="round" stroke-linejoin="round" stroke-width="0" color="#000"><path d="M185.04 155v-7.5m0-102.49v7.5"/><text fill="#000" font-family="KaTeX_Main" font-size="10" text-anchor="middle" transform="translate(185.04 165.75)"><tspan> 5</tspan></text></g><path fill="none" stroke="#000" stroke-dasharray="0.1,0.2" stroke-linecap="round" stroke-linejoin="round" stroke-width=".1" d="M222.43 155V45.01" class="gridline" color="#000"/><g fill="none" stroke-linecap="round" stroke-linejoin="round" stroke-width="0" color="#000"><path d="M222.43 155v-7.5m0-102.49v7.5"/><text fill="#000" font-family="KaTeX_Main" font-size="10" text-anchor="middle" transform="translate(222.43 165.75)"><tspan> 6</tspan></text></g><path fill="none" stroke="#000" stroke-dasharray="0.1,0.2" stroke-linecap="round" stroke-linejoin="round" stroke-width=".1" d="M259.82 155V45.01" class="gridline" color="#000"/><g fill="none" stroke-linecap="round" stroke-linejoin="round" stroke-width="0" color="#000"><path d="M259.82 155v-7.5m0-102.49v7.5"/><text fill="#000" font-family="KaTeX_Main" font-size="10" text-anchor="middle" transform="translate(259.82 165.75)"><tspan> 7</tspan></text></g><path fill="none" stroke="#000" stroke-dasharray="0.1,0.2" stroke-linecap="round" stroke-linejoin="round" stroke-width=".1" d="M297.21 155V45.01" class="gridline" color="#000"/><g fill="none" stroke-linecap="round" stroke-linejoin="round" stroke-width="0" color="#000"><path d="M297.21 155v-7.5m0-102.49v7.5"/><text fill="#000" font-family="KaTeX_Main" font-size="10" text-anchor="middle" transform="translate(297.21 165.75)"><tspan> 8</tspan></text></g><path fill="none" stroke="#000" stroke-dasharray="0.1,0.2" stroke-linecap="round" stroke-linejoin="round" stroke-width=".1" d="M334.6 155V45.01" class="gridline" color="#000"/><g fill="none" stroke-linecap="round" stroke-linejoin="round" stroke-width="0" color="#000"><path d="M334.6 155v-7.5m0-102.49v7.5"/><text fill="#000" font-family="KaTeX_Main" font-size="10" text-anchor="middle" transform="translate(334.6 165.75)"><tspan> 9</tspan></text></g><path fill="none" stroke="#000" stroke-dasharray="0.1,0.2" stroke-linecap="round" stroke-linejoin="round" stroke-width=".1" d="M371.99 155V45.01" class="gridline" color="#000"/><g fill="none" stroke-linecap="round" stroke-linejoin="round" stroke-width="0" color="#000"><path d="M371.99 155v-7.5m0-102.49v7.5"/><text fill="#000" font-family="KaTeX_Main" font-size="10" text-anchor="middle" transform="translate(371.99 165.75)"><tspan> 10</tspan></text></g><g fill="none" stroke-linecap="round" stroke-linejoin="round" stroke-width="0" color="#000"><path d="M371.99 155h-7.5"/><text fill="#000" font-family="KaTeX_Main" font-size="10" transform="translate(378.99 158.25)"><tspan>8</tspan></text></g><g fill="none" stroke-linecap="round" stroke-linejoin="round" stroke-width="0" color="#000"><path d="M371.99 136.67h-7.5"/><text fill="#000" font-family="KaTeX_Main" font-size="10" transform="translate(378.99 139.92)"><tspan>10</tspan></text></g><g fill="none" stroke-linecap="round" stroke-linejoin="round" stroke-width="0" color="#000"><path d="M371.99 118.34h-7.5"/><text fill="#000" font-family="KaTeX_Main" font-size="10" transform="translate(378.99 121.59)"><tspan>12</tspan></text></g><g fill="none" stroke-linecap="round" stroke-linejoin="round" stroke-width="0" color="#000"><path d="M371.99 100h-7.5"/><text fill="#000" font-family="KaTeX_Main" font-size="10" transform="translate(378.99 103.25)"><tspan>14</tspan></text></g><g fill="none" stroke-linecap="round" stroke-linejoin="round" stroke-width="0" color="#000"><path d="M371.99 81.67h-7.5"/><text fill="#000" font-family="KaTeX_Main" font-size="10" transform="translate(378.99 84.92)"><tspan>16</tspan></text></g><g fill="none" stroke-linecap="round" stroke-linejoin="round" stroke-width="0" color="#000"><path d="M371.99 63.34h-7.5"/><text fill="#000" font-family="KaTeX_Main" font-size="10" transform="translate(378.99 66.59)"><tspan>18</tspan></text></g><g fill="none" stroke-linecap="round" stroke-linejoin="round" stroke-width="0" color="#000"><path d="M371.99 45.01h-7.5"/><text fill="#000" font-family="KaTeX_Main" font-size="10" transform="translate(378.99 48.26)"><tspan>20</tspan></text></g><path fill="none" d="M28 45.01V155M371.99 45.01H28" color="#000"/><text stroke-linecap="round" stroke-linejoin="round" stroke-width="0" color="#000" font-family="KaTeX_Main" font-size="10" text-anchor="middle" transform="rotate(-90 55.755 44.255)"><tspan font-weight="bold">Duration </tspan><tspan> / Size</tspan></text><text stroke-linecap="round" stroke-linejoin="round" stroke-width="0" color="#000" font-family="KaTeX_Main" font-size="10" text-anchor="middle" transform="translate(199.99 188.25)"><tspan>Size × 10</tspan><tspan dy="-5" font-size="8">6</tspan></text><text stroke-linecap="round" stroke-linejoin="round" stroke-width=".5" color="#000" font-family="KaTeX_Main" font-size="10" transform="translate(112.25 12.64)"><tspan>Median</tspan></text><g fill="none" stroke="currentColor" stroke-linecap="round" stroke-linejoin="round" stroke-width=".5" color="#000"><path stroke="#000" d="M69.75 9.39h35.5M28 132.26l.13-.15.38-.39.37-.39.37-.39.37-.39.37-.38.37-.38.37-.38.37-.38.37-.38.37-.37.37-.36.37-.37.37-.36.37-.36.37-.35.37-.35.37-.34.37-.34.37-.33.38-.33.37-.32.37-.32.37-.32.37-.31.37-.3.37-.3.37-.29.37-.29.37-.28.37-.28.37-.27.37-.26.37-.26.37-.26.37-.25.37-.24.37-.24.38-.24.37-.23.37-.23.37-.22.37-.21.37-.22.37-.21.37-.2.37-.2.37-.2.37-.19.37-.19.37-.19.37-.18.37-.18.37-.18.37-.18.37-.17.37-.17.38-.17.37-.16.37-.17.37-.16.37-.16.37-.16.37-.16.37-.16.37-.15.37-.16.37-.15.37-.15.37-.15.37-.15.37-.15.37-.15.37-.15.37-.15.37-.15.38-.15.37-.14.37-.15.37-.15.37-.14.37-.15.37-.14.37-.15.37-.14.37-.15.37-.14.37-.14.37-.15.37-.14.37-.14.37-.14.37-.15.37-.14.37-.14.38-.14.37-.14.37-.13.37-.14.37-.14.37-.13.37-.14.37-.13.37-.14.37-.13.37-.13.37-.13.37-.13.37-.13.37-.12.37-.13.37-.12.37-.12.38-.12.37-.12.37-.12.37-.12.37-.11.37-.11.37-.11.37-.11.37-.11.37-.1.37-.1.37-.1.37-.1.37-.1.37-.09.37-.09.37-.09.37-.09.37-.09.38-.08.37-.08.37-.08.37-.07.37-.08.37-.07.37-.06.37-.07.37-.06.37-.06.37-.06.37-.05.37-.06.37-.04.37-.05.37-.05.37-.04.37-.04.37-.03.38-.04.37-.03.37-.03.37-.02.37-.02.37-.03.37-.01.37-.02.37-.01.37-.01.37-.01.37-.01h.37l.37-.01h.37l.37.01h.37l.37.01h.37l.38.01.37.02.37.01.37.01.37.02.37.02.37.02.37.02.37.02.37.02.37.02.37.03.37.02.37.03.37.03.37.02.37.03.37.03.38.03.37.02.37.03.37.03.37.03.37.02.37.03.37.03.37.02.37.03.37.02.37.02.37.03.37.02.37.02.37.02.37.01.37.02.37.02.38.01.37.01.37.01.37.01h.37l.37.01h1.48l.37-.01.37-.01.37-.01.37-.01.37-.02.37-.01.37-.02.37-.02.37-.03.38-.02.37-.03.37-.03.37-.03.37-.04.37-.04.37-.04.37-.04.37-.04.37-.05.37-.04.37-.05.37-.06.37-.05.37-.06.37-.05.37-.06.37-.07.37-.06.38-.06.37-.07.37-.07.37-.07.37-.07.37-.07.37-.07.37-.08.37-.07.37-.08.37-.08.37-.08.37-.08.37-.08.37-.08.37-.08.37-.08.37-.08.38-.08.37-.09.37-.08.37-.08.37-.09.37-.08.37-.08.37-.09.37-.08.37-.08.37-.09.37-.08.37-.08.37-.08.37-.08.37-.08.37-.08.37-.08.37-.08.38-.07.37-.08.37-.07.37-.08.37-.07.37-.07.37-.07.37-.07.37-.07.37-.07.37-.07.37-.06.37-.07.37-.06.37-.06.37-.06.37-.06.37-.06.37-.05.38-.06.37-.05.37-.05.37-.06.37-.05.37-.05.37-.04.37-.05.37-.04.37-.05.37-.04.37-.04.37-.04.37-.04.37-.04.37-.04.37-.03.37-.04.37-.03.38-.03.37-.03.37-.03.37-.03.37-.03.37-.03.37-.03.37-.02.37-.03.37-.02.37-.03.37-.02.37-.02.37-.02.37-.02.37-.02.37-.02.37-.02.38-.02.37-.02.37-.02.37-.01.37-.02.37-.02.37-.01.37-.02.37-.01.37-.02.37-.01.37-.02.37-.01.37-.01.37-.02.37-.01.37-.01.37-.01.37-.02.38-.01.37-.01.37-.01.37-.01.37-.01.37-.02.37-.01.37-.01.37-.01.37-.01.37-.01.37-.01.37-.01.37-.01.37-.01h.37l.37-.01.37-.01.37-.01.38-.01h.37l.37-.01.37-.01h.37l.37-.01.37-.01h.37l.37-.01h.74l.37-.01h3.34l.37.01h.37l.37.01h.37l.37.01.37.01.37.01.37.01.37.01.37.01.37.02.37.01.37.02.37.01.37.02.37.02.38.02.37.02.37.03.37.02.37.03.37.03.37.03.37.03.37.03.37.03.37.04.37.03.37.04.37.04.37.04.37.04.37.05.37.04.37.05.38.05.37.05.37.05.37.05.37.06.37.05.37.06.37.06.37.06.37.07.37.06.37.07.37.07.37.06.37.07.37.08.37.07.37.07.37.08.38.08.37.08.37.08.37.08.37.08.37.09.37.08.37.09.37.09.37.08.37.09.37.09.37.1.37.09.37.09.37.09.37.1.37.1.38.09.37.1.37.1.37.09.37.1.37.1.37.1.37.1.37.1.37.1.37.09.37.1.37.1.37.1.37.1.37.1.37.1.37.09.37.1.38.1.37.09.37.1.37.09.37.1.37.09.37.09.37.09.37.09.37.09.37.09.37.08.37.09.37.08.37.08.37.08.37.08.37.07.37.08.38.07.37.07.37.07.37.06.37.07.37.06.37.06.37.06.37.05.37.05.37.05.37.05.37.04.37.05.37.04.37.03.37.04.37.03.37.03.38.02.37.02.37.02.37.02.37.01.37.01.37.01h1.11l.37-.01.37-.01.37-.01.37-.01.37-.02.37-.03.37-.02.37-.03.38-.03.37-.04.37-.03.37-.05.37-.04.37-.05.37-.05.37-.05.37-.06.37-.06.37-.06.37-.07.37-.07.37-.07.37-.08.37-.08.37-.08.37-.08.37-.09.38-.09.37-.09.37-.09.37-.1.37-.1.37-.1.37-.1.37-.11.37-.11.37-.11.37-.11.37-.11.37-.12.37-.12.37-.12.37-.12.37-.12.37-.13.37-.12.38-.13.37-.13.37-.13.37-.13.37-.13.37-.13.37-.13.37-.13.37-.14.37-.13.37-.14.37-.13.37-.14.37-.13.37-.14.37-.13.37-.14.37-.14.37-.13.38-.13.37-.14.37-.13.37-.13.37-.14.37-.13.37-.13.37-.13.37-.12.37-.13.37-.13.37-.12.37-.12.37-.13.37-.12.37-.11.37-.12.37-.12.38-.11.37-.11.37-.11.37-.11.37-.11.37-.1.37-.11.37-.1.37-.1.37-.09.37-.1.37-.09.37-.09.37-.09.37-.08.37-.09.37-.08.37-.08.37-.07.38-.08.37-.07.37-.07.37-.07.37-.06.37-.07.37-.06.37-.06.37-.05.37-.06.37-.05.37-.05.37-.05.37-.05.37-.04.37-.04.37-.04.37-.04.37-.03.38-.04.37-.03.37-.03.37-.03.37-.02.37-.03.37-.02.37-.02.37-.02.37-.02.37-.01.37-.02.37-.01.37-.01.37-.01.37-.01.37-.01h.37l.37-.01h2.23l.37.01h.37l.37.01.37.01h.37l.37.01.37.01.37.01.37.01.37.02.37.01.37.01.38.02.37.01.37.02.37.01.37.02.37.02.37.02.37.02.37.01.37.02.37.02.37.02.37.03.37.02.37.02.37.02.37.02.37.03.37.02.38.02.37.03.37.02.37.03.37.02.37.02.37.03.37.03.37.02.37.03.37.02.37.03.37.03.37.02.37.03.37.03.37.02.37.03.37.03.38.03.37.03.37.02.37.03.37.03.37.03.37.03.37.02.37.03.37.03.37.03.37.03.37.02.37.03.37.03.37.03.37.03.37.02.38.03.37.03.37.03.37.02.37.03.37.03.37.02.37.03.37.02.37.03.37.02.37.03.37.02.37.03.37.02.37.03.37.02.37.02.37.02.38.02.37.02.37.02.37.02.37.02.37.02.37.02.37.02.37.01.37.02.37.02.37.01.37.01.37.02.37.01.37.01.37.01.37.01.37.01.38.01.37.01.37.01h.37l.37.01h.37l.37.01h2.22l.37-.01h.74l.37-.01.37-.01h.37l.38-.01.37-.01.37-.01.37-.01.37-.01.37-.02.37-.01.37-.01.37-.02.37-.01.37-.02.37-.02.37-.02.37-.02.37-.02.37-.02.37-.02.37-.02.38-.02.37-.03.37-.02.37-.03.37-.02.37-.03.37-.03.37-.02.37-.03.37-.03.37-.03.37-.03.37-.03.37-.03.37-.03.37-.03.37-.04.37-.03.37-.03.38-.04.37-.03.37-.03.37-.04.37-.03.37-.04.37-.03.37-.04.37-.03.37-.04.37-.04.37-.03.37-.04.37-.03.37-.04.37-.04.37-.03.37-.04.37-.04.38-.04.37-.03.37-.04.37-.04.37-.03.37-.04.37-.04.37-.03.37-.04.37-.03.37-.04.37-.04.37-.03.37-.04.37-.03.37-.04.37-.03.37-.04.37-.03.38-.03.37-.04.37-.03.37-.03.37-.04.37-.03.37-.03.37-.03.37-.03.37-.03.37-.03.37-.03.37-.02.37-.03.37-.03.37-.02.37-.03.37-.02.38-.02.37-.02.37-.03.37-.02.37-.01.37-.02.37-.02.37-.02.37-.01.37-.02.37-.01.37-.01.37-.01.37-.01.37-.01.37-.01.37-.01h.37l.37-.01h.38l.37-.01h.37l.37-.01h2.22"/><use xlink:href="#d" transform="matrix(3.75 0 0 3.75 345.68 96.45)"/><use xlink:href="#d" transform="matrix(3.75 0 0 3.75 87.5 9.39)"/></g><text stroke-linecap="round" stroke-linejoin="round" color="#000" font-family="KaTeX_Main" font-size="10" transform="translate(112.25 31.39)"><tspan>Height</tspan></text><g fill="none" stroke="currentColor" stroke-linecap="round" stroke-linejoin="round" color="#000"><path stroke="#9F650D" stroke-dasharray="4.0,2.0,1.0,2.0" d="M69.75 28.14h35.5M28 131.71l.13-.1.38-.28.37-.28.37-.27.37-.28.37-.27.37-.27.37-.27.37-.26.37-.27.37-.26.37-.26.37-.25.37-.26.37-.25.37-.26.37-.25.37-.25.37-.24.37-.25.38-.24.37-.25.37-.24.37-.24.37-.23.37-.24.37-.23.37-.24.37-.23.37-.23.37-.23.37-.23.37-.23.37-.23.37-.22.37-.22.37-.23.37-.22.38-.22.37-.22.37-.22.37-.22.37-.22.37-.21.37-.22.37-.21.37-.21.37-.22.37-.21.37-.21.37-.2.37-.21.37-.21.37-.2.37-.21.37-.2.37-.2.38-.2.37-.2.37-.2.37-.2.37-.19.37-.2.37-.19.37-.19.37-.19.37-.19.37-.19.37-.18.37-.19.37-.18.37-.18.37-.18.37-.17.37-.18.37-.17.38-.17.37-.17.37-.17.37-.16.37-.17.37-.16.37-.16.37-.16.37-.15.37-.16.37-.15.37-.15.37-.15.37-.14.37-.15.37-.14.37-.14.37-.14.37-.14.38-.13.37-.13.37-.14.37-.12.37-.13.37-.13.37-.12.37-.12.37-.12.37-.12.37-.12.37-.11.37-.12.37-.11.37-.11.37-.11.37-.11.37-.11.38-.1.37-.11.37-.1.37-.1.37-.1.37-.1.37-.1.37-.09.37-.1.37-.1.37-.09.37-.09.37-.1.37-.09.37-.09.37-.09.37-.09.37-.09.37-.08.38-.09.37-.09.37-.09.37-.08.37-.09.37-.08.37-.09.37-.08.37-.08.37-.09.37-.08.37-.08.37-.09.37-.08.37-.08.37-.08.37-.08.37-.08.37-.08.38-.08.37-.09.37-.08.37-.08.37-.08.37-.08.37-.07.37-.08.37-.08.37-.08.37-.08.37-.08.37-.08.37-.08.37-.07.37-.08.37-.08.37-.08.37-.07.38-.08.37-.08.37-.08.37-.07.37-.08.37-.07.37-.08.37-.08.37-.07.37-.08.37-.07.37-.07.37-.08.37-.07.37-.08.37-.07.37-.07.37-.08.38-.07.37-.07.37-.07.37-.07.37-.07.37-.07.37-.07.37-.07.37-.07.37-.07.37-.07.37-.07.37-.06.37-.07.37-.07.37-.06.37-.07.37-.07.37-.06.38-.06.37-.07.37-.06.37-.06.37-.07.37-.06.37-.06.37-.06.37-.06.37-.06.37-.06.37-.05.37-.06.37-.06.37-.06.37-.05.37-.06.37-.05.37-.06.38-.05.37-.05.37-.05.37-.05.37-.06.37-.05.37-.04.37-.05.37-.05.37-.05.37-.05.37-.04.37-.05.37-.04.37-.04.37-.05.37-.04.37-.04.37-.04.38-.04.37-.04.37-.04.37-.04.37-.03.37-.04.37-.03.37-.04.37-.03.37-.03.37-.03.37-.03.37-.03.37-.03.37-.03.37-.03.37-.03.37-.02.38-.03.37-.02.37-.02.37-.02.37-.02.37-.02.37-.02.37-.02.37-.02.37-.02.37-.01.37-.01.37-.02.37-.01.37-.01.37-.01.37-.01.37-.01.37-.01.38-.01h.37l.37-.01h.74l.37-.01h1.48l.37.01h.74l.37.01.37.01h.37l.37.01.37.01.37.01.38.01.37.01.37.01.37.01.37.01.37.02.37.01.37.02.37.01.37.02.37.01.37.02.37.02.37.02.37.02.37.02.37.02.37.02.37.02.38.02.37.02.37.02.37.03.37.02.37.02.37.02.37.03.37.02.37.03.37.02.37.02.37.03.37.02.37.03.37.02.37.03.37.02.38.03.37.02.37.03.37.02.37.02.37.03.37.02.37.03.37.02.37.02.37.03.37.02.37.02.37.03.37.02.37.02.37.02.37.02.37.02.38.02.37.02.37.02.37.02.37.02.37.01.37.02.37.02.37.01.37.02.37.02.37.01.37.01.37.02.37.01.37.01.37.01.37.01.37.01.38.01.37.01.37.01.37.01h.37l.37.01h.37l.37.01h.37l.37.01h2.96l.38-.01h.37l.37-.01h.37l.37-.01h.37l.37-.01.37-.01.37-.01.37-.01.37-.01.37-.01.37-.01.37-.01.37-.01.37-.01.37-.02.37-.01.37-.02.38-.01.37-.02.37-.01.37-.02.37-.02.37-.02.37-.02.37-.02.37-.02.37-.02.37-.02.37-.02.37-.02.37-.02.37-.02.37-.03.37-.02.37-.02.37-.03.38-.02.37-.03.37-.02.37-.03.37-.02.37-.03.37-.03.37-.02.37-.03.37-.03.37-.03.37-.03.37-.02.37-.03.37-.03.37-.03.37-.03.37-.03.37-.03.38-.03.37-.03.37-.03.37-.03.37-.03.37-.03.37-.03.37-.03.37-.03.37-.03.37-.03.37-.03.37-.03.37-.03.37-.03.37-.03.37-.03.37-.04.38-.03.37-.03.37-.03.37-.03.37-.03.37-.03.37-.03.37-.03.37-.03.37-.03.37-.03.37-.03.37-.03.37-.03.37-.03.37-.03.37-.03.37-.03.37-.03.38-.03.37-.03.37-.03.37-.03.37-.03.37-.03.37-.03.37-.02.37-.03.37-.03.37-.03.37-.03.37-.03.37-.02.37-.03.37-.03.37-.03.37-.03.37-.03.38-.02.37-.03.37-.03.37-.03.37-.02.37-.03.37-.03.37-.03.37-.02.37-.03.37-.03.37-.03.37-.02.37-.03.37-.03.37-.02.37-.03.37-.03.37-.03.38-.02.37-.03.37-.03.37-.02.37-.03.37-.03.37-.03.37-.02.37-.03.37-.03.37-.03.37-.02.37-.03.37-.03.37-.03.37-.02.37-.03.37-.03.38-.03.37-.03.37-.02.37-.03.37-.03.37-.03.37-.02.37-.03.37-.03.37-.03.37-.03.37-.02.37-.03.37-.03.37-.03.37-.03.37-.02.37-.03.37-.03.38-.03.37-.02.37-.03.37-.03.37-.03.37-.02.37-.03.37-.03.37-.02.37-.03.37-.03.37-.02.37-.03.37-.03.37-.02.37-.03.37-.02.37-.03.37-.02.38-.03.37-.02.37-.03.37-.02.37-.03.37-.02.37-.02.37-.03.37-.02.37-.02.37-.02.37-.03.37-.02.37-.02.37-.02.37-.02.37-.02.37-.02.37-.02.38-.02.37-.02.37-.02.37-.01.37-.02.37-.02.37-.02.37-.01.37-.02.37-.02.37-.01.37-.02.37-.01.37-.02.37-.01.37-.01.37-.02.37-.01.38-.01.37-.02.37-.01.37-.01.37-.01.37-.01.37-.02.37-.01.37-.01.37-.01.37-.01.37-.01h.37l.37-.01.37-.01.37-.01.37-.01.37-.01h.37l.38-.01.37-.01.37-.01h.37l.37-.01.37-.01h.37l.37-.01h.37l.37-.01.37-.01h.37l.37-.01h.37l.37-.01h.74l.37-.01h.37l.38-.01h.74l.37-.01h.74l.37-.01h1.11l.37-.01h5.19l.37.01h.74l.37.01h.37l.37.01h.37l.37.01h.37l.37.01.37.01h.37l.38.01.37.01.37.01.37.01.37.01.37.01.37.01.37.02.37.01.37.01.37.02.37.01.37.02.37.02.37.01.37.02.37.02.37.02.37.02.38.03.37.02.37.02.37.03.37.02.37.03.37.02.37.03.37.03.37.03.37.03.37.03.37.03.37.03.37.04.37.03.37.03.37.04.37.04.38.03.37.04.37.04.37.04.37.04.37.04.37.04.37.04.37.04.37.04.37.05.37.04.37.05.37.04.37.04.37.05.37.04.37.05.38.05.37.04.37.05.37.04.37.05.37.05.37.04.37.05.37.05.37.04.37.05.37.04.37.05.37.04.37.05.37.04.37.05.37.04.37.05.38.04.37.04.37.04.37.05.37.04.37.04.37.04.37.04.37.04.37.04.37.03.37.04.37.04.37.03.37.04.37.03.37.04.37.03.37.03.38.03.37.03.37.03.37.03.37.03.37.03.37.03.37.03.37.02.37.03.37.02.37.03.37.02.37.03.37.02.37.02.37.03.37.02.37.02.38.02.37.02.37.02.37.02.37.02.37.02.37.02.37.02.37.02.37.02.37.02.37.02.37.02.37.01.37.02.37.02.37.02.37.02.38.02.37.01.37.02.37.02.37.02.37.02.37.01.37.02.37.02.37.02.37.02.37.01.37.02.37.02.37.02.37.01.37.02.37.02.37.02.38.02.37.01.37.02.37.02.37.02.37.01.37.02.37.02.37.02.37.01.37.02.37.02.37.01.37.02.37.02.37.01.37.02.37.02.37.01.38.02.37.01.37.02.37.01.37.02.37.01.37.01.37.02.37.01.37.01.37.02.37.01.37.01.37.01.37.01.37.01.37.01.37.01.37.01h.38l.37.01h.37l.37.01h.37l.37.01h1.85l.37-.01h.37l.37-.01.37-.01.37-.01.37-.01.37-.01.38-.02.37-.01.37-.02.37-.02.37-.02.37-.03.37-.02.37-.03.37-.03.37-.03.37-.03.37-.03.37-.03.37-.04.37-.03.37-.03.37-.04.37-.03.37-.03.38-.03.37-.03.37-.02.37-.03.37-.02.37-.01.37-.01.37-.01.37-.01.37-.01"/><use xlink:href="#b" color="#9F650D" transform="matrix(3.75 0 0 3.75 59.26 113.39)"/><use xlink:href="#b" color="#9F650D" transform="matrix(3.75 0 0 3.75 87.5 28.14)"/></g><text stroke-linecap="round" stroke-linejoin="round" color="#000" font-family="KaTeX_Main" font-size="10" transform="translate(203.75 12.64)"><tspan>Weight</tspan></text><g fill="none" stroke="currentColor" stroke-linecap="round" stroke-linejoin="round" color="#000"><path stroke="#3B75EA" d="M161.25 9.39h35.5M28 147.76l.13-.17.38-.47.37-.47.37-.47.37-.46.37-.46.37-.45.37-.45.37-.45.37-.44.37-.43.37-.43.37-.42.37-.42.37-.41.37-.41.37-.4.37-.39.37-.38.37-.38.38-.38.37-.37.37-.36.37-.35.37-.35.37-.34.37-.33.37-.33.37-.32.37-.31.37-.31.37-.3.37-.3.37-.29.37-.28.37-.28.37-.27.37-.26.38-.26.37-.25.37-.25.37-.24.37-.24.37-.23.37-.22.37-.22.37-.21.37-.21.37-.21.37-.2.37-.19.37-.19.37-.19.37-.18.37-.18.37-.17.37-.17.38-.16.37-.16.37-.16.37-.15.37-.15.37-.15.37-.14.37-.14.37-.13.37-.14.37-.13.37-.12.37-.13.37-.12.37-.11.37-.12.37-.11.37-.11.37-.11.38-.1.37-.11.37-.1.37-.09.37-.1.37-.09.37-.09.37-.09.37-.09.37-.09.37-.08.37-.08.37-.08.37-.08.37-.08.37-.07.37-.07.37-.08.37-.07.38-.07.37-.06.37-.07.37-.06.37-.07.37-.06.37-.06.37-.06.37-.05.37-.06.37-.06.37-.05.37-.05.37-.06.37-.05.37-.05.37-.04.37-.05.38-.05.37-.05.37-.04.37-.04.37-.05.37-.04.37-.04.37-.04.37-.04.37-.04.37-.04.37-.03.37-.04.37-.03.37-.04.37-.03.37-.04.37-.03.37-.03.38-.03.37-.03.37-.03.37-.03.37-.03.37-.03.37-.03.37-.02.37-.03.37-.02.37-.03.37-.02.37-.03.37-.02.37-.02.37-.03.37-.02.37-.02.37-.02.38-.02.37-.02.37-.02.37-.02.37-.02.37-.02.37-.01.37-.02.37-.02.37-.01.37-.02.37-.02.37-.01.37-.02.37-.01.37-.02.37-.01.37-.01.37-.02.38-.01.37-.01.37-.01.37-.02.37-.01.37-.01.37-.01.37-.01.37-.01.37-.01.37-.01.37-.01.37-.01.37-.01.37-.01.37-.01h.37l.37-.01.38-.01.37-.01h.37l.37-.01.37-.01h.37l.37-.01.37-.01h.37l.37-.01h.37l.37-.01h.74l.37-.01h.37l.37-.01h1.12l.37-.01h1.11l.37-.01h4.07l.37.01h1.12l.37.01h1.11l.37.01h.37l.37.01h.74l.37.01h.37l.37.01.37.01h.37l.37.01h.37l.37.01.38.01h.37l.37.01.37.01h.37l.37.01.37.01.37.01.37.01h.37l.37.01.37.01.37.01.37.01.37.01.37.01.37.01.37.01.38.01.37.01.37.01h.37l.37.01.37.01.37.01.37.01.37.01.37.01.37.01.37.01.37.01.37.01.37.01.37.01.37.01.37.01.37.01.38.01.37.01.37.01.37.01h.37l.37.01.37.01.37.01.37.01.37.01h.37l.37.01.37.01h.37l.37.01.37.01h.37l.37.01h.37l.38.01h.37l.37.01h.37l.37.01h.74l.37.01h1.48l.37.01h2.22l.38-.01h1.48l.37-.01h.74l.37-.01h.37l.37-.01h.37l.37-.01h.37l.37-.01h.37l.37-.01.37-.01h.38l.37-.01.37-.01.37-.01h.37l.37-.01.37-.01.37-.01.37-.01.37-.01h.37l.37-.01.37-.01.37-.01.37-.01.37-.01.37-.01.37-.01.37-.01.38-.01.37-.01.37-.01.37-.01.37-.01.37-.01.37-.02.37-.01.37-.01.37-.01.37-.01.37-.01.37-.01.37-.01.37-.01.37-.01.37-.01.37-.01.37-.01.38-.01.37-.01.37-.01.37-.01.37-.01.37-.01.37-.01.37-.01.37-.01.37-.01.37-.01.37-.01.37-.01.37-.01.37-.01.37-.01.37-.01.37-.01.38-.01h.37l.37-.01.37-.01.37-.01.37-.01h.37l.37-.01.37-.01.37-.01h.37l.37-.01.37-.01h.37l.37-.01.37-.01h.37l.37-.01.37-.01h.38l.37-.01h.37l.37-.01h.37l.37-.01.37-.01h.37l.37-.01h.74l.37-.01h.37l.37-.01h.37l.37-.01h.74l.37-.01h.38l.37-.01h.74l.37-.01h1.11l.37-.01h.74l.37-.01h1.11l.37-.01h1.11l.38-.01h1.48l.37-.01h1.48l.37-.01h2.22l.37-.01h2.6l.37-.01h3.33l.37-.01h6.67l.37-.01h4.08l.37.01h6.67l.37.01h3.34l.37.01h2.59l.37.01H236l.37.01h2.6l.37.01h2.59l.37.01h2.97l.37.01h3.33l.37.01h4.82l.37.01h7.04l.37.01h6.67l.37.01h4.45l.37.01h3.7l.37.01h3.34l.37.01h2.96l.37.01h2.97l.37.01h3.33l.37.01h4.82l.37.01h7.78l.37-.01H309l.37-.01h2.22l.37-.01h1.86l.37-.01h1.48l.37-.01h1.48l.37-.01h1.48l.37-.01h1.49l.37-.01h1.48l.37-.01h2.22l.37-.01h6.3l.37.01h1.86l.37.01h1.11l.37.01h1.11l.37.01h1.11l.37.01h.74l.37.01h1.12l.37.01h1.11l.37.01h1.48l.37.01h5.19l.37-.01h1.48l.37-.01h.74l.37-.01h.37l.37-.01h.75l.37-.01h.37l.37-.01h.37l.37-.01.37-.01h.37l.37-.01h.37l.37-.01.37-.01h.37l.37-.01.37-.01h.37l.37-.01.38-.01h.37l.37-.01.37-.01.37-.01h.37l.37-.01.37-.01.37-.01h.37l.37-.01.37-.01.37-.01.37-.01h.37l.37-.01.37-.01.37-.01.37-.01.38-.01.37-.01.37-.01.37-.01.37-.02.37-.01.37-.02.37-.02.37-.02.37-.02"/><use xlink:href="#e" color="#3B75EA" transform="matrix(3.75 0 0 3.75 116.69 122.66)"/><use xlink:href="#e" color="#3B75EA" transform="matrix(3.75 0 0 3.75 179 9.39)"/></g><text stroke-linecap="round" stroke-linejoin="round" color="#000" font-family="KaTeX_Main" font-size="10" transform="translate(203.75 31.39)"><tspan>Log</tspan></text><g fill="none" stroke="currentColor" stroke-linecap="round" stroke-linejoin="round" color="#000"><path stroke="#29C3F6" stroke-dasharray="4.5,2.0,0.5,2.0,0.5,2.0" d="M161.25 28.14h35.5M28 149.09l.13-.16.38-.46.37-.45.37-.45.37-.44.37-.44.37-.44.37-.44.37-.43.37-.42.37-.43.37-.41.37-.41.37-.41.37-.4.37-.4.37-.39.37-.38.37-.38.37-.38.38-.36.37-.36.37-.36.37-.35.37-.34.37-.34.37-.33.37-.33.37-.31.37-.32.37-.3.37-.31.37-.29.37-.29.37-.28.37-.28.37-.27.37-.27.38-.26.37-.25.37-.25.37-.24.37-.24.37-.23.37-.23.37-.22.37-.22.37-.21.37-.21.37-.21.37-.19.37-.2.37-.19.37-.18.37-.19.37-.17.37-.18.38-.17.37-.16.37-.16.37-.16.37-.16.37-.15.37-.15.37-.14.37-.14.37-.14.37-.14.37-.13.37-.13.37-.12.37-.13.37-.12.37-.12.37-.11.37-.12.38-.11.37-.11.37-.11.37-.1.37-.1.37-.1.37-.1.37-.1.37-.09.37-.09.37-.1.37-.08.37-.09.37-.09.37-.08.37-.08.37-.08.37-.08.37-.08.38-.08.37-.07.37-.07.37-.08.37-.07.37-.07.37-.06.37-.07.37-.07.37-.06.37-.06.37-.07.37-.06.37-.06.37-.06.37-.05.37-.06.37-.06.38-.05.37-.06.37-.05.37-.05.37-.05.37-.05.37-.05.37-.05.37-.05.37-.04.37-.05.37-.05.37-.04.37-.04.37-.05.37-.04.37-.04.37-.04.37-.04.38-.04.37-.04.37-.04.37-.04.37-.03.37-.04.37-.04.37-.03.37-.04.37-.03.37-.03.37-.04.37-.03.37-.03.37-.03.37-.03.37-.03.37-.03.37-.03.38-.03.37-.03.37-.03.37-.02.37-.03.37-.03.37-.02.37-.03.37-.02.37-.03.37-.02.37-.03.37-.02.37-.02.37-.03.37-.02.37-.02.37-.02.37-.02.38-.02.37-.02.37-.02.37-.02.37-.02.37-.02.37-.02.37-.02.37-.01.37-.02.37-.02.37-.02.37-.01.37-.02.37-.01.37-.02.37-.02.37-.01.38-.02.37-.01.37-.01.37-.02.37-.01.37-.02.37-.01.37-.01.37-.01.37-.02.37-.01.37-.01.37-.01.37-.02.37-.01.37-.01.37-.01.37-.01.37-.01.38-.01.37-.01.37-.01.37-.01.37-.01.37-.01.37-.01.37-.01.37-.01.37-.01.37-.01.37-.01h.37l.37-.01.37-.01.37-.01.37-.01.37-.01h.37l.38-.01.37-.01.37-.01.37-.01h.37l.37-.01.37-.01.37-.01h.37l.37-.01.37-.01.37-.01h.37l.37-.01.37-.01.37-.01h.37l.37-.01.37-.01h.38l.37-.01.37-.01.37-.01h.37l.37-.01.37-.01h.37l.37-.01.37-.01h.37l.37-.01.37-.01.37-.01h.37l.37-.01.37-.01h.37l.38-.01.37-.01h.37l.37-.01.37-.01h.37l.37-.01.37-.01.37-.01h.37l.37-.01.37-.01h.37l.37-.01.37-.01h.37l.37-.01.37-.01h.37l.38-.01.37-.01h.37l.37-.01.37-.01h.37l.37-.01h.37l.37-.01.37-.01h.37l.37-.01.37-.01h.37l.37-.01h.37l.37-.01.37-.01h.37l.38-.01h.37l.37-.01h.37l.37-.01h.37l.37-.01.37-.01h.37l.37-.01h.37l.37-.01h.37l.37-.01h.37l.37-.01h.74l.37-.01h.38l.37-.01h.37l.37-.01h.74l.37-.01h.37l.37-.01h.74l.37-.01h.37l.37-.01h.74l.37-.01h.75l.37-.01h.74l.37-.01h.74l.37-.01h.74l.37-.01h.74l.37-.01h.74l.37-.01h.74l.38-.01h.74l.37-.01h.74l.37-.01h.74l.37-.01h.37l.37-.01h.74l.37-.01h.74l.37-.01h.37l.38-.01h.74l.37-.01h.37l.37-.01h.37l.37-.01h.37l.37-.01h.37l.37-.01h.74l.37-.01h.37l.37-.01h.37l.38-.01h.37l.37-.01h.37l.37-.01h.37l.37-.01h.37l.37-.01h.37l.37-.01h.37l.37-.01h.37l.37-.01h.37l.37-.01h.37l.37-.01h.75l.37-.01h.37l.37-.01h.37l.37-.01h.74l.37-.01h.74l.37-.01h.74l.37-.01h.74l.37-.01h1.12l.37-.01h2.59l.37-.01h2.97l.37.01h2.22l.37.01h1.48l.37.01h.74l.37.01h.75l.37.01h.74l.37.01h.74l.37.01h.74l.37.01h.37l.37.01h.37l.37.01h.74l.37.01h.37l.38.01h.74l.37.01h.37l.37.01h.74l.37.01h.37l.37.01h.74l.37.01h.74l.37.01h.74l.38.01h1.11l.37.01h1.48l.37.01h2.59l.37.01h3.34l.37-.01h2.59l.37-.01h1.49l.37-.01h1.48l.37-.01h1.11l.37-.01h.74l.37-.01h1.11l.38-.01h.74l.37-.01h.74l.37-.01h.74l.37-.01h1.11l.37-.01h.74l.37-.01h1.12l.37-.01h.74l.37-.01h1.48l.37-.01h1.11l.37-.01h1.85l.38-.01h2.59l.37-.01h11.86l.37.01h14.45l.37-.01h2.22l.37-.01h1.48l.38-.01h1.48l.37-.01h.74l.37-.01h1.11l.37-.01h.74l.37-.01h.74l.37-.01h.75l.37-.01h.37l.37-.01h.74l.37-.01h.37l.37-.01h.74l.37-.01h.37l.37-.01h.74l.37-.01h.37l.38-.01h.37l.37-.01h.37l.37-.01h.74l.37-.01h.37l.37-.01h.37l.37-.01h.37l.37-.01h.74l.37-.01h.37l.38-.01h.37l.37-.01h.74l.37-.01h.37l.37-.01h.74l.37-.01h.37l.37-.01h.74l.37-.01h.74l.37-.01h.38l.37-.01h.74l.37-.01h.74l.37-.01h1.11l.37-.01h.74l.37-.01h.74l.37-.01h1.12l.37-.01h1.11l.37-.01h1.11l.37-.01h1.11l.37-.01h1.48l.38-.01h1.48l.37-.01h2.22l.37-.01h6.3l.37.01h1.48l.37.01h1.12l.37.01h.74l.37.01h.74l.37.01h.37l.37.01h.74l.37.01h.74l.37.01h.74l.38.01h.74l.37.01h.74l.37.01h5.56l.37-.01h1.11l.37-.01h.37l.37-.01h.74l.37-.01h.37l.37-.01h.37l.37-.01h.75l.37-.01h1.48l.37-.01h.37l.37.01h1.11l.37.01h.37l.37.01.37.01.37.01.37.01.37.01.38.01.37.01.37.01.37.01.37.01.37.01.37.01h.37l.37.01.37-.01"/><use xlink:href="#a" color="#29C3F6" transform="matrix(3.75 0 0 3.75 174.13 121.96)"/><use xlink:href="#a" color="#29C3F6" transform="matrix(3.75 0 0 3.75 179 28.14)"/></g><text stroke-linecap="round" stroke-linejoin="round" color="#000" font-family="KaTeX_Main" font-size="10" transform="translate(295.25 12.64)"><tspan>Cost</tspan></text><g fill="none" stroke="currentColor" stroke-linecap="round" stroke-linejoin="round" color="#000"><path stroke="#00C853" stroke-dasharray="2.5,4.0" d="M252.75 9.39h35.5M28 129.13l.13-.07.38-.17.37-.17.37-.17.37-.16.37-.15.37-.15.37-.15.37-.15.37-.14.37-.14.37-.13.37-.13.37-.13.37-.12.37-.12.37-.12.37-.11.37-.11.37-.11.38-.1.37-.1.37-.1.37-.1.37-.09.37-.09.37-.09.37-.09.37-.08.37-.09.37-.08.37-.08.37-.07.37-.08.37-.07.37-.07.37-.07.37-.07.38-.06.37-.07.37-.06.37-.07.37-.06.37-.06.37-.06.37-.06.37-.06.37-.06.37-.05.37-.06.37-.05.37-.06.37-.05.37-.06.37-.05.37-.05.37-.06.38-.05.37-.05.37-.05.37-.05.37-.05.37-.06.37-.05.37-.05.37-.05.37-.05.37-.05.37-.05.37-.05.37-.05.37-.05.37-.05.37-.05.37-.06.37-.05.38-.05.37-.05.37-.05.37-.05.37-.05.37-.06.37-.05.37-.05.37-.05.37-.05.37-.06.37-.05.37-.05.37-.06.37-.05.37-.05.37-.06.37-.05.37-.05.38-.06.37-.05.37-.06.37-.05.37-.06.37-.05.37-.06.37-.05.37-.06.37-.05.37-.06.37-.05.37-.06.37-.06.37-.05.37-.06.37-.05.37-.06.38-.06.37-.05.37-.06.37-.06.37-.06.37-.05.37-.06.37-.06.37-.05.37-.06.37-.06.37-.06.37-.05.37-.06.37-.06.37-.06.37-.05.37-.06.37-.06.38-.06.37-.05.37-.06.37-.06.37-.05.37-.06.37-.06.37-.05.37-.06.37-.06.37-.05.37-.06.37-.06.37-.05.37-.06.37-.05.37-.06.37-.05.37-.06.38-.05.37-.06.37-.05.37-.05.37-.06.37-.05.37-.05.37-.06.37-.05.37-.05.37-.05.37-.05.37-.06.37-.05.37-.05.37-.05.37-.05.37-.05.37-.04.38-.05.37-.05.37-.05.37-.05.37-.05.37-.04.37-.05.37-.05.37-.04.37-.05.37-.04.37-.05.37-.04.37-.05.37-.04.37-.04.37-.05.37-.04.38-.04.37-.05.37-.04.37-.04.37-.04.37-.04.37-.04.37-.05.37-.04.37-.04.37-.04.37-.04.37-.04.37-.04.37-.03.37-.04.37-.04.37-.04.37-.04.38-.04.37-.04.37-.03.37-.04.37-.04.37-.04.37-.03.37-.04.37-.04.37-.03.37-.04.37-.04.37-.03.37-.04.37-.04.37-.03.37-.04.37-.04.37-.03.38-.04.37-.03.37-.04.37-.03.37-.04.37-.03.37-.04.37-.03.37-.04.37-.03.37-.04.37-.03.37-.04.37-.03.37-.04.37-.03.37-.04.37-.03.37-.04.38-.03.37-.04.37-.03.37-.03.37-.04.37-.03.37-.04.37-.03.37-.03.37-.04.37-.03.37-.03.37-.04.37-.03.37-.03.37-.04.37-.03.37-.04.38-.03.37-.03.37-.04.37-.03.37-.03.37-.03.37-.04.37-.03.37-.03.37-.04.37-.03.37-.03.37-.04.37-.03.37-.03.37-.04.37-.03.37-.03.37-.03.38-.04.37-.03.37-.03.37-.04.37-.03.37-.03.37-.04.37-.03.37-.03.37-.04.37-.03.37-.04.37-.03.37-.03.37-.04.37-.03.37-.04.37-.03.37-.04.38-.03.37-.03.37-.04.37-.04.37-.03.37-.04.37-.03.37-.04.37-.03.37-.04.37-.04.37-.03.37-.04.37-.04.37-.04.37-.03.37-.04.37-.04.37-.04.38-.04.37-.04.37-.04.37-.04.37-.04.37-.04.37-.04.37-.04.37-.04.37-.04.37-.04.37-.05.37-.04.37-.04.37-.04.37-.05.37-.04.37-.04.38-.05.37-.04.37-.05.37-.04.37-.05.37-.04.37-.05.37-.05.37-.04.37-.05.37-.05.37-.05.37-.04.37-.05.37-.05.37-.05.37-.05.37-.05.37-.05.38-.05.37-.05.37-.05.37-.05.37-.05.37-.05.37-.05.37-.05.37-.05.37-.05.37-.05.37-.06.37-.05.37-.05.37-.05.37-.06.37-.05.37-.05.37-.05.38-.06.37-.05.37-.05.37-.06.37-.05.37-.05.37-.05.37-.06.37-.05.37-.05.37-.06.37-.05.37-.05.37-.05.37-.06.37-.05.37-.05.37-.05.38-.06.37-.05.37-.05.37-.05.37-.05.37-.06.37-.05.37-.05.37-.05.37-.05.37-.05.37-.05.37-.05.37-.05.37-.05.37-.05.37-.05.37-.04.37-.05.38-.05.37-.05.37-.04.37-.05.37-.05.37-.04.37-.05.37-.04.37-.05.37-.04.37-.05.37-.04.37-.05.37-.04.37-.04.37-.05.37-.04.37-.04.37-.04.38-.04.37-.04.37-.04.37-.04.37-.04.37-.04.37-.04.37-.04.37-.04.37-.04.37-.04.37-.04.37-.03.37-.04.37-.04.37-.03.37-.04.37-.04.37-.03.38-.04.37-.03.37-.04.37-.03.37-.04.37-.03.37-.04.37-.03.37-.04.37-.03.37-.04.37-.03.37-.03.37-.04.37-.03.37-.04.37-.03.37-.03.38-.04.37-.03.37-.03.37-.04.37-.03.37-.04.37-.03.37-.04.37-.03.37-.03.37-.04.37-.03.37-.04.37-.03.37-.04.37-.03.37-.04.37-.04.37-.03.38-.04.37-.04.37-.03.37-.04.37-.04.37-.04.37-.03.37-.04.37-.04.37-.04.37-.04.37-.04.37-.04.37-.04.37-.04.37-.04.37-.04.37-.04.37-.05.38-.04.37-.04.37-.04.37-.05.37-.04.37-.04.37-.05.37-.04.37-.05.37-.04.37-.05.37-.05.37-.04.37-.05.37-.05.37-.04.37-.05.37-.05.37-.05.38-.05.37-.05.37-.04.37-.05.37-.05.37-.05.37-.05.37-.05.37-.05.37-.05.37-.06.37-.05.37-.05.37-.05.37-.05.37-.05.37-.05.37-.06.38-.05.37-.05.37-.05.37-.05.37-.06.37-.05.37-.05.37-.05.37-.05.37-.06.37-.05.37-.05.37-.05.37-.05.37-.05.37-.06.37-.05.37-.05.37-.05.38-.05.37-.05.37-.05.37-.05.37-.05.37-.05.37-.05.37-.05.37-.04.37-.05.37-.05.37-.05.37-.04.37-.05.37-.05.37-.04.37-.05.37-.04.37-.05.38-.04.37-.04.37-.05.37-.04.37-.04.37-.04.37-.05.37-.04.37-.04.37-.04.37-.04.37-.03.37-.04.37-.04.37-.04.37-.03.37-.04.37-.03.37-.04.38-.03.37-.04.37-.03.37-.03.37-.03.37-.03.37-.04.37-.03.37-.03.37-.02.37-.03.37-.03.37-.03.37-.03.37-.02.37-.03.37-.02.37-.03.38-.02.37-.03.37-.02.37-.02.37-.02.37-.03.37-.02.37-.02.37-.02.37-.02.37-.02.37-.02.37-.02.37-.01.37-.02.37-.02.37-.02.37-.01.37-.02.38-.02.37-.01.37-.02.37-.01.37-.02.37-.01.37-.02.37-.01.37-.01.37-.02.37-.01.37-.01.37-.01.37-.02.37-.01.37-.01.37-.01.37-.01.37-.01.38-.01.37-.01.37-.02.37-.01.37-.01.37-.01.37-.01h.37l.37-.01.37-.01.37-.01.37-.01.37-.01.37-.01.37-.01.37-.01.37-.01h.37l.37-.01.38-.01.37-.01.37-.01h.37l.37-.01.37-.01.37-.01h.37l.37-.01.37-.01h.37l.37-.01.37-.01h.37l.37-.01.37-.01h.37l.37-.01h.38l.37-.01.37-.01h.37l.37-.01h.37l.37-.01.37-.01h.37l.37-.01h.37l.37-.01h.37l.37-.01h.37l.37-.01h.37l.37-.01h.37l.38-.01h.37l.37-.01h.74l.37-.01h.37l.37-.01h.37l.37-.01h.74l.37-.01h.37l.37-.01h.37l.37-.01h.74l.38-.01h.37l.37-.01h.37l.37-.01h.74l.37-.01h.37l.37-.01h.74l.37-.01h.37l.37-.01h.37l.37-.01h.75l.37-.01h.37l.37-.01h.74l.37-.01h.37l.37-.01h.74l.37-.01h.74l.37-.01h.74l.37-.01h.75l.37-.01h.74l.37-.01h1.11l.37-.01h1.11l.37-.01h1.85l.37-.01h1.86l.37-.01h2.59l.37-.01h1.85l.38-.01h1.48l.37-.01h.74l.37-.01h1.11l.37-.01h.37l.37-.01h.74l.37-.01h.38l.37-.01h.37l.37-.01h.37l.37-.01h.37l.37-.01h.37l.37-.01.37-.01h.37l.37-.01h.37l.37-.01.37-.01h.37l.37-.01.37-.01h.38l.37-.01h.37l.37-.01.37-.01h.37l.37-.01h.37l.37-.01h.37l.37-.01h.74l.37-.01h.74l.37-.01h3.71l.37.01h.74l.37.01h.37l.37.01h.37l.37.01h.37l.37.01.37.01h.38l.37.01.37.01h.37l.37.01.37.01.37.01h.37l.37.01.37.01.37.01h.37l.37.01.37.01.37.01h.37l.37.01.37.01.38.01.37.01.37.01.37.01.37.02.37.01.37.02.37.02.37.02.37.03.37.03.37.04.37.04.37.04.37.05.37.06.37.06.37.07.37.08.38.09.37.1.37.1.37.12.37.12.37.14.37.14.37.16.37.16.37.17"/><use xlink:href="#f" color="#00C853" transform="matrix(3.75 0 0 3.75 231.56 101.95)"/><use xlink:href="#f" color="#00C853" transform="matrix(3.75 0 0 3.75 270.5 9.39)"/></g><text stroke-linecap="round" stroke-linejoin="round" color="#000" font-family="KaTeX_Main" font-size="10" transform="translate(295.25 31.39)"><tspan>DSW</tspan></text><g fill="none" stroke="currentColor" stroke-linecap="round" stroke-linejoin="round" color="#000"><path stroke="violet" stroke-dasharray="1.0,2.0" d="M252.75 28.14h35.5M28 111.93l.13-.16.38-.44.37-.42.37-.42.37-.42.37-.4.37-.4.37-.39.37-.39.37-.37.37-.37.37-.36.37-.36.37-.35.37-.34.37-.33.37-.33.37-.33.37-.31.37-.31.38-.31.37-.29.37-.3.37-.28.37-.28.37-.28.37-.27.37-.26.37-.26.37-.25.37-.25.37-.24.37-.24.37-.23.37-.23.37-.22.37-.22.37-.21.38-.21.37-.2.37-.2.37-.2.37-.19.37-.18.37-.19.37-.18.37-.17.37-.17.37-.17.37-.16.37-.17.37-.15.37-.16.37-.15.37-.14.37-.15.37-.14.38-.14.37-.14.37-.13.37-.13.37-.13.37-.12.37-.13.37-.12.37-.12.37-.12.37-.11.37-.12.37-.11.37-.11.37-.11.37-.11.37-.1.37-.11.37-.1.38-.1.37-.11.37-.1.37-.1.37-.1.37-.09.37-.1.37-.1.37-.1.37-.09.37-.1.37-.09.37-.1.37-.09.37-.09.37-.1.37-.09.37-.09.37-.1.38-.09.37-.09.37-.09.37-.09.37-.1.37-.09.37-.09.37-.09.37-.09.37-.1.37-.09.37-.09.37-.09.37-.09.37-.09.37-.1.37-.09.37-.09.38-.09.37-.09.37-.09.37-.09.37-.09.37-.09.37-.09.37-.09.37-.09.37-.09.37-.09.37-.09.37-.09.37-.08.37-.09.37-.09.37-.08.37-.09.37-.09.38-.08.37-.08.37-.09.37-.08.37-.08.37-.09.37-.08.37-.08.37-.08.37-.07.37-.08.37-.08.37-.08.37-.07.37-.08.37-.07.37-.07.37-.08.37-.07.38-.07.37-.07.37-.07.37-.06.37-.07.37-.07.37-.06.37-.06.37-.07.37-.06.37-.06.37-.06.37-.06.37-.06.37-.05.37-.06.37-.06.37-.05.37-.05.38-.06.37-.05.37-.05.37-.05.37-.05.37-.05.37-.04.37-.05.37-.05.37-.04.37-.04.37-.05.37-.04.37-.04.37-.04.37-.04.37-.04.37-.04.38-.04.37-.03.37-.04.37-.04.37-.03.37-.03.37-.04.37-.03.37-.03.37-.04.37-.03.37-.03.37-.03.37-.03.37-.03.37-.02.37-.03.37-.03.37-.03.38-.02.37-.03.37-.03.37-.02.37-.03.37-.02.37-.02.37-.03.37-.02.37-.02.37-.03.37-.02.37-.02.37-.02.37-.03.37-.02.37-.02.37-.02.37-.02.38-.02.37-.02.37-.02.37-.02.37-.02.37-.02.37-.02.37-.02.37-.02.37-.02.37-.02.37-.02.37-.02.37-.02.37-.02.37-.01.37-.02.37-.02.37-.02.38-.02.37-.02.37-.02.37-.02.37-.02.37-.02.37-.02.37-.02.37-.02.37-.02.37-.02.37-.02.37-.02.37-.02.37-.02.37-.02.37-.02.37-.02.38-.03.37-.02.37-.02.37-.02.37-.03.37-.02.37-.02.37-.03.37-.02.37-.02.37-.03.37-.02.37-.03.37-.02.37-.03.37-.03.37-.02.37-.03.37-.03.38-.02.37-.03.37-.03.37-.03.37-.03.37-.03.37-.03.37-.03.37-.03.37-.03.37-.03.37-.03.37-.03.37-.03.37-.04.37-.03.37-.03.37-.03.37-.04.38-.03.37-.04.37-.03.37-.04.37-.03.37-.04.37-.04.37-.03.37-.04.37-.04.37-.03.37-.04.37-.04.37-.04.37-.04.37-.04.37-.04.37-.04.37-.03.38-.04.37-.04.37-.05.37-.04.37-.04.37-.04.37-.04.37-.04.37-.04.37-.04.37-.04.37-.05.37-.04.37-.04.37-.04.37-.05.37-.04.37-.04.38-.04.37-.04.37-.05.37-.04.37-.04.37-.04.37-.05.37-.04.37-.04.37-.04.37-.05.37-.04.37-.04.37-.04.37-.04.37-.05.37-.04.37-.04.37-.04.38-.04.37-.04.37-.04.37-.05.37-.04.37-.04.37-.04.37-.04.37-.04.37-.04.37-.03.37-.04.37-.04.37-.04.37-.04.37-.04.37-.03.37-.04.37-.04.38-.04.37-.03.37-.04.37-.03.37-.04.37-.03.37-.04.37-.03.37-.04.37-.03.37-.03.37-.04.37-.03.37-.03.37-.03.37-.04.37-.03.37-.03.38-.03.37-.03.37-.03.37-.03.37-.02.37-.03.37-.03.37-.03.37-.02.37-.03.37-.03.37-.02.37-.03.37-.02.37-.02.37-.03.37-.02.37-.02.37-.03.38-.02.37-.02.37-.02.37-.02.37-.02.37-.02.37-.02.37-.02.37-.02.37-.01.37-.02.37-.02.37-.01.37-.02.37-.01.37-.02.37-.01.37-.02.37-.01.38-.01.37-.01.37-.02.37-.01.37-.01.37-.01.37-.01.37-.01.37-.01h.37l.37-.01.37-.01.37-.01h.37l.37-.01.37-.01h.37l.37-.01h.37l.38-.01h.74l.37-.01h1.48l.37-.01h2.59l.37.01h1.49l.37.01h.74l.37.01h.74l.37.01h.74l.37.01h.37l.37.01h.37l.37.01h.37l.37.01h.38l.37.01h.37l.37.01h.37l.37.01h.37l.37.01.37.01h.37l.37.01h.37l.37.01h.37l.37.01.37.01h.37l.37.01h.37l.38.01h.37l.37.01h.37l.37.01h.37l.37.01h.37l.37.01h.37l.37.01h.37l.37.01h.37l.37.01h.37l.37.01h.37l.37.01h.75l.37.01h.37l.37.01h.74l.37.01h.74l.37.01h.74l.37.01h1.11l.37.01h1.49l.37.01h1.85l.37.01h5.93l.37-.01h1.85l.37-.01h1.11l.37-.01h.38l.37-.01h.74l.37-.01h.37l.37-.01h.37l.37-.01h.37l.37-.01.37-.01h.37l.37-.01.37-.01.37-.01h.37l.37-.01.37-.01.38-.01.37-.01.37-.01.37-.01.37-.01.37-.01.37-.01.37-.02.37-.01.37-.01.37-.02.37-.01.37-.01.37-.02.37-.01.37-.02.37-.02.37-.01.38-.02.37-.02.37-.02.37-.02.37-.02.37-.02.37-.02.37-.02.37-.03.37-.02.37-.02.37-.03.37-.02.37-.03.37-.02.37-.03.37-.03.37-.02.37-.03.38-.03.37-.03.37-.03.37-.03.37-.03.37-.04.37-.03.37-.03.37-.04.37-.03.37-.03.37-.04.37-.04.37-.03.37-.04.37-.03.37-.04.37-.04.37-.04.38-.04.37-.03.37-.04.37-.04.37-.04.37-.04.37-.04.37-.04.37-.04.37-.04.37-.04.37-.04.37-.04.37-.04.37-.04.37-.03.37-.04.37-.04.37-.04.38-.04.37-.04.37-.03.37-.04.37-.03.37-.04.37-.03.37-.04.37-.03.37-.03.37-.03.37-.04.37-.02.37-.03.37-.03.37-.03.37-.02.37-.03.38-.02.37-.03.37-.02.37-.02.37-.02.37-.01.37-.02.37-.02.37-.01.37-.01.37-.01.37-.01.37-.01.37-.01.37-.01h.37l.37-.01h1.86l.37.01h.37l.37.01.37.01.37.01.37.01.37.01.37.01.37.01.37.01.37.02.37.01.37.02.37.02.37.01.37.02.38.02.37.02.37.02.37.02.37.02.37.02.37.02.37.02.37.02.37.02.37.02.37.02.37.02.37.02.37.02.37.02.37.02.37.02.38.02.37.01.37.02.37.02.37.02.37.01.37.02.37.01.37.01.37.02.37.01.37.01.37.01.37.01.37.01h.37l.37.01.37.01h.37l.38.01h2.96l.37-.01h.37l.37-.01h.37l.37-.01.37-.01h.37l.37-.01.37-.01.37-.01.38-.01.37-.01.37-.01.37-.01.37-.01.37-.01.37-.01.37-.02.37-.01.37-.01.37-.02.37-.01.37-.01.37-.01.37-.02.37-.01.37-.02.37-.01.37-.01.38-.02.37-.01.37-.01.37-.02.37-.01.37-.01.37-.02.37-.01.37-.01.37-.02.37-.01.37-.01.37-.02.37-.01.37-.01.37-.01.37-.02.37-.01.38-.01.37-.01.37-.01.37-.02.37-.01.37-.01.37-.01.37-.01.37-.01.37-.02.37-.01.37-.01.37-.01.37-.01.37-.01.37-.01.37-.01.37-.01.37-.01.38-.01.37-.01.37-.01.37-.01.37-.01.37-.01h.37l.37-.01.37-.01.37-.01.37-.01.37-.01h.37l.37-.01.37-.01.37-.01h.37l.37-.01.37-.01.38-.01.37-.01h.37l.37-.01.37-.01.37-.01h.37l.37-.01.37-.01.37-.01.37-.01.37-.01.37-.01.37-.01.37-.01.37-.01.37-.01.37-.01.37-.01.38-.01.37-.01.37-.02.37-.01.37-.02.37-.01.37-.02.37-.01.37-.02.37-.01.37-.02.37-.02.37-.02.37-.02.37-.02.37-.01.37-.02.37-.02.38-.03.37-.02.37-.02.37-.02.37-.02.37-.03.37-.02.37-.03.37-.02.37-.03.37-.03.37-.03.37-.03.37-.03.37-.03.37-.04.37-.04.37-.03.37-.04.38-.04.37-.04.37-.04.37-.05.37-.03.37-.04.37-.03.37-.03.37-.02h.37"/><use xlink:href="#g" color="violet" transform="matrix(3.75 0 0 3.75 288.99 75.84)"/><use xlink:href="#g" color="violet" transform="matrix(3.75 0 0 3.75 270.5 28.14)"/></g><path fill="none" d="M28 45.01V155M371.99 45.01H28" color="#000"/></svg>