<svg xmlns="http://www.w3.org/2000/svg" xmlns:xlink="http://www.w3.org/1999/xlink" viewBox="0 0 400 250"><path fill="none" d="M0 0h400v250H0z"/><defs><path id="d" stroke="currentColor" stroke-width=".267" d="M-1 0h2M0-1v2"/><path id="e" stroke="currentColor" stroke-width=".267" d="m-1-1 2 2m0-2-2 2"/><path id="f" stroke="currentColor" stroke-width=".267" d="M-1 0h2M0-1v2m-1-2 2 2m-2 0 2-2"/><path id="b" stroke="currentColor" stroke-width=".267" d="M-1-1h2v2h-2z"/><path id="a" stroke="currentColor" stroke-width=".267" d="m0-1.33-1.33 2h2.66z"/><path id="c" stroke="currentColor" stroke-width=".267" d="M0 1.33 1.265.411.782-1.067l-1.564-.009-.483 1.487z"/></defs><path fill="none" stroke="#333" stroke-linecap="round" stroke-linejoin="round" stroke-width=".1" d="M46.1 205V45.01" class="gridline" color="#000"/><g fill="none" stroke-linecap="round" stroke-linejoin="round" stroke-width="0" color="#000"><path d="M46.1 205v-7.5m0-152.49v7.5"/><text fill="#000" font-family="KaTeX_Main" font-size="10" text-anchor="middle" transform="translate(46.1 215.75)"><tspan> 1</tspan></text></g><path fill="none" stroke="#333" stroke-linecap="round" stroke-linejoin="round" stroke-width=".1" d="M82.31 205V45.01" class="gridline" color="#000"/><g fill="none" stroke-linecap="round" stroke-linejoin="round" stroke-width="0" color="#000"><path d="M82.31 205v-7.5m0-152.49v7.5"/><text fill="#000" font-family="KaTeX_Main" font-size="10" text-anchor="middle" transform="translate(82.31 215.75)"><tspan> 2</tspan></text></g><path fill="none" stroke="#333" stroke-linecap="round" stroke-linejoin="round" stroke-width=".1" d="M118.52 205V45.01" class="gridline" color="#000"/><g fill="none" stroke-linecap="round" stroke-linejoin="round" stroke-width="0" color="#000"><path d="M118.52 205v-7.5m0-152.49v7.5"/><text fill="#000" font-family="KaTeX_Main" font-size="10" text-anchor="middle" transform="translate(118.52 215.75)"><tspan> 3</tspan></text></g><path fill="none" stroke="#333" stroke-linecap="round" stroke-linejoin="round" stroke-width=".1" d="M154.73 205V45.01" class="gridline" color="#000"/><g fill="none" stroke-linecap="round" stroke-linejoin="round" stroke-width="0" color="#000"><path d="M154.73 205v-7.5m0-152.49v7.5"/><text fill="#000" font-family="KaTeX_Main" font-size="10" text-anchor="middle" transform="translate(154.73 215.75)"><tspan> 4</tspan></text></g><path fill="none" stroke="#333" stroke-linecap="round" stroke-linejoin="round" stroke-width=".1" d="M190.94 205V45.01" class="gridline" color="#000"/><g fill="none" stroke-linecap="round" stroke-linejoin="round" stroke-width="0" color="#000"><path d="M190.94 205v-7.5m0-152.49v7.5"/><text fill="#000" font-family="KaTeX_Main" font-size="10" text-anchor="middle" transform="translate(190.94 215.75)"><tspan> 5</tspan></text></g><path fill="none" stroke="#333" stroke-linecap="round" stroke-linejoin="round" stroke-width=".1" d="M227.15 205V45.01" class="gridline" color="#000"/><g fill="none" stroke-linecap="round" stroke-linejoin="round" stroke-width="0" color="#000"><path d="M227.15 205v-7.5m0-152.49v7.5"/><text fill="#000" font-family="KaTeX_Main" font-size="10" text-anchor="middle" transform="translate(227.15 215.75)"><tspan> 6</tspan></text></g><path fill="none" stroke="#333" stroke-linecap="round" stroke-linejoin="round" stroke-width=".1" d="M263.36 205V45.01" class="gridline" color="#000"/><g fill="none" stroke-linecap="round" stroke-linejoin="round" stroke-width="0" color="#000"><path d="M263.36 205v-7.5m0-152.49v7.5"/><text fill="#000" font-family="KaTeX_Main" font-size="10" text-anchor="middle" transform="translate(263.36 215.75)"><tspan> 7</tspan></text></g><path fill="none" stroke="#333" stroke-linecap="round" stroke-linejoin="round" stroke-width=".1" d="M299.57 205V45.01" class="gridline" color="#000"/><g fill="none" stroke-linecap="round" stroke-linejoin="round" stroke-width="0" color="#000"><path d="M299.57 205v-7.5m0-152.49v7.5"/><text fill="#000" font-family="KaTeX_Main" font-size="10" text-anchor="middle" transform="translate(299.57 215.75)"><tspan> 8</tspan></text></g><path fill="none" stroke="#333" stroke-linecap="round" stroke-linejoin="round" stroke-width=".1" d="M335.78 205V45.01" class="gridline" color="#000"/><g fill="none" stroke-linecap="round" stroke-linejoin="round" stroke-width="0" color="#000"><path d="M335.78 205v-7.5m0-152.49v7.5"/><text fill="#000" font-family="KaTeX_Main" font-size="10" text-anchor="middle" transform="translate(335.78 215.75)"><tspan> 9</tspan></text></g><path fill="none" stroke="#333" stroke-linecap="round" stroke-linejoin="round" stroke-width=".1" d="M371.99 205V45.01" class="gridline" color="#000"/><g fill="none" stroke-linecap="round" stroke-linejoin="round" stroke-width="0" color="#000"><path d="M371.99 205v-7.5m0-152.49v7.5"/><text fill="#000" font-family="KaTeX_Main" font-size="10" text-anchor="middle" transform="translate(371.99 215.75)"><tspan> 10</tspan></text></g><g fill="none" stroke-linecap="round" stroke-linejoin="round" stroke-width="0" color="#000"><path d="M371.99 205h-7.5"/><text fill="#000" font-family="KaTeX_Main" font-size="10" transform="translate(378.99 208.25)"><tspan>0.00</tspan></text></g><g fill="none" stroke-linecap="round" stroke-linejoin="round" stroke-width="0" color="#000"><path d="M371.99 178.33h-7.5"/><text fill="#000" font-family="KaTeX_Main" font-size="10" transform="translate(378.99 181.58)"><tspan>0.05</tspan></text></g><g fill="none" stroke-linecap="round" stroke-linejoin="round" stroke-width="0" color="#000"><path d="M371.99 151.67h-7.5"/><text fill="#000" font-family="KaTeX_Main" font-size="10" transform="translate(378.99 154.92)"><tspan>0.10</tspan></text></g><g fill="none" stroke-linecap="round" stroke-linejoin="round" stroke-width="0" color="#000"><path d="M371.99 125h-7.5"/><text fill="#000" font-family="KaTeX_Main" font-size="10" transform="translate(378.99 128.25)"><tspan>0.15</tspan></text></g><g fill="none" stroke-linecap="round" stroke-linejoin="round" stroke-width="0" color="#000"><path d="M371.99 98.34h-7.5"/><text fill="#000" font-family="KaTeX_Main" font-size="10" transform="translate(378.99 101.59)"><tspan>0.20</tspan></text></g><g fill="none" stroke-linecap="round" stroke-linejoin="round" stroke-width="0" color="#000"><path d="M371.99 71.67h-7.5"/><text fill="#000" font-family="KaTeX_Main" font-size="10" transform="translate(378.99 74.92)"><tspan>0.25</tspan></text></g><g fill="none" stroke-linecap="round" stroke-linejoin="round" stroke-width="0" color="#000"><path d="M371.99 45.01h-7.5"/><text fill="#000" font-family="KaTeX_Main" font-size="10" transform="translate(378.99 48.26)"><tspan>0.30</tspan></text></g><path fill="none" d="M28 45.01V205M371.99 45.01H28" color="#000"/><text stroke-linecap="round" stroke-linejoin="round" stroke-width="0" color="#000" font-family="KaTeX_Main" font-size="10" text-anchor="middle" transform="rotate(-90 68.255 56.755)"><tspan font-weight="bold">Rotations</tspan><tspan> / Operation</tspan></text><text stroke-linecap="round" stroke-linejoin="round" stroke-width="0" color="#000" font-family="KaTeX_Main" font-size="10" text-anchor="middle" transform="translate(199.99 238.25)"><tspan>Operations × 10</tspan><tspan dy="-5" font-size="8">5</tspan></text><text stroke-linecap="round" stroke-linejoin="round" color="#000" font-family="KaTeX_Main" font-size="8" transform="translate(116 10.11)"><tspan>TreapTopDown</tspan></text><g fill="none" stroke="currentColor" stroke-linecap="round" stroke-linejoin="round" color="#000"><path stroke="#F44336" stroke-dasharray="4.5,2.0,0.5,2.0,0.5,2.0" d="M80.5 7.51h29.9M28 205h343.99"/><use xlink:href="#c" color="#F44336" transform="matrix(3.75 0 0 3.75 354.25 205)"/><use xlink:href="#c" color="#F44336" transform="matrix(3.75 0 0 3.75 95.45 7.51)"/></g><text stroke-linecap="round" stroke-linejoin="round" color="#000" font-family="KaTeX_Main" font-size="8" transform="translate(116 25.11)"><tspan>TreapFingerTree</tspan></text><g fill="none" stroke="currentColor" stroke-linecap="round" stroke-linejoin="round" color="#000"><path stroke="#3B75EA" d="M80.5 22.51h29.9M28 68.48l.36-2.24.36 1.7.37-3.73.36.21.36 2.99.36-1.6.36 1.39.37-.11.36-1.17.36-.32.36.96.37-1.28.36 2.98.36-1.7.36-.86.36-2.13.37 1.6.36.96.36 1.39.36-3.1.36.54.37 3.52.36-2.24.36-.11.36-.43.36 1.39.37-2.88.36 3.2.36-.43.36-2.66.36.32.37-.43.36 1.28.36 2.99.36-4.8.37 3.3h.36l.36-.1.36 2.34.36-2.56.37-.96.36 1.07.36 3.41.36-8.1.36 4.37.37.85.36-.64.36-1.6.36 1.07.36-1.49.37 2.56.36-.54.36 1.18.36.53.37-6.19.36 4.16.36 2.56.36-.42.36-4.7.37 4.06.36 1.7.36-1.06.36-1.71.36-1.49h.37l.36 3.3.36-3.94.36 1.17.36 1.71.37-3.31.36 3.2.36-3.52.36 1.17.37.64.36-.53.36 1.81.36-.85.36.43.37 2.24.36-.75.36.53.36-4.37.36-.75.37 4.38.36-1.18.36-3.3.36 5.33.36-1.71.37-.21.36-.21.36-2.24.36 2.34.36-1.81.37 1.71.36 2.02.36-2.56.36-.21.37-1.6.36 2.56.36.53.36-1.6.36 1.82.37-1.28.36-2.67.36 4.05.36-2.13.36 1.07.37-.43.36-.64.36.32.36 2.13.36-.42.37-1.5.36 2.14.36-3.74.36 5.12.37-1.28.36-1.06.36 1.49.36 1.71.36-4.16.37-.64.36 1.81.36-3.63.36 2.46.36 2.24.37-2.56.36 1.7.36-1.38.36-.86.36.32.37.43.36 2.03.36-3.63.36 2.24.36.85.37-1.92.36 3.42.36-2.14.36-1.49.37 2.88.36-1.71.36.75.36-2.35.36 1.5.37-.43.36.64.36-.43.36-.96.36-1.7.37.42.36 3.31.36-1.92.36.53h.36l.37.86.36-.64.36.32.36.74.37-1.49.36-1.92.36-1.39.36 4.27.36 1.17.37-.85.36-1.49.36.53.36.96.36-2.35.37-1.6.36 3.52.36.22.36.21.36-1.71.37-.42.36 1.28.36 2.24.36-1.18.36 1.18.37-4.7.36 2.99.36 1.49.36-2.13.37-.43.36.86.36-.43.36 2.24.36-2.88.37 1.92.36.53.36-1.81.36-.21.36 1.49.37-2.24.36.21.36-.96.36 1.5.36.42.37-.32.36 1.28.36-1.06.36.64.37-1.71.36-3.52.36 3.2.36 1.17.36-3.09.37 2.67.36-1.92.36 6.4.36-3.63.36 1.28.37-3.84h.36l.36.43.36-1.39.36 6.51.37-2.03.36-.21.36-4.27.36 2.35.37.21.36 2.24.36-1.49.36 2.45.36-3.09.37.74.36-.32.36.64.36.96.36-2.56.37 6.08.36-4.9.36-.11.36-3.52.36 5.12.37-1.07.36-1.81.36 1.07.36-1.07.36-.11.37 2.99.36-1.92.36.64.36 1.17.37-.64h.36l.36-1.81.36 2.67.36-1.18.37 2.56.36-.21.36-2.13.36.53.36-2.24.37 3.09.36-5.76.36 5.12.36-4.05.36 2.45.37-1.81.36 3.09.36-.74.36-.54.37-.21.36 1.17.36-1.81.36 3.84.36-2.35.37 2.78.36-3.74.36 2.99.36-1.07.36-1.92.37 1.71.36-5.23.36 6.62.36-1.92.36.85.37-1.6.36-.75.36 2.03.36-1.81.36.53.37.96.36-3.52.36 3.2.36.75.37-2.24.36 1.06.36.22.36.42.36-.74.37 1.49.36-2.24.36 5.65.36-3.3.36-1.5.37.54.36-1.92.36.64.36-2.67.36 7.04.37-4.91.36 2.56.36-3.41.36 1.81.37.64.36-.32.36-1.28.36 2.03.36-2.35.37 1.18.36-.11.36-1.07.36 2.67.36-2.99.37 2.14.36.64.36 1.6.36-2.99.36 3.73.37-5.22.36 3.73.36-1.71.36-.74.36 1.38.37.96.36-3.94.36.42.36 1.07.37-.85.36 1.28.36.42.36-3.09.36 2.67.37-.96.36 2.24.36-3.74.36 5.23.36-.75.37-3.41.36.11.36-.32.36 3.52.36-2.56.37-.22.36 1.07.36.32.36 1.92.37-4.27.36 2.78.36-.54.36-.64.36-3.3.37 6.5.36-4.16.36 3.74.36.64.36-4.38.37-.21.36-1.17.36 3.52.36-2.99.36 1.71.37.53.36.21.36-1.7.36 2.77.37-3.73.36 3.3.36-.53.36-.32.36.85.37-1.38.36-.64.36 1.49.36-.32.36.21.37 1.39.36.11.36-3.95.36 3.2.36-1.92.37.75.36 1.17.36-3.95.36 2.03.36.85.37 1.6.36-1.38.36-2.35.36 3.63.37.32.36-1.92.36-1.71.36 3.73.36-2.77.37 1.39.36-.64.36-1.07.36.53.36 2.78.37-.11.36-3.63.36 2.88.36.96.36-3.52.37-.1.36 2.24.36.32.36-2.88.37 2.13.36 2.13.36-5.01.36 2.77.36-2.56.37 2.56.36-1.17.36 3.09.36-2.56.36-.96.37 4.27.36-2.77.36 1.38.36-1.7.36-2.46.37 1.07.36 3.09.36-.85.36.11.36-2.56.37 4.58.36-3.84.36 2.78.36.42.37-2.13.36.53.36-1.38.36-1.71.36 5.12.37.64.36-.53.36-3.84.36 1.28.36-.54.37-2.66.36 1.7.36-1.38.36 3.2.36.42.37-2.13.36 2.45.36-.53.36-.96.37.96.36-.53.36.64.36-.54.36-.42.37.64.36.64.36-3.52.36 3.52.36-2.67.37 3.95.36-2.24.36-.11.36-.21.36 1.38.37-.85.36-1.49.36 2.98.36-3.84.37 1.07.36.64.36 1.39.36 1.6.36-2.88.37 2.45.36-3.52.36 2.77.36-4.37.36 2.88h.37l.36-.32.36 1.39.36-2.24.36 1.92.37-.22h.36l.36.43.36-.75.36 4.27.37-6.83.36 3.1.36-1.82.36.54.37.53.36 1.92.36-3.09.36 2.45.36 1.71.37-1.82.36-.74.36-2.24.36 1.6.36.85.37-.85.36-1.39.36 3.2.36-2.24.36-1.28.37 2.67.36-2.14.36 1.07.36 2.45.37-1.92.36-1.17.36-.11.36 4.16.36-2.45.37.75.36.53.36-1.07.36.32.36-2.88.37 3.95.36-1.49.36-1.71.36-2.35.36 4.16.37-1.17.36-.32.36-1.49.36.96.36.74.37 1.39.36-1.92h.36l.36 2.56.37-.85.36-.86.36 1.6.36.32.36-.32.37-2.98.36 3.09.36-2.88.36 4.16.36.11.37-.96.36-2.46.36-.53.36 1.28.36-.85.37 1.38.36-.1h.36l.36-2.46.37 2.88.36-1.6.36-2.34.36 3.94.36-4.05.37 3.52.36-2.03.36-.21.36.96.36 1.6.37-.85.36.32.36-2.03.36 2.99.36-1.92.37 1.49.36-2.99.36 2.99.36.32.36 1.17.37.43.36-2.45.36-.43.36-1.39.37-.21.36 2.24.36-.96.36 2.88.36-5.55.37 1.18.36 1.92h.36l.36-.96.36 5.44.37-3.31.36-1.92.36.21.36-1.7.36 5.65.37-3.52.36-.75.36-.21.36-1.49.37 3.09.36.11h.36l.36-.11.36-.32.37-1.07.36 1.18.36 2.98.36-4.9.36 4.05.37-2.03.36-3.41.36 2.03.36 2.88.36-1.39.37-3.52.36.43.36 3.41.36 1.81.37-2.24.36.75.36-.32.36.64.36-3.41.37 2.02.36-1.06.36-.75.36-.96.36 2.24h.37l.36-.43.36 1.71.36.21.36.11.37-1.71.36-1.6.36 2.99.36-.21.36-.86.37.43.36.85.36 2.24.36-3.2.37 1.28.36-1.6.36.64.36-1.17.36-1.17.37 3.62.36-2.56.36 2.24h.36l.36-.53.37.11.36-1.71.36 2.88.36-2.99.36-.42.37-.86.36 2.67.36 2.45.36-1.17.37-2.35.36-.64.36 1.5.36-1.28.36-1.18h.37l.36.54.36-1.6.36 4.69.36-2.35.37-1.6.36 3.42.36-5.55.36 3.84.36 3.52.37-3.73.36.85.36-2.03.36 1.18.36 2.02.37-1.17.36 1.39.36.21.36-3.09.37 2.02.36 1.39.36-.64.36-2.99.36.96.37.22.36.74.36.22.36-.22.36-.32.37 3.52.36-3.41.36-2.03.36 3.52.36-1.6.37-.85.36-1.49.36 3.2.36-1.28.37-.96.36 3.73.36-1.6.36-.43.36.32.37.86.36-3.95.36 2.67.36.42.36.64.37-.64.36-.32.36-2.45.36 2.35.36-.96.37.96.36-2.24.36 1.28.36 5.01.36-4.27.37-.85.36 4.59.36-4.38.36-.1.37-.75.36 1.92.36-.32.36 1.49.36-2.02.37 1.28.36.85.36-2.88.36 2.45.36-1.81.37-3.31.36 4.7.36-1.07.36-.32.36.11.37-1.5.36 3.63.36-1.71.36.43.37 2.13.36-4.9.36 1.92.36 2.34.36-2.98.37 2.13.36 1.71.36-2.67.36 3.09.36-3.3.37.21.36.43.36.42.36.64.36-1.17.37-3.63.36 1.71.36-.75.36 4.16.37-1.38.36-2.67.36 1.92.36 1.81.36-1.28.37 1.71.36-2.03.36 1.28.36-3.84.36 1.6.37 2.03.36-.75.36.75.36-2.88.36 3.73.37-2.45.36 1.07.36.74.36-1.17.36 1.81.37-2.13.36.21.36.64.36.64.37-1.6.36-.1.36 1.7.36-3.52.36 4.27.37-2.88.36 3.09.36-5.12.36 4.38.36.21.37-.96.36.53.36-1.6.36-2.02.36 4.8.37-1.82.36-.1.36 1.06.36-1.49.37-.11.36.11.36.85.36-1.7.36-.32.37.42.36.96.36.11.36-.21.36-.32.37 2.02.36-1.17.36-2.67.36 1.71.36.75.37 2.34.36-2.02.36-.64.36 2.34.36-2.56.37 2.35.36-3.31.36-.85.36 4.8.37-.11.36-.96.36-2.13.36 1.17h.36l.37 1.28.36-1.49.36.53.36-2.02.36 1.38.37-1.06.36.64.36 1.6.36-2.14.36-.96.37 2.46.36-3.95.36 2.35.36.85.37-2.56.36 3.95.36-4.7.36 3.42.36 1.38.37-3.52.36 4.27.36-3.84.36 1.49.36.43.37 1.71.36-2.67.36-.75.36.64.36-.42.37 3.94.36-1.17.36-4.91.36 5.76.36-3.41.37.64.36.21.36.75.36-1.71.37 2.03.36-1.92.36 1.39.36.21.36-.11.37 2.14.36-2.14.36-1.7.36-1.71.36 1.6.37.64.36.32.36-1.6.36-.64.36 1.71.37 1.6.36-1.71.36 1.71.36-3.95.37 3.2.36-1.28.36 1.39.36 2.98.36-.42.37-2.35.36 1.6.36-.11.36-1.7.36.96.37.32h.36l.36-2.56.36 2.45.36-3.95.37 2.99.36-1.07.36-.64.36 4.16.37-1.49.36-1.49.36.32h.36l.36-.43.37 1.49.36-3.09.36 3.95.36-5.87.36 3.09.37-.64.36-.21.36-.53.36 2.88.36-1.92.37.21.36-.75.36-.21.36 3.2.36-.85.37-1.07.36-1.71.36 3.42.36-1.6.37-.22.36-.32.36.43.36 3.73.36-2.02.37-3.31.36 5.23.36-3.2"/><use xlink:href="#d" color="#3B75EA" transform="matrix(3.75 0 0 3.75 67.83 65.81)"/><use xlink:href="#d" color="#3B75EA" transform="matrix(3.75 0 0 3.75 95.45 22.51)"/></g><text stroke-linecap="round" stroke-linejoin="round" color="#000" font-family="KaTeX_Main" font-size="8" transform="translate(241.1 10.11)"><tspan>Randomized</tspan></text><g fill="none" stroke="currentColor" stroke-linecap="round" stroke-linejoin="round" color="#000"><path stroke="#FFAB00" d="M205.6 7.51h29.9M28 205h343.99"/><use xlink:href="#e" color="#FFAB00" transform="matrix(3.75 0 0 3.75 125.4 205)"/><use xlink:href="#e" color="#FFAB00" transform="matrix(3.75 0 0 3.75 220.55 7.51)"/></g><text stroke-linecap="round" stroke-linejoin="round" color="#000" font-family="KaTeX_Main" font-size="8" transform="translate(241.1 25.11)"><tspan>Zip</tspan></text><g fill="none" stroke="currentColor" stroke-linecap="round" stroke-linejoin="round" color="#000"><path stroke="#00C853" d="M205.6 22.51h29.9M28 205h343.99"/><use xlink:href="#f" color="#00C853" transform="matrix(3.75 0 0 3.75 182.98 205)"/><use xlink:href="#f" color="#00C853" transform="matrix(3.75 0 0 3.75 220.55 22.51)"/></g><path fill="none" d="M28 45.01V205M371.99 45.01H28" color="#000"/></svg>