<svg xmlns="http://www.w3.org/2000/svg" xmlns:xlink="http://www.w3.org/1999/xlink" viewBox="0 0 400 200"><path fill="none" d="M0 0h400v200H0z"/><defs><path id="b" stroke="currentColor" stroke-width=".222" d="M-1 0h2M0-1v2"/><path id="c" stroke="currentColor" stroke-width=".222" d="m-1-1 2 2m0-2-2 2"/><path id="a" stroke="currentColor" stroke-width=".222" d="M-1-1h2v2h-2z"/><path id="e" fill="currentColor" stroke="currentColor" stroke-width=".222" d="M-1-1h2v2h-2z"/><use xlink:href="#a" id="d" stroke="currentColor" transform="rotate(45)"/></defs><g fill="none" stroke-linecap="round" stroke-linejoin="round" stroke-width="0" color="#000"><path d="M63.06 182v-9m0-100.99v9"/><text fill="#000" font-family="Arial" font-size="8" text-anchor="middle" transform="translate(63.06 193.6)"><tspan> 1</tspan></text></g><g fill="none" stroke-linecap="round" stroke-linejoin="round" stroke-width="0" color="#000"><path d="M95.83 182v-9m0-100.99v9"/><text fill="#000" font-family="Arial" font-size="8" text-anchor="middle" transform="translate(95.83 193.6)"><tspan> 2</tspan></text></g><g fill="none" stroke-linecap="round" stroke-linejoin="round" stroke-width="0" color="#000"><path d="M128.61 182v-9m0-100.99v9"/><text fill="#000" font-family="Arial" font-size="8" text-anchor="middle" transform="translate(128.61 193.6)"><tspan> 3</tspan></text></g><g fill="none" stroke-linecap="round" stroke-linejoin="round" stroke-width="0" color="#000"><path d="M161.39 182v-9m0-100.99v9"/><text fill="#000" font-family="Arial" font-size="8" text-anchor="middle" transform="translate(161.39 193.6)"><tspan> 4</tspan></text></g><g fill="none" stroke-linecap="round" stroke-linejoin="round" stroke-width="0" color="#000"><path d="M194.16 182v-9m0-100.99v9"/><text fill="#000" font-family="Arial" font-size="8" text-anchor="middle" transform="translate(194.16 193.6)"><tspan> 5</tspan></text></g><g fill="none" stroke-linecap="round" stroke-linejoin="round" stroke-width="0" color="#000"><path d="M226.94 182v-9m0-100.99v9"/><text fill="#000" font-family="Arial" font-size="8" text-anchor="middle" transform="translate(226.94 193.6)"><tspan> 6</tspan></text></g><g fill="none" stroke-linecap="round" stroke-linejoin="round" stroke-width="0" color="#000"><path d="M259.71 182v-9m0-100.99v9"/><text fill="#000" font-family="Arial" font-size="8" text-anchor="middle" transform="translate(259.71 193.6)"><tspan> 7</tspan></text></g><g fill="none" stroke-linecap="round" stroke-linejoin="round" stroke-width="0" color="#000"><path d="M292.49 182v-9m0-100.99v9"/><text fill="#000" font-family="Arial" font-size="8" text-anchor="middle" transform="translate(292.49 193.6)"><tspan> 8</tspan></text></g><g fill="none" stroke-linecap="round" stroke-linejoin="round" stroke-width="0" color="#000"><path d="M325.26 182v-9m0-100.99v9"/><text fill="#000" font-family="Arial" font-size="8" text-anchor="middle" transform="translate(325.26 193.6)"><tspan> 9</tspan></text></g><g fill="none" stroke-linecap="round" stroke-linejoin="round" stroke-width="0" color="#000"><path d="M358.04 182v-9m0-100.99v9"/><text fill="#000" font-family="Arial" font-size="8" text-anchor="middle" transform="translate(358.04 193.6)"><tspan> 10</tspan></text></g><g fill="none" stroke-linecap="round" stroke-linejoin="round" stroke-width="0" color="#000"><path d="M358.04 182h-9"/><text fill="#000" font-family="Arial" font-size="8" transform="translate(366.43 184.6)"><tspan>0.00</tspan></text></g><g fill="none" stroke-linecap="round" stroke-linejoin="round" stroke-width="0" color="#000"><path d="M358.04 171h-9"/><text fill="#000" font-family="Arial" font-size="8" transform="translate(366.43 173.6)"><tspan>1000.00</tspan></text></g><g fill="none" stroke-linecap="round" stroke-linejoin="round" stroke-width="0" color="#000"><path d="M358.04 160h-9"/><text fill="#000" font-family="Arial" font-size="8" transform="translate(366.43 162.6)"><tspan>2000.00</tspan></text></g><g fill="none" stroke-linecap="round" stroke-linejoin="round" stroke-width="0" color="#000"><path d="M358.04 149h-9"/><text fill="#000" font-family="Arial" font-size="8" transform="translate(366.43 151.6)"><tspan>3000.00</tspan></text></g><g fill="none" stroke-linecap="round" stroke-linejoin="round" stroke-width="0" color="#000"><path d="M358.04 138h-9"/><text fill="#000" font-family="Arial" font-size="8" transform="translate(366.43 140.6)"><tspan>4000.00</tspan></text></g><g fill="none" stroke-linecap="round" stroke-linejoin="round" stroke-width="0" color="#000"><path d="M358.04 127h-9"/><text fill="#000" font-family="Arial" font-size="8" transform="translate(366.43 129.6)"><tspan>5000.00</tspan></text></g><g fill="none" stroke-linecap="round" stroke-linejoin="round" stroke-width="0" color="#000"><path d="M358.04 116.01h-9"/><text fill="#000" font-family="Arial" font-size="8" transform="translate(366.43 118.61)"><tspan>6000.00</tspan></text></g><g fill="none" stroke-linecap="round" stroke-linejoin="round" stroke-width="0" color="#000"><path d="M358.04 105.01h-9"/><text fill="#000" font-family="Arial" font-size="8" transform="translate(366.43 107.61)"><tspan>7000.00</tspan></text></g><g fill="none" stroke-linecap="round" stroke-linejoin="round" stroke-width="0" color="#000"><path d="M358.04 94.01h-9"/><text fill="#000" font-family="Arial" font-size="8" transform="translate(366.43 96.61)"><tspan>8000.00</tspan></text></g><g fill="none" stroke-linecap="round" stroke-linejoin="round" stroke-width="0" color="#000"><path d="M358.04 83.01h-9"/><text fill="#000" font-family="Arial" font-size="8" transform="translate(366.43 85.61)"><tspan>9000.00</tspan></text></g><g fill="none" stroke-linecap="round" stroke-linejoin="round" stroke-width="0" color="#000"><path d="M358.04 72.01h-9"/><text fill="#000" font-family="Arial" font-size="8" transform="translate(366.43 74.61)"><tspan>10000.00</tspan></text></g><path fill="none" d="M33.56 72.01V182M358.04 72.01H33.56" color="#000"/><text stroke-linecap="round" stroke-linejoin="round" stroke-width="0" color="#000" font-family="Arial" font-size="8" text-anchor="middle" transform="rotate(-90 69.74 57.27)"><tspan font-weight="bold">Duration </tspan><tspan> in milliseconds</tspan></text><text stroke-linecap="round" stroke-linejoin="round" color="#000" font-family="Arial" font-size="8" transform="translate(106.2 30.11)"><tspan>AVLBottomUp</tspan></text><g fill="none" stroke="currentColor" stroke-linecap="round" stroke-linejoin="round" color="#000"><path stroke="#000" d="M69.2 27.51h31.4M33.56 181.59l.33-.05.33-.04.32-.05.33-.05.33-.05.33-.04.32-.05.33-.04.33-.04.33-.06.33-.04.32-.05.33-.06.33-.05.33-.04.32-.05.33-.06.33-.04.33-.04.33-.05.32-.05.33-.04.33-.05.33-.06.32-.06.33-.05.33-.06.33-.05.32-.04.33-.05.33-.06.33-.04.33-.05.32-.06.33-.05.33-.06.33-.05.32-.06.33-.04.33-.05.33-.05.33-.05.32-.05.33-.05.33-.06.33-.06.32-.05.33-.05.33-.05.33-.05.33-.04.32-.06.33-.05.33-.05.33-.06.32-.05.33-.06.33-.05.33-.06.33-.04.32-.05.33-.06.33-.06.33-.05.32-.05.33-.07.33-.05.33-.06.33-.05.32-.05.33-.06.33-.04.33-.06.32-.06.33-.05.33-.06.33-.06.33-.05.32-.05.33-.05.33-.06.33-.04.32-.06.33-.06.33-.06.33-.06.32-.05.33-.06.33-.04.33-.05.33-.06.32-.05.33-.06.33-.05.33-.06.32-.06.33-.05.33-.06.33-.04.33-.05.32-.06.33-.06.33-.06.33-.05.32-.06.33-.06.33-.05.33-.05.33-.05.32-.06.33-.04.33-.06.33-.06.32-.06.33-.05.33-.06.33-.06.33-.04.32-.05.33-.06.33-.05.33-.06.32-.06.33-.06.33-.06.33-.06.33-.05.32-.05.33-.06.33-.05.33-.06.32-.06.33-.06.33-.07.33-.05.33-.06.32-.05.33-.05.33-.06.33-.06.32-.06.33-.06.33-.06.33-.06.32-.06.33-.05.33-.04.33-.07.33-.05.32-.07.33-.06.33-.05.33-.07.32-.05.33-.05.33-.05.33-.07.33-.05.32-.06.33-.06.33-.06.33-.07.32-.05.33-.05.33-.05.33-.06.33-.05.32-.07.33-.05.33-.07.33-.06.32-.06.33-.05.33-.05.33-.06.33-.05.32-.06.33-.06.33-.06.33-.06.32-.06.33-.06.33-.04.33-.06.33-.06.32-.05.33-.07.33-.05.33-.07.32-.06.33-.05.33-.05.33-.05.32-.06.33-.06.33-.06.33-.06.33-.06.32-.06.33-.06.33-.05.33-.05.32-.06.33-.06.33-.05.33-.06.33-.07.32-.06.33-.06.33-.05.33-.04.32-.07.33-.05.33-.06.33-.06.33-.06.32-.06.33-.07.33-.04.33-.05.32-.07.33-.04.33-.06.33-.07.33-.05.32-.07.33-.05.33-.06.33-.05.32-.06.33-.05.33-.06.33-.06.33-.06.32-.06.33-.06.33-.06.33-.04.32-.05.33-.07.33-.05.33-.07.33-.06.32-.05.33-.07.33-.05.33-.05.32-.05.33-.06.33-.06.33-.06.32-.05.33-.07.33-.07.33-.06.33-.05.32-.05.33-.07.33-.05.33-.07.32-.06.33-.06.33-.07.33-.06.33-.05.32-.06.33-.05.33-.06.33-.07.32-.06.33-.07.33-.05.33-.06.33-.05.32-.07.33-.05.33-.06.33-.07.32-.06.33-.06.33-.07.33-.05.33-.05.32-.07.33-.06.33-.06.33-.06.32-.06.33-.07.33-.06.33-.05.33-.05.32-.07.33-.05.33-.07.33-.06.32-.07.33-.06.33-.06.33-.05.33-.05.32-.06.33-.06.33-.07.33-.06.32-.06.33-.06.33-.06.33-.05.32-.07.33-.05.33-.06.33-.06.33-.07.32-.06.33-.07.33-.05.33-.05.32-.06.33-.06.33-.06.33-.07.33-.06.32-.07.33-.05.33-.05.33-.05.32-.07.33-.06.33-.07.33-.06.33-.06.32-.06.33-.06.33-.05.33-.07.32-.05.33-.06.33-.07.33-.05.33-.07.32-.07.33-.05.33-.05.33-.07.32-.05.33-.06.33-.06.33-.07.33-.07.32-.06.33-.05.33-.05.33-.06.32-.06.33-.07.33-.06.33-.06.32-.07.33-.05.33-.05.33-.05.33-.07.32-.06.33-.07.33-.06.33-.06.32-.06.33-.06.33-.05.33-.07.33-.05.32-.06.33-.06.33-.06.33-.07.32-.07.33-.05.33-.05.33-.07.33-.05.32-.06.33-.06.33-.07.33-.07.32-.06.33-.05.33-.05.33-.06.33-.06.32-.07.33-.06.33-.06.33-.06.32-.06.33-.05.33-.05.33-.07.33-.06.32-.07.33-.06.33-.06.33-.06.32-.06.33-.05.33-.07.33-.05.33-.06.32-.06.33-.06.33-.07.33-.07.32-.05.33-.05.33-.07.33-.05.32-.06.33-.06.33-.07.33-.07.33-.06.32-.05.33-.05.33-.06.33-.06.32-.07.33-.06.33-.06.33-.06.33-.06.32-.05.33-.06.33-.06.33-.06.32-.07.33-.05.33-.07.33-.06.33-.06.32-.05.33-.07.33-.05.33-.06.32-.06.33-.07.33-.06.33-.07.33-.05.32-.05.33-.07.33-.05.33-.06.32-.06.33-.07.33-.07.33-.06.33-.05.32-.05.33-.06.33-.06.33-.07.32-.06.33-.06.33-.06.33-.06.33-.05.32-.06.33-.06.33-.06.33-.06.32-.06.33-.07.33-.06.33-.06.32-.05.33-.07.33-.05.33-.05.33-.07.32-.07.33-.06.33-.07.33-.05.32-.05.33-.06.33-.06.33-.06.33-.07.32-.06.33-.06.33-.06.33-.05.32-.05.33-.07.33-.06.33-.07.33-.06.32-.06.33-.06.33-.06.33-.05.32-.07.33-.05.33-.06.33-.06.33-.06.32-.07.33-.07.33-.05.33-.05.32-.06.33-.05.33-.07.33-.06.33-.07.32-.07.33-.06.33-.05.33-.06.32-.06.33-.07.33-.07.33-.06.32-.07.33-.07.33-.05.33-.05.33-.07.32-.06.33-.07.33-.06.33-.06.32-.07.33-.07.33-.05.33-.07.33-.05.32-.06.33-.07.33-.07.33-.07.32-.06.33-.06.33-.05.33-.07.33-.06.32-.07.33-.06.33-.07.33-.07.32-.05.33-.05.33-.07.33-.06.33-.07.32-.07.33-.07.33-.06.33-.06.32-.05.33-.07.33-.05.33-.07.33-.07.32-.07.33-.06.33-.07.33-.05.32-.05.33-.07.33-.06.33-.07.33-.06.32-.07.33-.07.33-.05.33-.06.32-.07.33-.06.33-.07.33-.06.32-.07.33-.06.33-.06.33-.05.33-.07.32-.06.33-.07.33-.06.33-.07.32-.07.33-.06.33-.05.33-.05.33-.07.32-.06.33-.07.33-.06.33-.07.32-.07.33-.06.33-.05.33-.07.33-.06.32-.07.33-.06.33-.07.33-.06.32-.06.33-.06.33-.07.33-.05.33-.07.32-.06.33-.07.33-.07.33-.06.32-.05.33-.06.33-.06.33-.07.33-.07.32-.06.33-.07.33-.07.33-.05.32-.05.33-.07.33-.06.33-.07.33-.06.32-.07.33-.06.33-.06.33-.06.32-.07.33-.05.33-.07.33-.06.32-.07.33-.07.33-.06.33-.05.33-.06.32-.06.33-.07.33-.07.33-.07.32-.06.33-.07.33-.05.33-.05.33-.07.32-.06.33-.07.33-.06.33-.07.32-.06.33-.06.33-.06.33-.07.33-.06.32-.06.33-.07.33-.06.33-.07.32-.06.33-.05.33-.06.33-.07.33-.06.32-.07.33-.07.33-.06.33-.07.32-.05.33-.05.33-.07.33-.06.33-.07.32-.06.33-.07.33-.06.33-.07.32-.05.33-.07.33-.06.33-.06.32-.07.33-.06.33-.07.33-.06.33-.06.32-.06.33-.06.33-.06.33-.07.32-.07.33-.06.33-.07.33-.05.33-.05.32-.07.33-.07.33-.07.33-.06.32-.07.33-.06.33-.06.33-.05.33-.07.32-.06.33-.06.33-.07.33-.06.32-.07.33-.06.33-.06.33-.07.33-.05.32-.06.33-.07.33-.07.33-.07.32-.06.33-.05.33-.06.33-.07.33-.06.32-.07.33-.06.33-.07.33-.07.32-.05.33-.05.33-.07.33-.06.33-.06.32-.07.33-.07.33-.07.33-.06.32-.05.33-.07.33-.05.33-.06.32-.07.33-.07.33-.07.33-.06.33-.06.32-.05.33-.07.33-.06.33-.07.32-.06.33-.07.33-.07.33-.05.33-.06.32-.06.33-.07.33-.07.33-.06.32-.06.33-.07.33-.06.33-.05.33-.07.32-.05.33-.07.33-.07.33-.06.32-.07.33-.07.33-.05.33-.05.33-.07.32-.06.33-.07.33-.06.33-.07.32-.07.33-.05.33-.06.33-.07.33-.06.32-.07.33-.06.33-.07.33-.06.32-.06.33-.05.33-.08.33-.05.33-.07.32-.06.33-.07.33-.07.33-.06.32-.05.33-.05.33-.07.33-.06.32-.07.33-.07.33-.07.33-.06.33-.06.32-.05.33-.07.33-.06.33-.07.32-.06.33-.07.33-.06.33-.06.33-.06.32-.07.33-.05.33-.07.33-.06.32-.07.33-.07.33-.06.33-.05.33-.06.32-.07.33-.06.33-.07.33-.06.32-.07.33-.07.33-.05.33-.05.33-.07.32-.06.33-.07.33-.07.33-.06.32-.07.33-.06.33-.05.33-.07.33-.05.32-.07.33-.06.33-.07.33-.07.32-.06.33-.06.33-.05.33-.07.32-.06.33-.07.33-.06.33-.07.33-.07.32-.05.33-.05.33-.07.33-.07.32-.07.33-.06.33-.07.33-.06.33-.06.32-.05.33-.07.33-.05.33-.07.32-.07.33-.06.33-.07.33-.07.33-.05.32-.06.33-.06.33-.06.33-.07.32-.06.33-.07.33-.07.33-.05.33-.06.32-.07.33-.06.33-.07.33-.06.32-.07.33-.06.33-.06.33-.05.33-.07.32-.06.33-.07.33-.07.33-.06.32-.07.33-.06.33-.05.33-.06.33-.06.32-.06.33-.07.33-.07.33-.06.32-.07.33-.06.33-.05.33-.07.32-.06.33-.07.33-.06.33-.07.33-.06.32-.06.33-.06.33-.06.33-.07.32-.06.33-.07.33-.06.33-.07.33-.06.32-.05.33-.07.33-.05.33-.06.32-.07.33-.07.33-.07.33-.07.33-.05.32-.05.33-.07.33-.06.33-.07.32-.06.33-.07.33-.06.33-.06.33-.06.32-.07.33-.06.33-.06.33-.07.32-.06.33-.07.33-.06.33-.05.33-.07.32-.06.33-.06.33-.07.33-.07.32-.07.33-.06.33-.05.33-.05.33-.07.32-.06.33-.07.33-.07.33-.07.32-.06.33-.06.33-.05.33-.07.32-.06.33-.06.33-.07.33-.06.33-.07.32-.06.33-.06.33-.07.33-.05.32-.06.33-.07.33-.07.33-.07.33-.06.32-.05.33-.05.33-.07.33-.07.32-.07.33-.06.33-.07"/><use xlink:href="#b" transform="matrix(4.5 0 0 4.5 355.09 122.65)"/><use xlink:href="#b" transform="matrix(4.5 0 0 4.5 84.9 27.51)"/></g><text stroke-linecap="round" stroke-linejoin="round" color="#000" font-family="Arial" font-size="8" transform="translate(106.2 45.11)"><tspan>AVLTopDown</tspan></text><g fill="none" stroke="currentColor" stroke-linecap="round" stroke-linejoin="round" color="#000"><path stroke="#29C3F6" stroke-dasharray="1.0,2.0" d="M69.2 42.51h31.4M33.56 181.58l.33-.05.33-.04.32-.05.33-.05.33-.05.33-.05.32-.04.33-.04.33-.05.33-.05.33-.05.32-.05.33-.05.33-.05.33-.06.32-.05.33-.05.33-.04.33-.04.33-.06.32-.04.33-.05.33-.05.33-.05.32-.05.33-.06.33-.06.33-.05.32-.04.33-.05.33-.06.33-.04.33-.05.32-.07.33-.05.33-.06.33-.05.32-.05.33-.05.33-.04.33-.06.33-.05.32-.05.33-.06.33-.05.33-.05.32-.06.33-.06.33-.04.33-.05.33-.06.32-.04.33-.05.33-.06.33-.05.32-.06.33-.05.33-.07.33-.04.33-.05.32-.06.33-.05.33-.05.33-.07.32-.05.33-.05.33-.07.33-.05.33-.05.32-.04.33-.07.33-.04.33-.06.32-.06.33-.05.33-.07.33-.05.33-.05.32-.05.33-.05.33-.06.33-.06.32-.05.33-.05.33-.07.33-.05.32-.06.33-.05.33-.05.33-.05.33-.06.32-.05.33-.06.33-.06.33-.05.32-.06.33-.06.33-.04.33-.05.33-.06.32-.05.33-.05.33-.07.33-.05.32-.06.33-.06.33-.05.33-.05.33-.04.32-.07.33-.04.33-.06.33-.06.32-.06.33-.06.33-.05.33-.06.33-.04.32-.05.33-.06.33-.06.33-.06.32-.06.33-.05.33-.07.33-.06.33-.05.32-.04.33-.07.33-.06.33-.05.32-.06.33-.07.33-.05.33-.07.33-.05.32-.04.33-.07.33-.05.33-.06.32-.06.33-.06.33-.06.33-.06.32-.06.33-.05.33-.06.33-.05.33-.06.32-.06.33-.06.33-.06.33-.06.32-.06.33-.05.33-.05.33-.06.33-.06.32-.06.33-.06.33-.06.33-.06.32-.06.33-.05.33-.05.33-.06.33-.06.32-.06.33-.06.33-.06.33-.06.32-.06.33-.05.33-.05.33-.06.33-.06.32-.06.33-.05.33-.07.33-.06.32-.06.33-.05.33-.05.33-.07.33-.04.32-.06.33-.07.33-.05.33-.07.32-.06.33-.05.33-.05.33-.07.32-.05.33-.05.33-.07.33-.06.33-.06.32-.06.33-.05.33-.05.33-.06.32-.06.33-.05.33-.07.33-.06.33-.05.32-.07.33-.05.33-.05.33-.05.32-.07.33-.06.33-.06.33-.06.33-.05.32-.07.33-.06.33-.04.33-.05.32-.07.33-.06.33-.05.33-.06.33-.07.32-.05.33-.07.33-.05.33-.05.32-.06.33-.05.33-.06.33-.06.33-.06.32-.07.33-.05.33-.06.33-.05.32-.06.33-.05.33-.06.33-.07.33-.05.32-.07.33-.05.33-.06.33-.05.32-.06.33-.05.33-.06.33-.07.32-.05.33-.07.33-.06.33-.06.33-.05.32-.06.33-.06.33-.05.33-.07.32-.06.33-.07.33-.06.33-.05.33-.05.32-.07.33-.05.33-.06.33-.07.32-.06.33-.06.33-.07.33-.05.33-.05.32-.07.33-.06.33-.06.33-.06.32-.06.33-.07.33-.06.33-.05.33-.05.32-.07.33-.05.33-.07.33-.06.32-.07.33-.05.33-.06.33-.05.33-.07.32-.05.33-.06.33-.07.33-.06.32-.06.33-.07.33-.05.33-.05.33-.07.32-.05.33-.06.33-.06.33-.07.32-.06.33-.07.33-.05.33-.05.32-.06.33-.06.33-.07.33-.06.33-.06.32-.06.33-.06.33-.05.33-.05.32-.07.33-.06.33-.07.33-.06.33-.06.32-.06.33-.06.33-.05.33-.07.32-.05.33-.06.33-.06.33-.06.33-.07.32-.07.33-.05.33-.05.33-.06.32-.05.33-.07.33-.06.33-.07.33-.06.32-.06.33-.05.33-.05.33-.07.32-.06.33-.07.33-.06.33-.05.33-.07.32-.06.33-.05.33-.05.33-.07.32-.06.33-.06.33-.06.33-.07.32-.06.33-.06.33-.05.33-.07.33-.05.32-.05.33-.07.33-.06.33-.07.32-.06.33-.05.33-.05.33-.07.33-.06.32-.06.33-.06.33-.07.33-.06.32-.06.33-.05.33-.05.33-.07.33-.06.32-.07.33-.06.33-.06.33-.06.32-.06.33-.05.33-.06.33-.06.33-.06.32-.06.33-.06.33-.07.33-.06.32-.06.33-.05.33-.06.33-.06.33-.05.32-.07.33-.07.33-.06.33-.06.32-.06.33-.05.33-.06.33-.06.33-.06.32-.06.33-.07.33-.06.33-.06.32-.05.33-.05.33-.07.33-.06.32-.07.33-.06.33-.06.33-.06.33-.06.32-.05.33-.06.33-.06.33-.06.32-.06.33-.06.33-.07.33-.06.33-.06.32-.05.33-.06.33-.05.33-.06.32-.07.33-.07.33-.06.33-.06.33-.05.32-.05.33-.07.33-.06.33-.06.32-.07.33-.05.33-.07.33-.06.33-.05.32-.05.33-.07.33-.06.33-.07.32-.05.33-.07.33-.06.33-.06.33-.05.32-.07.33-.05.33-.06.33-.06.32-.06.33-.07.33-.06.33-.06.33-.05.32-.06.33-.05.33-.07.33-.06.32-.07.33-.05.33-.07.33-.05.32-.05.33-.07.33-.06.33-.06.33-.06.32-.06.33-.07.33-.06.33-.05.32-.05.33-.07.33-.06.33-.06.33-.06.32-.07.33-.06.33-.06.33-.05.32-.06.33-.06.33-.05.33-.07.33-.06.32-.07.33-.06.33-.05.33-.05.32-.07.33-.05.33-.07.33-.06.33-.07.32-.06.33-.06.33-.05.33-.05.32-.07.33-.06.33-.07.33-.06.33-.06.32-.07.33-.06.33-.05.33-.07.32-.05.33-.07.33-.07.33-.07.32-.06.33-.07.33-.05.33-.05.33-.07.32-.07.33-.07.33-.06.33-.07.32-.07.33-.05.33-.05.33-.07.33-.06.32-.07.33-.06.33-.07.33-.07.32-.06.33-.05.33-.07.33-.05.33-.06.32-.07.33-.07.33-.07.33-.07.32-.05.33-.05.33-.07.33-.06.33-.08.32-.06.33-.07.33-.07.33-.05.32-.05.33-.07.33-.07.33-.06.33-.07.32-.06.33-.07.33-.06.33-.05.32-.07.33-.06.33-.06.33-.07.33-.07.32-.07.33-.06.33-.05.33-.05.32-.07.33-.07.33-.07.33-.06.32-.07.33-.07.33-.05.33-.05.33-.07.32-.06.33-.07.33-.07.33-.07.32-.06.33-.06.33-.05.33-.07.33-.06.32-.07.33-.06.33-.07.33-.07.32-.06.33-.05.33-.06.33-.07.33-.06.32-.07.33-.06.33-.07.33-.07.32-.05.33-.05.33-.07.33-.07.33-.07.32-.06.33-.07.33-.06.33-.06.32-.05.33-.07.33-.06.33-.07.33-.06.32-.07.33-.07.33-.06.33-.05.32-.06.33-.07.33-.06.33-.07.33-.06.32-.07.33-.07.33-.05.33-.06.32-.07.33-.06.33-.07.33-.06.32-.07.33-.06.33-.06.33-.06.33-.07.32-.05.33-.07.33-.06.33-.07.32-.07.33-.06.33-.06.33-.06.33-.06.32-.06.33-.07.33-.06.33-.07.32-.07.33-.05.33-.06.33-.07.33-.06.32-.07.33-.06.33-.07.33-.06.32-.06.33-.06.33-.07.33-.05.33-.07.32-.06.33-.07.33-.07.33-.06.32-.05.33-.06.33-.07.33-.06.33-.07.32-.06.33-.07.33-.07.33-.05.32-.05.33-.07.33-.07.33-.07.32-.06.33-.07.33-.06.33-.06.33-.05.32-.07.33-.07.33-.06.33-.07.32-.06.33-.07.33-.06.33-.05.33-.07.32-.06.33-.06.33-.07.33-.07.32-.06.33-.07.33-.05.33-.06.33-.07.32-.06.33-.07.33-.06.33-.07.32-.06.33-.06.33-.06.33-.07.33-.06.32-.06.33-.07.33-.06.33-.07.32-.06.33-.05.33-.08.33-.05.33-.06.32-.07.33-.07.33-.06.33-.07.32-.05.33-.06.33-.07.33-.06.33-.07.32-.06.33-.07.33-.06.33-.06.32-.06.33-.07.33-.06.33-.06.32-.07.33-.06.33-.07.33-.06.33-.06.32-.07.33-.05.33-.06.33-.07.32-.07.33-.07.33-.06.33-.05.33-.06.32-.07.33-.06.33-.07.33-.06.32-.07.33-.07.33-.06.33-.05.33-.07.32-.06.33-.06.33-.07.33-.07.32-.07.33-.06.33-.05.33-.07.33-.05.32-.06.33-.07.33-.07.33-.07.32-.06.33-.06.33-.05.33-.07.33-.06.32-.07.33-.07.33-.07.33-.07.32-.05.33-.05.33-.07.33-.07.33-.06.32-.07.33-.06.33-.07.33-.06.32-.05.33-.07.33-.05.33-.07.32-.07.33-.06.33-.07.33-.07.33-.05.32-.05.33-.07.33-.06.33-.07.32-.06.33-.07.33-.07.33-.06.33-.05.32-.07.33-.06.33-.07.33-.06.32-.07.33-.06.33-.07.33-.05.33-.07.32-.05.33-.07.33-.06.33-.07.32-.07.33-.07.33-.05.33-.05.33-.07.32-.06.33-.07.33-.07.33-.07.32-.07.33-.05.33-.05.33-.07.33-.06.32-.07.33-.06.33-.07.33-.06.32-.07.33-.05.33-.07.33-.05.32-.07.33-.06.33-.07.33-.07.33-.06.32-.06.33-.05.33-.07.33-.06.32-.07.33-.06.33-.07.33-.07.33-.06.32-.05.33-.07.33-.06.33-.07.32-.06.33-.07.33-.07.33-.06.33-.05.32-.07.33-.05.33-.07.33-.07.32-.07.33-.07.33-.06.33-.05.33-.05.32-.07.33-.07.33-.07.33-.06.32-.07.33-.07.33-.05.33-.05.33-.07.32-.06.33-.07.33-.07.33-.07.32-.06.33-.06.33-.05.33-.07.33-.06.32-.07.33-.06.33-.07.33-.07.32-.06.33-.05.33-.06.33-.07.32-.06.33-.07.33-.06.33-.07.33-.07.32-.05.33-.06.33-.07.33-.06.32-.07.33-.06.33-.07.33-.06.33-.06.32-.05.33-.07.33-.06.33-.07.32-.06.33-.07.33-.07.33-.06.33-.05.32-.06.33-.07.33-.06.33-.07.32-.07.33-.06.33-.07.33-.05.33-.05.32-.07.33-.07.33-.06.33-.07.32-.07.33-.06.33-.06.33-.05.33-.07.32-.06.33-.07.33-.06.33-.07.32-.07.33-.06.33-.05.33-.07.33-.06.32-.06.33-.07.33-.07.33-.06.32-.07.33-.05.33-.05.33-.08.32-.06.33-.07.33-.06.33-.07.33-.06.32-.06.33-.06.33-.07.33-.06.32-.06.33-.07.33-.06.33-.07.33-.06.32-.05.33-.07.33-.06.33-.06.32-.07.33-.07.33-.06"/><use xlink:href="#c" color="#29C3F6" transform="matrix(4.5 0 0 4.5 84.69 173.18)"/><use xlink:href="#c" color="#29C3F6" transform="matrix(4.5 0 0 4.5 84.9 42.51)"/></g><text stroke-linecap="round" stroke-linejoin="round" color="#000" font-family="Arial" font-size="8" transform="translate(238.4 30.11)"><tspan>RedBlackBottomUp</tspan></text><g fill="none" stroke="currentColor" stroke-linecap="round" stroke-linejoin="round" color="#000"><path stroke="#F44336" d="M201.4 27.51h31.4M33.56 181.28l.33-.07.33-.08.32-.07.33-.08.33-.07.33-.09.32-.1.33-.08.33-.08.33-.07.33-.08.32-.09.33-.08.33-.1.33-.08.32-.08.33-.09.33-.08.33-.09.33-.1.32-.08.33-.08.33-.08.33-.09.32-.1.33-.1.33-.08.33-.08.32-.09.33-.08.33-.1.33-.1.33-.09.32-.08.33-.08.33-.09.33-.1.32-.1.33-.08.33-.09.33-.08.33-.09.32-.1.33-.11.33-.09.33-.08.32-.09.33-.09.33-.09.33-.11.33-.09.32-.08.33-.09.33-.1.33-.08.32-.12.33-.08.33-.08.33-.1.33-.11.32-.1.33-.09.33-.09.33-.09.32-.09.33-.1.33-.12.33-.09.33-.08.32-.09.33-.1.33-.1.33-.1.32-.09.33-.09.33-.09.33-.11.33-.1.32-.09.33-.09.33-.09.33-.09.32-.1.33-.11.33-.09.33-.08.32-.1.33-.1.33-.11.33-.09.33-.1.32-.09.33-.09.33-.1.33-.12.32-.09.33-.08.33-.1.33-.1.33-.12.32-.09.33-.09.33-.09.33-.09.32-.11.33-.12.33-.09.33-.08.33-.1.32-.1.33-.11.33-.1.33-.09.32-.09.33-.1.33-.1.33-.12.33-.09.32-.08.33-.1.33-.11.33-.11.32-.09.33-.09.33-.1.33-.11.33-.11.32-.1.33-.09.33-.09.33-.1.32-.11.33-.12.33-.09.33-.09.33-.1.32-.11.33-.11.33-.1.33-.09.32-.1.33-.1.33-.12.33-.09.32-.1.33-.09.33-.1.33-.1.33-.12.32-.1.33-.09.33-.09.33-.12.32-.11.33-.1.33-.08.33-.1.33-.11.32-.11.33-.1.33-.09.33-.1.32-.11.33-.1.33-.11.33-.09.33-.09.32-.1.33-.11.33-.12.33-.09.32-.09.33-.1.33-.11.33-.11.33-.09.32-.1.33-.1.33-.1.33-.12.32-.09.33-.1.33-.09.33-.09.33-.11.32-.12.33-.1.33-.09.33-.1.32-.11.33-.12.33-.1.33-.08.32-.11.33-.11.33-.11.33-.11.33-.08.32-.11.33-.11.33-.11.33-.1.32-.09.33-.11.33-.1.33-.12.33-.1.32-.09.33-.11.33-.1.33-.12.32-.1.33-.1.33-.09.33-.1.33-.11.32-.12.33-.1.33-.09.33-.1.32-.11.33-.12.33-.1.33-.09.33-.1.32-.11.33-.12.33-.1.33-.09.32-.1.33-.11.33-.11.33-.11.33-.08.32-.11.33-.11.33-.11.33-.1.32-.1.33-.1.33-.1.33-.12.33-.1.32-.1.33-.1.33-.1.33-.12.32-.1.33-.1.33-.09.33-.1.32-.11.33-.12.33-.1.33-.1.33-.11.32-.1.33-.13.33-.1.33-.09.32-.11.33-.11.33-.12.33-.1.33-.1.32-.11.33-.1.33-.13.33-.1.32-.09.33-.11.33-.11.33-.12.33-.1.32-.1.33-.11.33-.1.33-.13.32-.09.33-.1.33-.11.33-.11.33-.12.32-.1.33-.1.33-.1.33-.11.32-.12.33-.1.33-.1.33-.11.33-.11.32-.12.33-.09.33-.1.33-.11.32-.12.33-.11.33-.1.33-.1.33-.1.32-.13.33-.1.33-.1.33-.1.32-.11.33-.12.33-.11.33-.1.32-.1.33-.1.33-.13.33-.1.33-.1.32-.1.33-.11.33-.12.33-.11.32-.09.33-.1.33-.12.33-.11.33-.11.32-.1.33-.1.33-.11.33-.12.32-.1.33-.1.33-.1.33-.12.33-.11.32-.11.33-.1.33-.1.33-.11.32-.11.33-.11.33-.1.33-.1.33-.11.32-.12.33-.1.33-.1.33-.11.32-.11.33-.11.33-.11.33-.1.33-.1.32-.11.33-.11.33-.11.33-.1.32-.11.33-.1.33-.13.33-.09.32-.1.33-.11.33-.11.33-.12.33-.1.32-.1.33-.1.33-.11.33-.12.32-.1.33-.1.33-.1.33-.11.33-.12.32-.1.33-.1.33-.11.33-.1.32-.13.33-.1.33-.1.33-.1.33-.11.32-.12.33-.1.33-.1.33-.11.32-.11.33-.12.33-.1.33-.11.33-.1.32-.12.33-.12.33-.11.33-.09.32-.11.33-.12.33-.12.33-.1.33-.1.32-.1.33-.12.33-.13.33-.1.32-.1.33-.1.33-.12.33-.12.33-.1.32-.1.33-.11.33-.11.33-.13.32-.1.33-.1.33-.12.33-.12.32-.1.33-.1.33-.11.33-.11.33-.13.32-.1.33-.1.33-.11.33-.11.32-.12.33-.11.33-.09.33-.11.33-.12.32-.12.33-.1.33-.1.33-.11.32-.11.33-.13.33-.1.33-.1.33-.1.32-.12.33-.12.33-.1.33-.1.32-.11.33-.11.33-.13.33-.1.33-.11.32-.11.33-.12.33-.1.33-.1.32-.11.33-.11.33-.13.33-.1.33-.1.32-.11.33-.11.33-.12.33-.11.32-.09.33-.11.33-.12.33-.12.33-.1.32-.1.33-.11.33-.11.33-.13.32-.1.33-.1.33-.1.33-.12.32-.12.33-.1.33-.1.33-.11.33-.12.32-.12.33-.1.33-.11.33-.11.32-.12.33-.1.33-.1.33-.11.33-.11.32-.13.33-.1.33-.1.33-.11.32-.11.33-.12.33-.11.33-.09.33-.11.32-.12.33-.13.33-.1.33-.1.32-.1.33-.11.33-.13.33-.1.33-.1.32-.1.33-.12.33-.12.33-.11.32-.1.33-.11.33-.12.33-.11.33-.1.32-.11.33-.12.33-.12.33-.11.32-.1.33-.11.33-.12.33-.13.32-.1.33-.11.33-.1.33-.12.33-.13.32-.1.33-.11.33-.11.33-.13.32-.11.33-.1.33-.11.33-.12.33-.12.32-.11.33-.1.33-.11.33-.12.32-.13.33-.1.33-.11.33-.1.33-.12.32-.13.33-.1.33-.11.33-.12.32-.12.33-.11.33-.1.33-.11.33-.12.32-.12.33-.11.33-.1.33-.11.32-.12.33-.13.33-.1.33-.1.33-.12.32-.12.33-.12.33-.1.33-.11.32-.11.33-.13.33-.11.33-.1.33-.11.32-.12.33-.13.33-.1.33-.1.32-.11.33-.12.33-.13.33-.1.32-.1.33-.12.33-.13.33-.1.33-.11.32-.11.33-.12.33-.12.33-.11.32-.1.33-.11.33-.12.33-.13.33-.1.32-.1.33-.11.33-.12.33-.12.32-.11.33-.11.33-.11.33-.13.33-.1.32-.11.33-.11.33-.12.33-.13.32-.1.33-.1.33-.11.33-.12.33-.12.32-.11.33-.1.33-.11.33-.13.32-.11.33-.11.33-.11.33-.11.33-.13.32-.11.33-.1.33-.11.33-.12.32-.12.33-.11.33-.1.33-.11.33-.12.32-.12.33-.11.33-.11.33-.11.32-.13.33-.1.33-.1.33-.12.32-.12.33-.12.33-.11.33-.09.33-.11.32-.12.33-.13.33-.11.33-.1.32-.11.33-.12.33-.12.33-.11.33-.11.32-.11.33-.13.33-.11.33-.09.32-.12.33-.12.33-.12.33-.11.33-.1.32-.1.33-.12.33-.13.33-.11.32-.1.33-.12.33-.13.33-.1.33-.1.32-.11.33-.12.33-.12.33-.12.32-.09.33-.11.33-.12.33-.13.33-.1.32-.11.33-.1.33-.12.33-.13.32-.1.33-.11.33-.11.33-.13.32-.11.33-.1.33-.11.33-.12.33-.13.32-.1.33-.11.33-.1.33-.12.32-.13.33-.1.33-.11.33-.11.33-.13.32-.11.33-.1.33-.11.33-.12.32-.12.33-.12.33-.09.33-.11.33-.12.32-.13.33-.1.33-.11.33-.1.32-.12.33-.13.33-.1.33-.11.33-.12.32-.12.33-.11.33-.1.33-.11.32-.12.33-.12.33-.11.33-.1.33-.11.32-.12.33-.13.33-.1.33-.1.32-.12.33-.11.33-.12.33-.11.33-.11.32-.11.33-.13.33-.1.33-.1.32-.12.33-.12.33-.12.33-.11.32-.1.33-.1.33-.12.33-.13.33-.1.32-.11.33-.12.33-.13.33-.1.32-.1.33-.11.33-.12.33-.12.33-.11.32-.1.33-.11.33-.12.33-.13.32-.1.33-.11.33-.1.33-.12.33-.13.32-.1.33-.11.33-.11.33-.13.32-.11.33-.1.33-.11.33-.12.33-.13.32-.11.33-.1.33-.11.33-.12.32-.13.33-.11.33-.11.33-.12.33-.13.32-.11.33-.1.33-.11.33-.13.32-.13.33-.1.33-.11.33-.11.33-.14.32-.11.33-.1.33-.12.33-.12.32-.13.33-.11.33-.1.33-.11.32-.12.33-.13.33-.11.33-.11.33-.11.32-.13.33-.12.33-.1.33-.11.32-.12.33-.14.33-.1.33-.11.33-.12.32-.13.33-.11.33-.1.33-.12.32-.12.33-.13.33-.11.33-.1.33-.11.32-.12.33-.13.33-.11.33-.11.32-.12.33-.13.33-.11.33-.1.33-.11.32-.12.33-.13.33-.11.33-.11.32-.12.33-.13.33-.11.33-.1.33-.11.32-.13.33-.13.33-.1.33-.11.32-.1.33-.13.33-.13.33-.1.32-.12.33-.11.33-.13.33-.11.33-.1.32-.11.33-.13.33-.13.33-.1.32-.11.33-.12.33-.13.33-.11.33-.1.32-.11.33-.13.33-.13.33-.1.32-.11.33-.1.33-.13.33-.13.33-.1.32-.12.33-.11.33-.13.33-.12.32-.09.33-.12.33-.2.33-.16.33-.13.32-.12.33-.14.33-.15.33-.12.32-.12.33-.12.33-.15.33-.14.33-.12.32-.11.33-.12.33-.14.33-.14.32-.12.33-.12.33-.13.33-.13.33-.13.32-.1.33-.12.33-.14.33-.14.32-.11.33-.11.33-.14.33-.14.32-.11.33-.11.33-.11.33-.12.33-.13.32-.11.33-.11.33-.1.33-.13.32-.13.33-.1.33-.12.33-.11.33-.13.32-.11.33-.1.33-.12.33-.12.32-.13.33-.1.33-.11.33-.12.33-.13.32-.11.33-.1.33-.12.33-.12.32-.13.33-.1.33-.11.33-.1.33-.13.32-.13.33-.1.33-.12.33-.11.32-.13.33-.11.33-.1.33-.12.33-.12.32-.13.33-.1.33-.11.33-.12.32-.13.33-.11.33-.1.33-.11.33-.13.32-.13.33-.1.33-.11.33-.1.32-.12.33-.13.33-.11.33-.11.32-.12.33-.13.33-.11.33-.1.33-.11.32-.12.33-.14.33-.1.33-.11.32-.12.33-.13.33-.1.33-.11.33-.11.32-.13.33-.13.33-.1.33-.11.32-.1.33-.13.33-.13"/><use xlink:href="#d" color="#F44336" transform="matrix(4.5 0 0 4.5 138.77 149.32)"/><use xlink:href="#d" color="#F44336" transform="matrix(4.5 0 0 4.5 217.1 27.51)"/></g><text stroke-linecap="round" stroke-linejoin="round" color="#000" font-family="Arial" font-size="8" transform="translate(238.4 45.11)"><tspan>RedBlackTopDown</tspan></text><g fill="none" stroke="currentColor" stroke-linecap="round" stroke-linejoin="round" color="#000"><path stroke="#3B75EA" stroke-dasharray="1.0,2.0" d="M201.4 42.51h31.4M33.56 181.39l.33-.07.33-.06.32-.07.33-.07.33-.06.33-.09.32-.09.33-.06.33-.07.33-.06.33-.07.32-.07.33-.06.33-.1.33-.09.32-.07.33-.06.33-.08.33-.07.33-.06.32-.09.33-.1.33-.07.33-.07.32-.06.33-.08.33-.07.33-.06.32-.1.33-.09.33-.08.33-.06.33-.08.32-.07.33-.07.33-.1.33-.09.32-.08.33-.07.33-.07.33-.08.33-.06.32-.09.33-.1.33-.08.33-.07.32-.08.33-.07.33-.07.33-.09.33-.11.32-.07.33-.07.33-.08.33-.08.32-.07.33-.1.33-.09.33-.08.33-.06.32-.08.33-.08.33-.06.33-.1.32-.1.33-.07.33-.07.33-.08.33-.08.32-.07.33-.1.33-.1.33-.08.32-.06.33-.08.33-.08.33-.07.33-.1.32-.1.33-.08.33-.07.33-.08.32-.08.33-.09.33-.1.33-.09.32-.08.33-.07.33-.09.33-.07.33-.09.32-.1.33-.07.33-.08.33-.08.32-.08.33-.07.33-.11.33-.09.33-.08.32-.07.33-.08.33-.09.33-.08.32-.11.33-.08.33-.08.33-.07.33-.09.32-.07.33-.1.33-.11.33-.08.32-.08.33-.08.33-.08.33-.08.33-.1.32-.11.33-.08.33-.08.33-.08.32-.07.33-.09.33-.11.33-.06.33-.08.32-.08.33-.08.33-.07.33-.11.32-.09.33-.08.33-.08.33-.08.33-.08.32-.09.33-.1.33-.08.33-.08.32-.07.33-.09.33-.07.33-.1.32-.11.33-.08.33-.08.33-.08.33-.08.32-.07.33-.12.33-.09.33-.09.32-.07.33-.09.33-.07.33-.1.33-.11.32-.07.33-.08.33-.08.33-.09.32-.08.33-.1.33-.09.33-.09.33-.07.32-.1.33-.07.33-.11.33-.1.32-.08.33-.08.33-.08.33-.08.33-.1.32-.11.33-.09.33-.08.33-.08.32-.08.33-.09.33-.11.33-.09.33-.09.32-.09.33-.08.33-.07.33-.11.32-.09.33-.09.33-.07.33-.08.32-.08.33-.09.33-.11.33-.08.33-.08.32-.09.33-.08.33-.08.33-.11.32-.1.33-.08.33-.07.33-.09.33-.08.32-.1.33-.11.33-.08.33-.08.32-.08.33-.09.33-.09.33-.12.33-.08.32-.08.33-.09.33-.09.33-.09.32-.1.33-.09.33-.08.33-.07.33-.1.32-.07.33-.11.33-.1.33-.09.32-.07.33-.1.33-.07.33-.11.33-.11.32-.08.33-.08.33-.09.33-.08.32-.1.33-.11.33-.09.33-.08.33-.09.32-.08.33-.11.33-.11.33-.09.32-.08.33-.08.33-.09.33-.11.32-.11.33-.08.33-.07.33-.08.33-.08.32-.07.33-.11.33-.1.33-.08.32-.07.33-.09.33-.08.33-.1.33-.1.32-.09.33-.07.33-.09.33-.08.32-.09.33-.1.33-.09.33-.08.33-.08.32-.09.33-.07.33-.11.33-.1.32-.09.33-.07.33-.1.33-.07.33-.11.32-.11.33-.08.33-.08.33-.08.32-.08.33-.1.33-.11.33-.08.33-.08.32-.08.33-.08.33-.1.33-.1.32-.09.33-.09.33-.08.33-.09.33-.09.32-.11.33-.09.33-.08.33-.09.32-.08.33-.08.33-.11.33-.11.32-.08.33-.08.33-.1.33-.07.33-.12.32-.1.33-.09.33-.09.33-.09.32-.07.33-.11.33-.1.33-.08.33-.07.32-.1.33-.07.33-.11.33-.1.32-.09.33-.07.33-.09.33-.09.33-.09.32-.12.33-.09.33-.08.33-.08.32-.09.33-.09.33-.11.33-.09.33-.08.32-.09.33-.09.33-.09.33-.11.32-.09.33-.09.33-.09.33-.09.33-.1.32-.11.33-.09.33-.08.33-.08.32-.09.33-.08.33-.12.33-.09.32-.09.33-.09.33-.08.33-.09.33-.12.32-.09.33-.09.33-.09.33-.09.32-.09.33-.11.33-.09.33-.09.33-.09.32-.09.33-.1.33-.12.33-.09.32-.08.33-.09.33-.09.33-.11.33-.11.32-.09.33-.09.33-.09.33-.07.32-.1.33-.11.33-.08.33-.08.33-.08.32-.09.33-.09.33-.11.33-.08.32-.09.33-.08.33-.09.33-.09.33-.11.32-.09.33-.09.33-.08.33-.09.32-.07.33-.11.33-.11.33-.09.33-.08.32-.09.33-.08.33-.11.33-.11.32-.08.33-.09.33-.09.33-.09.32-.1.33-.11.33-.08.33-.08.33-.09.32-.08.33-.11.33-.11.33-.08.32-.08.33-.1.33-.08.33-.11.33-.11.32-.09.33-.09.33-.08.33-.08.32-.11.33-.11.33-.09.33-.08.33-.09.32-.08.33-.13.33-.09.33-.09.32-.09.33-.09.33-.1.33-.13.33-.09.32-.08.33-.08.33-.09.33-.09.32-.12.33-.09.33-.08.33-.08.33-.09.32-.09.33-.12.33-.09.33-.08.32-.09.33-.09.33-.1.33-.12.33-.09.32-.08.33-.08.33-.09.33-.1.32-.12.33-.09.33-.08.33-.09.32-.09.33-.11.33-.11.33-.09.33-.08.32-.1.33-.09.33-.11.33-.11.32-.08.33-.08.33-.1.33-.08.33-.11.32-.11.33-.09.33-.09.33-.09.32-.08.33-.13.33-.1.33-.09.33-.09.32-.09.33-.1.33-.12.33-.09.32-.09.33-.09.33-.09.33-.11.33-.12.32-.09.33-.08.33-.1.33-.08.32-.13.33-.1.33-.09.33-.1.33-.08.32-.09.33-.1.33-.09.33-.08.32-.08.33-.09.33-.07.33-.11.32-.1.33-.09.33-.07.33-.1.33-.07.32-.12.33-.1.33-.09.33-.07.32-.09.33-.08.33-.11.33-.1.33-.09.32-.08.33-.1.33-.07.33-.11.32-.11.33-.09.33-.08.33-.1.33-.08.32-.11.33-.1.33-.09.33-.07.32-.09.33-.08.33-.11.33-.11.33-.09.32-.07.33-.09.33-.08.33-.11.32-.11.33-.09.33-.08.33-.1.33-.08.32-.11.33-.1.33-.09.33-.08.32-.09.33-.08.33-.12.33-.1.33-.09.32-.08.33-.1.33-.08.33-.12.32-.11.33-.09.33-.09.33-.08.32-.07.33-.11.33-.11.33-.08.33-.09.32-.08.33-.09.33-.1.33-.11.32-.08.33-.09.33-.09.33-.08.33-.11.32-.11.33-.09.33-.08.33-.09.32-.08.33-.12.33-.1.33-.09.33-.09.32-.09.33-.09.33-.12.33-.1.32-.08.33-.09.33-.09.33-.11.33-.11.32-.09.33-.08.33-.08.33-.09.32-.11.33-.11.33-.09.33-.08.33-.1.32-.08.33-.11.33-.11.33-.09.32-.08.33-.1.33-.09.33-.12.33-.1.32-.08.33-.1.33-.09.33-.1.32-.12.33-.09.33-.08.33-.1.32-.09.33-.12.33-.1.33-.1.33-.08.32-.1.33-.08.33-.12.33-.09.32-.09.33-.07.33-.1.33-.08.33-.11.32-.1.33-.09.33-.08.33-.09.32-.08.33-.12.33-.1.33-.09.33-.09.32-.09.33-.08.33-.11.33-.1.32-.09.33-.09.33-.09.33-.09.33-.11.32-.1.33-.09.33-.09.33-.09.32-.1.33-.13.33-.09.33-.08.33-.08.32-.09.33-.11.33-.11.33-.09.32-.08.33-.1.33-.08.33-.11.32-.11.33-.09.33-.08.33-.1.33-.08.32-.12.33-.11.33-.09.33-.09.32-.09.33-.1.33-.11.33-.1.33-.09.32-.09.33-.09.33-.11.33-.12.32-.09.33-.09.33-.1.33-.08.33-.13.32-.09.33-.09.33-.09.33-.09.32-.08.33-.12.33-.1.33-.09.33-.09.32-.09.33-.09.33-.12.33-.1.32-.08.33-.09.33-.1.33-.1.33-.12.32-.09.33-.08.33-.1.33-.08.32-.12.33-.11.33-.09.33-.09.33-.09.32-.1.33-.12.33-.1.33-.08.32-.1.33-.09.33-.11.33-.11.32-.09.33-.08.33-.1.33-.09.33-.11.32-.11.33-.09.33-.1.33-.09.32-.1.33-.13.33-.09.33-.09.33-.1.32-.08.33-.12.33-.11.33-.09.32-.1.33-.09.33-.1.33-.13.33-.09.32-.09.33-.09.33-.1.33-.12.32-.11.33-.1.33-.09.33-.09.33-.09.32-.1.33-.1.33-.08.33-.09.32-.09.33-.08.33-.12.33-.09.33-.09.32-.09.33-.08.33-.09.33-.12.32-.1.33-.09.33-.08.33-.09.33-.09.32-.12.33-.08.33-.09.33-.09.32-.09.33-.1.33-.12.33-.09.32-.08.33-.09.33-.09.33-.11.33-.12.32-.08.33-.08.33-.1.33-.08.32-.11.33-.11.33-.09.33-.08.33-.09.32-.08.33-.12.33-.11.33-.09.32-.09.33-.09.33-.1.33-.12.33-.09.32-.09.33-.09.33-.09.33-.1.32-.12.33-.09.33-.09.33-.1.33-.08.32-.12.33-.11.33-.09.33-.1.32-.09.33-.1.33-.11.33-.09.33-.09.32-.09.33-.08.33-.1.33-.12.32-.1.33-.08.33-.08.33-.09.32-.11.33-.12.33-.09.33-.08.33-.11.32-.08.33-.11.33-.1.33-.1.32-.08.33-.1.33-.08.33-.12.33-.1.32-.1.33-.09.33-.09.33-.11.32-.12.33-.09.33-.09.33-.1.33-.08.32-.12.33-.1.33-.09.33-.09.32-.1.33-.09.33-.12.33-.09.33-.1.32-.09.33-.09.33-.11.33-.12.32-.09.33-.09.33-.1.33-.08.33-.12.32-.11.33-.09.33-.09.33-.1.32-.11.33-.12.33-.09.33-.09.33-.1.32-.09.33-.13.33-.1.33-.1.32-.09.33-.09.33-.1.33-.11.32-.09.33-.08.33-.09.33-.09.33-.11.32-.11.33-.09.33-.08.33-.1.32-.08.33-.12.33-.12.33-.1.33-.1.32-.1.33-.09.33-.13.33-.3.32-.11.33-.1.33-.11.33-.1.33-.14.32-.11.33-.1.33-.11.33-.09.32-.13.33-.14.33-.1.33-.1.33-.1.32-.1.33-.13.33-.11.33-.09.32-.1.33-.09.33-.11.33-.12.33-.1.32-.08.33-.11.33-.09.33-.12.32-.11.33-.09.33-.1.33-.09.33-.11.32-.13.33-.09.33-.09.33-.11.32-.08.33-.12.33-.12.33-.1.32-.09.33-.1.33-.12.33-.13.33-.09.32-.08.33-.1.33-.09.33-.11.32-.11.33-.1.33-.09.33-.09.33-.1.32-.12.33-.11.33-.08.33-.1.32-.1.33-.12.33-.11"/><use xlink:href="#e" color="#3B75EA" transform="matrix(4.5 0 0 4.5 192.85 138.71)"/><use xlink:href="#e" color="#3B75EA" transform="matrix(4.5 0 0 4.5 217.1 42.51)"/></g><path fill="none" d="M33.56 72.01V182M358.04 72.01H33.56" color="#000"/><text stroke-linecap="round" stroke-linejoin="round" stroke-width="0" color="#000" font-family="Arial" font-size="8" text-anchor="middle" transform="translate(195.8 8.61)"><tspan>InsertPersistent - Maximum</tspan></text></svg>