<svg xmlns="http://www.w3.org/2000/svg" xmlns:xlink="http://www.w3.org/1999/xlink" viewBox="0 0 400 200"><path fill="none" d="M0 0h400v200H0z"/><defs><path id="b" stroke="currentColor" stroke-width=".222" d="M-1 0h2M0-1v2"/><path id="c" stroke="currentColor" stroke-width=".222" d="m-1-1 2 2m0-2-2 2"/><path id="a" stroke="currentColor" stroke-width=".222" d="M-1-1h2v2h-2z"/><path id="e" fill="currentColor" stroke="currentColor" stroke-width=".222" d="M-1-1h2v2h-2z"/><use xlink:href="#a" id="d" stroke="currentColor" transform="rotate(45)"/></defs><g fill="none" stroke-linecap="round" stroke-linejoin="round" stroke-width="0" color="#000"><path d="M63.06 182v-9m0-100.99v9"/><text fill="#000" font-family="Arial" font-size="8" text-anchor="middle" transform="translate(63.06 193.6)"><tspan> 1</tspan></text></g><g fill="none" stroke-linecap="round" stroke-linejoin="round" stroke-width="0" color="#000"><path d="M95.83 182v-9m0-100.99v9"/><text fill="#000" font-family="Arial" font-size="8" text-anchor="middle" transform="translate(95.83 193.6)"><tspan> 2</tspan></text></g><g fill="none" stroke-linecap="round" stroke-linejoin="round" stroke-width="0" color="#000"><path d="M128.61 182v-9m0-100.99v9"/><text fill="#000" font-family="Arial" font-size="8" text-anchor="middle" transform="translate(128.61 193.6)"><tspan> 3</tspan></text></g><g fill="none" stroke-linecap="round" stroke-linejoin="round" stroke-width="0" color="#000"><path d="M161.39 182v-9m0-100.99v9"/><text fill="#000" font-family="Arial" font-size="8" text-anchor="middle" transform="translate(161.39 193.6)"><tspan> 4</tspan></text></g><g fill="none" stroke-linecap="round" stroke-linejoin="round" stroke-width="0" color="#000"><path d="M194.16 182v-9m0-100.99v9"/><text fill="#000" font-family="Arial" font-size="8" text-anchor="middle" transform="translate(194.16 193.6)"><tspan> 5</tspan></text></g><g fill="none" stroke-linecap="round" stroke-linejoin="round" stroke-width="0" color="#000"><path d="M226.94 182v-9m0-100.99v9"/><text fill="#000" font-family="Arial" font-size="8" text-anchor="middle" transform="translate(226.94 193.6)"><tspan> 6</tspan></text></g><g fill="none" stroke-linecap="round" stroke-linejoin="round" stroke-width="0" color="#000"><path d="M259.71 182v-9m0-100.99v9"/><text fill="#000" font-family="Arial" font-size="8" text-anchor="middle" transform="translate(259.71 193.6)"><tspan> 7</tspan></text></g><g fill="none" stroke-linecap="round" stroke-linejoin="round" stroke-width="0" color="#000"><path d="M292.49 182v-9m0-100.99v9"/><text fill="#000" font-family="Arial" font-size="8" text-anchor="middle" transform="translate(292.49 193.6)"><tspan> 8</tspan></text></g><g fill="none" stroke-linecap="round" stroke-linejoin="round" stroke-width="0" color="#000"><path d="M325.26 182v-9m0-100.99v9"/><text fill="#000" font-family="Arial" font-size="8" text-anchor="middle" transform="translate(325.26 193.6)"><tspan> 9</tspan></text></g><g fill="none" stroke-linecap="round" stroke-linejoin="round" stroke-width="0" color="#000"><path d="M358.04 182v-9m0-100.99v9"/><text fill="#000" font-family="Arial" font-size="8" text-anchor="middle" transform="translate(358.04 193.6)"><tspan> 10</tspan></text></g><g fill="none" stroke-linecap="round" stroke-linejoin="round" stroke-width="0" color="#000"><path d="M358.04 182h-9"/><text fill="#000" font-family="Arial" font-size="8" transform="translate(366.43 184.6)"><tspan>0.40</tspan></text></g><g fill="none" stroke-linecap="round" stroke-linejoin="round" stroke-width="0" color="#000"><path d="M358.04 168.25h-9"/><text fill="#000" font-family="Arial" font-size="8" transform="translate(366.43 170.85)"><tspan>0.50</tspan></text></g><g fill="none" stroke-linecap="round" stroke-linejoin="round" stroke-width="0" color="#000"><path d="M358.04 154.5h-9"/><text fill="#000" font-family="Arial" font-size="8" transform="translate(366.43 157.1)"><tspan>0.60</tspan></text></g><g fill="none" stroke-linecap="round" stroke-linejoin="round" stroke-width="0" color="#000"><path d="M358.04 140.75h-9"/><text fill="#000" font-family="Arial" font-size="8" transform="translate(366.43 143.35)"><tspan>0.70</tspan></text></g><g fill="none" stroke-linecap="round" stroke-linejoin="round" stroke-width="0" color="#000"><path d="M358.04 127.01h-9"/><text fill="#000" font-family="Arial" font-size="8" transform="translate(366.43 129.61)"><tspan>0.80</tspan></text></g><g fill="none" stroke-linecap="round" stroke-linejoin="round" stroke-width="0" color="#000"><path d="M358.04 113.26h-9"/><text fill="#000" font-family="Arial" font-size="8" transform="translate(366.43 115.86)"><tspan>0.90</tspan></text></g><g fill="none" stroke-linecap="round" stroke-linejoin="round" stroke-width="0" color="#000"><path d="M358.04 99.51h-9"/><text fill="#000" font-family="Arial" font-size="8" transform="translate(366.43 102.11)"><tspan>1.00</tspan></text></g><g fill="none" stroke-linecap="round" stroke-linejoin="round" stroke-width="0" color="#000"><path d="M358.04 85.76h-9"/><text fill="#000" font-family="Arial" font-size="8" transform="translate(366.43 88.36)"><tspan>1.10</tspan></text></g><g fill="none" stroke-linecap="round" stroke-linejoin="round" stroke-width="0" color="#000"><path d="M358.04 72.01h-9"/><text fill="#000" font-family="Arial" font-size="8" transform="translate(366.43 74.61)"><tspan>1.20</tspan></text></g><path fill="none" d="M33.56 72.01V182M358.04 72.01H33.56" color="#000"/><text stroke-linecap="round" stroke-linejoin="round" stroke-width="0" color="#000" font-family="Arial" font-size="8" text-anchor="middle" transform="rotate(-90 69.74 57.27)"><tspan font-weight="bold">Duration </tspan><tspan> in milliseconds</tspan></text><text stroke-linecap="round" stroke-linejoin="round" color="#000" font-family="Arial" font-size="8" transform="translate(106.2 30.11)"><tspan>AVLBottomUp</tspan></text><g fill="none" stroke="currentColor" stroke-linecap="round" stroke-linejoin="round" color="#000"><path stroke="#000" d="M69.2 27.51h31.4m-67.04 153.4.33-.8.33-.56.32-.36.33-.22.33-.15.33-.15.32-.19.33-.26.33-.33.33-.36.33-.36.32-.33.33-.28.33-.22.33-.17.32-.15.33-.15.33-.17.33-.2.33-.24.32-.28.33-.31.33-.31.33-.31.32-.29.33-.26.33-.23.33-.19.32-.16.33-.12.33-.1.33-.07.33-.06.32-.03.33-.03.33-.02.33-.01.32-.02.33-.01.33-.02.33-.02.33-.03.32-.04.33-.05.33-.06.33-.08.32-.09.33-.1.33-.11.33-.13.33-.14.32-.15.33-.16.33-.17.33-.17.32-.18.33-.17.33-.18.33-.16.33-.16.32-.15.33-.14.33-.12.33-.12.32-.09.33-.09.33-.07.33-.06.33-.04.32-.04.33-.03.33-.02.33-.01.32-.01.33-.01h1.64l.33-.01h.33l.32-.01h.33l.33-.01.33-.01.32-.01.33-.01.33-.01.33-.02.33-.01.32-.02.33-.01.33-.02.33-.01.32-.02.33-.02.33-.01.33-.02.33-.02.32-.02.33-.02.33-.02.33-.03.32-.03.33-.03.33-.04.33-.05.33-.06.32-.06.33-.07.33-.08.33-.08.32-.1.33-.1.33-.11.33-.12.33-.12.32-.13.33-.13.33-.13.33-.14.32-.13.33-.13.33-.13.33-.13.33-.12.32-.12.33-.11.33-.1.33-.1.32-.09.33-.08.33-.08.33-.07.33-.06.32-.05.33-.05.33-.05.33-.03.32-.04.33-.03.33-.02.33-.02.32-.01.33-.02.33-.01.33-.01h.33l.32-.01h1.97l.33.01h.65l.33.01h.66l.32.01h.66l.33.01h.33l.32.01h.99l.32.01h3.94l.33-.01h.98l.33-.01h.65l.33-.01h.33l.32-.01h.99l.33-.01h.98l.33-.01h5.9l.32-.01h.66l.33-.01.33-.01.32-.01.33-.01.33-.01.33-.02.32-.02.33-.02.33-.03.33-.03.33-.04.32-.04.33-.04.33-.05.33-.06.32-.05.33-.07.33-.07.33-.07.33-.07.32-.09.33-.08.33-.09.33-.09.32-.09.33-.1.33-.1.33-.1.32-.1.33-.1.33-.1.33-.09.33-.1.32-.1.33-.09.33-.09.33-.09.32-.08.33-.08.33-.08.33-.07.33-.07.32-.06.33-.06.33-.06.33-.05.32-.05.33-.04.33-.04.33-.03.33-.03.32-.03.33-.03.33-.02.33-.02.32-.01.33-.02.33-.01.33-.01h.33l.32-.01h2.3l.33.01h.65l.33.01h.65l.33.01h.99l.32.01h1.64l.33-.01h.98l.33-.01h.66l.32-.01h.66l.33-.01h.32l.33-.01h.33l.33-.01h.65l.33-.01h.33l.33-.01h.65l.33-.01h.98l.33-.01h5.25l.32.01h1.97l.33.01h6.22l.33-.01h1.97l.33-.01h1.96l.33-.01h1.64l.33-.01h7.21l.33.01h2.29l.33.01h2.95l.33.01h1.63l.33.01h.99l.32.01h.66l.33.01h.98l.33.01h1.31l.33.01h1.31l.33-.01h.98l.33-.01h.65l.33-.01.33-.01h.32l.33-.01.33-.01h.33l.33-.01.32-.01.33-.02.33-.01.33-.01.32-.02.33-.01.33-.02.33-.02.33-.02.32-.02.33-.03.33-.03.33-.03.32-.03.33-.04.33-.04.33-.04.33-.05.32-.04.33-.06.33-.05.33-.06.32-.06.33-.07.33-.07.33-.07.33-.08.32-.08.33-.08.33-.08.33-.09.32-.09.33-.09.33-.09.33-.09.33-.09.32-.09.33-.1.33-.09.33-.09.32-.09.33-.08.33-.09.33-.08.32-.08.33-.08.33-.08.33-.07.33-.07.32-.06.33-.07.33-.05.33-.06.32-.05.33-.05.33-.04.33-.04.33-.04.32-.04.33-.03.33-.03.33-.02.32-.03.33-.02.33-.02.33-.02.33-.01.32-.01.33-.01.33-.01.33-.01.32-.01.33-.01h.66l.33-.01h5.24l.33.01h2.62l.33.01h6.88l.33.01h1.64l.32.01h.99l.33.01h1.31l.32.01h.99l.33.01h2.62l.33.01h4.26l.32-.01h7.21l.33-.01h1.31l.33-.01h1.31l.33-.01h1.31l.33-.01h2.62l.33-.01h2.95l.33-.01h12.78l.33-.01h1.63l.33-.01h6.89l.32-.01h.99l.32-.01h.99l.33-.01h2.95l.32.01h.33l.33.01h.33l.32.01h.33l.33.01h.33l.33.01h.65l.33.01h.33l.32.01h1.31l.33.01h3.28l.33-.01h.98l.33-.01h.33l.32-.01h.33l.33-.01h.33l.33-.01h.32l.33-.01h.33l.33-.01h2.62l.33.01h.65l.33.01h.33l.33.01h3.93l.33-.01h.32l.33.01h1.31l.33.01h.33l.33.01h.65l.33.01h2.62l.33-.01h.65l.33-.01h1.97l.33.01h.32l.33.01h.33l.33.01.33.01.32.01h.33l.33.01h.33l.32.01h.66l.33-.01h.33l.32-.01.33-.01.33-.01.33-.01.32-.01.33-.01.33-.01.33-.01.32-.01h1.32l.32.01h.33l.33.01.33.01.32.02.33.01.33.01.33.01.33.01.32.01h.99l.32-.01.33-.01.33-.01.33-.02.33-.02.32-.01.33-.02.33-.02.33-.01.32-.01.33-.01.33-.01h.33l.33.01h.32l.33.01.33.02.33.01.32.01.33.01.33.01h.33l.33.01h.98l.33-.01h.65l.33-.01h.33l.33-.01.32-.01.33-.01.33-.01h.33l.32-.01h.33l.33.01.33.01.32.01.33.04.33.05.33.09.33.1.32.09.33.02.33-.07.33-.18.32-.24.33-.17.33.05.33.39.33.66.32.63.33.05.33-.91.33-1.65.32-1.57.33-1.25.33-5.01"/><use xlink:href="#b" transform="matrix(4.5 0 0 4.5 355.09 158.11)"/><use xlink:href="#b" transform="matrix(4.5 0 0 4.5 84.9 27.51)"/></g><text stroke-linecap="round" stroke-linejoin="round" color="#000" font-family="Arial" font-size="8" transform="translate(106.2 45.11)"><tspan>AVLTopDown</tspan></text><g fill="none" stroke="currentColor" stroke-linecap="round" stroke-linejoin="round" color="#000"><path stroke="#29C3F6" stroke-dasharray="1.0,2.0" d="M69.2 42.51h31.4M33.56 179.97l.33-.94.33-.63.32-.37.33-.19.33-.11.33-.09.32-.15.33-.21.33-.28.33-.3.33-.3.32-.27.33-.21.33-.15.33-.11.32-.09.33-.09.33-.12.33-.15.33-.21.32-.25.33-.28.33-.31.33-.31.32-.31.33-.3.33-.28.33-.25.32-.22.33-.2.33-.17.33-.14.33-.11.32-.09.33-.07.33-.05.33-.03.32-.03.33-.01.33-.02.33-.02.33-.02.32-.02.33-.04.33-.04.33-.05.32-.07.33-.08.33-.09.33-.11.33-.11.32-.13.33-.14.33-.14.33-.14.32-.15.33-.15.33-.14.33-.13.33-.13.32-.12.33-.11.33-.1.33-.09.32-.07.33-.08.33-.06.33-.05.33-.06.32-.04.33-.04.33-.04.33-.04.32-.03.33-.03.33-.03.33-.03.33-.02.32-.02.33-.02.33-.02.33-.01.32-.01.33-.01h.98l.33.01.33.01.33.01.33.01.32.02.33.01.33.02.33.01.32.01.33.01.33.01h.66l.32-.01.33-.01.33-.02.33-.03.32-.04.33-.05.33-.05.33-.07.33-.07.32-.09.33-.09.33-.11.33-.11.32-.11.33-.13.33-.13.33-.13.33-.14.32-.14.33-.14.33-.14.33-.14.32-.14.33-.13.33-.13.33-.12.33-.12.32-.11.33-.1.33-.1.33-.1.32-.08.33-.08.33-.07.33-.07.33-.06.32-.06.33-.05.33-.05.33-.04.32-.04.33-.04.33-.03.33-.03.32-.02.33-.03.33-.02.33-.01.33-.02.32-.01.33-.02.33-.01.33-.01h.32l.33-.01h.33l.33-.01h1.64l.32.01h.66l.33.01h.65l.33.01h.66l.32.01h3.28l.33-.01h.98l.33-.01h.98l.33-.01h3.28l.33.01h4.59l.32-.01h.33l.33-.01h.33l.32-.01h.33l.33-.01.33-.01.33-.01.32-.02.33-.01.33-.02.33-.02.32-.02.33-.03.33-.02.33-.03.33-.03.32-.04.33-.04.33-.04.33-.04.32-.05.33-.05.33-.05.33-.06.33-.06.32-.06.33-.07.33-.06.33-.07.32-.07.33-.08.33-.07.33-.07.32-.08.33-.08.33-.07.33-.08.33-.07.32-.07.33-.07.33-.07.33-.07.32-.07.33-.06.33-.06.33-.06.33-.05.32-.05.33-.05.33-.04.33-.04.32-.04.33-.03.33-.04.33-.02.33-.03.32-.02.33-.02.33-.02.33-.02.32-.01.33-.01.33-.01.33-.01.33-.01.32-.01h.33l.33-.01h.33l.32-.01h1.64l.33-.01h9.18l.33-.01h1.31l.32-.01h.99l.33-.01h.98l.33-.01h.98l.33-.01h1.31l.33-.01h1.31l.33-.01h.98l.33-.01h.65l.33-.01h.65l.33-.01h.66l.33-.01h.32l.33-.01h.66l.32-.01h.99l.33-.01h6.55l.33.01h2.62l.33.01h1.31l.33.01h.65l.33.01h.66l.32.01h.66l.33.01h.65l.33.01h3.93l.33-.01h.98l.33-.01h.99l.32-.01h3.94l.32.01h1.32l.32.01h1.64l.33.01h.66l.32-.01h1.31l.33-.01h.33l.33-.01h.32l.33-.01.33-.01.33-.01.33-.01.32-.01.33-.02.33-.01.33-.02.32-.02.33-.02.33-.02.33-.03.33-.02.32-.03.33-.04.33-.03.33-.04.32-.04.33-.05.33-.05.33-.05.33-.05.32-.06.33-.06.33-.07.33-.07.32-.07.33-.08.33-.08.33-.08.33-.08.32-.09.33-.09.33-.1.33-.09.32-.1.33-.09.33-.1.33-.1.33-.1.32-.1.33-.1.33-.09.33-.1.32-.09.33-.09.33-.09.33-.09.32-.08.33-.09.33-.07.33-.08.33-.07.32-.07.33-.06.33-.06.33-.06.32-.05.33-.05.33-.05.33-.04.33-.04.32-.04.33-.03.33-.03.33-.03.32-.02.33-.03.33-.02.33-.02.33-.02.32-.01.33-.01.33-.02.33-.01.32-.01h.33l.33-.01.33-.01h.33l.32-.01h.99l.32-.01h7.54l.33-.01h4.92l.32-.01h2.95l.33-.01h1.31l.33-.01h.98l.33-.01h.66l.33-.01h1.31l.32-.01h2.63l.32.01h.66l.33.01h.32l.33.01h.33l.33.01h.33l.32.01.33.01.33.01h.33l.32.01.33.01.33.01h.33l.33.01.32.01.33.01h.33l.33.01.32.01h.33l.33.01h.33l.33.01h.98l.33.01h1.31l.33-.01h.65l.33-.01h.65l.33-.01.33-.01h.33l.33-.01h.32l.33-.01.33-.01h.33l.32-.01h.33l.33-.01.33-.01h.32l.33-.01h.66l.33-.01h.32l.33-.01h.98l.33-.01h11.47l.33-.01h.99l.32-.01h.66l.33-.01h.65l.33-.01h.33l.32-.01h.66l.33-.01h.33l.32-.01h.33l.33-.01h.65l.33-.01h.99l.32-.01h1.64l.33.01h1.31l.33.01h.65l.33.01h.99l.32.01h.66l.33.01h.32l.33.01h.33l.33.01.33.01h.32l.33.01.33.01.33.01.32.01.33.01.33.01.33.01.33.01.32.01.33.01.33.01h.33l.32.01.33.01h.66l.32.01h.99l.33-.01h.65l.33-.01h.33l.32-.01h.33l.33-.01h.33l.33-.01h.32l.33-.01h.98l.33-.01h3.94l.32.01h.99l.32.01h.33l.33.01h.33l.33.01h.32l.33.01h.66l.32.01h1.31l.33-.01h.33l.33-.01.33-.01.32-.01.33-.01.33-.01.33-.01.32-.01h.33l.33-.01.33-.01.33-.01h.32l.33-.01h.33l.33-.01h2.29l.33-.01h.65l.33-.01.33-.01h.33l.33-.01.32-.01.33-.01h.33l.33-.01h.32l.33-.01h.99l.32.01h.33l.33.01.33.01.32.01.33.01.33.01.33.01.33.01.32.01h.33l.33.01h3.93l.33.01.33.01.32.01.33.01.33.01.33.01.33.01.32.01.33.01.33.01h.33l.32.01h1.32l.32-.01h1.97l.33-.01h.33l.32-.01.33-.01.33-.01.33-.01.32-.01.33-.02.33-.01.33-.01.33-.01h.32l.33-.01.33.01h.33l.32.01.33.01h.33l.33-.01.33-.01.32-.02.33-.03.33-.04.33-.04.32-.05.33-.05.33-.05.33-.04.32-.02.33.01.33.05.33.07.33.09.32.09.33.05.33-.01.33-.05.32-.06.33.01.33.17.33.37.33.53.32.5.33.14.33-.6.33-1.58.32-2.14.33-.52.33 5.86"/><use xlink:href="#c" color="#29C3F6" transform="matrix(4.5 0 0 4.5 84.69 164.81)"/><use xlink:href="#c" color="#29C3F6" transform="matrix(4.5 0 0 4.5 84.9 42.51)"/></g><text stroke-linecap="round" stroke-linejoin="round" color="#000" font-family="Arial" font-size="8" transform="translate(238.4 30.11)"><tspan>RedBlackBottomUp</tspan></text><g fill="none" stroke="currentColor" stroke-linecap="round" stroke-linejoin="round" color="#000"><path stroke="#F44336" d="M201.4 27.51h31.4M33.56 140.73l.33-.9.33-.76.32-.75.33-.82.33-.84.33-.83.32-.78.33-.69.33-.62.33-.57.33-.52.32-.5.33-.47.33-.47.33-.44.32-.44.33-.42.33-.41.33-.4.33-.38.32-.39.33-.37.33-.36.33-.34.32-.32.33-.31.33-.28.33-.26.32-.24.33-.23.33-.21.33-.21.33-.21.32-.2.33-.21.33-.22.33-.22.32-.23.33-.22.33-.23.33-.23.33-.23.32-.22.33-.22.33-.21.33-.21.32-.2.33-.21.33-.21.33-.21.33-.22.32-.22.33-.22.33-.22.33-.23.32-.22.33-.22.33-.21.33-.2.33-.18.32-.18.33-.16.33-.14.33-.13.32-.12.33-.1.33-.08.33-.07.33-.07.32-.05.33-.06.33-.04.33-.05.32-.05.33-.05.33-.06.33-.07.33-.07.32-.09.33-.09.33-.1.33-.11.32-.12.33-.13.33-.14.33-.14.32-.14.33-.14.33-.15.33-.14.33-.14.32-.14.33-.13.33-.12.33-.12.32-.12.33-.11.33-.1.33-.09.33-.09.32-.09.33-.09.33-.08.33-.08.32-.08.33-.09.33-.08.33-.09.33-.09.32-.1.33-.1.33-.11.33-.11.32-.12.33-.12.33-.13.33-.13.33-.13.32-.14.33-.14.33-.13.33-.14.32-.14.33-.14.33-.13.33-.13.33-.13.32-.12.33-.11.33-.11.33-.1.32-.1.33-.09.33-.08.33-.07.33-.07.32-.06.33-.06.33-.04.33-.05.32-.03.33-.04.33-.02.33-.03.32-.01.33-.02.33-.01.33-.01.33-.01h.32l.33-.01h1.97l.33-.01H86l.33-.01.33-.01.32-.01.33-.02.33-.01.33-.03.33-.02.32-.03.33-.03.33-.04.33-.04.32-.05.33-.06.33-.05.33-.07.33-.07.32-.07.33-.08.33-.08.33-.09.32-.09.33-.1.33-.1.33-.1.33-.1.32-.1.33-.1.33-.11.33-.1.32-.1.33-.1.33-.09.33-.09.32-.09.33-.08.33-.08.33-.08.33-.07.32-.06.33-.06.33-.06.33-.05.32-.04.33-.04.33-.04.33-.04.33-.03.32-.03.33-.02.33-.03.33-.02.32-.02.33-.02.33-.01.33-.02.33-.02.32-.01.33-.02.33-.01.33-.02.32-.01.33-.01.33-.02.33-.01.33-.02.32-.02.33-.02.33-.02.33-.02.32-.03.33-.03.33-.03.33-.03.33-.04.32-.04.33-.05.33-.05.33-.06.32-.06.33-.07.33-.07.33-.08.33-.09.32-.09.33-.09.33-.1.33-.11.32-.1.33-.11.33-.12.33-.12.32-.11.33-.12.33-.12.33-.12.33-.12.32-.12.33-.11.33-.12.33-.11.32-.1.33-.1.33-.1.33-.09.33-.08.32-.08.33-.08.33-.07.33-.06.32-.06.33-.06.33-.04.33-.05.33-.04.32-.03.33-.04.33-.03.33-.02.32-.02.33-.02.33-.02.33-.02.33-.01.32-.01.33-.01.33-.01.33-.01.32-.01h.33l.33-.01h.33l.33-.01h.65l.33-.01h2.62l.33.01h.98l.33.01h.33l.32.01h.66l.33.01h.33l.32.01h.33l.33.01.33.01h.32l.33.01h.33l.33.01h.33l.32.01h.33l.33.01h.33l.32.01h.66l.33.01h.33l.32.01h.99l.32.01h3.94l.33-.01h.32l.33-.01.33-.01.33-.01.32-.01.33-.01.33-.01.33-.02.32-.02.33-.02.33-.02.33-.03.33-.03.32-.03.33-.04.33-.04.33-.04.32-.05.33-.04.33-.06.33-.06.33-.06.32-.06.33-.07.33-.07.33-.07.32-.08.33-.07.33-.08.33-.09.33-.08.32-.08.33-.09.33-.09.33-.08.32-.09.33-.08.33-.09.33-.08.33-.09.32-.08.33-.08.33-.07.33-.08.32-.07.33-.07.33-.07.33-.06.33-.06.32-.06.33-.05.33-.06.33-.04.32-.05.33-.04.33-.04.33-.04.33-.03.32-.03.33-.03.33-.02.33-.02.32-.02.33-.02.33-.02.33-.01.32-.01.33-.01.33-.01.33-.01.33-.01h.65l.33-.01h3.93l.33.01h2.29l.33.01h1.97l.33.01h1.96l.33.01h1.31l.33-.01h1.31l.33-.01h.65l.33-.01.33-.01h.33l.32-.01.33-.01h.33l.33-.01.33-.01.32-.02.33-.01.33-.01.33-.02.32-.01.33-.02.33-.02.33-.02.33-.03.32-.02.33-.03.33-.03.33-.04.32-.04.33-.04.33-.04.33-.05.33-.05.32-.06.33-.06.33-.06.33-.07.32-.07.33-.08.33-.07.33-.09.33-.08.32-.09.33-.09.33-.09.33-.1.32-.1.33-.1.33-.1.33-.1.33-.1.32-.1.33-.1.33-.1.33-.1.32-.1.33-.09.33-.1.33-.09.32-.08.33-.08.33-.08.33-.08.33-.07.32-.07.33-.06.33-.06.33-.06.32-.05.33-.05.33-.05.33-.04.33-.03.32-.04.33-.03.33-.03.33-.02.32-.02.33-.02.33-.02.33-.02.33-.01.32-.01.33-.01.33-.01.33-.01h.32l.33-.01h.33l.33-.01h.65l.33-.01h7.21l.33-.01h4.59l.33-.01h1.63l.33-.01h1.64l.33-.01h2.29l.33-.01h5.9l.33.01h5.24l.33.01h.98l.33.01h.98l.33.01h.66l.33.01h.65l.33.01h.65l.33.01h2.95l.33-.01h.66l.32-.01h.33l.33-.01h.33l.32-.01h.33l.33-.01h.65l.33-.01h.66l.33-.01h2.95l.32.01h.33l.33.01h.33l.32.01.33.01h.33l.33.01.33.01.32.01h.33l.33.01.33.01.32.01.33.01.33.01.33.01.33.01.32.01.33.01h.33l.33.01.32.01.33.01h.33l.33.01.33.01h.32l.33.01h.33l.33.01h2.95l.32-.01h.33l.33-.01.33-.01.32-.01.33-.01.33-.01.33-.02.33-.02.32-.02.33-.02.33-.03.33-.03.32-.03.33-.04.33-.05.33-.04.33-.05.32-.06.33-.06.33-.07.33-.07.32-.08.33-.08.33-.08.33-.09.33-.1.32-.1.33-.1.33-.11.33-.11.32-.11.33-.12.33-.11.33-.12.33-.11.32-.12.33-.11.33-.11.33-.11.32-.1.33-.11.33-.1.33-.09.33-.09.32-.08.33-.08.33-.08.33-.07.32-.06.33-.06.33-.06.33-.05.33-.05.32-.04.33-.04.33-.03.33-.04.32-.03.33-.02.33-.03.33-.02.32-.02.33-.02.33-.01.33-.02.33-.01.32-.01.33-.01.33-.01.33-.01h2.29l.33.01.33.01.32.01.33.01h.33l.33.02.33.01.32.01.33.01.33.02.33.01.32.01.33.02.33.02.33.01.33.02.32.02.33.01.33.02.33.02.32.02.33.01.33.02.33.02.33.01.32.01.33.01.33.01h.65l.33-.01.33-.01.33-.02.32-.03.33-.04.33-.05.33-.07.33-.09.32-.1.33-.13.33-.16.33-.19.32-.22.33-.26.33-.3.33-.35.33-.4.32-.44.33-.51.33-.55.33-.61.32-.67.33-.71.33-.76.33-.79.33-.82.32-.84.33-.85.33-.85.33-.82.32-.8.33-.75.33-.7.33-.63.33-.55.32-.47.33-.37.33-.28.33-.19.32-.09.33.01.33.08.33.17.33.24.32.31.33.36.33.4.33.45.32.48.33.5.33.53.33.54.33.56.32.57.33.59.33.6.33.6.32.62.33.62.33.63.33.62.32.62.33.62.33.6.33.58.33.55.32.53.33.49.33.45.33.42.32.36.33.33.33.28.33.25.33.21.32.17.33.15.33.12.33.1.32.09.33.07.33.06.33.06.33.04.32.04.33.04.33.02.33.02.32.02h.66l.33-.01.33-.01.32-.03.33-.02.33-.02.33-.03.32-.02.33-.02.33-.01h.33l.33.01.32.01.33.03.33.04.33.05.32.05.33.06.33.06.33.05.33.05.32.02h.33l.33-.02.33-.05.32-.06.33-.07.33-.07.33-.06.32-.05.33-.04.33-.04.33-.05.33-.07.32-.09.33-.08.33-.07.33-.02.32.04.33.06.33.07.33.02.33.06.32.28.33.82.33 1.35.33.87.32-2.22.33-8.11.33-12.23"/><use xlink:href="#d" color="#F44336" transform="matrix(4.5 0 0 4.5 138.77 103.46)"/><use xlink:href="#d" color="#F44336" transform="matrix(4.5 0 0 4.5 217.1 27.51)"/></g><text stroke-linecap="round" stroke-linejoin="round" color="#000" font-family="Arial" font-size="8" transform="translate(238.4 45.11)"><tspan>RedBlackTopDown</tspan></text><g fill="none" stroke="currentColor" stroke-linecap="round" stroke-linejoin="round" color="#000"><path stroke="#3B75EA" stroke-dasharray="1.0,2.0" d="M201.4 42.51h31.4M33.56 151.58l.33-.33.33-.41.32-.56.33-.67.33-.67.33-.59.32-.5.33-.44.33-.41.33-.44.33-.47.32-.5.33-.51.33-.48.33-.44.32-.38.33-.32.33-.26.33-.2.33-.18.32-.15.33-.14.33-.15.33-.17.32-.2.33-.22.33-.25.33-.28.32-.29.33-.3.33-.3.33-.29.33-.28.32-.27.33-.24.33-.23.33-.21.32-.2.33-.19.33-.17.33-.17.33-.17.32-.16.33-.16.33-.14.33-.14.32-.13.33-.12.33-.1.33-.08.33-.07.32-.06.33-.04.33-.03.33-.02.32-.02.33-.02.33-.03.33-.03.33-.05.32-.06.33-.07.33-.09.33-.11.32-.12.33-.14.33-.15.33-.16.33-.17.32-.18.33-.18.33-.19.33-.19.32-.19.33-.19.33-.18.33-.18.33-.17.32-.16.33-.15.33-.14.33-.13.32-.12.33-.11.33-.1.33-.09.32-.08.33-.07.33-.08.33-.07.33-.06.32-.08.33-.07.33-.08.33-.08.32-.09.33-.09.33-.11.33-.1.33-.12.32-.11.33-.12.33-.12.33-.11.32-.11.33-.11.33-.1.33-.09.33-.08.32-.06.33-.06.33-.03.33-.03.32-.01.33.01.33.02.33.03.33.04.32.05.33.06.33.06.33.06.32.06.33.06.33.06.33.05.33.03.32.03.33.02.33.01.33-.01.32-.02.33-.03.33-.05.33-.06.33-.07.32-.08.33-.09.33-.09.33-.11.32-.11.33-.11.33-.11.33-.12.32-.12.33-.12.33-.13.33-.12.33-.12.32-.12.33-.11.33-.12.33-.12.32-.11.33-.11.33-.12.33-.11.33-.11.32-.12.33-.11.33-.11.33-.11.32-.11.33-.11.33-.1.33-.1.33-.1.32-.09.33-.09.33-.08.33-.08.32-.07.33-.06.33-.05.33-.05.33-.03.32-.03.33-.02.33-.01.33-.01h.32l.33.01.33.01.33.02.33.02.32.02.33.02.33.02.33.01.32.02.33.01h.66l.32-.01.33-.01.33-.02.33-.03.33-.03.32-.05.33-.04.33-.06.33-.06.32-.06.33-.07.33-.08.33-.07.33-.08.32-.09.33-.08.33-.08.33-.09.32-.09.33-.08.33-.09.33-.09.33-.08.32-.09.33-.08.33-.09.33-.08.32-.08.33-.08.33-.08.33-.08.33-.08.32-.07.33-.07.33-.07.33-.06.32-.06.33-.05.33-.05.33-.04.33-.03.32-.02.33-.01h.33l.33.01.32.01.33.03.33.05.33.05.33.06.32.07.33.08.33.09.33.1.32.11.33.11.33.11.33.12.32.12.33.12.33.12.33.11.33.11.32.11.33.1.33.1.33.08.32.08.33.07.33.05.33.05.33.04.32.03.33.01.33.01h.33l.32-.01.33-.02.33-.03.33-.04.33-.04.32-.05.33-.05.33-.06.33-.07.32-.07.33-.07.33-.07.33-.08.33-.08.32-.09.33-.08.33-.09.33-.09.32-.09.33-.09.33-.09.33-.09.33-.09.32-.09.33-.09.33-.09.33-.09.32-.08.33-.09.33-.08.33-.08.33-.08.32-.07.33-.07.33-.07.33-.06.32-.06.33-.06.33-.05.33-.05.32-.05.33-.04.33-.03.33-.04.33-.03.32-.03.33-.03.33-.03.33-.03.32-.02.33-.03.33-.02.33-.03.33-.03.32-.03.33-.04.33-.03.33-.04.32-.04.33-.05.33-.05.33-.05.33-.05.32-.06.33-.07.33-.06.33-.07.32-.07.33-.07.33-.08.33-.08.33-.08.32-.08.33-.08.33-.08.33-.08.32-.09.33-.08.33-.08.33-.09.33-.08.32-.08.33-.08.33-.07.33-.08.32-.07.33-.07.33-.06.33-.06.32-.06.33-.05.33-.05.33-.04.33-.03.32-.03.33-.02.33-.02.33-.01.32.01h.33l.33.02.33.02.33.03.32.04.33.05.33.05.33.06.32.06.33.07.33.08.33.08.33.07.32.09.33.08.33.08.33.08.32.08.33.08.33.07.33.07.33.06.32.06.33.05.33.05.33.03.32.03.33.03.33.01.33.01h.33l.32-.01.33-.02.33-.02.33-.03.32-.04.33-.05.33-.04.33-.06.33-.06.32-.06.33-.07.33-.07.33-.08.32-.07.33-.08.33-.08.33-.08.32-.09.33-.08.33-.09.33-.08.33-.08.32-.09.33-.08.33-.08.33-.08.32-.08.33-.07.33-.08.33-.07.33-.07.32-.06.33-.06.33-.06.33-.05.32-.06.33-.04.33-.05.33-.04.33-.03.32-.04.33-.03.33-.02.33-.02.32-.03.33-.01.33-.02.33-.02.33-.01.32-.02.33-.01.33-.01.33-.02.32-.02.33-.01.33-.03.33-.02.33-.02.32-.03.33-.04.33-.03.33-.04.32-.04.33-.05.33-.05.33-.05.33-.06.32-.06.33-.07.33-.06.33-.07.32-.07.33-.08.33-.07.33-.08.32-.08.33-.07.33-.08.33-.08.33-.07.32-.08.33-.07.33-.07.33-.06.32-.06.33-.06.33-.05.33-.05.33-.04.32-.03.33-.02.33-.02.33-.01.32.01.33.01.33.02.33.03.33.05.32.05.33.07.33.07.33.09.32.1.33.11.33.12.33.13.33.14.32.15.33.15.33.16.33.17.32.17.33.17.33.17.33.18.33.17.32.18.33.17.33.16.33.17.32.15.33.15.33.14.33.13.32.12.33.11.33.1.33.1.33.08.32.07.33.06.33.05.33.04.32.03.33.02.33.01.33.01.33-.01.32-.01.33-.02.33-.02.33-.03.32-.03.33-.04.33-.04.33-.04.33-.05.32-.05.33-.05.33-.05.33-.06.32-.05.33-.06.33-.06.33-.06.33-.05.32-.06.33-.06.33-.06.33-.05.32-.05.33-.06.33-.05.33-.05.33-.05.32-.04.33-.05.33-.04.33-.04.32-.04.33-.03.33-.04.33-.03.33-.03.32-.03.33-.02.33-.03.33-.03.32-.02.33-.03.33-.02.33-.03.32-.03.33-.03.33-.03.33-.03.33-.04.32-.04.33-.04.33-.04.33-.05.32-.05.33-.05.33-.06.33-.06.33-.06.32-.06.33-.07.33-.07.33-.07.32-.07.33-.08.33-.07.33-.08.33-.08.32-.08.33-.07.33-.08.33-.08.32-.08.33-.07.33-.08.33-.07.33-.08.32-.07.33-.07.33-.07.33-.06.32-.06.33-.06.33-.06.33-.05.33-.05.32-.04.33-.04.33-.04.33-.02.32-.03.33-.01.33-.01.33-.01.33.01.32.01.33.02.33.02.33.04.32.04.33.04.33.05.33.06.32.06.33.06.33.07.33.07.33.08.32.07.33.07.33.08.33.07.32.06.33.06.33.06.33.06.33.04.32.04.33.03.33.03.33.02.32.01h.33l.33-.01.33-.02.33-.02.32-.03.33-.03.33-.05.33-.05.32-.05.33-.06.33-.07.33-.07.33-.07.32-.07.33-.08.33-.08.33-.09.32-.08.33-.09.33-.08.33-.09.33-.08.32-.09.33-.09.33-.09.33-.08.32-.09.33-.08.33-.09.33-.08.32-.08.33-.08.33-.08.33-.07.33-.07.32-.07.33-.06.33-.06.33-.06.32-.05.33-.05.33-.04.33-.03.33-.04.32-.02.33-.02.33-.02.33-.02.32-.01h.33l.33-.01h1.31l.33-.01h.33l.32-.01h.33l.33-.02.33-.01.33-.02.32-.03.33-.03.33-.04.33-.04.32-.04.33-.05.33-.06.33-.06.33-.07.32-.06.33-.08.33-.07.33-.08.32-.09.33-.08.33-.09.33-.09.33-.08.32-.09.33-.09.33-.09.33-.09.32-.09.33-.09.33-.08.33-.08.32-.08.33-.08.33-.07.33-.07.33-.06.32-.05.33-.05.33-.04.33-.03.32-.02h.66l.33.02.33.03.32.05.33.06.33.08.33.1.32.11.33.13.33.14.33.16.33.18.32.18.33.2.33.22.33.22.32.22.33.24.33.23.33.24.33.23.32.24.33.22.33.22.33.21.32.19.33.18.33.17.33.16.33.13.32.12.33.11.33.08.33.07.32.05.33.04.33.02.33.01h.33l.32-.02.33-.02.33-.04.33-.04.32-.05.33-.06.33-.07.33-.06.32-.08.33-.08.33-.08.33-.08.33-.09.32-.09.33-.09.33-.1.33-.1.32-.11.33-.1.33-.11.33-.11.33-.11.32-.11.33-.12.33-.11.33-.11.32-.11.33-.11.33-.1.33-.09.33-.09.32-.09.33-.07.33-.06.33-.06.32-.04.33-.03.33-.02.33-.01h.33l.32.01.33.02.33.03.33.03.32.04.33.05.33.04.33.05.33.05.32.04.33.03.33.03.33.02.32.01h.33l.33-.01.33-.02.32-.04.33-.04.33-.06.33-.07.33-.08.32-.09.33-.09.33-.1.33-.1.32-.11.33-.11.33-.1.33-.11.33-.1.32-.1.33-.1.33-.08.33-.09.32-.08.33-.07.33-.07.33-.07.33-.06.32-.07.33-.06.33-.07.33-.07.32-.08.33-.08.33-.08.33-.1.33-.1.32-.1.33-.11.33-.11.33-.12.32-.11.33-.11.33-.1.33-.09.33-.08.32-.06.33-.04.33-.02.33.01.32.02.33.05.33.08.33.09.33.11.32.11.33.11.33.09.33.06.32.03.33-.04.33-.11.33-.21.32-.32.33-.46.33-.59.33-.76.33-.92.32-1.08.33-1.25.33-1.39.33-1.53.32-1.63.33-1.7.33-1.73.33-1.7.33-1.64.32-1.51.33-1.34.33-1.13.33-.88.32-.59.33-.31.33-.02.33.26.33.52.32.74.33.92.33 1.06.33 1.16.32 1.22.33 1.24.33 1.23.33 1.21.33 1.15.32 1.11.33 1.03.33.96.33.89.32.8.33.72.33.63.33.53.33.44.32.35.33.25.33.17.33.1.32.02.33-.02.33-.08.33-.12.33-.14.32-.18.33-.2.33-.22.33-.22.32-.2.33-.17.33-.1.33.02.32.15.33.33.33.49.33.63.33.7.32.69.33.6.33.45.33.25.32.07.33-.09.33-.22.33-.34.33-.36.32-.15.33.28.33.4.33-.96.32-4.61.33-8.12.33-.55"/><use xlink:href="#e" color="#3B75EA" transform="matrix(4.5 0 0 4.5 192.85 117.67)"/><use xlink:href="#e" color="#3B75EA" transform="matrix(4.5 0 0 4.5 217.1 42.51)"/></g><path fill="none" d="M33.56 72.01V182M358.04 72.01H33.56" color="#000"/><text stroke-linecap="round" stroke-linejoin="round" stroke-width="0" color="#000" font-family="Arial" font-size="8" text-anchor="middle" transform="translate(195.8 8.61)"><tspan>InsertPersistent - Maximum</tspan></text></svg>