<svg xmlns="http://www.w3.org/2000/svg" xmlns:xlink="http://www.w3.org/1999/xlink" viewBox="0 0 400 250"><path fill="none" d="M0 0h400v250H0z"/><defs><use xlink:href="#a" id="f" fill="currentColor" stroke="none"/><use xlink:href="#b" id="c" stroke="currentColor" transform="rotate(45)"/><use xlink:href="#c" id="e" fill="currentColor" stroke="none"/><path id="b" stroke="currentColor" stroke-width=".267" d="M-1-1h2v2h-2z"/><path id="a" stroke="currentColor" stroke-width=".267" d="m0-1.33-1.33 2h2.66z"/><circle id="d" cx="0" cy="0" r="1" stroke="currentColor" stroke-width=".267"/></defs><path fill="none" stroke="#333" stroke-linecap="round" stroke-linejoin="round" stroke-width=".1" d="M46.1 205V45.01" class="gridline" color="#000"/><g fill="none" stroke-linecap="round" stroke-linejoin="round" stroke-width="0" color="#000"><path d="M46.1 205v-7.5m0-152.49v7.5"/><text fill="#000" font-family="KaTeX_Main" font-size="8" text-anchor="middle" transform="translate(46.1 215.1)"><tspan> 1</tspan></text></g><path fill="none" stroke="#333" stroke-linecap="round" stroke-linejoin="round" stroke-width=".1" d="M82.31 205V45.01" class="gridline" color="#000"/><g fill="none" stroke-linecap="round" stroke-linejoin="round" stroke-width="0" color="#000"><path d="M82.31 205v-7.5m0-152.49v7.5"/><text fill="#000" font-family="KaTeX_Main" font-size="8" text-anchor="middle" transform="translate(82.31 215.1)"><tspan> 2</tspan></text></g><path fill="none" stroke="#333" stroke-linecap="round" stroke-linejoin="round" stroke-width=".1" d="M118.52 205V45.01" class="gridline" color="#000"/><g fill="none" stroke-linecap="round" stroke-linejoin="round" stroke-width="0" color="#000"><path d="M118.52 205v-7.5m0-152.49v7.5"/><text fill="#000" font-family="KaTeX_Main" font-size="8" text-anchor="middle" transform="translate(118.52 215.1)"><tspan> 3</tspan></text></g><path fill="none" stroke="#333" stroke-linecap="round" stroke-linejoin="round" stroke-width=".1" d="M154.73 205V45.01" class="gridline" color="#000"/><g fill="none" stroke-linecap="round" stroke-linejoin="round" stroke-width="0" color="#000"><path d="M154.73 205v-7.5m0-152.49v7.5"/><text fill="#000" font-family="KaTeX_Main" font-size="8" text-anchor="middle" transform="translate(154.73 215.1)"><tspan> 4</tspan></text></g><path fill="none" stroke="#333" stroke-linecap="round" stroke-linejoin="round" stroke-width=".1" d="M190.94 205V45.01" class="gridline" color="#000"/><g fill="none" stroke-linecap="round" stroke-linejoin="round" stroke-width="0" color="#000"><path d="M190.94 205v-7.5m0-152.49v7.5"/><text fill="#000" font-family="KaTeX_Main" font-size="8" text-anchor="middle" transform="translate(190.94 215.1)"><tspan> 5</tspan></text></g><path fill="none" stroke="#333" stroke-linecap="round" stroke-linejoin="round" stroke-width=".1" d="M227.15 205V45.01" class="gridline" color="#000"/><g fill="none" stroke-linecap="round" stroke-linejoin="round" stroke-width="0" color="#000"><path d="M227.15 205v-7.5m0-152.49v7.5"/><text fill="#000" font-family="KaTeX_Main" font-size="8" text-anchor="middle" transform="translate(227.15 215.1)"><tspan> 6</tspan></text></g><path fill="none" stroke="#333" stroke-linecap="round" stroke-linejoin="round" stroke-width=".1" d="M263.36 205V45.01" class="gridline" color="#000"/><g fill="none" stroke-linecap="round" stroke-linejoin="round" stroke-width="0" color="#000"><path d="M263.36 205v-7.5m0-152.49v7.5"/><text fill="#000" font-family="KaTeX_Main" font-size="8" text-anchor="middle" transform="translate(263.36 215.1)"><tspan> 7</tspan></text></g><path fill="none" stroke="#333" stroke-linecap="round" stroke-linejoin="round" stroke-width=".1" d="M299.57 205V45.01" class="gridline" color="#000"/><g fill="none" stroke-linecap="round" stroke-linejoin="round" stroke-width="0" color="#000"><path d="M299.57 205v-7.5m0-152.49v7.5"/><text fill="#000" font-family="KaTeX_Main" font-size="8" text-anchor="middle" transform="translate(299.57 215.1)"><tspan> 8</tspan></text></g><path fill="none" stroke="#333" stroke-linecap="round" stroke-linejoin="round" stroke-width=".1" d="M335.78 205V45.01" class="gridline" color="#000"/><g fill="none" stroke-linecap="round" stroke-linejoin="round" stroke-width="0" color="#000"><path d="M335.78 205v-7.5m0-152.49v7.5"/><text fill="#000" font-family="KaTeX_Main" font-size="8" text-anchor="middle" transform="translate(335.78 215.1)"><tspan> 9</tspan></text></g><path fill="none" stroke="#333" stroke-linecap="round" stroke-linejoin="round" stroke-width=".1" d="M371.99 205V45.01" class="gridline" color="#000"/><g fill="none" stroke-linecap="round" stroke-linejoin="round" stroke-width="0" color="#000"><path d="M371.99 205v-7.5m0-152.49v7.5"/><text fill="#000" font-family="KaTeX_Main" font-size="8" text-anchor="middle" transform="translate(371.99 215.1)"><tspan> 10</tspan></text></g><g fill="none" stroke-linecap="round" stroke-linejoin="round" stroke-width="0" color="#000"><path d="M371.99 205h-7.5"/><text fill="#000" font-family="KaTeX_Main" font-size="8" transform="translate(378.99 207.6)"><tspan>1.10</tspan></text></g><g fill="none" stroke-linecap="round" stroke-linejoin="round" stroke-width="0" color="#000"><path d="M371.99 189h-7.5"/><text fill="#000" font-family="KaTeX_Main" font-size="8" transform="translate(378.99 191.6)"><tspan>1.20</tspan></text></g><g fill="none" stroke-linecap="round" stroke-linejoin="round" stroke-width="0" color="#000"><path d="M371.99 173h-7.5"/><text fill="#000" font-family="KaTeX_Main" font-size="8" transform="translate(378.99 175.6)"><tspan>1.30</tspan></text></g><g fill="none" stroke-linecap="round" stroke-linejoin="round" stroke-width="0" color="#000"><path d="M371.99 157h-7.5"/><text fill="#000" font-family="KaTeX_Main" font-size="8" transform="translate(378.99 159.6)"><tspan>1.40</tspan></text></g><g fill="none" stroke-linecap="round" stroke-linejoin="round" stroke-width="0" color="#000"><path d="M371.99 141h-7.5"/><text fill="#000" font-family="KaTeX_Main" font-size="8" transform="translate(378.99 143.6)"><tspan>1.50</tspan></text></g><g fill="none" stroke-linecap="round" stroke-linejoin="round" stroke-width="0" color="#000"><path d="M371.99 125h-7.5"/><text fill="#000" font-family="KaTeX_Main" font-size="8" transform="translate(378.99 127.6)"><tspan>1.60</tspan></text></g><g fill="none" stroke-linecap="round" stroke-linejoin="round" stroke-width="0" color="#000"><path d="M371.99 109.01h-7.5"/><text fill="#000" font-family="KaTeX_Main" font-size="8" transform="translate(378.99 111.61)"><tspan>1.70</tspan></text></g><g fill="none" stroke-linecap="round" stroke-linejoin="round" stroke-width="0" color="#000"><path d="M371.99 93.01h-7.5"/><text fill="#000" font-family="KaTeX_Main" font-size="8" transform="translate(378.99 95.61)"><tspan>1.80</tspan></text></g><g fill="none" stroke-linecap="round" stroke-linejoin="round" stroke-width="0" color="#000"><path d="M371.99 77.01h-7.5"/><text fill="#000" font-family="KaTeX_Main" font-size="8" transform="translate(378.99 79.61)"><tspan>1.90</tspan></text></g><g fill="none" stroke-linecap="round" stroke-linejoin="round" stroke-width="0" color="#000"><path d="M371.99 61.01h-7.5"/><text fill="#000" font-family="KaTeX_Main" font-size="8" transform="translate(378.99 63.61)"><tspan>2.00</tspan></text></g><g fill="none" stroke-linecap="round" stroke-linejoin="round" stroke-width="0" color="#000"><path d="M371.99 45.01h-7.5"/><text fill="#000" font-family="KaTeX_Main" font-size="8" transform="translate(378.99 47.61)"><tspan>2.10</tspan></text></g><path fill="none" d="M28 45.01V205M371.99 45.01H28" color="#000"/><text stroke-linecap="round" stroke-linejoin="round" stroke-width="0" color="#000" font-family="KaTeX_Main" font-size="10" text-anchor="middle" transform="rotate(-90 68.255 56.755)"><tspan font-weight="bold">Maximum Path Length </tspan><tspan> / log</tspan><tspan dy="3" font-size="8">2</tspan><tspan dy="-3">(Size)</tspan></text><text stroke-linecap="round" stroke-linejoin="round" stroke-width="0" color="#000" font-family="KaTeX_Main" font-size="10" text-anchor="middle" transform="translate(199.99 238.25)"><tspan>Operations × 10</tspan><tspan dy="-5" font-size="8">5</tspan></text><text stroke-linecap="round" stroke-linejoin="round" color="#000" font-family="KaTeX_Main" font-size="8" transform="translate(132.8 10.11)"><tspan>LBSTBottomUp</tspan></text><g fill="none" stroke="currentColor" stroke-linecap="round" stroke-linejoin="round" color="#000"><path stroke="#3B75EA" d="M97.3 7.51h29.9M28 186.25l.36-9.88.36.37.37.36.36.35.36 10.5.36.32.36.31.37.3.36-9.79.36.31.36.3.37.3.36.29.36.28.36 10.29.36.26.37.26.36.25.36-9.7.36 10.19.36.24.37.24.36.23.36.23.36.22.36-9.64.37-9.63.36 10.08.36.22.36-9.6.36 10.04.37-9.59.36.22.36 10 .36 9.97.37.19.36.19.36.19.36.18.36-9.54.37.19.36 9.89.36.17.36-9.51.36.18.37.18.36.17.36.17.36 9.81.36.16.37-.16.36-.16.36-.16.36-.17.37-.16.36-.18.36-.17.36-.17.36-.18.37-.18.36-.18.36-.18.36-.19.36-.19.37-.19.36-.19.36-.2.36-.2.36-.2.37-.2.36-.21.36-.21.36-.22.37-.22.36-.22.36-.22.36-.23.36-.23.37-.24.36-.24.36-.24.36-.25.36-.25.37-.26.36-.26.36-.27.36 9.77.36-.26.37-.27.36-.27.36-.28.36-.28.36-.29.37-.3.36-.3.36-.31.36-.31.37-.32.36-.33.36-.34.36.34.36.33.37.32.36.31.36.31.36-9.84.36.31.37.3.36.3.36-9.78.36 10.36.36-9.76.37 10.32.36.27.36-9.74.36.28.37.27.36.27.36.26.36.25.36.26.37-9.67.36.25.36.26.36 20 .36.22.37.22.36.22.36.21.36.21.36-9.61.37.21.36 10 .36-9.58.36.2.36.21.37.19.36-9.54.36.2.36 9.92.37.19.36.19.36.18.36.18.36.18.37-9.49.36 9.84.36.17.36.17.36.17.37-.17.36-.17.36-.17.36-.17.36-.18.37-.18.36-.18.36-.18.36-.19.37-.19.36-.19.36-.19.36-.2.36-.19.37-.21.36-.2.36-.21.36-.21.36-.21.37-.22.36-.22.36-.22.36-.22.36-.23.37-.24.36-.23.36-.24.36-.25.36-.24.37-.26.36-.25.36-.26.36-.27.37-.27.36-.28.36-.28.36-.28.36-.29.37-.3.36-.3.36-.31.36-.32.36-.32.37 9.82.36-.32.36-.32.36-.34.36-.34.37-.34.36-.36.36.36.36.34.37.34.36.34.36.32.36.32.36.31.37.3.36.3.36.3.36.28.36.29.37-9.76.36.28.36.28.36.28.36 10.25.37.25.36.25.36.24.36.24.37.24.36.23.36.23.36.22.36.22.37.22.36.22.36.21.36.21.36.2.37-9.6.36-9.58.36 10 .36.2.36.21.37.19.36.2.36 9.92.36.18.36-9.53.37 9.89.36-9.52.36.18.36 9.86.37-9.5.36.17.36 9.82.36.16.36-9.47.37-.17.36-.17.36-.17.36-.17.36-.18.37-.18.36-.18.36-.18.36-.19.36-.19.37-.19.36-.19.36-.2.36-.19.37-.21.36-.2.36-.21.36-.21.36-.21.37-.22.36-.22.36-.22.36-.22.36-.23.37-.24.36-.23.36-.24.36-.25.36-.24.37-.26.36 9.7.36-.25.36-.25.36-.26.37-.26.36-.27.36-.27.36-.27.37-.29.36-.28.36-.3.36-.3.36-.3.37-.31.36-.32.36-.32.36-.34.36-.34.37-.34.36-.36.36.36.36.34.36.34.37.34.36.32.36.32.36.31.37.3.36.3.36.3.36.28.36.29.37.27.36.27.36.27.36.26.36-9.72.37 10.23.36.25.36.24.36.24.36.24.37-9.67.36.24.36 10.11.36.22.36.22.37.22.36.21.36.21.36-9.61.37 10.01.36.2.36.2.36.19.36.19.37.19.36-9.55.36.19.36.19.36-9.52.37 9.9.36.18.36-9.5.36.18.36.19.37 19.5.36-9.49.36.17.36.17.37-.17.36-.17.36-.17.36-.17.36 9.5.37-.18.36-.17.36-.17.36-.18.36-.18.37-.18.36-.18.36-.19.36-.19.36-.19.37-.19.36-.2.36-.2.36-.2.37-.2.36-.21.36-.21.36-.22.36-.22.37-.22.36-.22.36-.23.36-.23.36-.24.37-.24.36-.24.36-.25.36-.25.36-.26.37-.26.36-.27.36-.27.36-.27.36-.29.37-.28.36-.3.36-.3.36-.3.37-.31.36-.32.36-.32.36-.34.36-.34.37 9.89.36-.34.36.34.36.33.36-9.88.37 10.51.36.31.36.3.36-9.83.36-9.81.37.32.36.31.36 10.36.36.29.37-9.76.36.28.36.28.36 10.27.36.26.37-9.71.36.26.36-9.69.36.27.36 10.17.37 10.15.36.23.36.22.36.22.36-9.63.37.22.36.22.36 10.05.36.2.36-9.6.37.21.36.21.36-9.57.36.21.37 19.71.36-9.55.36.19.36.19.36.19.37-9.52.36.2.36 9.87.36.18.36.18.37.17.36.17.36.17.36.17.36-.17.37-.17.36-.17.36-.17.36-.18.37-.18.36-.18.36-.18.36-.19.36-.19.37-.19.36-.19.36-.2.36-.19.36-.21.37-.2.36-.21.36-.21.36-.21.36-.22.37-.22.36-.22.36-.22.36-.23.37-.24.36-.23.36-.24.36-.25.36-.24.37-.26.36-.25.36-.26.36-.27.36-.27.37-.28.36-.28.36-.28.36-.29.36-.3.37-.3.36 9.78.36-.3.36-.3.36-.31.37-.32.36-.32.36-.34.36-.34.37-.34.36-.36.36.36.36.34.36 10.54.37.31.36.31.36.3.36-9.83.36 10.42.37.28.36.28.36-9.8.36.29.36.27.37.27.36.27.36.26.36.26.37.25.36.25.36.24.36-9.68.36.24.37.25.36 10.13.36.22.36-9.64.36 10.08.37.22.36-9.63.36.22.36 19.84.36-9.61.37.2.36.2.36.19.36-9.56.36.19.37.2.36 9.92.36-9.54.36.19.37.19.36.18.36-9.5.36.18.36 19.52.37-9.49.36.17.36.17.36.17.36 9.47.37-.16.36-.16.36-.17.36-.16.36-.18.37-.17.36-.17.36-.18.36-.18.37-.18.36-.18.36-.19.36-.19.36-.19.37-.19.36-.2.36-.2.36-.2.36-.2.37-.21.36-.21.36-.22.36-.22.36-.22.37-.22.36-.23.36-.23.36-.24.36-.24.37-.24.36-.25.36-.25.36-.26.37-.26.36-.27.36-.27.36-.27.36-.29.37-.28.36-.3.36-.3.36-.3.36-.31.37-.32.36-.32.36-.34.36 9.88.36-.33.37-.34.36-9.89.36.34.36.34.37.34.36.32.36-9.83.36.33.36.32.37-9.78.36 10.41.36.3.36.3.36.29.37.28.36.28.36.28.36.27.36.27.37.26.36.25.36-9.67.36 20.09.37.23.36.23.36.22.36.22.36-9.63.37.22.36.22.36.22.36 10.03.36.2.37-9.59.36.21.36.2.36-9.56.36.21.37 9.95.36.19.36.19.36.19.36.19.37-9.51.36 9.87.36.18.36.18.37.17.36 9.82.36.16.36-9.47.36-.17.37-.17.36-.17.36-.17.36-.18.36-.18.37-.18.36-.18.36-.19.36-.19.36-.19.37-.19.36-.2.36-.19.36-.21.37-.2.36-.21.36-.21.36-.21.36-.22.37-.22.36-.22.36-.22.36-.23.36-.24.37-.23.36-.24.36-.25.36-.24.36-.26.37-.25.36-.26.36-.27.36-.27.36-.28.37-.28.36-.28.36-.29.36-.3.37-.3.36 9.78.36-.3.36-.3.36-.31.37-.32.36-.32.36-.34.36-.34.36-.34.37-.36.36.36.36.34.36.34.36.34.37.32.36.32.36.31.36.3.37.3.36.3.36.28.36.29.36.27.37.27.36.27.36.26.36.26.36.25.37.25.36.24.36.24.36-9.68.36 10.15.37.23.36.22.36-9.64.36.23.36 10.07.37-9.63.36.22.36.22.36.21.37.21.36.21.36.2.36.21.36.19.37.2.36.19.36.19.36.19.36.19.37-9.51.36.19.36 9.86.36.18.36.17.37.17.36.17.36-9.46.36-.18.37-.18.36-.18.36-.18.36-.19.36-.18.37-.19.36-.2.36-.19.36-.2.36-.2.37-.2.36-.21.36-.21.36-.21.36-.21.37-.22.36-.22.36-.22.36-.23.37-.23.36 9.61.36-.22.36-.23.36-.24.37-.23.36-.24.36-.25.36-.24.36-.26.37-.25.36-.26.36-.27.36-.27.36 9.73.37-.27.36-.27.36-.27.36-.29.36-.28.37-.3.36-.3.36-.3.36-.31.37-.32.36 9.85.36-.31.36-.32.36-.33.37-.34.36-9.89.36.34.36 10.54.36.31.37-9.85.36.32.36-9.82.36 10.43.36-9.79.37 10.39.36-9.78.36 10.35.36-9.76.37.28.36.28.36 10.27.36.26.36-9.71.37.26.36.25.36.26.36 10.16.36.23.37.23.36.22.36.22.36.22.36-9.63.37.22.36 10.05.36.2.36-9.6.36.21.37.21.36.2.36-9.56.36 9.96.37 9.94.36-9.55.36.19.36.19.36.19.37.18.36.18.36 9.86.36-9.5.36-9.49.37.18.36 9.82.36.17.36-.17.36-.17.37-.17.36-.17.36-.18.36-.18.37-.18.36-.18.36-.19.36-.19.36-.19.37-.19.36-.2.36-.19.36-.21.36-.2.37-.21.36-.21.36-.21.36-.22.36-.22.37-.22.36-.22.36-.23.36-.24.36-.23.37-.24.36-.25.36-.24.36-.26.37-.25.36-.26.36-.27.36-.27.36-.28.37-.28.36-.28.36-.29.36-.3.36 9.78.37-.3.36-.3.36-.3.36-.31.36-.32.37-.32.36-.34.36-.34.36-.34.37-.36.36.36.36-9.87.36 10.55.36.34.37.32.36.32.36.31.36.3.36-9.79.37 10.39.36-9.78.36-9.75.36.3.36 10.32.37.28.36 10.27.36.26.36.25.37-9.7.36-9.69.36 10.2.36 10.16.36.23.37.23.36-9.66.36.24.36-9.63.36 19.93.37.21.36.21.36.2.36.2.36.2.37-9.58.36.2.36 9.96.36.19.36-9.55.37.19.36.19.36-9.52.36.19.37 9.89.36 9.86.36-9.5.36.18.36.17.37-9.48.36.18.36-9.45"/><use xlink:href="#d" color="#3B75EA" transform="matrix(3.75 0 0 3.75 354.25 186.61)"/><use xlink:href="#d" color="#3B75EA" transform="matrix(3.75 0 0 3.75 112.25 7.51)"/></g><text stroke-linecap="round" stroke-linejoin="round" color="#000" font-family="KaTeX_Main" font-size="8" transform="translate(132.8 25.11)"><tspan>LBSTRelaxed</tspan></text><g fill="none" stroke="currentColor" stroke-linecap="round" stroke-linejoin="round" color="#000"><path stroke="violet" stroke-dasharray="4.5,2.0,0.5,2.0,0.5,2.0" d="M97.3 22.51h29.9M28 104.25l.36 61.89.36-81.31.37-19.87.36 51.43.36-19.88.36 41.04.36-50.24.37 40.91.36-50.08.36-9.62.36 40.73.37.4.36-9.64.36-9.62.36-19.61.36-9.57.37.44.36.42.36 70.09.36 10.26.36-59.26.37 40.03.36 10.22.36-59.04.36 59.64.36-49.05.37-19.37.36 49.59.36 49.47.36-58.7.36-9.51.37.31.36 49.26.36-48.65.36 39.37.37-9.51.36-28.99.36 10.02.36 10.01.36-38.63.37-9.42.36 87.62.36-48.26.36 9.94.36.24.37-28.76.36 58.21.36-19.09.36-57.63.36 19.54.37 9.39.36 19.05.36-.23.36 19.09.37-.22.36 9.46.36 9.48.36-.21.36 9.5.37-.21.36-.21.36-.21.36-.22.36-.22.37-.22.36-.22.36-.23.36-.23.36-.23.37-.24.36-.24.36-.25.36-.25.37-.25.36-.25.36-.26.36-.27.36-.27.37-.27.36-.28.36-.28.36-.29.36-.29.37-.3.36-.3.36-.31.36-.31.36-.32.37-.33.36-.33.36-.34.36-.35.36-.35.37-.36.36-.37.36-.38.36-.38.37-.39.36 9.82.36-.39.36-40.53.36 31.1.37-81.17.36 81.94.36-60.58.36 81.61.36-40.17.37 10.49.36-50.11.36 20.59.36 40.65.36-39.87.37 20.45.36 10.36.36-9.68.36-89.61.37 100.24.36.31.36-99.24.36 60.07.36-19.51.37 30.1.36-29.39.36 39.91.36-49.1.36 10.22.37.33.36-19.36.36-19.32.36 69.12.36.28.37-68.33.36 88.46.36-19.31.36 29.57.36-9.53.37-38.76.36 19.76.36 9.98.36-9.48.37 39.09.36-19.2.36 19.6.36.2.36-38.5.37 29.23.36.2.36-67.35.36 29.18.36-38.3.37 9.38.36 9.39.36-.25.36 19.08.36-.24.37 19.13.36-.23.36 19.18.36-.22.37-.21.36-.22.36-.22.36-.23.36-.23.37-.23.36-.23.36-.24.36-.24.36-.25.37-.24.36-.26.36-.25.36-.26.36-.26.37-.27.36-.28.36-.27.36-.28.36-.29.37-.29.36-.29.36-.3.36-.31.37-.31.36-.32.36-.32.36-.33.36-.33.37-.34.36-.35.36-.36.36-.36.36-.37.37-.38.36-.38.36-.39.36-.41.36-.41.37-.42.36-.43.36-71.18.36.55.37 102.48.36-60.71.36 10.6.36 20.7.36-19.87.37 10.51.36-50.1.36 20.61.36 40.67.36-39.86.37 40.53.36-29.73.36 10.37.36-39.63.36 30.33.37-29.55.36-29.48.36-9.53.36 40.13.37.36.36-19.46.36 59.72.36-9.58.36-68.77.37 89.08.36-78.49.36 79.03.36 10.09.36 10.06.37-48.78.36 39.45.36-38.88.36-29.04.36 39.34.37-19.24.36-48.43.36 48.97.36-48.33.36 39.15.37-9.43.36 68.13.36-67.58.36 19.62.37 58.24.36-67.41.36-9.4.36 19.54.36-19.03.37-.25.36-.26.36 9.4.36 19.08.36 9.44.37-.23.36 19.15.36 19.18.36-.2.36-.21.37-.21.36-.21.36-.22.36-.22.37-.22.36-.22.36-.23.36-.23.36-.23.37-.24.36-.24.36-.25.36-.25.36-.25.37-.25.36-.26.36-.27.36-.27.36-.27.37-.28.36-.28.36-.29.36-.29.36-.3.37-.3.36-.31.36-.31.36-.32.37-.33.36-.33.36-.34.36-.35.36-.35.37-.36.36-.37.36-.38.36-.38.36-.39.37-.41.36-.41.36-40.51.36 51.54.36-60.79.37-19.88.36 41.13.36-30.01.36 10.59.37 20.65.36-60.18.36 81.12.36-80.17.36 80.86.37-39.81.36-39.7.36 60.48.36-29.64.36-29.56.37 40.28.36.35.36 10.29.36-9.6.36-9.58.37-49.17.36 30.07.36-9.53.36.36.36-9.5.37-9.48.36.37.36.36.36 39.6.37 49.32.36-58.5.36-19.25.36 88.26.36 9.99.37-29.03.36.25.36-9.49.36-19.2.36.27.37-19.15.36 87.52.36-19.18.36-48.17.36.24.37.25.36-38.36.36.27.36 19.54.37-.25.36 19.04.36 9.42.36 9.43.36-.23.37 19.13.36-.21.36-.22.36-.23.36-.22.37-.23.36-.23.36-.24.36-.24.36-.24.37-.24.36-.25.36-.25.36-.26.37-.26.36-.26.36-.27.36-.27.36-.27.37-.28.36-.29.36-.28.36-.3.36-.3.37-.3.36-.31.36-.31.36-.32.36-.32.37-.33.36-.34.36-.34.36-.35.36-.36.37-.36.36-.37.36-.38.36-.38.37-.4.36-.4.36-.41.36-.42.36-.43.37 9.79.36-.43.36 20.89.36-30.25.36-9.77.37 30.97.36-30.1.36 10.56.36-9.73.36 20.62.37 20.55.36.33.36-9.75.36 10.38.37-39.84.36-19.68.36-19.64.36-29.58.36 60.31.37-29.55.36-19.53.36 10.34.36-9.55.36-19.44.37.4.36 39.96.36 29.98.36-49.04.36 79.21.37-29.28.36-68.54.36 78.94.36 10.08.36.26.37-58.5.36-29.03.36 39.42.36.29.37-19.21.36.3.36.3.36-9.42.36 97.42.37-77.42.36 68.13.36-57.9.36 29.29.36-48.11.37 87.19.36-28.75.36-57.64.36-9.37.36-.27.37 9.38.36 9.39.36 9.41.36-.26.37-.26.36 9.43.36-.26.36 9.46.36-.26.37-.25.36-.26.36-.27.36 9.49.36 19.28.37-.24.36 9.54.36 9.56.36-.23.36-.24.37-.24.36-.25.36-.25.36-.25.37-.25.36-.26.36-.27.36-.27.36-.27.37-.28.36-.28.36-.29.36-.29.36 9.69.37-.28.36-.3.36-.3.36-.3.36-.31.37-.32.36-.33.36-.33.36-.33.36-.35.37-.35.36-.36.36-.37.36-.37.37-.39.36-.39.36.39.36-101.74.36 41.34.37 51.35.36-9.78.36-9.76.36-9.73.36-60.26.37 61.05.36-60.09.36 60.86.36-19.73.36 20.46.37 10.38.36-9.67.36-49.62.36 40.32.37-69.42.36 80.06.36 30.14.36-19.58.36-69.1.37 49.89.36-19.47.36-19.43.36 59.56.36-88.43.37 10.21.36 59.36.36-48.83.36 39.59.36-9.52.37-19.29.36-19.25.36 10.1.36-9.45.36.32.37 78.24.36.23.36-28.94.36 48.82.37-48.31.36 29.33.36-57.89.36.27.36 58.26.37-28.76.36 48.47.36-96.22.36 86.96.36-.19.37-.19.36-.2.36-.2.36-.21.36-.2.37-.21.36-.21.36-.22.36-.21.37-.22.36-.22.36-.23.36-.23.36-.23.37-.23.36-.24.36-.24.36-.25.36-.24.37-.26.36-.25.36-.26.36-.26.36-.27.37-.28.36-.27.36-.28.36-.29.36-.29.37-.29.36-.3.36-.31.36-.31.37-.32.36-.32.36-.33.36-.33.36-.34.37-.35.36-.36.36-.36.36-.37.36-.38.37-.38.36-.39.36-.41.36-.41.36-.42.37-.43.36.43.36.42.36 10.61.37-60.68.36-19.84.36 41.08.36-9.7.36-29.9.37-9.63.36 40.8.36.41.36-39.8.36 30.56.37 10.42.36-9.63.36.38.36-19.58.36 20.33.37-19.54.36-19.49.36 10.33.36-9.53.37-9.51.36 119.09.36-29.39.36-88.53.36 79.23.37 39.66.36-68.6.36 10.13.36-19.34.36 78.72.37-68.31.36 49.19.36-68.16.36-9.46.36-19.19.37 87.99.36.23.36-67.82.36 39.14.36-9.46.37 39.04.36-67.58.36 97.03.36-19.14.37-96.38.36 77.48.36-67.28.36 58.07.36-.22.37-.22.36 9.43.36-.22.36-.22.36 28.83.37-.2.36-.2.36-.2.36-.21.36-.21.37-.21.36-.22.36-.22.36-.22.37-.22.36-.23.36-.23.36-.23.36-.24.37-.24.36-.25.36-.25.36-.25.36-.25.37-.26.36-.27.36-.27.36-.27.36-.28.37-.28.36-.29.36-.29.36-.3.36-.3.37-.31.36-.31.36-.32.36-.33.37-.33.36-.34.36-.35.36-.35.36-.36.37-.37.36-.38.36-.38.36-.39.36-.41.37-.41.36-30.28.36-40.39.36 20.91.36 10.65.37-9.72.36 41.02.36-50.25.36 10.56.37 10.52.36 30.64.36-60.04.36 20.53.36.39.37-9.63.36 30.41.36.34.36-69.51.36 40.28.37.37.36-29.46.36-9.54.36.4.36.39.37-9.51.36.39.36 29.99.36 59.48.36-78.49.37 79.03.36.26.36-38.99.36 39.51.37-9.54.36-29.08.36 58.9.36-68.1.36 58.79.37-48.48.36 29.47.36-48.37.36 39.13.36-19.17.37 77.81.36-19.19.36-106.23.36 106.62.36-9.46.37 9.84.36-19.09.36-47.96.36 19.04.37 19.07.36-.22.36 28.78.36-.19.36-.2.37-.2.36-.2.36-.2.36-.21.36-.21.37-.21.36-.22.36-.22.36-.22.36-.22.37-.23.36-.23.36-.23.36-.24.37-.24.36-.25.36-.25.36-.25.36-.25.37-.26.36-.27.36-.27.36-.27.36-.28.37-.28.36-.29.36-.29.36-.3.36-.3.37-.31.36-.31.36-.32.36-.33.36-.33.37-.34.36-.35.36-.35.36-.36.37-.37.36-.38.36-.38.36-.39.36-.41.37-.41.36-30.28.36 20.88.36 10.61.36-19.97.37-50.39.36-19.8.36 101.78.36-40.11.36 20.58.37-29.88.36-39.87.36 20.55.36 30.51.37 20.4.36-9.68.36-59.63.36 10.38.36-9.58.37.39.36-19.49.36-9.52.36.41.36 30.11.37 79.49.36.26.36-39.22.36 49.58.36-108.06.37 88.86.36-88.15.36 49.41.36 29.69.36-58.5.37-29.03.36 49.19.36-19.24.36-9.45.37-19.18.36 87.9.36-28.94.36 29.39.36 9.93.37-77.34.36 68.07.36.22.36.21.36-57.74.37 58.16.36-19.08.36.22.36-.22.36 19.08.37-.21.36-.21.36-.21.36-.22.37-.21.36-.22.36-.23.36-.22.36-.23.37-.23.36-.24.36-.24.36-.24.36-.24.37-.25.36-.25.36-.26.36-.26.36-.26.37-.27.36-.27.36-.27.36-.28.36-.29.37-.28.36-.3.36-.3.36-.3.37-.31.36-.31.36-.32.36-.32.36-.33.37-.34.36-.34.36-.35.36-.36.36-.36.37-.37.36-.38.36-.38.36-.4.36-.4.37-.41.36-.42.36-.43.36-.44.37-.45.36 20.91.36-40.44.36 51.43.36-30.16.37-60.55.36.5.36 81.51.36-40.09.36.41.37-19.76.36-9.64.36.43.36-9.61.36.42.37-9.58.36-19.56.36 10.43.36-9.55.37.43.36 99.83.36-69.2.36-19.46.36.39.37 69.62.36-49.1.36 20.09.36 20.03.36 19.98.37-9.56.36-19.37.36.29.36.28.36-9.5.37.29.36-29.03.36 19.83.36-19.21.36-19.18.37 48.97.36-9.45.36 29.41.36-48.27.37 19.67.36 77.74.36-38.52.36-77.11.36 87.21.37-67.34.36 29.19.36-47.93"/><use xlink:href="#e" color="violet" transform="matrix(3.75 0 0 3.75 67.83 118.92)"/><use xlink:href="#e" color="violet" transform="matrix(3.75 0 0 3.75 112.25 22.51)"/></g><text stroke-linecap="round" stroke-linejoin="round" color="#000" font-family="KaTeX_Main" font-size="8" transform="translate(241.1 10.11)"><tspan>WBSTBottomUp</tspan></text><g fill="none" stroke="currentColor" stroke-linecap="round" stroke-linejoin="round" color="#000"><path stroke="#000" d="M205.6 7.51h29.9M28 145.25l.36 31.12.36-20.05.37-9.81.36.41.36-9.77.36.4.36 30.78.37-19.89.36.36.36-9.72.36-9.7.37 30.52.36-9.72.36.33.36-19.69.36 10.34.37 10.3.36 10.27.36.29.36-29.54.36 30.1.37-29.47.36 10.21.36 29.96.36-19.51.36-9.6.37 10.13.36 10.1.36-29.25.36 10.09.36-9.55.37.27.36-9.53.36 10.05.36 10.02.37-9.52.36 19.75.36-28.99.36 19.71.36-19.21.37 39.09.36-28.91.36 19.62.36-9.48.36-9.46.37.22.36.22.36 19.52.36-9.45.36.2.37 9.44.36 9.45.36-.19.36-.19.37-.19.36-.2.36-.2.36-.2.36-.2.37-.21.36 9.52.36-.2.36-.21.36 9.56.37-.21.36-.2.36-.21.36-.21.36-.21.37-.22.36-.22.36-.22.36-.22.37-.23.36-.24.36-.23.36-.24.36-.25.37-.24.36-.26.36-.25.36-.26.36-.27.37-.27.36-.28.36-.28.36-.28.36-.29.37-.3.36-.3.36-.31.36-.32.36-.32.37-.33.36-.33.36-.34.36-.35.37-.36.36-.37.36-.37.36-20.09.36-9.81.37-30.17.36 51.34.36-9.8.36 10.51.36-30.03.37.38.36 20.57.36-39.98.36 20.52.36-9.69.37 30.47.36-19.73.36 20.35.36-9.69.37 10.29.36-19.64.36.31.36.31.36 10.23.37-9.63.36-9.61.36 20.08.36 20.04.36.24.37-19.47.36 10.1.36-29.25.36 19.92.36-19.38.37 10.07.36 10.04.36-9.54.36-9.53.36 19.77.37-29.02.36 29.48.36-19.24.36 29.4.37.21.36-19.2.36 19.6.36 9.89.36-19.17.37-19.13.36.22.36-9.43.36 29.14.36-19.07.37 9.43.36 9.45.36-.2.36 9.46.36-.19.37-.2.36-.2.36-.2.36-.2.37-.21.36-.21.36-.21.36 9.53.36-.21.37-.21.36-.21.36-.22.36-.22.36-.22.37-.23.36-.23.36-.23.36-.24.36-.24.37-.24.36-.25.36-.26.36-.25.36-.26.37 9.67.36-.25.36-.26.36-.27.37-.27.36-.28.36-.28.36-.28.36-.29.37-.3.36-.3.36-.31.36-.32.36-.32.37-.33.36-.33.36-.34.36-.35.36-.36.37-.37.36-.37.36-9.86.36-30.25.37 10.62.36 10.58.36-9.78.36.38.36 20.64.37.33.36-19.86.36-9.72.36.36.36-19.74.37 10.41.36 20.4.36-9.68.36 20.31.36-9.68.37-9.66.36-9.64.36 20.2.36.29.37.29.36 20.08.36-29.42.36 10.17.36-19.47.37 10.14.36-9.57.36.28.36-9.55.36 10.09.37 10.07.36-19.33.36 29.61.36-9.54.36 10 .37-9.52.36-19.24.36 19.71.36-28.94.36.26.37 29.36.36 9.91.36.21.36 9.88.37-19.14.36.21.36 9.86.36.19.36-9.44.37-.2.36-.2.36 9.45.36 9.46.36-.19.37-.2.36-.2.36 9.5.36-.19.36-.2.37-.2.36-.2.36-.21.36-.21.37-.21.36-.21.36 9.57.36-.21.36-.21.37-.22.36-.22.36-.22.36-.22.36-.23.37-.24.36-.23.36-.24.36-.25.36-.24.37-.26.36-.25.36-.26.36-.27.36-.27.37-.28.36-.28.36 9.75.36-.27.37-.29.36-.28.36-.3.36-.3.36-.3.37-.31.36-.32.36-.32.36-.34.36-.34.37-.34.36-.36.36-9.88.36-20.05.36.39.37.38.36-19.94.36.4.36 30.78.37-19.89.36-19.83.36 30.63.36-9.73.36-9.71.37 20.42.36-29.75.36 20.36.36 10.31.36-9.68.37.31.36.3.36-19.59.36 40.03.36-9.66.37-19.53.36 10.17.36.28.36-9.6.36 29.84.37-29.3.36.27.36.26.36 10.07.37.25.36-19.34.36 10.04.36-9.53.36-9.51.37 19.76.36 9.98.36-28.97.36 19.69.36-19.2.37 9.94.36 19.62.36-19.16.36-28.8.36 9.91.37-9.42.36 38.84.36.2.36.2.37-.2.36 9.45.36-.2.36 9.46.36-.19.37-.2.36-.2.36-.2.36-.2.36-.21.37-.21.36-.21.36-.22.36-.22.36-.22.37-.22.36-.23.36-.23.36-.23.37-.24.36-.24.36-.25.36-.25.36-.25.37-.25.36-.26.36-.27.36 9.65.36-.26.37-.27.36-.27.36-.27.36-.28.36-.29.37-.28.36-.3.36-.3.36-.3.36-.31.37-.32.36-.33.36 9.78.36-.32.37-.33.36-.33.36-.34.36-.35.36-.36.37-.37.36-.37.36-9.86.36.39.36-9.82.37.38.36.38.36-30.06.36 30.79.36-40.09.37 10.5.36 10.47.36.36.36-19.74.37 20.45.36 30.4.36-29.72.36-19.66.36 20.31.37-9.65.36 30.19.36.28.36.28.36-9.64.37.28.36-19.51.36.3.36.29.36 10.14.37.27.36.27.36-19.38.36 49.34.36.22.37-38.94.36 29.6.36-9.55.36.23.37-19.27.36 9.99.36 19.69.36-9.51.36-9.5.37.23.36 9.91.36-19.16.36 19.57.36-9.46.37 9.87.36.2.36.19.36.19.36-.19.37 9.45.36 9.47.36-.18.36-.19.37-.18.36-.19.36-.2.36-.19.36-.2.37-.2.36-.2.36-.21.36 9.56.36-.21.37-.2.36-.21.36-.21.36-.21.36-.22.37-.22.36-.22.36-.22.36-.23.37-.24.36-.23.36-.24.36-.25.36-.24.37-.26.36-.25.36-.26.36-.27.36-.27.37-.28.36-.28.36-.28.36-.29.36-.3.37-.3.36-.31.36-.32.36-.32.36-.33.37 9.83.36-.32.36-.34.36-.34.37-.34.36-.36.36-30.34.36-9.81.36.41.37-9.77.36-9.75.36 30.85.36.36.36-9.76.37 20.55.36-29.91.36.36.36.36.36 10.38.37.33.36.32.36-39.65.36 20.32.37.33.36.33.36 30.14.36-19.58.36.3.37 30 .36.26.36.25.36-29.36.36.27.37 10.12.36-19.41.36.27.36-9.54.36 19.88.37-19.33.36 19.83.36 10.01.36.23.36-9.52.37-9.5.36-19.22.36 29.42.36 9.93.37-19.19.36 9.93.36-28.84.36 19.59.36-28.78.37 29.22.36 9.87.36 19.48.36-19.08.36 19.08.37 9.46.36-.18.36-.18.36-.19.36-.18.37-.19.36-.2.36-.19.36-.2.37-.2.36-.2.36-.21.36 9.56.36-.21.37-.2.36-.21.36-.21.36-.21.36-.22.37-.22.36-.22.36-.22.36-.23.36-.24.37-.23.36-.24.36-.25.36-.24.36-.26.37-.25.36-.26.36-.27.36-.27.37-.28.36-.28.36-.28.36-.29.36-.3.37-.3.36-.31.36-.32.36-.32.36-.33.37-.33.36-.34.36-.35.36-.36.36-.37.37-.37.36-9.86.36-20.04.36.41.37 10.58.36 20.7.36-19.95.36-19.89.36 20.6.37-9.75.36 10.44.36 10.4.36-19.79.36-9.7.37.34.36-19.68.36 10.35.36 30.28.36-9.67.37.3.36 20.17.36-19.59.36.29.37-19.53.36-9.59.36 29.95.36 10.13.36.25.37-19.44.36 10.1.36-9.57.36.26.36 10.06.37.24.36-9.54.36 10.01.36-9.53.36-19.26.37 29.48.36-9.51.36-19.21.36 29.37.36.22.37-38.56.36 19.61.36 9.9.36.21.37-19.11.36 9.88.36.21.36-28.69.36-.23.37-.24.36 9.42.36-.24.36-.24.36 19.13.37-.23.36 9.48.36-.23.36 19.22.36-.21.37-.21.36-.22.36-.22.36-.22.37-.22.36-.23.36-.23.36-.23.36-.24.37-.24.36-.25.36-.25.36 9.62.36-.24.37-.25.36-.26.36-.25.36-.26.36-.27.37-.27.36-.27.36-.28.36-.29.36-.28.37-.3.36-.3.36-.3.36-.31.37-.32.36-.33.36-.33.36-.33.36-.35.37 9.81.36-.34.36-.35.36-.36.36-.37.37-.37.36-9.86.36-9.82.36.39.36-30.15.37 20.75.36 10.53.36-9.77.36-9.74.37 20.57.36-29.9.36 30.57.36-9.72.36-9.7.37-19.7.36.36.36 30.34.36.31.36-29.59.37.34.36 30.15.36 10.22.36-9.64.36 10.18.37-29.41.36.3.36 29.89.36-19.46.36 19.96.37-29.25.36-9.55.36.28.36 10.08.37 39.42.36-38.9.36 10.02.36.24.36 19.74.37-29 .36 9.97.36 19.67.36-28.93.36.23.37.23.36 19.6.36 9.88.36-28.81.36 29.19.37-38.4.36 29.14.36 9.83.36 19.09.37-.17.36-.17.36-.17.36-.18.36-.18.37-.18.36-.18.36-.19.36-.19.36-.19.37-.19.36-.2.36-.19.36-.21.36-.2.37-.21.36-.21.36-.21.36-.22.37-.22.36-.22.36-.22.36-.23.36-.24.37-.23.36-.24.36-.25.36-.24.36-.26.37-.25.36-.26.36-.27.36 9.72.36-.26.37-.27.36-.27.36-.27.36-.29.36-.28.37-.3.36-.3.36-.3.36-.31.37-.32.36-.32.36-.34.36-.34.36-.34.37-.36.36-9.88.36-20.05.36 10.58.36-30.16.37 20.73.36-9.78.36-9.74.36 20.6.36-19.84.37.37.36 10.43.36-19.76.36 20.43.37 10.35.36-29.71.36.34.36-9.64.36 50.18.37-29.59.36 10.25.36.29.36-29.46.36 30.03.37-19.51.36.3.36 39.76.36-19.47.36-9.59.37-9.56.36-9.55.36 39.53.36-38.97.36 10.06.37-9.52.36 10.03.36-9.51.36 39.26.37-29 .36.24.36 19.68.36.21.36.22.37-19.18.36-9.45.36 9.9.36 29.22.36-28.78.37.22.36 9.85.36-19.06.36-.22.36 28.73.37-.2.36 9.46.36-.19.36-.2.37-.2.36-.2.36-.2.36-.21.36-.21.37-.21.36 9.53.36-.21.36-.21.36-.21.37-.22.36-.22.36-.22.36-.23.36-.23.37-.23.36-.24.36-.24.36-.24.36-.25.37-.26.36-.25.36-.26.36-.27.37-.27.36-.27.36-.28.36 9.71.36-.28.37-.28.36-.28.36-.29.36-.3.36-.3.37-.31.36-.32.36 9.81.36-.31.36-.32.37-.32.36-.34.36-.34.36-.34.37-.36.36-30.34.36 20.83.36 10.55.36-9.84.37-9.82.36-9.79.36.36.36-9.76.36 10.46.37-9.74.36 20.48.36-19.79.36.33.36.33.37.32.36-9.67.36 10.3.36 20.24.37-19.63.36 10.23.36-19.58.36-9.61.36 30.01.37-19.52.36-9.59.36-9.58.36 49.58.36-48.99.37 39.63.36-9.58.36 19.87.36-48.78.36.27.37 39.39.36-19.32.36-9.52.36.25.36.25.37 29.43.36-19.23.36.22.36 9.93.37-28.87.36 29.29.36-9.47.36 19.54.36-19.12.37 9.86.36-28.73.36.22"/><use xlink:href="#a" transform="matrix(3.75 0 0 3.75 125.4 184.75)"/><use xlink:href="#a" transform="matrix(3.75 0 0 3.75 220.55 7.51)"/></g><text stroke-linecap="round" stroke-linejoin="round" color="#000" font-family="KaTeX_Main" font-size="8" transform="translate(241.1 25.11)"><tspan>WBSTRelaxed</tspan></text><g fill="none" stroke="currentColor" stroke-linecap="round" stroke-linejoin="round" color="#000"><path stroke="#FFAB00" stroke-dasharray="4.0,2.0,1.0,2.0" d="M205.6 22.51h29.9M28 63.26l.36 102.88.36-91.52.37 82.09.36-9.79.36-50.41.36 61.33.36-80.65.37 20.7.36 20.63.36-39.92.36 10.52.37-9.62.36 50.61.36-59.77.36.44.36-9.57.37.44.36 20.35.36-19.51.36.41.36.4.37-9.51.36.4.36.39.36 30.03.36 69.43.37-19.45.36-39.1.36 49.49.36-29.2.36 49.35.37.23.36.23.36-9.55.36-77.93.37-9.45.36 49.07.36-58.18.36.32.36 68.37.37-58.03.36 19.7.36 9.97.36-19.11.36 48.66.37-9.44.36-57.71.36 96.78.36-96.22.36 9.91.37 9.37.36 19.04.36-.25.36 19.08.37-.24.36 9.45.36 9.45.36-.23.36 9.48.37 9.5.36-.22.36-.22.36-.23.36-.23.37-.23.36-.23.36-.24.36-.24.36-.25.37-.24.36-.26.36-.25.36-.26.37-.26.36-.27.36-.28.36-.27.36-.28.37-.29.36-.29.36-.29.36-.3.36-.31.37-.31.36-.32.36 9.7.36-.31.36-.32.37-.33.36-.33.36-.34.36-.35.36-.35.37-.36.36-.37.36-.38.36-.38.37-.39.36-.41.36-.41.36.41.36-40.44.37 31.04.36.41.36-60.57.36 71.49.36-30.02.37-29.93.36 61.01.36-29.9.36-19.75.36 20.5.37-29.74.36 30.46.36-29.67.36 10.38.37-59.51.36 60.23.36.35.36-59.29.36 20.27.37 30.13.36-9.56.36.35.36-19.42.36-19.37.37.38.36 10.21.36 49.53.36 10.12.36-38.97.37 10.12.36-29.07.36 10.11.36 10.09.36-19.22.37.32.36 49.02.36-28.94.36 29.45.37 19.68.36-57.98.36 39.06.36.24.36.24.37-57.76.36 58.24.36-9.42.36-38.33.36 9.91.37 9.38.36 9.39.36-.25.36 19.08.36-.24.37 19.13.36-.23.36-.23.36-.23.37-.23.36-.24.36-.24.36-.25.36-.25.37-.25.36-.25.36-.26.36-.26.36-.27.37-.27.36-.27.36-.28.36-.28.36-.29.37-.29.36-.3.36 9.61.36-.3.36-.3.37-.3.36-.31.36-.31.36-.32.37-.32.36-.33.36-.34.36 9.69.36-.33.37-.34.36-.35.36-.36.36-.36.36-.37.37-.38.36-.38.36-.39.36-.41.36-.41.37-.42.36-.43.36-81.41.36 72.05.37-50.54.36 71.74.36-80.9.36 30.93.36 20.7.37-29.93.36 50.91.36-80.28.36 80.99.36.34.37-9.7.36-59.79.36 80.48.36.3.36-39.62.37-59.45.36 10.37.36-9.54.36 40.11.37 49.93.36-29.43.36 10.2.36.3.36-39.18.37-9.52.36 10.18.36 19.99.36 39.59.36-68.44.37.32.36 59.06.36-58.43.36-19.24.36 68.64.37.25.36-77.68.36 97.63.36-67.83.36 29.42.37-28.86.36.27.36.28.36-19.09.37.29.36 77.54.36-9.44.36.21.36-19.05.37-.23.36-.23.36 9.42.36-.22.36-.23.37-.23.36-.24.36-.24.36-.24.36-.24.37-.25.36-.25.36-.26.36-.26.37-.26.36-.26.36-.27.36-.27.36-.28.37-.28.36-.29.36-.29.36 9.57.36-.29.37-.29.36-.3.36-.3.36-.3.36-.31.37-.32.36-.32.36-.33.36-.33.36-.34.37-.34.36-.35.36-.36.36-.36.37-.37.36-.38.36-.39.36-.39.36-.4.37-.41.36-.42.36-.43.36-.44.36-.44.37-.46.36-.47.36 31.16.36.41.36 10.58.37-30.16.36 10.57.36-80.76.36.51.37 30.83.36-9.66.36 40.77.36 20.51.36-9.71.37-59.86.36 80.59.36-69.74.36 50.37.36 10.3.37-19.63.36.33.36-59.32.36-9.54.36 20.23.37 10.27.36 10.24.36-9.55.36.34.36-9.52.37-9.51.36-9.49.36 10.17.36-9.47.37-9.46.36 19.92.36 59.01.36-48.6.36 39.34.37 10.01.36-28.98.36-9.46.36 10 .36 9.98.37.25.36-38.53.36 19.65.36.26.36-38.41.37 29.26.36.26.36.26.36-19.02.37 28.66.36 19.05.36 9.42.36 9.44.36-.22.37 19.15.36-.21.36-.21.36-.22.36-.21.37-.22.36-.22.36-.23.36-.23.36-.23.37-.23.36-.24.36-.24.36-.25.37-.24.36-.26.36-.25.36-.26.36-.26.37-.27.36-.28.36 9.63.36-.27.36-.27.37-.28.36-.28.36-.29.36-.29.36-.3.37-.3.36-.31.36-.31.36-.32.36-.33.37-.33.36-.34.36-.35.36-.35.37-.36.36-.37.36-.38.36-.38.36-.39.37-.41.36-.41.36-30.28.36-19.97.36.49.37 51.35.36-50.42.36 41.02.36-30 .36-19.8.37 71.1.36.33.36-19.81.36-19.76.37.36.36 10.38.36-29.68.36-59.59.36 70.3.37-19.59.36-39.44.36 20.29.36-9.55.36-19.44.37.4.36 79.52.36-68.86.36.38.36 69.36.37-68.64.36 88.86.36.26.36-29.19.36-29.13.37 29.68.36-58.42.36 10.1.36-9.45.37-9.43.36.32.36.32.36.32.36 78 .37.23.36-38.54.36 9.95.36 9.92.36-48.09.37 96.85.36-28.75.36.21.36-57.58.36-.27.37 9.39.36 9.4.36 9.41.36-.24.37-.25.36 9.44.36-.25.36 9.46.36-.24.37-.25.36-.25.36-.26.36 9.5.36 9.52.37-.24.36-.25.36-.25.36-.26.36-.26.37-.26.36-.27.36-.27.36-.27.37-.28.36-.29.36-.28.36-.3.36-.3.37-.3.36-.31.36-.31.36-.32.36-.32.37-.33.36-.34.36-.34.36-.35.36-.36.37 9.72.36-.36.36-.36.36 9.76.36-.36.37-.37.36-.38.36-.38.36-.39.37-.41.36-.41.36 20.87.36-20.05.36-50.58.37-9.71.36 41.12.36 10.54.36-70.5.36 30.81.37-19.77.36-9.63.36 60.84.36-49.89.36-9.61.37-9.6.36 60.48.36 10.34.36-89.49.37 70.2.36-39.48.36-9.55.36 30.17.36 40.01.37-49.22.36 39.91.36 20.06.36-68.81.36 39.77.37 19.98.36-48.9.36-9.5.36.32.36-19.28.37 59.08.36 29.61.36-68.16.36 29.58.36 10.02.37-9.48.36-38.67.36-9.42.36.3.37.29.36 39.07.36 9.94.36-28.78.36 19.59.37 9.91.36 38.83.36-9.45.36-19.06.36 28.7.37-.19.36-.2.36-.2.36-.21.36-.2.37-.21.36-.21.36-.22.36-.21.37-.22.36-.22.36-.23.36-.23.36-.23.37-.23.36-.24.36-.24.36-.25.36-.24.37-.26.36-.25.36-.26.36-.26.36-.27.37-.28.36-.27.36-.28.36-.29.36-.29.37-.29.36-.3.36-.31.36-.31.37-.32.36-.32.36-.33.36-.33.36-.34.37-.35.36-.36.36-.36.36-.37.36-.38.37-.38.36-.39.36-.41.36-.41.36 9.81.37-.41.36-50.74.36 41.34.36-70.95.37 51.41.36-40.21.36 10.63.36 71.35.36-100.77.37 81.24.36-50.04.36-9.64.36 30.58.36-39.76.37-9.6.36 50.47.36.36.36-39.57.36 30.3.37-29.51.36.39.36 10.31.36-9.56.37-29.34.36 10.29.36.37.36-9.49.36 10.23.37 39.74.36 29.82.36.27.36-58.6.36-9.47.37 29.7.36 58.99.36-97.47.36 10.09.36.32.37 49.02.36-38.67.36 39.18.36-38.59.36 19.69.37 48.74.36-48.21.36 29.29.36-57.77.37 29.25.36-9.4.36-19.03.36.27.36-.27.37-.27.36 9.38.36-.27.36-.27.36 28.78.37-.26.36 19.15.36 9.47.36 9.49.36-.23.37-.23.36-.24.36-.24.36-.24.37-.24.36-.25.36-.25.36-.26.36-.26.37-.26.36-.27.36-.27.36-.27.36-.28.37-.29.36-.28.36-.3.36-.3.36-.3.37-.31.36-.31.36-.32.36-.32.36-.33.37-.34.36 9.69.36-.33.36-.34.37-.35.36-.36.36-.36.36-.37.36-.38.37-.38.36-.39.36-.41.36-.41.36-.42.37-.43.36 10.66.36-50.66.36 31.07.36-9.76.37 30.91.36-30.06.36 30.79.36-50.2.37 50.9.36.34.36-39.93.36-49.86.36.45.37 80.61.36-29.7.36-59.6.36 70.29.36-29.57.37-9.58.36-9.57.36-9.55.36.39.36.37.37-9.51.36.37.36 29.98.36-39.09.36 98.82.37-9.58.36-88.14.36 49.41.36 39.51.37-48.71.36-9.47.36 58.92.36-68.08.36-9.44.37 49.02.36 19.72.36-77.53.36 10.02.36 19.7.37 58.44.36-28.84.36-48.14.36 67.95.36-19.09.37-19.07.36.25.36-38.29.36 19 .37 19.04.36-.25.36 28.75.36-.23.36 28.82.37-.21.36-.21.36-.22.36-.21.36-.22.37-.22.36-.23.36-.23.36-.23.36-.23.37-.24.36-.24.36-.25.36-.24.37-.26.36-.25.36-.26.36-.26.36-.27.37-.28.36-.27.36-.28.36-.29.36 9.65.37-.28.36-.29.36-.29.36-.3.36-.3.37-.31.36-.31.36-.32.36-.33.36-.33.37-.34.36-.35.36-.35.36-.36.37-.37.36-.38.36-.38.36-.39.36-.41.37-.41.36-50.74.36 31.13.36-60.74.36 61.59.37.41.36-19.88.36-19.83.36 40.89.36 10.47.37-19.8.36-19.75.36 30.55.36 10.38.37-69.82.36 30.45.36 10.36.36-59.52.36 10.39.37.4.36-19.48.36 20.27.36-19.44.36 10.3.37 30.06.36 59.62.36-49.07.36 69.31.36-29.3.37-88.23.36.36.36 98.47.36-19.35.36.26.37-19.3.36-58.35.36.33.36 10.08.37 19.79.36 29.49.36-48.35.36 77.99.36-9.48.37-67.62.36 9.97.36.28.36 67.94.36.21.37-19.09.36-19.06.36-9.4.36 57.6.36-.19.37-.2.36-.2.36-.21.36-.2.37-.21.36-.21.36-.22.36-.21.36-.22.37-.22.36-.23.36-.23.36-.23.36 9.55.37-.23.36-.23.36-.23.36-.24.36-.24.37-.25.36-.25.36-.25.36-.25.36-.26.37-.27.36-.27.36-.27.36-.28.37-.28.36-.29.36-.29.36-.3.36-.3.37-.31.36-.31.36-.32.36-.33.36-.33.37-.34.36-.35.36-.35.36-.36.36-.37.37-.38.36-.38.36-.39.36-.41.37-.41.36-71.2.36-9.68.36 82.09.36-30.15.37 10.59.36 20.69.36-19.89.36-40.06.36.44.37 10.51.36-9.66.36.42.36-29.7.36.44.37 10.45.36.41.36-9.58.36-9.55.37.42.36-9.53.36 109.62.36-29.47.36-59.12.37.38.36 20.12.36-29.26.36 49.64.36-39.07.37 10.18.36-29.14.36 78.85.36-19.34.36 10.08.37-68.2.36 10.11.36 49.12.36-19.23.36-19.2.37-9.43.36.31.36 39.15.36 29.36.37-67.62.36-9.4.36 29.33.36 67.93.36-9.46.37-48.04.36 38.81.36-38.32"/><use xlink:href="#f" color="#FFAB00" transform="matrix(3.75 0 0 3.75 182.98 65.95)"/><use xlink:href="#f" color="#FFAB00" transform="matrix(3.75 0 0 3.75 220.55 22.51)"/></g><path fill="none" d="M28 45.01V205M371.99 45.01H28" color="#000"/></svg>