<svg xmlns="http://www.w3.org/2000/svg" xmlns:xlink="http://www.w3.org/1999/xlink" viewBox="0 0 400 250"><path fill="none" d="M0 0h400v250H0z"/><defs><path id="d" stroke="currentColor" stroke-width=".267" d="M-1 0h2M0-1v2"/><path id="b" stroke="currentColor" stroke-width=".267" d="M-1-1h2v2h-2z"/><path id="f" fill="currentColor" stroke="currentColor" stroke-width=".267" d="M-1-1h2v2h-2z"/><path id="a" stroke="currentColor" stroke-width=".267" d="m0-1.33-1.33 2h2.66z"/><use xlink:href="#b" id="c" stroke="currentColor" transform="rotate(45)"/><use xlink:href="#c" id="e" fill="currentColor" stroke="none"/></defs><path fill="none" stroke="#333" stroke-linecap="round" stroke-linejoin="round" stroke-width=".1" d="M46.1 205V45.01" class="gridline" color="#000"/><g fill="none" stroke-linecap="round" stroke-linejoin="round" stroke-width="0" color="#000"><path d="M46.1 205v-7.5m0-152.49v7.5"/><text fill="#000" font-family="KaTeX_Main" font-size="10" text-anchor="middle" transform="translate(46.1 215.75)"><tspan> 1</tspan></text></g><path fill="none" stroke="#333" stroke-linecap="round" stroke-linejoin="round" stroke-width=".1" d="M82.31 205V45.01" class="gridline" color="#000"/><g fill="none" stroke-linecap="round" stroke-linejoin="round" stroke-width="0" color="#000"><path d="M82.31 205v-7.5m0-152.49v7.5"/><text fill="#000" font-family="KaTeX_Main" font-size="10" text-anchor="middle" transform="translate(82.31 215.75)"><tspan> 2</tspan></text></g><path fill="none" stroke="#333" stroke-linecap="round" stroke-linejoin="round" stroke-width=".1" d="M118.52 205V45.01" class="gridline" color="#000"/><g fill="none" stroke-linecap="round" stroke-linejoin="round" stroke-width="0" color="#000"><path d="M118.52 205v-7.5m0-152.49v7.5"/><text fill="#000" font-family="KaTeX_Main" font-size="10" text-anchor="middle" transform="translate(118.52 215.75)"><tspan> 3</tspan></text></g><path fill="none" stroke="#333" stroke-linecap="round" stroke-linejoin="round" stroke-width=".1" d="M154.73 205V45.01" class="gridline" color="#000"/><g fill="none" stroke-linecap="round" stroke-linejoin="round" stroke-width="0" color="#000"><path d="M154.73 205v-7.5m0-152.49v7.5"/><text fill="#000" font-family="KaTeX_Main" font-size="10" text-anchor="middle" transform="translate(154.73 215.75)"><tspan> 4</tspan></text></g><path fill="none" stroke="#333" stroke-linecap="round" stroke-linejoin="round" stroke-width=".1" d="M190.94 205V45.01" class="gridline" color="#000"/><g fill="none" stroke-linecap="round" stroke-linejoin="round" stroke-width="0" color="#000"><path d="M190.94 205v-7.5m0-152.49v7.5"/><text fill="#000" font-family="KaTeX_Main" font-size="10" text-anchor="middle" transform="translate(190.94 215.75)"><tspan> 5</tspan></text></g><path fill="none" stroke="#333" stroke-linecap="round" stroke-linejoin="round" stroke-width=".1" d="M227.15 205V45.01" class="gridline" color="#000"/><g fill="none" stroke-linecap="round" stroke-linejoin="round" stroke-width="0" color="#000"><path d="M227.15 205v-7.5m0-152.49v7.5"/><text fill="#000" font-family="KaTeX_Main" font-size="10" text-anchor="middle" transform="translate(227.15 215.75)"><tspan> 6</tspan></text></g><path fill="none" stroke="#333" stroke-linecap="round" stroke-linejoin="round" stroke-width=".1" d="M263.36 205V45.01" class="gridline" color="#000"/><g fill="none" stroke-linecap="round" stroke-linejoin="round" stroke-width="0" color="#000"><path d="M263.36 205v-7.5m0-152.49v7.5"/><text fill="#000" font-family="KaTeX_Main" font-size="10" text-anchor="middle" transform="translate(263.36 215.75)"><tspan> 7</tspan></text></g><path fill="none" stroke="#333" stroke-linecap="round" stroke-linejoin="round" stroke-width=".1" d="M299.57 205V45.01" class="gridline" color="#000"/><g fill="none" stroke-linecap="round" stroke-linejoin="round" stroke-width="0" color="#000"><path d="M299.57 205v-7.5m0-152.49v7.5"/><text fill="#000" font-family="KaTeX_Main" font-size="10" text-anchor="middle" transform="translate(299.57 215.75)"><tspan> 8</tspan></text></g><path fill="none" stroke="#333" stroke-linecap="round" stroke-linejoin="round" stroke-width=".1" d="M335.78 205V45.01" class="gridline" color="#000"/><g fill="none" stroke-linecap="round" stroke-linejoin="round" stroke-width="0" color="#000"><path d="M335.78 205v-7.5m0-152.49v7.5"/><text fill="#000" font-family="KaTeX_Main" font-size="10" text-anchor="middle" transform="translate(335.78 215.75)"><tspan> 9</tspan></text></g><path fill="none" stroke="#333" stroke-linecap="round" stroke-linejoin="round" stroke-width=".1" d="M371.99 205V45.01" class="gridline" color="#000"/><g fill="none" stroke-linecap="round" stroke-linejoin="round" stroke-width="0" color="#000"><path d="M371.99 205v-7.5m0-152.49v7.5"/><text fill="#000" font-family="KaTeX_Main" font-size="10" text-anchor="middle" transform="translate(371.99 215.75)"><tspan> 10</tspan></text></g><g fill="none" stroke-linecap="round" stroke-linejoin="round" stroke-width="0" color="#000"><path d="M371.99 205h-7.5"/><text fill="#000" font-family="KaTeX_Main" font-size="10" transform="translate(378.99 208.25)"><tspan>0.00</tspan></text></g><g fill="none" stroke-linecap="round" stroke-linejoin="round" stroke-width="0" color="#000"><path d="M371.99 182.14h-7.5"/><text fill="#000" font-family="KaTeX_Main" font-size="10" transform="translate(378.99 185.39)"><tspan>200.00</tspan></text></g><g fill="none" stroke-linecap="round" stroke-linejoin="round" stroke-width="0" color="#000"><path d="M371.99 159.29h-7.5"/><text fill="#000" font-family="KaTeX_Main" font-size="10" transform="translate(378.99 162.54)"><tspan>400.00</tspan></text></g><g fill="none" stroke-linecap="round" stroke-linejoin="round" stroke-width="0" color="#000"><path d="M371.99 136.43h-7.5"/><text fill="#000" font-family="KaTeX_Main" font-size="10" transform="translate(378.99 139.68)"><tspan>600.00</tspan></text></g><g fill="none" stroke-linecap="round" stroke-linejoin="round" stroke-width="0" color="#000"><path d="M371.99 113.58h-7.5"/><text fill="#000" font-family="KaTeX_Main" font-size="10" transform="translate(378.99 116.83)"><tspan>800.00</tspan></text></g><g fill="none" stroke-linecap="round" stroke-linejoin="round" stroke-width="0" color="#000"><path d="M371.99 90.72h-7.5"/><text fill="#000" font-family="KaTeX_Main" font-size="10" transform="translate(378.99 93.97)"><tspan>1000.00</tspan></text></g><g fill="none" stroke-linecap="round" stroke-linejoin="round" stroke-width="0" color="#000"><path d="M371.99 67.87h-7.5"/><text fill="#000" font-family="KaTeX_Main" font-size="10" transform="translate(378.99 71.12)"><tspan>1200.00</tspan></text></g><g fill="none" stroke-linecap="round" stroke-linejoin="round" stroke-width="0" color="#000"><path d="M371.99 45.01h-7.5"/><text fill="#000" font-family="KaTeX_Main" font-size="10" transform="translate(378.99 48.26)"><tspan>1400.00</tspan></text></g><path fill="none" d="M28 45.01V205M371.99 45.01H28" color="#000"/><text stroke-linecap="round" stroke-linejoin="round" stroke-width="0" color="#000" font-family="KaTeX_Main" font-size="10" text-anchor="middle" transform="rotate(-90 68.255 56.755)"><tspan font-weight="bold">Maximum Path Length </tspan><tspan> / log</tspan><tspan dy="3" font-size="8">2</tspan><tspan dy="-3">(Size)</tspan></text><text stroke-linecap="round" stroke-linejoin="round" stroke-width="0" color="#000" font-family="KaTeX_Main" font-size="10" text-anchor="middle" transform="translate(199.99 238.25)"><tspan>Operations × 10</tspan><tspan dy="-5" font-size="8">5</tspan></text><text stroke-linecap="round" stroke-linejoin="round" color="#000" font-family="KaTeX_Main" font-size="8" transform="translate(76.8 10.11)"><tspan>Splay</tspan></text><g fill="none" stroke="currentColor" stroke-linecap="round" stroke-linejoin="round" color="#000"><path stroke="violet" d="M41.3 7.51h29.9M28 130.28l.36-1.35.36-1.29.37-1.33.36-1.32.36-1.32.36-1.34.36-1.31.37-1.34.36-1.29.36-1.31.36-1.32.37-1.33.36-1.27.36-1.33.36-1.3.36-1.3.37-1.3.36-1.28.36-1.28.36-1.33.36-1.29.37-1.26.36-1.31.36-1.32.36-1.28.36-1.28.37-1.28.36-1.29.36-1.29.36-1.29.36-1.27.37-1.28.36-1.28.36-1.3.36-1.26.37-1.26.36-1.24.36-1.31.36-1.28.36-1.25.37-1.26.36-1.28.36-1.26.36-1.28.36-1.27.37-1.26.36-1.26.36-1.26.36-1.26.36-1.26.37 138.09.36-.01.36-.01.36-.01.37-.01h.36l.36.02.36-.01.36-.01.37.01.36-.01h.72l.36.01.37-.01h.36l.36.01h.36l.36-.01.37-.01h.72l.36-.01h.73l.36.01.36-.03.36.02h.37l.36.01h1.45l.36-.01h.36l.36-.02.36.01.37.01.36-.01h.72l.36-.03.37.02.36.01.36-.02.36.01h.73l.36-.01.36-1.24.36-1.48.37-1.44.36-1.44.36-1.44.36-1.43.36-1.46.37-1.45.36-1.38.36-1.42.36-1.44.36-1.42.37-1.41.36-1.41.36-1.41.36-1.4.37-1.38.36-1.4.36-1.4.36-1.41.36-1.4.37-1.32.36-1.42.36-1.32.36-1.42.36-1.34.37-1.38.36-1.37.36-1.34.36-1.35.36-1.36.37-1.36.36-1.37.36-1.33.36-1.37.36-1.34.37-1.35.36-1.32.36-1.34.36-1.36.37-1.34.36-1.3.36-1.34.36-1.34.36-1.31.37-1.34.36-1.34.36-1.33.36-1.3.36-1.34.37 68.75.36.02.36-.02.36.01h.73l.36-.01.36.01.36-.02h.37l.36.01.36-.01h.36l.36.01.37-.01h.72l.36.01.36-.01.37-.01.36.02.36-.03.36.01.36.02h.73l.36-.01h1.09l.36-.01h2.53l.37-.01.36.01.36-.01h.72l.37.01.36-.01.36.01.36-.01.36-.01h.73l.36-1.37.36-1.44.37-1.37.36-1.45.36-1.44.36-1.44.36-1.46.37-1.41.36-1.44.36-1.4.36-1.43.36-1.4.37-1.42.36-1.4.36-1.41.36-1.39.36-1.42.37-1.37.36-1.41.36-1.36.36-1.4.37-1.36.36-1.4.36-1.36.36-1.37.36-1.38.37-1.37.36-1.37.36-1.38.36-1.35.36-1.35.37-1.35.36-1.38.36-1.32.36-1.36.36-1.33.37-1.34.36-1.38.36-1.38.36-1.32.36-1.29.37-1.33.36-1.33.36-1.34.36-1.33.37-1.31.36-1.39.36-1.3.36-1.3.36-1.29.37 68.75h.72l.36-.01h.73l.36.01.36-.02h.72l.37-.01.36.02h.36l.36-.02.37.02.36-.01.36.02.36-.03.36-.01.37.02h.72l.36-.01h.36l.37.01.36-.02.36.01.36.01.36-.01.37.01.36-.02.36.01.36-.01.36.01.37-.01.36-.01.36.02.36.01.37-.02h.36l.36.01.36-.01h.36l.37-.01h.36l.36.01.36-.02.36.01.37-.01.36.01.36-1.28.36-1.46.36-1.45.37-1.44.36-1.44.36-1.43.36-1.45.37-1.41.36-1.46.36-1.4.36-1.41.36-1.47.37-1.39.36-1.45.36-1.37.36-1.39.36-1.41.37-1.4.36-1.39.36-1.41.36-1.36.36-1.38.37-1.38.36-1.38.36-1.39.36-1.31.36-1.4.37-1.36.36-1.37.36-1.38.36-1.37.37-1.34.36-1.35.36-1.34.36-1.34.36-1.36.37-1.32.36-1.33.36-1.35.36-1.36.36-1.34.37-1.36.36-1.31.36-1.3.36-1.35.36-1.3.37-1.36.36-1.29.36-1.36.36-1.3.37 68.75.36-.01.36-.01.36.02.36-.02h.73l.36.01h.36l.36-.01h.37l.36.01h.72l.36-.01h.73l.36-.01.36-.02.37.02h.72l.36.01.36-.01.37-.01h.36l.36.01.36-.01.36.02.37-.01.36-.01.36.01.36-.01h.36l.37-.01.36.01.36-.01.36.01.36-.01.37.01.36-.01.36.02.36-.02.37-.01.36.01.36.02.36-.01.36-.02.37.01h.36l.36-1.36.36-1.46.36-1.42.37-1.47.36-1.44.36-1.36.36-1.48.36-1.38.37-1.42.36-1.43.36-1.44.36-1.39.37-1.42.36-1.4.36-1.42.36-1.42.36-1.35.37-1.42.36-1.35.36-1.39.36-1.41.36-1.38.37-1.38.36-1.39.36-1.35.36-1.39.36-1.34.37-1.39.36-1.39.36-1.32.36-1.34.36-1.37.37-1.32.36-1.4.36-1.32.36-1.36.37-1.31.36-1.35.36-1.35.36-1.36.36-1.33.37-1.32.36-1.33.36-1.35.36-1.33.36-1.35.37-1.32.36-1.28.36-1.35.36-1.34.36 68.76.37-.02h1.45l.36.01.36-.02.36.01.36-.01.37-.01.36.03.36-.02h.36l.36.01h.37l.36-.02.36.01h1.09l.36-.01.36-.01.36.01.37.02.36-.02.36-.01h.36l.36.02.37-.01.36.01.36-.01.36.01.36-.01.37-.01h.36l.36.01.36-.01h.36l.37.01.36.01h.36l.36-.01.36-.01h.37l.36-.01h.72l.37-.01.36.03.36-1.22.36-1.47.36-1.44.37-1.44.36-1.45.36-1.47.36-1.44.36-1.44.37-1.4.36-1.43.36-1.41.36-1.41.36-1.4.37-1.4.36-1.46.36-1.37.36-1.37.37-1.41.36-1.39.36-1.4.36-1.36.36-1.42.37-1.38.36-1.35.36-1.37.36-1.38.36-1.36.37-1.4.36-1.35.36-1.34.36-1.34.36-1.39.37-1.34.36-1.35.36-1.37.36-1.34.36-1.39.37-1.3.36-1.37.36-1.31.36-1.37.37-1.29.36-1.36.36-1.3.36-1.33.36-1.35.37-1.31.36-1.33.36-1.3.36-1.32.36 68.75h.37l.36-.01h.36l.36-.01h.36l.37.01h.72l.36.01h.37l.36-.02h.36l.36.01h.36l.37-.01h.72l.36-.01.36.01h.37l.36-.01.36.01h.36l.36-.02.37.01.36-.01.36.01.36.01.36-.02h1.09l.36-.01.37.01.36.01.36-.01.36-.01.36.01h.37l.36-.01.36-.01.36.01h1.09l.36-.01.36-.02.36.02.37.02.36-1.25.36-1.46.36-1.42.37-1.46.36-1.43.36-1.46.36-1.43.36-1.44.37-1.41.36-1.45.36-1.42.36-1.41.36-1.41.37-1.4.36-1.4.36-1.42.36-1.42.36-1.35.37-1.41.36-1.35.36-1.43.36-1.33.37-1.4.36-1.39.36-1.35.36-1.4.36-1.37.37-1.32.36-1.36.36-1.37.36-1.37.36-1.35.37-1.36.36-1.34.36-1.36.36-1.36.36-1.36.37-1.33.36-1.34.36-1.33.36-1.37.36-1.32.37-1.29.36-1.35.36-1.36.36-1.3.37-1.34.36-1.33.36-1.3.36-1.35.36 68.76.37-.01h.72l.36.02.36-.02h.73l.36.01.36-.01h.73l.36-.02.36.02.36-.01.37.01.36-.02h.72l.36.01h1.81l.37-.02.36.01.36-.01h1.09l.36-.02.36.02.36-.01h.36l.37.01.36-.02.36.04.36-.02h.73l.36-.01.36-.01.36-.01h.37l.36.01h.72l.36-.01h.37l.36-1.19.36-1.43.36-1.48.36-1.45.37-1.43.36-1.45.36-1.42.36-1.46.37-1.38.36-1.47.36-1.4.36-1.4.36-1.42.37-1.4.36-1.43.36-1.37.36-1.43.36-1.38.37-1.4.36-1.4.36-1.37.36-1.39.36-1.37.37-1.39.36-1.38.36-1.37.36-1.36.36-1.37.37-1.35.36-1.38.36-1.34.36-1.35.37-1.35.36-1.35.36-1.42.36-1.29.36-1.34.37-1.33.36-1.32.36-1.39.36-1.29.36-1.37.37-1.32.36-1.35.36-1.28.36-1.35.36-1.32.37-1.33.36-1.32.36-1.3.36 68.76h.37l.36-.01h.72l.36.01.37-.01h.36l.36-.01.36.02.36-.02h.37l.36-.01h.36l.36.01.36-.01.37.01h.36l.36-.02.36.02h.37l.36-.01.36-.01h.36l.36.02h.37l.36-.02.36.02.36-.01h.36l.37-.01.36.01h.36l.36-.02.36.01h.37l.36.02.36-.01.36-.02.36.02.37-.03.36.02.36-.04.36.01h.37l.36.01.36.01.36-.01.36.01h.37l.36-1.42.36-1.31.36-1.44.36-1.46.37-1.43.36-1.44.36-1.46.36-1.42.36-1.43.37-1.42.36-1.42.36-1.39.36-1.43.37-1.44.36-1.38.36-1.4.36-1.37.36-1.42.37-1.4.36-1.39.36-1.37.36-1.39.36-1.4.37-1.33.36-1.38.36-1.39.36-1.4.36-1.34.37-1.36.36-1.4.36-1.33.36-1.37.36-1.31.37-1.39.36-1.33.36-1.37.36-1.31.37-1.37.36-1.33.36-1.33.36-1.35.36-1.33.37-1.3.36-1.37.36-1.31.36-1.33.36-1.32.37-1.33.36-1.3.36-1.37.36 68.74h.36l.37-.01.36-.01.36.02h.36l.37-.03.36.03h.36l.36.01.36-.02.37-.01.36.02.36-.02.36-.02.36.01.37.03.36-.01.36-.02.36.01h.36l.37-.01.36-.01.36.02.36-.01.36.01.37-.01.36.01.36-.02h.36l.37-.01.36.01.36-.01.36.02.36-.01h.37l.36.01.36-.01h1.09l.36.01h.36l.36-.02.36.01.37-.02.36.01.36.02.36-.03.37.04.36-1.15.36-1.5.36-1.46.36-1.42.37-1.48.36-1.42.36-1.43.36-1.45.36-1.42.37-1.43.36-1.43.36-1.41.36-1.39.36-1.4.37-1.4.36-1.43.36-1.38.36-1.37.37-1.43.36-1.37.36-1.4.36-1.35.36-1.4.37-1.39.36-1.38.36-1.35.36-1.34.36-1.38.37-1.37.36-1.38.36-1.31.36-1.37.36-1.35.37-1.35.36-1.35.36-1.39.36-1.3.36-1.38.37-1.3.36-1.35.36-1.36.36-1.32.37-1.34.36-1.31.36-1.38.36-1.26.36-1.37.37-1.29.36-1.32.36-1.33"/><use xlink:href="#b" color="violet" transform="matrix(3.75 0 0 3.75 354.25 202.57)"/><use xlink:href="#b" color="violet" transform="matrix(3.75 0 0 3.75 56.25 7.51)"/></g><text stroke-linecap="round" stroke-linejoin="round" color="#000" font-family="KaTeX_Main" font-size="8" transform="translate(76.8 25.11)"><tspan>TreapFingerTree</tspan></text><g fill="none" stroke="currentColor" stroke-linecap="round" stroke-linejoin="round" color="#000"><path stroke="#3B75EA" d="M41.3 22.51h29.9M28 204.67h2.9l.36-.01h2.9l.36-.01.36.02h.72l.37-.01.36.01h1.45l.36.01.36-.01h.72l.37.01.36-.01h.36l.36-.01.37.01h.72l.36.01.36-.01h.73l.36-.01h.36l.36.01h1.09l.36-.01.36.01h.37l.36-.01.36.01h.73l.36-.01.36.01H49l.36.01.37-.02.36.01h1.81l.36-.01h.36l.36-.01.37.01h1.08l.37-.01.36.02h.36l.36-.01.36.01.37-.01h.36l.36.01.36-.02h.36l.37.02.36-.01h.36l.36-.01.36.01.37.01.36-.01h1.81l.36-.01.36.01h1.09l.36-.01h.36l.37.01.36-.01.36.01h.72l.37-.01h1.81l.36.01.36-.01.36-.01h.37l.36.01h.36l.36-.01.36.01h3.62l.37-.01.36.01h1.08l.37-.01h2.17l.36-.01h1.81l.36-.01.37.03.36-.01h.36l.36.02.36-.02.37.01h.72l.36-.01h.37l.36.01h1.81l.36-.01.36.01.36-.01.37.01.36-.01h.36l.36.01h.73l.36.01.36-.02.36.01h1.81l.37-.01.36.01.36-.01.36.01h1.09l.36-.01.36.01h.36l.37.02.36-.03.36.02h.36l.36-.01h.37l.36.01.36.01.36-.01h.37l.36.01.36-.01h.72l.37-.01.36.01h.36l.36-.01.36.01.37-.01.36.01h1.45l.36.01h1.09l.36-.01.36.01h.36l.36-.01h.73l.36.01h1.09l.36-.01h1.08l.37.01h1.08l.36-.01.37.01.36-.01.36.01h.36l.37-.01h1.44l.37-.01.36-.01.36.01h.36l.36-.01.37.01h1.81l.36.01.36-.01.36.01.37-.01h.36l.36.01.36-.01.36.01h.37l.36-.02.36.01h.36l.36.01.37-.01.36-.01.36.02h.36l.36-.01h.37l.36.01h.36l.36-.01h.36l.37.02h.36l.36-.01.36-.01.37.01h.72l.36.01.36-.02.37.01h1.08l.36.01.37-.01h3.26l.36-.01.36.01h.36l.36.01.37-.01h2.89l.36.01.37-.01h2.17l.36.01h1.81l.36-.01.37.01h1.08l.36-.01.37.01.36-.01h2.17l.36-.01h1.81l.37-.01.36.01h1.81l.36-.01h.72l.37.01h.36l.36-.01h.36l.37.01h.36l.36-.01h1.81l.36-.01.36.01.37-.01.36.01h.72l.36-.01.37.01.36-.01h.36l.36.01h.36l.37-.01.36.01h.36l.36-.01.37.01h2.17l.36.01.36-.01h.36l.37.01h.36l.36.01h.36l.36-.01.37.01h.36l.36-.01h.36l.37.01.36-.01.36.01h.36l.36-.01h2.18l.36.01.36-.01.36.01h3.26l.36-.01h.73l.36.01h1.09l.36-.01h1.45l.36.01h2.17l.36-.01.37.01.36-.01h.72l.36.01h.73l.36-.01.36.01.36-.01h.73l.36.01.36-.01h.36l.37.01h.36l.36-.01h.36l.37.01.36-.01.36.01h.36l.36.01.37-.01.36-.01h.36l.36.01.36.01.37.01.36-.02.36.01h.36l.36-.01h.37l.36.01.36-.01.36.01.36-.01h.37l.36-.01.36.01.36-.01.37.02.36-.01h2.53l.36-.01.37.02h.36l.36-.01h.36l.36-.01.37.02.36-.01h.72l.37-.01.36.01.36-.01h2.9l.36-.01.36.02h2.17l.36-.01h1.82l.36.01.36-.01h.72l.37.01h.36l.36.01h1.45l.36-.01h.36l.36.01h1.09l.36-.01.37.01h2.53l.36-.01.36.01.37-.01h.36l.36.01h1.09l.36-.03.36.02h.36l.36-.01h.37l.36-.01.36.01.36.02.37-.01h1.44l.37.01.36-.02.36.02.36-.01h.36l.37.02.36-.03.36.02.36.01h.36l.37-.02.36.01h1.09l.36-.01.36.01h2.53l.37.01h2.53l.36-.01h.37l.36-.01.36.01h.36l.36-.01.37.01.36-.01.36.01h2.53l.37-.02.36.02.36-.01h.36l.36.01h.37l.36-.01.36.01.36-.02.37.01.36.01h.36l.36-.01h.36l.37.02.36-.01.36-.01.36-.01.36.01.37-.01.36.01.36-.01h.36l.36.01h.37l.36-.02.36.01.36.02.37-.01.36.01.36-.01h.36l.36-.01.37.01.36-.01h.72l.36.02.37-.03.36.03.36-.01.36-.02.36.02.37-.01.36.01.36.01.36-.01.36-.01.37.02.36-.01.36.01.36.01.37-.02.36.01.36-.01.36.01.36-.01.37.01h.36l.36.01.36-.01h.36l.37-.01h.72l.36.01.36-.01.37-.01h.36l.36.01h.36l.37-.02.36.01.36.01.36.01h.36l.37-.01h.36l.36-.01.36.01h.36l.37-.01.36.02h1.08l.37-.01h.36l.36.01h.36l.36-.01h.37l.36.01.36-.01h3.98l.37.01.36-.01.36.01h.36l.36-.01h.37l.36-.01h.36l.36.01.37-.01.36.01.36-.01h.36l.36.01.37-.01h.36l.36.01h.72l.37-.01.36.01h.72l.36-.01.37.01.36-.01h.36l.36.01h.37l.36.01h.72l.36-.01.37.01.36.01.36-.02h1.09l.36.01.36-.01h.72l.37-.01.36.02.36-.02.36.02.36-.01.37-.02.36.02.36.02.36-.02.37-.01.36.02h.36l.36-.01.36.01h1.09l.36-.01h2.9l.36.01h1.81l.36.01h2.54l.36-.01.36.01h2.17l.37-.01.36.01h.72l.37-.01h.72l.36.01.36-.01h2.18l.36-.01.36.02.36-.02.36.02.37-.01.36.01.36-.01h.73l.36.01.36-.01.36.01h.73l.36-.03.36.02h.36l.36-.01.37.01h.36l.36-.01.36.02.36-.02h.37l.36.01h.72l.36-.01.37.01.36-.01.36.01.36-.02.37.01.36.02.36.01.36-.02.36.01.37-.03.36.01.36.02.36-.01.36-.02.37.01h1.08l.36.01.37-.02.36.02h.72l.37-.01h1.44l.37-.01h.36l.36.01.36-.01.36.01h.73l.36-.01h1.45l.36.01h1.09l.36-.01h.72l.37.01.36-.01h.72l.36-.01h.73l.36.01.36-.01.36.01h.73l.36.01.36-.01h.36l.37.01.36-.01h.72l.37.01.36-.01h.72l.36.01h.37l.36-.01.36.01"/><use xlink:href="#d" color="#3B75EA" transform="matrix(3.75 0 0 3.75 67.83 204.65)"/><use xlink:href="#d" color="#3B75EA" transform="matrix(3.75 0 0 3.75 56.25 22.51)"/></g><text stroke-linecap="round" stroke-linejoin="round" color="#000" font-family="KaTeX_Main" font-size="8" transform="translate(241.1 10.11)"><tspan>LBSTRelaxed</tspan></text><g fill="none" stroke="currentColor" stroke-linecap="round" stroke-linejoin="round" color="#000"><path stroke="violet" stroke-dasharray="4.5,2.0,0.5,2.0,0.5,2.0" d="M205.6 7.51h29.9M28 204.81l.36.02.36-.03h.37l.36.01h.36l.36.01.36-.02.37.01.36-.01.36-.01.36.02.37-.01.36.02.36-.01.36-.01.36.01.37-.02.36.01.36.02.36-.01.36-.02h.37l.36.01.36-.01.36.02.36-.01.37-.01.36.02h.36l.36-.02.36.01.37-.01.36.01h1.09l.36.01h.36l.36.01.36-.01h.37l.36-.01.36.01h.72l.37-.01.36.01.36-.01h.72l.37.01h17.74l.36-.01h1.09l.36.03.36-.02h.36l.37.01h.72l.36.01.36-.01h.37l.36-.01.36.01H70l.37-.01.36.01.36-.01h1.45l.36.01.36-.01.36-.02.37.02.36-.02.36.01.36.01.36-.02h.37l.36.01h.72l.36-.01.37.01.36-.01.36.01h.36l.37.01.36.02.36-.02h.36l.36.01.37-.02.36.01h.72l.36.01h15.21l.36-.01h.73l.36.01h1.45l.36-.01h1.45l.36-.01h.73l.36.02.36-.01h.36l.36.01.37-.02h.36l.36.01.36-.02.36.02.37-.02.36.01.36-.01.36.01.37.01.36-.02h.36l.36.01.36.01h.73l.36-.01.36.01h.36l.37-.01h.36l.36.01h1.09l.36-.01h.36l.36.01h.36l.37-.01h.36l.36-.01.36.02h.37l.36-.01.36.02h.36l.36-.01.37.01h7.6l.36.01h.36l.37-.01h7.24l.36.01h1.81l.36-.01.36-.01.37-.01h.72l.36.01h.73l.36-.01h.36l.36-.01h.37l.36.01.36.01.36-.01.36.01.37.01.36-.01h1.08l.37-.01.36.01.36-.01h.36l.36.01h.37l.36-.01h.36l.36-.01.37.02.36-.02h.36l.36.02.36-.02.37.02.36-.01h.36l.36.02.36-.01.37.01.36-.01h.36l.36-.01.36.01.37-.01.36.01h2.53l.37-.01h.36l.36.01h1.45l.36-.01h.36l.36.01h5.8l.36-.01h6.52l.36.01h.36l.36-.01h.37l.36.01.36-.01.36.01h.36l.37-.01.36.01.36-.01h.36l.37.01.36-.01.36.01.36-.01.36-.01h.73l.36-.01.36.02.36-.01.37.01.36.02h.36l.36-.01.36-.02.37.01.36.01.36-.01.36.01.36-.01.37.01.36-.01.36.01.36-.02.37.01.36.01.36-.01h.36l.36-.01h.73l.36.01.36-.01.36.01.37.01.36-.01.36-.01.36.01h9.42l.36-.01h9.05l.36.01.37-.01.36-.01.36.02h.36l.36-.01h.73l.36.01h.36l.36.01.37-.01h.36l.36-.01.36.01h1.45l.36.01.37-.01h.72l.36.01.36-.01.37-.01h.36l.36.01.36-.02.36.01.37.01.36-.01.36.01.36-.01.36-.01.37.03h.36l.36-.01.36.01.37-.01h21l.36-.01.36.02.36-.02.37.01.36.01.36-.01h3.26l.36-.01h1.09l.36-.01.36.01.36.01.37-.01h.72l.36.01.36.01.37-.01h.36l.36-.01h.36l.36.01.37.01h.72l.36-.01h1.81l.36-.01h.73l.36.01.36-.01h.37l.36.03h.36l.36-.01.36.01h.73l.36-.01h16.66l.36.01.36-.01.36-.01.36-.01.37.01.36-.01.36.01h1.81l.36.01.37-.01.36.01.36-.02h.36l.36.02.37-.01.36.01.36-.01.36-.01.36.01h1.09l.36.01.36.02.37-.02h.72l.36.01.37-.01h.36l.36-.01.36.01h.36l.37-.01h.36l.36.02.36-.01h.36l.37-.01.36.01.36-.02.36.01.36-.01.37.02.36-.02.36.02h11.23l.36-.01h3.26l.36.01.36-.01h.73l.36.01.36-.01h1.09l.36-.02.36.02h.72l.37-.01.36-.01.36.01h.72l.37.02.36-.01h.36l.36.02.37-.01.36.01.36-.01.36-.01h.36l.37.01.36-.02.36.01.36-.01h.36l.37.01.36-.01.36.02h.36l.36.02.37-.01h.36l.36-.01h.36l.36.02.37-.01.36-.02.36.01.36-.01.37.02.36-.01h.36l.36-.01h.73l.36.01.36-.01h.36l.36.02.37-.01.36.01.36.01h18.11l.36-.02.36.01.36-.01.36.01.37-.01h1.44l.37.01.36-.01.36.01h.36l.36-.01.37-.01h.72l.36.02.37-.02.36.02.36-.01.36.01.36-.01.37-.01.36.03h.36l.36-.03.36.01.37.01h.36l.36-.01h.72l.37.01.36-.01.36-.01.36.01.36-.01.37.01.36.01h.36l.36-.01h.37l.36-.01.36.01.36-.01.36.01h.37l.36-.01h.36"/><use xlink:href="#e" color="violet" transform="matrix(3.75 0 0 3.75 125.4 204.82)"/><use xlink:href="#e" color="violet" transform="matrix(3.75 0 0 3.75 220.55 7.51)"/></g><text stroke-linecap="round" stroke-linejoin="round" color="#000" font-family="KaTeX_Main" font-size="8" transform="translate(241.1 25.11)"><tspan>RedBlackRelaxedTopDown</tspan></text><g fill="none" stroke="currentColor" stroke-linecap="round" stroke-linejoin="round" color="#000"><path stroke="#FFAB00" stroke-dasharray="4.5,2.0,0.5,2.0,0.5,2.0" d="M205.6 22.51h29.9M28 204.85h2.53l.37.01.36-.01h3.62l.36.01.36-.01h3.62l.37.01h.36l.36-.01h5.07l.36.01.36-.01h6.88l.37.01h.72l.36-.01h9.78l.36.01.36-.01h9.06l.36-.01.36.01h.36l.36-.01.37.01h2.17l.36-.01.36.01h26.44l.36.01h.72l.36-.01h.73l.36.01.36-.01h3.26l.36.01.37-.01h3.25l.37-.01.36.01h1.81l.36.01.36-.01h7.25l.36.01h.36l.36-.01h9.78l.36.01.36-.01h.73l.36.01.36-.01h8.69l.36.01h1.09l.36-.01h.73l.36.01.36-.01h2.9l.36.01.36-.01h.36l.37.01h18.46l.36-.01.37.01.36-.01.36-.01.36.01h2.54l.36.01.36-.01h7.24l.37.01.36-.01h2.17l.36.01.36-.01.37.01.36-.01h28.6l.37.01h.36l.36-.01h.72l.37.01.36-.01h1.08l.37.01.36-.01h1.09l.36-.01.36.01h1.09l.36-.01.36.01h17.38l.36.01h.73l.36-.01h.36l.36.01.37-.01h.72l.36.01.36-.01h.37l.36-.01.36.02h.36l.36-.01h7.25l.36-.01h.36l.36.01.36-.01.37.01h22.45l.36.01h1.45l.36-.01h6.88l.36.01.36-.01h3.26l.36.01.37-.01h1.44l.37.01.36-.01h22.45l.36.01.36-.01.36.01.37-.01.36.01.36-.01.36.01.37-.01.36.01.36-.01h.72l.37.01.36-.01h1.45l.36-.01.36.01h26.8l.36.01.36-.01h1.81l.36.01h.73l.36-.01h2.9l.36-.01.36.01h.72l.37-.01.36.01h2.53l.36.01.37-.01h5.79"/><use xlink:href="#f" color="#FFAB00" transform="matrix(3.75 0 0 3.75 182.98 204.85)"/><use xlink:href="#f" color="#FFAB00" transform="matrix(3.75 0 0 3.75 220.55 22.51)"/></g><path fill="none" d="M28 45.01V205M371.99 45.01H28" color="#000"/></svg>