<svg xmlns="http://www.w3.org/2000/svg" xmlns:xlink="http://www.w3.org/1999/xlink" viewBox="0 0 400 250"><path fill="none" d="M0 0h400v250H0z"/><defs><use xlink:href="#a" id="g" fill="currentColor" stroke="none"/><use xlink:href="#b" id="h" fill="currentColor" stroke="none"/><use xlink:href="#b" id="c" stroke="currentColor" transform="rotate(180)"/><use xlink:href="#d" id="e" stroke="currentColor" transform="rotate(45)"/><path id="d" stroke="currentColor" stroke-width=".267" d="M-1-1h2v2h-2z"/><path id="b" stroke="currentColor" stroke-width=".267" d="m0-1.33-1.33 2h2.66z"/><path id="f" stroke="currentColor" stroke-width=".267" d="M0 1.33 1.265.411.782-1.067l-1.564-.009-.483 1.487z"/><circle id="a" cx="0" cy="0" r="1" stroke="currentColor" stroke-width=".267"/></defs><path fill="none" stroke="#333" stroke-linecap="round" stroke-linejoin="round" stroke-width=".1" d="M46.1 205V45.01" class="gridline" color="#000"/><g fill="none" stroke="none" stroke-linecap="round" stroke-linejoin="round" stroke-width="0" color="#000"><path d="M46.1 205v-7.5m0-152.49v7.5"/><text fill="#000" font-family="KaTeX_Main" font-size="8" text-anchor="middle" transform="translate(46.1 215.1)"><tspan> 1</tspan></text></g><path fill="none" stroke="#333" stroke-linecap="round" stroke-linejoin="round" stroke-width=".1" d="M82.31 205V45.01" class="gridline" color="#000"/><g fill="none" stroke="none" stroke-linecap="round" stroke-linejoin="round" stroke-width="0" color="#000"><path d="M82.31 205v-7.5m0-152.49v7.5"/><text fill="#000" font-family="KaTeX_Main" font-size="8" text-anchor="middle" transform="translate(82.31 215.1)"><tspan> 2</tspan></text></g><path fill="none" stroke="#333" stroke-linecap="round" stroke-linejoin="round" stroke-width=".1" d="M118.52 205V45.01" class="gridline" color="#000"/><g fill="none" stroke="none" stroke-linecap="round" stroke-linejoin="round" stroke-width="0" color="#000"><path d="M118.52 205v-7.5m0-152.49v7.5"/><text fill="#000" font-family="KaTeX_Main" font-size="8" text-anchor="middle" transform="translate(118.52 215.1)"><tspan> 3</tspan></text></g><path fill="none" stroke="#333" stroke-linecap="round" stroke-linejoin="round" stroke-width=".1" d="M154.73 205V45.01" class="gridline" color="#000"/><g fill="none" stroke="none" stroke-linecap="round" stroke-linejoin="round" stroke-width="0" color="#000"><path d="M154.73 205v-7.5m0-152.49v7.5"/><text fill="#000" font-family="KaTeX_Main" font-size="8" text-anchor="middle" transform="translate(154.73 215.1)"><tspan> 4</tspan></text></g><path fill="none" stroke="#333" stroke-linecap="round" stroke-linejoin="round" stroke-width=".1" d="M190.94 205V45.01" class="gridline" color="#000"/><g fill="none" stroke="none" stroke-linecap="round" stroke-linejoin="round" stroke-width="0" color="#000"><path d="M190.94 205v-7.5m0-152.49v7.5"/><text fill="#000" font-family="KaTeX_Main" font-size="8" text-anchor="middle" transform="translate(190.94 215.1)"><tspan> 5</tspan></text></g><path fill="none" stroke="#333" stroke-linecap="round" stroke-linejoin="round" stroke-width=".1" d="M227.15 205V45.01" class="gridline" color="#000"/><g fill="none" stroke="none" stroke-linecap="round" stroke-linejoin="round" stroke-width="0" color="#000"><path d="M227.15 205v-7.5m0-152.49v7.5"/><text fill="#000" font-family="KaTeX_Main" font-size="8" text-anchor="middle" transform="translate(227.15 215.1)"><tspan> 6</tspan></text></g><path fill="none" stroke="#333" stroke-linecap="round" stroke-linejoin="round" stroke-width=".1" d="M263.36 205V45.01" class="gridline" color="#000"/><g fill="none" stroke="none" stroke-linecap="round" stroke-linejoin="round" stroke-width="0" color="#000"><path d="M263.36 205v-7.5m0-152.49v7.5"/><text fill="#000" font-family="KaTeX_Main" font-size="8" text-anchor="middle" transform="translate(263.36 215.1)"><tspan> 7</tspan></text></g><path fill="none" stroke="#333" stroke-linecap="round" stroke-linejoin="round" stroke-width=".1" d="M299.57 205V45.01" class="gridline" color="#000"/><g fill="none" stroke="none" stroke-linecap="round" stroke-linejoin="round" stroke-width="0" color="#000"><path d="M299.57 205v-7.5m0-152.49v7.5"/><text fill="#000" font-family="KaTeX_Main" font-size="8" text-anchor="middle" transform="translate(299.57 215.1)"><tspan> 8</tspan></text></g><path fill="none" stroke="#333" stroke-linecap="round" stroke-linejoin="round" stroke-width=".1" d="M335.78 205V45.01" class="gridline" color="#000"/><g fill="none" stroke="none" stroke-linecap="round" stroke-linejoin="round" stroke-width="0" color="#000"><path d="M335.78 205v-7.5m0-152.49v7.5"/><text fill="#000" font-family="KaTeX_Main" font-size="8" text-anchor="middle" transform="translate(335.78 215.1)"><tspan> 9</tspan></text></g><path fill="none" stroke="#333" stroke-linecap="round" stroke-linejoin="round" stroke-width=".1" d="M371.99 205V45.01" class="gridline" color="#000"/><g fill="none" stroke="none" stroke-linecap="round" stroke-linejoin="round" stroke-width="0" color="#000"><path d="M371.99 205v-7.5m0-152.49v7.5"/><text fill="#000" font-family="KaTeX_Main" font-size="8" text-anchor="middle" transform="translate(371.99 215.1)"><tspan> 10</tspan></text></g><g fill="none" stroke="none" stroke-linecap="round" stroke-linejoin="round" stroke-width="0" color="#000"><path d="M371.99 205h-7.5"/><text fill="#000" font-family="KaTeX_Main" font-size="8" transform="translate(378.99 207.6)"><tspan>-1</tspan></text></g><g fill="none" stroke="none" stroke-linecap="round" stroke-linejoin="round" stroke-width="0" color="#000"><path d="M371.99 45.01h-7.5"/><text fill="#000" font-family="KaTeX_Main" font-size="8" transform="translate(378.99 47.61)"><tspan>0</tspan></text></g><path fill="none" stroke="none" stroke-linecap="round" stroke-linejoin="round" stroke-width="0" d="M28 45.01V205M371.99 45.01H28" color="#000"/><text fill="#000" stroke="none" stroke-linecap="round" stroke-linejoin="round" stroke-width="0" color="#000" font-family="KaTeX_Main" font-size="10" text-anchor="middle" transform="rotate(-90 68.255 56.755)"><tspan>log</tspan><tspan dy="3" font-size="8">2</tspan><tspan dy="-3">(</tspan><tspan font-weight="bold">AveragePathLength </tspan><tspan> / log</tspan><tspan dy="3" font-size="8">2</tspan><tspan dy="-3">(Size))</tspan></text><text fill="#000" stroke="none" stroke-linecap="round" stroke-linejoin="round" stroke-width="0" color="#000" font-family="KaTeX_Main" font-size="10" text-anchor="middle" transform="translate(199.99 238.25)"><tspan>Operations × 10</tspan><tspan dy="-5" font-size="8">5</tspan></text><text fill="#000" stroke="none" stroke-linecap="round" stroke-linejoin="round" color="#000" font-family="KaTeX_Main" font-size="8" transform="translate(132.8 10.11)"><tspan>LBSTBottomUp</tspan></text><g fill="none" stroke="currentColor" stroke-linecap="round" stroke-linejoin="round" color="#000"><path stroke="#3B75EA" d="M97.3 7.51h29.9M28 75.52l.36-.03.36-.02.37-.01.36-.01.36-.01.36-.01h.36l.37-.01.36-.01.36-.01.36-.01.37-.03.36-.02.36-.04.36-.03.36-.05.37-.05.36-.06.36-.07.36-.06.36-.08.37-.07.36-.08.36-.08.36-.08.36-.08.37-.07.36-.08.36-.07.36-.08.36-.06.37-.07.36-.06.36-.06.36-.06.37-.05.36-.05.36-.04.36-.04.36-.04.37-.03.36-.04.36-.02.36-.03.36-.02.37-.02.36-.02.36-.01.36-.02.36-.01h.37l.36-.01H48.64l.36.01h.36l.37.01.36.01h.36l.36.01.36.01.37.01.36.01.36.01.36.01.36.01h.37l.36.01h.36l.36.01.37-.01h.72l.36-.01.36-.01.37-.02.36-.01.36-.02.36-.03.36-.02.37-.03.36-.03.36-.03.36-.04.36-.04.37-.04.36-.04.36-.04.36-.04.36-.05.37-.04.36-.05.36-.04.36-.05.37-.04.36-.05.36-.04.36-.04.36-.05.37-.04.36-.04.36-.04.36-.04.36-.04.37-.04.36-.03.36-.04.36-.03.36-.03.37-.04.36-.03.36-.03.36-.02.37-.03.36-.03.36-.02.36-.03.36-.02.37-.02.36-.02.36-.03.36-.02.36-.01.37-.02.36-.02.36-.02.36-.01.36-.02.37-.01.36-.01.36-.02.36-.01.36-.01.37-.01.36-.01.36-.01.36-.01h.37l.36-.01.36-.01h.36l.36-.01.37-.01h.72l.36-.01H83.4l.36-.01H84.85l.36.01H86.66l.36.01h.73l.36.01h.36l.36.01h.36l.37.01h.36l.36.01.36.01H91l.37.01.36.01.36.01h.36l.36.01.37.01.36.01.36.01h.36l.37.01.36.01.36.01.36.01.36.01.37.01.36.01h.36l.36.01.36.01.37.01h.36l.36.01.36.01h.36l.37.01h.72l.36.01H102.23l.36-.01h.73l.36-.01.36-.01h.36l.36-.01.37-.01.36-.02.36-.01.36-.01.36-.02.37-.01.36-.02.36-.02.36-.02.37-.02.36-.02.36-.02.36-.02.36-.03.37-.02.36-.03.36-.02.36-.02.36-.03.37-.02.36-.03.36-.02.36-.03.36-.02.37-.03.36-.02.36-.03.36-.02.36-.03.37-.02.36-.03.36-.02.36-.02.37-.03.36-.02.36-.02.36-.03.36-.02.37-.02.36-.02.36-.02.36-.02.36-.02.37-.02.36-.02.36-.02.36-.02.36-.02.37-.02.36-.02.36-.02.36-.01.37-.02.36-.02.36-.01.36-.02.36-.02.37-.01.36-.02.36-.01.36-.02.36-.01.37-.02.36-.01.36-.01.36-.02.36-.01.37-.01.36-.02.36-.01.36-.01.36-.01.37-.02.36-.01.36-.01.36-.01.37-.01.36-.01.36-.01.36-.01.36-.01.37-.01.36-.01.36-.01.36-.01.36-.01.37-.01.36-.01.36-.01h.36l.36-.01.37-.01.36-.01h.36l.36-.01.37-.01h.36l.36-.01.36-.01h.36l.37-.01.36-.01h.36l.36-.01h.36l.37-.01h.36l.36-.01h.36l.36-.01h.37l.36-.01h.72l.36-.01h.37l.36-.01H148.22l.36-.01h.72l.36-.01H151.11l.36-.01H153.28l.37-.01H160.53l.36.01H163.06l.36.01H164.87l.36.01H166.32l.36.01H167.77l.36.01H169.22l.36.01h.72l.37.01h.72l.36.01h.36l.37.01h.72l.36.01h.36l.37.01h.72l.36.01h.36l.37.01h.36l.36.01h.73l.36.01h.36l.36.01h.36l.37.01h.36l.36.01h.36l.36.01h.37l.36.01.36.01h.36l.36.01h.37l.36.01h.36l.36.01h.36l.37.01.36.01h.36l.36.01h.37l.36.01h.36l.36.01.36.01h.37l.36.01h.36l.36.01h.36l.37.01h.36l.36.01h.36l.36.01h.37l.36.01h.36l.36.01h.73l.36.01h.72l.37.01H197.82l.36-.01H199.27l.36-.01h.37l.36-.01.36-.01h.36l.36-.01.37-.01.36-.01h.36l.36-.01.36-.01.37-.01.36-.01.36-.01.36-.02.36-.01.37-.01.36-.01.36-.01.36-.02.36-.01.37-.01.36-.02.36-.01.36-.01.37-.02.36-.01.36-.01.36-.02.36-.01.37-.02.36-.01.36-.01.36-.02.36-.01.37-.02.36-.01.36-.01.36-.02.36-.01.37-.01.36-.02.36-.01.36-.01.37-.02.36-.01.36-.01.36-.02.36-.01.37-.01.36-.01.36-.02.36-.01.36-.01.37-.01.36-.01.36-.02.36-.01.36-.01.37-.01.36-.01.36-.02.36-.01.36-.01.37-.01.36-.01.36-.01.36-.01.37-.01.36-.01.36-.01.36-.02.36-.01.37-.01.36-.01.36-.01.36-.01.36-.01.37-.01.36-.01.36-.01.36-.01.36-.01.37-.01.36-.01h.36l.36-.01.37-.01.36-.01.36-.01.36-.01.36-.01.37-.01.36-.01.36-.01h.36l.36-.01.37-.01.36-.01.36-.01.36-.01h.36l.37-.01.36-.01.36-.01.36-.01h.36l.37-.01.36-.01.36-.01.36-.01h.37l.36-.01.36-.01h.36l.36-.01.37-.01.36-.01h.36l.36-.01.36-.01h.37l.36-.01.36-.01h.36l.36-.01.37-.01h.36l.36-.01.36-.01h.37l.36-.01h.36l.36-.01.36-.01h.37l.36-.01h.36l.36-.01.36-.01h.37l.36-.01h.36l.36-.01h.36l.37-.01h.36l.36-.01h.36l.37-.01.36-.01h.36l.36-.01h.73l.36-.01h.36l.36-.01h.36l.37-.01h.36l.36-.01h.36l.36-.01h.37l.36-.01h.72l.36-.01h.37l.36-.01h.72l.37-.01h.36l.36-.01h.72l.37-.01h.72l.36-.01h.73l.36-.01h.72l.36-.01h.73l.36-.01h.73l.36-.01h.72l.36-.01H271.69l.36-.01H273.14l.36-.01H274.59l.36-.01h1.08l.37-.01h1.08l.37-.01h1.44l.37-.01h1.81l.36-.01h1.81l.36-.01H286.54l.36-.01H289.79l.37-.01h4.34l.36-.01H308.99l.36.01h5.07l.36.01H318.4l.36.01H321.3l.36.01H324.19l.37.01h2.17l.36.01H328.9l.36.01H331.07l.37.01h1.81l.36.01H335.06l.36.01H336.87l.36.01H338.68l.36.01H340.49l.36.01H341.94l.36.01H343.75l.36.01h1.08l.37.01h1.08l.37.01h1.08l.36.01H349.54l.36.01H350.99l.36.01H352.44l.36.01H353.89l.36.01h1.08l.37.01h.72l.36.01H357.87l.36.01h.72l.37.01h1.08l.37.01h.72l.36.01H362.94l.36.01h.72l.37.01h.72l.36.01H366.56l.36.01h.72l.37.01h.72l.36.01h.73l.36.01H371.27l.36.01h.36"/><use xlink:href="#a" color="#3B75EA" transform="matrix(3.75 0 0 3.75 353.89 69.01)"/><use xlink:href="#a" color="#3B75EA" transform="matrix(3.75 0 0 3.75 112.25 7.51)"/></g><text fill="#000" stroke="none" stroke-linecap="round" stroke-linejoin="round" color="#000" font-family="KaTeX_Main" font-size="8" transform="translate(132.8 25.11)"><tspan>LBSTTopDown</tspan></text><g fill="none" stroke="currentColor" stroke-linecap="round" stroke-linejoin="round" color="#000"><path stroke="#F44336" stroke-dasharray="4.5,2.0,0.5,2.0,0.5,2.0" d="M97.3 22.51h29.9M28 68.97l.36-.1.36-.1.37-.1.36-.1.36-.1.36-.09.36-.09.37-.09.36-.1.36-.09.36-.1.37-.11.36-.1.36-.11.36-.11.36-.1.37-.09.36-.09.36-.07.36-.06.36-.04.37-.02h.36l.36.02.36.04.36.05.37.07.36.08.36.1.36.1.36.1.37.1.36.1.36.09.36.09.37.07.36.06.36.05.36.03.36.01h.37l.36-.02.36-.03.36-.05.36-.06.37-.06.36-.08.36-.08.36-.08.36-.09.37-.08.36-.08.36-.07.36-.07.37-.06.36-.06.36-.05.36-.03.36-.04.37-.02.36-.02.36-.01.36-.01.36-.01.37-.01.36-.01.36-.01.36-.02.36-.02.37-.03.36-.04.36-.05.36-.05.37-.07.36-.07.36-.08.36-.08.36-.1.37-.1.36-.1.36-.1.36-.11.36-.11.37-.1.36-.1.36-.1.36-.09.36-.09.37-.08.36-.07.36-.06.36-.05.36-.04.37-.03.36-.02.36-.01h.36l.37.02.36.02.36.03.36.04.36.05.37.06.36.07.36.08.36.08.36.09.37.09.36.1.36.1.36.1.36.1.37.11.36.1.36.11.36.1.37.09.36.1.36.09.36.08.36.08.37.07.36.07.36.06.36.05.36.04.37.04.36.03.36.02.36.02h.73l.36-.01.36-.01.36-.02.36-.03.37-.04.36-.04.36-.05.36-.06.37-.06.36-.06.36-.07.36-.07.36-.08.37-.07.36-.08.36-.08.36-.08.36-.08.37-.08.36-.08.36-.08.36-.07.36-.07.37-.07.36-.07.36-.06.36-.05.37-.05.36-.05.36-.04.36-.03.36-.03.37-.02.36-.02.36-.01.36-.01h.73l.36.01.36.01.36.01.36.02.37.03.36.02.36.03.36.03.36.03.37.03.36.03.36.03.36.03.37.03.36.02.36.03.36.02.36.02.37.01.36.01h.36l.36.01.36-.01.37-.01.36-.01.36-.02.36-.02.36-.03.37-.04.36-.04.36-.04.36-.05.37-.06.36-.06.36-.06.36-.06.36-.07.37-.07.36-.08.36-.07.36-.08.36-.08.37-.08.36-.08.36-.08.36-.08.36-.08.37-.08.36-.07.36-.08.36-.07.37-.07.36-.06.36-.06.36-.06.36-.06.37-.05.36-.05.36-.04.36-.04.36-.04.37-.03.36-.03.36-.02.36-.03.36-.02.37-.01.36-.01.36-.01.36-.01h.36l.37-.01h.36l.36.01h.36l.37.01.36.01.36.01.36.01.36.01.37.02.36.02.36.02.36.02.36.03.37.02.36.03.36.04.36.03.36.04.37.04.36.05.36.05.36.05.37.05.36.06.36.06.36.07.36.07.37.07.36.07.36.07.36.08.36.08.37.08.36.08.36.08.36.08.36.08.37.08.36.08.36.07.36.08.36.07.37.07.36.07.36.06.36.07.37.05.36.06.36.05.36.05.36.05.37.04.36.04.36.04.36.03.36.03.37.03.36.03.36.02.36.03.36.02.37.02.36.01.36.02.36.01.37.02.36.01.36.01h.36l.36.01H142.78l.37-.01.36-.01.36-.01.36-.01.36-.02.37-.02.36-.02.36-.03.36-.02.36-.03.37-.04.36-.03.36-.04.36-.04.37-.05.36-.04.36-.05.36-.05.36-.06.37-.05.36-.06.36-.06.36-.06.36-.06.37-.06.36-.06.36-.07.36-.06.36-.06.37-.07.36-.06.36-.06.36-.06.37-.06.36-.06.36-.06.36-.06.36-.05.37-.05.36-.05.36-.05.36-.05.36-.05.37-.04.36-.04.36-.04.36-.04.36-.03.37-.04.36-.03.36-.02.36-.03.37-.03.36-.02.36-.02.36-.02.36-.02.37-.02.36-.01.36-.01.36-.02h.36l.37-.01.36-.01.36-.01H168.13l.36.01.36.01.37.01.36.01.36.01.36.02.37.01.36.02.36.03.36.02.36.02.37.03.36.03.36.03.36.03.36.04.37.03.36.04.36.03.36.04.36.04.37.04.36.03.36.04.36.04.37.03.36.04.36.03.36.03.36.03.37.03.36.03.36.02.36.03.36.02.37.02.36.02.36.02.36.01.36.01.37.01.36.01.36.01.36.01h.36l.37.01h1.81l.36-.01h.36l.36-.01.37-.01.36-.01.36-.01.36-.01.36-.01.37-.02.36-.02.36-.01.36-.02.36-.03.37-.02.36-.02.36-.03.36-.03.37-.03.36-.03.36-.04.36-.03.36-.04.37-.04.36-.05.36-.04.36-.05.36-.04.37-.05.36-.05.36-.06.36-.05.36-.05.37-.06.36-.05.36-.06.36-.06.37-.06.36-.06.36-.05.36-.06.36-.06.37-.06.36-.06.36-.05.36-.06.36-.05.37-.06.36-.05.36-.05.36-.06.36-.04.37-.05.36-.05.36-.05.36-.04.36-.04.37-.04.36-.04.36-.04.36-.04.37-.03.36-.03.36-.04.36-.03.36-.03.37-.02.36-.03.36-.02.36-.03.36-.02.37-.02.36-.02.36-.02.36-.01.36-.02.37-.01.36-.01.36-.01.36-.01.37-.01.36-.01h.36l.36-.01H217.74l.36.01h.36l.36.01h.37l.36.01.36.01.36.02.36.01.37.01.36.02.36.01.36.02.36.02.37.02.36.01.36.02.36.02.37.02.36.01.36.02.36.02.36.01.37.02.36.01.36.01.36.01.36.01.37.01.36.01h.36l.36.01H231.5l.36-.01h.36l.36-.01h.37l.36-.01h.36l.36-.01h.36l.37-.01h2.53l.36.01.36.01.37.01.36.01.36.02.36.02.37.02.36.03.36.02.36.04.36.03.37.05.36.04.36.05.36.05.36.06.37.06.36.07.36.06.36.08.36.07.37.08.36.08.36.08.36.09.37.08.36.09.36.08.36.09.36.09.37.08.36.08.36.09.36.07.36.08.37.07.36.07.36.07.36.06.36.06.37.05.36.05.36.04.36.04.37.04.36.03.36.03.36.02.36.02.37.02.36.01.36.01.36.01.36.01H258.65l.37-.01h.36l.36-.01h.36l.36-.01.37-.01h.36l.36-.01.36-.01h.37l.36-.01h.72l.36-.01H265.17l.36.01h.37l.36.01.36.01h.36l.36.02.37.01.36.01.36.01.36.02.37.02.36.01.36.02.36.02.36.02.37.01.36.02.36.02.36.02.36.01.37.02.36.02.36.01.36.01.36.01.37.01.36.01.36.01h.36l.36.01H278.21l.36-.01h.36l.36-.01.37-.01.36-.01h.36l.36-.01.36-.01.37-.01.36-.01.36-.01.36-.02.36-.01.37-.01.36-.02.36-.01.36-.02.37-.01.36-.02.36-.02.36-.02.36-.02.37-.02.36-.02.36-.03.36-.02.36-.03.37-.03.36-.03.36-.03.36-.03.36-.04.37-.03.36-.04.36-.04.36-.04.36-.04.37-.05.36-.04.36-.05.36-.04.37-.05.36-.05.36-.05.36-.04.36-.05.37-.05.36-.05.36-.06.36-.05.36-.05.37-.05.36-.04.36-.05.36-.05.36-.05.37-.05.36-.04.36-.05.36-.04.37-.04.36-.04.36-.04.36-.04.36-.04.37-.03.36-.04.36-.03.36-.03.36-.03.37-.03.36-.03.36-.03.36-.02.36-.03.37-.02.36-.02.36-.02.36-.03.37-.02.36-.02.36-.02.36-.02.36-.02.37-.01.36-.02.36-.02.36-.02.36-.01.37-.02.36-.01.36-.02.36-.01.36-.01.37-.01.36-.01.36-.01h.36l.36-.01h.73l.36.01h.36l.37.01.36.01.36.01.36.01.36.02.37.01.36.02.36.01.36.02.36.01.37.01.36.02.36.01.36.01.36.01h.73l.36.01.36-.01h.37l.36-.01h.36l.36-.01.36-.02.37-.01.36-.01.36-.02.36-.02.36-.01.37-.02.36-.02.36-.01.36-.02.36-.02.37-.01.36-.02.36-.01.36-.02.36-.01.37-.02.36-.01.36-.02.36-.01.37-.02.36-.01.36-.02.36-.01.36-.02.37-.02.36-.01.36-.02.36-.02.36-.01.37-.01.36-.02h.36l.36-.01h.36l.37.01.36.01.36.02.36.02.37.04.36.04.36.05.36.06.36.08.37.08.36.09.36.09.36.1.36.11.37.11.36.12.36.11.36.11.36.11.37.1.36.09.36.09.36.07.36.07.37.05.36.05.36.03.36.02.37.01.36.01h.36l.36-.01.36-.02.37-.01.36-.02.36-.03.36-.02.36-.02.37-.03.36-.02.36-.02.36-.02.36-.02.37-.01.36-.01.36-.01.36-.01.37-.01h.36l.36-.01h.36l.36-.01.37-.01.36-.01.36-.01.36-.02.36-.02.37-.02.36-.02.36-.02.36-.03.36-.02.37-.03.36-.02.36-.03.36-.02.37-.03.36-.03.36-.02.36-.03.36-.03.37-.02.36-.02.36-.01.36-.01.36.01.37.02.36.04.36.06.36.08.36.09.37.1.36.1.36.09.36.07.36.05.37.03h.36l.36-.02.36-.03.37-.04.36-.04.36-.04.36-.04.36-.05.37-.02.36.02.36.17"/><use xlink:href="#g" color="#F44336" transform="matrix(3.75 0 0 3.75 67.83 65.84)"/><use xlink:href="#g" color="#F44336" transform="matrix(3.75 0 0 3.75 112.25 22.51)"/></g><text fill="#000" stroke="none" stroke-linecap="round" stroke-linejoin="round" color="#000" font-family="KaTeX_Main" font-size="8" transform="translate(241.1 10.11)"><tspan>WBSTBottomUp</tspan></text><g fill="none" stroke="currentColor" stroke-linecap="round" stroke-linejoin="round" color="#000"><path stroke="#000" d="M205.6 7.51h29.9M28 73.07l.36-.12.36-.11.37-.1.36-.08.36-.07.36-.06.36-.04.37-.03h.36l.36.01.36.03.37.04.36.06.36.07.36.08.36.09.37.08.36.08.36.08.36.06.36.05.37.03.36.02h.36l.36-.02.36-.03.37-.05.36-.06.36-.07.36-.09.36-.09.37-.11.36-.1.36-.11.36-.11.37-.11.36-.1.36-.11.36-.09.36-.09.37-.09.36-.07.36-.07.36-.06.36-.05.37-.05.36-.04.36-.04.36-.03.36-.03.37-.04.36-.03.36-.04.36-.04.37-.04.36-.05.36-.05.36-.06.36-.06.37-.06.36-.07.36-.06.36-.07.36-.07.37-.06.36-.06.36-.05.36-.04.36-.04.37-.02.36-.02h.36l.36.01.37.02.36.03.36.05.36.05.36.07.37.07.36.09.36.08.36.1.36.09.37.09.36.1.36.09.36.08.36.08.37.07.36.06.36.06.36.05.36.03.37.03.36.02h.36l.36.01.37-.01.36-.02.36-.02.36-.03.36-.03.37-.03.36-.04.36-.05.36-.04.36-.05.37-.05.36-.05.36-.05.36-.06.36-.05.37-.06.36-.05.36-.06.36-.06.37-.06.36-.06.36-.06.36-.06.36-.07.37-.06.36-.06.36-.07.36-.06.36-.06.37-.06.36-.06.36-.06.36-.05.36-.05.37-.04.36-.05.36-.03.36-.04.36-.02.37-.03.36-.01.36-.01.36-.01.37-.01.36.01h.36l.36.01.36.01.37.01.36.02.36.01.36.02.36.01.37.01.36.01.36.01.36.01h.73l.36-.01.36-.01.36-.01.37-.02.36-.03.36-.02.36-.04.36-.03.37-.04.36-.04.36-.05.36-.04.36-.05.37-.06.36-.05.36-.06.36-.05.36-.06.37-.06.36-.06.36-.06.36-.05.36-.06.37-.06.36-.06.36-.05.36-.06.37-.05.36-.05.36-.05.36-.05.36-.04.37-.04.36-.04.36-.03.36-.03.36-.02.37-.02.36-.01.36-.01.36.01h.36l.37.02.36.03.36.03.36.04.37.04.36.06.36.06.36.07.36.08.37.08.36.08.36.09.36.1.36.1.37.1.36.1.36.1.36.1.36.1.37.09.36.1.36.09.36.09.37.08.36.08.36.07.36.06.36.06.37.06.36.04.36.04.36.04.36.02.37.03.36.01.36.01.36.01h.73l.36-.01.36-.01.36-.02.36-.02.37-.02.36-.03.36-.02.36-.03.37-.03.36-.04.36-.03.36-.04.36-.03.37-.04.36-.04.36-.04.36-.04.36-.04.37-.03.36-.04.36-.04.36-.04.36-.03.37-.04.36-.03.36-.03.36-.03.37-.03.36-.03.36-.03.36-.02.36-.02.37-.03.36-.02.36-.01.36-.02.36-.02.37-.02.36-.01.36-.02.36-.01.36-.01.37-.02.36-.01.36-.02.36-.02.36-.01.37-.02.36-.02.36-.02.36-.02.37-.02.36-.03.36-.03.36-.02.36-.03.37-.03.36-.04.36-.03.36-.04.36-.03.37-.04.36-.04.36-.04.36-.05.36-.04.37-.04.36-.05.36-.04.36-.05.37-.04.36-.05.36-.04.36-.05.36-.04.37-.05.36-.04.36-.04.36-.04.36-.04.37-.04.36-.03.36-.04.36-.03.36-.03.37-.02.36-.02.36-.02.36-.02.36-.01.37-.01.36-.01h.36l.36.01h.37l.36.01.36.02.36.02.36.02.37.02.36.03.36.03.36.03.36.04.37.04.36.04.36.04.36.04.36.04.37.04.36.04.36.04.36.04.37.04.36.03.36.04.36.03.36.03.37.02.36.02.36.02.36.02.36.01.37.01.36.01h1.08l.37-.01.36-.01.36-.01.36-.01.37-.02.36-.02.36-.02.36-.02.36-.03.37-.03.36-.03.36-.03.36-.03.36-.03.37-.03.36-.04.36-.03.36-.04.36-.03.37-.04.36-.04.36-.03.36-.04.36-.03.37-.04.36-.03.36-.04.36-.03.37-.03.36-.04.36-.03.36-.03.36-.03.37-.03.36-.02.36-.03.36-.03.36-.03.37-.02.36-.03.36-.02.36-.03.36-.02.37-.02.36-.03.36-.02.36-.02.37-.03.36-.02.36-.03.36-.02.36-.03.37-.03.36-.03.36-.02.36-.03.36-.03.37-.04.36-.03.36-.03.36-.04.36-.03.37-.04.36-.03.36-.04.36-.04.36-.03.37-.04.36-.04.36-.04.36-.04.37-.03.36-.04.36-.04.36-.03.36-.04.37-.03.36-.03.36-.03.36-.03.36-.02.37-.02.36-.02.36-.01.36-.01.36-.01h.73l.36.01.36.01.37.02.36.02.36.03.36.04.36.04.37.05.36.06.36.06.36.06.36.08.37.07.36.09.36.08.36.1.36.09.37.11.36.1.36.11.36.1.37.11.36.12.36.11.36.11.36.11.37.11.36.1.36.11.36.1.36.1.37.09.36.09.36.08.36.08.36.08.37.06.36.07.36.06.36.05.36.05.37.04.36.04.36.03.36.03.37.02.36.02.36.01.36.01.36.01H211.58l.36-.01.37-.01.36-.01.36-.01.36-.02.36-.01.37-.02.36-.02.36-.01.36-.02.37-.02.36-.02.36-.02.36-.02.36-.02.37-.02.36-.02.36-.02.36-.01.36-.02.37-.02.36-.02.36-.01.36-.02.36-.01.37-.02.36-.01.36-.02.36-.01.36-.01.37-.02.36-.01.36-.01.36-.02.37-.01.36-.01.36-.02.36-.01.36-.02.37-.01.36-.02.36-.02.36-.01.36-.02.37-.02.36-.02.36-.02.36-.02.36-.02.37-.03.36-.02.36-.02.36-.03.37-.03.36-.02.36-.03.36-.03.36-.03.37-.03.36-.03.36-.03.36-.03.36-.03.37-.03.36-.03.36-.03.36-.03.36-.03.37-.03.36-.03.36-.03.36-.02.36-.03.37-.03.36-.02.36-.03.36-.02.37-.02.36-.02.36-.02.36-.01.36-.02.37-.01.36-.01h.36l.36-.01H243.81l.36.01h.36l.36.01.37.01.36.01.36.02.36.01.37.02.36.02.36.02.36.01.36.02.37.02.36.02.36.02.36.02.36.01.37.02.36.01.36.01.36.01.36.01.37.01h.36l.36.01h.73l.36-.01h.36l.36-.01.36-.01.37-.01.36-.02.36-.01.36-.02.36-.02.37-.01.36-.03.36-.02.36-.02.36-.02.37-.03.36-.02.36-.03.36-.03.36-.03.37-.02.36-.03.36-.03.36-.03.37-.03.36-.03.36-.02.36-.03.36-.03.37-.03.36-.03.36-.02.36-.03.36-.03.37-.02.36-.03.36-.02.36-.03.36-.02.37-.03.36-.02.36-.02.36-.02.37-.02.36-.02.36-.02.36-.02.36-.02.37-.02.36-.02.36-.02.36-.02.36-.02.37-.02.36-.02.36-.03.36-.02.36-.02.37-.02.36-.03.36-.02.36-.03.36-.02.37-.03.36-.03.36-.03.36-.03.37-.03.36-.03.36-.03.36-.03.36-.04.37-.03.36-.03.36-.04.36-.03.36-.04.37-.03.36-.04.36-.03.36-.04.36-.03.37-.03.36-.04.36-.03.36-.03.37-.03.36-.02.36-.03.36-.02.36-.02.37-.02.36-.02.36-.01h.36l.36-.01h.37l.36.01.36.01.36.02.36.02.37.03.36.03.36.04.36.04.36.06.37.05.36.06.36.07.36.07.37.08.36.08.36.08.36.08.36.09.37.09.36.09.36.08.36.09.36.08.37.08.36.08.36.07.36.07.36.07.37.06.36.05.36.05.36.05.37.03.36.04.36.03.36.02.36.02.37.01.36.01.36.01h.72l.37-.01h.36l.36-.01.36-.01.36-.02.37-.01.36-.01.36-.02.36-.02.37-.02.36-.02.36-.01.36-.02.36-.03.37-.02.36-.02.36-.02.36-.02.36-.02.37-.03.36-.02.36-.02.36-.02.36-.03.37-.02.36-.02.36-.02.36-.02.36-.02.37-.01.36-.02.36-.02.36-.01.37-.02.36-.01.36-.01.36-.01.36-.01.37-.01.36-.01.36-.01.36-.01.36-.01.37-.01.36-.01.36-.01.36-.01.36-.01.37-.01.36-.01.36-.02.36-.02.37-.01.36-.02.36-.02.36-.02.36-.03.37-.02.36-.02.36-.03.36-.02.36-.03.37-.03.36-.03.36-.02.36-.03.36-.03.37-.03.36-.03.36-.03.36-.03.36-.02.37-.03.36-.03.36-.03.36-.03.37-.03.36-.03.36-.03.36-.04.36-.03.37-.03.36-.03.36-.04.36-.03.36-.03.37-.04.36-.03.36-.03.36-.03.36-.02.37-.03.36-.02.36-.02.36-.01.37-.01.36-.01h.36l.36.01.36.01.37.01.36.02.36.03.36.02.36.04.37.03.36.04.36.04.36.04.36.03.37.04.36.03.36.03.36.02.36.02.37.02.36.01H347.01l.36-.01.36-.02.36-.01.36-.02.37-.03.36-.02.36-.03.36-.02.36-.03.37-.03.36-.03.36-.03.36-.02.36-.03.37-.02.36-.03.36-.02.36-.02.37-.02.36-.02.36-.03.36-.02.36-.02.37-.02.36-.02.36-.03.36-.03.36-.02.37-.03.36-.03.36-.04.36-.03.36-.04.37-.03.36-.04.36-.03.36-.04.37-.04.36-.04.36-.04.36-.04.36-.04.37-.04.36-.04.36-.03.36-.03.36-.03.37-.02.36-.01h.36l.36.02.36.02.37.02.36.04.36.02.36.02.36.01h.37l.36-.01.36-.03.36-.03.37-.03.36-.04.36-.04.36-.04.36-.05.37-.04.36-.02.36.06"/><use xlink:href="#b" transform="matrix(3.75 0 0 3.75 125.4 69.72)"/><use xlink:href="#b" transform="matrix(3.75 0 0 3.75 220.55 7.51)"/></g><text fill="#000" stroke="none" stroke-linecap="round" stroke-linejoin="round" color="#000" font-family="KaTeX_Main" font-size="8" transform="translate(241.1 25.11)"><tspan>WBSTTopDown</tspan></text><g fill="none" stroke="currentColor" stroke-linecap="round" stroke-linejoin="round" color="#000"><path stroke="#29C3F6" stroke-dasharray="4.0,2.0,1.0,2.0" d="M205.6 22.51h29.9M28 73.07l.36-.12.36-.11.37-.1.36-.08.36-.07.36-.06.36-.04.37-.03h.36l.36.01.36.03.37.04.36.06.36.07.36.08.36.09.37.08.36.08.36.08.36.06.36.05.37.03.36.02h.36l.36-.02.36-.03.37-.05.36-.06.36-.07.36-.09.36-.09.37-.11.36-.1.36-.11.36-.11.37-.11.36-.1.36-.11.36-.09.36-.09.37-.09.36-.07.36-.07.36-.06.36-.05.37-.05.36-.04.36-.04.36-.03.36-.03.37-.04.36-.03.36-.04.36-.04.37-.04.36-.05.36-.05.36-.06.36-.06.37-.06.36-.07.36-.06.36-.07.36-.07.37-.06.36-.06.36-.05.36-.04.36-.04.37-.02.36-.02h.36l.36.01.37.02.36.03.36.05.36.05.36.07.37.07.36.09.36.08.36.1.36.09.37.09.36.1.36.09.36.08.36.08.37.07.36.06.36.06.36.05.36.03.37.03.36.02h.36l.36.01.37-.01.36-.02.36-.02.36-.03.36-.03.37-.03.36-.04.36-.05.36-.04.36-.05.37-.05.36-.05.36-.05.36-.06.36-.05.37-.06.36-.05.36-.06.36-.06.37-.06.36-.06.36-.06.36-.06.36-.07.37-.06.36-.06.36-.07.36-.06.36-.06.37-.06.36-.06.36-.06.36-.05.36-.05.37-.04.36-.05.36-.03.36-.04.36-.02.37-.03.36-.01.36-.01.36-.01.37-.01.36.01h.36l.36.01.36.01.37.01.36.02.36.01.36.02.36.01.37.01.36.01.36.01.36.01h.73l.36-.01.36-.01.36-.01.37-.02.36-.03.36-.02.36-.04.36-.03.37-.04.36-.04.36-.05.36-.04.36-.05.37-.06.36-.05.36-.06.36-.05.36-.06.37-.06.36-.06.36-.06.36-.05.36-.06.37-.06.36-.06.36-.05.36-.06.37-.05.36-.05.36-.05.36-.05.36-.04.37-.04.36-.04.36-.03.36-.03.36-.02.37-.02.36-.01.36-.01.36.01h.36l.37.02.36.03.36.03.36.04.37.04.36.06.36.06.36.07.36.08.37.08.36.08.36.09.36.1.36.1.37.1.36.1.36.1.36.1.36.1.37.09.36.1.36.09.36.09.37.08.36.08.36.07.36.06.36.06.37.06.36.04.36.04.36.04.36.02.37.03.36.01.36.01.36.01h.73l.36-.01.36-.01.36-.02.36-.02.37-.02.36-.03.36-.02.36-.03.37-.03.36-.04.36-.03.36-.04.36-.03.37-.04.36-.04.36-.04.36-.04.36-.04.37-.03.36-.04.36-.04.36-.04.36-.03.37-.04.36-.03.36-.03.36-.03.37-.03.36-.03.36-.03.36-.02.36-.02.37-.03.36-.02.36-.01.36-.02.36-.02.37-.02.36-.01.36-.02.36-.01.36-.01.37-.02.36-.01.36-.02.36-.02.36-.01.37-.02.36-.02.36-.02.36-.02.37-.02.36-.03.36-.03.36-.02.36-.03.37-.03.36-.04.36-.03.36-.04.36-.03.37-.04.36-.04.36-.04.36-.05.36-.04.37-.04.36-.05.36-.04.36-.05.37-.04.36-.05.36-.04.36-.05.36-.04.37-.05.36-.04.36-.04.36-.04.36-.04.37-.04.36-.03.36-.04.36-.03.36-.03.37-.02.36-.02.36-.02.36-.02.36-.01.37-.01.36-.01h.36l.36.01h.37l.36.01.36.02.36.02.36.02.37.02.36.03.36.03.36.03.36.04.37.04.36.04.36.04.36.04.36.04.37.04.36.04.36.04.36.04.37.04.36.03.36.04.36.03.36.03.37.02.36.02.36.02.36.02.36.01.37.01.36.01h1.08l.37-.01.36-.01.36-.01.36-.01.37-.02.36-.02.36-.02.36-.02.36-.03.37-.03.36-.03.36-.03.36-.03.36-.03.37-.03.36-.04.36-.03.36-.04.36-.03.37-.04.36-.04.36-.03.36-.04.36-.03.37-.04.36-.03.36-.04.36-.03.37-.03.36-.04.36-.03.36-.03.36-.03.37-.03.36-.02.36-.03.36-.03.36-.03.37-.02.36-.03.36-.02.36-.03.36-.02.37-.02.36-.03.36-.02.36-.02.37-.03.36-.02.36-.03.36-.02.36-.03.37-.03.36-.03.36-.02.36-.03.36-.03.37-.04.36-.03.36-.03.36-.04.36-.03.37-.04.36-.03.36-.04.36-.04.36-.03.37-.04.36-.04.36-.04.36-.04.37-.03.36-.04.36-.04.36-.03.36-.04.37-.03.36-.03.36-.03.36-.03.36-.02.37-.02.36-.02.36-.01.36-.01.36-.01h.73l.36.01.36.01.37.02.36.02.36.03.36.04.36.04.37.05.36.06.36.06.36.06.36.08.37.07.36.09.36.08.36.1.36.09.37.11.36.1.36.11.36.1.37.11.36.12.36.11.36.11.36.11.37.11.36.1.36.11.36.1.36.1.37.09.36.09.36.08.36.08.36.08.37.06.36.07.36.06.36.05.36.05.37.04.36.04.36.03.36.03.37.02.36.02.36.01.36.01.36.01H211.58l.36-.01.37-.01.36-.01.36-.01.36-.02.36-.01.37-.02.36-.02.36-.01.36-.02.37-.02.36-.02.36-.02.36-.02.36-.02.37-.02.36-.02.36-.02.36-.01.36-.02.37-.02.36-.02.36-.01.36-.02.36-.01.37-.02.36-.01.36-.02.36-.01.36-.01.37-.02.36-.01.36-.01.36-.02.37-.01.36-.01.36-.02.36-.01.36-.02.37-.01.36-.02.36-.02.36-.01.36-.02.37-.02.36-.02.36-.02.36-.02.36-.02.37-.03.36-.02.36-.02.36-.03.37-.03.36-.02.36-.03.36-.03.36-.03.37-.03.36-.03.36-.03.36-.03.36-.03.37-.03.36-.03.36-.03.36-.03.36-.03.37-.03.36-.03.36-.03.36-.02.36-.03.37-.03.36-.02.36-.03.36-.02.37-.02.36-.02.36-.02.36-.01.36-.02.37-.01.36-.01h.36l.36-.01H243.81l.36.01h.36l.36.01.37.01.36.01.36.02.36.01.37.02.36.02.36.02.36.01.36.02.37.02.36.02.36.02.36.02.36.01.37.02.36.01.36.01.36.01.36.01.37.01h.36l.36.01h.73l.36-.01h.36l.36-.01.36-.01.37-.01.36-.02.36-.01.36-.02.36-.02.37-.01.36-.03.36-.02.36-.02.36-.02.37-.03.36-.02.36-.03.36-.03.36-.03.37-.02.36-.03.36-.03.36-.03.37-.03.36-.03.36-.02.36-.03.36-.03.37-.03.36-.03.36-.02.36-.03.36-.03.37-.02.36-.03.36-.02.36-.03.36-.02.37-.03.36-.02.36-.02.36-.02.37-.02.36-.02.36-.02.36-.02.36-.02.37-.02.36-.02.36-.02.36-.02.36-.02.37-.02.36-.02.36-.03.36-.02.36-.02.37-.02.36-.03.36-.02.36-.03.36-.02.37-.03.36-.03.36-.03.36-.03.37-.03.36-.03.36-.03.36-.03.36-.04.37-.03.36-.03.36-.04.36-.03.36-.04.37-.03.36-.04.36-.03.36-.04.36-.03.37-.03.36-.04.36-.03.36-.03.37-.03.36-.02.36-.03.36-.02.36-.02.37-.02.36-.02.36-.01h.36l.36-.01h.37l.36.01.36.01.36.02.36.02.37.03.36.03.36.04.36.04.36.06.37.05.36.06.36.07.36.07.37.08.36.08.36.08.36.08.36.09.37.09.36.09.36.08.36.09.36.08.37.08.36.08.36.07.36.07.36.07.37.06.36.05.36.05.36.05.37.03.36.04.36.03.36.02.36.02.37.01.36.01.36.01h.72l.37-.01h.36l.36-.01.36-.01.36-.02.37-.01.36-.01.36-.02.36-.02.37-.02.36-.02.36-.01.36-.02.36-.03.37-.02.36-.02.36-.02.36-.02.36-.02.37-.03.36-.02.36-.02.36-.02.36-.03.37-.02.36-.02.36-.02.36-.02.36-.02.37-.01.36-.02.36-.02.36-.01.37-.02.36-.01.36-.01.36-.01.36-.01.37-.01.36-.01.36-.01.36-.01.36-.01.37-.01.36-.01.36-.01.36-.01.36-.01.37-.01.36-.01.36-.02.36-.02.37-.01.36-.02.36-.02.36-.02.36-.03.37-.02.36-.02.36-.03.36-.02.36-.03.37-.03.36-.03.36-.02.36-.03.36-.03.37-.03.36-.03.36-.03.36-.03.36-.02.37-.03.36-.03.36-.03.36-.03.37-.03.36-.03.36-.03.36-.04.36-.03.37-.03.36-.03.36-.04.36-.03.36-.03.37-.04.36-.03.36-.03.36-.03.36-.02.37-.03.36-.02.36-.02.36-.01.37-.01.36-.01h.36l.36.01.36.01.37.01.36.02.36.03.36.02.36.04.37.03.36.04.36.04.36.04.36.03.37.04.36.03.36.03.36.02.36.02.37.02.36.01H347.01l.36-.01.36-.02.36-.01.36-.02.37-.03.36-.02.36-.03.36-.02.36-.03.37-.03.36-.03.36-.03.36-.02.36-.03.37-.02.36-.03.36-.02.36-.02.37-.02.36-.02.36-.03.36-.02.36-.02.37-.02.36-.02.36-.03.36-.03.36-.02.37-.03.36-.03.36-.04.36-.03.36-.04.37-.03.36-.04.36-.03.36-.04.37-.04.36-.04.36-.04.36-.04.36-.04.37-.04.36-.04.36-.03.36-.03.36-.03.37-.02.36-.01h.36l.36.02.36.02.37.02.36.04.36.02.36.02.36.01h.37l.36-.01.36-.03.36-.03.37-.03.36-.04.36-.04.36-.04.36-.05.37-.04.36-.02.36.06"/><use xlink:href="#h" color="#29C3F6" transform="matrix(3.75 0 0 3.75 182.98 67.08)"/><use xlink:href="#h" color="#29C3F6" transform="matrix(3.75 0 0 3.75 220.55 22.51)"/></g><path fill="none" stroke="none" stroke-linecap="round" stroke-linejoin="round" stroke-width="0" d="M28 45.01V205M371.99 45.01H28" color="#000"/></svg>