<svg xmlns="http://www.w3.org/2000/svg" xmlns:xlink="http://www.w3.org/1999/xlink" viewBox="0 0 400 300"><path fill="none" d="M0 0h400v300H0z"/><defs><path id="c" stroke="currentColor" stroke-width=".267" d="M-1-1h2v2h-2z"/><path id="b" stroke="currentColor" stroke-width=".267" d="m0-1.33-1.33 2h2.66z"/><use xlink:href="#a" id="d" fill="currentColor" stroke="none"/><use xlink:href="#b" id="e" fill="currentColor" stroke="none"/><circle id="a" cx="0" cy="0" r="1" stroke="currentColor" stroke-width=".267"/></defs><path fill="none" stroke="#000" stroke-dasharray="0.1,0.2" stroke-linecap="round" stroke-linejoin="round" stroke-width=".1" d="M35.33 255V75.01" class="gridline" color="#000"/><g fill="none" stroke-linecap="round" stroke-linejoin="round" stroke-width="0" color="#000"><path d="M35.33 255v-7.5m0-172.49v7.5"/><text fill="#000" font-family="KaTeX_Main" font-size="10" text-anchor="middle" transform="translate(35.33 265.75)"><tspan> 1</tspan></text></g><path fill="none" stroke="#000" stroke-dasharray="0.1,0.2" stroke-linecap="round" stroke-linejoin="round" stroke-width=".1" d="M71.96 255V75.01" class="gridline" color="#000"/><g fill="none" stroke-linecap="round" stroke-linejoin="round" stroke-width="0" color="#000"><path d="M71.96 255v-7.5m0-172.49v7.5"/><text fill="#000" font-family="KaTeX_Main" font-size="10" text-anchor="middle" transform="translate(71.96 265.75)"><tspan> 2</tspan></text></g><path fill="none" stroke="#000" stroke-dasharray="0.1,0.2" stroke-linecap="round" stroke-linejoin="round" stroke-width=".1" d="M108.58 255V75.01" class="gridline" color="#000"/><g fill="none" stroke-linecap="round" stroke-linejoin="round" stroke-width="0" color="#000"><path d="M108.58 255v-7.5m0-172.49v7.5"/><text fill="#000" font-family="KaTeX_Main" font-size="10" text-anchor="middle" transform="translate(108.58 265.75)"><tspan> 3</tspan></text></g><path fill="none" stroke="#000" stroke-dasharray="0.1,0.2" stroke-linecap="round" stroke-linejoin="round" stroke-width=".1" d="M145.21 255V75.01" class="gridline" color="#000"/><g fill="none" stroke-linecap="round" stroke-linejoin="round" stroke-width="0" color="#000"><path d="M145.21 255v-7.5m0-172.49v7.5"/><text fill="#000" font-family="KaTeX_Main" font-size="10" text-anchor="middle" transform="translate(145.21 265.75)"><tspan> 4</tspan></text></g><path fill="none" stroke="#000" stroke-dasharray="0.1,0.2" stroke-linecap="round" stroke-linejoin="round" stroke-width=".1" d="M181.84 255V75.01" class="gridline" color="#000"/><g fill="none" stroke-linecap="round" stroke-linejoin="round" stroke-width="0" color="#000"><path d="M181.84 255v-7.5m0-172.49v7.5"/><text fill="#000" font-family="KaTeX_Main" font-size="10" text-anchor="middle" transform="translate(181.84 265.75)"><tspan> 5</tspan></text></g><path fill="none" stroke="#000" stroke-dasharray="0.1,0.2" stroke-linecap="round" stroke-linejoin="round" stroke-width=".1" d="M218.47 255V75.01" class="gridline" color="#000"/><g fill="none" stroke-linecap="round" stroke-linejoin="round" stroke-width="0" color="#000"><path d="M218.47 255v-7.5m0-172.49v7.5"/><text fill="#000" font-family="KaTeX_Main" font-size="10" text-anchor="middle" transform="translate(218.47 265.75)"><tspan> 6</tspan></text></g><path fill="none" stroke="#000" stroke-dasharray="0.1,0.2" stroke-linecap="round" stroke-linejoin="round" stroke-width=".1" d="M255.1 255V75.01" class="gridline" color="#000"/><g fill="none" stroke-linecap="round" stroke-linejoin="round" stroke-width="0" color="#000"><path d="M255.1 255v-7.5m0-172.49v7.5"/><text fill="#000" font-family="KaTeX_Main" font-size="10" text-anchor="middle" transform="translate(255.1 265.75)"><tspan> 7</tspan></text></g><path fill="none" stroke="#000" stroke-dasharray="0.1,0.2" stroke-linecap="round" stroke-linejoin="round" stroke-width=".1" d="M291.73 255V75.01" class="gridline" color="#000"/><g fill="none" stroke-linecap="round" stroke-linejoin="round" stroke-width="0" color="#000"><path d="M291.73 255v-7.5m0-172.49v7.5"/><text fill="#000" font-family="KaTeX_Main" font-size="10" text-anchor="middle" transform="translate(291.73 265.75)"><tspan> 8</tspan></text></g><path fill="none" stroke="#000" stroke-dasharray="0.1,0.2" stroke-linecap="round" stroke-linejoin="round" stroke-width=".1" d="M328.36 255V75.01" class="gridline" color="#000"/><g fill="none" stroke-linecap="round" stroke-linejoin="round" stroke-width="0" color="#000"><path d="M328.36 255v-7.5m0-172.49v7.5"/><text fill="#000" font-family="KaTeX_Main" font-size="10" text-anchor="middle" transform="translate(328.36 265.75)"><tspan> 9</tspan></text></g><path fill="none" stroke="#000" stroke-dasharray="0.1,0.2" stroke-linecap="round" stroke-linejoin="round" stroke-width=".1" d="M364.99 255V75.01" class="gridline" color="#000"/><g fill="none" stroke-linecap="round" stroke-linejoin="round" stroke-width="0" color="#000"><path d="M364.99 255v-7.5m0-172.49v7.5"/><text fill="#000" font-family="KaTeX_Main" font-size="10" text-anchor="middle" transform="translate(364.99 265.75)"><tspan> 10</tspan></text></g><g fill="none" stroke-linecap="round" stroke-linejoin="round" stroke-width="0" color="#000"><path d="M364.99 255h-7.5"/><text fill="#000" font-family="KaTeX_Main" font-size="10" transform="translate(371.99 258.25)"><tspan>1.00</tspan></text></g><g fill="none" stroke-linecap="round" stroke-linejoin="round" stroke-width="0" color="#000"><path d="M364.99 225h-7.5"/><text fill="#000" font-family="KaTeX_Main" font-size="10" transform="translate(371.99 228.25)"><tspan>1.00</tspan></text></g><g fill="none" stroke-linecap="round" stroke-linejoin="round" stroke-width="0" color="#000"><path d="M364.99 195h-7.5"/><text fill="#000" font-family="KaTeX_Main" font-size="10" transform="translate(371.99 198.25)"><tspan>1.00</tspan></text></g><g fill="none" stroke-linecap="round" stroke-linejoin="round" stroke-width="0" color="#000"><path d="M364.99 165.01h-7.5"/><text fill="#000" font-family="KaTeX_Main" font-size="10" transform="translate(371.99 168.26)"><tspan>1.00</tspan></text></g><g fill="none" stroke-linecap="round" stroke-linejoin="round" stroke-width="0" color="#000"><path d="M364.99 135.01h-7.5"/><text fill="#000" font-family="KaTeX_Main" font-size="10" transform="translate(371.99 138.26)"><tspan>1.00</tspan></text></g><g fill="none" stroke-linecap="round" stroke-linejoin="round" stroke-width="0" color="#000"><path d="M364.99 105.01h-7.5"/><text fill="#000" font-family="KaTeX_Main" font-size="10" transform="translate(371.99 108.26)"><tspan>1.00</tspan></text></g><g fill="none" stroke-linecap="round" stroke-linejoin="round" stroke-width="0" color="#000"><path d="M364.99 75.01h-7.5"/><text fill="#000" font-family="KaTeX_Main" font-size="10" transform="translate(371.99 78.26)"><tspan>1.00</tspan></text></g><path fill="none" d="M28 75.01V255M364.99 75.01H28" color="#000"/><text stroke-linecap="round" stroke-linejoin="round" stroke-width="0" color="#000" font-family="KaTeX_Main" font-size="10" text-anchor="middle" transform="rotate(-90 88.255 76.755)"><tspan font-weight="bold">Rotations</tspan><tspan> / Operation</tspan></text><text stroke-linecap="round" stroke-linejoin="round" stroke-width="0" color="#000" font-family="KaTeX_Main" font-size="10" text-anchor="middle" transform="translate(196.49 288.25)"><tspan>Operations × 10</tspan><tspan dy="-5" font-size="8">5</tspan></text><text stroke-linecap="round" stroke-linejoin="round" color="#000" font-family="KaTeX_Main" font-size="10" transform="translate(112.5 42.64)"><tspan>LBSTBottomUp</tspan></text><g fill="none" stroke="currentColor" stroke-linecap="round" stroke-linejoin="round" color="#000"><path stroke="#3B75EA" d="M70 39.39h35.5M28 225.36l.37-.06.36-.06.37-.03.37-.06.36-.03.37-.03.36-.03h.37l.37-.03h1.1l.36-.03h3.3l.36.03h1.1l.37.03h.37l.36.03.37.03h.37l.36.03.37.06.36.03.37.03.37.06.36.06.37.06.37.06.36.06.37.06.36.09.37.06.37.06.36.06.37.06.37.03.36.06.37.03.36.03h1.47l.37-.03.36-.03.37-.03.37-.06.36-.06.37-.06.36-.03.37-.06.37-.09.36-.06.37-.06.37-.03.36-.06.37-.06.36-.06.37-.03.37-.03.36-.06.37-.03.37-.03.36-.03h.37l.36-.03h.37l.37-.03h.36l.37-.03h1.46l.37-.03h21.25l.36.03h1.83l.37.03h.73l.37.03h.37l.36.03.37.03h.36l.37.03.37.03.36.03.37.03.37.03.36.03.37.03.36.03.37.06.37.03.36.03.37.03.37.06.36.03.37.03.37.03.36.03.37.03.36.03.37.03.37.03h.73l.37.03h.73l.36-.03h.74l.36-.03.37-.03.37-.03.36-.03.37-.03.36-.03.37-.03.37-.03.36-.03.37-.06.37-.03.36-.03.37-.03.36-.03.37-.03.37-.03.36-.03.37-.03.37-.03.36-.03.37-.03.37-.03h.36l.37-.03h.36l.37-.03h.37l.36-.03h.74l.36-.03h1.83l.37-.03h64.47l.36.03h2.2l.37.03h1.1l.36.03h.37l.37.03h.36l.37.03h.36l.37.03.37.03h.36l.37.03.37.03.36.03h.37l.36.03.37.03.37.03.36.03.37.03.37.03.36.03.37.03.37.03.36.03.37.03h.36l.37.03.37.03.36.03h.74l.36.03h2.2l.37-.03h.73l.36-.03.37-.03.37-.03h.36l.37-.03.37-.03.36-.03.37-.03.37-.03.36-.03.37-.03.36-.03.37-.03.37-.03.36-.03h.37l.37-.03.36-.03.37-.03.36-.03h.37l.37-.03h.36l.37-.03h.37l.36-.03h.37l.36-.03h1.1l.37-.03h1.83l.37-.03h157.87"/><use xlink:href="#a" color="#3B75EA" transform="matrix(3.75 0 0 3.75 336.05 225)"/><use xlink:href="#a" color="#3B75EA" transform="matrix(3.75 0 0 3.75 87.75 39.39)"/></g><text stroke-linecap="round" stroke-linejoin="round" color="#000" font-family="KaTeX_Main" font-size="10" transform="translate(112.5 61.39)"><tspan>LBSTTopDown</tspan></text><g fill="none" stroke="currentColor" stroke-linecap="round" stroke-linejoin="round" color="#000"><path stroke="#29C3F6" stroke-dasharray="4.5,2.0,0.5,2.0,0.5,2.0" d="M70 58.14h35.5M28 225.48l.37-.03h.73l.37.03.36.03.37.03.36.06.37.06.37.09.36.06.37.09.37.06.36.09.37.06.36.06.37.03.37.06h.36l.37.03.37-.03h.36l.37-.03.36-.06.37-.03.37-.06.36-.06.37-.06.37-.06.36-.06.37-.06.37-.06.36-.03.37-.03.36-.03h1.1l.37.03.37.03.36.03.37.03.36.06.37.03.37.06.36.03.37.06.37.03.36.06h.37l.36.03.37.03h.37l.36-.03h.37l.37-.03.36-.03.37-.03.37-.06.36-.06.37-.06.36-.03.37-.06.37-.09.36-.06.37-.06.37-.03.36-.06.37-.06.36-.06.37-.03.37-.03.36-.06.37-.03.37-.03h.36l.37-.03.36-.03h.37l.37-.03h1.1l.36-.03h.73l.37.03h1.1l.37.03h.36l.37.03.37.03h.36l.37.03.36.03.37.03.37.06.36.03.37.03.37.06.36.03.37.06.36.03.37.06.37.03.36.06.37.03.37.06.36.03.37.03.36.03.37.03.37.03h.36l.37.03h.73l.37-.03h.37l.36-.03.37-.03.36-.03.37-.03.37-.03.36-.03.37-.06.37-.03.36-.06.37-.03.36-.06.37-.03.37-.03.36-.06.37-.03.37-.03.36-.03.37-.06h.36l.37-.03.37-.03.36-.03h.37l.37-.03h.36l.37-.03h2.93l.37.03h.36l.37.03.36.03h.37l.37.03.36.03.37.03.37.03.36.03.37.03.36.03.37.06.37.03.36.03.37.03.37.06.36.03.37.03.37.03.36.03.37.03.36.03.37.03.37.03h.73l.37.03h.73l.36-.03h.74l.36-.03.37-.03.37-.03.36-.03.37-.03.36-.03.37-.03.37-.03.36-.03.37-.06.37-.03.36-.03.37-.03.36-.03.37-.03.37-.03.36-.03.37-.03.37-.03.36-.03.37-.03.37-.03h.36l.37-.03h.36l.37-.03h.37l.36-.03h.74l.36-.03h1.83l.37-.03h17.22l.36.03h1.83l.37.03h1.1l.36.03h.37l.37.03h.36l.37.03h.37l.36.03.37.03.37.03h.36l.37.03.36.03.37.03.37.03.36.03.37.03.37.03.36.03.37.03.36.03.37.03.37.03.36.03.37.03.37.03h.36l.37.03.36.03h.74l.36.03h1.47l.37-.03h.73l.36-.03.37-.03h.37l.36-.03.37-.03.37-.03.36-.03.37-.03.36-.03.37-.03.37-.03.36-.03.37-.03.37-.03.36-.03.37-.03.36-.03h.37l.37-.03.36-.03.37-.03h.37l.36-.03h.37l.36-.03h.37l.37-.03h.36l.37-.03h1.1l.37-.03h1.83l.36-.03h15.39l.36.03h2.2l.37.03h1.1l.36.03h.37l.37.03h.36l.37.03h.36l.37.03.37.03h.36l.37.03.37.03.36.03h.37l.36.03.37.03.37.03.36.03.37.03.37.03.36.03.37.03.37.03.36.03.37.03h.36l.37.03.37.03.36.03h.74l.36.03h2.2l.37-.03h.73l.36-.03.37-.03.37-.03h.36l.37-.03.37-.03.36-.03.37-.03.37-.03.36-.03.37-.03.36-.03.37-.03.37-.03.36-.03h.37l.37-.03.36-.03.37-.03.36-.03h.37l.37-.03h.36l.37-.03h.37l.36-.03h.37l.36-.03h1.1l.37-.03h1.83l.37-.03h65.56l.37.03h1.83l.37.03h.73l.37.03h.36l.37.03.37.03h.36l.37.03.36.03.37.03.37.03.36.03.37.03.37.03.36.03.37.06.37.03.36.03.37.06.36.03.37.06.37.03.36.03.37.06.37.03.36.03.37.03h.36l.37.03h.37l.36.03h.74l.36-.03h.37l.36-.03h.37l.37-.03.36-.03.37-.06.37-.03.36-.03.37-.06.37-.03.36-.06.37-.03.36-.06.37-.03.37-.03.36-.06.37-.03.37-.03.36-.03.37-.03.36-.03.37-.03.37-.03h.36l.37-.03h.37l.36-.03h.37l.36-.03h1.47l.37-.03h64.83"/><use xlink:href="#d" color="#29C3F6" transform="matrix(3.75 0 0 3.75 55.47 225.15)"/><use xlink:href="#d" color="#29C3F6" transform="matrix(3.75 0 0 3.75 87.75 58.14)"/></g><text stroke-linecap="round" stroke-linejoin="round" color="#000" font-family="KaTeX_Main" font-size="10" transform="translate(246 42.64)"><tspan>WBSTBottomUp</tspan></text><g fill="none" stroke="currentColor" stroke-linecap="round" stroke-linejoin="round" color="#000"><path stroke="#D336C8" d="M203.5 39.39H239M28 227.01l.37.21.36.15.37.15.37.09.36.03.37-.03.36-.06.37-.12.37-.18.36-.18.37-.21.37-.24.36-.27.37-.24.36-.24.37-.21.37-.21.36-.15.37-.15.37-.12.36-.03h2.57l.36.06.37.06.37.06.36.06.37.06.36.06.37.06.37.03.36.06.37.06.37.03.36.03.37.03.36.03h.74l.36-.03.37-.03.37-.03.36-.03.37-.06.36-.06.37-.06.37-.06.36-.06.37-.06.37-.06.36-.03.37-.06.37-.03.36-.03h2.57l.36.03h.37l.36.03.37.06.37.03.36.03.37.06.37.03.36.06.37.06.36.09.37.06.37.09.36.06.37.09.37.09.36.09.37.09.36.06.37.06.37.09.36.03.37.06.37.03h.73l.37-.03.36-.03.37-.06.36-.06.37-.09.37-.09.36-.12.37-.12.37-.12.36-.15.37-.12.36-.15.37-.12.37-.12h.36l.37-.3h.37l.36-.3h3.3l.37.3h.73l.36.3.37.03.37.12.36.15.37.12.37.12.36.12.37.09.36.09.37.09.37.06.36.06.37.06h.37l.36.03h.37l.36-.03.37-.03.37-.03.36-.06.37-.03.37-.06.36-.06.37-.09.37-.06.36-.06.37-.06.36-.06.37-.06.37-.03.36-.06.37-.03.37-.03.36-.03.37-.03h.36l.37-.03h.37l.36-.03h.74l.36-.03h.37l.36-.03.37-.03h.37l.36-.03.37-.03.37-.03h.73l.37-.3h1.83l.36-.3h5.5l.36.3h1.1l.37.3h.36l.37.03.37.09.36.09.37.06.37.09.36.09.37.06.37.09.36.06.37.06.36.06.37.06.37.03.36.06h.37l.37.03.36.03h.73l.37-.03.37-.03.36-.03.37-.03.37-.03.36-.06.37-.06.36-.06.37-.06.37-.06.36-.09.37-.06.37-.06.36-.06.37-.06.37-.06.36-.06.37-.06.36-.03h3.67l.36.06.37.03.37.06.36.06.37.06.36.06.37.06.37.06.36.06.37.03.37.06.36.03.37.06h.37l.36.03.37.03h1.83l.37-.03.36-.03.37-.03.36-.03h.37l.37-.03.36-.03.37-.03.37-.03.36-.03.37-.03.36-.03h.37l.37-.03.36-.03h.37l.37-.03h.73l.37-.03h.36l.37-.03h.36l.37-.03.37-.03h.36l.37-.03.37-.03.36-.06.37-.03.36-.03.37-.03h.73l.37-.3h1.46l.37-.3h5.86l.37.3h1.1l.36.3h.37l.37.03.36.09.37.09.36.06.37.09.37.06.36.06.37.06.37.06.36.06.37.03.36.06.37.03h.37l.36.03h1.84l.36-.03.37-.03.36-.03.37-.03.37-.06.36-.03.37-.06.37-.03.36-.06.37-.03.36-.06.37-.06.37-.03.36-.03.37-.06.37-.03.36-.03h.37l.36-.03h.37l.37-.03h.36l.37.03h.73l.37.03.37.03.36.03.37.03.36.03.37.03.37.06.36.03.37.03.37.03.36.06.37.03.36.03h.37l.37.03.36.03h.37l.37.03h1.09l.37-.03h.73l.37-.03.37-.03h.36l.37-.03.37-.03.36-.03.37-.03h.36l.37-.03.37-.03.36-.03.37-.03h.37l.36-.03.37-.03.36-.03.37-.03.37-.03h.36l.37-.06.37-.03.36-.03.37-.03h.73l.37-.3h1.46l.37-.3h1.1l.36-.3h.74l.36-.3h2.2l.37-.3h1.1l.36.3h1.47l.36.3h1.1l.37.3h.37l.36.3h.73l.37.3h.37l.36.09.37.09.37.06.36.09.37.09.36.06.37.06.37.03.36.06.37.03.37.03h1.83l.36-.03.37-.03.37-.03.36-.03.37-.03.36-.03.37-.03.37-.06.36-.03.37-.03.37-.06.36-.03.37-.03.37-.03.36-.03.37-.03.36-.03h.37l.37-.03h1.46l.37.03h.36l.37.03.37.03h.36l.37.03.37.03.36.03.37.03.36.03.37.03.37.03.36.03.37.03.37.03h.36l.37.03h.37l.36.03h1.83l.37-.03h.37l.36-.03h.73l.37-.03h.37l.36-.03H228l.36.03h2.57l.36-.03.37-.03.37-.03.36-.03.37-.03.36-.06.37-.06.37-.06.36-.06.37-.06h.37l.36-.3h1.1l.37-.3h1.46l.37-.3h2.2l.36.3h1.47l.36.3h.74l.36.3h.37l.37.09.36.09.37.09.36.09.37.09.37.09.36.06.37.06.37.06.36.03.37.06.36.03h1.84l.36-.03.37-.03.37-.03.36-.03.37-.06.36-.03.37-.06.37-.06.36-.03.37-.06.37-.03.36-.06.37-.03.36-.06.37-.03.37-.03.36-.03.37-.03.37-.03.36-.03h2.2l.37.03.36.03h.37l.37.03.36.03.37.03.36.06.37.03.37.03.36.03.37.03.37.03.36.03.37.03.36.03.37.03h.37l.36.03h1.1l.37-.03h.73l.37-.03.36-.03h.37l.37-.03h.36l.37-.03.37-.03h1.83l.36.03h.37l.37.03.36.03.37.03.36.03.37.03.37.03h.36l.37.03h.37l.36.03.37-.03h.36l.37-.03.37-.06.36-.06.37-.09.37-.09.36-.12.37-.15.37-.03.36-.3h.37l.36-.3.37-.3h.37l.36-.3.37-.3h.37l.36-.3h.37l.36-.3h.74l.36-.3h1.1l.37.3h.73l.37.3h.36l.37.3h.37l.36.3.37.3h.37l.36.3.37.3h.36l.37.33.37.21.36.15.37.15.37.15.36.09.37.09.36.09.37.03.37.03h.73l.37-.03.36-.06.37-.03.36-.09.37-.06.37-.06.36-.09.37-.06.37-.06.36-.06.37-.09.36-.03.37-.06.37-.03.36-.06.37-.03h.37l.36-.03h.37l.37-.03h2.93l.36.03h.37l.36.03.37.03.37.03.36.03.37.03.37.03.36.03.37.06.36.03.37.03.37.03.36.06.37.03h.37l.36.03h.37l.37.03h.36l.37-.03h.36l.37-.03.37-.03.36-.03.37-.03.37-.03.36-.06.37-.06.36-.03.37-.06.37-.06.36-.03.37-.06.37-.03h.36l.37-.03.36.03.37.03.37.03.36.09.37.09.37.12.36.15.37.15.37.18.36.18.37.18.36.18.37.18.37.18.36.12.37.09.37.06.36.03.37-.03.36-.09.37-.12.37-.21.36-.21.37-.3.37-.3.36-.36.37-.36.36-.39.37-.3.37-.6.36-.3.37-.3.37-.3.36-.3.37-.3.37-.3.36-.3h1.47l.36.3h.37l.37.3.36.3.37.6.36.3.37.6.37.3.36.6.37.42.37.51.36.48.37.45.36.39.37.36.37.3.36.21.37.12.37.03.36-.09.37-.21.36-.27.37-.39.37-.45.36-.48.37-.51.37-.51.36-.36.37-.6.37-.3.36-.3h.73l.37.3h.37l.36.3.37.3.37.33.36.3.37.21.36.15.37.06.37-.03.36-.12.37-.15.37-.15.36-.15.37-.12.36-.03.37.03.37.12.36.21.37.3.37.39.36.42.37.48.37.42.36.36.37.12.36-.12.37-.48.37-.84.36-1.11.37-1.2.37-1.2.36-.6.37-.3.36.3.37.6.37.9.36 1.26.37 1.35.37 1.14.36.57.37-.21.36-.54.37-.78.37-6.09.36-33.6.37-111.89"/><use xlink:href="#b" color="#D336C8" transform="matrix(3.75 0 0 3.75 111.88 225.6)"/><use xlink:href="#b" color="#D336C8" transform="matrix(3.75 0 0 3.75 221.25 39.39)"/></g><text stroke-linecap="round" stroke-linejoin="round" color="#000" font-family="KaTeX_Main" font-size="10" transform="translate(246 61.39)"><tspan>WBSTTopDown</tspan></text><g fill="none" stroke="currentColor" stroke-linecap="round" stroke-linejoin="round" color="#000"><path stroke="violet" stroke-dasharray="4.5,2.0,0.5,2.0,0.5,2.0" d="M203.5 58.14H239M28 227.01l.37.21.36.15.37.15.37.09.36.03.37-.03.36-.06.37-.12.37-.18.36-.18.37-.21.37-.24.36-.27.37-.24.36-.24.37-.21.37-.21.36-.15.37-.15.37-.12.36-.03h2.57l.36.06.37.06.37.06.36.06.37.06.36.06.37.06.37.03.36.06.37.06.37.03.36.03.37.03.36.03h.74l.36-.03.37-.03.37-.03.36-.03.37-.06.36-.06.37-.06.37-.06.36-.06.37-.06.37-.06.36-.03.37-.06.37-.03.36-.03h2.57l.36.03h.37l.36.03.37.06.37.03.36.03.37.06.37.03.36.06.37.06.36.09.37.06.37.09.36.06.37.09.37.09.36.09.37.09.36.06.37.06.37.09.36.03.37.06.37.03h.73l.37-.03.36-.03.37-.06.36-.06.37-.09.37-.09.36-.12.37-.12.37-.12.36-.15.37-.12.36-.15.37-.12.37-.12h.36l.37-.3h.37l.36-.3h3.3l.37.3h.73l.36.3.37.03.37.12.36.15.37.12.37.12.36.12.37.09.36.09.37.09.37.06.36.06.37.06h.37l.36.03h.37l.36-.03.37-.03.37-.03.36-.06.37-.03.37-.06.36-.06.37-.09.37-.06.36-.06.37-.06.36-.06.37-.06.37-.03.36-.06.37-.03.37-.03.36-.03.37-.03h.36l.37-.03h.37l.36-.03h.74l.36-.03h.37l.36-.03.37-.03h.37l.36-.03.37-.03.37-.03h.73l.37-.3h1.83l.36-.3h5.5l.36.3h1.1l.37.3h.36l.37.03.37.09.36.09.37.06.37.09.36.09.37.06.37.09.36.06.37.06.36.06.37.06.37.03.36.06h.37l.37.03.36.03h.73l.37-.03.37-.03.36-.03.37-.03.37-.03.36-.06.37-.06.36-.06.37-.06.37-.06.36-.09.37-.06.37-.06.36-.06.37-.06.37-.06.36-.06.37-.06.36-.03h3.67l.36.06.37.03.37.06.36.06.37.06.36.06.37.06.37.06.36.06.37.03.37.06.36.03.37.06h.37l.36.03.37.03h1.83l.37-.03.36-.03.37-.03.36-.03h.37l.37-.03.36-.03.37-.03.37-.03.36-.03.37-.03.36-.03h.37l.37-.03.36-.03h.37l.37-.03h.73l.37-.03h.36l.37-.03h.36l.37-.03.37-.03h.36l.37-.03.37-.03.36-.06.37-.03.36-.03.37-.03h.73l.37-.3h1.46l.37-.3h5.86l.37.3h1.1l.36.3h.37l.37.03.36.09.37.09.36.06.37.09.37.06.36.06.37.06.37.06.36.06.37.03.36.06.37.03h.37l.36.03h1.84l.36-.03.37-.03.36-.03.37-.03.37-.06.36-.03.37-.06.37-.03.36-.06.37-.03.36-.06.37-.06.37-.03.36-.03.37-.06.37-.03.36-.03h.37l.36-.03h.37l.37-.03h.36l.37.03h.73l.37.03.37.03.36.03.37.03.36.03.37.03.37.06.36.03.37.03.37.03.36.06.37.03.36.03h.37l.37.03.36.03h.37l.37.03h1.09l.37-.03h.73l.37-.03.37-.03h.36l.37-.03.37-.03.36-.03.37-.03h.36l.37-.03.37-.03.36-.03.37-.03h.37l.36-.03.37-.03.36-.03.37-.03.37-.03h.36l.37-.06.37-.03.36-.03.37-.03h.73l.37-.3h1.46l.37-.3h1.1l.36-.3h.74l.36-.3h2.2l.37-.3h1.1l.36.3h1.47l.36.3h1.1l.37.3h.37l.36.3h.73l.37.3h.37l.36.09.37.09.37.06.36.09.37.09.36.06.37.06.37.03.36.06.37.03.37.03h1.83l.36-.03.37-.03.37-.03.36-.03.37-.03.36-.03.37-.03.37-.06.36-.03.37-.03.37-.06.36-.03.37-.03.37-.03.36-.03.37-.03.36-.03h.37l.37-.03h1.46l.37.03h.36l.37.03.37.03h.36l.37.03.37.03.36.03.37.03.36.03.37.03.37.03.36.03.37.03.37.03h.36l.37.03h.37l.36.03h1.83l.37-.03h.37l.36-.03h.73l.37-.03h.37l.36-.03H228l.36.03h2.57l.36-.03.37-.03.37-.03.36-.03.37-.03.36-.06.37-.06.37-.06.36-.06.37-.06h.37l.36-.3h1.1l.37-.3h1.46l.37-.3h2.2l.36.3h1.47l.36.3h.74l.36.3h.37l.37.09.36.09.37.09.36.09.37.09.37.09.36.06.37.06.37.06.36.03.37.06.36.03h1.84l.36-.03.37-.03.37-.03.36-.03.37-.06.36-.03.37-.06.37-.06.36-.03.37-.06.37-.03.36-.06.37-.03.36-.06.37-.03.37-.03.36-.03.37-.03.37-.03.36-.03h2.2l.37.03.36.03h.37l.37.03.36.03.37.03.36.06.37.03.37.03.36.03.37.03.37.03.36.03.37.03.36.03.37.03h.37l.36.03h1.1l.37-.03h.73l.37-.03.36-.03h.37l.37-.03h.36l.37-.03.37-.03h1.83l.36.03h.37l.37.03.36.03.37.03.36.03.37.03.37.03h.36l.37.03h.37l.36.03.37-.03h.36l.37-.03.37-.06.36-.06.37-.09.37-.09.36-.12.37-.15.37-.03.36-.3h.37l.36-.3.37-.3h.37l.36-.3.37-.3h.37l.36-.3h.37l.36-.3h.74l.36-.3h1.1l.37.3h.73l.37.3h.36l.37.3h.37l.36.3.37.3h.37l.36.3.37.3h.36l.37.33.37.21.36.15.37.15.37.15.36.09.37.09.36.09.37.03.37.03h.73l.37-.03.36-.06.37-.03.36-.09.37-.06.37-.06.36-.09.37-.06.37-.06.36-.06.37-.09.36-.03.37-.06.37-.03.36-.06.37-.03h.37l.36-.03h.37l.37-.03h2.93l.36.03h.37l.36.03.37.03.37.03.36.03.37.03.37.03.36.03.37.06.36.03.37.03.37.03.36.06.37.03h.37l.36.03h.37l.37.03h.36l.37-.03h.36l.37-.03.37-.03.36-.03.37-.03.37-.03.36-.06.37-.06.36-.03.37-.06.37-.06.36-.03.37-.06.37-.03h.36l.37-.03.36.03.37.03.37.03.36.09.37.09.37.12.36.15.37.15.37.18.36.18.37.18.36.18.37.18.37.18.36.12.37.09.37.06.36.03.37-.03.36-.09.37-.12.37-.21.36-.21.37-.3.37-.3.36-.36.37-.36.36-.39.37-.3.37-.6.36-.3.37-.3.37-.3.36-.3.37-.3.37-.3.36-.3h1.47l.36.3h.37l.37.3.36.3.37.6.36.3.37.6.37.3.36.6.37.42.37.51.36.48.37.45.36.39.37.36.37.3.36.21.37.12.37.03.36-.09.37-.21.36-.27.37-.39.37-.45.36-.48.37-.51.37-.51.36-.36.37-.6.37-.3.36-.3h.73l.37.3h.37l.36.3.37.3.37.33.36.3.37.21.36.15.37.06.37-.03.36-.12.37-.15.37-.15.36-.15.37-.12.36-.03.37.03.37.12.36.21.37.3.37.39.36.42.37.48.37.42.36.36.37.12.36-.12.37-.48.37-.84.36-1.11.37-1.2.37-1.2.36-.6.37-.3.36.3.37.6.37.9.36 1.26.37 1.35.37 1.14.36.57.37-.21.36-.54.37-.78.37-6.09.36-33.6.37-111.89"/><use xlink:href="#e" color="violet" transform="matrix(3.75 0 0 3.75 168.29 225.27)"/><use xlink:href="#e" color="violet" transform="matrix(3.75 0 0 3.75 221.25 58.14)"/></g><path fill="none" d="M28 75.01V255M364.99 75.01H28" color="#000"/><text stroke-linecap="round" stroke-linejoin="round" stroke-width="0" color="#000" font-family="KaTeX_Main" font-size="10" text-anchor="middle" transform="translate(196.49 18.26)"><tspan>Insert - Maximum</tspan></text></svg>