<svg xmlns="http://www.w3.org/2000/svg" xmlns:xlink="http://www.w3.org/1999/xlink" viewBox="0 0 400 250"><path fill="none" d="M0 0h400v250H0z"/><defs><path id="d" stroke="currentColor" stroke-width=".267" d="M-1-1h2v2h-2z"/><path id="g" fill="currentColor" stroke="currentColor" stroke-width=".267" d="M-1-1h2v2h-2z"/><path id="b" stroke="currentColor" stroke-width=".267" d="m0-1.33-1.33 2h2.66z"/><path id="f" stroke="currentColor" stroke-width=".267" d="M0 1.33 1.265.411.782-1.067l-1.564-.009-.483 1.487z"/><use xlink:href="#b" id="c" stroke="currentColor" transform="rotate(180)"/><use xlink:href="#d" id="e" stroke="currentColor" transform="rotate(45)"/><circle id="a" cx="0" cy="0" r="1" stroke="currentColor" stroke-width=".267"/></defs><path fill="none" stroke="#000" stroke-linecap="round" stroke-linejoin="round" stroke-width=".1" d="M35.48 205V45.01" class="gridline" color="#000"/><g fill="none" stroke="none" stroke-linecap="round" stroke-linejoin="round" stroke-width="0" color="#000"><path d="M35.48 205v-7.5m0-152.49v7.5"/><text fill="#000" font-family="KaTeX_Main" font-size="10" text-anchor="middle" transform="translate(35.48 215.75)"><tspan> 1</tspan></text></g><path fill="none" stroke="#000" stroke-linecap="round" stroke-linejoin="round" stroke-width=".1" d="M72.87 205V45.01" class="gridline" color="#000"/><g fill="none" stroke="none" stroke-linecap="round" stroke-linejoin="round" stroke-width="0" color="#000"><path d="M72.87 205v-7.5m0-152.49v7.5"/><text fill="#000" font-family="KaTeX_Main" font-size="10" text-anchor="middle" transform="translate(72.87 215.75)"><tspan> 2</tspan></text></g><path fill="none" stroke="#000" stroke-linecap="round" stroke-linejoin="round" stroke-width=".1" d="M110.26 205V45.01" class="gridline" color="#000"/><g fill="none" stroke="none" stroke-linecap="round" stroke-linejoin="round" stroke-width="0" color="#000"><path d="M110.26 205v-7.5m0-152.49v7.5"/><text fill="#000" font-family="KaTeX_Main" font-size="10" text-anchor="middle" transform="translate(110.26 215.75)"><tspan> 3</tspan></text></g><path fill="none" stroke="#000" stroke-linecap="round" stroke-linejoin="round" stroke-width=".1" d="M147.65 205V45.01" class="gridline" color="#000"/><g fill="none" stroke="none" stroke-linecap="round" stroke-linejoin="round" stroke-width="0" color="#000"><path d="M147.65 205v-7.5m0-152.49v7.5"/><text fill="#000" font-family="KaTeX_Main" font-size="10" text-anchor="middle" transform="translate(147.65 215.75)"><tspan> 4</tspan></text></g><path fill="none" stroke="#000" stroke-linecap="round" stroke-linejoin="round" stroke-width=".1" d="M185.04 205V45.01" class="gridline" color="#000"/><g fill="none" stroke="none" stroke-linecap="round" stroke-linejoin="round" stroke-width="0" color="#000"><path d="M185.04 205v-7.5m0-152.49v7.5"/><text fill="#000" font-family="KaTeX_Main" font-size="10" text-anchor="middle" transform="translate(185.04 215.75)"><tspan> 5</tspan></text></g><path fill="none" stroke="#000" stroke-linecap="round" stroke-linejoin="round" stroke-width=".1" d="M222.43 205V45.01" class="gridline" color="#000"/><g fill="none" stroke="none" stroke-linecap="round" stroke-linejoin="round" stroke-width="0" color="#000"><path d="M222.43 205v-7.5m0-152.49v7.5"/><text fill="#000" font-family="KaTeX_Main" font-size="10" text-anchor="middle" transform="translate(222.43 215.75)"><tspan> 6</tspan></text></g><path fill="none" stroke="#000" stroke-linecap="round" stroke-linejoin="round" stroke-width=".1" d="M259.82 205V45.01" class="gridline" color="#000"/><g fill="none" stroke="none" stroke-linecap="round" stroke-linejoin="round" stroke-width="0" color="#000"><path d="M259.82 205v-7.5m0-152.49v7.5"/><text fill="#000" font-family="KaTeX_Main" font-size="10" text-anchor="middle" transform="translate(259.82 215.75)"><tspan> 7</tspan></text></g><path fill="none" stroke="#000" stroke-linecap="round" stroke-linejoin="round" stroke-width=".1" d="M297.21 205V45.01" class="gridline" color="#000"/><g fill="none" stroke="none" stroke-linecap="round" stroke-linejoin="round" stroke-width="0" color="#000"><path d="M297.21 205v-7.5m0-152.49v7.5"/><text fill="#000" font-family="KaTeX_Main" font-size="10" text-anchor="middle" transform="translate(297.21 215.75)"><tspan> 8</tspan></text></g><path fill="none" stroke="#000" stroke-linecap="round" stroke-linejoin="round" stroke-width=".1" d="M334.6 205V45.01" class="gridline" color="#000"/><g fill="none" stroke="none" stroke-linecap="round" stroke-linejoin="round" stroke-width="0" color="#000"><path d="M334.6 205v-7.5m0-152.49v7.5"/><text fill="#000" font-family="KaTeX_Main" font-size="10" text-anchor="middle" transform="translate(334.6 215.75)"><tspan> 9</tspan></text></g><path fill="none" stroke="#000" stroke-linecap="round" stroke-linejoin="round" stroke-width=".1" d="M371.99 205V45.01" class="gridline" color="#000"/><g fill="none" stroke="none" stroke-linecap="round" stroke-linejoin="round" stroke-width="0" color="#000"><path d="M371.99 205v-7.5m0-152.49v7.5"/><text fill="#000" font-family="KaTeX_Main" font-size="10" text-anchor="middle" transform="translate(371.99 215.75)"><tspan> 10</tspan></text></g><g fill="none" stroke="none" stroke-linecap="round" stroke-linejoin="round" stroke-width="0" color="#000"><path d="M371.99 205h-7.5"/><text fill="#000" font-family="KaTeX_Main" font-size="10" transform="translate(378.99 208.25)"><tspan>1.10</tspan></text></g><g fill="none" stroke="none" stroke-linecap="round" stroke-linejoin="round" stroke-width="0" color="#000"><path d="M371.99 178.33h-7.5"/><text fill="#000" font-family="KaTeX_Main" font-size="10" transform="translate(378.99 181.58)"><tspan>1.20</tspan></text></g><g fill="none" stroke="none" stroke-linecap="round" stroke-linejoin="round" stroke-width="0" color="#000"><path d="M371.99 151.67h-7.5"/><text fill="#000" font-family="KaTeX_Main" font-size="10" transform="translate(378.99 154.92)"><tspan>1.30</tspan></text></g><g fill="none" stroke="none" stroke-linecap="round" stroke-linejoin="round" stroke-width="0" color="#000"><path d="M371.99 125h-7.5"/><text fill="#000" font-family="KaTeX_Main" font-size="10" transform="translate(378.99 128.25)"><tspan>1.40</tspan></text></g><g fill="none" stroke="none" stroke-linecap="round" stroke-linejoin="round" stroke-width="0" color="#000"><path d="M371.99 98.34h-7.5"/><text fill="#000" font-family="KaTeX_Main" font-size="10" transform="translate(378.99 101.59)"><tspan>1.50</tspan></text></g><g fill="none" stroke="none" stroke-linecap="round" stroke-linejoin="round" stroke-width="0" color="#000"><path d="M371.99 71.67h-7.5"/><text fill="#000" font-family="KaTeX_Main" font-size="10" transform="translate(378.99 74.92)"><tspan>1.60</tspan></text></g><g fill="none" stroke="none" stroke-linecap="round" stroke-linejoin="round" stroke-width="0" color="#000"><path d="M371.99 45.01h-7.5"/><text fill="#000" font-family="KaTeX_Main" font-size="10" transform="translate(378.99 48.26)"><tspan>1.70</tspan></text></g><path fill="none" stroke="none" stroke-linecap="round" stroke-linejoin="round" stroke-width="0" d="M28 45.01V205M371.99 45.01H28" color="#000"/><text fill="#000" stroke="none" stroke-linecap="round" stroke-linejoin="round" stroke-width="0" color="#000" font-family="KaTeX_Main" font-size="10" text-anchor="middle" transform="rotate(-90 68.255 56.755)"><tspan font-weight="bold">Maximum Path Length </tspan><tspan> / log</tspan><tspan dy="3" font-size="8">2</tspan><tspan dy="-3">(Size)</tspan></text><text fill="#000" stroke="none" stroke-linecap="round" stroke-linejoin="round" stroke-width="0" color="#000" font-family="KaTeX_Main" font-size="10" text-anchor="middle" transform="translate(199.99 238.25)"><tspan>Operations × 10</tspan><tspan dy="-5" font-size="8">5</tspan></text><text fill="#000" stroke="none" stroke-linecap="round" stroke-linejoin="round" color="#000" font-family="KaTeX_Main" font-size="8" transform="translate(71.2 10.11)"><tspan>RedBlackBottomUp</tspan></text><g fill="none" stroke="currentColor" stroke-linecap="round" stroke-linejoin="round" color="#000"><path stroke="#F44336" d="M35.7 7.51h29.9M28 154.52l.37.38.38.37.37.37.38.36.37.36.37.35.38.34.37.35.38.34.37.33.37.33.38.32.37.32.37.32.38.31.37.31.38.31.37.3.37.3.38.29.37-.29.38-.3.37-.3.37-.31.38-.31.37-.31.38-.32.37-.32.37-.32.38-.33.37-.33.37-.34.38-.35.37-.34.38-.35.37-.36.37-.36.38-.37.37-.37.38-.38.37-.38.37-.39.38-.4.37-.4.38-.41.37-.41.37-.42.38-.43.37-.43.38 16.12.37-.43.37-.43.38-.44.37-.46.37-.46.38-.46.37-.48.38-.48.37-.5.37-.5.38-.51.37-.53.38-.54.37-.54.37-.56.38-.57.37-.58.38-.6.37-.61.37-.62.38.62.37.61.37.6.38.58.37.57.38.56.37.54.37.54.38.53.37.51.38-16.27.37.52.37.51.38.5.37.49.38.48.37.47.37.47.38.46.37.44.38.45.37.43.37.43.38.42.37.41.37.41.38.4.37.4.38.39.37.38.37.38.38.37.37.37.38.36.37.36.37.35.38.34.37.35.38.34.37.33.37.33.38.32.37.32.37.32.38.31.37.31.38.31.37.3.37.3.38.29.37-.29.38-.3.37-.3.37-.31.38-.31.37-.31.38-.32.37-.32.37-.32.38-.33.37-.33.38-.34.37-.35.37-.34.38-.35.37-.36.37-.36.38-.37.37-.37.38-.38.37 16 .37-.37.38-.37.37-.38.38-.39.37-.4.37-.4.38-.41.37-.41.38-.42.37-.43.37-.43.38-.44.37-.46.37-.46.38-.46.37-.48.38-.48.37-.5.37-.5.38-.51.37-.53.38-.54.37-.54.37-.56.38-.57.37-.58.38-.6.37-.61.37-.62.38.62.37.61.38.6.37.58.37.57.38.56.37.54.37-16.31.38.55.37.54.38.53.37.52.37.51.38.5.37.49.38.48.37.47.37.47.38.46.37.44.38.45.37.43.37.43.38.42.37.41.37.41.38.4.37.4.38.39.37.38.37.38.38.37.37.37.38.36.37.36.37.35.38.34.37.35.38.34.37.33.37.33.38.32.37.32.38.32.37.31.37.31.38.31.37.3.37.3.38.29.37-.29.38-.3.37-.3.37-.31.38-.31.37-.31.38-.32.37-.32.37-.32.38-.33.37-.33.38-.34.37-.35.37-.34.38-.35.37-.36.37-.36.38-.37.37-.37.38-.38.37-.38.37-.39.38-.4.37-.4.38-.41.37-.41.37-.42.38-.43.37-.43.38-.45.37-.44.37-.46.38-.47.37-.47.38-.48.37-.49.37-.5.38-.51.37-.52.37-.53.38-.54.37-.55.38-.56.37-.58.37-.58.38-.6.37-.61.38-.63.37-.64.37 16.43.38.62.37.61.38.6.37.58.37.57.38.56.37.54.37.54.38.53.37.51.38.5.37.5.37.48.38.48.37.46.38.46.37.46.37.44.38.43.37.43.38-16.12.37.43.37.43.38.42.37.41.38.41.37.4.37.4.38.39.37.38.37.38.38.37.37.37.38.36.37.36.37.35.38.34.37.35.38.34.37.33.37.33.38.32.37.32.38.32.37.31.37.31.38.31.37.3.37.3.38.29.37-.29.38-.3.37-.3.37-.31.38-.31.37-.31.38-.32.37-.32.37-.32.38-.33.37-.33.38-.34.37-.35.37-.34.38-.35.37-.36.38-.36.37-.37.37-.37.38-.38.37-.38.37-.39.38-.4.37-.4.38-.41.37-.41.37-.42.38-.43.37-.43.38-.45.37-.44.37-.46.38-.47.37-.47.38-.48.37-.49.37-.5.38-.51.37-.52.37-.53.38-.54.37-.55.38-.56.37-.58.37-.58.38 16.36.37-.58.38-.6.37-.61.37-.62.38.62.37.61.38.6.37.58.37.57.38.56.37.54.38.54.37.53.37.51.38.5.37.5.37.48.38.48.37.46.38.46.37.46.37.44.38.43.37.43.38.42.37.41.37-16.09.38.42.37.41.38.41.37.4.37.4.38.39.37.38.37.38.38.37.37-15.95.38.38.37.37.37.37.38.36.37.36.38.36.37.35.37.34.38.34.37.34.38.33.37.33.37.32.38.32.37.32.38.31.37.31.37-.31.38-.31.37-.32.37-.32.38-.32.37-.33.38-.33.37 15.83.37-.32.38-.33.37-.33.38-.34.37-.35.37-.34.38-.35.37-.36.38-.36.37-.37.37-.37.38-.38.37-.38.37-.39.38-.4.37-.4.38-.41.37-.41.37-.42.38-.43.37-.43.38-.45.37-.44.37-.46.38-.47.37-.47.38-.48.37-.49.37-.5.38-.51.37-.52.38-.53.37-.54.37-.55.38 16.31.37-.54.37-.56.38-.57.37-.58.38-.6.37-.61.37-.62.38.62.37.61.38.6.37.58.37.57.38.56.37.54.38.54.37.53.37.51.38.5.37.5.37.48.38-16.22.37.49.38.48.37.47.37.47.38.46.37.44.38.45.37.43.37.43.38.42.37.41.38.41.37.4.37.4.38.39.37.38.37.38.38.37.37.37.38.36.37.36.37.35.38.34.37.35.38.34.37.33.37.33.38.32.37.32.38.32.37.31.37.31.38.31.37.3.38.3.37.29.37-.29.38-.3.37-.3.37-.31.38-.31.37-.31.38-.32.37-.32.37-.32.38-.33.37-.33.38-.34.37-.35.37-.34.38-.35.37-.36.38-.36.37-.37.37-.37.38-.38.37-.38.37-.39.38-.4.37-.4.38-.41.37-.41.37-.42.38-.43.37-.43.38-.45.37-.44.37-.46.38-.47.37-.47.38 16.19.37-.46.37-.48.38-.48.37-.5.38-.5.37-.51.37-.53.38-.54.37-.54.37-.56.38-.57.37-.58.38-.6.37-.61.37-.62.38.62.37.61.38.6.37.58.37.57.38.56.37.54.38.54.37.53.37.51.38.5.37.5.37-16.24.38.5.37.49.38.48.37.47.37.47.38.46.37.44.38.45.37.43.37.43.38.42.37.41.38.41.37.4.37.4.38.39.37.38.38.38.37-15.97.37.39.38.38.37.37.37.37.38.36.37.36.38.36.37.35.37.34.38.34.37.34.38.33.37.33.37.32.38.32.37.32.38.31.37.31.37-.31.38-.31.37-.32.37-.32.38-.32.37-.33.38-.33.37-.34.37-.34.38-.34.37-.35.38-.36.37-.36.37-.36.38-.37.37-.37.38-.38.37-.39.37-.39.38-.39.37-.4.38-.41.37-.42.37-.42.38 16.04.37-.41.37-.42.38-.43.37-.43.38-.45.37-.44.37-.46.38-.47.37-.47.38-.48.37-.49.37-.5.38-.51.37 16.25.38-.5.37-.51.37-.53.38-.54.37-.54.37-.56.38-.57.37-.58.38-.6.37-.61.37-.62.38.62.37.61.38.6.37.58.37.57.38.56.37.54.38-16.31.37.55.37.54.38.53.37.52.38.51.37.5.37.49.38.48.37.47.37.47.38.46.37.44.38.45.37.43.37.43.38.42.37.41.38.41.37.4.37.4.38.39.37.38.38.38.37.37.37.37.38.36.37.36.37.35.38.34.37.35.38.34.37.33.37.33.38.32.37.32.38.32.37.31.37.31.38.31.37.3.38.3.37.29.37-.29.38-.3.37-.3.38-.31.37-.31.37-.31.38-.32.37-.32.37-.32.38-.33.37-.33.38-.34.37-.35.37-.34.38-.35.37-.36.38-.36.37-.37.37-.37.38-.38.37-.38.38-.39.37-.4.37-.4.38-.41.37-.41.37-.42.38-.43.37-.43.38-.45.37-.44.37-.46.38-.47.37-.47.38-.48.37-.49.37-.5.38-.51.37-.52.38-.53.37-.54.37-.55.38-.56.37 16.33.38-.56.37-.57.37-.58.38-.6.37-.61.37-.62.38.62.37.61.38.6.37.58.37.57.38.56.37.54.38.54.37.53.37.51.38.5.37.5.38.48.37.48.37.46.38-16.19.37.47.37.47.38.46.37.44.38.45.37.43.37.43.38.42.37.41.38.41.37.4.37.4.38.39.37.38.38.38.37.37.37.37.38.36.37.36.38-15.92.37.36.37.36.38.36.37.35.37.34.38.34.37.34.38.33.37.33.37.32.38.32.37.32.38.31.37.31.37-.31.38-.31.37-.32.38-.32.37-.32.37-.33.38-.33.37-.34.37-.34.38-.34.37-.35.38-.36.37-.36.37-.36.38-.37.37-.37.38-.38.37-.39.37-.39.38-.39.37-.4.38-.41.37-.42.37-.42.38-.42.37-.44.38 16.07.37-.43.37-.43.38-.45.37-.44.37-.46.38-.47.37-.47.38-.48.37-.49.37 16.22.38-17.23.37-.52.38 16.27.37-.51.37-.53.38-.54.37-.54.38-.56.37-.57.37-.58.38-.6.37-.61.37-.62.38.62.37.61.38.6.37.58.37.57.38-16.35.37.58.38.56.37.55.37.54.38.53.37.52.38.51.37.5.37.49.38.48.37.47.38.47.37.46.37.44.38.45.37.43.37.43.38.42.37.41.38.41.37.4.37.4.38.39.37.38.38.38.37.37.37.37.38.36.37.36.38.35.37.34.37.35.38.34.37.33.37.33.38.32.37.32.38.32.37.31.37.31.38.31.37.3.38.3.37.29"/><use xlink:href="#e" color="#F44336" transform="matrix(3.75 0 0 3.75 342.45 137.75)"/><use xlink:href="#e" color="#F44336" transform="matrix(3.75 0 0 3.75 50.65 7.51)"/></g><text fill="#000" stroke="none" stroke-linecap="round" stroke-linejoin="round" color="#000" font-family="KaTeX_Main" font-size="8" transform="translate(71.2 25.11)"><tspan>RedBlackTopDown</tspan></text><g fill="none" stroke="currentColor" stroke-linecap="round" stroke-linejoin="round" color="#000"><path stroke="#3B75EA" stroke-dasharray="1.0,2.0" d="M35.7 22.51h29.9M28 154.52l.37.38.38.37.37.37.38.36.37.36.37.35.38.34.37.35.38-15.88.37 16.55.37.33.38.32.37.32.37.32.38.31.37.31.38.31.37.3.37.3.38-15.76.37-.31.38-.31.37-.32.37-.32.38-.32.37-.33.38-.33.37-.34.37 15.85.38-.33.37-.33.37-.34.38-16.6.37 15.91.38-.35.37-.36.37-.36.38-.37.37-.37.38-.38.37-.38.37-.39.38 16.03.37-16.83.38-.41.37-.41.37-.42.38 16.09.37-.41.38-.42.37-.43.37-.43.38-.44.37-.46.37-.46.38-.46.37-.48.38-.48.37-.5.37-.5.38-.51.37-.53.38-.54.37-.54.37 16.37.38-.54.37-.55.38-17.59.37 16.44.37-.59.38.59.37.58.37.57.38.55.37.54.38.53.37.52.37.51.38-16.32.37.51.38.5.37.5.37-16.24.38.5.37.49.38.48.37.47.37 17.08.38.43.37.43.38.42.37.41.37.41.38.4.37.4.37.39.38.38.37.37.38-16.01.37.38.37.38.38.37.37.37.38.36.37.36.37.35.38.34.37.35.38.34.37.33.37-15.86.38.34.37.34.37.33.38.33.37 32.55.38.29.37.28.37.29.38.28.37-.28.38-.29.37-.28.37-.29.38-.3.37-.3.38-16.46.37 15.86.37-.32.38-.31.37-.32.38-.32.37-.32.37-.33.38-.34.37-.34.37-.35.38-.35.37-.35.38-.36.37-.37.37-.37.38-.37.37-.38.38-.39.37-.4.37-.4.38-.41.37-.41.38-.42.37-.43.37-.43.38-.44.37-.46.37-.46.38-.46.37-.48.38 16.27.37-.47.37-.48.38-.49.37-.5.38-.51.37-.52.37-.53.38-.54.37-.55.38-.57.37-.58.37-.59.38.59.37.58.38.57.37.55.37.54.38.53.37.52.37.51.38.5.37.49.38-16.3.37 17.25.37-16.27.38.48.37.46.38.46.37.46.37-16.17.38.46.37.44.38 16.99.37.41.37-16.09.38.42.37.41.37.41.38-16.03.37.42.38 16.8.37.38.37 16.73.38-15.98.37.37.38.36.37.36.37.35.38.34.37.35.38.34.37.33.37.33.38.32.37.32.38.32.37.31.37.31.38.31.37.3.37.3.38.29.37-.29.38-.3.37-.3.37-16.42.38-.32.37-.33.38-.33.37-.34.37-.34.38-.34.37-.35.38-.36.37 15.89.37 15.93.38-.34.37-16.64.37 15.95.38-.35.37-.35.38-.36.37-.37.37-.37.38-.37.37-.38.38-.39.37-.4.37-.4.38-.41.37 16.14.38-.4.37-.41.37-.41.38-17.05.37-.46.38-.46.37-.46.37-.48.38-.48.37-.5.37-.5.38-.51.37 16.32.38-17.39.37-.54.37-.56.38-17.53.37 16.38.38 16.42.37-.58.37-.59.38.59.37.58.38-16.42.37.58.37 17.5.38.53.37.52.37-16.34.38 17.35.37.49.38.48.37-16.28.37.48.38.48.37 17.14.38.44.37.43.37.42.38-16.18.37.43.38.42.37.41.37.41.38.4.37-16.07.38.41.37.4.37 16.8.38.37.37.37.37.36.38-15.98.37.37.38.36.37 16.64.37.34.38-15.93.37 16.58.38.32.37.32.37-32.06.38.34.37.34.38 16.47.37.31.37.31.38 16.41.37.28.37.29.38.28.37-.28.38-.29.37-.28.37-16.41.38 15.82.37-.3.38-.3.37-.3.37-16.5.38-16.53.37-.35.38 15.88.37 15.91.37-.33.38-.34.37-.34.38-.35.37-.35.37-.35.38-.36.37-.37.37-.37.38-16.8.37-.4.38-.41.37-.41.37-.42.38-.43.37-.43.38-.45.37-.44.37-.46.38-.47.37-.47.38 16.19.37-.46.37 16.25.38-.46.37-.47.37-.48.38-.49.37-.5.38-.51.37-.52.37-.53.38-.54.37-.55.38-.57.37-.58.37-.59.38.59.37.58.38.57.37.55.37.54.38-16.37.37 17.42.38-16.34.37.53.37.51.38.5.37 17.25.37.46.38.45.37-16.24.38.46.37.46.37.44.38.43.37.43.38.42.37.41.37-16.09.38.42.37.41.38.41.37.4.37.4.38.39.37 16.75.37.36.38.35.37.35.38.35.37.34.37.34.38.33.37.32.38.32.37.32.37.31.38.32.37.3.38-15.84.37.31.37.31.38-15.79.37.32.38 16.38.37.29.37-.29.38-.3.37-.3.37-.31.38-.31.37-.31.38-.32.37 15.86.37-.32.38-.31.37-.32.38-16.55.37 15.91.37-.33.38-.34.37-.34.38-.35.37-.35.37-.35.38-.36.37-.37.37-.37.38-.37.37-16.83.38 16.06.37-16.88.37-.42.38-.43.37-.43.38 16.12.37-.43.37-.43.38-.44.37-.46.38-.46.37-.46.37-.48.38-.48.37-.5.38-.5.37-.51.37-.53.38-.54.37-.54.37-.56.38-.57.37-.58.38-.6.37-.61.37-.62.38.62.37.61.38.6.37.58.37.57.38.56.37.54.38.54.37.53.37.51.38.5.37.5.37.48.38.48.37.46.38.46.37.46.37.44.38.43.37.43.38.42.37.41.37.41.38-16.08.37.41.38 16.86.37.38.37-16.03.38.39.37.38.37 16.73.38.35.37.35.38.35.37.34.37.34.38.33.37.32.38.32.37.32.37.31.38.32.37.3.38.3.37.3.37-15.82.38.31.37 16.38.38-15.78.37.29.37-.29.38-.3.37-.3.37-.31.38-.31.37-.31.38-.32.37-.32.37-.32.38-.33.37-.33.38-.34.37-.35.37-.34.38-.35.37-.36.38-.36.37-.37.37-.37.38-.38.37-.38.37-.39.38-.4.37-.4.38-.41.37-.41.37-.42.38-.43.37-.43.38-.45.37-.44.37-.46.38 16.17.37-17.11.38-.48.37-.49.37-.5.38-.51.37-.52.38-.53.37-.54.37 16.3.38-.54.37-.54.37-.56.38-.57.37 16.41.38-.57.37-.58.37-.59.38.59.37.58.38.57.37.55.37.54.38.53.37.52.38-16.34.37.53.37 17.31.38.48.37.47.37.46.38.45.37.44.38.44.37-16.2.37.44.38.43.37.43.38.42.37.41.37.41.38.4.37-16.07.38.41.37.4.37-16.01.38 33.18.37.37.38.36.37.35.37.35.38.35.37.34.37.34.38.33.37.32.38.32.37.32.37-15.87.38.32.37.32.38.32.37.31.37.31.38.31.37.3.38.3.37.29.37-.29.38-.3.37-.3.37-.31.38-.31.37-.31.38-.32.37-.32.37-.32.38-.33.37-.33.38-.34.37-.35.37-.34.38-.35.37-.36.38-.36.37-.37.37-.37.38-.38.37-.38.38-.39.37-.4.37-.4.38-.41.37-.41.37 16.08.38-.41.37-.41.38-.42.37-.43.37-.43.38-.44.37-.46.38-.46.37-.46.37-.48.38-.48.37-.5.38-.5.37-.51.37-.53.38-.54.37-.54.37-.56.38-.57.37-.58.38-.6.37-.61.37-.62.38.62.37.61.38.6.37.58.37.57.38.56.37.54.38.54.37.53.37.51.38.5.37.5.38.48.37.48.37-16.21.38.48.37.47.37.47.38.46.37 17.01.38.42.37.41.37.41.38.4.37.4.38.39.37.38.37-16.03.38.39.37.38.38.38.37.37.37.37.38-15.94.37 16.66.37.35.38.34.37.35.38.34.37-15.87.37.34.38.34.37.34.38.33.37.33.37 32.55.38.29.37.28.38.29.37.28.37-.28.38-.29.37-.28.38-.29.37-16.43.37 15.83.38-.3.37-.3.37-.32.38-.31.37-.32.38-.32.37-.32.37-.33.38-.34.37-.34.38-16.66.37 15.96.37-.35.38-.36.37-.37.38-.37.37-.37.37-.38.38-.39.37-.4.37-.4.38-.41.37-.41.38-.42.37-.43.37-.43.38-.44.37-.46.38-.46.37-.46.37-.48.38-.48.37-.5.38 16.3.37-.49.37-.5.38-.51.37-17.42.38 16.37.37-.54.37-.55.38-.57.37-.58.37-.59.38.59.37.58.38.57.37-16.41.37 17.5.38.53.37-16.36.38 17.39.37-16.32.37.51.38-16.27.37.52.38.51.37 17.2.37.46.38.46.37.46.37.44.38.43.37-16.14.38.45.37.43.37-16.08.38.44.37 49.83.38-16.07.37.38.37.37.38.37.37.37.38.36.37.35.37-15.96.38.36.37.36.38.35.37.34.37.35.38-15.88.37.35.37 16.53.38.32.37.32.38.32.37.31.37.31.38.31.37.3.38.3.37-15.76.37-.31.38-.31.37-.32.38 15.79.37-.31.37-.31.38-.32.37-.32.37-.32.38-.33.37-.33.38-.34.37-.35.37-.34.38-.35.37-.36.38-.36.37-.37.37-.37.38-.38.37-.38.38-.39.37-.4.37-.4.38-.41.37-.41.38-.42.37-.43.37-.43.38-.45.37-.44.37-.46.38-.47.37-.47.38 16.19.37-.46.37-.48.38 16.27.37-17.25.38 16.3.37-.49.37-.5.38-.51.37-.52.38-.53.37-.54.37-.55.38-.57.37-.58.37-.59.38.59.37.58.38.57.37.55.37.54.38-16.37.37.54.38.54.37.53.37.51.38.5.37-16.25.38.51.37.5.37 17.16.38.46.37.46.38.44.37.43.37.43.38-16.12.37.43.37.43.38 16.9.37.4.38.39.37.38.37.37.38.37.37.37.38.36.37.35.37.35.38-15.95.37 16.64.38-15.93.37.34.37.35.38.34.37.33.37.33.38.32.37.32.38.32.37-15.81.37.32.38.32.37.32.38.31.37.31"/><use xlink:href="#g" color="#3B75EA" transform="matrix(3.75 0 0 3.75 56.04 176.58)"/><use xlink:href="#g" color="#3B75EA" transform="matrix(3.75 0 0 3.75 50.65 22.51)"/></g><text fill="#000" stroke="none" stroke-linecap="round" stroke-linejoin="round" color="#000" font-family="KaTeX_Main" font-size="8" transform="translate(241.1 10.11)"><tspan>RedBlackRelaxedBottomUp</tspan></text><g fill="none" stroke="currentColor" stroke-linecap="round" stroke-linejoin="round" color="#000"><path stroke="#00C853" d="M205.6 7.51h29.9M28 154.52l.37.38.38.37.37.37.38.36.37.36.37.35.38.34.37.35.38.34.37.33.37.33.38.32.37.32.37.32.38.31.37.31.38.31.37.3.37.3.38.29.37-.29.38-.3.37-.3.37-.31.38-.31.37-.31.38-.32.37-.32.37-.32.38-.33.37-.33.37-.34.38-.35.37-.34.38-.35.37-.36.37-.36.38-.37.37-.37.38-.38.37-.38.37-.39.38-.4.37-.4.38-.41.37-.41.37-.42.38-.43.37-.43.38-.45.37-.44.37-.46.38-.47.37-.47.37-.48.38-.49.37-.5.38-.51.37-.52.37-.53.38-.54.37-.55.38-.56.37-.58.37-.58.38-.6.37-.61.38-.63.37-.64.37-.65.38.65.37.64.37.63.38.61.37.6.38.58.37.58.37.56.38.55.37.54.38.53.37.52.37.51.38.5.37.49.38.48.37.47.37.47.38.46.37.44.38.45.37.43.37.43.38.42.37.41.37.41.38.4.37.4.38.39.37-15.99.37.39.38.39.37.39.38.38.37.37.37.37.38.36.37.36.38.36.37.35.37.34.38.34.37.34.37.33.38.33.37.32.38.32.37.32.37.31.38.31.37-.31.38-.31.37-.32.37-.32.38-.32.37-.33.38-.33.37-.34.37-.34.38-.34.37-.35.38-.36.37-.36.37-.36.38-.37.37-.37.37-.38.38-.39.37-.39.38-.39.37-.4.37-.41.38-.42.37-.42.38-.42.37-.44.37-.44.38-.45.37-.45.38-.46.37-.47.37-.48.38-.49.37-.5.37-.5.38-.52.37-.52.38 16.22.37-.52.37-.53.38-.54.37-.55.38-.56.37-.58.37-.58.38-.6.37-.61.38-.63.37-.64.37-.65.38.65.37.64.38.63.37.61.37.6.38.58.37.58.37.56.38.55.37.54.38.53.37.52.37.51.38.5.37.49.38.48.37.47.37-16.14.38.48.37.47.38.46.37.45.37.45.38.44.37.44.37.42.38-16 .37.43.38.43.37.42.37.41.38.41.37.4.38.4.37.39.37.38.38.38.37.38.38.37.37.36.37.36.38.36.37.35.38.35.37.34.37.34.38.34.37.33.37.32.38.32.37-.32.38-.32.37-.33.37-.34.38-.34.37-.34.38-.35.37-.35.37-.36.38-.36.37-.36.38-.37.37-.38.37-.38.38-.38.37-.39.37-.4.38-.4.37-.41.38-.41.37-.42.37-.43.38-.43.37-.44.38-.45.37-.45.37-.46.38-.47.37-.48.38-.48.37-.49.37-.5.38-.51.37-.52.38-.53.37-.54.37-.54.38-.56.37-.57.37-.58.38-.59.37-.6.38-.62.37-.63.37-.64.38-.65.37-.68.38-.68.37-.7.37-.72.38.72.37.7.38.68.37.68.37.65.38.64.37.63.37.62.38.6.37.59.38.58.37.57.37.56.38.54.37.54.38.53.37.52.37.51.38.5.37.49.38.48.37.48.37.47.38.46.37.45.38.45.37.44.37.43.38.43.37.42.37.41.38.41.37.4.38.4.37.39.37.38.38.38.37.38.38.37.37.36.37.36.38.36.37.35.38.35.37.34.37.34.38.34.37.33.37.32.38.32.37-.32.38-.32.37-.33.37-.34.38-.34.37-.34.38-.35.37-.35.37-.36.38-.36.37-.36.38-.37.37-.38.37-.38.38-.38.37-.39.38-.4.37-.4.37-.41.38-.41.37-.42.37-.43.38-.43.37-.44.38-.45.37-.45.37-.46.38-.47.37-.48.38-.48.37-.49.37-.5.38-.51.37-.52.38-.53.37-.54.37-.54.38-.56.37-.57.37-.58.38-.59.37-.6.38-.62.37-.63.37-.64.38-.65.37-.68.38-.68.37-.7.37-.72.38.72.37.7.38.68.37.68.37.65.38.64.37.63.38.62.37.6.37.59.38.58.37.57.37.56.38.54.37.54.38.53.37.52.37.51.38.5.37.49.38.48.37.48.37.47.38.46.37.45.38.45.37.44.37.43.38.43.37.42.37.41.38.41.37.4.38.4.37.39.37.38.38.38.37.38.38.37.37.36.37.36.38.36.37.35.38.35.37.34.37.34.38.34.37.33.38.32.37.32.37-.32.38-.32.37-.33.37-.34.38-.34.37-.34.38-.35.37-.35.37-.36.38-.36.37-.36.38-.37.37-.38.37-.38.38-.38.37-.39.38-.4.37-.4.37-.41.38-.41.37-.42.37-.43.38-.43.37-.44.38-.45.37-.45.37-.46.38-.47.37-.48.38-.48.37-.49.37-.5.38-.51.37-.52.38-.53.37-.54.37-.54.38-.56.37-.57.38-.58.37-.59.37-.6.38-.62.37-.63.37-.64.38-.65.37-.68.38-.68.37-.7.37-.72.38.72.37.7.38.68.37.68.37.65.38.64.37.63.38.62.37.6.37.59.38.58.37.57.37.56.38-16.16.37.56.38.55.37.54.37.54.38.52.37.51.38.51.37.5.37.48.38.48.37.48.38.46.37.46.37.45.38.45.37.44.37.43.38.42.37.42.38.42.37.4.37.41.38.39.37.39.38.39.37.38.37.38.38.37.37.37.38.36.37.36.37.35.38.35.37.34.38.34.37.34.37-.34.38-.34.37-.34.37-.35.38-.35.37-.36.38-.36.37-.37.37-.37.38-.38.37-.38.38-.39.37-.39.37-.39.38-.41.37-.4.38-.42.37-.42.37-.42.38-.43.37-.44.37-.45.38-.45.37-.46.38-.46.37-.48.37-.48.38-.48.37-.5.38-.51.37-.51.37-.52.38-.54.37-.54.38-.55.37-.56.37-.57.38-.58.37-.59.38-.61.37-.62.37-.63.38-.64.37-.65.37-.67.38-.69.37-.7.38-.71.37-.73.37-.75.38.75.37.73.38.71.37.7.37.69.38.67.37.65.38.64.37.63.37.62.38.61.37.59.37.58.38.57.37.56.38.55.37.54.37.54.38.52.37.51.38.51.37.5.37.48.38.48.37.48.38.46.37.46.37.45.38.45.37.44.38.43.37.42.37.42.38.42.37.4.37.41.38.39.37.39.38.39.37.38.37.38.38.37.37.37.38.36.37.36.37.35.38.35.37.34.38.34.37.34.37-.34.38-.34.37-.34.37-.35.38-.35.37-.36.38-.36.37-.37.37-.37.38-.38.37-.38.38-.39.37-.39.37-.39.38-.41.37-.4.38-.42.37-.42.37-.42.38-.43.37-.44.38-.45.37-.45.37-.46.38-.46.37-.48.37-.48.38-.48.37-.5.38-.51.37-.51.37-.52.38-.54.37-.54.38-.55.37-.56.37-.57.38-.58.37-.59.38-.61.37-.62.37-.63.38-.64.37-.65.37-.67.38-.69.37-.7.38-.71.37-.73.37-.75.38.75.37.73.38.71.37.7.37.69.38.67.37.65.38.64.37.63.37.62.38.61.37.59.38.58.37.57.37.56.38.55.37.54.37.54.38.52.37.51.38.51.37.5.37.48.38.48.37.48.38.46.37.46.37.45.38.45.37.44.38.43.37.42.37.42.38.42.37.4.37.41.38.39.37.39.38.39.37.38.37.38.38.37.37.37.38.36.37.36.37.35.38.35.37.34.38.34.37-15.71.37-.36.38-.35.37-.36.38-.36.37-.37.37-.37.38-.38.37-.38.37-.39.38-.39.37-.4.38-.4.37-.41.37-.41.38-.42.37-.42.38-.44.37-.43.37-.45.38-.45.37-.45.38-.47.37-.47.37-.47.38-.49.37-.49.37-.5.38-.51.37-.52.38-.52.37-.54.37-.54.38-.56.37-.56.38-.57.37-.59.37-.59.38-.61.37-.62.38-.63.37-.64.37-.66.38-.66.37-.69.38-.7.37 16.25.37-.7.38-.71.37-.73.37-.75.38.75.37.73.38.71.37.7.37.69.38.67.37.65.38.64.37.63.37.62.38.61.37.59.38.58.37.57.37.56.38-16.1.37.56.37.56.38.54.37.54.38.52.37.52.37.51.38.5.37.49.38.49.37.47.37.47.38.47.37.45.38.45.37.45.37.43.38.44.37.42.38.42.37.41.37.41.38.4.37.4.37.39.38.39.37.38.38.38.37.37.37.37.38.36.37.36.38.35.37.36.37-.36.38-.35.37-.36.38-.36.37-.37.37-.37.38-.38.37-.38.37-.39.38-.39.37-.4.38-.4.37-.41.37-.41.38-.42.37-.42.38-.44.37-.43.37-.45.38-.45.37-.45.38-.47.37-.47.37-.47.38-.49.37-.49.38-.5.37-.51.37-.52.38-.52.37-.54.37-.54.38-.56.37-.56.38-.57.37-.59.37-.59.38-.61.37-.62.38-.63.37-.64.37-.66.38-.66.37-.69.38-.7.37-.71.37-.73.38-.74.37-.77.37-.77.38.77.37.77.38.74.37.73.37.71.38.7.37.69.38.66.37.66.37.64.38.63.37.62.38.61.37.59.37.59.38.57.37.56.38.56.37.54.37.54.38.52.37.52.37.51.38.5.37.49.38.49.37.47.37.47.38.47.37.45.38.45.37.45.37.43.38.44.37.42.38.42.37.41.37.41.38.4.37.4.37.39.38.39.37.38.38.38.37.37.37.37.38.36.37.36.38.35.37.36"/><use xlink:href="#b" color="#00C853" transform="matrix(3.75 0 0 3.75 113.62 126.02)"/><use xlink:href="#b" color="#00C853" transform="matrix(3.75 0 0 3.75 220.55 7.51)"/></g><text fill="#000" stroke="none" stroke-linecap="round" stroke-linejoin="round" color="#000" font-family="KaTeX_Main" font-size="8" transform="translate(241.1 25.11)"><tspan>RedBlackRelaxedTopDown</tspan></text><g fill="none" stroke="currentColor" stroke-linecap="round" stroke-linejoin="round" color="#000"><path stroke="#FFAB00" stroke-dasharray="4.5,2.0,0.5,2.0,0.5,2.0" d="M205.6 22.51h29.9M28 154.52l.37.38.38.37.37.37.38.36.37.36.37.35.38.34.37.35.38-15.88.37 16.55.37.33.38.32.37.32.37.32.38.31.37.31.38.31.37.3.37.3.38-15.76.37-.31.38-.31.37-.32.37-.32.38-.32.37-.33.38-.33.37-.34.37-.34.38-.34.37-.35.37-.36.38-.36.37-.36.38-.37.37-.37.37-.38.38-.39.37-.39.38-.39.37-.4.37-.41.38-.42.37-.42.38-.42.37-.44.37-.44.38-.45.37-.45.38-.46.37-.47.37-.48.38-.49.37-.5.37-.5.38-.52.37-.52.38-.53.37-.55.37-.55.38 16.26.37-.55.38-.56.37-.58.37-.58.38-.6.37-.61.38-.63.37-.64.37-.65.38.65.37.64.37.63.38 17.57.37.57.38.56.37.54.37.54.38.53.37.51.38.5.37.5.37-16.24.38.5.37.49.38.48.37.47.37.47.38.46.37.44.38.45.37.43.37.43.38.42.37.41.37.41.38.4.37.4.38-16 .37.4.37 16.75.38.37.37.37.38.36.37.36.37.35.38.34.37.35.38.34.37.33.37-15.86.38.34.37.34.37.33.38.33.37.32.38.32.37.32.37.31.38.31.37-.31.38-.31.37-.32.37-.32.38-.32.37-.33.38-.33.37-.34.37-.34.38-.34.37-.35.38-.36.37-.36.37-.36.38-.37.37-.37.37-.38.38-.39.37-.39.38-.39.37-.4.37-.41.38-.42.37-.42.38-.42.37-.44.37-.44.38-.45.37-.45.38-.46.37-.47.37-.48.38-.49.37-.5.37-.5.38-.52.37-.52.38-.53.37-.55.37-.55.38-.57.37-.57.38-.59.37-.6.37-.62.38-.62.37-.65.38-.65.37-.67.37-.69.38.69.37.67.38.65.37.65.37.62.38.62.37.6.37.59.38.57.37.57.38.55.37.55.37.53.38.52.37.52.38.5.37.5.37-16.12.38.5.37.49.38 17.03.37.45.37-16.05.38.46.37.45.37.45.38-15.99.37.45.38 16.84.37.42.37 16.76.38.39.37.39.38.38.37.37.37.37.38.36.37.36.38.36.37.35.37.34.38.34.37.34.38.33.37.33.37.32.38.32.37.32.37.31.38.31.37-.31.38-.31.37-.32.37-.32.38-.32.37-.33.38-.33.37-.34.37-.34.38-.34.37-.35.38-.36.37-.36.37-.36.38-.37.37-.37.37-.38.38-.39.37-.39.38-.39.37-.4.37-.41.38-.42.37-.42.38-.42.37-.44.37-.44.38-.45.37-.45.38-.46.37-.47.37-.48.38-.49.37-.5.38-.5.37-.52.37-.52.38-.53.37-.55.37-.55.38-.57.37-.57.38-.59.37-.6.37-.62.38-.62.37-.65.38-.65.37-.67.37-.69.38.69.37.67.38-16.34.37.68.37 34.52.38.58.37.58.37-16.29.38 17.4.37.54.38.53.37-16.23.37.53.38.52.37.52.38.5.37.5.37.49.38-16.11.37.49.38.48.37.48.37.47.38.46.37-16.01.38.46.37.46.37 16.86.38.43.37.42.37.41.38-15.93.37.42.38.42.37 49.26.37.35.38.34.37.35.38.34.37.33.37-15.86.38.34.37.34.38 16.47.37.31.37.31.38.31.37.3.37.3.38.29.37-.29.38-.3.37-.3.37-.31.38-.31.37-.31.38-.32.37-.32.37-.32.38-.33.37-.33.38-.34.37-.35.37-.34.38-.35.37-.36.38-.36.37-.37.37-.37.38-.38.37-.38.37-.39.38-.4.37-.4.38-.41.37-.41.37-.42.38-.43.37-.43.38-.45.37-.44.37-.46.38-.47.37-.47.38-.48.37-.49.37-.5.38-.51.37-.52.37-.53.38-.54.37-.55.38-.56.37-.58.37-.58.38-.6.37-.61.38-.63.37-.64.37-.65.38.65.37.64.38.63.37.61.37.6.38-16.32.37 17.48.38-16.29.37.57.37.57.38.55.37 17.3.37.51.38.5.37-16.19.38.5.37.5.37.49.38.48.37.47.38.46.37.45.37-16.05.38.46.37.45.38.45.37.44.37.43.38.43.37 16.79.37.39.38.39.37.39.38.38.37.37.37.37.38.36.37.36.38.36.37.35.37.34.38.34.37.34.38-15.81.37.34.37.34.38-15.76.37.34.38 16.41.37.32.37-.32.38-.32.37-.33.37-.34.38-.34.37-.34.38-.35.37-.35.37-.36.38-.36.37-.36.38-.37.37-.38.37-.38.38-.38.37-.39.38-.4.37-.4.37-.41.38-.41.37-.42.37-.43.38-.43.37-.44.38-.45.37-.45.37-.46.38-.47.37-.48.38-.48.37-.49.37-.5.38-.51.37-.52.38-.53.37-.54.37-.54.38-.56.37-.57.38-.58.37-.59.37-.6.38-.62.37-.63.37-.64.38-.65.37-.68.38-.68.37-.7.37-.72.38.72.37.7.38.68.37.68.37.65.38.64.37.63.38-16.24.37.63.37.62.38.61.37.59.37.58.38.57.37.56.38.55.37.54.37 17.15.38.5.37.49.38.48.37.48.37.47.38.46.37.45.38.45.37.44.37.43.38.43.37.42.37.41.38.41.37.4.38.4.37.39.37.38.38.38.37.38.38.37.37.36.37-15.82.38.37.37.37.38.36.37.36.37.35.38.35.37.34.38.34.37.34.37-.34.38-.34.37-.34.37-.35.38 15.77.37-.34.38-.35.37-.35.37-.36.38-.36.37-.36.38-.37.37-.38.37-.38.38-.38.37-.39.38-.4.37-.4.37-.41.38-.41.37-.42.37-.43.38-.43.37-.44.38-.45.37-.45.37-.46.38-.47.37-.48.38-.48.37-.49.37-.5.38-.51.37-.52.38-.53.37-.54.37-.54.38-.56.37-.57.38-.58.37-.59.37-.6.38-.62.37-.63.37-.64.38-.65.37-.68.38-.68.37-.7.37-.72.38.72.37.7.38.68.37.68.37.65.38.64.37.63.38.62.37.6.37.59.38.58.37.57.37.56.38.54.37.54.38.53.37.52.37.51.38.5.37.49.38.48.37.48.37.47.38.46.37-16.01.38.46.37.46.37-15.96.38 49.64.37.4.38.39.37.39.37.39.38.38.37.37.37.37.38.36.37.36.38.36.37.35.37-15.85.38.36.37.35.38.35.37.34.37.34.38.34.37.33.38.32.37.32.37-.32.38-.32.37-.33.37-.34.38-.34.37-.34.38-.35.37-.35.37-.36.38-.36.37-.36.38-.37.37-.38.37-.38.38-.38.37-.39.38-.4.37-.4.37-.41.38-.41.37-.42.38-.43.37-.43.37-.44.38-.45.37-.45.37-.46.38-.47.37-.48.38-.48.37-.49.37-.5.38-.51.37-.52.38-.53.37-.54.37-.54.38-.56.37-.57.38-.58.37-.59.37-.6.38-.62.37-.63.37-.64.38-.65.37-.68.38-.68.37-.7.37-.72.38.72.37.7.38.68.37.68.37.65.38.64.37.63.38.62.37.6.37.59.38.58.37.57.38.56.37.54.37-16.14.38.55.37.54.37.54.38.52.37 17.08.38.48.37.48.37.47.38.46.37.45.38.45.37.44.37-15.98.38.45.37.44.38.43.37.42.37.42.38-15.88.37 16.7.37.41.38.39.37.39.38.39.37-15.82.37.39.38.39.37.38.38.38.37.37.37 16.48.38.35.37.34.38.34.37.34.37-.34.38-.34.37-.34.38-.35.37-.35.37-.36.38-.36.37-.37.37-.37.38-.38.37-.38.38-.39.37-.39.37-.39.38-.41.37-.4.38-.42.37-.42.37-.42.38-.43.37-.44.38-.45.37-.45.37-.46.38-.46.37-.48.37-.48.38-.48.37-.5.38-.51.37-.51.37-.52.38-.54.37-.54.38-.55.37-.56.37-.57.38-.58.37-.59.38 16.19.37-.59.37-.6.38-.62.37-.63.38-.64.37-.65.37-.68.38-.68.37-.7.37-.72.38.72.37.7.38.68.37-16.29.37 17.62.38.64.37-16.25.38 17.5.37-16.23.37.62.38-16.17.37.62.38.61.37 17.29.37.56.38.55.37.54.37.54.38.52.37-16.05.38.52.37.52.37-16 .38.52.37 49.91.38-16 .37.46.37.45.38.45.37.44.38.43.37.42.37-15.9.38.44.37.42.38.42.37.41.37.41.38-15.81.37.41.37 16.59.38.39.37.38.38.38.37.37.37.37.38.36.37.36.38.35.37-15.7.37-.36.38-.37.37-.37.38-.38.37-.38.37-.39.38-.4.37-.39.37-.4.38-.41.37-.41.38-.42.37-.43.37-.43.38-.43.37-.45.38-.44.37-.46.37-.46.38-.47.37-.47.38-.48.37-.49.37-.5.38-.5.37-.52.38-.52.37-.53.37-.53.38-.55.37-.56.37-.56.38-.58.37-.59.38-.59.37-.61.37-.62.38-.63.37-.64.38-.66.37-.66.37-.69.38-.69.37-.71.38-.73.37 16.22.37-.73.38-.74.37-.77.37-.77.38.77.37.77.38.74.37.73.37.71.38-16.2.37.71.38.69.37.69.37.66.38.66.37-16.11.38.66.37.64.37 84.02.38.5.37.5.38.49.37.48.37.47.38-16.09.37.48.37.47.38.46.37.45.38.45.37.44.37.43.38.43.37.42.38.41.37.41.37.4.38-15.9.37 16.69.38-15.88.37.39.37.39.38.39.37.38.37.38.38 16.54.37.35.38.35.37-15.78.37.35.38.35.37.34.38.34.37.34"/><use xlink:href="#g" color="#FFAB00" transform="matrix(3.75 0 0 3.75 171.2 147.09)"/><use xlink:href="#g" color="#FFAB00" transform="matrix(3.75 0 0 3.75 220.55 22.51)"/></g><path fill="none" stroke="none" stroke-linecap="round" stroke-linejoin="round" stroke-width="0" d="M28 45.01V205M371.99 45.01H28" color="#000"/></svg>