<svg xmlns="http://www.w3.org/2000/svg" xmlns:xlink="http://www.w3.org/1999/xlink" viewBox="0 0 400 250"><path fill="none" d="M0 0h400v250H0z"/><defs><path id="g" stroke="currentColor" stroke-width=".267" d="M-1 0h2M0-1v2"/><path id="h" stroke="currentColor" stroke-width=".267" d="m-1-1 2 2m0-2-2 2"/><path id="i" stroke="currentColor" stroke-width=".267" d="M-1 0h2M0-1v2m-1-2 2 2m-2 0 2-2"/><path id="d" stroke="currentColor" stroke-width=".267" d="M-1-1h2v2h-2z"/><path id="b" stroke="currentColor" stroke-width=".267" d="m0-1.33-1.33 2h2.66z"/><path id="f" stroke="currentColor" stroke-width=".267" d="M0 1.33 1.265.411.782-1.067l-1.564-.009-.483 1.487z"/><use xlink:href="#b" id="c" stroke="currentColor" transform="rotate(180)"/><use xlink:href="#d" id="e" stroke="currentColor" transform="rotate(45)"/><circle id="a" cx="0" cy="0" r="1" stroke="currentColor" stroke-width=".267"/></defs><path fill="none" stroke="#333" stroke-dasharray="0.2,0.4" stroke-linecap="round" stroke-linejoin="round" stroke-width=".2" d="M35.48 205V75.01" class="gridline" color="#000"/><g fill="none" stroke="none" stroke-linecap="round" stroke-linejoin="round" stroke-width="0" color="#000"><path d="M35.48 205v-7.5m0-122.49v7.5"/><text fill="#000" font-family="KaTeX_Main" font-size="10" text-anchor="middle" transform="translate(35.48 215.75)"><tspan> 1</tspan></text></g><path fill="none" stroke="#333" stroke-dasharray="0.2,0.4" stroke-linecap="round" stroke-linejoin="round" stroke-width=".2" d="M72.87 205V75.01" class="gridline" color="#000"/><g fill="none" stroke="none" stroke-linecap="round" stroke-linejoin="round" stroke-width="0" color="#000"><path d="M72.87 205v-7.5m0-122.49v7.5"/><text fill="#000" font-family="KaTeX_Main" font-size="10" text-anchor="middle" transform="translate(72.87 215.75)"><tspan> 2</tspan></text></g><path fill="none" stroke="#333" stroke-dasharray="0.2,0.4" stroke-linecap="round" stroke-linejoin="round" stroke-width=".2" d="M110.26 205V75.01" class="gridline" color="#000"/><g fill="none" stroke="none" stroke-linecap="round" stroke-linejoin="round" stroke-width="0" color="#000"><path d="M110.26 205v-7.5m0-122.49v7.5"/><text fill="#000" font-family="KaTeX_Main" font-size="10" text-anchor="middle" transform="translate(110.26 215.75)"><tspan> 3</tspan></text></g><path fill="none" stroke="#333" stroke-dasharray="0.2,0.4" stroke-linecap="round" stroke-linejoin="round" stroke-width=".2" d="M147.65 205V75.01" class="gridline" color="#000"/><g fill="none" stroke="none" stroke-linecap="round" stroke-linejoin="round" stroke-width="0" color="#000"><path d="M147.65 205v-7.5m0-122.49v7.5"/><text fill="#000" font-family="KaTeX_Main" font-size="10" text-anchor="middle" transform="translate(147.65 215.75)"><tspan> 4</tspan></text></g><path fill="none" stroke="#333" stroke-dasharray="0.2,0.4" stroke-linecap="round" stroke-linejoin="round" stroke-width=".2" d="M185.04 205V75.01" class="gridline" color="#000"/><g fill="none" stroke="none" stroke-linecap="round" stroke-linejoin="round" stroke-width="0" color="#000"><path d="M185.04 205v-7.5m0-122.49v7.5"/><text fill="#000" font-family="KaTeX_Main" font-size="10" text-anchor="middle" transform="translate(185.04 215.75)"><tspan> 5</tspan></text></g><path fill="none" stroke="#333" stroke-dasharray="0.2,0.4" stroke-linecap="round" stroke-linejoin="round" stroke-width=".2" d="M222.43 205V75.01" class="gridline" color="#000"/><g fill="none" stroke="none" stroke-linecap="round" stroke-linejoin="round" stroke-width="0" color="#000"><path d="M222.43 205v-7.5m0-122.49v7.5"/><text fill="#000" font-family="KaTeX_Main" font-size="10" text-anchor="middle" transform="translate(222.43 215.75)"><tspan> 6</tspan></text></g><path fill="none" stroke="#333" stroke-dasharray="0.2,0.4" stroke-linecap="round" stroke-linejoin="round" stroke-width=".2" d="M259.82 205V75.01" class="gridline" color="#000"/><g fill="none" stroke="none" stroke-linecap="round" stroke-linejoin="round" stroke-width="0" color="#000"><path d="M259.82 205v-7.5m0-122.49v7.5"/><text fill="#000" font-family="KaTeX_Main" font-size="10" text-anchor="middle" transform="translate(259.82 215.75)"><tspan> 7</tspan></text></g><path fill="none" stroke="#333" stroke-dasharray="0.2,0.4" stroke-linecap="round" stroke-linejoin="round" stroke-width=".2" d="M297.21 205V75.01" class="gridline" color="#000"/><g fill="none" stroke="none" stroke-linecap="round" stroke-linejoin="round" stroke-width="0" color="#000"><path d="M297.21 205v-7.5m0-122.49v7.5"/><text fill="#000" font-family="KaTeX_Main" font-size="10" text-anchor="middle" transform="translate(297.21 215.75)"><tspan> 8</tspan></text></g><path fill="none" stroke="#333" stroke-dasharray="0.2,0.4" stroke-linecap="round" stroke-linejoin="round" stroke-width=".2" d="M334.6 205V75.01" class="gridline" color="#000"/><g fill="none" stroke="none" stroke-linecap="round" stroke-linejoin="round" stroke-width="0" color="#000"><path d="M334.6 205v-7.5m0-122.49v7.5"/><text fill="#000" font-family="KaTeX_Main" font-size="10" text-anchor="middle" transform="translate(334.6 215.75)"><tspan> 9</tspan></text></g><path fill="none" stroke="#333" stroke-dasharray="0.2,0.4" stroke-linecap="round" stroke-linejoin="round" stroke-width=".2" d="M371.99 205V75.01" class="gridline" color="#000"/><g fill="none" stroke="none" stroke-linecap="round" stroke-linejoin="round" stroke-width="0" color="#000"><path d="M371.99 205v-7.5m0-122.49v7.5"/><text fill="#000" font-family="KaTeX_Main" font-size="10" text-anchor="middle" transform="translate(371.99 215.75)"><tspan> 10</tspan></text></g><g fill="none" stroke="none" stroke-linecap="round" stroke-linejoin="round" stroke-width="0" color="#000"><path d="M371.99 205h-7.5"/><text fill="#000" font-family="KaTeX_Main" font-size="10" transform="translate(378.99 208.25)"><tspan>0.89</tspan></text></g><g fill="none" stroke="none" stroke-linecap="round" stroke-linejoin="round" stroke-width="0" color="#000"><path d="M371.99 186.43h-7.5"/><text fill="#000" font-family="KaTeX_Main" font-size="10" transform="translate(378.99 189.68)"><tspan>0.89</tspan></text></g><g fill="none" stroke="none" stroke-linecap="round" stroke-linejoin="round" stroke-width="0" color="#000"><path d="M371.99 167.86h-7.5"/><text fill="#000" font-family="KaTeX_Main" font-size="10" transform="translate(378.99 171.11)"><tspan>0.90</tspan></text></g><g fill="none" stroke="none" stroke-linecap="round" stroke-linejoin="round" stroke-width="0" color="#000"><path d="M371.99 149.29h-7.5"/><text fill="#000" font-family="KaTeX_Main" font-size="10" transform="translate(378.99 152.54)"><tspan>0.90</tspan></text></g><g fill="none" stroke="none" stroke-linecap="round" stroke-linejoin="round" stroke-width="0" color="#000"><path d="M371.99 130.72h-7.5"/><text fill="#000" font-family="KaTeX_Main" font-size="10" transform="translate(378.99 133.97)"><tspan>0.91</tspan></text></g><g fill="none" stroke="none" stroke-linecap="round" stroke-linejoin="round" stroke-width="0" color="#000"><path d="M371.99 112.15h-7.5"/><text fill="#000" font-family="KaTeX_Main" font-size="10" transform="translate(378.99 115.4)"><tspan>0.91</tspan></text></g><g fill="none" stroke="none" stroke-linecap="round" stroke-linejoin="round" stroke-width="0" color="#000"><path d="M371.99 93.58h-7.5"/><text fill="#000" font-family="KaTeX_Main" font-size="10" transform="translate(378.99 96.83)"><tspan>0.92</tspan></text></g><g fill="none" stroke="none" stroke-linecap="round" stroke-linejoin="round" stroke-width="0" color="#000"><path d="M371.99 75.01h-7.5"/><text fill="#000" font-family="KaTeX_Main" font-size="10" transform="translate(378.99 78.26)"><tspan>0.92</tspan></text></g><path fill="none" stroke="none" stroke-linecap="round" stroke-linejoin="round" stroke-width="0" d="M28 75.01V205M371.99 75.01H28" color="#000"/><text fill="#000" stroke="none" stroke-linecap="round" stroke-linejoin="round" stroke-width="0" color="#000" font-family="KaTeX_Main" font-size="10" text-anchor="middle" transform="rotate(-90 75.755 64.255)"><tspan font-weight="bold">AveragePathLength </tspan><tspan> / log</tspan><tspan dy="3" font-size="8">2</tspan><tspan dy="-3">(Size)</tspan></text><text fill="#000" stroke="none" stroke-linecap="round" stroke-linejoin="round" stroke-width="0" color="#000" font-family="KaTeX_Main" font-size="10" text-anchor="middle" transform="translate(199.99 238.25)"><tspan>Operations × 10</tspan><tspan dy="-5" font-size="8">5</tspan></text><text fill="#000" stroke="none" stroke-linecap="round" stroke-linejoin="round" color="#000" font-family="KaTeX_Main" font-size="8" transform="translate(116 47.61)"><tspan>AVLBottomUp</tspan></text><g fill="none" stroke="currentColor" stroke-linecap="round" stroke-linejoin="round" color="#000"><path stroke="#000" d="M80.5 45.01h29.9M28 155.69l.37 1.64.38-1.33.37-.88.38-2.26.37.63.37-.27.38-.92.37-.64.38-1.11.37 1.35.37-1.04.38-.9.37-.79.37-.27.38 6.39.37-.61.38-.75.37-.21.37-.53.38-.9.37.83.38.2.37-.32.37 1.5.38-.37.37-.52.38.6.37.35.37-.67.38-.81.37-1.43.37-.7.38 4.58.37 2.25.38.74.37.85.37.36.38-.61.37-.94.38-.63.37-.76.37-1.79.38-.47.37 1.71.38 4.29.37-1.09.37-.88.38-.48.37 3.93.38 1.2.37 1.28.37.63.38-1.49.37-.24.37.42.38-.32.37-.12.38 3.07.37.67.37 1.56.38 3.31.37-1.09.38-.16.37-.48.37.76.38 2.83.37-1.14.38.98.37.57.37 1.74.38-.94.37-.9.37.81.38-1.05.37-.65.38-.46.37-.85.37-1.37.38 2.64.37-.37.38-1.44.37-.85.37-1.1.38 1.79.37-.42.38-1.48.37-1.32.37-1.09.38-1.35.37-1.17.38-1.34.37 3.77.37-1.25.38-1.52.37-.99.37-1.33.38-.35.37-.73.38-1.18.37.78.37-1.12.38-1.39.37-.94.38-.74.37-1.48.37-.96.38-1.52.37-1.78.38-1.48.37.2.37-1.33.38-1.01.37-1.47.37 3 .38-.89.37-1.19.38-.4.37-.92.37-1.39.38-.3.37-.28.38-.49.37 1.5.37-.63.38-.69.37.15.38.38.37 7.5.37-.21.38-.51.37-.08.38 1.57.37-.03.37.58.38.52.37.6.37-.73.38-.58.37.21.38-.71.37-.7.37.34.38-.46.37 4.54.38-1.08.37-.63.37-1.1.38 3.74.37-.74.38.83.37 3.14.37.74.38-.62.37 2.09.37.33.38.01.37-1.27.38-1.42.37 4.39.37.87.38-.71.37-1.27.38-2.42.37.27.37 2.46.38-1.92.37-.47.38-.94.37 11.88.37-.23.38-1.26.37-.96.38 3.14.37-.79.37-3.03.38-1.03.37 4.06.37-.71.38-.77.37.17.38-.61.37-1.89.37.69.38-.01.37-1.68.38-1.37.37-1.27.37.79.38-1.01.37-1.28.38-.72.37-1.33.37-1.47.38.29.37-.64.37-1.29.38-1.25.37-.38.38.34.37 1.36.37-.41.38-.56.37-.99.38-1.06.37-.82.37-1.21.38-.66.37-1.22.38-1.12.37-1.59.37-.51.38-.06.37-.41.38-.74.37-.71.37-.47.38-.02.37-.61.37-.53.38-1.15.37.07.38.72.37.12.37-.3.38.75.37.83.38.11.37-.73.37-.47.38-.53.37 1.92.38-.26.37.65.37.78.38.22.37-.79.37-.75.38-.24.37-.73.38-3.62.37.15.37-.52.38 4.65.37-.89.38-1.11.37 4.69.37 2.02.38.13.37-.78.38 5.16.37 1.13.37-.33.38 2.11.37 3.41.38 1.57.37-.28.37.32.38 1.08.37.37.37-.31.38-1.13.37-1.32.38-.48.37 2.32.37-1.74.38-.28.37.52.38 2.7.37-.11.37-1.87.38-.93.37-.68.38 6.03.37.21.37-.42.38-.49.37-.83.37.01.38-.46.37-.47.38.15.37-.46.37-1.18.38-1.68.37-1.17.38-1.77.37 3.84.37-1.34.38-1.7.37-.79.38-.8.37-1.35.37-1.33.38-1.54.37-1.55.38.63.37-1.41.37-1.19.38-.42.37-1.45.37-1.48.38-2.25.37-1.52.38-1.11.37 4.72.37-.77.38-.75.37-.71.38-1.06.37.07.37-.87.38-1.03.37-.48.38.76.37 2.49.37.54.38-.57.37-.18.37-.79.38-.86.37.67.38 2.19.37-.26.37 1.11.38.35.37.28.38-.41.37-.03.37-.34.38 2.03.37-.47.38.65.37 2.23.37.09.38-.84.37-.65.38-.97.37.36.37-1.42.38-.5.37-1.14.37 1.34.38 4.45.37.26.38-.05.37-.02.37 2.43.38 7.61.37 3.21.38 1.22.37 1.46.37-.21.38-.19.37.3.38-.67.37-1.19.37.33.38-.57.37-.43.37-.03.38-1.44.37-.86.38 4.3.37.42.37.88.38.38.37 3.94.38-.3.37-.47.37.09.38-.84.37-1.48.38-1.61.37-2.2.37-.38.38-1.54.37 1.79.38-1.04.37-.89.37-.15.38-1.22.37-1.11.37 4.7.38-1.52.37-1.58.38-1.84.37.11.37-1.24.38-1.73.37 2.29.38-1.33.37-.65.37-1.29.38-1.36.37-1.24.38-1.53.37 2.65.37-1.04.38-.46.37-1.29.37-1.25.38-.89.37-1.54.38 2.24.37-1.11.37-1.12.38-.4.37-1.38.38-1.09.37-1.68.37-1.26.38-.97.37 4.33.38-.05.37.94.37-.11.38-.16.37-.85.38-.48.37-.87.37.14.38-.64.37 1.57.37.02.38.48.37-.65.38-.58.37.35.37 1.42.38-.72.37.5.38.87.37-.13.37 1.18.38-.5.37-1.22.38-.31.37-.78.37-1.53.38-.4.37-.7.37 4.61.38-.63.37-1.03.38-.79.37 3.57.37-.34.38.23.37-.15.38.57.37 6.24.37 2.13.38-.22.37 3.62.38-1.19.37.46.37-.46.38-.87.37-.2.38-1.74.37-2.12.37 3.8.38-1.43.37 1.03.37 2.89.38 4.61.37 1.19.38-.22.37-.16.37.94.38-.79.37.24.38-.92.37-1 .37 1.19.38-1.1.37-2.23.38-.43.37-.48.37-.5.38.87.37.21.37-.85.38-1.24.37.92.38-.21.37-.68.37-.97.38-1.17.37-.88.38-1.33.37-1.46.37-1.27.38-1.08.37-1.45.38-1.27.37-1.45.37-1.17.38-.42.37-1.64.37-1.26.38-1.9.37.1.38-.45.37-1.51.37-1.34.38-1.66.37-2.9.38-1.07.37-1.2.37-.7.38-1.31.37.35.38.07.37.91.37-1.36.38-.52.37-1.08.38-1.27.37-.47.37-.35.38.71.37.21.37 1.25.38-.31.37 8.85.38-.52.37.4.37 2.49.38-.29.37.69.38.71.37-.36.37-.71.38-1.06.37-.43.38-1.61.37-1.65.37.17.38 5.37.37 4.31.37-.69.38-1.23.37 6.36.38 1.99.37-.81.37 3.13.38.33.37.08.38-.95.37-1.06.37-.16.38 1.49.37-1.56.38.02.37-1.16.37.58.38-1.52.37-1.03.38-.62.37 1.62.37-2.72.38-.33.37-1.41.37 17.21.38-.57.37.9.38-.19.37 1.74.37-1.1.38-.95.37 5.39.38-.23.37-.6.37-1.35.38-.71.37-.51.38-1.93.37-.81.37-1.13.38 1.28.37-.12.37-1.14.38-1.31.37-1.3.38-1.26.37-1.81.37-1.16.38-1.25.37-1.42.38-1.02.37-1.16.37-1.63.38-1.06.37-1.54.38-.63.37.24.37 1.97.38-1.51.37-.74.38-1.31.37-1.41.37-1.13.38-1.22.37-1.18.37-1.27.38-.98.37-1.25.38 5.83.37-.27.37-.57.38-.94.37-1.15.38 1.83.37-1.07.37-.56.38-.82.37 2.28.38-.14.37-.86.37.42.38 1.43.37 1.03.37-.01.38-.03.37-.65.38.02.37 1.63.37-.1.38 1.72.37.53.38 1.56.37-.44.37-.62.38.03.37-.96.38-1.5.37 3.82.37-.08.38 4.33.37-.76.38-.61.37-.8.37 2.7.38-.73.37.67.37-.37.38-.2.37-1.48.38 7.32.37-.81.37-.96.38 3.59.37.2.38.4.37-.64.37-1.44.38 4.94.37-1.27.38 1.68.37-1.74.37-1.63.38 1.35.37 1.4.37 6.43.38.95.37-1.28.38.74.37.53.37-1.04.38-1.18.37-.75.38-2.11.37-1.65.37-.29.38-1.53.37-.12.38-.75.37-1.36.37-2.1.38 4.26.37-1.44.38-2.25.37-2.31.37 4.1.38-1.24.37-2.09.37-1.08.38-2.18.37-1.62.38-2.3.37.34.37-1.1.38-1.73.37 2.17.38-.48.37 1.41.37-.75.38-1.13.37-1.15.38-.96.37-.9.37-.83.38-1.34.37 5.7.37-.89.38-.87.37-.47.38-1.29.37-.87.37-1.41.38-1.37.37 3.08.38-1.25.37-1.33.37 2.76.38-1.08.37.52.38-.93.37-1.03.37.79.38.62.37-.45.38-.14.37-.51.37-.15.38 1.27.37-.66.37 4.41.38 1.47.37-.09.38-.26.37-.62.37-.15.38-.36.37-.54.38.58.37-.51.37 4.65.38-.89.37.78.38-.45.37 1.93.37-.86.38.48.37 1.79.37.02.38-.43.37-.59.38.44.37 3.25.37 1.19.38.81.37.57h.38l.37.25.37-.75.38-1.35.37-.76.38 2.48.37-1.33.37 1.11.38.21.37 8.76h.38l.37-.23.37.36.38-.79.37-1.51.37.78.38-.47h.37l.38-.27.37-.59.37-1.28.38-1.69.37-.45.38-.7.37-1.27.37-2.29.38-1.9.37-1.41.38-2.37.37-1.94.37-2.68.38-2.45.37 4.67.37-2.06.38-1.77.37 2.18.38-1.06.37-1.33.37-1.68.38-1.25.37-1.21.38-1.18.37-1.19.37-1.48.38 3.28.37-1.1.38 6.34.37-.19.37-.4.38-.82.37-1.09.38-1.06.37-1.31.37 3.34.38-.53.37-1.03.37-.67.38 2.29.37-.31.38-.24.37-.82.37-.27.38-.76.37.41.38-.87.37-.9.37.75.38.1.37-.03.38.21.37.09.37 1.64.38-.76.37.62.37-.14.38 1.48.37-.74.38-.46.37-.74.37-1.04.38 2.79.37.72.38-.3.37 4.74.37-.62.38-.62.37-.36.38 1.8.37.63.37.85.38-.06.37-.34.38-.94.37-1.1.37-.47.38-.55.37-1.97.37-2.06.38-.99.37 15.6.38-.43.37.07.37-1.55.38-.96.37 2.04.38-.61.37.29.37 1.53.38 6.52.37 1.05.38 1.59.37.91.37.88.38.06.37 1.86.37.24.38-.02.37.04.38-.23.37-.11.37-.91.38-.68.37-.94.38-1.26.37-2.02.37.05.38-1.4.37-1.72.38-1.97.37.12.37-1.26.38-1.21.37-1.09.38-1.76.37.36.37-1.28.38-1.18.37-1.66.37-.56.38-.92.37-1.69.38-.8.37-1.61.37.58.38-1.12.37-1.39.38-1.45.37-.96.37-.87.38.82.37-1.17.38-1.82.37-1.22.37 5.29.38-.51.37-.99.37 3 .38-1.21.37-1.41.38-.77.37-1.35.37 4.49.38-1.03.37-.69.38-1.14.37 6.45"/><use xlink:href="#g" transform="matrix(3.75 0 0 3.75 342.45 143.49)"/><use xlink:href="#g" transform="matrix(3.75 0 0 3.75 95.45 45.01)"/></g><text fill="#000" stroke="none" stroke-linecap="round" stroke-linejoin="round" color="#000" font-family="KaTeX_Main" font-size="8" transform="translate(116 62.61)"><tspan>AVLTopDown</tspan></text><g fill="none" stroke="currentColor" stroke-linecap="round" stroke-linejoin="round" color="#000"><path stroke="#29C3F6" stroke-dasharray="1.0,2.0" d="M80.5 60.01h29.9M28 155.69l.37 1.64.38-1.33.37-.88.38-2.26.37.63.37-.27.38-.92.37-.64.38-1.11.37 1.35.37-1.04.38-.9.37-.79.37-.27.38 6.39.37-.61.38-.75.37-.21.37-.53.38-.9.37 1 .38.34.37-.17.37 1.69.38-.2.37-.37.38.74.37.53.37-.51.38-.63.37-1.28.37.56.38 4.76.37 2.44.38.88.37 1.05.37.47.38-.48.37-.78.38-.46.37-.55.37-1.56.38-.23.37 1.89.38 4.48.37-.93.37-.69.38-.23.37 4.16.38 1.36.37 1.45.37.84.38-1.32.37-.11.37-.12.38-.18.37.06.38 2.68.37.88.37 1.74.38 3.55.37-.9.38.11.37-.25.37.95.38 3.04.37-.96.38 1.17.37.79.37 1.95.38-1.14.37-1.11.37.64.38-1.25.37-.8.38-.58.37-.94.37-1.46.38 2.52.37-.46.38-1.56.37-.85.37-1.24.38 1.7.37-.48.38-1.59.37-1.39.37-1.18.38-1.47.37-1.27.38-1.42.37 3.72.37-1.35.38-1.61.37-1.06.37-1.39.38-.48.37-.79.38-1.24.37.71.37-1.24.38-1.44.37-.97.38-.74.37-1.55.37-1.03.38-1.58.37-1.84.38-1.51.37.16.37-1.35.38-1.11.37-1.54.37 2.97.38-.95.37-1.17.38-.44.37-1.01.37-1.45.38-.33.37-.14.38-.38.37 1.63.37-.48.38-.54.37.22.38.49.37 7.63.37-.08.38-.39.37.05.38 1.75.37.11.37.69.38.72.37.72.37-.58.38-.84.37.36.38-.59.37-.6.37.48.38-.34.37 4.7.38-.9.37-.49.37-.95.38 3.93.37-.57.38.94.37 3.31.37.97.38-.42.37 2.23.37.48.38.17.37-1.13.38-1.24.37 4.59.37 1.07.38-.55.37-.45.38-2.24.37.48.37 2.66.38-1.8.37-.29.38-.8.37 12.11.37-.04.38-1.46.37-1.16.38 2.97.37-1 .37-3.18.38-1.17.37 3.84.37-.91.38-.72.37.06.38-.8.37-.79.37.6.38-.18.37-1.79.38-1.46.37-1.41.37.71.38-1.11.37-1.41.38-.87.37-1.39.37-1.55.38.2.37-.71.37-1.38.38-1.35.37-.53.38.25.37 1.29.37-.5.38-.64.37-1.04.38-1.12.37-.9.37-1.3.38-.69.37-1.32.38-1.18.37-1.65.37-.55.38-.16.37-.44.38-.84.37-.83.37-.5.38-.08.37-.6.37-.54.38-1.24.37.18.38.81.37.27.37-.2.38.87.37.92.38.25.37-.6.37-.32.38-.42.37 2.06.38-.07.37.81.37.92.38.19.37-.68.37-.61.38-.11.37-.61.38-3.39.37.25.37-.38.38 4.78.37-.74.38-.99.37 4.83.37 2.2.38.25.37-.63.38 5.27.37 1.3.37-.26.38 2.27.37 3.51.38 1.72.37-.16.37.5.38 1.22.37.55.37-.18.38-.95.37-1.15.38-.32.37 3.14.37-1.59.38-.12.37.72.38 2.91.37.13.37-1.66.38-1.13.37-.86.38 5.88.37.03.37-.62.38-.63.37-.93.37-.1.38-.59.37-.59.38.04.37-.58.37-1.35.38-1.84.37-1.3.38-1.91.37 3.7.37-1.46.38-1.79.37-.87.38-.9.37-1.42.37-1.45.38-1.62.37-1.55.38.55.37-1.51.37-1.36.38-.5.37-1.49.37-1.6.38-2.62.37-1.63.38-1.23.37 4.62.37-.84.38-.81.37-.77.38-1.15.37-.01.37-.94.38-1.12.37-.56.38.68.37 2.41.37.48.38-.64.37-.24.37-.84.38-.94.37.57.38 2.27.37-.13.37 1.24.38.45.37.4.38-.3.37.09.37-.25.38 2.19.37-.33.38.77.37 2.37.37.19.38-.71.37-.55.38-.83.37.45.37-1.28.38-.36.37-.98.37 1.42.38 4.55.37.39.38.08.37.14.37 2.57.38 7.74.37 3.42.38 1.35.37 1.42.37-.1.38-.06.37.39.38-.52.37-1.04.37.51.38-.39.37-.25.37.11.38-1.22.37-.68.38 4.62.37.62.37 1.07.38.6.37 4.12.38-.02.37-.26.37.3.38-1.08.37-1.66.38-1.79.37-2.39.37-.56.38-1.68.37 1.6.38-1.2.37-1.05.37-.26.38-1.35.37-1.21.37 4.55.38-1.67.37-1.71.38-1.98.37-.06.37-1.36.38-1.81.37 2.13.38-1.42.37-.73.37-1.44.38-1.47.37-1.38.38-1.6.37 2.53.37-1.13.38-.56.37-1.41.37-1.35.38-.97.37-1.61.38 2.18.37-1.22.37-1.21.38-.45.37-1.47.38-1.17.37-1.78.37-1.32.38-1.09.37 4.24.38-.12.37.85.37-.58.38-.24.37-.91.38-.55.37-.93.37.21.38-.56.37 1.7.37.16.38.58.37-.55.38-.45.37.45.37 1.5.38-.61.37.62.38 1h.37l.37 1.31.38-.52.37-1.1.38-.15.37-.67.37-1.37.38-.23.37-.6.37 4.76.38-.52.37-.91.38-.65.37 3.68.37-.17.38.37h.37l.38.72.37 6.39.37 2.29.38-.09.37 3.79.38-1.05.37.65.37-.35.38-.69.37.05.38-1.58.37-2 .37 3.98.38-1.32.37 1.21.37 3.05.38 4.81.37 1.41.38-.03.37.09.37 1.14.38-.98.37.04.38-1.11.37-1.15.37 1.01.38-1.32.37-2.39.38-.71.37-.69.37-.65.38.72.37.05.37-.97.38-1.43.37.78.38-.37.37-.82.37-1.1.38-1.32.37-.99.38-1.43.37-1.54.37-1.4.38-1.19.37-1.54.38-1.42.37-1.56.37-1.24.38-.53.37-1.74.37-1.34.38-2.01.37.07.38-.53.37-1.6.37-1.41.38-1.7.37-3.04.38-1.17.37-1.29.37-.77.38-1.4.37.29.38-.01.37.87.37-1.46.38-.59.37-1.08.38-1.34.37-.55.37-.25.38.82.37.3.37 1.34.38-.23.37 8.99.38-.44.37.53.37 2.59.38-.17.37.82.38.81.37-.25.37-.68.38-.92.37-.35.38-1.44.37-1.53.37.33.38 5.49.37 4.4.37-.55.38-1.12.37 6.5.38 2.13.37-.66.37 3.27.38.47.37.22.38-.85.37-.96.37-.03.38 1.61.37-1.38.38.17.37-1.02.37.75.38-1.35.37-.88.38-.45.37 1.78.37-2.6.38-.15.37-1.26.37 17.4.38-.39.37 1.07.38.02.37 1.93.37-.89.38-1.19.37 5.21.38-.43.37-.78.37-1.54.38-.88.37-.69.38-2.1.37-.97.37-1.27.38 1.11.37-.26.37-1.3.38-1.44.37-1.39.38-1.42.37-1.87.37-1.24.38-1.35.37-1.55.38-1.16.37-1.32.37-1.76.38-1.13.37-1.62.38-.65.37.07.37 1.88.38-1.62.37-.93.38-1.44.37-1.55.37-1.17.38-1.3.37-1.25.37-1.36.38-1.08.37-1.33.38 5.76.37-.32.37-.66.38-.99.37-1.23.38 1.76.37-1.14.37-.65.38-.9.37 2.21.38-.19.37-.91.37.53.38 1.52.37 1.12.37.09.38.08.37-.55.38.16.37 1.73h.37l.38 1.79.37.64.38 1.67.37-.31.37-.49.38.15.37-.8.38-1.37.37 3.97.37.02.38 4.38.37-.59.38-.53.37-.68.37 2.82.38-.64.37.78.37-.22.38-.1.37-1.32.38 7.44.37-.75.37-.81.38 3.75.37.34.38.53.37-.5.37-1.32.38 5.1.37-1.11.38 1.82.37-1.67.37-1.5.38 1.58.37 1.55.37 6.62.38 1.15.37-1.15.38.9.37.76.37-.73.38-1.44.37-.98.38-2.37.37-1.82.37-.45.38-1.73.37-.28.38-.91.37-1.54.37-2.18.38 4.09.37-1.59.38-2.4.37-2.4.37 3.97.38-1.34.37-2.22.37-1.17.38-2.26.37-1.76.38-2.39.37.22.37-1.21.38-1.92.37 2.08.38-.57.37 1.19.37-.74.38-1.22.37-1.27.38-1.07.37-1 .37-.9.38-1.44.37 5.57.37-.99.38-.96.37-.63.38-1.37.37-.97.37-1.53.38-1.43.37 3 .38-1.33.37-1.42.37 2.67.38-1.14.37.43.38-1.01.37-1.09.37.9.38.72.37-.33.38-.07.37-.42.37-.06.38 1.36.37-.56.37 4.56.38 1.57.37.01.38-.13.37-.49.37-.05.38-.27.37-.32.38.71.37-.4.37 4.74.38-.74.37.91.38-.33.37 2.04.37-.67.38.59.37 1.92.37.22.38-.33.37-.44.38.59.37 3.4.37 1.36.38.92.37.72.38.15.37.38.37-.63.38-1.18.37-.61.38 2.61.37-1.32.37 1.28.38.35.37 8.95.38.21.37-.07.37.56.38-.61.37-1.31.37.97.38-.68.37-.26.38-.42.37-.78.37-1.44.38-1.84.37-.64.38-.85.37-1.43.37-2.51.38-2.08.37-1.57.38-2.54.37-2.08.37-2.85.38-2.61.37 4.52.37-2.17.38-1.92.37 2.06.38-1.17.37-1.49.37-1.93.38-1.43.37-1.34.38-1.33.37-1.3.37-1.55.38 3.21.37-1.2.38 6.26.37-.28.37-.38.38-.92.37-1.19.38-1.15.37-1.38.37 3.25.38-.63.37-1.14.37-.73.38 2.22.37-.4.38-.36.37-.88.37-.34.38-.85.37.3.38-.93.37-1.02.37.86.38.17.37.04.38.31.37.19.37 1.74.38-.63.37.71.37-.03.38 1.58.37-.63.38-.35.37-.61.37-.88.38 2.88.37.86.38-.12.37 4.83.37-.47.38-.52.37-.28.38 2.04.37.73.37.99.38.07.37-.24.38-.8.37-1 .37-.33.38-.4.37-1.82.37-1.98.38-.8.37 15.71.38-.3.37.19.37-1.44.38-.81.37 2.17.38-.46.37.46.37 1.71.38 6.62.37 1.2.38 1.54.37 1.09.37 1.09.38.2.37 2.01.37.48.38-.25.37-.15.38-.39.37-.31.37-1.08.38-.83.37-1.12.38-1.46.37-2.19.37-.09.38-1.11.37-1.91.38-2.06.37.04.37-1.36.38-1.39.37-1.29.38-1.88.37.24.37-1.4.38-1.31.37-1.76.37-.7.38-1.03.37-1.84.38-.8.37-1.71.37.49.38-1.21.37-1.48.38-1.51.37-1.08.37-.97.38.71.37-1.25.38-1.91.37-1.31.37 5.2.38-.58.37-1.09.37 2.91.38-1.24.37-1.48.38-.88.37-1.42.37 4.42.38-1.11.37-.78.38-1.22.37 6.39"/><use xlink:href="#h" color="#29C3F6" transform="matrix(3.75 0 0 3.75 56.04 181.28)"/><use xlink:href="#h" color="#29C3F6" transform="matrix(3.75 0 0 3.75 95.45 60.01)"/></g><text fill="#000" stroke="none" stroke-linecap="round" stroke-linejoin="round" color="#000" font-family="KaTeX_Main" font-size="8" transform="translate(241.1 47.61)"><tspan>AVLWeakBottomUp</tspan></text><g fill="none" stroke="currentColor" stroke-linecap="round" stroke-linejoin="round" color="#000"><path stroke="#3B75EA" d="M205.6 45.01h29.9M28 155.69l.37 1.64.38-1.33.37-.88.38-2.26.37.63.37-.27.38-.92.37-.64.38-1.11.37 1.35.37-1.04.38-.9.37-.79.37-.27.38 6.39.37-.61.38-.75.37-.21.37-.53.38-.9.37.45.38.29.37-.13.37.62.38-.44.37-.53.38.26.37 1.44.37-.06.38-.57.37-1.16.37-.62.38-1.48.37 1.35.38-1.55.37 1.21.37-.45.38-1.64.37 1.57.38-.69.37-1.26.37-1.76.38-2.07.37-.25.38-1.83.37-2.7.37-1.95.38 6.1.37 8.05.38-.59.37 2.17.37 5.52.38.62.37-1.53.37-1.59.38 1.31.37 1.14.38-1.74.37-2.33.37-.63.38 3.99.37-1.53.38-2.77.37 2.15.37 5.63.38-2.28.37 4.9.38-.28.37.16.37-2.54.38-1.91.37-2.02.37-.34.38.25.37-1.84.38-1.13.37-1.47.37-1.92.38-1.82.37-1.45.38-2.58.37-1.81.37-2.12.38-.92.37-1.56.38-1.58.37-1.55.37-1.3.38-1.56.37.44.38-1.4.37 2.07.37-1.79.38-1.95.37-1.51.37 13.15.38-.49.37-.86.38-1.3.37-.47.37-1.31.38 8.03.37-1.27.38-.97.37-1.74.37-1.31.38-1.77.37.19.38-1.7.37 6.98.37-1.18.38-.95.37-1.4.37 3.3.38-.5.37-.74h.38l.37-.87.37-1.06.38-.51.37 1.09.38-.85.37.19.37-.72.38-1.34.37-.47.38-1.02.37-1.18.37-1.91.38-1.91.37 5.14.38-1.36.37.71.37 3.36.38.84.37-.83.37.25.38-1.44.37-1.17.38-1.54.37-2.49.37-1.68.38.34.37-1.22.38 13.94.37-2.15.37-3.17.38 1.04.37-2.31.38 1.41.37-1.29.37 4.12.38-2.6.37 4.15.37-2.19.38-1.53.37-3.41.38 6.16.37-.36.37-1.21.38-2.59.37-1.02.38 5.02.37 8.92.37-2.69.38 2.19.37 3.31.38 3.87.37-1.79.37 5.07.38-1.97.37-1.64.38-1.32.37-1.51.37-.7.38-1.18.37-1.23.37-2.39.38-2.43.37-1.41.38-2.04.37-2.15.37-.71.38.2.37-2.55.38-2.25.37-2.05.37.11.38-1.59.37-2.01.38-1.41.37-2.01.37-2.02.38-1.37.37-1.16.37-1.83.38-1.81.37-1.52.38 2.9.37 6.31.37-.98.38-1.28.37-1.66.38-1.62.37-1.35.37-1.82.38-1.07.37-1.7.38-1.76.37-2.11.37-1.05.38 12.54.37-1.58.38-1.1.37-1.16.37-.97.38-1.45.37-1.46.37-1.83.38-.5.37-.46.38-.52.37-.44.37.66.38-.91.37.6.38-.81.37-1.63.37-1.35.38 8.54.37-.21.38 1.5.37-.86.37.18.38.18.37-1.22.37 4 .38-.65.37-.1.38-1.82.37-1.83.37-.81.38-.71.37-2.05.38-2.54.37 4.81.37-1.07.38-2.59.37.96.38 4.19.37-.31.37-2.08.38.96.37-2.91.38-1.26.37-3.36.37-.61.38 24.74.37-1.7.37-2.8.38 14.2.37-3.01.38-.25.37-2.05.37 2.06.38-2.97.37.1.38-2.35.37-3.67.37 14.94.38-1.65.37-2.01.38-.7.37-1.61.37-2.22.38.81.37-2.43.37-1.71.38-1.99.37-1.88.38-1.31.37-1.84.37-2.58.38-2.12.37-1.69.38-2.3.37 3.33.37-1.85.38-2.16.37-.54.38-1.4.37 15.68.37 2.1.38-1.28.37-1.21.38-1.74.37-1.61.37-1.35.38-.44.37 9.21.37-1.73.38-2.79.37-1.77.38-1.34.37 4.64.37-.93.38-.98.37-.82.38-1.18.37-.11.37-1.06.38-1.35.37-.6.38-1.2.37 2.35.37-.72.38-.72.37 2.74.37-.54.38-.69.37-.63.38-.78.37-1.74.37 1.55.38.1.37-1.09.38-.04.37-1.16.37 3.51.38-.5.37-1.91.38 16.01.37.76.37.48.38-1.11.37-1.04h.38l.37-.51.37-1.73.38-1.44.37 7.61.37-.26.38-.83.37-1.3.38-1.22.37 3.05.37-.5.38 3.62.37 1.05.38 1.22.37-1.57.37-1.72.38-2.62.37-1.99.38-2.11.37 4.25.37-2.63.38-.18.37-1.85.37-1.57.38.48.37 5.96.38-2.89.37 11.87.37-1.47.38.49.37 3.54.38-2.34.37 11.7.37-1.65.38-1.13.37-1.68.38-1.63.37-2.24.37-.36.38-1.49.37-1.48.38-1.58.37-1.4.37-.63.38-1.61.37-1.56.37-1.82.38-2.33.37-2.41.38-2.62.37-.67.37-2.05.38-2.45.37 1.66.38-1.99.37-1.29.37-1.92.38-1.99.37-1.8.38-2.13.37 1.17.37-1.65.38-1.09.37-1.84.37-1.83.38-1.4.37-1.98.38 1.73.37-1.59.37-1.63.38-.83.37-1.88.38-1.61.37-2.17.37-1.65.38-1.39.37 3.93.38 3.27.37-1.05.37-.93.38-1.74.37-1.77.38-1.3.37-1.59.37-.07.38-1.56.37-1.49.37-.74.38-.57.37-1.9.38-1.83.37 6.18.37-.76.38 11.76.37 1.73.38 1.05.37.01.37-1.21.38 10.52.37-.69.38-.45.37-1.35.37-1.68.38 4.51.37-.53.37-1.4.38.66.37 6.66.38-.81.37-1.78.37 2.66.38-1.27.37 1.06.38-.82.37 5.33.37-1.41.38.77.37-.27.38-2.21.37-2.29.37.9.38-1.9.37-2.88.38 18.3.37-1.58.37-2.72.38 11.44.37 2.16.37-.88.38.65.37-3.34.38-3.26.37-2.53.37-1.97.38-2.81.37-1.74.38-2.78.37-2.74.37-.51.38-2.76.37 16.37.38-2.28.37-2.2.37-2.14.38-.66.37-.85.37-1.65.38-1.98.37.23.38-.94.37-1.37.37-1.67.38-1.73.37-1.39.38-1.92.37-2.02.37-1.77.38-1.58.37-1.91.38-1.78.37-1.85.37 10.44.38-1.05.37-.53.37-1.36.38-2.21.37-.06.38-.6.37-1.62.37-1.53.38-1.74.37-3.04.38-1.11.37-1.31.37-.6.38-1.45.37.19.38-.1.37-1.2.37-1.47.38-.58.37-1.17.38-1.35.37-1.36.37-1.36.38-1.31.37 17.69.37.56.38-1 .37-1.01.38 5.97.37-.02.37 1.63.38 1.98.37.45.38.14.37-.59.37-1.15.38-.93.37-.46.38-1.75.37-1.97.37-.84.38-1.32.37-1.21.37 2.15.38-2.27.37-2.33.38-2.18.37.03.37-.11.38.29.37-1.77.38-3.01.37-3.13.37-1.86.38-3.39.37 4.71.38 10.82.37-.31.37-1.54.38-3.14.37-3.4.38 19.73.37.11.37-3.25.38 1.85.37-.49.37-.81.38 17.8.37-2.57.38-2.09.37 7.05.37-2.08.38-1.3.37 18.21.38-.75.37-1.07.37-1.83.38-1.2.37-.97.38-2.36.37-1.19.37-2.12.38.95.37-.29.37-1.32.38-1.49.37-1.39.38-1.44.37-2.03.37-1.33.38-1.32.37-1.59.38.73.37 17.09.37-1.47.38-.89.37-1.32.38-.43.37-1.41.37-.73.38-1.77.37-1.06.38-1.55.37-1.66.37-1.35.38-1.45.37-1.32.37-1.5.38-1.23.37-1.42.38 5.59.37-.47.37-.77.38-1.1.37-1.29.38-1.21.37-1.73.37-1.19.38-.29.37 1.63.38-.73.37-1.48.37.32.38.05.37-.32.37-.55.38-1.11.37 6.63.38-.45.37-1.38.37 1.32.38-.07.37.26.38-.97.37-1.69.37 1.28.38-1.27.37-1.16.38-2.32.37-1.42.37.35.38 20.35.37-1.94.38-1.84.37 6.78.37-.87.38 1.35.37-1.21.37.78.38 3.24.37-1.78.38-1.47.37 3.42.37 4.33.38-1.03.37-1.47.38-.74.37-.51.37-2.8.38-.46.37-1.17.38-1.93.37-3.45.37.64.38-1.92.37-2.33.37-2.99.38-.31.37-5.39.38-1.74.37 7.64.37 18.7.38-1.23.37-.84.38-2.03.37-1.33.37-1.04.38-2.14.37-.74.38-1.28.37 18.84.37-2.18.38-.1.37.41.38-2.15.37-2.13.37-1.57.38-.36.37-2.12.37-.97.38-2.04.37-.36.38-1.95.37-.83.37-1.11.38-1.71.37-1.43.38-1.03.37-1.77.37-1.83.38-2.19.37-1.04.38-1.72.37-1.6.37-1.51.38-1.95.37.78.37-1.53.38-1.47.37-1.19.38-1.82.37 2.45.37-1.59.38-1.4.37-.76.38-1.89.37-1.9.37 1.32.38-1.58.37-.69.38-1.44.37-1.48.37-.23.38-.01.37-1.17.38-1.23.37 7.07.37-.91.38-.95.37 1.56.37-.97.38 4.6.37-.35.38-1.3.37.38.37-1.1.38-.73.37-2.07.38-2.11.37-.13.37-1.05.38-2.19.37-2.02.38 17.4.37-.34.37.1.38 2.63.37.22.37 8.9.38-1.1.37-.75.38.87.37-.11.37-2.13.38 2.53.37-.77.38-.44.37 16.68.37-.94.38 2.01.37-1.32.38-.07.37 2.28.37 1.55.38-.42.37-1.82.38-2.92.37-3.57.37-2.75.38-4.41.37 9.43.37-4.13.38-2.11.37-1.62.38 12.02.37 1.75.37-1.52.38-2.11.37-1.67.38 3.19.37-1.59.37-2.6.38-2.18.37.45.38-2.25.37 1.84.37-1.91.38-1.61.37-2.25.37-2.2.38-1.87.37-1.23.38-1.47.37-1.53.37-2.06.38-1.61.37-1.65.38-2.01.37-1.87.37-2.12.38-2.31.37-2.2.38-1.9.37-1.71.37-.42.38 2.89.37-1.69.38-1.63.37-1.84.37.68.38-1.04.37-1.57.37-1.17.38-.33.37 3.11.38-1.57.37-1.56.37-.89.38 10.02.37-.36.38-1.71.37-1.61.37 3.99.38-.46.37-1.06.38-1.15.37 9.78.37-.71.38 1.46.37-.75.37 1.93.38-.23.37-1.11.38-.79.37-1.74.37-.1.38-1.71.37-1.76.38 1.15.37-.39.37-1.32.38-1.95.37 3.87.38-.81.37-2.1.37 2.59.38 2.13.37 3.59.38-1.57.37-1.62.37-2.54.38.48.37-2.61.37-2.24.38 13.59.37-.33.38.21.37 6.52.37-2.87.38-1.88.37-3.31.38 8.23.37 15.72.37 2.37.38-1.31.37-3.09.38-2.24.37-2.8.37 4.74.38 8.34.37-2.95.37-.19.38-1.64.37-1.59.38 2.1.37-1.48.37-1.65.38-1.22.37-1.23.38-1.51.37-2.12.37 16.2.38-2.02.37-2.02.38-1.7.37.77.37-1.55.38-2.07.37.73.38-1.46.37-1.72.37-1.6.38-1.49.37-1.88.37-1.74.38-1.1.37-1.93.38-1.85.37-1.77.37-.12.38-1.14.37-1.35.38-1.36.37-1.11.37-.27.38-.35.37-1.39.38-1.53.37-1.26.37 5.22.38-.52.37-.99.37-1.04.38-1.67.37 3.43.38-1.04.37 3.51.37-.85.38-1.2.37-.85.38-1.37.37-1.05"/><use xlink:href="#d" color="#3B75EA" transform="matrix(3.75 0 0 3.75 113.62 108.92)"/><use xlink:href="#d" color="#3B75EA" transform="matrix(3.75 0 0 3.75 220.55 45.01)"/></g><text fill="#000" stroke="none" stroke-linecap="round" stroke-linejoin="round" color="#000" font-family="KaTeX_Main" font-size="8" transform="translate(241.1 62.61)"><tspan>AVLWeakTopDown</tspan></text><g fill="none" stroke="currentColor" stroke-linecap="round" stroke-linejoin="round" color="#000"><path stroke="#00C853" stroke-dasharray="4.5,2.0,0.5,2.0,0.5,2.0" d="M205.6 60.01h29.9M28 155.58l.37-.62.38-2.06.37-1.86.38-1.52.37-2.86.37-.32.38-.26.37-8.39.38-1.09.37-.82.37 10.35.38-.93.37-1.35.37-1.05.38-1.16.37.94.38-1.27.37 1.22.37-.61.38-1.27.37 5.08.38 1.55.37-32.49.37 9.31.38 2.17.37 1.16.38 2.02.37 2.18.37 1.93.38 1.6.37-1.95.37 1.19.38 3.58.37.76.38 2.2.37 2.11.37 2.1.38-5.77.37 1.09.38 1.53.37.94.37-1.19.38 2.18.37 1.04.38 4.99.37 1.41.37 1.27.38 2.39.37.48.38 1.38.37 2.68.37 1.59.38-2.35.37 1.11.37 1.21.38 2.32.37 2.47.38 2.83.37 1.93.37 1.14.38.11.37-11.08.38 1.55.37 2.09.37 2.79.38 4.49.37-1.02.38 2.91.37-.91.37 4.12.38-3.32.37.33.37.53.38-2.16.37.26.38.2.37 1.75.37-1.5.38-1.44.37-.93.38 2.42.37-1.94.37 5.85.38-.69.37-1.67.38-.56.37-.16.37-.52.38-.54.37-2.18.38-3.65.37-1.18.37-1.97.38-2.92.37-.1.37-5.42.38-.91.37-1.61.38-.8.37-1.06.37 6.05.38-.4.37-.99.38-1.44.37-.05.37-.73.38-7.56.37-.31.38-.01.37-.32.37-.8.38-1.06.37-1.34.37 2.68.38-1.52.37.45.38-.77.37-1.17.37-1.88.38-.82.37-4.06.38 1.36.37 2.14.37.69.38-23.65.37 2.21.38 2.5.37 8.4.37.26.38.52.37 2.31.38 3.12.37 1.36.37 1.99.38 1.23.37-1.88.37.82.38 1.09.37.88.38-2.09.37.16.37 1.48.38.26.37 5.34.38.69.37 1.94.37.99.38-1.98.37.59.38 1.83.37 4.52.37 1.6.38-.04.37 1.41.37.53.38 2.38.37-1.86.38.61.37 2.06.37-1.21.38.24.37 1.27.38-1.6.37.22.37 3.6.38.4.37 3.06.38 1.71.37.24.37 3.92.38-4.46.37.33.38-3.56.37 1.54.37-5.54.38 1.28.37-7.41.37-.21.38-.46.37.43.38 6.45.37-1.32.37-.74.38.76.37-.78.38-1.94.37-.4.37-1.02.38-.25.37-2.71.38-1.42.37-1.56.37-2.83.38-1.17.37-2.05.37-.06.38-.76.37 11.72.38-.46.37-.1.37-1.37.38-.12.37-2.17.38 6.35.37-.08.37-7.54.38 1.68.37-.17.38-.21.37-1.25.37 1.13.38-.85.37 1.23.38-1.22.37.42.37-.34.38-1.31.37-1.85.37-.23.38-1.68.37-7.98.38-2.01.37-6.46.37 3.81.38 1.71.37-2.24.38 1.69.37 1.66.37 3.88.38.47.37 2.25.38.8.37 2.05.37 3.17.38 1.57.37 1.32.37 1.02.38.33.37.55.38.17.37-23.67.37 1.38.38 5.69.37.22.38 5.09.37.68.37 4.03.38 1.53.37.12.38 2.48.37 2.73.37 1.8.38.84.37.24.38 2.45.37 2.73.37.4.38 1.73.37.93.37.71.38-3.75.37-.6.38 2.24.37 3.97.37-2.77.38-.76.37 2.29.38 4.29.37 1.74.37 1.71.38.49.37-2.54.38-1.53.37-1.85.37.74.38.26.37-.14.37-1.99.38-5.76.37.03.38-1.1.37 2.27.37-.72.38-2.14.37-1.42.38-2.47.37.09.37 1.94.38-3.15.37-.56.38-1.41.37-1.8.37-1.24.38-1.63.37.05.38 10.73.37.06.37 1.18.38-.49.37-.75.37-1.1.38.06.37 1.06.38-.97.37-6.12.37-.09.38.78.37.29.38-.97.37-.32.37 4.78.38-.12.37-1.4.38-.99.37-.16.37.13.38-1.38.37-1.58.37.6.38-1.14.37-28.78.38-7.91.37 2.95.37-2.92.38 4.48.37 2.28.38 9.94.37 2.4.37.81.38-1 .37 1.73.38-9.66.37 2.83.37 1.82.38 1.03.37 1.23.38 3.53.37 1.16.37.76.38 1.78.37-3.02.37 1.81.38 5.87.37 1.81.38.79.37 2.38.37 4.25.38-1.24.37 2.33.38 2.44.37 1.87.37 1.12.38.32.37 1.76.38.41.37.14.37 2.58.38 1.09.37-1.24.37-.52.38 4.01.37.52.38 4.23.37-8.1.37 4.06.38 1.29.37 5.93.38 1.07.37-1.29.37 2.13.38-2.24.37-7.82.38 6.04.37.23.37-.87.38-2 .37-3.54.38.43.37-.31.37-.79.38-3.91.37 1.14.37-1.26.38-1.76.37-1.74.38-1.26.37.04.37-2.87.38.46.37 3.55.38-1.45.37-1.78.37-1.61.38-4.01.37 2.23.38-1.19.37 8.52.37-.25.38-.66.37.73.37-2.41.38.71.37.37.38-6.76.37.76.37.81.38-.33.37-1.39.38-.36.37-1.54.37-1.06.38 1.83.37-.65.38-1.28.37-.85.37-1.87.38 1.13.37-1.78.38-1.35.37-.48.37 4.42.38 1.14.37 2.99.37 2.33.38-7.99.37 1.29.38 1.27.37.83.37 2.65.38 2.19.37 2.28.38 1.47.37 1.35.37-24.13.38.89.37 1.41.38 2.49.37.3.37-.14.38 1.04.37 1.01.37 5.53.38-1.38.37.73.38-.78.37 4.19.37 1.09.38 2.48.37 2.07.38 1.07.37 1.49.37.15.38.48.37.63.38-.59.37-6.12.37 1.99.38 1.79.37 1.44.38.72.37.51.37.63.38 1.5.37 2.39.37 3.78.38 6.63.37 1.6.38.15.37.96.37 1.02.38-3.15.37 1.53.38-2.15.37-.07.37-.11.38-2.38.37-.07.38-.24.37-4.3.37-.54.38-.5.37.62.37-.97.38.62.37-.69.38-1.1.37-3.71.37 1.47.38-1.68.37-1.84.38-1.23.37.03.37-12.57.38 2.27.37-1.14.38.41.37.03.37-.73.38-1.68.37.16.37-1.77.38 2.04.37 7.3.38-4.08.37.54.37-.12.38 1.31.37-.38.38.14.37-.19.37-.13.38-.74.37-1.4.38-1.43.37 3.07.37-1.52.38-2.2.37 2.28.38-1.21.37-2.44.37-23.39.38 12.46.37-.03.37 1.97.38 1.34.37 1.46.38 1.92.37 1.52.37 3.44.38-3.02.37 2.75.38 2.05.37-4.12.37 1.5.38.72.37 1.49.38.46.37 1.16.37 1.78.38-19.63.37 5.91.37.02.38.48.37 1.67.38 2.39.37.89.37 1.79.38 3.49.37-.31.38-.39.37.97.37.94.38 1.89.37 3.8.38 2.3.37.31.37-1.69.38 1.98.37.33.38-7.01.37 5.2.37 2.58.38 3.21.37.76.37 7.34.38 2.07.37 2.17.38-.05.37 3.05.37 1.43.38-1.34.37-3.41.38 2.21.37-1.05.37-4.44.38-9.79.37-.24.38 3.46.37.31.37-1.18.38 1.9.37-2.7.37-1.67.38 1.15.37-1.05.38-3.76.37-.69.37.1.38-1.75.37-2.02.38-1.29.37-5.92.37-1.54.38-5.81.37-.99.38 2.69.37-.14.37-1.85.38 6.84.37-1.61.38-.27.37-.29.37-5.21.38.02.37-.54.37 1.4.38-.66.37 1.12.38 1.14.37-.98.37-1.16.38-1.09.37 13.05.38-.48.37-.84.37-2.17.38-.55.37-1.55.38-1.44.37 2.6.37-9.94.38 2.13.37-1.27.37 1.57.38 2.08.37-5.14.38 2.1.37 3.44.37 1.37.38 1.8.37 2.1.38 2.25.37.31.37.92.38-20.21.37.19.38-.48.37 1.24.37-.77.38 7.24.37 1.03.38 1.28.37 2.99.37 4.1h.38l.37 2.73.37-.31.38 2.89.37 1.37.38.84.37 2.1.37 1.21.38 1.69.37 2.47.38.77.37 1.14.37-7.88.38-3.11.37 1.71.38 4.97.37.13.37.16.38 3.96.37-.28.37 1.57.38 3.62.37 2.71.38 3.56.37 1.47.37.96.38-4.81.37 1.47.38-.22.37 1.08.37.24.38-.24.37 2.03.38.45.37.56.37-.66.38-2.21.37-7.46.38-1.23.37.54.37-.02.38-1.75.37-.76.37.63.38-1.59.37 1.56.38-4.59.37-.31.37-1.57.38.37.37.33.38-1.17.37-1.82.37-1.98.38-.84.37-1.38.38-2.72.37-8.95.37.07.38-.39.37-1.18.37-1.23.38-.39.37-.68.38 4.71.37 1.05.37-.98.38-1.23.37-1.24.38 9.81.37-.75.37.5.38-.69.37-1.74.38-.25.37-.33.37-26.37.38 5.19.37-5.72.38 1.12.37.6.37 1.67.38 10.75.37 2.51.37 2.21.38 2.15.37-1.82.38 1.26.37.82.37 1.37.38-.7.37.38.38 2.85.37 1.24.37 6.02.38-22.6.37 1.58.38 1.43.37 4.51.37 1.19.38 2.18.37 2.62.37 2.29.38.54.37 1.01.38 1.92.37 1.52.37-2.1.38 2.44.37.37.38 4.8.37.94.37 1.24.38.6.37 1.3.38 3.77.37 2.62.37 2.08.38 1.99.37 7.4.38.52.37-.26.37 2.42.38-.93.37-5.58.37 2.9.38 3.23.37-1 .38 1.15.37-1.79.37-.24.38 2.47.37-.93.38-1.61.37-2.42.37 4.94.38-.58.37-2.54.38-1.82.37.13.37-3.47.38 1.94.37-.81.37-2.03.38-6.22.37-5.26.38.8.37-.1.37-.91.38.96.37-2.55.38-.59.37-.23.37-1.11.38 2.11.37-.7.38-4.28.37.55.37 1.63.38-.27.37-1.18.38-.63.37 1.46.37.21.38-.6.37-.68.37-1.18.38-1.08.37-2.1.38 4.26.37-1.95.37-1.36.38-3.09.37-1.07.38-.13.37-1.33.37-15.03.38 11.03.37 5.04.38 1 .37-.8.37 2.48.38 3.43.37 3.25.37 1.21.38.95.37.52.38-2.58.37.39.37.55.38-.22.37 3.36.38-29.89.37 5.73.37 1.02.38.76.37 1.68.38 5.74.37 1.09.37 2.38.38 1.71.37 1.69.38 1.27.37.71.37-2.22.38 1.64.37.43.37.78.38 1.66.37 1.33.38.48.37-.03.37-.61.38.13.37-5.41.38.95.37 2.34.37 3.72.38 7.77.37.42.38-1.87.37 1.67.37-2.25.38 5.73.37 3.23.37 1.18.38 2.37.37.01.38-.94.37-2.48.37.49.38 1.17.37.15.38-.53.37-8.47.37.08.38-1.73.37 1.04.38-.74.37-2.3.37-.18.38-.04.37-1.26.38-1.77.37-6.82.37 5.67.38-.89.37 5.61.37 1.84.38-.29.37-1.43.38-.76.37.42.37-1.93.38-1.19.37-5.46.38 1.41.37-.39.37 1.2.38-1.52.37-.97.38 2.68.37-.71.37-1.46.38 1.5.37-.49.37-1.06.38-1.08.37-2.2.38-1.62.37.2.37-1.91.38-2.34.37 3.75.38-.74.37-.8"/><use xlink:href="#i" color="#00C853" transform="matrix(3.75 0 0 3.75 171.2 161.37)"/><use xlink:href="#i" color="#00C853" transform="matrix(3.75 0 0 3.75 220.55 60.01)"/></g><path fill="none" stroke="none" stroke-linecap="round" stroke-linejoin="round" stroke-width="0" d="M28 75.01V205M371.99 75.01H28" color="#000"/><text fill="#000" stroke="none" stroke-linecap="round" stroke-linejoin="round" stroke-width="0" color="#000" font-family="KaTeX_Main" font-size="10" text-anchor="middle" transform="translate(199.99 18.26)"><tspan font-weight="bold">InsertDeleteCycles</tspan></text></svg>