<svg xmlns="http://www.w3.org/2000/svg" xmlns:xlink="http://www.w3.org/1999/xlink" viewBox="0 0 400 250"><path fill="none" d="M0 0h400v250H0z"/><defs><path id="c" stroke="currentColor" stroke-width=".267" d="M-1 0h2M0-1v2"/><path id="d" stroke="currentColor" stroke-width=".267" d="m-1-1 2 2m0-2-2 2"/><path id="e" stroke="currentColor" stroke-width=".267" d="M-1 0h2M0-1v2m-1-2 2 2m-2 0 2-2"/><path id="b" stroke="currentColor" stroke-width=".267" d="M-1-1h2v2h-2z"/><path id="a" stroke="currentColor" stroke-width=".267" d="m0-1.33-1.33 2h2.66z"/></defs><path fill="none" stroke="#333" stroke-linecap="round" stroke-linejoin="round" stroke-width=".1" d="M46.1 205V45.01" class="gridline" color="#000"/><g fill="none" stroke-linecap="round" stroke-linejoin="round" stroke-width="0" color="#000"><path d="M46.1 205v-7.5m0-152.49v7.5"/><text fill="#000" font-family="KaTeX_Main" font-size="8" text-anchor="middle" transform="translate(46.1 215.1)"><tspan> 1</tspan></text></g><path fill="none" stroke="#333" stroke-linecap="round" stroke-linejoin="round" stroke-width=".1" d="M82.31 205V45.01" class="gridline" color="#000"/><g fill="none" stroke-linecap="round" stroke-linejoin="round" stroke-width="0" color="#000"><path d="M82.31 205v-7.5m0-152.49v7.5"/><text fill="#000" font-family="KaTeX_Main" font-size="8" text-anchor="middle" transform="translate(82.31 215.1)"><tspan> 2</tspan></text></g><path fill="none" stroke="#333" stroke-linecap="round" stroke-linejoin="round" stroke-width=".1" d="M118.52 205V45.01" class="gridline" color="#000"/><g fill="none" stroke-linecap="round" stroke-linejoin="round" stroke-width="0" color="#000"><path d="M118.52 205v-7.5m0-152.49v7.5"/><text fill="#000" font-family="KaTeX_Main" font-size="8" text-anchor="middle" transform="translate(118.52 215.1)"><tspan> 3</tspan></text></g><path fill="none" stroke="#333" stroke-linecap="round" stroke-linejoin="round" stroke-width=".1" d="M154.73 205V45.01" class="gridline" color="#000"/><g fill="none" stroke-linecap="round" stroke-linejoin="round" stroke-width="0" color="#000"><path d="M154.73 205v-7.5m0-152.49v7.5"/><text fill="#000" font-family="KaTeX_Main" font-size="8" text-anchor="middle" transform="translate(154.73 215.1)"><tspan> 4</tspan></text></g><path fill="none" stroke="#333" stroke-linecap="round" stroke-linejoin="round" stroke-width=".1" d="M190.94 205V45.01" class="gridline" color="#000"/><g fill="none" stroke-linecap="round" stroke-linejoin="round" stroke-width="0" color="#000"><path d="M190.94 205v-7.5m0-152.49v7.5"/><text fill="#000" font-family="KaTeX_Main" font-size="8" text-anchor="middle" transform="translate(190.94 215.1)"><tspan> 5</tspan></text></g><path fill="none" stroke="#333" stroke-linecap="round" stroke-linejoin="round" stroke-width=".1" d="M227.15 205V45.01" class="gridline" color="#000"/><g fill="none" stroke-linecap="round" stroke-linejoin="round" stroke-width="0" color="#000"><path d="M227.15 205v-7.5m0-152.49v7.5"/><text fill="#000" font-family="KaTeX_Main" font-size="8" text-anchor="middle" transform="translate(227.15 215.1)"><tspan> 6</tspan></text></g><path fill="none" stroke="#333" stroke-linecap="round" stroke-linejoin="round" stroke-width=".1" d="M263.36 205V45.01" class="gridline" color="#000"/><g fill="none" stroke-linecap="round" stroke-linejoin="round" stroke-width="0" color="#000"><path d="M263.36 205v-7.5m0-152.49v7.5"/><text fill="#000" font-family="KaTeX_Main" font-size="8" text-anchor="middle" transform="translate(263.36 215.1)"><tspan> 7</tspan></text></g><path fill="none" stroke="#333" stroke-linecap="round" stroke-linejoin="round" stroke-width=".1" d="M299.57 205V45.01" class="gridline" color="#000"/><g fill="none" stroke-linecap="round" stroke-linejoin="round" stroke-width="0" color="#000"><path d="M299.57 205v-7.5m0-152.49v7.5"/><text fill="#000" font-family="KaTeX_Main" font-size="8" text-anchor="middle" transform="translate(299.57 215.1)"><tspan> 8</tspan></text></g><path fill="none" stroke="#333" stroke-linecap="round" stroke-linejoin="round" stroke-width=".1" d="M335.78 205V45.01" class="gridline" color="#000"/><g fill="none" stroke-linecap="round" stroke-linejoin="round" stroke-width="0" color="#000"><path d="M335.78 205v-7.5m0-152.49v7.5"/><text fill="#000" font-family="KaTeX_Main" font-size="8" text-anchor="middle" transform="translate(335.78 215.1)"><tspan> 9</tspan></text></g><path fill="none" stroke="#333" stroke-linecap="round" stroke-linejoin="round" stroke-width=".1" d="M371.99 205V45.01" class="gridline" color="#000"/><g fill="none" stroke-linecap="round" stroke-linejoin="round" stroke-width="0" color="#000"><path d="M371.99 205v-7.5m0-152.49v7.5"/><text fill="#000" font-family="KaTeX_Main" font-size="8" text-anchor="middle" transform="translate(371.99 215.1)"><tspan> 10</tspan></text></g><g fill="none" stroke-linecap="round" stroke-linejoin="round" stroke-width="0" color="#000"><path d="M371.99 205h-7.5"/><text fill="#000" font-family="KaTeX_Main" font-size="8" transform="translate(378.99 207.6)"><tspan>0.30</tspan></text></g><g fill="none" stroke-linecap="round" stroke-linejoin="round" stroke-width="0" color="#000"><path d="M371.99 178.33h-7.5"/><text fill="#000" font-family="KaTeX_Main" font-size="8" transform="translate(378.99 180.93)"><tspan>0.40</tspan></text></g><g fill="none" stroke-linecap="round" stroke-linejoin="round" stroke-width="0" color="#000"><path d="M371.99 151.67h-7.5"/><text fill="#000" font-family="KaTeX_Main" font-size="8" transform="translate(378.99 154.27)"><tspan>0.50</tspan></text></g><g fill="none" stroke-linecap="round" stroke-linejoin="round" stroke-width="0" color="#000"><path d="M371.99 125.01h-7.5"/><text fill="#000" font-family="KaTeX_Main" font-size="8" transform="translate(378.99 127.61)"><tspan>0.60</tspan></text></g><g fill="none" stroke-linecap="round" stroke-linejoin="round" stroke-width="0" color="#000"><path d="M371.99 98.34h-7.5"/><text fill="#000" font-family="KaTeX_Main" font-size="8" transform="translate(378.99 100.94)"><tspan>0.70</tspan></text></g><g fill="none" stroke-linecap="round" stroke-linejoin="round" stroke-width="0" color="#000"><path d="M371.99 71.68h-7.5"/><text fill="#000" font-family="KaTeX_Main" font-size="8" transform="translate(378.99 74.28)"><tspan>0.80</tspan></text></g><g fill="none" stroke-linecap="round" stroke-linejoin="round" stroke-width="0" color="#000"><path d="M371.99 45.01h-7.5"/><text fill="#000" font-family="KaTeX_Main" font-size="8" transform="translate(378.99 47.61)"><tspan>0.90</tspan></text></g><path fill="none" d="M28 45.01V205M371.99 45.01H28" color="#000"/><text stroke-linecap="round" stroke-linejoin="round" stroke-width="0" color="#000" font-family="KaTeX_Main" font-size="10" text-anchor="middle" transform="rotate(-90 68.255 56.755)"><tspan font-weight="bold">Rotations</tspan><tspan> / Operation</tspan></text><text stroke-linecap="round" stroke-linejoin="round" stroke-width="0" color="#000" font-family="KaTeX_Main" font-size="10" text-anchor="middle" transform="translate(199.99 238.25)"><tspan>Operations × 10</tspan><tspan dy="-5" font-size="8">5</tspan></text><text stroke-linecap="round" stroke-linejoin="round" color="#000" font-family="KaTeX_Main" font-size="8" transform="translate(116 10.11)"><tspan>AVLBottomUp</tspan></text><g fill="none" stroke="currentColor" stroke-linecap="round" stroke-linejoin="round" color="#000"><path stroke="#000" d="M80.5 7.51h29.9M28 80.85h.36l.36-4.64.37 3.14.36-1.22.36-1.02.36 3.42.36-2.99.37 1.39.36-1.66.36.86.36 1.49.37-.53.36.21.36-3.09.36 6.13.36-3.68.37-.53.36.53.36-5.49.36 8.1.36-7.2.37 4.59.36-1.97.36-2.19.36 3.95.36-1.76.37-.16.36 1.86.36.7.36-2.67.36 3.09.37-2.98.36-.7.36-.53.36 1.76.37 4.64.36-3.41.36-.32.36-1.02.36-4.58.37 5.6.36-.96.36-3.26.36 8.38.36-10.56.37 8 .36-5.18.36 3.04.36-.8.36 1.92.37 86.93.36.11.36-1.97.36 6.02.37-1.6.36-3.68.36-1.81.36 2.51.36 2.61.37-4.05.36 6.29.36.05.36-5.54.36 4.05.37-2.13.36-2.4.36-.06.36 1.44.36-4.9.37 5.12.36.74.36-.42.36-.22.37.16h.36l.36.75.36-3.36.36 6.13.37-2.34.36.26.36-4.26.36 3.36.36-3.1.37 3.52.36-2.18.36 3.04.36 1.12.36-1.28.37-1.39.36-4.32.36 5.28.36-.16.36 2.35.37-6.67.36 3.57.36.8.36-.85.37-1.81.36 1.7.36.11.36-81.97.36-5.71.37 3.58.36-7.84.36 3.73.36-.43.36-1.6.37 1.66.36.58.36.48.36 3.1.36-2.56.37-8 .36 8.96.36.96.36-3.42.37 1.82.36-2.88.36-7.73.36 8.31.36 2.4.37-3.09.36-2.88.36 9.44.36-6.51.36 2.99.37 1.17.36-7.41.36 4.37.36 3.63.36-7.95.37 2.83.36 2.13.36-1.06.36-1.23.36 2.51.37-.06.36 1.39.36-1.01.36-2.24.37.42.36-1.17.36 3.79.36-3.47.36 2.56.37.32.36-4.59.36 3.47.36 6.03.36-4.86.37 89.23.36-5.02.36.11.36-.21.36 4.85.37-2.08.36-.91.36-2.66.36 6.34.37-3.46.36 1.33.36-5.33.36.69.36.16.37 2.35.36 3.04.36-.7.36-.9.36-3.42.37 1.82.36 1.97.36-.69.36-1.02.36-1.01.37 4.96.36-5.81.36 5.01.36-.21.36-.54.37-4.37.36 3.95.36-1.98.36.59.37-2.83.36 5.71.36-3.52.36 3.79.36-2.99.37 1.39.36.64.36.1.36-.8.36-3.84.37 2.56.36 4.22.36-2.78.36-2.98.36 4 .37-1.82.36.27.36-84.53.36-2.35.37-2.88.36 5.71.36-1.23.36-.16.36-4.16.37 3.1.36 5.54.36-3.36.36-8.42.36 6.66.37.96.36 1.82.36-2.72.36-1.02.36.22.37.32.36-2.67.36 1.71.36 2.66.37-2.72.36-3.36.36 4.16.36-3.09.36 7.25.37-8.64.36 7.26.36-4.43.36.16.36-2.67.37-.32.36.48.36.11.36 3.47.36-3.42.37-3.84.36 4.75.36.11.36 2.56.36 3.89.37-5.6.36-2.45.36-.22.36 3.36.37.38.36-2.03.36 4.21.36 1.39.36-3.31.37 90.99.36-6.62.36 3.36.36-1.01.36-.27.37-2.45.36 2.03.36-1.76.36-.43.36 3.36.37-1.65.36 3.68.36-2.24.36-1.92.37 3.73.36-.53.36-3.1.36 2.24.36-2.98.37 4.64.36-3.52.36 3.84.36-2.51.36 1.55.37-3.31.36-1.07.36-.85.36 3.52.36 2.99.37-5.6.36 4.26.36.64.36-2.88h.36l.37.27.36 2.93.36-5.38.36 3.46.37-3.2.36 5.87.36-4.21.36 2.24.36-.54.37-.64.36 2.62.36-.11.36-2.83.36-.1.37-1.02.36.06.36-86.77.36 6.34.36-5.33.37 5.49.36-3.25.36-2.29.36 3.14.37.43.36-1.87.36-1.54.36.9.36.32.37-.69.36-3.36.36-.85.36.85.36-2.24.37 2.03.36 2.88.36.69.36-.43.36-3.68.37 2.08.36 1.39h.36l.36-1.17.36-1.02.37 4.16h.36l.36-5.97.36 5.01.37-2.66.36-4.27.36-1.17.36 8.1.36 4.91.37-8.11.36-1.06.36.48.36 1.06.36-2.02.37 5.38.36-2.98.36-4.91.36 6.35.36-.96.37 1.97.36 1.17.36-4.21.36.21.37 88.96.36.69.36-1.6.36-1.49.36 6.83.37-3.36.36-.06.36 1.02.36-2.46.36 2.78.37-1.34.36.16.36-2.45.36-.69.36 3.94.37 4.32.36-2.98.36-5.76.36 2.08.37.1.36 1.55.36-.64.36-2.93.36 4.64.37-3.79.36-.59.36 2.08.36-2.08.36 3.2.37-2.5.36 3.68.36-2.62.36 4.86.36-4.43.37-5.07.36 4.91.36-.8.36-1.97.36.58.37 3.36.36 1.71.36-4.43.36 4.27.37-2.35.36 1.07.36-3.2.36 1.65.36-1.49.37 4.05.36-8.96.36-81.43.36-1.18.36 1.39.37 4.85.36-5.01.36-.85.36.64.36 3.46.37-2.29.36 1.49.36-.8.36-11.14.37 9.54.36-1.12.36.7.36-2.24.36 1.49.37 2.24.36.43.36-1.71.36-.21.36 1.38.37-.53.36-3.95.36 5.23.36-4.91.36 3.2.37 1.6.36-2.4.36 3.79.36-2.61.36-2.78.37-6.45.36 7.57.36.06.36 3.62.37-4.05.36-.53.36-1.55.36 3.95.36-2.56.37 5.6.36-4.27.36 6.13.36-4.16.36-.53.37-.8.36-2.45.36.32.36-4.05.36 92.36.37 2.14.36-.64.36-.06.36-1.17.37-.11.36 4.06.36-.7.36-.16.36-3.57.37 2.13.36-6.13.36 2.72.36 4.21.36-1.38.37.05.36-1.44.36 2.29.36-1.54.36 4.85.37-5.87.36.38.36 2.45.36.27.37-3.26.36 2.24.36 2.3.36-3.36.36 2.24.37-2.14.36 4.64.36-6.29.36.59.36-1.23.37 1.65.36 4.75.36-3.15.36 1.34.36-1.39.37.69.36 1.98.36.85.36-5.87.36-.1.37 3.84.36-1.07.36-.96.36 2.83.37-3.95.36 2.72.36-87.94.36-.06.36-2.13.37 2.29.36-1.17.36-4.69.36 2.66.36 4.75.37-5.76.36 2.72.36 1.76.36 5.07.36-5.39.37-1.97.36 3.89.36-5.76.36.69.37 4.32.36 1.39.36-3.52.36 1.81.36 1.39.37-7.84.36 4.37.36-.96.36 2.3.36-.27.37-.43.36-6.18.36 3.73.36-.32.36-2.51.37 8.8.36-10.98.36 6.77.36 3.04.36-6.13.37 5.22.36-4.42.36 5.76.36 2.56.37-6.46.36 1.82.36-3.04.36 1.12.36 2.18.37-.48.36 2.14.36-2.14.36-1.33.36 90.34.37-3.52.36 4.43.36-2.83.36-4.74.36 10.45.37-4.59.36-2.98.36-.7.36 1.02.37.26.36-1.44.36 2.35.36 2.99.36 2.61.37-6.99.36.7.36 4.85.36-1.81.36-3.15.37 1.92.36-4.21.36 6.93.36-3.68.36.91.37-1.12.36-5.5.36 8.11.36-6.72.36 4.53.37 2.03.36-2.56.36 1.71.36-1.71.37 1.23.36 2.13.36-2.56.36 2.77.36-2.13.37 1.17.36-6.13.36 1.65.36 5.44.36 1.39.37-5.39.36.48.36-.26.36 1.49.36-.59.37-.16.36-81.86.36-4.53.36-2.14.37-1.22.36 2.02.36.91.36-1.71.36-.42.37.8.36 2.29.36-5.23.36 2.4.36 3.15.37-7.2.36 6.19.36 3.46.36-4.8.36-1.44.37 6.56.36-1.01.36-3.84.36-.59.37-1.6.36 1.66.36 5.49.36-2.61.36 1.81.37-6.77.36 1.65.36 2.51.36 5.17.36-9.33.37 7.04.36-6.46.36 3.68.36-2.72.36 1.18.37 3.3.36-6.13.36 3.68.36-1.39.36-3.78.37 3.04.36 1.01.36 3.52.36-3.36.37 5.28.36-10.93.36 4.05.36 4.53.36 85.65.37-.74.36-1.02.36-.48.36-1.65.36 5.28.37-5.39.36 2.4.36 1.18.36-.22.36-.16.37 1.23.36-2.13.36 1.33.36 2.83.37-2.4.36-3.58.36 1.34.36 4.64.36-3.31.37-5.39.36 3.2.36 5.28.36-2.61.36-.05.37-2.56.36 2.56.36 1.06.36.48.36.22.37 1.33.36-3.47.36-.58.36 3.78.36-4.64.37 2.46.36-1.02.36.38.36-1.07.37 6.19.36-8.86.36 5.34.36 2.88.36-5.55.37 3.47.36.16.36.42.36-3.2.36-3.25.37 1.76.36-83.46.36.26.36-.53.36-2.61.37.58.36-.16.36-4 .36 1.44.37 8.59.36-5.49.36-2.4.36-2.46.36 5.28.37.8.36-2.29.36.37.36 5.55.36-5.87.37-2.5.36 4.21.36-1.55.36-3.14.36 2.24.37.74.36 4.96.36-1.86.36-7.31.36 2.77.37.06.36 3.2.36-4.06.36 3.26.37.8.36-4.86.36 2.83.36-.32.36-2.56.37 2.4.36 3.52.36-5.81.36 3.78.36-2.02.37 2.45.36-1.81.36.1.36 4 .36-5.33.37 5.07.36-9.87.36 8.48.36 87.3.37 1.07.36-3.95.36-3.09.36 4.27.36-5.5.37 8.22.36-5.55.36 7.52.36-7.25.36 1.33.37-1.81.36-3.74.36 6.46.36.64.36.37.37.48.36-.96.36-3.36.36 2.35.37 1.06.36-2.34.36.58.36.48.36-1.7.37 4.8.36.96.36-.96.36-2.03.36-3.57.37 2.08.36-.43.36.75.36.96.36 5.44.37-5.44.36 6.08.36-6.4.36 3.36.36-.64.37-1.23.36 2.99.36-6.72.36-.38.37 3.9.36.42.36-.16.36-5.33.36 5.6.37-2.45.36-83.47.36.11.36 1.92.36-3.04.37-4.85.36 6.56.36-1.39.36-.85.36-6.72.37 5.17.36 2.35.36-3.9.36-1.86.37 6.56.36-3.68.36 1.06.36 4.16.36-5.38.37.05.36-2.35.36 5.92.36-1.97.36-1.55.37 2.24.36-4.21.36 2.88.36 4.8.36-4.53.37 5.44.36-4.27.36-3.52.36 1.12.36-3.84.37 7.68.36-4.11.36 2.99.36-2.93.37-.27.36 1.23.36.37.36 1.6.36-.21.37-.59.36.05.36-4.8.36 3.68.36 5.39.37-7.04.36-.37.36.37.36 88.53.36 2.24.37-6.03.36 4.16.36-.9.36 2.98.37-2.82.36 5.38.36-4.69.36 2.61.36-.16.37-1.06.36.69.36-1.44.36-3.79.36 6.08.37-2.13.36 3.63.36-2.67.36.27.36-1.18.37-1.49.36 8.21.36-8.1.36-2.19.36 5.23.37-4.38.36 2.08.36-1.54.36 1.38.37 1.87.36-.32.36 1.71.36-.7.36-1.06.37.8.36-1.87.36 3.63.36-5.44.36.42h.37l.36 2.56.36-1.06.36-.32.36-3.31.37.69.36 5.6.36-.58.36-.38.37-3.62.36-85.76.36 3.41.36-2.82.36 1.49.37-1.81.36 2.4.36-1.87.36-1.17.36 2.02.37-1.12.36 3.26.36-1.07.36-2.35.36-.32.37-2.82.36 6.34.36 1.76.36-4.85.37-4 .36.05.36 3.15.36-1.71.36 1.12.37-2.93.36 3.41.36-2.34.36 2.56.36-.48.37-.38.36-.42.36-3.9.36-.8.36 9.18.37-4.43.36.27.36 4.69.36-1.65.36-.16.37-2.19.36 1.6.36 1.12.36-4.11.37-3.52.36-.74.36 9.06.36.11.36-6.35.37.43.36 2.19.36-1.23"/><use xlink:href="#c" transform="matrix(3.75 0 0 3.75 354.25 78.18)"/><use xlink:href="#c" transform="matrix(3.75 0 0 3.75 95.45 7.51)"/></g><text stroke-linecap="round" stroke-linejoin="round" color="#000" font-family="KaTeX_Main" font-size="8" transform="translate(116 25.11)"><tspan>AVLTopDown</tspan></text><g fill="none" stroke="currentColor" stroke-linecap="round" stroke-linejoin="round" color="#000"><path stroke="#29C3F6" stroke-dasharray="1.0,2.0" d="M80.5 22.51h29.9M28 80.85h.36l.36-4.64.37 3.14.36-1.22.36-1.02.36 3.42.36-2.99.37 1.39.36-1.66.36.86.36 1.49.37-.53.36.21.36-3.09.36 6.13.36-3.68.37-.53.36.53.36-5.49.36 8.1.36-7.2.37 4.59.36-1.97.36-2.19.36 3.95.36-1.76.37-.16.36 1.86.36.7.36-2.67.36 3.09.37-2.98.36-.7.36-.53.36 1.76.37 4.64.36-3.41.36-.32.36-1.02.36-4.58.37 5.6.36-.96.36-3.26.36 8.38.36-10.56.37 8 .36-5.18.36 3.04.36-.8.36 1.92.37 106.72.36.85.36-.16.36 3.95.37-.38.36-.21.36-3.41.36 2.4.36-.32.37-1.82.36 3.26h.36l.36-3.58.36-.05.37-.59.36-4.16.36 2.46.36 4.26.36-4 .37 2.83.36-1.49.36.85.36 1.33.37 2.3.36-2.62.36-.58.36-2.94.36 6.03.37 1.01.36-1.28.36-3.68.36 2.72.36-3.46.37 1.92.36 2.29.36-1.17.36-2.3.36.75.37.85.36-2.5.36 4.85.36-.91.36.06.37-3.63.36-.8.36 4.05.36-2.02h.37l.36 2.08.36.37.36-103.19.36-5.39.37 1.33.36-6.08.36 7.31.36-3.63.36-.8.37 1.6.36-1.81.36-1.49.36 5.44.36-2.08.37-6.78.36 3.04.36.91.36 3.52.37-2.19.36 1.6.36-8.42.36 5.17.36 1.33.37-1.06.36 1.92.36 2.66.36-6.45.36 7.41.37-1.97.36-3.25.36.21.36 2.61.36-6.02.37 2.45.36 1.39.36-1.66.36-.26.36.42.37.64.36.75h.36l.36-2.19.37.75.36-1.44.36 3.41.36-.32.36.43.37 3.41.36-5.6.36 2.08.36 1.87.36-3.25.37 106.92.36-.48.36.38.36.8.36 2.72.37-.54.36-.16.36-.8.36-.53.37.8.36-1.28.36.8.36-1.6.36.85.37 3.15.36-.48.36-.96.36 1.49.36-2.02.37.16.36.21.36 2.51.36-1.71.36-5.65.37 4.9.36-2.5.36 9.17.36-7.2.36 2.61.37-2.34.36 1.81.36.27.36-2.99.37 1.6.36 2.19.36-4.06.36 6.94.36-6.08.37 2.56.36-.7.36.64.36.86.36-3.15.37.53.36 1.34.36 2.72.36-4.8.36.96.37.9.36 4 .36-108.1.36 1.82.37-7.42.36 3.58.36.53.36-1.65.36-1.02.37 2.24.36 3.1.36-3.15.36-6.45.36 4.85.37.16.36 2.61.36-1.54.36-2.72.36-.06.37 1.39.36-2.19.36 1.12.36-1.92.37-.21.36-1.81.36 5.44.36-5.28.36 9.76.37-10.24.36 8.26.36-5.44.36-1.38.36-.16.37-4.53.36 7.03.36-4 .36 6.4.36-5.44.37-2.77.36 4.43.36-.11.36.43.36 2.08.37.96.36-5.07.36 2.29.36-.16.37-1.6.36.91.36 3.89.36-1.6.36-1.65.37 113.27.36-4.69.36-.64.36 3.09.36-1.44.37-2.18.36-.43.36-1.23.36 2.62.36 3.25.37-2.61.36-.27.36 2.51.36-1.34.37 2.03.36-1.65.36-2.08.36 3.3.36-3.09.37.48.36.21.36 2.72.36-3.62.36 5.49.37-6.72.36.11.36-.22.36 1.07.36 3.31.37-1.02.36 2.83.36-3.63.36.11.36.59.37.8.36.16.36-4.64.36 2.08.37-3.79.36 6.03.36 1.6.36-4.54.36.91.37-.16.36 5.65.36.96.36-4.64.36 1.12.37-3.68.36 3.79.36-109.17.36 6.62.36-4.86.37 3.31.36-3.31.36-4.58.36 4.8.37-3.2.36.64.36 3.3.36-4.16.36 2.03.37 2.88.36-5.49.36-4.8.36 4.64.36-2.14.37.22.36-.11.36 2.29.36-.21.36-4.43.37 5.6.36.7.36-.91.36.32.36-1.92.37 5.6.36-4.75.36-.85.36 1.01.37-2.77.36-1.07.36 2.14.36 3.09.36.27.37-3.58h.36l.36-.74.36-.38h.36l.37 7.04.36-3.89.36-5.23.36 6.62.36-.86.37-2.72.36 2.88.36-2.13.36.32.37 109.27.36.91.36-2.19.36-1.28.36 7.04.37-3.09.36.75.36-2.72.36.8.36-.91.37 2.08.36 1.33.36-4 .36 1.07.36 3.31.37-.96h.36l.36-5.18.36 1.66.37.8h.36l.36 3.14.36-4.58.36 3.73.37-3.04.36.96.36 2.83.36-3.74.36 1.6.37-1.86.36 5.81.36-4.43.36 5.6.36-5.01.37-5.39.36 5.55.36-.16.36-1.65.36 1.01.37 1.65.36 1.02.36-3.84.36 5.86.37-4.74.36.53.36.64.36-3.04.36 1.12.37 5.97.36-7.46.36-100.9.36-6.3.36.54.37 6.88.36-4.16.36-.48.36 2.5.36-1.38.37-3.1.36 4.06.36-1.55.36-6.35.37 6.67.36.69.36-1.33.36-2.51.36-.21.37.16.36 1.28.36-1.12.36.8.36-1.39.37 2.14.36-4.11.36 2.72.36.75.36-1.18.37-1.6.36 1.55.36 5.87.36-7.84.36 1.38.37-2.45.36-2.29.36 2.82.36.64.37.54.36.05.36.85.36.86.36-1.6.37 5.01.36-.11.36 3.52.36-4.1.36-5.71.37 5.55.36-2.72.36-2.14.36-3.62.36 113.91.37 3.41.36-.37.36-1.6.36-2.4.37 1.07.36-1.71.36 7.47.36-1.34.36-6.13.37 3.15.36-3.68.36 2.72h.36l.36-.27.37-1.07.36 2.08.36-1.81.36 2.83.36-.96.37-.8.36-2.62.36 3.52.36 1.18.37-4 .36 3.41.36-.91.36-2.72.36 3.15.37-3.15.36 6.56.36-3.14.36-1.18.36-1.54.37 1.76.36 2.4.36.48.36-3.15.36-1.65.37 1.28.36 2.98.36-.32.36-3.2.36-.85.37 4.37.36-2.29.36.05.36 1.55.37-3.84.36 4.16.36-106.93.36-.9.36.9.37-1.28.36-2.88.36-2.93.36 4.05.36-.16.37-3.25.36 2.08.36 4.75.36 3.09.36-6.72.37-4.85.36 7.25.36-4.48.36.85.37 2.94.36 1.33.36-4.75.36 1.98.36.58.37-4 .36.96.36-.48.36 1.71.36 2.99.37-2.62.36-4.53.36 4.75.36-1.02.36-1.65.37 4.59.36-6.03.36 5.55.36.9.36-1.65.37-.21.36-2.19.36 5.65.36 1.02.37-7.9.36 2.46.36 1.38.36-1.28.36 1.76.37-1.06.36 6.72.36-8.64.36 4.42.36 105.54.37-.85.36 1.65.36 1.12.36-4.69.36 6.72.37-1.49.36-1.12.36-4.54.36 2.08.37.22.36.1.36 2.83.36-4.32.36 5.44.37-1.49h.36l.36-.54.36 4 .36-5.17.37 1.17.36-2.77.36 9.65.36-5.54.36 1.97.37-4.53.36-2.24.36 3.2.36-.38.36 1.66.37 1.06.36-5.12.36 2.62.36-.75.37.96.36 3.89.36-4.21.36 3.41.36-2.88.37 2.83.36-6.93.36 4.05.36 2.99.36 2.24.37-6.56.36 2.5.36-2.24.36-1.28.36 5.12.37-.74.36-103.57.36-1.92.36-9.12.37 2.29.36 3.2.36-1.6.36 1.07.36-6.29.37 8.85.36-.96.36-2.45.36-3.2.36 2.82.37-4.21.36 6.51.36 1.86.36-7.04.36 1.23.37 6.51.36-2.24.36-4.91.36.37.37 1.34.36.42.36 4.75.36-1.28.36 1.71.37-4.54.36-.58.36 1.49.36.91.36-5.44.37.9.36.86.36 1.28.36-2.14.36 2.94.37 4 .36-9.98.36 6.99.36-3.15.36-2.02.37.69.36 3.79.36.37.36-2.93.37 6.88.36-9.82.36 3.74.36.8.36 108.26.37-2.4.36.05.36 1.44.36.43.36 3.89.37-8.37.36 6.61.36 1.33.36-3.73.36 3.52.37-4.48.36.21.36.43.36 2.03.37-2.14.36-.21.36 1.07.36 4.48.36-2.78.37-4.74.36 2.82.36.8.36-1.22.36.58.37 2.67.36-2.19.36 1.71.36.32.36-2.77.37 2.56.36-2.78.36 2.83.36 1.71.36-1.23.37-.43.36-3.46.36 4.69.36-5.28.37 4.75.36-6.72.36 6.45.36.69.36-1.33.37.32.36.48.36 1.97.36-3.52.36-2.18.37 2.5.36-103.83.36-.8.36-1.17.36-1.87.37 1.76.36-5.01.36.16.36-1.87.37 5.87.36-1.07.36-1.97.36-4.59.36 3.47.37 3.89.36-3.41.36-2.4.36 3.84.36.96.37-7.9.36 5.76.36.16.36-3.52.36-.21.37 4.85.36 2.3.36-1.98.36-7.36.36 4.59.37-2.29.36 3.84.36-4.38.36 6.24.37-3.41.36-4.48.36 6.08.36 2.88.36-6.19.37.7.36 2.77.36-1.92.36 1.81.36 2.08.37 1.6.36-5.54.36 1.28.36 2.4.36-3.68.37 3.89.36-10.88.36 9.55.36 107.83.37-1.17.36.1.36-2.82.36 2.72.36-3.74.37 4.38.36-2.24.36 6.24.36-5.5.36 1.55.37-1.44.36-3.25.36 3.41.36 3.31.36-3.42.37 3.1.36-1.44.36-4.32.36 1.22.37 3.63.36-1.97.36 1.7.36-1.86.36-.22.37 2.94.36 1.01.36-2.88.36-.8.36-.21.37 1.22.36-4.85.36 5.6.36-.64.36 4.48.37-2.67.36 2.46.36-2.24.36.37.36.11.37.42.36-.8.36-.53.36-2.67.37 3.04.36-.26.36-.48.36-4.7.36 8.22.37-5.44.36-103.3.36.05.36 3.04.36-5.33.37-.43.36 1.23.36 1.92.36-3.47.36-9.86.37 9.86.36 1.07.36-4.27.36-.85.37 4.9.36-4.21.36 2.67.36 2.93.36-4.91.37 1.66.36-4.11.36 5.33.36 1.28.36-4.9.37 2.72.36 2.4.36-3.58.36 2.4.36-3.3.37 8.53.36-5.07.36-6.77.36 6.51.36-2.14.37 1.18.36-2.72.36 2.77.36-4.53.37 3.57.36 1.44.36 1.65.36-1.44.36-1.01.37-1.92.36.32.36-2.03.36 6.19.36 2.35.37-5.18.36-1.01.36 1.65.36 108.16.36.16.37-1.34.36-2.88.36.91.36 4.85.37-4.74.36 6.24.36-3.2.36 3.09.36-2.45.37-2.88.36 1.54.36 2.67.36-4.91.36 3.36.37-.16.36 2.83.36-5.33.36 4.32.36-1.66.37-5.12.36 11.9.36-9.5.36-.58.36 3.09.37-1.28.36-.59.36-1.33.36 3.2.37 1.12.36-2.13.36 2.72.36-.86.36-1.01.37 3.95.36-3.58.36-.1.36.42.36-.32.37-7.25.36 8.27.36-2.24.36 2.93.36-5.07.37 1.71.36 2.03.36 3.14.36-2.34.37-2.35.36-103.73.36-1.92.36-2.02.36 4.16.37-5.28.36 5.17.36.48.36-5.81.36 3.14.37 1.6.36-.64.36.91.36-4.43.36-1.49.37-3.04.36 9.76.36 3.73.36-7.52.37-5.6.36-.9.36 5.44.36-4.16.36 2.93.37-2.56.36 2.88.36-.11.36 1.23.36-1.6.37 3.31.36-.7.36-5.17.36-3.46.36 9.01.37-3.1.36-1.97.36 5.49.36-.26.36-.91.37-3.25.36 3.62.36-.1.36-3.68.37-4.48.36 5.22.36 4.48.36-.42.36-.22.37-4.8.36 4.22.36-3.84"/><use xlink:href="#d" color="#29C3F6" transform="matrix(3.75 0 0 3.75 67.83 76.53)"/><use xlink:href="#d" color="#29C3F6" transform="matrix(3.75 0 0 3.75 95.45 22.51)"/></g><text stroke-linecap="round" stroke-linejoin="round" color="#000" font-family="KaTeX_Main" font-size="8" transform="translate(241.1 10.11)"><tspan>AVLWeakBottomUp</tspan></text><g fill="none" stroke="currentColor" stroke-linecap="round" stroke-linejoin="round" color="#000"><path stroke="#3B75EA" d="M205.6 7.51h29.9M28 80.85h.36l.36-4.64.37 3.14.36-1.22.36-1.02.36 3.42.36-2.99.37 1.39.36-1.66.36.86.36 1.49.37-.53.36.21.36-3.09.36 6.13.36-3.68.37-.53.36.53.36-5.49.36 8.1.36-7.2.37 4.59.36-1.97.36-2.19.36 3.95.36-1.76.37-.16.36 1.86.36.7.36-2.67.36 3.09.37-2.98.36-.7.36-.53.36 1.76.37 4.64.36-3.41.36-.32.36-1.02.36-4.58.37 5.6.36-.96.36-3.26.36 8.38.36-10.56.37 8 .36-5.18.36 3.04.36-.8.36 1.92.37 119.46.36-.8.36-1.49.36 2.67.37-5.5.36 2.83.36-3.95.36 4.27.36-3.68.37-3.57.36 4.69.36 2.88.36-4.53.36 1.33.37-3.79.36-2.02.36-2.46.36 5.66.36-.27.37-4.48.36 1.92.36 2.99.36.26.37 1.34.36-5.34.36 1.6.36.96.36-1.38.37 3.52.36-3.95.36.53.36.38.36-1.55.37.96.36.27.36-.75.36-.69.36 3.57.37-1.76.36.43.36-4.54.36.54.36 1.12.37-.48.36 1.81.36-4.37.36 2.88.37-1.76.36-1.28.36 3.73.36-97.43.36-3.74.37 7.2.36-6.4.36 2.08.36-3.84.36-3.04.37 3.68.36.11.36-3.47.36 4.75.36-4.91.37-7.2.36 4.54.36 2.13.36-1.28.37 1.76.36.43.36-8.38.36 5.76.36 2.3.37-5.02.36 3.1.36 6.34.36-8.1.36 4.1.37-.21.36-2.93.36-1.02.36 2.08.36-3.46.37 1.38.36 2.72.36-5.76.36 3.26.36-3.1.37 2.03.36 2.67.36-1.87.36-3.2.37 4.69.36-4.21.36 1.55.36-1.5.36 2.3.37 2.08.36-4.06.36.06.36 4.96.36-.06.37 110.72.36 3.09.36-3.41.36 1.44.36.1.37-.16.36-1.65.36-1.23.36-.48.37 6.08.36-3.89.36.48.36-3.52.36 3.63.37-1.5.36.64.36.8.36-1.28.36-.48.37-1.17.36 1.23.36-1.92.36 1.44.36-3.26.37 3.52.36-.85.36-.91.36-.85.36 1.39.37-1.76.36 3.14.36-3.25.36.59.37-.27.36-3.79.36-1.06.36 7.09.36-5.71.37 6.19.36-3.41.36-2.19.36-1.49.36-1.6.37 1.01.36 6.19.36-5.66.36 6.03.36.21.37-8.58.36 5.44.36-91.2.36.27.37-6.61.36 1.22.36-1.06.36-1.07.36.11.37-3.31.36 6.99.36-6.46.36-4.58.36 2.66.37-2.18.36 6.61.36-4.64.36-2.88.36 5.07.37-2.67.36-1.6.36-1.6.36 1.12.37.59.36-3.31.36 5.12.36-4.11.36 7.52.37-6.88.36 5.71.36-7.52.36 1.07.36.05.37-1.07.36.64.36.32.36.59.36-1.07.37-5.17.36 6.61.36 2.03.36-2.35.36 2.62.37-.75.36-4.69.36-3.47.36 7.15.37-.22.36-3.09.36 2.51.36.58.36-3.09.37 124.26.36-6.08.36.64.36 3.41.36-5.54.37-1.34.36.11.36-2.13.36-1.5.36 4.22.37-.32.36-3.47.36 2.19.36-1.12.37-3.58.36 7.15.36-5.12.36 6.08.36-2.45.37-2.62.36-1.44.36 2.88.36-6.02.36 2.82.37 1.55.36-5.17.36 6.93.36-3.2.36 1.33.37-3.09.36-2.19.36 4.96.36-1.28.36-.16h.37l.36-1.06.36 1.86.36-2.34.37-.32.36 4.42.36-2.61.36 2.51.36-1.02.37-3.68.36 4.32.36.75.36-6.72.36-.05.37 2.88.36-.96.36-97.01.36 7.25.36-9.7.37 6.72.36-2.67.36.32.36-3.79.37-.21.36 1.97.36-2.61.36-4.48.36 1.49.37.43.36-.27.36-2.56.36-2.98.36.53.37-.05.36 1.86.36 1.5.36.74.36-4.48.37 2.46.36 5.28.36-2.56.36-4.8.36 2.13.37 3.79.36-5.23.36 3.36.36-4.48.37-1.33.36 3.57.36-1.17.36.05.36 4.48.37-8.59.36 2.19.36.53.36 1.34.36-2.03.37 7.15.36-6.03.36-3.95.36 7.68.36-.8.37-2.66.36 2.61.36-5.01.36 1.86.37 118.4.36 2.45.36-6.67.36-2.08.36 3.74.37 4.69.36-4.27.36-3.57.36.32.36 1.23.37-1.5.36 1.6.36 1.28.36-3.73.36 1.44.37-3.73.36 3.94.36-.74.36-.43.37-1.97.36 6.02.36-4.85.36-.85.36-.43.37.05.36.06.36 3.73.36-4.21.36-1.34.37-.48.36 4.7.36-3.47.36 4.05.36-3.52.37 1.98.36-5.6.36 4.58.36-.96.36.22.37-1.98.36-1.33.36 1.49.36 3.68.37.11.36-.8.36-2.29.36-3.1.36 2.19.37.69.36-2.56.36-91.08.36-6.56.36 4.32.37 2.61.36-6.24.36-1.33.36.53.36-.37.37 1.7.36-5.12.36 1.6.36-1.76.37-1.49.36 4.96.36-2.88.36-1.07.36-1.44.37 2.88.36-1.97.36 1.87.36-4.16.36-3.47.37 6.67.36-5.5.36 3.58.36-1.6.36-.96.37 2.45.36-1.76.36 3.47.36-4.43.36 1.81.37-3.57.36-.32.36 1.65.36 4.86.37-7.79.36 2.03.36-.16.36 2.98.36-1.65.37 3.89.36-1.6.36 3.47.36-3.95.36-.16.37.38.36 1.65.36-2.88.36-2.67.36 124.16.37-.59.36-3.31.36-2.82.36 1.92.37.53.36-.37.36-1.23.36-.48.36-2.4.37 2.88.36-1.55.36-1.76.36.27.36-.21.37-3.47.36 6.35.36-4.16.36-2.99.36.21.37 3.1.36-3.1.36 6.67.36-6.77.37-.75.36 1.81.36 5.98.36-9.55.36 6.67.37.37.36-3.68.36-2.88.36 2.83.36-3.15.37 1.39.36 2.88.36-1.5.36-1.92.36 5.71.37-5.44.36 2.13.36.27.36-2.93.36 2.66.37-2.98.36 5.17.36-1.6.36-3.09.37 1.6.36-1.39.36-91.73.36-5.7.36 5.54.37-6.24.36-3.78.36 4.58.36-3.46.36 4.8.37-6.51.36.59.36 2.98.36 4.91.36-6.35.37-6.4.36 6.35.36-3.47.36.86.37 2.61.36.53.36-5.06.36.69.36 1.28.37-2.77.36.26.36-.96.36 3.95.36.11.37-2.35.36-6.03.36 7.15.36-5.65.36 1.17.37 6.67.36-7.1.36 1.28.36 3.84.36-6.13.37 4.11.36-1.44.36 3.78.36 2.56.37-8.9.36 1.97.36 3.84.36-3.09.36 4.9.37-4.74.36 2.66.36-1.06.36-.91.36 118.29.37-2.08.36 1.6.36-.7.36-3.62.36 1.06.37-1.06.36.21.36.16.36-4.69.37 2.24.36 1.12.36.42.36-1.33.36 1.12.37-4.43.36 4.8.36-3.89.36.75.36 2.72.37-3.47.36-1.23.36 6.08.36-2.56.36-1.06.37-.91.36 2.08.36-2.61.36 3.09.36-1.23.37-2.5.36 1.12.36 2.29.36-8.8.37 7.52.36-2.19.36-.37.36 2.19.36-5.23.37 6.35.36-3.58h.36l.36 2.88.36-1.92.37-1.54.36-.54.36 1.82.36-1.28.36 3.2.37-.43.36-93.11.36-6.78.36-1.97.37-.69.36.05.36 4.75.36-2.4.36-3.26.37-1.81.36 3.79.36-3.2.36-2.56.36.16.37-4.75.36 6.19.36-.16.36-.32.36-.16.37 2.72.36-5.76.36-1.28.36 1.97.37-2.67.36 3.79.36 3.09.36-1.38.36-.06.37-5.92.36 2.83.36-.96.36 3.68.36-3.09.37-.59.36-2.08.36 1.76.36-.16.36 3.73.37-.69.36-5.07.36.64.36-.37.36 1.76.37.32.36 4.85.36-6.82.36 2.98.37 3.31.36-6.08.36 1.6.36-.8.36 117.97.37-.96.36 4.05.36-2.93.36-3.15.36-.27.37-1.22.36 2.66.36 1.18.36-4.06.36-1.33.37 4.05.36-4.21.36 3.68.36-4.59.37 4.96.36-4 .36-.21.36 1.49.36.48.37 1.98.36-5.34.36-3.36.36 2.3.36 5.38.37-3.62.36-.38.36 1.34.36.1.36-1.97.37.27.36.85.36-5.12.36 2.83.36 2.29.37.75.36.26.36 1.12.36-4.58.37 4.42.36-4.53.36 1.23.36-.38.36-4.53.37 3.36.36-.37.36 3.41.36-3.31.36 1.6.37-.96.36-95.4.36-.8.36-1.71.36 1.07.37-1.28.36-1.5.36 1.18.36-1.76.37 3.3.36-.96.36-3.57.36-3.89.36 2.61.37 1.12.36-6.24.36.75.36 6.18.36-4.32.37-2.82.36 2.61.36.27.36-6.72.36 4.21.37-1.33.36 6.34.36-2.4.36-6.29.36 2.35.37-1.98.36 3.58.36-.96.36 1.49.37.69.36-4.21.36 8.32.36-.8.36-8.05.37 1.44.36.1.36 3.9.36-.8.36 3.2.37.85.36-2.67.36-2.82.36.74.36.91.37-1.01.36-7.41.36 11.46.36 111.14.37.43.36-1.82.36 1.55.36-.05.36-3.47.37 5.17.36-4.16.36 2.4.36-2.29.36 2.19.37-5.5.36.11.36 3.95.36-3.79.36-.21.37 2.98.36-1.12.36-2.56.36 4.91.37-4.91.36-4.1.36 3.68.36-.86.36-.96.37 5.71.36-1.33.36.48.36-1.87.36-4.91.37 2.08.36-1.06.36 3.94.36-3.09.36 5.01.37-.69.36-.85.36.53.36-4.48.36 1.49.37-2.29.36 2.13.36-1.76.36 1.44.37-.9.36.21.36.05.36-1.65.36 5.81.37.59.36-100.95.36 2.13.36.59.36-1.02.37-2.4.36-.8.36 3.79.36-6.45.36-.27.37-3.57.36 4.64.36-4.16.36-2.46.37 1.92.36 3.63.36-8 .36 6.29.36-5.86.37.42.36 3.52.36-.53.36 1.55.36-1.39.37-.75.36 4.43.36-.37.36-4.54.36-3.68.37 7.74.36-.43.36-6.83.36 4.7.36-.22.37-1.65.36-1.76.36.91.36-1.71.37-3.41.36 8.48.36 2.66.36-2.77.36 1.44.37-6.13.36 2.72.36-3.74.36 5.6.36-5.44.37 1.44.36-1.17.36 1.49.36 119.09.36-.91.37-2.18.36-1.12.36-.7.36 1.23.37-.69.36 1.76.36-2.72.36-.32.36-.54.37 1.44.36-2.72.36 2.19.36-.64.36 3.89.37-2.45.36-3.68.36-3.31.36 5.6.36-2.66.37-.16.36 4.42.36-6.88.36 3.42.36-6.4.37 3.84.36 2.5.36-2.5.36-.75.37 1.81.36 3.2.36-6.56.36 2.46.36 2.02.37 2.67.36-4.16.36.91.36.74.36-6.08.37 3.74.36-2.14.36.43.36.85.36.64.37 2.62.36-3.47.36 2.56.36-2.08.37-2.56.36-90.34.36-1.97.36-3.95.36 6.4.37-3.73.36-1.82.36 1.02.36-3.52.36.58.37.8.36-1.65.36 2.13.36-6.08.36.43.37-6.35.36 9.12.36.96.36-1.22.37-8.27.36 4 .36 1.28.36-5.12.36 5.17.37-3.52.36 1.76.36-3.41.36.96.36 1.97.37-2.56.36 3.47.36-.48.36-3.63.36 2.4.37-.1.36.74.36 1.02.36 1.06.36-1.92.37.86.36.74.36 1.34.36-4.91.37-5.65.36 5.28.36 5.22.36.54.36-3.63.37.16.36-.21.36-1.82"/><use xlink:href="#b" color="#3B75EA" transform="matrix(3.75 0 0 3.75 125.4 191.67)"/><use xlink:href="#b" color="#3B75EA" transform="matrix(3.75 0 0 3.75 220.55 7.51)"/></g><text stroke-linecap="round" stroke-linejoin="round" color="#000" font-family="KaTeX_Main" font-size="8" transform="translate(241.1 25.11)"><tspan>AVLWeakTopDown</tspan></text><g fill="none" stroke="currentColor" stroke-linecap="round" stroke-linejoin="round" color="#000"><path stroke="#00C853" stroke-dasharray="4.5,2.0,0.5,2.0,0.5,2.0" d="M205.6 22.51h29.9M28 76.53l.36-1.87.36-2.83.37 2.14.36-2.4.36 5.33.36.21.36-3.09.37.11.36-1.07.36 1.44.36.8.37.37.36 1.28.36-5.06.36 10.4.36-7.68.37-1.44.36.64.36-2.14.36 3.58.36-6.77.37 9.86.36-5.28.36-1.01.36 3.46.36-2.29.37-2.66.36 6.45.36-2.56.36-1.98.36.86.37-1.12.36-.11.36.16.36 1.07.37 1.65.36-.43.36.75.36.27.36-9.39.37 9.23.36-5.01.36 1.06.36 8.16.36-10.98.37 8.31.36-3.14.36.05h.36l.36 2.51.37 75.99.36 21.18.36 7.03.36 3.15h.37l.36 4.43.36-6.08.36 8.64.36-5.55.37-2.67.36 2.56.36 4.8.36-3.25.36.85.37-5.44.36 4.64.36-2.77.36 2.77.36-1.76.37-2.13.36 3.31.36.21.36 2.77.37.7.36-3.04.36-.48.36.85.36-2.56.37 1.76.36-.11.36-.21.36-.43.36 1.12.37 1.28.36 2.94.36-3.58.36-1.54.36 2.45.37-2.35.36.06.36.42.36.48.36.22.37-.96.36.74.36-4.58.36 4.21.37 1.97.36-4.05.36 2.45.36-127.03.36 8.43.37 5.33.36.8.36 4.8.36-1.81.36-6.51.37 6.67.36 1.22.36-5.6.36 1.82.36 3.41.37-11.2.36 7.15h.36L70 72.1l.37 6.67.36-6.03.36-1.76.36 3.63.36 1.44.37-2.99.36 4.05.36 5.23.36-11.57.36 5.76.37 2.18.36-4.64.36-2.24.36 2.4.36-4.69.37 6.99.36.69.36-2.03.36 2.24.36-4.42.37-.48.36 4.85.36-3.89.36-1.12.37 2.82.36-3.2.36.8.36 1.12.36 3.52.37-.32.36-4.8.36 1.6.36 4.7.36-1.98.37 73.49.36 22.03.36 4.85.36 4.8.36 1.01.37.8.36-1.38.36 3.73.36-1.55.37 2.62.36-1.5.36 2.46.36-3.42.36 4.59.37-7.15.36.43.36 4 .36-2.72.36 4.32.37-2.88.36 1.76.36-1.17.36.96.36-3.36.37 3.41.36-4.37.36 3.36.36 1.7.36 1.6.37-3.46.36-1.12.36 3.41.36-7.25.37 4.58.36.8.36-4 .36 5.98.36-3.52.37 3.52.36-.75h.36l.36-2.03.36.86.37-.32.36 1.28h.36l.36.8.36-2.19.37-1.76.36-2.67.36-119.03.36 11.2.37 1.65.36 4.38.36-3.1.36 1.39.36.64.37-.53.36 3.41.36-3.63.36-3.84.36-.69.37 2.67.36 3.73.36-.8.36-6.35.36 6.99.37-3.52.36 1.23.36.8.36-1.76.37.26.36-5.17.36 4.16.36-1.23.36 5.76.37-5.76.36.54.36.48.36 1.17.36.69.37-5.01.36 2.45.36-2.5.36 4.9.36 1.98.37-4.91.36-4.58.36 6.77.36-1.66.36 3.95.37-3.04.36-3.31.36 1.18.36.32.37 2.45.36-7.3.36 3.25.36 3.62.36-.21.37 79.46.36 19.04.36 6.93.36 2.51.36-3.25.37 3.57.36 1.92.36-1.33.36-4.75.36 2.51.37 7.09.36-.69.36 2.29.36-2.45.37-3.84.36 5.44.36-4.91.36 2.83.36-2.62.37 2.56.36-2.61.36 2.35.36-1.07.36 3.31.37.42.36-3.04.36 3.26.36-.8.36-4.59.37-2.72.36.11.36 6.08.36-4.32.36 1.49.37 2.35.36.9.36-1.44.36 1.07.37-2.51.36 3.42.36-.91.36 1.39.36-3.47.37-.27.36 3.36.36-5.28.36.22.36-.8.37 3.46.36 2.19.36-132.95.36 23.2.36-5.82.37 9.02.36-2.14.36-2.08.36 4.59.37-6.67.36 2.99.36.11.36-3.26.36 2.62.37-2.19.36-4.05.36 2.56.36-1.76.36 2.18.37-.37.36-2.35.36 6.35.36-4.37.36-1.71.37-3.41.36 7.62.36-.37.36-5.86.36-.38.37 8.32.36-2.51.36-.58.36-3.63.37 2.99.36-6.13.36 3.89.36 5.33.36.16.37-9.28.36 6.93.36-2.72.36.91.36-2.08.37 8.53.36-7.89.36-.69.36-.91.36.96.37.16.36-.48.36 1.87.36-1.23.37 82.5.36 20.38.36 1.86.36-.53.36 5.12.37 5.76.36-3.63.36 1.12.36.21.36.43.37 3.47.36-1.6.36-2.14.36.16.36-.96.37 2.94h.36l.36-1.71.36-2.67.37 1.23.36 4.75.36-8.38.36 6.51.36.69.37-5.12.36.32.36 6.72.36-2.24.36-3.52.37.96.36 2.62.36 2.02.36-1.49.36-2.99.37.11.36-.21.36.16.36-4.86.36 7.04.37-1.65.36-.85.36-.38.36 5.76.37-1.33.36-2.88.36 3.41.36-1.97h.36l.37.37.36-3.14.36-125.81.36 9.18.36 6.02.37 9.97.36-8.85.36 2.08.36-1.28.36 3.52.37.64.36-2.77.36-2.46.36-1.33.37-.11.36 2.67.36-2.29.36 3.52.36-5.02.37 4.48.36-1.86.36-3.15.36 5.01.36-2.08.37-1.28.36 2.08.36-1.6.36-2.4.36 2.4.37 1.92.36-4.48.36 7.63.36-7.52.36-1.33.37.96.36-.32.36 2.77.36 3.2.37-5.92.36.22.36 2.93.36 1.49.36-2.99.37 1.28.36-.21.36 3.25.36-2.45.36-.37.37-.16.36-.59.36-2.24.36-4.26.36 87.67.37 19.41.36 5.65.36 1.34.36 4.64.37-2.19.36 2.56.36-1.76.36.91.36-3.36.37 5.54.36.27.36-2.03.36 5.28.36-4.58.37-1.66.36 6.14.36-5.39.36-.64.36 2.08.37 2.08.36-3.79.36 5.18.36-6.72.37-.7.36 1.87.36 3.25.36-2.13.36-.11.37 2.72.36-.16.36-4.1.36 4 .36-2.62.37-1.6.36 1.5.36-1.28.36 2.08.36.64.37-3.36.36 2.66.36 2.19.36-6.08.36 8.37.37-7.46.36 1.97.36.75.36-1.6.37 1.6.36 1.12.36-124.21.36 10.83.36 4.53.37 2.56.36-10.98.36 4.53.36-.75.36 6.56.37-3.47.36-3.25.36 3.57.36 6.35.36-6.13.37-6.19.36 5.44.36-3.68.36 3.63.37-.59.36 2.29.36-4.58.36-3.89.36 4.1.37-3.04.36 4 .36-1.01.36 2.88.36-3.36.37 2.56.36-5.55.36 6.88.36-4.53.36-3.73.37 5.75.36-2.66.36 5.33.36 1.12.36-4.48.37.85.36-5.06.36 5.22.36.11.37-.85.36 1.33.36.27.36-2.72.36 2.61.37-.69.36-3.15.36 3.31.36-1.87.36 86.5.37 11.63.36 9.81.36 2.61.36-3.57.36 4.27.37-.11.36 4.27.36-2.19.36-2.99.37 1.87.36 1.81.36.06.36-4.91.36 3.84.37-2.77.36 3.94.36-6.88.36 6.67.36-.64.37-.59.36-1.54.36-.54.36 3.74.36.1.37-3.04.36 6.46.36-7.42.36 5.55.36-4.96.37.96.36 2.88.36-1.12.36-6.24.37 3.52.36 3.31.36-3.79.36 2.77.36-.21.37-2.19.36 1.82.36-1.18.36 5.02.36 1.81.37-8.48.36 1.97.36 1.71.36 1.07.36.32.37-1.12.36-124.26.36 5.92.36 1.76.37 2.98.36 2.88.36.91.36-.53.36-5.12.37 2.29.36 2.56.36-3.36.36.96.36-.48.37-.85.36.96.36 6.34.36-2.24.36-3.68.37 4 .36.22.36-3.1.36 4 .37-6.98.36 4.26.36-2.13.36.59.36 1.65.37.37.36.96.36-2.66.36-1.18.36 2.83.37-5.01.36 2.93.36-2.51.36-2.29.36 5.92.37-1.76.36-1.71.36.11.36 2.08.36 1.71.37-2.4.36 3.68.36-4.43.36-.05.37 9.33.36-11.3.36 3.83.36-2.82.36 80.9.37 16.69.36 11.31.36 1.6.36-1.92.36 1.28.37.1.36 1.71.36 1.71.36 1.44.36-.16.37-.75.36-3.25.36 8.48.36-3.04.37-3.42.36 1.55.36.11.36-1.12.36 2.93.37-1.81.36-2.72.36.85.36 2.03.36-1.34.37-1.7.36 2.02.36-2.82.36 5.17.36.48.37-1.28.36-5.33.36 1.06.36 4 .36 1.55.37-5.55.36 4.91.36-2.99.36 2.78.37-3.68.36 2.13.36-.32.36 1.71.36-2.99.37 1.49.36-.42.36 1.54.36 1.07.36-.32.37-1.87.36-132.04.36 20 .36 4.21.36-4.11.37 2.72h.36l.36-2.98.36 1.81.37-1.87.36 3.15.36-2.93.36-1.07.36 2.77h.37l.36 2.78.36-7.79.36 11.25.36-3.68.37-4.9.36 5.12.36-5.5.36 1.12.36 1.44.37-3.36.36 4.06.36.37.36-7.41.36 4.16.37.05.36 1.44.36-4.48.36 1.17.37.48.36.43.36 5.28.36-4.53.36-4.05.37 8.37.36-3.63.36-.05.36-.32.36 1.38.37 2.03.36-1.44.36 1.01.36-5.65.36 3.95.37-.38.36-4.63.36 11.94.36 68.16.37 19.52.36 5.97.36 5.38.36 1.6.36 3.36.37 1.66.36-3.79.36 4.75.36-5.55.36 4.05.37-1.17.36 1.55.36 1.81.36-5.23.36 1.6h.37l.36 1.12.36 2.51.36-1.07.37-1.92.36-4.58.36 5.7.36-2.02.36.32.37 2.4.36-2.62.36 2.46.36.1.36-3.68.37 2.19.36 3.68.36-2.88.36 2.03.36-2.19.37-1.33.36.96.36.05.36 4.16.36-5.33.37 2.13.36-2.13.36 2.88.36-3.79.37 1.65.36-1.17.36 3.84.36-7.73.36 8.1.37 2.03.36-130.07.36 10.13.36 2.72.36 7.15.37-2.51.36-1.71.36 2.99.36-2.08.36-1.17.37 2.61.36-4.21.36-2.88.36-.48.37 4.69.36-1.55.36-5.33.36 6.35.36-.86.37-1.65.36-.91.36 1.44.36 2.78.36-7.84.37 4.85.36 2.35.36-1.76.36-1.39.36-2.98.37 7.78.36-1.97.36-3.84.36 4.85.36-1.23.37-1.33.36-2.29.36 4.05.36-2.19.37-3.94.36 2.88.36 3.84.36 1.06.36.32.37-1.76.36-1.12.36-3.3.36 1.01.36 5.92.37-3.57.36-2.08.36 2.34.36 71.25.36 28.59.37 4.8.36 2.5.36-1.01.36 2.88.37-.27.36 2.62.36-2.03.36-.16.36 3.36.37-3.04.36 2.99.36-2.03.36 2.51.36-2.78.37 3.47.36-3.25.36-3.84.36 3.36.36-2.67.37 5.12.36-3.79.36-.85.36 4.75.36-3.95.37-1.17.36 4.85.36-.96.36 2.13.37-1.65.36 1.23.36-7.2.36 5.97.36.75.37-2.94.36-.53.36 1.76.36-.91.36 2.19.37-3.2.36-2.08.36 2.45.36-.64.36 2.03.37 3.84.36-1.28.36-1.49.36-.06.37 1.12.36-131.13.36 10.02.36 5.17.36 4.43.37-3.52.36 7.09.36-1.65.36-1.07.36.59.37-1.28.36.43.36-3.2.36-1.44.36 3.62.37-5.06.36 8.96.36-1.66.36-2.61.37-6.29.36 4.42.36.06.36-7.36.36 9.17.37-1.17.36 1.92.36-4 .36 4.74.36-1.33.37-1.17.36-2.62.36.48.36-3.35.36 4.42.37 3.41.36-4.32.36 1.71.36 5.17.36-2.29.37-5.81.36 6.56.36 1.28.36-1.39.37-8.58.36-1.34.36 10.08.36-2.51.36-.58.37-2.3.36 3.79.36.16"/><use xlink:href="#e" color="#00C853" transform="matrix(3.75 0 0 3.75 182.98 76.15)"/><use xlink:href="#e" color="#00C853" transform="matrix(3.75 0 0 3.75 220.55 22.51)"/></g><path fill="none" d="M28 45.01V205M371.99 45.01H28" color="#000"/></svg>