<svg xmlns="http://www.w3.org/2000/svg" xmlns:xlink="http://www.w3.org/1999/xlink" width="800" height="500"><path fill="none" d="M0 0h800v500H0z"/><defs><use xlink:href="#b" id="h" fill="currentColor" stroke="none"/><use xlink:href="#b" id="c" stroke="currentColor" transform="rotate(180)"/><use xlink:href="#c" id="g" fill="currentColor" stroke="none"/><use xlink:href="#d" id="e" stroke="currentColor" transform="rotate(45)"/><use xlink:href="#e" id="i" fill="currentColor" stroke="none"/><path id="d" stroke="currentColor" stroke-width=".222" d="M-1-1h2v2h-2z"/><path id="b" stroke="currentColor" stroke-width=".222" d="m0-1.33-1.33 2h2.66z"/><path id="f" stroke="currentColor" stroke-width=".222" d="M0 1.33 1.265.411.782-1.067l-1.564-.009-.483 1.487z"/><circle id="a" cx="0" cy="0" r="1" stroke="currentColor" stroke-width=".222"/></defs><path fill="none" stroke="#EEE" d="M39.01 410V180.01" class="gridline" color="#000"/><g fill="none" stroke="none" stroke-width="0" color="#000"><path d="M39.01 410v-9m0-220.99v9"/><text fill="#000" font-family="Arial" font-size="16" text-anchor="middle" transform="translate(39.01 442.2)"><tspan> 1</tspan></text></g><path fill="none" stroke="#EEE" d="M117.04 410V180.01" class="gridline" color="#000"/><g fill="none" stroke="none" stroke-width="0" color="#000"><path d="M117.04 410v-9m0-220.99v9"/><text fill="#000" font-family="Arial" font-size="16" text-anchor="middle" transform="translate(117.04 442.2)"><tspan> 2</tspan></text></g><path fill="none" stroke="#EEE" d="M195.07 410V180.01" class="gridline" color="#000"/><g fill="none" stroke="none" stroke-width="0" color="#000"><path d="M195.07 410v-9m0-220.99v9"/><text fill="#000" font-family="Arial" font-size="16" text-anchor="middle" transform="translate(195.07 442.2)"><tspan> 3</tspan></text></g><path fill="none" stroke="#EEE" d="M273.1 410V180.01" class="gridline" color="#000"/><g fill="none" stroke="none" stroke-width="0" color="#000"><path d="M273.1 410v-9m0-220.99v9"/><text fill="#000" font-family="Arial" font-size="16" text-anchor="middle" transform="translate(273.1 442.2)"><tspan> 4</tspan></text></g><path fill="none" stroke="#EEE" d="M351.12 410V180.01" class="gridline" color="#000"/><g fill="none" stroke="none" stroke-width="0" color="#000"><path d="M351.12 410v-9m0-220.99v9"/><text fill="#000" font-family="Arial" font-size="16" text-anchor="middle" transform="translate(351.12 442.2)"><tspan> 5</tspan></text></g><path fill="none" stroke="#EEE" d="M429.15 410V180.01" class="gridline" color="#000"/><g fill="none" stroke="none" stroke-width="0" color="#000"><path d="M429.15 410v-9m0-220.99v9"/><text fill="#000" font-family="Arial" font-size="16" text-anchor="middle" transform="translate(429.15 442.2)"><tspan> 6</tspan></text></g><path fill="none" stroke="#EEE" d="M507.18 410V180.01" class="gridline" color="#000"/><g fill="none" stroke="none" stroke-width="0" color="#000"><path d="M507.18 410v-9m0-220.99v9"/><text fill="#000" font-family="Arial" font-size="16" text-anchor="middle" transform="translate(507.18 442.2)"><tspan> 7</tspan></text></g><path fill="none" stroke="#EEE" d="M585.21 410V180.01" class="gridline" color="#000"/><g fill="none" stroke="none" stroke-width="0" color="#000"><path d="M585.21 410v-9m0-220.99v9"/><text fill="#000" font-family="Arial" font-size="16" text-anchor="middle" transform="translate(585.21 442.2)"><tspan> 8</tspan></text></g><path fill="none" stroke="#EEE" d="M663.23 410V180.01" class="gridline" color="#000"/><g fill="none" stroke="none" stroke-width="0" color="#000"><path d="M663.23 410v-9m0-220.99v9"/><text fill="#000" font-family="Arial" font-size="16" text-anchor="middle" transform="translate(663.23 442.2)"><tspan> 9</tspan></text></g><path fill="none" stroke="#EEE" d="M741.26 410V180.01" class="gridline" color="#000"/><g fill="none" stroke="none" stroke-width="0" color="#000"><path d="M741.26 410v-9m0-220.99v9"/><text fill="#000" font-family="Arial" font-size="16" text-anchor="middle" transform="translate(741.26 442.2)"><tspan> 10</tspan></text></g><path fill="none" stroke="#EEE" d="M0 410h741.26" class="gridline" color="#000"/><g fill="none" stroke="none" stroke-width="0" color="#000"><path d="M741.26 410h-9"/><text fill="#000" font-family="Arial" font-size="16" transform="translate(758.04 415.2)"><tspan>11</tspan></text></g><path fill="none" stroke="#EEE" d="M0 384.45h741.26" class="gridline" color="#000"/><g fill="none" stroke="none" stroke-width="0" color="#000"><path d="M741.26 384.45h-9"/><text fill="#000" font-family="Arial" font-size="16" transform="translate(758.04 389.65)"><tspan>12</tspan></text></g><path fill="none" stroke="#EEE" d="M0 358.89h741.26" class="gridline" color="#000"/><g fill="none" stroke="none" stroke-width="0" color="#000"><path d="M741.26 358.89h-9"/><text fill="#000" font-family="Arial" font-size="16" transform="translate(758.04 364.09)"><tspan>13</tspan></text></g><path fill="none" stroke="#EEE" d="M0 333.34h741.26" class="gridline" color="#000"/><g fill="none" stroke="none" stroke-width="0" color="#000"><path d="M741.26 333.34h-9"/><text fill="#000" font-family="Arial" font-size="16" transform="translate(758.04 338.54)"><tspan>14</tspan></text></g><path fill="none" stroke="#EEE" d="M0 307.78h741.26" class="gridline" color="#000"/><g fill="none" stroke="none" stroke-width="0" color="#000"><path d="M741.26 307.78h-9"/><text fill="#000" font-family="Arial" font-size="16" transform="translate(758.04 312.98)"><tspan>15</tspan></text></g><path fill="none" stroke="#EEE" d="M0 282.23h741.26" class="gridline" color="#000"/><g fill="none" stroke="none" stroke-width="0" color="#000"><path d="M741.26 282.23h-9"/><text fill="#000" font-family="Arial" font-size="16" transform="translate(758.04 287.43)"><tspan>16</tspan></text></g><path fill="none" stroke="#EEE" d="M0 256.67h741.26" class="gridline" color="#000"/><g fill="none" stroke="none" stroke-width="0" color="#000"><path d="M741.26 256.67h-9"/><text fill="#000" font-family="Arial" font-size="16" transform="translate(758.04 261.87)"><tspan>17</tspan></text></g><path fill="none" stroke="#EEE" d="M0 231.12h741.26" class="gridline" color="#000"/><g fill="none" stroke="none" stroke-width="0" color="#000"><path d="M741.26 231.12h-9"/><text fill="#000" font-family="Arial" font-size="16" transform="translate(758.04 236.32)"><tspan>18</tspan></text></g><path fill="none" stroke="#EEE" d="M0 205.56h741.26" class="gridline" color="#000"/><g fill="none" stroke="none" stroke-width="0" color="#000"><path d="M741.26 205.56h-9"/><text fill="#000" font-family="Arial" font-size="16" transform="translate(758.04 210.76)"><tspan>19</tspan></text></g><path fill="none" stroke="#EEE" d="M0 180.01h741.26" class="gridline" color="#000"/><g fill="none" stroke="none" stroke-width="0" color="#000"><path d="M741.26 180.01h-9"/><text fill="#000" font-family="Arial" font-size="16" transform="translate(758.04 185.21)"><tspan>20</tspan></text></g><path fill="none" stroke="none" stroke-width="0" d="M0 180.01V410m741.26-229.99H0" color="#000"/><text fill="#000" stroke="none" stroke-width="0" color="#000" font-family="Arial" font-size="16" text-anchor="middle" transform="translate(370.63 478.2)"><tspan>Size × 10</tspan><tspan dy="-8" font-size="12.8">5</tspan></text><text fill="#000" stroke="none" stroke-width="2" color="#000" font-family="Arial" font-size="16" transform="translate(70.43 93.21)"><tspan>Median</tspan></text><g fill="none" stroke="currentColor" stroke-width="2" color="#000"><path stroke="#000" d="M5.43 88.01h53.8M0 317.16l7.8-43.02 7.81 5.44 7.8 28.2 7.8 11.71 7.8-5.53 7.81-22.74 7.8-18.27 7.8-20.2 7.8 15.5 7.81 12.67 7.8 9.61 7.8 10.56 7.81 4.04 7.8-1.04 7.8-8.03 7.8-9.43 7.81-13.5 7.8-6.87 7.8-15.26 7.8-11.88 7.81-9.02 7.8 8.55 7.8 12.12 7.81 7.08 7.8 4.93 7.8 4.73 7.8 3.84 7.81 3.43 7.8 3.12 7.8 1.37 7.8.52 7.81-.95 7.8-3.05 7.8-.71 7.81-7.78 7.8-5.5 7.8-7.71 7.8-5.33 7.81-9.92 7.8-7.27 7.8-1.62 7.8-9.69 7.81-6.25 7.8-5.26 7.8-7.96 7.81-7.6 7.8-3.43 7.8 2.81 7.8 5.9 7.81 6.68 7.8 5.11 7.8 3.43 7.81 3.37 7.8 3.72 7.8 2.52 7.8 2.89 7.81 3.02 7.8 2.32 7.8.9 7.8 1.23 7.81 2.28 7.8.78 7.8 2.88 7.81 2.53 7.8-1.14 7.8 1.19 7.8.54 7.81.52 7.8.26 7.8-.15 7.8.81 7.81-.76 7.8.18 7.8-.96 7.81-4.82 7.8-2.41 7.8-.45 7.8-4.48 7.81-1.96 7.8-.41 7.8-3.34 7.8-3.93 7.81-3.23 7.8-2.88 7.8-1.91 7.81-.74 7.8-.75 7.8-4.55 7.8-3.21 7.81-2.86 7.8-3.64 7.8-2.33 7.8-.91 7.81-9.63 7.8.65"/><use xlink:href="#g" transform="matrix(9 0 0 9 710.05 197.05)"/><use xlink:href="#g" transform="matrix(9 0 0 9 32.33 88.01)"/></g><text fill="#000" stroke="none" stroke-width="2" color="#000" font-family="Arial" font-size="16" transform="translate(70.43 129.21)"><tspan>Height</tspan></text><g fill="none" stroke="currentColor" stroke-width="2" color="#000"><path stroke="#9F650D" stroke-dasharray="8,4,2,4" d="M5.43 124.01h53.8M0 293.98l7.8-18.83 7.81 3.39 7.8 14.69 7.8-3.96 7.8-10.79 7.81-4.81 7.8-10.11 7.8-18.82 7.8 22.58 7.81 9.95 7.8-.98 7.8-4.49 7.81.88 7.8-1.84 7.8-7.19 7.8-2.52 7.81-4.76 7.8-2.4 7.8-6.73 7.8-9.95 7.81-10.71 7.8 9.69 7.8 12.77 7.81 8.7 7.8-.72 7.8-.63 7.8 2.82 7.81-1.88 7.8-2.6 7.8.24 7.8-.95 7.81-5.52 7.8-2.09 7.8-7.37 7.81 2.09 7.8-3.72 7.8-3.35 7.8-7.93 7.81-2.66 7.8-3.45 7.8-2.23 7.8-.66 7.81-4.01 7.8-4.95 7.8-7.6 7.81-7.47 7.8-4.67 7.8 2.7 7.8 6.58 7.81 9.1 7.8 5.47 7.8 4 7.81 4.34 7.8.2 7.8-3.37 7.8 8.93 7.81-2.73 7.8-1.37 7.8-2.67 7.8 5.91 7.81-9.15 7.8 8.04 7.8-4.68 7.81-2.86 7.8 4.16 7.8-1.32 7.8-.33 7.81 1.14 7.8-1.91 7.8-1.81 7.8-2.11 7.81 1.43 7.8-4.68 7.8-3.92 7.81 5.05 7.8.28 7.8-3.37 7.8 1.99 7.81-1.48 7.8-.81 7.8-1.71 7.8-.91 7.81-2.6 7.8-1.38 7.8.09 7.81.02 7.8-.8 7.8-3.62 7.8 1.7 7.81-.77 7.8-3.11 7.8-2.43 7.8-.32 7.81-3.59 7.8-3.54"/><use xlink:href="#c" color="#9F650D" transform="matrix(9 0 0 9 93.63 271.8)"/><use xlink:href="#c" color="#9F650D" transform="matrix(9 0 0 9 32.33 124.01)"/></g><text fill="#000" stroke="none" stroke-width="2" color="#000" font-family="Arial" font-size="16" transform="translate(258.63 93.21)"><tspan>HalfSize</tspan></text><g fill="none" stroke="currentColor" stroke-width="2" color="#000"><path stroke="#F44336" d="M193.63 88.01h53.8M0 341.36l7.8-10.21 7.81-2.84 7.8 1.82 7.8 2.04 7.8-1.59 7.81-5.17 7.8-3.23 7.8-5.55 7.8 1.9 7.81 2.18 7.8-.35 7.8 2.06 7.81-.1 7.8.54 7.8-3.67 7.8-4.19 7.81-4.6 7.8-1.07 7.8-4.32 7.8-3.85 7.81-3.53 7.8 1.01 7.8-.92 7.81.06 7.8.69 7.8.27 7.8-2.01 7.81.22 7.8-.95 7.8-.48 7.8-1.53 7.81.11 7.8.09 7.8-3.52 7.81-1.38 7.8-.96 7.8-4.49 7.8-1.39 7.81-1.96 7.8-2.79 7.8-1.17 7.8-.57 7.81-.05 7.8 2.49 7.8-2.5 7.81-1.3 7.8-2.77 7.8.41 7.8.35 7.81.95 7.8-.22 7.8.72 7.81-2.09 7.8 1.88 7.8-.73 7.8 2.23 7.81-1.4 7.8 1.36 7.8-.64 7.8 1 7.81-.41 7.8-.99 7.8 1.08 7.81 1.54 7.8-.68 7.8.47 7.8.04 7.81-.43 7.8-.01 7.8.81 7.8-.02 7.81-1.18 7.8-.96 7.8 1.38 7.81-.76 7.8.08 7.8.39 7.8-2.44 7.81-1.37 7.8-.91 7.8.35 7.8-1.42 7.81-.48 7.8-1.04 7.8-.34 7.81-1.42 7.8.26 7.8-1.5 7.8.6 7.81-.23 7.8-.7 7.8-1.03 7.8-.43 7.81.56 7.8-.88"/><use xlink:href="#h" color="#F44336" transform="matrix(9 0 0 9 218.48 296.95)"/><use xlink:href="#h" color="#F44336" transform="matrix(9 0 0 9 220.53 88.01)"/></g><text fill="#000" stroke="none" stroke-width="2" color="#000" font-family="Arial" font-size="16" transform="translate(258.63 129.21)"><tspan>LogSize</tspan></text><g fill="none" stroke="currentColor" stroke-width="2" color="#000"><path stroke="#FFAB00" d="M193.63 124.01h53.8M0 355.78l7.8-11.28 7.81-3.73 7.8 1.83 7.8 3.23 7.8-2.15 7.81-4.92 7.8-3.57 7.8-5.65 7.8 2.02 7.81 2.44 7.8-.16 7.8.83 7.81.86 7.8.42 7.8-3.97 7.8-2.56 7.81-5.5 7.8-1.07 7.8-3.7 7.8-1.02 7.81-3.37 7.8 1.46 7.8-.09 7.81 1.25 7.8.03 7.8.75 7.8-.07 7.81.52 7.8-.05 7.8.02 7.8-.23 7.81-1.13 7.8.35 7.8-1.9 7.81-1.8 7.8-1.97 7.8-4.33 7.8-2.71 7.81-1.65 7.8-3.11 7.8-2.23 7.8-.89 7.81-1.3 7.8-2.63 7.8-1.87 7.81-2.37 7.8-1.37 7.8.95 7.8-.25 7.81.73 7.8-.93 7.8.14 7.81-1.02 7.8.87 7.8-.17 7.8.53 7.81 1 7.8.01 7.8.09 7.8-.71 7.81 1.3 7.8-2.13 7.8 2.27 7.81 1.54 7.8-1.39 7.8 1.36 7.8-.19 7.81-1.41 7.8.83 7.8.41 7.8.45 7.81-2.52 7.8.13 7.8 1.82 7.81-1.77 7.8.42 7.8.46 7.8-1.64 7.81-1.44 7.8-1.38 7.8-.08 7.8-1.2 7.81-.72 7.8-.85 7.8-.99 7.81-1.09 7.8.84 7.8-1.77 7.8.31h7.81l7.8-.75 7.8-.84 7.8.19 7.81-1.06 7.8-.71"/><use xlink:href="#b" color="#FFAB00" transform="matrix(9 0 0 9 343.32 293.05)"/><use xlink:href="#b" color="#FFAB00" transform="matrix(9 0 0 9 220.53 124.01)"/></g><text fill="#000" stroke="none" stroke-width="2" color="#000" font-family="Arial" font-size="16" transform="translate(446.83 93.21)"><tspan>HalfWeight</tspan></text><g fill="none" stroke="currentColor" stroke-width="2" color="#000"><path stroke="#304FFE" d="M381.83 88.01h53.8M0 369.56l7.8-3.51 7.81-2.41 7.8-4.28 7.8.79 7.8-1.58 7.81-2.17 7.8.55 7.8-2.48 7.8-1.37 7.81-1.9 7.8-3.24 7.8 1.09 7.81 1.04 7.8-1.75 7.8-3.2 7.8-.85 7.81-1.6 7.8.5 7.8-2.33 7.8-1.27 7.81-2.39 7.8-.41 7.8-3.11 7.81-1.86 7.8-.56 7.8-1.69 7.8-2.98 7.81-.79 7.8-.9 7.8-.2 7.8-1.42 7.81-.5 7.8-.92 7.8-3.65 7.81-.38 7.8-.3 7.8-3.91 7.8-.93 7.81-.75 7.8-.95 7.8-1.26 7.8-.52 7.81.37 7.8-1.14 7.8-1.1 7.81-.82 7.8-.77 7.8.05 7.8-.08 7.81-1.26 7.8.14 7.8-1.48 7.81-1.61 7.8 1.7 7.8-.27 7.8.18 7.81-1.92 7.8.9 7.8-.92 7.8.61 7.81.65 7.8-.7 7.8 1.17 7.81 1 7.8-.57 7.8.16 7.8 1.03 7.81-1.27 7.8.71 7.8.11 7.8-.16 7.81-4.39 7.8 2.72 7.8 1.14 7.81-.28 7.8.41 7.8.97 7.8-1.11 7.81-1.37 7.8-.16 7.8.25 7.8-.48 7.81-.46 7.8-.98 7.8.29 7.81-.91 7.8 1.08 7.8-1.22 7.8.77 7.81-.12 7.8.2 7.8-.99 7.8.07 7.81.56 7.8-.59"/><use xlink:href="#i" color="#304FFE" transform="matrix(9 0 0 9 468.16 301.79)"/><use xlink:href="#i" color="#304FFE" transform="matrix(9 0 0 9 408.73 88.01)"/></g><text fill="#000" stroke="none" stroke-width="2" color="#000" font-family="Arial" font-size="16" transform="translate(446.83 129.21)"><tspan>LogWeight</tspan></text><g fill="none" stroke="currentColor" stroke-width="2" color="#000"><path stroke="#29C3F6" d="M381.83 124.01h53.8M0 388.86l7.8-4.43 7.81-2.94 7.8-4.75 7.8.89 7.8-2.25 7.81-.4 7.8.38 7.8-3.84 7.8.56 7.81-2.48 7.8-2.84 7.8-.58 7.81.92 7.8-1.57 7.8-1.98 7.8.22 7.81-2.08 7.8-.48 7.8-2.3 7.8-.16 7.81-2.18 7.8.92 7.8-1.52 7.81-1.96 7.8-.63 7.8-.96 7.8-1.6 7.81.2 7.8.74 7.8.46 7.8-.73 7.81-.88 7.8.46 7.8-2.85 7.81.47 7.8-.19 7.8-3.19 7.8-2.27 7.81-1.53 7.8-2 7.8-.7 7.8-1.39 7.81-.1 7.8-1.67 7.8-2.26 7.81-2.15 7.8-.51 7.8.3 7.8-1.25 7.81-1.02 7.8.12 7.8-1.8 7.81-1.05 7.8.13 7.8-.71 7.8-.69 7.81-.3 7.8-.14 7.8-.92 7.8-1.11 7.81 1.16 7.8-1.86 7.8 1.52 7.81.92 7.8-.65 7.8.5 7.8 1.06 7.81-1.55 7.8.37 7.8.57 7.8-.12 7.81-2 7.8.09 7.8 1.65 7.81-1.03 7.8 1.65 7.8.15 7.8-1.2 7.81-.6 7.8-.74 7.8.42 7.8-1.53 7.81.69 7.8-.96 7.8-.61 7.81-.54 7.8 1.1 7.8-1.48 7.8 1.22 7.81.31 7.8-.45 7.8-.46 7.8-.04 7.81-.29 7.8-.28"/><use xlink:href="#e" color="#29C3F6" transform="matrix(9 0 0 9 593.01 324.57)"/><use xlink:href="#e" color="#29C3F6" transform="matrix(9 0 0 9 408.73 124.01)"/></g><text fill="#000" stroke="none" stroke-width="2" color="#000" font-family="Arial" font-size="16" transform="translate(635.03 93.21)"><tspan>Cost</tspan></text><g fill="none" stroke="currentColor" stroke-width="2" color="#000"><path stroke="#4CAF50" d="M570.03 88.01h53.8M0 320.2l7.8-19 7.81 1.02 7.8 3.35 7.8 5.43 7.8-2.98 7.81-7.71 7.8-7.33 7.8-5.89 7.8 3.36 7.81 2.97 7.8 1.75 7.8 2.99 7.81.64 7.8-1.2 7.8-2.8 7.8-1.5 7.81-6.87 7.8-2.73 7.8-3.45 7.8-3.66 7.81-4.24 7.8 1.42 7.8.9 7.81 1.83 7.8.15 7.8 2.29 7.8.99 7.81 1.52 7.8 2.04 7.8.69 7.8.57 7.81-.96 7.8.28 7.8-2.06 7.81-3.84 7.8-2.63 7.8-5.33 7.8-3.81 7.81-3.76 7.8-3.99 7.8-1.85 7.8-4.23 7.81-2.07 7.8-3.01 7.8-4.28 7.81-.59 7.8-2.98 7.8.47 7.8.67 7.81-.28 7.8.47 7.8 2.13 7.81-2.69 7.8.24 7.8 2.66 7.8-.65 7.81.42 7.8.43 7.8.92 7.8-.19 7.81.61 7.8.89 7.8.53 7.81 1.48 7.8-.36 7.8-.09 7.8 1.32 7.81-.02 7.8.47 7.8-.94 7.8-.23 7.81-.33 7.8-1.09 7.8 1 7.81-2.03 7.8-1.97 7.8 1.71 7.8-1.86 7.81-1.74 7.8-1.3 7.8-1.45 7.8-.04 7.81-.92 7.8-2.2 7.8-.84 7.81.37 7.8-.43 7.8-1.86 7.8.42 7.81-1.19 7.8-1.63 7.8-1.34 7.8.92 7.81-.96 7.8-2.02"/><use xlink:href="#f" color="#4CAF50" transform="matrix(9 0 0 9 717.85 229.18)"/><use xlink:href="#f" color="#4CAF50" transform="matrix(9 0 0 9 596.93 88.01)"/></g><path fill="none" stroke="none" stroke-width="0" d="M0 180.01V410m741.26-229.99H0" color="#000"/><text fill="#000" stroke="none" stroke-width="0" color="#000" font-family="Arial" font-size="20" text-anchor="middle" transform="translate(370.63 39.51)"><tspan font-weight="bold">Duration </tspan><tspan> / Size</tspan></text></svg>