<svg xmlns="http://www.w3.org/2000/svg" xmlns:xlink="http://www.w3.org/1999/xlink" viewBox="0 0 400 200"><path fill="none" d="M0 0h400v200H0z"/><defs><use xlink:href="#b" id="h" fill="currentColor" stroke="none"/><use xlink:href="#b" id="c" stroke="currentColor" transform="rotate(180)"/><use xlink:href="#c" id="g" fill="currentColor" stroke="none"/><use xlink:href="#d" id="e" stroke="currentColor" transform="rotate(45)"/><path id="d" stroke="currentColor" stroke-width=".222" d="M-1-1h2v2h-2z"/><path id="b" stroke="currentColor" stroke-width=".222" d="m0-1.33-1.33 2h2.66z"/><path id="f" stroke="currentColor" stroke-width=".222" d="M0 1.33 1.265.411.782-1.067l-1.564-.009-.483 1.487z"/><circle id="a" cx="0" cy="0" r="1" stroke="currentColor" stroke-width=".222"/></defs><g fill="none" stroke="none" stroke-linecap="round" stroke-linejoin="round" stroke-width="0" color="#000"><path d="M63.82 164v-9m0-118.99v9"/><text fill="#000" font-family="Arial" font-size="8" text-anchor="middle" transform="translate(63.82 175.6)"><tspan> 1</tspan></text></g><g fill="none" stroke="none" stroke-linecap="round" stroke-linejoin="round" stroke-width="0" color="#000"><path d="M97.44 164v-9m0-118.99v9"/><text fill="#000" font-family="Arial" font-size="8" text-anchor="middle" transform="translate(97.44 175.6)"><tspan> 2</tspan></text></g><g fill="none" stroke="none" stroke-linecap="round" stroke-linejoin="round" stroke-width="0" color="#000"><path d="M131.07 164v-9m0-118.99v9"/><text fill="#000" font-family="Arial" font-size="8" text-anchor="middle" transform="translate(131.07 175.6)"><tspan> 3</tspan></text></g><g fill="none" stroke="none" stroke-linecap="round" stroke-linejoin="round" stroke-width="0" color="#000"><path d="M164.69 164v-9m0-118.99v9"/><text fill="#000" font-family="Arial" font-size="8" text-anchor="middle" transform="translate(164.69 175.6)"><tspan> 4</tspan></text></g><g fill="none" stroke="none" stroke-linecap="round" stroke-linejoin="round" stroke-width="0" color="#000"><path d="M198.31 164v-9m0-118.99v9"/><text fill="#000" font-family="Arial" font-size="8" text-anchor="middle" transform="translate(198.31 175.6)"><tspan> 5</tspan></text></g><g fill="none" stroke="none" stroke-linecap="round" stroke-linejoin="round" stroke-width="0" color="#000"><path d="M231.94 164v-9m0-118.99v9"/><text fill="#000" font-family="Arial" font-size="8" text-anchor="middle" transform="translate(231.94 175.6)"><tspan> 6</tspan></text></g><g fill="none" stroke="none" stroke-linecap="round" stroke-linejoin="round" stroke-width="0" color="#000"><path d="M265.56 164v-9m0-118.99v9"/><text fill="#000" font-family="Arial" font-size="8" text-anchor="middle" transform="translate(265.56 175.6)"><tspan> 7</tspan></text></g><g fill="none" stroke="none" stroke-linecap="round" stroke-linejoin="round" stroke-width="0" color="#000"><path d="M299.18 164v-9m0-118.99v9"/><text fill="#000" font-family="Arial" font-size="8" text-anchor="middle" transform="translate(299.18 175.6)"><tspan> 8</tspan></text></g><g fill="none" stroke="none" stroke-linecap="round" stroke-linejoin="round" stroke-width="0" color="#000"><path d="M332.81 164v-9m0-118.99v9"/><text fill="#000" font-family="Arial" font-size="8" text-anchor="middle" transform="translate(332.81 175.6)"><tspan> 9</tspan></text></g><g fill="none" stroke="none" stroke-linecap="round" stroke-linejoin="round" stroke-width="0" color="#000"><path d="M366.43 164v-9m0-118.99v9"/><text fill="#000" font-family="Arial" font-size="8" text-anchor="middle" transform="translate(366.43 175.6)"><tspan> 10</tspan></text></g><g fill="none" stroke="none" stroke-linecap="round" stroke-linejoin="round" stroke-width="0" color="#000"><path d="M366.43 164h-9"/><text fill="#000" font-family="Arial" font-size="8" transform="translate(374.82 166.6)"><tspan>0.50</tspan></text></g><g fill="none" stroke="none" stroke-linecap="round" stroke-linejoin="round" stroke-width="0" color="#000"><path d="M366.43 145.72h-9"/><text fill="#000" font-family="Arial" font-size="8" transform="translate(374.82 148.32)"><tspan>0.60</tspan></text></g><g fill="none" stroke="none" stroke-linecap="round" stroke-linejoin="round" stroke-width="0" color="#000"><path d="M366.43 127.43h-9"/><text fill="#000" font-family="Arial" font-size="8" transform="translate(374.82 130.03)"><tspan>0.70</tspan></text></g><g fill="none" stroke="none" stroke-linecap="round" stroke-linejoin="round" stroke-width="0" color="#000"><path d="M366.43 109.15h-9"/><text fill="#000" font-family="Arial" font-size="8" transform="translate(374.82 111.75)"><tspan>0.80</tspan></text></g><g fill="none" stroke="none" stroke-linecap="round" stroke-linejoin="round" stroke-width="0" color="#000"><path d="M366.43 90.86h-9"/><text fill="#000" font-family="Arial" font-size="8" transform="translate(374.82 93.46)"><tspan>0.90</tspan></text></g><g fill="none" stroke="none" stroke-linecap="round" stroke-linejoin="round" stroke-width="0" color="#000"><path d="M366.43 72.58h-9"/><text fill="#000" font-family="Arial" font-size="8" transform="translate(374.82 75.18)"><tspan>1.00</tspan></text></g><g fill="none" stroke="none" stroke-linecap="round" stroke-linejoin="round" stroke-width="0" color="#000"><path d="M366.43 54.29h-9"/><text fill="#000" font-family="Arial" font-size="8" transform="translate(374.82 56.89)"><tspan>1.10</tspan></text></g><g fill="none" stroke="none" stroke-linecap="round" stroke-linejoin="round" stroke-width="0" color="#000"><path d="M366.43 36.01h-9"/><text fill="#000" font-family="Arial" font-size="8" transform="translate(374.82 38.61)"><tspan>1.20</tspan></text></g><path fill="none" stroke="none" stroke-linecap="round" stroke-linejoin="round" stroke-width="0" d="M33.56 36.01V164M366.43 36.01H33.56" color="#000"/><text fill="#000" stroke="none" stroke-linecap="round" stroke-linejoin="round" stroke-width="0" color="#000" font-family="Arial" font-size="8" text-anchor="middle" transform="rotate(-90 56.24 43.77)"><tspan font-weight="bold">Partition Depth</tspan><tspan> / Size</tspan></text><text fill="#000" stroke="none" stroke-linecap="round" stroke-linejoin="round" stroke-width="0" color="#000" font-family="Arial" font-size="8" text-anchor="middle" transform="translate(199.99 193.6)"><tspan>Size × 10</tspan><tspan dy="-4" font-size="6.4">5</tspan></text><text fill="#000" stroke="none" stroke-linecap="round" stroke-linejoin="round" stroke-width=".5" color="#000" font-family="Arial" font-size="8" transform="translate(128.3 10.11)"><tspan>Median</tspan></text><g fill="none" stroke="currentColor" stroke-linecap="round" stroke-linejoin="round" stroke-width=".5" color="#000"><path stroke="#000" d="M91.3 7.51h31.4M33.56 76.49l.04.75.33 2.3.34-.82.34-2.41.33-4.27.34-5.39.34-3.12.33 1.72.34 4.98.34 4.91.33 3.29.34 1.76.34.51.33-.48.34-1.04.33-1.14.34-1.23.34-1.65.33-2.37.34-3.12.34-3.55.33-3.26.34-1.95.34.13.33 2.17.34 3.35.34 3.55.33 3.1.34 2.43.34 1.78.33 1.3.34 1.01.34.81.33.56.34.23.34-.19.33-.56.34-.79.33-.81.34-.67.34-.47.33-.33.34-.36.34-.54.33-.8.34-1.1.34-1.34.33-1.54.34-1.72.34-1.87.33-2.03.34-2.16.34-2.15.33-1.91.34-1.37.34-.55.33.41.34 1.3.34 1.94.33 2.28.34 2.35.34 2.23.33 2.02.34 1.78.33 1.55.34 1.32.34 1.09.33.89.34.68.34.54.33.44.34.42.34.45.33.47.34.48.34.44.33.35.34.22.34.09.33-.05.34-.17.34-.3.33-.4.34-.49.34-.56.33-.58.34-.55.34-.47.33-.34.34-.2.33-.07.34.02.34.04.33.02.34-.04.34-.14.33-.23.34-.34.34-.44.33-.54.34-.64.34-.71.33-.77.34-.81.34-.83.33-.84.34-.86.34-.88.33-.92.34-.97.34-1.04.33-1.11.34-1.17.34-1.23.33-1.26.34-1.28.33-1.24.34-1.15.34-.97.33-.7.34-.37.34.01.33.41.34.76.34 1.05.33 1.25.34 1.37.34 1.41.33 1.4.34 1.35.34 1.28.33 1.2.34 1.12.34 1.04.33.96.34.89.34.84.33.79.34.74.34.71.33.65.34.61.33.54.34.48.34.42.33.35.34.29.34.23.33.18.34.15.34.14.33.13.34.14.34.19.33.22.34.27.34.3.33.33.34.33.34.31.33.28.34.24.34.2.33.15.34.09.33.04.34.01.34-.04.33-.07.34-.09.34-.11.33-.13.34-.15.34-.17.33-.2.34-.23.34-.26.33-.3.34-.33.34-.37.33-.38.34-.39.34-.39.33-.36.34-.32.34-.25.33-.19.34-.11.34-.04.33.02.34.07.33.1.34.12.34.12.33.1.34.07.34.05.33.01.34-.02.34-.05.33-.09.34-.11.34-.14.33-.15.34-.18.34-.2.33-.22.34-.25.34-.27.33-.3.34-.32.34-.36.33-.38.34-.41.34-.43.33-.44.34-.44.33-.45.34-.43.34-.43.33-.42.34-.41.34-.4.33-.41.34-.4.34-.42.33-.42.34-.45.34-.47.33-.49.34-.51.34-.54.33-.57.34-.59.34-.6.33-.63.34-.64.34-.66.33-.67.34-.68.34-.69.33-.71.34-.72.33-.73.34-.72.34-.7.33-.67.34-.62.34-.53.33-.42.34-.28.34-.13.33.03.34.21.34.36.33.5.34.63.34.71.33.78.34.82.34.83.33.83.34.83.34.8.33.78.34.76.34.74.33.71.34.69.33.67.34.65.34.62.33.59.34.57.34.55.33.51.34.49.34.47.33.44.34.42.34.41.33.4.34.38.34.38.33.38.34.38.34.37.33.37.34.37.34.36.33.35.34.33.33.32.34.3.34.29.33.26.34.24.34.22.33.2.34.17.34.16.33.15.34.12.34.11.33.08.34.08.34.05.33.04.34.03.34.02.33.01h.34l.34.01.33.02.34.03.34.05.33.07.34.1.33.14.34.16.34.18.33.21.34.22.34.22.33.23.34.22.34.22.33.2.34.19.34.17.33.16.34.14.34.13.33.11.34.1.34.08.33.07.34.06.34.03.33.03.34.01.34-.01.33-.02.34-.04.33-.04.34-.05.34-.06.33-.07.34-.06.34-.07.33-.07.34-.06.34-.06.33-.06.34-.07.34-.06.33-.08.34-.08.34-.09.33-.1.34-.12.34-.12.33-.14.34-.15.34-.16.33-.17.34-.18.34-.19.33-.2.34-.21.33-.21.34-.23.34-.23.33-.24.34-.24.34-.24.33-.24.34-.24.34-.22.33-.2.34-.17.34-.15.33-.11.34-.07.34-.03h.33l.34.04.34.06.33.08.34.1.34.11.33.11.34.11.33.11.34.1.34.09.33.08.34.07.34.06.33.05.34.04.34.03.33.02.34.01h.34l.33-.01.34-.02.34-.03.33-.03.34-.05.34-.05.33-.06.34-.07.34-.07.33-.07.34-.08.34-.07.33-.09.34-.08.33-.09.34-.09.34-.1.33-.1.34-.12.34-.12.33-.13.34-.14.34-.14.33-.16.34-.16.34-.17.33-.18.34-.18.34-.2.33-.2.34-.2.34-.22.33-.22.34-.23.34-.24.33-.24.34-.25.34-.25.33-.25.34-.25.33-.25.34-.24.34-.23.33-.21.34-.21.34-.2.33-.19.34-.19.34-.18.33-.17.34-.18.34-.18.33-.18.34-.19.34-.19.33-.19.34-.21.34-.2.33-.22.34-.21.34-.23.33-.23.34-.24.34-.25.33-.26.34-.27.33-.27.34-.29.34-.29.33-.3.34-.3.34-.31.33-.31.34-.31.34-.31.33-.32.34-.31.34-.31.33-.32.34-.31.34-.32.33-.32.34-.33.34-.33.33-.34.34-.34.34-.36.33-.35.34-.37.34-.37.33-.38.34-.38.33-.39.34-.39.34-.4.33-.41.34-.4.34-.41.33-.42.34-.4.34-.4.33-.39.34-.37.34-.34.33-.3.34-.25.34-.19.33-.12.34-.04.34.03.33.12.34.19.34.26.33.33.34.37.33.42.34.44.34.47.33.47.34.48.34.48.33.48.34.47.34.46.33.46.34.44.34.44.33.44.34.42.34.42.33.41.34.4.34.4.33.39.34.38.34.37.33.37.34.36.34.35.33.34.34.34.33.34.34.33.34.33.33.32.34.32.34.32.33.32.34.3.34.31.33.29.34.29.34.28.33.27.34.27.34.26.33.25.34.24.34.23.33.23.34.22.34.22.33.2.34.2.34.2.33.18.34.18.33.18.34.17.34.17.33.17.34.17.34.18.33.18.34.18.34.2.33.19.34.21.34.2.33.21.34.21.34.2.33.21.34.2.34.19.33.19.34.19.34.18.33.17.34.16.34.16.33.15.34.14.33.13.34.13.34.12.33.11.34.11.34.1.33.09.34.09.34.08.33.08.34.08.34.08.33.07.34.07.34.07.33.07.34.06.34.07.33.06.34.06.34.05.33.05.34.04.34.04.33.04.34.03.33.02.34.01.34.01.33.01h.34l.34-.01.33-.01.34-.01.34-.02.33-.03.34-.02.34-.04.33-.03.34-.04.34-.03.33-.03.34-.03.34-.01.33-.01.34.02.34.03.33.06.34.07.33.09.34.11.34.13.33.13.34.15.34.15.33.15.34.15.34.15.33.15.34.14.34.14.33.13.34.13.34.12.33.11.34.12.34.1.33.11.34.09.34.09.33.09.34.07.34.08.33.06.34.07.33.06.34.05.34.05.33.06.34.05.34.05.33.04.34.05.34.05.33.04.34.04.34.03.33.04.34.02.34.02.33.02.34.01.34.01h.67l.34-.01.33-.01.34-.03.34-.02.33-.04.34-.03.33-.05.34-.05.34-.05.33-.06.34-.06.34-.06.33-.06.34-.06.34-.05.33-.05.34-.04.34-.04.33-.03.34-.02.34-.01.33-.01h.34l.34-.01h.67l.34-.01.33-.02.34-.01.34-.02.33-.03.34-.03.33-.03.34-.04.34-.05.33-.05.34-.05.34-.06.33-.06.34-.07.34-.07.33-.08.34-.08.34-.08.33-.09.34-.09.34-.09.33-.09.34-.1.34-.09.33-.09.34-.09.34-.1.33-.09.34-.09.34-.1.33-.1.34-.11.33-.11.34-.12.34-.12.33-.12.34-.13.34-.12.33-.13.34-.14.34-.13.33-.14.34-.14.34-.14.33-.15.34-.15.34-.15.33-.16.34-.15.34-.16.33-.16.34-.15.34-.14.33-.13.34-.11.33-.09.34-.05.34-.04h.33l.34.03.34.05.33.06.34.09.34.09.33.09.34.1.34.09.33.09.34.09.34.08.33.08.34.08.34.07.33.07.34.07.34.06.33.07.34.06.34.06.33.05.34.05.33.05.34.04.34.03.33.03.34.03.34.02.33.02.34.02.34.02.33.02.34.02.34.02.33.02.34.02.34.02.33.01.34.02h.34l.33.01h.34l.34-.01.33-.01.34-.01.34-.02.33-.02.34-.02.33-.03.34-.03.34-.03.33-.04.34-.04.34-.04.33-.04.34-.05.34-.05.33-.05.34-.06.34-.05.33-.05.34-.05.34-.05.33-.04.34-.04.34-.03.33-.02.34-.02.34-.02.33-.03.34-.02.34-.03.33-.03.34-.04.33-.04.34-.04.34-.05.33-.05.34-.05.34-.06.33-.06.34-.06.34-.07.33-.07.34-.07.34-.07.33-.08.34-.08.34-.08.33-.09.34-.08.34-.09.33-.09.34-.09.34-.1.33-.09.34-.1.33-.09.34-.09.34-.1.33-.09.34-.1.34-.1.33-.1.34-.1.34-.1.33-.11.34-.11.34-.12.33-.12.34-.13.34-.13.33-.13.34-.13.34-.14.33-.13.34-.14.34-.13.33-.14.34-.15.34-.15.33-.16.34-.16.33-.16.34-.16.34-.15.33-.16.34-.14.34-.12.33-.11.34-.08.34-.07.33-.06.34-.05.34-.04.33-.05.34-.05.34-.05.33-.05.34-.06.34-.07.33-.07.34-.09.34-.08.33-.09.34-.09.34-.08.33-.09.34-.09.33-.1.34-.09.34-.1.33-.1.34-.1.34-.1.33-.1.34-.11.34-.11.33-.12.34-.13.34-.12.33-.13.34-.11.34-.11.33-.11.34-.11.34-.13.33-.12.34-.13.34-.13.33-.12.34-.13.34-.13.33-.14.34-.13.33-.14.34-.14.34-.14.33-.15.34-.15.34-.15.33-.14.34-.15.34-.16.33-.17.34-.18.34-.17.33-.17.34-.17.34-.18.33-.18.34-.18.34-.17.33-.16.34-.16.34-.16.33-.16.34-.15.34-.14.33-.13.34-.14.33-.15.34-.15.34-.12.33-.13.34-.17.34-.17.33-.15.34-.15.34-.13.33-.27.34-.02"/><use xlink:href="#g" transform="matrix(4.5 0 0 4.5 363.06 62.72)"/><use xlink:href="#g" transform="matrix(4.5 0 0 4.5 107 7.51)"/></g><text fill="#000" stroke="none" stroke-linecap="round" stroke-linejoin="round" color="#000" font-family="Arial" font-size="8" transform="translate(128.3 25.11)"><tspan>Height</tspan></text><g fill="none" stroke="currentColor" stroke-linecap="round" stroke-linejoin="round" color="#000"><path stroke="#9F650D" stroke-dasharray="4.0,2.0,1.0,2.0" d="M91.3 22.51h31.4M33.56 84.93l.04.82.33 1.23.34-1.12.34-1.89.33-4.38.34-6.96.34-4.6.33 2.3.34 7.13.34 6.86.33 4.19.34 1.7.34-.19.33-1.5.34-2.05.33-1.95.34-1.68.34-1.53.33-1.96.34-3.15.34-4.44.33-4.64.34-3.03h.34l.33 3.1.34 5.02.34 5.38.33 4.62.34 3.4.34 2.13.33 1.03.34.24.34-.21.33-.45.34-.67.34-.96.33-1.22.34-1.33.33-1.15.34-.68.34-.1.33.3.34.35.34.03.33-.43.34-.85.34-1.18.33-1.46.34-1.8.34-2.24.33-2.72.34-3.1.34-3.22.33-2.92.34-2.14.34-.95.33.44.34 1.74.34 2.74.33 3.3.34 3.48.34 3.34.33 3.03.34 2.62.33 2.19.34 1.74.34 1.31.33.91.34.56.34.29.33.12.34.03h.34l.33.01.34-.03.34-.11.33-.25.34-.42.34-.57.33-.68.34-.71.34-.69.33-.64.34-.58.34-.51.33-.43.34-.34.34-.24.33-.15.34-.08.33-.04.34-.01.34-.01.33-.01.34-.01.34-.01.33-.03.34-.06.34-.14.33-.21.34-.31.34-.39.33-.46.34-.53.34-.6.33-.67.34-.77.34-.89.33-1.04.34-1.2.34-1.36.33-1.52.34-1.67.34-1.79.33-1.88.34-1.89.33-1.84.34-1.68.34-1.41.33-1.04.34-.56.34-.04.33.49.34.99.34 1.39.33 1.69.34 1.89.34 1.99.33 2.01.34 1.98.34 1.91.33 1.81.34 1.69.34 1.58.33 1.45.34 1.33.34 1.19.33 1.06.34.92.34.81.33.7.34.61.33.54.34.48.34.43.33.36.34.29.34.22.33.14.34.06.34.01.33-.04.34-.07.34-.08.33-.1.34-.11.34-.15.33-.18.34-.22.34-.24.33-.26.34-.25.34-.22.33-.19.34-.15.33-.13.34-.12.34-.13.33-.15.34-.17.34-.21.33-.22.34-.25.34-.27.33-.28.34-.29.34-.32.33-.34.34-.36.34-.38.33-.39.34-.39.34-.37.33-.36.34-.31.34-.26.33-.21.34-.14.34-.08.33-.01.34.05.33.1.34.13.34.14.33.14.34.13.34.12.33.11.34.09.34.08.33.05.34.04.34.01.33-.02.34-.05.34-.07.33-.1.34-.13.34-.14.33-.16.34-.19.34-.21.33-.23.34-.25.34-.27.33-.29.34-.29.33-.29.34-.27.34-.27.33-.25.34-.26.34-.27.33-.29.34-.32.34-.36.33-.41.34-.46.34-.52.33-.56.34-.63.34-.67.33-.72.34-.78.34-.81.33-.87.34-.9.34-.95.33-.98.34-1.01.34-1.03.33-1.06.34-1.05.33-1.05.34-1.03.34-.99.33-.92.34-.84.34-.71.33-.56.34-.39.34-.2.33.02.34.23.34.43.33.61.34.76.34.89.33.99.34 1.05.34 1.1.33 1.11.34 1.12.34 1.12.33 1.1.34 1.09.34 1.07.33 1.04.34 1.01.33.98.34.96.34.93.33.89.34.87.34.83.33.79.34.75.34.72.33.67.34.62.34.59.33.55.34.52.34.49.33.46.34.44.34.41.33.39.34.37.34.34.33.31.34.28.33.25.34.21.34.17.33.15.34.12.34.09.33.09.34.08.34.09.33.08.34.08.34.07.33.06.34.04.34.02.33-.01.34-.03.34-.04.33-.05.34-.05.34-.04.33-.02.34-.01.34.01.33.01.34.01h.33l.34-.01.34-.04.33-.05.34-.07.34-.06.33-.07.34-.06.34-.05.33-.06.34-.05.34-.07.33-.08.34-.09.34-.12.33-.13.34-.13.34-.13.33-.12.34-.1.34-.07.33-.04.34-.01.34.01.33.04.34.04.33.05.34.03.34.01h.33l.34-.04.34-.07.33-.09.34-.11.34-.14.33-.15.34-.15.34-.16.33-.16.34-.15.34-.15.33-.14.34-.15.34-.14.33-.16.34-.16.34-.17.33-.18.34-.19.34-.2.33-.21.34-.22.33-.22.34-.23.34-.23.33-.23.34-.24.34-.23.33-.21.34-.2.34-.18.33-.14.34-.12.34-.08.33-.04.34-.02h.34l.33.01.34.02.34.02.33.02.34.01.34.01h.33l.34.01.33.01.34.02.34.02.33.03.34.02.34.02.33.02h.34l.34-.01.33-.02.34-.03.34-.03.33-.03.34-.03.34-.02.33-.01h.34l.34.02.33.03.34.04.34.04.33.03.34.03.34.02.33.01.34-.01.33-.02.34-.03.34-.05.33-.05.34-.06.34-.07.33-.07.34-.07.34-.07.33-.06.34-.07.34-.06.33-.06.34-.06.34-.07.33-.07.34-.07.34-.08.33-.07.34-.07.34-.07.33-.04.34-.04.34-.01.33-.01h.67l.34-.01.34-.01.33-.03.34-.04.34-.06.33-.08.34-.09.34-.11.33-.12.34-.13.34-.14.33-.15.34-.17.34-.18.33-.2.34-.2.34-.23.33-.23.34-.25.34-.26.33-.27.34-.28.34-.3.33-.31.34-.32.33-.34.34-.36.34-.37.33-.38.34-.41.34-.41.33-.43.34-.44.34-.45.33-.45.34-.47.34-.47.33-.48.34-.49.34-.49.33-.51.34-.51.34-.52.33-.52.34-.53.34-.54.33-.54.34-.55.34-.54.33-.55.34-.56.33-.55.34-.55.34-.56.33-.55.34-.55.34-.54.33-.54.34-.52.34-.51.33-.49.34-.46.34-.41.33-.37.34-.3.34-.23.33-.15.34-.06.34.03.33.12.34.21.34.3.33.37.34.43.33.48.34.52.34.55.33.56.34.59.34.59.33.59.34.59.34.6.33.59.34.59.34.59.33.59.34.59.34.58.33.58.34.57.34.57.33.57.34.56.34.56.33.55.34.54.34.53.33.52.34.52.33.5.34.5.34.49.33.48.34.47.34.46.33.45.34.44.34.43.33.42.34.4.34.4.33.38.34.37.34.37.33.36.34.35.34.35.33.35.34.34.34.34.33.33.34.33.34.32.33.31.34.31.33.29.34.29.34.27.33.26.34.25.34.24.33.22.34.21.34.2.33.18.34.17.34.15.33.14.34.13.34.12.33.12.34.1.34.11.33.11.34.11.34.12.33.11.34.13.34.11.33.12.34.11.33.1.34.1.34.1.33.1.34.11.34.12.33.12.34.13.34.13.33.13.34.12.34.09.33.08.34.05.34.02.33.01.34-.01.34-.03.33-.03.34-.03.34-.02.33-.02.34-.01.34-.01h1l.34-.02.34-.03.33-.04.34-.07.34-.09.33-.1.34-.13.34-.14.33-.15.34-.15.34-.14.33-.14.34-.12.34-.1.33-.08.34-.06.34-.04.33-.04.34-.02.34-.03.33-.02.34-.03.33-.03.34-.03.34-.02.33-.02.34-.02.34-.01h.33l.34-.01h.34l.33-.01.34-.01.34-.02.33-.02.34-.02.34-.02.33-.01h.34l.34.01.33.02.34.03.34.02.33.03.34.02.34.02h1l.34-.02.34-.01.33-.02.34-.02.34-.02.33-.03.34-.04.34-.05.33-.05.34-.06.34-.06.33-.05.34-.04.34-.02.33-.02.34-.01.34-.01.33-.02.34-.04.34-.06.33-.08.34-.11.34-.13.33-.14.34-.15.33-.14.34-.12.34-.08.33-.06.34-.02.34-.01.33.02.34.01.34-.01.33-.02.34-.04.34-.07.33-.08.34-.08.34-.07.33-.06.34-.03.34-.02h.33l.34.02.34.03.33.03.34.03.34.03.33.01h.34l.33-.02.34-.04.34-.05.33-.06.34-.05.34-.06.33-.04.34-.03.34-.03.33-.03.34-.05.34-.06.33-.08.34-.1.34-.12.33-.13.34-.13.34-.13.33-.11.34-.1.34-.09.33-.08.34-.07.34-.08.33-.09.34-.11.33-.12.34-.12.34-.13.33-.12.34-.1.34-.09.33-.07.34-.06.34-.04.33-.05.34-.04.34-.04.33-.05.34-.05.34-.06.33-.07.34-.07.34-.07.33-.07.34-.07.34-.06.33-.06.34-.06.33-.07.34-.08.34-.12.33-.14.34-.14.34-.15.33-.12.34-.09.34-.03.33.01.34.07.34.11.33.14.34.15.34.15.33.14.34.11.34.09.33.06.34.03.34.01.33-.01.34-.02.34-.02.33-.02.34-.02.33-.02.34-.03.34-.03.33-.04.34-.03.34-.02.33-.01.34.02.34.06.33.08.34.09.34.1.33.08.34.04h.34l.33-.04.34-.07.34-.08.33-.08.34-.04.34-.01.33.04.34.07.34.08.33.08.34.06.33.03.34-.01.34-.05.33-.07.34-.08.34-.08.33-.06.34-.03h.34l.33.03.34.03.34.02.33.01.34-.02.34-.06.33-.08.34-.11.34-.13.33-.12.34-.13.34-.1.33-.09.34-.06.34-.03.33-.01.34.01.33.03.34.02.34.02.33.02.34.01.34.01.33.01.34-.01.34-.03.33-.07.34-.11.34-.15.33-.17.34-.16.34-.12.33-.07.34-.02.34.04.33.06.34.08.34.08.33.08.34.09.33.1.34.11.34.11.33.09.34.05h.34l.33-.04.34-.06.34-.04.33-.01.34.06.34.11.33.14.34.12.34.05.33-.05.34-.16.34-.25.33-.32.34-.34.34-.32.33-.26.34-.14h.34l.33.14.34.26.33.3.34.27.34.17.33.04.34-.1.34-.19.33-.22.34-.22.34-.15.33-.08.34-.01.34.04.33.05.34.04.34.02h.33l.34-.01.34-.02.33-.03.34-.07.34-.09.33-.12.34-.11.34-.11.33-.1.34-.1.33-.11.34-.12.34-.13.33-.11.34-.07.34-.02h.33l.34-.04.34-.1.33-.16.34-.17.34-.16.33-.11.34-.07.34-.06.33-.06.34-.07.34-.11.33-.15.34-.2.34-.21.33-.21.34-.26.34-.27.33-.24.34-.13.33-.04.34-.04.34-.11.33-.16.34-.15.34-.1.33-.1.34-.16.34-.22.33-.25.34-.23.34-.24.33-.26.34-.24.34-.21.33-.17.34-.16.34-.24.33-.33.34-.31.34-.17.33-.1.34-.27.34-.39.33-.21.34-.05.33-.18.34-.3.34-.28.33-.19.34-.24.34-.32.33-.21.34-.23.34-.25.33-.21h.34"/><use xlink:href="#c" color="#9F650D" transform="matrix(4.5 0 0 4.5 85.76 86.88)"/><use xlink:href="#c" color="#9F650D" transform="matrix(4.5 0 0 4.5 107 22.51)"/></g><text fill="#000" stroke="none" stroke-linecap="round" stroke-linejoin="round" color="#000" font-family="Arial" font-size="8" transform="translate(204.5 10.11)"><tspan>Weight</tspan></text><g fill="none" stroke="currentColor" stroke-linecap="round" stroke-linejoin="round" color="#000"><path stroke="#3B75EA" d="M167.5 7.51h31.4M33.56 143.42l.04-.02.33-.14.34.02.34.02.33.06.34.08.34-.12.33-.33.34-.25.34-.04.33.15.34.29.34.3.33.2.34.03.33-.09.34-.13.34-.07.33-.03.34-.02.34-.03.33-.01.34.02.34.03.33.01.34-.02.34-.06.33-.07.34-.07.34-.06.33-.04.34.02.34.07.33.09.34.09.34.06h.33l.34-.04.33-.07.34-.08.34-.07.33-.05.34-.04.34-.03.33-.01h.34l.34.02.33.02.34.03.34.02.33.01.34.01.34-.01.33-.01.34-.01.34-.01.33-.01.34.01.34.03.33.03.34.04.34.03.33.01h.34l.33-.01h.34l.34-.01h.67l.34.01.33.01.34.02.34.01h.67l.34-.01.33-.02.34-.01h.34l.33.01.34.01.34.02.33.02.34.02.34.02h.67l.34-.01.33-.02.34-.01.33-.01.34-.02h.34l.33-.01.34-.01.34-.02.33-.01h.34l.34-.01.33-.01h.34l.34-.01.33-.01.34-.01.34-.02.33-.02.34-.01.34-.02.33-.01h.68l.33.02.34.02.34.02.33.02.34.02.33.01.34-.01.34-.01.33-.02.34-.02.34-.02h.33l.34-.01.34.01.33.02.34.01.34.01.33.01.34-.01.34-.01.33-.01.34-.01.34-.01h.33l.34.01.34.02.33.02.34.04.34.04.33.03.34.04.33.02.34.02h.67l.34-.01.34-.02.33-.02.34-.02.34-.02.33-.03.34-.02.34-.01.33-.02.34-.02.34-.01.33-.02.34-.01.34-.01.33-.01h.34l.34.01.33.01.34.02.33.02.34.02.34.03.33.02.34.01.34.01.33.01.34-.01h.34l.33-.01.34-.02.34-.01.33-.01.34-.02h.34l.33-.01.34-.01h.34l.33-.01.34-.01h.67l.34-.01.34.01h.33l.34.01.33.02.34.01.34.02.33.01.34.02.34.01h.33l.34.01.34-.01h.33l.34-.02.34-.01.33-.02.34-.01.34-.01.33-.01h.68l.33.01.34.01.34.01.33.01.34.01h1.01l.33-.01h.34l.34-.01.33-.01h.34l.34-.01H109.99l.34.01h.33l.34.01.34.01H113.02l.34-.01h.33l.34-.01h2.69l.34.01h.33l.34.01h.34l.33.01.34.01h.34l.33.01.34.01h1.01l.34.01h.33l.34-.01h.67l.34-.01h.34l.33-.01.34-.01h.33l.34-.01h.34l.33-.01h.68l.33-.01h.34l.34-.01h.33l.34-.01h2.02l.34.01h.33l.34.01.34.01.33.01.34.01.33.01.34.01.34.01.33.01.34.01.34.01.33.01.34.01h.34l.33-.01h.34l.34-.01.33-.01.34-.01.34-.02.33-.01.34-.01h.34l.33-.01h1.35l.34.01h.33l.34.01h.67l.34.01h2.02l.33-.01h.68l.33-.01h.68l.33-.01h1.01l.34-.01h4.04l.33.01h1.01l.34.01h1.01l.34-.01h.67l.34-.01h.33l.34-.01h.34l.33-.01h.34l.34-.01h1.34l.34.01h.67l.34.01h.67l.34.01h1.34l.34.01h2.02l.34.01h1.34l.34-.01h1.34l.34.01h1.01l.34.01h4.37l.34-.01h.67l.34-.01h.33l.34-.01h.34l.33-.01h.34l.34-.01h.33l.34-.01h.67l.34.01.34.01h.33l.34.01.34.01.33.01.34.01h.34l.33.01h4.38l.33-.01h.68l.33-.01h2.36l.34.01h1.34l.34.01h2.69l.34-.01h1.34l.34.01h1.01l.34.01h.67l.34.01h2.69l.33-.01h.68l.33-.01h.34l.34-.01h.33l.34-.01h5.38l.34-.01h1.01l.34-.01h.67l.34-.01h.67l.34-.01H217.68l.34.01h.67l.34.01h1.01l.33.01h2.36l.34-.01h1.01l.33-.01h3.03l.34.01h.67l.34.01h.67l.34.01h1.34l.34.01h.67l.34.01h.34l.33.01.34.01h.34l.33.01h.34l.33.01h.68l.33.01.34-.01h1.01l.34-.01h.33l.34-.01.34-.01h.33l.34-.01h.34l.33-.01h.68l.33-.01h.68l.33-.01h.68l.33-.01h2.36l.33.01h.34l.34.01h.33l.34.01h.34l.33.01H249.32l.33-.01h.34l.34-.01h.33l.34-.01h.33l.34-.01h.34l.33-.01H255.04l.33.01h1.01l.34.01h3.36l.34-.01h4.71l.34.01h.34l.33.01h.34l.34.01h.33l.34.01h1.34l.34-.01h.34l.33-.01h.34l.34-.01h1.34l.34-.01H275.9l.34.01h.34l.33.01.34.01h.33l.34.01h.34l.33.01H280.28l.33.01.34-.01H282.63l.34-.01.34.01h2.02l.33-.01h.34l.33-.01.34-.01h.67l.34-.01.34.01h.67l.34.01h1.01l.33-.01h.68l.33-.01H293.07l.33.01h.34l.33.01h.68l.33.01h1.01l.34-.01h3.03l.34-.01h.67l.34.01H305.85l.34.01H307.87l.34-.01h.34l.33-.01h.34l.34-.01.33-.01.34-.01h.34l.33-.01.34-.01h.67l.34.01h.33l.34.01.34.01.33.01.34.01.34.01h1.01l.33-.01.34-.01h.34l.33-.01.34-.01.34-.01h.33l.34-.01h.34l.33.01h.34l.34.01h.33l.34.01.33.01.34.01.34.01.33.01.34.01h.34l.33.01.34-.01.34-.01.33-.01.34-.01.34-.01.33-.01.34-.01h.34l.33-.01h.34l.34-.01h1.01l.33.01H329.07l.34.01h.67l.34.01h3.03l.34.01h.33l.34.01.34.01H336.48l.33-.01.34.01h1.01l.34-.01h.33l.34-.01h.34l.33-.01h.34l.34-.01h.67l.34.01.33.01h.34l.34.01.33.01h1.01l.34.01h.34l.33.01.34.01h.67l.34.01h1.01l.33-.01.34-.01.34-.02.33-.01.34-.01.34-.01.33.01h2.02l.34.02.34.01h.33l.34-.01.34-.02.33-.02.34-.01.33.01.34.02.34.03.33.02.34.01h.34l.33-.02.34-.01.34-.01.33-.01.34-.01.34-.02h.33l.34.02.34.03.33.03h.34l.34-.01.33-.02.34-.01h1.01l.34.02h.33l.34-.01.33-.03.34-.01.34.02.33.01.34.01.34.03.33.03.34-.06.34-.03.33.12.34-.1"/><use xlink:href="#h" color="#3B75EA" transform="matrix(4.5 0 0 4.5 141.29 143.17)"/><use xlink:href="#h" color="#3B75EA" transform="matrix(4.5 0 0 4.5 183.2 7.51)"/></g><text fill="#000" stroke="none" stroke-linecap="round" stroke-linejoin="round" color="#000" font-family="Arial" font-size="8" transform="translate(204.5 25.11)"><tspan>Log</tspan></text><g fill="none" stroke="currentColor" stroke-linecap="round" stroke-linejoin="round" color="#000"><path stroke="#29C3F6" stroke-dasharray="4.5,2.0,0.5,2.0,0.5,2.0" d="M167.5 22.51h31.4M33.56 153.61l.04.02.33-.23.34-.23.34-.11.33.17.34.25.34-.04.33-.23.34-.11.34.01.33.05.34.1.34.16.33.13.34.02.33-.05.34-.02.34.05.33.09.34.03.34-.05.33-.09.34-.04.34-.01.33-.02.34-.05.34-.07.33-.06.34-.04.34-.05.33-.04.34-.02.34.03.33.06.34.07.34.06.33.03.34.01.33-.04.34-.06.34-.08.33-.08.34-.03h.34l.33.02.34.03.34.03.33.04.34.05.34.06.33.05.34.01.34-.03.33-.05.34-.06.34-.04.33-.01.34.03.34.05.33.07.34.07.34.05.33.03h1.01l.34.01.33.02.34.02.34.02.33.01h.34l.34-.03.33-.03.34-.04.34-.04.33-.03.34-.01h.34l.33.01h.34l.34.01h1.01l.33-.01.34-.01.34-.02.33-.02.34-.02.33-.02.34-.02.34-.02.33-.02.34-.02.34-.01h.67l.34.01h.33l.34.01.34.01.33.01.34.01.34.01.33.01h.34l.34.01.33.01.34.01h.34l.33.01h.34l.34.01h.33l.34-.01.33-.01.34-.02.34-.03.33-.03.34-.03.34-.02.33-.02.34-.01h.67l.34.01h.34l.33-.01h1.35l.34.01.33.01.34.02.34.03.33.02.34.03.34.03.33.04.34.02.33.03.34.01.34.01.33-.01h.34l.34-.02.33-.01.34-.02.34-.01.33-.01.34-.01.34-.01.33-.01h.34l.34-.02.33-.01.34-.02.34-.02.33-.01h.68l.33.01.34.02.33.02.34.02.34.02.33.01.34.01.34.01h.33l.34-.01.34-.01.33-.01.34-.01.34-.01.33-.01h2.02l.34-.01.34-.01h.33l.34-.01h.34l.33.01.34.01.33.01.34.01.34.01.33.01h.68l.33-.01h.34l.34-.01.33-.01.34-.01.34-.01.33-.01.34-.01h1.01l.34.01.33.01.34.01.34.01.33.02.34.01.34.01.33.01h1.35l.33-.01.34-.01.34-.01.33-.01h.34l.34-.01h1.01l.33.01h.34l.34.01h1.34l.34-.01h.34l.33-.01h.34l.34-.01h2.35l.34.01h.33l.34.01h.34l.33.01.34.01H120.42l.34-.01h.34l.33-.01h1.01l.34-.01h.67l.34-.01h.33l.34-.01h.34l.33-.01h.34l.34-.01h.33l.34-.01h.67l.34-.01h.67l.34.01h.34l.33.01.34.01.34.01.33.01.34.01h.34l.33.01.34.01h.33l.34.01h.34l.33.01h.34l.34.01h1.01l.33-.01.34-.01.34-.01.33-.01.34-.01h.34l.33-.01.34-.01h.67l.34.01h.34l.33.01.34.01.34.01h.33l.34.01.33.01h2.02l.34-.01h.34l.33-.01h.34l.34-.01h.67l.34-.01h.67l.34-.01h2.69l.33.01h1.01l.34.01h1.35l.33.01h.34l.34-.01h.67l.34-.01h.33l.34-.01.34-.01h.33l.34-.01H157.44l.34.01h.33l.34.01h.34l.33.01.34.01h.34l.33.01h1.35l.34-.01h1.01l.33-.01h2.36l.33.01H167.54l.33.01h.68l.33.01h.68l.33.01h1.35l.34.01h1.34l.34-.01h.67l.34-.01h.33l.34-.01h.67l.34-.01h.34l.33-.01h.34l.34-.01h2.02l.33.01h.34l.34.01.33.01h.34l.34.01.33.01h.34l.34.01h.33l.34.01h.33l.34.01h.34l.33.01h.68l.33-.01h.34l.34-.01.33-.01h.34l.34-.01.33-.01.34-.01h2.36l.33.01h1.35l.33.01h1.01l.34.01h4.71l.34.01h.34l.33.01h.34l.34.01h1l.34-.01h.67l.34-.01h.34l.33-.01h.34l.34-.01h.67l.34-.01h2.02l.33.01h1.01l.34-.01h.67l.34-.01.33-.01h.34l.34-.01h.33l.34-.01h2.36l.33-.01h1.01l.34-.01h.34l.33-.01H217.34l.34.01h.34l.33.01.34.01h.34l.33.01h.34l.34.01h.33l.34.01h1.35l.33-.01h1.01l.34-.01h3.03l.33.01h2.02l.34-.01h2.36l.33.01h.34l.34.01h.33l.34.01.34.01h.67l.33.01h.68l.33-.01h.68l.33-.01h.34l.34-.01h1.01l.33-.01h1.01l.34-.01h.34l.33-.01H244.6l.34.01h.67l.34.01h.34l.33.01h.34l.34.01h.67l.34.01h1.34l.34-.01H251l.33-.01h.34l.34-.01h.33l.34-.01.34-.01h.33l.34-.01H255.37l.34.01h.34l.33.01h.34l.34.01.33.01.34.01h.34l.33.01h1.01l.34-.01h.33l.34-.01h.34l.33-.01h.34l.34-.01h4.04l.33.01h.68l.33.01h.34l.34.01H269.84l.34-.01h.67l.34-.01h.34l.33-.01h.34l.34-.01h.33l.34-.01h.34l.33-.01H275.57l.33.01h.34l.34.01h.33l.34.01.33.01h.68l.33.01h.68l.33.01h.68l.33.01h2.36l.34.01h.67l.34.01h.67l.34-.01h.33l.34-.01.33-.01.34-.01.34-.01h.33l.34-.01h.67l.34-.01h2.02l.34-.01h.67l.34.01h.33l.34.01h.34l.33.01.34.01.33.01.34.01h2.02l.34-.01H300.47l.34-.01h.33l.34.01h4.04l.33.01h2.02l.34-.01.34-.01.33-.01.34-.01.34-.01.33-.01.34-.01h.34l.33-.01h.34l.33.01.34.01.34.01.33.01.34.01.34.01.33.01h.68l.33-.01h.34l.34-.01.33-.01h.34l.34-.01h.33l.34-.01h1.35l.33.01h.34l.34.01.33.01h.34l.33.01.34.01h.34l.33.01h1.35l.34-.01h.33l.34-.01.34-.01h.67l.34-.01h.33l.34-.01.34-.01h.33l.34-.01h.67l.34-.01h1.01l.33.01h.68l.33.01h1.35l.34-.01h1.01l.33.01.34.01.34.01.33.01.34.01.34.01.33.01h.68l.33-.01h.67l.34.01h.34l.33.01h.34l.34-.01.33-.01.34-.01.34-.02.33-.01.34-.01.34-.01.33.01.34.01.34.01.33.02.34.01.34.01.33.01h.34l.34-.01h.33l.34-.01h1.01l.33-.01h1.35l.34-.01.33-.01.34-.01h1.01l.34.01.33.01h.68l.33-.01.34-.01.34-.01.33.01.34.01.34.01h.67l.34-.02.33-.03.34-.01h.33l.34.02.34.03.33.02.34.02h.34l.33-.01.34-.01h1.01l.34-.01.33-.01h.34l.34.01.33.02h.68l.33-.01.34.01.34.01.33-.01.34-.02h.34l.33.02h.34l.33-.01.34-.02.34.04.33.02.34-.02.34-.01.33.03.34-.07.34-.04.33.11.34.12"/><use xlink:href="#b" color="#29C3F6" transform="matrix(4.5 0 0 4.5 196.82 153.35)"/><use xlink:href="#b" color="#29C3F6" transform="matrix(4.5 0 0 4.5 183.2 22.51)"/></g><text fill="#000" stroke="none" stroke-linecap="round" stroke-linejoin="round" color="#000" font-family="Arial" font-size="8" transform="translate(280.7 10.11)"><tspan>Cost</tspan></text><g fill="none" stroke="currentColor" stroke-linecap="round" stroke-linejoin="round" color="#000"><path stroke="#00C853" stroke-dasharray="2.5,4.0" d="M243.7 7.51h31.4M33.56 95.97l.04.21.33.98h.34l.34-.95.33-1.55.34-1.38.34-.66.33.2.34.85.34 1.19.33 1.24.34 1.02.34.55.33-.02.34-.48.33-.76.34-.85.34-.83.33-.81.34-.76.34-.57.33-.31.34-.02.34.19.33.36.34.48.34.56.33.6.34.61.34.58.33.5.34.44.34.36.33.29.34.21.34.11.33-.03.34-.17.33-.3.34-.39.34-.42.33-.44.34-.43.34-.43.33-.42.34-.43.34-.41.33-.39.34-.33.34-.26.33-.19.34-.13.34-.08.33-.04h.34l.34.06.33.14.34.21.34.26.33.29.34.3.34.29.33.28.34.28.33.29.34.29.34.3.33.3.34.3.34.29.33.27.34.24.34.21.33.16.34.12.34.06.33.01.34-.02.34-.05.33-.06.34-.06.34-.05.33-.04.34-.03.34-.04.33-.05.34-.07.34-.09.33-.12.34-.13.33-.15.34-.18.34-.19.33-.2.34-.21.34-.22.33-.22.34-.23.34-.21.33-.21.34-.19.34-.17.33-.17.34-.16.34-.16.33-.16.34-.15.34-.16.33-.15.34-.13.34-.11.33-.08.34-.06.34-.04.33-.04.34-.04.33-.03.34-.03.34-.01h.33l.34.04.34.06.33.08.34.09.34.1.33.11.34.1.34.11.33.11.34.12.34.13.33.13.34.14.34.16.33.15.34.17.34.16.33.17.34.17.34.17.33.16.34.16.33.16.34.15.34.15.33.15.34.14.34.14.33.12.34.12.34.09.33.09.34.07.34.07.33.06.34.06.34.06.33.06.34.05.34.05.33.04.34.04.34.03.33.02.34.02.33.02.34.01.34.01.33.02h.34l.34.01h.33l.34-.01.34-.02.33-.03.34-.04.34-.04.33-.05.34-.05.34-.06.33-.05.34-.06.34-.06.33-.08.34-.08.34-.09.33-.1.34-.11.34-.1.33-.1.34-.1.33-.09.34-.09.34-.08.33-.08.34-.07.34-.07.33-.07.34-.08.34-.07.33-.08.34-.08.34-.08.33-.09.34-.09.34-.09.33-.09.34-.09.34-.09.33-.1.34-.09.34-.1.33-.09.34-.1.34-.09.33-.08.34-.08.33-.08.34-.07.34-.06.33-.06.34-.06.34-.05.33-.06.34-.06.34-.06.33-.07.34-.07.34-.06.33-.07.34-.05.34-.06.33-.04.34-.03.34-.03.33-.03.34-.02.34-.02.33-.02.34-.02.34-.02.33-.03.34-.02.33-.03.34-.02.34-.01.33-.01h.34l.34.01.33.02.34.02.34.04.33.04.34.05.34.05.33.05.34.05.34.06.33.05.34.05.34.04.33.05.34.04.34.05.33.05.34.05.34.07.33.07.34.07.33.08.34.08.34.08.33.09.34.08.34.08.33.07.34.08.34.08.33.07.34.07.34.08.33.07.34.06.34.07.33.06.34.07.34.06.33.07.34.07.34.07.33.07.34.07.33.07.34.07.34.07.33.06.34.06.34.06.33.05.34.05.34.05.33.05.34.04.34.04.33.05.34.04.34.05.33.05.34.05.34.05.33.05.34.05.34.06.33.05.34.06.34.06.33.05.34.06.33.06.34.05.34.05.33.03.34.04.34.02.33.01h.68l.33-.01.34-.01.34-.01.33-.01.34-.01h.67l.34.01.34.01.33.02.34.02.34.03.33.03.34.03.34.03.33.03.34.03.33.03.34.02.34.03.33.02.34.01h.67l.34-.01.34-.01.33-.02.34-.03.34-.04.33-.03.34-.04.34-.03.33-.04.34-.03.34-.03.33-.02.34-.02.34-.02.33-.02.34-.01.34-.02.33-.02.34-.02.33-.03.34-.02.34-.02.33-.03.34-.02.34-.03.33-.02.34-.03.34-.02.33-.02.34-.03.34-.03.33-.03.34-.03.34-.04.33-.04.34-.04.34-.04.33-.05.34-.05.34-.06.33-.05.34-.05.33-.04.34-.05.34-.04.33-.04.34-.04.34-.03.33-.03.34-.04.34-.03.33-.03.34-.03.34-.04.33-.03.34-.04.34-.04.33-.03.34-.04.34-.04.33-.03.34-.04.34-.04.33-.04.34-.04.34-.04.33-.05.34-.05.33-.05.34-.05.34-.05.33-.05.34-.06.34-.05.33-.05.34-.05.34-.05.33-.05.34-.04.34-.04.33-.04.34-.04.34-.04.33-.03.34-.03.34-.03.33-.03.34-.03.34-.03.33-.02.34-.02.34-.02.33-.02.34-.02.33-.02.34-.02.34-.02.33-.03.34-.02.34-.03.33-.04.34-.04.34-.04.33-.04.34-.05.34-.05.33-.05.34-.05.34-.05.33-.04.34-.03.34-.03.33-.02.34-.02.34-.02.33-.01h.34l.34-.01h.33l.34-.01h.67l.34-.01.33-.01h.34l.34-.01.33-.01.34-.01.34-.01.33-.01.34-.01.34-.01.33-.01.34-.01.34-.01.33-.01.34-.01.34-.01.33-.02.34-.02.34-.03.33-.02.34-.03.34-.02.33-.03.34-.02.33-.03.34-.02.34-.03.33-.02.34-.03.34-.02.33-.02.34-.01.34-.01.33-.01h.68l.33.01.34.01.34.02.33.02.34.02.34.03.33.02.34.03.34.02.33.02.34.02.33.02.34.02.34.02.33.01.34.02.34.03.33.02.34.03.34.03.33.03.34.03.34.03.33.03.34.03.34.03.33.04.34.03.34.03.33.04.34.04.34.04.33.03.34.04.34.04.33.03.34.04.33.03.34.03.34.03.33.03.34.02.34.03.33.02.34.03.34.02.33.02.34.03.34.02.33.03.34.03.34.03.33.03.34.03.34.04.33.03.34.03.34.03.33.04.34.03.34.03.33.03.34.03.33.03.34.03.34.03.33.03.34.03.34.03.33.03.34.03.34.04.33.03.34.03.34.04.33.03.34.03.34.04.33.03.34.04.34.03.33.04.34.04.34.04.33.04.34.04.34.04.33.04.34.04.33.03.34.04.34.04.33.04.34.04.34.03.33.04.34.04.34.03.33.04.34.03.34.03.33.02.34.03.34.02.33.03.34.02.34.02.33.03.34.02.34.03.33.03.34.02.34.03.33.02.34.02.33.01.34.02h.34l.33.01.34.01h.34l.33.01.34.01.34.02.33.01.34.02.34.03.33.02.34.03.34.02.33.02.34.02.34.02.33.02.34.01.34.01.33.01.34.01h.33l.34.01.34.02.33.01.34.02.34.02.33.02.34.02.34.01.33.02.34.02.34.01.33.02.34.02.34.02.33.02.34.02.34.02.33.02.34.02.34.01.33.02.34.01.34.01h1l.34-.01.34.01h.33l.34.01.34.01.33.02.34.02.34.02.33.02.34.02.34.02.33.01.34.01.34.01h.67l.34-.01h.33l.34-.01.34-.01.33-.01.34-.01.34-.02.33-.02.34-.03.33-.02.34-.02.34-.01.33-.01h.68l.33.02.34.02.34.02.33.01.34.02.34.01h.33l.34-.01.34-.01.33-.02.34-.01.34-.01.33-.01.34-.01H276.91l.34-.01.33-.02.34-.02.34-.02.33-.02.34-.02.34-.02.33-.02.34-.02.34-.02.33-.01.34-.01.34-.02h.33l.34-.01h.67l.34.01.34.01.33.01.34.01h.34l.33.01h1.01l.34-.01.33-.02.34-.02.34-.02.33-.03.34-.03.34-.04.33-.03.34-.03.34-.02.33-.02.34-.02.34-.01.33-.01.34-.01h.34l.33-.01h.68l.33-.01.34-.01.34-.01.33-.01.34-.02.33-.02.34-.03.34-.02.33-.03.34-.02.34-.02.33-.01.34-.02.34-.01.33-.01.34-.01.34-.01.33-.01.34-.02.34-.02.33-.02.34-.03.34-.03.33-.03.34-.03.34-.02.33-.02.34-.02.34-.01.33-.01.34-.01h.33l.34-.01.34-.01.33-.01.34-.01.34-.01.33-.02.34-.02.34-.02.33-.02.34-.03.34-.02.33-.02.34-.02.34-.02.33-.02.34-.03.34-.02.33-.03.34-.03.34-.03.33-.03.34-.02.34-.02.33-.02.34-.01.33-.02.34-.01.34-.02.33-.01.34-.02.34-.02.33-.02.34-.01.34-.02.33-.02.34-.02.34-.02.33-.02.34-.02.34-.02.33-.02.34-.01.34-.02.33-.01.34-.01.34-.01.33-.01.34-.01.34-.02.33-.02.34-.02.33-.02.34-.03.34-.02.33-.03.34-.02.34-.02.33-.02.34-.03.34-.02.33-.03.34-.03.34-.02.33-.03.34-.02.34-.02.33-.02.34-.01.34-.02.33-.02.34-.02.34-.02.33-.02.34-.01.33-.02.34-.01.34-.01.33-.01.34-.01.34-.02.33-.02.34-.03.34-.03.33-.02.34-.03.34-.01.33-.01.34-.01h.34l.33-.01h.34l.34-.01.33-.01.34-.01.34-.01.33-.01.34-.01.34-.01.33-.01.34-.01h.33l.34-.01.34-.01.33-.01.34-.01.34-.02.33-.02.34-.04.34-.03.33-.03.34-.02.34-.02.33-.01.34-.02.34-.01.33-.02.34-.01.34-.01.33-.02.34-.01.34-.02h.33l.34-.02.34-.02.33-.02.34-.02.33-.02h.34l.34.01.33.01.34.01.34.01h.67l.34-.02.33-.04.34-.05.34-.07.33-.04.34-.03h.34l.33.02.34.03.34.02.33.02.34.01.34.01.33-.01.34-.02.34-.04.33-.05.34-.04.33-.02h1.01l.34-.01.34-.04.33-.06.34-.06.34-.03.33-.02.34-.03.34-.03h.33l.34.02h.34l.33-.03.34-.05.34-.04.33-.01.34.01.34.04.33.11.34.11.34.02.33-.04.34-.07.33-.13.34-.12.34.09.33.18.34.09.34.16.33-.01.34-.2.34-.11.33.26.34-.57"/><use xlink:href="#f" color="#00C853" transform="matrix(4.5 0 0 4.5 252.34 96.33)"/><use xlink:href="#f" color="#00C853" transform="matrix(4.5 0 0 4.5 259.4 7.51)"/></g><path fill="none" stroke="none" stroke-linecap="round" stroke-linejoin="round" stroke-width="0" d="M33.56 36.01V164M366.43 36.01H33.56" color="#000"/></svg>