<svg xmlns="http://www.w3.org/2000/svg" xmlns:xlink="http://www.w3.org/1999/xlink" viewBox="0 0 400 250"><path fill="none" d="M0 0h400v250H0z"/><defs><path id="d" stroke="currentColor" stroke-width=".267" d="M-1 0h2M0-1v2"/><path id="e" stroke="currentColor" stroke-width=".267" d="m-1-1 2 2m0-2-2 2"/><path id="c" stroke="currentColor" stroke-width=".267" d="M-1-1h2v2h-2z"/><path id="b" stroke="currentColor" stroke-width=".267" d="m0-1.33-1.33 2h2.66z"/><circle id="a" cx="0" cy="0" r="1" stroke="currentColor" stroke-width=".267"/><use xlink:href="#a" id="f" fill="currentColor" stroke="none"/></defs><path fill="none" stroke="#333" stroke-linecap="round" stroke-linejoin="round" stroke-width=".1" d="M46.1 205V45.01" class="gridline" color="#000"/><g fill="none" stroke-linecap="round" stroke-linejoin="round" stroke-width="0" color="#000"><path d="M46.1 205v-7.5m0-152.49v7.5"/><text fill="#000" font-family="KaTeX_Main" font-size="10" text-anchor="middle" transform="translate(46.1 215.75)"><tspan> 1</tspan></text></g><path fill="none" stroke="#333" stroke-linecap="round" stroke-linejoin="round" stroke-width=".1" d="M82.31 205V45.01" class="gridline" color="#000"/><g fill="none" stroke-linecap="round" stroke-linejoin="round" stroke-width="0" color="#000"><path d="M82.31 205v-7.5m0-152.49v7.5"/><text fill="#000" font-family="KaTeX_Main" font-size="10" text-anchor="middle" transform="translate(82.31 215.75)"><tspan> 2</tspan></text></g><path fill="none" stroke="#333" stroke-linecap="round" stroke-linejoin="round" stroke-width=".1" d="M118.52 205V45.01" class="gridline" color="#000"/><g fill="none" stroke-linecap="round" stroke-linejoin="round" stroke-width="0" color="#000"><path d="M118.52 205v-7.5m0-152.49v7.5"/><text fill="#000" font-family="KaTeX_Main" font-size="10" text-anchor="middle" transform="translate(118.52 215.75)"><tspan> 3</tspan></text></g><path fill="none" stroke="#333" stroke-linecap="round" stroke-linejoin="round" stroke-width=".1" d="M154.73 205V45.01" class="gridline" color="#000"/><g fill="none" stroke-linecap="round" stroke-linejoin="round" stroke-width="0" color="#000"><path d="M154.73 205v-7.5m0-152.49v7.5"/><text fill="#000" font-family="KaTeX_Main" font-size="10" text-anchor="middle" transform="translate(154.73 215.75)"><tspan> 4</tspan></text></g><path fill="none" stroke="#333" stroke-linecap="round" stroke-linejoin="round" stroke-width=".1" d="M190.94 205V45.01" class="gridline" color="#000"/><g fill="none" stroke-linecap="round" stroke-linejoin="round" stroke-width="0" color="#000"><path d="M190.94 205v-7.5m0-152.49v7.5"/><text fill="#000" font-family="KaTeX_Main" font-size="10" text-anchor="middle" transform="translate(190.94 215.75)"><tspan> 5</tspan></text></g><path fill="none" stroke="#333" stroke-linecap="round" stroke-linejoin="round" stroke-width=".1" d="M227.15 205V45.01" class="gridline" color="#000"/><g fill="none" stroke-linecap="round" stroke-linejoin="round" stroke-width="0" color="#000"><path d="M227.15 205v-7.5m0-152.49v7.5"/><text fill="#000" font-family="KaTeX_Main" font-size="10" text-anchor="middle" transform="translate(227.15 215.75)"><tspan> 6</tspan></text></g><path fill="none" stroke="#333" stroke-linecap="round" stroke-linejoin="round" stroke-width=".1" d="M263.36 205V45.01" class="gridline" color="#000"/><g fill="none" stroke-linecap="round" stroke-linejoin="round" stroke-width="0" color="#000"><path d="M263.36 205v-7.5m0-152.49v7.5"/><text fill="#000" font-family="KaTeX_Main" font-size="10" text-anchor="middle" transform="translate(263.36 215.75)"><tspan> 7</tspan></text></g><path fill="none" stroke="#333" stroke-linecap="round" stroke-linejoin="round" stroke-width=".1" d="M299.57 205V45.01" class="gridline" color="#000"/><g fill="none" stroke-linecap="round" stroke-linejoin="round" stroke-width="0" color="#000"><path d="M299.57 205v-7.5m0-152.49v7.5"/><text fill="#000" font-family="KaTeX_Main" font-size="10" text-anchor="middle" transform="translate(299.57 215.75)"><tspan> 8</tspan></text></g><path fill="none" stroke="#333" stroke-linecap="round" stroke-linejoin="round" stroke-width=".1" d="M335.78 205V45.01" class="gridline" color="#000"/><g fill="none" stroke-linecap="round" stroke-linejoin="round" stroke-width="0" color="#000"><path d="M335.78 205v-7.5m0-152.49v7.5"/><text fill="#000" font-family="KaTeX_Main" font-size="10" text-anchor="middle" transform="translate(335.78 215.75)"><tspan> 9</tspan></text></g><path fill="none" stroke="#333" stroke-linecap="round" stroke-linejoin="round" stroke-width=".1" d="M371.99 205V45.01" class="gridline" color="#000"/><g fill="none" stroke-linecap="round" stroke-linejoin="round" stroke-width="0" color="#000"><path d="M371.99 205v-7.5m0-152.49v7.5"/><text fill="#000" font-family="KaTeX_Main" font-size="10" text-anchor="middle" transform="translate(371.99 215.75)"><tspan> 10</tspan></text></g><g fill="none" stroke-linecap="round" stroke-linejoin="round" stroke-width="0" color="#000"><path d="M371.99 205h-7.5"/><text fill="#000" font-family="KaTeX_Main" font-size="10" transform="translate(378.99 208.25)"><tspan>0</tspan></text></g><g fill="none" stroke-linecap="round" stroke-linejoin="round" stroke-width="0" color="#000"><path d="M371.99 45.01h-7.5"/><text fill="#000" font-family="KaTeX_Main" font-size="10" transform="translate(378.99 48.26)"><tspan>1</tspan></text></g><path fill="none" d="M28 45.01V205M371.99 45.01H28" color="#000"/><text stroke-linecap="round" stroke-linejoin="round" stroke-width="0" color="#000" font-family="KaTeX_Main" font-size="10" text-anchor="middle" transform="rotate(-90 68.255 56.755)"><tspan>log</tspan><tspan dy="3" font-size="8">2</tspan><tspan dy="-3">(</tspan><tspan font-weight="bold">MaximumPathLength </tspan><tspan> / log</tspan><tspan dy="3" font-size="8">2</tspan><tspan dy="-3">(Size))</tspan></text><text stroke-linecap="round" stroke-linejoin="round" stroke-width="0" color="#000" font-family="KaTeX_Main" font-size="10" text-anchor="middle" transform="translate(199.99 238.25)"><tspan>Operations × 10</tspan><tspan dy="-5" font-size="8">5</tspan></text><text stroke-linecap="round" stroke-linejoin="round" color="#000" font-family="KaTeX_Main" font-size="8" transform="translate(99.2 10.11)"><tspan>AVLBottomUp</tspan></text><g fill="none" stroke="currentColor" stroke-linecap="round" stroke-linejoin="round" color="#000"><path stroke="#000" d="M63.7 7.51h29.9M28 182.61l.36.42.36.41.37.41.36.39.36.39.36.38.36.37.37-2.3.36.36.36.36.36.34.37.34.36.34.36.32.36.33.36-4.93.37.31.36.31.36.3.36-2.28.36.3.37.28.36.29.36.28.36.27.36.28.37.26.36.27.36.26.36.26.36.25.37.25.36-2.3.36.24.36.24.37.24.36.23.36.24.36.23.36.22.37.23.36.22.36.21.36.22.36.21.37.21.36.21.36.21.36-2.32.36.2.37-.12.36-.12.36 2.4.36-.12.37-.13.36-.13.36-.13.36-.13.36-.14.37-.14.36-.15.36-.14.36-.15.36-.15.37-.15.36-.16.36-.16.36-.16.36-.17.37-.17.36-.17.36-.17.36 2.39.37-.18.36-.19.36-.18.36-.19.36-.2.37-.2.36 2.4.36-.2.36-.21.36-.22.37-.21.36-.23.36-.23.36-.23.36-.24.37-.24.36-.25.36-.25.36-.27.36-.26.37-.27.36 2.38.36-.29.36-.29.37-.29.36-.31.36 2.38.36.36.36-2.09.37.35.36.33.36.34.36.32.36.32.37.32.36.31.36.3.36.3.36.29.37-2.36.36.28.36-2.34.36.27.37.27.36.27.36.26.36.26.36.26.37.25.36.25.36.24.36-2.35.36.24.37.23.36.24.36.23.36.22.36-2.33.37.22.36.21.36.22.36.21.36.21.37.21.36.2.36.2.36.21.37.19.36.2.36-2.34.36.2.36.19.37.18.36.19.36.18.36.18.36.18.37-.14.36-.14.36-.15.36-.14.36-.15.37-.15.36-.15.36-.16.36-.16.37-.16.36-.16.36-.17.36-.16.36-.17.37-.17.36-.18.36-.17.36 2.35.36-.18.37-.18.36-.19.36-.19.36 2.38.36 2.4.37-.2.36-.2.36-.21.36-.2.36-.22.37-.21.36-.22.36-.23.36-.23.37-.23.36-.23.36-.24.36-.25.36-.25.37-.26.36-.26.36-.26.36-.28.36-.27.37 2.36.36-.28.36-.3.36-.3.36-.31.37 2.37.36-.32.36.36.36.34.37.34.36.33.36-2.36.36.32.36.31.37.3.36.3.36.3.36.29.36.29.37.28.36-2.37.36.27.36.27.36.26.37-4.66.36.26.36.25.36.24.37.25.36.23.36.24.36.23.36.23.37.23.36.22.36.22.36-2.34.36.22.37.21.36.21.36.21.36.2.36.2.37.2.36.2.36.19.36.2.36.19.37.18.36.19.36.18.36.18.37-2.34.36.18.36.18.36.17.36.17.37-.14.36-.15.36-.15.36-.16.36-.15.37-.16.36-.16.36-.16.36-.16.36-.17.37-.16.36-.17.36-.17.36-.18.37-.18.36-.17.36-.19.36-.18.36-.19.37-.19.36-.19.36-.2.36-.2.36 2.33.37 2.36.36-.21.36-.21.36-.21.36-.22.37-.22.36-.23.36-.23.36-.23.36-.24.37-.24.36-.24.36 2.35.36-.26.37-.26.36-.26.36-.27.36-.27.36-.28.37-.29.36-.29.36-.3.36-.31.36 2.33.37-.31.36 2.35.36-2.33.36.34.36.33.37.32.36.32.36.32.36.3.37.3.36.3.36.29.36.28.36.28.37-2.36.36.27.36-2.33.36.26.36-2.31.37.25.36.25.36.25.36.25.36.24.37.23.36.24.36.23.36.22.36.22.37.23.36.21.36.22.36.21.37.21.36.2.36.21.36.2.36.2.37.19.36-2.34.36.2.36.19.36.18.37.19.36.18.36.18.36.18.36.18.37.17.36.18.36.17.36.17.37-.15.36-.16.36-.15.36-.16.36-.16.37-.16.36-.16.36-.17.36-.16.36-.17.37-.17.36-.18.36-.17.36-.18.36-.18.37-.19.36 2.36.36-.19.36-.19.37-.2.36-.2.36-.19.36-.21.36-.2.37-.21.36-.21.36-.22.36-.22.36-.22.37-.23.36 2.35.36-.23.36-.24.36-.24.37-.24.36 2.36.36-.26.36-.25.36-.27.37-.27.36-.27.36-.28.36-2.49.37-.28.36-.3.36-.3.36 2.32.36-.31.37-.32.36-.32.36.34.36.34.36.32.37.32.36.32.36.31.36.3.36.3.37.29.36.29.36.28.36.27.37-2.34.36.26.36.27.36-2.33.36.25.37.25.36.25.36-2.31.36.24.36.24.37.23.36.23.36.23.36.22.36.22.37.22.36.21.36.21.36.21.36.2.37.21.36.2.36.2.36.19.37.19.36.2.36.18.36.19.36.18.37.19.36.18.36.17.36.18.36.17.37.18.36.17.36.16.36-2.34.36-.16.37-.15.36-.16.36-.15.36-.16.37-.16.36-.17.36 2.35.36-.16.36-.17.37-.17.36-.18.36-.17.36-.18.36-.18.37-.19.36-.18.36 2.36.36-.19.36-.19.37-.2.36-.2.36-.2.36-.2.37-.21.36-.22.36-.21.36-.22.36-.22.37-.23.36-.22.36-.24.36-.24.36-.23.37-.25.36 2.34.36-.25.36-.26.36-.26.37-.27.36-.27.36-.28.36-.28.36-.29.37-.3.36 2.33.36-.3.36-.32.37-.32.36-.33.36.35.36.33.36.33.37.32.36.31.36.31.36.3.36.3.37.29.36.28.36.28.36-2.35.36.27.37-2.33.36.27.36.25.36.26.37.25.36.24.36.25.36.24.36.23.37-2.33.36.23.36.23.36.22.36.22.37.21.36.22.36.21.36.21.36.2.37.2.36.2.36.2.36.2.36.19.37.19.36.18.36-2.34.36.19.37.18.36.18.36.18.36.17.36.17.37.17.36.18.36.16.36.17.36-.16.37-.15.36-.16.36-.16.36-.16.36-.16.37-.17.36-.17.36 2.36.36-.17.37-.17.36-.18.36 2.38.36-.18.36-.18.37-.19.36-.18.36-.19.36-.2.36-.19.37-.2.36-.2.36-.21.36-.2.36 2.38.37-.21.36-.22.36-.22.36-.22.36-.23.37-.23.36-.23.36-.24.36-.24.37-.25.36-.25.36-.25.36-.26.36-.27.37-.27.36-.27.36-.28.36-.29.36-.29.37 2.34.36-.3.36-.31.36-.32.36-.32.37-.33.36.34.36.34.36.32.37.32.36.32.36.3.36.31.36.29.37.29.36.29.36-2.36.36.28.36.27.37.27.36.26.36.25.36.26.36.25.37.24.36.24.36.24.36.24.37-2.37.36.23.36.22.36.22.36.22.37.22.36.21.36.21.36-2.36.36.2.37.21.36.2.36.19.36.2.36.19.37.19.36.18.36.19.36.18.36.18.37.18.36.18.36.17.36.17.37.17.36.17.36.17.36.16.36-.15.37-.16.36-.16.36-.16.36-.16.36-.16.37-.17.36-.17.36-.17.36-.17.36-.17.37-.18.36-.18.36-.18.36-.19.37-.18.36-.19.36-.19.36-.2.36-.2.37-.2.36-.2.36-.21.36 2.37.36-.22.37-.21.36-.22.36-.22.36-.23.36-.23.37-.23.36-.23.36 2.36.36-.24.36-.25.37-.25.36-.26.36-.26.36-.27.37-.27.36-.27.36-.28.36-.29.36-.3.37 2.35.36-.3.36-.31.36-.32.36-.33.37-.33.36.34.36.34.36.32.36.32.37.32.36.3.36.3.36.3.37.29.36-2.36.36.29.36.27.36.27.37.27.36.26.36.26.36.25.36.25.37.24.36.25.36.23.36.24.36.23.37.22.36.23.36.22.36.21.36.22.37-2.39.36.21.36.21.36-2.37.37.2.36.2.36.2.36.19.36.19.37-2.35.36.19.36.19.36.18.36.18.37.18.36.17.36.18.36.17.36.17.37.17.36.17.36.16.36-.15.37-.16.36-.16.36-.16.36-.17.36-2.28.37-.16.36-.17.36-.17.36-.18.36-.17.37-.18.36-.18.36-.18.36-.18.36-.19.37 2.33.36-.19.36-.19.36 2.35.37-.2.36-.2.36 2.38.36-.21.36-.21.37-.21.36-.22.36-.22.36-.22.36-.23.37-.23.36-.23.36-.24.36-.25.36-.24.37-.25.36-.26.36-.26.36-.26.36-.27.37-.28.36-.28.36-.28.36 2.33.37-.3.36-.3.36-.31.36-.31.36-.32.37-.34.36.34.36.34.36.32.36.32.37.31.36.3.36.3.36.29.36-4.93.37.29.36.28.36.27.36.27.37.26.36.26.36.26.36.25.36.25.37.24.36.24.36.24.36.23.36.23.37.22.36.23.36.22.36.21.36.21.37.22.36.2.36-2.34.36.2.36.2.37.19.36.2.36.19.36.19.37.19.36.18.36.18.36.19.36.17.37.18.36.17.36.18.36.17.36.16.37-2.34.36.16.36.17.36-.16.36-.16.37-.16.36-.16.36-.16.36-.17.37 2.35.36-.16.36-.17.36-.18.36-.17.37-.18.36-.18.36-.18.36-.18.36-.19.37-.19.36-.19.36-.2.36-.19.36-.2.37 2.35.36-.21.36-.21.36-.21.36-.21.37-.22.36-.22.36-.22.36-.23.37-.24.36 2.36.36-.24.36-.24.36-.25.37-.25.36-.26.36-.26.36-.27.36-.27.37-.27.36-.28.36 2.34.36-.29.36-.3.37-.3.36-.31.36-.32.36-.32.37-.33.36.33.36.33.36.33.36.32.37.31.36.3.36.3.36-2.33.36.28.37.29.36.28.36.27.36.27.36.26.37.26.36.25.36.26.36.24.37.24.36-2.35.36.24.36.23.36.23.37-2.33.36.22.36-2.31.36.22.36.21.37.21.36.21.36.2.36.21.36.2.37.2.36.19.36.19.36.19.36.19.37.18.36.19.36.18.36.18.37.17.36.18.36.17.36.17.36.17.37.17.36.16.36.16"/><use xlink:href="#d" transform="matrix(3.75 0 0 3.75 354.25 180.06)"/><use xlink:href="#d" transform="matrix(3.75 0 0 3.75 78.65 7.51)"/></g><text stroke-linecap="round" stroke-linejoin="round" color="#000" font-family="KaTeX_Main" font-size="8" transform="translate(99.2 25.11)"><tspan>AVLTopDown</tspan></text><g fill="none" stroke="currentColor" stroke-linecap="round" stroke-linejoin="round" color="#000"><path stroke="#29C3F6" stroke-dasharray="1.0,2.0" d="M63.7 22.51h29.9M28 182.61l.36.42.36.41.37.41.36.39.36.39.36.38.36.37.37-2.3.36.36.36.36.36.34.37.34.36.34.36.32.36.33.36-4.93.37.31.36.31.36.3.36-2.28.36.3.37.28.36.29.36.28.36.27.36.28.37.26.36.27.36.26.36.26.36.25.37.25.36-2.3.36.24.36.24.37.24.36.23.36.24.36.23.36.22.37.23.36.22.36.21.36.22.36.21.37.21.36.21.36.21.36-2.32.36.2.37-.2.36-.2.36 2.31.36-.21.37-.21.36-.21.36-.22.36-.21.36-.22.37-.23.36-.22.36-.23.36-.24.36-.23.37-.24.36-.24.36-.24.36-.25.36-.25.37-.25.36-.26.36-.26.36 2.28.37-.26.36-.28.36-.27.36-.28.36-.29.37-.28.36 2.28.36 2.31.36-.3.36-.31.37-.31.36-.32.36-.32.36-.33.36-.34.37-.34.36-.34.36-.36.36-.36.36-.36.37-.38.36 2.26.36-.39.36-.39.37-.41.36-.41.36 2.25.36.42.36.41.37.41.36.39.36.39.36.38.36.37.37.37.36.36.36.35.36.35.36.34.37-2.33.36.32.36-2.31.36.32.37.31.36.31.36.3.36.3.36.29.37.29.36.29.36.28.36-2.34.36.27.37-2.31.36.27.36.26.36.26.36-2.3.37.25.36.25.36.24.36.24.36.24.37.23.36.24.36.23.36.22.37.23.36.22.36-2.31.36.22.36.21.37.21.36.21.36.21.36.2.36.2.37-.2.36-.2.36-.21.36-.21.36-.21.37-.21.36-.22.36-.22.36-.22.37-.22.36-.23.36-.23.36-.23.36-.23.37-.24.36-.24.36-.24.36 2.27.36-.25.37 2.3.36-.26.36-.26.36 2.31.36 2.34.37-.27.36-.27.36-.28.36-.29.36-.29.37-.29.36-.3.36-.3.36-.31.37-.31.36-.32.36-.32.36-.33.36-.34.37-.34.36-.34.36-.36.36-.36.36-.36.37 2.26.36-.38.36-.39.36-.39.36-.41.37 2.26.36-.42.36.42.36.41.37.41.36.39.36-2.28.36.38.36.38.37.36.36.36.36.36.36.34.36.34.37.34.36-2.31.36.32.36.32.36.31.37-2.3.36.3.36.3.36.29.37.29.36.29.36.28.36.27.36.27.37.27.36.27.36.26.36-2.32.36.25.37-2.3.36.25.36.24.36.24.36.24.37.23.36.24.36.23.36.22.36.23.37.22.36.21.36.22.36.21.37-2.31.36.21.36.21.36.2.36.2.37-.2.36-.2.36-.21.36-.21.36-.21.37-.21.36-.22.36-.22.36-.22.36-.22.37-.23.36-.23.36-.23.36-.23.37-.24.36-.24.36-.24.36-.25.36-.25.37-.26.36-.25.36-.26.36-.27.36 2.26.37 2.27.36-.27.36-.28.36-.29.36 2.29.37-.29.36-.3.36-.3.36-.31.36-.31.37-.32.36-.32.36 2.28.36-.34.37-.34.36-.34.36-.36.36-.36.36-.36.37-.38.36-.38.36-.39.36-.39.36 2.23.37-.41.36 2.25.36-2.25.36.41.36.41.37.39.36.39.36.38.36.38.37.36.36.36.36.36.36.34.36.34.37-4.91.36.33.36-2.26.36.32.36-2.24.37.31.36.3.36.3.36.29.36.29.37.29.36.28.36.27.36.28.36.26.37.27.36.26.36.26.36.25.37.25.36.25.36.24.36.24.36.24.37.23.36-2.29.36.23.36.23.36.22.37.22.36.22.36.22.36.21.36.21.37.21.36.21.36.2.36.2.37-.2.36-.2.36-.21.36-.21.36-.21.37-.21.36-.22.36-.22.36-.22.36-.22.37-.23.36-.23.36-.23.36-.23.36 2.28.37-.24.36 2.31.36-.25.36-.25.37-.25.36-.26.36-.26.36-.27.36-.26.37-.28.36-.27.36-.28.36-.29.36-.28.37-.3.36 2.28.36-.3.36-.31.36-.31.37-.32.36 2.29.36-.33.36-.34.36-.34.37-.34.36-.36.36-.36.36-.36.37-.38.36-.38.36-.39.36 2.25.36-.41.37-.41.36-.42.36.42.36.41.36.41.37.39.36.39.36.38.36.38.36.36.37.36.36.36.36.34.36.34.37-2.3.36.33.36.32.36-2.29.36.31.37.31.36.3.36-2.28.36.3.36.28.37.29.36.28.36.27.36-2.27.36.26.37.27.36.26.36.26.36.25.36.25.37.25.36.24.36.24.36.24.37.23.36.24.36.23.36.22.36.23.37.22.36.21.36.22.36.21.36.21.37.21.36.21.36.2.36-2.32.36-.2.37-.2.36-.21.36-.21.36-.21.37-.21.36-.22.36 2.31.36-.22.36-.23.37-.22.36-.23.36-.24.36-.23.36-.24.37-.24.36-.24.36 2.3.36-.25.36-.25.37-.26.36-.26.36-.27.36-.26.37 2.3.36-.27.36-.28.36-.29.36-.29.37-.29.36-.3.36-.3.36-.31.36-.31.37-.32.36 2.29.36-.33.36-.34.36-.34.37-.34.36-.36.36-.36.36-.36.36-.38.37-.38.36 2.25.36-.39.36-.41.37-.41.36-.42.36.42.36.41.36.41.37.39.36.39.36.38.36.38.36.36.37.36.36.36.36.34.36-2.3.36.34.37-2.28.36.32.36.32.36.31.37.31.36.3.36.3.36.29.36.29.37-2.29.36-2.27.36.27.36.28.36.26.37.27.36.26.36.26.36.25.36.25.37.25.36.24.36.24.36.24.36.23.37.24.36.23.36-2.3.36.22.37.22.36.22.36.22.36.21.36.21.37.21.36.21.36.2.36.2.36-.2.37-.2.36-.21.36-.21.36-.21.36-.21.37-.22.36-.22.36 2.31.36-.23.37-.22.36-.23.36 2.32.36-.24.36-.24.37-.24.36-.24.36 2.33.36-.25.36-.25.37-.26.36-.26.36-.27.36-.27.36 2.34.37-.27.36-.28.36-.29.36-.29.36-.29.37-.3.36-.3.36-.31.36-.31.37-.32.36-.32.36-.33.36-.34.36-.34.37-.34.36-.36.36-.36.36-.36.36-.38.37 2.26.36-.39.36-.39.36-.41.36-.41.37-.42.36.42.36.41.36.41.37.39.36.39.36.38.36.38.36.36.37.36.36.36.36-2.3.36.34.36.34.37.33.36.32.36.32.36.31.36.31.37.3.36-2.31.36.29.36.29.37-2.29.36.28.36.27.36.28.36.26.37.27.36.26.36.26.36-2.3.36.25.37.25.36.24.36.24.36.24.36.23.37.24.36.23.36.22.36.23.36.22.37.21.36.22.36.21.36.21.37.21.36.21.36.2.36.2.36-.2.37-.2.36-.21.36-.21.36-.21.36-.21.37-.22.36-.21.36-.22.36-.23.36-.22.37-.23.36-.24.36-.23.36-.24.37-.24.36-.24.36-.25.36-.25.36-.25.37-.26.36-.26.36-.27.36 4.86.36-.27.37-.27.36-.28.36-.29.36-.29.36-.29.37-.3.36-.3.36 2.3.36-.31.36-.32.37-.32.36-.33.36-.34.36-.34.37-.34.36-.36.36-.36.36-.36.36-.38.37 2.26.36-.39.36-.39.36-.41.36-.41.37-.42.36.42.36.41.36.41.36.39.37.39.36.38.36.38.36.36.37.36.36-2.28.36.34.36.34.36.34.37.33.36.32.36.32.36.31.36.31.37.3.36.3.36.29.36.29.36.29.37.28.36-2.34.36.27.36.27.36.27.37-2.32.36.26.36.25.36-2.3.37.25.36.24.36.24.36.24.36.23.37-2.29.36.23.36.23.36.22.36.22.37.22.36.22.36.21.36.21.36.21.37.21.36.2.36.2.36-.2.37-.2.36-.21.36-.21.36-.21.36-.21.37-.22.36-.22.36-.22.36-.22.36-.23.37-.23.36-.23.36-.23.36-.24.36-.24.37 2.28.36-.25.36-.25.36 2.3.37-.26.36-.26.36 2.31.36-.27.36-.27.37-.27.36 2.33.36-.29.36-.29.36-.29.37-.3.36-.3.36-.31.36-.31.36-.32.37-.32.36-.33.36-.34.36-.34.36-.34.37-.36.36-.36.36-.36.36 2.26.37-.38.36-.39.36-.39.36-.41.36-.41.37-.42.36.42.36.41.36.41.36.39.37.39.36.38.36.38.36.36.36-4.88.37.35.36.35.36.34.36.33.37.33.36.32.36.32.36.31.36.31.37.3.36.3.36.29.36.29.36.29.37.28.36.27.36.27.36.27.36.27.37.26.36.26.36-2.33.36-2.3.36.25.37.24.36.24.36.24.36.23.37.24.36.23.36.22.36.23.36.22.37.21.36.22.36.21.36.21.36.21.37-2.31.36.2.36.2.36-.2.36-.2.37-.21.36-.21.36-.21.36-.21.37 2.3.36-.21.36-.22.36-.23.36-.22.37-.23.36-.24.36-.23.36-.24.36-.24.37-.24.36-.25.36-.25.36-.25.36-.26.37 2.29.36-.27.36-.26.36-.28.36-.27.37-.28.36 2.29.36-.29.36-.29.37-.3.36 2.31.36-.31.36-.31.36-.32.37-.32.36-.33.36-.34.36-.34.36-.34.37-.36.36-.36.36 2.28.36-.38.36-.38.37-.39.36-.39.36-.41.36-.41.37-.42.36.42.36.41.36.41.36.39.37.39.36.38.36.38.36-2.28.36.36.37.36.36.34.36.34.36.34.36.33.37-2.29.36.32.36.31.36.31.37.3.36-2.28.36.3.36.28.36.29.37-2.27.36.27.36-2.25.36.27.36.27.37.26.36.25.36.26.36.25.36.25.37.24.36.24.36.24.36.23.36.23.37.23.36.23.36.22.36.22.37.22.36.22.36.21.36.21.36.21.37.21.36.2.36.2"/><use xlink:href="#e" color="#29C3F6" transform="matrix(3.75 0 0 3.75 67.83 186.46)"/><use xlink:href="#e" color="#29C3F6" transform="matrix(3.75 0 0 3.75 78.65 22.51)"/></g><text stroke-linecap="round" stroke-linejoin="round" color="#000" font-family="KaTeX_Main" font-size="8" transform="translate(241.1 10.11)"><tspan>AVLRelaxedBottomUp</tspan></text><g fill="none" stroke="currentColor" stroke-linecap="round" stroke-linejoin="round" color="#000"><path stroke="#FFAB00" d="M205.6 7.51h29.9M28 182.61l.36.42.36.41.37.41.36.39.36.39.36.38.36.37.37-2.3.36.36.36.36.36.34.37.34.36.34.36.32.36.33.36-4.93.37.31.36.31.36.3.36-2.28.36.3.37.28.36.29.36.28.36.27.36.28.37.26.36.27.36.26.36.26.36.25.37.25.36-2.3.36.24.36.24.37.24.36.23.36.24.36.23.36.22.37.23.36.22.36.21.36.22.36.21.37.21.36.21.36.21.36-2.32.36.2.37-.2.36-.2.36-.21.36-.21.37-.21.36-.21.36-.22.36-.22.36-.22.37 2.3.36-.22.36-.23.36-.24.36-.23.37-.24.36-.24.36-.24.36-.25.36-.25.37-.25.36-.26.36-.26.36-.27.37-.26.36 2.27.36-.27.36-.28.36-.29.37-.28.36-.3.36-.3.36-.3.36-.31.37-.31.36-.32.36-.32.36-.33.36-.33.37-.34.36-.35.36-.35.36-.36.36-.37.37-.37.36 2.2.36-.39.36-.4.37-.4.36-.42.36-.42.36.42.36.42.37.4.36.4.36.39.36.38.36.37.37.37.36.36.36.35.36.35.36.34.37-2.25.36.33.36-2.23.36.32.37.31.36.31.36.3.36.3.36.29.37.29.36.29.36.28.36.27.36.28.37.26.36.27.36.26.36.26.36.25.37.25.36.25.36.24.36.24.36.24.37.23.36.24.36.23.36.22.37.23.36.22.36-2.31.36.22.36.21.37.21.36.21.36.21.36.2.36.2.37-.2.36-.2.36-.21.36-.21.36-.21.37-.21.36-.22.36-.22.36-.22.37-.22.36-.23.36-.23.36-.23.36-.23.37-.24.36-.24.36-.24.36-.25.36-.25.37-.26.36-.25.36-.26.36-.27.36-.27.37-.27.36-.27.36-.28.36-.29.36-.29.37-.29.36-.3.36-.3.36-.31.37-.31.36-.32.36 2.2.36-.33.36-.33.37-.34.36-.35.36-.35.36-.36.36 2.18.37-.37.36 2.2.36-.39.36-.4.36-.4.37 2.19.36-.42.36.42.36.41.37.41.36.39.36.39.36.38.36.38.37.36.36.36.36.36.36.34.36.34.37.34.36-2.28.36.32.36.32.36.31.37-2.27.36.3.36.3.36.3.37.28.36.29.36.28.36.27.36.28.37.26.36.27.36.26.36.26.36-2.3.37-2.27.36.25.36.24.36.24.36.24.37.23.36.23.36.23.36.23.36.22.37.22.36.22.36.22.36.21.37.21.36.21.36.21.36.2.36.2.37-.2.36-.2.36-.21.36-.21.36-.21.37-.21.36-.22.36-.22.36-.22.36-.22.37-.23.36-.23.36-.23.36-.23.37-.24.36-.24.36-.24.36-.25.36-.25.37-.26.36-.25.36-.26.36-.27.36-.27.37-.27.36 2.25.36-.28.36-.29.36-.29.37-.29.36-.3.36-.3.36-.31.36-.31.37-.32.36-.32.36-.33.36-.33.37-.34.36-.35.36-.35.36-.36.36-.37.37-.37.36-.38.36 2.16.36-.4.36-.4.37-.42.36-.42.36.42.36.42.36.4.37.4.36.39.36.38.36.37.37.37.36.36.36.35.36.35.36.34.37.33.36.33.36-2.23.36.32.36.31.37.31.36.3.36.3.36.29.36.29.37.29.36.28.36.27.36.28.36.26.37.27.36.26.36.26.36.25.37.25.36.25.36.24.36.24.36.24.37.23.36-2.29.36.23.36.23.36.22.37.22.36.22.36.22.36.21.36.21.37.21.36.21.36.2.36-2.29.37-.21.36-.2.36-.2.36-.21.36-.21.37-.22.36-.21.36-.22.36-.22.36-.22.37-.23.36-.23.36-.23.36-.24.36-.24.37-.24.36-.24.36-.25.36-.25.37 2.24.36-.25.36-.26.36-.27.36-.27.37-.27.36 2.25.36-.28.36-.29.36-.29.37-.29.36-.3.36-.3.36-.31.36-.31.37-.32.36 2.23.36-.33.36-.33.36-.34.37-.35.36-.35.36-.36.36-.37.37 2.21.36-.38.36-.39.36 4.85.36-.41.37-.41.36-.42.36.42.36.41.36.41.37.39.36-2.25.36.38.36.38.36.36.37.36.36.36.36.34.36.34.37-2.27.36.33.36.32.36-2.26.36.31.37.31.36.3.36.3.36.3.36.28.37.29.36.28.36.27.36-2.27.36.26.37.27.36.26.36.26.36.25.36.25.37.25.36.24.36.24.36-2.28.37.23.36.23.36.23.36.23.36.22.37.22.36.22.36.22.36.21.36.21.37.21.36.21.36.2.36.2.36-.2.37-.2.36-.21.36-.21.36-.21.37-.21.36-.22.36-.22.36-.22.36-.22.37-.23.36-.23.36-.23.36-.23.36-.24.37-.24.36 2.28.36-.25.36-.25.36-.25.37-.26.36-.26.36-.27.36-.26.37-.28.36-.27.36-.28.36-.29.36-.29.37-.29.36-.3.36-.3.36-.31.36-.31.37-.32.36-.32.36-.33.36-.33.36-.34.37-.35.36-.35.36-.36.36-.37.36-.37.37-.38.36-.39.36-.4.36-.4.37-.42.36 2.13.36.42.36.42.36.4.37.4.36.39.36.38.36.37.36.37.37.36.36.35.36.35.36.34.36.33.37.33.36.32.36.32.36.31.37.31.36.3.36.3.36.3.36.28.37.29.36-2.27.36.27.36.28.36.26.37.27.36.26.36.26.36.25.36.25.37.25.36.24.36.24.36.24.36.23.37-2.29.36.23.36.23.36.22.37-2.27.36.22.36.21.36.22.36.21.37.21.36.2.36.2.36.21.36-.21.37-.2.36-.2.36-.21.36-.21.36-.22.37-.21.36-.22.36-.22.36-.22.37-.23.36-.23.36-.23.36-.24.36-.24.37-.24.36-.24.36-.25.36-.25.36-.25.37 2.24.36-.26.36-.27.36-.27.36-.27.37-.27.36-.28.36-.29.36-.29.36 2.23.37 2.25.36-.3.36-.31.36-.31.37-.32.36-.32.36-.33.36-.33.36-.34.37-.35.36 2.23.36-.36.36-.37.36-.37.37 2.22.36-.39.36-.39.36 2.23.36-.41.37-.42.36.42.36-2.23.36.41.37.39.36.39.36.38.36.38.36.36.37.36.36.36.36-2.26.36.34.36.33.37.33.36.32.36.32.36.31.36.31.37.3.36-2.28.36.3.36.28.37-2.26.36-2.24.36.27.36.27.36.27.37.27.36.26.36.25.36.26.36.25.37.25.36.24.36.24.36.24.36.23.37.23.36.23.36.23.36.22.36.22.37.22.36.22.36.21.36.21.37.21.36.21.36.2.36.2.36-.2.37-.2.36-.21.36-.21.36-.21.36-.21.37-.22.36-.22.36-.22.36-.22.36-.23.37-.23.36-.23.36-.23.36-.24.37-.24.36-.24.36-.25.36-.25.36-.26.37-.25.36-.26.36-.27.36-.27.36-.27.37-.27.36-.28.36-.29.36-.29.36-.29.37-.3.36-.3.36 2.21.36-.31.36-.32.37-.32.36-.33.36-.33.36-.34.37-.35.36-.35.36-.36.36-.37.36 2.18.37-.38.36-.39.36-.4.36 2.18.36-.42.37-.42.36.42.36.42.36.4.36.4.37.39.36.38.36.37.36.37.37.36.36.35.36-2.23.36.34.36.33.37.33.36-2.23.36.32.36.31.36.31.37.3.36.3.36.29.36.29.36.29.37.28.36.27.36.28.36.26.36.27.37.26.36.26.36-2.27.36.25.37.25.36.24.36.24.36.24.36.23.37.23.36.23.36.23.36.22.36.22.37.22.36.22.36.21.36.21.36.21.37.21.36.2.36.2.36-.2.37-.2.36-.21.36-.21.36-.21.36-.21.37-.22.36-.22.36-.22.36-.22.36-.23.37-.23.36-.23.36-.23.36-.24.36-.24.37-.24.36-.25.36-.25.36-.26.37-.25.36-.26.36-.27.36 2.26.36-.28.37-.27.36-.28.36-.29.36-.29.36 2.26.37 2.28.36-.3.36-.31.36-.31.36-.32.37-.32.36-.33.36-.33.36-.34.36-.35.37-.35.36-.36.36-.37.36 2.23.37-.38.36-.39.36 2.25.36-.41.36-.41.37-.42.36.42.36-2.23.36.41.36.39.37.39.36.38.36.38.36.36.36-2.24.37.35.36.35.36.34.36.33.37.33.36.32.36.32.36.31.36.31.37.3.36.3.36.29.36.29.36.29.37.28.36.27.36.27.36.27.36.27.37.26.36.26.36-2.33.36-2.3.36.25.37.24.36.24.36.24.36.23.37.24.36.23.36.22.36.23.36.22.37.21.36.22.36.21.36.21.36.21.37-2.31.36.2.36.2.36-.2.36-.2.37-.21.36-.21.36-.21.36-.21.37-.22.36-.22.36-.22.36-.22.36-.23.37 2.3.36-.24.36-.23.36-.24.36-.24.37-.24.36-.25.36-.25.36-.25.36-.26.37-.26.36-.27.36-.26.36-.28.36-.27.37-.28.36-.29.36-.29.36-.29.37-.3.36-.3.36-.31.36 2.24.36-.32.37-.32.36-.33.36-.33.36-.34.36-.35.37-.35.36-.36.36 2.21.36-.37.36-.38.37-.39.36-.4.36-.4.36-.42.37-.42.36.42.36.42.36.4.36.4.37.39.36.38.36-2.21.36.37.36-2.19.37.35.36.35.36.34.36.33.36.33.37-2.2.36.32.36.31.36.31.37.3.36.3.36.29.36.29.36.29.37.28.36.27.36.27.36.27.36.27.37.26.36-2.24.36.25.36.25.36.25.37.24.36.24.36.24.36.24.36.23.37.23.36.23.36.22.36.22.37.22.36.21.36.22.36.21.36.21.37.2.36.2.36.21"/><use xlink:href="#f" color="#FFAB00" transform="matrix(3.75 0 0 3.75 125.4 177.11)"/><use xlink:href="#f" color="#FFAB00" transform="matrix(3.75 0 0 3.75 220.55 7.51)"/></g><text stroke-linecap="round" stroke-linejoin="round" color="#000" font-family="KaTeX_Main" font-size="8" transform="translate(241.1 25.11)"><tspan>AVLRelaxedTopDown</tspan></text><g fill="none" stroke="currentColor" stroke-linecap="round" stroke-linejoin="round" color="#000"><path stroke="#3B75EA" stroke-dasharray="4.5,2.0,0.5,2.0,0.5,2.0" d="M205.6 22.51h29.9M28 169.56l.36-4.59.36.41.37 5.42.36.4.36-2.14.36 5.46.36.37.37-2.18.36-2.17.36.36.36 5.42.37.34.36-7.24.36-2.14.36 2.79.36-7.01.37 2.73.36.31.36.3.36-4.51.36 2.69.37-2.1.36 7.53.36-2.16.36 2.72.36.27.37.27.36-2.18.36.26.36-2.16.36.25.37.26.36-2.15.36-2.12.36.24.37 2.6.36.24.36.23.36-2.14.36.23.37 7.4.36.22.36-2.2.36.21.36-2.17.37 2.6.36-2.18.36 2.59.36.21.36.2.37-.2.36-.21.36-.2.36-.21.37-.21.36-.22.36-.21.36-.22.36-.22.37-.22.36-.23.36-.23.36-.23.36 2.18.37-.24.36-.24.36-.24.36-.25.36-.25.37-.25.36-.26.36-.26.36-.27.37-.26.36 2.17.36-.28.36-.28.36-.28.37-.29.36-.3.36-.29.36-.31.36-.3.37-.32.36-.31.36-.33.36-.33.36-.33.37-.34.36 2.12.36-.35.36-.36.36-.37.37-.37.36-.38.36-.39.36-.4.37-.4.36-.41.36-.43.36-2.04.36.41.37.41.36.39.36 2.86.36 2.87.36.38.37.36.36-2.13.36.35.36.35.36.34.37.33.36.33.36.32.36.32.37-2.15.36.3.36 2.77.36.3.36.3.37.29.36.28.36-2.19.36-2.17.36.28.37-4.54.36.26.36 2.65.36-4.5.36 5.01.37-2.14.36.25.36.24.36-2.12.36 2.6.37-2.13.36-2.11.36 4.94.36.23.37.22.36.22.36 2.61.36.21.36.22.37-4.55.36 2.58.36-2.17.36 2.57.36.21.37-.21.36-.2.36-.2.36-.21.36-.21.37-.22.36-.21.36-.22.36-.22.37-.22.36-.23.36-.23.36-.23.36-.24.37-.23.36 2.15.36-.25.36-.24.36-.26.37-.25.36-.26.36-.26.36-.26.36-.27.37-.27.36-.28.36-.28.36-.28.36-.29.37-.3.36-.29.36-.31.36-.3.37 2.1.36-.32.36 2.12.36-.33.36-.33.37-.34.36-.35.36-.35.36-.36.36-.37.37 4.59.36-.38.36-.38.36-.4.36-.41.37 2.11.36-.42.36.42.36.42.37.4.36 2.95.36.39.36.38.36.37.37-2.18.36.36.36-2.17.36.34.36-2.15.37.33.36-4.58.36 2.77.36-2.13.36.31.37.31.36.3.36-2.12.36.3.37-2.1.36 5.09.36.28.36.27.36-2.14.37-2.12.36.26.36 2.65.36-2.13.36.25.37 2.65.36.24.36-2.15.36.25.36 2.62.37-2.15.36 2.62.36-2.16.36.23.36.22.37 2.61.36-2.17.36.21.36 2.61.37-2.18.36.21.36.2.36.2.36.21.37-.21.36 2.19.36-.2.36-.21.36-.21.37 2.2.36-.21.36-.22.36-.22.36-.23.37-.22.36-.23.36-.23.36-.24.37-.24.36-.24.36-.24.36-.25.36-.25.37-.25.36-.26.36-.26.36-.27.36-.26.37-.28.36-.27.36-.28.36-.29.36-.29.37 2.15.36-.29.36-.31.36-.3.36-.32.37-.31.36-.33.36-.33.36-.33.37-.34.36-.35.36 2.12.36-.36.36-.37.37-.37.36-.38.36 2.11.36-.4.36-.41.37-.41.36-.42.36.42.36 2.94.36.4.37.4.36.39.36.38.36-2.15.37.36.36.36.36.36.36-2.15.36.34.37.33.36 2.83.36-2.18.36.32.36.31.37.31.36-2.16.36.29.36 2.77.36-2.18.37-4.58.36.28.36 2.69.36 5.19.36-4.65.37-2.15.36 2.68.36-4.55.36 2.64.37.26.36.24.36-2.15.36 2.64.36-2.16.37 2.63.36.23.36.23.36.23.36-2.17.37-4.49.36 2.56.36 2.58.36.22.36.21.37-2.16.36 2.57.36.2.36.21.37-.21.36-.2.36-.2.36-.21.36-.21.37-.22.36-.21.36-.22.36-.22.36-.22.37-.23.36-.23.36-.23.36 2.15.36-.23.37-.24.36-.25.36-.24.36-.26.37-.25.36-.26.36-.26.36-.26.36-.27.37-.27.36-.28.36 2.14.36-.29.36-.29.37-.29.36-.3.36-.3.36-.31.36-.31.37-.32.36 2.12.36-.33.36-.33.36-.34.37-.35.36-.35.36-.36.36-.37.37 2.1.36-.38.36-.39.36 2.1.36-.41.37-.41.36-.42.36.42.36.41.36.41.37.4.36.38.36.38.36-2.12.36-2.1.37 5.32.36.36.36.34.36-2.15.37-2.14.36-2.11.36-4.49.36 2.71.36 2.73.37-2.11.36 2.72.36.3.36.29.36.29.37.29.36.28.36.27.36-2.14.36 2.68.37 2.71.36-2.18.36-4.55.36 2.64.36.26.37-2.15.36 5.05.36.24.36-2.18.37 2.66.36.23.36-2.19.36-2.16.36-2.15.37.22.36 2.59.36 2.6.36-2.17.36 5.02.37.2.36.21.36-2.21.36 2.62.36-.21.37-.2.36-.21.36-.2.36-.21.37-.22.36-.21.36-.22.36-.22.36-.23.37-.22.36-.23.36-.23.36-.24.36-.24.37-.24.36-.24.36-.25.36-.25.36-.25.37-.26.36-.26.36-.27.36-.26.37-.28.36-.27.36-.28.36-.29.36-.29.37-.29.36-.3.36-.3.36-.31.36-.31.37 2.13.36-.33.36-.33.36-.33.36 2.13.37 2.15.36-.36.36-.36.36-.36.36-.38.37-.38.36-.38.36-.4.36-.41.37-.41.36-.42.36.42.36.41.36-2.09.37 2.9.36-2.11.36-2.09.36.37.36.37.37.36.36.35.36.35.36.34.36.33.37.33.36.33.36-2.13.36.31.37.31.36 2.75.36.29.36-2.15.36 2.74.37-2.16.36.28.36.27.36.28.36.26.37-4.54.36 5.07.36.26.36.25.36-2.16.37 2.66.36-2.17.36 2.65.36-2.18.36 2.66.37-2.19.36-4.53.36.23.36 2.59.37-2.15.36.22.36.22.36.21.36 2.58.37 2.6.36.2.36-2.19.36-2.16.36 2.16.37-.2.36-.2.36-.21.36-.21.36-.22.37-.21.36-.22.36-.22.36-.22.37-.23.36-.23.36 2.16.36-.24.36-.23.37-.24.36-.25.36 4.61.36-.25.36-.25.37-.26.36-.26.36-.26.36-.27.36-.27.37-.28.36-.28.36-.28.36-.29.36-.3.37-.29.36-.31.36-.3.36-.32.37-.31.36-.33.36-.33.36-.33.36-.34.37-.35.36 2.12.36-.36.36-.37.36-.37.37 2.11.36 2.14.36-.4.36 2.15.36 2.16.37-.42.36.42.36.42.36.4.37-2.18.36-2.16.36-2.15.36 5.45.36-2.18.37.36.36-2.17.36-2.15.36.34.36-2.14.37.33.36.33.36.31.36-2.13.36.31.37-2.11.36.29.36-2.09.36 5.09.37 5.2.36-2.19.36.28.36-2.17.36.26.37.27.36.26.36.26.36-2.17.36.26.37-2.15.36.24.36.25.36 2.62.36-2.15.37.23.36.23.36-2.14.36 4.98.36.22.37.22.36.21.36.22.36.21.37-2.18.36.2.36-2.16.36-2.14.36 2.14.37-.21.36-.2.36-.21.36-.21.36-.21.37-.22.36-.22.36-.22.36-.22.36-.23.37-.23.36-.23.36-.23.36-.24.37-.24.36-.25.36-.24.36-.25.36 2.11.37-.26.36-.26.36-.26.36-.27.36-.27.37-.28.36-.28.36-.28.36-.29.36-.3.37-.29.36 2.08.36 2.11.36-.31.36-.32.37-.32.36-.33.36-.33.36-.34.37-.35.36-.35.36-.36.36 2.07.36-.37.37-.38.36-.39.36-.39.36-.41.36-.41.37-.42.36.42.36.41.36.41.36.39.37.39.36.38.36 2.84.36-2.1.37.36.36.35.36 2.82.36-2.13.36.33.37.33.36.33.36.31.36.32.36.3.37.31.36 2.76.36-2.17.36-2.16.36.29.37.28.36.27.36.28.36-2.15.36 5.12.37-4.6.36.26.36.25.36-2.14.37 5.06.36-2.17.36.24.36.23.36.24.37.23.36.23.36.23.36.22.36-2.17.37-2.15.36 2.58.36-2.15.36.21.36 2.58.37.2.36.2.36.21.36 2.19.37-.21.36-.2.36-.21.36-.21.36-.22.37-.21.36-.22.36-.22.36-.22.36 2.19.37-.23.36-.23.36-.24.36-.24.36-.24.37-.24.36-.25.36-.25.36-.25.37-.26.36-.26.36-.27.36-.26.36-.28.37-.27.36-.28.36-.29.36-.29.36 4.62.37-.3.36-.3.36-.31.36-.31.36-.32.37-.32.36-.33.36-.33.36-.34.36-.35.37-.35.36-.36.36-.37.36 2.12.37-.38.36-.38.36-.4.36-.41.36 4.66.37-.42.36.42.36.42.36.4.36.4.37-2.16.36.38.36-2.15.36.36.36-2.13.37.35.36-2.12.36-2.1.36.33.37 5.24.36-4.59.36.32.36.31.36.31.37-2.11.36 5.15.36-4.56.36 5.15.36-2.16.37-2.14.36-2.11.36 5.08.36.26.36 2.71.37.26.36-2.18.36-2.17.36-2.14.36 5.06.37.24.36.24.36.24.36-2.18.37 2.65.36-4.58.36 2.62.36.22.36.22.37.22.36-2.18.36.22.36.21.36.21.37.2.36 2.6.36-4.56.36 2.16.36-.2.37 2.19.36-.21.36-.21.36-.22.37-.21.36-.22.36-.22.36 2.19.36 2.22.37-.23.36-.23.36-.24.36-.23.36-.24.37-.25.36-.25.36-.25.36-.25.36-.26.37-.26.36-.26.36-.27.36-.27.36-.28.37-.28.36-.28.36-.29.36-.3.37-.29.36-.31.36-.3.36-.32.36 2.15.37-.32.36-.33.36-.33.36-.34.36-.35.37-.35.36-.36.36-.37.36-.37.36-.38.37-.39.36-.4.36-.4.36-.41.37-.43.36.43.36.41.36.4.36.4.37.39.36.38.36.37.36.37.36.36.37.35.36.35.36-2.13.36-2.11.36.33.37-2.09.36-2.08.36 2.71.36.3.37.31.36.29.36-2.09.36 2.68.36.28.37.28.36-2.11.36.27.36.27.36 2.65.37-2.13.36-2.11.36 5.01.36.26.36-4.52.37.25.36-2.11.36 2.59.36.23.36-2.11.37 2.57.36.23.36.22.36.22.37 2.59.36.21.36-2.15.36 2.58.36-4.51.37.21.36.2.36-2.11"/><use xlink:href="#a" color="#3B75EA" transform="matrix(3.75 0 0 3.75 182.98 171.37)"/><use xlink:href="#a" color="#3B75EA" transform="matrix(3.75 0 0 3.75 220.55 22.51)"/></g><path fill="none" d="M28 45.01V205M371.99 45.01H28" color="#000"/></svg>