<svg xmlns="http://www.w3.org/2000/svg" xmlns:xlink="http://www.w3.org/1999/xlink" viewBox="0 0 800 500"><path fill="none" d="M0 0h800v500H0z"/><defs><use xlink:href="#a" id="f" fill="currentColor" stroke="none"/><use xlink:href="#a" id="b" stroke="currentColor" transform="rotate(180)"/><use xlink:href="#b" id="e" fill="currentColor" stroke="none"/><use xlink:href="#c" id="d" stroke="currentColor" transform="rotate(45)"/><use xlink:href="#d" id="g" fill="currentColor" stroke="none"/><path id="c" stroke="currentColor" stroke-width=".222" d="M-1-1h2v2h-2z"/><path id="a" stroke="currentColor" stroke-width=".222" d="m0-1.33-1.33 2h2.66z"/><path id="h" stroke="currentColor" stroke-width=".222" d="M0 1.33 1.265.411.782-1.067l-1.564-.009-.483 1.487z"/><circle id="i" cx="0" cy="0" r="1" stroke="currentColor" stroke-width=".222"/></defs><path fill="none" stroke="#EEE" stroke-linecap="round" stroke-linejoin="round" d="M16.11 410V180.01" class="gridline" color="#000"/><g fill="none" stroke-linecap="round" stroke-linejoin="round" stroke-width="0" color="#000"><path d="M16.11 410v-9m0-220.99v9"/><text fill="#000" font-family="Arial" font-size="16" text-anchor="middle" transform="translate(16.11 442.2)"><tspan> 1</tspan></text></g><path fill="none" stroke="#EEE" stroke-linecap="round" stroke-linejoin="round" d="M96.69 410V180.01" class="gridline" color="#000"/><g fill="none" stroke-linecap="round" stroke-linejoin="round" stroke-width="0" color="#000"><path d="M96.69 410v-9m0-220.99v9"/><text fill="#000" font-family="Arial" font-size="16" text-anchor="middle" transform="translate(96.69 442.2)"><tspan> 2</tspan></text></g><path fill="none" stroke="#EEE" stroke-linecap="round" stroke-linejoin="round" d="M177.26 410V180.01" class="gridline" color="#000"/><g fill="none" stroke-linecap="round" stroke-linejoin="round" stroke-width="0" color="#000"><path d="M177.26 410v-9m0-220.99v9"/><text fill="#000" font-family="Arial" font-size="16" text-anchor="middle" transform="translate(177.26 442.2)"><tspan> 3</tspan></text></g><path fill="none" stroke="#EEE" stroke-linecap="round" stroke-linejoin="round" d="M257.83 410V180.01" class="gridline" color="#000"/><g fill="none" stroke-linecap="round" stroke-linejoin="round" stroke-width="0" color="#000"><path d="M257.83 410v-9m0-220.99v9"/><text fill="#000" font-family="Arial" font-size="16" text-anchor="middle" transform="translate(257.83 442.2)"><tspan> 4</tspan></text></g><path fill="none" stroke="#EEE" stroke-linecap="round" stroke-linejoin="round" d="M338.4 410V180.01" class="gridline" color="#000"/><g fill="none" stroke-linecap="round" stroke-linejoin="round" stroke-width="0" color="#000"><path d="M338.4 410v-9m0-220.99v9"/><text fill="#000" font-family="Arial" font-size="16" text-anchor="middle" transform="translate(338.4 442.2)"><tspan> 5</tspan></text></g><path fill="none" stroke="#EEE" stroke-linecap="round" stroke-linejoin="round" d="M418.97 410V180.01" class="gridline" color="#000"/><g fill="none" stroke-linecap="round" stroke-linejoin="round" stroke-width="0" color="#000"><path d="M418.97 410v-9m0-220.99v9"/><text fill="#000" font-family="Arial" font-size="16" text-anchor="middle" transform="translate(418.97 442.2)"><tspan> 6</tspan></text></g><path fill="none" stroke="#EEE" stroke-linecap="round" stroke-linejoin="round" d="M499.54 410V180.01" class="gridline" color="#000"/><g fill="none" stroke-linecap="round" stroke-linejoin="round" stroke-width="0" color="#000"><path d="M499.54 410v-9m0-220.99v9"/><text fill="#000" font-family="Arial" font-size="16" text-anchor="middle" transform="translate(499.54 442.2)"><tspan> 7</tspan></text></g><path fill="none" stroke="#EEE" stroke-linecap="round" stroke-linejoin="round" d="M580.12 410V180.01" class="gridline" color="#000"/><g fill="none" stroke-linecap="round" stroke-linejoin="round" stroke-width="0" color="#000"><path d="M580.12 410v-9m0-220.99v9"/><text fill="#000" font-family="Arial" font-size="16" text-anchor="middle" transform="translate(580.12 442.2)"><tspan> 8</tspan></text></g><path fill="none" stroke="#EEE" stroke-linecap="round" stroke-linejoin="round" d="M660.69 410V180.01" class="gridline" color="#000"/><g fill="none" stroke-linecap="round" stroke-linejoin="round" stroke-width="0" color="#000"><path d="M660.69 410v-9m0-220.99v9"/><text fill="#000" font-family="Arial" font-size="16" text-anchor="middle" transform="translate(660.69 442.2)"><tspan> 9</tspan></text></g><path fill="none" stroke="#EEE" stroke-linecap="round" stroke-linejoin="round" d="M741.26 410V180.01" class="gridline" color="#000"/><g fill="none" stroke-linecap="round" stroke-linejoin="round" stroke-width="0" color="#000"><path d="M741.26 410v-9m0-220.99v9"/><text fill="#000" font-family="Arial" font-size="16" text-anchor="middle" transform="translate(741.26 442.2)"><tspan> 10</tspan></text></g><path fill="none" stroke="#EEE" stroke-linecap="round" stroke-linejoin="round" d="M0 393.91h741.26" class="gridline" color="#000"/><g fill="none" stroke-linecap="round" stroke-linejoin="round" stroke-width="0" color="#000"><path d="M741.26 393.91h-9"/><text fill="#000" font-family="Arial" font-size="16" transform="translate(758.04 399.11)"><tspan>12</tspan></text></g><path fill="none" stroke="#EEE" stroke-linecap="round" stroke-linejoin="round" d="M0 366.36h741.26" class="gridline" color="#000"/><g fill="none" stroke-linecap="round" stroke-linejoin="round" stroke-width="0" color="#000"><path d="M741.26 366.36h-9"/><text fill="#000" font-family="Arial" font-size="16" transform="translate(758.04 371.56)"><tspan>14</tspan></text></g><path fill="none" stroke="#EEE" stroke-linecap="round" stroke-linejoin="round" d="M0 338.81h741.26" class="gridline" color="#000"/><g fill="none" stroke-linecap="round" stroke-linejoin="round" stroke-width="0" color="#000"><path d="M741.26 338.81h-9"/><text fill="#000" font-family="Arial" font-size="16" transform="translate(758.04 344.01)"><tspan>16</tspan></text></g><path fill="none" stroke="#EEE" stroke-linecap="round" stroke-linejoin="round" d="M0 311.27h741.26" class="gridline" color="#000"/><g fill="none" stroke-linecap="round" stroke-linejoin="round" stroke-width="0" color="#000"><path d="M741.26 311.27h-9"/><text fill="#000" font-family="Arial" font-size="16" transform="translate(758.04 316.47)"><tspan>18</tspan></text></g><path fill="none" stroke="#EEE" stroke-linecap="round" stroke-linejoin="round" d="M0 283.72h741.26" class="gridline" color="#000"/><g fill="none" stroke-linecap="round" stroke-linejoin="round" stroke-width="0" color="#000"><path d="M741.26 283.72h-9"/><text fill="#000" font-family="Arial" font-size="16" transform="translate(758.04 288.92)"><tspan>20</tspan></text></g><path fill="none" stroke="#EEE" stroke-linecap="round" stroke-linejoin="round" d="M0 256.17h741.26" class="gridline" color="#000"/><g fill="none" stroke-linecap="round" stroke-linejoin="round" stroke-width="0" color="#000"><path d="M741.26 256.17h-9"/><text fill="#000" font-family="Arial" font-size="16" transform="translate(758.04 261.37)"><tspan>22</tspan></text></g><path fill="none" stroke="#EEE" stroke-linecap="round" stroke-linejoin="round" d="M0 228.62h741.26" class="gridline" color="#000"/><g fill="none" stroke-linecap="round" stroke-linejoin="round" stroke-width="0" color="#000"><path d="M741.26 228.62h-9"/><text fill="#000" font-family="Arial" font-size="16" transform="translate(758.04 233.82)"><tspan>24</tspan></text></g><path fill="none" stroke="#EEE" stroke-linecap="round" stroke-linejoin="round" d="M0 201.08h741.26" class="gridline" color="#000"/><g fill="none" stroke-linecap="round" stroke-linejoin="round" stroke-width="0" color="#000"><path d="M741.26 201.08h-9"/><text fill="#000" font-family="Arial" font-size="16" transform="translate(758.04 206.28)"><tspan>26</tspan></text></g><path fill="none" d="M0 180.01V410m741.26-229.99H0" color="#000"/><text stroke-linecap="round" stroke-linejoin="round" stroke-width="0" color="#000" font-family="Arial" font-size="16" text-anchor="middle" transform="translate(370.63 478.2)"><tspan>Size × 10</tspan><tspan dy="-8" font-size="12.8">5</tspan></text><text stroke-linecap="round" stroke-linejoin="round" stroke-width="2" color="#000" font-family="Arial" font-size="16" transform="translate(70.43 93.21)"><tspan>Median</tspan></text><g fill="none" stroke="currentColor" stroke-linecap="round" stroke-linejoin="round" stroke-width="2" color="#000"><path stroke="#000" d="M5.43 88.01h53.8M0 383.33l8.06 9.13 8.05.11 8.06-11.17 8.06-7.46 8.06-7.61 8.05 3.14 8.06 3.21 8.06 7.42 8.05 7.78 8.06 2.94 8.06 2.6 8.06-3.33 8.05-5.23 8.06-6.46 8.06-2.06 8.05-7.23 8.06-5.19 8.06-1.42 8.06-.79 8.05 4.02 8.06 1.2 8.06-1.11 8.06 1.71 8.05 5.3 8.06 2.5 8.06 1.47 8.05 1.26 8.06.52 8.06.27 8.06-1.83 8.05 2.56 8.06-5.43 8.06-5.07 8.05-3.95 8.06-3.29 8.06-5.57 8.06-2.82 8.05-.57 8.06-4.55 8.06-3.9 8.05-2.15 8.06-3.81 8.06-3.06 8.06-.28 8.05.25 8.06-.71 8.06 2.73 8.05 1.61 8.06-.25 8.06 2.34 8.06 1.38 8.05.84 8.06.55 8.06 2.26 8.05 1.96 8.06-.07 8.06 2.73 8.06 1.95 8.05.03 8.06 1.87 8.06.64 8.05 1.23 8.06.76 8.06.23 8.06 1.8 8.05.5 8.06-.22 8.06 1.39 8.06.79 8.05 1.24 8.06-1.41 8.06-3.25 8.05-1.26 8.06-.19 8.06-3.22 8.06-.66 8.05-.73 8.06-1.65 8.06-1.76 8.05-1.06 8.06-1.2 8.06-.19 8.06-.42 8.05.34 8.06-1.91 8.06-1.67 8.05-2.3 8.06-.72 8.06-.73 8.06-.55 8.05-5.75 8.06-.62"/><use xlink:href="#e" transform="matrix(9 0 0 9 684.86 344.39)"/><use xlink:href="#e" transform="matrix(9 0 0 9 32.33 88.01)"/></g><text stroke-linecap="round" stroke-linejoin="round" stroke-width="2" color="#000" font-family="Arial" font-size="16" transform="translate(70.43 129.21)"><tspan>Height</tspan></text><g fill="none" stroke="currentColor" stroke-linecap="round" stroke-linejoin="round" stroke-width="2" color="#000"><path stroke="#9F650D" stroke-dasharray="8,4,2,4" d="M5.43 124.01h53.8M0 379.55l8.06-3.43 8.05-5.45 8.06 3.58 8.06-6.79 8.06-4.62 8.05 6.43 8.06 4.27 8.06.11 8.05-7.2 8.06 3.34 8.06-1.25 8.06-1.7 8.05.02 8.06-.85 8.06-1.07 8.05-1.11 8.06-4.31 8.06-2.19 8.06.19 8.05 3.22 8.06 3.14 8.06 3.94 8.06 1.3 8.05-.38 8.06-4.15 8.06-1.59 8.05 2.73 8.06-2.1 8.06-1.8 8.06-5.43 8.05 1.44 8.06-3.21 8.06-2.57 8.05-.39 8.06-1.22 8.06-4.04 8.06 1.17 8.05-4.76 8.06 2.49 8.06-.75 8.05-2.79 8.06-3.4 8.06-2.58 8.06-.67 8.05-1 8.06 1.7 8.06 2.84 8.05 2.49 8.06.67 8.06 2.52 8.06.71 8.05 1.69 8.06 1.49 8.06-3.97 8.05.22 8.06 2.54 8.06.96 8.06-.75 8.05.07 8.06-2.21 8.06-1.43 8.05-.01 8.06 2.13 8.06-1.33 8.06 1.91 8.05-6.53 8.06 3.21 8.06-1.39 8.06-1.6 8.05 4.86 8.06-3.95 8.06 2.13 8.05-.56 8.06-1.09 8.06 2.07 8.06-1.12 8.05 1.56 8.06-2.96 8.06 1 8.05-1.08 8.06-2.53 8.06 3.81 8.06-1.1 8.05-.26 8.06-.5 8.06-.32 8.05-.29 8.06-1.18 8.06.51 8.06-.64 8.05-2.17 8.06-.97"/><use xlink:href="#b" color="#9F650D" transform="matrix(9 0 0 9 72.51 366.45)"/><use xlink:href="#b" color="#9F650D" transform="matrix(9 0 0 9 32.33 124.01)"/></g><text stroke-linecap="round" stroke-linejoin="round" stroke-width="2" color="#000" font-family="Arial" font-size="16" transform="translate(258.63 93.21)"><tspan>HalfSize</tspan></text><g fill="none" stroke="currentColor" stroke-linecap="round" stroke-linejoin="round" stroke-width="2" color="#000"><path stroke="#F44336" d="M193.63 88.01h53.8M0 382.01l8.06.37h8.05l8.06-.14 8.06.68 8.06.24 8.05-.6 8.06.25 8.06-.89 8.05.44 8.06-.82 8.06.73 8.06-.86 8.05-1.33 8.06-2.36 8.06.55 8.05-.78 8.06-1.25 8.06-2.04 8.06-.19 8.05-2.11 8.06-.82 8.06.31 8.06-.84 8.05-.24 8.06-1.11 8.06-2.22 8.05-.13 8.06-1.5 8.06-.34 8.06-.54 8.05-2.09 8.06-.43 8.06.46 8.05-1.84 8.06.07 8.06-1.03 8.06-.9 8.05-.25 8.06.46 8.06.06 8.05 2 8.06-.26 8.06.67 8.06-2.18 8.05-.63 8.06-.14 8.06.9 8.05-1.22 8.06.26 8.06-.76 8.06 1.69 8.05-2.06 8.06 1.51 8.06-.93 8.05-.4 8.06-.36 8.06.48 8.06.26 8.05-1.05 8.06.87 8.06.2 8.05-.05 8.06.37 8.06-.78 8.06-.07 8.05.79 8.06.16 8.06-.14 8.06-.69 8.05-.15 8.06.3 8.06.42 8.05.22 8.06-.05 8.06-.57 8.06-.19 8.05-.32 8.06.67 8.06-.34 8.05.2 8.06 1.06 8.06-1.19 8.06.05 8.05.53 8.06-.89 8.06.17 8.05-.12 8.06.05 8.06.9 8.06-1.16 8.05.71 8.06-.29"/><use xlink:href="#f" color="#F44336" transform="matrix(9 0 0 9 201.43 369.2)"/><use xlink:href="#f" color="#F44336" transform="matrix(9 0 0 9 220.53 88.01)"/></g><text stroke-linecap="round" stroke-linejoin="round" stroke-width="2" color="#000" font-family="Arial" font-size="16" transform="translate(258.63 129.21)"><tspan>LogSize</tspan></text><g fill="none" stroke="currentColor" stroke-linecap="round" stroke-linejoin="round" stroke-width="2" color="#000"><path stroke="#FFAB00" d="M193.63 124.01h53.8M0 381.96l8.06-.92 8.05.56 8.06.25 8.06.08 8.06.12 8.05-.45 8.06.3 8.06-.24 8.05-.41 8.06-.61 8.06.17 8.06.16 8.05-1.57 8.06-1.84 8.06.46 8.05-1.1 8.06.93 8.06-1.06 8.06.36 8.05-1.35 8.06-.48 8.06.61h8.06l8.05-.57 8.06-1 8.06-.85 8.05-1.17 8.06-.2 8.06-.61 8.06-1 8.05.84 8.06-2.21 8.06-1.39 8.05-1.29 8.06-2.3 8.06-.4 8.06-.78 8.05-1.07 8.06-.17 8.06-1.08 8.05-.81 8.06-1.24 8.06.74 8.06-.73 8.05-.77 8.06-.68 8.06.78 8.05-1.5 8.06.26 8.06.1 8.06.36 8.05-1.17 8.06.58 8.06 1.18 8.05-1.94 8.06.68 8.06-1.12 8.06 1.2 8.05-.93 8.06 1.17 8.06-.08 8.05-.3 8.06.72 8.06-.64 8.06-.86 8.05 1.38 8.06-.37 8.06-.01 8.06-.74 8.05.61 8.06.08 8.06-.95 8.05.25 8.06 1.38 8.06-.31 8.06-.46 8.05-.65 8.06.21 8.06.27 8.05.29 8.06-.26 8.06-.51 8.06.42 8.05.24 8.06-.46 8.06.28 8.05-.64 8.06.82 8.06.06 8.06.28 8.05-1.38 8.06.75"/><use xlink:href="#a" color="#FFAB00" transform="matrix(9 0 0 9 330.34 359.87)"/><use xlink:href="#a" color="#FFAB00" transform="matrix(9 0 0 9 220.53 124.01)"/></g><text stroke-linecap="round" stroke-linejoin="round" stroke-width="2" color="#000" font-family="Arial" font-size="16" transform="translate(446.83 93.21)"><tspan>HalfWeight</tspan></text><g fill="none" stroke="currentColor" stroke-linecap="round" stroke-linejoin="round" stroke-width="2" color="#000"><path stroke="#304FFE" d="M381.83 88.01h53.8M0 394.12l8.06.82 8.05-.37 8.06-.6 8.06 1.13 8.06.03 8.05-.43 8.06.13 8.06-1 8.05.35 8.06-.04 8.06-1.6 8.06-1.21 8.05.38 8.06-.08 8.06 1.09 8.05-2 8.06-.68 8.06-1.48 8.06-1.6 8.05-.1 8.06-1.71 8.06.18 8.06-2.06 8.05-1.14 8.06-.15 8.06-1.66 8.05-1.02 8.06-.34 8.06-.35 8.06-1.51 8.05-1.67 8.06-.47 8.06-.98 8.05-1.6 8.06-1.06 8.06.08 8.06 1.39 8.05-1.71 8.06-.86 8.06-.09 8.05.2 8.06-.58 8.06-.24 8.06.71 8.05-.71 8.06-.13 8.06.13 8.05-.5 8.06-.9 8.06.59 8.06.85 8.05.31 8.06-1.02 8.06-1.05 8.05.98 8.06-.15 8.06.92 8.06.33 8.05-.84 8.06.39 8.06.42 8.05-.13 8.06.25 8.06.08 8.06-1.02 8.05.54 8.06-.25 8.06.05 8.06.15 8.05-.36 8.06.31 8.06.33 8.05-1.33 8.06.96 8.06.43 8.06-.1 8.05-.55 8.06-.07 8.06 1.01 8.05-.82 8.06-.41 8.06.85 8.06-1.07 8.05 1.23 8.06-.46 8.06-.71h8.05l8.06 1.01 8.06-.33 8.06-.18 8.05.08 8.06-.23"/><use xlink:href="#g" color="#304FFE" transform="matrix(9 0 0 9 459.26 369.54)"/><use xlink:href="#g" color="#304FFE" transform="matrix(9 0 0 9 408.73 88.01)"/></g><text stroke-linecap="round" stroke-linejoin="round" stroke-width="2" color="#000" font-family="Arial" font-size="16" transform="translate(446.83 129.21)"><tspan>LogWeight</tspan></text><g fill="none" stroke="currentColor" stroke-linecap="round" stroke-linejoin="round" stroke-width="2" color="#000"><path stroke="#29C3F6" d="M381.83 124.01h53.8M0 396.17l8.06-.89 8.05-.71 8.06 1.31 8.06.61 8.06-.58 8.05.31 8.06-1.28 8.06.72 8.05-.88 8.06-.65 8.06-1.23 8.06.85 8.05-.81 8.06.22 8.06-1.1 8.05-.43 8.06-.05 8.06-1.73 8.06.81 8.05-.43 8.06-.08 8.06.02 8.06-.26 8.05.16 8.06-.64 8.06.24 8.05-.35 8.06-.48 8.06-1.58 8.06-.12 8.05.12 8.06-.62 8.06-1.78 8.05-.58 8.06-2.37 8.06-.57 8.06-.68 8.05-.73 8.06-1.75 8.06-.54 8.05-1.15 8.06-1.5 8.06.01 8.06-.57 8.05-1.19 8.06-.92 8.06.95 8.05-1.73 8.06-.37 8.06.64 8.06-.19 8.05-.4 8.06-.54 8.06-.45 8.05.34 8.06-.7 8.06.09 8.06 1.43 8.05-1.13 8.06.44 8.06.13 8.05.28h8.06l8.06-.65 8.06.09 8.05.81 8.06-.54 8.06-.84 8.06.1 8.05-.31 8.06.42 8.06-.54 8.05 1.27 8.06-.22 8.06-.21 8.06.3 8.05-.29 8.06.33 8.06-.26 8.05.68 8.06-.43 8.06-.05 8.06.47 8.05-.84 8.06-.47 8.06 1.13 8.05-.47 8.06 1.23 8.06-.54 8.06-.35 8.05-.78 8.06.3"/><use xlink:href="#d" color="#29C3F6" transform="matrix(9 0 0 9 588.17 370.92)"/><use xlink:href="#d" color="#29C3F6" transform="matrix(9 0 0 9 408.73 124.01)"/></g><text stroke-linecap="round" stroke-linejoin="round" stroke-width="2" color="#000" font-family="Arial" font-size="16" transform="translate(635.03 93.21)"><tspan>Cost</tspan></text><g fill="none" stroke="currentColor" stroke-linecap="round" stroke-linejoin="round" stroke-width="2" color="#000"><path stroke="#4CAF50" d="M570.03 88.01h53.8M0 377.43l8.06 9.3 8.05-2.47 8.06-2.37 8.06-5.89 8.06-3.84 8.05 1.07 8.06.94 8.06 3 8.05 3.62 8.06 2.48 8.06-.43 8.06 2.05 8.05-3.3 8.06-3.81 8.06-1.42 8.05-2.83 8.06-3.7 8.06-.91 8.06-2.54 8.05 2.12 8.06.44 8.06.86 8.06 1.33 8.05 2.72 8.06 1.81 8.06 1.37 8.05 1.31 8.06.91 8.06.92 8.06-1.86 8.05 1.2 8.06-4.76 8.06-1.66 8.05-1.37 8.06-3.17 8.06-3.02 8.06-2.97 8.05-2.55 8.06-2.18 8.06-3 8.05-.24 8.06-4.51 8.06.62 8.06-1.89 8.05.43 8.06-1.29 8.06-1.9 8.05.07 8.06 6.86 8.06-6.21 8.06.21 8.05 4.41 8.06-2.39 8.06-.38 8.05 1.95 8.06.98 8.06 1.97 8.06-.54 8.05 2.02 8.06.7 8.06-.61 8.05-.86 8.06.88 8.06 1.68 8.06 1.39 8.05-1.05 8.06-1 8.06 1.28 8.06 3.25 8.05-1.53 8.06-.74 8.06-2.31 8.05-3.39 8.06 4.77 8.06-2.9 8.06.49 8.05-1.71 8.06-3.26 8.06 3.23 8.05-.6 8.06-1.27 8.06-1.85 8.06 1.36 8.05.49 8.06-2.11 8.06.46 8.05-2.05 8.06-1.68 8.06-.25 8.06 1.56 8.05-1.07 8.06-1.85"/><use xlink:href="#h" color="#4CAF50" transform="matrix(9 0 0 9 717.09 345.81)"/><use xlink:href="#h" color="#4CAF50" transform="matrix(9 0 0 9 596.93 88.01)"/></g><text stroke-linecap="round" stroke-linejoin="round" stroke-width="2" color="#000" font-family="Arial" font-size="16" transform="translate(635.03 129.21)"><tspan>DSW</tspan></text><g fill="none" stroke="currentColor" stroke-linecap="round" stroke-linejoin="round" stroke-width="2" color="#000"><path stroke="violet" d="M570.03 124.01h53.8M0 408.45 8.06 410l8.05-.04 8.06-.31 8.06-.26 8.06-.75 8.05-3.8 8.06 1.74 8.06-.5 8.05-1.61 8.06-1.7 8.06.47 8.06-2.25 8.05-1.32 8.06-.93 8.06-.78 8.05-3.97 8.06.62 8.06-1.13 8.06-44.81 8.05 1.37 8.06 4.11 8.06 1.1 8.06 1.25 8.05 3.99 8.06 2.78h8.06l8.05 4.51 8.06-3.16 8.06.73 8.06.01 8.05-.53 8.06 2.2 8.06 1.4 8.05-1.65 8.06-2.71 8.06-1.43 8.06-3.12 8.05-3.06 8.06-3.06 8.06-2.89 8.05-3.37 8.06-2.56 8.06-5.09 8.06-1.06L362.57 207l8.06 3.03 8.06 1.39 8.05 7.18 8.06 2.18 8.06 3.34 8.06-1.51 8.05-5.25 8.06-.84 8.06-5.15 8.05-3 8.06.45 8.06-4.32 8.06-1.18 8.05-2.07 8.06-1.15 8.06-4.8 8.05-2.28 8.06-.84 8.06-2.54 8.06-2.66 8.05-4.31 8.06-1.42 8.06-1.24 8.06 1.6 8.05.34 8.06 3.23 8.06 1.79 8.05 2.87 8.06-.38 8.06 4.41 8.06.03 8.05-.41 8.06.36 8.06 1.14 8.05.9 8.06 2.29 8.06 1.86 8.06.73 8.05-.42 8.06 3.18 8.06-2.89 8.05.09 8.06-3.34 8.06-1.47 8.06-1.21 8.05-2.24 8.06.07"/><use xlink:href="#i" color="violet" transform="matrix(9 0 0 9 104.74 399.67)"/><use xlink:href="#i" color="violet" transform="matrix(9 0 0 9 596.93 124.01)"/></g><path fill="none" d="M0 180.01V410m741.26-229.99H0" color="#000"/><text stroke-linecap="round" stroke-linejoin="round" stroke-width="0" color="#000" font-family="Arial" font-size="24" text-anchor="middle" transform="translate(370.63 34.81)"><tspan font-weight="bold">Duration </tspan><tspan> / Size</tspan></text></svg>