<svg xmlns="http://www.w3.org/2000/svg" xmlns:xlink="http://www.w3.org/1999/xlink" viewBox="0 0 400 250"><path fill="none" d="M0 0h400v250H0z"/><defs><use xlink:href="#a" id="g" fill="currentColor" stroke="none"/><use xlink:href="#b" id="h" fill="currentColor" stroke="none"/><use xlink:href="#b" id="c" stroke="currentColor" transform="rotate(180)"/><use xlink:href="#d" id="e" stroke="currentColor" transform="rotate(45)"/><path id="d" stroke="currentColor" stroke-width=".267" d="M-1-1h2v2h-2z"/><path id="b" stroke="currentColor" stroke-width=".267" d="m0-1.33-1.33 2h2.66z"/><path id="f" stroke="currentColor" stroke-width=".267" d="M0 1.33 1.265.411.782-1.067l-1.564-.009-.483 1.487z"/><circle id="a" cx="0" cy="0" r="1" stroke="currentColor" stroke-width=".267"/></defs><path fill="none" stroke="#333" stroke-dasharray="0.2,0.4" stroke-linecap="round" stroke-linejoin="round" stroke-width=".2" d="M35.48 205V75.01" class="gridline" color="#000"/><g fill="none" stroke="none" stroke-linecap="round" stroke-linejoin="round" stroke-width="0" color="#000"><path d="M35.48 205v-7.5m0-122.49v7.5"/><text fill="#000" font-family="KaTeX_Main" font-size="10" text-anchor="middle" transform="translate(35.48 215.75)"><tspan> 1</tspan></text></g><path fill="none" stroke="#333" stroke-dasharray="0.2,0.4" stroke-linecap="round" stroke-linejoin="round" stroke-width=".2" d="M72.87 205V75.01" class="gridline" color="#000"/><g fill="none" stroke="none" stroke-linecap="round" stroke-linejoin="round" stroke-width="0" color="#000"><path d="M72.87 205v-7.5m0-122.49v7.5"/><text fill="#000" font-family="KaTeX_Main" font-size="10" text-anchor="middle" transform="translate(72.87 215.75)"><tspan> 2</tspan></text></g><path fill="none" stroke="#333" stroke-dasharray="0.2,0.4" stroke-linecap="round" stroke-linejoin="round" stroke-width=".2" d="M110.26 205V75.01" class="gridline" color="#000"/><g fill="none" stroke="none" stroke-linecap="round" stroke-linejoin="round" stroke-width="0" color="#000"><path d="M110.26 205v-7.5m0-122.49v7.5"/><text fill="#000" font-family="KaTeX_Main" font-size="10" text-anchor="middle" transform="translate(110.26 215.75)"><tspan> 3</tspan></text></g><path fill="none" stroke="#333" stroke-dasharray="0.2,0.4" stroke-linecap="round" stroke-linejoin="round" stroke-width=".2" d="M147.65 205V75.01" class="gridline" color="#000"/><g fill="none" stroke="none" stroke-linecap="round" stroke-linejoin="round" stroke-width="0" color="#000"><path d="M147.65 205v-7.5m0-122.49v7.5"/><text fill="#000" font-family="KaTeX_Main" font-size="10" text-anchor="middle" transform="translate(147.65 215.75)"><tspan> 4</tspan></text></g><path fill="none" stroke="#333" stroke-dasharray="0.2,0.4" stroke-linecap="round" stroke-linejoin="round" stroke-width=".2" d="M185.04 205V75.01" class="gridline" color="#000"/><g fill="none" stroke="none" stroke-linecap="round" stroke-linejoin="round" stroke-width="0" color="#000"><path d="M185.04 205v-7.5m0-122.49v7.5"/><text fill="#000" font-family="KaTeX_Main" font-size="10" text-anchor="middle" transform="translate(185.04 215.75)"><tspan> 5</tspan></text></g><path fill="none" stroke="#333" stroke-dasharray="0.2,0.4" stroke-linecap="round" stroke-linejoin="round" stroke-width=".2" d="M222.43 205V75.01" class="gridline" color="#000"/><g fill="none" stroke="none" stroke-linecap="round" stroke-linejoin="round" stroke-width="0" color="#000"><path d="M222.43 205v-7.5m0-122.49v7.5"/><text fill="#000" font-family="KaTeX_Main" font-size="10" text-anchor="middle" transform="translate(222.43 215.75)"><tspan> 6</tspan></text></g><path fill="none" stroke="#333" stroke-dasharray="0.2,0.4" stroke-linecap="round" stroke-linejoin="round" stroke-width=".2" d="M259.82 205V75.01" class="gridline" color="#000"/><g fill="none" stroke="none" stroke-linecap="round" stroke-linejoin="round" stroke-width="0" color="#000"><path d="M259.82 205v-7.5m0-122.49v7.5"/><text fill="#000" font-family="KaTeX_Main" font-size="10" text-anchor="middle" transform="translate(259.82 215.75)"><tspan> 7</tspan></text></g><path fill="none" stroke="#333" stroke-dasharray="0.2,0.4" stroke-linecap="round" stroke-linejoin="round" stroke-width=".2" d="M297.21 205V75.01" class="gridline" color="#000"/><g fill="none" stroke="none" stroke-linecap="round" stroke-linejoin="round" stroke-width="0" color="#000"><path d="M297.21 205v-7.5m0-122.49v7.5"/><text fill="#000" font-family="KaTeX_Main" font-size="10" text-anchor="middle" transform="translate(297.21 215.75)"><tspan> 8</tspan></text></g><path fill="none" stroke="#333" stroke-dasharray="0.2,0.4" stroke-linecap="round" stroke-linejoin="round" stroke-width=".2" d="M334.6 205V75.01" class="gridline" color="#000"/><g fill="none" stroke="none" stroke-linecap="round" stroke-linejoin="round" stroke-width="0" color="#000"><path d="M334.6 205v-7.5m0-122.49v7.5"/><text fill="#000" font-family="KaTeX_Main" font-size="10" text-anchor="middle" transform="translate(334.6 215.75)"><tspan> 9</tspan></text></g><path fill="none" stroke="#333" stroke-dasharray="0.2,0.4" stroke-linecap="round" stroke-linejoin="round" stroke-width=".2" d="M371.99 205V75.01" class="gridline" color="#000"/><g fill="none" stroke="none" stroke-linecap="round" stroke-linejoin="round" stroke-width="0" color="#000"><path d="M371.99 205v-7.5m0-122.49v7.5"/><text fill="#000" font-family="KaTeX_Main" font-size="10" text-anchor="middle" transform="translate(371.99 215.75)"><tspan> 10</tspan></text></g><g fill="none" stroke="none" stroke-linecap="round" stroke-linejoin="round" stroke-width="0" color="#000"><path d="M371.99 205h-7.5"/><text fill="#000" font-family="KaTeX_Main" font-size="10" transform="translate(378.99 208.25)"><tspan>0.90</tspan></text></g><g fill="none" stroke="none" stroke-linecap="round" stroke-linejoin="round" stroke-width="0" color="#000"><path d="M371.99 192h-7.5"/><text fill="#000" font-family="KaTeX_Main" font-size="10" transform="translate(378.99 195.25)"><tspan>0.90</tspan></text></g><g fill="none" stroke="none" stroke-linecap="round" stroke-linejoin="round" stroke-width="0" color="#000"><path d="M371.99 179h-7.5"/><text fill="#000" font-family="KaTeX_Main" font-size="10" transform="translate(378.99 182.25)"><tspan>0.91</tspan></text></g><g fill="none" stroke="none" stroke-linecap="round" stroke-linejoin="round" stroke-width="0" color="#000"><path d="M371.99 166h-7.5"/><text fill="#000" font-family="KaTeX_Main" font-size="10" transform="translate(378.99 169.25)"><tspan>0.91</tspan></text></g><g fill="none" stroke="none" stroke-linecap="round" stroke-linejoin="round" stroke-width="0" color="#000"><path d="M371.99 153h-7.5"/><text fill="#000" font-family="KaTeX_Main" font-size="10" transform="translate(378.99 156.25)"><tspan>0.92</tspan></text></g><g fill="none" stroke="none" stroke-linecap="round" stroke-linejoin="round" stroke-width="0" color="#000"><path d="M371.99 140h-7.5"/><text fill="#000" font-family="KaTeX_Main" font-size="10" transform="translate(378.99 143.25)"><tspan>0.92</tspan></text></g><g fill="none" stroke="none" stroke-linecap="round" stroke-linejoin="round" stroke-width="0" color="#000"><path d="M371.99 127.01h-7.5"/><text fill="#000" font-family="KaTeX_Main" font-size="10" transform="translate(378.99 130.26)"><tspan>0.93</tspan></text></g><g fill="none" stroke="none" stroke-linecap="round" stroke-linejoin="round" stroke-width="0" color="#000"><path d="M371.99 114.01h-7.5"/><text fill="#000" font-family="KaTeX_Main" font-size="10" transform="translate(378.99 117.26)"><tspan>0.93</tspan></text></g><g fill="none" stroke="none" stroke-linecap="round" stroke-linejoin="round" stroke-width="0" color="#000"><path d="M371.99 101.01h-7.5"/><text fill="#000" font-family="KaTeX_Main" font-size="10" transform="translate(378.99 104.26)"><tspan>0.94</tspan></text></g><g fill="none" stroke="none" stroke-linecap="round" stroke-linejoin="round" stroke-width="0" color="#000"><path d="M371.99 88.01h-7.5"/><text fill="#000" font-family="KaTeX_Main" font-size="10" transform="translate(378.99 91.26)"><tspan>0.94</tspan></text></g><g fill="none" stroke="none" stroke-linecap="round" stroke-linejoin="round" stroke-width="0" color="#000"><path d="M371.99 75.01h-7.5"/><text fill="#000" font-family="KaTeX_Main" font-size="10" transform="translate(378.99 78.26)"><tspan>0.95</tspan></text></g><path fill="none" stroke="none" stroke-linecap="round" stroke-linejoin="round" stroke-width="0" d="M28 75.01V205M371.99 75.01H28" color="#000"/><text fill="#000" stroke="none" stroke-linecap="round" stroke-linejoin="round" stroke-width="0" color="#000" font-family="KaTeX_Main" font-size="10" text-anchor="middle" transform="rotate(-90 75.755 64.255)"><tspan font-weight="bold">AveragePathLength </tspan><tspan> / log</tspan><tspan dy="3" font-size="8">2</tspan><tspan dy="-3">(Size)</tspan></text><text fill="#000" stroke="none" stroke-linecap="round" stroke-linejoin="round" stroke-width="0" color="#000" font-family="KaTeX_Main" font-size="10" text-anchor="middle" transform="translate(199.99 238.25)"><tspan>Operations × 10</tspan><tspan dy="-5" font-size="8">5</tspan></text><text fill="#000" stroke="none" stroke-linecap="round" stroke-linejoin="round" color="#000" font-family="KaTeX_Main" font-size="8" transform="translate(132.8 47.61)"><tspan>LBSTBottomUp</tspan></text><g fill="none" stroke="currentColor" stroke-linecap="round" stroke-linejoin="round" color="#000"><path stroke="#3B75EA" d="M97.3 45.01h29.9M28 194.1l.37-.37.38-.28.37-.3.38-.32.37-.24.37-.31.38-.45.37-.36.38-.19.37-.04.37-.34.38-.34.37-.24.37-.35.38-.29.37.18.38-.28.37-.18.37-.39.38-.25.37-.24.38-.2.37-.18.37-.19.38-.22.37-.27.38-.33.37-.33.37-.25.38-.28.37-.25.37-.29.38-.24.37-.33.38-.14.37-.3.37-.15.38-.13.37-.28.38-.25.37-.24.37-.14.38-.27.37-.17.38-.22.37-.13.37-.18.38-.23.37-.27.38-.21.37-.16.37-.2.38-.17.37-.14.37-.2.38-.1.37-.23.38-.31.37-.16.37-.25.38-.12.37-.16.38-.21.37-.14.37-.04.38-.16.37-.19.38-.18.37-.22.37-.23.38-.19.37-.15.37-.21.38-.16.37-.2.38-.19.37-.1.37-.23.38-.08.37-.14.38-.15.37-.15.37-.12.38-.12.37-.19.38-.1.37-.12.37-.15.38-.17.37-.11.38-.21.37-.15.37-.12.38-.12.37-.14.37-.19.38-.11.37-.18.38-.17.37-.17.37-.09.38-.14.37-.14.38-.14.37-.17.37-.11.38-.15.37-.15.38-.16.37-.1.37-.17.38-.11.37-.16.37-.15.38-.13.37-.04.38-.14.37-.06.37-.12.38-.13.37-.11.38-.16.37-.13.37-.13.38-.12.37-.09.38-.14.37-.12.37-.13.38-.13.37-.1.38-.19.37-.14.37-.12.38-.09.37-.12.37-.12.38-.09.37-.1.38-.15.37-.15.37-.14.38-.11.37-.1.38-.08.37-.13.37-.11.38-.14.37-.15.38-.09.37-.09.37-.07.38-.1.37-.12.37-.1.38-.1.37-.07.38-.06.37-.12.37-.11.38-.1.37-.08.38-.07.37-.09.37-.09.38-.14.37-.09.38-.12.37-.11.37-.07.38-.07.37-.09.38-.11.37-.09.37-.12.38-.1.37-.13.37-.12.38-.08.37-.1.38-.1.37-.05.37-.09.38-.06.37-.12.38-.11.37-.13.37-.07.38-.08.37-.08.38-.08.37-.1.37-.08.38-.09.37-.05.37-.09.38-.09.37-.09.38-.06.37-.11.37-.1.38-.02.37-.03.38-.05.37-.07.37-.05.38-.12.37-.1.38-.09.37-.09.37-.04.38-.1.37-.07.38-.12.37-.09.37-.07.38-.03.37-.08.37-.08.38-.08.37-.09.38-.05.37-.07.37-.06.38-.05.37-.05.38-.07.37-.1.37-.03.38-.09.37-.05.38-.07.37-.09.37-.07.38-.06.37-.06.37-.07.38-.09.37-.07.38-.09.37-.08.37-.09.38-.06.37-.07.38-.08.37-.07.37-.07.38-.07.37-.04.38-.06.37-.09.37-.09.38-.06.37-.07.38-.06.37-.07.37-.05.38-.04.37-.07.37-.05.38-.07.37-.06.38-.06.37-.06.37-.07.38-.05.37-.03.38-.04.37-.08.37-.08.38-.04.37-.07.38-.06.37-.06.37-.09.38-.08.37-.07.37-.06.38-.07.37-.08.38-.05.37-.05.37-.07.38.02.37-.07.38-.05.37-.04.37-.06.38-.06.37-.06.38-.03.37-.04.37-.06.38-.05.37-.06.38-.04.37-.05.37-.06.38-.05.37-.06.37-.05.38-.03.37-.06.38-.05.37-.04.37-.08.38-.04.37-.02.38-.05.37-.07.37-.09.38-.09.37-.06.38-.05.37-.05.37-.06.38-.04.37-.05.37-.04.38-.06.37-.06.38-.05.37-.05.37-.06.38-.04.37-.05.38-.04.37-.06.37-.04.38-.06.37-.06.38-.03.37-.07.37-.04.38-.07.37-.06.38-.06.37-.03.37-.04.38-.05.37-.07.37-.05.38-.07.37-.07.38-.05.37-.04.37-.04.38-.05.37-.05.38-.04.37-.04.37-.05.38-.05.37-.05.38-.07.37-.04.37-.07.38-.03.37-.02.37-.05.38-.04.37-.03.38-.06.37-.05.37-.02.38-.06.37-.05.38-.05.37-.04.37-.05.38-.05.37-.02.38-.07.37-.01.37-.06.38-.03.37-.04.38-.06.37-.04.37-.04.38-.04.37-.04.37-.06.38-.06.37-.04.38-.04.37-.05.37-.02.38-.07.37-.05.38-.05.37-.05.37-.06.38-.05.37-.04.38-.02.37-.04.37-.06.38-.04.37-.05.37-.04.38-.04.37-.06.38-.05.37-.05.37-.04.38-.05.37-.04.38-.05.37-.04.37-.03.38-.04.37-.03.38-.03.37-.06.37-.03.38-.04.37-.04.38-.01.37-.03.37-.05.38-.04.37-.04.37-.04.38-.06.37-.05.38-.03.37-.04.37-.03.38-.04.37-.05.38-.04.37-.04.37-.04.38-.03.37-.06.38-.03.37-.05.37-.06.38-.02.37-.06.37-.04.38-.03.37-.04.38-.05.37-.03.37-.05.38-.04.37-.05.38-.04.37-.02.37-.05.38-.04.37-.04.38-.04.37-.02.37-.03.38-.04.37-.02.38-.03.37-.04.37-.06.38-.04.37-.03.37-.04.38-.02.37-.04.38-.04.37-.05.37-.03.38-.04.37-.06.38-.04.37-.03.37-.03.38-.04.37-.04.38-.05.37-.04.37-.03h.38l.37-.03.37-.03.38-.05.37-.04.38-.02.37-.03.37-.05.38-.04.37-.04.38-.05.37-.05.37-.02.38-.03.37-.03.38-.04.37-.05.37-.03.38-.04.37-.03.37-.05.38-.04.37-.05.38-.03h.37l.37-.04.38-.05.37-.04.38-.03.37-.02.37-.03.38-.02.37-.03.38-.04.37-.05.37-.02.38-.03.37-.04.38-.03.37-.04.37-.04.38-.03.37-.01.37-.04.38-.02.37-.04h.38l.37-.03.37-.03.38-.02.37-.03.38-.04.37-.03.37-.04.38-.04.37-.02.38-.01.37-.04.37-.04.38-.03.37-.05.37-.03.38-.01.37-.03.38-.03.37-.02.37-.03.38-.01h.37l.38-.04.37-.04.37-.02.38-.05.37-.03.38-.04.37-.03.37-.04.38-.01.37-.03.38-.02.37-.03.37-.03.38-.04.37-.03.37-.03.38-.02.37-.02.38-.03.37-.04.37-.02.38-.05.37-.04.38-.04.37-.02.37-.01.38-.03.37-.03.38-.02.37-.04.37-.03.38-.02.37-.02.37-.04.38-.04.37-.02.38-.03.37-.02.37-.02.38-.04.37-.02.38-.02.37-.02.37-.04.38-.02.37-.04.38-.04.37-.02.37-.02.38-.03.37-.03.38-.03.37-.03.37-.02.38-.03.37-.04.37-.03.38-.04.37-.03.38-.02.37-.03.37-.03.38-.03.37-.02.38-.04.37-.02.37-.04.38-.02.37-.03.38-.03.37-.03.37-.02.38-.02.37-.03.37-.04.38-.03.37-.04.38-.03.37-.01.37-.04.38-.03.37-.03.38-.04.37-.02.37-.02.38-.03.37-.02.38-.04.37-.05.37-.03.38-.03.37-.03.38-.03.37-.03.37-.03.38-.02.37-.02.37-.04.38-.02.37-.04.38-.01.37-.03.37-.03.38-.03.37-.04.38-.02.37-.03.37-.03.38-.03.37.01.38-.02.37-.02.37-.03.38-.05.37-.03.37-.04.38-.03.37-.03.38-.02.37-.02.37-.03.38-.03.37-.02.38-.02.37-.03.37-.02.38-.03.37-.04.38-.03.37-.02.37-.03.38-.01.37-.02.38-.01.37-.05.37-.03.38-.02.37-.03.37-.02.38-.02.37-.02.38-.02.37-.02.37-.04.38-.02.37-.02.38-.01.37-.04.37-.02.38-.03.37-.03.38-.03.37-.02.37-.03.38-.02.37-.02.37-.02.38-.03.37-.03.38-.03.37-.02.37-.03.38-.02.37-.03h.38l.37-.03.37-.03.38-.04.37.01h.38l.37-.02.37-.03.38-.03.37-.02.38-.03.37-.02.37-.02.38-.03.37-.01.37-.03.38-.03.37-.02.38-.04.37-.01.37-.02.38-.03.37-.02.38-.03.37-.02.37-.01.38-.03.37-.02.38-.02.37-.03.37-.03.38-.03.37-.02.37-.04.38-.03.37-.01.38-.03.37-.02.37-.02.38-.03.37-.02.38-.01.37-.03.37-.03.38-.02.37-.02.38-.03.37-.01.37-.02.38-.02.37-.01.38-.03.37-.03.37-.03.38-.02.37-.01.37-.02.38-.01.37-.01.38-.01.37-.02.37-.02.38-.01.37-.03h.38l.37-.03.37-.02.38-.02.37-.04.38-.03.37-.02.37-.02.38-.02.37-.02.37-.01.38-.02.37-.03.38-.03.37-.02.37-.02.38-.03.37-.02.38-.01.37-.03.37-.03.38-.02.37-.02.38-.03.37-.02.37-.02.38-.02.37-.03.38-.01.37-.02.37-.02.38-.03.37-.03.37-.02h.38l.37-.03.38-.03.37-.01.37-.02.38-.03.37-.02.38-.02.37-.01.37-.02.38-.03.37-.03.38-.03.37-.02.37-.03.38-.01.37-.02h.37l.38-.03.37-.02.38-.02.37-.02.37-.01.38-.02.37-.01.38-.03.37-.01.37-.02.38-.02.37-.01.38-.02.37-.02.37-.03.38-.02.37-.02.38-.02.37-.01.37-.02.38-.02.37-.02.37-.01.38-.03.37-.01.38-.03.37-.03.37-.01.38-.02.37-.03.38-.02.37-.01.37-.01.38-.02h.37l.38-.02.37-.02.37-.01.38-.02.37-.01.37-.02.38-.01.37-.01.38-.01.37-.04.37-.01.38-.01.37-.03.38-.02.37-.02.37-.03.38-.02.37-.02.38-.02.37-.01.37-.02.38-.02.37-.03.38-.02.37-.02.37-.03.38-.02.37-.02.37-.01.38-.02.37-.02.38-.02.37-.02.37-.01.38-.02.37-.02.38-.02.37-.01.37-.01.38-.03.37-.03.38-.03.37-.01.37-.01.38-.02h.37l.37-.02.38-.02.37-.01.38-.01.37-.03.37-.01.38-.03.37-.03.38-.03.37-.01"/><use xlink:href="#a" color="#3B75EA" transform="matrix(3.75 0 0 3.75 342.45 138.76)"/><use xlink:href="#a" color="#3B75EA" transform="matrix(3.75 0 0 3.75 112.25 45.01)"/></g><text fill="#000" stroke="none" stroke-linecap="round" stroke-linejoin="round" color="#000" font-family="KaTeX_Main" font-size="8" transform="translate(132.8 62.61)"><tspan>LBSTTopDown</tspan></text><g fill="none" stroke="currentColor" stroke-linecap="round" stroke-linejoin="round" color="#000"><path stroke="#F44336" stroke-dasharray="4.5,2.0,0.5,2.0,0.5,2.0" d="M97.3 60.01h29.9M28 180.04l.37-.27.38-.42.37-.38.38-.53.37-.35.37-.34.38-.32.37-.27.38-.31.37-.29.37-.28.38-.31.37-.31.37-.31.38-.37.37-.05.38-.33.37-.28.37-.37.38-.16.37-.3.38-.15.37-.22.37-.22.38-.19.37-.19.38-.37.37-.32.37-.23.38-.1.37-.16.37-.24.38-.31.37-.28.38-.26.37-.29.37-.21.38-.19.37-.21.38-.29.37-.26.37-.26.38-.22.37-.17.38-.2.37-.24.37-.2.38-.2.37-.24.38-.26.37-.25.37-.2.38-.07.37-.11.37-.18.38-.09.37-.08.38-.3.37-.15.37-.21.38-.16.37-.19.38-.16.37-.19.37-.1.38-.22.37-.17.38-.17.37-.15.37-.23.38-.01.37-.14.37-.19.38-.2.37-.24.38-.17.37-.12.37-.18.38-.08.37-.16.38-.14.37-.21.37-.15.38-.07.37-.12.38-.13.37-.11.37-.08.38-.11.37-.19.38-.12.37-.08.37-.07.38-.12.37-.2.37-.18.38-.15.37-.15.38-.19.37-.09.37-.02.38-.1.37-.18.38-.15.37-.13.37-.13.38-.16.37-.16.38-.07.37-.15.37-.12.38-.15.37-.07.37-.13.38-.15.37-.15.38-.15.37-.08.37-.11.38-.12.37-.13.38-.14.37-.09.37-.13.38-.12.37-.17.38-.12.37-.15.37-.09.38-.06.37-.04.38-.15.37-.03.37-.15.38-.13.37-.12.37-.13.38-.09.37-.09.38-.11.37-.08.37-.05.38-.12.37-.12.38-.07.37-.06.37-.07.38-.12.37-.07.38-.1.37-.14.37-.17.38-.03.37-.12.37-.04.38-.09.37-.07.38-.13.37-.13.37-.07.38-.08.37-.12.38-.13.37-.07.37-.14.38-.12.37-.09.38-.05.37-.12.37-.1.38-.15.37-.13.38-.09.37-.06.37-.07.38-.1.37-.1.37-.06.38-.06.37-.08.38-.07.37-.13.37-.05.38-.07.37-.09.38-.07.37-.07.37-.06.38-.07.37-.11.38-.03.37-.07.37-.08.38-.09.37-.11.37-.07.38-.08.37-.1.38-.07.37-.04.37-.06.38-.07.37-.06.38-.03.37-.08.37-.06.38-.08.37-.05.38-.1.37-.08.37-.06.38-.12.37-.09.38-.09.37-.04.37-.06.38-.1.37-.09.37.02.38-.07.37-.07.38-.09.37-.06.37-.07.38-.05.37-.07.38-.09.37-.1.37-.05.38-.06.37-.09.38-.06.37-.09.37-.07.38-.07.37-.06.37-.06.38-.09.37-.07.38-.06.37-.06.37-.12.38-.06.37-.08.38-.06.37-.06.37-.08.38-.07.37-.09.38-.07.37-.06.37-.05.38-.07.37-.1.38-.07.37-.09.37-.04.38-.06.37-.07.37-.07.38-.08.37-.06.38-.06.37-.06.37-.09.38-.04.37-.07.38-.08.37-.06.37-.07.38-.08.37-.03.38-.06.37-.08.37-.06.38-.03.37-.05.37-.06.38-.06.37-.03.38-.03.37-.05.37-.06.38-.04.37-.01.38-.03.37-.05.37-.06.38-.04.37-.06.38-.03.37-.05.37-.03.38-.09.37-.08.38-.05.37-.06.37-.06.38-.05.37-.02.37-.06.38-.02.37-.08.38-.07.37-.01.37-.01.38-.05.37-.03.38-.07.37-.07.37-.04.38-.08.37-.07.38-.04.37-.07.37-.05.38-.03.37-.05.37-.07.38-.05.37-.01.38-.05.37-.02.37-.04.38-.04.37-.02.38-.05.37-.06.37-.03.38-.04.37-.06.38-.04.37-.04.37-.04.38-.06.37-.05.38-.05.37-.03.37-.04.38-.04.37-.04.37-.05.38-.05.37-.05.38-.05.37-.07.37-.05.38-.05.37-.04.38-.06.37-.04.37-.02.38-.08.37-.05.38-.03.37-.07.37-.01.38-.05.37-.04.37-.05.38-.04.37-.04.38-.06.37-.04.37-.05.38-.05.37-.04.38-.05.37-.05.37-.04.38-.04.37-.05.38-.03.37-.02.37-.04.38-.05.37-.03.38-.03.37-.03.37-.03.38-.05.37-.06.37-.04.38-.05.37-.03.38-.05.37-.03.37-.04.38-.05.37-.02.38-.07.37-.01.37-.04.38-.05.37-.03.38-.05.37-.03.37-.02.38-.05.37-.03.37-.06.38-.05.37-.04.38-.04.37-.04.37-.06.38-.05.37-.06.38-.01.37-.06.37-.03.38-.06.37-.04.38-.03.37-.06.37-.04.38-.05.37-.02.38-.04.37-.04.37-.04.38-.01.37-.07.37-.05.38-.01.37-.06.38-.02.37-.05.37-.02.38-.05.37-.03.38-.07.37-.04.37-.03.38-.03.37-.04.38-.05.37-.07.37-.06.38-.01.37-.04.37-.04.38-.05.37-.02.38-.05.37-.03.37-.03.38-.02.37-.06.38-.02.37-.04.37-.04.38-.04.37-.02.38-.06.37-.02.37-.03h.38l.37-.05.38-.03.37-.03.37-.03.38-.06.37-.04.37-.02.38-.05.37-.04.38-.04.37-.01.37-.03.38-.04.37-.05.38-.05.37-.05.37-.01.38-.04.37-.04.38-.02.37-.04.37-.04.38-.03.37-.04.37-.03.38-.04.37-.04.38-.05.37-.02.37-.02.38-.05.37.03.38-.03.37-.05.37-.04.38-.02.37-.02.38-.04.37-.03.37-.01.38-.03.37-.04.37-.03.38-.02.37-.04.38-.04.37-.03.37-.05.38-.06.37-.04.38-.03.37-.02.37-.02.38-.03.37-.05.38-.03.37-.01.37-.03.38-.03.37-.02.38-.03.37-.03.37-.05.38-.05.37-.02.37-.05.38-.03.37-.04.38-.04.37-.02.37-.01.38-.04.37-.04.38-.03.37-.04.37-.03.38-.05.37-.03.38-.04.37-.01.37-.03.38-.03.37-.03.37-.04.38-.03.37-.02.38-.02.37-.03.37-.03.38-.01.37-.03.38-.02.37-.05.37-.02.38-.01.37-.03.38-.03.37-.02.37-.03.38-.04.37-.04.38-.05.37-.01.37-.04.38-.02.37-.04.37-.03.38-.03.37-.02.38-.01.37-.05.37-.02.38-.04.37-.03.38-.04.37-.02h.37l.38-.03.37-.04.38-.02.37-.03.37-.03.38-.04.37-.02.37-.04.38-.02.37-.05.38-.03.37-.02.37-.02.38-.04.37-.03.38-.04.37-.03.37-.04.38-.03.37-.02.38-.02.37-.02.37-.03.38-.02.37-.02.38-.04.37-.04.37-.02.38-.02.37-.02.37-.03.38-.04.37-.03.38-.02.37-.03.37-.03.38-.01.37-.02.38-.04.37-.03.37-.04.38-.02.37-.03.38-.04.37-.02.37-.02.38-.02.37-.02.37-.02.38-.04.37-.03.38-.02.37-.03.37-.02.38-.02.37-.02.38-.04.37-.02.37-.02.38-.01.37-.04.38-.03.37-.04.37-.03.38-.01.37-.01.38-.02.37-.03.37-.03.38-.01.37-.03.37-.05.38-.01.37-.02.38-.02.37-.05.37-.02.38-.02.37-.03.38-.03.37-.02.37-.04.38-.02.37-.02.38-.03.37-.03.37-.03.38-.02.37-.03.37-.03.38-.03.37-.02.38-.02.37-.02.37-.01.38-.03.37-.02.38-.01.37-.03.37-.03.38-.04.37-.01.38-.01.37-.03.37-.02.38-.03.37-.02.38-.02.37-.02.37-.03.38-.02.37-.04.37-.03.38-.01.37-.02.38-.03.37-.02.37-.04.38-.03.37-.03.38-.03.37-.03.37-.02.38-.01.37-.02.38-.02.37-.03.37-.01.38-.02.37-.04.37-.02.38-.02.37-.01.38-.02.37-.03.37-.03.38-.02.37-.04.38-.02.37-.02.37-.03.38-.03.37-.02.38-.02.37-.03.37-.01.38-.02.37-.03.38-.01.37-.02.37-.03.38-.03.37-.03.37-.02.38-.03.37-.03.38-.01.37-.02.37-.01.38-.03.37-.02.38-.03.37-.03.37-.02.38-.02.37-.02.38-.01.37-.02.37-.01.38-.04.37-.01.37-.02.38-.02.37-.03.38-.02.37-.03.37-.03.38-.03.37-.03.38-.02.37-.04.37-.02.38-.01.37-.02.38-.02.37-.02.37-.02.38-.02.37-.03.38-.03.37-.03.37-.01.38-.03.37-.01.37-.02.38-.04.37-.02h.38l.37-.04.37-.02.38-.02.37-.03.38-.02.37-.02.37-.02.38-.02.37-.02.38-.02.37-.03.37-.02.38-.03.37-.01.37-.01.38-.03.37-.02.38-.02.37-.02.37-.02.38-.02.37-.03.38-.02.37-.03.37-.03.38-.01.37-.03.38-.01.37-.02.37-.02.38-.01.37-.02.38-.02.37-.01.37-.02.38-.02.37-.03.37-.01.38-.02.37-.02.38-.02.37-.03.37-.02.38-.02.37-.02.38-.01.37-.03.37-.04.38-.03.37-.02.38-.02.37-.02.37-.03.38-.01.37-.03.37-.01.38-.02.37-.02.38-.01.37-.01.37-.02.38-.02.37-.01.38-.03.37-.01.37-.01.38-.01.37-.01.38-.04.37-.03.37-.03.38-.03.37-.01.38-.01.37-.01.37-.02.38-.01.37-.03.37-.02.38-.03.37-.03.38-.02.37-.03.37-.02.38-.02.37-.02.38-.03.37-.01h.37l.38-.01.37-.03h.38l.37-.01.37-.01.38-.01.37-.03.37-.02.38-.02h.37l.38-.01.37-.02.37-.01.38-.01.37-.03.38-.02.37-.01.37-.02.38-.03.37-.02.38-.02.37-.01.37-.03.38-.02.37-.03.38-.02.37-.02.37-.03.38-.02.37-.01.37-.01.38-.02.37-.01.38-.02.37-.02.37-.02.38-.03.37-.02.38-.02.37-.01.37-.02.38-.02.37-.02.38-.02.37-.01.37-.03.38-.02.37-.03.37-.02.38-.02.37-.02.38-.02.37-.01.37-.02.38-.01.37-.02.38-.02.37-.01"/><use xlink:href="#g" color="#F44336" transform="matrix(3.75 0 0 3.75 56.04 162.65)"/><use xlink:href="#g" color="#F44336" transform="matrix(3.75 0 0 3.75 112.25 60.01)"/></g><text fill="#000" stroke="none" stroke-linecap="round" stroke-linejoin="round" color="#000" font-family="KaTeX_Main" font-size="8" transform="translate(241.1 47.61)"><tspan>WBSTBottomUp</tspan></text><g fill="none" stroke="currentColor" stroke-linecap="round" stroke-linejoin="round" color="#000"><path stroke="#000" d="M205.6 45.01h29.9M28 144.25l.37-.29.38-.47.37-.51.38-.48.37-.14.37-.4.38-.25.37-.36.38-.33.37-.27.37-.3.38-.33.37-.48.37-.33.38-.44.37-.1.38-.34.37-.24.37-.28.38-.23.37-.23.38-.31.37-.27.37-.33.38-.13.37-.34.38-.3.37-.26.37-.3.38-.34.37-.28.37-.11.38-.35.37-.22.38-.16.37-.09.37-.24.38-.17.37-.35.38-.23.37-.24.37-.21.38-.26.37-.26.38-.2.37-.19.37-.21.38-.12.37-.24.38-.2.37-.21.37-.24.38-.24.37-.17.37-.15.38-.17.37-.11.38-.21.37-.18.37-.25.38-.16.37-.1.38.02.37-.18.37-.22.38-.12.37-.18.38-.18.37-.15.37-.13.38-.15.37-.09.37-.2.38-.23.37-.16.38-.22.37-.12.37-.13.38-.15.37-.13.38-.19.37-.16.37-.26.38-.07.37.12.38-.15.37-.11.37-.17.38-.11.37-.19.38-.14.37-.15.37-.16.38-.16.37-.2.37-.14.38-.15.37-.1.38-.08.37-.09.37-.07.38-.18.37-.09.38-.16.37-.15.37-.07.38-.11.37-.08.38-.01.37-.11.37-.16.38-.2.37-.1.37-.07.38-.15.37-.15.38-.15.37-.12.37-.14.38-.15.37-.15.38-.19.37-.2.37-.1.38-.15.37-.2.38-.13.37-.12.37-.14.38-.12.37-.13.38-.11.37-.1.37-.14.38-.12.37-.16.37-.11.38-.03.37-.13.38-.08.37-.17.37-.06.38-.11.37-.08.38-.12.37-.16.37-.1.38-.1.37-.09.38-.12.37-.09.37-.05.38-.11.37-.13.37-.06.38-.13.37-.07.38-.1.37-.16.37-.1.38-.05.37-.09.38-.11.37-.12.37-.11.38-.06.37-.09.38-.07.37-.11.37-.09.38-.12.37-.13h.38l.37-.01.37-.09.38-.14.37-.07.37-.05.38-.03.37-.06.38-.12.37-.1.37-.03.38-.09.37-.06.38-.08.37-.1.37-.08.38-.07.37-.11.38-.03.37-.07.37-.07.38-.17.37-.07.37-.06.38.02.37-.05.38-.09.37-.09.37-.1.38-.12.37-.11.38-.06.37-.1.37-.07.38-.1.37-.05.38-.07.37-.08.37-.09.38-.09.37-.11.38-.09.37-.05.37-.07.38-.08.37-.11.37-.04.38-.1.37-.07.38-.1.37-.08.37-.09.38-.06.37-.07.38-.02.37-.06.37-.05.38-.08.37-.08.38-.07.37-.1.37-.08.38-.1.37-.08.37-.04.38-.09.37-.08.38-.08.37-.05.37-.13.38-.07.37-.1.38-.04.37-.07.37.04.38-.05.37-.07.38-.06.37-.05.37-.03.38-.08.37-.08.38-.08.37-.05.37-.08.38-.07.37.01.37-.07.38-.08.37-.1.38-.06.37-.07.37-.05.38-.07.37-.1.38-.06.37-.09.37-.08.38-.05.37-.03.38-.07.37-.07.37-.03.38-.07.37-.04.37-.06.38-.07.37-.07.38-.09.37-.09.37-.06.38-.06.37-.08.38-.09.37-.05.37-.07.38-.02.37-.06.38-.04.37-.03.37-.07.38-.09.37-.05.38-.06.37-.06.37-.05.38-.05.37-.07.37-.07.38-.02.37-.1.38-.09.37-.04.37-.08.38-.02.37-.04.38-.03.37-.08.37-.04.38-.07.37-.1.38-.06.37-.08.37-.06.38-.04.37-.03.37-.06.38-.03.37-.05.38-.04.37-.04.37-.05.38-.04.37-.04.38-.06.37-.08.37-.03.38-.04.37-.06.38-.07.37-.06.37-.05.38-.08.37.02.38-.05.37-.05.37-.04.38-.04.37-.05.37-.07.38-.05.37-.03.38-.07.37-.05.37-.08.38-.05.37-.04.38-.05.37-.08.37-.01.38-.08.37-.06.38-.04.37-.03.37-.08.38-.06.37-.05.37-.04.38-.06.37-.04.38-.06.37-.02h.37l.38-.06.37-.07.38-.06h.37l.37-.04.38-.04.37-.06.38-.04.37-.02.37-.06.38-.05.37-.05.38-.02.37-.03.37-.01.38-.03.37-.06.37-.06.38-.06.37-.06.38-.08.37-.04.37-.03.38-.07.37-.02.38-.07.37-.02.37-.06.38-.05.37-.05.38-.06.37-.05.37-.03.38-.01.37-.04.37-.06.38-.03.37-.03.38-.03.37-.03.37-.07.38-.03.37-.05.38-.04.37-.06.37-.03.38-.08.37-.05.38-.03.37-.05.37-.03.38-.04.37-.03h.38l.37-.05.37-.04.38-.06.37-.05.37-.04.38-.03.37-.03.38-.06.37-.05.37-.02.38-.04.37-.06.38-.05.37-.02.37-.03.38-.02.37-.02.38-.07.37-.07.37-.06.38-.01.37-.05.37-.03.38-.04.37-.04.38-.04.37-.07.37-.05.38-.01.37-.07.38-.04.37-.04.37-.06.38-.05.37-.06.38-.06.37-.05.37-.05.38-.04.37-.04.38-.03.37-.05.37-.04.38-.06.37-.05h.37l.38-.02.37-.05.38-.03.37-.03.37-.06.38-.03.37-.05.38-.07.37-.04.37-.03.38-.05.37-.05h.38l.37-.05.37-.05.38-.06.37-.05.37-.05.38-.05.37-.04.38-.03.37-.05.37-.04.38-.07.37-.01.38-.04.37-.04.37-.04.38-.01.37-.05.38-.05.37-.04.37-.05.38-.06.37-.03.37-.04.38-.05.37-.03.38-.05.37-.03.37-.03.38-.03.37-.02.38-.06.37-.03.37-.04.38-.04.37-.03.38-.04.37-.01.37-.01.38-.03.37-.04.38-.03.37-.05.37-.02.38-.07.37-.02.37-.02.38-.04.37-.04.38-.02.37-.04.37-.01h.38l.37-.03.38-.06.37-.02.37-.03.38-.03.37-.05.38-.03.37-.02.37-.06.38-.02.37.01.37-.03.38-.03.37-.03.38-.02.37-.02.37-.05.38-.02.37-.03.38-.04.37-.03.37-.02.38-.04.37-.03.38-.05.37-.04.37-.03.38-.03.37-.06.38-.03.37-.02.37-.02.38-.01.37-.04.37-.02.38-.03.37-.01.38-.03.37-.02.37-.03.38-.04.37-.06.38-.03.37-.05.37-.02.38-.03.37-.05.38-.04.37-.03.37-.03.38-.05.37-.03.37-.03.38-.02.37-.04.38-.06.37-.02.37-.04.38-.03.37-.04.38-.03.37-.02.37-.04.38-.04.37-.03.38-.03.37-.02.37-.03.38-.02.37-.03.38-.01.37-.04.37-.03.38-.02.37-.03.37-.03.38-.04.37-.02.38-.04.37-.01.37-.02.38-.01.37-.05.38-.04.37-.03h.37l.38-.02.37-.03.38-.04.37-.02.37-.04.38-.03.37-.03.37-.02.38-.02.37-.01.38-.02.37-.02.37-.02.38-.02.37-.04.38-.02h.37l.37-.02.38-.02.37-.01.38-.03.37-.03.37-.03.38-.03.37-.01.38-.03.37-.01.37-.03.38-.03.37-.03.37-.04h.38l.37-.02.38-.03.37-.05.37-.03.38-.01.37.01.38-.03.37-.03.37-.03.38-.04.37-.03.38-.01.37-.02.37-.04.38-.03.37-.02.37-.04.38-.03.37-.01.38-.03.37-.04.37-.02.38-.01.37-.03.38-.01.37-.03.37-.02.38-.01.37-.03.38-.01.37-.03.37-.03.38-.02.37-.02.38-.03.37-.04.37-.05.38-.02.37-.01.37-.03.38-.04.37-.02.38-.03.37-.02.37-.05.38-.04.37-.03.38-.02.37-.04.37-.03.38-.02.37-.03.38-.03.37-.03.37-.04.38-.01.37-.03.37-.02.38-.04.37-.01.38-.02.37-.02.37-.04.38-.02.37-.04.38-.05.37-.02.37-.03.38-.03.37-.01.38-.03.37-.02.37-.02.38-.02.37-.03.38-.01.37-.02.37-.03.38-.03.37-.01.37-.01.38-.04.37-.04.38-.02.37-.02.37-.02.38-.02.37-.03.38-.03.37-.03.37-.03.38-.01.37-.01.38-.01.37-.02.37-.02.38-.02.37-.02.37-.02.38-.02.37-.02.38.02.37-.05.37-.02.38-.02.37-.02.38-.01.37-.03.37-.05.38-.02h.37l.38-.02.37-.02.37-.02.38-.03.37-.04.38-.03.37-.03.37-.02.38-.03.37-.01.37-.01.38-.03.37-.02.38-.01.37-.04.37-.03.38-.02.37-.02.38-.04.37-.01.37-.02.38-.03.37-.02.38-.02.37-.01.37-.02.38-.01.37-.02.37-.02.38-.04.37-.02.38-.03.37-.04.37-.02.38-.02.37-.03.38-.01.37-.02.37-.02.38-.02.37-.01.38-.01.37-.04.37-.02.38-.01.37-.03.38-.02.37-.02.37-.02.38-.03.37-.03.37-.03.38-.04.37-.03.38-.02h.37l.37-.03.38-.02.37-.01.38-.02.37-.02.37-.03.38-.02.37-.03.38-.03.37-.02.37-.03.38-.01.37-.02.37-.02.38-.02.37-.02.38-.03.37-.02.37-.03.38-.01.37-.01.38-.02.37-.01.37-.02.38-.03.37-.03.38-.02.37-.03.37-.03.38-.02.37-.03.38-.01.37-.03.37-.02.38-.02.37-.02.37-.03.38-.03.37-.02.38-.03.37-.01.37-.02.38-.02.37-.02.38-.02.37-.01.37-.02.38-.02.37-.02.38-.02.37-.01.37-.03.38-.01.37-.03.37-.02.38-.02h.37l.38-.03.37-.03.37-.01.38-.01.37-.03.38-.01.37-.02.37-.02.38-.02.37-.02.38-.02.37-.03.37-.01.38-.02.37-.02.38-.04.37-.03.37-.03.38-.02.37-.03h.37l.38-.02.37-.02.38-.03.37-.02.37-.01.38-.03.37-.02.38-.04.37-.01.37-.01.38-.03.37-.02.38-.02.37-.01.37-.03.38-.02.37-.01.37-.01.38-.02.37-.02.38-.02.37-.03.37-.03.38-.02.37-.03.38-.01.37-.02"/><use xlink:href="#b" transform="matrix(3.75 0 0 3.75 113.62 110.42)"/><use xlink:href="#b" transform="matrix(3.75 0 0 3.75 220.55 45.01)"/></g><text fill="#000" stroke="none" stroke-linecap="round" stroke-linejoin="round" color="#000" font-family="KaTeX_Main" font-size="8" transform="translate(241.1 62.61)"><tspan>WBSTTopDown</tspan></text><g fill="none" stroke="currentColor" stroke-linecap="round" stroke-linejoin="round" color="#000"><path stroke="#29C3F6" stroke-dasharray="4.0,2.0,1.0,2.0" d="M205.6 60.01h29.9M28 144.13l.37-.37.38-.48.37-.46.38-.49.37-.09.37-.44.38-.29.37-.31.38-.34.37-.3.37-.28.38-.29.37-.48.37-.35.38-.42.37-.04.38-.36.37-.22.37-.33.38-.26.37-.17.38-.3.37-.27.37-.36.38-.12.37-.33.38-.33.37-.25.37-.31.38-.36.37-.2.37-.12.38-.34.37-.16.38-.17.37-.04.37-.25.38-.16.37-.33.38-.23.37-.18.37-.19.38-.27.37-.25.38-.2.37-.21.37-.23.38-.11.37-.26.38-.19.37-.2.37-.23.38-.24.37-.16.37-.18.38-.16.37-.12.38-.24.37-.19.37-.26.38-.15.37-.12.38.06.37-.17.37-.2.38-.16.37-.17.38-.23.37-.13.37-.12.38-.15.37-.07.37-.18.38-.24.37-.12.38-.21.37-.12.37-.16.38-.13.37-.16.38-.2.37-.17.37-.25.38-.07.37.09.38-.14.37-.08.37-.18.38-.1.37-.18.38-.15.37-.15.37-.16.38-.15.37-.21.37-.16.38-.14.37-.08.38-.1.37-.07.37-.06.38-.19.37-.11.38-.16.37-.15.37-.07.38-.09.37-.09h.38l.37-.1.37-.17.38-.2.37-.09.37-.05.38-.13.37-.15.38-.14.37-.12.37-.14.38-.17.37-.14.38-.18.37-.22.37-.12.38-.15.37-.2.38-.14.37-.11.37-.15.38-.1.37-.12.38-.11.37-.1.37-.16.38-.11.37-.15.37-.1.38-.05.37-.13.38-.09.37-.17.37-.06.38-.11.37-.07.38-.11.37-.16.37-.1.38-.09.37-.1.38-.13.37-.07.37-.05.38-.1.37-.14.37-.07.38-.12.37-.07.38-.12.37-.15.37-.09.38-.04.37-.09.38-.12.37-.11.37-.11.38-.05.37-.08.38-.08.37-.09.37-.08.38-.12.37-.11h.38l.37-.02.37-.09.38-.15.37-.06.37-.05.38-.05.37-.07.38-.1.37-.09.37-.05.38-.1.37-.06.38-.09.37-.1.37-.08.38-.05.37-.11.38-.03.37-.07.37-.06.38-.18.37-.09.37-.07.38.03.37-.06.38-.09.37-.08.37-.09.38-.12.37-.1.38-.06.37-.11.37-.06.38-.12.37-.04.38-.07.37-.07.37-.09.38-.1.37-.12.38-.09.37-.04.37-.07.38-.07.37-.11.37-.04.38-.11.37-.07.38-.1.37-.08.37-.1.38-.06.37-.05.38-.02.37-.07.37-.05.38-.07.37-.08.38-.07.37-.11.37-.09.38-.1.37-.08.37-.03.38-.09.37-.08.38-.08.37-.06.37-.14.38-.07.37-.1.38-.05.37-.05h.37l.38-.05.37-.07.38-.06.37-.05.37-.03.38-.07.37-.07.38-.08.37-.05.37-.07.38-.07h.37l.37-.08.38-.06.37-.11.38-.07.37-.07.37-.06.38-.06.37-.1.38-.07.37-.07.37-.08.38-.05.37-.04.38-.08.37-.09.37-.03.38-.06.37-.05.37-.06.38-.04.37-.07.38-.09.37-.09.37-.06.38-.07.37-.08.38-.07.37-.06.37-.08.38-.02.37-.06.38-.05.37-.03.37-.07.38-.09.37-.05.38-.05.37-.06.37-.06.38-.04.37-.07.37-.07.38-.01.37-.1.38-.09.37-.05.37-.08.38-.01.37-.06.38-.03.37-.09.37-.05.38-.07.37-.09.38-.06.37-.08.37-.06.38-.03.37-.04.37-.07.38-.04.37-.04.38-.03.37-.05.37-.05.38-.04.37-.03.38-.07.37-.08.37-.03.38-.04.37-.07.38-.08.37-.06.37-.05.38-.07.37.02.38-.05.37-.05.37-.03.38-.04.37-.06.37-.08.38-.05.37-.02.38-.06.37-.06.37-.09.38-.06.37-.05.38-.05.37-.08.37-.01.38-.08.37-.06.38-.04.37-.04.37-.07.38-.06.37-.05.37-.04.38-.06.37-.05.38-.06.37-.03.37.01.38-.05.37-.07.38-.06.37-.01.37-.04.38-.03.37-.06.38-.05.37-.02.37-.05.38-.05.37-.05.38-.03.37-.03.37-.02.38-.03.37-.07.37-.06.38-.05.37-.08.38-.08.37-.04.37-.02.38-.06.37-.03.38-.08.37-.02.37-.05.38-.05.37-.04.38-.06.37-.04.37-.03.38-.01.37-.04.37-.05.38-.03.37-.03.38-.04.37-.03.37-.07.38-.03.37-.05.38-.05.37-.06.37-.02.38-.07.37-.06.38-.04.37-.04.37-.02.38-.05.37-.03.38-.01.37-.04.37-.04.38-.05.37-.06.37-.04.38-.03.37-.04.38-.05.37-.07.37-.03.38-.03.37-.06.38-.04.37-.02.37-.03.38-.03.37-.01.38-.08.37-.06.37-.06.38.01.37-.05.37-.03.38-.05.37-.03.38-.05.37-.07.37-.05.38-.01.37-.07.38-.04.37-.05.37-.06.38-.04.37-.07.38-.05.37-.05.37-.05.38-.04.37-.04.38-.03.37-.05.37-.04.38-.06.37-.04h.37l.38-.02.37-.04.38-.04.37-.03.37-.05.38-.04.37-.05.38-.07.37-.05.37-.02.38-.06.37-.04.38.01.37-.05.37-.04.38-.05.37-.06.37-.05.38-.06.37-.05.38-.03.37-.05.37-.04.38-.06.37-.02.38-.04.37-.04.37-.03.38-.02.37-.05.38-.05.37-.05.37-.05.38-.05.37-.03.37-.05.38-.04.37-.03.38-.05.37-.02.37-.03.38-.04.37-.02.38-.06.37-.03.37-.04.38-.03.37-.03.38-.04.37-.01.37-.02.38-.03.37-.03.38-.04.37-.05.37-.03.38-.07.37-.02.37-.02.38-.05.37-.04.38-.02.37-.04.37-.01h.38l.37-.04.38-.04.37-.03.37-.02.38-.03.37-.05.38-.04.37-.02.37-.06.38-.02.37.01.37-.03.38-.03.37-.03.38-.02.37-.02.37-.05.38-.03.37-.03.38-.03.37-.03.37-.03.38-.03.37-.04.38-.05.37-.04.37-.03.38-.05.37-.05.38-.03.37-.03.37-.01.38-.01.37-.04.37-.03.38-.02.37-.02.38-.03.37-.01.37-.04.38-.04.37-.06.38-.03.37-.05.37-.03.38-.03.37-.04.38-.05.37-.03.37-.03.38-.04.37-.02.37-.04.38-.02.37-.04.38-.05.37-.03.37-.04.38-.04.37-.03.38-.03.37-.03.37-.03.38-.04.37-.04.38-.02.37-.03.37-.03.38-.02.37-.02.38-.01.37-.04.37-.03.38-.02.37-.03.37-.02.38-.04.37-.03.38-.03.37-.01.37-.02.38-.01.37-.05.38-.04.37-.03.37-.01.38-.02.37-.03.38-.04.37-.03.37-.03.38-.04.37-.03.37-.01.38-.02h.37l.38-.02.37-.03.37-.01.38-.02.37-.05.38-.02h.37l.37-.03.38-.01.37-.01.38-.03.37-.03.37-.03.38-.03.37-.01.38-.03.37-.02.37-.02.38-.02.37-.04.37-.04h.38l.37-.02.38-.04.37-.04.37-.03.38-.01.37.01.38-.05.37-.02.37-.02.38-.04.37-.03.38-.02.37-.01.37-.04.38-.03.37-.03.37-.03.38-.03.37-.01.38-.04.37-.03.37-.02.38-.01.37-.03.38-.02.37-.03.37-.02.38-.01.37-.03.38-.01.37-.02.37-.02.38-.02.37-.03.38-.03.37-.04.37-.05.38-.02.37-.02.37-.03.38-.03.37-.02.38-.03.37-.02.37-.05.38-.03.37-.04.38-.02.37-.04.37-.04.38-.02.37-.02.38-.03.37-.03.37-.04.38-.01.37-.03.37-.03.38-.04.37-.01.38-.02.37-.02.37-.04.38-.02.37-.05.38-.03.37-.03.37-.03.38-.02h.37l.38-.04.37-.01.37-.03.38-.02.37-.03.38-.01.37-.02.37-.03.38-.02.37-.01.37-.02.38-.04.37-.03.38-.02.37-.02.37-.02.38-.02.37-.04.38-.02.37-.04.37-.03.38-.02.37-.01h.38l.37-.02.37-.03.38-.01.37-.03.37-.01.38-.02.37-.02.38.01.37-.04.37-.02.38-.03.37-.01.38-.01.37-.03.37-.05.38-.02h.37l.38-.02.37-.02.37-.01.38-.04.37-.04.38-.02.37-.04.37-.01.38-.03.37-.01.37-.01.38-.03.37-.02.38-.01.37-.03.37-.03.38-.02.37-.02.38-.03.37-.01.37-.02.38-.02.37-.02.38-.02.37-.01.37-.02.38-.02.37-.02.37-.03.38-.03.37-.03.38-.02.37-.04.37-.02.38-.02.37-.03.38-.02.37-.01.37-.02.38-.02h.37l.38-.02.37-.04.37-.02.38-.02.37-.02.38-.02.37-.02.37-.02.38-.02.37-.03.37-.04.38-.03.37-.04.38-.01.37-.02.37-.03.38-.02.37-.01.38-.02.37-.03.37-.03.38-.02.37-.03.38-.03.37-.03.37-.02.38-.01.37-.02.37-.03.38-.02.37-.02.38-.02.37-.03.37-.02.38-.01.37-.02.38-.02h.37l.37-.02.38-.03.37-.03.38-.01.37-.04.37-.03.38-.02.37-.03.38-.02.37-.02.37-.02.38-.01.37-.03.37-.03.38-.03.37-.02.38-.03.37-.01.37-.02.38-.02.37-.02.38-.02.37-.01.37-.02.38-.01.37-.03.38-.03.37-.01.37-.03.38-.01.37-.02.37-.03.38-.02h.37l.38-.03.37-.02.37-.02.38-.01.37-.02.38-.01.37-.02.37-.02.38-.02.37-.02.38-.02.37-.02.37-.01.38-.03.37-.02.38-.03.37-.04.37-.02.38-.02.37-.03h.37l.38-.02.37-.02.38-.03.37-.03.37-.01.38-.03.37-.01.38-.04.37-.01.37-.02.38-.02.37-.03.38-.02.37-.01.37-.03.38-.02h.37l.37-.01.38-.02.37-.02.38-.02.37-.03.37-.03.38-.02.37-.03.38-.01.37-.02"/><use xlink:href="#h" color="#29C3F6" transform="matrix(3.75 0 0 3.75 171.2 101.74)"/><use xlink:href="#h" color="#29C3F6" transform="matrix(3.75 0 0 3.75 220.55 60.01)"/></g><path fill="none" stroke="none" stroke-linecap="round" stroke-linejoin="round" stroke-width="0" d="M28 75.01V205M371.99 75.01H28" color="#000"/><text fill="#000" stroke="none" stroke-linecap="round" stroke-linejoin="round" stroke-width="0" color="#000" font-family="KaTeX_Main" font-size="10" text-anchor="middle" transform="translate(199.99 18.26)"><tspan font-weight="bold">Insert</tspan><tspan> — </tspan><tspan font-style="italic">Uniform</tspan></text></svg>