<svg xmlns="http://www.w3.org/2000/svg" xmlns:xlink="http://www.w3.org/1999/xlink" viewBox="0 0 400 250"><path fill="none" d="M0 0h400v250H0z"/><defs><path id="g" stroke="currentColor" stroke-width=".267" d="M-1 0h2M0-1v2"/><path id="h" stroke="currentColor" stroke-width=".267" d="m-1-1 2 2m0-2-2 2"/><path id="i" stroke="currentColor" stroke-width=".267" d="M-1 0h2M0-1v2m-1-2 2 2m-2 0 2-2"/><path id="d" stroke="currentColor" stroke-width=".267" d="M-1-1h2v2h-2z"/><path id="b" stroke="currentColor" stroke-width=".267" d="m0-1.33-1.33 2h2.66z"/><path id="f" stroke="currentColor" stroke-width=".267" d="M0 1.33 1.265.411.782-1.067l-1.564-.009-.483 1.487z"/><use xlink:href="#b" id="c" stroke="currentColor" transform="rotate(180)"/><use xlink:href="#d" id="e" stroke="currentColor" transform="rotate(45)"/><circle id="a" cx="0" cy="0" r="1" stroke="currentColor" stroke-width=".267"/></defs><path fill="none" stroke="#333" stroke-dasharray="0.2,0.4" stroke-linecap="round" stroke-linejoin="round" stroke-width=".2" d="M35.48 205V75.01" class="gridline" color="#000"/><g fill="none" stroke="none" stroke-linecap="round" stroke-linejoin="round" stroke-width="0" color="#000"><path d="M35.48 205v-7.5m0-122.49v7.5"/><text fill="#000" font-family="KaTeX_Main" font-size="10" text-anchor="middle" transform="translate(35.48 215.75)"><tspan> 1</tspan></text></g><path fill="none" stroke="#333" stroke-dasharray="0.2,0.4" stroke-linecap="round" stroke-linejoin="round" stroke-width=".2" d="M72.87 205V75.01" class="gridline" color="#000"/><g fill="none" stroke="none" stroke-linecap="round" stroke-linejoin="round" stroke-width="0" color="#000"><path d="M72.87 205v-7.5m0-122.49v7.5"/><text fill="#000" font-family="KaTeX_Main" font-size="10" text-anchor="middle" transform="translate(72.87 215.75)"><tspan> 2</tspan></text></g><path fill="none" stroke="#333" stroke-dasharray="0.2,0.4" stroke-linecap="round" stroke-linejoin="round" stroke-width=".2" d="M110.26 205V75.01" class="gridline" color="#000"/><g fill="none" stroke="none" stroke-linecap="round" stroke-linejoin="round" stroke-width="0" color="#000"><path d="M110.26 205v-7.5m0-122.49v7.5"/><text fill="#000" font-family="KaTeX_Main" font-size="10" text-anchor="middle" transform="translate(110.26 215.75)"><tspan> 3</tspan></text></g><path fill="none" stroke="#333" stroke-dasharray="0.2,0.4" stroke-linecap="round" stroke-linejoin="round" stroke-width=".2" d="M147.65 205V75.01" class="gridline" color="#000"/><g fill="none" stroke="none" stroke-linecap="round" stroke-linejoin="round" stroke-width="0" color="#000"><path d="M147.65 205v-7.5m0-122.49v7.5"/><text fill="#000" font-family="KaTeX_Main" font-size="10" text-anchor="middle" transform="translate(147.65 215.75)"><tspan> 4</tspan></text></g><path fill="none" stroke="#333" stroke-dasharray="0.2,0.4" stroke-linecap="round" stroke-linejoin="round" stroke-width=".2" d="M185.04 205V75.01" class="gridline" color="#000"/><g fill="none" stroke="none" stroke-linecap="round" stroke-linejoin="round" stroke-width="0" color="#000"><path d="M185.04 205v-7.5m0-122.49v7.5"/><text fill="#000" font-family="KaTeX_Main" font-size="10" text-anchor="middle" transform="translate(185.04 215.75)"><tspan> 5</tspan></text></g><path fill="none" stroke="#333" stroke-dasharray="0.2,0.4" stroke-linecap="round" stroke-linejoin="round" stroke-width=".2" d="M222.43 205V75.01" class="gridline" color="#000"/><g fill="none" stroke="none" stroke-linecap="round" stroke-linejoin="round" stroke-width="0" color="#000"><path d="M222.43 205v-7.5m0-122.49v7.5"/><text fill="#000" font-family="KaTeX_Main" font-size="10" text-anchor="middle" transform="translate(222.43 215.75)"><tspan> 6</tspan></text></g><path fill="none" stroke="#333" stroke-dasharray="0.2,0.4" stroke-linecap="round" stroke-linejoin="round" stroke-width=".2" d="M259.82 205V75.01" class="gridline" color="#000"/><g fill="none" stroke="none" stroke-linecap="round" stroke-linejoin="round" stroke-width="0" color="#000"><path d="M259.82 205v-7.5m0-122.49v7.5"/><text fill="#000" font-family="KaTeX_Main" font-size="10" text-anchor="middle" transform="translate(259.82 215.75)"><tspan> 7</tspan></text></g><path fill="none" stroke="#333" stroke-dasharray="0.2,0.4" stroke-linecap="round" stroke-linejoin="round" stroke-width=".2" d="M297.21 205V75.01" class="gridline" color="#000"/><g fill="none" stroke="none" stroke-linecap="round" stroke-linejoin="round" stroke-width="0" color="#000"><path d="M297.21 205v-7.5m0-122.49v7.5"/><text fill="#000" font-family="KaTeX_Main" font-size="10" text-anchor="middle" transform="translate(297.21 215.75)"><tspan> 8</tspan></text></g><path fill="none" stroke="#333" stroke-dasharray="0.2,0.4" stroke-linecap="round" stroke-linejoin="round" stroke-width=".2" d="M334.6 205V75.01" class="gridline" color="#000"/><g fill="none" stroke="none" stroke-linecap="round" stroke-linejoin="round" stroke-width="0" color="#000"><path d="M334.6 205v-7.5m0-122.49v7.5"/><text fill="#000" font-family="KaTeX_Main" font-size="10" text-anchor="middle" transform="translate(334.6 215.75)"><tspan> 9</tspan></text></g><path fill="none" stroke="#333" stroke-dasharray="0.2,0.4" stroke-linecap="round" stroke-linejoin="round" stroke-width=".2" d="M371.99 205V75.01" class="gridline" color="#000"/><g fill="none" stroke="none" stroke-linecap="round" stroke-linejoin="round" stroke-width="0" color="#000"><path d="M371.99 205v-7.5m0-122.49v7.5"/><text fill="#000" font-family="KaTeX_Main" font-size="10" text-anchor="middle" transform="translate(371.99 215.75)"><tspan> 10</tspan></text></g><g fill="none" stroke="none" stroke-linecap="round" stroke-linejoin="round" stroke-width="0" color="#000"><path d="M371.99 205h-7.5"/><text fill="#000" font-family="KaTeX_Main" font-size="10" transform="translate(378.99 208.25)"><tspan>0.89</tspan></text></g><g fill="none" stroke="none" stroke-linecap="round" stroke-linejoin="round" stroke-width="0" color="#000"><path d="M371.99 186.43h-7.5"/><text fill="#000" font-family="KaTeX_Main" font-size="10" transform="translate(378.99 189.68)"><tspan>0.89</tspan></text></g><g fill="none" stroke="none" stroke-linecap="round" stroke-linejoin="round" stroke-width="0" color="#000"><path d="M371.99 167.86h-7.5"/><text fill="#000" font-family="KaTeX_Main" font-size="10" transform="translate(378.99 171.11)"><tspan>0.90</tspan></text></g><g fill="none" stroke="none" stroke-linecap="round" stroke-linejoin="round" stroke-width="0" color="#000"><path d="M371.99 149.29h-7.5"/><text fill="#000" font-family="KaTeX_Main" font-size="10" transform="translate(378.99 152.54)"><tspan>0.90</tspan></text></g><g fill="none" stroke="none" stroke-linecap="round" stroke-linejoin="round" stroke-width="0" color="#000"><path d="M371.99 130.72h-7.5"/><text fill="#000" font-family="KaTeX_Main" font-size="10" transform="translate(378.99 133.97)"><tspan>0.91</tspan></text></g><g fill="none" stroke="none" stroke-linecap="round" stroke-linejoin="round" stroke-width="0" color="#000"><path d="M371.99 112.15h-7.5"/><text fill="#000" font-family="KaTeX_Main" font-size="10" transform="translate(378.99 115.4)"><tspan>0.91</tspan></text></g><g fill="none" stroke="none" stroke-linecap="round" stroke-linejoin="round" stroke-width="0" color="#000"><path d="M371.99 93.58h-7.5"/><text fill="#000" font-family="KaTeX_Main" font-size="10" transform="translate(378.99 96.83)"><tspan>0.92</tspan></text></g><g fill="none" stroke="none" stroke-linecap="round" stroke-linejoin="round" stroke-width="0" color="#000"><path d="M371.99 75.01h-7.5"/><text fill="#000" font-family="KaTeX_Main" font-size="10" transform="translate(378.99 78.26)"><tspan>0.92</tspan></text></g><path fill="none" stroke="none" stroke-linecap="round" stroke-linejoin="round" stroke-width="0" d="M28 75.01V205M371.99 75.01H28" color="#000"/><text fill="#000" stroke="none" stroke-linecap="round" stroke-linejoin="round" stroke-width="0" color="#000" font-family="KaTeX_Main" font-size="10" text-anchor="middle" transform="rotate(-90 75.755 64.255)"><tspan font-weight="bold">AveragePathLength </tspan><tspan> / log</tspan><tspan dy="3" font-size="8">2</tspan><tspan dy="-3">(Size)</tspan></text><text fill="#000" stroke="none" stroke-linecap="round" stroke-linejoin="round" stroke-width="0" color="#000" font-family="KaTeX_Main" font-size="10" text-anchor="middle" transform="translate(199.99 238.25)"><tspan>Operations × 10</tspan><tspan dy="-5" font-size="8">5</tspan></text><text fill="#000" stroke="none" stroke-linecap="round" stroke-linejoin="round" color="#000" font-family="KaTeX_Main" font-size="8" transform="translate(116 47.61)"><tspan>AVLBottomUp</tspan></text><g fill="none" stroke="currentColor" stroke-linecap="round" stroke-linejoin="round" color="#000"><path stroke="#000" d="M80.5 45.01h29.9M28 161.62l.37-.39.38-.24.37-.55.38-5.62.37-.47.37-.38.38-.42.37-.49.38-.53.37-.42.37-.43.38-.4.37-.37.37-.26.38-.37.37-.25.38-.42.37-.28.37-.41.38-.25.37-.41.38-.42.37-.26.37-.48.38-.43.37-.27.38-.37.37-.32.37-.27.38-.25.37-.3.37-.42.38-.38.37-.36.38-.32.37-.43.37-.09.38-.17.37-.33.38-.3.37-.51.37-.45.38-.46.37-.29.38-.23.37-.2.37-.2.38-.44.37-.22.38-.22.37-.29.37-.19.38-.13.37.02.37 3.29.38-.33.37-.27.38 2.91.37-.2.37-.13.38-.32.37-.18.38-.3.37-.3.37-.25.38-.23.37-.27.38-.2.37-.22.37-.32.38-.29.37-.24.37-.24.38-.18.37-.23.38-.24.37-.24.37-.33.38-.13.37-.28.38-.27.37-.24.37-.36.38-.31.37-.22.38-.14.37-.16.37-.31.38-.22.37-.2.38-.25.37-.16.37-.16.38-.16.37-.23.37-.22.38-.22.37-.18.38-.21.37-.24.37-.19.38-.25.37-.23.38-.18.37-.24.37-.21.38-.27.37-.17.38-.21.37-.22.37-.4.38.08.37-.15.37-.15.38-.1.37-.48.38-.29.37-.18.37-.23.38-.23.37-.11.38-.23.37-.13.37-.13.38-.18.37.23.38-.23.37-.11.37-.14.38-.16.37-.2.38-.18.37-.24.37-.15.38-.18.37-.1.37-.15.38-.09.37-.15.38-.18.37-.16.37-.2.38-.14.37-.13.38-.17.37-.14.37-.14.38-.13.37-.16.38-.06.37-.14.37-.22.38-.11.37-.24.37-.16.38-.13.37-.13.38-.13.37-.11.37-.18.38-.12.37-.17.38-.08.37-.17.37-.08.38-.08.37-.05.38-.18.37-.17.37-.11.38-.14.37-.05.38-.13.37-.09.37-.15.38-.14.37-.12.37-.13.38-.1.37-.13.38-.12.37-6.24.37-.16.38-.1.37-.09.38-.21.37-.01.37-.15.38-.14.37-.13.38-.14.37-.09.37-.07.38-.18.37-.1.37-.1.38-.1.37-.1.38-.14.37-.07.37-.11.38-.01.37-.11.38-.13.37-.11.37-.11.38-.12.37-.11.38-.18.37-.1.37-.06.38-.08.37-.12.38-.06.37-.13.37-.19.38-.01.37-.12.37-.15.38-.07.37-.14.38-.08.37-.15.37-.13.38-.11.37-.11.38-.14.37-.11.37-.11.38-.09.37-.09.38-.1.37-.07.37-.13.38-.07.37-.08.37-.13.38-.11.37-.1.38-.64.37-.04.37-.13.38-.12.37-.11.38-.1.37-.1.37-.09.38-.09.37-.13.38-.13.37-.15.37-.02.38-.1.37.07.38-.08.37-.08.37-.1.38-.1.37-.09.37-.08.38-.09.37-.07.38-.11.37-.41.37-.13.38-.08.37-.08.38-.09.37-.07.37-.07.38-.1.37-.11.38-.1.37-.08.37-.08.38-.1.37-.07.37-.09.38-.09.37-.04.38-.12.37-.11.37-.03.38-.12.37.05.38-.09.37-.11.37-.1.38-.09.37-.11.38-.06.37-.1.37-.07.38-.14.37-.3.38-.1.37-.04.37-.07.38-.08.37-.06.37.1.38 1.37.37-.06.38-.08.37-.05.37-.05.38-.05.37-.09.38-.07.37-.08.37-.04.38-.1.37-.09.38-.08.37-.09.37-.12.38-.09.37-.05.37-.09.38-.08.37.99.38-.07.37-.1.37-.11.38-.08.37-.04.38-.08.37-.1.37-.1.38-.04.37-.07.38-.08.37-.07.37-.01.38-.09h.37l.38-.07.37-.09.37-.08.38-.02.37-.08.37.01.38-.04.37-.09.38-.06.37-.09.37-.07.38-.09.37-.09.38-.05.37-.06.37-.04.38-.07.37-.05.38-.08.37-.07.37-.09.38-.1.37-.03.37-.06.38-.1.37-.08.38-.07.37-.1.37-.14.38-.07.37-.02.38-.09.37-.05.37-.1.38-.06.37-.09.38-.09.37-.09.37-.08.38-.06.37-.09.38-.06.37-.05.37-.09.38-.04.37-.06.37-.08.38-.07.37-.07.38-.09.37-.09.37-.04.38-.08.37-.06.38-.07.37-.02.37-.09.38-.14.37-.07.38-.06.37-.06.37-.08.38-.06.37-.07.37-.06.38-.09.37-.12.38-.07.37-.06.37-.07.38-.07.37-.04.38-.05.37-.04.37-.06.38-.05.37-.09.38-.06.37-.04.37-.05.38-.07.37-.05.38-.05.37-.07.37.03.38-.07.37-.06.37-.04.38-.02.37-.06.38-.09.37-.03.37-.08.38-.05.37-.04.38-.06.37-.08.37-.06.38.55.37-.04.38-.06.37-.05.37-.09.38-.07.37-.05.37-.03.38-.04.37-.09.38-.06.37-.04.37-.06.38-.03.37-.06.38-.03.37-.04.37-.07.38-.08.37-.07.38-.02.37-.06.37-.05.38-.06h.37l.38-.04.37-.05.37-.08.38-.04.37-.04.37-.05.38-.07.37-.1.38-.03.37-.06.37-.06.38-.08.37-.05.38-.07.37-.04.37-.06.38-.07.37-.04.38-.04.37-.1.37-.04.38-.05.37-.08.37-.05.38-.05.37-.05.38.19.37-.06.37-.05.38-.06.37-.04.38-.09.37-.05.37-.05.38-.04.37-.05.38-.07.37-.06.37-.04.38-.09.37-.08.37-.02.38-.04.37-.07.38-.05.37-.04.37-.04.38-.07.37-.03.38-.05.37-.16.37-.04.38-.05.37-.06.38-.02.37-.03.37-.04.38-.03.37-.05.38-.04.37-.06.37-.05.38-.08.37-.02.37-.07h.38l.37-.05.38-.07.37-.03.37-.05.38-.06.37-.04.38-.05.37-.04.37-.05.38-.07.37-.04.38-.04.37-.04.37-.06.38-.17.37-.04.37-.05.38-.06.37-.04.38-.03.37-.04.37-.05.38-.03.37-.05.38-.04.37-.04.37-.06.38-.07.37-.01.38-.07.37-.05.37-.04.38-.02.37-.04.38-.04.37-.06.37-.05.38-.06.37-.03.37-.04.38-.03.37-.04.38-.03.37-.09.37-.02.38-.05.37-.04.38-.04.37-.05.37-.07.38-.03.37-.06.38-.01.37-.04.37-.07.38-.06.37-.04.37-.05.38-.04.37-.03.38.03.37-.05.37-.01.38-.05.37-.02.38-.06.37-.02.37-.04.38-.04.37-.06.38-.04.37-.03.37-.05.38-.05.37-.05.38-.05.37-.05.37-.03.38-.01.37-.06.37-.03.38-.02.37-.03.38-.02.37-.03.37-.05.38-.01.37-.07.38-.05.37-.03.37-.04.38-.03.37-.05.38-.05.37-.03.37-.04.38-.04.37-.05.37-.1.38-.04.37-.03.38-.04.37-.04.37-.01.38-.04.37-.04.38-.06.37-.04.37-.03.38-.05.37-.03.38-.02.37-.05.37-.03.38-.04.37-.03.38-.04.37-.04.37-.02.38-.01.37-.02.37-.05.38-.02.37-.03h.38l.37.22.37-.01.38-.04.37-.04.38-.02.37-.02.37-.04.38-.01.37-.05.38-.03.37-.03.37-.02.38-.04.37-.04.37-.07.38-.04h.37l.38-.05.37-.06.37-.02.38-.04.37-.04.38-.02.37-.03.37-.02.38-.04.37-.02.38-.03.37-.02.37-.03.38-.01.37-.04.38-.04.37-.12.37-.07.38-.05.37-.05.37-.04.38-.05.37-.01.38-.04.37-.04.37-.03.38-.05.37-.04.38-.04.37-.02.37-.05.38-.04.37-.05.38-.03.37-.04.37-.04.38-.02.37-.03.37-.04.38-.03.37-.03.38-.02.37-.03.37-.04.38-.06.37-.03.38-.03.37-.03.37-.03.38-.01.37-.03.38-.03.37-.03.37-.05.38-.04.37-.03.38-.03h.37l.37-.04.38-.04.37-.02.37-.06.38-.02.37-.04.38-.05.37-.04.37-.03.38-.03.37-.01.38-.02.37-.05.37-.02.38-.04.37-.03.38.04.37-.07.37-.03.38-.03.37-.04.37-.02.38-.04.37-.03.38-.02.37-.05.37-.02.38-.06.37-.02.38-.04.37-.12.37-.04.38-.03.37-.03.38-.03.37-.01.37-.04.38-.02.37-.04.38-.03.37-.03.37-.02.38-.03.37-.02.37-.03.38-.03.37-.03.38-.02.37-.03.37-.04.38-.03.37-.08.38-.03.37-.03.37-.03.38-.03.37-.03.38-.02.37-.05.37-.02.38-.03.37-.02.37-.04.38-.02.37-.03.38-.03.37-.03.37-.01.38-.04.37-.03h.38l.37-.03.37-.01.38-.03.37-.02.38-.03.37-.01.37-.04.38-.03.37-.05.38-.03.37-.01.37-.04.38-.05.37-.04.37-.04.38-.03.37-.03.38-.03.37-.04.37-.04.38-.04.37-.02.38-.02.37-.02.37-.04.38-.03.37-.01.38-.02.37-.01.37-.02.38-.02.37-.03.37-.03.38-.04.37-.03.38-.03.37-.04.37-.03.38-.04.37-.11.38-.04.37-.03.37-.02.38-.02.37-.02.38-.02.37-.04.37-.02.38-.03.37-.02.38-.01.37-.02.37-.04.38-.02.37-.03.37.09.38-.03.37-.04.38.01.37-.02.37-.04.38.02.37-.03.38-.03.37-.04.37-.01.38-.03.37-.14.38-.02.37-.03.37-.03h.38l.37-.04.37-.02.38-.04.37-.04.38-.04.37-.02.37-.04.38-.02h.37l.38-.04.37-.02.37-.02.38-.04.37-.02.38-.01.37-.02.37-.03.38-.04.37-.03.38-.03.37-.02.37-.04.38-.02.37-.13.37-.01.38.01.37-.12.38-.03.37-.03.37-.04.38-.02.37-.03.38-.03.37-.02.37-.04h.38l.37-.02.38-.03.37-.02.37-.02.38-.03.37-.03.37-.03.38-.02.37-.03.38-.04.37-.02.37-.02h.38l.37-.03.38-.02.37-.03"/><use xlink:href="#g" transform="matrix(3.75 0 0 3.75 342.45 81)"/><use xlink:href="#g" transform="matrix(3.75 0 0 3.75 95.45 45.01)"/></g><text fill="#000" stroke="none" stroke-linecap="round" stroke-linejoin="round" color="#000" font-family="KaTeX_Main" font-size="8" transform="translate(116 62.61)"><tspan>AVLTopDown</tspan></text><g fill="none" stroke="currentColor" stroke-linecap="round" stroke-linejoin="round" color="#000"><path stroke="#29C3F6" stroke-dasharray="1.0,2.0" d="M80.5 60.01h29.9M28 161.62l.37-.39.38-.24.37-.55.38-5.62.37-.47.37-.38.38-.42.37-.49.38-.53.37-.42.37-.43.38-.4.37-.37.37-.26.38-.37.37-.25.38-.42.37-.28.37-.41.38-.25.37.4.38.35.37.49.37.46.38.38.37.5.38.32.37.57.37.57.38.64.37.44.37 5.85.38.52.37.63.38.36.37.6.37.44.38.51.37.44.38.55.37.54.37.66.38.79.37.58.38.74.37.6.37.75.38.79.37.91.38.59.37.57.37.87.38.75.37.63.37.63.38.33.37.65.38.96.37.84.37.8.38.86.37.81.38 1.03.37.85.37.67.38.81.37.68.38.71.37.92.37.68.38-1.28.37-1.29.37-1.09.38-1.2.37-.92.38-.89.37-.72.37-.72.38-.75.37-.72.38-.86.37-.26.37-1.07.38-.72.37-.55.38-.69.37-.5.37-.77.38-.81.37-.72.38-.61.37-.44.37-.68.38-.6.37-.57.37-.54.38-.81.37-.51.38-.53.37-.56.37-.82.38-.46.37-.41.38-.16.37-.6.37-.55.38-.58.37-.45.38-.4.37-.42.37-.49.38-.45.37-.45.37-.31.38-.41.37-.35.38-.53.37-.63.37-.49.38-.36.37.53.38.36.37.5.37.61.38.58.37.58.38.28.37.59.37.47.38.48.37.49.38.63.37.48.37.43.38.81.37.54.37.53.38-1.34.37.56.38.46.37.33.37.5.38.48.37.67.38.66.37.61.37.6.38.82.37.66.38.55.37.73.37.93.38.85.37.46.37.59.38.66.37.55.38.79.37.88.37.84.38.7.37 3.86.38.85.37.9.37.91.38.53.37.84.38.48.37 1 .37.85.38-1.14.37-1.03.38-.98.37-1.15.37-.87.38-.93.37-1.14.37-1.14.38.12.37-.67.38-1.04.37-.75.37-.61.38-.95.37-.63.38-.64.37-.78.37-.53.38-.63.37-.8.38-.84.37-.39.37-.51.38-.63.37-.45.37-.55.38-.57.37-.88.38-.6.37-.38.37-.53.38-.45.37-.39.38-.39.37-.55.37-.52.38-.29.37-.59.38-.49.37-.39.37-.29.38-.54.37-.29.38-.6.37-.66.37-.36.38-.33.37-.09.37-.2.38-.5.37.44.38.36.37.59.37.36.38.49.37.32.38.58.37.58.37.59.38.5.37.58.38.85.37.71.37.59.38-.21.37.46.37.57.38.55.37.47.38.56.37.42.37.55.38.55.37.67.38.47.37.6.37.81.38.51.37.64.38.43.37.66.37.32.38.75.37.53.38.65.37.59.37.77.38.6.37.76.37.63.38.79.37.78.38.7.37 3.68.37.66.38.68.37.92.38 1.01.37 1.11.37.99.38-1.15.37-.98.38-.85.37-1 .37-1.09.38-.77.37-.59.37-.65.38-.71.37-.64.38-.68.37-.73.37-.88.38-.87.37-.6.38-.82.37-.79.37-.7.38-.55.37-.51.38-.6.37-.42.37-.71.38-.51.37-.34.38-.45.37-.52.37-.95.38-.47.37-.28.37-.51.38-.44.37-.62.38-.66.37-.57.37-.41.38-.33.37-.42.38-.51.37-.45.37-.41.38-.53.37-.51.38-.45.37-.58.37-.37.38-.39.37-.37.37-.36.38-.48.37.49.38.37.37.5.37.52.38.44.37.59.38.45.37.49.37.4.38.75.37.6.38.53.37.62.37.49.38.56.37.49.38.61.37.43.37.6.38.66.37.69.37.44.38.44.37.57.38.61.37.66.37.66.38.56.37.97.38.62.37-.26.37.45.38.65.37.37.38.65.37.68.37.84.38.81.37.84.37.66.38.96.37.82.38 1.55.37.88.37.8.38 1.1.37.83.38 1.34.37 1.04.37.92.38-1.25.37-1.05.38-.97.37-1.05.37-.97.38-.78.37-1.01.38-.89.37-.81.37-.66.38-.69.37-.54.37-.79.38-.85.37-.72.38-.84.37-.89.37-.67.38-.5.37-.81.38-.53.37-.41.37-.87.38-.69.37-.71.38-.44.37-.68.37-.52.38-.57.37-.68.37-.55.38-.5.37-.48.38-.37.37-.56.37-.54.38-.33.37-.48.38-.44.37-.53.37-.42.38-.6.37-.53.38-.47.37-.42.37-2.47.38-.41.37-.34.38-.45.37-.38.37.42.38.31.37.62.37.64.38.5.37.39.38.57.37.46.37.33.38.51.37.58.38.55.37.59.37.6.38.48.37.55.38.74.37.49.37.72.38.74.37.47.37.68.38.56.37.48.38.69.37.48.37.77.38.7.37.69.38.7.37.68.37.73.38.61.37.79.38.66.37.91.37.48.38.8.37 1.32.38.72.37.59.37.78.38.53.37.87.37.74.38.88.37 1.05.38.87.37 1.2.37.92.38-.99.37-1.07.38-.98.37-.82.37-.95.38-1.13.37-.92.38-1.39.37-1.18.37-.8.38-.8.37-.78.37-.72.38-.98.37-.77.38-.59.37-.77.37-.71.38-.77.37-.61.38-.57.37-.49.37-.67.38-.61.37-.51.38-.83.37-.56.37-.45.38-.61.37-.59.37-.43.38-.57.37-.22.38-.43.37-.46.37-.4.38-.31.37-.7.38-.56.37-.66.37-.34.38-.53.37-.38.38-.35.37-.29.37-.49.38-.43.37-.03.38-.35.37-.52.37.44.38.5.37.43.37.36.38.4.37.67.38.34.37.58.37.48.38.55.37.57.38.49.37.47.37.12.38.66.37.37.38.75.37.62.37.7.38.39.37.48.37.6.38.54.37.66.38.64.37.74.37.6.38.67.37.66.38.48.37.5.37.56.38.51.37.91.38.68.37.61.37.82.38.85.37.72.38.78.37.78.37.52.38.85.37.73.37.9.38.89.37.78.38 1.02.37.89.37 1.02.38-1.23.37-.99.38-1.02.37-.97.37-.96.38-.93.37-.93.38-.89.37-.8.37-.8.38-.88.37-.76.37-.85.38-.7.37-.47.38-.76.37-.38.37-.43.38-.52.37-.68.38-.72.37-.84.37-.73.38-.38.37-.47.38-.12.37-.87.37-.52.38-.57.37-1.01.38-.67.37-.76.37-.25.38-.39.37-.43.37-.45.38-.55.37-.42.38-.41.37-.26.37-.47.38-.3.37-.49.38-.34.37-.39.37-.47.38-.44.37-.42.38-.31.37-.27.37.49.38.43.37.37.37.4.38.56.37.44.38.66.37.45.37.49.38.38.37.44.38.53.37.57.37.62.38.58.37.73.38.7.37.65.37.52.38.21.37.76.38.4.37.49.37.66.38.44.37.46.37.72.38.48.37.8.38.6.37.55.37.68.38.79.37.65.38.67.37.6.37.64.38.75.37.71.38.71.37.31.37.69.38 1.08.37.69.37.87.38.97.37.64.38.77.37 1.1.37 1.48.38-1.32.37-1.15.38-1.33.37-.93.37-.78.38-1.02.37-.86.38-.8.37-.94.37-.46.38-.82.37-.77.38-.8.37-.6.37-.71.38-.58.37-.63.37-.55.38-.45.37-.7.38-.52.37-.63.37-.58.38-.96.37-.5.38-.52.37-1.11h.37l.38-.49.37-.63.38-.58.37-.53.37-.41.38-.54.37-.67.37-.51.38-.49.37-.84.38-.42.37-.5.37-.63.38-.38.37-.46.38-.38.37-.53.37-.45.38-.31.37-.45.38-.48.37-.31.37.49.38.5.37.56.38.32.37.45.37.39.38.42.37.43.37.69.38.48.37.49.38.61.37.63.37.47.38.41.37 1.02.38.67.37.49.37.48.38.68.37.62.38.65.37.48.37.93.38.48.37.67.37.95.38.46.37.74.38.7.37.68.37.83.38.56.37.65.38.76.37.52.37.6.38.76.37.75.38.57.37.02.37.89.38.7.37.85.38.97.37.83.37.95.38.89.37 1 .37.91.38-1.06.37-1.35.38-.77.37-.96.37-.83.38-.83.37-1 .38-.8.37-.79.37-1.16.38-.94.37-.83.38-.85.37-.76.37-.83.38-.83.37-.79.37-.61.38-.79.37-.62.38-.56.37-.85.37-1.28.38-.91.37-.67.38-.78.37-.58.37-.33.38-.39.37-.52.38-.48.37-.4.37.07.38-.55.37-.56.38-.45.37-.39.37-.49.38-.52.37-.62.37-.36.38-.33.37-.52.38-.56.37-.35.37-.4.38-.54.37-.54.38-.39.37-.53.37.48.38.33.37.36.38.43.37.5.37.48.38.6.37.48.37.48.38.47.37.51.38.52.37.64.37.75.38.43.37.58.38.87.37.43.37.7.38.47.37.4.38 1.16.37.47.37.69.38.58.37.53.38.66.37.47.37.7.38.68.37.76.37.49.38.89.37.56.38.64.37.61.37.53.38.73.37.59.38.77.37.78.37.88.38.45.37.62.38-.23.37.86.37 1.01.38.72.37.73.37 1.12.38-1.17.37-1.03.38-.75.37-1.05.37-.93.38-.77.37-.88.38-1 .37-.91.37-.71.38 1.37.37-.92.38-.48.37-.42.37-.55.38-.9.37-1.05.38-.64.37-.62.37-.66.38-.64.37-.64.37-.72.38-.52.37-.82.38-.07.37-.55.37-.5.38-.43.37-.51.38-.3.37-.63.37-.56.38-.55.37-.43.38-.44.37-.51.37-.44.38-.42.37-.5.37-.47.38-.16.37-.43.38-.53.37-.39.37-.39.38-.39.37-.45.38-.43.37-.31"/><use xlink:href="#h" color="#29C3F6" transform="matrix(3.75 0 0 3.75 56.04 179.91)"/><use xlink:href="#h" color="#29C3F6" transform="matrix(3.75 0 0 3.75 95.45 60.01)"/></g><text fill="#000" stroke="none" stroke-linecap="round" stroke-linejoin="round" color="#000" font-family="KaTeX_Main" font-size="8" transform="translate(241.1 47.61)"><tspan>AVLWeakBottomUp</tspan></text><g fill="none" stroke="currentColor" stroke-linecap="round" stroke-linejoin="round" color="#000"><path stroke="#3B75EA" d="M205.6 45.01h29.9M28 161.62l.37-.39.38-.24.37-.55.38-5.62.37-.47.37-.38.38-.42.37-.49.38-.53.37-.42.37-.43.38-.4.37-.37.37-.26.38-.37.37-.25.38-.42.37-.28.37-.41.38-.25.37.25.38.22.37.28.37.31.38.27.37.34.38.27.37.44.37.44.38.41.37.28.37.3.38.41.37.28.38.39.37.41.37.42.38.37.37.41.38.37.37.42.37.56.38.64.37.32.38.5.37.5.37.64.38.6.37.62.38.5.37.59.37.72.38.46.37.77.37.75.38.67.37.81.38.54.37.5.37.71.38.73.37.96.38 1.01.37.84.37.59.38.72.37.91.38 1.05.37.73.37.87.38-1.6.37-1.7.37-1.36.38-1.31.37-1.2.38-1.06.37-1.17.37-1.2.38-.93.37-.99.38-1.05.37-.72.37-1.06.38-.79.37-.67.38-.63.37-.62.37-.72.38-.7.37-.65.38-.7.37-.68.37-.44.38-.37.37-.52.37-.44.38-.59.37-.55.38-.43.37-.52.37-.51.38-.34.37-.53.38-.17.37-.36.37-.59.38-.4.37-.48.38-.46.37-.41.37-.41.38-.18.37-.45.37-.18.38-.28.37-.31.38-.37.37-.07.37-.3.38-.45.37.43.38.34.37.39.37.24.38.36.37.45.38.33.37.45.37.39.38.31.37.4.38.36.37.33.37.51.38.41.37.66.37.43.38.51.37.53.38.51.37.51.37.44.38.46.37.68.38.53.37.63.37.55.38.56.37.75.38.63.37.55.37.67.38.72.37.55.37.83.38.88.37.74.38.73.37.68.37.64.38.95.37 1 .38 1.18.37 1.09.37.92.38.86.37 1.24.38 1.01.37 1.04.37 1.1.38-1.53.37-1.5.38-1.4.37-1.37.37-1.04.38-1.21.37-1.24.37-1.51.38-1 .37-.95.38-.97.37-.85.37-.86.38-.79.37-.85.38-.75.37-.77.37-.61.38-.48.37-.68.38-.68.37-.61.37-.44.38-.71.37-.37.37-.57.38-.62.37-.5.38-.58.37-.41.37-.4.38-.46.37-.55.38-.36.37-.49.37-.54.38-.39.37-.28.38-.22.37-.36.37-.31.38-.32.37-.15.38.11.37-.31.37-.4.38-.33.37-.16.37-.21.38-.45.37.37.38.23.37.41.37.32.38.31.37.34.38.26.37.42.37.34.38.48.37.42.38.46.37.52.37.55.38.52.37.38.37.46.38.45.37.41.38.57.37.54.37.5.38.64.37.65.38.62.37.6.37.66.38.69.37.53.38.67.37.82.37.66.38.7.37.75.38.65.37.91.37 1 .38.67.37.81.37.78.38.92.37.93.38.91.37.99.37.97.38.98.37.91.38.97.37 1.18.37.77.38-1.42.37-1.56.38-1.3.37-1.23.37-1.25.38-1.39.37-.97.37-1.08.38-.99.37-.95.38-1.16.37-.83.37-1 .38-.65.37-.67.38-.74.37-.64.37-.68.38-.6.37-.7.38-.8.37-.56.37-.96.38-.63.37-.49.38-.49.37-.62.37-.85.38-.32.37-.44.37-.37.38-.51.37-.32.38-.5.37-.36.37-.32.38-.32.37-.26.38-.25.37-.32.37-.34.38-.43.37-.1.38-.39.37-.41.37-.21.38-.08.37-.14.37-.06.38-.19.37.41.38.34.37.37.37.42.38.23.37.4.38.45.37.41.37.26.38.35.37.49.38.38.37.5.37.54.38.47.37.56.38.57.37.4.37.58.38.44.37.48.37.55.38.31.37.45.38.62.37.72.37.51.38.29.37.62.38.7.37.67.37.59.38.62.37.68.38.93.37.78.37.85.38.77.37.91.37 1.06.38.77.37.94.38.88.37.92.37.94.38 1.07.37 1.04.38.81.37 1.13.37 1.36.38-1.5.37-1.41.38-1.04.37-1.37.37-1.27.38-1.15.37-1 .38-1.1.37-1.03.37-.97.38-.75.37-.88.37-.88.38-.74.37-.71.38-.56.37-.7.37-.78.38-.75.37-.44.38-.53.37-.65.37-.69.38-.5.37-.65.38-.43.37-.31.37-.48.38-.42.37-.58.37-.31.38-.3.37-.41.38-.41.37-.51.37-.4.38-.32.37-.47.38-.34.37-.43.37-.33.38-.29.37-.29.38-.39.37-.31.37-.22.38-.37.37-.16.38-.1.37-.29.37.27.38.15.37.29.37.25.38.45.37.27.38.29.37.43.37.27.38.37.37.45.38.42.37.39.37.41.38.4.37.46.38.46.37.42.37.5.38.4.37.44.37.44.38.5.37.44.38.71.37.78.37.5.38.83.37.77.38.64.37.98.37.6.38.6.37.72.38.72.37.76.37.73.38.66.37.82.38.82.37.85.37.85.38.67.37.9.37.91.38.66.37 1.02.38 1.25.37 1.27.37 1.19.38-1.43.37-1.56.38-1.66.37-1.11.37-1.24.38-1.42.37-.91.38-1.32.37-1.24.37-.98.38-.88.37-1.14.37-1.08.38-.96.37-.85.38-.76.37-.7.37-.89.38-.69.37-.54.38-.73.37-.58.37-.51.38-.71.37-.39.38-.57.37-.19.37-.43.38-.31.37-.57.37-.19.38-.59.37-.28.38-.35.37-.22.37-.3.38-.19.37-.44.38-.06.37-.41.37-.47.38-.42.37-.31.38-.52.37-.26.37-.44.38-.24.37-.41.38-.33.37-.31.37.19.38.46.37.37.37.39.38.22.37.48.38.34.37.28.37.38.38.38.37.53.38.29.37.38.37.44.38.31.37.3.38.52.37.56.37.44.38.43.37.52.37.72.38.64.37.59.38.65.37.62.37.78.38.62.37.58.38.53.37.65.37.68.38.46.37.65.38.55.37 1.06.37.72.38.9.37.93.38.76.37.9.37.86.38.93.37 1.01.37.74.38 1.01.37 1.05.38.86.37 1.23.37.93.38-1.5.37-1.32.38-1.28.37-.96.37-1.16.38-1.22.37-1.16.38-1.18.37-1.15.37-1.23.38-1.1.37-.78.37-.89.38-.91.37-.8.38-.63.37-.79.37-.7.38-.57.37-.41.38-.45.37-.6.37-.61.38-.53.37-.54.38-.44.37-.55.37-.49.38-.5.37-.55.38-.51.37-.65.37-.24.38-.22.37-.34.37-.39.38-.36.37-.08.38-.18.37-.23.37-.16.38-.39.37-.18.38-.34.37-.09.37-.25.38 5.61.37-.47.38-.25.37-.45.37.4.38.3.37.23.37.42.38.35.37.33.38.44.37.25.37.4.38.58.37.33.38.41.37.39.37.3.38.51.37.47.38.57.37.52.37.48.38.31.37.46.38.51.37.72.37.61.38.43.37.7.37.46.38.68.37.73.38.72.37.6.37.8.38.85.37.54.38.73.37.83.37.77.38.91.37.92.38.8.37.74.37.93.38.93.37 1.14.37 1.05.38.99.37 1.18.38 1.12.37 1.1.37.97.38-1.49.37-1.52.38-1.52.37-1.27.37-1.16.38-1.17.37-1.05.38-1.13.37-1.12.37-.97.38-.75.37-.84.38-1.07.37-.88.37-.55.38-.7.37-.82.37-.7.38-.55.37-.51.38-.76.37-.43.37-.56.38-.63.37-.46.38-.49.37-.5.37-.51.38-.47.37-.61.38-.38.37-.47.37-.39.38-.49.37-.51.37-.39.38-.41.37-.52.38-.29.37-.4.37-.4.38-.03.37-.42.38-.29.37-.48.37-.37.38-.39.37-.15.38-.23.37-.21.37.33.38.38.37.4.38.32.37.26.37.46.38.35.37.33.37.47.38.39.37.3.38.34.37.59.37.34.38.51.37.5.38.35.37.57.37.42.38.51.37.62.38.56.37.66.37.82.38.4.37.65.37.64.38.64.37.95.38.68.37 1.02.37.61.38.67.37.82.38.75.37.87.37.71.38.97.37.83.38.57.37.93.37 1.08.38 1.01.37.68.38.86.37 1.11.37 1.33.38 1.19.37.85.37.86.38-1.44.37-1.35.38-1.15.37-1.39.37-1.36.38-1.07.37-1.22.38-.97.37-.87.37-.93.38-1.03.37-.95.38-.87.37-.76.37-.95.38-.73.37-.72.37-.67.38-.8.37-.58.38-.73.37-.66.37-.47.38-.55.37-.57.38-.5.37-.53.37-.62.38-.46.37-.42.38-.55.37-.52.37-.5.38-.37.37-.37.38-.5.37-.29.37-.07.38-.39.37-.42.37-.32.38-.33.37-.39.38-.38.37-.44.37-.22.38-.3.37-.25.38-.4.37-.04.37.43.38.22.37.4.38.33.37.38.37.28.38.35.37.3.37.41.38.28.37.31.38.68.37.27.37.37.38.64.37.59.38.66.37.48.37.6.38.53.37.47.38.53.37.57.37.5.38.63.37.85.38.81.37.5.37.56.38.88.37.74.37.6.38.98.37.78.38.64.37.82.37.49.38.83.37.62.38.87.37.83.37.9.38 1.05.37.89.38.5.37 1.01.37 1.17.38.99.37.81.37.92.38-1.34.37-1.5.38-1.15.37-1.24.37-.92.38-1.27.37-1.21.38-1.09.37-1.1.37-1.01.38-.88.37-.82.38-.85.37-.76.37-.8.38-.67.37-.65.38-.86.37-.68.37-.69.38-.48.37-.45.37-.62.38-.66.37-.65.38-.4.37-.45.37-.3.38-.44.37-.42.38-.41.37-.28.37-.42.38-.28.37-.5.38-.25.37-.36.37-.37.38-.39.37-.38.37-.34.38-.39.37-.36.38-.53.37-.19.37-.24.38-.15.37-.23.38-.35.37-.24"/><use xlink:href="#d" color="#3B75EA" transform="matrix(3.75 0 0 3.75 113.62 145.18)"/><use xlink:href="#d" color="#3B75EA" transform="matrix(3.75 0 0 3.75 220.55 45.01)"/></g><text fill="#000" stroke="none" stroke-linecap="round" stroke-linejoin="round" color="#000" font-family="KaTeX_Main" font-size="8" transform="translate(241.1 62.61)"><tspan>AVLWeakTopDown</tspan></text><g fill="none" stroke="currentColor" stroke-linecap="round" stroke-linejoin="round" color="#000"><path stroke="#00C853" stroke-dasharray="4.5,2.0,0.5,2.0,0.5,2.0" d="M205.6 60.01h29.9M28 160.99l.37.66.38-.58.37-.7.38-.42.37-.23.37-.54.38-.02.37-.59.38-.42.37-.34.37-.73.38-.35.37-.25.37-.32.38-.39.37-.41.38-.33.37-.35.37-.3.38-.47.37-.31.38 2.61.37 1.8.37 1.4.38.93.37-.13.38.79.37.81.37.69.38.77.37.46.37.6.38.45.37.64.38.67.37.61.37.45.38.54.37.69.38.48.37.57.37.64.38.71.37.5.38.46.37.63.37.53.38.59.37.85.38.76.37.67.37.78.38.85.37.69.37.73.38.71.37.63.38.8.37.77.37 1.58.38.82.37.38.38 1.21.37.72.37.84.38.9.37.81.38.9.37.96.37 1.07.38-3.39.37-1.6.37-3.09.38-.91.37-1.78.38-.73.37-.54.37-.67.38-.77.37-1.02.38-.51.37-.7.37-.75.38-1.11.37-.71.38-.9.37-.89.37-.66.38-.44.37-.55.38-.79.37-.68.37-.52.38-.59.37-.46.37-.52.38-.53.37-.67.38 1.31.37-.59.37-.5.38-.43.37-.37.38-.56.37-.17.37-.5.38-.07.37-.57.38-.46.37-.26.37-.67.38-.48.37-.38.37.18.38-.14.37-.28.38-.75.37-.88.37-.02.38-.59.37-7.89.38 4.34.37.7.37.07.38.7.37 1.59.38 1.46.37.52.37.59.38.76.37.99.38.52.37.7.37.52.38.53.37.44.37.56.38.61.37.95.38.51.37.49.37.51.38.55.37.85.38.39.37.33.37.85.38.88.37.55.38.57.37.84.37.62.38.73.37.46.37.78.38.72.37.88.38.85.37.7.37 1.34.38.92.37.77.38.61.37.68.37.92.38.72.37.85.38.79.37 1.25.37 1.11.38-4.4.37-.04.38-2.62.37-.41.37-.85.38-.77.37-1.28.37-1.25.38-.65.37-.59.38-1.38.37-.3.37-.05.38-.78.37-.5.38-1.36.37-.7.37-.21.38-.59.37-.73.38-.5.37-.52.37-.69.38-.75.37-.69.37-.62.38-.68.37-.7.38-.51.37-.42.37-.39.38-.6.37-.42.38-.41.37-.44.37-.45.38-.25.37-.25.38-.81.37-.05.37-.38.38-.34.37-.23.38-.42.37-.22.37-.4.38.49.37.15.37-.45.38-.39.37-3.58.38 1.32.37 1.69.37 1.02.38 1.2.37 1.08.38-.24.37.67.37.63.38.77.37.81.38-.25.37.54.37.71.38.68.37.45.37.61.38.6.37.48.38.59.37.67.37.41.38.45.37.62.38.56.37.7.37.54.38.76.37.69.38.82.37 1.32.37 1.21.38.66.37.66.38.51.37 1.46.37.7.38.64.37.61.37.53.38.07.37.86.38.94.37.81.37 1.04.38.72.37.91.38.38.37 1.35.37.79.38-6.92.37-.25.38-1.93.37-1.25.37-.11.38-1.11.37-.62.37-.83.38-.46.37-.28.38-.56.37-.84.37-.74.38-.19.37-.46.38.03.37-.73.37-.6.38-.77.37-.28.38-.64.37-.57.37-.55.38-.38.37-.62.38-.41.37-.5.37-.84.38-1.21.37-.14.37-.35.38-.51.37-.33.38-.97.37-.69.37-.31.38.05.37-.5.38-.29.37-.3.37-.28.38-.3.37-.35.38-.55.37-.5.37-1.03.38-.38.37.01.37-.23.38-.57.37-4.62.38 4.06.37 2.37.37 1.54.38 1.16.37 1.06.38.95.37 1.1.37.6.38.72.37.59.38.73.37.57.37.33.38.7.37.55.38.5.37.59.37.86.38.51.37.41.37.61.38.57.37.79.38.66.37.61.37.75.38.59.37.77.38.85.37.81.37.62.38.69.37.56.38.78.37.62.37.71.38.8.37.9.37.89.38.11.37 1.21.38.72.37.89.37.79.38 1.07.37.64.38.78.37.81.37.77.38-9.45.37-.41.38-1.03.37-1.59.37-1.12.38-.87.37-.34.38-.91.37-1.18.37-.83.38-.58.37-.91.37-.5.38-.74.37-.6.38-.66.37-.73.37-1.04.38-.66.37-.7.38-.61.37-.65.37-.52.38-.47.37-.13.38-.35.37-.49.37-.48.38-.44.37-.38.37-6.81.38-.6.37 4.52.38-.44.37-.19.37-.42.38-.67.37-.64.38-.45.37-.42.37-2.56.38-.53.37-.41.38-.34.37-.23.37-.13.38 2.44.37-.57.38.13.37-.28.37-3.14.38 2.61.37 1.78.37 2.6.38-.01.37.5.38.63.37.66.37.72.38.79.37.51.38.96.37.75.37.36.38.61.37.37.38.57.37.48.37.64.38.61.37.51.37.61.38.75.37.55.38.53.37.67.37.54.38 1.55.37.58.38.47.37.58.37.78.38.62.37.88.38 1.35.37.52.37.75.38 1.85.37 1.11.38.72.37.77.37.72.38.76.37.48.37.68.38.73.37 1.1.38.99.37.95.37.68.38-3.07.37-.59.38-12.33.37-1.06.37-.54.38-1.25.37-2.23.38-.87.37-.92.37-.82.38-.95.37-.89.37-.77.38 9.59.37-.64.38-.51.37-.76.37-.51.38-.61.37-.3.38-.55.37-.54.37-.46.38-.64.37-1.02.38-.62.37-.41.37-.51.38.19.37-.65.37-.69.38-.65.37-.57.38-.19.37-.53.37-.31.38-.53.37-.32.38 1.69.37-.46.37-.3.38-.14.37-.5.38-.52.37-.41.37-.52.38-.5.37-.38.38-2.06.37-.5.37-13.92.38 1.44.37 5.18.37 1.46.38.61.37 1.64.38.44.37 1.5.37 1.18.38.45.37.71.38 1.44.37.56.37.51.38.52.37.81.38.85.37.72.37.56.38.47.37.87.37.48.38.57.37.58.38 1.14.37.52.37.53.38.81.37.86.38-3.24.37.78.37.74.38.84.37.9.38 2.93.37.78.37.8.38.53.37.79.38.91.37-.16.37.89.38 1.1.37.54.37.79.38.82.37-.22.38.95.37 1.1.37.9.38-.4.37-1.5.38-1.88.37-.4.37-.07.38-.4.37-.61.38-2.13.37-.73.37-.78.38-.61.37-.47.37-.65.38-.7.37-.45.38-.78.37-.51.37.02.38-.6.37-.99.38-.71.37-.35.37-.73.38-.55.37-.63.38-.37.37-.26.37-.77.38-.4.37-.44.38-.78.37-1.06.37-.53.38-.31.37-.58.37-.55.38.09.37-.45.38-.47.37-.15.37-.33.38-.43.37-.38.38-.45.37-.32.37-.37.38-.41.37-.4.38-.34.37-.43.37-15.98.38 1.98.37 5.03.37 1.09.38 2.66.37 1.11.38 1.6.37.46.37.49.38.64.37.51.38.77.37.74.37.45.38.88.37.8.38.28.37.51.37 1.49.38.67.37.68.38.51.37.65.37 1.14.38.75.37.69.37.82.38.6.37.59.38.27.37.8.37.89.38.68.37.62.38.93.37.69.37.84.38.62.37.85.38.49.37.85.37.91.38.5.37.78.37 1.02.38.9.37.94.38 1.03.37 1.03.37.87.38-6.24.37-1.68.38 1.76.37-.34.37-.02.38-.92.37-.89.38-.23.37-1.01.37-1.57.38-1.77.37-.64.38-.79.37-3.26.37-.48.38-.52.37-.62.37-.8.38-.76.37-.52.38 1.46.37-.56.37-.89.38-.75.37-.54.38-.47.37-.57.37-.75.38-.35.37-.63.38-.56.37-.77.37-.62.38-.46.37-.49.37-.33.38-.14.37-.35.38-.21.37-.39.37-.67.38-.4.37-.53.38-.52.37-.22.37-.38.38-.22.37-.51.38-.44.37-.91.37-2.02.38 4.59.37 1.06.38 1.07.37.24.37 1.14.38 1.13.37.69.37.44.38.43.37 1.28.38 1.44.37.5.37.45.38.68.37.66.38.68.37.57.37.49.38.66.37.52.38 1.42.37.54.37.58.38.51.37 1.08.37.55.38.38.37.69.38.69.37.87.37.56.38.75.37.44.38.68.37.72.37 1.04.38.65.37.67.38.65.37.77.37.71.38.78.37.65.38.79.37.83.37.62.38-.71.37.95.37 2.48.38-6.28.37-2.32.38 1.27.37-.53.37-.76.38-.64.37-1.07.38-.94.37-.86.37-.9.38-1.9.37-.13.38-.67.37-.61.37-.61.38-.75.37-.36.37-.79.38-.24.37-.7.38-.57.37-.55.37-.78.38-.53.37-.58.38-.22.37-.66.37-.54.38.11.37-.54.38-.29.37-.48.37-.63.38-.03.37-.72.38-.37.37-.67.37-.2.38-.37.37-.43.37-.3.38-.38.37-.55.38-.43.37-.43.37-.26.38-1.47.37-.35.38-.55.37-.19.37-8.89.38 3.02.37 3.02.38 1.29.37.86.37 1 .38.87.37.54.37.62.38-.04.37.69.38.15.37.59.37.37.38.69.37.77.38.48.37.4.37.77.38-.82.37.88.38.49.37.46.37 1.29.38.51.37.64.38.73.37.44.37.54.38.75.37.76.37.44.38.62.37.54.38.84.37.83.37.64.38.75.37.8.38 1.37.37.88.37.81.38.85.37 1.03.38.79.37.84.37.95.38.8.37.83.37.65.38 1.48.37-.81.38.44.37-.83.37-1.39.38-.65.37-1.15.38-1.82.37-1.05.37-.68.38-1.17.37-.49.38-.81.37-.5.37-.51.38-1.12.37-.35.38-.02.37-1.07.37-.3.38-.29.37-.44.37-.48.38-.89.37-.6.38-.59.37-.27.37-.41.38-.52.37-.5.38-.59.37-.33.37-.64.38-.3.37-.47.38-.39.37-.59.37-.43.38-.22.37-.42.37-.54.38-.27.37-.44.38.69.37-.34.37-.4.38-.4.37-.49.38-.28.37-.41"/><use xlink:href="#i" color="#00C853" transform="matrix(3.75 0 0 3.75 171.2 174.1)"/><use xlink:href="#i" color="#00C853" transform="matrix(3.75 0 0 3.75 220.55 60.01)"/></g><path fill="none" stroke="none" stroke-linecap="round" stroke-linejoin="round" stroke-width="0" d="M28 75.01V205M371.99 75.01H28" color="#000"/><text fill="#000" stroke="none" stroke-linecap="round" stroke-linejoin="round" stroke-width="0" color="#000" font-family="KaTeX_Main" font-size="10" text-anchor="middle" transform="translate(199.99 18.26)"><tspan font-weight="bold">InsertDeleteCycles</tspan><tspan> — </tspan><tspan font-style="italic">Uniform</tspan></text></svg>