<svg xmlns="http://www.w3.org/2000/svg" xmlns:xlink="http://www.w3.org/1999/xlink" viewBox="0 0 400 250"><path fill="none" d="M0 0h400v250H0z"/><defs><path id="g" stroke="currentColor" stroke-width=".267" d="M-1 0h2M0-1v2"/><path id="h" stroke="currentColor" stroke-width=".267" d="m-1-1 2 2m0-2-2 2"/><path id="i" stroke="currentColor" stroke-width=".267" d="M-1 0h2M0-1v2m-1-2 2 2m-2 0 2-2"/><path id="d" stroke="currentColor" stroke-width=".267" d="M-1-1h2v2h-2z"/><path id="b" stroke="currentColor" stroke-width=".267" d="m0-1.33-1.33 2h2.66z"/><path id="f" stroke="currentColor" stroke-width=".267" d="M0 1.33 1.265.411.782-1.067l-1.564-.009-.483 1.487z"/><use xlink:href="#b" id="c" stroke="currentColor" transform="rotate(180)"/><use xlink:href="#d" id="e" stroke="currentColor" transform="rotate(45)"/><circle id="a" cx="0" cy="0" r="1" stroke="currentColor" stroke-width=".267"/></defs><path fill="none" stroke="#333" stroke-dasharray="0.2,0.4" stroke-linecap="round" stroke-linejoin="round" stroke-width=".2" d="M35.48 205V75.01" class="gridline" color="#000"/><g fill="none" stroke="none" stroke-linecap="round" stroke-linejoin="round" stroke-width="0" color="#000"><path d="M35.48 205v-7.5m0-122.49v7.5"/><text fill="#000" font-family="KaTeX_Main" font-size="10" text-anchor="middle" transform="translate(35.48 215.75)"><tspan> 1</tspan></text></g><path fill="none" stroke="#333" stroke-dasharray="0.2,0.4" stroke-linecap="round" stroke-linejoin="round" stroke-width=".2" d="M72.87 205V75.01" class="gridline" color="#000"/><g fill="none" stroke="none" stroke-linecap="round" stroke-linejoin="round" stroke-width="0" color="#000"><path d="M72.87 205v-7.5m0-122.49v7.5"/><text fill="#000" font-family="KaTeX_Main" font-size="10" text-anchor="middle" transform="translate(72.87 215.75)"><tspan> 2</tspan></text></g><path fill="none" stroke="#333" stroke-dasharray="0.2,0.4" stroke-linecap="round" stroke-linejoin="round" stroke-width=".2" d="M110.26 205V75.01" class="gridline" color="#000"/><g fill="none" stroke="none" stroke-linecap="round" stroke-linejoin="round" stroke-width="0" color="#000"><path d="M110.26 205v-7.5m0-122.49v7.5"/><text fill="#000" font-family="KaTeX_Main" font-size="10" text-anchor="middle" transform="translate(110.26 215.75)"><tspan> 3</tspan></text></g><path fill="none" stroke="#333" stroke-dasharray="0.2,0.4" stroke-linecap="round" stroke-linejoin="round" stroke-width=".2" d="M147.65 205V75.01" class="gridline" color="#000"/><g fill="none" stroke="none" stroke-linecap="round" stroke-linejoin="round" stroke-width="0" color="#000"><path d="M147.65 205v-7.5m0-122.49v7.5"/><text fill="#000" font-family="KaTeX_Main" font-size="10" text-anchor="middle" transform="translate(147.65 215.75)"><tspan> 4</tspan></text></g><path fill="none" stroke="#333" stroke-dasharray="0.2,0.4" stroke-linecap="round" stroke-linejoin="round" stroke-width=".2" d="M185.04 205V75.01" class="gridline" color="#000"/><g fill="none" stroke="none" stroke-linecap="round" stroke-linejoin="round" stroke-width="0" color="#000"><path d="M185.04 205v-7.5m0-122.49v7.5"/><text fill="#000" font-family="KaTeX_Main" font-size="10" text-anchor="middle" transform="translate(185.04 215.75)"><tspan> 5</tspan></text></g><path fill="none" stroke="#333" stroke-dasharray="0.2,0.4" stroke-linecap="round" stroke-linejoin="round" stroke-width=".2" d="M222.43 205V75.01" class="gridline" color="#000"/><g fill="none" stroke="none" stroke-linecap="round" stroke-linejoin="round" stroke-width="0" color="#000"><path d="M222.43 205v-7.5m0-122.49v7.5"/><text fill="#000" font-family="KaTeX_Main" font-size="10" text-anchor="middle" transform="translate(222.43 215.75)"><tspan> 6</tspan></text></g><path fill="none" stroke="#333" stroke-dasharray="0.2,0.4" stroke-linecap="round" stroke-linejoin="round" stroke-width=".2" d="M259.82 205V75.01" class="gridline" color="#000"/><g fill="none" stroke="none" stroke-linecap="round" stroke-linejoin="round" stroke-width="0" color="#000"><path d="M259.82 205v-7.5m0-122.49v7.5"/><text fill="#000" font-family="KaTeX_Main" font-size="10" text-anchor="middle" transform="translate(259.82 215.75)"><tspan> 7</tspan></text></g><path fill="none" stroke="#333" stroke-dasharray="0.2,0.4" stroke-linecap="round" stroke-linejoin="round" stroke-width=".2" d="M297.21 205V75.01" class="gridline" color="#000"/><g fill="none" stroke="none" stroke-linecap="round" stroke-linejoin="round" stroke-width="0" color="#000"><path d="M297.21 205v-7.5m0-122.49v7.5"/><text fill="#000" font-family="KaTeX_Main" font-size="10" text-anchor="middle" transform="translate(297.21 215.75)"><tspan> 8</tspan></text></g><path fill="none" stroke="#333" stroke-dasharray="0.2,0.4" stroke-linecap="round" stroke-linejoin="round" stroke-width=".2" d="M334.6 205V75.01" class="gridline" color="#000"/><g fill="none" stroke="none" stroke-linecap="round" stroke-linejoin="round" stroke-width="0" color="#000"><path d="M334.6 205v-7.5m0-122.49v7.5"/><text fill="#000" font-family="KaTeX_Main" font-size="10" text-anchor="middle" transform="translate(334.6 215.75)"><tspan> 9</tspan></text></g><path fill="none" stroke="#333" stroke-dasharray="0.2,0.4" stroke-linecap="round" stroke-linejoin="round" stroke-width=".2" d="M371.99 205V75.01" class="gridline" color="#000"/><g fill="none" stroke="none" stroke-linecap="round" stroke-linejoin="round" stroke-width="0" color="#000"><path d="M371.99 205v-7.5m0-122.49v7.5"/><text fill="#000" font-family="KaTeX_Main" font-size="10" text-anchor="middle" transform="translate(371.99 215.75)"><tspan> 10</tspan></text></g><g fill="none" stroke="none" stroke-linecap="round" stroke-linejoin="round" stroke-width="0" color="#000"><path d="M371.99 205h-7.5"/><text fill="#000" font-family="KaTeX_Main" font-size="10" transform="translate(378.99 208.25)"><tspan>0.25</tspan></text></g><g fill="none" stroke="none" stroke-linecap="round" stroke-linejoin="round" stroke-width="0" color="#000"><path d="M371.99 192h-7.5"/><text fill="#000" font-family="KaTeX_Main" font-size="10" transform="translate(378.99 195.25)"><tspan>0.30</tspan></text></g><g fill="none" stroke="none" stroke-linecap="round" stroke-linejoin="round" stroke-width="0" color="#000"><path d="M371.99 179h-7.5"/><text fill="#000" font-family="KaTeX_Main" font-size="10" transform="translate(378.99 182.25)"><tspan>0.35</tspan></text></g><g fill="none" stroke="none" stroke-linecap="round" stroke-linejoin="round" stroke-width="0" color="#000"><path d="M371.99 166h-7.5"/><text fill="#000" font-family="KaTeX_Main" font-size="10" transform="translate(378.99 169.25)"><tspan>0.40</tspan></text></g><g fill="none" stroke="none" stroke-linecap="round" stroke-linejoin="round" stroke-width="0" color="#000"><path d="M371.99 153h-7.5"/><text fill="#000" font-family="KaTeX_Main" font-size="10" transform="translate(378.99 156.25)"><tspan>0.45</tspan></text></g><g fill="none" stroke="none" stroke-linecap="round" stroke-linejoin="round" stroke-width="0" color="#000"><path d="M371.99 140.01h-7.5"/><text fill="#000" font-family="KaTeX_Main" font-size="10" transform="translate(378.99 143.26)"><tspan>0.50</tspan></text></g><g fill="none" stroke="none" stroke-linecap="round" stroke-linejoin="round" stroke-width="0" color="#000"><path d="M371.99 127.01h-7.5"/><text fill="#000" font-family="KaTeX_Main" font-size="10" transform="translate(378.99 130.26)"><tspan>0.55</tspan></text></g><g fill="none" stroke="none" stroke-linecap="round" stroke-linejoin="round" stroke-width="0" color="#000"><path d="M371.99 114.01h-7.5"/><text fill="#000" font-family="KaTeX_Main" font-size="10" transform="translate(378.99 117.26)"><tspan>0.60</tspan></text></g><g fill="none" stroke="none" stroke-linecap="round" stroke-linejoin="round" stroke-width="0" color="#000"><path d="M371.99 101.01h-7.5"/><text fill="#000" font-family="KaTeX_Main" font-size="10" transform="translate(378.99 104.26)"><tspan>0.65</tspan></text></g><g fill="none" stroke="none" stroke-linecap="round" stroke-linejoin="round" stroke-width="0" color="#000"><path d="M371.99 88.01h-7.5"/><text fill="#000" font-family="KaTeX_Main" font-size="10" transform="translate(378.99 91.26)"><tspan>0.70</tspan></text></g><g fill="none" stroke="none" stroke-linecap="round" stroke-linejoin="round" stroke-width="0" color="#000"><path d="M371.99 75.01h-7.5"/><text fill="#000" font-family="KaTeX_Main" font-size="10" transform="translate(378.99 78.26)"><tspan>0.75</tspan></text></g><path fill="none" stroke="none" stroke-linecap="round" stroke-linejoin="round" stroke-width="0" d="M28 75.01V205M371.99 75.01H28" color="#000"/><text fill="#000" stroke="none" stroke-linecap="round" stroke-linejoin="round" stroke-width="0" color="#000" font-family="KaTeX_Main" font-size="10" text-anchor="middle" transform="rotate(-90 75.755 64.255)"><tspan font-weight="bold">Rotations</tspan><tspan> / Operation</tspan></text><text fill="#000" stroke="none" stroke-linecap="round" stroke-linejoin="round" stroke-width="0" color="#000" font-family="KaTeX_Main" font-size="10" text-anchor="middle" transform="translate(199.99 238.25)"><tspan>Operations × 10</tspan><tspan dy="-5" font-size="8">5</tspan></text><text fill="#000" stroke="none" stroke-linecap="round" stroke-linejoin="round" color="#000" font-family="KaTeX_Main" font-size="8" transform="translate(116 47.61)"><tspan>AVLBottomUp</tspan></text><g fill="none" stroke="currentColor" stroke-linecap="round" stroke-linejoin="round" color="#000"><path stroke="#000" d="M80.5 45.01h29.9M28 89.37l.37-.04.38-.04.37-.05.38-.05.37-.05.37-.06.38-.06.37-.07.38-.07.37-.07.37-.08.38-.07.37-.07.37-.07.38-.06.37-.06.38-.05.37-.04.37-.03.38-.03.37-.02.38-.01.37-.01h.37l.38.01h.37l.38.01H39.59l.37-.01.38-.01.37-.01.38-.01.37-.02.37-.01.38-.02h.37l.38-.01.37.01.37.02.38.02.37.04.38.05.37.07.37.07.38.09.37.1.38.12.37.12.37.12.38.13.37.13.37.13.38.13.37.12.38.11.37.1.37.09.38.08.37.07.38.05.37.03.37.03h.75l.38-.02.37-.03.37-.03.38-.05.37-.06.37-.06.38-.07.37-.07.38-.07.37-.08.37-.08.38-.08.37-.08.38-.08.37-.07.37-.08.38-.07.37-.06.38-.06.37-.06.37-.05.38-.05.37-.04.38-.04.37-.03.37-.02.38-.01.37-.02h1.12l.38.01.37.01.37.01.38.02.37.01.38.01.37.02.37.01.38.01h1.12l.37-.01.38-.01.37-.01.37-.02.38-.03.37-.03.38-.04.37-.04.37-.04.38-.05.37-.05.38-.06.37-.06.37-.06.38-.06.37-.07.38-.06.37-.07.37-.06.38-.06.37-.07.38-.06.37-.05.37-.05.38-.05.37-.05.37-.03.38-.04.37-.03.38-.02.37-.01.37-.02h.75l.38.01.37.01.37.02.38.02.37.03.38.03.37.04.37.04.38.04.37.05.37.05.38.06.37.05.38.06.37.06.37.07.38.06.37.07.38.07.37.07.37.07.38.06.37.07.38.07.37.07.37.07.38.07.37.06.38.07.37.06.37.05.38.06.37.05.37.05.38.04.37.04.38.03.37.03.37.02.38.02.37.01h1.12l.38-.01.37-.02.38-.03.37-.02.37-.04.38-.03.37-.04.37-.05.38-.05.37-.04.38-.06.37-.05.37-.05.38-.06.37-.05.38-.05.37-.05.37-.06.38-.04.37-.05.38-.05.37-.04.37-.04.38-.04.37-.04.38-.03.37-.03.37-.03.38-.03.37-.02.37-.02.38-.02.37-.02.38-.01.37-.01.37-.01.38-.01.37-.01h1.87l.38.01.37.01.37.01h.38l.37.02.37.01.38.01.37.01.38.01.37.02.37.01.38.01.37.01.38.02.37.01h.37l.38.01.37.01h.38l.37.01h1.5l.37-.01h.37l.38-.01h.37l.37-.01.38-.01.37-.01h.38l.37-.01.37-.01h.38l.37-.01.38-.01h.37l.37-.01h.75l.38-.01h4.48l.38.01h.74l.38.01h.37l.38.01h.37l.37.01.38.01.37.01.38.02.37.01.37.02.38.02.37.03.37.02.38.03.37.04.38.03.37.04.37.04.38.05.37.04.38.05.37.06.37.05.38.06.37.05.38.06.37.06.37.06.38.06.37.06.37.06.38.06.37.06.38.06.37.05.37.05.38.05.37.05.38.04.37.04.37.03.38.03.37.03.38.02.37.02.37.01.38.01h.75l.37-.01.37-.01.38-.02.37-.02.37-.03.38-.03.37-.03.38-.04.37-.04.37-.04.38-.05.37-.06.38-.05.37-.06.37-.06.38-.06.37-.07.38-.07.37-.07.37-.07.38-.07.37-.07.37-.07.38-.07.37-.08.38-.07.37-.07.37-.07.38-.06.37-.07.38-.06.37-.05.37-.06.38-.05.37-.04.38-.04.37-.03.37-.03.38-.03.37-.01.38-.01.37-.01h.37l.38.01.37.01.37.02.38.02.37.03.38.03.37.04.37.04.38.04.37.05.38.04.37.05.37.04.38.05.37.05.38.04.37.04.37.04.38.04.37.03.37.03.38.03.37.03.38.02.37.01.37.01.38.01.37.01h.38l.37-.01h.37l.38-.01.37-.01.38-.01.37-.02.37-.02.38-.01.37-.02.38-.02.37-.02.37-.02.38-.02.37-.01.37-.02.38-.02.37-.01.38-.01.37-.01.37-.01.38-.01.37-.01h.38l.37-.01h1.12l.38.01h.74l.38.01h.37l.37.01h.38l.37.01h2.25l.37-.01h.37l.38-.01.37-.01.38-.01.37-.02.37-.01.38-.02.37-.02.38-.02.37-.02.37-.02.38-.02.37-.02.37-.02.38-.02.37-.02.38-.02.37-.01.37-.02.38-.02.37-.01.38-.02.37-.01.37-.02.38-.01.37-.01.38-.01.37-.02.37-.01.38-.01.37-.01.37-.02.38-.01.37-.02.38-.02.37-.02.37-.02.38-.02.37-.02.38-.02.37-.03.37-.02.38-.03.37-.02.38-.03.37-.02.37-.02.38-.03.37-.02.37-.01.38-.02.37-.01.38-.02.37-.01h.37l.38-.01H219.06l.38.01h.37l.38.01h.37l.37.01h.38l.37.01h1.12l.38-.01h.37l.37-.01.38-.02.37-.01.38-.02.37-.02.37-.02.38-.03.37-.02.38-.03.37-.03.37-.03.38-.04.37-.03.38-.03.37-.03.37-.03.38-.03.37-.03.37-.03.38-.02.37-.03.38-.02.37-.01.37-.02.38-.01.37-.01h.38l.37-.01h.37l.38.01h.37l.38.01.37.01.37.02.38.01.37.02.38.02.37.03.37.02.38.04.37.03.37.03.38.04.37.05.38.04.37.05.37.05.38.06.37.06.38.06.37.07.37.07.38.07.37.07.38.08.37.08.37.08.38.08.37.09.37.08.38.08.37.09.38.08.37.08.37.07.38.08.37.07.38.07.37.06.37.06.38.05.37.06.38.04.37.04.37.04.38.03.37.03.38.02.37.02.37.01.38.01.37.01h1.5l.37-.01h.37l.38-.01.37-.01.38-.01h.37l.37-.01.38-.02.37-.01.38-.01.37-.01.37-.02.38-.01.37-.02.37-.02.38-.02.37-.02.38-.02.37-.03.37-.03.38-.02.37-.03.38-.03.37-.03.37-.02.38-.03.37-.03.38-.02.37-.02.37-.02.38-.01.37-.01.38-.01h.74l.38.01.37.02.37.01.38.03.37.02.38.03.37.03.37.04.38.04.37.04.38.04.37.04.37.04.38.04.37.04.38.05.37.04.37.04.38.04.37.04.37.04.38.04.37.04.38.04.37.05.37.05.38.05.37.06.38.06.37.06.37.07.38.07.37.08.38.08.37.08.37.08.38.09.37.09.38.09.37.08.37.09.38.08.37.08.37.08.38.06.37.06.38.06.37.04.37.04.38.03.37.02.38.01h.37l.37-.01.38-.02.37-.02.38-.04.37-.04.37-.04.38-.06.37-.05.37-.07.38-.06.37-.07.38-.08.37-.07.37-.08.38-.09.37-.08.38-.09.37-.09.37-.09.38-.09.37-.1.38-.1.37-.09.37-.11.38-.1.37-.1.38-.1.37-.1.37-.1.38-.1.37-.09.37-.08.38-.08.37-.07.38-.06.37-.06.37-.04.38-.03.37-.02.38-.01h.37l.37.01.38.02.37.03.38.03.37.05.37.05.38.05.37.05.37.05.38.05.37.04.38.04.37.04.37.02.38.02h.75l.37-.01.37-.03.38-.03.37-.04.38-.05.37-.05.37-.05.38-.06.37-.06.38-.06.37-.05.37-.05.38-.05.37-.03.37-.03.38-.02h.75l.37.01.37.02.38.03.37.04.38.04.37.05.37.06.38.05.37.06.38.06.37.06.37.06.38.05.37.05.37.05.38.05.37.05.38.04.37.04.37.04.38.03.37.03.38.03.37.02.37.02h.75l.38-.01.37-.02.37-.03.38-.05.37-.06.38-.07.37-.09.37-.1.38-.11.37-.12.37-.13.38-.13.37-.12.38-.12.37-.11.37-.09.38-.08.37-.05.38-.02h.37l.37.03.38.07.37.09.38.11.37.14.37.16.38.18.37.18.37.19.38.19.37.18.38.17.37.16.37.14.38.12.37.1.38.07.37.05.37.04.38.01h.37l.38-.01.37-.03.37-.03.38-.04.37-.04.38-.05.37-.04.37-.05.38-.06.37-.06.37-.07.38-.07.37-.09.38-.1.37-.11.37-.12.38-.12.37-.13.38-.13.37-.13.37-.11.38-.1.37-.08.38-.05.37-.03h.37l.38.03.37.05.37.06.38.08.37.09.38.08.37.07.37.06.38.02h.37l.38-.03.37-.08.37-.12.38-.16.37-.2.38-.23.37-.25.37-.25.38-.25.37-.23.38-.19.37-.14.37-.11.38-.06.37-.02.37-.01h1.13l.37-.01.37.01.38.05.37.12.38.2.37.31.37.42.38.5.37.56.38.54.37.45.37.29.38.05.37-.24.37-.55.38-.77.37-.83.38-.7.37-.43.37-.27.38-.34.37-.43.38.1.37 2.15"/><use xlink:href="#g" transform="matrix(3.75 0 0 3.75 342.45 90.47)"/><use xlink:href="#g" transform="matrix(3.75 0 0 3.75 95.45 45.01)"/></g><text fill="#000" stroke="none" stroke-linecap="round" stroke-linejoin="round" color="#000" font-family="KaTeX_Main" font-size="8" transform="translate(116 62.61)"><tspan>AVLTopDown</tspan></text><g fill="none" stroke="currentColor" stroke-linecap="round" stroke-linejoin="round" color="#000"><path stroke="#29C3F6" stroke-dasharray="1.0,2.0" d="M80.5 60.01h29.9M28 90.38l.37.34.38.45.37.58.38.73.37.92.37 1.13.38 1.36.37 1.61.38 1.88.37 2.17.37 2.46.38 2.76.37 3.05.37 3.33.38 3.59.37 3.81.38 3.99.37 4.14.37 4.24.38 4.29.37 4.29.38 4.24.37 4.14.37 4 .38 3.82.37 3.62.38 3.38.37 3.13.37 2.87.38 2.61.37 2.34.37 2.1.38 1.85.37 1.62.38 1.42.37 1.23.37 1.05.38.9.37.76.38.64.37.53.37.43.38.34.37.26.38.17.37.08.37-.01.38-.1.37-.2.38-.32.37-.44.37-.58.38-.73.37-.89.37-1.06.38-1.26.37-1.44.38-1.66.37-1.86.37-2.07.38-2.28.37-2.48.38-2.69.37-2.86.37-3.04.38-3.19.37-3.31.38-3.42.37-3.5.37-3.55.38-3.57.37-3.57.37-3.53.38-3.48.37-3.38.38-3.29.37-3.15.37-3.01.38-2.85.37-2.69.38-2.5.37-2.33.37-2.14.38-1.95.37-1.78.38-1.59.37-1.42.37-1.26.38-1.09.37-.94.38-.79.37-.65.37-.5.38-.38.37-.23.37-.11.38.03.37.16.38.3.37.44.37.59.38.74.37.9.38 1.06.37 1.23.37 1.4.38 1.58.37 1.75.38 1.92.37 2.09.37 2.27.38 2.42.37 2.58.37 2.72.38 2.84.37 2.96.38 3.06.37 3.13.37 3.19.38 3.23.37 3.24.38 3.25.37 3.22.37 3.17.38 3.11.37 3.03.38 2.94.37 2.83.37 2.7.38 2.57.37 2.42.38 2.28.37 2.12.37 1.96.38 1.8.37 1.64.37 1.48.38 1.31.37 1.16.38 1.01.37.85.37.69.38.55.37.39.38.25.37.1.37-.05.38-.19.37-.35.38-.49.37-.65.37-.79.38-.96.37-1.11.37-1.26.38-1.43.37-1.57.38-1.74.37-1.88.37-2.03.38-2.18.37-2.31.38-2.43.37-2.56.37-2.66.38-2.75.37-2.84.38-2.9.37-2.96.37-2.99.38-3.01.37-3.01.38-3 .37-2.97.37-2.93.38-2.87.37-2.79.37-2.71.38-2.61.37-2.5.38-2.39.37-2.25.37-2.13.38-1.98.37-1.84.38-1.69.37-1.54.37-1.38.38-1.23.37-1.07.38-.91.37-.75.37-.6.38-.43.37-.28.37-.11.38.05.37.2.38.37.37.52.37.69.38.85.37 1.01.38 1.16.37 1.32.37 1.48.38 1.63.37 1.77.38 1.92.37 2.05.37 2.19.38 2.3.37 2.42.38 2.52.37 2.61.37 2.69.38 2.75.37 2.81.37 2.85.38 2.87.37 2.87.38 2.88.37 2.85.37 2.82.38 2.77.37 2.7.38 2.64.37 2.55.37 2.45.38 2.34.37 2.23.38 2.11.37 1.98.37 1.84.38 1.71.37 1.56.37 1.41.38 1.27.37 1.11.38.96.37.81.37.65.38.51.37.34.38.2.37.04.37-.11.38-.26.37-.41.38-.57.37-.71.37-.87.38-1 .37-1.16.38-1.29.37-1.44.37-1.57.38-1.71.37-1.83.37-1.95.38-2.07.37-2.17.38-2.27.37-2.37.37-2.44.38-2.52.37-2.57.38-2.62.37-2.66.37-2.68.38-2.69.37-2.69.38-2.67.37-2.65.37-2.61.38-2.55.37-2.5.37-2.42.38-2.34.37-2.24.38-2.15.37-2.03.37-1.92.38-1.8.37-1.67.38-1.53.37-1.4.37-1.26.38-1.12.37-.97.38-.83.37-.67.37-.53.38-.37.37-.23.38-.07.37.08.37.23.38.38.37.53.37.68.38.83.37.97.38 1.12.37 1.25.37 1.4.38 1.52.37 1.66.38 1.77.37 1.9.37 2 .38 2.11.37 2.2.38 2.29.37 2.37.37 2.42.38 2.49.37 2.53.37 2.56.38 2.58.37 2.59.38 2.58.37 2.58.37 2.54.38 2.51.37 2.46.38 2.4.37 2.33.37 2.25.38 2.16.37 2.07.38 1.96.37 1.86.37 1.74.38 1.61.37 1.5.38 1.36.37 1.23.37 1.09.38.96.37.81.37.68.38.52.37.39.38.24.37.09.37-.05.38-.2.37-.35.38-.49.37-.64.37-.77.38-.93.37-1.06.38-1.2.37-1.33.37-1.46.38-1.59.37-1.71.37-1.83.38-1.94.37-2.04.38-2.14.37-2.22.37-2.3.38-2.37.37-2.43.38-2.48.37-2.52.37-2.54.38-2.55.37-2.56.38-2.55.37-2.53.37-2.5.38-2.46.37-2.4.38-2.34.37-2.27.37-2.18.38-2.1.37-1.99.37-1.89.38-1.78.37-1.65.38-1.53.37-1.4.37-1.27.38-1.12.37-.99.38-.83.37-.69.37-.54.38-.39.37-.23.38-.09.37.08.37.23.38.38.37.54.37.69.38.84.37.99.38 1.13.37 1.28.37 1.41.38 1.55.37 1.68.38 1.8.37 1.91.37 2.02.38 2.13.37 2.21.38 2.29.37 2.37.37 2.42.38 2.47.37 2.52.38 2.54.37 2.55.37 2.56.38 2.54.37 2.53.37 2.49.38 2.45.37 2.4.38 2.33.37 2.26.37 2.18.38 2.09.37 1.98.38 1.89.37 1.77.37 1.65.38 1.53.37 1.4.38 1.28.37 1.14.37 1 .38.87.37.72.37.59.38.44.37.3.38.16.37.01.37-.13.38-.27.37-.42.38-.56.37-.7.37-.84.38-.98.37-1.12.38-1.24.37-1.38.37-1.51.38-1.63.37-1.74.38-1.86.37-1.97.37-2.06.38-2.15.37-2.24.37-2.31.38-2.37.37-2.43.38-2.47.37-2.51.37-2.52.38-2.54.37-2.53.38-2.53.37-2.49.37-2.47.38-2.41.37-2.36.38-2.29.37-2.22.37-2.12.38-2.04.37-1.93.37-1.82.38-1.71.37-1.58.38-1.46.37-1.33.37-1.19.38-1.05.37-.91.38-.77.37-.62.37-.48.38-.32.37-.18.38-.02.37.12.37.28.38.42.37.57.37.73.38.86.37 1.02.38 1.15.37 1.3.37 1.43.38 1.56.37 1.69.38 1.81.37 1.93.37 2.04.38 2.14.37 2.23.38 2.32.37 2.39.37 2.46.38 2.51.37 2.56.38 2.59.37 2.61.37 2.63.38 2.61.37 2.61.37 2.57.38 2.54.37 2.49.38 2.43.37 2.35.37 2.28.38 2.19.37 2.09.38 1.99.37 1.88.37 1.76.38 1.63.37 1.5.38 1.38.37 1.23.37 1.1.38.96.37.81.37.67.38.51.37.37.38.23.37.07.37-.08.38-.23.37-.38.38-.53.37-.68.37-.83.38-.97.37-1.12.38-1.27.37-1.4.37-1.55.38-1.67.37-1.81.38-1.93.37-2.04.37-2.16.38-2.25.37-2.35.37-2.44.38-2.5.37-2.57.38-2.62.37-2.65.37-2.68.38-2.7.37-2.7.38-2.68.37-2.66.37-2.62.38-2.57.37-2.51.38-2.44.37-2.36.37-2.27.38-2.16.37-2.06.37-1.95.38-1.82.37-1.7.38-1.56.37-1.43.37-1.29.38-1.15.37-1.01.38-.86.37-.71.37-.57.38-.41.37-.27.38-.11.37.04.37.19.38.34.37.5.38.65.37.81.37.96.38 1.11.37 1.26.37 1.42.38 1.56.37 1.7.38 1.85.37 1.98.37 2.1.38 2.23.37 2.33.38 2.45.37 2.53.37 2.61.38 2.68.37 2.74.38 2.78.37 2.8.37 2.82.38 2.81.37 2.8.37 2.77.38 2.72.37 2.66.38 2.6.37 2.51.37 2.41.38 2.32.37 2.2.38 2.08.37 1.95.37 1.83.38 1.69.37 1.55.38 1.41.37 1.26.37 1.13.38.98.37.83.38.69.37.55.37.4.38.26.37.12.37-.03.38-.18.37-.32.38-.47.37-.62.37-.77.38-.92.37-1.07.38-1.23.37-1.38.37-1.54.38-1.69.37-1.84.38-1.99.37-2.13.37-2.27.38-2.4.37-2.53.37-2.64.38-2.74.37-2.83.38-2.9.37-2.97.37-3.01.38-3.04.37-3.05.38-3.04.37-3.02.37-2.99.38-2.92.37-2.86.38-2.76.37-2.67.37-2.56.38-2.43.37-2.3.38-2.15.37-2.01.37-1.86.38-1.69.37-1.54.37-1.37.38-1.21.37-1.04.38-.88.37-.72.37-.55.38-.39.37-.24.38-.07.37.08.37.25.38.4.37.56.38.73.37.88.37 1.05.38 1.21.37 1.37.37 1.54.38 1.7.37 1.86.38 2.03.37 2.18.37 2.33.38 2.47.37 2.61.38 2.74.37 2.84.37 2.95.38 3.03.37 3.1.38 3.15.37 3.19.37 3.19.38 3.19.37 3.16.38 3.12.37 3.05.37 2.97.38 2.87.37 2.76.37 2.64.38 2.5.37 2.36.38 2.2.37 2.05.37 1.9.38 1.74.37 1.58.38 1.42.37 1.27.37 1.13.38.98.37.85.38.71.37.57.37.45.38.33.37.2.37.07.38-.06.37-.19.38-.32.37-.47.37-.62.38-.78.37-.94.38-1.12.37-1.3.37-1.49.38-1.69.37-1.89.38-2.1.37-2.29.37-2.5.38-2.7.37-2.88.38-3.05.37-3.21.37-3.36.38-3.47.37-3.56.37-3.63.38-3.67.37-3.68.38-3.66.37-3.61.37-3.54.38-3.43.37-3.3.38-3.15.37-2.98.37-2.79.38-2.6.37-2.4.38-2.19.37-1.98.37-1.77.38-1.57.37-1.38.37-1.19.38-1.02.37-.85.38-.7.37-.55.37-.43.38-.3.37-.19.38-.08.37.03.37.14.38.24.37.36.38.47.37.6.37.74.38.88.37 1.06.38 1.23.37 1.44.37 1.64.38 1.88.37 2.11.37 2.36.38 2.62.37 2.88.38 3.12.37 3.37.37 3.59.38 3.79.37 3.97.38 4.1.37 4.19.37 4.25.38 4.25.37 4.22.38 4.12.37 3.98.37 3.81.38 3.6.37 3.35.37 3.08.38 2.81.37 2.51.38 2.22.37 1.94.37 1.67.38 1.41.37 1.18.38.97.37.79.37.63.38.5.37.39.38.3.37.24.37.18.38.15.37.12.38.09.37.06.37.04h.38l.37-.04.37-.11.38-.18.37-.28.38-.42.37-.57.37-.77.38-1 .37-1.27.38-1.59.37-1.94.37-2.34.38-2.77.37-3.22.38-3.68.37-4.14.37-4.58.38-4.97.37-5.3.37-5.55.38-5.69.37-5.73.38-5.66.37-5.46.37-5.17.38-4.79.37-4.36.38-3.88.37-3.39.37-2.92.38-2.48.37-2.08.38-1.73.37-1.42.37-1.16.38-.94.37-.72.38-.54.37-.36.37-.19.38-.04.37.1.37.21.38.28.37.3.38.27.37.2.37.08.38-.07.37-.22.38-.34.37-.42.37-.42.38-.35.37-.2.38-.04.37.15.37.29.38.37.37.41.37.45.38.55.37.77.38 1.1.37 1.37.37 1.32.38.66.37-.72.38-2.44.37-4.8"/><use xlink:href="#h" color="#29C3F6" transform="matrix(3.75 0 0 3.75 56.04 128.56)"/><use xlink:href="#h" color="#29C3F6" transform="matrix(3.75 0 0 3.75 95.45 60.01)"/></g><text fill="#000" stroke="none" stroke-linecap="round" stroke-linejoin="round" color="#000" font-family="KaTeX_Main" font-size="8" transform="translate(241.1 47.61)"><tspan>AVLWeakBottomUp</tspan></text><g fill="none" stroke="currentColor" stroke-linecap="round" stroke-linejoin="round" color="#000"><path stroke="#3B75EA" d="M205.6 45.01h29.9M28 90.5l.37.38.38.51.37.65.38.83.37 1.03.37 1.26.38 1.51.37 1.8.38 2.1.37 2.42.37 2.74.38 3.07.37 3.4.37 3.69.38 3.98.37 4.23.38 4.43.37 4.59.37 4.69.38 4.74.37 4.74.38 4.68.37 4.57.37 4.4.38 4.2.37 3.96.38 3.68.37 3.4.37 3.1.38 2.79.37 2.48.37 2.18.38 1.89.37 1.61.38 1.35.37 1.12.37.9.38.69.37.52.38.36.37.21.37.09.38-.04.37-.15.38-.25.37-.35.37-.44.38-.55.37-.64.38-.74.37-.85.37-.96.38-1.08.37-1.21.37-1.35.38-1.48.37-1.63.38-1.78.37-1.94.37-2.09.38-2.25.37-2.39.38-2.54.37-2.66.37-2.79.38-2.9.37-2.99.38-3.06.37-3.12.37-3.14.38-3.16.37-3.15.37-3.12.38-3.06.37-2.99.38-2.91.37-2.81.37-2.69.38-2.56.37-2.43.38-2.29.37-2.14.37-2 .38-1.85.37-1.71.38-1.56.37-1.42.37-1.29.38-1.16.37-1.04.38-.9.37-.79.37-.67.38-.55.37-.44.37-.31.38-.18.37-.05.38.08.37.23.37.38.38.53.37.71.38.88.37 1.07.37 1.25.38 1.45.37 1.64.38 1.84.37 2.04.37 2.23.38 2.41.37 2.59.37 2.75.38 2.9.37 3.04.38 3.14.37 3.23.37 3.31.38 3.34.37 3.37.38 3.37.37 3.33.37 3.29.38 3.21.37 3.12.38 3.01.37 2.88.37 2.73.38 2.58.37 2.4.38 2.24.37 2.05.37 1.87.38 1.68.37 1.5.37 1.31.38 1.13.37.95.38.77.37.61.37.45.38.28.37.14.38-.02.37-.16.37-.3.38-.43.37-.57.38-.7.37-.83.37-.96.38-1.08.37-1.21.37-1.33.38-1.45.37-1.57.38-1.69.37-1.81.37-1.91.38-2.02.37-2.13.38-2.21.37-2.31.37-2.38.38-2.46.37-2.52.38-2.56.37-2.61.37-2.64.38-2.65.37-2.66.38-2.64.37-2.63.37-2.6.38-2.56.37-2.5.37-2.44.38-2.37.37-2.29.38-2.19.37-2.1.37-1.99.38-1.89.37-1.77.38-1.65.37-1.52.37-1.4.38-1.27.37-1.14.38-.99.37-.86.37-.72.38-.57.37-.42.37-.27.38-.12.37.04.38.2.37.35.37.53.38.68.37.86.38 1.02.37 1.18.37 1.35.38 1.52.37 1.67.38 1.83.37 1.98.37 2.12.38 2.25.37 2.37.38 2.49.37 2.59.37 2.67.38 2.75.37 2.8.37 2.85.38 2.87.37 2.87.38 2.88.37 2.84.37 2.81.38 2.76.37 2.69.38 2.6.37 2.51.37 2.4.38 2.29.37 2.16.38 2.03.37 1.89.37 1.75.38 1.6.37 1.44.37 1.3.38 1.14.37.98.38.83.37.68.37.52.38.38.37.23.38.08.37-.07.37-.2.38-.35.37-.48.38-.61.37-.75.37-.88.38-1 .37-1.13.38-1.26.37-1.37.37-1.49.38-1.6.37-1.7.37-1.82.38-1.9.37-2 .38-2.09.37-2.17.37-2.23.38-2.3.37-2.36.38-2.4.37-2.43.37-2.46.38-2.48.37-2.49.38-2.48.37-2.47.37-2.45.38-2.41.37-2.37.37-2.31.38-2.26.37-2.18.38-2.11.37-2.02.37-1.93.38-1.83.37-1.72.38-1.62.37-1.49.37-1.38.38-1.24.37-1.12.38-.98.37-.85.37-.7.38-.55.37-.41.38-.25.37-.1.37.05.38.21.37.37.37.53.38.69.37.85.38 1.01.37 1.17.37 1.31.38 1.47.37 1.62.38 1.76.37 1.89.37 2.01.38 2.14.37 2.25.38 2.34.37 2.43.37 2.51.38 2.57.37 2.63.37 2.66.38 2.68.37 2.7.38 2.69.37 2.67.37 2.64.38 2.6.37 2.54.38 2.47.37 2.39.37 2.3.38 2.19.37 2.09.38 1.98.37 1.85.37 1.72.38 1.58.37 1.45.38 1.31.37 1.16.37 1.02.38.87.37.73.37.58.38.43.37.29.38.14.37.01.37-.14.38-.28.37-.41.38-.55.37-.68.37-.82.38-.93.37-1.07.38-1.18.37-1.3.37-1.42.38-1.52.37-1.63.37-1.73.38-1.83.37-1.92.38-2 .37-2.08.37-2.15.38-2.21.37-2.27.38-2.31.37-2.35.37-2.38.38-2.4.37-2.41.38-2.4.37-2.4.37-2.38.38-2.35.37-2.31.38-2.26.37-2.2.37-2.14.38-2.07.37-1.98.37-1.89.38-1.79.37-1.69.38-1.58.37-1.46.37-1.34.38-1.21.37-1.07.38-.94.37-.8.37-.65.38-.5.37-.35.38-.2.37-.04.37.12.38.27.37.44.37.59.38.75.37.91.38 1.06.37 1.22.37 1.36.38 1.51.37 1.65.38 1.77.37 1.91.37 2.02.38 2.12.37 2.23.38 2.31.37 2.39.37 2.45.38 2.51.37 2.54.38 2.57.37 2.59.37 2.58.38 2.57.37 2.55.37 2.51.38 2.45.37 2.39.38 2.32.37 2.24.37 2.14.38 2.04.37 1.93.38 1.81.37 1.69.37 1.56.38 1.44.37 1.29.38 1.16.37 1.03.37.88.38.74.37.61.37.46.38.32.37.19.38.06.37-.08.37-.22.38-.34.37-.47.38-.59.37-.72.37-.84.38-.96.37-1.07.38-1.19.37-1.29.37-1.4.38-1.51.37-1.6.38-1.69.37-1.79.37-1.87.38-1.95.37-2.02.37-2.08.38-2.15.37-2.19.38-2.24.37-2.27.37-2.3.38-2.32.37-2.32.38-2.33.37-2.31.37-2.3.38-2.27.37-2.24.38-2.18.37-2.14.37-2.07.38-2 .37-1.93.37-1.84.38-1.75.37-1.65.38-1.55.37-1.43.37-1.32.38-1.2.37-1.08.38-.94.37-.81.37-.67.38-.52.37-.38.38-.24.37-.08.37.07.38.23.37.39.37.54.38.71.37.86.38 1.02.37 1.17.37 1.33.38 1.47.37 1.62.38 1.76.37 1.9.37 2.02.38 2.13.37 2.25.38 2.34.37 2.43.37 2.5.38 2.57.37 2.62.38 2.65.37 2.68.37 2.68.38 2.68.37 2.66.37 2.63.38 2.58.37 2.51.38 2.45.37 2.36.37 2.27.38 2.17.37 2.05.38 1.93.37 1.81.37 1.67.38 1.54.37 1.39.38 1.25.37 1.1.37.95.38.81.37.65.37.51.38.36.37.22.38.07.37-.07.37-.21.38-.34.37-.49.38-.61.37-.75.37-.87.38-1 .37-1.12.38-1.24.37-1.36.37-1.46.38-1.58.37-1.68.38-1.78.37-1.88.37-1.96.38-2.05.37-2.13.37-2.2.38-2.26.37-2.31.38-2.37.37-2.4.37-2.43.38-2.45.37-2.46.38-2.46.37-2.46.37-2.43.38-2.41.37-2.37.38-2.32.37-2.27.37-2.2.38-2.13.37-2.05.37-1.96.38-1.86.37-1.77.38-1.65.37-1.54.37-1.42.38-1.29.37-1.16.38-1.03.37-.89.37-.75.38-.6.37-.44.38-.3.37-.13.37.02.38.19.37.36.38.52.37.7.37.86.38 1.04.37 1.2.37 1.38.38 1.54.37 1.71.38 1.86.37 2.01.37 2.17.38 2.3.37 2.42.38 2.54.37 2.65.37 2.74.38 2.82.37 2.87.38 2.92.37 2.96.37 2.96.38 2.96.37 2.94.37 2.91.38 2.85.37 2.77.38 2.7.37 2.6.37 2.49.38 2.37.37 2.23.38 2.1.37 1.95.37 1.8.38 1.64.37 1.48.38 1.31.37 1.16.37.99.38.83.37.67.38.52.37.36.37.2.38.05.37-.09.37-.23.38-.38.37-.51.38-.66.37-.78.37-.92.38-1.04.37-1.18.38-1.29.37-1.42.37-1.55.38-1.66.37-1.77.38-1.89.37-1.99.37-2.09.38-2.19.37-2.28.37-2.36.38-2.43.37-2.5.38-2.55.37-2.6.37-2.64.38-2.65.37-2.67.38-2.67.37-2.66.37-2.64.38-2.6.37-2.55.38-2.5.37-2.44.37-2.35.38-2.28.37-2.18.38-2.08.37-1.97.37-1.86.38-1.74.37-1.61.37-1.49.38-1.36.37-1.22.38-1.08.37-.93.37-.79.38-.65.37-.48.38-.33.37-.17h.37l.38.16.37.34.38.51.37.7.37.88.38 1.07.37 1.26.37 1.44.38 1.64.37 1.83.38 2.01.37 2.19.37 2.37.38 2.54.37 2.69.38 2.84.37 2.96.37 3.08.38 3.17.37 3.25.38 3.3.37 3.33.37 3.34.38 3.32.37 3.29.38 3.22.37 3.14.37 3.04.38 2.91.37 2.78.37 2.62.38 2.46.37 2.28.38 2.1.37 1.91.37 1.72.38 1.53.37 1.35.38 1.16.37.98.37.81.38.65.37.49.38.35.37.21.37.07.38-.04.37-.17.37-.27.38-.39.37-.49.38-.59.37-.71.37-.81.38-.93.37-1.03.38-1.16.37-1.29.37-1.41.38-1.54.37-1.69.38-1.82.37-1.97.37-2.11.38-2.26.37-2.39.38-2.52.37-2.64.37-2.76.38-2.86.37-2.95.37-3.01.38-3.07.37-3.1.38-3.11.37-3.11.37-3.07.38-3.03.37-2.97.38-2.87.37-2.78.37-2.67.38-2.54.37-2.4.38-2.27.37-2.11.37-1.96.38-1.81.37-1.65.37-1.51.38-1.36.37-1.21.38-1.08.37-.93.37-.81.38-.68.37-.56.38-.43.37-.31.37-.19.38-.05.37.08.38.22.37.38.37.54.38.72.37.92.38 1.13.37 1.36.37 1.6.38 1.86.37 2.13.37 2.42.38 2.71.37 2.99.38 3.28.37 3.54.37 3.8.38 4.02.37 4.22.38 4.36.37 4.47.37 4.53.38 4.52.37 4.48.38 4.36.37 4.2.37 4 .38 3.75.37 3.46.37 3.16.38 2.82.37 2.49.38 2.15.37 1.82.37 1.5.38 1.21.37.93.38.69.37.47.37.28.38.12.37-.01.38-.12.37-.21.37-.28.38-.33.37-.38.38-.42.37-.44.37-.46.38-.49.37-.51.37-.55.38-.58.37-.64.38-.7.37-.78.37-.89.38-1.02.37-1.19.38-1.39.37-1.61.37-1.88.38-2.18.37-2.5.38-2.84.37-3.2.37-3.54.38-3.87.37-4.16.37-4.41.38-4.58.37-4.69.38-4.72.37-4.66.37-4.53.38-4.32.37-4.07.38-3.76.37-3.44.37-3.09.38-2.76.37-2.43.38-2.12.37-1.83.37-1.58.38-1.34.37-1.13.38-.95.37-.78.37-.64.38-.52.37-.42.37-.34.38-.27.37-.22.38-.17.37-.15.37-.13.38-.13.37-.16.38-.19.37-.23.37-.27.38-.29.37-.28.38-.23.37-.15.37-.05.38.04.37.07.37.05.38.03.37.04.38.12.37.22.37.19.38-.25.37-1.38.38-3.45.37-5.48"/><use xlink:href="#d" color="#3B75EA" transform="matrix(3.75 0 0 3.75 113.62 167.44)"/><use xlink:href="#d" color="#3B75EA" transform="matrix(3.75 0 0 3.75 220.55 45.01)"/></g><text fill="#000" stroke="none" stroke-linecap="round" stroke-linejoin="round" color="#000" font-family="KaTeX_Main" font-size="8" transform="translate(241.1 62.61)"><tspan>AVLWeakTopDown</tspan></text><g fill="none" stroke="currentColor" stroke-linecap="round" stroke-linejoin="round" color="#000"><path stroke="#00C853" stroke-dasharray="4.5,2.0,0.5,2.0,0.5,2.0" d="M205.6 60.01h29.9M28 86.65l.37.23.38.34.37.46.38.61.37.78.37.97.38 1.19.37 1.43.38 1.7.37 1.97.37 2.26.38 2.56.37 2.86.37 3.15.38 3.44.37 3.69.38 3.93.37 4.11.37 4.27.38 4.38.37 4.43.38 4.45.37 4.4.37 4.32.38 4.19.37 4.02.38 3.82.37 3.59.37 3.34.38 3.08.37 2.82.37 2.54.38 2.28.37 2.01.38 1.78.37 1.54.37 1.32.38 1.12.37.94.38.77.37.61.37.47.38.35.37.21.38.1.37-.02.37-.14.38-.27.37-.39.38-.52.37-.67.37-.82.38-.98.37-1.16.37-1.35.38-1.53.37-1.74.38-1.95.37-2.15.37-2.36.38-2.56.37-2.75.38-2.93.37-3.1.37-3.25.38-3.37.37-3.47.38-3.54.37-3.59.37-3.61.38-3.59.37-3.56.37-3.49.38-3.39.37-3.29.38-3.14.37-3 .37-2.83.38-2.66.37-2.47.38-2.28.37-2.1.37-1.91.38-1.72.37-1.55.38-1.38.37-1.21.37-1.06.38-.91.37-.77.38-.64.37-.52.37-.39.38-.29.37-.16.37-.06.38.06.37.17.38.29.37.41.37.54.38.67.37.82.38.96.37 1.11.37 1.27.38 1.44.37 1.6.38 1.78.37 1.94.37 2.11.38 2.28.37 2.44.37 2.58.38 2.72.37 2.85.38 2.96.37 3.06.37 3.13.38 3.19.37 3.22.38 3.24.37 3.23.37 3.21.38 3.16.37 3.09.38 3.01.37 2.9.37 2.79.38 2.66.37 2.51.38 2.37.37 2.2.37 2.04.38 1.88.37 1.7.37 1.52.38 1.36.37 1.18.38 1 .37.84.37.67.38.51.37.34.38.18.37.02.37-.14.38-.29.37-.46.38-.61.37-.77.37-.93.38-1.08.37-1.24.37-1.39.38-1.54.37-1.7.38-1.84.37-1.98.37-2.11.38-2.25.37-2.36.38-2.47.37-2.58.37-2.65.38-2.74.37-2.79.38-2.84.37-2.86.37-2.89.38-2.88.37-2.86.38-2.83.37-2.79.37-2.73.38-2.65.37-2.58.37-2.47.38-2.38.37-2.26.38-2.14.37-2.02.37-1.89.38-1.76.37-1.63.38-1.49.37-1.35.37-1.22.38-1.08.37-.95.38-.82.37-.68.37-.55.38-.41.37-.29.37-.15.38-.01.37.12.38.25.37.39.37.53.38.67.37.81.38.95.37 1.1.37 1.24.38 1.38.37 1.53.38 1.67.37 1.8.37 1.94.38 2.06.37 2.19.38 2.3.37 2.41.37 2.5.38 2.58.37 2.66.37 2.72.38 2.76.37 2.8.38 2.81.37 2.82.37 2.8.38 2.78.37 2.74.38 2.69.37 2.62.37 2.54.38 2.45.37 2.34.38 2.24.37 2.12.37 1.99.38 1.85.37 1.72.37 1.57.38 1.42.37 1.26.38 1.11.37.95.37.8.38.63.37.47.38.3.37.15.37-.02.38-.18.37-.35.38-.5.37-.66.37-.82.38-.97.37-1.12.38-1.28.37-1.42.37-1.56.38-1.69.37-1.82.37-1.95.38-2.06.37-2.17.38-2.26.37-2.35.37-2.43.38-2.5.37-2.55.38-2.59.37-2.62.37-2.65.38-2.65.37-2.64.38-2.62.37-2.6.37-2.55.38-2.5.37-2.44.37-2.37.38-2.29.37-2.19.38-2.11.37-1.99.37-1.89.38-1.77.37-1.66.38-1.53.37-1.4.37-1.28.38-1.14.37-1.01.38-.87.37-.74.37-.59.38-.46.37-.32.38-.17.37-.03.37.12.38.25.37.41.37.54.38.69.37.84.38.98.37 1.11.37 1.26.38 1.39.37 1.53.38 1.66.37 1.77.37 1.9.38 2.01.37 2.12.38 2.21.37 2.3.37 2.38.38 2.44.37 2.5.37 2.55.38 2.59.37 2.6.38 2.61.37 2.61.37 2.6.38 2.57.37 2.53.38 2.47.37 2.42.37 2.34.38 2.26.37 2.17.38 2.07.37 1.96.37 1.84.38 1.72.37 1.59.38 1.46.37 1.32.37 1.18.38 1.04.37.89.37.74.38.59.37.44.38.29.37.14.37-.02.38-.16.37-.32.38-.47.37-.62.37-.76.38-.91.37-1.04.38-1.19.37-1.32.37-1.45.38-1.58.37-1.69.37-1.81.38-1.91.37-2.02.38-2.1.37-2.19.37-2.26.38-2.33.37-2.38.38-2.43.37-2.46.37-2.48.38-2.5.37-2.49.38-2.49.37-2.47.37-2.44.38-2.39.37-2.35.38-2.29.37-2.21.37-2.15.38-2.06.37-1.96.37-1.87.38-1.77.37-1.66.38-1.54.37-1.43.37-1.3.38-1.18.37-1.05.38-.92.37-.78.37-.65.38-.51.37-.37.38-.23.37-.08.37.06.38.2.37.35.37.49.38.64.37.78.38.93.37 1.07.37 1.21.38 1.35.37 1.48.38 1.61.37 1.73.37 1.86.38 1.97.37 2.07.38 2.17.37 2.25.37 2.34.38 2.41.37 2.46.38 2.51.37 2.54.37 2.57.38 2.58.37 2.58.37 2.56.38 2.54.37 2.49.38 2.45.37 2.39.37 2.32.38 2.23.37 2.14.38 2.04.37 1.93.37 1.81.38 1.69.37 1.56.38 1.43.37 1.28.37 1.15.38.99.37.85.37.69.38.54.37.39.38.23.37.08.37-.07.38-.23.37-.39.38-.53.37-.68.37-.83.38-.98.37-1.11.38-1.26.37-1.38.37-1.52.38-1.64.37-1.75.38-1.87.37-1.97.37-2.07.38-2.16.37-2.23.37-2.31.38-2.36.37-2.42.38-2.46.37-2.49.37-2.51.38-2.51.37-2.51.38-2.5.37-2.48.37-2.44.38-2.39.37-2.34.38-2.27.37-2.2.37-2.12.38-2.03.37-1.94.37-1.83.38-1.72.37-1.61.38-1.48.37-1.37.37-1.23.38-1.11.37-.97.38-.83.37-.7.37-.55.38-.41.37-.27.38-.12.37.03.37.17.38.32.37.47.37.62.38.77.37.91.38 1.06.37 1.2.37 1.34.38 1.47.37 1.61.38 1.74.37 1.87.37 1.98.38 2.09.37 2.19.38 2.29.37 2.37.37 2.45.38 2.51.37 2.57.38 2.6.37 2.63.37 2.65.38 2.65.37 2.65.37 2.62.38 2.58.37 2.54.38 2.49.37 2.41.37 2.33.38 2.25.37 2.14.38 2.04.37 1.92.37 1.79.38 1.67.37 1.54.38 1.39.37 1.25.37 1.11.38.96.37.8.37.65.38.5.37.34.38.19.37.03.37-.12.38-.28.37-.44.38-.58.37-.74.37-.89.38-1.04.37-1.18.38-1.33.37-1.46.37-1.6.38-1.73.37-1.85.38-1.97.37-2.08.37-2.18.38-2.28.37-2.37.37-2.44.38-2.5.37-2.56.38-2.61.37-2.63.37-2.65.38-2.66.37-2.66.38-2.63.37-2.61.37-2.57.38-2.51.37-2.45.38-2.38.37-2.29.37-2.21.38-2.1.37-2 .37-1.89.38-1.77.37-1.64.38-1.52.37-1.39.37-1.26.38-1.12.37-.98.38-.85.37-.71.37-.56.38-.42.37-.28.38-.14.37.01.37.16.38.3.37.45.38.6.37.75.37.89.38 1.04.37 1.2.37 1.33.38 1.49.37 1.62.38 1.77.37 1.9.37 2.03.38 2.15.37 2.27.38 2.38.37 2.48.37 2.57.38 2.64.37 2.71.38 2.77.37 2.8.37 2.82.38 2.84.37 2.84.37 2.81.38 2.78.37 2.74.38 2.68.37 2.6.37 2.52.38 2.42.37 2.32.38 2.2.37 2.07.37 1.94.38 1.81.37 1.66.38 1.52.37 1.36.37 1.22.38 1.05.37.9.38.75.37.58.37.43.38.27.37.11.37-.05.38-.21.37-.37.38-.53.37-.69.37-.85.38-1 .37-1.16.38-1.33.37-1.47.37-1.63.38-1.78.37-1.92.38-2.07.37-2.19.37-2.32.38-2.44.37-2.55.37-2.64.38-2.73.37-2.8.38-2.85.37-2.9.37-2.92.38-2.93.37-2.93.38-2.91.37-2.88.37-2.82.38-2.76.37-2.69.38-2.59.37-2.5.37-2.39.38-2.27.37-2.14.38-2.02.37-1.88.37-1.74.38-1.61.37-1.46.37-1.32.38-1.18.37-1.04.38-.9.37-.76.37-.62.38-.48.37-.34.38-.2.37-.07.37.09.38.22.37.37.38.53.37.67.37.83.38 1 .37 1.15.37 1.33.38 1.49.37 1.66.38 1.83.37 2 .37 2.17.38 2.33.37 2.48.38 2.63.37 2.77.37 2.9.38 3 .37 3.11.38 3.18.37 3.24.37 3.28.38 3.3.37 3.3.38 3.28.37 3.24.37 3.17.38 3.1.37 2.99.37 2.88.38 2.75.37 2.6.38 2.46.37 2.29.37 2.13.38 1.96.37 1.78.38 1.62.37 1.44.37 1.27.38 1.11.37.95.38.79.37.63.37.49.38.33.37.19.37.04.38-.1.37-.24.38-.4.37-.55.37-.71.38-.87.37-1.04.38-1.22.37-1.39.37-1.58.38-1.77.37-1.96.38-2.15.37-2.34.37-2.52.38-2.7.37-2.87.38-3.03.37-3.17.37-3.29.38-3.39.37-3.47.37-3.53.38-3.56.37-3.56.38-3.54.37-3.49.37-3.42.38-3.32.37-3.21.38-3.07.37-2.93.37-2.75.38-2.59.37-2.4.38-2.22.37-2.03.37-1.84.38-1.67.37-1.48.37-1.32.38-1.15.37-.99.38-.85.37-.71.37-.57.38-.45.37-.32.38-.21.37-.09.37.02.38.14.37.26.38.38.37.51.37.65.38.81.37.96.38 1.14.37 1.33.37 1.54.38 1.75.37 1.98.37 2.22.38 2.46.37 2.72.38 2.96.37 3.21.37 3.44.38 3.65.37 3.85.38 4.01.37 4.14.37 4.23.38 4.27.37 4.27.38 4.22.37 4.14.37 3.99.38 3.81.37 3.61.37 3.35.38 3.09.37 2.8.38 2.52.37 2.22.37 1.93.38 1.67.37 1.4.38 1.18.37.96.37.78.38.63.37.49.38.39.37.3.37.23.38.17.37.11.38.07.37.02.37-.03.38-.09.37-.16.37-.25.38-.36.37-.48.38-.63.37-.81.37-1.03.38-1.27.37-1.56.38-1.88.37-2.24.37-2.64.38-3.06.37-3.52.38-3.96.37-4.41.37-4.81.38-5.18.37-5.47.37-5.66.38-5.74.37-5.72.38-5.56.37-5.3.37-4.93.38-4.49.37-3.99.38-3.47.37-2.96.37-2.46.38-2.02.37-1.63.38-1.3.37-1.04.37-.83.38-.67.37-.53.38-.43.37-.33.37-.24.38-.16.37-.08.37.02.38.09.37.16.38.21.37.25.37.25.38.24.37.21.38.17.37.15.37.14.38.16.37.22.38.31.37.4.37.44.38.42.37.28.37.04.38-.23.37-.41.38-.33.37.02.37.45.38.45.37-.08.38.13.37 3.61"/><use xlink:href="#i" color="#00C853" transform="matrix(3.75 0 0 3.75 171.2 113.35)"/><use xlink:href="#i" color="#00C853" transform="matrix(3.75 0 0 3.75 220.55 60.01)"/></g><path fill="none" stroke="none" stroke-linecap="round" stroke-linejoin="round" stroke-width="0" d="M28 75.01V205M371.99 75.01H28" color="#000"/><text fill="#000" stroke="none" stroke-linecap="round" stroke-linejoin="round" stroke-width="0" color="#000" font-family="KaTeX_Main" font-size="10" text-anchor="middle" transform="translate(199.99 18.26)"><tspan font-weight="bold">InsertDeleteCycles</tspan><tspan> — </tspan><tspan font-style="italic">Uniform</tspan></text></svg>