<svg xmlns="http://www.w3.org/2000/svg" xmlns:xlink="http://www.w3.org/1999/xlink" viewBox="0 0 400 250"><path fill="none" d="M0 0h400v250H0z"/><defs><path id="c" stroke="currentColor" stroke-width=".267" d="M-1-1h2v2h-2z"/><path id="b" stroke="currentColor" stroke-width=".267" d="m0-1.33-1.33 2h2.66z"/><use xlink:href="#a" id="d" fill="currentColor" stroke="none"/><use xlink:href="#b" id="e" fill="currentColor" stroke="none"/><circle id="a" cx="0" cy="0" r="1" stroke="currentColor" stroke-width=".267"/></defs><path fill="none" stroke="#333" stroke-linecap="round" stroke-linejoin="round" stroke-width=".1" d="M46.1 205V45.01" class="gridline" color="#000"/><g fill="none" stroke-linecap="round" stroke-linejoin="round" stroke-width="0" color="#000"><path d="M46.1 205v-7.5m0-152.49v7.5"/><text fill="#000" font-family="KaTeX_Main" font-size="10" text-anchor="middle" transform="translate(46.1 215.75)"><tspan> 1</tspan></text></g><path fill="none" stroke="#333" stroke-linecap="round" stroke-linejoin="round" stroke-width=".1" d="M82.31 205V45.01" class="gridline" color="#000"/><g fill="none" stroke-linecap="round" stroke-linejoin="round" stroke-width="0" color="#000"><path d="M82.31 205v-7.5m0-152.49v7.5"/><text fill="#000" font-family="KaTeX_Main" font-size="10" text-anchor="middle" transform="translate(82.31 215.75)"><tspan> 2</tspan></text></g><path fill="none" stroke="#333" stroke-linecap="round" stroke-linejoin="round" stroke-width=".1" d="M118.52 205V45.01" class="gridline" color="#000"/><g fill="none" stroke-linecap="round" stroke-linejoin="round" stroke-width="0" color="#000"><path d="M118.52 205v-7.5m0-152.49v7.5"/><text fill="#000" font-family="KaTeX_Main" font-size="10" text-anchor="middle" transform="translate(118.52 215.75)"><tspan> 3</tspan></text></g><path fill="none" stroke="#333" stroke-linecap="round" stroke-linejoin="round" stroke-width=".1" d="M154.73 205V45.01" class="gridline" color="#000"/><g fill="none" stroke-linecap="round" stroke-linejoin="round" stroke-width="0" color="#000"><path d="M154.73 205v-7.5m0-152.49v7.5"/><text fill="#000" font-family="KaTeX_Main" font-size="10" text-anchor="middle" transform="translate(154.73 215.75)"><tspan> 4</tspan></text></g><path fill="none" stroke="#333" stroke-linecap="round" stroke-linejoin="round" stroke-width=".1" d="M190.94 205V45.01" class="gridline" color="#000"/><g fill="none" stroke-linecap="round" stroke-linejoin="round" stroke-width="0" color="#000"><path d="M190.94 205v-7.5m0-152.49v7.5"/><text fill="#000" font-family="KaTeX_Main" font-size="10" text-anchor="middle" transform="translate(190.94 215.75)"><tspan> 5</tspan></text></g><path fill="none" stroke="#333" stroke-linecap="round" stroke-linejoin="round" stroke-width=".1" d="M227.15 205V45.01" class="gridline" color="#000"/><g fill="none" stroke-linecap="round" stroke-linejoin="round" stroke-width="0" color="#000"><path d="M227.15 205v-7.5m0-152.49v7.5"/><text fill="#000" font-family="KaTeX_Main" font-size="10" text-anchor="middle" transform="translate(227.15 215.75)"><tspan> 6</tspan></text></g><path fill="none" stroke="#333" stroke-linecap="round" stroke-linejoin="round" stroke-width=".1" d="M263.36 205V45.01" class="gridline" color="#000"/><g fill="none" stroke-linecap="round" stroke-linejoin="round" stroke-width="0" color="#000"><path d="M263.36 205v-7.5m0-152.49v7.5"/><text fill="#000" font-family="KaTeX_Main" font-size="10" text-anchor="middle" transform="translate(263.36 215.75)"><tspan> 7</tspan></text></g><path fill="none" stroke="#333" stroke-linecap="round" stroke-linejoin="round" stroke-width=".1" d="M299.57 205V45.01" class="gridline" color="#000"/><g fill="none" stroke-linecap="round" stroke-linejoin="round" stroke-width="0" color="#000"><path d="M299.57 205v-7.5m0-152.49v7.5"/><text fill="#000" font-family="KaTeX_Main" font-size="10" text-anchor="middle" transform="translate(299.57 215.75)"><tspan> 8</tspan></text></g><path fill="none" stroke="#333" stroke-linecap="round" stroke-linejoin="round" stroke-width=".1" d="M335.78 205V45.01" class="gridline" color="#000"/><g fill="none" stroke-linecap="round" stroke-linejoin="round" stroke-width="0" color="#000"><path d="M335.78 205v-7.5m0-152.49v7.5"/><text fill="#000" font-family="KaTeX_Main" font-size="10" text-anchor="middle" transform="translate(335.78 215.75)"><tspan> 9</tspan></text></g><path fill="none" stroke="#333" stroke-linecap="round" stroke-linejoin="round" stroke-width=".1" d="M371.99 205V45.01" class="gridline" color="#000"/><g fill="none" stroke-linecap="round" stroke-linejoin="round" stroke-width="0" color="#000"><path d="M371.99 205v-7.5m0-152.49v7.5"/><text fill="#000" font-family="KaTeX_Main" font-size="10" text-anchor="middle" transform="translate(371.99 215.75)"><tspan> 10</tspan></text></g><g fill="none" stroke-linecap="round" stroke-linejoin="round" stroke-width="0" color="#000"><path d="M371.99 205h-7.5"/><text fill="#000" font-family="KaTeX_Main" font-size="10" transform="translate(378.99 208.25)"><tspan>1.10</tspan></text></g><g fill="none" stroke-linecap="round" stroke-linejoin="round" stroke-width="0" color="#000"><path d="M371.99 185h-7.5"/><text fill="#000" font-family="KaTeX_Main" font-size="10" transform="translate(378.99 188.25)"><tspan>1.15</tspan></text></g><g fill="none" stroke-linecap="round" stroke-linejoin="round" stroke-width="0" color="#000"><path d="M371.99 165h-7.5"/><text fill="#000" font-family="KaTeX_Main" font-size="10" transform="translate(378.99 168.25)"><tspan>1.20</tspan></text></g><g fill="none" stroke-linecap="round" stroke-linejoin="round" stroke-width="0" color="#000"><path d="M371.99 145h-7.5"/><text fill="#000" font-family="KaTeX_Main" font-size="10" transform="translate(378.99 148.25)"><tspan>1.25</tspan></text></g><g fill="none" stroke-linecap="round" stroke-linejoin="round" stroke-width="0" color="#000"><path d="M371.99 125h-7.5"/><text fill="#000" font-family="KaTeX_Main" font-size="10" transform="translate(378.99 128.25)"><tspan>1.30</tspan></text></g><g fill="none" stroke-linecap="round" stroke-linejoin="round" stroke-width="0" color="#000"><path d="M371.99 105.01h-7.5"/><text fill="#000" font-family="KaTeX_Main" font-size="10" transform="translate(378.99 108.26)"><tspan>1.35</tspan></text></g><g fill="none" stroke-linecap="round" stroke-linejoin="round" stroke-width="0" color="#000"><path d="M371.99 85.01h-7.5"/><text fill="#000" font-family="KaTeX_Main" font-size="10" transform="translate(378.99 88.26)"><tspan>1.40</tspan></text></g><g fill="none" stroke-linecap="round" stroke-linejoin="round" stroke-width="0" color="#000"><path d="M371.99 65.01h-7.5"/><text fill="#000" font-family="KaTeX_Main" font-size="10" transform="translate(378.99 68.26)"><tspan>1.45</tspan></text></g><g fill="none" stroke-linecap="round" stroke-linejoin="round" stroke-width="0" color="#000"><path d="M371.99 45.01h-7.5"/><text fill="#000" font-family="KaTeX_Main" font-size="10" transform="translate(378.99 48.26)"><tspan>1.50</tspan></text></g><path fill="none" d="M28 45.01V205M371.99 45.01H28" color="#000"/><text stroke-linecap="round" stroke-linejoin="round" stroke-width="0" color="#000" font-family="KaTeX_Main" font-size="10" text-anchor="middle" transform="rotate(-90 68.255 56.755)"><tspan font-weight="bold">Maximum Path Length </tspan><tspan> / log</tspan><tspan dy="3" font-size="8">2</tspan><tspan dy="-3">(Size)</tspan></text><text stroke-linecap="round" stroke-linejoin="round" stroke-width="0" color="#000" font-family="KaTeX_Main" font-size="10" text-anchor="middle" transform="translate(199.99 238.25)"><tspan>Operations × 10</tspan><tspan dy="-5" font-size="8">5</tspan></text><text stroke-linecap="round" stroke-linejoin="round" color="#000" font-family="KaTeX_Main" font-size="8" transform="translate(132.8 10.11)"><tspan>LBSTBottomUp</tspan></text><g fill="none" stroke="currentColor" stroke-linecap="round" stroke-linejoin="round" color="#000"><path stroke="#3B75EA" d="M97.3 7.51h29.9M28 183.75l.36-9.39.36.84.37.83.36-4.29.36 5.87.36 5.85.36.74.37.73.36-4.33.36.71.36-4.34.37.7.36.67.36-4.35.36 5.67.36-9.36.37 5.64.36.62.36-4.36.36 5.58.36-4.37.37.59.36.58.36.57.36-4.38.36-4.38.37-4.37.36 5.48.36.54.36-4.38.36.53.37.52.36.51.36.51.36 5.38.37.49.36 5.36.36 5.34.36.46.36-9.27.37.46.36 5.3.36.44.36-4.41.36.43.37.43.36.43.36.41.36 5.23.36.41.37-.41.36-.4.36-.42.36-.42.37-.42.36-.43.36-.43.36-.44.36-.45.37-.45.36-.46.36-.46.36-.47.36-.48.37-.48.36-.49.36-.5.36-.5.36-.51.37-.52.36-.53.36-.53.36-.54.37-.55.36 4.38.36-.56.36-.57.36-.58.37-.59.36-.6.36-.61.36-.62.36-.63.37-.65.36-.65.36-.66.36 4.33.36-.68.37-.7.36-.71.36-.72.36-.74.36-.76.37-.77.36-.79.36-.8.36-.82.37-.84.36 4.26.36 9.37.36 5.97.36-4.28.37-4.28.36.8.36.78.36.78.36-4.31.37-4.31.36 5.78.36 5.76.36-4.34.36.7.37.67.36.67.36-9.36.36.65.37 5.64.36.62.36-4.36.36.61.36-4.37.37.6.36.59.36.57.36-4.37.36-4.37.37 5.49.36-4.38.36 10.38.36.53.36.52.37.51.36.5.36-4.39.36.49.36 5.37.37.48.36-4.4.36.47.36.46.37.46.36-4.41.36.45.36 10.13.36-4.41.37.43.36 5.25.36-4.41.36.41.36.41.37-.41.36 4.42.36-.42.36 4.42.36-.42.37-.43.36-.43.36-.43.36-.44.37-.45.36-.45.36-.46.36-.47.36-.47.37-.47.36-.49.36-.49.36-.5.36-.5.37-.52.36-.52.36-.53.36-.53.36 4.39.37-.55.36-.56.36-.56.36-.58.36 4.38.37-.58.36-.6.36-.6.36-.62.37-.63.36-.64.36-.65.36-.67.36-.67.37-.7.36-.7.36-.72.36 4.33.36-.74.37-.75.36-.78.36-.78.36 4.29.36-.81.37 4.28.36-.84.36.84.36.82.37.81.36.79.36.77.36-4.32.36.74.37.73.36-4.33.36.71.36 5.73.36-4.35.37.67.36-4.35.36.65.36-9.36.36 5.64.37.62.36-4.36.36.61.36-4.37.37-4.36.36.59.36 5.53.36.57.36.56.37.55.36 5.46.36.53.36-4.39.36.52.37 5.41.36-4.4.36.5.36.49.36.48.37 5.35.36.47.36.46.36.45.36.45.37-4.41.36.44.36-4.41.36.43.37 5.26.36 5.25.36-4.41.36.4.36-4.41.37 4.41.36 4.42.36-.41.36-.41.36-.42.37-.43.36-.43.36-.43.36-.44.36-.45.37-.45.36-.46.36-.47.36-.47.37-.47.36-.49.36-.49.36-.5.36-.5.37-.52.36-.52.36-.53.36-.53.36-.55.37-.55.36-.56.36-.57.36-.58.36 4.37.37-.59.36-.61.36-.61.36-.62.36-.64.37-.65.36-.66.36-.67.36-.68.37-.7.36-.71.36-.72.36-.74.36 4.31.37-.77.36-.78.36 4.3.36-.8.36 4.28.37-.84.36-.85.36.85.36 5.94.36.81.37.79.36.77.36.75.36.73.37-4.33.36.72.36-4.34.36-4.34.36.7.37-4.35.36.67.36 10.67.36.63.36-4.36.37-4.37.36 5.59.36.6.36-4.38.36.58.37.58.36.56.36.56.36-4.39.36 5.47.37.54.36-4.4.36.52.36-4.39.37-4.39.36-9.28.36 10.29.36 5.38.36-9.28.37.49.36.48.36 5.34.36-9.26.36 5.32.37 5.3.36-4.4.36.45.36 10.11.36-4.41.37.43.36 5.24.36.4.36.41.37-.41.36-.4.36-.42.36-.42.36-.42.37-.43.36-.43.36-.44.36-.45.36-.45.37-.46.36-.46.36-.47.36-.48.36-.48.37-.49.36-.5.36-.5.36-.51.37-.52.36-.53.36-.53.36-.54.36-.55.37-.56.36-.57.36 4.38.36 4.37.36-.58.37-.59.36-.61.36-.61.36-.62.36-.64.37-.65.36-.66.36-.67.36-.68.36-.7.37-.71.36-.72.36-.74.36-.76.37-.77.36-.79.36-.8.36 9.38.36-.83.37-.84.36-.86.36 5.97.36.84.36-4.28.37.8.36.78.36.78.36.75.36.74.37.72.36.71.36.7.36.68.37-4.35.36.67.36-4.36.36-4.35.36.65.37.63.36 5.59.36.61.36-4.37.36.59.37-4.37.36-4.37.36.57.36-4.37.36.56.37 5.48.36.54.36.53.36.52.36.52.37.51.36.5.36.49.36 5.37.37-4.4.36.48.36 5.33.36-4.4.36 5.31.37 5.3.36-9.26.36-4.4.36 5.27.36.43.37.43.36-9.24.36.42.36-4.4.36 9.22.37-.41.36 4.41.36-.43.36-.43.37-.43.36-.44.36-.45.36-.44.36-.46.37-.46.36-.47.36-.48.36-.48.36-.49.37-.49.36-.5.36-.51.36 4.39.36-.52.37-.53.36-.53.36-.54.36-.55.37-.56.36-.57.36-.57.36-.59.36-.6.37-.6.36-.62.36-.63.36-.63.36 4.34.37-.65.36-.66.36-.68.36 4.33.36-.7.37 4.33.36-.72.36-.73.36-.74.36-.77.37-.78.36 4.3.36-.8.36-.83.37-.84.36 4.26.36.85.36.84.36.81.37.8.36-4.31.36.78.36 5.81.36-4.32.37.72.36-9.37.36.71.36.7.36.68.37.67.36.66.36.65.36-4.35.37 5.61.36.61.36-9.33.36.6.36.6.37 5.54.36-4.38.36 5.51.36.55.36-9.31.37.55.36.54.36.53.36.52.36 5.42.37.5.36-4.39.36-4.39.36 5.37.36-4.39.37.48.36 5.34.36-4.4.36-4.4.37.46.36.46.36 5.29.36.43.36.44.37 5.26.36.41.36.41.36.41.36-.41.37-.41.36-.41.36-.43.36-.43.36-.43.37 4.41.36-.44.36-.45.36-.45.37-.46.36-.46.36-.47.36-.48.36-.48.37-.49.36-.5.36-.5.36-.51.36-.52.37-.53.36-.53.36-.54.36-.55.36-.56.37-.57.36-.57.36-.59.36-.6.36-.6.37-.62.36-.63.36 4.36.36-.65.37-.65.36-.66.36-.68.36 4.33.36-.7.37 9.37.36-.71.36-.72.36-.74.36-.75.37 4.3.36-.77.36-.8.36-.81.36-.84.37-.85.36.85.36.84.36.81.37.8.36.77.36-4.3.36.75.36-4.32.37.73.36-4.32.36-4.32.36.7.36.7.37.68.36 5.66.36-4.35.36.65.36 5.61.37.61.36.61.36.59.36-4.37.37.58.36.57.36.56.36 5.49.36-9.32.37.54.36.53.36.53.36-4.39.36.52.37 10.3.36-4.4.36 5.38.36.47.36-4.4.37-4.4.36 5.33.36-9.26.36 5.32.36.44.37.45.36-4.4.36.43.36.44.37 5.26.36.41.36.41.36.41.36-.41.37-.41.36-.41.36-.43.36-.43.36-.43.37-.44.36-.45.36-.44.36-.46.36-.46.37-.47.36-.48.36-.48.36-.49.37-.49.36-.5.36-.51.36-.52.36-.52.37-.53.36-.54.36-.55.36-.56.36 4.38.37-.57.36-.57.36-.59.36-.6.36 9.34.37-.61.36-.61.36-.62.36-.64.36-.65.37-.66.36 4.35.36-.67.36-.7.37 4.34.36-.71.36-.72.36-.74.36-.75.37-.78.36-.78.36 9.39.36-.81.36-.82.37-.84.36.84.36-4.28.36.81.36-4.29.37.78.36.78.36.75.36.74.37.72.36-4.33.36-4.33.36.7.36-4.33.37 10.7.36.65.36.64.36-4.36.36.62.37.61.36.61.36-4.37.36-4.37.36 10.49.37-9.33.36 10.45.36.55.36.53.36-9.31.37 5.45.36 5.44.36-4.4.36-9.3.37.51.36.5.36-4.39.36.49.36 5.36.37 5.35.36.46.36.46.36-9.26.36.45.37.45.36 10.13.36.43.36-9.24.36 5.26.37.41.36-4.41.36.42.36-.42.37 4.41.36-.41.36-.43.36 4.41.36-.43.37-.43.36-.44.36-.45.36-.45.36-.46.37-.46.36-.47.36-.48.36-.48.36-.49.37-.5.36-.5.36-.51.36-.52.37-.53.36-.53.36-.54.36-.55.36-.56.37-.57.36-.57.36 4.37.36-.59.36-.6.37-.61.36-.62.36-.63.36-.65.36 4.35.37 4.36.36-.67.36-.67.36-.7.36-.7.37-.72.36-.73.36-.74.36 9.38.37-.77.36-.77.36-.8.36-.81.36-.84.37-.85.36-4.26.36.84.36.83.36.8.37.78.36 5.85.36-4.32.36.74.36-9.37.37.72.36.71.36 5.73.36.67.37-4.35.36.66.36-4.35.36.65.36 5.61.37.61.36-4.36.36.6.36.59.36.58.37.57.36.56.36-4.38.36-4.38.36.55.37.54.36 5.44.36 5.43.36.5.36-4.4.37.5.36.49.36-4.4.36.48.37.48.36.47.36.46.36.46.36-4.41.37 5.3.36.44.36 5.27.36.42.36-4.4.37 5.24.36.4.36-4.41.36 4.41.36-.4.37 4.41.36-.41.36-.42.36-.43.37-.43.36-.43.36-.44.36 4.41.36-.45.37-.45.36-.46.36-.47.36-.47.36-.48.37-.48.36-.5.36-.5.36-.5.36-.52.37-.52.36-.54.36-.53.36-.55.36-.56.37-.56.36-.58.36-.58.36-.59.37-.61.36-.61.36-.62.36-.64.36-.65.37-.66.36-.67.36-.68.36 4.33.36-.7.37-.72.36-.73.36 4.32.36-.75.36-.78.37-.78.36-.8.36-.83.36-.84.37-.86.36.86.36.84.36.83.36.8.37.78.36.78.36.75.36-4.32.36.73.37.72.36-9.36.36 10.76.36.67.36.67.37.65.36.64.36.63.36-4.37.37.61.36.61.36.59.36.58.36.58.37.56.36.56.36.55.36-4.39.36-4.39.37 10.37.36-4.4.36.52.36-4.4.36.5.37 5.39.36.49.36-4.41.36.48.36.47.37-9.27.36 5.33.36 10.17.36-4.41.37.44.36-4.41.36-4.41.36-4.4.36 5.26.37.43.36-4.41.36.42"/><use xlink:href="#a" color="#3B75EA" transform="matrix(3.75 0 0 3.75 354.25 174.36)"/><use xlink:href="#a" color="#3B75EA" transform="matrix(3.75 0 0 3.75 112.25 7.51)"/></g><text stroke-linecap="round" stroke-linejoin="round" color="#000" font-family="KaTeX_Main" font-size="8" transform="translate(132.8 25.11)"><tspan>LBSTTopDown</tspan></text><g fill="none" stroke="currentColor" stroke-linecap="round" stroke-linejoin="round" color="#000"><path stroke="#F44336" stroke-dasharray="4.5,2.0,0.5,2.0,0.5,2.0" d="M97.3 22.51h29.9M28 60.75l.36 1.07.36 11.26.37-4.1.36-14.27.36 6.07.36-4.11.36-4.12.37 6 .36 11.01.36.88.36-4.18.37-9.19.36.85.36 5.84.36 5.82.36-14.19.37.79.36-4.2.36.78.36 5.73.36 5.71.37.73.36-9.19.36.72.36-4.24.36.7.37 5.61.36.68.36-9.18.36.67.36 5.56.37-4.27.36.64.36 5.52.36 5.49.37.6.36.59.36 15.19.36.56.36-14.03.37.56.36-4.3.36 5.4.36-4.3.36 5.37.37.53.36-4.31.36.52.36-4.32.36 5.33.37 28.42.36-.49.36-.49.36-.5.37-.5.36-.51.36-.51.36-.53.36-.52.37-.54.36-.54.36-.56.36-.55.36-.57.37-.57.36-.58.36-.59.36-.6.36-.61.37-.61.36-.63.36-.63.36-.64.37-.66.36 4.28.36-.67.36-.68.36-.69.37-.7.36-.72.36-.72.36-.74.36 4.24.37-.76.36-.77.36-.78.36-.8.36-.82.37-.83.36-.84.36-.87.36 4.18.36-.89.37-.92.36-.92.36 4.14.36-.97.37-.98.36-1.01.36 9.22.36-14.33.36-9.2.37 1.01.36.99.36-4.11.36-4.12.36-4.12.37-4.13.36 5.97.36 5.94.36-4.17.36.86.37-9.19.36.85.36 5.83.36 5.8.37 5.77.36-9.2.36.76.36.75.36.74.37 5.69.36-14.15.36 5.66.36-4.24.36.69.37 5.61.36-4.25.36 15.41.36-19.01.36 5.55.37.63.36.63.36.61.36-4.27.36.6.37.59.36.59.36.58.36.57.37-4.29.36-4.29.36.56.36 5.4.36 5.37.37.53.36-4.3.36.52.36-4.3.36 5.32.37 28.42.36 4.33.36-.49.36 4.34.36-.5.37-.51.36-.51.36-.52.36-.52.37-.53.36-5.4.36 4.31.36-.55.36-.56.37-.57.36-.57.36-.59.36-.59.36-.6.37 4.3.36-.61.36-.63.36-.63.36 4.29.37-.65.36-.65.36-.67.36-.68.36-.68.37-.7.36-.72.36-.72.36-.74.37-.75.36-.76.36-.78.36-.8.36-.8.37-.82.36-.84.36 4.19.36 4.19.36-.88.37-.89.36-.91.36-.94.36 4.15.36-.97.37 4.13.36-1 .36-19.46.36-4.09.37 6.1.36-4.12.36.96.36-4.14.36.93.37.91.36-4.16.36 5.92.36-4.18.36.84.37-4.18.36.82.36-4.2.36.8.36 10.76.37-9.21.36-4.22.36.75.36.74.37-4.23.36-4.23.36 15.55.36-4.25.36-9.19.37 5.61.36.67.36-4.26.36.65.36 5.55.37-4.28.36.63.36.61.36.61.36-4.28.37 10.34.36.58.36 5.44.36-4.3.36.55.37 5.4.36-4.31.36.53.36-4.31.37.53.36.52.36-4.31.36 5.33.36-4.32.37 23.6.36-.49.36-.5.36-.5.36-.5.37-.52.36-.52.36-.53.36-.53.36-.54.37-.55.36-.56.36-.56.36-.57.37-.58.36-.58.36-.6.36-.6.36-.62.37-.62.36-.62.36-.64.36 4.28.36-.66.37-.66.36-.68.36-.68.36-.7.36 4.26.37-.72.36 4.26.36-.74.36-.74.36-.76.37-.77.36-.78.36-.8.36-.82.37-.83.36 4.2.36-.86.36 4.18.36-.88.37-.9.36-.92.36-.94.36-.97.36-.98.37-1.01.36-1.03.36 1.03.36-4.1.36-4.1.37 6.07.36.95.36-4.15.36-9.21.37 5.98.36-4.16.36-4.16.36-4.17.36.86.37.85.36.82.36.82.36.8.36-9.2.37.79.36 5.74.36 5.72.36.73.36-14.15.37.73.36-4.23.36 5.65.36.69.36.68.37-4.25.36-9.16.36 5.58.36-4.26.37.65.36 5.54.36 20.19.36-4.3.36-9.16.37 10.34.36-4.29.36.58.36 5.43.36-4.31.37.55.36-9.14.36 5.39.36.53.36-4.3.37 10.19.36 5.33.36.51.36-9.14.37 23.6.36-.49.36-.5.36-.5.36 4.33.37-.51.36-.51.36-.53.36-.52.36-.54.37-.54.36-.56.36-.55.36-.57.36-.57.37-.58.36-.59.36-.6.36-.61.37 4.3.36-.62.36-.63.36 4.29.36-.64.37-.65.36-.66.36 4.27.36-.68.36-.68.37-.7.36-.72.36-.72.36-.74.36-.75.37-.76.36-.78.36 4.22.36-.8.36 9.25.37-.82.36-.83.36-.85.36-.86.37-.89.36-.91.36-.92.36-.94.36 4.14.37-.98.36 4.12.36-9.23.36-19.44.36 1 .37.98.36-9.2.36.95.36.93.36.92.37 5.94.36-4.16.36.86.36.84.37-4.18.36.82.36-4.2.36.8.36-4.21.37-4.2.36 20.67.36-4.24.36-4.24.36.73.37.71.36-4.26.36-9.18.36 10.56.36-4.26.37-4.25.36 5.57.36.65.36.64.36-4.28.37-4.26.36.62.36.61.36.6.37.59.36.59.36-4.28.36 5.43.36 10.28.37.55.36 5.38.36-9.15.36.53.36-4.31.37 5.36.36.51.36-4.32.36.51.36 18.78.37-.49.36-.5.36-.51.36-.51.37-.52.36-.53.36-.53.36-.54.36-.54.37-.56.36-.56.36-.56.36-.58.36-.58.37-.6.36-.6.36-.6.36-.62.36-.63.37-.63.36 4.28.36-.65.36-.66.37 4.27.36-.68.36-.68.36-.7.36-.7.37 4.24.36-.72.36-.74.36-.75.36 4.23.37 4.24.36-.78.36-.8.36 4.22.36-.81.37-.83.36-.85.36-.87.36-.88.36-.9.37-.92.36 4.14.36-.95.36-.97.37-1 .36-1.02.36-4.1.36-4.1.36-4.1.37-4.11.36.97.36-4.13.36 6 .36-9.21.37.91.36 10.97.36-4.18.36 5.87.36-14.23.37.82.36.82.36 5.79.36 5.77.37-9.21.36.76.36-9.2.36.75.36.73.37 15.58.36-9.21.36-4.24.36 5.62.36-4.26.37.67.36.65.36 5.56.36.63.36.63.37.61.36-9.18.36 5.49.36.6.36 10.34.37-4.31.36-4.3.36 5.43.36-4.31.37-9.16.36 5.4.36.54.36.53.36-4.31.37.53.36-4.31.36 5.33.36.51.36 13.96.37-.5.36-.51.36-.5.36-.52.36-.52.37-.54.36-.53.36-.55.36-.54.37-.56.36-.57.36-.57.36-.58.36-.59.37-.59.36-.61.36-.61.36-.63.36-.63.37 4.28.36-.65.36 4.28.36-.66.36-.67.37-.68.36-.69.36-.71.36-.71.36-.73.37-.73.36 4.23.36-.76.36-.77.37-.79.36-.79.36 4.2.36-.82.36 4.19.37-.84.36-.87.36-.88.36 4.17.36-.92.37-.92.36-.95.36-.97.36-1 .36 4.1.37-6.15.36 1.04.36 1.01.36-4.1.37-9.2.36.98.36 6.02.36-9.2.36 5.98.37-9.2.36.9.36 10.94.36.84.36 5.85.37-4.2.36.79.36-4.21.36 5.77.36 5.74.37-4.24.36-4.24.36-14.16.36 5.69.37-4.24.36.71.36 5.64.36.68.36-4.26.37-4.25.36 10.49.36-4.27.36.64.36.63.37 5.51.36.61.36-4.3.36 5.48.36-4.3.37-4.29.36 5.44.36-4.3.36.56.36 5.41.37-9.16.36.55.36-4.3.36 10.2.37 5.35.36-9.14.36 5.33.36-4.32.36 13.96.37-.5.36-.51.36-.5.36-.52.36-.52.37-.54.36-.53.36-.55.36-.54.36-.56.37-.57.36-.57.36-.58.36-.59.37-.59.36-.61.36-.61.36-.63.36 4.28.37-.63.36-.65.36 4.28.36-.66.36 4.27.37-.68.36-.68.36-.7.36-.7.36-.72.37-.74.36-.74.36-.76.36-.77.36-.79.37 4.22.36-.81.36 4.2.36-.83.37 4.2.36-.86.36-.87.36-.89.36-.92.37-.92.36-.95.36-.97.36-1 .36-1.01.37-1.04.36 1.04.36-9.2.36-4.09.36-4.09.37 6.07.36-4.12.36.94.36 5.98.37-4.15.36.89.36-9.2.36.87.36 10.89.37-4.2.36-4.18.36.8.36 10.77.36-4.22.37-4.22.36-4.22.36-9.18.36 5.7.36.73.37 5.66.36 10.58.36-9.2.36.68.36 5.59.37-4.27.36-4.26.36.64.36.63.37 10.42.36-4.29.36.6.36.6.36-4.29.37.58.36 10.31.36.56.36.54.36.55.37-14.01.36.55.36-4.3.36 5.36.36.53.37.52.36.5.36-4.31.36 28.42.37-.49.36-.5.36-.5.36-.5.36-.52.37-.52.36-.53.36-.53.36-.54.36-.55.37-.56.36-.56.36-.57.36-.58.36-.58.37-.6.36-.6.36 4.29.36-.61.37-.63.36 4.29.36-.64.36-.64.36 4.28.37-.66.36-.68.36-.68.36-.7.36-.7.37-.72.36 4.25.36-.74.36-.75.36-.76.37 4.23.36-.79.36-.8.36-.81.36-.83.37-.85.36-.87.36-.88.36-.9.37-.92.36-.94.36-.97.36-.98.36 4.11.37-1.02.36-9.21.36-4.09.36-4.1.36 6.08.37.96.36-4.14.36 5.99.36-4.15.36-4.16.37.88.36-4.18.36 5.88.36.83.37.82.36.79.36.79.36-9.21.36-9.19.37.77.36-4.21.36 5.71.36.73.36 5.67.37.7.36-4.24.36-4.25.36-4.24.36.67.37 5.59.36 5.56.36.64.36-9.18.36 5.53.37-4.27.36 5.49.36-4.28.36-4.28.37.59.36-4.28.36 10.3.36-4.29.36.57.37.55.36.55.36 5.37.36-4.3.36 5.36.37.52.36-9.13.36.51.36 28.41.36 4.33.37-.5.36-.5.36-.5.36-.52.37-.52.36-.53.36-.53.36-.54.36-.55.37-.56.36-.56.36-.57.36-.58.36-.58.37-.6.36-.6.36-.62.36-.62.36-.62.37-.64.36-.65.36-.66.36-.67.36-.68.37-.69.36-.71.36-.71.36-.73.37-.73.36-.75.36-.77.36-.78.36 4.21.37 4.22.36-.81.36-.82.36-.84.36-.85.37-.88.36-.88.36-.91.36-.93.36 4.14.37-.96.36-.98.36-1 .36-1.03.37-1.05.36 1.05.36-4.08.36 1.01.36 6.08.37-4.12.36-4.13.36.93.36 5.98.36-4.16.37.88.36.86.36 5.87.36-4.2.36-4.19.37 10.81.36-4.22.36-9.21.36-4.21.37.76.36-4.22.36 5.71.36.73.36-4.24.37.71.36.7.36.68.36.68.36-4.25.37 5.57.36.65.36.64.36-4.28.36 5.52.37-9.16.36-4.28.36 5.49.36 5.47.36.58.37 5.44.36-9.16.36-4.29.36-4.29.37 5.41.36 5.39.36 10.21.36-4.31.36-4.31.37.52.36-9.13.36.51"/><use xlink:href="#d" color="#F44336" transform="matrix(3.75 0 0 3.75 67.83 65.4)"/><use xlink:href="#d" color="#F44336" transform="matrix(3.75 0 0 3.75 112.25 22.51)"/></g><text stroke-linecap="round" stroke-linejoin="round" color="#000" font-family="KaTeX_Main" font-size="8" transform="translate(241.1 10.11)"><tspan>WBSTBottomUp</tspan></text><g fill="none" stroke="currentColor" stroke-linecap="round" stroke-linejoin="round" color="#000"><path stroke="#000" d="M205.6 7.51h29.9M28 101.75l.36 1 .36.96.37-9.24.36.94.36-14.31.36 11.07.36 11.02.37.86.36-14.3.36 5.88.36-9.23.37 25.94.36-9.26.36 5.78.36-39.28.36 25.77.37-4.24.36 15.69.36-4.27.36-14.21.36 10.63.37.68.36-14.18.36 30.35.36-29 .36 5.59.37-4.29.36 10.49.36-19.05.36 10.45.36-19.02.37 25.13.36-14.1.36 10.38.36.57.37-28.71.36 15.22.36-9.18.36 5.44.36-4.3.37 24.83.36-9.18.36 10.22.36-9.17.36.52.37 5.33.36-9.15.36 10.14.36 10.13.36 5.29.37 13.99.36-.46.36 4.36.36-.46.37-.47.36-.48.36-.49.36-.49.36-.5.37-.5.36 4.36.36-.52.36-.52.36-.52.37-.53.36-.54.36-.55.36-.56.36-.56.37-.57.36-.58.36-.59.36-.6.37-.61.36 4.32.36-.62.36-.63.36-.64.37-.65.36-.66.36-.68.36-.68.36-.7.37-.71.36-.72.36-.74.36-.75.36-.76.37-.78.36-.8.36-.8.36-.83.36-.85.37-.86.36-.88.36 9.28.36-.9.37-.92.36-.94.36-.96.36.96.36-9.27.37 6.04.36.91.36-19.44.36 16.12.36-14.32.37 5.92.36 10.94.36-14.32.36 15.92.36.78.37-24.33.36.79.36-4.23.36 30.74.37-19.25.36-14.23.36 20.64.36-9.25.36-9.23.37 20.53.36-14.2.36 20.45.36-4.31.36-4.3.37 5.55.36 15.38.36-33.83.36.61.36-9.21.37 25.11.36-4.32.36-9.21.36-9.2.36 24.97.37-18.96.36-4.32.36-4.31.36 10.27.37-18.9.36 10.25.36-4.32.36 10.21.36-9.16.37.51.36-9.15.36 34.28.36-9.17.36-9.16.37 13.98.36-.48.36-.48.36-.49.36-.49.37-.5.36-.51.36-.51.36-.52.37 4.33.36-.53.36-.54.36-.54.36 4.33.37 4.33.36-.55.36-.57.36-.57.36-.58.37-.59.36-.6.36 4.32.36 4.32.36-.61.37-.63.36 4.32.36-.64.36-.65.36-.65.37-.67.36-.68.36-.7.36-.7.37-.72.36-.73.36-.74.36-.76.36-.77.37-.79.36-.8.36-.81.36 4.22.36-.85.37-.86.36-.88.36-.89.36-.92.36-.94.37-.96.36-.98.36-4.13.36 11.18.37-14.36.36 16.2.36-19.44.36 26.27.36-14.35.37 5.91.36-14.32.36 31.07.36-19.36.36 5.82.37-14.29.36 20.81.36-9.28.36-4.26.36.72.37 5.69.36-4.28.36.69.36-24.15.37 5.65.36 10.58.36.66.36-14.17.36 10.51.37-24 .36 10.49.36-9.2.36-4.29.36 25.16.37-14.11.36 5.49.36-4.3.36 10.35.36-4.32.37-9.19.36-4.31.36 5.43.36.55.36-4.32.37 5.39.36-18.86.36 15.07.36.52.37 5.34.36 10.16.36-13.98.36 19.77.36-4.35.37 9.17.36 4.35.36-.47.36-.48.36 4.35.37-.49.36-.49.36-.5.36 9.2.36-.5.37-.51.36-.51.36-.53.36-.53.37-.54.36-.54.36-.55.36-.57.36-.57.37-.57.36-.59.36-.6.36-.6.36-.61.37-.63.36-.63.36-.64.36-.65.36-.67.37-.67.36 4.29.36-.7.36-.7.36-.72.37-.73.36-.74.36-.76.36 4.26.37-.78.36 4.24.36-.8.36-.82.36-.83.37-.85.36-.87.36-.89.36-.91.36-.93.37-.96.36-.97.36.97.36.96.36-19.46.37 6.03.36 5.99.36-4.18.36.88.37 16.02.36-9.27.36-4.23.36.81.36 5.82.37 25.86.36-39.36.36-4.24.36 20.74.36-29.22.37 25.66.36-29.16.36 15.63.36-9.23.36 20.53.37.66.36 5.59.36-38.88.36 15.47.36-9.21.37 15.41.36-4.3.36 20.26.36-14.14.37.59.36-4.31.36 20.14.36-38.53.36 10.34.37.57.36 10.29.36-9.18.36 19.98.36-28.62.37 10.24.36.53.36 5.35.36-4.33.36-4.33.37 10.16.36 5.31.36-18.8.36 29.38.37 9.18.36-.46.36-.46.36-.48.36-.47.37-.49.36 9.21.36-.49.36-.49.36-.5.37-.5.36-.52.36-.52.36 4.36.36 4.36.37-.53.36-.54.36-.55.36-.55.37-.56.36-.57.36-.58.36-.58.36-.6.37-.61.36-.61.36-.63.36-.63.36-.65.37-.65.36-.67.36-.68.36-.69.36-.7.37-.72.36-.73.36-.74.36-.76.36-.77.37-.79.36 4.25.36-.81.36-.83.37-.84.36-.86.36-.89.36-.9.36-.92.37-.94.36 4.16.36-19.5.36 16.28.36-14.37.37 6.02.36-9.27.36-4.17.36-9.24.36-14.28.37 10.98.36 10.93.36-4.2.36-9.24.37 15.87.36-4.23.36-4.23.36-9.23.36-4.23.37 15.71.36-14.21.36-4.24.36 10.66.36 20.53.37-33.99.36 10.58.36 15.49.36-9.21.36.64.37-19.05.36 15.4.36 5.54.36-4.3.36 10.41.37-14.1.36 10.38.36.57.36-14.07.37 29.83.36-4.34.36-23.79.36 10.28.36.54.37 5.37.36-9.17.36-4.32.36 15.03.36 10.16.37.49.36-9.17.36-28.44.36 24.58.36 9.16.37-.48.36-.48.36-.49.36-.49.37 4.34.36-.5.36-.51.36-.52.36-.52.37-.53.36-.54.36 4.34.36-.55.36-.55.37-.56.36 4.32.36-.57.36-.58.36-.59.37-.6.36-.6.36-.62.36-.62.37-.64.36-.64.36-.66.36-.66.36 4.29.37-.69.36-.69.36-.7.36-.72.36-.73.37-.74.36-.76.36-5.79.36 4.23.36 4.23.37-.81.36-.82.36-.84.36-.86.36-.88.37-.9.36-.91.36-.93.36 4.14.37-.96.36 4.13.36-4.13.36.96.36-4.14.37 21.28.36-19.44.36.9.36-14.31.36 16.05.37-9.26.36-24.35.36 5.89.36 36.01.36-29.33.37 25.85.36-14.26.36 5.75.36.74.37-14.23.36 5.71.36 15.62.36-19.17.36.7.37-4.27.36-4.27.36-4.26.36 5.6.36-4.27.37 30.18.36-19.06.36 5.53.36-19.02.36 30.02.37-14.11.36 5.48.36.57.36 29.84.36-33.6.37 10.29.36-28.65.36 29.72.36.52.37-33.44.36-9.16.36 15.08.36 15.03.36.5.37-4.33.36-18.8.36 24.61.36-18.79.36 23.61.37-.48.36-.49.36-.49.36 4.34.36-.5.37-.51.36-.51.36-.52.36-.53.37-.53.36-.55.36-.55.36-.55.36-.56.37-.57.36-.58.36-.59.36-.6.36 4.31.37-.61.36-.61.36-.63.36-.64.36-.65.37 4.3.36-.67.36-.67.36-.68.36-.7.37-.7.36-.72.36-.73.36-.75.37 4.25.36-.76.36 4.24.36-.79.36-.8.37-.82.36-.83.36-.85.36-.86.36 4.18.37-.9.36-.91.36-.93.36-.96.36 4.14.37-1 .36 1 .36 6.07.36-4.16.37-9.25.36-4.15.36.91.36.89.36.88.37.85.36-9.23.36 25.99.36-4.23.36-19.3.37.8.36 5.78.36.75.36-9.23.36 5.73.37 10.68.36 10.64.36-14.22.36-9.23.37 10.58.36-4.28.36-4.28.36-4.28.36.64.37 10.49.36-9.22.36.62.36 5.51.36 10.4.37-28.8.36 20.17.36-38.51.36 25 .36-4.3.37.56.36.56.36.56.36-9.17.36 15.1.37-28.55.36 44.13.36-23.69.36-9.15.37 15.01.36-4.33.36-13.97.36 14.96.36 18.79.37 4.34.36-.48.36 9.18.36-.49.36-.49.37 4.35.36-.5.36-.51.36-.51.36 4.35.37-.52.36-.53.36-.54.36-.54.37-.55.36-.56.36-.57.36-.57.36-.58.37-.6.36-.6.36-.61.36-.62.36-.63.37-.63.36-.65.36-.66.36-.67.36-.69.37-.69.36-.7.36-.72.36-.73.36 4.26.37 4.26.36-.76.36-.77.36-.79.37-.8.36-.81.36-.84.36-.85.36-.87.37-.89.36-.9.36-.93.36 4.16.36-.96.37-.98.36-14.36.36 11.19.36-4.14.36.93.37-4.17.36-19.38.36.92.36 21.12.37-14.29.36 5.9.36-9.24.36 10.88.36-14.25.37 20.85.36-14.25.36 5.77.36-4.24.36 15.69.37-19.19.36 20.61.36-9.24.36-4.27.36-14.17.37 25.42.36-19.11.36 30.26.36-28.94.36 5.56.37-9.2.36.62.36-4.28.36 5.52.37-18.98.36.61.36 15.27.36-9.18.36 5.46.37-23.78.36 10.32.36 5.43.36.56.36 10.26.37 15.08.36 10.2.36 5.34.36-18.85.36 5.33.37.49.36-18.79.36.49.36 18.79.37-.49.36 4.34.36-.49.36-.5.36 9.18.37-.5.36-.51.36-.52.36-.52.36-.53.37-.54.36-.54.36-.55.36 4.33.36-.56.37-.57.36-.58.36-.59.36 4.32.37-.6.36-.6.36-.62.36-.62.36-.64.37 4.31.36-.65.36-.66.36-.67.36-.69.37 4.29.36-.7.36-.71.36-.72.36-.74.37-.75.36-.77.36-.77.36-.8.36-.81.37-.82.36-.84.36-.86.36-.88.37-.9.36-.91.36 4.16.36 4.16.36-.96.37-.98.36 6.09.36.96.36 6.02.36-14.36.37.9.36-4.18.36.88.36.86.36 10.94.37-14.32.36 5.85.36.8.36-9.26.37-4.23.36 5.77.36-4.25.36-4.24.36.74.37 15.65.36-24.16.36.72.36 20.53.36-29.04.37 15.53.36-14.16.36 10.54.36.64.36 10.49.37-9.22.36 10.44.36-19.03.36 5.52.36-14.09.37 25.06.36-18.97.36 10.34.36-23.81.37 15.19.36 15.16.36-14.04.36-9.17.36 10.25.37 15.07.36-4.33.36-14 .36 10.18.36-13.98.37 10.16.36-13.97.36 29.39.36 18.81.36 4.36.37 4.36.36-.46.36 4.36.36-.47.37-.48.36-.49.36-.49.36-.5.36-.5.37-.52.36-.52.36-.52.36-.53.36-.54.37-.55.36-.56.36-.56.36-.57.36-.58.37-.59.36-.6.36-.61.36-.62.36-.62.37-.64.36-.65.36-.65.36-.67.37-.68.36-.7.36-.7.36-.72.36-.73.37-.74.36-.76.36-.77.36-.79.36-.8.37-.81.36-.84.36-.85.36-.87.36-.89.37 4.19.36-.92.36-.94.36-.96.37 9.27.36-4.16.36-14.36.36.96.36 21.28.37-9.28.36-4.19.36-14.32.36 26.15.36-4.22.37.8.36-4.24.36 10.84.36-34.37.36 5.81.37-4.23.36.76.36 10.73.36 5.71.37-9.25.36-9.23.36 25.52.36-19.17.36-19.12.37 10.58.36 5.61.36-9.22.36 15.44.36 5.55.37-4.31.36-19.04.36.62.36 5.52.36 15.28.37-14.09.36-9.19.36 10.34.36.57.36 10.29.37-23.78.36.56.36 19.97.36-9.18.37 10.22.36-4.33.36-4.32.36-9.16.36-4.32.37 5.33.36 10.14.36-4.33"/><use xlink:href="#b" transform="matrix(3.75 0 0 3.75 125.4 120.03)"/><use xlink:href="#b" transform="matrix(3.75 0 0 3.75 220.55 7.51)"/></g><text stroke-linecap="round" stroke-linejoin="round" color="#000" font-family="KaTeX_Main" font-size="8" transform="translate(241.1 25.11)"><tspan>WBSTTopDown</tspan></text><g fill="none" stroke="currentColor" stroke-linecap="round" stroke-linejoin="round" color="#000"><path stroke="#29C3F6" stroke-dasharray="4.0,2.0,1.0,2.0" d="M205.6 22.51h29.9M28 96.63l.36 6.12.36.96.37-9.24.36-4.15.36-9.22.36 11.07.36 5.96.37 5.92.36-14.3.36 5.88.36-9.23.37 20.92.36-9.26.36 5.79.36-39.27.36 30.77.37-4.24.36 15.69.36-4.27.36-14.21.36 10.63.37.68.36-14.18.36 30.35.36-29 .36 10.52.37-4.29.36 10.48.36-19.06.36 10.45.36-23.93.37 25.13.36-14.1.36 10.38.36.57.37-28.71.36 15.22.36-9.18.36 5.44.36-9.17.37 24.85.36-9.18.36 10.23.36-9.17.36.52.37 5.34.36-9.16.36 10.16.36 10.13.36 5.29.37 13.99.36-.46.36 4.36.36 4.36.37-.47.36-.48.36-.49.36-.49.36-.5.37-.5.36 4.36.36-.52.36-.52.36-.52.37-.53.36-.54.36-.55.36-.56.36-.56.37-.57.36-.58.36-.59.36-.6.37-.61.36 4.32.36-.62.36-.63.36-.64.37-.65.36-.66.36-.68.36-.68.36-.7.37-.71.36-.72.36-.74.36-.75.36-.76.37-.78.36-.8.36-.8.36-.83.36-.85.37-.86.36-.88.36 9.28.36-.9.37-.92.36-.94.36-.96.36.96.36-9.27.37 6.04.36.91.36-19.44.36 16.12.36-14.32.37 5.92.36 5.89.36-14.31.36 20.96.36.78.37-34.36.36 5.81.36.78.36 30.74.37-19.25.36-14.23.36 20.64.36-9.25.36-9.23.37 20.53.36-14.2.36 20.45.36-4.31.36-4.3.37 10.48.36 15.37.36-38.75.36.61.36-9.21.37 25.11.36-4.32.36-9.21.36-9.2.36 24.97.37-18.96.36-4.32.36-4.31.36 10.27.37-18.9.36 10.25.36-4.32.36 10.21.36-9.16.37.51.36-9.15.36 34.28.36-9.17.36-9.16.37 9.16.36-.48.36 4.34.36-.49.36-.49.37-.5.36-.51.36-.51.36-.52.37 4.33.36-.53.36-.54.36-.54.36 4.33.37 4.33.36-.55.36-.57.36-.57.36-.58.37-.59.36-.6.36 4.32.36-.61.36-.62.37-.63.36 4.31.36-.64.36-.65.36-.67.37-.67.36-.69.36-.7.36-.71.37-.72.36-.74.36-.75.36-.77.36-.77.37-.8.36-.81.36-.82.36 4.21.36-.85.37-.87.36-.89.36-.9.36-.93.36-.95.37-.96.36-1 .36-4.12.36 11.19.37-14.35.36 16.21.36-14.35.36 26.27.36-14.35.37.85.36-9.26.36 31.07.36-24.39.36 5.82.37-9.26.36 20.81.36-14.28.36-4.26.36.73.37 10.68.36-4.28.36.69.36-24.15.37 5.65.36 10.58.36.66.36-14.17.36 10.51.37-24 .36 10.49.36-9.2.36-4.29.36 25.16.37-19.01.36 5.5.36-4.3.36 10.35.36-4.31.37-4.31.36-4.31.36 5.43.36.55.36-4.32.37 5.39.36-18.86.36 10.23.36.52.37 5.35.36 10.16.36-13.98.36 19.78.36-4.34.37 9.16.36 4.35.36-.48.36-.49.36 4.35.37-.49.36-.5.36-.5.36 9.2.36-.51.37-.51.36-.52.36-.53.36-.54.37-.54.36-.55.36-.56.36-.57.36-.57.37-.58.36-.6.36-.6.36-.61.36 4.32.37-.63.36-.63.36-.64.36-.65.36-.67.37-.67.36 4.29.36-.7.36-.7.36-.72.37-.73.36-.74.36-.76.36 4.26.37-.78.36 4.24.36-.8.36-.82.36-.83.37-.85.36-.87.36-.89.36-.91.36-.93.37-.96.36-.97.36.97.36.96.36-19.46.37 6.03.36 5.99.36-4.18.36.88.37 16.02.36-9.27.36-4.23.36.81.36 5.82.37 25.86.36-39.36.36-4.24.36 20.74.36-29.22.37 25.66.36-29.16.36 15.63.36-9.23.36 20.53.37.66.36 5.59.36-38.88.36 15.47.36-9.21.37 15.41.36-4.3.36 20.26.36-14.14.37.59.36-4.31.36 20.14.36-38.53.36 10.34.37.57.36 10.29.36-9.18.36 19.98.36-28.62.37 10.24.36.53.36 5.35.36-4.33.36-4.33.37 10.16.36.49.36-18.8.36 29.39.37 9.17.36-.46.36-.47.36-.48.36-.48.37-.49.36 4.36.36-.5.36-.5.36-.51.37-.51.36-.52.36-.53.36-.54.36 4.34.37-.54.36-.55.36-.57.36-.57.37-.57.36 4.33.36-.59.36-.6.36-.61.37-.62.36-.62.36-.64.36-.65.36-.65.37-.67.36-.68.36 4.29.36-.7.36-.71.37-.72.36-.74.36-.75.36-.76.36 4.25.37-.79.36 4.25.36-.81.36-.83.37-.84.36-.86.36-.89.36-.9.36-.92.37-.94.36-.96.36-14.38.36 16.28.36-14.37.37 6.02.36-9.27.36-4.17.36-9.24.36-14.28.37 10.98.36 10.93.36-4.2.36-9.24.37 20.89.36-4.24.36-9.24.36-9.23.36.76.37 15.7.36-14.21.36-4.24.36 5.68.36 20.53.37-33.99.36 10.58.36 15.49.36-9.21.36.64.37-14.13.36 15.4.36.62.36-4.3.36 15.31.37-14.1.36 5.48.36.57.36-14.07.37 29.83.36-4.34.36-23.79.36 10.28.36-4.32.37 5.38.36-4.32.36-4.32.36 10.19.36 10.17.37.49.36-13.99.36-23.62.36 24.59.36 9.16.37-.48.36-.49.36-.49.36-.5.37 4.34.36-.51.36-.51.36-.52.36-.53.37-.53.36-.55.36 4.33.36-.55.36-.56.37-.57.36 4.33.36-.58.36-.59.36-.59.37-.6.36-.61.36-.62.36-.64.37-.64.36-.64.36-.67.36-.67.36-.68.37-.7.36-.7.36-.72.36-.73.36-.75.37-.75.36-.77.36-5.81.36 4.22.36 4.22.37 4.21.36-.83.36-.85.36-.86.36-.89.37-.91.36-.92.36-.94.36 4.14.37-.98.36 4.12.36-4.12.36.98.36-4.14.37 16.21.36-19.42.36 16.12.36-24.44.36 16.05.37-14.29.36-4.18.36.84.36 25.96.36-19.3.37 15.83.36-19.26.36 10.76.36-4.24.37-9.23.36 5.72.36 15.63.36-19.17.36.7.37.69.36-9.21.36-4.26.36 15.48.36-19.07.37 44.96.36-28.9.36 10.45.36-14.12.36 20.22.37-14.1.36 20.15.36-14.1.36 29.85.36-33.59.37 15.16.36-18.92.36 19.99.36-4.33.37-18.89.36-14.01.36 10.23.36 24.71.36-4.34.37-18.83.36.51.36 14.96.36-13.97.36 13.97.37 4.34.36-.49.36-.49.36 4.34.36-.5.37-.51.36-.51.36-.52.36-.53.37-.53.36-.55.36-.55.36 4.33.36-.56.37-.57.36-.57.36-.58.36-.59.36 4.31.37-.6.36-.61.36-.62.36-.64.36-.64.37-.64.36-.67.36-.67.36-.68.36-.7.37-.7.36-.72.36-.73.36-.75.37-.75.36-.77.36 4.23.36-.79.36-.81.37-.83.36-.84.36 4.2.36-.86.36 4.18.37-.9.36-.91.36-.93.36-.96.36 4.14.37-1 .36 1 .36 6.07.36-4.16.37-9.25.36-4.15.36-4.16.36.9.36.88.37.87.36-9.23.36 26 .36.8.36-19.3.37.8.36 5.78.36.75.36-9.23.36 5.73.37 10.68.36 10.64.36-14.22.36-9.23.37 10.58.36-4.28.36-4.28.36-4.28.36.64.37 10.49.36-9.22.36.62.36 5.51.36 10.4.37-28.8.36 20.17.36-38.51.36 25 .36-4.3.37.56.36-9.17.36 10.29.36-9.17.36 10.25.37-28.55.36 44.13.36-23.68.36-4.31.37 15.01.36.5.36-13.97.36 14.95.36 18.79.37 4.35.36-.48.36 9.18.36-.48.36-.49.37 4.36.36-.5.36-.5.36-.51.36-.51.37-.52.36-.53.36-.54.36-.54.37-.55.36-.56.36-.57.36-.57.36-.58.37-.6.36-.6.36 4.32.36-.61.36-.63.37-.63.36-.64.36-.65.36-.67.36-.67.37-.69.36-.7.36-.71.36-.72.36 4.26.37 4.27.36-.75.36-.76.36-.78.37-.8.36-.8.36-.83.36-.85.36-.86.37-.88.36-.89.36-.92.36 4.17.36-.96.37-.97.36-14.37.36 11.19.36-4.16.36 6.02.37-4.19.36-19.39.36.9.36 21.1.37-19.35.36 5.88.36-9.23.36 10.87.36-19.28.37 20.85.36-14.25.36 5.77.36-4.24.36 15.69.37-19.19.36 20.61.36-9.24.36-4.27.36-14.17.37 25.42.36-19.11.36 30.26.36-28.94.36 5.56.37-9.2.36 5.54.36-9.2.36 5.52.37-18.98.36-4.27.36 20.15.36-9.18.36 5.46.37-23.78.36 10.32.36 5.43.36.56.36 15.11.37 10.23.36 10.2.36 5.34.36-18.85.36 5.33.37.49.36-18.79.36.49.36 18.79.37-.49.36 4.34.36-.49.36-.5.36 9.18.37-.5.36-.51.36-.52.36-.52.36-.53.37-.54.36-.54.36-.55.36 4.33.36-.56.37-.57.36-.58.36-.59.36-.59.37-.6.36-.61.36-.62.36-.64.36-.64.37 4.3.36-.66.36-.66.36-.68.36-.68.37 4.27.36-.7.36-.72.36-.73.36-.74.37-.76.36-.77.36-.79.36-.8.36-.82.37-.83.36-.85.36-.86.36-.89.37-.91.36 4.17.36 4.16.36 4.16.36-.96.37-.98.36 6.09.36.96.36 6.02.36-14.36.37.9.36-4.18.36.88.36.86.36 10.94.37-19.36.36 10.89.36.8.36-9.26.37-4.23.36 5.77.36-4.25.36-4.24.36.74.37 15.65.36-24.16.36.72.36 20.53.36-29.04.37 15.53.36-14.16.36 10.54.36.64.36 10.49.37-9.22.36 10.44.36-19.03.36 5.52.36-14.09.37 25.06.36-18.97.36 10.34.36-23.81.37 15.19.36 15.16.36-14.04.36-9.17.36 10.25.37 15.07.36-4.33.36-14 .36 10.18.36-13.98.37 10.16.36-13.97.36 29.39.36 18.81.36 4.36.37 4.36.36-.46.36 4.36.36-.47.37-.48.36-.49.36-.49.36-.5.36-.5.37-.52.36-.52.36-.52.36-.53.36-.54.37-.55.36-.56.36-.56.36-.57.36-.58.37-.59.36-.6.36-.61.36-.62.36-.62.37-.64.36-.65.36-.65.36-.67.37-.68.36-.7.36-.7.36-.72.36-.73.37-.74.36-.76.36-.77.36-.79.36-.8.37-.81.36-.84.36-.85.36-.87.36-.89.37 4.19.36-.92.36-.94.36-.96.37 9.27.36-4.16.36-14.36.36 6.05.36 16.19.37-9.28.36-4.19.36-14.32.36 31.21.36-19.38.37 20.98.36-9.28.36 15.85.36-49.43.36-4.21.37 10.8.36.76.36 15.72.36-19.22.37 15.67.36-4.28.36 15.59.36-9.25.36-19.14.37.68.36 20.42.36-19.09.36 5.57.36 5.56.37-19.05.36 5.54.36 5.52.36-9.2.36 20.18.37-14.09.36-9.19.36 15.22.36-14.06.36-14.05.37 15.17.36-4.3.36 24.83.36-18.89.37 10.23.36 5.35.36-9.16.36-14 .36.52.37 14.98.36.49.36-13.97"/><use xlink:href="#e" color="#29C3F6" transform="matrix(3.75 0 0 3.75 182.98 73.97)"/><use xlink:href="#e" color="#29C3F6" transform="matrix(3.75 0 0 3.75 220.55 22.51)"/></g><path fill="none" d="M28 45.01V205M371.99 45.01H28" color="#000"/></svg>