<svg xmlns="http://www.w3.org/2000/svg" xmlns:xlink="http://www.w3.org/1999/xlink" viewBox="0 0 400 200"><path fill="none" d="M0 0h400v200H0z"/><defs><path id="c" stroke="currentColor" stroke-width=".222" d="M-1-1h2v2h-2z"/><path id="b" stroke="currentColor" stroke-width=".222" d="m0-1.33-1.33 2h2.66z"/><use xlink:href="#a" id="d" fill="currentColor" stroke="none"/><use xlink:href="#b" id="e" fill="currentColor" stroke="none"/><circle id="a" cx="0" cy="0" r="1" stroke="currentColor" stroke-width=".222"/></defs><path fill="none" stroke="#000" stroke-dasharray="0.1,0.2" stroke-linecap="round" stroke-linejoin="round" stroke-width=".1" d="M63.06 146V90.01" class="gridline" color="#000"/><g fill="none" stroke-linecap="round" stroke-linejoin="round" stroke-width="0" color="#000"><path d="M63.06 146v-9m0-46.99v9"/><text fill="#000" font-family="KaTeX_Main" font-size="8" text-anchor="middle" transform="translate(63.06 148.6)"><tspan> 1</tspan></text></g><path fill="none" stroke="#000" stroke-dasharray="0.1,0.2" stroke-linecap="round" stroke-linejoin="round" stroke-width=".1" d="M95.83 146V90.01" class="gridline" color="#000"/><g fill="none" stroke-linecap="round" stroke-linejoin="round" stroke-width="0" color="#000"><path d="M95.83 146v-9m0-46.99v9"/><text fill="#000" font-family="KaTeX_Main" font-size="8" text-anchor="middle" transform="translate(95.83 148.6)"><tspan> 2</tspan></text></g><path fill="none" stroke="#000" stroke-dasharray="0.1,0.2" stroke-linecap="round" stroke-linejoin="round" stroke-width=".1" d="M128.61 146V90.01" class="gridline" color="#000"/><g fill="none" stroke-linecap="round" stroke-linejoin="round" stroke-width="0" color="#000"><path d="M128.61 146v-9m0-46.99v9"/><text fill="#000" font-family="KaTeX_Main" font-size="8" text-anchor="middle" transform="translate(128.61 148.6)"><tspan> 3</tspan></text></g><path fill="none" stroke="#000" stroke-dasharray="0.1,0.2" stroke-linecap="round" stroke-linejoin="round" stroke-width=".1" d="M161.39 146V90.01" class="gridline" color="#000"/><g fill="none" stroke-linecap="round" stroke-linejoin="round" stroke-width="0" color="#000"><path d="M161.39 146v-9m0-46.99v9"/><text fill="#000" font-family="KaTeX_Main" font-size="8" text-anchor="middle" transform="translate(161.39 148.6)"><tspan> 4</tspan></text></g><path fill="none" stroke="#000" stroke-dasharray="0.1,0.2" stroke-linecap="round" stroke-linejoin="round" stroke-width=".1" d="M194.16 146V90.01" class="gridline" color="#000"/><g fill="none" stroke-linecap="round" stroke-linejoin="round" stroke-width="0" color="#000"><path d="M194.16 146v-9m0-46.99v9"/><text fill="#000" font-family="KaTeX_Main" font-size="8" text-anchor="middle" transform="translate(194.16 148.6)"><tspan> 5</tspan></text></g><path fill="none" stroke="#000" stroke-dasharray="0.1,0.2" stroke-linecap="round" stroke-linejoin="round" stroke-width=".1" d="M226.94 146V90.01" class="gridline" color="#000"/><g fill="none" stroke-linecap="round" stroke-linejoin="round" stroke-width="0" color="#000"><path d="M226.94 146v-9m0-46.99v9"/><text fill="#000" font-family="KaTeX_Main" font-size="8" text-anchor="middle" transform="translate(226.94 148.6)"><tspan> 6</tspan></text></g><path fill="none" stroke="#000" stroke-dasharray="0.1,0.2" stroke-linecap="round" stroke-linejoin="round" stroke-width=".1" d="M259.71 146V90.01" class="gridline" color="#000"/><g fill="none" stroke-linecap="round" stroke-linejoin="round" stroke-width="0" color="#000"><path d="M259.71 146v-9m0-46.99v9"/><text fill="#000" font-family="KaTeX_Main" font-size="8" text-anchor="middle" transform="translate(259.71 148.6)"><tspan> 7</tspan></text></g><path fill="none" stroke="#000" stroke-dasharray="0.1,0.2" stroke-linecap="round" stroke-linejoin="round" stroke-width=".1" d="M292.49 146V90.01" class="gridline" color="#000"/><g fill="none" stroke-linecap="round" stroke-linejoin="round" stroke-width="0" color="#000"><path d="M292.49 146v-9m0-46.99v9"/><text fill="#000" font-family="KaTeX_Main" font-size="8" text-anchor="middle" transform="translate(292.49 148.6)"><tspan> 8</tspan></text></g><path fill="none" stroke="#000" stroke-dasharray="0.1,0.2" stroke-linecap="round" stroke-linejoin="round" stroke-width=".1" d="M325.26 146V90.01" class="gridline" color="#000"/><g fill="none" stroke-linecap="round" stroke-linejoin="round" stroke-width="0" color="#000"><path d="M325.26 146v-9m0-46.99v9"/><text fill="#000" font-family="KaTeX_Main" font-size="8" text-anchor="middle" transform="translate(325.26 148.6)"><tspan> 9</tspan></text></g><path fill="none" stroke="#000" stroke-dasharray="0.1,0.2" stroke-linecap="round" stroke-linejoin="round" stroke-width=".1" d="M358.04 146V90.01" class="gridline" color="#000"/><g fill="none" stroke-linecap="round" stroke-linejoin="round" stroke-width="0" color="#000"><path d="M358.04 146v-9m0-46.99v9"/><text fill="#000" font-family="KaTeX_Main" font-size="8" text-anchor="middle" transform="translate(358.04 148.6)"><tspan> 10</tspan></text></g><g fill="none" stroke-linecap="round" stroke-linejoin="round" stroke-width="0" color="#000"><path d="M358.04 146h-9"/><text fill="#000" font-family="KaTeX_Main" font-size="8" transform="translate(366.43 148.6)"><tspan>0.84</tspan></text></g><g fill="none" stroke-linecap="round" stroke-linejoin="round" stroke-width="0" color="#000"><path d="M358.04 139.78h-9"/><text fill="#000" font-family="KaTeX_Main" font-size="8" transform="translate(366.43 142.38)"><tspan>0.85</tspan></text></g><g fill="none" stroke-linecap="round" stroke-linejoin="round" stroke-width="0" color="#000"><path d="M358.04 133.56h-9"/><text fill="#000" font-family="KaTeX_Main" font-size="8" transform="translate(366.43 136.16)"><tspan>0.86</tspan></text></g><g fill="none" stroke-linecap="round" stroke-linejoin="round" stroke-width="0" color="#000"><path d="M358.04 127.34h-9"/><text fill="#000" font-family="KaTeX_Main" font-size="8" transform="translate(366.43 129.94)"><tspan>0.87</tspan></text></g><g fill="none" stroke-linecap="round" stroke-linejoin="round" stroke-width="0" color="#000"><path d="M358.04 121.12h-9"/><text fill="#000" font-family="KaTeX_Main" font-size="8" transform="translate(366.43 123.72)"><tspan>0.88</tspan></text></g><g fill="none" stroke-linecap="round" stroke-linejoin="round" stroke-width="0" color="#000"><path d="M358.04 114.89h-9"/><text fill="#000" font-family="KaTeX_Main" font-size="8" transform="translate(366.43 117.49)"><tspan>0.89</tspan></text></g><g fill="none" stroke-linecap="round" stroke-linejoin="round" stroke-width="0" color="#000"><path d="M358.04 108.67h-9"/><text fill="#000" font-family="KaTeX_Main" font-size="8" transform="translate(366.43 111.27)"><tspan>0.90</tspan></text></g><g fill="none" stroke-linecap="round" stroke-linejoin="round" stroke-width="0" color="#000"><path d="M358.04 102.45h-9"/><text fill="#000" font-family="KaTeX_Main" font-size="8" transform="translate(366.43 105.05)"><tspan>0.91</tspan></text></g><g fill="none" stroke-linecap="round" stroke-linejoin="round" stroke-width="0" color="#000"><path d="M358.04 96.23h-9"/><text fill="#000" font-family="KaTeX_Main" font-size="8" transform="translate(366.43 98.83)"><tspan>0.92</tspan></text></g><g fill="none" stroke-linecap="round" stroke-linejoin="round" stroke-width="0" color="#000"><path d="M358.04 90.01h-9"/><text fill="#000" font-family="KaTeX_Main" font-size="8" transform="translate(366.43 92.61)"><tspan>0.93</tspan></text></g><path fill="none" d="M33.56 90.01V146m324.48-55.99H33.56" color="#000"/><text stroke-linecap="round" stroke-linejoin="round" stroke-width="0" color="#000" font-family="KaTeX_Main" font-size="8" text-anchor="middle" transform="rotate(-90 65.24 52.77)"><tspan font-weight="bold">AveragePathLength </tspan><tspan> / log</tspan><tspan dy="2.4" font-size="6.4">2</tspan><tspan dy="-2.4">Size</tspan></text><text stroke-linecap="round" stroke-linejoin="round" stroke-width="0" color="#000" font-family="KaTeX_Main" font-size="8" text-anchor="middle" transform="translate(195.8 184.6)"><tspan>Operations × 10</tspan><tspan dy="-4" font-size="6.4">5</tspan></text><text stroke-linecap="round" stroke-linejoin="round" color="#000" font-family="Courier" font-size="12" transform="translate(95.12 35.16)"><tspan>LBSTBottomUp</tspan></text><g fill="none" stroke="currentColor" stroke-linecap="round" stroke-linejoin="round" color="#000"><path stroke="#3B75EA" d="M44.17 31.26h42.56M33.56 143.85l.33-1.6.33-1.41.32-1.25.33-1.13.33-1.03.33-.97.32-.89.33-.83.33-.75.33-.68.33-.6.32-.51.33-.42.33-.35.33-.28.32-.24.33-.19.33-.18.33-.17.33-.18.32-.2.33-.2.33-.23.33-.25.32-.26.33-.28.33-.28.33-.3.32-.3.33-.31.33-.32.33-.31.33-.32.32-.31.33-.3.33-.28.33-.28.32-.25.33-.23.33-.21.33-.19.33-.17.32-.15.33-.13.33-.11.33-.1.32-.09.33-.08.33-.08.33-.08.33-.08.32-.09.33-.09.33-.1.33-.1.32-.12.33-.13.33-.14.33-.14.33-.16.32-.16.33-.17.33-.18.33-.18.32-.18.33-.18.33-.18.33-.19.33-.18.32-.18.33-.18.33-.17.33-.18.32-.16.33-.17.33-.16.33-.15.33-.15.32-.15.33-.14.33-.14.33-.13.32-.13.33-.12.33-.12.33-.11.32-.11.33-.11.33-.1.33-.1.33-.09.32-.09.33-.08.33-.08.33-.07.32-.07.33-.06.33-.06.33-.05.33-.05.32-.05.33-.04.33-.04.33-.03.32-.04.33-.03.33-.03.33-.04.33-.03.32-.03.33-.04.33-.03.33-.04.32-.04.33-.04.33-.05.33-.05.33-.05.32-.06.33-.05.33-.07.33-.06.32-.07.33-.07.33-.07.33-.08.33-.08.32-.08.33-.09.33-.08.33-.09.32-.09.33-.09.33-.09.33-.1.33-.09.32-.1.33-.09.33-.1.33-.1.32-.1.33-.1.33-.11.33-.11.32-.1.33-.12.33-.11.33-.12.33-.12.32-.12.33-.12.33-.13.33-.13.32-.14.33-.13.33-.14.33-.14.33-.15.32-.14.33-.14.33-.14.33-.15.32-.14.33-.14.33-.14.33-.13.33-.13.32-.13.33-.11.33-.12.33-.11.32-.1.33-.09.33-.08.33-.07.33-.07.32-.05.33-.05.33-.03.33-.02.32-.01h.33l.33.01.33.02.33.03.32.04.33.04.33.06.33.07.32.07.33.08.33.08.33.09.32.08.33.1.33.09.33.09.33.09.32.08.33.09.33.08.33.07.32.07.33.06.33.05.33.05.33.04.32.03.33.03.33.02.33.01.32.01h.33l.33-.01.33-.01.33-.02.32-.02.33-.02.33-.03.33-.02.32-.03.33-.03.33-.04.33-.03.33-.03.32-.04.33-.03.33-.03.33-.04.32-.03.33-.03.33-.03.33-.04.33-.03.32-.03.33-.03.33-.04.33-.03.32-.03.33-.03.33-.04.33-.03.33-.04.32-.03.33-.04.33-.03.33-.04.32-.03.33-.04.33-.04.33-.04.32-.03.33-.04.33-.04.33-.04.33-.03.32-.04.33-.04.33-.03.33-.04.32-.03.33-.03.33-.03.33-.03.33-.03.32-.03.33-.03.33-.02.33-.02.32-.02.33-.02.33-.02.33-.01.33-.01.32-.01.33-.01.33-.01.33-.01h2.95l.32.01h1.32l.32-.01h.33l.33-.01h.33l.32-.01.33-.01.33-.02.33-.01.33-.02.32-.01.33-.02.33-.02.33-.02.32-.02.33-.03.33-.02.33-.03.32-.02.33-.03.33-.02.33-.03.33-.03.32-.02.33-.03.33-.02.33-.03.32-.02.33-.03.33-.02.33-.02.33-.03.32-.02.33-.02.33-.02.33-.03.32-.02.33-.02.33-.02.33-.03.33-.02.32-.02.33-.03.33-.02.33-.03.32-.02.33-.03.33-.03.33-.03.33-.03.32-.03.33-.03.33-.03.33-.04.32-.03.33-.04.33-.03.33-.04.33-.04.32-.04.33-.03.33-.04.33-.04.32-.04.33-.04.33-.05.33-.04.32-.04.33-.04.33-.04.33-.04.33-.04.32-.04.33-.04.33-.04.33-.04.32-.04.33-.03.33-.04.33-.04.33-.03.32-.04.33-.03.33-.04.33-.03.32-.03.33-.03.33-.03.33-.03.33-.02.32-.03.33-.02.33-.02.33-.02.32-.02.33-.01.33-.01.33-.02.33-.01h.32l.33-.01h1.31l.33.01h.33l.33.01.32.01.33.01.33.02.33.01.32.01.33.02.33.02.33.01.33.02.32.02.33.02.33.02.33.02.32.02.33.02.33.02.33.01.32.02.33.02.33.02.33.02.33.01.32.02.33.01.33.02.33.01.32.02.33.01.33.02.33.01.33.01.32.02.33.01.33.01.33.02.32.01.33.01.33.01.33.02.33.01.32.01.33.01.33.02.33.01.32.01.33.02.33.01.33.01.33.02.32.01.33.02.33.01.33.01.32.02.33.01.33.02.33.01.33.02.32.01.33.01.33.02.33.01.32.01.33.01.33.02.33.01.33.01.32.01.33.01.33.01.33.01.32.01.33.01h.33l.33.01.32.01h.33l.33.01h.33l.33.01h.32l.33.01h1.97l.33-.01h.65l.33-.01h.33l.32-.01.33-.01h.33l.33-.01.33-.01.32-.01.33-.01.33-.02.33-.01.32-.01.33-.02.33-.01.33-.02.33-.02.32-.01.33-.02.33-.02.33-.02.32-.01.33-.02.33-.02.33-.02.33-.02.32-.02.33-.02.33-.02.33-.02.32-.02.33-.02.33-.02.33-.01.32-.02.33-.02.33-.02.33-.02.33-.02.32-.01.33-.02.33-.02.33-.01.32-.02.33-.01.33-.02.33-.01.33-.01.32-.01.33-.01.33-.01.33-.01.32-.01.33-.01.33-.01h.33l.33-.01h.65l.33-.01h1.97l.32.01h.66l.33.01h.98l.33.01h.98l.33.01h.98l.33-.01h.66l.32-.01h.33l.33-.01h.33l.32-.01.33-.01.33-.01.33-.01.32-.01.33-.01.33-.02.33-.01.33-.01.32-.02.33-.02.33-.01.33-.02.32-.02.33-.02.33-.02.33-.02.33-.02.32-.02.33-.02.33-.02.33-.02.32-.03.33-.02.33-.02.33-.02.33-.02.32-.02.33-.02.33-.03.33-.02.32-.02.33-.02.33-.01.33-.02.33-.02.32-.02.33-.02.33-.01.33-.02.32-.01.33-.01.33-.02.33-.01.33-.01.32-.01.33-.01.33-.01.33-.01.32-.01h.33l.33-.01.33-.01h.33l.32-.01h.33l.33-.01h.33l.32-.01h.66l.33-.01h.98l.33-.01h.65l.33-.01h.66l.32-.01h.66l.33-.01h.33l.32-.01.33-.01h.33l.33-.01.32-.01.33-.01.33-.01.33-.01.33-.01.32-.01.33-.02.33-.01.33-.02.32-.01.33-.02.33-.02.33-.02.33-.01.32-.02.33-.02.33-.02.33-.02.32-.02.33-.02.33-.02.33-.02.33-.01.32-.02.33-.02.33-.01.33-.02.32-.01.33-.01.33-.01.33-.01.32-.01.33-.01.33-.01h.33l.33-.01h.32l.33-.01h.66l.32-.01h.99l.33-.01h.65l.33-.01h.33l.32-.01.33-.01.33-.01h.33l.33-.02.32-.01.33-.01.33-.02.33-.01.32-.02.33-.02.33-.02.33-.02.33-.02.32-.02.33-.02.33-.03.33-.02.32-.03.33-.03.33-.02.33-.03.33-.03.32-.03.33-.03.33-.02.33-.03.32-.03.33-.03.33-.03.33-.03.33-.03.32-.03.33-.03.33-.03.33-.03.32-.03.33-.03.33-.03.33-.02.32-.03.33-.03.33-.03.33-.03.33-.02.32-.03.33-.03.33-.02.33-.03.32-.02.33-.03.33-.03.33-.02.33-.03.32-.02.33-.02.33-.03.33-.02.32-.03.33-.02.33-.02.33-.03.33-.02.32-.02.33-.02.33-.03.33-.02.32-.02.33-.02.33-.03.33-.02.33-.02.32-.02.33-.02.33-.02.33-.02.32-.02.33-.01.33-.02.33-.02.33-.01.32-.01.33-.02.33-.01.33-.01.32-.01h.33l.33-.01.33-.01h.65l.33-.01h1.97l.32.01h1.64l.33-.01h.66l.32-.01h.33l.33-.01.33-.01.33-.01h.32l.33-.01.33-.01.33-.01.32-.02.33-.01.33-.01.33-.01.33-.01.32-.01.33-.01.33-.01.33-.01.32-.01h.33l.33-.01.33-.01h.65l.33-.01h1.97l.33.01h.65l.33.01h.65l.33.01h.33l.33.01.32.01.33.01.33.01.33.01.33.01.32.02.33.01.33.02.33.02.32.03.33.03.33.03.33.04.33.03.32.04.33.05.33.04.33.05.32.05.33.05.33.05.33.05.33.05.32.05.33.05.33.04.33.04.32.04.33.03.33.03.33.03.33.02.32.01.33.02h.33l.33.01h.65l.33-.01.33-.01.33-.01.32-.01.33-.01.33-.01.33-.02.32-.01.33-.02.33-.01.33-.02.33-.01.32-.02.33-.01.33-.02.33-.01.32-.01.33-.01.33-.01.33-.01.32-.01.33-.01h.33l.33-.01h.65l.33-.01h1.97l.33.01h.32l.33.01h.33l.33.01.32.01.33.02.33.01.33.01.33.02.32.02.33.01.33.02.33.02.32.01.33.02.33.01.33.01.33.01h.98l.33-.01.32-.01.33-.01.33-.01.33-.01.33-.02.32-.02.33-.02.33-.02.33-.01.32-.02.33-.02.33-.02.33-.02.33-.02.32-.02.33-.02.33-.02.33-.02.32-.02.33-.02.33-.02.33-.02.32-.02.33-.02.33-.02.33-.03.33-.02.32-.02.33-.02.33-.03.33-.02.32-.02.33-.02.33-.02.33-.03.33-.02.32-.02.33-.03.33-.02.33-.02.32-.02.33-.02.33-.02"/><use xlink:href="#a" color="#3B75EA" transform="matrix(4.5 0 0 4.5 355.09 104.42)"/><use xlink:href="#a" color="#3B75EA" transform="matrix(4.5 0 0 4.5 65.45 31.26)"/></g><text stroke-linecap="round" stroke-linejoin="round" color="#000" font-family="Courier" font-size="12" transform="translate(95.12 57.66)"><tspan>LBSTTopDown</tspan></text><g fill="none" stroke="currentColor" stroke-linecap="round" stroke-linejoin="round" color="#000"><path stroke="#29C3F6" stroke-dasharray="4.5,2.0,0.5,2.0,0.5,2.0" d="M44.17 53.76h42.56m-53.17 81.09.33-1.1.33-.92.32-.79.33-.73.33-.74.33-.77.32-.81.33-.85.33-.85.33-.83.33-.77.32-.69.33-.59.33-.5.33-.42.32-.34.33-.29.33-.25.33-.24.33-.23.32-.23.33-.25.33-.27.33-.28.32-.3.33-.31.33-.33.33-.32.32-.33.33-.32.33-.31.33-.29.33-.27.32-.23.33-.21.33-.17.33-.13.32-.11.33-.07.33-.06.33-.03.33-.03.32-.03.33-.03.33-.03.33-.05.32-.06.33-.08.33-.1.33-.11.33-.12.32-.14.33-.15.33-.15.33-.17.32-.16.33-.17.33-.17.33-.18.33-.18.32-.18.33-.18.33-.19.33-.2.32-.2.33-.21.33-.21.33-.22.33-.23.32-.23.33-.24.33-.24.33-.24.32-.23.33-.24.33-.22.33-.22.33-.2.32-.19.33-.17.33-.16.33-.13.32-.11.33-.08.33-.06.33-.03.32-.01.33.02.33.05.33.06.33.09.32.1.33.12.33.13.33.14.32.14.33.14.33.14.33.13.33.12.32.11.33.09.33.07.33.06.32.04.33.02.33-.01.33-.02.33-.03.32-.06.33-.07.33-.08.33-.09.32-.1.33-.11.33-.12.33-.12.33-.12.32-.12.33-.12.33-.12.33-.11.32-.11.33-.11.33-.11.33-.1.33-.09.32-.1.33-.08.33-.09.33-.08.32-.08.33-.08.33-.07.33-.08.33-.07.32-.08.33-.08.33-.07.33-.08.32-.09.33-.08.33-.09.33-.09.32-.1.33-.1.33-.1.33-.11.33-.11.32-.11.33-.11.33-.11.33-.12.32-.12.33-.11.33-.12.33-.11.33-.11.32-.11.33-.11.33-.1.33-.1.32-.1.33-.09.33-.09.33-.08.33-.07.32-.07.33-.07.33-.06.33-.06.32-.05.33-.04.33-.04.33-.04.33-.04.32-.03.33-.02.33-.02.33-.02.32-.02.33-.01.33-.02h.33l.33-.01h.98l.33.01.32.01.33.01.33.02.33.01.32.02.33.03.33.02.33.03.33.03.32.03.33.03.33.03.33.04.32.03.33.03.33.03.33.03.33.02.32.03.33.02.33.01.33.01.32.01h.66l.33-.01.33-.02.32-.02.33-.03.33-.03.33-.05.32-.04.33-.06.33-.06.33-.07.33-.07.32-.08.33-.08.33-.08.33-.09.32-.1.33-.09.33-.1.33-.1.33-.09.32-.1.33-.1.33-.09.33-.1.32-.09.33-.09.33-.09.33-.08.33-.09.32-.07.33-.08.33-.07.33-.07.32-.06.33-.06.33-.06.33-.06.32-.05.33-.05.33-.05.33-.04.33-.05.32-.04.33-.04.33-.04.33-.04.32-.04.33-.04.33-.03.33-.04.33-.04.32-.03.33-.03.33-.04.33-.03.32-.03.33-.03.33-.03.33-.03.33-.02.32-.03.33-.02.33-.02.33-.02.32-.02.33-.02.33-.01.33-.01.33-.01.32-.01h1.97l.33.01.33.01h.32l.33.01.33.01.33.01.32.01.33.01h.33l.33.01h.33l.32.01h.66l.33-.01h.32l.33-.01.33-.01.33-.01.32-.02.33-.02.33-.03.33-.02.33-.03.32-.03.33-.04.33-.04.33-.04.32-.04.33-.05.33-.05.33-.05.33-.05.32-.05.33-.05.33-.06.33-.05.32-.06.33-.06.33-.05.33-.06.33-.05.32-.06.33-.05.33-.06.33-.05.32-.05.33-.05.33-.05.33-.05.33-.05.32-.05.33-.05.33-.04.33-.04.32-.05.33-.04.33-.04.33-.04.33-.03.32-.04.33-.04.33-.03.33-.04.32-.03.33-.03.33-.04.33-.03.32-.03.33-.03.33-.03.33-.03.33-.03.32-.03.33-.03.33-.03.33-.03.32-.03.33-.03.33-.03.33-.03.33-.03.32-.03.33-.02.33-.03.33-.03.32-.02.33-.02.33-.02.33-.02.33-.02.32-.01.33-.01.33-.01h.98l.33.01.33.01.33.02.32.02.33.02.33.04.33.03.32.05.33.04.33.06.33.06.33.06.32.07.33.08.33.08.33.09.32.09.33.1.33.1.33.11.33.11.32.11.33.12.33.12.33.13.32.13.33.13.33.13.33.13.32.14.33.13.33.13.33.14.33.13.32.13.33.13.33.13.33.12.32.13.33.11.33.12.33.11.33.11.32.1.33.1.33.1.33.09.32.08.33.08.33.07.33.07.33.07.32.06.33.05.33.05.33.04.32.04.33.04.33.03.33.02.33.02.32.02.33.01.33.01h.98l.33-.01.33-.01.33-.01.32-.02.33-.02.33-.02.33-.03.32-.03.33-.03.33-.03.33-.04.33-.03.32-.04.33-.05.33-.04.33-.05.32-.05.33-.05.33-.05.33-.05.32-.06.33-.05.33-.06.33-.06.33-.06.32-.06.33-.06.33-.07.33-.06.32-.07.33-.06.33-.07.33-.06.33-.07.32-.07.33-.06.33-.07.33-.07.32-.06.33-.07.33-.06.33-.07.33-.06.32-.06.33-.07.33-.06.33-.06.32-.06.33-.05.33-.06.33-.06.33-.05.32-.05.33-.05.33-.05.33-.05.32-.04.33-.05.33-.04.33-.04.33-.03.32-.04.33-.03.33-.03.33-.03.32-.03.33-.03.33-.02.33-.02.32-.02.33-.02.33-.02.33-.01.33-.02.32-.01.33-.01.33-.01h.33l.32-.01.33-.01h.33l.33-.01h.65l.33-.01h1.97l.33-.01h1.63l.33-.01h.33l.33-.01h.33l.32-.01h.33l.33-.01.33-.01.32-.01.33-.01.33-.01.33-.01.33-.01.32-.02.33-.02.33-.01.33-.02.32-.03.33-.02.33-.02.33-.03.33-.03.32-.03.33-.03.33-.03.33-.03.32-.04.33-.03.33-.04.33-.03.32-.04.33-.04.33-.04.33-.04.33-.03.32-.04.33-.04.33-.04.33-.04.32-.04.33-.03.33-.04.33-.04.33-.04.32-.03.33-.04.33-.03.33-.04.32-.03.33-.04.33-.03.33-.03.33-.04.32-.03.33-.03.33-.04.33-.03.32-.04.33-.03.33-.04.33-.03.33-.04.32-.03.33-.04.33-.03.33-.04.32-.03.33-.04.33-.04.33-.03.33-.04.32-.04.33-.03.33-.04.33-.04.32-.03.33-.04.33-.03.33-.04.33-.03.32-.03.33-.03.33-.03.33-.04.32-.02.33-.03.33-.03.33-.03.32-.02.33-.03.33-.02.33-.02.33-.03.32-.02.33-.02.33-.01.33-.02.32-.02.33-.01.33-.02.33-.01.33-.01.32-.01.33-.01.33-.01h.33l.32-.01h.33l.33-.01h.66l.32.01h.66l.33.01h.32l.33.01.33.01.33.01.33.01h.32l.33.01.33.01.33.01.32.01.33.01.33.01.33.01h.33l.32.01h1.64l.33-.01h.33l.32-.01.33-.01.33-.02.33-.01.33-.02.32-.02.33-.02.33-.02.33-.03.32-.02.33-.03.33-.02.33-.03.33-.03.32-.02.33-.03.33-.03.33-.03.32-.02.33-.03.33-.02.33-.03.33-.02.32-.02.33-.02.33-.02.33-.02.32-.02.33-.01.33-.02.33-.01.33-.02.32-.01.33-.01.33-.01.33-.01.32-.02.33-.01.33-.01.33-.01.33-.02.32-.01.33-.01.33-.02.33-.01.32-.02.33-.01.33-.02.33-.02.33-.02.32-.02.33-.02.33-.02.33-.02.32-.03.33-.02.33-.02.33-.02.32-.03.33-.02.33-.03.33-.02.33-.03.32-.02.33-.03.33-.02.33-.03.32-.02.33-.03.33-.03.33-.02.33-.03.32-.03.33-.03.33-.02.33-.03.32-.03.33-.03.33-.04.33-.03.33-.03.32-.03.33-.04.33-.03.33-.04.32-.03.33-.04.33-.03.33-.04.33-.03.32-.03.33-.04.33-.03.33-.03.32-.02.33-.03.33-.02.33-.02.33-.02.32-.01.33-.01h.98l.33.01.33.01.33.02.33.02.32.03.33.03.33.04.33.04.32.04.33.05.33.05.33.05.32.05.33.06.33.06.33.05.33.06.32.06.33.05.33.05.33.06.32.04.33.05.33.04.33.04.33.03.32.03.33.03.33.02.33.02.32.01.33.01.33.01h.66l.32-.01.33-.01.33-.01.33-.02.32-.01.33-.02.33-.03.33-.02.33-.02.32-.03.33-.03.33-.03.33-.03.32-.02.33-.03.33-.03.33-.03.33-.03.32-.03.33-.03.33-.03.33-.02.32-.03.33-.02.33-.03.33-.02.32-.02.33-.01.33-.02.33-.01h.98l.33.01.33.02.32.02.33.03.33.04.33.04.33.06.32.06.33.07.33.08.33.09.32.09.33.1.33.11.33.11.33.11.32.12.33.12.33.13.33.12.32.11.33.12.33.11.33.11.33.1.32.1.33.08.33.08.33.07.32.07.33.05.33.05.33.03.33.03.32.02.33.02.33.01h.33l.32-.01h.33l.33-.02.33-.01.33-.02.32-.02.33-.03.33-.02.33-.03.32-.03.33-.02.33-.03.33-.03.32-.02.33-.03.33-.03.33-.02.33-.02.32-.02.33-.02.33-.02.33-.01.32-.01h.33l.33-.01.33.01h.33l.32.01.33.01.33.02.33.01.32.02.33.02.33.02.33.02.33.02.32.02.33.01.33.01.33.01.32.01h.33l.33-.01h.33l.33-.01.32-.01.33-.01.33-.01.33-.01.32-.01.33-.01h.66l.33.01.32.02.33.02.33.04.33.04.32.06.33.06.33.06.33.07.33.07.32.06.33.06.33.05.33.03.32.02.33.01.33-.01.33-.01.32-.03.33-.03.33-.04.33-.03.33-.04.32-.04.33-.03.33-.04.33-.03.32-.03.33-.03.33-.04.33-.03.33-.04.32-.03.33-.03.33-.03h.33l.32.01.33.01.33-.04"/><use xlink:href="#d" color="#29C3F6" transform="matrix(4.5 0 0 4.5 84.69 107.53)"/><use xlink:href="#d" color="#29C3F6" transform="matrix(4.5 0 0 4.5 65.45 53.76)"/></g><text stroke-linecap="round" stroke-linejoin="round" color="#000" font-family="Courier" font-size="12" transform="translate(255.14 35.16)"><tspan>WBSTBottomUp</tspan></text><g fill="none" stroke="currentColor" stroke-linecap="round" stroke-linejoin="round" color="#000"><path stroke="#D336C8" d="M204.19 31.26h42.56M33.56 135.54l.33-1.52.33-1.39.32-1.27.33-1.14.33-.99.33-.84.32-.69.33-.56.33-.46.33-.38.33-.34.32-.33.33-.34.33-.36.33-.4.32-.45.33-.48.33-.52.33-.55.33-.56.32-.57.33-.55.33-.54.33-.5.32-.44.33-.39.33-.32.33-.26.32-.19.33-.13.33-.09.33-.05.33-.03.32-.02.33-.02.33-.03.33-.06.32-.08.33-.12.33-.15.33-.17.33-.2.32-.22.33-.23.33-.25.33-.24.32-.25.33-.24.33-.24.33-.23.33-.22.32-.22.33-.21.33-.2.33-.2.32-.2.33-.19.33-.2.33-.19.33-.18.32-.19.33-.18.33-.17.33-.15.32-.15.33-.14.33-.11.33-.11.33-.08.32-.07.33-.06.33-.04.33-.03.32-.02.33-.01.33-.01.33-.01.33-.01.32-.01.33-.02.33-.03.33-.04.32-.05.33-.06.33-.07.33-.08.32-.09.33-.1.33-.11.33-.12.33-.12.32-.13.33-.12.33-.13.33-.13.32-.13.33-.13.33-.12.33-.12.33-.11.32-.11.33-.1.33-.09.33-.09.32-.08.33-.08.33-.06.33-.07.33-.06.32-.06.33-.05.33-.05.33-.06.32-.05.33-.05.33-.05.33-.06.33-.05.32-.06.33-.06.33-.05.33-.06.32-.06.33-.06.33-.06.33-.06.33-.05.32-.05.33-.05.33-.05.33-.05.32-.04.33-.03.33-.04.33-.03.33-.02.32-.03.33-.02.33-.02.33-.02.32-.01.33-.02.33-.01.33-.02.32-.01.33-.01.33-.01.33-.02.33-.01.32-.01.33-.02.33-.01.33-.01.32-.02.33-.02.33-.01.33-.02.33-.03.32-.02.33-.03.33-.02.33-.04.32-.03.33-.04.33-.04.33-.04.33-.05.32-.05.33-.05.33-.06.33-.06.32-.06.33-.06.33-.07.33-.07.33-.07.32-.07.33-.08.33-.07.33-.07.32-.08.33-.07.33-.07.33-.07.33-.06.32-.06.33-.06.33-.06.33-.05.32-.05.33-.04.33-.04.33-.04.32-.03.33-.04.33-.02.33-.03.33-.02.32-.02.33-.03.33-.02.33-.02.32-.02.33-.02.33-.03.33-.03.33-.03.32-.03.33-.04.33-.04.33-.05.32-.05.33-.05.33-.05.33-.06.33-.07.32-.06.33-.07.33-.07.33-.08.32-.07.33-.08.33-.08.33-.08.33-.08.32-.08.33-.07.33-.08.33-.08.32-.08.33-.07.33-.07.33-.08.33-.06.32-.07.33-.07.33-.06.33-.06.32-.06.33-.05.33-.06.33-.05.33-.05.32-.04.33-.04.33-.04.33-.04.32-.04.33-.03.33-.03.33-.03.32-.03.33-.02.33-.03.33-.02.33-.02.32-.02.33-.02.33-.02.33-.02.32-.02.33-.02.33-.02.33-.02.33-.02.32-.03.33-.02.33-.03.33-.03.32-.03.33-.03.33-.04.33-.04.33-.04.32-.04.33-.04.33-.05.33-.05.32-.05.33-.05.33-.06.33-.05.33-.06.32-.06.33-.06.33-.05.33-.06.32-.06.33-.05.33-.06.33-.05.33-.05.32-.05.33-.05.33-.04.33-.04.32-.03.33-.03.33-.03.33-.02.33-.02.32-.01.33-.01h.33l.33.01.32.01.33.01.33.02.33.02.32.03.33.03.33.04.33.04.33.04.32.04.33.05.33.04.33.05.32.05.33.04.33.04.33.04.33.04.32.04.33.03.33.03.33.02.32.02.33.01.33.01h.66l.32-.01.33-.01.33-.02.33-.02.32-.03.33-.03.33-.04.33-.04.33-.05.32-.04.33-.06.33-.05.33-.06.32-.06.33-.06.33-.07.33-.06.33-.07.32-.07.33-.06.33-.07.33-.07.32-.06.33-.07.33-.07.33-.06.32-.07.33-.06.33-.06.33-.06.33-.06.32-.05.33-.06.33-.04.33-.05.32-.05.33-.04.33-.04.33-.03.33-.03.32-.03.33-.02.33-.01.33-.02h.32l.33-.01.33.01h.33l.33.02.32.01.33.03.33.03.33.03.32.04.33.04.33.05.33.05.33.06.32.06.33.06.33.07.33.07.32.07.33.07.33.08.33.08.33.07.32.08.33.08.33.08.33.08.32.08.33.07.33.08.33.07.33.07.32.07.33.06.33.07.33.06.32.05.33.06.33.05.33.04.32.05.33.04.33.03.33.04.33.03.32.02.33.03.33.02.33.01.32.02.33.01h1.31l.33-.01h.33l.33-.02.32-.01.33-.02.33-.02.33-.02.33-.03.32-.02.33-.03.33-.04.33-.03.32-.03.33-.04.33-.04.33-.03.33-.04.32-.04.33-.04.33-.04.33-.04.32-.04.33-.04.33-.04.33-.03.33-.04.32-.03.33-.04.33-.03.33-.03.32-.03.33-.03.33-.02.33-.03.33-.02.32-.02.33-.02.33-.01.33-.02.32-.01.33-.01.33-.01.33-.01.32-.01.33-.01.33-.01.33-.01h.33l.32-.01.33-.01.33-.01h.33l.32-.01.33-.01.33-.01.33-.02.33-.01.32-.01.33-.02.33-.02.33-.01.32-.02.33-.03.33-.02.33-.02.33-.03.32-.02.33-.03.33-.03.33-.03.32-.03.33-.03.33-.03.33-.04.33-.03.32-.03.33-.04.33-.04.33-.03.32-.04.33-.04.33-.04.33-.04.33-.04.32-.04.33-.04.33-.04.33-.04.32-.04.33-.04.33-.05.33-.04.32-.05.33-.04.33-.04.33-.05.33-.04.32-.05.33-.04.33-.05.33-.05.32-.04.33-.05.33-.04.33-.05.33-.04.32-.04.33-.05.33-.04.33-.04.32-.04.33-.04.33-.04.33-.03.33-.04.32-.03.33-.04.33-.03.33-.03.32-.03.33-.03.33-.02.33-.03.33-.02.32-.03.33-.02.33-.02.33-.02.32-.02.33-.02.33-.02.33-.02.33-.02.32-.02.33-.02.33-.02.33-.02.32-.02.33-.02.33-.02.33-.03.33-.02.32-.03.33-.02.33-.03.33-.03.32-.03.33-.03.33-.03.33-.03.32-.03.33-.04.33-.03.33-.04.33-.03.32-.04.33-.04.33-.03.33-.04.32-.04.33-.04.33-.04.33-.04.33-.03.32-.04.33-.04.33-.04.33-.04.32-.04.33-.04.33-.04.33-.03.33-.04.32-.04.33-.04.33-.04.33-.04.32-.04.33-.04.33-.04.33-.04.33-.04.32-.03.33-.04.33-.04.33-.04.32-.03.33-.04.33-.03.33-.04.33-.03.32-.03.33-.02.33-.03.33-.02.32-.02.33-.01.33-.02.33-.01h.33l.32-.01h.33l.33.01h.33l.32.01.33.02.33.01.33.03.32.02.33.02.33.03.33.03.33.03.32.03.33.04.33.03.33.04.32.03.33.03.33.04.33.03.33.03.32.03.33.03.33.02.33.03.32.02.33.02.33.01.33.02.33.01.32.01.33.01.33.01h.33l.32.01h.33l.33.01h.98l.33.01h.98l.33.01h.66l.33.01.32.01h.33l.33.01h.33l.32.01.33.01h.33l.33.01h.32l.33.01h.66l.33.01h.98l.33-.01h.32l.33-.01h.33l.33-.01.33-.01h.32l.33-.01.33-.01.33-.01.32-.01.33-.01.33-.01h.33l.33-.01h.32l.33-.01h1.64l.33.01h.33l.32.01.33.01.33.01.33.01.32.01.33.01.33.02.33.01.33.01.32.02.33.01.33.01.33.02.32.01.33.01.33.01.33.01.33.01h.32l.33.01h1.97l.32-.01.33-.01h.33l.33-.01.33-.01.32-.02.33-.01.33-.01.33-.01.32-.02.33-.01.33-.02.33-.01.33-.01.32-.02.33-.01.33-.01.33-.01.32-.01.33-.01h1.31l.33.01h.33l.33.02.32.01.33.02.33.02.33.03.33.03.32.03.33.04.33.04.33.04.32.05.33.05.33.05.33.06.33.05.32.06.33.06.33.06.33.06.32.06.33.06.33.06.33.06.33.06.32.06.33.06.33.06.33.05.32.06.33.05.33.05.33.05.32.04.33.05.33.04.33.04.33.04.32.03.33.04.33.03.33.02.32.03.33.02.33.02.33.01.33.01.32.01h.33l.33.01.33-.01h.32l.33-.01.33-.01.33-.01.33-.02.32-.01.33-.02.33-.02.33-.03.32-.02.33-.02.33-.03.33-.02.33-.03.32-.03.33-.02.33-.03.33-.02.32-.03.33-.02.33-.02.33-.03.33-.02.32-.02.33-.03.33-.02.33-.02.32-.02.33-.03.33-.02.33-.03.32-.02.33-.03.33-.03.33-.03.33-.03.32-.03.33-.03.33-.04.33-.03.32-.04.33-.04.33-.04.33-.04.33-.04.32-.04.33-.05.33-.04.33-.04.32-.05.33-.04.33-.04.33-.05.33-.04.32-.03.33-.04.33-.04.33-.03.32-.03.33-.03.33-.02.33-.03.33-.01.32-.02.33-.01h.33l.33-.01h.32l.33.01h.33l.33.01.33.01.32.01.33.01.33.01.33.01.32.01.33.01.33.01h.98l.33-.01.33-.01.33-.01.32-.01.33-.02.33-.02.33-.03.32-.02.33-.03.33-.03.33-.03.33-.04.32-.03.33-.04.33-.03.33-.04.32-.04.33-.03.33-.04.33-.04.33-.03.32-.04.33-.03.33-.03.33-.04.32-.03.33-.03.33-.03.33-.03.33-.03.32-.02.33-.03.33-.03.33-.02.32-.02.33-.03.33-.02.33-.01.33-.02.32-.01.33-.02.33-.01.33-.01.32-.01.33-.01.33-.01.33-.01.33-.02.32-.02.33-.02.33-.02.33-.02.32-.03.33-.02.33-.02.33-.01h.33l.32.01.33.03.33.05.33.07.32.1.33.12.33.16.33.18.32.21.33.22.33.24.33.23.33.23.32.2.33.16.33.13.33.09.32.05.33.03.33.01.33.01h.33l.32-.01.33-.01.33-.03.33-.03.32-.04.33-.04.33-.03"/><use xlink:href="#b" color="#D336C8" transform="matrix(4.5 0 0 4.5 138.77 100.96)"/><use xlink:href="#b" color="#D336C8" transform="matrix(4.5 0 0 4.5 225.47 31.26)"/></g><text stroke-linecap="round" stroke-linejoin="round" color="#000" font-family="Courier" font-size="12" transform="translate(255.14 57.66)"><tspan>WBSTTopDown</tspan></text><g fill="none" stroke="currentColor" stroke-linecap="round" stroke-linejoin="round" color="#000"><path stroke="violet" stroke-dasharray="4.5,2.0,0.5,2.0,0.5,2.0" d="M204.19 53.76h42.56M33.56 135.92l.33-1.71.33-1.59.32-1.49.33-1.37.33-1.25.33-1.12.32-1 .33-.88.33-.78.33-.7.33-.64.32-.58.33-.55.33-.52.33-.49.32-.45.33-.41.33-.39.33-.36.33-.33.32-.31.33-.29.33-.29.33-.27.32-.27.33-.26.33-.25.33-.24.32-.23.33-.23.33-.2.33-.2.33-.17.32-.16.33-.14.33-.12.33-.09.32-.08.33-.05.33-.04.33-.03.33-.03.32-.02.33-.02.33-.04.33-.05.32-.07.33-.1.33-.12.33-.15.33-.18.32-.2.33-.23.33-.25.33-.27.32-.29.33-.29.33-.3.33-.3.33-.3.32-.28.33-.28.33-.26.33-.24.32-.22.33-.2.33-.17.33-.16.33-.14.32-.12.33-.1.33-.09.33-.08.32-.07.33-.06.33-.06.33-.05.33-.05.32-.04.33-.05.33-.03.33-.04.32-.03.33-.03.33-.02.33-.01.32-.01h.66l.33.01.33.02.32.02.33.02.33.03.33.03.32.02.33.02.33.02.33.01.33.01.32-.01.33-.01.33-.02.33-.03.32-.04.33-.05.33-.06.33-.07.33-.07.32-.09.33-.09.33-.1.33-.11.32-.11.33-.12.33-.13.33-.13.33-.13.32-.14.33-.14.33-.14.33-.14.32-.15.33-.14.33-.15.33-.14.33-.13.32-.14.33-.12.33-.12.33-.12.32-.1.33-.09.33-.09.33-.07.33-.06.32-.05.33-.04.33-.02.33-.02h.65l.33.02.33.02.32.03.33.04.33.05.33.05.33.05.32.05.33.06.33.06.33.06.32.06.33.05.33.06.33.05.33.05.32.04.33.05.33.03.33.04.32.02.33.03.33.02.33.01.33.01.32.01h.66l.33-.01h.32l.33-.02.33-.01.33-.02.33-.02.32-.03.33-.02.33-.03.33-.03.32-.04.33-.04.33-.03.33-.04.33-.05.32-.04.33-.05.33-.05.33-.04.32-.05.33-.06.33-.05.33-.05.32-.05.33-.06.33-.05.33-.05.33-.06.32-.05.33-.05.33-.06.33-.05.32-.05.33-.05.33-.05.33-.05.33-.05.32-.05.33-.05.33-.04.33-.05.32-.05.33-.04.33-.05.33-.04.33-.05.32-.04.33-.05.33-.04.33-.04.32-.05.33-.04.33-.04.33-.05.33-.04.32-.05.33-.04.33-.05.33-.04.32-.05.33-.05.33-.05.33-.05.33-.06.32-.05.33-.06.33-.06.33-.06.32-.06.33-.06.33-.07.33-.07.33-.08.32-.07.33-.08.33-.08.33-.08.32-.09.33-.09.33-.09.33-.09.32-.09.33-.1.33-.1.33-.1.33-.1.32-.1.33-.1.33-.1.33-.11.32-.1.33-.1.33-.1.33-.1.33-.1.32-.1.33-.1.33-.09.33-.1.32-.09.33-.09.33-.09.33-.08.33-.08.32-.08.33-.08.33-.07.33-.07.32-.06.33-.06.33-.06.33-.05.33-.05.32-.04.33-.04.33-.03.33-.03.32-.02.33-.02.33-.01h.33l.33.01.32.01.33.01.33.03.33.03.32.04.33.05.33.05.33.06.33.07.32.08.33.08.33.08.33.09.32.1.33.1.33.11.33.11.32.11.33.12.33.11.33.12.33.11.32.12.33.12.33.11.33.11.32.11.33.1.33.1.33.09.33.09.32.09.33.08.33.07.33.07.32.06.33.05.33.05.33.05.33.04.32.03.33.03.33.02.33.02.32.02.33.01.33.01.33.01.33.01h1.63l.33-.01h.33l.33-.01h.33l.32-.01.33-.01h.33l.33-.01.32-.01.33-.01.33-.01.33-.01.32-.01.33-.01.33-.02.33-.02.33-.01.32-.03.33-.02.33-.02.33-.03.32-.03.33-.03.33-.04.33-.03.33-.04.32-.05.33-.04.33-.05.33-.05.32-.05.33-.05.33-.05.33-.06.33-.06.32-.05.33-.06.33-.06.33-.06.32-.06.33-.07.33-.06.33-.06.33-.06.32-.06.33-.06.33-.06.33-.05.32-.06.33-.06.33-.05.33-.05.33-.06.32-.05.33-.05.33-.05.33-.05.32-.04.33-.05.33-.04.33-.04.33-.05.32-.04.33-.04.33-.04.33-.03.32-.04.33-.03.33-.04.33-.03.32-.04.33-.03.33-.03.33-.03.33-.03.32-.02.33-.03.33-.03.33-.03.32-.03.33-.02.33-.03.33-.03.33-.03.32-.02.33-.03.33-.03.33-.03.32-.03.33-.04.33-.03.33-.03.33-.04.32-.04.33-.03.33-.04.33-.05.32-.04.33-.04.33-.04.33-.05.33-.04.32-.05.33-.04.33-.05.33-.05.32-.04.33-.05.33-.04.33-.04.33-.04.32-.04.33-.04.33-.03.33-.04.32-.03.33-.02.33-.02.33-.02.33-.02.32-.01.33-.01.33-.01h.98l.33.01.33.01.32.01.33.02.33.02.33.02.33.01.32.03.33.02.33.02.33.02.32.02.33.02.33.02.33.02.33.02.32.02.33.01.33.01.33.01h1.31l.33-.01.32-.01.33-.02.33-.01.33-.02.32-.03.33-.02.33-.03.33-.03.33-.04.32-.03.33-.04.33-.04.33-.05.32-.04.33-.05.33-.05.33-.05.33-.05.32-.06.33-.05.33-.06.33-.05.32-.06.33-.05.33-.06.33-.06.32-.05.33-.06.33-.06.33-.05.33-.06.32-.06.33-.05.33-.05.33-.05.32-.05.33-.05.33-.05.33-.05.33-.04.32-.05.33-.04.33-.04.33-.04.32-.03.33-.04.33-.03.33-.03.33-.03.32-.03.33-.03.33-.02.33-.02.32-.02.33-.02.33-.02.33-.02.33-.01.32-.02.33-.01.33-.01.33-.01.32-.01.33-.01.33-.01.33-.01.33-.01h.32l.33-.01.33-.01h.65l.33-.01h.66l.33-.01h1.31l.32.01h.33l.33.01h.33l.32.01.33.02.33.01.33.01.33.02.32.02.33.02.33.03.33.03.32.02.33.04.33.03.33.04.33.03.32.04.33.04.33.04.33.05.32.04.33.04.33.05.33.04.33.04.32.04.33.04.33.04.33.04.32.03.33.04.33.03.33.02.33.03.32.02.33.02.33.01.33.02.32.01h.33l.33.01h1.64l.33-.01h.32l.33-.01h.66l.33-.01h.98l.33.01.32.01h.33l.33.02.33.01.32.02.33.01.33.03.33.02.33.03.32.02.33.03.33.03.33.03.32.04.33.03.33.03.33.04.33.03.32.03.33.03.33.03.33.03.32.02.33.02.33.02.33.02.33.02.32.01.33.01.33.01h1.31l.33-.01.33-.01.32-.01.33-.01.33-.02.33-.02.32-.01.33-.03.33-.02.33-.02.33-.02.32-.03.33-.03.33-.02.33-.03.32-.03.33-.03.33-.02.33-.03.32-.03.33-.03.33-.03.33-.03.33-.03.32-.03.33-.03.33-.03.33-.02.32-.03.33-.03.33-.03.33-.03.33-.03.32-.03.33-.03.33-.03.33-.03.32-.02.33-.03.33-.03.33-.03.33-.02.32-.02.33-.03.33-.02.33-.02.32-.02.33-.02.33-.01.33-.01.33-.02h.32l.33-.01h.98l.33.01.33.01.33.01.33.02.32.02.33.02.33.02.33.03.32.03.33.03.33.03.33.03.33.04.32.03.33.04.33.03.33.04.32.03.33.03.33.04.33.02.32.03.33.03.33.02.33.02.33.01.32.02.33.01h.33l.33.01h.65l.33-.01.33-.01.33-.01.32-.01.33-.01.33-.02.33-.02.32-.02.33-.03.33-.02.33-.03.33-.03.32-.03.33-.03.33-.04.33-.03.32-.04.33-.04.33-.04.33-.03.33-.04.32-.05.33-.04.33-.04.33-.05.32-.04.33-.04.33-.05.33-.05.33-.04.32-.05.33-.05.33-.04.33-.05.32-.04.33-.05.33-.04.33-.04.33-.05.32-.04.33-.03.33-.04.33-.04.32-.03.33-.03.33-.03.33-.02.32-.02.33-.03.33-.01.33-.02.33-.01.32-.01.33-.01.33-.01h1.64l.33.01h.32l.33.01.33.01.33.01.32.01.33.01.33.01.33.02.33.01.32.01.33.02.33.02.33.01.32.02.33.02.33.02.33.02.33.02.32.01.33.02.33.02.33.02.32.01.33.02.33.01.33.01.33.01.32.01.33.01h.33l.33.01h.65l.33-.01h.33l.32-.01.33-.01.33-.01.33-.01.33-.02.32-.01.33-.02.33-.02.33-.02.32-.02.33-.03.33-.02.33-.03.33-.02.32-.03.33-.03.33-.03.33-.03.32-.03.33-.03.33-.03.33-.03.33-.03.32-.03.33-.03.33-.03.33-.03.32-.03.33-.03.33-.03.33-.02.33-.03.32-.02.33-.03.33-.02.33-.03.32-.02.33-.02.33-.02.33-.02.33-.01.32-.02.33-.02.33-.02.33-.02.32-.01.33-.02.33-.02.33-.02.33-.03.32-.02.33-.03.33-.02.33-.03.32-.03.33-.04.33-.03.33-.04.32-.04.33-.04.33-.04.33-.04.33-.05.32-.04.33-.05.33-.04.33-.05.32-.04.33-.04.33-.04.33-.04.33-.03.32-.03.33-.02.33-.02.33-.01.32-.01h.33l.33.01.33.01.33.02.32.02.33.03.33.02.33.03.32.02.33.02.33.02.33.01h.65l.33-.01.33-.02.33-.02.32-.03.33-.03.33-.04.33-.04.33-.04.32-.04.33-.04.33-.05.33-.04.32-.04.33-.05.33-.04.33-.05.33-.04.32-.04.33-.04.33-.03.33-.03.32-.01h.33l.33.02.33.05.32.08.33.11.33.14.33.16.33.19.32.18.33.17.33.15.33.11.32.07.33.04.33.02.33.02.33.03.32.08.33.11.33.15.33.15.32.1.33.03.33-.02"/><use xlink:href="#e" color="violet" transform="matrix(4.5 0 0 4.5 192.85 99.05)"/><use xlink:href="#e" color="violet" transform="matrix(4.5 0 0 4.5 225.47 53.76)"/></g><path fill="none" d="M33.56 90.01V146m324.48-55.99H33.56" color="#000"/><text stroke-linecap="round" stroke-linejoin="round" stroke-width="0" color="#000" font-family="KaTeX_Main" font-size="8" text-anchor="middle" transform="translate(195.8 17.61)"><tspan font-weight="bold">InsertDeleteSearchPersistent</tspan></text></svg>