<svg xmlns="http://www.w3.org/2000/svg" xmlns:xlink="http://www.w3.org/1999/xlink" viewBox="0 0 400 200"><path fill="none" d="M0 0h400v200H0z"/><defs><path id="c" stroke="currentColor" stroke-width=".222" d="M-1-1h2v2h-2z"/><path id="b" stroke="currentColor" stroke-width=".222" d="m0-1.33-1.33 2h2.66z"/><use xlink:href="#a" id="d" fill="currentColor" stroke="none"/><use xlink:href="#b" id="e" fill="currentColor" stroke="none"/><circle id="a" cx="0" cy="0" r="1" stroke="currentColor" stroke-width=".222"/></defs><path fill="none" stroke="#000" stroke-dasharray="0.1,0.2" stroke-linecap="round" stroke-linejoin="round" stroke-width=".1" d="M63.06 146V90.01" class="gridline" color="#000"/><g fill="none" stroke-linecap="round" stroke-linejoin="round" stroke-width="0" color="#000"><path d="M63.06 146v-9m0-46.99v9"/><text fill="#000" font-family="KaTeX_Main" font-size="8" text-anchor="middle" transform="translate(63.06 148.6)"><tspan> 1</tspan></text></g><path fill="none" stroke="#000" stroke-dasharray="0.1,0.2" stroke-linecap="round" stroke-linejoin="round" stroke-width=".1" d="M95.83 146V90.01" class="gridline" color="#000"/><g fill="none" stroke-linecap="round" stroke-linejoin="round" stroke-width="0" color="#000"><path d="M95.83 146v-9m0-46.99v9"/><text fill="#000" font-family="KaTeX_Main" font-size="8" text-anchor="middle" transform="translate(95.83 148.6)"><tspan> 2</tspan></text></g><path fill="none" stroke="#000" stroke-dasharray="0.1,0.2" stroke-linecap="round" stroke-linejoin="round" stroke-width=".1" d="M128.61 146V90.01" class="gridline" color="#000"/><g fill="none" stroke-linecap="round" stroke-linejoin="round" stroke-width="0" color="#000"><path d="M128.61 146v-9m0-46.99v9"/><text fill="#000" font-family="KaTeX_Main" font-size="8" text-anchor="middle" transform="translate(128.61 148.6)"><tspan> 3</tspan></text></g><path fill="none" stroke="#000" stroke-dasharray="0.1,0.2" stroke-linecap="round" stroke-linejoin="round" stroke-width=".1" d="M161.39 146V90.01" class="gridline" color="#000"/><g fill="none" stroke-linecap="round" stroke-linejoin="round" stroke-width="0" color="#000"><path d="M161.39 146v-9m0-46.99v9"/><text fill="#000" font-family="KaTeX_Main" font-size="8" text-anchor="middle" transform="translate(161.39 148.6)"><tspan> 4</tspan></text></g><path fill="none" stroke="#000" stroke-dasharray="0.1,0.2" stroke-linecap="round" stroke-linejoin="round" stroke-width=".1" d="M194.16 146V90.01" class="gridline" color="#000"/><g fill="none" stroke-linecap="round" stroke-linejoin="round" stroke-width="0" color="#000"><path d="M194.16 146v-9m0-46.99v9"/><text fill="#000" font-family="KaTeX_Main" font-size="8" text-anchor="middle" transform="translate(194.16 148.6)"><tspan> 5</tspan></text></g><path fill="none" stroke="#000" stroke-dasharray="0.1,0.2" stroke-linecap="round" stroke-linejoin="round" stroke-width=".1" d="M226.94 146V90.01" class="gridline" color="#000"/><g fill="none" stroke-linecap="round" stroke-linejoin="round" stroke-width="0" color="#000"><path d="M226.94 146v-9m0-46.99v9"/><text fill="#000" font-family="KaTeX_Main" font-size="8" text-anchor="middle" transform="translate(226.94 148.6)"><tspan> 6</tspan></text></g><path fill="none" stroke="#000" stroke-dasharray="0.1,0.2" stroke-linecap="round" stroke-linejoin="round" stroke-width=".1" d="M259.71 146V90.01" class="gridline" color="#000"/><g fill="none" stroke-linecap="round" stroke-linejoin="round" stroke-width="0" color="#000"><path d="M259.71 146v-9m0-46.99v9"/><text fill="#000" font-family="KaTeX_Main" font-size="8" text-anchor="middle" transform="translate(259.71 148.6)"><tspan> 7</tspan></text></g><path fill="none" stroke="#000" stroke-dasharray="0.1,0.2" stroke-linecap="round" stroke-linejoin="round" stroke-width=".1" d="M292.49 146V90.01" class="gridline" color="#000"/><g fill="none" stroke-linecap="round" stroke-linejoin="round" stroke-width="0" color="#000"><path d="M292.49 146v-9m0-46.99v9"/><text fill="#000" font-family="KaTeX_Main" font-size="8" text-anchor="middle" transform="translate(292.49 148.6)"><tspan> 8</tspan></text></g><path fill="none" stroke="#000" stroke-dasharray="0.1,0.2" stroke-linecap="round" stroke-linejoin="round" stroke-width=".1" d="M325.26 146V90.01" class="gridline" color="#000"/><g fill="none" stroke-linecap="round" stroke-linejoin="round" stroke-width="0" color="#000"><path d="M325.26 146v-9m0-46.99v9"/><text fill="#000" font-family="KaTeX_Main" font-size="8" text-anchor="middle" transform="translate(325.26 148.6)"><tspan> 9</tspan></text></g><path fill="none" stroke="#000" stroke-dasharray="0.1,0.2" stroke-linecap="round" stroke-linejoin="round" stroke-width=".1" d="M358.04 146V90.01" class="gridline" color="#000"/><g fill="none" stroke-linecap="round" stroke-linejoin="round" stroke-width="0" color="#000"><path d="M358.04 146v-9m0-46.99v9"/><text fill="#000" font-family="KaTeX_Main" font-size="8" text-anchor="middle" transform="translate(358.04 148.6)"><tspan> 10</tspan></text></g><g fill="none" stroke-linecap="round" stroke-linejoin="round" stroke-width="0" color="#000"><path d="M358.04 146h-9"/><text fill="#000" font-family="KaTeX_Main" font-size="8" transform="translate(366.43 148.6)"><tspan>0.10</tspan></text></g><g fill="none" stroke-linecap="round" stroke-linejoin="round" stroke-width="0" color="#000"><path d="M358.04 134.8h-9"/><text fill="#000" font-family="KaTeX_Main" font-size="8" transform="translate(366.43 137.4)"><tspan>0.15</tspan></text></g><g fill="none" stroke-linecap="round" stroke-linejoin="round" stroke-width="0" color="#000"><path d="M358.04 123.6h-9"/><text fill="#000" font-family="KaTeX_Main" font-size="8" transform="translate(366.43 126.2)"><tspan>0.20</tspan></text></g><g fill="none" stroke-linecap="round" stroke-linejoin="round" stroke-width="0" color="#000"><path d="M358.04 112.41h-9"/><text fill="#000" font-family="KaTeX_Main" font-size="8" transform="translate(366.43 115.01)"><tspan>0.25</tspan></text></g><g fill="none" stroke-linecap="round" stroke-linejoin="round" stroke-width="0" color="#000"><path d="M358.04 101.21h-9"/><text fill="#000" font-family="KaTeX_Main" font-size="8" transform="translate(366.43 103.81)"><tspan>0.30</tspan></text></g><g fill="none" stroke-linecap="round" stroke-linejoin="round" stroke-width="0" color="#000"><path d="M358.04 90.01h-9"/><text fill="#000" font-family="KaTeX_Main" font-size="8" transform="translate(366.43 92.61)"><tspan>0.35</tspan></text></g><path fill="none" d="M33.56 90.01V146m324.48-55.99H33.56" color="#000"/><text stroke-linecap="round" stroke-linejoin="round" stroke-width="0" color="#000" font-family="KaTeX_Main" font-size="8" text-anchor="middle" transform="rotate(-90 65.24 52.77)"><tspan font-weight="bold">Rotations</tspan><tspan> / Operation</tspan></text><text stroke-linecap="round" stroke-linejoin="round" stroke-width="0" color="#000" font-family="KaTeX_Main" font-size="8" text-anchor="middle" transform="translate(195.8 184.6)"><tspan>Operations × 10</tspan><tspan dy="-4" font-size="6.4">5</tspan></text><text stroke-linecap="round" stroke-linejoin="round" color="#000" font-family="Courier" font-size="12" transform="translate(95.12 35.16)"><tspan>LBSTBottomUp</tspan></text><g fill="none" stroke="currentColor" stroke-linecap="round" stroke-linejoin="round" color="#000"><path stroke="#3B75EA" d="M44.17 31.26h42.56m-53.17 69.72.33.27.33-1.16.32-5.02.33 4.88.33-.53h.33l.32 1.47.33.5.33-2.15.33 3.36.33-2.51.32-3.14.33 2.24.33 3.81.33-6.72.32 3.27.33-.72.33.81.33-.13.33-1.84.32 5.64.33-3.94.33 2.91.33.36.32-3.54.33-1.43.33 2.78.33 1.16.32-1.92.33-2.15.33 4.56.33-.58.33-.85.32.72.33-2.2.33-.76.33.4.32 1.17.33-.85.33-1.57.33 1.34.33 3.72.32-1.88.33-.76.33-.94.33-.81.32.58.33.81.33 1.79.33-2.33.33.94.32.63.33.49.33-2.46.33-1.52.32 2.51.33-2.24.33 5.37.33-4.61.33 3.04.32-2.24.33-.27.33 2.69.33-.54.32.81.33-3.22.33-2.15.33 3.22.33-.9.32.09.33.27.33 2.2.33.8.32-4.79.33 6.14.33-5.29.33 3.18.33-2.68.32.31.33 2.87.33-1.35.33 2.11.32-.32.33 3.81.33-3.54.33-1.39.32 2.29.33-4.97.33 2.33.33-.32.33-1.79.32-1.25.33 4.07.33.27.33-3.67.32 1.03.33 1.61.33-1.39.33 1.52.33-.35.32 1.21.33-.63.33.54.33-.94.32 2.95.33-3.89.33 1.16.33-5.6.33 5.02.32-.94.33 1.03.33-2.78.33 2.42.32-.36.33-.49.33 3.63.33-5.33.33 1.34.32.98.33-2.32.33 4.7.33-3.54.32-.58.33.31.33-.18.33 2.47.33-.23.32 1.48.33.36.33-3.9.33.9.32 3.54.33-5.07.33 1.17.33-.54.33 4.03.32-7.79.33 6.76.33-.49.33-4.17.32 3.72.33-3.49.33 3.31.33-.27.32 3.5.33-1.97.33-.59.33-4.25.33 4.93.32 1.07.33-3.04.33-.68.33-.58.32 3.18.33-1.21.33 3.32.33 1.61.33-5.29.32-4.3.33 4.66.33-.09.33-.04.32.13.33.72.33.63.33.04.33-.63.32-3.98.33 1.97.33-.18.33.04.32 1.71.33-1.48.33 1.65.33-3.04.33 5.06.32-3.13.33 2.64.33-4.26.33-.09.32.45.33 1.43.33.77.33 2.37.33.49.32-4.12.33 3.09.33-4.21.33.05.32-1.12.33 4.21.33-.76.33-.54.32 1.97.33-.49.33-3.63.33.89.33 2.83.32.94.33-3.36.33 4.16.33 1.3.32-6.45.33 1.88.33-.8.33 4.74.33-3.98.32.22.33-1.88.33 6.09.33-2.28.32-1.17.33-2.73.33-.49.33 2.46.33 3.23.32-2.96.33-.09.33-3.54.33 5.2.32.09.33-2.51.33-1.88.33-.4.33 1.43.32 2.42.33.8.33-3.04.33-.81.32 2.82.33-.8.33 3.27.33-1.53.33-4.65.32 5.51.33-3.41.33 2.38.33 1.65.32-3.49.33.76.33-3.54.33 4.17.33-5.51.32 6.54.33-4.21.33 3.31.33-.45.32-.71.33-.45.33 1.03.33-3 .32.58.33 2.02.33-1.89.33 1.08.33 1.75.32 3.04.33-8.82.33 6.14.33-.95.32-2.1.33 1.97.33.04.33-1.07.33-1.79.32 2.37.33 1.57.33.67.33-2.55.32-1.61.33 1.43.33 5.02.33-1.8.33-3.62.32 2.46.33-2.11.33.14.33 1.75.32-3.41.33 1.21.33.23.33.08.33 4.22.32-5.11.33 1.66.33-1.84.33-.45.32 2.78.33-3.85.33 4.92.33-2.73.33 2.15.32-2.01.33-3.14.33 5.87.33-1.61.32-3.5.33 4.57.33-1.97.33 2.55.33 1.44.32-5.78.33-1.84.33 1.97.33 4.97.32-3.53.33.85.33-1.08.33-1.03.32 1.35.33.35.33.9.33.31.33-2.55.32.76.33 1.39.33.18.33.9.32-1.48.33-.72.33-4.88.33 5.78.33-.72.32-1.66.33 1.26.33-1.62.33 2.24.32 1.8.33.62.33-1.48.33-2.24.33-.22.32-1.61.33 6.63.33-6.09.33.71.32 3.68.33-2.38.33 1.48.33-.31.33-1.93.32 1.03.33-.31.33-.45.33 1.21.32.71.33-3.31.33 3.05.33-.77.33.77.32-.18.33-1.08.33-.63.33 1.8.32 2.01.33-2.82.33 2.91.33-1.25.32.18.33-1.39.33.76.33.4.33 1.7.32-6 .33 1.79.33 1.03.33-.94.32 3.27.33-2.59.33 2.64.33-4.17.33 2.02.32.8.33 4.98.33-6.54.33-2.47.32 3.94.33-.94.33-1.74.33 4.25.33-2.37.32 2.19.33-1.92.33-1.7.33 4.88.32-3.45.33 1.97.33-1.17.33-6.04.33 6.31.32-2.37.33 2.06.33-1.93.33 2.06.32-1.65.33.85.33.76.33 1.21.33-4.79.32 2.91.33 1.25.33-1.57.33 3.54.32-2.42.33 3.01.33 1.7.33-5.33.33.36.32-1.89.33 3.9.33.14.33-4.3.32 2.86.33-.63.33-3.31.33 1.43.32-.4.33.22.33 1.3.33.9.33.09.32 3.54.33-6.27.33 3.4.33-2.42.32 1.48.33-1.25.33-3.09.33 5.73.33-1.57.32-5.37.33 6.98.33-3.27.33-1.56.32 2.91.33 1.3.33-.94.33.35.33-.71.32-2.29.33 1.88.33 2.78.33-.85.32-1.03.33-.22.33 3.76.33-5.02.33 1.26.32-1.21.33.67.33-1.93.33 1.3.32-.85.33 1.39.33 1.88.33-1.34.33 1.74.32-2.59.33 3.53.33-4.83.33 2.33.32 1.79.33-4.62.33 1.48.33-1.12.33 2.64.32-1.97.33 1.53.33.71.33-1.83.32-.45.33 3.67.33-5.33.33 2.42.32.49.33 1.12.33.76.33-.62.33-1.61.32 1.11.33-2.37.33 2.91.33-5.28.32 4.21.33.71.33-1.07.33.89.33 2.74.32-4.97.33 1.74.33 1.61.33-1.47.32-.9.33 1.21.33-2.19.33 3.49.33-.72.32.67.33-3.49.33 3.85.33-5.64h.32l.33 2.37.33 2.33.33-1.79.33 4.35.32-8.43.33 5.56.33-2.47.33 1.35.32.04.33 1.08.33 1.57.33-5.33.33 5.73.32-3.23.33 1.39.33-2.82.33 6.72.32-1.61.33-2.65.33-1.61.33 2.15.32-7.21.33 9.09.33-3.62.33-2.07.33 3.99.32-3.94.33 1.57.33-1.7.33 1.61.32-1.97.33 2.68.33 1.71.33-2.02.33-1.34.32 1.7.33-1.88.33 3.09.33-4.53.32 3.18.33-1.25.33.18.33-1.21.33 3.9.32-.76.33-.5.33-.31.33-.54.32 2.91.33-2.1.33.18.33-2.6.33 4.03.32-3.58.33 1.79.33 1.12.33-5.42.32 3.94.33-.09.33-4.48.33 3.5.33-.27.32 2.1.33 1.35.33-2.06.33 1.7.32-.54.33-4.34.33 2.73.33 1.21.33-.54.32-.05.33 1.44.33.45.33-2.29.32-1.52.33 6.67.33-7.03.33.49.32 3 .33-3.04.33.98.33-.94.33 5.2.32-2.33.33-2.37.33 2.41.33-1.97.32 1.93.33-1.08.33 1.98.33-.54.33-2.96.32 1.88.33-.94.33-.27.33.23.32 1.07.33 1.97.33.14.33-5.29.33 5.96.32-4.39.33 2.46.33-3.94.33.54.32 2.28.33-1.92.33 1.97.33-2.11.33 3.59.32 2.91.33-4.75.33 1.52.33 1.26.32-.5.33-2.1.33-.36.33 5.2.33-3.41.32-2.01.33-.32.33 5.74.33-5.33.32 3.31.33-2.91.33 3.14.33-4.13.33 1.03.32-.89.33 5.51.33-3.54.33-3.14.32 3.01h.33l.33-.9.33-7.08.32 3.14.33 3.98.33 1.3.33-.76.33-.04.32 1.79.33-2.78.33 1.97.33-.54.32-1.03.33-.58.33 2.15.33-1.03.33-.54.32-2.95.33 6.81.33-5.2.33-.4.32 3.94.33-.58.33.49.33 3.14.33-3.72.32-.18.33-.27.33-3.36.33-.4.32 2.24.33.62.33 3.05.33-1.61.33.58.32-2.11.33-2.01h.33l.33 5.82.32-2.51.33.81.33-1.75.33-1.12.33.99.32.89.33-1.88.33 3.54.33-2.78.32 3.32.33-6.45.33 3.49.33-1.52.32.76.33-3.36.33 3.67.33-1.47.33 2.33.32-3.59.33 4.08.33-3.58.33 3.35.32-1.03.33 3.09.33-2.06.33-2.5.33 3.62.32-1.12.33-5.55.33 8.06.33-1.7.32-.09.33-3.27.33 2.73.33.99.33-1.84.32-.45.33 2.56.33-1.79.33-3.77.32 3.27.33-.18.33-.85.33 4.12.33 1.97.32-4.52.33 2.46.33-3.18.33.45.32 1.57.33 1.48.33-3.41.33-1.16.33-.9.32 6.9.33-4.43.33 1.48.33-2.29.32 1.84.33-.45.33.31.33-1.12.33 2.06.32-3.76.33 4.61.33-.4.33-2.95.32 1.52.33-2.42.33 5.06.33-3 .32 1.12.33 1.43.33-3.54.33-1.61.33.4.32-4.21.33 7.93.33-5.15.33 3.14.32-2.24.33.49.33 2.15.33 1.08.33 1.2.32-2.37h.33l.33-.36.33 3.45.32-1.75.33 1.17.33-5.38.33 2.92.33-2.69.32.49.33 1.75.33-1.08.33.45.32.76.33-1.92.33.22.33-4.17.33 6.59.32-1.52.33 4.21.33-.99.33-2.42.32 1.48.33-2.42.33 1.84.33 2.55.33-5.24.32-.45.33 2.42.33-1.34.33 3.4.32-.04.33-2.78.33-2.69.33 5.06.33-4.39.32 1.26.33 1.21.33-.67.33 4.61.32-2.2.33 1.03.33-3.13.33-3.36.32 1.79.33 2.82.33.09.33 1.3.33-4.93.32 1.12.33 2.96.33 2.51.33-2.42.32-.31.33.18.33-2.92.33 2.2.33-2.91.32 4.88.33-4.66.33 1.61.33 4.71.32-3.94.33.8.33-6.09.33 6.23.33-2.83.32 5.2.33-1.75.33-.8.33-2.65.32 1.93.33 2.28.33-1.7.33-3.04.33 3.85.32-3.18.33 1.57.33-2.69.33 5.02.32-2.02.33-2.11.33 1.04.33.98.33-.9.32.86.33-1.03.33 2.86.33-1.97.32-3.18.33 2.69.33-2.46.33 2.73.32.8.33-1.88.33-1.79.33 4.03.33 2.02.32-.23.33-3.8.33 3.71.33-.22.32-2.6.33-.13.33-1.03.33 3.45.33-4.3.32-.54.33 1.03.33 2.73.33-1.21.32-.62.33.8.33-.22.33.22.33 1.75.32-5.02.33 3.85.33-.89.33-3.54.32 2.78.33-2.74.33 7.62.33-2.38.33-1.61.32-1.12.33 2.69.33.04.33-1.07.32-1.61.33-2.42.33 7.39.33-7.57.33 7.52.32-2.95.33-4.3.33 4.66.33-.41.32-.71.33 2.15.33-.32.33-1.21.33-2.01.32.54.33.4.33-1.21.33 3.36.32-4.17.33 1.79.33 2.65.33-1.84.32 1.21.33-1.66.33.94.33-5.73.33 2.33.32 1.39.33 4.66.33-2.29.33-5.19.32 2.91.33 2.24.33 3.22.33-2.77.33-1.62.32.45.33-3.22.33 7.12.33-5.56.32 5.56.33-7.21.33 5.01.33-4.48.33 4.3.32-1.56.33-2.47.33 2.33.33.05.32-1.44.33 3.68.33-4.66.33.67.33 2.37.32-1.3.33 1.08.33-1.93.33 6.9.32-2.33.33-3.54.33 1.71.33-1.17.33-2.64.32 2.42.33-2.74.33 1.53.33 4.66.32-1.3.33-5.51.33 2.28.33-.04.33 1.92.32-1.16.33-.94.33 3.67.33-3.54.32-.27.33 1.53.33.04.33-2.24.32 1.93.33-1.53.33-2.15.33 7.71.33-2.06.32-3.67.33.76.33.94.33 1.07.32-.71.33.94.33-.36.33-3.18.33.09.32.67.33 4.84.33-3.68.33.32.32 1.07.33-3.22.33 2.33"/><use xlink:href="#a" color="#3B75EA" transform="matrix(4.5 0 0 4.5 355.09 101.12)"/><use xlink:href="#a" color="#3B75EA" transform="matrix(4.5 0 0 4.5 65.45 31.26)"/></g><text stroke-linecap="round" stroke-linejoin="round" color="#000" font-family="Courier" font-size="12" transform="translate(95.12 57.66)"><tspan>LBSTTopDown</tspan></text><g fill="none" stroke="currentColor" stroke-linecap="round" stroke-linejoin="round" color="#000"><path stroke="#29C3F6" stroke-dasharray="4.5,2.0,0.5,2.0,0.5,2.0" d="M44.17 53.76h42.56m-53.17 81.67.33-.63.33-4.03.32 3.36.33-1.3h.33l.33 1.84.32-3.45.33.18.33.13h.33l.33-.4.32 1.84.33-.05.33-1.3.33 3.45.32-2.1.33-.41.33-1.16.33 3.67.33-3.99.32 1.35.33-.09.33 2.42.33-2.02.32-1.79.33 3.31.33-.4.33-.13.32-3.86.33 2.65.33.22.33-.13.33.22.32.94.33-.98.33-2.33.33 4.83.32-3.53.33-1.17.33 2.38.33-.36.33-.9.32 1.35.33-1.26.33.18.33.58.32.5.33-.9.33-2.11.33 1.44.33 2.46.32-4.34.33 2.64.33.89.33-2.68.32 1.56.33 4.62.33-2.02.33-2.95.33 4.03.32-2.56.33-.04.33-.81.33-1.43.32 1.7.33.63.33 1.21.33-1.97.33-.09.32-1.12.33 3.81.33-3.36.33 2.5.32-1.52.33 1.12.33-3 .33.22.33-.31.32 3.36.33.27.33-1.52.33 3.22.32-2.6.33 1.08.33-4.12.33 3.31.32-.18.33-1.25.33-.67.33.8.33 1.66.32.54.33-5.2.33 2.78.33-1.34.32.17.33.59.33 1.16.33-.58.33.4.32.67.33-2.24.33-.26.33-.9.32 4.3.33.49.33-1.21.33-.22.33 1.7.32-2.87.33 1.57.33-4.92.33 2.32.32 1.48.33.09.33.45.33-1.03.33-.76.32 1.88.33-.54.33-1.16.33 2.73.32-2.73.33.89.33-2.24.33 1.08.33 2.15.32-.63.33.99.33-1.3.33.98.32.05.33-1.79.33 1.3.33-1.12.33 1.97.32-2.6.33-.81.33 2.74.33-.99.32-2.55.33 3.71.33-3.53.33 4.61.32 1.16.33-3.62.33-.36.33 4.12.33-.72.32-1.66.33.18h.33l.33-.98.32-1.52.33 1.7.33.53.33-.8.33-4.48.32 2.82.33 3.45.33.49.33-2.1.32.85.33-.94.33 1.79.33 1.93.33-1.44.32-3.49.33 2.28h.33l.33-2.51.32-.89.33-1.97.33 3.94.33 1.52.33-.4.32-.54.33-.04.33-.59.33-3.44.32 2.86.33.85.33-.62.33.89.33.85.32-2.24.33-.76.33 2.29.33 2.06.32-2.65.33 2.69.33-2.01.33-.27.32.22.33 1.61.33-3.76.33 2.42.33-1.25.32 3.13.33-1.61.33-.36.33 1.34.32-.31.33 1.61.33-1.7.33-.94.33.36.32-.14.33-.85.33-.94.33 1.08.32-.85.33-.18.33 2.51.33-1.57.33.49.32.9.33-.63.33-.45.33-4.07.32 1.56.33-1.21.33 4.89.33-.68.33-6.89.32 5.86.33.63.33 2.51.33-4.79.32 3.18.33.62.33-1.12.33-.44.33 2.33.32-3.5.33 1.17.33-.41.33 1.57.32-3.58.33 1.3.33 3.4.33-2.06.33-1.25.32-.72.33 4.34.33-2.32.33-2.38.32.81.33 2.73.33-.94.33 1.12.32.31.33-5.1.33.22.33 3.32.33.13.32 1.7.33-2.78.33-.71.33-.18.32 3.36.33-2.29.33-.09.33-.44.33-1.48.32 3.63.33 1.43.33-2.6.33-1.66.32 1.08.33-.18.33-1.43.33.36.33.8.32.67.33 2.2.33.54.33-3.18.32-.05.33.45.33 2.78.33.09.33-4.84.32 2.1.33 2.82.33-2.46.33-1.3.32.45.33 1.88.33 1.03.33-1.79.33.4.32.85.33-2.15.33-.8.33.71.32.05.33 1.48.33-3.18.33 4.39.33-1.08.32-2.06.33 2.87.33-.54.33-3.4.32 3.98.33-.89.33-.23.33.81.32-1.66.33-2.06.33 1.88.33 1.12.33 2.02.32-4.75.33 1.16.33 2.02.33-.49.32-3.41.33 3.23.33-1.26.33-1.74.33 2.28.32-1.07.33-.94.33 4.48.33-3.63.32.94h.33l.33 3.36.33-4.57.33 2.87.32-1.35.33.72.33 1.97.33-2.24.32-3.05.33 1.17.33.63.33.4.33-2.06.32.63.33 1.43.33-.49.33.4.32 2.87.33-3.01.33 2.29.33-1.66.33-.22.32 2.77.33-1.56.33-2.6.33.67.32.54.33-2.55.33 3.4h.33l.32-3 .33 2.73.33-.45.33 1.53.33-.23.32 1.03.33-1.83.33-2.33.33 1.52.32 1.03.33.45.33 1.07.33-4.07.33 3.27.32-1.08.33-1.25.33.71.33.59.32-.05.33-.72.33 2.47.33-3.54.33 1.25.32 1.8.33-1.89.33.36.33 2.87.32-2.64.33 1.74.33-3 .33.36.33 1.25.32-.62.33-1.79.33 4.56.33-3.27.32 1.39.33-3.4.33.98.33 1.8.33-1.57.32.36.33.13.33 1.97.33-.62.32 1.07.33-3.05.33 1.66.33-.63h.33l.32 1.75.33-2.64.33 3.22.33-2.19.32.72.33-1.17.33-2.46.33 2.24.32 4.16.33-4.52.33 1.03.33.36.33 2.51.32-2.24.33-.5.33-1.21.33 2.56.32.27.33-1.89.33 1.84.33-.13.33.22.32-.45.33.41.33-1.17.33 2.78.32-3.45.33-1.52.33 3.13.33-1.03.33.14.32.8.33-2.24.33 2.6.33-3.09.32 3.72.33-3.05.33 3.59.33-5.47.33 1.52.32.05.33-1.12.33 3.45.33-.09.32-3.59.33.18.33 3.09.33-2.01.33 5.87.32-5.56.33.72.33.36h.33l.32 1.92.33-1.92.33 1.25.33-2.1.33 2.01.32-.22.33-2.33.33 3.27.33-2.51.32-.67.33-1.17.33 3.09.33-.71.32.58.33 3.31.33-4.21.33 2.51.33-2.64.32.94.33.76.33 1.21.33 1.34.32-4.38.33-.18.33 1.47.33-2.01.33 2.24.32-1.12.33 1.48.33.31.33-.36.32-.63.33 1.48.33-5.28.33 1.79.33 1.43.32-3.22.33 3.22.33-1.07.33.45.32 1.03.33-1.53.33 1.44.33-1.84.33 1.93.32.58.33-3.85.33 4.12.33-1.75.32 1.07.33 1.26.33-.45.33-1.97.33-.4.32-.18.33.4.33-.94.33-.31.32.44.33 4.57.33-5.28.33.63.32 4.7.33-4.79.33 2.64.33-.18.33-1.39.32 1.61.33-.71.33.09.33 1.97.32-3.32.33 3.05.33-3.36.33-.45.33 3.9.32-1.26.33.36.33-2.73.33 2.33.32.27.33-1.17.33-1.25.33-.54.33.67.32 1.44.33.22.33 1.08.33-1.17.32 3.27.33-5.69.33.9.33 1.88.33-1.08.32-.98.33.22.33.63.33.27.32-.94.33-1.12.33 4.97.33-3.36.33.36.32.76.33.49.33 1.08.33-3.85.32 1.88.33-.85.33 3.27.33-2.42.33-1.21.32 1.92.33-3.67.33 4.97.33-3.04.32 2.51.33-3.32.33 2.15.33-1.03.32.36.33-.99.33 1.53.33-.32.33.27.32-.67.33 2.96.33-2.83.33-3.04.32 1.61.33.45.33 1.03.33-.85.33 1.07.32-.31.33 1.57.33-3.63.33 2.33.32 1.25.33 2.87.33-3.72h.33l.33 1.08.32-2.24.33 1.7.33 1.52.33-.27.32-3.04.33 3.49.33-4.97.33.63.33 2.19.32-1.61.33-.99.33 5.06.33-4.3.32 2.47.33 1.43.33-2.46.33.27.33-.5.32.05.33 1.03.33-3.14.33 1.62.32-3.05.33 3.45.33-.05.33-1.97.33 1.03.32 1.08.33.94.33.85.33-3.27.32 2.11.33.22.33-.45.33-1.75.32 3.36.33-1.38.33 2.15.33-1.66.33-1.7.32 1.25.33-.31.33 2.28.33-3.36.32 2.73.33-1.74.33-.18.33.54.33-.77.32.09.33-.09.33-2.1.33 3.45.32.31.33.85.33 3.18.33-9.31.33 5.28.32-.54.33-.31.33.36.33-1.3.32 1.48.33-.45.33-1.08.33-.13.33.58.32-1.74.33 1.79.33 3.94.33-4.79.32 1.21.33-2.02.33.58.33-1.65.33 3.94.32-2.02.33.85.33-.27.33 1.75.32-1.88.33 1.66.33-1.66.33-1.66.32 1.79.33 1.03.33-1.83.33 2.46.33-3.99.32 3.99.33-.98.33-.41.33 1.17.32-2.11.33-3.4.33 2.37.33 1.66.33 1.25.32-.89.33.58.33-1.66.33 1.84.32-.54.33 1.97.33-2.28.33 1.07.33-2.82.32 1.84.33-.94.33.35.33-.13.32-.85.33 5.24.33-4.17.33 1.12.33-1.97.32-1.52.33 6.45.33-2.46.33.04.32-1.03.33-1.75.33-.89.33 4.3.33-2.11.32 3.72.33-4.79.33 1.3.33-.63.32 3.54.33-2.64.33-1.12.33-.45.33-2.51.32 5.64.33-3.71.33.31.33-1.43.32 7.12.33-1.75.33-2.69.33-1.12.32 2.29.33 1.34.33-3 .33.99.33-1.3.32 2.51.33-1.75.33-.76.33 1.43.32-.94.33-1.88.33 2.64.33-.04.33-2.47.32 1.57.33.63.33 1.3.33-1.48.32.76.33-2.69.33.99.33-.36.33 2.69.32-.99.33-1.07.33.18.33 1.43.32.18.33-3.32.33 2.74.33 1.3.33-2.69.32 3.4.33-4.57.33 3.59.33.09.32-3 .33-.86.33 3.36.33.45.33.63.32-1.93.33 2.47.33-2.33.33 1.79.32-.85.33.04.33.05.33-.9.33-3.94.32 5.33.33-2.91.33 1.16.33-.58.32.18.33 2.46.33-3 .33-.98.32 3.36.33-.9.33.31.33 1.93.33-3.14.32.77.33-1.17.33 1.52.33.59.32-.81.33-.94.33-1.3.33 1.52h.33l.32 2.69.33-1.61.33-.67.33.8.32 3.9.33-4.84.33 1.7.33-1.65.33.85.32-2.24.33.18.33 3.49.33-1.48.32-.94.33-1.74.33 3.67.33-1.75.33-.09.32.99.33-3.59.33 2.24.33 3.45.32-2.59.33-.5.33-.4.33-1.57.33 3.36.32-.63.33 1.84.33-.45.33-4.07.32 3.67.33-1.39.33-1.25.33 1.88.32-2.55.33-1.21.33 4.3.33-3.86.33 2.96.32.76.33-1.34.33-1.93.33 2.06.32-.22.33.54.33-1.21.33.58.33 1.75.32-.54.33-1.21.33 2.95.33-3.49.32 1.21.33-2.46.33 2.28.33.27.33-.99.32-.89.33.85.33 1.25.33-.31.32 1.66.33-1.75.33-4.34.33 2.5.33.63.32.76.33-1.39.33 5.16.33-3.59.32-1.66.33 2.78.33-.8.33-4.17.33 4.52.32 1.93.33-4.12.33 3.63.33-1.03.32-1.97.33-.63.33.54.33.85.33-1.21.32 1.43.33 3.36.33-2.24.33-1.57.32-.89.33 1.57.33-.9.33 4.57.32-3.99.33-.45.33 1.89.33-1.21.33-.9.32.58.33-1.92.33 1.07.33-.27.32 1.53.33-2.6.33 2.91.33 1.25.33-2.73.32-.85.33 2.11.33-.99.33-.27.32 3.23.33-.45.33.4.33-.31.33-3.14.32 1.75.33-.9.33-2.46.33 1.16.32 1.21.33-2.19.33 3.72.33-.18.33-1.84.32 1.39.33-1.79.33 1.25.33.45.32-.31.33-.9.33-1.03.33 1.66.33.04.32-2.51.33 1.35.33 3.54.33-1.88.32-.68.33-2.51.33 4.71.33 2.19.33-2.1.32-3.36.33-.14.33.77.33.58.32 1.52.33 1.12.33-2.55.33 1.16.32-1.66.33.18.33 1.53.33 1.56.33-3.27.32-1.34.33 1.03.33 1.84.33 1.16.32-1.79h.33l.33-.76.33 2.55.33-1.74.32-.23.33-1.43.33 2.42.33-1.26.32 1.21.33-1.48.33-.13"/><use xlink:href="#d" color="#29C3F6" transform="matrix(4.5 0 0 4.5 84.69 133.14)"/><use xlink:href="#d" color="#29C3F6" transform="matrix(4.5 0 0 4.5 65.45 53.76)"/></g><text stroke-linecap="round" stroke-linejoin="round" color="#000" font-family="Courier" font-size="12" transform="translate(255.14 35.16)"><tspan>WBSTBottomUp</tspan></text><g fill="none" stroke="currentColor" stroke-linecap="round" stroke-linejoin="round" color="#000"><path stroke="#D336C8" d="M204.19 31.26h42.56M33.56 133.19l.33.36.33.13.32-1.39.33 1.03.33 1.3.33.14.32 1.07.33.36.33-1.25.33-1.48.33 1.88.32-1.84.33-2.37.33 1.39.33 4.7.32-3.36.33.63.33 2.1.33-2.37.33-.72.32-2.19.33 3.04.33-2.77.33 3 .32-.99.33 1.88.33-2.46.33.09.32-.4.33.27.33-1.89.33.32.33 2.73.32 1.43.33-.94.33.76.33-3.71.32-2.42.33 5.33.33-1.26.33 2.87.33-3.49.32 2.86.33-.09.33-3.85.33-.85.32.49.33 3.09.33-.62.33-3.41.33 2.02.32-.76.33 3.94.33.45.33-2.33.32-.72.33-.31.33 2.91.33 1.39.33-3.68.32 3.9.33-5.78.33.32.33 3.4.32-.98.33-2.87.33 2.42.33-.58.33 1.07.32 1.66.33-2.38.33 2.24.33-5.37.32 2.06.33.27.33 1.52.33 3.05.33-2.87.32-1.7.33.27.33 2.73.33-2.15.32 2.6.33.18.33-1.21.33-3.5.32 2.29.33 1.07.33-4.7.33 2.33.33 2.06.32-1.75h.33l.33 1.84.33-1.03.32-.41.33-2.64.33 6 .33-3.36.33-.62.32-.23.33 1.93.33-1.12.33 1.93.32-.99.33-1.93.33-.18.33 2.83.33.8.32-.44.33-3.59.33 2.11.33.89.32-.8.33-2.15.33.44.33 1.17.33.36.32-.36.33-.99.33.14.33.04.32.63.33.72.33.31.33 1.57.33 1.88.32-1.75.33.49.33-.44.33-1.57.32-.49.33-1.71.33 1.84.33-.85.33.58.32-.89.33 1.52.33-1.17.33-.17.32.98.33-.31.33 1.52.33-.72.32-2.33.33-2.06.33 3.32.33 1.39.33-1.88.32.85.33.8.33-.62.33 2.24.32-2.69.33 1.97.33-3.63.33-.31.33 3.09.32-4.93.33 2.6.33.98.33 3.9.32-3.45.33-2.77.33 4.07.33.76.33-3.18.32 2.78.33-3.05.33.94.33-4.07.32 5.37.33.05.33-1.66.33-.85.33-.4.32 2.33.33-.14.33 1.08.33.44.32-3.85.33 2.69.33-1.21.33.13.33-.49.32 1.08.33.58.33-2.46.33 3.36.32-3.14.33 1.52.33-1.43.33 1.39h.32l.33 2.15.33-4.53.33 2.87.33.31.32-2.01.33 1.03.33-.99.33-2.77.32 4.48.33-1.84.33-.9.33 1.88.33 3.01.32-3.63.33.85.33 1.3.33-1.3.32.13.33-.09.33 1.57.33-2.01.33-1.89.32 1.89.33 2.5.33-1.74.33-1.39.32-1.48.33 1.79.33 2.2.33-3.41.33 2.82.32-.58.33-4.16.33 3.49.33 1.66.32-1.57.33.67.33 2.15.33-.89.33-1.53.32 1.62.33-2.6.33-.85.33 2.64.32-2.24.33.72.33-.23.33 2.2.33-2.29.32 1.44.33.13.33-1.75.33 1.71.32-1.44.33.49.33.23.33.58.32-.72.33-1.12.33.63.33.99.33.22.32-1.21.33.4.33 1.44.33-.41.32 1.35.33-.58.33-2.47.33 3.36.33-2.01.32.76.33 2.6.33-5.56.33 2.69.32 1.61.33-1.61.33-1.52.33-.09.33 1.52.32-.36.33-.58.33.18.33.63.32.89.33-.94.33-2.15.33 3.14.33-1.84.32-.63.33 1.3.33-.36.33 1.3.32-1.83.33.4.33 2.69.33-3.09.33 2.32.32-2.32.33 3.22.33-1.61.33-.32.32-.8.33 2.01.33-1.74.33-1.26.33.81.32 1.66.33-3.36.33-.18.33 2.86.32-1.65.33 1.65.33-.09.33-1.16.32 2.73.33-3.98.33 2.55.33.13.33-.27.32 1.71.33-2.82.33.08.33.54.32.05.33-1.79.33 2.23.33.18.33-2.33.32 1.53.33.09.33.62.33-2.37.32 1.08.33-.9.33.54.33-.23.33-.18.32 3.09.33-3.85.33 1.35.33 3.85.32-1.48.33-1.39.33-2.24.33 4.08.33-.81.32 1.52.33-2.59.33-2.42.33 1.07.32 1.75.33-1.07.33-2.78.33 2.64.33-.9.32 1.08.33.4.33-2.19.33 4.12.32-.18.33-2.06.33 2.82.33-2.6.32 1.8.33.67.33-.63.33-3.49.33-.99.32 2.82.33 3.5.33-3.9.33 2.15.32.22.33-2.06.33-1.16.33.31.33-.18.32 1.97.33-3.53.33 1.97.33-.86.32-.62.33.09.33 3.31.33.23.33.26.32.05.33-3.32.33-2.28.33 3.99.32.71.33-3.71.33-.99.33 3.49.33 1.21.32-.85.33-1.21.33-1.16.33 1.34.32 1.12.33-.8.33 1.21.33-1.12.33-2.2.32 3.05.33-2.11.33-1.61.33 4.61.32-1.92.33 3.04.33-3.13.33 3.45.33-3.36.32 1.47.33-1.61.33-2.55.33.94.32 3.05h.33l.33-.14.33-.36.32-1.03.33 1.66.33-.85.33-1.3.33 5.33.32-5.33.33 4.52.33-.53.33-2.56.32-1.56.33 6.09.33-4.17.33-.4.33 1.7.32.94.33-2.78.33.36.33 1.08.32-2.51.33 1.52.33.23.33-5.47.33 5.96.32-1.08.33.45.33-2.01.33 3.67.32-2.82.33.94.33-.9.33-.04.33.31.32.76.33 2.11.33-2.29.33-2.42.32 1.97.33-.85.33-.18.33 1.93.33.49.32-.98.33-.27.33.63.33-1.39.32 2.51.33-2.2.33-2.37.33 1.65.33 1.35.32.8.33-2.82.33 1.26.33-.94.32 1.7.33-.36.33 2.28.33-1.74.32 1.48.33-3.27.33 1.52.33.63.33-1.71.32 4.57.33-2.73.33-2.19.33.17.32 4.62.33-2.82.33-1.26.33 2.24.33-1.52.32-1.66.33 1.26.33-.86.33-.17.32-2.02.33 3.18.33-.58.33 1.97.33-.36.32-2.91.33-1.17.33 2.47.33 3.54.32-.81.33-2.46.33-.45.33.31.33.18.32.85.33-.76h.33l.33 2.42.32-.81.33-.18.33.05.33-3.45.33 2.28.32.54.33-2.01.33.71.33-.36.32 2.06.33-1.7.33-1.16.33 4.48.32-5.29.33 5.15.33-.18.33-3.53.33 2.86.32-.13.33-1.79.33-1.71.33 2.29.32 1.07.33.05.33-.85.33 1.07.33-.85.32-1.7.33 1.25.33-2.55.33.63.32 5.37.33-5.64.33 2.37.33-.76.33 3.14.32-.81.33-2.78.33 1.7.33-.53.32.62.33-3.89.33 5.51.33-1.17.33 2.24.32-1.21.33-2.46.33 3.4.33.27.32-3.89.33-2.24.33-1.89.33 2.96.33 1.97.32 2.42.33-3.27.33 1.97.33-3.27.32.45.33 2.64.33 2.02.33-2.15.33-3.54.32 2.01.33.41.33-.36.33 1.07.32.45.33-.49.33-.49.33 1.79.32-4.66.33.63.33 1.88.33 1.34.33-2.24.32.94.33 1.35.33-1.62.33.5.32-.09.33.54.33-1.39.33 2.82.33-3.36.32 4.25.33.9.33-4.39.33 1.75.32 2.86.33-1.52.33-2.78.33.18.33-.4.32 1.61.33 1.62.33-3.59.33-.27.32 1.57.33 3.41.33-2.07.33-2.77.33-1.17.32 3.5.33-.94.33-4.71.33 3.32.32 1.74.33-.67.33-.18.33-2.06.33.18.32 2.06.33.09.33-1.88.33 2.2.32.44.33-2.82.33 1.75.33 2.82.33-3.9.32 2.2.33-1.39.33-3.14.33 6.5.32-4.21.33-.31.33 1.92.33-.98.32 1.97.33-3.77.33 4.08.33.49.33-2.42.32.94.33 1.62.33-4.12.33 4.16.32-2.69.33.72.33-.04.33-2.2.33 1.66.32.27.33-.72.33-1.84.33 3.05.32-2.96.33.54.33 2.06.33 1.39.33-.67.32-.09.33 1.75.33-1.8.33 1.12.32-2.95.33 1.61.33-2.28.33 3.8.33.14.32-3.99.33 1.61.33-.44.33 3 .32-.05.33-.54.33-3.58.33 3 .33-2.64.32 1.75.33-1.35.33 3.81.33-1.7.32-1.48.33 3.31.33-1.79.33.41.32-1.03.33-2.06.33 1.7.33 1.3.33-1.84.32 1.43.33-2.82.33 2.46.33-.08.32-1.3.33 2.01.33-.4.33-.72.33-1.61.32.94.33-2.15.33 3.49.33-.4.32-3.67.33 1.74.33 1.35.33-3.41.33 2.02.32 2.24.33 2.42.33-4.03.33-.27.32 2.95.33.23.33-4.21.33 3.72.33-1.3.32-1.62.33 3.68.33-1.12.33-.58.32-1.3.33 2.37.33-.99.33.23.33-2.91.32.53.33 2.96.33-1.48.33.45.32 1.08.33.18.33 2.01.33-3.09.33.09.32-1.43.33 4.97.33-4.88.33-.72.32 2.19.33-2.73.33 1.93.33 1.21.32-2.56.33.68.33 1.12.33.8.33-1.88.32-1.61.33 4.16.33-4.97.33.27.32 3.9.33-1.3.33-3.18.33 3.18.33 1.84.32-2.11.33.81.33-.59.33-.94.32 3.32.33-3.72.33 1.43.33 1.39.33-.49.32 1.57.33-1.17.33-2.51.33.14.32 2.42.33-3.41.33 6.01.33-5.34.33.72.32 2.29.33-.5.33-2.01.33 1.21.32-1.12.33 1.3.33-2.15.33 4.34.33-1.97h.32l.33-.9.33-.09.33 2.02.32-1.21.33.94.33-4.16.33 1.21.33 1.56.32-1.43.33 3.36.33-2.24.33 2.28.32.36.33-1.48.33.45.33-1.83.32.22.33-.54.33.32.33-.05.33 2.42.32.27.33-1.7h.33l.33-.45.32 1.97.33-2.51.33 1.17.33.85.33 1.61.32-5.82.33 4.07h.33l.33-1.66.32 1.71.33-.9.33-.58.33.18.33.62.32-.17.33.04.33-.9.33.63.32.94.33-1.34.33 2.55.33-1.7.33.31.32-1.21.33 1.57.33-1.57.33-1.92.32 1.48.33.4.33-1.39.33 2.73.33.32.32 2.28.33-2.55.33-1.88.33-1.71.32 1.53.33.98.33.18.33-.4.32-.45.33 3.14.33-2.06.33-1.03.33.13.32-.31.33-1.88.33 1.65.33.5.32 1.07.33.81.33-.23.33-3.63.33 3.72.32-1.43.33-.31.33 2.06.33-2.47.32 1.52.33.99.33-3.14.33-1.52.33 2.06.32-.85.33.85.33-1.07.33 2.77.32-1.52.33-.58.33 3.18.33-1.88.33.27.32-1.44.33.94.33-1.21.33 2.83.32-1.48.33-.49.33-2.78.33 4.12.33-4.12.32 3.4.33-3.22.33 5.19.33-3.36.32 3.63.33-1.52.33-.36.33.18.33.85.32-1.97.33.31.33-1.65.33.62.32.86.33-1.39.33-1.62.33 1.8.32-1.3.33 4.34.33-2.51.33 1.48.33 1.66.32-2.87.33 1.26.33-2.78.33 1.3.32 1.83.33-2.86.33 2.46.33.58.33-4.57.32 3.9.33.32.33 2.59.33-5.19.32 1.97.33-1.35.33 2.6.33-1.92.33 2.73.32-.49.33-1.8.33-.22.33-.49.32 1.07.33-1.03.33.72.33-1.3.33.9.32 1.16.33-.4.33-1.26.33 1.62.32-1.12.33-1.26.33 2.6.33.67.33-3.45.32 3.36.33-1.88.33-.27.33-.31.32-1.43.33 3.13.33.49.33-1.25.33-.72.32 1.79.33 1.3.33-.98.33 2.15.32-2.2.33-3 .33 1.88.33 2.74.32-2.65.33.76.33-.8.33-2.15.33 4.57.32-2.33.33-.67.33 3.13.33-.04.32-1.89.33-1.79.33.63.33 1.3.33-.9.32-.18.33-2.28.33 2.02.33 1.34.32-.4.33.18.33.85"/><use xlink:href="#b" color="#D336C8" transform="matrix(4.5 0 0 4.5 138.77 134.17)"/><use xlink:href="#b" color="#D336C8" transform="matrix(4.5 0 0 4.5 225.47 31.26)"/></g><text stroke-linecap="round" stroke-linejoin="round" color="#000" font-family="Courier" font-size="12" transform="translate(255.14 57.66)"><tspan>WBSTTopDown</tspan></text><g fill="none" stroke="currentColor" stroke-linecap="round" stroke-linejoin="round" color="#000"><path stroke="violet" stroke-dasharray="4.5,2.0,0.5,2.0,0.5,2.0" d="M204.19 53.76h42.56M33.56 132.88l.33 2.77.33-1.25.32-2.69.33 2.24.33-1.12.33.76.32.27.33.54.33-2.24.33 2.15.33-1.34.32.98h.33l.33-1.48.33-1.56.32 6 .33-.27.33-3.32.33 1.57.33-1.34.32-.94.33-1.26.33 3.36.33-1.07.32 1.97.33-1.93.33-3.04.33 2.82.32 1.83.33 1.12.33-4.79.33 1.12.33-1.34.32 2.01.33-1.34.33 3.58.33-1.7.32-2.19.33 1.12.33 1.61.33-2.42.33-1.34.32 1.7.33-.94.33 4.43.33-1.43.32-.4.33 1.2.33.81.33-3.94.33 3.54.32-3.05.33.18.33 1.26.33-1.48.32-.14.33.76.33 1.26.33 1.75.33-3.32.32 3.09.33-.18.33-2.24.33-.58.32 2.28.33-2.28.33-.18.33-.27.33 1.66.32-2.51.33.45.33 3.27.33-.36.32-3.49.33 1.61.33 1.25.33-2.86.33 2.64.32.31.33-3.04.33 2.95.33 1.26.32-2.02.33-1.43.33-.85.33 5.06.32-2.33.33-1.75.33 2.11.33 1.79.33-2.73.32.89.33.23.33-1.84.33.05.32 2.33.33-.9.33.45.33 1.79.33-4.48.32 2.19.33 2.2.33-1.84.33-3.67.32 3.63.33-.32.33.41.33-3.9.33 2.33.32-.09.33-1.21.33 2.91.33-1.3.32.85.33-2.01.33 2.28.33-.98.33 1.88.32-3.49.33 2.28.33-.81.33-.85.32 1.12.33.9.33-1.21.33-1.75.33.36.32 1.39.33-.72.33 3.54.33-3.18.32.67.33-.62.33 3.26.33-3.49.33 2.42.32-1.57.33-1.66.33 2.96.33-2.15.32.49.33-.8.33-1.08.33 3.81.32-.85.33-1.39.33-.58.33.71.33-.76.32.09.33 2.6.33-3.36.33 1.79.32 1.53.33-2.15.33.76.33 2.01.33-1.92.32.67.33-1.75.33 3.05.33-3.27.32 2.15.33-1.61.33.44.33-.8.33 1.61.32.49.33-.04.33-4.03.33.8.32 1.84.33 2.1.33-2.24.33 1.8.33-1.44.32-.04.33 1.66.33.17.33-.35.32.18.33-.32.33-1.21.33-.09.33 1.03.32-2.64.33 2.73.33-.49.33.9.32-.32.33.85.33.45.33-1.39.32-1.21.33-3.4.33 2.64.33 2.38.33-2.29.32.36.33.18.33 1.07.33.54.32-1.92.33.71.33.23.33.22.33-1.21.32 2.06.33.9.33.62.33-.31.32-2.64.33 1.16.33-1.83.33.89.33-1.43.32-1.35.33 2.47.33-.4.33 1.65.32.05.33-.94.33-1.39.33 2.86.33-1.47.32.98.33.05.33-3 .33 3.18.32.09.33-3.05.33 2.24.33-4.52.33.71.32 3 .33 2.6.33-3.72.33.76.32.68.33-.54.33-.45.33 2.64.33.09.32-1.03.33-1.97.33-1.52.33.98.32 3.68.33-.14.33-3.18.33-1.21.32-.89.33 2.19.33 1.66.33.99.33-2.65.32 2.56.33.76.33-.81.33-3.45.32 3 .33-2.77.33 2.06.33.49.33-.22.32-2.47.33.99.33.31.33.09.32-.81.33-.89.33 1.52.33 1.17.33-.5.32-.76.33-.45.33 2.92.33 1.16.32-5.73.33 1.92.33-1.83.33 4.39.33-2.96.32.27.33 2.69.33-1.71.33.68.32.17.33-.94.33-.98.33.89.33-.35.32 2.41.33 1.12.33-.76.33-.27.32-4.74.33 2.46.33-1.48.33 2.24.33-4.34.32 2.64.33 2.28.33-3.8.33 3.22.32.81.33-1.97.33 1.25.33.67.32 1.53.33-3.77.33 2.06.33-1.38.33 1.2.32.27.33-3.31.33 2.69.33.89.32-1.21.33-.49.33-.27.33 1.57.33-1.34.32.13.33 2.02.33-1.26.33-.36.32.63.33-1.21.33.67.33-.45.33-2.64.32 4.75.33-.4.33-.94.33 1.38.32-5.46.33 4.66.33-2.82.33.98.33.67.32.99.33.94.33-3.9.33 3.59.32-1.21.33-2.6.33.45.33 2.55.33-1.03.32-1.52.33 4.3.33-.72.33-.09.32-2.82.33 2.78.33-1.57.33-.45.32 1.93.33 1.47.33-5.1.33 3.4.33-2.06.32.76.33 1.12.33 1.03.33-3.45.32.81.33-.49.33.31.33 1.17.33.58.32 3.18.33-5.69.33 4.34.33-2.77.32.49.33-1.25.33.89.33 2.24.33-4.75.32 2.78.33.13.33-2.37.33 3.54.32-1.3.33 1.12.33 1.34.33-3.27.33-1.65.32.58.33.04.33 1.71.33.22.32-.81.33-.22.33 1.52.33-.8.33-2.24.32 1.07.33 1.39.33-1.39.33.49.32 2.33.33-5.37.33 3.99.33.85.33-.77.32-2.15.33-.53.33 3.72.33-1.39.32-1.71.33.95.33.31.33.58.32-1.93.33-1.16.33 3.76.33.18.33-3.13.32 5.28.33-3.72.33.63.33.58.32-4.21.33 3.81.33.49.33-1.92.33.89.32 2.91.33-5.5.33 1.7.33-.59.32 1.21.33 2.47.33-3.68.33 3.14.33-1.88.32-.67.33-.32.33 1.03.33 1.3.32-1.39.33.63.33.54.33 1.92.33-3.18.32 2.33.33.68.33-1.62.33.23.32-2.6.33 1.93.33-.95.33-.4.33-.4.32-1.08.33 2.78.33-.85.33-2.82.32 2.55.33 3.94.33-1.21.33-1.52.33-.9.32 1.84.33-.31.33-.81.33-1.43.32.89.33.09.33-1.56.33 4.21.32-1.57.33 1.34.33-3.76.33 1.61.33-2.73.32 2.64.33 1.03.33 1.93.33-2.87.32 1.79.33-3 .33 2.24.33-1.25.33-2.73.32 1.52.33.98h.33l.33 2.65.32-3.81.33 4.12.33-3.67.33 2.91.33-1.52.32.62.33-1.07.33.54.33-.05.32-1.39.33-.22.33.45.33 1.38.33-1.61.32 4.26.33-4.53.33-1.39.33 2.92.32-.54.33-.9.33 2.6.33-.63.33.23.32-.18.33-1.39.33.67.33-.27.32 1.97.33.05.33-2.78.33 1.39.32-.58.33.22.33-.8.33.13.33 4.08.32-2.65.33 1.08.33-2.02.33 3.14.32-5.6.33 4.48.33-1.52.33-.41.33-1.97.32 2.06.33-2.37.33.94.33 4.12.32.49.33-5.01.33 5.42.33-2.78.33.31.32-.36.33.94.33-1.83.33 1.48.32-3.81.33 2.82.33-1.16.33-.95.33.14.32 2.51.33 1.12.33-1.17.33-1.52.32 1.79.33.67.33-1.47.33 1.97.33-.5.32-1.03.33-1.34.33 1.88.33-2.78.32 1.66.33-.13.33-1.53.33 1.75.33 1.88.32-2.55.33 1.3.33 1.83.33-1.21.32-1.16.33-2.91.33 5.02.33-3.32.32-1.7.33 1.92.33 2.51.33.9.33-2.64.32-.77.33-.04.33 3.81.33-4.03.32.09.33 2.32.33-.8.33-2.78.33 1.88.32 2.02.33-2.2.33-.13.33.27.32-1.53.33 1.35.33-2.15.33-1.7.33 5.24.32.27.33-2.96.33 5.46.33-3.62.32-.5.33-.49.33 1.34.33.5.33-.09.32-1.12.33 1.39.33-1.08.33-2.24.32 3.67.33-.62.33-.76.33.26.33-3.94.32 2.74.33 2.82.33-1.57.33.85.32-.54.33-.36.33.63h.33l.33-.98.32-.99.33-2.15.33 3.94.33-1.52.32 1.66.33-3.59.33 1.97.33 2.92.32-1.21.33.76.33.54.33-5.07.33 2.11.32-.36.33 2.46.33-2.28.33 2.64h.32l.33-1.52.33-.45.33-.27.33.32.32.44.33 1.57.33-3.22.33.09.32 1.34.33-2.24.33 2.38.33 1.03.33.58.32-4.84.33 3.45.33-1.03.33 1.88.32-2.91.33.63.33.18.33-1.57.33 1.43.32.67.33-1.21.33 2.78.33-.67.32-.94.33.58.33-3.58.33 1.12.33-1.12.32 4.83.33.18.33-1.7.33-2.78.32 4.48.33-2.19.33.94.33-.45.32-3.85.33 1.7.33 2.06.33-2.55.33 2.55.32 1.66.33-1.88.33 1.3.33.8.32-.49.33-1.16.33-1.39.33-1.3.33 3.13.32-2.77.33 4.61.33-.99.33-1.92.32-.54.33-.4.33-.49.33 2.28.33-2.15.32.67.33 1.57.33-3.27.33 4.12.32.94.33-.58.33-.05.33-.18.33.41.32-1.08.33-2.82.33-1.34.33 5.33.32-3.72.33 3.67.33-4.79.33 3 .33-.81.32-2.95.33 3.49.33-1.3.33-2.59.32 2.23.33-.04.33 2.19.33-1.29.33 1.07.32-2.78.33 4.89.33-1.93.33-.94.32 1.57.33.31.33-1.52.33-2.29.32.85.33 1.75.33-.76.33-.81.33 1.48.32-1.3.33-.45.33 2.96.33-1.52.32-.63.33 4.21.33-4.97.33 1.88.33 1.88.32-.62.33.76.33-2.02.33 1.61.32-2.19.33.04.33-.13.33.13.33-1.88.32-.27.33 4.26.33-.99.33-.58.32 1.08.33-.36.33-2.2.33 2.65.33-1.89.32 1.93.33-2.1.33-.5.33-.13.32.8.33-.67.33 2.82.33-.62.33-2.74.32 1.35.33.54.33-1.48.33 3.31.32-1.92.33 1.7.33-.99.33-1.79.33.54.32.58.33-.49.33-.14.33.09.32.05.33-.9.33.76.33.9.32-.99.33.54.33-.13.33-.9.33-.58.32.49.33.9.33-2.24.33-.4.32 2.82.33-.9.33-.27.33 1.66.33-1.43.32 1.3.33.89.33-1.03.33-1.52.32.94.33 2.46.33-3.27.33 1.7.33 1.93.32-4.48.33 3.45.33 1.39.33-3.05.32.99.33-.67.33.94.33-1.75.33.05.32-.63.33.18.33-.18.33 1.16.32 1.71.33-3.68.33 3.45.33-.22.33-2.78.32-.94.33.67.33 2.87.33-1.35.32.72.33-1.93.33.63.33.09.32 4.53.33-6.59.33 3.58.33-.94.33 1.93.32-2.51.33 1.97.33-1.43.33-.22.32.31.33 1.61.33-1.79.33-.63.33.9.32-3.5.33 5.96.33-5.1.33 2.37.32-.13.33 4.25.33-1.97.33-2.55.33 1.52.32 1.75.33-3.54.33 1.61.33-3.05.32-.71.33 3.27.33.49.33 1.57.33-2.78.32 2.06.33 1.08.33-3.05.33 2.91.32-6.31.33 3.4.33.4.33.63.33-1.03.32.36.33-.36.33.49.33-.98.32 2.06.33-2.47.33 1.53.33-.76.33-1.75.32 5.02.33-3.14.33-1.66.33 2.91.32-.8.33-2.02.33 2.73.33-1.11.32 2.41.33-5.15.33.32.33 3.13.33-1.97.32-.4.33 2.6.33-1.71.33-1.92.32 5.15.33-3.32.33-.71.33-.09.33 1.43.32.9.33-.72.33 1.21.33 1.07.32-.22.33-.4.33-2.02.33-1.57.33 1.98.32-.14.33-1.88.33 2.24.33.22.32-.89.33-.72.33.94.33-.49.33 3.63.32-.45.33-1.35.33-1.03.33 2.38.32-1.79.33.62.33-2.41.33-.14.33 3.36.32-2.46.33 1.61.33.18.33-1.3.32 1.84.33-.77.33-1.7.33-1.52.33 2.73.32.72.33-.85.33 2.68.33-3.94.32-2.86.33 3.54.33 1.34.33-3 .32 2.69.33 2.06.33-3.99.33 3.09.33-3.81.32 2.29.33-1.97.33 2.37.33-2.42.32 3.05.33-3.45.33 3.04.33.36.33-3.04.32 3.49.33.85.33-1.84.33-2.1.32 1.21.33-1.84.33 2.78"/><use xlink:href="#e" color="violet" transform="matrix(4.5 0 0 4.5 192.85 134.8)"/><use xlink:href="#e" color="violet" transform="matrix(4.5 0 0 4.5 225.47 53.76)"/></g><path fill="none" d="M33.56 90.01V146m324.48-55.99H33.56" color="#000"/><text stroke-linecap="round" stroke-linejoin="round" stroke-width="0" color="#000" font-family="KaTeX_Main" font-size="8" text-anchor="middle" transform="translate(195.8 17.61)"><tspan font-weight="bold">InsertDeleteSearchPersistent</tspan></text></svg>