<svg xmlns="http://www.w3.org/2000/svg" xmlns:xlink="http://www.w3.org/1999/xlink" viewBox="0 0 400 200"><path fill="none" d="M0 0h400v200H0z"/><defs><path id="a" stroke="currentColor" stroke-width=".222" d="M-1 0h2M0-1v2"/><path id="b" stroke="currentColor" stroke-width=".222" d="m-1-1 2 2m0-2-2 2"/><path id="d" stroke="currentColor" stroke-width=".222" d="M-1 0h2M0-1v2m-1-2 2 2m-2 0 2-2"/><path id="c" stroke="currentColor" stroke-width=".222" d="M-1-1h2v2h-2z"/></defs><g fill="none" stroke-linecap="round" stroke-linejoin="round" stroke-width="0" color="#000"><path d="M63.06 182v-9m0-100.99v9"/><text fill="#000" font-family="Arial" font-size="8" text-anchor="middle" transform="translate(63.06 193.6)"><tspan> 1</tspan></text></g><g fill="none" stroke-linecap="round" stroke-linejoin="round" stroke-width="0" color="#000"><path d="M95.83 182v-9m0-100.99v9"/><text fill="#000" font-family="Arial" font-size="8" text-anchor="middle" transform="translate(95.83 193.6)"><tspan> 2</tspan></text></g><g fill="none" stroke-linecap="round" stroke-linejoin="round" stroke-width="0" color="#000"><path d="M128.61 182v-9m0-100.99v9"/><text fill="#000" font-family="Arial" font-size="8" text-anchor="middle" transform="translate(128.61 193.6)"><tspan> 3</tspan></text></g><g fill="none" stroke-linecap="round" stroke-linejoin="round" stroke-width="0" color="#000"><path d="M161.39 182v-9m0-100.99v9"/><text fill="#000" font-family="Arial" font-size="8" text-anchor="middle" transform="translate(161.39 193.6)"><tspan> 4</tspan></text></g><g fill="none" stroke-linecap="round" stroke-linejoin="round" stroke-width="0" color="#000"><path d="M194.16 182v-9m0-100.99v9"/><text fill="#000" font-family="Arial" font-size="8" text-anchor="middle" transform="translate(194.16 193.6)"><tspan> 5</tspan></text></g><g fill="none" stroke-linecap="round" stroke-linejoin="round" stroke-width="0" color="#000"><path d="M226.94 182v-9m0-100.99v9"/><text fill="#000" font-family="Arial" font-size="8" text-anchor="middle" transform="translate(226.94 193.6)"><tspan> 6</tspan></text></g><g fill="none" stroke-linecap="round" stroke-linejoin="round" stroke-width="0" color="#000"><path d="M259.71 182v-9m0-100.99v9"/><text fill="#000" font-family="Arial" font-size="8" text-anchor="middle" transform="translate(259.71 193.6)"><tspan> 7</tspan></text></g><g fill="none" stroke-linecap="round" stroke-linejoin="round" stroke-width="0" color="#000"><path d="M292.49 182v-9m0-100.99v9"/><text fill="#000" font-family="Arial" font-size="8" text-anchor="middle" transform="translate(292.49 193.6)"><tspan> 8</tspan></text></g><g fill="none" stroke-linecap="round" stroke-linejoin="round" stroke-width="0" color="#000"><path d="M325.26 182v-9m0-100.99v9"/><text fill="#000" font-family="Arial" font-size="8" text-anchor="middle" transform="translate(325.26 193.6)"><tspan> 9</tspan></text></g><g fill="none" stroke-linecap="round" stroke-linejoin="round" stroke-width="0" color="#000"><path d="M358.04 182v-9m0-100.99v9"/><text fill="#000" font-family="Arial" font-size="8" text-anchor="middle" transform="translate(358.04 193.6)"><tspan> 10</tspan></text></g><g fill="none" stroke-linecap="round" stroke-linejoin="round" stroke-width="0" color="#000"><path d="M358.04 182h-9"/><text fill="#000" font-family="Arial" font-size="8" transform="translate(366.43 184.6)"><tspan>0.00</tspan></text></g><g fill="none" stroke-linecap="round" stroke-linejoin="round" stroke-width="0" color="#000"><path d="M358.04 168.25h-9"/><text fill="#000" font-family="Arial" font-size="8" transform="translate(366.43 170.85)"><tspan>0.50</tspan></text></g><g fill="none" stroke-linecap="round" stroke-linejoin="round" stroke-width="0" color="#000"><path d="M358.04 154.5h-9"/><text fill="#000" font-family="Arial" font-size="8" transform="translate(366.43 157.1)"><tspan>1.00</tspan></text></g><g fill="none" stroke-linecap="round" stroke-linejoin="round" stroke-width="0" color="#000"><path d="M358.04 140.75h-9"/><text fill="#000" font-family="Arial" font-size="8" transform="translate(366.43 143.35)"><tspan>1.50</tspan></text></g><g fill="none" stroke-linecap="round" stroke-linejoin="round" stroke-width="0" color="#000"><path d="M358.04 127h-9"/><text fill="#000" font-family="Arial" font-size="8" transform="translate(366.43 129.6)"><tspan>2.00</tspan></text></g><g fill="none" stroke-linecap="round" stroke-linejoin="round" stroke-width="0" color="#000"><path d="M358.04 113.26h-9"/><text fill="#000" font-family="Arial" font-size="8" transform="translate(366.43 115.86)"><tspan>2.50</tspan></text></g><g fill="none" stroke-linecap="round" stroke-linejoin="round" stroke-width="0" color="#000"><path d="M358.04 99.51h-9"/><text fill="#000" font-family="Arial" font-size="8" transform="translate(366.43 102.11)"><tspan>3.00</tspan></text></g><g fill="none" stroke-linecap="round" stroke-linejoin="round" stroke-width="0" color="#000"><path d="M358.04 85.76h-9"/><text fill="#000" font-family="Arial" font-size="8" transform="translate(366.43 88.36)"><tspan>3.50</tspan></text></g><g fill="none" stroke-linecap="round" stroke-linejoin="round" stroke-width="0" color="#000"><path d="M358.04 72.01h-9"/><text fill="#000" font-family="Arial" font-size="8" transform="translate(366.43 74.61)"><tspan>4.00</tspan></text></g><path fill="none" d="M33.56 72.01V182M358.04 72.01H33.56" color="#000"/><text stroke-linecap="round" stroke-linejoin="round" stroke-width="0" color="#000" font-family="Arial" font-size="8" text-anchor="middle" transform="rotate(-90 69.74 57.27)"><tspan font-weight="bold">Rotations</tspan><tspan> / Operation</tspan></text><text stroke-linecap="round" stroke-linejoin="round" color="#000" font-family="Arial" font-size="8" transform="translate(111.8 30.11)"><tspan>AVLBottomUp</tspan></text><g fill="none" stroke="currentColor" stroke-linecap="round" stroke-linejoin="round" color="#000"><path stroke="#000" d="M74.8 27.51h31.4M33.56 163.6l.33-1.98.33.53.32.96.33-.55.33.22.33-.33.32.55.33-.11.33-.61.33-.68.33 1.01.32-.44.33-.49.33.05.33.75.32-.83.33 1.02.33-.44.33 1.7.33-.6.32.6.33-1.23.33-.72.33 1.95.32-.46.33-1.21.33 1.21.33-.58.32-.39.33.28.33-.33.33 1.1.33-2.09.32 1.07.33-.25.33.53.33 1.21.32-.42.33.09.33-.44.33-.28.33.69.32-1.21.33.36.33.44.33-.42.32 1.08.33-1.21.33.19.33.49.33-.9.32-.99.33.85h.33l.33.71.32-1.1.33.58.33-.08.33.19.33 1.46.32-2.2.33.16.33-.27.33 1.35h.32l.33-.33.33-1.54.33 1.67.33.39.32-.96.33 1.23.33-.74.33-.36.32.06.33.14.33-.17.33.33.33.28.32-.64.33-.71.33.93.33-.79.32 1.1.33.11.33-2.29.33 1.52.32.77.33-.47.33-1.18.33.49.33.99.32.11.33 1.13.33-.99.33.99.32-1.46.33.44.33-.19.33-.52.33-.28.32-.08.33-.39.33.61.33.6.32.09.33-1.87.33.85.33.66.33.77.32.14.33.11.33-.53.33-.6.32 1.46.33-.66.33-.03.33.6.33-1.65.32.5.33 1.24.33-.66.33-.09.32.64.33-.22.33-1.98.33 1.95.33-1.82.32 1.57.33-.19.33-.47.33-.16.32-.06.33 1.29.33-1.01.33.44.33-.91.32.93.33-.08.33.88.33-1.15.32-.22.33.33.33-.75.33-.19.32.33.33-.3.33 2.09.33-1.51.33-.25.32.66.33-1.6.33 2.78.33-1.48.32-.42.33-2 .33 1.67.33 1.57.33-1.1.32.06.33-.69.33.36.33-.33.32.02.33.69.33-1.18.33 1.87.33-1.07.32 1.29.33-1.84.33 2.77.33-1.67.32.44.33-1.35.33 1.4.33-.03.33-.13.32.08.33-.36.33-.19.33-.19.32-.44.33.52.33-.25.33 1.21.33-.66.32.06.33-.14.33.93.33-1.59.32.19.33.88.33-.36.33.09.32.02.33-.38.33.08.33-1.07.33 1.43.32.6.33-2.03.33 2.31.33-.44.32-.8.33.74.33-.77.33-.41.33.5.32-.8.33 1.04.33-.13.33.52.32-.44h.33l.33.16.33-.19.33.52.32.44.33-.74.33.14.33.27.32-1.21.33 1.79.33-2.14.33 1.29.33-.08.32-.47.33.77.33-.83.33-.88.32.11.33-.19.33 1.49.33-1.27.33.19.32-.35.33 1.32.33-1.1.33 2.2.32-1.16.33.19.33-.9.33 1.43.33-2.04.32.39.33 1.1.33.66.33-1.3.32-.52.33.33.33.47.33.69.32-.83.33.47.33 1.24.33-1.65.33.93.32-.3.33-.28.33-1.15.33 1.1.32.11.33.16.33.25.33-2.45.33 1.16.32.91.33-1.35.33 2.06.33-2.14.32-.06.33-.08.33.85.33.77.33.22.32-1.84.33.8.33.68.33.06.32.66.33-1.43.33-.66.33.63.33.08.32.2.33-.33.33.57.33.42.32.35.33-1.23.33.46.33.33.33-1.65.32 1.13.33-.36.33.64.33-1.13.32.16.33-.16.33 1.15.33.2.33-.06.32-.08.33-.03.33-.05.33-.03.32-.06.33.17.33-.83.33.83.32-1.02.33 1.84.33-.55.33-.63.33.66.32.03.33-1.82.33 1.65.33.8.32-1.24.33.03.33-.19.33-.66.33.6.32 1.6.33-1.1.33.6.33-.33.32-.38.33-.22.33 1.46.33-.88.33-.42.32.94.33-.39.33-.38.33.47.32-.91.33-1.1.33 2.25.33.53.33-1.27.32 1.27.33-2.09h.33l.33.71.32-.6.33-.39.33.33.33 1.9.33-1.05.32-1.18.33 1.9.33-1.27.33 1.79.32-1.32.33.08.33.75.33-1.13.32.85.33-.71.33.38.33-.22.33-.08.32-.39.33.36.33-.96.33 1.43.32-1.1.33 1.18.33-.25.33.91.33-1.9.32-.08.33.8.33.05.33-.11.32.33.33.47.33-1.54.33-.08.33.41.32.74.33-.49.33.38.33.17.32-.74.33.82.33-.41.33-.11.33.25.32.96.33.47.33-1.41.33-.55.32.61.33.08.33-.91.33-.55.33 1.57.32.22.33.06.33-.91.33-.39.32.99.33-1.15.33.99.33.38.33-1.51.32.63.33-.77.33.33.33.72.32-.17.33-.22.33.8.33-.3.32-1.62.33.9.33.77.33.53.33-1.41.32.22.33.25.33.19.33-1.12.32 1.59.33-1.73.33 2.28.33-.74.33-.33.32.93.33.03.33-.77.33-.99.32.63.33.09.33-.03.33.58.33-1.49.32 1.32.33-.6.33 1.21.33-.86.32.55.33.36.33-.63.33-1.87.33 2.12.32-1.93.33 2.45.33-1.95.33.33.32-.58.33.52.33.66.33-.47.33.42.32.79.33 1.19.33-1.38.33-1.29.32 1.37.33.03.33-1.26.33 3.41.33-3.55.32 2.36.33-.96.33-1.32.33.14.32 1.57.33-.17.33-2.14.33 1.04.32.25.33-1.1.33 2.2.33-.63.33-.86.32.75.33-2.59.33 2.5.33-1.37.32.27.33.86.33-.58.33-.36.33.63.32-.66.33 1.13.33-1.73.33 1.51.32-.66.33.55.33 1.87.33-3.46.33 2.99.32-2.06.33 1.98.33-1.54.33-.3.32 1.29.33-.6.33-1.93.33 3.16.33-.6.32-.39.33-.6.33.27.33-.63.32.69.33.03.33-.2.33.47.33-.88.32-.36.33.66.33-1.32.33.88.32-.02.33.88.33 1.04.33.3.32-2.2.33 1.38.33-.52.33-1.27.33 1.27.32.96.33-1.65.33.05.33.66.32-.41.33.55.33-.33.33.39.33-.83.32.52.33-.79.33.77.33-.42.32 1.52.33-1.38.33 1.07.33-.63.33-.63.32.33h.33l.33.58.33.63.32-.61.33-.57.33-.69.33 1.46.33-1.54.32 1.7.33-1.46.33-.16.33.8.32.13.33.5.33-.52.33-.8.33 1.15.32.06.33-1.43.33 1.32.33-1.27.32-.57.33 1.15.33 1.38.33-2.07.33 1.19.32-1.98.33 2.36.33 1.29.33-2.2.32 1.35.33-1.46.33 1.46.33-.47.32.77.33-1.7.33.88.33-.58.33-.6.32 1.4.33-.55.33-1.16.33.61.32 1.1.33-1.16.33-.11.33.14.33.3.32.03.33.83.33-2.62.33 1.38.32 2.2.33-.33.33-1.05.33-1.87.33 1.38.32.63.33-.71.33.49.33.22.32-.05.33-1.02.33.27.33.2.33 1.18.32.11.33-1.98.33.96.33-.41.32.11.33-1.38.33 3.28.33-3.14.33 1.29.32.61.33-.8.33.28.33.77.32-2.01.33 2.67.33-.88.33-1.21.33 1.1.32.19.33-1.27.33 1.96.33-1.02.32-.83.33.47.33.41.33-1.78.32.71.33.55.33-.74.33 1.21.33-.17.32.64.33-.11.33-1.35.33.99.32-1.02.33.91.33.05.33-1.32.33 1.6.32-.55.33-2.39.33 3.1.33-.41.32-.8.33-.05.33 1.15.33-1.07.33-.41.32.8.33.82.33-.16.33-2.29.32 1.38.33 1.29.33-1.15.33.79.33-.63.32.58.33-.08.33-.09.33-.27.32-1.35.33.39.33.46.33-.55.33 1.19.32-.5.33.39.33-.58.33.33.32-1.1.33.66.33 1.1.33-2.12.32 1.95.33.61.33-.91.33-.05.33.24.32.33.33-.46.33 1.32.33-2.7.32.96.33-.16.33 1.35.33-1.68.33.74.32-.66.33.5.33.77.33-1.49.32.41.33-.16.33-.14.33.25.33 1.13.32-.58.33.74.33-1.51.33.3.32-.91.33.06.33-.3.33 1.4.33.16.32.22.33-.08.33-1.95.33 2.36.32-.9.33.85.33-.03.33 1.02.33-.33.32-1.65.33-.06.33.17.33 1.65.32-1.43.33.55.33.19.33-.19.33.55.32-.25.33-.19.33.36.33-.69.32-.72.33.61.33-.63.33.46.32.69.33-.71.33.35.33-.27.33.49.32-.3.33-.05.33-.94.33 1.05.32-.11.33.27.33-.27.33.44.33.33.32-.8.33.47.33-.99.33.74.32-.99.33.33.33.96.33-.14.33-.13.32-.61.33.94.33-.83.33 1.02.32-2.37.33 1.1.33-.3.33-.11.33 2.04.32.6.33-1.37.33-.58.33.36.32-.09.33-.13.33-1.24.33.69.33.35.32 1.08.33-.77.33-.8.33 1.1.32-.55.33.52.33-.77.33.63.33-.11.32-.63.33.36.33.33.33-.3.32-.47.33.96.33.3.33-.79.32-.25.33-.22.33-.11.33.99.33-.52.32.52.33-1.02.33.5.33.74.32-1.18.33 1.32.33-.47.33-.72.33 1.27.32-.85.33.02.33-.16.33-.11.32 1.04.33-1.15.33.96.33-1.15.33.79h.32l.33-1.23.33.77.33-.53.32-.33.33 2.37.33-2.06.33.46.33.97.32-.14.33-.19.33-.03.33 1.07.32-1.13.33.75.33-1.79.33 1.7.33-.6.32.08.33-1.07.33.99.33.38.32.72.33.08.33-2.34.33.75.32.24.33.36.33-1.21.33-.71.33 2.42.32-.14.33 1.15.33-1.76.33.64.32.02.33-.35.33-.66.33-1.02.33 1.26.32.64.33-1.08.33.22.33-.22.32.2.33.19.33 1.57.33-.44.33-2.62.32 3.17.33-.03.33-1.71.33.31.32.13.33-.46.33.55.33-1.27.33.96.32-.85.33 3.19.33-1.46.33-1.04.32-.47.33-.22.33-.69.33.58.33.96.32.17.33-.55.33-.08.33 1.7.32-1.24.33.47.33-.05.33-.2.33-.82.32.69.33-.11.33.71.33-1.7.32 1.65.33-1.85.33.36.33-.22.32 2.89.33-1.87.33-.39.33.22.33-1.15.32.96.33.25.33.08.33.17.32.13.33 1.35.33-2.28.33 1.02.33-.99.32-.22.33.41.33.52.33.88.32.17.33-2.34.33 1.65.33.41.33-.27.32.93.33-1.18.33-2.09.33 1.48.32 1.52.33-1.68.33-1.54.33 1.54.33-.19.32-.61.33 2.5.33-2.64.33 1.32.32-.71.33 1.26.33.06.33-.63.33-.09.32-.52.33-.11.33 2.2.33-2.03.32-1.05.33 1.71.33-1.21.33 2.06.33-.39h.32l.33.22.33-.11.33-.71.32-.03.33-.63.33.74.33.72.32-.06.33-.71.33-.61.33.44.33.11.32-.25.33-.77.33 1.49.33-.55.32.16.33-.35.33 1.12.33-1.12.33 1.12.32-.66.33-.63.33.91.33-.69.32.94.33-.94.33 2.15"/><use xlink:href="#a" transform="matrix(4.5 0 0 4.5 355.09 163.6)"/><use xlink:href="#a" transform="matrix(4.5 0 0 4.5 90.5 27.51)"/></g><text stroke-linecap="round" stroke-linejoin="round" color="#000" font-family="Arial" font-size="8" transform="translate(111.8 45.11)"><tspan>AVLTopDown</tspan></text><g fill="none" stroke="currentColor" stroke-linecap="round" stroke-linejoin="round" color="#000"><path stroke="#29C3F6" stroke-dasharray="1.0,2.0" d="M74.8 42.51h31.4M33.56 163.6l.33-1.98.33.53.32.96.33-.55.33.22.33-.33.32.55.33-.11.33-.61.33-.68.33 1.01.32-.44.33-.49.33.05.33.75.32-.83.33 1.02.33-.44.33 1.7.33-.6.32.6.33-1.23.33-.72.33 1.95.32-.46.33-1.21.33 1.21.33-.58.32-.39.33.28.33-.33.33 1.1.33-2.09.32 1.07.33-.25.33.53.33 1.21.32-.42.33.09.33-.44.33-.28.33.69.32-1.21.33.36.33.44.33-.42.32 1.08.33-1.21.33.19.33.49.33-.9.32-.99.33.85h.33l.33.71.32-1.1.33.58.33-.08.33.19.33 1.46.32-2.2.33.16.33-.27.33 1.35h.32l.33-.33.33-1.54.33 1.67.33.39.32-.96.33 1.23.33-.74.33-.36.32.06.33.14.33-.17.33.33.33.28.32-.64.33-.71.33.93.33-.79.32 1.1.33.11.33-2.29.33 1.52.32.77.33-.47.33-1.18.33.49.33.99.32.11.33 1.13.33-.99.33.99.32-1.46.33.44.33-.19.33-.52.33-.28.32-.08.33-.39.33.61.33.6.32.09.33-1.87.33.85.33.66.33.77.32.14.33.11.33-.53.33-.6.32 1.46.33-.66.33-.03.33.6.33-1.65.32.5.33 1.24.33-.66.33-.09.32.64.33-.22.33-1.98.33 1.95.33-1.82.32 1.57.33-.19.33-.47.33-.16.32-.06.33 1.29.33-1.01.33.44.33-.91.32.93.33-.08.33.88.33-1.15.32-.22.33.33.33-.75.33-.19.32.33.33-.3.33 2.09.33-1.51.33-.25.32.66.33-1.6.33 2.78.33-1.48.32-.42.33-2 .33 1.67.33 1.57.33-1.1.32.06.33-.69.33.36.33-.33.32.02.33.69.33-1.18.33 1.87.33-1.07.32 1.29.33-1.84.33 2.77.33-1.67.32.44.33-1.35.33 1.4.33-.03.33-.13.32.08.33-.36.33-.19.33-.19.32-.44.33.52.33-.25.33 1.21.33-.66.32.06.33-.14.33.93.33-1.59.32.19.33.88.33-.36.33.09.32.02.33-.38.33.08.33-1.07.33 1.43.32.6.33-2.03.33 2.31.33-.44.32-.8.33.74.33-.77.33-.41.33.5.32-.8.33 1.04.33-.13.33.52.32-.44h.33l.33.16.33-.19.33.52.32.44.33-.74.33.14.33.27.32-1.21.33 1.79.33-2.14.33 1.29.33-.08.32-.47.33.77.33-.83.33-.88.32.11.33-.19.33 1.49.33-1.27.33.19.32-.35.33 1.32.33-1.1.33 2.2.32-1.16.33.19.33-.9.33 1.43.33-2.04.32.39.33 1.1.33.66.33-1.3.32-.52.33.33.33.47.33.69.32-.83.33.47.33 1.24.33-1.65.33.93.32-.3.33-.28.33-1.15.33 1.1.32.11.33.16.33.25.33-2.45.33 1.16.32.91.33-1.35.33 2.06.33-2.14.32-.06.33-.08.33.85.33.77.33.22.32-1.84.33.8.33.68.33.06.32.66.33-1.43.33-.66.33.63.33.08.32.2.33-.33.33.57.33.42.32.35.33-1.23.33.46.33.33.33-1.65.32 1.13.33-.36.33.64.33-1.13.32.16.33-.16.33 1.15.33.2.33-.06.32-.08.33-.03.33-.05.33-.03.32-.06.33.17.33-.83.33.83.32-1.02.33 1.84.33-.55.33-.63.33.66.32.03.33-1.82.33 1.65.33.8.32-1.24.33.03.33-.19.33-.66.33.6.32 1.6.33-1.1.33.6.33-.33.32-.38.33-.22.33 1.46.33-.88.33-.42.32.94.33-.39.33-.38.33.47.32-.91.33-1.1.33 2.25.33.53.33-1.27.32 1.27.33-2.09h.33l.33.71.32-.6.33-.39.33.33.33 1.9.33-1.05.32-1.18.33 1.9.33-1.27.33 1.79.32-1.32.33.08.33.75.33-1.13.32.85.33-.71.33.38.33-.22.33-.08.32-.39.33.36.33-.96.33 1.43.32-1.1.33 1.18.33-.25.33.91.33-1.9.32-.08.33.8.33.05.33-.11.32.33.33.47.33-1.54.33-.08.33.41.32.74.33-.49.33.38.33.17.32-.74.33.82.33-.41.33-.11.33.25.32.96.33.47.33-1.41.33-.55.32.61.33.08.33-.91.33-.55.33 1.57.32.22.33.06.33-.91.33-.39.32.99.33-1.15.33.99.33.38.33-1.51.32.63.33-.77.33.33.33.72.32-.17.33-.22.33.8.33-.3.32-1.62.33.9.33.77.33.53.33-1.41.32.22.33.25.33.19.33-1.12.32 1.59.33-1.73.33 2.28.33-.74.33-.33.32.93.33.03.33-.77.33-.99.32.63.33.09.33-.03.33.58.33-1.49.32 1.32.33-.6.33 1.21.33-.86.32.55.33.36.33-.63.33-1.87.33 2.12.32-1.93.33 2.45.33-1.95.33.33.32-.58.33.52.33.66.33-.47.33.42.32.79.33 1.19.33-1.38.33-1.29.32 1.37.33.03.33-1.26.33 3.41.33-3.55.32 2.36.33-.96.33-1.32.33.14.32 1.57.33-.17.33-2.14.33 1.04.32.25.33-1.1.33 2.2.33-.63.33-.86.32.75.33-2.59.33 2.5.33-1.37.32.27.33.86.33-.58.33-.36.33.63.32-.66.33 1.13.33-1.73.33 1.51.32-.66.33.55.33 1.87.33-3.46.33 2.99.32-2.06.33 1.98.33-1.54.33-.3.32 1.29.33-.6.33-1.93.33 3.16.33-.6.32-.39.33-.6.33.27.33-.63.32.69.33.03.33-.2.33.47.33-.88.32-.36.33.66.33-1.32.33.88.32-.02.33.88.33 1.04.33.3.32-2.2.33 1.38.33-.52.33-1.27.33 1.27.32.96.33-1.65.33.05.33.66.32-.41.33.55.33-.33.33.39.33-.83.32.52.33-.79.33.77.33-.42.32 1.52.33-1.38.33 1.07.33-.63.33-.63.32.33h.33l.33.58.33.63.32-.61.33-.57.33-.69.33 1.46.33-1.54.32 1.7.33-1.46.33-.16.33.8.32.13.33.5.33-.52.33-.8.33 1.15.32.06.33-1.43.33 1.32.33-1.27.32-.57.33 1.15.33 1.38.33-2.07.33 1.19.32-1.98.33 2.36.33 1.29.33-2.2.32 1.35.33-1.46.33 1.46.33-.47.32.77.33-1.7.33.88.33-.58.33-.6.32 1.4.33-.55.33-1.16.33.61.32 1.1.33-1.16.33-.11.33.14.33.3.32.03.33.83.33-2.62.33 1.38.32 2.2.33-.33.33-1.05.33-1.87.33 1.38.32.63.33-.71.33.49.33.22.32-.05.33-1.02.33.27.33.2.33 1.18.32.11.33-1.98.33.96.33-.41.32.11.33-1.38.33 3.28.33-3.14.33 1.29.32.61.33-.8.33.28.33.77.32-2.01.33 2.67.33-.88.33-1.21.33 1.1.32.19.33-1.27.33 1.96.33-1.02.32-.83.33.47.33.41.33-1.78.32.71.33.55.33-.74.33 1.21.33-.17.32.64.33-.11.33-1.35.33.99.32-1.02.33.91.33.05.33-1.32.33 1.6.32-.55.33-2.39.33 3.1.33-.41.32-.8.33-.05.33 1.15.33-1.07.33-.41.32.8.33.82.33-.16.33-2.29.32 1.38.33 1.29.33-1.15.33.79.33-.63.32.58.33-.08.33-.09.33-.27.32-1.35.33.39.33.46.33-.55.33 1.19.32-.5.33.39.33-.58.33.33.32-1.1.33.66.33 1.1.33-2.12.32 1.95.33.61.33-.91.33-.05.33.24.32.33.33-.46.33 1.32.33-2.7.32.96.33-.16.33 1.35.33-1.68.33.74.32-.66.33.5.33.77.33-1.49.32.41.33-.16.33-.14.33.25.33 1.13.32-.58.33.74.33-1.51.33.3.32-.91.33.06.33-.3.33 1.4.33.16.32.22.33-.08.33-1.95.33 2.36.32-.9.33.85.33-.03.33 1.02.33-.33.32-1.65.33-.06.33.17.33 1.65.32-1.43.33.55.33.19.33-.19.33.55.32-.25.33-.19.33.36.33-.69.32-.72.33.61.33-.63.33.46.32.69.33-.71.33.35.33-.27.33.49.32-.3.33-.05.33-.94.33 1.05.32-.11.33.27.33-.27.33.44.33.33.32-.8.33.47.33-.99.33.74.32-.99.33.33.33.96.33-.14.33-.13.32-.61.33.94.33-.83.33 1.02.32-2.37.33 1.1.33-.3.33-.11.33 2.04.32.6.33-1.37.33-.58.33.36.32-.09.33-.13.33-1.24.33.69.33.35.32 1.08.33-.77.33-.8.33 1.1.32-.55.33.52.33-.77.33.63.33-.11.32-.63.33.36.33.33.33-.3.32-.47.33.96.33.3.33-.79.32-.25.33-.22.33-.11.33.99.33-.52.32.52.33-1.02.33.5.33.74.32-1.18.33 1.32.33-.47.33-.72.33 1.27.32-.85.33.02.33-.16.33-.11.32 1.04.33-1.15.33.96.33-1.15.33.79h.32l.33-1.23.33.77.33-.53.32-.33.33 2.37.33-2.06.33.46.33.97.32-.14.33-.19.33-.03.33 1.07.32-1.13.33.75.33-1.79.33 1.7.33-.6.32.08.33-1.07.33.99.33.38.32.72.33.08.33-2.34.33.75.32.24.33.36.33-1.21.33-.71.33 2.42.32-.14.33 1.15.33-1.76.33.64.32.02.33-.35.33-.66.33-1.02.33 1.26.32.64.33-1.08.33.22.33-.22.32.2.33.19.33 1.57.33-.44.33-2.62.32 3.17.33-.03.33-1.71.33.31.32.13.33-.46.33.55.33-1.27.33.96.32-.85.33 3.19.33-1.46.33-1.04.32-.47.33-.22.33-.69.33.58.33.96.32.17.33-.55.33-.08.33 1.7.32-1.24.33.47.33-.05.33-.2.33-.82.32.69.33-.11.33.71.33-1.7.32 1.65.33-1.85.33.36.33-.22.32 2.89.33-1.87.33-.39.33.22.33-1.15.32.96.33.25.33.08.33.17.32.13.33 1.35.33-2.28.33 1.02.33-.99.32-.22.33.41.33.52.33.88.32.17.33-2.34.33 1.65.33.41.33-.27.32.93.33-1.18.33-2.09.33 1.48.32 1.52.33-1.68.33-1.54.33 1.54.33-.19.32-.61.33 2.5.33-2.64.33 1.32.32-.71.33 1.26.33.06.33-.63.33-.09.32-.52.33-.11.33 2.2.33-2.03.32-1.05.33 1.71.33-1.21.33 2.06.33-.39h.32l.33.22.33-.11.33-.71.32-.03.33-.63.33.74.33.72.32-.06.33-.71.33-.61.33.44.33.11.32-.25.33-.77.33 1.49.33-.55.32.16.33-.35.33 1.12.33-1.12.33 1.12.32-.66.33-.63.33.91.33-.69.32.94.33-.94.33 2.15"/><use xlink:href="#b" color="#29C3F6" transform="matrix(4.5 0 0 4.5 84.69 162.06)"/><use xlink:href="#b" color="#29C3F6" transform="matrix(4.5 0 0 4.5 90.5 42.51)"/></g><text stroke-linecap="round" stroke-linejoin="round" color="#000" font-family="Arial" font-size="8" transform="translate(238.4 30.11)"><tspan>AVLWeakBottomUp</tspan></text><g fill="none" stroke="currentColor" stroke-linecap="round" stroke-linejoin="round" color="#000"><path stroke="#3B75EA" d="M201.4 27.51h31.4M33.56 127h.33l.33 27.5.32 27.5.33-55 .33 27.5.33-27.5h.32l.33 27.5.33-27.5h.33l.33 27.5h.32l.33 27.5.33-27.5.33-27.5.32 55 .33-27.5h.99l.32-27.5h.33l.33 27.5.33-27.5h.32l.33 27.5.33-27.5h.33l.32 27.5.33 27.5.33-55 .33 27.5.33-27.5h.32l.33 27.5h.66l.32-27.5.33 27.5.33-27.5.33 27.5h.33l.32-27.5.33 27.5.33-27.5.33 55 .32-27.5h.66l.33-27.5.33 27.5.32 27.5.33-27.5h.33l.33-27.5h.32l.33 27.5h.66l.33 27.5.32-55h.33l.33 55 .33-55h.32l.33 27.5.33 27.5.33-27.5h.33l.32-27.5h.33l.33 55 .33-27.5h.32l.33 27.5h.33l.33-27.5.33-27.5.32 55 .33-27.5.33-27.5h.33l.32 55 .33-27.5.33 27.5.33-55h.32l.33 27.5.33-27.5.33 55 .33-27.5h.65l.33-27.5h.65l.33 55 .33-55h.33l.33 55h.32l.33-27.5.33-27.5.33 55h.32l.33-27.5h.33l.33-27.5h.33l.32 27.5.33 27.5.33-27.5.33-27.5h.32l.33 55 .33-55 .33 27.5.33-27.5.32 27.5.33 27.5h.33l.33-55h.32l.33 55 .33-27.5.33-27.5.33 27.5.32 27.5.33-55 .33 27.5.33 27.5.32-27.5h.99l.33-27.5h.65l.33 55h.33l.32-55 .33 27.5h.33l.33-27.5h.32l.33 55 .33-55h.33l.33 55h.32l.33-55 .33 27.5.33-27.5h1.31l.33 27.5.32 27.5.33-27.5.33-27.5.33 55 .32-55 .33 55 .33-27.5h.66l.32-27.5h.33l.33 55h.33l.32-27.5h.33l.33 27.5h.66l.32-27.5.33 27.5.33-27.5.33 27.5.32-55 .33 55 .33-27.5h.66l.32-27.5h.66l.33 55 .32-55 .33 55 .33-27.5.33-27.5.32 27.5h.33l.33-27.5h.33l.33 55h.32l.33-27.5h.33l.33 27.5.32-27.5h.66l.33 27.5h.33l.32-55h.33l.33 55h1.31l.33-27.5h.33l.32-27.5.33 55 .33-55 .33 27.5.32 27.5.33-27.5.33-27.5.33 55h.98l.33-27.5.33 27.5.32-55 .33 27.5.33 27.5.33-27.5.33-27.5.32 27.5h.99l.32-27.5h.99l.33 27.5.32-27.5h.33l.33 27.5.33 27.5h.65l.33-27.5.33 27.5h.65l.33-27.5.33-27.5.33 27.5.32 27.5h.33l.33-55 .33 27.5.32 27.5h.33l.33-27.5.33 27.5.33-27.5.32-27.5.33 27.5h.33l.33-27.5.32 55 .33-55 .33 27.5.33 27.5h.33l.32-55 .33 55 .33-55h.33l.32 27.5.33 27.5.33-27.5.33 27.5h.33l.32-55h.33l.33 55 .33-55h.32l.33 55 .33-27.5.33-27.5.33 27.5.32-27.5.33 55 .33-27.5.33 27.5h.65l.33-55 .33 27.5.33-27.5.32 55h.33l.33-27.5.33 27.5.32-55h.33l.33 27.5.33-27.5.32 27.5.33 27.5.33-27.5.33 27.5.33-55 .32 55h.66l.33-55 .32 55 .33-55 .33 55h.66l.32-27.5h.33l.33-27.5.33 27.5.32 27.5h.66l.33-27.5h1.31l.33-27.5.32 27.5.33-27.5h.33l.33 55h.33l.32-27.5.33-27.5.33 55h.98l.33-27.5.33 27.5.33-55 .32 27.5h.66l.33-27.5.32 55h.33l.33-27.5.33-27.5.32 55 .33-27.5.33-27.5.33 55 .33-55h.65l.33 55h.33l.32-55 .33 55 .33-27.5.33 27.5.33-27.5h.65l.33 27.5h.33l.32-27.5.33 27.5h.33l.33-27.5.33 27.5.32-55 .33 55h.98l.33-55 .33 27.5.33 27.5.33-55h.65l.33 55 .33-27.5.32-27.5.33 27.5.33-27.5.33 27.5.33-27.5.32 55h.33l.33-27.5.33 27.5.32-55 .33 27.5.33 27.5.33-27.5h.33l.32-27.5.33 55 .33-55 .33 55h.65l.33-27.5.33 27.5.32-55 .33 27.5.33 27.5.33-55 .33 27.5.32 27.5h.33l.33-27.5.33 27.5.32-55 .33 55 .33-55h.33l.33 55 .32-27.5h.66l.33 27.5h.32l.33-55h.33l.33 55 .33-55 .32 55h.33l.33-27.5.33 27.5.32-27.5.33 27.5.33-55 .33 55 .33-27.5h.32l.33 27.5h.33l.33-27.5h.32l.33 27.5.33-27.5.33 27.5.33-55 .32 27.5h.33l.33 27.5h.33l.32-27.5h.33l.33-27.5.33 27.5h.33l.32-27.5.33 55h.33l.33-27.5.32 27.5h.33l.33-27.5.33-27.5.32 55 .33-55h.33l.33 55 .33-27.5h.32l.33 27.5h.98l.33-27.5h.33l.33 27.5.33-27.5.32-27.5.33 55h.98l.33-27.5.33-27.5.33 55 .33-27.5.32 27.5h.33l.33-55 .33 55h.65l.33-55h.33l.33 27.5.32 27.5h.33l.33-27.5.33-27.5h.32l.33 27.5.33-27.5.33 27.5.33 27.5h.32l.33-55 .33 55 .33-55 .32 27.5h.66l.33 27.5.32-55h.66l.33 27.5h.65l.33-27.5.33 55h.33l.32-27.5h.33l.33-27.5.33 55 .33-55 .32 55 .33-55 .33 27.5h1.31l.33-27.5.33 55 .32-27.5h.66l.33 27.5.32-27.5.33 27.5h.99l.32-27.5.33 27.5.33-55h.65l.33 55h.66l.33-55 .32 55h.33l.33-55 .33 27.5.32 27.5.33-27.5.33 27.5.33-55h.33l.32 27.5.33 27.5h.33l.33-27.5h.32l.33 27.5.33-55 .33 55 .32-55h.33l.33 55 .33-55h.33l.32 27.5.33-27.5.33 55h.33l.32-27.5h.66l.33 27.5.33-27.5.32 27.5.33-27.5.33 27.5.33-27.5.32 27.5.33-27.5.33-27.5.33 55h.33l.32-27.5.33-27.5h.33l.33 55h.32l.33-27.5.33 27.5.33-27.5h.33l.32-27.5.33 27.5.33 27.5h.65l.33-55h.66l.33 55 .32-55 .33 27.5.33-27.5.33 27.5.32 27.5.33-55 .33 55h.33l.33-27.5.32 27.5h.33l.33-55h.33l.32 27.5.33 27.5.33-55 .33 55 .32-27.5h.33l.33 27.5h.33l.33-55 .32 27.5h.99l.32-27.5.33 27.5h1.31l.33 27.5h1.64l.33-55h.33l.32 27.5.33-27.5h.33l.33 55 .32-55 .33 55h.33l.33-27.5.33 27.5h.32l.33-27.5h.33l.33-27.5h.32l.33 55 .33-55 .33 55 .33-55h.32l.33 55 .33-55 .33 55h.65l.33-27.5h.33l.32 27.5.33-55 .33 55 .33-27.5.33-27.5.32 55 .33-55 .33 55h.33l.32-27.5.33 27.5h.33l.33-55 .33 27.5.32-27.5.33 55 .33-27.5.33 27.5h.32l.33-27.5.33 27.5.33-27.5h.33l.32 27.5h.33l.33-27.5.33 27.5.32-55 .33 27.5.33 27.5h.33l.33-27.5.32 27.5h.33l.33-55 .33 55 .32-55 .33 27.5.33 27.5h.66l.32-27.5h.33l.33 27.5h.33l.32-55 .33 55 .33-55h.66l.32 55 .33-55 .33 27.5h.65l.33 27.5h.33l.33-55h.65l.33 27.5.33-27.5.33 55h.32l.33-55h.33l.33 55 .32-27.5.33-27.5.33 55h.66l.32-55 .33 55 .33-27.5.33 27.5h.98l.33-55 .33 27.5h.65l.33-27.5.33 27.5h.32l.33-27.5h.33l.33 27.5.33 27.5h.32l.33-27.5.33 27.5.33-55 .32 55 .33-27.5h.66l.33 27.5h.32l.33-55h.33l.33 55 .32-27.5.33 27.5h.33l.33-27.5h.33l.32 27.5.33-55 .33 55 .33-27.5.32 27.5.33-27.5.33 27.5h.33l.32-55 .33 55 .33-27.5.33 27.5h.33l.32-27.5h.33l.33-27.5h.65l.33 55h.99l.32-27.5.33 27.5h.98l.33-55h.33l.33 55h1.31l.33-27.5.32 27.5h.66l.33-55 .33 27.5.32-27.5.33 27.5.33-27.5.33 55h.65l.33-27.5h.33l.33 27.5.32-55 .33 55 .33-27.5h.33l.32 27.5h.66l.33-55 .32 27.5.33 27.5h.33l.33-55 .33 55h.32l.33-55h.33l.33 55h.32l.33-27.5h.66l.33 27.5.32-55 .33 27.5h.98l.33 27.5h.33l.33-55 .33 27.5.32-27.5.33 27.5h.33l.33 27.5h.32l.33-27.5h.99l.32 27.5h.33l.33-55 .33 27.5.32 27.5h.66l.33-55 .33 55h.98l.33-27.5.32 27.5h.66l.33-27.5h.33l.32 27.5.33-27.5.33 27.5.33-27.5.32-27.5.33 55h1.31l.33-27.5.33 27.5.33-27.5.32 27.5h.33l.33-27.5.33 27.5.32-55h.99l.33 27.5.32 27.5.33-27.5.33-27.5.33 55 .32-27.5.33 27.5h.99l.32-55 .33 27.5.33 27.5.33-27.5.32 27.5h.66l.33-27.5.33 27.5.32-55 .33 55h.33l.33-27.5.32-27.5.33 55 .33-55 .33 55 .33-55 .32 27.5.33-27.5.33 55 .33-55 .32 27.5.33 27.5.33-55h.66l.32 55 .33-55 .33 55h.65l.33-55 .33 55 .33-55 .32 55 .33-55 .33 55h.66l.32-55 .33 55 .33-27.5.33 27.5h.98l.33-55h.33l.32 55h.99l.32-27.5h.66"/><use xlink:href="#c" color="#3B75EA" transform="matrix(4.5 0 0 4.5 138.77 182)"/><use xlink:href="#c" color="#3B75EA" transform="matrix(4.5 0 0 4.5 217.1 27.51)"/></g><text stroke-linecap="round" stroke-linejoin="round" color="#000" font-family="Arial" font-size="8" transform="translate(238.4 45.11)"><tspan>AVLWeakTopDown</tspan></text><g fill="none" stroke="currentColor" stroke-linecap="round" stroke-linejoin="round" color="#000"><path stroke="#00C853" stroke-dasharray="4.5,2.0,0.5,2.0,0.5,2.0" d="M201.4 42.51h31.4M33.56 127h.33l.33 27.5.32 27.5.33-55 .33 27.5.33-27.5h.32l.33-27.49.33 82.49.33-55 .33 27.5h.32l.33 27.5.33-27.5.33-27.5.32 55 .33-27.5h.66l.33-54.99.32 82.49.33-109.99.33 82.49.33-27.5.32 55 .33-27.5.33-27.5h.33l.32 27.5.33 27.5.33-55 .33 27.5.33-27.5h.65l.33 55 .33-27.5.32-27.5.33 27.5.33-82.49.33 82.49h.33l.32-27.5.33 27.5.33-27.5.33 55 .32-27.5h.66l.33 27.5.33-27.5.32 27.5.33-27.5h.33l.33-82.49.32 109.99.33-27.5h.66l.33 27.5.32-55h.33l.33 55 .33-55h.32l.33 27.5.33 27.5.33-82.49.33 54.99.32-27.5h.33l.33 55 .33-27.5h.32l.33 27.5.33-55 .33 27.5.33 27.5h.32l.33-27.5.33-27.5h.33l.32 27.5.33 27.5h.33l.33-55h.32l.33 27.5.33 27.5h.33l.33-27.5h.65l.33-27.5h1.31l.33 55h.65l.33-27.5.33-27.5.33 55h.32l.33-27.5h.33l.33-27.5.33-27.49.32 82.49h.33l.33-27.5.33-27.5h.98l.33 27.5.33-27.5.32 27.5.33 27.5.33-55 .33 55 .32-55 .33 55 .33-27.5.33-27.5.33-27.49.32 82.49.33-109.99.33 54.99.33 55 .32-27.5.33 27.5.33-27.5h.33l.33-27.5h.32l.33 27.5.33 27.5.33-55h.32l.33 55 .33-27.5.33-27.5.32 27.5.33 27.5.33-55 .33 55h.65l.33-55 .33-27.49.33 82.49.32-55 .33 27.5.33-54.99.33 82.49h.33l.32-27.5h.66l.33 27.5h.32l.33-27.5.33-27.5.33-27.49.33 82.49h.32l.33-82.49.33 82.49h.33l.32-27.5.33 27.5h.99l.32-27.5.33 27.5.33-55 .33 55 .32-55 .33 55 .33-27.5h.33l.33-27.5h.65l.33 55h.33l.32-55 .33 55 .33-27.5.33-54.99.32 27.49.33 27.5.33-27.5h.33l.33 55 .32-27.5h.33l.33 27.5h.33l.32-27.5h.66l.33 27.5h.33l.32-55 .33 55h1.31l.33-27.5.33 27.5.33-27.5.32-27.5.33 55 .33-109.99.33 82.49.32 27.5.33-27.5.33 27.5.33-55h.33l.32 55h.33l.33-27.5.33 27.5.32-55h.33l.33 55 .33-27.5.33-27.5.32 27.5h.99l.32-27.5h.66l.33 55 .33-27.5.32-27.5h.33l.33 27.5.33 27.5.32-27.5h.33l.33-27.5.33 55h.98l.33-55 .33 27.5.32 27.5h.66l.33-27.5.32 27.5h.33l.33-27.5.33 27.5.33-27.5.32 27.5.33-27.5h.33l.33 27.5h.32l.33-55 .33 27.5h.33l.33 27.5h.65l.33-55h.33l.32 27.5.33 27.5.33-82.49.33-27.5.33 109.99.32-55h.33l.33 55 .33-55h.32l.33 27.5.33 27.5.33-55 .33 27.5h.32l.33 27.5.33-55 .33 55h.98l.33-27.5.33-27.5.32 27.5h.33l.33-54.99.33 82.49.32-27.5.33 27.5.33-27.5.33 27.5.32-55 .33 27.5h.33l.33-27.5.33 55 .32-27.5h.33l.33 27.5h.65l.33-55 .33 55 .33-55 .33 27.5h.65l.33-27.5.33 27.5h.32l.33 27.5h.33l.33-27.5.33 27.5.32-27.5h.66l.33-27.5.32-27.49.33 82.49.33-109.99L145 127l.33 55 .32-27.5.33 27.5h.33l.33-55 .32 55h.33l.33-27.5.33 27.5h.33l.32-27.5h.66l.33-27.5.32 55h.33l.33-27.5.33-27.5.32 55 .33-82.49.33 27.49h.33l.33 55 .32-55 .33 55h.66l.32-55 .33 55 .33-27.5.33 27.5.33-27.5h.98l.33 27.5.32-82.49.33 82.49h.33l.33-27.5.33 27.5h.98l.33-55 .32 55 .33-55 .33 55h.33l.33-55h.65l.33 55 .33-27.5.32-27.5.33 27.5.33-27.5.33 55 .33-55 .32 55h.33l.33-27.5.33 27.5.32-55h.66l.33 27.5h.33l.32 27.5h.33l.33-55 .33 55h.65l.33-27.5.33 27.5.32-55 .33 27.5.33 27.5.33-55 .33 55h.65l.33-27.5.33 27.5.32-109.99.33 109.99.33-55 .33 55h.33l.32-27.5h.66l.33 27.5h.32l.33-55h.33l.33 55 .33-55 .32 55h.33l.33-27.5h.65l.33 27.5.33-55 .33 55 .33-27.5h.32l.33-27.5.33 55 .33-27.5.32 27.5h.33l.33-27.5.33 27.5.33-55h.32l.33 55 .33-55 .33 55 .32-27.5h.33l.33-27.5.33 55 .33-27.5.32 27.5h.66l.33-27.5.32 27.5h.33l.33-27.5.33-27.5.32 55 .33-55 .33 55h.33l.33-27.5h.32l.33 27.5h.98l.33-55 .33-27.49.33 82.49.33-27.5.32 27.5h1.31l.33-27.5.33-27.5.33 55h.98l.33-55 .33 55 .32-55 .33 55 .33-55 .33 55 .33-55 .32 55 .33-27.5.33-27.5.33-27.49h.32l.33 54.99.33-27.5h.33l.33 27.5.32 27.5.33-55 .33 55 .33-55 .32 27.5h.33l.33 27.5h.33l.32-55h.66l.33 27.5h.65l.33-27.5h.33l.33 55 .32-27.5.33 27.5.33-55 .33 55 .33-55 .32 55 .33-55 .33 27.5h.33l.32-27.5.33 27.5h.33l.33 27.5h.33l.32-27.5h.33l.33 27.5h.33l.32-27.5.33 27.5.33-55 .33 55h.33l.32-27.5.33 27.5.33-55h.65l.33 55h.66l.33-55 .32 27.5h.33l.33 27.5.33-27.5.32 27.5h.66l.33-55h.33l.32 27.5.33 27.5h.33l.33-55 .32 55h.33l.33-55 .33 55 .32-55 .33-27.49.33 82.49.33-55h.33l.32 55 .33-55 .33 55h.33l.32-27.5h.66l.33 27.5.33-27.5.32-27.5h.33l.33 55 .33-27.5.32 27.5.33-27.5.33 27.5h.98l.33-55h.33l.33 55h.32l.33-55h.33l.33 55 .33-27.5.32-27.5.33 27.5.33 27.5h.65l.33-55h.33l.33-54.99.33 109.99.32-27.5h.33l.33 27.5.33-27.5.32 27.5h.99l.33-27.5.32 27.5h.33l.33-82.49h.33l.32 82.49h.33l.33-55 .33 55 .32-27.5h.66l.33 27.5.33-55 .32 55 .33-27.5h.66l.32-27.5.33 27.5h.99l.32 27.5h.33l.33-27.5.33 27.5.32-55 .33 55h.33l.33-55 .33-27.49.32 54.99.33-27.5h.33l.33 55 .32-55 .33 55h.33l.33-27.5.33 27.5h.32l.33-27.5.33-54.99.33 27.49.32 27.5h.33l.33-27.5h.98l.33 55 .33-27.5.33-27.5.32 55h.33l.33-27.5h.33l.32 27.5.33-55 .33 55 .33-27.5.33-27.5.32 55h.33l.33-55 .33 55 .32-82.49.33 82.49h.66l.33-27.5.32-27.5.33 55 .33-27.5.33 27.5h.32l.33-27.5.33 27.5h.33l.33-27.5.32 27.5h.33l.33-27.5.33 27.5.32-55 .33 55h.66l.33-55 .32 55h.33l.33-55 .33 55h.32l.33-27.5.33 27.5h.66l.32-27.5h.33l.33 27.5.33-55h.32l.33 55 .33-55h.33l.33 55 .32-55h.33l.33 27.5.33 27.5.32-27.5.33 27.5.33-55 .33-54.99.32 54.99h.33l.33 55 .33-55 .33 55h.32l.33-55h.33l.33 55 .32-27.5.33-27.5.33 55h.66l.32-55 .33 55h1.64l.33-82.49.33 54.99h.65l.33-27.5.33 27.5h.32l.33-27.5.33 55 .33-27.5.33 27.5h.32l.33-27.5.33 27.5.33-55 .32 55 .33-82.49.33 82.49.33-27.5.33 27.5h.32l.33-55h.33l.33 55 .32-55 .33 55h.66l.33-27.5.32 27.5.33-55 .33 55 .33-27.5.32 27.5.33-27.5.33 27.5h.33l.32-55 .33 55 .33-27.5.33 27.5h.33l.32-27.5.33 27.5.33-55 .33 55 .32-55 .33 55h.33l.33-27.5.33 27.5h.98l.33-55 .32 55 .33-55h.33l.33 55h1.64l.32-27.5.33-27.5.33 55 .33-55 .33 27.5.32-27.5.33-27.49.33-27.5.33 109.99h.65l.33-27.5h.33l.33 27.5h.65l.33-27.5.33-54.99.32 82.49h.99l.32-27.5.33 27.5h.33l.33-55 .33 55h.32l.33-55h.33l.33 55h.32l.33-27.5h.66l.33 27.5.32-55 .33 27.5h.98l.33 27.5h.33l.33-55 .33-27.49.32-27.5.33 27.5.33 82.49h.65l.33-27.5h.33l.33-54.99.33 54.99.32 27.5h.33l.33-55 .33 55h.98l.33-55 .33 55 .32-27.5.33 27.5h.33l.33-27.5.32 27.5h.66l.33-27.5h.33l.32 27.5.33-27.5.33 27.5h.33l.32-55 .33 55h.98l.33-27.5h.33l.33 27.5.33-27.5.32 27.5.33-55 .33 55h.33l.32-55h.66l.33 55 .33-27.5.32 27.5.33-55 .33-27.49.33 82.49.32-27.5.33 27.5h.33l.33-27.5.33 27.5.32-55 .33 27.5.33 27.5h1.31l.33-27.5.33 27.5.32-55 .33 55h.33l.33-27.5.32-27.5.33 55h.66l.33-55 .32 27.5.33-27.5.33 55 .33-55h.32l.33 55 .33-55h.66l.32 27.5.33-82.49.33 109.99h.65l.33-55h.66l.32 55h1.32l.32-109.99.33 82.49.33 27.5h1.31l.33-55h.33l.32 55h.99l.32-27.5h.66"/><use xlink:href="#d" color="#00C853" transform="matrix(4.5 0 0 4.5 192.85 99.51)"/><use xlink:href="#d" color="#00C853" transform="matrix(4.5 0 0 4.5 217.1 42.51)"/></g><path fill="none" d="M33.56 72.01V182M358.04 72.01H33.56" color="#000"/><text stroke-linecap="round" stroke-linejoin="round" stroke-width="0" color="#000" font-family="Arial" font-size="8" text-anchor="middle" transform="translate(195.8 8.61)"><tspan>Insert - Skewed</tspan></text></svg>