<svg xmlns="http://www.w3.org/2000/svg" xmlns:xlink="http://www.w3.org/1999/xlink" viewBox="0 0 400 250"><path fill="none" d="M0 0h400v250H0z"/><defs><path id="g" stroke="currentColor" stroke-width=".267" d="M-1 0h2M0-1v2"/><path id="h" stroke="currentColor" stroke-width=".267" d="m-1-1 2 2m0-2-2 2"/><path id="d" stroke="currentColor" stroke-width=".267" d="M-1-1h2v2h-2z"/><path id="i" fill="currentColor" stroke="currentColor" stroke-width=".267" d="M-1-1h2v2h-2z"/><path id="b" stroke="currentColor" stroke-width=".267" d="m0-1.33-1.33 2h2.66z"/><path id="f" stroke="currentColor" stroke-width=".267" d="M0 1.33 1.265.411.782-1.067l-1.564-.009-.483 1.487z"/><use xlink:href="#b" id="c" stroke="currentColor" transform="rotate(180)"/><use xlink:href="#d" id="e" stroke="currentColor" transform="rotate(45)"/><circle id="a" cx="0" cy="0" r="1" stroke="currentColor" stroke-width=".267"/></defs><path fill="none" stroke="#000" stroke-linecap="round" stroke-linejoin="round" stroke-width=".1" d="M35.48 205V45.01" class="gridline" color="#000"/><g fill="none" stroke="none" stroke-linecap="round" stroke-linejoin="round" stroke-width="0" color="#000"><path d="M35.48 205v-7.5m0-152.49v7.5"/><text fill="#000" font-family="KaTeX_Main" font-size="10" text-anchor="middle" transform="translate(35.48 215.75)"><tspan> 1</tspan></text></g><path fill="none" stroke="#000" stroke-linecap="round" stroke-linejoin="round" stroke-width=".1" d="M72.87 205V45.01" class="gridline" color="#000"/><g fill="none" stroke="none" stroke-linecap="round" stroke-linejoin="round" stroke-width="0" color="#000"><path d="M72.87 205v-7.5m0-152.49v7.5"/><text fill="#000" font-family="KaTeX_Main" font-size="10" text-anchor="middle" transform="translate(72.87 215.75)"><tspan> 2</tspan></text></g><path fill="none" stroke="#000" stroke-linecap="round" stroke-linejoin="round" stroke-width=".1" d="M110.26 205V45.01" class="gridline" color="#000"/><g fill="none" stroke="none" stroke-linecap="round" stroke-linejoin="round" stroke-width="0" color="#000"><path d="M110.26 205v-7.5m0-152.49v7.5"/><text fill="#000" font-family="KaTeX_Main" font-size="10" text-anchor="middle" transform="translate(110.26 215.75)"><tspan> 3</tspan></text></g><path fill="none" stroke="#000" stroke-linecap="round" stroke-linejoin="round" stroke-width=".1" d="M147.65 205V45.01" class="gridline" color="#000"/><g fill="none" stroke="none" stroke-linecap="round" stroke-linejoin="round" stroke-width="0" color="#000"><path d="M147.65 205v-7.5m0-152.49v7.5"/><text fill="#000" font-family="KaTeX_Main" font-size="10" text-anchor="middle" transform="translate(147.65 215.75)"><tspan> 4</tspan></text></g><path fill="none" stroke="#000" stroke-linecap="round" stroke-linejoin="round" stroke-width=".1" d="M185.04 205V45.01" class="gridline" color="#000"/><g fill="none" stroke="none" stroke-linecap="round" stroke-linejoin="round" stroke-width="0" color="#000"><path d="M185.04 205v-7.5m0-152.49v7.5"/><text fill="#000" font-family="KaTeX_Main" font-size="10" text-anchor="middle" transform="translate(185.04 215.75)"><tspan> 5</tspan></text></g><path fill="none" stroke="#000" stroke-linecap="round" stroke-linejoin="round" stroke-width=".1" d="M222.43 205V45.01" class="gridline" color="#000"/><g fill="none" stroke="none" stroke-linecap="round" stroke-linejoin="round" stroke-width="0" color="#000"><path d="M222.43 205v-7.5m0-152.49v7.5"/><text fill="#000" font-family="KaTeX_Main" font-size="10" text-anchor="middle" transform="translate(222.43 215.75)"><tspan> 6</tspan></text></g><path fill="none" stroke="#000" stroke-linecap="round" stroke-linejoin="round" stroke-width=".1" d="M259.82 205V45.01" class="gridline" color="#000"/><g fill="none" stroke="none" stroke-linecap="round" stroke-linejoin="round" stroke-width="0" color="#000"><path d="M259.82 205v-7.5m0-152.49v7.5"/><text fill="#000" font-family="KaTeX_Main" font-size="10" text-anchor="middle" transform="translate(259.82 215.75)"><tspan> 7</tspan></text></g><path fill="none" stroke="#000" stroke-linecap="round" stroke-linejoin="round" stroke-width=".1" d="M297.21 205V45.01" class="gridline" color="#000"/><g fill="none" stroke="none" stroke-linecap="round" stroke-linejoin="round" stroke-width="0" color="#000"><path d="M297.21 205v-7.5m0-152.49v7.5"/><text fill="#000" font-family="KaTeX_Main" font-size="10" text-anchor="middle" transform="translate(297.21 215.75)"><tspan> 8</tspan></text></g><path fill="none" stroke="#000" stroke-linecap="round" stroke-linejoin="round" stroke-width=".1" d="M334.6 205V45.01" class="gridline" color="#000"/><g fill="none" stroke="none" stroke-linecap="round" stroke-linejoin="round" stroke-width="0" color="#000"><path d="M334.6 205v-7.5m0-152.49v7.5"/><text fill="#000" font-family="KaTeX_Main" font-size="10" text-anchor="middle" transform="translate(334.6 215.75)"><tspan> 9</tspan></text></g><path fill="none" stroke="#000" stroke-linecap="round" stroke-linejoin="round" stroke-width=".1" d="M371.99 205V45.01" class="gridline" color="#000"/><g fill="none" stroke="none" stroke-linecap="round" stroke-linejoin="round" stroke-width="0" color="#000"><path d="M371.99 205v-7.5m0-152.49v7.5"/><text fill="#000" font-family="KaTeX_Main" font-size="10" text-anchor="middle" transform="translate(371.99 215.75)"><tspan> 10</tspan></text></g><g fill="none" stroke="none" stroke-linecap="round" stroke-linejoin="round" stroke-width="0" color="#000"><path d="M371.99 205h-7.5"/><text fill="#000" font-family="KaTeX_Main" font-size="10" transform="translate(378.99 208.25)"><tspan>0.90</tspan></text></g><g fill="none" stroke="none" stroke-linecap="round" stroke-linejoin="round" stroke-width="0" color="#000"><path d="M371.99 185h-7.5"/><text fill="#000" font-family="KaTeX_Main" font-size="10" transform="translate(378.99 188.25)"><tspan>0.90</tspan></text></g><g fill="none" stroke="none" stroke-linecap="round" stroke-linejoin="round" stroke-width="0" color="#000"><path d="M371.99 165h-7.5"/><text fill="#000" font-family="KaTeX_Main" font-size="10" transform="translate(378.99 168.25)"><tspan>0.91</tspan></text></g><g fill="none" stroke="none" stroke-linecap="round" stroke-linejoin="round" stroke-width="0" color="#000"><path d="M371.99 145h-7.5"/><text fill="#000" font-family="KaTeX_Main" font-size="10" transform="translate(378.99 148.25)"><tspan>0.91</tspan></text></g><g fill="none" stroke="none" stroke-linecap="round" stroke-linejoin="round" stroke-width="0" color="#000"><path d="M371.99 125h-7.5"/><text fill="#000" font-family="KaTeX_Main" font-size="10" transform="translate(378.99 128.25)"><tspan>0.92</tspan></text></g><g fill="none" stroke="none" stroke-linecap="round" stroke-linejoin="round" stroke-width="0" color="#000"><path d="M371.99 105.01h-7.5"/><text fill="#000" font-family="KaTeX_Main" font-size="10" transform="translate(378.99 108.26)"><tspan>0.92</tspan></text></g><g fill="none" stroke="none" stroke-linecap="round" stroke-linejoin="round" stroke-width="0" color="#000"><path d="M371.99 85.01h-7.5"/><text fill="#000" font-family="KaTeX_Main" font-size="10" transform="translate(378.99 88.26)"><tspan>0.93</tspan></text></g><g fill="none" stroke="none" stroke-linecap="round" stroke-linejoin="round" stroke-width="0" color="#000"><path d="M371.99 65.01h-7.5"/><text fill="#000" font-family="KaTeX_Main" font-size="10" transform="translate(378.99 68.26)"><tspan>0.93</tspan></text></g><g fill="none" stroke="none" stroke-linecap="round" stroke-linejoin="round" stroke-width="0" color="#000"><path d="M371.99 45.01h-7.5"/><text fill="#000" font-family="KaTeX_Main" font-size="10" transform="translate(378.99 48.26)"><tspan>0.94</tspan></text></g><path fill="none" stroke="none" stroke-linecap="round" stroke-linejoin="round" stroke-width="0" d="M28 45.01V205M371.99 45.01H28" color="#000"/><text fill="#000" stroke="none" stroke-linecap="round" stroke-linejoin="round" stroke-width="0" color="#000" font-family="KaTeX_Main" font-size="10" text-anchor="middle" transform="rotate(-90 68.255 56.755)"><tspan font-weight="bold">AveragePathLength </tspan><tspan> / log</tspan><tspan dy="3" font-size="8">2</tspan><tspan dy="-3">(Size)</tspan></text><text fill="#000" stroke="none" stroke-linecap="round" stroke-linejoin="round" stroke-width="0" color="#000" font-family="KaTeX_Main" font-size="10" text-anchor="middle" transform="translate(199.99 238.25)"><tspan>Operations × 10</tspan><tspan dy="-5" font-size="8">5</tspan></text><text fill="#000" stroke="none" stroke-linecap="round" stroke-linejoin="round" color="#000" font-family="KaTeX_Main" font-size="8" transform="translate(110.4 10.11)"><tspan>AVLBottomUp</tspan></text><g fill="none" stroke="currentColor" stroke-linecap="round" stroke-linejoin="round" color="#000"><path stroke="#000" d="M74.9 7.51h29.9M28 191.89l.37 1.77.38-1.43.37-.95.38-2.44.37.68.37-.29.38-.98.37-.7.38-1.2.37 1.47.37-1.12.38-.97.37-.86.37-.29.38 6.88.37-.65.38-.81.37-.23.37-.57.38-.96.37 6.65.38-.75.37-.46.37-.97.38.52.37-.68.38.35.37-.08.37-.25.38-.7.37-.67.37-.46.38-.81.37 3.35.38-.81.37-.18.37-.15.38-.77.37-.63.38-.91.37-.58.37-.98.38 2.25.37-.51.38-.62.37-.32.37-.66.38-.7.37-.71.38-.39.37-.08.37-1.1.38-.88.37-.73.37.25.38-.92.37-.72.38-.5.37 2.77.37.36.38-.77.37-.98.38-.8.37-.53.37-.99.38-1.07.37-.92.38-1.74.37-.89.37-.66.38-.93.37-.47.37-.96.38-.78.37-2.17.38-.87.37-.1.37-.87.38-.29.37-.66.38-.52.37-1.12.37.21.38 1.65.37 2.72.38.02.37-.56.37-.3.38-.54.37.86.38-.42.37-.54.37-.35.38-.42.37-.23.37-.24h.38l.37-.35.38-.51.37-.54.37-.62.38.72.37-.49.38-.52.37-.51.37 9.08.38-.32.37-.41.38-.27.37-.13.37-.45.38-.47.37-.02.37-.4.38-.49.37-.19.38-.51.37.76.37-.49.38-.28.37.11.38-.42.37-.49.37-.4.38-.39.37-.5.38-.73.37-.33.37-1.19.38 1.73.37-.16.38-.14.37-.31.37.1.38-.15.37-.25.37-.05.38-.49.37.3.38-.33.37-.09.37-.22.38-.4.37-.32.38-.33.37-.43.37-.5.38.29.37-.31.38.15.37-.39.37-.37.38-.4.37-.51.37-.44.38-.4.37-.41.38-.26.37-.42.37-.46.38-.48h.37l.38-.44.37-.51.37 1.57.38-.51.37-.47.38-.59.37-.27.37-.48.38-.52.37-.56.38-.08.37-.52.37.39.38.13.37.53.37-.34.38-.38.37-.37.38-.41.37.46.37-.17.38-.43.37-.48.38-.53.37-.47.37-.55.38-.57.37-.28.38-.08.37-.46.37-.55.38 1.11.37-.41.37-.52.38-.11.37-.41.38-.41.37-.44.37-.46.38-.44.37.71.38-.05.37-.38.37-.36.38-.18.37-.44.38-.41.37 1.26.37-.3.38-.28.37-.28.38-.06.37-.3.37-.32.38-.34.37-.38.37-.39.38-.39.37-.19.38-.26.37-.35.37-.33.38-.43.37-.41.38.22.37-.15.37-.38.38-.4.37.16.38-.36.37-.42.37-.39.38-.18.37-.38.37-.44.38-.16.37-.5.38-.54.37 4.72.37-.16.38-.02.37-.31.38-.38.37-.47.37-.4.38-.44.37-.12.38-.46.37-.33.37-.37.38-.39.37-.34.38-.46.37-.18.37 7.74.38-.34.37-.41.37.14.38.34.37-.26.38-.56.37-.32.37-.37.38-.31.37-.36.38-.36.37-.16.37-.32.38-.39.37-.32.38-.21.37-.36.37-.39.38.42.37-.32.37-.42.38-.31.37-.32.38-.4.37 1.23.37-.34.38.26.37-.29.38-.24.37-.29.37-.3.38-.35.37-.32.38.08.37-.3.37-.28.38-.31.37-.36.38-.33.37-.37.37.15.38-.36.37-.26.37-.28.38-.03.37-.39.38-.36.37 1.24.37-.32.38.17.37-.25.38-.28.37-.32.37.14.38-.25.37-.31.38-.25.37-.27.37-.28.38-.37.37-.07.37-.11.38-.3h.37l.38-.28.37-.28.37-.36.38-.17.37-.24.38-.32.37.06.37-.29.38-.27.37-.36.38-.31.37-.29.37-.3.38-.26.37-.27.38-.72.37-.41.37.18.38-.2.37-.27.37-.18.38-.22.37-.26.38-.39.37-.28.37.1.38-.28.37-.43.38-.19.37-.23.37-.27.38-.24.37.24.38-.23.37-.16.37-.23.38-.22.37-.25.37-.27.38-.25.37-.3.38-.22.37-.28.37-.29.38-.35.37-.3.38.15.37-.28.37-.23.38-.29.37-.35.38-.35.37-.32.37.01.38.5.37 3.55.38-.22.37-.22.37-.27.38-.26.37.25.37-.24.38-.18.37-.24.38-.25.37-.3.37-.26.38 1.57.37-.21.38-.19.37-.23.37-.25.38-.3.37-.27.38.21.37-.23.37-.24.38-.26.37.89.37-.28.38-.3.37.07.38-.24h.37l.37-.27.38-.23.37-.28.38-.28.37.2.37 4.43.38-.15.37-.18.38-.13.37-.17.37-.21.38.04.37-.15.38-.17.37-.18.37-.15h.38l.37-.17.37-.18.38-.16.37-.16.38-.19.37-.11.37-.22.38-.08.37.01.38-.18.37-.21.37-.16.38.43.37-.16.38-.17.37 5.07.37-.12.38-.14.37-.1.37-.08.38 2.03.37-.14.38 8.98.37-.18.37-.22.38-.1.37-.19.38-.21.37-.15.37.01.38-.22.37-.24.38.02.37-.2.37-.22.38-.25.37.12.38-.21.37-.24.37-.2.38-.2.37-.22.37.08.38.07.37.02.38-.19.37-.16.37-.18.38-.18.37-.2.38.07.37-.19.37-.21.38-.1.37-.17.38-.17.37.01.37-.16.38-.21.37-.18.37-.13.38-.17.37-.19.38-.17.37.13.37-.18.38-.2.37-.15.38-.19.37-.18.37-.22.38.04.37-.19.38-.21.37-.18.37-.18.38-.2.37-.02.37-.22.38-.25.37-.23.38-.27.37-.07.37-.18.38-.01.37-.06.38-.21.37.27.37-.18.38-.19.37-.21.38.16.37.07.37-.19.38-.18.37.23.38-.16.37-.13.37-.18.38-.23.37-.16.37-.19.38-.21.37-.16.38-.18.37.04.37-.18.38-.16.37-.18.38-.19.37-.13.37-.11.38-.15.37-.22.38-.22.37-.18.37-.21.38-.22.37 1.4.37.05.38 3.14.37.18.38-.1.37-.11.37-.17.38-.1.37-.14.38-.15.37-.15.37-.14.38-.16.37-.16.38-.16.37.06.37-.16.38-.14.37-.16.38-.16.37-.19.37.01.38-.18.37-.17.37-.17.38-.19.37-.19.38-.21.37-.18.37.06.38-.19.37.15.38-.17.37-.16.37-.2.38-.16.37-.17.38-.2.37-.17.37-.21.38-.2.37-.24.37-.19.38.05.37-.2.38-.19.37-.21.37-.18h.38l.37-.18.38-.16.37-.22.37-.18.38-.12.37-.19.38-.14.37-.19.37.82.38.03.37-.13.38-.16.37.25.37-.14.38-.12.37-.14.37-.15.38-.13.37-.07.38-.14.37-.12.37-.14.38-.12.37-.16.38-.15.37-.17.37-.13.38-.17.37-.16.38-.16.37-.18.37-.18.38-.13.37-.3.37-.17.38-.18.37-.16.38-.16.37-.2.37-.21.38-.17.37.2.38-.2.37-.16.37-.18.38-.21.37-.17.38-.16.37-.19.37-.17.38-.17.37-.18.38-.21.37-.23.37-.19h.38l.37-.21.37-.17.38-.18.37-.21.38-.14.37-.14.37-.17.38-.2.37-.02.38-.16.37-.17.37-.15.38-.18.37.23.38-.18.37-.14.37-.18.38-.32.37-.12.37-.16.38-.15.37-.16.38-.15.37-.18.37-.17.38 1.89.37-.15.38-.14.37-.15.37.19.38-.13.37-.12.38-.08.37-.11.37-.1.38-.12.37-.11.38-.13.37-.18.37-.16.38-.13.37-.15.37.3.38-.11.37-.12.38-.15.37-.08.37-.12.38-.11.37-.1.38-.13.37-.12.37-.15.38-.17.37-.15.38-.15.37.11.37-.13.38-.13.37-.13.37-.09.38-.11.37-.15.38-.11.37-.12.37-.12.38-.17.37-.17.38-.19.37-.16.37.29.38-.12.37-.14.38-.16.37-.08.37-.14.38-.14.37-.12.38-.13.37-.11.37-.17.38-.17.37-.15.37-.16.38 1.33.37-.13.38-.14.37-.15.37-.14.38-.09.37-.13.38-.1.37-.13.37-.13.38-.14.37-.15.38-.15.37-.16.37.26.38-.12.37-.14.37-.14.38-.14.37-.1.38-.15.37-.11.37-.13.38-.15.37-.17.38-.16.37-.19.37-.16.38.12.37-.14.38-.13.37-.15.37-.16.38-.06.37-.15.38-.12.37-.13.37-.15.38-.17.37-.16.37-.18.38-.16.37-.17.38.28.37-.13.37-.16.38-.12.37-.13.38-.14.37-.14.37-.16.38-.15.37-.17.38-.17.37-.2.37-.16.38-.17.37-.75.37-.15.38-.15.37-.14.38-.1.37-.13.37-.13.38-.15.37-.11.38-.14.37-.18.37-.17.38-.15.37-.15.38.28.37-.13.37-.13.38 4.76.37-.11.38-.05.37-.11.37-.09.38-.11.37-.12.37-.14.38-.12.37-.14.38-.12.37.16.37-.11.38-.11.37-.11.38-.11.37-.08.37-.11.38-.11.37-.1.38-.12.37-.13.37-.13.38-.14.37 3.11.37.32.38-.09.37-.09.38-.1.37-.11.37-.05.38-.11.37-.08.38-.1.37-.11.37-.12.38-.11.37-.12.38-.1.37 1.23.37-.1.38-.07.37-.09.38-.09.37-.06.37-.1.38-.09.37-.09.37-.07.38-.12.37-.11.38-.12.37-.1.37-.12.38.11.37-.09.38-.11.37-.11.37-.11.38 1.17.37-.1.38-.09.37-.07.37.14.38-.09.37-.11.37-.08.38.18.37-.08.38-.06.37-.06.37-.08.38-.05.37-.08.38-.1.37-.07.37-.08.38-.09.37-.11.38-.1.37-.1.37-.1.38.34.37-.08.38-.08.37-.09.37-.1.38-.05.37-.12.37-.08.38.33.37-.08.38-.07.37-.08.37-.1.38-.06.37-.09.38-.07.37-.07.37-.09.38-.1.37-.04.38-.1.37-.08.37-.09.38-.1.37-.11.37-.1.38-.11.37-.08.38.33.37-.09.37-.08.38-.09.37-.11.38-.06.37-.09"/><use xlink:href="#g" transform="matrix(3.75 0 0 3.75 342.45 107.11)"/><use xlink:href="#g" transform="matrix(3.75 0 0 3.75 89.85 7.51)"/></g><text fill="#000" stroke="none" stroke-linecap="round" stroke-linejoin="round" color="#000" font-family="KaTeX_Main" font-size="8" transform="translate(110.4 25.11)"><tspan>AVLTopDown</tspan></text><g fill="none" stroke="currentColor" stroke-linecap="round" stroke-linejoin="round" color="#000"><path stroke="#29C3F6" stroke-dasharray="1.0,2.0" d="M74.9 22.51h29.9M28 191.89l.37 1.77.38-1.43.37-.95.38-2.44.37.68.37-.29.38-.98.37-.7.38-1.2.37 1.47.37-1.12.38-.97.37-.86.37-.29.38 6.88.37-.65.38-.81.37-.23.37-.57.38-.96.37 6.65.38-.75.37-.46.37-.97.38.52.37-.68.38.35.37-.08.37-.25.38-.7.37-.67.37-.46.38-.81.37 3.35.38-.81.37-.18.37-.15.38-.77.37-.63.38-.91.37-.58.37-.98.38 2.25.37-.51.38-.62.37-.32.37-.66.38-.7.37-.71.38-.39.37-.08.37-1.1.38-.88.37-.73.37.25.38-.92.37-.72.38-.5.37 2.77.37.36.38-.77.37-.98.38-.8.37-.53.37-.99.38-1.07.37-.92.38-1.74.37-.89.37-.66.38-.93.37-.47.37-.96.38-.78.37-2.17.38-.87.37-.1.37-.87.38-.29.37-.66.38-.52.37-1.12.37.21.38 1.65.37 2.72.38.02.37-.56.37-.3.38-.54.37.86.38-.42.37-.54.37-.35.38-.42.37-.23.37-.24h.38l.37-.35.38-.51.37-.54.37-.62.38.72.37-.49.38-.52.37-.51.37 9.08.38-.32.37-.41.38-.27.37-.13.37-.45.38-.47.37-.02.37-.4.38-.49.37-.19.38-.51.37.76.37-.49.38-.28.37.11.38-.42.37-.49.37-.4.38-.39.37-.5.38-.73.37-.33.37-1.19.38 1.73.37-.16.38-.14.37-.31.37.1.38-.15.37-.25.37-.05.38-.49.37.3.38-.33.37-.09.37-.22.38-.4.37-.32.38-.33.37-.43.37-.5.38.29.37-.31.38.15.37-.39.37-.37.38-.4.37-.51.37-.44.38-.4.37-.41.38-.26.37-.42.37-.46.38-.48h.37l.38-.44.37-.51.37 1.57.38-.51.37-.47.38-.59.37-.27.37-.48.38-.52.37-.56.38-.08.37-.52.37.39.38.13.37.53.37-.34.38-.38.37-.37.38-.41.37.46.37-.17.38-.43.37-.48.38-.53.37-.47.37-.55.38-.57.37-.28.38-.08.37-.46.37-.55.38 1.11.37-.41.37-.52.38-.11.37-.41.38-.41.37-.44.37-.46.38-.44.37.71.38-.05.37-.38.37-.36.38-.18.37-.44.38-.41.37 1.26.37-.3.38-.28.37-.28.38-.06.37-.3.37-.32.38-.34.37-.38.37-.39.38-.39.37-.19.38-.26.37-.35.37-.33.38-.43.37-.41.38.22.37-.15.37-.38.38-.4.37.16.38-.36.37-.42.37-.39.38-.18.37-.38.37-.44.38-.16.37-.5.38-.54.37 4.72.37-.16.38-.02.37-.31.38-.38.37-.47.37-.4.38-.44.37-.12.38-.46.37-.33.37-.37.38-.39.37-.34.38-.46.37-.18.37 7.74.38-.34.37-.41.37.14.38.34.37-.26.38-.56.37-.32.37-.37.38-.31.37-.36.38-.36.37-.16.37-.32.38-.39.37-.32.38-.21.37-.36.37-.39.38.42.37-.32.37-.42.38-.31.37-.32.38-.4.37 1.23.37-.34.38.26.37-.29.38-.24.37-.29.37-.3.38-.35.37-.32.38.08.37-.3.37-.28.38-.31.37-.36.38-.33.37-.37.37.15.38-.36.37-.26.37-.28.38-.03.37-.39.38-.36.37 1.24.37-.32.38.17.37-.25.38-.28.37-.32.37.14.38-.25.37-.31.38-.25.37-.27.37-.28.38-.37.37-.07.37-.11.38-.3h.37l.38-.28.37-.28.37-.36.38-.17.37-.24.38-.32.37.06.37-.29.38-.27.37-.36.38-.31.37-.29.37-.3.38-.26.37-.27.38-.72.37-.41.37.18.38-.2.37-.27.37-.18.38-.22.37-.26.38-.39.37-.28.37.1.38-.28.37-.43.38-.19.37-.23.37-.27.38-.24.37.24.38-.23.37-.16.37-.23.38-.22.37-.25.37-.27.38-.25.37-.3.38-.22.37-.28.37-.29.38-.35.37-.3.38.15.37-.28.37-.23.38-.29.37-.35.38-.35.37-.32.37.01.38.5.37 3.55.38-.22.37-.22.37-.27.38-.26.37.25.37-.24.38-.18.37-.24.38-.25.37-.3.37-.26.38 1.57.37-.21.38-.19.37-.23.37-.25.38-.3.37-.27.38.21.37-.23.37-.24.38-.26.37.89.37-.28.38-.3.37.07.38-.24h.37l.37-.27.38-.23.37-.28.38-.28.37.2.37 4.43.38-.15.37-.18.38-.13.37-.17.37-.21.38.04.37-.15.38-.17.37-.18.37-.15h.38l.37-.17.37-.18.38-.16.37-.16.38-.19.37-.11.37-.22.38-.08.37.01.38-.18.37-.21.37-.16.38.43.37-.16.38-.17.37 5.07.37-.12.38-.14.37-.1.37-.08.38 2.03.37-.14.38 8.98.37-.18.37-.22.38-.1.37-.19.38-.21.37-.15.37.01.38-.22.37-.24.38.02.37-.2.37-.22.38-.25.37.12.38-.21.37-.24.37-.2.38-.2.37-.22.37.08.38.07.37.02.38-.19.37-.16.37-.18.38-.18.37-.2.38.07.37-.19.37-.21.38-.1.37-.17.38-.17.37.01.37-.16.38-.21.37-.18.37-.13.38-.17.37-.19.38-.17.37.13.37-.18.38-.2.37-.15.38-.19.37-.18.37-.22.38.04.37-.19.38-.21.37-.18.37-.18.38-.2.37-.02.37-.22.38-.25.37-.23.38-.27.37-.07.37-.18.38-.01.37-.06.38-.21.37.27.37-.18.38-.19.37-.21.38.16.37.07.37-.19.38-.18.37.23.38-.16.37-.13.37-.18.38-.23.37-.16.37-.19.38-.21.37-.16.38-.18.37.04.37-.18.38-.16.37-.18.38-.19.37-.13.37-.11.38-.15.37-.22.38-.22.37-.18.37-.21.38-.22.37 1.4.37.05.38 3.14.37.18.38-.1.37-.11.37-.17.38-.1.37-.14.38-.15.37-.15.37-.14.38-.16.37-.16.38-.16.37.06.37-.16.38-.14.37-.16.38-.16.37-.19.37.01.38-.18.37-.17.37-.17.38-.19.37-.19.38-.21.37-.18.37.06.38-.19.37.15.38-.17.37-.16.37-.2.38-.16.37-.17.38-.2.37-.17.37-.21.38-.2.37-.24.37-.19.38.05.37-.2.38-.19.37-.21.37-.18h.38l.37-.18.38-.16.37-.22.37-.18.38-.12.37-.19.38-.14.37-.19.37.82.38.03.37-.13.38-.16.37.25.37-.14.38-.12.37-.14.37-.15.38-.13.37-.07.38-.14.37-.12.37-.14.38-.12.37-.16.38-.15.37-.17.37-.13.38-.17.37-.16.38-.16.37-.18.37-.18.38-.13.37-.3.37-.17.38-.18.37-.16.38-.16.37-.2.37-.21.38-.17.37.2.38-.2.37-.16.37-.18.38-.21.37-.17.38-.16.37-.19.37-.17.38-.17.37-.18.38-.21.37-.23.37-.19h.38l.37-.21.37-.17.38-.18.37-.21.38-.14.37-.14.37-.17.38-.2.37-.02.38-.16.37-.17.37-.15.38-.18.37.23.38-.18.37-.14.37-.18.38-.32.37-.12.37-.16.38-.15.37-.16.38-.15.37-.18.37-.17.38 1.89.37-.15.38-.14.37-.15.37.19.38-.13.37-.12.38-.08.37-.11.37-.1.38-.12.37-.11.38-.13.37-.18.37-.16.38-.13.37-.15.37.3.38-.11.37-.12.38-.15.37-.08.37-.12.38-.11.37-.1.38-.13.37-.12.37-.15.38-.17.37-.15.38-.15.37.11.37-.13.38-.13.37-.13.37-.09.38-.11.37-.15.38-.11.37-.12.37-.12.38-.17.37-.17.38-.19.37-.16.37.29.38-.12.37-.14.38-.16.37-.08.37-.14.38-.14.37-.12.38-.13.37-.11.37-.17.38-.17.37-.15.37-.16.38 1.33.37-.13.38-.14.37-.15.37-.14.38-.09.37-.13.38-.1.37-.13.37-.13.38-.14.37-.15.38-.15.37-.16.37.26.38-.12.37-.14.37-.14.38-.14.37-.1.38-.15.37-.11.37-.13.38-.15.37-.17.38-.16.37-.19.37-.16.38.12.37-.14.38-.13.37-.15.37-.16.38-.06.37-.15.38-.12.37-.13.37-.15.38-.17.37-.16.37-.18.38-.16.37-.17.38.28.37-.13.37-.16.38-.12.37-.13.38-.14.37-.14.37-.16.38-.15.37-.17.38-.17.37-.2.37-.16.38-.17.37-.75.37-.15.38-.15.37-.14.38-.1.37-.13.37-.13.38-.15.37-.11.38-.14.37-.18.37-.17.38-.15.37-.15.38.28.37-.13.37-.13.38 4.76.37-.11.38-.05.37-.11.37-.09.38-.11.37-.12.37-.14.38-.12.37-.14.38-.12.37.16.37-.11.38-.11.37-.11.38-.11.37-.08.37-.11.38-.11.37-.1.38-.12.37-.13.37-.13.38-.14.37 3.11.37.32.38-.09.37-.09.38-.1.37-.11.37-.05.38-.11.37-.08.38-.1.37-.11.37-.12.38-.11.37-.12.38-.1.37 1.23.37-.1.38-.07.37-.09.38-.09.37-.06.37-.1.38-.09.37-.09.37-.07.38-.12.37-.11.38-.12.37-.1.37-.12.38.11.37-.09.38-.11.37-.11.37-.11.38 1.17.37-.1.38-.09.37-.07.37.14.38-.09.37-.11.37-.08.38.18.37-.08.38-.06.37-.06.37-.08.38-.05.37-.08.38-.1.37-.07.37-.08.38-.09.37-.11.38-.1.37-.1.37-.1.38.34.37-.08.38-.08.37-.09.37-.1.38-.05.37-.12.37-.08.38.33.37-.08.38-.07.37-.08.37-.1.38-.06.37-.09.38-.07.37-.07.37-.09.38-.1.37-.04.38-.1.37-.08.37-.09.38-.1.37-.11.37-.1.38-.11.37-.08.38.33.37-.09.37-.08.38-.09.37-.11.38-.06.37-.09"/><use xlink:href="#h" color="#29C3F6" transform="matrix(3.75 0 0 3.75 56.04 170.4)"/><use xlink:href="#h" color="#29C3F6" transform="matrix(3.75 0 0 3.75 89.85 22.51)"/></g><text fill="#000" stroke="none" stroke-linecap="round" stroke-linejoin="round" color="#000" font-family="KaTeX_Main" font-size="8" transform="translate(241.1 10.11)"><tspan>RedBlackBottomUp</tspan></text><g fill="none" stroke="currentColor" stroke-linecap="round" stroke-linejoin="round" color="#000"><path stroke="#F44336" d="M205.6 7.51h29.9M28 133.94l.37-3.54.38 13.94.37-4.57.38 7.08.37-4.02.37-3.75.38-.24.37-3.8.38 3.46.37-3.66.37 4.3.38-3.82.37-1.67.37-.09.38-.27.37 4.17.38-2.62.37-2.5.37-3.84.38-3.61.37-2.45.38-3.75.37 1.94.37-3.63.38-2.33.37-2.83.38 2.51.37-3.08.37-3.23.38.97.37 4.66.37-2.51.38-1.44.37-2.78.38 10.01.37-2.99.37-.12.38-2.87.37-.47.38-2.4.37-2.09.37-2.84.38 7.93.37-1.57.38-1.83.37-2.67.37.13.38-2.62.37-3.06.38-.25.37-2.68.37-3.6.38-1.96.37-1.77.37-2.57.38 23.84.37 7.42.38-1.97.37-2.78.37 2.09.38-2.18.37-1.92.38-2.71.37.81.37-2.66.38-1.9.37-2.19.38 7.09.37.59.37-2.01.38 1.45.37-.41.37-2.15.38-1.34.37-2.35.38 1.98.37-2.41.37-.38.38-2.23.37-.54.38-2.05.37-1.75.37-.52.38 15.82.37-2.48.38-1.75.37-2.39.37 2.32.38-2.27.37-1.66.38-2.89.37-1.13.37 1.83.38-2.35.37-1.53.37-2.24.38-.7.37-2.33.38 1.46.37-2.2.37 5.67.38-2.09.37-1.74.38-1.25.37.43.37-1.44.38-1.49.37-2.11.38 1.78.37-1.98.37-1.5.38 5.33.37-.77.37-1.9.38-1.46.37-1.64.38-2.51.37-2.16.37 3.52.38-1.97.37-.63.38-1.41.37-1.31.37-1.92.38 1.12.37.4.38-1.51.37-1.88.37-.31.38-1.94.37 11.27.38-1.79.37 6.03.37-2.03.38-1.76.37-1.11.37 5.57.38-.29.37-1.71.38 4.99.37-1.7.37 1.18.38-1.53.37-1.28.38-1.63.37.22.37-1.66.38-1.18.37-1.66.38 10.84.37-1.75.37-1.17.38.22.37.04.37-1.76.38 27.06.37-1.45.38 1.16.37-1.68.37-.61.38-1.67.37-.46.38-1.67.37-1.01.37-1.52.38 3.78.37 3.37.38-1.25.37-1.5.37-.36.38-1.26.37-1.13.38-1.61.37 1.55.37-1.5.38-1.23.37-1.71.37-1.13.38-.37.37.15.38-1.14.37-1.4.37-2.03.38-1.38.37-1.23.38.47.37-.13.37-1.53.38-1.07.37-1.35.38.78.37-1.47.37-1.28.38 8.08.37-.48.37-1.39.38-1.03.37-1.68.38 3.45.37-1.54.37-.73.38-1.39.37-.43.38-1.35.37-1.19.37 9.95.38.76.37.07.38-1.04.37-1.37.37-.33.38-1.34.37-.96.38-.99.37 8.12.37-1.3.38-1.08.37-1.21.37-1.72.38-.36.37 2.28.38-1.1.37-1.27.37.72.38-1.24.37-1.06.38-1.25.37-.03.37-1.38.38-1.06.37-1.38.38 3.17.37-1.29.37-1.08.38-.16.37-.49.37-1.33.38-.82.37-1.36.38.68.37-1.44.37-.64.38-1.34.37-.45.38-1.33.37-.91.37-1.28.38 15.82.37-1.47.38-1.19.37-1.45.37-.45.38-1.43.37 1.35.38-1.33.37.9.37-1.36.38-.97.37-1.21.37-.54.38-1.27.37-1.6.38.11.37-1.27.37 2.53.38-1.06.37-1.08.38-1.25.37-.59.37-.94.38-.94.37-1.34.38.55.37 7.72.37-.91.38 1.68.37-.44.37 1.71.38-.91.37-1.03.38 6.47.37-1.06.37-.7.38-1.12.37-.38.38-1.16.37-.76.37-1.1.38.48.37-.19.38-.88.37-1.07.37-.44.38-1.04.37.65.38-1.09.37 2.79.37-1.05.38-.83.37-.94.37-.37.38-1.03.37-.85.38 5.76.37-1.17.37.56.38-.93.37-.82.38-.95.37-.08.37-1.04.38-.76.37-1.02.38-1.24.37-1.08.37-.92.38-.29.37-.49.37-1.05.38-.88.37 18.49.38.52.37-1.07.37-.51.38-.99.37-.49.38-.96.37-.85.37-1.04.38 2.16.37 1.24.38-.74.37-1.02.37-.29.38-1.05.37-.81.38-.75.37.41.37-.99.38-.81.37-.91.37-.34.38-1.05.37-.05.38-.68.37 5.45.37-1.18.38-.83.37-.75.38-.99.37-.09.37-1 .38-.09.37-.85.38.43.37-.94.37-.74.38-1.1.37-.25.37-.99.38-.7.37-1.03.38 1.97.37-1.02.37-.52.38-.97.37-.43.38-.86.37-.92.37-.96.38 1.04.37-.98.38-.88.37-.94.37-.32.38-.9.37-.83.38 3.29.37 10.96.37-.95.38-.8.37-.85.37-.39.38-.99.37 1.11.38-.91.37.42.37.04.38-.76.37-1.06.38-.92.37-.14.37-.92.38-.66.37-.85.38 1.79.37-.9.37-.77.38-.22.37-.34.37-.96.38-.62.37-.91.38.38.37-.92.37-.49.38-.89.37-.38.38-.8.37-.73.37-.94.38 9.29.37.43.38-.67.37-.91.37-.22.38-.94.37-.65.38-.68.37.32.37-.84.38-.61.37-.89.37-.36.38-.89.37-.1.38-.91.37 1.7.37-.77.38-.73.37-.87.38-.35.37-.83.37-.82.38-.73.37-.75.38.29.37-.89.37-.75.38.75.37-.34.37-.88.38-.59.37-.89.38-1.08.37-.71.37-.83.38-.91.37.82.38-.8.37-.79.37-.86.38.73.37-.99.38-.7.37-.91.37-.31.38-.86.37-.78.38-.74.37 1.31.37-.87.38-.76.37-.49.37-.4.38-.91.37 8.38.38-.84.37 14.11.37-.7.38-.67.37-.81.38-.4.37-.62.37-.99.38-.62.37-.66.38 3.93.37-.81.37-.66.38-.35.37-.32.37-.85.38-.59.37-.82.38.21.37 3.18.37-.62.38-.75.37-.31.38-.67.37-.62.37-.74.38 2.86.37-.8.38-.58.37-.82.37-.22.38-.77.37-.55.37-.58.38.23.37-.7.38-.61.37-.64.37-.28.38-.78.37-.14.38-.76.37 8.42.37-.67.38-.61.37-.7.38-.34.37-.58.37-.61.38-.72.37-.79.38 1.06.37-.68.37-.62.38 2.85.37-.31.37-.66.38-.47.37-.71.38 1.42.37-.71.37-.39.38-.68.37-.31.38-.6.37-.56.37-.69.38.72.37-.71.38-.54.37-.71.37-.26.38-.65.37 13.18.37-.49.38 3.58.37-.67.38-.56.37-.55.37-.24.38-.66.37.68.38-.68.37.34.37-.66.38-.4.37-.62.38-.26.37-.48.37-.54.38-.59.37 1.43.38-.65.37-.75.37-.53.38-.21.37-.2.37-.66.38-.43.37-.65.38.28.37-.66.37-.31.38-.65.37-.26.38-.56.37-.53.37-.59.38 15.73.37-.71.38-.51.37-.72.37-.21.38-.7.37-.57.37-.52.38.21.37-.67.38-.56.37-.6.37-.3.38-.69.37-.17.38-.69.37 1.23.37-.62.38-.56.37-.67.38-.32.37-.53.37-.59.38-.64.37.25.38-.71.37-.54.37-.82.38.38.37-.28.37-.67.38-.46.37-.07.38 3.19.37 2.97.37-.52.38-.61.37-.25.38-.57.37-.5.37-.61.38.64.37-.63.38-.5.37-.61.37-.2.38-.59.37-.5.37-.47.38 1.1.37-.58.38-.52.37-.54.37-.18.38-.66.37 2.3.38-.62.37.23.37-.57.38-.42.37-.58.38-.26.37-.47.37-.5.38-.57.37 6.81.38-.65.37-.48.37-.62.38.1.37-.71.37-.63.38-.42.37-.62.38.24.37-.48.37-.52.38-.61.37-.28.38-.53.37 24.74.37-.24.38 2.04.37-.6.38-.44.37-.59.37-.15.38-.56.37-.48.37-.46.38.2.37-.6.38.15.37-.59.37-.21.38-.6.37-.13.38-.54.37 2.86.37-.5.38-.48.37-.56.38-.12.37-.61.37-.45.38-.59.37.26.38-.6.37-.47.37 5.87.38-.24.37-.53.37-.46.38-.6.37-.52.38 1.05.37-.43.37-.47.38-.57.37-.16.38-.58.37-.45.37-.58.38.49.37-.57.38-.44.37-.49.37-.26.38-.54.37-.48.37-.45.38-.68.37-.63.38-.44.37-.67.37-.29.38-.63.37.36.38-.59.37.14.37-.54.38-.51.37-.56.38-.17.37-.62.37-.5.38-.62.37 1 .38-.57.37-.5.37-.25.38-.28.37-.59.37-.52.38-.53.37-.65.38.12.37-.49.37-.5.38-.58.37-.3.38-.54.37 2.8.37-.57.38 4.79.37-.56.38-.44.37-.48.37-.24.38-.54.37-.44.37-.44.38.18.37-.57.38-.38.37-.57.37-.23.38-.28.37-.45.38-.52.37.94.37-.48.38-.51.37-.51.38-.1.37-.57.37-.43.38-.58.37.2.38-.51.37-.47.37.2.38-.26.37-.52.37-.45.38-.45.37 5.04.38-.56.37-.48.37-.46.38-.52.37-.18.38-.56.37-.44.37-.54.38.42.37-.55.38-.41.37-.52.37-.28.38-.51.37-.44.37-.4.38.94.37-.54.38 6.21.37-.49.37-.2.38-.5.37-.47.38-.48.37.83.37-.43.38-.4.37-.47.38-.07.37-.5.37-.39.38-.54.37 2.47.38-.51.37-.39.37-.2.38-.21.37-.48.37-.42.38-.41.37.13.38-.48.37-.39.37-.35.38-.57.37-.22.38-.43.37-.41.37-.49.38 1.58.37-.5.38-.37.37-.51.37-.15.38-.48.37-.4.37-.35.38.14.37-.48.38-.32.37-.5.37-.21.38-.5.37-.13.38-.5.37 10.94.37-.45.38-.42.37-.48.38-.23.37-.38.37-.38.38-.51.37.17.38-.5.37-.4.37-.53.38 1.65.37-.47.37-.4.38-.42.37.83.38-.47.37-.39.37-.34.38-.22.37-.59.38-.43.37-.41.37-.46.38.39.37-.49.38-.4.37-.49.37-.12.38-.47.37-.41.37-.38.38 2.18.37-.46.38-.36.37-.49.37-.22.38-.49.37.23.38-.5.37.14.37-.48.38-.37.37-.47.38-.23.37-.36.37-.4.38-.49.37.87.38-.48.37-.38.37-.48.38-.02.37-.49.37-.37.38-.42.37.1.38-.47.37-.42.37-.35.38-.2.37-.49.38-.34.37-.57.37-.48.38 9.36.37-.51.38-.37.37-.5.37-.17.38-.44.37-.22.37-.34.38.1.37-.48.38-.3.37-.48.37-.25.38-.48.37-.18.38-.47.37.78"/><use xlink:href="#e" color="#F44336" transform="matrix(3.75 0 0 3.75 113.62 93.04)"/><use xlink:href="#e" color="#F44336" transform="matrix(3.75 0 0 3.75 220.55 7.51)"/></g><text fill="#000" stroke="none" stroke-linecap="round" stroke-linejoin="round" color="#000" font-family="KaTeX_Main" font-size="8" transform="translate(241.1 25.11)"><tspan>RedBlackTopDown</tspan></text><g fill="none" stroke="currentColor" stroke-linecap="round" stroke-linejoin="round" color="#000"><path stroke="#3B75EA" stroke-dasharray="1.0,2.0" d="M205.6 22.51h29.9M28 177.87l.37-3.74.38 8.56.37-1.78.38-1.69.37-2.77.37-3.42.38-.98.37-3.5.38-2.37.37.52.37 1.55.38-2.7.37-2.17.37-3.23.38-1.56.37-2.35.38-2.69.37-3.45.37 13.17.38-2.33.37-2.17.38-3.15.37 24.37.37-1.94.38-.28.37-2.28.38.78.37-1.96.37 2.08.38 3.38.37-.28.37-1.53.38-1.29.37-1.98.38 4.47.37-1.66.37-1.02.38-1.07.37-.77.38-1.29.37-1.74.37-2.21.38.73.37-1.65.38-1.61.37-2.13.37-1.11.38-2.64.37-2.32.38-1.93.37-2.8.37 21.86.38-1.71.37-1.19.37-1.96.38-.93.37-.44.38-1.38.37-2.01.37 5.23.38-1.18.37-1.17.38-.83.37-.32.37-1.61.38-1.48.37-1.86.38 3.19.37-1.52.37-1.52.38-1.13.37-.83.37-1.55.38-2.59.37-1.97.38 2.31.37-1.73.37-1.17.38-1.74.37-1.26.38-1.79.37-1.9.37-2.31.38 17.58.37 3.18.38-.48.37-.84.37-.12.38-.83.37-.79.38-1.56.37-1.18.37 1.11.38-1.2.37-.84.37-1.51.38-.5.37-1.65.38-.58.37-1.59.37 3.47.38-1.05.37-.95.38-1.42.37.41.37-1.34.38-1.18.37-1.54.38.53.37-1.46.37-1.27.38-.77.37-.68.37-1.39.38-1.42.37-1.5.38 13.51.37-.82.37-.55.38-1.1.37-.48.38-1.16.37.28.37-1.27.38.22.37-1.36.38-.89.37-1.11.37-.49.38-1.22.37-1.16.38-1.49.37-1.45.37 2.17.38-1.18.37-.78.37-1.41.38-.7.37-1.59.38 4.03.37-1.53.37.6.38-.86.37-.93.38-1.09.37-.29.37-1.18.38-1.06.37-1.42.38 5.28.37-.95.37-.69.38-.77.37-.45.37-1.05.38-1 .37-1.09.38.17.37-1.14.37-.84.38 14.76.37-.35.38-.88.37-.64.37-1.08.38 1.55.37.02.38-.58.37-.73.37.86.38-.87.37-.77.38-1.06.37.33.37-.8.38-1.23.37-.77.37-1.22.38-.49.37-.91.38-1.21.37-1.33.37 21.43.38.45.37-.41.38-.77.37.04.37-.8.38-.66.37-.86.38.36.37-.82.37-.73.38.75.37-.22.37-.67.38-.6.37-1.01.38 1.67.37-.67.37-.29.38-.83.37-.36.38-.72.37-.7.37-1 .38.01.37-.51.38-.76.37-.99.37-.52.38-1.01.37-.92.38-.99.37 3.53.37-.73.38-.72.37-.78.37-1.23.38-.19.37-.51.38-.8.37-1.05.37.18.38-.78.37-.85.38-1.1.37 6.12.37-1.01.38-.93.37 2.97.38 1.56.37-.71.37-.66.38-.59.37-.4.37-.85.38-.66.37-.98.38.04.37-.8.37-.64.38-.97.37-.6.38-1.06.37-.87.37-1.11.38 7.5.37 2.85.38-.33.37-.54.37-.18.38-.41.37-.46.38-.67.37.34.37-.54.38-.47.37-.59.37-.38.38-.65.37-.98.38-.3.37-.88.37 1.33.38-.56.37-.58.38-.77.37-.36.37-.63.38-.66.37-.98.38.21.37-.84.37-.72.38-.48.37-.44.37-.85.38-.82.37-.93.38 3.05.37.05.37-.44.38-.73.37-.35.38-.77.37-.56.37-.88.38-.09.37-.17.38-.63.37-.79.37-.56.38-.71.37-.79.38-.97.37.97.37-.72.38-.71.37-.71.37-.61.38-.85.37 7.62.38.15.37-.71.37.27.38-.58.37-.53.38-.77.37-.2.37-.79.38-.64.37-.9.38 13.87.37-.21.37-.33.38-.23.37-.11.37-.48.38-.44.37-.5.38.21.37-.59.37-.28.38-.59.37-.35.38-.55.37-.59.37-.74.38.9.37-.04.38-.38.37-.52.37-.24.38-.61.37-.56.38-.52.37-.07.37-.58.38-.62.37-.63.37-.47.38-.75.37-.46.38-.8.37 2.32.37-.65.38-.49.37-.49.38-.86.37-.2.37-.74.38-.6.37-.78h.38l.37-.74.37-.69.38 3.69.37-.19.37-.6.38-.46.37-.68.38.95.37-.55.37-.24.38-.59.37-.33.38-.63.37-.59.37-.7.38.24.37-.58.38-.53.37-.7.37-.37.38-.68.37.08.38-.58.37 5.26.37-.4.38-.42.37-.41.37-.27.38-.56.37-.08.38-.53.37.07.37 1.6.38-.53.37-.53.38-.63.37-.1.37-.59.38-.51.37 1.42.38.95.37-.46.37-.42.38-.23.37-.21.37-.54.38-.42.37-.66.38.1.37-.58.37-.3.38-.62.37-.37.38-.59.37-.63.37-.76.38 2.83.37-.37.38-.32.37-.49.37-.2.38-.49.37-.42.38-.43.37.07.37-.45.38-.37.37-.55.37-.37.38-.61.37-.26.38-.65.37.61.37-.41.38-.49.37-.56.38-.76.37-.17.37-.63.38-.58.37-.68.38-.01.37-.61.37-.62.38-.34.37-.39.37-.72.38-.6.37-.81.38 20.54.37-.23.37-.29.38-.41.37-.19.38-.41.37-.42.37-.5.38.29.37-.46.38-.38.37-.49.37-.24.38-.51.37-.51.38-.46.37.64.37-.51.38-.46.37-.48.37-.34.38-.56.37 1.1.38-.48.37.06.37-.36.38-.4.37-.5.38-.35.37-.36.37-.65.38-.47.37-.61.38 2.02.37-.28.37-.38.38-.25.37-.15.37-.5.38-.35.37-.58.38.02.37-.38.37-.45.38-.57.37 14.94.38-.36.37-.38.37-.46.38 1.06.37-.3.38-.29.37-.38.37-.11.38-.4.37-.34.37-.31.38.07.37-.37.38-.36.37-.39.37-.27.38-.5.37-.39.38-.51.37 4.06.37-.22.38-.24.37-.3.38-.2.37-.16.37-.33.38-.37.37-.5.38.15.37-.38.37-.36.38.15.37-.15.37-.41.38-.3.37-.48.38.72.37-.38.37-.16.38-.38.37-.17.38-.37.37-.36.37-.32.38.26.37-.37.38-.34.37-.49.37-.25.38-.45.37-.45.37-.43.38 1.67.37-.33.38-.34.37-.34.37-.23.38-.43.37-.07.38-.45.37.01.37-.45.38-.3.37-.46.38-.34.37-.34.37-.45.38-.49.37.46.38-.48.37-.46.37-.41.38-.29.37-.25.37-.51.38-.43.37-.57.38-.04.37-.53.37-.33.38-.6.37-.38.38-.55.37-.56.37-.63.38 10.95.37-.2.38-.15.37-.29.37-.04.38-.28.37-.27.37-.21.38.13.37-.26.38-.26.37-.29.37-.17.38-.38.37-.12.38-.4.37.54.37-.24.38-.27.37-.34.38-.25.37-.24.37-.35.38-.38h.37l.38-.37.37-.35.37-.52.38-.13.37-.22.37-.44.38-.32.37-.53.38 1.58.37-.25.37-.29.38-.4.37-.21.38-.38.37-.38.37-.47.38.21.37-.4.38-.34.37-.48.37-.24.38-.46.37-.45.37-.45.38.44.37-.4.38-.39.37-.43.37-.3.38-.51.37.03.38-.49.37-.06.37-.45.38-.36.37-.49.38-.37.37-.39.37-.47.38-.54.37 3.13.38 8.23.37-.29.37-.36.38-.19.37-.2.37-.4.38-.3.37-.45.38.05.37-.32.37-.35.38-.44.37-.27.38-.44.37-.42.37-.53.38.73.37-.39.38-.34.37-.46.37-.23.38-.43.37-.43.37-.41.38-.1.37-.45.38-.4.37-.5.37-.33.38-.53.37-.3.38-.52.37 1.2.37-.37.38-.38.37-.47.38-.24.37-.45.37-.42.38-.47.37-.12.38-.48.37-.44.37.44.38-.34.37-.42.37-.57.38-.39.37-.52.38.81.37-.35.37-.37.38-.49.37-.23.38-.49.37-.45.37 4.86.38.13.37-.4.38-.38.37-.19.37-.28.38-.47.37-.46.37-.45.38 13.24.37-.23.38-.17.37-.31.37-.12.38-.3.37.05.38-.29.37.05.37-.24.38-.25.37-.32.38-.12.37-.31.37-.3.38-.4.37.42.38-.27.37-.27.37 1.8.38-.18.37-.29.37-.24.38-.31.37-.45.38.03.37-.27.37-.31.38-.39.37-.21.38-.36.37-.36.37-.47.38 1.74.37-.27.38-.23.37-.28.37-.14.38-.32.37-.3.37-.28.38.04.37-.34.38-.26.37-.38.37-.25.38-.19.37-.34.38-.4.37.36.37-.29.38-.32.37-.36.38-.15.37-.37.37-.33.38-.45.37-.06.38-.39.37-.36.37-.15.38-.29.37-.39.37-.41.38-.39.37 2.58.38-.28.37-.27.37-.26.38-.34.37-.15.38-.36.37 8.13.37-.35.38.25.37-.27.38-.23.37-.33.37-.16.38-.32.37-.31.37-.3.38.44.37-.3.38-.24.37-.34.37-.16.38-.36.37 4.01.38-.23.37.09.37-.18.38-.19.37-.25.38-.05.37-.24.37-.23.38-.29.37 1.2.38-.18.37-.16.37-.18.38.05.37-.19.37-.21.38-.22.37.03.38-.21.37-.21.37-.2.38-.28.37-.12.38-.27.37-.27.37-.33.38.72.37-.24.38-.17.37-.28.37-.1.38-.3.37-.25.37-.25.38.03.37-.27.38-.24.37-.33.37-.19.38-.31.37-.13.38-.42.37 5.45.37-.13.38-.15.37-.21.38-.1.37-.14.37-.19.38-.26.37.08.38-.21.37-.22.37-.26.38.3.37-.21.37-.22.38-.15.37.37.38-.18.37-.18.37-.14.38-.12.37-.27.38-.25.37-.23.37-.22.38.23.37-.27.38-.2.37-.32.37-.11.38-.3.37-.29.37-.31.38 1.1.37-.2.38-.18.37-.27.37-.14.38-.27.37.01.38-.3.37.06.37-.29.38-.17.37-.3.38-.2.37-.24.37-.28.38-.35.37.35.38-.26.37-.23.37-.32.38-.04.37-.29.37-.27.38-.31.37-.08.38-.3.37-.32.37-.28.38-.24.37-.38.38-.36.37-.39.37-.45.38 3.07.37-.21.38-.16.37-.26.37-.07.38-.25.37-.24.37-.23.38.04.37-.25.38-.23.37-.3.37-.15.38-.32.37-.11.38-.33.37.34"/><use xlink:href="#i" color="#3B75EA" transform="matrix(3.75 0 0 3.75 171.2 121.83)"/><use xlink:href="#i" color="#3B75EA" transform="matrix(3.75 0 0 3.75 220.55 22.51)"/></g><path fill="none" stroke="none" stroke-linecap="round" stroke-linejoin="round" stroke-width="0" d="M28 45.01V205M371.99 45.01H28" color="#000"/></svg>