<svg xmlns="http://www.w3.org/2000/svg" xmlns:xlink="http://www.w3.org/1999/xlink" viewBox="0 0 400 250"><path fill="none" d="M0 0h400v250H0z"/><defs><path id="g" stroke="currentColor" stroke-width=".267" d="M-1 0h2M0-1v2"/><path id="h" stroke="currentColor" stroke-width=".267" d="m-1-1 2 2m0-2-2 2"/><path id="d" stroke="currentColor" stroke-width=".267" d="M-1-1h2v2h-2z"/><path id="i" fill="currentColor" stroke="currentColor" stroke-width=".267" d="M-1-1h2v2h-2z"/><path id="b" stroke="currentColor" stroke-width=".267" d="m0-1.33-1.33 2h2.66z"/><path id="f" stroke="currentColor" stroke-width=".267" d="M0 1.33 1.265.411.782-1.067l-1.564-.009-.483 1.487z"/><use xlink:href="#b" id="c" stroke="currentColor" transform="rotate(180)"/><use xlink:href="#d" id="e" stroke="currentColor" transform="rotate(45)"/><circle id="a" cx="0" cy="0" r="1" stroke="currentColor" stroke-width=".267"/></defs><path fill="none" stroke="#000" stroke-linecap="round" stroke-linejoin="round" stroke-width=".1" d="M35.48 205V45.01" class="gridline" color="#000"/><g fill="none" stroke="none" stroke-linecap="round" stroke-linejoin="round" stroke-width="0" color="#000"><path d="M35.48 205v-7.5m0-152.49v7.5"/><text fill="#000" font-family="KaTeX_Main" font-size="10" text-anchor="middle" transform="translate(35.48 215.75)"><tspan> 1</tspan></text></g><path fill="none" stroke="#000" stroke-linecap="round" stroke-linejoin="round" stroke-width=".1" d="M72.87 205V45.01" class="gridline" color="#000"/><g fill="none" stroke="none" stroke-linecap="round" stroke-linejoin="round" stroke-width="0" color="#000"><path d="M72.87 205v-7.5m0-152.49v7.5"/><text fill="#000" font-family="KaTeX_Main" font-size="10" text-anchor="middle" transform="translate(72.87 215.75)"><tspan> 2</tspan></text></g><path fill="none" stroke="#000" stroke-linecap="round" stroke-linejoin="round" stroke-width=".1" d="M110.26 205V45.01" class="gridline" color="#000"/><g fill="none" stroke="none" stroke-linecap="round" stroke-linejoin="round" stroke-width="0" color="#000"><path d="M110.26 205v-7.5m0-152.49v7.5"/><text fill="#000" font-family="KaTeX_Main" font-size="10" text-anchor="middle" transform="translate(110.26 215.75)"><tspan> 3</tspan></text></g><path fill="none" stroke="#000" stroke-linecap="round" stroke-linejoin="round" stroke-width=".1" d="M147.65 205V45.01" class="gridline" color="#000"/><g fill="none" stroke="none" stroke-linecap="round" stroke-linejoin="round" stroke-width="0" color="#000"><path d="M147.65 205v-7.5m0-152.49v7.5"/><text fill="#000" font-family="KaTeX_Main" font-size="10" text-anchor="middle" transform="translate(147.65 215.75)"><tspan> 4</tspan></text></g><path fill="none" stroke="#000" stroke-linecap="round" stroke-linejoin="round" stroke-width=".1" d="M185.04 205V45.01" class="gridline" color="#000"/><g fill="none" stroke="none" stroke-linecap="round" stroke-linejoin="round" stroke-width="0" color="#000"><path d="M185.04 205v-7.5m0-152.49v7.5"/><text fill="#000" font-family="KaTeX_Main" font-size="10" text-anchor="middle" transform="translate(185.04 215.75)"><tspan> 5</tspan></text></g><path fill="none" stroke="#000" stroke-linecap="round" stroke-linejoin="round" stroke-width=".1" d="M222.43 205V45.01" class="gridline" color="#000"/><g fill="none" stroke="none" stroke-linecap="round" stroke-linejoin="round" stroke-width="0" color="#000"><path d="M222.43 205v-7.5m0-152.49v7.5"/><text fill="#000" font-family="KaTeX_Main" font-size="10" text-anchor="middle" transform="translate(222.43 215.75)"><tspan> 6</tspan></text></g><path fill="none" stroke="#000" stroke-linecap="round" stroke-linejoin="round" stroke-width=".1" d="M259.82 205V45.01" class="gridline" color="#000"/><g fill="none" stroke="none" stroke-linecap="round" stroke-linejoin="round" stroke-width="0" color="#000"><path d="M259.82 205v-7.5m0-152.49v7.5"/><text fill="#000" font-family="KaTeX_Main" font-size="10" text-anchor="middle" transform="translate(259.82 215.75)"><tspan> 7</tspan></text></g><path fill="none" stroke="#000" stroke-linecap="round" stroke-linejoin="round" stroke-width=".1" d="M297.21 205V45.01" class="gridline" color="#000"/><g fill="none" stroke="none" stroke-linecap="round" stroke-linejoin="round" stroke-width="0" color="#000"><path d="M297.21 205v-7.5m0-152.49v7.5"/><text fill="#000" font-family="KaTeX_Main" font-size="10" text-anchor="middle" transform="translate(297.21 215.75)"><tspan> 8</tspan></text></g><path fill="none" stroke="#000" stroke-linecap="round" stroke-linejoin="round" stroke-width=".1" d="M334.6 205V45.01" class="gridline" color="#000"/><g fill="none" stroke="none" stroke-linecap="round" stroke-linejoin="round" stroke-width="0" color="#000"><path d="M334.6 205v-7.5m0-152.49v7.5"/><text fill="#000" font-family="KaTeX_Main" font-size="10" text-anchor="middle" transform="translate(334.6 215.75)"><tspan> 9</tspan></text></g><path fill="none" stroke="#000" stroke-linecap="round" stroke-linejoin="round" stroke-width=".1" d="M371.99 205V45.01" class="gridline" color="#000"/><g fill="none" stroke="none" stroke-linecap="round" stroke-linejoin="round" stroke-width="0" color="#000"><path d="M371.99 205v-7.5m0-152.49v7.5"/><text fill="#000" font-family="KaTeX_Main" font-size="10" text-anchor="middle" transform="translate(371.99 215.75)"><tspan> 10</tspan></text></g><g fill="none" stroke="none" stroke-linecap="round" stroke-linejoin="round" stroke-width="0" color="#000"><path d="M371.99 205h-7.5"/><text fill="#000" font-family="KaTeX_Main" font-size="10" transform="translate(378.99 208.25)"><tspan>0.64</tspan></text></g><g fill="none" stroke="none" stroke-linecap="round" stroke-linejoin="round" stroke-width="0" color="#000"><path d="M371.99 187.22h-7.5"/><text fill="#000" font-family="KaTeX_Main" font-size="10" transform="translate(378.99 190.47)"><tspan>0.66</tspan></text></g><g fill="none" stroke="none" stroke-linecap="round" stroke-linejoin="round" stroke-width="0" color="#000"><path d="M371.99 169.45h-7.5"/><text fill="#000" font-family="KaTeX_Main" font-size="10" transform="translate(378.99 172.7)"><tspan>0.68</tspan></text></g><g fill="none" stroke="none" stroke-linecap="round" stroke-linejoin="round" stroke-width="0" color="#000"><path d="M371.99 151.67h-7.5"/><text fill="#000" font-family="KaTeX_Main" font-size="10" transform="translate(378.99 154.92)"><tspan>0.70</tspan></text></g><g fill="none" stroke="none" stroke-linecap="round" stroke-linejoin="round" stroke-width="0" color="#000"><path d="M371.99 133.89h-7.5"/><text fill="#000" font-family="KaTeX_Main" font-size="10" transform="translate(378.99 137.14)"><tspan>0.72</tspan></text></g><g fill="none" stroke="none" stroke-linecap="round" stroke-linejoin="round" stroke-width="0" color="#000"><path d="M371.99 116.12h-7.5"/><text fill="#000" font-family="KaTeX_Main" font-size="10" transform="translate(378.99 119.37)"><tspan>0.74</tspan></text></g><g fill="none" stroke="none" stroke-linecap="round" stroke-linejoin="round" stroke-width="0" color="#000"><path d="M371.99 98.34h-7.5"/><text fill="#000" font-family="KaTeX_Main" font-size="10" transform="translate(378.99 101.59)"><tspan>0.76</tspan></text></g><g fill="none" stroke="none" stroke-linecap="round" stroke-linejoin="round" stroke-width="0" color="#000"><path d="M371.99 80.56h-7.5"/><text fill="#000" font-family="KaTeX_Main" font-size="10" transform="translate(378.99 83.81)"><tspan>0.78</tspan></text></g><g fill="none" stroke="none" stroke-linecap="round" stroke-linejoin="round" stroke-width="0" color="#000"><path d="M371.99 62.79h-7.5"/><text fill="#000" font-family="KaTeX_Main" font-size="10" transform="translate(378.99 66.04)"><tspan>0.80</tspan></text></g><g fill="none" stroke="none" stroke-linecap="round" stroke-linejoin="round" stroke-width="0" color="#000"><path d="M371.99 45.01h-7.5"/><text fill="#000" font-family="KaTeX_Main" font-size="10" transform="translate(378.99 48.26)"><tspan>0.82</tspan></text></g><path fill="none" stroke="none" stroke-linecap="round" stroke-linejoin="round" stroke-width="0" d="M28 45.01V205M371.99 45.01H28" color="#000"/><text fill="#000" stroke="none" stroke-linecap="round" stroke-linejoin="round" stroke-width="0" color="#000" font-family="KaTeX_Main" font-size="10" text-anchor="middle" transform="rotate(-90 68.255 56.755)"><tspan font-weight="bold">Rotations</tspan><tspan> / Operation</tspan></text><text fill="#000" stroke="none" stroke-linecap="round" stroke-linejoin="round" stroke-width="0" color="#000" font-family="KaTeX_Main" font-size="10" text-anchor="middle" transform="translate(199.99 238.25)"><tspan>Operations × 10</tspan><tspan dy="-5" font-size="8">5</tspan></text><text fill="#000" stroke="none" stroke-linecap="round" stroke-linejoin="round" color="#000" font-family="KaTeX_Main" font-size="8" transform="translate(110.4 10.11)"><tspan>AVLBottomUp</tspan></text><g fill="none" stroke="currentColor" stroke-linecap="round" stroke-linejoin="round" color="#000"><path stroke="#000" d="M74.9 7.51h29.9M28 78.61l.37 10.31.38-9.96.37-2.31.38-1.78.37 5.87.37 15.47.38-11.38.37-1.07.38-3.37.37-15.29.37 18.66.38-3.2.37-10.84.37 27.91.38-35.2.37 26.67.38-17.25.37 10.14.37-2.67.38 6.4.37 10.31.38-9.96.37 8.36.37.71.38 1.24.37-21.51.38-4.97.37 12.44.37-5.51.38 1.6.37 7.47.37 4.8.38-7.29.37.18.38 7.46.37-20.62.37 8.36.38.35.37 5.16.38-5.69.37 15.64.37-8.18.38 1.43.37-7.11.38 8.88.37-5.33.37.89.38-4.44.37 4.44.38 4.44.37-8.17.37 19.91.38-16.89.37-5.51.37-8.36.38 19.38.37-9.6.38 11.73.37 10.49.37-27.55.38 16.53.37-7.82.38 13.51.37-19.02.37 24 .38-11.74.37 3.56.38-12.09.37 11.02.37-3.38.38-3.2.37-7.28.37 11.19.38-17.77.37 9.78.38-9.96.37 18.67.37-14.76.38 12.27.37 3.73.38-7.29.37 17.6.37-23.82.38 13.15.37-16.17.38 1.06.37 10.32.37-22.05.38 25.24.37-22.04.38 20.62.37-.35.37-22.05.38 19.38.37-9.95.37 11.91.38-12.8.37.53.38 6.04.37 20.27.37-19.73.38-2.85.37 10.31.38-2.84.37 3.73.37 1.25.38-7.11.37 1.6.38 1.42.37-3.02.37-8.36.38 12.27.37 9.95.37-8L71 74.52l.37.71.38 11.38.37-6.05.37 1.78.38 1.78.37 9.24.38-5.15.37-6.58.37 3.91.38-2.31.37-5.16.38-1.42.37-1.24.37 24.17.38-29.33.37 28.45.38-15.29.37-13.87.37 9.25.38 7.64.37 3.2.37-8.18.38 5.34.37-16.54.38 1.78.37 24.71.37-23.29.38 2.14.37 15.46.38-1.95.37.35.37-9.42.38 7.64.37-9.6.38-1.95.37-8.36.37 15.11.38-5.15.37.71.37 18.31.38-16.53.37-9.07.38 6.93.37 7.65.37-9.42.38 1.95.37 5.16.38-18.67.37 19.2.37-1.95.38 2.48.37-13.33.38 22.58.37-4.09.37-12.62.38 1.06.37-2.31.38.54.37 8.53.37 8 .38 1.24.37-33.59.37 10.66.38 18.84.37-.17.38-1.96.37.18.37-8.89.38 7.47.37.71.38 1.6.37 6.93.37-14.04.38-4.27.37 6.22.38 14.05.37-4.98.37-13.87.38-14.57.37 10.66.37 14.05.38-12.98.37 18.13.38-4.44.37-9.96.37-9.6.38 13.16.37-12.27.38 25.6.37-15.64.37-10.49.38 17.24.37-4.26h.38l.37 2.48.37 7.65.38-35.91.37 25.06.38-9.6.37 9.07.37 2.13.38 3.38.37 3.38.37-.89.38-2.13.37-10.14.38-4.62.37 16 .37 1.96.38-4.98.37-15.29.38 7.47.37-5.87.37 8 .38 1.07.37-6.4.38 16.71.37-7.65.37-11.37.38 11.02.37-10.85.37 5.52.38-4.98.37 3.73.38 11.56.37-12.63.37 1.07.38-3.38.37 3.2.38 15.47.37-11.91.37 2.84.38 9.07.37-12.98.38 3.02.37-.35.37-12.98.38 10.13.37 6.76.38-13.69.37 17.6.37-11.91.38 3.73.37-5.69.37 18.85.38-11.91.37 9.42.38.18.37 3.37.37-18.84.38 1.78.37-6.22.38-11.2.37 20.44.37 2.67.38-2.67.37 12.98.38-16.53.37-.89.37 4.8.38 5.15.37-12.62.37 8 .38 10.13.37-12.44.38-.36.37 6.05.37-3.56.38 3.2.37 3.91.38-21.51.37 25.07.37-8.36.38 10.14.37-18.67.38 24.71.37-7.29.37-8.89.38-10.31.37 20.8.38-9.42.37-15.29.37 5.87.38 7.46.37-16.88.37 37.33.38-16.71.37-12.62.38-4.63.37 10.31.37 11.56.38-1.78.37-2.84.38-17.42.37 7.46.37-8.89.38 14.94.37-12.45.38 3.56.37 11.02.37-8.89.38 17.07.37-5.34.37-.71.38-4.09.37-12.08.38 27.55.37-14.22.37-2.13.38 8.17.37-1.6.38-12.26.37 2.84.37 9.42.38 1.42.37-14.75.38 3.02.37 17.6.37-11.73.38-2.31.37 21.33.38-12.27.37-23.28.37.35.38 9.42.37 1.43.37 8.35.38-3.2.37-4.09.38 4.98.37-2.31.37-9.78.38 4.8.37 9.96.38-4.63.37-8.35.37.35.38 11.74.37-10.31.38-.89.37 18.31.37-28.98.38 9.42.37 8 .37 10.31.38-7.82.37.18.38.89.37-6.22.37.35.38 1.07.37 1.78.38-.36.37-29.51.37 22.58.38-2.31.37 7.46.38 3.2.37 4.62.37-14.57.38 11.38.37-22.4.38 28.44.37-27.73.37 32.17.38-17.06.37-26.67.37 24.71.38-10.13.37 8 .38 5.69.37 2.66.37 3.56.38 17.07.37-17.25.38-4.8.37 3.2.37.89.38-8.35.37 34.13.38-40.36.37 24.89.37-1.6.38-2.31.37-26.13.37 27.91.38-8.36.37-34.48.38 25.95.37 8.71.37 13.87.38-6.94.37-7.28.38-21.51.37 23.11.37-2.32.38 9.78.37-42.31.38 17.25.37 34.31.37-16.54.38-1.06.37-3.56.38-5.15.37-1.07.37-4.27.38 7.29.37-10.49.37-4.62.38 24.18.37-24.36.38 45.16.37-28.98.37 4.98.38-24.18.37 18.13h.38l.37 1.96.37 9.24.38-6.57.37 1.6.38-2.85.37.53.37-5.51.38 7.47.37-9.6.37 4.62.38-7.46.37 4.44.38 3.38.37-7.11.37 4.09.38-11.56.37 20.98.38 5.86.37-12.44.37 6.4.38 2.84.37-3.73.38 8.36.37-6.05.37-11.2.38 11.56.37-3.02.38-13.87.37 15.47.37-2.32.38-8.53.37 6.93.37-2.13.38 8.53.37-16.17.38 10.49.37-4.27.37 1.78.38 8 .37 3.91.38-27.2.37 16.53.37 3.2.38-2.31.37-4.09.38 11.73.37-8.71.37 3.74.38.89.37-.54.37-7.82.38 16.53.37-24.17.38 17.24.37-18.13.37 15.64.38-1.07.37.72.38 4.08.37 8 .37-23.64.38 16.35.37.54.38-10.13.37.17.37-3.02.38-7.11.37 22.58.37-13.69.38-13.16.37 38.4.38-38.4.37 8.71.37 30.4.38-39.82.37 35.56.38-26.85.37 17.25.37-4.27.38 7.11.37-.71.38-20.44.37 1.42.37 13.33.38 11.73.37-7.28.38 2.13.37-22.22.37 9.95.38-11.91.37 19.02.37-14.22.38 2.49.37-.53.38 21.69.37-32.71.37-4.63.38 34.67.37.18.38-28.98.37 9.24.37 19.56.38 1.42.37-25.42.38 5.69.37 17.06.37-6.75.38-10.49.37-14.04.37 25.42h.38l.37-19.73.38 5.15.37 9.42.37-12.62.38 20.44.37-29.5.38 24.53.37-8 .37 6.22.38 11.73.37-21.33.38 8 .37 8 .37-20.27.38 35.73.37-31.28.38 4.26.37 13.87.37-16 .38 3.73.37 4.27.37-12.27.38-4.62.37 16.89.38-6.58.37-17.6.37 15.65.38 4.44.37-12.09.38 25.42.37-17.42.37 6.05.38.89.37-12.09.38 10.31.37-11.38.37 9.96.38-6.05.37 3.02.37 9.43.38-.89.37-28.62.38 27.91.37 1.77.37-7.46.38 8.53.37-5.33.38 3.91.37.18.37-14.58.38 14.04.37-11.2.38-10.31.37 18.85.37-1.78.38-5.87.37 23.47.38-7.47.37-6.75.37 24.35.38-25.42.37 4.8.37-19.73.38 2.84.37 13.51.38-4.44.37-5.51.37-11.38.38 9.42.37 1.25.38 4.26.37 5.16.37-21.33.38 24.35.37-39.29.38 28.27.37 9.6.37 10.66.38 1.78.37-16 .37-9.95.38-7.11.37 15.64.38 2.67.37 4.26.37-10.31.38 21.33.37-22.39.38 14.22.37-13.34.37 3.38.38 5.87.37-11.91.38-3.91.37 8.53.37-1.42.38 2.13.37.53.38-12.08.37 15.64.37-15.29.38 15.65.37-18.31.37 15.99.38-13.51.37 15.83.38 10.48.37-3.37.37-9.43.38-22.22.37 29.51.38-17.06.37 13.33.37 3.73.38-11.02.37 13.33.38-7.46.37-2.14.37-9.77.38 27.73.37-24.53.37 17.77.38-6.22.37-.89.38-10.49.37 8.54.37-7.11h.38l.37 7.29.38-4.45.37-2.13.37-15.29.38 28.8.37-12.8.38-10.31.37 22.75.37-23.64.38 10.84.37 5.87.38-7.11.37 4.62.37-6.4.38 4.45.37 11.02.37-19.38.38 17.07.37 8.53.38-11.2.37-10.67.37 9.96.38-4.09.37-4.44.38 11.73.37-3.38.37 3.73.38-3.73.37-8 .38 12.27.37-13.51.37 20.97.38-21.51h.37l.37-18.31.38 14.76.37 20.26.38-2.84.37 4.44.37-13.33.38.18.37 11.73.38-7.64.37-7.11.37-2.49.38 6.93.37 6.04.38-.88.37-2.31.37 12.79.38-3.91.37-.53.38-9.24.37-6.58.37-1.42.38 8.71.37-13.87.37 23.11.38-10.66.37-11.03.38 2.85.37-2.67.37 10.49.38-4.27.37 1.96.38-4.98.37 10.49.37-10.84.38 2.84.37-9.95.38 9.95.37-5.69.37 5.33.38 22.05.37-16.53.37-.89.38.53.37 1.78.38-9.25.37-2.31.37 1.96.38 20.62.37-15.47.38-2.84.37-2.49.37 17.24.38-17.6.37 5.87.38 1.6.37-8 .37 16.89.38-8.53.37-3.38.38-10.84.37 11.55.37 6.93.38-12.62.37 3.02.37 7.29.38-8.71.37 21.87.38-18.67.37 3.56.37-14.94.38 24.89.37-18.66.38 13.15.37-8.35.37 10.66.38 7.11.37-16 .38 4.8.37-6.4.37 8.36.38-11.73.37-13.16.37 22.93.38-11.55.37 26.13.38-6.4.37-13.69.37 6.4.38-4.44.37-20.09.38 10.49.37 21.86.37-.35.38-17.96.37 13.16.38-16 .37-4.62.37 17.06.38 7.82.37 4.45.38-15.29.37 9.24.37 3.56.38-23.11.37-1.78.37 12.27.38 7.46.37.18.38-25.06.37 25.77.37-20.26.38 28.8.37-12.45.38-13.86.37-9.42.37 15.82.38-2.67.37-20.09.38 21.69.37 2.67.37-1.25.38-5.15.37 17.42.37-6.58.38 2.84.37 5.34.38-2.49.37-7.29.37-18.49.38 9.07.37 18.49.38-9.25.37 3.91.37-8.71.38-3.91.37-1.24.38 29.33.37-24.89.37-8 .38 4.98.37-3.02.38 5.51.37-7.64.37 19.9.38 4.98.37-11.73.37 18.84.38-18.66.37 14.93.38-8.89.37-24.35.37 17.6.38 2.66.37-1.6.38-1.77.37-5.87.37 2.31.38 14.93.37-12.97.38 18.13.37-15.11.37-2.85.38 17.78.37 5.16.37-28.45.38-7.82.37 9.42.38-2.31.37-13.69.37 32 .38-16.71.37 1.25.38-1.25.37 25.6.37-13.51.38 4.09.37-18.13.38 4.97.37-11.37.37 27.91.38-29.34.37 2.67.38-2.49.37 11.02.37 11.2.38-9.6.37-1.06.37 8.35.38-3.91.37 1.42.38 4.98.37-5.51.37-4.09.38 11.56.37.35.38-10.13.37-5.16.37 15.11.38-6.4.37-9.06.38-2.14.37 8.36.37-.36.38 6.94.37-9.6.37 15.29.38-11.38.37-6.22.38 6.57.37 6.76.37-4.09.38-14.58.37 5.51.38-.71.37 16.71"/><use xlink:href="#g" transform="matrix(3.75 0 0 3.75 342.45 75.41)"/><use xlink:href="#g" transform="matrix(3.75 0 0 3.75 89.85 7.51)"/></g><text fill="#000" stroke="none" stroke-linecap="round" stroke-linejoin="round" color="#000" font-family="KaTeX_Main" font-size="8" transform="translate(110.4 25.11)"><tspan>AVLTopDown</tspan></text><g fill="none" stroke="currentColor" stroke-linecap="round" stroke-linejoin="round" color="#000"><path stroke="#29C3F6" stroke-dasharray="1.0,2.0" d="M74.9 22.51h29.9M28 78.61l.37 10.31.38-9.96.37-2.31.38-1.78.37 5.87.37 15.47.38-11.38.37-1.07.38-3.37.37-15.29.37 18.66.38-3.2.37-10.84.37 27.91.38-35.2.37 26.67.38-17.25.37 10.14.37-2.67.38 6.4.37 10.31.38-9.96.37 8.36.37.71.38 1.24.37-21.51.38-4.97.37 12.44.37-5.51.38 1.6.37 7.47.37 4.8.38-7.29.37.18.38 7.46.37-20.62.37 8.36.38.35.37 5.16.38-5.69.37 15.64.37-8.18.38 1.43.37-7.11.38 8.88.37-5.33.37.89.38-4.44.37 4.44.38 4.44.37-8.17.37 19.91.38-16.89.37-5.51.37-8.36.38 19.38.37-9.6.38 11.73.37 10.49.37-27.55.38 16.53.37-7.82.38 13.51.37-19.02.37 24 .38-11.74.37 3.56.38-12.09.37 11.02.37-3.38.38-3.2.37-7.28.37 11.19.38-17.77.37 9.78.38-9.96.37 18.67.37-14.76.38 12.27.37 3.73.38-7.29.37 17.6.37-23.82.38 13.15.37-16.17.38 1.06.37 10.32.37-22.05.38 25.24.37-22.04.38 20.62.37-.35.37-22.05.38 19.38.37-9.95.37 11.91.38-12.8.37.53.38 6.04.37 20.27.37-19.73.38-2.85.37 10.31.38-2.84.37 3.73.37 1.25.38-7.11.37 1.6.38 1.42.37-3.02.37-8.36.38 12.27.37 9.95.37-8L71 74.52l.37.71.38 11.38.37-6.05.37 1.78.38 1.78.37 9.24.38-5.15.37-6.58.37 3.91.38-2.31.37-5.16.38-1.42.37-1.24.37 24.17.38-29.33.37 28.45.38-15.29.37-13.87.37 9.25.38 7.64.37 3.2.37-8.18.38 5.34.37-16.54.38 1.78.37 24.71.37-23.29.38 2.14.37 15.46.38-1.95.37.35.37-9.42.38 7.64.37-9.6.38-1.95.37-8.36.37 15.11.38-5.15.37.71.37 18.31.38-16.53.37-9.07.38 6.93.37 7.65.37-9.42.38 1.95.37 5.16.38-18.67.37 19.2.37-1.95.38 2.48.37-13.33.38 22.58.37-4.09.37-12.62.38 1.06.37-2.31.38.54.37 8.53.37 8 .38 1.24.37-33.59.37 10.66.38 18.84.37-.17.38-1.96.37.18.37-8.89.38 7.47.37.71.38 1.6.37 6.93.37-14.04.38-4.27.37 6.22.38 14.05.37-4.98.37-13.87.38-14.57.37 10.66.37 14.05.38-12.98.37 18.13.38-4.44.37-9.96.37-9.6.38 13.16.37-12.27.38 25.6.37-15.64.37-10.49.38 17.24.37-4.26h.38l.37 2.48.37 7.65.38-35.91.37 25.06.38-9.6.37 9.07.37 2.13.38 3.38.37 3.38.37-.89.38-2.13.37-10.14.38-4.62.37 16 .37 1.96.38-4.98.37-15.29.38 7.47.37-5.87.37 8 .38 1.07.37-6.4.38 16.71.37-7.65.37-11.37.38 11.02.37-10.85.37 5.52.38-4.98.37 3.73.38 11.56.37-12.63.37 1.07.38-3.38.37 3.2.38 15.47.37-11.91.37 2.84.38 9.07.37-12.98.38 3.02.37-.35.37-12.98.38 10.13.37 6.76.38-13.69.37 17.6.37-11.91.38 3.73.37-5.69.37 18.85.38-11.91.37 9.42.38.18.37 3.37.37-18.84.38 1.78.37-6.22.38-11.2.37 20.44.37 2.67.38-2.67.37 12.98.38-16.53.37-.89.37 4.8.38 5.15.37-12.62.37 8 .38 10.13.37-12.44.38-.36.37 6.05.37-3.56.38 3.2.37 3.91.38-21.51.37 25.07.37-8.36.38 10.14.37-18.67.38 24.71.37-7.29.37-8.89.38-10.31.37 20.8.38-9.42.37-15.29.37 5.87.38 7.46.37-16.88.37 37.33.38-16.71.37-12.62.38-4.63.37 10.31.37 11.56.38-1.78.37-2.84.38-17.42.37 7.46.37-8.89.38 14.94.37-12.45.38 3.56.37 11.02.37-8.89.38 17.07.37-5.34.37-.71.38-4.09.37-12.08.38 27.55.37-14.22.37-2.13.38 8.17.37-1.6.38-12.26.37 2.84.37 9.42.38 1.42.37-14.75.38 3.02.37 17.6.37-11.73.38-2.31.37 21.33.38-12.27.37-23.28.37.35.38 9.42.37 1.43.37 8.35.38-3.2.37-4.09.38 4.98.37-2.31.37-9.78.38 4.8.37 9.96.38-4.63.37-8.35.37.35.38 11.74.37-10.31.38-.89.37 18.31.37-28.98.38 9.42.37 8 .37 10.31.38-7.82.37.18.38.89.37-6.22.37.35.38 1.07.37 1.78.38-.36.37-29.51.37 22.58.38-2.31.37 7.46.38 3.2.37 4.62.37-14.57.38 11.38.37-22.4.38 28.44.37-27.73.37 32.17.38-17.06.37-26.67.37 24.71.38-10.13.37 8 .38 5.69.37 2.66.37 3.56.38 17.07.37-17.25.38-4.8.37 3.2.37.89.38-8.35.37 34.13.38-40.36.37 24.89.37-1.6.38-2.31.37-26.13.37 27.91.38-8.36.37-34.48.38 25.95.37 8.71.37 13.87.38-6.94.37-7.28.38-21.51.37 23.11.37-2.32.38 9.78.37-42.31.38 17.25.37 34.31.37-16.54.38-1.06.37-3.56.38-5.15.37-1.07.37-4.27.38 7.29.37-10.49.37-4.62.38 24.18.37-24.36.38 45.16.37-28.98.37 4.98.38-24.18.37 18.13h.38l.37 1.96.37 9.24.38-6.57.37 1.6.38-2.85.37.53.37-5.51.38 7.47.37-9.6.37 4.62.38-7.46.37 4.44.38 3.38.37-7.11.37 4.09.38-11.56.37 20.98.38 5.86.37-12.44.37 6.4.38 2.84.37-3.73.38 8.36.37-6.05.37-11.2.38 11.56.37-3.02.38-13.87.37 15.47.37-2.32.38-8.53.37 6.93.37-2.13.38 8.53.37-16.17.38 10.49.37-4.27.37 1.78.38 8 .37 3.91.38-27.2.37 16.53.37 3.2.38-2.31.37-4.09.38 11.73.37-8.71.37 3.74.38.89.37-.54.37-7.82.38 16.53.37-24.17.38 17.24.37-18.13.37 15.64.38-1.07.37.72.38 4.08.37 8 .37-23.64.38 16.35.37.54.38-10.13.37.17.37-3.02.38-7.11.37 22.58.37-13.69.38-13.16.37 38.4.38-38.4.37 8.71.37 30.4.38-39.82.37 35.56.38-26.85.37 17.25.37-4.27.38 7.11.37-.71.38-20.44.37 1.42.37 13.33.38 11.73.37-7.28.38 2.13.37-22.22.37 9.95.38-11.91.37 19.02.37-14.22.38 2.49.37-.53.38 21.69.37-32.71.37-4.63.38 34.67.37.18.38-28.98.37 9.24.37 19.56.38 1.42.37-25.42.38 5.69.37 17.06.37-6.75.38-10.49.37-14.04.37 25.42h.38l.37-19.73.38 5.15.37 9.42.37-12.62.38 20.44.37-29.5.38 24.53.37-8 .37 6.22.38 11.73.37-21.33.38 8 .37 8 .37-20.27.38 35.73.37-31.28.38 4.26.37 13.87.37-16 .38 3.73.37 4.27.37-12.27.38-4.62.37 16.89.38-6.58.37-17.6.37 15.65.38 4.44.37-12.09.38 25.42.37-17.42.37 6.05.38.89.37-12.09.38 10.31.37-11.38.37 9.96.38-6.05.37 3.02.37 9.43.38-.89.37-28.62.38 27.91.37 1.77.37-7.46.38 8.53.37-5.33.38 3.91.37.18.37-14.58.38 14.04.37-11.2.38-10.31.37 18.85.37-1.78.38-5.87.37 23.47.38-7.47.37-6.75.37 24.35.38-25.42.37 4.8.37-19.73.38 2.84.37 13.51.38-4.44.37-5.51.37-11.38.38 9.42.37 1.25.38 4.26.37 5.16.37-21.33.38 24.35.37-39.29.38 28.27.37 9.6.37 10.66.38 1.78.37-16 .37-9.95.38-7.11.37 15.64.38 2.67.37 4.26.37-10.31.38 21.33.37-22.39.38 14.22.37-13.34.37 3.38.38 5.87.37-11.91.38-3.91.37 8.53.37-1.42.38 2.13.37.53.38-12.08.37 15.64.37-15.29.38 15.65.37-18.31.37 15.99.38-13.51.37 15.83.38 10.48.37-3.37.37-9.43.38-22.22.37 29.51.38-17.06.37 13.33.37 3.73.38-11.02.37 13.33.38-7.46.37-2.14.37-9.77.38 27.73.37-24.53.37 17.77.38-6.22.37-.89.38-10.49.37 8.54.37-7.11h.38l.37 7.29.38-4.45.37-2.13.37-15.29.38 28.8.37-12.8.38-10.31.37 22.75.37-23.64.38 10.84.37 5.87.38-7.11.37 4.62.37-6.4.38 4.45.37 11.02.37-19.38.38 17.07.37 8.53.38-11.2.37-10.67.37 9.96.38-4.09.37-4.44.38 11.73.37-3.38.37 3.73.38-3.73.37-8 .38 12.27.37-13.51.37 20.97.38-21.51h.37l.37-18.31.38 14.76.37 20.26.38-2.84.37 4.44.37-13.33.38.18.37 11.73.38-7.64.37-7.11.37-2.49.38 6.93.37 6.04.38-.88.37-2.31.37 12.79.38-3.91.37-.53.38-9.24.37-6.58.37-1.42.38 8.71.37-13.87.37 23.11.38-10.66.37-11.03.38 2.85.37-2.67.37 10.49.38-4.27.37 1.96.38-4.98.37 10.49.37-10.84.38 2.84.37-9.95.38 9.95.37-5.69.37 5.33.38 22.05.37-16.53.37-.89.38.53.37 1.78.38-9.25.37-2.31.37 1.96.38 20.62.37-15.47.38-2.84.37-2.49.37 17.24.38-17.6.37 5.87.38 1.6.37-8 .37 16.89.38-8.53.37-3.38.38-10.84.37 11.55.37 6.93.38-12.62.37 3.02.37 7.29.38-8.71.37 21.87.38-18.67.37 3.56.37-14.94.38 24.89.37-18.66.38 13.15.37-8.35.37 10.66.38 7.11.37-16 .38 4.8.37-6.4.37 8.36.38-11.73.37-13.16.37 22.93.38-11.55.37 26.13.38-6.4.37-13.69.37 6.4.38-4.44.37-20.09.38 10.49.37 21.86.37-.35.38-17.96.37 13.16.38-16 .37-4.62.37 17.06.38 7.82.37 4.45.38-15.29.37 9.24.37 3.56.38-23.11.37-1.78.37 12.27.38 7.46.37.18.38-25.06.37 25.77.37-20.26.38 28.8.37-12.45.38-13.86.37-9.42.37 15.82.38-2.67.37-20.09.38 21.69.37 2.67.37-1.25.38-5.15.37 17.42.37-6.58.38 2.84.37 5.34.38-2.49.37-7.29.37-18.49.38 9.07.37 18.49.38-9.25.37 3.91.37-8.71.38-3.91.37-1.24.38 29.33.37-24.89.37-8 .38 4.98.37-3.02.38 5.51.37-7.64.37 19.9.38 4.98.37-11.73.37 18.84.38-18.66.37 14.93.38-8.89.37-24.35.37 17.6.38 2.66.37-1.6.38-1.77.37-5.87.37 2.31.38 14.93.37-12.97.38 18.13.37-15.11.37-2.85.38 17.78.37 5.16.37-28.45.38-7.82.37 9.42.38-2.31.37-13.69.37 32 .38-16.71.37 1.25.38-1.25.37 25.6.37-13.51.38 4.09.37-18.13.38 4.97.37-11.37.37 27.91.38-29.34.37 2.67.38-2.49.37 11.02.37 11.2.38-9.6.37-1.06.37 8.35.38-3.91.37 1.42.38 4.98.37-5.51.37-4.09.38 11.56.37.35.38-10.13.37-5.16.37 15.11.38-6.4.37-9.06.38-2.14.37 8.36.37-.36.38 6.94.37-9.6.37 15.29.38-11.38.37-6.22.38 6.57.37 6.76.37-4.09.38-14.58.37 5.51.38-.71.37 16.71"/><use xlink:href="#h" color="#29C3F6" transform="matrix(3.75 0 0 3.75 56.04 81.99)"/><use xlink:href="#h" color="#29C3F6" transform="matrix(3.75 0 0 3.75 89.85 22.51)"/></g><text fill="#000" stroke="none" stroke-linecap="round" stroke-linejoin="round" color="#000" font-family="KaTeX_Main" font-size="8" transform="translate(241.1 10.11)"><tspan>RedBlackBottomUp</tspan></text><g fill="none" stroke="currentColor" stroke-linecap="round" stroke-linejoin="round" color="#000"><path stroke="#F44336" d="M205.6 7.51h29.9M28 165.71l.37 6.58.38-5.51.37-13.51.38 17.24.37-12.08.37 10.13.38 2.84.37 8.18.38-8.53.37-1.43.37-.35.38 1.24.37 8.54.37-8.71.38-18.31.37 15.64.38 8 .37-7.82.37 12.62.38-8.89.37 7.82.38-7.82.37 8.53.37-4.62.38-22.22.37 22.4.38-20.98.37 3.02.37 2.85.38 1.6.37 19.2.37-9.25.38-1.06.37-6.76.38 5.69.37-9.07.37 4.09.38 2.14.37 2.31.38-1.25.37 2.85.37-10.49.38 6.4.37-1.07.38 13.69.37-4.09.37 3.2.38-13.15.37 5.86.38-3.02.37-3.91.37 3.2.38-.53.37 7.11.37-20.45.38 11.02.37 10.49.38-24.17.37 25.06.37-16.71.38 9.96.37-1.96.38 13.87.37-13.69.37 8.35.38-11.73.37 6.05.38-14.23.37 23.11.37-5.68.38-12.09.37 10.13.37 6.4.38-11.73.37 6.4.38-3.03.37 10.85.37-11.2.38-4.8.37 7.11.38 9.95.37-20.97.37 1.06.38 8.89.37-2.31.38.54.37.88.37-7.46.38 11.73.37-15.46.38 6.57.37-9.24.37 2.31.38 8.35.37 1.96.37 4.09.38-6.4.37-11.56.38 3.2.37 17.96.37-8.36.38-.35.37-5.69.38 8 .37 5.69.37 9.95.38-24 .37 8.36.38-6.22.37 14.57.37-3.37.38-8.18.37 16.53.37-16 .38-12.44.37 2.13.38 1.42.37 18.14.37 1.24.38-14.58.37-.89.38 7.29.37-.71.37-2.13.38.71.37-4.62.38 19.91.37-28.44.37 10.31.38-14.23.37 25.43.38 5.33.37-18.67.37 26.85.38-20.45.37 10.14.37 6.75.38-16.35.37-.72.38 3.2.37 4.63.37-17.07.38 9.78.37 8.71.38-1.78.37 10.67.37-28.09.38 22.75.37-23.64.38 4.98.37-9.42.37 11.73.38 3.55.37-1.06.37-1.78.38.89.37-8.53.38 12.26.37-25.24.37 25.78.38-5.87.37 12.98.38-17.07.37 22.04.37-3.91.38-12.62.37-1.95.38 6.4.37 1.77.37-13.15.38 7.46.37-.35.38-1.42.37 8 .37 4.44.38-9.78.37-12.26.37-1.6.38 22.57.37-.71.38-13.15.37 1.42.37-4.8.38 14.76.37 1.42.38-2.31.37-16.36.37 10.67.38 4.98.37-3.03.38 2.31.37 9.07.37 1.24.38-25.42.37-5.51.37 9.6.38 16.18.37-15.11.38 1.24.37-1.42.37-2.49.38 20.62.37-23.82.38 23.47.37-21.16.37 10.31.38-1.42.37 6.76.38-11.38.37 14.76.37 4.79.38-11.37.37 4.98.38-8.36.37 1.78.37-15.65.38 8.54.37-1.25.37 22.4.38-22.75.37 4.44.38 7.11.37-7.29.37-4.62.38 6.93.37-9.59.38 4.44.37 16.71.37-15.47.38-7.46.37 3.38.38 28.97.37-14.58.37-14.22.38 8.18.37-8.71.37 17.95.38-.53.37 5.33.38 3.38.37-17.24.37-7.47.38 18.13.37-17.06.38 14.58.37-.89.37 5.15.38-15.46.37 14.22.38-2.67.37-11.02.37-12.8.38 22.04.37-12.26.38-.89.37 20.44.37-17.06.38 20.62.37-18.14.37 3.56.38-.18.37 9.96.38.17.37-4.62.37-1.95.38-1.25.37 4.27.38-18.67.37 19.56.37-23.64.38 10.84.37 12.27.38-13.52.37 13.87.37-11.55.38 7.28.37-18.13.37 17.78.38.18.37 9.06.38-20.26.37-3.02.37 8.71.38-4.8.37-4.09.38 12.44.37 2.13.37-12.62.38 12.09.37-3.91.38 7.82.37-8.18.37-17.06.38 3.38.37 24.53.38-17.42.37 9.42.37-14.58.38 13.16.37-11.2.37 11.91.38-4.27.37-6.75.38 6.22.37 9.42.37-8 .38 14.93.37 4.8.38-16.53.37-9.24.37 16.53.38-10.67.37-2.13.38 12.8.37-8 .37-4.8.38 3.91.37-5.33.37 20.97.38-22.57.37 7.11.38 12.44.37-8 .37.89.38-8 .37 5.87.38-10.49.37 14.22.37-2.67.38-2.48.37-.36.38-20.09.37 19.2.37 1.42.38 3.74.37 4.44.38 2.49.37-22.93.37 9.24.38 5.16.37-2.85.37 6.22.38-4.62.37-2.49.38-18.48.37 14.93.37-1.25.38 16.36.37-7.47.38 16.89.37-23.47.37-13.68.38 18.66.37-12.09.38-8.88.37 25.42.37-27.02.38 23.99.37 2.67.37 1.07.38-8.36.37 7.47.38-5.87.37 5.69.37-4.8.38-14.4.37-3.55.38 26.66.37-25.6.37 3.91.38 6.05.37-1.25.38 1.25.37 15.29.37-14.4.38 7.82.37-3.02.38-7.83.37-1.24.37 19.73.38-20.08.37-12.09.37 8 .38 14.93.37-15.64.38 7.99.37-4.79.37 6.04.38 13.51.37 3.91.38-16 .37 1.42h.37l.38-5.69.37 22.58.38-16.71.37 3.91.37 19.02.38-20.26.37 4.98.37 8.17.38-8.17.37-19.91.38 6.57.37 6.94.37 14.93.38-5.16.37-16.71.38 7.11.37-1.24.37-13.69.38 16.18.37-14.93.38 12.26.37 7.65.37-8.54.38-11.02.37 10.84.38 10.67.37.18.37-16.71.38 17.24.37-16.35.37 14.57.38-15.82.37.71.38 31.11.37-12.97.37-16.18.38.18.37 11.73.38-9.6.37-2.31.37-1.25.38 8 .37.72.38 1.77.37 5.51.37-.88.38-9.6.37-8 .37 9.24.38-5.69.37-1.07.38-6.57.37 4.8.37 8.71.38 9.06.37-1.42.38-16.35.37 4.09.37 3.55.38 2.13.37.18.38 10.85.37-14.94.37 6.76.38-3.73.37 3.91.38-3.03.37.89.37 7.11.38-9.06.37-4.98.37 3.73.38-3.37.37 6.93.38-10.67.37-.53.37 4.44.38 2.85.37 1.95.38-12.26.37 5.69.37 6.75.38 3.02.37-6.57.38 1.77.37-10.31.37 12.09.38-3.73.37 4.26.37 4.09.38 10.31.37-28.79.38 12.97.37 3.91.37-1.42.38-2.84.37-12.45.38 14.58.37 11.73.37-21.51.38 21.69.37-.18.38-20.62.37 5.33.37 2.14.38-8.53.37 6.22.37-1.6.38-14.05.37 18.67.38-5.51.37 8.53.37 6.05.38-16.36.37 17.95.38-20.08.37 20.44.37-14.58.38 3.74.37 5.33.38-11.38.37 14.58.37.36.38-6.94.37 6.76.38-1.07.37-8.71.37 13.33.38-35.91.37 31.29.37-10.84.38-2.14.37-.35.38 5.86.37 1.43.37-4.45.38 3.56.37 4.44.38-9.24.37 7.82.37 3.73.38 1.07.37-6.58.38.71.37-4.26.37-2.67.38-8.53.37 18.66.37 5.51.38 1.43.37-23.47.38 7.11.37-7.82.37 3.91.38 7.29.37-17.07.38 24 .37-.18.37-6.22.38-2.66.37 1.6.38-2.85.37 9.78.37-17.24.38 31.64.37-29.69.38 1.96.37-4.63.37 12.63.38-2.32.37-.17.37.89.38 4.44.37-14.93.38 13.51.37-18.49.37 9.24.38 1.6.37-1.77.38 4.44.37 1.07.37 6.75.38-1.6.37-10.49.38 7.65.37 9.95.37 4.27.38-22.58.37-7.11.37 11.73.38 10.14.37-19.02.38 17.24.37 4.98.37-15.29.38 9.42.37-9.95.38 9.42.37-2.49.37.71.38 4.09.37-3.56.38-5.15.37 4.26.37 13.34.38-1.78.37-.71.38-22.22.37-1.25.37 29.51.38-3.55.37-14.05.37 5.51.38-14.93.37 7.65.38.88.37-9.24.37.53.38 5.34.37 5.86.38-.35.37-.36.37-16.35.38 29.68.37-28.97.38 6.58.37 12.97.37 2.31.38.18.37-13.15.37-3.03.38-4.08.37 7.46.38 11.56.37-13.69.37 1.78.38 6.4.37 10.31.38-13.34.37-3.2.37 23.65.38-26.67.37 2.14.38-19.03.37 20.98.37 9.07.38-4.8.37 3.38.38-11.92.37 16.72.37-23.29.38 24.35.37-24.17.37 11.91.38-16.89.37 18.31.38 4.26.37-.71.37 1.78.38-11.91.37 5.16.38 9.24.37-8.18.37 8.18.38-11.73.37 7.46.38-4.09.37 20.8.37-25.77.38 20.08.37-13.15.37 14.93.38-7.64.37 3.38.38-12.45.37 3.2.37 1.78.38-6.4.37 10.67.38-3.2.37-14.05.37-2.31.38 5.69.37-1.78.38 8.71.37 5.34.37-4.09.38-8.36.37 1.6.38.71.37 1.78.37 3.02.38 9.07.37 7.29.37-24 .38 14.75.37-6.4.38 8.18.37-10.31.37 6.4.38-12.98.37.54.38 6.75.37-2.49.37 6.76.38 3.02.37-9.07.38 8.89.37-7.64.37-.36.38-4.44.37-.89.37 18.49.38-14.93.37 6.04.38 17.78.37-21.69.37-6.22.38-8.54.37 18.14.38-10.49.37 2.66.37 6.94.38-2.49.37-8.89.38 7.11.37 4.45.37-2.49.38 10.13.37-10.13.38 8 .37-14.4.37 3.02.38-5.51.37.18.37 10.48.38-4.97.37-20.09.38 28.44.37-8.18.37-.88.38 9.77.37 8.89.38-30.22.37 27.55.37-16.71.38 7.29.37-3.02.38 3.38.37-12.98.37.18.38 27.91.37-16 .37-7.82.38 23.29.37-9.96.38 3.56.37-19.2.37 7.11.38 3.02.37 1.78.38-4.62.37-20.63.37 31.29.38-31.11.37 22.05.38.35h.37l.37 4.09.38-1.96.37-6.93.38-1.78.37.54.37 3.2.38-2.85.37 2.49.37 12.44.38-21.86.37 26.13.38-19.38.37 13.34.37-4.27.38 3.91.37-11.02.38 9.78.37 3.37.37-8.17.38 7.29.37-10.67.38 7.64.37-9.42.37-11.73.38 12.09.37-.18.37 9.24.38-8.71.37 11.03.38-.18.37-11.38.37-1.6.38 10.49.37-9.42.38 3.73.37-4.09.37 2.67.38-5.16.37-6.22.38 5.51.37.89.37.53.38 5.87.37 3.02.38-8.18.37 13.52.37-6.76.38 1.96.37 4.44.37-6.58.38 7.82.37-11.55.38-13.16.37 17.07.37-9.96.38 22.23.37-1.43.38-16.71.37-16 .37 24.71.38-5.51.37-13.33.38 6.93.37 3.2.37-.53.38 5.16.37 7.11.37-19.38.38-.36.37 40.53.38-24.88.37 14.4.37-33.96.38 17.6.37-6.58.38 4.63.37 8.17.37-18.13.38.54.37 9.95.38 17.6.37-21.16.37-3.55.38-9.6.37 20.27.38-8.54.37-.71.37-3.91.38 11.91.37-6.22.37 12.8.38-16.71.37 18.49.38-20.8.37 6.75.37 5.69.38-8.71.37 20.62.38-11.2.37 3.2.37-19.73.38 9.78.37-9.96.38 32.36.37-7.12.37-7.64.38 3.73.37.89.37-13.86.38-7.82.37 12.44.38 1.6.37.18.37-3.03.38-6.93.37 6.22.38 1.6.37-1.06.37-2.85.38 6.58.37-12.09.38 1.42.37-2.84.37 19.73.38-9.24.37 9.78.38-13.87.37 6.58.37 6.4.38 2.31.37-27.02.37 24.17.38-12.26.37 1.06.38 3.74.37-6.4.37 10.84.38-13.15.37-3.56.38.36.37 2.66.37 1.96.38 3.55.37 3.91.38-2.13.37-3.55.37 2.13.38 5.51.37-1.78.37-.53.38 12.62.37-11.55.38 8 .37-20.98.37 7.82.38 9.78.37-37.87.38 35.56.37 4.62"/><use xlink:href="#e" color="#F44336" transform="matrix(3.75 0 0 3.75 113.62 162.51)"/><use xlink:href="#e" color="#F44336" transform="matrix(3.75 0 0 3.75 220.55 7.51)"/></g><text fill="#000" stroke="none" stroke-linecap="round" stroke-linejoin="round" color="#000" font-family="KaTeX_Main" font-size="8" transform="translate(241.1 25.11)"><tspan>RedBlackTopDown</tspan></text><g fill="none" stroke="currentColor" stroke-linecap="round" stroke-linejoin="round" color="#000"><path stroke="#3B75EA" stroke-dasharray="1.0,2.0" d="M205.6 22.51h29.9M28 160.91l.37 4.09.38-.53.37-19.56.38 22.58.37-13.86.37 10.48.38 3.03.37 9.24.38-7.64.37-11.2.37 5.51.38 7.29.37 3.73.37-7.29.38-16.53.37 10.84.38 1.6.37.71.37 9.78.38-6.22.37 6.22.38-8.53.37 6.57.37-1.6.38-15.99.37 18.84.38-20.09.37-1.07.37 8.18.38-3.91.37 16.89.37-3.73.38-.36.37-8.18.38 6.05.37-9.42.37 1.42.38 1.6.37 6.93.38-5.51.37 5.15.37-8.17.38 4.97.37-2.66.38 17.42.37-5.87.37-2.49.38-8.35.37 9.07.38-5.87.37-6.76.37 4.8.38 1.6h.37l.37-24.71.38 24.71.37 3.56.38-17.6.37 17.95.37-19.02.38 17.78.37-9.07.38 24.36.37-19.02.37 11.02.38-6.76.37-1.06.38-11.2.37 17.42.37-2.49.38-13.51.37 12.62.37 3.38.38-9.78.37 8.53.38-15.28.37 17.06.37-7.64.38-8.89.37 9.07.38 15.28.37-27.02.37 5.16.38 5.33.37-10.13.38 13.33.37 1.25.37-13.69.38 11.2.37-13.87.38 13.16.37-11.74.37.71.38 14.23.37-6.4.37-3.38.38-3.38.37-8 .38 7.65.37 19.73.37-17.07.38 5.69.37-6.58.38 9.07.37 8.18.37 8.71.38-25.6.37 11.38.38-10.85.37 20.62.37-8.71.38-10.13.37 22.75.37-21.15.38-14.58.37 3.56.38 4.98.37 21.51.37-1.96.38-13.33.37-5.34.38 3.38.37-2.13.37 3.38.38.35.37-8.89.38 22.05.37-17.25.37-2.49.38-9.6.37 29.87.38-3.02.37-16.53.37 24.35.38-18.49.37 5.33.37 7.12.38-13.34.37 3.91.38-.71.37 9.78.37-19.02.38 12.44.37 6.76.38-4.62.37 14.39.37-32.17.38 26.84.37-30.93.38 15.47.37-13.34.37 9.07.38 8.53.37-9.06.37 3.02.38 3.2.37-19.56.38 21.69.37-24.17.37 25.42.38-5.16.37 5.87.38-17.25.37 25.6.37-10.31.38-4.09.37-1.95.38 2.31.37 8.89.37-11.56.38-.71.37-4.98.38 5.34.37 8.88.37 3.56.38-7.47.37-8.88.37-7.29.38 29.86.37-4.26.38-11.92.37 1.96.37-5.87.38 12.98.37-2.31.38 1.6.37-29.15.37 19.02.38 9.95.37-4.09.38-.71.37 12.27.37-11.56.38-17.6.37-7.11.37 14.4.38 13.87.37-10.84.38-1.25.37 6.04.37-8.88.38 15.28.37-18.66.38 19.38.37-13.69.37 7.11.38-.54.37 10.85.38-18.13.37 14.22.37 6.4.38-14.4.37 2.66.38-.88.37-4.09.37-7.82.38 4.62.37-3.56.37 29.51.38-20.26.37-6.76.38 8.89.37 2.67.37-12.45.38 6.76.37-6.4.38 2.84.37 12.98.37-12.27.38-6.4.37 6.05.38 25.6.37-14.05.37-13.33.38 5.51.37-8.35.37 15.64.38 3.91.37 6.04.38-5.68.37-7.83.37-13.51.38 18.14.37-14.05.38 6.58.37 9.6.37-8.36.38-5.51.37 11.74.38 1.77.37-13.68.37-9.96.38 21.15.37-16.88.38 9.6.37 11.02.37-10.67.38 12.8.37-14.93.37 1.42.38 2.84.37 18.31.38-4.26.37-10.49.37.18.38 2.84.37 3.38.38-21.51.37 20.8.37-25.78.38 11.38.37 16 .38-17.07.37 14.94.37-14.23.38 3.03.37-8.36.37 17.6.38-10.13.37 13.51.38-19.56.37-1.24.37 13.15.38-7.28.37-5.34.38 14.58.37.89.37-14.4.38 13.15.37 1.07.38 3.73.37-11.55.37-18.49.38 10.84.37 25.07.38-24.89.37 4.8.37-6.93.38 8.89.37-6.58.37 14.93.38-9.06.37-9.96.38 9.6.37 9.24.37-3.91.38 6.4.37 4.45.38-11.38.37-8.89.37 10.67.38-9.6.37.53.38 9.78.37-12.98.37 5.69.38 7.11.37-12.26.37 23.99.38-30.93.37 13.16.38 14.75.37-6.4.37 4.8.38-11.02.37 8.18.38-13.51.37 11.37.37-3.37.38-.36.37-1.6.38-23.64.37 21.86.37 2.67.38.71.37 5.87.38 9.95.37-31.64.37 16.89.38.71.37-3.91.37 11.55.38-10.49.37 3.03.38-11.74.37 2.85.37 5.51.38 9.78.37-12.45.38 20.8.37-25.95.37-10.85.38 27.38.37-15.11.38-15.29.37 33.6.37-29.87.38 17.07.37 8.36.37 1.6.38-6.23.37 3.38.38-1.95.37-.54.37-7.82.38-10.13.37-1.42.38 25.77.37-25.77.37 1.24.38 2.31.37 11.2.38-4.09.37 11.02.37-9.95.38 4.8.37-3.74.38-5.33.37-3.55.37 16.71.38-10.49.37-11.38.37 6.4.38 7.47.37-12.98.38 1.78.37 1.78.37 12.08.38 8.18.37 4.09.38-9.96.37-6.39.37 6.93.38-7.29.37 26.84.38-25.6.37 11.74.37 17.24.38-27.2.37 4.09.37 11.56.38-4.27.37-22.04.38 3.37.37 6.94.37 17.24.38-4.09.37-19.2.38 8.53.37-3.91.37-10.84.38 13.33.37-13.33.38 8.53.37 10.31.37-6.22.38-13.86.37 10.66.38 13.51.37 1.07.37-11.2.38 9.07.37-13.34.37 6.76.38-5.16.37-3.02.38 30.4.37-21.87.37-13.15.38 1.42.37 16.18.38-8.71.37.89.37 4.26.38-7.29.37 6.4.38 6.4.37-7.64.37 6.75.38-9.6.37-7.46.37 7.46.38-3.19.37-.18.38-2.67.37-4.44.37 9.77.38 8 .37 8.54.38-21.69.37 2.84.37-2.31.38 5.16.37 4.8.38 6.75.37-8 .37 2.49.38-7.46.37 6.04.38 2.13.37-6.75.37 11.55.38-9.42.37-4.8.37 1.96.38-3.74.37 9.07.38-3.73.37-4.98.37 8 .38-1.6.37-1.78.38-15.29.37 12.62.37 8.36.38-3.02.37-5.87.38-4.09.37-.35.37 3.02.38 5.69.37-1.78.37 5.69.38 6.04.37-23.64.38 14.4.37 8 .37-5.69.38-5.51.37-7.65.38 11.03.37 10.31.37-23.29.38 17.95.37 9.43.38-24.54.37 3.38.37 3.2.38-3.2.37 1.25.37-.18.38-10.14.37 13.16.38-1.24.37 8.53.37-3.02.38-11.74.37 23.29.38-27.55.37 27.55.37-17.42.38 2.49.37 8.53.38-7.29.37 10.67.37-.71.38-11.91.37 7.11.38 4.98.37-4.63.37 7.47.38-40.18.37 35.91.37-12.62.38 2.49.37-3.38.38 5.51.37-.71.37-1.95.38 2.31.37 6.58.38-14.4.37 3.37.37 14.4.38-3.02.37-2.49.38-3.2.37-.89.37 3.2.38-10.66.37 19.37.37 5.16.38-10.49.37-18.84.38 14.04.37-12.98.37 2.85.38 11.2.37-19.38.38 26.31.37-1.6.37-8.35.38-6.58.37 3.91.38 1.42.37 11.2.37-20.26.38 34.13.37-35.56.38 10.31.37-5.33.37 9.24.38 3.2.37-6.75.37 1.95.38-1.06L240 149l.38 15.65.37-16.89.37 10.67.38-1.07.37-1.07.38 7.47.37.71.37 1.78.38-4.98.37-.36.38 3.91.37 8.72.37 11.02.38-31.29.37-1.6.37 15.11.38 9.42.37-19.73.38 10.31.37 6.4.37-9.78.38 12.45.37-18.31.38 12.97.37-8.71.37 7.65.38 2.66.37-3.37.38-8.18.37 4.26.37 8.18.38 2.85.37 3.2.38-28.27.37 1.42.37 29.51.38-2.31.37-11.91.37 1.78.38-12.98.37 16.18.38-8 .37-3.2.37-6.93.38 3.91.37 12.44.38-4.62.37 2.67.37-18.49.38 30.93.37-30.58.38 9.25.37 14.4.37-5.87.38 6.4.37-17.95.37 1.06.38-1.78.37 9.96.38 1.6.37-3.91h.37l.38 2.13.37 12.62.38-16.71.37 3.56.37 14.22.38-25.07.37 4.09.38-24.17.37 25.95.37 14.58.38-8.89.37 1.95.38-8.35.37 11.2.37-26.84.38 31.64.37-24.89.37 14.58.38-14.58.37 8.53.38 8.54.37-5.87.37 2.84.38-10.84.37 10.49.38 11.38.37-6.05.37 5.34.38-15.83.37 9.6.38-14.75.37 28.26.37-25.24.38 18.13.37-17.95.37 25.24.38-13.33.37 5.33.38-16.53.37 7.29.37 1.78.38-3.38.37 11.38.38-1.96.37-14.58.37-3.55.38.71.37 6.04.38 9.42.37 3.38.37-8.71.38-9.78.37 10.49.38-5.33.37 1.24.37 1.43.38 10.66.37 15.29.37-24.71.38 8.36.37-1.6.38 3.73.37-15.64.37 5.68.38-6.04.37 1.6.38 7.11.37-9.6.37 9.6.38 8 .37-3.38.38-6.22.37-.53.37-5.69.38-1.42.37-2.85.37 19.91.38-19.2.37 12.27.38 20.62.37-30.04.37-1.78.38-8.71.37 11.38.38-8.54.37 8.89.37.89.38 2.49.37-9.78.38 9.25.37 3.02.37-3.38.38 14.58.37-10.67.38 11.56.37-19.38.37-4.62.38 4.62.37-2.67.37 7.65.38-5.51.37-13.87.38 25.78.37-14.05.37 1.25.38 15.82.37 4.44.38-30.75.37 24.35.37-11.73.38 4.98.37-3.56.38 7.11.37-17.24.37 10.31.38 23.64.37-13.68.37-4.98.38 15.64.37-8.89.38 3.03.37-18.49.37 3.73.38 4.27.37-1.6.38-3.03.37-19.19.37 33.06.38-32.18.37 26.67.38-9.78.37 10.31.37-1.42.38 4.62.37-16.88.38 2.66.37 4.45.37-2.49.38 1.6.37 4.09.37 7.82.38-20.45.37 27.56.38-21.69.37 11.2.37-1.24.38-4.09.37-8 .38 11.73.37 1.24.37-3.37.38 2.31.37-8 .38 16.53.37-13.15.37-13.34.38 8.71.37 4.09.37 7.29.38-25.42.37 26.84.38-3.73.37-6.4.37-1.24.38.35.37-1.24.38 2.31.37-.71.37 1.42.38-13.69.37.18.38 3.91.37 9.07.37-8 .38 3.91.37 8.17.38-11.19.37 17.59.37-8.35.38-.36.37 5.34.37-3.91.38 6.75.37-11.55.38-10.85.37 17.25.37-13.69.38 22.75.37-7.64.38-6.76.37-11.55.37 15.29.38-6.4.37-12.27.38 12.8.37-2.84.37-1.6.38 2.31.37 13.15.37-20.26.38-1.96.37 41.24.38-19.37.37 8.17.37-28.8.38 16.18.37-3.02.38 3.38.37 7.11.37-24 .38-3.38.37 18.13.38 17.07.37-24.18.37-.17.38-7.47.37 9.78.38-1.6.37 5.68.37-8.35.38 14.4.37-7.82.37 16 .38-20.09.37 20.26.38-21.68.37-1.25.37 14.58.38-11.91.37 16 .38-10.85.37 8.36.37-23.29.38 15.11.37-9.24.38 29.15.37-5.86.37-12.8.38 6.22.37.89.37-7.11.38-18.14.37 8.18.38 11.56.37-.18.37-1.6.38-12.09.37 8.53.38 5.69.37-7.64.37 2.84.38-3.02.37-3.38.38 4.45.37-4.09.37 14.22.38-8 .37 15.29.38-18.31.37 4.97.37 9.78.38 1.07.37-25.96.37 14.05.38-1.6.37 2.84.38 1.25.37-12.62.37 14.39.38-12.62.37 1.43.38-4.09.37 2.66.37 2.14.38-1.07.37 6.93.38.71.37-7.11.37-.17.38 10.13.37-.36.37 1.07.38 7.82.37-5.69.38 3.74.37-19.91.37 10.31.38 4.26.37-30.93.38 28.8.37 9.95"/><use xlink:href="#i" color="#3B75EA" transform="matrix(3.75 0 0 3.75 171.2 153.98)"/><use xlink:href="#i" color="#3B75EA" transform="matrix(3.75 0 0 3.75 220.55 22.51)"/></g><path fill="none" stroke="none" stroke-linecap="round" stroke-linejoin="round" stroke-width="0" d="M28 45.01V205M371.99 45.01H28" color="#000"/></svg>