<svg xmlns="http://www.w3.org/2000/svg" xmlns:xlink="http://www.w3.org/1999/xlink" viewBox="0 0 400 300"><path fill="none" d="M0 0h400v300H0z"/><defs><use xlink:href="#a" id="g" fill="currentColor" stroke="none"/><use xlink:href="#b" id="h" fill="currentColor" stroke="none"/><use xlink:href="#b" id="c" stroke="currentColor" transform="rotate(180)"/><use xlink:href="#d" id="e" stroke="currentColor" transform="rotate(45)"/><path id="d" stroke="currentColor" stroke-width=".267" d="M-1-1h2v2h-2z"/><path id="b" stroke="currentColor" stroke-width=".267" d="m0-1.33-1.33 2h2.66z"/><path id="f" stroke="currentColor" stroke-width=".267" d="M0 1.33 1.265.411.782-1.067l-1.564-.009-.483 1.487z"/><circle id="a" cx="0" cy="0" r="1" stroke="currentColor" stroke-width=".267"/></defs><path fill="none" stroke="#000" stroke-dasharray="0.1,0.2" stroke-linecap="round" stroke-linejoin="round" stroke-width=".1" d="M35.33 255V75.01" class="gridline" color="#000"/><g fill="none" stroke="none" stroke-linecap="round" stroke-linejoin="round" stroke-width="0" color="#000"><path d="M35.33 255v-7.5m0-172.49v7.5"/><text fill="#000" font-family="KaTeX_Main" font-size="10" text-anchor="middle" transform="translate(35.33 265.75)"><tspan> 1</tspan></text></g><path fill="none" stroke="#000" stroke-dasharray="0.1,0.2" stroke-linecap="round" stroke-linejoin="round" stroke-width=".1" d="M71.96 255V75.01" class="gridline" color="#000"/><g fill="none" stroke="none" stroke-linecap="round" stroke-linejoin="round" stroke-width="0" color="#000"><path d="M71.96 255v-7.5m0-172.49v7.5"/><text fill="#000" font-family="KaTeX_Main" font-size="10" text-anchor="middle" transform="translate(71.96 265.75)"><tspan> 2</tspan></text></g><path fill="none" stroke="#000" stroke-dasharray="0.1,0.2" stroke-linecap="round" stroke-linejoin="round" stroke-width=".1" d="M108.58 255V75.01" class="gridline" color="#000"/><g fill="none" stroke="none" stroke-linecap="round" stroke-linejoin="round" stroke-width="0" color="#000"><path d="M108.58 255v-7.5m0-172.49v7.5"/><text fill="#000" font-family="KaTeX_Main" font-size="10" text-anchor="middle" transform="translate(108.58 265.75)"><tspan> 3</tspan></text></g><path fill="none" stroke="#000" stroke-dasharray="0.1,0.2" stroke-linecap="round" stroke-linejoin="round" stroke-width=".1" d="M145.21 255V75.01" class="gridline" color="#000"/><g fill="none" stroke="none" stroke-linecap="round" stroke-linejoin="round" stroke-width="0" color="#000"><path d="M145.21 255v-7.5m0-172.49v7.5"/><text fill="#000" font-family="KaTeX_Main" font-size="10" text-anchor="middle" transform="translate(145.21 265.75)"><tspan> 4</tspan></text></g><path fill="none" stroke="#000" stroke-dasharray="0.1,0.2" stroke-linecap="round" stroke-linejoin="round" stroke-width=".1" d="M181.84 255V75.01" class="gridline" color="#000"/><g fill="none" stroke="none" stroke-linecap="round" stroke-linejoin="round" stroke-width="0" color="#000"><path d="M181.84 255v-7.5m0-172.49v7.5"/><text fill="#000" font-family="KaTeX_Main" font-size="10" text-anchor="middle" transform="translate(181.84 265.75)"><tspan> 5</tspan></text></g><path fill="none" stroke="#000" stroke-dasharray="0.1,0.2" stroke-linecap="round" stroke-linejoin="round" stroke-width=".1" d="M218.47 255V75.01" class="gridline" color="#000"/><g fill="none" stroke="none" stroke-linecap="round" stroke-linejoin="round" stroke-width="0" color="#000"><path d="M218.47 255v-7.5m0-172.49v7.5"/><text fill="#000" font-family="KaTeX_Main" font-size="10" text-anchor="middle" transform="translate(218.47 265.75)"><tspan> 6</tspan></text></g><path fill="none" stroke="#000" stroke-dasharray="0.1,0.2" stroke-linecap="round" stroke-linejoin="round" stroke-width=".1" d="M255.1 255V75.01" class="gridline" color="#000"/><g fill="none" stroke="none" stroke-linecap="round" stroke-linejoin="round" stroke-width="0" color="#000"><path d="M255.1 255v-7.5m0-172.49v7.5"/><text fill="#000" font-family="KaTeX_Main" font-size="10" text-anchor="middle" transform="translate(255.1 265.75)"><tspan> 7</tspan></text></g><path fill="none" stroke="#000" stroke-dasharray="0.1,0.2" stroke-linecap="round" stroke-linejoin="round" stroke-width=".1" d="M291.73 255V75.01" class="gridline" color="#000"/><g fill="none" stroke="none" stroke-linecap="round" stroke-linejoin="round" stroke-width="0" color="#000"><path d="M291.73 255v-7.5m0-172.49v7.5"/><text fill="#000" font-family="KaTeX_Main" font-size="10" text-anchor="middle" transform="translate(291.73 265.75)"><tspan> 8</tspan></text></g><path fill="none" stroke="#000" stroke-dasharray="0.1,0.2" stroke-linecap="round" stroke-linejoin="round" stroke-width=".1" d="M328.36 255V75.01" class="gridline" color="#000"/><g fill="none" stroke="none" stroke-linecap="round" stroke-linejoin="round" stroke-width="0" color="#000"><path d="M328.36 255v-7.5m0-172.49v7.5"/><text fill="#000" font-family="KaTeX_Main" font-size="10" text-anchor="middle" transform="translate(328.36 265.75)"><tspan> 9</tspan></text></g><path fill="none" stroke="#000" stroke-dasharray="0.1,0.2" stroke-linecap="round" stroke-linejoin="round" stroke-width=".1" d="M364.99 255V75.01" class="gridline" color="#000"/><g fill="none" stroke="none" stroke-linecap="round" stroke-linejoin="round" stroke-width="0" color="#000"><path d="M364.99 255v-7.5m0-172.49v7.5"/><text fill="#000" font-family="KaTeX_Main" font-size="10" text-anchor="middle" transform="translate(364.99 265.75)"><tspan> 10</tspan></text></g><g fill="none" stroke="none" stroke-linecap="round" stroke-linejoin="round" stroke-width="0" color="#000"><path d="M364.99 255h-7.5"/><text fill="#000" font-family="KaTeX_Main" font-size="10" transform="translate(371.99 258.25)"><tspan>0.900</tspan></text></g><g fill="none" stroke="none" stroke-linecap="round" stroke-linejoin="round" stroke-width="0" color="#000"><path d="M364.99 225h-7.5"/><text fill="#000" font-family="KaTeX_Main" font-size="10" transform="translate(371.99 228.25)"><tspan>0.910</tspan></text></g><g fill="none" stroke="none" stroke-linecap="round" stroke-linejoin="round" stroke-width="0" color="#000"><path d="M364.99 195h-7.5"/><text fill="#000" font-family="KaTeX_Main" font-size="10" transform="translate(371.99 198.25)"><tspan>0.920</tspan></text></g><g fill="none" stroke="none" stroke-linecap="round" stroke-linejoin="round" stroke-width="0" color="#000"><path d="M364.99 165h-7.5"/><text fill="#000" font-family="KaTeX_Main" font-size="10" transform="translate(371.99 168.25)"><tspan>0.930</tspan></text></g><g fill="none" stroke="none" stroke-linecap="round" stroke-linejoin="round" stroke-width="0" color="#000"><path d="M364.99 135.01h-7.5"/><text fill="#000" font-family="KaTeX_Main" font-size="10" transform="translate(371.99 138.26)"><tspan>0.940</tspan></text></g><g fill="none" stroke="none" stroke-linecap="round" stroke-linejoin="round" stroke-width="0" color="#000"><path d="M364.99 105.01h-7.5"/><text fill="#000" font-family="KaTeX_Main" font-size="10" transform="translate(371.99 108.26)"><tspan>0.950</tspan></text></g><g fill="none" stroke="none" stroke-linecap="round" stroke-linejoin="round" stroke-width="0" color="#000"><path d="M364.99 75.01h-7.5"/><text fill="#000" font-family="KaTeX_Main" font-size="10" transform="translate(371.99 78.26)"><tspan>0.960</tspan></text></g><path fill="none" stroke="none" stroke-linecap="round" stroke-linejoin="round" stroke-width="0" d="M28 75.01V255M364.99 75.01H28" color="#000"/><text fill="#000" stroke="none" stroke-linecap="round" stroke-linejoin="round" stroke-width="0" color="#000" font-family="KaTeX_Main" font-size="10" text-anchor="middle" transform="rotate(-90 88.255 76.755)"><tspan font-weight="bold">AveragePathLength </tspan><tspan> / log</tspan><tspan dy="3" font-size="8">2</tspan><tspan dy="-3">(Size)</tspan></text><text fill="#000" stroke="none" stroke-linecap="round" stroke-linejoin="round" stroke-width="0" color="#000" font-family="KaTeX_Main" font-size="10" text-anchor="middle" transform="translate(196.49 288.25)"><tspan>Operations × 10</tspan><tspan dy="-5" font-size="8">5</tspan></text><text fill="#000" stroke="none" stroke-linecap="round" stroke-linejoin="round" color="#000" font-family="KaTeX_Main" font-size="10" transform="translate(112.5 42.64)"><tspan>LBSTBottomUp</tspan></text><g fill="none" stroke="currentColor" stroke-linecap="round" stroke-linejoin="round" color="#000"><path stroke="#3B75EA" d="M70 39.39h35.5M28 197.95l.37-4.69.36-1.31.37-4.33.37-4.44.36-4.61.37-4.74.36 20.44.37 47.37.37-1.85.36-2.1.37-2.2.37-2.22.36-2.54.37-2.64.36-2.79.37-2.99.37-2.94.36-1.99.37.86.37-2.12.36-3.09.37-3.11.36 12.89.37-2.38.37-2.56.36-2.78.37-2.79.37-3 .36.75.37-1.93.37-2.07.36-2.11.37-2.25.36-2.48.37-.76.37-2.21.36-2.3.37-2.33.37-2.06.36-2.51.37-2.73.36-2.53.37-2.77.37-2.86.36-2.96.37 42.1.37-1.25.36 2.04.37-.78.36-1.1.37-1.15.37-1.18.36-1.23.37-1.42.37-1.45.36-1.55.37.59.37-1.3.36-1.41.37-1.43.36-1.41.37-1.56.37-1.53.36-1.58.37-1.76.37-1.76.36-1.78.37 1.83.36-1.58.37-1.69.37 2.02.36-1.21.37-1.31.37-1.34.36-1.42.37-1.42.36-1.52.37-.78.37-1.55.36-1.62.37-1.66.37-1.73.36-1.7.37 1.84.36-1.06.37-1.19.37-1.18.36-1.26.37-1.27.37-1.35.36.71.37.48.37 32.91.36-.33.37-.45.36-.51.37-.49.37-.69.36-.65.37-.71.37-.72.36 12.74.37-.08.36-.19.37-.26.37-.28.36-.34.37-.41.37-.49.36-.54.37-.52.36-.61.37-.7.37 8.44.36-.03.37-.05.37-.08.36-.08.37-.11.37-.23.36.44.37-.26.36-.3.37.44.37-.37.36-.44.37-.4.37-.37.36-.51.37-.51.36-.53.37-.59.37-.58.36-.69.37-.69.37-.71.36-.74.37-.77.36-.83.37-.86.37-.85.36-.87.37-.85.37-.9.36-1.01.37-.92.37-1.07.36-1.04.37-1.09.36-1.19.37-1.12.37-1.18.36-1.17.37-1.21.37-1.29.36-1.32.37-1.34.36-1.4.37-1.35.37 13.65.36-.93.37-.98.37 2.1.36-.75.37-.88.36-.99.37-.91.37-1.08.36-1.02.37-1.05.37-.69.36-1.07.37-1.06.37-1.13.36-1.06.37 5.17.36-.63.37-.72.37-.43.36-.84.37-.77.37-.8.36-.82.37-.83.36-.8.37-.87.37-.92.36-.93.37-.95.37-.99.36-1.02.37-1.01.36-.93.37-1.03.37-.99.36-1.05.37-1.08.37-1.1.36-.75.37-1.06.36-1.11.37 24.07.37-.63.36-.69.37-.7.37-.73.36-.76.37-.8.37-.78.36-.84.37-.84.36.67.37-.58.37-.6.36-.59.37-.62.37-.64.36-.61.37-.65.36-.64.37-.71.37-.67.36-.71.37-.75.37-.61.36-.75.37-.73.36-.76.37-.8.37.16.36 4.3.37-.79.37-.83.36-.82.37-.91.37-.88.36-.86.37-.93.36-.92.37-.95.37-1 .36-1 .37-.96.37-1.05.36-1.08.37-1.04.36-.99.37-1.09.37-1.07.36-1.14.37-1.16.37-1.16.36-1.17.37-1.19.36-1.19.37-1.24.37-1.21.36-1.25.37-1.31.37-1.25.36-1.29.37-1.34.37-1.29.36-1.3.37-1.37.36-1.36.37 11.87.37-1 .36-.38.37-.94.37-.95.36-.99.37-.97.36 24.13.37-.62.37-.61.36-.63.37-.65.37-.68.36 33.77.37-.28.36-.37.37-.36.37-.37.36-.39.37-.45.37-.43.36-.49.37-.48.37-.5.36-.49.37-.51.36-.53.37-.54.37-.55.36-.55.37-.57.37-.59.36-.61.37-.61.36-.63.37-.63.37-.64.36-.71.37-.67.37-.66.36.84.37-.69.36-.72.37-.72.37-.73.36 7.89.37-.43.37-.45.36-.46.37-.46.37-.47.36-.46.37-.48.36-.47.37-.5.37-.49.36-.51.37-.53.37-.51.36-.54.37-.52.36-.54.37-.53.37-.57.36-.56.37-.58.37-.6.36 1 .37-.54.36-.54.37-.53.37-.54.36-.54.37-.56.37-.54.36-.55.37-.56.36-.57.37-.57.37-.58.36-.59.37-.62.37-.58.36-.61.37-.64.37-.58.36 14 .37-.45.36-.48.37-.45.37-.46.36-.48.37-.5.37-.5.36-.49.37-.51.36-.5.37-.5.37-.56.36-.54.37-.54.37-.54.36-.57.37-.55.36-.56.37-.55.37-.59.36-.61.37-.37.37-.57.36-.6.37-.61.37.19.36-.41.37-.41.36-.4.37-.42.37-.4.36-.46.37-.45.37-.43.36-.42.37-.47.36-.47.37-.05.37-.47.36-.49.37-.5.37-.49.36-.48.37-.49.36-.48.37-.5.37-.5.36-.53.37-.54.37-.51.36-.53.37-.54.37-.54.36-.52.37-.52.36-.54.37-.56.37-.56.36 7.33.37-.37.37 1.23.36-.29.37-.25.36-.29.37-.27.37-.28.36.37.37-.26.37-.25.36-.28.37-.29.36-.29.37-.26.37-.27.36-.26.37-.27.37-.29.36-.28.37-.3.37-.3.36-.29.37-.31.36-.3.37-.29.37-.31.36-.28.37-.29.37-.31.36-.3.37-.3.36-.31.37-.33.37 16.85.36-.35.37-.34.37-.36.36-.36.37-.36.36-.36.37-.37.37-.37.36-.38.37-.37.37-.37.36-.39.37-.38.37-.4.36-.42.37-.41.36-.41.37-.4.37-.42.36-.41.37-.44.37-.43.36-.44.37-.45.36-.46.37-.45.37-.46.36-.47.37-.46.37-.47.36-.47.37-.47.36-.5.37-.48.37-.5.36-.49.37-.51.37-.5.36-.53.37-.53.36-.53.37-.54.37-.53.36-.56.37-.54.37-.54.36-.55.37-.57.37-.57.36-.58.37-.58.36-.57.37-.59.37-.57.36-.61.37-.58.37 1.03.36 6.81.37-.39.36-.39.37-.39.37-.42.36-.4.37-.4.37-.4.36-.42.37-.42.36-.41.37-.41.37-.4.36-.42.37-.42.37-.42.36-.45.37-.43.37-.44.36-.43.37-.44.36 1.09.37-.37.37-.37.36-.37.37-.38.37-.4.36-.4.37-.4.36-.38.37-.41.37-.41.36-.4.37-.4.37-.39.36-.41.37-.42.36-.41.37-.42.37-.44.36-.44.37-.42.37-.43.36-.46.37-.45.37-.46.36-.46.37-.47.36-.44.37-.46.37-.46.36-.48.37-.48.37-.48.36-.5.37-.47.36-.49.37-.47.37-.49.36-.5.37-.49.37-.5.36-.52.37-.51.36-.52.37-.52.37-.52.36-.52.37-.51.37-.52.36-.51.37-.53.37-.53.36-.53.37-.54.36-.55.37-.54.37-.55.36-.56.37-.56.37-.56.36-.56.37-.56.36.32.37-.57.37-.57.36-.57.37-.57.37-.57.36 21.29.37-.28.36-.39.37-.39.37-.38.36-.39.37.12.37-.38.36-.38.37-.39.36-.39.37-.39.37-.4.36-.41.37-.38.37-.41.36-.42.37-.34.37-.42.36-.4.37-.41.36-.41.37-.42.37-.43.36-.42.37-.44.37 44.46.36-.27.37-.29.36-.28.37-.3.37-.28.36-.3.37-.32.37-.3.36-.31.37-.32.36-.31.37-.3.37-.32.36-.3.37-.33.37-.31.36-.32.37-.34.37-.02.36-.34.37-.34.36-.31.37-.32.37-.34.36-.33.37-.34.37-.33.36-.34.37-.35.36-.35.37-.36.37-.36.36-.32.37-.36.37 8.62.36-.2.37-.2.36-.2.37-.21.37-.2.36-.21.37-.21.37-.21.36-.22.37-.22.37-.22.36-.22.37-.23.36-.21.37-.22.37-.23.36-.22.37-.24.37-.25.36-.24.37-.21.36-.25.37-.24.37-.25.36-.26.37-.26.37-.25.36-.27.37-.27.36-.26.37-.17.37-.27.36-.28.37-.28.37-.28.36-.27.37-.28.37-.26.36-.26.37-.26.36-.29.37-.29.37-.3.36-.3.37-.3.37-.29.36-.28.37-.31.36-.31.37-.31.37-.31.36-.3.37-.32.37-.31.36-.1.37-.32.36-.33.37-.32.37-.32.36-.33.37-.33.37-.14.36-.33.37-.33.37-.33.36-.33.37-.34.36-.34.37-.35.37-.35.36-.35.37-.36.37-.36.36-.37.37-.37.36-.38.37-.36.37-.36.36-.35.37-.38.37-.39.36 15.08.37-.2.36-.23.37-.23.37-.23.36-.22.37-.24.37-.23.36-.23.37-.26.36-.24.37-.24.37-.25.36-.26.37-.25.37-.26.36-.26.37-.25.37-.26.36-.26.37-.25.36-.27.37-.28.37-.27.36 4.31.37-.16.37-.16.36-.18.37-.18.36-.16.37-.17.37-.17.36-.16.37-.17.37-.16.36-.17.37-.18.36-.18.37-.17.37-.19.36-.18.37-.2.37-.19.36-.2.37-.19.37 1.31.36-.13.37-.16.36-.13.37-.14.37-.15.36-.15.37-.15.37-.16.36-.14.37-.15.36-.15.37-.16.37-.15.36-.16.37-.15.37-.15.36-.16.37-.16.36-.14.37-.16.37-.17.36-.15.37-.17.37-.16.36-.16.37-.16.37-.16.36-.15.37-.16.36-.17.37-.18.37-.16.36-.18.37-.18.37-.18.36-.19.37-.17.36-.17.37-.18.37-.18.36-.19.37-.17.37-.18.36-.18.37-.19.36-.18.37-.19.37-.19.36-.19.37-.19.37-.19.36-.2.37-.19.37-.19.36-.19.37-.19.36-.19.37-.19.37-.19.36-.2.37-.19.37-.2.36-.2.37-.21.36-.21.37-.2.37-.2.36-.21.37-.21.37-.22.36-.22.37-.2.36-.22.37-.2.37-.22.36-.21.37-.22.37-.22.36-.21.37-.22.36-.21.37-.22.37-.23.36-.23.37-.22.37-.23.36-.23.37-.24.37-.22.36-.23.37-.23.36-.24.37-.23.37-.24.36-.23.37-.25.37-.24.36-.25.37-.25.36-.24.37-.23.37-.24.36-.25.37-.25.37-.26.36-.25.37-.24.36-.25.37-.26.37-.25.36-.26.37-.26.37-.26.36-.26.37-.25.37-.25.36-.25.37-.26.36-.27.37-.26.37-.27.36-.26.37-.28.37-.28.36-.27.37-.27.36-.27.37 3.06.37-.01.36-.25.37-.26.37-.26.36-.25.37-.26.36-.27.37-.27.37-.26.36 28.31.37-.14"/><use xlink:href="#a" color="#3B75EA" transform="matrix(3.75 0 0 3.75 336.05 154.88)"/><use xlink:href="#a" color="#3B75EA" transform="matrix(3.75 0 0 3.75 87.75 39.39)"/></g><text fill="#000" stroke="none" stroke-linecap="round" stroke-linejoin="round" color="#000" font-family="KaTeX_Main" font-size="10" transform="translate(112.5 61.39)"><tspan>LBSTTopDown</tspan></text><g fill="none" stroke="currentColor" stroke-linecap="round" stroke-linejoin="round" color="#000"><path stroke="#29C3F6" stroke-dasharray="4.5,2.0,0.5,2.0,0.5,2.0" d="M70 58.14h35.5M28 183.63l.37-4.56.36-4.69.37 2.05.37-4.09.36-4.4.37-4.66.36-4.83.37 66.1.37-1.28.36-2.07.37-2.22.37-2.43.36-.17.37-1.98.36-2.13.37-2.21.37-2.27.36-2.55.37-2.49.37-2.78.36-3 .37 1.28.36-2.58.37-2.88.37 15.4.36-2.08.37-2.32.37-2.59.36-2.65.37-2.8.37-2.97.36-1.37.37-2.55.36-2.61.37-2.64.37-2.89.36.78.37-2.61.37 2.31.36-2.67.37-2.63.36-2.68.37-2.84.37-2.9.36-2.88.37-3.07.37-3.13.36 35.21.37-2.05.36-2.16.37-2.2.37 3.64.36-1.65.37 6.56.37-1.28.36-1.27.37-1.35.37-1.47.36-1.51.37-1.59.36-1.68.37-1.67.37-1.63.36-.42.37-1.55.37-1.62.36-1.63.37-1.76.36-1.78.37-1.8.37 2.49.36-1.52.37-1.62.37-1.47.36-1.71.37-1.76.36-1.81.37-1.81.37-1.92.36-1.83.37-1.93.37-2.06.36-2.05.37 9.58.36-1.24.37-1.36.37-.74.36-1.35.37-1.33.37-1.4.36-1.5.37-1.51.37 32.53.36-.83.37-.54.36-1.01.37-.89.37-1.05.36-1.04.37-1.02.37 2.04.36-.81.37-.77.36 20.14.37-.03.37-.04.36-.2.37-.2.37-.37.36-.26.37-.44.36 3.32h.37l.37-.12.36-.12.37-.2.37-.22.36-.26.37-.24.37-.32.36.08.37-.3.36-.38.37-.41.37-.48.36-.45.37-.54.37-.48.36-.56.37-.52.36-.66.37-.63.37-.66.36-.73.37-.8.37-.74.36-.77.37-.89.36-.8.37-.84.37-.92.36-.88.37-.93.37-1.03.36 3.97.37-.61.37-.63.36-.64.37-.64.36-.68.37-.77.37-.77.36-.78.37-.87.37-.89.36-.88.37-.96.36-.98.37-1.03.37-1.06.36-1.07.37-1.15.37-1.07.36-1.14.37.08.36-1.13.37-1.19.37-1.24.36-1.23.37-.76.37-1.28.36-1.28.37-1.32.37-1.35.36-1.35.37 6.32.36-.99.37-.97.37-1.01.36-1.02.37-1.06.37-1.06.36-1.09.37-1.13.36-1.19.37.83.37-1.06.36-1.13.37-1.08.37-1.17.36-1.18.37 30.15.36-.64.37-.71.37-.83.36-.72.37-.77.37-.82.36-.8.37-.87.36-.95.37 3.3.37-.57.36-.6.37-.66.37-.66.36-.69.37-.68.37-.67.36-.65.37-.62.36-.72.37-.71.37-.73.36-.69.37-.77.37-.77.36-.74.37-.83.36-.77.37-.85.37-.85.36-.79.37-.88.37-.89.36-.87.37-.92.36 7.06.37-.5.37-.52.36-.52.37-.56.37-.52.36-.56.37-.59.37-.63.36-.57.37-.61.36-.62.37-.62.37-.67.36-.63.37.82.37-.59.36-.6.37-.6.36-.64.37-.66.37-.64.36-.63.37-.63.37-.68.36-.62.37-.62.36-.68.37-.71.37-.72.36-.74.37-.7.37-.73.36-.74.37-.74.37-.77.36-.75.37-.73.36-.8.37-.77.37-.81.36-.79.37-.79.37-.76.36-.82.37-.79.36 19.32.37-.46.37-.47.36-.5.37-.51.37-.48.36 33.93.37-.17.36-.15.37-.23.37-.16.36-.24.37-.22.37-.24.36-.23.37-.27.37-.24.36-.29.37 1.3.36-.06.37-.05.37-.06.36-.04.37-.07.37-.09.36-.09.37-.15.36-.06.37-.15.37-.19.36-.15.37-.17.37-.19.36-.19.37-.2.36-.23.37-.24.37-.2.36-.29.37.98.37-.23.36-.22.37-.26.37-.21.36-.26.37-.27.36-.24.37-.3.37-.24.36-.28.37-.27.37-.3.36-.32.37-.33.36-.32.37-.34.37-.34.36-.37.37-.38.37-.39.36-.39.37 1.21.36-.27.37-.26.37-.3.36-.29.37-.32.37-.29.36-.32.37-.33.36-.33.37-.34.37-.36.36-.34.37-.39.37-.37.36-.39.37-.36.37-.41.36-.41.37-.4.36-.4.37-.4.37-.42.36-.44.37-.44.37-.44.36-.44.37-.47.36-.46.37-.48.37-.48.36-.49.37-.39.37-.5.36-.5.37-.51.36-.52.37-.51.37-.5.36-.53.37-.02.37-.47.36-.54.37-.57.37 4.05.36-.33.37-.35.36-.35.37-.39.37-.34.36-.4.37-.38.37-.37.36-.37.37-.38.36-.36.37-.38.37-.39.36-.42.37-.4.37-.42.36-.42.37.97.36-.35.37-.35.37-.36.36-.36.37-.36.37-.35.36-.37.37-.38.37-.28.36-.36.37-.33.36-.35.37-.36.37-.37.36-.36.37-.37.37-.36.36-.4.37-.37.36-.42.37-.4.37-.39.36-.39.37-.37.37-.37.36-.37.37 1.19.36-.34.37-.31.37-.31.36-.31.37-.29.37.02.36-.31.37-.32.37-.31.36-.32.37-.32.36-.3.37-.3.37-.33.36-.31.37-.3.37-.34.36-.32.37-.31.36-.32.37-.32.37-.31.36-.34.37-.37.37-.33.36-.36.37-.36.36-.38.37-.38.37-.18.36-.35.37-.33.37 13.4.36-.41.37-.4.37-.41.36-.43.37-.39.36-.42.37-.44.37-.42.36-.43.37-.44.37-.46.36-.44.37-.46.36-.47.37-.46.37-.49.36-.47.37-.47.37-.47.36-.49.37-.49.36-.5.37-.48.37-.5.36-.51.37-.54.37-.52.36-.26.37-.52.36-.5.37-.49.37-.53.36-.51.37-.52.37-.55.36-.51.37-.56.37-.56.36-.55.37-.54.36-.57.37-.56.37-.54.36-.57.37-.57.37-.57.36-.58.37-.56.36-.3.37-.58.37-.57.36 13.96.37-.24.37-.25.36-.24.37-.25.36-.23.37-.24.37-.28.36-.26.37-.3.37-.27.36-.27.37-.29.37-.25.36-.3.37-.29.36-.28.37-.29.37-.29.36-.3.37-.3.37-.31.36-.29.37-.31.36-.3.37-.31.37-.32.36-.32.37-.3.37-.32.36-.3.37-.31.36-.33.37-.34.37-.32.36-.32.37-.31.37-.33.36-.3.37-.35.37-.34.36-.34.37-.33.36-.34.37-.32.37-.33.36-.32.37-.35.37-.37.36-.37.37-.34.36-.37.37-.35.37-.37.36-.37.37-.38.37-.35.36-.38.37-.37.36-.38.37-.39.37-.38.36-.38.37-.39.37-.39.36-.39.37-.38.37-.4.36-.38.37-.39.36-.39.37-.4.37-.43.36-.41.37-.41.37-.39.36-.41.37-.4.36-.42.37-.44.37-.42.36-.4.37-.43.37-.43.36 14.86.37-.23.36-.25.37-.22.37-.26.36-.28.37.26.37-.23.36-.25.37-.26.36-.25.37-.25.37-.26.36-.26.37-.26.37-.25.36-.25.37-.26.37-.29.36-.26.37-.27.36-.27.37-.28.37-.27.36-.3.37-.29.37-.27.36-.29.37-.28.36-.27.37-.29.37-.27.36-.28.37-.3.37-.28.36-.3.37-.29.36 47.06.37.03.37.01.36.01.37.02.37.01.36-.01.37.39h.37l.36.01.37.01.36.01.37.02.37.01h.36l.37-.01h.37l.36.01.37-.02.36-.02.37-.01.37-.01.36.02.37.01.37-.03.36-.03.37.01.36-.02.37-.03.37-.01.36-.03.37-.03.37-.03.36-.04.37-.03.37-.05.36-.05.37-.02.36-.03.37-.06.37-.06.36-.05.37-.07.37-.07.36-.07.37-.08.36-.07.37-.07.37-.07.36-.08.37-.1.37-.06.36-.1.37-.08.36-.1.37.04.37-.1.36-.1.37-.09.37-.1.36-.11.37-.1.37-.1.36-.11.37-.08.36-.1.37-.12.37-.11.36-.13.37-.13.37-.11.36-.13.37-.13.36-.13.37-.11.37-.15.36-.15.37-.16.37-.15.36.07.37-.17.36-.16.37-.15.37-.17.36-.17.37-.16.37-.16.36-.14.37-.16.37-.19.36-.16.37-.17.36-.16.37-.18.37-.19.36-.19.37-.2.37-.2.36-.18.37-.22.36-.2.37-.21.37-.21.36-.21.37-.2.37-.21.36-.22.37-.19.36-.22.37-.24.37-.24.36-.23.37-.23.37-.24.36-.22.37-.23.36-.25.37-.24.37-.25.36-.24.37-.25.37-.26.36-.26.37-.25.37-.28.36-.25.37-.27.36-.26.37-.25.37-.29.36 2.48.37-.17.37-.19.36-.18.37-.17.36-.18.37-.16.37-.17.36-.19.37-.2.37-.17.36-.18.37-.17.36-.19.37-.18.37-.19.36-.2.37-.19.37-.2.36-.22.37-.19.37-.2.36-.21.37-.22.36-.21.37-.22.37-.22.36-.21.37-.23.37-.19.36-.21.37-.23.36-.24.37-.23.37-.22.36-.24.37-.23.37-.24.36-.24.37-.26.36-.26.37-.25.37-.26.36-.24.37-.26.37-.25.36-.27.37-.26.37-.25.36-.26.37-.26.36-.27.37-.27.37-.27.36-.26.37-.29.37-.29.36-.27.37-.26.36-.27.37-.28.37-.28.36-.28.37-.29.37-.28.36-.29.37-.29.36-.28.37-.28.37 8.39.36-.14.37-.14.37-.13.36-.13.37-.13.37-.16.36-.15.37-.15.36-.16.37-.15.37-.14.36-.16.37-.17.37-.16.36-.16.37-.17.36-.18.37-.17.37-.18.36-.17.37-.17.37-.17.36-.17.37-.19.36-.17.37-.18.37-.19.36-.17.37-.18.37-.18.36-.17.37-.2.36-.19.37-.18.37-.2.36-.2.37-.18.37-.2.36-.2.37-.2.37-.17.36-.2.37-.21.36-.19.37-.21.37-.18.36-.22.37-.22.37-.21.36-.2.37-.22.36-.22.37-.23.37-.21.36-.22.37-.23.37-.22.36-.2.37-.21.36-.21.37-.23.37-.22.36-.22.37-.22.37-.23.36-.23.37-.21.37-.22.36-.24.37-.22.36-.24.37-.24.37-.24.36-.24.37-.24.37-.25.36-.24.37-.25.36-.24.37 2.06.37-.22.36-.21.37-.24.37-.23.36.75.37-.23.36-.25.37-.21.37-.24.36-.23.37-.23"/><use xlink:href="#g" color="#29C3F6" transform="matrix(3.75 0 0 3.75 55.47 167.91)"/><use xlink:href="#g" color="#29C3F6" transform="matrix(3.75 0 0 3.75 87.75 58.14)"/></g><text fill="#000" stroke="none" stroke-linecap="round" stroke-linejoin="round" color="#000" font-family="KaTeX_Main" font-size="10" transform="translate(246 42.64)"><tspan>WBSTBottomUp</tspan></text><g fill="none" stroke="currentColor" stroke-linecap="round" stroke-linejoin="round" color="#000"><path stroke="#D336C8" d="M203.5 39.39H239M28 134.77l.37-6.04.36 9.44.37 4.01.37-3.95.36 7.81.37-2.35.36 1.06.37.27.37-2.27.36 55.2.37-1.31.37-1.76.36-1.92.37-2.26.36-2.49.37 12.63.37-1.29.36-1.42.37-1.69.37-1.95.36-2.07.37-2.46.36-2.59.37-2.62.37-2.97.36-3.18.37 1.41.37-2.89.36 1.08.37-2.04.37 5.99.36-.83.37-.55.36-1.1.37-1.28.37-1.46.36-1.52.37-1.49.37 17.6.36-1.05.37-1.08.36-1.27.37-1.55.37-1.46.36-1.55.37-1.8.37-1.95.36 2.75.37-1.55.36-1.67.37-1.7.37-1.93.36-1.99.37 1.7.37 9.6.36-1.24.37-1.29.37-1.47.36-1.5.37-1.14.36-1.63.37 1.23.37-1.31.36-1.47.37-1.53.37-1.75.36-1.88.37-1.91.36-1.99.37 1.27.37-1.81.36-1.87.37-1.96.37-2.06.36-2.06.37-2.23.36-2.35.37-2.41.37-2.39.36-2.35.37-2.57.37-2.76.36-2.71.37 13.68.36 10.87.37-1.11.37-1.14.36.59.37-1.04.37-1.06.36-1.18.37-1.26.37 1.05.36-.88.37-.97.36-.97.37 1.12.37-.79.36-.74.37-.69.37-.76.36-.86.37-.75.36-.84.37-.83.37-.89.36-.9.37-.9.37-.82.36-1.05.37-1.15.36-1.11.37-1.2.37-1.22.36-1.18.37-1.29.37-1.3.36-1.35.37-1.33.37 1.24.36-1.19.37-1.24.36-1.26.37-1.3.37-1.37.36 45.85.37-.85.37-.93.36-.9.37-.88.36-.95.37-.45.37-1.01.36-1.02.37-1.09.37-1.12.36-1.08.37-1.19.36-1.17.37.95.37-1.2.36-1.16.37-1.23.37-1.19.36-1.3.37-1.23.37-1.33.36-1.04.37 6.19.36-.89.37-.87.37-.87.36-.91.37-.99.37-.98.36-.96.37-1.08.36-1.06.37-1.07.37-1.08.36-1.08.37-1.13.37-1.11.36-1.09.37 2.29.36-1.06.37-1.07.37-1.06.36-1.03.37-1.04.37-1.09.36-1.13.37 26.5.37-.63.36-.63.37-.72.36 2.13.37-.34.37-.35.36-.38.37-.37.37-.48.36-.41.37-.37.36-.47.37-.43.37-.47.36-.41.37-.49.37-.5.36-.5.37-.51.36-.52.37-.52.37-.57.36-.58.37-.64.37-.61.36-.56.37-.51.36 1.05.37-.57.37-.57.36-.61.37-.59.37-.66.36-.67.37-.67.37-.58.36-.65.37-.68.36-.73.37-.63.37-.7.36-.71.37-.77.37-.73.36-.7.37-.73.36-.72.37-.78.37-.75.36-.72.37-.8.37-.78.36-.74.37-.8.36-.82.37-.82.37-.84.36-.84.37-.87.37-.84.36-.89.37-.89.37-.94.36-.89.37-.94.36-.91.37-.91.37-.94.36-.95.37-.07.37-.97.36-.98.37-.49.36-1 .37-.99.37-1.01.36-1 .37-1.03.37 19.42.36-.58.37-.63.36-.72.37-.66.37-.68.36-.7.37-.71.37-.73.36-.73.37-.68.37-.77.36-.71.37-.77.36-.85.37-.77.37-.8.36-.78.37-.84.37-.83.36 1.25.37-.77.36-.76.37-.79.37-.78.36-.77.37-.81.37-.79.36-.78.37-.84.36-.84.37-.87.37-.83.36-.88.37-.9.37-.88.36-.89.37-.91.37-.95.36 1.9.37-.75.36 7.63.37-.44.37-.44.36-.47.37-.45.37-.48.36-.46.37-.5.36-.5.37-.54.37-.52.36-.45.37-.52.37-.53.36-.52.37-.54.36-.56.37 43.97.37-.23.36-.31.37-.29.37-.31.36-.33.37-.34.37-.34.36-.34.37-.34.36-.34.37-.36.37-.4.36-.4.37-.39.37-.4.36-.39.37-.4.36-.41.37-.47.37-.45.36-.47.37-.45.37-.48.36-.49.37-.51.36-.51.37-.51.37.17.36-.44.37-.54.37-.56.36 3.36.37-.46.36-.44.37-.48.37-.47.36-.48.37-.39.37 2.86.36-.39.37-.38.37-.43.36-.39.37-.42.36-.39.37-.42.37-.43.36-.44.37-.46.37-.44.36-.45.37-.44.36-.46.37-.5.37-.5.36-.49.37-.52.37-.51.36-.49.37-.52.36-.53.37-.51.37-.5.36-.5.37-.56.37-.55.36-.56.37-.6.37-.49.36-.56.37-.56.36-.58.37-.59.37-.56.36-.61.37-.6.37-.62.36-.55.37-.61.36-.61.37-.59.37-.6.36-.63.37-.61.37-.63.36-.63.37-.66.36-.65.37-.69.37-.66.36-.67.37-.69.37-.69.36-.67.37-.68.37-.7.36-.67.37-.71.36-.69.37 2.08.37-.56.36-.57.37-.6.37.71.36-.55.37-.58.36-.57.37-.6.37-.55.36-.55.37-.58.37-.57.36-.11.37-.58.36-.58.37-.61.37-.58.36-.62.37-.58.37-.62.36-.62.37-.6.37 5.51.36-.61.37-.58.36-.63.37-.59.37-.6.36-.62.37-.62.37-.64.36 31.41.37-.44.36-.43.37-.43.37-.44.36-.42.37-.5.37-.46.36-.48.37-.47.36-.48.37-.46.37-.48.36-.49.37-.47.37 4.76.36-.31.37-.31.37-.36.36-.32.37-.33.36-.32.37.32.37-.32.36-.33.37-.35.37-.37.36-.34.37-.34.36-.38.37-.3.37-.39.36-.38.37-.37.37-.36.36-.38.37-.41.36-.38.37-.39.37-.36.36-.39.37-.38.37-.4.36-.38.37-.42.36-.41.37-.42.37-.42.36-.42.37-.42.37-.42.36-.45.37-.43.37-.42.36-.44.37-.46.36-.45.37-.47.37-.44.36-.45.37-.48.37-.46.36-.48.37-.45.36-.45.37-.44.37-.48.36-.35.37-.39.37-.38.36-.38.37-.36.36-.38.37-.39.37-.41.36-.4.37 3.45.37-.34.36-.33.37-.35.37-.35.36-.34.37-.39.36-.34.37-.37.37-.31.36-.35.37-.34.37-.34.36-.35.37-.38.36-.36.37-.37.37-.34.36-.34.37-.37.37-.36.36-.34.37-.39.36-.37.37-.37.37-.38.36-.33.37-.36.37-.37.36-.39.37-.39.37-.35.36-.37.37-.37.36-.37.37-.39.37-.35.36-.38.37-.36.37-.39.36-.4.37-.37.36-.38.37-.42.37-.39.36-.39.37-.39.37-.37.36-.4.37-.39.36-.37.37-.4.37-.43.36-.42.37-.4.37-.39.36-.37.37-.39.37-.42.36-.42.37-.4.36-.41.37-.42.37-.44.36-.4.37-.44.37 40.86.36-.23.37-.27.36-.29.37-.28.37.88.36-.27.37-.27.37-.26.36-.29.37-.29.36-.27.37-.29.37-.28.36 15.87.37-.12.37-.12.36-.15.37-.12.36-.15.37-.12.37-.15.36-.15.37-.18.37-.12.36-.16.37-.17.37-.13.36-.17.37-.16.36-.17.37-.2.37-.18.36-.18.37-.17.37-.19.36-.19.37-.18.36-.18.37-.21.37-.2.36 6.32.37-.08.37-.11.36-.11.37-.1.36-.1.37-.12.37-.1.36-.11.37-.1.37-.1.36-.11.37-.12.37-.13.36-.12.37-.13.36-.12.37-.13.37-.12.36-.13.37-.13.37-.12.36-.12.37-.16.36-.13.37-.13.37-.15.36-.16.37-.15.37-.13.36-.14.37-.13.36-.14.37-.15.37-.17.36-.14.37-.17.37-.18.36-.16.37-.18.37-.15.36-.16.37-.17.36-.17.37-.18.37-.18.36-.17.37-.18.37-.18.36-.19.37-.18.36-.2.37-.19.37-.18.36-.18.37-.21.37.64.36-.21.37-.18.36-.19.37-.19.37-.22.36-.2.37-.18.37-.23.36-.21.37-.21.37-.2.36-.2.37-.21.36-.22.37-.22.37-.22.36-.21.37-.25.37-.21.36-.23.37-.24.36-.22.37-.24.37-.24.36-.24.37-.24.37-.25.36-.24.37-.23.36-.23.37-.22.37-.25.36-.23.37-.25.37-.26.36-.27.37-.24.37-.25.36-.21.37-.26.36-.25.37-.28.37-.26.36-.28.37-.29.37-.27.36-.26.37-.28.36-.27.37-.28.37-.28.36-.3.37-.29.37-.29.36-.28.37-.28.36-.29.37-.3.37-.3.36-.29.37-.3.37-.32.36-.3.37-.3.36-.29.37-.3.37-.33.36-.31.37-.32.37-.32.36-.31.37-.31.37-.32.36-.31.37-.33.36-.32.37-.33.37-.32.36-.33.37-.34.37-.33.36-.34.37-.34.36-.34.37-.31.37-.34.36-.33.37-.33.37-.33.36-.35.37-.33.36-.33.37-.36.37-.34.36-.35.37-.35.37-.36.36 17.29.37-.2.37-.22.36-.2.37-.22.36-.2.37-.2.37-.22.36-.22.37-.22.37-.21.36-.21.37-.21.36-.23.37-.22.37-.23.36-.23.37-.22.37-.23.36-.23.37-.22.36-.24.37-.24.37-.24.36-.24.37-.24.37-.19.36-.25.37-.24.37-.25.36-.25.37-.25.36-.25.37-.25.37-.26.36-.25.37-.27.37-.26.36-.24.37-.27.36-.25.37-.25.37-.28.36-.28.37-.26.37-.27.36-.25.37-.27.36-.27.37-.26.37-.29.36-.27.37-.27.37-.28.36-.27.37-.28.37-.3.36-.26.37-.29.36-.29.37-.3.37-.28.36-.29.37-.29.37-.29.36-.28.37-.3.36-.3.37-.3.37-.29.36-.29.37-.29.37-.31.36-.31.37-.3.36-.3.37-.3.37-.32.36-.32.37-.32.37-.31.36-.29.37-.32.36-.31.37-.3.37-.32.36-.32.37-.3.37-.32.36-.33.37-.32.37-.31.36-.34.37-.33.36-.33.37-.3.37-.34.36-.33.37-.34.37-.33.36-.32.37-.33.36-.34.37-.35.37-.34.36-.34.37-.33.37-.33.36-.33.37-.34.36-.33.37 7.36.37-.22.36-.23.37-.24.37-.24.36-.23.37-.22.37-.25.36-.24.37-.24.36-.23.37-.25.37-.23.36-.24.37-.25.37-.25.36-.24.37-.25.36-.24.37-.24.37-.25.36-.23.37-.25.37-.25.36-.25.37-.25.36-.26.37-.26.37-.27.36-.24.37-.26"/><use xlink:href="#b" color="#D336C8" transform="matrix(3.75 0 0 3.75 111.88 135.85)"/><use xlink:href="#b" color="#D336C8" transform="matrix(3.75 0 0 3.75 221.25 39.39)"/></g><text fill="#000" stroke="none" stroke-linecap="round" stroke-linejoin="round" color="#000" font-family="KaTeX_Main" font-size="10" transform="translate(246 61.39)"><tspan>WBSTTopDown</tspan></text><g fill="none" stroke="currentColor" stroke-linecap="round" stroke-linejoin="round" color="#000"><path stroke="violet" stroke-dasharray="4.5,2.0,0.5,2.0,0.5,2.0" d="M203.5 58.14H239M28 125.63l.37-5.9.36 9.57.37 4.13.37-3.84.36 7.89.37-2.27.36 1.17.37.35.37-2.15.36 55.36.37-1.29.37-1.66.36-1.81.37-2.15.36-2.39.37 12.72.37-1.16.36-1.28.37-1.6.37-1.88.36-1.99.37-2.33.36-2.46.37-2.55.37-2.93.36-3.12.37 1.46.37-2.79.36 1.17.37-2.1.37 6.03.36-.75.37-.53.36-1.05.37-1.23.37-1.41.36-1.47.37-1.43.37 17.61.36-1.02.37-1.07.36-1.22.37-1.5.37-1.44.36-1.51.37-1.76.37-1.88.36 2.77.37-1.53.36-1.65.37-1.65.37-1.89.36-1.99.37 1.74.37 9.64.36-1.18.37-1.22.37-1.39.36-1.5.37-1.07.36-1.6.37 1.28.37-1.34.36-1.43.37-1.51.37-1.71.36-1.86.37-1.9.36-1.92.37 1.3.37-1.8.36-1.83.37-1.93.37-2.07.36-2.05.37-2.18.36-2.33.37-2.36.37-2.38.36-2.33.37-2.53.37-2.72.36-2.7.37 13.69.36 10.91.37-1.09.37-1.07.36.6.37-1 .37-1.03.36-1.16.37-1.23.37 1.08.36-.88.37-1 .36-.95.37 1.13.37-.79.36-.71.37-.68.37-.73.36-.83.37-.73.36-.81.37-.84.37-.86.36-.89.37-.87.37-.79.36-1.04.37-1.12.36-1.11.37-1.18.37-1.21.36-1.14.37-1.28.37-1.29.36-1.31.37-1.3.37 1.25.36-1.18.37-1.21.36-1.25.37-1.29.37-1.34.36 45.82.37-.83.37-.91.36-.88.37-.88.36-.92.37-.44.37-1 .36-.98.37-1.06.37-1.08.36-1.06.37-1.17.36-1.15.37.96.37-1.16.36-1.14.37-1.24.37-1.16.36-1.28.37-1.21.37-1.35.36-1.02.37 6.18.36-.87.37-.87.37-.85.36-.88.37-.97.37-.95.36-.94.37-1.07.36-1.06.37-1.06.37-1.01.36-1.06.37-1.1.37-1.1.36-1.08.37 2.3.36-1.05.37-1.07.37-1.05.36-1.02.37-1.02.37-1.09.36-1.12.37 26.51.37-.59.36-.63.37-.71.36 2.12.37-.32.37-.35.36-.35.37-.36.37-.48.36-.42.37-.36.36-.48.37-.43.37-.46.36-.41.37-.48.37-.49.36-.5.37-.51.36-.5.37-.53.37-.57.36-.59.37-.61.37-.58.36-.55.37-.53.36 1.06.37-.54.37-.57.36-.59.37-.59.37-.64.36-.66.37-.67.37-.57.36-.63.37-.66.36-.74.37-.63.37-.68.36-.7.37-.76.37-.73.36-.69.37-.73.36-.73.37-.77.37-.75.36-.73.37-.78.37-.78.36-.74.37-.79.36-.81.37-.83.37-.84.36-.83.37-.86.37-.84.36-.92.37-.87.37-.96.36-.9.37-.94.36-.88.37-.91.37-.93.36-.95.37-.07.37-.95.36-.98.37-.5.36-.99.37-1 .37-1 .36-1 .37-1.04.37 19.42.36-.6.37-.62.36-.71.37-.67.37-.67.36-.69.37-.71.37-.74.36-.71.37-.69.37-.77.36-.7.37-.78.36-.85.37-.78.37-.8.36-.79.37-.83.37-.84.36 1.26.37-.77.36-.75.37-.8.37-.78.36-.76.37-.84.37-.8.36-.79.37-.84.36-.86.37-.91.37-.85.36-.89.37-.9.37-.89.36-.91.37-.92.37-.96.36 1.88.37-.75.36 7.61.37-.44.37-.46.36-.49.37-.48.37-.49.36-.48.37-.52.36-.52.37-.55.37-.53.36-.48.37-.54.37-.56.36-.54.37-.55.36-.57.37 43.92.37-.25.36-.34.37-.33.37-.34.36-.36.37-.37.37-.38.36-.37.37-.39.36-.37.37-.4.37-.44.36-.45.37-.44.37-.46.36-.43.37-.44.36-.48.37-.52.37-.51.36-.55.37-.52.37-.56.36-.54.37-.58.36-.58.37-.6.37.08.36-.53.37-.65.37-.64.36 3.28.37 1.62.36-.46.37-.49.37-.49.36-.52.37-.53.37 2.83.36-.42.37-.41.37-.47.36-.43.37-.45.36-.43.37-.45.37-.48.36-.48.37-.52.37-.48.36-.49.37-.49.36-.5.37-.53.37-.55.36-.53.37-.58.37-.55.36-.56.37-.57.36-.59.37-.57.37 1.77.36-.48.37-.53.37-.54.36-.53.37-.58.37-.48.36-.54.37-.53.36-.56.37-.57.37-.55.36-.59.37-.57.37-.58.36-.51.37-.59.36-.56.37-.56.37-.56.36-.59.37-.59.37-.6.36-.62.37-.63.36-.62.37-.64.37-.63.36-.63.37-.66.37-.67.36-.63.37-.64.37-.68.36-.63.37-.66.36-.65.37-.65.37-.64.36-.41.37-.69.37.63.36-.64.37-.71.36-.66.37-.7.37-.64.36-.64.37-.66.37-.68.36-.21.37-.68.36-.69.37-.73.37-.7.36-.74.37-.69.37-.75.36-.74.37-.71.37 5.39.36-.73.37-.69.36-.75.37-.69.37-.71.36-.75.37-.75.37-.76.36 31.27.37-.57.36-.57.37-.55.37-.57.36-.56.37-.62.37-.61.36-.61.37-.61.36-.61.37-.6.37-.6.36-.62.37-.59.37 9.56.36-.37.37-.4.37-.43.36-.4.37-.41.36-.4.37.23.37-.39.36-.11.37-.41.37-.46.36-.4.37-.43.36-.47.37-.36.37 5.3.36-.34.37-.33.37-.36.36-.34.37-.38.36-.36.37-.36.37-.34.36-.35.37-.34.37-.37.36-.38.37-.4.36-.37.37-.4.37-.39.36-.42.37-.39.37-.39.36-.42.37-.4.37-.39.36-.42.37-.42.36-.43.37-.44.37-.41.36-.42.37-.45.37-.42.36-.45.37-.42.36-.41.37-.41.37-.44.36-.42.37-.46.37-.44.36-.45.37-.43.36-.45.37-.46.37-.47.36-.47.37-.47.37-.48.36-.47.37-.48.37-.48.36-.34.37-.51.36-.48.37-.49.37-.46.36-.49.37-.48.37-.48.36-.49.37-.52.36-.49.37-.5.37-.47.36-.48.37-.5.37-.51.36-.49.37-.53.36-.5.37-.51.37-.52.36-.48.37-.5.37-.52.36-.53.37-.54.37-.49.36-.54.37-.51.36-.53.37-.55.37-.51.36-.53.37-.54.37-.54.36-.55.37-.53.36-.53.37-.58.37-.54.36-.55.37-.55.37-.53.36-.55.37-.55.36-.55.37-.56.37-.59.36-.58.37-.57.37-.54.36-.55.37-.55.37-.6.36-.58.37-.57.36.01.37-.58.37-.6.36-.55.37-.61.37 40.71.36 3.81.37-.42.36-.43.37-.44.37.72.36-.43.37-.44.37-.43.36-.45.37-.45.36-.44.37-.45.37-.44.36 21.53.37-.28.37-.28.36-.3.37-.27.36-.29.37-.27.37-.31.36-.31.37-.34.37-.29.36-.32.37-.33.37-.3.36-.33.37-.31.36-.33.37-.35.37-.34.36-.34.37-.35.37-.36.36-.34.37-.35.36-.35.37-.37.37-.37.36 6.15.37-.25.37-.26.36-.27.37-.27.36-.27.37-.28.37-.28.36-.26.37-.28.37-.26.36-.29.37-.27.37-.3.36-.29.37-.29.36-.28.37-.3.37-.29.36-.3.37-.29.37-.29.36-.28.37-.32.36-.31.37-.29.37-.32.36-.32.37-.32.37-.29.36-.3.37-.3.36-.31.37-.31.37-.34.36-.31.37-.33.37-.34.36-.33.37-.36.37-.32.36-.33.37-.33.36-.33.37-.35.37-.34.36-.33.37-.34.37-.35.36-.34.37-.36.36-.36.37-.35.37-.34.36-.35.37 2.39.37.47.36-.36.37-.33.36-.36.37-.34.37-.38.36-.36.37-.34.37-.38.36-.37.37-.36.37-.36.36-.36.37-.36.36-.38.37-.38.37-.38.36-.38.37-.41.37-.37.36-.4.37-.38.36-.39.37-.41.37-.4.36-.4.37-.39.37-.41.36-.4.37-.39.36-.39.37-.39.37-.4.36-.39.37-.4.37-.42.36-.43.37-.39.37-.41.36-.38.37-.42.36-.42.37-.43.37-.42.36-.45.37-.44.37 18.58.36-.27.37-.27.36-.27.37-.28.37-.28.36-.29.37-.29.37-.29.36-.28.37-.27.36-.29.37-.3.37-.3.36-.28.37-.3.37-.31.36-.3.37-.31.36-.29.37-.3.37-.32.36-.31.37-.32.37-.32.36-.31.37 9.19.37-.2.36-.19.37-.2.36-.21.37-.2.37-.2.36-.21.37-.22.37-.21.36-.23.37-.22.36-.21.37-.21.37-.22.36-.21.37-.21.37-.22.36-.23.37-.21.36-.22.37-.23.37-.24.36-.22.37-.24.37-.23.36-.24.37-.25.37-.25.36-.23.37-.26.36-.24.37-.23.37-.25.36-.26.37-.25.37-.25.36-.25.37-.25.36-.26.37-.26.37-.27.36-.26.37-.26.37-.26.36-.27.37-.25.36-.27.37-.27.37-.28.36-.26.37-.28.37-.21.36-.29.37-.26.37-.29.36-.28.37-.28.36-.27.37-.29.37-.29.36-.29.37-.3.37-.29.36-.27.37-.3.36-.28.37-.28.37-.31.36-.3.37-.3.37-.29.36-.29.37-.3.36-.29.37-.29.37-.31.36-.3.37-.3.37-.31.36-.3.37-.29.37-.33.36-.3.37-.31.36-.31.37-.33.37-.31.36-.31.37-.32.37-.31.36-.31.37-.32.36-.33.37-.32.37-.33.36-.31.37-.31.37-.33.36 24.88.37-.2.36-.19.37-.18.37-.21.36-.21.37-.21.37-.2.36-.19.37-.2.36-.19.37-.2.37-.2.36-.21.37-.2.37-.21.36-.22.37-.22.37-.2.36-.23.37-.23.36-.21.37-.21.37-.22.36-.22.37-.24.37-.22.36-.22.37-.21.36-.24.37-.24.37-.23.36-.23.37-.23.37-.23.36-.22.37-.23.36-.23.37 7.46.37-.11.36-.14.37-.12.37-.14.36-.13.37-.11.37-.14.36-.13.37-.13.36-.13.37-.14.37-.13.36-.14.37-.14.37-.15.36-.13.37-.15.36-.14.37-.14.37-.14.36-.13.37-.14.37-.15.36-.15.37-.15.36-.15.37-.16.37-.16.36-.14.37-.16"/><use xlink:href="#h" color="violet" transform="matrix(3.75 0 0 3.75 168.29 126.49)"/><use xlink:href="#h" color="violet" transform="matrix(3.75 0 0 3.75 221.25 58.14)"/></g><path fill="none" stroke="none" stroke-linecap="round" stroke-linejoin="round" stroke-width="0" d="M28 75.01V255M364.99 75.01H28" color="#000"/><text fill="#000" stroke="none" stroke-linecap="round" stroke-linejoin="round" stroke-width="0" color="#000" font-family="KaTeX_Main" font-size="10" text-anchor="middle" transform="translate(196.49 18.26)"><tspan>Insert - Skewed</tspan></text></svg>