<svg xmlns="http://www.w3.org/2000/svg" xmlns:xlink="http://www.w3.org/1999/xlink" viewBox="0 0 400 200"><path fill="none" d="M0 0h400v200H0z"/><defs><path id="a" stroke="currentColor" stroke-width=".222" d="M-1 0h2M0-1v2"/><path id="b" stroke="currentColor" stroke-width=".222" d="m-1-1 2 2m0-2-2 2"/><path id="d" stroke="currentColor" stroke-width=".222" d="M-1 0h2M0-1v2m-1-2 2 2m-2 0 2-2"/><path id="c" stroke="currentColor" stroke-width=".222" d="M-1-1h2v2h-2z"/></defs><g fill="none" stroke-linecap="round" stroke-linejoin="round" stroke-width="0" color="#000"><path d="M63.06 182v-9m0-100.99v9"/><text fill="#000" font-family="Arial" font-size="8" text-anchor="middle" transform="translate(63.06 193.6)"><tspan> 1</tspan></text></g><g fill="none" stroke-linecap="round" stroke-linejoin="round" stroke-width="0" color="#000"><path d="M95.83 182v-9m0-100.99v9"/><text fill="#000" font-family="Arial" font-size="8" text-anchor="middle" transform="translate(95.83 193.6)"><tspan> 2</tspan></text></g><g fill="none" stroke-linecap="round" stroke-linejoin="round" stroke-width="0" color="#000"><path d="M128.61 182v-9m0-100.99v9"/><text fill="#000" font-family="Arial" font-size="8" text-anchor="middle" transform="translate(128.61 193.6)"><tspan> 3</tspan></text></g><g fill="none" stroke-linecap="round" stroke-linejoin="round" stroke-width="0" color="#000"><path d="M161.39 182v-9m0-100.99v9"/><text fill="#000" font-family="Arial" font-size="8" text-anchor="middle" transform="translate(161.39 193.6)"><tspan> 4</tspan></text></g><g fill="none" stroke-linecap="round" stroke-linejoin="round" stroke-width="0" color="#000"><path d="M194.16 182v-9m0-100.99v9"/><text fill="#000" font-family="Arial" font-size="8" text-anchor="middle" transform="translate(194.16 193.6)"><tspan> 5</tspan></text></g><g fill="none" stroke-linecap="round" stroke-linejoin="round" stroke-width="0" color="#000"><path d="M226.94 182v-9m0-100.99v9"/><text fill="#000" font-family="Arial" font-size="8" text-anchor="middle" transform="translate(226.94 193.6)"><tspan> 6</tspan></text></g><g fill="none" stroke-linecap="round" stroke-linejoin="round" stroke-width="0" color="#000"><path d="M259.71 182v-9m0-100.99v9"/><text fill="#000" font-family="Arial" font-size="8" text-anchor="middle" transform="translate(259.71 193.6)"><tspan> 7</tspan></text></g><g fill="none" stroke-linecap="round" stroke-linejoin="round" stroke-width="0" color="#000"><path d="M292.49 182v-9m0-100.99v9"/><text fill="#000" font-family="Arial" font-size="8" text-anchor="middle" transform="translate(292.49 193.6)"><tspan> 8</tspan></text></g><g fill="none" stroke-linecap="round" stroke-linejoin="round" stroke-width="0" color="#000"><path d="M325.26 182v-9m0-100.99v9"/><text fill="#000" font-family="Arial" font-size="8" text-anchor="middle" transform="translate(325.26 193.6)"><tspan> 9</tspan></text></g><g fill="none" stroke-linecap="round" stroke-linejoin="round" stroke-width="0" color="#000"><path d="M358.04 182v-9m0-100.99v9"/><text fill="#000" font-family="Arial" font-size="8" text-anchor="middle" transform="translate(358.04 193.6)"><tspan> 10</tspan></text></g><g fill="none" stroke-linecap="round" stroke-linejoin="round" stroke-width="0" color="#000"><path d="M358.04 182h-9"/><text fill="#000" font-family="Arial" font-size="8" transform="translate(366.43 184.6)"><tspan>1.00</tspan></text></g><g fill="none" stroke-linecap="round" stroke-linejoin="round" stroke-width="0" color="#000"><path d="M358.04 169.78h-9"/><text fill="#000" font-family="Arial" font-size="8" transform="translate(366.43 172.38)"><tspan>1.05</tspan></text></g><g fill="none" stroke-linecap="round" stroke-linejoin="round" stroke-width="0" color="#000"><path d="M358.04 157.56h-9"/><text fill="#000" font-family="Arial" font-size="8" transform="translate(366.43 160.16)"><tspan>1.10</tspan></text></g><g fill="none" stroke-linecap="round" stroke-linejoin="round" stroke-width="0" color="#000"><path d="M358.04 145.34h-9"/><text fill="#000" font-family="Arial" font-size="8" transform="translate(366.43 147.94)"><tspan>1.15</tspan></text></g><g fill="none" stroke-linecap="round" stroke-linejoin="round" stroke-width="0" color="#000"><path d="M358.04 133.12h-9"/><text fill="#000" font-family="Arial" font-size="8" transform="translate(366.43 135.72)"><tspan>1.20</tspan></text></g><g fill="none" stroke-linecap="round" stroke-linejoin="round" stroke-width="0" color="#000"><path d="M358.04 120.89h-9"/><text fill="#000" font-family="Arial" font-size="8" transform="translate(366.43 123.49)"><tspan>1.25</tspan></text></g><g fill="none" stroke-linecap="round" stroke-linejoin="round" stroke-width="0" color="#000"><path d="M358.04 108.67h-9"/><text fill="#000" font-family="Arial" font-size="8" transform="translate(366.43 111.27)"><tspan>1.30</tspan></text></g><g fill="none" stroke-linecap="round" stroke-linejoin="round" stroke-width="0" color="#000"><path d="M358.04 96.45h-9"/><text fill="#000" font-family="Arial" font-size="8" transform="translate(366.43 99.05)"><tspan>1.35</tspan></text></g><g fill="none" stroke-linecap="round" stroke-linejoin="round" stroke-width="0" color="#000"><path d="M358.04 84.23h-9"/><text fill="#000" font-family="Arial" font-size="8" transform="translate(366.43 86.83)"><tspan>1.40</tspan></text></g><g fill="none" stroke-linecap="round" stroke-linejoin="round" stroke-width="0" color="#000"><path d="M358.04 72.01h-9"/><text fill="#000" font-family="Arial" font-size="8" transform="translate(366.43 74.61)"><tspan>1.45</tspan></text></g><path fill="none" d="M33.56 72.01V182M358.04 72.01H33.56" color="#000"/><text stroke-linecap="round" stroke-linejoin="round" stroke-width="0" color="#000" font-family="Arial" font-size="8" text-anchor="middle" transform="rotate(-90 69.74 57.27)"><tspan font-weight="bold">Allocations </tspan><tspan> / log</tspan><tspan dy="2.4" font-size="6.4">2</tspan><tspan dy="-2.4">Size</tspan></text><text stroke-linecap="round" stroke-linejoin="round" color="#000" font-family="Arial" font-size="8" transform="translate(111.8 30.11)"><tspan>AVLBottomUp</tspan></text><g fill="none" stroke="currentColor" stroke-linecap="round" stroke-linejoin="round" color="#000"><path stroke="#000" d="M74.8 27.51h31.4M33.56 149.37l.33 5 .33.12.32-.06.33-1.32.33-1.44.33 2.15.32-.78.33-1.83.33-1.99.33 1.86.33-.54.32.4.33.48.33.46.33-.2.32 2.22.33-.55.33-.73.33-.31.33.94.32-.29.33 2.67.33-2.19.33.99.32-.17.33-.96.33.26.33.53.32 1.34.33-.84.33.36.33.93.33-1.41.32.89.33-1.81.33.72.33.13.32.5.33-.08.33.9.33.77.33-.51.32-.61.33 1.06.33.44.33-.62.32-1.05.33.46.33 3.13.33-1.12.33-.81.32-.42.33-.26.33.08.33 1.82.32-3.08.33-2.4.33-.41.33.38.33 1.13.32-1.13.33.75.33-.92.33-.48.32 1.17.33-.93.33-.01.33 1.18h.33l.32-.64.33 2.23.33.46.33-.56.32-.23.33.7.33.5.33.49.33.29.32-.43.33-.73.33.83.33-.5.32-.49.33-.27.33.43.33 2.6.32-.74.33.03.33-.39.33.31.33 1.31.32.58.33-.49.33-1.18.33.53.32-.63.33 1.37.33.05.33.37.33.3.32-.61.33.1.33-1.05.33 1.15.32-.33.33-.39.33.36.33-.15.33-.7.32-.53.33.51.33-.66.33 1.86.32 1.9.33-1.24.33.2.33-.52.33-1.58.32.98.33-.34.33-.22.33-2.73.32-.5.33.63.33-.5.33-1.06.33.71.32-.1.33.33.33 1.37.33.69.32-.97.33-.79.33.66.33-.13.33-1.23.32-.5.33.58.33 1.6.33-.96.32-.02.33-.54.33.11.33-.09.32.05.33 1.16.33.3.33-.47.33-.07.32-.08.33.72.33-.98.33.79.32.08.33 2.92.33.13.33-.01.33-.79.32.37.33-.3.33.16.33-.87.32.13.33.34.33-.02.33.22.33-.06.32-.49.33-.02.33-.1.33-.32.32-.13.33.75.33-.71.33-.23.33 1.43.32 1.75.33.12.33-1.24.33.22.32.09.33-.47.33.33.33-.02.33-.65.32-.8.33.25.33 1.18.33-.21.32-.02.33.82.33-.22.33-.46.32-.25.33-.39.33-.83.33 1.43.33.35.32.51.33 1.28.33.96.33-.43.32-.56.33.58.33-.07.33-.81.33-.1.32.72.33-.8.33-.28.33.58.32-.53.33-.64.33-.04.33-.27.33-1.05.32.03.33 1.1.33.29.33-.55.32-.1.33-.26.33-.86.33-.45.33.57h.32l.33-.83.33-.21.33.96.32-.96.33-.45.33.43.33-.46.33-.33.32.08.33.51.33-.97.33-.04.32.58.33.06.33-.38.33-.61.33.34.32-.83.33 1.46.33.77.33 1.1.32.44.33.02.33-.87.33-.71.32 1.58.33-1.53.33-.48.33.07.33-.56.32-.83.33-.37.33-.14.33-.17.32.6.33.31.33-.3.33-.89.33 2.02.32-.59.33.31.33.71.33.16.32-.27.33-1.25.33.29.33.28.33 1.09.32-.18.33-.16.33.14.33-.73.32.02.33 1.68.33 1.08.33-.88.33.34.32-.02.33-.52.33-.2.33-.04.32-.59.33-.54.33.02.33-.15.33-.11.32.92.33.03.33-.88.33-.05.32-.13.33 1.05.33-.12.33-.54.33-.12.32.55.33-.51.33-.57.33.53.32-.07.33-.65.33-.47.33-.36.32.32.33-.51.33 2.03.33.44.33.62.32-.46.33-.75.33.21.33-.84.32.27.33.19.33.1.33-.11.33-.32.32.25.33-.42.33-.63.33 1.57.32.41.33-.7.33 1.02.33-.23.33-.28.32-.65.33.22.33.08.33.32.32.1.33-.4.33-.36.33.24.33.01.32-.63.33.33.33-.14.33-.33.32-.22.33.86.33-.26.33.29.33-.45.32-.41.33.23.33 1.15.33.45.32.23.33-.36.33.02.33-.05.32.22.33-1.04.33.8.33.19.33-.62.32-.21.33.52.33-.19.33-.73.32.56.33-.61.33.55.33-.33.33-.21.32-.32.33-.54.33 1.01.33.77.32.68.33.19.33-.45.33-.46.33-.21.32.45.33-.35.33.13.33.04.32-.09.33-.71.33.3.33.44.33.37.32-.34.33.2.33-.46.33-.6.32-.18.33.88.33-.53.33-.08.33.07.32.12.33-.75.33-.32.33 1.26.32-.6.33.16.33.1.33.86.33.07h.32l.33.59.33-.26.33-.16.32.22.33-.7.33-.25.33-.11.32.68.33-.41.33 1.35.33.3.33-.88.32-.35.33.39.33.18.33.15.32.02.33-.38.33-.38.33-.06.33-.08.32-.47.33-.31.33.08.33-.71.32-.18.33-.04.33-.25.33.33.33.15.32.02.33-.75.33-.31.33-.01.32.07.33.38.33.41.33 1.33.33.36.32.21.33-.54.33.05.33.1.32.36.33-.09.33-.84.33-.26.33.1.32.37.33.52.33.63.33-1.09.32-.1.33-.06.33-.44.33.58.33-.37.32.58.33-.77.33-.21.33.15.32.19.33-.45.33.45.33.36.32-.51h.33l.33-.45.33.28.33-.12.32.3.33 2.02.33.94.33-.66.32.32.33.13.33.02.33-.47.33.72.32-1.11.33.33.33-.03.33.87.32.09.33-.14.33-.17.33-1.09.33.49.32-.2.33-.17.33.12.33.23.32.05.33-.54.33-.1.33.64.33.82.32-.15.33 1.9.33-.44.33-.23.32.09.33-.03.33.1.33-.45.33-1.15.32-.14.33-.27.33-.04.33.01.32-.15.33-.43.33.13.33-.22.32-.2.33.22.33.06.33-.14.33-.18.32.21.33-.18.33.16.33-.35.32-.03h.33l.33-.03.33 1.56.33-.12.32.15.33.05.33-.04.33-.08.32-.02.33-.2.33-.03.33-.29.33.22.32-.11.33.31.33.72.33-.07.32-.67.33-.09.33-.23.33.26.33-.16.32-.15.33.3.33.07.33-.45.32.07.33-.17.33.11.33-.42.33.43.32-.21.33-.51.33.13.33.22.32-.58.33.32.33-.59.33-.49.33-.01.32-.58.33.62.33 1.07.33-.82.32.77.33-.64.33.37.33.3.32-.31.33.13.33-.42.33.75.33.18.32.05.33.35.33.55h.33l.32-.66.33-.26.33-.11.33-.39.33-.14.32.11.33.01.33.26.33.47.32.48.33-.49.33-.19.33.46.33-.33.32-.16.33-.31.33.28.33-.01.32-.16.33-.79.33-.35.33 1.49.33.09.32 2.67.33.18.33-.09.33-1.04.32.29.33-.79.33.4.33-.02.33-.29.32.28.33-.82.33-.25.33.45.32.02.33.36.33-.25.33-.03.33-.45.32-.56.33.03.33.23.33-.43.32.05.33-.26.33-.11.33-.18.32.14.33-.05.33-.07.33 1.28.33.07.32-.53.33-.41.33-.3.33-.1.32.09.33-.27.33-.19.33-.28.33.07.32-.01.33.3.33.05.33.12.32-.45.33.06.33.16.33.05.33.02.32-.14h.33l.33-.34.33.36.32-.22.33 1.26.33.78.33.58.33-.33.32-.23.33.8.33-.81.33-.15.32-.15.33.27.33-.01.33-.08.33.02.32-.45.33.15.33.1.33-.12.32.17.33-.47.33-.48.33-.84.32.43.33-.12.33.1.33.08.33-.36.32-.09.33-.3.33.26.33.14.32.04.33-.39.33-.14.33-.26.33-.11.32.2.33.08.33.05.33-.12.32-.27.33.11.33-.17.33.13.33-.03.32-.26.33-.09.33-.36.33-.38.32.54.33.11.33.06.33-.1.33.28.32-.35.33.34.33-.48.33 1.32.32.46.33-.48.33.01.33-.71h.33l.32.66.33.11.33-.34.33.34.32-.09.33.09.33-.14.33.12.33-.17.32.2.33-.15.33.38.33.53.32.15.33-.26.33 1.01.33.39.32.34.33-.56.33.1.33-.05.33.09.32-.25.33-.12.33.12.33-.52.32-.12.33-.28.33.73.33.05.33.24.32-.3.33.06.33.03.33.13.32-.1.33.04.33.04.33-.3.33-.97.32-.09.33.4h.33l.33.34.32.22.33.01.33-.32.33.38.33-.22.32.09.33-.28.33.17.33-.67.32-.06.33-.06.33-.12.33.52.33.09.32.08.33-.03.33.04.33-.14.32.02.33-.2.33.18.33.1.33-1.21.32-.04.33.16.33.02.33.67.32-.02.33.09.33.09.33.2.32.06.33-.19.33.11.33-.06.33-.52.32-.21.33-.11.33-.04.33-.22.32.57.33.39.33-.18.33-.19.33.07.32-.25.33.29.33-.31.33.02.32-.56.33-.19h.33l.33-.22.33.56.32-.04.33.35.33-.04.33-.38.32.39.33-.22.33-.19.33.31.33.08.32-.56.33-.46.33.19.33-.29.32.23.33.03.33.34.33.11.33-.32.32.31.33-.48.33.38.33-.17.32-.12.33-.38.33-.18.33-.19.32.06.33.26.33-.35.33 1.48.33.1.32-.13.33.18.33-.51.33.41.32-.25.33-.15.33-.61.33-.22.33-.01.32-.02.33.24.33-.03.33.29.32.09.33.21.33 1.16.33 1.36.33-.22.32.17.33-.48.33-.65.33-.38.32.3.33.21.33-.14.33-.06.33.26.32.04.33.55.33-.31.33.09.32-.19.33-.17.33-.39.33-.06.33-.29.32.37.33-.37.33-.06.33 1.37.32.2.33.43.33.15.33-.03.33-.08.32-.2.33-.33.33-.12.33-.12.32.01.33-.3.33.06.33-.04.32.33.33-.31.33.98.33.47.33-.34.32-.06.33-.33.33-.1.33-.36.32.1.33-.24.33-.11.33.26.33-.13.32.19.33-.62.33.64.33-.04.32.25.33-.36.33.32.33.48.33.3.32.26.33-.18.33-.07.33.47.32-.47.33-.18.33.09.33.67.33.12h.32l.33.04.33-.48.33-.66.32.14.33.1.33-.09.33-.12.33-.44.32.49.33-.29.33.31.33-.24.32.68h.33l.33-.16.33-.12.33-.52h.32l.33-.04.33 1.13.33.29.32-.04h.33l.33.19.33-.13.32-.34.33-.07.33.17.33-.49.33-.24.32-.37.33-.24.33.38.33-.32.32-.22.33.22.33-.01.33.05.33-.26.32.52.33.27.33.04.33-.4.32-.56.33.29.33-.35"/><use xlink:href="#a" transform="matrix(4.5 0 0 4.5 355.09 159.23)"/><use xlink:href="#a" transform="matrix(4.5 0 0 4.5 90.5 27.51)"/></g><text stroke-linecap="round" stroke-linejoin="round" color="#000" font-family="Arial" font-size="8" transform="translate(111.8 45.11)"><tspan>AVLTopDown</tspan></text><g fill="none" stroke="currentColor" stroke-linecap="round" stroke-linejoin="round" color="#000"><path stroke="#29C3F6" stroke-dasharray="1.0,2.0" d="M74.8 42.51h31.4M33.56 149.37l.33 5 .33.12.32-.06.33-1.32.33-1.44.33 2.15.32-.78.33-1.83.33-1.99.33 1.86.33-.54.32.4.33.48.33.46.33-.2.32 2.22.33-.55.33-.73.33-.31.33.94.32-.29.33 2.67.33-2.19.33.99.32-.17.33-.96.33.26.33.53.32 1.34.33-.84.33.36.33.93.33-1.41.32.89.33-1.81.33.72.33.13.32.5.33-.08.33.9.33.77.33-.51.32-.61.33 1.06.33.44.33-.62.32-1.05.33.46.33 3.13.33-1.12.33-.81.32-.42.33-.26.33.08.33 1.82.32-3.08.33-2.4.33-.41.33.38.33 1.13.32-1.13.33.75.33-.92.33-.48.32 1.17.33-.93.33-.01.33 1.18h.33l.32-.64.33 2.23.33.46.33-.56.32-.23.33.7.33.5.33.49.33.29.32-.43.33-.73.33.83.33-.5.32-.49.33-.27.33.43.33 2.6.32-.74.33.03.33-.39.33.31.33 1.31.32.58.33-.49.33-1.18.33.53.32-.63.33 1.37.33.05.33.37.33.3.32-.61.33.1.33-1.05.33 1.15.32-.33.33-.39.33.36.33-.15.33-.7.32-.53.33.51.33-.66.33 1.86.32 1.9.33-1.24.33.2.33-.52.33-1.58.32.98.33-.34.33-.22.33-2.73.32-.5.33.63.33-.5.33-1.06.33.71.32-.1.33.33.33 1.37.33.69.32-.97.33-.79.33.66.33-.13.33-1.23.32-.5.33.58.33 1.6.33-.96.32-.02.33-.54.33.11.33-.09.32.05.33 1.16.33.3.33-.47.33-.07.32-.08.33.72.33-.98.33.79.32.08.33 2.92.33.13.33-.01.33-.79.32.37.33-.3.33.16.33-.87.32.13.33.34.33-.02.33.22.33-.06.32-.49.33-.02.33-.1.33-.32.32-.13.33.75.33-.71.33-.23.33 1.43.32 1.75.33.12.33-1.24.33.22.32.09.33-.47.33.33.33-.02.33-.65.32-.8.33.25.33 1.18.33-.21.32-.02.33.82.33-.22.33-.46.32-.25.33-.39.33-.83.33 1.43.33.35.32.51.33 1.28.33.96.33-.43.32-.56.33.58.33-.07.33-.81.33-.1.32.72.33-.8.33-.28.33.58.32-.53.33-.64.33-.04.33-.27.33-1.05.32.03.33 1.1.33.29.33-.55.32-.1.33-.26.33-.86.33-.45.33.57h.32l.33-.83.33-.21.33.96.32-.96.33-.45.33.43.33-.46.33-.33.32.08.33.51.33-.97.33-.04.32.58.33.06.33-.38.33-.61.33.34.32-.83.33 1.46.33.77.33 1.1.32.44.33.02.33-.87.33-.71.32 1.58.33-1.53.33-.48.33.07.33-.56.32-.83.33-.37.33-.14.33-.17.32.6.33.31.33-.3.33-.89.33 2.02.32-.59.33.31.33.71.33.16.32-.27.33-1.25.33.29.33.28.33 1.09.32-.18.33-.16.33.14.33-.73.32.02.33 1.68.33 1.08.33-.88.33.34.32-.02.33-.52.33-.2.33-.04.32-.59.33-.54.33.02.33-.15.33-.11.32.92.33.03.33-.88.33-.05.32-.13.33 1.05.33-.12.33-.54.33-.12.32.55.33-.51.33-.57.33.53.32-.07.33-.65.33-.47.33-.36.32.32.33-.51.33 2.03.33.44.33.62.32-.46.33-.75.33.21.33-.84.32.27.33.19.33.1.33-.11.33-.32.32.25.33-.42.33-.63.33 1.57.32.41.33-.7.33 1.02.33-.23.33-.28.32-.65.33.22.33.08.33.32.32.1.33-.4.33-.36.33.24.33.01.32-.63.33.33.33-.14.33-.33.32-.22.33.86.33-.26.33.29.33-.45.32-.41.33.23.33 1.15.33.45.32.23.33-.36.33.02.33-.05.32.22.33-1.04.33.8.33.19.33-.62.32-.21.33.52.33-.19.33-.73.32.56.33-.61.33.55.33-.33.33-.21.32-.32.33-.54.33 1.01.33.77.32.68.33.19.33-.45.33-.46.33-.21.32.45.33-.35.33.13.33.04.32-.09.33-.71.33.3.33.44.33.37.32-.34.33.2.33-.46.33-.6.32-.18.33.88.33-.53.33-.08.33.07.32.12.33-.75.33-.32.33 1.26.32-.6.33.16.33.1.33.86.33.07h.32l.33.59.33-.26.33-.16.32.22.33-.7.33-.25.33-.11.32.68.33-.41.33 1.35.33.3.33-.88.32-.35.33.39.33.18.33.15.32.02.33-.38.33-.38.33-.06.33-.08.32-.47.33-.31.33.08.33-.71.32-.18.33-.04.33-.25.33.33.33.15.32.02.33-.75.33-.31.33-.01.32.07.33.38.33.41.33 1.33.33.36.32.21.33-.54.33.05.33.1.32.36.33-.09.33-.84.33-.26.33.1.32.37.33.52.33.63.33-1.09.32-.1.33-.06.33-.44.33.58.33-.37.32.58.33-.77.33-.21.33.15.32.19.33-.45.33.45.33.36.32-.51h.33l.33-.45.33.28.33-.12.32.3.33 2.02.33.94.33-.66.32.32.33.13.33.02.33-.47.33.72.32-1.11.33.33.33-.03.33.87.32.09.33-.14.33-.17.33-1.09.33.49.32-.2.33-.17.33.12.33.23.32.05.33-.54.33-.1.33.64.33.82.32-.15.33 1.9.33-.44.33-.23.32.09.33-.03.33.1.33-.45.33-1.15.32-.14.33-.27.33-.04.33.01.32-.15.33-.43.33.13.33-.22.32-.2.33.22.33.06.33-.14.33-.18.32.21.33-.18.33.16.33-.35.32-.03h.33l.33-.03.33 1.56.33-.12.32.15.33.05.33-.04.33-.08.32-.02.33-.2.33-.03.33-.29.33.22.32-.11.33.31.33.72.33-.07.32-.67.33-.09.33-.23.33.26.33-.16.32-.15.33.3.33.07.33-.45.32.07.33-.17.33.11.33-.42.33.43.32-.21.33-.51.33.13.33.22.32-.58.33.32.33-.59.33-.49.33-.01.32-.58.33.62.33 1.07.33-.82.32.77.33-.64.33.37.33.3.32-.31.33.13.33-.42.33.75.33.18.32.05.33.35.33.55h.33l.32-.66.33-.26.33-.11.33-.39.33-.14.32.11.33.01.33.26.33.47.32.48.33-.49.33-.19.33.46.33-.33.32-.16.33-.31.33.28.33-.01.32-.16.33-.79.33-.35.33 1.49.33.09.32 2.67.33.18.33-.09.33-1.04.32.29.33-.79.33.4.33-.02.33-.29.32.28.33-.82.33-.25.33.45.32.02.33.36.33-.25.33-.03.33-.45.32-.56.33.03.33.23.33-.43.32.05.33-.26.33-.11.33-.18.32.14.33-.05.33-.07.33 1.28.33.07.32-.53.33-.41.33-.3.33-.1.32.09.33-.27.33-.19.33-.28.33.07.32-.01.33.3.33.05.33.12.32-.45.33.06.33.16.33.05.33.02.32-.14h.33l.33-.34.33.36.32-.22.33 1.26.33.78.33.58.33-.33.32-.23.33.8.33-.81.33-.15.32-.15.33.27.33-.01.33-.08.33.02.32-.45.33.15.33.1.33-.12.32.17.33-.47.33-.48.33-.84.32.43.33-.12.33.1.33.08.33-.36.32-.09.33-.3.33.26.33.14.32.04.33-.39.33-.14.33-.26.33-.11.32.2.33.08.33.05.33-.12.32-.27.33.11.33-.17.33.13.33-.03.32-.26.33-.09.33-.36.33-.38.32.54.33.11.33.06.33-.1.33.28.32-.35.33.34.33-.48.33 1.32.32.46.33-.48.33.01.33-.71h.33l.32.66.33.11.33-.34.33.34.32-.09.33.09.33-.14.33.12.33-.17.32.2.33-.15.33.38.33.53.32.15.33-.26.33 1.01.33.39.32.34.33-.56.33.1.33-.05.33.09.32-.25.33-.12.33.12.33-.52.32-.12.33-.28.33.73.33.05.33.24.32-.3.33.06.33.03.33.13.32-.1.33.04.33.04.33-.3.33-.97.32-.09.33.4h.33l.33.34.32.22.33.01.33-.32.33.38.33-.22.32.09.33-.28.33.17.33-.67.32-.06.33-.06.33-.12.33.52.33.09.32.08.33-.03.33.04.33-.14.32.02.33-.2.33.18.33.1.33-1.21.32-.04.33.16.33.02.33.67.32-.02.33.09.33.09.33.2.32.06.33-.19.33.11.33-.06.33-.52.32-.21.33-.11.33-.04.33-.22.32.57.33.39.33-.18.33-.19.33.07.32-.25.33.29.33-.31.33.02.32-.56.33-.19h.33l.33-.22.33.56.32-.04.33.35.33-.04.33-.38.32.39.33-.22.33-.19.33.31.33.08.32-.56.33-.46.33.19.33-.29.32.23.33.03.33.34.33.11.33-.32.32.31.33-.48.33.38.33-.17.32-.12.33-.38.33-.18.33-.19.32.06.33.26.33-.35.33 1.48.33.1.32-.13.33.18.33-.51.33.41.32-.25.33-.15.33-.61.33-.22.33-.01.32-.02.33.24.33-.03.33.29.32.09.33.21.33 1.16.33 1.36.33-.22.32.17.33-.48.33-.65.33-.38.32.3.33.21.33-.14.33-.06.33.26.32.04.33.55.33-.31.33.09.32-.19.33-.17.33-.39.33-.06.33-.29.32.37.33-.37.33-.06.33 1.37.32.2.33.43.33.15.33-.03.33-.08.32-.2.33-.33.33-.12.33-.12.32.01.33-.3.33.06.33-.04.32.33.33-.31.33.98.33.47.33-.34.32-.06.33-.33.33-.1.33-.36.32.1.33-.24.33-.11.33.26.33-.13.32.19.33-.62.33.64.33-.04.32.25.33-.36.33.32.33.48.33.3.32.26.33-.18.33-.07.33.47.32-.47.33-.18.33.09.33.67.33.12h.32l.33.04.33-.48.33-.66.32.14.33.1.33-.09.33-.12.33-.44.32.49.33-.29.33.31.33-.24.32.68h.33l.33-.16.33-.12.33-.52h.32l.33-.04.33 1.13.33.29.32-.04h.33l.33.19.33-.13.32-.34.33-.07.33.17.33-.49.33-.24.32-.37.33-.24.33.38.33-.32.32-.22.33.22.33-.01.33.05.33-.26.32.52.33.27.33.04.33-.4.32-.56.33.29.33-.35"/><use xlink:href="#b" color="#29C3F6" transform="matrix(4.5 0 0 4.5 84.69 159.28)"/><use xlink:href="#b" color="#29C3F6" transform="matrix(4.5 0 0 4.5 90.5 42.51)"/></g><text stroke-linecap="round" stroke-linejoin="round" color="#000" font-family="Arial" font-size="8" transform="translate(238.4 30.11)"><tspan>AVLWeakBottomUp</tspan></text><g fill="none" stroke="currentColor" stroke-linecap="round" stroke-linejoin="round" color="#000"><path stroke="#3B75EA" d="M201.4 27.51h31.4M33.56 73.25l.33 14.03.33-1.76.32 10.64.33 9.27.33 20.7.33-17.46.32-29.08.33 6.86.33 17.75.33-17.1.33 16.57.32-6.11.33 15.47.33-17.13.33 14.72.32 24.6.33-27.5.33 13.64.33-16.94.33 13.17.32 2.95.33 2.8.33-16.71.33-6.91.32 2.67.33 21.45.33-16.47.33 11.66.32-7.07.33-7.03.33 11.26.33-7.06.33 1.98.32 10.87.33-7.1.33-15.92.33-6.97.32 10.58.33 19.12.33-24.41.33 1.66.33 10.19.32-7.01.33 18.5.33 1.4.33 9.78.32-15.47.33 1.33.33 9.6.33 1.23.33 9.44.32-15.28.33 9.35.33 1.12.33-15.15.32 9.21.33-23.1.33 33.25.33-23.01.33 17.01.32-22.87.33 16.89.33-6.93.33.97.32-6.89.33.96.33 24.34.33-22.48.33-6.84.32-6.82.33 8.62.33 8.57.33-14.49.32 8.52.33 23.72.33-22.06.33.8.33-6.77.32.8.33.79.33 8.28.33-6.75.32 8.23.33 15.64.33-14.21.33 8.13.32.67.33-6.73.33 15.42.33.63.33-21.41.32 15.31.33-14.01.33.64.33 7.91.32-6.66.33 15.12.33-28.37.33 7.85.33 15.02.32 7.76.33-6.63.33-20.95.33 7.74.32 7.7.33 7.68.33-20.82.33-6.54.33 21.83.32-13.63.33 7.6.33.52.33.52.32 7.53.33 7.51.33-20.54.33 21.48.33.47.32-13.49.33 7.44.33-20.39.33-6.45.32 21.28.33.45.33-6.46.33.46.33-6.44.32 14.22.33-6.44.33-6.42.33 7.29.32.43.33-13.23.33.44.33 27.68.33-6.41.32-6.39.33-6.37.33 7.18.33.39.32 7.15.33.38.33-26.56.33 27.32.32-19.79.33 7.11.33.38.33 7.07.33.36.32.37.33-6.31.33.37.33.36.32.36.33.35.33-6.27.33.35.33-6.25.32 20.17.33-19.46.33-6.23.33 26.69.32-12.83.33 20.04.33-19.37.33 13.44.33-12.77.32.32.33 6.86.33 6.84.33-12.73.32.32.33.31.33 26.31.33-12.7.33 6.78.32-25.63.33 32.67.33-25.58.33 6.75.32-25.51.33 13.2.33-6.14.33 6.74.33-6.13.32 6.72.33-12.54.33 25.93.33.27.32-6.12.33.28.33 6.65.33-6.11.32.28.33-6.1.33 12.99.33-12.45.33.27.32 12.96.33-18.76.33 12.93.33 6.59.32.24.33-18.69.33 6.57.33-6.05.33 19.16.32-24.93.33.26.33-6.02.33 6.54.32 6.53.33.25.33-6.01.33 19.02.33-6.02.32-12.25.33 12.73.33-6 .33.24.32 6.46.33-12.21.33 6.46.33.23.33 6.44.32-5.97.33 6.43.33-12.16.33 6.41.32-5.95.33 6.41.33.22.33 12.56.33-5.95.32.21.33-5.94.33-5.93.33.22.32.22.33.22.33 6.35.33.21.33.21.32-5.91.33 6.33.33-5.91.33 12.43.32.2.33-12 .33-5.88.33 6.3.32 6.29.33 6.28.33-11.96.33.2.33-5.87.32.2.33 12.33.33-11.92.33 6.25.32 6.25.33 6.23.33-23.98.33 6.24.33 6.23.32-5.84.33-5.83.33.2.33 18.25.32-5.83.33-11.84.33 12.21.33 6.18.33-17.81.32.19.33.19.33 6.18.33.18.32.18.33.18.33-11.76.33 12.13.33 18.07.32-23.68.33 6.14.33.18.33.18.32-5.78.33.18.33-5.76.33.18.33 6.11.32 6.11.33 6.09.33.17.33.17.32-5.75.33 11.99.33.16.33-11.65.33 17.87.32-11.64.33.16.33-5.73.33.16.32-11.61.33 11.93.33.16.33-5.71.32 6.03.33-5.71.33.16.33 11.89.33.16.32 11.87.33-5.71.33.15.33-5.7.32-11.55.33 6 .33.15.33-5.68.33 5.99.32-5.68.33 5.98.33-5.68.33.15.32 17.61.33-11.49.33-5.66.33-17.29.33 5.97.32.15.33 23.36.33-11.45.33-5.65.32.15.33.14.33-5.64.33 5.94.33 5.93.32-11.42.33-5.63.33 23.25.33-11.41.32 5.91.33 17.44.33-34.44.33 23.18.33.14.32-22.88.33 17.4.33-5.61.33-5.61.32 23.12.33-5.61.33-17.08.33-5.6.32 11.61.33-11.32.33 11.59.33 5.86.33-5.59.32 5.85.33-17.02.33 23 .33.13.32-5.58.33-5.58.33 11.54.33.13.33-11.27.32.12.33 5.83.33.13.33-5.57.32 5.82.33-11.25.33 11.5.33-5.56.33 5.81.32-16.9.33 17.14.33.13.33-5.55.32 5.79.33 5.79.33-11.2.33 11.44.33-5.54.32-5.54.33.13.33 5.77.33-11.18.32 5.77.33.12.33-5.52.33 5.76.33 11.39.32-5.52.33-11.14.33.12.33 28.24.32-28 .33 5.74.33 11.35.33-11.12.33-5.5.32 5.73.33 5.73.33-5.5.33 11.33.32-11.1.33 16.92.33-22.29.33 5.71.32 5.71.33-11.08.33-5.47.33.11.33 11.29.32.11.33 5.69.33 5.69.33-5.47.32-11.04.33.11.33 16.82.33-16.6.33 16.81.32-11.03.33-5.45.33 5.67.33.11.32 5.66.33-11 .33 5.66.33.1.33-5.44.32 16.74.33 5.65.33-16.53.33-5.44.32-5.43.33 11.18.33-5.43.33 11.17.33-10.96.32.1.33 11.16.33 5.63.33-10.95.32-5.42.33.1.33 5.62.33.1.33-21.95.32 27.66.33-10.92.33 11.12.33 11.1.32-21.92.33-5.4.33 11.1.33.1.33-10.89.32 5.59.33 11.08.33 11.08.33-27.35.32 16.56.33-5.39.33.09.33-5.38.32-10.86.33 11.05.33-21.8.33 38.42.33-5.39.32-5.37.33.09.33-16.31.33.1.32 27.42.33-32.68.33 5.56.33 5.55.33-5.36.32 16.46.33.09.33-16.26.33 16.44.32-10.8.33 5.54.33-5.35.33-5.35.33.09.32 5.54.33 5.53.33.09.33.09.32-5.34.33-5.34.33 5.52.33-5.34.33 5.52.32-10.75.33 10.93.33.09.33-5.32.32-5.33.33.09.33 10.92.33.09.33 5.5.32.09.33-5.32.33 5.49.33-5.32.32 5.49.33-21.51.33 10.89.33 5.48.32-10.7.33 16.27.33.09.33 5.47.33-26.86.32 5.48.33.09.33 5.47.33 5.47.32 5.47.33-21.44.33 16.22.33 5.46.33-5.29.32-10.66.33 5.46.33 10.82.33-16.02.32.09.33.08.33.09.33-5.28.33 16.17.32.08.33-5.27.33 5.44.33-5.27.32-5.28.33 16.14.33-15.97.33 21.48.33-15.96.32 5.42.33 10.77.33.08.33-21.29.32 5.43.33.08.33 5.41.33.08.33.08.32-5.25.33 5.41.33-10.58.33-5.25.32 26.72.33-15.9.33.08.33 5.4.33-21.21.32 10.73.33 16.03.33-15.88.33 5.4.32-5.23.33 21.32.33 5.39.33-21.17.32.08.33.08.33.07.33-5.22.33.07.32 5.38.33-5.22.33-10.52.33 15.97.32 5.37.33-10.51.33 10.66.33-5.22.33 5.37.32-5.22.33-5.21.33.08.33-10.5.32 10.65.33.07.33.08.33-5.21.33.08.32-5.2.33 21.18.33-10.48.33.08.32-5.2.33.08.33 5.34.33.07.33.08.32 5.33.33-10.45.33 5.34.33-5.19.32 10.59.33-15.7.33 5.33.33-5.18.33 15.84.32-15.69.33.08.33 5.32.33 5.32.32-10.42.33 15.81.33 5.32.33.06.33-10.41.32.07.33 10.55.33-10.41.33-10.41.32-5.16.33 15.78.33-5.16.33.07.32.07.33-5.16.33 10.53.33 5.3.33-15.62.32 5.3.33 20.97.33-15.61.33-10.37.32 20.95.33-5.15.33-5.15.33-5.15.33-5.15.32 5.29.33.07.33.06.33 15.7.32-5.14.33-5.14.33 5.27.33-15.55.33.07.32 5.27.33.07.33 5.27.33.06.32 5.27.33 5.26.33-20.72.33 5.26.33.07.32.06.33.07.33.07.33-10.32.32.07.33 31.19.33-10.31.33-10.3.33-5.12.32 20.8.33-15.49.33-5.11.33 10.42.32-5.11.33.06.33 5.24.33-5.11.32 10.41.33-10.28.33 15.58.33-5.11.33-20.61.32 10.4.33 15.56.33.06.33-15.43.32 5.23.33-5.11.33 15.55.33-15.42.33.07.32.06.33 5.22.33 5.21.33 5.22.32.06.33-10.25.33 5.22.33-10.25.33 15.51.32-10.23.33-5.09.33-10.23.33 15.5.32-10.23.33.06.33 10.35.33-5.08.33.06.32 5.2.33-15.36.33.07.33 36.01.32-20.48.33.05.33.06.33 5.19.33-10.2.32 5.19.33-5.07.33.06.33 10.31.32-5.07.33 5.19.33-10.19.33.06.33 5.18.32-5.06.33.05.33 10.3.33-10.18.32 15.41.33-15.29.33 10.28.33.06.32 5.17.33.05.33-20.38.33 5.17.33 10.27.32-5.05.33 5.16.33-15.26.33 15.37.32 5.16.33-10.15.33 15.36.33-25.45.33 5.16.32 5.15.33 20.44.33-15.23.33 5.15.32-5.04.33.05.33-15.22.33 20.42.33.05.32-15.21.33 20.41.33-20.3.33.06.32 5.14.33-5.03.33.06.33 5.13.33 5.14.32.05.33 5.13.33-10.1.33 15.28.32.05.33-25.32.33 5.13.33-5.02.33 10.2.32 10.2.33-15.16.33 5.12.33.05.32-5.01.33-5.01.33 10.18.33-10.07.33 20.3.32-5.01.33.05.33-10.07.33.06.32 15.23.33-5.01.33.05.33-5 .32 5.1.33-15.11.33-5 .33 5.11.33 20.25.32-10.05.33.06.33-5 .33.05.32 10.15.33-5 .33 5.1.33.05.33 5.09.32-10.04.33 10.14.33-10.03.33.04.32 10.13.33-15.06.33 5.09.33 10.12.33.05.32-4.99.33.05.33.05.33-10.02.32 10.12.33-4.99.33 15.14.33-20.06.33-4.98.32 15.13.33 10.1.33-4.98.33-4.98.32 5.07.33-4.97.33.05.33.05.33.04.32-9.98.33 5.06.33-9.98.33 5.06.32 5.07.33.05.33-4.97.33-4.96.32 15.08.33-4.96.33 10.07.33.04.33-14.98.32 5.06.33.05.33-4.96.33 25.07.32-4.96.33-19.97.33-4.95.33 10.05.33.05.32-9.95.33.05.33 5.04.33 5.05.32-9.95.33 5.04.33 10.04.33-14.93.33.05.32 10.03.33-14.93.33.05.33 5.04.32 15.01.33.04.33-9.92.33.04.33-4.93.32 5.03.33 5.03.33-4.94.33-4.93.32 5.02.33.05.33 10 .33-4.93.33-4.93.32 19.95.33-29.81.33 10 .33 5.02.32.04.33 5.02.33-4.93.33 5.02.33-4.93.32.05.33-4.93.33 14.95.33-14.86.32.05.33.04.33 5.01.33-9.88.32 5.01.33.04.33 9.97.33-9.88.33 5.01.32-9.88.33 9.96.33-14.82.33 5 .32.04.33 14.91.33-4.91.33-14.81.33 9.95.32 4.99.33-14.81.33 9.95.33.04.32 9.95.33-9.86.33 9.94.33-9.85.33.04.32.05.33 4.98.33.05.33-4.91.32.05.33 9.93.33-14.79.33.05.33 9.92.32-4.9.33.05.33.04.33.04.32-9.82.33 9.91.33-9.83.33 19.78.33-9.82.32-4.89.33 4.97.33 4.98.33-4.89.32 4.97.33-9.82.33.05.33-4.89.33 9.9.32-4.89.33.05.33 4.96.33-4.88.32 14.81.33-19.64.33 19.72.33-9.8.32-4.88.33 4.97.33-4.88.33 14.79.33.04.32-24.54.33 14.79.33-4.87.33 4.95.32-4.87.33.04.33.05.33 4.95.33-9.78.32.04.33 14.77.33-14.68.33 14.76.32.04.33-4.87.33.05"/><use xlink:href="#c" color="#3B75EA" transform="matrix(4.5 0 0 4.5 139.1 128.74)"/><use xlink:href="#c" color="#3B75EA" transform="matrix(4.5 0 0 4.5 217.1 27.51)"/></g><text stroke-linecap="round" stroke-linejoin="round" color="#000" font-family="Arial" font-size="8" transform="translate(238.4 45.11)"><tspan>AVLWeakTopDown</tspan></text><g fill="none" stroke="currentColor" stroke-linecap="round" stroke-linejoin="round" color="#000"><path stroke="#00C853" stroke-dasharray="4.5,2.0,0.5,2.0,0.5,2.0" d="M201.4 42.51h31.4M33.56 73.25l.33 14.03.33-1.76.32 10.64.33 9.27.33 20.7.33-17.46.32-29.08.33 6.86.33 29.26.33-28.61.33 16.57.32-6.11.33 4.66.33 4.34.33-6.47.32 35.13.33-27.5.33 13.64.33-16.94.33 23.13.32-7.01.33-6.98.33 12.45.33-7.07.32-7.02.33 11.92.33-25.85.33 11.72.32 2.25.33 2.16.33-7.05.33 11.12.33-16.09.32 10.93.33 1.85.33 1.79.33-15.87.32 10.52.33 10.37.33-24.41.33 10.28.33-7.01.32 18.63.33 18.43.33-7.13.33 26.58.32-40.73.33 9.68.33 9.56.33-7.08.33-7.04.32 1.2.33 9.35.33-23.33.33 1.18.32 1.16.33 1.12.33 17.17.33-22.99.33 17.04.32-14.89.33 40.66.33-30.7.33-6.9.32.98.33-6.87.33 24.37.33-14.68.33 8.67.32 8.6.33-14.59.33 8.54.33.83.32-14.49.33 23.72.33-22.06.33 15.98.33 8.32.32.73.33-14.35.33 8.25.33.7.32 8.18.33.67.33-21.67.33 15.55.32.66.33-6.75.33 22.78.33-28.84.33-21.38.32 22.67.33-21.3.33 7.97.33.64.32.64.33 22.38.33-21.13.33 7.83.33 22.22.32-6.66.33 7.73.33-20.98.33.56.32 7.7.33-13.73.33 7.67.33-20.77.33 14.74.32.53.33-6.54.33-6.51.33.53.32 21.62.33-6.52.33-6.51.33 7.5.33.48.32.48.33-6.48.33 21.33.33-20.37.32 21.25.33-13.4.33.45.33 7.35.33-6.46.32 14.19.33-20.19.33 7.3.33 14.12.32.4.33-13.26.33.41.33 14.02.33-20.01.32 7.2.33-6.38.33 13.94.33-13.15.32 20.66.33 13.85.33-40.07.33 13.85.32-6.35.33 20.51.33-19.76.33 7.06.33 7.04.32.35.33-19.66.33.37.33 7.01.32-6.29.33-6.28.33 6.99.33 6.97.33.33.32-19.47.33 6.95.33.35.33.34.32 6.92.33-6.24.33 20.02.33 6.86.33-6.24.32.3.33-12.76.33 6.84.33-6.21.32.31.33 13.32.33-6.21.33-12.68.33.3.32-19.12.33 45.62.33-38.51.33 26.14.32-19.07.33.3.33-6.14.33 6.74.33.29.32 6.71.33-18.95.33 25.93.33-6.13.32-12.51.33 13.07.33 6.65.33-6.11.32-6.1.33 6.64.33 19.35.33-6.1.33.25.32.25.33.25.33-6.09.33 12.91.32-12.41.33-6.06.33-6.06.33 19.17.33-12.36.32 6.54.33-6.05.33-6.03.33 6.52.32 6.52.33 6.5.33-12.3.33-6.02.33 6.49.32-24.75.33 12.74.33 6.48.33.23.32.23.33 12.68.33-12.21.33-5.99.33 6.44.32-5.97.33 18.82.33-5.98.33 12.59.32-18.34.33 12.58.33.21.33-5.96.33 12.54.32-18.28.33-5.94.33 6.37.33 18.65.32-18.23.33.21.33 6.34.33 6.34.33-18.18.32 6.33.33-12.03.33 6.33.33 12.41.32-12 .33-5.9.33 6.3.33.2.32 18.46.33-5.89.33.19.33-18.03.33 12.34.32.19.33.19.33-5.87.33 12.3.32-5.87.33 18.33.33-23.99.33.19.33-5.85.32 12.25.33-5.84.33-11.86.33 12.23.32.18.33.18.33.18.33.18.33 6.18.32-5.82.33.18.33-11.79.33 18.13.32-5.81.33-5.8.33-11.77.33 12.12.33 24.04.32-17.72.33.17.33 6.12.33-11.73.32.17.33 6.12.33 6.1.33-11.71.33 23.91.32-17.64.33 23.87.33-11.7.33-11.68.32 17.91.33 6.06.33-11.67.33-23.47.33 6.07.32 17.86.33-11.64.33-11.63.33 11.94.32.16.33 11.92.33-29.26.33 11.92.32 6.03.33-11.59.33.16.33-5.71.33 17.75.32-17.43.33 11.87.33-17.4.33 23.55.32-23.23.33 6 .33 11.83.33-23.2.33.17.32 29.31.33-11.51.33 5.97.33-23.14.32 23.43.33-5.67.33 5.96.33-23.1.33 5.97.32.15.33 23.35.33-17.25.33.14.32 11.73.33 17.51.33-28.8.33 5.93.33 5.92.32.14.33-17.19.33 34.78.33-17.19.32.14.33 28.96.33-34.45.33 17.41.33.13.32-22.89.33 5.89.33 5.89.33-11.37.32 23.11.33-11.35.33.13.33-11.34.32 11.59.33.13.33.13.33 11.58.33-11.32.32 5.84.33-11.31.33 22.99.33-28.44.32 22.97.33-11.3.33-5.58.33 17.23.33-34.07.32 11.52.33 11.52.33-11.26.33 17.19.32-5.57.33 5.81.33.11.33-11.24.33.12.32 11.48.33-5.56.33 11.46.33-16.89.32 17.11.33-5.55.33-11.2.33 11.43.33.11.32-22.5.33.13.33 22.71.33-11.18.32 5.76.33-5.53.33.12.33.11.33 5.75.32-5.52.33-5.51.33-5.51.33 16.99.32-16.76.33.12.33 16.97.33-11.12.33.11.32 11.34.33 5.72.33-16.72.33 28.14.32-27.92.33 11.32.33-11.09.33 11.3.32-11.08.33.11.33 5.7.33-5.48.33 11.28.32 5.69.33-5.48.33.1.33.1.32-11.04.33 11.25.33 11.24.33-22.17.33 16.8.32-16.59.33-16.58.33 16.79.33 5.66.32 5.66.33-5.45.33-5.45.33 5.65.33.1.32-10.99.33.11.33.1.33.1.32 5.65.33.1.33.1.33.1.33-5.43.32-10.95.33 16.68.33 5.63.33.09.32 5.62.33-5.42.33-5.42.33-10.93.33-10.93.32 16.64.33.1.33.1.33 27.62.32-21.92.33 11.1.33 5.59.33 5.59.33-16.4.32 5.59.33-5.4.33 5.58.33-16.37.32.09.33 5.58.33.1.33-21.83.32 5.58.33 16.53.33-21.81.33 16.52.33 5.56.32.1.33.09.33-10.84.33-10.84.32 27.42.33-27.22.33.1.33 11.01.33.09.32 11 .33-16.26.33 5.54.33 5.54.32-16.25.33 16.43.33-10.79.33-5.35.33-5.35.32 5.54.33.09.33 16.4.33-5.34.32.09.33-16.2.33 5.52.33 5.52.33.09.32.09.33-16.17.33 5.51.33 10.93.32-10.74.33-10.74.33 32.58.33-10.74.33.09.32 21.72.33-21.54.33 10.9.33-5.32.32 16.29.33-32.32.33 10.89.33-5.31.32.09.33 16.27.33-5.31.33.08.33-16.08.32 16.25.33-10.69.33 5.47.33 10.85.32 10.85.33-26.82.33 5.46.33 16.22.33-10.67.32-26.79.33 21.58.33 5.45.33-16.02.32 5.45.33-10.64.33 16.18.33.08.33-10.64.32 21.52.33-10.64.33 21.51.33-15.99.32-15.98.33 16.14.33-21.32.33 37.53.33-10.62.32.08.33.07.33 5.43.33-26.64.32 10.76.33 5.42.33 5.42.33-5.26.33 5.41.32-5.26.33-5.25.33.08.33 5.41.32 10.73.33-21.23.33-5.25.33 10.73.33-10.57.32 16.04.33-5.24.33 10.71.33.07.32-10.55.33-5.24.33 10.71.33.07.32-21.16.33.08.33 16 .33 5.38.33-15.84.32.08.33 10.68.33-10.52.33 15.96.32-10.51.33 10.66.33-15.8.33 26.53.33-26.38.32 10.65.33 10.65.33-10.5.33-5.21.32 21.2.33-15.77.33-5.21.33.07.33 5.36.32 5.34.33 5.35.33-31.57.33 21.16.32-15.74.33.08.33 10.61.33 15.87.33-15.73.32 15.87.33-15.72.33 5.33.33-5.19.32 5.33.33-5.19.33.08.33-10.44.33 31.59.32-20.94.33.07.33 10.57.33-10.43.32-5.18.33 5.32.33 10.56.33-10.42.33-10.42.32 5.32.33 5.31.33-10.41.33.07.32 5.31.33 5.31.33 5.3.33.07.32 5.29.33-31.31.33 20.99.33 10.52.33-10.39.32-5.16.33 15.75.33-15.61.33-5.15.32 10.51.33-10.37.33.07.33-5.15.33 10.5.32 26.14.33-20.79.33 10.49.33-10.36.32.07.33.06.33 15.69.33-31.17.33 10.48.32-5.14.33 10.47.33.07.33.06.32 5.27.33 10.46.33-31.12.33 20.85.33-10.33.32 10.45.33-5.13.33.07.33-15.51.32 10.45.33 20.81.33-5.13.33-15.49.33 31.17.32-20.67.33-15.49.33 10.43.33-5.12.32 15.6.33-10.29.33.06.33-5.11.32-5.11.33 5.23.33 5.24.33 5.23.33-15.45.32 20.74.33-10.28.33.07.33 10.39.32-20.6.33.06.33 25.87.33-15.42.33-10.25.32-5.1.33 5.22.33 15.53.33 10.37.32-10.25.33 5.21.33 10.36.33-25.7.33 15.51.32-20.53.33 20.65.33-10.24.33 10.35.32-20.52.33 5.21.33 5.2.33-10.22.33 20.62.32-10.22.33-10.22.33 10.33.33 20.6.32-15.35.33-10.21.33 15.46.33-10.21.33-5.07.32 5.19.33 5.18.33-10.19.33 10.31.32 10.3.33-5.07.33-15.31.33 10.3.33-15.3.32 15.41.33-10.18.33 10.3.33-5.07.32.06.33-10.17.33 5.17.33.06.32 15.39.33-5.06.33-10.16.33 10.27.33.06.32 10.26.33-10.15.33-15.26.33 10.26.32 10.26.33-15.25.33 10.26.33-5.05.33 5.15.32-20.33.33 15.35.33-5.05.33 10.25.32.05.33 5.15.33-25.41.33 20.42.33 5.14.32-15.21.33 15.32.33-5.04.33-10.11.32 10.22.33-15.2.33.06.33.05.33-5.02.32 5.13.33 5.13.33 5.14.33 5.13.32 5.12.33-25.32.33 10.2.33-10.09.33 5.13.32 15.27.33-20.23.33 15.26.33-5.02.32.06.33.05.33-5.01.33-10.08.33 20.31.32-5.01.33 5.11.33-15.13.33.06.32 15.23.33.05.33 15.22.33-25.23.32 25.33.33-25.23.33.06.33-10.06.33 20.26.32.06.33.04.33-10.04.33-5 .32 10.15.33-4.99.33-5 .33 10.14.33 5.1.32-10.04.33-4.99.33.05.33 5.1.32 10.12.33-20.1.33.06.33 15.16.33-10.02.32.05.33.05.33 15.15.33-20.08.32.06.33 10.11.33 10.1.33-20.06.33 15.13.32 5.08.33-10 .33-15.03.33 20.15.32 5.07.33-4.97.33.05.33-4.97.33 10.08.32-4.96.33 15.1.33-15.01.33-4.97.32 20.11.33-20.01.33 10.08.33 5.06.32 5.06.33-14.99.33.05.33-9.97.33 15.07.32-4.96.33-4.96.33 10.06.33 20.06.32-29.97.33-9.96.33 5.05.33.05.33 20.05.32-14.95.33-4.95.33 10.04.33.05.32 5.04.33-19.93.33 20.02.33-9.94.33-4.94.32 5.04.33 15.02.33-14.93.33 20 .32.05.33-4.95.33.05.33 5.03.33 5.03.32-4.94.33-4.94.33-4.94.33.04.32.05.33 5.02.33.05.33 10 .33-14.89.32 9.99.33-14.88.33 14.97.33.04.32-9.9.33.04.33 14.96.33 5.02.33-19.85.32.05.33.04.33.04.33.05.32.04.33-24.79.33 19.91.33 5.01.32-4.92.33 5.01.33 9.97.33-4.92.33-9.88.32 5 .33 5 .33-14.83.33-9.87.32 9.96.33.04.33.05.33 5 .33-9.87.32 19.86.33-14.81.33 4.99.33-4.91.32 9.95.33-9.86.33 9.94.33 9.94.33 4.98.32-29.63.33 14.88.33 9.93.33-4.9.32-4.9.33 14.86.33-14.78.33 4.98.33-9.84.32.04.33.05.33.04.33-4.9.32.05.33 19.78.33-29.57.33 29.65.33-14.76.32-9.82.33 9.9.33 4.98.33-19.68.32 9.9.33.04.33.04.33-4.88.33 9.9.32-4.89.33 14.82.33-4.89.33.04.32.04.33-9.8.33 19.72.33-9.8.32-19.63.33 24.63.33-14.71.33.04.33 19.71.32-34.38.33 14.79.33 9.87.33-4.87.32 4.95.33 4.95.33-9.78.33 9.86.33-19.6.32 4.95.33 9.86.33-4.87.33 9.85.32 4.95.33-14.68.33 14.75"/><use xlink:href="#d" color="#00C853" transform="matrix(4.5 0 0 4.5 193.18 137.17)"/><use xlink:href="#d" color="#00C853" transform="matrix(4.5 0 0 4.5 217.1 42.51)"/></g><path fill="none" d="M33.56 72.01V182M358.04 72.01H33.56" color="#000"/><text stroke-linecap="round" stroke-linejoin="round" stroke-width="0" color="#000" font-family="Arial" font-size="8" text-anchor="middle" transform="translate(195.8 8.61)"><tspan font-weight="bold">InsertPersistent</tspan></text></svg>