<svg xmlns="http://www.w3.org/2000/svg" xmlns:xlink="http://www.w3.org/1999/xlink" viewBox="0 0 400 250"><path fill="none" d="M0 0h400v250H0z"/><defs><path id="b" stroke="currentColor" stroke-width=".267" d="M-1-1h2v2h-2z"/><path id="d" fill="currentColor" stroke="currentColor" stroke-width=".267" d="M-1-1h2v2h-2z"/><path id="a" stroke="currentColor" stroke-width=".267" d="m0-1.33-1.33 2h2.66z"/><use xlink:href="#b" id="c" stroke="currentColor" transform="rotate(45)"/></defs><path fill="none" stroke="#333" stroke-linecap="round" stroke-linejoin="round" stroke-width=".1" d="M46.1 205V45.01" class="gridline" color="#000"/><g fill="none" stroke-linecap="round" stroke-linejoin="round" stroke-width="0" color="#000"><path d="M46.1 205v-7.5m0-152.49v7.5"/><text fill="#000" font-family="KaTeX_Main" font-size="10" text-anchor="middle" transform="translate(46.1 215.75)"><tspan> 1</tspan></text></g><path fill="none" stroke="#333" stroke-linecap="round" stroke-linejoin="round" stroke-width=".1" d="M82.31 205V45.01" class="gridline" color="#000"/><g fill="none" stroke-linecap="round" stroke-linejoin="round" stroke-width="0" color="#000"><path d="M82.31 205v-7.5m0-152.49v7.5"/><text fill="#000" font-family="KaTeX_Main" font-size="10" text-anchor="middle" transform="translate(82.31 215.75)"><tspan> 2</tspan></text></g><path fill="none" stroke="#333" stroke-linecap="round" stroke-linejoin="round" stroke-width=".1" d="M118.52 205V45.01" class="gridline" color="#000"/><g fill="none" stroke-linecap="round" stroke-linejoin="round" stroke-width="0" color="#000"><path d="M118.52 205v-7.5m0-152.49v7.5"/><text fill="#000" font-family="KaTeX_Main" font-size="10" text-anchor="middle" transform="translate(118.52 215.75)"><tspan> 3</tspan></text></g><path fill="none" stroke="#333" stroke-linecap="round" stroke-linejoin="round" stroke-width=".1" d="M154.73 205V45.01" class="gridline" color="#000"/><g fill="none" stroke-linecap="round" stroke-linejoin="round" stroke-width="0" color="#000"><path d="M154.73 205v-7.5m0-152.49v7.5"/><text fill="#000" font-family="KaTeX_Main" font-size="10" text-anchor="middle" transform="translate(154.73 215.75)"><tspan> 4</tspan></text></g><path fill="none" stroke="#333" stroke-linecap="round" stroke-linejoin="round" stroke-width=".1" d="M190.94 205V45.01" class="gridline" color="#000"/><g fill="none" stroke-linecap="round" stroke-linejoin="round" stroke-width="0" color="#000"><path d="M190.94 205v-7.5m0-152.49v7.5"/><text fill="#000" font-family="KaTeX_Main" font-size="10" text-anchor="middle" transform="translate(190.94 215.75)"><tspan> 5</tspan></text></g><path fill="none" stroke="#333" stroke-linecap="round" stroke-linejoin="round" stroke-width=".1" d="M227.15 205V45.01" class="gridline" color="#000"/><g fill="none" stroke-linecap="round" stroke-linejoin="round" stroke-width="0" color="#000"><path d="M227.15 205v-7.5m0-152.49v7.5"/><text fill="#000" font-family="KaTeX_Main" font-size="10" text-anchor="middle" transform="translate(227.15 215.75)"><tspan> 6</tspan></text></g><path fill="none" stroke="#333" stroke-linecap="round" stroke-linejoin="round" stroke-width=".1" d="M263.36 205V45.01" class="gridline" color="#000"/><g fill="none" stroke-linecap="round" stroke-linejoin="round" stroke-width="0" color="#000"><path d="M263.36 205v-7.5m0-152.49v7.5"/><text fill="#000" font-family="KaTeX_Main" font-size="10" text-anchor="middle" transform="translate(263.36 215.75)"><tspan> 7</tspan></text></g><path fill="none" stroke="#333" stroke-linecap="round" stroke-linejoin="round" stroke-width=".1" d="M299.57 205V45.01" class="gridline" color="#000"/><g fill="none" stroke-linecap="round" stroke-linejoin="round" stroke-width="0" color="#000"><path d="M299.57 205v-7.5m0-152.49v7.5"/><text fill="#000" font-family="KaTeX_Main" font-size="10" text-anchor="middle" transform="translate(299.57 215.75)"><tspan> 8</tspan></text></g><path fill="none" stroke="#333" stroke-linecap="round" stroke-linejoin="round" stroke-width=".1" d="M335.78 205V45.01" class="gridline" color="#000"/><g fill="none" stroke-linecap="round" stroke-linejoin="round" stroke-width="0" color="#000"><path d="M335.78 205v-7.5m0-152.49v7.5"/><text fill="#000" font-family="KaTeX_Main" font-size="10" text-anchor="middle" transform="translate(335.78 215.75)"><tspan> 9</tspan></text></g><path fill="none" stroke="#333" stroke-linecap="round" stroke-linejoin="round" stroke-width=".1" d="M371.99 205V45.01" class="gridline" color="#000"/><g fill="none" stroke-linecap="round" stroke-linejoin="round" stroke-width="0" color="#000"><path d="M371.99 205v-7.5m0-152.49v7.5"/><text fill="#000" font-family="KaTeX_Main" font-size="10" text-anchor="middle" transform="translate(371.99 215.75)"><tspan> 10</tspan></text></g><g fill="none" stroke-linecap="round" stroke-linejoin="round" stroke-width="0" color="#000"><path d="M371.99 205h-7.5"/><text fill="#000" font-family="KaTeX_Main" font-size="10" transform="translate(378.99 208.25)"><tspan>0.00</tspan></text></g><g fill="none" stroke-linecap="round" stroke-linejoin="round" stroke-width="0" color="#000"><path d="M371.99 187.22h-7.5"/><text fill="#000" font-family="KaTeX_Main" font-size="10" transform="translate(378.99 190.47)"><tspan>0.05</tspan></text></g><g fill="none" stroke-linecap="round" stroke-linejoin="round" stroke-width="0" color="#000"><path d="M371.99 169.45h-7.5"/><text fill="#000" font-family="KaTeX_Main" font-size="10" transform="translate(378.99 172.7)"><tspan>0.10</tspan></text></g><g fill="none" stroke-linecap="round" stroke-linejoin="round" stroke-width="0" color="#000"><path d="M371.99 151.67h-7.5"/><text fill="#000" font-family="KaTeX_Main" font-size="10" transform="translate(378.99 154.92)"><tspan>0.15</tspan></text></g><g fill="none" stroke-linecap="round" stroke-linejoin="round" stroke-width="0" color="#000"><path d="M371.99 133.89h-7.5"/><text fill="#000" font-family="KaTeX_Main" font-size="10" transform="translate(378.99 137.14)"><tspan>0.20</tspan></text></g><g fill="none" stroke-linecap="round" stroke-linejoin="round" stroke-width="0" color="#000"><path d="M371.99 116.12h-7.5"/><text fill="#000" font-family="KaTeX_Main" font-size="10" transform="translate(378.99 119.37)"><tspan>0.25</tspan></text></g><g fill="none" stroke-linecap="round" stroke-linejoin="round" stroke-width="0" color="#000"><path d="M371.99 98.34h-7.5"/><text fill="#000" font-family="KaTeX_Main" font-size="10" transform="translate(378.99 101.59)"><tspan>0.30</tspan></text></g><g fill="none" stroke-linecap="round" stroke-linejoin="round" stroke-width="0" color="#000"><path d="M371.99 80.56h-7.5"/><text fill="#000" font-family="KaTeX_Main" font-size="10" transform="translate(378.99 83.81)"><tspan>0.35</tspan></text></g><g fill="none" stroke-linecap="round" stroke-linejoin="round" stroke-width="0" color="#000"><path d="M371.99 62.79h-7.5"/><text fill="#000" font-family="KaTeX_Main" font-size="10" transform="translate(378.99 66.04)"><tspan>0.40</tspan></text></g><g fill="none" stroke-linecap="round" stroke-linejoin="round" stroke-width="0" color="#000"><path d="M371.99 45.01h-7.5"/><text fill="#000" font-family="KaTeX_Main" font-size="10" transform="translate(378.99 48.26)"><tspan>0.45</tspan></text></g><path fill="none" d="M28 45.01V205M371.99 45.01H28" color="#000"/><text stroke-linecap="round" stroke-linejoin="round" stroke-width="0" color="#000" font-family="KaTeX_Main" font-size="10" text-anchor="middle" transform="rotate(-90 68.255 56.755)"><tspan font-weight="bold">Duration </tspan><tspan> in milliseconds</tspan></text><text stroke-linecap="round" stroke-linejoin="round" stroke-width="0" color="#000" font-family="KaTeX_Main" font-size="10" text-anchor="middle" transform="translate(199.99 238.25)"><tspan>Operations / 10</tspan><tspan dy="-5" font-size="8">5</tspan></text><text stroke-linecap="round" stroke-linejoin="round" color="#000" font-family="KaTeX_Main" font-size="8" transform="translate(71.2 10.11)"><tspan>RedBlackBottomUp</tspan></text><g fill="none" stroke="currentColor" stroke-linecap="round" stroke-linejoin="round" color="#000"><path stroke="#F44336" d="M35.7 7.51h29.9M28 74.15l.36 11.95.36.11.37-.19.36-.24.36-6.72.36 5.68.36-.26.37-.43.36.02.36-7.78.36 6.79.37-.08.36.04.36.17.36-13.29.36 11.9.37-.83.36-.26.36-.07.36-6.28.36-1.25.37 7.08.36.07.36-.13.36-7.13.36 5.94.37.74.36-.37.36.21.36-.52.36-7.34.37 7.03.36-.88.36-.1.36.09.37-6.44.36 5.96.36-.19.36-.25.36.74.37-14.9.36 13.22.36.33.36.22.36-.68.37-12.36.36 12.9.36-.13.36-.85.36-.67.37 81.37.36 2.32.36.16.36.12.37.24.36.76.36-.41.36.23.36-.31.37.17.36-.6.36 1.41.36-.48.36-.3.37.48.36-.37.36.94.36-.02.36.19h.37l.36-.58.36.33.36-.03.37-.02.36.37.36-.21.36.36.36-.13.37.03.36.06.36.09.36-.12.36-.25.37.43.36.06.36.4.36.27.36.23.37-.12.36-.04.36.27.36.23.36-.19.37.14.36-.46.36.07.36-.08.37.1.36.74.36-.3.36-90.45.36 11.81.37 1.11.36.32.36.23.36-7.07.36 5.96.37-.79.36-.95.36-.11.36.06.36-6.84.37 6.29.36.24.36-.29.36-7.69.37-.29.36 6.62.36-.49.36-.08.36.01.37-13.51.36 13.3.36-1.45.36.03.36-.2.37-7.1.36 6.5.36.12.36-.07.36.07.37-6.68.36 6.1.36-.27h.36l.36-.39.37-6.64.36 6.41.36-.03.36-.25.37.09.36-12.94.36 12 .36-.46.36.29.37-.2.36-6.56.36-.73.36 6.55.36.32.37 81.25.36 1.49.36 1.31.36.1.36.31.37.18.36-.35.36.55.36.37.37-.28.36.44.36.25.36.55.36-.13.37.41h.36l.36-.16.36-.54.36.26.37.22.36.11.36-.07.36-.13.36.2.37.53.36-.02.36.39.36-.31.36.35.37.51.36-.04.36-.26.36-.1.37-.48.36.66.36-.23.36.56.36-.03.37-.8.36-.4.36.45.36.14.36.11.37-.03.36-.44.36-.11.36.55.36-.37.37.32.36.26.36-85.16.36 6.2.37-5.88.36 7.2.36.07.36-.08.36-1.32.37-7.35.36 6.76.36-.58.36-.02.36-.15.37-6.74.36 6.08.36-.36.36.44.36-.31.37-13.03.36 12.38.36.28.36-.47.37-.38.36-15.21.36 12.95.36.29.36.25.37-.36.36-6.57.36 6.33.36.29.36-.9.37.2.36-6.79.36 5.7.36.14.36.06.37-.1.36-6.2.36-.98.36 6.66.36-.27.37.04.36-6.75.36-.23.36 6.6.37.44.36-.38.36-.53.36-13.66.36 13.17.37 82.12.36.91.36.78.36.62.36.51.37.39.36.35.36.44.36.21.36.69.37.08.36-.48.36.3.36-.31.37-.08.36.36.36-.12.36.09.36.05.37.4.36.49.36-.08.36.07.36-.04.37-.09.36.15.36-.1h.36l.36.01.37.18.36.04.36-.09.36.2.36.12.37-.4.36.57.36.14.36.23.37-.23.36-.66.36-.26.36.17.36-.02.37-.2.36.18.36.11.36-.13.36.29.37-.32.36-.42.36-85.05.36 6.34.36 1.37.37-6.08.36 5.95.36-1.05.36-.02.37-.28.36-6.8.36 6.2.36.02.36-.29.37.08.36-13.62.36 12.57.36-.25.36.22.37-.55.36-6.26.36-.56.36 6.88.36-1.5.37-.08.36-6.57.36-.75.36 6.63.36-.06.37-.22.36-.13.36-7.32.36 6.41.37.04.36.05.36-.41.36-7.21.36 6.74.37.04.36.15.36-.78.36-13.27.36 12.72.37-.21.36.7.36-.6.36-12.91.36 12.58.37-.21.36.29.36-.12.36-6.72.37 89.58.36 1.19.36.75.36.82.36-.41.37.41.36 1.46.36-.23.36.08.36-.35.37-.23.36.54.36-.16.36.14.36-.16.37-.09.36 1.2.36-.18.36.29.37.38.36-.77.36.42.36.15.36-.1.37-.35.36-.41.36.44.36.08.36.26.37-.13.36.14.36.12.36-.32.36-.17.37.22.36.6.36-.23.36-.23.36-.34.37-.45.36-.05.36.54.36.24.37.28.36-.08.36-.27.36-.13.36-.18.37.24.36.63.36-86.27.36 6.42.36 1.15.37.6.36-7.72.36 6.2.36-.44.36-.37.37-.18.36-.07.36-6.62.36 6.53.37-.72.36.11.36-6.57.36-.83.36 6.62.37.15.36-.24.36-.25.36-13.87.36 12.04.37-.1.36.05.36.15.36-7.14.36 6.7.37-.21.36-.45.36-.26.36-6.76.36 6.44.37-.3.36.01.36-.08.36-6.87.37 6.46.36-.82.36-.03.36.01.36-6.64.37-.65.36 6.88.36-.08.36.04.36-6.92.37.19.36 5.89.36.59.36-.55.36 82.6.37 1.46.36 1.08.36.86.36.58.37.78.36-.46.36.13.36-.02.36-.27.37.32.36.1.36-.29.36.44.36-.14.37.71.36-.11.36.08.36.43.36-.68.37.25.36.36.36.01.36-.32.37.21.36-.51.36.66.36.14.36.11.37-.3.36.28.36-.23.36.06.36-.13.37.34.36-.18.36.19.36.1h.36l.37-.5.36-.13.36.33.36.32.36.22.37.03h.36l.36-.37.36.18.37-.8.36.61.36-86.08.36-.53.36 8.21.37-.87.36.14.36-.33.36-6.49.36 6.05.37.21.36-.19.36-.88.36-7.24.36 6.93.37-.08.36-.14.36-.42.36-13.46.37 12.89.36.18.36-.88.36-.65.36-13.24.37 12.67.36-.13.36.23.36-.22.36-6.61.37 6.45.36-.51h.36l.36.04.36-.84.37-7.08.36 6.77.36-.11.36-.1.36-1.09.37-6.73.36 6.75.36-.04.36-.14.37.04.36-13.37.36 13.46.36-.72.36.03.37-.33.36-13.44.36 13.2.36.58.36 82.31.37 1.59.36.78.36.32.36.72.36-.01.37.29.36.98.36-.18.36-.23.37.53.36.62.36-.27.36-.09.36.12.37.15.36-.46.36.08.36.06.36-.03.37-.11.36.14.36.11.36-.01.36-.15.37.39.36-.17.36.44.36-.54.36.23.37.58.36-.13.36-.24.36-.04.37.5.36.13.36.34.36.18.36-.62.37-.35.36.32.36-.21.36.64.36-.29.37-.01.36.21.36-.45.36-.31.36.23.37.48.36-87.95.36 7.24.36-6.27.37 6.73.36.16.36.05.36-.74.36-6.3.37 6.07.36.13.36-.13.36-.08.36-13.49.37 12.34.36.18.36.22.36-.36.36-6.41.37-.81.36 5.26.36-.16.36-.09.37-6.76.36-.89.36 6.89.36.33.36-.03.37-.69.36-6.73.36 6.64.36-.12.36-.04.37-.06.36-7.39.36 6.64.36-1.02.36.12.37.24.36-13.5.36 12.46.36.39.36-.24.37.23.36-13.99.36 12.76.36.46.37.2.36-.42.36-6.43.36-.18.36 89.41.37 1.34.36.53.36.92.36.43.36.38.37.34.36-.12.36.53.36.17.36.42.37-.32.36.73.36-.76.36.53.37-.18.36-.06.36.2.36-.22.36-.35.37.54.36.22.36-.19.36.11.36.7.37-.56.36-.01.36-.08.36.02.36-.12.37.34.36-.65.36.33.36.7.36-.1.37.23.36-.23.36.2.36.21.37-.33.36-.43.36.35.36-.04.36.16.37.21.36-.35.36.26.36.41.36-.37.37.52.36-87.97.36 5.96.36.52.36-5.92.37 6.21.36.02.36.09.36-.23.37-.19.36-7.31.36 6.48.36-.15.36-.07.37-6.78.36-.22.36 6.71.36-.03.36-.12.37-1.59.36-13.61.36 13.34.36-.39.36.18.37-.02.36-7.24.36 6.99.36-.69.36.03.37-.04.36-7.17.36 6.13.36.43.37-.05.36-.24.36-7.35.36 6.23.36-.19.37.15.36-.75.36-5.77.36-1.44.36 7.53.37-.41.36-.06.36-6.47.36-.61.36 6.46.37.45.36-.43.36.2.36 82.49.37 2.2.36 1.21.36.62.36.47.36-.1.37.05.36.04.36.77.36.23.36-.27.37.44.36-.19.36-.15.36.16.36.18.37-.19.36-.1.36.2.36.21.37.21.36-.36.36-.62.36.3.36.15.37.1.36-.26.36.53.36-.28.36.14.37.31.36.46.36.24.36.16.36-.62.37.22.36-.01.36-.28.36-.01.36-.17.37.26.36.3.36-.19.36-.08.37-.21.36.2.36-.11.36.21.36-.67.37.2.36-94.24.36 12.48.36 1.07.36.84.37.04.36-6.7.36 6.46.36-.31.36.14.37-1.14.36-6.5.36 6.41.36-.14.37-.36.36-.05.36-13.55.36 13.03.36-1.14.37-.04.36.04.36-6.52.36-.38.36 6.41.37-.14.36-.12.36-7.36.36 6.65.36.08.37-.32.36-.29.36.16.36-6.7.36 6.58.37-.49.36-.29.36.19.36-7.46.37 6.27.36.53.36-.22.36-.09.36-13.57.37 12.41.36.31.36.09h.36l.36-13.96.37 13.22.36.4.36-.17.36 82.82.36.8.37 1.6.36.71.36-.15.36-.03.37.07.36.6.36-.11.36.61.36-.42.37.15.36.25.36-.17.36-.18.36-.03.37-.02.36.8.36.8.36.28.36.23.37.07h.36l.36-.42.36-.14.36.35.37.12.36-.23.36-.19.36-.02.37 1.04.36-.03.36.2.36-.31.36.25.37-.05.36.09.36.27.36-.38.36-.49.37.06.36-.22.36.22.36.02.36-.73.37.31.36.61.36-.4.36-.15.37.4.36-89.04.36.04.36 7.99.36.42.37-.2h.36l.36-6.7.36 6.23.36-.39.37.2.36-.12.36-.2.36-7.57.36 7.11.37-.18.36.27.36-8.08.36-.52.37 6.64.36-.07.36.3.36-.14.36-14.27.37 14.04.36-.65.36-.04.36-.22.36-7.07.37 6.67.36.22.36-.19.36-.26.36-7.2.37 6.37.36.05.36-.03.36-.19.36-13.5.37 12.38.36.18.36-.1.36-.56.37-13.87.36 13.56.36-.02.36-.06.36.17.37-8.32.36-.76.36 5.64"/><use xlink:href="#c" color="#F44336" transform="matrix(3.75 0 0 3.75 354.25 73)"/><use xlink:href="#c" color="#F44336" transform="matrix(3.75 0 0 3.75 50.65 7.51)"/></g><text stroke-linecap="round" stroke-linejoin="round" color="#000" font-family="KaTeX_Main" font-size="8" transform="translate(71.2 25.11)"><tspan>RedBlackTopDown</tspan></text><g fill="none" stroke="currentColor" stroke-linecap="round" stroke-linejoin="round" color="#000"><path stroke="#3B75EA" stroke-dasharray="1.0,2.0" d="M35.7 22.51h29.9M28 102.06l.36.49.36-.77.37-.78.36-13.22.36 12.16.36.62.36.26.37-1.18.36-4.71.36-.6.36 5.52.37 1.06.36-.64.36-7.22.36 5.85.36-.59.37.99.36-.64.36.08.36-5.21.36 6.67.37-1.1.36-.39.36-1.17.36-5.12.36 5.8.37-.46.36-1.36.36-.1.36-12.51.36 12.07.37-.33.36 1.36.36-.05.36-13.24.37 11.93.36.52.36-1.46.36.73.36-7.51.37 7.23.36-.33.36.06.36-.15.36-6.75.37 6.12.36-.81.36-.52.36.68.36-.18.37 62.19.36-.06.36.35.36.12.37-.22.36.18.36.07.36.44.36-.24.37-.08.36.74.36.15.36.02.36-.07.37.29.36-.04.36.16.36.19.36-.41.37.1.36.15.36-.46.36.56.37-.86.36.32.36.24.36.01.36-.18.37-.19.36.5.36-.24.36.25.36.13.37.08.36.79.36.65.36-.22.36.6.37-.19.36-.49.36.27.36.43.36-.11.37-.02.36.36.36-.41.36-.02.37.52.36.03.36-.2.36-70.62.36 9.35.37 1.3.36.12.36-6.22.36.33.36 5.02.37.88.36.2.36-.81.36-13.79.36 13.32.37-.37.36.5.36-.99.36-4.84.37 6.58.36-.73.36-.84.36.14.36-6.59.37 4.73.36.39.36.57.36-.45.36-13.52.37 12.6.36.19.36-.22.36.03.36-8.7.37 2.21.36 5.42.36-.06.36-.17.36-5.04.37-1.12.36 6.6.36-1.34.36.26.37-.55.36-5.68.36 5.23.36.64.36-.33.37-.78.36-7.51.36 7.05.36.55.36.14.37 62.23.36.41.36.22.36 1.2.36.12.37-.06.36-.13.36-.21.36-.51.37.7.36.06.36-.18.36.45.36.02.37-.22.36.03.36-.11.36.14.36.33.37-.44.36.63.36-.48.36.21.36-.11.37.73.36.36.36-.07.36.26.36.03.37.16.36-.5.36.18.36.93.37-.21.36-.86.36.57.36-.06.36.17.37-.28.36.2.36.42.36-.14.36.23.37-.11.36.32.36.14.36.14.36.36.37-.12.36-.12.36-66.13.36-9.23.37 14.16h.36l.36.54.36-.67.36-12.29.37 12.54.36.07.36-1.18.36.7.36-6.9.37-.68.36 6.56.36.82.36-.05.36-6.66.37 6.49.36-1.19.36.79.36-.65.37-.05.36-6.66.36 6.84.36-.85.36-.83.37-6.34.36-.97.36 6.34.36.45.36-.03.37-.26.36-13.2.36 13.07.36.86.36-.03.37-.2.36-8 .36 6.02.36 1.18.36-.45.37-.78.36-6.85.36 6.37.36-.73.37-.09.36-.58.36-3.82.36 6.09.36-1.6.37 62.73.36 1.81.36.41.36.05.36-.32.37-.19.36.17.36.16.36.19.36-.27.37.19.36.31.36-.19.36.66.37-.18h.36l.36.56.36-.39.36-.22.37.02.36.63.36-.18.36.4.36-.46.37.4.36.08.36-.04.36-.01.36-.06.37-.31.36-.05.36.97.36-.09.36.29.37-.09.36.11.36.18.36-.35.37-.07.36.46.36-.36.36.21.36.4.37.06.36-.37.36.22.36.3.36.21.37-.14.36-.17.36-66.23.36 4.53.36-12.45.37 12.99.36.34.36-.34.36.31.37-6.33.36-1.48.36 7.01.36.44.36.02.37-7.24.36 6.12.36.77.36-.8.36-.29.37.63.36-7.14.36 5.64.36.2.36.18.37.15.36-7.05.36 6.54.36-.32.36-.39.37-.53.36-13.27.36 12.72.36 1.14.37.65.36-2.17.36-10.79.36 11.99.36-1.22.37.13.36.28.36-5.68.36 5.71.36-1.44.37-.25.36.45.36-6.34.36 5.56.36-.69.37.8.36.39.36-.9.36-7.35.37 69.55.36 1.74.36.39.36.32.36.48.37.17.36.29.36-.67.36.13.36-.05.37.28.36.41.36-.74.36.33.36-.17.37.28.36.05.36.22.36-.11.37.01.36.2.36.13.36.34.36-.36.37.23.36-.23.36.62.36.16.36-.4.37.31.36.17.36-.28.36.31.36-.18.37.33.36-.33.36.07.36-.41.36.62.37-.18.36.14.36.64.36-.19.37-.56.36-.11.36.09h.36l.36.59.37.07.36.12.36-65.22.36 3.5.36.33.37-6.27.36.85.36 6.85.36-.82.36-.8.37.48.36-13.17.36 12.25.36-.09.37.17.36.5.36-6.53.36 6.29.36.03.37-.73.36-.67.36-6.43.36 6.3.36.73.37-.43.36-.83.36-6.46.36 6.71.36-.27.37.11.36-.93.36-5.97.36.53.36 5.41.37-.32.36 1.25.36-7.97.36-.42.37 6.58.36.32.36-.23.36-1.09.36-5.73.37 6.64.36-1.13.36-.59.36-.18.36-5.54.37 6.73.36-.12.36-1.23.36.1.36 62.32.37 1.4.36.07.36.07.36.11.37.72.36.29.36.43.36-.22.36-.24.37.32.36.18.36-.22.36-.23.36.2.37.44.36.51.36-.14.36.36.36.1.37.11.36.1.36-.69.36.09.37.47.36-.22.36.21.36-.43.36.21.37.56.36-.3.36.44.36-.5.36.2.37.13.36-.21.36-.07.36.46.36-.15.37.05.36.26.36.33.36.28.36-.53.37-.02.36-.05.36.13.36-.08.37.36.36-.46.36-78.69.36 16.93.36.61.37 1.23.36.86.36-13.77.36 12.2.36.34.37.15.36-.82.36-6.44.36-1.1.36 7.52.37-.27.36.25.36-6.42.36 6.24.37-.91.36-.12.36-.71.36 1.33.36-7.29.37 5.51.36-.84.36.56.36-7.41.36.29.37 6.65.36.69.36-.66.36-.25.36-13.6.37 15.2.36-1.51.36-.17.36-1.19.36-11.36.37 11.16.36.24.36-1.54.36.99.37-6.85.36 6.24.36-.44.36.21.36.49.37-7.15.36 6.68.36-.71.36-.14.36 63.49.37 1.31.36.44.36.08.36.08.36-.09.37.5.36.02.36-.02.36.01.37.06.36-.02.36-.13.36.32.36.01.37.36.36-.46.36.15.36.71.36-.3.37.26.36.02.36.09.36-.04.36.55.37-.48.36-.32.36.32.36.52.36-.07.37.28.36-.07.36.44.36-.1.37-.51.36.62.36-.28.36.2.36.05.37-.08.36-.41.36.14.36-.26.36.49.37.12.36-.05.36.44.36-.37.36.57.37.27.36-67.42.36-3.03.36 1.54.37 7.7.36.41.36-.62.36-7.1.36-.04.37 6.3.36-1.07.36 1.03.36.21.36-5.45.37 5.75.36-.17.36.26.36-1.2.36-6.99.37 5.93.36 1.42.36-1.46.36.07.37-6.64.36 5.99.36-.5.36-.68.36.31.37-12.21.36 12.46.36-.33.36-.97.36 2.16.37-13.13.36 11.54.36-.22.36.55.36-.13.37-6.53.36 5.63.36-.92.36.02.36.44.37-7.87.36 6.52.36 1.14.36.08.37-1.05.36-.21.36-5.95.36 5.72.36 62.55.37 1.49.36-.11.36.35.36.24.36.17.37.79.36.04.36-.36.36.31.36-.16.37.39h.36l.36-.06.36-.12.37.27.36.18.36.12.36.12.36.1.37.53.36-.25.36-.04.36.45.36-.3.37.41.36-.41.36.33.36.52.36.28.37.18.36-.59.36.34.36-.59.36-.13.37.15.36-.43.36.62.36-.23.37-.26.36.18.36.45.36.1.36-.17.37.25.36.45.36-.11.36.2.36.43.37-.07.36-68.2.36 4.44.36-5.19.36.35.37 6.54.36.46.36-.57.36.1.37-12.54.36 12.33h.36l.36.18.36.75.37-7.66.36 6.53.36-.18.36-.1.36-1.12.37-5.52.36 5.64.36-.06.36-.42.36.6.37-6.79.36 5.65.36-.31.36 1.67.36-.83.37-6.94.36-.6.36 7.64.36-.37.37-.51.36-7.86.36-.43.36 6.99.36 1.03.37-1.17.36-.81.36-7.02.36 6.57.36-.52.37.29.36.9.36-6.12.36 4.96.36-.82.37 1.02.36-1.2.36-6.7.36 71.38.37.62.36.33.36.02.36.42.36.09.37.55.36-.5.36.43.36-.11.36-.68.37.4.36-.16.36.45.36.08.36-.38.37.38.36.17.36-.19.36.47.37-.23.36.15.36.08.36-.02.36.1.37.13.36.55.36.21.36.11.36.1.37-.49.36-.05.36.63.36-.15.36-.63.37.4.36.26.36.1.36.11.36.35.37-.4.36.31.36-.06.36-.53.37.89.36-.69.36.18.36.34.36.06.37.23.36-67.97.36 5.4.36.09.36 1.18.37-13.66.36 13.94.36-.99.36.61.36-1.25.37-6.44.36.5.36 6.49.36-1.07.37 1.05.36-6.35.36 5.46.36-.79.36.81.37.1.36-.62.36-5.94.36 6.15.36-.67.37-.56.36-7.08.36.28.36 7.28.36-.44.37-.68.36 1 .36-13.32.36 12.05.36-.39.37.45.36.61.36-14.42.36 12.14.37-.34.36 1.01.36-.39.36-7.39.36 6.01.37.87.36-.03.36-1.07.36-6.33.36 6.68.37-.37.36-.58.36-.22.36 63.52.36 1.67.37.59.36.27.36.08.36-.14.37.35.36.27.36.1.36-.34.36-.05.37.26.36-.2.36-.09.36-.28.36.27h.37l.36.43.36.45.36-.06.36-.29.37.62.36-.2.36.31.36-.07.36-.03.37.44.36.4.36.23.36-.36.37.07.36.55.36-.12.36-.11.36-.17.37-.19.36-.26.36.39.36.3.36-.79.37.78.36-.23.36.34.36-.12.36.21.37-.21.36-.04.36.47.36.25.37.37.36-74.47.36 4.57.36 7.2.36-.06.37.5.36-6.77.36-.65.36 6.14.36.65.37.8.36-.1.36-13.8.36 12.5.36-.06.37.36.36-.67.36-5.34.36 5.79.37-.84.36-.18.36.49.36-7.77.36 6.98.37-.04.36.27.36.56.36-14.58.36 12.31.37 1.78.36.2.36-1.03.36-7.28.36.13.37 6.81.36.05.36-.74.36-6.74.36 6.87.37-.97.36-.51.36-.46.36 1.34.37-7.59.36 6.12.36-.66.36.69.36-1.33.37-6.64.36 5.96.36.78"/><use xlink:href="#d" color="#3B75EA" transform="matrix(3.75 0 0 3.75 67.83 98.89)"/><use xlink:href="#d" color="#3B75EA" transform="matrix(3.75 0 0 3.75 50.65 22.51)"/></g><text stroke-linecap="round" stroke-linejoin="round" color="#000" font-family="KaTeX_Main" font-size="8" transform="translate(241.1 10.11)"><tspan>RedBlackRelaxedBottomUp</tspan></text><g fill="none" stroke="currentColor" stroke-linecap="round" stroke-linejoin="round" color="#000"><path stroke="#00C853" d="M205.6 7.51h29.9M28 86.96l.36-.45.36-.19.37-5.87.36 5.4.36-.15.36-.74.36-.18.37-.59.36-6.57.36 5.76.36.15.37-.22.36-5.88.36-1.36.36 6.62.36-.35.37-1.17.36-.27.36-13.36.36 13.01.36-.39.37-.03.36-.13.36-13.18.36 12.1.36.45.37.26.36-.48.36-6.18.36 5.79.36.23.37-.12.36-1.12.36-6.1.36 5.43.37.62.36-.49.36.11.36-6.68.36.69.37 5.15.36.14.36-.2.36-6.18.36-1.59.37 6.91.36.67.36-.08.36-.82.36-13.04.37 123.55.36.71.36.45.36.44.37.2.36.18.36.2.36.18.36-.37.37.33.36-.17.36.24.36-.27.36.42.37.33.36.22.36-.51.36-.05.36.36.37.24.36-.14.36-.18.36-.04.37.08.36.19.36-.02.36-.38.36.13.37-.21.36.54.36-.11.36-.21.36.22.37-.47.36-.23.36-.04.36.15.36-.24.37.22.36.66.36.36.36-.77.36-.24.37.26.36.83.36-.68.36.32.37.63h.36l.36-1.21.36-110.63.36 5.33.37 1.02.36.65.36-6.37.36 5.52.36-.14.37-.51.36-.76.36-6.55.36 6.34.36-.06.37-.04.36-.14.36-12.93.36 10.6.37-.14.36.09.36-.31.36-6.86.36-.08.37 6.26.36.38.36-.49.36-6.12.36 6 .37.02.36-.25.36.07.36-.35.36-6.8.37 5.79.36-.13.36-.2.36-.08.36-6.37.37 6.17.36.03.36.06.36-.78.37-13.15.36 12.51.36-.2.36-.44.36.13.37-12.56.36 12.55.36-.22.36-1.12.36.42.37 111.75.36.61.36.47.36-.06.36.08.37.34.36.81.36-.52h.36l.37.4.36.2.36-.03.36.02.36.11.37.37.36.02.36-.12.36-.07.36.03.37.27.36-.16.36-.09.36.75.36.04.37-.9.36.26.36-.08.36.38.36-.52.37.58.36.26.36-.2.36-1.01.37.43.36.15.36.24.36.22.36.05.37-.24.36.12.36-.67.36.5.36-.17.37.94.36-.4.36.04.36.06.36.36.37-.73.36-.07.36-119.07.36 13.09.37.89.36.19.36.08.36-6.45.36 5.89.37-.48.36.11.36-.62.36-.01.36-6.9.37 6.61.36-.21.36-1.21.36-6.8.36-.76.37 6.87.36-.27.36.18.36-.79.37-13.44.36 12.41.36.52.36.02.36-.1.37-7.41.36 6.91.36.05.36.19.36-.92.37-6.21.36 6.23.36-.66.36-.41.36.1.37-6.91.36 6.56.36-.29.36-.13.36-.38.37-6.13.36-.51.36 6.68.36-.26.37.28.36-7.28.36-1.07.36 6.22.36.08.37 112.09.36.65.36.28.36.22.36.59.37.17.36-.12.36.19.36.08.36.07.37.32.36-.01.36.44.36.36.37-.5.36-.21.36.3.36.4.36.39.37-.76.36.16.36.14.36.37.36-.32.37.34.36-.04.36.46.36-.47.36.1.37-.03.36.56.36-1.18.36.08.36-.12.37.46.36-.08.36.14.36.57.37.15.36-1.22.36.14.36.2.36.08.37.15.36.22.36-.04.36.31.36-.35.37-.71.36.3.36-112.84.36 6.14.36-5.06.37 6.72.36-.05.36-.42.36.07.37-6.66.36 5.99.36-.08.36-.04.36-.61.37-6.46.36 4.96.36-.33.36-.23.36.2.37-12.91.36 12.42.36-.11.36-.14.36-.61.37-12.57.36 12.24.36-.08.36-.43.36.12.37-6.62.36 6.44.36-.39.36-.67.37.13.36-6.34.36 5.55.36.43.36-.23.37.1.36-6.66.36-1.24.36 7 .36-.04.37-.53.36-6.05.36-.99.36 6.72.36-.41.37-.86.36.11.36-13.12.36 12.76.37 112.78.36.26.36.69.36.18.36.49.37.03.36-.34.36.36.36.45.36.29.37-.2.36.11.36.39.36.05.36-.1.37.06.36-.33.36.56.36-.19.37.02.36.21.36.4.36-.9.36.58.37.44.36-.24.36-.15.36.54.36-.81.37.62.36-1.07.36-.03.36.54.36.41.37-.25.36-.21.36.49.36.43.36-.29.37-.94.36.25.36.31.36.14.37.07.36.28.36.58.36-.31.36-.86.37-.4.36-.36.36-113.23.36 6.54.36 1.33.37-5.86.36 5.75.36.14.36-.44.36-.25.37-7.07.36 6.4.36.1.36.08.37-1.67.36-13.04.36 12.43.36-.2.36.16.37-.22.36-7.19.36-.19.36 6.37.36.17.37.07.36-6.18.36-.69.36 6.78.36-.13.37.09.36-1.01.36-7.07.36 6.83.36-.5.37.05.36.13.36-7.16.36 6.41.37-.13.36-.69.36.1.36-13.33.36 12.63.37-.24.36.06.36.19.36-13.22.36 11.6.37.28.36-.36.36.19.36-6.63.36 119.73.37.3.36.62.36.18.36.16.37-.3.36.63.36.46.36-.14.36-.08.37.56.36.21.36.35.36-1.36.36.53.37.12.36.28.36.09.36.69.36-.59.37.46.36-.2.36.05.36.42.37.28.36-.88.36.41.36.32.36-.2.37-.5.36-.21.36.09.36-.17.36.34.37.33.36.05.36.25.36-.02.36-.68.37-.5.36.01.36-.09.36-.06.36.51.37.01h.36l.36-.63.36.43.37-.1.36.17.36-113.61.36 6.25.36 1.65.37-.14.36-6.18.36 6.03.36.11.36-.79.37.57.36-.47.36-6.54.36 4.93.36-.24.37-.23.36-6.46.36-.69.36 6.45.37-.38.36-.26.36-.1.36-13.34.36 12.89.37.13.36-.46.36.05.36-6.42.36 6.43h.37l.36-.84.36.15.36-6.99.36 5.79.37.38.36-.22.36-.26.36-6.22.36 5.15.37.47.36-.02.36.2.36-7.26.37-.22.36 6.65.36.35.36-1.52.36-6.69.37-.45.36 6.7.36-.13.36.4.36 112.39.37.87.36.27.36.58.36-.25.36.52.37-.09.36.36.36-.35.36.25.37.42.36.04.36-.22.36.33.36-.23.37.52.36.13.36.16.36.22.36.17.37-.36.36.66.36-.47.36.02.36.08.37.36.36-.06.36.16.36-.33.36-.73.37.11.36.38.36-.18.36.14.37.64.36-.43.36-.33.36-.05.36.32.37-.63.36.08.36-.03.36.16.36.07.37.1.36-.89.36.24.36-.11.36.35.37-.43.36-113.7.36.26.36 7.5.37.56.36.24h.36l.36-6.93.36 6.54.37-.24.36-.07.36-.48.36-7.39.36 5.87.37-.5.36.28.36.04.36-13.11.36 12.17.37-.02.36-.35.36-.64.36-6.41.37-.79.36 6.69.36.35.36-.26.36-6.39.37 5.33.36.02.36.16.36-.25.36-.05.37-6.24.36 5.87.36-.15.36-.88.36.03.37-6.76.36 6.48.36-.47.36-.1.36-.02.37-12.55.36 11.65.36-.21.36-.27.37.05.36-14.01.36 13 .36.46.36 113.32.37.49.36.67.36-.47.36.67.36.09.37.17.36.02.36.47.36.03.36.35.37-.2.36-.09.36.62.36.03.37-.06.36.18.36.29.36.18.36-.1.37-.46.36.18.36.6.36-.4.36.13.37.48.36.16.36-.13.36-1.15.36.66.37-.07.36.6.36-.11.36-.8.36.07.37.03.36-.1.36.01.36-.02.37-.1h.36l.36.28.36-.19.36.59.37-.98.36-.06.36.02.36.14.36-.33.37.19.36-114.3.36 6.84.36-4.68.36 6.68.37-.14.36-.34.36.07.36-6.61.37 6.36.36-1.04.36-.72.36-.35.36-13.03.37 12.61.36.1.36-.14.36-.24.36-6.7.37-.71.36 6.83.36-.03.36-.51.36-6.6.37-.71.36 6.54.36.44.36-1.05.36-.08.37-6.63.36 6.26.36-.22.36.46.37-.57.36-6.38.36 5.66.36-.21.36-.04.37.13.36-13.77.36 13.48.36-.12.36.1.37-.64.36-14.04.36 12.41.36.45.36-.19.37-.05.36-6.18.36-.5.36 119.37.37.78.36-.28.36.63.36.39.36.32.37.09.36.45.36-.23.36.42.36-.26.37.03.36.32.36-.09.36.16.36.39.37.51.36.22.36-.41.36-.26.37.34.36.48.36-.34.36.15.36.21.37-.19.36.2.36-.79.36.08.36-.1.37.35.36-.8.36.36.36.48.36.27.37-.74.36.27.36.54.36-.46.36-.62.37.23.36.15.36.09.36-.83.37.02.36.15.36-.11.36.35.36.27.37-.01.36-114.7.36 6.67.36 1.18.36-5.63.37 6.25.36-.02.36.2.36-.54h.36l.37-8.41.36 6.51.36-.16.36-.14.37-6.5.36-.59.36 6.25.36.14.36-.51.37.03.36-13.69.36 13.24.36-.29.36.16.37-.39.36-6.69.36 5.72.36.09.36.11.37-.24.36-6.87.36 6.45.36-.11.36.03.37-.62.36-6.13.36 6.17.36-.42.37-.63.36.22.36-6.88.36.08.36 6.11.37-.94.36-.09.36-6.72.36-.08.36 6.65.37-.51.36.24.36.03.36 112.92.36.45.37.29.36.43.36.33.36.09.37.17.36.24.36.32.36-.15.36-.23.37.23.36.25.36.29.36-.05.36.63.37.28.36-.63.36-.55.36.57.36-.05.37.36.36.36.36-.12.36.3.36.3.37-1.27.36.45.36.12.36-.02.37-1.14.36.66.36.38.36-.27.36.16.37.3.36.01.36.35.36-.12.36-.32.37-.11.36.56.36-.8.36-.23.36-.32.37.33.36-.12.36.08.36.28.37-.27.36-121.55.36 13.87.36 1.46.36.3.37-.37.36-6.49.36 6.63.36-.05.36-1.78.37.03.36-7.03.36 6.46.36-.15.36.08.37-.36.36-12.95.36 12 .36.26.37-.21.36-.09.36-7.13.36.53.36 6.53.37.25.36-.89.36-6.84.36 5.93.36-.01.37-.16.36.29.36-.67.36-6.22.36 6.04.37-.11.36.08.36-.13.36-6.94.36 6.71.37-.54.36.1.36-.45.36-14.35.37 12.61.36.51.36-.27.36.18.36-13.95.37 13.3.36-.16.36-.16"/><use xlink:href="#a" color="#00C853" transform="matrix(3.75 0 0 3.75 125.4 188.56)"/><use xlink:href="#a" color="#00C853" transform="matrix(3.75 0 0 3.75 220.55 7.51)"/></g><text stroke-linecap="round" stroke-linejoin="round" color="#000" font-family="KaTeX_Main" font-size="8" transform="translate(241.1 25.11)"><tspan>RedBlackRelaxedTopDown</tspan></text><g fill="none" stroke="currentColor" stroke-linecap="round" stroke-linejoin="round" color="#000"><path stroke="#FFAB00" stroke-dasharray="4.5,2.0,0.5,2.0,0.5,2.0" d="M205.6 22.51h29.9M28 101.73l.36.64.36-1.03.37-13.42.36 13.47.36-.68.36-.09.36.05.37-14.38.36 13.97.36-.03.36-.49.37.48.36-6.75.36 5.57.36-.05.36-.32.37.84.36-7.36.36 5.92.36 1.16.36 1.27.37-1.41.36-5.92.36 4.42.36 1.55.36-1.4.37.11.36-7.33.36-.36.36 6.8.36-.94.37.24.36.65.36-12.46.36 12.04.37-.76.36.6.36-1.07.36-7 .36 5.97.37.53.36-.04.36-.59.36-6.68.36 6.49.37-.44.36-.52.36-.75.36-5.9.36 6.24.37 93.28.36.5.36.43.36.26.37.12.36.28.36.11.36.4.36-.24.37.13.36-.29.36.87.36-.26.36.12.37.41.36-.05.36-.34.36-.12.36.33.37.02.36.13.36-.19.36-.32.37.46.36-.15.36-.08.36.17.36.27.37-.2.36.12.36.7.36-.08.36-.32.37-.39.36-.45.36-.45.36.52.36-.03.37.21.36.37.36.41.36-.94.36.55.37.07.36.66.36-.96.36.4.37.26.36.16.36-1.17.36-94.4.36 3.17.37 2.27.36-13.05.36 11.86.36.76.36-.78.37 1.13.36-6.98.36-.58.36 5.68.36.8.37-.83.36-7.02.36 5.71.36.53.37 1.52.36-1.04.36-.77.36-5.13.36 4.46.37.1.36-.23.36-.43.36-6.09.36 5.07.37-.2.36.47.36-.19.36-12.14.36 11.16.37.95.36-.57.36 1.25.36-14.39.36 12.69.37.13.36.25.36-.48.36-6.51.37 5.81.36-.26.36-.24.36-.25.36-6.87.37 5.71.36-.01.36-.15.36.39.36.91.37 94.66.36.76.36.43.36-.14.36.35.37.18.36.36.36-.19.36-.03.37.08.36.23.36-.21.36.16.36-.14.37.7.36-.58.36-.22.36.55.36-.31.37.16.36-.04.36.17.36.58.36-.19.37-.73.36-.17.36.08.36.38.36-.21.37.26.36.21.36-.43.36-.49.37.56.36.04.36.16.36.38.36.02.37-.67.36.37.36-.66.36.48.36-.09.37.55.36-.3.36.28.36.12.36.12.37-.7.36.32.36-100.93.36 9.02.37.99.36.39.36-6.6.36-.4.36 6.77.37.19.36-.22.36-.55.36-13.58.36 12.02.37.75.36.07.36.18.36-6.91.36 6.91.37-.8.36 1.03.36-.73.36-6.67.37 5.61.36.73.36-.52.36.46.36-13.23.37 12.23.36-.74.36-1.2.36.98.36-6.85.37.18.36 6.25.36-.8.36.81.36-6.99.37-1.13.36 6.43.36-.9.36 1.39.36-.71.37-6.6.36 6.15.36.39.36-1.52.37.31.36-6.69.36 6.83.36 1.12.36.33.37 93.8.36.69.36.27.36.36.36.14.37.46.36-.13.36.12.36.18.36-.22.37.08.36.33.36.36.36.17.37-.24.36.01.36.16.36.04.36.42.37-.2.36-.31.36.33.36.1.36-.37.37.3.36-.15.36.19.36-.53.36.53.37-.21.36.45.36-1.03.36.07.36-.56.37.5.36.01.36.18.36.33.37.27.36-.79.36.16.36-.18.36.09.37.27.36.15.36-.09.36.6.36-.16.37-.84.36.36.36-96.65.36-6.98.36 12.88.37 1.08.36-1.23.36 1.18.36-13.35.37 12.98.36-1.65.36.18.36-.64.36-5.55.37-.71.36 7.1.36.13.36-.93.36-7.34.37 6.55.36.34.36-.72.36-.02.36-.23.37-5.8.36 5.12.36-.15.36.49.36-6.52.37-1.59.36 6.06.36.75.36.15.37.22.36-13.27.36 12.54.36-.24.36-.05.37-.3.36-6.48.36 6.75.36-.5.36.41.37-1.01.36-6.65.36 5.91.36-.55.36.44.37.17.36-6.34.36 6.31.36-.71.37 96.06.36.32.36.68.36.35.36.28.37.02.36-.09.36.18.36.13.36.39.37.23.36-.07.36.03.36-.02.36-.73.37.14.36.03.36.4.36-.28.37.31.36.17.36.99.36-1.09.36.26.37-.02.36-.01.36-.13.36-.01.36-.04.37.02.36-.85.36.21.36-.01.36.27.37.28.36.41.36-.03.36.27.36-.1.37-.36.36-.02.36.13.36.21.37.08.36.2.36.49.36-.38.36-.26.37-.57.36-.48.36-94 .36 2.38.36-12.45.37 12.38.36.84.36 1.13.36-.82.36-7.31.37.61.36 5.4.36-.14.36-.39.37.18.36-5.34.36 5.47.36.65.36.16.37-.37.36-6.44.36 5.56.36-.16.36 1.17.37-1.49.36-5.88.36 4.67.36.48.36-.02.37-.38.36-12.98.36 13.5.36-1.13.36-.04.37-.38.36-13.22.36 12.27.36.4.37-.21.36.24.36-6.89.36 5.84.36.53.37-.39.36-.64.36-6.17.36 5.11.36 1.48.37-.19.36.99.36-.46.36-6.56.36 101.26.37.33.36.55.36.02.36.3.37-.36.36.3.36.39.36.15.36-.01.37.23.36.1.36.24.36-.62.36.57.37-.49.36.55.36-.11.36.32.36.05.37.33.36-.69.36.67.36.04.37-.38.36.04.36.49.36-.16.36-.11.37-.69.36-.27.36-.27.36.26.36.29.37-.11.36.24.36.41.36-.1.36-.37.37.12.36-.2.36.11.36-.21.36.59.37.16.36-.42.36-.72.36.24.37.09.36.34.36-95.59.36 4.16.36.77.37-5.59.36-.04.36 5.8.36-.82.36-.01.37.56.36-15.19.36 13.58.36.66.36 1.16.37-.6.36-6.71.36 5.18.36-.21.37.52.36-1.96.36-5.86.36 7.19.36-.06.37-.41.36-1.88.36-5.2.36 5.08.36-.15.37.49.36 1.1.36-7.41.36.65.36 5.35.37 1 .36-.92.36-7.17.36-1.07.36 7.8.37-.31.36-.83.36-.99.36-4.94.37 5.65.36.14.36-.96.36-.34.36-4.89.37 5.7.36-.7.36.25.36-.78.36 96.33.37 1.02.36.04.36.55.36-.45.36.44.37.16.36.54.36-.09.36-.26.37.67.36.19.36-.57.36-.08.36-.62.37.67.36-.06.36.17.36.11.36.14.37-.3.36.1.36.03.36.01.36-.07.37.59.36-.5.36.3.36-.42.36-.38.37.31.36-.24.36.04.36-.11.37.44.36.52.36.52.36-.24.36-.28.37-.56.36.1.36.41.36-.12.36-.23.37.02.36-.68.36.57.36-.36.36.09.37.02.36-108.39.36 15.49.36 1.39.37.91.36-.52.36-13 .36 12.42.36-.23.37.23.36-.94.36-5.61.36.24.36 6.37.37-.93.36 1.19.36-6.2.36 5.35.36.53.37-.83.36.73.36-1.7.36-6.52.37 5.76.36.62.36-1.31.36-6.2.36.28.37 7.91.36-1.62h.36l.36-.54.36-12.75.37 11.33.36 1.04.36-.5.36.08.36-12.07.37 12.29.36-.35.36-.13.36-.54.36-7.15.37 5.76.36.81.36-.08.36 1 .37-7.14.36 6.4.36-.27.36-.4.36 95.42.37.66.36.61.36-.11.36.42.36.34.37-.04.36-.08.36.41.36.07.36.18.37-.48.36-.1.36.49.36.38.37.19.36-.41.36.06.36.43.36-.18.37-.05.36.12.36.21.36-.04.36.24.37.22.36-.14.36-.02.36-1.32.36-.3.37-.16.36.41.36-.24.36.48.36.14.37.21.36-.38.36.67.36.01.37-.12.36-.43.36.58.36-.13.36.41.37-.6.36-.35.36-.09.36.07.36-.15.37.66.36-96.76.36-2.04.36 1.92.36 6.98.37-.51.36-.51.36-6.1.36-1.1.37 6.9.36-.49.36.43.36-.51.36-6.3.37 4.92.36.42.36.09.36-1.6.36-6.32.37 7.26.36-.8.36.05.36-.44.36-6.99.37 6.36.36.11.36-.8.36 1.53.36-14.75.37 14.52.36-.45.36-1.12.36.79.37-13.36.36 11.15.36 1.2.36-.06.36-.88.37-6.22.36 6.36.36-.38.36-.66.36-.06.37.75.36-6.29.36 6.6.36-.4.36-.81.37.55.36-6.54.36 5.2.36 97.08.37.61.36-.23.36.53.36.06.36.45.37-.03.36.36.36.04.36.15.36-.7.37.22.36-.08.36-.29.36.39.36.09.37.2.36.37.36-.19.36-.2.37.44.36.32.36-.34.36.18.36.23.37-.27.36-.05.36-.9.36.24.36-.23.37.51.36-.32.36.39.36.29.36.21.37-.69.36.38.36-.05.36.1.36-.49.37.29.36-.19.36.13.36-.56.37-.27.36.36h.36l.36.26.36.36.37-.18.36-96.76.36 4.7.36 1.02.36-12.97.37 12.87.36.04.36-.4.36-.78.36-12.81.37 13.11.36.57.36-.22.36-.06.37-5.2.36 4.89.36.8.36-1.57.36.62.37-7.14.36 7.33.36-.71.36-.75.36-.4.37-6.82.36 6.01.36.72.36.4.36-.62.37-6.76.36-.22.36 5.29.36.13.36-.19.37-7.44.36.89.36 5.93.36-.66.37.47.36.12.36-7.1.36 5.19.36.26.37.65.36-.61.36-6.58.36 6.58.36.83.37-.6.36.33.36-6.96.36 102.39.36.49.37.47.36-.05.36.57.36-.17.37-.02.36.72.36.41.36-.15.36-.62.37.18.36.11.36.08.36.39h.36l.37.31.36-.14.36-.27.36.44.36.24.37-.12.36-.66.36.52.36.09.36-.15.37-1 .36.44.36-.32.36.63.37-.64.36-.05.36.24.36.49.36-.27.37-.28.36.33.36.3.36-.07.36-.09.37-.1.36.42.36-.4.36.03.36-.52.37-.01.36-.03.36.45.36-.09.37.06.36-96.12.36 3.53.36 1.12.36.3.37-12.69.36 12.99.36-.53.36.01.36.37.37-6.86.36.17.36 5.33.36.2.36-.16.37-6.21.36 5.63.36 1.23.36-.88.37-.22.36-.67.36-6 .36 6.02.36-.12.37-1.23.36-5.92.36-.6.36 7.21.36-.36.37-.93.36.42.36-14.24.36 13.03.36.71.37.2.36-.02.36-14.02.36 12.78.36.23.37-.26.36-.42.36-8.22.36 7.73.37.28.36-.96.36-.11.36-5.72.36 4.71.37.5.36.06.36.75"/><use xlink:href="#d" color="#FFAB00" transform="matrix(3.75 0 0 3.75 182.98 93.83)"/><use xlink:href="#d" color="#FFAB00" transform="matrix(3.75 0 0 3.75 220.55 22.51)"/></g><path fill="none" d="M28 45.01V205M371.99 45.01H28" color="#000"/></svg>