<svg xmlns="http://www.w3.org/2000/svg" xmlns:xlink="http://www.w3.org/1999/xlink" viewBox="0 0 400 250"><path fill="none" d="M0 0h400v250H0z"/><defs><path id="b" stroke="currentColor" stroke-width=".267" d="M-1-1h2v2h-2z"/><path id="d" fill="currentColor" stroke="currentColor" stroke-width=".267" d="M-1-1h2v2h-2z"/><path id="a" stroke="currentColor" stroke-width=".267" d="m0-1.33-1.33 2h2.66z"/><use xlink:href="#b" id="c" stroke="currentColor" transform="rotate(45)"/></defs><path fill="none" stroke="#333" stroke-linecap="round" stroke-linejoin="round" stroke-width=".1" d="M46.1 205V45.01" class="gridline" color="#000"/><g fill="none" stroke-linecap="round" stroke-linejoin="round" stroke-width="0" color="#000"><path d="M46.1 205v-7.5m0-152.49v7.5"/><text fill="#000" font-family="KaTeX_Main" font-size="10" text-anchor="middle" transform="translate(46.1 215.75)"><tspan> 1</tspan></text></g><path fill="none" stroke="#333" stroke-linecap="round" stroke-linejoin="round" stroke-width=".1" d="M82.31 205V45.01" class="gridline" color="#000"/><g fill="none" stroke-linecap="round" stroke-linejoin="round" stroke-width="0" color="#000"><path d="M82.31 205v-7.5m0-152.49v7.5"/><text fill="#000" font-family="KaTeX_Main" font-size="10" text-anchor="middle" transform="translate(82.31 215.75)"><tspan> 2</tspan></text></g><path fill="none" stroke="#333" stroke-linecap="round" stroke-linejoin="round" stroke-width=".1" d="M118.52 205V45.01" class="gridline" color="#000"/><g fill="none" stroke-linecap="round" stroke-linejoin="round" stroke-width="0" color="#000"><path d="M118.52 205v-7.5m0-152.49v7.5"/><text fill="#000" font-family="KaTeX_Main" font-size="10" text-anchor="middle" transform="translate(118.52 215.75)"><tspan> 3</tspan></text></g><path fill="none" stroke="#333" stroke-linecap="round" stroke-linejoin="round" stroke-width=".1" d="M154.73 205V45.01" class="gridline" color="#000"/><g fill="none" stroke-linecap="round" stroke-linejoin="round" stroke-width="0" color="#000"><path d="M154.73 205v-7.5m0-152.49v7.5"/><text fill="#000" font-family="KaTeX_Main" font-size="10" text-anchor="middle" transform="translate(154.73 215.75)"><tspan> 4</tspan></text></g><path fill="none" stroke="#333" stroke-linecap="round" stroke-linejoin="round" stroke-width=".1" d="M190.94 205V45.01" class="gridline" color="#000"/><g fill="none" stroke-linecap="round" stroke-linejoin="round" stroke-width="0" color="#000"><path d="M190.94 205v-7.5m0-152.49v7.5"/><text fill="#000" font-family="KaTeX_Main" font-size="10" text-anchor="middle" transform="translate(190.94 215.75)"><tspan> 5</tspan></text></g><path fill="none" stroke="#333" stroke-linecap="round" stroke-linejoin="round" stroke-width=".1" d="M227.15 205V45.01" class="gridline" color="#000"/><g fill="none" stroke-linecap="round" stroke-linejoin="round" stroke-width="0" color="#000"><path d="M227.15 205v-7.5m0-152.49v7.5"/><text fill="#000" font-family="KaTeX_Main" font-size="10" text-anchor="middle" transform="translate(227.15 215.75)"><tspan> 6</tspan></text></g><path fill="none" stroke="#333" stroke-linecap="round" stroke-linejoin="round" stroke-width=".1" d="M263.36 205V45.01" class="gridline" color="#000"/><g fill="none" stroke-linecap="round" stroke-linejoin="round" stroke-width="0" color="#000"><path d="M263.36 205v-7.5m0-152.49v7.5"/><text fill="#000" font-family="KaTeX_Main" font-size="10" text-anchor="middle" transform="translate(263.36 215.75)"><tspan> 7</tspan></text></g><path fill="none" stroke="#333" stroke-linecap="round" stroke-linejoin="round" stroke-width=".1" d="M299.57 205V45.01" class="gridline" color="#000"/><g fill="none" stroke-linecap="round" stroke-linejoin="round" stroke-width="0" color="#000"><path d="M299.57 205v-7.5m0-152.49v7.5"/><text fill="#000" font-family="KaTeX_Main" font-size="10" text-anchor="middle" transform="translate(299.57 215.75)"><tspan> 8</tspan></text></g><path fill="none" stroke="#333" stroke-linecap="round" stroke-linejoin="round" stroke-width=".1" d="M335.78 205V45.01" class="gridline" color="#000"/><g fill="none" stroke-linecap="round" stroke-linejoin="round" stroke-width="0" color="#000"><path d="M335.78 205v-7.5m0-152.49v7.5"/><text fill="#000" font-family="KaTeX_Main" font-size="10" text-anchor="middle" transform="translate(335.78 215.75)"><tspan> 9</tspan></text></g><path fill="none" stroke="#333" stroke-linecap="round" stroke-linejoin="round" stroke-width=".1" d="M371.99 205V45.01" class="gridline" color="#000"/><g fill="none" stroke-linecap="round" stroke-linejoin="round" stroke-width="0" color="#000"><path d="M371.99 205v-7.5m0-152.49v7.5"/><text fill="#000" font-family="KaTeX_Main" font-size="10" text-anchor="middle" transform="translate(371.99 215.75)"><tspan> 10</tspan></text></g><g fill="none" stroke-linecap="round" stroke-linejoin="round" stroke-width="0" color="#000"><path d="M371.99 205h-7.5"/><text fill="#000" font-family="KaTeX_Main" font-size="10" transform="translate(378.99 208.25)"><tspan>0.00</tspan></text></g><g fill="none" stroke-linecap="round" stroke-linejoin="round" stroke-width="0" color="#000"><path d="M371.99 185h-7.5"/><text fill="#000" font-family="KaTeX_Main" font-size="10" transform="translate(378.99 188.25)"><tspan>0.10</tspan></text></g><g fill="none" stroke-linecap="round" stroke-linejoin="round" stroke-width="0" color="#000"><path d="M371.99 165h-7.5"/><text fill="#000" font-family="KaTeX_Main" font-size="10" transform="translate(378.99 168.25)"><tspan>0.20</tspan></text></g><g fill="none" stroke-linecap="round" stroke-linejoin="round" stroke-width="0" color="#000"><path d="M371.99 145h-7.5"/><text fill="#000" font-family="KaTeX_Main" font-size="10" transform="translate(378.99 148.25)"><tspan>0.30</tspan></text></g><g fill="none" stroke-linecap="round" stroke-linejoin="round" stroke-width="0" color="#000"><path d="M371.99 125h-7.5"/><text fill="#000" font-family="KaTeX_Main" font-size="10" transform="translate(378.99 128.25)"><tspan>0.40</tspan></text></g><g fill="none" stroke-linecap="round" stroke-linejoin="round" stroke-width="0" color="#000"><path d="M371.99 105.01h-7.5"/><text fill="#000" font-family="KaTeX_Main" font-size="10" transform="translate(378.99 108.26)"><tspan>0.50</tspan></text></g><g fill="none" stroke-linecap="round" stroke-linejoin="round" stroke-width="0" color="#000"><path d="M371.99 85.01h-7.5"/><text fill="#000" font-family="KaTeX_Main" font-size="10" transform="translate(378.99 88.26)"><tspan>0.60</tspan></text></g><g fill="none" stroke-linecap="round" stroke-linejoin="round" stroke-width="0" color="#000"><path d="M371.99 65.01h-7.5"/><text fill="#000" font-family="KaTeX_Main" font-size="10" transform="translate(378.99 68.26)"><tspan>0.70</tspan></text></g><g fill="none" stroke-linecap="round" stroke-linejoin="round" stroke-width="0" color="#000"><path d="M371.99 45.01h-7.5"/><text fill="#000" font-family="KaTeX_Main" font-size="10" transform="translate(378.99 48.26)"><tspan>0.80</tspan></text></g><path fill="none" d="M28 45.01V205M371.99 45.01H28" color="#000"/><text stroke-linecap="round" stroke-linejoin="round" stroke-width="0" color="#000" font-family="KaTeX_Main" font-size="10" text-anchor="middle" transform="rotate(-90 68.255 56.755)"><tspan font-weight="bold">Rotations</tspan><tspan> / Operation</tspan></text><text stroke-linecap="round" stroke-linejoin="round" stroke-width="0" color="#000" font-family="KaTeX_Main" font-size="10" text-anchor="middle" transform="translate(199.99 238.25)"><tspan>Operations × 10</tspan><tspan dy="-5" font-size="8">5</tspan></text><text stroke-linecap="round" stroke-linejoin="round" color="#000" font-family="KaTeX_Main" font-size="8" transform="translate(71.2 10.11)"><tspan>RedBlackBottomUp</tspan></text><g fill="none" stroke="currentColor" stroke-linecap="round" stroke-linejoin="round" color="#000"><path stroke="#F44336" d="M35.7 7.51h29.9M28 72.97l.36-.8.36-2.28.37 1.56.36-4 .36.56.36.28.36 2.32.37-1.12.36-3.32.36 5.64.36-2.64.37 1.64.36 2.84.36-5.64.36 2.32.36-2.6.37.2.36-2.96.36 2.96.36.76.36-.36.37 2.64.36-3.64.36.6.36 1.32.36-2.24.37.6.36 1.68.36-1.04.36-.08.36 1.48.37-1.24.36-3.04.36 3.88.36-2.72.37 2.28.36.64.36 1.84.36-1.92.36-.32.37-.08.36.28.36 1.92.36-1.96.36-4.12.37 3.52.36 1.8.36-1.76.36 2.84.36-2 .37 67.55.36-2.2.36.12.36-2.76.37.88.36-3.92.36.24.36 1.84.36-2.96.37-1.32.36 2.16.36 1.32.36-1.08.36.12.37-3.32.36-1.55.36.47.36 4 .36-2.08.37.44.36-1.04.36.8.36-3.11.37 3.23.36.36.36-1.88.36.08.36-1.55.37 2.19.36-2.91.36.72.36.52.36 1.27.37.88.36-3.07.36-3.04.36 4.39.36.76.37-1.79.36-1.32.36.92.36 2.19.36-3.95.37 2.64.36-1.8.36-.36.36.88.37 1.2.36-3.24.36 3.75.36-44.79.36-2.64.37-.68.36-3.28.36 3.28.36-2.52.36 1.6.37-2.8.36 2.36.36-7.2.36 3.04.36 2.6.37-4.16.36-1.44.36 2.32.36 2.32.37-1 .36-.36.36-6.12.36 5.68.36 2.4.37-2.64.36 2 .36-4.52.36 2.56.36 3.44.37-4.4.36-.12.36-2.16.36 2.28h.36l.37 2.4.36-1.36.36-5.48.36 2.92.36 2.08.37-2.6.36-1.96.36 4.76.36-2.16.37-2.28.36 4.04.36-2.36.36 3.64.36-1.64.37 1.4.36-3.12.36 1.8.36-1.48.36-1.88.37 66.55.36-1.36.36-1.48.36 3.92.36-4.2.37-.32.36-3.68.36 1.6.36 1.68.37-3.08.36 2.12.36-1.64.36-1.68.36 1.28.37 1.6.36.52.36-2.64.36 1.8.36-1.72.37-1.71.36.36.36 2.67.36.12.36-1.84.37-2.39.36-.64.36 3.11.36-5.15.36 2.88.37 1.43.36-1.15.36.44.36.4.37-.28.36.4.36-1.04.36-2.08.36-.24.37.88.36 1 .36-.4.36-.84.36 2.04.37-2.2.36-.64.36.64.36-.6.36 1.16.37.16.36-.16.36-40.36.36-2.56.37-4.88.36-.24.36 1.04.36-.12.36-2.32.37 1.36.36 2.76.36-6.4.36-.12.36 1.16.37-.04.36.68.36-.72.36-.12.36 1.84.37.76.36-1.08.36-1.84.36-3.68.37 3.48.36-.92.36 3.2.36-2.44.36 1.56.37-.28.36-1.44.36-3.32.36 1.92.36-2.2.37-1.52.36 4.2.36-.88.36 1.48.36-.88.37-2.28.36 5.28.36-2.28.36-3 .36 2.52.37 1.64.36-7.64.36 4.28.36 1.68.37-.4h.36l.36 1 .36-1.48.36.76.37 63.99.36-1.04.36-1.24.36.88.36-1.48.37-1.44.36 1.6.36-4.36.36 1.64.36-.04.37-3.75.36 1.15.36 2.4.36.48.37.84.36-2.28.36-2.43.36-.04.36-1.32.37 2.83.36 1.56.36-4.23.36.04.36 2.51.37.6.36-2.59.36-2.36.36.96.36 1.2.37-1.52.36 3.47.36-2.63h.36l.36 1.64.37-1.64.36-1.6.36 4.15.36-2.19.37-.8.36.48.36-3.76.36 2.36.36 1.32.37-1.56.36 2.24.36-2.32.36.76.36-4.44.37 2.44.36.4.36-38.96.36-1.6.36-3.6.37.88.36-.16.36-.72.36.28.37-3.08.36 3.68.36-4.2.36 1.16.36-4.04.37 3.52.36-.12.36-.32.36-1.6.36-2.84.37.92.36 1.2.36-2.68.36 2.72.36-1.16.37 1.36.36-1.64.36 1.92.36-.28.36-1.52.37-1.72.36 1.28.36 3.16.36-1.32.37-.2.36-4.56.36.8.36 2.72.36 2.28.37.4.36-3.16.36 1.08.36-1.56.36-.12.37 1.6.36.6.36-4.6.36 8.12.36-4.72.37-1.24h.36l.36-1.92.36 5.24.37 59.71.36-.52.36-1.64.36.84.36.76.37-.32.36-.92.36-1.64.36.08.36-2.44.37.44.36 1.52.36-2.6.36 1.24.36 1.24.37-1.84.36 2.12.36-.88.36 2.16.37-3.68.36-2.87.36 3.99.36-2.03.36.79.37 1.52.36-4.07.36 1.6.36-.52.36 2.35.37.72.36-4.47.36 4.03.36-3.47.36 1.64.37-1.56.36.8.36 3.79.36-2.83.36-5.56.37 3.44.36.92.36-1.12.36-3.84.37 3.76.36.08.36.04.36-3.76.36 5.88.37-2.48.36-.12.36-40.52.36-3 .36-.12.37-1 .36-4 .36 3.96.36.08.36-5.88.37 1.12.36.24.36 1.24.36-2.28.37.52.36 1.4.36-2.84.36-.08.36.24.37-2.92.36 3.88.36-4.8.36 4.92.36-4.12.37 1.76.36-1.52.36-.08.36.32.36 3.32.37.64.36-3.76.36 3.12.36-1.16.36.12.37-4 .36-.2.36 2.48.36-2.16.37 1.72.36-1.56.36-1.88.36 5.36.36-1.08.37.36.36-.28.36 3.2.36-4.64.36-2.4.37 3.48.36-.12.36.64.36-4.24.36 67.91.37-.52.36-2.4.36.36.36.04.37-.36.36 1.32.36-2 .36-3.56.36-1.83.37 2.15.36.64.36-.76.36.44.36-1.04.37 3.88.36-3.84.36.2.36-1.24.36-2.95.37 4.35.36-1.43.36-.28.36-.8.37-.04.36.16.36-2.12.36 1.08.36 1.92.37-1.2.36-2.8.36 3.92.36-3.12.36-.48.37 2.04.36-1.76.36 2.12.36-1.84.36 2.12.37.56.36-1.24.36 3.67.36-4.39.36 1.88.37-1.36.36-1.08.36 2.2.36-1.2.37.4.36-1.6.36-39.96.36-3.72.36-3.24.37.2.36-2.84.36.52.36 1.32.36 1.84.37-4.2.36 2.32.36.52.36-.16.36-2.8.37-.64.36 1.28.36 1.32.36-1.64.37-2.32.36-1.52.36 4.56.36-6.44.36 7.16.37-2.84.36-1.92.36-1.72.36 2.48.36 2.32.37-6.12.36 3.64.36-1.28.36.08.36 2.88.37-1.36.36-.76.36 1.8.36-.16.36-3.4.37 2.56.36-2.68.36 2.8.36-1.36.37-1.36.36 6.28.36-4.48.36-.52.36.52.37 4.04.36-2.44.36.76.36-1.92.36 66.71.37-4.76.36.92.36-2.36.36-1.04.36-1.16.37-.12.36 1.64.36.72.36-2.8.37 1.72.36.84.36-2.6.36-3.91.36 4.15.37.48.36-1.84.36-2.03.36 3.59.36-3.51.37 1.51.36.84.36-1.35.36-1.24.36 1.47.37-1.39.36 1.36.36-2.52.36-1.88.36 4.16.37-.52.36-1.64.36 2.59.36-3.43.37-1.28.36 2.44.36 2.55.36-2.03.36-2.04.37 1.88.36-3 .36 3.4.36 1.87.36-4.63.37-.04.36 3 .36-1.64.36-.76.36 2.32.37-1.12.36-42.6.36-1.52.36 1 .37-4.68.36 1.72.36-3.52.36 3.6.36-4.04.37 1.44.36-1.56.36-.24.36 1.56.36.48.37-4.16.36 1.44.36-.64.36-1.48.36-1.24.37 4.52.36-.92.36-2.04.36 1.36.37.28.36 1.36.36-3.28.36 3.32.36.08.37-4.28.36.12.36 2.28.36-2.96.36.12.37 1.32.36-1.24.36.28.36-.32.36 1.16.37 4.16.36-6 .36 2.32.36-2.2.36.68.37 1.36.36.44.36 2.52.36-.76.37.08.36-8.56.36 6.84.36-2.36.36 67.39.37-2.04.36-.44.36-2.32.36 2.44.36-2.92.37-.44.36 1.12.36-.56.36-4.24.36 3.2.37-.92.36-3.35.36 2.43.36.28.37-1.8.36 1.48.36-2.35.36-1.48.36 2.47.37-1.11.36-.48.36-3.08.36 3.72.36 2.51.37-3.99.36.92.36-.2.36.72.36-3.88.37 1.68.36-.72.36.52.36 2.79.36.08.37-4.27.36-.16.36 4.19.36-1.11.37-2.92.36.96.36 1.84.36-.8.36.28.37-.88.36 1.08.36.64.36-.04.36-4.16.37 1.08.36-40.24.36-3.8.36 1.88.36-1.64.37 1.04.36-3.8.36 2.84.36-4.52.37 1.96.36-2.36.36-.04.36-2.72.36-.84.37 3.52.36.8.36-2.8.36 2 .36.32.37-4.28.36 3.24.36-1.2.36-5.2.36 1.8.37 6.48.36-2.28.36 2 .36-5.04.36 1.28.37.84.36-1.64.36 1.08.36-.56.37-.48.36-1.32.36 2.6.36 1.36.36-3.28.37-1.84.36.6.36-.36.36 2.96.36 1.44.37.44.36-2.24.36.68.36-.88.36-3.2.37 3.96.36-1.92.36 2.92.36 62.63.37-.36.36-.04.36.2.36-2.24.36-.04.37-2 .36.56.36-1.12.36.4.36-1.24.37.28.36.04.36-1.56.36-.04.36 1.24.37.56.36-2.28.36-2.23.36 4.87.37-4.95.36.24.36.52.36.28.36.87.37.64.36-1.47.36-3.48.36 3.12.36.76.37-.92.36-2.52.36 2.88.36 1.35.36-3.87.37 3.24.36-.4.36-1.36.36 1.6.36-1.52.37-.48.36 2.67.36.28.36-4.59.37 2.2.36-4.48.36-.48.36 3.84.36-.36.37.44.36-41.08.36-2.8.36.24.36-.12.37-2.84.36.56.36 3.08.36-6.96.36 1 .37.76.36.4.36-2.4.36-.64.37.4.36-1.72.36 1.76.36 2.96.36-1.6.37-3.56.36-.88.36 2.6.36-1.04.36-1.2.37.4.36 1.92.36-.08.36-1 .36.04.37 1.04.36.68.36-4.12.36 3.92.36.64.37-3.72.36.4.36 3.08.36-4.92.37 4.6.36-1.76.36-2.16.36 3.6.36-2.56.37-.04.36.04.36-3.4.36 1.56.36 2.2.37.92.36-2.36.36 1.36.36 65.23.36-1.88.37-1.52.36-.8.36-2.96.36 3.08.37-2.48.36-1.12.36 1.36.36.56.36-.4.37-1.52.36-1.44.36.56.36-.76.36 5.28.37-7.23.36 2.91.36.4.36-1.79.36-.84.37 1.95.36 3.44.36-6.47.36 1.12.36.83.37-2.59.36 3.95.36-1.55.36-.12.37.87.36-1.31.36-2.28.36.64.36.6.37-.64.36.96.36-.64.36-.2.36-2.08.37 1.28.36 1.84.36-3.68.36.6.36 1.08.37 1.64.36-3.8.36 5.12.36-5.04.37 5.79.36-48.91.36 3.6.36-5.56.36 5.04.37-1.84.36-2.08.36.76.36-.44.36.4.37-5.12.36 2.76.36.68.36-3.12.36-.56.37-.88.36.96.36 3.4.36-.76.37-4.76.36-1.24.36 4.92.36-5.24.36.4.37 2.6.36 1 .36-6.52.36 4.12.36.6.37 1.12.36-.88.36-3.4.36 2.2.36 4.04.37-2.4.36-.32.36 1.8.36-5.64.36 2.56.37-.96.36 2.76.36 3 .36-4.48.37-2.08.36-.48.36 4.36.36-.28.36-2.2.37 1 .36.68.36-2.4"/><use xlink:href="#c" color="#F44336" transform="matrix(3.75 0 0 3.75 354.25 76.53)"/><use xlink:href="#c" color="#F44336" transform="matrix(3.75 0 0 3.75 50.65 7.51)"/></g><text stroke-linecap="round" stroke-linejoin="round" color="#000" font-family="KaTeX_Main" font-size="8" transform="translate(71.2 25.11)"><tspan>RedBlackTopDown</tspan></text><g fill="none" stroke="currentColor" stroke-linecap="round" stroke-linejoin="round" color="#000"><path stroke="#3B75EA" stroke-dasharray="1.0,2.0" d="M35.7 22.51h29.9M28 71.09l.36-.32.36-2.68.37 1.48.36-3.08.36.4.36 1.16.36.08.37.32.36-3.64.36 5.44.36-1.84.37 2.32.36 1.12.36-4.8.36 1.68.36-3.16.37 1.48.36-2.64.36 1.12.36 1.72.36-.12.37 2.04.36-2.36.36-.72.36 1.52.36-1.68.37 1 .36 1.36.36-1.4.36.2.36.92.37-.12.36-4.4.36 5.08.36-3.12.37 2.36.36.68.36 2.08.36-1.72.36-2.52.37 1.24.36 1.64.36.84.36-1.64.36-3.72.37 2.44.36.36.36.16.36 2.2.36-1.4.37 66.31.36-1.32.36.2.36-2.76.37-.08.36-4.2.36.64.36 1.72.36-4.15.37-.8.36 3.83.36-1.44.36.32.36.96.37-3.71.36-1.04.36-.32.36 4.67.36-2.87.37 1.79.36-1.27.36 1.03.36-5.55.37 5.11.36.04.36-2.99.36.28.36-2.08.37 3.28.36-3.84.36 2.52.36-.76.36 1.96.37 2.47.36-4.71.36-2.56.36 4.28.36 2.23.37-1.03.36-.56.36-2.12.36 3.04.36-6.92.37 3.36.36-1.04.36.84.36 2.48h.37l.36-5.12.36 7.83.36-51.27.36-.56.37 1.96.36-4.6.36 3.72.36-2 .36.12.37-1.6.36 1.76.36-6.2.36 3.64.36 1.88.37-4.96.36-.64.36.8.36 1.2.37.56.36-.64.36-6.4.36 8.72.36-2 .37.16.36.84.36-3.16.36 2.2.36 3.32.37-5.08.36-.24.36-.96.36 1.88.36-.12.37 1.2.36-.04.36-4.2.36 2.6.36 1.52.37-2.4.36-4.44.36 7.04.36-2 .37-2 .36 4.96.36-4.08.36 3.76.36-3.12.37 3.44.36-3.24.36 2.24.36-2 .36-2.68.37 66.67.36-2.68.36.12.36 3.24.36-4.36.37-.24.36-3.15.36 1.27.36-.64.37-1.11.36 1.87.36-2.55.36.88.36-.88.37 1.35.36.8.36-2.15.36 1.47.36-1.79.37-1.08.36-1.28.36 3.52.36.12.36-.32.37-2.36.36.96.36.04.36-1.8.36 1.12.37.04.36 2.63.36-3.27.36 2.36.37-2.72.36 3.12.36-2.76.36-1.08.36-4.28.37 7.4.36-2.6.36 1.04.36-.64.36.24.37.92.36-2.12.36 3.24.36-1.64.36-.76.37 1.6.36-2.8.36-45.76.36 2.48.37-6.2.36.4.36 2.72.36 2.04.36-3.72.37 2.6.36-.88.36-4.56.36-2.36.36 5.28.37-4.32.36 2.16h.36l.36-.52.36 1 .37 2.6.36-2.6.36.04.36-4.16.37 2.04.36.36.36 2.84.36.04.36-1.52.37-1.08.36 2.16.36-4.56.36 1.8.36-2.4.37 1.8.36.56.36-1.4.36 3.32.36.08.37-2.44.36 2.12.36-.36.36-3.04.36 2.04.37 1.84.36-7.52.36 4.96.36.12.37-1.08.36-1.28.36 3.28.36-.96.36 1.16.37 63.15.36-2.24.36-.92.36 1.36.36-1.76.37-2.44.36.52.36-.64.36-.48.36.76.37-1.79.36-3.84.36 5.67.36.76.37-1.96.36.96.36-3.83.36 1.36.36-.36.37.2.36.48.36.52.36-4.72.36 4.52h.37l.36-2.4.36-1.68.36 1.68.36.24.37-1.88.36 4.39.36-3.63.36.84.36-1.36.37.6.36 1.4.36 1.52.36-2.44.37-2.68.36 2 .36-1.28.36.4.36 3 .37-3.04.36 3.8.36-3.44.36 1.8.36-4.28.37.88.36 5.56.36-45.84.36-3.76.36-1.32.37 1.88.36.68.36-3.04.36 1.84.37-2.64.36 4.28.36-6.04.36.72.36-2.56.37 3.24.36 1.12.36-2.68.36 1.04.36-4.12.37 1.24.36.32.36-3.72.36 3.6.36-1.44.37 2.16.36 1.48.36.68.36-1.64.36-3.8.37.64.36 2.08.36 1.4.36-.48.37.36.36-5.28.36 1.2.36 1.44.36 3.2h.37l.36-5.76.36 4.8.36-1.76.36-1.08.37 3.16.36-2.72.36-1.12.36 5.84.36-3.4.37-1.6.36.84.36-3.2.36 6.12.37 58.63.36-1.08.36-.24.36-1.32.36.44.37 1.08.36-1.36.36-.88.36.24.36-1.28.37-1.47.36.48.36-.28.36.64.36.51.37.64.36-2.91.36 2.95.36-.36.37-1.95.36-2 .36 1.96.36.84.36-2.44.37-.84.36 2.2.36-.04.36-.84.36 1.32.37-.84.36-2.24.36 5.23.36-5.55.36 2.44.37-.08.36-2.76.36 1.48.36-2.04.36 2.56.37.28.36-1.28.36 1.44.36-.88.37-.12.36-2.2.36 3.44.36-3.16.36 5.32.37-6.32.36 1.6.36-44.96.36.28.36 1.72.37-.96.36-3.12.36 4.32.36-2.84.36-5.24.37 4.24.36-.24.36-.28.36-6.44.37 3 .36 3.96.36-4.4.36-1.96.36 2.4.37-1 .36.6.36.28.36 2.12.36-3.6.37 2.68.36-4.76.36 2.08.36-.56.36 3.2.37 2.64.36-3.84.36-1.44.36 2.6.36-1 .37-4.76.36.48.36 4.4.36-6.8.37 4.52.36-1.24.36.96.36 1.72.36-.44.37.76.36-2.2.36 5.12.36-6.16.36.44.37 2.2.36-1.16.36.56.36-2.44.36 65.59.37-1.44.36 1.8.36-1.2.36-2.04.37 1.56.36-1.8.36.56.36-4.03.36.75.37 2.56.36-4.39.36 1.32.36-1.52.36-.12.37 3.87.36-1.91.36-.8.36-.92.36-2.36.37 1.96.36.08.36 1.28.36-1.92.37-.52.36-1.32.36.08.36 1.4.36.08.37.64.36-1.2.36.04.36-.28.36.76.37-.8.36-1.52.36 3.28.36-4.44.36 5.72.37-1.04.36-1.88.36 2.16.36-1.56.36.52.37-.24.36.16.36-1.48.36.12.37 4.07.36-5.15.36-43.44.36.12.36-1.52.37-4.4.36-.52.36 1.28.36 1.6.36.52.37-4.04.36 1.08.36 1.64.36 1.32.36-2.48.37-1.36.36.72.36-.04.36-.52.37-1.76.36 2.84h.36l.36-5.16.36 5.56.37-1.56.36-1.52.36-2.48.36 2.64.36-.64.37-4.12.36.28.36 2.64.36.48.36 2.24.37-1.16.36.44.36-1.2.36.88.36-.96.37.6.36-4.64.36 6.16.36-1.76.37.92.36 4.96.36-6.2.36 2.4.36-1.28.37 1.84.36-.44.36.16.36-.24.36 64.43.37-1.8.36-1.64.36-1.44.36-3.04.36-2.59.37 2.35.36-.76.36 1 .36-.72.37 2.8.36-1.84.36-2.47.36.36.36-.72.37 6.15.36-1.96.36-4.59.36-1.88.36 2.08.37 1.75.36-2.63.36-.36.36.28.36 2.59.37-.59.36-.8.36-.8.36-3.36.36 1.92.37.6.36-3 .36 5.16.36-3.56.37-1.52.36-.16.36 3.92.36 2.51.36-1.71.37-3.48.36 1.04.36-2.76.36 2.44.36.24.37-.68.36.36.36.52.36-2.36.36 4.24.37-.72.36-45.64.36-.48.36 1.36.37-4.36.36.32.36-1.64.36 2.44.36-3.84.37 1.56.36.68.36-1.96.36-.68.36 2.88.37-4.44.36 1.24.36.52.36-1.52.36-.56.37 1.6.36-.68.36-1.72.36 3.16.37-2.04.36 1.76.36-.72.36 2.24.36-2.04.37-2.32.36.76.36 2 .36-2.6.36-.32.37-1.44.36 2.24.36-.8.36.24.36.36.37 4.56.36-10.12.36 6 .36-.52.36-.12.37 1.8.36-.36.36-.52.36 1.6.37.64.36-6.32.36 3.72.36-.84.36 66.03.37-2.36.36-3.44.36.24.36-.64.36 2.52.37.08.36-2.48.36 1.6.36-4.71.36 2.99.37-1.76.36-.28.36-1.75.36-.8.37 1.8.36-2.72.36.92.36-2.04.36 3.36.37-2.16.36.08.36-4.68.36 5.68.36-.92.37.48.36 1.08.36-1.28.36.72.36-2.6.37.36.36-2.52.36 2.08.36 2.12.36 1.32.37-3.56.36-1.88.36 4.72.36-1.32.37-2.52.36 1.48.36-.08.36.24.36.92.37-.56.36 2.12.36-3.2.36.92.36-1.92.37 3.8.36-48.84.36-.36.36.04.36 1.6.37-.48.36-.8h.36l.36-2.8.37 2 .36-1.92.36-.04.36-2.28.36-2.04.37 3.88.36-2.6.36 1.92.36.12.36 1.2.37-6.04.36 3.56.36-.08.36-4.04.36 2.88.37 4.16.36-1.36.36-1.44.36-6.64.36 6.36.37-.48.36.56.36-.84.36-.44.37 2 .36-3.44.36.76.36 2.64.36-3.6.37.76.36-.4.36 1.4.36-1.76.36 4.28.37-1.12.36-1.64.36.4.36.2.36-2.92.37.32.36-1.44.36 5.92.36 60.95.37.92.36-1.68.36-.88.36-1.32.36-1.24.37.2.36.48.36-.96.36 2.12.36-3.56.37 1.68.36-1 .36.72.36-2.55.36-.44.37.16.36-2.36.36 1.6.36 1.52.37-.24.36-.2.36-.48.36-1.6.36.32.37-.76.36.84.36-1.64.36 2.28.36-1.64.37 3.67.36-5.07.36 2.2.36.96.36-3.6.37 3.36.36-1.4.36-.12.36-2.32.36 1.76.37 2.68.36.88.36.51.36-6.43.37 4.16.36-3.8.36.28.36 3.88.36-.32.37-.52.36-43.84.36-4.16.36 2.96.36.24.37-3.16.36.32.36 3.4.36-7.56.36.76.37 1.12.36.24.36-1.4.36-2.8.37 1.88.36-2.2.36 2.32.36 3.96.36-2.8.37-5.16.36.04.36 3.8.36.44.36-2.52.37-.44.36 1.04.36-.28.36-.44.36.32.37 3.2.36-1.72.36-3 .36 5.24.36-2.72.37-2.4.36 3.48.36.28.36-5.24.37 2.4.36.52.36 1.8.36 1.44.36-5.04.37 1.68.36-.6.36-2.4.36 1.08.36 3.6.37-2.32.36-.12.36 2.72.36 63.23.36-2.8.37-1.8.36.48.36-4.04.36 5.84.37-6.23.36-.32.36 1.35.36.2.36 1.96.37-3.79.36-1.6.36.6.36 1.4.36 1.47.37-3.31.36 3.83.36-5.31.36 2.96.36-1.88.37 2.32.36 3.99.36-9.79.36 2.8.36 2.36.37-3.16.36 5.03.36-4.99.36-2.12.37 2.96.36 1.44.36-3.6.36 3.56.36-3.4.37 1.36.36 2.64.36-3.32.36 1.44.36-.68.37 1.32.36-1.36.36.32.36-2.56.36 3.04.37-.4.36-4 .36 5.32.36-.76.37 1.48.36-48.8.36 2.36.36-3.08.36 1.48.37-2.24.36.12.36.4.36-3.08.36 3.8.37-5 .36 4.56.36-.28.36-5.28.36.68.37.2.36 1.76.36-.44.36-1.4.37-1.88.36-1.2.36 5.04.36-6.68.36.24.37 7 .36-3 .36-4.2.36 2.2.36 3.72.37-.84.36-2.24.36-1.56.36 1.68.36 2.72.37-.84.36-2.48.36 1.24.36-4.76.36 4.52.37-3.28.36 4.8.36-.52.36-3.2.37.28.36-1.08.36 5.32.36-.96.36-4.36.37 1.4.36 2.4.36-3.32"/><use xlink:href="#d" color="#3B75EA" transform="matrix(3.75 0 0 3.75 67.83 67.73)"/><use xlink:href="#d" color="#3B75EA" transform="matrix(3.75 0 0 3.75 50.65 22.51)"/></g><text stroke-linecap="round" stroke-linejoin="round" color="#000" font-family="KaTeX_Main" font-size="8" transform="translate(241.1 10.11)"><tspan>RedBlackRelaxedBottomUp</tspan></text><g fill="none" stroke="currentColor" stroke-linecap="round" stroke-linejoin="round" color="#000"><path stroke="#00C853" d="M205.6 7.51h29.9M28 72.97l.36-.8.36-2.28.37 1.56.36-4 .36.56.36.28.36 2.32.37-1.12.36-3.32.36 5.64.36-2.64.37 1.64.36 2.84.36-5.64.36 2.32.36-2.6.37.2.36-2.96.36 2.96.36.76.36-.36.37 2.64.36-3.64.36.6.36 1.32.36-2.24.37.6.36 1.68.36-1.04.36-.08.36 1.48.37-1.24.36-3.04.36 3.88.36-2.72.37 2.28.36.64.36 1.84.36-1.92.36-.32.37-.08.36.28.36 1.92.36-1.96.36-4.12.37 3.52.36 1.8.36-1.76.36 2.84.36-2L46.47 205h17.74l.36-105.99.36-3.48.37-.96.36-2.76.36-1.84.36-2.96.36 2.08.37-1.36.36-1.08.36-3.48.36-.16.36 2.72.37-3.76.36-2.2.36 1.16.36 2.2.37-3 .36.64.36-3.08.36 3.04.36-.76.37-1.56.36-.72.36-.32.36-.8.36 2.52.37-4.36.36 2.64.36-5.08.36 2.32.36-1.04.37 2.16.36.76.36-5.44.36 1.36.36 2.84.37-1.64.36-4.12.36 5.4.36-4.88.37.16.36 3.76.36-2.68.36 2.88.36-3.08.37 4.56.36-6.44.36 2.64.36-.76.36-2.48.37 136.43h17.74l.36-104.23.36-3.52.37-1.96.36-2.08.36-2.52.36 2.4.36-3.36.37-.24.36 2.56.36-5.92.36-2.12.36-.96.37 3.36.36-2.88.36-1.68.36 2.36.36-4 .37 5.76.36-1.28.36-3.76.36-1.08.37 2.2.36-2.48.36 2.56.36-3.32.36.52.37-1.36.36 1.4.36-3.08.36.32.36-2.96.37.44.36.08.36 1.88.36.88.36-1.76.37-2.48.36 1.68.36-.08.36-1.24.36.72.37 1.32.36-7.52.36 4.6.36.76.37-.96.36-.8.36 2.28.36-.24.36-1.44.37 133.23h17.74l.36-102.07.36-4.88.36-1.88.37-.68.36-1.96.36-.72.36-1.92.37-.32.36-.6.36-2 .36-.24.36-2.28.37-.24.36.28.36-.4.36-1.52.36-1.88.37-1.64.36 2.52.36-3.08.36.64.36-2.36.37 3.6.36-1.68.36-.28.36-1.16.36-.4.37-.76.36-1.16.36 2.16.36-3.2.37.88.36-2.6.36-.64.36 6.4.36.08.37-3.04.36-1.52.36.72.36-1.4.36-1.72.37.32.36.76.36.96.36 1.76.36-4.24.37.48.36 1.64.36-3.92.36 4.28.37 130.91h17.74l.36-101.91.36-5.52.36.8.37-.16.36-6.4.36 2.56.36-.96.36-5.24.37-.04.36 1.44.36-1.76.36-3.4.37-.48.36 3.92.36-5.32.36 2.44.36-2.52.37-2.48.36.76.36-.72.36-1.36.36-1.36.37 2.16.36.08.36.88.36-1.96.36-.64.37 5.16.36-3.4.36-.12.36-1.4.36-1.68.37-2.68.36-1.72.36 5.6.36-3.88.37 1.4.36-1.28.36-.72.36.84.36 2.88.37-.44.36-1.08.36.48.36-3 .36-3.48.37 7.16.36-4.88.36 2.36.36-3.56.36 134.63h17.75l.36-102.35.36-5.64.36-1.16.37-4.88.36.8.36-2.92.36 3 .36-1.76.37-.72.36.44.36-1.56.36 1.12.36-3.56.37.16.36-2.12.36 1.28.36-1.76.37-1.2.36-.12.36-.36.36-4.56.36 5.16.37-2.16.36-2.92.36-2.64.36.2.36 3.48.37-1.2.36-.04.36-1.72.36-.96.36 2.04.37-.56.36-1.24.36.64.36.6.36-3.16.37 3.6.36-4.16.36 2.6.36-.16.37-1.4.36 2.8.36-1.76.36-2.4.36 1.56.37.92.36.76.36-.92.36.2.36 130.71h17.75l.36-101.71.36-2.84.36-2.68.37-2.92.36-2.04.36 1.56.36-2.68.36-4.28.37.8.36.52.36-4.08.36.72.36 3.76.37-6.84.36 1.2.36-.6.36-2.6.36 2.28.37 2.16.36-4.2.36-1.32.36 4.68.37-6.16.36 2.04.36-1.52.36 1.64.36.84.37-3.48.36-2.2.36 5.68.36-7.08.36.96.37-3.52.36 5.56.36-2.52.36-.12.36 3.12.37 2.72.36-8.8.36 3.16.36-1.76.36 2.44.37-3.12.36 2.48.36 2.2.36-.44.37-3 .36-3.6.36 3.2.36-1.52.36 133.91h17.75l.36-103.23.36-1.28.36-1.64.36-3.08.37.4.36-3.52.36 1.84.36-3.68.37.08.36-3.08.36 1.84.36-4.4.36-4.16.37 3.72.36-.36.36-2.36.36 2.08.36-1.04.37-2.16.36.64.36-2.32.36-2.48.36 1.72.37 1.96.36-.92.36.12.36-4 .36 2.16.37-.92.36.68.36-.64.36-2.12.37 1.48.36.4.36-.8.36.64.36-2.72h.37l.36-.96.36-.32.36.64.36.88.37 1.8.36-2.64.36 1 .36-1.8.36-.88.37 1.88.36-2.48.36 3.44.36 130.59h17.75l.36-103.51.36-3.08.36-1.52.36-.84.37-2.4.36-.04.36 1.16.36-6.12.36-.8.37 1.32.36.16.36-2.6.36-.92.37-.44.36 1.16.36-.08.36-.72.36-1.76.37-3.8.36 2.2.36 1.28.36-1.56.36-1.8.37.96.36.2.36-1.4.36-.2.36-3.76.37 4.52.36 1.56.36-7.48.36 4 .36-.8.37-1.08.36-2.16.36 3.8.36-4.28.37.04.36.56.36-.8.36 5 .36-6.6.37 1.96.36-.4.36-1.8.36 1.44.36 1.24.37-.92.36-.68.36 2 .36 129.79h17.75l.36-103.39.36-.56.36-5.48.36 2.64.37-4.6.36.04.36-.6.36-1.88.36-3.28.37-1.12.36 2.52.36.24.36-4.68.36-1.92.37.4.36 1.68.36.84.36-2.28.37-2.32.36-3.36.36 6.08.36-6.2.36.2.37 2.44.36-1.08.36-4.8.36 4.24.36.04.37.84.36-2.08.36-1.72.36-.6.36 3 .37-.56.36-1.28.36-3.8.36 1.6.36.76.37-2.64.36 8 .36-5.32.36-.6.37-2.32.36.08.36 2.44.36-1.48.36-1.72.37 2.24.36 1.28.36-3.36"/><use xlink:href="#a" color="#00C853" transform="matrix(3.75 0 0 3.75 125.4 205)"/><use xlink:href="#a" color="#00C853" transform="matrix(3.75 0 0 3.75 220.55 7.51)"/></g><text stroke-linecap="round" stroke-linejoin="round" color="#000" font-family="KaTeX_Main" font-size="8" transform="translate(241.1 25.11)"><tspan>RedBlackRelaxedTopDown</tspan></text><g fill="none" stroke="currentColor" stroke-linecap="round" stroke-linejoin="round" color="#000"><path stroke="#FFAB00" stroke-dasharray="4.5,2.0,0.5,2.0,0.5,2.0" d="M205.6 22.51h29.9M28 71.09l.36-.32.36-2.68.37 1.48.36-3.08.36.4.36 1.16.36.08.37.32.36-3.64.36 5.44.36-1.84.37 2.32.36 1.12.36-4.8.36 1.68.36-3.16.37 1.48.36-2.64.36 1.12.36 1.72.36-.12.37 2.04.36-2.36.36-.72.36 1.52.36-1.68.37 1 .36 1.36.36-1.4.36.2.36.92.37-.12.36-4.4.36 5.08.36-3.12.37 2.36.36.68.36 2.08.36-1.72.36-2.52.37 1.24.36 1.64.36.84.36-1.64.36-3.72.37 2.44.36.36.36.16.36 2.2.36-1.4.37 136.55h17.74l.36-107.55.36-1.64.37-1.36.36-2.04.36-3.16.36-1.96.36 1.24.37-1.24.36-.44.36-3.28.36.08.36 3.2.37-4.76.36-1.32.36.24.36 2.28.37-3.84.36 1.68.36-2.64.36.48.36-.12.37-.72.36-1.56.36.32.36-1.04.36 3.52.37-3.64.36.04.36-3.24.36 2.76.36-2.2.37 2.56.36.36.36-4.72.36 2.52.36 1 .37-3.2.36-3.08.36 6.16.36-4.08.37.44.36 2.56.36-4.2.36 3.36.36-.88.37 3.88.36-7.4.36 2.52.36.64.36-2.6.37 136.07h17.74l.36-105.71.36-3.64.37-1.04.36-.84.36-2.28.36 1.64.36-1.88.37-.24.36.68.36-5.84.36-2.2.36 1 .37.88.36-1.8.36-.6.36 1.88.36-3.96.37 5.72.36-2.52.36-1.96.36-2 .37 1.68.36-2.56.36 3.6.36-4.76.36 1.92.37-2.56.36 2.76.36-5.04.36 1.44.36-3.24.37 2.08.36-1.36.36 1.88.36.44.36-.76.37-1.28.36-.84.36.36.36-1.36.36 1.32.37-1 .36-5.28.36 4.08.36 1.28.37-1.44.36-1.76.36 2.88.36.88.36-3.48.37 134.83h17.74l.36-102.83.36-4.36.36-2.96.37 1.64.36-3.16.36-2.88.36 1.2.37-1.52.36.08.36-2.68.36.88.36-2.04.37-1 .36 1.92.36-1.6.36-.2.36-4.28.37-1.2.36 3.72.36-1.44.36-2.84.36-1.92.37 3.32.36-.92.36-.64.36.04.36-2.24.37 1.36.36-1.08.36-.72.36-.92.37 2.2.36-6.48.36 2.56.36 3.64.36 1.28.37-3.56.36-.8.36-.24.36-.08.36-1.76.37.24.36 1.04.36-1.12.36 1.04.36-.44.37-.64.36 1.76.36-4 .36 6.04.37 128.59h17.74l.36-103.07.36-4.76.36 1.12.37-.32.36-4.88.36.36.36-1.16.36-4.44.37.12.36 4.2.36-4.2.36-4.64.37 1.6.36 2.96.36-2.68.36-1.52.36-.64.37-1.48.36-.92.36.12.36-1.24.36-1.84.37 1.96.36.08.36 1.36.36-2.44.36.36.37 4.48.36-3.68.36-2.24.36 1.92.36-2.88.37-3.2.36-1.4.36 3.68.36-3.36.37.68.36 1.76.36-1.08.36.16.36 2.2.37-.96.36-1.36.36 2.48.36-2.68.36-2.96.37 4.2.36-3.68.36 3.36.36-2.32.36 132.87h17.75l.36-103.43.36-5.28.36-1.36.37-3.64h.36l.36-1.76.36 1.76.36-.32.37-2.32.36 2 .36-1.48.36 1.2.36-4.44.37-.76.36-2.16.36 3.08.36-3.2.37-1.8.36 3.16.36-3.08.36-2.88.36 4.64.37-2.12.36-3.28.36-1.2.36-1.6.36 4.84.37-1.96.36-3.12.36.24.36.08.36-.04.37 2.88.36-1.12.36-1.84.36 2.64.36-4.56.37 3.76.36-4.84.36 3.32.36-3.16.37 1.4.36 2.72.36-1.48.36-2.48.36-.28.37 2.84.36-.2.36-.28.36-.04.36 130.95h17.75l.36-102.59.36-3.32.36-1.96.37-2.24.36-.32.36-.16.36-2.92.36-2.36.37 1.36.36-2.96.36-3.12.36 1.56.36 2.16.37-4.4.36.04h.36l.36-2.24.36-.16.37 2.28.36-2.28.36-2.24.36 7.2.37-7.12.36 2.28.36-.76.36 1.16.36-.84.37-3.44.36-2.28.36 3.84.36-3.2.36-.4.37-2.48.36 3.12.36-1.12.36.32.36 3.12.37 1.36.36-10.44.36 5.16.36-2.28.36 1.64.37 1.2.36-1.52.36 3.8.36-.24.37-4.76.36-1.16.36 2.28.36-2.52.36 133.95h17.75l.36-103.27.36-3.72.36-.76.36-.28.37-1.64.36-2.16.36.36.36-3.08.37.36.36-2.72.36 2.8.36-5.56.36-.88.37 1.24.36-1.76.36-2.32.36 2.2.36.44.37-3.52.36 1.84.36-5.04.36-.96.36 3.72.37 2.72.36-.8.36-3.64.36-2.32.36 1.52.37-.44.36.32.36.36.36-2.44.37.64.36.68.36-2.52.36 3 .36-2.68.37-.84.36-3.72.36 3.48.36.76.36 3.36.37-1.44.36-3.68.36 3 .36-3.84.36.12.37 1.04.36-2.68.36 5.28.36 129.47h17.75l.36-103.95.36-4 .36.6.36-1.32.37-2.84.36-1.56.36 4.56.36-5.76.36-2.92.37-.32.36 2.96.36-3.92.36-2.92.37 2.16.36.4h.36l.36-.24.36-1.68.37-2.76.36.6.36.4.36-.12.36-1.92.37.52.36.04.36-1.04.36-.4.36-2.84.37 4.28.36-.12.36-5 .36 3.68.36-2.88.37.88.36-1.4.36 1.36.36-3.84.37 2.88.36-2.6.36.6.36 4.52.36-7.68.37 4.16.36-1.24.36-1.72.36-1.68.36 4.44.37-2.44.36.04.36 3 .36 129.03h17.75l.36-104.59.36-.36.36-4.16.36 1.76.37-4.88.36-.84.36.92.36-3.6.36-1.52.37-.24.36 1.4.36-.04.36-2.68.36-1.8.37-.28.36 2.76.36-1.88.36-1.52.37-.48.36-3.64.36 5 .36-5.64.36-1.96.37 4.08.36-1.24.36-4.72.36 3.32.36 2.44.37-.68.36-4.68.36 2.72.36-.6.36 2.16.37-2.12.36-1.52.36-1.72.36.04.36-1.12.37-1.28.36 6.12.36-3.44.36 1.28.37-4.56.36 1.8.36 2 .36-.84.36-3.8.37 1.28.36 2.96.36-3"/><use xlink:href="#d" color="#FFAB00" transform="matrix(3.75 0 0 3.75 182.98 83.49)"/><use xlink:href="#d" color="#FFAB00" transform="matrix(3.75 0 0 3.75 220.55 22.51)"/></g><path fill="none" d="M28 45.01V205M371.99 45.01H28" color="#000"/></svg>