<svg xmlns="http://www.w3.org/2000/svg" xmlns:xlink="http://www.w3.org/1999/xlink" viewBox="0 0 400 250"><path fill="none" d="M0 0h400v250H0z"/><defs><use xlink:href="#a" id="h" fill="currentColor" stroke="none"/><use xlink:href="#b" id="c" stroke="currentColor" transform="rotate(180)"/><use xlink:href="#d" id="e" stroke="currentColor" transform="rotate(45)"/><use xlink:href="#e" id="g" fill="currentColor" stroke="none"/><path id="d" stroke="currentColor" stroke-width=".267" d="M-1-1h2v2h-2z"/><path id="b" stroke="currentColor" stroke-width=".267" d="m0-1.33-1.33 2h2.66z"/><path id="f" stroke="currentColor" stroke-width=".267" d="M0 1.33 1.265.411.782-1.067l-1.564-.009-.483 1.487z"/><circle id="a" cx="0" cy="0" r="1" stroke="currentColor" stroke-width=".267"/></defs><path fill="none" stroke="#333" stroke-linecap="round" stroke-linejoin="round" stroke-width=".1" d="M46.1 205V45.01" class="gridline" color="#000"/><g fill="none" stroke="none" stroke-linecap="round" stroke-linejoin="round" stroke-width="0" color="#000"><path d="M46.1 205v-7.5m0-152.49v7.5"/><text fill="#000" font-family="KaTeX_Main" font-size="8" text-anchor="middle" transform="translate(46.1 215.1)"><tspan> 1</tspan></text></g><path fill="none" stroke="#333" stroke-linecap="round" stroke-linejoin="round" stroke-width=".1" d="M82.31 205V45.01" class="gridline" color="#000"/><g fill="none" stroke="none" stroke-linecap="round" stroke-linejoin="round" stroke-width="0" color="#000"><path d="M82.31 205v-7.5m0-152.49v7.5"/><text fill="#000" font-family="KaTeX_Main" font-size="8" text-anchor="middle" transform="translate(82.31 215.1)"><tspan> 2</tspan></text></g><path fill="none" stroke="#333" stroke-linecap="round" stroke-linejoin="round" stroke-width=".1" d="M118.52 205V45.01" class="gridline" color="#000"/><g fill="none" stroke="none" stroke-linecap="round" stroke-linejoin="round" stroke-width="0" color="#000"><path d="M118.52 205v-7.5m0-152.49v7.5"/><text fill="#000" font-family="KaTeX_Main" font-size="8" text-anchor="middle" transform="translate(118.52 215.1)"><tspan> 3</tspan></text></g><path fill="none" stroke="#333" stroke-linecap="round" stroke-linejoin="round" stroke-width=".1" d="M154.73 205V45.01" class="gridline" color="#000"/><g fill="none" stroke="none" stroke-linecap="round" stroke-linejoin="round" stroke-width="0" color="#000"><path d="M154.73 205v-7.5m0-152.49v7.5"/><text fill="#000" font-family="KaTeX_Main" font-size="8" text-anchor="middle" transform="translate(154.73 215.1)"><tspan> 4</tspan></text></g><path fill="none" stroke="#333" stroke-linecap="round" stroke-linejoin="round" stroke-width=".1" d="M190.94 205V45.01" class="gridline" color="#000"/><g fill="none" stroke="none" stroke-linecap="round" stroke-linejoin="round" stroke-width="0" color="#000"><path d="M190.94 205v-7.5m0-152.49v7.5"/><text fill="#000" font-family="KaTeX_Main" font-size="8" text-anchor="middle" transform="translate(190.94 215.1)"><tspan> 5</tspan></text></g><path fill="none" stroke="#333" stroke-linecap="round" stroke-linejoin="round" stroke-width=".1" d="M227.15 205V45.01" class="gridline" color="#000"/><g fill="none" stroke="none" stroke-linecap="round" stroke-linejoin="round" stroke-width="0" color="#000"><path d="M227.15 205v-7.5m0-152.49v7.5"/><text fill="#000" font-family="KaTeX_Main" font-size="8" text-anchor="middle" transform="translate(227.15 215.1)"><tspan> 6</tspan></text></g><path fill="none" stroke="#333" stroke-linecap="round" stroke-linejoin="round" stroke-width=".1" d="M263.36 205V45.01" class="gridline" color="#000"/><g fill="none" stroke="none" stroke-linecap="round" stroke-linejoin="round" stroke-width="0" color="#000"><path d="M263.36 205v-7.5m0-152.49v7.5"/><text fill="#000" font-family="KaTeX_Main" font-size="8" text-anchor="middle" transform="translate(263.36 215.1)"><tspan> 7</tspan></text></g><path fill="none" stroke="#333" stroke-linecap="round" stroke-linejoin="round" stroke-width=".1" d="M299.57 205V45.01" class="gridline" color="#000"/><g fill="none" stroke="none" stroke-linecap="round" stroke-linejoin="round" stroke-width="0" color="#000"><path d="M299.57 205v-7.5m0-152.49v7.5"/><text fill="#000" font-family="KaTeX_Main" font-size="8" text-anchor="middle" transform="translate(299.57 215.1)"><tspan> 8</tspan></text></g><path fill="none" stroke="#333" stroke-linecap="round" stroke-linejoin="round" stroke-width=".1" d="M335.78 205V45.01" class="gridline" color="#000"/><g fill="none" stroke="none" stroke-linecap="round" stroke-linejoin="round" stroke-width="0" color="#000"><path d="M335.78 205v-7.5m0-152.49v7.5"/><text fill="#000" font-family="KaTeX_Main" font-size="8" text-anchor="middle" transform="translate(335.78 215.1)"><tspan> 9</tspan></text></g><path fill="none" stroke="#333" stroke-linecap="round" stroke-linejoin="round" stroke-width=".1" d="M371.99 205V45.01" class="gridline" color="#000"/><g fill="none" stroke="none" stroke-linecap="round" stroke-linejoin="round" stroke-width="0" color="#000"><path d="M371.99 205v-7.5m0-152.49v7.5"/><text fill="#000" font-family="KaTeX_Main" font-size="8" text-anchor="middle" transform="translate(371.99 215.1)"><tspan> 10</tspan></text></g><g fill="none" stroke="none" stroke-linecap="round" stroke-linejoin="round" stroke-width="0" color="#000"><path d="M371.99 205h-7.5"/><text fill="#000" font-family="KaTeX_Main" font-size="8" transform="translate(378.99 207.6)"><tspan>0.50</tspan></text></g><g fill="none" stroke="none" stroke-linecap="round" stroke-linejoin="round" stroke-width="0" color="#000"><path d="M371.99 178.33h-7.5"/><text fill="#000" font-family="KaTeX_Main" font-size="8" transform="translate(378.99 180.93)"><tspan>1.00</tspan></text></g><g fill="none" stroke="none" stroke-linecap="round" stroke-linejoin="round" stroke-width="0" color="#000"><path d="M371.99 151.67h-7.5"/><text fill="#000" font-family="KaTeX_Main" font-size="8" transform="translate(378.99 154.27)"><tspan>1.50</tspan></text></g><g fill="none" stroke="none" stroke-linecap="round" stroke-linejoin="round" stroke-width="0" color="#000"><path d="M371.99 125h-7.5"/><text fill="#000" font-family="KaTeX_Main" font-size="8" transform="translate(378.99 127.6)"><tspan>2.00</tspan></text></g><g fill="none" stroke="none" stroke-linecap="round" stroke-linejoin="round" stroke-width="0" color="#000"><path d="M371.99 98.34h-7.5"/><text fill="#000" font-family="KaTeX_Main" font-size="8" transform="translate(378.99 100.94)"><tspan>2.50</tspan></text></g><g fill="none" stroke="none" stroke-linecap="round" stroke-linejoin="round" stroke-width="0" color="#000"><path d="M371.99 71.67h-7.5"/><text fill="#000" font-family="KaTeX_Main" font-size="8" transform="translate(378.99 74.27)"><tspan>3.00</tspan></text></g><g fill="none" stroke="none" stroke-linecap="round" stroke-linejoin="round" stroke-width="0" color="#000"><path d="M371.99 45.01h-7.5"/><text fill="#000" font-family="KaTeX_Main" font-size="8" transform="translate(378.99 47.61)"><tspan>3.50</tspan></text></g><path fill="none" stroke="none" stroke-linecap="round" stroke-linejoin="round" stroke-width="0" d="M28 45.01V205M371.99 45.01H28" color="#000"/><text fill="#000" stroke="none" stroke-linecap="round" stroke-linejoin="round" stroke-width="0" color="#000" font-family="KaTeX_Main" font-size="10" text-anchor="middle" transform="rotate(-90 68.255 56.755)"><tspan font-weight="bold">Allocations </tspan><tspan> / log</tspan><tspan dy="3" font-size="8">2</tspan><tspan dy="-3">(Size)</tspan></text><text fill="#000" stroke="none" stroke-linecap="round" stroke-linejoin="round" stroke-width="0" color="#000" font-family="KaTeX_Main" font-size="10" text-anchor="middle" transform="translate(199.99 238.25)"><tspan>Operations × 10</tspan><tspan dy="-5" font-size="8">5</tspan></text><text fill="#000" stroke="none" stroke-linecap="round" stroke-linejoin="round" color="#000" font-family="KaTeX_Main" font-size="8" transform="translate(99.2 10.11)"><tspan>Splay</tspan></text><g fill="none" stroke="currentColor" stroke-linecap="round" stroke-linejoin="round" color="#000"><path stroke="violet" d="M63.7 7.51h29.9M28 168.37l.36 2.74.36-1.22.37-.17.36 2.43.36-1.52.36.82.36-.52.37-.68.36 1.31.36-.72.36-.93.37.65.36-1.63.36 3.2.36-.06.36-.34.37-1.28.36 1.19.36-1.36.36 2.16.36-1.05.37-1.13.36 1.51.36 1.49.36-1.72.36-.26.37.61.36 1.17.36-2.44.36 2.11.36.15.37-.24.36-.41.36-.33.36.85.37-1.66.36.42.36.19.36-.59.36.76.37.01.36-.55.36-.95.36 2.73.36-1.13.37.31.36 1.87.36-1.69.36-.26.36-.67.37 1.27.36.15.36-1.55.36.73.37 2.04.36-1.66.36-.72.36-.32.36 1.27.37-.95.36.12.36-.34.36.87.36.59.37-.33h.36l.36-.79.36 1.03.36.65.37.86.36-1.92.36.39.36.84.37.26.36.81.36-1.73.36.74.36-.6.37-1.92.36 2.15.36-2.31.36 1.54.36 1.39.37-.72.36-1.1.36 2.86.36-2.08.36.11.37-.8.36.37.36 1.28.36-.67.36 2.06.37-2.46.36.57.36-.22.36.07.37 1.02.36-1.08.36-.03.36-.26.36.83.37.36.36.43.36-.03.36-1.37.36 1.24.37.08.36.14.36.26.36-2.7.36 1.38.37 2.23.36-2.71.36 1.98.36-2.65.37 1.34.36-.26.36 1.26.36-1.94.36.85.37 1.12.36-2.21.36 1.08.36 1.63.36-1.86.37 1.23.36-.6.36-.54.36 1.45.36-.04.37 1.64.36-3.18.36 2.35.36-2.95.36 1.89.37.39.36-2.21.36 2.1.36-.93.37-.08.36 1.07.36-1.95.36.96.36.83.37-.36.36-1.04.36 2.01.36-1.91.36 1.11.37.28.36-.73.36 1.37.36-1.39.36.85.37.45.36-1.73.36.8.36-.75.37 2.67.36-2.05.36 1.13.36-1.51.36 1.6.37-1.17.36-.51.36 1.61.36-1.5.36 2.89.37-.97.36-.09.36-.28.36.27.36.13.37-.82.36 2.31.36-3.01.36.12.36-.02.37 1.94.36-.49.36-2.08.36 1.38.37-.17.36-1.05.36 1.73.36-.15.36-.08.37.05.36-1.15.36.84.36 1.37.36-1.85.37.58.36-.03.36.63.36 1.18.36-1.71.37-.17.36-.84.36.64.36.96h.37l.36.18.36-.99.36-.74.36 3.31.37-1.57.36.15.36-3.28.36 1.53.36.48.37.18.36 2.79.36-1.5.36-.12.36.26.37-.74.36-2.37.36 2.52.36.61.37.62.36-2.08.36.97.36-.88.36 2.22.37-1.89.36-.02.36-.23.36 1.62.36-1.14.37-1.35.36 2h.36l.36.62.36-1.54.37 1.58.36-1.12.36-1.68.36 1.35.36.33.37-1.26.36.92.36-.45.36.29.37-1.01.36.88.36-.27.36.57.36.27.37-1.19.36.05.36 1.28.36-2.47.36 2.9.37-1.17.36.65.36-.14.36 1.33.36-1.57.37.52.36-1.14.36 1.67.36-.82.37.84.36.2.36-.65.36-2.22.36 3.43.37-4.59.36 3.69.36-1.11.36-.17.36.8.37-.66.36 1.86.36-.79.36-.45.36-.29.37.11.36 1.87.36-.83.36.2.36-1.1.37.19.36.88.36-.06.36-.56.37.31.36-1.06.36.48.36 1.4.36-1.02.37-.17.36.88.36-1.73.36.8.36.4.37-1.13.36 2.08.36-.93.36 1.61.36-2.68.37 1.74.36.06.36-.75.36-.22.37 1.4.36-1.52.36 1.8.36-2.11.36 2.37.37-1.91.36.74.36-.23.36-1.22.36 1.74.37-2.27.36.2.36.15.36 1.25.36-1.6.37 2.59.36-.76.36-2.19.36 1.41.36.31.37-.62.36 1.6.36-1.77.36.27.37 2.48.36-1.88.36.13.36 1.36.36-2.29.37 1.05.36-.99.36 2.46.36-.06.36-1.25.37.56.36-.05.36 1.02.36-3.61.36 2.06.37-.21.36-.5.36-.05.36-.45.37 1.27.36.1.36-1.17.36 1.32.36 1.21.37-3.72.36 2.89.36-1.52.36.85.36-.13.37 1.18.36.07.36-1.66.36 1.76.36-.9.37-.96.36.46.36.89.36-.87.37.9.36-1.75.36 1.1.36-.12.36 1.01.37-.73.36.4.36.4.36-.74.36-.06.37-1.72.36 1.66.36 1.36.36-2.17.36 2.22.37-2.01.36-1.17.36 2.65.36.61.36-1.37.37-.05.36.26.36 2.07.36-3.47.37-.1.36 2.38.36-.97.36-1.84.36 1.65.37.22.36-2.05.36 3.37.36-1.46.36.3.37-1.24.36 1.33.36-1.84.36.41.36 1.03.37.81.36-1.72.36.5.36.54.37-.06.36-1.1.36 2.55.36-1.26.36.25.37-.47.36.74.36-1.72.36 1.01.36 1.88.37-2.99.36 1.5.36-1.28.36 2.07.36-1.17.37 1 .36-1.8.36 2.04.36-.5.36.51.37-1.05.36.34.36-.34.36-1.21.37 2.08.36-1.27.36.87.36 1.38.36-2.83.37 1.13.36-.34.36.85.36-1.13.36.75.37.91.36-.45.36 1.73.36-3.94.36.66.37 1.6.36-.81.36.7.36.12.37-.08.36-1.02.36.78.36-.76.36.42.37-.91.36 1.14.36 1.38.36-.94.36.42.37-1.57.36-.61.36.38.36 1.08.36-1 .37.7.36 1.34.36-3.56.36 4.13.37-.42.36-2.5.36-.06.36 1.29.36-.97.37.03.36 2.29.36-1.36.36 1.36.36-1.95.37-.12.36-.71.36 1.18.36 1.52.36-1.28.37.76.36-2.56.36 1.93.36-1.04.36.08.37 1.66.36.61.36-1.84.36.37.37.51.36-.19.36-.2.36-.06.36-.79.37.85.36-.03.36.3.36.07.36-1.36.37.59.36 1.01.36-2.12.36 1.64.36-.14.37.43.36-.71.36.88.36-.6.37-1.57.36 2.77.36.22.36-2.51.36.03.37.34.36-.07.36.19.36.49.36 1.05.37-1.13.36.66.36-.46.36 1.78.36-2.6.37.94h.36l.36 1.41.36-1.3.36-.92.37 1.52.36-.24.36.4.36-.42.37-.91.36-.3.36 2.06.36-3.24.36 1.57.37.83.36-.46.36-.66.36.51.36-.64.37 1.53.36.72.36-.63.36-.26.36-.51.37.24.36-.8.36.61.36.58.37.85.36-.72.36-2.31.36 2.43.36.64.37-1.82.36-.72.36 1.81.36.59.36-1.74.37.59.36-.68.36-.39.36.55.36.27.37-1 .36 3.05.36-2.31.36-.62.36.31.37-.74.36 2.06.36-.46.36.71.37.15.36.14.36.55.36-2.62.36 2.23.37-1.39.36-1.04.36 2.93.36-.11.36-3.01.37 1.53.36.53.36.39.36-.78.36-1.27.37.63.36 2.2h.36l.36-1.01.37-.59.36.44.36-1.5.36 1.03.36-.24.37.46.36-1.22.36.61.36.93.36-.64.37-.38.36.38.36.99.36-1.39.36.5.37-1.1.36 1.77.36-2.93.36.58.37 1.05.36-1.1.36 1.19.36.78.36.63.37-1.24.36.77.36 1.03.36-.85.36-.01.37.99.36-.99.36-1.07.36.31.36-.8.37.38.36 1.34.36-.74.36 1.07.36-1.93.37.23.36 1.49.36-1.86.36.79.37-.57.36 2 .36-1.29.36-.41.36-.69.37 1.58.36.4.36-.32.36-.89.36.91.37-1.71.36 1.71.36-.76.36 1.78.36-1.3.37 1.91.36-1.67.36-2.07.36 1.97.37-.1.36-.11.36.47.36.23.36-.93.37 1.11.36.96.36-.13.36-1.57.36-.48.37 1.44.36-1.9.36 2.24.36-.44.36-1.14.37 1.42.36-2.12.36 1.01.36 1.25.36-.54.37-.57.36-.64.36 1.52.36.02.37-.51.36-1.81.36.67.36 1.72.36.06.37-.99.36.17.36.59.36-.61.36-.71.37.03.36-.55.36 2.03.36-1.48.36 1.17.37-.39.36 1.04.36-1.75.36.38.37 1.55.36-1.55.36-.53.36.71.36.24.37-.69.36.21.36-.05.36 1.51.36-2.08.37 1.17.36-1.38.36 1.7.36-.66.36.52.37-1.32.36 1.3.36-1.85.36-1.69.36 2.79.37 1.01.36-1.38.36.64.36 1.24.37-.93.36-1.52.36.41.36-.56.36 2.52.37-1.62.36.52.36.53.36-1.35.36.79.37 1.76.36-2.66.36.04.36 2.27.36-2.71.37 2.35.36-1.12.36.35.36-.87.37.32.36.48.36-.1.36-.57.36.07.37-.59.36 1.7.36-.3.36-1.96.36 2.04.37-1.25.36 2.04.36-1.3.36-.01.36.03.37 1.37.36-.69.36-.27.36-.91.37-.32.36 2.14.36-1.4.36.43.36-.18.37-.56.36.43.36.59.36.64.36-2.25.37 1.1.36.26.36-1.22.36 2.31.36-2.65.37 1.9.36-.77.36-.31.36 1.25.36-.34.37.13.36-1.03.36 1.61.36-.1.37-.55.36-.36.36.23.36-.44.36-1.28.37 2.16.36-1.25.36 2.37.36-.83.36-.49.37-1.14.36-.53.36 1.9.36-1.4.36-.61.37.65.36 1.11.36-.76.36.52.37.35.36-.87.36-.33.36.57.36.98.37-.02.36-.49.36-.2.36.11.36-.38.37-.11.36-.43.36.4.36 1.22.36-1.9.37.81.36.55.36.08.36.06.36-2.66.37 2.22.36-.65.36 1.14.36-.88.37-.51.36.15.36 1.29.36-.67.36-.84.37.02.36.43.36-.06.36.36.36-.04.37-.2.36-.34.36 1.74.36-.03.36-.94.37.73.36 1.1.36-1.04.36-.98.37.99.36-1.49.36 1.23.36-.5.36-1 .37.89.36-.82.36 2.53.36-.65.36-2.09.37.4.36 1.24.36.63.36-1.98.36 1.35.37-.86.36-.82.36 2.84.36-2.96.36 1.16.37.03.36 1.14.36-1.16.36 1.59.37-3.18.36 2.44.36-.51.36.34.36.1.37-1.81.36 1.02.36 1.19.36.12.36-.38.37-.27.36 1.06.36-.85.36 1.15.36-2 .37 1 .36-.55.36-.56.36 2.14.37-1.32.36.81.36-.04.36-2.07.36 1.25.37.24.36-1.26.36-.43.36.93.36-1.44.37 1.92.36.59.36-.06.36-1.75.36 3.39.37-2.43.36 1.53.36-1.98.36-.65.37.08.36.64.36.15.36 1.08.36-.23.37-1.09.36 1.46.36-1.99.36 1.32.36-1.39.37.04.36 2.25.36-1.51.36.41.36.34.37.39.36.01.36.06.36-1.36.36.83.37-.02.36.55.36-1.01.36-.9.37.56.36.06.36.32.36-1.19.36 1.49.37.09.36-.97.36 1.13"/><use xlink:href="#d" color="violet" transform="matrix(3.75 0 0 3.75 354.25 181.56)"/><use xlink:href="#d" color="violet" transform="matrix(3.75 0 0 3.75 78.65 7.51)"/></g><text fill="#000" stroke="none" stroke-linecap="round" stroke-linejoin="round" color="#000" font-family="KaTeX_Main" font-size="8" transform="translate(99.2 25.11)"><tspan>LBSTRelaxed</tspan></text><g fill="none" stroke="currentColor" stroke-linecap="round" stroke-linejoin="round" color="#000"><path stroke="violet" stroke-dasharray="4.5,2.0,0.5,2.0,0.5,2.0" d="M63.7 22.51h29.9M28 158.49l.36 1.09.36-.75.37-2.91.36 3.11.36-.38.36.76.36-2.3.37 1.15.36-4.46.36 6.07.36-.46.37.37.36.01.36-2.05.36.92.36-2.54.37-1 .36 2.21.36-.33.36-8.75.36 12.24.37-.03.36-1.94.36.54.36-2.3.36 2.06.37-1.98.36-.51.36 2.7.36-2.4.36.89.37-1.85.36 1.99.36-2.61.36 1.76.37 2.18.36-2.7.36 2.25.36.03.36-4.64.37-9.62.36 17.96.36-.81.36-1.08.36.86.37-1.87.36 1.87.36-1.71.36-4.2.36 5.78.37-1.09.36-1.09.36 1.95.36-2.63.37-4.81.36 6.4.36 1.42.36-1.49.36-2.84.37 3.63.36.03.36-.96.36-4.5.36 4.53.37-.9.36.81.36-10.35.36 11.91.36.16.37-1.28.36.58.36-2.75.36 1.79.37-.37.36.25.36-4.45.36 4.99.36.29.37-.34.36-.49.36-.15.36-9.86.36 9.66.37-.44.36-.11.36-2.88.36 3.19.36-4.14.37-16.18.36 22.21h.36l.36.44.36-.61.37-.84.36-2.68.36 2.98.36-.2.37-1.05.36-3.41.36 4.07.36-1.76.36 1.81.37-.76.36-2.03.36-3.78.36 6.51.36-.06.37-2.08.36 1.43.36-3.61.36 3.98.36-.14.37-1.61.36-1.93.36 2.77.36 1.15.37-10.06.36 10.17.36.95.36-3.12.36 2.14.37-1.11.36.75.36-4.37.36 4.25.36.03.37-.89.36-.22.36.55.36-4.08.36-25.86.37 34.36.36 1.1.36-2.72.36.28.36-1.7.37 1.38.36 1.28.36-.74.36-.7.37-4.49.36 5.04.36-.32.36.01.36-.62.37-1.22.36 1.35.36-8.04.36 9.07.36-1.79.37.3.36.33.36-.96.36-.58.36.64.37.33.36-2.57.36-2.35.36 5.17.37-9.87.36 9 .36.5.36.74.36-1.45.37.39.36.82.36-.07.36-4.33.36 3.9.37-.88.36 1.22.36-1.56.36.5.36-.65.37-5.77.36 7.43.36.5.36-.32.36-1.22.37-.09.36.08.36.69.36-18.09.37 16.65.36 3.84.36-.35.36-.12.36-1.2.37 1.05.36-2 .36 1.49.36-.64.36.28.37-.38.36-4.91.36 4.45.36-.73.36 1.21.37-1.06.36.66.36-.39.36-6.42.37 5.95.36-.1.36.93.36-.71.36-.41.37-.4.36-2.25.36 4.66.36-1.46.36-.06.37-5.44.36-6.09.36 11.13.36-.59.36.83.37.09.36-.24.36-1.43.36.65.37-1.47.36 1.43.36-5.78.36 6.87.36-1.81.37-31.72.36 34.1.36 2.32.36-.06.36-.67.37 1.32.36-2.27.36.76.36-1.89.36 1.28.37-.81.36.25.36-.63.36-5.38.36 6.25.37-.2.36-.15.36-.05.36.28.37-.48.36-8.96.36 9.73.36-.18.36-.32.37-.2.36 1.22.36-1.42.36.99.36-2.69.37.77.36-1.4.36.77.36-5.29.36-2.53.37 9.51.36-.81.36 2 .36-.94.37-.43.36-.32.36-1.79.36 2.68.36-1.08.37-4.07.36 4.81.36-.31.36-.34.36-1.86.37 2.53.36-2.41.36 1.49.36-8.13.36 9.65.37-2.12.36.11.36-.34.36-15.31.36 18.01.37-1.61.36-.48.36.12.36.85.37-1.62.36-3.2.36 5.07.36-.38.36-.56.37-.37.36.06.36.93.36.04.36-7.16.37 5.83.36.33.36-.56.36-.5.36.15.37 1.08.36-.07.36-1.59.36.23.37-1.98.36 2.15.36.05.36-60.88.36 63.59.37 3.53.36-1.2.36.28.36-.82.36.31.37.51.36-.06.36-.02.36-1.24.36 1.36.37-2.7.36-2.7.36 5.2.36-.91.36-.14.37.38.36-2.46.36 1.52.36-.57.37-7.33.36 8.57.36.19.36-1.15.36-.02.37.85.36-.29.36-1.46.36 1.35.36-1.24.37-.21.36-.55.36-.25.36-12.52.36 14.51.37.08.36.51.36-.8.36 1.26.37-2.08.36 1.22.36.27.36-1.45.36-1.44.37 2.19.36-1.56.36-2.32.36 4.24.36-1.52.37.22.36-1.05.36 1.47.36-1.31.36-7.22.37 7.44.36 1.81.36-1.75.36.41.37-15.96.36 17.36.36.22.36.24.36-.14.37-.97.36-1.35.36.88.36.59.36-.69.37.51.36.37.36-1.34.36 1.57.36-2.83.37 2.48.36-.2.36-6.94.36 5.98.36.05.37.83.36-.91.36-.46.36-.31.37 2.2.36-1.98.36.76.36.62.36-5.13.37 4.05.36-8.22.36 8.47.36.21.36 1.23.37.01.36-1.33.36 1.29.36-1.67.36.4.37-.91.36 1.01.36-.39.36-.25.37-3.38.36 4.1.36-1.35.36-29.21.36 30.84.37-3.51.36 4.82.36 1.98.36-.99.36-1.78.37 2.48.36-1.42.36 1.31.36-1.97.36-1.67.37 1.66.36.65.36-.37.36-.95.36.63.37.39.36-.74.36-1.5.36 2.48.37-1.48.36.21.36-.23.36-9.77.36 11.79.37-.49.36-.28.36-1.31.36 1.08.36-.96.37-.97.36-.91.36 1.35.36.29.36.77.37-1.5.36.7.36-14.98.36 15.58.37.24.36-.98.36 1.71.36-1.69.36.55.37.49.36-1.7.36.04.36 1.15.36-1.05.37.71.36-.01.36.16.36-.73.36.36.37-1.48.36.69.36.28.36-1.23.37-.59.36-7.1.36 9.18.36-.13.36-17.39.37 17.71.36-.45.36.76.36-1.15.36-.48.37-.21.36 1.53.36-.03.36-.84.36.22.37-.32.36.38.36-.24.36-1.72.36 3.09.37-2.36.36.34.36.19.36-10.17.37 11.17.36-.47.36-.24.36-.18.36-50.13.37 53.06.36-4.79.36 4.78.36-3.18.36 3.98.37-.18.36-.42.36.13.36.09.36-.6.37.35.36-1.61.36 2.08.36.08.37-.2.36-1.16.36-.88.36 2.56.36-1.73.37.48.36.02.36-.94.36.43.36-.79.37.99.36-10.44.36 10.3.36-.96.36 1.71.37-.54.36-1.28.36.91.36-.64.36.37.37-.29.36.39.36-.7.36 1.1.37-1.89.36 1.93.36-14.2.36 14.9.36-.61.37-1.79.36 1.44.36-.78.36 1.47.36-.41.37-1.63.36 1.25.36-.82.36.69.36-1.43.37 1.84.36-.57.36-.56.36-1.78.37-.36.36 1.93.36-.44.36-.07.36-2.04.37 2.72.36-9.11.36 8.69.36-16.09.36 17.03.37.99.36-.88.36.04.36-.75.36.33.37.96.36-1.4.36 1.1.36-1.11.36 1.54.37-.21.36-.69.36-1.09.36-1.96.37 2.32.36.1.36-.15.36-1.17.36-.25.37-6.33.36 8.97.36-1 .36-.62.36 1.95.37-1.58.36.17.36-.69.36-2.55.36 4.63.37-1.92.36-.15.36-1.75.36 1.12.37.29.36-9.79.36 9.67.36 1.97.36-.17.37-.83.36-.5.36 1.54.36-1.77.36 1.23.37-.96.36-1.13.36-25.75.36 28.87.36-.03.37-1.86.36.62.36.49.36.8.37-3.07.36 3.71.36-.93.36-.56.36-.64.37-.66.36.31.36-5.63.36 5.6.36-.53.37 2.17.36-.95.36-.09.36.06.36-1.63.37 2.14.36-2.02.36 1.81.36-1 .36-.39.37.88.36.17.36-10.01.36 8.34.37 3.06.36-.61.36-.31.36-1.14.36.34.37.62.36-.97.36.41.36-.32.36.83.37-.99.36.38.36-.85.36.36.36-.75.37-.67.36 1.24.36.12.36.3.37-.91.36-.54.36-.69.36 1.7.36-9.25.37-83.04.36 96.45.36-.93.36 1.75.36-.69.37-.23.36-.83.36.01.36.77.36 1.03.37-.67.36-.96.36.19.36-.1.36.61.37-2.23.36 2.85.36-.28.36-1.5.37.37.36-.01.36.46.36-1.46.36.35.37-7.59.36 8.39.36.84.36-.52.36-1.61.37 2.29.36-1.13.36-.25.36-.53.36 1.31.37-.74.36-.45.36.36.36-.4.37-9.77.36 11.28.36-2.63.36 3.06.36-.69.37.06.36-1.41.36 1.58.36-.5.36-.46.37.21.36-.62.36.36.36-.09.36-.06.37-.95.36.89.36-1.25.36 2.14.36-1.42.37-1.47.36 2.65.36-1.55.36-.47.37-1.56.36 2.68.36-1.48.36 1.82.36-8.15.37 8.34.36-.15.36-21.34.36 21.97.36-.28.37-1.11.36 1.19.36-1.27.36 1.71.36-.84.37-.24.36.57.36-1.04.36.93.37-.24.36-1.07.36-1.37.36 3.29.36-2.68.37 1.94.36-.44.36-1.08.36 1.32.36-1.73.37.92.36-8.19.36 9.15.36-1.19.36.55.37-1.67.36 1.03.36-.57.36 1.44.37-.93.36.01.36-.03.36.62.36-1.74.37 2.4.36-12.52.36 11.92.36-1.49.36-.93.37 2.62.36.02.36-.3.36-1.16.36 2.19.37-1.39.36.48.36-1.04.36.73.36-29.09.37 30.3.36-.08.36-.61.36.31.37-.4.36.11.36-1.73.36 1.55.36.91.37-1.56.36 1.17.36-2.08.36 1.61.36-.33.37-.43.36-2.94.36 3.33.36-.76.36.82.37-.29.36-.1.36.35.36-.47.37.11.36-.38.36-4.25.36 3.87.36.13.37-1.77.36 1.61.36-9.27.36 9.51.36.33.37-.79.36 1.91.36-1.5.36.99.36-1.04.37 2.12.36-1.02.36-.93.36.79.36-2.2.37 2.55.36-1.21.36-.06.36 1.1.37-.9.36.8.36-1.76.36.58.36-1.27.37 3.02.36-1.2.36-.59.36-6.5.36 5.35.37 1.61.36-15.37.36 17.06.36-1.48.36.6.37-.6.36-1.17.36-.12.36 2.69.37-1.41.36.94.36-1.85.36.35.36 1.42.37-1.68.36.66.36-3.34.36 4.03.36.17.37.2.36-2.17.36.48.36-.09.36.3.37.79.36-.46.36-6.26.36 6.41.36-.76.37-.45.36.87.36-.32.36.27.37.8.36-52 .36 52.44.36-7.45.36 9.09.37-.81.36 1.33.36-1.3.36-.37.36.02.37-2.05.36 2.25.36-.04.36-.67.36.31.37 1.5.36-.91.36.66.36-1.57.37-3.7.36 5 .36-.56.36.75.36-.29.37-.7.36.88.36-.6.36-.13.36-2.37.37 2.98.36-.46.36-.78.36 1.12.36-3.02.37 1.79.36-.13.36.24.36-3 .37 4.89.36-1.46.36-.72.36.07.36-.82.37 1.02.36-1.46.36 1.79.36-3.07.36-14.23.37 17.31.36-.85.36.45.36.4.36-.02.37-.64.36-.24.36-2.95.36 4.17.36-.18.37-.6.36-.48.36.45.36.26.37-1.15.36.48.36-2.07h.36l.36 2.9.37-.88.36 1.12.36-1.94"/><use xlink:href="#g" color="violet" transform="matrix(3.75 0 0 3.75 67.83 155.18)"/><use xlink:href="#g" color="violet" transform="matrix(3.75 0 0 3.75 78.65 22.51)"/></g><text fill="#000" stroke="none" stroke-linecap="round" stroke-linejoin="round" color="#000" font-family="KaTeX_Main" font-size="8" transform="translate(241.1 10.11)"><tspan>AVLRelaxedBottomUp</tspan></text><g fill="none" stroke="currentColor" stroke-linecap="round" stroke-linejoin="round" color="#000"><path stroke="#D336C8" d="M205.6 7.51h29.9M28 172.17l.36-.64.36.23.37-.02.36-.38.36.85.36-.24.36-.68.37.27.36-.5.36-1.35.36-.34.37.28.36-.15.36.09.36 1.66.36-1.53.37-.17.36-.05.36.72.36 1.75.36-1.12.37-.16.36-.33.36.01.36 1.23.36-1.11.37-.38.36.85.36-.04.36-.03.36-.16.37-.01.36.03.36-.04.36 1.23.37.42.36-.7.36.72.36-.34.36-.3.37 1.1.36-.26.36.18.36-.62.36.27.37-.11.36-.22.36.4.36-.2.36.63.37-.67.36.32.36-.2.36-.64.37.7.36-.26.36.3.36-.35.36.78.37.01.36-.82.36-.44.36-1.12.36.18.37-1.06.36.29.36.16.36.17.36-.31.37-.59.36.93.36-.41.36 1.67.37 1.68.36-1.25.36.41.36-.26.36-1.15.37-.38.36-.37.36.15.36.05.36-.24.37 1.15.36-.45.36-.68.36.94.36.25.37.43.36.58.36-.1.36-.9.36-.66.37 1.12.36-.15.36-1.02.36-.04.37.16.36.38.36-.57h.36l.36-.03.37.12.36.39h.36l.36 1.64.36-.67.37-.05.36-.22.36.02.36.37.36-.64.37.96.36-.25.36.1.36.04.37-.08.36-.4.36.25.36.11.36.29.37-.63.36-.14.36.71.36-.18.36.26.37-.06.36-.42.36.21.36-.12.36-.21.37.14.36.97.36-.37.36-.12.36.29.37.02.36.1.36-.77.36.23.37.13.36-.41.36.82h.36l.36-.23.37-.27.36.36.36-.1.36-.68.36.38.37.61.36.33.36-.54.36-.17.36-.14.37-.75.36.4.36.23.36-.56.37-.01.36 1.28.36-.38.36-.62.36.83.37.18.36-.74.36.03.36.58.36-.84.37-.22.36.56.36-.1.36-.68.36-.24.37-.04.36-1.1.36.18.36 1.5.36.26.37-.82.36-.23.36.03.36-.95.37-.07.36.49.36.26.36-.63.36-.24.37 1.07.36-.77.36-.34.36.38h.36l.37-.4.36.45.36.67.36-1 .36.08.37.75.36-.16.36-.08.36-.38.37.39.36-.55.36.3.36.71.36.18.37.06.36-.01.36-.72.36-.55.36 1.85.37.52.36-.33.36.18.36-.35.36-1.01.37-.06.36.18.36-.14.36.67.37.5.36-.38.36-1.01.36.24.36-.4.37.33.36 1.06.36.17.36-.31.36-1.03.37.08.36.77.36 1.3.36.09.36-.14.37-.15.36-.21.36.09.36.17.36-.02.37-.23.36-.07.36.23.36-.28.37.01.36-.12.36-.68.36-.49.36-.02.37.16.36-.16.36 1.33.36-.1.36-1.04.37.05.36-.23.36.39.36.36.36-.25.37-.42.36.68h.36l.36-.92.37.54.36.19.36-.23.36-.73.36-.41.37.24.36-.79.36.34.36.43.36.91.37-.73.36-.57.36.09.36-.67.36.29.37.22.36.29.36.24.36-.4.36.23.37-.45.36-.39.36.63.36-.4.37-.83.36 1.17.36.09.36-.35.36-.53.37.13.36.56.36.18.36-.13.36.09.37-.23.36.21.36-.05.36-.35.36.17.37-.04.36.09.36-.66.36 1.05.37-.06.36.26.36-.36.36-.03.36.06.37-.98.36.91.36.22.36-.15.36-.17.37.06.36.21.36-.96.36.77.36.31.37-.49.36.03.36.34.36-.02.36-1 .37.86.36-.26.36.35.36-.31.37.01.36-.27.36-.44.36 1.07.36.69.37-.07.36-.01.36-.26.36-.46.36-.1.37.48.36-.16.36.01.36.33.36-.13.37-.81.36.12.36.57.36.19.37-.07.36.11.36-.26.36-.65.36-.27.37.98.36-.46.36.29.36.18.36-.21.37-.72.36-.14.36 1.39.36-.39.36.05.37.1.36 1.31.36.16.36.03.37.75.36-.05h.36l.36.14.36-.97.37-.13.36.02.36.89.36-.13.36.13.37.24.36-.84.36-.36.36.29.36.58.37.19.36-.08.36-.36.36-.57.36.14.37-.01.36-.31.36-.39.36.07.37-.39.36-.49.36.21.36-.05.36.59.37.1.36.09.36-.93.36-.23.36.13.37.03.36.63.36.2.36-.06.36-.78.37.01.36-.2.36.24.36.41.37.14.36.1.36-1 .36.08.36-.04.37.12.36.92.36.88.36-.89.36-.46.37.2.36-.16.36.36.36.13.36.37.37-.61.36-.25.36.06.36-.17.36-.11.37 1.02.36.07.36-.62.36-.18.37-.58.36.34.36.12.36.16.36.57.37-.53.36-.41.36.04.36-.03.36.02.37.17.36.44.36-.99.36.24.36.07.37.88.36.3.36-.12.36-.39.37-.77.36.5.36-.31.36.04.36.01.37.29.36-.01.36-.45.36-.12.36.51.37.79.36-.06.36-.03.36-.66.36-.3.37-.23.36-.01.36.29.36-.32.37.76.36.27.36.02.36-.31.36.17h.37l.36-.31.36.32.36-.32.36-.03.37.19.36-.01.36-.04.36-.09.36.12.37-.09.36.23.36-.02.36-.04.36-.02.37-.04.36 2 .36-.31.36.1.37.17.36.24.36-.21.36-.01.36.13.37-.18.36-.16.36-.09.36.02.36.14.37 1.04.36-.01.36-.71.36-.14.36-.14.37.14.36-.13.36.1.36.29.37.1.36-.34.36-.11.36.22.36.06.37-.24.36.24.36-.26.36-.08.36.01.37.08.36-.09.36.06.36-.71.36-.24.37-.09.36-.11.36.05.36.02.36-.16.37.35.36-.36.36-.09.36.01.37-.09.36.11.36-.18.36.33.36-.19.37-.07.36.62.36.42.36.03.36-.23.37-.45.36-.3.36-.27.36.07.36-.07.37.16.36.25.36.55.36.53.37-.39.36.02.36.29.36-.19.36-.37.37.01.36.09.36-.02.36-.07.36-.61.37-.32.36.82.36-.1.36 1.25.36.06.37.02.36-.95.36.06.36-.25.36-.1.37.15.36-.33.36.2.36-.96.37.13.36.54.36.03.36.14.36-.18.37.21.36-.53.36-.58.36-.08.36-.09.37-.16.36.23.36-.33.36-.2.36-.07.37.11.36.36.36-.22.36 1.2.37.09.36-.63.36-.21.36-.24.36-.19.37.13.36-.23.36.17.36-.61.36-.21.37.18.36.55.36-.22.36.09.36.03.37.19.36-.21.36.23.36.1.37-.05.36-.12.36-.15.36.13.36-.1.37 1.36.36.65.36.03.36-.24.36.03.37.51.36-.54h.36l.36-.11.36.16.37.18.36-.26.36.08.36-.24.36.31.37-.09.36.04.36-.14.36-.17.37-.49.36-.76.36.26.36-.16.36.2.37-.02.36-.16.36.02.36.04.36-.04.37.14.36-.06.36-.12.36-.3h.36l.37.05.36-.02.36.2.36-.04.37.03.36-.03.36.11.36-.21.36.25.37-.21.36-.08.36-.08.36-.43.36-.38.37.98.36.05.36-.16.36.12.36.01.37-.14.36.36.36-.27.36-.07.36.17.37-.19.36.05.36-.79.36-.07.37.64.36.38.36-.26.36.1.36-.28.37.3.36-.02.36-.1.36.01.36.18.37-.16.36.62.36.53.36-.03.36-.42.37-.04.36-.18.36.45.36-.37.37.04.36-.01.36.09.36-.14.36.12.37-.04.36-.63h.36l.36-.32.36.69.37.03.36.2.36-.2.36.11.36.07.37.04.36-.04.36.09.36-.04.36-.22.37-.86.36.16.36.11.36-.13.37.68.36.22h.36l.36.13.36-.12.37-.04.36-.1.36.03.36.17.36-.67.37-.39.36-.02.36.12.36.43.36.32h.37l.36-.04.36-.04.36.08.37-.12.36-.08.36.28.36-.09.36-.94.37-.05.36.12.36.11.36.86.36.25.37-.11.36-.04.36.27.36-.09.36-.2.37.2.36.09.36-.35.36-.44.37-.05.36-.14.36.19.36.44.36.26.37-.11.36-.1.36.08.36-.08.36.1.37.03.36-.26.36-.31.36-.45.36.21.37.07.36-.09.36.41.36.45.36-.25.37-.12.36.08.36.04.36.14.37-.1.36.13.36-.68.36-.27.36.18.37-.05.36.07.36-.22.36.66.36.26.37-.18.36.18.36-.23.36.1.36-.08.37-.12.36-.67.36.12.36-.04.37-.04.36.18.36-.03.36 1.38.36.17.37-.1.36.08.36-.09.36.09.36-.07.37-.37.36-.27.36-.31.36.17.36.05.37.17.36-.28.36.5.36.32.36.06.37-.13.36.16.36-.13.36-.04.37-.41.36-.45.36-.05h.36l.36.16.37.04.36-.04.36.13.36.73.36-.06.37-.19h.72l.36-.09.36-.41.37-.08.36-.39.36.31.36-.1.37-.1.36.1.36.14.36.69.36.02.37-.15.36.09.36-.17.36-.24.36-.44.37.17.36-.29.36.01.36.23.36-.23.37.31.36-.15.36 1.2.36.33.36-.14.37-.12.36-.31.36-.14.36-.5.37.11.36-.21.36.08.36.08.36.01.37.16.36-.15.36.32.36.17.36.09.37-.15.36.06.36-.71.36-.11.36.2.37-.11.36-.12.36.31.36-.26.37-.07.36.21.36.72.36.27.36-.12.37.06.36-.43.36-.64.36.05.36.08.37-.09.36-.06.36-.1.36.27.36-.2.37.19.36.07.36.64.36.03.37-.17.36-.13.36-.63.36-.11.36-.02.37 1.47.36.36.36.09.36.06.36.04.37-.16.36-.14.36-.01.36.16.36-.25.37-.57.36-.38.36-.12.36.12.36-.09.37.08.36-.01.36.04.36.08.37-.31.36.5.36.29.36.26.36-.3.37-.84.36.51.36-.45"/><use xlink:href="#h" color="#D336C8" transform="matrix(3.75 0 0 3.75 125.4 170.47)"/><use xlink:href="#h" color="#D336C8" transform="matrix(3.75 0 0 3.75 220.55 7.51)"/></g><text fill="#000" stroke="none" stroke-linecap="round" stroke-linejoin="round" color="#000" font-family="KaTeX_Main" font-size="8" transform="translate(241.1 25.11)"><tspan>AVLWeakBottomUp</tspan></text><g fill="none" stroke="currentColor" stroke-linecap="round" stroke-linejoin="round" color="#000"><path stroke="#3B75EA" d="M205.6 22.51h29.9M28 172.17l.36-.64.36.23.37-.02.36-.38.36.85.36-.24.36-.68.37.27.36-.5.36-1.35.36-.34.37.28.36-.15.36.09.36 1.66.36-1.53.37-.17.36-.05.36.72.36 1.75.36-1.12.37-.16.36-.33.36.01.36 1.23.36-1.11.37-.38.36.85.36-.04.36-.03.36-.16.37-.01.36.03.36-.04.36 1.23.37.42.36-.7.36.72.36-.34.36-.3.37 1.1.36-.26.36.18.36-.62.36.27.37-.11.36-.22.36.4.36-.2.36.63.37-.67.36.32.36-.2.36-.64.37.7.36-.26.36.3.36-.35.36.78.37.01.36-.82.36-.44.36-1.12.36.18.37-1.06.36.29.36.16.36.17.36-.31.37-.59.36.93.36-.41.36 1.67.37 1.68.36-1.25.36.41.36-.26.36-1.15.37-.38.36-.37.36.15.36.05.36-.24.37 1.15.36-.45.36-.68.36.94.36.25.37.43.36.58.36-.1.36-.9.36-.66.37 1.12.36-.15.36-1.02.36-.04.37.16.36.38.36-.57h.36l.36-.03.37.12.36.39h.36l.36 1.64.36-.67.37-.05.36-.22.36.02.36.37.36-.64.37.96.36-.25.36.1.36.04.37-.08.36-.4.36.25.36.11.36.29.37-.63.36-.14.36.71.36-.18.36.26.37-.06.36-.42.36.21.36-.12.36-.21.37.14.36.97.36-.37.36-.12.36.29.37.02.36.1.36-.77.36.23.37.13.36-.41.36.82h.36l.36-.23.37-.27.36.36.36-.1.36-.68.36.38.37.61.36.33.36-.54.36-.17.36-.14.37-.75.36.4.36.23.36-.56.37-.01.36 1.28.36-.38.36-.62.36.83.37.18.36-.74.36.03.36.58.36-.84.37-.22.36.56.36-.1.36-.68.36-.24.37-.04.36-1.1.36.18.36 1.5.36.26.37-.82.36-.23.36.03.36-.95.37-.07.36.49.36.26.36-.63.36-.24.37 1.07.36-.77.36-.34.36.38h.36l.37-.4.36.45.36.67.36-1 .36.08.37.75.36-.16.36-.08.36-.38.37.39.36-.55.36.3.36.71.36.18.37.06.36-.01.36-.72.36-.55.36 1.85.37.52.36-.33.36.18.36-.35.36-1.01.37-.06.36.18.36-.14.36.67.37.5.36-.38.36-1.01.36.24.36-.4.37.33.36 1.06.36.17.36-.31.36-1.03.37.08.36.77.36 1.3.36.09.36-.14.37-.15.36-.21.36.09.36.17.36-.02.37-.23.36-.07.36.23.36-.28.37.01.36-.12.36-.68.36-.49.36-.02.37.16.36-.16.36 1.33.36-.1.36-1.04.37.05.36-.23.36.39.36.36.36-.25.37-.42.36.68h.36l.36-.92.37.54.36.19.36-.23.36-.73.36-.41.37.24.36-.79.36.34.36.43.36.91.37-.73.36-.57.36.09.36-.67.36.29.37.22.36.29.36.24.36-.4.36.23.37-.45.36-.39.36.63.36-.4.37-.83.36 1.17.36.09.36-.35.36-.53.37.13.36.56.36.18.36-.13.36.09.37-.23.36.21.36-.05.36-.35.36.17.37-.04.36.09.36-.66.36 1.05.37-.06.36.26.36-.36.36-.03.36.06.37-.98.36.91.36.22.36-.15.36-.17.37.06.36.21.36-.96.36.77.36.31.37-.49.36.03.36.34.36-.02.36-1 .37.86.36-.26.36.35.36-.31.37.01.36-.27.36-.44.36 1.07.36.69.37-.07.36-.01.36-.26.36-.46.36-.1.37.48.36-.16.36.01.36.33.36-.13.37-.81.36.12.36.57.36.19.37-.07.36.11.36-.26.36-.65.36-.27.37.98.36-.46.36.29.36.18.36-.21.37-.72.36-.14.36 1.39.36-.39.36.05.37.1.36 1.31.36.16.36.03.37.75.36-.05h.36l.36.14.36-.97.37-.13.36.02.36.89.36-.13.36.13.37.24.36-.84.36-.36.36.29.36.58.37.19.36-.08.36-.36.36-.57.36.14.37-.01.36-.31.36-.39.36.07.37-.39.36-.49.36.21.36-.05.36.59.37.1.36.09.36-.93.36-.23.36.13.37.03.36.63.36.2.36-.06.36-.78.37.01.36-.2.36.24.36.41.37.14.36.1.36-1 .36.08.36-.04.37.12.36.92.36.88.36-.89.36-.46.37.2.36-.16.36.36.36.13.36.37.37-.61.36-.25.36.06.36-.17.36-.11.37 1.02.36.07.36-.62.36-.18.37-.58.36.34.36.12.36.16.36.57.37-.53.36-.41.36.04.36-.03.36.02.37.17.36.44.36-.99.36.24.36.07.37.88.36.3.36-.12.36-.39.37-.77.36.5.36-.31.36.04.36.01.37.29.36-.01.36-.45.36-.12.36.51.37.79.36-.06.36-.03.36-.66.36-.3.37-.23.36-.01.36.29.36-.32.37.76.36.27.36.02.36-.31.36.17h.37l.36-.31.36.32.36-.32.36-.03.37.19.36-.01.36-.04.36-.09.36.12.37-.09.36.23.36-.02.36-.04.36-.02.37-.04.36 2 .36-.31.36.1.37.17.36.24.36-.21.36-.01.36.13.37-.18.36-.16.36-.09.36.02.36.14.37 1.04.36-.01.36-.71.36-.14.36-.14.37.14.36-.13.36.1.36.29.37.1.36-.34.36-.11.36.22.36.06.37-.24.36.24.36-.26.36-.08.36.01.37.08.36-.09.36.06.36-.71.36-.24.37-.09.36-.11.36.05.36.02.36-.16.37.35.36-.36.36-.09.36.01.37-.09.36.11.36-.18.36.33.36-.19.37-.07.36.62.36.42.36.03.36-.23.37-.45.36-.3.36-.27.36.07.36-.07.37.16.36.25.36.55.36.53.37-.39.36.02.36.29.36-.19.36-.37.37.01.36.09.36-.02.36-.07.36-.61.37-.32.36.82.36-.1.36 1.25.36.06.37.02.36-.95.36.06.36-.25.36-.1.37.15.36-.33.36.2.36-.96.37.13.36.54.36.03.36.14.36-.18.37.21.36-.53.36-.58.36-.08.36-.09.37-.16.36.23.36-.33.36-.2.36-.07.37.11.36.36.36-.22.36 1.2.37.09.36-.63.36-.21.36-.24.36-.19.37.13.36-.23.36.17.36-.61.36-.21.37.18.36.55.36-.22.36.09.36.03.37.19.36-.21.36.23.36.1.37-.05.36-.12.36-.15.36.13.36-.1.37 1.36.36.65.36.03.36-.24.36.03.37.51.36-.54h.36l.36-.11.36.16.37.18.36-.26.36.08.36-.24.36.31.37-.09.36.04.36-.14.36-.17.37-.49.36-.76.36.26.36-.16.36.2.37-.02.36-.16.36.02.36.04.36-.04.37.14.36-.06.36-.12.36-.3h.36l.37.05.36-.02.36.2.36-.04.37.03.36-.03.36.11.36-.21.36.25.37-.21.36-.08.36-.08.36-.43.36-.38.37.98.36.05.36-.16.36.12.36.01.37-.14.36.36.36-.27.36-.07.36.17.37-.19.36.05.36-.79.36-.07.37.64.36.38.36-.26.36.1.36-.28.37.3.36-.02.36-.1.36.01.36.18.37-.16.36.62.36.53.36-.03.36-.42.37-.04.36-.18.36.45.36-.37.37.04.36-.01.36.09.36-.14.36.12.37-.04.36-.63h.36l.36-.32.36.69.37.03.36.2.36-.2.36.11.36.07.37.04.36-.04.36.09.36-.04.36-.22.37-.86.36.16.36.11.36-.13.37.68.36.22h.36l.36.13.36-.12.37-.04.36-.1.36.03.36.17.36-.67.37-.39.36-.02.36.12.36.43.36.32h.37l.36-.04.36-.04.36.08.37-.12.36-.08.36.28.36-.09.36-.94.37-.05.36.12.36.11.36.86.36.25.37-.11.36-.04.36.27.36-.09.36-.2.37.2.36.09.36-.35.36-.44.37-.05.36-.14.36.19.36.44.36.26.37-.11.36-.1.36.08.36-.08.36.1.37.03.36-.26.36-.31.36-.45.36.21.37.07.36-.09.36.41.36.45.36-.25.37-.12.36.08.36.04.36.14.37-.1.36.13.36-.68.36-.27.36.18.37-.05.36.07.36-.22.36.66.36.26.37-.18.36.18.36-.23.36.1.36-.08.37-.12.36-.67.36.12.36-.04.37-.04.36.18.36-.03.36 1.38.36.17.37-.1.36.08.36-.09.36.09.36-.07.37-.37.36-.27.36-.31.36.17.36.05.37.17.36-.28.36.5.36.32.36.06.37-.13.36.16.36-.13.36-.04.37-.41.36-.45.36-.05h.36l.36.16.37.04.36-.04.36.13.36.73.36-.06.37-.19h.72l.36-.09.36-.41.37-.08.36-.39.36.31.36-.1.37-.1.36.1.36.14.36.69.36.02.37-.15.36.09.36-.17.36-.24.36-.44.37.17.36-.29.36.01.36.23.36-.23.37.31.36-.15.36 1.2.36.33.36-.14.37-.12.36-.31.36-.14.36-.5.37.11.36-.21.36.08.36.08.36.01.37.16.36-.15.36.32.36.17.36.09.37-.15.36.06.36-.71.36-.11.36.2.37-.11.36-.12.36.31.36-.26.37-.07.36.21.36.72.36.27.36-.12.37.06.36-.43.36-.64.36.05.36.08.37-.09.36-.06.36-.1.36.27.36-.2.37.19.36.07.36.64.36.03.37-.17.36-.13.36-.63.36-.11.36-.02.37 1.47.36.36.36.09.36.06.36.04.37-.16.36-.14.36-.01.36.16.36-.25.37-.57.36-.38.36-.12.36.12.36-.09.37.08.36-.01.36.04.36.08.37-.31.36.5.36.29.36.26.36-.3.37-.84.36.51.36-.45"/><use xlink:href="#d" color="#3B75EA" transform="matrix(3.75 0 0 3.75 182.98 171.22)"/><use xlink:href="#d" color="#3B75EA" transform="matrix(3.75 0 0 3.75 220.55 22.51)"/></g><path fill="none" stroke="none" stroke-linecap="round" stroke-linejoin="round" stroke-width="0" d="M28 45.01V205M371.99 45.01H28" color="#000"/></svg>