<svg xmlns="http://www.w3.org/2000/svg" xmlns:xlink="http://www.w3.org/1999/xlink" viewBox="0 0 400 250"><path fill="none" d="M0 0h400v250H0z"/><defs><use xlink:href="#a" id="h" fill="currentColor" stroke="none"/><use xlink:href="#b" id="c" stroke="currentColor" transform="rotate(180)"/><use xlink:href="#d" id="e" stroke="currentColor" transform="rotate(45)"/><use xlink:href="#e" id="g" fill="currentColor" stroke="none"/><path id="d" stroke="currentColor" stroke-width=".267" d="M-1-1h2v2h-2z"/><path id="b" stroke="currentColor" stroke-width=".267" d="m0-1.33-1.33 2h2.66z"/><path id="f" stroke="currentColor" stroke-width=".267" d="M0 1.33 1.265.411.782-1.067l-1.564-.009-.483 1.487z"/><circle id="a" cx="0" cy="0" r="1" stroke="currentColor" stroke-width=".267"/></defs><path fill="none" stroke="#333" stroke-linecap="round" stroke-linejoin="round" stroke-width=".1" d="M46.1 205V45.01" class="gridline" color="#000"/><g fill="none" stroke="none" stroke-linecap="round" stroke-linejoin="round" stroke-width="0" color="#000"><path d="M46.1 205v-7.5m0-152.49v7.5"/><text fill="#000" font-family="KaTeX_Main" font-size="8" text-anchor="middle" transform="translate(46.1 215.1)"><tspan> 1</tspan></text></g><path fill="none" stroke="#333" stroke-linecap="round" stroke-linejoin="round" stroke-width=".1" d="M82.31 205V45.01" class="gridline" color="#000"/><g fill="none" stroke="none" stroke-linecap="round" stroke-linejoin="round" stroke-width="0" color="#000"><path d="M82.31 205v-7.5m0-152.49v7.5"/><text fill="#000" font-family="KaTeX_Main" font-size="8" text-anchor="middle" transform="translate(82.31 215.1)"><tspan> 2</tspan></text></g><path fill="none" stroke="#333" stroke-linecap="round" stroke-linejoin="round" stroke-width=".1" d="M118.52 205V45.01" class="gridline" color="#000"/><g fill="none" stroke="none" stroke-linecap="round" stroke-linejoin="round" stroke-width="0" color="#000"><path d="M118.52 205v-7.5m0-152.49v7.5"/><text fill="#000" font-family="KaTeX_Main" font-size="8" text-anchor="middle" transform="translate(118.52 215.1)"><tspan> 3</tspan></text></g><path fill="none" stroke="#333" stroke-linecap="round" stroke-linejoin="round" stroke-width=".1" d="M154.73 205V45.01" class="gridline" color="#000"/><g fill="none" stroke="none" stroke-linecap="round" stroke-linejoin="round" stroke-width="0" color="#000"><path d="M154.73 205v-7.5m0-152.49v7.5"/><text fill="#000" font-family="KaTeX_Main" font-size="8" text-anchor="middle" transform="translate(154.73 215.1)"><tspan> 4</tspan></text></g><path fill="none" stroke="#333" stroke-linecap="round" stroke-linejoin="round" stroke-width=".1" d="M190.94 205V45.01" class="gridline" color="#000"/><g fill="none" stroke="none" stroke-linecap="round" stroke-linejoin="round" stroke-width="0" color="#000"><path d="M190.94 205v-7.5m0-152.49v7.5"/><text fill="#000" font-family="KaTeX_Main" font-size="8" text-anchor="middle" transform="translate(190.94 215.1)"><tspan> 5</tspan></text></g><path fill="none" stroke="#333" stroke-linecap="round" stroke-linejoin="round" stroke-width=".1" d="M227.15 205V45.01" class="gridline" color="#000"/><g fill="none" stroke="none" stroke-linecap="round" stroke-linejoin="round" stroke-width="0" color="#000"><path d="M227.15 205v-7.5m0-152.49v7.5"/><text fill="#000" font-family="KaTeX_Main" font-size="8" text-anchor="middle" transform="translate(227.15 215.1)"><tspan> 6</tspan></text></g><path fill="none" stroke="#333" stroke-linecap="round" stroke-linejoin="round" stroke-width=".1" d="M263.36 205V45.01" class="gridline" color="#000"/><g fill="none" stroke="none" stroke-linecap="round" stroke-linejoin="round" stroke-width="0" color="#000"><path d="M263.36 205v-7.5m0-152.49v7.5"/><text fill="#000" font-family="KaTeX_Main" font-size="8" text-anchor="middle" transform="translate(263.36 215.1)"><tspan> 7</tspan></text></g><path fill="none" stroke="#333" stroke-linecap="round" stroke-linejoin="round" stroke-width=".1" d="M299.57 205V45.01" class="gridline" color="#000"/><g fill="none" stroke="none" stroke-linecap="round" stroke-linejoin="round" stroke-width="0" color="#000"><path d="M299.57 205v-7.5m0-152.49v7.5"/><text fill="#000" font-family="KaTeX_Main" font-size="8" text-anchor="middle" transform="translate(299.57 215.1)"><tspan> 8</tspan></text></g><path fill="none" stroke="#333" stroke-linecap="round" stroke-linejoin="round" stroke-width=".1" d="M335.78 205V45.01" class="gridline" color="#000"/><g fill="none" stroke="none" stroke-linecap="round" stroke-linejoin="round" stroke-width="0" color="#000"><path d="M335.78 205v-7.5m0-152.49v7.5"/><text fill="#000" font-family="KaTeX_Main" font-size="8" text-anchor="middle" transform="translate(335.78 215.1)"><tspan> 9</tspan></text></g><path fill="none" stroke="#333" stroke-linecap="round" stroke-linejoin="round" stroke-width=".1" d="M371.99 205V45.01" class="gridline" color="#000"/><g fill="none" stroke="none" stroke-linecap="round" stroke-linejoin="round" stroke-width="0" color="#000"><path d="M371.99 205v-7.5m0-152.49v7.5"/><text fill="#000" font-family="KaTeX_Main" font-size="8" text-anchor="middle" transform="translate(371.99 215.1)"><tspan> 10</tspan></text></g><g fill="none" stroke="none" stroke-linecap="round" stroke-linejoin="round" stroke-width="0" color="#000"><path d="M371.99 205h-7.5"/><text fill="#000" font-family="KaTeX_Main" font-size="8" transform="translate(378.99 207.6)"><tspan>0.00</tspan></text></g><g fill="none" stroke="none" stroke-linecap="round" stroke-linejoin="round" stroke-width="0" color="#000"><path d="M371.99 178.33h-7.5"/><text fill="#000" font-family="KaTeX_Main" font-size="8" transform="translate(378.99 180.93)"><tspan>1.00</tspan></text></g><g fill="none" stroke="none" stroke-linecap="round" stroke-linejoin="round" stroke-width="0" color="#000"><path d="M371.99 151.67h-7.5"/><text fill="#000" font-family="KaTeX_Main" font-size="8" transform="translate(378.99 154.27)"><tspan>2.00</tspan></text></g><g fill="none" stroke="none" stroke-linecap="round" stroke-linejoin="round" stroke-width="0" color="#000"><path d="M371.99 125h-7.5"/><text fill="#000" font-family="KaTeX_Main" font-size="8" transform="translate(378.99 127.6)"><tspan>3.00</tspan></text></g><g fill="none" stroke="none" stroke-linecap="round" stroke-linejoin="round" stroke-width="0" color="#000"><path d="M371.99 98.34h-7.5"/><text fill="#000" font-family="KaTeX_Main" font-size="8" transform="translate(378.99 100.94)"><tspan>4.00</tspan></text></g><g fill="none" stroke="none" stroke-linecap="round" stroke-linejoin="round" stroke-width="0" color="#000"><path d="M371.99 71.67h-7.5"/><text fill="#000" font-family="KaTeX_Main" font-size="8" transform="translate(378.99 74.27)"><tspan>5.00</tspan></text></g><g fill="none" stroke="none" stroke-linecap="round" stroke-linejoin="round" stroke-width="0" color="#000"><path d="M371.99 45.01h-7.5"/><text fill="#000" font-family="KaTeX_Main" font-size="8" transform="translate(378.99 47.61)"><tspan>6.00</tspan></text></g><path fill="none" stroke="none" stroke-linecap="round" stroke-linejoin="round" stroke-width="0" d="M28 45.01V205M371.99 45.01H28" color="#000"/><text fill="#000" stroke="none" stroke-linecap="round" stroke-linejoin="round" stroke-width="0" color="#000" font-family="KaTeX_Main" font-size="10" text-anchor="middle" transform="rotate(-90 68.255 56.755)"><tspan font-weight="bold">Duration </tspan><tspan> in milliseconds</tspan></text><text fill="#000" stroke="none" stroke-linecap="round" stroke-linejoin="round" stroke-width="0" color="#000" font-family="KaTeX_Main" font-size="10" text-anchor="middle" transform="translate(199.99 238.25)"><tspan>Operations / 10</tspan><tspan dy="-5" font-size="8">5</tspan></text><text fill="#000" stroke="none" stroke-linecap="round" stroke-linejoin="round" color="#000" font-family="KaTeX_Main" font-size="8" transform="translate(99.2 10.11)"><tspan>Splay</tspan></text><g fill="none" stroke="currentColor" stroke-linecap="round" stroke-linejoin="round" color="#000"><path stroke="violet" d="M63.7 7.51h29.9M28 189.78l.36.34.36-1.15.37.11.36.22.36.19.36-.3.36-.15.37-.86.36.95.36.46.36.12.37-.76.36-.18.36.69.36-.54.36-.27.37-.22.36.13.36.63.36.39.36-.84.37-.19.36.17.36 1.4.36-2.06.36.58.37-1.01.36 1.58.36-.39.36.74.36-1.22.37.27.36.12.36-.17.36.12.37-.61.36-.06.36.61.36.6.36-.65.37-.21.36-.23.36 1.44.36-1.8.36.33.37-.69.36 1.24.36-.06.36.59.36-1.43.37.82.36-.26.36-.18.36-.29.37.01.36-.18.36.51.36.84.36-1.02.37-.47.36.65.36.82.36-1.67.36.33.37-.35.36.82.36.32.36.45.36-1.72.37 1.06.36-.44.36.01.36.02.37-1.04.36 1.54.36-.77.36 1.05.36-.45.37-.87.36.4.36.66.36-.69.36-.21.37-.61.36 1.02.36.59.36-.59.36-.49.37.02.36 1.43.36-1.62.36-.01.36-.25.37.76.36.01.36 1.01.36-1.58.37.41.36-.07.36.66.36-.65.36-.63.37.15.36.45.36 1.18.36-.96.36-.84.37.54.36.46.36-.24.36-.63.36-.22.37.98.36.01.36.24.36-.87.37.26.36.37.36-.63.36-.16.36.13.37-.03.36.45.36.96.36-1.82.36 1 .37-.4.36.42.36-.43.36-.64.36.16.37.83.36.44.36-.64.36-.78.36.53.37.47.36-.23.36-.67.36-.21.37.85.36.66.36-.42.36-1.11.36.6.37.64.36-.41.36-1.07.36.4.36.63.37-.03.36.87.36-1.5.36.59.36.05.37.02.36-.07.36-.99.36.3.37.27.36 1.63.36-1.62.36-.03.36.39.37.28.36-.51.36-.19.36-.62.36 1.21.37.21.36-.2.36-1.21.36.71.36 1.1.37-1.01.36-1.08.36.77.36.66.36-.24.37.87.36-1.42.36.18.36.39.37-.19.36-.04.36-.92.36.86.36.2.37 1.06.36-1.45.36.18.36.02.36.18.37-.02.36-.43.36-.83.36 1.44.36.42.37-.8.36-.68.36 1 .36.1.37-.48.36-.41.36-.06.36.63.36.22.37.84.36-2.24.36.59.36 1.16.36-.76.37-.79.36.07.36 1.3.36-.39.36.77.37-1.62.36.6.36.43.36-.26.37-.24.36-1.37.36 2.13.36-1.14.36 1.65.37-1.4.36.12.36.12.36.07.36-.43.37.02.36-.39.36 1.01.36.16.36-.42.37-1.01.36 1.26.36.21.36-.85.36-.22.37-.35.36 1.36.36-.41.36.75.37-1.79.36.38.36 1.46.36-1.24.36.02.37-1.11.36 1.88.36-.42.36 1.05.36-2.12.37 1.28.36-.46.36.06.36-.05.36-1.45.37 2 .36-.11.36.39.36-1.04.37.01.36.58.36.07.36-.88.36-.47.37.91.36.19.36.4.36-.21.36-1.31.37 1.31.36.19.36-.68.36-1.08.36.46.37 1.2.36.05.36.41.36-1.89.36.43.37 1.61.36-1.87.36-.03.36.21.37.84.36-.19.36.89.36-1.75.36.82.37-.06.36-.26.36.08.36-1.3.36 1.7.37-.25.36 1.16.36-1.49h.36l.36.35.37.11.36-.47.36-1.03.36 1.85.37-.43.36.4.36-.16.36-1.3.36 1.17.37.05.36-.43.36-1.24.36.99.36.85.37.03.36-.16.36-1.36.36 1.04.36.43.37-.77.36-.74.36.46.36 1.19.36-.49.37.54.36-1.45.36.41.36.82.37-.74.36.13.36-1.32.36 1.74.36-.07.37.88.36-2.29.36 1.44.36-.24.36.08.37-.53.36-1.27.36 2.09.36-.5.36.94.37-.97.36-.53.36.65.36.43.37-.82.36-1.04.36 1.38.36-.01.36.5h.37l.36-1.7.36 1.61.36.03.36-1.22.37-.42.36.69.36.73.36.21.36-.01.37-1.45.36 1.24.36.22.36-1.04h.37l.36-.27.36 1.26.36-.43.36.65.37-1.61.36.59.36.99.36-1.41.36 1.21.37-2.32.36 2.27.36-.37.36 1.2.36-1.8.37.16.36.34.36.11.36-.45.36-1.09.37 2.11.36-.87.36.67.36-.22.37-1.54.36 1.54.36-.04.36-.39.36-1.02.37.99.36.28.36.37h.36l.36-1.67.37 1.19.36.68.36-1.05.36-1.04.36 1.32.37-.13.36.62.36.24.36-2.06.37 1.57.36.46.36-1.46.36.46.36-.48.37 1.05.36-.02.36.47.36-1.66.36.64.37.91.36-.98.36.15.36-1.2.36 1.81.37-.56.36 1.47.36-1.82.36-.12.36 1.07.37-.59.36-.06.36-1.22.36 1.57.37-.49.36 1.21.36-1.04.36-.4.36.54.37.63.36-1.52.36-.28.36 1.15.36-.01.37.48.36-.44.36-.89.36.86.36.86.37-1.62.36-.25.36.51.36.73.37.16.36-.18.36-1.28.36.81.36.8.37-1.2.36-.12.36.26.36.67.36-.01.37.08.36-1.28.36 1.16.36.01.36-.2.37-.56.36-.4.36 1.02.36-.04.37 1.03.36-1.68h.36l.36.82.36.02.37-.85.36-.63.36 1.29.36.21.36.39.37-.62.36-.86.36.6.36.64.36-1.04.37-.81.36 1.78.36-.53.36.75.36-.51.37-1.11.36 1.03.36.59.36-1.19.37-.44.36.78.36.26.36.19.36.38.37-1.91.36 1.07.36 1.07.36-1.65.36-.04.37.66.36-.05.36.6.36.17.36-1.81.37 1.03.36.93.36-1.36.36.02.37.09.36.25.36.26.36 1.03.36-2.04.37.74.36.44.36-.32.36-.13.36-1.03.37 1.29.36-.23.36 1.21.36-1.37.36-.26.37.64.36.22.36-.5.36-1.44.36 1.46.37.58.36.23.36-.63.36-1.05.37 1.06.36.47.36-1.08.36-.87.36 1.92.37-.74.36 1.1.36-.38.36-2.06.36 1.82.37.45.36-1.44.36-.22.36 1.15.36-.37.37.44.36.92.36-2.98.36 2.01.37.46.36-1.61.36.57.36.01.36.17.37.67.36.11.36-1.34.36.14.36 1.47.37-1.58.36.34.36-.01.36.4.36-.41.37 1.65.36-1.7.36-.56.36 1.37.36-.71.37.32.36-1.47.36 1.53.36-.5.37 1.68.36-1.39.36-.51.36.59.36-.03.37.06.36-1.74.36 2.51.36-1.55.36 1.6.37-.54.36-1.5.36 1.41.36.03.36-.67.37-1.02.36 2.02.36-1.21.36 1.04.37.07.36-1.65.36 1.15.36.63.36-1.39.37-.2.36 1.11.36-.11.36-.03.36.63.37-1.39.36.37.36 1.2.36-1.84.36.62.37-.25.36.88.36-.27.36 1.06.37-1.67.36-.39.36 1.79.36-1.97.36 1.76.37-2.05.36 1.44.36-.17.36 1.42.36-1.59.37-.92.36 1.86.36-.95.36.59.36-1.94.37 1.91.36-.43.36 1.02.36-1.01.36-.87.37 1.46.36-.12.36-.7.36-1.42.37 2.79.36-1.75.36 1.62.36-.56.36-1.47.37 1.33.36.09.36-.67.36-1 .36 2.03.37-1.23.36 1.02.36.28.36-1.62.36.73.37.61.36-1.06.36-.41.36.99.37.04.36-.09.36.91.36-1.42.36-.38.37 1.95.36-2.12.36.97.36-.71.36 1.38.37-.8.36 1.54.36-2.02.36-.03.36 1.62.37-1.66.36 1.17.36-2.41.36 2.65.36-1.04.37 1.61.36-1.84.36-.38.36 1.65.37-1.01.36.64.36-1.93.36 2.03.36-.78.37 1.25.36-.81.36-1.26.36 1.58.36-.52.37-.12.36-1.15.36 2 .36-1.23.36 1.34.37-.47.36-1 .36.72.36.12.37-.26.36-1.23.36 1.98.36-.74.36.36.37.26.36-1.3.36.45.36.78.36-.97.37-.83.36 1.75.36-.35.36-.07.36.92.37-1.71.36.08.36 1.82.36-2.11.36.18.37.43.36.83.36-.46.36.89.37-1.38.36-.26.36 1.56.36-2.14.36 1.79.37-1.59.36 1.11.36.03.36.89.36-1.11.37-1.01.36 1.85.36-1.28.36.88.36-1.74.37 2.14.36-1.03.36 1.02.36-.83.37-1.03.36 1.65.36.05.36-1.08.36-.89.37 2.15.36-1.08.36.78.36.12.36-1.33.37.65.36.45.36-.68.36-1.03.36 2.05.37-.72.36.34.36.19.36-1.61.37.91.36.46.36-.35.36-1.44.36 2.32.37-.97.36.24.36.42.36-.39.36-1.22.37 1.76.36-1.43.36-.25.36 1.26.36-.2.37.02.36.81.36-1.18.36-.69.36 1.9.37-1.82.36.97.36-.98.36 1.57.37-1.45.36 1.91.36-1.63.36-.11.36 1.3.37-1.01.36.22.36-1.32.36 2.3.36-1.64.37 1.66.36-.83.36-1.41.36 2.16.36-.33.37-1.31.36-.8.36 2.3.36-1.21.37 1.35.36-.73.36-.78.36.72.36.48.37-1.07.36-.94.36 1.96.36-.23.36.04.37-.43.36-.2.36.2.36.42.36-.86.37-.84.36 2.18.36-1.13.36.55.36.23.37-.99.36.01.36 1.2.36-1.45.37-.87.36 2.39.36-.87.36.33.36.27.37-.81.36-.23.36 1 .36-1.17.36.76.37-.9.36 1.47.36-.97.36.59.36-.38.37-.88.36 2.06.36-1.78.36.74.37-1.24.36 2.08.36-1.4.36 1.12.36-.92.37-.74.36 1.74.36-.53.36-.6.36-1.24.37 2.52.36-1.23.36 1.29.36-1.26.36-.57.37 1.22.36.36.36-1.4.36-.36.36 1.31.37-.32.36.81.36-.85.36-.89.37 1.43.36-.14.36-1 .36-.49.36 1.6.37-.47.36.58.36-.22.36-.88.36.31.37.76.36-1.21.36-.61.36 2.16.36-.96.37.41.36-.01.36-.42.36-.83.37 2.07.36-2.05.36-.27.36 1.65.36-.15.37-.21.36-.01.36-.43.36-.41.36 1.78.37-1.66.36.12.36-.14.36 1.51.36-1.18.37.45.36-.22.36-.92.36 2.04.37-1.58.36.43.36-1.3.36 2.46.36-1.17.37.39.36-.81.36-.52.36 1.9.36-.63.37-.79.36-.36.36 1.11.36-.09.36.37.37-.6.36-1.06.36 1.87.36-.41.36-1.04.37-.37.36 1.84.36-.84.36.59.37-.82.36-.02.36.37.36.16.36-.68.37-.67.36 1.83.36-.76"/><use xlink:href="#d" color="violet" transform="matrix(3.75 0 0 3.75 354.25 183.36)"/><use xlink:href="#d" color="violet" transform="matrix(3.75 0 0 3.75 78.65 7.51)"/></g><text fill="#000" stroke="none" stroke-linecap="round" stroke-linejoin="round" color="#000" font-family="KaTeX_Main" font-size="8" transform="translate(99.2 25.11)"><tspan>LBSTRelaxed</tspan></text><g fill="none" stroke="currentColor" stroke-linecap="round" stroke-linejoin="round" color="#000"><path stroke="violet" stroke-dasharray="4.5,2.0,0.5,2.0,0.5,2.0" d="M63.7 22.51h29.9M28 187.73l.36-.44.36.51.37-2 .36 2.14.36-1.08.36 1.15.36-.52.37.56.36-5.58.36 5.67.36-.97.37.49.36-1.6.36 1.46.36.6.36-1.7.37-1.38.36 2.39.36-1.42.36-8.11.36 8.8.37 1.51.36-.86.36-.18.36-1.12.36 1.12.37-1.17.36-1.32.36 1.89.36.52.36-.19.37-1.42.36 1.79.36-4.69.36 3.56.37-.21.36-.08.36 1.73.36-.68.36-2.34.37-17.69.36 20.17h.36l.36-.79.36.72.37-.1.36.47.36-1.01.36-1.76.36 1.67.37.31.36-.65.36 1.04.36-.55.37-3.38.36 3.21.36-.48.36.62.36-1.25.37.43.36 1.94.36-.67.36-4.39.36 4.23.37-.81.36-.12.36-10.36.36 11.56.36.26.37-.97.36.14.36-.62.36-1.12.37 1.49.36-1.34.36.27.36 1.54.36-1.99.37 1.97.36-.8.36-.81.36-2.29.36.48.37 3.14.36-.81.36.44.36-1.95.36.7.37-23.23.36 24.72.36.28.36.26.36-1.36.37.85.36-2.37.36 1.71.36-.35.37 1.16.36-2.43.36.78.36 1.23.36-.63.37-.39.36-.7.36-2.88.36 4.39.36.04.37-.37.36-.65.36-.78.36.74.36-.16.37 1.83.36-3.5.36 1.64.36 1.04.37-9.82.36 8.88.36-.15.36.94.36.61.37-2.43.36 2.26.36-3.17.36 1.99.36-.45.37.98.36.08.36-1.24.36.14.36-48.17.37 49.84.36-.81.36 1.37.36-.17.36-1.46.37 1.09.36-.99.36.21.36-.79.37-.78.36 3 .36-.64.36-1.47.36 1.27.37-1.3.36.02.36-4.85.36 6.47.36-.16.37-1.62.36 1.49.36-1.55.36.35.36-.44.37 1.35.36-1.59.36.2.36.63.37-8.62.36 7.54.36 1.27.36-.22.36.58.37-.31.36-.51.36.26.36-2.08.36 1.53.37-.29.36 2.23.36-.89.36-1.95.36 1.87.37-4.75.36 3.14.36.49.36 1.18.36-.04.37-1.72.36 1.5.36-1.02.36-19.7.37 14.52.36 7.31.36-.31.36-1.66.36 1.29.37-.88.36.17.36-1.01.36 1.78.36-1.11h.37l.36-1.02.36.43.36.6.36-.14.37.1.36.88.36-.45.36-6.22.37 5.73.36-.47.36.35.36-.19.36 1.61.37-.69.36-1.8.36 1.41.36-1.02.36-.05.37-2.51.36-.04.36-2.09.36 4.94.36.37.37-.83.36.62.36-.17.36 1.42.37-1.22.36-.68.36-1.32.36.36.36 1.35.37-49.74.36 46.24.36 3.66.36 2.07.36-1.99.37.58.36-.07.36.27.36.38.36-.18.37-.87.36.2.36-.96.36-1.89.36 2.84.37 1.01.36-.35.36-1.65.36 1.24.37-1.05.36-5.06.36 5.44.36 1.37.36-.59.37-1.54.36.88.36-.48.36-.19.36.05.37.67.36-.32.36-1.05.36-1.72.36-5.48.37 8.36h.36l.36 1.24.36-.99.37-.79.36.75.36-1.36.36 1.07.36-1.71.37 1.34.36.7.36-.54.36-.13.36-.46.37.69.36-.93.36-1.98.36 2.07.36.95.37-1.02.36.61.36-.09.36-15.29.36 9.55.37 5.52.36 1.54.36-1.41.36.51.37-1.12.36-.23.36 2.06.36-1.14.36 1.52.37-2.12.36.68.36-.41.36-1.74.36.57.37.78.36 1.71.36-.9.36-.5.36-.35.37 1.74.36-.55.36-1.8.36 1.63.37-.29.36-.95.36-2.47.36-103.36.36 107.12.37 1.32.36-1.11.36.41.36-.06.36.12.37.5.36-.89.36.81.36-1.85.36-.08.37.06.36 1.15.36.54.36.22.36-1.51.37.18.36-.24.36.57.36-.99.37-1.81.36 2.96.36-.6.36.35.36-.27.37.48.36-.54.36 1.59.36-1.03.36-1.15.37.29.36-.38.36-.34.36-4.88.36 2.16.37 4.61.36-.95.36.25.36-.29.37.65.36-.56.36 1.21.36-.48.36-1.16.37-.13.36-.52.36.14.36.72.36 1.43.37-.83.36-1.11.36-.11.36-.66.36-1.66.37 2.54.36 1.47.36-1.07.36.38.37-22.9.36 21.53.36 1.24.36.77.36-.34.37-.44.36.26.36-1.24.36.37.36-.26.37 1.4.36-.14.36-.69.36.91.36-1.58.37-.53.36-.97.36 1.07.36 1.86.36-.93.37.69.36-.58.36-.55.36.24.37.92.36-.21.36-1.07.36.73.36-.63.37-2.02.36-6 .36 8.6.36.64.36-1.18.37.75.36-.78.36.64.36-.67.36 1.73.37-1 .36-.86.36.23.36-.43.37.15.36.59.36.03.36-49.86.36 46.65.37-1.19.36 4.98.36-.29.36 1.26.36-.08.37-1.27.36.55.36.06.36-1.32.36.66.37.88.36-.01.36-1.68.36.62.36.15.37-.57.36.33.36.63.36-.66.37-.6.36.94.36-2.05.36-1.45.36 3.29.37 1.31.36-.69.36-1.26.36.81.36-.62.37.3.36-.42.36 1.59.36-.75.36-1.06.37-.02.36-4.34.36-4.01.36 10.21.37-.8.36-.14.36.47.36-1.51.36.57.37-.23.36 1.17.36-.51.36-.21.36.13.37-.43.36-.52.36.24.36 1.33.36-.82.37-1.31.36 1.48.36-.98.36-.27.37-1.68.36-.34.36 2.81.36-10.91.36-2.86.37 13.46.36.98.36.43.36-.59.36-.96.37.54.36.58.36-1.57.36.75.36.88.37.39.36-1.99.36.76.36-.85.36.88.37-.23.36 1.05.36-2.2.36-2.55.37 1.66.36 1.66.36.81.36.64.36-71.27.37 29.63.36 30.13.36 9.97.36-.26.36 2.99.37-.76.36-.41.36.59.36-.76.36-.51.37.6.36.6.36-.96.36-.13.37.93.36-.58.36-1.37.36 1.42.36.71.37-.73.36-1.38.36.96.36.4.36-1.11.37-.43.36-2.15.36 1.5.36 1.27.36.61.37-.38.36.02.36.22.36.8.36-.56.37-.84.36-.38.36 1.05.36-.6.37.84.36-5.17.36-3.78.36 9.27.36-.59.37-1.47.36 1.67.36.35.36-.06.36-1.52.37.71.36-.26.36-.61.36.29.36 1.22.37.43.36-1.72.36-.22.36.52.37-.39.36-1.38.36 1.3.36.9.36-.09.37-1.05.36-1.8.36-4.86.36-8.79.36 17.26.37-1.13.36-.16.36 1.01.36-.73.36.53.37.87.36-1.21.36.01.36-1.85.36 1.46.37.51.36.84.36-1.51.36.15.37.72.36-.81.36-2.05.36.04.36 2.61.37-1.43.36.5.36.2.36.49.36-.29.37.29.36.08.36-.17.36.49.36-1.62.37.46.36.37.36-.3.36-5.04.37 2.01.36.07.36 3.65.36-.2.36-.06.37 1.35.36-1.19.36.38.36-2.06.36 1.27.37-.14.36.86.36-43.29.36 34.25.36 8.52.37-.05.36.04.36.58.36.57.37-.9.36.83.36-1.89.36.62.36.21.37-.79.36-1.14.36.15.36 2.18.36-.37.37-.51.36.56.36 1.33.36-.89.36-1.35.37-.18.36 1.3.36-.28.36.26.36-.46.37-1.48.36-5.62.36 3.49.36 2.44.37 1.34.36 1.32.36-.54.36-1.22.36-.35.37.61.36-.23.36.33.36.15.36-.34.37.31.36-.47.36-1.14.36 1.14.36.72.37-.41.36-1.22.36.24.36.45.37.49.36-.56.36.58.36-3.54.36-1.75.37-97.38.36-22.61.36 127.65.36-1.29.36.03.37-1.27.36 1.55.36-.22.36.02.36 1.15.37-1.03.36-.76.36-.75.36 1.2.36-.02.37-.64.36 1.13.36-.62.36-.24.37-.93.36.39.36.92.36-.91.36-1.97.37.8.36 1.29.36.63.36-1.37.36 1.28.37-.05.36.28.36-1.3.36.85.36.13.37-.95.36.8.36.87.36-.8.37-1.22.36-.66.36 1.91.36-2 .36-5.47.37 4.87.36 2.57.36-.08.36-.92.36.68.37.69.36-.37.36-.03.36-.19.36.13.37-.18.36-.49.36.87.36-.5.36.82.37-1.87.36 1.03.36-.21.36-.39.37-.18.36 1.56.36-.69.36-.69.36-2.78.37 1.39.36 1.17.36-18.62.36 13.62.36 5.44.37.82.36.38.36-1.23.36.56.36 1.06.37-.59.36-.73.36-.16.36.74.37-.98.36.33.36 1.61.36-1.38.36-.62.37-.45.36.72.36.39.36-.18.36.14.37-.34.36-.6.36-1.86.36.98.36.23.37 2.32.36-.61.36-.77.36-.19.37.4.36.26.36-.87.36 1.55.36-.76.37-.9.36-1.17.36.59.36-2.59.36-.45.37 3.88.36-.41.36.75.36.7.36-1.04.37.12.36 1.87.36-1.62.36-11.81.36-29.94.37 41.71.36.82.36.74.36-.26.37-1.37.36.32.36.28.36-.64.36.51.37.94.36-1.81.36.53.36-.72.36.42.37.1.36.52.36-.59.36-.96.36 1.21.37.49.36-.9.36.45.36 1 .37-.34.36-1.11.36-.34.36.34.36-.38.37.94.36-1.13.36-.28.36-4.42.36 2.18.37 3.71.36-.34.36.63.36.2.36-1.46.37.66.36.06.36-.05.36-.28.36 1.43.37-.88.36-.97.36-.35.36.8.37.2.36.39.36-.23.36-1.04.36.44.37.45.36-.44.36-.63.36.47.36-.01.37-1.85.36-5.96.36-5.43.36 11.82.36 3.02.37-.42.36-.68.36-.37.36.83.37-.18.36-.2.36 1.18.36-.56.36-1.02.37-.12.36-.06.36.78.36-.06.36.3.37-1.77.36.72.36.6.36-.25.36-.59.37 1.95.36-1 .36-1.74.36-.01.36.91.37 1.04.36-.55.36-.02.36-1.47.37-17.65.36-75.55.36 94.75.36-3.23.36-8.17.37 12.08.36-.55.36 1.05.36-.13.36.33.37.51.36-.2.36-1.76.36.43.36-.07.37 1.08.36-.71.36.35.36-.76.37-.59.36 1.28.36-1.22.36-.19.36 1.48.37.3.36-1.3.36-.52.36.46.36-.46.37.35.36.64.36-.25.36-.5.36-.35.37.72.36.52.36-.28.36.21.37-1.1.36-.35.36.94.36-1.48.36.23.37 1.37.36-.02.36-.56.36-.44.36-2.92.37-2.34.36 6.42.36.65.36-1.32.36.05.37 1.46.36-1.29.36.01.36.68.36-.03.37-.69.36-.87.36.84.36.63.37-.21.36.38.36-1.27.36-.25.36.89.37-.41.36.34.36.26"/><use xlink:href="#g" color="violet" transform="matrix(3.75 0 0 3.75 67.83 183.93)"/><use xlink:href="#g" color="violet" transform="matrix(3.75 0 0 3.75 78.65 22.51)"/></g><text fill="#000" stroke="none" stroke-linecap="round" stroke-linejoin="round" color="#000" font-family="KaTeX_Main" font-size="8" transform="translate(241.1 10.11)"><tspan>AVLRelaxedBottomUp</tspan></text><g fill="none" stroke="currentColor" stroke-linecap="round" stroke-linejoin="round" color="#000"><path stroke="#D336C8" d="M205.6 7.51h29.9M28 188.9l.36.56.36.35.37-.83.36.31.36-.02.36-.48.36-.24.37-.4.36.55.36.15.36-.02.37.55.36-1.16.36.95.36-.03.36-1.1.37-.21.36.98.36-.4.36.58.36.2.37-.62.36.19.36.4.36-.47.36-.99.37.59.36-.35.36 1.17.36-.02.36-.05.37-1.35.36 1.73.36-.43.36-1.19.37-.18.36 1.33.36-1.2.36.99.36.13.37-.8.36.39.36.33.36.01.36-1.72.37 1.03.36-.65.36 1.13.36-.36.36-.48.37.39.36.54.36-.59.36-.72.37.02.36.21.36-.07.36.2.36.14.37-.04.36.15.36.42.36-1.19.36-.35.37.06.36.6.36-.25.36.58h.36l.37-.43.36.61.36-.42.36-1.29.37.42.36.8.36-.64.36.79h.36l.37-.23.36.19.36-.37.36-1.27.36 1.23.37-.23.36-.03.36.63.36.23.36-.64.37.62.36-1.05.36-.69.36 1.07.36-.22.37.39.36-.04.36-.39.36.8.37.02.36-1.22.36-.25.36.65.36.13h.37l.36.43.36-.56.36.58.36.46.37-1.09.36-1.28.36 1.69.36-.2.36-.24.37.58.36-.42.36.18.36.01.37.02.36-1.47.36 1.41.36-.43.36.25.37.59.36-.82.36.16.36.41.36.01.37-1.48.36.23.36.94.36.01.36.39.37-1.01.36.36.36.83.36-.61.36-1.69.37.81.36.38.36.98.36-.59.37-.16.36-.45.36 1.82.36-2.27.36-.02.37.16.36.37.36 1.03.36-.59.36-.83.37.79.36 1.04.36-1.68.36-.85.36.61.37.57.36.16.36.65.36-1.65.37 1.15.36.03.36-1.04.36-.45.36.22.37 1.42.36-.25.36-.58.36.39.36.39.37-.83.36-1.02.36.57.36.75.36-.18.37.14.36-.17.36-.4.36 1.37.36-.99.37-1.65.36 1.2.36.18.36.63.37.23.36-1.48.36 1.23.36-.03.36-1 .37.22.36-.89.36 1.65.36-.22.36-.41.37.62.36-.03.36-.77.36-.43.36-.01.37.55.36.82.36-.41.36-.38.37.41.36-.23h.36l.36-1.2.36.58.37.79.36-.2.36-.02.36.22.36.45.37-.59.36-1.72.36 1.22.36.22.36.58.37-.41.36.2.36-.42.36 1.19.37-2.05.36.22.36.1.36.47.36.61.37-.62.36.2.36.61.36-.42.36-1.8.37 1.16.36-.03.36.82.36-.39.36.38.37-.37.36.59.36-1 .36-1.02.36.58.37.75.36.65.36-1.04.36.81.37.05.36-.02.36-1.21.36-.91.36 1.22.37 1.06.36-.81.36.37.36.01.36.6.37-1 .36-1.65.36 1 .36.85.36 1.24.37-2.05.36.85.36.37.36.18.37-1.01.36-1.25.36.99.36 1.01.36-.42.37-.03.36.43.36.21.36-.42.36-2.02.37.92.36.42.36 1.46.36-1.62.36.83.37.16.36.23.36-1.44.36-.63.36 1 .37.59.36.18.36-1.04.36 1.44.37-.57.36.25.36-1.89.36.19.36.98.37.43.36.05.36-.05.36.02.36.63.37-1.87.36-.2.36.76.36.01.36 1.2.37-1.19.36.96.36-.59.36.44.37-1.67.36-.04.36 1.03.36.62.36.4.37-1.48.36.83.36.23.36-1.23.36-.45.37.8.36.04.36 1.16.36-.83.36.01.37.26.36-.87.36.22.36-.44.36.59.37.19.36.6.36-.57.36.19.37-.82.36.36.36-.45.36.05.36.16.37 1.24.36-.83.36-.64.36 1.21.36-1.19.37-.03.36-.2.36.79.36-.19.36.6.37-.6.36.54.36-1.42.36 1 .37-.6.36.19.36.63.36-.03.36-.8.37.57.36-.36.36-.21.36 1 .36-1.03.37.4.36.35.36-.59.36.22.36.18.37.02.36-.61.36.79.36-1.04.37 1.01.36-1.03.36.66.36.17.36.18.37-.78.36 1.4.36-2.03.36 1.42.36-1.07.37.63.36.21.36-.06h.36l.36-.2.37-.2.36-.02.36.38.36-.62.36.17.37.42.36-.17.36.39.36-.84.37 1.06.36-1.06.36-.02.36-.02.36.78.37.26.36-1.21.36.36.36.78.36-1.01.37.18.36-.19.36.82.36-.02.36-1.03.37.79.36.04.36-.63.36.38.37-.19.36.4.36-.22.36.01.36.2.37-.57.36.61.36-.25.36-.98.36 1.4.37-.39.36.38.36-.62.36.04h.36l.37.16.36-.64.36 1.04.36.38.36-1.38.37.8.36-.22.36-.18.36-.04.37-.44.36.85.36.64.36-1.2.36.14.37.19.36.39.36-1 .36.35.36.66.37.01.36-1.2.36.93.36.07.36-.65.37.24.36.37.36-.69.36.88.37-.42.36-.68.36 1.46.36-1.04.36.22.37-.22.36-.57.36 1.41.36-.21.36-1.07.37.63.36-.01.36-.2.36.36.36-1.19.37 1.45.36.41.36-1 .36-.65.37 1.24.36-.42.36-.44.36-.21.36 1.26.37-.44.36-.18.36-.62.36 1.03.36-.62.37.15.36-.38.36.98.36-.79.36-.01.37.01.36.22.36.64.36-1.44.36.37.37 1.01.36.08.36-1.31.36.23.37.98.36-.81.36-.41.36.22.36.6.37.43.36-1.07.36.05.36.79.36-.48.37-.35.36.58.36-.82.36 1.44.36-1.67.37 1.46.36-.62.36-.19.36.22.37-.02.36-.88.36 1.49.36-1.03.36.66.37-.24.36-.42.36 1.05.36-1.28.36.01.37 1.68.36-1.43.36.59.36-.38.36.15.37.42.36-1.22.36.37.36 1.21.36-1.2.37.59.36-.6.36.37.36.27.37-.01.36-.8.36.59.36.2.36-.21.37-.57.36.94.36.01.36-.81.36.19.37-.04.36.88.36-1.27.36-.22.36 1.27.37.04.36-.57.36.12.36-.04.37.45.36-1.05.36-.02.36 1.24.36-1.04.37 1.41.36-1.81.36.41.36 1.28.36-1.02.37-.38.36.75.36-.6.36 1.24.36-1.65.37.79.36.39.36-.62.36.2.36-.42.37.37.36.43.36-.97.36 1.37.37-1.67.36 1.48.36-.81.36-.83.36 1.02.37.55.36-.99.36 1.41.36-2.04.36 1.82.37-1.41.36-.62.36 1.82.36-.62.36.43.37-.26.36-1.04.36 1.47.36-.58.37-1.02.36.95.36.02.36.84.36-1.25.37-.44.36 1.23.36-.05.36-.77.36-.05.37.2.36 1.27.36-1.85.36.01.36 1.13.37.29.36-1.09h.36l.36-.18.37 1.83.36-2 .36.75.36-.2.36.65.37-.41.36-.42.36-.67.36 2.27.36-1.4.37-.46.36.57.36.59.36-.78.36-1.04.37.75.36 1.5.36-.58.36-1.26.36.65.37.83.36-1.2.36.14h.36l.37.97.36.3.36-1.91.36.81.36.66.37-.4.36-.84.36.38.36 1.24.36.27.37-2.74.36 1.83.36-.37.36.78.36-1.2.37-.06.36.81.36.48.36-1.89.37 2.05.36-.82.36.42.36-.95.36-.04.37.36.36.89.36-1.91.36 2.19.36-.78.37-.25.36-.74.36.36.36.25.36.15.37-.24.36 1.06.36-1.01.36.17.36.05.37-.79.36.19.36-.22.36.39.37 1.18.36-1.15.36-.01.36.19.36-.6.37.81.36-1.38.36 1.61.36.59.36-1.63.37.3.36.71.36-1.22.36.78.36-1.16.37 1.34.36.44.36-.49.36-.53.37.81.36-1.04.36.75.36-1.46.36 2.01.37-.34.36.51.36-1.41.36.8.36-.77.37.8.36-1.69.36 1.87.36.04.36.17.37-1.23.36.44.36.19.36-.19.36-1.1.37 1.64.36.21.36-.65.36-.21.37-.18.36.43.36.2.36-1.65.36 1.87.37-.19.36-.28.36.24.36-.81.36.55.37.02.36-1.49.36 2.42.36-1.16.36.18.37.65.36-1.65.36 1.19.36-.76.37-.41.36 1.87.36-.82.36-.07.36 1.02.37-2.67.36 2.22.36-1.84.36.4.36 1.45.37-.19.36-.17.36.77.36-3.29.36 2.89.37-1.96.36 1.35.36.39.36-.21.37.17.36-.59.36-.49.36.89.36-1.43.37 1.2.36.22.36.19.36-.16.36-.56.37-.14.36 1.07.36-2.05.36 1.15.36.65.37-.06.36-.14.36-1.23.36.38.36 1.68.37-2.44.36 1.6.36-.14.36.53.37-.15.36-1.68.36.57.36 1.44.36-2.07.37 1.6.36-.58.36.42.36.65.36-2.25.37 1.25.36.01.36-1.05.36 2.03.36-.79.37.38.36.6.36-3.09.36 2.38.37-1.84.36 1.47.36.45.36-.24.36.08.37.21.36-1.67.36 1.46.36-1.25.36.8.37.61.36-.45.36.19.36.61.36-2.42.37 1.81.36-1.48.36 1.3.36.42.36-.21.37.05.36.22.36-2.05.36 2.01.37-1.5.36 1.22.36-.56.36.91.36.03.37-.79.36-1.42.36 2.26.36-2.03.36 2.27.37-1.03.36.6.36.03.36-.43.36-1.48.37.82.36.19.36 1.2.36-1.25.37.65.36.6.36-1.79.36.56.36-.53.37 1.17.36.02.36.03.36-.46.36.62.37-.6.36-.44.36-.43.36 1.21.36-.01.37-.61.36.82.36-.13.36-1.26.36 1.63.37-2.01.36 2.02.36-.63.36-.44.37.85.36-.42.36-1.24.36 1.84.36-1.7.37 1.26.36.01.36-.8.36 1.25.36-.8.37-.44.36.43.36-.71.36 1.06.36-.23h.37l.36.63.36-1.04.36-.22.37-.14.36.77h.36l.36-.37.36.4.37.64.36-.83.36-.25.36-.63.36 1.37.37-.78.36.18.36.38.36.06.36-.4.37.21.36-1.16.36 2 .36-1.6.37.77.36.4.36-.21.36-2.74.36 1.98.37-1.42.36 2.75.36-1.73.36.66.36 1.04.37-1.15.36.02.36.01.36-.47.36.65.37.37.36-.23.36.61.36-.89.36-.42.37.1.36-.14.36-.36.36 1.3.37-.61.36.63.36-.79.36.44.36-3.03.37 2.93.36-.79.36 1.26"/><use xlink:href="#h" color="#D336C8" transform="matrix(3.75 0 0 3.75 125.4 185.43)"/><use xlink:href="#h" color="#D336C8" transform="matrix(3.75 0 0 3.75 220.55 7.51)"/></g><text fill="#000" stroke="none" stroke-linecap="round" stroke-linejoin="round" color="#000" font-family="KaTeX_Main" font-size="8" transform="translate(241.1 25.11)"><tspan>AVLWeakBottomUp</tspan></text><g fill="none" stroke="currentColor" stroke-linecap="round" stroke-linejoin="round" color="#000"><path stroke="#3B75EA" d="M205.6 22.51h29.9M28 190l.36-.85.36.35.37-.07.36-.42.36-.31.36-.41.36.17.37.94.36-.4.36.57.36-1.22.37.96.36-.02.36-1.24.36-.21.36.98.37-.4.36.58.36.18.36-.78.36.37.37.39.36-.43.36-1.22.36.97.36-.48.37 1.17.36.05.36-.02.36-1.4.36 1.76.37-.39.36-1.27.36-.2.36 1.16.37-.79.36.98.36-.02.36-1.03.36.78.37-.18.36.56.36-1.81.36.89.36-.44.37.8.36-.19.36-.48.36.58.36.15.37-.39.36-.21.36-.87.36.54.37.17.36.01.36.13.36.38.36-.68.37.62.36-.82.36-.65.36.18.36.55.37.81.36-1.4.36 1.37.36-1.05.36.82.37-.66.36-1.05.36.74.36.06.37.59.36-.83.36 1.22.36-1.02.36.99.37-.82.36-1.25.36.78.36.38.36.03.37-.04.36.86.36-1.05.36 1.05.36-.83.37-1.46.36 1.2.36.17.36.22.36-.21.37.37.36-.39.36.62.36-.77.37-1.1.36 1.22.36-.01.36.18.36-.2.37.39.36-.6.36 1.09.36-.84.36-1.4.37 1.76.36-.85.36.61.36.04.36-.05.37-.43.36.62.36-.01.36-1.86.37 1.8.36-.82.36.81.36-.2.36-.21.37-.17.36.58.36.4.36-2.28.36 1.01.37.35.36.23.36.19.36-.61.36-.06.37 1.05.36-.4.36-1.67.36.78.36-.09.37.9.36.01.36-.61.36-.47.37 2.05.36-1.43.36-1.24.36.48.36.28.37 1.18.36-.4.36-.84.36-.01.36 2.03.37-2.24.36-.62.36.71.36.42.36.2.37.4.36-1.03.36.2.36 1.2.37-1.44.36-.84.36.35.36 1.19.36-.42.37.68.36-1.29.36 1.21.36-.17.36-1.66.37.53.36.21.36.7.36-.39.36-.44.37.75.36.24.36-.81.36-.83.36.15.37.81.36.44.36-.41.36-.21.37.21.36.59.36-.84.36-1.03.36-.03.37 1.45.36.01.36-.25.36.42h.36l.37-.6.36-1.24.36 1.19.36-.24.36.61.37.05.36-.07.36-.36.36.69.37-.41.36-1.25.36.39.36.62.36.39h.37l.36.23.36-.4.36.38.36-1.58.37.74.36-.09.36.5.36.2.36.17.37-.59.36 1.01.36-1.03.36-1.43.37.94.36.24.36 1.37.36-1.39.36.64.37-.22.36.35.36-1.18.36.17.36-.21.37 1.2.36-.39.36.4.36-.6.36.8.37-.38.36-2.05.36 1.17.36-.02.36 1.84.37-1.63.36.19.36.46.36.78.37-1.8.36-.46.36.54.36.8.36.29.37-.66.36.39.36.04.36.19.36-2.07.37.39.36 1.4.36.65.36-1.2.36.61.37.02.36.67.36-1.66.36-1.3.37 2.2.36-.38.36 1.03.36-1.67.36 1.63.37-.79.36.81.36-1.84.36-1.1.36 1.84.37 1.24.36-1.62.36 1 .36-.01.36.25.37-1.03.36-1.24.36.95.36.42.36.76.37-.97.36.79.36.03.36.18.37-2.64.36 1.42.36.38.36.21.36.61.37-.86.36.51.36.16.36-.56.36-.87.37-.3.36 1.26.36.4.36-.16.36-.06.37-.16.36.84.36-2.49.36.17.37 1.83.36-.62.36.84.36-.83.36.4.37.17.36-1.01.36-.18.36-.07.36.59.37.85.36-.39.36-.27.36.01.36-.2.37.01.36-1.05.36.98.36-.42.36 1.46.37-.85.36-.17.36.22.36-.04.37-1.11.36.42.36.17.36 1.07.36-.22.37-.77.36.62.36-1.27.36.55.36.4.37-.21.36-.42.36 1.06.36-.81.36.99.37-1.46.36 1.01.36-1.05.36.43.37.42.36-.03.36-.01.36-.2.36.02.37.37.36-1 .36 1.02.36-1.06.36.83.37-.23.36-.43.36.85.36-.01.36-.84.37.62.36-.83.36 1.22.36-1.03.37.39.36.23.36-.2.36-.04.36.38.37-.6.36.38.36-.79.36.62.36-.45.37 1.01.36-.41.36-.21.36-.44.36.85.37-.66.36-.24.36.22.36.4.36.4.37-.99.36.39.36.19.36-.62.37-.01.36.39.36.2.36.2.36-.8.37.79.36-.4.36-.19.36-.05.36-.25.37.63.36-.27.36.29h.36l.36-.67.37.34.36-.14.36-.4.36 1.01.37-.19.36-.03.36-.42.36-.19.36.85.37-.65.36-.17.36.17.36.85.36-.61.37-.22.36.38.36-.02.36-.79.36.2.37.17.36 1.25.36-1.43.36.15.36.68.37-.64.36-.41.36.84.36-.26.37.24.36-.41h.36l.36.2.36.19.37-.41.36-.08.36-.17.36 1.02.36-.2.37-1.17.36 1.19.36-.24.36-.58.36.38.37-.81.36 1.24.36.32.36-1.36.37.33.36.23.36.01.36-.26.36-.69.37 1.33.36.21.36-.62.36-.45.36.43.37-.22.36.2.36-.41.36.56.36.28.37-.63.36-.23.36.85.36-.62.37.02.36-.03.36.39.36.42.36-1.42.37.59.36.64.36-.61.36-.44.36.83.37-.03.36.2.36-1.22.36.63.36.99.37-1 .36.2.36-.81.36.97.36.09.37-.46.36.21.36.16.36-.38.37.41.36-.64.36-.24.36 1.86.36-2.22.37 1.4.36-.47.36-.13.36.59.36-1.05.37-.42.36 2.39.36-1.74.36.58.36-.62.37.24.36.6.36-.99.36-.4.37 2.42.36-1.81.36.76.36-1.06.36.7.37.18.36-.23.36-1 .36 1.97.36-1.16.37.02.36.02.36-.02.36 1.23.36-1.64.37.23.36.36.36.39.36-.66.36-.58.37 1.44.36-.43.36-.6.36.2.37.19.36.85.36-1.82.36.56.36.83.37-.18.36-.23.36-.42.36.38.36.84.37-1.82.36.79.36.8.36-1.22.36 1.47.37-1.24.36-.17.36 1.18.36-.61.37-.23.36-.21.36.42.36.62.36-1.47.37.6.36.76.36-.71.36.23.36-.44.37.61.36-.27.36.11.36-.21.36-.09.37.87.36-.65.36-1.24.36 1.79.36-.78.37.21.36.6.36-1.21.36 1.01.37-.4.36-1.22.36 1.35.36.25.36-.4.37-.08.36-.34.36.76.36-.38.36-.19.37-.43.36.57.36.83.36-1.5.36.48.37.2.36.22.36-.2.36-.47.37.04.36 1.2.36-1.65.36 1.62.36-1.44.37.84.36-.45.36-.23.36-.2.36 1.25.37-.77.36.39.36-.67.36.83.36-.21.37-1.24.36.39.36 1.44.36-.21.37-1.23.36.01.36 1.58.36-1.37.36-.43h.37l.36 1.6.36.02.36-1.65.36.4.37 1.4.36-1.82.36.16.36.38.36.61.37.5.36-2.06.36 1.17.36.41.36-.14.37-.38.36-.64.36.74.36 1.09.37-2.25.36 1.18.36.03.36.39.36-.36.37-1.27.36 1.41.36 1.05.36-2.87.36 2.02.37-.2.36.03.36-.4.36-.68.36.58.37 1.48.36-2.72.36 1.88.36.21.37-.82.36-.18.36-.02.36-.21.36 1.66.37-1.86.36.81.36.41.36-.66.36.24.37-.64.36.6.36.43.36-1.22.36.78.37.42.36-.58.36.41.36-.67.36.2.37.61.36-1.07.36.62.36.65.37-1.3.36.87.36-.39.36-.63.36 1.03.37-.48.36.25.36.45.36-.83.36.76.37-1.24.36.62.36-.42.36.79.36.02.37.02.36-.21.36.18.36-.78.37.38.36-.59.36.76.36.86.36-1.03.37.19.36.16.36-.79.36.37.36-1.01.37.99.36 1.46.36-1.22.36-.39.36.82.37-1.22.36 1.21.36-2.23.36 1.75.36 1.03.37-.84.36-.39.36.57.36-1.42.37 1.66.36-2.44.36 1.98.36.46.36-.39.37-.17.36-.23.36-.04.36.62.36-2.53.37 2.41.36.24.36-.63.36.23.36-.82.37.64.36.62.36-2.67.36 2.34.37.33.36-.59.36.19.36-1.04.36.56.37.65.36-2.1.36 2.24.36-.58.36.61.37-.38.36-1.01.36.37.36 1.04.36-2.65.37 2.85.36-.61.36.17.36.02.37-1.69.36 1.19.36-.14.36-1.49.36 2.65.37-.97.36.41.36.19.36-2.26.36 1.86.37-1.24.36.79.36 1.01.36-1.26.36.85.37-.41.36-1.04.36 1.44.36-1.21.36.41.37.63.36.2.36-.19.36-.4.37-.71.36 1.46.36-1.85.36.74.36.86h.37l.36-.22.36-.36.36-.89.36 1.64.37-1.56.36.78.36.46.36.18.36.03.37-.63.36-1.48.36 2.43.36-1.67.37.78.36.08.36.19.36.64.36-1.38.37-.65.36.44.36.78.36.4.36-.61.37.82.36.19.36-2.07.36.57.36-.62.37 1.62.36-.61.36.87.36-.56.36.6.37-1.24.36.03.36-.43.36 1.41.37-.41.36-.05.36.03.36.54.36-1.8.37 1.62.36-2.07.36 2.31.36-.57.36.19.37-.19.36.41.36-1.87.36 2.05.36-2.05.37 1.79.36-.6.36.58.36-.23.37-.14.36-1.45.36 1.67.36-1.47.36 2.06.37-.97.36.8.36-.43.36-.43.36-1.06.37.88.36-.27.36 1.2.36-.59.36.01.37.58.36-1.24.36.26.36-.79.36 1.61.37-.59.36.83.36-1.04.36.78.37-.84.36.22.36-.83.36 1.41.36-.63.37.01.36.43.36.03.36-1.04.36 1.26.37-1.87.36 2.04.36-.83.36-.45.36 1.61.37-.98.36-1.24.36 1.61.36-1.63.37 1.78.36-.72.36-.25.36 1.08.36-.81.37-.21.36.4.36-1.29.36 1.46.36-.45h.37l.36.85.36-.5.36-1.15.36.25.37.17.36-.09.36.18.36-.36.37 1.02.36-.56.36-.2.36-.72.36 1.66.37-1.01.36.62.36.2h.36l.36-.79.37 1.02.36-1.98.36 2.62.36-1.86.36.63.37.81.36-.45.36-1.44.36 1.62.36-1.63.37 1.87.36-.64.36-.41.36.85.37-.84.36.22.36-.42.36.06.36.19.37-.65.36.27.36.76"/><use xlink:href="#d" color="#3B75EA" transform="matrix(3.75 0 0 3.75 182.98 184.06)"/><use xlink:href="#d" color="#3B75EA" transform="matrix(3.75 0 0 3.75 220.55 22.51)"/></g><path fill="none" stroke="none" stroke-linecap="round" stroke-linejoin="round" stroke-width="0" d="M28 45.01V205M371.99 45.01H28" color="#000"/></svg>