<svg xmlns="http://www.w3.org/2000/svg" xmlns:xlink="http://www.w3.org/1999/xlink" viewBox="0 0 400 250"><path fill="none" d="M0 0h400v250H0z"/><defs><path id="d" stroke="currentColor" stroke-width=".267" d="M-1 0h2M0-1v2"/><path id="b" stroke="currentColor" stroke-width=".267" d="M-1-1h2v2h-2z"/><path id="f" fill="currentColor" stroke="currentColor" stroke-width=".267" d="M-1-1h2v2h-2z"/><path id="a" stroke="currentColor" stroke-width=".267" d="m0-1.33-1.33 2h2.66z"/><use xlink:href="#b" id="c" stroke="currentColor" transform="rotate(45)"/><use xlink:href="#c" id="e" fill="currentColor" stroke="none"/></defs><path fill="none" stroke="#333" stroke-linecap="round" stroke-linejoin="round" stroke-width=".1" d="M46.1 205V45.01" class="gridline" color="#000"/><g fill="none" stroke-linecap="round" stroke-linejoin="round" stroke-width="0" color="#000"><path d="M46.1 205v-7.5m0-152.49v7.5"/><text fill="#000" font-family="KaTeX_Main" font-size="10" text-anchor="middle" transform="translate(46.1 215.75)"><tspan> 1</tspan></text></g><path fill="none" stroke="#333" stroke-linecap="round" stroke-linejoin="round" stroke-width=".1" d="M82.31 205V45.01" class="gridline" color="#000"/><g fill="none" stroke-linecap="round" stroke-linejoin="round" stroke-width="0" color="#000"><path d="M82.31 205v-7.5m0-152.49v7.5"/><text fill="#000" font-family="KaTeX_Main" font-size="10" text-anchor="middle" transform="translate(82.31 215.75)"><tspan> 2</tspan></text></g><path fill="none" stroke="#333" stroke-linecap="round" stroke-linejoin="round" stroke-width=".1" d="M118.52 205V45.01" class="gridline" color="#000"/><g fill="none" stroke-linecap="round" stroke-linejoin="round" stroke-width="0" color="#000"><path d="M118.52 205v-7.5m0-152.49v7.5"/><text fill="#000" font-family="KaTeX_Main" font-size="10" text-anchor="middle" transform="translate(118.52 215.75)"><tspan> 3</tspan></text></g><path fill="none" stroke="#333" stroke-linecap="round" stroke-linejoin="round" stroke-width=".1" d="M154.73 205V45.01" class="gridline" color="#000"/><g fill="none" stroke-linecap="round" stroke-linejoin="round" stroke-width="0" color="#000"><path d="M154.73 205v-7.5m0-152.49v7.5"/><text fill="#000" font-family="KaTeX_Main" font-size="10" text-anchor="middle" transform="translate(154.73 215.75)"><tspan> 4</tspan></text></g><path fill="none" stroke="#333" stroke-linecap="round" stroke-linejoin="round" stroke-width=".1" d="M190.94 205V45.01" class="gridline" color="#000"/><g fill="none" stroke-linecap="round" stroke-linejoin="round" stroke-width="0" color="#000"><path d="M190.94 205v-7.5m0-152.49v7.5"/><text fill="#000" font-family="KaTeX_Main" font-size="10" text-anchor="middle" transform="translate(190.94 215.75)"><tspan> 5</tspan></text></g><path fill="none" stroke="#333" stroke-linecap="round" stroke-linejoin="round" stroke-width=".1" d="M227.15 205V45.01" class="gridline" color="#000"/><g fill="none" stroke-linecap="round" stroke-linejoin="round" stroke-width="0" color="#000"><path d="M227.15 205v-7.5m0-152.49v7.5"/><text fill="#000" font-family="KaTeX_Main" font-size="10" text-anchor="middle" transform="translate(227.15 215.75)"><tspan> 6</tspan></text></g><path fill="none" stroke="#333" stroke-linecap="round" stroke-linejoin="round" stroke-width=".1" d="M263.36 205V45.01" class="gridline" color="#000"/><g fill="none" stroke-linecap="round" stroke-linejoin="round" stroke-width="0" color="#000"><path d="M263.36 205v-7.5m0-152.49v7.5"/><text fill="#000" font-family="KaTeX_Main" font-size="10" text-anchor="middle" transform="translate(263.36 215.75)"><tspan> 7</tspan></text></g><path fill="none" stroke="#333" stroke-linecap="round" stroke-linejoin="round" stroke-width=".1" d="M299.57 205V45.01" class="gridline" color="#000"/><g fill="none" stroke-linecap="round" stroke-linejoin="round" stroke-width="0" color="#000"><path d="M299.57 205v-7.5m0-152.49v7.5"/><text fill="#000" font-family="KaTeX_Main" font-size="10" text-anchor="middle" transform="translate(299.57 215.75)"><tspan> 8</tspan></text></g><path fill="none" stroke="#333" stroke-linecap="round" stroke-linejoin="round" stroke-width=".1" d="M335.78 205V45.01" class="gridline" color="#000"/><g fill="none" stroke-linecap="round" stroke-linejoin="round" stroke-width="0" color="#000"><path d="M335.78 205v-7.5m0-152.49v7.5"/><text fill="#000" font-family="KaTeX_Main" font-size="10" text-anchor="middle" transform="translate(335.78 215.75)"><tspan> 9</tspan></text></g><path fill="none" stroke="#333" stroke-linecap="round" stroke-linejoin="round" stroke-width=".1" d="M371.99 205V45.01" class="gridline" color="#000"/><g fill="none" stroke-linecap="round" stroke-linejoin="round" stroke-width="0" color="#000"><path d="M371.99 205v-7.5m0-152.49v7.5"/><text fill="#000" font-family="KaTeX_Main" font-size="10" text-anchor="middle" transform="translate(371.99 215.75)"><tspan> 10</tspan></text></g><g fill="none" stroke-linecap="round" stroke-linejoin="round" stroke-width="0" color="#000"><path d="M371.99 205h-7.5"/><text fill="#000" font-family="KaTeX_Main" font-size="10" transform="translate(378.99 208.25)"><tspan>0.00</tspan></text></g><g fill="none" stroke-linecap="round" stroke-linejoin="round" stroke-width="0" color="#000"><path d="M371.99 178.33h-7.5"/><text fill="#000" font-family="KaTeX_Main" font-size="10" transform="translate(378.99 181.58)"><tspan>1.00</tspan></text></g><g fill="none" stroke-linecap="round" stroke-linejoin="round" stroke-width="0" color="#000"><path d="M371.99 151.67h-7.5"/><text fill="#000" font-family="KaTeX_Main" font-size="10" transform="translate(378.99 154.92)"><tspan>2.00</tspan></text></g><g fill="none" stroke-linecap="round" stroke-linejoin="round" stroke-width="0" color="#000"><path d="M371.99 125h-7.5"/><text fill="#000" font-family="KaTeX_Main" font-size="10" transform="translate(378.99 128.25)"><tspan>3.00</tspan></text></g><g fill="none" stroke-linecap="round" stroke-linejoin="round" stroke-width="0" color="#000"><path d="M371.99 98.34h-7.5"/><text fill="#000" font-family="KaTeX_Main" font-size="10" transform="translate(378.99 101.59)"><tspan>4.00</tspan></text></g><g fill="none" stroke-linecap="round" stroke-linejoin="round" stroke-width="0" color="#000"><path d="M371.99 71.67h-7.5"/><text fill="#000" font-family="KaTeX_Main" font-size="10" transform="translate(378.99 74.92)"><tspan>5.00</tspan></text></g><g fill="none" stroke-linecap="round" stroke-linejoin="round" stroke-width="0" color="#000"><path d="M371.99 45.01h-7.5"/><text fill="#000" font-family="KaTeX_Main" font-size="10" transform="translate(378.99 48.26)"><tspan>6.00</tspan></text></g><path fill="none" d="M28 45.01V205M371.99 45.01H28" color="#000"/><text stroke-linecap="round" stroke-linejoin="round" stroke-width="0" color="#000" font-family="KaTeX_Main" font-size="10" text-anchor="middle" transform="rotate(-90 68.255 56.755)"><tspan font-weight="bold">Rotations</tspan><tspan> / Operation</tspan></text><text stroke-linecap="round" stroke-linejoin="round" stroke-width="0" color="#000" font-family="KaTeX_Main" font-size="10" text-anchor="middle" transform="translate(199.99 238.25)"><tspan>Operations × 10</tspan><tspan dy="-5" font-size="8">5</tspan></text><text stroke-linecap="round" stroke-linejoin="round" color="#000" font-family="KaTeX_Main" font-size="8" transform="translate(76.8 10.11)"><tspan>Splay</tspan></text><g fill="none" stroke="currentColor" stroke-linecap="round" stroke-linejoin="round" color="#000"><path stroke="violet" d="M41.3 7.51h29.9M28 69.14l.36 4.8.36-1.39.37.35.36 4.61.36-5.25.36 3.47.36-1.18.37-2.58.36 2.08.36-.51.36-4 .37-.5.36.66.36 3.97.36.19.36-.96.37-2.53.36 1.94.36-3.78.36 5.44.36-2.35.37-2.32.36 3.2.36 3.04.36-5.44.36 1.18.37.55.36 1.98.36-5.31.36 4.61.36-.26.37-.78.36-1.91.36.02.36 2.11.37-6.59.36 1.63.36 2.48.36-.19.36-.56.37.62.36-1.71.36-.88.36 4.29.36-3.12.37 1.2.36 3.15.36-3.12.36-1.2.36-2.24.37 4.21.36 1.23.36-5.81.36 2.98.37 2.86.36-4.46.36-1.25.36 1.2.36.75.37-1.68.36.18.36-2.48.36 4.3.36 2.32.37-4.19.36 2.29.36-1.62.36 2.18.36-1.14.37 2.93.36-4.96.36 2.37.36.16.37 1.63.36.91.36-4.56.36 2.8.36-.3.37-6.26.36 5.76.36-5.47.36 2.21.36 4.75.37-2.99.36-.42.36 2.34.36-4.05.36 1.97.37-2.53.36.75.36 2.64.36-1.02.36 3.34.37-3.12.36-1.87.36 1.07.36-.54.37 2.83.36-3.6.36.91.36-.67.36 1.47.37.85.36.03.36-.14.36-1.65.36 1.49.37 1.31.36.16.36.99.36-7.34.36 3.58.37 4.8.36-7.87.36 6.05.36-6.82.37 4.42.36-1.86.36 4.4.36-5.82.36 2 .37 2.96.36-6.34.36 3.62.36 2.8.36-3.09.37 1.01.36-2.58.36.53.36 4.19.36-2.08.37 4.16.36-6.35.36 3.49.36-8.26.36 6.9.37.91.36-5.31.36 5.79.36-4.99.37.72.36 4.99.36-8.19.36 5.31.36 2.91.37-2.19.36-3.49.36 4.13.36-1.89.36-1.18.37 2 .36-1.28.36 4.19.36-2.08.36-.51.37 1.26.36-3.58.36-.13.36-2.45.37 8.08.36-5.28.36 2.26.36-3.84.36 4.35.37-.85.36-4.32.36 7.14.36-6.53.36 7.28.37-.64.36-.91.36-1.76.36 1.18.36 1.22.37-4.1.36 5.22.36-6.29.36-1.92.36 3.15.37 3.52.36-.83.36-7.31.36 6 .37-2.77.36-.24.36 1.89.36 1.18.36-.8.37-.24.36-1.15.36.8.36 2.69.36-4.34.37 2.29h.36l.36.93.36 2.86.36-4.56.37.72.36-3.52.36 2.08.36 2.29.37 1.33.36-1.25.36-2.05.36.29.36 6.27.37-4.4.36.1.36-8.77.36 3.57.36 2.72.37-.9.36 6.61.36-2.83.36-.66.36 1.36.37-3.9.36-4.96.36 6.35.36.51.37 3.17.36-7.6.36 3.36.36-1.25.36 4.61.37-2.43.36-1.41.36 1.25.36 2.16.36-3.86.37-1.87.36 3.52.36 2.08.36.51.36-3.42.37 3.5.36-3.18.36-4 .36 2.46.36 2.45.37-5.04.36 3.31.36-2.38.36 1.84.37-.4.36-.08.36-.8.36 1.26.36.16.37-2.75.36.24.36 3.71.36-7.87.36 7.71.37-3.55.36 4.93.36-3.38.36 3.6.36-2.16.37.42.36-2.64.36 5.9.36-3.82.37.99.36 2.53.36-4.82.36-3.82.36 9.31.37-12.56.36 11.25.36-4.93.36-1.81.36 4.74.37-2.42.36 2.96.36-.72.36-1.66.36.11.37 1.23.36 3.12.36-3.15.36 3.73.36-6.08.37 2.59.36 1.09.36-.74.36-.67.37-.24.36-1.97.36.48.36 5.62.36-3.97.37-1.49.36 2.96.36-4.32.36 1.22.36 3.23.37-4.37.36 7.78.36-4.13.36 2.29.36-4.56.37 2.67.36.75.36-3.63.36 3.33.37 1.28.36-4.82.36 6.16.36-5.44.36 5.09.37-3.89.36-.03.36 1.15.36-3.34.36 3.39.37-5.28.36 1.41.36.22.36 1.3.36-3.49.37 5.97.36-1.14.36-5.58.36 4 .36.3.37-.72.36 2.16.36-3.63.36 1.97.37 5.28.36-6.08.36 1.44.36 3.9.36-8.3.37 5.79.36-3.33.36 4.69.36 1.33.36-2.85.37-2.13.36 3.06.36 3.2.36-11.36.36 5.52.37 1.42.36-3.66.36.99.36-1.52.37 5.28.36.37.36-5.41.36 4.11.36 1.41.37-8.85.36 9.01.36-3.65.36.32.36.77.37 2.43.36 1.14.36-5.04.36 3.95.36-1.23.37-2.96.36.86.36 4.16.36-4.08.37 3.38.36-6.9.36 3.25.36 2.13.36-1.44.37.08.36 1.95.36 1.31.36-3.79.36.16.37-3.71.36 3.2.36 3.42.36-5.12.36 7.28.37-8.03.36-1.15.36 5.42.36 2.58.36-3.68.37-.13h.36l.36 5.89.36-7.6.37-1.76.36 4.88.36-.77.36-4.13.36 1.44.37 2.53.36-6.32.36 10.64.36-4.59.36.48.37-2.53.36 2.91.36-3.44.36.64.36 2.21.37 1.71.36-6.4.36 2.53.36 1.15.37-.06.36-1.52.36 4.59.36-4.08.36 2.53.37-1.6.36.91.36-3.79.36 2.48.36 5.9.37-7.44.36 1.49.36-2.43.36 6.88.36-2.45.37 2.61.36-9.38.36 9.7.36-2.48.36 1.79.37-3.79.36.72.36-2.58.36-.38.37 4.48.36-2.58.36 3.49.36.83.36-6.46.37 3.18.36-.88.36 3.01.36-3.92.36 2.88.37 3.09.36-2.37.36 3.12.36-9.63.36 2.94.37 3.33.36-2.08.36 2.56.36.05.37-.56.36-1.7.36 1.84.36-1.68.36-.3.37-2.24.36 2.75.36 2.69.36-2.66.36 2.4.37-4.59.36-1.33.36.4.36 5.73.36-5.79.37 2.56.36 4 .36-10.56.36 11.04.37.96.36-9.2.36 1.12.36 2.43.36-2.48.37.11.36 6.21.36-3.44.36 3.31.36-4.46.37-.56.36-2.34.36 2.9.36 3.79.36-3.41.37.72.36-3.28.36 5.78.36-6.77.36 2.51.37 3.86.36 1.47.36-5.04.36-.19.37 1.76.36-.05.36.13.36-1.7.36-3.39.37 4.03.36.66.36 1.07.36 1.23.36-3.5.37-2.18.36 6.21.36-7.84.36 4.72.36-1.23.37.4.36 2.46.36.9.36-3.38.37-3.34.36 7.74.36.05.36-5.63.36-1.25.37 1.63h.36l.36.64.36 2.45.36-.43.37-1.94.36 1.28.36.34.36 3.71.36-7.49.37 3.78.36-2.77.36 5.79.36-3.52.36-.56.37 2.34.36-.45.36-.77.36 1.54.37-5.28.36-.32.36 7.28.36-10.88.36 7.07.37-.08.36-1.2.36-2.24.36 1.79.36-.64.37 2.82.36 3.28.36-1.3.36-2.59.36-.61.37 1.49.36-4.05.36 2.69.36 1.52.37 3.79.36-3.6.36-5.07.36 5.97.36.83.37-4.05.36-1.34.36 2.67.36 2.51.36-.99.37-.59.36-3.73.36-.77.36 2.08.36.5.37-3.54.36 8.53.36-5.31.36-.88.36-1.7.37 1.57.36 4.05.36-1.76.36.8.37.16.36-.98.36 2.13.36-4.91.36 6.72.37-4.42.36-3.26.36 5.98.36.9.36-6.93.37.8.36 6.27.36-1.87.36.03.36-5.18.37 1.28.36 7.66.36-2.11.36-2.69.37-.27.36 1.47.36-6.16.36 6.05.36-2.05.37 2 .36-4.8.36 3.6.36-.32.36.1.37-3.73.36 2.67.36 3.44.36-3.2.36 1.36.37-3.79.36 6.4.36-9.68.36 1.55.37 2.69.36-2.13.36 3.86h.36l.36 2.06.37-2.4.36.05.36 2.51.36-.83.36.85.37 1.47.36-3.89.36-.59.36.05.36-2.29.37 2.24.36 1.71.36-.59.36.64.36-4.37.37 1.01.36 4.03.36-4.67.36 2.37.37-1.89.36 6.83.36-5.52.36 1.25.36-3.31.37 4.48.36 1.71.36-.27.36-3.57.36 2.11.37-6.43.36 5.17.36-2.58.36 6.18.36-4.72.37 7.07.36-5.28.36-5.41.36 4.93.37.8.36-1.31.36 1.84.36-1.25.36-.03.37.75.36 4.16.36-1.92.36-3.47.36-1.38.37 2.58.36-3.62.36 6.9.36.11.36-5.52.37 4.96.36-4.45.36-1.5.36 5.1.36 1.62.37-4.53.36-3.36.36 5.92.36-1.65.37-.3.36-2.72.36 1.2.36 4 .36-.45.37-1.92.36.24.36.69.36.27.36-3.23.37.56.36-2.48.36 5.95.36-3.01.36 1.81.37.24.36 1.79.36-6 .36 2.82.37 5.07.36-6.93.36-.94.36 3.44.36 2.16.37-3.92.36.38.36-1.2.36 4.5.36-5.33.37 4 .36-6.35.36 5.04.36-.42.36 2.61.37-4.83.36 5.02.36-5.98.36-5.09.36 6.8.37 3.84.36-5.01.36 5.57.36.11.37-3.36.36-1.23.36 1.09.36-2.24.36 5.74.37-6.19.36 3.12.36 2.27.36-4.27.36 1.95.37 5.57.36-8.48.36 1.44.36 5.39.36-9.1.37 7.34.36-3.68.36.02.36-1.2.37 2.54.36 1.12.36.29.36-2.16.36-.88.37-.67.36 4.24.36-1.65.36-7.49.36 9.36.37-3.12.36 5.68.36-4.86.36.43.36-1.57.37 2.37.36 1.01.36-.82.36-2.99.37-1.87.36 6.54.36-2.75.36 2.13.36-2.9.37-2.14.36 2.56.36 3.74.36-1.04.36-7.2.37 4.13.36 1.39.36-4.83.36 6.99.36-6.67.37 6.77.36-1.73.36-5.31.36 5.12.36 2 .37-1.76.36-2.96.36 4.88.36.59.37-4.08.36 2.11.36-.11.36-2.45.36-2.62.37 5.18.36-3.68.36 7.01.36-4.99.36 2.59.37-5.49.36-.16.36 4.74.36-5.17.36-.93.37 3.14.36 1.55.36-2.8.36 1.87.37 2 .36-2.51.36-.21.36 3.06.36.4.37 1.9.36-3.5.36.3.36-1.12.36 1.22.37-2.16.36 1.23.36-1.44.36 3.84.36-7.04.37 4.11.36 2.34.36-.16.36-1.89.36-7.12.37 6.64.36-2.56.36 6.45.36-3.62.37-1.52.36-1.18.36 6.67.36-4.75.36-2.77.37-.45.36 3.81.36 1.15.36-2.19.36-1.33.37 2.02.36-1.94.36 6.64.36-2.16.36-.56.37 1.46.36 1.26.36-1.84.36-1.6.37 1.44.36-2.8.36 2.02.36-2.37.36-3.63.37 3.1.36 1.78.36 4.72.36-.82.36-7.15.37 2.43.36 2.29.36 1.6.36-7.04.36 6.13.37-2.74.36-2.94.36 7.82.36-5.18.36-1.92.37 2.54.36 3.04.36-2.24.36 3.09.37-8.8.36 5.73.36-1.46.36 2.34.36-.18.37-4.4.36 2.74.36 4.14.36-1.23.36-1.68.37-.67.36 2.83.36-.08.36 1.6.36-5.04.37.88.36.59.36-2.8.36 6.05.37-4.88.36 1.97.36 1.02.36-5.12.36 3.44.37-.14.36-1.49.36-2.16.36 1.63.36-1.82.37 3.79.36.77.36 1.87.36-6.48.36 9.71.37-6.43.36 4.45.36-4.29.36-5.17.37 3.25.36.19.36 2.32.36.32.36 1.41.37-4.24.36 4.45.36-6.13.36 4.75.36-5.5.37 2.22.36 6.45.36-5.84.36.72.36 2.59.37-.24.36 2.72.36-3.66.36-1.6.36.43.37 1.17.36 4.11.36-5.97.36-2.8.37 2.26.36 1.34.36-.11.36-4 .36 5.89.37.14.36-2.48.36 2.16"/><use xlink:href="#b" color="violet" transform="matrix(3.75 0 0 3.75 354.25 62.5)"/><use xlink:href="#b" color="violet" transform="matrix(3.75 0 0 3.75 56.25 7.51)"/></g><text stroke-linecap="round" stroke-linejoin="round" color="#000" font-family="KaTeX_Main" font-size="8" transform="translate(76.8 25.11)"><tspan>TreapFingerTree</tspan></text><g fill="none" stroke="currentColor" stroke-linecap="round" stroke-linejoin="round" color="#000"><path stroke="#3B75EA" d="M41.3 22.51h29.9M28 197.4l.36-.32.36.11.37-.56.36-.22.36.8.36-.21.36.24.37-.11.36-.29.36-.05.36.21.37-.21.36.85.36-.67.36-.21.36-.4.37.53.36-.21.36.99.36-1.07.36.03.37.82.36-.4.36.03.36-.21.36.29.37-.59.36.7.36-.16.36-.67.36.13.37.06h.36l.36.96.36-1.34.37.96.36-.02.36.02.36.59.36-.8.37-.27.36.35.36.85.36-1.97.36 1.25.37-.02.36-.19.36-.19.36-.1h.36l.37.48.36-.16.36.48.36-.03.37-1.41.36.88.36.66.36-.18.36-1.02.37.96.36.48.36-.21.36-.53.36-.3.37-.08.36.67.36-.69.36.24.36.24.37-.72.36.82.36-.9.36.37h.37l.36-.13.36.58.36-.24.36.06.37.69.36-.29.36-.06.36-.88.36-.08.37.88.36-.24.36-.61.36 1.12.36-.51.37.03.36.05.36-.77.36.85.36-.5.37.13.36.85.36-.85.36.13.37-.53.36.67h.36l.36-.14.36.24.37-.21.36-.56.36.72.36-.35.36.27.37-.19.36.03.36-.11.36.46.36.16.37-.62.36.7.36-1.02.36 1.47.37-.61.36-.08.36.29.36.48.36-1.07.37-.05.36.29.36-.64.36.35.36.51.37-.59.36.43.36-.22.36-.24h.36l.37.14.36.4.36-.8.36.64.36.05.37-.27.36.64.36-.37.36-.48.37.64.36-.21.36-.06.36-.26.36.13.37-.08.36.32.36-.24.36-.24.36-.32.37-.08.36.99.36-.67.36.32.36-.13.37.29.36-.21.36.05.36.37.37-.56.36-.37.36-.4.36 1.17.36.08.37-.13.36-.32.36.13.36.14.36-.32.37-.56.36.74.36.19.36-.27.36-.1.37.16.36-.03.36.53.36-.16.36.19.37-.99.36.59.36.29.36-.42.37-.08.36.18.36-.02.36.42.36-.64.37.4.36.19.36-.48.36.13.36.19.37-.72.36.19.36-.11.36.21.36.24.37-.24.36.32.36.14.36-.27.37-.43.36-.64.36.86.36.08.36-.59.37.29.36-.02.36 1.44.36-1.02.36.24.37-.69.36-.19.36.27.36-.48.36 1.52.37-.35.36.03.36-1.25.36.69.37.03.36.58.36-.4.36.54.36-.67.37.27.36-.22.36.32.36.08.36-.66.37 1.7.36-1.49.36.08.36-.83.36 1.18.37-.16.36-.4.36.29.36-.4h.36l.37.64.36-.43.36.22.36.29.37-.08.36-.16.36-.19.36.43.36-.27.37.59.36-.05.36-.43.36.27.36-.83.37.85.36-1.36.36 1.2.36-1.06.36.66.37-.29.36.51.36-.03.36-.13.37-.03.36.21.36-.32.36.83.36-.51.37.59.36-.64.36.29.36-.13.36-.27.37.27.36-1.07.36 1.31.36-.32.36.32.37-.64.36-.08.36.43.36-.38.36.27.37.03.36-.7.36.72.36.06.37-.51.36.45.36-.13.36.08.36-.19.37.54.36-.7.36 1.52.36-.85.36-.48.37.35.36-.78.36.19.36-.35.36 1.55.37-1.17.36.58.36-.88.36.56.37.03.36.08.36-.48.36.61.36-.72.37.59.36-.27.36-.1.36.56.36-.8.37.66.36.08.36.35.36-.59.36.67.37-1.23.36.88h.36l.36-.48.36.24.37.4.36-1.09.36.32h.73l.36.13.36.24.36-.72.36.38.37.05.36.29.36-.58.36.98.36-.08.37-.72.36-.08.36-.21.36 1.12.36-.99.37.35.36.11.36.18.36.3.37-1.02.36.72.36-.02.36-.24.36-.8.37 1.57.36-1.07.36.86.36.18.36-.9.37-.11.36-.35.36.88.36-.8.36.54.37-.03.36.27.36-.51.36.51.37-.59.36.75.36-.27.36-.08.36.13.37-.29.36.08.36.13.36-.08.36.11.37.45.36-.21.36-.83.36.8.36-.4.37.14.36.18.36-.88.36.38.36.34.37.3.36-.4.36-.3.36.67.37.24.36-.85.36.08.36.5.36-.5.37.4.36-.11.36-.45.36.18.36.67.37.05.36-.93.36.67.36.34.36-.88.37-.02.36.34.36.22.36-.59.37.35.36.56.36-.99.36.27.36-.3.37.54.36-.35.36.72.36-.48.36-.27.37.96.36-.72.36.56.36-.74.36-.32.37.21.36.64.36-.16.36.13.36-.66.37 1.06.36-.88.36.54.36.24.37-.62.36.27.36-.4.36-.61.36 1.7.37-.18.36-.11.36-.91.36.27h.36l.37-.83.36.54.36-.32.36.82h.36l.37-.64.36.8.36-.21.36-.19.37.16h.36l.36.08.36-.16.36-.16.37.3.36.08.36-.83.36.67.36-.4.37.96.36-.62.36.11.36-.11.36.14.37-.16.36-.22.36.67.36-1.04.37.4.36.08.36.48.36.32.36-.85.37.69.36-.77.36.5.36-1.01.36.75.37-.06.36.11.36.16.36-.51.36.46.37-.08.36.24.36-.27.36.16.36.72.37-1.55.36.8.36-.24.36-.16.37.19.36.61.36-.82.36.53.36.32.37-.24.36-.27.36-.53.36.24.36.37.37-.16.36-.5.36.9.36-.56.36-.4.37.8.36-.64.36.27.36.53.37-.32.36-.26.36-.08.36 1.01.36-.59.37.03.36.24.36-.08.36-.13.36-.56.37.9.36-.45.36-.53.36-.27.36.75.37-.19.36-.03.36-.24.36-.02.36.29.37.19.36-.08.36-.4.36.88.37-.32.36-.08.36.08.36.45.36-.37.37-.51.36.56.36-.48.36.85h.36l.37-.1.36-.72.36.02.36-.02.36.13.37.27.36.1.36-.26.36-.67.37.91.36-.54.36-.21.36.48.36-.72.37.85.36-.4.36-.1.36.02.36.48.37-.1h.36l.36-.35.36.69.36-.72.37.54.36-.62.36.48.36.24.36.27.37.03.36-.43.36-.16.36-.43.37-.05.36.67.36-.32.36.56.36-1.31.37.59.36.26.36.06.36-.27.36 1.33.37-.8.36-.58.36.13.36-.45.36 1.52.37-.99.36-.19.36-.02.36-.4.37.72.36.13.36.03.36-.19.36.19.37-.54.36.54.36.53.36-1.04.36.83.37-.43.36-.85.36.37.36.88.36-.4.37-.83.36.14.36.85.36.32.37-.4.36.19.36-.16.36.08.36-.72.37.4.36-.27.36-.27.36.06.36.45.37-.08.36-.08.36.29.36.22h.36l.37-.38.36-.34.36.56.36.02.36-.16h.37l.36.22.36.58.36-.42.37-.24.36-.08.36-.03.36-.16.36-.4.37.93.36-.5.36.4h.36l.36.05.37-.21.36-.24.36.66.36-.82.36-.03.37-.35.36.8.36.72.36-.53.37-.4.36-.32.36.43.36-.19.36-.27.37-.26.36.32.36-.46.36 1.15.36-.48.37-.45.36.8.36-1.39.36 1.04.36.77.37-.9.36.29.36-.56.36.19.36.58.37-.21.36.53.36-.42.36-.59.37.61.36.27.36-.19.36-.53.36.03.37.29.36-.05.36.1h.36l.36-.29.37.91.36-.67.36-.4.36.72.36-.56.37.11.36-.54.36.72.36-.21.37-.21.36.8.36-.27.36-.05.36-.11.37.24.36-.85.36.56.36.05.36.29.37-.24.36-.13.36-.37.36.26.36-.05.37.29.36-.53.36.16.36 1.12.36-.75.37-.4.36 1.2.36-.98.36-.3.37.08.36.43.36-.11.36.32.36-.45.37.27.36.29.36-.83.36.72.36-.56.37-.74.36 1.12.36-.32.36.13.36-.16.37-.27.36.7.36-.32.36.26.37.43.36-1.17.36.4.36.56.36-.67.37.51.36.4.36-.64.36.85.36-1.07.37.38.36-.19.36.24.36.11.36-.22.37-.98.36.5.36-.02.36.74.37-.24.36-.42.36.18.36.43.36-.35.37.64.36-.56.36.16.36-.74.36.32.37.4.36-.11.36.11.36-.7.36.96.37-.4.36.11.36.13.36-.34.36.48.37-.64.36.4.36.08.36-.19.37-.11.36.06.36.24.36-.94.36 1.26.37-.86.36.86.36-1.28.36 1.06h.36l.37-.21.36.35.36-.8.36-.19.36.93.37-.37.36.16.36.24.36-.56.37.08.36.08.36.16.36-.35.36-.16.37.24.36-.08.36.4.36-.21.36.05.37.27.36-.29.36-.56.36.34.36.27.37.53.36-.45.36-.27.36.64.36-.42.37.29.36-.72.36-.21.36 1.28.37-.3.36-.05.36-.43.36.14.36.13.37.16.36-.35.36.14.36-.16h.36l.37-.24.36.16.36.4.36-.56.36-.03.37.32.36-.88.36.72.36.08.37-.67.36 1.04.36-1.12.36.8.36.27.37-.75.36.99.36-.85.36.21.36.19.37.53.36-.8.36-.21.36.29.36-.13.37.85.36-.27.36-1.2.36 1.5.36-.96.37.29.36.13.36.11.36-.64.37.91.36-.78.36.38.36.05.36-.19.37.86.36-.64.36-.59.36-.21.36.37.37.24.36-.16.36-.32.36-.27.36.78.37.13.36-.48.36.64.36-1.15.37.8.36-.24.36.54.36.37.36.03.37-.59.36.64.36-.53.36.08.36-.14.37.32.36-.24.36-.34.36.58.36-1.14.37.74.36-.26h.36l.36.85.37-.19.36-.56.36.16h.36l.36-.24.37.64.36-.88.36.96.36-1.44.36.62.37.08.36-.3.36.03.36 1.01.36-.8.37.06.36-.38.36.22.36.72.36-.27.37-.19.36-.45.36.99.36-.51.37-.21.36.21.36-.03.36.88.36-.42.37-.86.36 1.2.36-.77"/><use xlink:href="#d" color="#3B75EA" transform="matrix(3.75 0 0 3.75 67.83 196.81)"/><use xlink:href="#d" color="#3B75EA" transform="matrix(3.75 0 0 3.75 56.25 22.51)"/></g><text stroke-linecap="round" stroke-linejoin="round" color="#000" font-family="KaTeX_Main" font-size="8" transform="translate(241.1 10.11)"><tspan>LBSTRelaxed</tspan></text><g fill="none" stroke="currentColor" stroke-linecap="round" stroke-linejoin="round" color="#000"><path stroke="violet" stroke-dasharray="4.5,2.0,0.5,2.0,0.5,2.0" d="M205.6 7.51h29.9M28 205h343.99"/><use xlink:href="#e" color="violet" transform="matrix(3.75 0 0 3.75 125.4 205)"/><use xlink:href="#e" color="violet" transform="matrix(3.75 0 0 3.75 220.55 7.51)"/></g><text stroke-linecap="round" stroke-linejoin="round" color="#000" font-family="KaTeX_Main" font-size="8" transform="translate(241.1 25.11)"><tspan>RedBlackRelaxedTopDown</tspan></text><g fill="none" stroke="currentColor" stroke-linecap="round" stroke-linejoin="round" color="#000"><path stroke="#FFAB00" stroke-dasharray="4.5,2.0,0.5,2.0,0.5,2.0" d="M205.6 22.51h29.9M28 188.49l.36-.08.36-1.52.37.7.36-.11.36.29.36-.42.36.45.37-.37.36-.35.36.48.36-.37.37.8.36.56.36-1.84.36-.08.36.34.37.51.36-.16.36-.11.36-1.28.36 2.3.37-.91.36-.35.36 1.07.36-1.87.36.88.37.19.36-.11.36-.61.36.03.36 1.06.37-.61.36-.24.36.8.36-.93.37 1.33.36-.88.36.19.36.34.36-.66.37 1.14.36-.24.36.08.36-1.09.36.29.37-.74.36 1.09.36-.03.36.06.36.45.37-.16.36-.48.36.53.36-.66.37-.86.36 1.04.36.3.36-1.1.36 1.12.37-.61.36-.16.36-.24.36 1.17.36-.48.37.24.36-.37.36 1.01.36-.88.36.16.37-.16.36-.69.36 1.2.36-1.36.37.99.36-.59.36.77.36-.05.36-.29.37.18.36-.13.36-.08.36-.29.36-.46.37.48.36-.08.36-.58.36 1.12.36-.19.37.16.36.08.36-.91.36 1.31.36.13.37-.45h.36l.36-.37.36-.19.37.05.36 1.31.36-1.87.36 1.07.36.08.37-.43.36-.42.36.69.36-.69.36 1.38.37-.98.36.5.36-.53.36 1.41.36-2 .37 1.58.36-.83.36-.35.36.86.37-1.12.36.58.36-.56.36.54.36.1.37-1.28.36 1.82.36-1.04.36.61.36-.13.37-.67.36.37.36.3.36-.14.36 1.04.37-2.05.36.72.36.45.36.43.36.16.37-.37.36-.24.36-.11.36.11.37-.4.36-.3.36 1.82.36-.75.36-1.07.37.32.36-.58.36.74.36.16.36-.1.37.1.36-.16.36-.02.36-.64.36 1.3.37-.58.36-.22.36-.05.36-.48.37.85.36.14.36-.54.36 1.39.36-.19.37-.29.36-.43.36.99.36-1.12.36.16.37-.61.36.74.36-.88.36.48.36.99.37-.69.36.48.36-1.28.36 1.73.36-1.28.37.4.36-1.71.36 2.67.36-1.04.37.05.36-1.06.36.77.36-.64.36.24.37-.16.36 1.33.36-.61.36-.43.36-.02.37 1.36.36-.78.36-.8.36-.05.36.53.37.06.36.16.36.05.36-.64.37-.35.36-.34.36 1.92.36-1.44.36.1.37.27.36.19.36 1.06.36-1.33.36.53.37-.29.36.08.36.4.36-.21.36-.8.37-.06.36 1.5.36-.91.36.03.37.24.36.24.36-1.15.36-.11.36 1.28.37-.69.36-.45.36 1.14.36-.08.36-.61.37 1.09.36-.64.36-.72.36.16.36 1.28.37-.4.36-.13.36-.75.36-.58.36.85.37.51.36.21.36-.83.36.16.37.54.36-.22.36-.13.36.51.36-.03.37.45.36-1.54.36.58.36-.56.36-.34.37-.22.36.3.36.53.36.37.36.27.37-.72.36.51.36.02.36-.61.37.08.36.35.36.85.36-.56.36.29.37-1.17.36.61.36-.29.36.16.36 1.12.37-.69.36-1.55.36 1.57.36-.72.36.86.37.53.36-1.12.36-.27.36.48.36-.8.37-.24.36 1.47.36-.05.36-.78.37.14.36.56.36.24.36-.06.36-.53.37-.16.36.53.36-.72.36.35.36.24.37.4.36-.91.36 1.04.36-1.09.36-.13.37.66.36-.08.36.06.36.48.37.42.36-1.3.36 1.12.36-1.36.36-.3.37 1.74.36-2.08.36.45.36.69.36-.53.37.93.36-.53.36.45.36.24.36-.72.37-.72.36 1.1.36.56.36-1.34.36.4.37-.1.36-.14.36.59.36-.43.37.16.36.19.36-.08.36-.88.36-.05.37 1.2.36-.64h.36l.36.45.36-.19.37-.66.36.53.36-.45.36.61.36-.77.37.58h.36l.36.86.36-1.18.37-.05.36.4.36.75.36-.7.36-.4.37 1.26.36-1.2.36.61.36.48.36-1.39.37.56.36-.53.36 1.28.36-1.15.36-.34.37 1.3.36-.58.36-.14.36.32.37.03.36.4.36-.48.36.75.36-.48.37-2.19.36 1.81.36.8.36.03.36-.96.37.83.36-.54.36-.61.36.88.36-.72.37-.27.36.75.36-.45.36-.54.36.83.37.91.36-.27.36-.48.36-.43.37.24.36-.16.36-.13.36.13.36.78.37-1.39.36 1.57.36-.5.36-.56.36.42.37.38.36-1.36.36 1.38.36.35.36-1.49.37.42.36 1.1.36-1.15.36.11.37-.03.36.8.36-1.33.36.08.36-.43.37 1.01.36.62.36.02.36-.48.36-.98.37.16.36.61.36.64.36-.75.36-.13.37.85.36-.05.36-.24.36-.08.36-.64.37.72.36-.51.36-.42.36 1.68.37-.91.36-.11.36.14.36-.38.36.35.37.35.36-.7.36.03.36.4.36-.53.37.29.36-.21.36.53.36-.75.36 1.39.37-.77.36.29h.36l.36-.24.37-.53.36 1.65.36-.77.36-.59.36-.48.37.96.36-.72.36.72.36-1.09.36-.27.37 1.47.36-.51.36.53.36.4.36-1.04.37-.18.36-.32.36-.03.36.53.37-.16.36.11.36-.64.36.83.36.18.37.22.36.1.36-.77.36-.53.36 1.28.37.74.36-1.76.36 1.36.36-1.12.36-.05.37.43.36.1.36.46.36-.32.36.58.37-2.05.36 1.2.36-.45.36.26.37-.24.36.11.36.27.36.96.36-.88.37-.19.36.16.36.27.36.48.36-1.31.37 1.2.36-1.17.36.1.36.48.36.11.37-.35.36.19.36-.35.36.19.37-.29.36.37.36-.51.36-.37.36 1.87.37-1.71.36.96.36-.03.36-.08.36-.16.37-.16.36.46.36-1.47.36.43.36 1.09.37-.45.36.72.36-.16.36-.19.36-.08.37 1.28.36-1.31.36-.1h.36l.37-1.02.36 2.43.36-1.65.36 1.06.36.46.37-1.58.36.4.36.3.36-.22.36.8.37-.85.36-.56.36.16.36.24.36-.69.37 1.12.36-.48.36-.3.36-.24.37.4.36.06.36.48.36-1.15.36.77.37.38.36.29.36.03.36-.83.36-.05.37 1.06.36.03.36-.61.36-.4.36 1.28.37-1.44.36.8.36.02.36-.13.36.08.37.21.36-.48.36-.42.36-.3.37.43.36-.24.36.45.36.99.36-2.08.37.45.36 1.15.36-.64.36.88.36-.64.37.35.36-.86.36.22.36.26.36-.74.37.96.36-1.02.36-.29.36.21.37.38.36.66.36-.69.36-.16.36.59.37.5.36.4.36-.74.36-.4.36-.03.37.59.36-1.15.36 2.19.36-1.23.36.27.37.45.36-1.36.36.93h.36l.37-.32.36.48.36-.72h.36l.36.27.37.11.36-.06.36.27.36-1.36.36.64.37.91h.36l.36-.54.36 1.07.36-1.12.37.8.36-.4.36-.96.36-.05.36.96.37-.06.36-.21.36.93.36-.42.37.1.36-1.12.36.48.36-.45.36.72.37.59.36-.59.36-.56.36.32.36-.35.37-.66.36.5.36.08.36.38.36-.16.37-.99.36.69.36 1.1.36-1.6.37.77.36.53.36-.9.36 1.3.36-.93.37.24.36-.11.36.4.36-.88.36.54.37.8.36.18.36-1.62.36.61.36-.05.37-.83.36 1.36.36-.59.36.06.36.32.37-.72h.36l.36.21.36.13.37-.66.36 1.86.36-2.16.36 1.07.36-.19.37 1.39.36-.85.36-.14.36-.98.36 1.44.37-1.02.36.54.36.13.36.88.36-1.81h.37l.36.16.36-.06.36-.18.37.72.36.02.36.14.36-.64.36.13.37.51.36-.99.36 1.47.36.13.36-1.15.37.32.36-.05.36.53.36.43.36-.67.37-.4.36-.13.36 1.41.36-1.14.36-.24.37-.16.36.72.36.24.36-.83.37.24.36.08.36-.19.36.99.36-1.07.37.43.36.48.36-.88.36.24.36-.61.37.18.36.4.36-.48.36 1.39.36-.8.37-.37.36-.4.36.53.36-.32.37 1.41.36-.93.36.16.36.59.36-.08.37-.7.36.4.36-.42.36.34.36-1.28.37 1.31.36-1.89.36.56.36 1.76.36-.72.37-.7.36.51.36.05.36-.29.37.21.36.16.36-.58.36.4.36 1.14.37-.74.36.05.36-.51.36.48.36.08.37.08.36-.9.36 1.17.36.16.36-.45.37-.8.36 1.12.36-.75.36-.13.36-.08.37.48.36-.56.36.5.36-1.01.37 1.31.36-.56.36.64.36-.32.36.4.37-.7.36-.58.36.9h.36l.36.48.37-.18.36-.46.36.08.36-.85.36 1.33.37-.26.36.24.36-.48.36.48.37-.14.36-.08.36-1.01.36 1.12.36-1.09.37.13.36-.32.36.43.36.21.36-.72.37.51.36.48.36.18.36-.61h.36l.37-.53.36-.11.36.08.36.99.36-.46.37.59.36-.24.36-.11.36.83.37-.21.36-.38.36.22.36-.35.36.99.37-1.84.36.42.36.75.36-.53.36.66.37-.69.36.53.36-.4.36.3.36.13.37.11.36-1.1.36-.08.36.62.37.8.36.05.36-1.09h.36l.36.5.37-.5.36.05.36-.21.36-.11.36.32.37 1.25.36-.64.36-.21.36.75.36-.88.37.56.36-2.38.36 1.79.36.4.36-.35.37.08.36-.48.36.03.36.19.37.45.36.67.36-1.26.36.96.36-.98.37.56.36-.54.36-1.12.36 1.12.36-.26.37 1.17.36-1.25.36-.11.36-.67.36 2.14.37-.35.36.21.36-.13.36-1.09.37.66.36.14.36-.43.36.83.36-.78.37.88.36.4.36-1.2.36.96.36-1.7.37.48.36.85.36-.96.36.4.36-.27.37-.29.36.85.36.72.36-.18.37-.19.36-.16.36-.91.36-.24.36.72.37-.32.36.03.36-.16.36-.05.36.85.37-.67.36.54.36-.19.36-.51.36.46.37.26.36.27.36.37.36-1.01.36.45.37-.45.36.08.36.16.36.05.37-.69.36 1.81.36-1.2.36.62.36-.14.37-.96.36.62.36-.22"/><use xlink:href="#f" color="#FFAB00" transform="matrix(3.75 0 0 3.75 182.98 187.77)"/><use xlink:href="#f" color="#FFAB00" transform="matrix(3.75 0 0 3.75 220.55 22.51)"/></g><path fill="none" d="M28 45.01V205M371.99 45.01H28" color="#000"/></svg>