<svg xmlns="http://www.w3.org/2000/svg" xmlns:xlink="http://www.w3.org/1999/xlink" viewBox="0 0 400 250"><path fill="none" d="M0 0h400v250H0z"/><defs><path id="g" stroke="currentColor" stroke-width=".267" d="M-1 0h2M0-1v2"/><path id="h" stroke="currentColor" stroke-width=".267" d="m-1-1 2 2m0-2-2 2"/><path id="i" stroke="currentColor" stroke-width=".267" d="M-1 0h2M0-1v2m-1-2 2 2m-2 0 2-2"/><path id="d" stroke="currentColor" stroke-width=".267" d="M-1-1h2v2h-2z"/><path id="b" stroke="currentColor" stroke-width=".267" d="m0-1.33-1.33 2h2.66z"/><path id="f" stroke="currentColor" stroke-width=".267" d="M0 1.33 1.265.411.782-1.067l-1.564-.009-.483 1.487z"/><use xlink:href="#b" id="c" stroke="currentColor" transform="rotate(180)"/><use xlink:href="#d" id="e" stroke="currentColor" transform="rotate(45)"/><circle id="a" cx="0" cy="0" r="1" stroke="currentColor" stroke-width=".267"/></defs><path fill="none" stroke="#000" stroke-linecap="round" stroke-linejoin="round" stroke-width=".1" d="M35.48 205V45.01" class="gridline" color="#000"/><g fill="none" stroke="none" stroke-linecap="round" stroke-linejoin="round" stroke-width="0" color="#000"><path d="M35.48 205v-7.5m0-152.49v7.5"/><text fill="#000" font-family="KaTeX_Main" font-size="10" text-anchor="middle" transform="translate(35.48 215.75)"><tspan> 1</tspan></text></g><path fill="none" stroke="#000" stroke-linecap="round" stroke-linejoin="round" stroke-width=".1" d="M72.87 205V45.01" class="gridline" color="#000"/><g fill="none" stroke="none" stroke-linecap="round" stroke-linejoin="round" stroke-width="0" color="#000"><path d="M72.87 205v-7.5m0-152.49v7.5"/><text fill="#000" font-family="KaTeX_Main" font-size="10" text-anchor="middle" transform="translate(72.87 215.75)"><tspan> 2</tspan></text></g><path fill="none" stroke="#000" stroke-linecap="round" stroke-linejoin="round" stroke-width=".1" d="M110.26 205V45.01" class="gridline" color="#000"/><g fill="none" stroke="none" stroke-linecap="round" stroke-linejoin="round" stroke-width="0" color="#000"><path d="M110.26 205v-7.5m0-152.49v7.5"/><text fill="#000" font-family="KaTeX_Main" font-size="10" text-anchor="middle" transform="translate(110.26 215.75)"><tspan> 3</tspan></text></g><path fill="none" stroke="#000" stroke-linecap="round" stroke-linejoin="round" stroke-width=".1" d="M147.65 205V45.01" class="gridline" color="#000"/><g fill="none" stroke="none" stroke-linecap="round" stroke-linejoin="round" stroke-width="0" color="#000"><path d="M147.65 205v-7.5m0-152.49v7.5"/><text fill="#000" font-family="KaTeX_Main" font-size="10" text-anchor="middle" transform="translate(147.65 215.75)"><tspan> 4</tspan></text></g><path fill="none" stroke="#000" stroke-linecap="round" stroke-linejoin="round" stroke-width=".1" d="M185.04 205V45.01" class="gridline" color="#000"/><g fill="none" stroke="none" stroke-linecap="round" stroke-linejoin="round" stroke-width="0" color="#000"><path d="M185.04 205v-7.5m0-152.49v7.5"/><text fill="#000" font-family="KaTeX_Main" font-size="10" text-anchor="middle" transform="translate(185.04 215.75)"><tspan> 5</tspan></text></g><path fill="none" stroke="#000" stroke-linecap="round" stroke-linejoin="round" stroke-width=".1" d="M222.43 205V45.01" class="gridline" color="#000"/><g fill="none" stroke="none" stroke-linecap="round" stroke-linejoin="round" stroke-width="0" color="#000"><path d="M222.43 205v-7.5m0-152.49v7.5"/><text fill="#000" font-family="KaTeX_Main" font-size="10" text-anchor="middle" transform="translate(222.43 215.75)"><tspan> 6</tspan></text></g><path fill="none" stroke="#000" stroke-linecap="round" stroke-linejoin="round" stroke-width=".1" d="M259.82 205V45.01" class="gridline" color="#000"/><g fill="none" stroke="none" stroke-linecap="round" stroke-linejoin="round" stroke-width="0" color="#000"><path d="M259.82 205v-7.5m0-152.49v7.5"/><text fill="#000" font-family="KaTeX_Main" font-size="10" text-anchor="middle" transform="translate(259.82 215.75)"><tspan> 7</tspan></text></g><path fill="none" stroke="#000" stroke-linecap="round" stroke-linejoin="round" stroke-width=".1" d="M297.21 205V45.01" class="gridline" color="#000"/><g fill="none" stroke="none" stroke-linecap="round" stroke-linejoin="round" stroke-width="0" color="#000"><path d="M297.21 205v-7.5m0-152.49v7.5"/><text fill="#000" font-family="KaTeX_Main" font-size="10" text-anchor="middle" transform="translate(297.21 215.75)"><tspan> 8</tspan></text></g><path fill="none" stroke="#000" stroke-linecap="round" stroke-linejoin="round" stroke-width=".1" d="M334.6 205V45.01" class="gridline" color="#000"/><g fill="none" stroke="none" stroke-linecap="round" stroke-linejoin="round" stroke-width="0" color="#000"><path d="M334.6 205v-7.5m0-152.49v7.5"/><text fill="#000" font-family="KaTeX_Main" font-size="10" text-anchor="middle" transform="translate(334.6 215.75)"><tspan> 9</tspan></text></g><path fill="none" stroke="#000" stroke-linecap="round" stroke-linejoin="round" stroke-width=".1" d="M371.99 205V45.01" class="gridline" color="#000"/><g fill="none" stroke="none" stroke-linecap="round" stroke-linejoin="round" stroke-width="0" color="#000"><path d="M371.99 205v-7.5m0-152.49v7.5"/><text fill="#000" font-family="KaTeX_Main" font-size="10" text-anchor="middle" transform="translate(371.99 215.75)"><tspan> 10</tspan></text></g><g fill="none" stroke="none" stroke-linecap="round" stroke-linejoin="round" stroke-width="0" color="#000"><path d="M371.99 205h-7.5"/><text fill="#000" font-family="KaTeX_Main" font-size="10" transform="translate(378.99 208.25)"><tspan>0.10</tspan></text></g><g fill="none" stroke="none" stroke-linecap="round" stroke-linejoin="round" stroke-width="0" color="#000"><path d="M371.99 189h-7.5"/><text fill="#000" font-family="KaTeX_Main" font-size="10" transform="translate(378.99 192.25)"><tspan>0.12</tspan></text></g><g fill="none" stroke="none" stroke-linecap="round" stroke-linejoin="round" stroke-width="0" color="#000"><path d="M371.99 173h-7.5"/><text fill="#000" font-family="KaTeX_Main" font-size="10" transform="translate(378.99 176.25)"><tspan>0.14</tspan></text></g><g fill="none" stroke="none" stroke-linecap="round" stroke-linejoin="round" stroke-width="0" color="#000"><path d="M371.99 157h-7.5"/><text fill="#000" font-family="KaTeX_Main" font-size="10" transform="translate(378.99 160.25)"><tspan>0.16</tspan></text></g><g fill="none" stroke="none" stroke-linecap="round" stroke-linejoin="round" stroke-width="0" color="#000"><path d="M371.99 141h-7.5"/><text fill="#000" font-family="KaTeX_Main" font-size="10" transform="translate(378.99 144.25)"><tspan>0.18</tspan></text></g><g fill="none" stroke="none" stroke-linecap="round" stroke-linejoin="round" stroke-width="0" color="#000"><path d="M371.99 125h-7.5"/><text fill="#000" font-family="KaTeX_Main" font-size="10" transform="translate(378.99 128.25)"><tspan>0.20</tspan></text></g><g fill="none" stroke="none" stroke-linecap="round" stroke-linejoin="round" stroke-width="0" color="#000"><path d="M371.99 109.01h-7.5"/><text fill="#000" font-family="KaTeX_Main" font-size="10" transform="translate(378.99 112.26)"><tspan>0.22</tspan></text></g><g fill="none" stroke="none" stroke-linecap="round" stroke-linejoin="round" stroke-width="0" color="#000"><path d="M371.99 93.01h-7.5"/><text fill="#000" font-family="KaTeX_Main" font-size="10" transform="translate(378.99 96.26)"><tspan>0.24</tspan></text></g><g fill="none" stroke="none" stroke-linecap="round" stroke-linejoin="round" stroke-width="0" color="#000"><path d="M371.99 77.01h-7.5"/><text fill="#000" font-family="KaTeX_Main" font-size="10" transform="translate(378.99 80.26)"><tspan>0.26</tspan></text></g><g fill="none" stroke="none" stroke-linecap="round" stroke-linejoin="round" stroke-width="0" color="#000"><path d="M371.99 61.01h-7.5"/><text fill="#000" font-family="KaTeX_Main" font-size="10" transform="translate(378.99 64.26)"><tspan>0.28</tspan></text></g><g fill="none" stroke="none" stroke-linecap="round" stroke-linejoin="round" stroke-width="0" color="#000"><path d="M371.99 45.01h-7.5"/><text fill="#000" font-family="KaTeX_Main" font-size="10" transform="translate(378.99 48.26)"><tspan>0.30</tspan></text></g><path fill="none" stroke="none" stroke-linecap="round" stroke-linejoin="round" stroke-width="0" d="M28 45.01V205M371.99 45.01H28" color="#000"/><text fill="#000" stroke="none" stroke-linecap="round" stroke-linejoin="round" stroke-width="0" color="#000" font-family="KaTeX_Main" font-size="10" text-anchor="middle" transform="rotate(-90 68.255 56.755)"><tspan font-weight="bold">Duration </tspan><tspan> in milliseconds</tspan></text><text fill="#000" stroke="none" stroke-linecap="round" stroke-linejoin="round" stroke-width="0" color="#000" font-family="KaTeX_Main" font-size="10" text-anchor="middle" transform="translate(199.99 238.25)"><tspan>Operations / 10</tspan><tspan dy="-5" font-size="8">6</tspan></text><text fill="#000" stroke="none" stroke-linecap="round" stroke-linejoin="round" color="#000" font-family="KaTeX_Main" font-size="8" transform="translate(116 10.11)"><tspan>AVLBottomUp</tspan></text><g fill="none" stroke="currentColor" stroke-linecap="round" stroke-linejoin="round" color="#000"><path stroke="#000" d="M80.5 7.51h29.9M28 161.06l.37 1.27.38-1.97.37.3.38.77.37-1.16.37.13.38-.42.37 1.31.38-.6.37 1.29.37.2.38-.69.37.62.37-.34.38-.55.37 1.37.38-2.16.37 1.24.37.41.38-1.53.37 11.36.38 5.29.37-2 .37 5.35.38-4.87.37 1.81.38-1.56.37.4.37.4.38 2.96.37.77.37 2.86.38-5.33.37 1.35.38-2.66.37 2.02.37-2.44.38 4.01.37-2.07.38 6.7.37-4.57.37 5.25.38-1.65.37 2.32.38-8.79.37-.51.37 2.7.38 3.09.37-3.78.38 1.48.37-1.59.37-.64.38-2.85.37 3.54.37 2.71.38 1.1.37-.84.38 4.01.37 4.29.37-4.66.38-3.05.37.81.38 6.4.37 4.7.37-4.55.38-5.39.37 7.68.38-9.23.37-1.38.37-1.76.38-15.57.37 1.1.37 1.32.38.52.37-.07.38-.54.37-.16.37.82.38-.82.37.71.38-69.36.37 69.68.37-.69.38-.45.37-1.25.38-3.89.37 1.81.37-1.76.38.51.37.02.38-67.83.37 66.81.37 1.56.38-1.38.37 1.4.37-1.78.38-.61.37 1.47.38-.78.37.75.37-.21.38-.36.37 1.24.38-1.78.37 1.08.37.6.38-.55.37.08.38-.01.37.64.37-.36.38.72.37-.51.37-2.07.38 1.11.37-.24.38-67.35.37 67.79.37 1.63.38-1.86.37 13.61.38.88.37 3.47.37-2.14.38 2.23.37-3.12.38 2.71.37-2.62.37 2.84.38.75.37 5.86.38-3.82.37-.26.37-2.01.38-3.35.37 1.54.37 2.67.38.76.37 5.18.38-5.01.37 3.65.37 2.11.38-3.45.37-4.19.38-1.32.37 2.36.37 3.71.38-2.93.37-3.51.38 1.79.37-3.92.37 1.82.38 2.24.37 3.07.37-.73.38.6.37 1.47.38 4.82.37-5.16.37-3 .38 3.55.37 4.95.38 4.11.37-.38.37-7.48.38 4.1.37-8.89.38-.19.37-2.6.37 6.48.38-18.65.37 1.66.38-.31.37-.38.37-.42.38.59.37-73.4.37 73.2.38-.65.37 1.51.38-.64.37-.49.37-.56.38-1.04.37-3.59.38.73.37-73.45.37 74.19.38 1.19.37-2.67.38.44.37.13.37-.53.38 1.37.37-1.45.37.56.38-.11.37-.39.38.32.37-.59.37-.33.38 2.25.37-1.25.38.09.37-.39.37 1.48.38-1.54.37 1.22.38-.63.37.46.37.34.38-1.15.37-70.41.38 70.22.37-.07.37.14.38-.16.37.74.37-1.12.38 1 .37 8.91.38 5.64.37-2.56.37 5.57.38-1.1.37-.16.38-2.48.37 4.55.37.35.38 3.93.37-6.67.38 1.94.37-1.35.37.42.38-3.01.37 4.24.37 2.31.38 3.42.37-4.62.38 3.07.37 4.15.37-3.3.38-3.33.37-1.65.38-1.05.37 2.67.37.33.38-2.36.37-1.02.38 1.49.37-2.72.37.87.38 4.08.37.85.38-.31.37-1.99.37 8 .38-3.11.37-3.04.37-.33.38 5.57.37 1.19.38 5.37.37-10.26.37 4.61.38-4.26.37-1.03.38-1.7.37 3.68.37-3.16.38-16.22.37.45.38-68.92.37 69.43.37-.8.38 1.24.37-.21.37.28.38-.71.37.38.38.87.37-2.29.37-72.63.38 69.56.37-.77.38-.51.37 1 .37-1.19.38 1.2.37-.41.38.47.37-.4.37-.75.38 1.19.37-1.14.38.43.37 1.14.37-.28.38-1.07.37 1.04.37-.56.38-.22.37-1.17.38-.35.37 1.35.37 1.46.38-2.38.37-.17.38-71.31.37 71.8.37.58.38 1.74.37-2 .38-.19.37-.66.37.99.38-.68.37-.13.37-71.2.38 72.41.37 14.09.38-.29.37 2.37.37.18.38-.8.37.38.38.47.37 2.43.37 3.78.38-3.74.37-2.7.38 1.67.37-1.79.37-1.3.38 1.24.37 2.9.38 2.38.37-2.41.37 3.72.38 5.04.37-4.47.37-4.06.38-1.48.37 1.5.38 2.88.37-2.31.37-4.11.38 3.55.37-3.4.38-.11.37-1.52.37 5.23.38-.35.37 3.63.38-3.16.37 7.33.37-4.41.38-.69.37-4.8.37 8.69.38.85.37 5.86.38-9.15.37 2.97.37-3.25.38 1.16.37-7.22.38 2.82.37 2.52.37 1.75.38-19.32.37.28.38.71.37-1.24.37.83.38-.03.37-.43.38 1.04.37-1.11.37.39.38.1.37.58.37-4.7.38-.94.37-.47.38-.71.37.9.37.28.38-.38.37-.01.38.22.37.58.37-1.27.38-.17.37-.21.38 1.08.37-.59.37-.93.38 1.8.37.82.37-1.11.38-.38.37.02.38 1.55.37-73.91.37 72.97.38.33.37-1.04.38 1.05.37-.47.37-.15.38-1.18.37-.17.38.9.37-70.9.37 70.14.38.41.37.81.38.16.37-1.27.37 11.8.38 3.89.37 2.16.37-2.43.38-2.52.37 6.35.38-.88.37 6.03.37-5.47.38-1.62.37 1.48.38-1.34.37-.41.37 2.35.38 2.57.37 2.6.38-3.95.37 1.44.37 6.46.38-5.3.37-1.29.37-3.8.38 3.36.37-2.12.38 2.54.37-5.04.37 3.36.38-1.71.37-1.56.38-1.17.37 4.5.37.84.38 4.3.37-5.35.38 7.07.37-.11.37-1.95.38-3.88.37 5.08.38 2.72.37 6.33.37-9.17.38 1.09.37-.99.37-2.32.38-5.06.37 3.33.38-.92.37 3.08.37-.89.38-19.42.37 2.59.38.65.37-.78.37.15.38-1.89.37 1.1.38-.35.37.44.37-.32.38.55.37-5.32.37.83.38.95.37-.58.38-.29.37-1.37.37.37.38.45.37-1.3.38-71.54.37 72.41.37.26.38-.37.37-.78.38 1.7.37-1.71.37-.53.38 2.87.37-1.11.37-74.8.38 74.16.37.29h.38l.37-.46.37.3.38 1.21.37-.9.38-.08.37-.62.37-72.87.38 73.72.37-.78.38 2.71.37-2.76.37 1.23.38-1.4.37.85.38-.96.37 1.8.37 13.15.38 3.83.37-3.29.37-1.27.38 2.54.37 5.11.38-.24.37-.39.37-3.71.38 2.6.37-3.73.38-.09.37 1.79.37 3.42.38 1.39.37.34.38-1.9.37 6.84.37-4.18.38-.59.37-6.63.37 5.19.38-3.87.37 6.84.38-5.22.37 1.17.37-5.22.38 2.67.37-2.22.38 5.22.37-2.34.37 4.36.38-4.06.37 6.44.38 1.09.37-3.5.37-5.09.38 6.37.37 3.06.38 5.77.37-6.17.37-4.71.38 6.33.37-4.46.37-5.82.38 4.84.37 2.25.38-.94.37 1.89.37-.27.38-20.37.37.83.38.12.37-.34.37-.08.38-.87.37 1.76.38-.8.37-.02.37.57.38-4.39.37-.53.37-1.61.38.51.37 1.49.38-2.39.37 1.68.37-72.91.38 72.36.37-.01.38.52.37-.74.37-.24.38.9.37-.13.38-1.51.37.31.37-72.3.38 73.37.37-1.77.38.85.37.3.37-.67.38-.09.37.13.37.62.38-.61.37-73.16.38 72.3h.37l.37-.07.38 1.12.37.84.38-.04.37-.65.37.63.38-1.04.37.41.38.76.37-.31.37 15.75.38-1.59.37 1.75.37-1.25.38 4.46.37 2.34.38-.24.37-5.8.37 3.07.38-2.86.37-1.14.38-.09.37 6.45.37-1.14.38 4.01.37-5.04.38 7 .37-1.5.37-2.48.38-4.78.37 1.2.38 2.11.37 2.45.37-5.43.38-.87.37-.93.37 2.06.38-6.22.37 6.78.38.29.37 4.06.37-2.54.38 2.76.37 3.09.38-2.42.37-5.56.37 6.59.38 3.3.37 4.48.38-5.19.37-3.26.37 3.97.38-3.72.37-5.36.37.3.38 4.78.37-.43.38 1.69.37-4.76.37 8.78.38-24.78.37 1.59.38.05.37-.65.37.75.38-.23.37.77.38-1.53.37 1.04.37-3.26.38-3.52.37 1.49.38-.73.37-72.06.37 72.14.38.89.37-1.04.37.33.38-1.46.37.14.38.9.37.37.37-.3.38-76.86.37 78.04.38.1.37-1.76.37 1.19.38-1.15.37-.24.38.01.37.19.37.02.38-.39.37-.34.37 1.29.38-.03.37-1.25.38.63.37-.56.37.49.38-.75.37.32.38.23.37.98.37-1.54.38 1.8.37-.67.38-1.02.37 1.39.37 13.57.38.59.37.32.38 4.08.37-1.15.37 4.56.38-5.01.37 2.51.37-3.85.38 2.21.37-4.02.38 5.1.37-.86.37 4.53.38-3.29.37 4.49.38.56.37-1.91.37-5.33.38.46.37.24.38 4.38.37-2.19.37-3.17.38.64.37-3.09.37-.21.38 3.5.37 1.85.38 2.72.37-3.03.37 2.46.38 7.53.37-4.87.38-3.41.37 1.76.37 4.06.38 4.07.37-1.03.38-6.02.37 4.24.37-7.68.38-.34.37-2.8.38 5.89.37-1.44.37 4.35.38-2.97.37 6.92.37-3.51.38-22.97.37 1.23.38.32.37-.26.37.51.38.8.37-.96.38-1.1.37-.03.37-79.76.38 75.14.37.58.38.08.37.62.37-.23.38-1.26.37.03.37.92.38-.84.37-74.21.38 75.84.37-.94.37-.22.38-.75.37 1.06.38-1.68.37 2.48.37-.94.38.03.37-1.52.38.84.37.23.37.27.38-.84.37.57.38.07.37.2.37-.11.38.76.37-1.94.37 1.02.38.1.37.3.38.11.37-.87.37-73.25.38 73.39.37-.65.38 2.21.37-1.35.37 11.32.38 3.19.37 4.12.38 1.2.37 4.06.37-6.77.38-.31.37-.05.37-2.08.38.47.37 3.05.38 1.79.37 1.67.37-1.06.38 5.02.37-.22.38-2.45.37-4.46.37-1.26.38 1.76.37 4.14.38-2.62.37-3.87.37 1.97.38-1.72.37-1.79.38 2.92.37 2.98.37-.11.38-.14.37 1.65.37 6.4.38-5.63.37-2.08.38.53.37 5.76.37 3.29.38 1.53.37-9.36.38 4.94.37-5.35.37-.82.38-.9.37 1.17.38 1 .37 3.81.37-4.17.38 7.72.37-2.65.37-1.11.38-22 .37.78.38.16.37.27.37.04.38-74.2.37 73.56.38-1.72.37-4.69.37.61.38.3.37.9.38-1.13.37 1.22.37-.55.38-74.32.37 73.51.38 1.27.37-.97.37.89.38 1.03.37-2.06.37 1.25.38.39.37-.82.38-.96.37.72.37-.81.38.89.37-.99.38.54.37 1.16.37.44.38-.74.37-.94.38-.17.37 1.77.37.5.38-1.66.37-.05.37.43.38-75.31.37 75.25.38.54.37-.12.37-.02.38.01.37-.6.38.51.37.79"/><use xlink:href="#g" transform="matrix(3.75 0 0 3.75 342.45 184.25)"/><use xlink:href="#g" transform="matrix(3.75 0 0 3.75 95.45 7.51)"/></g><text fill="#000" stroke="none" stroke-linecap="round" stroke-linejoin="round" color="#000" font-family="KaTeX_Main" font-size="8" transform="translate(116 25.11)"><tspan>AVLTopDown</tspan></text><g fill="none" stroke="currentColor" stroke-linecap="round" stroke-linejoin="round" color="#000"><path stroke="#29C3F6" stroke-dasharray="1.0,2.0" d="M80.5 22.51h29.9M28 142.32l.37 1.84.38-3.19.37-19.1.38-66.65.37 87.86.37.78.38-.94.37-7.35.38 6.59.37.99.37-4.97.38 4.91.37.36.37-68.59.38 65.82.37 3.26.38-12.64.37-5.7.37.2.38-4.48.37 53.04.38 2.06.37-3.61.37 4.46.38-3.4.37 5.05.38-4 .37 2.53.37-3.35.38 5.37.37-.17.37 1.32.38-5.05.37 4.09.38-3.53.37 1.56.37-4.72.38 6.09.37-1.07.38 6.82.37-6.52.37 8.43.38-4.48.37-.15.38-7.56.37 4.15.37-.26.38 5.2.37-5.13.38-1.18.37 2.02.37-3.57.38-1.67.37 2.92.37 2.5.38 2.91.37-3.55.38 4.49.37 2.22.37-1.1.38-5.94.37 4.77.38 3.32.37 4.07.37-.37.38-8.13.37 6.2.38-5.98.37-2.67.37-.13.38-34.03.37 1.43.37-1.82.38-69.31.37 69.12.38 4.79.37-10.2.37-2.4.38 11.09.37-2.22.38 1.29.37 1.8.37-.56.38-3.71.37-10.98.38-12.05.37 6.21.37 15.69.38-.91.37-1.98.38-3.18.37 5.49.37-1.6.38-.8.37 3.17.37-8.47.38 7.23.37-4.15.38 3.81.37 1.89.37-71.16.38 52.15.37-4.08.38 20.55.37 1.2.37-1.02.38-6.3.37 6.14.38 2.16.37-6.77.37-63.03.38 68.58.37.02.37-1.62.38 2.53.37-10.11.38-5.75.37-1.04.37-6.68.38 13.22.37 40.83.38.81.37 2.13.37-2.52.38 4.08.37-4.07.38 1.26.37-1.35.37 5.74.38-2 .37 3.98.38-6.34.37 1.95.37-1.96.38 1.07.37-.34.37.05.38 1.95.37 4.67.38-2.06.37 3.72.37.51.38-2.29.37-5.53.38 1.17.37-1.35.37 3.96.38-.65.37-4.76.38 2.68.37-1.81.37-2.75.38 1.49.37 3.63.37 2.7.38-.45.37-.16.38 7.98.37-4.99.37-2.01.38-.42.37 6.46.38 3.61.37-.84.37-9.48.38 8.94.37-8.06.38.22.37-6.82.37 2.7.38-106.57.37 74.12.38 1.3.37-3.32.37 4.85.38-6.94.37-8.4.37 14.87.38-3.29.37 1.99.38 2.18.37-.62.37-.91.38-12.81.37-13.54.38 3.11.37 19.14.37-1.12.38-.13.37-6.26.38 7.13.37-1.68.37-1.76.38 3.42.37-6.04.37 2.47.38-73.37.37 76.81.38-.3.37 2.03.37-18.25.38-4.31.37 15.14.38 6.42.37-1.05.37-6.16.38-64.9.37 71.24.38-6.2.37 6.17.37.52.38-.2.37-3.28.38 2.88.37-6.8.37-9.71.38 1.08.37-6.41.37 8.36.38 14.35.37 29.6.38 2.63.37-1.52.37 4.51.38-1.38.37-1.26.38-.87.37 1.44.37-.21.38 5.16.37-3.17.38-1.47.37-1.62.37.73.38-1.46.37 1.45.37 3 .38 3.82.37-6.65.38 5.64.37 2.63.37-.64.38-6.56.37-.93.38 2.25.37 1.26.37-1.51.38-2.07.37 2.48.38-1.89.37-3.68.37 5.39.38.54.37.86.38 3.81.37-1.77.37 4.51.38-1.56.37-4.51.37-2.23.38 10.27.37-1.19.38 4.13.37-9.83.37 5.23.38-4.93.37.4.38-5.31.37 5.74.37-1.28.38-35.99.37 2.58.38-6.09.37 6.42.37-3.2.38-14.95.37 18.01.37-3.34.38 1.72.37 1.8.38.19.37-.03.37-13.02.38-14.36.37-.61.38 21.66.37.28.37-.39.38-6.91.37 7.22.38.85.37-5.52.37-65.17.38 66.85.37-2.79.38.61.37 4.47.37 1.55.38 1.75.37-16.07.37-8.66.38 15.12.37-62.71.38 70.2.37-6.32.37 4.74.38 2 .37-6.58.38 4.3.37 1.71.37-.61.38-1.87.37 3.81.38-5.88.37-11.42.37.56.38-6.94.37 5.65.37 17.41.38-1.75.37 32.77.38-1.04.37.65.37 2.68.38 1.28.37-4.04.38 2.5.37 1.8.37 4.23.38-4.55.37.28.38-3.59.37 2.08.37-2.25.38 1.34.37 3.72.38 3.28.37-2.89.37.7.38 7.24.37-3.11.37-5.32.38-1.16.37.86.38.57.37 2.14.37-6.32.38 2.92.37-2.2.38-2.04.37 2.89.37 3.28.38-.37.37 2.05.38-4.64.37 10.19.37-3.79.38-3.87.37-.24.37 7.4.38.61.37 4.46.38-9.09.37 3.26.37-2.7.38-1.18.37-5.56.38 3.57.37.36.37 3.25.38-37.01.37-4.32.38 3.66.37 2.41.37-20.14.38 19.31.37-3.22.38 4.34.37-73.66.37 72.23.38 1.21.37-12.15.37-11.85.38-4.15.37 18.87.38 3.59.37-.35.37-7.02.38-66.41.37 74.64.38-8.1.37 7.17.37-1.1.38-6.15.37.82.38 5.78.37.31.37 1 .38-83.99.37 60.87.37 10.26.38 11.08.37.04.38-3.94.37.83.37 3.19.38-4.88.37 5.13.38.82.37-.63.37-2.07.38 2.23.37-2.9.38-12.12.37-.62.37-6.53.38 1.96.37 20.69.38-1.41.37.84.37 30.85.38 4.1.37-.22.37-.85.38-4.07.37 5.72.38-1.34.37 3.89.37-2.17.38-4.33.37 5.52.38-3.52.37-1.73.37 1.29.38 5.07.37-.3.38-1.08.37 1.84.37 3.75.38-3.41.37-2.36.37-4.22.38 3.18.37 3.26.38-1.34.37-7.26.37 1.42.38.9.37-.91.38 1.31.37 4.64.37-1.91.38 5.88.37-4.94.38 7.38.37-2.91.37-1.15.38-3.48.37 5.23.38 3.13.37 4.75.37-6.71.38-.47.37-.57.37-1.85.38-3.15.37-1.2.38 2.69.37 1.44.37-.28.38-38.2.37 2.59.38 2.45.37-18.95.37-57.7.38 73.1.37 3.09.38-2.58.37 4.05.37-1.51.38-10.36.37-11.23.37-6.68.38 16.18.37-64.94.38 70.3.37-5.2.37 5.78.38 2 .37-6.82.38 4.95.37 1.02.37-8.68.38 2.48.37-69.59.38 74.9.37 2.12.37-9.13.38-14.75.37 7.3.37 14.9.38-.16.37-2.85.38-1.96.37 5.14.37-3.05.38-.24.37 3.81.38-1.19.37-1.65.37 1.8.38.82.37-14.82.38-1.98.37-3.26.37-2.12.38 20.24.37.82.38-.32.37-6.46.37 39.17.38 1.71.37-2.55.37 2.18.38 1.24.37.57.38 2.54.37-.9.37-5.27.38 4.67.37-3.97.38-.5.37 1.67.37 3.52.38 2.41.37-.91.38-1.26.37 6.16.37-4.97.38.31.37-3.55.37.87.38-.95.37 4.82.38-5.05.37.17.37-2.05.38-1.54.37-1.56.38 6.55.37-3.73.37 7.67.38-2.53.37 1.8.38 3.41.37-3.02.37-2.88.38 2.58.37 4.43.38 3.08.37-3.33.37-3.98.38 1.74.37-1.07.37-5.17.38 1.07.37 2.09.38-1.42.37 3.79.37.06.38-109.9.37 76.11.38-17.82.37 10.26.37 3.2.38 1.94.37-3.18.38 5.39.37-1.68.37-7.49.38-85.73.37 64.73.37 13.71.38 9.78.37-.91.38-4.76.37 2.52.37 3.29.38-5.89.37 5.56.38-.3.37-7.83.37 2.89.38 3.23.37 1.4.38 1.02.37-5.07.37-16.53.38 2.28.37 19.2.38-1.78.37.39.37-6.47.38 8.45.37-3.05.37-2.18.38 4.34.37-.04.38-1.08.37.96.37 1.52.38-14.48.37-3.96.38-.47.37-4.26.37 17.16.38 4.91.37-77.34.38 69.74.37 6.46.37 35.39.38-1.39.37-.3.37.61.38 3.61.37-.79.38.32.37-3.75.37 3.48.38-2.05.37-1.3.38-1.17.37 5.06h.37l.38 4.38.37-6.18.38 7.32.37-2.77.37-.45.38-4.17.37-.57.38 2.45.37 2.02.37-4.29.38-.36.37-1.82.37 3 .38-2.9.37 1.61.38 1.66.37 2.41.37-2.94.38 4.83.37 3.79.38-3.55.37-3.04.37 1.55.38 5.89.37 3.91.38-3.23.37-5.01.37 5.57.38-5.49.37-4.43.37.71.38 2.52.37.47.38.6.37-2.36.37 6.57.38-39.77.37-12.17.38 3.15.37 8.91.37-2.38.38.65.37 3.46.38-74.99.37 69.61.37-12 .38-10.31.37 8.71.38 13.57.37-1.53.37-3.31.38-.42.37 4 .37-3.34.38 2.89.37.88.38-8.3.37 5.61.37-.61.38 3.32.37 1.42.38-2.42.37-19.71.37-1.5.38 21.5.37-.9.38.63.37-7.01.37 6.88.38-72.96.37 68.79.37 4.88.38-.08.37 1.15.38-3.64.37 3.37.37-10.97.38-6.17.37-.32.38-76.98.37 86.05.37 8.16.38-.86.37-5.4.38 4.66.37 2.35.37 31.51.38-.76.37-2.46.38 7.1.37-1.39.37 4.27.38-8.22.37 6.13.37-4.91.38 1.49.37-1.36.38 2.64.37 1.6.37 1.38.38-5.74.37 10.28.38-.5.37-.86.37-10.01.38 3.66.37 1.44.38 1.48.37-1.25.37-3.26.38-.47.37-.39.37-3.48.38 6.04.37 1.24.38 1.41.37-1.38.37 4.28.38 4.79.37-4.6.38-3.64.37 1.11.37 6.05.38 5.34.37-2.01.38-8.95.37 5.69.37-5.41.38-1.27.37-2.8.38 3.39.37-1.03.37 4.86.38-2.62.37 7.06.37-8.12.38-41.56.37-4.52.38 11.85.37-76.82.37 75.4.38 3.42.37-.65.38-2.01.37-12.6.37-11.98.38 4.81.37 16.87.38-1 .37-1.93.37-4.33.38 7.49.37-1.18.37-3.18.38 3.04.37-6.73.38 5.66.37-4.31.37 5.11.38 1.47.37-.75.38-17.63.37-4.67.37 19.07.38 2.97.37-78.71.38 71.83.37 6.26.37 2.08.38-7.26.37 5.49.38 1.35.37-.72.37-2.75.38 2.66.37-81.61.37 65.44.38.94.37-6.45.38 9.72.37 12.53.37-1.19.38-3.99.37 1.39.38 2.96.37-78.78.37 110.81.38 1.23.37 3.22.38.81.37 1.72.37-4.72.38.12.37.02.37-.7.38-1.85.37 3.79.38 1.11.37 1.98.37-3.9.38 4.11.37 5.18.38-3.72.37-6.76.37 2.61.38.61.37-.13.38.01.37-2.97.37 2.05.38-2.06.37-1.65.38 2.21.37.65.37 1.38.38 2.77.37-.02.37 4.29.38-3.04.37-1.48.38-1.49.37 8.03.37.11.38 1.45.37-9.32.38 6.73.37-5.9.37 2.01.38-4.22.37.17.38 1.63.37 4.47.37-4.66.38 8.25.37-2.75.37-2.15.38-50.55.37 15.16.38-2.86.37-.54.37 3.33.38-.27.37.6.38-13.34.37-14.07.37 1.87.38 20.22.37-.79h.38l.37-6.78.37 7.17.38.32.37-3.59.38 2.64.37-3.66.37-.86.38.01.37 4.48.37 1.71.38.24.37-17.07.38-81.14.37 90.32.37 6.35.38-.12.37-5.51.38 4.03.37 1.57.37-6.08.38 6.43.37-.92.38-75.69.37 73.85.37 3.74.38-7 .37-10.59.37 1.71.38-7.41.37 6.73.38 15.41.37-.58.37-1.94.38-3 .37 5.39.38-1.85.37-.05"/><use xlink:href="#h" color="#29C3F6" transform="matrix(3.75 0 0 3.75 56.04 145.01)"/><use xlink:href="#h" color="#29C3F6" transform="matrix(3.75 0 0 3.75 95.45 22.51)"/></g><text fill="#000" stroke="none" stroke-linecap="round" stroke-linejoin="round" color="#000" font-family="KaTeX_Main" font-size="8" transform="translate(241.1 10.11)"><tspan>AVLWeakBottomUp</tspan></text><g fill="none" stroke="currentColor" stroke-linecap="round" stroke-linejoin="round" color="#000"><path stroke="#3B75EA" d="M205.6 7.51h29.9M28 161.91l.37-.63.38.36.37-1.34.38.01.37 1.09.37-.18.38.72.37-1.49.38.18.37.85.37.02.38-.92.37 1.4.37-.92.38-.19.37.67.38-1.68.37-64.14.37 64.81.38.54.37-24.22.38 11.49.37 4.56.37 1.79.38-2.77.37 10.21.38.21.37-6.42.37-5.84.38 11.76.37 1.39.37 6.2.38-7.05.37 7.61.38-8.05.37-3.75.37-9.97.38 12.61.37.98.38 8.52.37-8.4.37 10 .38 1.49.37-.88.38-10.84.37 8.96.37 2.74.38-.02.37-11.71.38 8.07.37-7.83.37.48.38-12.9.37 6.8.37 5.88.38 6.21.37-4.24.38 4 .37 4.98.37.44.38-8.28.37 1.68.38 6.99.37 3.01.37.12.38-.52.37 1.3.38-4.21.37-5.61.37-4.13.38-3.02.37-.71.37 1.68.38-.12.37-.77.38.78.37-.76.37-66.08.38 65.19.37 1.39h.38l.37-.28.37.25.38.1.37-.36.38.7.37-.1.37.12.38.39.37-1.41.38.58.37.11.37-.81.38.16.37.16.37-.58.38-.38.37 1.54.38-.8.37.79.37-.43.38.86.37-.83.38-64.99.37 65.06.37.37.38.73.37-.17.38-1.34.37-.38.37 1.91.38.15.37-2.21.37-64.34.38 66.06.37-.92.38-.75.37.62.37 1.07.38-1.61.37.94.38 2.45.37 4.84.37-5.79.38 10.68.37-.57.38-3.09.37-8.11.37 11.89.38-.26.37-2.46.38-9.1.37 8.28.37-8.29.38-1.9.37-11.82.37 11.35.38 2.4.37 8.12.38-8.24.37 8.41.37 2.88.38.68.37-11.57.38 7.97.37 3.37.37 5.71.38-4.28.37 3.69.38-3.46.37-1.43.37-9.09.38 3 .37 5.69.37 4.39.38-.33.37-.6.38.93.37-4.28.37-6.24.38-2.8.37 9.22.38.08.37-5.34.37-4.85.38 5.77.37-6.62.38-5.69.37-8.6.37 13.5.38 2.48.37 1.74.38 2.68.37-72.24.37 70.2.38-1.66.37 1.55.37.31.38.13.37.55.38-1.77.37 1.06.37-.63.38-1.64.37-2.86.38-.68.37 2.48.37-2.76.38.64.37-.79.38.47.37-.87.37 1.01.38-.16.37-.69.37.14.38 1.79.37-.69.38-.44.37 1.03.37-68.94.38 67.48.37-.37.38.58.37-.36.37.78.38 1.1.37-2.06.38 2.75.37-1.71.37-66.45.38 64.79.37 2.01.38-1.44.37 1.45.37-.28.38-2.38.37-2.33.37-.91.38-.06.37 5.04.38 9.31.37-8.67.37 10.63.38 1.19.37-1.82.38-9.23.37 9.92.37 1.18.38-.85.37-10.6.38 7.78.37-7.71.37-.21.38-14.52.37 10.04.37 4.99.38 6.87.37-6.36.38 5.94.37 4.35.37.37.38-9.25.37 3.51.38 6.06.37-.16.37-8.34.38 1.68.37-.61.38-4.06.37-8.19.37-1.95.38 10.01.37 2.49.38 2.8.37-3.88.37 9.76.38.21.37-4.36.37-6.56.38 11.3.37-.57.38 6.71.37-7.35.37 7.86.38-7.19.37-2.81.38-8.68.37 10.57.37 1.72.38-80.42.37 67.79.38.8.37-.52.37-.4.38 1.04.37-1.21.37-.9.38 1 .37.34.38-.79.37 1.03.37-1.66.38.34.37-.06.38.57.37-.62.37-.32.38 1.25.37-.84.38.32.37.35.37-.03.38.59.37-.63.38-.71.37-67.33.37 68.68.38.23.37-1.24.37.37.38-.42.37.26.38-.27.37 1.99.37-1.92.38-68.48.37 69.2.38-.91.37.97.37.1.38-.24.37-1.52.38.14.37.92.37-.71.38 1.4.37-.03.37-1.43.38 1.24.37 8.47.38-8.17.37 9.15.37 2.51.38-.45.37-11.55.38 8.56.37 3.41.37-.07.38-10.86.37 6.58.38-6.24.37-.63.37-12.39.38 5.44.37 6.82.38 5.38.37-2.88.37 1.92.38 7.11.37.41.37-7.83.38-.52.37 8.16.38 2.22.37 2.03.37-2.77.38 3.23.37-5.44.38-4.99.37-5 .37 10.71.38.13.37 5.65.38-6.13.37 6.75.37-6.51.38-3.31.37-8.37.37 10.3.38 1.29.37-1.95.38-9.52.37 8.26.37-8.4.38-1.15.37-12.97.38 10.25.37 3.51.37 8.36.38-3.85.37.58.38.13.37.77.37-1.21.38.11.37 1.43.38-1.18.37.06.37-.37.38.02.37-.46.37-4.37.38-.18.37-.1.38-.44.37 1.11.37-1.38.38.5.37-.85.38.69.37 1.11.37-70.51.38 68.83.37.97.38-.83.37.65.37-1.3.38.64.37-.57.37 1.96.38-.93.37-69.34.38 69 .37-.76.37.45.38 2.13.37-1.99.38-.81.37.62.37-1.06.38 1.96.37.67.38-.66.37-.99.37-3.77.38-1.05.37 1.59.38-.54.37-.38.37 4.9.38 8.49.37 4.25.37-.39.38-10.45.37 5.81.38 4.71.37-.08.37-9.01.38 3.2.37-2.12.38-3 .37-10.04.37.98.38 8.88.37 3.33.38 1.37.37-1.96.37 8.94.38-.43.37-5.46.37-4.5.38 10.07.37-.41.38-3.56.37-7.15.37 7.08.38-8.27.37-3.78.38-10.19.37 13.7.37.36.38 8.82.37-8.33.38 10.41.37 1.37.37-1.33.38-10.24.37 9 .38 2.32.37 6.87.37-6.82.38 6.62.37-6.1.37-.72.38-10.37.37 5.92.38 4.53.37 5.39.37-3.49.38-14.31.37 1.28.38-1.31.37 1.58.37-.22.38-1.51.37.5.38-.1.37-70.68.37 72.04.38-2.03.37.96.37.48.38-.52.37-.45.38.26.37.09.37-1 .38-67.83.37 67.76.38.55.37-.39.37 1.55.38-1.3.37-.05.38.15.37.5.37-.99.38-69.33.37 71.12.37.66.38-1.48.37.37.38-.31.37-1.8.37 1.18.38.03.37.8.38-1.45.37 2.06.37-2.53.38 2.65.37-1.4.38-.11.37.46.37 1.03.38-1 .37-.11.38.69.37.2.37 5.16.38 6.2.37.09.37-8.08.38 1.78.37 6.75.38.09.37-7.21.37-.84.38.98.37-4.26.38-7.35.37-4.55.37 11.21.38 1.56.37 5.29.38-5.37.37 10.3.37-.07.38-3.54.37-7.81.37 10.95.38.36.37 6.66.38-6.85.37 6.69.37-6.24.38-1.83.37-9.89.38 9.12.37 2.61.37 6.31.38-6.73.37 7.09.38-7.21.37.44.37-11.16.38 7.62.37 3.7.38.03.37-10.68.37 5.11.38-4.23.37-1.84.37-10.92.38 3.14.37 8.23.38 4.35.37-.87.37.07.38.43.37-.78.38 3.84.37-3.56.37-69.89.38 69.81.37.92.38-.87.37-.63.37.7.38-4.6.37 1.92.37-2.52.38 1.03.37-70.57.38 69.87.37.35.37-1.58.38.79.37-1 .38 1.34.37.28.37-1.78.38.46.37-69.77.38 70.92.37-.03.37-.16.38-1.47.37-.99.38 2.26.37-1.21.37.51.38.5.37.36.37-.74.38.45.37-1.2.38.65.37 1 .37-.07h.38l.37.04.38-4.36.37-.43.37.27.38.35.37-.05.38-1.06.37.21.37 17.06.38.43.37-6.42.37-2.7.38 8.61.37.33.38-5.13.37-4.32.37 5.14.38-6.44.37-4.81.38-8.96.37 13.64.37-.36.38 8.04.37-8.06.38 10.68.37.89.37-2.33.38-9.49.37 10.26.38 1.15.37-1.25.37-10.26.38 8.26.37-8.12.37-.02.38-13.79.37 9.72.38 4.26.37 7.12.37-6.21.38 5.53.37 4.62.38.51.37-9.29.37 3.15.38 6.12.37 4.13.38-1.48.37 1.05.37-.03.38-3.41.37-7.42.37-1.01.38 8.27.37 1.82.38 2.76.37-2.85.37 2.76.38-12.06.37-69.06.38 69.84.37.41.37.43.38-1.14.37-.99.38-.85.37 2.17.37-3.43.38-4.03.37-68.85.38 68.98.37 1.48.37-.96.38 1.34.37-.79.37-.15.38.02.37.57.38-.09.37.41.37-1.89.38.87.37 1.47.38-2.97.37 1.94.37 1.07.38-.8.37.25.38 1.68.37-3.82.37.87.38.21.37.35.37-1.38.38.46.37.14.38-.31.37 1.2.37-.31.38-.87.37-3.44.38-.06.37-.26.37-.8.38-.88.37-69.54.38 70.57.37-.35.37 18.21.38-4.71.37-5.35.38 9.8.37.53.37-3.78.38-7.53.37 7.98.37-7.96.38-2.99.37-10.25.38 12.37.37 1.43.37 7.51.38-8.3.37 9.62.38 1.55.37-.16.37-10.73.38 7.52.37 3.95.38-.27.37-10.56.37 6.45.38-6.2.37-1.04.37-11.38.38 5.4.37 6.29.38 4.95.37-2.47.37 2.46.38 6.28.37-.06.38-6.89.37-.81.37 7.83.38 2.2.37 1.76.38-2.03.37 2.71.37-4.91.38-4.76.37-5.21.38 10.24.37.27.37 5.7.38-6.33.37 6.85.37-6.78.38-8.11.37 2.25.38-1.66.37.19.37-.61.38-.42.37 1.46.38-70.5.37 67.94.37-3.71.38.47.37.46.38.25.37-1.28.37 1.33.38-.31.37-.14.37-.54.38.84.37-1.89.38 2.03.37-.44.37-1.55.38.81.37.98.38-.91.37 1.26.37-2.13.38 1.47.37-1.1.38 1.39.37-.49.37-.01.38-70.25.37 70.18.38-1.11.37.55.37 1.08.38-.23.37-1.21.37.29.38-2.4.37-.56.38-72.47.37 72.05.37.16.38 1.09.37-1.72.38.62.37-2.65.37 16.14.38-8.25.37 10.74.38-.25.37-1.15.37-8.92.38 7.56.37-7.76.37-.7.38-12.84.37 10.32.38 2.87.37 8.16.37-7.87.38 6.95.37 4.46.38-.76.37-10.04.37 6.03.38 4.43.37.71.38-9.12.37 2.78.37-2.43.38-2.96.37-9.12.38 1.09.37 8.27.37 3.42.38 1.25.37-2.36.37 8.39.38.87.37-6.46.38-3.6.37 9.34.37 1.27.38 4.66.37-5.3.38 5.74.37-6.21.37-3.87.38-7.69.37 10.81.38.52.37 6.84.37-6.66.38 6.78.37-6.64.37-1.18.38-7.04.37 2.17.38-.61.37-72.26.37 70.96.38-.61.37 1.95.38-3.16.37-2.67.37-1.4.38 1.51.37-1.08.38.12.37-.32.37-.95.38.23.37 2.38.38.19.37-2.22.37.99.38.33.37.33.37-1.31.38 1.55.37-1.63.38.46.37-.03.37-1.03.38 1.52.37-72.13.38 71.66.37.48.37.66.38 1.09.37-1.65.38.17.37-.83.37-.8.38 2.24.37-72.78.37 69.2.38-1.5.37-1.9.38 2.56.37-1.84.37.73.38 1.23.37-.2.38-.14.37-72.48"/><use xlink:href="#d" color="#3B75EA" transform="matrix(3.75 0 0 3.75 113.62 173.54)"/><use xlink:href="#d" color="#3B75EA" transform="matrix(3.75 0 0 3.75 220.55 7.51)"/></g><text fill="#000" stroke="none" stroke-linecap="round" stroke-linejoin="round" color="#000" font-family="KaTeX_Main" font-size="8" transform="translate(241.1 25.11)"><tspan>AVLWeakTopDown</tspan></text><g fill="none" stroke="currentColor" stroke-linecap="round" stroke-linejoin="round" color="#000"><path stroke="#00C853" stroke-dasharray="4.5,2.0,0.5,2.0,0.5,2.0" d="M205.6 22.51h29.9M28 154.31l.37-1.98.38.49.37-7.07.38 1.37.37-1.63.37 2.42.38-3.29.37-55.74.38 70.73.37-.92.37-11.43.38 5.08.37.52.37 8.85.38-12.77.37 10.41.38-8.01.37 6.86.37-14.71.38-1.92.37.23.38-2.86.37 3.35.37-3.16.38 17.5.37 3.01.38-1.13.37-4.69.37-2.98.38 7.21.37 1.07.37-1.25.38-2.28.37.29.38-1.48.37-1.7.37-5.73.38 12.73.37-1.2.38.06.37-1.24.37-1.15.38-1.55.37.92.38-5.49.37 5.93.37-.77.38.62.37-3.77.38 1.96.37-1.03.37-2.94.38-10.8.37 3.18.37 2.28.38 14.92.37-4.11.38 2.76.37 1.53.37-3.35.38-3.48.37 4.89.38 1.06.37-.26.37-1.2.38-2.98.37 2.12.38-2.73.37-5.73.37.21.38 2.91.37 4.34.37-2.65.38 2.71.37 3.08.38 3.66.37-9.26.37-2.27.38 2.49.37 3.79.38 2.5.37-7.85.37 6.46.38-75.71.37 72.91.38-19.89.37 15.75.37-.06.38 3.25.37-5.5.38 5.45.37-2.54.37.67.38-70.59.37 64.79.37 4.32.38 6.58.37-7.93.38 2.75.37.36.37 1.16.38-8.27.37.77.38-2.05.37 4.87.37-4.2.38 7.07.37 6.36.38 4.18.37-16.54.37 8.06.38-.5.37 7.69.37-10.39.38 4.71.37-5.15.38 2.74.37-3.1.37-13.44.38 13.83.37-7.8.38 1.22.37-1.59.37 12.14.38 5.57.37-2.42.38-2.67.37-4.98.37 8.73.38.21.37-.74.38-3.68.37 1.82.37-2.51.38-.2.37-6.4.37 11.39.38-.47.37.96.38-2.54.37 1.47.37-3.67.38 1.49.37-6.03.38 4.08.37.53.37 2.18.38-4.85.37 3.43.38-3.71.37.71.37-14.08.38 6.28.37-2.83.37 19.21.38-4.23.37 1.16.38 1.57.37-1.98.37-3.79.38 1.84.37 3.98.38-1.38.37-.57.37-2.55.38 2.23.37-3.95.38-2.96.37-3.71.37.03.38 7.66.37-.71.38-3.46.37 8.26.37.04.38.67.37-7.95.37 6.04.38-1.46.37 5.11.38-85.41.37 83.09.37-7.84.38 6 .37-21.69.38 13.68.37 1.2.37 3.95.38-7.88.37 7.71.38-71.82.37 72.33.37-6.76.38.63.37-1.25.37 10.69.38-8.6.37 5 .38-4.79.37 6.16.37-9.86.38 2.08.37-2.87.38 4.96.37-5.95.37 6.25.38 9.86.37 1.65.38-10.59.37 2.33.37 1.26.38 7.53.37-9.12.38-.22.37 2.94.37-1.11.38-74.5.37 56.16.37 17.38.38-.16.37-11.12.38 1.6.37 7.3.37 8.62.38-2.3.37-1.38.38-5.76.37 9.1.37-.04.38-.41.37-4.24.38 2.32.37-3.06.37-.23.38-7.19.37 9.61.37 2.16.38.44.37-2.27.38 2.39.37-5.55.37 3.07.38-3.54.37-.6.38 3.53.37 1.46.37-4.18.38 1.36.37-2.99.38 2.93.37-17.76.37 9.32.38-5.08.37 16.9h.38l.37-2.13.37 4.29.38-3.33.37-2.04.37.67.38 4.41.37-1.59.38-1.26.37-2.89.37 3.95.38-3.66.37-1.76.38-5.98.37 1.45.37 6.38.38-1.17.37-2.67.38 12.97.37-3.18.37 1.47.38-12.88.37-65.12.37 75 .38.15.37-10.85.38 10.95.37-5.97.37 3.18.38-16.78.37 7.56.38 2.34.37-62.6.37 60.37.38 3.15.37 3.5.38 1.66.37-8.52.37.95.38-.93.37 12.53.38-8.79.37 3.48.37-.47.38-1.36.37-8.83.37 3.85.38-1.68.37 2.54.38-1.6.37-.01.37 13.65.38.33.37-4.3.38-4.7.37 2.21.37 5.6.38-1.65.37-78.86.38 81.33.37-7.6.37 2.14.38-18.79.37 14.67.37 2.15.38 1.31.37-9.83.38 5.39.37 9.53.37-1.02.38-1.41.37-5.32.38 5.31.37 2.52.37.29.38-4.95.37 3.12.38-3.5.37 1.04.37-7.47.38 6.19.37 4.9.38 1.15.37-4.99.37 5.45.38-7.54.37 4.69.37-3.44.38-2.9.37 3.45.38 2.67.37-2.87.37-1.36.38-.31.37.56.38-13.28.37 3.75.37-1.48.38 12.45.37 2.72.38-2.63.37 5.25.37-3.14.38-1.94.37-.37.37 4.84.38-.41.37-2.27.38-3.2.37 4.11.37-3.58.38-.59.37-7.54.38 2.06.37 4.87.37 9.35.38-13.55.37 13.72.38-70.21.37 68.65.37-13.87.38 8.72.37 1.35.38 2.11.37-12.59.37 9.94.38-5.19.37 1.64.37-78.55.38 70.83.37 5.49.38 2.69.37-4.89.37 1.92.38 1.86.37 2.23.38-7.77.37 3.2.37-3.74.38 13.06.37-6.38.38.84.37-.12.37-1.22.38-4.74.37-1.29.37-.52.38 2.29.37-1.15.38-4.82.37 21.37.37-3.08.38-2.73.37-9.63.38-65.49.37 74 .37 3.89.38-12.66.37 12.44.38-10.19.37 4.56.37-16.99.38 8.87.37 3.95.38-68.99.37 65.58.37-1.73.38 14.54.37-1.39.37-1.7.38-4.27.37 2.17.38 4.56.37.05.37-4.76.38 2.69.37-2.72.38-.39.37-5.23.37 5.24.38 4.75.37.4.38-2.47.37 3.28.37-7.67.38 4.54.37-1.6.37-5.62.38 6.5.37.3.38-1.37.37-1.92.37-.39.38.99.37-11.04.38-.35.37-.81.37 9.47.38 7.48.37-4.05.38 5.59.37-3.04.37-1.64.38-2.27.37 6.42.38-.08.37-2.41.37-3.26.38 3.72.37-2.28.37-1.28.38-7.23.37 1.91.38 1.44.37 12.15.37-3.87.38-2.37.37 3.36.38 1.67.37-13.08.37 7.59.38-2.51.37 9.55.38-12.5.37 8.23.37-6.59.38 4.51.37-10.74.37-1.63.38 5.95.37 4.34.38-1.79.37-3.15.37 4.77.38-1.6.37-3.57.38-1.89.37.35.37 7.18.38.76.37-4.51.38 4.49.37-2.64.37-1.87.38-4.22.37.65.37.07.38.81.37-4.93.38 17.14.37-72.83.37 72.54.38-11.85.37 8.15.38 1.71.37 3.32.37-12.99.38 11.48.37-8.03.38 3.78.37-83.64.37 73.24.38 3.81.37 4.8.38-5.53.37 3.87.37 5.92.38 1.14.37-.76.37-4.95.38.35.37 4.85.38 1.96.37-4.49.37 1.55.38-2.53.37-1 .38-4.15.37 1.8.37 7.55.38-.34.37-1.43.38 1.2.37-5.45.37 4.12.38-2.47.37-6.59.37 7.76.38-.16.37-1.03.38-2.88.37.35.37.7.38-6.05.37-5.91.38 1.06.37 7.11.37 10.35.38-5.36.37 5.83.38-2.21.37-1.71.37-4.22.38 8.04.37-.19.38-2.05.37-3.61.37 2.3.38-1.36.37-.79.37-7.19.38 1.24.37-1.03.38 16.12.37-3.99.37.99.38-4.5.37 4.39.38-12.36.37 5.59.37-1.85.38 8.74.37-12.11.38 9.4.37-5.96.37 3.44.38-10.1.37-5.29.37 10.42.38-.72.37-.98.38-1.15.37 8.65.37-1.97.38-4.73.37-3.92.38-72.09.37 81.95.37 1.04.38-4.1.37 3.35.38-3.83.37-.91.37-5.85.38-1.04.37 1.46.38-70.08.37 70.07.37 10.06.38 4.77.37 1.37.37-12.95.38 6.4.37-1.86.38 8.6.37-12.51.37-60.11.38 63.37.37 4.7.38-15.48.37 2.96.37 3.46.38 7.17.37-5.05.38-.99.37 4.09.37 4.63.38-.44.37-3.28.37-1.11.38 5.44.37.81.38-2.31.37-1.28.37-.27.38-1.66.37-.78.38-5.39.37 10.81.37-.36.38 1 .37-1.24.38-2.31.37.76.37-.21.38-8.26.37 10.19.38-3.12.37 1.48.37-4.74.38 1.3.37-.21.37-3.02.38-10.49.37 3.21.38 3.98.37 13.34.37-5.42.38 5.09.37-1.1.38-1.89.37-4.57.37 6.04.38.48.37-.6.38-2 .37-.41.37 1.07.38-2.51.37-6.93.37 3.09.38-3.34.37 14.43.38-1.35.37-.35.37 4.15.38-6.15.37-3.42.38-1.76.37.39.37 6.6.38-4.14.37-2.62.38 4.86.37-3.54.37-2.19.38-18.03.37 20.5.38-2.65.37 4.19.37-7.57.38 7.84.37-3.92.37-76.65.38 72.36.37 2.1.38.55.37 6.8.37-7.58.38 6.19.37-3.57.38.3.37-8.69.37-69.4.38 68.98.37 3.91.38-4.66.37 11.99.37 4.15.38.27.37-9.93.37 5.32.38-.73.37-65.93.38 62.35.37 8.63.37-7.38.38 6.23.37-11.32.38-6.63.37 11.55.37 2.31.38-1.82.37-2.92.38 5.97.37-1.94.37 3.05.38-1.5.37-2.77.38 6.95.37.41.37-1.38.38-2.27.37.45.37-1.62.38-1.39.37-6.14.38 13.09.37-1.42.37.52.38-1.69.37.3.38-2.8.37 1.15.37-5.75.38 4.57.37.6.38 1.1.37-4.37.37 3.19.38-2.77.37-1.71.37-11.09.38 4.34.37-.04.38 15.26.37-3.12.37 1.42.38 1.77.37-2.44.38-3.79.37 3.79.37 1.41.38-1.65.37.12.38-2.02.37 1.84.37-3.24.38-4.1.37-1.06.38-1.49.37 12.88.37 1.7.38-3.06.37 6.01.37-3.41.38-10.22.37-.75.38 3.63.37 3.31.37 3.05.38-9.36.37 11.06.38-11.71.37 4.98.37-19.41.38 13.71.37 2.53.38.28.37-77.89.37 78.79.38 1.46.37-1.1.37-6.63.38 2.08.37-.35.38 9.94.37-10.54.37 5.92.38-75.67.37 73.68.38-8.26.37 2.75.37-1.44.38 3.1.37-3.34.38 5.83.37 9.38.37 2.04.38-11.22.37 5.81.38-2.41.37 7.78.37-7.37.38 1.38.37-.82.37-.93.38-3.51.37-12.95.38 13.28.37 1.57.37-.86.38-4.22.37 7.64.38-2.15.37-1.02.37 2.64.38-4.08.37 8.53.38.49.37-1.17.37-3.07.38 1.36.37-2.1.37-.3.38-6.89.37 11.25.38.13.37 1.19.37-2.18.38.39.37-3.97.38 2.23.37-4 .37.61.38 2.11.37 1.58.38-4.05.37 3.06.37-3.35.38.92.37-15.47.38 7.06.37-2.62.37 17.65.38-3.4.37-.17.37 3.12.38-2.24.37-3.05.38.37.37 4.79.37-1.23.38-.97.37-2.31.38 2.59.37-4.72.37-1.5.38-4.11.37.2.38 8.6.37 6.69.37-3.85.38 5.52.37-2.78.37-1.9.38-13.63.37 9.33.38 1.69.37 3.29.37-12.99.38 13.45.37-9.65.38 3.59.37-18.91.37-62.61.38 76.71.37 4.73.38-7.18.37 5.01.37-.16.38 2.07.37-9.2.38 5.2.37-3.68.37-58.8.38 64.54.37-1.06.37-.91.38 4.04.37-9.87.38 2.15.37-.92.37 3.34.38-3.12.37.5.38 11.78.37 3.64.37-6.89.38-3.27.37 3.53.38 3.1.37-.42.37-6.54.38 7.31.37-6.8.37.54.38-16.76.37 17.02.38-1.34.37 3 .37-81.27.38 81.25.37-.13.38-1.22.37-6.14"/><use xlink:href="#i" color="#00C853" transform="matrix(3.75 0 0 3.75 171.2 74.38)"/><use xlink:href="#i" color="#00C853" transform="matrix(3.75 0 0 3.75 220.55 22.51)"/></g><path fill="none" stroke="none" stroke-linecap="round" stroke-linejoin="round" stroke-width="0" d="M28 45.01V205M371.99 45.01H28" color="#000"/></svg>