<svg xmlns="http://www.w3.org/2000/svg" xmlns:xlink="http://www.w3.org/1999/xlink" viewBox="0 0 400 250"><path fill="none" d="M0 0h400v250H0z"/><defs><path id="g" stroke="currentColor" stroke-width=".267" d="M-1 0h2M0-1v2"/><path id="h" stroke="currentColor" stroke-width=".267" d="m-1-1 2 2m0-2-2 2"/><path id="i" stroke="currentColor" stroke-width=".267" d="M-1 0h2M0-1v2m-1-2 2 2m-2 0 2-2"/><path id="d" stroke="currentColor" stroke-width=".267" d="M-1-1h2v2h-2z"/><path id="b" stroke="currentColor" stroke-width=".267" d="m0-1.33-1.33 2h2.66z"/><path id="f" stroke="currentColor" stroke-width=".267" d="M0 1.33 1.265.411.782-1.067l-1.564-.009-.483 1.487z"/><use xlink:href="#b" id="c" stroke="currentColor" transform="rotate(180)"/><use xlink:href="#d" id="e" stroke="currentColor" transform="rotate(45)"/><circle id="a" cx="0" cy="0" r="1" stroke="currentColor" stroke-width=".267"/></defs><path fill="none" stroke="#000" stroke-linecap="round" stroke-linejoin="round" stroke-width=".1" d="M35.48 205V45.01" class="gridline" color="#000"/><g fill="none" stroke="none" stroke-linecap="round" stroke-linejoin="round" stroke-width="0" color="#000"><path d="M35.48 205v-7.5m0-152.49v7.5"/><text fill="#000" font-family="KaTeX_Main" font-size="10" text-anchor="middle" transform="translate(35.48 215.75)"><tspan> 1</tspan></text></g><path fill="none" stroke="#000" stroke-linecap="round" stroke-linejoin="round" stroke-width=".1" d="M72.87 205V45.01" class="gridline" color="#000"/><g fill="none" stroke="none" stroke-linecap="round" stroke-linejoin="round" stroke-width="0" color="#000"><path d="M72.87 205v-7.5m0-152.49v7.5"/><text fill="#000" font-family="KaTeX_Main" font-size="10" text-anchor="middle" transform="translate(72.87 215.75)"><tspan> 2</tspan></text></g><path fill="none" stroke="#000" stroke-linecap="round" stroke-linejoin="round" stroke-width=".1" d="M110.26 205V45.01" class="gridline" color="#000"/><g fill="none" stroke="none" stroke-linecap="round" stroke-linejoin="round" stroke-width="0" color="#000"><path d="M110.26 205v-7.5m0-152.49v7.5"/><text fill="#000" font-family="KaTeX_Main" font-size="10" text-anchor="middle" transform="translate(110.26 215.75)"><tspan> 3</tspan></text></g><path fill="none" stroke="#000" stroke-linecap="round" stroke-linejoin="round" stroke-width=".1" d="M147.65 205V45.01" class="gridline" color="#000"/><g fill="none" stroke="none" stroke-linecap="round" stroke-linejoin="round" stroke-width="0" color="#000"><path d="M147.65 205v-7.5m0-152.49v7.5"/><text fill="#000" font-family="KaTeX_Main" font-size="10" text-anchor="middle" transform="translate(147.65 215.75)"><tspan> 4</tspan></text></g><path fill="none" stroke="#000" stroke-linecap="round" stroke-linejoin="round" stroke-width=".1" d="M185.04 205V45.01" class="gridline" color="#000"/><g fill="none" stroke="none" stroke-linecap="round" stroke-linejoin="round" stroke-width="0" color="#000"><path d="M185.04 205v-7.5m0-152.49v7.5"/><text fill="#000" font-family="KaTeX_Main" font-size="10" text-anchor="middle" transform="translate(185.04 215.75)"><tspan> 5</tspan></text></g><path fill="none" stroke="#000" stroke-linecap="round" stroke-linejoin="round" stroke-width=".1" d="M222.43 205V45.01" class="gridline" color="#000"/><g fill="none" stroke="none" stroke-linecap="round" stroke-linejoin="round" stroke-width="0" color="#000"><path d="M222.43 205v-7.5m0-152.49v7.5"/><text fill="#000" font-family="KaTeX_Main" font-size="10" text-anchor="middle" transform="translate(222.43 215.75)"><tspan> 6</tspan></text></g><path fill="none" stroke="#000" stroke-linecap="round" stroke-linejoin="round" stroke-width=".1" d="M259.82 205V45.01" class="gridline" color="#000"/><g fill="none" stroke="none" stroke-linecap="round" stroke-linejoin="round" stroke-width="0" color="#000"><path d="M259.82 205v-7.5m0-152.49v7.5"/><text fill="#000" font-family="KaTeX_Main" font-size="10" text-anchor="middle" transform="translate(259.82 215.75)"><tspan> 7</tspan></text></g><path fill="none" stroke="#000" stroke-linecap="round" stroke-linejoin="round" stroke-width=".1" d="M297.21 205V45.01" class="gridline" color="#000"/><g fill="none" stroke="none" stroke-linecap="round" stroke-linejoin="round" stroke-width="0" color="#000"><path d="M297.21 205v-7.5m0-152.49v7.5"/><text fill="#000" font-family="KaTeX_Main" font-size="10" text-anchor="middle" transform="translate(297.21 215.75)"><tspan> 8</tspan></text></g><path fill="none" stroke="#000" stroke-linecap="round" stroke-linejoin="round" stroke-width=".1" d="M334.6 205V45.01" class="gridline" color="#000"/><g fill="none" stroke="none" stroke-linecap="round" stroke-linejoin="round" stroke-width="0" color="#000"><path d="M334.6 205v-7.5m0-152.49v7.5"/><text fill="#000" font-family="KaTeX_Main" font-size="10" text-anchor="middle" transform="translate(334.6 215.75)"><tspan> 9</tspan></text></g><path fill="none" stroke="#000" stroke-linecap="round" stroke-linejoin="round" stroke-width=".1" d="M371.99 205V45.01" class="gridline" color="#000"/><g fill="none" stroke="none" stroke-linecap="round" stroke-linejoin="round" stroke-width="0" color="#000"><path d="M371.99 205v-7.5m0-152.49v7.5"/><text fill="#000" font-family="KaTeX_Main" font-size="10" text-anchor="middle" transform="translate(371.99 215.75)"><tspan> 10</tspan></text></g><g fill="none" stroke="none" stroke-linecap="round" stroke-linejoin="round" stroke-width="0" color="#000"><path d="M371.99 205h-7.5"/><text fill="#000" font-family="KaTeX_Main" font-size="10" transform="translate(378.99 208.25)"><tspan>0.81</tspan></text></g><g fill="none" stroke="none" stroke-linecap="round" stroke-linejoin="round" stroke-width="0" color="#000"><path d="M371.99 178.33h-7.5"/><text fill="#000" font-family="KaTeX_Main" font-size="10" transform="translate(378.99 181.58)"><tspan>0.82</tspan></text></g><g fill="none" stroke="none" stroke-linecap="round" stroke-linejoin="round" stroke-width="0" color="#000"><path d="M371.99 151.67h-7.5"/><text fill="#000" font-family="KaTeX_Main" font-size="10" transform="translate(378.99 154.92)"><tspan>0.83</tspan></text></g><g fill="none" stroke="none" stroke-linecap="round" stroke-linejoin="round" stroke-width="0" color="#000"><path d="M371.99 125h-7.5"/><text fill="#000" font-family="KaTeX_Main" font-size="10" transform="translate(378.99 128.25)"><tspan>0.84</tspan></text></g><g fill="none" stroke="none" stroke-linecap="round" stroke-linejoin="round" stroke-width="0" color="#000"><path d="M371.99 98.34h-7.5"/><text fill="#000" font-family="KaTeX_Main" font-size="10" transform="translate(378.99 101.59)"><tspan>0.85</tspan></text></g><g fill="none" stroke="none" stroke-linecap="round" stroke-linejoin="round" stroke-width="0" color="#000"><path d="M371.99 71.67h-7.5"/><text fill="#000" font-family="KaTeX_Main" font-size="10" transform="translate(378.99 74.92)"><tspan>0.86</tspan></text></g><g fill="none" stroke="none" stroke-linecap="round" stroke-linejoin="round" stroke-width="0" color="#000"><path d="M371.99 45.01h-7.5"/><text fill="#000" font-family="KaTeX_Main" font-size="10" transform="translate(378.99 48.26)"><tspan>0.87</tspan></text></g><path fill="none" stroke="none" stroke-linecap="round" stroke-linejoin="round" stroke-width="0" d="M28 45.01V205M371.99 45.01H28" color="#000"/><text fill="#000" stroke="none" stroke-linecap="round" stroke-linejoin="round" stroke-width="0" color="#000" font-family="KaTeX_Main" font-size="10" text-anchor="middle" transform="rotate(-90 68.255 56.755)"><tspan font-weight="bold">Allocations </tspan><tspan> / log</tspan><tspan dy="3" font-size="8">2</tspan><tspan dy="-3">(Size)</tspan></text><text fill="#000" stroke="none" stroke-linecap="round" stroke-linejoin="round" stroke-width="0" color="#000" font-family="KaTeX_Main" font-size="10" text-anchor="middle" transform="translate(199.99 238.25)"><tspan>Operations × 10</tspan><tspan dy="-5" font-size="8">5</tspan></text><text fill="#000" stroke="none" stroke-linecap="round" stroke-linejoin="round" color="#000" font-family="KaTeX_Main" font-size="8" transform="translate(116 10.11)"><tspan>AVLBottomUp</tspan></text><g fill="none" stroke="currentColor" stroke-linecap="round" stroke-linejoin="round" color="#000"><path stroke="#000" d="M80.5 7.51h29.9M28 80.69l.37.28.38.34.37.4.38.45.37.49.37.53.38.58.37.6.38.65.37.69.37.73.38.77.37.81.37.87.38.91.37.96.38 1.01.37 1.06.37 1.09.38 1.11.37 1.13.38 1.14.37 1.12.37 1.1.38 1.05.37 1 .38.92.37.84.37.73.38.62.37.51.37.38.38.26.37.14.38.01.37-.09.37-.2.38-.3.37-.37.38-.44.37-.5.37-.54.38-.57.37-.57.38-.59.37-.57.37-.57.38-.54.37-.51.38-.49.37-.45.37-.42.38-.38.37-.36.37-.33.38-.31.37-.28.38-.26.37-.24.37-.22.38-.21.37-.19.38-.17.37-.17.37-.14.38-.13.37-.12.38-.1.37-.08.37-.07.38-.06.37-.05.37-.03.38-.03.37-.03.38-.02.37-.02.37-.02.38-.03.37-.04.38-.04.37-.06.37-.06.38-.08.37-.08.38-.09.37-.1.37-.09.38-.09.37-.07.38-.06.37-.04.37-.01.38.03.37.08.37.12.38.17.37.24.38.3.37.36.37.42.38.5.37.56.38.63.37.69.37.74.38.81.37.85.38.89.37.93.37.96.38.99.37 1 .37 1.02.38 1.02.37 1.03.38 1.02.37 1.02.37 1.01.38.99.37.98.38.96.37.94.37.92.38.9.37.88.38.87.37.84.37.82.38.8.37.79.38.76.37.75.37.72.38.71.37.69.37.66.38.65.37.63.38.6.37.58.37.55.38.52.37.49.38.46.37.43.37.38.38.35.37.3.38.25.37.2.37.15.38.1.37.04.37-.02.38-.08.37-.13.38-.2.37-.25.37-.31.38-.36.37-.42.38-.46.37-.5.37-.54.38-.57.37-.6.38-.63.37-.63.37-.65.38-.64.37-.65.38-.64.37-.63.37-.61.38-.59.37-.57.37-.55.38-.53.37-.49.38-.48.37-.45.37-.43.38-.4.37-.39.38-.36.37-.36.37-.33.38-.33.37-.32.38-.31.37-.31.37-.3.38-.29.37-.29.37-.29.38-.28.37-.28.38-.28.37-.26.37-.26.38-.24.37-.23.38-.22.37-.21.37-.19.38-.17.37-.16.38-.14.37-.12.37-.11.38-.08.37-.08.38-.05.37-.05.37-.04.38-.02.37-.02.37-.02.38-.02.37-.01.38-.02.37-.02.37-.03.38-.03.37-.04.38-.04.37-.06.37-.06.38-.07.37-.08.38-.08.37-.08.37-.08.38-.08.37-.08.37-.07.38-.06.37-.04.38-.03.37-.01.37.01.38.04.37.07.38.09.37.13.37.16.38.19.37.23.38.26.37.3.37.33.38.37.37.39.38.43.37.45.37.47.38.5.37.51.37.52.38.54.37.54.38.54.37.54.37.54.38.53.37.51.38.5.37.48.37.46.38.44.37.41.38.39.37.36.37.33.38.3.37.27.37.24.38.21.37.18.38.15.37.12.37.1.38.06.37.04.38.02.37-.01.37-.03.38-.05.37-.07.38-.09.37-.11.37-.12.38-.14.37-.15.38-.16.37-.17.37-.18.38-.19.37-.2.37-.2.38-.21.37-.21.38-.21.37-.22.37-.22.38-.22.37-.23.38-.22.37-.22.37-.23.38-.22.37-.23.38-.22.37-.22.37-.22.38-.22.37-.21.37-.21.38-.2.37-.2.38-.2.37-.19.37-.17.38-.18.37-.16.38-.16.37-.15.37-.13.38-.13.37-.12.38-.11.37-.09.37-.09.38-.08.37-.07.38-.07.37-.05.37-.05.38-.05.37-.04.37-.04.38-.04.37-.04.38-.04.37-.04.37-.05.38-.05.37-.05.38-.06.37-.07.37-.07.38-.07.37-.08.38-.09.37-.08.37-.08.38-.09.37-.08.37-.08.38-.07.37-.06.38-.05.37-.04.37-.02.38-.01.37.01.38.03.37.06.37.07.38.1.37.12.38.14.37.16.37.18.38.2.37.22.38.23.37.25.37.26.38.26.37.27.37.27.38.27.37.26.38.25.37.24.37.23.38.22.37.19.38.18.37.16.37.13.38.12.37.09.38.07.37.05.37.02.38.01h.37l.37-.03.38-.03.37-.05.38-.06.37-.07.37-.07.38-.07.37-.08.38-.07.37-.07.37-.07.38-.06.37-.05.38-.05.37-.03.37-.03.38-.02.37-.01.38.01.37.01.37.02.38.04.37.04.37.06.38.05.37.07.38.08.37.08.37.09.38.1.37.1.38.1.37.11.37.11.38.12.37.11.38.12.37.12.37.12.38.12.37.11.37.11.38.11.37.1.38.1.37.08.37.08.38.07.37.05.38.05.37.03.37.01h.38l.37-.02.38-.03.37-.05.37-.07.38-.09.37-.1.38-.12.37-.12.37-.14.38-.16.37-.16.37-.16.38-.17.37-.17.38-.16.37-.16.37-.15.38-.14.37-.13.38-.11.37-.09.37-.07.38-.05.37-.02h.38l.37.03.37.05.38.07.37.1.37.12.38.14.37.16.38.17.37.19.37.19.38.2.37.2.38.2.37.19.37.18.38.17.37.15.38.13.37.1.37.08.38.05.37.02.37-.02.38-.04.37-.08.38-.12.37-.14.37-.18.38-.21.37-.24.38-.27.37-.28.37-.31.38-.33.37-.34.38-.35.37-.36.37-.37.38-.36.37-.35.38-.35.37-.33.37-.32.38-.3.37-.28.37-.24.38-.22.37-.19.38-.16.37-.12.37-.08.38-.05.37-.02.38.02.37.06.37.09.38.11.37.15.38.18.37.2.37.22.38.24.37.24.37.26.38.27.37.26.38.26.37.26.37.24.38.23.37.21.38.18.37.16.37.14.38.1.37.07.38.04h.37l.37-.04.38-.07.37-.11.38-.14.37-.19.37-.21.38-.25.37-.27.37-.31.38-.32.37-.35.38-.37.37-.38.37-.4.38-.4.37-.4.38-.41.37-.41.37-.4.38-.39.37-.38.38-.37.37-.35.37-.34.38-.31.37-.3.37-.27.38-.25.37-.23.38-.2.37-.18.37-.16.38-.14.37-.12.38-.1.37-.08.37-.07.38-.05.37-.04.38-.03.37-.02.37-.01.38-.01h.37l.38.01h.37l.37.01.38.01.37.01.37.01.38.01.37.02.38.01.37.02.37.02.38.02.37.03.38.04.37.04.37.06.38.06.37.09.38.09.37.12.37.13.38.15.37.18.37.19.38.22.37.24.38.27.37.28.37.31.38.33.37.35.38.36.37.38.37.39.38.41.37.4.38.42.37.41.37.42.38.4.37.4.38.38.37.36.37.35.38.31.37.3.37.25.38.23.37.19.38.15.37.12.37.07.38.04.37-.01.38-.05.37-.09.37-.13.38-.16.37-.2.38-.23.37-.25.37-.28.38-.3.37-.32.37-.32.38-.33.37-.33.38-.33.37-.32.37-.31.38-.29.37-.27.38-.25.37-.22.37-.2.38-.17.37-.13.38-.11.37-.08.37-.05.38-.03.37-.01.38.01.37.03.37.04.38.04.37.06.37.05.38.05.37.04.38.03.37.02h.37l.38-.01.37-.03.38-.05.37-.06.37-.08.38-.1.37-.11.38-.13.37-.13.37-.15.38-.16.37-.16.37-.16.38-.17.37-.17.38-.18.37-.17.37-.17.38-.18.37-.17.38-.18.37-.19.37-.18.38-.2.37-.2.38-.21.37-.22.37-.24.38-.25.37-.26.38-.29.37-.3.37-.32.38-.35.37-.37.37-.39.38-.42.37-.45.38-.46.37-.5.37-.51.38-.54.37-.56.38-.58.37-.6.37-.6.38-.62.37-.62.38-.62.37-.62.37-.6.38-.59.37-.56.37-.53.38-.5.37-.46.38-.41.37-.36.37-.3.38-.24.37-.19.38-.12.37-.06.37.01.38.06.37.12.38.18.37.23.37.27.38.31.37.34.38.37.37.4.37.4.38.41.37.4.37.4.38.39.37.37.38.34.37.3.37.28.38.23.37.2.38.14.37.1.37.05.38-.01.37-.06.38-.11.37-.17.37-.22.38-.28.37-.33.37-.38.38-.44.37-.48.38-.54.37-.57.37-.61.38-.65.37-.67.38-.69.37-.71.37-.7.38-.7.37-.69.38-.66.37-.63.37-.58.38-.53.37-.48.38-.4.37-.33.37-.24.38-.16.37-.07.37.03.38.11.37.21.38.29.37.38.37.44.38.52.37.57.38.61.37.64.37.66.38.66.37.65.38.63.37.6.37.55.38.5.37.46.37.4.38.34.37.3.38.26.37.24.37.21.38.2.37.19.38.21.37.22.37.24.38.25.37.28.38.29.37.29.37.29.38.27.37.24.38.2.37.15.37.08.38.02.37-.07.37-.13.38-.21.37-.27.38-.32.37-.35.37-.36.38-.36.37-.32.38-.28.37-.2.37-.12.38-.01.37.1.38.21.37.33.37.43.38.54.37.61.37.67.38.7.37.7.38.66.37.59.37.49.38.35.37.19.38.01.37-.17.37-.35.38-.53.37-.69.38-.82.37-.94.37-1.04.38-1.12.37-1.18.38-1.23.37-1.27.37-1.27.38-1.25.37-1.15.37-1 .38-.75.37-.4.38.02.37.5.37 1 .38 1.47.37 1.84.38 2.07.37 2.13.37 2.02.38 1.77.37 1.44.38 1.13.37.88.37.67.38.52.37.31.37.05.38-.24.37-.47.38-.56.37-.52.37-.52.38-.73.37-1.08.38-.03.37 6.49"/><use xlink:href="#g" transform="matrix(3.75 0 0 3.75 342.45 99.25)"/><use xlink:href="#g" transform="matrix(3.75 0 0 3.75 95.45 7.51)"/></g><text fill="#000" stroke="none" stroke-linecap="round" stroke-linejoin="round" color="#000" font-family="KaTeX_Main" font-size="8" transform="translate(116 25.11)"><tspan>AVLTopDown</tspan></text><g fill="none" stroke="currentColor" stroke-linecap="round" stroke-linejoin="round" color="#000"><path stroke="#29C3F6" stroke-dasharray="1.0,2.0" d="M80.5 22.51h29.9M28 89.48l.37-.52.38-.51.37-.5.38-.47.37-.43.37-.41.38-.38.37-.36.38-.35.37-.36.37-.37.38-.4.37-.46.37-.5.38-.56.37-.64.38-.7.37-.76.37-.82.38-.87.37-.9.38-.91.37-.92.37-.9.38-.86.37-.81.38-.74.37-.66.37-.56.38-.46.37-.35.37-.23.38-.12h.37l.38.13.37.23.37.34.38.44.37.54.38.62.37.71.37.77.38.84.37.89.38.93.37.97.37 1 .38 1.02.37 1.02.38 1.04.37 1.03.37 1.02.38 1.02.37.99.37.98.38.96.37.93.38.9.37.87.37.84.38.8.37.77.38.73.37.69.37.64.38.59.37.54.38.48.37.42.37.35.38.28.37.2.37.12.38.04.37-.04.38-.11.37-.2.37-.26.38-.34.37-.39.38-.44.37-.48.37-.51.38-.52.37-.53.38-.51.37-.49.37-.45.38-.4.37-.34.38-.27.37-.19.37-.11.38-.02.37.07.37.17.38.26.37.35.38.44.37.52.37.6.38.66.37.73.38.78.37.82.37.85.38.87.37.89.38.89.37.88.37.87.38.84.37.8.37.78.38.72.37.68.38.62.37.57.37.5.38.45.37.39.38.33.37.27.37.21.38.15.37.1.38.05h.37l.37-.04.38-.09.37-.13.38-.17.37-.21.37-.23.38-.27.37-.29.37-.32.38-.33.37-.36.38-.36.37-.38.37-.38.38-.39.37-.38.38-.38.37-.36.37-.35.38-.32.37-.3.38-.28.37-.24.37-.2.38-.17.37-.13.37-.08.38-.04h.37l.38.05.37.08.37.13.38.16.37.2.38.23.37.25.37.28.38.3.37.31.38.32.37.32.37.32.38.32.37.32.38.3.37.29.37.28.38.25.37.25.37.22.38.21.37.2.38.17.37.17.37.15.38.14.37.14.38.12.37.13.37.12.38.11.37.12.38.13.37.12.37.13.38.13.37.13.37.13.38.13.37.14.38.13.37.13.37.12.38.11.37.1.38.1.37.08.37.06.38.05.37.03h.38l.37-.01.37-.04.38-.07.37-.08.38-.12.37-.14.37-.16.38-.19.37-.22.37-.24.38-.26.37-.29.38-.31.37-.33.37-.36.38-.37.37-.39.38-.41.37-.42.37-.44.38-.46.37-.46.38-.48.37-.48.37-.5.38-.49.37-.5.37-.51.38-.5.37-.5.38-.5.37-.5.37-.48.38-.47.37-.46.38-.45.37-.43.37-.42.38-.39.37-.37.38-.35.37-.33.37-.3.38-.28.37-.26.38-.24.37-.21.37-.19.38-.16.37-.15.37-.13.38-.12.37-.1.38-.1.37-.08.37-.08.38-.09.37-.08.38-.08.37-.1.37-.11.38-.12.37-.13.38-.16.37-.17.37-.2.38-.22.37-.25.37-.28.38-.3.37-.34.38-.36.37-.39.37-.41.38-.44.37-.47.38-.49.37-.51.37-.53.38-.55.37-.56.38-.57.37-.58.37-.58.38-.59.37-.58.38-.58.37-.57.37-.56.38-.55.37-.53.37-.51.38-.49.37-.47.38-.44.37-.41.37-.39.38-.35.37-.32.38-.3.37-.25.37-.23.38-.2.37-.17.38-.13.37-.11.37-.08.38-.05.37-.02h.37l.38.02.37.05.38.06.37.09.37.11.38.12.37.14.38.16.37.18.37.19.38.2.37.22.38.24.37.25.37.27.38.29.37.3.38.32.37.34.37.36.38.37.37.4.37.41.38.43.37.45.38.47.37.48.37.5.38.51.37.53.38.53.37.55.37.55.38.55.37.55.38.55.37.55.37.54.38.53.37.52.37.5.38.48.37.47.38.44.37.42.37.39.38.37.37.34.38.32.37.28.37.26.38.22.37.2.38.17.37.15.37.12.38.1.37.08.38.06.37.05.37.03.38.01.37.01h.37l.38-.01h.37l.38-.01.37-.01h.37l.38.01.37.02.38.02.37.04.37.05.38.06.37.08.38.09.37.11.37.12.38.14.37.15.37.17.38.17.37.19.38.2.37.21.37.21.38.22.37.21.38.22.37.22.37.22.38.21.37.2.38.2.37.18.37.17.38.16.37.14.38.12.37.11.37.09.38.07.37.04.37.03.38.01.37-.01.38-.03.37-.04.37-.07.38-.09.37-.09.38-.12.37-.13.37-.14.38-.15.37-.16.38-.16.37-.17.37-.17.38-.17.37-.16.37-.16.38-.15.37-.15.38-.13.37-.12.37-.1.38-.08.37-.07.38-.04.37-.03h.37l.38.02.37.05.38.07.37.1.37.11.38.14.37.17.38.18.37.21.37.23.38.25.37.27.37.28.38.3.37.31.38.33.37.35.37.35.38.37.37.37.38.39.37.4.37.4.38.42.37.42.38.43.37.45.37.45.38.46.37.47.37.48.38.5.37.5.38.51.37.53.37.54.38.55.37.55.38.58.37.57.37.59.38.6.37.6.38.6.37.61.37.61.38.6.37.6.37.6.38.58.37.57.38.56.37.53.37.52.38.49.37.46.38.43.37.41.37.37.38.33.37.31.38.26.37.23.37.19.38.15.37.12.38.08.37.05.37.01.38-.01.37-.05.37-.07.38-.09.37-.12.38-.13.37-.15.37-.17.38-.17.37-.19.38-.19.37-.2.37-.21.38-.21.37-.21.38-.21.37-.22.37-.21.38-.22.37-.22.37-.22.38-.23.37-.23.38-.24.37-.24.37-.25.38-.26.37-.27.38-.29.37-.29.37-.31.38-.33.37-.33.38-.36.37-.37.37-.38.38-.4.37-.4.38-.42.37-.43.37-.44.38-.44.37-.44.37-.45.38-.44.37-.43.38-.42.37-.41.37-.39.38-.37.37-.34.38-.32.37-.28.37-.25.38-.21.37-.17.38-.13.37-.09.37-.04h.38l.37.05.37.09.38.14.37.17.38.22.37.26.37.29.38.32.37.35.38.38.37.4.37.42.38.42.37.45.38.45.37.45.37.45.38.44.37.45.38.43.37.42.37.4.38.39.37.37.37.35.38.34.37.31.38.29.37.27.37.25.38.22.37.21.38.19.37.17.37.16.38.14.37.12.38.11.37.09.37.09.38.07.37.06.37.06.38.04.37.04.38.03.37.02.37.02.38.01.37-.01h.38l.37-.02.37-.03.38-.04.37-.05.38-.06.37-.07.37-.09.38-.1.37-.11.38-.12.37-.14.37-.15.38-.17.37-.17.37-.19.38-.2.37-.21.38-.21.37-.23.37-.22.38-.23.37-.23.38-.23.37-.23.37-.22.38-.22.37-.2.38-.19.37-.18.37-.16.38-.14.37-.12.37-.1.38-.07.37-.04.38-.01.37.02.37.05.38.09.37.11.38.15.37.18.37.21.38.24.37.26.38.29.37.31.37.32.38.33.37.35.38.34.37.34.37.33.38.32.37.31.37.28.38.26.37.22.38.2.37.16.37.12.38.08.37.05.38.01.37-.03.37-.07.38-.1.37-.14.38-.17.37-.19.37-.23.38-.25.37-.27.37-.29.38-.31.37-.32.38-.34.37-.36.37-.37.38-.38.37-.39.38-.4.37-.42.37-.43.38-.43.37-.45.38-.46.37-.46.37-.47.38-.47.37-.48.38-.47.37-.48.37-.47.38-.46.37-.45.37-.44.38-.42.37-.41.38-.39.37-.37.37-.35.38-.32.37-.3.38-.27.37-.25.37-.22.38-.2.37-.17.38-.15.37-.12.37-.11.38-.07.37-.06.37-.04.38-.02h.37l.38.02.37.03.37.04.38.05.37.06.38.07.37.07.37.08.38.08.37.09.38.08.37.09.37.09.38.09.37.09.38.08.37.09.37.09.38.09.37.08.37.08.38.08.37.06.38.06.37.05.37.03.38.02h.37l.38-.01.37-.04.37-.05.38-.07.37-.09.38-.09.37-.11.37-.11.38-.1.37-.1.37-.08.38-.05.37-.03.38.02.37.06.37.12.38.18.37.25.38.33.37.4.37.48.38.58.37.66.38.75.37.85.37.93.38 1.02.37 1.11.38 1.19.37 1.26.37 1.33.38 1.39.37 1.44.37 1.48.38 1.51.37 1.53.38 1.52.37 1.53.37 1.5.38 1.46.37 1.41.38 1.35.37 1.28.37 1.19.38 1.1.37 1 .38.89.37.77.37.65.38.54.37.4.37.28.38.14.37.01.38-.12.37-.25.37-.37.38-.51.37-.61.38-.73.37-.82.37-.92.38-.99.37-1.04.38-1.09.37-1.11.37-1.12.38-1.1.37-1.07.38-1.03.37-.98.37-.9.38-.84.37-.77.37-.7.38-.64.37-.57.38-.52.37-.48.37-.45.38-.42.37-.41.38-.4.37-.39.37-.4.38-.4.37-.4.38-.41.37-.4.37-.39.38-.37.37-.34.37-.29.38-.22.37-.13.38-.02.37.11.37.25.38.4.37.55.38.69.37.81.37.88.38.92.37.88.38.81.37.65.37.45.38.21.37-.06.38-.33.37-.58.37-.77.38-.91.37-.96.37-.94.38-.86.37-.74.38-.63.37-.56.37-.56.38-.67.37-.84.38-1.08.37-1.29.37-1.44.38-1.46.37-1.34.38-1.09.37-.8.37-.55.38-.35.37-.18.37.14.38.75.37 1.79.38 3.24.37 4.94.37 6.42.38 6.86.37 4.73.38-.79.37-.78"/><use xlink:href="#h" color="#29C3F6" transform="matrix(3.75 0 0 3.75 56.04 98.33)"/><use xlink:href="#h" color="#29C3F6" transform="matrix(3.75 0 0 3.75 95.45 22.51)"/></g><text fill="#000" stroke="none" stroke-linecap="round" stroke-linejoin="round" color="#000" font-family="KaTeX_Main" font-size="8" transform="translate(241.1 10.11)"><tspan>AVLWeakBottomUp</tspan></text><g fill="none" stroke="currentColor" stroke-linecap="round" stroke-linejoin="round" color="#000"><path stroke="#3B75EA" d="M205.6 7.51h29.9M28 80.5l.37-1.96.38-2.1.37-2.21.38-2.27.37-2.28.37-2.26.38-2.17.37-2.07.38-1.93.37-1.76.37-1.58.38-1.4.37-1.19.37-1.01.38-.82.37-.65.38-.49.37-.34.37-.22.38-.1h.37l.38.1.37.19.37.27.38.36.37.44.38.52.37.63.37.73.38.83.37.95.37 1.07.38 1.19.37 1.32.38 1.44.37 1.57.37 1.69.38 1.79.37 1.9.38 1.98.37 2.05.37 2.1.38 2.13.37 2.14.38 2.14.37 2.1.37 2.06.38 1.99.37 1.91.38 1.8.37 1.7.37 1.57.38 1.45.37 1.31.37 1.18.38 1.04.37.92.38.79.37.68.37.57.38.47.37.39.38.31.37.24.37.19.38.14.37.1.38.07.37.03.37.01.38-.02.37-.04.37-.06.38-.09.37-.11.38-.15.37-.17.37-.2.38-.23.37-.26.38-.3.37-.32.37-.35.38-.37.37-.39.38-.41.37-.42.37-.42.38-.42.37-.42.38-.41.37-.4.37-.38.38-.37.37-.34.37-.32.38-.31.37-.28.38-.28.37-.26.37-.25.38-.24.37-.25.38-.24.37-.26.37-.26.38-.28.37-.29.38-.31.37-.32.37-.35.38-.36.37-.38.37-.39.38-.4.37-.41.38-.41.37-.42.37-.42.38-.41.37-.41.38-.4.37-.38.37-.38.38-.36.37-.35.38-.34.37-.32.37-.31.38-.3.37-.3.38-.29.37-.28.37-.28.38-.27.37-.28.37-.27.38-.27.37-.27.38-.26.37-.26.37-.26.38-.24.37-.24.38-.23.37-.21.37-.19.38-.17.37-.15.38-.12.37-.1.37-.07.38-.03.37-.01.37.02.38.05.37.09.38.12.37.14.37.18.38.2.37.24.38.26.37.29.37.31.38.35.37.36.38.39.37.41.37.44.38.46.37.48.38.5.37.53.37.55.38.56.37.59.37.6.38.62.37.64.38.65.37.67.37.68.38.69.37.69.38.71.37.71.37.72.38.72.37.73.38.72.37.73.37.73.38.73.37.73.37.72.38.73.37.72.38.73.37.72.37.72.38.72.37.72.38.72.37.72.37.71.38.71.37.7.38.69.37.69.37.67.38.67.37.64.38.64.37.61.37.59.38.57.37.54.37.51.38.48.37.45.38.41.37.36.37.33.38.28.37.23.38.19.37.13.37.08.38.03.37-.02.38-.08.37-.14.37-.19.38-.25.37-.3.37-.35.38-.4.37-.45.38-.5.37-.54.37-.58.38-.63.37-.65.38-.69.37-.72.37-.74.38-.76.37-.78.38-.8.37-.8.37-.81.38-.81.37-.81.38-.81.37-.8.37-.79.38-.78.37-.77.37-.75.38-.73.37-.71.38-.69.37-.66.37-.64.38-.61.37-.59.38-.55.37-.52.37-.49.38-.45.37-.42.38-.39.37-.35.37-.31.38-.27.37-.24.37-.19.38-.16.37-.12.38-.08.37-.04h.37l.38.03.37.07.38.11.37.14.37.17.38.2.37.23.38.26.37.29.37.3.38.33.37.33.38.36.37.36.37.37.38.38.37.37.37.37.38.36.37.36.38.34.37.33.37.31.38.29.37.27.38.24.37.21.37.19.38.16.37.13.38.1.37.07.37.04.38.01.37-.02.37-.04.38-.07.37-.09.38-.1.37-.13.37-.14.38-.15.37-.16.38-.17.37-.17.37-.17.38-.16.37-.16.38-.15.37-.14.37-.12.38-.11.37-.09.38-.07.37-.05.37-.02h.38l.37.02.37.04.38.07.37.09.38.11.37.13.37.15.38.17.37.19.38.2.37.2.37.22.38.23.37.23.38.22.37.23.37.23.38.22.37.21.37.2.38.19.37.17.38.15.37.14.37.11.38.09.37.07.38.05.37.01h.37l.38-.03.37-.06.38-.08.37-.11.37-.13.38-.15.37-.18.38-.19.37-.22.37-.23.38-.24.37-.26.37-.27.38-.27.37-.29.38-.28.37-.29.37-.28.38-.29.37-.27.38-.28.37-.26.37-.25.38-.24.37-.22.38-.2.37-.2.37-.17.38-.15.37-.14.37-.11.38-.09.37-.07.38-.05.37-.02.37-.01.38.02.37.04.38.06.37.09.37.1.38.12.37.15.38.16.37.19.37.21.38.22.37.24.38.26.37.28.37.3.38.31.37.33.37.34.38.36.37.37.38.38.37.4.37.4.38.41.37.42.38.43.37.42.37.43.38.43.37.42.38.42.37.41.37.4.38.39.37.37.37.37.38.34.37.33.38.3.37.29.37.27.38.24.37.22.38.2.37.19.37.16.38.14.37.13.38.12.37.1.37.1.38.09.37.09.38.08.37.09.37.1.38.1.37.11.37.13.38.15.37.16.38.19.37.21.37.24.38.25.37.29.38.31.37.33.37.36.38.38.37.4.38.42.37.44.37.45.38.46.37.47.37.48.38.47.37.48.38.47.37.46.37.45.38.43.37.41.38.39.37.37.37.35.38.31.37.28.38.25.37.23.37.18.38.15.37.13.37.08.38.06.37.02h.38l.37-.04.37-.05.38-.09.37-.1.38-.13.37-.14.37-.15.38-.18.37-.17.38-.19.37-.19.37-.2.38-.19.37-.2.38-.19.37-.19.37-.19.38-.18.37-.17.37-.16.38-.16.37-.15.38-.15.37-.13.37-.13.38-.13.37-.13.38-.12.37-.12.37-.12.38-.12.37-.13.38-.13.37-.14.37-.14.38-.16.37-.16.37-.19.38-.19.37-.21.38-.24.37-.24.37-.27.38-.3.37-.31.38-.34.37-.37.37-.39.38-.42.37-.45.38-.48.37-.51.37-.55.38-.58.37-.61.38-.66.37-.69.37-.72.38-.77.37-.81.37-.85.38-.89.37-.93.38-.97.37-1.01.37-1.05.38-1.09.37-1.13.38-1.16.37-1.2.37-1.23.38-1.26.37-1.29.38-1.31.37-1.33.37-1.35.38-1.36.37-1.37.37-1.37.38-1.38.37-1.37.38-1.37.37-1.36.37-1.34.38-1.32.37-1.29.38-1.27.37-1.23.37-1.2.38-1.15.37-1.11.38-1.06.37-1.01.37-.95.38-.89.37-.83.38-.77.37-.7.37-.63.38-.57.37-.49.37-.42.38-.34.37-.27.38-.2.37-.13.37-.06.38.02.37.08.38.14.37.2.37.27.38.32.37.37.38.41.37.46.37.5.38.53.37.56.37.59.38.6.37.62.38.64.37.64.37.65.38.65.37.64.38.65.37.64.37.63.38.63.37.61.38.61.37.59.37.59.38.58.37.56.38.56.37.56.37.55.38.54.37.54.37.53.38.54.37.52.38.53.37.53.37.52.38.52.37.52.38.52.37.51.37.5.38.49.37.49.38.47.37.46.37.44.38.42.37.4.37.37.38.35.37.32.38.3.37.25.37.23.38.19.37.16.38.12.37.09.37.05.38.01.37-.02.38-.05.37-.09.37-.11.38-.15.37-.17.38-.19.37-.21.37-.24.38-.24.37-.26.37-.27.38-.27.37-.28.38-.27.37-.28.37-.26.38-.26.37-.25.38-.24.37-.23.37-.2.38-.2.37-.17.38-.16.37-.14.37-.12.38-.1.37-.08.37-.07.38-.06.37-.04.38-.02.37-.02.37-.01h1.87l.38-.01.37-.02.38-.03.37-.04.37-.06.38-.07.37-.08.38-.1.37-.11.37-.12.38-.13.37-.13.37-.14.38-.14.37-.13.38-.11.37-.1.37-.07.38-.04h.37l.38.03.37.09.37.14.38.19.37.26.38.31.37.38.37.43.38.49.37.55.37.59.38.64.37.67.38.7.37.72.37.72.38.72.37.71.38.68.37.66.37.61.38.57.37.52.38.45.37.4.37.34.38.27.37.22.38.16.37.11.37.06.38.03h.37l.37-.03.38-.03.37-.04.38-.04.37-.02.37.01.38.03.37.07.38.11.37.15.37.2.38.24.37.29.38.32.37.37.37.39.38.42.37.43.37.44.38.44.37.43.38.4.37.38.37.34.38.3.37.24.38.19.37.12.37.06.38-.01.37-.08.38-.14.37-.2.37-.26.38-.31.37-.35.38-.38.37-.4.37-.43.38-.42.37-.42.37-.4.38-.39.37-.35.38-.32.37-.28.37-.23.38-.18.37-.14.38-.08.37-.02.37.03.38.09.37.15.38.22.37.29.37.36.38.44.37.52.37.6.38.69.37.78.38.87.37.95.37 1.02.38 1.08.37 1.13.38 1.16.37 1.17.37 1.16.38 1.12.37 1.06.38.98.37.87.37.75.38.62.37.47.38.32.37.18.37.04.38-.08.37-.19.37-.27.38-.33.37-.36.38-.35.37-.31.37-.26.38-.16.37-.04.38.09.37.25.37.4.38.56.37.72.38.85.37.96.37 1.05.38 1.09.37 1.09.37 1.04.38.95.37.81.38.62.37.4.37.15.38-.12.37-.39.38-.64.37-.86.37-1.05.38-1.19.37-1.26.38-1.28.37-1.24.37-1.12.38-.97.37-.77.38-.53.37-.26.37.02.38.32.37.6.37.88.38 1.12.37 1.31.38 1.45.37 1.5.37 1.46.38 1.31.37 1.08.38.76.37.41.37.1.38-.11.37-.16.38-.04.37.23.37.54.38.74.37.66.37.29.38-.33.37-.9.38-1.09.37-.75.37-.14.38-.13.37-1.92.38-5.92.37-12.1"/><use xlink:href="#d" color="#3B75EA" transform="matrix(3.75 0 0 3.75 113.62 119.58)"/><use xlink:href="#d" color="#3B75EA" transform="matrix(3.75 0 0 3.75 220.55 7.51)"/></g><text fill="#000" stroke="none" stroke-linecap="round" stroke-linejoin="round" color="#000" font-family="KaTeX_Main" font-size="8" transform="translate(241.1 25.11)"><tspan>AVLWeakTopDown</tspan></text><g fill="none" stroke="currentColor" stroke-linecap="round" stroke-linejoin="round" color="#000"><path stroke="#00C853" stroke-dasharray="4.5,2.0,0.5,2.0,0.5,2.0" d="M205.6 22.51h29.9M28 143.62l.37-.48.38-.57.37-.62.38-.67.37-.69.37-.68.38-.65.37-.6.38-.53.37-.44.37-.34.38-.23.37-.11.37.02.38.14.37.28.38.4.37.53.37.65.38.76.37.86.38.96.37 1.04.37 1.11.38 1.16.37 1.19.38 1.21.37 1.21.37 1.19.38 1.14.37 1.09.37 1 .38.9.37.8.38.67.37.53.37.4.38.27.37.12h.38l.37-.13.37-.24.38-.33.37-.42.38-.48.37-.54.37-.57.38-.6.37-.61.38-.6.37-.6.37-.58.38-.57.37-.55.37-.53.38-.51.37-.5.38-.5.37-.5.37-.5.38-.52.37-.54.38-.57.37-.6.37-.64.38-.68.37-.74.38-.77.37-.83.37-.88.38-.93.37-.97.37-1.01.38-1.05.37-1.09.38-1.11.37-1.14.37-1.14.38-1.16.37-1.15.38-1.14.37-1.12.37-1.09.38-1.05.37-1 .38-.95.37-.89.37-.81.38-.74.37-.64.38-.55.37-.45.37-.34.38-.23.37-.12h.37l.38.12.37.24.38.36.37.47.37.58.38.69.37.79.38.88.37.96.37 1.03.38 1.1.37 1.14.38 1.18.37 1.2.37 1.21.38 1.21.37 1.2.37 1.18.38 1.15.37 1.1.38 1.06.37 1 .37.95.38.89.37.84.38.78.37.73.37.68.38.63.37.6.38.56.37.54.37.52.38.49.37.49.38.48.37.47.37.47.38.47.37.46.37.46.38.44.37.44.38.42.37.4.37.37.38.34.37.3.38.26.37.21.37.15.38.1.37.03.38-.02.37-.09.37-.16.38-.22.37-.28.37-.34.38-.39.37-.45.38-.48.37-.52.37-.56.38-.57.37-.59.38-.6.37-.6.37-.59.38-.57.37-.55.38-.51.37-.48.37-.44.38-.39.37-.34.38-.28.37-.23.37-.17.38-.11.37-.05.37.01.38.07.37.12.38.17.37.21.37.26.38.3.37.33.38.36.37.38.37.4.38.41.37.42.38.42.37.42.37.4.38.4.37.38.37.36.38.34.37.32.38.28.37.27.37.23.38.2.37.17.38.15.37.11.37.09.38.05.37.03.38.01.37-.03.37-.04.38-.08.37-.09.38-.12.37-.13.37-.16.38-.19.37-.2.37-.22.38-.24.37-.26.38-.28.37-.3.37-.31.38-.34.37-.36.38-.38.37-.39.37-.41.38-.44.37-.45.38-.47.37-.48.37-.51.38-.52.37-.53.37-.55.38-.56.37-.58.38-.58.37-.6.37-.59.38-.61.37-.6.38-.61.37-.6.37-.59.38-.58.37-.57.38-.56.37-.53.37-.51.38-.48.37-.46.38-.42.37-.38.37-.35.38-.3.37-.27.37-.22.38-.17.37-.13.38-.09.37-.04.37.01.38.05.37.09.38.13.37.17.37.2.38.24.37.27.38.29.37.32.37.34.38.36.37.37.37.38.38.39.37.4.38.4.37.41.37.41.38.4.37.41.38.4.37.4.37.39.38.39.37.38.38.37.37.36.37.36.38.35.37.33.38.32.37.31.37.29.38.28.37.25.37.23.38.21.37.19.38.16.37.13.37.1.38.08.37.04h.38l.37-.02.37-.05.38-.08.37-.11.38-.14.37-.16.37-.18.38-.2.37-.2.37-.22.38-.22.37-.22.38-.21.37-.2.37-.18.38-.16.37-.13.38-.09.37-.06.37-.02.38.03.37.07.38.13.37.18.37.24.38.29.37.35.38.41.37.46.37.51.38.56.37.61.37.65.38.69.37.73.38.75.37.78.37.79.38.81.37.82.38.81.37.81.37.8.38.78.37.76.38.73.37.71.37.66.38.63.37.59.37.55.38.5.37.46.38.4.37.36.37.32.38.26.37.22.38.17.37.13.37.08.38.04h.37l.38-.04.37-.07.37-.12.38-.15.37-.19.38-.22.37-.25.37-.28.38-.32.37-.35.37-.38.38-.41.37-.43.38-.47.37-.49.37-.52.38-.55.37-.57.38-.59.37-.62.37-.64.38-.66.37-.67.38-.69.37-.7.37-.7.38-.71.37-.72.37-.71.38-.7.37-.7.38-.69.37-.67.37-.64.38-.63.37-.61.38-.57.37-.54.37-.51.38-.48.37-.44.38-.39.37-.36.37-.32.38-.28.37-.25.38-.2.37-.16.37-.13.38-.09.37-.06.37-.03h.38l.37.03.38.05.37.08.37.09.38.12.37.13.38.15.37.16.37.17.38.19.37.2.38.21.37.22.37.23.38.26.37.26.37.29.38.3.37.32.38.35.37.37.37.4.38.42.37.45.38.48.37.51.37.54.38.56.37.6.38.62.37.64.37.67.38.69.37.7.38.71.37.72.37.72.38.72.37.71.37.69.38.68.37.66.38.63.37.6.37.56.38.52.37.48.38.44.37.39.37.34.38.3.37.25.38.2.37.16.37.11.38.08.37.04h.37l.38-.02.37-.06.38-.06.37-.1.37-.1.38-.1.37-.12.38-.11.37-.11.37-.1.38-.1.37-.08.38-.07.37-.05.37-.04.38-.02.37-.01.37.01.38.02.37.04.38.04.37.05.37.06.38.05.37.06.38.05.37.05.37.03.38.02h.37l.38-.02.37-.04.37-.07.38-.1.37-.13.38-.15.37-.19.37-.23.38-.26.37-.29.37-.32.38-.36.37-.39.38-.42.37-.45.37-.48.38-.51.37-.53.38-.55.37-.57.37-.58.38-.6.37-.62.38-.62.37-.64.37-.64.38-.64.37-.64.37-.65.38-.64.37-.65.38-.64.37-.63.37-.64.38-.62.37-.62.38-.61.37-.6.37-.59.38-.59.37-.57.38-.57.37-.55.37-.55.38-.53.37-.52.38-.5.37-.49.37-.48.38-.46.37-.44.37-.42.38-.41.37-.39.38-.37.37-.34.37-.33.38-.3.37-.28.38-.25.37-.23.37-.21.38-.18.37-.15.38-.13.37-.11.37-.08.38-.06.37-.04.37-.01.38.01.37.02.38.05.37.06.37.07.38.08.37.1.38.1.37.11.37.12.38.11.37.12.38.1.37.11.37.09.38.09.37.08.38.07.37.05.37.04.38.03.37.01.37.01.38-.01.37-.02.38-.02.37-.03.37-.03.38-.03.37-.02.38-.03.37-.01.37.01.38.01.37.03.38.05.37.08.37.09.38.12.37.14.37.16.38.18.37.2.38.22.37.23.37.24.38.25.37.25.38.26.37.25.37.24.38.22.37.21.38.2.37.16.37.14.38.12.37.08.38.05.37.02.37-.02.38-.04.37-.07.37-.1.38-.13.37-.15.38-.16.37-.18.37-.19.38-.19.37-.19.38-.19.37-.18.37-.16.38-.14.37-.12.38-.08.37-.06.37-.02.38.02.37.06.37.1.38.15.37.2.38.24.37.29.37.34.38.38.37.43.38.47.37.51.37.56.38.59.37.62.38.66.37.68.37.71.38.73.37.75.38.77.37.77.37.79.38.79.37.78.37.79.38.78.37.78.38.76.37.75.37.73.38.71.37.69.38.66.37.63.37.6.38.57.37.54.38.5.37.46.37.41.38.37.37.33.37.28.38.23.37.19.38.13.37.08.37.03.38-.02.37-.07.38-.11.37-.17.37-.21.38-.26.37-.3.38-.34.37-.38.37-.41.38-.45.37-.48.38-.51.37-.53.37-.55.38-.58.37-.59.37-.61.38-.63.37-.63.38-.64.37-.65.37-.66.38-.66.37-.65.38-.65.37-.65.37-.63.38-.63.37-.61.38-.58.37-.57.37-.54.38-.51.37-.47.37-.44.38-.4.37-.36.38-.32.37-.27.37-.22.38-.18.37-.13.38-.08.37-.04h.37l.38.04.37.08.38.11.37.13.37.16.38.18.37.19.38.2.37.22.37.22.38.22.37.23.37.24.38.25.37.26.38.29.37.31.37.36.38.4.37.47.38.53.37.61.37.71.38.8.37.91.38 1.03.37 1.14.37 1.26.38 1.37.37 1.48.37 1.58.38 1.67.37 1.73.38 1.78.37 1.81.37 1.81.38 1.8.37 1.76.38 1.68.37 1.6.37 1.49.38 1.36.37 1.21.38 1.06.37.88.37.72.38.54.37.38.38.2.37.05.37-.09.38-.23.37-.34.37-.45.38-.53.37-.6.38-.65.37-.69.37-.71.38-.72.37-.72.38-.69.37-.67.37-.64.38-.59.37-.55.38-.5.37-.46.37-.4.38-.35.37-.32.37-.27.38-.24.37-.2.38-.18.37-.15.37-.12.38-.09.37-.06.38-.01.37.02.37.09.38.15.37.23.38.3.37.39.37.47.38.55.37.63.38.69.37.74.37.76.38.77.37.74.37.71.38.64.37.55.38.47.37.36.37.26.38.16.37.07.38.01.37-.05.37-.09.38-.09.37-.08.38-.06.37-.01.37.04.38.1.37.18.37.25.38.34.37.41.38.48.37.53.37.58.38.59.37.58.38.53.37.44.37.32.38.18h.37l.38-.17.37-.34.37-.51.38-.64.37-.73.38-.8.37-.83.37-.81.38-.77.37-.69.37-.62.38-.53.37-.5.38-.52.37-.62.37-.84.38-1.19.37-1.65.38-2.16.37-2.66.37-3.05.38-3.19.37-3 .38-2.46.37-1.61.37-.57.38.41.37 1.11.37 1.33.38 1.06.37.42.38-.12.37.03.37 1.47.38 4.23.37 7.21.38 9.25.37 17"/><use xlink:href="#i" color="#00C853" transform="matrix(3.75 0 0 3.75 171.2 157.76)"/><use xlink:href="#i" color="#00C853" transform="matrix(3.75 0 0 3.75 220.55 22.51)"/></g><path fill="none" stroke="none" stroke-linecap="round" stroke-linejoin="round" stroke-width="0" d="M28 45.01V205M371.99 45.01H28" color="#000"/></svg>