<svg xmlns="http://www.w3.org/2000/svg" xmlns:xlink="http://www.w3.org/1999/xlink" viewBox="0 0 400 200"><path fill="none" d="M0 0h400v200H0z"/><defs><path id="g" stroke="currentColor" stroke-width=".222" d="M-1 0h2M0-1v2"/><path id="h" stroke="currentColor" stroke-width=".222" d="m-1-1 2 2m0-2-2 2"/><path id="i" stroke="currentColor" stroke-width=".222" d="M-1 0h2M0-1v2m-1-2 2 2m-2 0 2-2"/><path id="d" stroke="currentColor" stroke-width=".222" d="M-1-1h2v2h-2z"/><path id="b" stroke="currentColor" stroke-width=".222" d="m0-1.33-1.33 2h2.66z"/><path id="f" stroke="currentColor" stroke-width=".222" d="M0 1.33 1.265.411.782-1.067l-1.564-.009-.483 1.487z"/><use xlink:href="#b" id="c" stroke="currentColor" transform="rotate(180)"/><use xlink:href="#d" id="e" stroke="currentColor" transform="rotate(45)"/><circle id="a" cx="0" cy="0" r="1" stroke="currentColor" stroke-width=".222"/></defs><g fill="none" stroke="none" stroke-linecap="round" stroke-linejoin="round" stroke-width="0" color="#000"><path d="M63.06 182v-9m0-100.99v9"/><text fill="#000" font-family="Arial" font-size="8" text-anchor="middle" transform="translate(63.06 193.6)"><tspan> 1</tspan></text></g><g fill="none" stroke="none" stroke-linecap="round" stroke-linejoin="round" stroke-width="0" color="#000"><path d="M95.83 182v-9m0-100.99v9"/><text fill="#000" font-family="Arial" font-size="8" text-anchor="middle" transform="translate(95.83 193.6)"><tspan> 2</tspan></text></g><g fill="none" stroke="none" stroke-linecap="round" stroke-linejoin="round" stroke-width="0" color="#000"><path d="M128.61 182v-9m0-100.99v9"/><text fill="#000" font-family="Arial" font-size="8" text-anchor="middle" transform="translate(128.61 193.6)"><tspan> 3</tspan></text></g><g fill="none" stroke="none" stroke-linecap="round" stroke-linejoin="round" stroke-width="0" color="#000"><path d="M161.39 182v-9m0-100.99v9"/><text fill="#000" font-family="Arial" font-size="8" text-anchor="middle" transform="translate(161.39 193.6)"><tspan> 4</tspan></text></g><g fill="none" stroke="none" stroke-linecap="round" stroke-linejoin="round" stroke-width="0" color="#000"><path d="M194.16 182v-9m0-100.99v9"/><text fill="#000" font-family="Arial" font-size="8" text-anchor="middle" transform="translate(194.16 193.6)"><tspan> 5</tspan></text></g><g fill="none" stroke="none" stroke-linecap="round" stroke-linejoin="round" stroke-width="0" color="#000"><path d="M226.94 182v-9m0-100.99v9"/><text fill="#000" font-family="Arial" font-size="8" text-anchor="middle" transform="translate(226.94 193.6)"><tspan> 6</tspan></text></g><g fill="none" stroke="none" stroke-linecap="round" stroke-linejoin="round" stroke-width="0" color="#000"><path d="M259.71 182v-9m0-100.99v9"/><text fill="#000" font-family="Arial" font-size="8" text-anchor="middle" transform="translate(259.71 193.6)"><tspan> 7</tspan></text></g><g fill="none" stroke="none" stroke-linecap="round" stroke-linejoin="round" stroke-width="0" color="#000"><path d="M292.49 182v-9m0-100.99v9"/><text fill="#000" font-family="Arial" font-size="8" text-anchor="middle" transform="translate(292.49 193.6)"><tspan> 8</tspan></text></g><g fill="none" stroke="none" stroke-linecap="round" stroke-linejoin="round" stroke-width="0" color="#000"><path d="M325.26 182v-9m0-100.99v9"/><text fill="#000" font-family="Arial" font-size="8" text-anchor="middle" transform="translate(325.26 193.6)"><tspan> 9</tspan></text></g><g fill="none" stroke="none" stroke-linecap="round" stroke-linejoin="round" stroke-width="0" color="#000"><path d="M358.04 182v-9m0-100.99v9"/><text fill="#000" font-family="Arial" font-size="8" text-anchor="middle" transform="translate(358.04 193.6)"><tspan> 10</tspan></text></g><g fill="none" stroke="none" stroke-linecap="round" stroke-linejoin="round" stroke-width="0" color="#000"><path d="M358.04 182h-9"/><text fill="#000" font-family="Arial" font-size="8" transform="translate(366.43 184.6)"><tspan>0.10</tspan></text></g><g fill="none" stroke="none" stroke-linecap="round" stroke-linejoin="round" stroke-width="0" color="#000"><path d="M358.04 163.67h-9"/><text fill="#000" font-family="Arial" font-size="8" transform="translate(366.43 166.27)"><tspan>0.15</tspan></text></g><g fill="none" stroke="none" stroke-linecap="round" stroke-linejoin="round" stroke-width="0" color="#000"><path d="M358.04 145.34h-9"/><text fill="#000" font-family="Arial" font-size="8" transform="translate(366.43 147.94)"><tspan>0.20</tspan></text></g><g fill="none" stroke="none" stroke-linecap="round" stroke-linejoin="round" stroke-width="0" color="#000"><path d="M358.04 127.01h-9"/><text fill="#000" font-family="Arial" font-size="8" transform="translate(366.43 129.61)"><tspan>0.25</tspan></text></g><g fill="none" stroke="none" stroke-linecap="round" stroke-linejoin="round" stroke-width="0" color="#000"><path d="M358.04 108.67h-9"/><text fill="#000" font-family="Arial" font-size="8" transform="translate(366.43 111.27)"><tspan>0.30</tspan></text></g><g fill="none" stroke="none" stroke-linecap="round" stroke-linejoin="round" stroke-width="0" color="#000"><path d="M358.04 90.34h-9"/><text fill="#000" font-family="Arial" font-size="8" transform="translate(366.43 92.94)"><tspan>0.35</tspan></text></g><g fill="none" stroke="none" stroke-linecap="round" stroke-linejoin="round" stroke-width="0" color="#000"><path d="M358.04 72.01h-9"/><text fill="#000" font-family="Arial" font-size="8" transform="translate(366.43 74.61)"><tspan>0.40</tspan></text></g><path fill="none" stroke="none" stroke-linecap="round" stroke-linejoin="round" stroke-width="0" d="M33.56 72.01V182M358.04 72.01H33.56" color="#000"/><text fill="#000" stroke="none" stroke-linecap="round" stroke-linejoin="round" stroke-width="0" color="#000" font-family="Arial" font-size="8" text-anchor="middle" transform="rotate(-90 69.74 57.27)"><tspan font-weight="bold">Duration </tspan><tspan> in milliseconds</tspan></text><text fill="#000" stroke="none" stroke-linecap="round" stroke-linejoin="round" color="#000" font-family="Arial" font-size="8" transform="translate(111.8 30.11)"><tspan>AVLBottomUp</tspan></text><g fill="none" stroke="currentColor" stroke-linecap="round" stroke-linejoin="round" color="#000"><path stroke="#000" d="M74.8 27.51h31.4M33.56 163.88l.33-16.2.33 15.11.32-.15.33-.53.33-.19.33-.28.32-.44.33-.4.33-.35.33-5.87.33-5.76.32 10.99.33-.26.33-.33.33-.28h.32l.33-.22.33-.04.33-.28.33-6.19.32-.75.33 6.08.33-.12.33-.19.32-.06.33-.07.33-.13.33-.17.32-.08.33-11.82.33 5.39.33 5.38.33.03.32-.02.33-.26.33-.17.33-.03.32-.13.33-5.18.33-7.51.33 11.65.33.05.32-.12.33-.16.33.02.33-.27.32-.32.33-.06.33-6.36.33-5.79.33 11.34.32-.02.33-.04.33-.07.33.05.32-.34.33-.44.33-.3.33-12.12.33 5.44.32 5.83.33.1.33-.04.33-.03.32-.1.33-.46.33.12.33-.12.33-11.56.32 11.23.33-.26h.33l.33-.2.32.05.33-.11.33-.07.33-.08.33-5.94.32-6.71.33 12.07.33.06.33.06.32-.27.33.08.33-.26.33-.05.32-.13.33-12.7.33 6.09.33 5.63.33.3.32.18.33-.16.33-.09.33-.1.32.1.33-.08.33-11.68.33 5.4.33 5.84.32-.05.33-.22.33-.1.33-.18.32-.04.33.01.33-5.32.33-6.73.33 11.1.32.29.33.21.33-.12.33-.16.32.04.33.02.33-.14.33-6.34.33-.26.32 5.9.33.07.33.02.33-.33.32-.04.33-.05.33-.23.33.4.33-11.95.32 6.38.33 4.68.33.25.33-.04.32.01.33-.2.33.05.33.08.33-6.03.32-5.11.33 10.77.33-.14h.33l.32-.26.33.04.33-.14.33.04.32-.04.33-5.59.33-1.23.33 6.13.33.24.32.09.33-.27.33-.01.33-.18.32.15.33-.12.33-12.27.33 6.27.33 5.74.32-.16.33.26.33-.28.33-.05.32-.01.33-.02.33-5.53.33-5.15.33 10.31.32.04.33.05.33.01.33-.01.32-.02.33-.19.33-.17.33-5.07.33-5.52.32 10.49.33-.06.33-.07.33-.07.32.22.33-.03.33-.14.33-.17.33-10.88.32 5.06.33 5.86.33-.25.33.15.32-.61.33.2.33-2.41.33.88.32 1.19.33-11.39.33 11.25.33.05.33-.11.32.07.33.06.33-.19.33-.02.32.02.33-5.81.33-5.11.33 10.55.33.04.32-.04h.33l.33-.25.33.16.32-.02.33-.15.33-10.95.33 5.17.33 5.5.32.14.33-.05.33.08.33-.18.32-.2.33.23.33-.43.33-11.18.33 5.41.32 5.85.33-.23.33.21.33-.34.32.13.33.06.33-.13.33-5.63.33-5.33.32 10.69.33.14.33-.06.33-.08.32-.22.33.05.33-.06.33.14.33-5.2.32-.89.33 5.77.33.01.33.04.32-.02.33-.13.33-.09.33.07.32-.01.33-11.58.33 5.48.33 5.36.33.06.32-.08.33.07.33-.11.33.01.32-.03.33-5.46.33-6.01.33 10.99.33.32.32-.03.33-.13.33.19.33-.27.32-.02.33-.03.33-5.66.33-5.06.33 10.5.32-.03.33-.12.33.23.33-.14.32.06.33.01.33-.07.33-11.12.33 5.76.32 5.29.33-.16.33.14.33-.18.32.06.33-.24.33.05.33.07.33-11.2.32 10.89.33.09.33.09.33.02.32-.11.33-.03.33.16.33-.17.33-5.73.32-5.58.33 10.87.33.02.33.16.32.03.33-.04.33-.08.33.03.32-.09.33-10.97.33 5.45.33 5.24.33-.04.32-.15.33.23.33-.2.33.27.32-.53.33.42.33-11.12.33 10.8.33.25.32-.22.33.24.33-.16.33.12.32-.3.33.14.33-.17.33-16.81.33 16.39.32-.06.33-.17.33.34.33-.38.32.13.33.04.33-.08.33-5.76.33-5.82.32 11.11.33.16.33.11.33-.07.32-.01.33.01.33-.06.33.14.33-5.85.32-5.6.33 11.15.33-.06.33-.11.32.21.33-.03.33.07.33-.09.32.13.33-11.64.33 5.5.33 5.66.33-.08.32.08.33-.08.33-.07.33-.01.32-.11.33.12.33-11.95.33 11.65.33.22.32-.37.33-.04.33.11.33-.19.32.29.33.03.33-5.96.33-5.58.33 11.17.32-.04.33.01.33.05.33-.17.32.17.33.1.33-.21.33-11.65.33 5.67.32 5.73.33-.04.33.01.33.1.32-.02.33-.1.33.2.33.13.33-11.94.32 5.46.33 5.56.33-.29.33.34.32.04.33.06.33-.05.33-.05.33-5.94.32-6.42.33 11.29.33-.28.33.54.32-.09.33.07.33.08.33.14.32-.22.33-6.18h.33l.33 5.95.33-.28.32.08.33-.18.33.22.33-.19.32-.18.33.15.33-11.5.33 4.62.33 6.06.32-.08.33.06.33-.22.33.08.32-.02.33-.02.33-5.35.33-6.8.33 11.68.32.16.33.07.33-.02.33.33.32-.25.33.21.33.33.33-6.07.33-6.26.32 11.61.33-.29.33-.26.33-.07.32.08.33.02.33.56.33.04.33-11.89.32 5.62.33 5.97.33.11.33-.19.32.39.33-.18.33-.1.33.3.33.1.32-12.18.33 11.22.33.04.33.36.32-.02.33.08.33-.38.33.61.32.1.33-5.9.33-7.05.33 11.34.33.05.32.17.33.15.33.03.33-.32.32.29h.33l.33-12.04.33 6.3.33 5.31.32.31.33-.28.33.2.33-.08.32-.2.33.4.33-.28.33-10.93.33 10.89.32.05.33.09.33.06.33.23.32-1.31.33 1.15.33.13.33-5.7.33-6.44.32 11.1.33-.14.33-1.27.33-2.78.32-.44.33.14.33.97.33.23.33-15.56.32 5.07.33 8.74.33.33.33.59.32-.19.33 1.09.33.06.33-.01.32.58.33-12.19.33 5.6.33 5.78.33.47.32-.21.33.07.33.22.33-.07.32.25.33-5.71.33-5.97.33 10.95.33.26.32-.21.33.48.33-.17h.33l.32.17.33-.08.33-5.91.33-.61.33 5.71.32.39.33-.11.33.25.33-.13.32.17.33-.22.33.1.33-11.93.33 5.47.32 5.83.33-.12.33.26.33-.16.32-.14.33.04.33.39.33-6.11.33-6.52.32 11.8.33-.03.33-.05.33.04.32-.19.33.35.33-.01.33-.11.33-5.22.32-6.66.33 11.12.33.2.33-.28.32.2.33.18.33.04.33.06.32.05.33-12.09.33 5.31.33 5.54.33.2.32-.13h.33l.33-.05.33.19.32.09.33-.28.33-11.74.33 10.78.33.51.32.26.33-.21.33.01.33-.06.32.03.33.06.33-5.68.33-6.21.33 10.96.32.04.33-.13.33.09.33.07.32.17.33-.3.33.22.33-11.34.33 4.74.32 5.87.33-.12.33.19.33-.09.32-.08.33-.27.33-.11.33.17.33-12.27.32 5.9.33 5.34.33.09.33.68.32-.18.33-.15.33.65.33-.39.33-5.83.32-5.97.33 10.7.33.49.33.21.32-.35.33.01.33.22.33.11.32-.26.33-5.59.33-1.03.33 6.27.33.27.32.1.33.2.33-.19.33.17.32-.24.33.25.33-12.67.33 5.52.33 5.59.32.69.33-.41.33-.01.33.34.32-.51.33.21.33.05.33-17.95.33 16.73.32.45.33-.21.33-.17.33.17.32-.29.33.54.33-.17.33-.17.33-11.41.32 11.38.33.22.33-.22.33.21.32-.09.33.05.33.05.33-.01.33-6.13.32-6.36.33 11.95.33.04.33.19.32-.24.33.17.33-.51.33.86.32-.61.33-12.44.33 5.35.33 6.49.33-.08.32-.12.33.03.33-.15.33-.03.32-.07.33.11.33-12.13.33 6 .33 5.89.32.18.33-.12.33.06.33.25.32-.45.33.17.33-5.24.33-6.75.33 11.71.32-.22.33.6.33-.37.33.21.32.18.33-.38.33.47.33-6.64.33.11.32 6.09.33-.41.33.15.33.01.32.18.33.11.33-.17.33.32.33-12.53.32 6.22.33 5.28.33.35.33-.13.32-.02.33.09.33.06.33-.06.33-6.47.32-5.5.33 11.22.33.2.33-.04.32.23.33-.14.33-.21.33.15.32-.37.33-5.21.33-6.67.33 11.54.33.18.32.05.33-.04.33-.07.33-.07.32.09.33.22.33-12.24.33 5.18.33 5.86.32.69.33-.38.33.21.33.17.32-.13.33.14.33-.14.33-12.3.33 11.84.32-.18.33.24.33-.21.33-.03.32.32.33-.08.33.24.33-6.35.33-6.08.32 11.4.33.24.33.04.33-.05.32.09.33.28.33-.54.33.44.33-12.3.32 6.13.33 5.54.33.44.33-.39.32.38.33.12.33-.05.33-.09.33-.13.32-11.82.33 5.72.33 5.5.33.46.32.02.33-.37.33.1.33.1.32.32.33-6.4.33-5.69.33 11.26.33.28.32-.04.33.07.33-.09.33.17.32-.28.33.38.33-6.2.33-.69.33 5.91.32.3.33.15.33-.07.33.39.32-.34.33-.14.33.1.33-12.05.33 5 .32 6.18.33.35.33-.41.33.14.32.19.33-.42.33-.1.33-5.93.33-5.72.32 11.28.33.05.33.11.33.08.32.19.33-.57.33.53.33-.08.33-5.67.32-.62.33 6.18.33-.11.33-.13.32-.08.33.33.33.18.33-.11.32-.08.33-12.22.33 5.91.33 5.67.33.2.32.11.33.38.33-.56.33.36.32-.57.33-5.8.33-6.48.33 11.18.33.31.32-.14.33.15.33-.47.33-.12.32-.03.33.26.33-6.69.33-6 .33 11.57.32-.06.33-.06.33.14.33.89.32-.46.33-.13.33.17.33-11.43.33 4.89.32 5.83h.33l.33-.21.33.8.32-.37.33-.23.33.02.33.32.33-12.47.32 11.92.33-.06.33.14.33.02.32.14.33-.57.33.45.33.07.33-5.74.32-6.36.33 11.35.33.08.33.27.32.05.33-.46.33.34.33.16.32-.28.33-12.14.33 3.98.33 6.12h.33l.32-.1.33 1.27.33.52.33-.22.32.38.33.2.33-12.85.33 6.32.33 5.35.32.39.33-.06.33.2.33.17.32.52.33-1.01.33-5.45.33-6.03.33 11.25.32-.05.33.36.33.19.33.06.32-.56.33.15.33.25.33-5.92.33-.59.32 6.22.33.23.33-.17.33-.09.32.17.33-.07.33.14.33-.32.33-11.78.32 5.36.33 5.89.33.25.33-.04.32.02.33-.07.33-.13.33.6.33-6.16.32-6.22.33 11 .33.24.33.68.32.01.33-.03.33-.02.33.13.32-.23.33-6.18.33-5.35.33 11.45.33-.21.32-.08.33.19.33-.02.33.03.32-.16.33.09.33-11.88.33 5.67.33 5.77.32-.05.33.33.33.31.33-.11.32-.1.33-.18.33-.15"/><use xlink:href="#g" transform="matrix(4.5 0 0 4.5 355.09 89.38)"/><use xlink:href="#g" transform="matrix(4.5 0 0 4.5 90.5 27.51)"/></g><text fill="#000" stroke="none" stroke-linecap="round" stroke-linejoin="round" color="#000" font-family="Arial" font-size="8" transform="translate(111.8 45.11)"><tspan>AVLTopDown</tspan></text><g fill="none" stroke="currentColor" stroke-linecap="round" stroke-linejoin="round" color="#000"><path stroke="#29C3F6" stroke-dasharray="1.0,2.0" d="M74.8 42.51h31.4M33.56 162.59l.33-.35.33-11.45.32 10.29.33.12.33.05.33-.78.32-.58.33.07.33.02.33-.26.33-5.86.32-5.24.33 10.48.33-.23.33-.68.32-.02.33.48.33-.65.33.01.33.05.32-9.91.33 4.2.33 4.97.33-.23.32.01.33-.18.33-.07.33-.2.32-.16.33.09.33-11.21.33 4.8.33 5.88.32-.11.33.13.33-.35.33.25.32-.18.33-.83.33-.18.33-10.95.33 4.48.32 6.33.33.07.33-.18.33.27.32-.23.33-.37.33.33.33-.27.33-11.83.32 11.51.33.22.33-.22.33-.37.32-.92.33-.16.33.45.33-.03.33-5.74.32-6.46.33 11.35.33.43.33-.23.32.14.33-.19.33-.2.33.24.33-.09.32-11.8.33 5.6.33 5.72.33.25.32-.45.33.1.33-.06.33.09.33-.92.32.32.33-11.55.33 5.42.33 6.2.32-.52.33-.04.33-.06.33.09.32-.58.33-.73.33-5.04.33-6.29.33 12.13.32.16.33-.15.33-.07.33.01.32.24.33-.46.33.11.33-5.78.33-.88.32 6.12.33.14.33-.19.33-.14.32-.37.33.24.33.13.33.04.33-11.75.32 6.03.33 5.3.33.2.33-.33.32.26.33-.16.33.12.33-.53.33-5.41.32-5 .33 9.4.33-.19.33-.77.32.23.33.7.33.3.33-.33.33.35.32-5.42.33-1.01.33 5.35.33.77.32.06.33-.53.33.14.33.3.33-.11.32.13.33-12.31.33 6.04.33 5.71.32.11h.33l.33-.33.33-.71.32 1.18.33-.58.33-5.53.33-4.89.33 10.49.32.03.33.05.33.08.33-.09.32-.81.33.45.33.22.33-4.72.33-6.64.32 10.88.33-.1.33.14.33.11.32-.19.33.31.33-.98.33.76.33-11.32.32 4.79.33 6.3.33-.19.33-.02.32.18.33.23.33-.31.33.19.33-.35.32-10.63.33 10.73.33-.65.33.59h.32l.33-.21.33-.45.33-.73.33.11.32-5.69.33-4.79.33 10.21.33.06.32 1.03.33-.34.33.15.33.03.32-.14.33-.44.33-9.98.33 4.95.33 4.98.32.13.33-.11.33.1.33-.07.32-.19.33-.17.33.04.33-11.08.33 5.34.32 5.81.33-.81.33.66.33-.02.32-.3.33.01.33.4.33-5.84.33-4.51.32 9.87.33.21.33-.03.33-.55.32.55.33-.26.33.06.33-.02.33-4.82.32-.52.33 5.3.33-.52.33.62.32-.4.33-.75.33.8.33.1.33-.3.32-10.61.33 4.13.33 6.32.33.14.32-.26.33.25.33.16.33-.22.33.14.32-5.9.33-5.42.33 11.09.33.18.32-.34.33-1.06.33.09.33-.06.32-.03.33-.5.33-5.42.33-5.38.33 10.74.32 1.14.33.04.33.1.33-.31.32-.53.33.64.33-.02.33-10.94.33 5.48.32 5.28.33.23.33.16.33-1.36.32 1.07.33.19.33-.38.33.25.33-10.98.32 9.77.33 1.04.33-.29.33-.2.32.45.33-.03.33.25.33-.18.33-5.71.32-5.12.33 10.19.33-.03.33.28.32-.21.33.03.33.06.33-.18.33.04.32-10.2.33 4.82.33 5.54.33-.98.32-.37.33.92.33.42.33-.14.33-.18.32-.94.33-10.23.33 10.85.33.36.32-.11.33-.56.33.41.33-.04.32.22.33-.06.33-5.39.33-6.51.33 11.2.32.5.33-.16.33-.64.33-.76.32.76.33.34.33.11.33-11.12.33 5.82.32 4.73.33.21.33-.19.33.4.32-.3.33-.01.33.03.33.09.33-10.86.32 5.48.33 4.03.33 1.23.33-.08.32-.11.33.28.33-.9.33-.25.33-4.26.32-5.95.33 10.9.33.26.33-.19.32-.29.33.32.33.05.33-.24.33-.41.32-6.04.33.29.33 5.7.33-.01.32.35.33-.26.33.13.33.09.32-.02.33.02.33-11.03.33 4.62.33 5.88.32.31.33-.09.33-.21.33-.61.32.67.33.39.33-.33.33-12.25.33 5.95.32 5.4.33-.12.33.12.33-1.1.32.16.33.01.33.32.33-.29.33-10.99.32 4.87.33 5.62.33.09.33-.04.32.17h.33l.33.84.33.49.33-5.66.32-6.32.33 10.62.33.35.33.13.32-.13.33.45.33.07.33-.08.33.02.32-6.94.33.87.33 5.74.33-.1.32.43h.33l.33-.81.33.97.33-.11.32-.33.33-10.74.33 4.87.33 5.97.32-.1.33-.34.33.3.33-.5.32-.19.33.74.33-5.31.33-6.83.33 11.37.32-.3.33.11.33-.09.33.2.32-.06.33-.67.33-.89.33-4.23.33-6.55.32 11.39.33.26.33-.81.33.53.32.36.33-.13.33.2.33-.37.33-11.6.32 5.68.33 5.41.33.33.33.32.32.01.33.11.33.5.33-.08.33-.38.32-12.65.33 11.85.33.69.33-.06.32.48.33-.05.33-.43.33.34h.33l.32-5.26.33-7.5.33 11.33.33.1.32.44.33-.16.33-.02.33-.72.33 1.03.32.02.33-11.44.33 4.85.33 5.26.32-.33.33 1.23.33-.08.33.31h.32l.33-.26.33.23.33-11.29.33 11.19.32.17.33-.46.33-.73.33.86.32.26.33-.21.33.24.33-5.27.33-7.36.32 12.1.33.12.33.14.33-.03.32.11.33.19.33.12.33-.22.33-12.32.32 3.97.33 7.02.33.17.33.02.32-.04.33.36.33.08.33-.07.33.03.32-12.77.33 5.4.33 5.25.33.35.32-.3.33.51.33-.24.33-.16.33-.26.32-5.82.33-6.88.33 11.86.33.49.32.26.33.07.33-.16.33.79.32.89.33-.13.33-5.98.33-.96.33 6.15.32.08.33-.21.33-.3.33-.45.32.82.33.03.33-.03.33-11.96.33 4.93.32 6.55.33-.67.33.18.33-.09.32-.31.33-.17.33-.17.33-5.52.33-5.87.32 10.21.33-.39.33 1.65.33.12.32.05.33-.44.33-.2.33.12.33-5.19.32-6.75.33 11.58.33-.87.33-.76.32 1.31.33.31.33.23.33-.12.33-.93.32-11.56.33 5.08.33 5.9.33-.06.32-.02.33.02.33.48.33-.53.33.79.32-.1.33-12.03.33 10.95.33.42h.32l.33-.25.33-.94.33.02.32 1.28.33.25.33-5.9.33-6.27.33 11.16.32.32.33-.04.33.09.33.3.32-.71.33.43.33-.24.33-11 .33 5.1.32 5.54.33-.03.33.14.33-.01.32-.52.33-.25.33-.43.33-.52.33-11.05.32 5.46.33 6.84.33.11.33-.25.32.43.33-.26.33-.15.33.24.33-6.2.32-7.74.33 12.13.33 1.02.33-.09.32.13.33.27.33-.1.33-.22.33.24.32-5.38.33-1.85.33 6.28.33.24.32.22.33-.09.33.11.33-.13.33.2.32.06.33-12.1.33 5.2.33 5.37.32.53.33-.04.33.02.33.13.32-.27.33.22.33-5.42.33-6.56.33 10.4.32-.47.33.33.33.6.33.74.32.07.33-.06.33-.16.33-5.46.33.01.32 5.43h.33l.33.25.33-.65.32.22.33.25h.33l.33.33.33-12.28.32 5.5.33 5.95.33-.05.33-.24.32.17.33-.35.33.02.33.06.33-5.21.32-6.77.33 10.94.33-.11.33.54.32-.08.33-.85.33-.5.33 1.39.33-.3.32-5.21.33-5.92.33 10.99.33.11.32.18.33-.13.33-.9.33-.01.32-.55.33.16.33-9.5.33 4.38.33 5.74.32.31.33-.55.33.4.33.15.32-.17.33-.05.33-.19.33-11.46.33 11 .32.27.33.2.33.04.33-.17.32-.22.33.58.33-.39.33-1.02.33-12.13.32 5.32.33 7.46.33-.07.33.34.32-.04.33-.86.33.68.33.12.33-6.54.32-5.53.33 11.1.33.13.33-.07.32.4.33-.17.33-.04.33-.44.33.48.32-5.76.33-7.05.33 11.7.33-.3.32.47.33.18.33-.09.33.39.33-.27.32-.22.33-11.68.33 4.75.33 5.46.32-.64.33.32.33.9.33-.13.32-.14.33.53.33-.4.33-11.79.33 11.43.32-.04.33.21.33-.55.33.02.32.28.33-.05.33.1.33-5.59.33-6.73.32 10.53.33.46.33-.36.33.21.32-.3.33.35.33.06.33-.41.33-11.54.32 5.11.33 5.82.33.36.33-.22.32.39.33-.32.33.15.33.14.33-.68.32-11.53.33 5.53.33 5.8.33.36.32-.23.33.56.33-.1.33 1.4.33.11.32-5.75.33-6.37.33 11.57.33-.05.32.25.33-.01.33-1.52.33 1.22.33-.06.32-.27.33-5.42.33-1.19.33 6.51.32.15.33-.16.33.49h.33l.32.09.33-.03.33.23.33-11.7.33 3.91.32 6.02.33 1.07.33.09.33.27.32-.21.33-.11.33-.08.33-5.4.33-6.54.32 12.03.33-.65.33-.65.33 1.11.32.22.33-.09.33-.09.33-.57.33-5.92.32.18.33 6.12.33-.05.33.29.32-.2.33.26.33-.15.33.15.33-.05.32-12.15.33 5.21.33 6.41.33.21.32-.25.33-1.17.33-.16.33 1.14.33.08.32-5.16.33-7.15.33 10.93.33.44.32.24.33.24.33.16.33.06h.32l.33-.13.33-5.58.33-6.15.33 11.19.32-.12.33.82.33-.48.33.38.32-.87.33-.1.33-.35.33-11.05.33 5.44.32 6.21.33.19.33-.1.33.2.32.01.33-.01.33-.45.33-.07.33-12.75.32 11.42.33 1.35.33.08.33.2.32-.08.33-.06.33.07.33-.09.33-5.67.32-6.84.33 12.03.33.03.33.3.32-.15.33-.61.33.41.33.54.33.01.32-11.29.33 4.42.33 5.7.33.39.32.05.33-.42.33.66.33.19.33-.38.32.14.33-11.75.33 4.35.33 5.32.32.43.33.45.33.59.33.43.32-.48.33.11.33-5.57.33-6.41.33 10.94.32.67.33.13.33-.61.33.56.32.3.33-.07.33-.15.33-6 .33-.3.32 6.05.33-.02.33-.37.33.73.32-.47.33-.1.33.11.33.09.33-11.62.32 4.62.33 6.35.33.16.33.51.32-1.72.33.15.33 1.07.33.48.33-5.66.32-6.94.33 11.48.33.35.33.08.32.1.33-.83.33-.02.33-.49.33-.15.32-4.96.33-5.36.33 11.31.33.09.32-.21.33-.09.33-.12.33.46.33-.35.32-.3.33-11.78.33 5.14.33 6.12.32.66.33-.15.33-.35.33.07.32.25.33-.6.33-.88.33-11.38.33 10.78.32.93.33.29.33.16.33-.14.32-.04.33-.02.33.39.33-5.89.33-6.39.32 10.73.33-.29.33.39.33.56.32-.5.33.5.33-.3"/><use xlink:href="#h" color="#29C3F6" transform="matrix(4.5 0 0 4.5 84.69 146.4)"/><use xlink:href="#h" color="#29C3F6" transform="matrix(4.5 0 0 4.5 90.5 42.51)"/></g><text fill="#000" stroke="none" stroke-linecap="round" stroke-linejoin="round" color="#000" font-family="Arial" font-size="8" transform="translate(238.4 30.11)"><tspan>AVLWeakBottomUp</tspan></text><g fill="none" stroke="currentColor" stroke-linecap="round" stroke-linejoin="round" color="#000"><path stroke="#3B75EA" d="M201.4 27.51h31.4M33.56 163.87l.33-.46.33-11.52.32 10.5.33-.13.33-.28.33-.38.32-.48.33-.45.33-.17.33-.15.33-5.83.32-5.34.33 10.24.33-.37.33-.18.32-.08.33-.05.33-.02.33-.4.33-.37.32-10.2.33 4.18.33 5.53.33-.14.32-.13.33-.13.33-.03.33-.12.32-.23.33.01.33-11.33.33 4.38.33 5.81.32.07.33-.18.33-.11.33-.11.32-.13.33-.21.33-.19.33-11.89.33 3.99.32 6.87.33-.12.33.1.33-.26.32-.09.33-.01.33-.27.33-.01.33-11.84.32 11.2.33-.18.33.14.33-.14.32-.26.33-.33.33-.24.33-.18.33-5.41.32-7.32.33 12.25.33-.13.33.15.32-.22.33-.26.33.09.33-.08.33-.16.32-12.18.33 5.19.33 5.99.33.22.32-.3.33.19.33-.1.33-.18.33-.07.32-.05.33-11.73.33 5.28.33 6.04.32-.03.33-.04.33-.17.33-.14.32-.04.33-.04.33-5.47.33-7.11.33 11.68.32.35.33-.19.33-.07.33-.09.32.04.33-.21.33-.13.33-6.01.33-.22.32 6.05.33-.14.33.01.33-.16.32-.13.33-.22.33.1.33-.26.33-11.44.32 5.77.33 5.49.33-.14.33.06.32-.07.33-.09.33-.12.33-.01.33-5.59.32-5.44.33 10.51.33-.02.33-.17.32-.02.33-.08.33-.26.33.11.33-.26.32-5.22.33-1.55.33 6.19.33.24.32-.13.33.04.33.04.33.01.33-.24.32-.01.33-12.21.33 5.44.33 6.12.32-.03.33.33.33-.15.33-.01.32.07.33-.1.33-5.62.33-5.2.33 10.38.32.12.33-.13.33-.02.33-.08h.32l.33-.06.33-.32.33-4.4.33-7.14.32 11.11.33.5.33-.27.33.14.32-.23.33.14.33-.29.33.13.33-10.47.32 4.46.33 5.75.33.11.33-.13h.32l.33-.08.33-.22.33-.02.33-.01.32-11.12.33 10.91.33-.07.33.03.32.19.33-.19.33-.15.33-.02.33-.07.32-5.48.33-5.41.33 10.76.33-.13.32-.04.33-.19.33-.06.33-.08.32.04.33.1.33-10.44.33 4.55.33 5.46.32-.06.33.03.33.03.33-.04.32-.16.33-.1.33.05.33-11.3.33 5.53.32 5.29.33.19.33-.15.33.06.32-.07h.33l.33-.11.33-5.54.33-5.37.32 10.36.33.31.33-.21.33.05.32-.1.33.18.33-.05.33-.17.33-5.14.32-.49.33 5.42.33.03.33.03.32-.11.33-.03.33-.27.33.19.33-.36.32-10.7.33 5.12.33 5.57.33-.02.32-.19.33.24.33.08.33-.14.33-.14.32-5.6.33-6.11.33 11.52.33-.08.32.12.33-.19.33-.07.33.09.32-.25.33-.22.33-5.27.33-5.96.33 11.04.32-.01.33.13.33-.01.33-.19.32-.07.33-.02.33.08.33-10.88.33 5.09.32 5.54.33-.01.33.01.33-.09.32-.09.33-.06h.33l.33.06.33-10.87.32 10.49.33.01.33.24.33-.08.32-.01h.66l.33-.03.33-5.3.32-5.9.33 10.86.33.04.33.17.32-.33.33.06.33.08.33-.03.33-.18.32-10.42.33 4.75.33 5.73.33-.09.32-.04.33-.03.33-.05.33.03.33-.02.32-.21.33-10.56.33 10.42.33.12.32.03.33-.05.33.1.33-.06.32-.09.33.21.33-5.49.33-6.35.33 11.24.32.05.33-.02.33-.1.33.21.32-.19.33-.03.33.12.33-11.04.33 5.27.32 5.51.33-.05.33-.03.33.03.32-.26.33.18.33.05.33-.09.33-11.2.32 5.22.33 5.65.33.2.33-.06.32-.04.33.06.33-.25.33.39.33-5.42.32-5.79.33 10.45.33.14.33.2.32-.15.33.2.33-.43.33.25.33-.22.32-5.17.33-.72.33 5.63.33.11.32-.24.33.13.33.11.33.03.32-.23.33.08.33-10.81.33 4.93.33 5.68.32-.14.33-.06.33.22.33-.05.32-.09.33.04.33-.2.33-10.57.33 4.67.32 5.76h.33l.33-.09.33.01.32.05.33.03.33-.03.33.38.33-11.51.32 4.81.33 5.92.33-.09.33-.01.32.22.33.13.33-.3.33.27.33-5.92.32-6.29.33 11.14.33.1.33.16.32.12.33-.19.33.18.33-.06.33.07.32-5.7.33-.2.33 5.38.33-.02.32.11.33-.05.33.09.33-.16.33.16.32-.03.33-10.91.33 4.11.33 6.31.32-.08.33.13.33.08.33-.01.32-.03.33-.07.33-5.41.33-7.01.33 11.78.32.05.33.24.33-.28.33.07.32-.16.33-.11.33.06.33-5.6.33-6.59.32 11.34.33.19.33-.13.33.38.32-.24.33-.14.33.21.33.07.33-11.72.32 5.28.33 6.01h.33l.33-.33.32.22.33.02.33.15.33.08.33-.02.32-11.62.33 10.86.33.29.33.16.32.27.33-.42.33-.06.33.25.33-.02.32-5.84.33-6.37.33 11.16.33.26.32.25.33-.31.33.02.33.33.33.14.32-.06.33-11.54.33 5.33.33 5.64.32-.26.33.23.33-.33.33.52.32.13.33-.22.33.1.33-10.89.33 10.84.32.23.33-.12.33.14.33-.43.32.19.33.11.33.03.33-5.18.33-7.04.32 11.76.33-.2.33.21.33-.47.32.29.33.16.33-.26.33.19.33-11.79.32 4.08.33 6.01.33.09.33.07.32-.01.33.23.33.12.33-.05.33-.16.32-11.81.33 5.58.33 5.84.33-.1.32-.03.33.31.33-.25.33-.28.33-.42.32-5.44.33-5.71.33 10.49.33.26.32.17.33.21.33-.34.33.03.32.3.33-.07.33-5.74.33-.91.33 6.12.32-.32.33.34.33-.2.33.07.32.08.33-.04.33.06.33-11.42.33 4.59.32 6.06.33.27.33-.02.33.08.32-.11.33-.16.33.02.33-5.52.33-6.26.32 11.18.33-.19.33.21.33-.04.32-.22.33.02.33.16.33.04.33-5.6.32-6.86.33 11.14.33.5.33.1.32-.31.33.18.33.46.33-.36.33.04.32-11.44.33 4.2.33 6.03.33-.36.32.31.33.14.33.04.33-.18.33.51.32-.21.33-11.52.33 11.17.33-.19.32.23.33-.33.33.2.33-.26.32-.33.33.38.33-5.67.33-5.84.33 10.82.32.27.33-.16.33.07.33.1.32-.07.33-.29.33.24.33-11.24.33 4.88.32 5.77.33.04.33.22.33.11.32-.14.33.33.33-.29.33-.08.33-11.07.32 4.64.33 5.73.33.09.33.31.32-.06.33-.28.33.2.33.15.33-6 .32-6.64.33 11.27.33.25.33-.05.32.2.33-.31.33.12.33-.08.33-.28.32-5.3.33-1.06.33 5.88.33.17.32.16.33-.09.33.23.33-.3.33-.16.32.25.33-11.74.33 4.58.33 6.1.32.07.33.04.33.02.33.16.32-.34.33.03.33-5.74.33-6.29.33 11.5.32-.3.33.43.33-.17.33.09.32-.28.33-.06.33-.31.33-5.29.33-.7.32 6.41.33-.39.33-.28.33.24.32.05.33.16.33-.32.33.02.33-11.82.32 4.89.33 5.88.33-.15.33.39.32-.21.33.16.33-.32.33.12.33-5.56.32-6.15.33 10.59.33.61.33.07.32.21h.33l.33.18.33-.02.33-.16.32-5.92.33-5.64.33 10.66.33.56.32.24.33.15.33-.09.33.47.32-.58.33.33.33-10.63.33 4.07.33 6.48.32-.35.33.15.33-.07.33.27.32.11.33-.31.33.26.33-11.59.33 10.82.32.24.33-.11.33.24.33-.04.32.16.33.15.33-.2.33.08.33-12.09.32 5.58.33 5.96.33-.07.33-.09.32.09.33.06.33.37.33-.35.33-5.76.32-6.4.33 11.9.33-.27.33.22.32-.2.33.41.33-.03.33.38.33-.26.32-6.02.33-6.95.33 11.94.33.24.32.2.33-.33.33.51.33-.15.33-.19.32.08.33-11.52.33 4.54.33 6.23.32.43.33-.28.33-.17.33.23.32-.55.33.35.33.02.33-11.8.33 11.06.32.19.33.08.33.07.33-.1.32.13.33-.27.33-.06.33-5.11.33-6.77.32 11.6.33-.03.33.02.33.31.32-.42.33.1.33-.43.33.32.33-11.3.32 4.71.33 6.33.33.02.33-.08.32.33.33-.34.33.36.33-.16.33-.03.32-12.35.33 5.9.33 5.79.33-.02.32.12.33.04.33-.25.33.36.33-.09.32-5.71.33-6.43.33 11.68.33-.07.32.49.33.14.33-.12.33-.2.33.32.32-.39.33-5.5.33-.94.33 5.91.32.36.33-.27.33.47.33-.29.32-.26.33.46.33.21.33-12.14.33 4.84.32 6.15.33.37.33-.28.33.04.32-.16.33.35.33-.31.33-5.5.33-6.36.32 11.86.33-.51.33.25.33.2.32.16.33-.2.33-.47.33.52.33-5.47.32-.86.33 6.24.33-.46.33.09.32.44.33-.46h.33l.33.03.33.08.32-11.83.33 5.13.33 6.11.33.11.32-.09.33-.14.33-.16.33.34.33-.03.32-6.32.33-6.27.33 11.01.33.54.32-.04.33.38.33-.09.33.29.32.08.33-.46.33-6.13.33-6.01.33 11.48.32-.22.33.66.33-.51.33.08.32.26.33.25.33-.33.33-10.8.33 4.21.32 5.97.33.42.33-.41.33.13.32.07.33.18.33-.13.33.07.33-11.52.32 10.97.33-.04.33.33.33.34.32-.5.33-.3.33.46.33.07.33-5.65.32-6.79.33 11.72.33.05h.65l.33-.13.33.11.33-.03.33-.27.32-11.2.33 4.96.33 6.16.33-.05.32.07.33-.38.33.35.33.37.33-.41.32-.08.33-11.78.33 5.15.33 5.97.32.57.33-.32.33.29.33-.04.32.21.33-.21.33-5.27.33-6.6.33 10.73.32.67.33.06.33.33.33-.21.32-.17.33.07.33-.17.33-5.08.33-1.4.32 6.17.33.03.33.29.33.04.32.17.33-.51.33.49.33-.13.33-11.3.32 4.82.33 5.93.33.21.33.14.32-.31.33.46.33-.28.33.42.33-5.51.32-6.67.33 11.21.33.05.33.15.32.18.33-.32.33.11.33-.17.33.42.32-6.18.33-6.54.33 11.56.33.61.32-.37.33-.05.33.07.33.13.33-.27.32-.04.33-11.72.33 4.6.33 6.46.32.29.33.34.33-.44.33.05.32.19.33-.62.33.69.33-11.41.33 10.17.32.23.33.57.33.02.33.02.32.01.33-.28.33.35.33-6.11.33-6.52.32 11.16.33.28.33.39.33.36.32-.43.33.05.33-.11"/><use xlink:href="#d" color="#3B75EA" transform="matrix(4.5 0 0 4.5 138.77 134.21)"/><use xlink:href="#d" color="#3B75EA" transform="matrix(4.5 0 0 4.5 217.1 27.51)"/></g><text fill="#000" stroke="none" stroke-linecap="round" stroke-linejoin="round" color="#000" font-family="Arial" font-size="8" transform="translate(238.4 45.11)"><tspan>AVLWeakTopDown</tspan></text><g fill="none" stroke="currentColor" stroke-linecap="round" stroke-linejoin="round" color="#000"><path stroke="#00C853" stroke-dasharray="4.5,2.0,0.5,2.0,0.5,2.0" d="M201.4 42.51h31.4M33.56 155.69l.33-16.37.33 15.59.32-1.07.33.2.33-.28.33.07.32-.96.33-.54.33-.21.33-5.61.33-6.55.32 10.77.33.57.33.44.33-.77.32-.78.33.53.33-.37.33-.19.33-6.34.32.15.33 5.55.33.16.33-1.09.32.45.33-.23.33.27.33-1.41.32.9.33-11.2.33 5.11.33 4.98.33.03.32-.61.33.82.33-.13.33.22.32-.27.33-5.16.33-7.64.33 11.92.33-.32.32.12.33-.3.33-.35.33.37.32-.47.33-.69.33-6.14.33-5.68.33 12.24.32-.85.33-.29.33.71.33-.34.32-.09.33-1.38.33.76.33-12 .33 5.81.32 4.46.33 1.11.33-.26.33.79.32-1.31.33.19.33.54.33-.11.33-11.76.32 11.1.33-.53.33.72.33-1.23.32.65.33-.59.33.5.33-.81.33-4.91.32-6.4.33 11.97.33-1 .33 1 .32-1.09.33.94.33-1.33.33.38.32-.06.33-12.28.33 4.51.33 6.17.33.92.32-.32.33.21h.33l.33.61.32-.38.33-.34.33-12.14.33 6.86.33 4.95.32.02.33-.33.33.79.33-.51.32.15.33-1.24.33-4.31.33-6.33.33 10.69.32.35.33.13.33-.54.33.94.32-1.56.33.18.33.28.33-5.8.33-.77.32 6 .33-.17.33-.05.33-.65.32.37.33-1.05.33 1.35.33-.2.33-11.01.32 5.7.33 5.33.33-.92.33.46.32.12.33.65.33-.05.33-.2.33-6.11.32-4.75.33 9.97.33-.29.33.49.32.08.33-.31.33-.03.33 1.32.32-.43.33-6.34.33-.53.33 5.91.33.31.32.12.33-.52.33-.05.33-.03.32-.17.33-.36.33-11.75.33 5.57.33 6.05.32-.9.33.93.33-.27.33-.05.32-.37.33-.32.33-4.9.33-4.73.33 10.98.32.03.33-.17.33-.58.33-.67.32.16.33.01.33.33.33-5.52.33-5.33.32 10.77.33.15.33-.02.33-1.04.32 1.14.33-.14.33-.16.33-1.25.33-9.94.32 4.42.33 6.06.33-.76.33.12.32.28.33.55.33-3.23.33 2.17.32.26.33-12.12.33 11.74.33.38.33.28.32.2.33-.46.33-.57.33.48.32.27.33-6.6.33-4.66.33 9.56.33.48.32-.84.33.95.33.3.33.27.32-1.4.33.32.33-9.43.33 4.85.33 4.18.32.85.33.08.33.68.33-.92.32-.74.33.23.33.51.33-10.84.33 5.01.32 5.44.33.36.33-.18.33.03.32-.05.33-.06.33.98.33-7.1.33-4.15.32 10.21.33.6.33-2.57.33.85.32.02.33.95.33.13.33.66.33-6.11.32.16.33 3.82h.33l.33-.22.32 1.52.33-1.39.33.58.33-.03.32.43.33-12.9.33 5.52.33 5.57.33.59.32-.44.33.46.33.5.33-.06.32.04.33-5.27.33-6.2.33 11.11.33.27.32.33.33-.25.33-.23.33-.53.32-.25.33.22.33-5.39.33-4.95.33 9.5.32 1.57.33-.15.33.44.33-.7.32-.53.33.24.33.37.33-11.11.33 5.98.32 4.74.33-.41.33-.6.33-.01.32.86.33-.09.33-.49.33.58.33-11.74.32 10.82.33.46.33-.17.33-.15.32.83.33-.94.33 1.12.33-.65.33-5.85.32-5.56.33 10.79.33-.67.33.61.32-.35.33.25.33.7.33.44.32-.8.33-11.27.33 5.7.33 4.75.33.27.32.72.33-.56.33.08.33.12.32-.57.33.6.33-11.3.33 10.58.33.08.32.67.33-.41.33.42.33-.58.32-.75.33.69.33.56.33-17.68.33 16.02.32 1 .33.06.33-.18.33-.14.32-.3.33.34.33-.89.33-4.68.33-4.93.32 11.16.33-.89.33-.1.33.32.32.52.33-.05.33-.55.33.07.33-4.89.32-5.69.33 9.6.33.03.33.56.32 1.33.33-1.16.33.34.33-.12.32.08.33-11.62.33 5.3.33 5.89.33.96.32-1.23.33.57.33-.21.33.5.32-1.48.33-.12.33-11.71.33 12.98.33-.92.32.24.33.27.33.39.33-1.53.32.31.33-.14.33-4.47.33-6.76.33 11.08.32.46.33.67.33-.87.33-.82.32.07.33.8.33-1.21.33-10.72.33 6.58.32 6.13.33-.05.33-.39.33-.3.32 1.16.33.4.33-.87.33.06.33-12 .32 4.96.33 6.06.33-.7.33.32.32.29.33-.12.33-.11.33.55.33-5.55.32-6.14.33 9.82.33.68.33.58.32-1.15.33.59.33.27.33.24.32-.78.33-5.85.33.05.33 5.19.33-.07.32.15.33-.17.33.11.33-.1.32-.41.33.21.33-9.88.33 4.63.33 6.24.32-.12.33.84.33-.75.33-.78.32-.39.33 1.68.33-5.64.33-7.38.33 11.64.32.04.33-.76.33-.24.33.84.32.28.33 1.14.33-1.62.33-4.94.33-5.9.32 11.65.33-1.64.33.22.33-.31.32.48.33-.38.33 1.32.33-.03.33-12.16.32 6.13.33 4.48.33.21.33 1.19.32-1.23.33.87.33.19.33-.24.33-.79.32-10.7.33 10.03.33.59.33-.79.32 1.43.33-.56.33 1.06.33-.98.32-.06.33-7.26.33-4.37.33 11.6.33-.67.32.58.33.04.33-1.08.33.05.32-.43.33.14.33-13.24.33 6.46.33 7.15.32.23.33.23.33-1.04.33.22.32.27.33.19.33-2.25.33-8.49.33 10.28.32.55.33-1.77.33-.31.33.96.32.01.33-.49.33.59.33-5.37.33-6.08.32 9.61.33.2.33.27.33 1.08.32-1.3.33.02.33.46h.33l.33-16.82.32 6.65.33 6.21.33 1.37.33-1.05.32.92.33 1.86.33-.5.33-.29.32.39.33-12.94.33 7.3.33 6.03.33.07.32.24.33.13.33-.48.33.19.32.52.33-6.73.33-6.1.33 11.91.33.83.32.18.33-.85.33.12.33-.01.32.15.33.34.33-5.77.33-1.21.33 5.6.32.2.33-.46.33-.29.33-.01.32-.53.33.51.33.65.33-12.11.33 5.42.32 4.61.33.47.33-.48.33 1.5.32-.24.33-.73.33 1.12.33-6.57.33-5.73.32 10.75.33-.12.33-.13.33-.03.32-.44.33 1.63.33-.5.33-.62.33-5.56.32-5.85.33 10.75.33.34.33-.06.32-.24.33.11.33-.23.33.36.32-.14.33-12.22.33 4.69.33 5.26.33.85.32-.1.33.45.33-.16.33-.18.32-.64.33 1.06.33-12.27.33 11.28.33.91h.32l.33-.02.33-.2.33-.43.32.48.33-.3.33-5.18.33-4.24.33 10.47.32-.36.33.31.33.04.33-.19.32.15.33-.95.33-.18.33-11.11.33 4.41.32 5.63.33.38.33.76.33-.02.32-.51.33.58.33.24.33-.01.33-12.48.32 5.84.33 5.63.33-.38.33.42.32.63.33-1.05.33.26.33-.99.33-4.75.32-6.42.33 11.64.33-.07.33.61.32.08.33-.19.33.39.33.03.32.17.33-6.68.33-1.07.33 6.06.33-.38.32.41.33-.37.33-.5.33.76.32-.29.33 1.28.33-11.96.33 3.76.33 6.84.32-.9.33.24.33-.07.33-.39.32.69.33-.32.33-.18.33-17.41.33 16.07.32-.14.33.56.33.15.33.18.32-.6.33.36.33 1.19.33-.08.33-12.04.32 11.11.33-.32.33 1.01.33-.55.32.27.33-.47.33.24.33-.63.33-6.36.32-6.03.33 12.06.33-.5.33-.05.32.47.33-.1.33-.39.33.6.32-.97.33-9.71.33 5.07.33 4.69.33.9.32.16.33.44.33-1.42.33-.21.32 1.35.33.3.33-12.79.33 6.55.33 5.47.32.53.33-2.23.33 1.77.33-.42.32 1.1.33-.39.33-5.86.33-6.73.33 11.72.32-1.5.33-.22.33.11.33.69.32-1.03.33 1.01.33.94.33-6.03.33-.47.32 5.56.33-.08.33.86.33-.32.32-.43.33-.11.33-.06.33-.29.33-11.79.32 6.03.33 4.97.33.25.33.04.32 1.07.33 1.16.33-1.72.33-.46.33-5.98.32-5.06.33 11.42.33-.89.33 1.49.32-.75.33.83.33-1.67.33.07.32.32.33-5.46.33-7.38.33 13.39.33-.03.32-.74.33.05.33-.24.33 1.03.32.18.33-1.55.33-10.58.33 4.13.33 5.49.32-.46.33-.16.33.19.33.7.32-.39.33.62.33-.02.33-10.83.33 10.8.32-1.71.33.74.33 2.1.33-.84.32-.36.33.33.33 1.1.33-6.61.33-6.46.32 10.49.33.71.33-.44.33-.73.32.63.33.14.33.19.33-.23.33-12.25.32 7.22.33 6.01.33.19.33-.24.32.58.33-.6.33-.33.33-.28.33.13.32-12.01.33 5.66.33 5.4.33.19.32.06.33.54.33-.61.33-.97.32 1.57.33-6.37.33-6.11.33 11.2.33.29.32-.93.33 1.09.33-.2.33-.15.32-.23.33.16.33-5 .33-1.15.33 5.63.32-.44.33.57.33.4.33.74.32-.54.33.43.33-.5.33-11.57.33 4.94.32 5.67.33.86.33.24.33-.86.32 1.59.33-1.12.33.68.33-6.64.33-5.89.32 11.34.33.46.33-.69.33.97.32-1 .33.68.33-.2.33.07.33-5.7.32.14.33 4.56.33.92.33.19.32-.33.33.28.33-.64.33.16.32.84.33-12.9.33 5.14.33 6.77.33.38.32-.34.33.49.33-.79.33.81.32-.5.33-6 .33-4.9.33 11.88.33-.63.32-.91.33.31.33 1.2.33.19.32-1.83.33 2.55.33-6.99.33-5.66.33 9.77.32.12.33-.28.33.73.33-.28.32.84.33-.35.33.03.33-10.95.33 5 .32 5.75.33.63.33-1.4.33 1.65.32-.61.33.52.33-1.06.33.88.33-12.82.32 11.44.33-.08.33.17.33.57.32.57.33-.82.33-.95.33-.32.33-3.39.32-6.76.33 10.48.33-.33.33.93.32.22.33-1.63.33-.08.33.51.32-.18.33-12.33.33 4.62.33 6.63.33-1.25.32.39.33-1.07.33 1.91.33 1.45.32.03.33-.78.33-11.51.33 4.83.33 5.52.32.03.33 1.69.33.05.33-.02.32 1.01.33-.28.33-6.08.33-5.92.33 9.49.32.56.33 1.17.33-.59.33.26.32.31.33.4.33-.73.33-5.1.33-1.24.32 5.7.33-.03.33-.35.33.76h.32l.33-.16.33-.28.33-.25.33-9.77.32 5.47.33 4.26.33 1.56.33-1.25.32.79.33-1.86.33.49.33-.3.33-5.12.32-7.15.33 13.42.33-1.42.33 1.19.32-.89.33.22.33-.04.33.17.32-.64.33-5.1.33-6.12.33 10.99.33-.13.32-.35.33-.04.33.08.33-.86.32.36.33.22.33-11.58.33 4.5.33 5.91.32.33.33 1.99.33-.03.33-.12.32-.28.33-.38.33-.07"/><use xlink:href="#i" color="#00C853" transform="matrix(4.5 0 0 4.5 192.85 108.42)"/><use xlink:href="#i" color="#00C853" transform="matrix(4.5 0 0 4.5 217.1 42.51)"/></g><path fill="none" stroke="none" stroke-linecap="round" stroke-linejoin="round" stroke-width="0" d="M33.56 72.01V182M358.04 72.01H33.56" color="#000"/><text fill="#000" stroke="none" stroke-linecap="round" stroke-linejoin="round" stroke-width="0" color="#000" font-family="Arial" font-size="8" text-anchor="middle" transform="translate(195.8 8.61)"><tspan font-weight="bold">Insert</tspan></text></svg>