<svg xmlns="http://www.w3.org/2000/svg" xmlns:xlink="http://www.w3.org/1999/xlink" viewBox="0 0 400 250"><path fill="none" d="M0 0h400v250H0z"/><defs><path id="g" stroke="currentColor" stroke-width=".267" d="M-1 0h2M0-1v2"/><path id="d" stroke="currentColor" stroke-width=".267" d="M-1-1h2v2h-2z"/><path id="b" stroke="currentColor" stroke-width=".267" d="m0-1.33-1.33 2h2.66z"/><path id="f" stroke="currentColor" stroke-width=".267" d="M0 1.33 1.265.411.782-1.067l-1.564-.009-.483 1.487z"/><use xlink:href="#b" id="c" stroke="currentColor" transform="rotate(180)"/><use xlink:href="#d" id="e" stroke="currentColor" transform="rotate(45)"/><circle id="a" cx="0" cy="0" r="1" stroke="currentColor" stroke-width=".267"/></defs><path fill="none" stroke="#333" stroke-linecap="round" stroke-linejoin="round" stroke-width=".1" d="M46.1 205V45.01" class="gridline" color="#000"/><g fill="none" stroke="none" stroke-linecap="round" stroke-linejoin="round" stroke-width="0" color="#000"><path d="M46.1 205v-7.5m0-152.49v7.5"/><text fill="#000" font-family="KaTeX_Main" font-size="8" text-anchor="middle" transform="translate(46.1 215.1)"><tspan> 1</tspan></text></g><path fill="none" stroke="#333" stroke-linecap="round" stroke-linejoin="round" stroke-width=".1" d="M82.31 205V45.01" class="gridline" color="#000"/><g fill="none" stroke="none" stroke-linecap="round" stroke-linejoin="round" stroke-width="0" color="#000"><path d="M82.31 205v-7.5m0-152.49v7.5"/><text fill="#000" font-family="KaTeX_Main" font-size="8" text-anchor="middle" transform="translate(82.31 215.1)"><tspan> 2</tspan></text></g><path fill="none" stroke="#333" stroke-linecap="round" stroke-linejoin="round" stroke-width=".1" d="M118.52 205V45.01" class="gridline" color="#000"/><g fill="none" stroke="none" stroke-linecap="round" stroke-linejoin="round" stroke-width="0" color="#000"><path d="M118.52 205v-7.5m0-152.49v7.5"/><text fill="#000" font-family="KaTeX_Main" font-size="8" text-anchor="middle" transform="translate(118.52 215.1)"><tspan> 3</tspan></text></g><path fill="none" stroke="#333" stroke-linecap="round" stroke-linejoin="round" stroke-width=".1" d="M154.73 205V45.01" class="gridline" color="#000"/><g fill="none" stroke="none" stroke-linecap="round" stroke-linejoin="round" stroke-width="0" color="#000"><path d="M154.73 205v-7.5m0-152.49v7.5"/><text fill="#000" font-family="KaTeX_Main" font-size="8" text-anchor="middle" transform="translate(154.73 215.1)"><tspan> 4</tspan></text></g><path fill="none" stroke="#333" stroke-linecap="round" stroke-linejoin="round" stroke-width=".1" d="M190.94 205V45.01" class="gridline" color="#000"/><g fill="none" stroke="none" stroke-linecap="round" stroke-linejoin="round" stroke-width="0" color="#000"><path d="M190.94 205v-7.5m0-152.49v7.5"/><text fill="#000" font-family="KaTeX_Main" font-size="8" text-anchor="middle" transform="translate(190.94 215.1)"><tspan> 5</tspan></text></g><path fill="none" stroke="#333" stroke-linecap="round" stroke-linejoin="round" stroke-width=".1" d="M227.15 205V45.01" class="gridline" color="#000"/><g fill="none" stroke="none" stroke-linecap="round" stroke-linejoin="round" stroke-width="0" color="#000"><path d="M227.15 205v-7.5m0-152.49v7.5"/><text fill="#000" font-family="KaTeX_Main" font-size="8" text-anchor="middle" transform="translate(227.15 215.1)"><tspan> 6</tspan></text></g><path fill="none" stroke="#333" stroke-linecap="round" stroke-linejoin="round" stroke-width=".1" d="M263.36 205V45.01" class="gridline" color="#000"/><g fill="none" stroke="none" stroke-linecap="round" stroke-linejoin="round" stroke-width="0" color="#000"><path d="M263.36 205v-7.5m0-152.49v7.5"/><text fill="#000" font-family="KaTeX_Main" font-size="8" text-anchor="middle" transform="translate(263.36 215.1)"><tspan> 7</tspan></text></g><path fill="none" stroke="#333" stroke-linecap="round" stroke-linejoin="round" stroke-width=".1" d="M299.57 205V45.01" class="gridline" color="#000"/><g fill="none" stroke="none" stroke-linecap="round" stroke-linejoin="round" stroke-width="0" color="#000"><path d="M299.57 205v-7.5m0-152.49v7.5"/><text fill="#000" font-family="KaTeX_Main" font-size="8" text-anchor="middle" transform="translate(299.57 215.1)"><tspan> 8</tspan></text></g><path fill="none" stroke="#333" stroke-linecap="round" stroke-linejoin="round" stroke-width=".1" d="M335.78 205V45.01" class="gridline" color="#000"/><g fill="none" stroke="none" stroke-linecap="round" stroke-linejoin="round" stroke-width="0" color="#000"><path d="M335.78 205v-7.5m0-152.49v7.5"/><text fill="#000" font-family="KaTeX_Main" font-size="8" text-anchor="middle" transform="translate(335.78 215.1)"><tspan> 9</tspan></text></g><path fill="none" stroke="#333" stroke-linecap="round" stroke-linejoin="round" stroke-width=".1" d="M371.99 205V45.01" class="gridline" color="#000"/><g fill="none" stroke="none" stroke-linecap="round" stroke-linejoin="round" stroke-width="0" color="#000"><path d="M371.99 205v-7.5m0-152.49v7.5"/><text fill="#000" font-family="KaTeX_Main" font-size="8" text-anchor="middle" transform="translate(371.99 215.1)"><tspan> 10</tspan></text></g><g fill="none" stroke="none" stroke-linecap="round" stroke-linejoin="round" stroke-width="0" color="#000"><path d="M371.99 205h-7.5"/><text fill="#000" font-family="KaTeX_Main" font-size="8" transform="translate(378.99 207.6)"><tspan>0.00</tspan></text></g><g fill="none" stroke="none" stroke-linecap="round" stroke-linejoin="round" stroke-width="0" color="#000"><path d="M371.99 178.33h-7.5"/><text fill="#000" font-family="KaTeX_Main" font-size="8" transform="translate(378.99 180.93)"><tspan>1.00</tspan></text></g><g fill="none" stroke="none" stroke-linecap="round" stroke-linejoin="round" stroke-width="0" color="#000"><path d="M371.99 151.67h-7.5"/><text fill="#000" font-family="KaTeX_Main" font-size="8" transform="translate(378.99 154.27)"><tspan>2.00</tspan></text></g><g fill="none" stroke="none" stroke-linecap="round" stroke-linejoin="round" stroke-width="0" color="#000"><path d="M371.99 125h-7.5"/><text fill="#000" font-family="KaTeX_Main" font-size="8" transform="translate(378.99 127.6)"><tspan>3.00</tspan></text></g><g fill="none" stroke="none" stroke-linecap="round" stroke-linejoin="round" stroke-width="0" color="#000"><path d="M371.99 98.34h-7.5"/><text fill="#000" font-family="KaTeX_Main" font-size="8" transform="translate(378.99 100.94)"><tspan>4.00</tspan></text></g><g fill="none" stroke="none" stroke-linecap="round" stroke-linejoin="round" stroke-width="0" color="#000"><path d="M371.99 71.67h-7.5"/><text fill="#000" font-family="KaTeX_Main" font-size="8" transform="translate(378.99 74.27)"><tspan>5.00</tspan></text></g><g fill="none" stroke="none" stroke-linecap="round" stroke-linejoin="round" stroke-width="0" color="#000"><path d="M371.99 45.01h-7.5"/><text fill="#000" font-family="KaTeX_Main" font-size="8" transform="translate(378.99 47.61)"><tspan>6.00</tspan></text></g><path fill="none" stroke="none" stroke-linecap="round" stroke-linejoin="round" stroke-width="0" d="M28 45.01V205M371.99 45.01H28" color="#000"/><text fill="#000" stroke="none" stroke-linecap="round" stroke-linejoin="round" stroke-width="0" color="#000" font-family="KaTeX_Main" font-size="10" text-anchor="middle" transform="rotate(-90 68.255 56.755)"><tspan font-weight="bold">Rotations</tspan><tspan> / Operation</tspan></text><text fill="#000" stroke="none" stroke-linecap="round" stroke-linejoin="round" stroke-width="0" color="#000" font-family="KaTeX_Main" font-size="10" text-anchor="middle" transform="translate(199.99 238.25)"><tspan>Operations × 10</tspan><tspan dy="-5" font-size="8">5</tspan></text><text fill="#000" stroke="none" stroke-linecap="round" stroke-linejoin="round" color="#000" font-family="KaTeX_Main" font-size="8" transform="translate(132.8 10.11)"><tspan>Splay</tspan></text><g fill="none" stroke="currentColor" stroke-linecap="round" stroke-linejoin="round" color="#000"><path stroke="violet" d="M97.3 7.51h29.9M28 74.39l.36-.19.36-.18.37-.18.36-.17.36-.17.36-.17.36-.16.37-.15.36-.15.36-.14.36-.13.37-.13.36-.11.36-.1.36-.1.36-.09.37-.07.36-.08.36-.07.36-.06.36-.07.37-.07.36-.07.36-.08.36-.08.36-.09.37-.1.36-.1.36-.11.36-.12.36-.13.37-.12.36-.13.36-.13.36-.13.37-.13.36-.13.36-.12.36-.12.36-.11.37-.11.36-.11.36-.1.36-.1.36-.1.37-.09.36-.1.36-.09.36-.09.36-.09.37-.08.36-.09.36-.08.36-.07.37-.08.36-.06.36-.07.36-.05.36-.06.37-.04.36-.05.36-.03.36-.04.36-.03.37-.03.36-.03.36-.02.36-.03.36-.03.37-.03.36-.03.36-.04.36-.04.37-.04.36-.05.36-.05.36-.05.36-.06.37-.05.36-.06.36-.06.36-.06.36-.05.37-.06.36-.05.36-.05.36-.05.36-.05.37-.04.36-.04.36-.03.36-.03.36-.03.37-.03.36-.03.36-.02.36-.02.37-.02.36-.02.36-.02.36-.03.36-.02.37-.02.36-.02.36-.03.36-.03.36-.03.37-.03.36-.03.36-.04.36-.04.36-.04.37-.04.36-.04.36-.04.36-.05.37-.04.36-.05.36-.04.36-.05.36-.04.37-.05.36-.04.36-.04.36-.04.36-.04.37-.04.36-.04.36-.04.36-.03.36-.04.37-.03.36-.03.36-.02.36-.03.36-.02.37-.02.36-.02.36-.02.36-.01.37-.01.36-.01.36-.01H81.59l.36.01.36.01.37.01.36.01.36.01.36.01.36.02.37.01.36.02.36.01.36.01.37.02.36.01.36.01.36.01.36.01.37.01h1.81l.36-.01.36-.01.36-.01.36-.01.37-.02.36-.02.36-.01.36-.02.36-.02.37-.02.36-.02.36-.03.36-.02.37-.02.36-.02.36-.01.36-.02.36-.02.37-.02.36-.01.36-.02.36-.01.36-.01.37-.02.36-.01.36-.01.36-.01.36-.01.37-.01.36-.01.36-.01.36-.02.37-.01.36-.01.36-.01.36-.02.36-.01.37-.02.36-.01.36-.02.36-.01.36-.02.37-.02.36-.02.36-.02.36-.02.36-.02.37-.03.36-.02.36-.03.36-.03.37-.03.36-.03.36-.03.36-.04.36-.04.37-.04.36-.04.36-.04.36-.05.36-.04.37-.05.36-.05.36-.05.36-.06.36-.05.37-.05.36-.06.36-.05.36-.05.36-.05.37-.05.36-.05.36-.04.36-.05.37-.03.36-.04.36-.04.36-.03.36-.02.37-.03.36-.02.36-.01.36-.01.36-.01.37-.01h1.08l.36.01.37.01.36.01.36.02.36.01.37.02.36.02.36.02.36.02.36.03.37.02.36.03.36.02.36.03.36.03.37.02.36.03.36.03.36.03.36.03.37.02.36.03.36.03.36.02.36.03.37.02.36.02.36.02.36.02.37.02.36.02.36.01.36.02.36.01.37.01h.36l.36.01h.72l.37-.01h.36l.36-.01.36-.01.36-.02.37-.01.36-.02.36-.03.36-.02.37-.03.36-.02.36-.03.36-.03.36-.03.37-.03.36-.04.36-.03.36-.03.36-.03.37-.03.36-.03.36-.03.36-.03.36-.02.37-.03.36-.02.36-.02.36-.02.36-.01.37-.02.36-.01.36-.01.36-.01h.37l.36-.01h.36l.36-.01H150.39l.36.01H151.84l.36.01h.36l.36.01h.73l.36.01h.36l.36.01H155.82l.36.01H158.72l.36-.01h.36l.36-.01.36-.01h.37l.36-.01.36-.01.36-.01.37-.02.36-.01.36-.02.36-.01.36-.02.37-.02.36-.02.36-.02.36-.03.36-.02.37-.02.36-.03.36-.02.36-.03.36-.03.37-.02.36-.03.36-.03.36-.02.36-.03.37-.03.36-.02.36-.03.36-.02.37-.03.36-.02.36-.02.36-.02.36-.02.37-.02.36-.02.36-.01.36-.02.36-.01.37-.01.36-.01h.36l.36-.01H176.46l.36.01h.36l.37.01.36.01.36.01.36.01.36.02.37.01.36.02.36.02.36.02.36.02.37.02.36.02.36.02.36.02.36.03.37.02.36.02.36.02.36.03.36.02.37.02.36.02.36.02.36.02.37.01.36.02.36.01.36.02.36.01.37.01h.36l.36.01h.36l.36.01h.37l.36-.01h.36l.36-.01h.36l.37-.01.36-.02.36-.01.36-.02.37-.01.36-.02.36-.03.36-.02.36-.02.37-.03.36-.02.36-.03.36-.03.36-.03.37-.02.36-.03.36-.03.36-.03.36-.03.37-.03.36-.03.36-.03.36-.03.37-.03.36-.02.36-.03.36-.03.36-.02.37-.02.36-.03.36-.02.36-.02.36-.02.37-.02.36-.02.36-.02.36-.02.36-.02.37-.01.36-.02.36-.02.36-.01.36-.01.37-.02.36-.01.36-.01.36-.01.37-.01.36-.01.36-.01.36-.01.36-.01h.37l.36-.01h.36l.36-.01h.36l.37-.01h2.53l.36.01H216.29l.36.01h.36l.37.01h.72l.36.01h.73l.36.01h1.81l.36.01H224.62l.36-.01H228.24l.36.01h.72l.37-.01H235.84l.36.01h.73l.36.01h.36l.36.01.37.01h.36l.36.01.36.01h.37l.36.01h.36l.36.01h.36l.37.01h1.81l.36-.01h.36l.36-.01.36-.01.37-.02.36-.01.36-.02.36-.02.37-.01.36-.03.36-.02.36-.02.36-.02.37-.03.36-.02.36-.03.36-.02.36-.02.37-.03.36-.02.36-.02.36-.02.36-.02.37-.02.36-.02.36-.01.36-.02.37-.01.36-.01.36-.01.36-.01h.36l.37-.01h.36l.36-.01H257.57l.36.01h.36l.36.01h.37l.36.01.36.01h.36l.36.01.37.02.36.01.36.01.36.02.37.01.36.02.36.02.36.02.36.02.37.02.36.03.36.02.36.03.36.03.37.02.36.03.36.03.36.03.36.03.37.03.36.03.36.03.36.03.37.03.36.03.36.03.36.02.36.03.37.02.36.03.36.02.36.01.36.02.37.02.36.01.36.01.36.01.36.01H276.4l.36-.01.36-.01.36-.01.37-.01.36-.01.36-.01.36-.02.36-.02.37-.01.36-.02.36-.02.36-.03.36-.02.37-.02.36-.03.36-.03.36-.03.36-.03.37-.03.36-.03.36-.03.36-.04.37-.04.36-.03.36-.04.36-.04.36-.04.37-.03.36-.04.36-.04.36-.04.36-.03.37-.04.36-.03.36-.03.36-.03.36-.03.37-.03.36-.02.36-.03.36-.02.36-.01.37-.02.36-.02.36-.01.36-.01.37-.01.36-.01.36-.01h.36l.36-.01.37-.01h.36l.36-.01h.72l.37-.01h.36l.36-.01H298.85l.36-.01H300.3l.36.01h.36l.36.01h.36l.37.01.36.01.36.01.36.01.36.01.37.01.36.01.36.02.36.01.36.02.37.01.36.01.36.02.36.01.37.02.36.02.36.01.36.02.36.01.37.02.36.02.36.01.36.02.36.02.37.02.36.02.36.01.36.02.36.02.37.01.36.02.36.01.36.01.36.01.37.01h1.08l.37-.01.36-.01.36-.01.36-.01.36-.02.37-.02.36-.02.36-.02.36-.02.36-.02.37-.01.36-.02.36-.02.36-.01.36-.01.37-.01.36-.01.36-.01h.36l.37-.01h.36l.36-.01h.36l.36-.01.37-.01.36-.02.36-.01.36-.03.36-.02.37-.03.36-.03.36-.04.36-.03.36-.04.37-.04.36-.04.36-.04.36-.03.36-.03.37-.03.36-.02.36-.01.36-.01h.37l.36.01.36.01.36.03.36.03.37.04.36.05.36.05.36.06.36.06.37.06.36.06.36.06.36.05.36.06.37.04.36.04.36.04.36.02.37.02.36.01.36.01h.36l.36-.01.37-.01.36-.01.36-.01.36-.02.36-.01.37-.02.36-.01.36-.02.36-.01H344.47l.36.02.36.01.37.03.36.02.36.04.36.04.37.05.36.05.36.06.36.06.36.06.37.07.36.06.36.05.36.05.36.04.37.03.36.02.36-.01.36-.01.36-.04.37-.05.36-.06.36-.08.36-.09.37-.09.36-.1.36-.09.36-.09.36-.08.37-.06.36-.05.36-.03.36-.01h.36l.37.01.36.02.36.03.36.01.36.01h.37l.36-.02.36-.03.36-.03.37-.05.36-.05.36-.04.36-.04.36-.03.37-.01h.36l.36.02.36.05.36.08.37.1.36.13.36.15.36.14.36.14.37.1.36.05.36-.02.36-.1.36-.16.37-.24.36-.29.36-.33.36-.31.37-.26.36-.12.36.06.36.27.36.44.37.45.36.26.36.82"/><use xlink:href="#d" color="violet" transform="matrix(3.75 0 0 3.75 353.89 61.7)"/><use xlink:href="#d" color="violet" transform="matrix(3.75 0 0 3.75 112.25 7.51)"/></g><text fill="#000" stroke="none" stroke-linecap="round" stroke-linejoin="round" color="#000" font-family="KaTeX_Main" font-size="8" transform="translate(132.8 25.11)"><tspan>AVLBottomUp</tspan></text><g fill="none" stroke="currentColor" stroke-linecap="round" stroke-linejoin="round" color="#000"><path stroke="#000" d="M97.3 22.51h29.9M28 184.01l.36.02.36.01.37.02.36.01.36.01.36.01.36.01h.73l.36-.01.36-.01.37-.01.36-.02.36-.02.36-.03.36-.02.37-.03.36-.03.36-.03.36-.03.36-.03.37-.03.36-.03.36-.03.36-.02.36-.02.37-.01.36-.02.36-.01h.36l.36-.01h.37l.36.01h.36l.36.01.37.01.36.01.36.01.36.02.36.01.37.02.36.01.36.02.36.02.36.01.37.02.36.01.36.02.36.02.36.01.37.01.36.02.36.01.36.01.37.01.36.01.36.01H49l.36.01h.73l.36.01H51.54l.36-.01h.72l.36-.01h.37l.36-.01h.36l.36-.01h.73l.36-.01H56.61l.36.01h.36l.36.01h.36l.37.01h.36l.36.01.36.01.36.01h.37l.36.01.36.01h.36l.36.01h.37l.36.01H65.66l.36-.01h.36l.36-.01h.37l.36-.01h.36l.36-.01.36-.01h.37l.36-.01.36-.01H70l.37-.01.36-.01h.36l.36-.01h.36l.37-.01h.36l.36-.01H73.99l.36-.01h5.07l.36-.01h.72l.37-.01h.36l.36-.01h.36l.36-.01h.37l.36-.01.36-.01h.36l.36-.01.37-.01.36-.01h.36l.36-.01.37-.01.36-.01.36-.01.36-.01h.36l.37-.01.36-.01h.36l.36-.01.36-.01h.37l.36-.01H92.81l.37.01h.36l.36.01h.36l.37.01.36.01.36.01h.36l.36.01.37.01.36.01.36.02.36.01.36.01.37.01.36.01.36.01.36.01.36.02.37.01.36.01.36.01.36.01.37.01.36.01.36.01h.36l.36.01.37.01.36.01h.36l.36.01h.73l.36.01h2.9l.36-.01h.72l.36-.01h.37l.36-.01h.72l.36-.01h.37l.36-.01h.72l.36-.01h.73l.36-.01h.72l.37-.01h.72l.36-.01h.37l.36-.01h.72l.36-.01h.37l.36-.01h.36l.36-.01h.36l.37-.01h.36l.36-.01.36-.01h.36l.37-.01.36-.01h.36l.36-.01.37-.01.36-.01h.36l.36-.01.36-.01.37-.01h.36l.36-.01.36-.01h.36l.37-.01.36-.01h.36l.36-.01h.36l.37-.01h.36l.36-.01H131.2l.36-.01H133.37l.36.01h.73l.36.01h.36l.36.01h.36l.37.01.36.01h.36l.36.01.36.01.37.01.36.01.36.01.36.01h.37l.36.01.36.01.36.01.36.01.37.01h.36l.36.01.36.01h.36l.37.01h.36l.36.01h.72l.37.01h2.53l.36-.01H149.3l.36-.01h.73l.36-.01h.72l.37-.01h1.08l.36-.01H154.37l.36-.01H156.54l.37-.01H160.16l.37-.01h2.17l.36.01H167.04l.37.01H170.3l.37.01h2.17l.36.01H175.01l.36.01H176.82l.36.01H178.27l.36.01H179.72l.36.01H185.15l.36-.01h.73l.36-.01h.72l.36-.01h.37l.36-.01h.72l.36-.01h.37l.36-.01h1.08l.37-.01H194.56l.37.01h1.08l.36.01h.37l.36.01h.36l.36.01h.36l.37.01h.36l.36.01.36.01h.37l.36.01.36.01h.36l.36.01.37.01h.36l.36.01h.36l.36.01.37.01h.36l.36.01h.36l.36.01h.73l.36.01h.72l.37.01h1.81l.36.01h5.43l.36.01H217.01l.37.01h1.08l.36.01H219.91l.36.01h4.35l.36-.01H226.07l.36-.01h.36l.36-.01h.73l.36-.01h.36l.36-.01h.36l.37-.01h.36l.36-.01h.73l.36-.01h.36l.36-.01h.73l.36-.01h1.08l.37-.01h1.08l.36-.01H237.65l.36-.01H239.83l.36-.01h3.26l.36-.01H245.26l.36.01H248.15l.37.01h1.44l.37.01h4.7l.37-.01h.72l.36-.01h.36l.37-.01h.36l.36-.01h.36l.36-.01h.37l.36-.01h.36l.36-.01h.36l.37-.01h.36l.36-.01H262.64l.36-.01H265.17l.36.01H266.98l.36.01H268.79l.37.01H272.78l.36-.01h1.08l.37-.01h1.08l.36-.01h.73l.36-.01h.73l.36-.01h.72l.36-.01h.73l.36-.01H282.19l.36-.01H285.09l.36.01H286.54l.36.01h.72l.36.01h.37l.36.01h.72l.36.01.37.01h.36l.36.01h.36l.36.01.37.01h.36l.36.01h.36l.37.01h.36l.36.01h.36l.36.01H297.76l.36-.01h.36l.37-.01.36-.01h.36l.36-.01.37-.01.36-.01.36-.02.36-.01.36-.01.37-.01.36-.01.36-.02.36-.01.36-.01.37-.01.36-.01.36-.01.36-.01.36-.01h.37l.36-.01h.72l.37-.01h.72l.36.01h.73l.36.01.36.01h.36l.36.01.37.01.36.01.36.01.36.01.36.01.37.01.36.01.36.01.36.01.36.01.37.01.36.01.36.01.36.01.37.01.36.01.36.01h.36l.36.01.37.01.36.01.36.01.36.01.36.01h.37l.36.01.36.01h.36l.36.01h.37l.36.01H326.37l.36-.01h2.17l.36-.01h.73l.36-.01h.72l.37-.01h.36l.36-.01h.36l.36-.01h.37l.36-.01h.36l.36-.01h.36l.37-.01h.36l.36-.01h.36l.36-.01h.37l.36-.01h.36l.36-.01h.37l.36-.01.36-.01h.36l.36-.01h.37l.36-.01.36-.01h.36l.36-.01h.73l.36-.01H344.11l.36.01h.36l.36.01h.37l.36.01.36.01.36.01h.37l.36.01h.36l.36.01h.73l.36.01h.36l.36-.01H351.35l.36-.01H352.8l.36.01h.73l.36.01.36.01.36.01.36.01.37.02.36.01.36.01.36.01H357.87l.36-.01.36-.02.36-.02.37-.02.36-.02.36-.02.36-.01.37-.01h.36l.36.02.36.02.36.03.37.04.36.05.36.06.36.05.36.06.37.04.36.03.36.01h.36l.36-.04.37-.05.36-.07.36-.09.36-.08.36-.08.37-.04.36-.02.36.02.36.04.37.05.36.03.36-.02.36-.07.36-.09.37-.03.36.1.36-.04"/><use xlink:href="#g" transform="matrix(3.75 0 0 3.75 67.83 184.01)"/><use xlink:href="#g" transform="matrix(3.75 0 0 3.75 112.25 22.51)"/></g><text fill="#000" stroke="none" stroke-linecap="round" stroke-linejoin="round" color="#000" font-family="KaTeX_Main" font-size="8" transform="translate(241.1 10.11)"><tspan>LBSTBottomUp</tspan></text><g fill="none" stroke="currentColor" stroke-linecap="round" stroke-linejoin="round" color="#000"><path stroke="#3B75EA" d="M205.6 7.51h29.9M28 185.42l.36.01h.36l.37.01.36.01.36.01.36.01.36.01.37.01.36.01H32.71l.36-.01.36-.01.36-.01.37-.02.36-.01.36-.02.36-.02.36-.02.37-.01.36-.02.36-.02.36-.01.36-.02.37-.01h.36l.36-.01H39.95l.36.01h.36l.37.01.36.01.36.01.36.01.36.02.37.01.36.01.36.01.36.01.36.01.37.01h.36l.36.01.36.01.36.01h.37l.36.01h.36l.36.01h.73l.36.01h.72l.37.01H52.98l.37-.01h.72l.36-.01h.73l.36-.01H56.97l.36-.01h.36l.36.01H59.5l.36.01h.37l.36.01.36.01h.36l.36.01.37.01.36.01.36.01.36.01.37.01h.36l.36.01.36.01.36.01.37.01.36.01h.36l.36.01h.36l.37.01H70l.37-.01h.36l.36-.01h.36l.36-.01h.37l.36-.01h.36l.36-.01h.36l.37-.01h.36l.36-.01H75.8l.36-.01h1.08l.37-.01H79.06l.36-.01h1.08l.37-.01h.36l.36-.01h.36l.36-.01h.37l.36-.01.36-.01h.36l.36-.01.37-.01.36-.01h.36l.36-.01.37-.01h.36l.36-.01.36-.01h.36l.37-.01h.72l.36-.01H91.73l.36.01h.72l.37.01h.36l.36.01h.36l.37.01h.36l.36.01h.36l.36.01h.37l.36.01h.36l.36.01h.36l.37.01h.36l.36.01h.72l.37.01h.72l.36.01H102.95l.37.01h1.81l.36-.01h1.81l.36-.01h.73l.36-.01h.72l.36-.01h.73l.36-.01H112.01l.36-.01h4.71l.36.01h1.81l.36.01H121.78l.36-.01H123.23l.36-.01h.37l.36-.01h.36l.36-.01h.36l.37-.01h.36l.36-.01.36-.01h.36l.37-.01h.36l.36-.01.36-.01h.36l.37-.01h.36l.36-.01h.72l.37-.01H135.18l.36.01h.73l.36.01h.36l.36.01h.73l.36.01h.36l.36.01h.73l.36.01H142.06l.36.01H143.51l.36-.01H145.68l.36-.01H147.13l.36-.01H148.58l.36-.01H150.03l.36-.01h4.34l.37.01h1.81l.36.01h1.81l.36.01H161.61l.37.01h9.05l.36.01H175.37l.36.01H177.55l.36.01h2.53l.36.01H181.89l.36-.01H184.06l.36-.01h.73l.36-.01h.73l.36-.01h.72l.36-.01h.73l.36-.01H192.75l.37.01h.72l.36.01h.36l.37.01h.36l.36.01h.36l.36.01.37.01h.36l.36.01h.36l.36.01h.37l.36.01.36.01h.36l.37.01h.72l.36.01h.36l.37.01h.72l.36.01H204.34l.36.01H206.51l.36.01h4.71l.36.01H214.12l.36.01H215.93l.36.01H217.38l.36.01h1.81l.36.01H221.36l.36-.01H223.17l.36-.01h.36l.37-.01h.36l.36-.01h.36l.36-.01h.37l.36-.01h.36l.36-.01h.36l.37-.01h.36l.36-.01h.36l.36-.01h4.35l.36.01h.73l.36.01h.36l.36.01h.73l.36.01h.72l.36.01H239.1l.36.01H247.07l.36-.01H251.41l.36-.01H253.22l.37-.01h.72l.36-.01h.36l.37-.01h.72l.36-.01h.36l.37-.01h.36l.36-.01h.36l.36-.01h.73l.36-.01H260.83l.36-.01H263.36l.36.01H264.81l.36.01H266.26l.36.01H268.07l.36.01H269.88l.36-.01H271.33l.36-.01h.36l.36-.01h.37l.36-.01.36-.01h.36l.36-.01.37-.01h.36l.36-.01.36-.01.36-.01h.37l.36-.01.36-.01h.36l.37-.01.36-.01h.36l.36-.01h.36l.37-.01h.36l.36-.01h.72l.37-.01H285.45l.36.01h.36l.37.01h.36l.36.01h.36l.36.01h.37l.36.01.36.01.36.01.36.01.37.01h.36l.36.01.36.01.36.01.37.01.36.01.36.01.36.01.37.01.36.01h.36l.36.01.36.01h.37l.36.01h.36l.36.01H298.48l.37-.01h.36l.36-.01h.36l.37-.01.36-.01.36-.01.36-.01h.36l.37-.01.36-.01.36-.01.36-.01.36-.01.37-.01.36-.01.36-.01h.36l.36-.01h.37l.36-.01H307.54l.36.01h.72l.37.01.36.01.36.01h.36l.36.01.37.01.36.01.36.01.36.01.36.01.37.01.36.01.36.01h.36l.36.01.37.01.36.01h.36l.36.01.37.01h.36l.36.01h.36l.36.01h.73l.36.01h.36l.36.01h.73l.36.01h.72l.37.01H322.75l.36.01h2.53l.36-.01H327.09l.36-.01h.36l.37-.01h.36l.36-.01h.36l.36-.01.37-.01.36-.01.36-.01h.36l.37-.01.36-.01.36-.01.36-.01.36-.01.37-.01h.36l.36-.01h.36l.36-.01h5.44l.36-.01h.36l.36-.01h.36l.37-.01h.36l.36-.01H344.11l.36.01h.36l.36.01.37.01.36.01h.36l.36.01.37.01.36.01h.36l.36.01H349.54l.36-.01H350.99l.36-.01H352.8l.36.01h.36l.37.01.36.01.36.01.36.01.36.01.37.01.36.01h1.08l.37-.01.36-.02.36-.02.36-.03.36-.02.37-.03.36-.02.36-.03.36-.01.37-.01h.72l.36.01.36.02.37.02.36.01.36.02.36.01H364.75l.36-.01.36-.02.36-.03.37-.03.36-.03.36-.03.36-.01.36-.01.37.02.36.03.36.05.36.05.37.06.36.04.36.01.36-.02.36-.04h.37l.36.1.36-.05"/><use xlink:href="#a" color="#3B75EA" transform="matrix(3.75 0 0 3.75 125.4 185.42)"/><use xlink:href="#a" color="#3B75EA" transform="matrix(3.75 0 0 3.75 220.55 7.51)"/></g><text fill="#000" stroke="none" stroke-linecap="round" stroke-linejoin="round" color="#000" font-family="KaTeX_Main" font-size="8" transform="translate(241.1 25.11)"><tspan>TreapTopDown</tspan></text><g fill="none" stroke="currentColor" stroke-linecap="round" stroke-linejoin="round" color="#000"><path stroke="#F44336" stroke-dasharray="4.5,2.0,0.5,2.0,0.5,2.0" d="M205.6 22.51h29.9M28 205H371.99"/><use xlink:href="#f" color="#F44336" transform="matrix(3.75 0 0 3.75 182.98 205)"/><use xlink:href="#f" color="#F44336" transform="matrix(3.75 0 0 3.75 220.55 22.51)"/></g><path fill="none" stroke="none" stroke-linecap="round" stroke-linejoin="round" stroke-width="0" d="M28 45.01V205M371.99 45.01H28" color="#000"/></svg>