<svg xmlns="http://www.w3.org/2000/svg" xmlns:xlink="http://www.w3.org/1999/xlink" viewBox="0 0 400 200"><path fill="none" d="M0 0h400v200H0z"/><defs><path id="c" stroke="currentColor" stroke-width=".222" d="M-1-1h2v2h-2z"/><path id="b" stroke="currentColor" stroke-width=".222" d="m0-1.33-1.33 2h2.66z"/><use xlink:href="#a" id="d" fill="currentColor" stroke="none"/><use xlink:href="#b" id="e" fill="currentColor" stroke="none"/><circle id="a" cx="0" cy="0" r="1" stroke="currentColor" stroke-width=".222"/></defs><path fill="none" stroke="#000" stroke-dasharray="0.1,0.2" stroke-linecap="round" stroke-linejoin="round" stroke-width=".1" d="M63.06 146V90.01" class="gridline" color="#000"/><g fill="none" stroke-linecap="round" stroke-linejoin="round" stroke-width="0" color="#000"><path d="M63.06 146v-9m0-46.99v9"/><text fill="#000" font-family="KaTeX_Main" font-size="8" text-anchor="middle" transform="translate(63.06 148.6)"><tspan> 1</tspan></text></g><path fill="none" stroke="#000" stroke-dasharray="0.1,0.2" stroke-linecap="round" stroke-linejoin="round" stroke-width=".1" d="M95.83 146V90.01" class="gridline" color="#000"/><g fill="none" stroke-linecap="round" stroke-linejoin="round" stroke-width="0" color="#000"><path d="M95.83 146v-9m0-46.99v9"/><text fill="#000" font-family="KaTeX_Main" font-size="8" text-anchor="middle" transform="translate(95.83 148.6)"><tspan> 2</tspan></text></g><path fill="none" stroke="#000" stroke-dasharray="0.1,0.2" stroke-linecap="round" stroke-linejoin="round" stroke-width=".1" d="M128.61 146V90.01" class="gridline" color="#000"/><g fill="none" stroke-linecap="round" stroke-linejoin="round" stroke-width="0" color="#000"><path d="M128.61 146v-9m0-46.99v9"/><text fill="#000" font-family="KaTeX_Main" font-size="8" text-anchor="middle" transform="translate(128.61 148.6)"><tspan> 3</tspan></text></g><path fill="none" stroke="#000" stroke-dasharray="0.1,0.2" stroke-linecap="round" stroke-linejoin="round" stroke-width=".1" d="M161.39 146V90.01" class="gridline" color="#000"/><g fill="none" stroke-linecap="round" stroke-linejoin="round" stroke-width="0" color="#000"><path d="M161.39 146v-9m0-46.99v9"/><text fill="#000" font-family="KaTeX_Main" font-size="8" text-anchor="middle" transform="translate(161.39 148.6)"><tspan> 4</tspan></text></g><path fill="none" stroke="#000" stroke-dasharray="0.1,0.2" stroke-linecap="round" stroke-linejoin="round" stroke-width=".1" d="M194.16 146V90.01" class="gridline" color="#000"/><g fill="none" stroke-linecap="round" stroke-linejoin="round" stroke-width="0" color="#000"><path d="M194.16 146v-9m0-46.99v9"/><text fill="#000" font-family="KaTeX_Main" font-size="8" text-anchor="middle" transform="translate(194.16 148.6)"><tspan> 5</tspan></text></g><path fill="none" stroke="#000" stroke-dasharray="0.1,0.2" stroke-linecap="round" stroke-linejoin="round" stroke-width=".1" d="M226.94 146V90.01" class="gridline" color="#000"/><g fill="none" stroke-linecap="round" stroke-linejoin="round" stroke-width="0" color="#000"><path d="M226.94 146v-9m0-46.99v9"/><text fill="#000" font-family="KaTeX_Main" font-size="8" text-anchor="middle" transform="translate(226.94 148.6)"><tspan> 6</tspan></text></g><path fill="none" stroke="#000" stroke-dasharray="0.1,0.2" stroke-linecap="round" stroke-linejoin="round" stroke-width=".1" d="M259.71 146V90.01" class="gridline" color="#000"/><g fill="none" stroke-linecap="round" stroke-linejoin="round" stroke-width="0" color="#000"><path d="M259.71 146v-9m0-46.99v9"/><text fill="#000" font-family="KaTeX_Main" font-size="8" text-anchor="middle" transform="translate(259.71 148.6)"><tspan> 7</tspan></text></g><path fill="none" stroke="#000" stroke-dasharray="0.1,0.2" stroke-linecap="round" stroke-linejoin="round" stroke-width=".1" d="M292.49 146V90.01" class="gridline" color="#000"/><g fill="none" stroke-linecap="round" stroke-linejoin="round" stroke-width="0" color="#000"><path d="M292.49 146v-9m0-46.99v9"/><text fill="#000" font-family="KaTeX_Main" font-size="8" text-anchor="middle" transform="translate(292.49 148.6)"><tspan> 8</tspan></text></g><path fill="none" stroke="#000" stroke-dasharray="0.1,0.2" stroke-linecap="round" stroke-linejoin="round" stroke-width=".1" d="M325.26 146V90.01" class="gridline" color="#000"/><g fill="none" stroke-linecap="round" stroke-linejoin="round" stroke-width="0" color="#000"><path d="M325.26 146v-9m0-46.99v9"/><text fill="#000" font-family="KaTeX_Main" font-size="8" text-anchor="middle" transform="translate(325.26 148.6)"><tspan> 9</tspan></text></g><path fill="none" stroke="#000" stroke-dasharray="0.1,0.2" stroke-linecap="round" stroke-linejoin="round" stroke-width=".1" d="M358.04 146V90.01" class="gridline" color="#000"/><g fill="none" stroke-linecap="round" stroke-linejoin="round" stroke-width="0" color="#000"><path d="M358.04 146v-9m0-46.99v9"/><text fill="#000" font-family="KaTeX_Main" font-size="8" text-anchor="middle" transform="translate(358.04 148.6)"><tspan> 10</tspan></text></g><g fill="none" stroke-linecap="round" stroke-linejoin="round" stroke-width="0" color="#000"><path d="M358.04 146h-9"/><text fill="#000" font-family="KaTeX_Main" font-size="8" transform="translate(366.43 148.6)"><tspan>1.10</tspan></text></g><g fill="none" stroke-linecap="round" stroke-linejoin="round" stroke-width="0" color="#000"><path d="M358.04 138h-9"/><text fill="#000" font-family="KaTeX_Main" font-size="8" transform="translate(366.43 140.6)"><tspan>1.15</tspan></text></g><g fill="none" stroke-linecap="round" stroke-linejoin="round" stroke-width="0" color="#000"><path d="M358.04 130h-9"/><text fill="#000" font-family="KaTeX_Main" font-size="8" transform="translate(366.43 132.6)"><tspan>1.20</tspan></text></g><g fill="none" stroke-linecap="round" stroke-linejoin="round" stroke-width="0" color="#000"><path d="M358.04 122h-9"/><text fill="#000" font-family="KaTeX_Main" font-size="8" transform="translate(366.43 124.6)"><tspan>1.25</tspan></text></g><g fill="none" stroke-linecap="round" stroke-linejoin="round" stroke-width="0" color="#000"><path d="M358.04 114.01h-9"/><text fill="#000" font-family="KaTeX_Main" font-size="8" transform="translate(366.43 116.61)"><tspan>1.30</tspan></text></g><g fill="none" stroke-linecap="round" stroke-linejoin="round" stroke-width="0" color="#000"><path d="M358.04 106.01h-9"/><text fill="#000" font-family="KaTeX_Main" font-size="8" transform="translate(366.43 108.61)"><tspan>1.35</tspan></text></g><g fill="none" stroke-linecap="round" stroke-linejoin="round" stroke-width="0" color="#000"><path d="M358.04 98.01h-9"/><text fill="#000" font-family="KaTeX_Main" font-size="8" transform="translate(366.43 100.61)"><tspan>1.40</tspan></text></g><g fill="none" stroke-linecap="round" stroke-linejoin="round" stroke-width="0" color="#000"><path d="M358.04 90.01h-9"/><text fill="#000" font-family="KaTeX_Main" font-size="8" transform="translate(366.43 92.61)"><tspan>1.45</tspan></text></g><path fill="none" d="M33.56 90.01V146m324.48-55.99H33.56" color="#000"/><text stroke-linecap="round" stroke-linejoin="round" stroke-width="0" color="#000" font-family="KaTeX_Main" font-size="8" text-anchor="middle" transform="rotate(-90 65.24 52.77)"><tspan font-weight="bold">Allocations </tspan><tspan> / log</tspan><tspan dy="2.4" font-size="6.4">2</tspan><tspan dy="-2.4">Size</tspan></text><text stroke-linecap="round" stroke-linejoin="round" stroke-width="0" color="#000" font-family="KaTeX_Main" font-size="8" text-anchor="middle" transform="translate(195.8 184.6)"><tspan>Operations × 10</tspan><tspan dy="-4" font-size="6.4">5</tspan></text><text stroke-linecap="round" stroke-linejoin="round" color="#000" font-family="Courier" font-size="12" transform="translate(95.12 35.16)"><tspan>LBSTBottomUp</tspan></text><g fill="none" stroke="currentColor" stroke-linecap="round" stroke-linejoin="round" color="#000"><path stroke="#3B75EA" d="M44.17 31.26h42.56m-53.17 97.71.33-1.83.33 7.11.32-.94.33-1.64.33-.19.33 1.56.32-3.78.33-.01.33.46.33.94.33.16.32.64.33 4.26.33-1.9.33.69.32-.49.33 1.29.33-2.18.33-.58.33.91.32-.35.33-1.16.33-1.93.33 2.05.32-.36.33-.9.33-1.55.33 2.45.32.24.33-1.67.33 2.6.33-.87.33-.66.32.89.33.23.33 1.59.33.31.32 1.75.33-.34.33-1 .33-1.4.33-.25.32-.38.33.56.33 2.33.33 1.45.32-.95.33-.15.33-1.24.33-.24.33-.46.32-.14.33 1.01.33-.65.33 1.1.32.16.33-1.86.33-.25.33-.09.33.38.32.45.33-.24.33-.5.33-.69.32.36.33-.07.33-.93.33.98h.33l.32-.1.33-.26.33 1.34.33.54.32-.75.33-.34.33-.85.33-.6.33 1.16.32 1.8.33 2.28.33.89.33-.82.32.01.33-.83.33-1.09.33.26.32.9.33.1.33.59.33-.11.33.74.32-.58h.33l.33-.07.33-.22.32-.14.33-.59.33-.61.33.08.33.71.32-.31.33 2.97.33-.05.33-.79.32-.49.33-.91.33.23.33-1.02.33 1.07.32.5.33-.36.33-.54.33.18.32-.38.33-.4.33.59.33 1.27.33.17.32-.35.33-.02.33-.41.33-2.21.32.07.33 1.81.33-.45.33-.76.33-.21.32-.49.33.47.33.28.33 1.31.32-.45.33-.42.33 1.1.33-.71.33.1.32.07.33 1.01.33-.09.33-.78.32.1.33-.73.33-.42.33-.04.32.8.33.5.33-.72.33-.02.33-.5.32-.39.33 1.29.33.04.33-.31.32-.63.33-.26.33-.39.33-.28.33.07.32 1.31.33 2.2.33-.72.33 1.78.32.45.33-.36.33-.17.33.17.33-.56.32-.52.33-.29.33.06.33-.78.32-.04.33.2.33-.13.33.15.33-.36.32-.01.33-.84.33.07.33-.05.32 1.55.33-.61.33-.18.33.14.33.43.32.25.33-.15.33.13.33 1.47.32-.01.33-.12.33-1.03.33.43.32.06.33-.68.33-.29.33-.03.33-.41.32-.65.33.52.33-.4.33-.55.32.49.33.19.33-.31.33-.54.33.5.32-.08.33-1.02.33-.1.33-.14.32-.49.33 1.05.33.47.33-.45.33-.77.32.66.33 1.04.33-.06.33-.4.32.48.33-.49.33-.54.33-.17.33.55.32-.68.33-.11.33.68.33-.64.32.73.33.01.33-.19.33-.18.33.13.32.47.33-.5.33-.48.33-.29.32.42.33-.02.33-.27.33.47.33-.61.32-.53.33.21.33-.14.33.89.32.87.33.07.33-.2.33-.41.32-.08.33-1.83.33.82.33.89.33-.26.32-.43.33-.08.33-.29.33.03.32.26.33.5.33-.99h.33l.33-.13.32-.42.33.37.33.03.33.38.32-.78.33.23.33 1.08.33.1.33.72.32.07.33.93.33-.4.33-.08.32-.09.33-.3.33.5.33.36.33.94.32-.42.33-.09.33-.03.33-.75.32.04.33.15.33-.13.33-.69.33.22.32.02.33-.71.33.35.33-.04.32.3.33-.41.33-.27.33.16.33-.39.32-.24.33-.19.33.34.33-.38.32-.23.33-.06.33-.4.33.31.32.31.33-.58.33.56.33.31.33.18.32-.25.33-.24.33-.19.33-.11.32-.22.33.1.33-.45.33-.51.33.74.32-.05.33-.04.33.09.33.94.32-.3.33-.33.33.02.33.28.33.09.32 1.08.33-.33.33-.57.33-.07.32.95.33.99.33.01.33.74.33.95.32-.13.33-.31.33.63.33 1.06.32-.09.33-.13.33-.31.33-.23.33.37.32 1.64.33-.02.33.14.33-.38.32-.25.33-.42.33-.28.33.02.32.15.33.06.33-.29.33-.35.33-.83.32.05.33.74.33-.06.33-.07.32.13.33-.44.33.51.33-.09.33-.18.32.26.33-.15.33-.28.33-.3.32-.27h.33l.33 1.27.33.22h.33l.32-.03.33-.91.33.2.33-.08.32-.01.33.09.33-.3.33-.25.33-.37.32-.16.33.27.33.05.33-.07.32.15.33-.26.33-.7.33.09.33 2.22.32-.14.33-.2.33.11.33-.71.32-.16.33-.14.33.44.33-.25.33.41.32.02.33-.61.33.09.33-.16.32-.03.33.14.33-.16.33-.12.32-.69.33-.22.33-.05.33.5h.33l.32-.14.33-.04.33-.55.33-.1.32-.13.33 1.3.33-.18.33.83.33-.23.32-.65.33-.12.33.16.33.55.32-.24.33-.07.33-.5.33-.14.33-.08.32.43.33-.07.33.22.33-.34.32-.24.33-.21.33-.03.33.38.33.04.32.64.33.31.33-.78.33-.19.32-.14.33-.03.33.71.33.31.33.02.32.69.33-.42.33.17.33.42.32.17.33-.07.33-.37.33-.18.33-.31.32-.01.33-.12.33.05.33.17.32.13.33-.1.33-.27.33-.04.32.72.33-.32.33.05.33-.46.33-.23.32.05.33-.09.33-.21.33.04.32.63.33-.21.33.1.33-.39.33.21.32.32.33-.01.33-.09.33-.41.32 1.01.33.02.33-.41.33.25.33-.18.32-.1.33-.29h.33l.33-.11.32-.13.33.49.33-.04.33-.32.33-.14.32-.12.33.79.33.36.33.1.32-.02.33-.13.33.05.33-.17.33-.42.32.54h.33l.33-.07.33-.54.32-.19.33-.02.33.11.33-.08.32.28.33.82.33-.49.33-.16.33-.23.32.11.33.35.33.2.33-.11.32-.47.33-.24.33.02h.33l.33-.14.32-.03.33-.1.33-.17.33.22.32.01.33-.14.33.52.33.12.33-.31.32-.71.33.35.33-.18.33.06.32-.14.33-.27.33-.13.33-.29.33-.15.32-.06.33.21.33.31.33-.16.32-.38.33-.09.33-.17.33.11.33.08.32-.23.33-.02.33-.18.33.18.32.13.33-.02.33.15.33.48.33.89.32-.44.33-.32.33.12h.65l.33-.06.33-.37.33-.38.32-.03.33.16.33-.27.33.42.33.12.32-.12.33-.37.33-.08.33-.13.32-.13.33.09.33.01.33-.41.33 1.31.32 1.42.33.13.33-.19.33.26.32.52.33-.58.33-.16.33.02.33-.16.32-.06.33.27.33.05.33-.38.32-.22.33-.14.33-.12.33.11.33.38.32-.23.33-.03h.33l.33-.4.32.09.33.16.33-.23.33-.05.33-.53.32.21.33.38.33.26.33-.57.32.83.33.68.33-.26.33.13.33.94.32-.16.33.06h.33l.33-.52.32.06.33-.24.33.12.33-.09.32.16.33-.28.33.02.33-.09.33-.13.32-.2.33.13h.33l.33-.05.32-.52.33-.15.33.21.33.39.33.18.32-.12.33.02.33-.1.33-.16.32-.03.33.01.33-.12.33-.01.33-.21.32-.08.33.9.33-.05.33-.32.32.22.33.15.33-.17.33-.01.33-.18.32-.02.33-.02.33-.2.33-.05.32-.53.33-.13.33.15.33.23.33.34.32-.1.33.15.33-.18.33-.08.32-.09.33-.1.33.04.33.4.32 1.19.33.46.33.04.33.05.33-.18h.32l.33-.1.33.02.33.22.32-.34.33.1.33-.19.33-.26.33.05.32-.07.33-.39.33-.11.33-.03.32.28.33.06.33.05.33.13.33.11.32-.49.33.1.33-.09.33.03.32.06.33-.65.33-.28.33.09.33-.02h.32l.33.17.33-.32.33.04.32-.1.33.13.33-.02.33-.28.33.08.32-.17.33-.65.33-.19.33.61.32 1.01.33.57.33-.23.33-.11.33.2.32-.06.33-.29.33.23.33-.13.32-.09.33-.14.33.99.33.53.32.24.33-.17.33 1.26.33.11.33-.14.32-.33.33.15.33.23.33.23.32-.18.33-.12.33-.38.33-.09.33.04.32-.11.33.05.33.41.33.04.32.04.33.08.33-.24.33.02.33-.05.32-.31.33-.19.33-.39.33.17.32-.27.33.11.33-.22h.33l.33.02.32.03.33-.19.33.07.33.08.32-.02.33-.33.33-.28.33-.34.33.29.32-.29.33.05.33.18.33.4.32-.32.33-.1.33.26.33-.3.33.05h.32l.33-.19.33-.5.33-.11.32.13.33.34.33.54.33-.23.32.35.33 1.22.33.2.33-.19.33.25.32-.18.33.12.33-.33.33-.25.32-.44.33.31.33-.09.33.18.33.48.32-.3.33.14.33-.2.33.04.32.17.33-.31h.33l.33-.21.33-.49.32.14.33-.11.33-.05.33-.17.32.09.33.03.33-.27.33.23.33.02.32-.06.33.09.33-.02.33-.6.32.46.33.6h.33l.33-.07.33.14.32.34.33.13.33-.2.33.06.32-.2.33-.02.33.01.33.02.32-.48.33.06.33-.07.33-.13.33-.23.32.83.33.16.33-.08.33.49.32.68.33.03.33-.04.33-.16.33-.48.32-.1.33.02.33-.27.33.25.32-.08.33.33.33.16.33-.02.33-.05.32.14.33.03.33-.26.33-.09.32-.31.33-.16.33-.13.33-.18.33-.25.32.27.33-.15.33-.01.33.11.32.1.33-.22.33-.06.33.09.33-.13.32-.43.33-.2.33.28.33-.46.32.16.33-.29.33.33.33.4.33-.22.32.11.33-.19.33.13.33-.17.32-.01.33-.4.33-.1.33.12.32-.39.33.05.33-.04.33.2.33.24.32.36.33-.02.33-.08.33-.04.32.14.33-.24.33-.08.33.07.33-.09.32.56.33.63.33-.38.33.79.32-.03.33-.02.33.01.33-.24.33.13.32.34.33-.51.33.11.33-.31.32-.13.33-.1.33.13.33-.11.33.01.32-.03.33-.27.33.18.33-.19.32.05.33.2.33-.55.33.05.33-.24.32.17.33-.33.33-.08.33.16.32.65.33-.29.33-.08.33-.19.33.06.32.09.33-.25.33-.25.33-.06.32-.21.33.03.33-.06h.33l.32-.14.33.15.33-.03.33.45.33.1.32.34.33.06.33-.27.33.83.32.18.33-.04.33.13.33-.03.33-.08.32.42.33-.21.33-.04.33.09.32.06.33-.22.33.19"/><use xlink:href="#a" color="#3B75EA" transform="matrix(4.5 0 0 4.5 355.09 140.55)"/><use xlink:href="#a" color="#3B75EA" transform="matrix(4.5 0 0 4.5 65.45 31.26)"/></g><text stroke-linecap="round" stroke-linejoin="round" color="#000" font-family="Courier" font-size="12" transform="translate(95.12 57.66)"><tspan>LBSTTopDown</tspan></text><g fill="none" stroke="currentColor" stroke-linecap="round" stroke-linejoin="round" color="#000"><path stroke="#29C3F6" stroke-dasharray="4.5,2.0,0.5,2.0,0.5,2.0" d="M44.17 53.76h42.56M33.56 97.55l.33-.85.33 4.52.32-.1.33-1.48.33-.88.33 2.82.32-2.74.33-2.16.33.39.33 2.52.33 1.5.32 1.12.33-.13.33-.55.33.72.32-2.36.33 1.66.33.37.33 1.12.33-.91.32-.69.33 1.08.33-1.62.33-.08.32 1.96.33.59.33-.31.33-1.41.32-.03.33-.92.33.39.33-.24.33 3.64.32.28.33-.55.33-.5.33-1.22.32.52.33-1.16.33 1.01.33-.77.33.13.32.47.33-.56.33-.57.33-.33.32 1.04.33 2.1.33-.73.33-.82.33-.24.32-.35.33.72.33-.35.33 1.91.32-2.34.33.25.33-.2.33-.02.33-1.52.32.33.33 2.29.33-1.33.33-.78.32.26.33.17.33-.88.33-.06.33 1.75.32-1.3.33-.49.33 1.06.33-.3.32.23.33-1.11.33 2.05.33-.52.33 1.28.32 2.25.33-1.46.33.18.33-.12.32 1.2.33-.36.33-.22.33.12.32-.81.33-.92.33-1.24.33-.63.33 1.77.32.69.33.31.33-.98.33-1.94.32.89.33-.22.33.37.33-1.17.33.38.32-.33.33-.95.33 1.32.33-.53.32 1.01.33.35.33-.09.33-.88.33-.16.32-.69.33.61.33-.11.33 1.29.32.03.33 1.11.33-.36.33-.15.33-.87.32.64.33.57.33.2.33-2.69.32-1.23.33 2.83.33-.21.33-.82.33 1.46.32-.59.33-.52.33-.6.33-.33.32-.18.33.67.33 2 .33.93.33-1.1.32-.29.33-.32.33.13.33-.64.32.38.33.83.33-.56.33-.71.32-.02.33-.37.33-.39.33 1.56.33 1.54.32.01.33.13.33-.49.33-.44.32.07.33-.25.33.59.33-1.03.33-.45.32 1.49.33.11.33-1.01.33.23.32 2.77.33.5.33-.22.33.09.33-.5.32-.58.33.27.33.2.33 1.6.32-.27.33.31.33-1.05.33.15.33.52.32-.8.33 1.35.33-.2.33-.34.32.29.33-.65.33.23.33-.32.33-.47.32.26.33.05.33-1.62.33-.34.32.08.33-.32.33.61.33.96.32-.05.33-.46.33-.17.33.15.33.02.32.26.33-.67.33-.11.33-.81.32.77.33-.25.33-.38.33-.36.33.75.32.21.33-.86.33-.28.33 1.65.32-.22.33-.51.33-.3.33-.08.33-.37.32.77.33-.41.33-.51.33-.66.32.86.33 1.18.33-.57.33.1.33.03.32-.79.33.19.33-.58.33-.4.32.01.33-.22.33.12.33-.61.33-.47.32.7.33-.56.33-.23.33.7.32-.36.33-.39.33-.18.33-.07.33-.62.32-.07.33.87.33.06.33.91.32.65.33-.31.33.71.33.34.32.26.33-2.26.33-.57h.33l.33-.66.32 1.02.33 1.71.33.37.33-1.52.32.74.33.28.33.1.33-.15.33.75.32-.6h.33l.33-.23.33-.15.32.15.33-.67.33 1.6.33-.49.33-.46.32-.41.33.2.33-.69.33-.16.32.95.33.11.33-.21.33.05.33-.73.32.23.33.31.33.17.33-.58.32.17.33.04.33.74.33-.18.33.04.32.24.33-.47.33-.68.33.45.32-1.23.33.88.33.9.33.88.33-.75.32.45.33-.28.33-.46.33-.49.32.18.33 1.13.33-.05.33-.16.32.16.33-.88.33.6.33.07.33.15.32-.16.33.1.33.98.33-.72.32-.14.33-.48.33.37.33-.62.33.1.32-.3.33-.51.33-.45.33.99.32.25.33-.91.33.29.33-.02.33-.19.32.86.33.22.33-.48.33.64.32.01.33.45.33-.21.33-.49.33.51.32-.17.33.66.33.22.33 1.79.32-.99.33.25.33.15.33.08.33.08.32 1.29.33-.78.33.35.33-.14.32.19.33.11.33-.79.33.75.32-.39.33-.22.33-.36.33.46.33-.2.32 1.16.33.19.33-1.09.33-.11.32.42.33-.64.33.36.33-.12.33-.32.32.97.33 1.08.33-.46.33.16.32-.23.33.16.33-.62.33.15.33.08.32-.58.33.35.33-1.51.33.32.32-.81.33-.07.33.04.33-.21.33.12.32-.63.33.35.33-.32.33-.6.32-.59.33 1.74.33-1.01.33.6.33-.22.32-.82.33-.21.33.86.33.74.32-.31.33.15.33-.01.33-.45.33-.26.32.47.33-.15.33.47.33-.33.32-.17.33-.36.33-.1.33-.09.32-.24.33-.14.33.21.33-.05.33.25.32-.1.33 1.31.33-.69.33.12.32.37.33-1.36.33.17.33.95.33.97.32-.18.33.8.33.47.33-.37.32-.89.33.27.33.42.33-.06.33-.14h.32l.33-.66.33-.03.33.12.32.31.33-.8.33.49.33.02.33-.9.32.67.33.72.33.32.33-.46.32.18.33.17.33-1.19.33.28.33-.31.32.76.33.24.33 1.38.33-.94.32-.2.33.58.33-.44.33.78.33-.71.32.04.33-.6.33.4.33.05.32-.17.33-.64.33.67.33-.37.32-.35.33.16.33-.47.33.32.33.14.32-.27.33 1.28.33-.67.33.87.32-.14.33-.24.33-.05.33-.6.33.8.32-.4.33 1.66.33.24.33-.19.32.04.33.04.33-.6.33.21.33.17.32-.16.33-.18.33-.26.33.14.32-.71.33-.43.33.6.33-.31.33 1.05.32-.39.33-.21.33-.43.33.2.32-.34.33.06.33.02.33-.84.33-.82.32-.03.33.24.33.04.33-.23.32.51.33-.47.33.03.33-.8.32.5.33-.21.33.18.33-.23.33-.6.32.08.33-.51.33.47.33-.18.32.16.33.5.33-.7.33-.25.33-.23.32-.07.33.14.33.06.33-.44.32 1.08.33-.14.33.39.33-.09.33-.12.32.54.33 1.07.33-.01.33-.47.32.65.33-.48.33-.05.33.42.33-.74.32-.01.33.02.33-.09.33-.6.32.19.33 1.2.33-.69.33-.01.33-.35.32.04.33-.32.33-.12.33.29.32-.36.33-.34.33-.83.33 1.1.33-.06.32-.35.33.47.33-.05.33-.24.32.22.33-.02.33.44.33.24.32-.18.33-.03.33-.75.33.39.33-.25.32-.32.33.32.33.21.33.15.32-.58.33-.05.33-.56.33-.15.33.35.32-.15.33.02.33-.48.33-.29.32.25.33.32.33-.18.33.27.33-.09.32.09.33.6.33.19.33.02.32-.03.33.52.33-.76.33-.27.33-.25.32.21.33-.17.33.42.33-.37.32.07.33-.17.33.22.33.13.33-.34.32-.09.33-.55.33-.29.33-.08.32.12.33.86.33-1.05.33 1.94.33.56.32-.37.33-.09.33 1.08.33-.08.32-.04.33-.08.33.03.33.49.32-.52.33-.51.33-.18.33-.15.33 1 .32-.08.33-.39.33-.23.33.38.32-.67.33.39.33.1.33-.82.33.35.32-.43.33-.38.33.54.33.57.32-.01.33-.73.33.22.33 1.21.33.26.32 1.1.33 1.47.33-.2.33-.51.32-.26.33.07.33-.47.33-.1.33.23.32.47.33-.31.33-.09.33-.09.32.06.33.05.33-.24.33-.62.33.08.32.02.33-.09.33.4.33.17.32.5.33-.44.33-.03.33-.45.32.79.33.9.33-.3.33.45.33-.57.32-.1.33.01.33-.1.33-.25.32-.23.33.79.33-.47.33-.29.33-.55.32.43.33.79.33-.46.33-.45.32-.67.33.1.33-.19.33.02.33.41.32-.01.33.04.33.11.33.01.32-.43.33.42.33-1 .33.6.33.95.32-.56.33.25.33-.38.33.04.32.02.33.22.33.16.33-.4.33-.2.32 1.51.33.18.33-.29.33-.16.32-.6.33.06.33-.43.33.43.33.64.32-.51.33.73.33-.4.33-.5.32.51.33-.4.33.02.33-.6.32.63.33-.42.33-.33.33.51.33-.3.32.03.33-.57.33.54.33-.64.32.25.33.02.33-.04.33-.01.33.41.32-1.25.33.22.33-.01.33-.26.32.01.33.54.33.43.33-.38.33-.38.32.67.33-.65.33.65.33.59.32.11.33-.45.33.33.33-1.2.33.79.32.69.33-.66.33.37.33-.5.32-.74.33.8.33.12.33-.09.33-.01.32-.37.33-.06.33-.09.33.15.32.29.33-1.12.33 1 .33.19.33-.67.32.33.33.22.33-.38.33.32.32-.61.33.16.33-.02.33 1.08.32-.35.33.63.33-.8.33.49.33-.66.32.79.33-.2.33-.48.33.73.32.24.33.02.33.09.33-.48.33-.05.32-.61.33.44.33.13.33.64.32-.37.33-.45.33.68.33-.73.33.41.32-.08.33-.38.33.05.33-.32.32-.13.33.18.33.37.33.77.33-.36.32-.01.33-.34.33.67.33-.75.32.37.33-.58.33.14.33-.07.33-.23.32.29.33-.69.33.15.33.86.32-.19.33-.07.33.1.33-.24.32-.04.33.15.33.07.33-.83.33-.16.32.25.33-.15.33.15.33-.29.32.19.33-.01.33.11.33-.7.33.1.32.1.33.3.33-.47.33-.42.32.17.33.03.33.46.33-.39.33.83.32 1.4.33-.39.33-.3.33-.18.32.06.33.28.33-.13.33-.28.33-.23.32-.11.33-.1.33-.28.33.21.32.08.33.18.33.28.33-.08.33-.36.32 1.45.33.01.33-.2.33.08.32-.86.33.61.33.11.33-.49.33.71.32-.7.33.29.33.22.33.43.32-.56.33-.4.33.48.33-.13.32.15.33-.45.33-.44.33.42.33-.48.32.04.33.08.33-.17.33-.25.32.67.33-.37.33-.15.33.61.33-.49.32.41.33-.73.33-.43.33.16.32.21.33.19.33-.01.33-.18.33-.34.32.59.33-.02.33-.17.33.33.32-.68.33 1.09.33-.22.33.16.33.53.32-.04.33-.53.33.55.33-.78.32.9.33.3.33.06.33-.37.33-.11.32.15.33-1.23.33.56.33.16.32.07.33.37.33.02.33-.16.33.13.32-.12.33-.03.33.17.33-.62.32.69.33-1.2.33.16.33.12.32-.22.33.11.33.6.33 1.05.33-.41.32-.44.33.49.33.44.33-.33.32.52.33-.75.33.5.33-.07.33-.2.32.3.33.14.33.37.33-.51.32-.08.33.85.33-.67"/><use xlink:href="#d" color="#29C3F6" transform="matrix(4.5 0 0 4.5 84.69 103.82)"/><use xlink:href="#d" color="#29C3F6" transform="matrix(4.5 0 0 4.5 65.45 53.76)"/></g><text stroke-linecap="round" stroke-linejoin="round" color="#000" font-family="Courier" font-size="12" transform="translate(255.14 35.16)"><tspan>WBSTBottomUp</tspan></text><g fill="none" stroke="currentColor" stroke-linecap="round" stroke-linejoin="round" color="#000"><path stroke="#D336C8" d="M204.19 31.26h42.56M33.56 111.2l.33-1.68.33 1.34.32 1.34.33-1.81.33-2.53.33 2.37.32.56.33 3.38.33-1.64.33.31.33.64.32-1.29.33.46.33-1.13.33-.4.32.9.33-2.14.33-.35.33 1.03.33-.86.32 1.04.33.96.33.53.33 3.28.32-1.35.33-.88.33-2.62.33 1.59.32 2.16.33 1.43.33-3.25.33 3.63.33-2.56.32-.88.33-2.77.33 1.64.33-2.34.32.65.33-2.8.33 5.98.33.46.33-.54.32-1.75.33 1.48.33.69.33-.32.32-.69.33 1.59.33.08.33-.56.33.14.32.6.33.94.33-2.09.33-1.1.32 1.75.33 3.13.33-1.24.33-1.05.33.08.32 1.96.33-.24.33-.89.33-.83.32 2.67.33-2.23.33-.31.33-1.6.33.4.32-2.36.33-.72.33-1.23.33 5.33.32-.7.33.45.33-1.98.33 1.6.33-2.7.32 1.22.33-.98.33 3.15.33-1.3.32.4.33-1.97.33.91.33-.47.32-.12.33-1.43.33 5.43.33 1.63.33-1.31.32-1.59.33 1.35.33-.22.33-1.99.32-1.15.33 1.04.33 1.03.33-1.45.33 1.02.32.64.33-.21.33-1.64.33-.33.32.25.33 2.67.33-.84.33-.57.33-.71.32 1.59.33-.86.33-1.1.33-1.95.32 3.83.33-1.83.33.39.33-.93.33 2.84.32-.74.33-.69.33-.58.33 8.38.32-2.02.33-.31.33-1.86.33.42.33-1.32.32.21.33-1.84.33 1.6.33-.96.32.37.33-1.49.33.98.33.79.33-1.09.32-1.3.33 3.76.33 1.13.33-1.5.32.13.33-.6.33-.39.33-1.86.32.3.33-.38.33 1.66.33-.92.33-.91.32-1.3.33.9.33-1.87.33-1.17.32-.4.33 6.66.33.87.33-.05.33-1.75.32 2.67L86 117l.33-.36.33-1.7.32 3.59.33-2.22.33-.74.33.17.33.76.32-1.49.33-.08.33-1.71.33 4.69.32-1.54.33 1.18.33-1.99.33 1.21.33-.42.32-1.42.33-1.06.33 1.75.33.96.32-.28.33-1.46.33 1.02.33-.19.33-1.31.32-1.36.33 3.29.33 4.66.33-1.95.32.16.33-1.16.33.35.33-.77.32-.25.33-.8.33 2.52.33-1.75.33.29.32-1.26.33.95.33-1.32.33-.2.32-.93.33 4.44.33-1.51.33-.68.33-1.43.32 1.61.33-1.52.33-.18.33-1.68.32 2.85.33-1.34.33-.31.33-.71.33.61.32-.74.33-.38.33-1.46.33 3.02.32 1.89.33-.12.33-1.24.33.25.33-.56.32-.98.33-1.22.33.76.33 1.67.32-.97.33-1.2.33-.89.33.42.33.28.32.2.33.41.33 3.2.33-1.64h.32l.33-1.49.33 1.2.33-1.73.33.4.32-1.93.33 3.35.33-1.61h.33l.32-.76.33 1.84.33-.66.33-1.11.32-2.14.33 9.13.33-.67.33-.59.33-.36.32 1.33.33-1.2.33-.71.33-2.02.32 2.06.33-.72.33.24.33-1.91.33.18.32-.78.33-.08.33-.45.33 2.36.32 3.14.33-1.04.33-.22.33-.89.33.11.32-1.59.33-.04.33.08.33 2.48.32-1.7.33-.4.33-1.4.33 1.67.33-1.3.32-.54.33-.48.33 5.57.33-1.77.32-.35.33-1.86.33 2.13.33-1.16.33.45.32-2.05.33 3.03.33-2.03.33.76.32-1.35.33 2.38.33-1.75.33-.28.33-1.78.32 3.25.33 1.25.33.05.33-.28.32-.13.33-.1.33-.98.33-1.12.32 1.88.33 1.24.33-1.73.33-.97.33-.67.32.42.33-1.96.33-.32.33 2.03.32 5.25.33-2.25.33-.14.33-.61.33 2.11.32-1.37.33.28.33-1.86.33 2.39.32-1.26.33-.71.33-1.89.33 2.33.33-.92.32-.44.33-2.24.33 4.89.33-1.42.32-.17.33-1.58.33 1.72.33-1.64.33-1.14.32-.89.33 2.17.33-1.37.33-.02.32-1.41.33.93.33.15.33-.71.33-1.41.32 3.1.33 3.17h.33l.33-1.21.32-.51.33.1.33-1.72.33-.61.32 1.27.33 1.87.33-1.47.33-.34.33-1.88.32 1 .33-.93.33-.24.33-.39.32 4.17.33-2.21.33-.36.33-1.72.33 1 .32-1.33.33-.31.33-1.98.33 5.27.32-1.62.33-.3.33-1.14.33 2.02.33.29.32-.83.33-1.65.33 7.37.33 1.03.32-.58.33-.82.33 1.13.33-.71.33-.4.32-1.35.33 1.5.33.31.33-.93.32-1.65.33 1.11.33-.99.33-.57.33-1.21.32 1.14.33 3.2.33-1.98.33.79.32-.76.33.34.33-.84.33-.87.33-1.1.32 2.34.33-1.28.33-.29.33-2.21.32 1.83.33-.95.33-.23.33-1.31.32 6.65.33-1.73.33.3.33-.84.33.51.32-2.33.33.87.33-2.31.33 2.49.32-.89.33-.88.33-1.51.33.75.33.07.32-1.39.33-1.07.33 3.16.33.58.32-1.21.33-1.14.33.69.33-.84.33-1.35.32.36.33.97.33 1.07.33-.66.32.63.33-1.46.33.6.33-.93.33-1.08.32.45.33 7.13.33-.76.33-1.24.32-1.75.33 2.34.33-1.79.33.02.33-.39.32 3.54.33-1.45.33.27.33-1.98.32 1.28.33-1.64.33-.27.33-1.1.33 3.35.32-1.15.33.56.33-1.09.33.28.32.26.33-.59.33-1.57.33 1.91.32-.34.33-.57.33-1.58.33.82.33-.22.32-1.92.33.28.33 1.6.33 2.33.32-.99.33 1.23.33-.43.33.17.33-.94.32-.95.33.22.33 1.94.33-1.28.32-.96.33-1.1.33 1.38.33-1.34.33-.05.32-1.05.33 4.52.33-1.64h.33l.32-1.85.33 1.62.33-2.09.33.86.33-1.77.32 2.84.33-1.76.33-.49.33-.9.32.9.33-.09.33-.75.33-1.49.33 8.35.32 1.97.33-.29.33-1.66.33.72.32-.67.33-1.4.33-.48.33.96.32.81.33-.73.33-.09.33.16.33.7.32-.29.33-1.69.33.72.33 3.02.32-1.27.33-.1.33-1.85.33 1.52.33-2.16.32-.45.33-.41.33 2.83.33-1.58.32-.36.33-1.15.33 1.66.33-2.06.33.07.32-1.83.33 6.56.33-1.55.33-.08.32-.79.33.22.33.23.33-.52.33-1.56.32 2.24.33-.47.33-.52.33-2.1.32 1.66.33-.84.33-1.17.33-.82.33 1.66.32 1.23.33-.75.33.91.33-.3.32-.51.33-.78.33-1.2.33.1.33 3.37.32-1.26.33-.83.33-.91.33 1.14.32-.72.33-.69.33.86.33 6.58.32-1.57.33-.61.33-1.35.33 1.23.33-2.08.32.64.33-1.91.33 3.33.33-1.9.32-.05.33-1.88.33 1.89.33-.11.33-.43.32-1.64.33 3.72.33-.24.33-.65.32-2.01.33 1.81.33-1.54.33-.37.33-1.39.32.75.33 1.24.33-.16.33-.43.32-.49.33-.06.33-.51.33-1.12.33 1.36.32 3.41.33-1.2.33-.5.33-1.45.32 1.36.33-1.52.33-.36.33.19.33 1.88.32-.54.33-.82.33-1.09.33.94.32-1.94.33.89.33-2.58.33 5.21.33-1.75.32-.21.33-1.64.33 2.16.33-.36.32-.61.33-1.8.33 2.29.33-.36.32-1.15.33-1.47.33 1.19.33-1.18.33-.64.32-.76.33 5.47.33 2.23.33-.23.32-.25.33-.28.33-.42.33-.94.33-.84.32.64.33.64.33-.56.33-.6.32-1.45.33 1.09.33-.83.33-.71.33.91.32 3.11.33-1.29.33-.41.33-1.14.32.6.33-.4.33.33.33-1.57.33 2.61.32-1.37.33-.21.33-1.71.33 1.48.32-.27.33-.14.33-1.3.33 5.1.33-.47.32-.49.33-1.46.33 1.38.33-1.15.32-.59.33-1.24.33 2.03.33-.4.32-.56.33.02.33.01.33-.55.33-.73.32-1.19.33 1.57.33 1.85.33-.7.32-1.31.33-.43.33.21.33-1.31.33-1.03.32 1.73.33 2.63.33-1.53.33-.93.32-.78.33.52.33-1.68.33.09.33-.81.32 7.01.33-2.15.33.9.33-1.84.32 1.35.33-.21.33-1.11.33-1.31.33 3.3.32-1.96.33.01.33-1.89.33 1.39.32-1.15.33-.65.33-.72.33 2.14.33-.45.32.42.33-.62.33.2.33.14.32-.77.33-.94.33.11.33 1.84.33-1 .32-1.01.33-.24.33.34.33-1.48.32-.41.33 1.62.33 3.95.33-1.74.32.32.33-1.12.33.65.33-1.17.33.22.32-1.53.33 2.22.33-1.27.33-.67.32-1.75.33 1.36.33-.88.33.17.33-1.88.32 6.02.33-1.37.33-.38.33-1.01.32 1.29.33-.24.33-.28.33-1.03.33 1.98.32-.5.33-.57.33-1.07.33.69.32-1.02.33-.22.33-.85.33 4.68.33 5.21.32-1.04.33-1.26.33.03.33-.38.32-1.67.33-.41.33 1.57.33 1.68.33-1.38.32-.63.33-.56.33.19.33-.81.32-.07.33-1.12.33 3.31.33-.77.33-.47.32.53.33 1.61.33-1.68.33.13.32-2.4.33 4.23.33-2.47.33.08.32-1.3.33 1.37.33-2.04.33-.29.33-1.47.32 5.13.33-.35.33-.03.33-1.18.32.65.33-.66.33.98.33-1.74.33.94.32.94.33-.81.33-1.21.33.53.32.15.33.26.33-.54.33 1.65.33 1.97.32-1.4.33-.52.33-.72.33.36.32-1.35.33-.23.33-.91.33 2.27.33-1.1.32-.61.33-1.81.33 2.04.33-.88.32-.15.33-1.66.33 8.3.33-1.85.33-.24.32-1.18.33.99.33-1.46.33-.04.32-1.37.33 2.04.33-.97.33.23.32-1.4.33.85.33-1.21.33-.45.33-1.44.32 2.16.33 1.74.33-1.22.33-1.29.32.48.33-.16.33-1.23.33-1.14.33 1.53.32.77.33-.92.33-.36.33-.68.32.44.33-1.14.33.21.33-.16.33 3.97.32-.43.33-.72.33-1.5.33.48.32-.04.33-.39.33-1.68.33 2.73.33-1.92.32-.33.33-1.56.33 2.88.33-1.74.32-.28.33-2.03.33 3.98.33-.6.33-.66.32-.12.33.71.33-.14.33-.09.32-1.86.33 2.04.33.23.33-1 .33-.41.32-.72.33-.25.33-.53.33-.94.32 4.56.33 5.15.33-.94.33-.78.32-.04.33-.12.33-1.96.33.92.33-.97.32 1.69.33-1.53.33.06.33-1.61.32.82.33.1.33.74.33.37.33 4.26.32-1.16.33-.88.33-2.21.33 2.71.32-1.88.33-.27.33-1.48.33 2.51.33-1.87.32.94.33-1 .33.68.33-1.09.32-.78.33-1.45.33 3.64.33 1.47.33-.86.32-.68.33-.33.33.65.33-1.61.32-1.24.33 2.04.33.79.33-1.27.33-1.1.32.98.33-1.03.33-.8.33-.34.32.67.33 2.67.33-1.36.33-.79.33-.79.32.35.33-.21.33-.24.33-1.23.32 2.41.33-1.81.33-.36.33-1.9.32 2.31.33-1.85.33-.07.33-.71.33 7.25.32-1.56.33.49.33-.55.33.79.32-.57.33-.05.33-.95.33 2.01.33-.52.32-.41.33-1.21.33.7.33-.53.32-1.25.33-.59.33 2.1"/><use xlink:href="#b" color="#D336C8" transform="matrix(4.5 0 0 4.5 138.77 119.39)"/><use xlink:href="#b" color="#D336C8" transform="matrix(4.5 0 0 4.5 225.47 31.26)"/></g><text stroke-linecap="round" stroke-linejoin="round" color="#000" font-family="Courier" font-size="12" transform="translate(255.14 57.66)"><tspan>WBSTTopDown</tspan></text><g fill="none" stroke="currentColor" stroke-linecap="round" stroke-linejoin="round" color="#000"><path stroke="violet" stroke-dasharray="4.5,2.0,0.5,2.0,0.5,2.0" d="M204.19 53.76h42.56M33.56 109.43l.33-1.54.33-.72.32 2.42.33 2 .33 1.53.33-1.44.32 1.79.33-1.44.33-.01.33.98.33-1.23.32-1.81.33.64.33 1.45.33-.55.32 2.1.33-1.13.33.17.33-.35.33-.88.32-.8.33.62.33-.87.33 3.32.32-1.42.33-.9.33.42.33 1.53.32.93.33.15.33-3.37.33 3.58.33-1.77.32 1.29.33-2.44.33 1.53.33-2.41.32-.58.33-2.96.33 6.01.33 1.47.33-.29.32-1.98.33.45.33.54.33-.17.32-1.5.33 1.86.33.42.33-1.14.33-1.5.32 1.18.33 1 .33-2.21.33-.87.32 2.9.33 3.05.33-2.19.33-1.24.33.03.32 1.09.33.41.33-1.04.33-.73.32 2.69.33-.17.33-.41.33-1.32.33 1.31.32-2.35.33-.62.33-2.13.33 5.07.32-.81.33-.12.33-1.6.33 1.51.33-2.05.32 1.08.33-1.19.33 3.11.33-.86.32-.58.33-1.9.33 1.34.33-.43.32-.02.33-1.37.33 4.89.33 1.7.33-1.22.32-.99.33 1.33.33-.56.33-1.9.32-.08.33 1.04.33.94.33-1.44.33.08.32.63.33-.08.33-1.67.33-.55.32.21.33 2.83.33-1.32.33.2.33-1.52.32 1.52.33-.37.33-1.08.33-1.38.32 3.83.33-1.79.33-.38.33-1.84.33 2.09.32-.93.33-.79.33-.09.33 8.29.32-1.67.33.32.33-2 .33.56.33-1.5.32-.5.33-1.9.33 2.02.33-.41.32-.8.33-1.92.33.78.33 3.19.33-1.78.32-.89.33 2.69.33 1.07.33-.52.32-.28.33.26.33-.4.33-.94.32-.67.33-.41.33 1.45.33-1.06.33-.42.32-1.45.33 1.6.33-1.58.33-1.1.32-.44.33 5.92.33.65.33.35.33-1.6.32 2.09.33-2.38.33-.64.33-1.05.32 3.46.33-2.3.33-.66.33-.56.33.92.32-1.99.33.76.33-1.67.33 4.08.32-1.11.33.96.33-1.77.33.54.33.19.32-1.13.33-1.17.33 1.21.33.94.32-.2.33-.96.33 1.34.33-.1.33-1.16.32-.87.33 2.45.33 4.44.33-1.83.32-.36.33-.53.33.88.33-1.69.32-.45.33-.76.33 1.78.33-.74.33.72.32-.78.33.83.33-2.2.33-.49.32-1.39.33 4.92.33-.53.33-.31.33-2.16.32 1.35.33-1.89.33.54.33-1.63.32 2.89.33-.95.33-1.04.33-1.04.33.46.32-.01.33-.28.33-.99.33 3.18.32 1.21.33-.49.33-1.78.33.01.33-.11.32-.24.33-.61.33-.07.33 1.42.32-1.23.33-.45.33-.92.33 1.18.33-.16.32-.88.33.38.33 3.55.33-.92.32-.15.33-1.44.33 1.69.33-1.99.33-.52.32-2.26.33 4.11.33-1.26.33.54.32-1.87.33 1.64.33-.93.33-.65.32-1.26.33 9.31.33-1.01.33-.46.33-1.41.32 1.06.33-1.25.33-.12.33-1 .32 2.33.33-.76.33-.48.33-1.9.33.16.32-.27.33-.28.33-1.57.33 1.5.32 2.14.33-.67.33-.11.33-.99.33.54.32-1.37.33-.37.33-.83.33 2.07.32-1.41.33 1.08.33-1.44.33.79.33-1.85.32-.44.33-.42.33 6.8.33-.68.32.52.33-1.73.33 1.73.33-1.94.33-.23.32-1.71.33 3.2.33-.69.33-.02.32-2.15.33 1.22.33-1.51.33.77.33-1.75.32 3.2.33-.15.33-.42.33-.1.32-.25.33 1.22.33.3.33-.84.32 1.12.33.87.33-1.62.33-.73.33.01.32.9.33-2.03.33-.43.33 1.42.32 5.36.33-2.12.33.05.33-.27.33 1.28.32-1.57.33-.23.33-1.52.33 3.02.32-1.07.33-.5.33-1.86.33 1.48.33-1.61.32-.59.33-1.92.33 6.29.33-1.27.32-.73.33-1.89.33 1.28.33-1.82.33-.3.32-.55.33 2.45.33-1.39.33-.43.32-1.9.33.53.33-.86.33-.04.33-.25.32 2.67.33 2.75.33-.04.33-.74.32-.28.33.63.33-1.49.33-.67.32.47.33 1.06.33-1.7.33-.13.33-.69.32 1.31.33-1.43.33-.75.33-.59.32 4.56.33-2.06.33.14.33-1.6.33 1.08.32-1.71.33-.62.33-2.24.33 4.13.32-1.5.33-.09.33-.78.33 1.47.33.49.32-.85.33-1.36.33 7.7.33 1.09.32-.57.33-1.52.33.31.33-.89.33.07.32-1.14.33 1.73.33.21.33-.51.32-1.67.33.97.33-.59.33-.75.33-.98.32.79.33 1.99.33-1.95.33 2.18.32-.29.33.1.33-.77.33-.34.33-.82.32 2.27.33-1.09.33-.4.33-2.08.32 1.91.33-1.89.33-.32.33-1.36.32 7.52.33-1.91.33-.21.33-.79.33.49.32-2.37.33.94.33-2.28.33 2.4.32-.83.33-.53.33-1.4.33.82.33.04.32-1.3.33-1.16.33 3.21.33.66.32-1.26.33-1.12.33.65.33-.75.33-1.29.32.29.33.8.33 1.14.33-.96.32.77.33-.85.33.6.33-1.04.33-.94.32.45.33 6.46.33-1.09.33-1.26.32-1.49.33 2.25.33-1.81.33-.08.33-1.37.32 3.47.33-1.5.33.71.33-1.18.32 1.1.33-1.56.33-.22.33-1.12.33 3.48.32-1.35.33.3.33-1.74.33.24.32.21.33-.39.33-1.71.33 1.96.32-.26.33-.73.33-1.71.33.82.33-.06.32-2.05.33.71.33 2.04.33 2.46.32-.18.33.43.33-.81.33.51.33.31.32-1.08.33.21.33 2.01.33-1.32.32-.81.33-1.18.33 1.08.33-1.86.33-.07.32-1.14.33 4.43.33-1.7.33.1.32-1.75.33 1.57.33-2.15.33.76.33-1.61.32 2.84.33-1.68.33-.62.33-.58.32.33.33.86.33-.67.33-1.66.33 8.59.32 1.98.33-.41.33-1.69.33.86.32-.75.33-1.37.33-.5.33.14.32.58.33-.51.33-.1.33-.26.33-.56.32-.15.33-1.72.33.8.33 2.93.32-1.27.33-.08.33-1.97.33 1.65.33-1.42.32-.35.33-.49.33 2.88.33-1.59.32-.35.33-1.35.33 1.13.33-2.08.33.2.32-1.88.33 6.54.33-1.73h.33l.32-1.08.33.84.33.2.33-.5.33-1.7.32 2.37.33-.49.33-.59.33-2.12.32 1.57.33-.74.33-1.17.33-.74.33 1.51.32 2.02.33-.07.33.34.33-.28.32-.39.33.32.33-1.11.33.04.33 1.86.32-1.29.33-.66.33-.97.33 1.12.32-1.49.33-.43.33 1.12.33 6.64.32-1.63.33-.46.33-1.58.33 1.33.33-1.96.32.5.33-1.89.33 3.39.33-1.99.32.65.33-1.07.33 1.87.33-.54.33-.22.32-1.56.33 4.83.33-.19.33-.59.32-1.99.33 1.72.33-1.45.33-.45.33-1.22.32.76.33.38.33-.12.33.61.32-.49.33-.05.33-.53.33-1.14.33 1.28.32 3.59.33-1.11.33-.6.33-1.42.32 1.37.33-1.1.33-.06.33.29.33 1.82.32-1.52.33-.64.33-1.14.33 1 .32-2.09.33.94.33-2.5.33 5.05.33-1.7.32-.16.33-1.59.33 1.48.33-.39.32-.61.33-1.92.33 2.32.33-.36.32-1.08.33-1.48.33 1.2.33-1.16.33-.54.32-.43.33 5.7.33 2.26.33-.11.32-.34.33-.36.33-.13.33-1.14.33-.63.32.45.33.63.33-.54.33-.43.32-1.54.33.81.33-1.32.33-.7.33 1.11.32 4.06.33-1.4.33-.48.33-1.1.32.49.33-.46.33.45.33-1.45.33 2.5.32-1.54h.33l.33-.93.33 1.33.32-.31.33-.66.33-1.74.33 5.26.33-.48.32-.43.33-1.51.33 1.23.33-1.08.32-.51.33-1.3.33 1.35.33-.38.32-.47.33-.1.33.07.33-.63.33-.7.32-.98.33 1.39.33 1.82.33-.73.32-1.37.33-.36.33.64.33-.79.33-1.24.32.63.33 2.6.33-1.34.33-1.23.32-.66.33.57.33-1.59.33.05.33-.75.32 7.06.33-2.07.33.33.33-2.28.32 1.44.33-.13.33-.33.33-1.14.33 3.3.32-2.03.33.11.33-1.86.33 1.35.32-1.17.33-.74.33-.29.33 2.57.33-.41.32.33.33-.62.33.07.33-.57.32-.78.33-1.09.33.25.33 1.78.33-1.01.32-1.07.33-.13.33-.08.33-1.8.32-.5.33 1.61.33 4.05.33-.6.32.5.33-1.31.33.76.33-1.34.33.26.32-1.49.33 2.24.33-1.33.33-.18.32-1.5.33 1.29.33-.91.33.26.33-2 .32 4.78.33-1.5.33-.57.33-.87.32.78.33-1.21.33-.29.33-1.05.33 2.61.32-.44.33-.41.33-.24.33.73.32-1.04.33-.21.33-.99.33 4.89.33 5.16.32-.93.33-1.33.33-.04.33.37.32-1.54.33-.6.33.72.33 1.71.33-1.47.32-.53.33-.66.33.14.33-.67.32-.11.33-1 .33 3.11.33-.72.33-.95.32-1.22.33 1.44.33-1.56.33.12.32-2.27.33 4.21.33-2.57.33.16.32-1.54.33 1.52.33-2.13.33-.19.33-.34.32 6.21.33-.17.33-.1.33-1.09.32.51.33-.75.33-.12.33-1.73.33 1.05.32.8.33-.71.33-1.64.33.31.32-.02.33-.97.33-.56.33 1.6.33 2.79.32-1.33.33-.51.33-.77.33.29.32-1.27.33-.13.33-.71.33 2.91.33-1.14.32-.02.33-1.74.33 2.26.33-1.59.32-.32.33-1.76.33 8.25.33-1.99.33-.3.32-.97.33.98.33-1.41.33.82.32-.9.33 2.38.33-1.11.33.26.32-1.4.33 1.03.33-.66.33-.06.33-1.35.32 2.15.33 1.69.33-1.16.33-1.48.32.51.33-.2.33-1.05.33-1.13.33 1.63.32.73.33-.89.33-.61.33-.41.32.42.33-1.25.33.55.33-.16.33 4 .32-.42.33-.67.33-1.45.33.38.32.8.33-.28.33-1.73.33 2.78.33-1.98.32-.26.33-1.46.33 2.16.33-1.93.32-.09.33-2.01.33 3.75.33-.5.33-.72.32-.16.33.7.33-.91.33-.07.32-1.87.33 2.14.33.26.33-.92.33-.78.32-.37.33-.35.33-.66.33-.75.32 4.22.33 4.08.33-.88.33-.75.32-.2.33-.26.33-1.63.33.89.33-1.21.32 1.91.33-1.53h.33l.33-1.56.32.79.33-.13.33-.77.33-.52.33 4.13.32-1.17.33-.75.33-2.19.33 2.28.32-1.71.33-.32.33-1.31.33 2.49.33-1.82.32.78.33-.99.33.71.33-1.08.32-.89.33-1.3.33 3.65.33 1.35.33-.68.32-.3.33.23.33.27.33-1.35.32-1.25.33 1.96.33.78.33-1.16.33-1.32.32 1.11.33-1.04.33-.79.33-.47.32.8.33 2.75.33-1.33.33-.11.33-.4.32.43.33-.25.33-.25.33-1.11.32 2.23.33-.73.33-.2.33-1.92.32 2.36.33-1.95.33.08.33-1.72.33 7.23.32-1.56.33.49.33-.59.33.58.32-1.6.33-.04.33-.86.33 2.05.33-.64.32-.31.33-1.34.33.7.33-.49.32-1.15.33-.59.33 1.96"/><use xlink:href="#e" color="violet" transform="matrix(4.5 0 0 4.5 192.85 117.42)"/><use xlink:href="#e" color="violet" transform="matrix(4.5 0 0 4.5 225.47 53.76)"/></g><path fill="none" d="M33.56 90.01V146m324.48-55.99H33.56" color="#000"/><text stroke-linecap="round" stroke-linejoin="round" stroke-width="0" color="#000" font-family="KaTeX_Main" font-size="8" text-anchor="middle" transform="translate(195.8 17.61)"><tspan font-weight="bold">InsertDeletePersistent</tspan></text></svg>