<svg xmlns="http://www.w3.org/2000/svg" xmlns:xlink="http://www.w3.org/1999/xlink" viewBox="0 0 400 250"><path fill="none" d="M0 0h400v250H0z"/><defs><path id="g" stroke="currentColor" stroke-width=".267" d="M-1 0h2M0-1v2"/><path id="h" stroke="currentColor" stroke-width=".267" d="m-1-1 2 2m0-2-2 2"/><path id="i" stroke="currentColor" stroke-width=".267" d="M-1 0h2M0-1v2m-1-2 2 2m-2 0 2-2"/><path id="d" stroke="currentColor" stroke-width=".267" d="M-1-1h2v2h-2z"/><path id="b" stroke="currentColor" stroke-width=".267" d="m0-1.33-1.33 2h2.66z"/><path id="f" stroke="currentColor" stroke-width=".267" d="M0 1.33 1.265.411.782-1.067l-1.564-.009-.483 1.487z"/><use xlink:href="#b" id="c" stroke="currentColor" transform="rotate(180)"/><use xlink:href="#d" id="e" stroke="currentColor" transform="rotate(45)"/><circle id="a" cx="0" cy="0" r="1" stroke="currentColor" stroke-width=".267"/></defs><path fill="none" stroke="#333" stroke-linecap="round" stroke-linejoin="round" stroke-width=".1" d="M46.1 205V45.01" class="gridline" color="#000"/><g fill="none" stroke="none" stroke-linecap="round" stroke-linejoin="round" stroke-width="0" color="#000"><path d="M46.1 205v-7.5m0-152.49v7.5"/><text fill="#000" font-family="KaTeX_Main" font-size="8" text-anchor="middle" transform="translate(46.1 215.1)"><tspan> 1</tspan></text></g><path fill="none" stroke="#333" stroke-linecap="round" stroke-linejoin="round" stroke-width=".1" d="M82.31 205V45.01" class="gridline" color="#000"/><g fill="none" stroke="none" stroke-linecap="round" stroke-linejoin="round" stroke-width="0" color="#000"><path d="M82.31 205v-7.5m0-152.49v7.5"/><text fill="#000" font-family="KaTeX_Main" font-size="8" text-anchor="middle" transform="translate(82.31 215.1)"><tspan> 2</tspan></text></g><path fill="none" stroke="#333" stroke-linecap="round" stroke-linejoin="round" stroke-width=".1" d="M118.52 205V45.01" class="gridline" color="#000"/><g fill="none" stroke="none" stroke-linecap="round" stroke-linejoin="round" stroke-width="0" color="#000"><path d="M118.52 205v-7.5m0-152.49v7.5"/><text fill="#000" font-family="KaTeX_Main" font-size="8" text-anchor="middle" transform="translate(118.52 215.1)"><tspan> 3</tspan></text></g><path fill="none" stroke="#333" stroke-linecap="round" stroke-linejoin="round" stroke-width=".1" d="M154.73 205V45.01" class="gridline" color="#000"/><g fill="none" stroke="none" stroke-linecap="round" stroke-linejoin="round" stroke-width="0" color="#000"><path d="M154.73 205v-7.5m0-152.49v7.5"/><text fill="#000" font-family="KaTeX_Main" font-size="8" text-anchor="middle" transform="translate(154.73 215.1)"><tspan> 4</tspan></text></g><path fill="none" stroke="#333" stroke-linecap="round" stroke-linejoin="round" stroke-width=".1" d="M190.94 205V45.01" class="gridline" color="#000"/><g fill="none" stroke="none" stroke-linecap="round" stroke-linejoin="round" stroke-width="0" color="#000"><path d="M190.94 205v-7.5m0-152.49v7.5"/><text fill="#000" font-family="KaTeX_Main" font-size="8" text-anchor="middle" transform="translate(190.94 215.1)"><tspan> 5</tspan></text></g><path fill="none" stroke="#333" stroke-linecap="round" stroke-linejoin="round" stroke-width=".1" d="M227.15 205V45.01" class="gridline" color="#000"/><g fill="none" stroke="none" stroke-linecap="round" stroke-linejoin="round" stroke-width="0" color="#000"><path d="M227.15 205v-7.5m0-152.49v7.5"/><text fill="#000" font-family="KaTeX_Main" font-size="8" text-anchor="middle" transform="translate(227.15 215.1)"><tspan> 6</tspan></text></g><path fill="none" stroke="#333" stroke-linecap="round" stroke-linejoin="round" stroke-width=".1" d="M263.36 205V45.01" class="gridline" color="#000"/><g fill="none" stroke="none" stroke-linecap="round" stroke-linejoin="round" stroke-width="0" color="#000"><path d="M263.36 205v-7.5m0-152.49v7.5"/><text fill="#000" font-family="KaTeX_Main" font-size="8" text-anchor="middle" transform="translate(263.36 215.1)"><tspan> 7</tspan></text></g><path fill="none" stroke="#333" stroke-linecap="round" stroke-linejoin="round" stroke-width=".1" d="M299.57 205V45.01" class="gridline" color="#000"/><g fill="none" stroke="none" stroke-linecap="round" stroke-linejoin="round" stroke-width="0" color="#000"><path d="M299.57 205v-7.5m0-152.49v7.5"/><text fill="#000" font-family="KaTeX_Main" font-size="8" text-anchor="middle" transform="translate(299.57 215.1)"><tspan> 8</tspan></text></g><path fill="none" stroke="#333" stroke-linecap="round" stroke-linejoin="round" stroke-width=".1" d="M335.78 205V45.01" class="gridline" color="#000"/><g fill="none" stroke="none" stroke-linecap="round" stroke-linejoin="round" stroke-width="0" color="#000"><path d="M335.78 205v-7.5m0-152.49v7.5"/><text fill="#000" font-family="KaTeX_Main" font-size="8" text-anchor="middle" transform="translate(335.78 215.1)"><tspan> 9</tspan></text></g><path fill="none" stroke="#333" stroke-linecap="round" stroke-linejoin="round" stroke-width=".1" d="M371.99 205V45.01" class="gridline" color="#000"/><g fill="none" stroke="none" stroke-linecap="round" stroke-linejoin="round" stroke-width="0" color="#000"><path d="M371.99 205v-7.5m0-152.49v7.5"/><text fill="#000" font-family="KaTeX_Main" font-size="8" text-anchor="middle" transform="translate(371.99 215.1)"><tspan> 10</tspan></text></g><g fill="none" stroke="none" stroke-linecap="round" stroke-linejoin="round" stroke-width="0" color="#000"><path d="M371.99 205h-7.5"/><text fill="#000" font-family="KaTeX_Main" font-size="8" transform="translate(378.99 207.6)"><tspan>0.16</tspan></text></g><g fill="none" stroke="none" stroke-linecap="round" stroke-linejoin="round" stroke-width="0" color="#000"><path d="M371.99 187.22h-7.5"/><text fill="#000" font-family="KaTeX_Main" font-size="8" transform="translate(378.99 189.82)"><tspan>0.18</tspan></text></g><g fill="none" stroke="none" stroke-linecap="round" stroke-linejoin="round" stroke-width="0" color="#000"><path d="M371.99 169.45h-7.5"/><text fill="#000" font-family="KaTeX_Main" font-size="8" transform="translate(378.99 172.05)"><tspan>0.20</tspan></text></g><g fill="none" stroke="none" stroke-linecap="round" stroke-linejoin="round" stroke-width="0" color="#000"><path d="M371.99 151.67h-7.5"/><text fill="#000" font-family="KaTeX_Main" font-size="8" transform="translate(378.99 154.27)"><tspan>0.22</tspan></text></g><g fill="none" stroke="none" stroke-linecap="round" stroke-linejoin="round" stroke-width="0" color="#000"><path d="M371.99 133.89h-7.5"/><text fill="#000" font-family="KaTeX_Main" font-size="8" transform="translate(378.99 136.49)"><tspan>0.24</tspan></text></g><g fill="none" stroke="none" stroke-linecap="round" stroke-linejoin="round" stroke-width="0" color="#000"><path d="M371.99 116.12h-7.5"/><text fill="#000" font-family="KaTeX_Main" font-size="8" transform="translate(378.99 118.72)"><tspan>0.26</tspan></text></g><g fill="none" stroke="none" stroke-linecap="round" stroke-linejoin="round" stroke-width="0" color="#000"><path d="M371.99 98.34h-7.5"/><text fill="#000" font-family="KaTeX_Main" font-size="8" transform="translate(378.99 100.94)"><tspan>0.28</tspan></text></g><g fill="none" stroke="none" stroke-linecap="round" stroke-linejoin="round" stroke-width="0" color="#000"><path d="M371.99 80.56h-7.5"/><text fill="#000" font-family="KaTeX_Main" font-size="8" transform="translate(378.99 83.16)"><tspan>0.30</tspan></text></g><g fill="none" stroke="none" stroke-linecap="round" stroke-linejoin="round" stroke-width="0" color="#000"><path d="M371.99 62.79h-7.5"/><text fill="#000" font-family="KaTeX_Main" font-size="8" transform="translate(378.99 65.39)"><tspan>0.32</tspan></text></g><g fill="none" stroke="none" stroke-linecap="round" stroke-linejoin="round" stroke-width="0" color="#000"><path d="M371.99 45.01h-7.5"/><text fill="#000" font-family="KaTeX_Main" font-size="8" transform="translate(378.99 47.61)"><tspan>0.34</tspan></text></g><path fill="none" stroke="none" stroke-linecap="round" stroke-linejoin="round" stroke-width="0" d="M28 45.01V205M371.99 45.01H28" color="#000"/><text fill="#000" stroke="none" stroke-linecap="round" stroke-linejoin="round" stroke-width="0" color="#000" font-family="KaTeX_Main" font-size="10" text-anchor="middle" transform="rotate(-90 68.255 56.755)"><tspan font-weight="bold">Duration </tspan><tspan> in milliseconds</tspan></text><text fill="#000" stroke="none" stroke-linecap="round" stroke-linejoin="round" stroke-width="0" color="#000" font-family="KaTeX_Main" font-size="10" text-anchor="middle" transform="translate(199.99 238.25)"><tspan>Operations / 10</tspan><tspan dy="-5" font-size="8">5</tspan></text><text fill="#000" stroke="none" stroke-linecap="round" stroke-linejoin="round" color="#000" font-family="KaTeX_Main" font-size="8" transform="translate(116 10.11)"><tspan>AVLBottomUp</tspan></text><g fill="none" stroke="currentColor" stroke-linecap="round" stroke-linejoin="round" color="#000"><path stroke="#000" d="M80.5 7.51h29.9M28 185.67l.36-.19.36-2.33.37 2.57.36 1.08.36-.35.36-.36.36-.55.37-.19.36-2.07.36-1.95.36-1.03.37-1.39.36 4.22.36-.06.36-.35.36-.82.37-.84.36-.2.36-3.31.36-.11.36-.78.37-1.7.36 3.88.36-.24.36-.36.36-.33.37-.3.36-.34.36-3.16.36-.53.36-.24.37-.54.36 2.63.36-.08.36-.49.37-.02.36-.53.36-1.55.36-1.95.36.08.37-.28.36 1.34.36 1.1.36-.39.36-.03.37-.36.36.1.36-3.42.36-.06.36-.52.37-.37.36 2.93.36-1.61.36 1.34.37-.21.36-.04.36-.27.36-3.15.36-.21.37-.48.36 1.22.36 1.08.36-1.24.36.89.37.1.36-.35.36-1.54.36-1.77.36-.42.37-.04.36 1.2.36 1.49.36-1.79.37 1.51.36-.49.36-.21.36-1.29.36-2.1.37.03.36-.76.36 2.78.36-.99.36-1.12.37.9.36-.37.36.26.36-3.53.36.34.37-.75.36 1.45.36 1.18.36-.19.36-.03.37-2.02.36 1.65.36-1.94.36-1.25.37-.34.36-.18.36 1.25.36.96.36.19.37-.43.36-1.18.36 1.08.36-1.29.36-1.84.37-.2.36-.01.36 2.59.36.32.36-.62.37.01.36-1.63.36 1.25.36-2.99.37-.03.36-.08.36.95.36 1.51.36-.13.37-.07.36-.15.36-1.37.36-.08.36-1.69.37.12.36-.5.36 1.59.36 1.08.36-.06.37-.13.36-.36.36-1.24.36-.17.36-1.67.37-.01.36-.04.36 2.25.36.02h.37l.36-.18.36.02.36-.41.36-3.8.37.87.36.01.36-.12.36 2.28.36.02.37-.18.36-.91.36.58.36.05.36-4.23.37 1.15.36-.1.36 1.18.36 1.24.37-.14.36-.17h.36l.36-.28.36-1.59.37-2.54.36.56.36.2.36 2.73.36-.13.37-.06.36-.36.36.01.36-.16.36-2.72.37-1.38.36 1.11.36-.25.36 2.45.36.15.37-.2.36-.15.36-.02.36-.22.37-2.84.36-1.45.36 1.17.36 1.15.36 1.39.37-.11h.36l.36-.15.36-.12.36-1.33.37-1.52.36-.22.36-1.5.36 2.47.36 1.4.37-.1.36-.08.36-.09.36-.09.37-1.31.36-1.47.36-.21.36-1.43.36 3.77.37.07.36-.06.36-.08.36-.26.36.16.37-3.87h.36l.36-.22.36-.09.36 2.63.37-.08.36-.15.36-.05.36-.1.37-1.38.36-1.45.36-.21.36-.14.36-.06.37 2.66.36-.14.36.19.36-.37.36.28.37-1.67.36-1.48.36-.21.36-.04.36 1.22.37 1.27.36.03.36-.13.36-.19.36-.02.37-2.81.36.06.36-.26.36-.12.37 1.36.36 1.16.36-.12.36-.05.36.01.37-.15.36-2.87.36.1.36-.33.36-.12.37 2.77.36-.16.36.13.36-.08.36-.04.37-1.45.36-1.43.36-.19.36-.17.37 1.39.36 1.38.36-.15.36-.06.36-.03.37-.03.36-2.91.36-.11.36-.28.36.19.37 1.13.36 1.21.36-.04h.72l.37-.01.36-2.88.36.1.36-.36.36.03.37 2.49.36-.04.36.13.36-.06.37-.19.36-.16.36-4.07.36 1.33.36-.25.37 1.36.36 1.4.36-.06.36-.23.36.14.37-.27.36-1.15.36-2.97.36 1.38.36-.28.37 1.22.36 1.39.36-.13.36.1.37-.01.36-.23.36-1.35.36-2.97.36 1.31.37-.15.36 2.67.36-.06.36-.12.36.11.37-.15.36-.02.36-3.03.36-1.33.36 1.22.37-.11.36 2.41.36.26.36-.08.36-.04.37-.1.36-.04.36-2.85.36-.11.37-1.58.36 2.62.36 1.22.36.19.36-.28.37-.07.36.06.36-1.38.36-1.61.36-.23.37-1.79.36 4.25.36.06.36-.1.36-.06.37.16.36-.24.36-3.07.36.12.37-.19.36-1.5.36 3.87.36.13.36-.07.37-.25.36.06.36.04.36-3.14.36-.06.37-.19.36-.17.36 2.88.36-.04.36-.17.37.11.36-.15.36-1.52.36-1.67.37.14.36-.3.36-.02.36 2.62.36-.05.37.09.36-.08.36-.19.36-1.4.36-1.61.37.11.36-.45.36 2.64.36-1.44.36 1.4.37-.02.36-.1.36-.08.36-2.93.36-.24.37-.04.36.92.36 1.48.36-1.18.37 1.06.36.13.36-.19.36-1.3.36-1.65.37-.21.36-.16.36 1.01.36 1.37.36-1.53.37 1.5.36-.15.36-.13.36-1.57.36-1.38.37-.26.36-.38.36 2.98.36-.22.37-1.24.36 1.26.36-.24.36.09.36-2.92.37-.03.36-.51.36-.09.36 2.81.36-.13.37-1.6.36 1.34.36.04.36-.13.36-2.87.37-.27.36-.41.36 1.27.36 1.22.36.21.37-.22.36-1.33.36 1.34.36-1.6.37-1.53.36-.02.36-.52.36 2.73.36-.11.37-.17.36-.07.36-1.44.36 1.32.36-3.02.37.07.36-.31.36-.74.36 2.91.36-.09.37.36.36-.47.36-1.52.36 1.32.37-2.83.36-.33.36-.35.36 1.39.36 1.28.37.09.36-.33.36.06.36-1.4.36-.22.37-1.38.36-.41.36-.15.36 2.51.36.24.37-.12.36-.28.36.04.36-.02.37-5.67.36.76.36.26.36-.42.36 2.98.37-.1.36-.28.36.18.36-.29.36.01.37-4.46.36 1.11.36-.49.36 1.2.36 1.39.37-.11.36-.09.36-.03.36-.14.36-1.36.37-3.21.36 1.04.36-.32.36 1.16.37 1.47.36-.01.36-.17.36.05.36-.16.37-1.54.36-3.37.36 1.58.36-.59.36 2.57.37-.01.36.12.36-.29.36.1.36-.27.37-2.9.36-1.61.36 1.21.36 1.15.37 1.16.36-.11.36-.12.36-.16.36.18.37-1.74.36-1.68.36.15.36-2.08.36 2.76.37 1.17.36.13.36-.13.36-.13.36-.17.37-1.37.36-1.76.36-.35.36-1.64.36 3.93.37.03.36-.2.36-.09.36-.11.37.09.36-2.98.36-.38.36-.47.36-1.51.37 3.78.36.25.36.01.36-.05.36-.25.37.07.36-3.09.36-.04.36-.26.36-.37.37 2.64.36.14.36-.35h.36l.37-.21.36-1.48.36-1.49.36-.32.36-.08.37 1.09.36 1.06.36.25.36-.19.36.01.37-.16.36-3.15.36-.08.36-.48.36-.14.37 1.03.36 1.39.36.23.36-.25.36-.11.37.08.36-3.14.36-.13.36-.7.37.05.36 2.58.36.03.36-.26.36.24.37-.64.36-1.49.36-1.47.36-.24.36-.36.37-.38.36 2.81.36-.15.36-.07.36-.11.37.02.36-1.7.36-1.48.36-.04.37-.19.36 1.22.36 1.36.36-.29.36.16.37-.03.36-.22.36-3.04.36-.13.36-.29.37-.1.36 2.89.36-.15.36.03.36-.04.37-.14.36.3.36-4.81.36 1.29.37-.24.36-.17.36 2.43.36.17.36-.25.37.01.36-.08.36-.03.36-4.1.36.95.37-.49.36 1.3.36 1.32.36.09.36-.01.37.06.36-.52.36-1.49.36-2.74.36 1.06.37-.37.36 2.99.36-.14.36.08.37-.33.36-.07.36-.04.36-3.31.36-1.38.37 1.1.36-.3.36 2.67.36.2.36-.16.37.14.36-.26.36-.26.36-3.02.36-1.55.37 1.05.36 1.2.36 1.42.36.08.37-.1.36-.12.36-.09.36-1.36.36-1.57.37-.3.36-1.25.36 2.19.36 1.42.36.16.37-.27.36.04.36.11.36-1.62.36-1.24.37-.25.36-1.76.36 3.9.36.18.36.03.37-.26.36-.31.36.39.36-3.21.37.12.36-.25.36-.26.36 2.57.36.13.37-.11.36-.14.36.35.36-1.95.36-1.28.37-.22.36-.28.36-.45.36 3.03.36-.09.37-.42.36.42.36-.29.36-1.22.37-1.65.36-.01.36-.4.36 3.07.36-1.62.37 1.66.36-.4.36-.09.36-.12.36-2.68.37-.45.36-.15.36-.38.36 3.18.36-1.52.37 1.23.36.01.36.08.36-.01.36-3.35.37.15.36-.51.36 1.16.36 1.56.37-1.48.36 1.37.36-.05.36-.11.36-1.56.37-1.33.36-.7.36.06.36 2.81.36-.11.37-1.46.36 1.63.36-.61.36.23.36-2.76.37-.17.36-.55.36.06.36 2.83.37.17.36-1.7.36 1.24.36.11.36.05.37-2.88.36-.33.36-.52.36 1.75.36 1.27.37-.09.36.19.36-1.63.36 1.36.36-1.46.37-1.35.36-.43.36-.28.36 1.19.37 1.25.36.25.36-.12.36-1.1.36.82.37-1.32.36-1.55.36-.17.36.08.36 2.59.37-.27.36.24.36-.05.36-1.68.36 1.21.37-2.88.36-.19.36-.26.36 1.22.36 1.62.37-.28.36.28.36-.03.36-1.98.37.25.36-1.72.36.07.36-.6.36 1.5.37 1.36.36-.01.36-.39.36.47.36-1.68.37-.01.36-1.59.36-.17.36-.45.36 2.83.37-.19.36-.06.36-.02.36-.07.37-.39.36-4.14.36 1.31.36.02.36 1.26.37 1.16.36-.01.36-.17.36.13.36-.23.37-1.21.36-3.43.36 1.34.36-.47.36 1.2.37 1.28.36-.02.36-.01.36-.09.36.29.37-1.66.36-2.71.36 1 .36-.22.37 2.58.36-.01.36.4.36-.33.36-.29h.37l.36-2.58.36-1.9.36 1.47.36-.26.37 2.71.36.23.36.03.36-.28.36-.74.37.83.36-3.16.36-.47.36-1.51.37 2.77.36 1.44.36.34.36-.72.36.51.37-.47.36-1.21.36-1.77.36-.35.36-1.49.37 4.42.36-.1h.36l.36-.12.36-.2h.37l.36-3.17.36-.84.36-.18.36-1.02.37 4.11.36-.29.36-.39.36.34.37.18.36-.1.36-2.99.36-.61.36-.02.37.41.36 2.25.36-.02.36.24.36.37.37-.99.36-.97.36-2.08.36.08.36.16.37-.51.36 2.81.36.04.36-.38.37.2.36-.14.36-1.37.36-1.42.36-.08.37-.4.36.99.36 1.19.36.46.36-.26.37.06.36-.15.36-3.3.36.37.36-.23.37-.33.36 2.86.36.17.36-.45.37.41.36-.42.36-1.29.36-1.7.36-.05.37-.52.36-.2.36 3.02.36-.1.36-.08.37.04.36.02.36-1.4.36-1.56.36.03.37-.66.36 1.26.36 1.67.36.04.36-.36.37.07.36-.06.36-2.87.36.02.37-.31.36-.44.36 1.68.36 1.58.36-.23.37.03.36-.06.36-.09"/><use xlink:href="#g" transform="matrix(3.75 0 0 3.75 354.25 65.73)"/><use xlink:href="#g" transform="matrix(3.75 0 0 3.75 95.45 7.51)"/></g><text fill="#000" stroke="none" stroke-linecap="round" stroke-linejoin="round" color="#000" font-family="KaTeX_Main" font-size="8" transform="translate(116 25.11)"><tspan>AVLTopDown</tspan></text><g fill="none" stroke="currentColor" stroke-linecap="round" stroke-linejoin="round" color="#000"><path stroke="#29C3F6" stroke-dasharray="1.0,2.0" d="M80.5 22.51h29.9M28 184.87l.36 1.47.36.08.37-1.33.36-2.09.36-.56.36-.61.36 2.92.37-.48.36-1.09.36.23.36-.01.37-.18.36-2.75.36-.34.36-1.18.36-1.5.37.89.36 1.55.36.16.36.51.36.31.37-.46.36-2.75.36-1.2.36.26.36 1.18.37-.5.36.46.36-1.12.36 1.42.36-.1.37-1.78.36-2.29.36.33.36-.21.37 2.52.36.03.36-1.53.36-.45.36 1.12.37-.69.36-2.39.36.13.36-.17.36-.37.37 3.18.36-2.01.36-.73.36-.26.36-2.09.37 3.33.36-1.81.36-.72.36.13.37 1.38.36 1.22.36-1.01.36.62.36.12.37-3.17.36.29.36-.73.36-.49.36.52h.37l.36 2.06.36-.42.36.12.36-.59.37-1.54.36-.33.36-.89.36-.07.37-.75.36 3.36.36-.29.36-.19.36.3.37-.68.36-3.37.36-1.83.36-1.23.36-.58.37 1.3.36 1.59.36 2.05.36.42.36-.35.37.27.36-4.94.36 1.61.36-.53.36-.07.37 1.05.36 1.41.36.08.36-.19.37-2.13.36 1.77.36-1.17.36-2.96.36 1.4.37-.78.36.99.36 1.05.36.24.36.55.37-.01.36.16.36-3.43.36-.72.36.81.37 1.39.36.65.36-.54.36.91.37-.06.36.14.36-1.7.36-1.73.36-1.11.37.43.36 2.24.36.31.36-1.14.36 1.47.37-.26.36.12.36-1.41.36-1.42.36-2.66.37 2.76.36 2.06.36.35.36-.05.36-.21.37.16.36-.29.36-3.69.36.7.37.07.36-1.29.36 2.45.36-.83.36-.36.37-.09.36.16.36-.85.36-2.47.36.25.37.71.36 1.54.36 2.2.36.05.36-.51.37-.78.36 1.06.36-1.38.36-1.62.37.05.36-.41.36 1.73.36.21.36-.51.37.87.36-.09.36.17.36-2.94.36-2.08.37.07.36 1.43.36.46.36 2.35.36-.4.37.41.36-.67.36.41.36-2.82.36-.07.37-1.77.36 1.56.36 2.43.36.12.37-.34.36.1.36-.07.36-1.33.36-2.34.37.26.36-.97.36.09.36 3.57.36.17.37-.34.36.32.36-1.21.36-1.36.36-.44.37-.25.36-.07.36 1.48.36.93.37.04.36-1.07.36.81.36.14.36-2.76.37-.39.36-2.23.36.37.36 2 .36.13.37-.82.36-.58.36.3.36-1.11.36-2.03.37.16.36.33.36-.17.36 4.41.37.6.36.16.36-.42.36.36.36-1.39.37-1.21.36-.28.36-1.53.36.73.36 3.13.37-.02.36-.73.36.56.36-.15.36-1.37.37-3.45.36 2.26.36-.13.36.92.36 1.09.37.3h.36l.36-.32.36-2.04.37-1.84.36-.04.36 1.5.36-.78.36 3.12.37-.49.36.39.36-.48.36.25.36-.12.37-4.59.36-2.68.36 2.86.36.54.36 3.08.37.55.36-1.85.36.67.36 1.15.37-1.74.36-1.64.36-1.61.36 1.88.36 1 .37.72.36.66.36-.04.36-.52.36.2.37-.95.36-1.29.36-2.58.36-.34.36 2.76.37 2.25.36.35.36-1.09.36.96.36-.78.37-2.13.36-.85.36.62.36.04.37 2.2.36-.18.36.34.36-.02.36.18.37-4.25.36 1.46.36-.48.36-.79.36-.3.37 1.56.36-.34.36 2.04.36.14.36-.27.37-.78.36-1.52.36-.4.36-.36.37 1.72.36 1.6.36-1.75.36-1.01.36.94.37 1.33.36-2.73.36-.64.36.21.36.03.37 1.38.36.57.36.59.36-.03.36-.27.37-.37.36-1.81.36-.12.36-.62.36-.42.37 1.39.36 2.13.36-.07.36-.18.37.18.36-1.58.36-1.5.36-.31.36-2.82.37 2.9.36-.13.36-1.15.36.86.36.3.37-.39.36-2.73.36.28.36-.68.36-.14.37 2.81.36-.26.36-1.28.36 1.42.37-.09.36 1.8.36-1.68.36-.02.36-.28.37 1.27.36 1.04.36.41.36-1.89.36.38.37-1.03.36.53.36-1.4.36-.67.36.28.37.88.36 1.83.36-1 .36-.79.37 1.41.36-.53.36-1.38.36-1.04.36.09.37-.63.36.38.36-.62.36 3.26.36-.21.37-1.7.36 1.56.36-3.15.36.2.36-.23.37 1.18.36 1.54.36-1.52.36-1.77.36 1.37.37-1.55.36.93.36-.8.36-1.85.37.55.36 2.16.36 1.37.36-.51.36.04.37.54.36-1.63.36-.72.36-.72.36-.16.37-.6.36 2.68.36.46.36.07.36-1.1.37-1.57.36-1.35.36.66.36.09.37-.74.36.54.36 1.82.36.7.36-.46.37-.18.36.72.36-1.9.36-1.5.36-.15h.37l.36 1.27.36-1.11.36 2.47.36-.1.37-1.35.36-.05.36-2.6.36-3.08.36 3.06.37.49.36 1.86.36.78.36-.26.37-.24.36-.29.36.22.36-2.45.36-3.13.37.47.36-.05.36 4.55.36-.26.36-.26.37.5.36-.43.36.17.36-3.64.36-.5.37 1.3.36.54.36.9.36.58.37-.27.36-.31.36-1.69.36-.29.36-.72.37-1.67.36 1.18.36 2.62.36.09.36-.25.37-.04.36-2.5.36-.34.36-2.92.36-.26.37-1.63.36 1.37.36 2.32.36.03.37-.42.36-1.02.36.27.36.08.36-3.5.37.14.36.08.36-.63.36 2.39.36.83.37.11.36-.74.36.44.36-1.81.36-1.54.37-.23.36.42.36 2.68.36 2.51.36-.17.37-.65.36.25.36-.31.36-1.63.37-1.33.36-.14.36-.29.36.82.36 1.44.37-.2.36-.32.36-.02.36-.15.36-6.01.37-.43.36 3.15.36-.18.36 2.86.36-.37.37-.04.36-.86.36-.54.36-.13.37-2.24.36-.93.36 1.16.36-.56.36 2.72.37-.25.36-1.82.36 1.76.36-.18.36-1.55.37-.84.36-1.38.36-.04.36 1.76.36-.35.37 1.65.36-.35.36-.04.36.2.36-2.85.37-1.39.36-2.33.36.42.36.22.37 1.81.36 3.2.36-.55.36.12.36-.38.37-2.81.36-1.48.36.51.36.05.36 1.5.37.63.36.58.36-.5.36-.06.36-1.8.37-1.25.36.41.36-.61.36.94.37-.53.36-.91.36-.77.36.22.36 1.65.37-3.26.36-.89.36-.31.36 1.14.36 2.23.37 1.24.36-.13.36-1.13.36-3.11.36 1.89.37.78.36-3.3.36 1.56.36-.93.36 2.98.37-1.45.36 1.33.36-.02.36-1.64.37 1.37.36-2.87.36-2.41.36 1.77.36-.59.37 1.68.36 1.66.36-.58.36.19.36.36.37-1.47.36-1.93.36-2.5.36 1.41.36 1.91.37 1.16.36.15.36.24.36-.41.37-2.09.36-2.7.36-1.21.36-2.41.36 3.57.37 4.12.36-.32.36-.07.36-.32.36.07.37-2.02.36-1.17.36.06.36-1.74.36.04.37 4.04.36-.1.36-.05.36-1.77.37 1.04.36.67.36-3.17.36.36.36-.27.37-1.07.36 3.81.36-1.35.36.63.36.14.37-.13.36-1.63.36-1.03.36-.51.36-2.84.37 1.02.36 4.54.36-.28.36.11.36-.14.37-1.87.36-2.7.36-.56.36.46.37-1.56.36 1.43.36 1.01.36-.11.36 1.53.37 1.29.36-.12.36-2.79.36-1.32.36.77.37 1.16.36-.26.36 1.84.36-1.21.36.42.37.17.36-2.89.36.13.36-.11.37-.32.36 1.56.36 1.68.36-2.18.36-1.05.37.14.36-1.17.36-.73.36 1.6.36-.56.37-.22.36 2.59.36.26.36-2.29.36 1.59.37.04h.36l.36-2.73.36.35.36-.2.37 1.1.36 1.07.36-1.58.36.56.37 1.07.36.04.36-1.21.36-2.8.36.91.37-.1.36-.32.36 2.97.36-.16.36-1.69.37 1.69.36.11.36-3.1.36-3.11.36 1.35.37.52.36 2.74.36.77.36.01.37-1.59.36 1.52.36-.3.36-2.74.36-.37.37.14.36-.86.36 3.31.36-.33.36-.09.37-.1.36-1.25.36-2.56.36-1.58.36-.41.37.31.36 1.26.36 1.04.36.08.36-.66.37-.68.36-.72.36.08.36-1.31.37-.9.36.46.36 2.3.36.18.36.44.37-.87.36-.07.36-1.45.36-1.26.36-.37.37.24.36-.01.36 1.65.36 1.04.36-.01.37-.21.36-.09.36-.83.36-2.12.37.31.36-.88.36 4.9.36 1.29.36-.35.37.03.36-.36.36.07.36-1.58.36-2.94.37 1.55.36-.32.36 1.39.36 1.04.36.75.37-.64.36-.16.36.06.36-4.1.37-3.92.36 3.86.36 1.01.36 2.64.36-.3.37-.05.36-.33.36-1.21.36 1.5.36-2.61.37-3.03.36 2.9.36.84.36 1.2.36.32.37-2.58.36 1.79.36.35.36-1.74.36-.72.37-2.7.36 1.32.36 1.85.36-.31.37 1.44.36.18.36-.44.36.66.36-1.83.37-1.95.36-4.29.36 1.2.36 2.1.36.17.37 3.6.36-.23.36.26.36-.47.36-2.73.37-1.63.36.32.36.76.36 2.26.37-.48.36.91.36-.2.36.04.36-2.06.37-1.58.36.64.36-.37.36-.4.36 1.4.37-.92.36-.97.36.43.36 1.13.36-1.05.37-1.78.36-.53.36.25.36 2.72.36 1.46.37-.02.36-.66.36-3.08.36 1.05.37-.42.36-.45.36.08.36-.01.36 1.06.37.28.36.63.36.47.36-1.14.36 1.04.37-2.46.36-.75.36.28.36-1.28.36 1.85.37 1.64.36-.2.36-.03.36.09.37-2.44.36-1.46.36.01.36-1.36.36 3.24.37 1.08.36.2.36.07.36-.18.36-1.72.37-4.57.36.24.36-.85.36 1.73.36 3.39.37 1.05.36.01.36-.19.36.19.36-2.08.37-.84.36-.08.36-1.97.36 1.03.37 2.85.36.08.36.01.36-1.59.36-.1.37.43.36-1.74.36-.45.36.55.36-1.36.37 3.21.36-.99.36.27.36.32.36-.26.37-1.44.36-1.19.36-.04.36-2.87.37.65.36 4.19.36.95.36-.54.36-.28.37-1.2.36-1.77.36-3.21.36 1.89.36-1.66.37 2.82.36-.12.36-.68.36 1.78.36 1.68.37-.24.36-2.77.36-2.51.36 1.64.37.67.36 2.47.36.16.36-.68.36-.49.37.37.36-.75.36-2.12.36-1.39.36 1.11.37 1.88.36 1.65.36-.46.36-3.3.36.3.37-.37.36-2.25.36 2.08.36-1.73.36 1.53.37 1.17.36 1.58.36-.77.36-.19.37.83.36-.47.36-2.08.36-.21.36-1.95.37 1.02.36 2.86.36-2.16"/><use xlink:href="#h" color="#29C3F6" transform="matrix(3.75 0 0 3.75 67.83 162.54)"/><use xlink:href="#h" color="#29C3F6" transform="matrix(3.75 0 0 3.75 95.45 22.51)"/></g><text fill="#000" stroke="none" stroke-linecap="round" stroke-linejoin="round" color="#000" font-family="KaTeX_Main" font-size="8" transform="translate(241.1 10.11)"><tspan>AVLWeakBottomUp</tspan></text><g fill="none" stroke="currentColor" stroke-linecap="round" stroke-linejoin="round" color="#000"><path stroke="#3B75EA" d="M205.6 7.51h29.9M28 188.98l.36-3.11.36-.68.37-1.83.36.67.36 2.49.36-.1.36-.56.37-.3.36-.45.36-.27.36-3.56.37-.59.36-1.38.36 2.45.36 1.26.36-.73.37-.79.36-.27.36-.38.36-1.63.36-1.65.37-.61.36-1.89.36 3.86.36-.28.36-.5.37-.16.36-.4.36-.11.36-3.29.36-.31.37-.29.36-2.06.36 4.14.36-.26.37-.05.36-.46.36-.1.36-.22.36-2.9.37-.45.36-.31.36.08.36 2.32.36-.07.37-.34.36-.09.36-.02.36-1.58.36-1.74.37-.43.36-.02.36-.21.36 2.71.37-.2.36-.19.36-.17.36-.2.36-1.47.37-2.34.36.22.36-.28.36 1.19.36.98.37.18.36-.01.36-.78.36.24.36-3.18.37-.23.36-.08.36-.16.36 2.39.37-.17.36.03.36-.38.36.06.36-1.89.37-1.44.36-.44.36-.37.36-1.09.36 2.39.37.46.36-.55.36.22.36-.28.36-1.82.37-1.33.36-.2.36-.2.36 1.01.36 1.29.37-.47.36-.08.36-.2.36-.23.37-2.69.36-.45.36.02.36-.6.36 2.86.37-.22.36.23.36-.22.36-.06.36.03.37-4.28.36 1.02.36-.3.36.08.36 2.36.37.07.36-.12.36-.12.36-.04.37-.2.36-3.87.36.71.36.21.36 1.11.37 1.34.36-.01.36-.34.36.01.36-.26.37-1.28.36-2.92.36 1.17.36-.2.36 1.27.37 1.17.36-.23.36.24.36-.25.36-.14.37-1.32.36-3.06.36 1.26.36-.1.37 2.62.36-.17.36-.06.36-.31.36.17.37-.4.36-2.76.36-.13.36-1.6.36 2.56.37 1.08.36.26.36-.35.36-.09.36-.11.37-1.52.36-1.44.36-.21.36-1.16.37 1.99.36 1.55h.36l.36-.28.36-.03.37-.18.36-1.56.36-1.47.36.02.36-1.43.37 3.68.36-.07.36-.12.36-.09.36-.22.37.2.36-3.05.36-.12.36-.09.36-1.56.37 3.9.36-.13.36-.03.36-.12.37-.12.36-.17.36-2.91.36-.14.36.09.37 1.13.36.04.36 1.16.36-.1.36-.12.37-.04.36-1.48.36-1.43.36-.23.36-.18.37 2.67.36-1.38.36 1.32.36-.12.37-.16.36.05.36-2.83.36.01.36-.4.37.09.36 2.52.36-1.28.36.96.36.16.37-.92.36-.12.36-2.62.36-.14.36-.41.37 1.41.36 1.22.36-1.54.36 1.27.37-.13.36.22.36-1.61.36-1.5.36-.01.37-.04.36.92.36 1.37.36-1.27.36 1.29.37-.06.36-.16.36-1.51.36-1.72.36.1.37.06.36 2.46.36.06.36-.09.36-1.33.37 1.09.36-.02.36-2.69.36-.16.37-.07.36 1.06.36 1.31.36.02.36-.07.37-1.44.36 1.2.36-1.24.36-1.49.36-.23.37-.22.36 1.39.36 1.36.36-.02.36-.13.37-1.11.36 1.14.36-1.57.36-1.34.37-.15.36.05.36 2.38.36.04.36-.1.37.07.36-1.42.36 1.31.36-2.92.36-.1h.37l.36 1.14.36 1.08.36-.03.36.16.37-.03.36-1.39.36-.08.36-1.42.36-.29.37.03.36 1.36.36 1.13.36.08.37-.12.36-.09.36-.1.36-2.6.36-.34.37.32.36-.23.36 2.5.36-.01.36-.1.37-.21.36.09.36.05.36-4.06.36 1 .37-.04.36-.09.36 2.65.36.07.37-.23.36.02.36-.02.36-.13.36-4 .37.84.36.13.36 1.2.36 1.27.36-.12.37-.04.36-.15h.36l.36-1.26.36-2.94.37 1.32.36-.21.36 2.44.36.05.36-.07.37-.12.36-.06.36.17.36-2.89.37-.14.36-1.52.36 1.08.36 2.68.36-.05.37-.08.36.06.36.09.36-.29.36-2.77.37-.15.36-1.46.36 2.68.36 1.3.36-.12.37-.09.36.11.36-.16.36-1.44.37-1.41.36-.2.36-1.32.36 2.16.36 1.4.37-.06.36-.01.36.05.36-.13.36-1.25.37-1.75.36-.22.36-1.26.36 3.76.36-.14.37.01.36-.05.36.05.36-.18.37-2.72.36-.09.36-.27.36-.03.36 2.5.37.05.36.1.36-.37.36.19.36-1.58.37-1.37.36-.25.36-.28.36-.13.36 2.47.37.1.36.08.36-.03.36-.19.36-1.49.37-1.32.36-.36.36-.13.36 1.22.37 1.11.36.04.36-.06.36-.15.36.03.37-2.87.36-.21h.36l.36-.46.36 1.09.37 1.65.36-.09.36-.09.36-.15.36.06.37-2.82.36-.48h.36l.36-.14.37 2.69h.36l.36-.05.36-.03.36-.11.37-1.44.36-1.5.36-.26.36-.24.36.99.37 1.59.36-.28.36.03.36-.07.36-.09.37-2.71.36-.3.36-.17.36-.67.36 1.48.37 1.26.36.19.36-.04.36-.13.37.03.36-2.81.36-.15.36-.23.36-.39.37 2.72.36-.05.36.03.36-.33.36.22.37-.08.36-4.15.36.67.36-.12.36 1.16.37 1.49.36-.22.36-.05.36-.01.37-.11.36-1.49.36-3.24.36.91.36.03.37 1.18.36 1.37.36-.18.36-.04.36-.33.37.08.36-1.52.36-2.84.36.87.36-.09.37 2.61.36.1.36-.18.36-.2.37-.68.36-.21.36-2.86.36-.23.36-1.76.37 1.18.36 2.69.36-.02.36-.11.36-.13.37-.03.36-.2.36-3.04.36-.22.36-1.57.37 2.5.36 1.32.36-.11.36-.13.36-.27.37-.1.36-1.2.36-1.87.36-.23.37-1.7.36 3.99.36.03.36-.13.36-.08.37-.32.36.06.36-2.87.36-.34.36-.72.37-1.22.36 4.12.36-.17.36-.05.36-.23.37.01.36-.27.36-2.82.36-.1.37-.38.36-.26.36 2.57.36.01.36-.16.37.09.36-.24.36-1.46.36-1.71.36-.42.37-.34.36 1.25.36.14.36 1.1.36-.17.37.04.36-.05.36-2.05.36-1.53.36.04.37-.14.36 2.28.36-1.25.36 1.29.37-.13.36-.01.36-.04.36-2.89.36-.46.37-.14.36 1.11.36 1.31.36-1.52.36 1.2.37-.02.36-.08.36-1.43.36-1.71.36-.35.37-.1.36 1.34.36 1.19.36-1.52.37 1.11.36-.1.36-.03.36-1.35.36-1.84.37-.11.36-.37.36 2.98.36-.2.36-.17.37-1.45.36 1.12.36-.24.36-2.65.36-.68.37-.2.36-.25.36 2.46.36-.08.36-.27.37-1.29.36 1.37.36-.32.36-3.26.37-.09.36.16.36 1.05.36 1.07.36.32.37-.53.36-1.05.36.99.36-1.8.36-1.46.37-.02.36-.29.36 2.54.36-.14.36-.15.37-.01.36-1.65.36 1.54.36-3.08.37.12.36-.04.36-.67.36 2.48.36.01.37.11.36-.29.36-1.45.36 1.54.36-3.14.37-.15.36-.01.36.93.36 1.56.36.04.37-.1.36-.11.36-.1.36-2.85.37-.21.36-.19.36-.02.36 2.14.36.31.37-.1.36-.01.36-.07.36-.41.36-4.01.37.6.36.03.36-.18.36 2.7.36.06.37-.16.36-.14.36-.04.36-.18.36-4.28.37 1.2.36-.25.36 1.12.36 1.47.37-.4.36.01.36-.1.36.27.36-1.53.37-3.04.36 1.02.36.13.36.81.36 1.53.37-.07.36-.17.36.06.36-.24.36-1.39.37-3.42.36 1.47.36-.25.36 2.66.37-.13.36-.05.36.23.36-.29.36.03.37-2.95.36.09.36-1.59.36 2.05.36 1.71.37-.16.36.13.36-.2.36.02.36-1.14.37-1.74.36-.43.36-1.64.36 2.74.36 1.42.37-.51.36-.07.36.37.36-.43.37-1.22.36-1.63h.36l.36-1.92.36 4.22.37-.07.36.09.36.18.36-.39.36.05.37-2.82.36-.37.36-.12.36-1.73.36 4.15.37.07.36.08.36-.01.36-.06.37-.13.36-2.59.36-.62.36.25.36-.48.37 2.94.36-.39.36.09.36-.43.36.32.37-1.57.36-1.4.36.01.36-.34.36 1.23.37 1.5.36-.05.36.15.36-.29.36-.24.37-2.61.36-.65.36-.13.36-.04.37 1.42.36 1.47.36-.32.36-.01.36-.08.37-.1.36-3.04.36-.14.36.28.36-.35.37 2.42.36.25.36-.33.36.07.36.12.37-1.68.36-1.51.36.04.36-.41.37.2.36 2.72.36-.47.36.32.36-.24.37-.02.36-1.6.36-1.81.36.26.36-.15.37 1.09.36 1.46.36.04.36-.17.36.1.37-.16.36-2.63.36-.69.36-.11.37-.47.36 2.85.36.07.36.17.36-.23.37-.12.36-.02.36-4.26.36 1.46.36-.28.37-.01.36 2.55.36-.25.36-.12.36-.25.37.22.36-.27.36-4.42.36 1.37.36.15.37 1.03.36 1.42.36-.33.36-.56.37.3.36-.13.36-1.32.36-3.11.36 1.23.37.31.36 2.13.36-.05.36.45.36-.1.37-.44.36-.11.36-3.02.36-.41.36-1.61.37 1.58.36 2.69.36.31.36.07.37-.52.36-.05.36.07.36-2.71.36-.1.37-1.74.36 2.61.36 1.31.36-.05.36-.02.37.08.36-.36.36-1.49.36-1.66.36-.16.37-1.46.36 1.44.36 1.23.36-.06.36.16.37-.27.36.69.36-1.18.36-2.06.37.33.36-1.7.36 4.46.36-.41.36.1.37-.05.36.17.36-.09.36-2.85.36-.28.37-.23.36.02.36 2.83.36-.33.36-.03.37.07.36-.36.36-1.42.36-1.56.37-.22.36-.34.36 1.69.36-.31.36 1.78.37-.57.36.22.36-.24.36-1.31.36-1.55.37-.28.36-.16.36 2.81.36-1.41.36 1.14.37.14.36-.23.36-.24.36-2.95.36-.17.37.07.36-.53.36 2.75.36-1.63.37 1.65.36.12.36-.24.36-.24.36-2.96.37.06.36-.24.36.9.36 1.53.36-.95.37.65.36.27.36-.09.36-1.23.36-1.37.37-.85.36.11.36 2.55.36-.06.37-1.21.36 1.3.36-.01.36-.13.36-2.68.37-.28.36-.49.36-.17.36 3.1.36-.46.37.15.36-1.39.36 1.05.36.16.36-2.84.37-.13.36-.26.36 1.23.36 1.35.37.29.36-.13.36-1.56.36 1.43.36-1.47.37-1.64.36-.18.36-.33.36 1.12.36 1.64.37.04.36-.04.36-1.5.36 1.36.36-1.51.37-1.75.36-.06.36.13.36 2.43.36-.31.37.16.36.21.36-1.53.36 1.43.37-2.97.36-.49.36.06.36 1.48.36 1.44.37-.18.36-.3.36-.07"/><use xlink:href="#d" color="#3B75EA" transform="matrix(3.75 0 0 3.75 125.4 142.11)"/><use xlink:href="#d" color="#3B75EA" transform="matrix(3.75 0 0 3.75 220.55 7.51)"/></g><text fill="#000" stroke="none" stroke-linecap="round" stroke-linejoin="round" color="#000" font-family="KaTeX_Main" font-size="8" transform="translate(241.1 25.11)"><tspan>AVLWeakTopDown</tspan></text><g fill="none" stroke="currentColor" stroke-linecap="round" stroke-linejoin="round" color="#000"><path stroke="#00C853" stroke-dasharray="4.5,2.0,0.5,2.0,0.5,2.0" d="M205.6 22.51h29.9M28 168.26l.36 2.85.36-.33.37.19.36-1.48.36-.85.36-.6.36-1.24.37-2.36.36.42.36-.56.36 4.34.37-1.72.36-.26.36-.23.36-.4.36-2.38.37-4.22.36 2.14.36-.21.36 1.38.36-.17.37 1.14.36-.98.36-.41.36-.97.36-3.08.37.51.36.41.36-1.36.36 3.59.36-.84.37.07.36-1.62.36-.15.36-.02.37-3.79.36.11.36 1.79.36-.15.36 3.18.37-1.88.36.68.36-.46.36 1.1.36-2.42.37-.87.36-3.27.36 2.36.36-.84.36 1 .37 1.03.36.57.36-1.03.36-.03.37-.74.36-1.55.36-2.25.36-.16.36 1.94.37 2.9.36-.32.36-1.3.36 1.62.36-1.69.37-.66.36-5.1.36 1.27.36.31.36 3.04.37-1.41.36 2.23.36-1.09.36.29.37-2.65.36-1.73.36.92.36-1.12.36-.28.37 2.87.36-.81.36.85.36-2.93.36-.49.37-2.1.36 1.26.36-.94.36-.86.36 2.36.37 1.52.36-.31.36-1.08.36.52.36 1.14.37-2.09.36-1.91.36.3.36-.09.37.14.36 1.39.36-1.07.36 1 .36-.61.37-.91.36.53.36-1.13.36-.07.36-1.46.37 3.03.36.22.36.42.36-.91.36.12.37-1.27.36-1.57.36-1.33.36-.08.37-.1.36 2.88.36-.57.36 1.06.36-.92.37.11.36-1.68.36-1.83.36-.2.36 3.05.37-.24.36 2.58.36-1.14.36 1.19.36-2.26.37-.8.36-1.2.36.05.36-.66.36.22.37 1.12.36 2.49.36-1.36.36-2.24.37 2.15.36.75.36-3.66.36-2.2.36 1.69.37-.29.36 2.68.36-3.11.36.59.36 1.13.37 1.37.36-2.59.36-.54.36-.57.36-.11.37.47.36 1.16.36.99.36.03.37-1.02.36.47.36-2.78.36-.31.36-.95.37-.04.36.43.36 1.96.36-.81.36 1.14.37-.01.36 1.34.36-5.1.36.01.36 1.13.37 1.05.36.98.36-.5.36.76.36.67.37-1.8.36-1.47.36-4.75.36 4.31.37-.07.36-.81.36 3.49.36-.51.36-.27.37-.86h.36l.36 1.18.36-1.22.36-5.34.37 4.48.36.33.36 1.91.36-3.43.36.38.37.77.36 1.72.36-1.9.36-.46.37-2.48.36 1.88.36-.04.36-.08.36.49.37 2.13.36-2.48.36 1.19.36-3.18.36 1.21.37-4.04.36.29.36 1.92.36 1.47.36-1.16.37 1.24.36 2.07.36.08.36-3.12.37-.56.36-2.05.36 3.69.36 1.38.36.14.37-.36.36-.13.36-.75.36-1.61.36-1.21.37-.14.36-1.65.36 1.79.36 3.65.36-.76.37-.29.36-.8.36-.1.36-.8.36-1.07.37-1.31.36.65.36 1.1.36.88.37-.11.36-.27.36-.3.36.44.36-3.76.37.73.36-.23.36 1.48.36-.78.36 1.32.37.02.36 1.79.36-.6.36-.87.36-1.95.37-.23.36-1.49.36 2.11.36.03.37 1.37.36-.28.36.13.36.63.36-1.32.37-2.57.36.79.36-.53.36 3.02.36-2.06.37 1.45.36-.59.36.22.36-.51.36-4.05.37 1.35.36.22.36.81.36.7.36 1 .37-1.74.36 1.53.36-.74.36-.74.37-1.86.36 1.21.36-.86.36.8.36 1.01.37 1.18.36-2.7.36 1.18.36-.54.36-.53.37-2.44.36 1.56.36 1.03.36 3.7.36-1.73.37-1.07.36.13.36 2.1.36-1.45.37-2.7.36-.02.36.98.36-1.24.36.49.37-.59.36 2.09.36-.34.36.18.36 1.5.37-3.33.36-.04.36-.87.36.96.36 2.22.37 1.59.36-3.51.36 2.04.36.06.36-.97.37-4.55.36.27.36.24.36 5.14.37-1.15.36 1.67.36-1.85.36 1.11.36-4.38.37-1.66.36.92.36 2.27.36-2.55.36 2.96.37.65.36.7.36-2.05.36-1.11.36-2.12.37-.15.36-1.49.36 1.24.36 4.11.37.99.36-.26.36-.78.36.01.36 1.2.37-3.19.36-1.28.36.74.36-.43.36.9.37.67h.36l.36.7.36.38.36-1.6.37-.48.36-.94.36.29.36-1.24.37 2.46.36.3.36.78.36-.98.36-.03.37-.29.36-4.02.36.33.36-.07.36.82.37 1.59.36-.73.36.56.36-.38.36 1.11.37-2.56.36-1.52.36-1.4.36 3.31.36-.65.37 1.83.36.73.36 1.04.36-1.06.37-2.78.36-1.1.36.98.36-.8.36.2.37 3.07.36.43.36-1.01.36-2.26.36.13.37 1.14.36-.98.36-3.21.36 1.49.36-.27.37 2.71.36-3.06.36.36.36-.33.37.85.36-1.37.36.14.36.19.36-.74.37 1.67.36.77.36.01.36 1.05.36-.83.37-.04.36-1.33.36-1.71.36-.26.36-.47.37.93.36 2.05.36-1.24.36 1.73.36-.51.37 2 .36-5.15.36-2.36.36.18.37 3 .36.34.36-.09.36 1.31.36.43.37-.9.36-3.29.36-2.4.36.45.36-.69.37-.4.36 6.36.36-.42.36.33.36-1.16.37.05.36-.88.36-.99.36-3.02.37 2.4.36.14.36 2.16.36-3.43.36-.29.37.38.36.24.36-4.47.36 2.81.36-.51.37.79.36-.79.36.46.36.11.36 3.28.37-3.05.36.5.36-2.39.36.74.37-2.16.36-1.54.36 1.8.36.49.36.02.37-.2.36 1.06.36-1.47.36-3.02.36-.7.37.1.36 3.41.36 3.18.36-.92.36.39.37.57.36-.36.36-2.37.36-2.37.36-.26.37.32.36.86.36 2.35.36-.38.37.37.36-.85.36-.55.36-2.29.36.4.37-1.31.36.09.36 3.04.36-.61.36-.97.37.61.36-.56.36.51.36-5.04.36 1.52.37.15.36-.2.36 1.78.36.17.37-1.22.36 2.42.36-.47.36-.52.36-2.37.37-1.59.36.42.36.82.36 1.19h.36l.37-.02h.36l.36 1 .36-2.43.36-1.98.37-1.15.36.72.36 1.33.36 1.34.36-.45.37.39.36-.85.36-.7.36-1.61.37-1.35.36-1.52.36.98.36 1.31.36 1.11.37.35.36-.29.36-.73.36.14.36-3.12.37.71.36-2.33.36 3.05.36.99.36.23.37-.9.36.12.36-.71.36-.84.37-2.25.36.64.36-.23.36 3.05.36-.2.37.01.36-.49.36 1.3.36-1.8.36-.84.37-1.87.36-.13.36-1.07.36 1.04.36 2.51.37.28.36-.27.36-.97.36.21.36-2.69.37-.37.36-1.02.36.47.36 1.92.37 1.82.36-1.35.36.91.36-1.13.36.3.37-4.98.36 1.48.36-.32.36 1.5.36-.9.37 2.77.36-1.01.36.13.36-1.24.36-.05.37-1.93.36-.25.36-1.82.36 4.48.37-2.6.36 1.74.36-1.47.36-.84.36 1.92.37-2.48.36-.84.36-.34.36.25.36 2.11.37-1.04.36.67.36.21.36-.08.36-.09.37-2.76.36-.4.36-.55.36.46.37 1.14.36.4.36-1.44.36 1.71.36-1.07.37.14.36-1.02.36-.31.36-1.43.36 2.85.37-.16.36.92.36-1.86.36.53.36.14.37-1.86.36-2.49.36.66.36-.53.36 3.19.37-.82.36.45.36-1.44.36 1.47.37-.36.36-3.56.36-.11.36 2.83.36 1.11.37.13.36 1.08.36.52.36-2.2.36-1.36.37-1.16.36.05.36.65.36-1.44.36 3.16.37-.14.36 1.18.36-4.27.36 1.28.37-.58.36 1.51.36-4.8.36 2.21.36-.56.37 3.51.36-3.48.36-.13.36-.65.36.85.37-2.8.36 1.05.36.45.36.31.36.73.37.76.36.1.36 1.28.36-.97.36.18.37-3.7.36.38.36-1.01.36-.58.37 1.08.36 1.71.36.26.36.17.36.34.37.48.36-3.54.36-2.49.36-.35.36 2.59.37 2.36.36-1.91.36 2.03.36-1.3.36.57.37-2.81.36-3.98.36 1.43.36-.22.37-1.53.36 6.19.36.62.36-.46.36-.65.37-.35.36 1.09.36-2.09.36-5.09.36 3.96.37.24.36 1.7.36-2.44.36-.15.36-.47.37.31.36-2.11.36 1.13.36-1.55.36 2.1.37 1.17.36-1.44.36-.14.36 3.59.37-2.12.36-.21.36-2.17.36.25.36-1.98.37-1.34.36 2.73.36.43.36.04.36-1.02.37 1.29.36-.26.36-3.58.36-.4.36-1.62.37 4.59.36 3.73.36-1.15.36.68.37-.26.36-.12.36-2 .36-1.45.36-.68.37-1.5.36 1.76.36 2.68.36.42.36.15.37-1.5.36.05.36-1.2.36-.91.36-.36.37-.22.36.94.36 1.33.36-1.29.37.39.36.25.36.44.36-3.62.36-.27.37.7.36.25.36 1.6.36-.41.36 1 .37 1.46.36-.38.36-2.03.36-1.21.36-.75.37-.21.36-.77.36 3.07.36.09.36-.3.37-.28.36 1.5.36-1.57.36-3.11.37.35.36.17.36 1.06.36 1.44.36.18.37-.15.36-.37.36-.13.36-3.62.36.59.37-.91.36.55.36 2.03.36.41.36.41.37-.33.36-1.01.36-1.15.36-1.74.37 1.17.36-.36.36.02.36 2.37.36.66.37-.66.36-.28.36-.39.36-.61.36-1.98.37.2.36 1.44.36 1.57.36.69.36-1.87.37.36.36 1.76.36.2.36-5.69.36 3.17.37-.67.36.42.36-2.03.36.96.37.09.36.63.36-1.07.36 3.19.36-2.78.37-.31.36.23.36-.89.36 3.47.36.81.37-2.58.36 1.84.36-.56.36 1.5.36-7.29.37.29.36-.85.36 2.46.36.1.37 2.13.36.08.36 2.58.36-2.75.36-2.98.37-2.18.36 2.08.36.16.36-.52.36 3.3.37.06.36-1.04.36-2.22.36-.32.36-1.05.37-1.7.36-2.56.36 3.08.36 2.41.36.35.37-1.01h.36l.36 1.87.36 2.36.37-4.35.36 1.02.36-1.6.36.62.36 2.32.37-.1.36-.72.36.91.36-1.33.36 1.56.37-3.19.36-.02.36-2.08.36 2.68.36.66.37.98.36-.93.36.48.36-.16.37-1.08.36-2.94.36.73.36-.9.36 2.36.37.18.36.29.36.46.36-.25.36-.46.37-3.35.36-.74.36 2.63.36-.04.36-1.28.37 3.89.36-.91.36 1.1.36-3.96.37.42.36-2.47.36.45.36-1.65.36 5.02.37-1 .36 2.59.36-3.29.36-.55.36 1.95.37.57.36-5.02.36 2.36.36-1.3.36 1.88.37-2.37.36.81.36-.4.36.11.36-.95.37-.35.36-1.47.36.6.36-1.51.37 2.96.36-1.94.36 5.91.36-.44.36-.3.37-.19.36-2.86.36-.05"/><use xlink:href="#i" color="#00C853" transform="matrix(3.75 0 0 3.75 182.98 116.01)"/><use xlink:href="#i" color="#00C853" transform="matrix(3.75 0 0 3.75 220.55 22.51)"/></g><path fill="none" stroke="none" stroke-linecap="round" stroke-linejoin="round" stroke-width="0" d="M28 45.01V205M371.99 45.01H28" color="#000"/></svg>